{
    "header": {
        "PPQ": 240,
        "bpm": 120,
        "timeSignature": [
            4,
            4
        ],
        "name": "K[VCìÈuv\\fB[ECEu[vsAm\\Å"
    },
    "startTime": 0,
    "duration": 948.618750000004,
    "tracks": [
        {
            "startTime": 0,
            "duration": 0,
            "length": 0,
            "notes": [],
            "controlChanges": {},
            "id": 0,
            "name": "K[VCìÈuv\\fB[ECEu[vsAm\\Å"
        },
        {
            "startTime": 3.9374999999999996,
            "duration": 753.9229166666851,
            "length": 7178,
            "notes": [
                {
                    "name": "F3",
                    "midi": 53,
                    "time": 3.9374999999999996,
                    "velocity": 0.2440944881889764,
                    "duration": 0.3395833333333331
                },
                {
                    "name": "G3",
                    "midi": 55,
                    "time": 4.241666666666666,
                    "velocity": 0.1968503937007874,
                    "duration": 0.25
                },
                {
                    "name": "F3",
                    "midi": 53,
                    "time": 4.51875,
                    "velocity": 0.06299212598425197,
                    "duration": 0.21041666666666625
                },
                {
                    "name": "G3",
                    "midi": 55,
                    "time": 4.691666666666666,
                    "velocity": 0.23622047244094488,
                    "duration": 0.20624999999999982
                },
                {
                    "name": "F3",
                    "midi": 53,
                    "time": 4.904166666666666,
                    "velocity": 0.2440944881889764,
                    "duration": 0.20624999999999982
                },
                {
                    "name": "G3",
                    "midi": 55,
                    "time": 5.081249999999999,
                    "velocity": 0.29133858267716534,
                    "duration": 0.18541666666666679
                },
                {
                    "name": "F3",
                    "midi": 53,
                    "time": 5.266666666666666,
                    "velocity": 0.30708661417322836,
                    "duration": 0.16875000000000018
                },
                {
                    "name": "G3",
                    "midi": 55,
                    "time": 5.4208333333333325,
                    "velocity": 0.2992125984251969,
                    "duration": 0.15833333333333321
                },
                {
                    "name": "F3",
                    "midi": 53,
                    "time": 5.591666666666666,
                    "velocity": 0.2283464566929134,
                    "duration": 0.12291666666666679
                },
                {
                    "name": "G3",
                    "midi": 55,
                    "time": 5.695833333333333,
                    "velocity": 0.2992125984251969,
                    "duration": 0.125
                },
                {
                    "name": "F3",
                    "midi": 53,
                    "time": 5.822916666666666,
                    "velocity": 0.1889763779527559,
                    "duration": 0.13125000000000053
                },
                {
                    "name": "G3",
                    "midi": 55,
                    "time": 5.927083333333333,
                    "velocity": 0.28346456692913385,
                    "duration": 0.12708333333333321
                },
                {
                    "name": "F3",
                    "midi": 53,
                    "time": 6.054166666666666,
                    "velocity": 0.3228346456692913,
                    "duration": 0.09375
                },
                {
                    "name": "G3",
                    "midi": 55,
                    "time": 6.137499999999999,
                    "velocity": 0.3779527559055118,
                    "duration": 0.10833333333333339
                },
                {
                    "name": "F3",
                    "midi": 53,
                    "time": 6.239583333333333,
                    "velocity": 0.3700787401574803,
                    "duration": 0.08333333333333304
                },
                {
                    "name": "G3",
                    "midi": 55,
                    "time": 6.310416666666666,
                    "velocity": 0.3228346456692913,
                    "duration": 0.1104166666666675
                },
                {
                    "name": "F3",
                    "midi": 53,
                    "time": 6.4125,
                    "velocity": 0.4409448818897638,
                    "duration": 0.07708333333333339
                },
                {
                    "name": "G3",
                    "midi": 55,
                    "time": 6.4875,
                    "velocity": 0.36220472440944884,
                    "duration": 0.09583333333333321
                },
                {
                    "name": "F3",
                    "midi": 53,
                    "time": 6.574999999999999,
                    "velocity": 0.47244094488188976,
                    "duration": 0.07916666666666661
                },
                {
                    "name": "G3",
                    "midi": 55,
                    "time": 6.652083333333333,
                    "velocity": 0.44881889763779526,
                    "duration": 0.09791666666666643
                },
                {
                    "name": "F3",
                    "midi": 53,
                    "time": 6.7333333333333325,
                    "velocity": 0.49606299212598426,
                    "duration": 0.07708333333333339
                },
                {
                    "name": "G3",
                    "midi": 55,
                    "time": 6.810416666666666,
                    "velocity": 0.4015748031496063,
                    "duration": 0.09791666666666643
                },
                {
                    "name": "F3",
                    "midi": 53,
                    "time": 6.891666666666666,
                    "velocity": 0.5275590551181102,
                    "duration": 0.07916666666666661
                },
                {
                    "name": "G3",
                    "midi": 55,
                    "time": 6.977083333333332,
                    "velocity": 0.3858267716535433,
                    "duration": 0.0916666666666659
                },
                {
                    "name": "F3",
                    "midi": 53,
                    "time": 7.045833333333332,
                    "velocity": 0.5590551181102362,
                    "duration": 0.08333333333333304
                },
                {
                    "name": "G3",
                    "midi": 55,
                    "time": 7.137499999999998,
                    "velocity": 0.3937007874015748,
                    "duration": 0.09583333333333321
                },
                {
                    "name": "F3",
                    "midi": 53,
                    "time": 7.214583333333332,
                    "velocity": 0.5905511811023622,
                    "duration": 0.07708333333333339
                },
                {
                    "name": "G3",
                    "midi": 55,
                    "time": 7.297916666666665,
                    "velocity": 0.36220472440944884,
                    "duration": 0.09583333333333321
                },
                {
                    "name": "F3",
                    "midi": 53,
                    "time": 7.372916666666665,
                    "velocity": 0.5826771653543307,
                    "duration": 0.08124999999999982
                },
                {
                    "name": "G3",
                    "midi": 55,
                    "time": 7.454166666666665,
                    "velocity": 0.4094488188976378,
                    "duration": 0.11041666666666661
                },
                {
                    "name": "F3",
                    "midi": 53,
                    "time": 7.547916666666665,
                    "velocity": 0.48031496062992124,
                    "duration": 0.08541666666666625
                },
                {
                    "name": "G3",
                    "midi": 55,
                    "time": 7.629166666666665,
                    "velocity": 0.4015748031496063,
                    "duration": 0.12083333333333268
                },
                {
                    "name": "F3",
                    "midi": 53,
                    "time": 7.745833333333331,
                    "velocity": 0.49606299212598426,
                    "duration": 0.1083333333333325
                },
                {
                    "name": "G3",
                    "midi": 55,
                    "time": 7.849999999999997,
                    "velocity": 0.4015748031496063,
                    "duration": 0.14374999999999982
                },
                {
                    "name": "F3",
                    "midi": 53,
                    "time": 8.02083333333333,
                    "velocity": 0.2677165354330709,
                    "duration": 0.04374999999999929
                },
                {
                    "name": "F3",
                    "midi": 53,
                    "time": 8.181249999999997,
                    "velocity": 0.4094488188976378,
                    "duration": 0.2312499999999993
                },
                {
                    "name": "G3",
                    "midi": 55,
                    "time": 8.481249999999996,
                    "velocity": 0.4330708661417323,
                    "duration": 0.19166666666666643
                },
                {
                    "name": "A3",
                    "midi": 57,
                    "time": 8.714583333333328,
                    "velocity": 0.4015748031496063,
                    "duration": 0.11875000000000036
                },
                {
                    "name": "A#3",
                    "midi": 58,
                    "time": 8.862499999999995,
                    "velocity": 0.5511811023622047,
                    "duration": 0.10208333333333286
                },
                {
                    "name": "C4",
                    "midi": 60,
                    "time": 9.016666666666662,
                    "velocity": 0.4251968503937008,
                    "duration": 0.125
                },
                {
                    "name": "D4",
                    "midi": 62,
                    "time": 9.16458333333333,
                    "velocity": 0.5433070866141733,
                    "duration": 0.09791666666666643
                },
                {
                    "name": "D#4",
                    "midi": 63,
                    "time": 9.279166666666663,
                    "velocity": 0.5669291338582677,
                    "duration": 0.08750000000000036
                },
                {
                    "name": "F4",
                    "midi": 65,
                    "time": 9.399999999999997,
                    "velocity": 0.4330708661417323,
                    "duration": 0.11666666666666714
                },
                {
                    "name": "G4",
                    "midi": 67,
                    "time": 9.52083333333333,
                    "velocity": 0.49606299212598426,
                    "duration": 0.12291666666666679
                },
                {
                    "name": "A4",
                    "midi": 69,
                    "time": 9.637499999999998,
                    "velocity": 0.5905511811023622,
                    "duration": 0.1520833333333318
                },
                {
                    "name": "A#4",
                    "midi": 70,
                    "time": 9.781249999999996,
                    "velocity": 0.6062992125984252,
                    "duration": 0.16666666666666607
                },
                {
                    "name": "B4",
                    "midi": 71,
                    "time": 9.954166666666662,
                    "velocity": 0.48031496062992124,
                    "duration": 0.2375000000000007
                },
                {
                    "name": "C5",
                    "midi": 72,
                    "time": 10.170833333333329,
                    "velocity": 0.47244094488188976,
                    "duration": 0.14791666666666892
                },
                {
                    "name": "C#5",
                    "midi": 73,
                    "time": 10.335416666666665,
                    "velocity": 0.5748031496062992,
                    "duration": 0.1083333333333325
                },
                {
                    "name": "D5",
                    "midi": 74,
                    "time": 10.470833333333331,
                    "velocity": 0.4645669291338583,
                    "duration": 0.0770833333333325
                },
                {
                    "name": "D#5",
                    "midi": 75,
                    "time": 10.564583333333331,
                    "velocity": 0.6850393700787402,
                    "duration": 0.07291666666666607
                },
                {
                    "name": "E5",
                    "midi": 76,
                    "time": 10.672916666666664,
                    "velocity": 0.5984251968503937,
                    "duration": 0.07291666666666607
                },
                {
                    "name": "F5",
                    "midi": 77,
                    "time": 10.756249999999996,
                    "velocity": 0.6141732283464567,
                    "duration": 0.08124999999999893
                },
                {
                    "name": "F#5",
                    "midi": 78,
                    "time": 10.824999999999996,
                    "velocity": 0.6535433070866141,
                    "duration": 0.06666666666666643
                },
                {
                    "name": "A#1",
                    "midi": 34,
                    "time": 10.895833333333329,
                    "velocity": 0.5984251968503937,
                    "duration": 0.07916666666666572
                },
                {
                    "name": "G5",
                    "midi": 79,
                    "time": 10.941666666666661,
                    "velocity": 0.29133858267716534,
                    "duration": 0.05416666666666714
                },
                {
                    "name": "A#2",
                    "midi": 46,
                    "time": 10.977083333333328,
                    "velocity": 0.4330708661417323,
                    "duration": 0.04583333333333428
                },
                {
                    "name": "G#5",
                    "midi": 80,
                    "time": 11.03958333333333,
                    "velocity": 0.5433070866141733,
                    "duration": 0.08958333333333357
                },
                {
                    "name": "A5",
                    "midi": 81,
                    "time": 11.14583333333333,
                    "velocity": 0.5984251968503937,
                    "duration": 0.15208333333333357
                },
                {
                    "name": "A#5",
                    "midi": 82,
                    "time": 11.356249999999998,
                    "velocity": 0.8346456692913385,
                    "duration": 0.07499999999999929
                },
                {
                    "name": "A#3",
                    "midi": 58,
                    "time": 11.385416666666664,
                    "velocity": 0.2677165354330709,
                    "duration": 1.1291666666666664
                },
                {
                    "name": "D4",
                    "midi": 62,
                    "time": 11.410416666666665,
                    "velocity": 0.2992125984251969,
                    "duration": 1.0312499999999982
                },
                {
                    "name": "F3",
                    "midi": 53,
                    "time": 11.416666666666664,
                    "velocity": 0.1889763779527559,
                    "duration": 1.0479166666666657
                },
                {
                    "name": "D#3",
                    "midi": 51,
                    "time": 12.80833333333333,
                    "velocity": 0.2047244094488189,
                    "duration": 0.93333333333333
                },
                {
                    "name": "C#4",
                    "midi": 61,
                    "time": 12.88333333333333,
                    "velocity": 0.3937007874015748,
                    "duration": 0.7645833333333307
                },
                {
                    "name": "G#5",
                    "midi": 80,
                    "time": 12.889583333333329,
                    "velocity": 0.7086614173228346,
                    "duration": 0.07291666666666607
                },
                {
                    "name": "A3",
                    "midi": 57,
                    "time": 12.891666666666662,
                    "velocity": 0.23622047244094488,
                    "duration": 0.7666666666666639
                },
                {
                    "name": "A#5",
                    "midi": 82,
                    "time": 12.945833333333328,
                    "velocity": 0.7322834645669292,
                    "duration": 0.08333333333333393
                },
                {
                    "name": "G#5",
                    "midi": 80,
                    "time": 13.024999999999995,
                    "velocity": 0.7165354330708661,
                    "duration": 0.2604166666666661
                },
                {
                    "name": "F#5",
                    "midi": 78,
                    "time": 13.36041666666666,
                    "velocity": 0.7322834645669292,
                    "duration": 0.18541666666666679
                },
                {
                    "name": "G#5",
                    "midi": 80,
                    "time": 13.649999999999993,
                    "velocity": 0.6850393700787402,
                    "duration": 0.11250000000000071
                },
                {
                    "name": "F#5",
                    "midi": 78,
                    "time": 13.86666666666666,
                    "velocity": 0.7480314960629921,
                    "duration": 0.09791666666666643
                },
                {
                    "name": "G#5",
                    "midi": 80,
                    "time": 14.058333333333326,
                    "velocity": 0.6929133858267716,
                    "duration": 0.15624999999999822
                },
                {
                    "name": "A#1",
                    "midi": 34,
                    "time": 14.141666666666659,
                    "velocity": 0.5511811023622047,
                    "duration": 0.06666666666666643
                },
                {
                    "name": "A#2",
                    "midi": 46,
                    "time": 14.179166666666658,
                    "velocity": 0.48031496062992124,
                    "duration": 0.07083333333333286
                },
                {
                    "name": "F#5",
                    "midi": 78,
                    "time": 14.264583333333324,
                    "velocity": 0.7086614173228346,
                    "duration": 0.18125000000000036
                },
                {
                    "name": "F5",
                    "midi": 77,
                    "time": 14.595833333333324,
                    "velocity": 0.5669291338582677,
                    "duration": 0.20416666666666572
                },
                {
                    "name": "G#3",
                    "midi": 56,
                    "time": 14.59999999999999,
                    "velocity": 0.36220472440944884,
                    "duration": 0.9958333333333282
                },
                {
                    "name": "C4",
                    "midi": 60,
                    "time": 14.60624999999999,
                    "velocity": 0.2992125984251969,
                    "duration": 0.4791666666666661
                },
                {
                    "name": "D3",
                    "midi": 50,
                    "time": 14.670833333333324,
                    "velocity": 0.08661417322834646,
                    "duration": 1.1520833333333282
                },
                {
                    "name": "D#5",
                    "midi": 75,
                    "time": 15.01249999999999,
                    "velocity": 0.7322834645669292,
                    "duration": 0.2312499999999993
                },
                {
                    "name": "B3",
                    "midi": 59,
                    "time": 15.279166666666654,
                    "velocity": 0.49606299212598426,
                    "duration": 0.33124999999999716
                },
                {
                    "name": "D5",
                    "midi": 74,
                    "time": 15.285416666666654,
                    "velocity": 0.6614173228346457,
                    "duration": 0.21041666666666536
                },
                {
                    "name": "C#5",
                    "midi": 73,
                    "time": 15.627083333333319,
                    "velocity": 0.7952755905511811,
                    "duration": 0.6958333333333382
                },
                {
                    "name": "A#3",
                    "midi": 58,
                    "time": 15.872916666666653,
                    "velocity": 0.49606299212598426,
                    "duration": 0.9229166666666782
                },
                {
                    "name": "G3",
                    "midi": 55,
                    "time": 15.897916666666653,
                    "velocity": 0.4094488188976378,
                    "duration": 0.6770833333333393
                },
                {
                    "name": "D#3",
                    "midi": 51,
                    "time": 15.899999999999986,
                    "velocity": 0.4094488188976378,
                    "duration": 0.9854166666666782
                },
                {
                    "name": "D#5",
                    "midi": 75,
                    "time": 16.241666666666656,
                    "velocity": 0.7795275590551181,
                    "duration": 0.2645833333333343
                },
                {
                    "name": "F#3",
                    "midi": 54,
                    "time": 16.56874999999999,
                    "velocity": 0.2677165354330709,
                    "duration": 0.2812500000000071
                },
                {
                    "name": "E5",
                    "midi": 76,
                    "time": 16.599999999999994,
                    "velocity": 0.7007874015748031,
                    "duration": 0.49166666666666714
                },
                {
                    "name": "F5",
                    "midi": 77,
                    "time": 17.03958333333333,
                    "velocity": 0.5669291338582677,
                    "duration": 0.6208333333333371
                },
                {
                    "name": "A#1",
                    "midi": 34,
                    "time": 17.168749999999996,
                    "velocity": 0.5590551181102362,
                    "duration": 0.07083333333333641
                },
                {
                    "name": "A#2",
                    "midi": 46,
                    "time": 17.19583333333333,
                    "velocity": 0.48031496062992124,
                    "duration": 0.08750000000000213
                },
                {
                    "name": "A#3",
                    "midi": 58,
                    "time": 17.572916666666664,
                    "velocity": 0.5275590551181102,
                    "duration": 0.10208333333333641
                },
                {
                    "name": "D3",
                    "midi": 50,
                    "time": 17.61875,
                    "velocity": 0.2992125984251969,
                    "duration": 0.12291666666666856
                },
                {
                    "name": "D5",
                    "midi": 74,
                    "time": 18.087500000000002,
                    "velocity": 0.5511811023622047,
                    "duration": 0.28749999999999787
                },
                {
                    "name": "F#2",
                    "midi": 42,
                    "time": 18.170833333333334,
                    "velocity": 0.5354330708661418,
                    "duration": 0.11250000000000071
                },
                {
                    "name": "E3",
                    "midi": 52,
                    "time": 18.28125,
                    "velocity": 0.4881889763779528,
                    "duration": 0.08958333333333357
                },
                {
                    "name": "A#4",
                    "midi": 70,
                    "time": 18.49375,
                    "velocity": 0.49606299212598426,
                    "duration": 0.07916666666666927
                },
                {
                    "name": "A#3",
                    "midi": 58,
                    "time": 18.508333333333333,
                    "velocity": 0.3464566929133858,
                    "duration": 0.9000000000000057
                },
                {
                    "name": "C5",
                    "midi": 72,
                    "time": 18.59166666666667,
                    "velocity": 0.5354330708661418,
                    "duration": 0.09166666666666856
                },
                {
                    "name": "A#4",
                    "midi": 70,
                    "time": 18.633333333333336,
                    "velocity": 0.5748031496062992,
                    "duration": 0.10208333333333286
                },
                {
                    "name": "A4",
                    "midi": 69,
                    "time": 18.73541666666667,
                    "velocity": 0.5354330708661418,
                    "duration": 0.10625000000000284
                },
                {
                    "name": "G#4",
                    "midi": 68,
                    "time": 18.831250000000004,
                    "velocity": 0.7244094488188977,
                    "duration": 0.6875
                },
                {
                    "name": "F2",
                    "midi": 41,
                    "time": 19.83333333333334,
                    "velocity": 0.33858267716535434,
                    "duration": 1.3229166666666679
                },
                {
                    "name": "D#3",
                    "midi": 51,
                    "time": 19.922916666666673,
                    "velocity": 0.25196850393700787,
                    "duration": 1.1958333333333329
                },
                {
                    "name": "F#4",
                    "midi": 66,
                    "time": 19.968750000000007,
                    "velocity": 0.7322834645669292,
                    "duration": 0.6020833333333364
                },
                {
                    "name": "A3",
                    "midi": 57,
                    "time": 19.98333333333334,
                    "velocity": 0.14173228346456693,
                    "duration": 1.0395833333333329
                },
                {
                    "name": "C4",
                    "midi": 60,
                    "time": 19.985416666666676,
                    "velocity": 0.4094488188976378,
                    "duration": 1.1020833333333293
                },
                {
                    "name": "F4",
                    "midi": 65,
                    "time": 20.58750000000001,
                    "velocity": 0.5826771653543307,
                    "duration": 0.3125
                },
                {
                    "name": "F4",
                    "midi": 65,
                    "time": 21.02708333333334,
                    "velocity": 0.7795275590551181,
                    "duration": 4.160416666666695
                },
                {
                    "name": "A#2",
                    "midi": 46,
                    "time": 21.37083333333334,
                    "velocity": 0.3543307086614173,
                    "duration": 0.17500000000000782
                },
                {
                    "name": "D3",
                    "midi": 50,
                    "time": 21.397916666666674,
                    "velocity": 0.3700787401574803,
                    "duration": 0.1354166666666714
                },
                {
                    "name": "A#3",
                    "midi": 58,
                    "time": 21.40000000000001,
                    "velocity": 0.5118110236220472,
                    "duration": 0.13125000000000142
                },
                {
                    "name": "B3",
                    "midi": 59,
                    "time": 21.789583333333347,
                    "velocity": 0.6220472440944882,
                    "duration": 0.4250000000000007
                },
                {
                    "name": "D3",
                    "midi": 50,
                    "time": 21.791666666666682,
                    "velocity": 0.44881889763779526,
                    "duration": 0.3562499999999993
                },
                {
                    "name": "G3",
                    "midi": 55,
                    "time": 21.810416666666683,
                    "velocity": 0.4251968503937008,
                    "duration": 0.3229166666666643
                },
                {
                    "name": "G2",
                    "midi": 43,
                    "time": 21.82708333333335,
                    "velocity": 0.4330708661417323,
                    "duration": 0.404166666666665
                },
                {
                    "name": "D#3",
                    "midi": 51,
                    "time": 22.418750000000014,
                    "velocity": 0.4409448818897638,
                    "duration": 0.25416666666667
                },
                {
                    "name": "G#3",
                    "midi": 56,
                    "time": 22.450000000000014,
                    "velocity": 0.25196850393700787,
                    "duration": 0.2770833333333371
                },
                {
                    "name": "C4",
                    "midi": 60,
                    "time": 22.450000000000014,
                    "velocity": 0.4330708661417323,
                    "duration": 0.29583333333333783
                },
                {
                    "name": "G#2",
                    "midi": 44,
                    "time": 22.46041666666668,
                    "velocity": 0.4094488188976378,
                    "duration": 0.3770833333333421
                },
                {
                    "name": "A#3",
                    "midi": 58,
                    "time": 22.791666666666686,
                    "velocity": 0.4409448818897638,
                    "duration": 0.16250000000000497
                },
                {
                    "name": "D4",
                    "midi": 62,
                    "time": 22.80416666666669,
                    "velocity": 0.5590551181102362,
                    "duration": 0.18125000000000213
                },
                {
                    "name": "A#2",
                    "midi": 46,
                    "time": 22.814583333333356,
                    "velocity": 0.4330708661417323,
                    "duration": 0.1687499999999993
                },
                {
                    "name": "F3",
                    "midi": 53,
                    "time": 22.86041666666669,
                    "velocity": 0.1889763779527559,
                    "duration": 0.13125000000000142
                },
                {
                    "name": "B3",
                    "midi": 59,
                    "time": 23.23541666666669,
                    "velocity": 0.6535433070866141,
                    "duration": 0.3979166666666707
                },
                {
                    "name": "G3",
                    "midi": 55,
                    "time": 23.237500000000026,
                    "velocity": 0.5433070866141733,
                    "duration": 0.31666666666667
                },
                {
                    "name": "D3",
                    "midi": 50,
                    "time": 23.247916666666693,
                    "velocity": 0.5354330708661418,
                    "duration": 0.36875000000000213
                },
                {
                    "name": "G2",
                    "midi": 43,
                    "time": 23.272916666666692,
                    "velocity": 0.4015748031496063,
                    "duration": 0.24375000000000213
                },
                {
                    "name": "D#3",
                    "midi": 51,
                    "time": 23.96875000000003,
                    "velocity": 0.33858267716535434,
                    "duration": 0.26458333333333783
                },
                {
                    "name": "G#3",
                    "midi": 56,
                    "time": 23.97708333333336,
                    "velocity": 0.3700787401574803,
                    "duration": 0.28541666666667
                },
                {
                    "name": "G#2",
                    "midi": 44,
                    "time": 23.979166666666696,
                    "velocity": 0.33070866141732286,
                    "duration": 0.408333333333335
                },
                {
                    "name": "C4",
                    "midi": 60,
                    "time": 23.989583333333364,
                    "velocity": 0.4330708661417323,
                    "duration": 0.3312500000000007
                },
                {
                    "name": "A#2",
                    "midi": 46,
                    "time": 24.52500000000003,
                    "velocity": 0.44881889763779526,
                    "duration": 3.037500000000005
                },
                {
                    "name": "D4",
                    "midi": 62,
                    "time": 24.5354166666667,
                    "velocity": 0.49606299212598426,
                    "duration": 0.6250000000000036
                },
                {
                    "name": "A#3",
                    "midi": 58,
                    "time": 24.5354166666667,
                    "velocity": 0.4094488188976378,
                    "duration": 0.6020833333333364
                },
                {
                    "name": "F3",
                    "midi": 53,
                    "time": 24.577083333333366,
                    "velocity": 0.15748031496062992,
                    "duration": 2.9770833333333364
                },
                {
                    "name": "F4",
                    "midi": 65,
                    "time": 25.362500000000036,
                    "velocity": 0.7795275590551181,
                    "duration": 0.16250000000000142
                },
                {
                    "name": "G4",
                    "midi": 67,
                    "time": 25.791666666666703,
                    "velocity": 0.6614173228346457,
                    "duration": 0.06875000000000142
                },
                {
                    "name": "G#4",
                    "midi": 68,
                    "time": 25.85625000000004,
                    "velocity": 0.4881889763779528,
                    "duration": 0.08541666666666714
                },
                {
                    "name": "G4",
                    "midi": 67,
                    "time": 25.933333333333373,
                    "velocity": 0.5354330708661418,
                    "duration": 0.279166666666665
                },
                {
                    "name": "F4",
                    "midi": 65,
                    "time": 26.212500000000038,
                    "velocity": 0.6299212598425197,
                    "duration": 0.14999999999999858
                },
                {
                    "name": "G4",
                    "midi": 67,
                    "time": 26.472916666666702,
                    "velocity": 0.7322834645669292,
                    "duration": 0.07083333333333286
                },
                {
                    "name": "G#4",
                    "midi": 68,
                    "time": 26.522916666666703,
                    "velocity": 0.6299212598425197,
                    "duration": 0.08541666666666714
                },
                {
                    "name": "G4",
                    "midi": 67,
                    "time": 26.597916666666702,
                    "velocity": 0.7165354330708661,
                    "duration": 0.2562500000000014
                },
                {
                    "name": "F4",
                    "midi": 65,
                    "time": 26.800000000000036,
                    "velocity": 0.6614173228346457,
                    "duration": 0.12916666666666643
                },
                {
                    "name": "G4",
                    "midi": 67,
                    "time": 27.029166666666704,
                    "velocity": 0.7322834645669292,
                    "duration": 0.07083333333333286
                },
                {
                    "name": "G#4",
                    "midi": 68,
                    "time": 27.07708333333337,
                    "velocity": 0.6299212598425197,
                    "duration": 0.0833333333333357
                },
                {
                    "name": "G4",
                    "midi": 67,
                    "time": 27.154166666666704,
                    "velocity": 0.7086614173228346,
                    "duration": 0.2875000000000014
                },
                {
                    "name": "F4",
                    "midi": 65,
                    "time": 27.404166666666704,
                    "velocity": 0.6692913385826772,
                    "duration": 0.125
                },
                {
                    "name": "A#4",
                    "midi": 70,
                    "time": 27.760416666666703,
                    "velocity": 0.8110236220472441,
                    "duration": 3.6187500000000234
                },
                {
                    "name": "C4",
                    "midi": 60,
                    "time": 28.316666666666702,
                    "velocity": 0.47244094488188976,
                    "duration": 0.33125000000000426
                },
                {
                    "name": "G3",
                    "midi": 55,
                    "time": 28.32083333333337,
                    "velocity": 0.2755905511811024,
                    "duration": 0.3395833333333371
                },
                {
                    "name": "E4",
                    "midi": 64,
                    "time": 28.32708333333337,
                    "velocity": 0.5748031496062992,
                    "duration": 0.41041666666667
                },
                {
                    "name": "C3",
                    "midi": 48,
                    "time": 28.341666666666704,
                    "velocity": 0.33858267716535434,
                    "duration": 0.40000000000000213
                },
                {
                    "name": "G#3",
                    "midi": 56,
                    "time": 28.935416666666708,
                    "velocity": 0.4645669291338583,
                    "duration": 0.20208333333333428
                },
                {
                    "name": "C#4",
                    "midi": 61,
                    "time": 28.937500000000043,
                    "velocity": 0.5669291338582677,
                    "duration": 0.25416666666666643
                },
                {
                    "name": "F4",
                    "midi": 65,
                    "time": 28.94166666666671,
                    "velocity": 0.5590551181102362,
                    "duration": 0.2958333333333343
                },
                {
                    "name": "C#3",
                    "midi": 49,
                    "time": 28.94791666666671,
                    "velocity": 0.5039370078740157,
                    "duration": 0.33750000000000213
                },
                {
                    "name": "D#4",
                    "midi": 63,
                    "time": 29.27291666666671,
                    "velocity": 0.5905511811023622,
                    "duration": 0.10833333333333783
                },
                {
                    "name": "G4",
                    "midi": 67,
                    "time": 29.27291666666671,
                    "velocity": 0.49606299212598426,
                    "duration": 0.16250000000000497
                },
                {
                    "name": "A#3",
                    "midi": 58,
                    "time": 29.275000000000045,
                    "velocity": 0.5196850393700787,
                    "duration": 0.16041666666666998
                },
                {
                    "name": "D#3",
                    "midi": 51,
                    "time": 29.291666666666714,
                    "velocity": 0.4251968503937008,
                    "duration": 0.10000000000000142
                },
                {
                    "name": "G3",
                    "midi": 55,
                    "time": 29.664583333333383,
                    "velocity": 0.3858267716535433,
                    "duration": 0.41875000000000284
                },
                {
                    "name": "E4",
                    "midi": 64,
                    "time": 29.679166666666717,
                    "velocity": 0.5275590551181102,
                    "duration": 0.506250000000005
                },
                {
                    "name": "C4",
                    "midi": 60,
                    "time": 29.683333333333383,
                    "velocity": 0.33858267716535434,
                    "duration": 0.35416666666666785
                },
                {
                    "name": "C3",
                    "midi": 48,
                    "time": 29.702083333333384,
                    "velocity": 0.2677165354330709,
                    "duration": 0.4145833333333364
                },
                {
                    "name": "C#4",
                    "midi": 61,
                    "time": 30.38541666666672,
                    "velocity": 0.5511811023622047,
                    "duration": 0.24791666666666856
                },
                {
                    "name": "G#3",
                    "midi": 56,
                    "time": 30.393750000000054,
                    "velocity": 0.4330708661417323,
                    "duration": 0.2562500000000014
                },
                {
                    "name": "C#3",
                    "midi": 49,
                    "time": 30.393750000000054,
                    "velocity": 0.4015748031496063,
                    "duration": 0.4583333333333357
                },
                {
                    "name": "F4",
                    "midi": 65,
                    "time": 30.39791666666672,
                    "velocity": 0.5354330708661418,
                    "duration": 0.3833333333333364
                },
                {
                    "name": "A#3",
                    "midi": 58,
                    "time": 30.87708333333339,
                    "velocity": 0.3700787401574803,
                    "duration": 3.066666666666663
                },
                {
                    "name": "G4",
                    "midi": 67,
                    "time": 30.88333333333339,
                    "velocity": 0.5354330708661418,
                    "duration": 0.47291666666667
                },
                {
                    "name": "D#3",
                    "midi": 51,
                    "time": 30.885416666666725,
                    "velocity": 0.4330708661417323,
                    "duration": 3.0854166666666565
                },
                {
                    "name": "D#4",
                    "midi": 63,
                    "time": 30.88750000000006,
                    "velocity": 0.5669291338582677,
                    "duration": 0.43333333333333357
                },
                {
                    "name": "A#4",
                    "midi": 70,
                    "time": 31.57500000000006,
                    "velocity": 0.7952755905511811,
                    "duration": 0.1687499999999993
                },
                {
                    "name": "C5",
                    "midi": 72,
                    "time": 31.956250000000058,
                    "velocity": 0.6377952755905512,
                    "duration": 0.09374999999999645
                },
                {
                    "name": "C#5",
                    "midi": 73,
                    "time": 32.04791666666672,
                    "velocity": 0.6771653543307087,
                    "duration": 0.10833333333333428
                },
                {
                    "name": "C5",
                    "midi": 72,
                    "time": 32.15833333333339,
                    "velocity": 0.44881889763779526,
                    "duration": 0.18333333333333002
                },
                {
                    "name": "C#5",
                    "midi": 73,
                    "time": 32.20000000000005,
                    "velocity": 0.2047244094488189,
                    "duration": 0.04999999999999716
                },
                {
                    "name": "A#4",
                    "midi": 70,
                    "time": 32.44375000000005,
                    "velocity": 0.5984251968503937,
                    "duration": 0.11249999999999716
                },
                {
                    "name": "C5",
                    "midi": 72,
                    "time": 32.766666666666715,
                    "velocity": 0.5669291338582677,
                    "duration": 0.04375000000000284
                },
                {
                    "name": "C#5",
                    "midi": 73,
                    "time": 32.795833333333384,
                    "velocity": 0.7322834645669292,
                    "duration": 0.05624999999999858
                },
                {
                    "name": "C5",
                    "midi": 72,
                    "time": 32.88333333333338,
                    "velocity": 0.49606299212598426,
                    "duration": 0.07916666666666572
                },
                {
                    "name": "C#5",
                    "midi": 73,
                    "time": 32.90208333333338,
                    "velocity": 0.2047244094488189,
                    "duration": 0.04375000000000284
                },
                {
                    "name": "A#4",
                    "midi": 70,
                    "time": 33.104166666666714,
                    "velocity": 0.7795275590551181,
                    "duration": 0.10000000000000142
                },
                {
                    "name": "C5",
                    "midi": 72,
                    "time": 33.36250000000005,
                    "velocity": 0.7401574803149606,
                    "duration": 0.07083333333333286
                },
                {
                    "name": "C#5",
                    "midi": 73,
                    "time": 33.40625000000005,
                    "velocity": 0.7165354330708661,
                    "duration": 0.07083333333333286
                },
                {
                    "name": "C5",
                    "midi": 72,
                    "time": 33.48125000000005,
                    "velocity": 0.7637795275590551,
                    "duration": 0.125
                },
                {
                    "name": "A#4",
                    "midi": 70,
                    "time": 33.68750000000005,
                    "velocity": 0.8661417322834646,
                    "duration": 0.09375
                },
                {
                    "name": "D#5",
                    "midi": 75,
                    "time": 34.05208333333338,
                    "velocity": 0.8188976377952756,
                    "duration": 3.8562499999999886
                },
                {
                    "name": "A4",
                    "midi": 69,
                    "time": 34.55833333333337,
                    "velocity": 0.5984251968503937,
                    "duration": 0.4833333333333272
                },
                {
                    "name": "F4",
                    "midi": 65,
                    "time": 34.564583333333374,
                    "velocity": 0.5590551181102362,
                    "duration": 0.3687499999999986
                },
                {
                    "name": "C4",
                    "midi": 60,
                    "time": 34.564583333333374,
                    "velocity": 0.41732283464566927,
                    "duration": 0.3958333333333286
                },
                {
                    "name": "F3",
                    "midi": 53,
                    "time": 34.57291666666671,
                    "velocity": 0.3228346456692913,
                    "duration": 0.3895833333333272
                },
                {
                    "name": "A#4",
                    "midi": 70,
                    "time": 35.16458333333337,
                    "velocity": 0.7244094488188977,
                    "duration": 0.3374999999999986
                },
                {
                    "name": "F#4",
                    "midi": 66,
                    "time": 35.1729166666667,
                    "velocity": 0.6456692913385826,
                    "duration": 0.24791666666666856
                },
                {
                    "name": "C#4",
                    "midi": 61,
                    "time": 35.17500000000003,
                    "velocity": 0.6062992125984252,
                    "duration": 0.20625000000000426
                },
                {
                    "name": "F#3",
                    "midi": 54,
                    "time": 35.1854166666667,
                    "velocity": 0.5511811023622047,
                    "duration": 0.35208333333333286
                },
                {
                    "name": "G#4",
                    "midi": 68,
                    "time": 35.5041666666667,
                    "velocity": 0.5984251968503937,
                    "duration": 0.10833333333333428
                },
                {
                    "name": "C5",
                    "midi": 72,
                    "time": 35.50625000000003,
                    "velocity": 0.6535433070866141,
                    "duration": 0.15625
                },
                {
                    "name": "D#4",
                    "midi": 63,
                    "time": 35.51250000000003,
                    "velocity": 0.6141732283464567,
                    "duration": 0.1354166666666643
                },
                {
                    "name": "G#3",
                    "midi": 56,
                    "time": 35.520833333333364,
                    "velocity": 0.5511811023622047,
                    "duration": 0.11666666666666714
                },
                {
                    "name": "A4",
                    "midi": 69,
                    "time": 35.927083333333364,
                    "velocity": 0.5354330708661418,
                    "duration": 0.6145833333333286
                },
                {
                    "name": "F4",
                    "midi": 65,
                    "time": 35.9354166666667,
                    "velocity": 0.4409448818897638,
                    "duration": 0.43958333333333144
                },
                {
                    "name": "C4",
                    "midi": 60,
                    "time": 35.93750000000003,
                    "velocity": 0.4251968503937008,
                    "duration": 0.47708333333333286
                },
                {
                    "name": "F3",
                    "midi": 53,
                    "time": 35.958333333333364,
                    "velocity": 0.3228346456692913,
                    "duration": 0.49583333333333
                },
                {
                    "name": "A#4",
                    "midi": 70,
                    "time": 36.735416666666694,
                    "velocity": 0.5826771653543307,
                    "duration": 0.3687499999999986
                },
                {
                    "name": "C#4",
                    "midi": 61,
                    "time": 36.75625000000003,
                    "velocity": 0.4094488188976378,
                    "duration": 0.22291666666666288
                },
                {
                    "name": "F#4",
                    "midi": 66,
                    "time": 36.75625000000003,
                    "velocity": 0.47244094488188976,
                    "duration": 0.24166666666666003
                },
                {
                    "name": "F#3",
                    "midi": 54,
                    "time": 36.766666666666694,
                    "velocity": 0.4251968503937008,
                    "duration": 0.23124999999999574
                },
                {
                    "name": "G#4",
                    "midi": 68,
                    "time": 37.31458333333336,
                    "velocity": 0.5590551181102362,
                    "duration": 0.5270833333333371
                },
                {
                    "name": "C5",
                    "midi": 72,
                    "time": 37.31458333333336,
                    "velocity": 0.5669291338582677,
                    "duration": 0.5583333333333371
                },
                {
                    "name": "D#4",
                    "midi": 63,
                    "time": 37.31666666666669,
                    "velocity": 0.3228346456692913,
                    "duration": 5.977083333333361
                },
                {
                    "name": "G#3",
                    "midi": 56,
                    "time": 37.32083333333336,
                    "velocity": 0.4409448818897638,
                    "duration": 6.068750000000023
                },
                {
                    "name": "D#5",
                    "midi": 75,
                    "time": 38.0916666666667,
                    "velocity": 0.7716535433070866,
                    "duration": 0.25
                },
                {
                    "name": "F5",
                    "midi": 77,
                    "time": 38.4166666666667,
                    "velocity": 0.7559055118110236,
                    "duration": 0.18333333333333002
                },
                {
                    "name": "F#5",
                    "midi": 78,
                    "time": 38.6291666666667,
                    "velocity": 0.6456692913385826,
                    "duration": 0.08958333333333002
                },
                {
                    "name": "F5",
                    "midi": 77,
                    "time": 38.739583333333364,
                    "velocity": 0.5354330708661418,
                    "duration": 0.06666666666666998
                },
                {
                    "name": "F#5",
                    "midi": 78,
                    "time": 38.7916666666667,
                    "velocity": 0.6299212598425197,
                    "duration": 0.07708333333333428
                },
                {
                    "name": "F5",
                    "midi": 77,
                    "time": 38.872916666666704,
                    "velocity": 0.3779527559055118,
                    "duration": 0.05416666666666714
                },
                {
                    "name": "F#5",
                    "midi": 78,
                    "time": 38.92083333333337,
                    "velocity": 0.6692913385826772,
                    "duration": 0.07916666666667282
                },
                {
                    "name": "F5",
                    "midi": 77,
                    "time": 38.98750000000004,
                    "velocity": 0.7401574803149606,
                    "duration": 0.0833333333333357
                },
                {
                    "name": "D#5",
                    "midi": 75,
                    "time": 39.256250000000044,
                    "velocity": 0.8661417322834646,
                    "duration": 0.08749999999999858
                },
                {
                    "name": "D#6",
                    "midi": 87,
                    "time": 39.96041666666671,
                    "velocity": 0.7716535433070866,
                    "duration": 1.7437500000000057
                },
                {
                    "name": "C6",
                    "midi": 84,
                    "time": 41.700000000000045,
                    "velocity": 0.4566929133858268,
                    "duration": 0.4854166666666728
                },
                {
                    "name": "F5",
                    "midi": 77,
                    "time": 42.208333333333385,
                    "velocity": 0.47244094488188976,
                    "duration": 0.4020833333333371
                },
                {
                    "name": "F#5",
                    "midi": 78,
                    "time": 42.581250000000054,
                    "velocity": 0.6377952755905512,
                    "duration": 0.33541666666666714
                },
                {
                    "name": "G5",
                    "midi": 79,
                    "time": 42.93541666666672,
                    "velocity": 0.6141732283464567,
                    "duration": 0.5125000000000028
                },
                {
                    "name": "A#5",
                    "midi": 82,
                    "time": 43.425000000000054,
                    "velocity": 0.5196850393700787,
                    "duration": 0.18958333333333144
                },
                {
                    "name": "A#3",
                    "midi": 58,
                    "time": 43.97291666666672,
                    "velocity": 0.2992125984251969,
                    "duration": 5.470833333333353
                },
                {
                    "name": "D#3",
                    "midi": 51,
                    "time": 43.99166666666672,
                    "velocity": 0.2125984251968504,
                    "duration": 7.2104166666666885
                },
                {
                    "name": "D#5",
                    "midi": 75,
                    "time": 44.02916666666672,
                    "velocity": 0.3858267716535433,
                    "duration": 8.262500000000024
                },
                {
                    "name": "A#4",
                    "midi": 70,
                    "time": 44.047916666666715,
                    "velocity": 0.30708661417322836,
                    "duration": 8.28333333333336
                },
                {
                    "name": "G4",
                    "midi": 67,
                    "time": 44.06041666666672,
                    "velocity": 0.1889763779527559,
                    "duration": 3.1166666666666885
                },
                {
                    "name": "D#4",
                    "midi": 63,
                    "time": 44.38125000000005,
                    "velocity": 0.5433070866141733,
                    "duration": 0.08124999999999716
                },
                {
                    "name": "D#4",
                    "midi": 63,
                    "time": 44.735416666666715,
                    "velocity": 0.5433070866141733,
                    "duration": 0.09375
                },
                {
                    "name": "D#4",
                    "midi": 63,
                    "time": 45.03333333333338,
                    "velocity": 0.5511811023622047,
                    "duration": 0.07916666666666572
                },
                {
                    "name": "D#4",
                    "midi": 63,
                    "time": 45.31041666666671,
                    "velocity": 0.6377952755905512,
                    "duration": 0.13333333333333997
                },
                {
                    "name": "C#4",
                    "midi": 61,
                    "time": 45.581250000000054,
                    "velocity": 0.6377952755905512,
                    "duration": 0.06041666666667567
                },
                {
                    "name": "C#4",
                    "midi": 61,
                    "time": 45.81041666666673,
                    "velocity": 0.6614173228346457,
                    "duration": 0.05624999999999858
                },
                {
                    "name": "C#4",
                    "midi": 61,
                    "time": 46.04166666666673,
                    "velocity": 0.5984251968503937,
                    "duration": 0.04375000000000284
                },
                {
                    "name": "C#4",
                    "midi": 61,
                    "time": 46.26875000000006,
                    "velocity": 0.7244094488188977,
                    "duration": 0.12291666666666856
                },
                {
                    "name": "D#4",
                    "midi": 63,
                    "time": 46.5145833333334,
                    "velocity": 0.6614173228346457,
                    "duration": 0.04375000000000284
                },
                {
                    "name": "D#4",
                    "midi": 63,
                    "time": 46.727083333333404,
                    "velocity": 0.6535433070866141,
                    "duration": 0.0416666666666643
                },
                {
                    "name": "D#4",
                    "midi": 63,
                    "time": 46.92916666666674,
                    "velocity": 0.6771653543307087,
                    "duration": 0.04375000000000284
                },
                {
                    "name": "D#4",
                    "midi": 63,
                    "time": 47.11666666666674,
                    "velocity": 0.7952755905511811,
                    "duration": 0.14166666666666572
                },
                {
                    "name": "F#4",
                    "midi": 66,
                    "time": 47.33541666666674,
                    "velocity": 0.7244094488188977,
                    "duration": 0.07708333333333428
                },
                {
                    "name": "F#4",
                    "midi": 66,
                    "time": 47.54791666666674,
                    "velocity": 0.7795275590551181,
                    "duration": 0.08124999999999716
                },
                {
                    "name": "F#4",
                    "midi": 66,
                    "time": 47.73541666666674,
                    "velocity": 0.7952755905511811,
                    "duration": 0.11249999999999716
                },
                {
                    "name": "F#4",
                    "midi": 66,
                    "time": 47.95625000000007,
                    "velocity": 0.8188976377952756,
                    "duration": 0.17499999999999716
                },
                {
                    "name": "G4",
                    "midi": 67,
                    "time": 48.21666666666673,
                    "velocity": 0.6614173228346457,
                    "duration": 4.095833333333346
                },
                {
                    "name": "D#4",
                    "midi": 63,
                    "time": 48.4958333333334,
                    "velocity": 0.7322834645669292,
                    "duration": 0.14374999999999716
                },
                {
                    "name": "C4",
                    "midi": 60,
                    "time": 48.754166666666734,
                    "velocity": 0.7244094488188977,
                    "duration": 0.1354166666666643
                },
                {
                    "name": "C#4",
                    "midi": 61,
                    "time": 49.004166666666734,
                    "velocity": 0.7401574803149606,
                    "duration": 0.28958333333333997
                },
                {
                    "name": "C4",
                    "midi": 60,
                    "time": 49.34791666666674,
                    "velocity": 0.6929133858267716,
                    "duration": 0.27708333333333
                },
                {
                    "name": "A#3",
                    "midi": 58,
                    "time": 49.59166666666674,
                    "velocity": 0.7322834645669292,
                    "duration": 0.17083333333333428
                },
                {
                    "name": "F#3",
                    "midi": 54,
                    "time": 49.86875000000008,
                    "velocity": 0.7401574803149606,
                    "duration": 0.2958333333333343
                },
                {
                    "name": "G3",
                    "midi": 55,
                    "time": 50.16041666666674,
                    "velocity": 0.5275590551181102,
                    "duration": 0.3687499999999986
                },
                {
                    "name": "A#3",
                    "midi": 58,
                    "time": 50.49583333333341,
                    "velocity": 0.49606299212598426,
                    "duration": 0.3604166666666657
                },
                {
                    "name": "G3",
                    "midi": 55,
                    "time": 50.883333333333404,
                    "velocity": 0.4330708661417323,
                    "duration": 0.6666666666666714
                },
                {
                    "name": "D#3",
                    "midi": 51,
                    "time": 51.40000000000007,
                    "velocity": 0.4645669291338583,
                    "duration": 3.58958333333333
                },
                {
                    "name": "A#3",
                    "midi": 58,
                    "time": 52.99583333333341,
                    "velocity": 0.5905511811023622,
                    "duration": 0.20416666666666572
                },
                {
                    "name": "G3",
                    "midi": 55,
                    "time": 53.00625000000007,
                    "velocity": 0.18110236220472442,
                    "duration": 0.21458333333333712
                },
                {
                    "name": "G#3",
                    "midi": 56,
                    "time": 53.19791666666674,
                    "velocity": 0.5433070866141733,
                    "duration": 0.14791666666666714
                },
                {
                    "name": "B3",
                    "midi": 59,
                    "time": 53.206250000000075,
                    "velocity": 0.5118110236220472,
                    "duration": 0.125
                },
                {
                    "name": "C4",
                    "midi": 60,
                    "time": 53.360416666666744,
                    "velocity": 0.6377952755905512,
                    "duration": 0.10625000000000284
                },
                {
                    "name": "A3",
                    "midi": 57,
                    "time": 53.38541666666674,
                    "velocity": 0.2992125984251969,
                    "duration": 0.13750000000000284
                },
                {
                    "name": "A#3",
                    "midi": 58,
                    "time": 53.52500000000008,
                    "velocity": 0.33858267716535434,
                    "duration": 1.468749999999993
                },
                {
                    "name": "C#4",
                    "midi": 61,
                    "time": 53.55208333333341,
                    "velocity": 0.5905511811023622,
                    "duration": 0.8624999999999972
                },
                {
                    "name": "D#4",
                    "midi": 63,
                    "time": 54.691666666666734,
                    "velocity": 0.8110236220472441,
                    "duration": 0.22083333333333144
                },
                {
                    "name": "D#4",
                    "midi": 63,
                    "time": 55.102083333333404,
                    "velocity": 0.6456692913385826,
                    "duration": 0.09791666666666998
                },
                {
                    "name": "F4",
                    "midi": 65,
                    "time": 55.21666666666674,
                    "velocity": 0.3700787401574803,
                    "duration": 0.10625000000000284
                },
                {
                    "name": "D#4",
                    "midi": 63,
                    "time": 55.31666666666674,
                    "velocity": 0.5511811023622047,
                    "duration": 0.05833333333333712
                },
                {
                    "name": "F4",
                    "midi": 65,
                    "time": 55.393750000000075,
                    "velocity": 0.3700787401574803,
                    "duration": 0.11041666666666572
                },
                {
                    "name": "D#4",
                    "midi": 63,
                    "time": 55.49791666666674,
                    "velocity": 0.5669291338582677,
                    "duration": 0.05833333333333712
                },
                {
                    "name": "F4",
                    "midi": 65,
                    "time": 55.55625000000008,
                    "velocity": 0.23622047244094488,
                    "duration": 0.26250000000000284
                },
                {
                    "name": "D#4",
                    "midi": 63,
                    "time": 55.64583333333341,
                    "velocity": 0.4566929133858268,
                    "duration": 0.06666666666666998
                },
                {
                    "name": "D#4",
                    "midi": 63,
                    "time": 55.79583333333341,
                    "velocity": 0.49606299212598426,
                    "duration": 0.08124999999999716
                },
                {
                    "name": "D#3",
                    "midi": 51,
                    "time": 55.808333333333415,
                    "velocity": 0.5669291338582677,
                    "duration": 0.1041666666666643
                },
                {
                    "name": "F4",
                    "midi": 65,
                    "time": 55.85208333333341,
                    "velocity": 0.2204724409448819,
                    "duration": 0.11874999999999858
                },
                {
                    "name": "D#4",
                    "midi": 63,
                    "time": 55.96250000000008,
                    "velocity": 0.4330708661417323,
                    "duration": 0.07083333333333286
                },
                {
                    "name": "F4",
                    "midi": 65,
                    "time": 56.02500000000008,
                    "velocity": 0.4251968503937008,
                    "duration": 0.1041666666666714
                },
                {
                    "name": "D#4",
                    "midi": 63,
                    "time": 56.10833333333341,
                    "velocity": 0.5275590551181102,
                    "duration": 0.08125000000000426
                },
                {
                    "name": "F4",
                    "midi": 65,
                    "time": 56.17291666666675,
                    "velocity": 0.4645669291338583,
                    "duration": 0.11249999999999716
                },
                {
                    "name": "D#4",
                    "midi": 63,
                    "time": 56.26666666666675,
                    "velocity": 0.6377952755905512,
                    "duration": 0.08541666666666003
                },
                {
                    "name": "F4",
                    "midi": 65,
                    "time": 56.333333333333414,
                    "velocity": 0.3858267716535433,
                    "duration": 0.22708333333333286
                },
                {
                    "name": "D#4",
                    "midi": 63,
                    "time": 56.40208333333341,
                    "velocity": 0.44881889763779526,
                    "duration": 0.07500000000000284
                },
                {
                    "name": "D#4",
                    "midi": 63,
                    "time": 56.56458333333342,
                    "velocity": 0.4251968503937008,
                    "duration": 0.05000000000000426
                },
                {
                    "name": "F4",
                    "midi": 65,
                    "time": 56.593750000000085,
                    "velocity": 0.3779527559055118,
                    "duration": 0.12708333333333854
                },
                {
                    "name": "D#4",
                    "midi": 63,
                    "time": 56.722916666666755,
                    "velocity": 0.6299212598425197,
                    "duration": 0.1145833333333357
                },
                {
                    "name": "D#4",
                    "midi": 63,
                    "time": 57.05833333333342,
                    "velocity": 0.5511811023622047,
                    "duration": 0.06458333333333144
                },
                {
                    "name": "F4",
                    "midi": 65,
                    "time": 57.14166666666675,
                    "velocity": 0.5669291338582677,
                    "duration": 0.09791666666666288
                },
                {
                    "name": "G4",
                    "midi": 67,
                    "time": 57.22916666666675,
                    "velocity": 0.5354330708661418,
                    "duration": 0.09166666666666146
                },
                {
                    "name": "G#4",
                    "midi": 68,
                    "time": 57.31041666666675,
                    "velocity": 0.6850393700787402,
                    "duration": 0.08124999999999716
                },
                {
                    "name": "A#4",
                    "midi": 70,
                    "time": 57.37708333333341,
                    "velocity": 0.6850393700787402,
                    "duration": 0.04583333333333428
                },
                {
                    "name": "C5",
                    "midi": 72,
                    "time": 57.46666666666675,
                    "velocity": 0.5354330708661418,
                    "duration": 0.0729166666666643
                },
                {
                    "name": "C#5",
                    "midi": 73,
                    "time": 57.57500000000008,
                    "velocity": 0.6771653543307087,
                    "duration": 0.06875000000000142
                },
                {
                    "name": "D#5",
                    "midi": 75,
                    "time": 57.62916666666675,
                    "velocity": 0.7007874015748031,
                    "duration": 0.0833333333333357
                },
                {
                    "name": "F5",
                    "midi": 77,
                    "time": 57.73750000000008,
                    "velocity": 0.5354330708661418,
                    "duration": 0.08541666666666714
                },
                {
                    "name": "G#1",
                    "midi": 32,
                    "time": 57.78333333333342,
                    "velocity": 0.5118110236220472,
                    "duration": 0.09583333333333854
                },
                {
                    "name": "G#2",
                    "midi": 44,
                    "time": 57.85208333333342,
                    "velocity": 0.5118110236220472,
                    "duration": 0.0625000000000071
                },
                {
                    "name": "G5",
                    "midi": 79,
                    "time": 57.85416666666675,
                    "velocity": 0.41732283464566927,
                    "duration": 0.11250000000001137
                },
                {
                    "name": "G#5",
                    "midi": 80,
                    "time": 57.99791666666676,
                    "velocity": 0.47244094488188976,
                    "duration": 0.0833333333333357
                },
                {
                    "name": "G#3",
                    "midi": 56,
                    "time": 58.15416666666676,
                    "velocity": 0.5039370078740157,
                    "duration": 0.0729166666666643
                },
                {
                    "name": "C4",
                    "midi": 60,
                    "time": 58.162500000000094,
                    "velocity": 0.48031496062992124,
                    "duration": 0.05416666666666714
                },
                {
                    "name": "D#3",
                    "midi": 51,
                    "time": 58.162500000000094,
                    "velocity": 0.5196850393700787,
                    "duration": 0.07499999999999574
                },
                {
                    "name": "G#3",
                    "midi": 56,
                    "time": 58.92708333333342,
                    "velocity": 0.29133858267716534,
                    "duration": 0.1041666666666643
                },
                {
                    "name": "D#3",
                    "midi": 51,
                    "time": 58.93333333333342,
                    "velocity": 0.3858267716535433,
                    "duration": 0.12083333333333002
                },
                {
                    "name": "C4",
                    "midi": 60,
                    "time": 58.966666666666754,
                    "velocity": 0.1968503937007874,
                    "duration": 0.08124999999999716
                },
                {
                    "name": "D#3",
                    "midi": 51,
                    "time": 59.341666666666754,
                    "velocity": 0.07874015748031496,
                    "duration": 0.45624999999999005
                },
                {
                    "name": "G3",
                    "midi": 55,
                    "time": 59.431250000000084,
                    "velocity": 0.1732283464566929,
                    "duration": 0.3687499999999915
                },
                {
                    "name": "C#4",
                    "midi": 61,
                    "time": 59.50208333333342,
                    "velocity": 0.4094488188976378,
                    "duration": 0.2749999999999915
                },
                {
                    "name": "F#5",
                    "midi": 78,
                    "time": 59.56041666666675,
                    "velocity": 0.6929133858267716,
                    "duration": 0.06666666666666288
                },
                {
                    "name": "G#5",
                    "midi": 80,
                    "time": 59.60833333333341,
                    "velocity": 0.6299212598425197,
                    "duration": 0.05624999999999858
                },
                {
                    "name": "F#5",
                    "midi": 78,
                    "time": 59.69166666666674,
                    "velocity": 0.4645669291338583,
                    "duration": 0.04583333333333428
                },
                {
                    "name": "G#5",
                    "midi": 80,
                    "time": 59.733333333333405,
                    "velocity": 0.6614173228346457,
                    "duration": 0.07708333333333428
                },
                {
                    "name": "F#5",
                    "midi": 78,
                    "time": 59.80208333333341,
                    "velocity": 0.5275590551181102,
                    "duration": 0.1354166666666643
                },
                {
                    "name": "E5",
                    "midi": 76,
                    "time": 60.02291666666674,
                    "velocity": 0.7952755905511811,
                    "duration": 0.08958333333333002
                },
                {
                    "name": "F#5",
                    "midi": 78,
                    "time": 60.193750000000065,
                    "velocity": 0.84251968503937,
                    "duration": 0.09583333333333144
                },
                {
                    "name": "C#3",
                    "midi": 49,
                    "time": 60.34166666666673,
                    "velocity": 0.4409448818897638,
                    "duration": 0.2749999999999986
                },
                {
                    "name": "E5",
                    "midi": 76,
                    "time": 60.3645833333334,
                    "velocity": 0.7637795275590551,
                    "duration": 0.08958333333333712
                },
                {
                    "name": "B3",
                    "midi": 59,
                    "time": 60.36875000000007,
                    "velocity": 0.33858267716535434,
                    "duration": 0.22499999999999432
                },
                {
                    "name": "G3",
                    "midi": 55,
                    "time": 60.3708333333334,
                    "velocity": 0.2992125984251969,
                    "duration": 0.20416666666666572
                },
                {
                    "name": "F#5",
                    "midi": 78,
                    "time": 60.5333333333334,
                    "velocity": 0.8267716535433071,
                    "duration": 0.11249999999999716
                },
                {
                    "name": "E5",
                    "midi": 76,
                    "time": 60.687500000000064,
                    "velocity": 0.7165354330708661,
                    "duration": 0.06875000000000142
                },
                {
                    "name": "F#3",
                    "midi": 54,
                    "time": 60.83541666666673,
                    "velocity": 0.5196850393700787,
                    "duration": 0.61666666666666
                },
                {
                    "name": "A#3",
                    "midi": 58,
                    "time": 60.84166666666673,
                    "velocity": 0.4645669291338583,
                    "duration": 0.42916666666666003
                },
                {
                    "name": "D#5",
                    "midi": 75,
                    "time": 60.86250000000007,
                    "velocity": 0.7874015748031497,
                    "duration": 0.07708333333332718
                },
                {
                    "name": "C3",
                    "midi": 48,
                    "time": 60.881250000000065,
                    "velocity": 0.2283464566929134,
                    "duration": 0.2749999999999915
                },
                {
                    "name": "C#5",
                    "midi": 73,
                    "time": 61.11875000000006,
                    "velocity": 0.7322834645669292,
                    "duration": 0.11666666666666003
                },
                {
                    "name": "C#3",
                    "midi": 49,
                    "time": 61.14583333333339,
                    "velocity": 0.3937007874015748,
                    "duration": 0.20208333333333428
                },
                {
                    "name": "C5",
                    "midi": 72,
                    "time": 61.35625000000006,
                    "velocity": 0.6614173228346457,
                    "duration": 0.07499999999999574
                },
                {
                    "name": "D3",
                    "midi": 50,
                    "time": 61.38125000000006,
                    "velocity": 0.4330708661417323,
                    "duration": 0.18541666666666856
                },
                {
                    "name": "F#3",
                    "midi": 54,
                    "time": 61.69791666666673,
                    "velocity": 0.33858267716535434,
                    "duration": 1.7020833333333272
                },
                {
                    "name": "D#3",
                    "midi": 51,
                    "time": 61.70625000000006,
                    "velocity": 0.4094488188976378,
                    "duration": 1.3770833333333314
                },
                {
                    "name": "B4",
                    "midi": 71,
                    "time": 61.714583333333394,
                    "velocity": 0.5590551181102362,
                    "duration": 0.3645833333333357
                },
                {
                    "name": "A3",
                    "midi": 57,
                    "time": 61.720833333333395,
                    "velocity": 0.2755905511811024,
                    "duration": 0.2916666666666643
                },
                {
                    "name": "C#5",
                    "midi": 73,
                    "time": 62.3270833333334,
                    "velocity": 0.7874015748031497,
                    "duration": 0.23541666666666572
                },
                {
                    "name": "C#4",
                    "midi": 61,
                    "time": 62.32916666666673,
                    "velocity": 0.5118110236220472,
                    "duration": 0.15833333333333144
                },
                {
                    "name": "D5",
                    "midi": 74,
                    "time": 62.662500000000065,
                    "velocity": 0.84251968503937,
                    "duration": 0.3062499999999915
                },
                {
                    "name": "B3",
                    "midi": 59,
                    "time": 62.6708333333334,
                    "velocity": 0.5118110236220472,
                    "duration": 0.24166666666666003
                },
                {
                    "name": "A3",
                    "midi": 57,
                    "time": 63.01875000000006,
                    "velocity": 0.4409448818897638,
                    "duration": 0.17083333333333428
                },
                {
                    "name": "D#5",
                    "midi": 75,
                    "time": 63.02500000000006,
                    "velocity": 0.8503937007874016,
                    "duration": 0.6333333333333258
                },
                {
                    "name": "D#3",
                    "midi": 51,
                    "time": 63.33333333333339,
                    "velocity": 0.6062992125984252,
                    "duration": 0.36249999999999716
                },
                {
                    "name": "G#3",
                    "midi": 56,
                    "time": 63.341666666666725,
                    "velocity": 0.6535433070866141,
                    "duration": 0.37708333333333144
                },
                {
                    "name": "C3",
                    "midi": 48,
                    "time": 63.37708333333339,
                    "velocity": 0.4094488188976378,
                    "duration": 0.34166666666666856
                },
                {
                    "name": "C5",
                    "midi": 72,
                    "time": 63.69583333333339,
                    "velocity": 0.7874015748031497,
                    "duration": 0.09375
                },
                {
                    "name": "G#4",
                    "midi": 68,
                    "time": 64.04375000000006,
                    "velocity": 0.8503937007874016,
                    "duration": 0.4562500000000256
                },
                {
                    "name": "D#3",
                    "midi": 51,
                    "time": 64.0520833333334,
                    "velocity": 0.33858267716535434,
                    "duration": 0.3833333333333542
                },
                {
                    "name": "B2",
                    "midi": 47,
                    "time": 64.06250000000007,
                    "velocity": 0.36220472440944884,
                    "duration": 0.36666666666668846
                },
                {
                    "name": "G#3",
                    "midi": 56,
                    "time": 64.06250000000007,
                    "velocity": 0.3543307086614173,
                    "duration": 0.2916666666666856
                },
                {
                    "name": "F#4",
                    "midi": 66,
                    "time": 64.45000000000009,
                    "velocity": 0.84251968503937,
                    "duration": 0.9354166666666686
                },
                {
                    "name": "C#4",
                    "midi": 61,
                    "time": 64.93125000000009,
                    "velocity": 0.2992125984251969,
                    "duration": 2.1625000000000085
                },
                {
                    "name": "G3",
                    "midi": 55,
                    "time": 64.9437500000001,
                    "velocity": 0.2440944881889764,
                    "duration": 2.1083333333333343
                },
                {
                    "name": "A#2",
                    "midi": 46,
                    "time": 64.94583333333343,
                    "velocity": 0.4251968503937008,
                    "duration": 1.9937499999999915
                },
                {
                    "name": "D#2",
                    "midi": 39,
                    "time": 64.96250000000009,
                    "velocity": 0.33858267716535434,
                    "duration": 2.018749999999997
                },
                {
                    "name": "E4",
                    "midi": 64,
                    "time": 65.49583333333342,
                    "velocity": 0.5590551181102362,
                    "duration": 0.6000000000000085
                },
                {
                    "name": "D#4",
                    "midi": 63,
                    "time": 65.99791666666677,
                    "velocity": 0.5511811023622047,
                    "duration": 0.55416666666666
                },
                {
                    "name": "D#4",
                    "midi": 63,
                    "time": 66.68333333333342,
                    "velocity": 0.4566929133858268,
                    "duration": 0.4166666666666714
                },
                {
                    "name": "G#1",
                    "midi": 32,
                    "time": 67.92708333333343,
                    "velocity": 0.28346456692913385,
                    "duration": 0.9729166666666629
                },
                {
                    "name": "G#2",
                    "midi": 44,
                    "time": 67.93125000000009,
                    "velocity": 0.18110236220472442,
                    "duration": 1.4104166666666913
                },
                {
                    "name": "E3",
                    "midi": 52,
                    "time": 68.01666666666675,
                    "velocity": 0.5354330708661418,
                    "duration": 0.7041666666666657
                },
                {
                    "name": "G#3",
                    "midi": 56,
                    "time": 68.35000000000008,
                    "velocity": 0.5118110236220472,
                    "duration": 0.21666666666666856
                },
                {
                    "name": "A#3",
                    "midi": 58,
                    "time": 68.54375000000009,
                    "velocity": 0.6377952755905512,
                    "duration": 0.23124999999998863
                },
                {
                    "name": "G#3",
                    "midi": 56,
                    "time": 68.67500000000008,
                    "velocity": 0.6771653543307087,
                    "duration": 0.1770833333333286
                },
                {
                    "name": "B3",
                    "midi": 59,
                    "time": 68.86250000000008,
                    "velocity": 0.6062992125984252,
                    "duration": 0.23125000000001705
                },
                {
                    "name": "F3",
                    "midi": 53,
                    "time": 68.86666666666675,
                    "velocity": 0.5039370078740157,
                    "duration": 0.40208333333336554
                },
                {
                    "name": "C#2",
                    "midi": 37,
                    "time": 68.87500000000009,
                    "velocity": 0.49606299212598426,
                    "duration": 0.6479166666666885
                },
                {
                    "name": "B3",
                    "midi": 59,
                    "time": 69.19791666666677,
                    "velocity": 0.6929133858267716,
                    "duration": 0.15208333333335133
                },
                {
                    "name": "G#1",
                    "midi": 32,
                    "time": 69.49375000000012,
                    "velocity": 0.5196850393700787,
                    "duration": 0.6708333333333201
                },
                {
                    "name": "G#2",
                    "midi": 44,
                    "time": 69.50000000000011,
                    "velocity": 0.5039370078740157,
                    "duration": 0.9958333333333229
                },
                {
                    "name": "F#3",
                    "midi": 54,
                    "time": 69.50625000000011,
                    "velocity": 0.7559055118110236,
                    "duration": 0.5416666666666714
                },
                {
                    "name": "G#3",
                    "midi": 56,
                    "time": 69.68125000000012,
                    "velocity": 0.5984251968503937,
                    "duration": 0.16249999999999432
                },
                {
                    "name": "A#3",
                    "midi": 58,
                    "time": 69.82916666666678,
                    "velocity": 0.6377952755905512,
                    "duration": 0.18333333333333712
                },
                {
                    "name": "G#3",
                    "midi": 56,
                    "time": 69.96250000000012,
                    "velocity": 0.6456692913385826,
                    "duration": 0.1520833333333229
                },
                {
                    "name": "B3",
                    "midi": 59,
                    "time": 70.1187500000001,
                    "velocity": 0.6062992125984252,
                    "duration": 0.19374999999999432
                },
                {
                    "name": "C#2",
                    "midi": 37,
                    "time": 70.14166666666677,
                    "velocity": 0.4566929133858268,
                    "duration": 0.5583333333333229
                },
                {
                    "name": "F3",
                    "midi": 53,
                    "time": 70.16458333333344,
                    "velocity": 0.4409448818897638,
                    "duration": 0.3062499999999915
                },
                {
                    "name": "C#4",
                    "midi": 61,
                    "time": 70.3062500000001,
                    "velocity": 0.6614173228346457,
                    "duration": 0.1354166666666572
                },
                {
                    "name": "B3",
                    "midi": 59,
                    "time": 70.43958333333343,
                    "velocity": 0.48031496062992124,
                    "duration": 0.13125000000000853
                },
                {
                    "name": "A#3",
                    "midi": 58,
                    "time": 70.55416666666677,
                    "velocity": 0.5669291338582677,
                    "duration": 0.12291666666666856
                },
                {
                    "name": "G#2",
                    "midi": 44,
                    "time": 70.68958333333343,
                    "velocity": 0.4251968503937008,
                    "duration": 0.3916666666666515
                },
                {
                    "name": "G#1",
                    "midi": 32,
                    "time": 70.6937500000001,
                    "velocity": 0.4251968503937008,
                    "duration": 0.5291666666666544
                },
                {
                    "name": "E3",
                    "midi": 52,
                    "time": 70.70416666666675,
                    "velocity": 0.5905511811023622,
                    "duration": 0.24583333333333712
                },
                {
                    "name": "G#3",
                    "midi": 56,
                    "time": 70.82291666666676,
                    "velocity": 0.6614173228346457,
                    "duration": 0.13124999999999432
                },
                {
                    "name": "A#3",
                    "midi": 58,
                    "time": 70.9437500000001,
                    "velocity": 0.7007874015748031,
                    "duration": 0.18124999999999147
                },
                {
                    "name": "G#3",
                    "midi": 56,
                    "time": 71.05208333333341,
                    "velocity": 0.6377952755905512,
                    "duration": 0.12708333333334565
                },
                {
                    "name": "B3",
                    "midi": 59,
                    "time": 71.18333333333342,
                    "velocity": 0.7401574803149606,
                    "duration": 0.20624999999999716
                },
                {
                    "name": "F#3",
                    "midi": 54,
                    "time": 71.18958333333342,
                    "velocity": 0.7086614173228346,
                    "duration": 0.4895833333333428
                },
                {
                    "name": "D#2",
                    "midi": 39,
                    "time": 71.20625000000008,
                    "velocity": 0.4330708661417323,
                    "duration": 0.3687500000000057
                },
                {
                    "name": "G#2",
                    "midi": 44,
                    "time": 71.22083333333342,
                    "velocity": 0.28346456692913385,
                    "duration": 0.21458333333333712
                },
                {
                    "name": "B3",
                    "midi": 59,
                    "time": 71.48333333333342,
                    "velocity": 0.7874015748031497,
                    "duration": 0.20000000000000284
                },
                {
                    "name": "G#2",
                    "midi": 44,
                    "time": 71.92916666666676,
                    "velocity": 0.3228346456692913,
                    "duration": 0.7854166666666629
                },
                {
                    "name": "C#2",
                    "midi": 37,
                    "time": 71.93125000000009,
                    "velocity": 0.4251968503937008,
                    "duration": 0.7791666666666686
                },
                {
                    "name": "B3",
                    "midi": 59,
                    "time": 71.93750000000009,
                    "velocity": 0.6141732283464567,
                    "duration": 0.7937500000000028
                },
                {
                    "name": "F3",
                    "midi": 53,
                    "time": 71.94375000000008,
                    "velocity": 0.4094488188976378,
                    "duration": 0.7250000000000085
                },
                {
                    "name": "C#5",
                    "midi": 73,
                    "time": 73.21458333333341,
                    "velocity": 0.937007874015748,
                    "duration": 0.08749999999999147
                },
                {
                    "name": "C#4",
                    "midi": 61,
                    "time": 73.21666666666674,
                    "velocity": 0.9448818897637795,
                    "duration": 0.2083333333333286
                },
                {
                    "name": "C#6",
                    "midi": 85,
                    "time": 73.21875000000007,
                    "velocity": 0.8503937007874016,
                    "duration": 0.1354166666666572
                },
                {
                    "name": "D#5",
                    "midi": 75,
                    "time": 73.46250000000006,
                    "velocity": 0.9291338582677166,
                    "duration": 0.06666666666666288
                },
                {
                    "name": "D#6",
                    "midi": 87,
                    "time": 73.46666666666673,
                    "velocity": 0.905511811023622,
                    "duration": 0.10208333333333997
                },
                {
                    "name": "D#4",
                    "midi": 63,
                    "time": 73.47291666666672,
                    "velocity": 0.8818897637795275,
                    "duration": 0.19375000000000853
                },
                {
                    "name": "F4",
                    "midi": 65,
                    "time": 73.66666666666673,
                    "velocity": 0.8740157480314961,
                    "duration": 0.33541666666666003
                },
                {
                    "name": "F6",
                    "midi": 89,
                    "time": 73.66875000000006,
                    "velocity": 0.7716535433070866,
                    "duration": 0.04583333333332007
                },
                {
                    "name": "F5",
                    "midi": 77,
                    "time": 73.67083333333339,
                    "velocity": 0.7716535433070866,
                    "duration": 0.037499999999994316
                },
                {
                    "name": "F#4",
                    "midi": 66,
                    "time": 73.95000000000006,
                    "velocity": 0.9763779527559056,
                    "duration": 0.07083333333332575
                },
                {
                    "name": "F#5",
                    "midi": 78,
                    "time": 73.96666666666673,
                    "velocity": 0.937007874015748,
                    "duration": 0.9708333333333172
                },
                {
                    "name": "F#6",
                    "midi": 90,
                    "time": 73.96666666666673,
                    "velocity": 0.937007874015748,
                    "duration": 0.9229166666666515
                },
                {
                    "name": "F#2",
                    "midi": 42,
                    "time": 74.42708333333339,
                    "velocity": 0.7322834645669292,
                    "duration": 0.0625
                },
                {
                    "name": "F#3",
                    "midi": 54,
                    "time": 74.43750000000006,
                    "velocity": 0.984251968503937,
                    "duration": 0.08124999999999716
                },
                {
                    "name": "A#4",
                    "midi": 70,
                    "time": 74.73541666666672,
                    "velocity": 0.8976377952755905,
                    "duration": 0.06874999999999432
                },
                {
                    "name": "F#4",
                    "midi": 66,
                    "time": 74.74375000000006,
                    "velocity": 0.8110236220472441,
                    "duration": 0.08124999999998295
                },
                {
                    "name": "A#5",
                    "midi": 82,
                    "time": 74.74375000000006,
                    "velocity": 0.8188976377952756,
                    "duration": 0.21666666666664014
                },
                {
                    "name": "C#4",
                    "midi": 61,
                    "time": 74.74791666666673,
                    "velocity": 0.6771653543307087,
                    "duration": 0.10416666666665719
                },
                {
                    "name": "C#6",
                    "midi": 85,
                    "time": 74.75000000000006,
                    "velocity": 0.7795275590551181,
                    "duration": 0.260416666666643
                },
                {
                    "name": "E6",
                    "midi": 88,
                    "time": 75.35625000000003,
                    "velocity": 0.8346456692913385,
                    "duration": 0.11874999999999147
                },
                {
                    "name": "E5",
                    "midi": 76,
                    "time": 75.35833333333336,
                    "velocity": 0.8188976377952756,
                    "duration": 0.09999999999999432
                },
                {
                    "name": "D6",
                    "midi": 86,
                    "time": 75.57708333333336,
                    "velocity": 0.8346456692913385,
                    "duration": 0.07916666666666572
                },
                {
                    "name": "D5",
                    "midi": 74,
                    "time": 75.57708333333336,
                    "velocity": 0.8346456692913385,
                    "duration": 0.06874999999999432
                },
                {
                    "name": "F#2",
                    "midi": 42,
                    "time": 75.7479166666667,
                    "velocity": 0.6220472440944882,
                    "duration": 0.06666666666664867
                },
                {
                    "name": "F#3",
                    "midi": 54,
                    "time": 75.75208333333336,
                    "velocity": 0.8503937007874016,
                    "duration": 0.06041666666665435
                },
                {
                    "name": "E6",
                    "midi": 88,
                    "time": 75.75833333333335,
                    "velocity": 0.8503937007874016,
                    "duration": 0.07291666666665719
                },
                {
                    "name": "E5",
                    "midi": 76,
                    "time": 75.76041666666669,
                    "velocity": 0.7874015748031497,
                    "duration": 0.06666666666666288
                },
                {
                    "name": "B4",
                    "midi": 71,
                    "time": 76.03750000000001,
                    "velocity": 0.8110236220472441,
                    "duration": 0.08749999999999147
                },
                {
                    "name": "D5",
                    "midi": 74,
                    "time": 76.03958333333334,
                    "velocity": 0.8346456692913385,
                    "duration": 0.05833333333332291
                },
                {
                    "name": "D6",
                    "midi": 86,
                    "time": 76.03958333333334,
                    "velocity": 0.8740157480314961,
                    "duration": 0.10416666666665719
                },
                {
                    "name": "B5",
                    "midi": 83,
                    "time": 76.04166666666667,
                    "velocity": 0.7795275590551181,
                    "duration": 0.09583333333333144
                },
                {
                    "name": "C#4",
                    "midi": 61,
                    "time": 76.04375,
                    "velocity": 0.7716535433070866,
                    "duration": 0.12916666666664867
                },
                {
                    "name": "G#4",
                    "midi": 68,
                    "time": 76.04375,
                    "velocity": 0.7401574803149606,
                    "duration": 0.09583333333333144
                },
                {
                    "name": "G#5",
                    "midi": 80,
                    "time": 76.04583333333333,
                    "velocity": 0.7559055118110236,
                    "duration": 0.06874999999999432
                },
                {
                    "name": "E5",
                    "midi": 76,
                    "time": 76.05416666666667,
                    "velocity": 0.7559055118110236,
                    "duration": 0.037499999999994316
                },
                {
                    "name": "E4",
                    "midi": 64,
                    "time": 76.05625,
                    "velocity": 0.49606299212598426,
                    "duration": 0.09374999999998579
                },
                {
                    "name": "E6",
                    "midi": 88,
                    "time": 76.24166666666665,
                    "velocity": 0.8110236220472441,
                    "duration": 0.06041666666668277
                },
                {
                    "name": "E5",
                    "midi": 76,
                    "time": 76.25208333333332,
                    "velocity": 0.6377952755905512,
                    "duration": 0.041666666666671404
                },
                {
                    "name": "D6",
                    "midi": 86,
                    "time": 76.42083333333333,
                    "velocity": 0.8110236220472441,
                    "duration": 0.04999999999999716
                },
                {
                    "name": "D5",
                    "midi": 74,
                    "time": 76.42291666666667,
                    "velocity": 0.7322834645669292,
                    "duration": 0.04999999999999716
                },
                {
                    "name": "A#4",
                    "midi": 70,
                    "time": 76.57916666666667,
                    "velocity": 0.889763779527559,
                    "duration": 0.06666666666666288
                },
                {
                    "name": "C#6",
                    "midi": 85,
                    "time": 76.57916666666667,
                    "velocity": 0.905511811023622,
                    "duration": 0.08958333333333712
                },
                {
                    "name": "C#4",
                    "midi": 61,
                    "time": 76.58125,
                    "velocity": 0.8110236220472441,
                    "duration": 0.09583333333334565
                },
                {
                    "name": "C#5",
                    "midi": 73,
                    "time": 76.58333333333333,
                    "velocity": 0.9448818897637795,
                    "duration": 0.054166666666660035
                },
                {
                    "name": "F#4",
                    "midi": 66,
                    "time": 76.58541666666666,
                    "velocity": 0.8188976377952756,
                    "duration": 0.06875000000000853
                },
                {
                    "name": "A#5",
                    "midi": 82,
                    "time": 76.59583333333333,
                    "velocity": 0.7244094488188977,
                    "duration": 0.09791666666667709
                },
                {
                    "name": "F#5",
                    "midi": 78,
                    "time": 76.59791666666666,
                    "velocity": 0.6929133858267716,
                    "duration": 0.03541666666666288
                },
                {
                    "name": "G#4",
                    "midi": 68,
                    "time": 76.86875,
                    "velocity": 0.8661417322834646,
                    "duration": 0.0687499999999801
                },
                {
                    "name": "B4",
                    "midi": 71,
                    "time": 76.875,
                    "velocity": 0.8188976377952756,
                    "duration": 0.037499999999980105
                },
                {
                    "name": "B5",
                    "midi": 83,
                    "time": 76.87708333333333,
                    "velocity": 0.7795275590551181,
                    "duration": 0.037499999999980105
                },
                {
                    "name": "F#5",
                    "midi": 78,
                    "time": 76.87708333333333,
                    "velocity": 0.8267716535433071,
                    "duration": 0.03333333333331723
                },
                {
                    "name": "B3",
                    "midi": 59,
                    "time": 76.87916666666666,
                    "velocity": 0.7086614173228346,
                    "duration": 0.07499999999998863
                },
                {
                    "name": "C#4",
                    "midi": 61,
                    "time": 76.88541666666666,
                    "velocity": 0.7007874015748031,
                    "duration": 0.06666666666666288
                },
                {
                    "name": "A#4",
                    "midi": 70,
                    "time": 77.15416666666665,
                    "velocity": 0.937007874015748,
                    "duration": 0.05833333333333712
                },
                {
                    "name": "A#5",
                    "midi": 82,
                    "time": 77.15624999999999,
                    "velocity": 0.8661417322834646,
                    "duration": 0.08541666666667425
                },
                {
                    "name": "F#4",
                    "midi": 66,
                    "time": 77.15833333333332,
                    "velocity": 0.937007874015748,
                    "duration": 0.06666666666667709
                },
                {
                    "name": "A#3",
                    "midi": 58,
                    "time": 77.16666666666666,
                    "velocity": 0.7874015748031497,
                    "duration": 0.08750000000000568
                },
                {
                    "name": "C#4",
                    "midi": 61,
                    "time": 77.17083333333332,
                    "velocity": 0.7795275590551181,
                    "duration": 0.0729166666666714
                },
                {
                    "name": "F#5",
                    "midi": 78,
                    "time": 77.18124999999999,
                    "velocity": 0.44881889763779526,
                    "duration": 0.039583333333339965
                },
                {
                    "name": "A3",
                    "midi": 57,
                    "time": 77.46249999999999,
                    "velocity": 0.8346456692913385,
                    "duration": 0.4854166666666373
                },
                {
                    "name": "F#4",
                    "midi": 66,
                    "time": 77.46458333333332,
                    "velocity": 0.9448818897637795,
                    "duration": 0.33749999999997726
                },
                {
                    "name": "C#4",
                    "midi": 61,
                    "time": 77.46666666666665,
                    "velocity": 0.8661417322834646,
                    "duration": 0.3291666666666515
                },
                {
                    "name": "A5",
                    "midi": 81,
                    "time": 77.46874999999999,
                    "velocity": 0.8346456692913385,
                    "duration": 0.06041666666665435
                },
                {
                    "name": "A4",
                    "midi": 69,
                    "time": 77.47083333333332,
                    "velocity": 0.889763779527559,
                    "duration": 0.03333333333333144
                },
                {
                    "name": "F#5",
                    "midi": 78,
                    "time": 77.47083333333332,
                    "velocity": 0.8346456692913385,
                    "duration": 0.052083333333328596
                },
                {
                    "name": "B5",
                    "midi": 83,
                    "time": 78.06666666666663,
                    "velocity": 0.7795275590551181,
                    "duration": 0.09791666666664867
                },
                {
                    "name": "F#5",
                    "midi": 78,
                    "time": 78.0708333333333,
                    "velocity": 0.7401574803149606,
                    "duration": 0.07916666666665151
                },
                {
                    "name": "D#5",
                    "midi": 75,
                    "time": 78.07291666666663,
                    "velocity": 0.7637795275590551,
                    "duration": 0.06666666666664867
                },
                {
                    "name": "B4",
                    "midi": 71,
                    "time": 78.07499999999996,
                    "velocity": 0.6850393700787402,
                    "duration": 0.04166666666665719
                },
                {
                    "name": "F#4",
                    "midi": 66,
                    "time": 78.07499999999996,
                    "velocity": 0.84251968503937,
                    "duration": 0.1520833333333229
                },
                {
                    "name": "D#4",
                    "midi": 63,
                    "time": 78.07708333333329,
                    "velocity": 0.7795275590551181,
                    "duration": 0.12499999999998579
                },
                {
                    "name": "B3",
                    "midi": 59,
                    "time": 78.07916666666662,
                    "velocity": 0.6771653543307087,
                    "duration": 0.30416666666666003
                },
                {
                    "name": "F#4",
                    "midi": 66,
                    "time": 78.39374999999995,
                    "velocity": 0.8818897637795275,
                    "duration": 0.10833333333332007
                },
                {
                    "name": "D#4",
                    "midi": 63,
                    "time": 78.39374999999995,
                    "velocity": 0.8346456692913385,
                    "duration": 0.09583333333331723
                },
                {
                    "name": "F#5",
                    "midi": 78,
                    "time": 78.39791666666662,
                    "velocity": 0.8346456692913385,
                    "duration": 0.06666666666666288
                },
                {
                    "name": "C6",
                    "midi": 84,
                    "time": 78.39791666666662,
                    "velocity": 0.84251968503937,
                    "duration": 0.06041666666666856
                },
                {
                    "name": "C5",
                    "midi": 72,
                    "time": 78.39999999999995,
                    "velocity": 0.8188976377952756,
                    "duration": 0.041666666666671404
                },
                {
                    "name": "C4",
                    "midi": 60,
                    "time": 78.40208333333328,
                    "velocity": 0.7086614173228346,
                    "duration": 0.06874999999999432
                },
                {
                    "name": "A#4",
                    "midi": 70,
                    "time": 78.75624999999994,
                    "velocity": 0.8976377952755905,
                    "duration": 0.3041666666666458
                },
                {
                    "name": "C#5",
                    "midi": 73,
                    "time": 78.7604166666666,
                    "velocity": 0.968503937007874,
                    "duration": 0.31041666666665435
                },
                {
                    "name": "F#4",
                    "midi": 66,
                    "time": 78.7604166666666,
                    "velocity": 0.84251968503937,
                    "duration": 0.322916666666643
                },
                {
                    "name": "F#5",
                    "midi": 78,
                    "time": 78.76249999999993,
                    "velocity": 0.84251968503937,
                    "duration": 0.32083333333331154
                },
                {
                    "name": "C#4",
                    "midi": 61,
                    "time": 78.76458333333326,
                    "velocity": 0.8188976377952756,
                    "duration": 0.3395833333333087
                },
                {
                    "name": "C#6",
                    "midi": 85,
                    "time": 78.76458333333326,
                    "velocity": 0.889763779527559,
                    "duration": 0.2916666666666572
                },
                {
                    "name": "A#5",
                    "midi": 82,
                    "time": 78.76874999999993,
                    "velocity": 0.7952755905511811,
                    "duration": 0.3083333333333229
                },
                {
                    "name": "A#5",
                    "midi": 82,
                    "time": 79.3874999999999,
                    "velocity": 0.8661417322834646,
                    "duration": 0.07083333333331154
                },
                {
                    "name": "A#4",
                    "midi": 70,
                    "time": 79.38958333333323,
                    "velocity": 0.952755905511811,
                    "duration": 0.06041666666665435
                },
                {
                    "name": "F#4",
                    "midi": 66,
                    "time": 79.3937499999999,
                    "velocity": 0.8661417322834646,
                    "duration": 0.06249999999998579
                },
                {
                    "name": "F#5",
                    "midi": 78,
                    "time": 79.39791666666656,
                    "velocity": 0.7401574803149606,
                    "duration": 0.04999999999999716
                },
                {
                    "name": "C#4",
                    "midi": 61,
                    "time": 79.40208333333322,
                    "velocity": 0.7795275590551181,
                    "duration": 0.06874999999999432
                },
                {
                    "name": "A#3",
                    "midi": 58,
                    "time": 79.40624999999989,
                    "velocity": 0.7165354330708661,
                    "duration": 0.09375
                },
                {
                    "name": "F#5",
                    "midi": 78,
                    "time": 79.76874999999988,
                    "velocity": 0.8818897637795275,
                    "duration": 0.11041666666665151
                },
                {
                    "name": "F#4",
                    "midi": 66,
                    "time": 79.77083333333321,
                    "velocity": 0.9133858267716536,
                    "duration": 0.0999999999999801
                },
                {
                    "name": "C#4",
                    "midi": 61,
                    "time": 79.77499999999988,
                    "velocity": 0.8267716535433071,
                    "duration": 0.13749999999997442
                },
                {
                    "name": "A#4",
                    "midi": 70,
                    "time": 79.77708333333321,
                    "velocity": 0.7874015748031497,
                    "duration": 0.11458333333331439
                },
                {
                    "name": "C#5",
                    "midi": 73,
                    "time": 79.7833333333332,
                    "velocity": 0.7244094488188977,
                    "duration": 0.10208333333332575
                },
                {
                    "name": "A#3",
                    "midi": 58,
                    "time": 79.78541666666653,
                    "velocity": 0.7244094488188977,
                    "duration": 0.13333333333331154
                },
                {
                    "name": "F#3",
                    "midi": 54,
                    "time": 79.7895833333332,
                    "velocity": 0.6929133858267716,
                    "duration": 0.20833333333331439
                },
                {
                    "name": "E5",
                    "midi": 76,
                    "time": 80.1604166666665,
                    "velocity": 0.8740157480314961,
                    "duration": 0.5104166666666572
                },
                {
                    "name": "E4",
                    "midi": 64,
                    "time": 80.16249999999984,
                    "velocity": 0.8582677165354331,
                    "duration": 0.5208333333333286
                },
                {
                    "name": "B4",
                    "midi": 71,
                    "time": 80.16249999999984,
                    "velocity": 0.8031496062992126,
                    "duration": 1.0374999999999943
                },
                {
                    "name": "B3",
                    "midi": 59,
                    "time": 80.16458333333317,
                    "velocity": 0.84251968503937,
                    "duration": 1.7895833333333258
                },
                {
                    "name": "F3",
                    "midi": 53,
                    "time": 80.17083333333316,
                    "velocity": 0.7716535433070866,
                    "duration": 1.0437500000000028
                },
                {
                    "name": "E3",
                    "midi": 52,
                    "time": 80.1729166666665,
                    "velocity": 0.7559055118110236,
                    "duration": 0.59375
                },
                {
                    "name": "D4",
                    "midi": 62,
                    "time": 80.92083333333316,
                    "velocity": 0.8582677165354331,
                    "duration": 0.21250000000000568
                },
                {
                    "name": "D5",
                    "midi": 74,
                    "time": 80.9229166666665,
                    "velocity": 0.8346456692913385,
                    "duration": 0.21250000000000568
                },
                {
                    "name": "D3",
                    "midi": 50,
                    "time": 80.93333333333317,
                    "velocity": 0.7244094488188977,
                    "duration": 0.32500000000000284
                },
                {
                    "name": "C#4",
                    "midi": 61,
                    "time": 81.43333333333317,
                    "velocity": 0.84251968503937,
                    "duration": 0.5458333333333343
                },
                {
                    "name": "C#5",
                    "midi": 73,
                    "time": 81.43749999999983,
                    "velocity": 0.8503937007874016,
                    "duration": 0.6291666666666771
                },
                {
                    "name": "C#3",
                    "midi": 49,
                    "time": 81.44166666666649,
                    "velocity": 0.7086614173228346,
                    "duration": 0.6145833333333428
                },
                {
                    "name": "F#3",
                    "midi": 54,
                    "time": 82.65208333333317,
                    "velocity": 0.3543307086614173,
                    "duration": 0.8520833333333258
                },
                {
                    "name": "D5",
                    "midi": 74,
                    "time": 82.69999999999983,
                    "velocity": 0.5905511811023622,
                    "duration": 0.6729166666666657
                },
                {
                    "name": "F#5",
                    "midi": 78,
                    "time": 82.98124999999983,
                    "velocity": 0.6929133858267716,
                    "duration": 0.22708333333332575
                },
                {
                    "name": "G#5",
                    "midi": 80,
                    "time": 83.1729166666665,
                    "velocity": 0.7322834645669292,
                    "duration": 0.28125
                },
                {
                    "name": "F#4",
                    "midi": 66,
                    "time": 83.19583333333316,
                    "velocity": 0.3779527559055118,
                    "duration": 0.3333333333333428
                },
                {
                    "name": "F#5",
                    "midi": 78,
                    "time": 83.33124999999983,
                    "velocity": 0.7952755905511811,
                    "duration": 0.1770833333333286
                },
                {
                    "name": "B3",
                    "midi": 59,
                    "time": 83.5166666666665,
                    "velocity": 0.3700787401574803,
                    "duration": 0.6854166666666544
                },
                {
                    "name": "A5",
                    "midi": 81,
                    "time": 83.52708333333317,
                    "velocity": 0.7322834645669292,
                    "duration": 0.25208333333333144
                },
                {
                    "name": "D#5",
                    "midi": 75,
                    "time": 83.53541666666649,
                    "velocity": 0.6377952755905512,
                    "duration": 0.4270833333333286
                },
                {
                    "name": "A5",
                    "midi": 81,
                    "time": 83.87083333333317,
                    "velocity": 0.7322834645669292,
                    "duration": 0.1729166666666515
                },
                {
                    "name": "F#4",
                    "midi": 66,
                    "time": 83.89374999999983,
                    "velocity": 0.29133858267716534,
                    "duration": 0.23124999999998863
                },
                {
                    "name": "F#3",
                    "midi": 54,
                    "time": 84.15416666666648,
                    "velocity": 0.33070866141732286,
                    "duration": 0.4854166666666657
                },
                {
                    "name": "E5",
                    "midi": 76,
                    "time": 84.17708333333314,
                    "velocity": 0.6771653543307087,
                    "duration": 0.3187500000000085
                },
                {
                    "name": "F#5",
                    "midi": 78,
                    "time": 84.30624999999982,
                    "velocity": 0.6929133858267716,
                    "duration": 0.13333333333333997
                },
                {
                    "name": "G#5",
                    "midi": 80,
                    "time": 84.42916666666649,
                    "velocity": 0.7559055118110236,
                    "duration": 0.16041666666666288
                },
                {
                    "name": "F#4",
                    "midi": 66,
                    "time": 84.44583333333316,
                    "velocity": 0.3779527559055118,
                    "duration": 0.20833333333331439
                },
                {
                    "name": "F#5",
                    "midi": 78,
                    "time": 84.54166666666649,
                    "velocity": 0.5905511811023622,
                    "duration": 0.08541666666666003
                },
                {
                    "name": "D#5",
                    "midi": 75,
                    "time": 84.64374999999981,
                    "velocity": 0.7244094488188977,
                    "duration": 0.2291666666666572
                },
                {
                    "name": "A5",
                    "midi": 81,
                    "time": 84.6499999999998,
                    "velocity": 0.6929133858267716,
                    "duration": 0.16875000000000284
                },
                {
                    "name": "B3",
                    "midi": 59,
                    "time": 84.67499999999981,
                    "velocity": 0.29133858267716534,
                    "duration": 0.3395833333333229
                },
                {
                    "name": "B5",
                    "midi": 83,
                    "time": 84.83541666666648,
                    "velocity": 0.4881889763779528,
                    "duration": 0.12916666666666288
                },
                {
                    "name": "A5",
                    "midi": 81,
                    "time": 84.94791666666647,
                    "velocity": 0.44881889763779526,
                    "duration": 0.10625000000000284
                },
                {
                    "name": "F#4",
                    "midi": 66,
                    "time": 84.94791666666647,
                    "velocity": 0.2677165354330709,
                    "duration": 0.2708333333333286
                },
                {
                    "name": "G#5",
                    "midi": 80,
                    "time": 85.05833333333314,
                    "velocity": 0.5748031496062992,
                    "duration": 0.1145833333333286
                },
                {
                    "name": "D5",
                    "midi": 74,
                    "time": 85.20208333333314,
                    "velocity": 0.5511811023622047,
                    "duration": 0.2875000000000085
                },
                {
                    "name": "F#3",
                    "midi": 54,
                    "time": 85.2062499999998,
                    "velocity": 0.2992125984251969,
                    "duration": 0.49166666666667425
                },
                {
                    "name": "F#5",
                    "midi": 78,
                    "time": 85.3124999999998,
                    "velocity": 0.5984251968503937,
                    "duration": 0.11875000000000568
                },
                {
                    "name": "G#5",
                    "midi": 80,
                    "time": 85.41666666666647,
                    "velocity": 0.6850393700787402,
                    "duration": 0.1604166666666771
                },
                {
                    "name": "F#4",
                    "midi": 66,
                    "time": 85.47291666666648,
                    "velocity": 0.3543307086614173,
                    "duration": 0.20416666666666572
                },
                {
                    "name": "F#5",
                    "midi": 78,
                    "time": 85.52083333333314,
                    "velocity": 0.5039370078740157,
                    "duration": 0.11666666666667425
                },
                {
                    "name": "A5",
                    "midi": 81,
                    "time": 85.62916666666648,
                    "velocity": 0.7559055118110236,
                    "duration": 0.18124999999999147
                },
                {
                    "name": "E5",
                    "midi": 76,
                    "time": 85.64791666666649,
                    "velocity": 0.5354330708661418,
                    "duration": 0.3645833333333144
                },
                {
                    "name": "C#4",
                    "midi": 61,
                    "time": 85.67083333333315,
                    "velocity": 0.44881889763779526,
                    "duration": 0.42499999999999716
                },
                {
                    "name": "A5",
                    "midi": 81,
                    "time": 85.91041666666646,
                    "velocity": 0.8110236220472441,
                    "duration": 0.08750000000000568
                },
                {
                    "name": "F#4",
                    "midi": 66,
                    "time": 85.9187499999998,
                    "velocity": 0.44881889763779526,
                    "duration": 0.12083333333333712
                },
                {
                    "name": "B3",
                    "midi": 59,
                    "time": 86.20416666666648,
                    "velocity": 0.2755905511811024,
                    "duration": 0.48749999999999716
                },
                {
                    "name": "F#4",
                    "midi": 66,
                    "time": 86.23749999999981,
                    "velocity": 0.2755905511811024,
                    "duration": 0.9416666666666629
                },
                {
                    "name": "D#5",
                    "midi": 75,
                    "time": 86.23958333333314,
                    "velocity": 0.7165354330708661,
                    "duration": 0.40833333333334565
                },
                {
                    "name": "A5",
                    "midi": 81,
                    "time": 86.2437499999998,
                    "velocity": 0.7086614173228346,
                    "duration": 0.6604166666666771
                },
                {
                    "name": "C#5",
                    "midi": 73,
                    "time": 86.64374999999983,
                    "velocity": 0.5826771653543307,
                    "duration": 0.3770833333333172
                },
                {
                    "name": "A3",
                    "midi": 57,
                    "time": 86.71666666666648,
                    "velocity": 0.25196850393700787,
                    "duration": 0.2874999999999943
                },
                {
                    "name": "B4",
                    "midi": 71,
                    "time": 86.96874999999982,
                    "velocity": 0.5039370078740157,
                    "duration": 0.33124999999998295
                },
                {
                    "name": "G#3",
                    "midi": 56,
                    "time": 86.97083333333315,
                    "velocity": 0.5118110236220472,
                    "duration": 0.125
                },
                {
                    "name": "F#3",
                    "midi": 54,
                    "time": 87.25833333333314,
                    "velocity": 0.4330708661417323,
                    "duration": 0.11666666666666003
                },
                {
                    "name": "A4",
                    "midi": 69,
                    "time": 87.26666666666647,
                    "velocity": 0.4330708661417323,
                    "duration": 0.3291666666666657
                },
                {
                    "name": "B2",
                    "midi": 47,
                    "time": 87.64166666666647,
                    "velocity": 0.4015748031496063,
                    "duration": 0.7375000000000114
                },
                {
                    "name": "G4",
                    "midi": 67,
                    "time": 87.70208333333314,
                    "velocity": 0.4251968503937008,
                    "duration": 0.5291666666666686
                },
                {
                    "name": "B4",
                    "midi": 71,
                    "time": 87.9499999999998,
                    "velocity": 0.4251968503937008,
                    "duration": 0.15625
                },
                {
                    "name": "B3",
                    "midi": 59,
                    "time": 88.03749999999981,
                    "velocity": 0.29133858267716534,
                    "duration": 0.34375
                },
                {
                    "name": "C#5",
                    "midi": 73,
                    "time": 88.09166666666647,
                    "velocity": 0.6141732283464567,
                    "duration": 0.23125000000000284
                },
                {
                    "name": "B4",
                    "midi": 71,
                    "time": 88.23333333333314,
                    "velocity": 0.5039370078740157,
                    "duration": 0.1604166666666771
                },
                {
                    "name": "D5",
                    "midi": 74,
                    "time": 88.39583333333314,
                    "velocity": 0.6614173228346457,
                    "duration": 0.22291666666666288
                },
                {
                    "name": "E3",
                    "midi": 52,
                    "time": 88.3999999999998,
                    "velocity": 0.31496062992125984,
                    "duration": 0.6124999999999972
                },
                {
                    "name": "G#4",
                    "midi": 68,
                    "time": 88.41041666666648,
                    "velocity": 0.6220472440944882,
                    "duration": 0.40625
                },
                {
                    "name": "D5",
                    "midi": 74,
                    "time": 88.71041666666648,
                    "velocity": 0.7322834645669292,
                    "duration": 0.15833333333333144
                },
                {
                    "name": "B3",
                    "midi": 59,
                    "time": 88.7124999999998,
                    "velocity": 0.3543307086614173,
                    "duration": 0.22083333333333144
                },
                {
                    "name": "B2",
                    "midi": 47,
                    "time": 88.96666666666647,
                    "velocity": 0.3779527559055118,
                    "duration": 0.4375
                },
                {
                    "name": "A4",
                    "midi": 69,
                    "time": 88.98333333333314,
                    "velocity": 0.6377952755905512,
                    "duration": 0.3333333333333428
                },
                {
                    "name": "B4",
                    "midi": 71,
                    "time": 89.1062499999998,
                    "velocity": 0.5590551181102362,
                    "duration": 0.11041666666666572
                },
                {
                    "name": "C#5",
                    "midi": 73,
                    "time": 89.19791666666647,
                    "velocity": 0.7480314960629921,
                    "duration": 0.17291666666666572
                },
                {
                    "name": "B3",
                    "midi": 59,
                    "time": 89.22916666666647,
                    "velocity": 0.4015748031496063,
                    "duration": 0.21666666666666856
                },
                {
                    "name": "B4",
                    "midi": 71,
                    "time": 89.30208333333314,
                    "velocity": 0.6377952755905512,
                    "duration": 0.10416666666665719
                },
                {
                    "name": "D5",
                    "midi": 74,
                    "time": 89.41041666666646,
                    "velocity": 0.5118110236220472,
                    "duration": 0.15625000000002842
                },
                {
                    "name": "G#4",
                    "midi": 68,
                    "time": 89.44791666666647,
                    "velocity": 0.6377952755905512,
                    "duration": 0.13750000000001705
                },
                {
                    "name": "E3",
                    "midi": 52,
                    "time": 89.45624999999981,
                    "velocity": 0.4094488188976378,
                    "duration": 0.2791666666666828
                },
                {
                    "name": "E5",
                    "midi": 76,
                    "time": 89.59166666666648,
                    "velocity": 0.5275590551181102,
                    "duration": 0.11875000000000568
                },
                {
                    "name": "D5",
                    "midi": 74,
                    "time": 89.69583333333316,
                    "velocity": 0.44881889763779526,
                    "duration": 0.1250000000000142
                },
                {
                    "name": "B3",
                    "midi": 59,
                    "time": 89.72708333333316,
                    "velocity": 0.30708661417322836,
                    "duration": 0.23750000000002558
                },
                {
                    "name": "C#5",
                    "midi": 73,
                    "time": 89.80833333333317,
                    "velocity": 0.5984251968503937,
                    "duration": 0.12291666666666856
                },
                {
                    "name": "G4",
                    "midi": 67,
                    "time": 89.94374999999984,
                    "velocity": 0.4645669291338583,
                    "duration": 0.28958333333333997
                },
                {
                    "name": "B2",
                    "midi": 47,
                    "time": 89.95208333333318,
                    "velocity": 0.4015748031496063,
                    "duration": 0.47708333333333997
                },
                {
                    "name": "B4",
                    "midi": 71,
                    "time": 90.06249999999984,
                    "velocity": 0.5826771653543307,
                    "duration": 0.125
                },
                {
                    "name": "C#5",
                    "midi": 73,
                    "time": 90.17083333333318,
                    "velocity": 0.6929133858267716,
                    "duration": 0.16458333333333997
                },
                {
                    "name": "B3",
                    "midi": 59,
                    "time": 90.18124999999985,
                    "velocity": 0.25984251968503935,
                    "duration": 0.2645833333333343
                },
                {
                    "name": "B4",
                    "midi": 71,
                    "time": 90.27708333333318,
                    "velocity": 0.5275590551181102,
                    "duration": 0.13125000000000853
                },
                {
                    "name": "D5",
                    "midi": 74,
                    "time": 90.4020833333332,
                    "velocity": 0.7007874015748031,
                    "duration": 0.19999999999997442
                },
                {
                    "name": "F#3",
                    "midi": 54,
                    "time": 90.40624999999986,
                    "velocity": 0.44881889763779526,
                    "duration": 0.587499999999963
                },
                {
                    "name": "A4",
                    "midi": 69,
                    "time": 90.41249999999985,
                    "velocity": 0.4645669291338583,
                    "duration": 0.3708333333333087
                },
                {
                    "name": "D5",
                    "midi": 74,
                    "time": 90.6979166666665,
                    "velocity": 0.7874015748031497,
                    "duration": 0.08958333333332291
                },
                {
                    "name": "B3",
                    "midi": 59,
                    "time": 90.71458333333317,
                    "velocity": 0.25196850393700787,
                    "duration": 0.1354166666666572
                },
                {
                    "name": "D5",
                    "midi": 74,
                    "time": 91.05833333333315,
                    "velocity": 0.5984251968503937,
                    "duration": 0.9020833333333371
                },
                {
                    "name": "E3",
                    "midi": 52,
                    "time": 91.05833333333315,
                    "velocity": 0.25196850393700787,
                    "duration": 0.5270833333333371
                },
                {
                    "name": "G#4",
                    "midi": 68,
                    "time": 91.06458333333315,
                    "velocity": 0.5511811023622047,
                    "duration": 0.3812500000000085
                },
                {
                    "name": "B3",
                    "midi": 59,
                    "time": 91.07291666666649,
                    "velocity": 0.14960629921259844,
                    "duration": 0.9312500000000057
                },
                {
                    "name": "F#4",
                    "midi": 66,
                    "time": 91.47499999999982,
                    "velocity": 0.5984251968503937,
                    "duration": 0.39791666666666003
                },
                {
                    "name": "D3",
                    "midi": 50,
                    "time": 91.52083333333316,
                    "velocity": 0.2440944881889764,
                    "duration": 0.19374999999999432
                },
                {
                    "name": "E4",
                    "midi": 64,
                    "time": 91.81249999999982,
                    "velocity": 0.6377952755905512,
                    "duration": 0.23125000000001705
                },
                {
                    "name": "C#3",
                    "midi": 49,
                    "time": 91.83958333333315,
                    "velocity": 0.47244094488188976,
                    "duration": 0.3833333333333542
                },
                {
                    "name": "B2",
                    "midi": 47,
                    "time": 92.1979166666665,
                    "velocity": 0.4566929133858268,
                    "duration": 0.07500000000000284
                },
                {
                    "name": "D4",
                    "midi": 62,
                    "time": 92.20624999999984,
                    "velocity": 0.6929133858267716,
                    "duration": 0.09583333333333144
                },
                {
                    "name": "E2",
                    "midi": 40,
                    "time": 92.63124999999984,
                    "velocity": 0.3543307086614173,
                    "duration": 4.0874999999999915
                },
                {
                    "name": "C3",
                    "midi": 48,
                    "time": 92.72708333333317,
                    "velocity": 0.33858267716535434,
                    "duration": 4.125
                },
                {
                    "name": "C4",
                    "midi": 60,
                    "time": 92.80624999999984,
                    "velocity": 0.7637795275590551,
                    "duration": 0.5562499999999915
                },
                {
                    "name": "G3",
                    "midi": 55,
                    "time": 92.8166666666665,
                    "velocity": 0.47244094488188976,
                    "duration": 0.46041666666666003
                },
                {
                    "name": "E4",
                    "midi": 64,
                    "time": 93.5916666666665,
                    "velocity": 0.3464566929133858,
                    "duration": 0.27916666666666856
                },
                {
                    "name": "F#4",
                    "midi": 66,
                    "time": 93.87083333333317,
                    "velocity": 0.4566929133858268,
                    "duration": 0.19583333333333997
                },
                {
                    "name": "E4",
                    "midi": 64,
                    "time": 94.07916666666651,
                    "velocity": 0.4251968503937008,
                    "duration": 0.21458333333333712
                },
                {
                    "name": "G4",
                    "midi": 67,
                    "time": 94.26874999999984,
                    "velocity": 0.5590551181102362,
                    "duration": 0.24791666666666856
                },
                {
                    "name": "G4",
                    "midi": 67,
                    "time": 94.60624999999985,
                    "velocity": 0.7322834645669292,
                    "duration": 0.23541666666666572
                },
                {
                    "name": "A4",
                    "midi": 69,
                    "time": 94.77708333333318,
                    "velocity": 0.5984251968503937,
                    "duration": 0.23124999999998863
                },
                {
                    "name": "A#4",
                    "midi": 70,
                    "time": 94.98958333333317,
                    "velocity": 0.5984251968503937,
                    "duration": 0.23749999999999716
                },
                {
                    "name": "A4",
                    "midi": 69,
                    "time": 95.1854166666665,
                    "velocity": 0.3858267716535433,
                    "duration": 0.27916666666666856
                },
                {
                    "name": "G4",
                    "midi": 67,
                    "time": 95.4229166666665,
                    "velocity": 0.3858267716535433,
                    "duration": 0.3604166666666657
                },
                {
                    "name": "G4",
                    "midi": 67,
                    "time": 95.98333333333316,
                    "velocity": 0.2204724409448819,
                    "duration": 1.69374999999998
                },
                {
                    "name": "C4",
                    "midi": 60,
                    "time": 96.67708333333316,
                    "velocity": 0.28346456692913385,
                    "duration": 0.37291666666666856
                },
                {
                    "name": "C#4",
                    "midi": 61,
                    "time": 96.98958333333317,
                    "velocity": 0.36220472440944884,
                    "duration": 0.23958333333331439
                },
                {
                    "name": "E2",
                    "midi": 40,
                    "time": 97.02499999999984,
                    "velocity": 0.3464566929133858,
                    "duration": 0.17083333333332007
                },
                {
                    "name": "B2",
                    "midi": 47,
                    "time": 97.27291666666649,
                    "velocity": 0.25196850393700787,
                    "duration": 4.747916666666654
                },
                {
                    "name": "G#3",
                    "midi": 56,
                    "time": 97.51041666666649,
                    "velocity": 0.3779527559055118,
                    "duration": 4.42916666666666
                },
                {
                    "name": "D4",
                    "midi": 62,
                    "time": 97.53124999999982,
                    "velocity": 0.5748031496062992,
                    "duration": 4.793749999999989
                },
                {
                    "name": "E4",
                    "midi": 64,
                    "time": 98.21666666666648,
                    "velocity": 0.28346456692913385,
                    "duration": 0.3291666666666657
                },
                {
                    "name": "F#4",
                    "midi": 66,
                    "time": 98.52708333333315,
                    "velocity": 0.5433070866141733,
                    "duration": 0.25208333333333144
                },
                {
                    "name": "E4",
                    "midi": 64,
                    "time": 98.73124999999982,
                    "velocity": 0.6062992125984252,
                    "duration": 0.1979166666666714
                },
                {
                    "name": "G#4",
                    "midi": 68,
                    "time": 98.92083333333315,
                    "velocity": 0.6535433070866141,
                    "duration": 0.32500000000000284
                },
                {
                    "name": "G#4",
                    "midi": 68,
                    "time": 99.32083333333316,
                    "velocity": 0.5984251968503937,
                    "duration": 0.26874999999999716
                },
                {
                    "name": "A4",
                    "midi": 69,
                    "time": 99.52291666666649,
                    "velocity": 0.5354330708661418,
                    "duration": 0.3062500000000057
                },
                {
                    "name": "B4",
                    "midi": 71,
                    "time": 99.81874999999982,
                    "velocity": 0.28346456692913385,
                    "duration": 0.39791666666666003
                },
                {
                    "name": "A4",
                    "midi": 69,
                    "time": 100.16458333333316,
                    "velocity": 0.36220472440944884,
                    "duration": 0.3687499999999915
                },
                {
                    "name": "G#4",
                    "midi": 68,
                    "time": 100.46874999999982,
                    "velocity": 0.3779527559055118,
                    "duration": 0.4833333333333343
                },
                {
                    "name": "G#4",
                    "midi": 68,
                    "time": 101.26874999999981,
                    "velocity": 0.29133858267716534,
                    "duration": 1.1041666666666572
                },
                {
                    "name": "E2",
                    "midi": 40,
                    "time": 103.3374999999998,
                    "velocity": 0.6062992125984252,
                    "duration": 1.6041666666666288
                },
                {
                    "name": "E1",
                    "midi": 28,
                    "time": 103.36041666666647,
                    "velocity": 0.41732283464566927,
                    "duration": 1.6020833333332973
                },
                {
                    "name": "B3",
                    "midi": 59,
                    "time": 103.64999999999979,
                    "velocity": 0.6771653543307087,
                    "duration": 0.10833333333333428
                },
                {
                    "name": "G#3",
                    "midi": 56,
                    "time": 103.6624999999998,
                    "velocity": 0.6377952755905512,
                    "duration": 0.09166666666666856
                },
                {
                    "name": "F#3",
                    "midi": 54,
                    "time": 103.72708333333313,
                    "velocity": 0.3228346456692913,
                    "duration": 0.08125000000001137
                },
                {
                    "name": "E3",
                    "midi": 52,
                    "time": 103.7999999999998,
                    "velocity": 0.6220472440944882,
                    "duration": 0.07708333333333428
                },
                {
                    "name": "D4",
                    "midi": 62,
                    "time": 103.93333333333312,
                    "velocity": 0.6771653543307087,
                    "duration": 0.09583333333333144
                },
                {
                    "name": "B3",
                    "midi": 59,
                    "time": 103.94791666666646,
                    "velocity": 0.6062992125984252,
                    "duration": 0.07708333333333428
                },
                {
                    "name": "A3",
                    "midi": 57,
                    "time": 104.07499999999979,
                    "velocity": 0.4094488188976378,
                    "duration": 0.056250000000005684
                },
                {
                    "name": "G#3",
                    "midi": 56,
                    "time": 104.17916666666646,
                    "velocity": 0.6220472440944882,
                    "duration": 0.07083333333333997
                },
                {
                    "name": "D4",
                    "midi": 62,
                    "time": 104.3187499999998,
                    "velocity": 0.7401574803149606,
                    "duration": 0.08749999999999147
                },
                {
                    "name": "E4",
                    "midi": 64,
                    "time": 104.33958333333312,
                    "velocity": 0.49606299212598426,
                    "duration": 0.08541666666666003
                },
                {
                    "name": "C#4",
                    "midi": 61,
                    "time": 104.42916666666645,
                    "velocity": 0.6771653543307087,
                    "duration": 0.06666666666666288
                },
                {
                    "name": "B3",
                    "midi": 59,
                    "time": 104.52916666666644,
                    "velocity": 0.4330708661417323,
                    "duration": 0.054166666666660035
                },
                {
                    "name": "G#4",
                    "midi": 68,
                    "time": 104.66041666666642,
                    "velocity": 0.7244094488188977,
                    "duration": 0.13958333333333428
                },
                {
                    "name": "F4",
                    "midi": 65,
                    "time": 104.67083333333309,
                    "velocity": 0.6062992125984252,
                    "duration": 0.14374999999999716
                },
                {
                    "name": "E4",
                    "midi": 64,
                    "time": 104.79999999999976,
                    "velocity": 0.6377952755905512,
                    "duration": 0.07500000000000284
                },
                {
                    "name": "D#4",
                    "midi": 63,
                    "time": 104.9145833333331,
                    "velocity": 0.6929133858267716,
                    "duration": 0.08958333333333712
                },
                {
                    "name": "D4",
                    "midi": 62,
                    "time": 105.02291666666643,
                    "velocity": 0.6929133858267716,
                    "duration": 0.04791666666666572
                },
                {
                    "name": "E5",
                    "midi": 76,
                    "time": 105.14791666666643,
                    "velocity": 0.889763779527559,
                    "duration": 0.05833333333333712
                },
                {
                    "name": "B4",
                    "midi": 71,
                    "time": 105.14791666666643,
                    "velocity": 0.8818897637795275,
                    "duration": 0.04999999999999716
                },
                {
                    "name": "E2",
                    "midi": 40,
                    "time": 105.40208333333311,
                    "velocity": 0.9212598425196851,
                    "duration": 1.4499999999999744
                },
                {
                    "name": "E1",
                    "midi": 28,
                    "time": 105.40416666666644,
                    "velocity": 0.9448818897637795,
                    "duration": 1.4645833333333087
                },
                {
                    "name": "A3",
                    "midi": 57,
                    "time": 105.64791666666645,
                    "velocity": 0.7244094488188977,
                    "duration": 0.07916666666665151
                },
                {
                    "name": "C4",
                    "midi": 60,
                    "time": 105.65208333333311,
                    "velocity": 0.7086614173228346,
                    "duration": 0.08541666666666003
                },
                {
                    "name": "G3",
                    "midi": 55,
                    "time": 105.70624999999977,
                    "velocity": 0.7086614173228346,
                    "duration": 0.125
                },
                {
                    "name": "F3",
                    "midi": 53,
                    "time": 105.78541666666644,
                    "velocity": 0.6929133858267716,
                    "duration": 0.07916666666666572
                },
                {
                    "name": "D#4",
                    "midi": 63,
                    "time": 105.90416666666644,
                    "velocity": 0.7401574803149606,
                    "duration": 0.16041666666664867
                },
                {
                    "name": "C4",
                    "midi": 60,
                    "time": 105.9208333333331,
                    "velocity": 0.5275590551181102,
                    "duration": 0.12083333333332291
                },
                {
                    "name": "B3",
                    "midi": 59,
                    "time": 105.92291666666644,
                    "velocity": 0.5118110236220472,
                    "duration": 0.08124999999999716
                },
                {
                    "name": "A#3",
                    "midi": 58,
                    "time": 106.04791666666642,
                    "velocity": 0.6850393700787402,
                    "duration": 0.09375
                },
                {
                    "name": "A3",
                    "midi": 57,
                    "time": 106.13333333333308,
                    "velocity": 0.5354330708661418,
                    "duration": 0.08541666666667425
                },
                {
                    "name": "D#4",
                    "midi": 63,
                    "time": 106.25208333333309,
                    "velocity": 0.8661417322834646,
                    "duration": 0.15208333333333712
                },
                {
                    "name": "F4",
                    "midi": 65,
                    "time": 106.25208333333309,
                    "velocity": 0.7874015748031497,
                    "duration": 0.1666666666666714
                },
                {
                    "name": "D4",
                    "midi": 62,
                    "time": 106.37291666666643,
                    "velocity": 0.6456692913385826,
                    "duration": 0.08958333333332291
                },
                {
                    "name": "C4",
                    "midi": 60,
                    "time": 106.43958333333309,
                    "velocity": 0.6062992125984252,
                    "duration": 0.07291666666665719
                },
                {
                    "name": "F#4",
                    "midi": 66,
                    "time": 106.58541666666642,
                    "velocity": 0.8976377952755905,
                    "duration": 0.13749999999998863
                },
                {
                    "name": "A4",
                    "midi": 69,
                    "time": 106.58749999999975,
                    "velocity": 0.7952755905511811,
                    "duration": 0.13124999999999432
                },
                {
                    "name": "F4",
                    "midi": 65,
                    "time": 106.71249999999975,
                    "velocity": 0.7716535433070866,
                    "duration": 0.0833333333333286
                },
                {
                    "name": "E4",
                    "midi": 64,
                    "time": 106.83749999999975,
                    "velocity": 0.6929133858267716,
                    "duration": 0.11041666666666572
                },
                {
                    "name": "D#4",
                    "midi": 63,
                    "time": 106.94166666666642,
                    "velocity": 0.6929133858267716,
                    "duration": 0.06041666666665435
                },
                {
                    "name": "C5",
                    "midi": 72,
                    "time": 107.12083333333308,
                    "velocity": 0.8503937007874016,
                    "duration": 0.037499999999994316
                },
                {
                    "name": "F5",
                    "midi": 77,
                    "time": 107.12291666666641,
                    "velocity": 0.8740157480314961,
                    "duration": 0.05833333333332291
                },
                {
                    "name": "E2",
                    "midi": 40,
                    "time": 107.38958333333306,
                    "velocity": 0.9448818897637795,
                    "duration": 1.4958333333333371
                },
                {
                    "name": "E1",
                    "midi": 28,
                    "time": 107.39374999999973,
                    "velocity": 0.9291338582677166,
                    "duration": 1.4666666666666686
                },
                {
                    "name": "B3",
                    "midi": 59,
                    "time": 107.65833333333308,
                    "velocity": 0.7716535433070866,
                    "duration": 0.08541666666667425
                },
                {
                    "name": "D4",
                    "midi": 62,
                    "time": 107.66666666666642,
                    "velocity": 0.6850393700787402,
                    "duration": 0.07708333333333428
                },
                {
                    "name": "G#3",
                    "midi": 56,
                    "time": 107.72916666666642,
                    "velocity": 0.5748031496062992,
                    "duration": 0.037499999999994316
                },
                {
                    "name": "A3",
                    "midi": 57,
                    "time": 107.73124999999975,
                    "velocity": 0.6614173228346457,
                    "duration": 0.1145833333333286
                },
                {
                    "name": "G#3",
                    "midi": 56,
                    "time": 107.8166666666664,
                    "velocity": 0.6929133858267716,
                    "duration": 0.07083333333333997
                },
                {
                    "name": "D4",
                    "midi": 62,
                    "time": 107.95208333333308,
                    "velocity": 0.889763779527559,
                    "duration": 0.11875000000000568
                },
                {
                    "name": "F4",
                    "midi": 65,
                    "time": 107.95208333333308,
                    "velocity": 0.84251968503937,
                    "duration": 0.11458333333334281
                },
                {
                    "name": "C#4",
                    "midi": 61,
                    "time": 108.07083333333308,
                    "velocity": 0.8110236220472441,
                    "duration": 0.1041666666666714
                },
                {
                    "name": "B3",
                    "midi": 59,
                    "time": 108.18958333333309,
                    "velocity": 0.6929133858267716,
                    "duration": 0.08124999999999716
                },
                {
                    "name": "G#4",
                    "midi": 68,
                    "time": 108.33541666666642,
                    "velocity": 0.7795275590551181,
                    "duration": 0.1520833333333087
                },
                {
                    "name": "F4",
                    "midi": 65,
                    "time": 108.34166666666641,
                    "velocity": 0.6614173228346457,
                    "duration": 0.17916666666664582
                },
                {
                    "name": "F#4",
                    "midi": 66,
                    "time": 108.35208333333307,
                    "velocity": 0.6299212598425197,
                    "duration": 0.08958333333333712
                },
                {
                    "name": "E4",
                    "midi": 64,
                    "time": 108.46458333333307,
                    "velocity": 0.6377952755905512,
                    "duration": 0.1145833333333286
                },
                {
                    "name": "D4",
                    "midi": 62,
                    "time": 108.55208333333306,
                    "velocity": 0.6771653543307087,
                    "duration": 0.08750000000000568
                },
                {
                    "name": "G#4",
                    "midi": 68,
                    "time": 108.70208333333306,
                    "velocity": 0.8582677165354331,
                    "duration": 0.14374999999999716
                },
                {
                    "name": "B4",
                    "midi": 71,
                    "time": 108.7041666666664,
                    "velocity": 0.7795275590551181,
                    "duration": 0.11874999999999147
                },
                {
                    "name": "G4",
                    "midi": 67,
                    "time": 108.83124999999973,
                    "velocity": 0.7795275590551181,
                    "duration": 0.08125000000001137
                },
                {
                    "name": "F#4",
                    "midi": 66,
                    "time": 108.9604166666664,
                    "velocity": 0.8188976377952756,
                    "duration": 0.12291666666666856
                },
                {
                    "name": "F4",
                    "midi": 65,
                    "time": 109.06874999999974,
                    "velocity": 0.7007874015748031,
                    "duration": 0.08958333333333712
                },
                {
                    "name": "G5",
                    "midi": 79,
                    "time": 109.26874999999974,
                    "velocity": 0.9606299212598425,
                    "duration": 0.10208333333333997
                },
                {
                    "name": "D5",
                    "midi": 74,
                    "time": 109.2729166666664,
                    "velocity": 0.9291338582677166,
                    "duration": 0.07083333333333997
                },
                {
                    "name": "E1",
                    "midi": 28,
                    "time": 109.62499999999974,
                    "velocity": 0.889763779527559,
                    "duration": 0.09166666666666856
                },
                {
                    "name": "E2",
                    "midi": 40,
                    "time": 109.62708333333308,
                    "velocity": 0.9763779527559056,
                    "duration": 0.12708333333333144
                },
                {
                    "name": "E5",
                    "midi": 76,
                    "time": 110.15208333333307,
                    "velocity": 0.8031496062992126,
                    "duration": 0.06874999999999432
                },
                {
                    "name": "B4",
                    "midi": 71,
                    "time": 110.15624999999973,
                    "velocity": 0.7716535433070866,
                    "duration": 0.03541666666666288
                },
                {
                    "name": "D4",
                    "midi": 62,
                    "time": 110.15624999999973,
                    "velocity": 0.5984251968503937,
                    "duration": 0.1562500000000142
                },
                {
                    "name": "G#4",
                    "midi": 68,
                    "time": 110.15833333333306,
                    "velocity": 0.6220472440944882,
                    "duration": 0.037499999999994316
                },
                {
                    "name": "G#4",
                    "midi": 68,
                    "time": 110.24583333333307,
                    "velocity": 0.7637795275590551,
                    "duration": 0.05833333333333712
                },
                {
                    "name": "B4",
                    "midi": 71,
                    "time": 110.2604166666664,
                    "velocity": 0.4645669291338583,
                    "duration": 0.054166666666674246
                },
                {
                    "name": "G#4",
                    "midi": 68,
                    "time": 110.35416666666642,
                    "velocity": 0.7244094488188977,
                    "duration": 0.05833333333333712
                },
                {
                    "name": "D4",
                    "midi": 62,
                    "time": 110.35833333333308,
                    "velocity": 0.6929133858267716,
                    "duration": 0.056250000000005684
                },
                {
                    "name": "B4",
                    "midi": 71,
                    "time": 110.37708333333308,
                    "velocity": 0.3937007874015748,
                    "duration": 0.04791666666667993
                },
                {
                    "name": "E5",
                    "midi": 76,
                    "time": 110.38541666666642,
                    "velocity": 0.5354330708661418,
                    "duration": 0.13750000000000284
                },
                {
                    "name": "G#4",
                    "midi": 68,
                    "time": 110.45624999999976,
                    "velocity": 0.8267716535433071,
                    "duration": 0.056249999999991473
                },
                {
                    "name": "B4",
                    "midi": 71,
                    "time": 110.45833333333309,
                    "velocity": 0.5669291338582677,
                    "duration": 0.06458333333333144
                },
                {
                    "name": "D4",
                    "midi": 62,
                    "time": 110.46041666666642,
                    "velocity": 0.6771653543307087,
                    "duration": 0.052083333333328596
                },
                {
                    "name": "G#4",
                    "midi": 68,
                    "time": 110.56666666666642,
                    "velocity": 0.7401574803149606,
                    "duration": 0.05833333333333712
                },
                {
                    "name": "D4",
                    "midi": 62,
                    "time": 110.57083333333308,
                    "velocity": 0.6614173228346457,
                    "duration": 0.04375000000000284
                },
                {
                    "name": "B4",
                    "midi": 71,
                    "time": 110.57916666666642,
                    "velocity": 0.6929133858267716,
                    "duration": 0.054166666666674246
                },
                {
                    "name": "E5",
                    "midi": 76,
                    "time": 110.59374999999976,
                    "velocity": 0.5354330708661418,
                    "duration": 0.14791666666667425
                },
                {
                    "name": "G#4",
                    "midi": 68,
                    "time": 110.67083333333309,
                    "velocity": 0.7716535433070866,
                    "duration": 0.05833333333333712
                },
                {
                    "name": "D4",
                    "midi": 62,
                    "time": 110.67708333333309,
                    "velocity": 0.6377952755905512,
                    "duration": 0.04375000000000284
                },
                {
                    "name": "B4",
                    "midi": 71,
                    "time": 110.67708333333309,
                    "velocity": 0.7559055118110236,
                    "duration": 0.06250000000001421
                },
                {
                    "name": "G#4",
                    "midi": 68,
                    "time": 110.78541666666644,
                    "velocity": 0.7795275590551181,
                    "duration": 0.05833333333332291
                },
                {
                    "name": "D4",
                    "midi": 62,
                    "time": 110.78749999999977,
                    "velocity": 0.6456692913385826,
                    "duration": 0.04999999999999716
                },
                {
                    "name": "B4",
                    "midi": 71,
                    "time": 110.79166666666643,
                    "velocity": 0.8110236220472441,
                    "duration": 0.06666666666666288
                },
                {
                    "name": "E5",
                    "midi": 76,
                    "time": 110.81249999999976,
                    "velocity": 0.5590551181102362,
                    "duration": 0.052083333333328596
                },
                {
                    "name": "G#4",
                    "midi": 68,
                    "time": 110.89791666666642,
                    "velocity": 0.7480314960629921,
                    "duration": 0.06041666666666856
                },
                {
                    "name": "D4",
                    "midi": 62,
                    "time": 110.90208333333308,
                    "velocity": 0.6456692913385826,
                    "duration": 0.04583333333333428
                },
                {
                    "name": "B4",
                    "midi": 71,
                    "time": 110.90624999999974,
                    "velocity": 0.7322834645669292,
                    "duration": 0.06250000000001421
                },
                {
                    "name": "E5",
                    "midi": 76,
                    "time": 110.92291666666641,
                    "velocity": 0.41732283464566927,
                    "duration": 0.04583333333334849
                },
                {
                    "name": "G#4",
                    "midi": 68,
                    "time": 111.00416666666642,
                    "velocity": 0.7952755905511811,
                    "duration": 0.07083333333332575
                },
                {
                    "name": "D4",
                    "midi": 62,
                    "time": 111.01041666666642,
                    "velocity": 0.6614173228346457,
                    "duration": 0.056250000000005684
                },
                {
                    "name": "B4",
                    "midi": 71,
                    "time": 111.01249999999975,
                    "velocity": 0.8188976377952756,
                    "duration": 0.06458333333333144
                },
                {
                    "name": "E5",
                    "midi": 76,
                    "time": 111.02499999999975,
                    "velocity": 0.4645669291338583,
                    "duration": 0.04583333333333428
                },
                {
                    "name": "G#4",
                    "midi": 68,
                    "time": 111.12708333333308,
                    "velocity": 0.8267716535433071,
                    "duration": 0.31458333333333144
                },
                {
                    "name": "D4",
                    "midi": 62,
                    "time": 111.13124999999974,
                    "velocity": 0.7086614173228346,
                    "duration": 0.1666666666666714
                },
                {
                    "name": "B4",
                    "midi": 71,
                    "time": 111.13958333333308,
                    "velocity": 0.9212598425196851,
                    "duration": 0.15625
                },
                {
                    "name": "E5",
                    "midi": 76,
                    "time": 111.14374999999974,
                    "velocity": 0.8582677165354331,
                    "duration": 0.17499999999999716
                },
                {
                    "name": "G4",
                    "midi": 67,
                    "time": 111.39166666666641,
                    "velocity": 0.8031496062992126,
                    "duration": 0.34791666666664867
                },
                {
                    "name": "A#4",
                    "midi": 70,
                    "time": 111.3979166666664,
                    "velocity": 0.937007874015748,
                    "duration": 0.23749999999999716
                },
                {
                    "name": "F5",
                    "midi": 77,
                    "time": 111.39999999999974,
                    "velocity": 0.8582677165354331,
                    "duration": 0.2291666666666714
                },
                {
                    "name": "C#4",
                    "midi": 61,
                    "time": 111.4104166666664,
                    "velocity": 0.8661417322834646,
                    "duration": 0.21458333333333712
                },
                {
                    "name": "A4",
                    "midi": 69,
                    "time": 111.68333333333307,
                    "velocity": 0.7952755905511811,
                    "duration": 0.16041666666666288
                },
                {
                    "name": "D5",
                    "midi": 74,
                    "time": 111.68958333333306,
                    "velocity": 0.8188976377952756,
                    "duration": 0.19375000000000853
                },
                {
                    "name": "F#4",
                    "midi": 66,
                    "time": 111.69374999999972,
                    "velocity": 0.8503937007874016,
                    "duration": 0.17500000000001137
                },
                {
                    "name": "C4",
                    "midi": 60,
                    "time": 111.70833333333306,
                    "velocity": 0.6614173228346457,
                    "duration": 0.10833333333333428
                },
                {
                    "name": "F4",
                    "midi": 65,
                    "time": 111.92499999999974,
                    "velocity": 0.7322834645669292,
                    "duration": 0.08541666666666003
                },
                {
                    "name": "B3",
                    "midi": 59,
                    "time": 111.9291666666664,
                    "velocity": 0.7165354330708661,
                    "duration": 0.06041666666666856
                },
                {
                    "name": "G#4",
                    "midi": 68,
                    "time": 111.9291666666664,
                    "velocity": 0.8503937007874016,
                    "duration": 0.08541666666666003
                },
                {
                    "name": "E5",
                    "midi": 76,
                    "time": 111.93958333333308,
                    "velocity": 0.7322834645669292,
                    "duration": 0.07291666666665719
                },
                {
                    "name": "E4",
                    "midi": 64,
                    "time": 112.05208333333306,
                    "velocity": 0.8818897637795275,
                    "duration": 0.06041666666666856
                },
                {
                    "name": "C5",
                    "midi": 72,
                    "time": 112.05833333333305,
                    "velocity": 0.8582677165354331,
                    "duration": 0.38333333333333997
                },
                {
                    "name": "A#3",
                    "midi": 58,
                    "time": 112.06041666666638,
                    "velocity": 0.8661417322834646,
                    "duration": 0.08125000000001137
                },
                {
                    "name": "G4",
                    "midi": 67,
                    "time": 112.06458333333305,
                    "velocity": 0.7716535433070866,
                    "duration": 0.36250000000001137
                },
                {
                    "name": "E1",
                    "midi": 28,
                    "time": 112.47083333333306,
                    "velocity": 0.84251968503937,
                    "duration": 0.06458333333333144
                },
                {
                    "name": "E2",
                    "midi": 40,
                    "time": 112.47499999999972,
                    "velocity": 0.8110236220472441,
                    "duration": 0.09166666666666856
                },
                {
                    "name": "D#4",
                    "midi": 63,
                    "time": 112.85624999999973,
                    "velocity": 0.8267716535433071,
                    "duration": 0.0625
                },
                {
                    "name": "B4",
                    "midi": 71,
                    "time": 112.87708333333306,
                    "velocity": 0.8503937007874016,
                    "duration": 0.2354166666666515
                },
                {
                    "name": "A3",
                    "midi": 57,
                    "time": 112.87708333333306,
                    "velocity": 0.3858267716535433,
                    "duration": 0.056250000000005684
                },
                {
                    "name": "A3",
                    "midi": 57,
                    "time": 112.96874999999973,
                    "velocity": 0.6692913385826772,
                    "duration": 0.07708333333332007
                },
                {
                    "name": "D#4",
                    "midi": 63,
                    "time": 112.96874999999973,
                    "velocity": 0.8188976377952756,
                    "duration": 0.06041666666665435
                },
                {
                    "name": "F#4",
                    "midi": 66,
                    "time": 112.99166666666639,
                    "velocity": 0.41732283464566927,
                    "duration": 0.1354166666666572
                },
                {
                    "name": "D#4",
                    "midi": 63,
                    "time": 113.09999999999971,
                    "velocity": 0.7874015748031497,
                    "duration": 0.04375000000000284
                },
                {
                    "name": "A3",
                    "midi": 57,
                    "time": 113.09999999999971,
                    "velocity": 0.5354330708661418,
                    "duration": 0.054166666666674246
                },
                {
                    "name": "F#4",
                    "midi": 66,
                    "time": 113.17499999999971,
                    "velocity": 0.8188976377952756,
                    "duration": 0.07083333333333997
                },
                {
                    "name": "B4",
                    "midi": 71,
                    "time": 113.18333333333305,
                    "velocity": 0.6692913385826772,
                    "duration": 0.17083333333332007
                },
                {
                    "name": "D#4",
                    "midi": 63,
                    "time": 113.19166666666639,
                    "velocity": 0.84251968503937,
                    "duration": 0.052083333333328596
                },
                {
                    "name": "A3",
                    "midi": 57,
                    "time": 113.19166666666639,
                    "velocity": 0.5039370078740157,
                    "duration": 0.06041666666665435
                },
                {
                    "name": "F#4",
                    "midi": 66,
                    "time": 113.28958333333304,
                    "velocity": 0.84251968503937,
                    "duration": 0.06041666666666856
                },
                {
                    "name": "A3",
                    "midi": 57,
                    "time": 113.30208333333304,
                    "velocity": 0.6535433070866141,
                    "duration": 0.04791666666666572
                },
                {
                    "name": "D#4",
                    "midi": 63,
                    "time": 113.30416666666638,
                    "velocity": 0.7244094488188977,
                    "duration": 0.04583333333333428
                },
                {
                    "name": "F#4",
                    "midi": 66,
                    "time": 113.39999999999971,
                    "velocity": 0.84251968503937,
                    "duration": 0.06458333333331723
                },
                {
                    "name": "D#4",
                    "midi": 63,
                    "time": 113.40416666666637,
                    "velocity": 0.7795275590551181,
                    "duration": 0.054166666666660035
                },
                {
                    "name": "B4",
                    "midi": 71,
                    "time": 113.40833333333303,
                    "velocity": 0.6614173228346457,
                    "duration": 0.04999999999999716
                },
                {
                    "name": "A3",
                    "midi": 57,
                    "time": 113.40833333333303,
                    "velocity": 0.5196850393700787,
                    "duration": 0.04791666666666572
                },
                {
                    "name": "A3",
                    "midi": 57,
                    "time": 113.51041666666636,
                    "velocity": 0.5118110236220472,
                    "duration": 0.06041666666666856
                },
                {
                    "name": "D#4",
                    "midi": 63,
                    "time": 113.51041666666636,
                    "velocity": 0.7480314960629921,
                    "duration": 0.0625
                },
                {
                    "name": "F#4",
                    "midi": 66,
                    "time": 113.51249999999969,
                    "velocity": 0.8346456692913385,
                    "duration": 0.06666666666666288
                },
                {
                    "name": "B4",
                    "midi": 71,
                    "time": 113.5249999999997,
                    "velocity": 0.5748031496062992,
                    "duration": 0.04999999999999716
                },
                {
                    "name": "D#4",
                    "midi": 63,
                    "time": 113.62291666666636,
                    "velocity": 0.7637795275590551,
                    "duration": 0.06874999999999432
                },
                {
                    "name": "F#4",
                    "midi": 66,
                    "time": 113.62708333333302,
                    "velocity": 0.8188976377952756,
                    "duration": 0.06666666666666288
                },
                {
                    "name": "A3",
                    "midi": 57,
                    "time": 113.62708333333302,
                    "velocity": 0.5984251968503937,
                    "duration": 0.056250000000005684
                },
                {
                    "name": "B4",
                    "midi": 71,
                    "time": 113.63541666666636,
                    "velocity": 0.5748031496062992,
                    "duration": 0.04999999999999716
                },
                {
                    "name": "D#4",
                    "midi": 63,
                    "time": 113.74999999999969,
                    "velocity": 0.6299212598425197,
                    "duration": 0.06875000000000853
                },
                {
                    "name": "F#4",
                    "midi": 66,
                    "time": 113.74999999999969,
                    "velocity": 0.7795275590551181,
                    "duration": 0.07083333333333997
                },
                {
                    "name": "B4",
                    "midi": 71,
                    "time": 113.76249999999969,
                    "velocity": 0.5433070866141733,
                    "duration": 0.04583333333333428
                },
                {
                    "name": "A3",
                    "midi": 57,
                    "time": 113.76458333333302,
                    "velocity": 0.4251968503937008,
                    "duration": 0.05833333333333712
                },
                {
                    "name": "F#4",
                    "midi": 66,
                    "time": 113.87083333333302,
                    "velocity": 0.8267716535433071,
                    "duration": 0.1145833333333286
                },
                {
                    "name": "D#4",
                    "midi": 63,
                    "time": 113.87083333333302,
                    "velocity": 0.7637795275590551,
                    "duration": 0.12708333333333144
                },
                {
                    "name": "B4",
                    "midi": 71,
                    "time": 113.87499999999969,
                    "velocity": 0.7244094488188977,
                    "duration": 0.09375
                },
                {
                    "name": "A3",
                    "midi": 57,
                    "time": 113.88541666666636,
                    "velocity": 0.6220472440944882,
                    "duration": 0.08541666666666003
                },
                {
                    "name": "C5",
                    "midi": 72,
                    "time": 114.05416666666636,
                    "velocity": 0.8503937007874016,
                    "duration": 0.2749999999999915
                },
                {
                    "name": "D4",
                    "midi": 62,
                    "time": 114.05833333333302,
                    "velocity": 0.8503937007874016,
                    "duration": 0.3687499999999915
                },
                {
                    "name": "F4",
                    "midi": 65,
                    "time": 114.06458333333302,
                    "velocity": 0.7244094488188977,
                    "duration": 0.15625
                },
                {
                    "name": "E4",
                    "midi": 64,
                    "time": 114.06666666666635,
                    "velocity": 0.7165354330708661,
                    "duration": 0.0625
                },
                {
                    "name": "G#3",
                    "midi": 56,
                    "time": 114.06666666666635,
                    "velocity": 0.8582677165354331,
                    "duration": 0.24791666666666856
                },
                {
                    "name": "A4",
                    "midi": 69,
                    "time": 114.35624999999969,
                    "velocity": 0.7874015748031497,
                    "duration": 0.24791666666665435
                },
                {
                    "name": "E4",
                    "midi": 64,
                    "time": 114.36041666666635,
                    "velocity": 0.7559055118110236,
                    "duration": 0.18541666666666856
                },
                {
                    "name": "C#4",
                    "midi": 61,
                    "time": 114.37083333333302,
                    "velocity": 0.8503937007874016,
                    "duration": 0.2749999999999915
                },
                {
                    "name": "G3",
                    "midi": 55,
                    "time": 114.37499999999969,
                    "velocity": 0.6535433070866141,
                    "duration": 0.12708333333333144
                },
                {
                    "name": "D#4",
                    "midi": 63,
                    "time": 114.60416666666634,
                    "velocity": 0.84251968503937,
                    "duration": 0.08125000000001137
                },
                {
                    "name": "B4",
                    "midi": 71,
                    "time": 114.60833333333301,
                    "velocity": 0.7874015748031497,
                    "duration": 0.08541666666668846
                },
                {
                    "name": "C4",
                    "midi": 60,
                    "time": 114.62499999999967,
                    "velocity": 0.6692913385826772,
                    "duration": 0.0875000000000199
                },
                {
                    "name": "F#3",
                    "midi": 54,
                    "time": 114.63749999999968,
                    "velocity": 0.6929133858267716,
                    "duration": 0.06041666666668277
                },
                {
                    "name": "G4",
                    "midi": 67,
                    "time": 114.74166666666636,
                    "velocity": 0.8503937007874016,
                    "duration": 0.3541666666666572
                },
                {
                    "name": "F3",
                    "midi": 53,
                    "time": 114.74583333333302,
                    "velocity": 0.8031496062992126,
                    "duration": 0.08124999999999716
                },
                {
                    "name": "B3",
                    "midi": 59,
                    "time": 114.74791666666636,
                    "velocity": 0.7952755905511811,
                    "duration": 0.054166666666660035
                },
                {
                    "name": "D4",
                    "midi": 62,
                    "time": 114.75208333333302,
                    "velocity": 0.84251968503937,
                    "duration": 0.29375000000000284
                },
                {
                    "name": "E1",
                    "midi": 28,
                    "time": 115.12916666666635,
                    "velocity": 0.952755905511811,
                    "duration": 0.041666666666671404
                },
                {
                    "name": "E2",
                    "midi": 40,
                    "time": 115.12916666666635,
                    "velocity": 0.952755905511811,
                    "duration": 0.05833333333333712
                },
                {
                    "name": "D#3",
                    "midi": 51,
                    "time": 115.52916666666636,
                    "velocity": 0.7086614173228346,
                    "duration": 0.03541666666666288
                },
                {
                    "name": "F4",
                    "midi": 65,
                    "time": 115.53124999999969,
                    "velocity": 0.8346456692913385,
                    "duration": 0.056249999999991473
                },
                {
                    "name": "A3",
                    "midi": 57,
                    "time": 115.53541666666635,
                    "velocity": 0.5275590551181102,
                    "duration": 0.04999999999999716
                },
                {
                    "name": "C4",
                    "midi": 60,
                    "time": 115.53958333333301,
                    "velocity": 0.7165354330708661,
                    "duration": 0.03125
                },
                {
                    "name": "D#3",
                    "midi": 51,
                    "time": 115.63333333333301,
                    "velocity": 0.84251968503937,
                    "duration": 0.07083333333333997
                },
                {
                    "name": "A3",
                    "midi": 57,
                    "time": 115.63333333333301,
                    "velocity": 0.7559055118110236,
                    "duration": 0.06666666666667709
                },
                {
                    "name": "F4",
                    "midi": 65,
                    "time": 115.64166666666635,
                    "velocity": 0.7874015748031497,
                    "duration": 0.06874999999999432
                },
                {
                    "name": "C4",
                    "midi": 60,
                    "time": 115.64374999999968,
                    "velocity": 0.7401574803149606,
                    "duration": 0.056250000000005684
                },
                {
                    "name": "A3",
                    "midi": 57,
                    "time": 115.73541666666635,
                    "velocity": 0.5748031496062992,
                    "duration": 0.06666666666666288
                },
                {
                    "name": "C4",
                    "midi": 60,
                    "time": 115.73749999999968,
                    "velocity": 0.5748031496062992,
                    "duration": 0.06041666666666856
                },
                {
                    "name": "F4",
                    "midi": 65,
                    "time": 115.73749999999968,
                    "velocity": 0.41732283464566927,
                    "duration": 0.07500000000000284
                },
                {
                    "name": "D#3",
                    "midi": 51,
                    "time": 115.76249999999969,
                    "velocity": 0.5275590551181102,
                    "duration": 0.03333333333333144
                },
                {
                    "name": "A3",
                    "midi": 57,
                    "time": 115.84374999999969,
                    "velocity": 0.6377952755905512,
                    "duration": 0.06666666666667709
                },
                {
                    "name": "F4",
                    "midi": 65,
                    "time": 115.84583333333302,
                    "velocity": 0.5669291338582677,
                    "duration": 0.07291666666668561
                },
                {
                    "name": "C4",
                    "midi": 60,
                    "time": 115.84583333333302,
                    "velocity": 0.7716535433070866,
                    "duration": 0.06250000000001421
                },
                {
                    "name": "D#3",
                    "midi": 51,
                    "time": 115.85416666666636,
                    "velocity": 0.5984251968503937,
                    "duration": 0.04375000000000284
                },
                {
                    "name": "D#3",
                    "midi": 51,
                    "time": 115.96041666666638,
                    "velocity": 0.7007874015748031,
                    "duration": 0.0625
                },
                {
                    "name": "A3",
                    "midi": 57,
                    "time": 115.96249999999971,
                    "velocity": 0.6062992125984252,
                    "duration": 0.04999999999999716
                },
                {
                    "name": "C4",
                    "midi": 60,
                    "time": 115.9687499999997,
                    "velocity": 0.7559055118110236,
                    "duration": 0.05833333333333712
                },
                {
                    "name": "F4",
                    "midi": 65,
                    "time": 115.9687499999997,
                    "velocity": 0.7952755905511811,
                    "duration": 0.07708333333333428
                },
                {
                    "name": "D#3",
                    "midi": 51,
                    "time": 116.07916666666637,
                    "velocity": 0.7086614173228346,
                    "duration": 0.04166666666665719
                },
                {
                    "name": "A3",
                    "midi": 57,
                    "time": 116.0812499999997,
                    "velocity": 0.3700787401574803,
                    "duration": 0.05833333333332291
                },
                {
                    "name": "C4",
                    "midi": 60,
                    "time": 116.08333333333303,
                    "velocity": 0.7086614173228346,
                    "duration": 0.06249999999998579
                },
                {
                    "name": "F4",
                    "midi": 65,
                    "time": 116.0874999999997,
                    "velocity": 0.47244094488188976,
                    "duration": 0.06874999999999432
                },
                {
                    "name": "A3",
                    "midi": 57,
                    "time": 116.19166666666635,
                    "velocity": 0.5748031496062992,
                    "duration": 0.052083333333328596
                },
                {
                    "name": "D#3",
                    "midi": 51,
                    "time": 116.19583333333301,
                    "velocity": 0.6299212598425197,
                    "duration": 0.04999999999999716
                },
                {
                    "name": "C4",
                    "midi": 60,
                    "time": 116.19791666666634,
                    "velocity": 0.7322834645669292,
                    "duration": 0.06874999999999432
                },
                {
                    "name": "F4",
                    "midi": 65,
                    "time": 116.20833333333302,
                    "velocity": 0.6220472440944882,
                    "duration": 0.06458333333331723
                },
                {
                    "name": "C4",
                    "midi": 60,
                    "time": 116.31041666666633,
                    "velocity": 0.6141732283464567,
                    "duration": 0.06458333333334565
                },
                {
                    "name": "D#3",
                    "midi": 51,
                    "time": 116.31874999999967,
                    "velocity": 0.5905511811023622,
                    "duration": 0.04791666666666572
                },
                {
                    "name": "A3",
                    "midi": 57,
                    "time": 116.31874999999967,
                    "velocity": 0.5039370078740157,
                    "duration": 0.1708333333333485
                },
                {
                    "name": "F4",
                    "midi": 65,
                    "time": 116.32291666666633,
                    "velocity": 0.6141732283464567,
                    "duration": 0.06458333333334565
                },
                {
                    "name": "D#3",
                    "midi": 51,
                    "time": 116.41666666666634,
                    "velocity": 0.7401574803149606,
                    "duration": 0.0729166666666714
                },
                {
                    "name": "C4",
                    "midi": 60,
                    "time": 116.42708333333302,
                    "velocity": 0.7401574803149606,
                    "duration": 0.06458333333333144
                },
                {
                    "name": "F4",
                    "midi": 65,
                    "time": 116.43333333333301,
                    "velocity": 0.6614173228346457,
                    "duration": 0.0729166666666714
                },
                {
                    "name": "F4",
                    "midi": 65,
                    "time": 116.55416666666635,
                    "velocity": 0.8740157480314961,
                    "duration": 0.2604166666666572
                },
                {
                    "name": "A3",
                    "midi": 57,
                    "time": 116.55416666666635,
                    "velocity": 0.7716535433070866,
                    "duration": 0.2812499999999858
                },
                {
                    "name": "D#3",
                    "midi": 51,
                    "time": 116.55624999999968,
                    "velocity": 0.7952755905511811,
                    "duration": 0.28958333333332575
                },
                {
                    "name": "C4",
                    "midi": 60,
                    "time": 116.55624999999968,
                    "velocity": 0.8031496062992126,
                    "duration": 0.125
                },
                {
                    "name": "B3",
                    "midi": 59,
                    "time": 116.76666666666634,
                    "velocity": 0.8818897637795275,
                    "duration": 0.21875
                },
                {
                    "name": "G4",
                    "midi": 67,
                    "time": 116.76874999999967,
                    "velocity": 0.8582677165354331,
                    "duration": 0.17083333333333428
                },
                {
                    "name": "G#3",
                    "midi": 56,
                    "time": 116.76874999999967,
                    "velocity": 0.8346456692913385,
                    "duration": 0.34583333333333144
                },
                {
                    "name": "D3",
                    "midi": 50,
                    "time": 116.77916666666634,
                    "velocity": 0.6771653543307087,
                    "duration": 0.15833333333333144
                },
                {
                    "name": "E4",
                    "midi": 64,
                    "time": 117.083333333333,
                    "velocity": 0.8031496062992126,
                    "duration": 0.3895833333333343
                },
                {
                    "name": "A#3",
                    "midi": 58,
                    "time": 117.08541666666633,
                    "velocity": 0.889763779527559,
                    "duration": 0.3583333333333343
                },
                {
                    "name": "G3",
                    "midi": 55,
                    "time": 117.08541666666633,
                    "velocity": 0.6771653543307087,
                    "duration": 0.4541666666666657
                },
                {
                    "name": "C#3",
                    "midi": 49,
                    "time": 117.09166666666633,
                    "velocity": 0.7480314960629921,
                    "duration": 0.36041666666667993
                },
                {
                    "name": "A3",
                    "midi": 57,
                    "time": 117.51041666666633,
                    "velocity": 0.7874015748031497,
                    "duration": 0.11041666666667993
                },
                {
                    "name": "F4",
                    "midi": 65,
                    "time": 117.514583333333,
                    "velocity": 0.7716535433070866,
                    "duration": 0.08541666666667425
                },
                {
                    "name": "F#3",
                    "midi": 54,
                    "time": 117.52083333333299,
                    "velocity": 0.7874015748031497,
                    "duration": 0.10208333333335418
                },
                {
                    "name": "C3",
                    "midi": 48,
                    "time": 117.53124999999966,
                    "velocity": 0.6929133858267716,
                    "duration": 0.07916666666667993
                },
                {
                    "name": "D4",
                    "midi": 62,
                    "time": 117.677083333333,
                    "velocity": 0.8346456692913385,
                    "duration": 0.08333333333334281
                },
                {
                    "name": "F3",
                    "midi": 53,
                    "time": 117.677083333333,
                    "velocity": 0.8188976377952756,
                    "duration": 0.10000000000000853
                },
                {
                    "name": "B2",
                    "midi": 47,
                    "time": 117.67916666666633,
                    "velocity": 0.8346456692913385,
                    "duration": 0.11041666666667993
                },
                {
                    "name": "G#3",
                    "midi": 56,
                    "time": 117.68749999999967,
                    "velocity": 0.8818897637795275,
                    "duration": 0.07083333333333997
                },
                {
                    "name": "D4",
                    "midi": 62,
                    "time": 118.25833333333303,
                    "velocity": 0.9133858267716536,
                    "duration": 0.10625000000000284
                },
                {
                    "name": "A3",
                    "midi": 57,
                    "time": 118.26041666666636,
                    "velocity": 0.8740157480314961,
                    "duration": 0.09791666666667709
                },
                {
                    "name": "F#3",
                    "midi": 54,
                    "time": 118.2687499999997,
                    "velocity": 0.9448818897637795,
                    "duration": 0.10833333333333428
                },
                {
                    "name": "C3",
                    "midi": 48,
                    "time": 118.27083333333303,
                    "velocity": 0.8346456692913385,
                    "duration": 0.09375
                },
                {
                    "name": "B2",
                    "midi": 47,
                    "time": 118.47083333333303,
                    "velocity": 0.8582677165354331,
                    "duration": 0.09374999999998579
                },
                {
                    "name": "F3",
                    "midi": 53,
                    "time": 118.47291666666636,
                    "velocity": 0.84251968503937,
                    "duration": 0.07083333333332575
                },
                {
                    "name": "D#4",
                    "midi": 63,
                    "time": 118.47708333333303,
                    "velocity": 0.8976377952755905,
                    "duration": 0.052083333333328596
                },
                {
                    "name": "G3",
                    "midi": 55,
                    "time": 118.48124999999969,
                    "velocity": 0.7952755905511811,
                    "duration": 0.05833333333333712
                },
                {
                    "name": "C4",
                    "midi": 60,
                    "time": 118.80833333333302,
                    "velocity": 0.84251968503937,
                    "duration": 0.07499999999998863
                },
                {
                    "name": "G3",
                    "midi": 55,
                    "time": 118.81041666666636,
                    "velocity": 0.7795275590551181,
                    "duration": 0.07291666666665719
                },
                {
                    "name": "A#2",
                    "midi": 46,
                    "time": 118.81249999999969,
                    "velocity": 0.7322834645669292,
                    "duration": 0.22083333333331723
                },
                {
                    "name": "E3",
                    "midi": 52,
                    "time": 118.81874999999968,
                    "velocity": 0.7244094488188977,
                    "duration": 0.0729166666666714
                },
                {
                    "name": "F#3",
                    "midi": 54,
                    "time": 118.92291666666635,
                    "velocity": 0.8976377952755905,
                    "duration": 0.09166666666665435
                },
                {
                    "name": "D#3",
                    "midi": 51,
                    "time": 118.92499999999968,
                    "velocity": 0.84251968503937,
                    "duration": 0.09583333333331723
                },
                {
                    "name": "C#4",
                    "midi": 61,
                    "time": 118.92708333333302,
                    "velocity": 0.889763779527559,
                    "duration": 0.1354166666666572
                },
                {
                    "name": "A#3",
                    "midi": 58,
                    "time": 119.195833333333,
                    "velocity": 0.8582677165354331,
                    "duration": 0.09166666666665435
                },
                {
                    "name": "D3",
                    "midi": 50,
                    "time": 119.195833333333,
                    "velocity": 0.8031496062992126,
                    "duration": 0.08749999999999147
                },
                {
                    "name": "A2",
                    "midi": 45,
                    "time": 119.19791666666633,
                    "velocity": 0.7086614173228346,
                    "duration": 0.054166666666660035
                },
                {
                    "name": "F3",
                    "midi": 53,
                    "time": 119.20416666666632,
                    "velocity": 0.7559055118110236,
                    "duration": 0.0625
                },
                {
                    "name": "B3",
                    "midi": 59,
                    "time": 119.32083333333298,
                    "velocity": 0.8818897637795275,
                    "duration": 0.10833333333333428
                },
                {
                    "name": "C#3",
                    "midi": 49,
                    "time": 119.32083333333298,
                    "velocity": 0.8976377952755905,
                    "duration": 0.10208333333333997
                },
                {
                    "name": "E3",
                    "midi": 52,
                    "time": 119.32916666666632,
                    "velocity": 0.84251968503937,
                    "duration": 0.0625
                },
                {
                    "name": "G#2",
                    "midi": 44,
                    "time": 119.32916666666632,
                    "velocity": 0.8188976377952756,
                    "duration": 0.09999999999999432
                },
                {
                    "name": "G#3",
                    "midi": 56,
                    "time": 119.60624999999965,
                    "velocity": 0.8661417322834646,
                    "duration": 0.0833333333333286
                },
                {
                    "name": "C3",
                    "midi": 48,
                    "time": 119.62083333333298,
                    "velocity": 0.7874015748031497,
                    "duration": 0.08541666666666003
                },
                {
                    "name": "D3",
                    "midi": 50,
                    "time": 119.62083333333298,
                    "velocity": 0.7165354330708661,
                    "duration": 0.0625
                },
                {
                    "name": "G2",
                    "midi": 43,
                    "time": 119.62708333333298,
                    "velocity": 0.7244094488188977,
                    "duration": 0.054166666666674246
                },
                {
                    "name": "A3",
                    "midi": 57,
                    "time": 119.73124999999965,
                    "velocity": 0.8582677165354331,
                    "duration": 0.09375000000001421
                },
                {
                    "name": "B2",
                    "midi": 47,
                    "time": 119.74166666666632,
                    "velocity": 0.889763779527559,
                    "duration": 0.09375000000001421
                },
                {
                    "name": "F#2",
                    "midi": 42,
                    "time": 119.75416666666632,
                    "velocity": 0.905511811023622,
                    "duration": 0.13333333333335418
                },
                {
                    "name": "G#3",
                    "midi": 56,
                    "time": 120.06666666666634,
                    "velocity": 0.9291338582677166,
                    "duration": 0.4083333333333172
                },
                {
                    "name": "D3",
                    "midi": 50,
                    "time": 120.06874999999967,
                    "velocity": 0.8582677165354331,
                    "duration": 0.35624999999998863
                },
                {
                    "name": "B2",
                    "midi": 47,
                    "time": 120.06874999999967,
                    "velocity": 0.8582677165354331,
                    "duration": 0.3999999999999915
                },
                {
                    "name": "E2",
                    "midi": 40,
                    "time": 120.07291666666633,
                    "velocity": 0.8031496062992126,
                    "duration": 0.36666666666666003
                },
                {
                    "name": "F#3",
                    "midi": 54,
                    "time": 120.79999999999966,
                    "velocity": 0.7480314960629921,
                    "duration": 0.07916666666665151
                },
                {
                    "name": "D4",
                    "midi": 62,
                    "time": 120.80416666666632,
                    "velocity": 0.7716535433070866,
                    "duration": 0.07291666666665719
                },
                {
                    "name": "A3",
                    "midi": 57,
                    "time": 120.80416666666632,
                    "velocity": 0.7086614173228346,
                    "duration": 0.07916666666665151
                },
                {
                    "name": "C3",
                    "midi": 48,
                    "time": 120.81666666666632,
                    "velocity": 0.5590551181102362,
                    "duration": 0.054166666666660035
                },
                {
                    "name": "F3",
                    "midi": 53,
                    "time": 120.94583333333297,
                    "velocity": 0.6614173228346457,
                    "duration": 0.0999999999999801
                },
                {
                    "name": "D#4",
                    "midi": 63,
                    "time": 120.9479166666663,
                    "velocity": 0.7637795275590551,
                    "duration": 0.09374999999998579
                },
                {
                    "name": "G#3",
                    "midi": 56,
                    "time": 120.94999999999963,
                    "velocity": 0.7874015748031497,
                    "duration": 0.11041666666665151
                },
                {
                    "name": "B2",
                    "midi": 47,
                    "time": 120.95624999999963,
                    "velocity": 0.47244094488188976,
                    "duration": 0.11249999999999716
                },
                {
                    "name": "E3",
                    "midi": 52,
                    "time": 121.2416666666663,
                    "velocity": 0.5984251968503937,
                    "duration": 0.09166666666665435
                },
                {
                    "name": "A#2",
                    "midi": 46,
                    "time": 121.2479166666663,
                    "velocity": 0.6929133858267716,
                    "duration": 0.2083333333333286
                },
                {
                    "name": "G3",
                    "midi": 55,
                    "time": 121.24999999999963,
                    "velocity": 0.5196850393700787,
                    "duration": 0.08124999999999716
                },
                {
                    "name": "C4",
                    "midi": 60,
                    "time": 121.2541666666663,
                    "velocity": 0.5905511811023622,
                    "duration": 0.07708333333333428
                },
                {
                    "name": "C#4",
                    "midi": 61,
                    "time": 121.37708333333296,
                    "velocity": 0.7637795275590551,
                    "duration": 0.11875000000000568
                },
                {
                    "name": "F#3",
                    "midi": 54,
                    "time": 121.39583333333296,
                    "velocity": 0.7637795275590551,
                    "duration": 0.1041666666666714
                },
                {
                    "name": "D#3",
                    "midi": 51,
                    "time": 121.39791666666629,
                    "velocity": 0.7559055118110236,
                    "duration": 0.11249999999999716
                },
                {
                    "name": "A#3",
                    "midi": 58,
                    "time": 121.68124999999962,
                    "velocity": 0.7322834645669292,
                    "duration": 0.11666666666667425
                },
                {
                    "name": "G#2",
                    "midi": 44,
                    "time": 121.70208333333295,
                    "velocity": 0.6614173228346457,
                    "duration": 0.18958333333334565
                },
                {
                    "name": "D3",
                    "midi": 50,
                    "time": 121.71249999999962,
                    "velocity": 0.30708661417322836,
                    "duration": 0.10625000000000284
                },
                {
                    "name": "C#3",
                    "midi": 49,
                    "time": 121.84999999999962,
                    "velocity": 0.6299212598425197,
                    "duration": 0.12083333333333712
                },
                {
                    "name": "B3",
                    "midi": 59,
                    "time": 121.85208333333296,
                    "velocity": 0.6614173228346457,
                    "duration": 0.11458333333334281
                },
                {
                    "name": "E3",
                    "midi": 52,
                    "time": 121.86249999999963,
                    "velocity": 0.5433070866141733,
                    "duration": 0.0625
                },
                {
                    "name": "G#3",
                    "midi": 56,
                    "time": 122.23124999999963,
                    "velocity": 0.6850393700787402,
                    "duration": 0.21041666666667425
                },
                {
                    "name": "F#2",
                    "midi": 42,
                    "time": 122.23958333333296,
                    "velocity": 0.49606299212598426,
                    "duration": 0.20625000000001137
                },
                {
                    "name": "C3",
                    "midi": 48,
                    "time": 122.27083333333296,
                    "velocity": 0.2204724409448819,
                    "duration": 0.16250000000000853
                },
                {
                    "name": "A3",
                    "midi": 57,
                    "time": 122.4229166666663,
                    "velocity": 0.6456692913385826,
                    "duration": 0.08958333333333712
                },
                {
                    "name": "B2",
                    "midi": 47,
                    "time": 122.43124999999964,
                    "velocity": 0.5433070866141733,
                    "duration": 0.13333333333332575
                },
                {
                    "name": "F2",
                    "midi": 41,
                    "time": 122.45833333333297,
                    "velocity": 0.5511811023622047,
                    "duration": 0.1145833333333286
                },
                {
                    "name": "G#3",
                    "midi": 56,
                    "time": 123.0229166666663,
                    "velocity": 0.4015748031496063,
                    "duration": 0.9895833333333144
                },
                {
                    "name": "B2",
                    "midi": 47,
                    "time": 123.02499999999964,
                    "velocity": 0.4094488188976378,
                    "duration": 1.67083333333332
                },
                {
                    "name": "E2",
                    "midi": 40,
                    "time": 123.0291666666663,
                    "velocity": 0.2677165354330709,
                    "duration": 1.7499999999999858
                },
                {
                    "name": "D3",
                    "midi": 50,
                    "time": 123.06458333333296,
                    "velocity": 0.25196850393700787,
                    "duration": 0.8020833333333286
                },
                {
                    "name": "E3",
                    "midi": 52,
                    "time": 124.02708333333295,
                    "velocity": 0.3700787401574803,
                    "duration": 0.19583333333333997
                },
                {
                    "name": "F#3",
                    "midi": 54,
                    "time": 124.23749999999963,
                    "velocity": 0.5826771653543307,
                    "duration": 0.125
                },
                {
                    "name": "G#3",
                    "midi": 56,
                    "time": 124.35833333333296,
                    "velocity": 0.5669291338582677,
                    "duration": 0.06666666666666288
                },
                {
                    "name": "A3",
                    "midi": 57,
                    "time": 124.4666666666663,
                    "velocity": 0.44881889763779526,
                    "duration": 0.08541666666666003
                },
                {
                    "name": "B3",
                    "midi": 59,
                    "time": 124.55833333333295,
                    "velocity": 0.5669291338582677,
                    "duration": 0.08750000000000568
                },
                {
                    "name": "C#4",
                    "midi": 61,
                    "time": 124.63541666666629,
                    "velocity": 0.7244094488188977,
                    "duration": 0.07708333333333428
                },
                {
                    "name": "D4",
                    "midi": 62,
                    "time": 124.73124999999962,
                    "velocity": 0.5748031496062992,
                    "duration": 0.08541666666666003
                },
                {
                    "name": "E4",
                    "midi": 64,
                    "time": 124.84583333333295,
                    "velocity": 0.2992125984251969,
                    "duration": 0.07708333333333428
                },
                {
                    "name": "F#4",
                    "midi": 66,
                    "time": 124.90833333333295,
                    "velocity": 0.7007874015748031,
                    "duration": 0.11666666666667425
                },
                {
                    "name": "G#4",
                    "midi": 68,
                    "time": 124.99999999999962,
                    "velocity": 0.5984251968503937,
                    "duration": 0.08125000000001137
                },
                {
                    "name": "A4",
                    "midi": 69,
                    "time": 125.09999999999962,
                    "velocity": 0.41732283464566927,
                    "duration": 0.09375
                },
                {
                    "name": "B4",
                    "midi": 71,
                    "time": 125.20833333333296,
                    "velocity": 0.5275590551181102,
                    "duration": 0.09791666666667709
                },
                {
                    "name": "C#5",
                    "midi": 73,
                    "time": 125.31874999999964,
                    "velocity": 0.6141732283464567,
                    "duration": 0.09791666666666288
                },
                {
                    "name": "D5",
                    "midi": 74,
                    "time": 125.45833333333296,
                    "velocity": 0.4645669291338583,
                    "duration": 0.13333333333332575
                },
                {
                    "name": "E5",
                    "midi": 76,
                    "time": 125.55624999999962,
                    "velocity": 0.4645669291338583,
                    "duration": 0.15208333333333712
                },
                {
                    "name": "F#5",
                    "midi": 78,
                    "time": 125.7041666666663,
                    "velocity": 0.5748031496062992,
                    "duration": 0.17499999999998295
                },
                {
                    "name": "A2",
                    "midi": 45,
                    "time": 125.83333333333294,
                    "velocity": 0.6299212598425197,
                    "duration": 0.09583333333333144
                },
                {
                    "name": "G#5",
                    "midi": 80,
                    "time": 125.91666666666627,
                    "velocity": 0.5826771653543307,
                    "duration": 0.17083333333333428
                },
                {
                    "name": "E4",
                    "midi": 64,
                    "time": 126.28541666666628,
                    "velocity": 0.5511811023622047,
                    "duration": 0.039583333333325754
                },
                {
                    "name": "C#5",
                    "midi": 73,
                    "time": 126.32083333333294,
                    "velocity": 0.6929133858267716,
                    "duration": 0.0729166666666714
                },
                {
                    "name": "A5",
                    "midi": 81,
                    "time": 126.33749999999961,
                    "velocity": 0.7244094488188977,
                    "duration": 1.16458333333334
                },
                {
                    "name": "E5",
                    "midi": 76,
                    "time": 126.97499999999961,
                    "velocity": 0.2755905511811024,
                    "duration": 0.5
                },
                {
                    "name": "E3",
                    "midi": 52,
                    "time": 127.14791666666628,
                    "velocity": 0.3779527559055118,
                    "duration": 0.10833333333333428
                },
                {
                    "name": "F#4",
                    "midi": 66,
                    "time": 127.42916666666628,
                    "velocity": 0.7244094488188977,
                    "duration": 0.2500000000000142
                },
                {
                    "name": "D#5",
                    "midi": 75,
                    "time": 127.43749999999962,
                    "velocity": 0.6299212598425197,
                    "duration": 0.07500000000000284
                },
                {
                    "name": "E4",
                    "midi": 64,
                    "time": 127.96666666666628,
                    "velocity": 0.3543307086614173,
                    "duration": 1.0479166666667226
                },
                {
                    "name": "G4",
                    "midi": 67,
                    "time": 128.07708333333295,
                    "velocity": 0.2755905511811024,
                    "duration": 0.7791666666667254
                },
                {
                    "name": "G5",
                    "midi": 79,
                    "time": 128.0874999999996,
                    "velocity": 0.7637795275590551,
                    "duration": 0.08333333333334281
                },
                {
                    "name": "D5",
                    "midi": 74,
                    "time": 128.10624999999962,
                    "velocity": 0.5748031496062992,
                    "duration": 0.9833333333333769
                },
                {
                    "name": "A5",
                    "midi": 81,
                    "time": 128.17083333333295,
                    "velocity": 0.6771653543307087,
                    "duration": 0.10625000000001705
                },
                {
                    "name": "G5",
                    "midi": 79,
                    "time": 128.22083333333296,
                    "velocity": 0.5511811023622047,
                    "duration": 0.2333333333333485
                },
                {
                    "name": "F5",
                    "midi": 77,
                    "time": 128.4229166666663,
                    "velocity": 0.6771653543307087,
                    "duration": 0.11041666666667993
                },
                {
                    "name": "G5",
                    "midi": 79,
                    "time": 128.583333333333,
                    "velocity": 0.6614173228346457,
                    "duration": 0.09375
                },
                {
                    "name": "F5",
                    "midi": 77,
                    "time": 128.76249999999968,
                    "velocity": 0.6377952755905512,
                    "duration": 0.18541666666666856
                },
                {
                    "name": "G#4",
                    "midi": 68,
                    "time": 128.77291666666633,
                    "velocity": 0.4251968503937008,
                    "duration": 0.20625000000001137
                },
                {
                    "name": "G5",
                    "midi": 79,
                    "time": 128.97916666666634,
                    "velocity": 0.4566929133858268,
                    "duration": 0.1833333333333087
                },
                {
                    "name": "F5",
                    "midi": 77,
                    "time": 129.152083333333,
                    "velocity": 0.6062992125984252,
                    "duration": 0.07083333333332575
                },
                {
                    "name": "C#4",
                    "midi": 61,
                    "time": 129.333333333333,
                    "velocity": 0.4881889763779528,
                    "duration": 0.11458333333334281
                },
                {
                    "name": "E5",
                    "midi": 76,
                    "time": 129.35416666666634,
                    "velocity": 0.6929133858267716,
                    "duration": 0.07499999999998863
                },
                {
                    "name": "C#5",
                    "midi": 73,
                    "time": 129.36249999999967,
                    "velocity": 0.6456692913385826,
                    "duration": 0.06041666666666856
                },
                {
                    "name": "A4",
                    "midi": 69,
                    "time": 129.364583333333,
                    "velocity": 0.5196850393700787,
                    "duration": 0.054166666666674246
                },
                {
                    "name": "D5",
                    "midi": 74,
                    "time": 129.68124999999966,
                    "velocity": 0.5905511811023622,
                    "duration": 0.12083333333333712
                },
                {
                    "name": "G#4",
                    "midi": 68,
                    "time": 129.69166666666632,
                    "velocity": 0.4645669291338583,
                    "duration": 0.07500000000001705
                },
                {
                    "name": "B4",
                    "midi": 71,
                    "time": 129.69374999999965,
                    "velocity": 0.4251968503937008,
                    "duration": 0.05000000000001137
                },
                {
                    "name": "D4",
                    "midi": 62,
                    "time": 129.71249999999966,
                    "velocity": 0.2677165354330709,
                    "duration": 0.09999999999999432
                },
                {
                    "name": "C#5",
                    "midi": 73,
                    "time": 129.93749999999966,
                    "velocity": 0.7086614173228346,
                    "duration": 0.08749999999997726
                },
                {
                    "name": "A#4",
                    "midi": 70,
                    "time": 129.94166666666632,
                    "velocity": 0.6220472440944882,
                    "duration": 0.07708333333332007
                },
                {
                    "name": "D#4",
                    "midi": 63,
                    "time": 129.95624999999964,
                    "velocity": 0.5511811023622047,
                    "duration": 0.09375
                },
                {
                    "name": "G4",
                    "midi": 67,
                    "time": 129.96249999999964,
                    "velocity": 0.3779527559055118,
                    "duration": 0.056250000000005684
                },
                {
                    "name": "A4",
                    "midi": 69,
                    "time": 130.2791666666663,
                    "velocity": 0.5590551181102362,
                    "duration": 0.47083333333333144
                },
                {
                    "name": "F#4",
                    "midi": 66,
                    "time": 130.2854166666663,
                    "velocity": 0.6456692913385826,
                    "duration": 0.30416666666667425
                },
                {
                    "name": "C5",
                    "midi": 72,
                    "time": 130.28749999999962,
                    "velocity": 0.7007874015748031,
                    "duration": 0.6145833333333144
                },
                {
                    "name": "E4",
                    "midi": 64,
                    "time": 130.3041666666663,
                    "velocity": 0.36220472440944884,
                    "duration": 0.4895833333333144
                },
                {
                    "name": "D4",
                    "midi": 62,
                    "time": 130.82708333333295,
                    "velocity": 0.7165354330708661,
                    "duration": 0.36458333333328596
                },
                {
                    "name": "D5",
                    "midi": 74,
                    "time": 130.82916666666628,
                    "velocity": 0.7952755905511811,
                    "duration": 0.18541666666666856
                },
                {
                    "name": "C4",
                    "midi": 60,
                    "time": 131.1374999999996,
                    "velocity": 0.7559055118110236,
                    "duration": 0.4395833333332746
                },
                {
                    "name": "D#5",
                    "midi": 75,
                    "time": 131.13958333333292,
                    "velocity": 0.8661417322834646,
                    "duration": 0.18541666666664014
                },
                {
                    "name": "A4",
                    "midi": 69,
                    "time": 131.13958333333292,
                    "velocity": 0.7007874015748031,
                    "duration": 0.12499999999997158
                },
                {
                    "name": "F#4",
                    "midi": 66,
                    "time": 131.14166666666625,
                    "velocity": 0.7637795275590551,
                    "duration": 0.1208333333333087
                },
                {
                    "name": "E5",
                    "midi": 76,
                    "time": 131.54374999999956,
                    "velocity": 0.7795275590551181,
                    "duration": 0.2666666666666515
                },
                {
                    "name": "A4",
                    "midi": 69,
                    "time": 131.54791666666623,
                    "velocity": 0.6299212598425197,
                    "duration": 0.31458333333333144
                },
                {
                    "name": "C#4",
                    "midi": 61,
                    "time": 131.55624999999955,
                    "velocity": 0.6929133858267716,
                    "duration": 0.25833333333332575
                },
                {
                    "name": "E4",
                    "midi": 64,
                    "time": 131.56249999999955,
                    "velocity": 0.3464566929133858,
                    "duration": 0.32916666666667993
                },
                {
                    "name": "C#5",
                    "midi": 73,
                    "time": 132.17499999999956,
                    "velocity": 0.7559055118110236,
                    "duration": 0.08124999999998295
                },
                {
                    "name": "A4",
                    "midi": 69,
                    "time": 132.1770833333329,
                    "velocity": 0.5354330708661418,
                    "duration": 0.052083333333314386
                },
                {
                    "name": "A2",
                    "midi": 45,
                    "time": 132.18958333333288,
                    "velocity": 0.5669291338582677,
                    "duration": 0.3375000000000057
                },
                {
                    "name": "E4",
                    "midi": 64,
                    "time": 132.19583333333287,
                    "velocity": 0.4015748031496063,
                    "duration": 0.05208333333334281
                },
                {
                    "name": "B2",
                    "midi": 47,
                    "time": 132.49166666666622,
                    "velocity": 0.6614173228346457,
                    "duration": 0.42499999999998295
                },
                {
                    "name": "A4",
                    "midi": 69,
                    "time": 132.51041666666623,
                    "velocity": 0.7637795275590551,
                    "duration": 0.14374999999998295
                },
                {
                    "name": "E4",
                    "midi": 64,
                    "time": 132.5208333333329,
                    "velocity": 0.6771653543307087,
                    "duration": 0.09374999999997158
                },
                {
                    "name": "C#4",
                    "midi": 61,
                    "time": 132.52499999999955,
                    "velocity": 0.6929133858267716,
                    "duration": 0.11249999999998295
                },
                {
                    "name": "G4",
                    "midi": 67,
                    "time": 132.88749999999953,
                    "velocity": 0.7716535433070866,
                    "duration": 0.36666666666667425
                },
                {
                    "name": "A3",
                    "midi": 57,
                    "time": 132.88958333333287,
                    "velocity": 0.7165354330708661,
                    "duration": 0.4145833333333542
                },
                {
                    "name": "C3",
                    "midi": 48,
                    "time": 132.8916666666662,
                    "velocity": 0.7007874015748031,
                    "duration": 0.5458333333333485
                },
                {
                    "name": "D#4",
                    "midi": 63,
                    "time": 132.8916666666662,
                    "velocity": 0.7716535433070866,
                    "duration": 0.4104166666666913
                },
                {
                    "name": "F4",
                    "midi": 65,
                    "time": 133.5666666666662,
                    "velocity": 0.6456692913385826,
                    "duration": 0.15625
                },
                {
                    "name": "B3",
                    "midi": 59,
                    "time": 133.57083333333287,
                    "velocity": 0.5590551181102362,
                    "duration": 0.24583333333333712
                },
                {
                    "name": "C#3",
                    "midi": 49,
                    "time": 133.58124999999953,
                    "velocity": 0.44881889763779526,
                    "duration": 0.34583333333333144
                },
                {
                    "name": "G3",
                    "midi": 55,
                    "time": 133.5854166666662,
                    "velocity": 0.2755905511811024,
                    "duration": 0.19375000000002274
                },
                {
                    "name": "D3",
                    "midi": 50,
                    "time": 133.9166666666662,
                    "velocity": 0.3464566929133858,
                    "duration": 0.35833333333332007
                },
                {
                    "name": "E4",
                    "midi": 64,
                    "time": 133.92499999999953,
                    "velocity": 0.5590551181102362,
                    "duration": 0.252083333333303
                },
                {
                    "name": "G#3",
                    "midi": 56,
                    "time": 133.9291666666662,
                    "velocity": 0.5275590551181102,
                    "duration": 0.32708333333332007
                },
                {
                    "name": "B3",
                    "midi": 59,
                    "time": 133.93333333333285,
                    "velocity": 0.5275590551181102,
                    "duration": 0.2916666666666572
                },
                {
                    "name": "E4",
                    "midi": 64,
                    "time": 134.30833333333285,
                    "velocity": 0.7086614173228346,
                    "duration": 0.42499999999998295
                },
                {
                    "name": "C#3",
                    "midi": 49,
                    "time": 134.6479166666662,
                    "velocity": 0.6929133858267716,
                    "duration": 0.05000000000001137
                },
                {
                    "name": "A2",
                    "midi": 45,
                    "time": 134.65416666666619,
                    "velocity": 0.5354330708661418,
                    "duration": 0.05833333333333712
                },
                {
                    "name": "C#4",
                    "midi": 61,
                    "time": 134.67083333333287,
                    "velocity": 0.8267716535433071,
                    "duration": 0.08749999999997726
                },
                {
                    "name": "A3",
                    "midi": 57,
                    "time": 134.6791666666662,
                    "velocity": 0.6614173228346457,
                    "duration": 0.08124999999998295
                },
                {
                    "name": "A3",
                    "midi": 57,
                    "time": 134.92708333333283,
                    "velocity": 0.6141732283464567,
                    "duration": 0.08541666666664582
                },
                {
                    "name": "E2",
                    "midi": 40,
                    "time": 134.9687499999995,
                    "velocity": 0.49606299212598426,
                    "duration": 0.13958333333332007
                },
                {
                    "name": "E4",
                    "midi": 64,
                    "time": 135.09166666666616,
                    "velocity": 0.5354330708661418,
                    "duration": 0.12916666666663446
                },
                {
                    "name": "F#2",
                    "midi": 42,
                    "time": 135.1020833333328,
                    "velocity": 0.5196850393700787,
                    "duration": 0.1520833333333087
                },
                {
                    "name": "E2",
                    "midi": 40,
                    "time": 135.2145833333328,
                    "velocity": 0.5433070866141733,
                    "duration": 0.15416666666664014
                },
                {
                    "name": "F4",
                    "midi": 65,
                    "time": 135.2208333333328,
                    "velocity": 0.5118110236220472,
                    "duration": 0.11041666666665151
                },
                {
                    "name": "F#4",
                    "midi": 66,
                    "time": 135.3416666666661,
                    "velocity": 0.7401574803149606,
                    "duration": 0.05208333333334281
                },
                {
                    "name": "G2",
                    "midi": 43,
                    "time": 135.3479166666661,
                    "velocity": 0.7559055118110236,
                    "duration": 0.07291666666668561
                },
                {
                    "name": "A4",
                    "midi": 69,
                    "time": 135.4604166666661,
                    "velocity": 0.7007874015748031,
                    "duration": 0.10624999999998863
                },
                {
                    "name": "G2",
                    "midi": 43,
                    "time": 135.59583333333276,
                    "velocity": 0.7874015748031497,
                    "duration": 0.07708333333334849
                },
                {
                    "name": "E5",
                    "midi": 76,
                    "time": 135.60833333333275,
                    "velocity": 0.7716535433070866,
                    "duration": 0.12708333333335986
                },
                {
                    "name": "F5",
                    "midi": 77,
                    "time": 135.73124999999945,
                    "velocity": 0.5669291338582677,
                    "duration": 0.12499999999997158
                },
                {
                    "name": "F#5",
                    "midi": 78,
                    "time": 135.84374999999943,
                    "velocity": 0.7716535433070866,
                    "duration": 0.06874999999999432
                },
                {
                    "name": "A5",
                    "midi": 81,
                    "time": 135.95833333333275,
                    "velocity": 0.7952755905511811,
                    "duration": 0.09791666666666288
                },
                {
                    "name": "E2",
                    "midi": 40,
                    "time": 135.99166666666608,
                    "velocity": 0.5590551181102362,
                    "duration": 0.09583333333330302
                },
                {
                    "name": "F#2",
                    "midi": 42,
                    "time": 136.07083333333273,
                    "velocity": 0.7874015748031497,
                    "duration": 0.12708333333330302
                },
                {
                    "name": "E6",
                    "midi": 88,
                    "time": 136.07708333333272,
                    "velocity": 0.8110236220472441,
                    "duration": 0.14374999999998295
                },
                {
                    "name": "E2",
                    "midi": 40,
                    "time": 136.17916666666605,
                    "velocity": 0.7244094488188977,
                    "duration": 0.14374999999998295
                },
                {
                    "name": "F6",
                    "midi": 89,
                    "time": 136.19374999999937,
                    "velocity": 0.7795275590551181,
                    "duration": 0.13124999999999432
                },
                {
                    "name": "G2",
                    "midi": 43,
                    "time": 136.29166666666603,
                    "velocity": 0.7952755905511811,
                    "duration": 0.13541666666668561
                },
                {
                    "name": "F#6",
                    "midi": 90,
                    "time": 136.30416666666602,
                    "velocity": 0.7874015748031497,
                    "duration": 0.06875000000002274
                },
                {
                    "name": "A2",
                    "midi": 45,
                    "time": 136.40624999999937,
                    "velocity": 0.7165354330708661,
                    "duration": 0.13958333333332007
                },
                {
                    "name": "A6",
                    "midi": 93,
                    "time": 136.43124999999938,
                    "velocity": 0.5984251968503937,
                    "duration": 0.07708333333332007
                },
                {
                    "name": "G6",
                    "midi": 91,
                    "time": 136.44166666666604,
                    "velocity": 0.3937007874015748,
                    "duration": 0.054166666666674246
                },
                {
                    "name": "G2",
                    "midi": 43,
                    "time": 136.51666666666603,
                    "velocity": 0.7716535433070866,
                    "duration": 0.13124999999999432
                },
                {
                    "name": "E7",
                    "midi": 100,
                    "time": 136.54791666666603,
                    "velocity": 0.6929133858267716,
                    "duration": 0.1354166666666572
                },
                {
                    "name": "F#2",
                    "midi": 42,
                    "time": 136.6083333333327,
                    "velocity": 0.8346456692913385,
                    "duration": 0.09583333333333144
                },
                {
                    "name": "F7",
                    "midi": 101,
                    "time": 136.64999999999935,
                    "velocity": 0.6535433070866141,
                    "duration": 0.03333333333333144
                },
                {
                    "name": "F#7",
                    "midi": 102,
                    "time": 136.760416666666,
                    "velocity": 0.8976377952755905,
                    "duration": 0.09375
                },
                {
                    "name": "C#7",
                    "midi": 97,
                    "time": 136.77083333333266,
                    "velocity": 0.8503937007874016,
                    "duration": 0.13124999999999432
                },
                {
                    "name": "A6",
                    "midi": 93,
                    "time": 136.88958333333267,
                    "velocity": 0.6456692913385826,
                    "duration": 0.06666666666663446
                },
                {
                    "name": "E2",
                    "midi": 40,
                    "time": 136.91666666666598,
                    "velocity": 0.7716535433070866,
                    "duration": 0.10624999999998863
                },
                {
                    "name": "F#2",
                    "midi": 42,
                    "time": 136.9874999999993,
                    "velocity": 0.7559055118110236,
                    "duration": 0.15416666666666856
                },
                {
                    "name": "E6",
                    "midi": 88,
                    "time": 137.0124999999993,
                    "velocity": 0.8346456692913385,
                    "duration": 0.11666666666667425
                },
                {
                    "name": "E2",
                    "midi": 40,
                    "time": 137.10208333333264,
                    "velocity": 0.7244094488188977,
                    "duration": 0.14375000000001137
                },
                {
                    "name": "F6",
                    "midi": 89,
                    "time": 137.122916666666,
                    "velocity": 0.7874015748031497,
                    "duration": 0.07291666666665719
                },
                {
                    "name": "G2",
                    "midi": 43,
                    "time": 137.21874999999932,
                    "velocity": 0.8740157480314961,
                    "duration": 0.08125000000001137
                },
                {
                    "name": "C#6",
                    "midi": 85,
                    "time": 137.23958333333266,
                    "velocity": 0.8818897637795275,
                    "duration": 0.09999999999999432
                },
                {
                    "name": "F#6",
                    "midi": 90,
                    "time": 137.24583333333266,
                    "velocity": 0.8267716535433071,
                    "duration": 0.08125000000001137
                },
                {
                    "name": "A5",
                    "midi": 81,
                    "time": 137.35416666666598,
                    "velocity": 0.6692913385826772,
                    "duration": 0.04791666666667993
                },
                {
                    "name": "E5",
                    "midi": 76,
                    "time": 137.47916666666598,
                    "velocity": 0.7716535433070866,
                    "duration": 0.17291666666667993
                },
                {
                    "name": "G2",
                    "midi": 43,
                    "time": 137.4937499999993,
                    "velocity": 0.7007874015748031,
                    "duration": 0.08958333333333712
                },
                {
                    "name": "F5",
                    "midi": 77,
                    "time": 137.60416666666598,
                    "velocity": 0.6141732283464567,
                    "duration": 0.06041666666666856
                },
                {
                    "name": "C#5",
                    "midi": 73,
                    "time": 137.72708333333264,
                    "velocity": 0.9133858267716536,
                    "duration": 0.11249999999998295
                },
                {
                    "name": "F#5",
                    "midi": 78,
                    "time": 137.7312499999993,
                    "velocity": 0.7637795275590551,
                    "duration": 0.10416666666665719
                },
                {
                    "name": "A4",
                    "midi": 69,
                    "time": 137.83958333333263,
                    "velocity": 0.7401574803149606,
                    "duration": 0.06874999999999432
                },
                {
                    "name": "E2",
                    "midi": 40,
                    "time": 137.9062499999993,
                    "velocity": 0.6614173228346457,
                    "duration": 0.17291666666670835
                },
                {
                    "name": "E4",
                    "midi": 64,
                    "time": 137.99166666666596,
                    "velocity": 0.6220472440944882,
                    "duration": 0.039583333333354176
                },
                {
                    "name": "F#2",
                    "midi": 42,
                    "time": 138.01458333333264,
                    "velocity": 0.5984251968503937,
                    "duration": 0.17500000000001137
                },
                {
                    "name": "F4",
                    "midi": 65,
                    "time": 138.091666666666,
                    "velocity": 0.6062992125984252,
                    "duration": 0.09583333333333144
                },
                {
                    "name": "E2",
                    "midi": 40,
                    "time": 138.18749999999932,
                    "velocity": 0.3937007874015748,
                    "duration": 0.15625
                },
                {
                    "name": "F#4",
                    "midi": 66,
                    "time": 138.26041666666598,
                    "velocity": 0.8346456692913385,
                    "duration": 0.14375000000001137
                },
                {
                    "name": "B3",
                    "midi": 59,
                    "time": 138.26458333333264,
                    "velocity": 0.7401574803149606,
                    "duration": 0.10833333333334849
                },
                {
                    "name": "G2",
                    "midi": 43,
                    "time": 138.29166666666598,
                    "velocity": 0.31496062992125984,
                    "duration": 0.15833333333335986
                },
                {
                    "name": "D4",
                    "midi": 62,
                    "time": 138.43124999999932,
                    "velocity": 0.7401574803149606,
                    "duration": 0.14583333333331439
                },
                {
                    "name": "G#2",
                    "midi": 44,
                    "time": 138.59583333333265,
                    "velocity": 0.5669291338582677,
                    "duration": 0.14791666666664582
                },
                {
                    "name": "E4",
                    "midi": 64,
                    "time": 138.59583333333265,
                    "velocity": 0.6929133858267716,
                    "duration": 0.11874999999997726
                },
                {
                    "name": "A2",
                    "midi": 45,
                    "time": 138.70416666666597,
                    "velocity": 0.25196850393700787,
                    "duration": 0.07708333333332007
                },
                {
                    "name": "F#4",
                    "midi": 66,
                    "time": 138.72083333333262,
                    "velocity": 0.6771653543307087,
                    "duration": 0.21250000000000568
                },
                {
                    "name": "B2",
                    "midi": 47,
                    "time": 138.78749999999928,
                    "velocity": 0.41732283464566927,
                    "duration": 0.12291666666666856
                },
                {
                    "name": "G#4",
                    "midi": 68,
                    "time": 138.89791666666596,
                    "velocity": 0.6535433070866141,
                    "duration": 0.1791666666666174
                },
                {
                    "name": "A2",
                    "midi": 45,
                    "time": 139.06249999999926,
                    "velocity": 0.5196850393700787,
                    "duration": 0.11458333333331439
                },
                {
                    "name": "E3",
                    "midi": 52,
                    "time": 139.1854166666659,
                    "velocity": 0.5196850393700787,
                    "duration": 0.15833333333333144
                },
                {
                    "name": "C#4",
                    "midi": 61,
                    "time": 139.3604166666659,
                    "velocity": 0.5984251968503937,
                    "duration": 0.0895833333333087
                },
                {
                    "name": "A4",
                    "midi": 69,
                    "time": 139.40624999999923,
                    "velocity": 0.5118110236220472,
                    "duration": 0.04999999999998295
                },
                {
                    "name": "E5",
                    "midi": 76,
                    "time": 139.49166666666588,
                    "velocity": 0.6614173228346457,
                    "duration": 0.08333333333334281
                },
                {
                    "name": "A5",
                    "midi": 81,
                    "time": 139.54374999999922,
                    "velocity": 0.8346456692913385,
                    "duration": 0.845833333333303
                },
                {
                    "name": "E5",
                    "midi": 76,
                    "time": 139.99583333333254,
                    "velocity": 0.8503937007874016,
                    "duration": 0.375
                },
                {
                    "name": "F#4",
                    "midi": 66,
                    "time": 140.31666666666587,
                    "velocity": 0.84251968503937,
                    "duration": 0.0625
                },
                {
                    "name": "D#5",
                    "midi": 75,
                    "time": 140.31666666666587,
                    "velocity": 0.84251968503937,
                    "duration": 0.07499999999998863
                },
                {
                    "name": "E4",
                    "midi": 64,
                    "time": 140.73333333333252,
                    "velocity": 0.4881889763779528,
                    "duration": 0.9354166666666117
                },
                {
                    "name": "G4",
                    "midi": 67,
                    "time": 140.80208333333252,
                    "velocity": 0.4645669291338583,
                    "duration": 0.6770833333333144
                },
                {
                    "name": "G5",
                    "midi": 79,
                    "time": 140.8187499999992,
                    "velocity": 0.7874015748031497,
                    "duration": 0.08333333333334281
                },
                {
                    "name": "D5",
                    "midi": 74,
                    "time": 140.83541666666588,
                    "velocity": 0.6771653543307087,
                    "duration": 0.8999999999999204
                },
                {
                    "name": "A5",
                    "midi": 81,
                    "time": 140.90833333333254,
                    "velocity": 0.4881889763779528,
                    "duration": 0.0895833333333087
                },
                {
                    "name": "G5",
                    "midi": 79,
                    "time": 140.95416666666586,
                    "velocity": 0.7165354330708661,
                    "duration": 0.21249999999997726
                },
                {
                    "name": "F5",
                    "midi": 77,
                    "time": 141.12291666666584,
                    "velocity": 0.7244094488188977,
                    "duration": 0.12291666666666856
                },
                {
                    "name": "G5",
                    "midi": 79,
                    "time": 141.26041666666583,
                    "velocity": 0.6771653543307087,
                    "duration": 0.21875
                },
                {
                    "name": "G#4",
                    "midi": 68,
                    "time": 141.4333333333325,
                    "velocity": 0.5433070866141733,
                    "duration": 0.21249999999997726
                },
                {
                    "name": "F5",
                    "midi": 77,
                    "time": 141.43749999999918,
                    "velocity": 0.6535433070866141,
                    "duration": 0.19999999999998863
                },
                {
                    "name": "G5",
                    "midi": 79,
                    "time": 141.65833333333248,
                    "velocity": 0.48031496062992124,
                    "duration": 0.19583333333332575
                },
                {
                    "name": "F5",
                    "midi": 77,
                    "time": 141.8166666666658,
                    "velocity": 0.5984251968503937,
                    "duration": 0.07916666666665151
                },
                {
                    "name": "C#4",
                    "midi": 61,
                    "time": 141.99374999999912,
                    "velocity": 0.5590551181102362,
                    "duration": 0.11874999999997726
                },
                {
                    "name": "E5",
                    "midi": 76,
                    "time": 142.01874999999913,
                    "velocity": 0.7244094488188977,
                    "duration": 0.08124999999998295
                },
                {
                    "name": "A4",
                    "midi": 69,
                    "time": 142.02708333333246,
                    "velocity": 0.6299212598425197,
                    "duration": 0.04583333333332007
                },
                {
                    "name": "C#5",
                    "midi": 73,
                    "time": 142.03124999999912,
                    "velocity": 0.6141732283464567,
                    "duration": 0.039583333333325754
                },
                {
                    "name": "D5",
                    "midi": 74,
                    "time": 142.33541666666576,
                    "velocity": 0.6614173228346457,
                    "duration": 0.10208333333332575
                },
                {
                    "name": "B4",
                    "midi": 71,
                    "time": 142.34583333333242,
                    "velocity": 0.5984251968503937,
                    "duration": 0.04583333333332007
                },
                {
                    "name": "G#4",
                    "midi": 68,
                    "time": 142.34791666666575,
                    "velocity": 0.5748031496062992,
                    "duration": 0.08125000000001137
                },
                {
                    "name": "D4",
                    "midi": 62,
                    "time": 142.3583333333324,
                    "velocity": 0.5984251968503937,
                    "duration": 0.05208333333334281
                },
                {
                    "name": "C#5",
                    "midi": 73,
                    "time": 142.60208333333242,
                    "velocity": 0.7244094488188977,
                    "duration": 0.07708333333332007
                },
                {
                    "name": "A#4",
                    "midi": 70,
                    "time": 142.6083333333324,
                    "velocity": 0.6456692913385826,
                    "duration": 0.04166666666665719
                },
                {
                    "name": "G4",
                    "midi": 67,
                    "time": 142.61041666666574,
                    "velocity": 0.5511811023622047,
                    "duration": 0.06041666666666856
                },
                {
                    "name": "D#4",
                    "midi": 63,
                    "time": 142.6145833333324,
                    "velocity": 0.7244094488188977,
                    "duration": 0.07708333333332007
                },
                {
                    "name": "E4",
                    "midi": 64,
                    "time": 142.96041666666574,
                    "velocity": 0.49606299212598426,
                    "duration": 0.0999999999999659
                },
                {
                    "name": "C5",
                    "midi": 72,
                    "time": 142.9645833333324,
                    "velocity": 0.6850393700787402,
                    "duration": 0.12499999999997158
                },
                {
                    "name": "F#4",
                    "midi": 66,
                    "time": 142.96874999999906,
                    "velocity": 0.5905511811023622,
                    "duration": 0.08541666666664582
                },
                {
                    "name": "A4",
                    "midi": 69,
                    "time": 142.96874999999906,
                    "velocity": 0.5748031496062992,
                    "duration": 0.09166666666664014
                },
                {
                    "name": "D4",
                    "midi": 62,
                    "time": 143.48958333333238,
                    "velocity": 0.6220472440944882,
                    "duration": 0.08541666666664582
                },
                {
                    "name": "D5",
                    "midi": 74,
                    "time": 143.4979166666657,
                    "velocity": 0.6692913385826772,
                    "duration": 0.10624999999998863
                },
                {
                    "name": "F#4",
                    "midi": 66,
                    "time": 143.5104166666657,
                    "velocity": 0.5984251968503937,
                    "duration": 0.12083333333333712
                },
                {
                    "name": "A4",
                    "midi": 69,
                    "time": 143.53124999999903,
                    "velocity": 0.33858267716535434,
                    "duration": 0.08124999999998295
                },
                {
                    "name": "D#5",
                    "midi": 75,
                    "time": 143.7791666666657,
                    "velocity": 0.7007874015748031,
                    "duration": 0.11041666666665151
                },
                {
                    "name": "F#4",
                    "midi": 66,
                    "time": 143.78749999999903,
                    "velocity": 0.5433070866141733,
                    "duration": 0.052083333333314386
                },
                {
                    "name": "C4",
                    "midi": 60,
                    "time": 143.79374999999902,
                    "velocity": 0.5984251968503937,
                    "duration": 0.04166666666665719
                },
                {
                    "name": "A4",
                    "midi": 69,
                    "time": 143.80833333333234,
                    "velocity": 0.2283464566929134,
                    "duration": 0.05208333333334281
                },
                {
                    "name": "C#4",
                    "midi": 61,
                    "time": 144.17499999999902,
                    "velocity": 0.5984251968503937,
                    "duration": 0.06458333333333144
                },
                {
                    "name": "E5",
                    "midi": 76,
                    "time": 144.19374999999903,
                    "velocity": 0.6456692913385826,
                    "duration": 0.14583333333331439
                },
                {
                    "name": "E4",
                    "midi": 64,
                    "time": 144.20624999999902,
                    "velocity": 0.33070866141732286,
                    "duration": 0.07708333333332007
                },
                {
                    "name": "A4",
                    "midi": 69,
                    "time": 144.21041666666568,
                    "velocity": 0.44881889763779526,
                    "duration": 0.15000000000000568
                },
                {
                    "name": "C#5",
                    "midi": 73,
                    "time": 144.806249999999,
                    "velocity": 0.7637795275590551,
                    "duration": 0.08541666666667425
                },
                {
                    "name": "A4",
                    "midi": 69,
                    "time": 144.82708333333235,
                    "velocity": 0.5433070866141733,
                    "duration": 0.054166666666674246
                },
                {
                    "name": "E4",
                    "midi": 64,
                    "time": 144.8479166666657,
                    "velocity": 0.25196850393700787,
                    "duration": 0.04374999999998863
                },
                {
                    "name": "A2",
                    "midi": 45,
                    "time": 144.8479166666657,
                    "velocity": 0.3543307086614173,
                    "duration": 0.3666666666666458
                },
                {
                    "name": "A4",
                    "midi": 69,
                    "time": 145.16458333333236,
                    "velocity": 0.7244094488188977,
                    "duration": 0.1312499999999659
                },
                {
                    "name": "B2",
                    "midi": 47,
                    "time": 145.1666666666657,
                    "velocity": 0.6692913385826772,
                    "duration": 0.44166666666663446
                },
                {
                    "name": "E4",
                    "midi": 64,
                    "time": 145.17083333333235,
                    "velocity": 0.6692913385826772,
                    "duration": 0.07916666666665151
                },
                {
                    "name": "C#4",
                    "midi": 61,
                    "time": 145.17708333333235,
                    "velocity": 0.6614173228346457,
                    "duration": 0.08541666666664582
                },
                {
                    "name": "D#4",
                    "midi": 63,
                    "time": 145.537499999999,
                    "velocity": 0.7795275590551181,
                    "duration": 0.4124999999999943
                },
                {
                    "name": "A3",
                    "midi": 57,
                    "time": 145.53958333333233,
                    "velocity": 0.7401574803149606,
                    "duration": 0.44583333333332575
                },
                {
                    "name": "G4",
                    "midi": 67,
                    "time": 145.54166666666566,
                    "velocity": 0.7795275590551181,
                    "duration": 0.3708333333333371
                },
                {
                    "name": "C3",
                    "midi": 48,
                    "time": 145.55208333333232,
                    "velocity": 0.6377952755905512,
                    "duration": 0.6770833333333428
                },
                {
                    "name": "F4",
                    "midi": 65,
                    "time": 146.193749999999,
                    "velocity": 0.8346456692913385,
                    "duration": 0.2041666666666515
                },
                {
                    "name": "C#3",
                    "midi": 49,
                    "time": 146.199999999999,
                    "velocity": 0.6062992125984252,
                    "duration": 0.4083333333332746
                },
                {
                    "name": "B3",
                    "midi": 59,
                    "time": 146.20208333333233,
                    "velocity": 0.7165354330708661,
                    "duration": 0.27499999999997726
                },
                {
                    "name": "G3",
                    "midi": 55,
                    "time": 146.20416666666566,
                    "velocity": 0.6614173228346457,
                    "duration": 0.23749999999998295
                },
                {
                    "name": "E4",
                    "midi": 64,
                    "time": 146.58749999999895,
                    "velocity": 0.7086614173228346,
                    "duration": 0.31041666666664014
                },
                {
                    "name": "D3",
                    "midi": 50,
                    "time": 146.58958333333229,
                    "velocity": 0.3937007874015748,
                    "duration": 0.4062499999999716
                },
                {
                    "name": "G#3",
                    "midi": 56,
                    "time": 146.59999999999894,
                    "velocity": 0.6535433070866141,
                    "duration": 0.37291666666666856
                },
                {
                    "name": "B3",
                    "midi": 59,
                    "time": 146.60833333333227,
                    "velocity": 0.6535433070866141,
                    "duration": 0.3062500000000057
                },
                {
                    "name": "E4",
                    "midi": 64,
                    "time": 146.98749999999893,
                    "velocity": 0.8188976377952756,
                    "duration": 0.606250000000017
                },
                {
                    "name": "A2",
                    "midi": 45,
                    "time": 147.26458333333227,
                    "velocity": 0.3858267716535433,
                    "duration": 0.1729166666666515
                },
                {
                    "name": "C#3",
                    "midi": 49,
                    "time": 147.3479166666656,
                    "velocity": 0.5669291338582677,
                    "duration": 0.0895833333333087
                },
                {
                    "name": "C#4",
                    "midi": 61,
                    "time": 147.39374999999893,
                    "velocity": 0.7874015748031497,
                    "duration": 0.11875000000000568
                },
                {
                    "name": "A3",
                    "midi": 57,
                    "time": 147.40208333333226,
                    "velocity": 0.6377952755905512,
                    "duration": 0.09375
                },
                {
                    "name": "A3",
                    "midi": 57,
                    "time": 147.65624999999895,
                    "velocity": 0.5354330708661418,
                    "duration": 0.07291666666665719
                },
                {
                    "name": "E2",
                    "midi": 40,
                    "time": 147.67083333333227,
                    "velocity": 0.5590551181102362,
                    "duration": 0.10833333333334849
                },
                {
                    "name": "F#2",
                    "midi": 42,
                    "time": 147.78958333333227,
                    "velocity": 0.5669291338582677,
                    "duration": 0.15625
                },
                {
                    "name": "E4",
                    "midi": 64,
                    "time": 147.79374999999894,
                    "velocity": 0.6220472440944882,
                    "duration": 0.11875000000000568
                },
                {
                    "name": "E2",
                    "midi": 40,
                    "time": 147.90624999999895,
                    "velocity": 0.5669291338582677,
                    "duration": 0.16041666666666288
                },
                {
                    "name": "F4",
                    "midi": 65,
                    "time": 147.91249999999894,
                    "velocity": 0.6692913385826772,
                    "duration": 0.11666666666667425
                },
                {
                    "name": "F#4",
                    "midi": 66,
                    "time": 148.03749999999894,
                    "velocity": 0.7165354330708661,
                    "duration": 0.056250000000005684
                },
                {
                    "name": "G2",
                    "midi": 43,
                    "time": 148.03958333333227,
                    "velocity": 0.8031496062992126,
                    "duration": 0.08333333333334281
                },
                {
                    "name": "A4",
                    "midi": 69,
                    "time": 148.15208333333229,
                    "velocity": 0.6614173228346457,
                    "duration": 0.10208333333332575
                },
                {
                    "name": "G2",
                    "midi": 43,
                    "time": 148.2979166666656,
                    "velocity": 0.8110236220472441,
                    "duration": 0.08749999999997726
                },
                {
                    "name": "E5",
                    "midi": 76,
                    "time": 148.31249999999892,
                    "velocity": 0.7086614173228346,
                    "duration": 0.14166666666667993
                },
                {
                    "name": "F5",
                    "midi": 77,
                    "time": 148.4354166666656,
                    "velocity": 0.6850393700787402,
                    "duration": 0.13125000000002274
                },
                {
                    "name": "F#5",
                    "midi": 78,
                    "time": 148.5479166666656,
                    "velocity": 0.7480314960629921,
                    "duration": 0.0666666666666913
                },
                {
                    "name": "A5",
                    "midi": 81,
                    "time": 148.65624999999895,
                    "velocity": 0.6929133858267716,
                    "duration": 0.09999999999999432
                },
                {
                    "name": "E2",
                    "midi": 40,
                    "time": 148.6916666666656,
                    "velocity": 0.7322834645669292,
                    "duration": 0.1354166666666572
                },
                {
                    "name": "E6",
                    "midi": 88,
                    "time": 148.77708333333229,
                    "velocity": 0.7874015748031497,
                    "duration": 0.13333333333332575
                },
                {
                    "name": "F#2",
                    "midi": 42,
                    "time": 148.78124999999895,
                    "velocity": 0.7716535433070866,
                    "duration": 0.1458333333333428
                },
                {
                    "name": "E2",
                    "midi": 40,
                    "time": 148.88749999999894,
                    "velocity": 0.7559055118110236,
                    "duration": 0.13749999999998863
                },
                {
                    "name": "F6",
                    "midi": 89,
                    "time": 148.88749999999894,
                    "velocity": 0.7874015748031497,
                    "duration": 0.12291666666666856
                },
                {
                    "name": "F#6",
                    "midi": 90,
                    "time": 148.9895833333323,
                    "velocity": 0.7952755905511811,
                    "duration": 0.06249999999997158
                },
                {
                    "name": "G2",
                    "midi": 43,
                    "time": 148.99583333333229,
                    "velocity": 0.8110236220472441,
                    "duration": 0.1354166666666572
                },
                {
                    "name": "A2",
                    "midi": 45,
                    "time": 149.10624999999894,
                    "velocity": 0.7559055118110236,
                    "duration": 0.13125000000002274
                },
                {
                    "name": "A6",
                    "midi": 93,
                    "time": 149.10833333333227,
                    "velocity": 0.7716535433070866,
                    "duration": 0.09166666666666856
                },
                {
                    "name": "G2",
                    "midi": 43,
                    "time": 149.22083333333228,
                    "velocity": 0.7559055118110236,
                    "duration": 0.1312499999999659
                },
                {
                    "name": "E7",
                    "midi": 100,
                    "time": 149.2395833333323,
                    "velocity": 0.6535433070866141,
                    "duration": 0.11874999999994884
                },
                {
                    "name": "F#2",
                    "midi": 42,
                    "time": 149.3166666666656,
                    "velocity": 0.8188976377952756,
                    "duration": 0.10624999999996021
                },
                {
                    "name": "F7",
                    "midi": 101,
                    "time": 149.3291666666656,
                    "velocity": 0.6456692913385826,
                    "duration": 0.05624999999997726
                },
                {
                    "name": "F#7",
                    "midi": 102,
                    "time": 149.45416666666557,
                    "velocity": 0.8976377952755905,
                    "duration": 0.08958333333333712
                },
                {
                    "name": "C#7",
                    "midi": 97,
                    "time": 149.46041666666557,
                    "velocity": 0.8661417322834646,
                    "duration": 0.12708333333333144
                },
                {
                    "name": "A6",
                    "midi": 93,
                    "time": 149.59166666666556,
                    "velocity": 0.6614173228346457,
                    "duration": 0.03125
                },
                {
                    "name": "E2",
                    "midi": 40,
                    "time": 149.60833333333224,
                    "velocity": 0.8188976377952756,
                    "duration": 0.09375
                },
                {
                    "name": "F#2",
                    "midi": 42,
                    "time": 149.6749999999989,
                    "velocity": 0.7874015748031497,
                    "duration": 0.15833333333333144
                },
                {
                    "name": "E6",
                    "midi": 88,
                    "time": 149.70208333333224,
                    "velocity": 0.8582677165354331,
                    "duration": 0.17708333333331439
                },
                {
                    "name": "E2",
                    "midi": 40,
                    "time": 149.78958333333225,
                    "velocity": 0.7559055118110236,
                    "duration": 0.1374999999999602
                },
                {
                    "name": "F6",
                    "midi": 89,
                    "time": 149.80208333333223,
                    "velocity": 0.7795275590551181,
                    "duration": 0.07916666666665151
                },
                {
                    "name": "G2",
                    "midi": 43,
                    "time": 149.90416666666553,
                    "velocity": 0.9133858267716536,
                    "duration": 0.08541666666667425
                },
                {
                    "name": "C#6",
                    "midi": 85,
                    "time": 149.9208333333322,
                    "velocity": 0.8976377952755905,
                    "duration": 0.08750000000000568
                },
                {
                    "name": "F#6",
                    "midi": 90,
                    "time": 149.9333333333322,
                    "velocity": 0.8110236220472441,
                    "duration": 0.07708333333334849
                },
                {
                    "name": "A5",
                    "midi": 81,
                    "time": 150.0208333333322,
                    "velocity": 0.7165354330708661,
                    "duration": 0.0625
                },
                {
                    "name": "G2",
                    "midi": 43,
                    "time": 150.1520833333322,
                    "velocity": 0.8031496062992126,
                    "duration": 0.06874999999999432
                },
                {
                    "name": "E5",
                    "midi": 76,
                    "time": 150.16666666666552,
                    "velocity": 0.8346456692913385,
                    "duration": 0.11458333333334281
                },
                {
                    "name": "F5",
                    "midi": 77,
                    "time": 150.2708333333322,
                    "velocity": 0.7007874015748031,
                    "duration": 0.10416666666662877
                },
                {
                    "name": "F#5",
                    "midi": 78,
                    "time": 150.39374999999885,
                    "velocity": 0.8503937007874016,
                    "duration": 0.10416666666668561
                },
                {
                    "name": "C#5",
                    "midi": 73,
                    "time": 150.3979166666655,
                    "velocity": 0.8661417322834646,
                    "duration": 0.08958333333336554
                },
                {
                    "name": "A4",
                    "midi": 69,
                    "time": 150.49791666666553,
                    "velocity": 0.6535433070866141,
                    "duration": 0.05000000000001137
                },
                {
                    "name": "E2",
                    "midi": 40,
                    "time": 150.54999999999887,
                    "velocity": 0.7244094488188977,
                    "duration": 0.12916666666666288
                },
                {
                    "name": "E4",
                    "midi": 64,
                    "time": 150.62916666666555,
                    "velocity": 0.6377952755905512,
                    "duration": 0.11875000000000568
                },
                {
                    "name": "F#2",
                    "midi": 42,
                    "time": 150.64374999999887,
                    "velocity": 0.7086614173228346,
                    "duration": 0.16250000000002274
                },
                {
                    "name": "F4",
                    "midi": 65,
                    "time": 150.72916666666555,
                    "velocity": 0.7874015748031497,
                    "duration": 0.0979166666666913
                },
                {
                    "name": "E2",
                    "midi": 40,
                    "time": 150.75208333333222,
                    "velocity": 0.6850393700787402,
                    "duration": 0.14583333333331439
                },
                {
                    "name": "G2",
                    "midi": 43,
                    "time": 150.86666666666557,
                    "velocity": 0.7952755905511811,
                    "duration": 0.13333333333329733
                },
                {
                    "name": "C#4",
                    "midi": 61,
                    "time": 150.8749999999989,
                    "velocity": 0.9291338582677166,
                    "duration": 0.10208333333329733
                },
                {
                    "name": "F#4",
                    "midi": 66,
                    "time": 150.8812499999989,
                    "velocity": 0.8661417322834646,
                    "duration": 0.11249999999998295
                },
                {
                    "name": "A3",
                    "midi": 57,
                    "time": 150.88541666666555,
                    "velocity": 0.6771653543307087,
                    "duration": 0.054166666666645824
                },
                {
                    "name": "B3",
                    "midi": 59,
                    "time": 150.9020833333322,
                    "velocity": 0.6062992125984252,
                    "duration": 0.04166666666665719
                },
                {
                    "name": "F4",
                    "midi": 65,
                    "time": 151.01874999999887,
                    "velocity": 0.7401574803149606,
                    "duration": 0.13333333333335418
                },
                {
                    "name": "A2",
                    "midi": 45,
                    "time": 151.0770833333322,
                    "velocity": 0.6299212598425197,
                    "duration": 0.13124999999999432
                },
                {
                    "name": "E4",
                    "midi": 64,
                    "time": 151.16666666666555,
                    "velocity": 0.7086614173228346,
                    "duration": 0.15000000000000568
                },
                {
                    "name": "G2",
                    "midi": 43,
                    "time": 151.22708333333222,
                    "velocity": 0.5905511811023622,
                    "duration": 0.13124999999999432
                },
                {
                    "name": "F#2",
                    "midi": 42,
                    "time": 151.32916666666554,
                    "velocity": 0.6299212598425197,
                    "duration": 0.12916666666666288
                },
                {
                    "name": "C3",
                    "midi": 48,
                    "time": 151.57708333333218,
                    "velocity": 0.4251968503937008,
                    "duration": 1.8374999999999773
                },
                {
                    "name": "F2",
                    "midi": 41,
                    "time": 151.57916666666551,
                    "velocity": 0.4251968503937008,
                    "duration": 2.364583333333286
                },
                {
                    "name": "A3",
                    "midi": 57,
                    "time": 152.03749999999886,
                    "velocity": 0.6614173228346457,
                    "duration": 2.1499999999999204
                },
                {
                    "name": "C4",
                    "midi": 60,
                    "time": 152.44166666666553,
                    "velocity": 0.8582677165354331,
                    "duration": 1.7583333333332405
                },
                {
                    "name": "D4",
                    "midi": 62,
                    "time": 152.72083333333217,
                    "velocity": 0.8346456692913385,
                    "duration": 0.3291666666666515
                },
                {
                    "name": "E4",
                    "midi": 64,
                    "time": 152.98124999999882,
                    "velocity": 0.7716535433070866,
                    "duration": 0.4124999999999943
                },
                {
                    "name": "F4",
                    "midi": 65,
                    "time": 153.3374999999988,
                    "velocity": 0.7165354330708661,
                    "duration": 0.8666666666666174
                },
                {
                    "name": "D#3",
                    "midi": 51,
                    "time": 153.34583333333214,
                    "velocity": 0.7244094488188977,
                    "duration": 0.3125000000000284
                },
                {
                    "name": "D3",
                    "midi": 50,
                    "time": 153.64583333333218,
                    "velocity": 0.7716535433070866,
                    "duration": 0.28958333333329733
                },
                {
                    "name": "C#3",
                    "midi": 49,
                    "time": 153.8749999999988,
                    "velocity": 0.7244094488188977,
                    "duration": 0.3187499999999659
                },
                {
                    "name": "C3",
                    "midi": 48,
                    "time": 154.1312499999988,
                    "velocity": 0.6062992125984252,
                    "duration": 1.4833333333332064
                },
                {
                    "name": "F2",
                    "midi": 41,
                    "time": 154.14166666666546,
                    "velocity": 0.5511811023622047,
                    "duration": 1.9187499999998465
                },
                {
                    "name": "A3",
                    "midi": 57,
                    "time": 154.44999999999874,
                    "velocity": 0.5511811023622047,
                    "duration": 1.793749999999875
                },
                {
                    "name": "C4",
                    "midi": 60,
                    "time": 154.70833333333206,
                    "velocity": 0.6929133858267716,
                    "duration": 0.706249999999983
                },
                {
                    "name": "D4",
                    "midi": 62,
                    "time": 154.91041666666538,
                    "velocity": 0.7086614173228346,
                    "duration": 0.3479166666666629
                },
                {
                    "name": "F4",
                    "midi": 65,
                    "time": 155.16041666666538,
                    "velocity": 0.7401574803149606,
                    "duration": 0.19583333333332575
                },
                {
                    "name": "A4",
                    "midi": 69,
                    "time": 155.5062499999987,
                    "velocity": 0.6692913385826772,
                    "duration": 0.7166666666666117
                },
                {
                    "name": "D#3",
                    "midi": 51,
                    "time": 155.520833333332,
                    "velocity": 0.5354330708661418,
                    "duration": 0.2541666666666629
                },
                {
                    "name": "D3",
                    "midi": 50,
                    "time": 155.783333333332,
                    "velocity": 0.6614173228346457,
                    "duration": 0.283333333333303
                },
                {
                    "name": "C#3",
                    "midi": 49,
                    "time": 155.977083333332,
                    "velocity": 0.8267716535433071,
                    "duration": 0.29583333333329165
                },
                {
                    "name": "C3",
                    "midi": 48,
                    "time": 156.2104166666653,
                    "velocity": 0.7086614173228346,
                    "duration": 1.6958333333332973
                },
                {
                    "name": "F2",
                    "midi": 41,
                    "time": 156.2229166666653,
                    "velocity": 0.6456692913385826,
                    "duration": 1.5083333333333258
                },
                {
                    "name": "A3",
                    "midi": 57,
                    "time": 156.4749999999986,
                    "velocity": 0.8188976377952756,
                    "duration": 1.2062500000000114
                },
                {
                    "name": "C4",
                    "midi": 60,
                    "time": 156.71666666666528,
                    "velocity": 0.7795275590551181,
                    "duration": 0.9583333333333428
                },
                {
                    "name": "D4",
                    "midi": 62,
                    "time": 156.96041666666528,
                    "velocity": 0.6929133858267716,
                    "duration": 0.7104166666666742
                },
                {
                    "name": "F4",
                    "midi": 65,
                    "time": 157.20624999999862,
                    "velocity": 0.7874015748031497,
                    "duration": 0.4749999999999943
                },
                {
                    "name": "G4",
                    "midi": 67,
                    "time": 157.5062499999986,
                    "velocity": 0.8110236220472441,
                    "duration": 0.19791666666668561
                },
                {
                    "name": "A4",
                    "midi": 69,
                    "time": 157.7874999999986,
                    "velocity": 0.8818897637795275,
                    "duration": 0.2020833333333485
                },
                {
                    "name": "F2",
                    "midi": 41,
                    "time": 157.92916666666528,
                    "velocity": 0.8031496062992126,
                    "duration": 0.2854166666666629
                },
                {
                    "name": "C3",
                    "midi": 48,
                    "time": 158.20624999999862,
                    "velocity": 0.4409448818897638,
                    "duration": 0.07291666666665719
                },
                {
                    "name": "C5",
                    "midi": 72,
                    "time": 158.28958333333193,
                    "velocity": 0.9291338582677166,
                    "duration": 2.052083333333286
                },
                {
                    "name": "F4",
                    "midi": 65,
                    "time": 158.2937499999986,
                    "velocity": 0.8740157480314961,
                    "duration": 2.07499999999996
                },
                {
                    "name": "D4",
                    "midi": 62,
                    "time": 158.29791666666526,
                    "velocity": 0.8582677165354331,
                    "duration": 2.037499999999966
                },
                {
                    "name": "G#3",
                    "midi": 56,
                    "time": 158.31041666666525,
                    "velocity": 0.84251968503937,
                    "duration": 0.039583333333325754
                },
                {
                    "name": "F2",
                    "midi": 41,
                    "time": 159.0770833333319,
                    "velocity": 0.8976377952755905,
                    "duration": 0.3645833333333428
                },
                {
                    "name": "G#2",
                    "midi": 44,
                    "time": 159.44999999999857,
                    "velocity": 0.9133858267716536,
                    "duration": 0.3166666666666629
                },
                {
                    "name": "A#2",
                    "midi": 46,
                    "time": 159.68541666666525,
                    "velocity": 0.8661417322834646,
                    "duration": 0.2770833333333087
                },
                {
                    "name": "C3",
                    "midi": 48,
                    "time": 159.90624999999855,
                    "velocity": 0.84251968503937,
                    "duration": 0.28125
                },
                {
                    "name": "D3",
                    "midi": 50,
                    "time": 160.12708333333188,
                    "velocity": 0.8582677165354331,
                    "duration": 0.26666666666667993
                },
                {
                    "name": "D#3",
                    "midi": 51,
                    "time": 160.33124999999856,
                    "velocity": 0.8976377952755905,
                    "duration": 0.2562499999999943
                },
                {
                    "name": "F3",
                    "midi": 53,
                    "time": 160.52916666666522,
                    "velocity": 0.8582677165354331,
                    "duration": 0.29583333333332007
                },
                {
                    "name": "D#4",
                    "midi": 63,
                    "time": 160.79791666666523,
                    "velocity": 0.7480314960629921,
                    "duration": 0.5687499999999943
                },
                {
                    "name": "C4",
                    "midi": 60,
                    "time": 160.79999999999856,
                    "velocity": 0.7086614173228346,
                    "duration": 0.14583333333331439
                },
                {
                    "name": "C5",
                    "midi": 72,
                    "time": 160.80416666666522,
                    "velocity": 0.7086614173228346,
                    "duration": 0.5625
                },
                {
                    "name": "G4",
                    "midi": 67,
                    "time": 160.81041666666522,
                    "velocity": 0.7165354330708661,
                    "duration": 0.5979166666666629
                },
                {
                    "name": "G3",
                    "midi": 55,
                    "time": 160.8166666666652,
                    "velocity": 0.8503937007874016,
                    "duration": 0.09999999999999432
                },
                {
                    "name": "B4",
                    "midi": 71,
                    "time": 160.84166666666522,
                    "velocity": 0.25984251968503935,
                    "duration": 0.037499999999994316
                },
                {
                    "name": "C2",
                    "midi": 36,
                    "time": 161.34999999999854,
                    "velocity": 0.9448818897637795,
                    "duration": 0.06041666666666856
                },
                {
                    "name": "F#3",
                    "midi": 54,
                    "time": 161.9541666666652,
                    "velocity": 0.6377952755905512,
                    "duration": 0.1208333333333087
                },
                {
                    "name": "F3",
                    "midi": 53,
                    "time": 162.05624999999853,
                    "velocity": 0.7716535433070866,
                    "duration": 1.5958333333332462
                },
                {
                    "name": "A#4",
                    "midi": 70,
                    "time": 162.07916666666517,
                    "velocity": 0.889763779527559,
                    "duration": 0.3541666666666572
                },
                {
                    "name": "B3",
                    "midi": 59,
                    "time": 162.07916666666517,
                    "velocity": 0.8740157480314961,
                    "duration": 0.5395833333333258
                },
                {
                    "name": "D#4",
                    "midi": 63,
                    "time": 162.0812499999985,
                    "velocity": 0.8582677165354331,
                    "duration": 0.3979166666666458
                },
                {
                    "name": "G#4",
                    "midi": 68,
                    "time": 162.42916666666517,
                    "velocity": 0.6220472440944882,
                    "duration": 0.19374999999999432
                },
                {
                    "name": "A#4",
                    "midi": 70,
                    "time": 162.59791666666516,
                    "velocity": 0.7480314960629921,
                    "duration": 0.15208333333333712
                },
                {
                    "name": "G2",
                    "midi": 43,
                    "time": 162.83124999999848,
                    "velocity": 0.36220472440944884,
                    "duration": 0.7041666666666231
                },
                {
                    "name": "B3",
                    "midi": 59,
                    "time": 162.84791666666513,
                    "velocity": 0.47244094488188976,
                    "duration": 0.7249999999999659
                },
                {
                    "name": "D4",
                    "midi": 62,
                    "time": 162.85833333333179,
                    "velocity": 0.4409448818897638,
                    "duration": 0.8083333333333087
                },
                {
                    "name": "G#4",
                    "midi": 68,
                    "time": 162.86249999999845,
                    "velocity": 0.5748031496062992,
                    "duration": 0.26874999999998295
                },
                {
                    "name": "A#4",
                    "midi": 70,
                    "time": 163.12499999999844,
                    "velocity": 0.5590551181102362,
                    "duration": 0.30416666666667425
                },
                {
                    "name": "G#4",
                    "midi": 68,
                    "time": 163.45833333333178,
                    "velocity": 0.4251968503937008,
                    "duration": 0.28958333333332575
                },
                {
                    "name": "E5",
                    "midi": 76,
                    "time": 164.18124999999844,
                    "velocity": 0.5118110236220472,
                    "duration": 0.07499999999998863
                },
                {
                    "name": "A#3",
                    "midi": 58,
                    "time": 164.21874999999847,
                    "velocity": 0.3779527559055118,
                    "duration": 1.1395833333332916
                },
                {
                    "name": "F5",
                    "midi": 77,
                    "time": 164.2270833333318,
                    "velocity": 0.5590551181102362,
                    "duration": 0.0999999999999659
                },
                {
                    "name": "D4",
                    "midi": 62,
                    "time": 164.23958333333178,
                    "velocity": 0.2755905511811024,
                    "duration": 0.9833333333333201
                },
                {
                    "name": "E3",
                    "midi": 52,
                    "time": 164.25208333333177,
                    "velocity": 0.3858267716535433,
                    "duration": 0.5625
                },
                {
                    "name": "F#5",
                    "midi": 78,
                    "time": 164.2854166666651,
                    "velocity": 0.6299212598425197,
                    "duration": 0.08541666666667425
                },
                {
                    "name": "G5",
                    "midi": 79,
                    "time": 164.3479166666651,
                    "velocity": 0.6614173228346457,
                    "duration": 0.11250000000001137
                },
                {
                    "name": "F5",
                    "midi": 77,
                    "time": 164.78749999999843,
                    "velocity": 0.6220472440944882,
                    "duration": 0.15000000000000568
                },
                {
                    "name": "F3",
                    "midi": 53,
                    "time": 164.8229166666651,
                    "velocity": 0.25984251968503935,
                    "duration": 0.3083333333333371
                },
                {
                    "name": "F#3",
                    "midi": 54,
                    "time": 165.1166666666651,
                    "velocity": 0.5748031496062992,
                    "duration": 0.23124999999998863
                },
                {
                    "name": "E5",
                    "midi": 76,
                    "time": 165.12499999999844,
                    "velocity": 0.6062992125984252,
                    "duration": 0.07708333333332007
                },
                {
                    "name": "A#3",
                    "midi": 58,
                    "time": 165.48958333333175,
                    "velocity": 0.4094488188976378,
                    "duration": 1.0750000000000455
                },
                {
                    "name": "C#4",
                    "midi": 61,
                    "time": 165.4937499999984,
                    "velocity": 0.48031496062992124,
                    "duration": 1.0229166666667027
                },
                {
                    "name": "D#5",
                    "midi": 75,
                    "time": 165.51874999999842,
                    "velocity": 0.6141732283464567,
                    "duration": 0.6812500000000341
                },
                {
                    "name": "G3",
                    "midi": 55,
                    "time": 165.52291666666508,
                    "velocity": 0.3779527559055118,
                    "duration": 0.7312500000000455
                },
                {
                    "name": "F5",
                    "midi": 77,
                    "time": 166.1791666666651,
                    "velocity": 0.7244094488188977,
                    "duration": 0.13750000000001705
                },
                {
                    "name": "F3",
                    "midi": 53,
                    "time": 166.19791666666512,
                    "velocity": 0.3228346456692913,
                    "duration": 0.3062500000000057
                },
                {
                    "name": "F#5",
                    "midi": 78,
                    "time": 166.47291666666513,
                    "velocity": 0.8110236220472441,
                    "duration": 0.22083333333333144
                },
                {
                    "name": "E3",
                    "midi": 52,
                    "time": 166.48124999999845,
                    "velocity": 0.4645669291338583,
                    "duration": 0.5020833333333314
                },
                {
                    "name": "G5",
                    "midi": 79,
                    "time": 166.7458333333318,
                    "velocity": 0.8346456692913385,
                    "duration": 0.6291666666666345
                },
                {
                    "name": "D#3",
                    "midi": 51,
                    "time": 166.9916666666651,
                    "velocity": 0.44881889763779526,
                    "duration": 1.099999999999966
                },
                {
                    "name": "C4",
                    "midi": 60,
                    "time": 167.00833333333176,
                    "velocity": 0.5669291338582677,
                    "duration": 0.6729166666666799
                },
                {
                    "name": "G3",
                    "midi": 55,
                    "time": 167.01458333333176,
                    "velocity": 0.47244094488188976,
                    "duration": 0.9520833333333201
                },
                {
                    "name": "D#5",
                    "midi": 75,
                    "time": 167.32708333333176,
                    "velocity": 0.8503937007874016,
                    "duration": 0.11666666666667425
                },
                {
                    "name": "C5",
                    "midi": 72,
                    "time": 167.6916666666651,
                    "velocity": 0.8110236220472441,
                    "duration": 0.1354166666666572
                },
                {
                    "name": "A#4",
                    "midi": 70,
                    "time": 168.10833333333176,
                    "velocity": 0.7637795275590551,
                    "duration": 1.5104166666666288
                },
                {
                    "name": "G2",
                    "midi": 43,
                    "time": 168.59999999999843,
                    "velocity": 0.3464566929133858,
                    "duration": 0.23958333333331439
                },
                {
                    "name": "D3",
                    "midi": 50,
                    "time": 168.7124999999984,
                    "velocity": 0.3858267716535433,
                    "duration": 0.16249999999999432
                },
                {
                    "name": "B3",
                    "midi": 59,
                    "time": 168.7874999999984,
                    "velocity": 0.28346456692913385,
                    "duration": 0.22499999999999432
                },
                {
                    "name": "F4",
                    "midi": 65,
                    "time": 168.8687499999984,
                    "velocity": 0.3464566929133858,
                    "duration": 0.8958333333333144
                },
                {
                    "name": "G#4",
                    "midi": 68,
                    "time": 169.61458333333172,
                    "velocity": 0.49606299212598426,
                    "duration": 0.46875
                },
                {
                    "name": "G4",
                    "midi": 67,
                    "time": 170.21041666666505,
                    "velocity": 0.28346456692913385,
                    "duration": 0.6437500000000114
                },
                {
                    "name": "G4",
                    "midi": 67,
                    "time": 171.26041666666507,
                    "velocity": 0.23622047244094488,
                    "duration": 0.5958333333333314
                },
                {
                    "name": "C2",
                    "midi": 36,
                    "time": 172.62291666666508,
                    "velocity": 0.31496062992125984,
                    "duration": 0.41458333333332575
                },
                {
                    "name": "E3",
                    "midi": 52,
                    "time": 172.64791666666505,
                    "velocity": 0.41732283464566927,
                    "duration": 0.5020833333333599
                },
                {
                    "name": "G3",
                    "midi": 55,
                    "time": 172.83333333333172,
                    "velocity": 0.4566929133858268,
                    "duration": 0.10416666666665719
                },
                {
                    "name": "A3",
                    "midi": 57,
                    "time": 172.9708333333317,
                    "velocity": 0.49606299212598426,
                    "duration": 0.09375000000002842
                },
                {
                    "name": "C3",
                    "midi": 48,
                    "time": 172.98958333333172,
                    "velocity": 0.3543307086614173,
                    "duration": 0.20000000000001705
                },
                {
                    "name": "G3",
                    "midi": 55,
                    "time": 173.0874999999984,
                    "velocity": 0.41732283464566927,
                    "duration": 0.09999999999999432
                },
                {
                    "name": "A#3",
                    "midi": 58,
                    "time": 173.17916666666508,
                    "velocity": 0.5984251968503937,
                    "duration": 0.09999999999999432
                },
                {
                    "name": "G2",
                    "midi": 43,
                    "time": 173.2499999999984,
                    "velocity": 0.11023622047244094,
                    "duration": 0.19583333333332575
                },
                {
                    "name": "A#3",
                    "midi": 58,
                    "time": 173.43541666666508,
                    "velocity": 0.6771653543307087,
                    "duration": 0.10624999999998863
                },
                {
                    "name": "B1",
                    "midi": 35,
                    "time": 173.66458333333173,
                    "velocity": 0.47244094488188976,
                    "duration": 0.19791666666662877
                },
                {
                    "name": "D#3",
                    "midi": 51,
                    "time": 173.6687499999984,
                    "velocity": 0.6377952755905512,
                    "duration": 0.07499999999998863
                },
                {
                    "name": "A3",
                    "midi": 57,
                    "time": 173.78749999999837,
                    "velocity": 0.33858267716535434,
                    "duration": 0.08541666666664582
                },
                {
                    "name": "B2",
                    "midi": 47,
                    "time": 173.87708333333168,
                    "velocity": 0.30708661417322836,
                    "duration": 0.18333333333333712
                },
                {
                    "name": "B3",
                    "midi": 59,
                    "time": 173.87916666666501,
                    "velocity": 0.4330708661417323,
                    "duration": 0.09166666666666856
                },
                {
                    "name": "A3",
                    "midi": 57,
                    "time": 173.96874999999835,
                    "velocity": 0.5354330708661418,
                    "duration": 0.10416666666665719
                },
                {
                    "name": "C#4",
                    "midi": 61,
                    "time": 174.0583333333317,
                    "velocity": 0.7401574803149606,
                    "duration": 0.1666666666666572
                },
                {
                    "name": "F#2",
                    "midi": 42,
                    "time": 174.06041666666502,
                    "velocity": 0.4015748031496063,
                    "duration": 0.18541666666666856
                },
                {
                    "name": "D#4",
                    "midi": 63,
                    "time": 174.18958333333168,
                    "velocity": 0.6456692913385826,
                    "duration": 0.09791666666666288
                },
                {
                    "name": "B1",
                    "midi": 35,
                    "time": 174.204166666665,
                    "velocity": 0.4645669291338583,
                    "duration": 0.13333333333335418
                },
                {
                    "name": "B3",
                    "midi": 59,
                    "time": 174.24374999999836,
                    "velocity": 0.6456692913385826,
                    "duration": 0.12291666666666856
                },
                {
                    "name": "A3",
                    "midi": 57,
                    "time": 174.35624999999837,
                    "velocity": 0.4645669291338583,
                    "duration": 0.08333333333334281
                },
                {
                    "name": "D#2",
                    "midi": 39,
                    "time": 174.4458333333317,
                    "velocity": 0.6062992125984252,
                    "duration": 0.3312499999999545
                },
                {
                    "name": "G3",
                    "midi": 55,
                    "time": 174.45416666666503,
                    "velocity": 0.7007874015748031,
                    "duration": 0.16041666666663446
                },
                {
                    "name": "A#3",
                    "midi": 58,
                    "time": 174.56249999999835,
                    "velocity": 0.7637795275590551,
                    "duration": 0.09583333333330302
                },
                {
                    "name": "C4",
                    "midi": 60,
                    "time": 174.64999999999833,
                    "velocity": 0.5748031496062992,
                    "duration": 0.10624999999998863
                },
                {
                    "name": "D#3",
                    "midi": 51,
                    "time": 174.69374999999832,
                    "velocity": 0.36220472440944884,
                    "duration": 0.20000000000001705
                },
                {
                    "name": "A#3",
                    "midi": 58,
                    "time": 174.74374999999833,
                    "velocity": 0.5984251968503937,
                    "duration": 0.09999999999999432
                },
                {
                    "name": "C#4",
                    "midi": 61,
                    "time": 174.85416666666498,
                    "velocity": 0.7795275590551181,
                    "duration": 0.05000000000001137
                },
                {
                    "name": "A#2",
                    "midi": 46,
                    "time": 174.87083333333166,
                    "velocity": 0.47244094488188976,
                    "duration": 0.22083333333333144
                },
                {
                    "name": "C#4",
                    "midi": 61,
                    "time": 175.05833333333166,
                    "velocity": 0.889763779527559,
                    "duration": 0.07291666666665719
                },
                {
                    "name": "D#2",
                    "midi": 39,
                    "time": 175.07708333333167,
                    "velocity": 0.5590551181102362,
                    "duration": 0.08541666666664582
                },
                {
                    "name": "F#3",
                    "midi": 54,
                    "time": 175.27083333333164,
                    "velocity": 0.889763779527559,
                    "duration": 0.05833333333333712
                },
                {
                    "name": "D2",
                    "midi": 38,
                    "time": 175.27083333333164,
                    "velocity": 0.7165354330708661,
                    "duration": 0.12916666666666288
                },
                {
                    "name": "C4",
                    "midi": 60,
                    "time": 175.37916666666496,
                    "velocity": 0.5984251968503937,
                    "duration": 0.09583333333333144
                },
                {
                    "name": "D3",
                    "midi": 50,
                    "time": 175.43958333333163,
                    "velocity": 0.5354330708661418,
                    "duration": 0.1666666666666572
                },
                {
                    "name": "D4",
                    "midi": 62,
                    "time": 175.46041666666497,
                    "velocity": 0.7322834645669292,
                    "duration": 0.10833333333332007
                },
                {
                    "name": "C4",
                    "midi": 60,
                    "time": 175.57916666666495,
                    "velocity": 0.7322834645669292,
                    "duration": 0.09583333333333144
                },
                {
                    "name": "E4",
                    "midi": 64,
                    "time": 175.6624999999983,
                    "velocity": 0.7401574803149606,
                    "duration": 0.1354166666666572
                },
                {
                    "name": "A2",
                    "midi": 45,
                    "time": 175.6624999999983,
                    "velocity": 0.2992125984251969,
                    "duration": 0.10208333333332575
                },
                {
                    "name": "D2",
                    "midi": 38,
                    "time": 175.74374999999827,
                    "velocity": 0.7086614173228346,
                    "duration": 0.07291666666668561
                },
                {
                    "name": "F#4",
                    "midi": 66,
                    "time": 175.7708333333316,
                    "velocity": 0.7874015748031497,
                    "duration": 0.08958333333333712
                },
                {
                    "name": "D4",
                    "midi": 62,
                    "time": 175.85208333333162,
                    "velocity": 0.6377952755905512,
                    "duration": 0.09583333333333144
                },
                {
                    "name": "C4",
                    "midi": 60,
                    "time": 175.91666666666495,
                    "velocity": 0.7322834645669292,
                    "duration": 0.07291666666665719
                },
                {
                    "name": "C#2",
                    "midi": 37,
                    "time": 176.03958333333162,
                    "velocity": 0.7480314960629921,
                    "duration": 0.04583333333332007
                },
                {
                    "name": "C#3",
                    "midi": 49,
                    "time": 176.04166666666495,
                    "velocity": 0.984251968503937,
                    "duration": 0.06666666666666288
                },
                {
                    "name": "F3",
                    "midi": 53,
                    "time": 176.24791666666493,
                    "velocity": 0.6141732283464567,
                    "duration": 0.07500000000001705
                },
                {
                    "name": "B3",
                    "midi": 59,
                    "time": 176.3020833333316,
                    "velocity": 0.5984251968503937,
                    "duration": 0.08125000000001137
                },
                {
                    "name": "D4",
                    "midi": 62,
                    "time": 176.33124999999828,
                    "velocity": 0.7244094488188977,
                    "duration": 0.1729166666666515
                },
                {
                    "name": "G4",
                    "midi": 67,
                    "time": 176.35833333333161,
                    "velocity": 0.6771653543307087,
                    "duration": 0.09999999999999432
                },
                {
                    "name": "C#5",
                    "midi": 73,
                    "time": 176.44583333333162,
                    "velocity": 0.9448818897637795,
                    "duration": 0.0583333333333087
                },
                {
                    "name": "F3",
                    "midi": 53,
                    "time": 176.56666666666493,
                    "velocity": 0.5039370078740157,
                    "duration": 0.05833333333333712
                },
                {
                    "name": "B3",
                    "midi": 59,
                    "time": 176.63541666666492,
                    "velocity": 0.44881889763779526,
                    "duration": 0.06875000000002274
                },
                {
                    "name": "D4",
                    "midi": 62,
                    "time": 176.6520833333316,
                    "velocity": 0.6614173228346457,
                    "duration": 0.16458333333332575
                },
                {
                    "name": "G4",
                    "midi": 67,
                    "time": 176.6770833333316,
                    "velocity": 0.6929133858267716,
                    "duration": 0.09583333333333144
                },
                {
                    "name": "C#4",
                    "midi": 61,
                    "time": 176.76458333333161,
                    "velocity": 0.9291338582677166,
                    "duration": 0.0895833333333087
                },
                {
                    "name": "F3",
                    "midi": 53,
                    "time": 176.8395833333316,
                    "velocity": 0.5196850393700787,
                    "duration": 0.04791666666665151
                },
                {
                    "name": "D4",
                    "midi": 62,
                    "time": 176.93124999999824,
                    "velocity": 0.7401574803149606,
                    "duration": 0.14791666666667425
                },
                {
                    "name": "B3",
                    "midi": 59,
                    "time": 176.93958333333157,
                    "velocity": 0.4330708661417323,
                    "duration": 0.05000000000001137
                },
                {
                    "name": "G4",
                    "midi": 67,
                    "time": 176.96249999999824,
                    "velocity": 0.6692913385826772,
                    "duration": 0.09166666666666856
                },
                {
                    "name": "C#3",
                    "midi": 49,
                    "time": 177.03333333333157,
                    "velocity": 0.8582677165354331,
                    "duration": 0.11458333333334281
                },
                {
                    "name": "F3",
                    "midi": 53,
                    "time": 177.11041666666492,
                    "velocity": 0.5354330708661418,
                    "duration": 0.08750000000000568
                },
                {
                    "name": "B3",
                    "midi": 59,
                    "time": 177.19999999999825,
                    "velocity": 0.5590551181102362,
                    "duration": 0.1520833333333087
                },
                {
                    "name": "D4",
                    "midi": 62,
                    "time": 177.20833333333158,
                    "velocity": 0.7165354330708661,
                    "duration": 0.1416666666666515
                },
                {
                    "name": "G4",
                    "midi": 67,
                    "time": 177.2479166666649,
                    "velocity": 0.5039370078740157,
                    "duration": 0.06458333333333144
                },
                {
                    "name": "C#4",
                    "midi": 61,
                    "time": 177.26249999999823,
                    "velocity": 0.8582677165354331,
                    "duration": 0.07500000000001705
                },
                {
                    "name": "F3",
                    "midi": 53,
                    "time": 177.35208333333156,
                    "velocity": 0.6771653543307087,
                    "duration": 0.10416666666668561
                },
                {
                    "name": "B3",
                    "midi": 59,
                    "time": 177.43749999999824,
                    "velocity": 0.6220472440944882,
                    "duration": 0.0979166666666913
                },
                {
                    "name": "D4",
                    "midi": 62,
                    "time": 177.47916666666492,
                    "velocity": 0.7007874015748031,
                    "duration": 0.09583333333333144
                },
                {
                    "name": "G4",
                    "midi": 67,
                    "time": 177.51249999999825,
                    "velocity": 0.7244094488188977,
                    "duration": 0.08541666666667425
                },
                {
                    "name": "C#5",
                    "midi": 73,
                    "time": 177.57499999999825,
                    "velocity": 0.968503937007874,
                    "duration": 0.054166666666674246
                },
                {
                    "name": "F#2",
                    "midi": 42,
                    "time": 178.14583333333158,
                    "velocity": 0.9291338582677166,
                    "duration": 0.4479166666666572
                },
                {
                    "name": "A#3",
                    "midi": 58,
                    "time": 178.15624999999824,
                    "velocity": 0.905511811023622,
                    "duration": 0.3916666666666515
                },
                {
                    "name": "C#4",
                    "midi": 61,
                    "time": 178.28749999999823,
                    "velocity": 0.7401574803149606,
                    "duration": 0.10624999999998863
                },
                {
                    "name": "D#4",
                    "midi": 63,
                    "time": 178.38333333333156,
                    "velocity": 0.7165354330708661,
                    "duration": 0.13749999999998863
                },
                {
                    "name": "F#3",
                    "midi": 54,
                    "time": 178.42708333333155,
                    "velocity": 0.7401574803149606,
                    "duration": 0.1708333333333485
                },
                {
                    "name": "C#4",
                    "midi": 61,
                    "time": 178.48749999999822,
                    "velocity": 0.6850393700787402,
                    "duration": 0.10416666666668561
                },
                {
                    "name": "E4",
                    "midi": 64,
                    "time": 178.5729166666649,
                    "velocity": 0.7795275590551181,
                    "duration": 0.09999999999999432
                },
                {
                    "name": "C#3",
                    "midi": 49,
                    "time": 178.60833333333156,
                    "velocity": 0.6377952755905512,
                    "duration": 0.21250000000000568
                },
                {
                    "name": "E4",
                    "midi": 64,
                    "time": 178.79583333333156,
                    "velocity": 0.8818897637795275,
                    "duration": 0.10625000000001705
                },
                {
                    "name": "F#2",
                    "midi": 42,
                    "time": 178.80416666666488,
                    "velocity": 0.7007874015748031,
                    "duration": 0.07916666666667993
                },
                {
                    "name": "F2",
                    "midi": 41,
                    "time": 178.9979166666649,
                    "velocity": 0.8188976377952756,
                    "duration": 0.2104166666666174
                },
                {
                    "name": "A3",
                    "midi": 57,
                    "time": 178.9979166666649,
                    "velocity": 0.7637795275590551,
                    "duration": 0.09166666666666856
                },
                {
                    "name": "D#4",
                    "midi": 63,
                    "time": 179.10208333333156,
                    "velocity": 0.7401574803149606,
                    "duration": 0.07708333333332007
                },
                {
                    "name": "F4",
                    "midi": 65,
                    "time": 179.18958333333154,
                    "velocity": 0.6456692913385826,
                    "duration": 0.1312499999999659
                },
                {
                    "name": "F3",
                    "midi": 53,
                    "time": 179.19791666666487,
                    "velocity": 0.5354330708661418,
                    "duration": 0.1729166666666515
                },
                {
                    "name": "D#4",
                    "midi": 63,
                    "time": 179.31041666666485,
                    "velocity": 0.8346456692913385,
                    "duration": 0.10208333333332575
                },
                {
                    "name": "G4",
                    "midi": 67,
                    "time": 179.40208333333152,
                    "velocity": 0.6614173228346457,
                    "duration": 0.1458333333333428
                },
                {
                    "name": "C3",
                    "midi": 48,
                    "time": 179.4083333333315,
                    "velocity": 0.4645669291338583,
                    "duration": 0.16875000000001705
                },
                {
                    "name": "A4",
                    "midi": 69,
                    "time": 179.52708333333152,
                    "velocity": 0.6614173228346457,
                    "duration": 0.09791666666666288
                },
                {
                    "name": "F2",
                    "midi": 41,
                    "time": 179.52916666666485,
                    "velocity": 0.6062992125984252,
                    "duration": 0.06666666666666288
                },
                {
                    "name": "F4",
                    "midi": 65,
                    "time": 179.58333333333152,
                    "velocity": 0.6771653543307087,
                    "duration": 0.11666666666667425
                },
                {
                    "name": "D#4",
                    "midi": 63,
                    "time": 179.67708333333152,
                    "velocity": 0.8582677165354331,
                    "duration": 0.09583333333333144
                },
                {
                    "name": "A2",
                    "midi": 45,
                    "time": 179.76041666666487,
                    "velocity": 0.84251968503937,
                    "duration": 0.3354166666666174
                },
                {
                    "name": "C#4",
                    "midi": 61,
                    "time": 179.77916666666485,
                    "velocity": 0.905511811023622,
                    "duration": 0.09166666666666856
                },
                {
                    "name": "E4",
                    "midi": 64,
                    "time": 179.8999999999982,
                    "velocity": 0.5354330708661418,
                    "duration": 0.10833333333332007
                },
                {
                    "name": "A3",
                    "midi": 57,
                    "time": 179.96874999999818,
                    "velocity": 0.6692913385826772,
                    "duration": 0.1687499999999602
                },
                {
                    "name": "F#4",
                    "midi": 66,
                    "time": 179.9937499999982,
                    "velocity": 0.7244094488188977,
                    "duration": 0.09791666666663446
                },
                {
                    "name": "E4",
                    "midi": 64,
                    "time": 180.08124999999816,
                    "velocity": 0.5748031496062992,
                    "duration": 0.11041666666662309
                },
                {
                    "name": "E3",
                    "midi": 52,
                    "time": 180.16874999999814,
                    "velocity": 0.6850393700787402,
                    "duration": 0.1729166666666515
                },
                {
                    "name": "G4",
                    "midi": 67,
                    "time": 180.18333333333146,
                    "velocity": 0.7795275590551181,
                    "duration": 0.06666666666666288
                },
                {
                    "name": "G4",
                    "midi": 67,
                    "time": 180.3666666666648,
                    "velocity": 0.8582677165354331,
                    "duration": 0.09375
                },
                {
                    "name": "A2",
                    "midi": 45,
                    "time": 180.37083333333146,
                    "velocity": 0.6850393700787402,
                    "duration": 0.0625
                },
                {
                    "name": "G#2",
                    "midi": 44,
                    "time": 180.5604166666648,
                    "velocity": 0.8661417322834646,
                    "duration": 0.25833333333332575
                },
                {
                    "name": "C4",
                    "midi": 60,
                    "time": 180.56874999999812,
                    "velocity": 0.8346456692913385,
                    "duration": 0.08333333333334281
                },
                {
                    "name": "F#4",
                    "midi": 66,
                    "time": 180.6791666666648,
                    "velocity": 0.7165354330708661,
                    "duration": 0.09791666666666288
                },
                {
                    "name": "G#4",
                    "midi": 68,
                    "time": 180.76249999999814,
                    "velocity": 0.7086614173228346,
                    "duration": 0.10624999999998863
                },
                {
                    "name": "G#3",
                    "midi": 56,
                    "time": 180.7666666666648,
                    "velocity": 0.6929133858267716,
                    "duration": 0.18958333333333144
                },
                {
                    "name": "F#4",
                    "midi": 66,
                    "time": 180.85208333333145,
                    "velocity": 0.6692913385826772,
                    "duration": 0.11250000000001137
                },
                {
                    "name": "A#4",
                    "midi": 70,
                    "time": 180.9479166666648,
                    "velocity": 0.8110236220472441,
                    "duration": 0.11874999999997726
                },
                {
                    "name": "D#3",
                    "midi": 51,
                    "time": 180.9729166666648,
                    "velocity": 0.6220472440944882,
                    "duration": 0.15625
                },
                {
                    "name": "C5",
                    "midi": 72,
                    "time": 181.04583333333144,
                    "velocity": 0.7165354330708661,
                    "duration": 0.12916666666666288
                },
                {
                    "name": "G#2",
                    "midi": 44,
                    "time": 181.07291666666478,
                    "velocity": 0.5118110236220472,
                    "duration": 0.11249999999998295
                },
                {
                    "name": "G#4",
                    "midi": 68,
                    "time": 181.13958333333144,
                    "velocity": 0.7480314960629921,
                    "duration": 0.11875000000000568
                },
                {
                    "name": "F#4",
                    "midi": 66,
                    "time": 181.22708333333145,
                    "velocity": 0.7165354330708661,
                    "duration": 0.11666666666667425
                },
                {
                    "name": "C3",
                    "midi": 48,
                    "time": 181.2937499999981,
                    "velocity": 0.9212598425196851,
                    "duration": 0.2750000000000057
                },
                {
                    "name": "E4",
                    "midi": 64,
                    "time": 181.31249999999812,
                    "velocity": 0.8188976377952756,
                    "duration": 0.12916666666666288
                },
                {
                    "name": "G4",
                    "midi": 67,
                    "time": 181.43958333333146,
                    "velocity": 0.7244094488188977,
                    "duration": 0.08333333333334281
                },
                {
                    "name": "C4",
                    "midi": 60,
                    "time": 181.47708333333145,
                    "velocity": 0.6141732283464567,
                    "duration": 0.17499999999998295
                },
                {
                    "name": "A4",
                    "midi": 69,
                    "time": 181.50208333333146,
                    "velocity": 0.6771653543307087,
                    "duration": 0.11249999999998295
                },
                {
                    "name": "G4",
                    "midi": 67,
                    "time": 181.59999999999812,
                    "velocity": 0.7165354330708661,
                    "duration": 0.08749999999997726
                },
                {
                    "name": "G3",
                    "midi": 55,
                    "time": 181.65833333333143,
                    "velocity": 0.5590551181102362,
                    "duration": 0.18749999999997158
                },
                {
                    "name": "A#4",
                    "midi": 70,
                    "time": 181.69791666666475,
                    "velocity": 0.8818897637795275,
                    "duration": 0.07083333333332575
                },
                {
                    "name": "C3",
                    "midi": 48,
                    "time": 181.87916666666473,
                    "velocity": 0.6692913385826772,
                    "duration": 0.06874999999999432
                },
                {
                    "name": "A#4",
                    "midi": 70,
                    "time": 181.8833333333314,
                    "velocity": 0.8976377952755905,
                    "duration": 0.08958333333333712
                },
                {
                    "name": "B2",
                    "midi": 47,
                    "time": 182.06249999999807,
                    "velocity": 0.9133858267716536,
                    "duration": 0.2916666666666572
                },
                {
                    "name": "D#4",
                    "midi": 63,
                    "time": 182.08124999999808,
                    "velocity": 0.84251968503937,
                    "duration": 0.08333333333334281
                },
                {
                    "name": "A4",
                    "midi": 69,
                    "time": 182.1770833333314,
                    "velocity": 0.6141732283464567,
                    "duration": 0.09999999999999432
                },
                {
                    "name": "B4",
                    "midi": 71,
                    "time": 182.26458333333142,
                    "velocity": 0.6850393700787402,
                    "duration": 0.11458333333331439
                },
                {
                    "name": "B3",
                    "midi": 59,
                    "time": 182.26874999999808,
                    "velocity": 0.7244094488188977,
                    "duration": 0.25416666666663446
                },
                {
                    "name": "A4",
                    "midi": 69,
                    "time": 182.35624999999806,
                    "velocity": 0.6614173228346457,
                    "duration": 0.11249999999998295
                },
                {
                    "name": "F#3",
                    "midi": 54,
                    "time": 182.4458333333314,
                    "velocity": 0.6771653543307087,
                    "duration": 0.18333333333333712
                },
                {
                    "name": "C#5",
                    "midi": 73,
                    "time": 182.45833333333138,
                    "velocity": 0.8346456692913385,
                    "duration": 0.18541666666666856
                },
                {
                    "name": "D#5",
                    "midi": 75,
                    "time": 182.5854166666647,
                    "velocity": 0.7322834645669292,
                    "duration": 0.10624999999998863
                },
                {
                    "name": "B2",
                    "midi": 47,
                    "time": 182.61249999999805,
                    "velocity": 0.5748031496062992,
                    "duration": 0.08124999999998295
                },
                {
                    "name": "B4",
                    "midi": 71,
                    "time": 182.64374999999805,
                    "velocity": 0.5511811023622047,
                    "duration": 0.11874999999997726
                },
                {
                    "name": "A4",
                    "midi": 69,
                    "time": 182.73124999999803,
                    "velocity": 0.6692913385826772,
                    "duration": 0.07499999999998863
                },
                {
                    "name": "A#2",
                    "midi": 46,
                    "time": 182.85624999999803,
                    "velocity": 0.7952755905511811,
                    "duration": 0.06874999999999432
                },
                {
                    "name": "A#3",
                    "midi": 58,
                    "time": 182.87083333333135,
                    "velocity": 1,
                    "duration": 0.06666666666666288
                },
                {
                    "name": "D4",
                    "midi": 62,
                    "time": 183.074999999998,
                    "velocity": 0.2283464566929134,
                    "duration": 0.08124999999998295
                },
                {
                    "name": "G#4",
                    "midi": 68,
                    "time": 183.15208333333132,
                    "velocity": 0.7244094488188977,
                    "duration": 0.08541666666667425
                },
                {
                    "name": "C5",
                    "midi": 72,
                    "time": 183.18749999999798,
                    "velocity": 0.7559055118110236,
                    "duration": 0.09166666666666856
                },
                {
                    "name": "E5",
                    "midi": 76,
                    "time": 183.2208333333313,
                    "velocity": 0.5590551181102362,
                    "duration": 0.09166666666666856
                },
                {
                    "name": "A#5",
                    "midi": 82,
                    "time": 183.3208333333313,
                    "velocity": 0.9448818897637795,
                    "duration": 0.0625
                },
                {
                    "name": "D4",
                    "midi": 62,
                    "time": 183.43541666666465,
                    "velocity": 0.6850393700787402,
                    "duration": 0.06874999999999432
                },
                {
                    "name": "G#4",
                    "midi": 68,
                    "time": 183.50416666666464,
                    "velocity": 0.5669291338582677,
                    "duration": 0.07291666666668561
                },
                {
                    "name": "C5",
                    "midi": 72,
                    "time": 183.53541666666464,
                    "velocity": 0.7322834645669292,
                    "duration": 0.07500000000001705
                },
                {
                    "name": "E5",
                    "midi": 76,
                    "time": 183.55416666666466,
                    "velocity": 0.7559055118110236,
                    "duration": 0.08124999999998295
                },
                {
                    "name": "A#4",
                    "midi": 70,
                    "time": 183.62499999999798,
                    "velocity": 0.905511811023622,
                    "duration": 0.08124999999998295
                },
                {
                    "name": "D4",
                    "midi": 62,
                    "time": 183.69791666666464,
                    "velocity": 0.7007874015748031,
                    "duration": 0.06666666666666288
                },
                {
                    "name": "G#4",
                    "midi": 68,
                    "time": 183.7708333333313,
                    "velocity": 0.7401574803149606,
                    "duration": 0.054166666666645824
                },
                {
                    "name": "C5",
                    "midi": 72,
                    "time": 183.81458333333129,
                    "velocity": 0.5511811023622047,
                    "duration": 0.06666666666666288
                },
                {
                    "name": "E5",
                    "midi": 76,
                    "time": 183.84374999999795,
                    "velocity": 0.2992125984251969,
                    "duration": 0.04374999999998863
                },
                {
                    "name": "A#3",
                    "midi": 58,
                    "time": 183.8708333333313,
                    "velocity": 0.8582677165354331,
                    "duration": 0.1666666666666572
                },
                {
                    "name": "D4",
                    "midi": 62,
                    "time": 183.94999999999794,
                    "velocity": 0.8188976377952756,
                    "duration": 0.09583333333333144
                },
                {
                    "name": "G#4",
                    "midi": 68,
                    "time": 184.04583333333127,
                    "velocity": 0.6535433070866141,
                    "duration": 0.037499999999994316
                },
                {
                    "name": "C5",
                    "midi": 72,
                    "time": 184.09374999999793,
                    "velocity": 0.5826771653543307,
                    "duration": 0.0999999999999659
                },
                {
                    "name": "A#4",
                    "midi": 70,
                    "time": 184.09374999999793,
                    "velocity": 0.84251968503937,
                    "duration": 0.06458333333330302
                },
                {
                    "name": "G#4",
                    "midi": 68,
                    "time": 184.10416666666458,
                    "velocity": 0.5984251968503937,
                    "duration": 0.039583333333325754
                },
                {
                    "name": "D4",
                    "midi": 62,
                    "time": 184.2124999999979,
                    "velocity": 0.6141732283464567,
                    "duration": 0.08750000000000568
                },
                {
                    "name": "G#4",
                    "midi": 68,
                    "time": 184.30416666666457,
                    "velocity": 0.7559055118110236,
                    "duration": 0.07291666666665719
                },
                {
                    "name": "C5",
                    "midi": 72,
                    "time": 184.34166666666457,
                    "velocity": 0.7637795275590551,
                    "duration": 0.08750000000000568
                },
                {
                    "name": "E5",
                    "midi": 76,
                    "time": 184.35833333333125,
                    "velocity": 0.7952755905511811,
                    "duration": 0.07916666666665151
                },
                {
                    "name": "A#5",
                    "midi": 82,
                    "time": 184.37291666666457,
                    "velocity": 0.984251968503937,
                    "duration": 0.06458333333333144
                },
                {
                    "name": "G#3",
                    "midi": 56,
                    "time": 184.82916666666455,
                    "velocity": 1,
                    "duration": 0.07083333333335418
                },
                {
                    "name": "G#2",
                    "midi": 44,
                    "time": 184.83124999999788,
                    "velocity": 0.7795275590551181,
                    "duration": 0.05208333333334281
                },
                {
                    "name": "C4",
                    "midi": 60,
                    "time": 184.97291666666456,
                    "velocity": 0.6614173228346457,
                    "duration": 0.07499999999998863
                },
                {
                    "name": "F#4",
                    "midi": 66,
                    "time": 185.06666666666456,
                    "velocity": 0.6535433070866141,
                    "duration": 0.08333333333334281
                },
                {
                    "name": "A#4",
                    "midi": 70,
                    "time": 185.08958333333123,
                    "velocity": 0.7244094488188977,
                    "duration": 0.10208333333332575
                },
                {
                    "name": "D5",
                    "midi": 74,
                    "time": 185.12291666666457,
                    "velocity": 0.5118110236220472,
                    "duration": 0.07291666666665719
                },
                {
                    "name": "G#5",
                    "midi": 80,
                    "time": 185.2749999999979,
                    "velocity": 0.9763779527559056,
                    "duration": 0.06874999999999432
                },
                {
                    "name": "C4",
                    "midi": 60,
                    "time": 185.36458333333124,
                    "velocity": 0.6377952755905512,
                    "duration": 0.06874999999999432
                },
                {
                    "name": "F#4",
                    "midi": 66,
                    "time": 185.43958333333123,
                    "velocity": 0.5984251968503937,
                    "duration": 0.07916666666667993
                },
                {
                    "name": "A#4",
                    "midi": 70,
                    "time": 185.47291666666456,
                    "velocity": 0.7007874015748031,
                    "duration": 0.08333333333334281
                },
                {
                    "name": "D5",
                    "midi": 74,
                    "time": 185.50208333333123,
                    "velocity": 0.49606299212598426,
                    "duration": 0.05833333333333712
                },
                {
                    "name": "G#4",
                    "midi": 68,
                    "time": 185.59166666666457,
                    "velocity": 0.905511811023622,
                    "duration": 0.10000000000002274
                },
                {
                    "name": "C4",
                    "midi": 60,
                    "time": 185.6749999999979,
                    "velocity": 0.33070866141732286,
                    "duration": 0.05000000000001137
                },
                {
                    "name": "F#4",
                    "midi": 66,
                    "time": 185.7479166666646,
                    "velocity": 0.7165354330708661,
                    "duration": 0.07499999999998863
                },
                {
                    "name": "A#4",
                    "midi": 70,
                    "time": 185.7854166666646,
                    "velocity": 0.6692913385826772,
                    "duration": 0.04374999999998863
                },
                {
                    "name": "G#3",
                    "midi": 56,
                    "time": 185.86666666666457,
                    "velocity": 0.8818897637795275,
                    "duration": 0.24374999999997726
                },
                {
                    "name": "C4",
                    "midi": 60,
                    "time": 185.94791666666458,
                    "velocity": 0.6929133858267716,
                    "duration": 0.07083333333332575
                },
                {
                    "name": "F#4",
                    "midi": 66,
                    "time": 186.02291666666457,
                    "velocity": 0.7952755905511811,
                    "duration": 0.0625
                },
                {
                    "name": "A#4",
                    "midi": 70,
                    "time": 186.0562499999979,
                    "velocity": 0.6377952755905512,
                    "duration": 0.04791666666665151
                },
                {
                    "name": "D5",
                    "midi": 74,
                    "time": 186.09791666666456,
                    "velocity": 0.2047244094488189,
                    "duration": 0.037499999999994316
                },
                {
                    "name": "G#4",
                    "midi": 68,
                    "time": 186.10624999999789,
                    "velocity": 0.8267716535433071,
                    "duration": 0.05833333333333712
                },
                {
                    "name": "C4",
                    "midi": 60,
                    "time": 186.19583333333122,
                    "velocity": 0.6614173228346457,
                    "duration": 0.09166666666666856
                },
                {
                    "name": "F#4",
                    "midi": 66,
                    "time": 186.2812499999979,
                    "velocity": 0.8110236220472441,
                    "duration": 0.07291666666665719
                },
                {
                    "name": "A#4",
                    "midi": 70,
                    "time": 186.31458333333123,
                    "velocity": 0.7637795275590551,
                    "duration": 0.0895833333333087
                },
                {
                    "name": "D5",
                    "midi": 74,
                    "time": 186.35208333333122,
                    "velocity": 0.7716535433070866,
                    "duration": 0.09374999999997158
                },
                {
                    "name": "G#5",
                    "midi": 80,
                    "time": 186.39999999999787,
                    "velocity": 0.984251968503937,
                    "duration": 0.0583333333333087
                },
                {
                    "name": "F#3",
                    "midi": 54,
                    "time": 186.85208333333117,
                    "velocity": 1,
                    "duration": 0.07291666666665719
                },
                {
                    "name": "F#2",
                    "midi": 42,
                    "time": 186.8541666666645,
                    "velocity": 0.8110236220472441,
                    "duration": 0.04791666666665151
                },
                {
                    "name": "A#3",
                    "midi": 58,
                    "time": 186.98333333333116,
                    "velocity": 0.7716535433070866,
                    "duration": 0.06458333333333144
                },
                {
                    "name": "E4",
                    "midi": 64,
                    "time": 187.0624999999978,
                    "velocity": 0.6220472440944882,
                    "duration": 0.09166666666666856
                },
                {
                    "name": "G4",
                    "midi": 67,
                    "time": 187.08958333333115,
                    "velocity": 0.7007874015748031,
                    "duration": 0.16458333333332575
                },
                {
                    "name": "C5",
                    "midi": 72,
                    "time": 187.1416666666645,
                    "velocity": 0.44881889763779526,
                    "duration": 0.08333333333331439
                },
                {
                    "name": "F#5",
                    "midi": 78,
                    "time": 187.24583333333115,
                    "velocity": 0.968503937007874,
                    "duration": 0.056250000000005684
                },
                {
                    "name": "A#3",
                    "midi": 58,
                    "time": 187.34166666666448,
                    "velocity": 0.7165354330708661,
                    "duration": 0.06041666666666856
                },
                {
                    "name": "E4",
                    "midi": 64,
                    "time": 187.43124999999782,
                    "velocity": 0.5354330708661418,
                    "duration": 0.09166666666666856
                },
                {
                    "name": "G4",
                    "midi": 67,
                    "time": 187.45624999999782,
                    "velocity": 0.5748031496062992,
                    "duration": 0.13958333333332007
                },
                {
                    "name": "C5",
                    "midi": 72,
                    "time": 187.50208333333114,
                    "velocity": 0.5354330708661418,
                    "duration": 0.056250000000005684
                },
                {
                    "name": "A#4",
                    "midi": 70,
                    "time": 187.52708333333115,
                    "velocity": 0.1968503937007874,
                    "duration": 0.04583333333332007
                },
                {
                    "name": "F#4",
                    "midi": 66,
                    "time": 187.54999999999782,
                    "velocity": 0.937007874015748,
                    "duration": 0.09791666666666288
                },
                {
                    "name": "A#3",
                    "midi": 58,
                    "time": 187.64791666666449,
                    "velocity": 0.5984251968503937,
                    "duration": 0.08333333333334281
                },
                {
                    "name": "E4",
                    "midi": 64,
                    "time": 187.75624999999783,
                    "velocity": 0.2992125984251969,
                    "duration": 0.05624999999997726
                },
                {
                    "name": "G4",
                    "midi": 67,
                    "time": 187.76249999999783,
                    "velocity": 0.5118110236220472,
                    "duration": 0.14374999999998295
                },
                {
                    "name": "F#3",
                    "midi": 54,
                    "time": 187.79374999999783,
                    "velocity": 0.8976377952755905,
                    "duration": 0.08333333333331439
                },
                {
                    "name": "C5",
                    "midi": 72,
                    "time": 187.7979166666645,
                    "velocity": 0.49606299212598426,
                    "duration": 0.0583333333333087
                },
                {
                    "name": "A#4",
                    "midi": 70,
                    "time": 187.82291666666447,
                    "velocity": 0.2677165354330709,
                    "duration": 0.05000000000001137
                },
                {
                    "name": "A#3",
                    "midi": 58,
                    "time": 187.91458333333114,
                    "velocity": 0.7086614173228346,
                    "duration": 0.07916666666667993
                },
                {
                    "name": "E4",
                    "midi": 64,
                    "time": 188.02916666666448,
                    "velocity": 0.5354330708661418,
                    "duration": 0.07083333333332575
                },
                {
                    "name": "F#4",
                    "midi": 66,
                    "time": 188.0374999999978,
                    "velocity": 0.937007874015748,
                    "duration": 0.06874999999999432
                },
                {
                    "name": "G4",
                    "midi": 67,
                    "time": 188.0687499999978,
                    "velocity": 0.36220472440944884,
                    "duration": 0.10624999999998863
                },
                {
                    "name": "A#3",
                    "midi": 58,
                    "time": 188.18541666666445,
                    "velocity": 0.7716535433070866,
                    "duration": 0.07916666666667993
                },
                {
                    "name": "E4",
                    "midi": 64,
                    "time": 188.26666666666446,
                    "velocity": 0.6692913385826772,
                    "duration": 0.09583333333333144
                },
                {
                    "name": "G4",
                    "midi": 67,
                    "time": 188.2999999999978,
                    "velocity": 0.6850393700787402,
                    "duration": 0.11250000000001137
                },
                {
                    "name": "F#5",
                    "midi": 78,
                    "time": 188.32916666666446,
                    "velocity": 0.9921259842519685,
                    "duration": 0.05833333333333712
                },
                {
                    "name": "C5",
                    "midi": 72,
                    "time": 188.33958333333112,
                    "velocity": 0.7952755905511811,
                    "duration": 0.10416666666668561
                },
                {
                    "name": "F2",
                    "midi": 41,
                    "time": 188.7687499999978,
                    "velocity": 0.5590551181102362,
                    "duration": 0.07291666666668561
                },
                {
                    "name": "F3",
                    "midi": 53,
                    "time": 188.78958333333114,
                    "velocity": 0.9921259842519685,
                    "duration": 0.05833333333333712
                },
                {
                    "name": "G2",
                    "midi": 43,
                    "time": 188.80833333333115,
                    "velocity": 0.48031496062992124,
                    "duration": 0.03541666666666288
                },
                {
                    "name": "G#2",
                    "midi": 44,
                    "time": 188.81041666666448,
                    "velocity": 0.5669291338582677,
                    "duration": 0.04166666666665719
                },
                {
                    "name": "A3",
                    "midi": 57,
                    "time": 188.97291666666447,
                    "velocity": 0.6535433070866141,
                    "duration": 0.10208333333332575
                },
                {
                    "name": "D#4",
                    "midi": 63,
                    "time": 189.07291666666447,
                    "velocity": 0.28346456692913385,
                    "duration": 0.11458333333331439
                },
                {
                    "name": "G4",
                    "midi": 67,
                    "time": 189.1187499999978,
                    "velocity": 0.6692913385826772,
                    "duration": 0.09791666666666288
                },
                {
                    "name": "B4",
                    "midi": 71,
                    "time": 189.12916666666445,
                    "velocity": 0.7795275590551181,
                    "duration": 0.11458333333334281
                },
                {
                    "name": "F5",
                    "midi": 77,
                    "time": 189.24583333333112,
                    "velocity": 0.8110236220472441,
                    "duration": 0.07083333333332575
                },
                {
                    "name": "A3",
                    "midi": 57,
                    "time": 189.35416666666444,
                    "velocity": 0.3700787401574803,
                    "duration": 0.06875000000002274
                },
                {
                    "name": "B3",
                    "midi": 59,
                    "time": 189.37291666666445,
                    "velocity": 0.3700787401574803,
                    "duration": 0.06458333333333144
                },
                {
                    "name": "D#4",
                    "midi": 63,
                    "time": 189.3937499999978,
                    "velocity": 0.7007874015748031,
                    "duration": 0.08749999999997726
                },
                {
                    "name": "G4",
                    "midi": 67,
                    "time": 189.44166666666445,
                    "velocity": 0.6062992125984252,
                    "duration": 0.07499999999998863
                },
                {
                    "name": "B4",
                    "midi": 71,
                    "time": 189.4520833333311,
                    "velocity": 0.6692913385826772,
                    "duration": 0.06041666666666856
                },
                {
                    "name": "F4",
                    "midi": 65,
                    "time": 189.52916666666442,
                    "velocity": 0.9133858267716536,
                    "duration": 0.07916666666667993
                },
                {
                    "name": "A3",
                    "midi": 57,
                    "time": 189.58749999999776,
                    "velocity": 0.7559055118110236,
                    "duration": 0.09583333333335986
                },
                {
                    "name": "D#4",
                    "midi": 63,
                    "time": 189.65833333333111,
                    "velocity": 0.7795275590551181,
                    "duration": 0.08125000000001137
                },
                {
                    "name": "G4",
                    "midi": 67,
                    "time": 189.69791666666444,
                    "velocity": 0.6141732283464567,
                    "duration": 0.07291666666668561
                },
                {
                    "name": "B4",
                    "midi": 71,
                    "time": 189.71874999999778,
                    "velocity": 0.5590551181102362,
                    "duration": 0.04791666666667993
                },
                {
                    "name": "F3",
                    "midi": 53,
                    "time": 189.77291666666446,
                    "velocity": 0.9133858267716536,
                    "duration": 0.07916666666667993
                },
                {
                    "name": "B3",
                    "midi": 59,
                    "time": 189.86666666666446,
                    "velocity": 0.6141732283464567,
                    "duration": 0.08333333333331439
                },
                {
                    "name": "D#4",
                    "midi": 63,
                    "time": 189.94166666666445,
                    "velocity": 0.7952755905511811,
                    "duration": 0.09375
                },
                {
                    "name": "B4",
                    "midi": 71,
                    "time": 189.99999999999778,
                    "velocity": 0.4015748031496063,
                    "duration": 0.06666666666666288
                },
                {
                    "name": "G4",
                    "midi": 67,
                    "time": 189.99999999999778,
                    "velocity": 0.4251968503937008,
                    "duration": 0.0625
                },
                {
                    "name": "A#3",
                    "midi": 58,
                    "time": 190.11458333333113,
                    "velocity": 0.6614173228346457,
                    "duration": 0.09166666666664014
                },
                {
                    "name": "B3",
                    "midi": 59,
                    "time": 190.1187499999978,
                    "velocity": 0.6614173228346457,
                    "duration": 0.0999999999999659
                },
                {
                    "name": "D#4",
                    "midi": 63,
                    "time": 190.1958333333311,
                    "velocity": 0.7716535433070866,
                    "duration": 0.08749999999994884
                },
                {
                    "name": "G4",
                    "midi": 67,
                    "time": 190.23333333333107,
                    "velocity": 0.6614173228346457,
                    "duration": 0.11666666666664582
                },
                {
                    "name": "B4",
                    "midi": 71,
                    "time": 190.2479166666644,
                    "velocity": 0.7716535433070866,
                    "duration": 0.10624999999998863
                },
                {
                    "name": "F5",
                    "midi": 77,
                    "time": 190.28124999999773,
                    "velocity": 0.984251968503937,
                    "duration": 0.0625
                },
                {
                    "name": "E1",
                    "midi": 28,
                    "time": 190.84374999999775,
                    "velocity": 0.7637795275590551,
                    "duration": 0.06875000000002274
                },
                {
                    "name": "E2",
                    "midi": 40,
                    "time": 190.86249999999777,
                    "velocity": 0.9921259842519685,
                    "duration": 0.05833333333333712
                },
                {
                    "name": "F1",
                    "midi": 29,
                    "time": 190.8895833333311,
                    "velocity": 0.5826771653543307,
                    "duration": 0.03541666666666288
                },
                {
                    "name": "B3",
                    "midi": 59,
                    "time": 191.15624999999775,
                    "velocity": 0.8110236220472441,
                    "duration": 0.12916666666666288
                },
                {
                    "name": "B4",
                    "midi": 71,
                    "time": 191.17916666666443,
                    "velocity": 0.7401574803149606,
                    "duration": 0.1312499999999659
                },
                {
                    "name": "G#4",
                    "midi": 68,
                    "time": 191.17916666666443,
                    "velocity": 0.8188976377952756,
                    "duration": 0.11666666666664582
                },
                {
                    "name": "F#4",
                    "midi": 66,
                    "time": 191.2145833333311,
                    "velocity": 0.7952755905511811,
                    "duration": 0.13541666666662877
                },
                {
                    "name": "C#4",
                    "midi": 61,
                    "time": 191.27291666666443,
                    "velocity": 0.8110236220472441,
                    "duration": 0.09791666666663446
                },
                {
                    "name": "E4",
                    "midi": 64,
                    "time": 191.30833333333106,
                    "velocity": 0.7322834645669292,
                    "duration": 0.07916666666667993
                },
                {
                    "name": "D4",
                    "midi": 62,
                    "time": 191.33749999999773,
                    "velocity": 0.6614173228346457,
                    "duration": 0.12291666666666856
                },
                {
                    "name": "D5",
                    "midi": 74,
                    "time": 191.43541666666442,
                    "velocity": 0.8031496062992126,
                    "duration": 0.10208333333329733
                },
                {
                    "name": "B4",
                    "midi": 71,
                    "time": 191.44166666666442,
                    "velocity": 0.7795275590551181,
                    "duration": 0.16041666666666288
                },
                {
                    "name": "G#3",
                    "midi": 56,
                    "time": 191.44583333333108,
                    "velocity": 0.7716535433070866,
                    "duration": 0.2354166666666515
                },
                {
                    "name": "A4",
                    "midi": 69,
                    "time": 191.52708333333106,
                    "velocity": 0.6850393700787402,
                    "duration": 0.10000000000002274
                },
                {
                    "name": "A3",
                    "midi": 57,
                    "time": 191.5854166666644,
                    "velocity": 0.5039370078740157,
                    "duration": 0.09791666666666288
                },
                {
                    "name": "G#4",
                    "midi": 68,
                    "time": 191.6666666666644,
                    "velocity": 0.7401574803149606,
                    "duration": 0.07291666666662877
                },
                {
                    "name": "B3",
                    "midi": 59,
                    "time": 191.69374999999772,
                    "velocity": 0.5984251968503937,
                    "duration": 0.09375
                },
                {
                    "name": "D5",
                    "midi": 74,
                    "time": 191.8041666666644,
                    "velocity": 0.8188976377952756,
                    "duration": 0.1458333333333428
                },
                {
                    "name": "E5",
                    "midi": 76,
                    "time": 191.80833333333106,
                    "velocity": 0.7637795275590551,
                    "duration": 0.09583333333333144
                },
                {
                    "name": "E3",
                    "midi": 52,
                    "time": 191.81249999999773,
                    "velocity": 0.8188976377952756,
                    "duration": 0.19583333333335418
                },
                {
                    "name": "C#5",
                    "midi": 73,
                    "time": 191.9229166666644,
                    "velocity": 0.8503937007874016,
                    "duration": 0.09791666666666288
                },
                {
                    "name": "F#3",
                    "midi": 54,
                    "time": 191.9479166666644,
                    "velocity": 0.6929133858267716,
                    "duration": 0.08541666666664582
                },
                {
                    "name": "B4",
                    "midi": 71,
                    "time": 192.04166666666438,
                    "velocity": 0.4251968503937008,
                    "duration": 0.054166666666674246
                },
                {
                    "name": "G3",
                    "midi": 55,
                    "time": 192.05833333333106,
                    "velocity": 0.6141732283464567,
                    "duration": 0.09375
                },
                {
                    "name": "C5",
                    "midi": 72,
                    "time": 192.05833333333106,
                    "velocity": 0.44881889763779526,
                    "duration": 0.054166666666674246
                },
                {
                    "name": "G#5",
                    "midi": 80,
                    "time": 192.15833333333106,
                    "velocity": 0.8188976377952756,
                    "duration": 0.1624999999999659
                },
                {
                    "name": "F5",
                    "midi": 77,
                    "time": 192.16458333333105,
                    "velocity": 0.7637795275590551,
                    "duration": 0.1520833333333087
                },
                {
                    "name": "B2",
                    "midi": 47,
                    "time": 192.16874999999771,
                    "velocity": 0.7952755905511811,
                    "duration": 0.1833333333333087
                },
                {
                    "name": "C3",
                    "midi": 48,
                    "time": 192.16874999999771,
                    "velocity": 0.8031496062992126,
                    "duration": 0.2937499999999602
                },
                {
                    "name": "F#5",
                    "midi": 78,
                    "time": 192.1812499999977,
                    "velocity": 0.5826771653543307,
                    "duration": 0.08541666666667425
                },
                {
                    "name": "E5",
                    "midi": 76,
                    "time": 192.29374999999771,
                    "velocity": 0.7795275590551181,
                    "duration": 0.09166666666664014
                },
                {
                    "name": "D3",
                    "midi": 50,
                    "time": 192.30416666666437,
                    "velocity": 0.49606299212598426,
                    "duration": 0.04374999999998863
                },
                {
                    "name": "D#5",
                    "midi": 75,
                    "time": 192.39791666666434,
                    "velocity": 0.8582677165354331,
                    "duration": 0.13541666666662877
                },
                {
                    "name": "C#3",
                    "midi": 49,
                    "time": 192.40416666666434,
                    "velocity": 0.7874015748031497,
                    "duration": 0.11041666666665151
                },
                {
                    "name": "D5",
                    "midi": 74,
                    "time": 192.50416666666433,
                    "velocity": 0.7952755905511811,
                    "duration": 0.07499999999996021
                },
                {
                    "name": "D3",
                    "midi": 50,
                    "time": 192.51874999999765,
                    "velocity": 0.8031496062992126,
                    "duration": 0.09374999999997158
                },
                {
                    "name": "B2",
                    "midi": 47,
                    "time": 192.64999999999762,
                    "velocity": 0.84251968503937,
                    "duration": 0.05833333333333712
                },
                {
                    "name": "E2",
                    "midi": 40,
                    "time": 192.64999999999762,
                    "velocity": 0.8976377952755905,
                    "duration": 0.06666666666666288
                },
                {
                    "name": "E6",
                    "midi": 88,
                    "time": 192.64999999999762,
                    "velocity": 0.9291338582677166,
                    "duration": 0.0625
                },
                {
                    "name": "B5",
                    "midi": 83,
                    "time": 192.6562499999976,
                    "velocity": 0.8346456692913385,
                    "duration": 0.04791666666667993
                },
                {
                    "name": "E1",
                    "midi": 28,
                    "time": 192.9541666666643,
                    "velocity": 1,
                    "duration": 0.04583333333332007
                },
                {
                    "name": "E2",
                    "midi": 40,
                    "time": 192.96249999999762,
                    "velocity": 1,
                    "duration": 0.09375
                },
                {
                    "name": "D4",
                    "midi": 62,
                    "time": 193.21249999999762,
                    "velocity": 0.84251968503937,
                    "duration": 0.09583333333333144
                },
                {
                    "name": "A4",
                    "midi": 69,
                    "time": 193.2291666666643,
                    "velocity": 0.7165354330708661,
                    "duration": 0.08333333333331439
                },
                {
                    "name": "C5",
                    "midi": 72,
                    "time": 193.23124999999763,
                    "velocity": 0.7086614173228346,
                    "duration": 0.0895833333333087
                },
                {
                    "name": "G4",
                    "midi": 67,
                    "time": 193.27499999999762,
                    "velocity": 0.7244094488188977,
                    "duration": 0.14791666666667425
                },
                {
                    "name": "E4",
                    "midi": 64,
                    "time": 193.31041666666428,
                    "velocity": 0.7165354330708661,
                    "duration": 0.06458333333333144
                },
                {
                    "name": "D#4",
                    "midi": 63,
                    "time": 193.31041666666428,
                    "velocity": 0.36220472440944884,
                    "duration": 0.04374999999998863
                },
                {
                    "name": "F4",
                    "midi": 65,
                    "time": 193.3562499999976,
                    "velocity": 0.7716535433070866,
                    "duration": 0.07500000000001705
                },
                {
                    "name": "E4",
                    "midi": 64,
                    "time": 193.43958333333094,
                    "velocity": 0.5669291338582677,
                    "duration": 0.04583333333332007
                },
                {
                    "name": "D#5",
                    "midi": 75,
                    "time": 193.4749999999976,
                    "velocity": 0.6929133858267716,
                    "duration": 0.19166666666663446
                },
                {
                    "name": "A#3",
                    "midi": 58,
                    "time": 193.48541666666426,
                    "velocity": 0.8110236220472441,
                    "duration": 0.024999999999977263
                },
                {
                    "name": "C5",
                    "midi": 72,
                    "time": 193.49583333333092,
                    "velocity": 0.7795275590551181,
                    "duration": 0.12083333333333712
                },
                {
                    "name": "B3",
                    "midi": 59,
                    "time": 193.50624999999758,
                    "velocity": 0.84251968503937,
                    "duration": 0.21458333333333712
                },
                {
                    "name": "B4",
                    "midi": 71,
                    "time": 193.59999999999758,
                    "velocity": 0.5905511811023622,
                    "duration": 0.11250000000001137
                },
                {
                    "name": "A#3",
                    "midi": 58,
                    "time": 193.62499999999758,
                    "velocity": 0.5275590551181102,
                    "duration": 0.039583333333325754
                },
                {
                    "name": "A4",
                    "midi": 69,
                    "time": 193.68749999999758,
                    "velocity": 0.6535433070866141,
                    "duration": 0.08124999999998295
                },
                {
                    "name": "C4",
                    "midi": 60,
                    "time": 193.72291666666425,
                    "velocity": 0.6692913385826772,
                    "duration": 0.07499999999998863
                },
                {
                    "name": "F3",
                    "midi": 53,
                    "time": 193.8270833333309,
                    "velocity": 0.8031496062992126,
                    "duration": 0.16458333333332575
                },
                {
                    "name": "D#5",
                    "midi": 75,
                    "time": 193.83541666666423,
                    "velocity": 0.937007874015748,
                    "duration": 0.1770833333333428
                },
                {
                    "name": "F5",
                    "midi": 77,
                    "time": 193.84166666666422,
                    "velocity": 0.8188976377952756,
                    "duration": 0.15000000000000568
                },
                {
                    "name": "D5",
                    "midi": 74,
                    "time": 193.95416666666424,
                    "velocity": 0.7322834645669292,
                    "duration": 0.1187500000000341
                },
                {
                    "name": "G3",
                    "midi": 55,
                    "time": 193.96041666666423,
                    "velocity": 0.5984251968503937,
                    "duration": 0.07500000000001705
                },
                {
                    "name": "C5",
                    "midi": 72,
                    "time": 194.03333333333092,
                    "velocity": 0.6220472440944882,
                    "duration": 0.08541666666667425
                },
                {
                    "name": "A3",
                    "midi": 57,
                    "time": 194.05416666666426,
                    "velocity": 0.6299212598425197,
                    "duration": 0.08958333333333712
                },
                {
                    "name": "C3",
                    "midi": 48,
                    "time": 194.17708333333093,
                    "velocity": 0.8031496062992126,
                    "duration": 0.15833333333330302
                },
                {
                    "name": "F#5",
                    "midi": 78,
                    "time": 194.17708333333093,
                    "velocity": 0.8818897637795275,
                    "duration": 0.14374999999998295
                },
                {
                    "name": "A5",
                    "midi": 81,
                    "time": 194.17916666666426,
                    "velocity": 0.8110236220472441,
                    "duration": 0.1520833333333087
                },
                {
                    "name": "C#3",
                    "midi": 49,
                    "time": 194.28541666666425,
                    "velocity": 0.7086614173228346,
                    "duration": 0.14791666666664582
                },
                {
                    "name": "F5",
                    "midi": 77,
                    "time": 194.30833333333092,
                    "velocity": 0.7086614173228346,
                    "duration": 0.07499999999998863
                },
                {
                    "name": "E5",
                    "midi": 76,
                    "time": 194.31041666666425,
                    "velocity": 0.7559055118110236,
                    "duration": 0.07499999999998863
                },
                {
                    "name": "D3",
                    "midi": 50,
                    "time": 194.40833333333092,
                    "velocity": 0.7086614173228346,
                    "duration": 0.17083333333329165
                },
                {
                    "name": "E5",
                    "midi": 76,
                    "time": 194.4208333333309,
                    "velocity": 0.7165354330708661,
                    "duration": 0.14374999999998295
                },
                {
                    "name": "D#5",
                    "midi": 75,
                    "time": 194.52291666666423,
                    "velocity": 0.905511811023622,
                    "duration": 0.07499999999998863
                },
                {
                    "name": "D#3",
                    "midi": 51,
                    "time": 194.52499999999756,
                    "velocity": 0.8582677165354331,
                    "duration": 0.09999999999999432
                },
                {
                    "name": "F2",
                    "midi": 41,
                    "time": 194.69583333333088,
                    "velocity": 0.9763779527559056,
                    "duration": 0.06874999999999432
                },
                {
                    "name": "F6",
                    "midi": 89,
                    "time": 194.70208333333088,
                    "velocity": 0.9921259842519685,
                    "duration": 0.08541666666667425
                },
                {
                    "name": "C6",
                    "midi": 84,
                    "time": 194.70624999999754,
                    "velocity": 0.9763779527559056,
                    "duration": 0.05833333333333712
                },
                {
                    "name": "E2",
                    "midi": 40,
                    "time": 195.09791666666425,
                    "velocity": 0.984251968503937,
                    "duration": 0.14166666666667993
                },
                {
                    "name": "E1",
                    "midi": 28,
                    "time": 195.1020833333309,
                    "velocity": 0.9921259842519685,
                    "duration": 0.07708333333334849
                },
                {
                    "name": "B4",
                    "midi": 71,
                    "time": 195.50208333333092,
                    "velocity": 0.8188976377952756,
                    "duration": 0.08541666666667425
                },
                {
                    "name": "D4",
                    "midi": 62,
                    "time": 195.50416666666425,
                    "velocity": 0.7244094488188977,
                    "duration": 0.09999999999999432
                },
                {
                    "name": "D5",
                    "midi": 74,
                    "time": 195.50624999999758,
                    "velocity": 0.7637795275590551,
                    "duration": 0.08125000000001137
                },
                {
                    "name": "A4",
                    "midi": 69,
                    "time": 195.56666666666425,
                    "velocity": 0.6929133858267716,
                    "duration": 0.1208333333333087
                },
                {
                    "name": "E4",
                    "midi": 64,
                    "time": 195.59166666666425,
                    "velocity": 0.6614173228346457,
                    "duration": 0.08541666666664582
                },
                {
                    "name": "F4",
                    "midi": 65,
                    "time": 195.66666666666424,
                    "velocity": 0.6771653543307087,
                    "duration": 0.1166666666666174
                },
                {
                    "name": "G#4",
                    "midi": 68,
                    "time": 195.66874999999757,
                    "velocity": 0.7401574803149606,
                    "duration": 0.05624999999997726
                },
                {
                    "name": "B3",
                    "midi": 59,
                    "time": 195.7666666666642,
                    "velocity": 0.7716535433070866,
                    "duration": 0.18124999999994884
                },
                {
                    "name": "F5",
                    "midi": 77,
                    "time": 195.77708333333086,
                    "velocity": 0.8110236220472441,
                    "duration": 0.11249999999998295
                },
                {
                    "name": "D5",
                    "midi": 74,
                    "time": 195.78124999999753,
                    "velocity": 0.7716535433070866,
                    "duration": 0.12499999999997158
                },
                {
                    "name": "C#5",
                    "midi": 73,
                    "time": 195.89166666666418,
                    "velocity": 0.7952755905511811,
                    "duration": 0.0999999999999659
                },
                {
                    "name": "C#4",
                    "midi": 61,
                    "time": 195.8999999999975,
                    "velocity": 0.7401574803149606,
                    "duration": 0.08124999999998295
                },
                {
                    "name": "B4",
                    "midi": 71,
                    "time": 195.9895833333308,
                    "velocity": 0.5984251968503937,
                    "duration": 0.08125000000001137
                },
                {
                    "name": "D4",
                    "midi": 62,
                    "time": 196.0124999999975,
                    "velocity": 0.6614173228346457,
                    "duration": 0.09999999999999432
                },
                {
                    "name": "G#5",
                    "midi": 80,
                    "time": 196.1270833333308,
                    "velocity": 0.7480314960629921,
                    "duration": 0.16249999999999432
                },
                {
                    "name": "G#3",
                    "midi": 56,
                    "time": 196.13541666666413,
                    "velocity": 0.8503937007874016,
                    "duration": 0.23750000000001137
                },
                {
                    "name": "F5",
                    "midi": 77,
                    "time": 196.14999999999745,
                    "velocity": 0.5826771653543307,
                    "duration": 0.15833333333335986
                },
                {
                    "name": "E5",
                    "midi": 76,
                    "time": 196.1541666666641,
                    "velocity": 0.5196850393700787,
                    "duration": 0.07916666666667993
                },
                {
                    "name": "A3",
                    "midi": 57,
                    "time": 196.25624999999746,
                    "velocity": 0.5984251968503937,
                    "duration": 0.13124999999999432
                },
                {
                    "name": "E5",
                    "midi": 76,
                    "time": 196.27083333333078,
                    "velocity": 0.49606299212598426,
                    "duration": 0.11875000000000568
                },
                {
                    "name": "D5",
                    "midi": 74,
                    "time": 196.3708333333308,
                    "velocity": 0.6456692913385826,
                    "duration": 0.07499999999998863
                },
                {
                    "name": "B3",
                    "midi": 59,
                    "time": 196.3770833333308,
                    "velocity": 0.6771653543307087,
                    "duration": 0.10833333333332007
                },
                {
                    "name": "E3",
                    "midi": 52,
                    "time": 196.50416666666413,
                    "velocity": 0.8976377952755905,
                    "duration": 0.22083333333330302
                },
                {
                    "name": "B5",
                    "midi": 83,
                    "time": 196.51041666666413,
                    "velocity": 0.8031496062992126,
                    "duration": 0.1416666666666515
                },
                {
                    "name": "G#5",
                    "midi": 80,
                    "time": 196.51249999999746,
                    "velocity": 0.8661417322834646,
                    "duration": 0.18124999999997726
                },
                {
                    "name": "F3",
                    "midi": 53,
                    "time": 196.6395833333308,
                    "velocity": 0.7322834645669292,
                    "duration": 0.24374999999997726
                },
                {
                    "name": "G5",
                    "midi": 79,
                    "time": 196.65624999999744,
                    "velocity": 0.8346456692913385,
                    "duration": 0.12916666666666288
                },
                {
                    "name": "F#5",
                    "midi": 78,
                    "time": 196.7854166666641,
                    "velocity": 0.8582677165354331,
                    "duration": 0.15624999999997158
                },
                {
                    "name": "F#3",
                    "midi": 54,
                    "time": 196.80624999999745,
                    "velocity": 0.8267716535433071,
                    "duration": 0.15416666666664014
                },
                {
                    "name": "F5",
                    "midi": 77,
                    "time": 196.92708333333076,
                    "velocity": 0.7007874015748031,
                    "duration": 0.07083333333332575
                },
                {
                    "name": "G3",
                    "midi": 55,
                    "time": 196.9437499999974,
                    "velocity": 0.7559055118110236,
                    "duration": 0.08125000000001137
                },
                {
                    "name": "B2",
                    "midi": 47,
                    "time": 197.1979166666641,
                    "velocity": 0.9448818897637795,
                    "duration": 0.07083333333332575
                },
                {
                    "name": "D6",
                    "midi": 86,
                    "time": 197.20624999999742,
                    "velocity": 0.9212598425196851,
                    "duration": 0.06458333333333144
                },
                {
                    "name": "G6",
                    "midi": 91,
                    "time": 197.20833333333076,
                    "velocity": 0.9212598425196851,
                    "duration": 0.08125000000001137
                },
                {
                    "name": "E2",
                    "midi": 40,
                    "time": 197.20833333333076,
                    "velocity": 0.9212598425196851,
                    "duration": 0.09375
                },
                {
                    "name": "E2",
                    "midi": 40,
                    "time": 197.69374999999744,
                    "velocity": 0.984251968503937,
                    "duration": 0.23333333333332007
                },
                {
                    "name": "E1",
                    "midi": 28,
                    "time": 197.69583333333077,
                    "velocity": 0.9291338582677166,
                    "duration": 0.19374999999999432
                },
                {
                    "name": "E5",
                    "midi": 76,
                    "time": 198.3437499999974,
                    "velocity": 0.8503937007874016,
                    "duration": 0.11041666666662309
                },
                {
                    "name": "B5",
                    "midi": 83,
                    "time": 198.3499999999974,
                    "velocity": 0.7165354330708661,
                    "duration": 0.1416666666666231
                },
                {
                    "name": "B4",
                    "midi": 71,
                    "time": 198.3499999999974,
                    "velocity": 0.8503937007874016,
                    "duration": 0.07708333333332007
                },
                {
                    "name": "G#4",
                    "midi": 68,
                    "time": 198.35416666666407,
                    "velocity": 0.8346456692913385,
                    "duration": 0.08749999999997726
                },
                {
                    "name": "E6",
                    "midi": 88,
                    "time": 198.35416666666407,
                    "velocity": 0.6062992125984252,
                    "duration": 0.12291666666664014
                },
                {
                    "name": "D4",
                    "midi": 62,
                    "time": 198.3562499999974,
                    "velocity": 0.8031496062992126,
                    "duration": 0.09583333333330302
                },
                {
                    "name": "E5",
                    "midi": 76,
                    "time": 198.58124999999737,
                    "velocity": 0.84251968503937,
                    "duration": 0.06874999999999432
                },
                {
                    "name": "B5",
                    "midi": 83,
                    "time": 198.5833333333307,
                    "velocity": 0.7244094488188977,
                    "duration": 0.08124999999998295
                },
                {
                    "name": "E6",
                    "midi": 88,
                    "time": 198.58749999999736,
                    "velocity": 0.7165354330708661,
                    "duration": 0.07499999999998863
                },
                {
                    "name": "B4",
                    "midi": 71,
                    "time": 198.5895833333307,
                    "velocity": 0.84251968503937,
                    "duration": 0.06666666666666288
                },
                {
                    "name": "G#4",
                    "midi": 68,
                    "time": 198.59166666666403,
                    "velocity": 0.84251968503937,
                    "duration": 0.0625
                },
                {
                    "name": "D4",
                    "midi": 62,
                    "time": 198.5958333333307,
                    "velocity": 0.8110236220472441,
                    "duration": 0.08124999999998295
                },
                {
                    "name": "D4",
                    "midi": 62,
                    "time": 198.74374999999733,
                    "velocity": 0.7086614173228346,
                    "duration": 0.07499999999996021
                },
                {
                    "name": "E5",
                    "midi": 76,
                    "time": 198.74583333333067,
                    "velocity": 0.889763779527559,
                    "duration": 0.06666666666663446
                },
                {
                    "name": "B4",
                    "midi": 71,
                    "time": 198.74583333333067,
                    "velocity": 0.7637795275590551,
                    "duration": 0.04999999999998295
                },
                {
                    "name": "G#4",
                    "midi": 68,
                    "time": 198.74583333333067,
                    "velocity": 0.8110236220472441,
                    "duration": 0.06249999999997158
                },
                {
                    "name": "B5",
                    "midi": 83,
                    "time": 198.75208333333066,
                    "velocity": 0.7716535433070866,
                    "duration": 0.06666666666663446
                },
                {
                    "name": "E6",
                    "midi": 88,
                    "time": 198.754166666664,
                    "velocity": 0.6614173228346457,
                    "duration": 0.06458333333330302
                },
                {
                    "name": "D4",
                    "midi": 62,
                    "time": 198.87708333333063,
                    "velocity": 0.7559055118110236,
                    "duration": 0.06458333333333144
                },
                {
                    "name": "B4",
                    "midi": 71,
                    "time": 198.8812499999973,
                    "velocity": 0.7637795275590551,
                    "duration": 0.054166666666674246
                },
                {
                    "name": "B5",
                    "midi": 83,
                    "time": 198.8812499999973,
                    "velocity": 0.7874015748031497,
                    "duration": 0.07916666666665151
                },
                {
                    "name": "G#4",
                    "midi": 68,
                    "time": 198.88333333333063,
                    "velocity": 0.7559055118110236,
                    "duration": 0.06041666666666856
                },
                {
                    "name": "E6",
                    "midi": 88,
                    "time": 198.88333333333063,
                    "velocity": 0.7165354330708661,
                    "duration": 0.07499999999998863
                },
                {
                    "name": "E5",
                    "midi": 76,
                    "time": 198.88541666666396,
                    "velocity": 0.84251968503937,
                    "duration": 0.06041666666666856
                },
                {
                    "name": "G#4",
                    "midi": 68,
                    "time": 199.0020833333306,
                    "velocity": 0.7322834645669292,
                    "duration": 0.0687499999999659
                },
                {
                    "name": "B4",
                    "midi": 71,
                    "time": 199.00416666666393,
                    "velocity": 0.6535433070866141,
                    "duration": 0.0583333333333087
                },
                {
                    "name": "D4",
                    "midi": 62,
                    "time": 199.00416666666393,
                    "velocity": 0.7322834645669292,
                    "duration": 0.054166666666645824
                },
                {
                    "name": "E5",
                    "midi": 76,
                    "time": 199.0083333333306,
                    "velocity": 0.7322834645669292,
                    "duration": 0.07083333333329733
                },
                {
                    "name": "B5",
                    "midi": 83,
                    "time": 199.01041666666393,
                    "velocity": 0.6692913385826772,
                    "duration": 0.06458333333330302
                },
                {
                    "name": "E6",
                    "midi": 88,
                    "time": 199.01666666666392,
                    "velocity": 0.6771653543307087,
                    "duration": 0.054166666666645824
                },
                {
                    "name": "G#4",
                    "midi": 68,
                    "time": 199.1291666666639,
                    "velocity": 0.7007874015748031,
                    "duration": 0.08333333333328596
                },
                {
                    "name": "B4",
                    "midi": 71,
                    "time": 199.13124999999724,
                    "velocity": 0.6456692913385826,
                    "duration": 0.07291666666662877
                },
                {
                    "name": "D4",
                    "midi": 62,
                    "time": 199.1354166666639,
                    "velocity": 0.6535433070866141,
                    "duration": 0.07499999999996021
                },
                {
                    "name": "B5",
                    "midi": 83,
                    "time": 199.14374999999723,
                    "velocity": 0.7007874015748031,
                    "duration": 0.0687499999999659
                },
                {
                    "name": "E5",
                    "midi": 76,
                    "time": 199.14583333333056,
                    "velocity": 0.7165354330708661,
                    "duration": 0.04791666666665151
                },
                {
                    "name": "E6",
                    "midi": 88,
                    "time": 199.14999999999722,
                    "velocity": 0.5826771653543307,
                    "duration": 0.04791666666665151
                },
                {
                    "name": "D4",
                    "midi": 62,
                    "time": 199.26041666666387,
                    "velocity": 0.7165354330708661,
                    "duration": 0.07916666666662309
                },
                {
                    "name": "G#4",
                    "midi": 68,
                    "time": 199.26666666666387,
                    "velocity": 0.7086614173228346,
                    "duration": 0.08749999999994884
                },
                {
                    "name": "E5",
                    "midi": 76,
                    "time": 199.27083333333053,
                    "velocity": 0.7637795275590551,
                    "duration": 0.054166666666645824
                },
                {
                    "name": "B5",
                    "midi": 83,
                    "time": 199.27083333333053,
                    "velocity": 0.6771653543307087,
                    "duration": 0.07083333333329733
                },
                {
                    "name": "B4",
                    "midi": 71,
                    "time": 199.27291666666386,
                    "velocity": 0.6614173228346457,
                    "duration": 0.05624999999997726
                },
                {
                    "name": "E6",
                    "midi": 88,
                    "time": 199.2749999999972,
                    "velocity": 0.5984251968503937,
                    "duration": 0.04583333333332007
                },
                {
                    "name": "F#4",
                    "midi": 66,
                    "time": 199.40416666666383,
                    "velocity": 0.8661417322834646,
                    "duration": 0.024999999999977263
                },
                {
                    "name": "F5",
                    "midi": 77,
                    "time": 199.40624999999716,
                    "velocity": 0.8110236220472441,
                    "duration": 0.049999999999954525
                },
                {
                    "name": "A#5",
                    "midi": 82,
                    "time": 199.40624999999716,
                    "velocity": 0.889763779527559,
                    "duration": 0.07291666666662877
                },
                {
                    "name": "F6",
                    "midi": 89,
                    "time": 199.41249999999715,
                    "velocity": 0.7007874015748031,
                    "duration": 0.037499999999965894
                },
                {
                    "name": "A#4",
                    "midi": 70,
                    "time": 199.41666666666382,
                    "velocity": 0.8976377952755905,
                    "duration": 0.0895833333333087
                },
                {
                    "name": "G5",
                    "midi": 79,
                    "time": 199.4229166666638,
                    "velocity": 0.5590551181102362,
                    "duration": 0.04999999999998295
                },
                {
                    "name": "C#4",
                    "midi": 61,
                    "time": 199.42708333333047,
                    "velocity": 0.7559055118110236,
                    "duration": 0.11874999999997726
                },
                {
                    "name": "G4",
                    "midi": 67,
                    "time": 199.44374999999712,
                    "velocity": 0.5905511811023622,
                    "duration": 0.04583333333332007
                },
                {
                    "name": "A4",
                    "midi": 69,
                    "time": 199.68958333333046,
                    "velocity": 0.8740157480314961,
                    "duration": 0.07291666666665719
                },
                {
                    "name": "A5",
                    "midi": 81,
                    "time": 199.69374999999712,
                    "velocity": 0.8976377952755905,
                    "duration": 0.06458333333333144
                },
                {
                    "name": "F#4",
                    "midi": 66,
                    "time": 199.69583333333046,
                    "velocity": 0.8661417322834646,
                    "duration": 0.08541666666664582
                },
                {
                    "name": "C4",
                    "midi": 60,
                    "time": 199.69583333333046,
                    "velocity": 0.7952755905511811,
                    "duration": 0.07499999999998863
                },
                {
                    "name": "D6",
                    "midi": 86,
                    "time": 199.70208333333045,
                    "velocity": 0.7244094488188977,
                    "duration": 0.06458333333333144
                },
                {
                    "name": "D5",
                    "midi": 74,
                    "time": 199.70208333333045,
                    "velocity": 0.8740157480314961,
                    "duration": 0.03333333333333144
                },
                {
                    "name": "G#4",
                    "midi": 68,
                    "time": 199.9624999999971,
                    "velocity": 0.8267716535433071,
                    "duration": 0.06041666666661172
                },
                {
                    "name": "E4",
                    "midi": 64,
                    "time": 199.96666666666377,
                    "velocity": 0.6929133858267716,
                    "duration": 0.0645833333332746
                },
                {
                    "name": "E5",
                    "midi": 76,
                    "time": 199.9687499999971,
                    "velocity": 0.8582677165354331,
                    "duration": 0.05624999999994884
                },
                {
                    "name": "E6",
                    "midi": 88,
                    "time": 199.97083333333043,
                    "velocity": 0.8740157480314961,
                    "duration": 0.04374999999996021
                },
                {
                    "name": "A#3",
                    "midi": 58,
                    "time": 199.97708333333043,
                    "velocity": 0.3858267716535433,
                    "duration": 0.024999999999977263
                },
                {
                    "name": "F5",
                    "midi": 77,
                    "time": 199.98333333333042,
                    "velocity": 0.7716535433070866,
                    "duration": 0.035416666666634455
                },
                {
                    "name": "A5",
                    "midi": 81,
                    "time": 199.98749999999708,
                    "velocity": 0.6614173228346457,
                    "duration": 0.037499999999965894
                },
                {
                    "name": "B3",
                    "midi": 59,
                    "time": 199.99999999999707,
                    "velocity": 0.3858267716535433,
                    "duration": 0.02916666666664014
                },
                {
                    "name": "G4",
                    "midi": 67,
                    "time": 200.1041666666637,
                    "velocity": 0.9291338582677166,
                    "duration": 0.0583333333333087
                },
                {
                    "name": "D#4",
                    "midi": 63,
                    "time": 200.10833333333036,
                    "velocity": 0.9291338582677166,
                    "duration": 0.04999999999998295
                },
                {
                    "name": "B3",
                    "midi": 59,
                    "time": 200.1104166666637,
                    "velocity": 0.8976377952755905,
                    "duration": 0.09583333333330302
                },
                {
                    "name": "C6",
                    "midi": 84,
                    "time": 200.11458333333036,
                    "velocity": 0.9133858267716536,
                    "duration": 0.02916666666666856
                },
                {
                    "name": "C5",
                    "midi": 72,
                    "time": 200.1166666666637,
                    "velocity": 0.8031496062992126,
                    "duration": 0.03125
                },
                {
                    "name": "D5",
                    "midi": 74,
                    "time": 200.12499999999702,
                    "velocity": 0.7007874015748031,
                    "duration": 0.03333333333333144
                },
                {
                    "name": "E2",
                    "midi": 40,
                    "time": 200.51666666666367,
                    "velocity": 0.9448818897637795,
                    "duration": 0.11041666666665151
                },
                {
                    "name": "E1",
                    "midi": 28,
                    "time": 200.51666666666367,
                    "velocity": 0.984251968503937,
                    "duration": 0.07291666666665719
                },
                {
                    "name": "F#5",
                    "midi": 78,
                    "time": 200.87916666666365,
                    "velocity": 0.84251968503937,
                    "duration": 0.06249999999997158
                },
                {
                    "name": "B4",
                    "midi": 71,
                    "time": 200.8833333333303,
                    "velocity": 0.84251968503937,
                    "duration": 0.037499999999994316
                },
                {
                    "name": "B5",
                    "midi": 83,
                    "time": 200.8895833333303,
                    "velocity": 0.7244094488188977,
                    "duration": 0.04583333333332007
                },
                {
                    "name": "D#4",
                    "midi": 63,
                    "time": 200.89166666666364,
                    "velocity": 0.6614173228346457,
                    "duration": 0.07499999999996021
                },
                {
                    "name": "F#4",
                    "midi": 66,
                    "time": 200.89374999999697,
                    "velocity": 0.7559055118110236,
                    "duration": 0.0583333333333087
                },
                {
                    "name": "A3",
                    "midi": 57,
                    "time": 200.95833333333027,
                    "velocity": 0.07086614173228346,
                    "duration": 0.11458333333328596
                },
                {
                    "name": "F#4",
                    "midi": 66,
                    "time": 201.00624999999692,
                    "velocity": 0.7244094488188977,
                    "duration": 0.04999999999998295
                },
                {
                    "name": "B4",
                    "midi": 71,
                    "time": 201.00833333333026,
                    "velocity": 0.8582677165354331,
                    "duration": 0.0583333333333087
                },
                {
                    "name": "D#4",
                    "midi": 63,
                    "time": 201.0104166666636,
                    "velocity": 0.6614173228346457,
                    "duration": 0.04999999999998295
                },
                {
                    "name": "B5",
                    "midi": 83,
                    "time": 201.0104166666636,
                    "velocity": 0.7637795275590551,
                    "duration": 0.06666666666663446
                },
                {
                    "name": "F#5",
                    "midi": 78,
                    "time": 201.01249999999692,
                    "velocity": 0.6929133858267716,
                    "duration": 0.05624999999997726
                },
                {
                    "name": "F#5",
                    "midi": 78,
                    "time": 201.11874999999688,
                    "velocity": 0.7244094488188977,
                    "duration": 0.06249999999997158
                },
                {
                    "name": "B5",
                    "midi": 83,
                    "time": 201.1270833333302,
                    "velocity": 0.7086614173228346,
                    "duration": 0.039583333333325754
                },
                {
                    "name": "B4",
                    "midi": 71,
                    "time": 201.13124999999687,
                    "velocity": 0.6535433070866141,
                    "duration": 0.037499999999994316
                },
                {
                    "name": "F#4",
                    "midi": 66,
                    "time": 201.13749999999686,
                    "velocity": 0.7165354330708661,
                    "duration": 0.03333333333333144
                },
                {
                    "name": "A3",
                    "midi": 57,
                    "time": 201.1395833333302,
                    "velocity": 0.5984251968503937,
                    "duration": 0.054166666666645824
                },
                {
                    "name": "D#4",
                    "midi": 63,
                    "time": 201.14166666666353,
                    "velocity": 0.6929133858267716,
                    "duration": 0.03333333333333144
                },
                {
                    "name": "F#4",
                    "midi": 66,
                    "time": 201.23958333333016,
                    "velocity": 0.7637795275590551,
                    "duration": 0.05624999999997726
                },
                {
                    "name": "A3",
                    "midi": 57,
                    "time": 201.2416666666635,
                    "velocity": 0.7559055118110236,
                    "duration": 0.06041666666664014
                },
                {
                    "name": "D#4",
                    "midi": 63,
                    "time": 201.24583333333015,
                    "velocity": 0.7401574803149606,
                    "duration": 0.06041666666664014
                },
                {
                    "name": "F#5",
                    "midi": 78,
                    "time": 201.24791666666349,
                    "velocity": 0.7086614173228346,
                    "duration": 0.06458333333330302
                },
                {
                    "name": "B4",
                    "midi": 71,
                    "time": 201.24791666666349,
                    "velocity": 0.8110236220472441,
                    "duration": 0.06666666666663446
                },
                {
                    "name": "B5",
                    "midi": 83,
                    "time": 201.25208333333015,
                    "velocity": 0.7086614173228346,
                    "duration": 0.05624999999997726
                },
                {
                    "name": "F#4",
                    "midi": 66,
                    "time": 201.3749999999968,
                    "velocity": 0.7952755905511811,
                    "duration": 0.04791666666665151
                },
                {
                    "name": "D#4",
                    "midi": 63,
                    "time": 201.38124999999678,
                    "velocity": 0.7244094488188977,
                    "duration": 0.054166666666645824
                },
                {
                    "name": "B4",
                    "midi": 71,
                    "time": 201.38749999999678,
                    "velocity": 0.8582677165354331,
                    "duration": 0.07083333333329733
                },
                {
                    "name": "F#5",
                    "midi": 78,
                    "time": 201.39166666666344,
                    "velocity": 0.7637795275590551,
                    "duration": 0.0583333333333087
                },
                {
                    "name": "B5",
                    "midi": 83,
                    "time": 201.39374999999677,
                    "velocity": 0.7165354330708661,
                    "duration": 0.052083333333314386
                },
                {
                    "name": "A3",
                    "midi": 57,
                    "time": 201.3958333333301,
                    "velocity": 0.3937007874015748,
                    "duration": 0.054166666666645824
                },
                {
                    "name": "F#4",
                    "midi": 66,
                    "time": 201.4916666666634,
                    "velocity": 0.7244094488188977,
                    "duration": 0.0687499999999659
                },
                {
                    "name": "D#4",
                    "midi": 63,
                    "time": 201.49583333333007,
                    "velocity": 0.7244094488188977,
                    "duration": 0.07916666666662309
                },
                {
                    "name": "A3",
                    "midi": 57,
                    "time": 201.5041666666634,
                    "velocity": 0.6299212598425197,
                    "duration": 0.04791666666665151
                },
                {
                    "name": "B4",
                    "midi": 71,
                    "time": 201.50624999999673,
                    "velocity": 0.7874015748031497,
                    "duration": 0.07083333333329733
                },
                {
                    "name": "B5",
                    "midi": 83,
                    "time": 201.5104166666634,
                    "velocity": 0.5984251968503937,
                    "duration": 0.06041666666664014
                },
                {
                    "name": "F#5",
                    "midi": 78,
                    "time": 201.5104166666634,
                    "velocity": 0.6771653543307087,
                    "duration": 0.06458333333330302
                },
                {
                    "name": "F#4",
                    "midi": 66,
                    "time": 201.63333333333003,
                    "velocity": 0.7874015748031497,
                    "duration": 0.07708333333332007
                },
                {
                    "name": "B4",
                    "midi": 71,
                    "time": 201.63333333333003,
                    "velocity": 0.6850393700787402,
                    "duration": 0.04583333333332007
                },
                {
                    "name": "F#5",
                    "midi": 78,
                    "time": 201.63333333333003,
                    "velocity": 0.6850393700787402,
                    "duration": 0.06874999999999432
                },
                {
                    "name": "D#4",
                    "midi": 63,
                    "time": 201.63541666666336,
                    "velocity": 0.6929133858267716,
                    "duration": 0.06458333333333144
                },
                {
                    "name": "B5",
                    "midi": 83,
                    "time": 201.6374999999967,
                    "velocity": 0.5275590551181102,
                    "duration": 0.04374999999998863
                },
                {
                    "name": "A3",
                    "midi": 57,
                    "time": 201.6437499999967,
                    "velocity": 0.5354330708661418,
                    "duration": 0.056250000000005684
                },
                {
                    "name": "F5",
                    "midi": 77,
                    "time": 201.75833333333003,
                    "velocity": 0.8503937007874016,
                    "duration": 0.07083333333329733
                },
                {
                    "name": "C5",
                    "midi": 72,
                    "time": 201.7624999999967,
                    "velocity": 0.8740157480314961,
                    "duration": 0.06041666666664014
                },
                {
                    "name": "C6",
                    "midi": 84,
                    "time": 201.7687499999967,
                    "velocity": 0.7795275590551181,
                    "duration": 0.054166666666645824
                },
                {
                    "name": "F4",
                    "midi": 65,
                    "time": 201.77083333333002,
                    "velocity": 0.8188976377952756,
                    "duration": 0.06666666666663446
                },
                {
                    "name": "D4",
                    "midi": 62,
                    "time": 201.77291666666335,
                    "velocity": 0.84251968503937,
                    "duration": 0.06458333333330302
                },
                {
                    "name": "G#3",
                    "midi": 56,
                    "time": 201.78124999999667,
                    "velocity": 0.7716535433070866,
                    "duration": 0.07499999999998863
                },
                {
                    "name": "A4",
                    "midi": 69,
                    "time": 202.02708333332998,
                    "velocity": 0.9133858267716536,
                    "duration": 0.0625
                },
                {
                    "name": "A5",
                    "midi": 81,
                    "time": 202.02708333332998,
                    "velocity": 0.84251968503937,
                    "duration": 0.07499999999998863
                },
                {
                    "name": "E5",
                    "midi": 76,
                    "time": 202.02916666666331,
                    "velocity": 0.889763779527559,
                    "duration": 0.0625
                },
                {
                    "name": "E4",
                    "midi": 64,
                    "time": 202.03749999999664,
                    "velocity": 0.8503937007874016,
                    "duration": 0.06666666666666288
                },
                {
                    "name": "G3",
                    "midi": 55,
                    "time": 202.03958333332997,
                    "velocity": 0.7874015748031497,
                    "duration": 0.08749999999997726
                },
                {
                    "name": "C#4",
                    "midi": 61,
                    "time": 202.03958333332997,
                    "velocity": 0.8661417322834646,
                    "duration": 0.07499999999998863
                },
                {
                    "name": "F#3",
                    "midi": 54,
                    "time": 202.31249999999662,
                    "velocity": 0.7401574803149606,
                    "duration": 0.08958333333333712
                },
                {
                    "name": "D#4",
                    "midi": 63,
                    "time": 202.31666666666328,
                    "velocity": 0.84251968503937,
                    "duration": 0.07916666666667993
                },
                {
                    "name": "D#5",
                    "midi": 75,
                    "time": 202.3187499999966,
                    "velocity": 0.9291338582677166,
                    "duration": 0.06041666666666856
                },
                {
                    "name": "B4",
                    "midi": 71,
                    "time": 202.3249999999966,
                    "velocity": 0.8582677165354331,
                    "duration": 0.03125
                },
                {
                    "name": "B5",
                    "midi": 83,
                    "time": 202.3249999999966,
                    "velocity": 0.7952755905511811,
                    "duration": 0.03125
                },
                {
                    "name": "B3",
                    "midi": 59,
                    "time": 202.3312499999966,
                    "velocity": 0.5826771653543307,
                    "duration": 0.07916666666667993
                },
                {
                    "name": "D4",
                    "midi": 62,
                    "time": 202.45208333332994,
                    "velocity": 0.8976377952755905,
                    "duration": 0.06249999999997158
                },
                {
                    "name": "B3",
                    "midi": 59,
                    "time": 202.45416666666327,
                    "velocity": 0.6456692913385826,
                    "duration": 0.06666666666663446
                },
                {
                    "name": "F3",
                    "midi": 53,
                    "time": 202.45416666666327,
                    "velocity": 0.8110236220472441,
                    "duration": 0.0999999999999659
                },
                {
                    "name": "G5",
                    "midi": 79,
                    "time": 202.4687499999966,
                    "velocity": 0.8031496062992126,
                    "duration": 0.03125
                },
                {
                    "name": "G4",
                    "midi": 67,
                    "time": 202.4687499999966,
                    "velocity": 0.84251968503937,
                    "duration": 0.03333333333333144
                },
                {
                    "name": "E1",
                    "midi": 28,
                    "time": 202.8395833333299,
                    "velocity": 0.8503937007874016,
                    "duration": 0.1875
                },
                {
                    "name": "E2",
                    "midi": 40,
                    "time": 202.8395833333299,
                    "velocity": 0.9763779527559056,
                    "duration": 0.22708333333332575
                },
                {
                    "name": "F4",
                    "midi": 65,
                    "time": 203.3458333333299,
                    "velocity": 0.8503937007874016,
                    "duration": 0.05833333333333712
                },
                {
                    "name": "C4",
                    "midi": 60,
                    "time": 203.34791666666322,
                    "velocity": 0.8031496062992126,
                    "duration": 0.0625
                },
                {
                    "name": "F5",
                    "midi": 77,
                    "time": 203.34791666666322,
                    "velocity": 0.8188976377952756,
                    "duration": 0.06874999999999432
                },
                {
                    "name": "A3",
                    "midi": 57,
                    "time": 203.34999999999656,
                    "velocity": 0.7007874015748031,
                    "duration": 0.07083333333332575
                },
                {
                    "name": "C5",
                    "midi": 72,
                    "time": 203.3520833333299,
                    "velocity": 0.7637795275590551,
                    "duration": 0.054166666666674246
                },
                {
                    "name": "D#3",
                    "midi": 51,
                    "time": 203.3520833333299,
                    "velocity": 0.7322834645669292,
                    "duration": 0.07083333333332575
                },
                {
                    "name": "F5",
                    "midi": 77,
                    "time": 203.47291666666322,
                    "velocity": 0.7874015748031497,
                    "duration": 0.07083333333329733
                },
                {
                    "name": "C5",
                    "midi": 72,
                    "time": 203.47916666666322,
                    "velocity": 0.7952755905511811,
                    "duration": 0.06458333333330302
                },
                {
                    "name": "F4",
                    "midi": 65,
                    "time": 203.47916666666322,
                    "velocity": 0.7952755905511811,
                    "duration": 0.04583333333332007
                },
                {
                    "name": "C4",
                    "midi": 60,
                    "time": 203.4854166666632,
                    "velocity": 0.7559055118110236,
                    "duration": 0.04166666666665719
                },
                {
                    "name": "A3",
                    "midi": 57,
                    "time": 203.48749999999654,
                    "velocity": 0.6614173228346457,
                    "duration": 0.04999999999998295
                },
                {
                    "name": "D#3",
                    "midi": 51,
                    "time": 203.48749999999654,
                    "velocity": 0.6299212598425197,
                    "duration": 0.054166666666645824
                },
                {
                    "name": "F4",
                    "midi": 65,
                    "time": 203.5874999999965,
                    "velocity": 0.7165354330708661,
                    "duration": 0.0687499999999659
                },
                {
                    "name": "F5",
                    "midi": 77,
                    "time": 203.58958333332984,
                    "velocity": 0.5905511811023622,
                    "duration": 0.06666666666663446
                },
                {
                    "name": "C5",
                    "midi": 72,
                    "time": 203.59583333332984,
                    "velocity": 0.8110236220472441,
                    "duration": 0.06249999999997158
                },
                {
                    "name": "D#3",
                    "midi": 51,
                    "time": 203.5999999999965,
                    "velocity": 0.7401574803149606,
                    "duration": 0.07083333333329733
                },
                {
                    "name": "C4",
                    "midi": 60,
                    "time": 203.60416666666316,
                    "velocity": 0.7244094488188977,
                    "duration": 0.04999999999998295
                },
                {
                    "name": "A3",
                    "midi": 57,
                    "time": 203.61041666666316,
                    "velocity": 0.6929133858267716,
                    "duration": 0.04791666666665151
                },
                {
                    "name": "F4",
                    "midi": 65,
                    "time": 203.7208333333298,
                    "velocity": 0.7637795275590551,
                    "duration": 0.0687499999999659
                },
                {
                    "name": "D#3",
                    "midi": 51,
                    "time": 203.72291666666314,
                    "velocity": 0.7480314960629921,
                    "duration": 0.07291666666662877
                },
                {
                    "name": "C5",
                    "midi": 72,
                    "time": 203.7270833333298,
                    "velocity": 0.7165354330708661,
                    "duration": 0.0583333333333087
                },
                {
                    "name": "F5",
                    "midi": 77,
                    "time": 203.72916666666313,
                    "velocity": 0.5196850393700787,
                    "duration": 0.0583333333333087
                },
                {
                    "name": "C4",
                    "midi": 60,
                    "time": 203.7333333333298,
                    "velocity": 0.6614173228346457,
                    "duration": 0.04166666666665719
                },
                {
                    "name": "A3",
                    "midi": 57,
                    "time": 203.7333333333298,
                    "velocity": 0.7165354330708661,
                    "duration": 0.052083333333314386
                },
                {
                    "name": "D#3",
                    "midi": 51,
                    "time": 203.85208333332977,
                    "velocity": 0.7244094488188977,
                    "duration": 0.0687499999999659
                },
                {
                    "name": "F4",
                    "midi": 65,
                    "time": 203.85208333332977,
                    "velocity": 0.6771653543307087,
                    "duration": 0.07291666666662877
                },
                {
                    "name": "C4",
                    "midi": 60,
                    "time": 203.8541666666631,
                    "velocity": 0.6929133858267716,
                    "duration": 0.04999999999998295
                },
                {
                    "name": "C5",
                    "midi": 72,
                    "time": 203.85624999999644,
                    "velocity": 0.7244094488188977,
                    "duration": 0.06666666666663446
                },
                {
                    "name": "A3",
                    "midi": 57,
                    "time": 203.85624999999644,
                    "velocity": 0.7086614173228346,
                    "duration": 0.0687499999999659
                },
                {
                    "name": "F5",
                    "midi": 77,
                    "time": 203.8604166666631,
                    "velocity": 0.5511811023622047,
                    "duration": 0.054166666666645824
                },
                {
                    "name": "D#3",
                    "midi": 51,
                    "time": 203.9812499999964,
                    "velocity": 0.6929133858267716,
                    "duration": 0.2520833333332746
                },
                {
                    "name": "C4",
                    "midi": 60,
                    "time": 203.98333333332974,
                    "velocity": 0.7322834645669292,
                    "duration": 0.07291666666665719
                },
                {
                    "name": "A3",
                    "midi": 57,
                    "time": 203.98541666666307,
                    "velocity": 0.7086614173228346,
                    "duration": 0.08749999999997726
                },
                {
                    "name": "F4",
                    "midi": 65,
                    "time": 203.98958333332973,
                    "velocity": 0.6929133858267716,
                    "duration": 0.07708333333332007
                },
                {
                    "name": "C5",
                    "midi": 72,
                    "time": 203.9937499999964,
                    "velocity": 0.6771653543307087,
                    "duration": 0.07499999999998863
                },
                {
                    "name": "F5",
                    "midi": 77,
                    "time": 203.99583333332973,
                    "velocity": 0.5984251968503937,
                    "duration": 0.06666666666666288
                },
                {
                    "name": "C4",
                    "midi": 60,
                    "time": 204.13333333332972,
                    "velocity": 0.6771653543307087,
                    "duration": 0.08749999999997726
                },
                {
                    "name": "A3",
                    "midi": 57,
                    "time": 204.13541666666305,
                    "velocity": 0.5905511811023622,
                    "duration": 0.09166666666664014
                },
                {
                    "name": "F4",
                    "midi": 65,
                    "time": 204.13541666666305,
                    "velocity": 0.6850393700787402,
                    "duration": 0.08124999999998295
                },
                {
                    "name": "C5",
                    "midi": 72,
                    "time": 204.14166666666304,
                    "velocity": 0.7165354330708661,
                    "duration": 0.11249999999998295
                },
                {
                    "name": "F5",
                    "midi": 77,
                    "time": 204.14374999999637,
                    "velocity": 0.5905511811023622,
                    "duration": 0.07291666666665719
                },
                {
                    "name": "B3",
                    "midi": 59,
                    "time": 204.297916666663,
                    "velocity": 0.889763779527559,
                    "duration": 0.06458333333333144
                },
                {
                    "name": "D3",
                    "midi": 50,
                    "time": 204.29999999999634,
                    "velocity": 0.889763779527559,
                    "duration": 0.06874999999999432
                },
                {
                    "name": "G4",
                    "midi": 67,
                    "time": 204.29999999999634,
                    "velocity": 0.7559055118110236,
                    "duration": 0.04166666666665719
                },
                {
                    "name": "G5",
                    "midi": 79,
                    "time": 204.30208333332968,
                    "velocity": 0.7874015748031497,
                    "duration": 0.03333333333333144
                },
                {
                    "name": "G#3",
                    "midi": 56,
                    "time": 204.304166666663,
                    "velocity": 0.8503937007874016,
                    "duration": 0.06041666666666856
                },
                {
                    "name": "A#3",
                    "midi": 58,
                    "time": 204.64583333332968,
                    "velocity": 0.937007874015748,
                    "duration": 0.2479166666665833
                },
                {
                    "name": "G3",
                    "midi": 55,
                    "time": 204.647916666663,
                    "velocity": 0.8110236220472441,
                    "duration": 0.23958333333325754
                },
                {
                    "name": "C#3",
                    "midi": 49,
                    "time": 204.64999999999634,
                    "velocity": 0.8661417322834646,
                    "duration": 0.2312499999999318
                },
                {
                    "name": "E5",
                    "midi": 76,
                    "time": 204.654166666663,
                    "velocity": 0.8503937007874016,
                    "duration": 0.1958333333332689
                },
                {
                    "name": "A#4",
                    "midi": 70,
                    "time": 204.654166666663,
                    "velocity": 0.889763779527559,
                    "duration": 0.21041666666658898
                },
                {
                    "name": "E4",
                    "midi": 64,
                    "time": 204.65833333332967,
                    "velocity": 0.889763779527559,
                    "duration": 0.18541666666661172
                },
                {
                    "name": "D5",
                    "midi": 74,
                    "time": 204.67499999999632,
                    "velocity": 0.6220472440944882,
                    "duration": 0.037499999999994316
                },
                {
                    "name": "A#3",
                    "midi": 58,
                    "time": 205.0416666666629,
                    "velocity": 0.937007874015748,
                    "duration": 0.11874999999997726
                },
                {
                    "name": "F5",
                    "midi": 77,
                    "time": 205.04999999999623,
                    "velocity": 0.8582677165354331,
                    "duration": 0.052083333333314386
                },
                {
                    "name": "G3",
                    "midi": 55,
                    "time": 205.04999999999623,
                    "velocity": 0.7559055118110236,
                    "duration": 0.07916666666665151
                },
                {
                    "name": "C#3",
                    "midi": 49,
                    "time": 205.05208333332956,
                    "velocity": 0.8346456692913385,
                    "duration": 0.1520833333333087
                },
                {
                    "name": "F4",
                    "midi": 65,
                    "time": 205.0541666666629,
                    "velocity": 0.7716535433070866,
                    "duration": 0.04999999999998295
                },
                {
                    "name": "G4",
                    "midi": 67,
                    "time": 205.0604166666629,
                    "velocity": 0.7637795275590551,
                    "duration": 0.03125
                },
                {
                    "name": "A3",
                    "midi": 57,
                    "time": 205.29583333332954,
                    "velocity": 0.9448818897637795,
                    "duration": 0.06666666666666288
                },
                {
                    "name": "D5",
                    "midi": 74,
                    "time": 205.2999999999962,
                    "velocity": 0.8818897637795275,
                    "duration": 0.037499999999994316
                },
                {
                    "name": "F#3",
                    "midi": 54,
                    "time": 205.30208333332953,
                    "velocity": 0.9448818897637795,
                    "duration": 0.07499999999998863
                },
                {
                    "name": "C3",
                    "midi": 48,
                    "time": 205.30416666666287,
                    "velocity": 0.9212598425196851,
                    "duration": 0.10208333333332575
                },
                {
                    "name": "D4",
                    "midi": 62,
                    "time": 205.30416666666287,
                    "velocity": 0.8110236220472441,
                    "duration": 0.03333333333333144
                },
                {
                    "name": "E1",
                    "midi": 28,
                    "time": 205.7812499999962,
                    "velocity": 0.7716535433070866,
                    "duration": 0.08750000000000568
                },
                {
                    "name": "E2",
                    "midi": 40,
                    "time": 205.78333333332952,
                    "velocity": 0.9921259842519685,
                    "duration": 0.15833333333333144
                },
                {
                    "name": "F1",
                    "midi": 29,
                    "time": 205.7874999999962,
                    "velocity": 0.8740157480314961,
                    "duration": 0.05208333333334281
                },
                {
                    "name": "F#1",
                    "midi": 30,
                    "time": 205.80416666666287,
                    "velocity": 0.7401574803149606,
                    "duration": 0.02916666666666856
                },
                {
                    "name": "G#4",
                    "midi": 68,
                    "time": 206.09166666666286,
                    "velocity": 0.905511811023622,
                    "duration": 0.2458333333333087
                },
                {
                    "name": "G#2",
                    "midi": 44,
                    "time": 206.09583333332952,
                    "velocity": 0.8661417322834646,
                    "duration": 0.22708333333332575
                },
                {
                    "name": "F#4",
                    "midi": 66,
                    "time": 206.28958333332952,
                    "velocity": 0.7559055118110236,
                    "duration": 0.12708333333333144
                },
                {
                    "name": "F#2",
                    "midi": 42,
                    "time": 206.2958333333295,
                    "velocity": 0.7480314960629921,
                    "duration": 0.15833333333333144
                },
                {
                    "name": "F4",
                    "midi": 65,
                    "time": 206.36874999999617,
                    "velocity": 0.5748031496062992,
                    "duration": 0.09166666666666856
                },
                {
                    "name": "F2",
                    "midi": 41,
                    "time": 206.39166666666284,
                    "velocity": 0.3464566929133858,
                    "duration": 0.08958333333333712
                },
                {
                    "name": "E2",
                    "midi": 40,
                    "time": 206.4270833333295,
                    "velocity": 0.6141732283464567,
                    "duration": 0.10208333333335418
                },
                {
                    "name": "E4",
                    "midi": 64,
                    "time": 206.42916666666284,
                    "velocity": 0.5354330708661418,
                    "duration": 0.05000000000001137
                },
                {
                    "name": "B2",
                    "midi": 47,
                    "time": 206.48541666666284,
                    "velocity": 0.8818897637795275,
                    "duration": 0.27083333333337123
                },
                {
                    "name": "B4",
                    "midi": 71,
                    "time": 206.51041666666285,
                    "velocity": 0.7637795275590551,
                    "duration": 0.21666666666669698
                },
                {
                    "name": "A#2",
                    "midi": 46,
                    "time": 206.70208333332954,
                    "velocity": 0.6850393700787402,
                    "duration": 0.15833333333335986
                },
                {
                    "name": "A#4",
                    "midi": 70,
                    "time": 206.70208333332954,
                    "velocity": 0.7322834645669292,
                    "duration": 0.0979166666666913
                },
                {
                    "name": "A2",
                    "midi": 45,
                    "time": 206.7791666666629,
                    "velocity": 0.4881889763779528,
                    "duration": 0.10000000000002274
                },
                {
                    "name": "A4",
                    "midi": 69,
                    "time": 206.78124999999622,
                    "velocity": 0.4409448818897638,
                    "duration": 0.07916666666667993
                },
                {
                    "name": "G#2",
                    "midi": 44,
                    "time": 206.83333333332956,
                    "velocity": 0.7244094488188977,
                    "duration": 0.12916666666671972
                },
                {
                    "name": "G#4",
                    "midi": 68,
                    "time": 206.83749999999623,
                    "velocity": 0.7716535433070866,
                    "duration": 0.058333333333365545
                },
                {
                    "name": "D3",
                    "midi": 50,
                    "time": 206.8958333333296,
                    "velocity": 0.8582677165354331,
                    "duration": 0.2541666666666913
                },
                {
                    "name": "D5",
                    "midi": 74,
                    "time": 206.91249999999627,
                    "velocity": 0.7952755905511811,
                    "duration": 0.2395833333333428
                },
                {
                    "name": "C#3",
                    "midi": 49,
                    "time": 207.11874999999628,
                    "velocity": 0.6535433070866141,
                    "duration": 0.1708333333333485
                },
                {
                    "name": "C#5",
                    "midi": 73,
                    "time": 207.14166666666296,
                    "velocity": 0.7401574803149606,
                    "duration": 0.08958333333333712
                },
                {
                    "name": "C5",
                    "midi": 72,
                    "time": 207.20208333332963,
                    "velocity": 0.5511811023622047,
                    "duration": 0.08125000000001137
                },
                {
                    "name": "C3",
                    "midi": 48,
                    "time": 207.2312499999963,
                    "velocity": 0.1889763779527559,
                    "duration": 0.07708333333334849
                },
                {
                    "name": "B2",
                    "midi": 47,
                    "time": 207.2562499999963,
                    "velocity": 0.5354330708661418,
                    "duration": 0.13749999999998863
                },
                {
                    "name": "B4",
                    "midi": 71,
                    "time": 207.26666666666296,
                    "velocity": 0.7165354330708661,
                    "duration": 0.08125000000001137
                },
                {
                    "name": "F#3",
                    "midi": 54,
                    "time": 207.33958333332964,
                    "velocity": 0.9291338582677166,
                    "duration": 0.22291666666663446
                },
                {
                    "name": "F#5",
                    "midi": 78,
                    "time": 207.3437499999963,
                    "velocity": 0.8582677165354331,
                    "duration": 0.29166666666662877
                },
                {
                    "name": "E5",
                    "midi": 76,
                    "time": 207.55416666666295,
                    "velocity": 0.7165354330708661,
                    "duration": 0.13333333333332575
                },
                {
                    "name": "E3",
                    "midi": 52,
                    "time": 207.5645833333296,
                    "velocity": 0.6141732283464567,
                    "duration": 0.125
                },
                {
                    "name": "D#3",
                    "midi": 51,
                    "time": 207.60624999999627,
                    "velocity": 0.7165354330708661,
                    "duration": 0.15625000000002842
                },
                {
                    "name": "D#5",
                    "midi": 75,
                    "time": 207.6395833333296,
                    "velocity": 0.7874015748031497,
                    "duration": 0.0979166666666913
                },
                {
                    "name": "D5",
                    "midi": 74,
                    "time": 207.71249999999628,
                    "velocity": 0.6377952755905512,
                    "duration": 0.14791666666664582
                },
                {
                    "name": "D3",
                    "midi": 50,
                    "time": 207.71874999999628,
                    "velocity": 0.7322834645669292,
                    "duration": 0.12708333333333144
                },
                {
                    "name": "G#3",
                    "midi": 56,
                    "time": 207.80416666666295,
                    "velocity": 0.9448818897637795,
                    "duration": 0.19583333333329733
                },
                {
                    "name": "G#5",
                    "midi": 80,
                    "time": 207.80416666666295,
                    "velocity": 0.905511811023622,
                    "duration": 0.2874999999999659
                },
                {
                    "name": "F#3",
                    "midi": 54,
                    "time": 208.00208333332958,
                    "velocity": 0.5275590551181102,
                    "duration": 0.1395833333333485
                },
                {
                    "name": "F#5",
                    "midi": 78,
                    "time": 208.03333333332958,
                    "velocity": 0.8503937007874016,
                    "duration": 0.15625000000002842
                },
                {
                    "name": "F5",
                    "midi": 77,
                    "time": 208.11666666666292,
                    "velocity": 0.6692913385826772,
                    "duration": 0.12083333333336554
                },
                {
                    "name": "F3",
                    "midi": 53,
                    "time": 208.12083333332959,
                    "velocity": 0.3937007874015748,
                    "duration": 0.1291666666666913
                },
                {
                    "name": "E5",
                    "midi": 76,
                    "time": 208.1895833333296,
                    "velocity": 0.7559055118110236,
                    "duration": 0.07291666666665719
                },
                {
                    "name": "E3",
                    "midi": 52,
                    "time": 208.20833333332962,
                    "velocity": 0.7952755905511811,
                    "duration": 0.052083333333314386
                },
                {
                    "name": "D#5",
                    "midi": 75,
                    "time": 208.3770833333296,
                    "velocity": 0.49606299212598426,
                    "duration": 0.07291666666665719
                },
                {
                    "name": "E5",
                    "midi": 76,
                    "time": 208.5208333333296,
                    "velocity": 0.84251968503937,
                    "duration": 0.06874999999999432
                },
                {
                    "name": "A1",
                    "midi": 33,
                    "time": 208.5208333333296,
                    "velocity": 1,
                    "duration": 0.06874999999999432
                },
                {
                    "name": "C#5",
                    "midi": 73,
                    "time": 208.5208333333296,
                    "velocity": 0.8976377952755905,
                    "duration": 0.07083333333332575
                },
                {
                    "name": "A5",
                    "midi": 81,
                    "time": 208.52708333332959,
                    "velocity": 0.84251968503937,
                    "duration": 0.09166666666666856
                },
                {
                    "name": "A4",
                    "midi": 69,
                    "time": 208.52916666666292,
                    "velocity": 0.7952755905511811,
                    "duration": 0.05208333333334281
                },
                {
                    "name": "A2",
                    "midi": 45,
                    "time": 208.52916666666292,
                    "velocity": 0.8976377952755905,
                    "duration": 0.08125000000001137
                },
                {
                    "name": "E4",
                    "midi": 64,
                    "time": 208.96874999999625,
                    "velocity": 0.9212598425196851,
                    "duration": 0.05833333333333712
                },
                {
                    "name": "A3",
                    "midi": 57,
                    "time": 208.9729166666629,
                    "velocity": 0.8110236220472441,
                    "duration": 0.07916666666667993
                },
                {
                    "name": "C#4",
                    "midi": 61,
                    "time": 208.97499999999624,
                    "velocity": 0.905511811023622,
                    "duration": 0.054166666666674246
                },
                {
                    "name": "A1",
                    "midi": 33,
                    "time": 209.37083333332959,
                    "velocity": 0.4330708661417323,
                    "duration": 0.10208333333332575
                },
                {
                    "name": "A2",
                    "midi": 45,
                    "time": 209.3895833333296,
                    "velocity": 0.8582677165354331,
                    "duration": 0.07708333333332007
                },
                {
                    "name": "G5",
                    "midi": 79,
                    "time": 209.41666666666293,
                    "velocity": 0.8110236220472441,
                    "duration": 0.06666666666663446
                },
                {
                    "name": "G4",
                    "midi": 67,
                    "time": 209.41874999999627,
                    "velocity": 0.889763779527559,
                    "duration": 0.03333333333333144
                },
                {
                    "name": "D5",
                    "midi": 74,
                    "time": 209.4208333333296,
                    "velocity": 0.8346456692913385,
                    "duration": 0.04999999999998295
                },
                {
                    "name": "F4",
                    "midi": 65,
                    "time": 209.56458333332958,
                    "velocity": 0.8818897637795275,
                    "duration": 0.0625
                },
                {
                    "name": "F5",
                    "midi": 77,
                    "time": 209.5666666666629,
                    "velocity": 0.8976377952755905,
                    "duration": 0.06458333333333144
                },
                {
                    "name": "G4",
                    "midi": 67,
                    "time": 209.5729166666629,
                    "velocity": 0.8503937007874016,
                    "duration": 0.03125
                },
                {
                    "name": "D#5",
                    "midi": 75,
                    "time": 209.59374999999625,
                    "velocity": 0.5669291338582677,
                    "duration": 0.03333333333333144
                },
                {
                    "name": "G5",
                    "midi": 79,
                    "time": 209.70833333332956,
                    "velocity": 0.8503937007874016,
                    "duration": 0.06041666666664014
                },
                {
                    "name": "G4",
                    "midi": 67,
                    "time": 209.71874999999622,
                    "velocity": 0.6220472440944882,
                    "duration": 0.04374999999998863
                },
                {
                    "name": "F4",
                    "midi": 65,
                    "time": 209.81666666666288,
                    "velocity": 0.8740157480314961,
                    "duration": 0.054166666666674246
                },
                {
                    "name": "D4",
                    "midi": 62,
                    "time": 209.81666666666288,
                    "velocity": 0.8188976377952756,
                    "duration": 0.06458333333333144
                },
                {
                    "name": "G#3",
                    "midi": 56,
                    "time": 209.81874999999621,
                    "velocity": 0.8188976377952756,
                    "duration": 0.10208333333332575
                },
                {
                    "name": "D5",
                    "midi": 74,
                    "time": 209.97083333332955,
                    "velocity": 0.8976377952755905,
                    "duration": 0.06666666666666288
                },
                {
                    "name": "G4",
                    "midi": 67,
                    "time": 209.97083333332955,
                    "velocity": 0.9133858267716536,
                    "duration": 0.04166666666665719
                },
                {
                    "name": "G5",
                    "midi": 79,
                    "time": 209.97499999999621,
                    "velocity": 0.84251968503937,
                    "duration": 0.037499999999994316
                },
                {
                    "name": "F5",
                    "midi": 77,
                    "time": 210.12499999999622,
                    "velocity": 0.8818897637795275,
                    "duration": 0.039583333333325754
                },
                {
                    "name": "F4",
                    "midi": 65,
                    "time": 210.12499999999622,
                    "velocity": 0.9212598425196851,
                    "duration": 0.03333333333333144
                },
                {
                    "name": "G4",
                    "midi": 67,
                    "time": 210.16041666666288,
                    "velocity": 0.30708661417322836,
                    "duration": 0.04166666666665719
                },
                {
                    "name": "A1",
                    "midi": 33,
                    "time": 210.22708333332955,
                    "velocity": 0.7952755905511811,
                    "duration": 0.08541666666664582
                },
                {
                    "name": "E2",
                    "midi": 40,
                    "time": 210.24999999999622,
                    "velocity": 0.889763779527559,
                    "duration": 0.07291666666662877
                },
                {
                    "name": "C#5",
                    "midi": 73,
                    "time": 210.2624999999962,
                    "velocity": 0.9291338582677166,
                    "duration": 0.07083333333329733
                },
                {
                    "name": "A2",
                    "midi": 45,
                    "time": 210.26458333332954,
                    "velocity": 0.9212598425196851,
                    "duration": 0.07499999999996021
                },
                {
                    "name": "E4",
                    "midi": 64,
                    "time": 210.2687499999962,
                    "velocity": 0.9291338582677166,
                    "duration": 0.03333333333333144
                },
                {
                    "name": "E5",
                    "midi": 76,
                    "time": 210.27083333332953,
                    "velocity": 0.8188976377952756,
                    "duration": 0.03125
                },
                {
                    "name": "F4",
                    "midi": 65,
                    "time": 210.28958333332955,
                    "velocity": 0.5905511811023622,
                    "duration": 0.04166666666662877
                },
                {
                    "name": "D4",
                    "midi": 62,
                    "time": 210.50416666666283,
                    "velocity": 0.84251968503937,
                    "duration": 0.05208333333334281
                },
                {
                    "name": "D5",
                    "midi": 74,
                    "time": 210.50624999999616,
                    "velocity": 0.8582677165354331,
                    "duration": 0.054166666666674246
                },
                {
                    "name": "A2",
                    "midi": 45,
                    "time": 210.70624999999617,
                    "velocity": 0.5275590551181102,
                    "duration": 0.06666666666663446
                },
                {
                    "name": "A3",
                    "midi": 57,
                    "time": 210.71041666666284,
                    "velocity": 0.889763779527559,
                    "duration": 0.05624999999997726
                },
                {
                    "name": "C#4",
                    "midi": 61,
                    "time": 210.7208333333295,
                    "velocity": 0.9448818897637795,
                    "duration": 0.05624999999997726
                },
                {
                    "name": "C#5",
                    "midi": 73,
                    "time": 210.72916666666282,
                    "velocity": 0.8503937007874016,
                    "duration": 0.08541666666664582
                },
                {
                    "name": "A4",
                    "midi": 69,
                    "time": 210.72916666666282,
                    "velocity": 0.7637795275590551,
                    "duration": 0.07083333333332575
                },
                {
                    "name": "A4",
                    "midi": 69,
                    "time": 210.95208333332945,
                    "velocity": 0.7244094488188977,
                    "duration": 0.3520833333332689
                },
                {
                    "name": "C4",
                    "midi": 60,
                    "time": 210.96458333332944,
                    "velocity": 0.7952755905511811,
                    "duration": 0.2562499999999659
                },
                {
                    "name": "C5",
                    "midi": 72,
                    "time": 210.96666666666277,
                    "velocity": 0.8188976377952756,
                    "duration": 0.2979166666666231
                },
                {
                    "name": "F#4",
                    "midi": 66,
                    "time": 210.97916666666276,
                    "velocity": 0.6692913385826772,
                    "duration": 0.03541666666666288
                },
                {
                    "name": "A1",
                    "midi": 33,
                    "time": 211.15208333332941,
                    "velocity": 0.7322834645669292,
                    "duration": 0.07499999999998863
                },
                {
                    "name": "A2",
                    "midi": 45,
                    "time": 211.17916666666275,
                    "velocity": 0.9763779527559056,
                    "duration": 0.06041666666664014
                },
                {
                    "name": "B4",
                    "midi": 71,
                    "time": 211.40416666666272,
                    "velocity": 0.7007874015748031,
                    "duration": 0.07291666666662877
                },
                {
                    "name": "F#4",
                    "midi": 66,
                    "time": 211.40624999999605,
                    "velocity": 0.7637795275590551,
                    "duration": 0.04583333333332007
                },
                {
                    "name": "D4",
                    "midi": 62,
                    "time": 211.41249999999604,
                    "velocity": 0.6220472440944882,
                    "duration": 0.04166666666665719
                },
                {
                    "name": "D5",
                    "midi": 74,
                    "time": 211.41874999999604,
                    "velocity": 0.6692913385826772,
                    "duration": 0.04374999999998863
                },
                {
                    "name": "A3",
                    "midi": 57,
                    "time": 211.62916666666268,
                    "velocity": 0.8740157480314961,
                    "duration": 0.07083333333329733
                },
                {
                    "name": "D#4",
                    "midi": 63,
                    "time": 211.63333333332935,
                    "velocity": 0.937007874015748,
                    "duration": 0.04166666666665719
                },
                {
                    "name": "D#5",
                    "midi": 75,
                    "time": 211.63541666666268,
                    "velocity": 0.8267716535433071,
                    "duration": 0.052083333333314386
                },
                {
                    "name": "C#5",
                    "midi": 73,
                    "time": 211.64166666666267,
                    "velocity": 0.7952755905511811,
                    "duration": 0.07708333333332007
                },
                {
                    "name": "C#5",
                    "midi": 73,
                    "time": 211.87291666666266,
                    "velocity": 0.8346456692913385,
                    "duration": 0.08750000000000568
                },
                {
                    "name": "A4",
                    "midi": 69,
                    "time": 211.87708333332932,
                    "velocity": 0.7716535433070866,
                    "duration": 0.06666666666666288
                },
                {
                    "name": "E4",
                    "midi": 64,
                    "time": 211.88333333332932,
                    "velocity": 0.7952755905511811,
                    "duration": 0.06041666666666856
                },
                {
                    "name": "E5",
                    "midi": 76,
                    "time": 211.88541666666265,
                    "velocity": 0.8503937007874016,
                    "duration": 0.07916666666667993
                },
                {
                    "name": "A1",
                    "midi": 33,
                    "time": 212.07916666666267,
                    "velocity": 0.6692913385826772,
                    "duration": 0.07291666666668561
                },
                {
                    "name": "A2",
                    "midi": 45,
                    "time": 212.09791666666268,
                    "velocity": 0.889763779527559,
                    "duration": 0.07291666666668561
                },
                {
                    "name": "C#4",
                    "midi": 61,
                    "time": 212.32708333332937,
                    "velocity": 0.8976377952755905,
                    "duration": 0.05833333333333712
                },
                {
                    "name": "C#5",
                    "midi": 73,
                    "time": 212.3291666666627,
                    "velocity": 0.8582677165354331,
                    "duration": 0.06041666666666856
                },
                {
                    "name": "E3",
                    "midi": 52,
                    "time": 212.53124999999605,
                    "velocity": 0.84251968503937,
                    "duration": 0.04999999999998295
                },
                {
                    "name": "A4",
                    "midi": 69,
                    "time": 212.5354166666627,
                    "velocity": 0.7874015748031497,
                    "duration": 0.037499999999994316
                },
                {
                    "name": "A2",
                    "midi": 45,
                    "time": 212.53749999999604,
                    "velocity": 0.7401574803149606,
                    "duration": 0.07083333333332575
                },
                {
                    "name": "A3",
                    "midi": 57,
                    "time": 212.54374999999604,
                    "velocity": 0.6850393700787402,
                    "duration": 0.04166666666665719
                },
                {
                    "name": "G4",
                    "midi": 67,
                    "time": 212.78958333332938,
                    "velocity": 0.9212598425196851,
                    "duration": 0.33124999999998295
                },
                {
                    "name": "G#3",
                    "midi": 56,
                    "time": 212.79374999999604,
                    "velocity": 0.968503937007874,
                    "duration": 0.34166666666664014
                },
                {
                    "name": "D4",
                    "midi": 62,
                    "time": 212.79583333332937,
                    "velocity": 0.8740157480314961,
                    "duration": 0.36249999999998295
                },
                {
                    "name": "A1",
                    "midi": 33,
                    "time": 212.9854166666627,
                    "velocity": 0.6771653543307087,
                    "duration": 0.08124999999998295
                },
                {
                    "name": "A2",
                    "midi": 45,
                    "time": 212.99374999999603,
                    "velocity": 0.9212598425196851,
                    "duration": 0.07708333333332007
                },
                {
                    "name": "F4",
                    "midi": 65,
                    "time": 213.231249999996,
                    "velocity": 0.6929133858267716,
                    "duration": 0.11666666666667425
                },
                {
                    "name": "E3",
                    "midi": 52,
                    "time": 213.4354166666627,
                    "velocity": 0.8582677165354331,
                    "duration": 0.07083333333329733
                },
                {
                    "name": "G#3",
                    "midi": 56,
                    "time": 213.44374999999602,
                    "velocity": 0.8188976377952756,
                    "duration": 0.052083333333314386
                },
                {
                    "name": "E4",
                    "midi": 64,
                    "time": 213.44791666666268,
                    "velocity": 0.7165354330708661,
                    "duration": 0.09375
                },
                {
                    "name": "D4",
                    "midi": 62,
                    "time": 213.44791666666268,
                    "velocity": 0.7637795275590551,
                    "duration": 0.07499999999998863
                },
                {
                    "name": "E4",
                    "midi": 64,
                    "time": 213.68958333332935,
                    "velocity": 0.9291338582677166,
                    "duration": 0.29583333333332007
                },
                {
                    "name": "A1",
                    "midi": 33,
                    "time": 213.8979166666627,
                    "velocity": 0.7244094488188977,
                    "duration": 0.07499999999998863
                },
                {
                    "name": "A2",
                    "midi": 45,
                    "time": 213.9166666666627,
                    "velocity": 0.8818897637795275,
                    "duration": 0.08124999999995453
                },
                {
                    "name": "A3",
                    "midi": 57,
                    "time": 213.9229166666627,
                    "velocity": 0.7559055118110236,
                    "duration": 0.04791666666665151
                },
                {
                    "name": "C#4",
                    "midi": 61,
                    "time": 213.9229166666627,
                    "velocity": 0.905511811023622,
                    "duration": 0.07083333333329733
                },
                {
                    "name": "E5",
                    "midi": 76,
                    "time": 214.13541666666265,
                    "velocity": 0.7637795275590551,
                    "duration": 0.09583333333335986
                },
                {
                    "name": "F#5",
                    "midi": 78,
                    "time": 214.21458333332933,
                    "velocity": 0.7480314960629921,
                    "duration": 0.11250000000001137
                },
                {
                    "name": "E5",
                    "midi": 76,
                    "time": 214.331249999996,
                    "velocity": 0.7322834645669292,
                    "duration": 0.08750000000000568
                },
                {
                    "name": "D4",
                    "midi": 62,
                    "time": 214.41458333332935,
                    "velocity": 0.889763779527559,
                    "duration": 0.283333333333303
                },
                {
                    "name": "A#3",
                    "midi": 58,
                    "time": 214.42083333332934,
                    "velocity": 0.84251968503937,
                    "duration": 0.283333333333303
                },
                {
                    "name": "G3",
                    "midi": 55,
                    "time": 214.42083333332934,
                    "velocity": 0.7637795275590551,
                    "duration": 0.28541666666663446
                },
                {
                    "name": "G5",
                    "midi": 79,
                    "time": 214.42291666666267,
                    "velocity": 0.8740157480314961,
                    "duration": 0.08124999999998295
                },
                {
                    "name": "G5",
                    "midi": 79,
                    "time": 214.64791666666264,
                    "velocity": 0.8110236220472441,
                    "duration": 0.07708333333334849
                },
                {
                    "name": "A3",
                    "midi": 57,
                    "time": 214.843749999996,
                    "velocity": 0.6771653543307087,
                    "duration": 0.25208333333333144
                },
                {
                    "name": "C#4",
                    "midi": 61,
                    "time": 214.84583333332932,
                    "velocity": 0.889763779527559,
                    "duration": 0.28333333333333144
                },
                {
                    "name": "E3",
                    "midi": 52,
                    "time": 214.86041666666264,
                    "velocity": 0.6614173228346457,
                    "duration": 0.41874999999998863
                },
                {
                    "name": "E5",
                    "midi": 76,
                    "time": 214.97291666666266,
                    "velocity": 0.7795275590551181,
                    "duration": 0.10208333333332575
                },
                {
                    "name": "F#5",
                    "midi": 78,
                    "time": 215.07499999999598,
                    "velocity": 0.8110236220472441,
                    "duration": 0.10208333333335418
                },
                {
                    "name": "E5",
                    "midi": 76,
                    "time": 215.16041666666266,
                    "velocity": 0.6771653543307087,
                    "duration": 0.10833333333332007
                },
                {
                    "name": "G5",
                    "midi": 79,
                    "time": 215.25833333332932,
                    "velocity": 0.8188976377952756,
                    "duration": 0.15416666666666856
                },
                {
                    "name": "D4",
                    "midi": 62,
                    "time": 215.26249999999598,
                    "velocity": 0.8582677165354331,
                    "duration": 0.06041666666666856
                },
                {
                    "name": "A#3",
                    "midi": 58,
                    "time": 215.26666666666264,
                    "velocity": 0.7874015748031497,
                    "duration": 0.06458333333333144
                },
                {
                    "name": "G3",
                    "midi": 55,
                    "time": 215.27291666666264,
                    "velocity": 0.6614173228346457,
                    "duration": 0.07500000000001705
                },
                {
                    "name": "A5",
                    "midi": 81,
                    "time": 215.38749999999598,
                    "velocity": 0.7952755905511811,
                    "duration": 0.1770833333333428
                },
                {
                    "name": "G5",
                    "midi": 79,
                    "time": 215.487499999996,
                    "velocity": 0.6614173228346457,
                    "duration": 0.12499999999997158
                },
                {
                    "name": "A2",
                    "midi": 45,
                    "time": 215.51458333332934,
                    "velocity": 0.6614173228346457,
                    "duration": 0.11249999999995453
                },
                {
                    "name": "F#5",
                    "midi": 78,
                    "time": 215.56041666666266,
                    "velocity": 0.8267716535433071,
                    "duration": 0.07916666666662309
                },
                {
                    "name": "E3",
                    "midi": 52,
                    "time": 215.599999999996,
                    "velocity": 0.7086614173228346,
                    "duration": 0.11041666666662309
                },
                {
                    "name": "C#4",
                    "midi": 61,
                    "time": 215.6854166666626,
                    "velocity": 0.968503937007874,
                    "duration": 0.09166666666666856
                },
                {
                    "name": "E5",
                    "midi": 76,
                    "time": 215.82499999999595,
                    "velocity": 0.8582677165354331,
                    "duration": 0.07916666666667993
                },
                {
                    "name": "F#5",
                    "midi": 78,
                    "time": 215.92916666666264,
                    "velocity": 0.7165354330708661,
                    "duration": 0.08749999999997726
                },
                {
                    "name": "E5",
                    "midi": 76,
                    "time": 216.00624999999596,
                    "velocity": 0.8188976377952756,
                    "duration": 0.09166666666666856
                },
                {
                    "name": "D4",
                    "midi": 62,
                    "time": 216.10416666666262,
                    "velocity": 0.9133858267716536,
                    "duration": 0.2604166666666572
                },
                {
                    "name": "G5",
                    "midi": 79,
                    "time": 216.11041666666262,
                    "velocity": 0.7952755905511811,
                    "duration": 0.06458333333333144
                },
                {
                    "name": "G3",
                    "midi": 55,
                    "time": 216.11249999999595,
                    "velocity": 0.7716535433070866,
                    "duration": 0.2770833333333371
                },
                {
                    "name": "A#3",
                    "midi": 58,
                    "time": 216.11249999999595,
                    "velocity": 0.8661417322834646,
                    "duration": 0.2604166666666572
                },
                {
                    "name": "G5",
                    "midi": 79,
                    "time": 216.35416666666262,
                    "velocity": 0.9291338582677166,
                    "duration": 0.06666666666666288
                },
                {
                    "name": "C#4",
                    "midi": 61,
                    "time": 216.56249999999596,
                    "velocity": 0.889763779527559,
                    "duration": 0.11666666666664582
                },
                {
                    "name": "A3",
                    "midi": 57,
                    "time": 216.56249999999596,
                    "velocity": 0.7165354330708661,
                    "duration": 0.1208333333333087
                },
                {
                    "name": "E3",
                    "midi": 52,
                    "time": 216.5645833333293,
                    "velocity": 0.7716535433070866,
                    "duration": 0.1208333333333087
                },
                {
                    "name": "E5",
                    "midi": 76,
                    "time": 216.64999999999594,
                    "velocity": 0.7874015748031497,
                    "duration": 0.08541666666667425
                },
                {
                    "name": "F#5",
                    "midi": 78,
                    "time": 216.74999999999594,
                    "velocity": 0.7795275590551181,
                    "duration": 0.09166666666666856
                },
                {
                    "name": "E5",
                    "midi": 76,
                    "time": 216.83958333332927,
                    "velocity": 0.6929133858267716,
                    "duration": 0.09375
                },
                {
                    "name": "G#5",
                    "midi": 80,
                    "time": 216.96874999999594,
                    "velocity": 0.8110236220472441,
                    "duration": 0.12083333333328028
                },
                {
                    "name": "G#3",
                    "midi": 56,
                    "time": 216.9791666666626,
                    "velocity": 0.8661417322834646,
                    "duration": 0.06666666666663446
                },
                {
                    "name": "D4",
                    "midi": 62,
                    "time": 216.98124999999592,
                    "velocity": 0.8818897637795275,
                    "duration": 0.04999999999998295
                },
                {
                    "name": "E3",
                    "midi": 52,
                    "time": 216.9854166666626,
                    "velocity": 0.7795275590551181,
                    "duration": 0.0895833333333087
                },
                {
                    "name": "A5",
                    "midi": 81,
                    "time": 217.07083333332923,
                    "velocity": 0.7086614173228346,
                    "duration": 0.16458333333332575
                },
                {
                    "name": "G#5",
                    "midi": 80,
                    "time": 217.14583333332922,
                    "velocity": 0.7165354330708661,
                    "duration": 0.15000000000000568
                },
                {
                    "name": "F#5",
                    "midi": 78,
                    "time": 217.20416666666256,
                    "velocity": 0.6299212598425197,
                    "duration": 0.13749999999998863
                },
                {
                    "name": "F5",
                    "midi": 77,
                    "time": 217.27916666666255,
                    "velocity": 0.7401574803149606,
                    "duration": 0.08750000000000568
                },
                {
                    "name": "A1",
                    "midi": 33,
                    "time": 217.42708333332922,
                    "velocity": 0.7007874015748031,
                    "duration": 0.12291666666664014
                },
                {
                    "name": "A4",
                    "midi": 69,
                    "time": 217.48958333332922,
                    "velocity": 0.6141732283464567,
                    "duration": 0.04374999999998863
                },
                {
                    "name": "C#5",
                    "midi": 73,
                    "time": 217.51249999999587,
                    "velocity": 0.8346456692913385,
                    "duration": 0.03541666666666288
                },
                {
                    "name": "A2",
                    "midi": 45,
                    "time": 217.5145833333292,
                    "velocity": 0.7952755905511811,
                    "duration": 0.06458333333333144
                },
                {
                    "name": "E5",
                    "midi": 76,
                    "time": 217.54374999999587,
                    "velocity": 0.7322834645669292,
                    "duration": 0.07291666666665719
                },
                {
                    "name": "A5",
                    "midi": 81,
                    "time": 217.57291666666254,
                    "velocity": 0.84251968503937,
                    "duration": 0.04791666666665151
                },
                {
                    "name": "E4",
                    "midi": 64,
                    "time": 217.96874999999585,
                    "velocity": 0.9133858267716536,
                    "duration": 0.06041666666666856
                },
                {
                    "name": "A3",
                    "midi": 57,
                    "time": 217.9729166666625,
                    "velocity": 0.8503937007874016,
                    "duration": 0.07916666666667993
                },
                {
                    "name": "C#4",
                    "midi": 61,
                    "time": 217.97708333332918,
                    "velocity": 0.8976377952755905,
                    "duration": 0.056250000000005684
                },
                {
                    "name": "A1",
                    "midi": 33,
                    "time": 218.38124999999584,
                    "velocity": 0.6062992125984252,
                    "duration": 0.06874999999999432
                },
                {
                    "name": "A2",
                    "midi": 45,
                    "time": 218.40833333332918,
                    "velocity": 0.8976377952755905,
                    "duration": 0.06458333333333144
                },
                {
                    "name": "G5",
                    "midi": 79,
                    "time": 218.41249999999584,
                    "velocity": 0.8818897637795275,
                    "duration": 0.0625
                },
                {
                    "name": "D5",
                    "midi": 74,
                    "time": 218.4166666666625,
                    "velocity": 0.7637795275590551,
                    "duration": 0.0625
                },
                {
                    "name": "G4",
                    "midi": 67,
                    "time": 218.4166666666625,
                    "velocity": 0.8503937007874016,
                    "duration": 0.05208333333334281
                },
                {
                    "name": "B4",
                    "midi": 71,
                    "time": 218.4229166666625,
                    "velocity": 0.6771653543307087,
                    "duration": 0.04791666666667993
                },
                {
                    "name": "A4",
                    "midi": 69,
                    "time": 218.4416666666625,
                    "velocity": 0.4566929133858268,
                    "duration": 0.052083333333314386
                },
                {
                    "name": "F4",
                    "midi": 65,
                    "time": 218.59374999999582,
                    "velocity": 0.8818897637795275,
                    "duration": 0.05000000000001137
                },
                {
                    "name": "F5",
                    "midi": 77,
                    "time": 218.6104166666625,
                    "velocity": 0.3228346456692913,
                    "duration": 0.05208333333334281
                },
                {
                    "name": "G5",
                    "midi": 79,
                    "time": 218.7229166666625,
                    "velocity": 0.889763779527559,
                    "duration": 0.06458333333335986
                },
                {
                    "name": "G4",
                    "midi": 67,
                    "time": 218.7395833333292,
                    "velocity": 0.49606299212598426,
                    "duration": 0.054166666666674246
                },
                {
                    "name": "F4",
                    "midi": 65,
                    "time": 218.8458333333292,
                    "velocity": 0.8188976377952756,
                    "duration": 0.0625
                },
                {
                    "name": "G#3",
                    "midi": 56,
                    "time": 218.8458333333292,
                    "velocity": 0.7637795275590551,
                    "duration": 0.11458333333331439
                },
                {
                    "name": "D4",
                    "midi": 62,
                    "time": 218.84791666666254,
                    "velocity": 0.8110236220472441,
                    "duration": 0.07083333333332575
                },
                {
                    "name": "G4",
                    "midi": 67,
                    "time": 218.99374999999586,
                    "velocity": 0.8503937007874016,
                    "duration": 0.03333333333333144
                },
                {
                    "name": "D5",
                    "midi": 74,
                    "time": 218.9958333333292,
                    "velocity": 0.84251968503937,
                    "duration": 0.03541666666666288
                },
                {
                    "name": "G5",
                    "midi": 79,
                    "time": 218.9958333333292,
                    "velocity": 0.8346456692913385,
                    "duration": 0.04374999999998863
                },
                {
                    "name": "F5",
                    "midi": 77,
                    "time": 219.13333333332918,
                    "velocity": 0.8346456692913385,
                    "duration": 0.07500000000001705
                },
                {
                    "name": "D5",
                    "midi": 74,
                    "time": 219.13749999999584,
                    "velocity": 0.8346456692913385,
                    "duration": 0.054166666666674246
                },
                {
                    "name": "F4",
                    "midi": 65,
                    "time": 219.13749999999584,
                    "velocity": 0.84251968503937,
                    "duration": 0.03125
                },
                {
                    "name": "A1",
                    "midi": 33,
                    "time": 219.2770833333292,
                    "velocity": 0.7244094488188977,
                    "duration": 0.08333333333328596
                },
                {
                    "name": "E5",
                    "midi": 76,
                    "time": 219.29374999999584,
                    "velocity": 0.8818897637795275,
                    "duration": 0.0270833333333087
                },
                {
                    "name": "E2",
                    "midi": 40,
                    "time": 219.29374999999584,
                    "velocity": 0.8818897637795275,
                    "duration": 0.07708333333329165
                },
                {
                    "name": "E4",
                    "midi": 64,
                    "time": 219.29583333332917,
                    "velocity": 0.8503937007874016,
                    "duration": 0.03124999999997158
                },
                {
                    "name": "C#5",
                    "midi": 73,
                    "time": 219.29583333332917,
                    "velocity": 0.8976377952755905,
                    "duration": 0.06041666666664014
                },
                {
                    "name": "A2",
                    "midi": 45,
                    "time": 219.3041666666625,
                    "velocity": 0.9133858267716536,
                    "duration": 0.09166666666664014
                },
                {
                    "name": "F4",
                    "midi": 65,
                    "time": 219.30624999999583,
                    "velocity": 0.6929133858267716,
                    "duration": 0.037499999999994316
                },
                {
                    "name": "D4",
                    "midi": 62,
                    "time": 219.5437499999958,
                    "velocity": 0.84251968503937,
                    "duration": 0.039583333333325754
                },
                {
                    "name": "D5",
                    "midi": 74,
                    "time": 219.5437499999958,
                    "velocity": 0.8582677165354331,
                    "duration": 0.04166666666665719
                },
                {
                    "name": "A2",
                    "midi": 45,
                    "time": 219.74166666666247,
                    "velocity": 0.5826771653543307,
                    "duration": 0.09999999999993747
                },
                {
                    "name": "A3",
                    "midi": 57,
                    "time": 219.75208333332913,
                    "velocity": 0.8582677165354331,
                    "duration": 0.052083333333314386
                },
                {
                    "name": "E3",
                    "midi": 52,
                    "time": 219.75416666666246,
                    "velocity": 0.7952755905511811,
                    "duration": 0.06041666666664014
                },
                {
                    "name": "C#4",
                    "midi": 61,
                    "time": 219.7645833333291,
                    "velocity": 0.937007874015748,
                    "duration": 0.05624999999997726
                },
                {
                    "name": "C#5",
                    "midi": 73,
                    "time": 219.76874999999578,
                    "velocity": 0.8582677165354331,
                    "duration": 0.08333333333328596
                },
                {
                    "name": "A4",
                    "midi": 69,
                    "time": 219.76874999999578,
                    "velocity": 0.6929133858267716,
                    "duration": 0.0583333333333087
                },
                {
                    "name": "A4",
                    "midi": 69,
                    "time": 219.98749999999572,
                    "velocity": 0.7165354330708661,
                    "duration": 0.3479166666666913
                },
                {
                    "name": "C4",
                    "midi": 60,
                    "time": 219.99791666666238,
                    "velocity": 0.8503937007874016,
                    "duration": 0.28750000000002274
                },
                {
                    "name": "C5",
                    "midi": 72,
                    "time": 219.99791666666238,
                    "velocity": 0.7322834645669292,
                    "duration": 0.34583333333335986
                },
                {
                    "name": "A1",
                    "midi": 33,
                    "time": 220.1937499999957,
                    "velocity": 0.6929133858267716,
                    "duration": 0.07500000000001705
                },
                {
                    "name": "A2",
                    "midi": 45,
                    "time": 220.21041666666238,
                    "velocity": 0.9291338582677166,
                    "duration": 0.07708333333334849
                },
                {
                    "name": "B4",
                    "midi": 71,
                    "time": 220.43958333332907,
                    "velocity": 0.7401574803149606,
                    "duration": 0.08749999999997726
                },
                {
                    "name": "D4",
                    "midi": 62,
                    "time": 220.45208333332906,
                    "velocity": 0.7322834645669292,
                    "duration": 0.03541666666666288
                },
                {
                    "name": "F#4",
                    "midi": 66,
                    "time": 220.45624999999572,
                    "velocity": 0.6299212598425197,
                    "duration": 0.037499999999994316
                },
                {
                    "name": "D5",
                    "midi": 74,
                    "time": 220.46041666666238,
                    "velocity": 0.6614173228346457,
                    "duration": 0.05208333333334281
                },
                {
                    "name": "A3",
                    "midi": 57,
                    "time": 220.6499999999957,
                    "velocity": 0.8818897637795275,
                    "duration": 0.054166666666674246
                },
                {
                    "name": "D#5",
                    "midi": 75,
                    "time": 220.6666666666624,
                    "velocity": 0.8188976377952756,
                    "duration": 0.08750000000000568
                },
                {
                    "name": "D#4",
                    "midi": 63,
                    "time": 220.66874999999573,
                    "velocity": 0.8818897637795275,
                    "duration": 0.03125
                },
                {
                    "name": "A4",
                    "midi": 69,
                    "time": 220.90208333332907,
                    "velocity": 0.8188976377952756,
                    "duration": 0.06874999999999432
                },
                {
                    "name": "C#5",
                    "midi": 73,
                    "time": 220.90208333332907,
                    "velocity": 0.8661417322834646,
                    "duration": 0.10833333333332007
                },
                {
                    "name": "E4",
                    "midi": 64,
                    "time": 220.90833333332907,
                    "velocity": 0.889763779527559,
                    "duration": 0.05833333333333712
                },
                {
                    "name": "E5",
                    "midi": 76,
                    "time": 220.90833333332907,
                    "velocity": 0.8740157480314961,
                    "duration": 0.08750000000000568
                },
                {
                    "name": "A1",
                    "midi": 33,
                    "time": 221.10624999999573,
                    "velocity": 0.6614173228346457,
                    "duration": 0.07708333333334849
                },
                {
                    "name": "A2",
                    "midi": 45,
                    "time": 221.12708333332907,
                    "velocity": 0.9133858267716536,
                    "duration": 0.07708333333334849
                },
                {
                    "name": "C#5",
                    "midi": 73,
                    "time": 221.33749999999574,
                    "velocity": 0.8110236220472441,
                    "duration": 0.07291666666665719
                },
                {
                    "name": "C#4",
                    "midi": 61,
                    "time": 221.33749999999574,
                    "velocity": 0.905511811023622,
                    "duration": 0.054166666666645824
                },
                {
                    "name": "A4",
                    "midi": 69,
                    "time": 221.34999999999573,
                    "velocity": 0.5826771653543307,
                    "duration": 0.039583333333325754
                },
                {
                    "name": "E3",
                    "midi": 52,
                    "time": 221.54374999999573,
                    "velocity": 0.8188976377952756,
                    "duration": 0.06458333333330302
                },
                {
                    "name": "A2",
                    "midi": 45,
                    "time": 221.55416666666238,
                    "velocity": 0.6692913385826772,
                    "duration": 0.07916666666662309
                },
                {
                    "name": "A4",
                    "midi": 69,
                    "time": 221.5562499999957,
                    "velocity": 0.5590551181102362,
                    "duration": 0.06041666666664014
                },
                {
                    "name": "G4",
                    "midi": 67,
                    "time": 221.5729166666624,
                    "velocity": 0.5354330708661418,
                    "duration": 0.05833333333328028
                },
                {
                    "name": "G4",
                    "midi": 67,
                    "time": 221.79999999999566,
                    "velocity": 0.9212598425196851,
                    "duration": 0.34583333333335986
                },
                {
                    "name": "G#3",
                    "midi": 56,
                    "time": 221.80624999999566,
                    "velocity": 0.984251968503937,
                    "duration": 0.3270833333333769
                },
                {
                    "name": "D4",
                    "midi": 62,
                    "time": 221.80624999999566,
                    "velocity": 0.8503937007874016,
                    "duration": 0.35000000000002274
                },
                {
                    "name": "A1",
                    "midi": 33,
                    "time": 222.01041666666234,
                    "velocity": 0.6535433070866141,
                    "duration": 0.08333333333334281
                },
                {
                    "name": "A2",
                    "midi": 45,
                    "time": 222.02499999999566,
                    "velocity": 0.8740157480314961,
                    "duration": 0.08541666666670267
                },
                {
                    "name": "F4",
                    "midi": 65,
                    "time": 222.24791666666235,
                    "velocity": 0.8110236220472441,
                    "duration": 0.14791666666667425
                },
                {
                    "name": "E3",
                    "midi": 52,
                    "time": 222.4499999999957,
                    "velocity": 0.8188976377952756,
                    "duration": 0.0625
                },
                {
                    "name": "G#3",
                    "midi": 56,
                    "time": 222.45208333332903,
                    "velocity": 0.7952755905511811,
                    "duration": 0.039583333333325754
                },
                {
                    "name": "D4",
                    "midi": 62,
                    "time": 222.4562499999957,
                    "velocity": 0.7401574803149606,
                    "duration": 0.0625
                },
                {
                    "name": "E4",
                    "midi": 64,
                    "time": 222.46041666666235,
                    "velocity": 0.6850393700787402,
                    "duration": 0.11041666666667993
                },
                {
                    "name": "A4",
                    "midi": 69,
                    "time": 222.67291666666236,
                    "velocity": 0.9291338582677166,
                    "duration": 1.9187499999998465
                },
                {
                    "name": "A1",
                    "midi": 33,
                    "time": 222.8874999999957,
                    "velocity": 0.7322834645669292,
                    "duration": 0.07499999999998863
                },
                {
                    "name": "E4",
                    "midi": 64,
                    "time": 222.89999999999569,
                    "velocity": 0.7952755905511811,
                    "duration": 0.17499999999998295
                },
                {
                    "name": "A2",
                    "midi": 45,
                    "time": 222.90416666666235,
                    "velocity": 0.8503937007874016,
                    "duration": 0.06458333333333144
                },
                {
                    "name": "A3",
                    "midi": 57,
                    "time": 222.90416666666235,
                    "velocity": 0.8110236220472441,
                    "duration": 0.08750000000000568
                },
                {
                    "name": "C#4",
                    "midi": 61,
                    "time": 222.90624999999568,
                    "velocity": 0.8267716535433071,
                    "duration": 0.13124999999999432
                },
                {
                    "name": "E3",
                    "midi": 52,
                    "time": 223.11041666666233,
                    "velocity": 0.7637795275590551,
                    "duration": 0.037499999999994316
                },
                {
                    "name": "E2",
                    "midi": 40,
                    "time": 223.11041666666233,
                    "velocity": 0.8031496062992126,
                    "duration": 0.03125
                },
                {
                    "name": "A3",
                    "midi": 57,
                    "time": 223.34166666666232,
                    "velocity": 0.7716535433070866,
                    "duration": 0.03541666666666288
                },
                {
                    "name": "A2",
                    "midi": 45,
                    "time": 223.34791666666231,
                    "velocity": 0.7086614173228346,
                    "duration": 0.039583333333325754
                },
                {
                    "name": "E4",
                    "midi": 64,
                    "time": 223.35208333332898,
                    "velocity": 0.7401574803149606,
                    "duration": 0.10416666666665719
                },
                {
                    "name": "C#4",
                    "midi": 61,
                    "time": 223.38124999999565,
                    "velocity": 0.5039370078740157,
                    "duration": 0.039583333333325754
                },
                {
                    "name": "G3",
                    "midi": 55,
                    "time": 223.5854166666623,
                    "velocity": 0.889763779527559,
                    "duration": 0.32708333333332007
                },
                {
                    "name": "G2",
                    "midi": 43,
                    "time": 223.5854166666623,
                    "velocity": 0.889763779527559,
                    "duration": 0.34583333333333144
                },
                {
                    "name": "E4",
                    "midi": 64,
                    "time": 223.8166666666623,
                    "velocity": 0.6614173228346457,
                    "duration": 0.19583333333335418
                },
                {
                    "name": "A3",
                    "midi": 57,
                    "time": 223.81874999999562,
                    "velocity": 0.5354330708661418,
                    "duration": 0.16666666666668561
                },
                {
                    "name": "C#4",
                    "midi": 61,
                    "time": 223.82291666666228,
                    "velocity": 0.6299212598425197,
                    "duration": 0.14166666666667993
                },
                {
                    "name": "F3",
                    "midi": 53,
                    "time": 224.01874999999563,
                    "velocity": 0.889763779527559,
                    "duration": 0.10416666666665719
                },
                {
                    "name": "F2",
                    "midi": 41,
                    "time": 224.02708333332896,
                    "velocity": 0.8188976377952756,
                    "duration": 0.09999999999999432
                },
                {
                    "name": "E2",
                    "midi": 40,
                    "time": 224.27916666666226,
                    "velocity": 0.8740157480314961,
                    "duration": 0.1208333333333087
                },
                {
                    "name": "E3",
                    "midi": 52,
                    "time": 224.2812499999956,
                    "velocity": 0.8740157480314961,
                    "duration": 0.19583333333329733
                },
                {
                    "name": "A3",
                    "midi": 57,
                    "time": 224.28541666666226,
                    "velocity": 0.5433070866141733,
                    "duration": 0.19583333333329733
                },
                {
                    "name": "E4",
                    "midi": 64,
                    "time": 224.2874999999956,
                    "velocity": 0.6377952755905512,
                    "duration": 0.28958333333329733
                },
                {
                    "name": "C#4",
                    "midi": 61,
                    "time": 224.29374999999558,
                    "velocity": 0.6299212598425197,
                    "duration": 0.23333333333329165
                },
                {
                    "name": "A2",
                    "midi": 45,
                    "time": 224.6541666666622,
                    "velocity": 0.5590551181102362,
                    "duration": 0.14791666666667425
                },
                {
                    "name": "F3",
                    "midi": 53,
                    "time": 224.8104166666622,
                    "velocity": 0.48031496062992124,
                    "duration": 0.5062499999999659
                },
                {
                    "name": "C4",
                    "midi": 60,
                    "time": 224.96458333332887,
                    "velocity": 0.5118110236220472,
                    "duration": 0.3499999999999659
                },
                {
                    "name": "A4",
                    "midi": 69,
                    "time": 225.24791666666218,
                    "velocity": 0.4094488188976378,
                    "duration": 0.08124999999998295
                },
                {
                    "name": "A5",
                    "midi": 81,
                    "time": 225.2499999999955,
                    "velocity": 0.5433070866141733,
                    "duration": 0.11874999999997726
                },
                {
                    "name": "C6",
                    "midi": 84,
                    "time": 225.55208333332882,
                    "velocity": 0.6692913385826772,
                    "duration": 0.08333333333331439
                },
                {
                    "name": "C4",
                    "midi": 60,
                    "time": 225.56666666666214,
                    "velocity": 0.5118110236220472,
                    "duration": 0.07291666666665719
                },
                {
                    "name": "F3",
                    "midi": 53,
                    "time": 225.56666666666214,
                    "velocity": 0.4015748031496063,
                    "duration": 0.09791666666666288
                },
                {
                    "name": "C5",
                    "midi": 72,
                    "time": 225.5708333333288,
                    "velocity": 0.28346456692913385,
                    "duration": 0.056250000000005684
                },
                {
                    "name": "D6",
                    "midi": 86,
                    "time": 225.76874999999546,
                    "velocity": 0.7874015748031497,
                    "duration": 0.11249999999995453
                },
                {
                    "name": "D5",
                    "midi": 74,
                    "time": 225.77916666666212,
                    "velocity": 0.5433070866141733,
                    "duration": 0.0583333333333087
                },
                {
                    "name": "A2",
                    "midi": 45,
                    "time": 225.79374999999544,
                    "velocity": 0.6141732283464567,
                    "duration": 0.10624999999998863
                },
                {
                    "name": "F3",
                    "midi": 53,
                    "time": 225.92083333332877,
                    "velocity": 0.5118110236220472,
                    "duration": 0.09791666666666288
                },
                {
                    "name": "C4",
                    "midi": 60,
                    "time": 226.00416666666212,
                    "velocity": 0.6377952755905512,
                    "duration": 0.09374999999997158
                },
                {
                    "name": "E6",
                    "midi": 88,
                    "time": 226.00833333332878,
                    "velocity": 0.7874015748031497,
                    "duration": 0.09791666666663446
                },
                {
                    "name": "E5",
                    "midi": 76,
                    "time": 226.01249999999544,
                    "velocity": 0.6614173228346457,
                    "duration": 0.04583333333332007
                },
                {
                    "name": "F6",
                    "midi": 89,
                    "time": 226.24166666666207,
                    "velocity": 0.7795275590551181,
                    "duration": 0.345833333333303
                },
                {
                    "name": "A3",
                    "midi": 57,
                    "time": 226.24166666666207,
                    "velocity": 0.5275590551181102,
                    "duration": 0.3749999999999716
                },
                {
                    "name": "F5",
                    "midi": 77,
                    "time": 226.2437499999954,
                    "velocity": 0.6929133858267716,
                    "duration": 0.3291666666666515
                },
                {
                    "name": "C4",
                    "midi": 60,
                    "time": 226.4374999999954,
                    "velocity": 0.6062992125984252,
                    "duration": 0.2249999999999659
                },
                {
                    "name": "D4",
                    "midi": 62,
                    "time": 226.6145833333287,
                    "velocity": 0.5590551181102362,
                    "duration": 0.15208333333333712
                },
                {
                    "name": "F3",
                    "midi": 53,
                    "time": 226.74791666666204,
                    "velocity": 0.4094488188976378,
                    "duration": 0.6645833333333542
                },
                {
                    "name": "C4",
                    "midi": 60,
                    "time": 226.81249999999537,
                    "velocity": 0.2992125984251969,
                    "duration": 0.53125
                },
                {
                    "name": "A3",
                    "midi": 57,
                    "time": 226.83124999999538,
                    "velocity": 0.2125984251968504,
                    "duration": 0.53125
                },
                {
                    "name": "E4",
                    "midi": 64,
                    "time": 226.9520833333287,
                    "velocity": 0.5354330708661418,
                    "duration": 0.125
                },
                {
                    "name": "A5",
                    "midi": 81,
                    "time": 227.2333333333287,
                    "velocity": 0.5590551181102362,
                    "duration": 0.08750000000000568
                },
                {
                    "name": "A4",
                    "midi": 69,
                    "time": 227.23958333332868,
                    "velocity": 0.44881889763779526,
                    "duration": 0.056250000000005684
                },
                {
                    "name": "F4",
                    "midi": 65,
                    "time": 227.24583333332868,
                    "velocity": 0.4330708661417323,
                    "duration": 0.07291666666668561
                },
                {
                    "name": "C5",
                    "midi": 72,
                    "time": 227.46458333332873,
                    "velocity": 0.5196850393700787,
                    "duration": 0.04374999999998863
                },
                {
                    "name": "C6",
                    "midi": 84,
                    "time": 227.47083333332873,
                    "velocity": 0.3700787401574803,
                    "duration": 0.06874999999999432
                },
                {
                    "name": "D6",
                    "midi": 86,
                    "time": 227.64374999999538,
                    "velocity": 0.7952755905511811,
                    "duration": 0.08958333333333712
                },
                {
                    "name": "D5",
                    "midi": 74,
                    "time": 227.66041666666206,
                    "velocity": 0.4330708661417323,
                    "duration": 0.06041666666666856
                },
                {
                    "name": "A2",
                    "midi": 45,
                    "time": 227.66874999999538,
                    "velocity": 0.3858267716535433,
                    "duration": 0.09999999999999432
                },
                {
                    "name": "F3",
                    "midi": 53,
                    "time": 227.7708333333287,
                    "velocity": 0.5039370078740157,
                    "duration": 0.15416666666666856
                },
                {
                    "name": "C4",
                    "midi": 60,
                    "time": 227.88541666666205,
                    "velocity": 0.6456692913385826,
                    "duration": 0.13749999999998863
                },
                {
                    "name": "F6",
                    "midi": 89,
                    "time": 227.88958333332872,
                    "velocity": 0.8031496062992126,
                    "duration": 0.04999999999998295
                },
                {
                    "name": "A3",
                    "midi": 57,
                    "time": 228.1208333333287,
                    "velocity": 0.5118110236220472,
                    "duration": 0.49583333333336554
                },
                {
                    "name": "A6",
                    "midi": 93,
                    "time": 228.1270833333287,
                    "velocity": 0.8031496062992126,
                    "duration": 0.02916666666666856
                },
                {
                    "name": "A5",
                    "midi": 81,
                    "time": 228.1333333333287,
                    "velocity": 0.6850393700787402,
                    "duration": 0.041666666666685614
                },
                {
                    "name": "C4",
                    "midi": 60,
                    "time": 228.35416666666205,
                    "velocity": 0.84251968503937,
                    "duration": 0.7895833333333542
                },
                {
                    "name": "D4",
                    "midi": 62,
                    "time": 228.56041666666206,
                    "velocity": 0.7795275590551181,
                    "duration": 0.11458333333334281
                },
                {
                    "name": "F3",
                    "midi": 53,
                    "time": 228.6999999999954,
                    "velocity": 0.6456692913385826,
                    "duration": 0.47083333333333144
                },
                {
                    "name": "A3",
                    "midi": 57,
                    "time": 228.7374999999954,
                    "velocity": 0.4251968503937008,
                    "duration": 0.4416666666666629
                },
                {
                    "name": "F4",
                    "midi": 65,
                    "time": 228.8499999999954,
                    "velocity": 0.7244094488188977,
                    "duration": 0.25625000000002274
                },
                {
                    "name": "A5",
                    "midi": 81,
                    "time": 229.08541666666207,
                    "velocity": 0.7401574803149606,
                    "duration": 0.09166666666666856
                },
                {
                    "name": "A4",
                    "midi": 69,
                    "time": 229.0874999999954,
                    "velocity": 0.6850393700787402,
                    "duration": 0.04583333333334849
                },
                {
                    "name": "C6",
                    "midi": 84,
                    "time": 229.3124999999954,
                    "velocity": 0.7874015748031497,
                    "duration": 0.04166666666665719
                },
                {
                    "name": "C5",
                    "midi": 72,
                    "time": 229.32499999999538,
                    "velocity": 0.5275590551181102,
                    "duration": 0.04791666666667993
                },
                {
                    "name": "A2",
                    "midi": 45,
                    "time": 229.4999999999954,
                    "velocity": 0.6220472440944882,
                    "duration": 0.11458333333337123
                },
                {
                    "name": "D6",
                    "midi": 86,
                    "time": 229.51666666666208,
                    "velocity": 0.8110236220472441,
                    "duration": 0.07291666666668561
                },
                {
                    "name": "D5",
                    "midi": 74,
                    "time": 229.53749999999542,
                    "velocity": 0.36220472440944884,
                    "duration": 0.05000000000001137
                },
                {
                    "name": "F3",
                    "midi": 53,
                    "time": 229.61249999999544,
                    "velocity": 0.5433070866141733,
                    "duration": 0.6916666666666913
                },
                {
                    "name": "C4",
                    "midi": 60,
                    "time": 229.7479166666621,
                    "velocity": 0.6377952755905512,
                    "duration": 0.2916666666666856
                },
                {
                    "name": "F6",
                    "midi": 89,
                    "time": 229.76874999999544,
                    "velocity": 0.5984251968503937,
                    "duration": 0.0666666666666913
                },
                {
                    "name": "F5",
                    "midi": 77,
                    "time": 229.78541666666212,
                    "velocity": 0.4094488188976378,
                    "duration": 0.04791666666667993
                },
                {
                    "name": "G6",
                    "midi": 91,
                    "time": 229.9770833333288,
                    "velocity": 0.8740157480314961,
                    "duration": 0.09791666666663446
                },
                {
                    "name": "G5",
                    "midi": 79,
                    "time": 229.9895833333288,
                    "velocity": 0.5590551181102362,
                    "duration": 0.04583333333332007
                },
                {
                    "name": "A6",
                    "midi": 93,
                    "time": 230.19999999999544,
                    "velocity": 0.8740157480314961,
                    "duration": 0.06458333333333144
                },
                {
                    "name": "C4",
                    "midi": 60,
                    "time": 230.21249999999543,
                    "velocity": 0.7559055118110236,
                    "duration": 0.07083333333335418
                },
                {
                    "name": "C7",
                    "midi": 96,
                    "time": 230.46041666666213,
                    "velocity": 0.8503937007874016,
                    "duration": 0.30624999999997726
                },
                {
                    "name": "C6",
                    "midi": 84,
                    "time": 230.46666666666212,
                    "velocity": 0.7874015748031497,
                    "duration": 0.34166666666664014
                },
                {
                    "name": "G#6",
                    "midi": 92,
                    "time": 230.47083333332878,
                    "velocity": 0.6692913385826772,
                    "duration": 0.07499999999998863
                },
                {
                    "name": "D6",
                    "midi": 86,
                    "time": 230.4895833333288,
                    "velocity": 0.5905511811023622,
                    "duration": 0.04166666666665719
                },
                {
                    "name": "F6",
                    "midi": 89,
                    "time": 230.50208333332878,
                    "velocity": 0.3779527559055118,
                    "duration": 0.3041666666666458
                },
                {
                    "name": "G#6",
                    "midi": 92,
                    "time": 230.6041666666621,
                    "velocity": 0.6141732283464567,
                    "duration": 0.19166666666666288
                },
                {
                    "name": "G#2",
                    "midi": 44,
                    "time": 230.68958333332878,
                    "velocity": 0.905511811023622,
                    "duration": 0.07083333333332575
                },
                {
                    "name": "G#3",
                    "midi": 56,
                    "time": 230.68958333332878,
                    "velocity": 1,
                    "duration": 0.056250000000005684
                },
                {
                    "name": "C3",
                    "midi": 48,
                    "time": 230.90624999999542,
                    "velocity": 0.7716535433070866,
                    "duration": 0.054166666666674246
                },
                {
                    "name": "C2",
                    "midi": 36,
                    "time": 230.90624999999542,
                    "velocity": 0.7086614173228346,
                    "duration": 0.05208333333334281
                },
                {
                    "name": "D3",
                    "midi": 50,
                    "time": 231.1354166666621,
                    "velocity": 0.984251968503937,
                    "duration": 0.05833333333328028
                },
                {
                    "name": "D2",
                    "midi": 38,
                    "time": 231.13749999999544,
                    "velocity": 0.8976377952755905,
                    "duration": 0.08124999999995453
                },
                {
                    "name": "C4",
                    "midi": 60,
                    "time": 231.1479166666621,
                    "velocity": 0.8582677165354331,
                    "duration": 0.0270833333333087
                },
                {
                    "name": "F4",
                    "midi": 65,
                    "time": 231.15208333332876,
                    "velocity": 0.7244094488188977,
                    "duration": 0.03124999999997158
                },
                {
                    "name": "C5",
                    "midi": 72,
                    "time": 231.1541666666621,
                    "velocity": 0.7086614173228346,
                    "duration": 0.037499999999965894
                },
                {
                    "name": "G#4",
                    "midi": 68,
                    "time": 231.16458333332875,
                    "velocity": 0.7086614173228346,
                    "duration": 0.04999999999998295
                },
                {
                    "name": "D#2",
                    "midi": 39,
                    "time": 231.3499999999954,
                    "velocity": 0.952755905511811,
                    "duration": 0.06874999999999432
                },
                {
                    "name": "D#3",
                    "midi": 51,
                    "time": 231.3499999999954,
                    "velocity": 1,
                    "duration": 0.07291666666665719
                },
                {
                    "name": "F3",
                    "midi": 53,
                    "time": 231.58749999999537,
                    "velocity": 0.952755905511811,
                    "duration": 0.05208333333334281
                },
                {
                    "name": "F2",
                    "midi": 41,
                    "time": 231.5895833333287,
                    "velocity": 0.8976377952755905,
                    "duration": 0.05833333333333712
                },
                {
                    "name": "G3",
                    "midi": 55,
                    "time": 231.78749999999536,
                    "velocity": 0.9212598425196851,
                    "duration": 0.06458333333333144
                },
                {
                    "name": "G2",
                    "midi": 43,
                    "time": 231.7895833333287,
                    "velocity": 0.9448818897637795,
                    "duration": 0.054166666666674246
                },
                {
                    "name": "C5",
                    "midi": 72,
                    "time": 232.0083333333287,
                    "velocity": 0.8976377952755905,
                    "duration": 0.06249999999997158
                },
                {
                    "name": "G#4",
                    "midi": 68,
                    "time": 232.01041666666202,
                    "velocity": 0.8582677165354331,
                    "duration": 0.0583333333333087
                },
                {
                    "name": "F4",
                    "midi": 65,
                    "time": 232.01041666666202,
                    "velocity": 0.8582677165354331,
                    "duration": 0.054166666666645824
                },
                {
                    "name": "C4",
                    "midi": 60,
                    "time": 232.01249999999536,
                    "velocity": 0.9291338582677166,
                    "duration": 0.04791666666665151
                },
                {
                    "name": "G#2",
                    "midi": 44,
                    "time": 232.0145833333287,
                    "velocity": 0.952755905511811,
                    "duration": 0.06458333333330302
                },
                {
                    "name": "D4",
                    "midi": 62,
                    "time": 232.0145833333287,
                    "velocity": 0.9133858267716536,
                    "duration": 0.037499999999994316
                },
                {
                    "name": "G#3",
                    "midi": 56,
                    "time": 232.0145833333287,
                    "velocity": 1,
                    "duration": 0.052083333333314386
                },
                {
                    "name": "A#3",
                    "midi": 58,
                    "time": 232.23958333332865,
                    "velocity": 0.889763779527559,
                    "duration": 0.06458333333333144
                },
                {
                    "name": "A#2",
                    "midi": 46,
                    "time": 232.24583333332865,
                    "velocity": 0.6850393700787402,
                    "duration": 0.03125
                },
                {
                    "name": "C3",
                    "midi": 48,
                    "time": 232.4749999999953,
                    "velocity": 0.7165354330708661,
                    "duration": 0.07916666666662309
                },
                {
                    "name": "G3",
                    "midi": 55,
                    "time": 232.47916666666197,
                    "velocity": 0.8346456692913385,
                    "duration": 0.06666666666663446
                },
                {
                    "name": "C5",
                    "midi": 72,
                    "time": 232.4812499999953,
                    "velocity": 0.8818897637795275,
                    "duration": 0.09166666666661172
                },
                {
                    "name": "D#4",
                    "midi": 63,
                    "time": 232.48333333332863,
                    "velocity": 0.952755905511811,
                    "duration": 0.054166666666645824
                },
                {
                    "name": "C4",
                    "midi": 60,
                    "time": 232.4874999999953,
                    "velocity": 0.9921259842519685,
                    "duration": 0.052083333333314386
                },
                {
                    "name": "G4",
                    "midi": 67,
                    "time": 232.4874999999953,
                    "velocity": 0.7952755905511811,
                    "duration": 0.0583333333333087
                },
                {
                    "name": "B3",
                    "midi": 59,
                    "time": 232.5145833333286,
                    "velocity": 0.5118110236220472,
                    "duration": 0.04791666666665151
                },
                {
                    "name": "C2",
                    "midi": 36,
                    "time": 232.91458333332858,
                    "velocity": 0.6614173228346457,
                    "duration": 0.054166666666674246
                },
                {
                    "name": "C6",
                    "midi": 84,
                    "time": 232.91874999999524,
                    "velocity": 0.9291338582677166,
                    "duration": 0.056250000000005684
                },
                {
                    "name": "D#5",
                    "midi": 75,
                    "time": 232.9229166666619,
                    "velocity": 0.9921259842519685,
                    "duration": 0.04791666666667993
                },
                {
                    "name": "C3",
                    "midi": 48,
                    "time": 232.9291666666619,
                    "velocity": 0.984251968503937,
                    "duration": 0.07083333333335418
                },
                {
                    "name": "D2",
                    "midi": 38,
                    "time": 232.9479166666619,
                    "velocity": 0.5905511811023622,
                    "duration": 0.03125
                },
                {
                    "name": "G2",
                    "midi": 43,
                    "time": 233.15624999999525,
                    "velocity": 0.5039370078740157,
                    "duration": 0.15833333333333144
                },
                {
                    "name": "A2",
                    "midi": 45,
                    "time": 233.1666666666619,
                    "velocity": 0.5590551181102362,
                    "duration": 0.04583333333332007
                },
                {
                    "name": "B4",
                    "midi": 71,
                    "time": 233.42083333332857,
                    "velocity": 0.8031496062992126,
                    "duration": 0.037499999999994316
                },
                {
                    "name": "B3",
                    "midi": 59,
                    "time": 233.42499999999524,
                    "velocity": 0.7795275590551181,
                    "duration": 0.05624999999997726
                },
                {
                    "name": "A#3",
                    "midi": 58,
                    "time": 233.42708333332857,
                    "velocity": 0.8818897637795275,
                    "duration": 0.07499999999998863
                },
                {
                    "name": "G#4",
                    "midi": 68,
                    "time": 233.43124999999523,
                    "velocity": 0.7716535433070866,
                    "duration": 0.03541666666666288
                },
                {
                    "name": "D#4",
                    "midi": 63,
                    "time": 233.43333333332856,
                    "velocity": 0.6220472440944882,
                    "duration": 0.03541666666666288
                },
                {
                    "name": "C4",
                    "midi": 60,
                    "time": 233.43958333332856,
                    "velocity": 0.5039370078740157,
                    "duration": 0.04583333333332007
                },
                {
                    "name": "G#3",
                    "midi": 56,
                    "time": 233.61458333332857,
                    "velocity": 0.7244094488188977,
                    "duration": 0.15833333333333144
                },
                {
                    "name": "A3",
                    "midi": 57,
                    "time": 233.6416666666619,
                    "velocity": 0.44881889763779526,
                    "duration": 0.07499999999998863
                },
                {
                    "name": "A#3",
                    "midi": 58,
                    "time": 233.76458333332857,
                    "velocity": 0.9291338582677166,
                    "duration": 0.1833333333333087
                },
                {
                    "name": "B5",
                    "midi": 83,
                    "time": 233.90208333332856,
                    "velocity": 0.8188976377952756,
                    "duration": 0.05624999999997726
                },
                {
                    "name": "D#5",
                    "midi": 75,
                    "time": 233.90624999999523,
                    "velocity": 0.905511811023622,
                    "duration": 0.0583333333333087
                },
                {
                    "name": "B4",
                    "midi": 71,
                    "time": 233.90833333332856,
                    "velocity": 0.8740157480314961,
                    "duration": 0.03125
                },
                {
                    "name": "G#5",
                    "midi": 80,
                    "time": 233.90833333332856,
                    "velocity": 0.8503937007874016,
                    "duration": 0.05624999999997726
                },
                {
                    "name": "G#3",
                    "midi": 56,
                    "time": 233.91249999999522,
                    "velocity": 0.8976377952755905,
                    "duration": 0.12499999999997158
                },
                {
                    "name": "A#3",
                    "midi": 58,
                    "time": 234.05416666666187,
                    "velocity": 0.9133858267716536,
                    "duration": 0.13958333333332007
                },
                {
                    "name": "G#3",
                    "midi": 56,
                    "time": 234.1812499999952,
                    "velocity": 0.8661417322834646,
                    "duration": 0.07291666666665719
                },
                {
                    "name": "C5",
                    "midi": 72,
                    "time": 234.36249999999518,
                    "velocity": 0.7952755905511811,
                    "duration": 0.06666666666663446
                },
                {
                    "name": "E4",
                    "midi": 64,
                    "time": 234.36249999999518,
                    "velocity": 0.7716535433070866,
                    "duration": 0.03333333333330302
                },
                {
                    "name": "A#4",
                    "midi": 70,
                    "time": 234.36666666666184,
                    "velocity": 0.7795275590551181,
                    "duration": 0.0583333333333087
                },
                {
                    "name": "C4",
                    "midi": 60,
                    "time": 234.3708333333285,
                    "velocity": 0.7007874015748031,
                    "duration": 0.037499999999965894
                },
                {
                    "name": "G3",
                    "midi": 55,
                    "time": 234.3770833333285,
                    "velocity": 0.8976377952755905,
                    "duration": 0.05624999999997726
                },
                {
                    "name": "G2",
                    "midi": 43,
                    "time": 234.38124999999516,
                    "velocity": 0.889763779527559,
                    "duration": 0.04374999999998863
                },
                {
                    "name": "F3",
                    "midi": 53,
                    "time": 234.5854166666618,
                    "velocity": 0.889763779527559,
                    "duration": 0.06458333333333144
                },
                {
                    "name": "F2",
                    "midi": 41,
                    "time": 234.58958333332848,
                    "velocity": 0.7559055118110236,
                    "duration": 0.056250000000005684
                },
                {
                    "name": "C6",
                    "midi": 84,
                    "time": 234.82083333332847,
                    "velocity": 0.8346456692913385,
                    "duration": 0.0583333333333087
                },
                {
                    "name": "A#5",
                    "midi": 82,
                    "time": 234.82499999999513,
                    "velocity": 0.8503937007874016,
                    "duration": 0.06458333333330302
                },
                {
                    "name": "C5",
                    "midi": 72,
                    "time": 234.82708333332846,
                    "velocity": 0.8818897637795275,
                    "duration": 0.04374999999998863
                },
                {
                    "name": "E3",
                    "midi": 52,
                    "time": 234.83749999999512,
                    "velocity": 0.9448818897637795,
                    "duration": 0.0583333333333087
                },
                {
                    "name": "E2",
                    "midi": 40,
                    "time": 234.83958333332845,
                    "velocity": 0.9291338582677166,
                    "duration": 0.04999999999998295
                },
                {
                    "name": "D#3",
                    "midi": 51,
                    "time": 235.06458333332841,
                    "velocity": 0.952755905511811,
                    "duration": 0.28749999999993747
                },
                {
                    "name": "D#2",
                    "midi": 39,
                    "time": 235.07291666666174,
                    "velocity": 0.8582677165354331,
                    "duration": 0.2624999999999602
                },
                {
                    "name": "C4",
                    "midi": 60,
                    "time": 235.28541666666172,
                    "velocity": 0.9133858267716536,
                    "duration": 0.054166666666645824
                },
                {
                    "name": "F4",
                    "midi": 65,
                    "time": 235.29374999999504,
                    "velocity": 0.7322834645669292,
                    "duration": 0.06249999999997158
                },
                {
                    "name": "A4",
                    "midi": 69,
                    "time": 235.29583333332837,
                    "velocity": 0.7086614173228346,
                    "duration": 0.07083333333329733
                },
                {
                    "name": "C5",
                    "midi": 72,
                    "time": 235.3104166666617,
                    "velocity": 0.6614173228346457,
                    "duration": 0.04374999999998863
                },
                {
                    "name": "F3",
                    "midi": 53,
                    "time": 235.49583333332833,
                    "velocity": 0.9212598425196851,
                    "duration": 0.07083333333332575
                },
                {
                    "name": "F2",
                    "midi": 41,
                    "time": 235.50208333332833,
                    "velocity": 0.8976377952755905,
                    "duration": 0.056250000000005684
                },
                {
                    "name": "E3",
                    "midi": 52,
                    "time": 235.524999999995,
                    "velocity": 0.5118110236220472,
                    "duration": 0.04583333333332007
                },
                {
                    "name": "C6",
                    "midi": 84,
                    "time": 235.72916666666163,
                    "velocity": 0.889763779527559,
                    "duration": 0.06458333333330302
                },
                {
                    "name": "G#5",
                    "midi": 80,
                    "time": 235.73124999999496,
                    "velocity": 0.84251968503937,
                    "duration": 0.06041666666664014
                },
                {
                    "name": "F#5",
                    "midi": 78,
                    "time": 235.7333333333283,
                    "velocity": 0.8661417322834646,
                    "duration": 0.05624999999997726
                },
                {
                    "name": "C5",
                    "midi": 72,
                    "time": 235.7333333333283,
                    "velocity": 0.8503937007874016,
                    "duration": 0.04166666666665719
                },
                {
                    "name": "F#3",
                    "midi": 54,
                    "time": 235.7333333333283,
                    "velocity": 1,
                    "duration": 0.11041666666665151
                },
                {
                    "name": "F#2",
                    "midi": 42,
                    "time": 235.7333333333283,
                    "velocity": 0.968503937007874,
                    "duration": 0.1208333333333087
                },
                {
                    "name": "D5",
                    "midi": 74,
                    "time": 235.74999999999497,
                    "velocity": 0.5826771653543307,
                    "duration": 0.037499999999965894
                },
                {
                    "name": "G3",
                    "midi": 55,
                    "time": 235.96458333332828,
                    "velocity": 0.9212598425196851,
                    "duration": 0.1729166666666515
                },
                {
                    "name": "G2",
                    "midi": 43,
                    "time": 235.9666666666616,
                    "velocity": 0.9133858267716536,
                    "duration": 0.1979166666666572
                },
                {
                    "name": "C5",
                    "midi": 72,
                    "time": 236.2229166666616,
                    "velocity": 0.8031496062992126,
                    "duration": 0.125
                },
                {
                    "name": "D#4",
                    "midi": 63,
                    "time": 236.22708333332827,
                    "velocity": 0.8976377952755905,
                    "duration": 0.0625
                },
                {
                    "name": "G4",
                    "midi": 67,
                    "time": 236.23124999999493,
                    "velocity": 0.7401574803149606,
                    "duration": 0.07916666666667993
                },
                {
                    "name": "D#3",
                    "midi": 51,
                    "time": 236.43749999999494,
                    "velocity": 0.8976377952755905,
                    "duration": 0.07916666666665151
                },
                {
                    "name": "D#2",
                    "midi": 39,
                    "time": 236.44583333332827,
                    "velocity": 0.889763779527559,
                    "duration": 0.08750000000000568
                },
                {
                    "name": "C2",
                    "midi": 36,
                    "time": 236.6604166666616,
                    "velocity": 0.8976377952755905,
                    "duration": 0.05833333333333712
                },
                {
                    "name": "G5",
                    "midi": 79,
                    "time": 236.66458333332827,
                    "velocity": 0.7795275590551181,
                    "duration": 0.0625
                },
                {
                    "name": "C3",
                    "midi": 48,
                    "time": 236.6666666666616,
                    "velocity": 0.8346456692913385,
                    "duration": 0.056250000000005684
                },
                {
                    "name": "D#5",
                    "midi": 75,
                    "time": 236.67083333332826,
                    "velocity": 0.7795275590551181,
                    "duration": 0.02916666666666856
                },
                {
                    "name": "C6",
                    "midi": 84,
                    "time": 236.67083333332826,
                    "velocity": 0.7874015748031497,
                    "duration": 0.03125
                },
                {
                    "name": "A#3",
                    "midi": 58,
                    "time": 236.88958333332826,
                    "velocity": 1,
                    "duration": 0.056250000000005684
                },
                {
                    "name": "A#2",
                    "midi": 46,
                    "time": 236.88958333332826,
                    "velocity": 0.9291338582677166,
                    "duration": 0.06874999999999432
                },
                {
                    "name": "A#1",
                    "midi": 34,
                    "time": 237.12708333332824,
                    "velocity": 0.937007874015748,
                    "duration": 0.06666666666663446
                },
                {
                    "name": "A#2",
                    "midi": 46,
                    "time": 237.12916666666158,
                    "velocity": 0.8110236220472441,
                    "duration": 0.054166666666645824
                },
                {
                    "name": "D#5",
                    "midi": 75,
                    "time": 237.1374999999949,
                    "velocity": 0.8503937007874016,
                    "duration": 0.08749999999997726
                },
                {
                    "name": "D#4",
                    "midi": 63,
                    "time": 237.14166666666156,
                    "velocity": 0.8346456692913385,
                    "duration": 0.03125
                },
                {
                    "name": "G#2",
                    "midi": 44,
                    "time": 237.16041666666158,
                    "velocity": 0.3228346456692913,
                    "duration": 0.037499999999965894
                },
                {
                    "name": "G2",
                    "midi": 43,
                    "time": 237.34999999999488,
                    "velocity": 0.8976377952755905,
                    "duration": 0.06458333333333144
                },
                {
                    "name": "G3",
                    "midi": 55,
                    "time": 237.3520833333282,
                    "velocity": 0.8976377952755905,
                    "duration": 0.05833333333333712
                },
                {
                    "name": "D#3",
                    "midi": 51,
                    "time": 237.57291666666154,
                    "velocity": 0.968503937007874,
                    "duration": 0.04791666666665151
                },
                {
                    "name": "D#2",
                    "midi": 39,
                    "time": 237.57291666666154,
                    "velocity": 0.952755905511811,
                    "duration": 0.052083333333314386
                },
                {
                    "name": "D#6",
                    "midi": 87,
                    "time": 237.57916666666154,
                    "velocity": 0.8582677165354331,
                    "duration": 0.06458333333330302
                },
                {
                    "name": "G5",
                    "midi": 79,
                    "time": 237.58124999999487,
                    "velocity": 0.7637795275590551,
                    "duration": 0.04791666666665151
                },
                {
                    "name": "D#5",
                    "midi": 75,
                    "time": 237.5833333333282,
                    "velocity": 0.8267716535433071,
                    "duration": 0.04791666666665151
                },
                {
                    "name": "C4",
                    "midi": 60,
                    "time": 237.82083333332818,
                    "velocity": 1,
                    "duration": 0.05624999999997726
                },
                {
                    "name": "C3",
                    "midi": 48,
                    "time": 237.8229166666615,
                    "velocity": 0.9763779527559056,
                    "duration": 0.054166666666645824
                },
                {
                    "name": "G5",
                    "midi": 79,
                    "time": 238.0666666666615,
                    "velocity": 0.8188976377952756,
                    "duration": 0.21249999999994884
                },
                {
                    "name": "D#5",
                    "midi": 75,
                    "time": 238.06874999999482,
                    "velocity": 0.8267716535433071,
                    "duration": 0.07916666666662309
                },
                {
                    "name": "A2",
                    "midi": 45,
                    "time": 238.06874999999482,
                    "velocity": 0.7952755905511811,
                    "duration": 0.04999999999998295
                },
                {
                    "name": "A1",
                    "midi": 33,
                    "time": 238.07291666666148,
                    "velocity": 0.7874015748031497,
                    "duration": 0.037499999999994316
                },
                {
                    "name": "G4",
                    "midi": 67,
                    "time": 238.07291666666148,
                    "velocity": 0.8503937007874016,
                    "duration": 0.06249999999997158
                },
                {
                    "name": "A4",
                    "midi": 69,
                    "time": 238.0874999999948,
                    "velocity": 0.6535433070866141,
                    "duration": 0.039583333333325754
                },
                {
                    "name": "G3",
                    "midi": 55,
                    "time": 238.3020833333281,
                    "velocity": 0.9212598425196851,
                    "duration": 0.06458333333330302
                },
                {
                    "name": "G2",
                    "midi": 43,
                    "time": 238.3083333333281,
                    "velocity": 0.8582677165354331,
                    "duration": 0.04583333333332007
                },
                {
                    "name": "G6",
                    "midi": 91,
                    "time": 238.53749999999474,
                    "velocity": 0.8582677165354331,
                    "duration": 0.06041666666664014
                },
                {
                    "name": "D#6",
                    "midi": 87,
                    "time": 238.54374999999473,
                    "velocity": 0.8582677165354331,
                    "duration": 0.0583333333333087
                },
                {
                    "name": "G5",
                    "midi": 79,
                    "time": 238.5479166666614,
                    "velocity": 0.6614173228346457,
                    "duration": 0.04374999999998863
                },
                {
                    "name": "D#2",
                    "midi": 39,
                    "time": 238.54999999999472,
                    "velocity": 0.8818897637795275,
                    "duration": 0.04999999999998295
                },
                {
                    "name": "C6",
                    "midi": 84,
                    "time": 238.55208333332806,
                    "velocity": 0.7086614173228346,
                    "duration": 0.03125
                },
                {
                    "name": "D#3",
                    "midi": 51,
                    "time": 238.55208333332806,
                    "velocity": 0.952755905511811,
                    "duration": 0.04791666666665151
                },
                {
                    "name": "D#3",
                    "midi": 51,
                    "time": 238.7874999999947,
                    "velocity": 0.968503937007874,
                    "duration": 0.056250000000005684
                },
                {
                    "name": "D#4",
                    "midi": 63,
                    "time": 238.78958333332804,
                    "velocity": 1,
                    "duration": 0.04791666666667993
                },
                {
                    "name": "G#5",
                    "midi": 80,
                    "time": 239.0479166666614,
                    "velocity": 0.7952755905511811,
                    "duration": 0.13124999999993747
                },
                {
                    "name": "G#4",
                    "midi": 68,
                    "time": 239.0479166666614,
                    "velocity": 0.8346456692913385,
                    "duration": 0.0687499999999659
                },
                {
                    "name": "C5",
                    "midi": 72,
                    "time": 239.0541666666614,
                    "velocity": 0.6929133858267716,
                    "duration": 0.07291666666662877
                },
                {
                    "name": "G#2",
                    "midi": 44,
                    "time": 239.0624999999947,
                    "velocity": 0.889763779527559,
                    "duration": 0.04999999999998295
                },
                {
                    "name": "G#1",
                    "midi": 32,
                    "time": 239.0624999999947,
                    "velocity": 0.8976377952755905,
                    "duration": 0.04791666666665151
                },
                {
                    "name": "D#5",
                    "midi": 75,
                    "time": 239.06458333332805,
                    "velocity": 0.6614173228346457,
                    "duration": 0.07708333333329165
                },
                {
                    "name": "C4",
                    "midi": 60,
                    "time": 239.32916666666134,
                    "velocity": 0.9763779527559056,
                    "duration": 0.05208333333334281
                },
                {
                    "name": "C3",
                    "midi": 48,
                    "time": 239.33124999999467,
                    "velocity": 0.9291338582677166,
                    "duration": 0.05208333333334281
                },
                {
                    "name": "D3",
                    "midi": 50,
                    "time": 239.36249999999467,
                    "velocity": 0.4645669291338583,
                    "duration": 0.04583333333334849
                },
                {
                    "name": "G#6",
                    "midi": 92,
                    "time": 239.59999999999468,
                    "velocity": 0.8976377952755905,
                    "duration": 0.09166666666661172
                },
                {
                    "name": "G#5",
                    "midi": 80,
                    "time": 239.60416666666134,
                    "velocity": 0.9133858267716536,
                    "duration": 0.07499999999996021
                },
                {
                    "name": "C6",
                    "midi": 84,
                    "time": 239.60624999999467,
                    "velocity": 0.84251968503937,
                    "duration": 0.09999999999993747
                },
                {
                    "name": "G#2",
                    "midi": 44,
                    "time": 239.608333333328,
                    "velocity": 0.84251968503937,
                    "duration": 0.052083333333314386
                },
                {
                    "name": "D#6",
                    "midi": 87,
                    "time": 239.61041666666134,
                    "velocity": 0.8188976377952756,
                    "duration": 0.10833333333326323
                },
                {
                    "name": "G#3",
                    "midi": 56,
                    "time": 239.61249999999467,
                    "velocity": 0.968503937007874,
                    "duration": 0.052083333333314386
                },
                {
                    "name": "G4",
                    "midi": 67,
                    "time": 239.93749999999457,
                    "velocity": 0.984251968503937,
                    "duration": 0.056250000000005684
                },
                {
                    "name": "G3",
                    "midi": 55,
                    "time": 239.9395833333279,
                    "velocity": 0.8503937007874016,
                    "duration": 0.056250000000005684
                },
                {
                    "name": "G2",
                    "midi": 43,
                    "time": 240.33541666666125,
                    "velocity": 0.9291338582677166,
                    "duration": 0.22291666666663446
                },
                {
                    "name": "G1",
                    "midi": 31,
                    "time": 240.33749999999458,
                    "velocity": 0.952755905511811,
                    "duration": 0.1729166666666515
                },
                {
                    "name": "E6",
                    "midi": 88,
                    "time": 240.3395833333279,
                    "velocity": 0.8818897637795275,
                    "duration": 0.21874999999997158
                },
                {
                    "name": "C6",
                    "midi": 84,
                    "time": 240.34166666666124,
                    "velocity": 0.9133858267716536,
                    "duration": 0.21249999999997726
                },
                {
                    "name": "C7",
                    "midi": 96,
                    "time": 240.34374999999457,
                    "velocity": 0.8976377952755905,
                    "duration": 0.16458333333332575
                },
                {
                    "name": "G6",
                    "midi": 91,
                    "time": 240.34374999999457,
                    "velocity": 0.7952755905511811,
                    "duration": 0.2041666666666515
                },
                {
                    "name": "D6",
                    "midi": 86,
                    "time": 240.3583333333279,
                    "velocity": 0.7007874015748031,
                    "duration": 0.03333333333333144
                },
                {
                    "name": "G5",
                    "midi": 79,
                    "time": 240.87499999999454,
                    "velocity": 0.8976377952755905,
                    "duration": 0.3645833333333144
                },
                {
                    "name": "E5",
                    "midi": 76,
                    "time": 240.87708333332787,
                    "velocity": 0.9448818897637795,
                    "duration": 0.18958333333333144
                },
                {
                    "name": "C5",
                    "midi": 72,
                    "time": 240.88124999999454,
                    "velocity": 0.9133858267716536,
                    "duration": 0.15208333333333712
                },
                {
                    "name": "D#5",
                    "midi": 75,
                    "time": 241.1104166666612,
                    "velocity": 0.8661417322834646,
                    "duration": 0.11249999999998295
                },
                {
                    "name": "F#4",
                    "midi": 66,
                    "time": 241.11458333332786,
                    "velocity": 0.7086614173228346,
                    "duration": 0.17916666666667425
                },
                {
                    "name": "C5",
                    "midi": 72,
                    "time": 241.12083333332785,
                    "velocity": 0.6062992125984252,
                    "duration": 0.09166666666666856
                },
                {
                    "name": "E5",
                    "midi": 76,
                    "time": 241.21249999999452,
                    "velocity": 0.7244094488188977,
                    "duration": 0.13333333333332575
                },
                {
                    "name": "D#5",
                    "midi": 75,
                    "time": 241.33749999999452,
                    "velocity": 0.7322834645669292,
                    "duration": 0.07916666666665151
                },
                {
                    "name": "G4",
                    "midi": 67,
                    "time": 241.38333333332784,
                    "velocity": 0.6771653543307087,
                    "duration": 0.12083333333333712
                },
                {
                    "name": "E5",
                    "midi": 76,
                    "time": 241.4249999999945,
                    "velocity": 0.7086614173228346,
                    "duration": 0.08750000000000568
                },
                {
                    "name": "F#4",
                    "midi": 66,
                    "time": 241.4812499999945,
                    "velocity": 0.6850393700787402,
                    "duration": 0.07291666666665719
                },
                {
                    "name": "D#5",
                    "midi": 75,
                    "time": 241.51666666666117,
                    "velocity": 0.7165354330708661,
                    "duration": 0.07291666666665719
                },
                {
                    "name": "G4",
                    "midi": 67,
                    "time": 241.55416666666116,
                    "velocity": 0.4251968503937008,
                    "duration": 0.10208333333332575
                },
                {
                    "name": "E5",
                    "midi": 76,
                    "time": 241.58958333332782,
                    "velocity": 0.6771653543307087,
                    "duration": 0.07708333333332007
                },
                {
                    "name": "F#4",
                    "midi": 66,
                    "time": 241.63541666666114,
                    "velocity": 0.7007874015748031,
                    "duration": 0.04791666666667993
                },
                {
                    "name": "D#5",
                    "midi": 75,
                    "time": 241.65833333332782,
                    "velocity": 0.7322834645669292,
                    "duration": 0.07916666666667993
                },
                {
                    "name": "G4",
                    "midi": 67,
                    "time": 241.7124999999945,
                    "velocity": 0.6929133858267716,
                    "duration": 0.09375000000002842
                },
                {
                    "name": "E5",
                    "midi": 76,
                    "time": 241.7499999999945,
                    "velocity": 0.7244094488188977,
                    "duration": 0.0666666666666913
                },
                {
                    "name": "F#4",
                    "midi": 66,
                    "time": 241.76666666666117,
                    "velocity": 0.7795275590551181,
                    "duration": 0.0666666666666913
                },
                {
                    "name": "D#5",
                    "midi": 75,
                    "time": 241.78541666666118,
                    "velocity": 0.7795275590551181,
                    "duration": 0.07499999999998863
                },
                {
                    "name": "G4",
                    "midi": 67,
                    "time": 241.84791666666118,
                    "velocity": 0.8031496062992126,
                    "duration": 0.08541666666664582
                },
                {
                    "name": "E5",
                    "midi": 76,
                    "time": 241.87083333332782,
                    "velocity": 0.7165354330708661,
                    "duration": 0.07499999999998863
                },
                {
                    "name": "F#4",
                    "midi": 66,
                    "time": 241.90208333332782,
                    "velocity": 0.7480314960629921,
                    "duration": 0.07083333333332575
                },
                {
                    "name": "D#5",
                    "midi": 75,
                    "time": 241.92083333332783,
                    "velocity": 0.7401574803149606,
                    "duration": 0.09791666666663446
                },
                {
                    "name": "G4",
                    "midi": 67,
                    "time": 241.97499999999448,
                    "velocity": 0.7874015748031497,
                    "duration": 0.07916666666665151
                },
                {
                    "name": "E5",
                    "midi": 76,
                    "time": 242.00416666666115,
                    "velocity": 0.7637795275590551,
                    "duration": 0.06458333333330302
                },
                {
                    "name": "F#4",
                    "midi": 66,
                    "time": 242.02916666666113,
                    "velocity": 0.7716535433070866,
                    "duration": 0.0895833333333087
                },
                {
                    "name": "D#5",
                    "midi": 75,
                    "time": 242.06666666666112,
                    "velocity": 0.7322834645669292,
                    "duration": 0.08124999999998295
                },
                {
                    "name": "G4",
                    "midi": 67,
                    "time": 242.10833333332778,
                    "velocity": 0.7637795275590551,
                    "duration": 0.07708333333332007
                },
                {
                    "name": "E5",
                    "midi": 76,
                    "time": 242.1291666666611,
                    "velocity": 0.6692913385826772,
                    "duration": 0.07083333333332575
                },
                {
                    "name": "F#4",
                    "midi": 66,
                    "time": 242.17499999999444,
                    "velocity": 0.7322834645669292,
                    "duration": 0.08333333333331439
                },
                {
                    "name": "D#5",
                    "midi": 75,
                    "time": 242.19583333332776,
                    "velocity": 0.7401574803149606,
                    "duration": 0.18958333333333144
                },
                {
                    "name": "G4",
                    "midi": 67,
                    "time": 242.25208333332776,
                    "velocity": 0.6614173228346457,
                    "duration": 0.12291666666666856
                },
                {
                    "name": "E5",
                    "midi": 76,
                    "time": 242.28124999999443,
                    "velocity": 0.7795275590551181,
                    "duration": 0.07083333333332575
                },
                {
                    "name": "F#4",
                    "midi": 66,
                    "time": 242.32083333332776,
                    "velocity": 0.7480314960629921,
                    "duration": 0.36666666666667425
                },
                {
                    "name": "G5",
                    "midi": 79,
                    "time": 242.43958333332776,
                    "velocity": 0.889763779527559,
                    "duration": 0.26249999999998863
                },
                {
                    "name": "E5",
                    "midi": 76,
                    "time": 242.44583333332776,
                    "velocity": 0.8503937007874016,
                    "duration": 0.25208333333333144
                },
                {
                    "name": "G4",
                    "midi": 67,
                    "time": 242.4479166666611,
                    "velocity": 0.7795275590551181,
                    "duration": 0.22083333333333144
                },
                {
                    "name": "C5",
                    "midi": 72,
                    "time": 242.46041666666108,
                    "velocity": 0.7795275590551181,
                    "duration": 0.02916666666666856
                },
                {
                    "name": "B4",
                    "midi": 71,
                    "time": 242.5979166666611,
                    "velocity": 0.5354330708661418,
                    "duration": 0.12083333333333712
                },
                {
                    "name": "G4",
                    "midi": 67,
                    "time": 242.71874999999443,
                    "velocity": 0.31496062992125984,
                    "duration": 0.08750000000000568
                },
                {
                    "name": "D5",
                    "midi": 74,
                    "time": 242.72083333332776,
                    "velocity": 0.7322834645669292,
                    "duration": 0.06875000000002274
                },
                {
                    "name": "F4",
                    "midi": 65,
                    "time": 242.7416666666611,
                    "velocity": 0.3937007874015748,
                    "duration": 0.04583333333334849
                },
                {
                    "name": "D#5",
                    "midi": 75,
                    "time": 242.77083333332777,
                    "velocity": 0.7086614173228346,
                    "duration": 0.03125
                },
                {
                    "name": "B4",
                    "midi": 71,
                    "time": 242.79583333332778,
                    "velocity": 0.6535433070866141,
                    "duration": 0.08541666666664582
                },
                {
                    "name": "F4",
                    "midi": 65,
                    "time": 242.84999999999442,
                    "velocity": 0.6850393700787402,
                    "duration": 0.07708333333332007
                },
                {
                    "name": "G4",
                    "midi": 67,
                    "time": 242.87499999999443,
                    "velocity": 0.6062992125984252,
                    "duration": 0.04791666666665151
                },
                {
                    "name": "D5",
                    "midi": 74,
                    "time": 242.87708333332776,
                    "velocity": 0.7322834645669292,
                    "duration": 0.06666666666663446
                },
                {
                    "name": "E5",
                    "midi": 76,
                    "time": 242.91458333332776,
                    "velocity": 0.7007874015748031,
                    "duration": 0.08333333333328596
                },
                {
                    "name": "B4",
                    "midi": 71,
                    "time": 242.9374999999944,
                    "velocity": 0.6850393700787402,
                    "duration": 0.08124999999998295
                },
                {
                    "name": "F4",
                    "midi": 65,
                    "time": 242.9812499999944,
                    "velocity": 0.6929133858267716,
                    "duration": 0.06874999999999432
                },
                {
                    "name": "G4",
                    "midi": 67,
                    "time": 242.99374999999438,
                    "velocity": 0.5354330708661418,
                    "duration": 0.054166666666674246
                },
                {
                    "name": "D5",
                    "midi": 74,
                    "time": 243.0020833333277,
                    "velocity": 0.7086614173228346,
                    "duration": 0.07083333333332575
                },
                {
                    "name": "E5",
                    "midi": 76,
                    "time": 243.06249999999437,
                    "velocity": 0.6377952755905512,
                    "duration": 0.054166666666645824
                },
                {
                    "name": "B4",
                    "midi": 71,
                    "time": 243.07291666666103,
                    "velocity": 0.6771653543307087,
                    "duration": 0.07499999999998863
                },
                {
                    "name": "F4",
                    "midi": 65,
                    "time": 243.1083333333277,
                    "velocity": 0.6377952755905512,
                    "duration": 0.056250000000005684
                },
                {
                    "name": "G4",
                    "midi": 67,
                    "time": 243.11249999999436,
                    "velocity": 0.5433070866141733,
                    "duration": 0.08125000000001137
                },
                {
                    "name": "D5",
                    "midi": 74,
                    "time": 243.13541666666103,
                    "velocity": 0.5511811023622047,
                    "duration": 0.07916666666665151
                },
                {
                    "name": "E5",
                    "midi": 76,
                    "time": 243.19999999999436,
                    "velocity": 0.6929133858267716,
                    "duration": 0.07499999999998863
                },
                {
                    "name": "B4",
                    "midi": 71,
                    "time": 243.2020833333277,
                    "velocity": 0.7322834645669292,
                    "duration": 0.07708333333332007
                },
                {
                    "name": "G4",
                    "midi": 67,
                    "time": 243.24999999999434,
                    "velocity": 0.6377952755905512,
                    "duration": 0.06874999999999432
                },
                {
                    "name": "D5",
                    "midi": 74,
                    "time": 243.27499999999435,
                    "velocity": 0.5669291338582677,
                    "duration": 0.07499999999998863
                },
                {
                    "name": "E5",
                    "midi": 76,
                    "time": 243.329166666661,
                    "velocity": 0.7559055118110236,
                    "duration": 0.09583333333335986
                },
                {
                    "name": "B4",
                    "midi": 71,
                    "time": 243.372916666661,
                    "velocity": 0.3779527559055118,
                    "duration": 0.05000000000001137
                },
                {
                    "name": "F4",
                    "midi": 65,
                    "time": 243.39374999999436,
                    "velocity": 0.6614173228346457,
                    "duration": 0.06041666666666856
                },
                {
                    "name": "G4",
                    "midi": 67,
                    "time": 243.39999999999435,
                    "velocity": 0.3779527559055118,
                    "duration": 0.05833333333333712
                },
                {
                    "name": "D5",
                    "midi": 74,
                    "time": 243.4208333333277,
                    "velocity": 0.6614173228346457,
                    "duration": 0.07083333333332575
                },
                {
                    "name": "B4",
                    "midi": 71,
                    "time": 243.46249999999435,
                    "velocity": 0.7086614173228346,
                    "duration": 0.07499999999998863
                },
                {
                    "name": "E5",
                    "midi": 76,
                    "time": 243.48124999999436,
                    "velocity": 0.7007874015748031,
                    "duration": 0.07499999999996021
                },
                {
                    "name": "F4",
                    "midi": 65,
                    "time": 243.5145833333277,
                    "velocity": 0.6614173228346457,
                    "duration": 0.07083333333329733
                },
                {
                    "name": "G4",
                    "midi": 67,
                    "time": 243.529166666661,
                    "velocity": 0.5354330708661418,
                    "duration": 0.054166666666645824
                },
                {
                    "name": "D5",
                    "midi": 74,
                    "time": 243.54999999999433,
                    "velocity": 0.6614173228346457,
                    "duration": 0.07708333333332007
                },
                {
                    "name": "B4",
                    "midi": 71,
                    "time": 243.59166666666098,
                    "velocity": 0.7086614173228346,
                    "duration": 0.0687499999999659
                },
                {
                    "name": "E5",
                    "midi": 76,
                    "time": 243.61458333332766,
                    "velocity": 0.7401574803149606,
                    "duration": 0.09374999999994316
                },
                {
                    "name": "F4",
                    "midi": 65,
                    "time": 243.64166666666097,
                    "velocity": 0.6456692913385826,
                    "duration": 0.0687499999999659
                },
                {
                    "name": "G4",
                    "midi": 67,
                    "time": 243.64583333332763,
                    "velocity": 0.44881889763779526,
                    "duration": 0.07291666666662877
                },
                {
                    "name": "D5",
                    "midi": 74,
                    "time": 243.6958333333276,
                    "velocity": 0.5984251968503937,
                    "duration": 0.07083333333332575
                },
                {
                    "name": "B4",
                    "midi": 71,
                    "time": 243.71874999999426,
                    "velocity": 0.6771653543307087,
                    "duration": 0.07499999999998863
                },
                {
                    "name": "E5",
                    "midi": 76,
                    "time": 243.76666666666094,
                    "velocity": 0.6771653543307087,
                    "duration": 0.08124999999995453
                },
                {
                    "name": "F4",
                    "midi": 65,
                    "time": 243.7770833333276,
                    "velocity": 0.5118110236220472,
                    "duration": 0.054166666666645824
                },
                {
                    "name": "G4",
                    "midi": 67,
                    "time": 243.79166666666092,
                    "velocity": 0.31496062992125984,
                    "duration": 0.0583333333333087
                },
                {
                    "name": "D5",
                    "midi": 74,
                    "time": 243.84374999999423,
                    "velocity": 0.4881889763779528,
                    "duration": 0.07499999999996021
                },
                {
                    "name": "B4",
                    "midi": 71,
                    "time": 243.86041666666088,
                    "velocity": 0.5590551181102362,
                    "duration": 0.07291666666662877
                },
                {
                    "name": "E5",
                    "midi": 76,
                    "time": 243.90416666666087,
                    "velocity": 0.7086614173228346,
                    "duration": 0.09166666666664014
                },
                {
                    "name": "F4",
                    "midi": 65,
                    "time": 243.92916666666085,
                    "velocity": 0.2677165354330709,
                    "duration": 0.05833333333333712
                },
                {
                    "name": "G4",
                    "midi": 67,
                    "time": 243.93124999999418,
                    "velocity": 0.2992125984251969,
                    "duration": 0.06458333333333144
                },
                {
                    "name": "D5",
                    "midi": 74,
                    "time": 243.99374999999418,
                    "velocity": 0.47244094488188976,
                    "duration": 0.06458333333333144
                },
                {
                    "name": "B4",
                    "midi": 71,
                    "time": 244.02499999999418,
                    "velocity": 0.33070866141732286,
                    "duration": 0.08333333333331439
                },
                {
                    "name": "E5",
                    "midi": 76,
                    "time": 244.04583333332752,
                    "velocity": 0.5748031496062992,
                    "duration": 0.1791666666666174
                },
                {
                    "name": "G4",
                    "midi": 67,
                    "time": 244.0958333333275,
                    "velocity": 0.3543307086614173,
                    "duration": 0.11874999999997726
                },
                {
                    "name": "F4",
                    "midi": 65,
                    "time": 244.10624999999416,
                    "velocity": 0.25196850393700787,
                    "duration": 0.09999999999999432
                },
                {
                    "name": "B4",
                    "midi": 71,
                    "time": 244.21249999999415,
                    "velocity": 0.5511811023622047,
                    "duration": 0.0895833333333087
                },
                {
                    "name": "D5",
                    "midi": 74,
                    "time": 244.2229166666608,
                    "velocity": 0.5669291338582677,
                    "duration": 0.0999999999999659
                },
                {
                    "name": "G4",
                    "midi": 67,
                    "time": 244.2916666666608,
                    "velocity": 0.1732283464566929,
                    "duration": 0.0687499999999659
                },
                {
                    "name": "F4",
                    "midi": 65,
                    "time": 244.30833333332745,
                    "velocity": 0.11811023622047244,
                    "duration": 0.09791666666663446
                },
                {
                    "name": "E5",
                    "midi": 76,
                    "time": 244.31249999999412,
                    "velocity": 0.6062992125984252,
                    "duration": 0.12708333333330302
                },
                {
                    "name": "D5",
                    "midi": 74,
                    "time": 244.44999999999408,
                    "velocity": 0.33858267716535434,
                    "duration": 0.10833333333332007
                },
                {
                    "name": "E5",
                    "midi": 76,
                    "time": 244.59791666666072,
                    "velocity": 0.31496062992125984,
                    "duration": 0.09375
                },
                {
                    "name": "D5",
                    "midi": 74,
                    "time": 244.67083333332738,
                    "velocity": 0.5433070866141733,
                    "duration": 0.041666666666685614
                },
                {
                    "name": "C3",
                    "midi": 48,
                    "time": 244.79374999999405,
                    "velocity": 0.6535433070866141,
                    "duration": 0.11249999999998295
                },
                {
                    "name": "G3",
                    "midi": 55,
                    "time": 244.85416666666072,
                    "velocity": 0.5669291338582677,
                    "duration": 0.08333333333331439
                },
                {
                    "name": "B5",
                    "midi": 83,
                    "time": 244.9291666666607,
                    "velocity": 0.05511811023622047,
                    "duration": 0.09791666666666288
                },
                {
                    "name": "C6",
                    "midi": 84,
                    "time": 244.98958333332737,
                    "velocity": 0.8110236220472441,
                    "duration": 0.30208333333328596
                },
                {
                    "name": "E4",
                    "midi": 64,
                    "time": 245.0416666666607,
                    "velocity": 0.5984251968503937,
                    "duration": 0.40416666666664014
                },
                {
                    "name": "A#3",
                    "midi": 58,
                    "time": 245.05208333332735,
                    "velocity": 0.3464566929133858,
                    "duration": 0.05833333333333712
                },
                {
                    "name": "C4",
                    "midi": 60,
                    "time": 245.05416666666068,
                    "velocity": 0.6299212598425197,
                    "duration": 0.23958333333331439
                },
                {
                    "name": "A#3",
                    "midi": 58,
                    "time": 245.218749999994,
                    "velocity": 0.25984251968503935,
                    "duration": 0.08541666666664582
                },
                {
                    "name": "E6",
                    "midi": 88,
                    "time": 245.33541666666065,
                    "velocity": 0.5196850393700787,
                    "duration": 0.11875000000000568
                },
                {
                    "name": "A3",
                    "midi": 57,
                    "time": 245.36458333332732,
                    "velocity": 0.3937007874015748,
                    "duration": 0.15833333333333144
                },
                {
                    "name": "G5",
                    "midi": 79,
                    "time": 245.48958333332732,
                    "velocity": 0.7322834645669292,
                    "duration": 0.039583333333325754
                },
                {
                    "name": "G6",
                    "midi": 91,
                    "time": 245.49999999999397,
                    "velocity": 0.5905511811023622,
                    "duration": 0.054166666666674246
                },
                {
                    "name": "G3",
                    "midi": 55,
                    "time": 245.52499999999398,
                    "velocity": 0.4330708661417323,
                    "duration": 0.17083333333332007
                },
                {
                    "name": "A#3",
                    "midi": 58,
                    "time": 245.68749999999397,
                    "velocity": 0.5275590551181102,
                    "duration": 0.2583333333332405
                },
                {
                    "name": "E4",
                    "midi": 64,
                    "time": 245.69999999999396,
                    "velocity": 0.44881889763779526,
                    "duration": 0.2583333333332405
                },
                {
                    "name": "C4",
                    "midi": 60,
                    "time": 245.69999999999396,
                    "velocity": 0.44881889763779526,
                    "duration": 0.24374999999992042
                },
                {
                    "name": "G6",
                    "midi": 91,
                    "time": 245.86874999999395,
                    "velocity": 0.7952755905511811,
                    "duration": 0.06249999999994316
                },
                {
                    "name": "G5",
                    "midi": 79,
                    "time": 245.87708333332728,
                    "velocity": 0.6771653543307087,
                    "duration": 0.03958333333329733
                },
                {
                    "name": "A3",
                    "midi": 57,
                    "time": 245.9041666666606,
                    "velocity": 0.3937007874015748,
                    "duration": 0.1479166666666174
                },
                {
                    "name": "G3",
                    "midi": 55,
                    "time": 246.12499999999386,
                    "velocity": 0.05511811023622047,
                    "duration": 0.16249999999999432
                },
                {
                    "name": "G6",
                    "midi": 91,
                    "time": 246.2708333333272,
                    "velocity": 0.7322834645669292,
                    "duration": 0.04166666666665719
                },
                {
                    "name": "A#3",
                    "midi": 58,
                    "time": 246.27291666666054,
                    "velocity": 0.5905511811023622,
                    "duration": 0.18749999999997158
                },
                {
                    "name": "G5",
                    "midi": 79,
                    "time": 246.27499999999387,
                    "velocity": 0.5984251968503937,
                    "duration": 0.04791666666665151
                },
                {
                    "name": "E4",
                    "midi": 64,
                    "time": 246.28124999999386,
                    "velocity": 0.5354330708661418,
                    "duration": 0.11458333333331439
                },
                {
                    "name": "C4",
                    "midi": 60,
                    "time": 246.2895833333272,
                    "velocity": 0.5433070866141733,
                    "duration": 0.19583333333332575
                },
                {
                    "name": "A3",
                    "midi": 57,
                    "time": 246.43958333332716,
                    "velocity": 0.47244094488188976,
                    "duration": 0.14791666666667425
                },
                {
                    "name": "G3",
                    "midi": 55,
                    "time": 246.51874999999384,
                    "velocity": 0.3779527559055118,
                    "duration": 0.14791666666667425
                },
                {
                    "name": "G5",
                    "midi": 79,
                    "time": 246.63541666666052,
                    "velocity": 0.8031496062992126,
                    "duration": 0.052083333333314386
                },
                {
                    "name": "G6",
                    "midi": 91,
                    "time": 246.63749999999385,
                    "velocity": 0.7716535433070866,
                    "duration": 0.07708333333332007
                },
                {
                    "name": "F4",
                    "midi": 65,
                    "time": 246.66666666666052,
                    "velocity": 0.5354330708661418,
                    "duration": 0.18958333333330302
                },
                {
                    "name": "B3",
                    "midi": 59,
                    "time": 246.66874999999385,
                    "velocity": 0.4881889763779528,
                    "duration": 0.17708333333331439
                },
                {
                    "name": "D4",
                    "midi": 62,
                    "time": 246.6791666666605,
                    "velocity": 0.4566929133858268,
                    "duration": 0.21041666666664582
                },
                {
                    "name": "A3",
                    "midi": 57,
                    "time": 246.82083333332716,
                    "velocity": 0.36220472440944884,
                    "duration": 0.21666666666664014
                },
                {
                    "name": "G3",
                    "midi": 55,
                    "time": 246.98541666666048,
                    "velocity": 0.3700787401574803,
                    "duration": 0.25833333333329733
                },
                {
                    "name": "G#6",
                    "midi": 92,
                    "time": 247.01666666666048,
                    "velocity": 0.6377952755905512,
                    "duration": 0.03124999999997158
                },
                {
                    "name": "A5",
                    "midi": 81,
                    "time": 247.02083333332715,
                    "velocity": 0.6771653543307087,
                    "duration": 0.06041666666664014
                },
                {
                    "name": "A6",
                    "midi": 93,
                    "time": 247.0249999999938,
                    "velocity": 0.7559055118110236,
                    "duration": 0.04999999999998295
                },
                {
                    "name": "F4",
                    "midi": 65,
                    "time": 247.22291666666047,
                    "velocity": 0.3858267716535433,
                    "duration": 0.31041666666666856
                },
                {
                    "name": "D4",
                    "midi": 62,
                    "time": 247.22291666666047,
                    "velocity": 0.4330708661417323,
                    "duration": 0.2854166666666629
                },
                {
                    "name": "B3",
                    "midi": 59,
                    "time": 247.2312499999938,
                    "velocity": 0.36220472440944884,
                    "duration": 0.2541666666666629
                },
                {
                    "name": "G6",
                    "midi": 91,
                    "time": 247.23958333332712,
                    "velocity": 0.7795275590551181,
                    "duration": 0.03333333333333144
                },
                {
                    "name": "G5",
                    "midi": 79,
                    "time": 247.2520833333271,
                    "velocity": 0.44881889763779526,
                    "duration": 0.05208333333334281
                },
                {
                    "name": "F6",
                    "midi": 89,
                    "time": 247.42291666666046,
                    "velocity": 0.7795275590551181,
                    "duration": 0.03333333333333144
                },
                {
                    "name": "A3",
                    "midi": 57,
                    "time": 247.42708333332712,
                    "velocity": 0.30708661417322836,
                    "duration": 0.1916666666666913
                },
                {
                    "name": "F5",
                    "midi": 77,
                    "time": 247.43749999999378,
                    "velocity": 0.4015748031496063,
                    "duration": 0.04791666666667993
                },
                {
                    "name": "G3",
                    "midi": 55,
                    "time": 247.58541666666048,
                    "velocity": 0.33070866141732286,
                    "duration": 0.22916666666662877
                },
                {
                    "name": "E6",
                    "midi": 88,
                    "time": 247.60208333332716,
                    "velocity": 0.8110236220472441,
                    "duration": 0.04791666666665151
                },
                {
                    "name": "E5",
                    "midi": 76,
                    "time": 247.61458333332715,
                    "velocity": 0.5511811023622047,
                    "duration": 0.04999999999998295
                },
                {
                    "name": "D6",
                    "midi": 86,
                    "time": 247.7999999999938,
                    "velocity": 0.8976377952755905,
                    "duration": 0.06041666666664014
                },
                {
                    "name": "D5",
                    "midi": 74,
                    "time": 247.80624999999378,
                    "velocity": 0.8031496062992126,
                    "duration": 0.04374999999998863
                },
                {
                    "name": "D4",
                    "midi": 62,
                    "time": 247.81249999999378,
                    "velocity": 0.4645669291338583,
                    "duration": 0.19791666666662877
                },
                {
                    "name": "F4",
                    "midi": 65,
                    "time": 247.8145833333271,
                    "velocity": 0.3858267716535433,
                    "duration": 0.15416666666664014
                },
                {
                    "name": "E5",
                    "midi": 76,
                    "time": 247.82499999999376,
                    "velocity": 0.5748031496062992,
                    "duration": 0.04583333333332007
                },
                {
                    "name": "B3",
                    "midi": 59,
                    "time": 247.8270833333271,
                    "velocity": 0.3858267716535433,
                    "duration": 0.18541666666664014
                },
                {
                    "name": "A3",
                    "midi": 57,
                    "time": 247.94374999999374,
                    "velocity": 0.28346456692913385,
                    "duration": 0.15833333333333144
                },
                {
                    "name": "G3",
                    "midi": 55,
                    "time": 248.03958333332707,
                    "velocity": 0.33070866141732286,
                    "duration": 0.1666666666666572
                },
                {
                    "name": "A#3",
                    "midi": 58,
                    "time": 248.18333333332708,
                    "velocity": 0.7165354330708661,
                    "duration": 0.2874999999999659
                },
                {
                    "name": "C6",
                    "midi": 84,
                    "time": 248.1979166666604,
                    "velocity": 0.8110236220472441,
                    "duration": 0.03333333333333144
                },
                {
                    "name": "C4",
                    "midi": 60,
                    "time": 248.19999999999374,
                    "velocity": 0.5590551181102362,
                    "duration": 0.27499999999997726
                },
                {
                    "name": "E4",
                    "midi": 64,
                    "time": 248.19999999999374,
                    "velocity": 0.5354330708661418,
                    "duration": 0.23958333333331439
                },
                {
                    "name": "C5",
                    "midi": 72,
                    "time": 248.2041666666604,
                    "velocity": 0.7322834645669292,
                    "duration": 0.03541666666666288
                },
                {
                    "name": "A3",
                    "midi": 57,
                    "time": 248.37083333332706,
                    "velocity": 0.3543307086614173,
                    "duration": 0.23750000000001137
                },
                {
                    "name": "G3",
                    "midi": 55,
                    "time": 248.5604166666604,
                    "velocity": 0.3543307086614173,
                    "duration": 0.21874999999997158
                },
                {
                    "name": "A#3",
                    "midi": 58,
                    "time": 248.7416666666604,
                    "velocity": 0.6062992125984252,
                    "duration": 0.2687499999999545
                },
                {
                    "name": "E4",
                    "midi": 64,
                    "time": 248.75208333332705,
                    "velocity": 0.5826771653543307,
                    "duration": 0.17083333333332007
                },
                {
                    "name": "C5",
                    "midi": 72,
                    "time": 248.7562499999937,
                    "velocity": 0.8346456692913385,
                    "duration": 0.3562499999999602
                },
                {
                    "name": "C4",
                    "midi": 60,
                    "time": 248.7624999999937,
                    "velocity": 0.5354330708661418,
                    "duration": 0.23958333333331439
                },
                {
                    "name": "A#4",
                    "midi": 70,
                    "time": 248.76666666666037,
                    "velocity": 0.7559055118110236,
                    "duration": 0.3354166666666458
                },
                {
                    "name": "E5",
                    "midi": 76,
                    "time": 248.7687499999937,
                    "velocity": 0.7874015748031497,
                    "duration": 0.2812499999999716
                },
                {
                    "name": "A3",
                    "midi": 57,
                    "time": 248.95833333332703,
                    "velocity": 0.30708661417322836,
                    "duration": 0.1937499999999659
                },
                {
                    "name": "A4",
                    "midi": 69,
                    "time": 248.97291666666035,
                    "velocity": 0.5984251968503937,
                    "duration": 0.16041666666663446
                },
                {
                    "name": "G3",
                    "midi": 55,
                    "time": 249.114583333327,
                    "velocity": 0.49606299212598426,
                    "duration": 0.08125000000001137
                },
                {
                    "name": "G4",
                    "midi": 67,
                    "time": 249.12499999999366,
                    "velocity": 0.48031496062992124,
                    "duration": 0.05000000000001137
                },
                {
                    "name": "C4",
                    "midi": 60,
                    "time": 249.33541666666034,
                    "velocity": 0.6850393700787402,
                    "duration": 0.13749999999998863
                },
                {
                    "name": "E4",
                    "midi": 64,
                    "time": 249.33749999999367,
                    "velocity": 0.5433070866141733,
                    "duration": 0.125
                },
                {
                    "name": "A#3",
                    "midi": 58,
                    "time": 249.352083333327,
                    "velocity": 0.5275590551181102,
                    "duration": 0.1458333333333428
                },
                {
                    "name": "A3",
                    "midi": 57,
                    "time": 249.439583333327,
                    "velocity": 0.6299212598425197,
                    "duration": 0.09166666666666856
                },
                {
                    "name": "G3",
                    "midi": 55,
                    "time": 249.50624999999366,
                    "velocity": 0.5511811023622047,
                    "duration": 0.09791666666666288
                },
                {
                    "name": "G#1",
                    "midi": 32,
                    "time": 249.68749999999363,
                    "velocity": 0.7874015748031497,
                    "duration": 0.11874999999997726
                },
                {
                    "name": "C4",
                    "midi": 60,
                    "time": 249.68958333332696,
                    "velocity": 0.6929133858267716,
                    "duration": 0.19999999999998863
                },
                {
                    "name": "G#2",
                    "midi": 44,
                    "time": 249.6916666666603,
                    "velocity": 0.9133858267716536,
                    "duration": 0.08124999999998295
                },
                {
                    "name": "D#4",
                    "midi": 63,
                    "time": 249.69999999999362,
                    "velocity": 0.7559055118110236,
                    "duration": 0.21666666666666856
                },
                {
                    "name": "A#3",
                    "midi": 58,
                    "time": 249.70416666666029,
                    "velocity": 0.6850393700787402,
                    "duration": 0.28125
                },
                {
                    "name": "G#3",
                    "midi": 56,
                    "time": 249.9166666666603,
                    "velocity": 0.6535433070866141,
                    "duration": 0.21874999999997158
                },
                {
                    "name": "F#3",
                    "midi": 54,
                    "time": 250.07916666666029,
                    "velocity": 0.6220472440944882,
                    "duration": 0.10833333333332007
                },
                {
                    "name": "G#1",
                    "midi": 32,
                    "time": 250.08333333332695,
                    "velocity": 0.7795275590551181,
                    "duration": 0.07291666666665719
                },
                {
                    "name": "G#2",
                    "midi": 44,
                    "time": 250.08958333332694,
                    "velocity": 0.7322834645669292,
                    "duration": 0.039583333333325754
                },
                {
                    "name": "D#4",
                    "midi": 63,
                    "time": 250.25416666666027,
                    "velocity": 0.6929133858267716,
                    "duration": 0.14374999999998295
                },
                {
                    "name": "C4",
                    "midi": 60,
                    "time": 250.26458333332693,
                    "velocity": 0.6456692913385826,
                    "duration": 0.15000000000000568
                },
                {
                    "name": "A#3",
                    "midi": 58,
                    "time": 250.29166666666026,
                    "velocity": 0.5275590551181102,
                    "duration": 0.2666666666666231
                },
                {
                    "name": "G#2",
                    "midi": 44,
                    "time": 250.45208333332693,
                    "velocity": 0.9291338582677166,
                    "duration": 0.06249999999997158
                },
                {
                    "name": "G#1",
                    "midi": 32,
                    "time": 250.45416666666026,
                    "velocity": 0.8818897637795275,
                    "duration": 0.06666666666663446
                },
                {
                    "name": "G#3",
                    "midi": 56,
                    "time": 250.47499999999357,
                    "velocity": 0.7716535433070866,
                    "duration": 0.17083333333329165
                },
                {
                    "name": "F#3",
                    "midi": 54,
                    "time": 250.63333333332687,
                    "velocity": 0.5118110236220472,
                    "duration": 0.09791666666666288
                },
                {
                    "name": "G#1",
                    "midi": 32,
                    "time": 250.80624999999353,
                    "velocity": 0.6929133858267716,
                    "duration": 0.052083333333314386
                },
                {
                    "name": "G#2",
                    "midi": 44,
                    "time": 250.8187499999935,
                    "velocity": 0.905511811023622,
                    "duration": 0.0625
                },
                {
                    "name": "D#4",
                    "midi": 63,
                    "time": 250.8312499999935,
                    "velocity": 0.6850393700787402,
                    "duration": 0.17916666666667425
                },
                {
                    "name": "C4",
                    "midi": 60,
                    "time": 250.83333333332683,
                    "velocity": 0.6614173228346457,
                    "duration": 0.1395833333333485
                },
                {
                    "name": "A#3",
                    "midi": 58,
                    "time": 250.83333333332683,
                    "velocity": 0.6771653543307087,
                    "duration": 0.14375000000001137
                },
                {
                    "name": "G#3",
                    "midi": 56,
                    "time": 250.90833333332685,
                    "velocity": 0.6614173228346457,
                    "duration": 0.09999999999999432
                },
                {
                    "name": "F#3",
                    "midi": 54,
                    "time": 250.95833333332686,
                    "velocity": 0.7007874015748031,
                    "duration": 0.03124999999997158
                },
                {
                    "name": "C3",
                    "midi": 48,
                    "time": 251.16458333332685,
                    "velocity": 0.5984251968503937,
                    "duration": 0.10624999999998863
                },
                {
                    "name": "G3",
                    "midi": 55,
                    "time": 251.23541666666017,
                    "velocity": 0.6850393700787402,
                    "duration": 0.0687499999999659
                },
                {
                    "name": "B5",
                    "midi": 83,
                    "time": 251.28333333332682,
                    "velocity": 0.5511811023622047,
                    "duration": 0.054166666666645824
                },
                {
                    "name": "C6",
                    "midi": 84,
                    "time": 251.29791666666014,
                    "velocity": 0.8346456692913385,
                    "duration": 0.12499999999997158
                },
                {
                    "name": "E4",
                    "midi": 64,
                    "time": 251.33541666666014,
                    "velocity": 0.7716535433070866,
                    "duration": 0.11666666666664582
                },
                {
                    "name": "A#3",
                    "midi": 58,
                    "time": 251.41041666666013,
                    "velocity": 0.5433070866141733,
                    "duration": 0.07083333333332575
                },
                {
                    "name": "E6",
                    "midi": 88,
                    "time": 251.54999999999345,
                    "velocity": 0.6771653543307087,
                    "duration": 0.07708333333332007
                },
                {
                    "name": "A3",
                    "midi": 57,
                    "time": 251.54999999999345,
                    "velocity": 0.5984251968503937,
                    "duration": 0.1354166666666572
                },
                {
                    "name": "G6",
                    "midi": 91,
                    "time": 251.6979166666601,
                    "velocity": 0.6929133858267716,
                    "duration": 0.06458333333333144
                },
                {
                    "name": "G3",
                    "midi": 55,
                    "time": 251.69999999999342,
                    "velocity": 0.5590551181102362,
                    "duration": 0.2041666666666515
                },
                {
                    "name": "C4",
                    "midi": 60,
                    "time": 251.87083333332674,
                    "velocity": 0.7559055118110236,
                    "duration": 0.15625
                },
                {
                    "name": "E4",
                    "midi": 64,
                    "time": 251.8812499999934,
                    "velocity": 0.7401574803149606,
                    "duration": 0.17291666666667993
                },
                {
                    "name": "G5",
                    "midi": 79,
                    "time": 252.0687499999934,
                    "velocity": 0.7952755905511811,
                    "duration": 0.06874999999999432
                },
                {
                    "name": "G6",
                    "midi": 91,
                    "time": 252.07291666666006,
                    "velocity": 0.7716535433070866,
                    "duration": 0.08333333333331439
                },
                {
                    "name": "G3",
                    "midi": 55,
                    "time": 252.13541666666006,
                    "velocity": 0.5984251968503937,
                    "duration": 0.345833333333303
                },
                {
                    "name": "A3",
                    "midi": 57,
                    "time": 252.1374999999934,
                    "velocity": 0.31496062992125984,
                    "duration": 0.06041666666664014
                },
                {
                    "name": "G5",
                    "midi": 79,
                    "time": 252.4395833333267,
                    "velocity": 0.8110236220472441,
                    "duration": 0.06666666666666288
                },
                {
                    "name": "G6",
                    "midi": 91,
                    "time": 252.44374999999337,
                    "velocity": 0.7874015748031497,
                    "duration": 0.08541666666667425
                },
                {
                    "name": "A#3",
                    "midi": 58,
                    "time": 252.4458333333267,
                    "velocity": 0.7244094488188977,
                    "duration": 0.16041666666666288
                },
                {
                    "name": "C4",
                    "midi": 60,
                    "time": 252.46041666666002,
                    "velocity": 0.6220472440944882,
                    "duration": 0.23750000000001137
                },
                {
                    "name": "E4",
                    "midi": 64,
                    "time": 252.4645833333267,
                    "velocity": 0.5984251968503937,
                    "duration": 0.13541666666668561
                },
                {
                    "name": "A3",
                    "midi": 57,
                    "time": 252.60416666666003,
                    "velocity": 0.49606299212598426,
                    "duration": 0.17916666666667425
                },
                {
                    "name": "G3",
                    "midi": 55,
                    "time": 252.72499999999337,
                    "velocity": 0.5354330708661418,
                    "duration": 0.13541666666662877
                },
                {
                    "name": "G6",
                    "midi": 91,
                    "time": 252.82291666666003,
                    "velocity": 0.8582677165354331,
                    "duration": 0.2208333333332746
                },
                {
                    "name": "G5",
                    "midi": 79,
                    "time": 252.82499999999337,
                    "velocity": 0.8503937007874016,
                    "duration": 0.1374999999999602
                },
                {
                    "name": "F4",
                    "midi": 65,
                    "time": 252.8395833333267,
                    "velocity": 0.6692913385826772,
                    "duration": 0.1999999999999602
                },
                {
                    "name": "B3",
                    "midi": 59,
                    "time": 252.84166666666002,
                    "velocity": 0.5354330708661418,
                    "duration": 0.2270833333332689
                },
                {
                    "name": "D4",
                    "midi": 62,
                    "time": 252.84791666666,
                    "velocity": 0.6141732283464567,
                    "duration": 0.21874999999994316
                },
                {
                    "name": "A3",
                    "midi": 57,
                    "time": 253.05208333332664,
                    "velocity": 0.3228346456692913,
                    "duration": 0.14791666666664582
                },
                {
                    "name": "G3",
                    "midi": 55,
                    "time": 253.1562499999933,
                    "velocity": 0.4330708661417323,
                    "duration": 0.24374999999994884
                },
                {
                    "name": "G#6",
                    "midi": 92,
                    "time": 253.21041666665994,
                    "velocity": 0.7480314960629921,
                    "duration": 0.054166666666645824
                },
                {
                    "name": "A5",
                    "midi": 81,
                    "time": 253.22916666665995,
                    "velocity": 0.7952755905511811,
                    "duration": 0.04791666666662309
                },
                {
                    "name": "A6",
                    "midi": 93,
                    "time": 253.24166666665994,
                    "velocity": 0.6535433070866141,
                    "duration": 0.07083333333329733
                },
                {
                    "name": "F4",
                    "midi": 65,
                    "time": 253.39583333332658,
                    "velocity": 0.5354330708661418,
                    "duration": 0.2854166666666629
                },
                {
                    "name": "D4",
                    "midi": 62,
                    "time": 253.3979166666599,
                    "velocity": 0.5039370078740157,
                    "duration": 0.2750000000000057
                },
                {
                    "name": "B3",
                    "midi": 59,
                    "time": 253.39999999999324,
                    "velocity": 0.4094488188976378,
                    "duration": 0.2541666666666629
                },
                {
                    "name": "G6",
                    "midi": 91,
                    "time": 253.4291666666599,
                    "velocity": 0.8031496062992126,
                    "duration": 0.06874999999999432
                },
                {
                    "name": "G5",
                    "midi": 79,
                    "time": 253.4416666666599,
                    "velocity": 0.6456692913385826,
                    "duration": 0.05000000000001137
                },
                {
                    "name": "A3",
                    "midi": 57,
                    "time": 253.58124999999325,
                    "velocity": 0.2992125984251969,
                    "duration": 0.15416666666666856
                },
                {
                    "name": "F6",
                    "midi": 89,
                    "time": 253.60833333332658,
                    "velocity": 0.7637795275590551,
                    "duration": 0.07291666666665719
                },
                {
                    "name": "G3",
                    "midi": 55,
                    "time": 253.68333333332657,
                    "velocity": 0.4015748031496063,
                    "duration": 0.35416666666662877
                },
                {
                    "name": "E6",
                    "midi": 88,
                    "time": 253.7916666666599,
                    "velocity": 0.7401574803149606,
                    "duration": 0.03333333333333144
                },
                {
                    "name": "F4",
                    "midi": 65,
                    "time": 253.9854166666599,
                    "velocity": 0.6929133858267716,
                    "duration": 0.10416666666665719
                },
                {
                    "name": "D6",
                    "midi": 86,
                    "time": 253.98958333332655,
                    "velocity": 0.8740157480314961,
                    "duration": 0.04166666666665719
                },
                {
                    "name": "D4",
                    "midi": 62,
                    "time": 253.99166666665988,
                    "velocity": 0.6535433070866141,
                    "duration": 0.2041666666666515
                },
                {
                    "name": "D5",
                    "midi": 74,
                    "time": 253.99791666665988,
                    "velocity": 0.7637795275590551,
                    "duration": 0.03541666666666288
                },
                {
                    "name": "B3",
                    "midi": 59,
                    "time": 254.00208333332654,
                    "velocity": 0.5984251968503937,
                    "duration": 0.19166666666666288
                },
                {
                    "name": "A3",
                    "midi": 57,
                    "time": 254.13541666665986,
                    "velocity": 0.47244094488188976,
                    "duration": 0.15208333333333712
                },
                {
                    "name": "G3",
                    "midi": 55,
                    "time": 254.2562499999932,
                    "velocity": 0.4015748031496063,
                    "duration": 0.1624999999999659
                },
                {
                    "name": "A#3",
                    "midi": 58,
                    "time": 254.3937499999932,
                    "velocity": 0.6377952755905512,
                    "duration": 0.21875
                },
                {
                    "name": "A#5",
                    "midi": 82,
                    "time": 254.40208333332652,
                    "velocity": 0.8661417322834646,
                    "duration": 0.12916666666666288
                },
                {
                    "name": "E4",
                    "midi": 64,
                    "time": 254.4083333333265,
                    "velocity": 0.5826771653543307,
                    "duration": 0.26875000000001137
                },
                {
                    "name": "A#4",
                    "midi": 70,
                    "time": 254.41249999999317,
                    "velocity": 0.937007874015748,
                    "duration": 0.125
                },
                {
                    "name": "C4",
                    "midi": 60,
                    "time": 254.4145833333265,
                    "velocity": 0.5748031496062992,
                    "duration": 0.2750000000000057
                },
                {
                    "name": "A3",
                    "midi": 57,
                    "time": 254.58958333332652,
                    "velocity": 0.25196850393700787,
                    "duration": 0.26874999999998295
                },
                {
                    "name": "G3",
                    "midi": 55,
                    "time": 254.79791666665983,
                    "velocity": 0.4409448818897638,
                    "duration": 0.24791666666666856
                },
                {
                    "name": "A#4",
                    "midi": 70,
                    "time": 254.9770833333265,
                    "velocity": 0.84251968503937,
                    "duration": 0.19791666666668561
                },
                {
                    "name": "G4",
                    "midi": 67,
                    "time": 254.9770833333265,
                    "velocity": 0.8740157480314961,
                    "duration": 0.1770833333333428
                },
                {
                    "name": "C5",
                    "midi": 72,
                    "time": 254.98124999999317,
                    "velocity": 0.7874015748031497,
                    "duration": 0.21666666666669698
                },
                {
                    "name": "A#3",
                    "midi": 58,
                    "time": 254.98541666665983,
                    "velocity": 0.5196850393700787,
                    "duration": 0.13125000000002274
                },
                {
                    "name": "C4",
                    "midi": 60,
                    "time": 255.00624999999317,
                    "velocity": 0.48031496062992124,
                    "duration": 0.0625
                },
                {
                    "name": "F4",
                    "midi": 65,
                    "time": 255.15208333332652,
                    "velocity": 0.6692913385826772,
                    "duration": 0.0979166666666913
                },
                {
                    "name": "G3",
                    "midi": 55,
                    "time": 255.2812499999932,
                    "velocity": 0.2992125984251969,
                    "duration": 0.06041666666666856
                },
                {
                    "name": "E4",
                    "midi": 64,
                    "time": 255.3291666666599,
                    "velocity": 0.6692913385826772,
                    "duration": 0.05624999999997726
                },
                {
                    "name": "A#3",
                    "midi": 58,
                    "time": 255.53958333332653,
                    "velocity": 0.8267716535433071,
                    "duration": 0.12708333333330302
                },
                {
                    "name": "C4",
                    "midi": 60,
                    "time": 255.53958333332653,
                    "velocity": 0.7952755905511811,
                    "duration": 0.11249999999998295
                },
                {
                    "name": "G3",
                    "midi": 55,
                    "time": 255.5437499999932,
                    "velocity": 0.7716535433070866,
                    "duration": 0.10833333333332007
                },
                {
                    "name": "F3",
                    "midi": 53,
                    "time": 255.64791666665985,
                    "velocity": 0.7559055118110236,
                    "duration": 0.07083333333332575
                },
                {
                    "name": "E3",
                    "midi": 52,
                    "time": 255.76666666665986,
                    "velocity": 0.5984251968503937,
                    "duration": 0.04791666666667993
                },
                {
                    "name": "C3",
                    "midi": 48,
                    "time": 255.92083333332653,
                    "velocity": 0.9212598425196851,
                    "duration": 0.08125000000001137
                },
                {
                    "name": "C2",
                    "midi": 36,
                    "time": 255.9249999999932,
                    "velocity": 0.8582677165354331,
                    "duration": 0.07499999999998863
                },
                {
                    "name": "C4",
                    "midi": 60,
                    "time": 255.94374999999317,
                    "velocity": 0.7952755905511811,
                    "duration": 0.40625000000008527
                },
                {
                    "name": "G3",
                    "midi": 55,
                    "time": 255.94791666665984,
                    "velocity": 0.7086614173228346,
                    "duration": 0.1541666666667254
                },
                {
                    "name": "A#3",
                    "midi": 58,
                    "time": 255.9520833333265,
                    "velocity": 0.6614173228346457,
                    "duration": 0.42083333333343376
                },
                {
                    "name": "F3",
                    "midi": 53,
                    "time": 256.1187499999932,
                    "velocity": 0.5984251968503937,
                    "duration": 0.2104166666667311
                },
                {
                    "name": "C3",
                    "midi": 48,
                    "time": 256.3166666666599,
                    "velocity": 0.8976377952755905,
                    "duration": 0.06666666666671972
                },
                {
                    "name": "E3",
                    "midi": 52,
                    "time": 256.31874999999326,
                    "velocity": 0.6141732283464567,
                    "duration": 0.08333333333337123
                },
                {
                    "name": "C2",
                    "midi": 36,
                    "time": 256.3208333333266,
                    "velocity": 0.8188976377952756,
                    "duration": 0.0625
                },
                {
                    "name": "G3",
                    "midi": 55,
                    "time": 256.4812499999933,
                    "velocity": 0.5590551181102362,
                    "duration": 0.12708333333335986
                },
                {
                    "name": "C4",
                    "midi": 60,
                    "time": 256.49583333332663,
                    "velocity": 0.5118110236220472,
                    "duration": 0.12291666666669698
                },
                {
                    "name": "A#3",
                    "midi": 58,
                    "time": 256.4999999999933,
                    "velocity": 0.5748031496062992,
                    "duration": 0.13541666666668561
                },
                {
                    "name": "C3",
                    "midi": 48,
                    "time": 256.68958333332665,
                    "velocity": 0.8031496062992126,
                    "duration": 0.06875000000002274
                },
                {
                    "name": "C2",
                    "midi": 36,
                    "time": 256.6958333333267,
                    "velocity": 0.8188976377952756,
                    "duration": 0.05833333333333712
                },
                {
                    "name": "F3",
                    "midi": 53,
                    "time": 256.6958333333267,
                    "velocity": 0.6141732283464567,
                    "duration": 0.19791666666662877
                },
                {
                    "name": "A#3",
                    "midi": 58,
                    "time": 256.7145833333267,
                    "velocity": 0.15748031496062992,
                    "duration": 0.22291666666660603
                },
                {
                    "name": "C4",
                    "midi": 60,
                    "time": 256.74166666666,
                    "velocity": 0.08661417322834646,
                    "duration": 0.17708333333325754
                },
                {
                    "name": "E3",
                    "midi": 52,
                    "time": 256.8687499999933,
                    "velocity": 0.3779527559055118,
                    "duration": 0.10208333333332575
                },
                {
                    "name": "C2",
                    "midi": 36,
                    "time": 257.07916666666,
                    "velocity": 0.44881889763779526,
                    "duration": 0.0395833333333826
                },
                {
                    "name": "C3",
                    "midi": 48,
                    "time": 257.07916666666,
                    "velocity": 0.6141732283464567,
                    "duration": 0.04791666666670835
                },
                {
                    "name": "G3",
                    "midi": 55,
                    "time": 257.0895833333267,
                    "velocity": 0.5118110236220472,
                    "duration": 0.10833333333340533
                },
                {
                    "name": "A#3",
                    "midi": 58,
                    "time": 257.09374999999335,
                    "velocity": 0.48031496062992124,
                    "duration": 0.12083333333339397
                },
                {
                    "name": "C4",
                    "midi": 60,
                    "time": 257.10416666666003,
                    "velocity": 0.4094488188976378,
                    "duration": 0.19583333333332575
                },
                {
                    "name": "F3",
                    "midi": 53,
                    "time": 257.16041666666007,
                    "velocity": 0.4330708661417323,
                    "duration": 0.1479166666666174
                },
                {
                    "name": "E3",
                    "midi": 52,
                    "time": 257.2395833333267,
                    "velocity": 0.4645669291338583,
                    "duration": 0.12708333333330302
                },
                {
                    "name": "F2",
                    "midi": 41,
                    "time": 257.37499999999335,
                    "velocity": 0.3858267716535433,
                    "duration": 0.09791666666671972
                },
                {
                    "name": "C3",
                    "midi": 48,
                    "time": 257.44166666666,
                    "velocity": 0.6614173228346457,
                    "duration": 0.05208333333342807
                },
                {
                    "name": "F3",
                    "midi": 53,
                    "time": 257.4458333333267,
                    "velocity": 0.6692913385826772,
                    "duration": 0.03750000000007958
                },
                {
                    "name": "A3",
                    "midi": 57,
                    "time": 257.46041666666,
                    "velocity": 0.6220472440944882,
                    "duration": 0.04375000000010232
                },
                {
                    "name": "C4",
                    "midi": 60,
                    "time": 257.4708333333267,
                    "velocity": 0.6456692913385826,
                    "duration": 0.06041666666675383
                },
                {
                    "name": "A3",
                    "midi": 57,
                    "time": 257.6604166666601,
                    "velocity": 0.36220472440944884,
                    "duration": 0.12500000000005684
                },
                {
                    "name": "C5",
                    "midi": 72,
                    "time": 257.68749999999346,
                    "velocity": 0.6850393700787402,
                    "duration": 0.07708333333334849
                },
                {
                    "name": "C4",
                    "midi": 60,
                    "time": 257.69791666666015,
                    "velocity": 0.29133858267716534,
                    "duration": 0.08125000000001137
                },
                {
                    "name": "F3",
                    "midi": 53,
                    "time": 257.8749999999935,
                    "velocity": 0.3937007874015748,
                    "duration": 0.1166666666666174
                },
                {
                    "name": "C5",
                    "midi": 72,
                    "time": 257.8874999999935,
                    "velocity": 0.6299212598425197,
                    "duration": 0.04374999999998863
                },
                {
                    "name": "A3",
                    "midi": 57,
                    "time": 258.0395833333268,
                    "velocity": 0.4645669291338583,
                    "duration": 0.24374999999997726
                },
                {
                    "name": "C5",
                    "midi": 72,
                    "time": 258.0479166666601,
                    "velocity": 0.7559055118110236,
                    "duration": 0.06666666666666288
                },
                {
                    "name": "C4",
                    "midi": 60,
                    "time": 258.06458333332677,
                    "velocity": 0.3937007874015748,
                    "duration": 0.28125
                },
                {
                    "name": "G3",
                    "midi": 55,
                    "time": 258.2374999999934,
                    "velocity": 0.4094488188976378,
                    "duration": 0.24583333333339397
                },
                {
                    "name": "C5",
                    "midi": 72,
                    "time": 258.24374999999344,
                    "velocity": 0.8110236220472441,
                    "duration": 0.07291666666668561
                },
                {
                    "name": "C5",
                    "midi": 72,
                    "time": 258.4104166666601,
                    "velocity": 0.7637795275590551,
                    "duration": 0.1395833333333485
                },
                {
                    "name": "F3",
                    "midi": 53,
                    "time": 258.41874999999345,
                    "velocity": 0.36220472440944884,
                    "duration": 0.19375000000007958
                },
                {
                    "name": "E5",
                    "midi": 76,
                    "time": 258.5562499999935,
                    "velocity": 0.5826771653543307,
                    "duration": 0.08958333333333712
                },
                {
                    "name": "A3",
                    "midi": 57,
                    "time": 258.58541666666014,
                    "velocity": 0.5118110236220472,
                    "duration": 0.2020833333333485
                },
                {
                    "name": "F5",
                    "midi": 77,
                    "time": 258.59166666666016,
                    "velocity": 0.8346456692913385,
                    "duration": 0.4104166666666629
                },
                {
                    "name": "C4",
                    "midi": 60,
                    "time": 258.5979166666602,
                    "velocity": 0.5748031496062992,
                    "duration": 0.15416666666664014
                },
                {
                    "name": "G3",
                    "midi": 55,
                    "time": 258.7624999999935,
                    "velocity": 0.33858267716535434,
                    "duration": 0.14583333333331439
                },
                {
                    "name": "F3",
                    "midi": 53,
                    "time": 258.8895833333268,
                    "velocity": 0.2992125984251969,
                    "duration": 0.13125000000002274
                },
                {
                    "name": "A3",
                    "midi": 57,
                    "time": 258.9749999999935,
                    "velocity": 0.6614173228346457,
                    "duration": 0.2104166666667311
                },
                {
                    "name": "C4",
                    "midi": 60,
                    "time": 258.97916666666015,
                    "velocity": 0.7322834645669292,
                    "duration": 0.14166666666670835
                },
                {
                    "name": "G3",
                    "midi": 55,
                    "time": 259.10208333332685,
                    "velocity": 0.2755905511811024,
                    "duration": 0.21458333333333712
                },
                {
                    "name": "C5",
                    "midi": 72,
                    "time": 259.2104166666602,
                    "velocity": 0.6929133858267716,
                    "duration": 0.08541666666667425
                },
                {
                    "name": "F3",
                    "midi": 53,
                    "time": 259.28749999999354,
                    "velocity": 0.2677165354330709,
                    "duration": 0.20416666666670835
                },
                {
                    "name": "C5",
                    "midi": 72,
                    "time": 259.3791666666602,
                    "velocity": 0.8582677165354331,
                    "duration": 0.08125000000001137
                },
                {
                    "name": "A3",
                    "midi": 57,
                    "time": 259.4708333333269,
                    "velocity": 0.33858267716535434,
                    "duration": 0.2895833333333826
                },
                {
                    "name": "C4",
                    "midi": 60,
                    "time": 259.4895833333269,
                    "velocity": 0.5433070866141733,
                    "duration": 0.17291666666670835
                },
                {
                    "name": "C5",
                    "midi": 72,
                    "time": 259.5583333333269,
                    "velocity": 0.8976377952755905,
                    "duration": 0.23124999999998863
                },
                {
                    "name": "G3",
                    "midi": 55,
                    "time": 259.69166666666024,
                    "velocity": 0.3700787401574803,
                    "duration": 0.14791666666667425
                },
                {
                    "name": "A4",
                    "midi": 69,
                    "time": 259.76041666666026,
                    "velocity": 0.5905511811023622,
                    "duration": 0.0625
                },
                {
                    "name": "F3",
                    "midi": 53,
                    "time": 259.8312499999936,
                    "velocity": 0.2204724409448819,
                    "duration": 0.1624999999999659
                },
                {
                    "name": "A4",
                    "midi": 69,
                    "time": 259.9333333333269,
                    "velocity": 0.8503937007874016,
                    "duration": 0.21458333333333712
                },
                {
                    "name": "A3",
                    "midi": 57,
                    "time": 260.0020833333269,
                    "velocity": 0.3779527559055118,
                    "duration": 0.24166666666667425
                },
                {
                    "name": "C4",
                    "midi": 60,
                    "time": 260.01458333332687,
                    "velocity": 0.33858267716535434,
                    "duration": 0.13750000000004547
                },
                {
                    "name": "F4",
                    "midi": 65,
                    "time": 260.1354166666602,
                    "velocity": 0.7795275590551181,
                    "duration": 0.0875000000000341
                },
                {
                    "name": "G3",
                    "midi": 55,
                    "time": 260.1749999999936,
                    "velocity": 0.4015748031496063,
                    "duration": 0.15833333333330302
                },
                {
                    "name": "F4",
                    "midi": 65,
                    "time": 260.29374999999357,
                    "velocity": 0.7952755905511811,
                    "duration": 0.0687499999999659
                },
                {
                    "name": "F3",
                    "midi": 53,
                    "time": 260.3291666666602,
                    "velocity": 0.41732283464566927,
                    "duration": 0.04374999999998863
                },
                {
                    "name": "A3",
                    "midi": 57,
                    "time": 260.51874999999353,
                    "velocity": 0.8976377952755905,
                    "duration": 0.9104166666667197
                },
                {
                    "name": "C3",
                    "midi": 48,
                    "time": 260.5229166666602,
                    "velocity": 0.5590551181102362,
                    "duration": 0.41041666666660603
                },
                {
                    "name": "A2",
                    "midi": 45,
                    "time": 260.5354166666602,
                    "velocity": 0.5433070866141733,
                    "duration": 0.283333333333303
                },
                {
                    "name": "G2",
                    "midi": 43,
                    "time": 260.73541666666017,
                    "velocity": 0.5196850393700787,
                    "duration": 0.2645833333333485
                },
                {
                    "name": "F2",
                    "midi": 41,
                    "time": 260.9208333333268,
                    "velocity": 0.5118110236220472,
                    "duration": 0.21458333333339397
                },
                {
                    "name": "C3",
                    "midi": 48,
                    "time": 261.10208333332685,
                    "velocity": 0.7244094488188977,
                    "duration": 0.3354166666667311
                },
                {
                    "name": "A2",
                    "midi": 45,
                    "time": 261.10833333332687,
                    "velocity": 0.7165354330708661,
                    "duration": 0.27291666666667425
                },
                {
                    "name": "G2",
                    "midi": 43,
                    "time": 261.30624999999355,
                    "velocity": 0.7559055118110236,
                    "duration": 0.2437500000000341
                },
                {
                    "name": "C4",
                    "midi": 60,
                    "time": 261.43958333332694,
                    "velocity": 0.8031496062992126,
                    "duration": 0.22291666666671972
                },
                {
                    "name": "F2",
                    "midi": 41,
                    "time": 261.48958333332695,
                    "velocity": 0.5590551181102362,
                    "duration": 0.1958333333333826
                },
                {
                    "name": "A2",
                    "midi": 45,
                    "time": 261.65208333332697,
                    "velocity": 0.6614173228346457,
                    "duration": 0.21666666666664014
                },
                {
                    "name": "C3",
                    "midi": 48,
                    "time": 261.65624999999363,
                    "velocity": 0.6456692913385826,
                    "duration": 0.17500000000001137
                },
                {
                    "name": "F4",
                    "midi": 65,
                    "time": 261.66249999999366,
                    "velocity": 0.84251968503937,
                    "duration": 0.08958333333333712
                },
                {
                    "name": "G2",
                    "midi": 43,
                    "time": 261.814583333327,
                    "velocity": 0.7165354330708661,
                    "duration": 0.08124999999995453
                },
                {
                    "name": "A4",
                    "midi": 69,
                    "time": 261.83124999999364,
                    "velocity": 0.8346456692913385,
                    "duration": 0.11458333333331439
                },
                {
                    "name": "F2",
                    "midi": 41,
                    "time": 261.8479166666603,
                    "velocity": 0.7244094488188977,
                    "duration": 0.04791666666665151
                },
                {
                    "name": "A5",
                    "midi": 81,
                    "time": 262.0479166666603,
                    "velocity": 0.8582677165354331,
                    "duration": 0.9520833333334053
                },
                {
                    "name": "C4",
                    "midi": 60,
                    "time": 262.04999999999364,
                    "velocity": 0.7559055118110236,
                    "duration": 0.4000000000000341
                },
                {
                    "name": "A3",
                    "midi": 57,
                    "time": 262.05624999999367,
                    "velocity": 0.7244094488188977,
                    "duration": 0.2437500000000341
                },
                {
                    "name": "G3",
                    "midi": 55,
                    "time": 262.227083333327,
                    "velocity": 0.5354330708661418,
                    "duration": 0.24583333333333712
                },
                {
                    "name": "F3",
                    "midi": 53,
                    "time": 262.433333333327,
                    "velocity": 0.48031496062992124,
                    "duration": 0.09791666666666288
                },
                {
                    "name": "C4",
                    "midi": 60,
                    "time": 262.62291666666033,
                    "velocity": 0.8188976377952756,
                    "duration": 0.21458333333333712
                },
                {
                    "name": "A3",
                    "midi": 57,
                    "time": 262.6249999999937,
                    "velocity": 0.7952755905511811,
                    "duration": 0.23749999999995453
                },
                {
                    "name": "G3",
                    "midi": 55,
                    "time": 262.820833333327,
                    "velocity": 0.5118110236220472,
                    "duration": 0.22916666666668561
                },
                {
                    "name": "F3",
                    "midi": 53,
                    "time": 262.989583333327,
                    "velocity": 0.4645669291338583,
                    "duration": 0.20208333333340533
                },
                {
                    "name": "A3",
                    "midi": 57,
                    "time": 263.1874999999937,
                    "velocity": 0.5590551181102362,
                    "duration": 0.1583333333334167
                },
                {
                    "name": "C4",
                    "midi": 60,
                    "time": 263.18958333332705,
                    "velocity": 0.5748031496062992,
                    "duration": 0.09166666666669698
                },
                {
                    "name": "G3",
                    "midi": 55,
                    "time": 263.2854166666604,
                    "velocity": 0.44881889763779526,
                    "duration": 0.1020833333333826
                },
                {
                    "name": "C3",
                    "midi": 48,
                    "time": 263.3958333333271,
                    "velocity": 0.7874015748031497,
                    "duration": 0.0708333333333826
                },
                {
                    "name": "C6",
                    "midi": 84,
                    "time": 263.53124999999386,
                    "velocity": 0.8976377952755905,
                    "duration": 0.18958333333335986
                },
                {
                    "name": "E4",
                    "midi": 64,
                    "time": 263.54374999999385,
                    "velocity": 0.8031496062992126,
                    "duration": 0.404166666666697
                },
                {
                    "name": "C4",
                    "midi": 60,
                    "time": 263.5458333333272,
                    "velocity": 0.7874015748031497,
                    "duration": 0.4187500000000455
                },
                {
                    "name": "A#3",
                    "midi": 58,
                    "time": 263.5499999999939,
                    "velocity": 0.7637795275590551,
                    "duration": 0.2770833333333371
                },
                {
                    "name": "A3",
                    "midi": 57,
                    "time": 263.7458333333272,
                    "velocity": 0.47244094488188976,
                    "duration": 0.2125000000000341
                },
                {
                    "name": "E6",
                    "midi": 88,
                    "time": 263.7541666666605,
                    "velocity": 0.7795275590551181,
                    "duration": 0.125
                },
                {
                    "name": "G3",
                    "midi": 55,
                    "time": 263.9124999999939,
                    "velocity": 0.5984251968503937,
                    "duration": 0.22083333333335986
                },
                {
                    "name": "G6",
                    "midi": 91,
                    "time": 263.9312499999939,
                    "velocity": 0.8188976377952756,
                    "duration": 0.03125
                },
                {
                    "name": "G5",
                    "midi": 79,
                    "time": 263.9437499999939,
                    "velocity": 0.4251968503937008,
                    "duration": 0.05208333333337123
                },
                {
                    "name": "A#3",
                    "midi": 58,
                    "time": 264.0979166666606,
                    "velocity": 0.5984251968503937,
                    "duration": 0.2937500000000455
                },
                {
                    "name": "E4",
                    "midi": 64,
                    "time": 264.1041666666606,
                    "velocity": 0.4330708661417323,
                    "duration": 0.33333333333337123
                },
                {
                    "name": "C4",
                    "midi": 60,
                    "time": 264.1166666666606,
                    "velocity": 0.5354330708661418,
                    "duration": 0.3166666666667197
                },
                {
                    "name": "G6",
                    "midi": 91,
                    "time": 264.29583333332727,
                    "velocity": 0.84251968503937,
                    "duration": 0.09375
                },
                {
                    "name": "G5",
                    "midi": 79,
                    "time": 264.29999999999393,
                    "velocity": 0.84251968503937,
                    "duration": 0.06041666666669698
                },
                {
                    "name": "A3",
                    "midi": 57,
                    "time": 264.30833333332725,
                    "velocity": 0.5118110236220472,
                    "duration": 0.19166666666671972
                },
                {
                    "name": "G3",
                    "midi": 55,
                    "time": 264.43958333332733,
                    "velocity": 0.5905511811023622,
                    "duration": 0.24791666666669698
                },
                {
                    "name": "A#3",
                    "midi": 58,
                    "time": 264.6583333333273,
                    "velocity": 0.7244094488188977,
                    "duration": 0.1520833333334508
                },
                {
                    "name": "E4",
                    "midi": 64,
                    "time": 264.662499999994,
                    "velocity": 0.7007874015748031,
                    "duration": 0.17291666666670835
                },
                {
                    "name": "G6",
                    "midi": 91,
                    "time": 264.662499999994,
                    "velocity": 0.8346456692913385,
                    "duration": 0.07500000000004547
                },
                {
                    "name": "G5",
                    "midi": 79,
                    "time": 264.66458333332736,
                    "velocity": 0.8188976377952756,
                    "duration": 0.05000000000001137
                },
                {
                    "name": "C4",
                    "midi": 60,
                    "time": 264.6666666666607,
                    "velocity": 0.6614173228346457,
                    "duration": 0.19583333333332575
                },
                {
                    "name": "A3",
                    "midi": 57,
                    "time": 264.7958333333274,
                    "velocity": 0.6220472440944882,
                    "duration": 0.17500000000001137
                },
                {
                    "name": "G3",
                    "midi": 55,
                    "time": 264.8666666666607,
                    "velocity": 0.6771653543307087,
                    "duration": 0.1895833333334167
                },
                {
                    "name": "B3",
                    "midi": 59,
                    "time": 265.0229166666607,
                    "velocity": 0.7007874015748031,
                    "duration": 0.30416666666678793
                },
                {
                    "name": "D4",
                    "midi": 62,
                    "time": 265.02499999999407,
                    "velocity": 0.7952755905511811,
                    "duration": 0.4208333333334622
                },
                {
                    "name": "G5",
                    "midi": 79,
                    "time": 265.02916666666073,
                    "velocity": 0.9133858267716536,
                    "duration": 0.056250000000034106
                },
                {
                    "name": "G6",
                    "midi": 91,
                    "time": 265.02916666666073,
                    "velocity": 0.8582677165354331,
                    "duration": 0.08958333333339397
                },
                {
                    "name": "F4",
                    "midi": 65,
                    "time": 265.0312499999941,
                    "velocity": 0.8188976377952756,
                    "duration": 0.43958333333347355
                },
                {
                    "name": "A3",
                    "midi": 57,
                    "time": 265.21874999999415,
                    "velocity": 0.4409448818897638,
                    "duration": 0.25416666666677656
                },
                {
                    "name": "A6",
                    "midi": 93,
                    "time": 265.37291666666084,
                    "velocity": 0.84251968503937,
                    "duration": 0.08333333333337123
                },
                {
                    "name": "A5",
                    "midi": 81,
                    "time": 265.3770833333275,
                    "velocity": 0.84251968503937,
                    "duration": 0.05833333333333712
                },
                {
                    "name": "G3",
                    "midi": 55,
                    "time": 265.4083333333275,
                    "velocity": 0.4330708661417323,
                    "duration": 0.2666666666667652
                },
                {
                    "name": "G6",
                    "midi": 91,
                    "time": 265.6458333333276,
                    "velocity": 0.84251968503937,
                    "duration": 0.07499999999998863
                },
                {
                    "name": "G5",
                    "midi": 79,
                    "time": 265.6458333333276,
                    "velocity": 0.8031496062992126,
                    "duration": 0.054166666666674246
                },
                {
                    "name": "F4",
                    "midi": 65,
                    "time": 265.64999999999424,
                    "velocity": 0.6220472440944882,
                    "duration": 0.39375000000001137
                },
                {
                    "name": "D4",
                    "midi": 62,
                    "time": 265.65624999999426,
                    "velocity": 0.5511811023622047,
                    "duration": 0.38749999999998863
                },
                {
                    "name": "B3",
                    "midi": 59,
                    "time": 265.6604166666609,
                    "velocity": 0.5354330708661418,
                    "duration": 0.310416666666697
                },
                {
                    "name": "A3",
                    "midi": 57,
                    "time": 265.8916666666609,
                    "velocity": 0.29133858267716534,
                    "duration": 0.2958333333333485
                },
                {
                    "name": "F6",
                    "midi": 89,
                    "time": 265.89791666666093,
                    "velocity": 0.8346456692913385,
                    "duration": 0.08958333333333712
                },
                {
                    "name": "F5",
                    "midi": 77,
                    "time": 265.8999999999943,
                    "velocity": 0.8031496062992126,
                    "duration": 0.05624999999997726
                },
                {
                    "name": "G3",
                    "midi": 55,
                    "time": 266.1333333333276,
                    "velocity": 0.49606299212598426,
                    "duration": 0.23958333333331439
                },
                {
                    "name": "E6",
                    "midi": 88,
                    "time": 266.16666666666094,
                    "velocity": 0.8188976377952756,
                    "duration": 0.07708333333329165
                },
                {
                    "name": "E5",
                    "midi": 76,
                    "time": 266.1708333333276,
                    "velocity": 0.7716535433070866,
                    "duration": 0.06458333333330302
                },
                {
                    "name": "B3",
                    "midi": 59,
                    "time": 266.3541666666609,
                    "velocity": 0.49606299212598426,
                    "duration": 0.23125000000004547
                },
                {
                    "name": "F4",
                    "midi": 65,
                    "time": 266.35833333332755,
                    "velocity": 0.5354330708661418,
                    "duration": 0.11874999999997726
                },
                {
                    "name": "D4",
                    "midi": 62,
                    "time": 266.3666666666609,
                    "velocity": 0.5433070866141733,
                    "duration": 0.20416666666670835
                },
                {
                    "name": "D6",
                    "midi": 86,
                    "time": 266.4479166666609,
                    "velocity": 0.84251968503937,
                    "duration": 0.08958333333333712
                },
                {
                    "name": "D5",
                    "midi": 74,
                    "time": 266.45208333332755,
                    "velocity": 0.7716535433070866,
                    "duration": 0.06041666666669698
                },
                {
                    "name": "A3",
                    "midi": 57,
                    "time": 266.5104166666609,
                    "velocity": 0.3228346456692913,
                    "duration": 0.12291666666669698
                },
                {
                    "name": "C6",
                    "midi": 84,
                    "time": 266.8333333333276,
                    "velocity": 0.8346456692913385,
                    "duration": 0.09583333333335986
                },
                {
                    "name": "E5",
                    "midi": 76,
                    "time": 266.83541666666093,
                    "velocity": 0.7559055118110236,
                    "duration": 0.09791666666666288
                },
                {
                    "name": "C5",
                    "midi": 72,
                    "time": 266.83541666666093,
                    "velocity": 0.7244094488188977,
                    "duration": 0.07083333333332575
                },
                {
                    "name": "C2",
                    "midi": 36,
                    "time": 266.8520833333276,
                    "velocity": 0.6456692913385826,
                    "duration": 0.09791666666666288
                },
                {
                    "name": "G5",
                    "midi": 79,
                    "time": 266.85624999999425,
                    "velocity": 0.49606299212598426,
                    "duration": 0.10000000000002274
                },
                {
                    "name": "C3",
                    "midi": 48,
                    "time": 266.86249999999427,
                    "velocity": 0.6850393700787402,
                    "duration": 0.13125000000002274
                },
                {
                    "name": "D#3",
                    "midi": 51,
                    "time": 267.2187499999943,
                    "velocity": 0.9448818897637795,
                    "duration": 0.05833333333333712
                },
                {
                    "name": "E3",
                    "midi": 52,
                    "time": 267.32916666666097,
                    "velocity": 0.3700787401574803,
                    "duration": 0.07916666666665151
                },
                {
                    "name": "G3",
                    "midi": 55,
                    "time": 267.38333333332764,
                    "velocity": 0.6614173228346457,
                    "duration": 0.10833333333334849
                },
                {
                    "name": "C4",
                    "midi": 60,
                    "time": 267.45416666666097,
                    "velocity": 0.7086614173228346,
                    "duration": 0.09583333333335986
                },
                {
                    "name": "E4",
                    "midi": 64,
                    "time": 267.49374999999435,
                    "velocity": 0.6929133858267716,
                    "duration": 0.125
                },
                {
                    "name": "F#3",
                    "midi": 54,
                    "time": 267.57708333332766,
                    "velocity": 0.968503937007874,
                    "duration": 0.06041666666669698
                },
                {
                    "name": "G3",
                    "midi": 55,
                    "time": 267.6458333333277,
                    "velocity": 0.6692913385826772,
                    "duration": 0.08749999999997726
                },
                {
                    "name": "C4",
                    "midi": 60,
                    "time": 267.735416666661,
                    "velocity": 0.7637795275590551,
                    "duration": 0.0999999999999659
                },
                {
                    "name": "E4",
                    "midi": 64,
                    "time": 267.791666666661,
                    "velocity": 0.6062992125984252,
                    "duration": 0.09166666666664014
                },
                {
                    "name": "G4",
                    "midi": 67,
                    "time": 267.822916666661,
                    "velocity": 0.6929133858267716,
                    "duration": 0.09791666666666288
                },
                {
                    "name": "B3",
                    "midi": 59,
                    "time": 267.929166666661,
                    "velocity": 0.889763779527559,
                    "duration": 0.0625
                },
                {
                    "name": "C4",
                    "midi": 60,
                    "time": 267.991666666661,
                    "velocity": 0.6141732283464567,
                    "duration": 0.07916666666665151
                },
                {
                    "name": "E4",
                    "midi": 64,
                    "time": 268.072916666661,
                    "velocity": 0.7795275590551181,
                    "duration": 0.10833333333329165
                },
                {
                    "name": "G4",
                    "midi": 67,
                    "time": 268.160416666661,
                    "velocity": 0.6614173228346457,
                    "duration": 0.09583333333330302
                },
                {
                    "name": "C5",
                    "midi": 72,
                    "time": 268.19791666666094,
                    "velocity": 0.6850393700787402,
                    "duration": 0.12708333333335986
                },
                {
                    "name": "D#4",
                    "midi": 63,
                    "time": 268.2937499999943,
                    "velocity": 0.9291338582677166,
                    "duration": 0.0625
                },
                {
                    "name": "E4",
                    "midi": 64,
                    "time": 268.36041666666097,
                    "velocity": 0.6299212598425197,
                    "duration": 0.07708333333334849
                },
                {
                    "name": "G4",
                    "midi": 67,
                    "time": 268.429166666661,
                    "velocity": 0.8031496062992126,
                    "duration": 0.09583333333330302
                },
                {
                    "name": "C5",
                    "midi": 72,
                    "time": 268.49791666666096,
                    "velocity": 0.6850393700787402,
                    "duration": 0.11250000000001137
                },
                {
                    "name": "E5",
                    "midi": 76,
                    "time": 268.5687499999943,
                    "velocity": 0.6377952755905512,
                    "duration": 0.11458333333337123
                },
                {
                    "name": "F#4",
                    "midi": 66,
                    "time": 268.647916666661,
                    "velocity": 0.937007874015748,
                    "duration": 0.07499999999998863
                },
                {
                    "name": "G4",
                    "midi": 67,
                    "time": 268.7062499999943,
                    "velocity": 0.6614173228346457,
                    "duration": 0.09583333333330302
                },
                {
                    "name": "C5",
                    "midi": 72,
                    "time": 268.7812499999943,
                    "velocity": 0.7952755905511811,
                    "duration": 0.11249999999995453
                },
                {
                    "name": "E5",
                    "midi": 76,
                    "time": 268.8458333333276,
                    "velocity": 0.5433070866141733,
                    "duration": 0.10416666666668561
                },
                {
                    "name": "G5",
                    "midi": 79,
                    "time": 268.9083333333276,
                    "velocity": 0.6220472440944882,
                    "duration": 0.09375000000005684
                },
                {
                    "name": "B4",
                    "midi": 71,
                    "time": 268.99583333332765,
                    "velocity": 0.8976377952755905,
                    "duration": 0.07291666666668561
                },
                {
                    "name": "C5",
                    "midi": 72,
                    "time": 269.05833333332765,
                    "velocity": 0.6771653543307087,
                    "duration": 0.10208333333332575
                },
                {
                    "name": "E5",
                    "midi": 76,
                    "time": 269.135416666661,
                    "velocity": 0.7716535433070866,
                    "duration": 0.09791666666666288
                },
                {
                    "name": "G5",
                    "midi": 79,
                    "time": 269.197916666661,
                    "velocity": 0.7086614173228346,
                    "duration": 0.08958333333333712
                },
                {
                    "name": "C6",
                    "midi": 84,
                    "time": 269.2708333333277,
                    "velocity": 0.6062992125984252,
                    "duration": 0.12708333333330302
                },
                {
                    "name": "D#5",
                    "midi": 75,
                    "time": 269.3458333333277,
                    "velocity": 0.952755905511811,
                    "duration": 0.05624999999997726
                },
                {
                    "name": "E5",
                    "midi": 76,
                    "time": 269.41249999999434,
                    "velocity": 0.5354330708661418,
                    "duration": 0.09583333333330302
                },
                {
                    "name": "G5",
                    "midi": 79,
                    "time": 269.479166666661,
                    "velocity": 0.7244094488188977,
                    "duration": 0.10416666666668561
                },
                {
                    "name": "C6",
                    "midi": 84,
                    "time": 269.54583333332766,
                    "velocity": 0.6220472440944882,
                    "duration": 0.09583333333335986
                },
                {
                    "name": "E6",
                    "midi": 88,
                    "time": 269.5958333333277,
                    "velocity": 0.7165354330708661,
                    "duration": 0.05208333333337123
                },
                {
                    "name": "A#1",
                    "midi": 34,
                    "time": 269.8458333333277,
                    "velocity": 0.7165354330708661,
                    "duration": 0.08541666666673109
                },
                {
                    "name": "A#2",
                    "midi": 46,
                    "time": 269.9145833333277,
                    "velocity": 0.6929133858267716,
                    "duration": 0.05416666666673109
                },
                {
                    "name": "D4",
                    "midi": 62,
                    "time": 270.0104166666611,
                    "velocity": 0.5905511811023622,
                    "duration": 0.09375
                },
                {
                    "name": "G#4",
                    "midi": 68,
                    "time": 270.08124999999444,
                    "velocity": 0.6141732283464567,
                    "duration": 0.1020833333333826
                },
                {
                    "name": "C5",
                    "midi": 72,
                    "time": 270.14999999999446,
                    "velocity": 0.7322834645669292,
                    "duration": 0.08541666666667425
                },
                {
                    "name": "E5",
                    "midi": 76,
                    "time": 270.1958333333278,
                    "velocity": 0.7559055118110236,
                    "duration": 0.052083333333314386
                },
                {
                    "name": "A#3",
                    "midi": 58,
                    "time": 270.2187499999945,
                    "velocity": 0.5590551181102362,
                    "duration": 1.506249999999966
                },
                {
                    "name": "F3",
                    "midi": 53,
                    "time": 270.2312499999945,
                    "velocity": 0.5590551181102362,
                    "duration": 1.4729166666666629
                },
                {
                    "name": "A#5",
                    "midi": 82,
                    "time": 270.46249999999446,
                    "velocity": 0.7637795275590551,
                    "duration": 0.07708333333334849
                },
                {
                    "name": "A#5",
                    "midi": 82,
                    "time": 270.79583333332783,
                    "velocity": 0.7637795275590551,
                    "duration": 0.08125000000001137
                },
                {
                    "name": "A#5",
                    "midi": 82,
                    "time": 270.9937499999945,
                    "velocity": 0.7716535433070866,
                    "duration": 0.09583333333330302
                },
                {
                    "name": "A5",
                    "midi": 81,
                    "time": 271.06458333332785,
                    "velocity": 0.47244094488188976,
                    "duration": 0.1312499999999659
                },
                {
                    "name": "G#5",
                    "midi": 80,
                    "time": 271.1562499999945,
                    "velocity": 0.7952755905511811,
                    "duration": 0.07916666666665151
                },
                {
                    "name": "G#5",
                    "midi": 80,
                    "time": 271.36874999999446,
                    "velocity": 0.8267716535433071,
                    "duration": 0.06875000000002274
                },
                {
                    "name": "G#5",
                    "midi": 80,
                    "time": 271.5520833333278,
                    "velocity": 0.7952755905511811,
                    "duration": 0.06875000000002274
                },
                {
                    "name": "G#5",
                    "midi": 80,
                    "time": 271.7333333333278,
                    "velocity": 0.7952755905511811,
                    "duration": 0.11250000000001137
                },
                {
                    "name": "A5",
                    "midi": 81,
                    "time": 271.81249999999443,
                    "velocity": 0.6771653543307087,
                    "duration": 0.12916666666671972
                },
                {
                    "name": "A#5",
                    "midi": 82,
                    "time": 271.89999999999446,
                    "velocity": 0.7795275590551181,
                    "duration": 0.08541666666667425
                },
                {
                    "name": "A#5",
                    "midi": 82,
                    "time": 272.0916666666611,
                    "velocity": 0.7952755905511811,
                    "duration": 0.07708333333334849
                },
                {
                    "name": "A#5",
                    "midi": 82,
                    "time": 272.27291666666116,
                    "velocity": 0.7716535433070866,
                    "duration": 0.07291666666668561
                },
                {
                    "name": "A#5",
                    "midi": 82,
                    "time": 272.45208333332783,
                    "velocity": 0.7716535433070866,
                    "duration": 0.11874999999997726
                },
                {
                    "name": "C6",
                    "midi": 84,
                    "time": 272.5416666666612,
                    "velocity": 0.6614173228346457,
                    "duration": 0.11041666666665151
                },
                {
                    "name": "C#6",
                    "midi": 85,
                    "time": 272.6145833333278,
                    "velocity": 0.7401574803149606,
                    "duration": 0.10416666666668561
                },
                {
                    "name": "C#6",
                    "midi": 85,
                    "time": 272.8312499999945,
                    "velocity": 0.8346456692913385,
                    "duration": 0.10000000000002274
                },
                {
                    "name": "C#6",
                    "midi": 85,
                    "time": 272.98333333332783,
                    "velocity": 0.7007874015748031,
                    "duration": 0.07083333333332575
                },
                {
                    "name": "A1",
                    "midi": 33,
                    "time": 273.1541666666612,
                    "velocity": 0.2125984251968504,
                    "duration": 0.15000000000009095
                },
                {
                    "name": "C#5",
                    "midi": 73,
                    "time": 273.2479166666612,
                    "velocity": 0.8818897637795275,
                    "duration": 0.05625000000009095
                },
                {
                    "name": "A2",
                    "midi": 45,
                    "time": 273.24999999999454,
                    "velocity": 0.7559055118110236,
                    "duration": 0.08333333333337123
                },
                {
                    "name": "C#6",
                    "midi": 85,
                    "time": 273.2520833333279,
                    "velocity": 0.889763779527559,
                    "duration": 0.08125000000001137
                },
                {
                    "name": "A5",
                    "midi": 81,
                    "time": 273.25624999999457,
                    "velocity": 0.7874015748031497,
                    "duration": 0.06875000000002274
                },
                {
                    "name": "C3",
                    "midi": 48,
                    "time": 273.65208333332794,
                    "velocity": 0.8110236220472441,
                    "duration": 0.04374999999998863
                },
                {
                    "name": "C#3",
                    "midi": 49,
                    "time": 273.7312499999946,
                    "velocity": 0.6929133858267716,
                    "duration": 0.08333333333331439
                },
                {
                    "name": "E3",
                    "midi": 52,
                    "time": 273.7895833333279,
                    "velocity": 0.6062992125984252,
                    "duration": 0.11041666666670835
                },
                {
                    "name": "A3",
                    "midi": 57,
                    "time": 273.84791666666126,
                    "velocity": 0.5275590551181102,
                    "duration": 0.09375000000005684
                },
                {
                    "name": "C#4",
                    "midi": 61,
                    "time": 273.88958333332795,
                    "velocity": 0.7480314960629921,
                    "duration": 0.13541666666668561
                },
                {
                    "name": "D#3",
                    "midi": 51,
                    "time": 273.9979166666613,
                    "velocity": 0.8976377952755905,
                    "duration": 0.06041666666669698
                },
                {
                    "name": "E3",
                    "midi": 52,
                    "time": 274.10416666666134,
                    "velocity": 0.6299212598425197,
                    "duration": 0.09791666666666288
                },
                {
                    "name": "A3",
                    "midi": 57,
                    "time": 274.164583333328,
                    "velocity": 0.6692913385826772,
                    "duration": 0.1187500000000341
                },
                {
                    "name": "C#4",
                    "midi": 61,
                    "time": 274.22916666666134,
                    "velocity": 0.7874015748031497,
                    "duration": 0.1187500000000341
                },
                {
                    "name": "E4",
                    "midi": 64,
                    "time": 274.28958333332804,
                    "velocity": 0.6692913385826772,
                    "duration": 0.11666666666667425
                },
                {
                    "name": "G#3",
                    "midi": 56,
                    "time": 274.3749999999947,
                    "velocity": 0.8503937007874016,
                    "duration": 0.06041666666664014
                },
                {
                    "name": "A3",
                    "midi": 57,
                    "time": 274.458333333328,
                    "velocity": 0.5354330708661418,
                    "duration": 0.10416666666668561
                },
                {
                    "name": "C#4",
                    "midi": 61,
                    "time": 274.52708333332805,
                    "velocity": 0.7952755905511811,
                    "duration": 0.09166666666664014
                },
                {
                    "name": "D#4",
                    "midi": 63,
                    "time": 274.58958333332805,
                    "velocity": 0.41732283464566927,
                    "duration": 0.04166666666662877
                },
                {
                    "name": "E4",
                    "midi": 64,
                    "time": 274.61041666666137,
                    "velocity": 0.7007874015748031,
                    "duration": 0.08749999999997726
                },
                {
                    "name": "A4",
                    "midi": 69,
                    "time": 274.658333333328,
                    "velocity": 0.6535433070866141,
                    "duration": 0.08749999999997726
                },
                {
                    "name": "C4",
                    "midi": 60,
                    "time": 274.7562499999947,
                    "velocity": 0.5511811023622047,
                    "duration": 0.03333333333335986
                },
                {
                    "name": "D4",
                    "midi": 62,
                    "time": 274.7624999999947,
                    "velocity": 0.5905511811023622,
                    "duration": 0.04374999999998863
                },
                {
                    "name": "C#4",
                    "midi": 61,
                    "time": 274.8166666666614,
                    "velocity": 0.6456692913385826,
                    "duration": 0.09375
                },
                {
                    "name": "E4",
                    "midi": 64,
                    "time": 274.90208333332805,
                    "velocity": 0.6062992125984252,
                    "duration": 0.10416666666668561
                },
                {
                    "name": "A4",
                    "midi": 69,
                    "time": 274.97499999999474,
                    "velocity": 0.5984251968503937,
                    "duration": 0.10208333333332575
                },
                {
                    "name": "C#5",
                    "midi": 73,
                    "time": 275.0312499999947,
                    "velocity": 0.6929133858267716,
                    "duration": 0.09583333333335986
                },
                {
                    "name": "D#4",
                    "midi": 63,
                    "time": 275.12083333332805,
                    "velocity": 0.8582677165354331,
                    "duration": 0.04791666666670835
                },
                {
                    "name": "E4",
                    "midi": 64,
                    "time": 275.2062499999948,
                    "velocity": 0.6141732283464567,
                    "duration": 0.10208333333332575
                },
                {
                    "name": "A4",
                    "midi": 69,
                    "time": 275.2770833333281,
                    "velocity": 0.5984251968503937,
                    "duration": 0.11041666666665151
                },
                {
                    "name": "C#5",
                    "midi": 73,
                    "time": 275.33541666666144,
                    "velocity": 0.7874015748031497,
                    "duration": 0.11458333333331439
                },
                {
                    "name": "E5",
                    "midi": 76,
                    "time": 275.39999999999475,
                    "velocity": 0.7165354330708661,
                    "duration": 0.1020833333333826
                },
                {
                    "name": "G#4",
                    "midi": 68,
                    "time": 275.4645833333281,
                    "velocity": 0.889763779527559,
                    "duration": 0.06666666666666288
                },
                {
                    "name": "A4",
                    "midi": 69,
                    "time": 275.55416666666144,
                    "velocity": 0.7244094488188977,
                    "duration": 0.0875000000000341
                },
                {
                    "name": "C#5",
                    "midi": 73,
                    "time": 275.62291666666147,
                    "velocity": 0.8110236220472441,
                    "duration": 0.0625
                },
                {
                    "name": "E5",
                    "midi": 76,
                    "time": 275.6874999999948,
                    "velocity": 0.7559055118110236,
                    "duration": 0.07499999999998863
                },
                {
                    "name": "A5",
                    "midi": 81,
                    "time": 275.7437499999948,
                    "velocity": 0.5748031496062992,
                    "duration": 0.09375
                },
                {
                    "name": "C5",
                    "midi": 72,
                    "time": 275.8187499999948,
                    "velocity": 0.9133858267716536,
                    "duration": 0.06666666666666288
                },
                {
                    "name": "C#5",
                    "midi": 73,
                    "time": 275.8916666666615,
                    "velocity": 0.6850393700787402,
                    "duration": 0.10833333333329165
                },
                {
                    "name": "E5",
                    "midi": 76,
                    "time": 275.97083333332813,
                    "velocity": 0.6692913385826772,
                    "duration": 0.12291666666664014
                },
                {
                    "name": "A5",
                    "midi": 81,
                    "time": 276.05624999999475,
                    "velocity": 0.6377952755905512,
                    "duration": 0.12708333333335986
                },
                {
                    "name": "C#6",
                    "midi": 85,
                    "time": 276.12499999999477,
                    "velocity": 0.7716535433070866,
                    "duration": 0.07291666666668561
                },
                {
                    "name": "G1",
                    "midi": 31,
                    "time": 276.3458333333282,
                    "velocity": 0.7716535433070866,
                    "duration": 0.07499999999998863
                },
                {
                    "name": "G2",
                    "midi": 43,
                    "time": 276.4166666666615,
                    "velocity": 0.7874015748031497,
                    "duration": 0.06250000000005684
                },
                {
                    "name": "F4",
                    "midi": 65,
                    "time": 276.5624999999949,
                    "velocity": 0.6299212598425197,
                    "duration": 0.10000000000002274
                },
                {
                    "name": "A4",
                    "midi": 69,
                    "time": 276.5999999999949,
                    "velocity": 0.5984251968503937,
                    "duration": 0.11041666666670835
                },
                {
                    "name": "C#5",
                    "midi": 73,
                    "time": 276.66874999999493,
                    "velocity": 0.84251968503937,
                    "duration": 0.08541666666673109
                },
                {
                    "name": "D3",
                    "midi": 50,
                    "time": 276.7291666666616,
                    "velocity": 0.5905511811023622,
                    "duration": 2.7083333333333144
                },
                {
                    "name": "B3",
                    "midi": 59,
                    "time": 276.73541666666165,
                    "velocity": 0.6062992125984252,
                    "duration": 2.6749999999999545
                },
                {
                    "name": "G5",
                    "midi": 79,
                    "time": 276.9895833333283,
                    "velocity": 0.7795275590551181,
                    "duration": 0.08749999999997726
                },
                {
                    "name": "G5",
                    "midi": 79,
                    "time": 277.16249999999496,
                    "velocity": 0.7401574803149606,
                    "duration": 0.08749999999997726
                },
                {
                    "name": "G5",
                    "midi": 79,
                    "time": 277.3374999999949,
                    "velocity": 0.7795275590551181,
                    "duration": 0.07916666666665151
                },
                {
                    "name": "G5",
                    "midi": 79,
                    "time": 277.51458333332823,
                    "velocity": 0.6692913385826772,
                    "duration": 0.12708333333335986
                },
                {
                    "name": "F#5",
                    "midi": 78,
                    "time": 277.6229166666616,
                    "velocity": 0.6771653543307087,
                    "duration": 0.11041666666670835
                },
                {
                    "name": "F5",
                    "midi": 77,
                    "time": 277.7229166666616,
                    "velocity": 0.5196850393700787,
                    "duration": 0.08958333333333712
                },
                {
                    "name": "F5",
                    "midi": 77,
                    "time": 277.92708333332826,
                    "velocity": 0.7007874015748031,
                    "duration": 0.08541666666667425
                },
                {
                    "name": "F5",
                    "midi": 77,
                    "time": 278.1166666666616,
                    "velocity": 0.7086614173228346,
                    "duration": 0.07708333333334849
                },
                {
                    "name": "F5",
                    "midi": 77,
                    "time": 278.3041666666616,
                    "velocity": 0.7086614173228346,
                    "duration": 0.10208333333332575
                },
                {
                    "name": "F#5",
                    "midi": 78,
                    "time": 278.3770833333283,
                    "velocity": 0.7716535433070866,
                    "duration": 0.11249999999995453
                },
                {
                    "name": "G5",
                    "midi": 79,
                    "time": 278.46874999999494,
                    "velocity": 0.7637795275590551,
                    "duration": 0.09375
                },
                {
                    "name": "G5",
                    "midi": 79,
                    "time": 278.7020833333283,
                    "velocity": 0.7716535433070866,
                    "duration": 0.07708333333334849
                },
                {
                    "name": "G5",
                    "midi": 79,
                    "time": 278.8979166666616,
                    "velocity": 0.6771653543307087,
                    "duration": 0.054166666666674246
                },
                {
                    "name": "G5",
                    "midi": 79,
                    "time": 279.1208333333283,
                    "velocity": 0.7795275590551181,
                    "duration": 0.09166666666664014
                },
                {
                    "name": "A5",
                    "midi": 81,
                    "time": 279.19999999999493,
                    "velocity": 0.6377952755905512,
                    "duration": 0.11874999999997726
                },
                {
                    "name": "A#5",
                    "midi": 82,
                    "time": 279.2999999999949,
                    "velocity": 0.8188976377952756,
                    "duration": 0.0875000000000341
                },
                {
                    "name": "A#5",
                    "midi": 82,
                    "time": 279.5895833333283,
                    "velocity": 0.8110236220472441,
                    "duration": 0.25416666666660603
                },
                {
                    "name": "A#5",
                    "midi": 82,
                    "time": 279.91041666666155,
                    "velocity": 0.84251968503937,
                    "duration": 0.07916666666670835
                },
                {
                    "name": "G2",
                    "midi": 43,
                    "time": 279.91666666666157,
                    "velocity": 0.5433070866141733,
                    "duration": 0.14583333333337123
                },
                {
                    "name": "D3",
                    "midi": 50,
                    "time": 280.0729166666616,
                    "velocity": 0.44881889763779526,
                    "duration": 3.9812500000000455
                },
                {
                    "name": "B3",
                    "midi": 59,
                    "time": 280.2520833333283,
                    "velocity": 0.2125984251968504,
                    "duration": 3.8020833333333712
                },
                {
                    "name": "F4",
                    "midi": 65,
                    "time": 280.2729166666616,
                    "velocity": 0.2677165354330709,
                    "duration": 0.0854166666666174
                },
                {
                    "name": "A4",
                    "midi": 69,
                    "time": 280.30208333332826,
                    "velocity": 0.6299212598425197,
                    "duration": 0.08124999999995453
                },
                {
                    "name": "D5",
                    "midi": 74,
                    "time": 280.33333333332826,
                    "velocity": 0.7874015748031497,
                    "duration": 0.08124999999995453
                },
                {
                    "name": "B5",
                    "midi": 83,
                    "time": 280.76458333332823,
                    "velocity": 0.8818897637795275,
                    "duration": 0.4583333333333144
                },
                {
                    "name": "G5",
                    "midi": 79,
                    "time": 281.1937499999949,
                    "velocity": 0.8188976377952756,
                    "duration": 0.29583333333329165
                },
                {
                    "name": "E5",
                    "midi": 76,
                    "time": 281.47291666666155,
                    "velocity": 0.8188976377952756,
                    "duration": 0.0999999999999659
                },
                {
                    "name": "G5",
                    "midi": 79,
                    "time": 281.6979166666615,
                    "velocity": 0.6456692913385826,
                    "duration": 0.13541666666668561
                },
                {
                    "name": "F5",
                    "midi": 77,
                    "time": 281.7312499999949,
                    "velocity": 0.7322834645669292,
                    "duration": 0.3375000000000341
                },
                {
                    "name": "E5",
                    "midi": 76,
                    "time": 281.9687499999949,
                    "velocity": 0.7086614173228346,
                    "duration": 0.29374999999998863
                },
                {
                    "name": "D5",
                    "midi": 74,
                    "time": 282.2187499999949,
                    "velocity": 0.7244094488188977,
                    "duration": 0.30624999999997726
                },
                {
                    "name": "A#4",
                    "midi": 70,
                    "time": 282.5124999999949,
                    "velocity": 0.7322834645669292,
                    "duration": 0.2645833333333485
                },
                {
                    "name": "B4",
                    "midi": 71,
                    "time": 282.82708333332823,
                    "velocity": 0.7559055118110236,
                    "duration": 0.36666666666667425
                },
                {
                    "name": "D5",
                    "midi": 74,
                    "time": 283.1624999999949,
                    "velocity": 0.6062992125984252,
                    "duration": 0.39583333333337123
                },
                {
                    "name": "B4",
                    "midi": 71,
                    "time": 283.5166666666616,
                    "velocity": 0.5826771653543307,
                    "duration": 0.31875000000002274
                },
                {
                    "name": "G4",
                    "midi": 67,
                    "time": 283.9520833333283,
                    "velocity": 0.6850393700787402,
                    "duration": 0.10000000000002274
                },
                {
                    "name": "G2",
                    "midi": 43,
                    "time": 285.131249999995,
                    "velocity": 0.952755905511811,
                    "duration": 0.1708333333333485
                },
                {
                    "name": "G4",
                    "midi": 67,
                    "time": 285.1333333333284,
                    "velocity": 0.952755905511811,
                    "duration": 0.19791666666662877
                },
                {
                    "name": "F4",
                    "midi": 65,
                    "time": 285.23749999999507,
                    "velocity": 0.8346456692913385,
                    "duration": 0.1958333333332689
                },
                {
                    "name": "F2",
                    "midi": 41,
                    "time": 285.2583333333284,
                    "velocity": 0.84251968503937,
                    "duration": 0.15416666666664014
                },
                {
                    "name": "E4",
                    "midi": 64,
                    "time": 285.3666666666617,
                    "velocity": 0.8346456692913385,
                    "duration": 0.14583333333337123
                },
                {
                    "name": "E2",
                    "midi": 40,
                    "time": 285.3666666666617,
                    "velocity": 0.7952755905511811,
                    "duration": 0.14166666666670835
                },
                {
                    "name": "D2",
                    "midi": 38,
                    "time": 285.456249999995,
                    "velocity": 0.7559055118110236,
                    "duration": 0.18541666666675383
                },
                {
                    "name": "D4",
                    "midi": 62,
                    "time": 285.45833333332837,
                    "velocity": 0.7716535433070866,
                    "duration": 0.1500000000000341
                },
                {
                    "name": "C4",
                    "midi": 60,
                    "time": 285.65208333332845,
                    "velocity": 0.8976377952755905,
                    "duration": 0.07708333333329165
                },
                {
                    "name": "C2",
                    "midi": 36,
                    "time": 285.6604166666618,
                    "velocity": 0.7795275590551181,
                    "duration": 0.08124999999995453
                },
                {
                    "name": "C3",
                    "midi": 48,
                    "time": 285.67291666666176,
                    "velocity": 0.9606299212598425,
                    "duration": 0.09375
                },
                {
                    "name": "G5",
                    "midi": 79,
                    "time": 286.04166666666174,
                    "velocity": 0.8110236220472441,
                    "duration": 0.21666666666664014
                },
                {
                    "name": "G3",
                    "midi": 55,
                    "time": 286.0458333333284,
                    "velocity": 0.7874015748031497,
                    "duration": 0.3645833333334849
                },
                {
                    "name": "C6",
                    "midi": 84,
                    "time": 286.0458333333284,
                    "velocity": 0.8582677165354331,
                    "duration": 0.16666666666662877
                },
                {
                    "name": "C5",
                    "midi": 72,
                    "time": 286.04999999999507,
                    "velocity": 0.8503937007874016,
                    "duration": 0.13749999999998863
                },
                {
                    "name": "E4",
                    "midi": 64,
                    "time": 286.3145833333284,
                    "velocity": 0.952755905511811,
                    "duration": 0.06250000000011369
                },
                {
                    "name": "C4",
                    "midi": 60,
                    "time": 286.3166666666618,
                    "velocity": 0.9291338582677166,
                    "duration": 0.06250000000011369
                },
                {
                    "name": "C6",
                    "midi": 84,
                    "time": 286.3229166666618,
                    "velocity": 0.9212598425196851,
                    "duration": 0.13541666666674246
                },
                {
                    "name": "C5",
                    "midi": 72,
                    "time": 286.32499999999516,
                    "velocity": 0.9448818897637795,
                    "duration": 0.08541666666673109
                },
                {
                    "name": "G5",
                    "midi": 79,
                    "time": 286.32499999999516,
                    "velocity": 0.8503937007874016,
                    "duration": 0.1500000000000341
                },
                {
                    "name": "C5",
                    "midi": 72,
                    "time": 286.5374999999952,
                    "velocity": 0.8503937007874016,
                    "duration": 0.08749999999997726
                },
                {
                    "name": "G5",
                    "midi": 79,
                    "time": 286.5374999999952,
                    "velocity": 0.7559055118110236,
                    "duration": 0.13333333333332575
                },
                {
                    "name": "C6",
                    "midi": 84,
                    "time": 286.5458333333285,
                    "velocity": 0.7637795275590551,
                    "duration": 0.10624999999998863
                },
                {
                    "name": "G1",
                    "midi": 31,
                    "time": 286.73124999999516,
                    "velocity": 0.7165354330708661,
                    "duration": 0.05208333333342807
                },
                {
                    "name": "G2",
                    "midi": 43,
                    "time": 286.74374999999515,
                    "velocity": 0.8976377952755905,
                    "duration": 0.05833333333345081
                },
                {
                    "name": "G5",
                    "midi": 79,
                    "time": 286.7458333333285,
                    "velocity": 0.84251968503937,
                    "duration": 0.04375000000010232
                },
                {
                    "name": "C6",
                    "midi": 84,
                    "time": 286.74791666666187,
                    "velocity": 0.7952755905511811,
                    "duration": 0.03333333333335986
                },
                {
                    "name": "C5",
                    "midi": 72,
                    "time": 286.7541666666619,
                    "velocity": 0.7874015748031497,
                    "duration": 0.05000000000006821
                },
                {
                    "name": "F2",
                    "midi": 41,
                    "time": 286.7666666666619,
                    "velocity": 0.5905511811023622,
                    "duration": 0.03750000000007958
                },
                {
                    "name": "F3",
                    "midi": 53,
                    "time": 286.9749999999953,
                    "velocity": 0.7086614173228346,
                    "duration": 0.2812500000001137
                },
                {
                    "name": "A#4",
                    "midi": 70,
                    "time": 286.99166666666196,
                    "velocity": 0.8976377952755905,
                    "duration": 0.08125000000001137
                },
                {
                    "name": "A#5",
                    "midi": 82,
                    "time": 286.99166666666196,
                    "velocity": 0.8582677165354331,
                    "duration": 0.10624999999998863
                },
                {
                    "name": "D5",
                    "midi": 74,
                    "time": 287.0312499999953,
                    "velocity": 0.2204724409448819,
                    "duration": 0.07291666666668561
                },
                {
                    "name": "A#5",
                    "midi": 82,
                    "time": 287.185416666662,
                    "velocity": 0.9133858267716536,
                    "duration": 0.10000000000007958
                },
                {
                    "name": "D5",
                    "midi": 74,
                    "time": 287.185416666662,
                    "velocity": 0.889763779527559,
                    "duration": 0.07083333333343944
                },
                {
                    "name": "A#3",
                    "midi": 58,
                    "time": 287.18749999999534,
                    "velocity": 0.9448818897637795,
                    "duration": 0.06041666666675383
                },
                {
                    "name": "D4",
                    "midi": 62,
                    "time": 287.18749999999534,
                    "velocity": 0.9448818897637795,
                    "duration": 0.05208333333337123
                },
                {
                    "name": "A#4",
                    "midi": 70,
                    "time": 287.1895833333287,
                    "velocity": 0.9133858267716536,
                    "duration": 0.05416666666673109
                },
                {
                    "name": "D5",
                    "midi": 74,
                    "time": 287.3854166666621,
                    "velocity": 0.8110236220472441,
                    "duration": 0.0875000000000341
                },
                {
                    "name": "A#5",
                    "midi": 82,
                    "time": 287.38958333332874,
                    "velocity": 0.8346456692913385,
                    "duration": 0.09166666666669698
                },
                {
                    "name": "A#4",
                    "midi": 70,
                    "time": 287.3916666666621,
                    "velocity": 0.7716535433070866,
                    "duration": 0.039583333333325754
                },
                {
                    "name": "C2",
                    "midi": 36,
                    "time": 287.5979166666621,
                    "velocity": 0.7637795275590551,
                    "duration": 0.05416666666673109
                },
                {
                    "name": "A#4",
                    "midi": 70,
                    "time": 287.6166666666621,
                    "velocity": 0.968503937007874,
                    "duration": 0.03541666666671972
                },
                {
                    "name": "C3",
                    "midi": 48,
                    "time": 287.6187499999955,
                    "velocity": 0.9448818897637795,
                    "duration": 0.05833333333333712
                },
                {
                    "name": "D5",
                    "midi": 74,
                    "time": 287.6187499999955,
                    "velocity": 0.889763779527559,
                    "duration": 0.041666666666685614
                },
                {
                    "name": "A#5",
                    "midi": 82,
                    "time": 287.62083333332885,
                    "velocity": 0.9448818897637795,
                    "duration": 0.07499999999998863
                },
                {
                    "name": "C6",
                    "midi": 84,
                    "time": 287.8354166666622,
                    "velocity": 0.8503937007874016,
                    "duration": 0.07291666666668561
                },
                {
                    "name": "G3",
                    "midi": 55,
                    "time": 287.84999999999553,
                    "velocity": 0.6456692913385826,
                    "duration": 0.2770833333334508
                },
                {
                    "name": "E4",
                    "midi": 64,
                    "time": 288.0479166666622,
                    "velocity": 0.9212598425196851,
                    "duration": 0.05625000000009095
                },
                {
                    "name": "C4",
                    "midi": 60,
                    "time": 288.0479166666622,
                    "velocity": 0.9212598425196851,
                    "duration": 0.05416666666673109
                },
                {
                    "name": "C5",
                    "midi": 72,
                    "time": 288.0520833333289,
                    "velocity": 0.9606299212598425,
                    "duration": 0.06041666666675383
                },
                {
                    "name": "G5",
                    "midi": 79,
                    "time": 288.05416666666224,
                    "velocity": 0.9133858267716536,
                    "duration": 0.058333333333393966
                },
                {
                    "name": "C6",
                    "midi": 84,
                    "time": 288.0562499999956,
                    "velocity": 0.9212598425196851,
                    "duration": 0.08333333333337123
                },
                {
                    "name": "G5",
                    "midi": 79,
                    "time": 288.23541666666233,
                    "velocity": 0.8582677165354331,
                    "duration": 0.08958333333333712
                },
                {
                    "name": "C6",
                    "midi": 84,
                    "time": 288.239583333329,
                    "velocity": 0.8031496062992126,
                    "duration": 0.09375
                },
                {
                    "name": "C5",
                    "midi": 72,
                    "time": 288.24374999999566,
                    "velocity": 0.84251968503937,
                    "duration": 0.04374999999998863
                },
                {
                    "name": "G1",
                    "midi": 31,
                    "time": 288.433333333329,
                    "velocity": 0.6850393700787402,
                    "duration": 0.05208333333337123
                },
                {
                    "name": "G2",
                    "midi": 43,
                    "time": 288.452083333329,
                    "velocity": 0.8818897637795275,
                    "duration": 0.056250000000034106
                },
                {
                    "name": "C5",
                    "midi": 72,
                    "time": 288.4562499999957,
                    "velocity": 0.9291338582677166,
                    "duration": 0.03541666666671972
                },
                {
                    "name": "G5",
                    "midi": 79,
                    "time": 288.4562499999957,
                    "velocity": 0.8818897637795275,
                    "duration": 0.06250000000005684
                },
                {
                    "name": "C6",
                    "midi": 84,
                    "time": 288.45833333332905,
                    "velocity": 0.9133858267716536,
                    "duration": 0.06875000000002274
                },
                {
                    "name": "F#3",
                    "midi": 54,
                    "time": 288.6666666666624,
                    "velocity": 0.7716535433070866,
                    "duration": 0.30416666666678793
                },
                {
                    "name": "D#5",
                    "midi": 75,
                    "time": 288.6770833333291,
                    "velocity": 0.905511811023622,
                    "duration": 0.07291666666668561
                },
                {
                    "name": "D#6",
                    "midi": 87,
                    "time": 288.67916666666247,
                    "velocity": 0.8661417322834646,
                    "duration": 0.11250000000001137
                },
                {
                    "name": "D#4",
                    "midi": 63,
                    "time": 288.8854166666625,
                    "velocity": 0.9763779527559056,
                    "duration": 0.056250000000034106
                },
                {
                    "name": "B3",
                    "midi": 59,
                    "time": 288.88958333332914,
                    "velocity": 0.8188976377952756,
                    "duration": 0.06250000000005684
                },
                {
                    "name": "B5",
                    "midi": 83,
                    "time": 288.8916666666625,
                    "velocity": 0.8503937007874016,
                    "duration": 0.1187500000000341
                },
                {
                    "name": "D#5",
                    "midi": 75,
                    "time": 288.89374999999586,
                    "velocity": 1,
                    "duration": 0.05833333333333712
                },
                {
                    "name": "D#6",
                    "midi": 87,
                    "time": 288.89374999999586,
                    "velocity": 0.8976377952755905,
                    "duration": 0.10416666666668561
                },
                {
                    "name": "D#5",
                    "midi": 75,
                    "time": 289.09374999999585,
                    "velocity": 0.8661417322834646,
                    "duration": 0.06041666666664014
                },
                {
                    "name": "D#6",
                    "midi": 87,
                    "time": 289.0979166666625,
                    "velocity": 0.8267716535433071,
                    "duration": 0.10208333333332575
                },
                {
                    "name": "B5",
                    "midi": 83,
                    "time": 289.1020833333292,
                    "velocity": 0.6614173228346457,
                    "duration": 0.13125000000002274
                },
                {
                    "name": "C2",
                    "midi": 36,
                    "time": 289.2895833333292,
                    "velocity": 0.7244094488188977,
                    "duration": 0.05625000000009095
                },
                {
                    "name": "C3",
                    "midi": 48,
                    "time": 289.3166666666625,
                    "velocity": 0.9291338582677166,
                    "duration": 0.058333333333393966
                },
                {
                    "name": "D#5",
                    "midi": 75,
                    "time": 289.3166666666625,
                    "velocity": 1,
                    "duration": 0.05416666666673109
                },
                {
                    "name": "D#6",
                    "midi": 87,
                    "time": 289.3187499999959,
                    "velocity": 0.9291338582677166,
                    "duration": 0.09791666666671972
                },
                {
                    "name": "B5",
                    "midi": 83,
                    "time": 289.32083333332923,
                    "velocity": 0.8188976377952756,
                    "duration": 0.05000000000001137
                },
                {
                    "name": "E6",
                    "midi": 88,
                    "time": 289.5624999999959,
                    "velocity": 0.84251968503937,
                    "duration": 0.06250000000005684
                },
                {
                    "name": "E5",
                    "midi": 76,
                    "time": 289.56666666666257,
                    "velocity": 0.7401574803149606,
                    "duration": 0.056250000000034106
                },
                {
                    "name": "G3",
                    "midi": 55,
                    "time": 289.5729166666626,
                    "velocity": 0.5984251968503937,
                    "duration": 0.2770833333334508
                },
                {
                    "name": "F5",
                    "midi": 77,
                    "time": 289.58958333332924,
                    "velocity": 0.5196850393700787,
                    "duration": 0.05416666666673109
                },
                {
                    "name": "E4",
                    "midi": 64,
                    "time": 289.7770833333293,
                    "velocity": 0.889763779527559,
                    "duration": 0.058333333333393966
                },
                {
                    "name": "C4",
                    "midi": 60,
                    "time": 289.7833333333293,
                    "velocity": 0.84251968503937,
                    "duration": 0.05208333333337123
                },
                {
                    "name": "C6",
                    "midi": 84,
                    "time": 289.7854166666627,
                    "velocity": 0.9448818897637795,
                    "duration": 0.056250000000034106
                },
                {
                    "name": "C5",
                    "midi": 72,
                    "time": 289.78958333332935,
                    "velocity": 0.8976377952755905,
                    "duration": 0.03125
                },
                {
                    "name": "D5",
                    "midi": 74,
                    "time": 289.812499999996,
                    "velocity": 0.5354330708661418,
                    "duration": 0.05208333333337123
                },
                {
                    "name": "A5",
                    "midi": 81,
                    "time": 289.98124999999607,
                    "velocity": 0.8503937007874016,
                    "duration": 0.06666666666666288
                },
                {
                    "name": "A4",
                    "midi": 69,
                    "time": 289.9979166666627,
                    "velocity": 0.47244094488188976,
                    "duration": 0.054166666666674246
                },
                {
                    "name": "B4",
                    "midi": 71,
                    "time": 290.0020833333294,
                    "velocity": 0.47244094488188976,
                    "duration": 0.05208333333337123
                },
                {
                    "name": "D#5",
                    "midi": 75,
                    "time": 290.07083333332946,
                    "velocity": 0.5118110236220472,
                    "duration": 0.037499999999965894
                },
                {
                    "name": "G1",
                    "midi": 31,
                    "time": 290.1541666666628,
                    "velocity": 0.7244094488188977,
                    "duration": 0.06458333333335986
                },
                {
                    "name": "G2",
                    "midi": 43,
                    "time": 290.1812499999961,
                    "velocity": 0.9291338582677166,
                    "duration": 0.0625
                },
                {
                    "name": "A#5",
                    "midi": 82,
                    "time": 290.18749999999613,
                    "velocity": 0.9133858267716536,
                    "duration": 0.12708333333330302
                },
                {
                    "name": "D5",
                    "midi": 74,
                    "time": 290.1895833333295,
                    "velocity": 0.8503937007874016,
                    "duration": 0.0916666666665833
                },
                {
                    "name": "A#4",
                    "midi": 70,
                    "time": 290.1895833333295,
                    "velocity": 0.8976377952755905,
                    "duration": 0.06249999999994316
                },
                {
                    "name": "A5",
                    "midi": 81,
                    "time": 290.4041666666628,
                    "velocity": 0.8740157480314961,
                    "duration": 0.06041666666669698
                },
                {
                    "name": "A4",
                    "midi": 69,
                    "time": 290.41666666666276,
                    "velocity": 0.6614173228346457,
                    "duration": 0.04583333333334849
                },
                {
                    "name": "F3",
                    "midi": 53,
                    "time": 290.4229166666628,
                    "velocity": 0.6614173228346457,
                    "duration": 0.26249999999998863
                },
                {
                    "name": "D4",
                    "midi": 62,
                    "time": 290.61458333332945,
                    "velocity": 0.9133858267716536,
                    "duration": 0.0625
                },
                {
                    "name": "A#3",
                    "midi": 58,
                    "time": 290.61458333332945,
                    "velocity": 0.8976377952755905,
                    "duration": 0.07708333333334849
                },
                {
                    "name": "G5",
                    "midi": 79,
                    "time": 290.6229166666628,
                    "velocity": 0.8031496062992126,
                    "duration": 0.04791666666665151
                },
                {
                    "name": "F#4",
                    "midi": 66,
                    "time": 290.8208333333295,
                    "velocity": 0.8818897637795275,
                    "duration": 0.04583333333334849
                },
                {
                    "name": "D#5",
                    "midi": 75,
                    "time": 290.8229166666629,
                    "velocity": 0.7874015748031497,
                    "duration": 0.09583333333330302
                },
                {
                    "name": "C3",
                    "midi": 48,
                    "time": 291.0499999999962,
                    "velocity": 0.8503937007874016,
                    "duration": 0.7187500000001705
                },
                {
                    "name": "C4",
                    "midi": 60,
                    "time": 291.0562499999962,
                    "velocity": 1,
                    "duration": 0.672916666666822
                },
                {
                    "name": "E5",
                    "midi": 76,
                    "time": 291.07499999999624,
                    "velocity": 0.889763779527559,
                    "duration": 0.14375000000001137
                },
                {
                    "name": "G4",
                    "midi": 67,
                    "time": 291.07499999999624,
                    "velocity": 0.9133858267716536,
                    "duration": 0.06041666666664014
                },
                {
                    "name": "C5",
                    "midi": 72,
                    "time": 291.07499999999624,
                    "velocity": 0.8976377952755905,
                    "duration": 0.07083333333332575
                },
                {
                    "name": "G5",
                    "midi": 79,
                    "time": 291.29374999999624,
                    "velocity": 0.8031496062992126,
                    "duration": 0.10000000000002274
                },
                {
                    "name": "E5",
                    "midi": 76,
                    "time": 291.50833333332963,
                    "velocity": 0.7637795275590551,
                    "duration": 0.07500000000004547
                },
                {
                    "name": "G4",
                    "midi": 67,
                    "time": 291.5124999999963,
                    "velocity": 0.7007874015748031,
                    "duration": 0.058333333333393966
                },
                {
                    "name": "C5",
                    "midi": 72,
                    "time": 291.51458333332965,
                    "velocity": 0.7244094488188977,
                    "duration": 0.04583333333334849
                },
                {
                    "name": "C5",
                    "midi": 72,
                    "time": 291.722916666663,
                    "velocity": 0.9133858267716536,
                    "duration": 0.22916666666674246
                },
                {
                    "name": "E4",
                    "midi": 64,
                    "time": 291.7270833333297,
                    "velocity": 0.8740157480314961,
                    "duration": 0.22291666666671972
                },
                {
                    "name": "G4",
                    "midi": 67,
                    "time": 291.72916666666305,
                    "velocity": 0.8110236220472441,
                    "duration": 0.22916666666674246
                },
                {
                    "name": "A#3",
                    "midi": 58,
                    "time": 291.9333333333297,
                    "velocity": 0.937007874015748,
                    "duration": 0.07708333333340533
                },
                {
                    "name": "A#2",
                    "midi": 46,
                    "time": 291.93541666666306,
                    "velocity": 0.8661417322834646,
                    "duration": 0.09375000000005684
                },
                {
                    "name": "G#3",
                    "midi": 56,
                    "time": 292.0937499999965,
                    "velocity": 0.905511811023622,
                    "duration": 0.1416666666666515
                },
                {
                    "name": "G#2",
                    "midi": 44,
                    "time": 292.1020833333298,
                    "velocity": 0.889763779527559,
                    "duration": 0.1416666666666515
                },
                {
                    "name": "A#4",
                    "midi": 70,
                    "time": 292.2479166666631,
                    "velocity": 0.8582677165354331,
                    "duration": 0.12083333333333712
                },
                {
                    "name": "A#3",
                    "midi": 58,
                    "time": 292.2520833333298,
                    "velocity": 0.8818897637795275,
                    "duration": 0.08541666666667425
                },
                {
                    "name": "G#3",
                    "midi": 56,
                    "time": 292.37916666666314,
                    "velocity": 0.8976377952755905,
                    "duration": 0.11458333333337123
                },
                {
                    "name": "G#2",
                    "midi": 44,
                    "time": 292.3812499999965,
                    "velocity": 0.8503937007874016,
                    "duration": 0.11666666666667425
                },
                {
                    "name": "A#3",
                    "midi": 58,
                    "time": 292.52083333332985,
                    "velocity": 0.937007874015748,
                    "duration": 0.08125000000001137
                },
                {
                    "name": "A#4",
                    "midi": 70,
                    "time": 292.52083333332985,
                    "velocity": 0.905511811023622,
                    "duration": 0.11458333333337123
                },
                {
                    "name": "G#3",
                    "midi": 56,
                    "time": 292.64999999999657,
                    "velocity": 0.9133858267716536,
                    "duration": 0.056250000000034106
                },
                {
                    "name": "G#2",
                    "midi": 44,
                    "time": 292.6520833333299,
                    "velocity": 0.8661417322834646,
                    "duration": 0.09375
                },
                {
                    "name": "C3",
                    "midi": 48,
                    "time": 292.8812499999966,
                    "velocity": 0.9448818897637795,
                    "duration": 0.08125000000001137
                },
                {
                    "name": "C2",
                    "midi": 36,
                    "time": 292.88333333333,
                    "velocity": 0.952755905511811,
                    "duration": 0.0625
                },
                {
                    "name": "G3",
                    "midi": 55,
                    "time": 293.1104166666633,
                    "velocity": 0.8740157480314961,
                    "duration": 0.27916666666692436
                },
                {
                    "name": "C6",
                    "midi": 84,
                    "time": 293.11458333332996,
                    "velocity": 0.8503937007874016,
                    "duration": 0.08958333333345081
                },
                {
                    "name": "G5",
                    "midi": 79,
                    "time": 293.11458333332996,
                    "velocity": 0.6299212598425197,
                    "duration": 0.0791666666667652
                },
                {
                    "name": "C5",
                    "midi": 72,
                    "time": 293.1166666666633,
                    "velocity": 0.8031496062992126,
                    "duration": 0.06041666666669698
                },
                {
                    "name": "E5",
                    "midi": 76,
                    "time": 293.1187499999967,
                    "velocity": 0.6929133858267716,
                    "duration": 0.06875000000002274
                },
                {
                    "name": "C4",
                    "midi": 60,
                    "time": 293.3083333333301,
                    "velocity": 0.9448818897637795,
                    "duration": 0.06250000000005684
                },
                {
                    "name": "E4",
                    "midi": 64,
                    "time": 293.31041666666346,
                    "velocity": 0.9133858267716536,
                    "duration": 0.06041666666669698
                },
                {
                    "name": "E5",
                    "midi": 76,
                    "time": 293.3187499999968,
                    "velocity": 0.8346456692913385,
                    "duration": 0.0645833333334167
                },
                {
                    "name": "G5",
                    "midi": 79,
                    "time": 293.3187499999968,
                    "velocity": 0.7952755905511811,
                    "duration": 0.07500000000010232
                },
                {
                    "name": "C5",
                    "midi": 72,
                    "time": 293.3249999999968,
                    "velocity": 0.7874015748031497,
                    "duration": 0.03750000000002274
                },
                {
                    "name": "C6",
                    "midi": 84,
                    "time": 293.32708333333017,
                    "velocity": 0.8031496062992126,
                    "duration": 0.054166666666674246
                },
                {
                    "name": "G5",
                    "midi": 79,
                    "time": 293.53541666666354,
                    "velocity": 0.6456692913385826,
                    "duration": 0.11874999999997726
                },
                {
                    "name": "E5",
                    "midi": 76,
                    "time": 293.5395833333302,
                    "velocity": 0.6535433070866141,
                    "duration": 0.12291666666664014
                },
                {
                    "name": "C6",
                    "midi": 84,
                    "time": 293.5479166666635,
                    "velocity": 0.5984251968503937,
                    "duration": 0.08958333333333712
                },
                {
                    "name": "C5",
                    "midi": 72,
                    "time": 293.5520833333302,
                    "velocity": 0.44881889763779526,
                    "duration": 0.08333333333331439
                },
                {
                    "name": "G1",
                    "midi": 31,
                    "time": 293.7395833333302,
                    "velocity": 0.84251968503937,
                    "duration": 0.03333333333335986
                },
                {
                    "name": "G5",
                    "midi": 79,
                    "time": 293.74374999999685,
                    "velocity": 0.8031496062992126,
                    "duration": 0.06458333333335986
                },
                {
                    "name": "C6",
                    "midi": 84,
                    "time": 293.74374999999685,
                    "velocity": 0.8582677165354331,
                    "duration": 0.056250000000034106
                },
                {
                    "name": "C5",
                    "midi": 72,
                    "time": 293.74374999999685,
                    "velocity": 0.889763779527559,
                    "duration": 0.04583333333334849
                },
                {
                    "name": "E5",
                    "midi": 76,
                    "time": 293.7458333333302,
                    "velocity": 0.8346456692913385,
                    "duration": 0.06458333333335986
                },
                {
                    "name": "G2",
                    "midi": 43,
                    "time": 293.74791666666357,
                    "velocity": 0.8976377952755905,
                    "duration": 0.05624999999997726
                },
                {
                    "name": "A#5",
                    "midi": 82,
                    "time": 293.9562499999969,
                    "velocity": 0.8976377952755905,
                    "duration": 0.08541666666667425
                },
                {
                    "name": "A#4",
                    "midi": 70,
                    "time": 293.95833333333024,
                    "velocity": 0.937007874015748,
                    "duration": 0.05624999999997726
                },
                {
                    "name": "F3",
                    "midi": 53,
                    "time": 293.9854166666636,
                    "velocity": 0.5905511811023622,
                    "duration": 0.2604166666666856
                },
                {
                    "name": "D5",
                    "midi": 74,
                    "time": 294.1624999999969,
                    "velocity": 0.8346456692913385,
                    "duration": 0.09375000000005684
                },
                {
                    "name": "A#5",
                    "midi": 82,
                    "time": 294.1624999999969,
                    "velocity": 0.9133858267716536,
                    "duration": 0.11041666666670835
                },
                {
                    "name": "A#4",
                    "midi": 70,
                    "time": 294.16458333333026,
                    "velocity": 0.952755905511811,
                    "duration": 0.06458333333335986
                },
                {
                    "name": "D4",
                    "midi": 62,
                    "time": 294.1729166666636,
                    "velocity": 0.952755905511811,
                    "duration": 0.054166666666674246
                },
                {
                    "name": "A#3",
                    "midi": 58,
                    "time": 294.17499999999694,
                    "velocity": 0.9448818897637795,
                    "duration": 0.06666666666666288
                },
                {
                    "name": "G#3",
                    "midi": 56,
                    "time": 294.1999999999969,
                    "velocity": 0.5905511811023622,
                    "duration": 0.03750000000002274
                },
                {
                    "name": "A#4",
                    "midi": 70,
                    "time": 294.37083333333027,
                    "velocity": 0.84251968503937,
                    "duration": 0.041666666666685614
                },
                {
                    "name": "A#5",
                    "midi": 82,
                    "time": 294.3729166666636,
                    "velocity": 0.8503937007874016,
                    "duration": 0.0687499999999659
                },
                {
                    "name": "D5",
                    "midi": 74,
                    "time": 294.387499999997,
                    "velocity": 0.5748031496062992,
                    "duration": 0.04583333333329165
                },
                {
                    "name": "C2",
                    "midi": 36,
                    "time": 294.5770833333303,
                    "velocity": 0.6535433070866141,
                    "duration": 0.06041666666669698
                },
                {
                    "name": "C3",
                    "midi": 48,
                    "time": 294.58749999999696,
                    "velocity": 0.952755905511811,
                    "duration": 0.06458333333335986
                },
                {
                    "name": "A#5",
                    "midi": 82,
                    "time": 294.5916666666636,
                    "velocity": 0.952755905511811,
                    "duration": 0.08333333333337123
                },
                {
                    "name": "A#4",
                    "midi": 70,
                    "time": 294.593749999997,
                    "velocity": 0.984251968503937,
                    "duration": 0.04374999999998863
                },
                {
                    "name": "D5",
                    "midi": 74,
                    "time": 294.59791666666365,
                    "velocity": 0.84251968503937,
                    "duration": 0.03125
                },
                {
                    "name": "C6",
                    "midi": 84,
                    "time": 294.806249999997,
                    "velocity": 0.8503937007874016,
                    "duration": 0.0625
                },
                {
                    "name": "G3",
                    "midi": 55,
                    "time": 294.818749999997,
                    "velocity": 0.6771653543307087,
                    "duration": 0.2791666666667538
                },
                {
                    "name": "C4",
                    "midi": 60,
                    "time": 295.0166666666637,
                    "velocity": 0.9133858267716536,
                    "duration": 0.056250000000034106
                },
                {
                    "name": "E4",
                    "midi": 64,
                    "time": 295.01874999999706,
                    "velocity": 0.889763779527559,
                    "duration": 0.054166666666674246
                },
                {
                    "name": "C5",
                    "midi": 72,
                    "time": 295.0270833333304,
                    "velocity": 0.9606299212598425,
                    "duration": 0.054166666666674246
                },
                {
                    "name": "G5",
                    "midi": 79,
                    "time": 295.0270833333304,
                    "velocity": 0.9291338582677166,
                    "duration": 0.056250000000034106
                },
                {
                    "name": "C6",
                    "midi": 84,
                    "time": 295.0270833333304,
                    "velocity": 0.952755905511811,
                    "duration": 0.06458333333335986
                },
                {
                    "name": "C6",
                    "midi": 84,
                    "time": 295.21666666666374,
                    "velocity": 0.8582677165354331,
                    "duration": 0.06458333333335986
                },
                {
                    "name": "C5",
                    "midi": 72,
                    "time": 295.2208333333304,
                    "velocity": 0.8818897637795275,
                    "duration": 0.056250000000034106
                },
                {
                    "name": "G5",
                    "midi": 79,
                    "time": 295.22291666666376,
                    "velocity": 0.84251968503937,
                    "duration": 0.06458333333335986
                },
                {
                    "name": "G1",
                    "midi": 31,
                    "time": 295.40833333333046,
                    "velocity": 0.7086614173228346,
                    "duration": 0.056250000000034106
                },
                {
                    "name": "G2",
                    "midi": 43,
                    "time": 295.4270833333305,
                    "velocity": 0.952755905511811,
                    "duration": 0.06041666666669698
                },
                {
                    "name": "G5",
                    "midi": 79,
                    "time": 295.43749999999716,
                    "velocity": 0.8976377952755905,
                    "duration": 0.05208333333337123
                },
                {
                    "name": "C5",
                    "midi": 72,
                    "time": 295.43749999999716,
                    "velocity": 0.952755905511811,
                    "duration": 0.03541666666666288
                },
                {
                    "name": "C6",
                    "midi": 84,
                    "time": 295.4395833333305,
                    "velocity": 0.9448818897637795,
                    "duration": 0.05000000000001137
                },
                {
                    "name": "F#3",
                    "midi": 54,
                    "time": 295.6374999999972,
                    "velocity": 0.84251968503937,
                    "duration": 0.3229166666667993
                },
                {
                    "name": "D#6",
                    "midi": 87,
                    "time": 295.6479166666639,
                    "velocity": 0.889763779527559,
                    "duration": 0.10833333333334849
                },
                {
                    "name": "D#5",
                    "midi": 75,
                    "time": 295.65208333333055,
                    "velocity": 0.8818897637795275,
                    "duration": 0.0625
                },
                {
                    "name": "D#4",
                    "midi": 63,
                    "time": 295.8520833333306,
                    "velocity": 0.9763779527559056,
                    "duration": 0.06458333333335986
                },
                {
                    "name": "B3",
                    "midi": 59,
                    "time": 295.85624999999726,
                    "velocity": 0.8031496062992126,
                    "duration": 0.0645833333334167
                },
                {
                    "name": "D#5",
                    "midi": 75,
                    "time": 295.8604166666639,
                    "velocity": 1,
                    "duration": 0.058333333333393966
                },
                {
                    "name": "D#6",
                    "midi": 87,
                    "time": 295.8645833333306,
                    "velocity": 0.905511811023622,
                    "duration": 0.10416666666674246
                },
                {
                    "name": "B5",
                    "midi": 83,
                    "time": 295.8645833333306,
                    "velocity": 0.8031496062992126,
                    "duration": 0.11250000000006821
                },
                {
                    "name": "D#5",
                    "midi": 75,
                    "time": 296.0624999999973,
                    "velocity": 0.889763779527559,
                    "duration": 0.06041666666664014
                },
                {
                    "name": "B5",
                    "midi": 83,
                    "time": 296.066666666664,
                    "velocity": 0.7007874015748031,
                    "duration": 0.11666666666667425
                },
                {
                    "name": "D#6",
                    "midi": 87,
                    "time": 296.07083333333065,
                    "velocity": 0.7480314960629921,
                    "duration": 0.08749999999997726
                },
                {
                    "name": "C2",
                    "midi": 36,
                    "time": 296.260416666664,
                    "velocity": 0.7716535433070866,
                    "duration": 0.05625000000009095
                },
                {
                    "name": "C3",
                    "midi": 48,
                    "time": 296.279166666664,
                    "velocity": 0.9448818897637795,
                    "duration": 0.06041666666675383
                },
                {
                    "name": "D#5",
                    "midi": 75,
                    "time": 296.279166666664,
                    "velocity": 0.984251968503937,
                    "duration": 0.05625000000009095
                },
                {
                    "name": "D#6",
                    "midi": 87,
                    "time": 296.2812499999974,
                    "velocity": 0.8976377952755905,
                    "duration": 0.09791666666677656
                },
                {
                    "name": "B5",
                    "midi": 83,
                    "time": 296.28333333333075,
                    "velocity": 0.8031496062992126,
                    "duration": 0.09375000000005684
                },
                {
                    "name": "E6",
                    "midi": 88,
                    "time": 296.4749999999975,
                    "velocity": 0.8503937007874016,
                    "duration": 0.049999999999954525
                },
                {
                    "name": "E5",
                    "midi": 76,
                    "time": 296.48333333333085,
                    "velocity": 0.6614173228346457,
                    "duration": 0.04166666666662877
                },
                {
                    "name": "G3",
                    "midi": 55,
                    "time": 296.4999999999975,
                    "velocity": 0.7007874015748031,
                    "duration": 0.2854166666666629
                },
                {
                    "name": "C4",
                    "midi": 60,
                    "time": 296.7020833333308,
                    "velocity": 0.889763779527559,
                    "duration": 0.05416666666673109
                },
                {
                    "name": "E4",
                    "midi": 64,
                    "time": 296.7020833333308,
                    "velocity": 0.8503937007874016,
                    "duration": 0.05416666666673109
                },
                {
                    "name": "C6",
                    "midi": 84,
                    "time": 296.70416666666415,
                    "velocity": 0.8976377952755905,
                    "duration": 0.03125
                },
                {
                    "name": "C5",
                    "midi": 72,
                    "time": 296.7083333333308,
                    "velocity": 0.8346456692913385,
                    "duration": 0.03333333333335986
                },
                {
                    "name": "A4",
                    "midi": 69,
                    "time": 296.8999999999975,
                    "velocity": 0.8031496062992126,
                    "duration": 0.04583333333334849
                },
                {
                    "name": "A5",
                    "midi": 81,
                    "time": 296.90208333333084,
                    "velocity": 0.7401574803149606,
                    "duration": 0.0625
                },
                {
                    "name": "C#5",
                    "midi": 73,
                    "time": 297.03333333333086,
                    "velocity": 0.5905511811023622,
                    "duration": 0.03541666666666288
                },
                {
                    "name": "G1",
                    "midi": 31,
                    "time": 297.10624999999754,
                    "velocity": 0.6692913385826772,
                    "duration": 0.05833333333333712
                },
                {
                    "name": "G2",
                    "midi": 43,
                    "time": 297.11874999999753,
                    "velocity": 0.9448818897637795,
                    "duration": 0.0625
                },
                {
                    "name": "A#5",
                    "midi": 82,
                    "time": 297.1229166666642,
                    "velocity": 0.937007874015748,
                    "duration": 0.11666666666667425
                },
                {
                    "name": "A#4",
                    "midi": 70,
                    "time": 297.12499999999756,
                    "velocity": 0.9448818897637795,
                    "duration": 0.07291666666662877
                },
                {
                    "name": "D5",
                    "midi": 74,
                    "time": 297.12499999999756,
                    "velocity": 0.8188976377952756,
                    "duration": 0.12291666666664014
                },
                {
                    "name": "A5",
                    "midi": 81,
                    "time": 297.3229166666642,
                    "velocity": 0.8188976377952756,
                    "duration": 0.041666666666685614
                },
                {
                    "name": "A4",
                    "midi": 69,
                    "time": 297.33333333333087,
                    "velocity": 0.5511811023622047,
                    "duration": 0.05624999999997726
                },
                {
                    "name": "F3",
                    "midi": 53,
                    "time": 297.33749999999753,
                    "velocity": 0.7086614173228346,
                    "duration": 0.279166666666697
                },
                {
                    "name": "A#3",
                    "midi": 58,
                    "time": 297.5437499999975,
                    "velocity": 0.905511811023622,
                    "duration": 0.08125000000006821
                },
                {
                    "name": "D4",
                    "midi": 62,
                    "time": 297.54583333333085,
                    "velocity": 0.8818897637795275,
                    "duration": 0.06458333333335986
                },
                {
                    "name": "G5",
                    "midi": 79,
                    "time": 297.55833333333084,
                    "velocity": 0.4645669291338583,
                    "duration": 0.05416666666673109
                },
                {
                    "name": "F5",
                    "midi": 77,
                    "time": 297.5854166666642,
                    "velocity": 0.2677165354330709,
                    "duration": 0.0395833333333826
                },
                {
                    "name": "D#5",
                    "midi": 75,
                    "time": 297.7583333333309,
                    "velocity": 0.8267716535433071,
                    "duration": 0.15416666666669698
                },
                {
                    "name": "F#4",
                    "midi": 66,
                    "time": 297.7770833333309,
                    "velocity": 0.41732283464566927,
                    "duration": 0.041666666666685614
                },
                {
                    "name": "C3",
                    "midi": 48,
                    "time": 297.96874999999756,
                    "velocity": 0.7716535433070866,
                    "duration": 0.41250000000002274
                },
                {
                    "name": "C4",
                    "midi": 60,
                    "time": 297.9729166666642,
                    "velocity": 0.9763779527559056,
                    "duration": 0.4166666666666856
                },
                {
                    "name": "E5",
                    "midi": 76,
                    "time": 297.9770833333309,
                    "velocity": 0.8503937007874016,
                    "duration": 0.1708333333333485
                },
                {
                    "name": "G4",
                    "midi": 67,
                    "time": 297.98124999999754,
                    "velocity": 0.8346456692913385,
                    "duration": 0.06875000000002274
                },
                {
                    "name": "C5",
                    "midi": 72,
                    "time": 297.9833333333309,
                    "velocity": 0.8031496062992126,
                    "duration": 0.14791666666667425
                },
                {
                    "name": "G5",
                    "midi": 79,
                    "time": 298.1895833333309,
                    "velocity": 0.6850393700787402,
                    "duration": 0.09375
                },
                {
                    "name": "E5",
                    "midi": 76,
                    "time": 298.39166666666426,
                    "velocity": 0.7795275590551181,
                    "duration": 0.08958333333333712
                },
                {
                    "name": "C5",
                    "midi": 72,
                    "time": 298.3999999999976,
                    "velocity": 0.7637795275590551,
                    "duration": 0.05208333333337123
                },
                {
                    "name": "G4",
                    "midi": 67,
                    "time": 298.40416666666425,
                    "velocity": 0.6692913385826772,
                    "duration": 0.04583333333334849
                },
                {
                    "name": "C3",
                    "midi": 48,
                    "time": 298.6249999999976,
                    "velocity": 0.8582677165354331,
                    "duration": 0.10000000000007958
                },
                {
                    "name": "C4",
                    "midi": 60,
                    "time": 298.627083333331,
                    "velocity": 0.952755905511811,
                    "duration": 0.06250000000005684
                },
                {
                    "name": "C5",
                    "midi": 72,
                    "time": 298.62916666666433,
                    "velocity": 0.9606299212598425,
                    "duration": 0.06041666666669698
                },
                {
                    "name": "E4",
                    "midi": 64,
                    "time": 298.633333333331,
                    "velocity": 0.9448818897637795,
                    "duration": 0.04791666666670835
                },
                {
                    "name": "G4",
                    "midi": 67,
                    "time": 298.63541666666436,
                    "velocity": 0.9133858267716536,
                    "duration": 0.04583333333334849
                },
                {
                    "name": "A#2",
                    "midi": 46,
                    "time": 299.0791666666644,
                    "velocity": 0.7559055118110236,
                    "duration": 0.11666666666678793
                },
                {
                    "name": "A#3",
                    "midi": 58,
                    "time": 299.0874999999977,
                    "velocity": 0.952755905511811,
                    "duration": 0.09583333333347355
                },
                {
                    "name": "C6",
                    "midi": 84,
                    "time": 299.0958333333311,
                    "velocity": 0.8976377952755905,
                    "duration": 0.14583333333342807
                },
                {
                    "name": "E5",
                    "midi": 76,
                    "time": 299.09999999999775,
                    "velocity": 0.8031496062992126,
                    "duration": 0.06041666666669698
                },
                {
                    "name": "G5",
                    "midi": 79,
                    "time": 299.1020833333311,
                    "velocity": 0.7637795275590551,
                    "duration": 0.06666666666671972
                },
                {
                    "name": "A2",
                    "midi": 45,
                    "time": 299.32916666666455,
                    "velocity": 0.7716535433070866,
                    "duration": 0.10624999999998863
                },
                {
                    "name": "A3",
                    "midi": 57,
                    "time": 299.3333333333312,
                    "velocity": 0.7244094488188977,
                    "duration": 0.07708333333334849
                },
                {
                    "name": "C6",
                    "midi": 84,
                    "time": 299.3437499999979,
                    "velocity": 0.889763779527559,
                    "duration": 0.12708333333330302
                },
                {
                    "name": "G5",
                    "midi": 79,
                    "time": 299.3499999999979,
                    "velocity": 0.7952755905511811,
                    "duration": 0.08958333333328028
                },
                {
                    "name": "E5",
                    "midi": 76,
                    "time": 299.3499999999979,
                    "velocity": 0.8110236220472441,
                    "duration": 0.0854166666666174
                },
                {
                    "name": "G3",
                    "midi": 55,
                    "time": 299.5458333333312,
                    "velocity": 0.5748031496062992,
                    "duration": 0.06458333333335986
                },
                {
                    "name": "C6",
                    "midi": 84,
                    "time": 299.54999999999785,
                    "velocity": 0.84251968503937,
                    "duration": 0.10000000000002274
                },
                {
                    "name": "G5",
                    "midi": 79,
                    "time": 299.5562499999979,
                    "velocity": 0.7716535433070866,
                    "duration": 0.06458333333335986
                },
                {
                    "name": "G2",
                    "midi": 43,
                    "time": 299.55833333333123,
                    "velocity": 0.4645669291338583,
                    "duration": 0.054166666666674246
                },
                {
                    "name": "E5",
                    "midi": 76,
                    "time": 299.55833333333123,
                    "velocity": 0.7795275590551181,
                    "duration": 0.054166666666674246
                },
                {
                    "name": "F2",
                    "midi": 41,
                    "time": 299.6979166666645,
                    "velocity": 0.8110236220472441,
                    "duration": 0.1645833333332689
                },
                {
                    "name": "C3",
                    "midi": 48,
                    "time": 299.80208333333115,
                    "velocity": 0.6850393700787402,
                    "duration": 0.17500000000001137
                },
                {
                    "name": "A5",
                    "midi": 81,
                    "time": 299.9166666666644,
                    "velocity": 0.8346456692913385,
                    "duration": 0.15208333333339397
                },
                {
                    "name": "A3",
                    "midi": 57,
                    "time": 299.9187499999978,
                    "velocity": 0.8976377952755905,
                    "duration": 0.12291666666669698
                },
                {
                    "name": "D6",
                    "midi": 86,
                    "time": 299.9187499999978,
                    "velocity": 0.8818897637795275,
                    "duration": 0.1333333333333826
                },
                {
                    "name": "D5",
                    "midi": 74,
                    "time": 299.92083333333113,
                    "velocity": 0.8582677165354331,
                    "duration": 0.09166666666669698
                },
                {
                    "name": "D3",
                    "midi": 50,
                    "time": 299.9624999999978,
                    "velocity": 0.36220472440944884,
                    "duration": 0.04583333333334849
                },
                {
                    "name": "C6",
                    "midi": 84,
                    "time": 300.16874999999783,
                    "velocity": 0.8110236220472441,
                    "duration": 0.07916666666665151
                },
                {
                    "name": "C5",
                    "midi": 72,
                    "time": 300.1791666666645,
                    "velocity": 0.6614173228346457,
                    "duration": 0.039583333333325754
                },
                {
                    "name": "D4",
                    "midi": 62,
                    "time": 300.39791666666446,
                    "velocity": 0.6850393700787402,
                    "duration": 0.11458333333337123
                },
                {
                    "name": "F6",
                    "midi": 89,
                    "time": 300.4020833333311,
                    "velocity": 0.7086614173228346,
                    "duration": 0.04791666666670835
                },
                {
                    "name": "F5",
                    "midi": 77,
                    "time": 300.4041666666645,
                    "velocity": 0.8503937007874016,
                    "duration": 0.03333333333335986
                },
                {
                    "name": "A3",
                    "midi": 57,
                    "time": 300.40624999999784,
                    "velocity": 0.5118110236220472,
                    "duration": 0.11666666666667425
                },
                {
                    "name": "F3",
                    "midi": 53,
                    "time": 300.41458333333117,
                    "velocity": 0.5196850393700787,
                    "duration": 0.15833333333335986
                },
                {
                    "name": "F3",
                    "midi": 53,
                    "time": 300.7416666666645,
                    "velocity": 0.3228346456692913,
                    "duration": 0.22916666666674246
                },
                {
                    "name": "A3",
                    "midi": 57,
                    "time": 300.75624999999786,
                    "velocity": 0.3858267716535433,
                    "duration": 0.20833333333337123
                },
                {
                    "name": "C#6",
                    "midi": 85,
                    "time": 300.7916666666645,
                    "velocity": 0.7637795275590551,
                    "duration": 0.05833333333333712
                },
                {
                    "name": "C4",
                    "midi": 60,
                    "time": 300.7958333333312,
                    "velocity": 0.5905511811023622,
                    "duration": 0.16250000000002274
                },
                {
                    "name": "D5",
                    "midi": 74,
                    "time": 300.8062499999979,
                    "velocity": 0.7007874015748031,
                    "duration": 0.07708333333334849
                },
                {
                    "name": "D6",
                    "midi": 86,
                    "time": 300.81041666666454,
                    "velocity": 0.8031496062992126,
                    "duration": 0.06666666666666288
                },
                {
                    "name": "C6",
                    "midi": 84,
                    "time": 300.9999999999979,
                    "velocity": 0.7086614173228346,
                    "duration": 0.13125000000002274
                },
                {
                    "name": "F5",
                    "midi": 77,
                    "time": 301.23124999999794,
                    "velocity": 0.8188976377952756,
                    "duration": 0.05416666666678793
                },
                {
                    "name": "F4",
                    "midi": 65,
                    "time": 301.23749999999797,
                    "velocity": 0.6771653543307087,
                    "duration": 0.03750000000007958
                },
                {
                    "name": "D4",
                    "midi": 62,
                    "time": 301.24999999999795,
                    "velocity": 0.6614173228346457,
                    "duration": 0.08541666666678793
                },
                {
                    "name": "F3",
                    "midi": 53,
                    "time": 301.2520833333313,
                    "velocity": 0.47244094488188976,
                    "duration": 0.06250000000005684
                },
                {
                    "name": "G4",
                    "midi": 67,
                    "time": 301.2541666666647,
                    "velocity": 0.4409448818897638,
                    "duration": 0.05208333333337123
                },
                {
                    "name": "A3",
                    "midi": 57,
                    "time": 301.25624999999803,
                    "velocity": 0.5433070866141733,
                    "duration": 0.06041666666669698
                },
                {
                    "name": "F3",
                    "midi": 53,
                    "time": 301.4562499999981,
                    "velocity": 0.5984251968503937,
                    "duration": 0.4270833333333144
                },
                {
                    "name": "A3",
                    "midi": 57,
                    "time": 301.5374999999981,
                    "velocity": 0.33858267716535434,
                    "duration": 0.3479166666666629
                },
                {
                    "name": "D#4",
                    "midi": 63,
                    "time": 301.6624999999981,
                    "velocity": 0.8110236220472441,
                    "duration": 0.18958333333330302
                },
                {
                    "name": "D#5",
                    "midi": 75,
                    "time": 301.6895833333314,
                    "velocity": 0.8503937007874016,
                    "duration": 0.22916666666662877
                },
                {
                    "name": "F5",
                    "midi": 77,
                    "time": 301.6895833333314,
                    "velocity": 0.8582677165354331,
                    "duration": 1.2437500000002046
                },
                {
                    "name": "F4",
                    "midi": 65,
                    "time": 301.6937499999981,
                    "velocity": 0.889763779527559,
                    "duration": 0.21666666666664014
                },
                {
                    "name": "D4",
                    "midi": 62,
                    "time": 301.97291666666473,
                    "velocity": 0.6456692913385826,
                    "duration": 0.2208333333334167
                },
                {
                    "name": "D5",
                    "midi": 74,
                    "time": 301.9854166666647,
                    "velocity": 0.6535433070866141,
                    "duration": 0.47083333333347355
                },
                {
                    "name": "F3",
                    "midi": 53,
                    "time": 301.99166666666474,
                    "velocity": 0.4251968503937008,
                    "duration": 1.0875000000002615
                },
                {
                    "name": "A3",
                    "midi": 57,
                    "time": 301.9937499999981,
                    "velocity": 0.2755905511811024,
                    "duration": 0.5916666666667538
                },
                {
                    "name": "F4",
                    "midi": 65,
                    "time": 302.00833333333145,
                    "velocity": 0.047244094488188976,
                    "duration": 0.8208333333334963
                },
                {
                    "name": "D#4",
                    "midi": 63,
                    "time": 302.39166666666483,
                    "velocity": 0.6220472440944882,
                    "duration": 0.1645833333333826
                },
                {
                    "name": "D#5",
                    "midi": 75,
                    "time": 302.4124999999982,
                    "velocity": 0.5984251968503937,
                    "duration": 0.27291666666667425
                },
                {
                    "name": "D4",
                    "midi": 62,
                    "time": 302.62916666666484,
                    "velocity": 0.6535433070866141,
                    "duration": 0.20833333333342807
                },
                {
                    "name": "D5",
                    "midi": 74,
                    "time": 302.6437499999982,
                    "velocity": 0.6377952755905512,
                    "duration": 0.36250000000012506
                },
                {
                    "name": "A3",
                    "midi": 57,
                    "time": 302.6499999999982,
                    "velocity": 0.10236220472440945,
                    "duration": 0.4270833333334281
                },
                {
                    "name": "C4",
                    "midi": 60,
                    "time": 303.047916666665,
                    "velocity": 0.7007874015748031,
                    "duration": 0.052083333333314386
                },
                {
                    "name": "C5",
                    "midi": 72,
                    "time": 303.06458333333165,
                    "velocity": 0.6220472440944882,
                    "duration": 0.04583333333334849
                },
                {
                    "name": "F2",
                    "midi": 41,
                    "time": 303.30624999999833,
                    "velocity": 0.4330708661417323,
                    "duration": 0.13333333333332575
                },
                {
                    "name": "C3",
                    "midi": 48,
                    "time": 303.41874999999834,
                    "velocity": 0.5433070866141733,
                    "duration": 0.12916666666666288
                },
                {
                    "name": "C#6",
                    "midi": 85,
                    "time": 303.5083333333316,
                    "velocity": 0.7559055118110236,
                    "duration": 0.07291666666668561
                },
                {
                    "name": "G#5",
                    "midi": 80,
                    "time": 303.51458333333164,
                    "velocity": 0.7165354330708661,
                    "duration": 0.07083333333332575
                },
                {
                    "name": "D6",
                    "midi": 86,
                    "time": 303.52499999999833,
                    "velocity": 0.8031496062992126,
                    "duration": 0.0854166666666174
                },
                {
                    "name": "D5",
                    "midi": 74,
                    "time": 303.52499999999833,
                    "velocity": 0.4881889763779528,
                    "duration": 0.04791666666665151
                },
                {
                    "name": "G#3",
                    "midi": 56,
                    "time": 303.5270833333317,
                    "velocity": 0.8267716535433071,
                    "duration": 0.07083333333326891
                },
                {
                    "name": "C6",
                    "midi": 84,
                    "time": 303.74791666666493,
                    "velocity": 0.7874015748031497,
                    "duration": 0.07916666666670835
                },
                {
                    "name": "C5",
                    "midi": 72,
                    "time": 303.7583333333316,
                    "velocity": 0.5590551181102362,
                    "duration": 0.04583333333334849
                },
                {
                    "name": "D4",
                    "midi": 62,
                    "time": 303.9812499999983,
                    "velocity": 0.7165354330708661,
                    "duration": 0.06250000000011369
                },
                {
                    "name": "F6",
                    "midi": 89,
                    "time": 303.99166666666497,
                    "velocity": 0.7795275590551181,
                    "duration": 0.029166666666696983
                },
                {
                    "name": "F3",
                    "midi": 53,
                    "time": 303.997916666665,
                    "velocity": 0.4409448818897638,
                    "duration": 0.058333333333393966
                },
                {
                    "name": "G#3",
                    "midi": 56,
                    "time": 303.997916666665,
                    "velocity": 0.5748031496062992,
                    "duration": 0.041666666666685614
                },
                {
                    "name": "F5",
                    "midi": 77,
                    "time": 303.997916666665,
                    "velocity": 0.6614173228346457,
                    "duration": 0.043750000000045475
                },
                {
                    "name": "F3",
                    "midi": 53,
                    "time": 304.3770833333317,
                    "velocity": 0.49606299212598426,
                    "duration": 0.20624999999995453
                },
                {
                    "name": "C#6",
                    "midi": 85,
                    "time": 304.38541666666504,
                    "velocity": 0.6299212598425197,
                    "duration": 0.05833333333333712
                },
                {
                    "name": "G#3",
                    "midi": 56,
                    "time": 304.3895833333317,
                    "velocity": 0.5511811023622047,
                    "duration": 0.15416666666664014
                },
                {
                    "name": "D5",
                    "midi": 74,
                    "time": 304.3895833333317,
                    "velocity": 0.5669291338582677,
                    "duration": 0.07083333333332575
                },
                {
                    "name": "D6",
                    "midi": 86,
                    "time": 304.39166666666506,
                    "velocity": 0.8110236220472441,
                    "duration": 0.08124999999995453
                },
                {
                    "name": "C4",
                    "midi": 60,
                    "time": 304.3979166666651,
                    "velocity": 0.4881889763779528,
                    "duration": 0.1166666666666174
                },
                {
                    "name": "C6",
                    "midi": 84,
                    "time": 304.60833333333164,
                    "velocity": 0.7874015748031497,
                    "duration": 0.0625
                },
                {
                    "name": "C5",
                    "midi": 72,
                    "time": 304.61874999999833,
                    "velocity": 0.6535433070866141,
                    "duration": 0.039583333333325754
                },
                {
                    "name": "F3",
                    "midi": 53,
                    "time": 304.8562499999983,
                    "velocity": 0.5039370078740157,
                    "duration": 0.0875000000000341
                },
                {
                    "name": "D4",
                    "midi": 62,
                    "time": 304.87291666666493,
                    "velocity": 0.5354330708661418,
                    "duration": 0.06875000000002274
                },
                {
                    "name": "G#3",
                    "midi": 56,
                    "time": 304.8749999999983,
                    "velocity": 0.5669291338582677,
                    "duration": 0.0625
                },
                {
                    "name": "F5",
                    "midi": 77,
                    "time": 304.8749999999983,
                    "velocity": 0.6692913385826772,
                    "duration": 0.03541666666666288
                },
                {
                    "name": "F4",
                    "midi": 65,
                    "time": 304.8833333333316,
                    "velocity": 0.4645669291338583,
                    "duration": 0.05000000000001137
                },
                {
                    "name": "F3",
                    "midi": 53,
                    "time": 305.1437499999983,
                    "velocity": 0.3937007874015748,
                    "duration": 0.7187500000001137
                },
                {
                    "name": "G#3",
                    "midi": 56,
                    "time": 305.3208333333317,
                    "velocity": 0.4409448818897638,
                    "duration": 0.5687500000000796
                },
                {
                    "name": "D#4",
                    "midi": 63,
                    "time": 305.32291666666504,
                    "velocity": 0.8110236220472441,
                    "duration": 0.18958333333335986
                },
                {
                    "name": "D#5",
                    "midi": 75,
                    "time": 305.32916666666506,
                    "velocity": 0.7716535433070866,
                    "duration": 0.3187499999999659
                },
                {
                    "name": "F5",
                    "midi": 77,
                    "time": 305.3333333333317,
                    "velocity": 0.6535433070866141,
                    "duration": 1.4812500000001592
                },
                {
                    "name": "F4",
                    "midi": 65,
                    "time": 305.3374999999984,
                    "velocity": 0.6377952755905512,
                    "duration": 1.3854166666667993
                },
                {
                    "name": "D5",
                    "midi": 74,
                    "time": 305.59166666666505,
                    "velocity": 0.6771653543307087,
                    "duration": 0.2958333333333485
                },
                {
                    "name": "D4",
                    "midi": 62,
                    "time": 305.59166666666505,
                    "velocity": 0.6299212598425197,
                    "duration": 0.23750000000001137
                },
                {
                    "name": "D#5",
                    "midi": 75,
                    "time": 305.98333333333176,
                    "velocity": 0.6850393700787402,
                    "duration": 0.24374999999997726
                },
                {
                    "name": "D#4",
                    "midi": 63,
                    "time": 305.9916666666651,
                    "velocity": 0.7874015748031497,
                    "duration": 0.17499999999995453
                },
                {
                    "name": "G#3",
                    "midi": 56,
                    "time": 306.00833333333173,
                    "velocity": 0.5039370078740157,
                    "duration": 0.13749999999998863
                },
                {
                    "name": "F3",
                    "midi": 53,
                    "time": 306.0312499999984,
                    "velocity": 0.2755905511811024,
                    "duration": 0.7458333333334508
                },
                {
                    "name": "D5",
                    "midi": 74,
                    "time": 306.21666666666505,
                    "velocity": 0.6220472440944882,
                    "duration": 0.40208333333339397
                },
                {
                    "name": "D4",
                    "midi": 62,
                    "time": 306.2291666666651,
                    "velocity": 0.5511811023622047,
                    "duration": 0.19166666666666288
                },
                {
                    "name": "G#3",
                    "midi": 56,
                    "time": 306.23124999999845,
                    "velocity": 0.4645669291338583,
                    "duration": 0.16041666666666288
                },
                {
                    "name": "C4",
                    "midi": 60,
                    "time": 306.6833333333318,
                    "velocity": 0.6850393700787402,
                    "duration": 0.05208333333337123
                },
                {
                    "name": "C5",
                    "midi": 72,
                    "time": 306.68541666666516,
                    "velocity": 0.5984251968503937,
                    "duration": 0.1187500000000341
                },
                {
                    "name": "G#3",
                    "midi": 56,
                    "time": 306.70208333333187,
                    "velocity": 0.5196850393700787,
                    "duration": 0.037499999999965894
                },
                {
                    "name": "C2",
                    "midi": 36,
                    "time": 307.1354166666652,
                    "velocity": 0.9763779527559056,
                    "duration": 0.3083333333333371
                },
                {
                    "name": "C6",
                    "midi": 84,
                    "time": 307.3479166666652,
                    "velocity": 0.7795275590551181,
                    "duration": 0.08125000000001137
                },
                {
                    "name": "C5",
                    "midi": 72,
                    "time": 307.3541666666652,
                    "velocity": 0.6062992125984252,
                    "duration": 0.04583333333334849
                },
                {
                    "name": "G5",
                    "midi": 79,
                    "time": 307.35624999999857,
                    "velocity": 0.7007874015748031,
                    "duration": 0.08124999999995453
                },
                {
                    "name": "E5",
                    "midi": 76,
                    "time": 307.36041666666523,
                    "velocity": 0.5984251968503937,
                    "duration": 0.04791666666665151
                },
                {
                    "name": "C3",
                    "midi": 48,
                    "time": 307.3645833333319,
                    "velocity": 0.7874015748031497,
                    "duration": 0.08958333333333712
                },
                {
                    "name": "D2",
                    "midi": 38,
                    "time": 307.56666666666524,
                    "velocity": 0.889763779527559,
                    "duration": 0.3583333333333485
                },
                {
                    "name": "C6",
                    "midi": 84,
                    "time": 307.57916666666523,
                    "velocity": 0.9212598425196851,
                    "duration": 0.0625
                },
                {
                    "name": "E5",
                    "midi": 76,
                    "time": 307.57916666666523,
                    "velocity": 0.8818897637795275,
                    "duration": 0.05000000000001137
                },
                {
                    "name": "G5",
                    "midi": 79,
                    "time": 307.5812499999986,
                    "velocity": 0.8503937007874016,
                    "duration": 0.03541666666666288
                },
                {
                    "name": "D3",
                    "midi": 50,
                    "time": 307.7812499999986,
                    "velocity": 0.8582677165354331,
                    "duration": 0.18333333333333712
                },
                {
                    "name": "E5",
                    "midi": 76,
                    "time": 307.78333333333194,
                    "velocity": 0.9133858267716536,
                    "duration": 0.05833333333333712
                },
                {
                    "name": "G5",
                    "midi": 79,
                    "time": 307.78333333333194,
                    "velocity": 0.8818897637795275,
                    "duration": 0.054166666666674246
                },
                {
                    "name": "C6",
                    "midi": 84,
                    "time": 307.7854166666653,
                    "velocity": 0.9133858267716536,
                    "duration": 0.06041666666664014
                },
                {
                    "name": "E2",
                    "midi": 40,
                    "time": 307.98541666666523,
                    "velocity": 0.952755905511811,
                    "duration": 0.2500000000001137
                },
                {
                    "name": "C6",
                    "midi": 84,
                    "time": 307.99166666666525,
                    "velocity": 0.9448818897637795,
                    "duration": 0.08125000000006821
                },
                {
                    "name": "E5",
                    "midi": 76,
                    "time": 307.99166666666525,
                    "velocity": 0.9291338582677166,
                    "duration": 0.06041666666669698
                },
                {
                    "name": "G5",
                    "midi": 79,
                    "time": 307.9937499999986,
                    "velocity": 0.8740157480314961,
                    "duration": 0.06041666666669698
                },
                {
                    "name": "E3",
                    "midi": 52,
                    "time": 308.1687499999987,
                    "velocity": 0.8346456692913385,
                    "duration": 0.0625
                },
                {
                    "name": "D5",
                    "midi": 74,
                    "time": 308.19374999999866,
                    "velocity": 0.7952755905511811,
                    "duration": 0.056250000000034106
                },
                {
                    "name": "A#5",
                    "midi": 82,
                    "time": 308.1979166666653,
                    "velocity": 0.8582677165354331,
                    "duration": 0.08333333333337123
                },
                {
                    "name": "F5",
                    "midi": 77,
                    "time": 308.1999999999987,
                    "velocity": 0.7559055118110236,
                    "duration": 0.041666666666685614
                },
                {
                    "name": "G1",
                    "midi": 31,
                    "time": 308.3749999999987,
                    "velocity": 0.84251968503937,
                    "duration": 0.2625000000001023
                },
                {
                    "name": "A#5",
                    "midi": 82,
                    "time": 308.395833333332,
                    "velocity": 0.8818897637795275,
                    "duration": 0.07916666666670835
                },
                {
                    "name": "F5",
                    "midi": 77,
                    "time": 308.395833333332,
                    "velocity": 0.8346456692913385,
                    "duration": 0.06458333333335986
                },
                {
                    "name": "D5",
                    "midi": 74,
                    "time": 308.39791666666537,
                    "velocity": 0.7952755905511811,
                    "duration": 0.04791666666665151
                },
                {
                    "name": "A#5",
                    "midi": 82,
                    "time": 308.58333333333206,
                    "velocity": 0.889763779527559,
                    "duration": 0.09166666666675383
                },
                {
                    "name": "G2",
                    "midi": 43,
                    "time": 308.5874999999987,
                    "velocity": 0.7559055118110236,
                    "duration": 0.1729166666667652
                },
                {
                    "name": "D5",
                    "midi": 74,
                    "time": 308.5916666666654,
                    "velocity": 0.7716535433070866,
                    "duration": 0.041666666666685614
                },
                {
                    "name": "F5",
                    "midi": 77,
                    "time": 308.5916666666654,
                    "velocity": 0.7795275590551181,
                    "duration": 0.043750000000045475
                },
                {
                    "name": "A1",
                    "midi": 33,
                    "time": 308.76458333333215,
                    "velocity": 0.9291338582677166,
                    "duration": 0.2541666666667197
                },
                {
                    "name": "E5",
                    "midi": 76,
                    "time": 308.7812499999988,
                    "velocity": 0.8031496062992126,
                    "duration": 0.1437500000000682
                },
                {
                    "name": "C#5",
                    "midi": 73,
                    "time": 308.78749999999883,
                    "velocity": 0.8661417322834646,
                    "duration": 0.13125000000002274
                },
                {
                    "name": "A#5",
                    "midi": 82,
                    "time": 308.7895833333322,
                    "velocity": 0.8582677165354331,
                    "duration": 0.13333333333332575
                },
                {
                    "name": "A5",
                    "midi": 81,
                    "time": 308.9874999999989,
                    "velocity": 0.7952755905511811,
                    "duration": 0.09375
                },
                {
                    "name": "A2",
                    "midi": 45,
                    "time": 308.99166666666554,
                    "velocity": 0.7322834645669292,
                    "duration": 0.13333333333332575
                },
                {
                    "name": "E5",
                    "midi": 76,
                    "time": 308.99166666666554,
                    "velocity": 0.7637795275590551,
                    "duration": 0.07083333333332575
                },
                {
                    "name": "C#5",
                    "midi": 73,
                    "time": 308.9937499999989,
                    "velocity": 0.7637795275590551,
                    "duration": 0.06458333333330302
                },
                {
                    "name": "B1",
                    "midi": 35,
                    "time": 309.1729166666655,
                    "velocity": 0.9291338582677166,
                    "duration": 0.23750000000001137
                },
                {
                    "name": "A5",
                    "midi": 81,
                    "time": 309.19374999999883,
                    "velocity": 0.8740157480314961,
                    "duration": 0.09791666666671972
                },
                {
                    "name": "C#5",
                    "midi": 73,
                    "time": 309.1958333333322,
                    "velocity": 0.8661417322834646,
                    "duration": 0.06458333333335986
                },
                {
                    "name": "E5",
                    "midi": 76,
                    "time": 309.19791666666555,
                    "velocity": 0.84251968503937,
                    "duration": 0.08541666666667425
                },
                {
                    "name": "A5",
                    "midi": 81,
                    "time": 309.41666666666555,
                    "velocity": 0.952755905511811,
                    "duration": 0.13541666666668561
                },
                {
                    "name": "E5",
                    "midi": 76,
                    "time": 309.4187499999989,
                    "velocity": 0.9448818897637795,
                    "duration": 0.13333333333332575
                },
                {
                    "name": "C#5",
                    "midi": 73,
                    "time": 309.42083333333227,
                    "velocity": 0.968503937007874,
                    "duration": 0.11458333333331439
                },
                {
                    "name": "B2",
                    "midi": 47,
                    "time": 309.42083333333227,
                    "velocity": 0.8582677165354331,
                    "duration": 0.1312499999999659
                },
                {
                    "name": "C#2",
                    "midi": 37,
                    "time": 309.62083333333226,
                    "velocity": 0.8267716535433071,
                    "duration": 0.24791666666675383
                },
                {
                    "name": "C#3",
                    "midi": 49,
                    "time": 309.8145833333323,
                    "velocity": 0.8267716535433071,
                    "duration": 0.0645833333334167
                },
                {
                    "name": "A5",
                    "midi": 81,
                    "time": 309.82499999999897,
                    "velocity": 0.9448818897637795,
                    "duration": 0.08125000000006821
                },
                {
                    "name": "C5",
                    "midi": 72,
                    "time": 309.8291666666656,
                    "velocity": 0.889763779527559,
                    "duration": 0.05416666666673109
                },
                {
                    "name": "D#5",
                    "midi": 75,
                    "time": 309.831249999999,
                    "velocity": 0.905511811023622,
                    "duration": 0.056250000000034106
                },
                {
                    "name": "F#1",
                    "midi": 30,
                    "time": 310.03333333333234,
                    "velocity": 0.7716535433070866,
                    "duration": 0.31875000000019327
                },
                {
                    "name": "A5",
                    "midi": 81,
                    "time": 310.0354166666657,
                    "velocity": 0.9291338582677166,
                    "duration": 0.06458333333335986
                },
                {
                    "name": "C5",
                    "midi": 72,
                    "time": 310.03958333333236,
                    "velocity": 0.8740157480314961,
                    "duration": 0.04583333333334849
                },
                {
                    "name": "D#5",
                    "midi": 75,
                    "time": 310.03958333333236,
                    "velocity": 0.9291338582677166,
                    "duration": 0.056250000000034106
                },
                {
                    "name": "F#2",
                    "midi": 42,
                    "time": 310.22499999999906,
                    "velocity": 0.7401574803149606,
                    "duration": 0.15416666666681067
                },
                {
                    "name": "A5",
                    "midi": 81,
                    "time": 310.2312499999991,
                    "velocity": 0.9133858267716536,
                    "duration": 0.07083333333343944
                },
                {
                    "name": "D#5",
                    "midi": 75,
                    "time": 310.23333333333244,
                    "velocity": 0.8976377952755905,
                    "duration": 0.058333333333393966
                },
                {
                    "name": "C5",
                    "midi": 72,
                    "time": 310.2354166666658,
                    "velocity": 0.8110236220472441,
                    "duration": 0.05000000000001137
                },
                {
                    "name": "G1",
                    "midi": 31,
                    "time": 310.4374999999992,
                    "velocity": 0.889763779527559,
                    "duration": 0.21875000000005684
                },
                {
                    "name": "A5",
                    "midi": 81,
                    "time": 310.4479166666659,
                    "velocity": 0.9212598425196851,
                    "duration": 0.12916666666671972
                },
                {
                    "name": "D5",
                    "midi": 74,
                    "time": 310.4541666666659,
                    "velocity": 0.8976377952755905,
                    "duration": 0.14583333333337123
                },
                {
                    "name": "A#4",
                    "midi": 70,
                    "time": 310.4562499999993,
                    "velocity": 0.9448818897637795,
                    "duration": 0.11874999999997726
                },
                {
                    "name": "G2",
                    "midi": 43,
                    "time": 310.6770833333326,
                    "velocity": 0.6456692913385826,
                    "duration": 0.2104166666667311
                },
                {
                    "name": "G5",
                    "midi": 79,
                    "time": 310.6833333333326,
                    "velocity": 0.8346456692913385,
                    "duration": 0.07916666666670835
                },
                {
                    "name": "A#4",
                    "midi": 70,
                    "time": 310.68541666666596,
                    "velocity": 0.8188976377952756,
                    "duration": 0.054166666666674246
                },
                {
                    "name": "D5",
                    "midi": 74,
                    "time": 310.6874999999993,
                    "velocity": 0.7716535433070866,
                    "duration": 0.07499999999998863
                },
                {
                    "name": "A1",
                    "midi": 33,
                    "time": 310.89374999999933,
                    "velocity": 0.8740157480314961,
                    "duration": 0.30000000000012506
                },
                {
                    "name": "G5",
                    "midi": 79,
                    "time": 310.904166666666,
                    "velocity": 0.9133858267716536,
                    "duration": 0.14791666666667425
                },
                {
                    "name": "A#4",
                    "midi": 70,
                    "time": 310.91041666666604,
                    "velocity": 0.8661417322834646,
                    "duration": 0.08958333333333712
                },
                {
                    "name": "D5",
                    "midi": 74,
                    "time": 310.91041666666604,
                    "velocity": 0.8346456692913385,
                    "duration": 0.15416666666664014
                },
                {
                    "name": "G5",
                    "midi": 79,
                    "time": 311.1333333333327,
                    "velocity": 0.9291338582677166,
                    "duration": 0.3770833333334167
                },
                {
                    "name": "A2",
                    "midi": 45,
                    "time": 311.13541666666606,
                    "velocity": 0.8110236220472441,
                    "duration": 0.19791666666674246
                },
                {
                    "name": "D5",
                    "midi": 74,
                    "time": 311.1416666666661,
                    "velocity": 0.8976377952755905,
                    "duration": 0.3833333333333826
                },
                {
                    "name": "A#4",
                    "midi": 70,
                    "time": 311.1416666666661,
                    "velocity": 0.9448818897637795,
                    "duration": 0.3520833333333826
                },
                {
                    "name": "A#1",
                    "midi": 34,
                    "time": 311.3562499999995,
                    "velocity": 0.9448818897637795,
                    "duration": 0.33541666666667425
                },
                {
                    "name": "G5",
                    "midi": 79,
                    "time": 311.6062499999995,
                    "velocity": 0.8818897637795275,
                    "duration": 0.22291666666671972
                },
                {
                    "name": "D5",
                    "midi": 74,
                    "time": 311.61041666666614,
                    "velocity": 0.8740157480314961,
                    "duration": 0.23125000000004547
                },
                {
                    "name": "A#2",
                    "midi": 46,
                    "time": 311.61041666666614,
                    "velocity": 0.7795275590551181,
                    "duration": 0.20625000000001137
                },
                {
                    "name": "A#4",
                    "midi": 70,
                    "time": 311.6124999999995,
                    "velocity": 0.8818897637795275,
                    "duration": 0.20625000000001137
                },
                {
                    "name": "D#2",
                    "midi": 39,
                    "time": 311.87499999999955,
                    "velocity": 0.7244094488188977,
                    "duration": 0.48541666666670835
                },
                {
                    "name": "G5",
                    "midi": 79,
                    "time": 311.8979166666662,
                    "velocity": 0.8503937007874016,
                    "duration": 0.23125000000004547
                },
                {
                    "name": "A#4",
                    "midi": 70,
                    "time": 311.90416666666624,
                    "velocity": 0.8976377952755905,
                    "duration": 0.2125000000000341
                },
                {
                    "name": "C#5",
                    "midi": 73,
                    "time": 311.9083333333329,
                    "velocity": 0.889763779527559,
                    "duration": 0.2604166666666856
                },
                {
                    "name": "D#3",
                    "midi": 51,
                    "time": 312.22916666666623,
                    "velocity": 0.6771653543307087,
                    "duration": 0.1187500000000341
                },
                {
                    "name": "G5",
                    "midi": 79,
                    "time": 312.23541666666625,
                    "velocity": 0.8740157480314961,
                    "duration": 0.15833333333335986
                },
                {
                    "name": "C#5",
                    "midi": 73,
                    "time": 312.23541666666625,
                    "velocity": 0.8503937007874016,
                    "duration": 0.15833333333335986
                },
                {
                    "name": "A#4",
                    "midi": 70,
                    "time": 312.2395833333329,
                    "velocity": 0.8661417322834646,
                    "duration": 0.12708333333335986
                },
                {
                    "name": "D2",
                    "midi": 38,
                    "time": 312.45416666666625,
                    "velocity": 0.7559055118110236,
                    "duration": 0.16458333333332575
                },
                {
                    "name": "D3",
                    "midi": 50,
                    "time": 312.59374999999955,
                    "velocity": 0.7874015748031497,
                    "duration": 0.09375000000005684
                },
                {
                    "name": "G4",
                    "midi": 67,
                    "time": 312.8812499999996,
                    "velocity": 0.6062992125984252,
                    "duration": 0.08541666666673109
                },
                {
                    "name": "B4",
                    "midi": 71,
                    "time": 312.9041666666663,
                    "velocity": 0.7086614173228346,
                    "duration": 0.08333333333337123
                },
                {
                    "name": "D5",
                    "midi": 74,
                    "time": 312.9166666666663,
                    "velocity": 0.7716535433070866,
                    "duration": 0.09791666666671972
                },
                {
                    "name": "B3",
                    "midi": 59,
                    "time": 312.927083333333,
                    "velocity": 0.48031496062992124,
                    "duration": 3.277083333333394
                },
                {
                    "name": "D4",
                    "midi": 62,
                    "time": 312.933333333333,
                    "velocity": 0.6377952755905512,
                    "duration": 3.3812500000000796
                },
                {
                    "name": "G5",
                    "midi": 79,
                    "time": 312.94791666666634,
                    "velocity": 0.6692913385826772,
                    "duration": 0.10624999999998863
                },
                {
                    "name": "A#5",
                    "midi": 82,
                    "time": 313.4729166666663,
                    "velocity": 0.952755905511811,
                    "duration": 0.07916666666665151
                },
                {
                    "name": "B5",
                    "midi": 83,
                    "time": 313.88958333333295,
                    "velocity": 0.8818897637795275,
                    "duration": 0.09791666666666288
                },
                {
                    "name": "G5",
                    "midi": 79,
                    "time": 314.1749999999996,
                    "velocity": 0.8976377952755905,
                    "duration": 0.08749999999997726
                },
                {
                    "name": "A#5",
                    "midi": 82,
                    "time": 314.4062499999996,
                    "velocity": 0.937007874015748,
                    "duration": 0.10416666666668561
                },
                {
                    "name": "B5",
                    "midi": 83,
                    "time": 314.69999999999965,
                    "velocity": 0.7716535433070866,
                    "duration": 0.06875000000002274
                },
                {
                    "name": "D5",
                    "midi": 74,
                    "time": 314.9749999999997,
                    "velocity": 0.8503937007874016,
                    "duration": 0.11666666666667425
                },
                {
                    "name": "E5",
                    "midi": 76,
                    "time": 315.17708333333303,
                    "velocity": 0.8582677165354331,
                    "duration": 0.09583333333335986
                },
                {
                    "name": "F5",
                    "midi": 77,
                    "time": 315.4166666666664,
                    "velocity": 0.84251968503937,
                    "duration": 0.1187500000000341
                },
                {
                    "name": "E5",
                    "midi": 76,
                    "time": 315.49374999999975,
                    "velocity": 0.7559055118110236,
                    "duration": 0.14375000000001137
                },
                {
                    "name": "D5",
                    "midi": 74,
                    "time": 315.6104166666664,
                    "velocity": 0.7795275590551181,
                    "duration": 0.12291666666669698
                },
                {
                    "name": "F#5",
                    "midi": 78,
                    "time": 315.8208333333331,
                    "velocity": 0.7401574803149606,
                    "duration": 0.10416666666662877
                },
                {
                    "name": "G5",
                    "midi": 79,
                    "time": 315.8604166666664,
                    "velocity": 0.7795275590551181,
                    "duration": 0.17499999999995453
                },
                {
                    "name": "F#5",
                    "midi": 78,
                    "time": 316.06874999999974,
                    "velocity": 0.8267716535433071,
                    "duration": 0.11041666666665151
                },
                {
                    "name": "G5",
                    "midi": 79,
                    "time": 316.1166666666664,
                    "velocity": 0.6456692913385826,
                    "duration": 0.15208333333333712
                },
                {
                    "name": "G5",
                    "midi": 79,
                    "time": 316.3624999999997,
                    "velocity": 0.7874015748031497,
                    "duration": 0.4208333333333485
                },
                {
                    "name": "C4",
                    "midi": 60,
                    "time": 316.3791666666664,
                    "velocity": 0.6220472440944882,
                    "duration": 0.9479166666667425
                },
                {
                    "name": "D#4",
                    "midi": 63,
                    "time": 316.38124999999974,
                    "velocity": 0.5669291338582677,
                    "duration": 0.9104166666667197
                },
                {
                    "name": "D#5",
                    "midi": 75,
                    "time": 316.6562499999997,
                    "velocity": 0.7322834645669292,
                    "duration": 0.31458333333335986
                },
                {
                    "name": "C5",
                    "midi": 72,
                    "time": 316.93124999999975,
                    "velocity": 0.5590551181102362,
                    "duration": 0.3395833333333371
                },
                {
                    "name": "G4",
                    "midi": 67,
                    "time": 317.2604166666664,
                    "velocity": 0.5433070866141733,
                    "duration": 0.09791666666671972
                },
                {
                    "name": "G2",
                    "midi": 43,
                    "time": 317.6833333333331,
                    "velocity": 0.4015748031496063,
                    "duration": 3.220833333333303
                },
                {
                    "name": "B3",
                    "midi": 59,
                    "time": 317.7562499999998,
                    "velocity": 0.7401574803149606,
                    "duration": 3.4770833333333258
                },
                {
                    "name": "D3",
                    "midi": 50,
                    "time": 317.7687499999998,
                    "velocity": 0.2755905511811024,
                    "duration": 3.4583333333333144
                },
                {
                    "name": "A#4",
                    "midi": 70,
                    "time": 318.26041666666646,
                    "velocity": 0.8267716535433071,
                    "duration": 0.3375000000000341
                },
                {
                    "name": "B4",
                    "midi": 71,
                    "time": 318.5749999999998,
                    "velocity": 0.6850393700787402,
                    "duration": 0.12291666666664014
                },
                {
                    "name": "G4",
                    "midi": 67,
                    "time": 318.81458333333313,
                    "velocity": 0.5984251968503937,
                    "duration": 0.15208333333333712
                },
                {
                    "name": "A#4",
                    "midi": 70,
                    "time": 319.02291666666645,
                    "velocity": 0.7322834645669292,
                    "duration": 0.19791666666668561
                },
                {
                    "name": "B4",
                    "midi": 71,
                    "time": 319.24791666666647,
                    "velocity": 0.6929133858267716,
                    "duration": 0.08749999999997726
                },
                {
                    "name": "D4",
                    "midi": 62,
                    "time": 319.4895833333331,
                    "velocity": 0.6850393700787402,
                    "duration": 0.23958333333331439
                },
                {
                    "name": "E4",
                    "midi": 64,
                    "time": 319.7166666666664,
                    "velocity": 0.6614173228346457,
                    "duration": 0.13541666666662877
                },
                {
                    "name": "F4",
                    "midi": 65,
                    "time": 319.98333333333306,
                    "velocity": 0.6535433070866141,
                    "duration": 0.13125000000002274
                },
                {
                    "name": "E4",
                    "midi": 64,
                    "time": 320.0916666666664,
                    "velocity": 0.4566929133858268,
                    "duration": 0.16041666666666288
                },
                {
                    "name": "D4",
                    "midi": 62,
                    "time": 320.2374999999997,
                    "velocity": 0.5590551181102362,
                    "duration": 0.23750000000001137
                },
                {
                    "name": "F#4",
                    "midi": 66,
                    "time": 320.51249999999976,
                    "velocity": 0.5590551181102362,
                    "duration": 0.13125000000002274
                },
                {
                    "name": "G4",
                    "midi": 67,
                    "time": 320.59166666666647,
                    "velocity": 0.5354330708661418,
                    "duration": 0.1729166666666515
                },
                {
                    "name": "F#4",
                    "midi": 66,
                    "time": 320.8624999999998,
                    "velocity": 0.6062992125984252,
                    "duration": 0.12708333333330302
                },
                {
                    "name": "G4",
                    "midi": 67,
                    "time": 320.9145833333331,
                    "velocity": 0.5826771653543307,
                    "duration": 0.22291666666666288
                },
                {
                    "name": "A2",
                    "midi": 45,
                    "time": 321.1520833333331,
                    "velocity": 0.1732283464566929,
                    "duration": 1.631249999999966
                },
                {
                    "name": "C#3",
                    "midi": 49,
                    "time": 321.1645833333331,
                    "velocity": 0.4015748031496063,
                    "duration": 1.6791666666666174
                },
                {
                    "name": "G3",
                    "midi": 55,
                    "time": 321.24791666666647,
                    "velocity": 0.14173228346456693,
                    "duration": 1.6374999999999318
                },
                {
                    "name": "G4",
                    "midi": 67,
                    "time": 321.28124999999983,
                    "velocity": 0.5196850393700787,
                    "duration": 0.372916666666697
                },
                {
                    "name": "E4",
                    "midi": 64,
                    "time": 321.6458333333332,
                    "velocity": 0.3228346456692913,
                    "duration": 0.4770833333332689
                },
                {
                    "name": "C#4",
                    "midi": 61,
                    "time": 321.99999999999983,
                    "velocity": 0.3543307086614173,
                    "duration": 0.4333333333332803
                },
                {
                    "name": "A3",
                    "midi": 57,
                    "time": 322.41874999999976,
                    "velocity": 0.30708661417322836,
                    "duration": 0.09375
                },
                {
                    "name": "F#5",
                    "midi": 78,
                    "time": 323.20208333333306,
                    "velocity": 0.3228346456692913,
                    "duration": 5.9958333333335645
                },
                {
                    "name": "A5",
                    "midi": 81,
                    "time": 323.2270833333331,
                    "velocity": 0.4330708661417323,
                    "duration": 6.043750000000216
                },
                {
                    "name": "A4",
                    "midi": 69,
                    "time": 323.2333333333331,
                    "velocity": 0.10236220472440945,
                    "duration": 6.254166666666833
                },
                {
                    "name": "F4",
                    "midi": 65,
                    "time": 323.81249999999983,
                    "velocity": 0.6614173228346457,
                    "duration": 0.5437500000000455
                },
                {
                    "name": "F#4",
                    "midi": 66,
                    "time": 324.22291666666655,
                    "velocity": 0.6299212598425197,
                    "duration": 0.16458333333332575
                },
                {
                    "name": "D4",
                    "midi": 62,
                    "time": 324.5104166666665,
                    "velocity": 0.7559055118110236,
                    "duration": 0.23750000000001137
                },
                {
                    "name": "F4",
                    "midi": 65,
                    "time": 324.7958333333332,
                    "velocity": 0.7795275590551181,
                    "duration": 0.38749999999998863
                },
                {
                    "name": "F#4",
                    "midi": 66,
                    "time": 325.1187499999998,
                    "velocity": 0.7559055118110236,
                    "duration": 0.2333333333333485
                },
                {
                    "name": "A3",
                    "midi": 57,
                    "time": 325.5124999999998,
                    "velocity": 0.4251968503937008,
                    "duration": 0.3020833333333144
                },
                {
                    "name": "B3",
                    "midi": 59,
                    "time": 325.87708333333313,
                    "velocity": 0.5354330708661418,
                    "duration": 0.25833333333332575
                },
                {
                    "name": "C4",
                    "midi": 60,
                    "time": 326.2249999999998,
                    "velocity": 0.5905511811023622,
                    "duration": 0.24166666666667425
                },
                {
                    "name": "B3",
                    "midi": 59,
                    "time": 326.4124999999998,
                    "velocity": 0.5826771653543307,
                    "duration": 0.2854166666666629
                },
                {
                    "name": "A3",
                    "midi": 57,
                    "time": 326.6062499999998,
                    "velocity": 0.6929133858267716,
                    "duration": 0.38749999999998863
                },
                {
                    "name": "C#4",
                    "midi": 61,
                    "time": 327.0041666666665,
                    "velocity": 0.5511811023622047,
                    "duration": 0.1395833333333485
                },
                {
                    "name": "C4",
                    "midi": 60,
                    "time": 327.00624999999985,
                    "velocity": 0.11811023622047244,
                    "duration": 0.07916666666665151
                },
                {
                    "name": "D4",
                    "midi": 62,
                    "time": 327.08749999999986,
                    "velocity": 0.3228346456692913,
                    "duration": 0.4645833333333371
                },
                {
                    "name": "D4",
                    "midi": 62,
                    "time": 327.6854166666666,
                    "velocity": 0.5590551181102362,
                    "duration": 0.37291666666664014
                },
                {
                    "name": "C4",
                    "midi": 60,
                    "time": 328.4124999999999,
                    "velocity": 0.10236220472440945,
                    "duration": 0.12708333333335986
                },
                {
                    "name": "D4",
                    "midi": 62,
                    "time": 328.45833333333326,
                    "velocity": 0.18110236220472442,
                    "duration": 3.918750000000159
                },
                {
                    "name": "C#4",
                    "midi": 61,
                    "time": 328.4666666666666,
                    "velocity": 0.3228346456692913,
                    "duration": 0.11458333333337123
                },
                {
                    "name": "C#5",
                    "midi": 73,
                    "time": 329.69791666666663,
                    "velocity": 0.3937007874015748,
                    "duration": 0.10833333333334849
                },
                {
                    "name": "F5",
                    "midi": 77,
                    "time": 329.7,
                    "velocity": 0.3858267716535433,
                    "duration": 0.11874999999997726
                },
                {
                    "name": "F#5",
                    "midi": 78,
                    "time": 330.3375,
                    "velocity": 0.6535433070866141,
                    "duration": 0.16250000000002274
                },
                {
                    "name": "C5",
                    "midi": 72,
                    "time": 330.3645833333333,
                    "velocity": 0.2440944881889764,
                    "duration": 0.13333333333332575
                },
                {
                    "name": "D#5",
                    "midi": 75,
                    "time": 330.7416666666667,
                    "velocity": 0.7874015748031497,
                    "duration": 0.08958333333333712
                },
                {
                    "name": "B4",
                    "midi": 71,
                    "time": 330.75416666666666,
                    "velocity": 0.5511811023622047,
                    "duration": 0.04374999999998863
                },
                {
                    "name": "E5",
                    "midi": 76,
                    "time": 331.0395833333333,
                    "velocity": 0.7322834645669292,
                    "duration": 0.252083333333303
                },
                {
                    "name": "A#4",
                    "midi": 70,
                    "time": 331.0541666666667,
                    "velocity": 0.7007874015748031,
                    "duration": 0.08541666666667425
                },
                {
                    "name": "A#4",
                    "midi": 70,
                    "time": 331.2270833333333,
                    "velocity": 0.05511811023622047,
                    "duration": 0.11041666666665151
                },
                {
                    "name": "A4",
                    "midi": 69,
                    "time": 331.29375,
                    "velocity": 0.5905511811023622,
                    "duration": 0.21041666666667425
                },
                {
                    "name": "C#5",
                    "midi": 73,
                    "time": 331.3041666666667,
                    "velocity": 0.6929133858267716,
                    "duration": 0.19791666666662877
                },
                {
                    "name": "D5",
                    "midi": 74,
                    "time": 331.55,
                    "velocity": 0.5354330708661418,
                    "duration": 0.22291666666666288
                },
                {
                    "name": "G#4",
                    "midi": 68,
                    "time": 331.5625,
                    "velocity": 0.48031496062992124,
                    "duration": 0.24583333333333712
                },
                {
                    "name": "B4",
                    "midi": 71,
                    "time": 331.8125,
                    "velocity": 0.4645669291338583,
                    "duration": 0.28333333333335986
                },
                {
                    "name": "G4",
                    "midi": 67,
                    "time": 331.81666666666666,
                    "velocity": 0.29133858267716534,
                    "duration": 0.25208333333335986
                },
                {
                    "name": "C5",
                    "midi": 72,
                    "time": 332.14375,
                    "velocity": 0.3779527559055118,
                    "duration": 0.2687500000000682
                },
                {
                    "name": "F#4",
                    "midi": 66,
                    "time": 332.14583333333337,
                    "velocity": 0.36220472440944884,
                    "duration": 0.22916666666668561
                },
                {
                    "name": "D6",
                    "midi": 86,
                    "time": 332.93541666666675,
                    "velocity": 0.7716535433070866,
                    "duration": 0.058333333333393966
                },
                {
                    "name": "F#5",
                    "midi": 78,
                    "time": 332.93541666666675,
                    "velocity": 0.8818897637795275,
                    "duration": 0.058333333333393966
                },
                {
                    "name": "A5",
                    "midi": 81,
                    "time": 332.9375000000001,
                    "velocity": 0.8346456692913385,
                    "duration": 0.058333333333393966
                },
                {
                    "name": "C5",
                    "midi": 72,
                    "time": 332.9375000000001,
                    "velocity": 0.8976377952755905,
                    "duration": 0.06041666666675383
                },
                {
                    "name": "D3",
                    "midi": 50,
                    "time": 332.9375000000001,
                    "velocity": 1,
                    "duration": 0.058333333333393966
                },
                {
                    "name": "D5",
                    "midi": 74,
                    "time": 332.9395833333335,
                    "velocity": 0.8976377952755905,
                    "duration": 0.058333333333393966
                },
                {
                    "name": "A2",
                    "midi": 45,
                    "time": 332.9395833333335,
                    "velocity": 0.9606299212598425,
                    "duration": 0.056250000000034106
                },
                {
                    "name": "C6",
                    "midi": 84,
                    "time": 332.9395833333335,
                    "velocity": 0.8740157480314961,
                    "duration": 0.058333333333393966
                },
                {
                    "name": "D2",
                    "midi": 38,
                    "time": 332.94166666666683,
                    "velocity": 0.9921259842519685,
                    "duration": 0.06041666666669698
                },
                {
                    "name": "D3",
                    "midi": 50,
                    "time": 333.60208333333355,
                    "velocity": 1,
                    "duration": 0.05416666666673109
                },
                {
                    "name": "C5",
                    "midi": 72,
                    "time": 333.60208333333355,
                    "velocity": 0.9448818897637795,
                    "duration": 0.05833333333345081
                },
                {
                    "name": "D6",
                    "midi": 86,
                    "time": 333.60208333333355,
                    "velocity": 0.8188976377952756,
                    "duration": 0.06666666666683341
                },
                {
                    "name": "A5",
                    "midi": 81,
                    "time": 333.6041666666669,
                    "velocity": 0.8582677165354331,
                    "duration": 0.05625000000009095
                },
                {
                    "name": "D5",
                    "midi": 74,
                    "time": 333.6041666666669,
                    "velocity": 0.9448818897637795,
                    "duration": 0.05833333333345081
                },
                {
                    "name": "A2",
                    "midi": 45,
                    "time": 333.6062500000003,
                    "velocity": 0.9606299212598425,
                    "duration": 0.05208333333337123
                },
                {
                    "name": "D2",
                    "midi": 38,
                    "time": 333.6062500000003,
                    "velocity": 1,
                    "duration": 0.05625000000009095
                },
                {
                    "name": "F#5",
                    "midi": 78,
                    "time": 333.6062500000003,
                    "velocity": 0.8976377952755905,
                    "duration": 0.05208333333337123
                },
                {
                    "name": "C6",
                    "midi": 84,
                    "time": 333.6062500000003,
                    "velocity": 0.9291338582677166,
                    "duration": 0.06041666666675383
                },
                {
                    "name": "D3",
                    "midi": 50,
                    "time": 334.08750000000043,
                    "velocity": 0.952755905511811,
                    "duration": 0.05833333333345081
                },
                {
                    "name": "A2",
                    "midi": 45,
                    "time": 334.08750000000043,
                    "velocity": 0.9212598425196851,
                    "duration": 0.06041666666681067
                },
                {
                    "name": "A5",
                    "midi": 81,
                    "time": 334.0916666666671,
                    "velocity": 0.8188976377952756,
                    "duration": 0.06250000000017053
                },
                {
                    "name": "D2",
                    "midi": 38,
                    "time": 334.0916666666671,
                    "velocity": 0.9291338582677166,
                    "duration": 0.05833333333350765
                },
                {
                    "name": "C5",
                    "midi": 72,
                    "time": 334.09375000000045,
                    "velocity": 0.84251968503937,
                    "duration": 0.05208333333342807
                },
                {
                    "name": "D5",
                    "midi": 74,
                    "time": 334.0958333333338,
                    "velocity": 0.8110236220472441,
                    "duration": 0.05000000000006821
                },
                {
                    "name": "D6",
                    "midi": 86,
                    "time": 334.0958333333338,
                    "velocity": 0.6535433070866141,
                    "duration": 0.06458333333347355
                },
                {
                    "name": "C6",
                    "midi": 84,
                    "time": 334.1000000000005,
                    "velocity": 0.7401574803149606,
                    "duration": 0.05416666666678793
                },
                {
                    "name": "F#5",
                    "midi": 78,
                    "time": 334.10208333333384,
                    "velocity": 0.6299212598425197,
                    "duration": 0.03750000000002274
                },
                {
                    "name": "D3",
                    "midi": 50,
                    "time": 334.3062500000006,
                    "velocity": 0.984251968503937,
                    "duration": 0.05625000000009095
                },
                {
                    "name": "A2",
                    "midi": 45,
                    "time": 334.30833333333396,
                    "velocity": 0.9606299212598425,
                    "duration": 0.05625000000009095
                },
                {
                    "name": "D2",
                    "midi": 38,
                    "time": 334.3104166666673,
                    "velocity": 0.984251968503937,
                    "duration": 0.07500000000010232
                },
                {
                    "name": "C5",
                    "midi": 72,
                    "time": 334.3104166666673,
                    "velocity": 0.9133858267716536,
                    "duration": 0.06041666666675383
                },
                {
                    "name": "D5",
                    "midi": 74,
                    "time": 334.3125000000007,
                    "velocity": 0.9212598425196851,
                    "duration": 0.056250000000034106
                },
                {
                    "name": "D6",
                    "midi": 86,
                    "time": 334.3125000000007,
                    "velocity": 0.8110236220472441,
                    "duration": 0.10000000000007958
                },
                {
                    "name": "F#5",
                    "midi": 78,
                    "time": 334.3125000000007,
                    "velocity": 0.8661417322834646,
                    "duration": 0.06250000000005684
                },
                {
                    "name": "C6",
                    "midi": 84,
                    "time": 334.31458333333404,
                    "velocity": 0.8740157480314961,
                    "duration": 0.06875000000002274
                },
                {
                    "name": "A5",
                    "midi": 81,
                    "time": 334.31458333333404,
                    "velocity": 0.8188976377952756,
                    "duration": 0.056250000000034106
                },
                {
                    "name": "D1",
                    "midi": 26,
                    "time": 334.9270833333341,
                    "velocity": 0.9133858267716536,
                    "duration": 6.070833333333439
                },
                {
                    "name": "D2",
                    "midi": 38,
                    "time": 334.9270833333341,
                    "velocity": 0.9763779527559056,
                    "duration": 6.122916666666811
                },
                {
                    "name": "D3",
                    "midi": 50,
                    "time": 336.1145833333341,
                    "velocity": 0.84251968503937,
                    "duration": 0.13750000000004547
                },
                {
                    "name": "D#3",
                    "midi": 51,
                    "time": 336.24583333333413,
                    "velocity": 0.7401574803149606,
                    "duration": 0.13125000000002274
                },
                {
                    "name": "E3",
                    "midi": 52,
                    "time": 336.3833333333342,
                    "velocity": 0.6377952755905512,
                    "duration": 0.25833333333332575
                },
                {
                    "name": "E3",
                    "midi": 52,
                    "time": 336.6958333333342,
                    "velocity": 0.7795275590551181,
                    "duration": 0.11458333333331439
                },
                {
                    "name": "E3",
                    "midi": 52,
                    "time": 336.9562500000008,
                    "velocity": 0.6220472440944882,
                    "duration": 0.10416666666668561
                },
                {
                    "name": "F3",
                    "midi": 53,
                    "time": 337.02083333333417,
                    "velocity": 0.5748031496062992,
                    "duration": 0.15208333333333712
                },
                {
                    "name": "F#3",
                    "midi": 54,
                    "time": 337.1125000000008,
                    "velocity": 0.7322834645669292,
                    "duration": 0.14583333333337123
                },
                {
                    "name": "F#3",
                    "midi": 54,
                    "time": 337.3500000000008,
                    "velocity": 0.8346456692913385,
                    "duration": 0.07708333333334849
                },
                {
                    "name": "F#3",
                    "midi": 54,
                    "time": 337.5395833333342,
                    "velocity": 0.8582677165354331,
                    "duration": 0.09791666666666288
                },
                {
                    "name": "G3",
                    "midi": 55,
                    "time": 337.62500000000085,
                    "velocity": 0.6299212598425197,
                    "duration": 0.11874999999997726
                },
                {
                    "name": "G#3",
                    "midi": 56,
                    "time": 337.7041666666675,
                    "velocity": 0.7322834645669292,
                    "duration": 0.10624999999998863
                },
                {
                    "name": "G#3",
                    "midi": 56,
                    "time": 337.8833333333342,
                    "velocity": 0.7401574803149606,
                    "duration": 0.07916666666665151
                },
                {
                    "name": "G#3",
                    "midi": 56,
                    "time": 338.0604166666675,
                    "velocity": 0.7874015748031497,
                    "duration": 0.10000000000002274
                },
                {
                    "name": "A3",
                    "midi": 57,
                    "time": 338.1166666666675,
                    "velocity": 0.5905511811023622,
                    "duration": 0.12083333333333712
                },
                {
                    "name": "A#3",
                    "midi": 58,
                    "time": 338.1916666666675,
                    "velocity": 0.7086614173228346,
                    "duration": 0.10833333333334849
                },
                {
                    "name": "A#3",
                    "midi": 58,
                    "time": 338.3791666666675,
                    "velocity": 0.7716535433070866,
                    "duration": 0.07708333333334849
                },
                {
                    "name": "A#3",
                    "midi": 58,
                    "time": 338.53958333333424,
                    "velocity": 0.7244094488188977,
                    "duration": 0.09166666666664014
                },
                {
                    "name": "B3",
                    "midi": 59,
                    "time": 338.6000000000009,
                    "velocity": 0.6614173228346457,
                    "duration": 0.125
                },
                {
                    "name": "C4",
                    "midi": 60,
                    "time": 338.6833333333342,
                    "velocity": 0.6692913385826772,
                    "duration": 0.08958333333333712
                },
                {
                    "name": "C4",
                    "midi": 60,
                    "time": 338.86041666666756,
                    "velocity": 0.7952755905511811,
                    "duration": 0.07291666666668561
                },
                {
                    "name": "C4",
                    "midi": 60,
                    "time": 339.02708333333425,
                    "velocity": 0.7952755905511811,
                    "duration": 0.08958333333333712
                },
                {
                    "name": "C#4",
                    "midi": 61,
                    "time": 339.0812500000009,
                    "velocity": 0.7244094488188977,
                    "duration": 0.1166666666666174
                },
                {
                    "name": "D4",
                    "midi": 62,
                    "time": 339.14166666666756,
                    "velocity": 0.6220472440944882,
                    "duration": 0.10624999999998863
                },
                {
                    "name": "D4",
                    "midi": 62,
                    "time": 339.3145833333342,
                    "velocity": 0.7322834645669292,
                    "duration": 0.08333333333331439
                },
                {
                    "name": "D4",
                    "midi": 62,
                    "time": 339.4895833333342,
                    "velocity": 0.7637795275590551,
                    "duration": 0.0875000000000341
                },
                {
                    "name": "D#4",
                    "midi": 63,
                    "time": 339.5333333333342,
                    "velocity": 0.7637795275590551,
                    "duration": 0.12916666666671972
                },
                {
                    "name": "E4",
                    "midi": 64,
                    "time": 339.6104166666676,
                    "velocity": 0.5905511811023622,
                    "duration": 0.10833333333329165
                },
                {
                    "name": "E4",
                    "midi": 64,
                    "time": 339.78958333333424,
                    "velocity": 0.7401574803149606,
                    "duration": 0.07916666666665151
                },
                {
                    "name": "E4",
                    "midi": 64,
                    "time": 339.94583333333424,
                    "velocity": 0.7401574803149606,
                    "duration": 0.09791666666666288
                },
                {
                    "name": "F4",
                    "midi": 65,
                    "time": 340.00833333333424,
                    "velocity": 0.7244094488188977,
                    "duration": 0.11458333333331439
                },
                {
                    "name": "F#4",
                    "midi": 66,
                    "time": 340.0875000000009,
                    "velocity": 0.7559055118110236,
                    "duration": 0.09791666666666288
                },
                {
                    "name": "F#4",
                    "midi": 66,
                    "time": 340.2520833333342,
                    "velocity": 0.8188976377952756,
                    "duration": 0.11041666666665151
                },
                {
                    "name": "F#4",
                    "midi": 66,
                    "time": 340.4395833333342,
                    "velocity": 0.6535433070866141,
                    "duration": 0.08125000000001137
                },
                {
                    "name": "G4",
                    "midi": 67,
                    "time": 340.46666666666755,
                    "velocity": 0.7086614173228346,
                    "duration": 0.19166666666666288
                },
                {
                    "name": "G#4",
                    "midi": 68,
                    "time": 340.59166666666755,
                    "velocity": 0.6062992125984252,
                    "duration": 0.13749999999998863
                },
                {
                    "name": "G#4",
                    "midi": 68,
                    "time": 341.01666666666756,
                    "velocity": 0.6614173228346457,
                    "duration": 0.16875000000004547
                },
                {
                    "name": "A4",
                    "midi": 69,
                    "time": 341.25000000000097,
                    "velocity": 0.4409448818897638,
                    "duration": 0.06458333333335986
                },
                {
                    "name": "G#4",
                    "midi": 68,
                    "time": 341.41666666666765,
                    "velocity": 0.48031496062992124,
                    "duration": 0.07500000000004547
                },
                {
                    "name": "A#4",
                    "midi": 70,
                    "time": 341.418750000001,
                    "velocity": 0.6614173228346457,
                    "duration": 0.08541666666667425
                },
                {
                    "name": "A4",
                    "midi": 69,
                    "time": 341.556250000001,
                    "velocity": 0.4566929133858268,
                    "duration": 0.09583333333330302
                },
                {
                    "name": "B4",
                    "midi": 71,
                    "time": 341.5791666666677,
                    "velocity": 0.2047244094488189,
                    "duration": 0.052083333333314386
                },
                {
                    "name": "C5",
                    "midi": 72,
                    "time": 341.67916666666764,
                    "velocity": 0.49606299212598426,
                    "duration": 0.06458333333335986
                },
                {
                    "name": "B4",
                    "midi": 71,
                    "time": 341.77083333333434,
                    "velocity": 0.5669291338582677,
                    "duration": 0.10208333333332575
                },
                {
                    "name": "C#5",
                    "midi": 73,
                    "time": 341.7729166666677,
                    "velocity": 0.6377952755905512,
                    "duration": 0.04374999999998863
                },
                {
                    "name": "D5",
                    "midi": 74,
                    "time": 341.868750000001,
                    "velocity": 0.5905511811023622,
                    "duration": 0.05208333333337123
                },
                {
                    "name": "C5",
                    "midi": 72,
                    "time": 341.887500000001,
                    "velocity": 0.49606299212598426,
                    "duration": 0.10000000000002274
                },
                {
                    "name": "D#5",
                    "midi": 75,
                    "time": 341.9520833333344,
                    "velocity": 0.6535433070866141,
                    "duration": 0.09375
                },
                {
                    "name": "C#5",
                    "midi": 73,
                    "time": 341.9979166666677,
                    "velocity": 0.5984251968503937,
                    "duration": 0.07083333333332575
                },
                {
                    "name": "E5",
                    "midi": 76,
                    "time": 342.0666666666677,
                    "velocity": 0.4645669291338583,
                    "duration": 0.06041666666669698
                },
                {
                    "name": "D5",
                    "midi": 74,
                    "time": 342.08750000000106,
                    "velocity": 0.3464566929133858,
                    "duration": 0.1416666666666515
                },
                {
                    "name": "F5",
                    "midi": 77,
                    "time": 342.2083333333344,
                    "velocity": 0.3700787401574803,
                    "duration": 0.12708333333330302
                },
                {
                    "name": "D#5",
                    "midi": 75,
                    "time": 342.2395833333344,
                    "velocity": 0.33858267716535434,
                    "duration": 0.10624999999998863
                },
                {
                    "name": "F#5",
                    "midi": 78,
                    "time": 342.38750000000107,
                    "velocity": 0.2755905511811024,
                    "duration": 0.2125000000000341
                },
                {
                    "name": "E5",
                    "midi": 76,
                    "time": 342.39791666666775,
                    "velocity": 0.2047244094488189,
                    "duration": 0.20625000000001137
                },
                {
                    "name": "G3",
                    "midi": 55,
                    "time": 344.06458333333444,
                    "velocity": 0.2204724409448819,
                    "duration": 0.24374999999997726
                },
                {
                    "name": "F#5",
                    "midi": 78,
                    "time": 344.47916666666777,
                    "velocity": 0.33070866141732286,
                    "duration": 0.14583333333337123
                },
                {
                    "name": "G5",
                    "midi": 79,
                    "time": 344.5750000000011,
                    "velocity": 0.3937007874015748,
                    "duration": 0.1395833333333485
                },
                {
                    "name": "G5",
                    "midi": 79,
                    "time": 345.0250000000011,
                    "velocity": 0.4645669291338583,
                    "duration": 0.15625000000005684
                },
                {
                    "name": "B4",
                    "midi": 71,
                    "time": 345.0291666666678,
                    "velocity": 0.14960629921259844,
                    "duration": 0.11041666666670835
                },
                {
                    "name": "D4",
                    "midi": 62,
                    "time": 345.0354166666678,
                    "velocity": 0.2047244094488189,
                    "duration": 0.10625000000004547
                },
                {
                    "name": "G4",
                    "midi": 67,
                    "time": 345.03750000000116,
                    "velocity": 0.2047244094488189,
                    "duration": 0.08541666666667425
                },
                {
                    "name": "B4",
                    "midi": 71,
                    "time": 345.33958333333453,
                    "velocity": 0.5354330708661418,
                    "duration": 0.04374999999998863
                },
                {
                    "name": "G5",
                    "midi": 79,
                    "time": 345.3416666666679,
                    "velocity": 0.6929133858267716,
                    "duration": 0.08541666666667425
                },
                {
                    "name": "D4",
                    "midi": 62,
                    "time": 345.37083333333453,
                    "velocity": 0.29133858267716534,
                    "duration": 0.05000000000001137
                },
                {
                    "name": "A5",
                    "midi": 81,
                    "time": 345.6854166666679,
                    "velocity": 0.47244094488188976,
                    "duration": 0.10833333333334849
                },
                {
                    "name": "G5",
                    "midi": 79,
                    "time": 345.70833333333456,
                    "velocity": 0.5669291338582677,
                    "duration": 0.17499999999995453
                },
                {
                    "name": "D3",
                    "midi": 50,
                    "time": 345.7145833333346,
                    "velocity": 0.33858267716535434,
                    "duration": 0.1479166666666174
                },
                {
                    "name": "F#5",
                    "midi": 78,
                    "time": 345.8104166666679,
                    "velocity": 0.5511811023622047,
                    "duration": 0.16041666666660603
                },
                {
                    "name": "F5",
                    "midi": 77,
                    "time": 345.96666666666783,
                    "velocity": 0.5354330708661418,
                    "duration": 0.17708333333331439
                },
                {
                    "name": "C5",
                    "midi": 72,
                    "time": 346.24791666666783,
                    "velocity": 0.4251968503937008,
                    "duration": 0.12083333333339397
                },
                {
                    "name": "F5",
                    "midi": 77,
                    "time": 346.2500000000012,
                    "velocity": 0.5669291338582677,
                    "duration": 0.05833333333333712
                },
                {
                    "name": "F#4",
                    "midi": 66,
                    "time": 346.27500000000117,
                    "velocity": 0.1889763779527559,
                    "duration": 0.08333333333337123
                },
                {
                    "name": "D4",
                    "midi": 62,
                    "time": 346.28541666666786,
                    "velocity": 0.18110236220472442,
                    "duration": 0.10000000000002274
                },
                {
                    "name": "F5",
                    "midi": 77,
                    "time": 346.5395833333345,
                    "velocity": 0.5669291338582677,
                    "duration": 0.0625
                },
                {
                    "name": "C5",
                    "midi": 72,
                    "time": 346.54583333333454,
                    "velocity": 0.4015748031496063,
                    "duration": 0.0541666666666174
                },
                {
                    "name": "F#4",
                    "midi": 66,
                    "time": 346.56666666666786,
                    "velocity": 0.18110236220472442,
                    "duration": 0.04583333333334849
                },
                {
                    "name": "D4",
                    "midi": 62,
                    "time": 346.5750000000012,
                    "velocity": 0.1889763779527559,
                    "duration": 0.05000000000001137
                },
                {
                    "name": "F5",
                    "midi": 77,
                    "time": 346.9479166666679,
                    "velocity": 0.4645669291338583,
                    "duration": 0.13541666666668561
                },
                {
                    "name": "G3",
                    "midi": 55,
                    "time": 346.96041666666787,
                    "velocity": 0.1732283464566929,
                    "duration": 0.17500000000001137
                },
                {
                    "name": "F#5",
                    "midi": 78,
                    "time": 347.0812500000012,
                    "velocity": 0.5748031496062992,
                    "duration": 0.14375000000001137
                },
                {
                    "name": "G5",
                    "midi": 79,
                    "time": 347.23958333333456,
                    "velocity": 0.5590551181102362,
                    "duration": 0.1708333333333485
                },
                {
                    "name": "G5",
                    "midi": 79,
                    "time": 347.5041666666679,
                    "velocity": 0.7165354330708661,
                    "duration": 0.0958333333334167
                },
                {
                    "name": "B4",
                    "midi": 71,
                    "time": 347.5062500000013,
                    "velocity": 0.33070866141732286,
                    "duration": 0.0875000000000341
                },
                {
                    "name": "G4",
                    "midi": 67,
                    "time": 347.51875000000126,
                    "velocity": 0.2677165354330709,
                    "duration": 0.07291666666668561
                },
                {
                    "name": "G5",
                    "midi": 79,
                    "time": 347.729166666668,
                    "velocity": 0.7401574803149606,
                    "duration": 0.0875000000000341
                },
                {
                    "name": "B4",
                    "midi": 71,
                    "time": 347.735416666668,
                    "velocity": 0.5196850393700787,
                    "duration": 0.04583333333334849
                },
                {
                    "name": "D4",
                    "midi": 62,
                    "time": 347.7458333333347,
                    "velocity": 0.5354330708661418,
                    "duration": 0.054166666666674246
                },
                {
                    "name": "G5",
                    "midi": 79,
                    "time": 347.979166666668,
                    "velocity": 0.6535433070866141,
                    "duration": 0.09583333333330302
                },
                {
                    "name": "D3",
                    "midi": 50,
                    "time": 348.03333333333467,
                    "velocity": 0.5433070866141733,
                    "duration": 0.15625
                },
                {
                    "name": "G#5",
                    "midi": 80,
                    "time": 348.054166666668,
                    "velocity": 0.6771653543307087,
                    "duration": 0.09375
                },
                {
                    "name": "A5",
                    "midi": 81,
                    "time": 348.13333333333463,
                    "velocity": 0.5748031496062992,
                    "duration": 0.10000000000002274
                },
                {
                    "name": "A#5",
                    "midi": 82,
                    "time": 348.2062500000013,
                    "velocity": 0.7795275590551181,
                    "duration": 0.07708333333334849
                },
                {
                    "name": "A#5",
                    "midi": 82,
                    "time": 348.485416666668,
                    "velocity": 0.8188976377952756,
                    "duration": 0.11250000000006821
                },
                {
                    "name": "C5",
                    "midi": 72,
                    "time": 348.50208333333467,
                    "velocity": 0.3858267716535433,
                    "duration": 0.0708333333333826
                },
                {
                    "name": "F#4",
                    "midi": 66,
                    "time": 348.504166666668,
                    "velocity": 0.44881889763779526,
                    "duration": 0.07500000000004547
                },
                {
                    "name": "C5",
                    "midi": 72,
                    "time": 348.74583333333476,
                    "velocity": 0.5590551181102362,
                    "duration": 0.04374999999998863
                },
                {
                    "name": "A#5",
                    "midi": 82,
                    "time": 348.74583333333476,
                    "velocity": 0.8346456692913385,
                    "duration": 0.12708333333330302
                },
                {
                    "name": "D4",
                    "midi": 62,
                    "time": 348.7541666666681,
                    "velocity": 0.49606299212598426,
                    "duration": 0.07083333333332575
                },
                {
                    "name": "F#4",
                    "midi": 66,
                    "time": 348.7750000000014,
                    "velocity": 0.3464566929133858,
                    "duration": 0.041666666666685614
                },
                {
                    "name": "A#5",
                    "midi": 82,
                    "time": 349.0375000000014,
                    "velocity": 0.8976377952755905,
                    "duration": 0.4145833333333826
                },
                {
                    "name": "G3",
                    "midi": 55,
                    "time": 349.07708333333477,
                    "velocity": 0.1889763779527559,
                    "duration": 0.25833333333332575
                },
                {
                    "name": "B5",
                    "midi": 83,
                    "time": 349.4166666666681,
                    "velocity": 0.6850393700787402,
                    "duration": 0.34375
                },
                {
                    "name": "B4",
                    "midi": 71,
                    "time": 349.71458333333476,
                    "velocity": 0.2283464566929134,
                    "duration": 0.10625000000004547
                },
                {
                    "name": "G5",
                    "midi": 79,
                    "time": 349.7208333333348,
                    "velocity": 0.6062992125984252,
                    "duration": 0.2437500000000341
                },
                {
                    "name": "D4",
                    "midi": 62,
                    "time": 349.7291666666681,
                    "velocity": 0.2283464566929134,
                    "duration": 0.08958333333333712
                },
                {
                    "name": "B4",
                    "midi": 71,
                    "time": 349.9687500000015,
                    "velocity": 0.36220472440944884,
                    "duration": 0.05208333333337123
                },
                {
                    "name": "D4",
                    "midi": 62,
                    "time": 349.9687500000015,
                    "velocity": 0.4645669291338583,
                    "duration": 0.06250000000005684
                },
                {
                    "name": "E5",
                    "midi": 76,
                    "time": 349.97083333333484,
                    "velocity": 0.6929133858267716,
                    "duration": 0.12083333333333712
                },
                {
                    "name": "G5",
                    "midi": 79,
                    "time": 350.2020833333348,
                    "velocity": 0.4566929133858268,
                    "duration": 0.13750000000004547
                },
                {
                    "name": "F5",
                    "midi": 77,
                    "time": 350.23958333333485,
                    "velocity": 0.5984251968503937,
                    "duration": 0.3312500000000682
                },
                {
                    "name": "D3",
                    "midi": 50,
                    "time": 350.2750000000015,
                    "velocity": 0.4409448818897638,
                    "duration": 0.1437500000000682
                },
                {
                    "name": "E5",
                    "midi": 76,
                    "time": 350.5208333333349,
                    "velocity": 0.5196850393700787,
                    "duration": 0.28958333333332575
                },
                {
                    "name": "F#4",
                    "midi": 66,
                    "time": 350.7895833333349,
                    "velocity": 0.33858267716535434,
                    "duration": 0.09791666666666288
                },
                {
                    "name": "D5",
                    "midi": 74,
                    "time": 350.80625000000157,
                    "velocity": 0.5984251968503937,
                    "duration": 0.09166666666669698
                },
                {
                    "name": "D4",
                    "midi": 62,
                    "time": 350.81666666666825,
                    "velocity": 0.11023622047244094,
                    "duration": 0.09583333333335986
                },
                {
                    "name": "C5",
                    "midi": 72,
                    "time": 350.8250000000016,
                    "velocity": 0.10236220472440945,
                    "duration": 0.08125000000001137
                },
                {
                    "name": "A#4",
                    "midi": 70,
                    "time": 351.09583333333495,
                    "velocity": 0.7401574803149606,
                    "duration": 0.11250000000006821
                },
                {
                    "name": "C5",
                    "midi": 72,
                    "time": 351.11458333333496,
                    "velocity": 0.4094488188976378,
                    "duration": 0.05208333333337123
                },
                {
                    "name": "F#4",
                    "midi": 66,
                    "time": 351.120833333335,
                    "velocity": 0.3937007874015748,
                    "duration": 0.04791666666670835
                },
                {
                    "name": "G3",
                    "midi": 55,
                    "time": 351.470833333335,
                    "velocity": 0.12598425196850394,
                    "duration": 1.3062500000002046
                },
                {
                    "name": "B4",
                    "midi": 71,
                    "time": 351.5125000000017,
                    "velocity": 0.6220472440944882,
                    "duration": 0.3979166666667311
                },
                {
                    "name": "D5",
                    "midi": 74,
                    "time": 351.8812500000018,
                    "velocity": 0.5118110236220472,
                    "duration": 0.32499999999998863
                },
                {
                    "name": "D4",
                    "midi": 62,
                    "time": 352.1604166666684,
                    "velocity": 0.13385826771653545,
                    "duration": 0.07916666666670835
                },
                {
                    "name": "B4",
                    "midi": 71,
                    "time": 352.1625000000018,
                    "velocity": 0.4015748031496063,
                    "duration": 0.36041666666670835
                },
                {
                    "name": "G4",
                    "midi": 67,
                    "time": 352.5229166666685,
                    "velocity": 0.3779527559055118,
                    "duration": 1.9479166666666288
                },
                {
                    "name": "B3",
                    "midi": 59,
                    "time": 352.53750000000184,
                    "velocity": 0.2283464566929134,
                    "duration": 0.19375000000002274
                },
                {
                    "name": "D4",
                    "midi": 62,
                    "time": 352.54375000000186,
                    "velocity": 0.15748031496062992,
                    "duration": 0.12083333333333712
                },
                {
                    "name": "F3",
                    "midi": 53,
                    "time": 353.08750000000185,
                    "velocity": 0.5984251968503937,
                    "duration": 0.44791666666662877
                },
                {
                    "name": "C4",
                    "midi": 60,
                    "time": 353.08750000000185,
                    "velocity": 0.5118110236220472,
                    "duration": 1.0166666666666515
                },
                {
                    "name": "A3",
                    "midi": 57,
                    "time": 353.10625000000186,
                    "velocity": 0.29133858267716534,
                    "duration": 0.8833333333333258
                },
                {
                    "name": "D#3",
                    "midi": 51,
                    "time": 353.46458333333516,
                    "velocity": 0.3858267716535433,
                    "duration": 0.2979166666666515
                },
                {
                    "name": "F3",
                    "midi": 53,
                    "time": 353.7104166666685,
                    "velocity": 0.5118110236220472,
                    "duration": 0.19791666666668561
                },
                {
                    "name": "D#3",
                    "midi": 51,
                    "time": 353.8916666666685,
                    "velocity": 0.4566929133858268,
                    "duration": 0.15625
                },
                {
                    "name": "F3",
                    "midi": 53,
                    "time": 354.07708333333517,
                    "velocity": 0.28346456692913385,
                    "duration": 0.16666666666662877
                },
                {
                    "name": "D#3",
                    "midi": 51,
                    "time": 354.22708333333514,
                    "velocity": 0.5669291338582677,
                    "duration": 0.12291666666664014
                },
                {
                    "name": "G2",
                    "midi": 43,
                    "time": 354.4416666666684,
                    "velocity": 0.4330708661417323,
                    "duration": 0.3437500000001137
                },
                {
                    "name": "D3",
                    "midi": 50,
                    "time": 354.4562500000018,
                    "velocity": 0.29133858267716534,
                    "duration": 0.36666666666678793
                },
                {
                    "name": "G3",
                    "midi": 55,
                    "time": 354.51458333333517,
                    "velocity": 0.4645669291338583,
                    "duration": 0.16041666666671972
                },
                {
                    "name": "B3",
                    "midi": 59,
                    "time": 354.5166666666685,
                    "velocity": 0.5590551181102362,
                    "duration": 0.19791666666668561
                },
                {
                    "name": "F#5",
                    "midi": 78,
                    "time": 355.04166666666856,
                    "velocity": 0.47244094488188976,
                    "duration": 0.09583333333335986
                },
                {
                    "name": "G5",
                    "midi": 79,
                    "time": 355.1000000000019,
                    "velocity": 0.6692913385826772,
                    "duration": 0.07916666666670835
                },
                {
                    "name": "G5",
                    "midi": 79,
                    "time": 355.5125000000019,
                    "velocity": 0.6535433070866141,
                    "duration": 0.20416666666670835
                },
                {
                    "name": "B4",
                    "midi": 71,
                    "time": 355.51875000000194,
                    "velocity": 0.1968503937007874,
                    "duration": 0.10416666666668561
                },
                {
                    "name": "G4",
                    "midi": 67,
                    "time": 355.51875000000194,
                    "velocity": 0.25984251968503935,
                    "duration": 0.09583333333335986
                },
                {
                    "name": "B4",
                    "midi": 71,
                    "time": 355.80833333333527,
                    "velocity": 0.49606299212598426,
                    "duration": 0.04583333333334849
                },
                {
                    "name": "G5",
                    "midi": 79,
                    "time": 355.82083333333526,
                    "velocity": 0.7874015748031497,
                    "duration": 0.12083333333333712
                },
                {
                    "name": "D4",
                    "midi": 62,
                    "time": 355.8270833333353,
                    "velocity": 0.4015748031496063,
                    "duration": 0.05833333333333712
                },
                {
                    "name": "A5",
                    "midi": 81,
                    "time": 356.0854166666686,
                    "velocity": 0.6299212598425197,
                    "duration": 0.13958333333329165
                },
                {
                    "name": "G5",
                    "midi": 79,
                    "time": 356.1062500000019,
                    "velocity": 0.6692913385826772,
                    "duration": 0.16458333333332575
                },
                {
                    "name": "D3",
                    "midi": 50,
                    "time": 356.1166666666686,
                    "velocity": 0.6062992125984252,
                    "duration": 0.12708333333330302
                },
                {
                    "name": "F#5",
                    "midi": 78,
                    "time": 356.20833333333525,
                    "velocity": 0.6299212598425197,
                    "duration": 0.14583333333337123
                },
                {
                    "name": "F5",
                    "midi": 77,
                    "time": 356.3354166666686,
                    "velocity": 0.7244094488188977,
                    "duration": 0.11666666666667425
                },
                {
                    "name": "F5",
                    "midi": 77,
                    "time": 356.59166666666863,
                    "velocity": 0.7716535433070866,
                    "duration": 0.16875000000004547
                },
                {
                    "name": "C5",
                    "midi": 72,
                    "time": 356.6020833333353,
                    "velocity": 0.4251968503937008,
                    "duration": 0.1958333333333826
                },
                {
                    "name": "F#4",
                    "midi": 66,
                    "time": 356.6020833333353,
                    "velocity": 0.4330708661417323,
                    "duration": 0.2104166666667311
                },
                {
                    "name": "D4",
                    "midi": 62,
                    "time": 356.606250000002,
                    "velocity": 0.3779527559055118,
                    "duration": 0.21250000000009095
                },
                {
                    "name": "F5",
                    "midi": 77,
                    "time": 356.8583333333354,
                    "velocity": 0.6850393700787402,
                    "duration": 0.0854166666666174
                },
                {
                    "name": "C5",
                    "midi": 72,
                    "time": 356.8666666666687,
                    "velocity": 0.6377952755905512,
                    "duration": 0.06041666666664014
                },
                {
                    "name": "F#4",
                    "midi": 66,
                    "time": 356.8791666666687,
                    "velocity": 0.6771653543307087,
                    "duration": 0.052083333333314386
                },
                {
                    "name": "D4",
                    "midi": 62,
                    "time": 356.88750000000203,
                    "velocity": 0.49606299212598426,
                    "duration": 0.08124999999995453
                },
                {
                    "name": "F5",
                    "midi": 77,
                    "time": 357.14166666666864,
                    "velocity": 0.6614173228346457,
                    "duration": 0.10624999999993179
                },
                {
                    "name": "G3",
                    "midi": 55,
                    "time": 357.16250000000196,
                    "velocity": 0.4409448818897638,
                    "duration": 0.16458333333332575
                },
                {
                    "name": "F#5",
                    "midi": 78,
                    "time": 357.2229166666686,
                    "velocity": 0.7716535433070866,
                    "duration": 0.13541666666668561
                },
                {
                    "name": "G5",
                    "midi": 79,
                    "time": 357.3666666666686,
                    "velocity": 0.7086614173228346,
                    "duration": 0.15416666666664014
                },
                {
                    "name": "B4",
                    "midi": 71,
                    "time": 357.6104166666686,
                    "velocity": 0.49606299212598426,
                    "duration": 0.07499999999998863
                },
                {
                    "name": "G5",
                    "midi": 79,
                    "time": 357.6312500000019,
                    "velocity": 0.7165354330708661,
                    "duration": 0.09791666666671972
                },
                {
                    "name": "G4",
                    "midi": 67,
                    "time": 357.6312500000019,
                    "velocity": 0.29133858267716534,
                    "duration": 0.06458333333335986
                },
                {
                    "name": "D4",
                    "midi": 62,
                    "time": 357.64583333333525,
                    "velocity": 0.18110236220472442,
                    "duration": 0.06875000000002274
                },
                {
                    "name": "G5",
                    "midi": 79,
                    "time": 357.86041666666864,
                    "velocity": 0.7165354330708661,
                    "duration": 0.07708333333329165
                },
                {
                    "name": "B4",
                    "midi": 71,
                    "time": 357.86875000000197,
                    "velocity": 0.44881889763779526,
                    "duration": 0.04791666666665151
                },
                {
                    "name": "G5",
                    "midi": 79,
                    "time": 358.15208333333527,
                    "velocity": 0.5433070866141733,
                    "duration": 0.10000000000007958
                },
                {
                    "name": "D3",
                    "midi": 50,
                    "time": 358.21041666666866,
                    "velocity": 0.2677165354330709,
                    "duration": 0.15625
                },
                {
                    "name": "G#5",
                    "midi": 80,
                    "time": 358.225000000002,
                    "velocity": 0.6692913385826772,
                    "duration": 0.11666666666667425
                },
                {
                    "name": "A5",
                    "midi": 81,
                    "time": 358.30416666666866,
                    "velocity": 0.44881889763779526,
                    "duration": 0.11250000000001137
                },
                {
                    "name": "A#5",
                    "midi": 82,
                    "time": 358.3854166666687,
                    "velocity": 0.7244094488188977,
                    "duration": 0.09791666666666288
                },
                {
                    "name": "F#4",
                    "midi": 66,
                    "time": 358.74166666666866,
                    "velocity": 0.3937007874015748,
                    "duration": 0.10833333333334849
                },
                {
                    "name": "C5",
                    "midi": 72,
                    "time": 358.7458333333353,
                    "velocity": 0.28346456692913385,
                    "duration": 0.09791666666666288
                },
                {
                    "name": "A#5",
                    "midi": 82,
                    "time": 358.750000000002,
                    "velocity": 0.7322834645669292,
                    "duration": 0.12083333333339397
                },
                {
                    "name": "D4",
                    "midi": 62,
                    "time": 358.7708333333353,
                    "velocity": 0.10236220472440945,
                    "duration": 0.08958333333339397
                },
                {
                    "name": "C5",
                    "midi": 72,
                    "time": 359.09375000000205,
                    "velocity": 0.4409448818897638,
                    "duration": 0.09166666666664014
                },
                {
                    "name": "F#4",
                    "midi": 66,
                    "time": 359.1020833333354,
                    "velocity": 0.36220472440944884,
                    "duration": 0.08333333333331439
                },
                {
                    "name": "A#5",
                    "midi": 82,
                    "time": 359.10416666666873,
                    "velocity": 0.7559055118110236,
                    "duration": 0.12083333333328028
                },
                {
                    "name": "D4",
                    "midi": 62,
                    "time": 359.12500000000205,
                    "velocity": 0.3228346456692913,
                    "duration": 0.08749999999997726
                },
                {
                    "name": "G3",
                    "midi": 55,
                    "time": 359.5104166666687,
                    "velocity": 0.2992125984251969,
                    "duration": 0.38125000000002274
                },
                {
                    "name": "A#5",
                    "midi": 82,
                    "time": 359.5416666666687,
                    "velocity": 0.7007874015748031,
                    "duration": 0.4166666666666856
                },
                {
                    "name": "B5",
                    "midi": 83,
                    "time": 359.975000000002,
                    "velocity": 0.5984251968503937,
                    "duration": 0.33541666666667425
                },
                {
                    "name": "B4",
                    "midi": 71,
                    "time": 360.2770833333353,
                    "velocity": 0.14960629921259844,
                    "duration": 0.09791666666671972
                },
                {
                    "name": "G5",
                    "midi": 79,
                    "time": 360.281250000002,
                    "velocity": 0.6929133858267716,
                    "duration": 0.24375000000009095
                },
                {
                    "name": "D4",
                    "midi": 62,
                    "time": 360.2916666666687,
                    "velocity": 0.12598425196850394,
                    "duration": 0.10000000000002274
                },
                {
                    "name": "B4",
                    "midi": 71,
                    "time": 360.5229166666687,
                    "velocity": 0.5511811023622047,
                    "duration": 0.04583333333334849
                },
                {
                    "name": "E5",
                    "midi": 76,
                    "time": 360.52916666666874,
                    "velocity": 0.7401574803149606,
                    "duration": 0.1395833333333485
                },
                {
                    "name": "D4",
                    "midi": 62,
                    "time": 360.53958333333543,
                    "velocity": 0.4330708661417323,
                    "duration": 0.07083333333332575
                },
                {
                    "name": "G5",
                    "midi": 79,
                    "time": 360.7541666666688,
                    "velocity": 0.6141732283464567,
                    "duration": 0.1624999999999659
                },
                {
                    "name": "D3",
                    "midi": 50,
                    "time": 360.79166666666885,
                    "velocity": 0.5118110236220472,
                    "duration": 0.14999999999992042
                },
                {
                    "name": "F5",
                    "midi": 77,
                    "time": 360.8083333333355,
                    "velocity": 0.6614173228346457,
                    "duration": 0.2999999999998977
                },
                {
                    "name": "E5",
                    "midi": 76,
                    "time": 361.0520833333354,
                    "velocity": 0.6929133858267716,
                    "duration": 0.21875
                },
                {
                    "name": "F#4",
                    "midi": 66,
                    "time": 361.27708333333544,
                    "velocity": 0.5511811023622047,
                    "duration": 0.06875000000007958
                },
                {
                    "name": "D5",
                    "midi": 74,
                    "time": 361.2791666666688,
                    "velocity": 0.7874015748031497,
                    "duration": 0.08541666666673109
                },
                {
                    "name": "C5",
                    "midi": 72,
                    "time": 361.28125000000216,
                    "velocity": 0.4881889763779528,
                    "duration": 0.0625
                },
                {
                    "name": "D4",
                    "midi": 62,
                    "time": 361.3020833333355,
                    "velocity": 0.29133858267716534,
                    "duration": 0.06666666666671972
                },
                {
                    "name": "F#4",
                    "midi": 66,
                    "time": 361.52916666666886,
                    "velocity": 0.5748031496062992,
                    "duration": 0.03541666666671972
                },
                {
                    "name": "A#4",
                    "midi": 70,
                    "time": 361.5312500000022,
                    "velocity": 0.8582677165354331,
                    "duration": 0.06875000000002274
                },
                {
                    "name": "D4",
                    "midi": 62,
                    "time": 361.5333333333356,
                    "velocity": 0.4566929133858268,
                    "duration": 0.05000000000001137
                },
                {
                    "name": "G3",
                    "midi": 55,
                    "time": 361.8000000000022,
                    "velocity": 0.5590551181102362,
                    "duration": 0.5499999999999545
                },
                {
                    "name": "B4",
                    "midi": 71,
                    "time": 361.80833333333555,
                    "velocity": 0.7322834645669292,
                    "duration": 0.23958333333331439
                },
                {
                    "name": "D5",
                    "midi": 74,
                    "time": 362.06041666666886,
                    "velocity": 0.6614173228346457,
                    "duration": 0.27916666666664014
                },
                {
                    "name": "D4",
                    "midi": 62,
                    "time": 362.3145833333355,
                    "velocity": 0.5826771653543307,
                    "duration": 0.10208333333332575
                },
                {
                    "name": "B4",
                    "midi": 71,
                    "time": 362.32291666666885,
                    "velocity": 0.5984251968503937,
                    "duration": 0.3312500000000682
                },
                {
                    "name": "B3",
                    "midi": 59,
                    "time": 362.32291666666885,
                    "velocity": 0.5039370078740157,
                    "duration": 0.06666666666666288
                },
                {
                    "name": "G4",
                    "midi": 67,
                    "time": 362.6375000000022,
                    "velocity": 0.5984251968503937,
                    "duration": 0.22500000000002274
                },
                {
                    "name": "G2",
                    "midi": 43,
                    "time": 362.65208333333555,
                    "velocity": 0.5590551181102362,
                    "duration": 0.06041666666669698
                },
                {
                    "name": "F4",
                    "midi": 65,
                    "time": 363.0000000000022,
                    "velocity": 0.5433070866141733,
                    "duration": 0.06458333333335986
                },
                {
                    "name": "E5",
                    "midi": 76,
                    "time": 363.1666666666689,
                    "velocity": 0.48031496062992124,
                    "duration": 0.1708333333333485
                },
                {
                    "name": "A#4",
                    "midi": 70,
                    "time": 363.18125000000225,
                    "velocity": 0.4645669291338583,
                    "duration": 0.09791666666666288
                },
                {
                    "name": "D5",
                    "midi": 74,
                    "time": 363.38125000000224,
                    "velocity": 0.5669291338582677,
                    "duration": 0.10416666666668561
                },
                {
                    "name": "D4",
                    "midi": 62,
                    "time": 363.5500000000023,
                    "velocity": 0.3543307086614173,
                    "duration": 0.6479166666667879
                },
                {
                    "name": "B4",
                    "midi": 71,
                    "time": 363.8291666666689,
                    "velocity": 0.3464566929133858,
                    "duration": 0.3583333333334622
                },
                {
                    "name": "G3",
                    "midi": 55,
                    "time": 363.83541666666895,
                    "velocity": 0.11023622047244094,
                    "duration": 0.41041666666677656
                },
                {
                    "name": "G4",
                    "midi": 67,
                    "time": 363.8395833333356,
                    "velocity": 0.2204724409448819,
                    "duration": 0.24375000000009095
                },
                {
                    "name": "B3",
                    "midi": 59,
                    "time": 363.84166666666897,
                    "velocity": 0.2204724409448819,
                    "duration": 0.3958333333334281
                },
                {
                    "name": "F4",
                    "midi": 65,
                    "time": 363.86250000000234,
                    "velocity": 0.2440944881889764,
                    "duration": 0.28333333333335986
                },
                {
                    "name": "G5",
                    "midi": 79,
                    "time": 364.31458333333575,
                    "velocity": 0.6377952755905512,
                    "duration": 0.07499999999998863
                },
                {
                    "name": "D5",
                    "midi": 74,
                    "time": 364.31458333333575,
                    "velocity": 0.5354330708661418,
                    "duration": 0.04583333333334849
                },
                {
                    "name": "C3",
                    "midi": 48,
                    "time": 364.6687500000024,
                    "velocity": 0.4645669291338583,
                    "duration": 0.1791666666667311
                },
                {
                    "name": "G#6",
                    "midi": 92,
                    "time": 364.97708333333577,
                    "velocity": 0.7244094488188977,
                    "duration": 0.05833333333333712
                },
                {
                    "name": "A#3",
                    "midi": 58,
                    "time": 364.9979166666691,
                    "velocity": 0.5433070866141733,
                    "duration": 0.19375000000007958
                },
                {
                    "name": "A5",
                    "midi": 81,
                    "time": 365.00208333333575,
                    "velocity": 0.4645669291338583,
                    "duration": 0.056250000000034106
                },
                {
                    "name": "E4",
                    "midi": 64,
                    "time": 365.0041666666691,
                    "velocity": 0.33858267716535434,
                    "duration": 0.2583333333333826
                },
                {
                    "name": "A6",
                    "midi": 93,
                    "time": 365.00625000000247,
                    "velocity": 0.6614173228346457,
                    "duration": 0.054166666666674246
                },
                {
                    "name": "G6",
                    "midi": 91,
                    "time": 365.3625000000025,
                    "velocity": 0.7716535433070866,
                    "duration": 0.0625
                },
                {
                    "name": "G5",
                    "midi": 79,
                    "time": 365.3666666666692,
                    "velocity": 0.5826771653543307,
                    "duration": 0.04791666666665151
                },
                {
                    "name": "C7",
                    "midi": 96,
                    "time": 365.69166666666916,
                    "velocity": 0.7874015748031497,
                    "duration": 0.0395833333333826
                },
                {
                    "name": "A4",
                    "midi": 69,
                    "time": 365.70416666666915,
                    "velocity": 0.6141732283464567,
                    "duration": 0.058333333333393966
                },
                {
                    "name": "C6",
                    "midi": 84,
                    "time": 365.7104166666692,
                    "velocity": 0.4015748031496063,
                    "duration": 0.04583333333334849
                },
                {
                    "name": "A3",
                    "midi": 57,
                    "time": 365.7104166666692,
                    "velocity": 0.4409448818897638,
                    "duration": 0.10000000000002274
                },
                {
                    "name": "E4",
                    "midi": 64,
                    "time": 365.7291666666692,
                    "velocity": 0.4330708661417323,
                    "duration": 0.05000000000001137
                },
                {
                    "name": "C4",
                    "midi": 60,
                    "time": 365.75208333333586,
                    "velocity": 0.2992125984251969,
                    "duration": 0.05833333333333712
                },
                {
                    "name": "G3",
                    "midi": 55,
                    "time": 366.1875000000025,
                    "velocity": 0.25196850393700787,
                    "duration": 0.08958333333345081
                },
                {
                    "name": "G#6",
                    "midi": 92,
                    "time": 366.1937500000025,
                    "velocity": 0.6220472440944882,
                    "duration": 0.03125000000005684
                },
                {
                    "name": "A6",
                    "midi": 93,
                    "time": 366.2041666666692,
                    "velocity": 0.7795275590551181,
                    "duration": 0.06666666666671972
                },
                {
                    "name": "E4",
                    "midi": 64,
                    "time": 366.21250000000254,
                    "velocity": 0.5984251968503937,
                    "duration": 0.0791666666667652
                },
                {
                    "name": "G4",
                    "midi": 67,
                    "time": 366.2145833333359,
                    "velocity": 0.6692913385826772,
                    "duration": 0.07708333333340533
                },
                {
                    "name": "C4",
                    "midi": 60,
                    "time": 366.2145833333359,
                    "velocity": 0.5354330708661418,
                    "duration": 0.0708333333333826
                },
                {
                    "name": "A5",
                    "midi": 81,
                    "time": 366.2208333333359,
                    "velocity": 0.4015748031496063,
                    "duration": 0.05000000000001137
                },
                {
                    "name": "G5",
                    "midi": 79,
                    "time": 366.4562500000026,
                    "velocity": 0.5905511811023622,
                    "duration": 0.052083333333314386
                },
                {
                    "name": "A3",
                    "midi": 57,
                    "time": 366.66458333333594,
                    "velocity": 0.4094488188976378,
                    "duration": 0.08541666666684478
                },
                {
                    "name": "A4",
                    "midi": 69,
                    "time": 366.68333333333595,
                    "velocity": 0.6929133858267716,
                    "duration": 0.05208333333342807
                },
                {
                    "name": "C4",
                    "midi": 60,
                    "time": 366.6875000000026,
                    "velocity": 0.7007874015748031,
                    "duration": 0.07083333333349628
                },
                {
                    "name": "C6",
                    "midi": 84,
                    "time": 366.689583333336,
                    "velocity": 0.8346456692913385,
                    "duration": 0.052083333333484916
                },
                {
                    "name": "E4",
                    "midi": 64,
                    "time": 366.695833333336,
                    "velocity": 0.5748031496062992,
                    "duration": 0.04166666666674246
                },
                {
                    "name": "C5",
                    "midi": 72,
                    "time": 366.702083333336,
                    "velocity": 0.7086614173228346,
                    "duration": 0.03750000000007958
                },
                {
                    "name": "A#3",
                    "midi": 58,
                    "time": 367.1062500000028,
                    "velocity": 0.5511811023622047,
                    "duration": 0.09791666666671972
                },
                {
                    "name": "A#4",
                    "midi": 70,
                    "time": 367.1229166666694,
                    "velocity": 0.8267716535433071,
                    "duration": 0.04791666666665151
                },
                {
                    "name": "C6",
                    "midi": 84,
                    "time": 367.1270833333361,
                    "velocity": 0.8503937007874016,
                    "duration": 1.4562500000002387
                },
                {
                    "name": "C5",
                    "midi": 72,
                    "time": 367.1354166666694,
                    "velocity": 0.7401574803149606,
                    "duration": 0.09375000000005684
                },
                {
                    "name": "C4",
                    "midi": 60,
                    "time": 367.1395833333361,
                    "velocity": 0.4881889763779528,
                    "duration": 0.05416666666673109
                },
                {
                    "name": "E4",
                    "midi": 64,
                    "time": 367.1395833333361,
                    "velocity": 0.5590551181102362,
                    "duration": 0.041666666666685614
                },
                {
                    "name": "C4",
                    "midi": 60,
                    "time": 367.34583333333615,
                    "velocity": 0.03937007874015748,
                    "duration": 0.09375
                },
                {
                    "name": "A3",
                    "midi": 57,
                    "time": 367.35625000000283,
                    "velocity": 0.5039370078740157,
                    "duration": 0.08958333333333712
                },
                {
                    "name": "A4",
                    "midi": 69,
                    "time": 367.36458333333616,
                    "velocity": 0.6456692913385826,
                    "duration": 0.054166666666674246
                },
                {
                    "name": "E4",
                    "midi": 64,
                    "time": 367.3729166666695,
                    "velocity": 0.5196850393700787,
                    "duration": 0.05000000000001137
                },
                {
                    "name": "D5",
                    "midi": 74,
                    "time": 367.4645833333362,
                    "velocity": 0.6692913385826772,
                    "duration": 0.06041666666664014
                },
                {
                    "name": "D#5",
                    "midi": 75,
                    "time": 367.5562500000028,
                    "velocity": 0.84251968503937,
                    "duration": 0.06666666666666288
                },
                {
                    "name": "D#5",
                    "midi": 75,
                    "time": 367.67083333333613,
                    "velocity": 0.6692913385826772,
                    "duration": 0.07499999999998863
                },
                {
                    "name": "A#3",
                    "midi": 58,
                    "time": 367.75208333333615,
                    "velocity": 0.6062992125984252,
                    "duration": 0.11041666666665151
                },
                {
                    "name": "A#4",
                    "midi": 70,
                    "time": 367.75833333333617,
                    "velocity": 0.7086614173228346,
                    "duration": 0.06458333333330302
                },
                {
                    "name": "C4",
                    "midi": 60,
                    "time": 367.8062500000028,
                    "velocity": 0.18110236220472442,
                    "duration": 0.3583333333333485
                },
                {
                    "name": "D5",
                    "midi": 74,
                    "time": 367.90833333333615,
                    "velocity": 0.7401574803149606,
                    "duration": 0.06041666666664014
                },
                {
                    "name": "D#5",
                    "midi": 75,
                    "time": 368.0125000000028,
                    "velocity": 0.9291338582677166,
                    "duration": 0.09375000000005684
                },
                {
                    "name": "A4",
                    "midi": 69,
                    "time": 368.02500000000276,
                    "velocity": 0.7559055118110236,
                    "duration": 0.13125000000007958
                },
                {
                    "name": "A3",
                    "midi": 57,
                    "time": 368.0270833333361,
                    "velocity": 0.5748031496062992,
                    "duration": 0.17291666666670835
                },
                {
                    "name": "E4",
                    "midi": 64,
                    "time": 368.0312500000028,
                    "velocity": 0.6929133858267716,
                    "duration": 0.1187500000000341
                },
                {
                    "name": "D#5",
                    "midi": 75,
                    "time": 368.14583333333616,
                    "velocity": 0.5905511811023622,
                    "duration": 0.22500000000002274
                },
                {
                    "name": "D5",
                    "midi": 74,
                    "time": 368.4083333333362,
                    "velocity": 0.6141732283464567,
                    "duration": 0.05208333333337123
                },
                {
                    "name": "G3",
                    "midi": 55,
                    "time": 368.52083333333627,
                    "velocity": 0.2047244094488189,
                    "duration": 0.18125000000009095
                },
                {
                    "name": "D#5",
                    "midi": 75,
                    "time": 368.52500000000293,
                    "velocity": 0.8818897637795275,
                    "duration": 0.1416666666667652
                },
                {
                    "name": "C4",
                    "midi": 60,
                    "time": 368.54166666666964,
                    "velocity": 0.4094488188976378,
                    "duration": 0.12083333333333712
                },
                {
                    "name": "E4",
                    "midi": 64,
                    "time": 368.54166666666964,
                    "velocity": 0.48031496062992124,
                    "duration": 0.10416666666668561
                },
                {
                    "name": "G4",
                    "midi": 67,
                    "time": 368.55000000000297,
                    "velocity": 0.5984251968503937,
                    "duration": 0.0875000000000341
                },
                {
                    "name": "D5",
                    "midi": 74,
                    "time": 368.66458333333634,
                    "velocity": 0.5826771653543307,
                    "duration": 0.125
                },
                {
                    "name": "C5",
                    "midi": 72,
                    "time": 368.806250000003,
                    "velocity": 0.5984251968503937,
                    "duration": 0.14791666666667425
                },
                {
                    "name": "C3",
                    "midi": 48,
                    "time": 368.99583333333635,
                    "velocity": 0.5354330708661418,
                    "duration": 0.1500000000000341
                },
                {
                    "name": "G3",
                    "midi": 55,
                    "time": 369.1104166666697,
                    "velocity": 0.48031496062992124,
                    "duration": 0.25
                },
                {
                    "name": "G#6",
                    "midi": 92,
                    "time": 369.2791666666697,
                    "velocity": 0.6220472440944882,
                    "duration": 0.041666666666685614
                },
                {
                    "name": "A6",
                    "midi": 93,
                    "time": 369.30625000000305,
                    "velocity": 0.7165354330708661,
                    "duration": 0.058333333333393966
                },
                {
                    "name": "A5",
                    "midi": 81,
                    "time": 369.3083333333364,
                    "velocity": 0.5354330708661418,
                    "duration": 0.054166666666674246
                },
                {
                    "name": "D#4",
                    "midi": 63,
                    "time": 369.32500000000306,
                    "velocity": 0.5669291338582677,
                    "duration": 0.11250000000006821
                },
                {
                    "name": "G6",
                    "midi": 91,
                    "time": 369.6270833333365,
                    "velocity": 0.7874015748031497,
                    "duration": 0.06666666666666288
                },
                {
                    "name": "G5",
                    "midi": 79,
                    "time": 369.64375000000314,
                    "velocity": 0.4881889763779528,
                    "duration": 0.056250000000034106
                },
                {
                    "name": "A3",
                    "midi": 57,
                    "time": 369.9041666666698,
                    "velocity": 0.4645669291338583,
                    "duration": 0.10833333333346218
                },
                {
                    "name": "C7",
                    "midi": 96,
                    "time": 369.91250000000315,
                    "velocity": 0.8346456692913385,
                    "duration": 0.06041666666675383
                },
                {
                    "name": "A4",
                    "midi": 69,
                    "time": 369.9145833333365,
                    "velocity": 0.6141732283464567,
                    "duration": 0.06875000000007958
                },
                {
                    "name": "D#4",
                    "midi": 63,
                    "time": 369.92083333333653,
                    "velocity": 0.6299212598425197,
                    "duration": 0.05000000000001137
                },
                {
                    "name": "C6",
                    "midi": 84,
                    "time": 369.92083333333653,
                    "velocity": 0.6929133858267716,
                    "duration": 0.039583333333325754
                },
                {
                    "name": "C4",
                    "midi": 60,
                    "time": 369.94166666666985,
                    "velocity": 0.5118110236220472,
                    "duration": 0.047916666666765195
                },
                {
                    "name": "G3",
                    "midi": 55,
                    "time": 370.3500000000033,
                    "velocity": 0.3543307086614173,
                    "duration": 0.11666666666673109
                },
                {
                    "name": "G#6",
                    "midi": 92,
                    "time": 370.35625000000334,
                    "velocity": 0.7401574803149606,
                    "duration": 0.03750000000007958
                },
                {
                    "name": "A6",
                    "midi": 93,
                    "time": 370.36458333333667,
                    "velocity": 0.8031496062992126,
                    "duration": 0.0708333333333826
                },
                {
                    "name": "A5",
                    "midi": 81,
                    "time": 370.36458333333667,
                    "velocity": 0.6535433070866141,
                    "duration": 0.05000000000006821
                },
                {
                    "name": "C4",
                    "midi": 60,
                    "time": 370.37916666667,
                    "velocity": 0.5590551181102362,
                    "duration": 0.09583333333335986
                },
                {
                    "name": "G4",
                    "midi": 67,
                    "time": 370.39166666667006,
                    "velocity": 0.6614173228346457,
                    "duration": 0.07916666666665151
                },
                {
                    "name": "D#4",
                    "midi": 63,
                    "time": 370.3937500000034,
                    "velocity": 0.6220472440944882,
                    "duration": 0.06249999999994316
                },
                {
                    "name": "G6",
                    "midi": 91,
                    "time": 370.57916666667006,
                    "velocity": 0.8346456692913385,
                    "duration": 0.03541666666666288
                },
                {
                    "name": "G5",
                    "midi": 79,
                    "time": 370.6000000000034,
                    "velocity": 0.3937007874015748,
                    "duration": 0.04583333333334849
                },
                {
                    "name": "A3",
                    "midi": 57,
                    "time": 370.7875000000034,
                    "velocity": 0.44881889763779526,
                    "duration": 0.07916666666670835
                },
                {
                    "name": "C6",
                    "midi": 84,
                    "time": 370.79791666667006,
                    "velocity": 0.7952755905511811,
                    "duration": 0.039583333333325754
                },
                {
                    "name": "A4",
                    "midi": 69,
                    "time": 370.8062500000034,
                    "velocity": 0.6692913385826772,
                    "duration": 0.04791666666665151
                },
                {
                    "name": "D#4",
                    "midi": 63,
                    "time": 370.81041666667005,
                    "velocity": 0.7007874015748031,
                    "duration": 0.056250000000034106
                },
                {
                    "name": "C5",
                    "midi": 72,
                    "time": 370.8145833333367,
                    "velocity": 0.5196850393700787,
                    "duration": 0.05208333333337123
                },
                {
                    "name": "C4",
                    "midi": 60,
                    "time": 370.82291666667004,
                    "velocity": 0.4645669291338583,
                    "duration": 0.041666666666685614
                },
                {
                    "name": "A#3",
                    "midi": 58,
                    "time": 371.1916666666701,
                    "velocity": 0.6377952755905512,
                    "duration": 0.09583333333353039
                },
                {
                    "name": "C6",
                    "midi": 84,
                    "time": 371.19375000000343,
                    "velocity": 0.84251968503937,
                    "duration": 0.07916666666682204
                },
                {
                    "name": "A#4",
                    "midi": 70,
                    "time": 371.20000000000346,
                    "velocity": 0.8267716535433071,
                    "duration": 0.06250000000011369
                },
                {
                    "name": "C5",
                    "midi": 72,
                    "time": 371.2062500000035,
                    "velocity": 0.6614173228346457,
                    "duration": 0.039583333333325754
                },
                {
                    "name": "D#4",
                    "midi": 63,
                    "time": 371.21041666667014,
                    "velocity": 0.7007874015748031,
                    "duration": 0.04791666666670835
                },
                {
                    "name": "C4",
                    "midi": 60,
                    "time": 371.2208333333368,
                    "velocity": 0.5590551181102362,
                    "duration": 0.05000000000006821
                },
                {
                    "name": "C4",
                    "midi": 60,
                    "time": 371.39583333333695,
                    "velocity": 0.33070866141732286,
                    "duration": 0.09791666666671972
                },
                {
                    "name": "A3",
                    "midi": 57,
                    "time": 371.4041666666703,
                    "velocity": 0.6141732283464567,
                    "duration": 0.0958333333334167
                },
                {
                    "name": "D#4",
                    "midi": 63,
                    "time": 371.40625000000364,
                    "velocity": 0.6929133858267716,
                    "duration": 0.06875000000002274
                },
                {
                    "name": "A4",
                    "midi": 69,
                    "time": 371.408333333337,
                    "velocity": 0.6850393700787402,
                    "duration": 0.07083333333332575
                },
                {
                    "name": "D5",
                    "midi": 74,
                    "time": 371.51666666667035,
                    "velocity": 0.6456692913385826,
                    "duration": 0.0625
                },
                {
                    "name": "D#5",
                    "midi": 75,
                    "time": 371.5812500000037,
                    "velocity": 0.84251968503937,
                    "duration": 0.05833333333333712
                },
                {
                    "name": "D#5",
                    "midi": 75,
                    "time": 371.6937500000037,
                    "velocity": 0.8976377952755905,
                    "duration": 0.06458333333335986
                },
                {
                    "name": "A#4",
                    "midi": 70,
                    "time": 371.81250000000375,
                    "velocity": 0.8110236220472441,
                    "duration": 0.07291666666668561
                },
                {
                    "name": "A#3",
                    "midi": 58,
                    "time": 371.8187500000038,
                    "velocity": 0.6299212598425197,
                    "duration": 0.07916666666665151
                },
                {
                    "name": "D#4",
                    "midi": 63,
                    "time": 371.8250000000038,
                    "velocity": 0.6456692913385826,
                    "duration": 0.04583333333329165
                },
                {
                    "name": "C4",
                    "midi": 60,
                    "time": 371.84166666667045,
                    "velocity": 0.44881889763779526,
                    "duration": 0.05624999999997726
                },
                {
                    "name": "D5",
                    "midi": 74,
                    "time": 371.93541666667045,
                    "velocity": 0.8031496062992126,
                    "duration": 0.06666666666666288
                },
                {
                    "name": "D#5",
                    "midi": 75,
                    "time": 372.0229166666704,
                    "velocity": 0.8818897637795275,
                    "duration": 0.0625
                },
                {
                    "name": "C4",
                    "midi": 60,
                    "time": 372.0708333333371,
                    "velocity": 0.25196850393700787,
                    "duration": 0.0875000000000341
                },
                {
                    "name": "A4",
                    "midi": 69,
                    "time": 372.07291666667044,
                    "velocity": 0.5984251968503937,
                    "duration": 0.06458333333330302
                },
                {
                    "name": "A3",
                    "midi": 57,
                    "time": 372.0770833333371,
                    "velocity": 0.47244094488188976,
                    "duration": 0.10416666666668561
                },
                {
                    "name": "D#4",
                    "midi": 63,
                    "time": 372.0770833333371,
                    "velocity": 0.5669291338582677,
                    "duration": 0.06041666666664014
                },
                {
                    "name": "D#5",
                    "midi": 75,
                    "time": 372.1520833333371,
                    "velocity": 0.905511811023622,
                    "duration": 0.23750000000001137
                },
                {
                    "name": "D5",
                    "midi": 74,
                    "time": 372.4104166666704,
                    "velocity": 0.8346456692913385,
                    "duration": 0.07500000000004547
                },
                {
                    "name": "D#5",
                    "midi": 75,
                    "time": 372.52916666667045,
                    "velocity": 0.8503937007874016,
                    "duration": 0.14166666666682204
                },
                {
                    "name": "G3",
                    "midi": 55,
                    "time": 372.53541666667047,
                    "velocity": 0.3858267716535433,
                    "duration": 0.26875000000012506
                },
                {
                    "name": "G4",
                    "midi": 67,
                    "time": 372.55833333333715,
                    "velocity": 0.5433070866141733,
                    "duration": 0.32500000000015916
                },
                {
                    "name": "C4",
                    "midi": 60,
                    "time": 372.5604166666705,
                    "velocity": 0.4330708661417323,
                    "duration": 0.2645833333334622
                },
                {
                    "name": "D#4",
                    "midi": 63,
                    "time": 372.56250000000387,
                    "velocity": 0.6141732283464567,
                    "duration": 0.24375000000009095
                },
                {
                    "name": "D5",
                    "midi": 74,
                    "time": 372.66458333333725,
                    "velocity": 0.7165354330708661,
                    "duration": 0.10000000000002274
                },
                {
                    "name": "C5",
                    "midi": 72,
                    "time": 372.8083333333373,
                    "velocity": 0.7165354330708661,
                    "duration": 0.2020833333333485
                },
                {
                    "name": "G3",
                    "midi": 55,
                    "time": 373.11458333333735,
                    "velocity": 0.5748031496062992,
                    "duration": 0.2604166666666856
                },
                {
                    "name": "F#5",
                    "midi": 78,
                    "time": 373.587500000004,
                    "velocity": 0.44881889763779526,
                    "duration": 0.09166666666664014
                },
                {
                    "name": "G5",
                    "midi": 79,
                    "time": 373.687500000004,
                    "velocity": 0.6614173228346457,
                    "duration": 0.11041666666665151
                },
                {
                    "name": "G5",
                    "midi": 79,
                    "time": 374.04375000000397,
                    "velocity": 0.6535433070866141,
                    "duration": 0.16041666666666288
                },
                {
                    "name": "D4",
                    "midi": 62,
                    "time": 374.06666666667064,
                    "velocity": 0.25196850393700787,
                    "duration": 0.12916666666666288
                },
                {
                    "name": "B4",
                    "midi": 71,
                    "time": 374.07500000000397,
                    "velocity": 0.2283464566929134,
                    "duration": 0.11250000000001137
                },
                {
                    "name": "G4",
                    "midi": 67,
                    "time": 374.07916666667063,
                    "velocity": 0.2047244094488189,
                    "duration": 0.10000000000002274
                },
                {
                    "name": "B4",
                    "midi": 71,
                    "time": 374.32916666667063,
                    "velocity": 0.5118110236220472,
                    "duration": 0.04583333333334849
                },
                {
                    "name": "G5",
                    "midi": 79,
                    "time": 374.33541666667065,
                    "velocity": 0.7795275590551181,
                    "duration": 0.1166666666666174
                },
                {
                    "name": "D4",
                    "midi": 62,
                    "time": 374.350000000004,
                    "velocity": 0.3858267716535433,
                    "duration": 0.049999999999954525
                },
                {
                    "name": "A5",
                    "midi": 81,
                    "time": 374.61250000000393,
                    "velocity": 0.6614173228346457,
                    "duration": 0.0708333333333826
                },
                {
                    "name": "G5",
                    "midi": 79,
                    "time": 374.6354166666706,
                    "velocity": 0.6692913385826772,
                    "duration": 0.1270833333334167
                },
                {
                    "name": "D3",
                    "midi": 50,
                    "time": 374.65000000000396,
                    "velocity": 0.41732283464566927,
                    "duration": 0.1750000000000682
                },
                {
                    "name": "F#5",
                    "midi": 78,
                    "time": 374.706250000004,
                    "velocity": 0.6614173228346457,
                    "duration": 0.12708333333335986
                },
                {
                    "name": "F5",
                    "midi": 77,
                    "time": 374.82083333333736,
                    "velocity": 0.6850393700787402,
                    "duration": 0.1416666666666515
                },
                {
                    "name": "F5",
                    "midi": 77,
                    "time": 375.0895833333374,
                    "velocity": 0.7637795275590551,
                    "duration": 0.07708333333334849
                },
                {
                    "name": "F#4",
                    "midi": 66,
                    "time": 375.0979166666707,
                    "velocity": 0.4409448818897638,
                    "duration": 0.10833333333334849
                },
                {
                    "name": "C5",
                    "midi": 72,
                    "time": 375.13333333333736,
                    "velocity": 0.25984251968503935,
                    "duration": 0.0625
                },
                {
                    "name": "C5",
                    "midi": 72,
                    "time": 375.34166666667073,
                    "velocity": 0.6456692913385826,
                    "duration": 0.05624999999997726
                },
                {
                    "name": "F5",
                    "midi": 77,
                    "time": 375.34791666667076,
                    "velocity": 0.84251968503937,
                    "duration": 0.07499999999993179
                },
                {
                    "name": "F#4",
                    "midi": 66,
                    "time": 375.3520833333374,
                    "velocity": 0.5511811023622047,
                    "duration": 0.049999999999954525
                },
                {
                    "name": "D4",
                    "midi": 62,
                    "time": 375.37291666667073,
                    "velocity": 0.1732283464566929,
                    "duration": 0.0687499999999659
                },
                {
                    "name": "F5",
                    "midi": 77,
                    "time": 375.5958333333374,
                    "velocity": 0.6929133858267716,
                    "duration": 0.15625000000005684
                },
                {
                    "name": "G3",
                    "midi": 55,
                    "time": 375.62291666667073,
                    "velocity": 0.5433070866141733,
                    "duration": 0.16250000000007958
                },
                {
                    "name": "F#5",
                    "midi": 78,
                    "time": 375.7125000000041,
                    "velocity": 0.7716535433070866,
                    "duration": 0.13333333333332575
                },
                {
                    "name": "G5",
                    "midi": 79,
                    "time": 375.8416666666708,
                    "velocity": 0.7401574803149606,
                    "duration": 0.16250000000002274
                },
                {
                    "name": "B4",
                    "midi": 71,
                    "time": 376.10625000000414,
                    "velocity": 0.25196850393700787,
                    "duration": 0.08749999999997726
                },
                {
                    "name": "G5",
                    "midi": 79,
                    "time": 376.1187500000041,
                    "velocity": 0.7007874015748031,
                    "duration": 0.09375
                },
                {
                    "name": "G5",
                    "midi": 79,
                    "time": 376.3833333333375,
                    "velocity": 0.7244094488188977,
                    "duration": 0.09375
                },
                {
                    "name": "B4",
                    "midi": 71,
                    "time": 376.3833333333375,
                    "velocity": 0.49606299212598426,
                    "duration": 0.054166666666674246
                },
                {
                    "name": "D4",
                    "midi": 62,
                    "time": 376.4020833333375,
                    "velocity": 0.4251968503937008,
                    "duration": 0.07916666666665151
                },
                {
                    "name": "G5",
                    "midi": 79,
                    "time": 376.70416666667086,
                    "velocity": 0.5433070866141733,
                    "duration": 0.12291666666669698
                },
                {
                    "name": "D3",
                    "midi": 50,
                    "time": 376.7500000000042,
                    "velocity": 0.30708661417322836,
                    "duration": 0.2020833333333485
                },
                {
                    "name": "G#5",
                    "midi": 80,
                    "time": 376.78750000000423,
                    "velocity": 0.5905511811023622,
                    "duration": 0.12916666666666288
                },
                {
                    "name": "A5",
                    "midi": 81,
                    "time": 376.8854166666709,
                    "velocity": 0.47244094488188976,
                    "duration": 0.12291666666664014
                },
                {
                    "name": "A#5",
                    "midi": 82,
                    "time": 376.98333333333755,
                    "velocity": 0.7007874015748031,
                    "duration": 0.10624999999998863
                },
                {
                    "name": "F#4",
                    "midi": 66,
                    "time": 377.4041666666709,
                    "velocity": 0.2440944881889764,
                    "duration": 0.12083333333333712
                },
                {
                    "name": "A#5",
                    "midi": 82,
                    "time": 377.4041666666709,
                    "velocity": 0.6141732283464567,
                    "duration": 0.15416666666669698
                },
                {
                    "name": "D4",
                    "midi": 62,
                    "time": 377.4250000000042,
                    "velocity": 0.1968503937007874,
                    "duration": 0.09791666666666288
                },
                {
                    "name": "C5",
                    "midi": 72,
                    "time": 377.4479166666709,
                    "velocity": 0.16535433070866143,
                    "duration": 0.11250000000006821
                },
                {
                    "name": "A#5",
                    "midi": 82,
                    "time": 377.8875000000043,
                    "velocity": 0.5511811023622047,
                    "duration": 0.10208333333332575
                },
                {
                    "name": "F#4",
                    "midi": 66,
                    "time": 377.9062500000043,
                    "velocity": 0.16535433070866143,
                    "duration": 0.11249999999995453
                },
                {
                    "name": "C5",
                    "midi": 72,
                    "time": 377.92083333333767,
                    "velocity": 0.14960629921259844,
                    "duration": 0.10624999999993179
                },
                {
                    "name": "D4",
                    "midi": 62,
                    "time": 377.9500000000043,
                    "velocity": 0.10236220472440945,
                    "duration": 0.09791666666660603
                },
                {
                    "name": "G3",
                    "midi": 55,
                    "time": 378.53333333333757,
                    "velocity": 0.15748031496062992,
                    "duration": 0.5791666666666515
                },
                {
                    "name": "A#5",
                    "midi": 82,
                    "time": 378.63125000000423,
                    "velocity": 0.47244094488188976,
                    "duration": 0.564583333333303
                },
                {
                    "name": "B5",
                    "midi": 83,
                    "time": 379.22708333333753,
                    "velocity": 0.5984251968503937,
                    "duration": 0.44999999999998863
                },
                {
                    "name": "D4",
                    "midi": 62,
                    "time": 379.59166666667085,
                    "velocity": 0.31496062992125984,
                    "duration": 0.12916666666666288
                },
                {
                    "name": "G5",
                    "midi": 79,
                    "time": 379.61041666667086,
                    "velocity": 0.6456692913385826,
                    "duration": 0.3166666666666629
                },
                {
                    "name": "G4",
                    "midi": 67,
                    "time": 379.6187500000042,
                    "velocity": 0.1889763779527559,
                    "duration": 0.12083333333333712
                },
                {
                    "name": "B4",
                    "midi": 71,
                    "time": 379.62083333333754,
                    "velocity": 0.2755905511811024,
                    "duration": 0.11874999999997726
                },
                {
                    "name": "E5",
                    "midi": 76,
                    "time": 379.9062500000042,
                    "velocity": 0.7637795275590551,
                    "duration": 0.24791666666664014
                },
                {
                    "name": "B4",
                    "midi": 71,
                    "time": 379.91458333333753,
                    "velocity": 0.5905511811023622,
                    "duration": 0.052083333333314386
                },
                {
                    "name": "G4",
                    "midi": 67,
                    "time": 379.9375000000042,
                    "velocity": 0.3937007874015748,
                    "duration": 0.052083333333314386
                },
                {
                    "name": "D4",
                    "midi": 62,
                    "time": 379.94583333333753,
                    "velocity": 0.44881889763779526,
                    "duration": 0.07499999999998863
                },
                {
                    "name": "G5",
                    "midi": 79,
                    "time": 380.2083333333375,
                    "velocity": 0.5669291338582677,
                    "duration": 0.1708333333333485
                },
                {
                    "name": "F5",
                    "midi": 77,
                    "time": 380.26666666667086,
                    "velocity": 0.5590551181102362,
                    "duration": 0.41250000000002274
                },
                {
                    "name": "D3",
                    "midi": 50,
                    "time": 380.29791666667086,
                    "velocity": 0.3937007874015748,
                    "duration": 0.2770833333333371
                },
                {
                    "name": "E5",
                    "midi": 76,
                    "time": 380.60208333333753,
                    "velocity": 0.5511811023622047,
                    "duration": 0.41458333333332575
                },
                {
                    "name": "F#4",
                    "midi": 66,
                    "time": 381.03541666667087,
                    "velocity": 0.11023622047244094,
                    "duration": 0.36041666666670835
                },
                {
                    "name": "D5",
                    "midi": 74,
                    "time": 381.0520833333375,
                    "velocity": 0.2755905511811024,
                    "duration": 0.6208333333334508
                },
                {
                    "name": "C5",
                    "midi": 72,
                    "time": 381.0625000000042,
                    "velocity": 0.2992125984251969,
                    "duration": 0.3458333333334167
                },
                {
                    "name": "D4",
                    "midi": 62,
                    "time": 381.0729166666709,
                    "velocity": 0.14173228346456693,
                    "duration": 0.3250000000000455
                },
                {
                    "name": "F#4",
                    "midi": 66,
                    "time": 381.62291666667096,
                    "velocity": 0.18110236220472442,
                    "duration": 0.3562500000000455
                },
                {
                    "name": "D4",
                    "midi": 62,
                    "time": 381.6437500000043,
                    "velocity": 0.16535433070866143,
                    "duration": 0.3312500000000682
                },
                {
                    "name": "A#4",
                    "midi": 70,
                    "time": 381.66666666667095,
                    "velocity": 0.5118110236220472,
                    "duration": 1.3187500000000227
                },
                {
                    "name": "C5",
                    "midi": 72,
                    "time": 381.741666666671,
                    "velocity": 0.05511811023622047,
                    "duration": 0.16041666666666288
                },
                {
                    "name": "G2",
                    "midi": 43,
                    "time": 382.97708333333765,
                    "velocity": 0.31496062992125984,
                    "duration": 0.8749999999999432
                },
                {
                    "name": "D3",
                    "midi": 50,
                    "time": 382.98958333333763,
                    "velocity": 0.2440944881889764,
                    "duration": 1.3854166666666288
                },
                {
                    "name": "B4",
                    "midi": 71,
                    "time": 383.0062500000043,
                    "velocity": 0.3543307086614173,
                    "duration": 0.7583333333333258
                },
                {
                    "name": "D5",
                    "midi": 74,
                    "time": 383.67916666667094,
                    "velocity": 0.4015748031496063,
                    "duration": 0.5041666666666629
                },
                {
                    "name": "B3",
                    "midi": 59,
                    "time": 384.0895833333376,
                    "velocity": 0.3464566929133858,
                    "duration": 0.08541666666667425
                },
                {
                    "name": "B4",
                    "midi": 71,
                    "time": 384.1000000000043,
                    "velocity": 0.5118110236220472,
                    "duration": 0.41458333333332575
                },
                {
                    "name": "B3",
                    "midi": 59,
                    "time": 384.4125000000043,
                    "velocity": 0.3228346456692913,
                    "duration": 0.08333333333331439
                },
                {
                    "name": "G4",
                    "midi": 67,
                    "time": 384.4250000000043,
                    "velocity": 0.5590551181102362,
                    "duration": 0.26249999999998863
                },
                {
                    "name": "G#2",
                    "midi": 44,
                    "time": 384.6916666666709,
                    "velocity": 0.6929133858267716,
                    "duration": 0.4729166666667197
                },
                {
                    "name": "D3",
                    "midi": 50,
                    "time": 384.7041666666709,
                    "velocity": 0.5590551181102362,
                    "duration": 0.5520833333333712
                },
                {
                    "name": "D5",
                    "midi": 74,
                    "time": 385.0041666666709,
                    "velocity": 0.6850393700787402,
                    "duration": 0.3541666666666856
                },
                {
                    "name": "B4",
                    "midi": 71,
                    "time": 385.29166666667095,
                    "velocity": 0.7637795275590551,
                    "duration": 0.3270833333333485
                },
                {
                    "name": "B3",
                    "midi": 59,
                    "time": 385.297916666671,
                    "velocity": 0.5275590551181102,
                    "duration": 0.09791666666666288
                },
                {
                    "name": "B3",
                    "midi": 59,
                    "time": 385.56041666667096,
                    "velocity": 0.5354330708661418,
                    "duration": 0.15416666666669698
                },
                {
                    "name": "F#4",
                    "midi": 66,
                    "time": 385.5687500000043,
                    "velocity": 0.8346456692913385,
                    "duration": 0.3875000000000455
                },
                {
                    "name": "A2",
                    "midi": 45,
                    "time": 385.8562500000043,
                    "velocity": 0.5433070866141733,
                    "duration": 0.5833333333334281
                },
                {
                    "name": "D3",
                    "midi": 50,
                    "time": 385.86458333333763,
                    "velocity": 0.5669291338582677,
                    "duration": 0.6875000000001137
                },
                {
                    "name": "F4",
                    "midi": 65,
                    "time": 385.94583333333765,
                    "velocity": 0.7795275590551181,
                    "duration": 0.5979166666667766
                },
                {
                    "name": "E5",
                    "midi": 76,
                    "time": 386.3750000000044,
                    "velocity": 0.7795275590551181,
                    "duration": 0.22083333333335986
                },
                {
                    "name": "D#5",
                    "midi": 75,
                    "time": 386.77083333333775,
                    "velocity": 0.7480314960629921,
                    "duration": 0.30000000000001137
                },
                {
                    "name": "F#4",
                    "midi": 66,
                    "time": 386.7875000000044,
                    "velocity": 0.6377952755905512,
                    "duration": 0.45625000000001137
                },
                {
                    "name": "C4",
                    "midi": 60,
                    "time": 386.79166666667106,
                    "velocity": 0.33858267716535434,
                    "duration": 0.10624999999998863
                },
                {
                    "name": "D5",
                    "midi": 74,
                    "time": 387.0583333333377,
                    "velocity": 0.7244094488188977,
                    "duration": 0.2625000000000455
                },
                {
                    "name": "C4",
                    "midi": 60,
                    "time": 387.06458333333774,
                    "velocity": 0.5354330708661418,
                    "duration": 0.18958333333335986
                },
                {
                    "name": "B3",
                    "midi": 59,
                    "time": 387.36250000000445,
                    "velocity": 0.3779527559055118,
                    "duration": 1.9125000000000796
                },
                {
                    "name": "F3",
                    "midi": 53,
                    "time": 387.37500000000443,
                    "velocity": 0.31496062992125984,
                    "duration": 0.9875000000000682
                },
                {
                    "name": "E5",
                    "midi": 76,
                    "time": 387.4104166666711,
                    "velocity": 0.6377952755905512,
                    "duration": 0.1875
                },
                {
                    "name": "G4",
                    "midi": 67,
                    "time": 387.4208333333378,
                    "velocity": 0.44881889763779526,
                    "duration": 0.6479166666666742
                },
                {
                    "name": "D#5",
                    "midi": 75,
                    "time": 387.59375000000443,
                    "velocity": 0.6456692913385826,
                    "duration": 0.16458333333332575
                },
                {
                    "name": "D5",
                    "midi": 74,
                    "time": 387.7958333333378,
                    "velocity": 0.33070866141732286,
                    "duration": 1.5666666666667197
                },
                {
                    "name": "E3",
                    "midi": 52,
                    "time": 388.3020833333378,
                    "velocity": 0.2677165354330709,
                    "duration": 0.8562500000000455
                },
                {
                    "name": "G#4",
                    "midi": 68,
                    "time": 388.3083333333378,
                    "velocity": 0.4015748031496063,
                    "duration": 0.8187500000000227
                },
                {
                    "name": "E3",
                    "midi": 52,
                    "time": 389.6229166666712,
                    "velocity": 0.08661417322834646,
                    "duration": 0.7250000000000796
                },
                {
                    "name": "A2",
                    "midi": 45,
                    "time": 389.6416666666712,
                    "velocity": 0.12598425196850394,
                    "duration": 0.5083333333333826
                },
                {
                    "name": "A4",
                    "midi": 69,
                    "time": 389.70833333333786,
                    "velocity": 0.2440944881889764,
                    "duration": 0.5354166666667197
                },
                {
                    "name": "E5",
                    "midi": 76,
                    "time": 390.2625000000046,
                    "velocity": 0.3228346456692913,
                    "duration": 0.4791666666666856
                },
                {
                    "name": "C#4",
                    "midi": 61,
                    "time": 390.67083333333795,
                    "velocity": 0.3464566929133858,
                    "duration": 0.11874999999997726
                },
                {
                    "name": "C#5",
                    "midi": 73,
                    "time": 390.7062500000046,
                    "velocity": 0.3228346456692913,
                    "duration": 0.39583333333337123
                },
                {
                    "name": "C#4",
                    "midi": 61,
                    "time": 391.0416666666713,
                    "velocity": 0.3543307086614173,
                    "duration": 0.1333333333333826
                },
                {
                    "name": "A4",
                    "midi": 69,
                    "time": 391.04375000000465,
                    "velocity": 0.33070866141732286,
                    "duration": 0.3812499999999659
                },
                {
                    "name": "A#2",
                    "midi": 46,
                    "time": 391.352083333338,
                    "velocity": 0.48031496062992124,
                    "duration": 0.36250000000001137
                },
                {
                    "name": "E3",
                    "midi": 52,
                    "time": 391.40000000000464,
                    "velocity": 0.2125984251968504,
                    "duration": 0.8541666666667425
                },
                {
                    "name": "E5",
                    "midi": 76,
                    "time": 391.670833333338,
                    "velocity": 0.5826771653543307,
                    "duration": 0.3479166666666629
                },
                {
                    "name": "C#4",
                    "midi": 61,
                    "time": 391.9250000000047,
                    "velocity": 0.5826771653543307,
                    "duration": 0.12083333333333712
                },
                {
                    "name": "C#5",
                    "midi": 73,
                    "time": 391.95000000000465,
                    "velocity": 0.5826771653543307,
                    "duration": 0.2437500000000341
                },
                {
                    "name": "C#4",
                    "midi": 61,
                    "time": 392.2062500000047,
                    "velocity": 0.5590551181102362,
                    "duration": 0.11041666666670835
                },
                {
                    "name": "G#4",
                    "midi": 68,
                    "time": 392.220833333338,
                    "velocity": 0.7480314960629921,
                    "duration": 0.22291666666671972
                },
                {
                    "name": "B2",
                    "midi": 47,
                    "time": 392.45625000000473,
                    "velocity": 0.4645669291338583,
                    "duration": 0.3354166666666174
                },
                {
                    "name": "E3",
                    "midi": 52,
                    "time": 392.4812500000047,
                    "velocity": 0.47244094488188976,
                    "duration": 0.7312499999999886
                },
                {
                    "name": "G4",
                    "midi": 67,
                    "time": 392.48958333333803,
                    "velocity": 0.7244094488188977,
                    "duration": 0.53125
                },
                {
                    "name": "F#5",
                    "midi": 78,
                    "time": 392.758333333338,
                    "velocity": 0.8346456692913385,
                    "duration": 0.19375000000002274
                },
                {
                    "name": "F5",
                    "midi": 77,
                    "time": 393.01666666667137,
                    "velocity": 0.7401574803149606,
                    "duration": 0.3229166666666856
                },
                {
                    "name": "C#4",
                    "midi": 61,
                    "time": 393.02916666667136,
                    "velocity": 0.6141732283464567,
                    "duration": 0.14791666666667425
                },
                {
                    "name": "E5",
                    "midi": 76,
                    "time": 393.2854166666714,
                    "velocity": 0.8188976377952756,
                    "duration": 0.10624999999998863
                },
                {
                    "name": "C#4",
                    "midi": 61,
                    "time": 393.28750000000474,
                    "velocity": 0.6614173228346457,
                    "duration": 0.11458333333331439
                },
                {
                    "name": "E3",
                    "midi": 52,
                    "time": 393.5437500000047,
                    "velocity": 0.5433070866141733,
                    "duration": 0.7645833333333485
                },
                {
                    "name": "F#5",
                    "midi": 78,
                    "time": 393.6250000000047,
                    "velocity": 0.7007874015748031,
                    "duration": 0.18750000000005684
                },
                {
                    "name": "D4",
                    "midi": 62,
                    "time": 393.6270833333381,
                    "velocity": 0.3937007874015748,
                    "duration": 1.493750000000034
                },
                {
                    "name": "G#4",
                    "midi": 68,
                    "time": 393.64583333333815,
                    "velocity": 0.5275590551181102,
                    "duration": 0.6062499999999318
                },
                {
                    "name": "F5",
                    "midi": 77,
                    "time": 393.79166666667146,
                    "velocity": 0.5826771653543307,
                    "duration": 0.18958333333330302
                },
                {
                    "name": "E5",
                    "midi": 76,
                    "time": 393.9770833333381,
                    "velocity": 0.5984251968503937,
                    "duration": 1.1833333333333371
                },
                {
                    "name": "F#3",
                    "midi": 54,
                    "time": 394.30833333333806,
                    "velocity": 0.4251968503937008,
                    "duration": 0.5791666666667084
                },
                {
                    "name": "A4",
                    "midi": 69,
                    "time": 394.35000000000474,
                    "velocity": 0.47244094488188976,
                    "duration": 0.5125000000000455
                },
                {
                    "name": "G#3",
                    "midi": 56,
                    "time": 394.8333333333381,
                    "velocity": 0.3543307086614173,
                    "duration": 0.4333333333333371
                },
                {
                    "name": "B4",
                    "midi": 71,
                    "time": 394.8520833333381,
                    "velocity": 0.4015748031496063,
                    "duration": 0.26875000000001137
                },
                {
                    "name": "A2",
                    "midi": 45,
                    "time": 395.4854166666714,
                    "velocity": 0.28346456692913385,
                    "duration": 0.2666666666666515
                },
                {
                    "name": "C#4",
                    "midi": 61,
                    "time": 395.6250000000048,
                    "velocity": 0.47244094488188976,
                    "duration": 0.13749999999998863
                },
                {
                    "name": "C#4",
                    "midi": 61,
                    "time": 396.0645833333381,
                    "velocity": 0.4330708661417323,
                    "duration": 0.15208333333333712
                },
                {
                    "name": "A5",
                    "midi": 81,
                    "time": 396.08750000000475,
                    "velocity": 0.5354330708661418,
                    "duration": 0.125
                },
                {
                    "name": "A5",
                    "midi": 81,
                    "time": 396.32500000000476,
                    "velocity": 0.7007874015748031,
                    "duration": 0.10208333333332575
                },
                {
                    "name": "A5",
                    "midi": 81,
                    "time": 396.5083333333381,
                    "velocity": 0.7559055118110236,
                    "duration": 0.11250000000001137
                },
                {
                    "name": "E3",
                    "midi": 52,
                    "time": 396.5583333333381,
                    "velocity": 0.4645669291338583,
                    "duration": 0.23750000000001137
                },
                {
                    "name": "A2",
                    "midi": 45,
                    "time": 396.7270833333381,
                    "velocity": 0.3700787401574803,
                    "duration": 0.6000000000001364
                },
                {
                    "name": "B3",
                    "midi": 59,
                    "time": 396.75416666667144,
                    "velocity": 0.4645669291338583,
                    "duration": 0.6562500000001137
                },
                {
                    "name": "B5",
                    "midi": 83,
                    "time": 396.7583333333381,
                    "velocity": 0.6377952755905512,
                    "duration": 0.10416666666674246
                },
                {
                    "name": "A5",
                    "midi": 81,
                    "time": 396.83958333333817,
                    "velocity": 0.6614173228346457,
                    "duration": 0.10000000000002274
                },
                {
                    "name": "G#5",
                    "midi": 80,
                    "time": 396.93125000000487,
                    "velocity": 0.6377952755905512,
                    "duration": 0.08541666666667425
                },
                {
                    "name": "G5",
                    "midi": 79,
                    "time": 397.01666666667154,
                    "velocity": 0.5984251968503937,
                    "duration": 0.11458333333331439
                },
                {
                    "name": "G5",
                    "midi": 79,
                    "time": 397.24375000000487,
                    "velocity": 0.6456692913385826,
                    "duration": 0.0875000000000341
                },
                {
                    "name": "E3",
                    "midi": 52,
                    "time": 397.31666666667155,
                    "velocity": 0.4094488188976378,
                    "duration": 0.5562500000000341
                },
                {
                    "name": "G5",
                    "midi": 79,
                    "time": 397.4645833333382,
                    "velocity": 0.6929133858267716,
                    "duration": 0.08333333333331439
                },
                {
                    "name": "G5",
                    "midi": 79,
                    "time": 397.6875000000049,
                    "velocity": 0.7165354330708661,
                    "duration": 0.07916666666665151
                },
                {
                    "name": "A2",
                    "midi": 45,
                    "time": 397.7312500000049,
                    "velocity": 0.5826771653543307,
                    "duration": 0.08541666666667425
                },
                {
                    "name": "G#5",
                    "midi": 80,
                    "time": 397.77500000000487,
                    "velocity": 0.7795275590551181,
                    "duration": 0.10000000000007958
                },
                {
                    "name": "A5",
                    "midi": 81,
                    "time": 397.8708333333382,
                    "velocity": 0.6377952755905512,
                    "duration": 0.0875000000000341
                },
                {
                    "name": "C#4",
                    "midi": 61,
                    "time": 397.95000000000493,
                    "velocity": 0.7007874015748031,
                    "duration": 0.0625
                },
                {
                    "name": "A5",
                    "midi": 81,
                    "time": 398.1500000000049,
                    "velocity": 0.5826771653543307,
                    "duration": 0.06041666666664014
                },
                {
                    "name": "A5",
                    "midi": 81,
                    "time": 398.31666666667155,
                    "velocity": 0.7874015748031497,
                    "duration": 0.08958333333333712
                },
                {
                    "name": "E3",
                    "midi": 52,
                    "time": 398.3958333333382,
                    "velocity": 0.36220472440944884,
                    "duration": 0.19166666666671972
                },
                {
                    "name": "A2",
                    "midi": 45,
                    "time": 398.51458333333824,
                    "velocity": 0.6614173228346457,
                    "duration": 0.07916666666670835
                },
                {
                    "name": "A5",
                    "midi": 81,
                    "time": 398.54583333333824,
                    "velocity": 0.6929133858267716,
                    "duration": 0.08125000000006821
                },
                {
                    "name": "A#5",
                    "midi": 82,
                    "time": 398.5916666666716,
                    "velocity": 0.6850393700787402,
                    "duration": 0.10000000000002274
                },
                {
                    "name": "B5",
                    "midi": 83,
                    "time": 398.68750000000495,
                    "velocity": 0.4251968503937008,
                    "duration": 0.09583333333335986
                },
                {
                    "name": "C6",
                    "midi": 84,
                    "time": 398.73750000000496,
                    "velocity": 0.7637795275590551,
                    "duration": 0.07916666666665151
                },
                {
                    "name": "D#4",
                    "midi": 63,
                    "time": 398.73750000000496,
                    "velocity": 0.8267716535433071,
                    "duration": 0.06666666666666288
                },
                {
                    "name": "C6",
                    "midi": 84,
                    "time": 398.9625000000049,
                    "velocity": 0.7716535433070866,
                    "duration": 0.07499999999998863
                },
                {
                    "name": "C6",
                    "midi": 84,
                    "time": 399.1354166666716,
                    "velocity": 0.8110236220472441,
                    "duration": 0.08541666666667425
                },
                {
                    "name": "E3",
                    "midi": 52,
                    "time": 399.17708333333826,
                    "velocity": 0.47244094488188976,
                    "duration": 0.18958333333335986
                },
                {
                    "name": "A2",
                    "midi": 45,
                    "time": 399.32083333333827,
                    "velocity": 0.7086614173228346,
                    "duration": 0.056250000000034106
                },
                {
                    "name": "C6",
                    "midi": 84,
                    "time": 399.3395833333383,
                    "velocity": 0.7952755905511811,
                    "duration": 0.09166666666669698
                },
                {
                    "name": "E4",
                    "midi": 64,
                    "time": 399.53541666667167,
                    "velocity": 0.8503937007874016,
                    "duration": 0.0687499999999659
                },
                {
                    "name": "C#6",
                    "midi": 85,
                    "time": 399.54791666667165,
                    "velocity": 0.7952755905511811,
                    "duration": 0.12083333333333712
                },
                {
                    "name": "A5",
                    "midi": 81,
                    "time": 399.731250000005,
                    "velocity": 0.6771653543307087,
                    "duration": 0.12083333333333712
                },
                {
                    "name": "F#5",
                    "midi": 78,
                    "time": 399.92083333333835,
                    "velocity": 0.6929133858267716,
                    "duration": 0.08541666666667425
                },
                {
                    "name": "E3",
                    "midi": 52,
                    "time": 399.9291666666717,
                    "velocity": 0.5590551181102362,
                    "duration": 0.2270833333333826
                },
                {
                    "name": "A5",
                    "midi": 81,
                    "time": 400.112500000005,
                    "velocity": 0.6771653543307087,
                    "duration": 0.1270833333334167
                },
                {
                    "name": "A2",
                    "midi": 45,
                    "time": 400.1229166666717,
                    "velocity": 0.49606299212598426,
                    "duration": 0.06250000000005684
                },
                {
                    "name": "G5",
                    "midi": 79,
                    "time": 400.15625000000506,
                    "velocity": 0.5984251968503937,
                    "duration": 0.20416666666670835
                },
                {
                    "name": "F#5",
                    "midi": 78,
                    "time": 400.3062500000051,
                    "velocity": 0.7874015748031497,
                    "duration": 0.24583333333333712
                },
                {
                    "name": "D4",
                    "midi": 62,
                    "time": 400.3125000000051,
                    "velocity": 0.7716535433070866,
                    "duration": 0.07291666666662877
                },
                {
                    "name": "E5",
                    "midi": 76,
                    "time": 400.51875000000507,
                    "velocity": 0.7007874015748031,
                    "duration": 0.18333333333333712
                },
                {
                    "name": "C5",
                    "midi": 72,
                    "time": 400.70416666667177,
                    "velocity": 0.6299212598425197,
                    "duration": 0.07499999999998863
                },
                {
                    "name": "E3",
                    "midi": 52,
                    "time": 400.7312500000051,
                    "velocity": 0.47244094488188976,
                    "duration": 0.054166666666674246
                },
                {
                    "name": "A2",
                    "midi": 45,
                    "time": 400.89166666667177,
                    "velocity": 0.7244094488188977,
                    "duration": 0.04791666666665151
                },
                {
                    "name": "C#5",
                    "midi": 73,
                    "time": 400.9187500000051,
                    "velocity": 0.7874015748031497,
                    "duration": 0.13749999999998863
                },
                {
                    "name": "E5",
                    "midi": 76,
                    "time": 401.0979166666718,
                    "velocity": 0.7007874015748031,
                    "duration": 0.28125000000005684
                },
                {
                    "name": "C#4",
                    "midi": 61,
                    "time": 401.10000000000514,
                    "velocity": 0.905511811023622,
                    "duration": 0.07291666666668561
                },
                {
                    "name": "C#5",
                    "midi": 73,
                    "time": 401.2979166666718,
                    "velocity": 0.5984251968503937,
                    "duration": 0.1875
                },
                {
                    "name": "A4",
                    "midi": 69,
                    "time": 401.4854166666718,
                    "velocity": 0.3779527559055118,
                    "duration": 0.052083333333314386
                },
                {
                    "name": "E3",
                    "midi": 52,
                    "time": 401.4979166666718,
                    "velocity": 0.5590551181102362,
                    "duration": 0.05000000000001137
                },
                {
                    "name": "A2",
                    "midi": 45,
                    "time": 401.6854166666718,
                    "velocity": 0.7952755905511811,
                    "duration": 0.06458333333335986
                },
                {
                    "name": "F#3",
                    "midi": 54,
                    "time": 401.9083333333385,
                    "velocity": 0.8661417322834646,
                    "duration": 0.06666666666666288
                },
                {
                    "name": "G3",
                    "midi": 55,
                    "time": 401.9604166666718,
                    "velocity": 0.6614173228346457,
                    "duration": 0.11041666666670835
                },
                {
                    "name": "A3",
                    "midi": 57,
                    "time": 402.04375000000516,
                    "velocity": 0.5196850393700787,
                    "duration": 0.05624999999997726
                },
                {
                    "name": "C#4",
                    "midi": 61,
                    "time": 402.05416666667185,
                    "velocity": 0.7637795275590551,
                    "duration": 0.07083333333326891
                },
                {
                    "name": "F#4",
                    "midi": 66,
                    "time": 402.0625000000052,
                    "velocity": 0.7244094488188977,
                    "duration": 0.0854166666666174
                },
                {
                    "name": "E3",
                    "midi": 52,
                    "time": 402.17708333333843,
                    "velocity": 0.7952755905511811,
                    "duration": 0.06875000000002274
                },
                {
                    "name": "G3",
                    "midi": 55,
                    "time": 402.2500000000051,
                    "velocity": 0.6614173228346457,
                    "duration": 0.0875000000000341
                },
                {
                    "name": "G#3",
                    "midi": 56,
                    "time": 402.32708333333846,
                    "velocity": 0.7401574803149606,
                    "duration": 0.05208333333337123
                },
                {
                    "name": "E4",
                    "midi": 64,
                    "time": 402.3437500000052,
                    "velocity": 0.6692913385826772,
                    "duration": 0.08958333333333712
                },
                {
                    "name": "D4",
                    "midi": 62,
                    "time": 402.36666666667185,
                    "velocity": 0.6850393700787402,
                    "duration": 0.05833333333333712
                },
                {
                    "name": "A2",
                    "midi": 45,
                    "time": 402.44791666667186,
                    "velocity": 0.8031496062992126,
                    "duration": 0.0687499999999659
                },
                {
                    "name": "A5",
                    "midi": 81,
                    "time": 402.6854166666718,
                    "velocity": 0.7637795275590551,
                    "duration": 0.06041666666669698
                },
                {
                    "name": "C#4",
                    "midi": 61,
                    "time": 402.69166666667184,
                    "velocity": 0.84251968503937,
                    "duration": 0.07499999999998863
                },
                {
                    "name": "A5",
                    "midi": 81,
                    "time": 402.9020833333385,
                    "velocity": 0.7716535433070866,
                    "duration": 0.039583333333325754
                },
                {
                    "name": "A5",
                    "midi": 81,
                    "time": 403.08750000000515,
                    "velocity": 0.7874015748031497,
                    "duration": 0.03333333333335986
                },
                {
                    "name": "E3",
                    "midi": 52,
                    "time": 403.1104166666718,
                    "velocity": 0.5354330708661418,
                    "duration": 0.31250000000017053
                },
                {
                    "name": "B5",
                    "midi": 83,
                    "time": 403.27083333333854,
                    "velocity": 0.8188976377952756,
                    "duration": 0.06666666666671972
                },
                {
                    "name": "A2",
                    "midi": 45,
                    "time": 403.2729166666719,
                    "velocity": 0.5669291338582677,
                    "duration": 0.6500000000000341
                },
                {
                    "name": "A5",
                    "midi": 81,
                    "time": 403.2791666666719,
                    "velocity": 0.84251968503937,
                    "duration": 0.11666666666673109
                },
                {
                    "name": "G#5",
                    "midi": 80,
                    "time": 403.391666666672,
                    "velocity": 0.7086614173228346,
                    "duration": 0.09375
                },
                {
                    "name": "B3",
                    "midi": 59,
                    "time": 403.441666666672,
                    "velocity": 0.4881889763779528,
                    "duration": 0.5187499999999545
                },
                {
                    "name": "G5",
                    "midi": 79,
                    "time": 403.4625000000053,
                    "velocity": 0.6614173228346457,
                    "duration": 0.08958333333333712
                },
                {
                    "name": "G5",
                    "midi": 79,
                    "time": 403.691666666672,
                    "velocity": 0.7401574803149606,
                    "duration": 0.05833333333333712
                },
                {
                    "name": "G5",
                    "midi": 79,
                    "time": 403.89791666667196,
                    "velocity": 0.7874015748031497,
                    "duration": 0.06666666666666288
                },
                {
                    "name": "E3",
                    "midi": 52,
                    "time": 403.9333333333386,
                    "velocity": 0.5669291338582677,
                    "duration": 0.24791666666669698
                },
                {
                    "name": "A2",
                    "midi": 45,
                    "time": 404.1000000000053,
                    "velocity": 0.6377952755905512,
                    "duration": 0.07499999999998863
                },
                {
                    "name": "G5",
                    "midi": 79,
                    "time": 404.1125000000053,
                    "velocity": 0.6850393700787402,
                    "duration": 0.09375
                },
                {
                    "name": "G#5",
                    "midi": 80,
                    "time": 404.22083333333865,
                    "velocity": 0.8267716535433071,
                    "duration": 0.08125000000001137
                },
                {
                    "name": "A5",
                    "midi": 81,
                    "time": 404.29583333333863,
                    "velocity": 0.5748031496062992,
                    "duration": 0.07291666666668561
                },
                {
                    "name": "C#4",
                    "midi": 61,
                    "time": 404.310416666672,
                    "velocity": 0.8188976377952756,
                    "duration": 0.11041666666665151
                },
                {
                    "name": "A5",
                    "midi": 81,
                    "time": 404.5187500000053,
                    "velocity": 0.7795275590551181,
                    "duration": 0.07499999999998863
                },
                {
                    "name": "A5",
                    "midi": 81,
                    "time": 404.67916666667196,
                    "velocity": 0.8110236220472441,
                    "duration": 0.08749999999997726
                },
                {
                    "name": "E3",
                    "midi": 52,
                    "time": 404.7187500000053,
                    "velocity": 0.6377952755905512,
                    "duration": 0.17708333333331439
                },
                {
                    "name": "A2",
                    "midi": 45,
                    "time": 404.8833333333386,
                    "velocity": 0.7874015748031497,
                    "duration": 0.06875000000007958
                },
                {
                    "name": "A5",
                    "midi": 81,
                    "time": 404.89791666667196,
                    "velocity": 0.7637795275590551,
                    "duration": 0.07500000000004547
                },
                {
                    "name": "A#5",
                    "midi": 82,
                    "time": 404.9333333333386,
                    "velocity": 0.7716535433070866,
                    "duration": 0.08958333333339397
                },
                {
                    "name": "B5",
                    "midi": 83,
                    "time": 405.004166666672,
                    "velocity": 0.5039370078740157,
                    "duration": 0.10625000000004547
                },
                {
                    "name": "C6",
                    "midi": 84,
                    "time": 405.066666666672,
                    "velocity": 0.7952755905511811,
                    "duration": 0.07291666666668561
                },
                {
                    "name": "D#4",
                    "midi": 63,
                    "time": 405.0770833333387,
                    "velocity": 0.952755905511811,
                    "duration": 0.07916666666665151
                },
                {
                    "name": "C6",
                    "midi": 84,
                    "time": 405.28750000000537,
                    "velocity": 0.8503937007874016,
                    "duration": 0.07708333333334849
                },
                {
                    "name": "C6",
                    "midi": 84,
                    "time": 405.47916666667203,
                    "velocity": 0.8188976377952756,
                    "duration": 0.07500000000004547
                },
                {
                    "name": "E3",
                    "midi": 52,
                    "time": 405.5020833333387,
                    "velocity": 0.6062992125984252,
                    "duration": 0.1333333333333826
                },
                {
                    "name": "A2",
                    "midi": 45,
                    "time": 405.67083333333875,
                    "velocity": 0.7716535433070866,
                    "duration": 0.043750000000045475
                },
                {
                    "name": "C6",
                    "midi": 84,
                    "time": 405.68125000000543,
                    "velocity": 0.8346456692913385,
                    "duration": 0.09166666666669698
                },
                {
                    "name": "E4",
                    "midi": 64,
                    "time": 405.87291666667215,
                    "velocity": 0.8818897637795275,
                    "duration": 0.07708333333329165
                },
                {
                    "name": "C#6",
                    "midi": 85,
                    "time": 405.89791666667213,
                    "velocity": 0.8267716535433071,
                    "duration": 0.08958333333333712
                },
                {
                    "name": "A5",
                    "midi": 81,
                    "time": 406.0833333333388,
                    "velocity": 0.7165354330708661,
                    "duration": 0.10833333333334849
                },
                {
                    "name": "F#5",
                    "midi": 78,
                    "time": 406.2604166666722,
                    "velocity": 0.7401574803149606,
                    "duration": 0.08333333333331439
                },
                {
                    "name": "E3",
                    "midi": 52,
                    "time": 406.2854166666722,
                    "velocity": 0.5984251968503937,
                    "duration": 0.20208333333329165
                },
                {
                    "name": "A2",
                    "midi": 45,
                    "time": 406.4395833333388,
                    "velocity": 0.8188976377952756,
                    "duration": 0.07499999999998863
                },
                {
                    "name": "A5",
                    "midi": 81,
                    "time": 406.44791666667214,
                    "velocity": 0.7401574803149606,
                    "duration": 0.12708333333330302
                },
                {
                    "name": "G5",
                    "midi": 79,
                    "time": 406.47916666667214,
                    "velocity": 0.6771653543307087,
                    "duration": 0.2249999999999659
                },
                {
                    "name": "D4",
                    "midi": 62,
                    "time": 406.64583333333877,
                    "velocity": 0.7401574803149606,
                    "duration": 0.08749999999997726
                },
                {
                    "name": "F#5",
                    "midi": 78,
                    "time": 406.64791666667213,
                    "velocity": 0.7637795275590551,
                    "duration": 0.2624999999999318
                },
                {
                    "name": "E5",
                    "midi": 76,
                    "time": 406.85833333333875,
                    "velocity": 0.6850393700787402,
                    "duration": 0.18541666666664014
                },
                {
                    "name": "C5",
                    "midi": 72,
                    "time": 407.04583333333875,
                    "velocity": 0.5984251968503937,
                    "duration": 0.08749999999997726
                },
                {
                    "name": "E3",
                    "midi": 52,
                    "time": 407.0604166666721,
                    "velocity": 0.6377952755905512,
                    "duration": 0.10416666666662877
                },
                {
                    "name": "A2",
                    "midi": 45,
                    "time": 407.2187500000054,
                    "velocity": 0.7559055118110236,
                    "duration": 0.06458333333335986
                },
                {
                    "name": "C#5",
                    "midi": 73,
                    "time": 407.2500000000054,
                    "velocity": 0.7874015748031497,
                    "duration": 0.12083333333333712
                },
                {
                    "name": "C#4",
                    "midi": 61,
                    "time": 407.4250000000054,
                    "velocity": 0.8503937007874016,
                    "duration": 0.07499999999998863
                },
                {
                    "name": "E5",
                    "midi": 76,
                    "time": 407.4291666666721,
                    "velocity": 0.7322834645669292,
                    "duration": 0.25
                },
                {
                    "name": "C#5",
                    "midi": 73,
                    "time": 407.62083333333874,
                    "velocity": 0.7480314960629921,
                    "duration": 0.21666666666664014
                },
                {
                    "name": "A4",
                    "midi": 69,
                    "time": 407.8208333333387,
                    "velocity": 0.6929133858267716,
                    "duration": 0.08541666666667425
                },
                {
                    "name": "E3",
                    "midi": 52,
                    "time": 407.8250000000054,
                    "velocity": 0.6377952755905512,
                    "duration": 0.23958333333331439
                },
                {
                    "name": "A2",
                    "midi": 45,
                    "time": 408.0125000000054,
                    "velocity": 0.8976377952755905,
                    "duration": 0.21458333333333712
                },
                {
                    "name": "E3",
                    "midi": 52,
                    "time": 408.19375000000537,
                    "velocity": 0.7952755905511811,
                    "duration": 0.06875000000002274
                },
                {
                    "name": "A5",
                    "midi": 81,
                    "time": 408.41041666667206,
                    "velocity": 0.889763779527559,
                    "duration": 0.056250000000034106
                },
                {
                    "name": "A6",
                    "midi": 93,
                    "time": 408.4125000000054,
                    "velocity": 0.8503937007874016,
                    "duration": 0.07500000000004547
                },
                {
                    "name": "G4",
                    "midi": 67,
                    "time": 408.4125000000054,
                    "velocity": 0.9448818897637795,
                    "duration": 0.05000000000001137
                },
                {
                    "name": "A3",
                    "midi": 57,
                    "time": 408.4125000000054,
                    "velocity": 0.9133858267716536,
                    "duration": 0.06041666666669698
                },
                {
                    "name": "C#4",
                    "midi": 61,
                    "time": 408.41875000000545,
                    "velocity": 0.8661417322834646,
                    "duration": 0.02916666666664014
                },
                {
                    "name": "B6",
                    "midi": 95,
                    "time": 408.79166666667214,
                    "velocity": 0.84251968503937,
                    "duration": 0.06875000000007958
                },
                {
                    "name": "B5",
                    "midi": 83,
                    "time": 408.7937500000055,
                    "velocity": 0.8110236220472441,
                    "duration": 0.06458333333335986
                },
                {
                    "name": "D2",
                    "midi": 38,
                    "time": 408.8020833333388,
                    "velocity": 1,
                    "duration": 0.0645833333334167
                },
                {
                    "name": "B3",
                    "midi": 59,
                    "time": 409.01041666667226,
                    "velocity": 0.8818897637795275,
                    "duration": 0.25833333333332575
                },
                {
                    "name": "A6",
                    "midi": 93,
                    "time": 409.02083333333894,
                    "velocity": 0.7874015748031497,
                    "duration": 0.04166666666662877
                },
                {
                    "name": "A5",
                    "midi": 81,
                    "time": 409.0375000000056,
                    "velocity": 0.5433070866141733,
                    "duration": 0.0541666666666174
                },
                {
                    "name": "D4",
                    "midi": 62,
                    "time": 409.2104166666722,
                    "velocity": 0.6929133858267716,
                    "duration": 0.12291666666675383
                },
                {
                    "name": "F#4",
                    "midi": 66,
                    "time": 409.21250000000555,
                    "velocity": 0.8976377952755905,
                    "duration": 0.07500000000004547
                },
                {
                    "name": "B4",
                    "midi": 71,
                    "time": 409.21250000000555,
                    "velocity": 0.9133858267716536,
                    "duration": 0.058333333333393966
                },
                {
                    "name": "D7",
                    "midi": 98,
                    "time": 409.21875000000557,
                    "velocity": 0.889763779527559,
                    "duration": 0.025000000000034106
                },
                {
                    "name": "D6",
                    "midi": 86,
                    "time": 409.22083333333893,
                    "velocity": 0.84251968503937,
                    "duration": 0.027083333333337123
                },
                {
                    "name": "A3",
                    "midi": 57,
                    "time": 409.3895833333389,
                    "velocity": 0.8188976377952756,
                    "duration": 0.11041666666665151
                },
                {
                    "name": "A4",
                    "midi": 69,
                    "time": 409.6083333333389,
                    "velocity": 0.7874015748031497,
                    "duration": 0.07708333333334849
                },
                {
                    "name": "D4",
                    "midi": 62,
                    "time": 409.6083333333389,
                    "velocity": 0.7165354330708661,
                    "duration": 0.06875000000002274
                },
                {
                    "name": "B6",
                    "midi": 95,
                    "time": 409.61458333333894,
                    "velocity": 0.7874015748031497,
                    "duration": 0.041666666666685614
                },
                {
                    "name": "B5",
                    "midi": 83,
                    "time": 409.62083333333896,
                    "velocity": 0.7244094488188977,
                    "duration": 0.03541666666666288
                },
                {
                    "name": "F#4",
                    "midi": 66,
                    "time": 409.6291666666723,
                    "velocity": 0.7401574803149606,
                    "duration": 0.04791666666665151
                },
                {
                    "name": "B3",
                    "midi": 59,
                    "time": 409.7875000000056,
                    "velocity": 0.889763779527559,
                    "duration": 0.22500000000007958
                },
                {
                    "name": "A6",
                    "midi": 93,
                    "time": 409.7937500000056,
                    "velocity": 0.8582677165354331,
                    "duration": 0.05833333333328028
                },
                {
                    "name": "A5",
                    "midi": 81,
                    "time": 409.82291666667226,
                    "velocity": 0.3779527559055118,
                    "duration": 0.04374999999998863
                },
                {
                    "name": "D4",
                    "midi": 62,
                    "time": 409.9875000000056,
                    "velocity": 0.8503937007874016,
                    "duration": 0.08125000000012506
                },
                {
                    "name": "B4",
                    "midi": 71,
                    "time": 409.98958333333894,
                    "velocity": 0.8582677165354331,
                    "duration": 0.0645833333334167
                },
                {
                    "name": "D6",
                    "midi": 86,
                    "time": 409.99583333333896,
                    "velocity": 0.7244094488188977,
                    "duration": 0.043750000000045475
                },
                {
                    "name": "F#4",
                    "midi": 66,
                    "time": 409.9979166666723,
                    "velocity": 0.8110236220472441,
                    "duration": 0.07916666666670835
                },
                {
                    "name": "C4",
                    "midi": 60,
                    "time": 410.17708333333906,
                    "velocity": 0.9763779527559056,
                    "duration": 0.23750000000012506
                },
                {
                    "name": "C5",
                    "midi": 72,
                    "time": 410.3791666666724,
                    "velocity": 0.8503937007874016,
                    "duration": 0.06458333333347355
                },
                {
                    "name": "D4",
                    "midi": 62,
                    "time": 410.38125000000576,
                    "velocity": 0.7086614173228346,
                    "duration": 0.10208333333349628
                },
                {
                    "name": "F#4",
                    "midi": 66,
                    "time": 410.3854166666724,
                    "velocity": 0.7952755905511811,
                    "duration": 0.06458333333347355
                },
                {
                    "name": "D6",
                    "midi": 86,
                    "time": 410.3854166666724,
                    "velocity": 0.8976377952755905,
                    "duration": 0.03958333333343944
                },
                {
                    "name": "D5",
                    "midi": 74,
                    "time": 410.38958333333915,
                    "velocity": 0.9133858267716536,
                    "duration": 0.03125000000005684
                },
                {
                    "name": "B3",
                    "midi": 59,
                    "time": 410.5625000000059,
                    "velocity": 0.8818897637795275,
                    "duration": 0.12083333333333712
                },
                {
                    "name": "E5",
                    "midi": 76,
                    "time": 410.6354166666726,
                    "velocity": 0.7165354330708661,
                    "duration": 0.08333333333331439
                },
                {
                    "name": "F5",
                    "midi": 77,
                    "time": 410.7395833333392,
                    "velocity": 0.8188976377952756,
                    "duration": 0.0687499999999659
                },
                {
                    "name": "D4",
                    "midi": 62,
                    "time": 410.76041666667254,
                    "velocity": 0.8188976377952756,
                    "duration": 0.0875000000000341
                },
                {
                    "name": "B4",
                    "midi": 71,
                    "time": 410.7645833333392,
                    "velocity": 0.8031496062992126,
                    "duration": 0.07083333333332575
                },
                {
                    "name": "F#4",
                    "midi": 66,
                    "time": 410.77291666667253,
                    "velocity": 0.7401574803149606,
                    "duration": 0.07291666666668561
                },
                {
                    "name": "F5",
                    "midi": 77,
                    "time": 410.8479166666726,
                    "velocity": 0.9133858267716536,
                    "duration": 0.07916666666665151
                },
                {
                    "name": "C4",
                    "midi": 60,
                    "time": 410.9416666666726,
                    "velocity": 0.8582677165354331,
                    "duration": 0.12708333333335986
                },
                {
                    "name": "E5",
                    "midi": 76,
                    "time": 411.04583333333926,
                    "velocity": 0.7559055118110236,
                    "duration": 0.07499999999998863
                },
                {
                    "name": "F5",
                    "midi": 77,
                    "time": 411.1479166666726,
                    "velocity": 0.8188976377952756,
                    "duration": 0.05000000000006821
                },
                {
                    "name": "D4",
                    "midi": 62,
                    "time": 411.16250000000593,
                    "velocity": 0.8110236220472441,
                    "duration": 0.09791666666671972
                },
                {
                    "name": "C5",
                    "midi": 72,
                    "time": 411.16250000000593,
                    "velocity": 0.7716535433070866,
                    "duration": 0.06250000000005684
                },
                {
                    "name": "F#4",
                    "midi": 66,
                    "time": 411.1729166666726,
                    "velocity": 0.7637795275590551,
                    "duration": 0.0395833333333826
                },
                {
                    "name": "B4",
                    "midi": 71,
                    "time": 411.1833333333393,
                    "velocity": 0.6220472440944882,
                    "duration": 0.041666666666685614
                },
                {
                    "name": "F5",
                    "midi": 77,
                    "time": 411.23958333333934,
                    "velocity": 0.7559055118110236,
                    "duration": 0.08124999999995453
                },
                {
                    "name": "A3",
                    "midi": 57,
                    "time": 411.3645833333393,
                    "velocity": 0.7559055118110236,
                    "duration": 0.10833333333334849
                },
                {
                    "name": "E5",
                    "midi": 76,
                    "time": 411.45000000000596,
                    "velocity": 0.8740157480314961,
                    "duration": 0.0625
                },
                {
                    "name": "F5",
                    "midi": 77,
                    "time": 411.55208333333934,
                    "velocity": 0.9291338582677166,
                    "duration": 0.13333333333332575
                },
                {
                    "name": "A4",
                    "midi": 69,
                    "time": 411.556250000006,
                    "velocity": 0.8582677165354331,
                    "duration": 0.05624999999997726
                },
                {
                    "name": "D4",
                    "midi": 62,
                    "time": 411.562500000006,
                    "velocity": 0.7559055118110236,
                    "duration": 0.07291666666662877
                },
                {
                    "name": "F#4",
                    "midi": 66,
                    "time": 411.5666666666727,
                    "velocity": 0.84251968503937,
                    "duration": 0.05624999999997726
                },
                {
                    "name": "E5",
                    "midi": 76,
                    "time": 411.637500000006,
                    "velocity": 0.8740157480314961,
                    "duration": 0.15416666666664014
                },
                {
                    "name": "D5",
                    "midi": 74,
                    "time": 411.74791666667267,
                    "velocity": 0.8503937007874016,
                    "duration": 0.07916666666665151
                },
                {
                    "name": "D2",
                    "midi": 38,
                    "time": 411.97916666667265,
                    "velocity": 0.8110236220472441,
                    "duration": 0.06041666666675383
                },
                {
                    "name": "D3",
                    "midi": 50,
                    "time": 412.0166666666727,
                    "velocity": 0.9448818897637795,
                    "duration": 0.04791666666670835
                },
                {
                    "name": "B6",
                    "midi": 95,
                    "time": 412.01875000000604,
                    "velocity": 0.8818897637795275,
                    "duration": 0.06041666666669698
                },
                {
                    "name": "B5",
                    "midi": 83,
                    "time": 412.02500000000606,
                    "velocity": 0.8503937007874016,
                    "duration": 0.05000000000001137
                },
                {
                    "name": "A6",
                    "midi": 93,
                    "time": 412.2291666666727,
                    "velocity": 0.8503937007874016,
                    "duration": 0.0645833333334167
                },
                {
                    "name": "B3",
                    "midi": 59,
                    "time": 412.23125000000607,
                    "velocity": 0.7716535433070866,
                    "duration": 0.24791666666681067
                },
                {
                    "name": "A5",
                    "midi": 81,
                    "time": 412.24166666667276,
                    "velocity": 0.6614173228346457,
                    "duration": 0.04583333333334849
                },
                {
                    "name": "B4",
                    "midi": 71,
                    "time": 412.42500000000615,
                    "velocity": 0.8740157480314961,
                    "duration": 0.06666666666671972
                },
                {
                    "name": "D6",
                    "midi": 86,
                    "time": 412.4312500000062,
                    "velocity": 0.9291338582677166,
                    "duration": 0.03333333333335986
                },
                {
                    "name": "D7",
                    "midi": 98,
                    "time": 412.43541666667284,
                    "velocity": 0.8503937007874016,
                    "duration": 0.025000000000034106
                },
                {
                    "name": "F4",
                    "midi": 65,
                    "time": 412.4375000000062,
                    "velocity": 0.6299212598425197,
                    "duration": 0.08541666666667425
                },
                {
                    "name": "D4",
                    "midi": 62,
                    "time": 412.4437500000062,
                    "velocity": 0.6771653543307087,
                    "duration": 0.12916666666666288
                },
                {
                    "name": "F#4",
                    "midi": 66,
                    "time": 412.4562500000062,
                    "velocity": 0.4330708661417323,
                    "duration": 0.041666666666685614
                },
                {
                    "name": "A3",
                    "midi": 57,
                    "time": 412.60833333333954,
                    "velocity": 0.8188976377952756,
                    "duration": 0.25833333333343944
                },
                {
                    "name": "D4",
                    "midi": 62,
                    "time": 412.8104166666729,
                    "velocity": 0.7716535433070866,
                    "duration": 0.1562500000001137
                },
                {
                    "name": "B6",
                    "midi": 95,
                    "time": 412.81250000000625,
                    "velocity": 0.84251968503937,
                    "duration": 0.05625000000009095
                },
                {
                    "name": "A4",
                    "midi": 69,
                    "time": 412.81250000000625,
                    "velocity": 0.8503937007874016,
                    "duration": 0.2291666666667993
                },
                {
                    "name": "F4",
                    "midi": 65,
                    "time": 412.8145833333396,
                    "velocity": 0.7795275590551181,
                    "duration": 0.16875000000004547
                },
                {
                    "name": "B5",
                    "midi": 83,
                    "time": 412.8250000000063,
                    "velocity": 0.7086614173228346,
                    "duration": 0.03541666666666288
                },
                {
                    "name": "A6",
                    "midi": 93,
                    "time": 412.985416666673,
                    "velocity": 0.8346456692913385,
                    "duration": 0.058333333333393966
                },
                {
                    "name": "B3",
                    "midi": 59,
                    "time": 412.9875000000064,
                    "velocity": 0.8110236220472441,
                    "duration": 0.25208333333347355
                },
                {
                    "name": "A5",
                    "midi": 81,
                    "time": 413.0062500000064,
                    "velocity": 0.5984251968503937,
                    "duration": 0.04791666666670835
                },
                {
                    "name": "D6",
                    "midi": 86,
                    "time": 413.19375000000645,
                    "velocity": 0.8818897637795275,
                    "duration": 0.058333333333393966
                },
                {
                    "name": "D4",
                    "midi": 62,
                    "time": 413.20000000000647,
                    "velocity": 0.7795275590551181,
                    "duration": 0.11666666666673109
                },
                {
                    "name": "B4",
                    "midi": 71,
                    "time": 413.20208333333983,
                    "velocity": 0.8503937007874016,
                    "duration": 0.1187500000000341
                },
                {
                    "name": "D5",
                    "midi": 74,
                    "time": 413.2041666666732,
                    "velocity": 0.7637795275590551,
                    "duration": 0.039583333333325754
                },
                {
                    "name": "F4",
                    "midi": 65,
                    "time": 413.2041666666732,
                    "velocity": 0.7952755905511811,
                    "duration": 0.10624999999998863
                },
                {
                    "name": "C4",
                    "midi": 60,
                    "time": 413.3729166666732,
                    "velocity": 0.9212598425196851,
                    "duration": 0.2645833333334622
                },
                {
                    "name": "D6",
                    "midi": 86,
                    "time": 413.5770833333399,
                    "velocity": 0.9133858267716536,
                    "duration": 0.05625000000009095
                },
                {
                    "name": "D5",
                    "midi": 74,
                    "time": 413.57916666667325,
                    "velocity": 0.9212598425196851,
                    "duration": 0.05208333333337123
                },
                {
                    "name": "C5",
                    "midi": 72,
                    "time": 413.5812500000066,
                    "velocity": 0.9133858267716536,
                    "duration": 0.08958333333339397
                },
                {
                    "name": "F4",
                    "midi": 65,
                    "time": 413.58541666667327,
                    "velocity": 0.8110236220472441,
                    "duration": 0.09166666666675383
                },
                {
                    "name": "D4",
                    "midi": 62,
                    "time": 413.58958333333993,
                    "velocity": 0.5590551181102362,
                    "duration": 0.13125000000007958
                },
                {
                    "name": "B3",
                    "midi": 59,
                    "time": 413.76666666667336,
                    "velocity": 0.8582677165354331,
                    "duration": 0.19375000000002274
                },
                {
                    "name": "E5",
                    "midi": 76,
                    "time": 413.87708333334,
                    "velocity": 0.7401574803149606,
                    "duration": 0.07708333333334849
                },
                {
                    "name": "D4",
                    "midi": 62,
                    "time": 413.9687500000067,
                    "velocity": 0.7716535433070866,
                    "duration": 0.10416666666674246
                },
                {
                    "name": "F5",
                    "midi": 77,
                    "time": 413.97083333334007,
                    "velocity": 0.8503937007874016,
                    "duration": 0.06250000000005684
                },
                {
                    "name": "B4",
                    "midi": 71,
                    "time": 413.9729166666734,
                    "velocity": 0.8346456692913385,
                    "duration": 0.07916666666670835
                },
                {
                    "name": "F4",
                    "midi": 65,
                    "time": 413.97916666667345,
                    "velocity": 0.7401574803149606,
                    "duration": 0.09583333333335986
                },
                {
                    "name": "F5",
                    "midi": 77,
                    "time": 414.07291666667345,
                    "velocity": 0.889763779527559,
                    "duration": 0.0708333333333826
                },
                {
                    "name": "C4",
                    "midi": 60,
                    "time": 414.1479166666735,
                    "velocity": 0.8188976377952756,
                    "duration": 0.2583333333333826
                },
                {
                    "name": "E5",
                    "midi": 76,
                    "time": 414.2791666666735,
                    "velocity": 0.7716535433070866,
                    "duration": 0.07083333333332575
                },
                {
                    "name": "F5",
                    "midi": 77,
                    "time": 414.37083333334016,
                    "velocity": 0.8818897637795275,
                    "duration": 0.06041666666669698
                },
                {
                    "name": "C5",
                    "midi": 72,
                    "time": 414.3729166666735,
                    "velocity": 0.8110236220472441,
                    "duration": 0.054166666666674246
                },
                {
                    "name": "F4",
                    "midi": 65,
                    "time": 414.37916666667354,
                    "velocity": 0.6929133858267716,
                    "duration": 0.06041666666664014
                },
                {
                    "name": "D4",
                    "midi": 62,
                    "time": 414.3812500000069,
                    "velocity": 0.6771653543307087,
                    "duration": 0.09583333333324617
                },
                {
                    "name": "F5",
                    "midi": 77,
                    "time": 414.4687500000068,
                    "velocity": 0.9291338582677166,
                    "duration": 0.18958333333330302
                },
                {
                    "name": "A3",
                    "midi": 57,
                    "time": 414.59166666667346,
                    "velocity": 0.7165354330708661,
                    "duration": 0.3645833333334281
                },
                {
                    "name": "E5",
                    "midi": 76,
                    "time": 414.7020833333401,
                    "velocity": 0.8582677165354331,
                    "duration": 0.08541666666667425
                },
                {
                    "name": "F5",
                    "midi": 77,
                    "time": 414.78958333334015,
                    "velocity": 0.8503937007874016,
                    "duration": 0.1437500000000682
                },
                {
                    "name": "A4",
                    "midi": 69,
                    "time": 414.7937500000068,
                    "velocity": 0.8818897637795275,
                    "duration": 0.10000000000007958
                },
                {
                    "name": "F4",
                    "midi": 65,
                    "time": 414.7937500000068,
                    "velocity": 0.84251968503937,
                    "duration": 0.11458333333342807
                },
                {
                    "name": "D4",
                    "midi": 62,
                    "time": 414.80000000000683,
                    "velocity": 0.7559055118110236,
                    "duration": 0.13958333333340533
                },
                {
                    "name": "E5",
                    "midi": 76,
                    "time": 414.8833333333402,
                    "velocity": 0.8818897637795275,
                    "duration": 0.1645833333333826
                },
                {
                    "name": "D5",
                    "midi": 74,
                    "time": 414.9833333333402,
                    "velocity": 0.8346456692913385,
                    "duration": 0.15416666666669698
                },
                {
                    "name": "A2",
                    "midi": 45,
                    "time": 415.2291666666736,
                    "velocity": 0.9133858267716536,
                    "duration": 0.1416666666666515
                },
                {
                    "name": "A5",
                    "midi": 81,
                    "time": 415.5270833333403,
                    "velocity": 0.7322834645669292,
                    "duration": 0.06041666666669698
                },
                {
                    "name": "C#4",
                    "midi": 61,
                    "time": 415.5416666666736,
                    "velocity": 0.7322834645669292,
                    "duration": 0.07291666666668561
                },
                {
                    "name": "A5",
                    "midi": 81,
                    "time": 415.700000000007,
                    "velocity": 0.7952755905511811,
                    "duration": 0.07499999999998863
                },
                {
                    "name": "A5",
                    "midi": 81,
                    "time": 415.856250000007,
                    "velocity": 0.7795275590551181,
                    "duration": 0.07708333333334849
                },
                {
                    "name": "E3",
                    "midi": 52,
                    "time": 415.918750000007,
                    "velocity": 0.5354330708661418,
                    "duration": 0.2354166666667652
                },
                {
                    "name": "A2",
                    "midi": 45,
                    "time": 416.05833333334033,
                    "velocity": 0.5590551181102362,
                    "duration": 0.5833333333334849
                },
                {
                    "name": "B5",
                    "midi": 83,
                    "time": 416.0604166666737,
                    "velocity": 0.7322834645669292,
                    "duration": 0.08958333333339397
                },
                {
                    "name": "A5",
                    "midi": 81,
                    "time": 416.08333333334036,
                    "velocity": 0.6692913385826772,
                    "duration": 0.10833333333340533
                },
                {
                    "name": "A#5",
                    "midi": 82,
                    "time": 416.0895833333404,
                    "velocity": 0.5433070866141733,
                    "duration": 0.054166666666674246
                },
                {
                    "name": "G#5",
                    "midi": 80,
                    "time": 416.16041666667377,
                    "velocity": 0.5748031496062992,
                    "duration": 0.11458333333337123
                },
                {
                    "name": "B3",
                    "midi": 59,
                    "time": 416.2062500000071,
                    "velocity": 0.5275590551181102,
                    "duration": 0.4416666666667197
                },
                {
                    "name": "G5",
                    "midi": 79,
                    "time": 416.22083333334047,
                    "velocity": 0.6535433070866141,
                    "duration": 0.10208333333332575
                },
                {
                    "name": "A5",
                    "midi": 81,
                    "time": 416.2479166666738,
                    "velocity": 0.4330708661417323,
                    "duration": 0.04791666666665151
                },
                {
                    "name": "G5",
                    "midi": 79,
                    "time": 416.43958333334047,
                    "velocity": 0.6929133858267716,
                    "duration": 0.07499999999998863
                },
                {
                    "name": "G5",
                    "midi": 79,
                    "time": 416.6041666666738,
                    "velocity": 0.7244094488188977,
                    "duration": 0.07291666666668561
                },
                {
                    "name": "E3",
                    "midi": 52,
                    "time": 416.6437500000072,
                    "velocity": 0.5511811023622047,
                    "duration": 0.25833333333332575
                },
                {
                    "name": "A2",
                    "midi": 45,
                    "time": 416.80416666667384,
                    "velocity": 0.7165354330708661,
                    "duration": 0.07083333333332575
                },
                {
                    "name": "G5",
                    "midi": 79,
                    "time": 416.8166666666738,
                    "velocity": 0.7637795275590551,
                    "duration": 0.09375
                },
                {
                    "name": "G#5",
                    "midi": 80,
                    "time": 416.8937500000072,
                    "velocity": 0.7952755905511811,
                    "duration": 0.11041666666670835
                },
                {
                    "name": "A5",
                    "midi": 81,
                    "time": 416.97916666667385,
                    "velocity": 0.7874015748031497,
                    "duration": 0.08541666666667425
                },
                {
                    "name": "C#4",
                    "midi": 61,
                    "time": 417.0020833333405,
                    "velocity": 0.7795275590551181,
                    "duration": 0.09375
                },
                {
                    "name": "A5",
                    "midi": 81,
                    "time": 417.2000000000072,
                    "velocity": 0.8582677165354331,
                    "duration": 0.08958333333333712
                },
                {
                    "name": "A5",
                    "midi": 81,
                    "time": 417.3750000000072,
                    "velocity": 0.84251968503937,
                    "duration": 0.08749999999997726
                },
                {
                    "name": "E3",
                    "midi": 52,
                    "time": 417.41458333334054,
                    "velocity": 0.6614173228346457,
                    "duration": 0.2041666666666515
                },
                {
                    "name": "A2",
                    "midi": 45,
                    "time": 417.5645833333405,
                    "velocity": 0.8031496062992126,
                    "duration": 0.06666666666666288
                },
                {
                    "name": "A5",
                    "midi": 81,
                    "time": 417.57916666667387,
                    "velocity": 0.7795275590551181,
                    "duration": 0.08333333333331439
                },
                {
                    "name": "A#5",
                    "midi": 82,
                    "time": 417.64166666667387,
                    "velocity": 0.7874015748031497,
                    "duration": 0.08749999999997726
                },
                {
                    "name": "B5",
                    "midi": 83,
                    "time": 417.71041666667384,
                    "velocity": 0.47244094488188976,
                    "duration": 0.10833333333334849
                },
                {
                    "name": "C6",
                    "midi": 84,
                    "time": 417.7687500000072,
                    "velocity": 0.7559055118110236,
                    "duration": 0.08541666666667425
                },
                {
                    "name": "D#4",
                    "midi": 63,
                    "time": 417.77291666667384,
                    "velocity": 0.889763779527559,
                    "duration": 0.0875000000000341
                },
                {
                    "name": "C6",
                    "midi": 84,
                    "time": 418.01666666667387,
                    "velocity": 0.7952755905511811,
                    "duration": 0.3083333333333371
                },
                {
                    "name": "D4",
                    "midi": 62,
                    "time": 418.35416666667385,
                    "velocity": 0.3228346456692913,
                    "duration": 0.22916666666674246
                },
                {
                    "name": "E3",
                    "midi": 52,
                    "time": 418.4000000000072,
                    "velocity": 0.3228346456692913,
                    "duration": 0.21666666666675383
                },
                {
                    "name": "C7",
                    "midi": 96,
                    "time": 418.40208333334056,
                    "velocity": 0.7322834645669292,
                    "duration": 0.7104166666667311
                },
                {
                    "name": "A2",
                    "midi": 45,
                    "time": 418.7708333333406,
                    "velocity": 0.5275590551181102,
                    "duration": 0.1333333333333826
                },
                {
                    "name": "E3",
                    "midi": 52,
                    "time": 418.93958333334064,
                    "velocity": 0.3228346456692913,
                    "duration": 0.14791666666667425
                },
                {
                    "name": "C#4",
                    "midi": 61,
                    "time": 419.1187500000073,
                    "velocity": 0.8110236220472441,
                    "duration": 0.08541666666667425
                },
                {
                    "name": "C#7",
                    "midi": 97,
                    "time": 419.4812500000073,
                    "velocity": 0.6692913385826772,
                    "duration": 0.38125000000002274
                },
                {
                    "name": "E3",
                    "midi": 52,
                    "time": 419.68750000000733,
                    "velocity": 0.3700787401574803,
                    "duration": 0.42500000000001137
                },
                {
                    "name": "A6",
                    "midi": 93,
                    "time": 419.82083333334066,
                    "velocity": 0.6299212598425197,
                    "duration": 0.22916666666668561
                },
                {
                    "name": "F#6",
                    "midi": 90,
                    "time": 420.03125000000733,
                    "velocity": 0.7637795275590551,
                    "duration": 0.16666666666668561
                },
                {
                    "name": "B2",
                    "midi": 47,
                    "time": 420.03958333334066,
                    "velocity": 0.6614173228346457,
                    "duration": 0.08541666666667425
                },
                {
                    "name": "D4",
                    "midi": 62,
                    "time": 420.2312500000074,
                    "velocity": 0.5590551181102362,
                    "duration": 0.4854166666666515
                },
                {
                    "name": "A6",
                    "midi": 93,
                    "time": 420.23541666667404,
                    "velocity": 0.5511811023622047,
                    "duration": 0.17916666666667425
                },
                {
                    "name": "G6",
                    "midi": 91,
                    "time": 420.2520833333407,
                    "velocity": 0.7244094488188977,
                    "duration": 0.5187500000000114
                },
                {
                    "name": "F#6",
                    "midi": 90,
                    "time": 420.49375000000737,
                    "velocity": 0.7952755905511811,
                    "duration": 0.008333333333325754
                },
                {
                    "name": "E3",
                    "midi": 52,
                    "time": 420.68333333334067,
                    "velocity": 0.4094488188976378,
                    "duration": 0.3520833333333826
                },
                {
                    "name": "E6",
                    "midi": 88,
                    "time": 420.697916666674,
                    "velocity": 0.6299212598425197,
                    "duration": 0.21666666666669698
                },
                {
                    "name": "C#3",
                    "midi": 49,
                    "time": 420.90000000000737,
                    "velocity": 0.6929133858267716,
                    "duration": 0.12708333333335986
                },
                {
                    "name": "C6",
                    "midi": 84,
                    "time": 420.9250000000074,
                    "velocity": 0.5590551181102362,
                    "duration": 0.19583333333332575
                },
                {
                    "name": "C#6",
                    "midi": 85,
                    "time": 421.1354166666741,
                    "velocity": 0.7795275590551181,
                    "duration": 0.3270833333333485
                },
                {
                    "name": "E4",
                    "midi": 64,
                    "time": 421.13750000000744,
                    "velocity": 0.5118110236220472,
                    "duration": 0.8375000000000341
                },
                {
                    "name": "E6",
                    "midi": 88,
                    "time": 421.4041666666741,
                    "velocity": 0.6692913385826772,
                    "duration": 0.3083333333333371
                },
                {
                    "name": "A3",
                    "midi": 57,
                    "time": 421.6354166666741,
                    "velocity": 0.2755905511811024,
                    "duration": 0.5062500000000796
                },
                {
                    "name": "C#6",
                    "midi": 85,
                    "time": 421.6541666666741,
                    "velocity": 0.5905511811023622,
                    "duration": 0.3041666666667311
                },
                {
                    "name": "E3",
                    "midi": 52,
                    "time": 421.9000000000074,
                    "velocity": 0.4566929133858268,
                    "duration": 0.15208333333339397
                },
                {
                    "name": "A5",
                    "midi": 81,
                    "time": 421.9229166666741,
                    "velocity": 0.5826771653543307,
                    "duration": 0.27708333333339397
                },
                {
                    "name": "G4",
                    "midi": 67,
                    "time": 422.1770833333408,
                    "velocity": 0.5984251968503937,
                    "duration": 0.6125000000000114
                },
                {
                    "name": "F6",
                    "midi": 89,
                    "time": 422.54583333334085,
                    "velocity": 0.8818897637795275,
                    "duration": 1.1104166666665947
                },
                {
                    "name": "A3",
                    "midi": 57,
                    "time": 422.8375000000075,
                    "velocity": 0.31496062992125984,
                    "duration": 0.08749999999997726
                },
                {
                    "name": "D2",
                    "midi": 38,
                    "time": 423.2520833333408,
                    "velocity": 0.5748031496062992,
                    "duration": 0.21458333333328028
                },
                {
                    "name": "F#3",
                    "midi": 54,
                    "time": 423.7020833333408,
                    "velocity": 0.7007874015748031,
                    "duration": 0.1708333333333485
                },
                {
                    "name": "F#6",
                    "midi": 90,
                    "time": 424.1875000000075,
                    "velocity": 0.6692913385826772,
                    "duration": 0.3291666666666515
                },
                {
                    "name": "A2",
                    "midi": 45,
                    "time": 424.49791666667414,
                    "velocity": 0.33070866141732286,
                    "duration": 0.8000000000000114
                },
                {
                    "name": "D6",
                    "midi": 86,
                    "time": 424.5145833333408,
                    "velocity": 0.5984251968503937,
                    "duration": 0.21875000000005684
                },
                {
                    "name": "E2",
                    "midi": 40,
                    "time": 424.71458333334084,
                    "velocity": 0.47244094488188976,
                    "duration": 0.10833333333334849
                },
                {
                    "name": "B5",
                    "midi": 83,
                    "time": 424.7354166666742,
                    "velocity": 0.6220472440944882,
                    "duration": 0.1166666666666174
                },
                {
                    "name": "D6",
                    "midi": 86,
                    "time": 424.9270833333408,
                    "velocity": 0.6220472440944882,
                    "duration": 0.15625
                },
                {
                    "name": "G3",
                    "midi": 55,
                    "time": 424.94375000000747,
                    "velocity": 0.6299212598425197,
                    "duration": 0.5083333333333826
                },
                {
                    "name": "C6",
                    "midi": 84,
                    "time": 424.9604166666741,
                    "velocity": 0.6929133858267716,
                    "duration": 0.3562500000000455
                },
                {
                    "name": "B5",
                    "midi": 83,
                    "time": 425.2208333333408,
                    "velocity": 0.6850393700787402,
                    "duration": 0.26666666666670835
                },
                {
                    "name": "A2",
                    "midi": 45,
                    "time": 425.4291666666742,
                    "velocity": 0.3937007874015748,
                    "duration": 0.2770833333333371
                },
                {
                    "name": "A5",
                    "midi": 81,
                    "time": 425.4354166666742,
                    "velocity": 0.6614173228346457,
                    "duration": 0.1729166666666515
                },
                {
                    "name": "F5",
                    "midi": 77,
                    "time": 425.6062500000075,
                    "velocity": 0.6220472440944882,
                    "duration": 0.2708333333333144
                },
                {
                    "name": "F#2",
                    "midi": 42,
                    "time": 425.6354166666742,
                    "velocity": 0.7559055118110236,
                    "duration": 0.1479166666666174
                },
                {
                    "name": "A3",
                    "midi": 57,
                    "time": 425.8562500000075,
                    "velocity": 0.5433070866141733,
                    "duration": 0.7979166666667084
                },
                {
                    "name": "F#5",
                    "midi": 78,
                    "time": 425.87916666667417,
                    "velocity": 0.7637795275590551,
                    "duration": 0.33125000000001137
                },
                {
                    "name": "A5",
                    "midi": 81,
                    "time": 426.10833333334085,
                    "velocity": 0.7165354330708661,
                    "duration": 0.2958333333333485
                },
                {
                    "name": "D3",
                    "midi": 50,
                    "time": 426.31666666667417,
                    "velocity": 0.7165354330708661,
                    "duration": 0.45625000000001137
                },
                {
                    "name": "F#5",
                    "midi": 78,
                    "time": 426.32708333334085,
                    "velocity": 0.7480314960629921,
                    "duration": 0.30416666666667425
                },
                {
                    "name": "D5",
                    "midi": 74,
                    "time": 426.5666666666742,
                    "velocity": 0.7637795275590551,
                    "duration": 0.5624999999999432
                },
                {
                    "name": "A2",
                    "midi": 45,
                    "time": 426.60625000000755,
                    "velocity": 0.5826771653543307,
                    "duration": 0.16041666666660603
                },
                {
                    "name": "C4",
                    "midi": 60,
                    "time": 426.8666666666742,
                    "velocity": 0.6614173228346457,
                    "duration": 0.6458333333333144
                },
                {
                    "name": "C6",
                    "midi": 84,
                    "time": 427.1750000000075,
                    "velocity": 0.8346456692913385,
                    "duration": 1.2145833333332803
                },
                {
                    "name": "F#3",
                    "midi": 54,
                    "time": 427.5000000000075,
                    "velocity": 0.5039370078740157,
                    "duration": 0.1395833333333485
                },
                {
                    "name": "A2",
                    "midi": 45,
                    "time": 427.8937500000075,
                    "velocity": 0.5275590551181102,
                    "duration": 0.19583333333332575
                },
                {
                    "name": "C#4",
                    "midi": 61,
                    "time": 428.3062500000075,
                    "velocity": 0.7086614173228346,
                    "duration": 0.439583333333303
                },
                {
                    "name": "C#6",
                    "midi": 85,
                    "time": 428.79166666667413,
                    "velocity": 0.6614173228346457,
                    "duration": 0.32083333333332575
                },
                {
                    "name": "A5",
                    "midi": 81,
                    "time": 429.0958333333408,
                    "velocity": 0.5669291338582677,
                    "duration": 0.21666666666664014
                },
                {
                    "name": "E3",
                    "midi": 52,
                    "time": 429.10416666667413,
                    "velocity": 0.5511811023622047,
                    "duration": 0.37708333333335986
                },
                {
                    "name": "F#5",
                    "midi": 78,
                    "time": 429.31250000000745,
                    "velocity": 0.6614173228346457,
                    "duration": 0.1958333333333826
                },
                {
                    "name": "B2",
                    "midi": 47,
                    "time": 429.3333333333408,
                    "velocity": 0.6220472440944882,
                    "duration": 0.13125000000002274
                },
                {
                    "name": "A5",
                    "midi": 81,
                    "time": 429.53958333334083,
                    "velocity": 0.6299212598425197,
                    "duration": 0.15416666666669698
                },
                {
                    "name": "G5",
                    "midi": 79,
                    "time": 429.57708333334085,
                    "velocity": 0.6692913385826772,
                    "duration": 0.26875000000001137
                },
                {
                    "name": "D4",
                    "midi": 62,
                    "time": 429.5791666666742,
                    "velocity": 0.5118110236220472,
                    "duration": 0.4625000000000341
                },
                {
                    "name": "F#5",
                    "midi": 78,
                    "time": 429.7812500000075,
                    "velocity": 0.7716535433070866,
                    "duration": 0.2895833333333826
                },
                {
                    "name": "E3",
                    "midi": 52,
                    "time": 429.99375000000754,
                    "velocity": 0.48031496062992124,
                    "duration": 0.32499999999998863
                },
                {
                    "name": "E5",
                    "midi": 76,
                    "time": 429.9958333333409,
                    "velocity": 0.7401574803149606,
                    "duration": 0.21249999999997726
                },
                {
                    "name": "C#3",
                    "midi": 49,
                    "time": 430.18958333334086,
                    "velocity": 0.6850393700787402,
                    "duration": 0.13541666666668561
                },
                {
                    "name": "C5",
                    "midi": 72,
                    "time": 430.1958333333409,
                    "velocity": 0.6141732283464567,
                    "duration": 0.2541666666666629
                },
                {
                    "name": "C#5",
                    "midi": 73,
                    "time": 430.4416666666742,
                    "velocity": 0.6535433070866141,
                    "duration": 0.27291666666667425
                },
                {
                    "name": "E4",
                    "midi": 64,
                    "time": 430.4583333333409,
                    "velocity": 0.33858267716535434,
                    "duration": 1.1354166666667425
                },
                {
                    "name": "E5",
                    "midi": 76,
                    "time": 430.67916666667423,
                    "velocity": 0.5826771653543307,
                    "duration": 0.31041666666664014
                },
                {
                    "name": "C#5",
                    "midi": 73,
                    "time": 430.9458333333409,
                    "velocity": 0.5669291338582677,
                    "duration": 0.27708333333339397
                },
                {
                    "name": "A3",
                    "midi": 57,
                    "time": 430.97083333334086,
                    "velocity": 0.2677165354330709,
                    "duration": 0.8854166666667425
                },
                {
                    "name": "A4",
                    "midi": 69,
                    "time": 431.2125000000076,
                    "velocity": 0.5433070866141733,
                    "duration": 1.65625
                },
                {
                    "name": "E3",
                    "midi": 52,
                    "time": 431.5541666666743,
                    "velocity": 0.5039370078740157,
                    "duration": 0.27291666666667425
                },
                {
                    "name": "G4",
                    "midi": 67,
                    "time": 431.6875000000076,
                    "velocity": 0.5984251968503937,
                    "duration": 0.40625
                },
                {
                    "name": "F5",
                    "midi": 77,
                    "time": 432.1979166666743,
                    "velocity": 0.7401574803149606,
                    "duration": 3.3333333333333144
                },
                {
                    "name": "C#4",
                    "midi": 61,
                    "time": 432.83958333334095,
                    "velocity": 0.6141732283464567,
                    "duration": 0.052083333333314386
                },
                {
                    "name": "D2",
                    "midi": 38,
                    "time": 435.88958333334097,
                    "velocity": 0.23622047244094488,
                    "duration": 5.545833333333292
                },
                {
                    "name": "A2",
                    "midi": 45,
                    "time": 436.02500000000765,
                    "velocity": 0.18110236220472442,
                    "duration": 5.381249999999966
                },
                {
                    "name": "D3",
                    "midi": 50,
                    "time": 436.13125000000764,
                    "velocity": 0.14173228346456693,
                    "duration": 5.320833333333269
                },
                {
                    "name": "F#3",
                    "midi": 54,
                    "time": 436.2041666666743,
                    "velocity": 0.3464566929133858,
                    "duration": 0.13333333333332575
                },
                {
                    "name": "C4",
                    "midi": 60,
                    "time": 436.3604166666743,
                    "velocity": 0.31496062992125984,
                    "duration": 0.16458333333332575
                },
                {
                    "name": "F#4",
                    "midi": 66,
                    "time": 436.46250000000765,
                    "velocity": 0.5196850393700787,
                    "duration": 0.17916666666667425
                },
                {
                    "name": "F#5",
                    "midi": 78,
                    "time": 437.364583333341,
                    "velocity": 0.6692913385826772,
                    "duration": 0.5395833333333258
                },
                {
                    "name": "D5",
                    "midi": 74,
                    "time": 437.93333333334095,
                    "velocity": 0.6456692913385826,
                    "duration": 0.35208333333332575
                },
                {
                    "name": "B4",
                    "midi": 71,
                    "time": 438.2812500000076,
                    "velocity": 0.6850393700787402,
                    "duration": 0.21666666666664014
                },
                {
                    "name": "D5",
                    "midi": 74,
                    "time": 438.5750000000076,
                    "velocity": 0.5196850393700787,
                    "duration": 0.15625
                },
                {
                    "name": "C5",
                    "midi": 72,
                    "time": 438.61458333334093,
                    "velocity": 0.6299212598425197,
                    "duration": 0.35208333333332575
                },
                {
                    "name": "B4",
                    "midi": 71,
                    "time": 438.88333333334094,
                    "velocity": 0.5354330708661418,
                    "duration": 0.2854166666666629
                },
                {
                    "name": "A4",
                    "midi": 69,
                    "time": 439.16666666667425,
                    "velocity": 0.3228346456692913,
                    "duration": 0.2270833333333826
                },
                {
                    "name": "F4",
                    "midi": 65,
                    "time": 439.3979166666743,
                    "velocity": 0.4566929133858268,
                    "duration": 0.3375000000000341
                },
                {
                    "name": "F#4",
                    "midi": 66,
                    "time": 439.7041666666743,
                    "velocity": 0.4881889763779528,
                    "duration": 0.4104166666666629
                },
                {
                    "name": "A4",
                    "midi": 69,
                    "time": 440.070833333341,
                    "velocity": 0.2677165354330709,
                    "duration": 0.48750000000001137
                },
                {
                    "name": "F#4",
                    "midi": 66,
                    "time": 440.46250000000765,
                    "velocity": 0.4015748031496063,
                    "duration": 0.6041666666666856
                },
                {
                    "name": "D4",
                    "midi": 62,
                    "time": 441.01250000000766,
                    "velocity": 0.2047244094488189,
                    "duration": 1.1124999999998408
                },
                {
                    "name": "G1",
                    "midi": 31,
                    "time": 443.5729166666742,
                    "velocity": 0.6535433070866141,
                    "duration": 0.10000000000007958
                },
                {
                    "name": "G6",
                    "midi": 91,
                    "time": 443.57708333334085,
                    "velocity": 0.8582677165354331,
                    "duration": 0.5729166666667993
                },
                {
                    "name": "B5",
                    "midi": 83,
                    "time": 443.5791666666742,
                    "velocity": 0.84251968503937,
                    "duration": 0.6291666666667766
                },
                {
                    "name": "G2",
                    "midi": 43,
                    "time": 443.58125000000757,
                    "velocity": 0.984251968503937,
                    "duration": 0.12916666666671972
                },
                {
                    "name": "G5",
                    "midi": 79,
                    "time": 443.58125000000757,
                    "velocity": 0.889763779527559,
                    "duration": 0.5854166666667311
                },
                {
                    "name": "D6",
                    "midi": 86,
                    "time": 443.58333333334093,
                    "velocity": 0.8818897637795275,
                    "duration": 0.6354166666667425
                },
                {
                    "name": "B1",
                    "midi": 35,
                    "time": 444.02708333334095,
                    "velocity": 0.7244094488188977,
                    "duration": 0.06666666666671972
                },
                {
                    "name": "B2",
                    "midi": 47,
                    "time": 444.0291666666743,
                    "velocity": 0.9133858267716536,
                    "duration": 0.06875000000002274
                },
                {
                    "name": "D2",
                    "midi": 38,
                    "time": 444.558333333341,
                    "velocity": 0.7244094488188977,
                    "duration": 0.0687499999999659
                },
                {
                    "name": "D3",
                    "midi": 50,
                    "time": 444.56666666667434,
                    "velocity": 0.9606299212598425,
                    "duration": 0.07708333333329165
                },
                {
                    "name": "F6",
                    "midi": 89,
                    "time": 444.91875000000766,
                    "velocity": 0.8503937007874016,
                    "duration": 0.06875000000002274
                },
                {
                    "name": "F5",
                    "midi": 77,
                    "time": 444.920833333341,
                    "velocity": 0.8818897637795275,
                    "duration": 0.07083333333332575
                },
                {
                    "name": "G3",
                    "midi": 55,
                    "time": 444.920833333341,
                    "velocity": 0.889763779527559,
                    "duration": 0.07291666666668561
                },
                {
                    "name": "G2",
                    "midi": 43,
                    "time": 444.920833333341,
                    "velocity": 0.8818897637795275,
                    "duration": 0.07083333333332575
                },
                {
                    "name": "A3",
                    "midi": 57,
                    "time": 445.1937500000077,
                    "velocity": 0.7952755905511811,
                    "duration": 0.05208333333337123
                },
                {
                    "name": "A2",
                    "midi": 45,
                    "time": 445.19583333334106,
                    "velocity": 0.8031496062992126,
                    "duration": 0.06666666666671972
                },
                {
                    "name": "D#6",
                    "midi": 87,
                    "time": 445.19583333334106,
                    "velocity": 0.889763779527559,
                    "duration": 0.06666666666671972
                },
                {
                    "name": "D#5",
                    "midi": 75,
                    "time": 445.1979166666744,
                    "velocity": 0.889763779527559,
                    "duration": 0.05833333333333712
                },
                {
                    "name": "G3",
                    "midi": 55,
                    "time": 445.36875000000776,
                    "velocity": 0.7874015748031497,
                    "duration": 0.0645833333334167
                },
                {
                    "name": "G2",
                    "midi": 43,
                    "time": 445.3708333333411,
                    "velocity": 0.8740157480314961,
                    "duration": 0.056250000000034106
                },
                {
                    "name": "F6",
                    "midi": 89,
                    "time": 445.37708333334115,
                    "velocity": 0.8031496062992126,
                    "duration": 0.03333333333335986
                },
                {
                    "name": "F5",
                    "midi": 77,
                    "time": 445.37708333334115,
                    "velocity": 0.7952755905511811,
                    "duration": 0.041666666666685614
                },
                {
                    "name": "A3",
                    "midi": 57,
                    "time": 445.53125000000784,
                    "velocity": 0.7874015748031497,
                    "duration": 0.05416666666673109
                },
                {
                    "name": "A2",
                    "midi": 45,
                    "time": 445.5333333333412,
                    "velocity": 0.7795275590551181,
                    "duration": 0.058333333333393966
                },
                {
                    "name": "D#6",
                    "midi": 87,
                    "time": 445.5437500000079,
                    "velocity": 0.8582677165354331,
                    "duration": 0.07291666666668561
                },
                {
                    "name": "D#5",
                    "midi": 75,
                    "time": 445.5437500000079,
                    "velocity": 0.8503937007874016,
                    "duration": 0.04583333333334849
                },
                {
                    "name": "G3",
                    "midi": 55,
                    "time": 445.70208333334125,
                    "velocity": 0.8503937007874016,
                    "duration": 0.06458333333335986
                },
                {
                    "name": "G2",
                    "midi": 43,
                    "time": 445.7041666666746,
                    "velocity": 0.8582677165354331,
                    "duration": 0.05833333333333712
                },
                {
                    "name": "F6",
                    "midi": 89,
                    "time": 445.7041666666746,
                    "velocity": 0.7952755905511811,
                    "duration": 0.05000000000001137
                },
                {
                    "name": "F5",
                    "midi": 77,
                    "time": 445.70625000000797,
                    "velocity": 0.8110236220472441,
                    "duration": 0.052083333333314386
                },
                {
                    "name": "A3",
                    "midi": 57,
                    "time": 445.8812500000079,
                    "velocity": 0.7086614173228346,
                    "duration": 0.0395833333333826
                },
                {
                    "name": "A2",
                    "midi": 45,
                    "time": 445.8812500000079,
                    "velocity": 0.7637795275590551,
                    "duration": 0.03541666666671972
                },
                {
                    "name": "D#5",
                    "midi": 75,
                    "time": 445.88750000000795,
                    "velocity": 0.7874015748031497,
                    "duration": 0.027083333333337123
                },
                {
                    "name": "D#6",
                    "midi": 87,
                    "time": 445.8895833333413,
                    "velocity": 0.7716535433070866,
                    "duration": 0.09166666666664014
                },
                {
                    "name": "D6",
                    "midi": 86,
                    "time": 446.1000000000079,
                    "velocity": 0.8503937007874016,
                    "duration": 0.058333333333393966
                },
                {
                    "name": "G5",
                    "midi": 79,
                    "time": 446.1000000000079,
                    "velocity": 0.8346456692913385,
                    "duration": 0.06041666666675383
                },
                {
                    "name": "B2",
                    "midi": 47,
                    "time": 446.1020833333413,
                    "velocity": 0.7874015748031497,
                    "duration": 0.056250000000034106
                },
                {
                    "name": "B3",
                    "midi": 59,
                    "time": 446.10625000000795,
                    "velocity": 0.9291338582677166,
                    "duration": 0.05625000000009095
                },
                {
                    "name": "D5",
                    "midi": 74,
                    "time": 446.1104166666746,
                    "velocity": 0.7322834645669292,
                    "duration": 0.03750000000002274
                },
                {
                    "name": "C6",
                    "midi": 84,
                    "time": 446.4104166666747,
                    "velocity": 0.8188976377952756,
                    "duration": 0.047916666666765195
                },
                {
                    "name": "C5",
                    "midi": 72,
                    "time": 446.41250000000804,
                    "velocity": 0.8582677165354331,
                    "duration": 0.05833333333345081
                },
                {
                    "name": "C3",
                    "midi": 48,
                    "time": 446.4145833333414,
                    "velocity": 0.8346456692913385,
                    "duration": 0.05625000000009095
                },
                {
                    "name": "C4",
                    "midi": 60,
                    "time": 446.41666666667476,
                    "velocity": 0.952755905511811,
                    "duration": 0.05208333333337123
                },
                {
                    "name": "D4",
                    "midi": 62,
                    "time": 446.66041666667485,
                    "velocity": 0.9291338582677166,
                    "duration": 0.06041666666681067
                },
                {
                    "name": "D3",
                    "midi": 50,
                    "time": 446.6625000000082,
                    "velocity": 0.8818897637795275,
                    "duration": 0.05208333333342807
                },
                {
                    "name": "B5",
                    "midi": 83,
                    "time": 446.66458333334157,
                    "velocity": 0.8188976377952756,
                    "duration": 0.029166666666696983
                },
                {
                    "name": "B4",
                    "midi": 71,
                    "time": 446.6708333333416,
                    "velocity": 0.6850393700787402,
                    "duration": 0.03750000000002274
                },
                {
                    "name": "E3",
                    "midi": 52,
                    "time": 446.9125000000083,
                    "velocity": 0.6141732283464567,
                    "duration": 0.08333333333337123
                },
                {
                    "name": "A#4",
                    "midi": 70,
                    "time": 446.9375000000083,
                    "velocity": 0.984251968503937,
                    "duration": 0.058333333333393966
                },
                {
                    "name": "A#5",
                    "midi": 82,
                    "time": 446.93958333334166,
                    "velocity": 0.905511811023622,
                    "duration": 0.10833333333340533
                },
                {
                    "name": "C4",
                    "midi": 60,
                    "time": 446.9437500000083,
                    "velocity": 0.7322834645669292,
                    "duration": 0.05625000000009095
                },
                {
                    "name": "G5",
                    "midi": 79,
                    "time": 446.9458333333417,
                    "velocity": 0.7559055118110236,
                    "duration": 0.0708333333333826
                },
                {
                    "name": "E4",
                    "midi": 64,
                    "time": 446.94791666667504,
                    "velocity": 0.9212598425196851,
                    "duration": 0.05000000000001137
                },
                {
                    "name": "C6",
                    "midi": 84,
                    "time": 447.4000000000084,
                    "velocity": 0.8346456692913385,
                    "duration": 0.054166666666674246
                },
                {
                    "name": "C5",
                    "midi": 72,
                    "time": 447.40208333334175,
                    "velocity": 0.8818897637795275,
                    "duration": 0.04374999999998863
                },
                {
                    "name": "D#3",
                    "midi": 51,
                    "time": 447.6062500000084,
                    "velocity": 0.6614173228346457,
                    "duration": 0.07708333333340533
                },
                {
                    "name": "C4",
                    "midi": 60,
                    "time": 447.6250000000084,
                    "velocity": 0.8503937007874016,
                    "duration": 0.06250000000011369
                },
                {
                    "name": "D#4",
                    "midi": 63,
                    "time": 447.63333333334174,
                    "velocity": 0.9291338582677166,
                    "duration": 0.05833333333345081
                },
                {
                    "name": "G3",
                    "midi": 55,
                    "time": 447.63333333334174,
                    "velocity": 0.5984251968503937,
                    "duration": 0.06041666666681067
                },
                {
                    "name": "C#5",
                    "midi": 73,
                    "time": 447.6375000000084,
                    "velocity": 0.9291338582677166,
                    "duration": 0.06250000000017053
                },
                {
                    "name": "A#5",
                    "midi": 82,
                    "time": 447.64166666667506,
                    "velocity": 0.7322834645669292,
                    "duration": 0.07916666666682204
                },
                {
                    "name": "C#6",
                    "midi": 85,
                    "time": 447.6437500000084,
                    "velocity": 0.8346456692913385,
                    "duration": 0.10833333333346218
                },
                {
                    "name": "G5",
                    "midi": 79,
                    "time": 447.6437500000084,
                    "velocity": 0.6456692913385826,
                    "duration": 0.04166666666674246
                },
                {
                    "name": "D6",
                    "midi": 86,
                    "time": 447.90000000000856,
                    "velocity": 0.84251968503937,
                    "duration": 0.1895833333334167
                },
                {
                    "name": "G5",
                    "midi": 79,
                    "time": 447.9041666666752,
                    "velocity": 0.7716535433070866,
                    "duration": 0.16666666666674246
                },
                {
                    "name": "D5",
                    "midi": 74,
                    "time": 447.9062500000086,
                    "velocity": 0.7952755905511811,
                    "duration": 0.16250000000002274
                },
                {
                    "name": "B5",
                    "midi": 83,
                    "time": 447.90833333334194,
                    "velocity": 0.7007874015748031,
                    "duration": 0.19791666666668561
                },
                {
                    "name": "B3",
                    "midi": 59,
                    "time": 447.9125000000086,
                    "velocity": 0.8582677165354331,
                    "duration": 0.2104166666667311
                },
                {
                    "name": "D4",
                    "midi": 62,
                    "time": 447.92083333334193,
                    "velocity": 0.9133858267716536,
                    "duration": 0.20000000000004547
                },
                {
                    "name": "G3",
                    "midi": 55,
                    "time": 447.9229166666753,
                    "velocity": 0.6141732283464567,
                    "duration": 0.22291666666671972
                },
                {
                    "name": "D3",
                    "midi": 50,
                    "time": 447.9312500000086,
                    "velocity": 0.5118110236220472,
                    "duration": 0.23541666666670835
                },
                {
                    "name": "B2",
                    "midi": 47,
                    "time": 448.433333333342,
                    "velocity": 0.6692913385826772,
                    "duration": 0.08125000000006821
                },
                {
                    "name": "G5",
                    "midi": 79,
                    "time": 448.433333333342,
                    "velocity": 0.7637795275590551,
                    "duration": 0.03750000000002274
                },
                {
                    "name": "B5",
                    "midi": 83,
                    "time": 448.43541666667534,
                    "velocity": 0.6850393700787402,
                    "duration": 0.03541666666666288
                },
                {
                    "name": "B4",
                    "midi": 71,
                    "time": 448.43541666667534,
                    "velocity": 0.84251968503937,
                    "duration": 0.05208333333337123
                },
                {
                    "name": "G3",
                    "midi": 55,
                    "time": 448.439583333342,
                    "velocity": 0.7322834645669292,
                    "duration": 0.04791666666670835
                },
                {
                    "name": "B3",
                    "midi": 59,
                    "time": 448.44166666667536,
                    "velocity": 0.8188976377952756,
                    "duration": 0.06041666666669698
                },
                {
                    "name": "D3",
                    "midi": 50,
                    "time": 448.45416666667535,
                    "velocity": 0.6614173228346457,
                    "duration": 0.03125
                },
                {
                    "name": "G3",
                    "midi": 55,
                    "time": 448.7375000000087,
                    "velocity": 0.8818897637795275,
                    "duration": 0.06666666666671972
                },
                {
                    "name": "G2",
                    "midi": 43,
                    "time": 448.74166666667537,
                    "velocity": 0.8031496062992126,
                    "duration": 0.06666666666671972
                },
                {
                    "name": "D5",
                    "midi": 74,
                    "time": 448.75416666667536,
                    "velocity": 0.8031496062992126,
                    "duration": 0.20208333333340533
                },
                {
                    "name": "G5",
                    "midi": 79,
                    "time": 448.7625000000087,
                    "velocity": 0.8188976377952756,
                    "duration": 0.22083333333347355
                },
                {
                    "name": "G4",
                    "midi": 67,
                    "time": 448.76458333334205,
                    "velocity": 0.8110236220472441,
                    "duration": 0.2145833333334508
                },
                {
                    "name": "A4",
                    "midi": 69,
                    "time": 448.79583333334205,
                    "velocity": 0.36220472440944884,
                    "duration": 0.15625000000005684
                },
                {
                    "name": "D2",
                    "midi": 38,
                    "time": 448.9729166666755,
                    "velocity": 0.7559055118110236,
                    "duration": 0.06250000000005684
                },
                {
                    "name": "D3",
                    "midi": 50,
                    "time": 448.9979166666755,
                    "velocity": 0.6614173228346457,
                    "duration": 0.054166666666674246
                },
                {
                    "name": "F3",
                    "midi": 53,
                    "time": 449.2479166666755,
                    "velocity": 0.7716535433070866,
                    "duration": 0.5250000000000341
                },
                {
                    "name": "C4",
                    "midi": 60,
                    "time": 449.25208333334217,
                    "velocity": 0.8503937007874016,
                    "duration": 0.5125000000000455
                },
                {
                    "name": "F#3",
                    "midi": 54,
                    "time": 449.2687500000088,
                    "velocity": 0.7322834645669292,
                    "duration": 0.5312500000000568
                },
                {
                    "name": "F5",
                    "midi": 77,
                    "time": 449.2729166666755,
                    "velocity": 0.8188976377952756,
                    "duration": 0.10416666666668561
                },
                {
                    "name": "C5",
                    "midi": 72,
                    "time": 449.27500000000884,
                    "velocity": 0.8031496062992126,
                    "duration": 0.11250000000001137
                },
                {
                    "name": "F4",
                    "midi": 65,
                    "time": 449.2770833333422,
                    "velocity": 0.7952755905511811,
                    "duration": 0.08333333333331439
                },
                {
                    "name": "D#5",
                    "midi": 75,
                    "time": 449.99166666667554,
                    "velocity": 0.8503937007874016,
                    "duration": 0.1958333333333826
                },
                {
                    "name": "D#4",
                    "midi": 63,
                    "time": 449.99791666667556,
                    "velocity": 0.937007874015748,
                    "duration": 0.15625
                },
                {
                    "name": "C4",
                    "midi": 60,
                    "time": 449.99791666667556,
                    "velocity": 0.84251968503937,
                    "duration": 0.45416666666670835
                },
                {
                    "name": "C5",
                    "midi": 72,
                    "time": 449.99791666667556,
                    "velocity": 0.7795275590551181,
                    "duration": 0.15625
                },
                {
                    "name": "D#3",
                    "midi": 51,
                    "time": 450.0020833333422,
                    "velocity": 0.8267716535433071,
                    "duration": 0.527083333333394
                },
                {
                    "name": "F#3",
                    "midi": 54,
                    "time": 450.0041666666756,
                    "velocity": 0.7716535433070866,
                    "duration": 0.4416666666666629
                },
                {
                    "name": "C5",
                    "midi": 72,
                    "time": 450.5125000000089,
                    "velocity": 0.7716535433070866,
                    "duration": 0.8395833333334508
                },
                {
                    "name": "F#4",
                    "midi": 66,
                    "time": 450.5166666666756,
                    "velocity": 0.8188976377952756,
                    "duration": 0.8125000000000568
                },
                {
                    "name": "D5",
                    "midi": 74,
                    "time": 450.5166666666756,
                    "velocity": 0.8346456692913385,
                    "duration": 0.8250000000001023
                },
                {
                    "name": "D4",
                    "midi": 62,
                    "time": 450.52083333334224,
                    "velocity": 0.8110236220472441,
                    "duration": 0.7291666666667425
                },
                {
                    "name": "D3",
                    "midi": 50,
                    "time": 450.52083333334224,
                    "velocity": 0.7401574803149606,
                    "duration": 0.7375000000000682
                },
                {
                    "name": "C4",
                    "midi": 60,
                    "time": 450.52708333334226,
                    "velocity": 0.8188976377952756,
                    "duration": 0.8041666666667311
                },
                {
                    "name": "F#3",
                    "midi": 54,
                    "time": 450.52708333334226,
                    "velocity": 0.7952755905511811,
                    "duration": 0.8958333333334281
                },
                {
                    "name": "D3",
                    "midi": 50,
                    "time": 451.4229166666757,
                    "velocity": 0.6771653543307087,
                    "duration": 1.4062500000001137
                },
                {
                    "name": "G3",
                    "midi": 55,
                    "time": 451.47083333334234,
                    "velocity": 0.5118110236220472,
                    "duration": 1.1291666666667766
                },
                {
                    "name": "B3",
                    "midi": 59,
                    "time": 451.51041666667567,
                    "velocity": 0.6614173228346457,
                    "duration": 1.083333333333428
                },
                {
                    "name": "D5",
                    "midi": 74,
                    "time": 451.5458333333424,
                    "velocity": 0.8503937007874016,
                    "duration": 0.6000000000000227
                },
                {
                    "name": "B4",
                    "midi": 71,
                    "time": 452.1041666666757,
                    "velocity": 0.7795275590551181,
                    "duration": 0.4812500000000455
                },
                {
                    "name": "G4",
                    "midi": 67,
                    "time": 452.5208333333424,
                    "velocity": 0.7874015748031497,
                    "duration": 0.3187500000000796
                },
                {
                    "name": "F4",
                    "midi": 65,
                    "time": 452.79375000000914,
                    "velocity": 0.7795275590551181,
                    "duration": 0.53125
                },
                {
                    "name": "G#3",
                    "midi": 56,
                    "time": 452.81250000000915,
                    "velocity": 0.5039370078740157,
                    "duration": 0.9187499999999886
                },
                {
                    "name": "D#3",
                    "midi": 51,
                    "time": 452.8208333333425,
                    "velocity": 0.5039370078740157,
                    "duration": 0.8812500000000227
                },
                {
                    "name": "C4",
                    "midi": 60,
                    "time": 452.8395833333425,
                    "velocity": 0.3464566929133858,
                    "duration": 0.7208333333333599
                },
                {
                    "name": "D#4",
                    "midi": 63,
                    "time": 453.3354166666758,
                    "velocity": 0.6850393700787402,
                    "duration": 0.408333333333303
                },
                {
                    "name": "D4",
                    "midi": 62,
                    "time": 453.7666666666758,
                    "velocity": 0.4251968503937008,
                    "duration": 0.6083333333333485
                },
                {
                    "name": "F#3",
                    "midi": 54,
                    "time": 453.80208333334247,
                    "velocity": 0.09448818897637795,
                    "duration": 0.8687500000000341
                },
                {
                    "name": "D3",
                    "midi": 50,
                    "time": 453.80625000000913,
                    "velocity": 0.07086614173228346,
                    "duration": 0.6437500000000114
                },
                {
                    "name": "C4",
                    "midi": 60,
                    "time": 453.8229166666758,
                    "velocity": 0.16535433070866143,
                    "duration": 0.7979166666667084
                },
                {
                    "name": "D3",
                    "midi": 50,
                    "time": 454.9625000000092,
                    "velocity": 0.14173228346456693,
                    "duration": 0.5062499999999659
                },
                {
                    "name": "B3",
                    "midi": 59,
                    "time": 455.0000000000092,
                    "velocity": 0.14173228346456693,
                    "duration": 0.470833333333303
                },
                {
                    "name": "G3",
                    "midi": 55,
                    "time": 455.01666666667586,
                    "velocity": 0.13385826771653545,
                    "duration": 0.4333333333332803
                },
                {
                    "name": "D5",
                    "midi": 74,
                    "time": 455.09375000000915,
                    "velocity": 0.3700787401574803,
                    "duration": 0.3125
                },
                {
                    "name": "B4",
                    "midi": 71,
                    "time": 455.4145833333425,
                    "velocity": 0.4330708661417323,
                    "duration": 0.17291666666670835
                },
                {
                    "name": "G4",
                    "midi": 67,
                    "time": 455.6000000000092,
                    "velocity": 0.4645669291338583,
                    "duration": 0.14791666666667425
                },
                {
                    "name": "G#3",
                    "midi": 56,
                    "time": 455.7395833333425,
                    "velocity": 0.2755905511811024,
                    "duration": 0.5000000000001705
                },
                {
                    "name": "D#3",
                    "midi": 51,
                    "time": 455.76666666667586,
                    "velocity": 0.31496062992125984,
                    "duration": 0.5812500000001819
                },
                {
                    "name": "F4",
                    "midi": 65,
                    "time": 455.77500000000924,
                    "velocity": 0.44881889763779526,
                    "duration": 0.21666666666669698
                },
                {
                    "name": "C4",
                    "midi": 60,
                    "time": 455.7791666666759,
                    "velocity": 0.2283464566929134,
                    "duration": 0.4541666666667652
                },
                {
                    "name": "D#4",
                    "midi": 63,
                    "time": 455.99791666667596,
                    "velocity": 0.5354330708661418,
                    "duration": 0.15833333333335986
                },
                {
                    "name": "D4",
                    "midi": 62,
                    "time": 456.17708333334264,
                    "velocity": 0.5590551181102362,
                    "duration": 0.08541666666673109
                },
                {
                    "name": "D5",
                    "midi": 74,
                    "time": 456.34791666667604,
                    "velocity": 0.6614173228346457,
                    "duration": 0.2624999999999318
                },
                {
                    "name": "D3",
                    "midi": 50,
                    "time": 456.372916666676,
                    "velocity": 0.4094488188976378,
                    "duration": 0.6083333333332348
                },
                {
                    "name": "B3",
                    "midi": 59,
                    "time": 456.38958333334267,
                    "velocity": 0.4409448818897638,
                    "duration": 0.35416666666662877
                },
                {
                    "name": "G3",
                    "midi": 55,
                    "time": 456.39375000000933,
                    "velocity": 0.3464566929133858,
                    "duration": 0.3708333333332803
                },
                {
                    "name": "B4",
                    "midi": 71,
                    "time": 456.6187500000093,
                    "velocity": 0.4330708661417323,
                    "duration": 0.1875
                },
                {
                    "name": "G4",
                    "midi": 67,
                    "time": 456.8312500000093,
                    "velocity": 0.4645669291338583,
                    "duration": 0.13749999999998863
                },
                {
                    "name": "F4",
                    "midi": 65,
                    "time": 457.00625000000923,
                    "velocity": 0.4566929133858268,
                    "duration": 0.07916666666670835
                },
                {
                    "name": "G#3",
                    "midi": 56,
                    "time": 457.0229166666759,
                    "velocity": 0.3543307086614173,
                    "duration": 0.21666666666681067
                },
                {
                    "name": "D#3",
                    "midi": 51,
                    "time": 457.0291666666759,
                    "velocity": 0.33858267716535434,
                    "duration": 0.31041666666681067
                },
                {
                    "name": "C4",
                    "midi": 60,
                    "time": 457.03125000000927,
                    "velocity": 0.3228346456692913,
                    "duration": 0.16875000000004547
                },
                {
                    "name": "D#4",
                    "midi": 63,
                    "time": 457.1291666666759,
                    "velocity": 0.6771653543307087,
                    "duration": 0.06875000000002274
                },
                {
                    "name": "D4",
                    "midi": 62,
                    "time": 457.23333333334267,
                    "velocity": 0.5984251968503937,
                    "duration": 0.04583333333334849
                },
                {
                    "name": "D5",
                    "midi": 74,
                    "time": 457.3270833333427,
                    "velocity": 0.7716535433070866,
                    "duration": 0.22916666666668561
                },
                {
                    "name": "B3",
                    "midi": 59,
                    "time": 457.3312500000094,
                    "velocity": 0.5354330708661418,
                    "duration": 0.40625000000017053
                },
                {
                    "name": "D3",
                    "midi": 50,
                    "time": 457.34583333334274,
                    "velocity": 0.4409448818897638,
                    "duration": 0.516666666666822
                },
                {
                    "name": "G3",
                    "midi": 55,
                    "time": 457.3500000000094,
                    "velocity": 0.4645669291338583,
                    "duration": 0.37291666666681067
                },
                {
                    "name": "B4",
                    "midi": 71,
                    "time": 457.54166666667606,
                    "velocity": 0.5984251968503937,
                    "duration": 0.16041666666677656
                },
                {
                    "name": "G4",
                    "midi": 67,
                    "time": 457.7041666666762,
                    "velocity": 0.5748031496062992,
                    "duration": 0.11458333333337123
                },
                {
                    "name": "F4",
                    "midi": 65,
                    "time": 457.8354166666762,
                    "velocity": 0.6220472440944882,
                    "duration": 0.09375
                },
                {
                    "name": "C4",
                    "midi": 60,
                    "time": 457.8395833333429,
                    "velocity": 0.6614173228346457,
                    "duration": 0.18958333333335986
                },
                {
                    "name": "D#3",
                    "midi": 51,
                    "time": 457.8395833333429,
                    "velocity": 0.6141732283464567,
                    "duration": 0.4187500000001023
                },
                {
                    "name": "G#3",
                    "midi": 56,
                    "time": 457.84375000000955,
                    "velocity": 0.6771653543307087,
                    "duration": 0.22083333333335986
                },
                {
                    "name": "D#4",
                    "midi": 63,
                    "time": 457.9625000000096,
                    "velocity": 0.7480314960629921,
                    "duration": 0.11666666666667425
                },
                {
                    "name": "D4",
                    "midi": 62,
                    "time": 458.1062500000096,
                    "velocity": 0.3464566929133858,
                    "duration": 0.05000000000001137
                },
                {
                    "name": "D3",
                    "midi": 50,
                    "time": 458.25208333334297,
                    "velocity": 0.5354330708661418,
                    "duration": 0.08750000000009095
                },
                {
                    "name": "G3",
                    "midi": 55,
                    "time": 458.2854166666763,
                    "velocity": 0.6535433070866141,
                    "duration": 0.05000000000001137
                },
                {
                    "name": "B3",
                    "midi": 59,
                    "time": 458.289583333343,
                    "velocity": 0.7244094488188977,
                    "duration": 0.06666666666671972
                },
                {
                    "name": "D6",
                    "midi": 86,
                    "time": 458.3312500000097,
                    "velocity": 0.7559055118110236,
                    "duration": 0.0875000000000341
                },
                {
                    "name": "B5",
                    "midi": 83,
                    "time": 458.4229166666764,
                    "velocity": 0.5590551181102362,
                    "duration": 0.09166666666669698
                },
                {
                    "name": "G5",
                    "midi": 79,
                    "time": 458.5041666666764,
                    "velocity": 0.6535433070866141,
                    "duration": 0.08958333333339397
                },
                {
                    "name": "F5",
                    "midi": 77,
                    "time": 458.58125000000973,
                    "velocity": 0.7401574803149606,
                    "duration": 0.11458333333342807
                },
                {
                    "name": "G#4",
                    "midi": 68,
                    "time": 458.58125000000973,
                    "velocity": 0.7952755905511811,
                    "duration": 0.38958333333340533
                },
                {
                    "name": "C5",
                    "midi": 72,
                    "time": 458.58541666667645,
                    "velocity": 0.7795275590551181,
                    "duration": 0.34375
                },
                {
                    "name": "D#4",
                    "midi": 63,
                    "time": 458.6000000000098,
                    "velocity": 0.6692913385826772,
                    "duration": 0.35624999999998863
                },
                {
                    "name": "D#5",
                    "midi": 75,
                    "time": 458.7479166666765,
                    "velocity": 0.8346456692913385,
                    "duration": 0.12083333333333712
                },
                {
                    "name": "D5",
                    "midi": 74,
                    "time": 458.87708333334314,
                    "velocity": 0.7401574803149606,
                    "duration": 0.07916666666665151
                },
                {
                    "name": "D6",
                    "midi": 86,
                    "time": 459.00833333334316,
                    "velocity": 0.8346456692913385,
                    "duration": 0.18333333333333712
                },
                {
                    "name": "B4",
                    "midi": 71,
                    "time": 459.02500000000987,
                    "velocity": 0.8346456692913385,
                    "duration": 0.26249999999998863
                },
                {
                    "name": "G4",
                    "midi": 67,
                    "time": 459.02916666667653,
                    "velocity": 0.7874015748031497,
                    "duration": 0.30208333333337123
                },
                {
                    "name": "D4",
                    "midi": 62,
                    "time": 459.03541666667655,
                    "velocity": 0.7244094488188977,
                    "duration": 0.23333333333329165
                },
                {
                    "name": "B5",
                    "midi": 83,
                    "time": 459.1708333333432,
                    "velocity": 0.7559055118110236,
                    "duration": 0.13750000000004547
                },
                {
                    "name": "G5",
                    "midi": 79,
                    "time": 459.30625000000987,
                    "velocity": 0.7637795275590551,
                    "duration": 0.08958333333339397
                },
                {
                    "name": "F5",
                    "midi": 77,
                    "time": 459.4250000000099,
                    "velocity": 0.6535433070866141,
                    "duration": 0.07500000000004547
                },
                {
                    "name": "G#4",
                    "midi": 68,
                    "time": 459.4479166666766,
                    "velocity": 0.8976377952755905,
                    "duration": 0.2125000000000341
                },
                {
                    "name": "C5",
                    "midi": 72,
                    "time": 459.45000000000994,
                    "velocity": 0.8740157480314961,
                    "duration": 0.14791666666667425
                },
                {
                    "name": "D#4",
                    "midi": 63,
                    "time": 459.4541666666766,
                    "velocity": 0.8976377952755905,
                    "duration": 0.17708333333331439
                },
                {
                    "name": "D#5",
                    "midi": 75,
                    "time": 459.5354166666766,
                    "velocity": 0.7244094488188977,
                    "duration": 0.06666666666666288
                },
                {
                    "name": "D5",
                    "midi": 74,
                    "time": 459.6020833333433,
                    "velocity": 0.7165354330708661,
                    "duration": 0.06666666666666288
                },
                {
                    "name": "D6",
                    "midi": 86,
                    "time": 459.6916666666766,
                    "velocity": 0.889763779527559,
                    "duration": 0.22500000000013642
                },
                {
                    "name": "B4",
                    "midi": 71,
                    "time": 459.69791666667663,
                    "velocity": 0.8976377952755905,
                    "duration": 0.36666666666678793
                },
                {
                    "name": "G4",
                    "midi": 67,
                    "time": 459.70416666667666,
                    "velocity": 0.8346456692913385,
                    "duration": 0.4187500000001023
                },
                {
                    "name": "D4",
                    "midi": 62,
                    "time": 459.70625000001,
                    "velocity": 0.8031496062992126,
                    "duration": 0.3333333333334281
                },
                {
                    "name": "B5",
                    "midi": 83,
                    "time": 459.8625000000101,
                    "velocity": 0.7874015748031497,
                    "duration": 0.16250000000002274
                },
                {
                    "name": "G5",
                    "midi": 79,
                    "time": 459.99791666667676,
                    "velocity": 0.7874015748031497,
                    "duration": 0.13541666666668561
                },
                {
                    "name": "F5",
                    "midi": 77,
                    "time": 460.1291666666768,
                    "velocity": 0.7637795275590551,
                    "duration": 0.0875000000000341
                },
                {
                    "name": "G#4",
                    "midi": 68,
                    "time": 460.1354166666768,
                    "velocity": 0.8976377952755905,
                    "duration": 0.32499999999998863
                },
                {
                    "name": "C5",
                    "midi": 72,
                    "time": 460.13750000001016,
                    "velocity": 0.9448818897637795,
                    "duration": 0.2354166666666515
                },
                {
                    "name": "D#4",
                    "midi": 63,
                    "time": 460.1458333333435,
                    "velocity": 0.905511811023622,
                    "duration": 0.24374999999997726
                },
                {
                    "name": "D#5",
                    "midi": 75,
                    "time": 460.25625000001014,
                    "velocity": 0.8661417322834646,
                    "duration": 0.11041666666665151
                },
                {
                    "name": "D5",
                    "midi": 74,
                    "time": 460.3666666666768,
                    "velocity": 0.7244094488188977,
                    "duration": 0.05000000000001137
                },
                {
                    "name": "D4",
                    "midi": 62,
                    "time": 460.55208333334343,
                    "velocity": 0.8031496062992126,
                    "duration": 0.0687499999999659
                },
                {
                    "name": "B4",
                    "midi": 71,
                    "time": 460.5562500000101,
                    "velocity": 0.9448818897637795,
                    "duration": 0.06041666666664014
                },
                {
                    "name": "G4",
                    "midi": 67,
                    "time": 460.5645833333434,
                    "velocity": 0.7086614173228346,
                    "duration": 0.039583333333325754
                },
                {
                    "name": "D7",
                    "midi": 98,
                    "time": 460.5687500000101,
                    "velocity": 0.8503937007874016,
                    "duration": 0.10208333333332575
                },
                {
                    "name": "B6",
                    "midi": 95,
                    "time": 460.6625000000101,
                    "velocity": 0.7716535433070866,
                    "duration": 0.09791666666666288
                },
                {
                    "name": "G6",
                    "midi": 91,
                    "time": 460.74166666667674,
                    "velocity": 0.5984251968503937,
                    "duration": 0.10416666666668561
                },
                {
                    "name": "F6",
                    "midi": 89,
                    "time": 460.80208333334343,
                    "velocity": 0.8346456692913385,
                    "duration": 0.11250000000001137
                },
                {
                    "name": "C6",
                    "midi": 84,
                    "time": 460.8145833333434,
                    "velocity": 0.9763779527559056,
                    "duration": 0.27708333333339397
                },
                {
                    "name": "D#5",
                    "midi": 75,
                    "time": 460.8187500000101,
                    "velocity": 0.952755905511811,
                    "duration": 0.29583333333340533
                },
                {
                    "name": "G#5",
                    "midi": 80,
                    "time": 460.8187500000101,
                    "velocity": 0.889763779527559,
                    "duration": 0.3333333333334281
                },
                {
                    "name": "D#6",
                    "midi": 87,
                    "time": 460.95625000001013,
                    "velocity": 0.8976377952755905,
                    "duration": 0.11666666666667425
                },
                {
                    "name": "D6",
                    "midi": 86,
                    "time": 461.06875000001014,
                    "velocity": 0.8740157480314961,
                    "duration": 0.08333333333337123
                },
                {
                    "name": "B5",
                    "midi": 83,
                    "time": 461.1750000000102,
                    "velocity": 0.8976377952755905,
                    "duration": 0.26666666666670835
                },
                {
                    "name": "D7",
                    "midi": 98,
                    "time": 461.1812500000102,
                    "velocity": 0.8503937007874016,
                    "duration": 0.17500000000001137
                },
                {
                    "name": "D5",
                    "midi": 74,
                    "time": 461.18333333334357,
                    "velocity": 0.8188976377952756,
                    "duration": 0.19999999999998863
                },
                {
                    "name": "G5",
                    "midi": 79,
                    "time": 461.18541666667693,
                    "velocity": 0.7952755905511811,
                    "duration": 0.32291666666662877
                },
                {
                    "name": "B6",
                    "midi": 95,
                    "time": 461.32083333334356,
                    "velocity": 0.8346456692913385,
                    "duration": 0.14791666666667425
                },
                {
                    "name": "G6",
                    "midi": 91,
                    "time": 461.4312500000102,
                    "velocity": 0.8031496062992126,
                    "duration": 0.11666666666667425
                },
                {
                    "name": "F6",
                    "midi": 89,
                    "time": 461.53958333334356,
                    "velocity": 0.7637795275590551,
                    "duration": 0.07916666666670835
                },
                {
                    "name": "C6",
                    "midi": 84,
                    "time": 461.55833333334357,
                    "velocity": 0.9448818897637795,
                    "duration": 0.15208333333339397
                },
                {
                    "name": "D#5",
                    "midi": 75,
                    "time": 461.56041666667693,
                    "velocity": 0.9133858267716536,
                    "duration": 0.17708333333337123
                },
                {
                    "name": "G#5",
                    "midi": 80,
                    "time": 461.5625000000103,
                    "velocity": 0.8976377952755905,
                    "duration": 0.22083333333335986
                },
                {
                    "name": "D#6",
                    "midi": 87,
                    "time": 461.6375000000103,
                    "velocity": 0.7952755905511811,
                    "duration": 0.07708333333334849
                },
                {
                    "name": "D6",
                    "midi": 86,
                    "time": 461.7083333333436,
                    "velocity": 0.8188976377952756,
                    "duration": 0.06250000000005684
                },
                {
                    "name": "D7",
                    "midi": 98,
                    "time": 461.7875000000103,
                    "velocity": 0.889763779527559,
                    "duration": 0.21666666666669698
                },
                {
                    "name": "B5",
                    "midi": 83,
                    "time": 461.80208333334366,
                    "velocity": 0.9291338582677166,
                    "duration": 0.30833333333339397
                },
                {
                    "name": "D5",
                    "midi": 74,
                    "time": 461.8062500000103,
                    "velocity": 0.8503937007874016,
                    "duration": 0.28125000000005684
                },
                {
                    "name": "G5",
                    "midi": 79,
                    "time": 461.810416666677,
                    "velocity": 0.8031496062992126,
                    "duration": 0.4250000000000682
                },
                {
                    "name": "B6",
                    "midi": 95,
                    "time": 461.954166666677,
                    "velocity": 0.8188976377952756,
                    "duration": 0.1500000000000341
                },
                {
                    "name": "G6",
                    "midi": 91,
                    "time": 462.054166666677,
                    "velocity": 0.7874015748031497,
                    "duration": 0.13750000000004547
                },
                {
                    "name": "F6",
                    "midi": 89,
                    "time": 462.17291666667705,
                    "velocity": 0.7716535433070866,
                    "duration": 0.08541666666667425
                },
                {
                    "name": "C6",
                    "midi": 84,
                    "time": 462.1770833333437,
                    "velocity": 0.984251968503937,
                    "duration": 0.1812500000000341
                },
                {
                    "name": "G#5",
                    "midi": 80,
                    "time": 462.1770833333437,
                    "velocity": 0.8976377952755905,
                    "duration": 0.279166666666697
                },
                {
                    "name": "D#5",
                    "midi": 75,
                    "time": 462.18333333334374,
                    "velocity": 0.8661417322834646,
                    "duration": 0.22916666666668561
                },
                {
                    "name": "D#6",
                    "midi": 87,
                    "time": 462.2916666666771,
                    "velocity": 0.8503937007874016,
                    "duration": 0.09583333333335986
                },
                {
                    "name": "D6",
                    "midi": 86,
                    "time": 462.3812500000104,
                    "velocity": 0.8110236220472441,
                    "duration": 0.07083333333332575
                },
                {
                    "name": "D7",
                    "midi": 98,
                    "time": 462.48541666667705,
                    "velocity": 0.8740157480314961,
                    "duration": 0.10833333333334849
                },
                {
                    "name": "B5",
                    "midi": 83,
                    "time": 462.4875000000104,
                    "velocity": 0.8976377952755905,
                    "duration": 0.11666666666667425
                },
                {
                    "name": "D5",
                    "midi": 74,
                    "time": 462.4875000000104,
                    "velocity": 0.8582677165354331,
                    "duration": 0.09583333333330302
                },
                {
                    "name": "G5",
                    "midi": 79,
                    "time": 462.49583333334374,
                    "velocity": 0.7952755905511811,
                    "duration": 0.15416666666669698
                },
                {
                    "name": "B6",
                    "midi": 95,
                    "time": 462.5625000000104,
                    "velocity": 0.7637795275590551,
                    "duration": 0.12291666666669698
                },
                {
                    "name": "G6",
                    "midi": 91,
                    "time": 462.65000000001044,
                    "velocity": 0.6220472440944882,
                    "duration": 0.09375
                },
                {
                    "name": "C6",
                    "midi": 84,
                    "time": 462.6979166666771,
                    "velocity": 0.9448818897637795,
                    "duration": 0.2875000000000796
                },
                {
                    "name": "G#5",
                    "midi": 80,
                    "time": 462.70000000001045,
                    "velocity": 0.905511811023622,
                    "duration": 0.3416666666667538
                },
                {
                    "name": "D#5",
                    "midi": 75,
                    "time": 462.70000000001045,
                    "velocity": 0.937007874015748,
                    "duration": 0.3208333333333826
                },
                {
                    "name": "F6",
                    "midi": 89,
                    "time": 462.7041666666771,
                    "velocity": 0.8188976377952756,
                    "duration": 0.10833333333334849
                },
                {
                    "name": "D#6",
                    "midi": 87,
                    "time": 462.83541666667713,
                    "velocity": 0.8976377952755905,
                    "duration": 0.11666666666667425
                },
                {
                    "name": "D6",
                    "midi": 86,
                    "time": 462.94791666667714,
                    "velocity": 0.8582677165354331,
                    "duration": 0.07916666666670835
                },
                {
                    "name": "D7",
                    "midi": 98,
                    "time": 463.0500000000105,
                    "velocity": 0.8976377952755905,
                    "duration": 0.18333333333339397
                },
                {
                    "name": "B5",
                    "midi": 83,
                    "time": 463.0604166666772,
                    "velocity": 0.9291338582677166,
                    "duration": 0.2645833333333485
                },
                {
                    "name": "D5",
                    "midi": 74,
                    "time": 463.0625000000106,
                    "velocity": 0.8582677165354331,
                    "duration": 0.19791666666668561
                },
                {
                    "name": "G5",
                    "midi": 79,
                    "time": 463.0687500000106,
                    "velocity": 0.8110236220472441,
                    "duration": 0.3291666666666515
                },
                {
                    "name": "G#5",
                    "midi": 80,
                    "time": 463.0895833333439,
                    "velocity": 0.5196850393700787,
                    "duration": 0.054166666666674246
                },
                {
                    "name": "B6",
                    "midi": 95,
                    "time": 463.1875000000106,
                    "velocity": 0.84251968503937,
                    "duration": 0.14999999999997726
                },
                {
                    "name": "G6",
                    "midi": 91,
                    "time": 463.3000000000106,
                    "velocity": 0.8110236220472441,
                    "duration": 0.1187500000000341
                },
                {
                    "name": "F6",
                    "midi": 89,
                    "time": 463.4020833333439,
                    "velocity": 0.7401574803149606,
                    "duration": 0.07708333333340533
                },
                {
                    "name": "D#5",
                    "midi": 75,
                    "time": 463.42500000001064,
                    "velocity": 0.937007874015748,
                    "duration": 0.14791666666667425
                },
                {
                    "name": "G#5",
                    "midi": 80,
                    "time": 463.43125000001066,
                    "velocity": 0.9291338582677166,
                    "duration": 0.17500000000001137
                },
                {
                    "name": "C6",
                    "midi": 84,
                    "time": 463.43125000001066,
                    "velocity": 0.9606299212598425,
                    "duration": 0.11041666666665151
                },
                {
                    "name": "D#6",
                    "midi": 87,
                    "time": 463.50000000001063,
                    "velocity": 0.7716535433070866,
                    "duration": 0.08333333333337123
                },
                {
                    "name": "D6",
                    "midi": 86,
                    "time": 463.57083333334396,
                    "velocity": 0.84251968503937,
                    "duration": 0.06666666666671972
                },
                {
                    "name": "D5",
                    "midi": 74,
                    "time": 463.65000000001066,
                    "velocity": 0.8976377952755905,
                    "duration": 0.32083333333332575
                },
                {
                    "name": "B5",
                    "midi": 83,
                    "time": 463.65000000001066,
                    "velocity": 0.9448818897637795,
                    "duration": 0.37708333333335986
                },
                {
                    "name": "G5",
                    "midi": 79,
                    "time": 463.6541666666773,
                    "velocity": 0.8503937007874016,
                    "duration": 0.4645833333333371
                },
                {
                    "name": "D7",
                    "midi": 98,
                    "time": 463.6562500000107,
                    "velocity": 0.8976377952755905,
                    "duration": 0.22708333333332575
                },
                {
                    "name": "B6",
                    "midi": 95,
                    "time": 463.833333333344,
                    "velocity": 0.7952755905511811,
                    "duration": 0.18958333333335986
                },
                {
                    "name": "G6",
                    "midi": 91,
                    "time": 463.97291666667735,
                    "velocity": 0.8818897637795275,
                    "duration": 0.20833333333342807
                },
                {
                    "name": "D#5",
                    "midi": 75,
                    "time": 464.14166666667734,
                    "velocity": 0.8582677165354331,
                    "duration": 0.36458333333354176
                },
                {
                    "name": "C6",
                    "midi": 84,
                    "time": 464.1437500000107,
                    "velocity": 0.984251968503937,
                    "duration": 0.35625000000015916
                },
                {
                    "name": "G#5",
                    "midi": 80,
                    "time": 464.14583333334406,
                    "velocity": 0.905511811023622,
                    "duration": 0.3791666666668334
                },
                {
                    "name": "F6",
                    "midi": 89,
                    "time": 464.1479166666774,
                    "velocity": 0.8188976377952756,
                    "duration": 0.2104166666667311
                },
                {
                    "name": "D#6",
                    "midi": 87,
                    "time": 464.31666666667746,
                    "velocity": 0.8976377952755905,
                    "duration": 0.19791666666674246
                },
                {
                    "name": "D6",
                    "midi": 86,
                    "time": 464.49375000001083,
                    "velocity": 0.8031496062992126,
                    "duration": 0.07291666666674246
                },
                {
                    "name": "F6",
                    "midi": 89,
                    "time": 464.85000000001094,
                    "velocity": 0.9921259842519685,
                    "duration": 0.39791666666667425
                },
                {
                    "name": "F7",
                    "midi": 101,
                    "time": 464.8541666666776,
                    "velocity": 0.8110236220472441,
                    "duration": 0.3916666666666515
                },
                {
                    "name": "F3",
                    "midi": 53,
                    "time": 465.78541666667763,
                    "velocity": 0.9133858267716536,
                    "duration": 0.46875
                },
                {
                    "name": "D#3",
                    "midi": 51,
                    "time": 465.787500000011,
                    "velocity": 0.9448818897637795,
                    "duration": 0.46875
                },
                {
                    "name": "G#2",
                    "midi": 44,
                    "time": 465.787500000011,
                    "velocity": 0.8976377952755905,
                    "duration": 0.44583333333332575
                },
                {
                    "name": "F4",
                    "midi": 65,
                    "time": 465.78958333334435,
                    "velocity": 0.952755905511811,
                    "duration": 0.4270833333333144
                },
                {
                    "name": "D#4",
                    "midi": 63,
                    "time": 465.78958333334435,
                    "velocity": 0.952755905511811,
                    "duration": 0.36666666666667425
                },
                {
                    "name": "C4",
                    "midi": 60,
                    "time": 465.793750000011,
                    "velocity": 0.9291338582677166,
                    "duration": 0.36250000000001137
                },
                {
                    "name": "D#7",
                    "midi": 99,
                    "time": 466.6833333333443,
                    "velocity": 0.8976377952755905,
                    "duration": 0.3166666666666629
                },
                {
                    "name": "C7",
                    "midi": 96,
                    "time": 466.8958333333443,
                    "velocity": 0.7716535433070866,
                    "duration": 0.19166666666666288
                },
                {
                    "name": "G#6",
                    "midi": 92,
                    "time": 467.0208333333443,
                    "velocity": 0.8346456692913385,
                    "duration": 0.10625000000004547
                },
                {
                    "name": "F6",
                    "midi": 89,
                    "time": 467.09375000001097,
                    "velocity": 0.6614173228346457,
                    "duration": 0.056250000000034106
                },
                {
                    "name": "D#6",
                    "midi": 87,
                    "time": 467.162500000011,
                    "velocity": 0.7716535433070866,
                    "duration": 0.14166666666670835
                },
                {
                    "name": "C6",
                    "midi": 84,
                    "time": 467.25833333334435,
                    "velocity": 0.6850393700787402,
                    "duration": 0.1187500000000341
                },
                {
                    "name": "G#5",
                    "midi": 80,
                    "time": 467.3229166666777,
                    "velocity": 0.7244094488188977,
                    "duration": 0.10624999999998863
                },
                {
                    "name": "F5",
                    "midi": 77,
                    "time": 467.38125000001105,
                    "velocity": 0.6377952755905512,
                    "duration": 0.08333333333331439
                },
                {
                    "name": "D#5",
                    "midi": 75,
                    "time": 467.500000000011,
                    "velocity": 0.6377952755905512,
                    "duration": 0.08333333333337123
                },
                {
                    "name": "C5",
                    "midi": 72,
                    "time": 467.5145833333444,
                    "velocity": 0.4566929133858268,
                    "duration": 0.17708333333337123
                },
                {
                    "name": "G#4",
                    "midi": 68,
                    "time": 467.62916666667775,
                    "velocity": 0.7559055118110236,
                    "duration": 0.13333333333332575
                },
                {
                    "name": "F4",
                    "midi": 65,
                    "time": 467.6958333333444,
                    "velocity": 0.5984251968503937,
                    "duration": 0.08125000000001137
                },
                {
                    "name": "D#4",
                    "midi": 63,
                    "time": 467.79583333334443,
                    "velocity": 0.8976377952755905,
                    "duration": 0.10833333333334849
                },
                {
                    "name": "C4",
                    "midi": 60,
                    "time": 467.89583333334446,
                    "velocity": 0.6614173228346457,
                    "duration": 0.10416666666662877
                },
                {
                    "name": "G#3",
                    "midi": 56,
                    "time": 467.96041666667776,
                    "velocity": 0.6850393700787402,
                    "duration": 0.06041666666664014
                },
                {
                    "name": "F3",
                    "midi": 53,
                    "time": 467.9750000000111,
                    "velocity": 0.7637795275590551,
                    "duration": 0.08749999999997726
                },
                {
                    "name": "D4",
                    "midi": 62,
                    "time": 468.2145833333444,
                    "velocity": 0.8740157480314961,
                    "duration": 0.1791666666667311
                },
                {
                    "name": "D2",
                    "midi": 38,
                    "time": 468.2145833333444,
                    "velocity": 1,
                    "duration": 0.1958333333333826
                },
                {
                    "name": "F#3",
                    "midi": 54,
                    "time": 468.2145833333444,
                    "velocity": 0.905511811023622,
                    "duration": 0.13958333333340533
                },
                {
                    "name": "D1",
                    "midi": 26,
                    "time": 468.22083333334444,
                    "velocity": 1,
                    "duration": 0.19166666666671972
                },
                {
                    "name": "C4",
                    "midi": 60,
                    "time": 468.23125000001113,
                    "velocity": 0.7322834645669292,
                    "duration": 0.17916666666667425
                },
                {
                    "name": "D3",
                    "midi": 50,
                    "time": 469.5562500000112,
                    "velocity": 0.6692913385826772,
                    "duration": 0.07500000000004547
                },
                {
                    "name": "G3",
                    "midi": 55,
                    "time": 469.5854166666778,
                    "velocity": 0.6771653543307087,
                    "duration": 0.10208333333343944
                },
                {
                    "name": "A#3",
                    "midi": 58,
                    "time": 469.60000000001116,
                    "velocity": 0.7401574803149606,
                    "duration": 0.09375000000011369
                },
                {
                    "name": "B3",
                    "midi": 59,
                    "time": 469.6145833333445,
                    "velocity": 0.8346456692913385,
                    "duration": 0.09375000000011369
                },
                {
                    "name": "G1",
                    "midi": 31,
                    "time": 469.6270833333445,
                    "velocity": 0.7952755905511811,
                    "duration": 0.24375000000009095
                },
                {
                    "name": "G2",
                    "midi": 43,
                    "time": 469.62916666667786,
                    "velocity": 1,
                    "duration": 0.21250000000009095
                },
                {
                    "name": "D4",
                    "midi": 62,
                    "time": 469.6333333333446,
                    "velocity": 0.889763779527559,
                    "duration": 0.08958333333339397
                },
                {
                    "name": "E3",
                    "midi": 52,
                    "time": 470.04166666667794,
                    "velocity": 0.9606299212598425,
                    "duration": 0.09583333333335986
                },
                {
                    "name": "G3",
                    "midi": 55,
                    "time": 470.27708333334465,
                    "velocity": 0.9606299212598425,
                    "duration": 0.27916666666664014
                },
                {
                    "name": "G3",
                    "midi": 55,
                    "time": 470.6375000000113,
                    "velocity": 0.9763779527559056,
                    "duration": 0.3291666666666515
                },
                {
                    "name": "D3",
                    "midi": 50,
                    "time": 471.13541666667794,
                    "velocity": 0.9291338582677166,
                    "duration": 0.314583333333303
                },
                {
                    "name": "E3",
                    "midi": 52,
                    "time": 471.3916666666779,
                    "velocity": 0.889763779527559,
                    "duration": 0.345833333333303
                },
                {
                    "name": "D3",
                    "midi": 50,
                    "time": 471.6750000000112,
                    "velocity": 0.8818897637795275,
                    "duration": 0.16250000000002274
                },
                {
                    "name": "D3",
                    "midi": 50,
                    "time": 471.88750000001124,
                    "velocity": 0.7874015748031497,
                    "duration": 0.07916666666665151
                },
                {
                    "name": "E3",
                    "midi": 52,
                    "time": 471.91875000001124,
                    "velocity": 0.7874015748031497,
                    "duration": 0.14375000000001137
                },
                {
                    "name": "F3",
                    "midi": 53,
                    "time": 471.9854166666779,
                    "velocity": 0.8346456692913385,
                    "duration": 0.7291666666667425
                },
                {
                    "name": "E3",
                    "midi": 52,
                    "time": 472.90208333334465,
                    "velocity": 0.7637795275590551,
                    "duration": 0.07083333333332575
                },
                {
                    "name": "F3",
                    "midi": 53,
                    "time": 472.9562500000113,
                    "velocity": 0.6771653543307087,
                    "duration": 0.10416666666668561
                },
                {
                    "name": "E3",
                    "midi": 52,
                    "time": 473.0208333333446,
                    "velocity": 0.84251968503937,
                    "duration": 0.5625000000000568
                },
                {
                    "name": "D3",
                    "midi": 50,
                    "time": 473.5333333333447,
                    "velocity": 0.8582677165354331,
                    "duration": 1.0020833333333599
                },
                {
                    "name": "A2",
                    "midi": 45,
                    "time": 474.8083333333447,
                    "velocity": 0.889763779527559,
                    "duration": 0.6312500000000227
                },
                {
                    "name": "B2",
                    "midi": 47,
                    "time": 475.3916666666781,
                    "velocity": 0.8110236220472441,
                    "duration": 0.5708333333333258
                },
                {
                    "name": "A2",
                    "midi": 45,
                    "time": 475.8562500000114,
                    "velocity": 0.7716535433070866,
                    "duration": 0.53125
                },
                {
                    "name": "C3",
                    "midi": 48,
                    "time": 476.31458333334473,
                    "velocity": 0.6929133858267716,
                    "duration": 1.9520833333332916
                },
                {
                    "name": "D#3",
                    "midi": 51,
                    "time": 478.53125000001137,
                    "velocity": 0.889763779527559,
                    "duration": 0.5125000000000455
                },
                {
                    "name": "C#3",
                    "midi": 49,
                    "time": 480.0791666666781,
                    "velocity": 0.5669291338582677,
                    "duration": 0.07291666666668561
                },
                {
                    "name": "A#2",
                    "midi": 46,
                    "time": 480.13333333334475,
                    "velocity": 0.6850393700787402,
                    "duration": 0.06666666666666288
                },
                {
                    "name": "G2",
                    "midi": 43,
                    "time": 480.21458333334476,
                    "velocity": 0.5669291338582677,
                    "duration": 0.08749999999997726
                },
                {
                    "name": "D#2",
                    "midi": 39,
                    "time": 480.3041666666781,
                    "velocity": 0.84251968503937,
                    "duration": 0.06875000000002274
                },
                {
                    "name": "D1",
                    "midi": 26,
                    "time": 480.41250000001145,
                    "velocity": 0.7559055118110236,
                    "duration": 1.5916666666666401
                },
                {
                    "name": "B3",
                    "midi": 59,
                    "time": 483.4604166666781,
                    "velocity": 0.23622047244094488,
                    "duration": 0.22708333333332575
                },
                {
                    "name": "D4",
                    "midi": 62,
                    "time": 483.4979166666781,
                    "velocity": 0.25984251968503935,
                    "duration": 0.1624999999999659
                },
                {
                    "name": "C#3",
                    "midi": 49,
                    "time": 483.52708333334476,
                    "velocity": 0.36220472440944884,
                    "duration": 0.0999999999999659
                },
                {
                    "name": "G4",
                    "midi": 67,
                    "time": 483.55208333334474,
                    "velocity": 0.2047244094488189,
                    "duration": 0.13125000000002274
                },
                {
                    "name": "D3",
                    "midi": 50,
                    "time": 483.60208333334475,
                    "velocity": 0.41732283464566927,
                    "duration": 0.4104166666667197
                },
                {
                    "name": "E3",
                    "midi": 52,
                    "time": 483.9895833333448,
                    "velocity": 0.3937007874015748,
                    "duration": 0.2645833333333485
                },
                {
                    "name": "B3",
                    "midi": 59,
                    "time": 484.22291666667815,
                    "velocity": 0.2125984251968504,
                    "duration": 0.1645833333332689
                },
                {
                    "name": "D4",
                    "midi": 62,
                    "time": 484.23541666667813,
                    "velocity": 0.1968503937007874,
                    "duration": 0.13541666666662877
                },
                {
                    "name": "G4",
                    "midi": 67,
                    "time": 484.2395833333448,
                    "velocity": 0.13385826771653545,
                    "duration": 0.15208333333328028
                },
                {
                    "name": "G3",
                    "midi": 55,
                    "time": 484.2583333333448,
                    "velocity": 0.2440944881889764,
                    "duration": 0.2770833333332803
                },
                {
                    "name": "G3",
                    "midi": 55,
                    "time": 484.62291666667807,
                    "velocity": 0.3858267716535433,
                    "duration": 0.6437500000000114
                },
                {
                    "name": "G4",
                    "midi": 67,
                    "time": 484.8395833333447,
                    "velocity": 0.3228346456692913,
                    "duration": 0.1020833333333826
                },
                {
                    "name": "B3",
                    "midi": 59,
                    "time": 484.84583333334473,
                    "velocity": 0.3228346456692913,
                    "duration": 0.11250000000001137
                },
                {
                    "name": "D4",
                    "midi": 62,
                    "time": 484.8500000000114,
                    "velocity": 0.3228346456692913,
                    "duration": 0.08125000000001137
                },
                {
                    "name": "D3",
                    "midi": 50,
                    "time": 485.19583333334475,
                    "velocity": 0.5354330708661418,
                    "duration": 0.2937499999999318
                },
                {
                    "name": "B3",
                    "midi": 59,
                    "time": 485.3895833333447,
                    "velocity": 0.30708661417322836,
                    "duration": 0.16041666666660603
                },
                {
                    "name": "G4",
                    "midi": 67,
                    "time": 485.39791666667804,
                    "velocity": 0.3464566929133858,
                    "duration": 0.2770833333332803
                },
                {
                    "name": "D4",
                    "midi": 62,
                    "time": 485.39791666667804,
                    "velocity": 0.3937007874015748,
                    "duration": 0.15208333333328028
                },
                {
                    "name": "E3",
                    "midi": 52,
                    "time": 485.422916666678,
                    "velocity": 0.5905511811023622,
                    "duration": 0.38541666666662877
                },
                {
                    "name": "D3",
                    "midi": 50,
                    "time": 485.710416666678,
                    "velocity": 0.6771653543307087,
                    "duration": 0.24583333333339397
                },
                {
                    "name": "A#3",
                    "midi": 58,
                    "time": 485.85208333334464,
                    "velocity": 0.2755905511811024,
                    "duration": 0.03750000000002274
                },
                {
                    "name": "B3",
                    "midi": 59,
                    "time": 485.85833333334466,
                    "velocity": 0.047244094488188976,
                    "duration": 0.2562499999999659
                },
                {
                    "name": "D4",
                    "midi": 62,
                    "time": 485.891666666678,
                    "velocity": 0.3779527559055118,
                    "duration": 0.1937499999999659
                },
                {
                    "name": "E3",
                    "midi": 52,
                    "time": 485.922916666678,
                    "velocity": 0.5196850393700787,
                    "duration": 0.1416666666666515
                },
                {
                    "name": "F4",
                    "midi": 65,
                    "time": 485.9520833333447,
                    "velocity": 0.08661417322834646,
                    "duration": 0.12083333333328028
                },
                {
                    "name": "G#4",
                    "midi": 68,
                    "time": 485.96041666667804,
                    "velocity": 0.3858267716535433,
                    "duration": 0.12499999999994316
                },
                {
                    "name": "F3",
                    "midi": 53,
                    "time": 486.00416666667803,
                    "velocity": 0.6535433070866141,
                    "duration": 0.8604166666666515
                },
                {
                    "name": "B3",
                    "midi": 59,
                    "time": 486.50833333334464,
                    "velocity": 0.2677165354330709,
                    "duration": 0.11458333333337123
                },
                {
                    "name": "G#4",
                    "midi": 68,
                    "time": 486.5125000000113,
                    "velocity": 0.4015748031496063,
                    "duration": 0.09166666666669698
                },
                {
                    "name": "D4",
                    "midi": 62,
                    "time": 486.52708333334465,
                    "velocity": 0.31496062992125984,
                    "duration": 0.08333333333337123
                },
                {
                    "name": "F4",
                    "midi": 65,
                    "time": 486.5437500000113,
                    "velocity": 0.1889763779527559,
                    "duration": 0.0708333333333826
                },
                {
                    "name": "E3",
                    "midi": 52,
                    "time": 486.90625000001137,
                    "velocity": 0.5039370078740157,
                    "duration": 0.056250000000034106
                },
                {
                    "name": "F3",
                    "midi": 53,
                    "time": 486.96041666667804,
                    "velocity": 0.5590551181102362,
                    "duration": 0.08333333333337123
                },
                {
                    "name": "E3",
                    "midi": 52,
                    "time": 487.04166666667805,
                    "velocity": 0.47244094488188976,
                    "duration": 0.40208333333339397
                },
                {
                    "name": "B3",
                    "midi": 59,
                    "time": 487.0479166666781,
                    "velocity": 0.25984251968503935,
                    "duration": 0.1958333333333826
                },
                {
                    "name": "G#4",
                    "midi": 68,
                    "time": 487.0541666666781,
                    "velocity": 0.33858267716535434,
                    "duration": 0.12708333333335986
                },
                {
                    "name": "D4",
                    "midi": 62,
                    "time": 487.0645833333448,
                    "velocity": 0.1889763779527559,
                    "duration": 0.14375000000001137
                },
                {
                    "name": "F4",
                    "midi": 65,
                    "time": 487.08125000001144,
                    "velocity": 0.2204724409448819,
                    "duration": 0.1187500000000341
                },
                {
                    "name": "D3",
                    "midi": 50,
                    "time": 487.41250000001145,
                    "velocity": 0.49606299212598426,
                    "duration": 0.714583333333394
                },
                {
                    "name": "G#4",
                    "midi": 68,
                    "time": 487.5604166666781,
                    "velocity": 0.4566929133858268,
                    "duration": 0.09791666666666288
                },
                {
                    "name": "B3",
                    "midi": 59,
                    "time": 487.58125000001144,
                    "velocity": 0.2204724409448819,
                    "duration": 0.16250000000002274
                },
                {
                    "name": "D4",
                    "midi": 62,
                    "time": 487.58750000001146,
                    "velocity": 0.2992125984251969,
                    "duration": 0.08541666666667425
                },
                {
                    "name": "F4",
                    "midi": 65,
                    "time": 487.6041666666781,
                    "velocity": 0.18110236220472442,
                    "duration": 0.0625
                },
                {
                    "name": "D#4",
                    "midi": 63,
                    "time": 488.1520833333448,
                    "velocity": 0.5196850393700787,
                    "duration": 0.09375000000005684
                },
                {
                    "name": "A2",
                    "midi": 45,
                    "time": 488.1541666666782,
                    "velocity": 0.4094488188976378,
                    "duration": 0.46041666666667425
                },
                {
                    "name": "G4",
                    "midi": 67,
                    "time": 488.1604166666782,
                    "velocity": 0.36220472440944884,
                    "duration": 0.09375
                },
                {
                    "name": "A3",
                    "midi": 57,
                    "time": 488.16458333334486,
                    "velocity": 0.3700787401574803,
                    "duration": 0.12916666666666288
                },
                {
                    "name": "C4",
                    "midi": 60,
                    "time": 488.1916666666782,
                    "velocity": 0.31496062992125984,
                    "duration": 0.054166666666674246
                },
                {
                    "name": "B2",
                    "midi": 47,
                    "time": 488.53958333334486,
                    "velocity": 0.5275590551181102,
                    "duration": 0.45208333333340533
                },
                {
                    "name": "G4",
                    "midi": 67,
                    "time": 488.7145833333449,
                    "velocity": 0.3228346456692913,
                    "duration": 0.0875000000000341
                },
                {
                    "name": "D#4",
                    "midi": 63,
                    "time": 488.71875000001154,
                    "velocity": 0.41732283464566927,
                    "duration": 0.07916666666670835
                },
                {
                    "name": "C4",
                    "midi": 60,
                    "time": 488.7333333333449,
                    "velocity": 0.29133858267716534,
                    "duration": 0.08333333333337123
                },
                {
                    "name": "A3",
                    "midi": 57,
                    "time": 488.7437500000116,
                    "velocity": 0.14960629921259844,
                    "duration": 0.09375
                },
                {
                    "name": "A2",
                    "midi": 45,
                    "time": 488.9270833333449,
                    "velocity": 0.5118110236220472,
                    "duration": 0.40833333333335986
                },
                {
                    "name": "D4",
                    "midi": 62,
                    "time": 489.28333333334496,
                    "velocity": 0.3543307086614173,
                    "duration": 0.08124999999995453
                },
                {
                    "name": "C3",
                    "midi": 48,
                    "time": 489.29583333334494,
                    "velocity": 0.29133858267716534,
                    "duration": 0.6687499999999886
                },
                {
                    "name": "F#4",
                    "midi": 66,
                    "time": 489.3000000000116,
                    "velocity": 0.23622047244094488,
                    "duration": 0.06041666666664014
                },
                {
                    "name": "F#4",
                    "midi": 66,
                    "time": 489.8833333333449,
                    "velocity": 0.2755905511811024,
                    "duration": 0.10625000000004547
                },
                {
                    "name": "D4",
                    "midi": 62,
                    "time": 489.8875000000116,
                    "velocity": 0.2677165354330709,
                    "duration": 0.08333333333337123
                },
                {
                    "name": "A3",
                    "midi": 57,
                    "time": 489.9270833333449,
                    "velocity": 0.07086614173228346,
                    "duration": 0.07916666666670835
                },
                {
                    "name": "A3",
                    "midi": 57,
                    "time": 490.4750000000116,
                    "velocity": 0.07874015748031496,
                    "duration": 0.4625000000000341
                },
                {
                    "name": "D#4",
                    "midi": 63,
                    "time": 490.53541666667826,
                    "velocity": 0.16535433070866143,
                    "duration": 0.38958333333340533
                },
                {
                    "name": "C4",
                    "midi": 60,
                    "time": 490.5625000000116,
                    "velocity": 0.047244094488188976,
                    "duration": 0.3812500000000796
                },
                {
                    "name": "D#6",
                    "midi": 87,
                    "time": 490.60833333334494,
                    "velocity": 0.7086614173228346,
                    "duration": 0.7145833333334508
                },
                {
                    "name": "G4",
                    "midi": 67,
                    "time": 490.6541666666783,
                    "velocity": 0.03937007874015748,
                    "duration": 0.29583333333340533
                },
                {
                    "name": "D#4",
                    "midi": 63,
                    "time": 491.19791666667834,
                    "velocity": 0.4251968503937008,
                    "duration": 0.09375
                },
                {
                    "name": "C4",
                    "midi": 60,
                    "time": 491.208333333345,
                    "velocity": 0.36220472440944884,
                    "duration": 0.11250000000001137
                },
                {
                    "name": "A3",
                    "midi": 57,
                    "time": 491.2125000000117,
                    "velocity": 0.14173228346456693,
                    "duration": 0.08541666666667425
                },
                {
                    "name": "G4",
                    "midi": 67,
                    "time": 491.21666666667835,
                    "velocity": 0.1889763779527559,
                    "duration": 0.09166666666669698
                },
                {
                    "name": "C#6",
                    "midi": 85,
                    "time": 491.3791666666784,
                    "velocity": 0.5275590551181102,
                    "duration": 0.08333333333337123
                },
                {
                    "name": "A#5",
                    "midi": 82,
                    "time": 491.45208333334506,
                    "velocity": 0.5669291338582677,
                    "duration": 0.056250000000034106
                },
                {
                    "name": "G5",
                    "midi": 79,
                    "time": 491.53125000001177,
                    "velocity": 0.5511811023622047,
                    "duration": 0.09166666666669698
                },
                {
                    "name": "D#5",
                    "midi": 75,
                    "time": 491.6375000000118,
                    "velocity": 0.6535433070866141,
                    "duration": 0.07708333333334849
                },
                {
                    "name": "A3",
                    "midi": 57,
                    "time": 491.6395833333452,
                    "velocity": 0.2204724409448819,
                    "duration": 0.13333333333332575
                },
                {
                    "name": "D4",
                    "midi": 62,
                    "time": 491.68125000001186,
                    "velocity": 0.3937007874015748,
                    "duration": 0.08124999999995453
                },
                {
                    "name": "F#4",
                    "midi": 66,
                    "time": 491.6895833333452,
                    "velocity": 0.48031496062992124,
                    "duration": 0.07499999999998863
                },
                {
                    "name": "D5",
                    "midi": 74,
                    "time": 491.7229166666785,
                    "velocity": 0.5433070866141733,
                    "duration": 0.6666666666666856
                },
                {
                    "name": "F#4",
                    "midi": 66,
                    "time": 492.2500000000118,
                    "velocity": 0.3543307086614173,
                    "duration": 0.10000000000002274
                },
                {
                    "name": "A3",
                    "midi": 57,
                    "time": 492.2500000000118,
                    "velocity": 0.1889763779527559,
                    "duration": 0.1875
                },
                {
                    "name": "D4",
                    "midi": 62,
                    "time": 492.2645833333452,
                    "velocity": 0.4251968503937008,
                    "duration": 0.12083333333333712
                },
                {
                    "name": "B3",
                    "midi": 59,
                    "time": 492.7354166666785,
                    "velocity": 0.3228346456692913,
                    "duration": 0.19583333333343944
                },
                {
                    "name": "D4",
                    "midi": 62,
                    "time": 492.74791666667846,
                    "velocity": 0.3779527559055118,
                    "duration": 0.1666666666667993
                },
                {
                    "name": "C#3",
                    "midi": 49,
                    "time": 492.77083333334514,
                    "velocity": 0.5669291338582677,
                    "duration": 0.1104166666667652
                },
                {
                    "name": "G4",
                    "midi": 67,
                    "time": 492.80833333334516,
                    "velocity": 0.18110236220472442,
                    "duration": 0.14583333333342807
                },
                {
                    "name": "D3",
                    "midi": 50,
                    "time": 492.8708333333452,
                    "velocity": 0.6456692913385826,
                    "duration": 0.31458333333335986
                },
                {
                    "name": "E3",
                    "midi": 52,
                    "time": 493.17083333334523,
                    "velocity": 0.5669291338582677,
                    "duration": 0.2874999999999659
                },
                {
                    "name": "B3",
                    "midi": 59,
                    "time": 493.3708333333452,
                    "velocity": 0.2755905511811024,
                    "duration": 0.18124999999997726
                },
                {
                    "name": "D4",
                    "midi": 62,
                    "time": 493.3750000000119,
                    "velocity": 0.25984251968503935,
                    "duration": 0.1729166666666515
                },
                {
                    "name": "G4",
                    "midi": 67,
                    "time": 493.38750000001187,
                    "velocity": 0.2283464566929134,
                    "duration": 0.18124999999997726
                },
                {
                    "name": "G3",
                    "midi": 55,
                    "time": 493.4083333333452,
                    "velocity": 0.3464566929133858,
                    "duration": 0.25833333333332575
                },
                {
                    "name": "G3",
                    "midi": 55,
                    "time": 493.7541666666785,
                    "velocity": 0.5275590551181102,
                    "duration": 0.5645833333333599
                },
                {
                    "name": "G4",
                    "midi": 67,
                    "time": 493.9625000000118,
                    "velocity": 0.3779527559055118,
                    "duration": 0.12916666666671972
                },
                {
                    "name": "D4",
                    "midi": 62,
                    "time": 493.9750000000118,
                    "velocity": 0.3779527559055118,
                    "duration": 0.11041666666670835
                },
                {
                    "name": "B3",
                    "midi": 59,
                    "time": 493.97708333334515,
                    "velocity": 0.3228346456692913,
                    "duration": 0.1395833333333485
                },
                {
                    "name": "D3",
                    "midi": 50,
                    "time": 494.26875000001183,
                    "velocity": 0.7637795275590551,
                    "duration": 0.28125
                },
                {
                    "name": "D4",
                    "midi": 62,
                    "time": 494.47500000001185,
                    "velocity": 0.36220472440944884,
                    "duration": 0.13333333333332575
                },
                {
                    "name": "G4",
                    "midi": 67,
                    "time": 494.48125000001187,
                    "velocity": 0.4330708661417323,
                    "duration": 0.20416666666659467
                },
                {
                    "name": "E3",
                    "midi": 52,
                    "time": 494.49375000001186,
                    "velocity": 0.6614173228346457,
                    "duration": 0.3416666666665833
                },
                {
                    "name": "B3",
                    "midi": 59,
                    "time": 494.49375000001186,
                    "velocity": 0.29133858267716534,
                    "duration": 0.1479166666666174
                },
                {
                    "name": "D3",
                    "midi": 50,
                    "time": 494.74166666667844,
                    "velocity": 0.7952755905511811,
                    "duration": 0.23124999999998863
                },
                {
                    "name": "B3",
                    "midi": 59,
                    "time": 494.8145833333451,
                    "velocity": 0.4645669291338583,
                    "duration": 0.30000000000001137
                },
                {
                    "name": "D4",
                    "midi": 62,
                    "time": 494.8625000000118,
                    "velocity": 0.3779527559055118,
                    "duration": 0.23541666666670835
                },
                {
                    "name": "F4",
                    "midi": 65,
                    "time": 494.8833333333451,
                    "velocity": 0.4251968503937008,
                    "duration": 0.22291666666671972
                },
                {
                    "name": "E3",
                    "midi": 52,
                    "time": 494.9145833333451,
                    "velocity": 0.5984251968503937,
                    "duration": 0.1791666666667311
                },
                {
                    "name": "G#4",
                    "midi": 68,
                    "time": 494.9583333333451,
                    "velocity": 0.4015748031496063,
                    "duration": 0.13541666666674246
                },
                {
                    "name": "F3",
                    "midi": 53,
                    "time": 495.02083333334514,
                    "velocity": 0.6850393700787402,
                    "duration": 0.7833333333334167
                },
                {
                    "name": "G#4",
                    "midi": 68,
                    "time": 495.5125000000118,
                    "velocity": 0.4015748031496063,
                    "duration": 0.10000000000002274
                },
                {
                    "name": "B3",
                    "midi": 59,
                    "time": 495.52083333334514,
                    "velocity": 0.36220472440944884,
                    "duration": 0.15208333333339397
                },
                {
                    "name": "D4",
                    "midi": 62,
                    "time": 495.5250000000118,
                    "velocity": 0.36220472440944884,
                    "duration": 0.11458333333337123
                },
                {
                    "name": "F4",
                    "midi": 65,
                    "time": 495.55833333334516,
                    "velocity": 0.1968503937007874,
                    "duration": 0.06666666666666288
                },
                {
                    "name": "E3",
                    "midi": 52,
                    "time": 495.85833333334523,
                    "velocity": 0.6929133858267716,
                    "duration": 0.08749999999997726
                },
                {
                    "name": "F3",
                    "midi": 53,
                    "time": 495.92916666667855,
                    "velocity": 0.5669291338582677,
                    "duration": 0.12916666666666288
                },
                {
                    "name": "E3",
                    "midi": 52,
                    "time": 496.0020833333452,
                    "velocity": 0.4094488188976378,
                    "duration": 0.40833333333335986
                },
                {
                    "name": "D4",
                    "midi": 62,
                    "time": 496.0416666666785,
                    "velocity": 0.14173228346456693,
                    "duration": 0.17916666666667425
                },
                {
                    "name": "G#4",
                    "midi": 68,
                    "time": 496.04375000001187,
                    "velocity": 0.29133858267716534,
                    "duration": 0.11666666666667425
                },
                {
                    "name": "B3",
                    "midi": 59,
                    "time": 496.0583333333452,
                    "velocity": 0.25196850393700787,
                    "duration": 0.20624999999995453
                },
                {
                    "name": "F4",
                    "midi": 65,
                    "time": 496.0708333333452,
                    "velocity": 0.2047244094488189,
                    "duration": 0.14583333333331439
                },
                {
                    "name": "D3",
                    "midi": 50,
                    "time": 496.3645833333452,
                    "velocity": 0.6299212598425197,
                    "duration": 0.5958333333334735
                },
                {
                    "name": "G#4",
                    "midi": 68,
                    "time": 496.5500000000119,
                    "velocity": 0.41732283464566927,
                    "duration": 0.10000000000007958
                },
                {
                    "name": "B3",
                    "midi": 59,
                    "time": 496.55208333334525,
                    "velocity": 0.3543307086614173,
                    "duration": 0.12083333333339397
                },
                {
                    "name": "D4",
                    "midi": 62,
                    "time": 496.5666666666786,
                    "velocity": 0.31496062992125984,
                    "duration": 0.11041666666670835
                },
                {
                    "name": "F4",
                    "midi": 65,
                    "time": 496.56875000001196,
                    "velocity": 0.36220472440944884,
                    "duration": 0.09583333333335986
                },
                {
                    "name": "C3",
                    "midi": 48,
                    "time": 496.98333333334534,
                    "velocity": 0.6062992125984252,
                    "duration": 0.07916666666670835
                },
                {
                    "name": "D3",
                    "midi": 50,
                    "time": 497.0416666666787,
                    "velocity": 0.5118110236220472,
                    "duration": 0.06041666666669698
                },
                {
                    "name": "C3",
                    "midi": 48,
                    "time": 497.118750000012,
                    "velocity": 0.4015748031496063,
                    "duration": 0.40625000000017053
                },
                {
                    "name": "D#4",
                    "midi": 63,
                    "time": 497.1229166666787,
                    "velocity": 0.36220472440944884,
                    "duration": 0.17708333333342807
                },
                {
                    "name": "A3",
                    "midi": 57,
                    "time": 497.14375000001206,
                    "velocity": 0.2125984251968504,
                    "duration": 0.21250000000009095
                },
                {
                    "name": "G4",
                    "midi": 67,
                    "time": 497.1583333333454,
                    "velocity": 0.25984251968503935,
                    "duration": 0.16875000000004547
                },
                {
                    "name": "C4",
                    "midi": 60,
                    "time": 497.16458333334543,
                    "velocity": 0.33858267716535434,
                    "duration": 0.18541666666669698
                },
                {
                    "name": "B2",
                    "midi": 47,
                    "time": 497.4833333333455,
                    "velocity": 0.49606299212598426,
                    "duration": 0.4354166666667538
                },
                {
                    "name": "D#4",
                    "midi": 63,
                    "time": 497.6291666666789,
                    "velocity": 0.44881889763779526,
                    "duration": 0.09583333333335986
                },
                {
                    "name": "G4",
                    "midi": 67,
                    "time": 497.6375000000122,
                    "velocity": 0.4330708661417323,
                    "duration": 0.09375000000005684
                },
                {
                    "name": "A3",
                    "midi": 57,
                    "time": 497.6479166666789,
                    "velocity": 0.25196850393700787,
                    "duration": 0.09791666666671972
                },
                {
                    "name": "C4",
                    "midi": 60,
                    "time": 497.66250000001224,
                    "velocity": 0.3858267716535433,
                    "duration": 0.07708333333334849
                },
                {
                    "name": "C3",
                    "midi": 48,
                    "time": 497.9208333333456,
                    "velocity": 0.5275590551181102,
                    "duration": 0.35000000000002274
                },
                {
                    "name": "F#4",
                    "midi": 66,
                    "time": 498.23125000001227,
                    "velocity": 0.5275590551181102,
                    "duration": 0.08541666666673109
                },
                {
                    "name": "A2",
                    "midi": 45,
                    "time": 498.2479166666789,
                    "velocity": 0.4330708661417323,
                    "duration": 1.6208333333334508
                },
                {
                    "name": "D4",
                    "midi": 62,
                    "time": 498.25416666667894,
                    "velocity": 0.3779527559055118,
                    "duration": 0.06875000000007958
                },
                {
                    "name": "A3",
                    "midi": 57,
                    "time": 498.2645833333456,
                    "velocity": 0.2283464566929134,
                    "duration": 0.07291666666674246
                },
                {
                    "name": "C4",
                    "midi": 60,
                    "time": 498.2687500000123,
                    "velocity": 0.33070866141732286,
                    "duration": 0.06041666666675383
                },
                {
                    "name": "F#4",
                    "midi": 66,
                    "time": 498.8125000000124,
                    "velocity": 0.2755905511811024,
                    "duration": 0.05000000000001137
                },
                {
                    "name": "A3",
                    "midi": 57,
                    "time": 498.8187500000124,
                    "velocity": 0.1732283464566929,
                    "duration": 0.09791666666666288
                },
                {
                    "name": "C4",
                    "midi": 60,
                    "time": 498.8229166666791,
                    "velocity": 0.36220472440944884,
                    "duration": 0.05833333333333712
                },
                {
                    "name": "C4",
                    "midi": 60,
                    "time": 499.44166666667905,
                    "velocity": 0.2283464566929134,
                    "duration": 0.19375000000002274
                },
                {
                    "name": "F#4",
                    "midi": 66,
                    "time": 499.45416666667904,
                    "velocity": 0.2440944881889764,
                    "duration": 0.16875000000004547
                },
                {
                    "name": "D4",
                    "midi": 62,
                    "time": 499.46041666667907,
                    "velocity": 0.18110236220472442,
                    "duration": 0.1708333333333485
                },
                {
                    "name": "B2",
                    "midi": 47,
                    "time": 499.8250000000124,
                    "velocity": 0.33858267716535434,
                    "duration": 0.2583333333333826
                },
                {
                    "name": "C3",
                    "midi": 48,
                    "time": 500.0812500000124,
                    "velocity": 0.3779527559055118,
                    "duration": 0.2916666666666856
                },
                {
                    "name": "D3",
                    "midi": 50,
                    "time": 500.37500000001245,
                    "velocity": 0.4330708661417323,
                    "duration": 0.26041666666662877
                },
                {
                    "name": "E3",
                    "midi": 52,
                    "time": 500.60625000001244,
                    "velocity": 0.5905511811023622,
                    "duration": 0.34166666666664014
                },
                {
                    "name": "F#3",
                    "midi": 54,
                    "time": 500.88750000001244,
                    "velocity": 0.7480314960629921,
                    "duration": 0.27291666666667425
                },
                {
                    "name": "G3",
                    "midi": 55,
                    "time": 501.1187500000124,
                    "velocity": 0.6062992125984252,
                    "duration": 0.33333333333337123
                },
                {
                    "name": "A3",
                    "midi": 57,
                    "time": 501.41875000001244,
                    "velocity": 0.7322834645669292,
                    "duration": 0.2916666666666856
                },
                {
                    "name": "C4",
                    "midi": 60,
                    "time": 501.7645833333458,
                    "velocity": 0.41732283464566927,
                    "duration": 0.4479166666666856
                },
                {
                    "name": "E4",
                    "midi": 64,
                    "time": 501.77916666667915,
                    "velocity": 0.4330708661417323,
                    "duration": 0.43958333333335986
                },
                {
                    "name": "A#3",
                    "midi": 58,
                    "time": 501.78958333334583,
                    "velocity": 0.8346456692913385,
                    "duration": 0.8791666666667766
                },
                {
                    "name": "G4",
                    "midi": 67,
                    "time": 501.8020833333458,
                    "velocity": 0.33070866141732286,
                    "duration": 0.4166666666666856
                },
                {
                    "name": "G4",
                    "midi": 67,
                    "time": 502.34583333334587,
                    "velocity": 0.49606299212598426,
                    "duration": 0.0875000000000341
                },
                {
                    "name": "E4",
                    "midi": 64,
                    "time": 502.3541666666792,
                    "velocity": 0.4409448818897638,
                    "duration": 0.07500000000004547
                },
                {
                    "name": "C4",
                    "midi": 60,
                    "time": 502.38750000001255,
                    "velocity": 0.2125984251968504,
                    "duration": 0.06041666666669698
                },
                {
                    "name": "F#3",
                    "midi": 54,
                    "time": 502.6895833333459,
                    "velocity": 0.7401574803149606,
                    "duration": 0.07708333333334849
                },
                {
                    "name": "G3",
                    "midi": 55,
                    "time": 502.7062500000126,
                    "velocity": 0.6614173228346457,
                    "duration": 0.5541666666666742
                },
                {
                    "name": "G4",
                    "midi": 67,
                    "time": 502.89166666667927,
                    "velocity": 0.44881889763779526,
                    "duration": 0.11666666666667425
                },
                {
                    "name": "E4",
                    "midi": 64,
                    "time": 502.9000000000126,
                    "velocity": 0.3543307086614173,
                    "duration": 0.22708333333332575
                },
                {
                    "name": "C4",
                    "midi": 60,
                    "time": 502.94583333334594,
                    "velocity": 0.07874015748031496,
                    "duration": 0.2416666666666174
                },
                {
                    "name": "A#3",
                    "midi": 58,
                    "time": 503.1833333333459,
                    "velocity": 0.8582677165354331,
                    "duration": 0.5583333333334508
                },
                {
                    "name": "G4",
                    "midi": 67,
                    "time": 503.36041666667927,
                    "velocity": 0.5275590551181102,
                    "duration": 0.0875000000000341
                },
                {
                    "name": "E4",
                    "midi": 64,
                    "time": 503.36250000001263,
                    "velocity": 0.5590551181102362,
                    "duration": 0.10000000000002274
                },
                {
                    "name": "C4",
                    "midi": 60,
                    "time": 503.3729166666793,
                    "velocity": 0.5196850393700787,
                    "duration": 0.09791666666666288
                },
                {
                    "name": "G3",
                    "midi": 55,
                    "time": 503.677083333346,
                    "velocity": 0.7559055118110236,
                    "duration": 0.25208333333335986
                },
                {
                    "name": "D#4",
                    "midi": 63,
                    "time": 503.83541666667935,
                    "velocity": 0.5196850393700787,
                    "duration": 0.11874999999997726
                },
                {
                    "name": "A#3",
                    "midi": 58,
                    "time": 503.84791666667934,
                    "velocity": 0.7952755905511811,
                    "duration": 0.8541666666667993
                },
                {
                    "name": "C4",
                    "midi": 60,
                    "time": 503.8500000000127,
                    "velocity": 0.25984251968503935,
                    "duration": 0.13749999999998863
                },
                {
                    "name": "G4",
                    "midi": 67,
                    "time": 503.8625000000127,
                    "velocity": 0.2992125984251969,
                    "duration": 0.10208333333332575
                },
                {
                    "name": "D#4",
                    "midi": 63,
                    "time": 504.327083333346,
                    "velocity": 0.5275590551181102,
                    "duration": 0.07916666666670835
                },
                {
                    "name": "C4",
                    "midi": 60,
                    "time": 504.3375000000127,
                    "velocity": 0.4015748031496063,
                    "duration": 0.08333333333337123
                },
                {
                    "name": "G4",
                    "midi": 67,
                    "time": 504.3375000000127,
                    "velocity": 0.41732283464566927,
                    "duration": 0.06458333333335986
                },
                {
                    "name": "F#3",
                    "midi": 54,
                    "time": 504.5833333333461,
                    "velocity": 0.6141732283464567,
                    "duration": 0.11250000000001137
                },
                {
                    "name": "G3",
                    "midi": 55,
                    "time": 504.61666666667946,
                    "velocity": 0.6771653543307087,
                    "duration": 0.5687500000000227
                },
                {
                    "name": "D#4",
                    "midi": 63,
                    "time": 504.7875000000128,
                    "velocity": 0.5118110236220472,
                    "duration": 0.10000000000002274
                },
                {
                    "name": "G4",
                    "midi": 67,
                    "time": 504.7916666666795,
                    "velocity": 0.4330708661417323,
                    "duration": 0.09166666666669698
                },
                {
                    "name": "C4",
                    "midi": 60,
                    "time": 504.8187500000128,
                    "velocity": 0.2992125984251969,
                    "duration": 0.08541666666667425
                },
                {
                    "name": "A#3",
                    "midi": 58,
                    "time": 505.1125000000128,
                    "velocity": 0.84251968503937,
                    "duration": 0.4958333333333371
                },
                {
                    "name": "D#4",
                    "midi": 63,
                    "time": 505.25000000001285,
                    "velocity": 0.5196850393700787,
                    "duration": 0.08333333333331439
                },
                {
                    "name": "G4",
                    "midi": 67,
                    "time": 505.25000000001285,
                    "velocity": 0.4645669291338583,
                    "duration": 0.07083333333332575
                },
                {
                    "name": "G3",
                    "midi": 55,
                    "time": 505.55208333334616,
                    "velocity": 0.7716535433070866,
                    "duration": 0.22500000000002274
                },
                {
                    "name": "F3",
                    "midi": 53,
                    "time": 505.72083333334615,
                    "velocity": 0.7637795275590551,
                    "duration": 0.1187500000000341
                },
                {
                    "name": "G4",
                    "midi": 67,
                    "time": 505.7541666666795,
                    "velocity": 0.3858267716535433,
                    "duration": 0.09583333333335986
                },
                {
                    "name": "B3",
                    "midi": 59,
                    "time": 505.7729166666795,
                    "velocity": 0.16535433070866143,
                    "duration": 0.09166666666669698
                },
                {
                    "name": "D4",
                    "midi": 62,
                    "time": 505.78125000001285,
                    "velocity": 0.2204724409448819,
                    "duration": 0.06875000000002274
                },
                {
                    "name": "F3",
                    "midi": 53,
                    "time": 506.22708333334623,
                    "velocity": 0.6771653543307087,
                    "duration": 0.26458333333340533
                },
                {
                    "name": "D4",
                    "midi": 62,
                    "time": 506.24583333334624,
                    "velocity": 0.49606299212598426,
                    "duration": 0.12083333333339397
                },
                {
                    "name": "B3",
                    "midi": 59,
                    "time": 506.2479166666796,
                    "velocity": 0.30708661417322836,
                    "duration": 0.1333333333333826
                },
                {
                    "name": "G4",
                    "midi": 67,
                    "time": 506.25208333334626,
                    "velocity": 0.3937007874015748,
                    "duration": 0.11250000000001137
                },
                {
                    "name": "B3",
                    "midi": 59,
                    "time": 506.71041666667963,
                    "velocity": 0.3228346456692913,
                    "duration": 0.1479166666667311
                },
                {
                    "name": "F3",
                    "midi": 53,
                    "time": 506.712500000013,
                    "velocity": 0.7322834645669292,
                    "duration": 0.37500000000005684
                },
                {
                    "name": "D4",
                    "midi": 62,
                    "time": 506.7208333333463,
                    "velocity": 0.4251968503937008,
                    "duration": 0.11458333333337123
                },
                {
                    "name": "G4",
                    "midi": 67,
                    "time": 506.731250000013,
                    "velocity": 0.3464566929133858,
                    "duration": 0.10208333333332575
                },
                {
                    "name": "D3",
                    "midi": 50,
                    "time": 507.0166666666797,
                    "velocity": 0.7952755905511811,
                    "duration": 0.4187499999999318
                },
                {
                    "name": "B3",
                    "midi": 59,
                    "time": 507.1791666666797,
                    "velocity": 0.4409448818897638,
                    "duration": 0.22083333333330302
                },
                {
                    "name": "D4",
                    "midi": 62,
                    "time": 507.18333333334635,
                    "velocity": 0.5590551181102362,
                    "duration": 0.18124999999997726
                },
                {
                    "name": "G4",
                    "midi": 67,
                    "time": 507.187500000013,
                    "velocity": 0.5275590551181102,
                    "duration": 0.15208333333333712
                },
                {
                    "name": "E3",
                    "midi": 52,
                    "time": 507.44791666667965,
                    "velocity": 0.5590551181102362,
                    "duration": 0.09166666666669698
                },
                {
                    "name": "F3",
                    "midi": 53,
                    "time": 507.4833333333463,
                    "velocity": 0.7007874015748031,
                    "duration": 1.6270833333334735
                },
                {
                    "name": "D4",
                    "midi": 62,
                    "time": 507.69583333334634,
                    "velocity": 0.49606299212598426,
                    "duration": 0.13541666666668561
                },
                {
                    "name": "G4",
                    "midi": 67,
                    "time": 507.700000000013,
                    "velocity": 0.44881889763779526,
                    "duration": 0.14583333333337123
                },
                {
                    "name": "B3",
                    "midi": 59,
                    "time": 507.70416666667967,
                    "velocity": 0.4094488188976378,
                    "duration": 0.15625000000005684
                },
                {
                    "name": "G4",
                    "midi": 67,
                    "time": 508.2291666666797,
                    "velocity": 0.30708661417322836,
                    "duration": 0.08125000000006821
                },
                {
                    "name": "D4",
                    "midi": 62,
                    "time": 508.23125000001306,
                    "velocity": 0.3543307086614173,
                    "duration": 0.07500000000004547
                },
                {
                    "name": "B3",
                    "midi": 59,
                    "time": 508.2375000000131,
                    "velocity": 0.25984251968503935,
                    "duration": 0.08333333333337123
                },
                {
                    "name": "G4",
                    "midi": 67,
                    "time": 508.73750000001314,
                    "velocity": 0.4881889763779528,
                    "duration": 0.08333333333331439
                },
                {
                    "name": "F#3",
                    "midi": 54,
                    "time": 509.0687500000131,
                    "velocity": 0.7165354330708661,
                    "duration": 0.2125000000000341
                },
                {
                    "name": "B3",
                    "midi": 59,
                    "time": 509.26875000001314,
                    "velocity": 0.4566929133858268,
                    "duration": 0.1437500000000682
                },
                {
                    "name": "D4",
                    "midi": 62,
                    "time": 509.2729166666798,
                    "velocity": 0.47244094488188976,
                    "duration": 0.12916666666671972
                },
                {
                    "name": "G3",
                    "midi": 55,
                    "time": 509.2833333333465,
                    "velocity": 0.6850393700787402,
                    "duration": 0.17500000000001137
                },
                {
                    "name": "G4",
                    "midi": 67,
                    "time": 509.2833333333465,
                    "velocity": 0.4330708661417323,
                    "duration": 0.09583333333335986
                },
                {
                    "name": "G#3",
                    "midi": 56,
                    "time": 509.4375000000132,
                    "velocity": 0.8110236220472441,
                    "duration": 0.15833333333330302
                },
                {
                    "name": "A3",
                    "midi": 57,
                    "time": 509.5729166666798,
                    "velocity": 0.7716535433070866,
                    "duration": 0.22291666666677656
                },
                {
                    "name": "A#3",
                    "midi": 58,
                    "time": 509.7375000000132,
                    "velocity": 0.7559055118110236,
                    "duration": 0.8770833333334167
                },
                {
                    "name": "G4",
                    "midi": 67,
                    "time": 509.77291666667986,
                    "velocity": 0.33070866141732286,
                    "duration": 0.11250000000006821
                },
                {
                    "name": "C4",
                    "midi": 60,
                    "time": 509.7750000000132,
                    "velocity": 0.1889763779527559,
                    "duration": 0.14166666666670835
                },
                {
                    "name": "E4",
                    "midi": 64,
                    "time": 509.7770833333466,
                    "velocity": 0.3228346456692913,
                    "duration": 0.11250000000001137
                },
                {
                    "name": "G4",
                    "midi": 67,
                    "time": 510.23541666667995,
                    "velocity": 0.5826771653543307,
                    "duration": 0.06666666666666288
                },
                {
                    "name": "E4",
                    "midi": 64,
                    "time": 510.2395833333466,
                    "velocity": 0.5669291338582677,
                    "duration": 0.05833333333333712
                },
                {
                    "name": "C4",
                    "midi": 60,
                    "time": 510.2437500000133,
                    "velocity": 0.4330708661417323,
                    "duration": 0.054166666666674246
                },
                {
                    "name": "F#3",
                    "midi": 54,
                    "time": 510.5250000000133,
                    "velocity": 0.6929133858267716,
                    "duration": 0.12083333333333712
                },
                {
                    "name": "G3",
                    "midi": 55,
                    "time": 510.54166666667993,
                    "velocity": 0.7322834645669292,
                    "duration": 0.5125000000001023
                },
                {
                    "name": "G4",
                    "midi": 67,
                    "time": 510.6916666666799,
                    "velocity": 0.5354330708661418,
                    "duration": 0.1020833333333826
                },
                {
                    "name": "E4",
                    "midi": 64,
                    "time": 510.69375000001327,
                    "velocity": 0.5590551181102362,
                    "duration": 0.10625000000004547
                },
                {
                    "name": "C4",
                    "midi": 60,
                    "time": 510.7000000000133,
                    "velocity": 0.4330708661417323,
                    "duration": 0.12291666666669698
                },
                {
                    "name": "A#3",
                    "midi": 58,
                    "time": 510.98125000001335,
                    "velocity": 0.8582677165354331,
                    "duration": 0.5687500000000796
                },
                {
                    "name": "G4",
                    "midi": 67,
                    "time": 511.14791666668003,
                    "velocity": 0.6377952755905512,
                    "duration": 0.10625000000004547
                },
                {
                    "name": "C4",
                    "midi": 60,
                    "time": 511.1500000000134,
                    "velocity": 0.5748031496062992,
                    "duration": 0.10000000000002274
                },
                {
                    "name": "E4",
                    "midi": 64,
                    "time": 511.15208333334675,
                    "velocity": 0.6299212598425197,
                    "duration": 0.08958333333333712
                },
                {
                    "name": "G3",
                    "midi": 55,
                    "time": 511.4500000000134,
                    "velocity": 0.84251968503937,
                    "duration": 0.25
                },
                {
                    "name": "D#4",
                    "midi": 63,
                    "time": 511.6291666666801,
                    "velocity": 0.5826771653543307,
                    "duration": 0.11458333333331439
                },
                {
                    "name": "C4",
                    "midi": 60,
                    "time": 511.6354166666801,
                    "velocity": 0.7637795275590551,
                    "duration": 0.8020833333333144
                },
                {
                    "name": "G4",
                    "midi": 67,
                    "time": 511.63958333334676,
                    "velocity": 0.4645669291338583,
                    "duration": 0.11458333333331439
                },
                {
                    "name": "D#4",
                    "midi": 63,
                    "time": 512.0833333333468,
                    "velocity": 0.6141732283464567,
                    "duration": 0.12916666666660603
                },
                {
                    "name": "G4",
                    "midi": 67,
                    "time": 512.0937500000134,
                    "velocity": 0.5039370078740157,
                    "duration": 0.11041666666665151
                },
                {
                    "name": "G3",
                    "midi": 55,
                    "time": 512.3812500000134,
                    "velocity": 0.7086614173228346,
                    "duration": 0.537499999999909
                },
                {
                    "name": "D#4",
                    "midi": 63,
                    "time": 512.5458333333468,
                    "velocity": 0.5039370078740157,
                    "duration": 0.12708333333330302
                },
                {
                    "name": "G4",
                    "midi": 67,
                    "time": 512.5520833333468,
                    "velocity": 0.4251968503937008,
                    "duration": 0.11041666666665151
                },
                {
                    "name": "A#3",
                    "midi": 58,
                    "time": 512.82291666668,
                    "velocity": 0.5669291338582677,
                    "duration": 0.4979166666665833
                },
                {
                    "name": "D#4",
                    "midi": 63,
                    "time": 513.0125000000133,
                    "velocity": 0.49606299212598426,
                    "duration": 0.1541666666665833
                },
                {
                    "name": "G4",
                    "midi": 67,
                    "time": 513.02916666668,
                    "velocity": 0.3700787401574803,
                    "duration": 0.10416666666662877
                },
                {
                    "name": "G3",
                    "midi": 55,
                    "time": 513.2895833333466,
                    "velocity": 0.5354330708661418,
                    "duration": 0.1999999999999318
                },
                {
                    "name": "G4",
                    "midi": 67,
                    "time": 513.4645833333466,
                    "velocity": 0.36220472440944884,
                    "duration": 0.12916666666671972
                },
                {
                    "name": "F3",
                    "midi": 53,
                    "time": 513.4666666666799,
                    "velocity": 0.6614173228346457,
                    "duration": 0.09166666666669698
                },
                {
                    "name": "D4",
                    "midi": 62,
                    "time": 513.4750000000132,
                    "velocity": 0.3858267716535433,
                    "duration": 0.10416666666674246
                },
                {
                    "name": "B3",
                    "midi": 59,
                    "time": 513.4916666666799,
                    "velocity": 0.2125984251968504,
                    "duration": 0.10625000000015916
                },
                {
                    "name": "F3",
                    "midi": 53,
                    "time": 513.96666666668,
                    "velocity": 0.5511811023622047,
                    "duration": 0.10833333333334849
                },
                {
                    "name": "D4",
                    "midi": 62,
                    "time": 513.98541666668,
                    "velocity": 0.4409448818897638,
                    "duration": 0.1104166666667652
                },
                {
                    "name": "B3",
                    "midi": 59,
                    "time": 513.99791666668,
                    "velocity": 0.2992125984251969,
                    "duration": 0.11458333333337123
                },
                {
                    "name": "G4",
                    "midi": 67,
                    "time": 514.00416666668,
                    "velocity": 0.2204724409448819,
                    "duration": 0.12083333333339397
                },
                {
                    "name": "F3",
                    "midi": 53,
                    "time": 514.4854166666801,
                    "velocity": 0.6220472440944882,
                    "duration": 0.3312499999999545
                },
                {
                    "name": "D4",
                    "midi": 62,
                    "time": 514.4937500000134,
                    "velocity": 0.3779527559055118,
                    "duration": 0.11041666666665151
                },
                {
                    "name": "G4",
                    "midi": 67,
                    "time": 514.4958333333467,
                    "velocity": 0.2755905511811024,
                    "duration": 0.11458333333337123
                },
                {
                    "name": "B3",
                    "midi": 59,
                    "time": 514.49791666668,
                    "velocity": 0.1968503937007874,
                    "duration": 0.12083333333339397
                },
                {
                    "name": "D3",
                    "midi": 50,
                    "time": 514.8437500000133,
                    "velocity": 0.25984251968503935,
                    "duration": 0.8874999999999318
                },
                {
                    "name": "D4",
                    "midi": 62,
                    "time": 515.1187500000133,
                    "velocity": 0.25196850393700787,
                    "duration": 0.16458333333332575
                },
                {
                    "name": "B3",
                    "midi": 59,
                    "time": 515.1354166666799,
                    "velocity": 0.2047244094488189,
                    "duration": 0.19166666666660603
                },
                {
                    "name": "G4",
                    "midi": 67,
                    "time": 515.1375000000132,
                    "velocity": 0.25196850393700787,
                    "duration": 0.1708333333333485
                },
                {
                    "name": "C#4",
                    "midi": 61,
                    "time": 516.7729166666799,
                    "velocity": 0.4251968503937008,
                    "duration": 0.33749999999997726
                },
                {
                    "name": "A3",
                    "midi": 57,
                    "time": 516.7791666666799,
                    "velocity": 0.28346456692913385,
                    "duration": 0.34791666666660603
                },
                {
                    "name": "G3",
                    "midi": 55,
                    "time": 516.8062500000132,
                    "velocity": 0.09448818897637795,
                    "duration": 0.4333333333332803
                },
                {
                    "name": "D4",
                    "midi": 62,
                    "time": 517.2416666666797,
                    "velocity": 0.5039370078740157,
                    "duration": 0.16041666666671972
                },
                {
                    "name": "C4",
                    "midi": 60,
                    "time": 517.2479166666798,
                    "velocity": 0.44881889763779526,
                    "duration": 0.11041666666665151
                },
                {
                    "name": "F#3",
                    "midi": 54,
                    "time": 517.2479166666798,
                    "velocity": 0.4566929133858268,
                    "duration": 0.3770833333334167
                },
                {
                    "name": "D#4",
                    "midi": 63,
                    "time": 517.5520833333464,
                    "velocity": 0.6220472440944882,
                    "duration": 0.2958333333334622
                },
                {
                    "name": "F3",
                    "midi": 53,
                    "time": 517.5645833333465,
                    "velocity": 0.3779527559055118,
                    "duration": 0.38541666666674246
                },
                {
                    "name": "B3",
                    "midi": 59,
                    "time": 517.5729166666798,
                    "velocity": 0.44881889763779526,
                    "duration": 0.28958333333343944
                },
                {
                    "name": "G#3",
                    "midi": 56,
                    "time": 517.9270833333466,
                    "velocity": 0.31496062992125984,
                    "duration": 0.5020833333335304
                },
                {
                    "name": "E4",
                    "midi": 64,
                    "time": 517.9291666666799,
                    "velocity": 0.4330708661417323,
                    "duration": 0.46458333333350765
                },
                {
                    "name": "E3",
                    "midi": 52,
                    "time": 517.9437500000132,
                    "velocity": 0.3937007874015748,
                    "duration": 0.44583333333343944
                },
                {
                    "name": "D4",
                    "midi": 62,
                    "time": 517.9437500000132,
                    "velocity": 0.31496062992125984,
                    "duration": 0.4208333333334622
                },
                {
                    "name": "F4",
                    "midi": 65,
                    "time": 518.79166666668,
                    "velocity": 0.3779527559055118,
                    "duration": 0.22916666666662877
                },
                {
                    "name": "C#4",
                    "midi": 61,
                    "time": 518.7937500000133,
                    "velocity": 0.3779527559055118,
                    "duration": 0.22083333333330302
                },
                {
                    "name": "D#3",
                    "midi": 51,
                    "time": 518.8000000000134,
                    "velocity": 0.4094488188976378,
                    "duration": 0.2041666666666515
                },
                {
                    "name": "G3",
                    "midi": 55,
                    "time": 518.8291666666801,
                    "velocity": 0.15748031496062992,
                    "duration": 0.22291666666660603
                },
                {
                    "name": "A4",
                    "midi": 69,
                    "time": 519.5208333333467,
                    "velocity": 0.2283464566929134,
                    "duration": 1.5437500000001592
                },
                {
                    "name": "F#3",
                    "midi": 54,
                    "time": 519.5270833333467,
                    "velocity": 0.28346456692913385,
                    "duration": 1.4791666666667425
                },
                {
                    "name": "D3",
                    "midi": 50,
                    "time": 519.5395833333467,
                    "velocity": 0.2677165354330709,
                    "duration": 1.4895833333333712
                },
                {
                    "name": "C4",
                    "midi": 60,
                    "time": 519.5500000000134,
                    "velocity": 0.1732283464566929,
                    "duration": 1.2979166666667652
                },
                {
                    "name": "D3",
                    "midi": 50,
                    "time": 522.0645833333468,
                    "velocity": 0.3543307086614173,
                    "duration": 0.2937500000000455
                },
                {
                    "name": "B3",
                    "midi": 59,
                    "time": 522.3041666666802,
                    "velocity": 0.3700787401574803,
                    "duration": 0.16041666666671972
                },
                {
                    "name": "E3",
                    "midi": 52,
                    "time": 522.4416666666802,
                    "velocity": 0.3543307086614173,
                    "duration": 0.09166666666669698
                },
                {
                    "name": "D4",
                    "midi": 62,
                    "time": 522.5000000000136,
                    "velocity": 0.30708661417322836,
                    "duration": 0.08958333333328028
                },
                {
                    "name": "G4",
                    "midi": 67,
                    "time": 522.508333333347,
                    "velocity": 0.23622047244094488,
                    "duration": 0.08958333333328028
                },
                {
                    "name": "B3",
                    "midi": 59,
                    "time": 522.6145833333469,
                    "velocity": 0.16535433070866143,
                    "duration": 0.07083333333332575
                },
                {
                    "name": "G3",
                    "midi": 55,
                    "time": 522.7333333333469,
                    "velocity": 0.4330708661417323,
                    "duration": 0.08125000000006821
                },
                {
                    "name": "D4",
                    "midi": 62,
                    "time": 522.7458333333469,
                    "velocity": 0.25196850393700787,
                    "duration": 0.06666666666671972
                },
                {
                    "name": "G4",
                    "midi": 67,
                    "time": 522.7500000000136,
                    "velocity": 0.07874015748031496,
                    "duration": 0.07916666666665151
                },
                {
                    "name": "B3",
                    "midi": 59,
                    "time": 522.8041666666803,
                    "velocity": 0.2283464566929134,
                    "duration": 0.09166666666669698
                },
                {
                    "name": "G3",
                    "midi": 55,
                    "time": 522.9541666666803,
                    "velocity": 0.4881889763779528,
                    "duration": 0.39583333333325754
                },
                {
                    "name": "D4",
                    "midi": 62,
                    "time": 522.9604166666803,
                    "velocity": 0.1732283464566929,
                    "duration": 0.058333333333393966
                },
                {
                    "name": "B3",
                    "midi": 59,
                    "time": 523.0041666666804,
                    "velocity": 0.28346456692913385,
                    "duration": 0.09166666666669698
                },
                {
                    "name": "D4",
                    "midi": 62,
                    "time": 523.1375000000137,
                    "velocity": 0.2125984251968504,
                    "duration": 0.06458333333330302
                },
                {
                    "name": "G4",
                    "midi": 67,
                    "time": 523.1479166666803,
                    "velocity": 0.11811023622047244,
                    "duration": 0.0625
                },
                {
                    "name": "B3",
                    "midi": 59,
                    "time": 523.1854166666803,
                    "velocity": 0.36220472440944884,
                    "duration": 0.08541666666667425
                },
                {
                    "name": "G4",
                    "midi": 67,
                    "time": 523.2979166666803,
                    "velocity": 0.2204724409448819,
                    "duration": 0.0770833333332348
                },
                {
                    "name": "D4",
                    "midi": 62,
                    "time": 523.3000000000136,
                    "velocity": 0.3543307086614173,
                    "duration": 0.08124999999995453
                },
                {
                    "name": "B3",
                    "midi": 59,
                    "time": 523.3604166666802,
                    "velocity": 0.3937007874015748,
                    "duration": 0.08125000000006821
                },
                {
                    "name": "D3",
                    "midi": 50,
                    "time": 523.3750000000135,
                    "velocity": 0.5433070866141733,
                    "duration": 0.16458333333343944
                },
                {
                    "name": "G4",
                    "midi": 67,
                    "time": 523.4500000000136,
                    "velocity": 0.2677165354330709,
                    "duration": 0.0791666666667652
                },
                {
                    "name": "D4",
                    "midi": 62,
                    "time": 523.4625000000136,
                    "velocity": 0.4251968503937008,
                    "duration": 0.08541666666667425
                },
                {
                    "name": "B3",
                    "midi": 59,
                    "time": 523.5250000000136,
                    "velocity": 0.36220472440944884,
                    "duration": 0.08749999999997726
                },
                {
                    "name": "E3",
                    "midi": 52,
                    "time": 523.5541666666803,
                    "velocity": 0.4330708661417323,
                    "duration": 0.17916666666656056
                },
                {
                    "name": "D4",
                    "midi": 62,
                    "time": 523.6520833333469,
                    "velocity": 0.2283464566929134,
                    "duration": 0.19374999999990905
                },
                {
                    "name": "B3",
                    "midi": 59,
                    "time": 523.6854166666802,
                    "velocity": 0.47244094488188976,
                    "duration": 0.09583333333330302
                },
                {
                    "name": "D3",
                    "midi": 50,
                    "time": 523.6937500000136,
                    "velocity": 0.6062992125984252,
                    "duration": 0.20624999999995453
                },
                {
                    "name": "G4",
                    "midi": 67,
                    "time": 523.7604166666802,
                    "velocity": 0.3228346456692913,
                    "duration": 0.08749999999997726
                },
                {
                    "name": "F3",
                    "midi": 53,
                    "time": 523.8791666666801,
                    "velocity": 0.7322834645669292,
                    "duration": 0.4187499999999318
                },
                {
                    "name": "B3",
                    "midi": 59,
                    "time": 523.9562500000135,
                    "velocity": 0.6062992125984252,
                    "duration": 0.08958333333328028
                },
                {
                    "name": "D4",
                    "midi": 62,
                    "time": 524.0500000000135,
                    "velocity": 0.5826771653543307,
                    "duration": 0.09583333333318933
                },
                {
                    "name": "G#4",
                    "midi": 68,
                    "time": 524.0770833333468,
                    "velocity": 0.6062992125984252,
                    "duration": 0.05624999999997726
                },
                {
                    "name": "B3",
                    "midi": 59,
                    "time": 524.1145833333468,
                    "velocity": 0.6062992125984252,
                    "duration": 0.0916666666665833
                },
                {
                    "name": "G#4",
                    "midi": 68,
                    "time": 524.2083333333467,
                    "velocity": 0.5669291338582677,
                    "duration": 0.08333333333337123
                },
                {
                    "name": "D4",
                    "midi": 62,
                    "time": 524.24791666668,
                    "velocity": 0.3228346456692913,
                    "duration": 0.08750000000009095
                },
                {
                    "name": "B3",
                    "midi": 59,
                    "time": 524.2770833333467,
                    "velocity": 0.6141732283464567,
                    "duration": 0.09791666666671972
                },
                {
                    "name": "G#4",
                    "midi": 68,
                    "time": 524.3750000000134,
                    "velocity": 0.5905511811023622,
                    "duration": 0.24166666666656056
                },
                {
                    "name": "D4",
                    "midi": 62,
                    "time": 524.4333333333467,
                    "velocity": 0.09448818897637795,
                    "duration": 0.06458333333330302
                },
                {
                    "name": "B3",
                    "midi": 59,
                    "time": 524.44166666668,
                    "velocity": 0.5590551181102362,
                    "duration": 0.09791666666660603
                },
                {
                    "name": "E3",
                    "midi": 52,
                    "time": 524.5729166666799,
                    "velocity": 0.7716535433070866,
                    "duration": 0.2541666666668334
                },
                {
                    "name": "B3",
                    "midi": 59,
                    "time": 524.6520833333467,
                    "velocity": 0.6929133858267716,
                    "duration": 0.08333333333337123
                },
                {
                    "name": "D3",
                    "midi": 50,
                    "time": 524.7437500000134,
                    "velocity": 0.7559055118110236,
                    "duration": 0.2520833333335304
                },
                {
                    "name": "D4",
                    "midi": 62,
                    "time": 524.7520833333467,
                    "velocity": 0.6456692913385826,
                    "duration": 0.10416666666674246
                },
                {
                    "name": "A4",
                    "midi": 69,
                    "time": 524.7583333333467,
                    "velocity": 0.6692913385826772,
                    "duration": 0.10625000000004547
                },
                {
                    "name": "B3",
                    "midi": 59,
                    "time": 524.8208333333467,
                    "velocity": 0.6692913385826772,
                    "duration": 0.08958333333339397
                },
                {
                    "name": "A4",
                    "midi": 69,
                    "time": 524.9312500000135,
                    "velocity": 0.5748031496062992,
                    "duration": 0.06250000000011369
                },
                {
                    "name": "D4",
                    "midi": 62,
                    "time": 524.9375000000135,
                    "velocity": 0.4645669291338583,
                    "duration": 0.10208333333343944
                },
                {
                    "name": "B3",
                    "midi": 59,
                    "time": 524.9895833333469,
                    "velocity": 0.6062992125984252,
                    "duration": 0.08958333333339397
                },
                {
                    "name": "A4",
                    "midi": 69,
                    "time": 525.102083333347,
                    "velocity": 0.5590551181102362,
                    "duration": 0.1104166666667652
                },
                {
                    "name": "D4",
                    "midi": 62,
                    "time": 525.108333333347,
                    "velocity": 0.47244094488188976,
                    "duration": 0.08125000000006821
                },
                {
                    "name": "B3",
                    "midi": 59,
                    "time": 525.145833333347,
                    "velocity": 0.6929133858267716,
                    "duration": 0.0791666666667652
                },
                {
                    "name": "F3",
                    "midi": 53,
                    "time": 525.2812500000139,
                    "velocity": 0.8976377952755905,
                    "duration": 0.16458333333332575
                },
                {
                    "name": "D4",
                    "midi": 62,
                    "time": 525.3750000000139,
                    "velocity": 0.6535433070866141,
                    "duration": 0.08333333333337123
                },
                {
                    "name": "G3",
                    "midi": 55,
                    "time": 525.4333333333472,
                    "velocity": 0.7401574803149606,
                    "duration": 0.17083333333368955
                },
                {
                    "name": "F4",
                    "midi": 65,
                    "time": 525.462500000014,
                    "velocity": 0.6771653543307087,
                    "duration": 0.10208333333343944
                },
                {
                    "name": "A#4",
                    "midi": 70,
                    "time": 525.4645833333473,
                    "velocity": 0.7716535433070866,
                    "duration": 0.08750000000009095
                },
                {
                    "name": "D4",
                    "midi": 62,
                    "time": 525.5395833333473,
                    "velocity": 0.7401574803149606,
                    "duration": 0.08750000000020464
                },
                {
                    "name": "A#3",
                    "midi": 58,
                    "time": 525.6000000000141,
                    "velocity": 0.952755905511811,
                    "duration": 0.10416666666674246
                },
                {
                    "name": "A#4",
                    "midi": 70,
                    "time": 525.6416666666809,
                    "velocity": 0.8267716535433071,
                    "duration": 0.08541666666667425
                },
                {
                    "name": "F4",
                    "midi": 65,
                    "time": 525.6541666666809,
                    "velocity": 0.4881889763779528,
                    "duration": 0.0916666666665833
                },
                {
                    "name": "D4",
                    "midi": 62,
                    "time": 525.7041666666809,
                    "velocity": 0.6614173228346457,
                    "duration": 0.09583333333330302
                },
                {
                    "name": "A#3",
                    "midi": 58,
                    "time": 525.8000000000142,
                    "velocity": 0.8818897637795275,
                    "duration": 0.32083333333343944
                },
                {
                    "name": "A#4",
                    "midi": 70,
                    "time": 525.8083333333475,
                    "velocity": 0.7874015748031497,
                    "duration": 0.08749999999997726
                },
                {
                    "name": "F4",
                    "midi": 65,
                    "time": 525.8166666666808,
                    "velocity": 0.6614173228346457,
                    "duration": 0.10000000000002274
                },
                {
                    "name": "D4",
                    "midi": 62,
                    "time": 525.8687500000142,
                    "velocity": 0.6535433070866141,
                    "duration": 0.09583333333330302
                },
                {
                    "name": "A#4",
                    "midi": 70,
                    "time": 525.9791666666808,
                    "velocity": 0.7637795275590551,
                    "duration": 0.09166666666681067
                },
                {
                    "name": "F4",
                    "midi": 65,
                    "time": 525.9833333333476,
                    "velocity": 0.5984251968503937,
                    "duration": 0.10416666666674246
                },
                {
                    "name": "D4",
                    "midi": 62,
                    "time": 526.041666666681,
                    "velocity": 0.6850393700787402,
                    "duration": 0.09791666666660603
                },
                {
                    "name": "F3",
                    "midi": 53,
                    "time": 526.1520833333476,
                    "velocity": 0.84251968503937,
                    "duration": 0.20624999999995453
                },
                {
                    "name": "A#4",
                    "midi": 70,
                    "time": 526.1541666666809,
                    "velocity": 0.7559055118110236,
                    "duration": 0.07708333333334849
                },
                {
                    "name": "F4",
                    "midi": 65,
                    "time": 526.1541666666809,
                    "velocity": 0.6614173228346457,
                    "duration": 0.11041666666665151
                },
                {
                    "name": "F#3",
                    "midi": 54,
                    "time": 526.1708333333476,
                    "velocity": 0.29133858267716534,
                    "duration": 0.04583333333334849
                },
                {
                    "name": "D4",
                    "midi": 62,
                    "time": 526.2083333333476,
                    "velocity": 0.6535433070866141,
                    "duration": 0.10208333333332575
                },
                {
                    "name": "A#4",
                    "midi": 70,
                    "time": 526.3125000000142,
                    "velocity": 0.8188976377952756,
                    "duration": 0.09583333333330302
                },
                {
                    "name": "G3",
                    "midi": 55,
                    "time": 526.3208333333475,
                    "velocity": 0.8110236220472441,
                    "duration": 0.15208333333328028
                },
                {
                    "name": "F4",
                    "midi": 65,
                    "time": 526.3229166666808,
                    "velocity": 0.6535433070866141,
                    "duration": 0.10416666666662877
                },
                {
                    "name": "D4",
                    "midi": 62,
                    "time": 526.3750000000142,
                    "velocity": 0.6535433070866141,
                    "duration": 0.10208333333321207
                },
                {
                    "name": "A#4",
                    "midi": 70,
                    "time": 526.4750000000141,
                    "velocity": 0.7480314960629921,
                    "duration": 0.10416666666662877
                },
                {
                    "name": "F3",
                    "midi": 53,
                    "time": 526.4750000000141,
                    "velocity": 0.7244094488188977,
                    "duration": 0.12083333333328028
                },
                {
                    "name": "F4",
                    "midi": 65,
                    "time": 526.4770833333474,
                    "velocity": 0.7716535433070866,
                    "duration": 0.09583333333330302
                },
                {
                    "name": "D4",
                    "midi": 62,
                    "time": 526.5354166666807,
                    "velocity": 0.7244094488188977,
                    "duration": 0.09375
                },
                {
                    "name": "G#3",
                    "midi": 56,
                    "time": 526.6500000000141,
                    "velocity": 0.984251968503937,
                    "duration": 0.3125
                },
                {
                    "name": "D4",
                    "midi": 62,
                    "time": 526.7270833333474,
                    "velocity": 0.8346456692913385,
                    "duration": 0.08541666666667425
                },
                {
                    "name": "F4",
                    "midi": 65,
                    "time": 526.8104166666808,
                    "velocity": 0.7401574803149606,
                    "duration": 0.10208333333332575
                },
                {
                    "name": "B4",
                    "midi": 71,
                    "time": 526.8208333333474,
                    "velocity": 0.7716535433070866,
                    "duration": 0.10000000000002274
                },
                {
                    "name": "D4",
                    "midi": 62,
                    "time": 526.8729166666808,
                    "velocity": 0.7007874015748031,
                    "duration": 0.08749999999997726
                },
                {
                    "name": "B4",
                    "midi": 71,
                    "time": 526.9666666666808,
                    "velocity": 0.8188976377952756,
                    "duration": 0.08333333333337123
                },
                {
                    "name": "F4",
                    "midi": 65,
                    "time": 526.9791666666808,
                    "velocity": 0.5984251968503937,
                    "duration": 0.09791666666660603
                },
                {
                    "name": "D4",
                    "midi": 62,
                    "time": 527.0270833333475,
                    "velocity": 0.7007874015748031,
                    "duration": 0.09375
                },
                {
                    "name": "B4",
                    "midi": 71,
                    "time": 527.1270833333475,
                    "velocity": 0.8188976377952756,
                    "duration": 0.10624999999993179
                },
                {
                    "name": "F4",
                    "midi": 65,
                    "time": 527.1291666666808,
                    "velocity": 0.7559055118110236,
                    "duration": 0.11041666666665151
                },
                {
                    "name": "D4",
                    "midi": 62,
                    "time": 527.1833333333475,
                    "velocity": 0.7244094488188977,
                    "duration": 0.09791666666660603
                },
                {
                    "name": "G3",
                    "midi": 55,
                    "time": 527.2937500000141,
                    "velocity": 0.952755905511811,
                    "duration": 0.11874999999997726
                },
                {
                    "name": "D4",
                    "midi": 62,
                    "time": 527.3791666666808,
                    "velocity": 0.8346456692913385,
                    "duration": 0.08124999999995453
                },
                {
                    "name": "F3",
                    "midi": 53,
                    "time": 527.4625000000141,
                    "velocity": 0.9133858267716536,
                    "duration": 0.11666666666667425
                },
                {
                    "name": "F4",
                    "midi": 65,
                    "time": 527.4770833333474,
                    "velocity": 0.84251968503937,
                    "duration": 0.11041666666665151
                },
                {
                    "name": "C5",
                    "midi": 72,
                    "time": 527.4833333333474,
                    "velocity": 0.84251968503937,
                    "duration": 0.07708333333334849
                },
                {
                    "name": "D4",
                    "midi": 62,
                    "time": 527.5479166666807,
                    "velocity": 0.7716535433070866,
                    "duration": 0.07708333333334849
                },
                {
                    "name": "C5",
                    "midi": 72,
                    "time": 527.643750000014,
                    "velocity": 0.8110236220472441,
                    "duration": 0.08541666666667425
                },
                {
                    "name": "F4",
                    "midi": 65,
                    "time": 527.662500000014,
                    "velocity": 0.3779527559055118,
                    "duration": 0.09791666666671972
                },
                {
                    "name": "D4",
                    "midi": 62,
                    "time": 527.7083333333474,
                    "velocity": 0.7716535433070866,
                    "duration": 0.08125000000006821
                },
                {
                    "name": "C5",
                    "midi": 72,
                    "time": 527.8125000000141,
                    "velocity": 0.7401574803149606,
                    "duration": 0.10624999999993179
                },
                {
                    "name": "F4",
                    "midi": 65,
                    "time": 527.831250000014,
                    "velocity": 0.4330708661417323,
                    "duration": 0.07291666666662877
                },
                {
                    "name": "D4",
                    "midi": 62,
                    "time": 527.8583333333473,
                    "velocity": 0.7165354330708661,
                    "duration": 0.06875000000002274
                },
                {
                    "name": "F4",
                    "midi": 65,
                    "time": 528.150000000014,
                    "velocity": 0.9763779527559056,
                    "duration": 0.054166666666674246
                },
                {
                    "name": "G#3",
                    "midi": 56,
                    "time": 528.1520833333473,
                    "velocity": 0.8976377952755905,
                    "duration": 0.08750000000009095
                },
                {
                    "name": "C#4",
                    "midi": 61,
                    "time": 528.1541666666806,
                    "velocity": 0.9133858267716536,
                    "duration": 0.05416666666678793
                },
                {
                    "name": "G#4",
                    "midi": 68,
                    "time": 528.1562500000139,
                    "velocity": 0.937007874015748,
                    "duration": 0.05416666666678793
                },
                {
                    "name": "A#3",
                    "midi": 58,
                    "time": 528.1604166666806,
                    "velocity": 0.8188976377952756,
                    "duration": 0.06875000000002274
                },
                {
                    "name": "G#5",
                    "midi": 80,
                    "time": 528.1604166666806,
                    "velocity": 0.9291338582677166,
                    "duration": 0.07500000000004547
                },
                {
                    "name": "C#5",
                    "midi": 73,
                    "time": 528.1645833333473,
                    "velocity": 0.8976377952755905,
                    "duration": 0.03333333333330302
                },
                {
                    "name": "A#4",
                    "midi": 70,
                    "time": 528.443750000014,
                    "velocity": 0.984251968503937,
                    "duration": 0.054166666666674246
                },
                {
                    "name": "G#2",
                    "midi": 44,
                    "time": 528.4479166666807,
                    "velocity": 0.8818897637795275,
                    "duration": 0.04791666666665151
                },
                {
                    "name": "C#2",
                    "midi": 37,
                    "time": 528.450000000014,
                    "velocity": 0.9291338582677166,
                    "duration": 0.05208333333337123
                },
                {
                    "name": "A#5",
                    "midi": 82,
                    "time": 528.450000000014,
                    "velocity": 0.905511811023622,
                    "duration": 0.054166666666674246
                },
                {
                    "name": "C#5",
                    "midi": 73,
                    "time": 528.6604166666807,
                    "velocity": 0.952755905511811,
                    "duration": 0.03125
                },
                {
                    "name": "C#6",
                    "midi": 85,
                    "time": 528.6604166666807,
                    "velocity": 0.905511811023622,
                    "duration": 0.054166666666674246
                },
                {
                    "name": "G#5",
                    "midi": 80,
                    "time": 528.662500000014,
                    "velocity": 0.8661417322834646,
                    "duration": 0.05000000000006821
                },
                {
                    "name": "C#4",
                    "midi": 61,
                    "time": 528.8291666666807,
                    "velocity": 0.8661417322834646,
                    "duration": 0.06875000000002274
                },
                {
                    "name": "F4",
                    "midi": 65,
                    "time": 528.8354166666808,
                    "velocity": 0.7716535433070866,
                    "duration": 0.029166666666696983
                },
                {
                    "name": "A#3",
                    "midi": 58,
                    "time": 528.8395833333475,
                    "velocity": 0.7244094488188977,
                    "duration": 0.06874999999990905
                },
                {
                    "name": "G#3",
                    "midi": 56,
                    "time": 528.8395833333475,
                    "velocity": 0.7165354330708661,
                    "duration": 0.06874999999990905
                },
                {
                    "name": "C#5",
                    "midi": 73,
                    "time": 528.8479166666808,
                    "velocity": 1,
                    "duration": 0.04791666666665151
                },
                {
                    "name": "C#6",
                    "midi": 85,
                    "time": 528.8479166666808,
                    "velocity": 0.9291338582677166,
                    "duration": 0.04374999999993179
                },
                {
                    "name": "G#5",
                    "midi": 80,
                    "time": 528.8500000000141,
                    "velocity": 0.937007874015748,
                    "duration": 0.04583333333334849
                },
                {
                    "name": "G#2",
                    "midi": 44,
                    "time": 529.0166666666807,
                    "velocity": 0.9133858267716536,
                    "duration": 0.049999999999954525
                },
                {
                    "name": "C#2",
                    "midi": 37,
                    "time": 529.0270833333474,
                    "velocity": 0.8582677165354331,
                    "duration": 0.04166666666662877
                },
                {
                    "name": "G#4",
                    "midi": 68,
                    "time": 529.200000000014,
                    "velocity": 0.9448818897637795,
                    "duration": 0.05624999999997726
                },
                {
                    "name": "G#5",
                    "midi": 80,
                    "time": 529.2020833333473,
                    "velocity": 0.937007874015748,
                    "duration": 0.09375000000011369
                },
                {
                    "name": "C#5",
                    "midi": 73,
                    "time": 529.2104166666807,
                    "velocity": 0.8661417322834646,
                    "duration": 0.05000000000006821
                },
                {
                    "name": "F4",
                    "midi": 65,
                    "time": 529.3687500000141,
                    "velocity": 0.7874015748031497,
                    "duration": 0.035416666666606034
                },
                {
                    "name": "C#4",
                    "midi": 61,
                    "time": 529.3708333333474,
                    "velocity": 0.8346456692913385,
                    "duration": 0.06458333333330302
                },
                {
                    "name": "A#3",
                    "midi": 58,
                    "time": 529.3708333333474,
                    "velocity": 0.8188976377952756,
                    "duration": 0.07708333333334849
                },
                {
                    "name": "A#5",
                    "midi": 82,
                    "time": 529.3791666666807,
                    "velocity": 0.905511811023622,
                    "duration": 0.07083333333332575
                },
                {
                    "name": "A#4",
                    "midi": 70,
                    "time": 529.381250000014,
                    "velocity": 0.968503937007874,
                    "duration": 0.05208333333337123
                },
                {
                    "name": "G#3",
                    "midi": 56,
                    "time": 529.3916666666806,
                    "velocity": 0.7637795275590551,
                    "duration": 0.06250000000011369
                },
                {
                    "name": "G#4",
                    "midi": 68,
                    "time": 529.5520833333475,
                    "velocity": 0.9291338582677166,
                    "duration": 0.05833333333328028
                },
                {
                    "name": "G#5",
                    "midi": 80,
                    "time": 529.5520833333475,
                    "velocity": 0.889763779527559,
                    "duration": 0.06666666666671972
                },
                {
                    "name": "G#2",
                    "midi": 44,
                    "time": 529.5625000000141,
                    "velocity": 0.84251968503937,
                    "duration": 0.05208333333337123
                },
                {
                    "name": "F5",
                    "midi": 77,
                    "time": 529.7520833333476,
                    "velocity": 0.84251968503937,
                    "duration": 0.11458333333325754
                },
                {
                    "name": "B5",
                    "midi": 83,
                    "time": 529.7625000000143,
                    "velocity": 0.8582677165354331,
                    "duration": 0.10833333333334849
                },
                {
                    "name": "B4",
                    "midi": 71,
                    "time": 529.7625000000143,
                    "velocity": 0.9212598425196851,
                    "duration": 0.08958333333328028
                },
                {
                    "name": "G#5",
                    "midi": 80,
                    "time": 529.7895833333475,
                    "velocity": 0.5511811023622047,
                    "duration": 0.04166666666662877
                },
                {
                    "name": "C#4",
                    "midi": 61,
                    "time": 529.9395833333476,
                    "velocity": 0.905511811023622,
                    "duration": 0.06041666666669698
                },
                {
                    "name": "A#3",
                    "midi": 58,
                    "time": 529.9437500000143,
                    "velocity": 0.8188976377952756,
                    "duration": 0.07291666666662877
                },
                {
                    "name": "F4",
                    "midi": 65,
                    "time": 529.9458333333477,
                    "velocity": 0.8110236220472441,
                    "duration": 0.03125
                },
                {
                    "name": "G#3",
                    "midi": 56,
                    "time": 529.9562500000143,
                    "velocity": 0.7637795275590551,
                    "duration": 0.07500000000004547
                },
                {
                    "name": "G#2",
                    "midi": 44,
                    "time": 530.1208333333476,
                    "velocity": 0.9763779527559056,
                    "duration": 0.054166666666674246
                },
                {
                    "name": "C#2",
                    "midi": 37,
                    "time": 530.1291666666809,
                    "velocity": 0.952755905511811,
                    "duration": 0.04166666666662877
                },
                {
                    "name": "A#4",
                    "midi": 70,
                    "time": 530.4750000000142,
                    "velocity": 0.9133858267716536,
                    "duration": 0.08541666666656056
                },
                {
                    "name": "A#5",
                    "midi": 82,
                    "time": 530.4770833333475,
                    "velocity": 0.8661417322834646,
                    "duration": 0.08124999999995453
                },
                {
                    "name": "C#4",
                    "midi": 61,
                    "time": 530.4812500000143,
                    "velocity": 0.905511811023622,
                    "duration": 0.05833333333328028
                },
                {
                    "name": "F4",
                    "midi": 65,
                    "time": 530.4833333333476,
                    "velocity": 0.8740157480314961,
                    "duration": 0.049999999999954525
                },
                {
                    "name": "A#3",
                    "midi": 58,
                    "time": 530.4833333333476,
                    "velocity": 0.8582677165354331,
                    "duration": 0.08958333333328028
                },
                {
                    "name": "F5",
                    "midi": 77,
                    "time": 530.4833333333476,
                    "velocity": 0.7322834645669292,
                    "duration": 0.11249999999995453
                },
                {
                    "name": "C#5",
                    "midi": 73,
                    "time": 530.4854166666809,
                    "velocity": 0.7874015748031497,
                    "duration": 0.10416666666662877
                },
                {
                    "name": "G#3",
                    "midi": 56,
                    "time": 530.4958333333475,
                    "velocity": 0.7637795275590551,
                    "duration": 0.07708333333334849
                },
                {
                    "name": "G#2",
                    "midi": 44,
                    "time": 530.6791666666809,
                    "velocity": 0.937007874015748,
                    "duration": 0.05624999999997726
                },
                {
                    "name": "G#5",
                    "midi": 80,
                    "time": 530.6812500000142,
                    "velocity": 0.9448818897637795,
                    "duration": 0.06875000000002274
                },
                {
                    "name": "G#4",
                    "midi": 68,
                    "time": 530.6833333333475,
                    "velocity": 1,
                    "duration": 0.054166666666674246
                },
                {
                    "name": "C#2",
                    "midi": 37,
                    "time": 530.6875000000142,
                    "velocity": 0.905511811023622,
                    "duration": 0.03750000000002274
                },
                {
                    "name": "F4",
                    "midi": 65,
                    "time": 531.0812500000142,
                    "velocity": 0.8346456692913385,
                    "duration": 0.039583333333325754
                },
                {
                    "name": "C#4",
                    "midi": 61,
                    "time": 531.0833333333475,
                    "velocity": 0.84251968503937,
                    "duration": 0.06458333333330302
                },
                {
                    "name": "A#3",
                    "midi": 58,
                    "time": 531.0854166666808,
                    "velocity": 0.7637795275590551,
                    "duration": 0.08958333333328028
                },
                {
                    "name": "G#3",
                    "midi": 56,
                    "time": 531.0854166666808,
                    "velocity": 0.7874015748031497,
                    "duration": 0.0916666666665833
                },
                {
                    "name": "G#2",
                    "midi": 44,
                    "time": 531.3104166666807,
                    "velocity": 0.8976377952755905,
                    "duration": 0.06250000000011369
                },
                {
                    "name": "C#2",
                    "midi": 37,
                    "time": 531.3166666666807,
                    "velocity": 0.9291338582677166,
                    "duration": 0.0645833333334167
                },
                {
                    "name": "D#5",
                    "midi": 75,
                    "time": 531.3291666666807,
                    "velocity": 0.952755905511811,
                    "duration": 0.09791666666671972
                },
                {
                    "name": "F#4",
                    "midi": 66,
                    "time": 531.3291666666807,
                    "velocity": 1,
                    "duration": 0.058333333333393966
                },
                {
                    "name": "A#4",
                    "midi": 70,
                    "time": 531.331250000014,
                    "velocity": 0.9448818897637795,
                    "duration": 0.06875000000013642
                },
                {
                    "name": "C5",
                    "midi": 72,
                    "time": 531.6395833333474,
                    "velocity": 0.8582677165354331,
                    "duration": 0.10416666666674246
                },
                {
                    "name": "F5",
                    "midi": 77,
                    "time": 531.6437500000142,
                    "velocity": 0.8188976377952756,
                    "duration": 0.10208333333332575
                },
                {
                    "name": "G#4",
                    "midi": 68,
                    "time": 531.6479166666809,
                    "velocity": 0.8582677165354331,
                    "duration": 0.08749999999997726
                },
                {
                    "name": "F4",
                    "midi": 65,
                    "time": 531.7500000000142,
                    "velocity": 0.8503937007874016,
                    "duration": 0.05624999999997726
                },
                {
                    "name": "C4",
                    "midi": 60,
                    "time": 531.7520833333475,
                    "velocity": 0.7716535433070866,
                    "duration": 0.06875000000002274
                },
                {
                    "name": "G#3",
                    "midi": 56,
                    "time": 531.7541666666808,
                    "velocity": 0.7874015748031497,
                    "duration": 0.10000000000002274
                },
                {
                    "name": "F#4",
                    "midi": 66,
                    "time": 531.8895833333476,
                    "velocity": 1,
                    "duration": 0.06041666666669698
                },
                {
                    "name": "D#5",
                    "midi": 75,
                    "time": 531.8958333333476,
                    "velocity": 0.905511811023622,
                    "duration": 0.10208333333332575
                },
                {
                    "name": "A#2",
                    "midi": 46,
                    "time": 531.9354166666809,
                    "velocity": 0.8976377952755905,
                    "duration": 0.054166666666674246
                },
                {
                    "name": "C#2",
                    "midi": 37,
                    "time": 531.9458333333475,
                    "velocity": 0.8267716535433071,
                    "duration": 0.022916666666674246
                },
                {
                    "name": "A#4",
                    "midi": 70,
                    "time": 532.1250000000142,
                    "velocity": 0.9763779527559056,
                    "duration": 0.27708333333339397
                },
                {
                    "name": "F#5",
                    "midi": 78,
                    "time": 532.1291666666809,
                    "velocity": 0.9133858267716536,
                    "duration": 0.32291666666662877
                },
                {
                    "name": "F#4",
                    "midi": 66,
                    "time": 532.2687500000143,
                    "velocity": 0.952755905511811,
                    "duration": 0.058333333333393966
                },
                {
                    "name": "C4",
                    "midi": 60,
                    "time": 532.272916666681,
                    "velocity": 0.7795275590551181,
                    "duration": 0.07916666666665151
                },
                {
                    "name": "A#3",
                    "midi": 58,
                    "time": 532.285416666681,
                    "velocity": 0.7086614173228346,
                    "duration": 0.09374999999988631
                },
                {
                    "name": "G#2",
                    "midi": 44,
                    "time": 532.4729166666809,
                    "velocity": 0.9921259842519685,
                    "duration": 0.05624999999997726
                },
                {
                    "name": "C#2",
                    "midi": 37,
                    "time": 532.4812500000143,
                    "velocity": 0.937007874015748,
                    "duration": 0.039583333333325754
                },
                {
                    "name": "A2",
                    "midi": 45,
                    "time": 532.5000000000142,
                    "velocity": 0.5669291338582677,
                    "duration": 0.04583333333334849
                },
                {
                    "name": "F#4",
                    "midi": 66,
                    "time": 532.8062500000142,
                    "velocity": 0.984251968503937,
                    "duration": 0.05625000000009095
                },
                {
                    "name": "C4",
                    "midi": 60,
                    "time": 532.8104166666809,
                    "velocity": 0.8110236220472441,
                    "duration": 0.0625
                },
                {
                    "name": "G#5",
                    "midi": 80,
                    "time": 532.8208333333475,
                    "velocity": 0.9291338582677166,
                    "duration": 0.10000000000002274
                },
                {
                    "name": "A#3",
                    "midi": 58,
                    "time": 532.8208333333475,
                    "velocity": 0.7559055118110236,
                    "duration": 0.08333333333337123
                },
                {
                    "name": "C6",
                    "midi": 84,
                    "time": 532.9333333333476,
                    "velocity": 0.8110236220472441,
                    "duration": 0.10416666666674246
                },
                {
                    "name": "G#2",
                    "midi": 44,
                    "time": 532.9937500000143,
                    "velocity": 0.889763779527559,
                    "duration": 0.054166666666674246
                },
                {
                    "name": "D#6",
                    "midi": 87,
                    "time": 533.0020833333476,
                    "velocity": 0.8503937007874016,
                    "duration": 0.07708333333334849
                },
                {
                    "name": "C#2",
                    "midi": 37,
                    "time": 533.0062500000143,
                    "velocity": 0.7952755905511811,
                    "duration": 0.03333333333330302
                },
                {
                    "name": "D#6",
                    "midi": 87,
                    "time": 533.1604166666809,
                    "velocity": 0.905511811023622,
                    "duration": 0.07291666666662877
                },
                {
                    "name": "F#4",
                    "midi": 66,
                    "time": 533.3250000000143,
                    "velocity": 0.937007874015748,
                    "duration": 0.05208333333337123
                },
                {
                    "name": "D#6",
                    "midi": 87,
                    "time": 533.3270833333476,
                    "velocity": 0.968503937007874,
                    "duration": 0.0791666666667652
                },
                {
                    "name": "C4",
                    "midi": 60,
                    "time": 533.3312500000143,
                    "velocity": 0.7716535433070866,
                    "duration": 0.06041666666669698
                },
                {
                    "name": "A#3",
                    "midi": 58,
                    "time": 533.3395833333476,
                    "velocity": 0.7480314960629921,
                    "duration": 0.08125000000006821
                },
                {
                    "name": "D#6",
                    "midi": 87,
                    "time": 533.504166666681,
                    "velocity": 0.9133858267716536,
                    "duration": 0.2041666666666515
                },
                {
                    "name": "G#2",
                    "midi": 44,
                    "time": 533.5125000000144,
                    "velocity": 0.8976377952755905,
                    "duration": 0.02708333333328028
                },
                {
                    "name": "A#2",
                    "midi": 46,
                    "time": 533.5145833333477,
                    "velocity": 0.8110236220472441,
                    "duration": 0.058333333333393966
                },
                {
                    "name": "C#2",
                    "midi": 37,
                    "time": 533.516666666681,
                    "velocity": 0.889763779527559,
                    "duration": 0.027083333333393966
                },
                {
                    "name": "F#6",
                    "midi": 90,
                    "time": 533.6750000000144,
                    "velocity": 0.6614173228346457,
                    "duration": 0.2041666666666515
                },
                {
                    "name": "F6",
                    "midi": 89,
                    "time": 533.7625000000144,
                    "velocity": 0.5196850393700787,
                    "duration": 0.04583333333334849
                },
                {
                    "name": "F6",
                    "midi": 89,
                    "time": 533.8083333333477,
                    "velocity": 0.8346456692913385,
                    "duration": 0.11874999999997726
                },
                {
                    "name": "D#6",
                    "midi": 87,
                    "time": 533.8458333333477,
                    "velocity": 0.8267716535433071,
                    "duration": 0.1395833333333485
                },
                {
                    "name": "F#4",
                    "midi": 66,
                    "time": 533.847916666681,
                    "velocity": 0.937007874015748,
                    "duration": 0.05624999999997726
                },
                {
                    "name": "C4",
                    "midi": 60,
                    "time": 533.8604166666811,
                    "velocity": 0.7086614173228346,
                    "duration": 0.06249999999988631
                },
                {
                    "name": "A#3",
                    "midi": 58,
                    "time": 533.8687500000144,
                    "velocity": 0.6771653543307087,
                    "duration": 0.07916666666665151
                },
                {
                    "name": "C#6",
                    "midi": 85,
                    "time": 533.922916666681,
                    "velocity": 0.8267716535433071,
                    "duration": 0.1104166666667652
                },
                {
                    "name": "C6",
                    "midi": 84,
                    "time": 533.9833333333478,
                    "velocity": 0.7637795275590551,
                    "duration": 0.06666666666660603
                },
                {
                    "name": "G#2",
                    "midi": 44,
                    "time": 534.0583333333477,
                    "velocity": 0.9133858267716536,
                    "duration": 0.058333333333393966
                },
                {
                    "name": "C#2",
                    "midi": 37,
                    "time": 534.0645833333477,
                    "velocity": 0.9133858267716536,
                    "duration": 0.06041666666669698
                },
                {
                    "name": "G#5",
                    "midi": 80,
                    "time": 534.1958333333478,
                    "velocity": 0.905511811023622,
                    "duration": 0.08541666666667425
                },
                {
                    "name": "G#4",
                    "midi": 68,
                    "time": 534.2000000000145,
                    "velocity": 0.889763779527559,
                    "duration": 0.04166666666662877
                },
                {
                    "name": "D#5",
                    "midi": 75,
                    "time": 534.2104166666811,
                    "velocity": 0.7480314960629921,
                    "duration": 0.04166666666662877
                },
                {
                    "name": "A#4",
                    "midi": 70,
                    "time": 534.2145833333478,
                    "velocity": 0.6535433070866141,
                    "duration": 0.035416666666606034
                },
                {
                    "name": "F4",
                    "midi": 65,
                    "time": 534.3812500000145,
                    "velocity": 0.84251968503937,
                    "duration": 0.056249999999863576
                },
                {
                    "name": "C#4",
                    "midi": 61,
                    "time": 534.3833333333478,
                    "velocity": 0.84251968503937,
                    "duration": 0.07083333333321207
                },
                {
                    "name": "A#5",
                    "midi": 82,
                    "time": 534.3854166666811,
                    "velocity": 0.9448818897637795,
                    "duration": 0.07291666666662877
                },
                {
                    "name": "A#4",
                    "midi": 70,
                    "time": 534.3875000000144,
                    "velocity": 0.952755905511811,
                    "duration": 0.049999999999954525
                },
                {
                    "name": "A#3",
                    "midi": 58,
                    "time": 534.3895833333477,
                    "velocity": 0.7401574803149606,
                    "duration": 0.08958333333339397
                },
                {
                    "name": "G#3",
                    "midi": 56,
                    "time": 534.404166666681,
                    "velocity": 0.7401574803149606,
                    "duration": 0.0791666666667652
                },
                {
                    "name": "C#6",
                    "midi": 85,
                    "time": 534.5562500000144,
                    "velocity": 0.952755905511811,
                    "duration": 0.06041666666681067
                },
                {
                    "name": "C#5",
                    "midi": 73,
                    "time": 534.5583333333477,
                    "velocity": 1,
                    "duration": 0.052083333333484916
                },
                {
                    "name": "G#5",
                    "midi": 80,
                    "time": 534.5645833333477,
                    "velocity": 0.8661417322834646,
                    "duration": 0.03125000000011369
                },
                {
                    "name": "A#2",
                    "midi": 46,
                    "time": 534.5750000000144,
                    "velocity": 0.8188976377952756,
                    "duration": 0.04791666666687888
                },
                {
                    "name": "C#2",
                    "midi": 37,
                    "time": 534.5791666666811,
                    "velocity": 0.8976377952755905,
                    "duration": 0.027083333333393966
                },
                {
                    "name": "G#2",
                    "midi": 44,
                    "time": 534.5833333333478,
                    "velocity": 0.8110236220472441,
                    "duration": 0.027083333333393966
                },
                {
                    "name": "C#6",
                    "midi": 85,
                    "time": 534.7437500000145,
                    "velocity": 0.937007874015748,
                    "duration": 0.05624999999997726
                },
                {
                    "name": "C#5",
                    "midi": 73,
                    "time": 534.7458333333478,
                    "velocity": 1,
                    "duration": 0.049999999999954525
                },
                {
                    "name": "G#5",
                    "midi": 80,
                    "time": 534.7479166666811,
                    "velocity": 0.952755905511811,
                    "duration": 0.05208333333337123
                },
                {
                    "name": "C#4",
                    "midi": 61,
                    "time": 534.9104166666812,
                    "velocity": 0.8582677165354331,
                    "duration": 0.06249999999988631
                },
                {
                    "name": "F4",
                    "midi": 65,
                    "time": 534.9125000000145,
                    "velocity": 0.84251968503937,
                    "duration": 0.049999999999954525
                },
                {
                    "name": "A#3",
                    "midi": 58,
                    "time": 534.9208333333478,
                    "velocity": 0.7244094488188977,
                    "duration": 0.07916666666653782
                },
                {
                    "name": "G#3",
                    "midi": 56,
                    "time": 534.9229166666811,
                    "velocity": 0.6929133858267716,
                    "duration": 0.08541666666656056
                },
                {
                    "name": "A#2",
                    "midi": 46,
                    "time": 535.1020833333477,
                    "velocity": 0.8818897637795275,
                    "duration": 0.05624999999997726
                },
                {
                    "name": "G#4",
                    "midi": 68,
                    "time": 535.1062500000144,
                    "velocity": 0.968503937007874,
                    "duration": 0.045833333333234805
                },
                {
                    "name": "G#5",
                    "midi": 80,
                    "time": 535.1062500000144,
                    "velocity": 0.937007874015748,
                    "duration": 0.07499999999993179
                },
                {
                    "name": "C#2",
                    "midi": 37,
                    "time": 535.1125000000144,
                    "velocity": 0.8818897637795275,
                    "duration": 0.02708333333328028
                },
                {
                    "name": "C#5",
                    "midi": 73,
                    "time": 535.1125000000144,
                    "velocity": 0.8661417322834646,
                    "duration": 0.03749999999990905
                },
                {
                    "name": "A#5",
                    "midi": 82,
                    "time": 535.279166666681,
                    "velocity": 0.9133858267716536,
                    "duration": 0.07083333333332575
                },
                {
                    "name": "A#4",
                    "midi": 70,
                    "time": 535.2812500000143,
                    "velocity": 0.9763779527559056,
                    "duration": 0.04583333333334849
                },
                {
                    "name": "C#4",
                    "midi": 61,
                    "time": 535.441666666681,
                    "velocity": 0.8661417322834646,
                    "duration": 0.058333333333393966
                },
                {
                    "name": "F4",
                    "midi": 65,
                    "time": 535.4479166666811,
                    "velocity": 0.8031496062992126,
                    "duration": 0.03750000000002274
                },
                {
                    "name": "A#3",
                    "midi": 58,
                    "time": 535.4479166666811,
                    "velocity": 0.7795275590551181,
                    "duration": 0.07708333333334849
                },
                {
                    "name": "G#5",
                    "midi": 80,
                    "time": 535.4541666666811,
                    "velocity": 0.9133858267716536,
                    "duration": 0.06041666666669698
                },
                {
                    "name": "G#3",
                    "midi": 56,
                    "time": 535.4541666666811,
                    "velocity": 0.7244094488188977,
                    "duration": 0.07500000000004547
                },
                {
                    "name": "G#4",
                    "midi": 68,
                    "time": 535.4541666666811,
                    "velocity": 0.968503937007874,
                    "duration": 0.054166666666674246
                },
                {
                    "name": "F5",
                    "midi": 77,
                    "time": 535.6208333333478,
                    "velocity": 0.9291338582677166,
                    "duration": 0.06666666666660603
                },
                {
                    "name": "A#2",
                    "midi": 46,
                    "time": 535.6354166666812,
                    "velocity": 0.8976377952755905,
                    "duration": 0.04791666666665151
                },
                {
                    "name": "B5",
                    "midi": 83,
                    "time": 535.6395833333479,
                    "velocity": 0.8582677165354331,
                    "duration": 0.03958333333321207
                },
                {
                    "name": "B4",
                    "midi": 71,
                    "time": 535.6416666666812,
                    "velocity": 0.84251968503937,
                    "duration": 0.031249999999886313
                },
                {
                    "name": "G#2",
                    "midi": 44,
                    "time": 535.6520833333478,
                    "velocity": 0.6692913385826772,
                    "duration": 0.03333333333330302
                },
                {
                    "name": "C#2",
                    "midi": 37,
                    "time": 535.6541666666811,
                    "velocity": 0.6377952755905512,
                    "duration": 0.03125
                },
                {
                    "name": "C5",
                    "midi": 72,
                    "time": 535.6708333333478,
                    "velocity": 0.2992125984251969,
                    "duration": 0.03750000000002274
                },
                {
                    "name": "C#4",
                    "midi": 61,
                    "time": 536.0062500000145,
                    "velocity": 0.8976377952755905,
                    "duration": 0.06875000000002274
                },
                {
                    "name": "F4",
                    "midi": 65,
                    "time": 536.0083333333478,
                    "velocity": 0.8976377952755905,
                    "duration": 0.054166666666674246
                },
                {
                    "name": "A#3",
                    "midi": 58,
                    "time": 536.0125000000145,
                    "velocity": 0.8267716535433071,
                    "duration": 0.08124999999995453
                },
                {
                    "name": "G#3",
                    "midi": 56,
                    "time": 536.0145833333478,
                    "velocity": 0.8110236220472441,
                    "duration": 0.08541666666667425
                },
                {
                    "name": "A#2",
                    "midi": 46,
                    "time": 536.1895833333477,
                    "velocity": 0.937007874015748,
                    "duration": 0.05624999999997726
                },
                {
                    "name": "C#2",
                    "midi": 37,
                    "time": 536.1979166666811,
                    "velocity": 0.9133858267716536,
                    "duration": 0.024999999999977263
                },
                {
                    "name": "G#2",
                    "midi": 44,
                    "time": 536.2041666666811,
                    "velocity": 0.8267716535433071,
                    "duration": 0.02708333333328028
                },
                {
                    "name": "A#4",
                    "midi": 70,
                    "time": 536.3770833333477,
                    "velocity": 0.905511811023622,
                    "duration": 0.11250000000006821
                },
                {
                    "name": "A#5",
                    "midi": 82,
                    "time": 536.3770833333477,
                    "velocity": 0.84251968503937,
                    "duration": 0.11875000000009095
                },
                {
                    "name": "F5",
                    "midi": 77,
                    "time": 536.3895833333478,
                    "velocity": 0.6850393700787402,
                    "duration": 0.13333333333332575
                },
                {
                    "name": "F4",
                    "midi": 65,
                    "time": 536.5770833333478,
                    "velocity": 0.8582677165354331,
                    "duration": 0.04374999999993179
                },
                {
                    "name": "C#4",
                    "midi": 61,
                    "time": 536.5791666666811,
                    "velocity": 0.8582677165354331,
                    "duration": 0.05624999999997726
                },
                {
                    "name": "A#3",
                    "midi": 58,
                    "time": 536.5833333333478,
                    "velocity": 0.8110236220472441,
                    "duration": 0.07499999999993179
                },
                {
                    "name": "G#3",
                    "midi": 56,
                    "time": 536.5833333333478,
                    "velocity": 0.8267716535433071,
                    "duration": 0.08749999999997726
                },
                {
                    "name": "G#4",
                    "midi": 68,
                    "time": 536.5854166666811,
                    "velocity": 1,
                    "duration": 0.05833333333328028
                },
                {
                    "name": "G#5",
                    "midi": 80,
                    "time": 536.5875000000144,
                    "velocity": 0.9448818897637795,
                    "duration": 0.07916666666665151
                },
                {
                    "name": "G#2",
                    "midi": 44,
                    "time": 536.7666666666811,
                    "velocity": 0.9921259842519685,
                    "duration": 0.05208333333325754
                },
                {
                    "name": "C#2",
                    "midi": 37,
                    "time": 536.7687500000144,
                    "velocity": 0.9448818897637795,
                    "duration": 0.060416666666583296
                },
                {
                    "name": "F#4",
                    "midi": 66,
                    "time": 537.1229166666809,
                    "velocity": 0.9763779527559056,
                    "duration": 0.05208333333325754
                },
                {
                    "name": "C4",
                    "midi": 60,
                    "time": 537.1250000000142,
                    "velocity": 0.8031496062992126,
                    "duration": 0.06458333333330302
                },
                {
                    "name": "A#3",
                    "midi": 58,
                    "time": 537.1354166666808,
                    "velocity": 0.7559055118110236,
                    "duration": 0.09375
                },
                {
                    "name": "A#4",
                    "midi": 70,
                    "time": 537.1354166666808,
                    "velocity": 0.9291338582677166,
                    "duration": 0.1395833333333485
                },
                {
                    "name": "C5",
                    "midi": 72,
                    "time": 537.1375000000141,
                    "velocity": 0.8818897637795275,
                    "duration": 0.2229166666668334
                },
                {
                    "name": "F#5",
                    "midi": 78,
                    "time": 537.1375000000141,
                    "velocity": 0.937007874015748,
                    "duration": 0.1416666666667652
                },
                {
                    "name": "C#2",
                    "midi": 37,
                    "time": 537.3416666666809,
                    "velocity": 0.9133858267716536,
                    "duration": 0.05416666666678793
                },
                {
                    "name": "A#2",
                    "midi": 46,
                    "time": 537.3458333333476,
                    "velocity": 0.889763779527559,
                    "duration": 0.06250000000011369
                },
                {
                    "name": "G#2",
                    "midi": 44,
                    "time": 537.3520833333477,
                    "velocity": 0.7165354330708661,
                    "duration": 0.029166666666696983
                },
                {
                    "name": "F5",
                    "midi": 77,
                    "time": 537.4687500000144,
                    "velocity": 0.8818897637795275,
                    "duration": 0.12083333333339397
                },
                {
                    "name": "G#4",
                    "midi": 68,
                    "time": 537.4750000000145,
                    "velocity": 0.9291338582677166,
                    "duration": 0.0625
                },
                {
                    "name": "F#4",
                    "midi": 66,
                    "time": 537.6895833333479,
                    "velocity": 0.968503937007874,
                    "duration": 0.05000000000006821
                },
                {
                    "name": "F#5",
                    "midi": 78,
                    "time": 537.6937500000146,
                    "velocity": 0.9291338582677166,
                    "duration": 0.10624999999993179
                },
                {
                    "name": "A#4",
                    "midi": 70,
                    "time": 537.6937500000146,
                    "velocity": 0.952755905511811,
                    "duration": 0.0625
                },
                {
                    "name": "C4",
                    "midi": 60,
                    "time": 537.6958333333479,
                    "velocity": 0.7874015748031497,
                    "duration": 0.06875000000002274
                },
                {
                    "name": "A#3",
                    "midi": 58,
                    "time": 537.7062500000145,
                    "velocity": 0.7637795275590551,
                    "duration": 0.08333333333337123
                },
                {
                    "name": "A4",
                    "midi": 69,
                    "time": 537.7187500000146,
                    "velocity": 0.5748031496062992,
                    "duration": 0.05208333333337123
                },
                {
                    "name": "G#2",
                    "midi": 44,
                    "time": 537.8979166666812,
                    "velocity": 0.937007874015748,
                    "duration": 0.058333333333393966
                },
                {
                    "name": "C#2",
                    "midi": 37,
                    "time": 537.9041666666812,
                    "velocity": 0.937007874015748,
                    "duration": 0.06041666666669698
                },
                {
                    "name": "D#5",
                    "midi": 75,
                    "time": 537.9187500000146,
                    "velocity": 0.9133858267716536,
                    "duration": 0.3500000000001364
                },
                {
                    "name": "F#4",
                    "midi": 66,
                    "time": 537.9229166666813,
                    "velocity": 0.984251968503937,
                    "duration": 0.1750000000000682
                },
                {
                    "name": "D#4",
                    "midi": 63,
                    "time": 538.2729166666815,
                    "velocity": 0.952755905511811,
                    "duration": 0.060416666666583296
                },
                {
                    "name": "C4",
                    "midi": 60,
                    "time": 538.2833333333481,
                    "velocity": 0.8031496062992126,
                    "duration": 0.04791666666665151
                },
                {
                    "name": "A#3",
                    "midi": 58,
                    "time": 538.2854166666814,
                    "velocity": 0.7874015748031497,
                    "duration": 0.07291666666662877
                },
                {
                    "name": "F#3",
                    "midi": 54,
                    "time": 538.2937500000147,
                    "velocity": 0.7716535433070866,
                    "duration": 0.07499999999993179
                },
                {
                    "name": "G#2",
                    "midi": 44,
                    "time": 538.4666666666814,
                    "velocity": 0.8346456692913385,
                    "duration": 0.027083333333393966
                },
                {
                    "name": "C#2",
                    "midi": 37,
                    "time": 538.4729166666814,
                    "velocity": 0.8267716535433071,
                    "duration": 0.03750000000002274
                },
                {
                    "name": "G#5",
                    "midi": 80,
                    "time": 538.6625000000147,
                    "velocity": 0.937007874015748,
                    "duration": 0.09791666666671972
                },
                {
                    "name": "C6",
                    "midi": 84,
                    "time": 538.7895833333481,
                    "velocity": 0.7637795275590551,
                    "duration": 0.10416666666662877
                },
                {
                    "name": "D#4",
                    "midi": 63,
                    "time": 538.8291666666814,
                    "velocity": 0.905511811023622,
                    "duration": 0.06875000000002274
                },
                {
                    "name": "A#3",
                    "midi": 58,
                    "time": 538.8354166666815,
                    "velocity": 0.7007874015748031,
                    "duration": 0.07916666666665151
                },
                {
                    "name": "C4",
                    "midi": 60,
                    "time": 538.8375000000148,
                    "velocity": 0.7322834645669292,
                    "duration": 0.07083333333332575
                },
                {
                    "name": "F#3",
                    "midi": 54,
                    "time": 538.8437500000148,
                    "velocity": 0.7086614173228346,
                    "duration": 0.09791666666660603
                },
                {
                    "name": "D#6",
                    "midi": 87,
                    "time": 538.8458333333481,
                    "velocity": 0.8818897637795275,
                    "duration": 0.10208333333332575
                },
                {
                    "name": "D#6",
                    "midi": 87,
                    "time": 539.0395833333481,
                    "velocity": 0.905511811023622,
                    "duration": 0.07708333333334849
                },
                {
                    "name": "C#2",
                    "midi": 37,
                    "time": 539.0416666666814,
                    "velocity": 0.9448818897637795,
                    "duration": 0.06041666666669698
                },
                {
                    "name": "D#6",
                    "midi": 87,
                    "time": 539.2104166666815,
                    "velocity": 0.905511811023622,
                    "duration": 0.08333333333337123
                },
                {
                    "name": "D#6",
                    "midi": 87,
                    "time": 539.3937500000148,
                    "velocity": 0.9133858267716536,
                    "duration": 0.24166666666644687
                },
                {
                    "name": "F#4",
                    "midi": 66,
                    "time": 539.3958333333482,
                    "velocity": 1,
                    "duration": 0.05624999999997726
                },
                {
                    "name": "C4",
                    "midi": 60,
                    "time": 539.4020833333482,
                    "velocity": 0.84251968503937,
                    "duration": 0.05833333333328028
                },
                {
                    "name": "A#3",
                    "midi": 58,
                    "time": 539.4020833333482,
                    "velocity": 0.84251968503937,
                    "duration": 0.09999999999990905
                },
                {
                    "name": "F#6",
                    "midi": 90,
                    "time": 539.5916666666814,
                    "velocity": 0.7322834645669292,
                    "duration": 0.1270833333334167
                },
                {
                    "name": "A#2",
                    "midi": 46,
                    "time": 539.608333333348,
                    "velocity": 0.8818897637795275,
                    "duration": 0.05624999999997726
                },
                {
                    "name": "C#2",
                    "midi": 37,
                    "time": 539.6104166666813,
                    "velocity": 0.937007874015748,
                    "duration": 0.05208333333337123
                },
                {
                    "name": "G#2",
                    "midi": 44,
                    "time": 539.627083333348,
                    "velocity": 0.6850393700787402,
                    "duration": 0.03125
                },
                {
                    "name": "F6",
                    "midi": 89,
                    "time": 539.6854166666814,
                    "velocity": 0.7322834645669292,
                    "duration": 0.16458333333343944
                },
                {
                    "name": "G6",
                    "midi": 91,
                    "time": 539.7062500000147,
                    "velocity": 0.5511811023622047,
                    "duration": 0.047916666666765195
                },
                {
                    "name": "D#6",
                    "midi": 87,
                    "time": 539.7729166666815,
                    "velocity": 0.8582677165354331,
                    "duration": 0.1687499999999318
                },
                {
                    "name": "C#6",
                    "midi": 85,
                    "time": 539.8604166666814,
                    "velocity": 0.84251968503937,
                    "duration": 0.13541666666674246
                },
                {
                    "name": "C4",
                    "midi": 60,
                    "time": 539.9479166666814,
                    "velocity": 0.8031496062992126,
                    "duration": 0.08750000000009095
                },
                {
                    "name": "C6",
                    "midi": 84,
                    "time": 539.9479166666814,
                    "velocity": 0.84251968503937,
                    "duration": 0.06666666666671972
                },
                {
                    "name": "F#4",
                    "midi": 66,
                    "time": 539.9500000000147,
                    "velocity": 0.9448818897637795,
                    "duration": 0.07083333333343944
                },
                {
                    "name": "A#3",
                    "midi": 58,
                    "time": 539.9541666666814,
                    "velocity": 0.7322834645669292,
                    "duration": 0.1729166666667652
                },
                {
                    "name": "G4",
                    "midi": 67,
                    "time": 539.9895833333482,
                    "velocity": 0.3228346456692913,
                    "duration": 0.04166666666662877
                },
                {
                    "name": "G#3",
                    "midi": 56,
                    "time": 540.1958333333482,
                    "velocity": 0.937007874015748,
                    "duration": 0.314583333333303
                },
                {
                    "name": "F4",
                    "midi": 65,
                    "time": 540.3625000000148,
                    "velocity": 0.6456692913385826,
                    "duration": 0.09375
                },
                {
                    "name": "A#3",
                    "midi": 58,
                    "time": 540.4520833333481,
                    "velocity": 0.7795275590551181,
                    "duration": 0.19791666666674246
                },
                {
                    "name": "G#4",
                    "midi": 68,
                    "time": 540.4791666666815,
                    "velocity": 0.7401574803149606,
                    "duration": 0.10625000000004547
                },
                {
                    "name": "C#5",
                    "midi": 73,
                    "time": 540.4875000000148,
                    "velocity": 0.7637795275590551,
                    "duration": 0.08333333333337123
                },
                {
                    "name": "F4",
                    "midi": 65,
                    "time": 540.5562500000149,
                    "velocity": 0.5748031496062992,
                    "duration": 0.09166666666669698
                },
                {
                    "name": "C#4",
                    "midi": 61,
                    "time": 540.6354166666815,
                    "velocity": 0.968503937007874,
                    "duration": 0.11458333333337123
                },
                {
                    "name": "C#5",
                    "midi": 73,
                    "time": 540.6520833333482,
                    "velocity": 0.7952755905511811,
                    "duration": 0.09791666666671972
                },
                {
                    "name": "G#4",
                    "midi": 68,
                    "time": 540.6562500000149,
                    "velocity": 0.6377952755905512,
                    "duration": 0.10416666666662877
                },
                {
                    "name": "F4",
                    "midi": 65,
                    "time": 540.7208333333482,
                    "velocity": 0.6299212598425197,
                    "duration": 0.09583333333330302
                },
                {
                    "name": "C#5",
                    "midi": 73,
                    "time": 540.8187500000148,
                    "velocity": 0.7401574803149606,
                    "duration": 0.08958333333328028
                },
                {
                    "name": "C#4",
                    "midi": 61,
                    "time": 540.8208333333481,
                    "velocity": 0.8976377952755905,
                    "duration": 0.3562499999999318
                },
                {
                    "name": "G#4",
                    "midi": 68,
                    "time": 540.8229166666814,
                    "velocity": 0.6220472440944882,
                    "duration": 0.10000000000002274
                },
                {
                    "name": "F4",
                    "midi": 65,
                    "time": 540.8854166666814,
                    "velocity": 0.6062992125984252,
                    "duration": 0.10416666666662877
                },
                {
                    "name": "G#4",
                    "midi": 68,
                    "time": 540.9875000000147,
                    "velocity": 0.5669291338582677,
                    "duration": 0.10416666666662877
                },
                {
                    "name": "C#5",
                    "midi": 73,
                    "time": 540.9875000000147,
                    "velocity": 0.6929133858267716,
                    "duration": 0.0916666666665833
                },
                {
                    "name": "F4",
                    "midi": 65,
                    "time": 541.0604166666814,
                    "velocity": 0.6377952755905512,
                    "duration": 0.11458333333337123
                },
                {
                    "name": "C#5",
                    "midi": 73,
                    "time": 541.1604166666814,
                    "velocity": 0.6456692913385826,
                    "duration": 0.09791666666660603
                },
                {
                    "name": "G#4",
                    "midi": 68,
                    "time": 541.1625000000147,
                    "velocity": 0.5196850393700787,
                    "duration": 0.08541666666667425
                },
                {
                    "name": "G#3",
                    "midi": 56,
                    "time": 541.2104166666813,
                    "velocity": 0.9133858267716536,
                    "duration": 0.1875
                },
                {
                    "name": "F4",
                    "midi": 65,
                    "time": 541.2979166666813,
                    "velocity": 0.7322834645669292,
                    "duration": 0.09375
                },
                {
                    "name": "A#3",
                    "midi": 58,
                    "time": 541.3729166666814,
                    "velocity": 0.8188976377952756,
                    "duration": 0.18124999999997726
                },
                {
                    "name": "C#5",
                    "midi": 73,
                    "time": 541.3729166666814,
                    "velocity": 0.7559055118110236,
                    "duration": 0.0916666666665833
                },
                {
                    "name": "G#4",
                    "midi": 68,
                    "time": 541.3729166666814,
                    "velocity": 0.5984251968503937,
                    "duration": 0.08541666666656056
                },
                {
                    "name": "F4",
                    "midi": 65,
                    "time": 541.4479166666813,
                    "velocity": 0.6614173228346457,
                    "duration": 0.09791666666671972
                },
                {
                    "name": "G#4",
                    "midi": 68,
                    "time": 541.533333333348,
                    "velocity": 0.6929133858267716,
                    "duration": 0.10000000000002274
                },
                {
                    "name": "C#5",
                    "midi": 73,
                    "time": 541.5375000000147,
                    "velocity": 0.7480314960629921,
                    "duration": 0.08958333333328028
                },
                {
                    "name": "G#3",
                    "midi": 56,
                    "time": 541.5437500000147,
                    "velocity": 0.8503937007874016,
                    "duration": 0.1875
                },
                {
                    "name": "F4",
                    "midi": 65,
                    "time": 541.6125000000146,
                    "velocity": 0.5590551181102362,
                    "duration": 0.0645833333334167
                },
                {
                    "name": "B3",
                    "midi": 59,
                    "time": 541.702083333348,
                    "velocity": 0.9448818897637795,
                    "duration": 0.7250000000001364
                },
                {
                    "name": "F4",
                    "midi": 65,
                    "time": 541.7833333333481,
                    "velocity": 0.8110236220472441,
                    "duration": 0.09166666666669698
                },
                {
                    "name": "G#4",
                    "midi": 68,
                    "time": 541.8666666666815,
                    "velocity": 0.7716535433070866,
                    "duration": 0.10208333333332575
                },
                {
                    "name": "D5",
                    "midi": 74,
                    "time": 541.8812500000148,
                    "velocity": 0.7401574803149606,
                    "duration": 0.07708333333334849
                },
                {
                    "name": "F4",
                    "midi": 65,
                    "time": 541.9416666666815,
                    "velocity": 0.6692913385826772,
                    "duration": 0.08958333333328028
                },
                {
                    "name": "D5",
                    "midi": 74,
                    "time": 542.0333333333481,
                    "velocity": 0.8188976377952756,
                    "duration": 0.08125000000006821
                },
                {
                    "name": "G#4",
                    "midi": 68,
                    "time": 542.0375000000148,
                    "velocity": 0.6929133858267716,
                    "duration": 0.10416666666662877
                },
                {
                    "name": "F4",
                    "midi": 65,
                    "time": 542.1020833333481,
                    "velocity": 0.6692913385826772,
                    "duration": 0.08749999999997726
                },
                {
                    "name": "D5",
                    "midi": 74,
                    "time": 542.2020833333481,
                    "velocity": 0.8110236220472441,
                    "duration": 0.13750000000004547
                },
                {
                    "name": "G#4",
                    "midi": 68,
                    "time": 542.2083333333482,
                    "velocity": 0.5984251968503937,
                    "duration": 0.10208333333332575
                },
                {
                    "name": "F4",
                    "midi": 65,
                    "time": 542.2562500000148,
                    "velocity": 0.7559055118110236,
                    "duration": 0.10416666666674246
                },
                {
                    "name": "A#3",
                    "midi": 58,
                    "time": 542.3854166666815,
                    "velocity": 0.984251968503937,
                    "duration": 0.22291666666671972
                },
                {
                    "name": "F4",
                    "midi": 65,
                    "time": 542.4645833333482,
                    "velocity": 0.8503937007874016,
                    "duration": 0.08541666666667425
                },
                {
                    "name": "G#4",
                    "midi": 68,
                    "time": 542.5583333333482,
                    "velocity": 0.84251968503937,
                    "duration": 0.10208333333343944
                },
                {
                    "name": "D#5",
                    "midi": 75,
                    "time": 542.5645833333482,
                    "velocity": 0.889763779527559,
                    "duration": 0.08958333333339397
                },
                {
                    "name": "G#3",
                    "midi": 56,
                    "time": 542.5666666666815,
                    "velocity": 0.905511811023622,
                    "duration": 0.32083333333343944
                },
                {
                    "name": "F4",
                    "midi": 65,
                    "time": 542.6416666666815,
                    "velocity": 0.7322834645669292,
                    "duration": 0.0791666666667652
                },
                {
                    "name": "D#5",
                    "midi": 75,
                    "time": 542.7312500000149,
                    "velocity": 0.7952755905511811,
                    "duration": 0.08124999999995453
                },
                {
                    "name": "G#4",
                    "midi": 68,
                    "time": 542.737500000015,
                    "velocity": 0.6850393700787402,
                    "duration": 0.10208333333321207
                },
                {
                    "name": "F4",
                    "midi": 65,
                    "time": 542.7937500000149,
                    "velocity": 0.6141732283464567,
                    "duration": 0.08958333333328028
                },
                {
                    "name": "D#5",
                    "midi": 75,
                    "time": 542.8916666666817,
                    "velocity": 0.7795275590551181,
                    "duration": 0.13541666666674246
                },
                {
                    "name": "G#4",
                    "midi": 68,
                    "time": 542.8979166666817,
                    "velocity": 0.5669291338582677,
                    "duration": 0.08541666666667425
                },
                {
                    "name": "F4",
                    "midi": 65,
                    "time": 542.943750000015,
                    "velocity": 0.7007874015748031,
                    "duration": 0.07708333333334849
                },
                {
                    "name": "B3",
                    "midi": 59,
                    "time": 543.0645833333484,
                    "velocity": 0.952755905511811,
                    "duration": 0.22916666666674246
                },
                {
                    "name": "G#4",
                    "midi": 68,
                    "time": 543.137500000015,
                    "velocity": 0.6929133858267716,
                    "duration": 0.10625000000004547
                },
                {
                    "name": "B4",
                    "midi": 71,
                    "time": 543.2395833333484,
                    "velocity": 0.6614173228346457,
                    "duration": 0.10416666666674246
                },
                {
                    "name": "E5",
                    "midi": 76,
                    "time": 543.2583333333484,
                    "velocity": 0.6614173228346457,
                    "duration": 0.07916666666665151
                },
                {
                    "name": "C#4",
                    "midi": 61,
                    "time": 543.2583333333484,
                    "velocity": 0.9291338582677166,
                    "duration": 0.22708333333321207
                },
                {
                    "name": "G#4",
                    "midi": 68,
                    "time": 543.3104166666818,
                    "velocity": 0.6850393700787402,
                    "duration": 0.09375
                },
                {
                    "name": "B4",
                    "midi": 71,
                    "time": 543.4062500000151,
                    "velocity": 0.6377952755905512,
                    "duration": 0.11666666666644687
                },
                {
                    "name": "E5",
                    "midi": 76,
                    "time": 543.4166666666817,
                    "velocity": 0.6220472440944882,
                    "duration": 0.07916666666653782
                },
                {
                    "name": "E4",
                    "midi": 64,
                    "time": 543.4333333333484,
                    "velocity": 0.952755905511811,
                    "duration": 0.11249999999984084
                },
                {
                    "name": "G#4",
                    "midi": 68,
                    "time": 543.475000000015,
                    "velocity": 0.6220472440944882,
                    "duration": 0.09791666666649235
                },
                {
                    "name": "B4",
                    "midi": 71,
                    "time": 543.5791666666815,
                    "velocity": 0.5905511811023622,
                    "duration": 0.10833333333334849
                },
                {
                    "name": "E5",
                    "midi": 76,
                    "time": 543.5875000000149,
                    "velocity": 0.6220472440944882,
                    "duration": 0.07916666666665151
                },
                {
                    "name": "E4",
                    "midi": 64,
                    "time": 543.6020833333482,
                    "velocity": 0.889763779527559,
                    "duration": 0.2854166666667197
                },
                {
                    "name": "G#4",
                    "midi": 68,
                    "time": 543.6437500000148,
                    "velocity": 0.6377952755905512,
                    "duration": 0.10833333333334849
                },
                {
                    "name": "B4",
                    "midi": 71,
                    "time": 543.7500000000149,
                    "velocity": 0.5748031496062992,
                    "duration": 0.1270833333334167
                },
                {
                    "name": "E5",
                    "midi": 76,
                    "time": 543.7604166666815,
                    "velocity": 0.6456692913385826,
                    "duration": 0.08750000000009095
                },
                {
                    "name": "G#4",
                    "midi": 68,
                    "time": 543.8270833333482,
                    "velocity": 0.6929133858267716,
                    "duration": 0.11458333333337123
                },
                {
                    "name": "B4",
                    "midi": 71,
                    "time": 543.9437500000149,
                    "velocity": 0.49606299212598426,
                    "duration": 0.10625000000004547
                },
                {
                    "name": "B3",
                    "midi": 59,
                    "time": 543.9479166666816,
                    "velocity": 0.9212598425196851,
                    "duration": 0.21458333333328028
                },
                {
                    "name": "E5",
                    "midi": 76,
                    "time": 543.9541666666817,
                    "velocity": 0.5275590551181102,
                    "duration": 0.0625
                },
                {
                    "name": "G#4",
                    "midi": 68,
                    "time": 544.0104166666816,
                    "velocity": 0.6535433070866141,
                    "duration": 0.10208333333332575
                },
                {
                    "name": "C#4",
                    "midi": 61,
                    "time": 544.112500000015,
                    "velocity": 0.9133858267716536,
                    "duration": 0.10624999999993179
                },
                {
                    "name": "B4",
                    "midi": 71,
                    "time": 544.1145833333483,
                    "velocity": 0.5354330708661418,
                    "duration": 0.10833333333334849
                },
                {
                    "name": "E5",
                    "midi": 76,
                    "time": 544.1229166666816,
                    "velocity": 0.5748031496062992,
                    "duration": 0.07291666666662877
                },
                {
                    "name": "G#4",
                    "midi": 68,
                    "time": 544.1812500000149,
                    "velocity": 0.6929133858267716,
                    "duration": 0.0958333333334167
                },
                {
                    "name": "B3",
                    "midi": 59,
                    "time": 544.2666666666817,
                    "velocity": 0.889763779527559,
                    "duration": 0.12916666666671972
                },
                {
                    "name": "B4",
                    "midi": 71,
                    "time": 544.281250000015,
                    "velocity": 0.5590551181102362,
                    "duration": 0.11041666666665151
                },
                {
                    "name": "E5",
                    "midi": 76,
                    "time": 544.2854166666816,
                    "velocity": 0.7086614173228346,
                    "duration": 0.10208333333332575
                },
                {
                    "name": "G#4",
                    "midi": 68,
                    "time": 544.3437500000149,
                    "velocity": 0.6692913385826772,
                    "duration": 0.08958333333339397
                },
                {
                    "name": "D4",
                    "midi": 62,
                    "time": 544.4229166666817,
                    "velocity": 0.9763779527559056,
                    "duration": 0.33333333333314386
                },
                {
                    "name": "G#4",
                    "midi": 68,
                    "time": 544.5104166666816,
                    "velocity": 0.8110236220472441,
                    "duration": 0.08124999999995453
                },
                {
                    "name": "B4",
                    "midi": 71,
                    "time": 544.6020833333482,
                    "velocity": 0.5275590551181102,
                    "duration": 0.11249999999995453
                },
                {
                    "name": "F5",
                    "midi": 77,
                    "time": 544.6104166666815,
                    "velocity": 0.7559055118110236,
                    "duration": 0.08749999999997726
                },
                {
                    "name": "G#4",
                    "midi": 68,
                    "time": 544.6812500000149,
                    "velocity": 0.7795275590551181,
                    "duration": 0.08541666666656056
                },
                {
                    "name": "B4",
                    "midi": 71,
                    "time": 544.7729166666815,
                    "velocity": 0.6062992125984252,
                    "duration": 0.11666666666667425
                },
                {
                    "name": "F5",
                    "midi": 77,
                    "time": 544.7750000000148,
                    "velocity": 0.6220472440944882,
                    "duration": 0.07500000000004547
                },
                {
                    "name": "G#4",
                    "midi": 68,
                    "time": 544.8437500000148,
                    "velocity": 0.7007874015748031,
                    "duration": 0.07916666666665151
                },
                {
                    "name": "F5",
                    "midi": 77,
                    "time": 544.9375000000148,
                    "velocity": 0.7401574803149606,
                    "duration": 0.10416666666662877
                },
                {
                    "name": "B4",
                    "midi": 71,
                    "time": 544.9500000000148,
                    "velocity": 0.5275590551181102,
                    "duration": 0.11249999999995453
                },
                {
                    "name": "G#4",
                    "midi": 68,
                    "time": 544.9916666666815,
                    "velocity": 0.6456692913385826,
                    "duration": 0.11875000000009095
                },
                {
                    "name": "C#4",
                    "midi": 61,
                    "time": 545.1166666666816,
                    "velocity": 0.9763779527559056,
                    "duration": 0.21666666666681067
                },
                {
                    "name": "G#4",
                    "midi": 68,
                    "time": 545.2229166666816,
                    "velocity": 0.8110236220472441,
                    "duration": 0.0958333333334167
                },
                {
                    "name": "F#5",
                    "midi": 78,
                    "time": 545.3020833333483,
                    "velocity": 0.8818897637795275,
                    "duration": 0.11458333333337123
                },
                {
                    "name": "B4",
                    "midi": 71,
                    "time": 545.3145833333483,
                    "velocity": 0.6614173228346457,
                    "duration": 0.13750000000004547
                },
                {
                    "name": "B3",
                    "midi": 59,
                    "time": 545.325000000015,
                    "velocity": 0.9133858267716536,
                    "duration": 0.23125000000004547
                },
                {
                    "name": "G#4",
                    "midi": 68,
                    "time": 545.3895833333484,
                    "velocity": 0.7244094488188977,
                    "duration": 0.10208333333343944
                },
                {
                    "name": "F#5",
                    "midi": 78,
                    "time": 545.4937500000151,
                    "velocity": 0.7086614173228346,
                    "duration": 0.09583333333330302
                },
                {
                    "name": "B4",
                    "midi": 71,
                    "time": 545.5020833333484,
                    "velocity": 0.7165354330708661,
                    "duration": 0.1374999999999318
                },
                {
                    "name": "G#4",
                    "midi": 68,
                    "time": 545.5833333333484,
                    "velocity": 0.7322834645669292,
                    "duration": 0.1395833333333485
                },
                {
                    "name": "F#5",
                    "midi": 78,
                    "time": 545.668750000015,
                    "velocity": 0.6929133858267716,
                    "duration": 0.09375
                },
                {
                    "name": "B4",
                    "midi": 71,
                    "time": 545.668750000015,
                    "velocity": 0.3779527559055118,
                    "duration": 0.054166666666674246
                },
                {
                    "name": "G2",
                    "midi": 43,
                    "time": 545.7729166666817,
                    "velocity": 0.9763779527559056,
                    "duration": 0.21041666666667425
                },
                {
                    "name": "B5",
                    "midi": 83,
                    "time": 546.0541666666817,
                    "velocity": 0.7952755905511811,
                    "duration": 0.06458333333330302
                },
                {
                    "name": "D5",
                    "midi": 74,
                    "time": 546.056250000015,
                    "velocity": 0.9133858267716536,
                    "duration": 0.03125
                },
                {
                    "name": "G5",
                    "midi": 79,
                    "time": 546.0604166666817,
                    "velocity": 0.7007874015748031,
                    "duration": 0.035416666666606034
                },
                {
                    "name": "D6",
                    "midi": 86,
                    "time": 546.062500000015,
                    "velocity": 0.7637795275590551,
                    "duration": 0.06458333333330302
                },
                {
                    "name": "B3",
                    "midi": 59,
                    "time": 546.062500000015,
                    "velocity": 0.8976377952755905,
                    "duration": 0.08958333333328028
                },
                {
                    "name": "B5",
                    "midi": 83,
                    "time": 546.3645833333483,
                    "velocity": 0.8740157480314961,
                    "duration": 0.06666666666660603
                },
                {
                    "name": "A2",
                    "midi": 45,
                    "time": 546.3666666666816,
                    "velocity": 0.9133858267716536,
                    "duration": 0.08541666666667425
                },
                {
                    "name": "E5",
                    "midi": 76,
                    "time": 546.3729166666816,
                    "velocity": 0.7716535433070866,
                    "duration": 0.039583333333325754
                },
                {
                    "name": "E6",
                    "midi": 88,
                    "time": 546.3791666666816,
                    "velocity": 0.7637795275590551,
                    "duration": 0.05208333333325754
                },
                {
                    "name": "F5",
                    "midi": 77,
                    "time": 546.4041666666816,
                    "velocity": 0.30708661417322836,
                    "duration": 0.039583333333325754
                },
                {
                    "name": "C4",
                    "midi": 60,
                    "time": 546.6062500000149,
                    "velocity": 0.8188976377952756,
                    "duration": 0.06875000000002274
                },
                {
                    "name": "G6",
                    "midi": 91,
                    "time": 546.612500000015,
                    "velocity": 0.9133858267716536,
                    "duration": 0.06458333333330302
                },
                {
                    "name": "G5",
                    "midi": 79,
                    "time": 546.6145833333483,
                    "velocity": 0.8976377952755905,
                    "duration": 0.04791666666665151
                },
                {
                    "name": "D6",
                    "midi": 86,
                    "time": 546.6166666666816,
                    "velocity": 0.889763779527559,
                    "duration": 0.04583333333334849
                },
                {
                    "name": "B2",
                    "midi": 47,
                    "time": 546.8166666666816,
                    "velocity": 0.9212598425196851,
                    "duration": 0.09791666666671972
                },
                {
                    "name": "G6",
                    "midi": 91,
                    "time": 546.8208333333483,
                    "velocity": 0.9133858267716536,
                    "duration": 0.06458333333330302
                },
                {
                    "name": "D6",
                    "midi": 86,
                    "time": 546.8208333333483,
                    "velocity": 0.9291338582677166,
                    "duration": 0.05208333333337123
                },
                {
                    "name": "G5",
                    "midi": 79,
                    "time": 546.8229166666816,
                    "velocity": 0.9133858267716536,
                    "duration": 0.05208333333337123
                },
                {
                    "name": "D4",
                    "midi": 62,
                    "time": 547.0145833333484,
                    "velocity": 0.7637795275590551,
                    "duration": 0.06458333333330302
                },
                {
                    "name": "E4",
                    "midi": 64,
                    "time": 547.0270833333484,
                    "velocity": 0.5118110236220472,
                    "duration": 0.049999999999954525
                },
                {
                    "name": "D6",
                    "midi": 86,
                    "time": 547.175000000015,
                    "velocity": 0.8818897637795275,
                    "duration": 0.06666666666671972
                },
                {
                    "name": "D5",
                    "midi": 74,
                    "time": 547.1770833333483,
                    "velocity": 0.8976377952755905,
                    "duration": 0.06041666666669698
                },
                {
                    "name": "B5",
                    "midi": 83,
                    "time": 547.181250000015,
                    "velocity": 0.7716535433070866,
                    "duration": 0.05624999999997726
                },
                {
                    "name": "G2",
                    "midi": 43,
                    "time": 547.1833333333483,
                    "velocity": 0.7007874015748031,
                    "duration": 0.0645833333334167
                },
                {
                    "name": "B3",
                    "midi": 59,
                    "time": 547.3395833333484,
                    "velocity": 0.8110236220472441,
                    "duration": 0.07916666666665151
                },
                {
                    "name": "E6",
                    "midi": 88,
                    "time": 547.3416666666817,
                    "velocity": 0.889763779527559,
                    "duration": 0.054166666666674246
                },
                {
                    "name": "E5",
                    "midi": 76,
                    "time": 547.3416666666817,
                    "velocity": 0.8976377952755905,
                    "duration": 0.05208333333337123
                },
                {
                    "name": "B5",
                    "midi": 83,
                    "time": 547.3479166666817,
                    "velocity": 0.8346456692913385,
                    "duration": 0.05624999999997726
                },
                {
                    "name": "A2",
                    "midi": 45,
                    "time": 547.4979166666817,
                    "velocity": 0.9212598425196851,
                    "duration": 0.11875000000009095
                },
                {
                    "name": "D6",
                    "midi": 86,
                    "time": 547.500000000015,
                    "velocity": 0.8110236220472441,
                    "duration": 0.0812500000001819
                },
                {
                    "name": "D5",
                    "midi": 74,
                    "time": 547.506250000015,
                    "velocity": 0.8503937007874016,
                    "duration": 0.052083333333484916
                },
                {
                    "name": "C6",
                    "midi": 84,
                    "time": 547.5187500000151,
                    "velocity": 0.6456692913385826,
                    "duration": 0.03541666666671972
                },
                {
                    "name": "F6",
                    "midi": 89,
                    "time": 547.6854166666818,
                    "velocity": 0.984251968503937,
                    "duration": 0.0958333333334167
                },
                {
                    "name": "F5",
                    "midi": 77,
                    "time": 547.6875000000151,
                    "velocity": 0.9133858267716536,
                    "duration": 0.05208333333337123
                },
                {
                    "name": "B5",
                    "midi": 83,
                    "time": 547.6875000000151,
                    "velocity": 0.9212598425196851,
                    "duration": 0.058333333333393966
                },
                {
                    "name": "G5",
                    "midi": 79,
                    "time": 547.6937500000151,
                    "velocity": 0.9133858267716536,
                    "duration": 0.03125
                },
                {
                    "name": "C4",
                    "midi": 60,
                    "time": 547.6958333333484,
                    "velocity": 0.9133858267716536,
                    "duration": 0.08125000000006821
                },
                {
                    "name": "B2",
                    "midi": 47,
                    "time": 547.8437500000152,
                    "velocity": 0.9212598425196851,
                    "duration": 0.09166666666669698
                },
                {
                    "name": "D4",
                    "midi": 62,
                    "time": 548.0291666666819,
                    "velocity": 0.9291338582677166,
                    "duration": 0.07708333333334849
                },
                {
                    "name": "G2",
                    "midi": 43,
                    "time": 548.1812500000153,
                    "velocity": 0.9291338582677166,
                    "duration": 0.08958333333328028
                },
                {
                    "name": "G5",
                    "midi": 79,
                    "time": 548.3562500000153,
                    "velocity": 0.7952755905511811,
                    "duration": 0.08749999999986358
                },
                {
                    "name": "E5",
                    "midi": 76,
                    "time": 548.3583333333486,
                    "velocity": 0.8503937007874016,
                    "duration": 0.06666666666660603
                },
                {
                    "name": "B3",
                    "midi": 59,
                    "time": 548.3583333333486,
                    "velocity": 0.9212598425196851,
                    "duration": 0.08333333333325754
                },
                {
                    "name": "E6",
                    "midi": 88,
                    "time": 548.3583333333486,
                    "velocity": 0.7874015748031497,
                    "duration": 0.09583333333318933
                },
                {
                    "name": "B5",
                    "midi": 83,
                    "time": 548.3604166666819,
                    "velocity": 0.7322834645669292,
                    "duration": 0.09791666666660603
                },
                {
                    "name": "A2",
                    "midi": 45,
                    "time": 548.5125000000152,
                    "velocity": 0.9291338582677166,
                    "duration": 0.09791666666660603
                },
                {
                    "name": "D6",
                    "midi": 86,
                    "time": 548.5270833333485,
                    "velocity": 0.7952755905511811,
                    "duration": 0.23749999999995453
                },
                {
                    "name": "B5",
                    "midi": 83,
                    "time": 548.5291666666818,
                    "velocity": 0.6377952755905512,
                    "duration": 0.23749999999995453
                },
                {
                    "name": "D5",
                    "midi": 74,
                    "time": 548.5312500000151,
                    "velocity": 0.8503937007874016,
                    "duration": 0.20833333333337123
                },
                {
                    "name": "G5",
                    "midi": 79,
                    "time": 548.5333333333484,
                    "velocity": 0.7795275590551181,
                    "duration": 0.22500000000002274
                },
                {
                    "name": "C4",
                    "midi": 60,
                    "time": 548.6937500000151,
                    "velocity": 0.9133858267716536,
                    "duration": 0.07916666666665151
                },
                {
                    "name": "B2",
                    "midi": 47,
                    "time": 548.8270833333485,
                    "velocity": 0.9212598425196851,
                    "duration": 0.08958333333328028
                },
                {
                    "name": "D6",
                    "midi": 86,
                    "time": 549.0187500000151,
                    "velocity": 0.8976377952755905,
                    "duration": 0.08749999999997726
                },
                {
                    "name": "D5",
                    "midi": 74,
                    "time": 549.0187500000151,
                    "velocity": 0.9291338582677166,
                    "duration": 0.05624999999997726
                },
                {
                    "name": "G5",
                    "midi": 79,
                    "time": 549.0229166666818,
                    "velocity": 0.8188976377952756,
                    "duration": 0.06249999999988631
                },
                {
                    "name": "B5",
                    "midi": 83,
                    "time": 549.0229166666818,
                    "velocity": 0.7637795275590551,
                    "duration": 0.0770833333332348
                },
                {
                    "name": "D4",
                    "midi": 62,
                    "time": 549.0250000000151,
                    "velocity": 0.8031496062992126,
                    "duration": 0.05833333333328028
                },
                {
                    "name": "G2",
                    "midi": 43,
                    "time": 549.1750000000151,
                    "velocity": 0.9291338582677166,
                    "duration": 0.08749999999997726
                },
                {
                    "name": "E5",
                    "midi": 76,
                    "time": 549.1750000000151,
                    "velocity": 0.84251968503937,
                    "duration": 0.0625
                },
                {
                    "name": "E6",
                    "midi": 88,
                    "time": 549.1750000000151,
                    "velocity": 0.889763779527559,
                    "duration": 0.07083333333332575
                },
                {
                    "name": "F5",
                    "midi": 77,
                    "time": 549.1895833333484,
                    "velocity": 0.7559055118110236,
                    "duration": 0.035416666666606034
                },
                {
                    "name": "B5",
                    "midi": 83,
                    "time": 549.1895833333484,
                    "velocity": 0.5984251968503937,
                    "duration": 0.035416666666606034
                },
                {
                    "name": "C6",
                    "midi": 84,
                    "time": 549.1979166666817,
                    "velocity": 0.6062992125984252,
                    "duration": 0.035416666666606034
                },
                {
                    "name": "G5",
                    "midi": 79,
                    "time": 549.3479166666817,
                    "velocity": 0.8740157480314961,
                    "duration": 0.06041666666669698
                },
                {
                    "name": "G6",
                    "midi": 91,
                    "time": 549.3479166666817,
                    "velocity": 0.9291338582677166,
                    "duration": 0.07291666666674246
                },
                {
                    "name": "B3",
                    "midi": 59,
                    "time": 549.350000000015,
                    "velocity": 0.8031496062992126,
                    "duration": 0.07708333333346218
                },
                {
                    "name": "A5",
                    "midi": 81,
                    "time": 549.3604166666817,
                    "velocity": 0.8188976377952756,
                    "duration": 0.03125
                },
                {
                    "name": "D6",
                    "midi": 86,
                    "time": 549.3666666666817,
                    "velocity": 0.7559055118110236,
                    "duration": 0.029166666666696983
                },
                {
                    "name": "D6",
                    "midi": 86,
                    "time": 549.4958333333485,
                    "velocity": 0.9291338582677166,
                    "duration": 0.13750000000004547
                },
                {
                    "name": "G6",
                    "midi": 91,
                    "time": 549.5000000000152,
                    "velocity": 0.9133858267716536,
                    "duration": 0.1416666666666515
                },
                {
                    "name": "A2",
                    "midi": 45,
                    "time": 549.5020833333485,
                    "velocity": 0.9448818897637795,
                    "duration": 0.11041666666665151
                },
                {
                    "name": "G5",
                    "midi": 79,
                    "time": 549.5020833333485,
                    "velocity": 0.8976377952755905,
                    "duration": 0.11666666666667425
                },
                {
                    "name": "C4",
                    "midi": 60,
                    "time": 549.6770833333486,
                    "velocity": 0.9212598425196851,
                    "duration": 0.08333333333337123
                },
                {
                    "name": "D6",
                    "midi": 86,
                    "time": 549.8270833333487,
                    "velocity": 0.8976377952755905,
                    "duration": 0.08749999999997726
                },
                {
                    "name": "B2",
                    "midi": 47,
                    "time": 549.829166666682,
                    "velocity": 0.9212598425196851,
                    "duration": 0.08749999999997726
                },
                {
                    "name": "D5",
                    "midi": 74,
                    "time": 549.835416666682,
                    "velocity": 0.8740157480314961,
                    "duration": 0.039583333333325754
                },
                {
                    "name": "B5",
                    "midi": 83,
                    "time": 549.8375000000153,
                    "velocity": 0.8110236220472441,
                    "duration": 0.043750000000045475
                },
                {
                    "name": "E5",
                    "midi": 76,
                    "time": 549.9979166666819,
                    "velocity": 0.9133858267716536,
                    "duration": 0.043750000000045475
                },
                {
                    "name": "E6",
                    "midi": 88,
                    "time": 549.9979166666819,
                    "velocity": 0.8503937007874016,
                    "duration": 0.06041666666681067
                },
                {
                    "name": "D4",
                    "midi": 62,
                    "time": 550.0000000000152,
                    "velocity": 0.8740157480314961,
                    "duration": 0.06041666666681067
                },
                {
                    "name": "D6",
                    "midi": 86,
                    "time": 550.0125000000153,
                    "velocity": 0.7637795275590551,
                    "duration": 0.033333333333416704
                },
                {
                    "name": "G2",
                    "midi": 43,
                    "time": 550.1395833333487,
                    "velocity": 0.9763779527559056,
                    "duration": 0.08124999999995453
                },
                {
                    "name": "D6",
                    "midi": 86,
                    "time": 550.1583333333487,
                    "velocity": 0.8976377952755905,
                    "duration": 0.06666666666671972
                },
                {
                    "name": "D5",
                    "midi": 74,
                    "time": 550.1625000000154,
                    "velocity": 0.8110236220472441,
                    "duration": 0.04166666666662877
                },
                {
                    "name": "E5",
                    "midi": 76,
                    "time": 550.1770833333487,
                    "velocity": 0.7244094488188977,
                    "duration": 0.035416666666606034
                },
                {
                    "name": "B3",
                    "midi": 59,
                    "time": 550.310416666682,
                    "velocity": 0.9448818897637795,
                    "duration": 0.08749999999986358
                },
                {
                    "name": "B5",
                    "midi": 83,
                    "time": 550.329166666682,
                    "velocity": 0.9291338582677166,
                    "duration": 0.2666666666665378
                },
                {
                    "name": "F6",
                    "midi": 89,
                    "time": 550.329166666682,
                    "velocity": 0.9921259842519685,
                    "duration": 0.2312499999999318
                },
                {
                    "name": "F5",
                    "midi": 77,
                    "time": 550.3312500000153,
                    "velocity": 0.8582677165354331,
                    "duration": 0.2499999999998863
                },
                {
                    "name": "G5",
                    "midi": 79,
                    "time": 550.3375000000153,
                    "velocity": 0.9133858267716536,
                    "duration": 0.2333333333332348
                },
                {
                    "name": "A2",
                    "midi": 45,
                    "time": 550.4666666666819,
                    "velocity": 0.9291338582677166,
                    "duration": 0.09166666666669698
                },
                {
                    "name": "C4",
                    "midi": 60,
                    "time": 550.6395833333486,
                    "velocity": 0.9212598425196851,
                    "duration": 0.07916666666665151
                },
                {
                    "name": "B3",
                    "midi": 59,
                    "time": 550.6687500000153,
                    "velocity": 0.4094488188976378,
                    "duration": 0.06458333333330302
                },
                {
                    "name": "B2",
                    "midi": 47,
                    "time": 550.7729166666819,
                    "velocity": 0.9291338582677166,
                    "duration": 0.08958333333328028
                },
                {
                    "name": "B5",
                    "midi": 83,
                    "time": 550.9437500000151,
                    "velocity": 0.8582677165354331,
                    "duration": 0.07708333333334849
                },
                {
                    "name": "E6",
                    "midi": 88,
                    "time": 550.9479166666819,
                    "velocity": 0.7952755905511811,
                    "duration": 0.07083333333332575
                },
                {
                    "name": "E5",
                    "midi": 76,
                    "time": 550.9479166666819,
                    "velocity": 0.9133858267716536,
                    "duration": 0.05833333333328028
                },
                {
                    "name": "D4",
                    "midi": 62,
                    "time": 550.9500000000152,
                    "velocity": 0.9448818897637795,
                    "duration": 0.07291666666662877
                },
                {
                    "name": "D6",
                    "midi": 86,
                    "time": 550.9687500000151,
                    "velocity": 0.5905511811023622,
                    "duration": 0.05000000000006821
                },
                {
                    "name": "D6",
                    "midi": 86,
                    "time": 551.1020833333484,
                    "velocity": 0.8503937007874016,
                    "duration": 0.3124999999998863
                },
                {
                    "name": "G2",
                    "midi": 43,
                    "time": 551.1041666666817,
                    "velocity": 0.9763779527559056,
                    "duration": 0.08333333333337123
                },
                {
                    "name": "B5",
                    "midi": 83,
                    "time": 551.1083333333485,
                    "velocity": 0.8110236220472441,
                    "duration": 0.3229166666665151
                },
                {
                    "name": "D5",
                    "midi": 74,
                    "time": 551.1104166666818,
                    "velocity": 0.84251968503937,
                    "duration": 0.2749999999998636
                },
                {
                    "name": "B3",
                    "midi": 59,
                    "time": 551.3145833333484,
                    "velocity": 0.9606299212598425,
                    "duration": 0.07083333333321207
                },
                {
                    "name": "G4",
                    "midi": 67,
                    "time": 551.7708333333483,
                    "velocity": 0.9291338582677166,
                    "duration": 0.3458333333335304
                },
                {
                    "name": "C4",
                    "midi": 60,
                    "time": 551.7729166666816,
                    "velocity": 0.9133858267716536,
                    "duration": 0.2979166666668789
                },
                {
                    "name": "D#4",
                    "midi": 63,
                    "time": 551.7770833333483,
                    "velocity": 0.8976377952755905,
                    "duration": 0.3458333333335304
                },
                {
                    "name": "C6",
                    "midi": 84,
                    "time": 551.781250000015,
                    "velocity": 0.8818897637795275,
                    "duration": 0.27500000000009095
                },
                {
                    "name": "G5",
                    "midi": 79,
                    "time": 551.7854166666817,
                    "velocity": 0.84251968503937,
                    "duration": 0.12291666666669698
                },
                {
                    "name": "D#5",
                    "midi": 75,
                    "time": 551.7854166666817,
                    "velocity": 0.952755905511811,
                    "duration": 0.27083333333337123
                },
                {
                    "name": "D6",
                    "midi": 86,
                    "time": 551.8062500000151,
                    "velocity": 0.6614173228346457,
                    "duration": 0.13750000000004547
                },
                {
                    "name": "B5",
                    "midi": 83,
                    "time": 552.1833333333485,
                    "velocity": 0.952755905511811,
                    "duration": 0.07083333333321207
                },
                {
                    "name": "G4",
                    "midi": 67,
                    "time": 552.1854166666818,
                    "velocity": 0.9606299212598425,
                    "duration": 0.06666666666660603
                },
                {
                    "name": "D#5",
                    "midi": 75,
                    "time": 552.1854166666818,
                    "velocity": 0.9606299212598425,
                    "duration": 0.05833333333328028
                },
                {
                    "name": "B3",
                    "midi": 59,
                    "time": 552.1875000000151,
                    "velocity": 0.9606299212598425,
                    "duration": 0.07291666666662877
                },
                {
                    "name": "D#4",
                    "midi": 63,
                    "time": 552.1958333333484,
                    "velocity": 0.7952755905511811,
                    "duration": 0.0625
                },
                {
                    "name": "C6",
                    "midi": 84,
                    "time": 552.5479166666818,
                    "velocity": 0.9606299212598425,
                    "duration": 0.14166666666642413
                },
                {
                    "name": "G5",
                    "midi": 79,
                    "time": 552.5500000000151,
                    "velocity": 0.9133858267716536,
                    "duration": 0.14583333333314386
                },
                {
                    "name": "D#5",
                    "midi": 75,
                    "time": 552.5520833333484,
                    "velocity": 1,
                    "duration": 0.14374999999984084
                },
                {
                    "name": "G4",
                    "midi": 67,
                    "time": 552.5541666666817,
                    "velocity": 0.9763779527559056,
                    "duration": 0.13124999999990905
                },
                {
                    "name": "C4",
                    "midi": 60,
                    "time": 552.5541666666817,
                    "velocity": 0.9763779527559056,
                    "duration": 0.13333333333321207
                },
                {
                    "name": "D#4",
                    "midi": 63,
                    "time": 552.5604166666817,
                    "velocity": 0.937007874015748,
                    "duration": 0.16041666666649235
                },
                {
                    "name": "D5",
                    "midi": 74,
                    "time": 552.9791666666815,
                    "velocity": 0.8582677165354331,
                    "duration": 0.9520833333334622
                },
                {
                    "name": "A3",
                    "midi": 57,
                    "time": 552.9854166666815,
                    "velocity": 0.8188976377952756,
                    "duration": 0.591666666666697
                },
                {
                    "name": "F#4",
                    "midi": 66,
                    "time": 552.9854166666815,
                    "velocity": 0.9921259842519685,
                    "duration": 0.529166666666697
                },
                {
                    "name": "D4",
                    "midi": 62,
                    "time": 552.9875000000148,
                    "velocity": 0.8582677165354331,
                    "duration": 0.529166666666697
                },
                {
                    "name": "A4",
                    "midi": 69,
                    "time": 552.9875000000148,
                    "velocity": 0.984251968503937,
                    "duration": 0.931250000000091
                },
                {
                    "name": "A5",
                    "midi": 81,
                    "time": 552.9875000000148,
                    "velocity": 0.9291338582677166,
                    "duration": 0.8562500000000455
                },
                {
                    "name": "F#5",
                    "midi": 78,
                    "time": 552.9916666666816,
                    "velocity": 0.8503937007874016,
                    "duration": 0.9229166666666515
                },
                {
                    "name": "B4",
                    "midi": 71,
                    "time": 553.0125000000149,
                    "velocity": 0.5826771653543307,
                    "duration": 0.04166666666662877
                },
                {
                    "name": "D2",
                    "midi": 38,
                    "time": 553.9854166666817,
                    "velocity": 1,
                    "duration": 0.0625
                },
                {
                    "name": "F#3",
                    "midi": 54,
                    "time": 554.4395833333483,
                    "velocity": 1,
                    "duration": 0.06666666666671972
                },
                {
                    "name": "A3",
                    "midi": 57,
                    "time": 554.6791666666817,
                    "velocity": 0.7716535433070866,
                    "duration": 0.15208333333339397
                },
                {
                    "name": "C#4",
                    "midi": 61,
                    "time": 554.7791666666817,
                    "velocity": 0.8267716535433071,
                    "duration": 0.10208333333343944
                },
                {
                    "name": "D4",
                    "midi": 62,
                    "time": 554.8458333333484,
                    "velocity": 0.6692913385826772,
                    "duration": 0.09375
                },
                {
                    "name": "E4",
                    "midi": 64,
                    "time": 554.8958333333485,
                    "velocity": 0.6850393700787402,
                    "duration": 0.06458333333330302
                },
                {
                    "name": "F4",
                    "midi": 65,
                    "time": 554.9229166666818,
                    "velocity": 0.6062992125984252,
                    "duration": 0.06041666666669698
                },
                {
                    "name": "F#4",
                    "midi": 66,
                    "time": 555.0020833333484,
                    "velocity": 1,
                    "duration": 0.06666666666671972
                },
                {
                    "name": "A4",
                    "midi": 69,
                    "time": 555.1020833333484,
                    "velocity": 0.7086614173228346,
                    "duration": 0.10416666666662877
                },
                {
                    "name": "C#5",
                    "midi": 73,
                    "time": 555.1729166666818,
                    "velocity": 0.7637795275590551,
                    "duration": 0.09583333333330302
                },
                {
                    "name": "D5",
                    "midi": 74,
                    "time": 555.2145833333484,
                    "velocity": 0.6929133858267716,
                    "duration": 0.10416666666662877
                },
                {
                    "name": "E5",
                    "midi": 76,
                    "time": 555.2666666666818,
                    "velocity": 0.6614173228346457,
                    "duration": 0.08124999999995453
                },
                {
                    "name": "F5",
                    "midi": 77,
                    "time": 555.3083333333484,
                    "velocity": 0.6220472440944882,
                    "duration": 0.04791666666665151
                },
                {
                    "name": "F#5",
                    "midi": 78,
                    "time": 555.387500000015,
                    "velocity": 0.984251968503937,
                    "duration": 0.0625
                },
                {
                    "name": "A5",
                    "midi": 81,
                    "time": 555.468750000015,
                    "velocity": 0.6141732283464567,
                    "duration": 0.10208333333332575
                },
                {
                    "name": "C#6",
                    "midi": 85,
                    "time": 555.525000000015,
                    "velocity": 0.7952755905511811,
                    "duration": 0.11041666666665151
                },
                {
                    "name": "D6",
                    "midi": 86,
                    "time": 555.5729166666816,
                    "velocity": 0.6850393700787402,
                    "duration": 0.10833333333334849
                },
                {
                    "name": "E6",
                    "midi": 88,
                    "time": 555.6229166666816,
                    "velocity": 0.6850393700787402,
                    "duration": 0.09166666666669698
                },
                {
                    "name": "F6",
                    "midi": 89,
                    "time": 555.675000000015,
                    "velocity": 0.5590551181102362,
                    "duration": 0.05624999999997726
                },
                {
                    "name": "G6",
                    "midi": 91,
                    "time": 555.6770833333483,
                    "velocity": 0.44881889763779526,
                    "duration": 0.054166666666674246
                },
                {
                    "name": "F#6",
                    "midi": 90,
                    "time": 555.7333333333482,
                    "velocity": 0.968503937007874,
                    "duration": 0.06458333333330302
                },
                {
                    "name": "A6",
                    "midi": 93,
                    "time": 555.8458333333482,
                    "velocity": 0.6614173228346457,
                    "duration": 0.10000000000002274
                },
                {
                    "name": "C#7",
                    "midi": 97,
                    "time": 555.9104166666815,
                    "velocity": 0.7874015748031497,
                    "duration": 0.10000000000002274
                },
                {
                    "name": "D7",
                    "midi": 98,
                    "time": 555.9625000000149,
                    "velocity": 0.6692913385826772,
                    "duration": 0.10625000000004547
                },
                {
                    "name": "E7",
                    "midi": 100,
                    "time": 556.0145833333482,
                    "velocity": 0.6614173228346457,
                    "duration": 0.11041666666665151
                },
                {
                    "name": "F7",
                    "midi": 101,
                    "time": 556.0958333333482,
                    "velocity": 0.6614173228346457,
                    "duration": 0.16875000000004547
                },
                {
                    "name": "F#7",
                    "midi": 102,
                    "time": 556.1208333333482,
                    "velocity": 0.9763779527559056,
                    "duration": 0.06875000000002274
                },
                {
                    "name": "E7",
                    "midi": 100,
                    "time": 556.1875000000149,
                    "velocity": 0.6456692913385826,
                    "duration": 0.11458333333337123
                },
                {
                    "name": "D7",
                    "midi": 98,
                    "time": 556.2500000000149,
                    "velocity": 0.6850393700787402,
                    "duration": 0.10833333333334849
                },
                {
                    "name": "C#7",
                    "midi": 97,
                    "time": 556.2979166666815,
                    "velocity": 0.8188976377952756,
                    "duration": 0.125
                },
                {
                    "name": "A6",
                    "midi": 93,
                    "time": 556.3604166666815,
                    "velocity": 0.6456692913385826,
                    "duration": 0.08958333333339397
                },
                {
                    "name": "F#6",
                    "midi": 90,
                    "time": 556.4270833333483,
                    "velocity": 0.9448818897637795,
                    "duration": 0.06458333333330302
                },
                {
                    "name": "A6",
                    "midi": 93,
                    "time": 556.5125000000149,
                    "velocity": 0.7559055118110236,
                    "duration": 0.10625000000004547
                },
                {
                    "name": "C#7",
                    "midi": 97,
                    "time": 556.5645833333483,
                    "velocity": 0.7874015748031497,
                    "duration": 0.10625000000004547
                },
                {
                    "name": "D7",
                    "midi": 98,
                    "time": 556.6229166666817,
                    "velocity": 0.7401574803149606,
                    "duration": 0.10208333333332575
                },
                {
                    "name": "E7",
                    "midi": 100,
                    "time": 556.6729166666817,
                    "velocity": 0.6141732283464567,
                    "duration": 0.0958333333334167
                },
                {
                    "name": "F7",
                    "midi": 101,
                    "time": 556.7416666666817,
                    "velocity": 0.6614173228346457,
                    "duration": 0.1416666666666515
                },
                {
                    "name": "F#7",
                    "midi": 102,
                    "time": 556.7479166666817,
                    "velocity": 0.952755905511811,
                    "duration": 0.06666666666671972
                },
                {
                    "name": "E7",
                    "midi": 100,
                    "time": 556.8083333333484,
                    "velocity": 0.5118110236220472,
                    "duration": 0.09999999999990905
                },
                {
                    "name": "D7",
                    "midi": 98,
                    "time": 556.856250000015,
                    "velocity": 0.7322834645669292,
                    "duration": 0.11249999999995453
                },
                {
                    "name": "C#7",
                    "midi": 97,
                    "time": 556.900000000015,
                    "velocity": 0.8188976377952756,
                    "duration": 0.11250000000006821
                },
                {
                    "name": "A6",
                    "midi": 93,
                    "time": 556.956250000015,
                    "velocity": 0.7007874015748031,
                    "duration": 0.08125000000006821
                },
                {
                    "name": "F#6",
                    "midi": 90,
                    "time": 557.0145833333484,
                    "velocity": 0.968503937007874,
                    "duration": 0.0625
                },
                {
                    "name": "A6",
                    "midi": 93,
                    "time": 557.0958333333483,
                    "velocity": 0.6850393700787402,
                    "duration": 0.09375
                },
                {
                    "name": "C#7",
                    "midi": 97,
                    "time": 557.1395833333484,
                    "velocity": 0.8110236220472441,
                    "duration": 0.10416666666662877
                },
                {
                    "name": "D7",
                    "midi": 98,
                    "time": 557.1916666666816,
                    "velocity": 0.7716535433070866,
                    "duration": 0.0958333333334167
                },
                {
                    "name": "E7",
                    "midi": 100,
                    "time": 557.2354166666817,
                    "velocity": 0.6220472440944882,
                    "duration": 0.10000000000013642
                },
                {
                    "name": "F#7",
                    "midi": 102,
                    "time": 557.3229166666817,
                    "velocity": 0.905511811023622,
                    "duration": 0.0645833333334167
                },
                {
                    "name": "F7",
                    "midi": 101,
                    "time": 557.3375000000151,
                    "velocity": 0.5826771653543307,
                    "duration": 0.11250000000006821
                },
                {
                    "name": "E7",
                    "midi": 100,
                    "time": 557.3750000000151,
                    "velocity": 0.5118110236220472,
                    "duration": 0.09166666666669698
                },
                {
                    "name": "D7",
                    "midi": 98,
                    "time": 557.4187500000152,
                    "velocity": 0.7795275590551181,
                    "duration": 0.11041666666665151
                },
                {
                    "name": "C#7",
                    "midi": 97,
                    "time": 557.4583333333485,
                    "velocity": 0.8188976377952756,
                    "duration": 0.11249999999995453
                },
                {
                    "name": "A6",
                    "midi": 93,
                    "time": 557.5125000000152,
                    "velocity": 0.6062992125984252,
                    "duration": 0.08749999999997726
                },
                {
                    "name": "F#6",
                    "midi": 90,
                    "time": 557.5791666666818,
                    "velocity": 1,
                    "duration": 0.0645833333334167
                },
                {
                    "name": "A6",
                    "midi": 93,
                    "time": 557.6500000000152,
                    "velocity": 0.7165354330708661,
                    "duration": 0.1104166666667652
                },
                {
                    "name": "C#7",
                    "midi": 97,
                    "time": 557.7020833333486,
                    "velocity": 0.8110236220472441,
                    "duration": 0.125
                },
                {
                    "name": "D7",
                    "midi": 98,
                    "time": 557.7562500000153,
                    "velocity": 0.7795275590551181,
                    "duration": 0.11458333333325754
                },
                {
                    "name": "E7",
                    "midi": 100,
                    "time": 557.8104166666819,
                    "velocity": 0.7165354330708661,
                    "duration": 0.09791666666649235
                },
                {
                    "name": "F7",
                    "midi": 101,
                    "time": 557.8687500000152,
                    "velocity": 0.8346456692913385,
                    "duration": 0.10208333333321207
                },
                {
                    "name": "F#7",
                    "midi": 102,
                    "time": 557.8895833333485,
                    "velocity": 1,
                    "duration": 0.05624999999997726
                },
                {
                    "name": "C5",
                    "midi": 72,
                    "time": 558.731250000015,
                    "velocity": 0.9606299212598425,
                    "duration": 0.20000000000004547
                },
                {
                    "name": "C7",
                    "midi": 96,
                    "time": 558.731250000015,
                    "velocity": 0.8976377952755905,
                    "duration": 0.17916666666667425
                },
                {
                    "name": "C4",
                    "midi": 60,
                    "time": 558.7333333333484,
                    "velocity": 0.8976377952755905,
                    "duration": 0.18125000000009095
                },
                {
                    "name": "C6",
                    "midi": 84,
                    "time": 558.7333333333484,
                    "velocity": 0.9133858267716536,
                    "duration": 0.1750000000000682
                },
                {
                    "name": "B4",
                    "midi": 71,
                    "time": 559.0604166666818,
                    "velocity": 0.9133858267716536,
                    "duration": 0.08124999999995453
                },
                {
                    "name": "B6",
                    "midi": 95,
                    "time": 559.0625000000151,
                    "velocity": 0.8740157480314961,
                    "duration": 0.10624999999993179
                },
                {
                    "name": "B3",
                    "midi": 59,
                    "time": 559.0645833333484,
                    "velocity": 0.8976377952755905,
                    "duration": 0.09583333333330302
                },
                {
                    "name": "B5",
                    "midi": 83,
                    "time": 559.0687500000151,
                    "velocity": 0.8582677165354331,
                    "duration": 0.0625
                },
                {
                    "name": "A4",
                    "midi": 69,
                    "time": 559.2666666666818,
                    "velocity": 0.8582677165354331,
                    "duration": 0.07291666666674246
                },
                {
                    "name": "A6",
                    "midi": 93,
                    "time": 559.2750000000151,
                    "velocity": 0.8031496062992126,
                    "duration": 0.0791666666667652
                },
                {
                    "name": "A3",
                    "midi": 57,
                    "time": 559.2750000000151,
                    "velocity": 0.8031496062992126,
                    "duration": 0.07083333333343944
                },
                {
                    "name": "A5",
                    "midi": 81,
                    "time": 559.2791666666818,
                    "velocity": 0.7795275590551181,
                    "duration": 0.05208333333337123
                },
                {
                    "name": "F4",
                    "midi": 65,
                    "time": 559.4520833333486,
                    "velocity": 0.6614173228346457,
                    "duration": 0.054166666666674246
                },
                {
                    "name": "F3",
                    "midi": 53,
                    "time": 559.4583333333486,
                    "velocity": 0.6377952755905512,
                    "duration": 0.05208333333337123
                },
                {
                    "name": "F6",
                    "midi": 89,
                    "time": 559.479166666682,
                    "velocity": 0.7007874015748031,
                    "duration": 0.049999999999954525
                },
                {
                    "name": "F5",
                    "midi": 77,
                    "time": 559.4895833333486,
                    "velocity": 0.49606299212598426,
                    "duration": 0.05624999999997726
                },
                {
                    "name": "E4",
                    "midi": 64,
                    "time": 559.6250000000152,
                    "velocity": 0.8582677165354331,
                    "duration": 0.06041666666669698
                },
                {
                    "name": "E3",
                    "midi": 52,
                    "time": 559.6333333333486,
                    "velocity": 0.7322834645669292,
                    "duration": 0.05208333333337123
                },
                {
                    "name": "E6",
                    "midi": 88,
                    "time": 559.6375000000153,
                    "velocity": 0.7952755905511811,
                    "duration": 0.05208333333337123
                },
                {
                    "name": "E5",
                    "midi": 76,
                    "time": 559.6583333333487,
                    "velocity": 0.4645669291338583,
                    "duration": 0.054166666666674246
                },
                {
                    "name": "D6",
                    "midi": 86,
                    "time": 559.7770833333486,
                    "velocity": 0.7874015748031497,
                    "duration": 0.039583333333325754
                },
                {
                    "name": "D3",
                    "midi": 50,
                    "time": 559.7770833333486,
                    "velocity": 0.7637795275590551,
                    "duration": 0.039583333333325754
                },
                {
                    "name": "D4",
                    "midi": 62,
                    "time": 559.7791666666819,
                    "velocity": 0.7244094488188977,
                    "duration": 0.03750000000002274
                },
                {
                    "name": "D5",
                    "midi": 74,
                    "time": 559.791666666682,
                    "velocity": 0.48031496062992124,
                    "duration": 0.04791666666665151
                },
                {
                    "name": "C4",
                    "midi": 60,
                    "time": 559.9125000000153,
                    "velocity": 0.8031496062992126,
                    "duration": 0.05416666666656056
                },
                {
                    "name": "C6",
                    "midi": 84,
                    "time": 559.9229166666819,
                    "velocity": 0.7952755905511811,
                    "duration": 0.029166666666583296
                },
                {
                    "name": "C3",
                    "midi": 48,
                    "time": 559.9229166666819,
                    "velocity": 0.6692913385826772,
                    "duration": 0.045833333333234805
                },
                {
                    "name": "C5",
                    "midi": 72,
                    "time": 559.9250000000152,
                    "velocity": 0.7637795275590551,
                    "duration": 0.035416666666606034
                },
                {
                    "name": "B3",
                    "midi": 59,
                    "time": 560.0458333333485,
                    "velocity": 0.9212598425196851,
                    "duration": 0.05416666666656056
                },
                {
                    "name": "B2",
                    "midi": 47,
                    "time": 560.0479166666818,
                    "velocity": 0.8740157480314961,
                    "duration": 0.05208333333325754
                },
                {
                    "name": "B5",
                    "midi": 83,
                    "time": 560.0479166666818,
                    "velocity": 0.84251968503937,
                    "duration": 0.07083333333321207
                },
                {
                    "name": "B4",
                    "midi": 71,
                    "time": 560.0583333333484,
                    "velocity": 0.6850393700787402,
                    "duration": 0.04374999999993179
                },
                {
                    "name": "A5",
                    "midi": 81,
                    "time": 560.187500000015,
                    "velocity": 0.84251968503937,
                    "duration": 0.06041666666681067
                },
                {
                    "name": "A3",
                    "midi": 57,
                    "time": 560.1916666666817,
                    "velocity": 0.8818897637795275,
                    "duration": 0.04166666666674246
                },
                {
                    "name": "A2",
                    "midi": 45,
                    "time": 560.1916666666817,
                    "velocity": 0.9133858267716536,
                    "duration": 0.058333333333393966
                },
                {
                    "name": "A4",
                    "midi": 69,
                    "time": 560.2041666666818,
                    "velocity": 0.5905511811023622,
                    "duration": 0.04583333333334849
                },
                {
                    "name": "F3",
                    "midi": 53,
                    "time": 560.3395833333484,
                    "velocity": 0.889763779527559,
                    "duration": 0.058333333333393966
                },
                {
                    "name": "F2",
                    "midi": 41,
                    "time": 560.3416666666817,
                    "velocity": 0.9448818897637795,
                    "duration": 0.058333333333393966
                },
                {
                    "name": "F5",
                    "midi": 77,
                    "time": 560.3479166666817,
                    "velocity": 0.889763779527559,
                    "duration": 0.06666666666671972
                },
                {
                    "name": "F4",
                    "midi": 65,
                    "time": 560.3520833333484,
                    "velocity": 0.84251968503937,
                    "duration": 0.049999999999954525
                },
                {
                    "name": "E2",
                    "midi": 40,
                    "time": 560.4958333333484,
                    "velocity": 0.7637795275590551,
                    "duration": 0.04166666666674246
                },
                {
                    "name": "E5",
                    "midi": 76,
                    "time": 560.5000000000151,
                    "velocity": 0.8582677165354331,
                    "duration": 0.07499999999993179
                },
                {
                    "name": "E3",
                    "midi": 52,
                    "time": 560.5000000000151,
                    "velocity": 0.7559055118110236,
                    "duration": 0.03750000000002274
                },
                {
                    "name": "F2",
                    "midi": 41,
                    "time": 560.5020833333484,
                    "velocity": 0.8031496062992126,
                    "duration": 0.027083333333393966
                },
                {
                    "name": "F3",
                    "midi": 53,
                    "time": 560.5020833333484,
                    "velocity": 0.7322834645669292,
                    "duration": 0.03541666666671972
                },
                {
                    "name": "E4",
                    "midi": 64,
                    "time": 560.512500000015,
                    "velocity": 0.5826771653543307,
                    "duration": 0.04166666666674246
                },
                {
                    "name": "F4",
                    "midi": 65,
                    "time": 560.5166666666818,
                    "velocity": 0.6377952755905512,
                    "duration": 0.039583333333325754
                },
                {
                    "name": "D5",
                    "midi": 74,
                    "time": 560.6354166666817,
                    "velocity": 0.7322834645669292,
                    "duration": 0.08125000000006821
                },
                {
                    "name": "D3",
                    "midi": 50,
                    "time": 560.6416666666818,
                    "velocity": 0.9133858267716536,
                    "duration": 0.05208333333337123
                },
                {
                    "name": "D2",
                    "midi": 38,
                    "time": 560.6437500000151,
                    "velocity": 0.8031496062992126,
                    "duration": 0.05208333333337123
                },
                {
                    "name": "D4",
                    "midi": 62,
                    "time": 560.6479166666818,
                    "velocity": 0.6456692913385826,
                    "duration": 0.043750000000045475
                },
                {
                    "name": "C2",
                    "midi": 36,
                    "time": 560.7937500000152,
                    "velocity": 0.9212598425196851,
                    "duration": 0.05416666666678793
                },
                {
                    "name": "C3",
                    "midi": 48,
                    "time": 560.7937500000152,
                    "velocity": 0.9133858267716536,
                    "duration": 0.05416666666678793
                },
                {
                    "name": "C5",
                    "midi": 72,
                    "time": 560.8000000000152,
                    "velocity": 0.8503937007874016,
                    "duration": 0.07708333333346218
                },
                {
                    "name": "C4",
                    "midi": 60,
                    "time": 560.8083333333485,
                    "velocity": 0.8818897637795275,
                    "duration": 0.03541666666671972
                },
                {
                    "name": "B4",
                    "midi": 71,
                    "time": 560.9583333333486,
                    "velocity": 0.8976377952755905,
                    "duration": 0.07291666666662877
                },
                {
                    "name": "B2",
                    "midi": 47,
                    "time": 560.9583333333486,
                    "velocity": 0.9212598425196851,
                    "duration": 0.05624999999997726
                },
                {
                    "name": "B1",
                    "midi": 35,
                    "time": 560.9604166666819,
                    "velocity": 0.9212598425196851,
                    "duration": 0.05208333333337123
                },
                {
                    "name": "B3",
                    "midi": 59,
                    "time": 560.9645833333486,
                    "velocity": 0.8582677165354331,
                    "duration": 0.05624999999997726
                },
                {
                    "name": "A4",
                    "midi": 69,
                    "time": 561.1250000000152,
                    "velocity": 0.8740157480314961,
                    "duration": 0.07291666666674246
                },
                {
                    "name": "A2",
                    "midi": 45,
                    "time": 561.129166666682,
                    "velocity": 0.9291338582677166,
                    "duration": 0.06041666666669698
                },
                {
                    "name": "A1",
                    "midi": 33,
                    "time": 561.1312500000153,
                    "velocity": 0.9448818897637795,
                    "duration": 0.0625
                },
                {
                    "name": "A3",
                    "midi": 57,
                    "time": 561.135416666682,
                    "velocity": 0.84251968503937,
                    "duration": 0.05624999999997726
                },
                {
                    "name": "F4",
                    "midi": 65,
                    "time": 561.3625000000153,
                    "velocity": 0.9212598425196851,
                    "duration": 0.24166666666667425
                },
                {
                    "name": "F2",
                    "midi": 41,
                    "time": 561.3687500000153,
                    "velocity": 1,
                    "duration": 0.24166666666667425
                },
                {
                    "name": "F1",
                    "midi": 29,
                    "time": 561.3708333333486,
                    "velocity": 0.984251968503937,
                    "duration": 0.26041666666674246
                },
                {
                    "name": "F3",
                    "midi": 53,
                    "time": 561.3729166666819,
                    "velocity": 0.7795275590551181,
                    "duration": 0.05833333333328028
                },
                {
                    "name": "F3",
                    "midi": 53,
                    "time": 561.5083333333486,
                    "velocity": 0.33858267716535434,
                    "duration": 0.08958333333339397
                },
                {
                    "name": "E2",
                    "midi": 40,
                    "time": 561.6958333333487,
                    "velocity": 0.9212598425196851,
                    "duration": 0.24374999999997726
                },
                {
                    "name": "E4",
                    "midi": 64,
                    "time": 561.697916666682,
                    "velocity": 0.8818897637795275,
                    "duration": 0.2333333333333485
                },
                {
                    "name": "E1",
                    "midi": 28,
                    "time": 561.697916666682,
                    "velocity": 0.9291338582677166,
                    "duration": 0.25833333333332575
                },
                {
                    "name": "E3",
                    "midi": 52,
                    "time": 561.7062500000153,
                    "velocity": 0.9291338582677166,
                    "duration": 0.22500000000002274
                },
                {
                    "name": "D4",
                    "midi": 62,
                    "time": 562.0333333333487,
                    "velocity": 0.8582677165354331,
                    "duration": 3.422916666666765
                },
                {
                    "name": "D2",
                    "midi": 38,
                    "time": 562.0395833333487,
                    "velocity": 0.9212598425196851,
                    "duration": 0.4229166666666515
                },
                {
                    "name": "D3",
                    "midi": 50,
                    "time": 562.041666666682,
                    "velocity": 0.8740157480314961,
                    "duration": 0.41041666666660603
                },
                {
                    "name": "D1",
                    "midi": 26,
                    "time": 562.047916666682,
                    "velocity": 0.952755905511811,
                    "duration": 0.408333333333303
                },
                {
                    "name": "D3",
                    "midi": 50,
                    "time": 562.5395833333487,
                    "velocity": 0.952755905511811,
                    "duration": 2.3500000000000227
                },
                {
                    "name": "D2",
                    "midi": 38,
                    "time": 562.5395833333487,
                    "velocity": 0.9921259842519685,
                    "duration": 2.810416666666697
                },
                {
                    "name": "D1",
                    "midi": 26,
                    "time": 562.5437500000154,
                    "velocity": 0.9606299212598425,
                    "duration": 2.7020833333333485
                },
                {
                    "name": "F#4",
                    "midi": 66,
                    "time": 567.529166666682,
                    "velocity": 0.41732283464566927,
                    "duration": 0.33541666666667425
                },
                {
                    "name": "A#4",
                    "midi": 70,
                    "time": 567.5333333333488,
                    "velocity": 0.4881889763779528,
                    "duration": 0.5395833333333258
                },
                {
                    "name": "E4",
                    "midi": 64,
                    "time": 567.5562500000154,
                    "velocity": 0.2992125984251969,
                    "duration": 0.564583333333303
                },
                {
                    "name": "D#4",
                    "midi": 63,
                    "time": 568.091666666682,
                    "velocity": 0.48031496062992124,
                    "duration": 0.36875000000009095
                },
                {
                    "name": "B4",
                    "midi": 71,
                    "time": 568.1250000000155,
                    "velocity": 0.5433070866141733,
                    "duration": 0.32083333333332575
                },
                {
                    "name": "A4",
                    "midi": 69,
                    "time": 568.1395833333488,
                    "velocity": 0.14960629921259844,
                    "duration": 0.18333333333328028
                },
                {
                    "name": "D4",
                    "midi": 62,
                    "time": 568.4562500000154,
                    "velocity": 0.41732283464566927,
                    "duration": 0.19791666666685614
                },
                {
                    "name": "G#4",
                    "midi": 68,
                    "time": 568.4729166666822,
                    "velocity": 0.4566929133858268,
                    "duration": 0.18333333333339397
                },
                {
                    "name": "C5",
                    "midi": 72,
                    "time": 568.4979166666823,
                    "velocity": 0.49606299212598426,
                    "duration": 0.19791666666662877
                },
                {
                    "name": "C#5",
                    "midi": 73,
                    "time": 568.8062500000156,
                    "velocity": 0.5905511811023622,
                    "duration": 0.5208333333333712
                },
                {
                    "name": "C#4",
                    "midi": 61,
                    "time": 568.8145833333489,
                    "velocity": 0.3464566929133858,
                    "duration": 0.5083333333333258
                },
                {
                    "name": "B4",
                    "midi": 71,
                    "time": 568.8208333333489,
                    "velocity": 0.3543307086614173,
                    "duration": 0.42708333333325754
                },
                {
                    "name": "F4",
                    "midi": 65,
                    "time": 568.8395833333489,
                    "velocity": 0.2440944881889764,
                    "duration": 0.5000000000001137
                },
                {
                    "name": "D5",
                    "midi": 74,
                    "time": 569.439583333349,
                    "velocity": 0.4330708661417323,
                    "duration": 0.22291666666660603
                },
                {
                    "name": "A#4",
                    "midi": 70,
                    "time": 569.4479166666823,
                    "velocity": 0.3858267716535433,
                    "duration": 0.2645833333332348
                },
                {
                    "name": "C4",
                    "midi": 60,
                    "time": 569.4937500000157,
                    "velocity": 0.2204724409448819,
                    "duration": 0.22708333333321207
                },
                {
                    "name": "E4",
                    "midi": 64,
                    "time": 569.495833333349,
                    "velocity": 0.16535433070866143,
                    "duration": 0.23958333333325754
                },
                {
                    "name": "D#4",
                    "midi": 63,
                    "time": 569.9041666666823,
                    "velocity": 0.36220472440944884,
                    "duration": 0.5645833333334167
                },
                {
                    "name": "F#5",
                    "midi": 78,
                    "time": 569.9187500000156,
                    "velocity": 0.4251968503937008,
                    "duration": 0.5541666666667879
                },
                {
                    "name": "B3",
                    "midi": 59,
                    "time": 569.964583333349,
                    "velocity": 0.10236220472440945,
                    "duration": 0.46041666666667425
                },
                {
                    "name": "A4",
                    "midi": 69,
                    "time": 570.008333333349,
                    "velocity": 0.047244094488188976,
                    "duration": 0.3874999999999318
                },
                {
                    "name": "A#4",
                    "midi": 70,
                    "time": 571.0791666666825,
                    "velocity": 0.2204724409448819,
                    "duration": 0.25
                },
                {
                    "name": "E5",
                    "midi": 76,
                    "time": 571.1062500000157,
                    "velocity": 0.31496062992125984,
                    "duration": 0.33333333333337123
                },
                {
                    "name": "C5",
                    "midi": 72,
                    "time": 571.1791666666825,
                    "velocity": 0.03937007874015748,
                    "duration": 0.1999999999999318
                },
                {
                    "name": "F5",
                    "midi": 77,
                    "time": 571.6354166666824,
                    "velocity": 0.5196850393700787,
                    "duration": 0.29791666666642413
                },
                {
                    "name": "D#5",
                    "midi": 75,
                    "time": 571.6541666666824,
                    "velocity": 0.47244094488188976,
                    "duration": 0.25416666666649235
                },
                {
                    "name": "A4",
                    "midi": 69,
                    "time": 571.6562500000157,
                    "velocity": 0.2677165354330709,
                    "duration": 0.17916666666656056
                },
                {
                    "name": "F#5",
                    "midi": 78,
                    "time": 572.0020833333489,
                    "velocity": 0.6850393700787402,
                    "duration": 0.40208333333339397
                },
                {
                    "name": "G#4",
                    "midi": 68,
                    "time": 572.0062500000156,
                    "velocity": 0.4015748031496063,
                    "duration": 0.39791666666667425
                },
                {
                    "name": "D5",
                    "midi": 74,
                    "time": 572.0229166666822,
                    "velocity": 0.4015748031496063,
                    "duration": 0.33333333333337123
                },
                {
                    "name": "G5",
                    "midi": 79,
                    "time": 572.5000000000156,
                    "velocity": 0.4330708661417323,
                    "duration": 0.4854166666666515
                },
                {
                    "name": "F5",
                    "midi": 77,
                    "time": 572.5062500000156,
                    "velocity": 0.28346456692913385,
                    "duration": 0.4520833333333485
                },
                {
                    "name": "G4",
                    "midi": 67,
                    "time": 572.527083333349,
                    "velocity": 0.28346456692913385,
                    "duration": 0.47499999999990905
                },
                {
                    "name": "B4",
                    "midi": 71,
                    "time": 572.527083333349,
                    "velocity": 0.1968503937007874,
                    "duration": 0.5562499999998636
                },
                {
                    "name": "G#5",
                    "midi": 80,
                    "time": 573.2750000000156,
                    "velocity": 0.5275590551181102,
                    "duration": 0.21250000000009095
                },
                {
                    "name": "A#4",
                    "midi": 70,
                    "time": 573.2812500000156,
                    "velocity": 0.33858267716535434,
                    "duration": 0.24791666666669698
                },
                {
                    "name": "F#4",
                    "midi": 66,
                    "time": 573.2916666666822,
                    "velocity": 0.4251968503937008,
                    "duration": 0.21458333333339397
                },
                {
                    "name": "E5",
                    "midi": 76,
                    "time": 573.2979166666822,
                    "velocity": 0.25984251968503935,
                    "duration": 0.1895833333334167
                },
                {
                    "name": "C6",
                    "midi": 84,
                    "time": 573.8687500000156,
                    "velocity": 0.4251968503937008,
                    "duration": 0.6874999999998863
                },
                {
                    "name": "D#5",
                    "midi": 75,
                    "time": 573.8708333333489,
                    "velocity": 0.23622047244094488,
                    "duration": 0.6437499999999545
                },
                {
                    "name": "A4",
                    "midi": 69,
                    "time": 573.8895833333488,
                    "velocity": 0.11023622047244094,
                    "duration": 0.6812499999999773
                },
                {
                    "name": "F4",
                    "midi": 65,
                    "time": 573.8979166666821,
                    "velocity": 0.14173228346456693,
                    "duration": 0.691666666666606
                },
                {
                    "name": "F#5",
                    "midi": 78,
                    "time": 575.3000000000154,
                    "velocity": 0.30708661417322836,
                    "duration": 0.2333333333333485
                },
                {
                    "name": "A#5",
                    "midi": 82,
                    "time": 575.3083333333487,
                    "velocity": 0.44881889763779526,
                    "duration": 0.4687500000001137
                },
                {
                    "name": "E5",
                    "midi": 76,
                    "time": 575.3250000000154,
                    "velocity": 0.2047244094488189,
                    "duration": 0.4104166666668334
                },
                {
                    "name": "D#5",
                    "midi": 75,
                    "time": 575.6937500000155,
                    "velocity": 0.4566929133858268,
                    "duration": 0.38333333333355313
                },
                {
                    "name": "A5",
                    "midi": 81,
                    "time": 575.7020833333488,
                    "velocity": 0.49606299212598426,
                    "duration": 0.14583333333337123
                },
                {
                    "name": "B5",
                    "midi": 83,
                    "time": 575.7062500000155,
                    "velocity": 0.5669291338582677,
                    "duration": 0.3125000000001137
                },
                {
                    "name": "G#5",
                    "midi": 80,
                    "time": 576.0083333333489,
                    "velocity": 0.6771653543307087,
                    "duration": 0.1916666666668334
                },
                {
                    "name": "C6",
                    "midi": 84,
                    "time": 576.0145833333489,
                    "velocity": 0.6771653543307087,
                    "duration": 0.24583333333350765
                },
                {
                    "name": "D5",
                    "midi": 74,
                    "time": 576.0229166666824,
                    "velocity": 0.3858267716535433,
                    "duration": 0.377083333333303
                },
                {
                    "name": "C#6",
                    "midi": 85,
                    "time": 576.3541666666824,
                    "velocity": 0.6929133858267716,
                    "duration": 0.5499999999997272
                },
                {
                    "name": "B5",
                    "midi": 83,
                    "time": 576.3625000000158,
                    "velocity": 0.47244094488188976,
                    "duration": 0.4833333333331211
                },
                {
                    "name": "C#5",
                    "midi": 73,
                    "time": 576.3645833333491,
                    "velocity": 0.5984251968503937,
                    "duration": 0.5895833333331666
                },
                {
                    "name": "F5",
                    "midi": 77,
                    "time": 576.3666666666824,
                    "velocity": 0.4566929133858268,
                    "duration": 0.5833333333331439
                },
                {
                    "name": "D6",
                    "midi": 86,
                    "time": 577.2750000000156,
                    "velocity": 0.5826771653543307,
                    "duration": 0.36458333333325754
                },
                {
                    "name": "A#5",
                    "midi": 82,
                    "time": 577.2812500000156,
                    "velocity": 0.41732283464566927,
                    "duration": 0.3874999999998181
                },
                {
                    "name": "E5",
                    "midi": 76,
                    "time": 577.2895833333489,
                    "velocity": 0.2677165354330709,
                    "duration": 0.3687499999998636
                },
                {
                    "name": "C5",
                    "midi": 72,
                    "time": 577.3166666666822,
                    "velocity": 0.36220472440944884,
                    "duration": 0.3249999999999318
                },
                {
                    "name": "F#6",
                    "midi": 90,
                    "time": 577.9937500000154,
                    "velocity": 0.4330708661417323,
                    "duration": 1.1062500000001592
                },
                {
                    "name": "D#5",
                    "midi": 75,
                    "time": 578.0125000000154,
                    "velocity": 0.31496062992125984,
                    "duration": 0.9125000000001364
                },
                {
                    "name": "B4",
                    "midi": 71,
                    "time": 578.0208333333487,
                    "velocity": 0.25984251968503935,
                    "duration": 0.9562500000001819
                },
                {
                    "name": "A5",
                    "midi": 81,
                    "time": 578.0354166666821,
                    "velocity": 0.28346456692913385,
                    "duration": 1.0604166666668107
                },
                {
                    "name": "B3",
                    "midi": 59,
                    "time": 579.4562500000156,
                    "velocity": 0.23622047244094488,
                    "duration": 0.26041666666662877
                },
                {
                    "name": "F#4",
                    "midi": 66,
                    "time": 579.7000000000156,
                    "velocity": 0.4094488188976378,
                    "duration": 0.1395833333333485
                },
                {
                    "name": "B4",
                    "midi": 71,
                    "time": 579.864583333349,
                    "velocity": 0.3858267716535433,
                    "duration": 0.11458333333337123
                },
                {
                    "name": "D#5",
                    "midi": 75,
                    "time": 580.0125000000156,
                    "velocity": 0.4881889763779528,
                    "duration": 0.10625000000004547
                },
                {
                    "name": "A5",
                    "midi": 81,
                    "time": 580.1687500000156,
                    "velocity": 0.3543307086614173,
                    "duration": 0.125
                },
                {
                    "name": "F#6",
                    "midi": 90,
                    "time": 580.3062500000157,
                    "velocity": 0.4881889763779528,
                    "duration": 0.23749999999995453
                },
                {
                    "name": "B6",
                    "midi": 95,
                    "time": 580.5458333333489,
                    "velocity": 0.44881889763779526,
                    "duration": 0.10000000000002274
                },
                {
                    "name": "G#4",
                    "midi": 68,
                    "time": 586.5625000000156,
                    "velocity": 0.44881889763779526,
                    "duration": 0.5854166666665606
                },
                {
                    "name": "B3",
                    "midi": 59,
                    "time": 586.5791666666822,
                    "velocity": 0.3779527559055118,
                    "duration": 0.42916666666656056
                },
                {
                    "name": "E2",
                    "midi": 40,
                    "time": 586.5875000000156,
                    "velocity": 0.1889763779527559,
                    "duration": 2.8020833333332575
                },
                {
                    "name": "G#3",
                    "midi": 56,
                    "time": 586.5875000000156,
                    "velocity": 0.13385826771653545,
                    "duration": 0.44374999999990905
                },
                {
                    "name": "E4",
                    "midi": 64,
                    "time": 586.6062500000155,
                    "velocity": 0.4566929133858268,
                    "duration": 0.502083333333303
                },
                {
                    "name": "E1",
                    "midi": 28,
                    "time": 586.6083333333488,
                    "velocity": 0.1732283464566929,
                    "duration": 2.7229166666667197
                },
                {
                    "name": "A4",
                    "midi": 69,
                    "time": 587.5625000000155,
                    "velocity": 0.6692913385826772,
                    "duration": 0.36875000000009095
                },
                {
                    "name": "B3",
                    "midi": 59,
                    "time": 587.5770833333488,
                    "velocity": 0.4015748031496063,
                    "duration": 0.2937500000000455
                },
                {
                    "name": "A3",
                    "midi": 57,
                    "time": 587.5791666666821,
                    "velocity": 0.3779527559055118,
                    "duration": 0.28750000000002274
                },
                {
                    "name": "F#4",
                    "midi": 66,
                    "time": 587.5791666666821,
                    "velocity": 0.6141732283464567,
                    "duration": 0.2854166666667197
                },
                {
                    "name": "B4",
                    "midi": 71,
                    "time": 588.2500000000156,
                    "velocity": 0.6850393700787402,
                    "duration": 0.24791666666669698
                },
                {
                    "name": "G#4",
                    "midi": 68,
                    "time": 588.2541666666823,
                    "velocity": 0.5275590551181102,
                    "duration": 0.26041666666662877
                },
                {
                    "name": "B3",
                    "midi": 59,
                    "time": 588.2625000000156,
                    "velocity": 0.3700787401574803,
                    "duration": 0.27083333333325754
                },
                {
                    "name": "E4",
                    "midi": 64,
                    "time": 588.2895833333489,
                    "velocity": 0.4881889763779528,
                    "duration": 0.2333333333333485
                },
                {
                    "name": "B3",
                    "midi": 59,
                    "time": 589.0583333333489,
                    "velocity": 0.5590551181102362,
                    "duration": 0.9999999999998863
                },
                {
                    "name": "G#3",
                    "midi": 56,
                    "time": 589.0645833333489,
                    "velocity": 0.4094488188976378,
                    "duration": 1.0541666666665606
                },
                {
                    "name": "B2",
                    "midi": 47,
                    "time": 589.0812500000155,
                    "velocity": 0.2047244094488189,
                    "duration": 0.9416666666664923
                },
                {
                    "name": "E3",
                    "midi": 52,
                    "time": 589.0895833333489,
                    "velocity": 0.4251968503937008,
                    "duration": 0.9979166666665833
                },
                {
                    "name": "G#1",
                    "midi": 32,
                    "time": 589.7208333333488,
                    "velocity": 0.5433070866141733,
                    "duration": 2.820833333333553
                },
                {
                    "name": "G#2",
                    "midi": 44,
                    "time": 589.7229166666821,
                    "velocity": 0.4566929133858268,
                    "duration": 2.7833333333335304
                },
                {
                    "name": "C#4",
                    "midi": 61,
                    "time": 590.4104166666821,
                    "velocity": 0.7637795275590551,
                    "duration": 0.42708333333337123
                },
                {
                    "name": "G#3",
                    "midi": 56,
                    "time": 590.4229166666821,
                    "velocity": 0.5118110236220472,
                    "duration": 0.3875000000000455
                },
                {
                    "name": "C#3",
                    "midi": 49,
                    "time": 590.4375000000155,
                    "velocity": 0.2440944881889764,
                    "duration": 0.33541666666667425
                },
                {
                    "name": "E3",
                    "midi": 52,
                    "time": 590.4437500000155,
                    "velocity": 0.47244094488188976,
                    "duration": 0.3270833333333485
                },
                {
                    "name": "D#4",
                    "midi": 63,
                    "time": 591.1687500000154,
                    "velocity": 0.8267716535433071,
                    "duration": 0.46666666666681067
                },
                {
                    "name": "D#3",
                    "midi": 51,
                    "time": 591.1833333333487,
                    "velocity": 0.5905511811023622,
                    "duration": 0.377083333333303
                },
                {
                    "name": "B3",
                    "midi": 59,
                    "time": 591.1979166666821,
                    "velocity": 0.5511811023622047,
                    "duration": 0.40208333333339397
                },
                {
                    "name": "G#3",
                    "midi": 56,
                    "time": 591.1979166666821,
                    "velocity": 0.5511811023622047,
                    "duration": 0.39791666666667425
                },
                {
                    "name": "E4",
                    "midi": 64,
                    "time": 592.0770833333489,
                    "velocity": 0.7086614173228346,
                    "duration": 0.9812500000000455
                },
                {
                    "name": "B3",
                    "midi": 59,
                    "time": 592.0854166666822,
                    "velocity": 0.5511811023622047,
                    "duration": 0.9875000000000682
                },
                {
                    "name": "E3",
                    "midi": 52,
                    "time": 592.0916666666823,
                    "velocity": 0.4645669291338583,
                    "duration": 0.8812500000000227
                },
                {
                    "name": "G#3",
                    "midi": 56,
                    "time": 592.095833333349,
                    "velocity": 0.6220472440944882,
                    "duration": 0.9291666666666742
                },
                {
                    "name": "F#1",
                    "midi": 30,
                    "time": 592.833333333349,
                    "velocity": 0.6456692913385826,
                    "duration": 0.2979166666666515
                },
                {
                    "name": "F#2",
                    "midi": 42,
                    "time": 592.839583333349,
                    "velocity": 0.5905511811023622,
                    "duration": 0.3562499999999318
                },
                {
                    "name": "A#3",
                    "midi": 58,
                    "time": 593.4854166666822,
                    "velocity": 0.5433070866141733,
                    "duration": 2.2395833333333712
                },
                {
                    "name": "D#4",
                    "midi": 63,
                    "time": 593.4937500000156,
                    "velocity": 0.5275590551181102,
                    "duration": 0.30208333333337123
                },
                {
                    "name": "E3",
                    "midi": 52,
                    "time": 593.4979166666823,
                    "velocity": 0.33070866141732286,
                    "duration": 2.056250000000091
                },
                {
                    "name": "F#4",
                    "midi": 66,
                    "time": 593.5083333333489,
                    "velocity": 0.5196850393700787,
                    "duration": 1.625
                },
                {
                    "name": "D4",
                    "midi": 62,
                    "time": 593.8937500000156,
                    "velocity": 0.2047244094488189,
                    "duration": 0.2375000000000682
                },
                {
                    "name": "C#4",
                    "midi": 61,
                    "time": 594.1166666666824,
                    "velocity": 0.5433070866141733,
                    "duration": 0.345833333333303
                },
                {
                    "name": "D#4",
                    "midi": 63,
                    "time": 594.452083333349,
                    "velocity": 0.6220472440944882,
                    "duration": 0.3291666666666515
                },
                {
                    "name": "D4",
                    "midi": 62,
                    "time": 594.7687500000156,
                    "velocity": 0.6614173228346457,
                    "duration": 0.32291666666662877
                },
                {
                    "name": "C#4",
                    "midi": 61,
                    "time": 595.0729166666823,
                    "velocity": 0.7086614173228346,
                    "duration": 0.18124999999997726
                },
                {
                    "name": "D#4",
                    "midi": 63,
                    "time": 595.2104166666822,
                    "velocity": 0.7401574803149606,
                    "duration": 0.18125000000009095
                },
                {
                    "name": "D4",
                    "midi": 62,
                    "time": 595.339583333349,
                    "velocity": 0.7086614173228346,
                    "duration": 0.345833333333303
                },
                {
                    "name": "C#4",
                    "midi": 61,
                    "time": 595.627083333349,
                    "velocity": 0.8110236220472441,
                    "duration": 0.3229166666665151
                },
                {
                    "name": "D#4",
                    "midi": 63,
                    "time": 595.9000000000156,
                    "velocity": 0.84251968503937,
                    "duration": 0.27291666666656056
                },
                {
                    "name": "B1",
                    "midi": 35,
                    "time": 596.0750000000155,
                    "velocity": 0.5275590551181102,
                    "duration": 2.300000000000182
                },
                {
                    "name": "B2",
                    "midi": 47,
                    "time": 596.1541666666822,
                    "velocity": 0.5039370078740157,
                    "duration": 2.3395833333335077
                },
                {
                    "name": "G4",
                    "midi": 67,
                    "time": 596.2166666666822,
                    "velocity": 0.7637795275590551,
                    "duration": 2.135416666666856
                },
                {
                    "name": "D4",
                    "midi": 62,
                    "time": 596.2208333333489,
                    "velocity": 0.7244094488188977,
                    "duration": 0.19375000000002274
                },
                {
                    "name": "A3",
                    "midi": 57,
                    "time": 596.239583333349,
                    "velocity": 0.49606299212598426,
                    "duration": 2.2395833333333712
                },
                {
                    "name": "C#4",
                    "midi": 61,
                    "time": 596.4062500000156,
                    "velocity": 0.7007874015748031,
                    "duration": 0.18958333333330302
                },
                {
                    "name": "D#4",
                    "midi": 63,
                    "time": 596.5312500000156,
                    "velocity": 0.5511811023622047,
                    "duration": 0.3875000000000455
                },
                {
                    "name": "D4",
                    "midi": 62,
                    "time": 596.8354166666822,
                    "velocity": 0.5905511811023622,
                    "duration": 0.3458333333334167
                },
                {
                    "name": "C#4",
                    "midi": 61,
                    "time": 597.139583333349,
                    "velocity": 0.5826771653543307,
                    "duration": 0.3270833333332348
                },
                {
                    "name": "D#4",
                    "midi": 63,
                    "time": 597.4416666666823,
                    "velocity": 0.5826771653543307,
                    "duration": 0.19375000000002274
                },
                {
                    "name": "D4",
                    "midi": 62,
                    "time": 597.583333333349,
                    "velocity": 0.49606299212598426,
                    "duration": 0.2375000000000682
                },
                {
                    "name": "C#4",
                    "midi": 61,
                    "time": 597.777083333349,
                    "velocity": 0.5669291338582677,
                    "duration": 0.36875000000009095
                },
                {
                    "name": "D#4",
                    "midi": 63,
                    "time": 598.1250000000157,
                    "velocity": 0.5433070866141733,
                    "duration": 0.3604166666666515
                },
                {
                    "name": "D4",
                    "midi": 62,
                    "time": 598.4875000000156,
                    "velocity": 0.4015748031496063,
                    "duration": 0.11458333333337123
                },
                {
                    "name": "E2",
                    "midi": 40,
                    "time": 598.983333333349,
                    "velocity": 0.2283464566929134,
                    "duration": 3.7083333333333712
                },
                {
                    "name": "G#4",
                    "midi": 68,
                    "time": 598.9875000000158,
                    "velocity": 0.6535433070866141,
                    "duration": 3.691666666666606
                },
                {
                    "name": "B2",
                    "midi": 47,
                    "time": 598.9937500000158,
                    "velocity": 0.2440944881889764,
                    "duration": 3.6354166666666288
                },
                {
                    "name": "G#3",
                    "midi": 56,
                    "time": 599.0125000000157,
                    "velocity": 0.30708661417322836,
                    "duration": 3.6812499999999773
                },
                {
                    "name": "C#4",
                    "midi": 61,
                    "time": 599.0291666666824,
                    "velocity": 0.4566929133858268,
                    "duration": 0.25624999999990905
                },
                {
                    "name": "D#4",
                    "midi": 63,
                    "time": 599.2875000000156,
                    "velocity": 0.5118110236220472,
                    "duration": 0.20833333333337123
                },
                {
                    "name": "D4",
                    "midi": 62,
                    "time": 599.5291666666823,
                    "velocity": 0.44881889763779526,
                    "duration": 0.4229166666667652
                },
                {
                    "name": "C#4",
                    "midi": 61,
                    "time": 599.9166666666823,
                    "velocity": 0.49606299212598426,
                    "duration": 0.3562500000000455
                },
                {
                    "name": "D#4",
                    "midi": 63,
                    "time": 600.2437500000157,
                    "velocity": 0.48031496062992124,
                    "duration": 0.29166666666674246
                },
                {
                    "name": "D4",
                    "midi": 62,
                    "time": 600.6041666666824,
                    "velocity": 0.4409448818897638,
                    "duration": 0.1750000000000682
                },
                {
                    "name": "C#4",
                    "midi": 61,
                    "time": 600.7729166666825,
                    "velocity": 0.4881889763779528,
                    "duration": 0.2375000000000682
                },
                {
                    "name": "D#4",
                    "midi": 63,
                    "time": 601.0020833333492,
                    "velocity": 0.49606299212598426,
                    "duration": 0.435416666666697
                },
                {
                    "name": "D4",
                    "midi": 62,
                    "time": 601.4854166666826,
                    "velocity": 0.2677165354330709,
                    "duration": 0.7374999999999545
                },
                {
                    "name": "C#4",
                    "midi": 61,
                    "time": 602.1750000000159,
                    "velocity": 0.31496062992125984,
                    "duration": 0.4645833333331666
                },
                {
                    "name": "G#4",
                    "midi": 68,
                    "time": 603.7416666666824,
                    "velocity": 0.5275590551181102,
                    "duration": 0.6083333333333485
                },
                {
                    "name": "B3",
                    "midi": 59,
                    "time": 603.7791666666824,
                    "velocity": 0.29133858267716534,
                    "duration": 0.49166666666667425
                },
                {
                    "name": "G#3",
                    "midi": 56,
                    "time": 603.7875000000157,
                    "velocity": 0.07874015748031496,
                    "duration": 0.5062500000000227
                },
                {
                    "name": "E4",
                    "midi": 64,
                    "time": 603.7937500000157,
                    "velocity": 0.33070866141732286,
                    "duration": 0.5104166666666288
                },
                {
                    "name": "E1",
                    "midi": 28,
                    "time": 603.795833333349,
                    "velocity": 0.18110236220472442,
                    "duration": 2.6083333333333485
                },
                {
                    "name": "E2",
                    "midi": 40,
                    "time": 603.8875000000157,
                    "velocity": 0.03937007874015748,
                    "duration": 2.5854166666666742
                },
                {
                    "name": "A4",
                    "midi": 69,
                    "time": 604.6187500000157,
                    "velocity": 0.6692913385826772,
                    "duration": 0.3708333333332803
                },
                {
                    "name": "F#4",
                    "midi": 66,
                    "time": 604.633333333349,
                    "velocity": 0.5905511811023622,
                    "duration": 0.310416666666697
                },
                {
                    "name": "A3",
                    "midi": 57,
                    "time": 604.6416666666823,
                    "velocity": 0.33070866141732286,
                    "duration": 0.32083333333332575
                },
                {
                    "name": "B3",
                    "midi": 59,
                    "time": 604.6437500000156,
                    "velocity": 0.33070866141732286,
                    "duration": 0.33749999999997726
                },
                {
                    "name": "B4",
                    "midi": 71,
                    "time": 605.283333333349,
                    "velocity": 0.6929133858267716,
                    "duration": 0.27499999999997726
                },
                {
                    "name": "G#4",
                    "midi": 68,
                    "time": 605.283333333349,
                    "velocity": 0.5118110236220472,
                    "duration": 0.2854166666667197
                },
                {
                    "name": "B3",
                    "midi": 59,
                    "time": 605.2875000000157,
                    "velocity": 0.44881889763779526,
                    "duration": 0.27499999999997726
                },
                {
                    "name": "E4",
                    "midi": 64,
                    "time": 605.3166666666824,
                    "velocity": 0.5196850393700787,
                    "duration": 0.25416666666660603
                },
                {
                    "name": "G#3",
                    "midi": 56,
                    "time": 606.089583333349,
                    "velocity": 0.4015748031496063,
                    "duration": 1.0416666666666288
                },
                {
                    "name": "B3",
                    "midi": 59,
                    "time": 606.0916666666823,
                    "velocity": 0.5748031496062992,
                    "duration": 0.9604166666666742
                },
                {
                    "name": "B2",
                    "midi": 47,
                    "time": 606.1062500000156,
                    "velocity": 0.33070866141732286,
                    "duration": 0.9229166666666515
                },
                {
                    "name": "E3",
                    "midi": 52,
                    "time": 606.1375000000156,
                    "velocity": 0.3543307086614173,
                    "duration": 0.966666666666697
                },
                {
                    "name": "G#1",
                    "midi": 32,
                    "time": 606.7166666666824,
                    "velocity": 0.5984251968503937,
                    "duration": 1.8291666666667652
                },
                {
                    "name": "G#2",
                    "midi": 44,
                    "time": 606.7250000000157,
                    "velocity": 0.36220472440944884,
                    "duration": 1.8500000000001364
                },
                {
                    "name": "C#4",
                    "midi": 61,
                    "time": 607.3854166666823,
                    "velocity": 0.8110236220472441,
                    "duration": 0.3750000000001137
                },
                {
                    "name": "G#3",
                    "midi": 56,
                    "time": 607.4000000000157,
                    "velocity": 0.5669291338582677,
                    "duration": 0.32083333333343944
                },
                {
                    "name": "E3",
                    "midi": 52,
                    "time": 607.4041666666824,
                    "velocity": 0.5511811023622047,
                    "duration": 0.2625000000000455
                },
                {
                    "name": "C#3",
                    "midi": 49,
                    "time": 607.4083333333491,
                    "velocity": 0.33858267716535434,
                    "duration": 0.27499999999997726
                },
                {
                    "name": "D#4",
                    "midi": 63,
                    "time": 608.0812500000158,
                    "velocity": 0.8346456692913385,
                    "duration": 0.41458333333343944
                },
                {
                    "name": "D#3",
                    "midi": 51,
                    "time": 608.1000000000157,
                    "velocity": 0.6456692913385826,
                    "duration": 0.3583333333334622
                },
                {
                    "name": "B3",
                    "midi": 59,
                    "time": 608.1000000000157,
                    "velocity": 0.6141732283464567,
                    "duration": 0.3937500000001819
                },
                {
                    "name": "G#3",
                    "midi": 56,
                    "time": 608.108333333349,
                    "velocity": 0.5826771653543307,
                    "duration": 0.33958333333350765
                },
                {
                    "name": "E4",
                    "midi": 64,
                    "time": 608.9500000000158,
                    "velocity": 0.8110236220472441,
                    "duration": 0.5604166666665833
                },
                {
                    "name": "B3",
                    "midi": 59,
                    "time": 608.9520833333492,
                    "velocity": 0.6692913385826772,
                    "duration": 0.5291666666665833
                },
                {
                    "name": "E3",
                    "midi": 52,
                    "time": 608.9625000000158,
                    "velocity": 0.6850393700787402,
                    "duration": 0.42708333333325754
                },
                {
                    "name": "G#3",
                    "midi": 56,
                    "time": 608.9645833333491,
                    "velocity": 0.6929133858267716,
                    "duration": 0.4833333333332348
                },
                {
                    "name": "D3",
                    "midi": 50,
                    "time": 608.9645833333491,
                    "velocity": 0.7086614173228346,
                    "duration": 0.5124999999999318
                },
                {
                    "name": "D2",
                    "midi": 38,
                    "time": 608.9729166666824,
                    "velocity": 0.6771653543307087,
                    "duration": 0.558333333333394
                },
                {
                    "name": "C#3",
                    "midi": 49,
                    "time": 610.0187500000158,
                    "velocity": 0.4330708661417323,
                    "duration": 2.5500000000002956
                },
                {
                    "name": "C#2",
                    "midi": 37,
                    "time": 610.0333333333491,
                    "velocity": 0.4566929133858268,
                    "duration": 2.450000000000273
                },
                {
                    "name": "A4",
                    "midi": 69,
                    "time": 610.0333333333491,
                    "velocity": 0.7086614173228346,
                    "duration": 2.4875000000002956
                },
                {
                    "name": "F#4",
                    "midi": 66,
                    "time": 610.0375000000158,
                    "velocity": 0.6771653543307087,
                    "duration": 0.4250000000000682
                },
                {
                    "name": "C#4",
                    "midi": 61,
                    "time": 610.0479166666825,
                    "velocity": 0.5905511811023622,
                    "duration": 2.627083333333644
                },
                {
                    "name": "A3",
                    "midi": 57,
                    "time": 610.0479166666825,
                    "velocity": 0.3700787401574803,
                    "duration": 2.579166666666879
                },
                {
                    "name": "F4",
                    "midi": 65,
                    "time": 610.4916666666826,
                    "velocity": 0.5590551181102362,
                    "duration": 0.15416666666669698
                },
                {
                    "name": "E4",
                    "midi": 64,
                    "time": 610.7541666666826,
                    "velocity": 0.6141732283464567,
                    "duration": 0.25625000000002274
                },
                {
                    "name": "F#4",
                    "midi": 66,
                    "time": 611.1104166666827,
                    "velocity": 0.6535433070866141,
                    "duration": 0.3416666666665833
                },
                {
                    "name": "F4",
                    "midi": 65,
                    "time": 611.425000000016,
                    "velocity": 0.6692913385826772,
                    "duration": 0.252083333333303
                },
                {
                    "name": "E4",
                    "midi": 64,
                    "time": 611.7041666666826,
                    "velocity": 0.5905511811023622,
                    "duration": 0.18333333333328028
                },
                {
                    "name": "F#4",
                    "midi": 66,
                    "time": 611.8458333333492,
                    "velocity": 0.7559055118110236,
                    "duration": 0.16666666666662877
                },
                {
                    "name": "F4",
                    "midi": 65,
                    "time": 611.9833333333492,
                    "velocity": 0.6771653543307087,
                    "duration": 0.3354166666669016
                },
                {
                    "name": "E4",
                    "midi": 64,
                    "time": 612.2833333333493,
                    "velocity": 0.6377952755905512,
                    "duration": 0.3875000000000455
                },
                {
                    "name": "F#4",
                    "midi": 66,
                    "time": 612.618750000016,
                    "velocity": 0.6850393700787402,
                    "duration": 0.17708333333337123
                },
                {
                    "name": "G#2",
                    "midi": 44,
                    "time": 612.8083333333494,
                    "velocity": 0.47244094488188976,
                    "duration": 3.3833333333333258
                },
                {
                    "name": "F3",
                    "midi": 53,
                    "time": 613.0625000000161,
                    "velocity": 0.33070866141732286,
                    "duration": 3.0270833333332803
                },
                {
                    "name": "F4",
                    "midi": 65,
                    "time": 613.0833333333495,
                    "velocity": 0.4645669291338583,
                    "duration": 0.21666666666669698
                },
                {
                    "name": "B4",
                    "midi": 71,
                    "time": 613.0875000000162,
                    "velocity": 0.5826771653543307,
                    "duration": 3.104166666666515
                },
                {
                    "name": "B3",
                    "midi": 59,
                    "time": 613.1125000000162,
                    "velocity": 0.2283464566929134,
                    "duration": 2.9999999999998863
                },
                {
                    "name": "E4",
                    "midi": 64,
                    "time": 613.3104166666828,
                    "velocity": 0.4094488188976378,
                    "duration": 0.470833333333303
                },
                {
                    "name": "F#4",
                    "midi": 66,
                    "time": 613.4750000000162,
                    "velocity": 0.6377952755905512,
                    "duration": 0.375
                },
                {
                    "name": "F4",
                    "midi": 65,
                    "time": 613.8041666666828,
                    "velocity": 0.5196850393700787,
                    "duration": 0.341666666666697
                },
                {
                    "name": "E4",
                    "midi": 64,
                    "time": 614.1229166666828,
                    "velocity": 0.47244094488188976,
                    "duration": 0.42708333333337123
                },
                {
                    "name": "F#4",
                    "midi": 66,
                    "time": 614.4312500000162,
                    "velocity": 0.5669291338582677,
                    "duration": 0.21458333333328028
                },
                {
                    "name": "F4",
                    "midi": 65,
                    "time": 614.6145833333495,
                    "velocity": 0.5118110236220472,
                    "duration": 0.3104166666665833
                },
                {
                    "name": "E4",
                    "midi": 64,
                    "time": 614.8520833333495,
                    "velocity": 0.44881889763779526,
                    "duration": 0.5437499999999318
                },
                {
                    "name": "F#4",
                    "midi": 66,
                    "time": 615.250000000016,
                    "velocity": 0.4645669291338583,
                    "duration": 0.587500000000091
                },
                {
                    "name": "F4",
                    "midi": 65,
                    "time": 615.8166666666827,
                    "velocity": 0.3464566929133858,
                    "duration": 0.439583333333303
                },
                {
                    "name": "F#2",
                    "midi": 42,
                    "time": 616.7916666666828,
                    "velocity": 0.3858267716535433,
                    "duration": 2.060416666666697
                },
                {
                    "name": "C#5",
                    "midi": 73,
                    "time": 616.7979166666828,
                    "velocity": 0.7874015748031497,
                    "duration": 0.6083333333333485
                },
                {
                    "name": "F#1",
                    "midi": 30,
                    "time": 616.8020833333495,
                    "velocity": 0.36220472440944884,
                    "duration": 1.974999999999909
                },
                {
                    "name": "A4",
                    "midi": 69,
                    "time": 616.8145833333496,
                    "velocity": 0.5196850393700787,
                    "duration": 0.5729166666666288
                },
                {
                    "name": "C#4",
                    "midi": 61,
                    "time": 616.8145833333496,
                    "velocity": 0.47244094488188976,
                    "duration": 0.5375000000000227
                },
                {
                    "name": "E4",
                    "midi": 64,
                    "time": 616.8270833333496,
                    "velocity": 0.49606299212598426,
                    "duration": 0.5437499999999318
                },
                {
                    "name": "D#5",
                    "midi": 75,
                    "time": 617.7104166666828,
                    "velocity": 0.8503937007874016,
                    "duration": 0.3250000000000455
                },
                {
                    "name": "B4",
                    "midi": 71,
                    "time": 617.7229166666829,
                    "velocity": 0.7007874015748031,
                    "duration": 0.21249999999997726
                },
                {
                    "name": "D#4",
                    "midi": 63,
                    "time": 617.7250000000162,
                    "velocity": 0.7244094488188977,
                    "duration": 0.21458333333339397
                },
                {
                    "name": "E5",
                    "midi": 76,
                    "time": 618.3729166666828,
                    "velocity": 0.8110236220472441,
                    "duration": 0.33541666666667425
                },
                {
                    "name": "C#5",
                    "midi": 73,
                    "time": 618.3791666666829,
                    "velocity": 0.6614173228346457,
                    "duration": 0.36458333333325754
                },
                {
                    "name": "E4",
                    "midi": 64,
                    "time": 618.3916666666829,
                    "velocity": 0.5275590551181102,
                    "duration": 0.30624999999997726
                },
                {
                    "name": "A4",
                    "midi": 69,
                    "time": 618.4062500000163,
                    "velocity": 0.5354330708661418,
                    "duration": 0.33541666666656056
                },
                {
                    "name": "E4",
                    "midi": 64,
                    "time": 619.2270833333495,
                    "velocity": 0.7322834645669292,
                    "duration": 0.283333333333303
                },
                {
                    "name": "E3",
                    "midi": 52,
                    "time": 619.2312500000162,
                    "velocity": 0.4015748031496063,
                    "duration": 0.40625
                },
                {
                    "name": "C#4",
                    "midi": 61,
                    "time": 619.2416666666828,
                    "velocity": 0.6692913385826772,
                    "duration": 0.33333333333337123
                },
                {
                    "name": "A3",
                    "midi": 57,
                    "time": 619.2604166666828,
                    "velocity": 0.4094488188976378,
                    "duration": 0.30416666666667425
                },
                {
                    "name": "E4",
                    "midi": 64,
                    "time": 619.5708333333495,
                    "velocity": 0.3779527559055118,
                    "duration": 1.0458333333332348
                },
                {
                    "name": "D#4",
                    "midi": 63,
                    "time": 619.6062500000162,
                    "velocity": 0.7244094488188977,
                    "duration": 0.2312499999999318
                },
                {
                    "name": "C#4",
                    "midi": 61,
                    "time": 619.8270833333495,
                    "velocity": 0.8346456692913385,
                    "duration": 0.14374999999995453
                },
                {
                    "name": "A1",
                    "midi": 33,
                    "time": 620.0833333333494,
                    "velocity": 0.31496062992125984,
                    "duration": 2.331250000000068
                },
                {
                    "name": "C4",
                    "midi": 60,
                    "time": 620.1145833333494,
                    "velocity": 0.7322834645669292,
                    "duration": 0.5145833333333485
                },
                {
                    "name": "E3",
                    "midi": 52,
                    "time": 620.1375000000161,
                    "velocity": 0.5118110236220472,
                    "duration": 0.3895833333333485
                },
                {
                    "name": "A2",
                    "midi": 45,
                    "time": 620.1437500000161,
                    "velocity": 0.3543307086614173,
                    "duration": 2.2354166666666515
                },
                {
                    "name": "F#4",
                    "midi": 66,
                    "time": 620.9333333333494,
                    "velocity": 0.8267716535433071,
                    "duration": 0.3249999999999318
                },
                {
                    "name": "F#3",
                    "midi": 54,
                    "time": 620.9604166666827,
                    "velocity": 0.5196850393700787,
                    "duration": 0.252083333333303
                },
                {
                    "name": "C4",
                    "midi": 60,
                    "time": 620.9791666666827,
                    "velocity": 0.47244094488188976,
                    "duration": 0.2666666666666515
                },
                {
                    "name": "G#4",
                    "midi": 68,
                    "time": 621.5354166666826,
                    "velocity": 0.8346456692913385,
                    "duration": 0.22916666666674246
                },
                {
                    "name": "E4",
                    "midi": 64,
                    "time": 621.550000000016,
                    "velocity": 0.6220472440944882,
                    "duration": 0.15000000000009095
                },
                {
                    "name": "C4",
                    "midi": 60,
                    "time": 621.5541666666827,
                    "velocity": 0.6220472440944882,
                    "duration": 0.08541666666667425
                },
                {
                    "name": "G#3",
                    "midi": 56,
                    "time": 621.5604166666827,
                    "velocity": 0.36220472440944884,
                    "duration": 0.07708333333334849
                },
                {
                    "name": "A4",
                    "midi": 69,
                    "time": 622.0895833333494,
                    "velocity": 0.6456692913385826,
                    "duration": 0.341666666666697
                },
                {
                    "name": "A3",
                    "midi": 57,
                    "time": 622.1083333333494,
                    "velocity": 0.44881889763779526,
                    "duration": 0.08750000000009095
                },
                {
                    "name": "E4",
                    "midi": 64,
                    "time": 622.1104166666827,
                    "velocity": 0.5748031496062992,
                    "duration": 0.2812500000001137
                },
                {
                    "name": "C4",
                    "midi": 60,
                    "time": 622.1229166666827,
                    "velocity": 0.6535433070866141,
                    "duration": 0.23125000000004547
                },
                {
                    "name": "G#1",
                    "midi": 32,
                    "time": 622.7125000000161,
                    "velocity": 0.4094488188976378,
                    "duration": 3.045833333333576
                },
                {
                    "name": "B4",
                    "midi": 71,
                    "time": 622.7166666666828,
                    "velocity": 0.7637795275590551,
                    "duration": 0.37083333333339397
                },
                {
                    "name": "G#4",
                    "midi": 68,
                    "time": 622.7208333333496,
                    "velocity": 0.5590551181102362,
                    "duration": 0.4187500000000455
                },
                {
                    "name": "B3",
                    "midi": 59,
                    "time": 622.7270833333496,
                    "velocity": 0.5826771653543307,
                    "duration": 0.30624999999997726
                },
                {
                    "name": "G#2",
                    "midi": 44,
                    "time": 622.7312500000163,
                    "velocity": 0.33858267716535434,
                    "duration": 2.4979166666668107
                },
                {
                    "name": "E4",
                    "midi": 64,
                    "time": 622.7416666666829,
                    "velocity": 0.5590551181102362,
                    "duration": 0.3583333333333485
                },
                {
                    "name": "C#5",
                    "midi": 73,
                    "time": 623.316666666683,
                    "velocity": 0.7952755905511811,
                    "duration": 0.39583333333325754
                },
                {
                    "name": "G#4",
                    "midi": 68,
                    "time": 623.3270833333496,
                    "velocity": 0.6062992125984252,
                    "duration": 0.2687499999999545
                },
                {
                    "name": "E4",
                    "midi": 64,
                    "time": 623.3333333333496,
                    "velocity": 0.5275590551181102,
                    "duration": 0.21249999999997726
                },
                {
                    "name": "C#4",
                    "midi": 61,
                    "time": 623.3520833333496,
                    "velocity": 0.3858267716535433,
                    "duration": 0.19583333333332575
                },
                {
                    "name": "D#5",
                    "midi": 75,
                    "time": 624.0375000000163,
                    "velocity": 0.7322834645669292,
                    "duration": 0.4062500000001137
                },
                {
                    "name": "D#4",
                    "midi": 63,
                    "time": 624.0500000000163,
                    "velocity": 0.4330708661417323,
                    "duration": 0.36875000000009095
                },
                {
                    "name": "B4",
                    "midi": 71,
                    "time": 624.054166666683,
                    "velocity": 0.4645669291338583,
                    "duration": 0.40208333333339397
                },
                {
                    "name": "G#4",
                    "midi": 68,
                    "time": 624.0625000000164,
                    "velocity": 0.44881889763779526,
                    "duration": 0.4062500000001137
                },
                {
                    "name": "D#4",
                    "midi": 63,
                    "time": 624.8958333333499,
                    "velocity": 0.6771653543307087,
                    "duration": 1.3083333333332803
                },
                {
                    "name": "D#3",
                    "midi": 51,
                    "time": 624.9145833333498,
                    "velocity": 0.3543307086614173,
                    "duration": 1.2145833333332803
                },
                {
                    "name": "A#3",
                    "midi": 58,
                    "time": 624.9229166666831,
                    "velocity": 0.4566929133858268,
                    "duration": 0.49166666666667425
                },
                {
                    "name": "C#4",
                    "midi": 61,
                    "time": 625.1979166666831,
                    "velocity": 0.6299212598425197,
                    "duration": 0.28750000000002274
                },
                {
                    "name": "C4",
                    "midi": 60,
                    "time": 625.4333333333498,
                    "velocity": 0.6299212598425197,
                    "duration": 0.2333333333333485
                },
                {
                    "name": "C#2",
                    "midi": 37,
                    "time": 625.6687500000164,
                    "velocity": 0.3464566929133858,
                    "duration": 3.1083333333333485
                },
                {
                    "name": "B3",
                    "midi": 59,
                    "time": 625.6833333333498,
                    "velocity": 0.4409448818897638,
                    "duration": 0.44166666666660603
                },
                {
                    "name": "G#2",
                    "midi": 44,
                    "time": 625.6979166666831,
                    "velocity": 0.2992125984251969,
                    "duration": 3.1458333333333712
                },
                {
                    "name": "E4",
                    "midi": 64,
                    "time": 626.4000000000165,
                    "velocity": 0.6535433070866141,
                    "duration": 0.44583333333321207
                },
                {
                    "name": "G#3",
                    "midi": 56,
                    "time": 626.4041666666832,
                    "velocity": 0.49606299212598426,
                    "duration": 0.41249999999990905
                },
                {
                    "name": "B3",
                    "midi": 59,
                    "time": 626.4083333333499,
                    "velocity": 0.4881889763779528,
                    "duration": 0.4187499999998181
                },
                {
                    "name": "E3",
                    "midi": 52,
                    "time": 626.4270833333499,
                    "velocity": 0.2283464566929134,
                    "duration": 0.35208333333321207
                },
                {
                    "name": "F#4",
                    "midi": 66,
                    "time": 627.229166666683,
                    "velocity": 0.5354330708661418,
                    "duration": 0.560416666666697
                },
                {
                    "name": "F#3",
                    "midi": 54,
                    "time": 627.2437500000163,
                    "velocity": 0.3543307086614173,
                    "duration": 0.5395833333333258
                },
                {
                    "name": "B3",
                    "midi": 59,
                    "time": 627.2562500000164,
                    "velocity": 0.3858267716535433,
                    "duration": 0.5791666666666515
                },
                {
                    "name": "E4",
                    "midi": 64,
                    "time": 627.2750000000163,
                    "velocity": 0.36220472440944884,
                    "duration": 0.5812500000000682
                },
                {
                    "name": "G#4",
                    "midi": 68,
                    "time": 628.2125000000165,
                    "velocity": 0.4094488188976378,
                    "duration": 1.7000000000000455
                },
                {
                    "name": "B3",
                    "midi": 59,
                    "time": 628.2291666666831,
                    "velocity": 0.3700787401574803,
                    "duration": 0.745833333333394
                },
                {
                    "name": "G#3",
                    "midi": 56,
                    "time": 628.2375000000164,
                    "velocity": 0.25984251968503935,
                    "duration": 0.5541666666666742
                },
                {
                    "name": "E4",
                    "midi": 64,
                    "time": 628.2687500000164,
                    "velocity": 0.31496062992125984,
                    "duration": 0.7687500000000682
                },
                {
                    "name": "F#2",
                    "midi": 42,
                    "time": 629.5270833333499,
                    "velocity": 0.3228346456692913,
                    "duration": 6.097916666666492
                },
                {
                    "name": "C#3",
                    "midi": 49,
                    "time": 629.6687500000165,
                    "velocity": 0.3858267716535433,
                    "duration": 5.974999999999795
                },
                {
                    "name": "A#3",
                    "midi": 58,
                    "time": 629.8520833333498,
                    "velocity": 0.4015748031496063,
                    "duration": 1.410416666666606
                },
                {
                    "name": "E4",
                    "midi": 64,
                    "time": 629.9250000000166,
                    "velocity": 0.4251968503937008,
                    "duration": 1.4229166666665378
                },
                {
                    "name": "G#4",
                    "midi": 68,
                    "time": 630.9270833333499,
                    "velocity": 0.6535433070866141,
                    "duration": 0.4854166666665378
                },
                {
                    "name": "C#5",
                    "midi": 73,
                    "time": 631.7395833333497,
                    "velocity": 0.6299212598425197,
                    "duration": 1.127083333333303
                },
                {
                    "name": "D#5",
                    "midi": 75,
                    "time": 632.7583333333497,
                    "velocity": 0.6692913385826772,
                    "duration": 0.7375000000000682
                },
                {
                    "name": "E5",
                    "midi": 76,
                    "time": 633.4416666666831,
                    "velocity": 0.7637795275590551,
                    "duration": 0.8187500000000227
                },
                {
                    "name": "F#5",
                    "midi": 78,
                    "time": 634.0729166666831,
                    "velocity": 0.7559055118110236,
                    "duration": 0.5812499999999545
                },
                {
                    "name": "C#5",
                    "midi": 73,
                    "time": 634.5583333333498,
                    "velocity": 0.8110236220472441,
                    "duration": 0.504166666666606
                },
                {
                    "name": "D#5",
                    "midi": 75,
                    "time": 634.9937500000163,
                    "velocity": 0.8503937007874016,
                    "duration": 0.627083333333303
                },
                {
                    "name": "F#5",
                    "midi": 78,
                    "time": 635.547916666683,
                    "velocity": 0.7322834645669292,
                    "duration": 0.4833333333333485
                },
                {
                    "name": "F#2",
                    "midi": 42,
                    "time": 636.4020833333497,
                    "velocity": 0.2755905511811024,
                    "duration": 0.5645833333334167
                },
                {
                    "name": "C#3",
                    "midi": 49,
                    "time": 636.4437500000163,
                    "velocity": 0.2755905511811024,
                    "duration": 0.5854166666667879
                },
                {
                    "name": "E4",
                    "midi": 64,
                    "time": 636.5270833333497,
                    "velocity": 0.5590551181102362,
                    "duration": 1.0687500000001364
                },
                {
                    "name": "A#3",
                    "midi": 58,
                    "time": 636.5270833333497,
                    "velocity": 0.4566929133858268,
                    "duration": 0.435416666666697
                },
                {
                    "name": "F2",
                    "midi": 41,
                    "time": 637.7979166666831,
                    "velocity": 0.2440944881889764,
                    "duration": 4.720833333333189
                },
                {
                    "name": "D#4",
                    "midi": 63,
                    "time": 637.8312500000164,
                    "velocity": 0.4566929133858268,
                    "duration": 0.7437499999999773
                },
                {
                    "name": "C3",
                    "midi": 48,
                    "time": 637.8520833333498,
                    "velocity": 0.1889763779527559,
                    "duration": 4.954166666666538
                },
                {
                    "name": "A3",
                    "midi": 57,
                    "time": 637.8687500000165,
                    "velocity": 0.25196850393700787,
                    "duration": 0.5729166666666288
                },
                {
                    "name": "G4",
                    "midi": 67,
                    "time": 638.7625000000164,
                    "velocity": 0.48031496062992124,
                    "duration": 0.8291666666666515
                },
                {
                    "name": "C5",
                    "midi": 72,
                    "time": 639.272916666683,
                    "velocity": 0.6614173228346457,
                    "duration": 0.7541666666667197
                },
                {
                    "name": "D5",
                    "midi": 74,
                    "time": 639.9020833333498,
                    "velocity": 0.7716535433070866,
                    "duration": 0.8083333333332803
                },
                {
                    "name": "D#5",
                    "midi": 75,
                    "time": 640.6312500000164,
                    "velocity": 0.8188976377952756,
                    "duration": 1.002083333333303
                },
                {
                    "name": "F5",
                    "midi": 77,
                    "time": 641.5062500000164,
                    "velocity": 0.6220472440944882,
                    "duration": 0.7645833333332348
                },
                {
                    "name": "C5",
                    "midi": 72,
                    "time": 642.1437500000163,
                    "velocity": 0.6614173228346457,
                    "duration": 0.652083333333394
                },
                {
                    "name": "D5",
                    "midi": 74,
                    "time": 642.7437500000163,
                    "velocity": 0.8346456692913385,
                    "duration": 0.8104166666669244
                },
                {
                    "name": "F2",
                    "midi": 41,
                    "time": 642.9354166666831,
                    "velocity": 0.7637795275590551,
                    "duration": 0.40208333333350765
                },
                {
                    "name": "B2",
                    "midi": 47,
                    "time": 643.3333333333499,
                    "velocity": 0.5984251968503937,
                    "duration": 1.5416666666667425
                },
                {
                    "name": "A3",
                    "midi": 57,
                    "time": 643.45208333335,
                    "velocity": 0.6299212598425197,
                    "duration": 1.2583333333333258
                },
                {
                    "name": "F5",
                    "midi": 77,
                    "time": 643.4604166666833,
                    "velocity": 0.7874015748031497,
                    "duration": 0.6729166666666515
                },
                {
                    "name": "F#5",
                    "midi": 78,
                    "time": 644.6187500000166,
                    "velocity": 0.8661417322834646,
                    "duration": 1.3187500000001364
                },
                {
                    "name": "E1",
                    "midi": 28,
                    "time": 645.75208333335,
                    "velocity": 0.7716535433070866,
                    "duration": 0.2854166666667197
                },
                {
                    "name": "E2",
                    "midi": 40,
                    "time": 645.7604166666833,
                    "velocity": 0.7244094488188977,
                    "duration": 0.3291666666667652
                },
                {
                    "name": "G#5",
                    "midi": 80,
                    "time": 646.4520833333501,
                    "velocity": 0.7874015748031497,
                    "duration": 0.4791666666665151
                },
                {
                    "name": "E4",
                    "midi": 64,
                    "time": 646.4604166666834,
                    "velocity": 0.5433070866141733,
                    "duration": 0.5541666666664469
                },
                {
                    "name": "G#3",
                    "midi": 56,
                    "time": 646.4625000000167,
                    "velocity": 0.4330708661417323,
                    "duration": 0.8645833333331439
                },
                {
                    "name": "B4",
                    "midi": 71,
                    "time": 646.46458333335,
                    "velocity": 0.5984251968503937,
                    "duration": 0.375
                },
                {
                    "name": "E5",
                    "midi": 76,
                    "time": 646.46458333335,
                    "velocity": 0.5984251968503937,
                    "duration": 0.47708333333321207
                },
                {
                    "name": "G#4",
                    "midi": 68,
                    "time": 646.4666666666833,
                    "velocity": 0.5354330708661418,
                    "duration": 0.41458333333332575
                },
                {
                    "name": "B3",
                    "midi": 59,
                    "time": 646.4729166666833,
                    "velocity": 0.5984251968503937,
                    "duration": 0.6041666666665151
                },
                {
                    "name": "A5",
                    "midi": 81,
                    "time": 647.4020833333499,
                    "velocity": 0.8188976377952756,
                    "duration": 0.3437500000001137
                },
                {
                    "name": "F#4",
                    "midi": 66,
                    "time": 647.4125000000165,
                    "velocity": 0.6299212598425197,
                    "duration": 0.44791666666685614
                },
                {
                    "name": "F#5",
                    "midi": 78,
                    "time": 647.4125000000165,
                    "velocity": 0.7637795275590551,
                    "duration": 0.27916666666681067
                },
                {
                    "name": "B3",
                    "midi": 59,
                    "time": 647.4187500000165,
                    "velocity": 0.5196850393700787,
                    "duration": 0.3166666666668334
                },
                {
                    "name": "A4",
                    "midi": 69,
                    "time": 647.4229166666832,
                    "velocity": 0.6771653543307087,
                    "duration": 0.21458333333339397
                },
                {
                    "name": "B4",
                    "midi": 71,
                    "time": 647.4229166666832,
                    "velocity": 0.7559055118110236,
                    "duration": 0.20000000000004547
                },
                {
                    "name": "A3",
                    "midi": 57,
                    "time": 647.4312500000166,
                    "velocity": 0.3779527559055118,
                    "duration": 0.26041666666674246
                },
                {
                    "name": "B5",
                    "midi": 83,
                    "time": 648.0979166666833,
                    "velocity": 0.8346456692913385,
                    "duration": 0.2875000000001364
                },
                {
                    "name": "G#5",
                    "midi": 80,
                    "time": 648.10833333335,
                    "velocity": 0.7322834645669292,
                    "duration": 0.30416666666678793
                },
                {
                    "name": "G#4",
                    "midi": 68,
                    "time": 648.1104166666832,
                    "velocity": 0.6692913385826772,
                    "duration": 0.29375000000015916
                },
                {
                    "name": "B4",
                    "midi": 71,
                    "time": 648.1104166666832,
                    "velocity": 0.6377952755905512,
                    "duration": 0.30625000000020464
                },
                {
                    "name": "E5",
                    "midi": 76,
                    "time": 648.1229166666833,
                    "velocity": 0.6771653543307087,
                    "duration": 0.29375000000015916
                },
                {
                    "name": "B3",
                    "midi": 59,
                    "time": 648.1333333333499,
                    "velocity": 0.36220472440944884,
                    "duration": 0.3500000000001364
                },
                {
                    "name": "E4",
                    "midi": 64,
                    "time": 648.1375000000166,
                    "velocity": 0.5826771653543307,
                    "duration": 0.30416666666678793
                },
                {
                    "name": "G#4",
                    "midi": 68,
                    "time": 648.8000000000168,
                    "velocity": 0.7559055118110236,
                    "duration": 1.1145833333333712
                },
                {
                    "name": "B4",
                    "midi": 71,
                    "time": 648.8020833333501,
                    "velocity": 0.8110236220472441,
                    "duration": 1.0416666666667425
                },
                {
                    "name": "B3",
                    "midi": 59,
                    "time": 648.8020833333501,
                    "velocity": 0.7559055118110236,
                    "duration": 1.0062500000000227
                },
                {
                    "name": "G#3",
                    "midi": 56,
                    "time": 648.8083333333501,
                    "velocity": 0.7874015748031497,
                    "duration": 0.21458333333339397
                },
                {
                    "name": "B2",
                    "midi": 47,
                    "time": 648.8145833333501,
                    "velocity": 0.5984251968503937,
                    "duration": 0.2937500000000455
                },
                {
                    "name": "E4",
                    "midi": 64,
                    "time": 648.8145833333501,
                    "velocity": 0.7165354330708661,
                    "duration": 1.0541666666666742
                },
                {
                    "name": "E3",
                    "midi": 52,
                    "time": 648.8187500000168,
                    "velocity": 0.7007874015748031,
                    "duration": 0.24583333333328028
                },
                {
                    "name": "G#2",
                    "midi": 44,
                    "time": 649.4583333333502,
                    "velocity": 0.8661417322834646,
                    "duration": 0.44583333333332575
                },
                {
                    "name": "G#1",
                    "midi": 32,
                    "time": 649.4604166666835,
                    "velocity": 0.8110236220472441,
                    "duration": 0.377083333333303
                },
                {
                    "name": "C#5",
                    "midi": 73,
                    "time": 650.2000000000169,
                    "velocity": 0.8661417322834646,
                    "duration": 0.44375000000002274
                },
                {
                    "name": "G#3",
                    "midi": 56,
                    "time": 650.2020833333502,
                    "velocity": 0.6929133858267716,
                    "duration": 0.4875000000000682
                },
                {
                    "name": "G#4",
                    "midi": 68,
                    "time": 650.2083333333502,
                    "velocity": 0.6850393700787402,
                    "duration": 0.39583333333337123
                },
                {
                    "name": "E4",
                    "midi": 64,
                    "time": 650.2104166666835,
                    "velocity": 0.6771653543307087,
                    "duration": 0.341666666666697
                },
                {
                    "name": "C#4",
                    "midi": 61,
                    "time": 650.2125000000168,
                    "velocity": 0.6692913385826772,
                    "duration": 0.38333333333343944
                },
                {
                    "name": "C#3",
                    "midi": 49,
                    "time": 650.2166666666835,
                    "velocity": 0.5275590551181102,
                    "duration": 0.5666666666667197
                },
                {
                    "name": "E3",
                    "midi": 52,
                    "time": 650.2291666666836,
                    "velocity": 0.5590551181102362,
                    "duration": 0.43124999999997726
                },
                {
                    "name": "D#5",
                    "midi": 75,
                    "time": 650.9687500000169,
                    "velocity": 0.8818897637795275,
                    "duration": 0.5437500000000455
                },
                {
                    "name": "G#3",
                    "midi": 56,
                    "time": 650.9770833333503,
                    "velocity": 0.7559055118110236,
                    "duration": 0.7895833333334394
                },
                {
                    "name": "B4",
                    "midi": 71,
                    "time": 650.9791666666836,
                    "velocity": 0.7165354330708661,
                    "duration": 0.5395833333334394
                },
                {
                    "name": "D#4",
                    "midi": 63,
                    "time": 650.9791666666836,
                    "velocity": 0.8503937007874016,
                    "duration": 0.5125000000000455
                },
                {
                    "name": "B3",
                    "midi": 59,
                    "time": 650.9812500000169,
                    "velocity": 0.7165354330708661,
                    "duration": 0.7750000000002046
                },
                {
                    "name": "D#3",
                    "midi": 51,
                    "time": 650.9812500000169,
                    "velocity": 0.7874015748031497,
                    "duration": 0.8770833333335304
                },
                {
                    "name": "G#4",
                    "midi": 68,
                    "time": 650.9812500000169,
                    "velocity": 0.7637795275590551,
                    "duration": 0.5750000000001592
                },
                {
                    "name": "E5",
                    "midi": 76,
                    "time": 651.8354166666837,
                    "velocity": 0.8503937007874016,
                    "duration": 0.9187500000000455
                },
                {
                    "name": "B4",
                    "midi": 71,
                    "time": 651.8354166666837,
                    "velocity": 0.7401574803149606,
                    "duration": 0.9624999999999773
                },
                {
                    "name": "E4",
                    "midi": 64,
                    "time": 651.843750000017,
                    "velocity": 0.7637795275590551,
                    "duration": 0.877083333333303
                },
                {
                    "name": "G#4",
                    "midi": 68,
                    "time": 651.8458333333504,
                    "velocity": 0.7559055118110236,
                    "duration": 0.9250000000000682
                },
                {
                    "name": "B3",
                    "midi": 59,
                    "time": 651.8541666666837,
                    "velocity": 0.7322834645669292,
                    "duration": 0.31875000000002274
                },
                {
                    "name": "G#3",
                    "midi": 56,
                    "time": 651.8541666666837,
                    "velocity": 0.6456692913385826,
                    "duration": 0.3479166666667197
                },
                {
                    "name": "E3",
                    "midi": 52,
                    "time": 651.8604166666837,
                    "velocity": 0.7007874015748031,
                    "duration": 0.3916666666666515
                },
                {
                    "name": "F#1",
                    "midi": 30,
                    "time": 652.5958333333505,
                    "velocity": 0.7322834645669292,
                    "duration": 0.12916666666660603
                },
                {
                    "name": "F#2",
                    "midi": 42,
                    "time": 652.6062500000171,
                    "velocity": 0.9133858267716536,
                    "duration": 0.16458333333332575
                },
                {
                    "name": "D#4",
                    "midi": 63,
                    "time": 653.118750000017,
                    "velocity": 0.7559055118110236,
                    "duration": 0.28125
                },
                {
                    "name": "F#5",
                    "midi": 78,
                    "time": 653.125000000017,
                    "velocity": 0.8188976377952756,
                    "duration": 0.23749999999995453
                },
                {
                    "name": "D#5",
                    "midi": 75,
                    "time": 653.125000000017,
                    "velocity": 0.7795275590551181,
                    "duration": 0.279166666666697
                },
                {
                    "name": "A#3",
                    "midi": 58,
                    "time": 653.1270833333504,
                    "velocity": 0.6299212598425197,
                    "duration": 0.2625000000000455
                },
                {
                    "name": "E3",
                    "midi": 52,
                    "time": 653.1291666666837,
                    "velocity": 0.6062992125984252,
                    "duration": 0.25625000000002274
                },
                {
                    "name": "F#4",
                    "midi": 66,
                    "time": 653.1354166666837,
                    "velocity": 0.8188976377952756,
                    "duration": 0.24583333333328028
                },
                {
                    "name": "A#4",
                    "midi": 70,
                    "time": 653.1395833333504,
                    "velocity": 0.7716535433070866,
                    "duration": 0.22083333333330302
                },
                {
                    "name": "F#3",
                    "midi": 54,
                    "time": 653.1645833333504,
                    "velocity": 0.5511811023622047,
                    "duration": 0.2333333333333485
                },
                {
                    "name": "D5",
                    "midi": 74,
                    "time": 653.525000000017,
                    "velocity": 0.6220472440944882,
                    "duration": 0.1416666666666515
                },
                {
                    "name": "F#3",
                    "midi": 54,
                    "time": 653.5270833333503,
                    "velocity": 0.3543307086614173,
                    "duration": 0.13750000000004547
                },
                {
                    "name": "D4",
                    "midi": 62,
                    "time": 653.5270833333503,
                    "velocity": 0.47244094488188976,
                    "duration": 0.08958333333339397
                },
                {
                    "name": "A#3",
                    "midi": 58,
                    "time": 653.531250000017,
                    "velocity": 0.44881889763779526,
                    "duration": 0.11874999999997726
                },
                {
                    "name": "F#4",
                    "midi": 66,
                    "time": 653.550000000017,
                    "velocity": 0.28346456692913385,
                    "duration": 0.0625
                },
                {
                    "name": "E3",
                    "midi": 52,
                    "time": 653.550000000017,
                    "velocity": 0.28346456692913385,
                    "duration": 0.08749999999997726
                },
                {
                    "name": "A#4",
                    "midi": 70,
                    "time": 653.5604166666836,
                    "velocity": 0.3543307086614173,
                    "duration": 0.06666666666671972
                },
                {
                    "name": "C#5",
                    "midi": 73,
                    "time": 653.7479166666836,
                    "velocity": 0.6929133858267716,
                    "duration": 0.11041666666665151
                },
                {
                    "name": "C#4",
                    "midi": 61,
                    "time": 653.7500000000169,
                    "velocity": 0.6929133858267716,
                    "duration": 0.09375
                },
                {
                    "name": "F#4",
                    "midi": 66,
                    "time": 653.7583333333503,
                    "velocity": 0.48031496062992124,
                    "duration": 0.06458333333330302
                },
                {
                    "name": "E3",
                    "midi": 52,
                    "time": 653.7645833333503,
                    "velocity": 0.4094488188976378,
                    "duration": 0.10000000000002274
                },
                {
                    "name": "F#3",
                    "midi": 54,
                    "time": 653.7645833333503,
                    "velocity": 0.3779527559055118,
                    "duration": 0.10208333333332575
                },
                {
                    "name": "A#4",
                    "midi": 70,
                    "time": 653.7666666666836,
                    "velocity": 0.47244094488188976,
                    "duration": 0.04583333333334849
                },
                {
                    "name": "A#3",
                    "midi": 58,
                    "time": 653.7666666666836,
                    "velocity": 0.48031496062992124,
                    "duration": 0.10416666666674246
                },
                {
                    "name": "D#5",
                    "midi": 75,
                    "time": 654.0520833333503,
                    "velocity": 0.7716535433070866,
                    "duration": 0.14583333333348492
                },
                {
                    "name": "D#4",
                    "midi": 63,
                    "time": 654.0520833333503,
                    "velocity": 0.7244094488188977,
                    "duration": 0.15208333333350765
                },
                {
                    "name": "F#4",
                    "midi": 66,
                    "time": 654.0645833333504,
                    "velocity": 0.6377952755905512,
                    "duration": 0.10833333333346218
                },
                {
                    "name": "A#3",
                    "midi": 58,
                    "time": 654.0687500000171,
                    "velocity": 0.4566929133858268,
                    "duration": 0.1270833333334167
                },
                {
                    "name": "A#4",
                    "midi": 70,
                    "time": 654.0708333333504,
                    "velocity": 0.6377952755905512,
                    "duration": 0.08125000000006821
                },
                {
                    "name": "E3",
                    "midi": 52,
                    "time": 654.0770833333504,
                    "velocity": 0.25984251968503935,
                    "duration": 0.12291666666669698
                },
                {
                    "name": "F#3",
                    "midi": 54,
                    "time": 654.0812500000171,
                    "velocity": 0.4094488188976378,
                    "duration": 0.13125000000002274
                },
                {
                    "name": "D5",
                    "midi": 74,
                    "time": 654.3604166666838,
                    "velocity": 0.7637795275590551,
                    "duration": 0.13333333333321207
                },
                {
                    "name": "D4",
                    "midi": 62,
                    "time": 654.3666666666838,
                    "velocity": 0.6456692913385826,
                    "duration": 0.08958333333328028
                },
                {
                    "name": "A#3",
                    "midi": 58,
                    "time": 654.3708333333506,
                    "velocity": 0.5511811023622047,
                    "duration": 0.11458333333314386
                },
                {
                    "name": "F#4",
                    "midi": 66,
                    "time": 654.3729166666839,
                    "velocity": 0.6299212598425197,
                    "duration": 0.06666666666660603
                },
                {
                    "name": "A#4",
                    "midi": 70,
                    "time": 654.3750000000172,
                    "velocity": 0.6299212598425197,
                    "duration": 0.06666666666660603
                },
                {
                    "name": "E3",
                    "midi": 52,
                    "time": 654.3770833333505,
                    "velocity": 0.5196850393700787,
                    "duration": 0.09791666666660603
                },
                {
                    "name": "F#3",
                    "midi": 54,
                    "time": 654.3812500000172,
                    "velocity": 0.4881889763779528,
                    "duration": 0.11041666666653782
                },
                {
                    "name": "C#4",
                    "midi": 61,
                    "time": 654.6145833333503,
                    "velocity": 0.7795275590551181,
                    "duration": 0.07083333333332575
                },
                {
                    "name": "A#3",
                    "midi": 58,
                    "time": 654.6333333333503,
                    "velocity": 0.5039370078740157,
                    "duration": 0.0791666666667652
                },
                {
                    "name": "C#5",
                    "midi": 73,
                    "time": 654.6354166666836,
                    "velocity": 0.7322834645669292,
                    "duration": 0.09583333333353039
                },
                {
                    "name": "F#4",
                    "midi": 66,
                    "time": 654.6416666666836,
                    "velocity": 0.7480314960629921,
                    "duration": 0.0645833333334167
                },
                {
                    "name": "E3",
                    "midi": 52,
                    "time": 654.6437500000169,
                    "velocity": 0.28346456692913385,
                    "duration": 0.08333333333348492
                },
                {
                    "name": "A#4",
                    "midi": 70,
                    "time": 654.6479166666836,
                    "velocity": 0.6850393700787402,
                    "duration": 0.054166666666674246
                },
                {
                    "name": "F#3",
                    "midi": 54,
                    "time": 654.6541666666836,
                    "velocity": 0.4566929133858268,
                    "duration": 0.05208333333337123
                },
                {
                    "name": "D#5",
                    "midi": 75,
                    "time": 654.7791666666838,
                    "velocity": 0.8188976377952756,
                    "duration": 0.11250000000006821
                },
                {
                    "name": "D#4",
                    "midi": 63,
                    "time": 654.781250000017,
                    "velocity": 0.8188976377952756,
                    "duration": 0.08750000000009095
                },
                {
                    "name": "F#4",
                    "midi": 66,
                    "time": 654.7875000000171,
                    "velocity": 0.7086614173228346,
                    "duration": 0.07500000000004547
                },
                {
                    "name": "A#3",
                    "midi": 58,
                    "time": 654.7895833333504,
                    "velocity": 0.48031496062992124,
                    "duration": 0.08750000000009095
                },
                {
                    "name": "A#4",
                    "midi": 70,
                    "time": 654.800000000017,
                    "velocity": 0.6456692913385826,
                    "duration": 0.05625000000009095
                },
                {
                    "name": "F#3",
                    "midi": 54,
                    "time": 654.8083333333503,
                    "velocity": 0.3858267716535433,
                    "duration": 0.07083333333343944
                },
                {
                    "name": "E3",
                    "midi": 52,
                    "time": 654.8208333333504,
                    "velocity": 0.29133858267716534,
                    "duration": 0.07291666666674246
                },
                {
                    "name": "D5",
                    "midi": 74,
                    "time": 654.9270833333504,
                    "velocity": 0.7952755905511811,
                    "duration": 0.1291666666668334
                },
                {
                    "name": "F#4",
                    "midi": 66,
                    "time": 654.9312500000171,
                    "velocity": 0.6299212598425197,
                    "duration": 0.08958333333339397
                },
                {
                    "name": "D4",
                    "midi": 62,
                    "time": 654.9312500000171,
                    "velocity": 0.7874015748031497,
                    "duration": 0.10000000000002274
                },
                {
                    "name": "A#4",
                    "midi": 70,
                    "time": 654.9333333333504,
                    "velocity": 0.6456692913385826,
                    "duration": 0.08750000000009095
                },
                {
                    "name": "E3",
                    "midi": 52,
                    "time": 654.9375000000172,
                    "velocity": 0.28346456692913385,
                    "duration": 0.10625000000004547
                },
                {
                    "name": "A#3",
                    "midi": 58,
                    "time": 654.9437500000172,
                    "velocity": 0.6850393700787402,
                    "duration": 0.09375
                },
                {
                    "name": "F#3",
                    "midi": 54,
                    "time": 654.9479166666839,
                    "velocity": 0.5511811023622047,
                    "duration": 0.11250000000006821
                },
                {
                    "name": "C#5",
                    "midi": 73,
                    "time": 655.2125000000173,
                    "velocity": 0.8188976377952756,
                    "duration": 0.13541666666662877
                },
                {
                    "name": "E3",
                    "midi": 52,
                    "time": 655.2187500000173,
                    "velocity": 0.6456692913385826,
                    "duration": 0.13124999999990905
                },
                {
                    "name": "C#4",
                    "midi": 61,
                    "time": 655.2187500000173,
                    "velocity": 0.84251968503937,
                    "duration": 0.09583333333330302
                },
                {
                    "name": "A#3",
                    "midi": 58,
                    "time": 655.2208333333506,
                    "velocity": 0.6929133858267716,
                    "duration": 0.10625000000004547
                },
                {
                    "name": "F#4",
                    "midi": 66,
                    "time": 655.2250000000173,
                    "velocity": 0.8110236220472441,
                    "duration": 0.12083333333328028
                },
                {
                    "name": "A#4",
                    "midi": 70,
                    "time": 655.2250000000173,
                    "velocity": 0.7795275590551181,
                    "duration": 0.12499999999988631
                },
                {
                    "name": "F#3",
                    "midi": 54,
                    "time": 655.2354166666839,
                    "velocity": 0.6299212598425197,
                    "duration": 0.05833333333328028
                },
                {
                    "name": "D#4",
                    "midi": 63,
                    "time": 655.5145833333505,
                    "velocity": 0.7401574803149606,
                    "duration": 0.03333333333330302
                },
                {
                    "name": "A#3",
                    "midi": 58,
                    "time": 655.5250000000171,
                    "velocity": 0.4881889763779528,
                    "duration": 0.03958333333343944
                },
                {
                    "name": "D#5",
                    "midi": 75,
                    "time": 655.5541666666838,
                    "velocity": 0.8503937007874016,
                    "duration": 0.3458333333336441
                },
                {
                    "name": "F#4",
                    "midi": 66,
                    "time": 655.5583333333506,
                    "velocity": 0.8976377952755905,
                    "duration": 0.2875000000001364
                },
                {
                    "name": "A#4",
                    "midi": 70,
                    "time": 655.5645833333506,
                    "velocity": 0.7637795275590551,
                    "duration": 0.33750000000020464
                },
                {
                    "name": "B1",
                    "midi": 35,
                    "time": 655.8125000000174,
                    "velocity": 0.6377952755905512,
                    "duration": 0.09375000000011369
                },
                {
                    "name": "B2",
                    "midi": 47,
                    "time": 655.8958333333508,
                    "velocity": 0.7401574803149606,
                    "duration": 0.0645833333334167
                },
                {
                    "name": "G5",
                    "midi": 79,
                    "time": 656.1145833333509,
                    "velocity": 0.7795275590551181,
                    "duration": 0.12916666666671972
                },
                {
                    "name": "A3",
                    "midi": 57,
                    "time": 656.1166666666842,
                    "velocity": 0.6141732283464567,
                    "duration": 0.1104166666667652
                },
                {
                    "name": "D5",
                    "midi": 74,
                    "time": 656.1250000000175,
                    "velocity": 0.7165354330708661,
                    "duration": 0.15000000000009095
                },
                {
                    "name": "G4",
                    "midi": 67,
                    "time": 656.1291666666842,
                    "velocity": 0.5590551181102362,
                    "duration": 0.08541666666667425
                },
                {
                    "name": "A4",
                    "midi": 69,
                    "time": 656.133333333351,
                    "velocity": 0.6220472440944882,
                    "duration": 0.07083333333332575
                },
                {
                    "name": "D4",
                    "midi": 62,
                    "time": 656.1541666666843,
                    "velocity": 0.5354330708661418,
                    "duration": 0.15833333333330302
                },
                {
                    "name": "C#5",
                    "midi": 73,
                    "time": 656.3395833333509,
                    "velocity": 0.8346456692913385,
                    "duration": 0.1062499999998181
                },
                {
                    "name": "C#4",
                    "midi": 61,
                    "time": 656.3541666666843,
                    "velocity": 0.6929133858267716,
                    "duration": 0.09374999999977263
                },
                {
                    "name": "A3",
                    "midi": 57,
                    "time": 656.3541666666843,
                    "velocity": 0.2992125984251969,
                    "duration": 0.08958333333316659
                },
                {
                    "name": "A4",
                    "midi": 69,
                    "time": 656.3562500000176,
                    "velocity": 0.4881889763779528,
                    "duration": 0.060416666666583296
                },
                {
                    "name": "G4",
                    "midi": 67,
                    "time": 656.3583333333509,
                    "velocity": 0.4645669291338583,
                    "duration": 0.05624999999997726
                },
                {
                    "name": "D#5",
                    "midi": 75,
                    "time": 656.5145833333507,
                    "velocity": 0.8582677165354331,
                    "duration": 0.13124999999990905
                },
                {
                    "name": "A4",
                    "midi": 69,
                    "time": 656.5229166666841,
                    "velocity": 0.6456692913385826,
                    "duration": 0.07083333333332575
                },
                {
                    "name": "D#4",
                    "midi": 63,
                    "time": 656.5229166666841,
                    "velocity": 0.8976377952755905,
                    "duration": 0.09583333333330302
                },
                {
                    "name": "G4",
                    "midi": 67,
                    "time": 656.5270833333508,
                    "velocity": 0.6299212598425197,
                    "duration": 0.06458333333330302
                },
                {
                    "name": "A3",
                    "midi": 57,
                    "time": 656.5291666666841,
                    "velocity": 0.6220472440944882,
                    "duration": 0.08124999999995453
                },
                {
                    "name": "D5",
                    "midi": 74,
                    "time": 656.8083333333507,
                    "velocity": 0.889763779527559,
                    "duration": 0.1374999999999318
                },
                {
                    "name": "A3",
                    "midi": 57,
                    "time": 656.8145833333507,
                    "velocity": 0.5905511811023622,
                    "duration": 0.1395833333332348
                },
                {
                    "name": "D4",
                    "midi": 62,
                    "time": 656.816666666684,
                    "velocity": 0.6929133858267716,
                    "duration": 0.1229166666665833
                },
                {
                    "name": "G4",
                    "midi": 67,
                    "time": 656.8250000000173,
                    "velocity": 0.7086614173228346,
                    "duration": 0.08124999999995453
                },
                {
                    "name": "A4",
                    "midi": 69,
                    "time": 656.8250000000173,
                    "velocity": 0.7952755905511811,
                    "duration": 0.07916666666665151
                },
                {
                    "name": "C#4",
                    "midi": 61,
                    "time": 657.0895833333506,
                    "velocity": 0.7795275590551181,
                    "duration": 0.08541666666656056
                },
                {
                    "name": "A3",
                    "midi": 57,
                    "time": 657.0916666666839,
                    "velocity": 0.5354330708661418,
                    "duration": 0.10416666666662877
                },
                {
                    "name": "C#5",
                    "midi": 73,
                    "time": 657.0937500000172,
                    "velocity": 0.8976377952755905,
                    "duration": 0.10208333333332575
                },
                {
                    "name": "A4",
                    "midi": 69,
                    "time": 657.1000000000172,
                    "velocity": 0.7007874015748031,
                    "duration": 0.049999999999954525
                },
                {
                    "name": "G4",
                    "midi": 67,
                    "time": 657.1020833333505,
                    "velocity": 0.6929133858267716,
                    "duration": 0.04791666666665151
                },
                {
                    "name": "D#4",
                    "midi": 63,
                    "time": 657.3541666666838,
                    "velocity": 0.8267716535433071,
                    "duration": 0.08749999999997726
                },
                {
                    "name": "D#5",
                    "midi": 75,
                    "time": 657.3541666666838,
                    "velocity": 0.8818897637795275,
                    "duration": 0.10208333333332575
                },
                {
                    "name": "A4",
                    "midi": 69,
                    "time": 657.3666666666838,
                    "velocity": 0.7165354330708661,
                    "duration": 0.05208333333325754
                },
                {
                    "name": "G4",
                    "midi": 67,
                    "time": 657.3687500000171,
                    "velocity": 0.7007874015748031,
                    "duration": 0.049999999999954525
                },
                {
                    "name": "A3",
                    "midi": 57,
                    "time": 657.3708333333504,
                    "velocity": 0.5275590551181102,
                    "duration": 0.06458333333330302
                },
                {
                    "name": "D5",
                    "midi": 74,
                    "time": 657.4895833333504,
                    "velocity": 0.8346456692913385,
                    "duration": 0.19374999999990905
                },
                {
                    "name": "D4",
                    "midi": 62,
                    "time": 657.4979166666838,
                    "velocity": 0.7952755905511811,
                    "duration": 0.16041666666660603
                },
                {
                    "name": "A3",
                    "midi": 57,
                    "time": 657.5062500000171,
                    "velocity": 0.5354330708661418,
                    "duration": 0.2145833333331666
                },
                {
                    "name": "A4",
                    "midi": 69,
                    "time": 657.5083333333504,
                    "velocity": 0.5590551181102362,
                    "duration": 0.06666666666660603
                },
                {
                    "name": "G4",
                    "midi": 67,
                    "time": 657.5104166666837,
                    "velocity": 0.5984251968503937,
                    "duration": 0.06458333333330302
                },
                {
                    "name": "A4",
                    "midi": 69,
                    "time": 657.6270833333504,
                    "velocity": 0.5196850393700787,
                    "duration": 0.07499999999993179
                },
                {
                    "name": "G4",
                    "midi": 67,
                    "time": 657.6270833333504,
                    "velocity": 0.5433070866141733,
                    "duration": 0.07499999999993179
                },
                {
                    "name": "C#4",
                    "midi": 61,
                    "time": 657.6291666666837,
                    "velocity": 0.8582677165354331,
                    "duration": 0.08958333333328028
                },
                {
                    "name": "C#5",
                    "midi": 73,
                    "time": 657.6333333333504,
                    "velocity": 0.8661417322834646,
                    "duration": 0.10416666666651508
                },
                {
                    "name": "D#4",
                    "midi": 63,
                    "time": 657.9437500000168,
                    "velocity": 0.8661417322834646,
                    "duration": 0.16666666666662877
                },
                {
                    "name": "D#5",
                    "midi": 75,
                    "time": 657.9437500000168,
                    "velocity": 0.9133858267716536,
                    "duration": 0.1999999999999318
                },
                {
                    "name": "A3",
                    "midi": 57,
                    "time": 657.9541666666835,
                    "velocity": 0.6141732283464567,
                    "duration": 0.10000000000002274
                },
                {
                    "name": "A4",
                    "midi": 69,
                    "time": 657.9583333333502,
                    "velocity": 0.7795275590551181,
                    "duration": 0.06875000000002274
                },
                {
                    "name": "G4",
                    "midi": 67,
                    "time": 657.9583333333502,
                    "velocity": 0.7559055118110236,
                    "duration": 0.06458333333330302
                },
                {
                    "name": "D4",
                    "midi": 62,
                    "time": 658.2770833333501,
                    "velocity": 0.7637795275590551,
                    "duration": 0.03541666666671972
                },
                {
                    "name": "A3",
                    "midi": 57,
                    "time": 658.2812500000168,
                    "velocity": 0.6614173228346457,
                    "duration": 0.06041666666669698
                },
                {
                    "name": "D5",
                    "midi": 74,
                    "time": 658.2854166666835,
                    "velocity": 0.9212598425196851,
                    "duration": 0.1874999999998863
                },
                {
                    "name": "A4",
                    "midi": 69,
                    "time": 658.3083333333502,
                    "velocity": 0.7244094488188977,
                    "duration": 0.1374999999999318
                },
                {
                    "name": "G4",
                    "midi": 67,
                    "time": 658.3104166666835,
                    "velocity": 0.7559055118110236,
                    "duration": 0.13541666666662877
                },
                {
                    "name": "E1",
                    "midi": 28,
                    "time": 658.6020833333502,
                    "velocity": 0.7559055118110236,
                    "duration": 0.060416666666583296
                },
                {
                    "name": "E2",
                    "midi": 40,
                    "time": 658.6125000000168,
                    "velocity": 0.8110236220472441,
                    "duration": 0.07916666666665151
                },
                {
                    "name": "B4",
                    "midi": 71,
                    "time": 658.8770833333501,
                    "velocity": 0.7637795275590551,
                    "duration": 0.11666666666667425
                },
                {
                    "name": "G#5",
                    "midi": 80,
                    "time": 658.8791666666834,
                    "velocity": 0.7322834645669292,
                    "duration": 0.07500000000004547
                },
                {
                    "name": "G#4",
                    "midi": 68,
                    "time": 658.8812500000167,
                    "velocity": 0.7795275590551181,
                    "duration": 0.05208333333337123
                },
                {
                    "name": "C#5",
                    "midi": 73,
                    "time": 658.8895833333501,
                    "velocity": 0.6929133858267716,
                    "duration": 0.13333333333343944
                },
                {
                    "name": "C#4",
                    "midi": 61,
                    "time": 658.8937500000168,
                    "velocity": 0.9291338582677166,
                    "duration": 0.06041666666669698
                },
                {
                    "name": "E3",
                    "midi": 52,
                    "time": 659.0937500000168,
                    "velocity": 0.2125984251968504,
                    "duration": 0.0770833333332348
                },
                {
                    "name": "D#4",
                    "midi": 63,
                    "time": 659.1000000000168,
                    "velocity": 0.8582677165354331,
                    "duration": 0.07083333333321207
                },
                {
                    "name": "D#5",
                    "midi": 75,
                    "time": 659.1083333333502,
                    "velocity": 0.8110236220472441,
                    "duration": 0.10208333333321207
                },
                {
                    "name": "G#4",
                    "midi": 68,
                    "time": 659.1166666666835,
                    "velocity": 0.7086614173228346,
                    "duration": 0.03749999999990905
                },
                {
                    "name": "G#3",
                    "midi": 56,
                    "time": 659.1437500000168,
                    "velocity": 0.3779527559055118,
                    "duration": 0.049999999999954525
                },
                {
                    "name": "G#3",
                    "midi": 56,
                    "time": 659.2458333333501,
                    "velocity": 0.6850393700787402,
                    "duration": 0.08333333333337123
                },
                {
                    "name": "D4",
                    "midi": 62,
                    "time": 659.2500000000168,
                    "velocity": 0.84251968503937,
                    "duration": 0.07499999999993179
                },
                {
                    "name": "D5",
                    "midi": 74,
                    "time": 659.2520833333501,
                    "velocity": 0.84251968503937,
                    "duration": 0.12708333333330302
                },
                {
                    "name": "E3",
                    "midi": 52,
                    "time": 659.2541666666834,
                    "velocity": 0.6456692913385826,
                    "duration": 0.09791666666671972
                },
                {
                    "name": "G#4",
                    "midi": 68,
                    "time": 659.2562500000167,
                    "velocity": 0.8346456692913385,
                    "duration": 0.07291666666674246
                },
                {
                    "name": "B4",
                    "midi": 71,
                    "time": 659.2687500000168,
                    "velocity": 0.6377952755905512,
                    "duration": 0.049999999999954525
                },
                {
                    "name": "C#4",
                    "midi": 61,
                    "time": 659.5291666666834,
                    "velocity": 0.905511811023622,
                    "duration": 0.06874999999990905
                },
                {
                    "name": "B4",
                    "midi": 71,
                    "time": 659.5312500000167,
                    "velocity": 0.7874015748031497,
                    "duration": 0.0770833333332348
                },
                {
                    "name": "C#5",
                    "midi": 73,
                    "time": 659.53333333335,
                    "velocity": 0.8267716535433071,
                    "duration": 0.11874999999997726
                },
                {
                    "name": "E3",
                    "midi": 52,
                    "time": 659.5354166666833,
                    "velocity": 0.7007874015748031,
                    "duration": 0.12291666666669698
                },
                {
                    "name": "G#3",
                    "midi": 56,
                    "time": 659.5375000000166,
                    "velocity": 0.7716535433070866,
                    "duration": 0.08958333333339397
                },
                {
                    "name": "G#4",
                    "midi": 68,
                    "time": 659.5375000000166,
                    "velocity": 0.7716535433070866,
                    "duration": 0.07708333333334849
                },
                {
                    "name": "E3",
                    "midi": 52,
                    "time": 659.7812500000167,
                    "velocity": 0.5826771653543307,
                    "duration": 0.1541666666664696
                },
                {
                    "name": "D#5",
                    "midi": 75,
                    "time": 659.78333333335,
                    "velocity": 0.8267716535433071,
                    "duration": 0.1687499999998181
                },
                {
                    "name": "D#4",
                    "midi": 63,
                    "time": 659.7854166666833,
                    "velocity": 0.889763779527559,
                    "duration": 0.13333333333321207
                },
                {
                    "name": "G#4",
                    "midi": 68,
                    "time": 659.7875000000166,
                    "velocity": 0.7952755905511811,
                    "duration": 0.11041666666665151
                },
                {
                    "name": "B4",
                    "midi": 71,
                    "time": 659.7895833333499,
                    "velocity": 0.7716535433070866,
                    "duration": 0.11874999999997726
                },
                {
                    "name": "G#3",
                    "midi": 56,
                    "time": 659.7916666666832,
                    "velocity": 0.6929133858267716,
                    "duration": 0.11666666666667425
                },
                {
                    "name": "D4",
                    "midi": 62,
                    "time": 660.0395833333498,
                    "velocity": 0.7559055118110236,
                    "duration": 0.06875000000002274
                },
                {
                    "name": "G#3",
                    "midi": 56,
                    "time": 660.0437500000165,
                    "velocity": 0.6850393700787402,
                    "duration": 0.0916666666665833
                },
                {
                    "name": "D5",
                    "midi": 74,
                    "time": 660.0458333333498,
                    "velocity": 0.7874015748031497,
                    "duration": 0.11249999999995453
                },
                {
                    "name": "G#4",
                    "midi": 68,
                    "time": 660.0500000000166,
                    "velocity": 0.7086614173228346,
                    "duration": 0.06666666666660603
                },
                {
                    "name": "B4",
                    "midi": 71,
                    "time": 660.0520833333499,
                    "velocity": 0.6692913385826772,
                    "duration": 0.08541666666656056
                },
                {
                    "name": "E3",
                    "midi": 52,
                    "time": 660.0541666666832,
                    "velocity": 0.5196850393700787,
                    "duration": 0.372916666666697
                },
                {
                    "name": "B4",
                    "midi": 71,
                    "time": 660.1875000000165,
                    "velocity": 0.7322834645669292,
                    "duration": 0.08541666666667425
                },
                {
                    "name": "C#5",
                    "midi": 73,
                    "time": 660.1895833333498,
                    "velocity": 0.7716535433070866,
                    "duration": 0.10000000000002274
                },
                {
                    "name": "G#4",
                    "midi": 68,
                    "time": 660.1895833333498,
                    "velocity": 0.6535433070866141,
                    "duration": 0.07291666666674246
                },
                {
                    "name": "C#4",
                    "midi": 61,
                    "time": 660.2020833333498,
                    "velocity": 0.8503937007874016,
                    "duration": 0.04583333333334849
                },
                {
                    "name": "G#3",
                    "midi": 56,
                    "time": 660.2041666666831,
                    "velocity": 0.5590551181102362,
                    "duration": 0.06666666666671972
                },
                {
                    "name": "B4",
                    "midi": 71,
                    "time": 660.3250000000165,
                    "velocity": 0.7086614173228346,
                    "duration": 0.09166666666669698
                },
                {
                    "name": "G#4",
                    "midi": 68,
                    "time": 660.3250000000165,
                    "velocity": 0.6929133858267716,
                    "duration": 0.08125000000006821
                },
                {
                    "name": "D#5",
                    "midi": 75,
                    "time": 660.3250000000165,
                    "velocity": 0.8503937007874016,
                    "duration": 0.12708333333330302
                },
                {
                    "name": "D#4",
                    "midi": 63,
                    "time": 660.3291666666832,
                    "velocity": 0.937007874015748,
                    "duration": 0.12916666666660603
                },
                {
                    "name": "G#3",
                    "midi": 56,
                    "time": 660.3312500000166,
                    "velocity": 0.7086614173228346,
                    "duration": 0.10624999999993179
                },
                {
                    "name": "D5",
                    "midi": 74,
                    "time": 660.6666666666832,
                    "velocity": 0.889763779527559,
                    "duration": 0.12708333333330302
                },
                {
                    "name": "D4",
                    "midi": 62,
                    "time": 660.6687500000165,
                    "velocity": 0.889763779527559,
                    "duration": 0.07916666666665151
                },
                {
                    "name": "G#3",
                    "midi": 56,
                    "time": 660.6708333333498,
                    "velocity": 0.8346456692913385,
                    "duration": 0.09375
                },
                {
                    "name": "B4",
                    "midi": 71,
                    "time": 660.6729166666831,
                    "velocity": 0.8110236220472441,
                    "duration": 0.07708333333334849
                },
                {
                    "name": "E3",
                    "midi": 52,
                    "time": 660.6729166666831,
                    "velocity": 0.7322834645669292,
                    "duration": 0.10833333333334849
                },
                {
                    "name": "G#4",
                    "midi": 68,
                    "time": 660.6729166666831,
                    "velocity": 0.8582677165354331,
                    "duration": 0.06666666666671972
                },
                {
                    "name": "C#4",
                    "midi": 61,
                    "time": 661.0979166666832,
                    "velocity": 0.937007874015748,
                    "duration": 0.06666666666660603
                },
                {
                    "name": "E3",
                    "midi": 52,
                    "time": 661.1041666666832,
                    "velocity": 0.7716535433070866,
                    "duration": 0.10208333333332575
                },
                {
                    "name": "C#5",
                    "midi": 73,
                    "time": 661.1041666666832,
                    "velocity": 0.8818897637795275,
                    "duration": 0.5229166666666742
                },
                {
                    "name": "B4",
                    "midi": 71,
                    "time": 661.1062500000165,
                    "velocity": 0.8031496062992126,
                    "duration": 0.5
                },
                {
                    "name": "G#4",
                    "midi": 68,
                    "time": 661.1083333333498,
                    "velocity": 0.8188976377952756,
                    "duration": 0.5020833333334167
                },
                {
                    "name": "G#3",
                    "midi": 56,
                    "time": 661.1104166666831,
                    "velocity": 0.7874015748031497,
                    "duration": 0.08333333333337123
                },
                {
                    "name": "E1",
                    "midi": 28,
                    "time": 661.5791666666831,
                    "velocity": 0.889763779527559,
                    "duration": 0.07708333333334849
                },
                {
                    "name": "E2",
                    "midi": 40,
                    "time": 661.5833333333499,
                    "velocity": 0.8976377952755905,
                    "duration": 0.11874999999997726
                },
                {
                    "name": "B4",
                    "midi": 71,
                    "time": 661.9812500000165,
                    "velocity": 0.7795275590551181,
                    "duration": 0.08958333333328028
                },
                {
                    "name": "G#4",
                    "midi": 68,
                    "time": 661.9833333333498,
                    "velocity": 0.8503937007874016,
                    "duration": 0.06666666666660603
                },
                {
                    "name": "G#5",
                    "midi": 80,
                    "time": 661.9833333333498,
                    "velocity": 0.8188976377952756,
                    "duration": 0.1229166666665833
                },
                {
                    "name": "E5",
                    "midi": 76,
                    "time": 661.9854166666831,
                    "velocity": 0.7559055118110236,
                    "duration": 0.11874999999997726
                },
                {
                    "name": "G#3",
                    "midi": 56,
                    "time": 661.9875000000164,
                    "velocity": 0.8267716535433071,
                    "duration": 0.629166666666606
                },
                {
                    "name": "B3",
                    "midi": 59,
                    "time": 661.9895833333497,
                    "velocity": 0.7952755905511811,
                    "duration": 0.4562500000000682
                },
                {
                    "name": "E4",
                    "midi": 64,
                    "time": 661.9895833333497,
                    "velocity": 0.84251968503937,
                    "duration": 0.41250000000002274
                },
                {
                    "name": "A5",
                    "midi": 81,
                    "time": 662.6125000000164,
                    "velocity": 0.9133858267716536,
                    "duration": 0.10416666666685614
                },
                {
                    "name": "F#5",
                    "midi": 78,
                    "time": 662.6145833333497,
                    "velocity": 0.889763779527559,
                    "duration": 0.0791666666667652
                },
                {
                    "name": "A4",
                    "midi": 69,
                    "time": 662.6208333333498,
                    "velocity": 0.8582677165354331,
                    "duration": 0.054166666666674246
                },
                {
                    "name": "B4",
                    "midi": 71,
                    "time": 662.6229166666831,
                    "velocity": 0.889763779527559,
                    "duration": 0.04791666666665151
                },
                {
                    "name": "F#4",
                    "midi": 66,
                    "time": 662.6229166666831,
                    "velocity": 0.968503937007874,
                    "duration": 0.07500000000015916
                },
                {
                    "name": "A3",
                    "midi": 57,
                    "time": 662.6250000000164,
                    "velocity": 0.6456692913385826,
                    "duration": 0.07916666666687888
                },
                {
                    "name": "B3",
                    "midi": 59,
                    "time": 662.6291666666831,
                    "velocity": 0.6929133858267716,
                    "duration": 0.05000000000006821
                },
                {
                    "name": "B5",
                    "midi": 83,
                    "time": 663.20208333335,
                    "velocity": 0.84251968503937,
                    "duration": 0.22500000000002274
                },
                {
                    "name": "G#5",
                    "midi": 80,
                    "time": 663.20208333335,
                    "velocity": 0.8110236220472441,
                    "duration": 0.25833333333343944
                },
                {
                    "name": "G#4",
                    "midi": 68,
                    "time": 663.2041666666832,
                    "velocity": 0.8661417322834646,
                    "duration": 0.2375000000000682
                },
                {
                    "name": "B4",
                    "midi": 71,
                    "time": 663.2062500000166,
                    "velocity": 0.8110236220472441,
                    "duration": 0.22916666666674246
                },
                {
                    "name": "B3",
                    "midi": 59,
                    "time": 663.2062500000166,
                    "velocity": 0.7007874015748031,
                    "duration": 0.30625000000020464
                },
                {
                    "name": "E5",
                    "midi": 76,
                    "time": 663.2104166666833,
                    "velocity": 0.7874015748031497,
                    "duration": 0.24583333333339397
                },
                {
                    "name": "E4",
                    "midi": 64,
                    "time": 663.2166666666833,
                    "velocity": 0.7322834645669292,
                    "duration": 0.2520833333334167
                },
                {
                    "name": "G#3",
                    "midi": 56,
                    "time": 663.8312500000168,
                    "velocity": 0.8818897637795275,
                    "duration": 0.22708333333321207
                },
                {
                    "name": "B4",
                    "midi": 71,
                    "time": 663.8333333333501,
                    "velocity": 0.84251968503937,
                    "duration": 1.125
                },
                {
                    "name": "G#4",
                    "midi": 68,
                    "time": 663.8333333333501,
                    "velocity": 0.7716535433070866,
                    "duration": 1.1979166666667425
                },
                {
                    "name": "B3",
                    "midi": 59,
                    "time": 663.8395833333501,
                    "velocity": 0.84251968503937,
                    "duration": 1.0916666666665833
                },
                {
                    "name": "E4",
                    "midi": 64,
                    "time": 663.8416666666834,
                    "velocity": 0.7874015748031497,
                    "duration": 1.152083333333394
                },
                {
                    "name": "E3",
                    "midi": 52,
                    "time": 663.8416666666834,
                    "velocity": 0.7716535433070866,
                    "duration": 0.25416666666660603
                },
                {
                    "name": "B2",
                    "midi": 47,
                    "time": 663.8437500000167,
                    "velocity": 0.6929133858267716,
                    "duration": 0.2937499999999318
                },
                {
                    "name": "G#2",
                    "midi": 44,
                    "time": 664.5875000000167,
                    "velocity": 0.9763779527559056,
                    "duration": 0.41458333333343944
                },
                {
                    "name": "G#1",
                    "midi": 32,
                    "time": 664.58958333335,
                    "velocity": 0.937007874015748,
                    "duration": 0.36458333333337123
                },
                {
                    "name": "C#5",
                    "midi": 73,
                    "time": 665.2875000000168,
                    "velocity": 0.8661417322834646,
                    "duration": 0.279166666666697
                },
                {
                    "name": "E4",
                    "midi": 64,
                    "time": 665.2916666666836,
                    "velocity": 0.8110236220472441,
                    "duration": 0.22083333333330302
                },
                {
                    "name": "G#3",
                    "midi": 56,
                    "time": 665.2916666666836,
                    "velocity": 0.8582677165354331,
                    "duration": 0.3249999999999318
                },
                {
                    "name": "G#4",
                    "midi": 68,
                    "time": 665.2958333333503,
                    "velocity": 0.7480314960629921,
                    "duration": 0.252083333333303
                },
                {
                    "name": "C#4",
                    "midi": 61,
                    "time": 665.2958333333503,
                    "velocity": 0.84251968503937,
                    "duration": 0.2020833333332348
                },
                {
                    "name": "C#3",
                    "midi": 49,
                    "time": 665.3062500000169,
                    "velocity": 0.7165354330708661,
                    "duration": 0.4020833333332803
                },
                {
                    "name": "E3",
                    "midi": 52,
                    "time": 665.3083333333502,
                    "velocity": 0.7244094488188977,
                    "duration": 0.27499999999997726
                },
                {
                    "name": "G#3",
                    "midi": 56,
                    "time": 666.0020833333502,
                    "velocity": 0.8661417322834646,
                    "duration": 0.5833333333334849
                },
                {
                    "name": "B3",
                    "midi": 59,
                    "time": 666.0041666666835,
                    "velocity": 0.84251968503937,
                    "duration": 0.5458333333334622
                },
                {
                    "name": "B4",
                    "midi": 71,
                    "time": 666.0062500000168,
                    "velocity": 0.7637795275590551,
                    "duration": 0.6020833333335531
                },
                {
                    "name": "D#3",
                    "midi": 51,
                    "time": 666.0062500000168,
                    "velocity": 0.84251968503937,
                    "duration": 0.6208333333335077
                },
                {
                    "name": "D#4",
                    "midi": 63,
                    "time": 666.0062500000168,
                    "velocity": 0.9448818897637795,
                    "duration": 0.5854166666669016
                },
                {
                    "name": "D#5",
                    "midi": 75,
                    "time": 666.0104166666836,
                    "velocity": 0.905511811023622,
                    "duration": 0.5979166666668334
                },
                {
                    "name": "G#4",
                    "midi": 68,
                    "time": 666.0104166666836,
                    "velocity": 0.7795275590551181,
                    "duration": 0.6000000000001364
                },
                {
                    "name": "B4",
                    "midi": 71,
                    "time": 666.9166666666837,
                    "velocity": 0.8503937007874016,
                    "duration": 0.5458333333333485
                },
                {
                    "name": "G#4",
                    "midi": 68,
                    "time": 666.918750000017,
                    "velocity": 0.889763779527559,
                    "duration": 0.529166666666697
                },
                {
                    "name": "E5",
                    "midi": 76,
                    "time": 666.9208333333503,
                    "velocity": 0.889763779527559,
                    "duration": 0.49166666666678793
                },
                {
                    "name": "E4",
                    "midi": 64,
                    "time": 666.9229166666836,
                    "velocity": 0.889763779527559,
                    "duration": 0.46458333333350765
                },
                {
                    "name": "D3",
                    "midi": 50,
                    "time": 666.9270833333503,
                    "velocity": 0.9606299212598425,
                    "duration": 0.5104166666667425
                },
                {
                    "name": "D2",
                    "midi": 38,
                    "time": 666.931250000017,
                    "velocity": 0.9291338582677166,
                    "duration": 0.5499999999999545
                },
                {
                    "name": "E2",
                    "midi": 40,
                    "time": 666.9541666666837,
                    "velocity": 0.6692913385826772,
                    "duration": 0.03125
                },
                {
                    "name": "C#2",
                    "midi": 37,
                    "time": 667.8895833333503,
                    "velocity": 0.952755905511811,
                    "duration": 0.11249999999995453
                },
                {
                    "name": "C#3",
                    "midi": 49,
                    "time": 667.8895833333503,
                    "velocity": 1,
                    "duration": 0.16458333333332575
                },
                {
                    "name": "A5",
                    "midi": 81,
                    "time": 668.3312500000169,
                    "velocity": 0.8346456692913385,
                    "duration": 0.1854166666665833
                },
                {
                    "name": "F#5",
                    "midi": 78,
                    "time": 668.3333333333502,
                    "velocity": 0.8110236220472441,
                    "duration": 0.22916666666662877
                },
                {
                    "name": "A4",
                    "midi": 69,
                    "time": 668.3333333333502,
                    "velocity": 0.7716535433070866,
                    "duration": 0.22291666666660603
                },
                {
                    "name": "C#5",
                    "midi": 73,
                    "time": 668.3354166666835,
                    "velocity": 0.8267716535433071,
                    "duration": 0.26041666666662877
                },
                {
                    "name": "A3",
                    "midi": 57,
                    "time": 668.3375000000168,
                    "velocity": 0.7559055118110236,
                    "duration": 0.2354166666666515
                },
                {
                    "name": "F#4",
                    "midi": 66,
                    "time": 668.3395833333501,
                    "velocity": 0.8818897637795275,
                    "duration": 0.2541666666667197
                },
                {
                    "name": "C#4",
                    "midi": 61,
                    "time": 668.3458333333501,
                    "velocity": 0.7322834645669292,
                    "duration": 0.25625000000002274
                },
                {
                    "name": "C#4",
                    "midi": 61,
                    "time": 668.6604166666834,
                    "velocity": 0.7244094488188977,
                    "duration": 0.0958333333334167
                },
                {
                    "name": "F5",
                    "midi": 77,
                    "time": 668.6604166666834,
                    "velocity": 0.7716535433070866,
                    "duration": 0.14583333333337123
                },
                {
                    "name": "F4",
                    "midi": 65,
                    "time": 668.6645833333502,
                    "velocity": 0.7874015748031497,
                    "duration": 0.10000000000002274
                },
                {
                    "name": "C#5",
                    "midi": 73,
                    "time": 668.6666666666835,
                    "velocity": 0.6850393700787402,
                    "duration": 0.10000000000002274
                },
                {
                    "name": "A4",
                    "midi": 69,
                    "time": 668.6708333333502,
                    "velocity": 0.6692913385826772,
                    "duration": 0.08541666666667425
                },
                {
                    "name": "A3",
                    "midi": 57,
                    "time": 668.6791666666835,
                    "velocity": 0.5905511811023622,
                    "duration": 0.09791666666660603
                },
                {
                    "name": "E4",
                    "midi": 64,
                    "time": 668.8458333333501,
                    "velocity": 0.8031496062992126,
                    "duration": 0.10624999999993179
                },
                {
                    "name": "A4",
                    "midi": 69,
                    "time": 668.8458333333501,
                    "velocity": 0.7086614173228346,
                    "duration": 0.08124999999995453
                },
                {
                    "name": "C#5",
                    "midi": 73,
                    "time": 668.8479166666834,
                    "velocity": 0.7086614173228346,
                    "duration": 0.08749999999997726
                },
                {
                    "name": "E5",
                    "midi": 76,
                    "time": 668.8500000000167,
                    "velocity": 0.7244094488188977,
                    "duration": 0.11458333333337123
                },
                {
                    "name": "A3",
                    "midi": 57,
                    "time": 668.8500000000167,
                    "velocity": 0.6456692913385826,
                    "duration": 0.10000000000002274
                },
                {
                    "name": "C#4",
                    "midi": 61,
                    "time": 668.8541666666835,
                    "velocity": 0.7480314960629921,
                    "duration": 0.09791666666660603
                },
                {
                    "name": "F#5",
                    "midi": 78,
                    "time": 669.1312500000167,
                    "velocity": 0.8818897637795275,
                    "duration": 0.16666666666662877
                },
                {
                    "name": "F#4",
                    "midi": 66,
                    "time": 669.1312500000167,
                    "velocity": 0.84251968503937,
                    "duration": 0.15833333333330302
                },
                {
                    "name": "A3",
                    "midi": 57,
                    "time": 669.1354166666835,
                    "velocity": 0.5354330708661418,
                    "duration": 0.14999999999986358
                },
                {
                    "name": "A4",
                    "midi": 69,
                    "time": 669.1375000000168,
                    "velocity": 0.8110236220472441,
                    "duration": 0.11666666666656056
                },
                {
                    "name": "C#5",
                    "midi": 73,
                    "time": 669.1395833333501,
                    "velocity": 0.8346456692913385,
                    "duration": 0.14166666666653782
                },
                {
                    "name": "C#4",
                    "midi": 61,
                    "time": 669.1416666666834,
                    "velocity": 0.6141732283464567,
                    "duration": 0.1374999999999318
                },
                {
                    "name": "F4",
                    "midi": 65,
                    "time": 669.4062500000167,
                    "velocity": 0.7322834645669292,
                    "duration": 0.09166666666681067
                },
                {
                    "name": "C#4",
                    "midi": 61,
                    "time": 669.4104166666834,
                    "velocity": 0.6614173228346457,
                    "duration": 0.09166666666669698
                },
                {
                    "name": "A3",
                    "midi": 57,
                    "time": 669.4166666666835,
                    "velocity": 0.5590551181102362,
                    "duration": 0.09583333333330302
                },
                {
                    "name": "F5",
                    "midi": 77,
                    "time": 669.4166666666835,
                    "velocity": 0.8110236220472441,
                    "duration": 0.1229166666665833
                },
                {
                    "name": "A4",
                    "midi": 69,
                    "time": 669.4270833333501,
                    "velocity": 0.7322834645669292,
                    "duration": 0.07291666666674246
                },
                {
                    "name": "C#5",
                    "midi": 73,
                    "time": 669.4312500000168,
                    "velocity": 0.7322834645669292,
                    "duration": 0.07083333333332575
                },
                {
                    "name": "E4",
                    "midi": 64,
                    "time": 669.6354166666833,
                    "velocity": 0.7559055118110236,
                    "duration": 0.07291666666674246
                },
                {
                    "name": "C#4",
                    "midi": 61,
                    "time": 669.6416666666834,
                    "velocity": 0.6850393700787402,
                    "duration": 0.07291666666674246
                },
                {
                    "name": "A3",
                    "midi": 57,
                    "time": 669.6416666666834,
                    "velocity": 0.5984251968503937,
                    "duration": 0.08541666666678793
                },
                {
                    "name": "E5",
                    "midi": 76,
                    "time": 669.6458333333501,
                    "velocity": 0.7952755905511811,
                    "duration": 0.08333333333337123
                },
                {
                    "name": "A4",
                    "midi": 69,
                    "time": 669.6520833333501,
                    "velocity": 0.7007874015748031,
                    "duration": 0.05624999999997726
                },
                {
                    "name": "C#5",
                    "midi": 73,
                    "time": 669.6541666666834,
                    "velocity": 0.7244094488188977,
                    "duration": 0.05624999999997726
                },
                {
                    "name": "F#5",
                    "midi": 78,
                    "time": 669.7854166666834,
                    "velocity": 0.8582677165354331,
                    "duration": 0.10624999999993179
                },
                {
                    "name": "A3",
                    "midi": 57,
                    "time": 669.7854166666834,
                    "velocity": 0.6377952755905512,
                    "duration": 0.07291666666662877
                },
                {
                    "name": "C#5",
                    "midi": 73,
                    "time": 669.7875000000167,
                    "velocity": 0.7874015748031497,
                    "duration": 0.06458333333330302
                },
                {
                    "name": "A4",
                    "midi": 69,
                    "time": 669.7875000000167,
                    "velocity": 0.6771653543307087,
                    "duration": 0.06041666666669698
                },
                {
                    "name": "F#4",
                    "midi": 66,
                    "time": 669.7958333333501,
                    "velocity": 0.8661417322834646,
                    "duration": 0.054166666666674246
                },
                {
                    "name": "C#4",
                    "midi": 61,
                    "time": 669.8000000000168,
                    "velocity": 0.6850393700787402,
                    "duration": 0.049999999999954525
                },
                {
                    "name": "A3",
                    "midi": 57,
                    "time": 669.9187500000166,
                    "velocity": 0.7086614173228346,
                    "duration": 0.09166666666681067
                },
                {
                    "name": "F5",
                    "midi": 77,
                    "time": 669.9229166666834,
                    "velocity": 0.7716535433070866,
                    "duration": 0.10416666666674246
                },
                {
                    "name": "A4",
                    "midi": 69,
                    "time": 669.9270833333501,
                    "velocity": 0.6535433070866141,
                    "duration": 0.06875000000002274
                },
                {
                    "name": "C#5",
                    "midi": 73,
                    "time": 669.9270833333501,
                    "velocity": 0.7244094488188977,
                    "duration": 0.06875000000002274
                },
                {
                    "name": "F4",
                    "midi": 65,
                    "time": 669.9333333333501,
                    "velocity": 0.7637795275590551,
                    "duration": 0.09583333333330302
                },
                {
                    "name": "C#4",
                    "midi": 61,
                    "time": 669.9375000000168,
                    "velocity": 0.6850393700787402,
                    "duration": 0.07083333333332575
                },
                {
                    "name": "E5",
                    "midi": 76,
                    "time": 670.2062500000168,
                    "velocity": 0.8818897637795275,
                    "duration": 0.07916666666687888
                },
                {
                    "name": "E4",
                    "midi": 64,
                    "time": 670.2125000000168,
                    "velocity": 0.84251968503937,
                    "duration": 0.06666666666683341
                },
                {
                    "name": "C#4",
                    "midi": 61,
                    "time": 670.2166666666835,
                    "velocity": 0.8267716535433071,
                    "duration": 0.05416666666678793
                },
                {
                    "name": "A3",
                    "midi": 57,
                    "time": 670.2166666666835,
                    "velocity": 0.7637795275590551,
                    "duration": 0.07500000000015916
                },
                {
                    "name": "A4",
                    "midi": 69,
                    "time": 670.2208333333502,
                    "velocity": 0.6377952755905512,
                    "duration": 0.04583333333334849
                },
                {
                    "name": "C#5",
                    "midi": 73,
                    "time": 670.2458333333502,
                    "velocity": 0.3543307086614173,
                    "duration": 0.037500000000136424
                },
                {
                    "name": "A3",
                    "midi": 57,
                    "time": 670.562500000017,
                    "velocity": 0.6299212598425197,
                    "duration": 0.07499999999993179
                },
                {
                    "name": "F#4",
                    "midi": 66,
                    "time": 670.562500000017,
                    "velocity": 0.7874015748031497,
                    "duration": 0.031249999999886313
                },
                {
                    "name": "C#4",
                    "midi": 61,
                    "time": 670.5687500000171,
                    "velocity": 0.6850393700787402,
                    "duration": 0.03749999999990905
                },
                {
                    "name": "F#5",
                    "midi": 78,
                    "time": 670.5791666666837,
                    "velocity": 0.905511811023622,
                    "duration": 0.4812499999999318
                },
                {
                    "name": "C#5",
                    "midi": 73,
                    "time": 670.581250000017,
                    "velocity": 0.889763779527559,
                    "duration": 0.44374999999990905
                },
                {
                    "name": "A4",
                    "midi": 69,
                    "time": 670.5833333333503,
                    "velocity": 0.8110236220472441,
                    "duration": 0.4187499999999318
                },
                {
                    "name": "G#1",
                    "midi": 32,
                    "time": 670.9354166666836,
                    "velocity": 0.8346456692913385,
                    "duration": 0.0916666666665833
                },
                {
                    "name": "G#2",
                    "midi": 44,
                    "time": 670.9416666666837,
                    "velocity": 0.952755905511811,
                    "duration": 0.11458333333325754
                },
                {
                    "name": "B5",
                    "midi": 83,
                    "time": 671.2729166666836,
                    "velocity": 0.7716535433070866,
                    "duration": 0.1666666666664014
                },
                {
                    "name": "B4",
                    "midi": 71,
                    "time": 671.2750000000169,
                    "velocity": 0.7716535433070866,
                    "duration": 0.16249999999979536
                },
                {
                    "name": "F5",
                    "midi": 77,
                    "time": 671.2750000000169,
                    "velocity": 0.7716535433070866,
                    "duration": 0.21249999999986358
                },
                {
                    "name": "F4",
                    "midi": 65,
                    "time": 671.2854166666835,
                    "velocity": 0.8188976377952756,
                    "duration": 0.09999999999990905
                },
                {
                    "name": "B3",
                    "midi": 59,
                    "time": 671.3020833333502,
                    "velocity": 0.5669291338582677,
                    "duration": 0.13333333333321207
                },
                {
                    "name": "G#3",
                    "midi": 56,
                    "time": 671.3125000000168,
                    "velocity": 0.3858267716535433,
                    "duration": 0.10624999999993179
                },
                {
                    "name": "G#3",
                    "midi": 56,
                    "time": 671.4833333333501,
                    "velocity": 0.7480314960629921,
                    "duration": 0.09791666666671972
                },
                {
                    "name": "E4",
                    "midi": 64,
                    "time": 671.4895833333501,
                    "velocity": 0.7795275590551181,
                    "duration": 0.06666666666671972
                },
                {
                    "name": "B3",
                    "midi": 59,
                    "time": 671.4937500000168,
                    "velocity": 0.6377952755905512,
                    "duration": 0.09166666666669698
                },
                {
                    "name": "E5",
                    "midi": 76,
                    "time": 671.4958333333501,
                    "velocity": 0.7165354330708661,
                    "duration": 0.08333333333337123
                },
                {
                    "name": "B4",
                    "midi": 71,
                    "time": 671.5000000000168,
                    "velocity": 0.5905511811023622,
                    "duration": 0.06041666666669698
                },
                {
                    "name": "G#3",
                    "midi": 56,
                    "time": 671.6375000000169,
                    "velocity": 0.5669291338582677,
                    "duration": 0.07708333333346218
                },
                {
                    "name": "F#5",
                    "midi": 78,
                    "time": 671.6375000000169,
                    "velocity": 0.905511811023622,
                    "duration": 0.16875000000015916
                },
                {
                    "name": "F#4",
                    "midi": 66,
                    "time": 671.6416666666836,
                    "velocity": 0.8976377952755905,
                    "duration": 0.13958333333346218
                },
                {
                    "name": "B4",
                    "midi": 71,
                    "time": 671.6458333333503,
                    "velocity": 0.7952755905511811,
                    "duration": 0.09166666666669698
                },
                {
                    "name": "B3",
                    "midi": 59,
                    "time": 671.6520833333503,
                    "velocity": 0.5826771653543307,
                    "duration": 0.08124999999995453
                },
                {
                    "name": "F5",
                    "midi": 77,
                    "time": 671.9041666666838,
                    "velocity": 0.8818897637795275,
                    "duration": 0.15625
                },
                {
                    "name": "F4",
                    "midi": 65,
                    "time": 671.9104166666838,
                    "velocity": 0.8346456692913385,
                    "duration": 0.09791666666660603
                },
                {
                    "name": "G#3",
                    "midi": 56,
                    "time": 671.9187500000171,
                    "velocity": 0.7007874015748031,
                    "duration": 0.10624999999993179
                },
                {
                    "name": "B4",
                    "midi": 71,
                    "time": 671.9208333333504,
                    "velocity": 0.7716535433070866,
                    "duration": 0.08124999999995453
                },
                {
                    "name": "B3",
                    "midi": 59,
                    "time": 671.9208333333504,
                    "velocity": 0.6614173228346457,
                    "duration": 0.11874999999997726
                },
                {
                    "name": "G#3",
                    "midi": 56,
                    "time": 672.1583333333505,
                    "velocity": 0.7637795275590551,
                    "duration": 0.1395833333333485
                },
                {
                    "name": "E4",
                    "midi": 64,
                    "time": 672.1625000000172,
                    "velocity": 0.7795275590551181,
                    "duration": 0.08541666666667425
                },
                {
                    "name": "E5",
                    "midi": 76,
                    "time": 672.1645833333505,
                    "velocity": 0.889763779527559,
                    "duration": 0.10833333333334849
                },
                {
                    "name": "B3",
                    "midi": 59,
                    "time": 672.1687500000172,
                    "velocity": 0.6535433070866141,
                    "duration": 0.11458333333325754
                },
                {
                    "name": "B4",
                    "midi": 71,
                    "time": 672.1708333333505,
                    "velocity": 0.8031496062992126,
                    "duration": 0.06875000000002274
                },
                {
                    "name": "G#3",
                    "midi": 56,
                    "time": 672.4250000000171,
                    "velocity": 0.6929133858267716,
                    "duration": 0.05833333333350765
                },
                {
                    "name": "F#4",
                    "midi": 66,
                    "time": 672.4291666666838,
                    "velocity": 0.889763779527559,
                    "duration": 0.07500000000015916
                },
                {
                    "name": "F#5",
                    "midi": 78,
                    "time": 672.4333333333506,
                    "velocity": 0.889763779527559,
                    "duration": 0.10416666666674246
                },
                {
                    "name": "B4",
                    "midi": 71,
                    "time": 672.4395833333506,
                    "velocity": 0.84251968503937,
                    "duration": 0.07500000000004547
                },
                {
                    "name": "B3",
                    "midi": 59,
                    "time": 672.4437500000173,
                    "velocity": 0.5196850393700787,
                    "duration": 0.05208333333337123
                },
                {
                    "name": "B4",
                    "midi": 71,
                    "time": 672.5708333333506,
                    "velocity": 0.6614173228346457,
                    "duration": 0.08333333333337123
                },
                {
                    "name": "F5",
                    "midi": 77,
                    "time": 672.5708333333506,
                    "velocity": 0.7874015748031497,
                    "duration": 0.10625000000004547
                },
                {
                    "name": "F4",
                    "midi": 65,
                    "time": 672.5812500000172,
                    "velocity": 0.7874015748031497,
                    "duration": 0.06875000000002274
                },
                {
                    "name": "B3",
                    "midi": 59,
                    "time": 672.5895833333506,
                    "velocity": 0.6456692913385826,
                    "duration": 0.0958333333334167
                },
                {
                    "name": "G#3",
                    "midi": 56,
                    "time": 672.5916666666839,
                    "velocity": 0.5669291338582677,
                    "duration": 0.054166666666674246
                },
                {
                    "name": "E5",
                    "midi": 76,
                    "time": 672.7083333333507,
                    "velocity": 0.889763779527559,
                    "duration": 0.10208333333332575
                },
                {
                    "name": "B4",
                    "midi": 71,
                    "time": 672.7145833333507,
                    "velocity": 0.6692913385826772,
                    "duration": 0.07500000000004547
                },
                {
                    "name": "G#3",
                    "midi": 56,
                    "time": 672.7270833333507,
                    "velocity": 0.6929133858267716,
                    "duration": 0.10208333333321207
                },
                {
                    "name": "E4",
                    "midi": 64,
                    "time": 672.729166666684,
                    "velocity": 0.8110236220472441,
                    "duration": 0.07083333333332575
                },
                {
                    "name": "B3",
                    "midi": 59,
                    "time": 672.7375000000173,
                    "velocity": 0.7165354330708661,
                    "duration": 0.0916666666665833
                },
                {
                    "name": "G#3",
                    "midi": 56,
                    "time": 673.0583333333506,
                    "velocity": 0.7716535433070866,
                    "duration": 0.1312500000002501
                },
                {
                    "name": "F#4",
                    "midi": 66,
                    "time": 673.0645833333506,
                    "velocity": 0.952755905511811,
                    "duration": 0.15208333333362134
                },
                {
                    "name": "F#5",
                    "midi": 78,
                    "time": 673.0687500000173,
                    "velocity": 0.952755905511811,
                    "duration": 0.14791666666690162
                },
                {
                    "name": "B4",
                    "midi": 71,
                    "time": 673.072916666684,
                    "velocity": 0.8818897637795275,
                    "duration": 0.08750000000009095
                },
                {
                    "name": "B3",
                    "midi": 59,
                    "time": 673.0770833333507,
                    "velocity": 0.6535433070866141,
                    "duration": 0.13333333333343944
                },
                {
                    "name": "G#3",
                    "midi": 56,
                    "time": 673.5395833333508,
                    "velocity": 0.7795275590551181,
                    "duration": 0.12916666666660603
                },
                {
                    "name": "F4",
                    "midi": 65,
                    "time": 673.5416666666841,
                    "velocity": 0.9212598425196851,
                    "duration": 0.07083333333321207
                },
                {
                    "name": "F5",
                    "midi": 77,
                    "time": 673.5437500000174,
                    "velocity": 0.9448818897637795,
                    "duration": 0.29166666666662877
                },
                {
                    "name": "B3",
                    "midi": 59,
                    "time": 673.5520833333508,
                    "velocity": 0.7244094488188977,
                    "duration": 0.10416666666662877
                },
                {
                    "name": "B4",
                    "midi": 71,
                    "time": 673.5625000000174,
                    "velocity": 0.8346456692913385,
                    "duration": 0.10625000000004547
                },
                {
                    "name": "F#2",
                    "midi": 42,
                    "time": 674.0416666666841,
                    "velocity": 0.968503937007874,
                    "duration": 0.20624999999995453
                },
                {
                    "name": "F#1",
                    "midi": 30,
                    "time": 674.0437500000174,
                    "velocity": 0.8818897637795275,
                    "duration": 0.16250000000002274
                },
                {
                    "name": "C#5",
                    "midi": 73,
                    "time": 674.5729166666841,
                    "velocity": 0.905511811023622,
                    "duration": 0.1083333333332348
                },
                {
                    "name": "C#6",
                    "midi": 85,
                    "time": 674.5729166666841,
                    "velocity": 0.8661417322834646,
                    "duration": 0.14583333333314386
                },
                {
                    "name": "A4",
                    "midi": 69,
                    "time": 674.5729166666841,
                    "velocity": 0.8818897637795275,
                    "duration": 0.5333333333331893
                },
                {
                    "name": "E5",
                    "midi": 76,
                    "time": 674.5750000000174,
                    "velocity": 0.8110236220472441,
                    "duration": 0.12499999999988631
                },
                {
                    "name": "E4",
                    "midi": 64,
                    "time": 674.5770833333507,
                    "velocity": 0.8188976377952756,
                    "duration": 0.4854166666665378
                },
                {
                    "name": "A5",
                    "midi": 81,
                    "time": 674.579166666684,
                    "velocity": 0.7007874015748031,
                    "duration": 0.16041666666660603
                },
                {
                    "name": "C#4",
                    "midi": 61,
                    "time": 674.5812500000173,
                    "velocity": 0.8346456692913385,
                    "duration": 0.47916666666662877
                },
                {
                    "name": "B4",
                    "midi": 71,
                    "time": 675.360416666684,
                    "velocity": 0.8818897637795275,
                    "duration": 0.4541666666666515
                },
                {
                    "name": "D#4",
                    "midi": 63,
                    "time": 675.3666666666841,
                    "velocity": 0.8661417322834646,
                    "duration": 0.43124999999997726
                },
                {
                    "name": "D#6",
                    "midi": 87,
                    "time": 675.3666666666841,
                    "velocity": 0.889763779527559,
                    "duration": 0.30624999999997726
                },
                {
                    "name": "B5",
                    "midi": 83,
                    "time": 675.3666666666841,
                    "velocity": 0.7874015748031497,
                    "duration": 0.3083333333332803
                },
                {
                    "name": "D#5",
                    "midi": 75,
                    "time": 675.3687500000174,
                    "velocity": 0.937007874015748,
                    "duration": 0.27708333333339397
                },
                {
                    "name": "G#4",
                    "midi": 68,
                    "time": 675.3729166666841,
                    "velocity": 0.8346456692913385,
                    "duration": 0.46041666666656056
                },
                {
                    "name": "E4",
                    "midi": 64,
                    "time": 675.9520833333506,
                    "velocity": 0.7165354330708661,
                    "duration": 0.13333333333321207
                },
                {
                    "name": "C#6",
                    "midi": 85,
                    "time": 675.9625000000173,
                    "velocity": 0.8188976377952756,
                    "duration": 0.06666666666660603
                },
                {
                    "name": "E6",
                    "midi": 88,
                    "time": 675.9645833333506,
                    "velocity": 0.8818897637795275,
                    "duration": 0.05833333333328028
                },
                {
                    "name": "E5",
                    "midi": 76,
                    "time": 675.9645833333506,
                    "velocity": 0.9291338582677166,
                    "duration": 0.05624999999997726
                },
                {
                    "name": "A5",
                    "midi": 81,
                    "time": 675.9645833333506,
                    "velocity": 0.8110236220472441,
                    "duration": 0.06458333333330302
                },
                {
                    "name": "A4",
                    "midi": 69,
                    "time": 675.9750000000172,
                    "velocity": 0.6850393700787402,
                    "duration": 0.09375
                },
                {
                    "name": "C#5",
                    "midi": 73,
                    "time": 675.9770833333505,
                    "velocity": 0.9448818897637795,
                    "duration": 0.058333333333393966
                },
                {
                    "name": "E3",
                    "midi": 52,
                    "time": 676.5104166666838,
                    "velocity": 0.7086614173228346,
                    "duration": 0.5270833333332803
                },
                {
                    "name": "C#4",
                    "midi": 61,
                    "time": 676.5166666666838,
                    "velocity": 0.9291338582677166,
                    "duration": 0.13750000000004547
                },
                {
                    "name": "E5",
                    "midi": 76,
                    "time": 676.5187500000171,
                    "velocity": 0.8188976377952756,
                    "duration": 0.7124999999999773
                },
                {
                    "name": "A4",
                    "midi": 69,
                    "time": 676.5208333333504,
                    "velocity": 0.7322834645669292,
                    "duration": 0.09791666666671972
                },
                {
                    "name": "E4",
                    "midi": 64,
                    "time": 676.5270833333504,
                    "velocity": 0.8110236220472441,
                    "duration": 0.08749999999997726
                },
                {
                    "name": "A3",
                    "midi": 57,
                    "time": 676.5270833333504,
                    "velocity": 0.6929133858267716,
                    "duration": 0.41041666666660603
                },
                {
                    "name": "C#5",
                    "midi": 73,
                    "time": 676.5291666666838,
                    "velocity": 0.7874015748031497,
                    "duration": 0.1583333333334167
                },
                {
                    "name": "D#4",
                    "midi": 63,
                    "time": 676.7895833333505,
                    "velocity": 0.8661417322834646,
                    "duration": 0.07499999999993179
                },
                {
                    "name": "D#5",
                    "midi": 75,
                    "time": 676.8145833333505,
                    "velocity": 0.84251968503937,
                    "duration": 0.17708333333325754
                },
                {
                    "name": "C#4",
                    "midi": 61,
                    "time": 676.9729166666838,
                    "velocity": 0.8267716535433071,
                    "duration": 0.0625
                },
                {
                    "name": "C#5",
                    "midi": 73,
                    "time": 676.9895833333504,
                    "velocity": 0.889763779527559,
                    "duration": 0.12708333333330302
                },
                {
                    "name": "A1",
                    "midi": 33,
                    "time": 677.2875000000171,
                    "velocity": 0.7244094488188977,
                    "duration": 0.3645833333334849
                },
                {
                    "name": "E5",
                    "midi": 76,
                    "time": 677.2875000000171,
                    "velocity": 0.7637795275590551,
                    "duration": 0.41875000000015916
                },
                {
                    "name": "C5",
                    "midi": 72,
                    "time": 677.2937500000171,
                    "velocity": 0.8346456692913385,
                    "duration": 0.45000000000015916
                },
                {
                    "name": "A2",
                    "midi": 45,
                    "time": 677.2937500000171,
                    "velocity": 0.84251968503937,
                    "duration": 0.41458333333343944
                },
                {
                    "name": "E4",
                    "midi": 64,
                    "time": 677.2979166666838,
                    "velocity": 0.8740157480314961,
                    "duration": 0.39791666666678793
                },
                {
                    "name": "F#5",
                    "midi": 78,
                    "time": 678.022916666684,
                    "velocity": 0.8267716535433071,
                    "duration": 0.27500000000009095
                },
                {
                    "name": "F#3",
                    "midi": 54,
                    "time": 678.0250000000173,
                    "velocity": 0.8110236220472441,
                    "duration": 0.3770833333334167
                },
                {
                    "name": "F#4",
                    "midi": 66,
                    "time": 678.0270833333506,
                    "velocity": 0.8818897637795275,
                    "duration": 0.18333333333339397
                },
                {
                    "name": "E4",
                    "midi": 64,
                    "time": 678.0312500000173,
                    "velocity": 0.8188976377952756,
                    "duration": 0.30625000000009095
                },
                {
                    "name": "E5",
                    "midi": 76,
                    "time": 678.0333333333506,
                    "velocity": 0.7244094488188977,
                    "duration": 0.2354166666667652
                },
                {
                    "name": "C5",
                    "midi": 72,
                    "time": 678.0375000000173,
                    "velocity": 0.7322834645669292,
                    "duration": 0.17708333333337123
                },
                {
                    "name": "C4",
                    "midi": 60,
                    "time": 678.0375000000173,
                    "velocity": 0.7952755905511811,
                    "duration": 0.27500000000009095
                },
                {
                    "name": "G#5",
                    "midi": 80,
                    "time": 678.522916666684,
                    "velocity": 0.889763779527559,
                    "duration": 0.17708333333325754
                },
                {
                    "name": "G#4",
                    "midi": 68,
                    "time": 678.5250000000173,
                    "velocity": 0.8976377952755905,
                    "duration": 0.1229166666665833
                },
                {
                    "name": "E4",
                    "midi": 64,
                    "time": 678.5270833333506,
                    "velocity": 0.8976377952755905,
                    "duration": 0.2645833333333485
                },
                {
                    "name": "C5",
                    "midi": 72,
                    "time": 678.5270833333506,
                    "velocity": 0.7874015748031497,
                    "duration": 0.09375
                },
                {
                    "name": "C4",
                    "midi": 60,
                    "time": 678.5291666666839,
                    "velocity": 0.8582677165354331,
                    "duration": 0.25625000000002274
                },
                {
                    "name": "E5",
                    "midi": 76,
                    "time": 678.5291666666839,
                    "velocity": 0.7244094488188977,
                    "duration": 0.13333333333332575
                },
                {
                    "name": "G#3",
                    "midi": 56,
                    "time": 678.5291666666839,
                    "velocity": 0.889763779527559,
                    "duration": 0.4187500000000455
                },
                {
                    "name": "A5",
                    "midi": 81,
                    "time": 679.0041666666839,
                    "velocity": 0.8031496062992126,
                    "duration": 0.32500000000027285
                },
                {
                    "name": "E5",
                    "midi": 76,
                    "time": 679.0083333333506,
                    "velocity": 0.7322834645669292,
                    "duration": 0.3000000000001819
                },
                {
                    "name": "A4",
                    "midi": 69,
                    "time": 679.0104166666839,
                    "velocity": 0.7874015748031497,
                    "duration": 0.26250000000015916
                },
                {
                    "name": "C5",
                    "midi": 72,
                    "time": 679.0145833333506,
                    "velocity": 0.7795275590551181,
                    "duration": 0.2708333333334849
                },
                {
                    "name": "A3",
                    "midi": 57,
                    "time": 679.022916666684,
                    "velocity": 0.8740157480314961,
                    "duration": 0.27291666666678793
                },
                {
                    "name": "E4",
                    "midi": 64,
                    "time": 679.0250000000173,
                    "velocity": 0.9133858267716536,
                    "duration": 0.2229166666668334
                },
                {
                    "name": "C4",
                    "midi": 60,
                    "time": 679.029166666684,
                    "velocity": 0.8582677165354331,
                    "duration": 0.22916666666674246
                },
                {
                    "name": "B5",
                    "midi": 83,
                    "time": 679.5645833333508,
                    "velocity": 0.8188976377952756,
                    "duration": 0.24166666666667425
                },
                {
                    "name": "G#5",
                    "midi": 80,
                    "time": 679.5687500000175,
                    "velocity": 0.8503937007874016,
                    "duration": 0.27083333333325754
                },
                {
                    "name": "B4",
                    "midi": 71,
                    "time": 679.5687500000175,
                    "velocity": 0.8582677165354331,
                    "duration": 0.16458333333332575
                },
                {
                    "name": "E5",
                    "midi": 76,
                    "time": 679.5687500000175,
                    "velocity": 0.84251968503937,
                    "duration": 0.21249999999997726
                },
                {
                    "name": "G#2",
                    "midi": 44,
                    "time": 679.5708333333508,
                    "velocity": 0.9763779527559056,
                    "duration": 0.15416666666669698
                },
                {
                    "name": "G#1",
                    "midi": 32,
                    "time": 679.5729166666841,
                    "velocity": 0.889763779527559,
                    "duration": 0.10833333333334849
                },
                {
                    "name": "C#6",
                    "midi": 85,
                    "time": 680.1020833333508,
                    "velocity": 0.8976377952755905,
                    "duration": 0.1708333333333485
                },
                {
                    "name": "G#4",
                    "midi": 68,
                    "time": 680.1020833333508,
                    "velocity": 0.9133858267716536,
                    "duration": 0.23958333333337123
                },
                {
                    "name": "E5",
                    "midi": 76,
                    "time": 680.1062500000176,
                    "velocity": 0.8110236220472441,
                    "duration": 0.11666666666656056
                },
                {
                    "name": "C#5",
                    "midi": 73,
                    "time": 680.1083333333509,
                    "velocity": 0.84251968503937,
                    "duration": 0.07499999999993179
                },
                {
                    "name": "G#5",
                    "midi": 80,
                    "time": 680.1104166666842,
                    "velocity": 0.7874015748031497,
                    "duration": 0.14791666666667425
                },
                {
                    "name": "E4",
                    "midi": 64,
                    "time": 680.1187500000175,
                    "velocity": 0.7637795275590551,
                    "duration": 0.1895833333334167
                },
                {
                    "name": "C#4",
                    "midi": 61,
                    "time": 680.1187500000175,
                    "velocity": 0.7401574803149606,
                    "duration": 0.4104166666667197
                },
                {
                    "name": "D#6",
                    "midi": 87,
                    "time": 680.6687500000176,
                    "velocity": 0.889763779527559,
                    "duration": 0.08333333333325754
                },
                {
                    "name": "G#4",
                    "midi": 68,
                    "time": 680.6687500000176,
                    "velocity": 0.8110236220472441,
                    "duration": 0.08541666666656056
                },
                {
                    "name": "B4",
                    "midi": 71,
                    "time": 680.6729166666843,
                    "velocity": 0.8188976377952756,
                    "duration": 0.06458333333318933
                },
                {
                    "name": "D#4",
                    "midi": 63,
                    "time": 680.6750000000176,
                    "velocity": 0.7952755905511811,
                    "duration": 0.10208333333321207
                },
                {
                    "name": "B5",
                    "midi": 83,
                    "time": 680.6750000000176,
                    "velocity": 0.7559055118110236,
                    "duration": 0.0916666666665833
                },
                {
                    "name": "D#5",
                    "midi": 75,
                    "time": 680.6770833333509,
                    "velocity": 0.905511811023622,
                    "duration": 0.05833333333328028
                },
                {
                    "name": "G#5",
                    "midi": 80,
                    "time": 680.6791666666842,
                    "velocity": 0.8188976377952756,
                    "duration": 0.08749999999997726
                },
                {
                    "name": "A#3",
                    "midi": 58,
                    "time": 681.2937500000174,
                    "velocity": 0.8267716535433071,
                    "duration": 0.17916666666678793
                },
                {
                    "name": "D#3",
                    "midi": 51,
                    "time": 681.3000000000175,
                    "velocity": 0.7874015748031497,
                    "duration": 0.5312500000001137
                },
                {
                    "name": "G#3",
                    "midi": 56,
                    "time": 681.3020833333508,
                    "velocity": 0.7874015748031497,
                    "duration": 0.5020833333335304
                },
                {
                    "name": "D#5",
                    "midi": 75,
                    "time": 681.3083333333508,
                    "velocity": 0.905511811023622,
                    "duration": 0.6791666666667879
                },
                {
                    "name": "A#4",
                    "midi": 70,
                    "time": 681.3145833333508,
                    "velocity": 0.905511811023622,
                    "duration": 0.28958333333343944
                },
                {
                    "name": "D#4",
                    "midi": 63,
                    "time": 681.3145833333508,
                    "velocity": 0.937007874015748,
                    "duration": 0.2854166666667197
                },
                {
                    "name": "C#5",
                    "midi": 73,
                    "time": 681.5645833333509,
                    "velocity": 0.8188976377952756,
                    "duration": 0.22083333333330302
                },
                {
                    "name": "C#4",
                    "midi": 61,
                    "time": 681.5729166666843,
                    "velocity": 0.7165354330708661,
                    "duration": 0.10416666666662877
                },
                {
                    "name": "C5",
                    "midi": 72,
                    "time": 681.7312500000176,
                    "velocity": 0.8031496062992126,
                    "duration": 0.11666666666667425
                },
                {
                    "name": "C4",
                    "midi": 60,
                    "time": 681.7354166666843,
                    "velocity": 0.8031496062992126,
                    "duration": 0.0625
                },
                {
                    "name": "D#5",
                    "midi": 75,
                    "time": 682.0229166666843,
                    "velocity": 0.7165354330708661,
                    "duration": 0.36666666666667425
                },
                {
                    "name": "B4",
                    "midi": 71,
                    "time": 682.0229166666843,
                    "velocity": 0.8110236220472441,
                    "duration": 0.372916666666697
                },
                {
                    "name": "C#3",
                    "midi": 49,
                    "time": 682.0229166666843,
                    "velocity": 0.9448818897637795,
                    "duration": 0.37083333333339397
                },
                {
                    "name": "D#4",
                    "midi": 63,
                    "time": 682.027083333351,
                    "velocity": 0.9133858267716536,
                    "duration": 0.3291666666666515
                },
                {
                    "name": "C#2",
                    "midi": 37,
                    "time": 682.0312500000177,
                    "velocity": 0.9133858267716536,
                    "duration": 0.32083333333321207
                },
                {
                    "name": "B4",
                    "midi": 71,
                    "time": 682.677083333351,
                    "velocity": 0.7795275590551181,
                    "duration": 0.31458333333318933
                },
                {
                    "name": "E5",
                    "midi": 76,
                    "time": 682.6791666666843,
                    "velocity": 0.84251968503937,
                    "duration": 0.3437499999998863
                },
                {
                    "name": "E4",
                    "midi": 64,
                    "time": 682.683333333351,
                    "velocity": 0.7874015748031497,
                    "duration": 0.17916666666656056
                },
                {
                    "name": "G#4",
                    "midi": 68,
                    "time": 682.6854166666843,
                    "velocity": 0.8110236220472441,
                    "duration": 0.25833333333321207
                },
                {
                    "name": "B3",
                    "midi": 59,
                    "time": 682.6854166666843,
                    "velocity": 0.8188976377952756,
                    "duration": 0.5041666666664923
                },
                {
                    "name": "G#3",
                    "midi": 56,
                    "time": 682.6875000000176,
                    "velocity": 0.8110236220472441,
                    "duration": 0.4312499999998636
                },
                {
                    "name": "E3",
                    "midi": 52,
                    "time": 682.695833333351,
                    "velocity": 0.7559055118110236,
                    "duration": 0.9104166666664923
                },
                {
                    "name": "F#5",
                    "midi": 78,
                    "time": 683.3625000000175,
                    "velocity": 0.889763779527559,
                    "duration": 0.4666666666665833
                },
                {
                    "name": "G#4",
                    "midi": 68,
                    "time": 683.3645833333508,
                    "velocity": 0.7165354330708661,
                    "duration": 0.4645833333332803
                },
                {
                    "name": "F#4",
                    "midi": 66,
                    "time": 683.3708333333508,
                    "velocity": 0.8661417322834646,
                    "duration": 0.39999999999997726
                },
                {
                    "name": "B3",
                    "midi": 59,
                    "time": 683.3708333333508,
                    "velocity": 0.8503937007874016,
                    "duration": 0.4958333333332803
                },
                {
                    "name": "G#3",
                    "midi": 56,
                    "time": 683.3729166666841,
                    "velocity": 0.8110236220472441,
                    "duration": 0.470833333333303
                },
                {
                    "name": "B4",
                    "midi": 71,
                    "time": 683.3729166666841,
                    "velocity": 0.7637795275590551,
                    "duration": 0.4666666666665833
                },
                {
                    "name": "F#3",
                    "midi": 54,
                    "time": 683.3729166666841,
                    "velocity": 0.8110236220472441,
                    "duration": 0.4833333333333485
                },
                {
                    "name": "B3",
                    "midi": 59,
                    "time": 684.2729166666841,
                    "velocity": 0.6692913385826772,
                    "duration": 0.7166666666668107
                },
                {
                    "name": "G#3",
                    "midi": 56,
                    "time": 684.2750000000174,
                    "velocity": 0.6771653543307087,
                    "duration": 0.7520833333335304
                },
                {
                    "name": "E4",
                    "midi": 64,
                    "time": 684.2750000000174,
                    "velocity": 0.7086614173228346,
                    "duration": 0.6791666666667879
                },
                {
                    "name": "G#5",
                    "midi": 80,
                    "time": 684.2750000000174,
                    "velocity": 0.8110236220472441,
                    "duration": 0.7708333333334849
                },
                {
                    "name": "G#4",
                    "midi": 68,
                    "time": 684.2770833333507,
                    "velocity": 0.7874015748031497,
                    "duration": 0.6291666666667197
                },
                {
                    "name": "B4",
                    "midi": 71,
                    "time": 684.2812500000174,
                    "velocity": 0.6929133858267716,
                    "duration": 0.6687500000000455
                },
                {
                    "name": "E5",
                    "midi": 76,
                    "time": 684.2854166666841,
                    "velocity": 0.6614173228346457,
                    "duration": 0.7395833333334849
                },
                {
                    "name": "G#4",
                    "midi": 68,
                    "time": 685.6770833333509,
                    "velocity": 0.5748031496062992,
                    "duration": 0.0749999999998181
                },
                {
                    "name": "A#3",
                    "midi": 58,
                    "time": 685.7041666666842,
                    "velocity": 0.48031496062992124,
                    "duration": 0.10416666666651508
                },
                {
                    "name": "G#5",
                    "midi": 80,
                    "time": 685.7208333333508,
                    "velocity": 0.5354330708661418,
                    "duration": 0.20833333333314386
                },
                {
                    "name": "A#4",
                    "midi": 70,
                    "time": 685.7229166666841,
                    "velocity": 0.4330708661417323,
                    "duration": 0.11041666666653782
                },
                {
                    "name": "E4",
                    "midi": 64,
                    "time": 685.7312500000174,
                    "velocity": 0.2283464566929134,
                    "duration": 0.049999999999954525
                },
                {
                    "name": "E5",
                    "midi": 76,
                    "time": 685.7479166666841,
                    "velocity": 0.4251968503937008,
                    "duration": 0.12499999999988631
                },
                {
                    "name": "C#3",
                    "midi": 49,
                    "time": 685.9541666666839,
                    "velocity": 0.7480314960629921,
                    "duration": 0.05625000000009095
                },
                {
                    "name": "F#2",
                    "midi": 42,
                    "time": 685.9625000000173,
                    "velocity": 0.7401574803149606,
                    "duration": 0.043750000000045475
                },
                {
                    "name": "A#5",
                    "midi": 82,
                    "time": 686.1625000000173,
                    "velocity": 0.8110236220472441,
                    "duration": 0.2479166666664696
                },
                {
                    "name": "G#4",
                    "midi": 68,
                    "time": 686.2583333333506,
                    "velocity": 0.7007874015748031,
                    "duration": 0.04374999999993179
                },
                {
                    "name": "A#3",
                    "midi": 58,
                    "time": 686.2770833333506,
                    "velocity": 0.36220472440944884,
                    "duration": 0.08333333333325754
                },
                {
                    "name": "C6",
                    "midi": 84,
                    "time": 686.4583333333504,
                    "velocity": 0.7559055118110236,
                    "duration": 0.06249999999988631
                },
                {
                    "name": "F#2",
                    "midi": 42,
                    "time": 686.4791666666838,
                    "velocity": 0.8110236220472441,
                    "duration": 0.029166666666583296
                },
                {
                    "name": "C#3",
                    "midi": 49,
                    "time": 686.4812500000171,
                    "velocity": 0.7165354330708661,
                    "duration": 0.029166666666583296
                },
                {
                    "name": "G#4",
                    "midi": 68,
                    "time": 686.7791666666836,
                    "velocity": 0.7007874015748031,
                    "duration": 0.039583333333325754
                },
                {
                    "name": "A#3",
                    "midi": 58,
                    "time": 686.7854166666837,
                    "velocity": 0.5669291338582677,
                    "duration": 0.09374999999988631
                },
                {
                    "name": "C5",
                    "midi": 72,
                    "time": 686.8291666666836,
                    "velocity": 0.8031496062992126,
                    "duration": 0.5854166666666742
                },
                {
                    "name": "C#3",
                    "midi": 49,
                    "time": 686.9812500000169,
                    "velocity": 0.7401574803149606,
                    "duration": 0.05000000000006821
                },
                {
                    "name": "F#2",
                    "midi": 42,
                    "time": 686.9854166666836,
                    "velocity": 0.7874015748031497,
                    "duration": 0.03333333333330302
                },
                {
                    "name": "G#4",
                    "midi": 68,
                    "time": 687.2916666666836,
                    "velocity": 0.8110236220472441,
                    "duration": 0.0625
                },
                {
                    "name": "A#3",
                    "midi": 58,
                    "time": 687.3270833333503,
                    "velocity": 0.6062992125984252,
                    "duration": 0.07499999999993179
                },
                {
                    "name": "D5",
                    "midi": 74,
                    "time": 687.4708333333502,
                    "velocity": 0.8110236220472441,
                    "duration": 0.1229166666665833
                },
                {
                    "name": "F#2",
                    "midi": 42,
                    "time": 687.4958333333502,
                    "velocity": 0.8582677165354331,
                    "duration": 0.03125
                },
                {
                    "name": "C#3",
                    "midi": 49,
                    "time": 687.5000000000169,
                    "velocity": 0.8110236220472441,
                    "duration": 0.029166666666583296
                },
                {
                    "name": "G#4",
                    "midi": 68,
                    "time": 687.7854166666835,
                    "velocity": 0.7795275590551181,
                    "duration": 0.035416666666606034
                },
                {
                    "name": "E5",
                    "midi": 76,
                    "time": 687.7875000000168,
                    "velocity": 0.8110236220472441,
                    "duration": 0.09583333333330302
                },
                {
                    "name": "E4",
                    "midi": 64,
                    "time": 687.7895833333502,
                    "velocity": 0.5826771653543307,
                    "duration": 0.04791666666665151
                },
                {
                    "name": "C#3",
                    "midi": 49,
                    "time": 687.9770833333502,
                    "velocity": 0.6692913385826772,
                    "duration": 0.03125
                },
                {
                    "name": "F#2",
                    "midi": 42,
                    "time": 687.9812500000169,
                    "velocity": 0.5511811023622047,
                    "duration": 0.035416666666606034
                },
                {
                    "name": "C3",
                    "midi": 48,
                    "time": 688.0000000000168,
                    "velocity": 0.5196850393700787,
                    "duration": 0.024999999999977263
                },
                {
                    "name": "F#5",
                    "midi": 78,
                    "time": 688.1437500000168,
                    "velocity": 0.8346456692913385,
                    "duration": 0.08958333333328028
                },
                {
                    "name": "G#4",
                    "midi": 68,
                    "time": 688.28958333335,
                    "velocity": 0.5984251968503937,
                    "duration": 0.09583333333330302
                },
                {
                    "name": "G#4",
                    "midi": 68,
                    "time": 688.4729166666834,
                    "velocity": 0.7795275590551181,
                    "duration": 0.03333333333353039
                },
                {
                    "name": "A3",
                    "midi": 57,
                    "time": 688.4770833333502,
                    "velocity": 0.6535433070866141,
                    "duration": 0.07500000000015916
                },
                {
                    "name": "G#5",
                    "midi": 80,
                    "time": 688.4833333333502,
                    "velocity": 0.8267716535433071,
                    "duration": 0.2687500000000682
                },
                {
                    "name": "D#4",
                    "midi": 63,
                    "time": 688.4875000000169,
                    "velocity": 0.6614173228346457,
                    "duration": 0.03125000000011369
                },
                {
                    "name": "B2",
                    "midi": 47,
                    "time": 688.693750000017,
                    "velocity": 0.6377952755905512,
                    "duration": 0.08124999999995453
                },
                {
                    "name": "A5",
                    "midi": 81,
                    "time": 688.8583333333503,
                    "velocity": 0.7952755905511811,
                    "duration": 0.4187500000000455
                },
                {
                    "name": "G#4",
                    "midi": 68,
                    "time": 689.0354166666837,
                    "velocity": 0.8188976377952756,
                    "duration": 0.04791666666665151
                },
                {
                    "name": "A3",
                    "midi": 57,
                    "time": 689.0416666666837,
                    "velocity": 0.47244094488188976,
                    "duration": 0.07916666666665151
                },
                {
                    "name": "D#4",
                    "midi": 63,
                    "time": 689.0583333333503,
                    "velocity": 0.5354330708661418,
                    "duration": 0.03333333333330302
                },
                {
                    "name": "B5",
                    "midi": 83,
                    "time": 689.2291666666837,
                    "velocity": 0.7165354330708661,
                    "duration": 0.10208333333321207
                },
                {
                    "name": "B1",
                    "midi": 35,
                    "time": 689.287500000017,
                    "velocity": 0.7244094488188977,
                    "duration": 0.03333333333330302
                },
                {
                    "name": "B2",
                    "midi": 47,
                    "time": 689.3020833333503,
                    "velocity": 0.49606299212598426,
                    "duration": 0.05208333333325754
                },
                {
                    "name": "G#4",
                    "midi": 68,
                    "time": 689.6562500000169,
                    "velocity": 0.7480314960629921,
                    "duration": 0.029166666666696983
                },
                {
                    "name": "D#4",
                    "midi": 63,
                    "time": 689.6604166666837,
                    "velocity": 0.6614173228346457,
                    "duration": 0.04374999999993179
                },
                {
                    "name": "A3",
                    "midi": 57,
                    "time": 689.6604166666837,
                    "velocity": 0.3937007874015748,
                    "duration": 0.08749999999997726
                },
                {
                    "name": "B4",
                    "midi": 71,
                    "time": 689.675000000017,
                    "velocity": 0.7244094488188977,
                    "duration": 0.3999999999998636
                },
                {
                    "name": "B1",
                    "midi": 35,
                    "time": 689.8916666666836,
                    "velocity": 0.8582677165354331,
                    "duration": 0.039583333333325754
                },
                {
                    "name": "B2",
                    "midi": 47,
                    "time": 689.912500000017,
                    "velocity": 0.3937007874015748,
                    "duration": 0.05833333333328028
                },
                {
                    "name": "G#4",
                    "midi": 68,
                    "time": 690.3208333333502,
                    "velocity": 0.5984251968503937,
                    "duration": 0.03541666666671972
                },
                {
                    "name": "D#4",
                    "midi": 63,
                    "time": 690.3250000000169,
                    "velocity": 0.5826771653543307,
                    "duration": 0.03541666666671972
                },
                {
                    "name": "A3",
                    "midi": 57,
                    "time": 690.3520833333502,
                    "velocity": 0.1889763779527559,
                    "duration": 0.058333333333393966
                },
                {
                    "name": "C#5",
                    "midi": 73,
                    "time": 690.5937500000168,
                    "velocity": 0.7086614173228346,
                    "duration": 0.08749999999997726
                },
                {
                    "name": "B1",
                    "midi": 35,
                    "time": 690.6020833333502,
                    "velocity": 0.7952755905511811,
                    "duration": 0.05833333333328028
                },
                {
                    "name": "B2",
                    "midi": 47,
                    "time": 690.6270833333501,
                    "velocity": 0.3228346456692913,
                    "duration": 0.07500000000004547
                },
                {
                    "name": "G#4",
                    "midi": 68,
                    "time": 691.0645833333501,
                    "velocity": 0.5511811023622047,
                    "duration": 0.03750000000002274
                },
                {
                    "name": "D#5",
                    "midi": 75,
                    "time": 691.0791666666835,
                    "velocity": 0.6692913385826772,
                    "duration": 0.8312500000001819
                },
                {
                    "name": "A3",
                    "midi": 57,
                    "time": 691.0854166666835,
                    "velocity": 0.3543307086614173,
                    "duration": 0.0625
                },
                {
                    "name": "B1",
                    "midi": 35,
                    "time": 691.4750000000168,
                    "velocity": 0.3937007874015748,
                    "duration": 0.3000000000000682
                },
                {
                    "name": "B2",
                    "midi": 47,
                    "time": 691.4916666666835,
                    "velocity": 0.31496062992125984,
                    "duration": 0.3187500000001364
                },
                {
                    "name": "G#4",
                    "midi": 68,
                    "time": 693.2958333333503,
                    "velocity": 0.33070866141732286,
                    "duration": 0.42916666666667425
                },
                {
                    "name": "D#4",
                    "midi": 63,
                    "time": 693.3125000000169,
                    "velocity": 0.4566929133858268,
                    "duration": 0.4854166666666515
                },
                {
                    "name": "B2",
                    "midi": 47,
                    "time": 693.3229166666836,
                    "velocity": 0.33070866141732286,
                    "duration": 0.43333333333339397
                },
                {
                    "name": "A3",
                    "midi": 57,
                    "time": 693.3250000000169,
                    "velocity": 0.2677165354330709,
                    "duration": 0.3937500000000682
                },
                {
                    "name": "B1",
                    "midi": 35,
                    "time": 693.3333333333502,
                    "velocity": 0.3543307086614173,
                    "duration": 0.31875000000002274
                },
                {
                    "name": "E2",
                    "midi": 40,
                    "time": 694.0291666666836,
                    "velocity": 0.36220472440944884,
                    "duration": 1.3604166666665378
                },
                {
                    "name": "G#4",
                    "midi": 68,
                    "time": 694.1333333333503,
                    "velocity": 0.4330708661417323,
                    "duration": 1.2729166666665606
                },
                {
                    "name": "D#4",
                    "midi": 63,
                    "time": 694.1354166666836,
                    "velocity": 0.5275590551181102,
                    "duration": 0.4499999999999318
                },
                {
                    "name": "D#3",
                    "midi": 51,
                    "time": 694.1354166666836,
                    "velocity": 0.3937007874015748,
                    "duration": 0.26041666666662877
                },
                {
                    "name": "G#3",
                    "midi": 56,
                    "time": 694.1437500000169,
                    "velocity": 0.3543307086614173,
                    "duration": 0.24166666666667425
                },
                {
                    "name": "D4",
                    "midi": 62,
                    "time": 694.5333333333502,
                    "velocity": 0.5669291338582677,
                    "duration": 0.30624999999997726
                },
                {
                    "name": "D3",
                    "midi": 50,
                    "time": 694.5437500000169,
                    "velocity": 0.4330708661417323,
                    "duration": 0.28958333333332575
                },
                {
                    "name": "C#3",
                    "midi": 49,
                    "time": 694.7812500000168,
                    "velocity": 0.5275590551181102,
                    "duration": 0.4104166666667197
                },
                {
                    "name": "C#4",
                    "midi": 61,
                    "time": 694.7812500000168,
                    "velocity": 0.7322834645669292,
                    "duration": 0.33541666666667425
                },
                {
                    "name": "D#4",
                    "midi": 63,
                    "time": 695.0916666666835,
                    "velocity": 0.6377952755905512,
                    "duration": 0.35416666666662877
                },
                {
                    "name": "D#3",
                    "midi": 51,
                    "time": 695.1104166666835,
                    "velocity": 0.3937007874015748,
                    "duration": 0.26041666666674246
                },
                {
                    "name": "D4",
                    "midi": 62,
                    "time": 695.3916666666835,
                    "velocity": 0.6692913385826772,
                    "duration": 0.08749999999997726
                },
                {
                    "name": "D3",
                    "midi": 50,
                    "time": 695.4062500000168,
                    "velocity": 0.3858267716535433,
                    "duration": 0.22291666666660603
                },
                {
                    "name": "C#3",
                    "midi": 49,
                    "time": 695.6729166666835,
                    "velocity": 0.49606299212598426,
                    "duration": 0.23958333333337123
                },
                {
                    "name": "C#4",
                    "midi": 61,
                    "time": 695.6750000000168,
                    "velocity": 0.6771653543307087,
                    "duration": 0.19583333333343944
                },
                {
                    "name": "A4",
                    "midi": 69,
                    "time": 695.6770833333501,
                    "velocity": 0.5984251968503937,
                    "duration": 0.7375000000000682
                },
                {
                    "name": "F#2",
                    "midi": 42,
                    "time": 695.6791666666834,
                    "velocity": 0.4251968503937008,
                    "duration": 0.7166666666668107
                },
                {
                    "name": "A3",
                    "midi": 57,
                    "time": 695.7062500000168,
                    "velocity": 0.15748031496062992,
                    "duration": 0.058333333333393966
                },
                {
                    "name": "D#3",
                    "midi": 51,
                    "time": 695.8375000000169,
                    "velocity": 0.33070866141732286,
                    "duration": 0.09791666666660603
                },
                {
                    "name": "D#4",
                    "midi": 63,
                    "time": 695.8479166666835,
                    "velocity": 0.6299212598425197,
                    "duration": 0.19791666666651508
                },
                {
                    "name": "D3",
                    "midi": 50,
                    "time": 695.9854166666835,
                    "velocity": 0.33858267716535434,
                    "duration": 0.3270833333333485
                },
                {
                    "name": "D4",
                    "midi": 62,
                    "time": 696.0187500000168,
                    "velocity": 0.5826771653543307,
                    "duration": 0.279166666666697
                },
                {
                    "name": "C#4",
                    "midi": 61,
                    "time": 696.2770833333501,
                    "velocity": 0.6771653543307087,
                    "duration": 0.16458333333343944
                },
                {
                    "name": "C#3",
                    "midi": 49,
                    "time": 696.2833333333501,
                    "velocity": 0.5275590551181102,
                    "duration": 0.20000000000004547
                },
                {
                    "name": "D#4",
                    "midi": 63,
                    "time": 696.4208333333502,
                    "velocity": 0.6299212598425197,
                    "duration": 0.13958333333346218
                },
                {
                    "name": "D#3",
                    "midi": 51,
                    "time": 696.4333333333502,
                    "velocity": 0.5196850393700787,
                    "duration": 0.12083333333339397
                },
                {
                    "name": "E3",
                    "midi": 52,
                    "time": 696.5500000000169,
                    "velocity": 0.47244094488188976,
                    "duration": 0.11875000000009095
                },
                {
                    "name": "E4",
                    "midi": 64,
                    "time": 696.5625000000169,
                    "velocity": 0.6062992125984252,
                    "duration": 0.10833333333334849
                },
                {
                    "name": "F3",
                    "midi": 53,
                    "time": 696.662500000017,
                    "velocity": 0.5748031496062992,
                    "duration": 0.06666666666660603
                },
                {
                    "name": "F4",
                    "midi": 65,
                    "time": 696.6708333333503,
                    "velocity": 0.6929133858267716,
                    "duration": 0.08749999999997726
                },
                {
                    "name": "G#2",
                    "midi": 44,
                    "time": 696.7916666666836,
                    "velocity": 0.6062992125984252,
                    "duration": 1.120833333333394
                },
                {
                    "name": "F#4",
                    "midi": 66,
                    "time": 696.9208333333503,
                    "velocity": 0.6692913385826772,
                    "duration": 0.30416666666678793
                },
                {
                    "name": "B4",
                    "midi": 71,
                    "time": 696.925000000017,
                    "velocity": 0.5748031496062992,
                    "duration": 0.9583333333332575
                },
                {
                    "name": "B3",
                    "midi": 59,
                    "time": 696.9395833333504,
                    "velocity": 0.28346456692913385,
                    "duration": 0.14791666666667425
                },
                {
                    "name": "F#3",
                    "midi": 54,
                    "time": 696.950000000017,
                    "velocity": 0.5511811023622047,
                    "duration": 0.2208333333334167
                },
                {
                    "name": "F4",
                    "midi": 65,
                    "time": 697.1791666666837,
                    "velocity": 0.44881889763779526,
                    "duration": 0.20624999999995453
                },
                {
                    "name": "F3",
                    "midi": 53,
                    "time": 697.1916666666838,
                    "velocity": 0.4015748031496063,
                    "duration": 0.16041666666660603
                },
                {
                    "name": "E3",
                    "midi": 52,
                    "time": 697.3291666666837,
                    "velocity": 0.4094488188976378,
                    "duration": 0.3270833333332348
                },
                {
                    "name": "E4",
                    "midi": 64,
                    "time": 697.3791666666837,
                    "velocity": 0.5511811023622047,
                    "duration": 0.3104166666665833
                },
                {
                    "name": "F#4",
                    "midi": 66,
                    "time": 697.6291666666837,
                    "velocity": 0.6929133858267716,
                    "duration": 0.31875000000002274
                },
                {
                    "name": "F#3",
                    "midi": 54,
                    "time": 697.6395833333503,
                    "velocity": 0.4251968503937008,
                    "duration": 0.25625000000002274
                },
                {
                    "name": "F4",
                    "midi": 65,
                    "time": 697.9062500000169,
                    "velocity": 0.6220472440944882,
                    "duration": 0.05625000000009095
                },
                {
                    "name": "F3",
                    "midi": 53,
                    "time": 697.9104166666837,
                    "velocity": 0.5196850393700787,
                    "duration": 0.2354166666666515
                },
                {
                    "name": "C#4",
                    "midi": 61,
                    "time": 698.1583333333504,
                    "velocity": 0.6929133858267716,
                    "duration": 0.07083333333332575
                },
                {
                    "name": "A2",
                    "midi": 45,
                    "time": 698.1625000000171,
                    "velocity": 0.4881889763779528,
                    "duration": 0.2375000000000682
                },
                {
                    "name": "C#5",
                    "midi": 73,
                    "time": 698.1645833333504,
                    "velocity": 0.7244094488188977,
                    "duration": 0.2937500000000455
                },
                {
                    "name": "E4",
                    "midi": 64,
                    "time": 698.175000000017,
                    "velocity": 0.6377952755905512,
                    "duration": 0.14583333333348492
                },
                {
                    "name": "E3",
                    "midi": 52,
                    "time": 698.181250000017,
                    "velocity": 0.3779527559055118,
                    "duration": 0.13541666666674246
                },
                {
                    "name": "F#3",
                    "midi": 54,
                    "time": 698.2958333333504,
                    "velocity": 0.6141732283464567,
                    "duration": 0.11250000000006821
                },
                {
                    "name": "F#4",
                    "midi": 66,
                    "time": 698.3020833333504,
                    "velocity": 0.8110236220472441,
                    "duration": 0.16666666666662877
                },
                {
                    "name": "F3",
                    "midi": 53,
                    "time": 698.4250000000171,
                    "velocity": 0.48031496062992124,
                    "duration": 0.22916666666651508
                },
                {
                    "name": "F4",
                    "midi": 65,
                    "time": 698.4333333333504,
                    "velocity": 0.7322834645669292,
                    "duration": 0.0770833333332348
                },
                {
                    "name": "D5",
                    "midi": 74,
                    "time": 698.7166666666836,
                    "velocity": 0.7322834645669292,
                    "duration": 0.3958333333334849
                },
                {
                    "name": "E3",
                    "midi": 52,
                    "time": 698.7291666666837,
                    "velocity": 0.4645669291338583,
                    "duration": 0.16458333333332575
                },
                {
                    "name": "E4",
                    "midi": 64,
                    "time": 698.731250000017,
                    "velocity": 0.5118110236220472,
                    "duration": 0.09583333333330302
                },
                {
                    "name": "B2",
                    "midi": 47,
                    "time": 698.731250000017,
                    "velocity": 0.33070866141732286,
                    "duration": 0.27291666666667425
                },
                {
                    "name": "F#4",
                    "midi": 66,
                    "time": 698.8687500000169,
                    "velocity": 0.7559055118110236,
                    "duration": 0.18125000000020464
                },
                {
                    "name": "F#3",
                    "midi": 54,
                    "time": 698.881250000017,
                    "velocity": 0.6377952755905512,
                    "duration": 0.13541666666674246
                },
                {
                    "name": "G#4",
                    "midi": 68,
                    "time": 699.012500000017,
                    "velocity": 0.7007874015748031,
                    "duration": 0.1437500000001819
                },
                {
                    "name": "G#3",
                    "midi": 56,
                    "time": 699.0208333333504,
                    "velocity": 0.6377952755905512,
                    "duration": 0.13333333333343944
                },
                {
                    "name": "A4",
                    "midi": 69,
                    "time": 699.1250000000172,
                    "velocity": 0.7086614173228346,
                    "duration": 0.07500000000004547
                },
                {
                    "name": "A3",
                    "midi": 57,
                    "time": 699.1604166666839,
                    "velocity": 0.4330708661417323,
                    "duration": 0.21249999999997726
                },
                {
                    "name": "C#3",
                    "midi": 49,
                    "time": 699.3354166666838,
                    "velocity": 0.5984251968503937,
                    "duration": 1.158333333333303
                },
                {
                    "name": "E4",
                    "midi": 64,
                    "time": 699.4750000000172,
                    "velocity": 0.4645669291338583,
                    "duration": 0.23125000000004547
                },
                {
                    "name": "B3",
                    "midi": 59,
                    "time": 699.4791666666839,
                    "velocity": 0.5118110236220472,
                    "duration": 0.4062500000001137
                },
                {
                    "name": "E5",
                    "midi": 76,
                    "time": 699.4812500000172,
                    "velocity": 0.49606299212598426,
                    "duration": 0.9895833333332575
                },
                {
                    "name": "B4",
                    "midi": 71,
                    "time": 699.4854166666839,
                    "velocity": 0.5669291338582677,
                    "duration": 0.33958333333339397
                },
                {
                    "name": "A#3",
                    "midi": 58,
                    "time": 699.7354166666839,
                    "velocity": 0.5118110236220472,
                    "duration": 0.15208333333339397
                },
                {
                    "name": "A#4",
                    "midi": 70,
                    "time": 699.7395833333507,
                    "velocity": 0.6929133858267716,
                    "duration": 0.23958333333325754
                },
                {
                    "name": "A3",
                    "midi": 57,
                    "time": 699.9208333333506,
                    "velocity": 0.3543307086614173,
                    "duration": 0.3291666666666515
                },
                {
                    "name": "A4",
                    "midi": 69,
                    "time": 699.929166666684,
                    "velocity": 0.7086614173228346,
                    "duration": 0.34375
                },
                {
                    "name": "B4",
                    "midi": 71,
                    "time": 700.2062500000172,
                    "velocity": 0.6771653543307087,
                    "duration": 0.2958333333332348
                },
                {
                    "name": "B3",
                    "midi": 59,
                    "time": 700.2145833333506,
                    "velocity": 0.5511811023622047,
                    "duration": 0.31874999999990905
                },
                {
                    "name": "A#4",
                    "midi": 70,
                    "time": 700.4687500000172,
                    "velocity": 0.7322834645669292,
                    "duration": 0.08124999999995453
                },
                {
                    "name": "A#3",
                    "midi": 58,
                    "time": 700.4812500000171,
                    "velocity": 0.5669291338582677,
                    "duration": 0.16458333333332575
                },
                {
                    "name": "A#4",
                    "midi": 70,
                    "time": 700.6125000000171,
                    "velocity": 0.4881889763779528,
                    "duration": 0.04166666666662877
                },
                {
                    "name": "F#5",
                    "midi": 78,
                    "time": 700.7541666666838,
                    "velocity": 0.7165354330708661,
                    "duration": 0.33541666666667425
                },
                {
                    "name": "F#4",
                    "midi": 66,
                    "time": 700.7562500000171,
                    "velocity": 0.6692913385826772,
                    "duration": 0.07708333333334849
                },
                {
                    "name": "A4",
                    "midi": 69,
                    "time": 700.7625000000171,
                    "velocity": 0.6614173228346457,
                    "duration": 0.14374999999995453
                },
                {
                    "name": "A3",
                    "midi": 57,
                    "time": 700.7625000000171,
                    "velocity": 0.4015748031496063,
                    "duration": 0.1416666666666515
                },
                {
                    "name": "D3",
                    "midi": 50,
                    "time": 700.7687500000171,
                    "velocity": 0.3937007874015748,
                    "duration": 0.3270833333333485
                },
                {
                    "name": "B4",
                    "midi": 71,
                    "time": 700.9229166666837,
                    "velocity": 0.5905511811023622,
                    "duration": 0.17708333333348492
                },
                {
                    "name": "B3",
                    "midi": 59,
                    "time": 700.9270833333504,
                    "velocity": 0.44881889763779526,
                    "duration": 0.16250000000002274
                },
                {
                    "name": "A#3",
                    "midi": 58,
                    "time": 701.0437500000171,
                    "velocity": 0.4881889763779528,
                    "duration": 0.1583333333334167
                },
                {
                    "name": "A#4",
                    "midi": 70,
                    "time": 701.0666666666838,
                    "velocity": 0.7322834645669292,
                    "duration": 0.08125000000006821
                },
                {
                    "name": "G5",
                    "midi": 79,
                    "time": 701.3458333333505,
                    "velocity": 0.7165354330708661,
                    "duration": 0.44583333333355313
                },
                {
                    "name": "A3",
                    "midi": 57,
                    "time": 701.3520833333505,
                    "velocity": 0.33858267716535434,
                    "duration": 0.11666666666678793
                },
                {
                    "name": "E3",
                    "midi": 52,
                    "time": 701.3645833333505,
                    "velocity": 0.3858267716535433,
                    "duration": 0.13958333333346218
                },
                {
                    "name": "A4",
                    "midi": 69,
                    "time": 701.3687500000173,
                    "velocity": 0.3858267716535433,
                    "duration": 0.16458333333343944
                },
                {
                    "name": "B3",
                    "midi": 59,
                    "time": 701.4812500000173,
                    "velocity": 0.5118110236220472,
                    "duration": 0.17916666666667425
                },
                {
                    "name": "B4",
                    "midi": 71,
                    "time": 701.5187500000173,
                    "velocity": 0.4566929133858268,
                    "duration": 0.12083333333328028
                },
                {
                    "name": "C#4",
                    "midi": 61,
                    "time": 701.629166666684,
                    "velocity": 0.6220472440944882,
                    "duration": 0.15625
                },
                {
                    "name": "C#5",
                    "midi": 73,
                    "time": 701.6687500000173,
                    "velocity": 0.5275590551181102,
                    "duration": 0.13333333333332575
                },
                {
                    "name": "D5",
                    "midi": 74,
                    "time": 701.816666666684,
                    "velocity": 0.5590551181102362,
                    "duration": 0.07916666666665151
                },
                {
                    "name": "D4",
                    "midi": 62,
                    "time": 701.822916666684,
                    "velocity": 0.47244094488188976,
                    "duration": 0.3749999999998863
                },
                {
                    "name": "F#3",
                    "midi": 54,
                    "time": 702.0791666666839,
                    "velocity": 0.4409448818897638,
                    "duration": 1.2291666666669698
                },
                {
                    "name": "A5",
                    "midi": 81,
                    "time": 702.1750000000172,
                    "velocity": 0.6062992125984252,
                    "duration": 1.1020833333336668
                },
                {
                    "name": "A4",
                    "midi": 69,
                    "time": 702.1812500000173,
                    "velocity": 0.4409448818897638,
                    "duration": 0.9791666666668561
                },
                {
                    "name": "E5",
                    "midi": 76,
                    "time": 702.1833333333506,
                    "velocity": 0.4251968503937008,
                    "duration": 0.3145833333334167
                },
                {
                    "name": "E4",
                    "midi": 64,
                    "time": 702.2312500000172,
                    "velocity": 0.3228346456692913,
                    "duration": 0.27916666666681067
                },
                {
                    "name": "D#5",
                    "midi": 75,
                    "time": 702.4541666666839,
                    "velocity": 0.5826771653543307,
                    "duration": 0.17916666666678793
                },
                {
                    "name": "D#4",
                    "midi": 63,
                    "time": 702.4750000000173,
                    "velocity": 0.4094488188976378,
                    "duration": 0.11458333333337123
                },
                {
                    "name": "D5",
                    "midi": 74,
                    "time": 702.6583333333507,
                    "velocity": 0.5826771653543307,
                    "duration": 0.2958333333333485
                },
                {
                    "name": "D4",
                    "midi": 62,
                    "time": 702.6812500000174,
                    "velocity": 0.3700787401574803,
                    "duration": 0.30208333333337123
                },
                {
                    "name": "E5",
                    "midi": 76,
                    "time": 702.9520833333507,
                    "velocity": 0.6535433070866141,
                    "duration": 0.3291666666668789
                },
                {
                    "name": "E4",
                    "midi": 64,
                    "time": 702.9750000000174,
                    "velocity": 0.44881889763779526,
                    "duration": 0.35416666666685614
                },
                {
                    "name": "D#5",
                    "midi": 75,
                    "time": 703.2270833333508,
                    "velocity": 0.7795275590551181,
                    "duration": 0.1104166666667652
                },
                {
                    "name": "D#4",
                    "midi": 63,
                    "time": 703.2395833333509,
                    "velocity": 0.6692913385826772,
                    "duration": 0.18125000000009095
                },
                {
                    "name": "G3",
                    "midi": 55,
                    "time": 703.520833333351,
                    "velocity": 0.3779527559055118,
                    "duration": 0.7374999999996135
                },
                {
                    "name": "D4",
                    "midi": 62,
                    "time": 703.5250000000177,
                    "velocity": 0.47244094488188976,
                    "duration": 0.16458333333309838
                },
                {
                    "name": "B5",
                    "midi": 83,
                    "time": 703.5354166666843,
                    "velocity": 0.6929133858267716,
                    "duration": 1.006249999999568
                },
                {
                    "name": "B4",
                    "midi": 71,
                    "time": 703.5375000000176,
                    "velocity": 0.5984251968503937,
                    "duration": 0.48958333333303017
                },
                {
                    "name": "D5",
                    "midi": 74,
                    "time": 703.539583333351,
                    "velocity": 0.6850393700787402,
                    "duration": 0.14791666666656056
                },
                {
                    "name": "E4",
                    "midi": 64,
                    "time": 703.6708333333509,
                    "velocity": 0.5669291338582677,
                    "duration": 0.2916666666665151
                },
                {
                    "name": "E5",
                    "midi": 76,
                    "time": 703.6812500000175,
                    "velocity": 0.6614173228346457,
                    "duration": 0.28333333333318933
                },
                {
                    "name": "D#4",
                    "midi": 63,
                    "time": 703.8166666666841,
                    "velocity": 0.6850393700787402,
                    "duration": 0.30416666666656056
                },
                {
                    "name": "D#5",
                    "midi": 75,
                    "time": 703.8416666666841,
                    "velocity": 0.8110236220472441,
                    "duration": 0.22708333333321207
                },
                {
                    "name": "D5",
                    "midi": 74,
                    "time": 704.1458333333507,
                    "velocity": 0.8031496062992126,
                    "duration": 0.2791666666665833
                },
                {
                    "name": "D4",
                    "midi": 62,
                    "time": 704.154166666684,
                    "velocity": 0.6850393700787402,
                    "duration": 0.41666666666662877
                },
                {
                    "name": "E5",
                    "midi": 76,
                    "time": 704.4833333333505,
                    "velocity": 0.7716535433070866,
                    "duration": 0.09166666666681067
                },
                {
                    "name": "E4",
                    "midi": 64,
                    "time": 704.4875000000172,
                    "velocity": 0.6692913385826772,
                    "duration": 0.37083333333339397
                },
                {
                    "name": "A3",
                    "midi": 57,
                    "time": 704.8062500000174,
                    "velocity": 0.41732283464566927,
                    "duration": 1.308333333333394
                },
                {
                    "name": "D#4",
                    "midi": 63,
                    "time": 704.847916666684,
                    "velocity": 0.4645669291338583,
                    "duration": 0.3604166666665378
                },
                {
                    "name": "D#5",
                    "midi": 75,
                    "time": 704.8687500000173,
                    "velocity": 0.5669291338582677,
                    "duration": 0.25624999999990905
                },
                {
                    "name": "C6",
                    "midi": 84,
                    "time": 704.8791666666839,
                    "velocity": 0.6929133858267716,
                    "duration": 1.085416666666788
                },
                {
                    "name": "C5",
                    "midi": 72,
                    "time": 704.9020833333506,
                    "velocity": 0.4015748031496063,
                    "duration": 0.05208333333325754
                },
                {
                    "name": "D5",
                    "midi": 74,
                    "time": 705.1083333333505,
                    "velocity": 0.2125984251968504,
                    "duration": 0.08749999999997726
                },
                {
                    "name": "D4",
                    "midi": 62,
                    "time": 705.1479166666838,
                    "velocity": 0.36220472440944884,
                    "duration": 0.20833333333337123
                },
                {
                    "name": "E5",
                    "midi": 76,
                    "time": 705.3229166666839,
                    "velocity": 0.4251968503937008,
                    "duration": 0.43333333333339397
                },
                {
                    "name": "E4",
                    "midi": 64,
                    "time": 705.3479166666839,
                    "velocity": 0.4251968503937008,
                    "duration": 0.4520833333334622
                },
                {
                    "name": "D#5",
                    "midi": 75,
                    "time": 705.7125000000173,
                    "velocity": 0.4330708661417323,
                    "duration": 0.33541666666678793
                },
                {
                    "name": "D#4",
                    "midi": 63,
                    "time": 705.7208333333506,
                    "velocity": 0.4330708661417323,
                    "duration": 0.5854166666669016
                },
                {
                    "name": "D5",
                    "midi": 74,
                    "time": 706.1812500000175,
                    "velocity": 0.3858267716535433,
                    "duration": 0.13750000000004547
                },
                {
                    "name": "D4",
                    "midi": 62,
                    "time": 706.1812500000175,
                    "velocity": 0.33070866141732286,
                    "duration": 0.1895833333334167
                },
                {
                    "name": "A3",
                    "midi": 57,
                    "time": 706.6458333333509,
                    "velocity": 0.10236220472440945,
                    "duration": 3.610416666666879
                },
                {
                    "name": "C#4",
                    "midi": 61,
                    "time": 706.7333333333509,
                    "velocity": 0.2677165354330709,
                    "duration": 3.4083333333335304
                },
                {
                    "name": "D#4",
                    "midi": 63,
                    "time": 706.7770833333509,
                    "velocity": 0.2283464566929134,
                    "duration": 3.4020833333335077
                },
                {
                    "name": "G#4",
                    "midi": 68,
                    "time": 706.9083333333509,
                    "velocity": 0.33858267716535434,
                    "duration": 0.2937500000000455
                },
                {
                    "name": "C#5",
                    "midi": 73,
                    "time": 706.945833333351,
                    "velocity": 0.33858267716535434,
                    "duration": 3.1270833333334167
                },
                {
                    "name": "D#5",
                    "midi": 75,
                    "time": 706.9479166666843,
                    "velocity": 0.28346456692913385,
                    "duration": 3.087500000000091
                },
                {
                    "name": "C#6",
                    "midi": 85,
                    "time": 706.952083333351,
                    "velocity": 0.4566929133858268,
                    "duration": 3.087500000000091
                },
                {
                    "name": "G#5",
                    "midi": 80,
                    "time": 706.952083333351,
                    "velocity": 0.4881889763779528,
                    "duration": 0.39999999999997726
                },
                {
                    "name": "G4",
                    "midi": 67,
                    "time": 707.2750000000176,
                    "velocity": 0.10236220472440945,
                    "duration": 0.10833333333334849
                },
                {
                    "name": "G5",
                    "midi": 79,
                    "time": 707.3000000000176,
                    "velocity": 0.3543307086614173,
                    "duration": 0.1437500000000682
                },
                {
                    "name": "F#4",
                    "midi": 66,
                    "time": 707.5750000000177,
                    "velocity": 0.33858267716535434,
                    "duration": 0.22291666666660603
                },
                {
                    "name": "F#5",
                    "midi": 78,
                    "time": 707.5937500000176,
                    "velocity": 0.5275590551181102,
                    "duration": 0.5729166666666288
                },
                {
                    "name": "G#4",
                    "midi": 68,
                    "time": 708.2208333333509,
                    "velocity": 0.2440944881889764,
                    "duration": 0.6395833333333485
                },
                {
                    "name": "G#5",
                    "midi": 80,
                    "time": 708.258333333351,
                    "velocity": 0.33858267716535434,
                    "duration": 0.5270833333332803
                },
                {
                    "name": "G5",
                    "midi": 79,
                    "time": 709.2125000000176,
                    "velocity": 0.16535433070866143,
                    "duration": 0.8416666666668107
                },
                {
                    "name": "G4",
                    "midi": 67,
                    "time": 709.2166666666843,
                    "velocity": 0.07086614173228346,
                    "duration": 0.872916666666697
                },
                {
                    "name": "G#5",
                    "midi": 80,
                    "time": 710.5562500000177,
                    "velocity": 0.4409448818897638,
                    "duration": 0.32083333333321207
                },
                {
                    "name": "E2",
                    "midi": 40,
                    "time": 711.1666666666843,
                    "velocity": 0.1889763779527559,
                    "duration": 0.4874999999999545
                },
                {
                    "name": "G#4",
                    "midi": 68,
                    "time": 711.195833333351,
                    "velocity": 0.2992125984251969,
                    "duration": 0.19166666666660603
                },
                {
                    "name": "E5",
                    "midi": 76,
                    "time": 711.202083333351,
                    "velocity": 0.4015748031496063,
                    "duration": 0.19583333333321207
                },
                {
                    "name": "B4",
                    "midi": 71,
                    "time": 711.2291666666843,
                    "velocity": 0.31496062992125984,
                    "duration": 0.14999999999997726
                },
                {
                    "name": "B2",
                    "midi": 47,
                    "time": 711.6583333333509,
                    "velocity": 0.2677165354330709,
                    "duration": 0.28958333333332575
                },
                {
                    "name": "A5",
                    "midi": 81,
                    "time": 711.6895833333509,
                    "velocity": 0.6692913385826772,
                    "duration": 0.35208333333321207
                },
                {
                    "name": "F#5",
                    "midi": 78,
                    "time": 711.9895833333509,
                    "velocity": 0.6771653543307087,
                    "duration": 0.08749999999997726
                },
                {
                    "name": "E3",
                    "midi": 52,
                    "time": 712.0000000000175,
                    "velocity": 0.4015748031496063,
                    "duration": 0.07083333333332575
                },
                {
                    "name": "G3",
                    "midi": 55,
                    "time": 712.2520833333508,
                    "velocity": 0.4645669291338583,
                    "duration": 0.27500000000009095
                },
                {
                    "name": "B5",
                    "midi": 83,
                    "time": 712.2645833333509,
                    "velocity": 0.7952755905511811,
                    "duration": 0.2020833333333485
                },
                {
                    "name": "G#5",
                    "midi": 80,
                    "time": 712.4833333333509,
                    "velocity": 0.47244094488188976,
                    "duration": 0.05208333333337123
                },
                {
                    "name": "B4",
                    "midi": 71,
                    "time": 712.5041666666842,
                    "velocity": 0.5354330708661418,
                    "duration": 0.05208333333337123
                },
                {
                    "name": "G#3",
                    "midi": 56,
                    "time": 712.5104166666843,
                    "velocity": 0.5590551181102362,
                    "duration": 0.6791666666667879
                },
                {
                    "name": "B4",
                    "midi": 71,
                    "time": 712.8354166666843,
                    "velocity": 0.6535433070866141,
                    "duration": 0.650000000000091
                },
                {
                    "name": "D4",
                    "midi": 62,
                    "time": 712.8416666666843,
                    "velocity": 0.41732283464566927,
                    "duration": 0.2645833333333485
                },
                {
                    "name": "G#4",
                    "midi": 68,
                    "time": 713.2125000000177,
                    "velocity": 0.4881889763779528,
                    "duration": 0.20833333333337123
                },
                {
                    "name": "E4",
                    "midi": 64,
                    "time": 713.2375000000177,
                    "velocity": 0.3858267716535433,
                    "duration": 0.15416666666669698
                },
                {
                    "name": "B3",
                    "midi": 59,
                    "time": 713.239583333351,
                    "velocity": 0.25984251968503935,
                    "duration": 0.11666666666667425
                },
                {
                    "name": "G#2",
                    "midi": 44,
                    "time": 713.439583333351,
                    "velocity": 0.6535433070866141,
                    "duration": 0.09583333333330302
                },
                {
                    "name": "B3",
                    "midi": 59,
                    "time": 713.6104166666844,
                    "velocity": 0.4330708661417323,
                    "duration": 0.08333333333337123
                },
                {
                    "name": "G#4",
                    "midi": 68,
                    "time": 713.6229166666844,
                    "velocity": 0.49606299212598426,
                    "duration": 0.16250000000002274
                },
                {
                    "name": "E4",
                    "midi": 64,
                    "time": 713.6416666666844,
                    "velocity": 0.25196850393700787,
                    "duration": 0.15208333333339397
                },
                {
                    "name": "C#5",
                    "midi": 73,
                    "time": 713.9104166666845,
                    "velocity": 0.84251968503937,
                    "duration": 0.28125
                },
                {
                    "name": "C#4",
                    "midi": 61,
                    "time": 713.9125000000178,
                    "velocity": 0.5984251968503937,
                    "duration": 0.07291666666662877
                },
                {
                    "name": "C#4",
                    "midi": 61,
                    "time": 714.1708333333511,
                    "velocity": 0.4251968503937008,
                    "duration": 0.05625000000009095
                },
                {
                    "name": "G#4",
                    "midi": 68,
                    "time": 714.1770833333511,
                    "velocity": 0.5196850393700787,
                    "duration": 0.11666666666678793
                },
                {
                    "name": "E4",
                    "midi": 64,
                    "time": 714.1812500000178,
                    "velocity": 0.2992125984251969,
                    "duration": 0.058333333333393966
                },
                {
                    "name": "B3",
                    "midi": 59,
                    "time": 714.3645833333512,
                    "velocity": 0.6771653543307087,
                    "duration": 0.49374999999997726
                },
                {
                    "name": "D#5",
                    "midi": 75,
                    "time": 714.3687500000179,
                    "velocity": 0.8818897637795275,
                    "duration": 0.3145833333334167
                },
                {
                    "name": "B4",
                    "midi": 71,
                    "time": 714.5520833333512,
                    "velocity": 0.5669291338582677,
                    "duration": 0.1895833333334167
                },
                {
                    "name": "D#4",
                    "midi": 63,
                    "time": 714.5583333333512,
                    "velocity": 0.5511811023622047,
                    "duration": 0.10416666666674246
                },
                {
                    "name": "G#4",
                    "midi": 68,
                    "time": 714.5645833333513,
                    "velocity": 0.5511811023622047,
                    "duration": 0.2354166666666515
                },
                {
                    "name": "C#3",
                    "midi": 49,
                    "time": 714.7333333333513,
                    "velocity": 0.7244094488188977,
                    "duration": 0.22083333333318933
                },
                {
                    "name": "E5",
                    "midi": 76,
                    "time": 714.756250000018,
                    "velocity": 0.7952755905511811,
                    "duration": 0.4874999999999545
                },
                {
                    "name": "C#5",
                    "midi": 73,
                    "time": 714.8020833333512,
                    "velocity": 0.3543307086614173,
                    "duration": 0.03750000000002274
                },
                {
                    "name": "B4",
                    "midi": 71,
                    "time": 715.0458333333512,
                    "velocity": 0.5433070866141733,
                    "duration": 0.23958333333348492
                },
                {
                    "name": "G#4",
                    "midi": 68,
                    "time": 715.0541666666845,
                    "velocity": 0.5275590551181102,
                    "duration": 0.22500000000013642
                },
                {
                    "name": "E4",
                    "midi": 64,
                    "time": 715.0812500000178,
                    "velocity": 0.3937007874015748,
                    "duration": 0.14791666666678793
                },
                {
                    "name": "F#2",
                    "midi": 42,
                    "time": 715.1666666666845,
                    "velocity": 0.8110236220472441,
                    "duration": 0.10000000000013642
                },
                {
                    "name": "D#4",
                    "midi": 63,
                    "time": 715.5979166666847,
                    "velocity": 0.5433070866141733,
                    "duration": 0.07291666666662877
                },
                {
                    "name": "D#3",
                    "midi": 51,
                    "time": 715.6020833333514,
                    "velocity": 0.5669291338582677,
                    "duration": 0.08541666666656056
                },
                {
                    "name": "F#5",
                    "midi": 78,
                    "time": 715.6104166666847,
                    "velocity": 0.5669291338582677,
                    "duration": 0.2791666666665833
                },
                {
                    "name": "E5",
                    "midi": 76,
                    "time": 715.6145833333514,
                    "velocity": 0.47244094488188976,
                    "duration": 0.2937499999998181
                },
                {
                    "name": "F#4",
                    "midi": 66,
                    "time": 715.6250000000181,
                    "velocity": 0.41732283464566927,
                    "duration": 0.25208333333318933
                },
                {
                    "name": "A#4",
                    "midi": 70,
                    "time": 715.6520833333514,
                    "velocity": 0.33858267716535434,
                    "duration": 0.21041666666656056
                },
                {
                    "name": "D3",
                    "midi": 50,
                    "time": 715.7604166666846,
                    "velocity": 0.4409448818897638,
                    "duration": 0.08124999999995453
                },
                {
                    "name": "D4",
                    "midi": 62,
                    "time": 715.7625000000179,
                    "velocity": 0.5905511811023622,
                    "duration": 0.06458333333330302
                },
                {
                    "name": "C#3",
                    "midi": 49,
                    "time": 715.9166666666846,
                    "velocity": 0.7874015748031497,
                    "duration": 0.043750000000045475
                },
                {
                    "name": "C#4",
                    "midi": 61,
                    "time": 715.9250000000179,
                    "velocity": 0.6220472440944882,
                    "duration": 0.03958333333343944
                },
                {
                    "name": "D#4",
                    "midi": 63,
                    "time": 716.1791666666846,
                    "velocity": 0.8188976377952756,
                    "duration": 0.08333333333337123
                },
                {
                    "name": "D#3",
                    "midi": 51,
                    "time": 716.187500000018,
                    "velocity": 0.8188976377952756,
                    "duration": 0.08333333333337123
                },
                {
                    "name": "F#4",
                    "midi": 66,
                    "time": 716.262500000018,
                    "velocity": 0.8188976377952756,
                    "duration": 0.10625000000004547
                },
                {
                    "name": "F#5",
                    "midi": 78,
                    "time": 716.3812500000181,
                    "velocity": 0.7874015748031497,
                    "duration": 0.06875000000002274
                },
                {
                    "name": "A#4",
                    "midi": 70,
                    "time": 716.3833333333514,
                    "velocity": 0.6614173228346457,
                    "duration": 0.03125
                },
                {
                    "name": "D3",
                    "midi": 50,
                    "time": 716.4208333333514,
                    "velocity": 0.7322834645669292,
                    "duration": 0.09583333333330302
                },
                {
                    "name": "D4",
                    "midi": 62,
                    "time": 716.4333333333515,
                    "velocity": 0.7165354330708661,
                    "duration": 0.07083333333332575
                },
                {
                    "name": "F#5",
                    "midi": 78,
                    "time": 716.5062500000181,
                    "velocity": 0.7716535433070866,
                    "duration": 0.0916666666665833
                },
                {
                    "name": "C#3",
                    "midi": 49,
                    "time": 716.637500000018,
                    "velocity": 0.8582677165354331,
                    "duration": 0.06458333333318933
                },
                {
                    "name": "C#4",
                    "midi": 61,
                    "time": 716.637500000018,
                    "velocity": 0.8818897637795275,
                    "duration": 0.05416666666656056
                },
                {
                    "name": "A#5",
                    "midi": 82,
                    "time": 716.6395833333513,
                    "velocity": 0.7559055118110236,
                    "duration": 0.03333333333330302
                },
                {
                    "name": "F#6",
                    "midi": 90,
                    "time": 716.6458333333513,
                    "velocity": 0.8110236220472441,
                    "duration": 0.06874999999990905
                },
                {
                    "name": "F#6",
                    "midi": 90,
                    "time": 716.7791666666845,
                    "velocity": 0.7165354330708661,
                    "duration": 0.07916666666665151
                },
                {
                    "name": "D#4",
                    "midi": 63,
                    "time": 716.7979166666845,
                    "velocity": 0.8346456692913385,
                    "duration": 0.05208333333337123
                },
                {
                    "name": "D#3",
                    "midi": 51,
                    "time": 716.8041666666845,
                    "velocity": 0.7874015748031497,
                    "duration": 0.0625
                },
                {
                    "name": "F#7",
                    "midi": 102,
                    "time": 716.9229166666845,
                    "velocity": 0.8818897637795275,
                    "duration": 0.08125000000006821
                },
                {
                    "name": "A#6",
                    "midi": 94,
                    "time": 716.9250000000178,
                    "velocity": 0.7716535433070866,
                    "duration": 0.09166666666681067
                },
                {
                    "name": "D4",
                    "midi": 62,
                    "time": 716.9291666666845,
                    "velocity": 0.8110236220472441,
                    "duration": 0.043750000000045475
                },
                {
                    "name": "D3",
                    "midi": 50,
                    "time": 716.9333333333512,
                    "velocity": 0.8188976377952756,
                    "duration": 0.03333333333330302
                },
                {
                    "name": "C#4",
                    "midi": 61,
                    "time": 717.2000000000179,
                    "velocity": 0.7007874015748031,
                    "duration": 0.04791666666653782
                },
                {
                    "name": "C#3",
                    "midi": 49,
                    "time": 717.2020833333512,
                    "velocity": 0.7322834645669292,
                    "duration": 0.07499999999993179
                },
                {
                    "name": "F#6",
                    "midi": 90,
                    "time": 717.2125000000178,
                    "velocity": 0.7007874015748031,
                    "duration": 0.05208333333325754
                },
                {
                    "name": "A#5",
                    "midi": 82,
                    "time": 717.2229166666845,
                    "velocity": 0.6614173228346457,
                    "duration": 0.11666666666667425
                },
                {
                    "name": "F#5",
                    "midi": 78,
                    "time": 717.3395833333511,
                    "velocity": 0.5669291338582677,
                    "duration": 0.03750000000002274
                },
                {
                    "name": "D#4",
                    "midi": 63,
                    "time": 717.5395833333512,
                    "velocity": 0.7007874015748031,
                    "duration": 0.03541666666671972
                },
                {
                    "name": "D#3",
                    "midi": 51,
                    "time": 717.5479166666845,
                    "velocity": 0.6299212598425197,
                    "duration": 0.06666666666671972
                },
                {
                    "name": "F#5",
                    "midi": 78,
                    "time": 717.5687500000179,
                    "velocity": 0.6614173228346457,
                    "duration": 0.39791666666678793
                },
                {
                    "name": "A#4",
                    "midi": 70,
                    "time": 717.6041666666846,
                    "velocity": 0.5118110236220472,
                    "duration": 0.27291666666667425
                },
                {
                    "name": "F#4",
                    "midi": 66,
                    "time": 717.7687500000179,
                    "velocity": 0.6771653543307087,
                    "duration": 0.18333333333339397
                },
                {
                    "name": "B1",
                    "midi": 35,
                    "time": 717.9041666666845,
                    "velocity": 0.7874015748031497,
                    "duration": 0.08333333333348492
                },
                {
                    "name": "D4",
                    "midi": 62,
                    "time": 718.2020833333513,
                    "velocity": 0.6456692913385826,
                    "duration": 0.07291666666662877
                },
                {
                    "name": "D3",
                    "midi": 50,
                    "time": 718.2104166666846,
                    "velocity": 0.4566929133858268,
                    "duration": 0.07083333333332575
                },
                {
                    "name": "G5",
                    "midi": 79,
                    "time": 718.2291666666846,
                    "velocity": 0.6377952755905512,
                    "duration": 0.09375
                },
                {
                    "name": "B4",
                    "midi": 71,
                    "time": 718.2437500000179,
                    "velocity": 0.5118110236220472,
                    "duration": 0.06458333333330302
                },
                {
                    "name": "G4",
                    "midi": 67,
                    "time": 718.2666666666846,
                    "velocity": 0.36220472440944884,
                    "duration": 0.09375
                },
                {
                    "name": "C#3",
                    "midi": 49,
                    "time": 718.406250000018,
                    "velocity": 0.7086614173228346,
                    "duration": 0.04374999999993179
                },
                {
                    "name": "C#4",
                    "midi": 61,
                    "time": 718.4229166666846,
                    "velocity": 0.4566929133858268,
                    "duration": 0.039583333333325754
                },
                {
                    "name": "D#4",
                    "midi": 63,
                    "time": 718.5416666666846,
                    "velocity": 0.7401574803149606,
                    "duration": 0.07916666666665151
                },
                {
                    "name": "D#3",
                    "midi": 51,
                    "time": 718.5437500000179,
                    "velocity": 0.6692913385826772,
                    "duration": 0.05208333333337123
                },
                {
                    "name": "D4",
                    "midi": 62,
                    "time": 718.7729166666845,
                    "velocity": 0.7952755905511811,
                    "duration": 0.0625
                },
                {
                    "name": "D3",
                    "midi": 50,
                    "time": 718.7729166666845,
                    "velocity": 0.8110236220472441,
                    "duration": 0.06666666666671972
                },
                {
                    "name": "G4",
                    "midi": 67,
                    "time": 718.8729166666845,
                    "velocity": 0.7874015748031497,
                    "duration": 0.09375
                },
                {
                    "name": "B4",
                    "midi": 71,
                    "time": 718.9854166666845,
                    "velocity": 0.6456692913385826,
                    "duration": 0.03541666666683341
                },
                {
                    "name": "G5",
                    "midi": 79,
                    "time": 718.9895833333512,
                    "velocity": 0.8346456692913385,
                    "duration": 0.06875000000013642
                },
                {
                    "name": "C#4",
                    "midi": 61,
                    "time": 718.9937500000179,
                    "velocity": 0.889763779527559,
                    "duration": 0.06041666666669698
                },
                {
                    "name": "C#3",
                    "midi": 49,
                    "time": 718.9979166666847,
                    "velocity": 0.8818897637795275,
                    "duration": 0.07291666666674246
                },
                {
                    "name": "G5",
                    "midi": 79,
                    "time": 719.112500000018,
                    "velocity": 0.7952755905511811,
                    "duration": 0.08541666666667425
                },
                {
                    "name": "D#3",
                    "midi": 51,
                    "time": 719.2104166666848,
                    "velocity": 0.84251968503937,
                    "duration": 0.06666666666660603
                },
                {
                    "name": "D#4",
                    "midi": 63,
                    "time": 719.212500000018,
                    "velocity": 0.84251968503937,
                    "duration": 0.05208333333325754
                },
                {
                    "name": "B5",
                    "midi": 83,
                    "time": 719.231250000018,
                    "velocity": 0.6850393700787402,
                    "duration": 0.03125
                },
                {
                    "name": "G6",
                    "midi": 91,
                    "time": 719.2395833333513,
                    "velocity": 0.8110236220472441,
                    "duration": 0.07916666666665151
                },
                {
                    "name": "D3",
                    "midi": 50,
                    "time": 719.343750000018,
                    "velocity": 0.8740157480314961,
                    "duration": 0.06041666666669698
                },
                {
                    "name": "D4",
                    "midi": 62,
                    "time": 719.3458333333513,
                    "velocity": 0.8188976377952756,
                    "duration": 0.05625000000009095
                },
                {
                    "name": "G6",
                    "midi": 91,
                    "time": 719.3666666666846,
                    "velocity": 0.7874015748031497,
                    "duration": 0.07916666666665151
                },
                {
                    "name": "G7",
                    "midi": 103,
                    "time": 719.4895833333513,
                    "velocity": 0.8110236220472441,
                    "duration": 0.09166666666669698
                },
                {
                    "name": "B6",
                    "midi": 95,
                    "time": 719.493750000018,
                    "velocity": 0.7322834645669292,
                    "duration": 0.11874999999997726
                },
                {
                    "name": "C#4",
                    "midi": 61,
                    "time": 719.4958333333514,
                    "velocity": 0.9448818897637795,
                    "duration": 0.054166666666674246
                },
                {
                    "name": "C#3",
                    "midi": 49,
                    "time": 719.5020833333514,
                    "velocity": 0.9133858267716536,
                    "duration": 0.05624999999997726
                },
                {
                    "name": "G6",
                    "midi": 91,
                    "time": 719.612500000018,
                    "velocity": 0.6456692913385826,
                    "duration": 0.049999999999954525
                },
                {
                    "name": "B5",
                    "midi": 83,
                    "time": 719.7895833333513,
                    "velocity": 0.8346456692913385,
                    "duration": 0.07708333333334849
                },
                {
                    "name": "D#4",
                    "midi": 63,
                    "time": 719.7916666666846,
                    "velocity": 0.8188976377952756,
                    "duration": 0.05625000000009095
                },
                {
                    "name": "G6",
                    "midi": 91,
                    "time": 719.7958333333513,
                    "velocity": 0.5118110236220472,
                    "duration": 0.06458333333330302
                },
                {
                    "name": "D#3",
                    "midi": 51,
                    "time": 719.8020833333513,
                    "velocity": 0.7165354330708661,
                    "duration": 0.04791666666665151
                },
                {
                    "name": "G5",
                    "midi": 79,
                    "time": 719.9395833333513,
                    "velocity": 0.5669291338582677,
                    "duration": 0.04791666666665151
                },
                {
                    "name": "D3",
                    "midi": 50,
                    "time": 720.1062500000179,
                    "velocity": 0.6535433070866141,
                    "duration": 0.09375000000011369
                },
                {
                    "name": "D4",
                    "midi": 62,
                    "time": 720.1125000000179,
                    "velocity": 0.7322834645669292,
                    "duration": 0.06666666666671972
                },
                {
                    "name": "G5",
                    "midi": 79,
                    "time": 720.1479166666846,
                    "velocity": 0.6692913385826772,
                    "duration": 0.11249999999995453
                },
                {
                    "name": "B4",
                    "midi": 71,
                    "time": 720.1770833333513,
                    "velocity": 0.6141732283464567,
                    "duration": 0.05624999999997726
                },
                {
                    "name": "E2",
                    "midi": 40,
                    "time": 720.543750000018,
                    "velocity": 0.8188976377952756,
                    "duration": 0.11666666666667425
                },
                {
                    "name": "C#3",
                    "midi": 49,
                    "time": 720.8604166666847,
                    "velocity": 0.7007874015748031,
                    "duration": 0.0958333333334167
                },
                {
                    "name": "C#4",
                    "midi": 61,
                    "time": 720.8666666666848,
                    "velocity": 0.7952755905511811,
                    "duration": 0.07500000000004547
                },
                {
                    "name": "G#5",
                    "midi": 80,
                    "time": 720.868750000018,
                    "velocity": 0.8110236220472441,
                    "duration": 0.46666666666681067
                },
                {
                    "name": "G#4",
                    "midi": 68,
                    "time": 720.8729166666848,
                    "velocity": 0.8110236220472441,
                    "duration": 0.4541666666667652
                },
                {
                    "name": "E5",
                    "midi": 76,
                    "time": 720.8791666666848,
                    "velocity": 0.6614173228346457,
                    "duration": 0.49166666666678793
                },
                {
                    "name": "D#3",
                    "midi": 51,
                    "time": 721.1250000000182,
                    "velocity": 0.7244094488188977,
                    "duration": 0.07708333333334849
                },
                {
                    "name": "D#4",
                    "midi": 63,
                    "time": 721.1270833333515,
                    "velocity": 0.7007874015748031,
                    "duration": 0.06666666666671972
                },
                {
                    "name": "D4",
                    "midi": 62,
                    "time": 721.2687500000183,
                    "velocity": 0.7086614173228346,
                    "duration": 0.07291666666662877
                },
                {
                    "name": "D3",
                    "midi": 50,
                    "time": 721.2687500000183,
                    "velocity": 0.6614173228346457,
                    "duration": 0.07916666666665151
                },
                {
                    "name": "C#4",
                    "midi": 61,
                    "time": 721.5062500000182,
                    "velocity": 0.8661417322834646,
                    "duration": 0.06041666666669698
                },
                {
                    "name": "C#3",
                    "midi": 49,
                    "time": 721.5125000000182,
                    "velocity": 0.8582677165354331,
                    "duration": 0.06458333333330302
                },
                {
                    "name": "G#4",
                    "midi": 68,
                    "time": 721.6062500000182,
                    "velocity": 0.8267716535433071,
                    "duration": 0.08541666666667425
                },
                {
                    "name": "G#5",
                    "midi": 80,
                    "time": 721.704166666685,
                    "velocity": 0.7874015748031497,
                    "duration": 0.06458333333318933
                },
                {
                    "name": "E5",
                    "midi": 76,
                    "time": 721.7229166666849,
                    "velocity": 0.44881889763779526,
                    "duration": 0.05416666666656056
                },
                {
                    "name": "D#4",
                    "midi": 63,
                    "time": 721.7500000000182,
                    "velocity": 0.9291338582677166,
                    "duration": 0.06874999999990905
                },
                {
                    "name": "D#3",
                    "midi": 51,
                    "time": 721.7520833333515,
                    "velocity": 0.8976377952755905,
                    "duration": 0.08124999999995453
                },
                {
                    "name": "G#5",
                    "midi": 80,
                    "time": 721.8354166666848,
                    "velocity": 0.7007874015748031,
                    "duration": 0.07916666666665151
                },
                {
                    "name": "D3",
                    "midi": 50,
                    "time": 721.9458333333514,
                    "velocity": 0.84251968503937,
                    "duration": 0.05624999999997726
                },
                {
                    "name": "D4",
                    "midi": 62,
                    "time": 721.9479166666847,
                    "velocity": 0.8503937007874016,
                    "duration": 0.05624999999997726
                },
                {
                    "name": "E6",
                    "midi": 88,
                    "time": 721.9520833333514,
                    "velocity": 0.6692913385826772,
                    "duration": 0.05208333333325754
                },
                {
                    "name": "G#6",
                    "midi": 92,
                    "time": 721.9604166666848,
                    "velocity": 0.7322834645669292,
                    "duration": 0.06458333333330302
                },
                {
                    "name": "G#6",
                    "midi": 92,
                    "time": 722.0916666666848,
                    "velocity": 0.7165354330708661,
                    "duration": 0.07916666666665151
                },
                {
                    "name": "C#4",
                    "midi": 61,
                    "time": 722.0979166666848,
                    "velocity": 0.8976377952755905,
                    "duration": 0.054166666666674246
                },
                {
                    "name": "C#3",
                    "midi": 49,
                    "time": 722.1000000000181,
                    "velocity": 0.9291338582677166,
                    "duration": 0.06041666666669698
                },
                {
                    "name": "D#7",
                    "midi": 99,
                    "time": 722.2083333333514,
                    "velocity": 0.7244094488188977,
                    "duration": 0.10000000000002274
                },
                {
                    "name": "D#4",
                    "midi": 63,
                    "time": 722.2354166666847,
                    "velocity": 0.952755905511811,
                    "duration": 0.054166666666674246
                },
                {
                    "name": "D#3",
                    "midi": 51,
                    "time": 722.237500000018,
                    "velocity": 0.8818897637795275,
                    "duration": 0.058333333333393966
                },
                {
                    "name": "G#6",
                    "midi": 92,
                    "time": 722.3250000000181,
                    "velocity": 0.5354330708661418,
                    "duration": 0.04166666666662877
                },
                {
                    "name": "G#6",
                    "midi": 92,
                    "time": 722.4895833333514,
                    "velocity": 0.8346456692913385,
                    "duration": 0.12916666666671972
                },
                {
                    "name": "D4",
                    "midi": 62,
                    "time": 722.4958333333515,
                    "velocity": 0.8110236220472441,
                    "duration": 0.060416666666583296
                },
                {
                    "name": "D3",
                    "midi": 50,
                    "time": 722.4979166666848,
                    "velocity": 0.7716535433070866,
                    "duration": 0.0625
                },
                {
                    "name": "E6",
                    "midi": 88,
                    "time": 722.5291666666848,
                    "velocity": 0.4094488188976378,
                    "duration": 0.07708333333334849
                },
                {
                    "name": "G#5",
                    "midi": 80,
                    "time": 722.6270833333515,
                    "velocity": 0.7559055118110236,
                    "duration": 0.06041666666669698
                },
                {
                    "name": "C#4",
                    "midi": 61,
                    "time": 722.8083333333515,
                    "velocity": 0.9133858267716536,
                    "duration": 0.06875000000002274
                },
                {
                    "name": "C#3",
                    "midi": 49,
                    "time": 722.8125000000182,
                    "velocity": 0.8188976377952756,
                    "duration": 0.10833333333334849
                },
                {
                    "name": "G#5",
                    "midi": 80,
                    "time": 722.8270833333515,
                    "velocity": 0.7559055118110236,
                    "duration": 0.1875
                },
                {
                    "name": "F5",
                    "midi": 77,
                    "time": 722.8750000000182,
                    "velocity": 0.33070866141732286,
                    "duration": 0.05624999999997726
                },
                {
                    "name": "E5",
                    "midi": 76,
                    "time": 722.8812500000182,
                    "velocity": 0.33858267716535434,
                    "duration": 0.1729166666666515
                },
                {
                    "name": "G#4",
                    "midi": 68,
                    "time": 723.0083333333515,
                    "velocity": 0.7480314960629921,
                    "duration": 0.15833333333330302
                },
                {
                    "name": "B3",
                    "midi": 59,
                    "time": 723.3250000000181,
                    "velocity": 0.5669291338582677,
                    "duration": 0.14999999999997726
                },
                {
                    "name": "B2",
                    "midi": 47,
                    "time": 723.3270833333514,
                    "velocity": 0.5826771653543307,
                    "duration": 0.1875
                },
                {
                    "name": "G#5",
                    "midi": 80,
                    "time": 723.3666666666848,
                    "velocity": 0.8188976377952756,
                    "duration": 0.30833333333339397
                },
                {
                    "name": "G#4",
                    "midi": 68,
                    "time": 723.7250000000181,
                    "velocity": 0.7637795275590551,
                    "duration": 0.07708333333334849
                },
                {
                    "name": "B4",
                    "midi": 71,
                    "time": 723.7312500000181,
                    "velocity": 0.6614173228346457,
                    "duration": 0.04791666666665151
                },
                {
                    "name": "E2",
                    "midi": 40,
                    "time": 723.7312500000181,
                    "velocity": 0.5669291338582677,
                    "duration": 0.38125000000002274
                },
                {
                    "name": "E5",
                    "midi": 76,
                    "time": 723.7375000000181,
                    "velocity": 0.5984251968503937,
                    "duration": 0.08541666666667425
                },
                {
                    "name": "A5",
                    "midi": 81,
                    "time": 724.0083333333515,
                    "velocity": 0.7952755905511811,
                    "duration": 0.26250000000015916
                },
                {
                    "name": "B2",
                    "midi": 47,
                    "time": 724.0083333333515,
                    "velocity": 0.7086614173228346,
                    "duration": 0.21458333333339397
                },
                {
                    "name": "F#5",
                    "midi": 78,
                    "time": 724.2187500000182,
                    "velocity": 0.7716535433070866,
                    "duration": 0.16875000000015916
                },
                {
                    "name": "E3",
                    "midi": 52,
                    "time": 724.2229166666849,
                    "velocity": 0.7716535433070866,
                    "duration": 0.13333333333343944
                },
                {
                    "name": "A4",
                    "midi": 69,
                    "time": 724.2437500000183,
                    "velocity": 0.5669291338582677,
                    "duration": 0.06250000000011369
                },
                {
                    "name": "B4",
                    "midi": 71,
                    "time": 724.247916666685,
                    "velocity": 0.6535433070866141,
                    "duration": 0.04583333333334849
                },
                {
                    "name": "G3",
                    "midi": 55,
                    "time": 724.3958333333517,
                    "velocity": 0.7165354330708661,
                    "duration": 0.28749999999990905
                },
                {
                    "name": "B5",
                    "midi": 83,
                    "time": 724.4062500000183,
                    "velocity": 0.8582677165354331,
                    "duration": 0.17499999999995453
                },
                {
                    "name": "G#5",
                    "midi": 80,
                    "time": 724.5833333333516,
                    "velocity": 0.6850393700787402,
                    "duration": 0.07708333333334849
                },
                {
                    "name": "G#3",
                    "midi": 56,
                    "time": 724.5875000000183,
                    "velocity": 0.7716535433070866,
                    "duration": 0.6416666666664241
                },
                {
                    "name": "E5",
                    "midi": 76,
                    "time": 724.5958333333516,
                    "velocity": 0.5590551181102362,
                    "duration": 0.04166666666662877
                },
                {
                    "name": "D4",
                    "midi": 62,
                    "time": 724.9583333333516,
                    "velocity": 0.6299212598425197,
                    "duration": 0.20833333333314386
                },
                {
                    "name": "B4",
                    "midi": 71,
                    "time": 724.9604166666849,
                    "velocity": 0.8110236220472441,
                    "duration": 0.6208333333332803
                },
                {
                    "name": "G#4",
                    "midi": 68,
                    "time": 725.2916666666847,
                    "velocity": 0.5354330708661418,
                    "duration": 0.2020833333333485
                },
                {
                    "name": "E4",
                    "midi": 64,
                    "time": 725.325000000018,
                    "velocity": 0.3464566929133858,
                    "duration": 0.14583333333337123
                },
                {
                    "name": "G#2",
                    "midi": 44,
                    "time": 725.4979166666848,
                    "velocity": 0.7480314960629921,
                    "duration": 0.07500000000004547
                },
                {
                    "name": "B3",
                    "midi": 59,
                    "time": 725.6645833333515,
                    "velocity": 0.5039370078740157,
                    "duration": 0.05000000000006821
                },
                {
                    "name": "G#4",
                    "midi": 68,
                    "time": 725.6770833333516,
                    "velocity": 0.6299212598425197,
                    "duration": 0.08541666666667425
                },
                {
                    "name": "C#4",
                    "midi": 61,
                    "time": 725.8250000000182,
                    "velocity": 0.8582677165354331,
                    "duration": 0.0645833333334167
                },
                {
                    "name": "C#5",
                    "midi": 73,
                    "time": 725.829166666685,
                    "velocity": 0.905511811023622,
                    "duration": 0.25
                },
                {
                    "name": "E4",
                    "midi": 64,
                    "time": 726.0062500000183,
                    "velocity": 0.5354330708661418,
                    "duration": 0.0916666666665833
                },
                {
                    "name": "C#4",
                    "midi": 61,
                    "time": 726.0062500000183,
                    "velocity": 0.5669291338582677,
                    "duration": 0.0625
                },
                {
                    "name": "G#4",
                    "midi": 68,
                    "time": 726.010416666685,
                    "velocity": 0.5984251968503937,
                    "duration": 0.12499999999988631
                },
                {
                    "name": "B3",
                    "midi": 59,
                    "time": 726.1895833333516,
                    "velocity": 0.8740157480314961,
                    "duration": 0.6916666666667197
                },
                {
                    "name": "D#5",
                    "midi": 75,
                    "time": 726.2020833333517,
                    "velocity": 0.889763779527559,
                    "duration": 0.41666666666674246
                },
                {
                    "name": "G#4",
                    "midi": 68,
                    "time": 726.410416666685,
                    "velocity": 0.6220472440944882,
                    "duration": 0.2624999999999318
                },
                {
                    "name": "D#4",
                    "midi": 63,
                    "time": 726.4187500000183,
                    "velocity": 0.5590551181102362,
                    "duration": 0.20000000000004547
                },
                {
                    "name": "E5",
                    "midi": 76,
                    "time": 726.6895833333516,
                    "velocity": 0.84251968503937,
                    "duration": 0.2937500000000455
                },
                {
                    "name": "D3",
                    "midi": 50,
                    "time": 726.6958333333516,
                    "velocity": 0.9133858267716536,
                    "duration": 0.29166666666674246
                },
                {
                    "name": "B4",
                    "midi": 71,
                    "time": 727.0062500000183,
                    "velocity": 0.6614173228346457,
                    "duration": 0.1750000000000682
                },
                {
                    "name": "G#4",
                    "midi": 68,
                    "time": 727.0062500000183,
                    "velocity": 0.6771653543307087,
                    "duration": 0.14583333333337123
                },
                {
                    "name": "E4",
                    "midi": 64,
                    "time": 727.0187500000184,
                    "velocity": 0.7086614173228346,
                    "duration": 0.07083333333332575
                },
                {
                    "name": "C#3",
                    "midi": 49,
                    "time": 727.291666666685,
                    "velocity": 0.937007874015748,
                    "duration": 0.1875000000001137
                },
                {
                    "name": "A5",
                    "midi": 81,
                    "time": 727.6520833333518,
                    "velocity": 0.84251968503937,
                    "duration": 0.07291666666662877
                },
                {
                    "name": "C#5",
                    "midi": 73,
                    "time": 727.6604166666851,
                    "velocity": 0.8188976377952756,
                    "duration": 0.0625
                },
                {
                    "name": "F#4",
                    "midi": 66,
                    "time": 727.6729166666852,
                    "velocity": 0.84251968503937,
                    "duration": 0.06874999999990905
                },
                {
                    "name": "F#3",
                    "midi": 54,
                    "time": 727.6750000000185,
                    "velocity": 0.7716535433070866,
                    "duration": 0.0770833333332348
                },
                {
                    "name": "A4",
                    "midi": 69,
                    "time": 727.6770833333518,
                    "velocity": 0.6299212598425197,
                    "duration": 0.043750000000045475
                },
                {
                    "name": "F4",
                    "midi": 65,
                    "time": 727.8375000000184,
                    "velocity": 0.6850393700787402,
                    "duration": 0.05208333333337123
                },
                {
                    "name": "E3",
                    "midi": 52,
                    "time": 728.0020833333517,
                    "velocity": 0.7874015748031497,
                    "duration": 0.03333333333330302
                },
                {
                    "name": "E4",
                    "midi": 64,
                    "time": 728.010416666685,
                    "velocity": 0.5590551181102362,
                    "duration": 0.04583333333334849
                },
                {
                    "name": "F#4",
                    "midi": 66,
                    "time": 728.2750000000184,
                    "velocity": 0.8661417322834646,
                    "duration": 0.07499999999993179
                },
                {
                    "name": "F#3",
                    "midi": 54,
                    "time": 728.285416666685,
                    "velocity": 0.7716535433070866,
                    "duration": 0.08958333333328028
                },
                {
                    "name": "A4",
                    "midi": 69,
                    "time": 728.3750000000183,
                    "velocity": 0.6929133858267716,
                    "duration": 0.07916666666665151
                },
                {
                    "name": "C#5",
                    "midi": 73,
                    "time": 728.4791666666849,
                    "velocity": 0.6929133858267716,
                    "duration": 0.029166666666696983
                },
                {
                    "name": "A5",
                    "midi": 81,
                    "time": 728.4833333333517,
                    "velocity": 0.8031496062992126,
                    "duration": 0.0625
                },
                {
                    "name": "F4",
                    "midi": 65,
                    "time": 728.5125000000183,
                    "velocity": 0.7165354330708661,
                    "duration": 0.04374999999993179
                },
                {
                    "name": "F3",
                    "midi": 53,
                    "time": 728.5145833333517,
                    "velocity": 0.7637795275590551,
                    "duration": 0.060416666666583296
                },
                {
                    "name": "A5",
                    "midi": 81,
                    "time": 728.6291666666849,
                    "velocity": 0.48031496062992124,
                    "duration": 0.054166666666674246
                },
                {
                    "name": "E3",
                    "midi": 52,
                    "time": 728.6687500000182,
                    "velocity": 0.7795275590551181,
                    "duration": 0.03333333333330302
                },
                {
                    "name": "E4",
                    "midi": 64,
                    "time": 728.6770833333516,
                    "velocity": 0.7637795275590551,
                    "duration": 0.04791666666665151
                },
                {
                    "name": "A6",
                    "midi": 93,
                    "time": 728.7520833333515,
                    "velocity": 0.6535433070866141,
                    "duration": 0.07291666666662877
                },
                {
                    "name": "C#6",
                    "midi": 85,
                    "time": 728.7541666666848,
                    "velocity": 0.6929133858267716,
                    "duration": 0.05624999999997726
                },
                {
                    "name": "F#3",
                    "midi": 54,
                    "time": 728.8250000000181,
                    "velocity": 0.8188976377952756,
                    "duration": 0.07499999999993179
                },
                {
                    "name": "F#4",
                    "midi": 66,
                    "time": 728.8354166666848,
                    "velocity": 0.8110236220472441,
                    "duration": 0.06458333333330302
                },
                {
                    "name": "A6",
                    "midi": 93,
                    "time": 728.8812500000181,
                    "velocity": 0.44881889763779526,
                    "duration": 0.06458333333330302
                },
                {
                    "name": "C#7",
                    "midi": 97,
                    "time": 728.9708333333514,
                    "velocity": 0.8582677165354331,
                    "duration": 0.11875000000009095
                },
                {
                    "name": "F4",
                    "midi": 65,
                    "time": 728.9729166666847,
                    "velocity": 0.8818897637795275,
                    "duration": 0.0645833333334167
                },
                {
                    "name": "A7",
                    "midi": 105,
                    "time": 728.9729166666847,
                    "velocity": 0.8503937007874016,
                    "duration": 0.08541666666678793
                },
                {
                    "name": "F3",
                    "midi": 53,
                    "time": 728.9791666666847,
                    "velocity": 0.7322834645669292,
                    "duration": 0.058333333333393966
                },
                {
                    "name": "G3",
                    "midi": 55,
                    "time": 728.993750000018,
                    "velocity": 0.6614173228346457,
                    "duration": 0.039583333333325754
                },
                {
                    "name": "A6",
                    "midi": 93,
                    "time": 729.0875000000182,
                    "velocity": 0.5039370078740157,
                    "duration": 0.04166666666662877
                },
                {
                    "name": "E3",
                    "midi": 52,
                    "time": 729.1645833333515,
                    "velocity": 0.8582677165354331,
                    "duration": 0.054166666666674246
                },
                {
                    "name": "E4",
                    "midi": 64,
                    "time": 729.1666666666848,
                    "velocity": 0.7165354330708661,
                    "duration": 0.039583333333325754
                },
                {
                    "name": "A6",
                    "midi": 93,
                    "time": 729.2479166666849,
                    "velocity": 0.7007874015748031,
                    "duration": 0.07500000000004547
                },
                {
                    "name": "C#6",
                    "midi": 85,
                    "time": 729.2479166666849,
                    "velocity": 0.8267716535433071,
                    "duration": 0.05208333333337123
                },
                {
                    "name": "A5",
                    "midi": 81,
                    "time": 729.3562500000182,
                    "velocity": 0.6614173228346457,
                    "duration": 0.054166666666674246
                },
                {
                    "name": "F#4",
                    "midi": 66,
                    "time": 729.5208333333516,
                    "velocity": 0.968503937007874,
                    "duration": 0.04791666666665151
                },
                {
                    "name": "F#3",
                    "midi": 54,
                    "time": 729.5208333333516,
                    "velocity": 0.9291338582677166,
                    "duration": 0.07916666666665151
                },
                {
                    "name": "A5",
                    "midi": 81,
                    "time": 729.5291666666849,
                    "velocity": 0.8976377952755905,
                    "duration": 0.10416666666674246
                },
                {
                    "name": "C#5",
                    "midi": 73,
                    "time": 729.5500000000183,
                    "velocity": 0.905511811023622,
                    "duration": 0.07916666666665151
                },
                {
                    "name": "A4",
                    "midi": 69,
                    "time": 729.6645833333516,
                    "velocity": 0.7086614173228346,
                    "duration": 0.11458333333337123
                },
                {
                    "name": "G#2",
                    "midi": 44,
                    "time": 729.8312500000184,
                    "velocity": 0.889763779527559,
                    "duration": 0.07291666666674246
                },
                {
                    "name": "D5",
                    "midi": 74,
                    "time": 730.0458333333518,
                    "velocity": 0.8503937007874016,
                    "duration": 0.07291666666674246
                },
                {
                    "name": "B5",
                    "midi": 83,
                    "time": 730.0500000000185,
                    "velocity": 0.8582677165354331,
                    "duration": 0.08125000000006821
                },
                {
                    "name": "B4",
                    "midi": 71,
                    "time": 730.0541666666852,
                    "velocity": 0.8740157480314961,
                    "duration": 0.04791666666665151
                },
                {
                    "name": "F3",
                    "midi": 53,
                    "time": 730.0625000000185,
                    "velocity": 0.7086614173228346,
                    "duration": 0.04791666666665151
                },
                {
                    "name": "F4",
                    "midi": 65,
                    "time": 730.0645833333518,
                    "velocity": 0.7244094488188977,
                    "duration": 0.03333333333330302
                },
                {
                    "name": "E3",
                    "midi": 52,
                    "time": 730.2145833333519,
                    "velocity": 0.9133858267716536,
                    "duration": 0.054166666666674246
                },
                {
                    "name": "E4",
                    "midi": 64,
                    "time": 730.2187500000186,
                    "velocity": 0.8740157480314961,
                    "duration": 0.049999999999954525
                },
                {
                    "name": "F#3",
                    "midi": 54,
                    "time": 730.3666666666853,
                    "velocity": 0.8661417322834646,
                    "duration": 0.03125000000011369
                },
                {
                    "name": "F#4",
                    "midi": 66,
                    "time": 730.370833333352,
                    "velocity": 0.9291338582677166,
                    "duration": 0.058333333333393966
                },
                {
                    "name": "G#3",
                    "midi": 56,
                    "time": 730.3937500000187,
                    "velocity": 0.5590551181102362,
                    "duration": 0.03958333333343944
                },
                {
                    "name": "F4",
                    "midi": 65,
                    "time": 730.6104166666855,
                    "velocity": 0.7874015748031497,
                    "duration": 0.06249999999988631
                },
                {
                    "name": "F3",
                    "midi": 53,
                    "time": 730.6125000000188,
                    "velocity": 0.8110236220472441,
                    "duration": 0.060416666666583296
                },
                {
                    "name": "E4",
                    "midi": 64,
                    "time": 730.6208333333522,
                    "velocity": 0.7952755905511811,
                    "duration": 0.03333333333330302
                },
                {
                    "name": "F#3",
                    "midi": 54,
                    "time": 730.6437500000188,
                    "velocity": 0.3700787401574803,
                    "duration": 0.03749999999990905
                },
                {
                    "name": "B4",
                    "midi": 71,
                    "time": 730.7000000000187,
                    "velocity": 0.9291338582677166,
                    "duration": 0.10000000000002274
                },
                {
                    "name": "E3",
                    "midi": 52,
                    "time": 730.8375000000187,
                    "velocity": 0.9212598425196851,
                    "duration": 0.06875000000002274
                },
                {
                    "name": "D5",
                    "midi": 74,
                    "time": 730.8416666666855,
                    "velocity": 0.7401574803149606,
                    "duration": 0.03750000000002274
                },
                {
                    "name": "E4",
                    "midi": 64,
                    "time": 730.8416666666855,
                    "velocity": 0.8740157480314961,
                    "duration": 0.06458333333330302
                },
                {
                    "name": "B5",
                    "midi": 83,
                    "time": 730.8479166666855,
                    "velocity": 0.7795275590551181,
                    "duration": 0.08333333333325754
                },
                {
                    "name": "B5",
                    "midi": 83,
                    "time": 730.9750000000188,
                    "velocity": 0.7952755905511811,
                    "duration": 0.09166666666669698
                },
                {
                    "name": "F#3",
                    "midi": 54,
                    "time": 731.0979166666855,
                    "velocity": 0.9133858267716536,
                    "duration": 0.07083333333321207
                },
                {
                    "name": "F#4",
                    "midi": 66,
                    "time": 731.1000000000188,
                    "velocity": 0.9763779527559056,
                    "duration": 0.05416666666656056
                },
                {
                    "name": "B6",
                    "midi": 95,
                    "time": 731.1187500000187,
                    "velocity": 0.7716535433070866,
                    "duration": 0.08749999999997726
                },
                {
                    "name": "D6",
                    "midi": 86,
                    "time": 731.120833333352,
                    "velocity": 0.5354330708661418,
                    "duration": 0.03750000000002274
                },
                {
                    "name": "B6",
                    "midi": 95,
                    "time": 731.2625000000187,
                    "velocity": 0.7637795275590551,
                    "duration": 0.07708333333334849
                },
                {
                    "name": "F3",
                    "midi": 53,
                    "time": 731.2854166666854,
                    "velocity": 0.7952755905511811,
                    "duration": 0.03333333333330302
                },
                {
                    "name": "F4",
                    "midi": 65,
                    "time": 731.2916666666854,
                    "velocity": 0.7165354330708661,
                    "duration": 0.035416666666606034
                },
                {
                    "name": "B7",
                    "midi": 107,
                    "time": 731.4229166666854,
                    "velocity": 0.8188976377952756,
                    "duration": 0.058333333333393966
                },
                {
                    "name": "E3",
                    "midi": 52,
                    "time": 731.4250000000187,
                    "velocity": 0.889763779527559,
                    "duration": 0.024999999999977263
                },
                {
                    "name": "E4",
                    "midi": 64,
                    "time": 731.427083333352,
                    "velocity": 0.7952755905511811,
                    "duration": 0.03750000000002274
                },
                {
                    "name": "D7",
                    "midi": 98,
                    "time": 731.4312500000187,
                    "velocity": 0.7007874015748031,
                    "duration": 0.03750000000002274
                },
                {
                    "name": "B6",
                    "midi": 95,
                    "time": 731.7520833333522,
                    "velocity": 0.8740157480314961,
                    "duration": 0.09583333333330302
                },
                {
                    "name": "F#4",
                    "midi": 66,
                    "time": 731.7541666666855,
                    "velocity": 0.968503937007874,
                    "duration": 0.06875000000002274
                },
                {
                    "name": "D6",
                    "midi": 86,
                    "time": 731.7562500000188,
                    "velocity": 0.9133858267716536,
                    "duration": 0.16041666666671972
                },
                {
                    "name": "F#3",
                    "midi": 54,
                    "time": 731.7562500000188,
                    "velocity": 0.905511811023622,
                    "duration": 0.08333333333337123
                },
                {
                    "name": "B5",
                    "midi": 83,
                    "time": 731.9041666666855,
                    "velocity": 0.6771653543307087,
                    "duration": 0.07708333333334849
                },
                {
                    "name": "F4",
                    "midi": 65,
                    "time": 732.1187500000188,
                    "velocity": 0.8818897637795275,
                    "duration": 0.06458333333330302
                },
                {
                    "name": "F3",
                    "midi": 53,
                    "time": 732.1208333333522,
                    "velocity": 0.7874015748031497,
                    "duration": 0.06875000000002274
                },
                {
                    "name": "B5",
                    "midi": 83,
                    "time": 732.1354166666855,
                    "velocity": 0.8582677165354331,
                    "duration": 0.08541666666667425
                },
                {
                    "name": "D5",
                    "midi": 74,
                    "time": 732.1458333333521,
                    "velocity": 0.9133858267716536,
                    "duration": 0.15208333333339397
                },
                {
                    "name": "B4",
                    "midi": 71,
                    "time": 732.2875000000189,
                    "velocity": 0.7401574803149606,
                    "duration": 0.05833333333328028
                },
                {
                    "name": "C#6",
                    "midi": 85,
                    "time": 732.7041666666855,
                    "velocity": 0.9133858267716536,
                    "duration": 0.5229166666666742
                },
                {
                    "name": "C#5",
                    "midi": 73,
                    "time": 732.7062500000188,
                    "velocity": 0.9921259842519685,
                    "duration": 0.49583333333339397
                },
                {
                    "name": "A5",
                    "midi": 81,
                    "time": 732.7083333333521,
                    "velocity": 0.84251968503937,
                    "duration": 0.4812500000000455
                },
                {
                    "name": "A2",
                    "midi": 45,
                    "time": 733.0375000000188,
                    "velocity": 0.8188976377952756,
                    "duration": 0.497916666666697
                },
                {
                    "name": "B5",
                    "midi": 83,
                    "time": 733.4104166666855,
                    "velocity": 0.889763779527559,
                    "duration": 0.5
                },
                {
                    "name": "D#6",
                    "midi": 87,
                    "time": 733.4104166666855,
                    "velocity": 0.8503937007874016,
                    "duration": 0.15625
                },
                {
                    "name": "E3",
                    "midi": 52,
                    "time": 733.4125000000188,
                    "velocity": 0.9212598425196851,
                    "duration": 0.252083333333303
                },
                {
                    "name": "D#5",
                    "midi": 75,
                    "time": 733.4166666666855,
                    "velocity": 0.9291338582677166,
                    "duration": 0.12708333333330302
                },
                {
                    "name": "A3",
                    "midi": 57,
                    "time": 733.6479166666854,
                    "velocity": 0.8818897637795275,
                    "duration": 0.25
                },
                {
                    "name": "E6",
                    "midi": 88,
                    "time": 733.8500000000188,
                    "velocity": 0.7952755905511811,
                    "duration": 0.043750000000045475
                },
                {
                    "name": "C#6",
                    "midi": 85,
                    "time": 733.8500000000188,
                    "velocity": 0.8110236220472441,
                    "duration": 0.0625
                },
                {
                    "name": "A5",
                    "midi": 81,
                    "time": 733.8500000000188,
                    "velocity": 0.7637795275590551,
                    "duration": 0.04583333333334849
                },
                {
                    "name": "E5",
                    "midi": 76,
                    "time": 733.8541666666855,
                    "velocity": 0.7559055118110236,
                    "duration": 0.05624999999997726
                },
                {
                    "name": "C4",
                    "midi": 60,
                    "time": 733.8562500000188,
                    "velocity": 0.8976377952755905,
                    "duration": 0.23749999999995453
                },
                {
                    "name": "C#4",
                    "midi": 61,
                    "time": 734.0333333333521,
                    "velocity": 0.889763779527559,
                    "duration": 0.6604166666667197
                },
                {
                    "name": "E5",
                    "midi": 76,
                    "time": 734.2979166666854,
                    "velocity": 0.9133858267716536,
                    "duration": 0.816666666666606
                },
                {
                    "name": "C#5",
                    "midi": 73,
                    "time": 734.3020833333521,
                    "velocity": 0.905511811023622,
                    "duration": 0.19375000000002274
                },
                {
                    "name": "A4",
                    "midi": 69,
                    "time": 734.3208333333521,
                    "velocity": 0.7165354330708661,
                    "duration": 0.2187500000001137
                },
                {
                    "name": "E4",
                    "midi": 64,
                    "time": 734.3291666666854,
                    "velocity": 0.8110236220472441,
                    "duration": 0.27500000000009095
                },
                {
                    "name": "D#5",
                    "midi": 75,
                    "time": 734.5708333333522,
                    "velocity": 0.8503937007874016,
                    "duration": 0.17916666666656056
                },
                {
                    "name": "C#5",
                    "midi": 73,
                    "time": 734.6854166666855,
                    "velocity": 0.84251968503937,
                    "duration": 0.1374999999999318
                },
                {
                    "name": "C5",
                    "midi": 72,
                    "time": 734.8479166666854,
                    "velocity": 0.7874015748031497,
                    "duration": 0.2666666666666515
                },
                {
                    "name": "E4",
                    "midi": 64,
                    "time": 734.8604166666854,
                    "velocity": 0.7322834645669292,
                    "duration": 0.23958333333325754
                },
                {
                    "name": "C#5",
                    "midi": 73,
                    "time": 734.870833333352,
                    "velocity": 0.7480314960629921,
                    "duration": 0.03541666666671972
                },
                {
                    "name": "F#2",
                    "midi": 42,
                    "time": 735.0416666666854,
                    "velocity": 0.8818897637795275,
                    "duration": 0.13124999999990905
                },
                {
                    "name": "E3",
                    "midi": 52,
                    "time": 735.2458333333519,
                    "velocity": 0.84251968503937,
                    "duration": 0.1416666666667652
                },
                {
                    "name": "F#4",
                    "midi": 66,
                    "time": 735.2500000000186,
                    "velocity": 0.8503937007874016,
                    "duration": 0.10000000000002274
                },
                {
                    "name": "F#5",
                    "midi": 78,
                    "time": 735.252083333352,
                    "velocity": 0.8661417322834646,
                    "duration": 0.14791666666667425
                },
                {
                    "name": "C5",
                    "midi": 72,
                    "time": 735.252083333352,
                    "velocity": 0.7322834645669292,
                    "duration": 0.1708333333333485
                },
                {
                    "name": "A3",
                    "midi": 57,
                    "time": 735.3979166666853,
                    "velocity": 0.7874015748031497,
                    "duration": 0.11041666666665151
                },
                {
                    "name": "G#5",
                    "midi": 80,
                    "time": 735.5979166666853,
                    "velocity": 0.8818897637795275,
                    "duration": 0.15208333333328028
                },
                {
                    "name": "C4",
                    "midi": 60,
                    "time": 735.5979166666853,
                    "velocity": 0.8582677165354331,
                    "duration": 0.09999999999990905
                },
                {
                    "name": "C5",
                    "midi": 72,
                    "time": 735.6062500000186,
                    "velocity": 0.7795275590551181,
                    "duration": 0.08124999999995453
                },
                {
                    "name": "G#4",
                    "midi": 68,
                    "time": 735.6083333333519,
                    "velocity": 0.7952755905511811,
                    "duration": 0.10208333333332575
                },
                {
                    "name": "E4",
                    "midi": 64,
                    "time": 735.7520833333518,
                    "velocity": 0.8976377952755905,
                    "duration": 0.11874999999997726
                },
                {
                    "name": "F#4",
                    "midi": 66,
                    "time": 735.9479166666852,
                    "velocity": 0.9921259842519685,
                    "duration": 0.07083333333332575
                },
                {
                    "name": "A5",
                    "midi": 81,
                    "time": 735.9583333333518,
                    "velocity": 0.7952755905511811,
                    "duration": 0.06875000000002274
                },
                {
                    "name": "A4",
                    "midi": 69,
                    "time": 735.9625000000185,
                    "velocity": 0.8031496062992126,
                    "duration": 0.04583333333334849
                },
                {
                    "name": "E5",
                    "midi": 76,
                    "time": 735.9625000000185,
                    "velocity": 0.7322834645669292,
                    "duration": 0.05624999999997726
                },
                {
                    "name": "B5",
                    "midi": 83,
                    "time": 736.4416666666851,
                    "velocity": 0.8346456692913385,
                    "duration": 0.2666666666665378
                },
                {
                    "name": "G#5",
                    "midi": 80,
                    "time": 736.4416666666851,
                    "velocity": 0.8110236220472441,
                    "duration": 0.30208333333325754
                },
                {
                    "name": "D#5",
                    "midi": 75,
                    "time": 736.4437500000184,
                    "velocity": 0.905511811023622,
                    "duration": 0.2624999999999318
                },
                {
                    "name": "B4",
                    "midi": 71,
                    "time": 736.4437500000184,
                    "velocity": 0.9133858267716536,
                    "duration": 0.23749999999995453
                },
                {
                    "name": "G#2",
                    "midi": 44,
                    "time": 736.6708333333518,
                    "velocity": 0.9133858267716536,
                    "duration": 0.32291666666662877
                },
                {
                    "name": "C#6",
                    "midi": 85,
                    "time": 736.9375000000184,
                    "velocity": 0.9133858267716536,
                    "duration": 0.2499999999998863
                },
                {
                    "name": "D#3",
                    "midi": 51,
                    "time": 736.9375000000184,
                    "velocity": 0.905511811023622,
                    "duration": 0.2312499999999318
                },
                {
                    "name": "C#5",
                    "midi": 73,
                    "time": 736.9395833333517,
                    "velocity": 0.9448818897637795,
                    "duration": 0.19166666666671972
                },
                {
                    "name": "G#5",
                    "midi": 80,
                    "time": 736.941666666685,
                    "velocity": 0.8661417322834646,
                    "duration": 0.24583333333328028
                },
                {
                    "name": "G#3",
                    "midi": 56,
                    "time": 737.1583333333517,
                    "velocity": 0.905511811023622,
                    "duration": 0.11458333333325754
                },
                {
                    "name": "D#6",
                    "midi": 87,
                    "time": 737.4125000000183,
                    "velocity": 0.8976377952755905,
                    "duration": 0.11250000000006821
                },
                {
                    "name": "D#5",
                    "midi": 75,
                    "time": 737.416666666685,
                    "velocity": 0.905511811023622,
                    "duration": 0.11458333333337123
                },
                {
                    "name": "G#5",
                    "midi": 80,
                    "time": 737.4208333333518,
                    "velocity": 0.8503937007874016,
                    "duration": 0.13125000000002274
                },
                {
                    "name": "A#3",
                    "midi": 58,
                    "time": 737.4229166666851,
                    "velocity": 0.7401574803149606,
                    "duration": 0.2666666666666515
                },
                {
                    "name": "B3",
                    "midi": 59,
                    "time": 737.6395833333518,
                    "velocity": 0.7322834645669292,
                    "duration": 0.654166666666697
                },
                {
                    "name": "D#5",
                    "midi": 75,
                    "time": 738.0166666666851,
                    "velocity": 0.8582677165354331,
                    "duration": 0.6291666666667197
                },
                {
                    "name": "D#4",
                    "midi": 63,
                    "time": 738.0312500000184,
                    "velocity": 0.5590551181102362,
                    "duration": 0.23125000000004547
                },
                {
                    "name": "G#4",
                    "midi": 68,
                    "time": 738.0312500000184,
                    "velocity": 0.5275590551181102,
                    "duration": 0.1750000000000682
                },
                {
                    "name": "A#4",
                    "midi": 70,
                    "time": 738.0375000000184,
                    "velocity": 0.8503937007874016,
                    "duration": 0.09791666666671972
                },
                {
                    "name": "C#5",
                    "midi": 73,
                    "time": 738.2520833333518,
                    "velocity": 0.7322834645669292,
                    "duration": 0.24166666666667425
                },
                {
                    "name": "C5",
                    "midi": 72,
                    "time": 738.4229166666852,
                    "velocity": 0.7559055118110236,
                    "duration": 0.11041666666665151
                },
                {
                    "name": "D#5",
                    "midi": 75,
                    "time": 738.6666666666852,
                    "velocity": 0.4330708661417323,
                    "duration": 0.5083333333332121
                },
                {
                    "name": "B4",
                    "midi": 71,
                    "time": 738.6770833333518,
                    "velocity": 0.7874015748031497,
                    "duration": 0.5291666666665833
                },
                {
                    "name": "D#4",
                    "midi": 63,
                    "time": 738.6791666666851,
                    "velocity": 0.7716535433070866,
                    "duration": 0.46249999999997726
                },
                {
                    "name": "C#2",
                    "midi": 37,
                    "time": 738.9833333333518,
                    "velocity": 0.8818897637795275,
                    "duration": 0.629166666666606
                },
                {
                    "name": "E5",
                    "midi": 76,
                    "time": 739.354166666685,
                    "velocity": 0.8031496062992126,
                    "duration": 0.13541666666674246
                },
                {
                    "name": "B4",
                    "midi": 71,
                    "time": 739.3583333333518,
                    "velocity": 0.7086614173228346,
                    "duration": 0.19583333333332575
                },
                {
                    "name": "G#2",
                    "midi": 44,
                    "time": 739.3604166666851,
                    "velocity": 0.7007874015748031,
                    "duration": 0.29166666666662877
                },
                {
                    "name": "E4",
                    "midi": 64,
                    "time": 739.3666666666851,
                    "velocity": 0.5433070866141733,
                    "duration": 0.11458333333337123
                },
                {
                    "name": "G#4",
                    "midi": 68,
                    "time": 739.3729166666851,
                    "velocity": 0.5984251968503937,
                    "duration": 0.15833333333330302
                },
                {
                    "name": "C#3",
                    "midi": 49,
                    "time": 739.6187500000184,
                    "velocity": 0.8976377952755905,
                    "duration": 0.09583333333330302
                },
                {
                    "name": "F#5",
                    "midi": 78,
                    "time": 739.879166666685,
                    "velocity": 0.8818897637795275,
                    "duration": 0.38125000000002274
                },
                {
                    "name": "F#4",
                    "midi": 66,
                    "time": 739.8812500000183,
                    "velocity": 0.7559055118110236,
                    "duration": 0.3166666666667197
                },
                {
                    "name": "G#4",
                    "midi": 68,
                    "time": 739.8812500000183,
                    "velocity": 0.8110236220472441,
                    "duration": 0.3583333333333485
                },
                {
                    "name": "B4",
                    "midi": 71,
                    "time": 739.891666666685,
                    "velocity": 0.6692913385826772,
                    "duration": 0.35416666666674246
                },
                {
                    "name": "D#3",
                    "midi": 51,
                    "time": 739.8958333333517,
                    "velocity": 0.6929133858267716,
                    "duration": 0.31875000000002274
                },
                {
                    "name": "E3",
                    "midi": 52,
                    "time": 740.1520833333517,
                    "velocity": 0.7952755905511811,
                    "duration": 0.845833333333303
                },
                {
                    "name": "G#5",
                    "midi": 80,
                    "time": 740.6562500000184,
                    "velocity": 0.7244094488188977,
                    "duration": 0.7437499999998636
                },
                {
                    "name": "B4",
                    "midi": 71,
                    "time": 740.6750000000184,
                    "velocity": 0.5669291338582677,
                    "duration": 0.6458333333332575
                },
                {
                    "name": "G#4",
                    "midi": 68,
                    "time": 740.6750000000184,
                    "velocity": 0.4330708661417323,
                    "duration": 0.6374999999999318
                },
                {
                    "name": "C#4",
                    "midi": 61,
                    "time": 740.6791666666851,
                    "velocity": 0.36220472440944884,
                    "duration": 0.6520833333331666
                },
                {
                    "name": "G#4",
                    "midi": 68,
                    "time": 741.8020833333516,
                    "velocity": 0.6535433070866141,
                    "duration": 0.07083333333343944
                },
                {
                    "name": "G#5",
                    "midi": 80,
                    "time": 741.829166666685,
                    "velocity": 0.6692913385826772,
                    "duration": 0.47291666666660603
                },
                {
                    "name": "E4",
                    "midi": 64,
                    "time": 741.8312500000183,
                    "velocity": 0.3779527559055118,
                    "duration": 0.05208333333337123
                },
                {
                    "name": "A#3",
                    "midi": 58,
                    "time": 741.8375000000183,
                    "velocity": 0.5118110236220472,
                    "duration": 0.07916666666665151
                },
                {
                    "name": "C#3",
                    "midi": 49,
                    "time": 742.0812500000183,
                    "velocity": 0.6929133858267716,
                    "duration": 0.07083333333332575
                },
                {
                    "name": "F#2",
                    "midi": 42,
                    "time": 742.0958333333516,
                    "velocity": 0.6535433070866141,
                    "duration": 0.03333333333330302
                },
                {
                    "name": "A#5",
                    "midi": 82,
                    "time": 742.3250000000182,
                    "velocity": 0.7401574803149606,
                    "duration": 0.3416666666665833
                },
                {
                    "name": "G#4",
                    "midi": 68,
                    "time": 742.4250000000183,
                    "velocity": 0.6299212598425197,
                    "duration": 0.04374999999993179
                },
                {
                    "name": "A#3",
                    "midi": 58,
                    "time": 742.4520833333515,
                    "velocity": 0.28346456692913385,
                    "duration": 0.07916666666665151
                },
                {
                    "name": "C6",
                    "midi": 84,
                    "time": 742.6312500000182,
                    "velocity": 0.7322834645669292,
                    "duration": 0.07291666666662877
                },
                {
                    "name": "F#2",
                    "midi": 42,
                    "time": 742.6416666666848,
                    "velocity": 0.7716535433070866,
                    "duration": 0.03333333333330302
                },
                {
                    "name": "C#3",
                    "midi": 49,
                    "time": 742.6437500000181,
                    "velocity": 0.6692913385826772,
                    "duration": 0.03750000000002274
                },
                {
                    "name": "G#4",
                    "midi": 68,
                    "time": 742.9604166666849,
                    "velocity": 0.6062992125984252,
                    "duration": 0.03333333333330302
                },
                {
                    "name": "A#3",
                    "midi": 58,
                    "time": 742.9833333333515,
                    "velocity": 0.44881889763779526,
                    "duration": 0.07291666666662877
                },
                {
                    "name": "C5",
                    "midi": 72,
                    "time": 743.0083333333515,
                    "velocity": 0.8582677165354331,
                    "duration": 0.591666666666697
                },
                {
                    "name": "C#3",
                    "midi": 49,
                    "time": 743.1583333333515,
                    "velocity": 0.7480314960629921,
                    "duration": 0.04166666666674246
                },
                {
                    "name": "F#2",
                    "midi": 42,
                    "time": 743.1645833333515,
                    "velocity": 0.6929133858267716,
                    "duration": 0.03541666666671972
                },
                {
                    "name": "G#4",
                    "midi": 68,
                    "time": 743.4583333333516,
                    "velocity": 0.7244094488188977,
                    "duration": 0.04166666666662877
                },
                {
                    "name": "A#3",
                    "midi": 58,
                    "time": 743.4750000000182,
                    "velocity": 0.5118110236220472,
                    "duration": 0.07291666666662877
                },
                {
                    "name": "D5",
                    "midi": 74,
                    "time": 743.6312500000182,
                    "velocity": 0.7952755905511811,
                    "duration": 0.22916666666651508
                },
                {
                    "name": "F#2",
                    "midi": 42,
                    "time": 743.6562500000182,
                    "velocity": 0.7007874015748031,
                    "duration": 0.035416666666606034
                },
                {
                    "name": "C#3",
                    "midi": 49,
                    "time": 743.6666666666848,
                    "velocity": 0.5511811023622047,
                    "duration": 0.035416666666606034
                },
                {
                    "name": "E5",
                    "midi": 76,
                    "time": 743.9229166666847,
                    "velocity": 0.8188976377952756,
                    "duration": 0.14583333333337123
                },
                {
                    "name": "G#4",
                    "midi": 68,
                    "time": 743.9333333333514,
                    "velocity": 0.8188976377952756,
                    "duration": 0.058333333333393966
                },
                {
                    "name": "E4",
                    "midi": 64,
                    "time": 743.9458333333514,
                    "velocity": 0.6614173228346457,
                    "duration": 0.043750000000045475
                },
                {
                    "name": "F#2",
                    "midi": 42,
                    "time": 744.1229166666848,
                    "velocity": 0.7401574803149606,
                    "duration": 0.04166666666674246
                },
                {
                    "name": "C#3",
                    "midi": 49,
                    "time": 744.1437500000181,
                    "velocity": 0.5748031496062992,
                    "duration": 0.03541666666671972
                },
                {
                    "name": "F#5",
                    "midi": 78,
                    "time": 744.2875000000182,
                    "velocity": 0.8503937007874016,
                    "duration": 0.27083333333325754
                },
                {
                    "name": "G#4",
                    "midi": 68,
                    "time": 744.4395833333515,
                    "velocity": 0.6220472440944882,
                    "duration": 0.04166666666662877
                },
                {
                    "name": "A3",
                    "midi": 57,
                    "time": 744.6104166666848,
                    "velocity": 0.5196850393700787,
                    "duration": 0.09791666666683341
                },
                {
                    "name": "G#4",
                    "midi": 68,
                    "time": 744.6145833333516,
                    "velocity": 0.5905511811023622,
                    "duration": 0.04166666666674246
                },
                {
                    "name": "G#5",
                    "midi": 80,
                    "time": 744.6187500000183,
                    "velocity": 0.7401574803149606,
                    "duration": 0.3562499999999318
                },
                {
                    "name": "D#4",
                    "midi": 63,
                    "time": 744.635416666685,
                    "velocity": 0.5748031496062992,
                    "duration": 0.04374999999993179
                },
                {
                    "name": "D#4",
                    "midi": 63,
                    "time": 744.754166666685,
                    "velocity": 0.6535433070866141,
                    "duration": 0.0916666666665833
                },
                {
                    "name": "G#4",
                    "midi": 68,
                    "time": 744.7562500000183,
                    "velocity": 0.5748031496062992,
                    "duration": 0.07916666666665151
                },
                {
                    "name": "A3",
                    "midi": 57,
                    "time": 744.7750000000183,
                    "velocity": 0.2125984251968504,
                    "duration": 0.06875000000002274
                },
                {
                    "name": "A5",
                    "midi": 81,
                    "time": 744.9187500000182,
                    "velocity": 0.7007874015748031,
                    "duration": 0.3624999999999545
                },
                {
                    "name": "G#4",
                    "midi": 68,
                    "time": 745.0583333333516,
                    "velocity": 0.6614173228346457,
                    "duration": 0.07916666666665151
                },
                {
                    "name": "D#4",
                    "midi": 63,
                    "time": 745.0687500000182,
                    "velocity": 0.6062992125984252,
                    "duration": 0.08333333333337123
                },
                {
                    "name": "A3",
                    "midi": 57,
                    "time": 745.0729166666849,
                    "velocity": 0.3779527559055118,
                    "duration": 0.07916666666665151
                },
                {
                    "name": "G#4",
                    "midi": 68,
                    "time": 745.2375000000183,
                    "velocity": 0.6771653543307087,
                    "duration": 0.08333333333325754
                },
                {
                    "name": "D#4",
                    "midi": 63,
                    "time": 745.2395833333516,
                    "velocity": 0.5826771653543307,
                    "duration": 0.08124999999995453
                },
                {
                    "name": "B5",
                    "midi": 83,
                    "time": 745.2437500000183,
                    "velocity": 0.7165354330708661,
                    "duration": 0.2937499999998181
                },
                {
                    "name": "A3",
                    "midi": 57,
                    "time": 745.2458333333516,
                    "velocity": 0.47244094488188976,
                    "duration": 0.08333333333325754
                },
                {
                    "name": "G#4",
                    "midi": 68,
                    "time": 745.5541666666848,
                    "velocity": 0.5669291338582677,
                    "duration": 0.06666666666671972
                },
                {
                    "name": "D#4",
                    "midi": 63,
                    "time": 745.556250000018,
                    "velocity": 0.5984251968503937,
                    "duration": 0.0791666666667652
                },
                {
                    "name": "A3",
                    "midi": 57,
                    "time": 745.5604166666848,
                    "velocity": 0.3464566929133858,
                    "duration": 0.07500000000004547
                },
                {
                    "name": "B4",
                    "midi": 71,
                    "time": 745.5729166666848,
                    "velocity": 0.5669291338582677,
                    "duration": 0.6208333333335077
                },
                {
                    "name": "G#4",
                    "midi": 68,
                    "time": 745.7041666666848,
                    "velocity": 0.5196850393700787,
                    "duration": 0.10625000000004547
                },
                {
                    "name": "D#4",
                    "midi": 63,
                    "time": 745.7083333333516,
                    "velocity": 0.49606299212598426,
                    "duration": 0.10625000000004547
                },
                {
                    "name": "A3",
                    "midi": 57,
                    "time": 745.7208333333516,
                    "velocity": 0.44881889763779526,
                    "duration": 0.13541666666662877
                },
                {
                    "name": "G#4",
                    "midi": 68,
                    "time": 746.0083333333515,
                    "velocity": 0.5669291338582677,
                    "duration": 0.07708333333334849
                },
                {
                    "name": "D#4",
                    "midi": 63,
                    "time": 746.0125000000182,
                    "velocity": 0.5590551181102362,
                    "duration": 0.08124999999995453
                },
                {
                    "name": "A3",
                    "midi": 57,
                    "time": 746.0208333333516,
                    "velocity": 0.33858267716535434,
                    "duration": 0.08541666666667425
                },
                {
                    "name": "C#5",
                    "midi": 73,
                    "time": 746.1541666666849,
                    "velocity": 0.6771653543307087,
                    "duration": 0.3645833333334849
                },
                {
                    "name": "G#4",
                    "midi": 68,
                    "time": 746.1666666666849,
                    "velocity": 0.4645669291338583,
                    "duration": 0.08333333333337123
                },
                {
                    "name": "D#4",
                    "midi": 63,
                    "time": 746.1750000000183,
                    "velocity": 0.4251968503937008,
                    "duration": 0.07500000000004547
                },
                {
                    "name": "A3",
                    "midi": 57,
                    "time": 746.1895833333516,
                    "velocity": 0.25196850393700787,
                    "duration": 0.07291666666674246
                },
                {
                    "name": "G#4",
                    "midi": 68,
                    "time": 746.4750000000183,
                    "velocity": 0.5275590551181102,
                    "duration": 0.07291666666674246
                },
                {
                    "name": "D#4",
                    "midi": 63,
                    "time": 746.4812500000183,
                    "velocity": 0.5433070866141733,
                    "duration": 0.08125000000006821
                },
                {
                    "name": "D#5",
                    "midi": 75,
                    "time": 746.4833333333517,
                    "velocity": 0.6535433070866141,
                    "duration": 0.38750000000015916
                },
                {
                    "name": "A3",
                    "midi": 57,
                    "time": 746.4895833333517,
                    "velocity": 0.3228346456692913,
                    "duration": 0.0791666666667652
                },
                {
                    "name": "G#4",
                    "midi": 68,
                    "time": 746.6520833333518,
                    "velocity": 0.47244094488188976,
                    "duration": 0.1708333333333485
                },
                {
                    "name": "A3",
                    "midi": 57,
                    "time": 746.6562500000185,
                    "velocity": 0.29133858267716534,
                    "duration": 0.18333333333328028
                },
                {
                    "name": "D#4",
                    "midi": 63,
                    "time": 746.6562500000185,
                    "velocity": 0.3779527559055118,
                    "duration": 0.19791666666662877
                },
                {
                    "name": "C#4",
                    "midi": 61,
                    "time": 747.0458333333518,
                    "velocity": 0.4251968503937008,
                    "duration": 0.4062499999998863
                },
                {
                    "name": "E5",
                    "midi": 76,
                    "time": 747.066666666685,
                    "velocity": 0.5511811023622047,
                    "duration": 0.14791666666667425
                },
                {
                    "name": "A3",
                    "midi": 57,
                    "time": 747.1145833333517,
                    "velocity": 0.03937007874015748,
                    "duration": 0.16666666666662877
                },
                {
                    "name": "G4",
                    "midi": 67,
                    "time": 747.122916666685,
                    "velocity": 0.3779527559055118,
                    "duration": 0.13125000000002274
                },
                {
                    "name": "F5",
                    "midi": 77,
                    "time": 747.2208333333517,
                    "velocity": 0.5984251968503937,
                    "duration": 0.2666666666665378
                },
                {
                    "name": "G#3",
                    "midi": 56,
                    "time": 747.4687500000183,
                    "velocity": 0.3858267716535433,
                    "duration": 0.13750000000004547
                },
                {
                    "name": "F#5",
                    "midi": 78,
                    "time": 747.4937500000183,
                    "velocity": 0.6299212598425197,
                    "duration": 0.5625000000001137
                },
                {
                    "name": "F#4",
                    "midi": 66,
                    "time": 747.5000000000183,
                    "velocity": 0.5511811023622047,
                    "duration": 0.05208333333337123
                },
                {
                    "name": "D4",
                    "midi": 62,
                    "time": 747.5125000000183,
                    "velocity": 0.3228346456692913,
                    "duration": 0.049999999999954525
                },
                {
                    "name": "E2",
                    "midi": 40,
                    "time": 747.8625000000184,
                    "velocity": 0.5118110236220472,
                    "duration": 0.054166666666674246
                },
                {
                    "name": "B2",
                    "midi": 47,
                    "time": 747.872916666685,
                    "velocity": 0.4566929133858268,
                    "duration": 0.07708333333334849
                },
                {
                    "name": "G#5",
                    "midi": 80,
                    "time": 748.072916666685,
                    "velocity": 0.7322834645669292,
                    "duration": 0.34999999999990905
                },
                {
                    "name": "F#4",
                    "midi": 66,
                    "time": 748.2062500000184,
                    "velocity": 0.7480314960629921,
                    "duration": 0.04166666666662877
                },
                {
                    "name": "D4",
                    "midi": 62,
                    "time": 748.2125000000184,
                    "velocity": 0.49606299212598426,
                    "duration": 0.04374999999993179
                },
                {
                    "name": "G#3",
                    "midi": 56,
                    "time": 748.2145833333517,
                    "velocity": 0.4251968503937008,
                    "duration": 0.08124999999995453
                },
                {
                    "name": "A#5",
                    "midi": 82,
                    "time": 748.3812500000183,
                    "velocity": 0.8267716535433071,
                    "duration": 0.10416666666662877
                },
                {
                    "name": "B2",
                    "midi": 47,
                    "time": 748.435416666685,
                    "velocity": 0.5590551181102362,
                    "duration": 0.054166666666674246
                },
                {
                    "name": "E2",
                    "midi": 40,
                    "time": 748.4375000000183,
                    "velocity": 0.7007874015748031,
                    "duration": 0.03333333333330302
                },
                {
                    "name": "F#4",
                    "midi": 66,
                    "time": 748.7312500000183,
                    "velocity": 0.7952755905511811,
                    "duration": 0.04791666666665151
                },
                {
                    "name": "G#3",
                    "midi": 56,
                    "time": 748.7458333333517,
                    "velocity": 0.6062992125984252,
                    "duration": 0.08541666666656056
                },
                {
                    "name": "D4",
                    "midi": 62,
                    "time": 748.7520833333517,
                    "velocity": 0.4409448818897638,
                    "duration": 0.045833333333234805
                },
                {
                    "name": "A#4",
                    "midi": 70,
                    "time": 748.7708333333517,
                    "velocity": 0.889763779527559,
                    "duration": 0.23749999999995453
                },
                {
                    "name": "E2",
                    "midi": 40,
                    "time": 748.9562500000183,
                    "velocity": 0.7795275590551181,
                    "duration": 0.039583333333325754
                },
                {
                    "name": "B2",
                    "midi": 47,
                    "time": 748.9708333333516,
                    "velocity": 0.47244094488188976,
                    "duration": 0.05208333333337123
                },
                {
                    "name": "F#4",
                    "midi": 66,
                    "time": 749.2520833333516,
                    "velocity": 0.8267716535433071,
                    "duration": 0.043750000000045475
                },
                {
                    "name": "D4",
                    "midi": 62,
                    "time": 749.2625000000182,
                    "velocity": 0.5433070866141733,
                    "duration": 0.037500000000136424
                },
                {
                    "name": "G#3",
                    "midi": 56,
                    "time": 749.2750000000183,
                    "velocity": 0.5748031496062992,
                    "duration": 0.058333333333393966
                },
                {
                    "name": "C5",
                    "midi": 72,
                    "time": 749.4083333333517,
                    "velocity": 0.8110236220472441,
                    "duration": 0.08541666666667425
                },
                {
                    "name": "B2",
                    "midi": 47,
                    "time": 749.4520833333518,
                    "velocity": 0.6692913385826772,
                    "duration": 0.05208333333325754
                },
                {
                    "name": "E2",
                    "midi": 40,
                    "time": 749.4687500000184,
                    "velocity": 0.5433070866141733,
                    "duration": 0.039583333333325754
                },
                {
                    "name": "F#4",
                    "midi": 66,
                    "time": 749.722916666685,
                    "velocity": 0.8582677165354331,
                    "duration": 0.06249999999988631
                },
                {
                    "name": "D5",
                    "midi": 74,
                    "time": 749.7312500000183,
                    "velocity": 0.7401574803149606,
                    "duration": 0.2645833333332348
                },
                {
                    "name": "G#3",
                    "midi": 56,
                    "time": 749.7333333333517,
                    "velocity": 0.6220472440944882,
                    "duration": 0.08541666666656056
                },
                {
                    "name": "D4",
                    "midi": 62,
                    "time": 749.7583333333516,
                    "velocity": 0.2125984251968504,
                    "duration": 0.03749999999990905
                },
                {
                    "name": "E2",
                    "midi": 40,
                    "time": 749.9312500000182,
                    "velocity": 0.7401574803149606,
                    "duration": 0.03541666666671972
                },
                {
                    "name": "B2",
                    "midi": 47,
                    "time": 749.9437500000182,
                    "velocity": 0.44881889763779526,
                    "duration": 0.043750000000045475
                },
                {
                    "name": "E5",
                    "midi": 76,
                    "time": 750.1250000000183,
                    "velocity": 0.8346456692913385,
                    "duration": 0.08958333333328028
                },
                {
                    "name": "F#4",
                    "midi": 66,
                    "time": 750.2833333333516,
                    "velocity": 0.6535433070866141,
                    "duration": 0.08541666666656056
                },
                {
                    "name": "G#3",
                    "midi": 56,
                    "time": 750.2854166666849,
                    "velocity": 0.47244094488188976,
                    "duration": 0.07499999999993179
                },
                {
                    "name": "D4",
                    "midi": 62,
                    "time": 750.3041666666849,
                    "velocity": 0.4094488188976378,
                    "duration": 0.04791666666665151
                },
                {
                    "name": "F#4",
                    "midi": 66,
                    "time": 750.4833333333515,
                    "velocity": 0.7086614173228346,
                    "duration": 0.06250000000011369
                },
                {
                    "name": "F#5",
                    "midi": 78,
                    "time": 750.4895833333516,
                    "velocity": 0.6377952755905512,
                    "duration": 0.3937499999999545
                },
                {
                    "name": "C#4",
                    "midi": 61,
                    "time": 750.4937500000183,
                    "velocity": 0.6535433070866141,
                    "duration": 0.058333333333393966
                },
                {
                    "name": "G3",
                    "midi": 55,
                    "time": 750.4937500000183,
                    "velocity": 0.4645669291338583,
                    "duration": 0.058333333333393966
                },
                {
                    "name": "C#4",
                    "midi": 61,
                    "time": 750.641666666685,
                    "velocity": 0.5984251968503937,
                    "duration": 0.0770833333332348
                },
                {
                    "name": "F#4",
                    "midi": 66,
                    "time": 750.641666666685,
                    "velocity": 0.6614173228346457,
                    "duration": 0.06666666666660603
                },
                {
                    "name": "G3",
                    "midi": 55,
                    "time": 750.6520833333516,
                    "velocity": 0.4409448818897638,
                    "duration": 0.07291666666662877
                },
                {
                    "name": "G5",
                    "midi": 79,
                    "time": 750.8291666666848,
                    "velocity": 0.6220472440944882,
                    "duration": 0.3895833333332348
                },
                {
                    "name": "F#4",
                    "midi": 66,
                    "time": 750.9708333333515,
                    "velocity": 0.4881889763779528,
                    "duration": 0.054166666666674246
                },
                {
                    "name": "C#4",
                    "midi": 61,
                    "time": 750.9708333333515,
                    "velocity": 0.5039370078740157,
                    "duration": 0.07083333333332575
                },
                {
                    "name": "G3",
                    "midi": 55,
                    "time": 750.9875000000181,
                    "velocity": 0.2283464566929134,
                    "duration": 0.07291666666662877
                },
                {
                    "name": "F#4",
                    "midi": 66,
                    "time": 751.1604166666848,
                    "velocity": 0.4251968503937008,
                    "duration": 0.11874999999997726
                },
                {
                    "name": "G3",
                    "midi": 55,
                    "time": 751.1687500000181,
                    "velocity": 0.3543307086614173,
                    "duration": 0.15208333333339397
                },
                {
                    "name": "C#4",
                    "midi": 61,
                    "time": 751.1687500000181,
                    "velocity": 0.5118110236220472,
                    "duration": 0.11666666666667425
                },
                {
                    "name": "A5",
                    "midi": 81,
                    "time": 751.1854166666848,
                    "velocity": 0.5354330708661418,
                    "duration": 0.3270833333334622
                },
                {
                    "name": "F#4",
                    "midi": 66,
                    "time": 751.5375000000182,
                    "velocity": 0.49606299212598426,
                    "duration": 0.07083333333332575
                },
                {
                    "name": "G3",
                    "midi": 55,
                    "time": 751.5395833333515,
                    "velocity": 0.28346456692913385,
                    "duration": 0.09166666666669698
                },
                {
                    "name": "C#4",
                    "midi": 61,
                    "time": 751.5437500000182,
                    "velocity": 0.49606299212598426,
                    "duration": 0.07083333333332575
                },
                {
                    "name": "A4",
                    "midi": 69,
                    "time": 751.5500000000183,
                    "velocity": 0.33070866141732286,
                    "duration": 0.7124999999999773
                },
                {
                    "name": "F#4",
                    "midi": 66,
                    "time": 751.7145833333516,
                    "velocity": 0.47244094488188976,
                    "duration": 0.07708333333334849
                },
                {
                    "name": "C#4",
                    "midi": 61,
                    "time": 751.7208333333516,
                    "velocity": 0.4015748031496063,
                    "duration": 0.08124999999995453
                },
                {
                    "name": "G3",
                    "midi": 55,
                    "time": 751.7291666666849,
                    "velocity": 0.2204724409448819,
                    "duration": 0.08749999999997726
                },
                {
                    "name": "G3",
                    "midi": 55,
                    "time": 752.0916666666849,
                    "velocity": 0.33070866141732286,
                    "duration": 0.2833333333334167
                },
                {
                    "name": "C#4",
                    "midi": 61,
                    "time": 752.0937500000182,
                    "velocity": 0.48031496062992124,
                    "duration": 0.08333333333337123
                },
                {
                    "name": "F#4",
                    "midi": 66,
                    "time": 752.0979166666849,
                    "velocity": 0.4409448818897638,
                    "duration": 0.06458333333330302
                },
                {
                    "name": "B4",
                    "midi": 71,
                    "time": 752.2541666666849,
                    "velocity": 0.4251968503937008,
                    "duration": 0.4541666666667652
                },
                {
                    "name": "F#4",
                    "midi": 66,
                    "time": 752.266666666685,
                    "velocity": 0.49606299212598426,
                    "duration": 0.08125000000006821
                },
                {
                    "name": "C#4",
                    "midi": 61,
                    "time": 752.272916666685,
                    "velocity": 0.3937007874015748,
                    "duration": 0.06875000000002274
                },
                {
                    "name": "C#5",
                    "midi": 73,
                    "time": 752.7000000000183,
                    "velocity": 0.5275590551181102,
                    "duration": 1.4812500000000455
                },
                {
                    "name": "C#4",
                    "midi": 61,
                    "time": 752.710416666685,
                    "velocity": 0.3858267716535433,
                    "duration": 0.07500000000004547
                },
                {
                    "name": "G3",
                    "midi": 55,
                    "time": 752.7145833333517,
                    "velocity": 0.25984251968503935,
                    "duration": 0.09375
                },
                {
                    "name": "F4",
                    "midi": 65,
                    "time": 752.7270833333517,
                    "velocity": 0.2125984251968504,
                    "duration": 0.0625
                },
                {
                    "name": "G3",
                    "midi": 55,
                    "time": 752.9333333333517,
                    "velocity": 0.2755905511811024,
                    "duration": 0.08541666666678793
                },
                {
                    "name": "F4",
                    "midi": 65,
                    "time": 752.9333333333517,
                    "velocity": 0.3779527559055118,
                    "duration": 0.07291666666674246
                },
                {
                    "name": "C#4",
                    "midi": 61,
                    "time": 752.935416666685,
                    "velocity": 0.4645669291338583,
                    "duration": 0.06666666666671972
                },
                {
                    "name": "C#4",
                    "midi": 61,
                    "time": 753.6937500000184,
                    "velocity": 0.23622047244094488,
                    "duration": 0.21875
                },
                {
                    "name": "G3",
                    "midi": 55,
                    "time": 753.6979166666852,
                    "velocity": 0.14960629921259844,
                    "duration": 0.25208333333318933
                },
                {
                    "name": "F4",
                    "midi": 65,
                    "time": 753.7145833333518,
                    "velocity": 0.2125984251968504,
                    "duration": 0.20833333333325754
                }
            ],
            "controlChanges": {
                "1": [
                    {
                        "number": 1,
                        "time": 1.4124999999999999,
                        "value": 0
                    }
                ],
                "6": [
                    {
                        "number": 6,
                        "time": 1.5208333333333333,
                        "value": 0.4881889763779528
                    },
                    {
                        "number": 6,
                        "time": 1.5333333333333332,
                        "value": 0.4251968503937008
                    },
                    {
                        "number": 6,
                        "time": 1.5458333333333332,
                        "value": 0.4881889763779528
                    },
                    {
                        "number": 6,
                        "time": 1.5583333333333331,
                        "value": 0.47244094488188976
                    },
                    {
                        "number": 6,
                        "time": 1.570833333333333,
                        "value": 0.5511811023622047
                    }
                ],
                "7": [
                    {
                        "number": 7,
                        "time": 0.8125,
                        "value": 0.7874015748031497
                    }
                ],
                "10": [
                    {
                        "number": 10,
                        "time": 1.2125,
                        "value": 0.5039370078740157
                    }
                ],
                "11": [
                    {
                        "number": 11,
                        "time": 1.0125,
                        "value": 1
                    }
                ],
                "32": [
                    {
                        "number": 32,
                        "time": 0.6041666666666667,
                        "value": 0.007874015748031496
                    }
                ],
                "64": [
                    {
                        "number": 64,
                        "time": 3.3687499999999995,
                        "value": 0.49606299212598426
                    },
                    {
                        "number": 64,
                        "time": 3.4374999999999996,
                        "value": 1
                    },
                    {
                        "number": 64,
                        "time": 9.647916666666664,
                        "value": 0.49606299212598426
                    },
                    {
                        "number": 64,
                        "time": 9.747916666666663,
                        "value": 0
                    },
                    {
                        "number": 64,
                        "time": 9.87083333333333,
                        "value": 0.49606299212598426
                    },
                    {
                        "number": 64,
                        "time": 9.97083333333333,
                        "value": 1
                    },
                    {
                        "number": 64,
                        "time": 10.099999999999996,
                        "value": 0.49606299212598426
                    },
                    {
                        "number": 64,
                        "time": 10.20833333333333,
                        "value": 1
                    },
                    {
                        "number": 64,
                        "time": 10.81458333333333,
                        "value": 0.49606299212598426
                    },
                    {
                        "number": 64,
                        "time": 10.82083333333333,
                        "value": 0
                    },
                    {
                        "number": 64,
                        "time": 10.956249999999994,
                        "value": 0.49606299212598426
                    },
                    {
                        "number": 64,
                        "time": 10.958333333333327,
                        "value": 1
                    },
                    {
                        "number": 64,
                        "time": 12.885416666666663,
                        "value": 0.49606299212598426
                    },
                    {
                        "number": 64,
                        "time": 12.902083333333328,
                        "value": 0
                    },
                    {
                        "number": 64,
                        "time": 13.060416666666661,
                        "value": 0.49606299212598426
                    },
                    {
                        "number": 64,
                        "time": 13.062499999999995,
                        "value": 1
                    },
                    {
                        "number": 64,
                        "time": 13.287499999999994,
                        "value": 0.49606299212598426
                    },
                    {
                        "number": 64,
                        "time": 13.29166666666666,
                        "value": 0
                    },
                    {
                        "number": 64,
                        "time": 13.439583333333328,
                        "value": 0.49606299212598426
                    },
                    {
                        "number": 64,
                        "time": 13.439583333333328,
                        "value": 1
                    },
                    {
                        "number": 64,
                        "time": 14.05416666666666,
                        "value": 0.49606299212598426
                    },
                    {
                        "number": 64,
                        "time": 14.064583333333326,
                        "value": 0
                    },
                    {
                        "number": 64,
                        "time": 14.145833333333325,
                        "value": 0.49606299212598426
                    },
                    {
                        "number": 64,
                        "time": 14.154166666666658,
                        "value": 1
                    },
                    {
                        "number": 64,
                        "time": 14.572916666666657,
                        "value": 0.49606299212598426
                    },
                    {
                        "number": 64,
                        "time": 14.579166666666657,
                        "value": 0
                    },
                    {
                        "number": 64,
                        "time": 14.697916666666657,
                        "value": 0.49606299212598426
                    },
                    {
                        "number": 64,
                        "time": 14.69999999999999,
                        "value": 1
                    },
                    {
                        "number": 64,
                        "time": 15.258333333333322,
                        "value": 0.49606299212598426
                    },
                    {
                        "number": 64,
                        "time": 15.268749999999988,
                        "value": 0
                    },
                    {
                        "number": 64,
                        "time": 15.381249999999987,
                        "value": 0.49606299212598426
                    },
                    {
                        "number": 64,
                        "time": 15.38958333333332,
                        "value": 1
                    },
                    {
                        "number": 64,
                        "time": 15.908333333333319,
                        "value": 0.49606299212598426
                    },
                    {
                        "number": 64,
                        "time": 15.916666666666652,
                        "value": 0
                    },
                    {
                        "number": 64,
                        "time": 16.10833333333332,
                        "value": 0.49606299212598426
                    },
                    {
                        "number": 64,
                        "time": 16.110416666666655,
                        "value": 1
                    },
                    {
                        "number": 64,
                        "time": 16.58541666666666,
                        "value": 0.49606299212598426
                    },
                    {
                        "number": 64,
                        "time": 16.59791666666666,
                        "value": 0
                    },
                    {
                        "number": 64,
                        "time": 16.712499999999995,
                        "value": 0.49606299212598426
                    },
                    {
                        "number": 64,
                        "time": 16.718749999999996,
                        "value": 1
                    },
                    {
                        "number": 64,
                        "time": 17.110416666666662,
                        "value": 0.49606299212598426
                    },
                    {
                        "number": 64,
                        "time": 17.116666666666664,
                        "value": 0
                    },
                    {
                        "number": 64,
                        "time": 17.193749999999994,
                        "value": 0.49606299212598426
                    },
                    {
                        "number": 64,
                        "time": 17.20208333333333,
                        "value": 1
                    },
                    {
                        "number": 64,
                        "time": 18.147916666666667,
                        "value": 0.49606299212598426
                    },
                    {
                        "number": 64,
                        "time": 18.15625,
                        "value": 0
                    },
                    {
                        "number": 64,
                        "time": 18.23125,
                        "value": 0.49606299212598426
                    },
                    {
                        "number": 64,
                        "time": 18.245833333333334,
                        "value": 1
                    },
                    {
                        "number": 64,
                        "time": 20.008333333333344,
                        "value": 0.49606299212598426
                    },
                    {
                        "number": 64,
                        "time": 20.020833333333343,
                        "value": 0
                    },
                    {
                        "number": 64,
                        "time": 21.53125000000001,
                        "value": 0.49606299212598426
                    },
                    {
                        "number": 64,
                        "time": 21.53541666666668,
                        "value": 1
                    },
                    {
                        "number": 64,
                        "time": 21.66041666666668,
                        "value": 0.49606299212598426
                    },
                    {
                        "number": 64,
                        "time": 21.67083333333335,
                        "value": 0
                    },
                    {
                        "number": 64,
                        "time": 21.95208333333335,
                        "value": 1
                    },
                    {
                        "number": 64,
                        "time": 22.481250000000014,
                        "value": 0.49606299212598426
                    },
                    {
                        "number": 64,
                        "time": 22.49166666666668,
                        "value": 0
                    },
                    {
                        "number": 64,
                        "time": 22.59791666666668,
                        "value": 0.49606299212598426
                    },
                    {
                        "number": 64,
                        "time": 22.60833333333335,
                        "value": 1
                    },
                    {
                        "number": 64,
                        "time": 22.802083333333353,
                        "value": 0.49606299212598426
                    },
                    {
                        "number": 64,
                        "time": 22.81250000000002,
                        "value": 0
                    },
                    {
                        "number": 64,
                        "time": 23.38958333333336,
                        "value": 0.49606299212598426
                    },
                    {
                        "number": 64,
                        "time": 23.391666666666694,
                        "value": 1
                    },
                    {
                        "number": 64,
                        "time": 24.000000000000032,
                        "value": 0.49606299212598426
                    },
                    {
                        "number": 64,
                        "time": 24.01250000000003,
                        "value": 0
                    },
                    {
                        "number": 64,
                        "time": 24.164583333333365,
                        "value": 0.49606299212598426
                    },
                    {
                        "number": 64,
                        "time": 24.170833333333366,
                        "value": 1
                    },
                    {
                        "number": 64,
                        "time": 24.4416666666667,
                        "value": 0.49606299212598426
                    },
                    {
                        "number": 64,
                        "time": 24.454166666666698,
                        "value": 0
                    },
                    {
                        "number": 64,
                        "time": 24.993750000000034,
                        "value": 0.49606299212598426
                    },
                    {
                        "number": 64,
                        "time": 24.99583333333337,
                        "value": 1
                    },
                    {
                        "number": 64,
                        "time": 27.102083333333372,
                        "value": 0.49606299212598426
                    },
                    {
                        "number": 64,
                        "time": 27.110416666666705,
                        "value": 0
                    },
                    {
                        "number": 64,
                        "time": 27.30208333333337,
                        "value": 0.49606299212598426
                    },
                    {
                        "number": 64,
                        "time": 27.33333333333337,
                        "value": 1
                    },
                    {
                        "number": 64,
                        "time": 27.70208333333337,
                        "value": 0.49606299212598426
                    },
                    {
                        "number": 64,
                        "time": 27.747916666666704,
                        "value": 0
                    },
                    {
                        "number": 64,
                        "time": 28.447916666666703,
                        "value": 0.49606299212598426
                    },
                    {
                        "number": 64,
                        "time": 28.45000000000004,
                        "value": 1
                    },
                    {
                        "number": 64,
                        "time": 28.96666666666671,
                        "value": 0.49606299212598426
                    },
                    {
                        "number": 64,
                        "time": 28.97916666666671,
                        "value": 0
                    },
                    {
                        "number": 64,
                        "time": 29.058333333333376,
                        "value": 0.49606299212598426
                    },
                    {
                        "number": 64,
                        "time": 29.075000000000042,
                        "value": 1
                    },
                    {
                        "number": 64,
                        "time": 29.281250000000046,
                        "value": 0.49606299212598426
                    },
                    {
                        "number": 64,
                        "time": 29.29583333333338,
                        "value": 0
                    },
                    {
                        "number": 64,
                        "time": 29.83125000000005,
                        "value": 1
                    },
                    {
                        "number": 64,
                        "time": 30.431250000000055,
                        "value": 0.49606299212598426
                    },
                    {
                        "number": 64,
                        "time": 30.450000000000056,
                        "value": 0
                    },
                    {
                        "number": 64,
                        "time": 30.522916666666724,
                        "value": 0.49606299212598426
                    },
                    {
                        "number": 64,
                        "time": 30.541666666666725,
                        "value": 1
                    },
                    {
                        "number": 64,
                        "time": 30.775000000000055,
                        "value": 0.49606299212598426
                    },
                    {
                        "number": 64,
                        "time": 30.78958333333339,
                        "value": 0
                    },
                    {
                        "number": 64,
                        "time": 31.154166666666725,
                        "value": 0.49606299212598426
                    },
                    {
                        "number": 64,
                        "time": 31.15625000000006,
                        "value": 1
                    },
                    {
                        "number": 64,
                        "time": 34.21041666666671,
                        "value": 0.49606299212598426
                    },
                    {
                        "number": 64,
                        "time": 34.252083333333374,
                        "value": 0
                    },
                    {
                        "number": 64,
                        "time": 34.82916666666671,
                        "value": 1
                    },
                    {
                        "number": 64,
                        "time": 35.2854166666667,
                        "value": 0.49606299212598426
                    },
                    {
                        "number": 64,
                        "time": 35.306250000000034,
                        "value": 0
                    },
                    {
                        "number": 64,
                        "time": 36.07083333333336,
                        "value": 0.49606299212598426
                    },
                    {
                        "number": 64,
                        "time": 36.07500000000003,
                        "value": 1
                    },
                    {
                        "number": 64,
                        "time": 36.7791666666667,
                        "value": 0.49606299212598426
                    },
                    {
                        "number": 64,
                        "time": 36.8104166666667,
                        "value": 0
                    },
                    {
                        "number": 64,
                        "time": 36.85000000000003,
                        "value": 0.49606299212598426
                    },
                    {
                        "number": 64,
                        "time": 36.88333333333336,
                        "value": 1
                    },
                    {
                        "number": 64,
                        "time": 37.31041666666669,
                        "value": 0.49606299212598426
                    },
                    {
                        "number": 64,
                        "time": 37.32500000000003,
                        "value": 0
                    },
                    {
                        "number": 64,
                        "time": 37.554166666666696,
                        "value": 0.49606299212598426
                    },
                    {
                        "number": 64,
                        "time": 37.558333333333366,
                        "value": 1
                    },
                    {
                        "number": 64,
                        "time": 43.081250000000054,
                        "value": 0.49606299212598426
                    },
                    {
                        "number": 64,
                        "time": 43.17291666666672,
                        "value": 1
                    },
                    {
                        "number": 64,
                        "time": 44.15416666666672,
                        "value": 0.49606299212598426
                    },
                    {
                        "number": 64,
                        "time": 44.175000000000054,
                        "value": 0
                    },
                    {
                        "number": 64,
                        "time": 44.75208333333338,
                        "value": 0.49606299212598426
                    },
                    {
                        "number": 64,
                        "time": 44.75208333333338,
                        "value": 1
                    },
                    {
                        "number": 64,
                        "time": 45.06666666666671,
                        "value": 0.49606299212598426
                    },
                    {
                        "number": 64,
                        "time": 45.07708333333338,
                        "value": 0
                    },
                    {
                        "number": 64,
                        "time": 45.34583333333338,
                        "value": 0.49606299212598426
                    },
                    {
                        "number": 64,
                        "time": 45.35208333333338,
                        "value": 1
                    },
                    {
                        "number": 64,
                        "time": 45.62500000000006,
                        "value": 0.49606299212598426
                    },
                    {
                        "number": 64,
                        "time": 45.62916666666673,
                        "value": 0
                    },
                    {
                        "number": 64,
                        "time": 46.33541666666673,
                        "value": 1
                    },
                    {
                        "number": 64,
                        "time": 46.54166666666673,
                        "value": 0.49606299212598426
                    },
                    {
                        "number": 64,
                        "time": 46.5458333333334,
                        "value": 0
                    },
                    {
                        "number": 64,
                        "time": 47.15000000000007,
                        "value": 0.49606299212598426
                    },
                    {
                        "number": 64,
                        "time": 47.15416666666674,
                        "value": 1
                    },
                    {
                        "number": 64,
                        "time": 47.33333333333341,
                        "value": 0.49606299212598426
                    },
                    {
                        "number": 64,
                        "time": 47.34375000000007,
                        "value": 0
                    },
                    {
                        "number": 64,
                        "time": 47.9645833333334,
                        "value": 0.49606299212598426
                    },
                    {
                        "number": 64,
                        "time": 47.96666666666673,
                        "value": 1
                    },
                    {
                        "number": 64,
                        "time": 48.229166666666735,
                        "value": 0.49606299212598426
                    },
                    {
                        "number": 64,
                        "time": 48.2395833333334,
                        "value": 0
                    },
                    {
                        "number": 64,
                        "time": 48.4958333333334,
                        "value": 0.49606299212598426
                    },
                    {
                        "number": 64,
                        "time": 48.49791666666673,
                        "value": 1
                    },
                    {
                        "number": 64,
                        "time": 49.02916666666673,
                        "value": 0.49606299212598426
                    },
                    {
                        "number": 64,
                        "time": 49.041666666666735,
                        "value": 0
                    },
                    {
                        "number": 64,
                        "time": 49.17916666666674,
                        "value": 0.49606299212598426
                    },
                    {
                        "number": 64,
                        "time": 49.19375000000007,
                        "value": 1
                    },
                    {
                        "number": 64,
                        "time": 49.581250000000075,
                        "value": 0.49606299212598426
                    },
                    {
                        "number": 64,
                        "time": 49.59375000000007,
                        "value": 0
                    },
                    {
                        "number": 64,
                        "time": 50.18125000000008,
                        "value": 0.49606299212598426
                    },
                    {
                        "number": 64,
                        "time": 50.18958333333341,
                        "value": 1
                    },
                    {
                        "number": 64,
                        "time": 50.44791666666674,
                        "value": 0.49606299212598426
                    },
                    {
                        "number": 64,
                        "time": 50.46250000000008,
                        "value": 0
                    },
                    {
                        "number": 64,
                        "time": 50.93125000000007,
                        "value": 0.49606299212598426
                    },
                    {
                        "number": 64,
                        "time": 50.93750000000007,
                        "value": 1
                    },
                    {
                        "number": 64,
                        "time": 51.44375000000007,
                        "value": 0.49606299212598426
                    },
                    {
                        "number": 64,
                        "time": 51.47291666666674,
                        "value": 0
                    },
                    {
                        "number": 64,
                        "time": 51.858333333333405,
                        "value": 0.49606299212598426
                    },
                    {
                        "number": 64,
                        "time": 51.87916666666674,
                        "value": 1
                    },
                    {
                        "number": 64,
                        "time": 53.02083333333341,
                        "value": 0.49606299212598426
                    },
                    {
                        "number": 64,
                        "time": 53.13541666666674,
                        "value": 1
                    },
                    {
                        "number": 64,
                        "time": 53.38541666666674,
                        "value": 0.49606299212598426
                    },
                    {
                        "number": 64,
                        "time": 53.40625000000008,
                        "value": 0
                    },
                    {
                        "number": 64,
                        "time": 54.20416666666674,
                        "value": 0.49606299212598426
                    },
                    {
                        "number": 64,
                        "time": 54.21041666666674,
                        "value": 1
                    },
                    {
                        "number": 64,
                        "time": 57.272916666666745,
                        "value": 0.49606299212598426
                    },
                    {
                        "number": 64,
                        "time": 57.27916666666675,
                        "value": 0
                    },
                    {
                        "number": 64,
                        "time": 57.86666666666675,
                        "value": 1
                    },
                    {
                        "number": 64,
                        "time": 59.558333333333415,
                        "value": 0.49606299212598426
                    },
                    {
                        "number": 64,
                        "time": 59.56875000000008,
                        "value": 0
                    },
                    {
                        "number": 64,
                        "time": 59.71041666666674,
                        "value": 0.49606299212598426
                    },
                    {
                        "number": 64,
                        "time": 59.71666666666674,
                        "value": 1
                    },
                    {
                        "number": 64,
                        "time": 60.218750000000064,
                        "value": 0.49606299212598426
                    },
                    {
                        "number": 64,
                        "time": 60.23125000000007,
                        "value": 0
                    },
                    {
                        "number": 64,
                        "time": 61.997916666666725,
                        "value": 0.49606299212598426
                    },
                    {
                        "number": 64,
                        "time": 62.002083333333395,
                        "value": 1
                    },
                    {
                        "number": 64,
                        "time": 62.69791666666673,
                        "value": 0.49606299212598426
                    },
                    {
                        "number": 64,
                        "time": 62.716666666666725,
                        "value": 0
                    },
                    {
                        "number": 64,
                        "time": 62.79166666666673,
                        "value": 0.49606299212598426
                    },
                    {
                        "number": 64,
                        "time": 62.808333333333394,
                        "value": 1
                    },
                    {
                        "number": 64,
                        "time": 62.993750000000055,
                        "value": 0.49606299212598426
                    },
                    {
                        "number": 64,
                        "time": 63.00625000000006,
                        "value": 0
                    },
                    {
                        "number": 64,
                        "time": 63.16250000000006,
                        "value": 0.49606299212598426
                    },
                    {
                        "number": 64,
                        "time": 63.16875000000006,
                        "value": 1
                    },
                    {
                        "number": 64,
                        "time": 63.35833333333339,
                        "value": 0.49606299212598426
                    },
                    {
                        "number": 64,
                        "time": 63.368750000000055,
                        "value": 0
                    },
                    {
                        "number": 64,
                        "time": 63.52708333333339,
                        "value": 0.49606299212598426
                    },
                    {
                        "number": 64,
                        "time": 63.53333333333339,
                        "value": 1
                    },
                    {
                        "number": 64,
                        "time": 64.07083333333341,
                        "value": 0.49606299212598426
                    },
                    {
                        "number": 64,
                        "time": 64.08333333333341,
                        "value": 0
                    },
                    {
                        "number": 64,
                        "time": 64.20625000000008,
                        "value": 0.49606299212598426
                    },
                    {
                        "number": 64,
                        "time": 64.22083333333342,
                        "value": 1
                    },
                    {
                        "number": 64,
                        "time": 64.95208333333342,
                        "value": 0.49606299212598426
                    },
                    {
                        "number": 64,
                        "time": 64.98333333333342,
                        "value": 0
                    },
                    {
                        "number": 64,
                        "time": 65.19166666666675,
                        "value": 0.49606299212598426
                    },
                    {
                        "number": 64,
                        "time": 65.21666666666675,
                        "value": 1
                    },
                    {
                        "number": 64,
                        "time": 65.62083333333342,
                        "value": 0.49606299212598426
                    },
                    {
                        "number": 64,
                        "time": 65.64583333333343,
                        "value": 0
                    },
                    {
                        "number": 64,
                        "time": 65.81041666666677,
                        "value": 0.49606299212598426
                    },
                    {
                        "number": 64,
                        "time": 65.82916666666677,
                        "value": 1
                    },
                    {
                        "number": 64,
                        "time": 66.07291666666677,
                        "value": 0.49606299212598426
                    },
                    {
                        "number": 64,
                        "time": 66.09791666666676,
                        "value": 0
                    },
                    {
                        "number": 64,
                        "time": 66.38958333333343,
                        "value": 0.49606299212598426
                    },
                    {
                        "number": 64,
                        "time": 66.40416666666677,
                        "value": 1
                    },
                    {
                        "number": 64,
                        "time": 66.6937500000001,
                        "value": 0.49606299212598426
                    },
                    {
                        "number": 64,
                        "time": 66.71458333333342,
                        "value": 0
                    },
                    {
                        "number": 64,
                        "time": 66.82916666666675,
                        "value": 0.49606299212598426
                    },
                    {
                        "number": 64,
                        "time": 66.84791666666675,
                        "value": 1
                    },
                    {
                        "number": 64,
                        "time": 68.19166666666675,
                        "value": 0.49606299212598426
                    },
                    {
                        "number": 64,
                        "time": 68.24375000000008,
                        "value": 0
                    },
                    {
                        "number": 64,
                        "time": 68.30208333333341,
                        "value": 0.49606299212598426
                    },
                    {
                        "number": 64,
                        "time": 68.36041666666675,
                        "value": 1
                    },
                    {
                        "number": 64,
                        "time": 68.88750000000009,
                        "value": 0.49606299212598426
                    },
                    {
                        "number": 64,
                        "time": 68.92916666666676,
                        "value": 0
                    },
                    {
                        "number": 64,
                        "time": 68.98541666666677,
                        "value": 0.49606299212598426
                    },
                    {
                        "number": 64,
                        "time": 69.0250000000001,
                        "value": 1
                    },
                    {
                        "number": 64,
                        "time": 69.55000000000011,
                        "value": 0.49606299212598426
                    },
                    {
                        "number": 64,
                        "time": 69.57916666666678,
                        "value": 0
                    },
                    {
                        "number": 64,
                        "time": 69.70208333333345,
                        "value": 0.49606299212598426
                    },
                    {
                        "number": 64,
                        "time": 69.72500000000011,
                        "value": 1
                    },
                    {
                        "number": 64,
                        "time": 70.1187500000001,
                        "value": 0.49606299212598426
                    },
                    {
                        "number": 64,
                        "time": 70.1500000000001,
                        "value": 0
                    },
                    {
                        "number": 64,
                        "time": 70.24166666666677,
                        "value": 0.49606299212598426
                    },
                    {
                        "number": 64,
                        "time": 70.26875000000011,
                        "value": 1
                    },
                    {
                        "number": 64,
                        "time": 70.6687500000001,
                        "value": 0.49606299212598426
                    },
                    {
                        "number": 64,
                        "time": 70.68333333333344,
                        "value": 0
                    },
                    {
                        "number": 64,
                        "time": 70.82708333333342,
                        "value": 0.49606299212598426
                    },
                    {
                        "number": 64,
                        "time": 70.84166666666675,
                        "value": 1
                    },
                    {
                        "number": 64,
                        "time": 71.12708333333342,
                        "value": 0.49606299212598426
                    },
                    {
                        "number": 64,
                        "time": 71.13541666666676,
                        "value": 0
                    },
                    {
                        "number": 64,
                        "time": 71.26458333333342,
                        "value": 0.49606299212598426
                    },
                    {
                        "number": 64,
                        "time": 71.27083333333341,
                        "value": 1
                    },
                    {
                        "number": 64,
                        "time": 71.91666666666676,
                        "value": 0.49606299212598426
                    },
                    {
                        "number": 64,
                        "time": 71.92708333333343,
                        "value": 0
                    },
                    {
                        "number": 64,
                        "time": 72.08541666666675,
                        "value": 0.49606299212598426
                    },
                    {
                        "number": 64,
                        "time": 72.09583333333342,
                        "value": 1
                    },
                    {
                        "number": 64,
                        "time": 72.37291666666675,
                        "value": 0.49606299212598426
                    },
                    {
                        "number": 64,
                        "time": 72.3812500000001,
                        "value": 0
                    },
                    {
                        "number": 64,
                        "time": 72.56666666666676,
                        "value": 0.49606299212598426
                    },
                    {
                        "number": 64,
                        "time": 72.5687500000001,
                        "value": 1
                    },
                    {
                        "number": 64,
                        "time": 73.13958333333342,
                        "value": 0.49606299212598426
                    },
                    {
                        "number": 64,
                        "time": 73.14583333333341,
                        "value": 0
                    },
                    {
                        "number": 64,
                        "time": 73.24166666666673,
                        "value": 0.49606299212598426
                    },
                    {
                        "number": 64,
                        "time": 73.2458333333334,
                        "value": 1
                    },
                    {
                        "number": 64,
                        "time": 73.74375000000005,
                        "value": 0.49606299212598426
                    },
                    {
                        "number": 64,
                        "time": 73.75208333333339,
                        "value": 0
                    },
                    {
                        "number": 64,
                        "time": 73.98333333333339,
                        "value": 1
                    },
                    {
                        "number": 64,
                        "time": 74.37916666666672,
                        "value": 0.49606299212598426
                    },
                    {
                        "number": 64,
                        "time": 74.38333333333338,
                        "value": 0
                    },
                    {
                        "number": 64,
                        "time": 74.44375000000005,
                        "value": 0.49606299212598426
                    },
                    {
                        "number": 64,
                        "time": 74.45000000000005,
                        "value": 1
                    },
                    {
                        "number": 64,
                        "time": 75.3104166666667,
                        "value": 0.49606299212598426
                    },
                    {
                        "number": 64,
                        "time": 75.32083333333337,
                        "value": 0
                    },
                    {
                        "number": 64,
                        "time": 75.3729166666667,
                        "value": 0.49606299212598426
                    },
                    {
                        "number": 64,
                        "time": 75.38958333333336,
                        "value": 1
                    },
                    {
                        "number": 64,
                        "time": 75.62916666666669,
                        "value": 0.49606299212598426
                    },
                    {
                        "number": 64,
                        "time": 75.63958333333336,
                        "value": 0
                    },
                    {
                        "number": 64,
                        "time": 75.6854166666667,
                        "value": 0.49606299212598426
                    },
                    {
                        "number": 64,
                        "time": 75.70000000000003,
                        "value": 1
                    },
                    {
                        "number": 64,
                        "time": 76.58333333333333,
                        "value": 0.49606299212598426
                    },
                    {
                        "number": 64,
                        "time": 76.61666666666666,
                        "value": 1
                    },
                    {
                        "number": 64,
                        "time": 76.74375,
                        "value": 0.49606299212598426
                    },
                    {
                        "number": 64,
                        "time": 76.75625000000001,
                        "value": 0
                    },
                    {
                        "number": 64,
                        "time": 76.88749999999999,
                        "value": 0.49606299212598426
                    },
                    {
                        "number": 64,
                        "time": 76.92291666666665,
                        "value": 0
                    },
                    {
                        "number": 64,
                        "time": 77.48958333333331,
                        "value": 1
                    },
                    {
                        "number": 64,
                        "time": 78.0520833333333,
                        "value": 0.49606299212598426
                    },
                    {
                        "number": 64,
                        "time": 78.06249999999997,
                        "value": 0
                    },
                    {
                        "number": 64,
                        "time": 78.12291666666661,
                        "value": 0.49606299212598426
                    },
                    {
                        "number": 64,
                        "time": 78.13541666666661,
                        "value": 1
                    },
                    {
                        "number": 64,
                        "time": 78.31874999999995,
                        "value": 0.49606299212598426
                    },
                    {
                        "number": 64,
                        "time": 78.32499999999995,
                        "value": 0
                    },
                    {
                        "number": 64,
                        "time": 78.40416666666661,
                        "value": 0.49606299212598426
                    },
                    {
                        "number": 64,
                        "time": 78.41249999999995,
                        "value": 1
                    },
                    {
                        "number": 64,
                        "time": 78.75833333333327,
                        "value": 0.49606299212598426
                    },
                    {
                        "number": 64,
                        "time": 78.77291666666659,
                        "value": 0
                    },
                    {
                        "number": 64,
                        "time": 78.93958333333326,
                        "value": 0.49606299212598426
                    },
                    {
                        "number": 64,
                        "time": 78.94583333333325,
                        "value": 1
                    },
                    {
                        "number": 64,
                        "time": 79.77291666666655,
                        "value": 0.49606299212598426
                    },
                    {
                        "number": 64,
                        "time": 79.79374999999986,
                        "value": 0
                    },
                    {
                        "number": 64,
                        "time": 79.81041666666653,
                        "value": 0.49606299212598426
                    },
                    {
                        "number": 64,
                        "time": 79.83541666666653,
                        "value": 1
                    },
                    {
                        "number": 64,
                        "time": 80.24999999999983,
                        "value": 0.49606299212598426
                    },
                    {
                        "number": 64,
                        "time": 80.26249999999983,
                        "value": 0
                    },
                    {
                        "number": 64,
                        "time": 80.53124999999983,
                        "value": 0.49606299212598426
                    },
                    {
                        "number": 64,
                        "time": 80.53749999999982,
                        "value": 1
                    },
                    {
                        "number": 64,
                        "time": 80.9666666666665,
                        "value": 0.49606299212598426
                    },
                    {
                        "number": 64,
                        "time": 80.9791666666665,
                        "value": 0
                    },
                    {
                        "number": 64,
                        "time": 81.08958333333317,
                        "value": 0.49606299212598426
                    },
                    {
                        "number": 64,
                        "time": 81.10624999999983,
                        "value": 1
                    },
                    {
                        "number": 64,
                        "time": 81.5166666666665,
                        "value": 0.49606299212598426
                    },
                    {
                        "number": 64,
                        "time": 81.53124999999983,
                        "value": 0
                    },
                    {
                        "number": 64,
                        "time": 81.8416666666665,
                        "value": 0.49606299212598426
                    },
                    {
                        "number": 64,
                        "time": 81.8541666666665,
                        "value": 1
                    },
                    {
                        "number": 64,
                        "time": 82.74583333333317,
                        "value": 0.49606299212598426
                    },
                    {
                        "number": 64,
                        "time": 82.7604166666665,
                        "value": 0
                    },
                    {
                        "number": 64,
                        "time": 83.2666666666665,
                        "value": 0.49606299212598426
                    },
                    {
                        "number": 64,
                        "time": 83.26874999999983,
                        "value": 1
                    },
                    {
                        "number": 64,
                        "time": 83.56458333333316,
                        "value": 0.49606299212598426
                    },
                    {
                        "number": 64,
                        "time": 83.58333333333316,
                        "value": 0
                    },
                    {
                        "number": 64,
                        "time": 83.66249999999982,
                        "value": 0.49606299212598426
                    },
                    {
                        "number": 64,
                        "time": 83.67708333333316,
                        "value": 1
                    },
                    {
                        "number": 64,
                        "time": 84.64791666666648,
                        "value": 0.49606299212598426
                    },
                    {
                        "number": 64,
                        "time": 84.66666666666647,
                        "value": 0
                    },
                    {
                        "number": 64,
                        "time": 84.74791666666648,
                        "value": 0.49606299212598426
                    },
                    {
                        "number": 64,
                        "time": 84.76874999999981,
                        "value": 1
                    },
                    {
                        "number": 64,
                        "time": 85.21458333333314,
                        "value": 0.49606299212598426
                    },
                    {
                        "number": 64,
                        "time": 85.2374999999998,
                        "value": 0
                    },
                    {
                        "number": 64,
                        "time": 85.32916666666647,
                        "value": 0.49606299212598426
                    },
                    {
                        "number": 64,
                        "time": 85.34583333333313,
                        "value": 1
                    },
                    {
                        "number": 64,
                        "time": 85.61249999999981,
                        "value": 0.49606299212598426
                    },
                    {
                        "number": 64,
                        "time": 85.63958333333315,
                        "value": 0
                    },
                    {
                        "number": 64,
                        "time": 85.71458333333314,
                        "value": 0.49606299212598426
                    },
                    {
                        "number": 64,
                        "time": 85.7374999999998,
                        "value": 1
                    },
                    {
                        "number": 64,
                        "time": 86.25833333333314,
                        "value": 0.49606299212598426
                    },
                    {
                        "number": 64,
                        "time": 86.26874999999981,
                        "value": 0
                    },
                    {
                        "number": 64,
                        "time": 86.49791666666648,
                        "value": 0.49606299212598426
                    },
                    {
                        "number": 64,
                        "time": 86.50624999999982,
                        "value": 1
                    },
                    {
                        "number": 64,
                        "time": 86.65416666666648,
                        "value": 0.49606299212598426
                    },
                    {
                        "number": 64,
                        "time": 86.66041666666648,
                        "value": 0
                    },
                    {
                        "number": 64,
                        "time": 86.81874999999982,
                        "value": 0.49606299212598426
                    },
                    {
                        "number": 64,
                        "time": 86.82499999999982,
                        "value": 1
                    },
                    {
                        "number": 64,
                        "time": 87.15833333333315,
                        "value": 0.49606299212598426
                    },
                    {
                        "number": 64,
                        "time": 87.16458333333314,
                        "value": 0
                    },
                    {
                        "number": 64,
                        "time": 87.25208333333315,
                        "value": 0.49606299212598426
                    },
                    {
                        "number": 64,
                        "time": 87.26041666666647,
                        "value": 1
                    },
                    {
                        "number": 64,
                        "time": 87.6999999999998,
                        "value": 0.49606299212598426
                    },
                    {
                        "number": 64,
                        "time": 87.7124999999998,
                        "value": 0
                    },
                    {
                        "number": 64,
                        "time": 88.00624999999981,
                        "value": 0.49606299212598426
                    },
                    {
                        "number": 64,
                        "time": 88.0249999999998,
                        "value": 1
                    },
                    {
                        "number": 64,
                        "time": 88.40208333333314,
                        "value": 0.49606299212598426
                    },
                    {
                        "number": 64,
                        "time": 88.4312499999998,
                        "value": 0
                    },
                    {
                        "number": 64,
                        "time": 88.49583333333314,
                        "value": 0.49606299212598426
                    },
                    {
                        "number": 64,
                        "time": 88.52291666666648,
                        "value": 1
                    },
                    {
                        "number": 64,
                        "time": 89.01041666666647,
                        "value": 0.49606299212598426
                    },
                    {
                        "number": 64,
                        "time": 89.06041666666647,
                        "value": 1
                    },
                    {
                        "number": 64,
                        "time": 89.4187499999998,
                        "value": 0.49606299212598426
                    },
                    {
                        "number": 64,
                        "time": 89.52708333333315,
                        "value": 1
                    },
                    {
                        "number": 64,
                        "time": 89.8979166666665,
                        "value": 0.49606299212598426
                    },
                    {
                        "number": 64,
                        "time": 89.92499999999984,
                        "value": 0
                    },
                    {
                        "number": 64,
                        "time": 89.98749999999984,
                        "value": 0.49606299212598426
                    },
                    {
                        "number": 64,
                        "time": 90.01458333333318,
                        "value": 1
                    },
                    {
                        "number": 64,
                        "time": 90.39166666666652,
                        "value": 0.49606299212598426
                    },
                    {
                        "number": 64,
                        "time": 90.41458333333318,
                        "value": 0
                    },
                    {
                        "number": 64,
                        "time": 90.52916666666651,
                        "value": 0.49606299212598426
                    },
                    {
                        "number": 64,
                        "time": 90.54791666666651,
                        "value": 1
                    },
                    {
                        "number": 64,
                        "time": 91.13541666666649,
                        "value": 0.49606299212598426
                    },
                    {
                        "number": 64,
                        "time": 91.15416666666648,
                        "value": 0
                    },
                    {
                        "number": 64,
                        "time": 91.58124999999983,
                        "value": 0.49606299212598426
                    },
                    {
                        "number": 64,
                        "time": 91.58541666666649,
                        "value": 1
                    },
                    {
                        "number": 64,
                        "time": 92.8854166666665,
                        "value": 0.49606299212598426
                    },
                    {
                        "number": 64,
                        "time": 92.9041666666665,
                        "value": 0
                    },
                    {
                        "number": 64,
                        "time": 93.13958333333316,
                        "value": 0.49606299212598426
                    },
                    {
                        "number": 64,
                        "time": 93.14374999999983,
                        "value": 1
                    },
                    {
                        "number": 64,
                        "time": 95.40208333333317,
                        "value": 0.49606299212598426
                    },
                    {
                        "number": 64,
                        "time": 95.58124999999983,
                        "value": 1
                    },
                    {
                        "number": 64,
                        "time": 96.35208333333317,
                        "value": 0.49606299212598426
                    },
                    {
                        "number": 64,
                        "time": 96.43749999999983,
                        "value": 0
                    },
                    {
                        "number": 64,
                        "time": 96.5166666666665,
                        "value": 0.49606299212598426
                    },
                    {
                        "number": 64,
                        "time": 96.57083333333316,
                        "value": 1
                    },
                    {
                        "number": 64,
                        "time": 96.84374999999983,
                        "value": 0.49606299212598426
                    },
                    {
                        "number": 64,
                        "time": 96.85624999999983,
                        "value": 0
                    },
                    {
                        "number": 64,
                        "time": 97.02708333333317,
                        "value": 0.49606299212598426
                    },
                    {
                        "number": 64,
                        "time": 97.03333333333316,
                        "value": 1
                    },
                    {
                        "number": 64,
                        "time": 99.16249999999982,
                        "value": 0.49606299212598426
                    },
                    {
                        "number": 64,
                        "time": 99.19583333333316,
                        "value": 1
                    },
                    {
                        "number": 64,
                        "time": 99.89583333333316,
                        "value": 0.49606299212598426
                    },
                    {
                        "number": 64,
                        "time": 99.98124999999982,
                        "value": 1
                    },
                    {
                        "number": 64,
                        "time": 100.25624999999982,
                        "value": 0.49606299212598426
                    },
                    {
                        "number": 64,
                        "time": 100.35416666666649,
                        "value": 1
                    },
                    {
                        "number": 64,
                        "time": 100.63124999999981,
                        "value": 0.49606299212598426
                    },
                    {
                        "number": 64,
                        "time": 100.75624999999981,
                        "value": 1
                    },
                    {
                        "number": 64,
                        "time": 101.23124999999982,
                        "value": 0.49606299212598426
                    },
                    {
                        "number": 64,
                        "time": 101.34166666666648,
                        "value": 1
                    },
                    {
                        "number": 64,
                        "time": 103.12083333333314,
                        "value": 0.49606299212598426
                    },
                    {
                        "number": 64,
                        "time": 103.14791666666648,
                        "value": 0
                    },
                    {
                        "number": 64,
                        "time": 103.4124999999998,
                        "value": 0.49606299212598426
                    },
                    {
                        "number": 64,
                        "time": 103.42083333333314,
                        "value": 1
                    },
                    {
                        "number": 64,
                        "time": 103.56041666666647,
                        "value": 0.49606299212598426
                    },
                    {
                        "number": 64,
                        "time": 103.56666666666646,
                        "value": 0
                    },
                    {
                        "number": 64,
                        "time": 103.93124999999979,
                        "value": 1
                    },
                    {
                        "number": 64,
                        "time": 104.2874999999998,
                        "value": 0.49606299212598426
                    },
                    {
                        "number": 64,
                        "time": 104.29374999999979,
                        "value": 0
                    },
                    {
                        "number": 64,
                        "time": 104.37708333333312,
                        "value": 0.49606299212598426
                    },
                    {
                        "number": 64,
                        "time": 104.38749999999979,
                        "value": 1
                    },
                    {
                        "number": 64,
                        "time": 104.6208333333331,
                        "value": 0.49606299212598426
                    },
                    {
                        "number": 64,
                        "time": 104.62291666666643,
                        "value": 0
                    },
                    {
                        "number": 64,
                        "time": 104.72083333333309,
                        "value": 0.49606299212598426
                    },
                    {
                        "number": 64,
                        "time": 104.72708333333308,
                        "value": 1
                    },
                    {
                        "number": 64,
                        "time": 105.3270833333331,
                        "value": 0.49606299212598426
                    },
                    {
                        "number": 64,
                        "time": 105.33749999999978,
                        "value": 0
                    },
                    {
                        "number": 64,
                        "time": 105.69999999999978,
                        "value": 1
                    },
                    {
                        "number": 64,
                        "time": 105.69999999999978,
                        "value": 0.49606299212598426
                    },
                    {
                        "number": 64,
                        "time": 105.78749999999977,
                        "value": 0
                    },
                    {
                        "number": 64,
                        "time": 105.91249999999978,
                        "value": 0.49606299212598426
                    },
                    {
                        "number": 64,
                        "time": 105.91874999999978,
                        "value": 1
                    },
                    {
                        "number": 64,
                        "time": 105.99166666666643,
                        "value": 0.49606299212598426
                    },
                    {
                        "number": 64,
                        "time": 105.99999999999977,
                        "value": 0
                    },
                    {
                        "number": 64,
                        "time": 106.28333333333309,
                        "value": 1
                    },
                    {
                        "number": 64,
                        "time": 107.4041666666664,
                        "value": 0.49606299212598426
                    },
                    {
                        "number": 64,
                        "time": 107.41458333333307,
                        "value": 0
                    },
                    {
                        "number": 64,
                        "time": 108.00833333333308,
                        "value": 1
                    },
                    {
                        "number": 64,
                        "time": 108.34374999999974,
                        "value": 0.49606299212598426
                    },
                    {
                        "number": 64,
                        "time": 108.3479166666664,
                        "value": 0
                    },
                    {
                        "number": 64,
                        "time": 108.4291666666664,
                        "value": 0.49606299212598426
                    },
                    {
                        "number": 64,
                        "time": 108.43958333333308,
                        "value": 1
                    },
                    {
                        "number": 64,
                        "time": 108.6104166666664,
                        "value": 0.49606299212598426
                    },
                    {
                        "number": 64,
                        "time": 108.61458333333306,
                        "value": 0
                    },
                    {
                        "number": 64,
                        "time": 108.75208333333306,
                        "value": 0.49606299212598426
                    },
                    {
                        "number": 64,
                        "time": 108.75416666666639,
                        "value": 1
                    },
                    {
                        "number": 64,
                        "time": 109.57499999999975,
                        "value": 0.49606299212598426
                    },
                    {
                        "number": 64,
                        "time": 109.57708333333308,
                        "value": 0
                    },
                    {
                        "number": 64,
                        "time": 109.72708333333308,
                        "value": 0.49606299212598426
                    },
                    {
                        "number": 64,
                        "time": 109.73124999999975,
                        "value": 1
                    },
                    {
                        "number": 64,
                        "time": 111.15416666666641,
                        "value": 0.49606299212598426
                    },
                    {
                        "number": 64,
                        "time": 111.1604166666664,
                        "value": 0
                    },
                    {
                        "number": 64,
                        "time": 111.2604166666664,
                        "value": 0.49606299212598426
                    },
                    {
                        "number": 64,
                        "time": 111.27083333333307,
                        "value": 1
                    },
                    {
                        "number": 64,
                        "time": 111.91458333333307,
                        "value": 0.49606299212598426
                    },
                    {
                        "number": 64,
                        "time": 111.9291666666664,
                        "value": 0
                    },
                    {
                        "number": 64,
                        "time": 112.09166666666638,
                        "value": 0.49606299212598426
                    },
                    {
                        "number": 64,
                        "time": 112.09999999999972,
                        "value": 1
                    },
                    {
                        "number": 64,
                        "time": 112.36249999999973,
                        "value": 0.49606299212598426
                    },
                    {
                        "number": 64,
                        "time": 112.36666666666639,
                        "value": 0
                    },
                    {
                        "number": 64,
                        "time": 112.51458333333306,
                        "value": 1
                    },
                    {
                        "number": 64,
                        "time": 114.32499999999969,
                        "value": 0.49606299212598426
                    },
                    {
                        "number": 64,
                        "time": 114.32916666666635,
                        "value": 0
                    },
                    {
                        "number": 64,
                        "time": 114.42916666666635,
                        "value": 0.49606299212598426
                    },
                    {
                        "number": 64,
                        "time": 114.43958333333302,
                        "value": 1
                    },
                    {
                        "number": 64,
                        "time": 114.56874999999968,
                        "value": 0.49606299212598426
                    },
                    {
                        "number": 64,
                        "time": 114.58124999999968,
                        "value": 0
                    },
                    {
                        "number": 64,
                        "time": 114.77916666666636,
                        "value": 0.49606299212598426
                    },
                    {
                        "number": 64,
                        "time": 114.78333333333302,
                        "value": 1
                    },
                    {
                        "number": 64,
                        "time": 115.02291666666636,
                        "value": 0.49606299212598426
                    },
                    {
                        "number": 64,
                        "time": 115.0249999999997,
                        "value": 0
                    },
                    {
                        "number": 64,
                        "time": 115.18333333333302,
                        "value": 1
                    },
                    {
                        "number": 64,
                        "time": 116.54791666666635,
                        "value": 0.49606299212598426
                    },
                    {
                        "number": 64,
                        "time": 116.56041666666634,
                        "value": 0
                    },
                    {
                        "number": 64,
                        "time": 116.65208333333301,
                        "value": 0.49606299212598426
                    },
                    {
                        "number": 64,
                        "time": 116.66249999999968,
                        "value": 1
                    },
                    {
                        "number": 64,
                        "time": 116.802083333333,
                        "value": 0.49606299212598426
                    },
                    {
                        "number": 64,
                        "time": 116.84374999999967,
                        "value": 1
                    },
                    {
                        "number": 64,
                        "time": 117.09999999999967,
                        "value": 0.49606299212598426
                    },
                    {
                        "number": 64,
                        "time": 117.114583333333,
                        "value": 0
                    },
                    {
                        "number": 64,
                        "time": 117.30416666666633,
                        "value": 0.49606299212598426
                    },
                    {
                        "number": 64,
                        "time": 117.31874999999967,
                        "value": 1
                    },
                    {
                        "number": 64,
                        "time": 117.51666666666632,
                        "value": 0.49606299212598426
                    },
                    {
                        "number": 64,
                        "time": 117.56666666666634,
                        "value": 1
                    },
                    {
                        "number": 64,
                        "time": 118.19166666666635,
                        "value": 0.49606299212598426
                    },
                    {
                        "number": 64,
                        "time": 118.21874999999969,
                        "value": 0
                    },
                    {
                        "number": 64,
                        "time": 118.34583333333303,
                        "value": 0.49606299212598426
                    },
                    {
                        "number": 64,
                        "time": 118.3624999999997,
                        "value": 1
                    },
                    {
                        "number": 64,
                        "time": 118.96249999999968,
                        "value": 0.49606299212598426
                    },
                    {
                        "number": 64,
                        "time": 118.97708333333301,
                        "value": 0
                    },
                    {
                        "number": 64,
                        "time": 119.13124999999967,
                        "value": 0.49606299212598426
                    },
                    {
                        "number": 64,
                        "time": 119.14999999999966,
                        "value": 1
                    },
                    {
                        "number": 64,
                        "time": 119.41041666666632,
                        "value": 0.49606299212598426
                    },
                    {
                        "number": 64,
                        "time": 119.42708333333299,
                        "value": 0
                    },
                    {
                        "number": 64,
                        "time": 119.64374999999964,
                        "value": 0.49606299212598426
                    },
                    {
                        "number": 64,
                        "time": 119.65208333333298,
                        "value": 1
                    },
                    {
                        "number": 64,
                        "time": 119.833333333333,
                        "value": 0.49606299212598426
                    },
                    {
                        "number": 64,
                        "time": 119.84374999999967,
                        "value": 0
                    },
                    {
                        "number": 64,
                        "time": 120.37291666666633,
                        "value": 0.49606299212598426
                    },
                    {
                        "number": 64,
                        "time": 120.37291666666633,
                        "value": 1
                    },
                    {
                        "number": 64,
                        "time": 120.77083333333299,
                        "value": 0.49606299212598426
                    },
                    {
                        "number": 64,
                        "time": 120.86666666666632,
                        "value": 1
                    },
                    {
                        "number": 64,
                        "time": 121.0791666666663,
                        "value": 0.49606299212598426
                    },
                    {
                        "number": 64,
                        "time": 121.10833333333296,
                        "value": 0
                    },
                    {
                        "number": 64,
                        "time": 121.24583333333297,
                        "value": 0.49606299212598426
                    },
                    {
                        "number": 64,
                        "time": 121.26041666666629,
                        "value": 1
                    },
                    {
                        "number": 64,
                        "time": 121.5041666666663,
                        "value": 0.49606299212598426
                    },
                    {
                        "number": 64,
                        "time": 121.51874999999963,
                        "value": 0
                    },
                    {
                        "number": 64,
                        "time": 121.72708333333296,
                        "value": 0.49606299212598426
                    },
                    {
                        "number": 64,
                        "time": 121.7354166666663,
                        "value": 1
                    },
                    {
                        "number": 64,
                        "time": 122.23749999999963,
                        "value": 0.49606299212598426
                    },
                    {
                        "number": 64,
                        "time": 122.2541666666663,
                        "value": 0
                    },
                    {
                        "number": 64,
                        "time": 122.4104166666663,
                        "value": 0.49606299212598426
                    },
                    {
                        "number": 64,
                        "time": 122.4229166666663,
                        "value": 1
                    },
                    {
                        "number": 64,
                        "time": 122.59999999999964,
                        "value": 0.49606299212598426
                    },
                    {
                        "number": 64,
                        "time": 122.6166666666663,
                        "value": 0
                    },
                    {
                        "number": 64,
                        "time": 123.12083333333297,
                        "value": 0.49606299212598426
                    },
                    {
                        "number": 64,
                        "time": 123.12708333333296,
                        "value": 1
                    },
                    {
                        "number": 64,
                        "time": 125.2666666666663,
                        "value": 0.49606299212598426
                    },
                    {
                        "number": 64,
                        "time": 125.43749999999963,
                        "value": 1
                    },
                    {
                        "number": 64,
                        "time": 125.65416666666628,
                        "value": 0.49606299212598426
                    },
                    {
                        "number": 64,
                        "time": 125.66458333333296,
                        "value": 0
                    },
                    {
                        "number": 64,
                        "time": 125.80833333333295,
                        "value": 0.49606299212598426
                    },
                    {
                        "number": 64,
                        "time": 125.81458333333295,
                        "value": 1
                    },
                    {
                        "number": 64,
                        "time": 128.1437499999996,
                        "value": 0.49606299212598426
                    },
                    {
                        "number": 64,
                        "time": 128.15208333333294,
                        "value": 0
                    },
                    {
                        "number": 64,
                        "time": 128.858333333333,
                        "value": 0.49606299212598426
                    },
                    {
                        "number": 64,
                        "time": 128.86041666666634,
                        "value": 1
                    },
                    {
                        "number": 64,
                        "time": 129.36041666666634,
                        "value": 0.49606299212598426
                    },
                    {
                        "number": 64,
                        "time": 129.370833333333,
                        "value": 0
                    },
                    {
                        "number": 64,
                        "time": 130.3291666666663,
                        "value": 0.49606299212598426
                    },
                    {
                        "number": 64,
                        "time": 130.33124999999964,
                        "value": 1
                    },
                    {
                        "number": 64,
                        "time": 131.11041666666628,
                        "value": 0.49606299212598426
                    },
                    {
                        "number": 64,
                        "time": 131.1249999999996,
                        "value": 0
                    },
                    {
                        "number": 64,
                        "time": 131.1833333333329,
                        "value": 0.49606299212598426
                    },
                    {
                        "number": 64,
                        "time": 131.20416666666623,
                        "value": 1
                    },
                    {
                        "number": 64,
                        "time": 131.51041666666623,
                        "value": 0.49606299212598426
                    },
                    {
                        "number": 64,
                        "time": 131.5145833333329,
                        "value": 0
                    },
                    {
                        "number": 64,
                        "time": 131.6916666666662,
                        "value": 0.49606299212598426
                    },
                    {
                        "number": 64,
                        "time": 131.69374999999954,
                        "value": 1
                    },
                    {
                        "number": 64,
                        "time": 132.53749999999954,
                        "value": 0.49606299212598426
                    },
                    {
                        "number": 64,
                        "time": 132.59999999999954,
                        "value": 1
                    },
                    {
                        "number": 64,
                        "time": 132.96874999999955,
                        "value": 0.49606299212598426
                    },
                    {
                        "number": 64,
                        "time": 132.98124999999953,
                        "value": 0
                    },
                    {
                        "number": 64,
                        "time": 133.15833333333288,
                        "value": 0.49606299212598426
                    },
                    {
                        "number": 64,
                        "time": 133.16874999999953,
                        "value": 1
                    },
                    {
                        "number": 64,
                        "time": 133.59791666666618,
                        "value": 0.49606299212598426
                    },
                    {
                        "number": 64,
                        "time": 133.61458333333286,
                        "value": 0
                    },
                    {
                        "number": 64,
                        "time": 133.69583333333287,
                        "value": 0.49606299212598426
                    },
                    {
                        "number": 64,
                        "time": 133.71249999999955,
                        "value": 1
                    },
                    {
                        "number": 64,
                        "time": 133.91249999999954,
                        "value": 0.49606299212598426
                    },
                    {
                        "number": 64,
                        "time": 133.9229166666662,
                        "value": 0
                    },
                    {
                        "number": 64,
                        "time": 134.05833333333285,
                        "value": 0.49606299212598426
                    },
                    {
                        "number": 64,
                        "time": 134.0687499999995,
                        "value": 1
                    },
                    {
                        "number": 64,
                        "time": 134.57499999999953,
                        "value": 0.49606299212598426
                    },
                    {
                        "number": 64,
                        "time": 134.5791666666662,
                        "value": 0
                    },
                    {
                        "number": 64,
                        "time": 134.7249999999995,
                        "value": 0.49606299212598426
                    },
                    {
                        "number": 64,
                        "time": 134.72708333333284,
                        "value": 1
                    },
                    {
                        "number": 64,
                        "time": 135.32291666666612,
                        "value": 0.49606299212598426
                    },
                    {
                        "number": 64,
                        "time": 135.3291666666661,
                        "value": 0
                    },
                    {
                        "number": 64,
                        "time": 135.65624999999943,
                        "value": 1
                    },
                    {
                        "number": 64,
                        "time": 136.6145833333327,
                        "value": 0.49606299212598426
                    },
                    {
                        "number": 64,
                        "time": 136.62499999999935,
                        "value": 0
                    },
                    {
                        "number": 64,
                        "time": 136.74583333333268,
                        "value": 0.49606299212598426
                    },
                    {
                        "number": 64,
                        "time": 136.74791666666601,
                        "value": 1
                    },
                    {
                        "number": 64,
                        "time": 137.66666666666598,
                        "value": 0.49606299212598426
                    },
                    {
                        "number": 64,
                        "time": 137.67916666666596,
                        "value": 0
                    },
                    {
                        "number": 64,
                        "time": 137.75208333333265,
                        "value": 0.49606299212598426
                    },
                    {
                        "number": 64,
                        "time": 137.7624999999993,
                        "value": 1
                    },
                    {
                        "number": 64,
                        "time": 138.24583333333266,
                        "value": 0.49606299212598426
                    },
                    {
                        "number": 64,
                        "time": 138.25416666666598,
                        "value": 0
                    },
                    {
                        "number": 64,
                        "time": 138.3062499999993,
                        "value": 0.49606299212598426
                    },
                    {
                        "number": 64,
                        "time": 138.32291666666598,
                        "value": 1
                    },
                    {
                        "number": 64,
                        "time": 138.554166666666,
                        "value": 0.49606299212598426
                    },
                    {
                        "number": 64,
                        "time": 138.56249999999932,
                        "value": 0
                    },
                    {
                        "number": 64,
                        "time": 138.6624999999993,
                        "value": 0.49606299212598426
                    },
                    {
                        "number": 64,
                        "time": 138.67291666666597,
                        "value": 1
                    },
                    {
                        "number": 64,
                        "time": 139.01041666666595,
                        "value": 0.49606299212598426
                    },
                    {
                        "number": 64,
                        "time": 139.01666666666594,
                        "value": 0
                    },
                    {
                        "number": 64,
                        "time": 139.09999999999926,
                        "value": 0.49606299212598426
                    },
                    {
                        "number": 64,
                        "time": 139.1104166666659,
                        "value": 1
                    },
                    {
                        "number": 64,
                        "time": 140.84166666666587,
                        "value": 0.49606299212598426
                    },
                    {
                        "number": 64,
                        "time": 140.85208333333253,
                        "value": 0
                    },
                    {
                        "number": 64,
                        "time": 141.54791666666583,
                        "value": 0.49606299212598426
                    },
                    {
                        "number": 64,
                        "time": 141.54999999999916,
                        "value": 1
                    },
                    {
                        "number": 64,
                        "time": 142.02499999999912,
                        "value": 0.49606299212598426
                    },
                    {
                        "number": 64,
                        "time": 142.0374999999991,
                        "value": 0
                    },
                    {
                        "number": 64,
                        "time": 143.01249999999905,
                        "value": 1
                    },
                    {
                        "number": 64,
                        "time": 143.54583333333235,
                        "value": 0.49606299212598426
                    },
                    {
                        "number": 64,
                        "time": 143.55833333333234,
                        "value": 0
                    },
                    {
                        "number": 64,
                        "time": 144.2291666666657,
                        "value": 1
                    },
                    {
                        "number": 64,
                        "time": 145.66666666666566,
                        "value": 0.49606299212598426
                    },
                    {
                        "number": 64,
                        "time": 145.68541666666567,
                        "value": 0
                    },
                    {
                        "number": 64,
                        "time": 145.88333333333233,
                        "value": 0.49606299212598426
                    },
                    {
                        "number": 64,
                        "time": 145.887499999999,
                        "value": 1
                    },
                    {
                        "number": 64,
                        "time": 146.24374999999898,
                        "value": 0.49606299212598426
                    },
                    {
                        "number": 64,
                        "time": 146.2583333333323,
                        "value": 0
                    },
                    {
                        "number": 64,
                        "time": 146.3395833333323,
                        "value": 0.49606299212598426
                    },
                    {
                        "number": 64,
                        "time": 146.356249999999,
                        "value": 1
                    },
                    {
                        "number": 64,
                        "time": 146.58124999999896,
                        "value": 0.49606299212598426
                    },
                    {
                        "number": 64,
                        "time": 146.58958333333229,
                        "value": 0
                    },
                    {
                        "number": 64,
                        "time": 146.73749999999893,
                        "value": 0.49606299212598426
                    },
                    {
                        "number": 64,
                        "time": 146.74583333333226,
                        "value": 1
                    },
                    {
                        "number": 64,
                        "time": 147.2354166666656,
                        "value": 0.49606299212598426
                    },
                    {
                        "number": 64,
                        "time": 147.2416666666656,
                        "value": 0
                    },
                    {
                        "number": 64,
                        "time": 147.4354166666656,
                        "value": 1
                    },
                    {
                        "number": 64,
                        "time": 148.06041666666562,
                        "value": 0.49606299212598426
                    },
                    {
                        "number": 64,
                        "time": 148.06874999999894,
                        "value": 0
                    },
                    {
                        "number": 64,
                        "time": 148.17291666666563,
                        "value": 0.49606299212598426
                    },
                    {
                        "number": 64,
                        "time": 148.18333333333229,
                        "value": 1
                    },
                    {
                        "number": 64,
                        "time": 148.26874999999893,
                        "value": 0.49606299212598426
                    },
                    {
                        "number": 64,
                        "time": 148.2791666666656,
                        "value": 0
                    },
                    {
                        "number": 64,
                        "time": 148.54374999999894,
                        "value": 1
                    },
                    {
                        "number": 64,
                        "time": 148.6770833333323,
                        "value": 0.49606299212598426
                    },
                    {
                        "number": 64,
                        "time": 148.68124999999895,
                        "value": 0
                    },
                    {
                        "number": 64,
                        "time": 148.78333333333228,
                        "value": 0.49606299212598426
                    },
                    {
                        "number": 64,
                        "time": 148.78958333333227,
                        "value": 1
                    },
                    {
                        "number": 64,
                        "time": 149.33124999999893,
                        "value": 0.49606299212598426
                    },
                    {
                        "number": 64,
                        "time": 149.33958333333226,
                        "value": 0
                    },
                    {
                        "number": 64,
                        "time": 149.41458333333225,
                        "value": 0.49606299212598426
                    },
                    {
                        "number": 64,
                        "time": 149.42291666666557,
                        "value": 1
                    },
                    {
                        "number": 64,
                        "time": 149.80208333333223,
                        "value": 0.49606299212598426
                    },
                    {
                        "number": 64,
                        "time": 149.80833333333223,
                        "value": 0
                    },
                    {
                        "number": 64,
                        "time": 149.88541666666555,
                        "value": 0.49606299212598426
                    },
                    {
                        "number": 64,
                        "time": 149.89374999999887,
                        "value": 1
                    },
                    {
                        "number": 64,
                        "time": 150.3520833333322,
                        "value": 0.49606299212598426
                    },
                    {
                        "number": 64,
                        "time": 150.36041666666551,
                        "value": 0
                    },
                    {
                        "number": 64,
                        "time": 150.4145833333322,
                        "value": 0.49606299212598426
                    },
                    {
                        "number": 64,
                        "time": 150.4333333333322,
                        "value": 1
                    },
                    {
                        "number": 64,
                        "time": 150.8687499999989,
                        "value": 0.49606299212598426
                    },
                    {
                        "number": 64,
                        "time": 150.87916666666555,
                        "value": 0
                    },
                    {
                        "number": 64,
                        "time": 150.93124999999887,
                        "value": 0.49606299212598426
                    },
                    {
                        "number": 64,
                        "time": 150.94791666666552,
                        "value": 1
                    },
                    {
                        "number": 64,
                        "time": 151.09583333333222,
                        "value": 0.49606299212598426
                    },
                    {
                        "number": 64,
                        "time": 151.10208333333222,
                        "value": 0
                    },
                    {
                        "number": 64,
                        "time": 151.18333333333223,
                        "value": 0.49606299212598426
                    },
                    {
                        "number": 64,
                        "time": 151.1937499999989,
                        "value": 1
                    },
                    {
                        "number": 64,
                        "time": 151.54999999999887,
                        "value": 0.49606299212598426
                    },
                    {
                        "number": 64,
                        "time": 151.5645833333322,
                        "value": 0
                    },
                    {
                        "number": 64,
                        "time": 152.69999999999885,
                        "value": 0.49606299212598426
                    },
                    {
                        "number": 64,
                        "time": 152.70624999999885,
                        "value": 1
                    },
                    {
                        "number": 64,
                        "time": 152.93958333333217,
                        "value": 0.49606299212598426
                    },
                    {
                        "number": 64,
                        "time": 152.94999999999882,
                        "value": 0
                    },
                    {
                        "number": 64,
                        "time": 153.55833333333217,
                        "value": 0.49606299212598426
                    },
                    {
                        "number": 64,
                        "time": 153.56458333333217,
                        "value": 1
                    },
                    {
                        "number": 64,
                        "time": 153.81458333333217,
                        "value": 0.49606299212598426
                    },
                    {
                        "number": 64,
                        "time": 153.8291666666655,
                        "value": 0
                    },
                    {
                        "number": 64,
                        "time": 154.15208333333211,
                        "value": 0.49606299212598426
                    },
                    {
                        "number": 64,
                        "time": 154.1583333333321,
                        "value": 1
                    },
                    {
                        "number": 64,
                        "time": 154.42291666666543,
                        "value": 0.49606299212598426
                    },
                    {
                        "number": 64,
                        "time": 154.43541666666542,
                        "value": 0
                    },
                    {
                        "number": 64,
                        "time": 155.23541666666537,
                        "value": 0.49606299212598426
                    },
                    {
                        "number": 64,
                        "time": 155.2374999999987,
                        "value": 1
                    },
                    {
                        "number": 64,
                        "time": 155.44791666666538,
                        "value": 0.49606299212598426
                    },
                    {
                        "number": 64,
                        "time": 155.46041666666537,
                        "value": 0
                    },
                    {
                        "number": 64,
                        "time": 155.63333333333202,
                        "value": 0.49606299212598426
                    },
                    {
                        "number": 64,
                        "time": 155.64166666666534,
                        "value": 1
                    },
                    {
                        "number": 64,
                        "time": 155.97916666666532,
                        "value": 0.49606299212598426
                    },
                    {
                        "number": 64,
                        "time": 155.98749999999865,
                        "value": 0
                    },
                    {
                        "number": 64,
                        "time": 156.22083333333197,
                        "value": 0.49606299212598426
                    },
                    {
                        "number": 64,
                        "time": 156.2291666666653,
                        "value": 1
                    },
                    {
                        "number": 64,
                        "time": 156.39374999999862,
                        "value": 0.49606299212598426
                    },
                    {
                        "number": 64,
                        "time": 156.40416666666528,
                        "value": 0
                    },
                    {
                        "number": 64,
                        "time": 157.2499999999986,
                        "value": 1
                    },
                    {
                        "number": 64,
                        "time": 157.40416666666528,
                        "value": 0.49606299212598426
                    },
                    {
                        "number": 64,
                        "time": 157.40833333333194,
                        "value": 0
                    },
                    {
                        "number": 64,
                        "time": 157.5249999999986,
                        "value": 0.49606299212598426
                    },
                    {
                        "number": 64,
                        "time": 157.52916666666528,
                        "value": 1
                    },
                    {
                        "number": 64,
                        "time": 157.77083333333195,
                        "value": 0.49606299212598426
                    },
                    {
                        "number": 64,
                        "time": 157.77291666666528,
                        "value": 0
                    },
                    {
                        "number": 64,
                        "time": 157.88958333333193,
                        "value": 1
                    },
                    {
                        "number": 64,
                        "time": 157.99791666666528,
                        "value": 0.49606299212598426
                    },
                    {
                        "number": 64,
                        "time": 158.00208333333194,
                        "value": 0
                    },
                    {
                        "number": 64,
                        "time": 158.1187499999986,
                        "value": 1
                    },
                    {
                        "number": 64,
                        "time": 159.71666666666525,
                        "value": 0.49606299212598426
                    },
                    {
                        "number": 64,
                        "time": 159.7270833333319,
                        "value": 0
                    },
                    {
                        "number": 64,
                        "time": 160.20416666666523,
                        "value": 0.49606299212598426
                    },
                    {
                        "number": 64,
                        "time": 160.20416666666523,
                        "value": 1
                    },
                    {
                        "number": 64,
                        "time": 160.43541666666522,
                        "value": 0.49606299212598426
                    },
                    {
                        "number": 64,
                        "time": 160.43958333333188,
                        "value": 0
                    },
                    {
                        "number": 64,
                        "time": 160.85624999999854,
                        "value": 1
                    },
                    {
                        "number": 64,
                        "time": 162.07083333333185,
                        "value": 0.49606299212598426
                    },
                    {
                        "number": 64,
                        "time": 162.07708333333184,
                        "value": 0
                    },
                    {
                        "number": 64,
                        "time": 162.4624999999985,
                        "value": 0.49606299212598426
                    },
                    {
                        "number": 64,
                        "time": 162.46666666666516,
                        "value": 1
                    },
                    {
                        "number": 64,
                        "time": 162.82291666666515,
                        "value": 0.49606299212598426
                    },
                    {
                        "number": 64,
                        "time": 162.83541666666514,
                        "value": 0
                    },
                    {
                        "number": 64,
                        "time": 162.9770833333318,
                        "value": 0.49606299212598426
                    },
                    {
                        "number": 64,
                        "time": 162.98749999999845,
                        "value": 1
                    },
                    {
                        "number": 64,
                        "time": 163.2479166666651,
                        "value": 0.49606299212598426
                    },
                    {
                        "number": 64,
                        "time": 163.26874999999845,
                        "value": 0
                    },
                    {
                        "number": 64,
                        "time": 163.38124999999846,
                        "value": 0.49606299212598426
                    },
                    {
                        "number": 64,
                        "time": 163.39166666666512,
                        "value": 1
                    },
                    {
                        "number": 64,
                        "time": 163.87708333333177,
                        "value": 0.49606299212598426
                    },
                    {
                        "number": 64,
                        "time": 163.89999999999844,
                        "value": 0
                    },
                    {
                        "number": 64,
                        "time": 165.92499999999842,
                        "value": 0.49606299212598426
                    },
                    {
                        "number": 64,
                        "time": 165.94374999999843,
                        "value": 1
                    },
                    {
                        "number": 64,
                        "time": 166.97916666666512,
                        "value": 0.49606299212598426
                    },
                    {
                        "number": 64,
                        "time": 166.99999999999844,
                        "value": 0
                    },
                    {
                        "number": 64,
                        "time": 167.38749999999843,
                        "value": 0.49606299212598426
                    },
                    {
                        "number": 64,
                        "time": 167.3916666666651,
                        "value": 1
                    },
                    {
                        "number": 64,
                        "time": 168.3166666666651,
                        "value": 0.49606299212598426
                    },
                    {
                        "number": 64,
                        "time": 168.35833333333176,
                        "value": 0
                    },
                    {
                        "number": 64,
                        "time": 168.66249999999843,
                        "value": 0.49606299212598426
                    },
                    {
                        "number": 64,
                        "time": 168.67708333333175,
                        "value": 1
                    },
                    {
                        "number": 64,
                        "time": 171.36666666666505,
                        "value": 0.49606299212598426
                    },
                    {
                        "number": 64,
                        "time": 171.63958333333173,
                        "value": 1
                    },
                    {
                        "number": 64,
                        "time": 172.7062499999984,
                        "value": 0.49606299212598426
                    },
                    {
                        "number": 64,
                        "time": 172.7312499999984,
                        "value": 0
                    },
                    {
                        "number": 64,
                        "time": 172.76041666666507,
                        "value": 0.49606299212598426
                    },
                    {
                        "number": 64,
                        "time": 172.79583333333173,
                        "value": 1
                    },
                    {
                        "number": 64,
                        "time": 173.73541666666506,
                        "value": 0.49606299212598426
                    },
                    {
                        "number": 64,
                        "time": 173.7833333333317,
                        "value": 1
                    },
                    {
                        "number": 64,
                        "time": 174.4145833333317,
                        "value": 0.49606299212598426
                    },
                    {
                        "number": 64,
                        "time": 174.41874999999837,
                        "value": 0
                    },
                    {
                        "number": 64,
                        "time": 174.56458333333168,
                        "value": 0.49606299212598426
                    },
                    {
                        "number": 64,
                        "time": 174.57083333333168,
                        "value": 1
                    },
                    {
                        "number": 64,
                        "time": 175.222916666665,
                        "value": 0.49606299212598426
                    },
                    {
                        "number": 64,
                        "time": 175.23333333333164,
                        "value": 0
                    },
                    {
                        "number": 64,
                        "time": 175.36666666666497,
                        "value": 0.49606299212598426
                    },
                    {
                        "number": 64,
                        "time": 175.3812499999983,
                        "value": 1
                    },
                    {
                        "number": 64,
                        "time": 175.6770833333316,
                        "value": 0.49606299212598426
                    },
                    {
                        "number": 64,
                        "time": 175.67916666666494,
                        "value": 0
                    },
                    {
                        "number": 64,
                        "time": 176.07291666666495,
                        "value": 1
                    },
                    {
                        "number": 64,
                        "time": 177.96874999999827,
                        "value": 0.49606299212598426
                    },
                    {
                        "number": 64,
                        "time": 177.97916666666492,
                        "value": 0
                    },
                    {
                        "number": 64,
                        "time": 178.25833333333156,
                        "value": 1
                    },
                    {
                        "number": 64,
                        "time": 178.95624999999825,
                        "value": 0.49606299212598426
                    },
                    {
                        "number": 64,
                        "time": 178.96458333333157,
                        "value": 0
                    },
                    {
                        "number": 64,
                        "time": 179.11666666666488,
                        "value": 0.49606299212598426
                    },
                    {
                        "number": 64,
                        "time": 179.1249999999982,
                        "value": 1
                    },
                    {
                        "number": 64,
                        "time": 179.67916666666486,
                        "value": 0.49606299212598426
                    },
                    {
                        "number": 64,
                        "time": 179.67916666666486,
                        "value": 0
                    },
                    {
                        "number": 64,
                        "time": 179.83541666666486,
                        "value": 0.49606299212598426
                    },
                    {
                        "number": 64,
                        "time": 179.83541666666486,
                        "value": 1
                    },
                    {
                        "number": 64,
                        "time": 180.4604166666648,
                        "value": 0.49606299212598426
                    },
                    {
                        "number": 64,
                        "time": 180.46249999999813,
                        "value": 0
                    },
                    {
                        "number": 64,
                        "time": 180.65624999999812,
                        "value": 0.49606299212598426
                    },
                    {
                        "number": 64,
                        "time": 180.65833333333146,
                        "value": 1
                    },
                    {
                        "number": 64,
                        "time": 181.20208333333144,
                        "value": 0.49606299212598426
                    },
                    {
                        "number": 64,
                        "time": 181.20416666666478,
                        "value": 0
                    },
                    {
                        "number": 64,
                        "time": 181.3562499999981,
                        "value": 0.49606299212598426
                    },
                    {
                        "number": 64,
                        "time": 181.35833333333144,
                        "value": 1
                    },
                    {
                        "number": 64,
                        "time": 181.99166666666474,
                        "value": 0.49606299212598426
                    },
                    {
                        "number": 64,
                        "time": 181.99374999999807,
                        "value": 0
                    },
                    {
                        "number": 64,
                        "time": 182.13749999999808,
                        "value": 0.49606299212598426
                    },
                    {
                        "number": 64,
                        "time": 182.14166666666475,
                        "value": 1
                    },
                    {
                        "number": 64,
                        "time": 182.6541666666647,
                        "value": 0.49606299212598426
                    },
                    {
                        "number": 64,
                        "time": 182.6604166666647,
                        "value": 0
                    },
                    {
                        "number": 64,
                        "time": 182.88958333333136,
                        "value": 1
                    },
                    {
                        "number": 64,
                        "time": 184.7124999999979,
                        "value": 0.49606299212598426
                    },
                    {
                        "number": 64,
                        "time": 184.72291666666456,
                        "value": 0
                    },
                    {
                        "number": 64,
                        "time": 184.86666666666454,
                        "value": 1
                    },
                    {
                        "number": 64,
                        "time": 186.7645833333312,
                        "value": 0.49606299212598426
                    },
                    {
                        "number": 64,
                        "time": 186.77499999999785,
                        "value": 0
                    },
                    {
                        "number": 64,
                        "time": 186.89583333333115,
                        "value": 1
                    },
                    {
                        "number": 64,
                        "time": 188.68124999999782,
                        "value": 0.49606299212598426
                    },
                    {
                        "number": 64,
                        "time": 188.6937499999978,
                        "value": 0
                    },
                    {
                        "number": 64,
                        "time": 188.8124999999978,
                        "value": 1
                    },
                    {
                        "number": 64,
                        "time": 190.74583333333106,
                        "value": 0.49606299212598426
                    },
                    {
                        "number": 64,
                        "time": 190.76249999999774,
                        "value": 0
                    },
                    {
                        "number": 64,
                        "time": 190.91874999999777,
                        "value": 1
                    },
                    {
                        "number": 64,
                        "time": 192.88958333333096,
                        "value": 0.49606299212598426
                    },
                    {
                        "number": 64,
                        "time": 192.90833333333097,
                        "value": 0
                    },
                    {
                        "number": 64,
                        "time": 193.00833333333094,
                        "value": 1
                    },
                    {
                        "number": 64,
                        "time": 194.99374999999756,
                        "value": 0.49606299212598426
                    },
                    {
                        "number": 64,
                        "time": 195.01249999999757,
                        "value": 0
                    },
                    {
                        "number": 64,
                        "time": 195.15416666666425,
                        "value": 1
                    },
                    {
                        "number": 64,
                        "time": 197.63333333333077,
                        "value": 0.49606299212598426
                    },
                    {
                        "number": 64,
                        "time": 197.65208333333078,
                        "value": 0
                    },
                    {
                        "number": 64,
                        "time": 197.7666666666641,
                        "value": 1
                    },
                    {
                        "number": 64,
                        "time": 200.47291666666368,
                        "value": 0.49606299212598426
                    },
                    {
                        "number": 64,
                        "time": 200.47708333333034,
                        "value": 0
                    },
                    {
                        "number": 64,
                        "time": 200.57916666666367,
                        "value": 1
                    },
                    {
                        "number": 64,
                        "time": 202.80416666666324,
                        "value": 0.49606299212598426
                    },
                    {
                        "number": 64,
                        "time": 202.8083333333299,
                        "value": 0
                    },
                    {
                        "number": 64,
                        "time": 203.00416666666322,
                        "value": 1
                    },
                    {
                        "number": 64,
                        "time": 204.641666666663,
                        "value": 0.49606299212598426
                    },
                    {
                        "number": 64,
                        "time": 204.67291666666299,
                        "value": 0
                    },
                    {
                        "number": 64,
                        "time": 204.72708333332963,
                        "value": 0.49606299212598426
                    },
                    {
                        "number": 64,
                        "time": 204.73958333332962,
                        "value": 1
                    },
                    {
                        "number": 64,
                        "time": 204.96249999999625,
                        "value": 0.49606299212598426
                    },
                    {
                        "number": 64,
                        "time": 204.96874999999625,
                        "value": 0
                    },
                    {
                        "number": 64,
                        "time": 205.03333333332958,
                        "value": 0.49606299212598426
                    },
                    {
                        "number": 64,
                        "time": 205.04374999999624,
                        "value": 1
                    },
                    {
                        "number": 64,
                        "time": 205.28541666666288,
                        "value": 0.49606299212598426
                    },
                    {
                        "number": 64,
                        "time": 205.29166666666288,
                        "value": 0
                    },
                    {
                        "number": 64,
                        "time": 205.3312499999962,
                        "value": 0.49606299212598426
                    },
                    {
                        "number": 64,
                        "time": 205.34583333332952,
                        "value": 1
                    },
                    {
                        "number": 64,
                        "time": 205.74166666666287,
                        "value": 0.49606299212598426
                    },
                    {
                        "number": 64,
                        "time": 205.74791666666286,
                        "value": 0
                    },
                    {
                        "number": 64,
                        "time": 205.86458333332953,
                        "value": 0.49606299212598426
                    },
                    {
                        "number": 64,
                        "time": 205.8687499999962,
                        "value": 1
                    },
                    {
                        "number": 64,
                        "time": 207.75833333332963,
                        "value": 0.49606299212598426
                    },
                    {
                        "number": 64,
                        "time": 207.77291666666295,
                        "value": 0
                    },
                    {
                        "number": 64,
                        "time": 207.85624999999627,
                        "value": 0.49606299212598426
                    },
                    {
                        "number": 64,
                        "time": 207.86249999999626,
                        "value": 1
                    },
                    {
                        "number": 64,
                        "time": 208.44791666666293,
                        "value": 0.49606299212598426
                    },
                    {
                        "number": 64,
                        "time": 208.4583333333296,
                        "value": 0
                    },
                    {
                        "number": 64,
                        "time": 208.57916666666293,
                        "value": 1
                    },
                    {
                        "number": 64,
                        "time": 209.31874999999627,
                        "value": 0.49606299212598426
                    },
                    {
                        "number": 64,
                        "time": 209.32916666666293,
                        "value": 0
                    },
                    {
                        "number": 64,
                        "time": 209.39791666666292,
                        "value": 0.49606299212598426
                    },
                    {
                        "number": 64,
                        "time": 209.4145833333296,
                        "value": 1
                    },
                    {
                        "number": 64,
                        "time": 210.36874999999617,
                        "value": 0.49606299212598426
                    },
                    {
                        "number": 64,
                        "time": 210.3833333333295,
                        "value": 0
                    },
                    {
                        "number": 64,
                        "time": 211.19374999999607,
                        "value": 1
                    },
                    {
                        "number": 64,
                        "time": 211.66458333332935,
                        "value": 0.49606299212598426
                    },
                    {
                        "number": 64,
                        "time": 211.66666666666268,
                        "value": 0
                    },
                    {
                        "number": 64,
                        "time": 211.937499999996,
                        "value": 1
                    },
                    {
                        "number": 64,
                        "time": 212.5354166666627,
                        "value": 0.49606299212598426
                    },
                    {
                        "number": 64,
                        "time": 212.54999999999603,
                        "value": 0
                    },
                    {
                        "number": 64,
                        "time": 213.03124999999602,
                        "value": 1
                    },
                    {
                        "number": 64,
                        "time": 213.46041666666267,
                        "value": 0.49606299212598426
                    },
                    {
                        "number": 64,
                        "time": 213.46666666666266,
                        "value": 0
                    },
                    {
                        "number": 64,
                        "time": 213.93124999999603,
                        "value": 1
                    },
                    {
                        "number": 64,
                        "time": 214.45833333332934,
                        "value": 0.49606299212598426
                    },
                    {
                        "number": 64,
                        "time": 214.468749999996,
                        "value": 0
                    },
                    {
                        "number": 64,
                        "time": 214.537499999996,
                        "value": 0.49606299212598426
                    },
                    {
                        "number": 64,
                        "time": 214.54999999999598,
                        "value": 1
                    },
                    {
                        "number": 64,
                        "time": 214.88541666666265,
                        "value": 0.49606299212598426
                    },
                    {
                        "number": 64,
                        "time": 214.89166666666264,
                        "value": 0
                    },
                    {
                        "number": 64,
                        "time": 215.0145833333293,
                        "value": 0.49606299212598426
                    },
                    {
                        "number": 64,
                        "time": 215.01874999999598,
                        "value": 1
                    },
                    {
                        "number": 64,
                        "time": 215.187499999996,
                        "value": 0.49606299212598426
                    },
                    {
                        "number": 64,
                        "time": 215.18958333332932,
                        "value": 0
                    },
                    {
                        "number": 64,
                        "time": 215.2958333333293,
                        "value": 0.49606299212598426
                    },
                    {
                        "number": 64,
                        "time": 215.29999999999598,
                        "value": 1
                    },
                    {
                        "number": 64,
                        "time": 215.468749999996,
                        "value": 0.49606299212598426
                    },
                    {
                        "number": 64,
                        "time": 215.47083333332932,
                        "value": 0
                    },
                    {
                        "number": 64,
                        "time": 215.59791666666266,
                        "value": 0.49606299212598426
                    },
                    {
                        "number": 64,
                        "time": 215.599999999996,
                        "value": 1
                    },
                    {
                        "number": 64,
                        "time": 216.10833333332928,
                        "value": 0.49606299212598426
                    },
                    {
                        "number": 64,
                        "time": 216.12499999999594,
                        "value": 0
                    },
                    {
                        "number": 64,
                        "time": 216.57708333332928,
                        "value": 1
                    },
                    {
                        "number": 64,
                        "time": 216.76666666666262,
                        "value": 0.49606299212598426
                    },
                    {
                        "number": 64,
                        "time": 216.77499999999594,
                        "value": 0
                    },
                    {
                        "number": 64,
                        "time": 216.9937499999959,
                        "value": 1
                    },
                    {
                        "number": 64,
                        "time": 217.36874999999588,
                        "value": 0.49606299212598426
                    },
                    {
                        "number": 64,
                        "time": 217.37083333332922,
                        "value": 0
                    },
                    {
                        "number": 64,
                        "time": 217.5020833333292,
                        "value": 0.49606299212598426
                    },
                    {
                        "number": 64,
                        "time": 217.5020833333292,
                        "value": 1
                    },
                    {
                        "number": 64,
                        "time": 218.33749999999586,
                        "value": 0.49606299212598426
                    },
                    {
                        "number": 64,
                        "time": 218.3479166666625,
                        "value": 0
                    },
                    {
                        "number": 64,
                        "time": 218.4479166666625,
                        "value": 0.49606299212598426
                    },
                    {
                        "number": 64,
                        "time": 218.4479166666625,
                        "value": 1
                    },
                    {
                        "number": 64,
                        "time": 219.28333333332918,
                        "value": 0.49606299212598426
                    },
                    {
                        "number": 64,
                        "time": 219.3041666666625,
                        "value": 0
                    },
                    {
                        "number": 64,
                        "time": 219.3687499999958,
                        "value": 0.49606299212598426
                    },
                    {
                        "number": 64,
                        "time": 219.37708333332913,
                        "value": 1
                    },
                    {
                        "number": 64,
                        "time": 219.47708333332915,
                        "value": 0.49606299212598426
                    },
                    {
                        "number": 64,
                        "time": 219.4874999999958,
                        "value": 0
                    },
                    {
                        "number": 64,
                        "time": 220.24583333332905,
                        "value": 1
                    },
                    {
                        "number": 64,
                        "time": 220.6729166666624,
                        "value": 0.49606299212598426
                    },
                    {
                        "number": 64,
                        "time": 220.67708333332905,
                        "value": 0
                    },
                    {
                        "number": 64,
                        "time": 220.96874999999574,
                        "value": 1
                    },
                    {
                        "number": 64,
                        "time": 221.5874999999957,
                        "value": 0.49606299212598426
                    },
                    {
                        "number": 64,
                        "time": 221.5937499999957,
                        "value": 0
                    },
                    {
                        "number": 64,
                        "time": 222.045833333329,
                        "value": 1
                    },
                    {
                        "number": 64,
                        "time": 222.45833333332902,
                        "value": 0.49606299212598426
                    },
                    {
                        "number": 64,
                        "time": 222.46874999999568,
                        "value": 0
                    },
                    {
                        "number": 64,
                        "time": 222.93124999999569,
                        "value": 1
                    },
                    {
                        "number": 64,
                        "time": 223.33541666666233,
                        "value": 0.49606299212598426
                    },
                    {
                        "number": 64,
                        "time": 223.33749999999566,
                        "value": 0
                    },
                    {
                        "number": 64,
                        "time": 223.87083333332896,
                        "value": 1
                    },
                    {
                        "number": 64,
                        "time": 224.25833333332895,
                        "value": 0.49606299212598426
                    },
                    {
                        "number": 64,
                        "time": 224.26666666666227,
                        "value": 0
                    },
                    {
                        "number": 64,
                        "time": 224.38749999999558,
                        "value": 0.49606299212598426
                    },
                    {
                        "number": 64,
                        "time": 224.39166666666225,
                        "value": 1
                    },
                    {
                        "number": 64,
                        "time": 224.64374999999555,
                        "value": 0.49606299212598426
                    },
                    {
                        "number": 64,
                        "time": 224.6479166666622,
                        "value": 0
                    },
                    {
                        "number": 64,
                        "time": 224.79999999999555,
                        "value": 0.49606299212598426
                    },
                    {
                        "number": 64,
                        "time": 224.79999999999555,
                        "value": 1
                    },
                    {
                        "number": 64,
                        "time": 224.99374999999554,
                        "value": 0.49606299212598426
                    },
                    {
                        "number": 64,
                        "time": 225.00208333332887,
                        "value": 0
                    },
                    {
                        "number": 64,
                        "time": 225.03749999999553,
                        "value": 0.49606299212598426
                    },
                    {
                        "number": 64,
                        "time": 225.0479166666622,
                        "value": 1
                    },
                    {
                        "number": 64,
                        "time": 226.2999999999954,
                        "value": 0.49606299212598426
                    },
                    {
                        "number": 64,
                        "time": 226.31458333332873,
                        "value": 0
                    },
                    {
                        "number": 64,
                        "time": 226.34166666666206,
                        "value": 0.49606299212598426
                    },
                    {
                        "number": 64,
                        "time": 226.3687499999954,
                        "value": 1
                    },
                    {
                        "number": 64,
                        "time": 226.87291666666204,
                        "value": 0.49606299212598426
                    },
                    {
                        "number": 64,
                        "time": 226.8833333333287,
                        "value": 0
                    },
                    {
                        "number": 64,
                        "time": 226.9458333333287,
                        "value": 0.49606299212598426
                    },
                    {
                        "number": 64,
                        "time": 226.9708333333287,
                        "value": 1
                    },
                    {
                        "number": 64,
                        "time": 228.72708333332875,
                        "value": 0.49606299212598426
                    },
                    {
                        "number": 64,
                        "time": 228.74166666666207,
                        "value": 0
                    },
                    {
                        "number": 64,
                        "time": 228.8187499999954,
                        "value": 0.49606299212598426
                    },
                    {
                        "number": 64,
                        "time": 228.8374999999954,
                        "value": 1
                    },
                    {
                        "number": 64,
                        "time": 230.56458333332878,
                        "value": 0.49606299212598426
                    },
                    {
                        "number": 64,
                        "time": 230.5791666666621,
                        "value": 0
                    },
                    {
                        "number": 64,
                        "time": 230.7458333333288,
                        "value": 1
                    },
                    {
                        "number": 64,
                        "time": 231.17708333332874,
                        "value": 0.49606299212598426
                    },
                    {
                        "number": 64,
                        "time": 231.17916666666207,
                        "value": 0
                    },
                    {
                        "number": 64,
                        "time": 231.58541666666204,
                        "value": 1
                    },
                    {
                        "number": 64,
                        "time": 231.69374999999536,
                        "value": 0.49606299212598426
                    },
                    {
                        "number": 64,
                        "time": 231.7020833333287,
                        "value": 0
                    },
                    {
                        "number": 64,
                        "time": 232.022916666662,
                        "value": 1
                    },
                    {
                        "number": 64,
                        "time": 232.19583333332866,
                        "value": 0.49606299212598426
                    },
                    {
                        "number": 64,
                        "time": 232.204166666662,
                        "value": 0
                    },
                    {
                        "number": 64,
                        "time": 232.5020833333286,
                        "value": 1
                    },
                    {
                        "number": 64,
                        "time": 233.1791666666619,
                        "value": 0.49606299212598426
                    },
                    {
                        "number": 64,
                        "time": 233.1916666666619,
                        "value": 0
                    },
                    {
                        "number": 64,
                        "time": 233.2916666666619,
                        "value": 1
                    },
                    {
                        "number": 64,
                        "time": 234.27916666666187,
                        "value": 0.49606299212598426
                    },
                    {
                        "number": 64,
                        "time": 234.28958333332852,
                        "value": 0
                    },
                    {
                        "number": 64,
                        "time": 234.39583333332848,
                        "value": 0.49606299212598426
                    },
                    {
                        "number": 64,
                        "time": 234.40208333332848,
                        "value": 1
                    },
                    {
                        "number": 64,
                        "time": 234.43124999999515,
                        "value": 0.49606299212598426
                    },
                    {
                        "number": 64,
                        "time": 234.45833333332848,
                        "value": 0
                    },
                    {
                        "number": 64,
                        "time": 234.84583333332844,
                        "value": 1
                    },
                    {
                        "number": 64,
                        "time": 235.14791666666173,
                        "value": 0.49606299212598426
                    },
                    {
                        "number": 64,
                        "time": 235.14999999999506,
                        "value": 0
                    },
                    {
                        "number": 64,
                        "time": 235.31458333332836,
                        "value": 1
                    },
                    {
                        "number": 64,
                        "time": 235.70416666666165,
                        "value": 0.49606299212598426
                    },
                    {
                        "number": 64,
                        "time": 235.71666666666164,
                        "value": 0
                    },
                    {
                        "number": 64,
                        "time": 235.76249999999496,
                        "value": 0.49606299212598426
                    },
                    {
                        "number": 64,
                        "time": 235.77291666666162,
                        "value": 1
                    },
                    {
                        "number": 64,
                        "time": 236.0104166666616,
                        "value": 0.49606299212598426
                    },
                    {
                        "number": 64,
                        "time": 236.0166666666616,
                        "value": 0
                    },
                    {
                        "number": 64,
                        "time": 236.1916666666616,
                        "value": 1
                    },
                    {
                        "number": 64,
                        "time": 236.59374999999494,
                        "value": 0.49606299212598426
                    },
                    {
                        "number": 64,
                        "time": 236.60208333332827,
                        "value": 0
                    },
                    {
                        "number": 64,
                        "time": 236.66874999999493,
                        "value": 0.49606299212598426
                    },
                    {
                        "number": 64,
                        "time": 236.67708333332826,
                        "value": 1
                    },
                    {
                        "number": 64,
                        "time": 236.8291666666616,
                        "value": 0.49606299212598426
                    },
                    {
                        "number": 64,
                        "time": 236.8354166666616,
                        "value": 0
                    },
                    {
                        "number": 64,
                        "time": 236.90833333332827,
                        "value": 0.49606299212598426
                    },
                    {
                        "number": 64,
                        "time": 236.91458333332827,
                        "value": 1
                    },
                    {
                        "number": 64,
                        "time": 237.49999999999488,
                        "value": 0.49606299212598426
                    },
                    {
                        "number": 64,
                        "time": 237.51041666666154,
                        "value": 0
                    },
                    {
                        "number": 64,
                        "time": 237.56458333332822,
                        "value": 0.49606299212598426
                    },
                    {
                        "number": 64,
                        "time": 237.57499999999487,
                        "value": 1
                    },
                    {
                        "number": 64,
                        "time": 237.7291666666615,
                        "value": 0.49606299212598426
                    },
                    {
                        "number": 64,
                        "time": 237.73333333332818,
                        "value": 0
                    },
                    {
                        "number": 64,
                        "time": 237.83124999999484,
                        "value": 0.49606299212598426
                    },
                    {
                        "number": 64,
                        "time": 237.83333333332817,
                        "value": 1
                    },
                    {
                        "number": 64,
                        "time": 238.45624999999475,
                        "value": 0.49606299212598426
                    },
                    {
                        "number": 64,
                        "time": 238.46874999999474,
                        "value": 0
                    },
                    {
                        "number": 64,
                        "time": 238.55624999999472,
                        "value": 0.49606299212598426
                    },
                    {
                        "number": 64,
                        "time": 238.55833333332805,
                        "value": 1
                    },
                    {
                        "number": 64,
                        "time": 239.570833333328,
                        "value": 0.49606299212598426
                    },
                    {
                        "number": 64,
                        "time": 239.583333333328,
                        "value": 0
                    },
                    {
                        "number": 64,
                        "time": 239.59999999999468,
                        "value": 0.49606299212598426
                    },
                    {
                        "number": 64,
                        "time": 239.614583333328,
                        "value": 1
                    },
                    {
                        "number": 64,
                        "time": 239.85208333332793,
                        "value": 0.49606299212598426
                    },
                    {
                        "number": 64,
                        "time": 239.85833333332792,
                        "value": 0
                    },
                    {
                        "number": 64,
                        "time": 239.92291666666125,
                        "value": 0.49606299212598426
                    },
                    {
                        "number": 64,
                        "time": 239.92916666666125,
                        "value": 1
                    },
                    {
                        "number": 64,
                        "time": 240.31249999999457,
                        "value": 0.49606299212598426
                    },
                    {
                        "number": 64,
                        "time": 240.3145833333279,
                        "value": 0
                    },
                    {
                        "number": 64,
                        "time": 240.41666666666123,
                        "value": 0.49606299212598426
                    },
                    {
                        "number": 64,
                        "time": 240.41874999999456,
                        "value": 1
                    },
                    {
                        "number": 64,
                        "time": 242.46041666666108,
                        "value": 0.49606299212598426
                    },
                    {
                        "number": 64,
                        "time": 242.4687499999944,
                        "value": 0
                    },
                    {
                        "number": 64,
                        "time": 242.53333333332773,
                        "value": 0.49606299212598426
                    },
                    {
                        "number": 64,
                        "time": 242.5499999999944,
                        "value": 1
                    },
                    {
                        "number": 64,
                        "time": 244.77916666666073,
                        "value": 0.49606299212598426
                    },
                    {
                        "number": 64,
                        "time": 244.78124999999406,
                        "value": 0
                    },
                    {
                        "number": 64,
                        "time": 244.86874999999404,
                        "value": 0.49606299212598426
                    },
                    {
                        "number": 64,
                        "time": 244.8791666666607,
                        "value": 1
                    },
                    {
                        "number": 64,
                        "time": 245.35208333332733,
                        "value": 0.49606299212598426
                    },
                    {
                        "number": 64,
                        "time": 245.36041666666065,
                        "value": 0
                    },
                    {
                        "number": 64,
                        "time": 245.88958333332727,
                        "value": 1
                    },
                    {
                        "number": 64,
                        "time": 246.01249999999388,
                        "value": 0.49606299212598426
                    },
                    {
                        "number": 64,
                        "time": 246.02499999999387,
                        "value": 0
                    },
                    {
                        "number": 64,
                        "time": 246.29166666666052,
                        "value": 1
                    },
                    {
                        "number": 64,
                        "time": 246.35833333332718,
                        "value": 0.49606299212598426
                    },
                    {
                        "number": 64,
                        "time": 246.36458333332718,
                        "value": 0
                    },
                    {
                        "number": 64,
                        "time": 246.65624999999386,
                        "value": 1
                    },
                    {
                        "number": 64,
                        "time": 247.0437499999938,
                        "value": 0.49606299212598426
                    },
                    {
                        "number": 64,
                        "time": 247.04583333332712,
                        "value": 0
                    },
                    {
                        "number": 64,
                        "time": 248.20624999999373,
                        "value": 1
                    },
                    {
                        "number": 64,
                        "time": 249.64583333332698,
                        "value": 0.49606299212598426
                    },
                    {
                        "number": 64,
                        "time": 249.65833333332696,
                        "value": 0
                    },
                    {
                        "number": 64,
                        "time": 250.4645833333269,
                        "value": 1
                    },
                    {
                        "number": 64,
                        "time": 250.66874999999354,
                        "value": 0.49606299212598426
                    },
                    {
                        "number": 64,
                        "time": 250.67708333332686,
                        "value": 0
                    },
                    {
                        "number": 64,
                        "time": 250.83958333332683,
                        "value": 1
                    },
                    {
                        "number": 64,
                        "time": 251.09791666666018,
                        "value": 0.49606299212598426
                    },
                    {
                        "number": 64,
                        "time": 251.10833333332684,
                        "value": 0
                    },
                    {
                        "number": 64,
                        "time": 251.2249999999935,
                        "value": 1
                    },
                    {
                        "number": 64,
                        "time": 251.70208333332675,
                        "value": 0.49606299212598426
                    },
                    {
                        "number": 64,
                        "time": 251.71458333332674,
                        "value": 0
                    },
                    {
                        "number": 64,
                        "time": 251.95624999999342,
                        "value": 1
                    },
                    {
                        "number": 64,
                        "time": 252.14791666666005,
                        "value": 0.49606299212598426
                    },
                    {
                        "number": 64,
                        "time": 252.15624999999338,
                        "value": 0
                    },
                    {
                        "number": 64,
                        "time": 252.4520833333267,
                        "value": 1
                    },
                    {
                        "number": 64,
                        "time": 252.65624999999338,
                        "value": 0.49606299212598426
                    },
                    {
                        "number": 64,
                        "time": 252.6645833333267,
                        "value": 0
                    },
                    {
                        "number": 64,
                        "time": 252.84583333332668,
                        "value": 0.49606299212598426
                    },
                    {
                        "number": 64,
                        "time": 252.84791666666,
                        "value": 1
                    },
                    {
                        "number": 64,
                        "time": 253.2458333333266,
                        "value": 0.49606299212598426
                    },
                    {
                        "number": 64,
                        "time": 253.2520833333266,
                        "value": 0
                    },
                    {
                        "number": 64,
                        "time": 253.61874999999324,
                        "value": 0.49606299212598426
                    },
                    {
                        "number": 64,
                        "time": 253.62083333332657,
                        "value": 1
                    },
                    {
                        "number": 64,
                        "time": 253.74999999999324,
                        "value": 0.49606299212598426
                    },
                    {
                        "number": 64,
                        "time": 253.75833333332656,
                        "value": 0
                    },
                    {
                        "number": 64,
                        "time": 254.00416666665987,
                        "value": 1
                    },
                    {
                        "number": 64,
                        "time": 254.29166666665986,
                        "value": 0.49606299212598426
                    },
                    {
                        "number": 64,
                        "time": 254.2999999999932,
                        "value": 0
                    },
                    {
                        "number": 64,
                        "time": 254.41249999999317,
                        "value": 0.49606299212598426
                    },
                    {
                        "number": 64,
                        "time": 254.41874999999317,
                        "value": 1
                    },
                    {
                        "number": 64,
                        "time": 255.92291666665986,
                        "value": 0.49606299212598426
                    },
                    {
                        "number": 64,
                        "time": 255.93749999999318,
                        "value": 0
                    },
                    {
                        "number": 64,
                        "time": 256.08333333332655,
                        "value": 0.49606299212598426
                    },
                    {
                        "number": 64,
                        "time": 256.1416666666599,
                        "value": 0
                    },
                    {
                        "number": 64,
                        "time": 257.4624999999934,
                        "value": 1
                    },
                    {
                        "number": 64,
                        "time": 258.1749999999934,
                        "value": 0.49606299212598426
                    },
                    {
                        "number": 64,
                        "time": 258.18124999999344,
                        "value": 0
                    },
                    {
                        "number": 64,
                        "time": 258.62083333332686,
                        "value": 1
                    },
                    {
                        "number": 64,
                        "time": 258.86458333332683,
                        "value": 0.49606299212598426
                    },
                    {
                        "number": 64,
                        "time": 258.8687499999935,
                        "value": 0
                    },
                    {
                        "number": 64,
                        "time": 258.96041666666014,
                        "value": 0.49606299212598426
                    },
                    {
                        "number": 64,
                        "time": 258.9645833333268,
                        "value": 1
                    },
                    {
                        "number": 64,
                        "time": 259.4687499999935,
                        "value": 0.49606299212598426
                    },
                    {
                        "number": 64,
                        "time": 259.4791666666602,
                        "value": 0
                    },
                    {
                        "number": 64,
                        "time": 259.7020833333269,
                        "value": 1
                    },
                    {
                        "number": 64,
                        "time": 260.0479166666602,
                        "value": 0.49606299212598426
                    },
                    {
                        "number": 64,
                        "time": 260.05624999999355,
                        "value": 0
                    },
                    {
                        "number": 64,
                        "time": 260.13124999999354,
                        "value": 0.49606299212598426
                    },
                    {
                        "number": 64,
                        "time": 260.1458333333269,
                        "value": 1
                    },
                    {
                        "number": 64,
                        "time": 260.5666666666602,
                        "value": 0.49606299212598426
                    },
                    {
                        "number": 64,
                        "time": 260.5749999999935,
                        "value": 0
                    },
                    {
                        "number": 64,
                        "time": 260.96041666666014,
                        "value": 0.49606299212598426
                    },
                    {
                        "number": 64,
                        "time": 260.9624999999935,
                        "value": 1
                    },
                    {
                        "number": 64,
                        "time": 261.3833333333269,
                        "value": 0.49606299212598426
                    },
                    {
                        "number": 64,
                        "time": 261.38749999999357,
                        "value": 0
                    },
                    {
                        "number": 64,
                        "time": 261.6124999999936,
                        "value": 0.49606299212598426
                    },
                    {
                        "number": 64,
                        "time": 261.61458333332695,
                        "value": 1
                    },
                    {
                        "number": 64,
                        "time": 262.052083333327,
                        "value": 0.49606299212598426
                    },
                    {
                        "number": 64,
                        "time": 262.06666666666035,
                        "value": 0
                    },
                    {
                        "number": 64,
                        "time": 262.677083333327,
                        "value": 1
                    },
                    {
                        "number": 64,
                        "time": 263.33124999999376,
                        "value": 0.49606299212598426
                    },
                    {
                        "number": 64,
                        "time": 263.34166666666044,
                        "value": 0
                    },
                    {
                        "number": 64,
                        "time": 263.4291666666605,
                        "value": 0.49606299212598426
                    },
                    {
                        "number": 64,
                        "time": 263.4437499999938,
                        "value": 1
                    },
                    {
                        "number": 64,
                        "time": 263.8458333333272,
                        "value": 0.49606299212598426
                    },
                    {
                        "number": 64,
                        "time": 263.8499999999939,
                        "value": 0
                    },
                    {
                        "number": 64,
                        "time": 264.31874999999394,
                        "value": 1
                    },
                    {
                        "number": 64,
                        "time": 264.60624999999396,
                        "value": 0.49606299212598426
                    },
                    {
                        "number": 64,
                        "time": 264.6145833333273,
                        "value": 0
                    },
                    {
                        "number": 64,
                        "time": 264.66041666666064,
                        "value": 0.49606299212598426
                    },
                    {
                        "number": 64,
                        "time": 264.6708333333274,
                        "value": 1
                    },
                    {
                        "number": 64,
                        "time": 264.8479166666607,
                        "value": 0.49606299212598426
                    },
                    {
                        "number": 64,
                        "time": 264.856249999994,
                        "value": 0
                    },
                    {
                        "number": 64,
                        "time": 265.04583333332744,
                        "value": 1
                    },
                    {
                        "number": 64,
                        "time": 266.80624999999424,
                        "value": 0.49606299212598426
                    },
                    {
                        "number": 64,
                        "time": 266.8208333333276,
                        "value": 0
                    },
                    {
                        "number": 64,
                        "time": 266.8833333333276,
                        "value": 0.49606299212598426
                    },
                    {
                        "number": 64,
                        "time": 266.8958333333276,
                        "value": 1
                    },
                    {
                        "number": 64,
                        "time": 269.8083333333277,
                        "value": 0.49606299212598426
                    },
                    {
                        "number": 64,
                        "time": 269.82499999999436,
                        "value": 0
                    },
                    {
                        "number": 64,
                        "time": 269.91666666666106,
                        "value": 0.49606299212598426
                    },
                    {
                        "number": 64,
                        "time": 269.9229166666611,
                        "value": 1
                    },
                    {
                        "number": 64,
                        "time": 273.1624999999945,
                        "value": 0.49606299212598426
                    },
                    {
                        "number": 64,
                        "time": 273.1749999999945,
                        "value": 0
                    },
                    {
                        "number": 64,
                        "time": 273.2583333333279,
                        "value": 0.49606299212598426
                    },
                    {
                        "number": 64,
                        "time": 273.2624999999946,
                        "value": 1
                    },
                    {
                        "number": 64,
                        "time": 276.3062499999948,
                        "value": 0.49606299212598426
                    },
                    {
                        "number": 64,
                        "time": 276.30833333332816,
                        "value": 0
                    },
                    {
                        "number": 64,
                        "time": 276.45416666666154,
                        "value": 0.49606299212598426
                    },
                    {
                        "number": 64,
                        "time": 276.4562499999949,
                        "value": 1
                    },
                    {
                        "number": 64,
                        "time": 279.7124999999949,
                        "value": 0.49606299212598426
                    },
                    {
                        "number": 64,
                        "time": 279.7229166666616,
                        "value": 0
                    },
                    {
                        "number": 64,
                        "time": 279.8062499999949,
                        "value": 0.49606299212598426
                    },
                    {
                        "number": 64,
                        "time": 279.81458333332824,
                        "value": 1
                    },
                    {
                        "number": 64,
                        "time": 282.5937499999949,
                        "value": 0.49606299212598426
                    },
                    {
                        "number": 64,
                        "time": 282.62708333332824,
                        "value": 1
                    },
                    {
                        "number": 64,
                        "time": 283.1520833333282,
                        "value": 0.49606299212598426
                    },
                    {
                        "number": 64,
                        "time": 283.1624999999949,
                        "value": 0
                    },
                    {
                        "number": 64,
                        "time": 283.99791666666164,
                        "value": 1
                    },
                    {
                        "number": 64,
                        "time": 285.7437499999951,
                        "value": 1
                    },
                    {
                        "number": 64,
                        "time": 286.27291666666173,
                        "value": 0.49606299212598426
                    },
                    {
                        "number": 64,
                        "time": 286.27291666666173,
                        "value": 0
                    },
                    {
                        "number": 64,
                        "time": 286.3520833333285,
                        "value": 0.49606299212598426
                    },
                    {
                        "number": 64,
                        "time": 286.35416666666185,
                        "value": 1
                    },
                    {
                        "number": 64,
                        "time": 286.56249999999517,
                        "value": 0.49606299212598426
                    },
                    {
                        "number": 64,
                        "time": 286.5645833333285,
                        "value": 0
                    },
                    {
                        "number": 64,
                        "time": 286.78541666666194,
                        "value": 1
                    },
                    {
                        "number": 64,
                        "time": 287.2395833333287,
                        "value": 0.49606299212598426
                    },
                    {
                        "number": 64,
                        "time": 287.24166666666207,
                        "value": 0
                    },
                    {
                        "number": 64,
                        "time": 287.6354166666622,
                        "value": 1
                    },
                    {
                        "number": 64,
                        "time": 288.2604166666623,
                        "value": 0.49606299212598426
                    },
                    {
                        "number": 64,
                        "time": 288.26874999999563,
                        "value": 0
                    },
                    {
                        "number": 64,
                        "time": 288.4916666666624,
                        "value": 1
                    },
                    {
                        "number": 64,
                        "time": 289.16874999999584,
                        "value": 0.49606299212598426
                    },
                    {
                        "number": 64,
                        "time": 289.17708333332916,
                        "value": 0
                    },
                    {
                        "number": 64,
                        "time": 289.3229166666626,
                        "value": 1
                    },
                    {
                        "number": 64,
                        "time": 290.0687499999961,
                        "value": 0.49606299212598426
                    },
                    {
                        "number": 64,
                        "time": 290.0874999999961,
                        "value": 0
                    },
                    {
                        "number": 64,
                        "time": 290.2229166666628,
                        "value": 1
                    },
                    {
                        "number": 64,
                        "time": 290.7145833333295,
                        "value": 0.49606299212598426
                    },
                    {
                        "number": 64,
                        "time": 290.71666666666283,
                        "value": 0
                    },
                    {
                        "number": 64,
                        "time": 291.1104166666629,
                        "value": 1
                    },
                    {
                        "number": 64,
                        "time": 291.3833333333296,
                        "value": 0.49606299212598426
                    },
                    {
                        "number": 64,
                        "time": 291.3833333333296,
                        "value": 0
                    },
                    {
                        "number": 64,
                        "time": 291.4937499999963,
                        "value": 0.49606299212598426
                    },
                    {
                        "number": 64,
                        "time": 291.4937499999963,
                        "value": 1
                    },
                    {
                        "number": 64,
                        "time": 291.610416666663,
                        "value": 0.49606299212598426
                    },
                    {
                        "number": 64,
                        "time": 291.6124999999964,
                        "value": 0
                    },
                    {
                        "number": 64,
                        "time": 291.72916666666305,
                        "value": 1
                    },
                    {
                        "number": 64,
                        "time": 292.8312499999966,
                        "value": 0.49606299212598426
                    },
                    {
                        "number": 64,
                        "time": 292.83541666666326,
                        "value": 0
                    },
                    {
                        "number": 64,
                        "time": 292.93958333332995,
                        "value": 1
                    },
                    {
                        "number": 64,
                        "time": 293.64999999999685,
                        "value": 0.49606299212598426
                    },
                    {
                        "number": 64,
                        "time": 293.6583333333302,
                        "value": 0
                    },
                    {
                        "number": 64,
                        "time": 293.7895833333302,
                        "value": 1
                    },
                    {
                        "number": 64,
                        "time": 294.47708333333026,
                        "value": 0.49606299212598426
                    },
                    {
                        "number": 64,
                        "time": 294.48749999999694,
                        "value": 0
                    },
                    {
                        "number": 64,
                        "time": 294.624999999997,
                        "value": 1
                    },
                    {
                        "number": 64,
                        "time": 295.34791666666376,
                        "value": 0.49606299212598426
                    },
                    {
                        "number": 64,
                        "time": 295.35833333333045,
                        "value": 0
                    },
                    {
                        "number": 64,
                        "time": 295.48749999999717,
                        "value": 1
                    },
                    {
                        "number": 64,
                        "time": 295.8208333333306,
                        "value": 0.49606299212598426
                    },
                    {
                        "number": 64,
                        "time": 295.82291666666396,
                        "value": 0
                    },
                    {
                        "number": 64,
                        "time": 295.8833333333306,
                        "value": 0.49606299212598426
                    },
                    {
                        "number": 64,
                        "time": 295.8895833333306,
                        "value": 1
                    },
                    {
                        "number": 64,
                        "time": 296.172916666664,
                        "value": 0.49606299212598426
                    },
                    {
                        "number": 64,
                        "time": 296.179166666664,
                        "value": 0
                    },
                    {
                        "number": 64,
                        "time": 296.25624999999735,
                        "value": 0.49606299212598426
                    },
                    {
                        "number": 64,
                        "time": 296.2624999999974,
                        "value": 1
                    },
                    {
                        "number": 64,
                        "time": 296.94166666666416,
                        "value": 0.49606299212598426
                    },
                    {
                        "number": 64,
                        "time": 296.9458333333308,
                        "value": 0
                    },
                    {
                        "number": 64,
                        "time": 297.13541666666424,
                        "value": 1
                    },
                    {
                        "number": 64,
                        "time": 297.58749999999753,
                        "value": 0.49606299212598426
                    },
                    {
                        "number": 64,
                        "time": 297.5895833333309,
                        "value": 0
                    },
                    {
                        "number": 64,
                        "time": 298.1937499999976,
                        "value": 1
                    },
                    {
                        "number": 64,
                        "time": 298.47708333333094,
                        "value": 0.49606299212598426
                    },
                    {
                        "number": 64,
                        "time": 298.4812499999976,
                        "value": 0
                    },
                    {
                        "number": 64,
                        "time": 298.64791666666434,
                        "value": 1
                    },
                    {
                        "number": 64,
                        "time": 299.0874999999977,
                        "value": 0.49606299212598426
                    },
                    {
                        "number": 64,
                        "time": 299.08958333333106,
                        "value": 0
                    },
                    {
                        "number": 64,
                        "time": 299.1583333333311,
                        "value": 0.49606299212598426
                    },
                    {
                        "number": 64,
                        "time": 299.16666666666447,
                        "value": 1
                    },
                    {
                        "number": 64,
                        "time": 299.2749999999979,
                        "value": 0.49606299212598426
                    },
                    {
                        "number": 64,
                        "time": 299.2833333333312,
                        "value": 0
                    },
                    {
                        "number": 64,
                        "time": 299.3333333333312,
                        "value": 0.49606299212598426
                    },
                    {
                        "number": 64,
                        "time": 299.3437499999979,
                        "value": 1
                    },
                    {
                        "number": 64,
                        "time": 299.7770833333312,
                        "value": 0.49606299212598426
                    },
                    {
                        "number": 64,
                        "time": 299.78124999999784,
                        "value": 0
                    },
                    {
                        "number": 64,
                        "time": 299.8833333333311,
                        "value": 0.49606299212598426
                    },
                    {
                        "number": 64,
                        "time": 299.8874999999978,
                        "value": 1
                    },
                    {
                        "number": 64,
                        "time": 300.7645833333312,
                        "value": 0.49606299212598426
                    },
                    {
                        "number": 64,
                        "time": 300.7749999999979,
                        "value": 0
                    },
                    {
                        "number": 64,
                        "time": 300.8229166666645,
                        "value": 0.49606299212598426
                    },
                    {
                        "number": 64,
                        "time": 300.8374999999979,
                        "value": 1
                    },
                    {
                        "number": 64,
                        "time": 301.6833333333314,
                        "value": 0.49606299212598426
                    },
                    {
                        "number": 64,
                        "time": 301.68541666666476,
                        "value": 0
                    },
                    {
                        "number": 64,
                        "time": 301.7874999999981,
                        "value": 0.49606299212598426
                    },
                    {
                        "number": 64,
                        "time": 301.7958333333314,
                        "value": 1
                    },
                    {
                        "number": 64,
                        "time": 302.0062499999981,
                        "value": 0.49606299212598426
                    },
                    {
                        "number": 64,
                        "time": 302.00833333333145,
                        "value": 0
                    },
                    {
                        "number": 64,
                        "time": 302.1583333333314,
                        "value": 0.49606299212598426
                    },
                    {
                        "number": 64,
                        "time": 302.1604166666648,
                        "value": 1
                    },
                    {
                        "number": 64,
                        "time": 302.3958333333315,
                        "value": 0.49606299212598426
                    },
                    {
                        "number": 64,
                        "time": 302.4020833333315,
                        "value": 0
                    },
                    {
                        "number": 64,
                        "time": 302.4624999999982,
                        "value": 0.49606299212598426
                    },
                    {
                        "number": 64,
                        "time": 302.4729166666649,
                        "value": 1
                    },
                    {
                        "number": 64,
                        "time": 302.7124999999982,
                        "value": 0.49606299212598426
                    },
                    {
                        "number": 64,
                        "time": 302.71874999999824,
                        "value": 0
                    },
                    {
                        "number": 64,
                        "time": 302.78124999999824,
                        "value": 0.49606299212598426
                    },
                    {
                        "number": 64,
                        "time": 302.7916666666649,
                        "value": 1
                    },
                    {
                        "number": 64,
                        "time": 303.410416666665,
                        "value": 0.49606299212598426
                    },
                    {
                        "number": 64,
                        "time": 303.422916666665,
                        "value": 0
                    },
                    {
                        "number": 64,
                        "time": 303.4874999999983,
                        "value": 0.49606299212598426
                    },
                    {
                        "number": 64,
                        "time": 303.4999999999983,
                        "value": 1
                    },
                    {
                        "number": 64,
                        "time": 304.3333333333317,
                        "value": 0.49606299212598426
                    },
                    {
                        "number": 64,
                        "time": 304.3458333333317,
                        "value": 0
                    },
                    {
                        "number": 64,
                        "time": 304.3979166666651,
                        "value": 0.49606299212598426
                    },
                    {
                        "number": 64,
                        "time": 304.41458333333173,
                        "value": 1
                    },
                    {
                        "number": 64,
                        "time": 305.30833333333163,
                        "value": 0.49606299212598426
                    },
                    {
                        "number": 64,
                        "time": 305.310416666665,
                        "value": 0
                    },
                    {
                        "number": 64,
                        "time": 305.4312499999984,
                        "value": 0.49606299212598426
                    },
                    {
                        "number": 64,
                        "time": 305.4374999999984,
                        "value": 1
                    },
                    {
                        "number": 64,
                        "time": 305.71666666666505,
                        "value": 0.49606299212598426
                    },
                    {
                        "number": 64,
                        "time": 305.72708333333173,
                        "value": 0
                    },
                    {
                        "number": 64,
                        "time": 305.7708333333317,
                        "value": 0.49606299212598426
                    },
                    {
                        "number": 64,
                        "time": 305.78541666666507,
                        "value": 1
                    },
                    {
                        "number": 64,
                        "time": 306.02708333333175,
                        "value": 0.49606299212598426
                    },
                    {
                        "number": 64,
                        "time": 306.06666666666507,
                        "value": 1
                    },
                    {
                        "number": 64,
                        "time": 306.2854166666651,
                        "value": 0.49606299212598426
                    },
                    {
                        "number": 64,
                        "time": 306.3020833333318,
                        "value": 0
                    },
                    {
                        "number": 64,
                        "time": 306.6874999999985,
                        "value": 1
                    },
                    {
                        "number": 64,
                        "time": 307.14374999999853,
                        "value": 0.49606299212598426
                    },
                    {
                        "number": 64,
                        "time": 307.1479166666652,
                        "value": 0
                    },
                    {
                        "number": 64,
                        "time": 308.00208333333194,
                        "value": 1
                    },
                    {
                        "number": 64,
                        "time": 308.40833333333205,
                        "value": 0.49606299212598426
                    },
                    {
                        "number": 64,
                        "time": 308.4166666666654,
                        "value": 0
                    },
                    {
                        "number": 64,
                        "time": 308.7999999999989,
                        "value": 1
                    },
                    {
                        "number": 64,
                        "time": 309.13541666666555,
                        "value": 0.49606299212598426
                    },
                    {
                        "number": 64,
                        "time": 309.1437499999989,
                        "value": 0
                    },
                    {
                        "number": 64,
                        "time": 309.44583333333225,
                        "value": 1
                    },
                    {
                        "number": 64,
                        "time": 309.99583333333237,
                        "value": 0.49606299212598426
                    },
                    {
                        "number": 64,
                        "time": 310.0041666666657,
                        "value": 0
                    },
                    {
                        "number": 64,
                        "time": 310.46874999999926,
                        "value": 1
                    },
                    {
                        "number": 64,
                        "time": 310.98124999999936,
                        "value": 0.49606299212598426
                    },
                    {
                        "number": 64,
                        "time": 310.9874999999994,
                        "value": 0
                    },
                    {
                        "number": 64,
                        "time": 311.14374999999944,
                        "value": 0.49606299212598426
                    },
                    {
                        "number": 64,
                        "time": 311.1479166666661,
                        "value": 1
                    },
                    {
                        "number": 64,
                        "time": 311.6187499999995,
                        "value": 0.49606299212598426
                    },
                    {
                        "number": 64,
                        "time": 311.62708333333285,
                        "value": 0
                    },
                    {
                        "number": 64,
                        "time": 311.6874999999995,
                        "value": 0.49606299212598426
                    },
                    {
                        "number": 64,
                        "time": 311.70208333333284,
                        "value": 1
                    },
                    {
                        "number": 64,
                        "time": 311.94166666666626,
                        "value": 0.49606299212598426
                    },
                    {
                        "number": 64,
                        "time": 311.95208333333295,
                        "value": 0
                    },
                    {
                        "number": 64,
                        "time": 312.04583333333295,
                        "value": 0.49606299212598426
                    },
                    {
                        "number": 64,
                        "time": 312.0541666666663,
                        "value": 1
                    },
                    {
                        "number": 64,
                        "time": 312.4895833333329,
                        "value": 0.49606299212598426
                    },
                    {
                        "number": 64,
                        "time": 312.49791666666624,
                        "value": 0
                    },
                    {
                        "number": 64,
                        "time": 312.5895833333329,
                        "value": 0.49606299212598426
                    },
                    {
                        "number": 64,
                        "time": 312.5958333333329,
                        "value": 1
                    },
                    {
                        "number": 64,
                        "time": 315.8958333333331,
                        "value": 0.49606299212598426
                    },
                    {
                        "number": 64,
                        "time": 315.9604166666664,
                        "value": 1
                    },
                    {
                        "number": 64,
                        "time": 316.4854166666664,
                        "value": 0.49606299212598426
                    },
                    {
                        "number": 64,
                        "time": 316.5020833333331,
                        "value": 0
                    },
                    {
                        "number": 64,
                        "time": 317.27291666666645,
                        "value": 0.49606299212598426
                    },
                    {
                        "number": 64,
                        "time": 317.2749999999998,
                        "value": 1
                    },
                    {
                        "number": 64,
                        "time": 317.94791666666646,
                        "value": 0.49606299212598426
                    },
                    {
                        "number": 64,
                        "time": 317.9958333333331,
                        "value": 0
                    },
                    {
                        "number": 64,
                        "time": 318.34166666666647,
                        "value": 0.49606299212598426
                    },
                    {
                        "number": 64,
                        "time": 318.38333333333316,
                        "value": 1
                    },
                    {
                        "number": 64,
                        "time": 318.62291666666647,
                        "value": 0.49606299212598426
                    },
                    {
                        "number": 64,
                        "time": 318.65833333333313,
                        "value": 0
                    },
                    {
                        "number": 64,
                        "time": 319.07499999999976,
                        "value": 0.49606299212598426
                    },
                    {
                        "number": 64,
                        "time": 319.0937499999998,
                        "value": 1
                    },
                    {
                        "number": 64,
                        "time": 319.4270833333331,
                        "value": 0.49606299212598426
                    },
                    {
                        "number": 64,
                        "time": 319.49374999999975,
                        "value": 0
                    },
                    {
                        "number": 64,
                        "time": 319.5708333333331,
                        "value": 0.49606299212598426
                    },
                    {
                        "number": 64,
                        "time": 319.64999999999975,
                        "value": 0
                    },
                    {
                        "number": 64,
                        "time": 319.7999999999997,
                        "value": 0.49606299212598426
                    },
                    {
                        "number": 64,
                        "time": 319.8791666666664,
                        "value": 1
                    },
                    {
                        "number": 64,
                        "time": 320.0104166666664,
                        "value": 0.49606299212598426
                    },
                    {
                        "number": 64,
                        "time": 320.04374999999976,
                        "value": 0
                    },
                    {
                        "number": 64,
                        "time": 320.3312499999997,
                        "value": 0.49606299212598426
                    },
                    {
                        "number": 64,
                        "time": 320.3416666666664,
                        "value": 1
                    },
                    {
                        "number": 64,
                        "time": 320.5270833333331,
                        "value": 0.49606299212598426
                    },
                    {
                        "number": 64,
                        "time": 320.5374999999998,
                        "value": 0
                    },
                    {
                        "number": 64,
                        "time": 320.6874999999998,
                        "value": 0.49606299212598426
                    },
                    {
                        "number": 64,
                        "time": 320.69999999999976,
                        "value": 1
                    },
                    {
                        "number": 64,
                        "time": 320.83333333333314,
                        "value": 0.49606299212598426
                    },
                    {
                        "number": 64,
                        "time": 320.87916666666644,
                        "value": 1
                    },
                    {
                        "number": 64,
                        "time": 321.3270833333332,
                        "value": 0.49606299212598426
                    },
                    {
                        "number": 64,
                        "time": 321.3416666666665,
                        "value": 0
                    },
                    {
                        "number": 64,
                        "time": 321.5770833333332,
                        "value": 0.49606299212598426
                    },
                    {
                        "number": 64,
                        "time": 321.5916666666665,
                        "value": 1
                    },
                    {
                        "number": 64,
                        "time": 321.89374999999984,
                        "value": 0.49606299212598426
                    },
                    {
                        "number": 64,
                        "time": 321.9083333333332,
                        "value": 0
                    },
                    {
                        "number": 64,
                        "time": 322.3083333333331,
                        "value": 0.49606299212598426
                    },
                    {
                        "number": 64,
                        "time": 322.32499999999976,
                        "value": 1
                    },
                    {
                        "number": 64,
                        "time": 323.2208333333331,
                        "value": 0.49606299212598426
                    },
                    {
                        "number": 64,
                        "time": 323.2979166666665,
                        "value": 0
                    },
                    {
                        "number": 64,
                        "time": 323.83958333333317,
                        "value": 0.49606299212598426
                    },
                    {
                        "number": 64,
                        "time": 323.8729166666665,
                        "value": 1
                    },
                    {
                        "number": 64,
                        "time": 324.1999999999999,
                        "value": 0.49606299212598426
                    },
                    {
                        "number": 64,
                        "time": 324.2770833333332,
                        "value": 0
                    },
                    {
                        "number": 64,
                        "time": 324.8583333333332,
                        "value": 0.49606299212598426
                    },
                    {
                        "number": 64,
                        "time": 324.9208333333332,
                        "value": 1
                    },
                    {
                        "number": 64,
                        "time": 325.0124999999998,
                        "value": 0.49606299212598426
                    },
                    {
                        "number": 64,
                        "time": 325.12499999999983,
                        "value": 0
                    },
                    {
                        "number": 64,
                        "time": 325.9208333333331,
                        "value": 0.49606299212598426
                    },
                    {
                        "number": 64,
                        "time": 325.9624999999998,
                        "value": 1
                    },
                    {
                        "number": 64,
                        "time": 326.18958333333313,
                        "value": 0.49606299212598426
                    },
                    {
                        "number": 64,
                        "time": 326.2499999999998,
                        "value": 0
                    },
                    {
                        "number": 64,
                        "time": 326.7312499999998,
                        "value": 0.49606299212598426
                    },
                    {
                        "number": 64,
                        "time": 326.74999999999983,
                        "value": 1
                    },
                    {
                        "number": 64,
                        "time": 327.1770833333332,
                        "value": 0.49606299212598426
                    },
                    {
                        "number": 64,
                        "time": 327.24374999999986,
                        "value": 0
                    },
                    {
                        "number": 64,
                        "time": 327.42291666666654,
                        "value": 0.49606299212598426
                    },
                    {
                        "number": 64,
                        "time": 327.4354166666665,
                        "value": 1
                    },
                    {
                        "number": 64,
                        "time": 327.6833333333332,
                        "value": 0.49606299212598426
                    },
                    {
                        "number": 64,
                        "time": 327.72083333333325,
                        "value": 1
                    },
                    {
                        "number": 64,
                        "time": 328.74791666666664,
                        "value": 0.49606299212598426
                    },
                    {
                        "number": 64,
                        "time": 328.77916666666664,
                        "value": 0
                    },
                    {
                        "number": 64,
                        "time": 328.9916666666666,
                        "value": 0.49606299212598426
                    },
                    {
                        "number": 64,
                        "time": 329.0020833333333,
                        "value": 1
                    },
                    {
                        "number": 64,
                        "time": 331.23125,
                        "value": 0.49606299212598426
                    },
                    {
                        "number": 64,
                        "time": 331.31666666666666,
                        "value": 1
                    },
                    {
                        "number": 64,
                        "time": 331.5083333333333,
                        "value": 0.49606299212598426
                    },
                    {
                        "number": 64,
                        "time": 331.53541666666666,
                        "value": 0
                    },
                    {
                        "number": 64,
                        "time": 332.2666666666667,
                        "value": 1
                    },
                    {
                        "number": 64,
                        "time": 332.9854166666668,
                        "value": 0.49606299212598426
                    },
                    {
                        "number": 64,
                        "time": 332.9895833333335,
                        "value": 0
                    },
                    {
                        "number": 64,
                        "time": 333.6229166666669,
                        "value": 1
                    },
                    {
                        "number": 64,
                        "time": 333.7062500000004,
                        "value": 0.49606299212598426
                    },
                    {
                        "number": 64,
                        "time": 333.72083333333376,
                        "value": 0
                    },
                    {
                        "number": 64,
                        "time": 334.3437500000007,
                        "value": 1
                    },
                    {
                        "number": 64,
                        "time": 334.63125000000076,
                        "value": 0.49606299212598426
                    },
                    {
                        "number": 64,
                        "time": 334.6333333333341,
                        "value": 0
                    },
                    {
                        "number": 64,
                        "time": 336.21041666666747,
                        "value": 1
                    },
                    {
                        "number": 64,
                        "time": 336.4604166666675,
                        "value": 0.49606299212598426
                    },
                    {
                        "number": 64,
                        "time": 336.46666666666755,
                        "value": 0
                    },
                    {
                        "number": 64,
                        "time": 336.6166666666675,
                        "value": 0.49606299212598426
                    },
                    {
                        "number": 64,
                        "time": 336.62500000000085,
                        "value": 1
                    },
                    {
                        "number": 64,
                        "time": 336.99583333333413,
                        "value": 0.49606299212598426
                    },
                    {
                        "number": 64,
                        "time": 337.0062500000008,
                        "value": 0
                    },
                    {
                        "number": 64,
                        "time": 337.1125000000008,
                        "value": 0.49606299212598426
                    },
                    {
                        "number": 64,
                        "time": 337.12708333333416,
                        "value": 1
                    },
                    {
                        "number": 64,
                        "time": 337.36458333333417,
                        "value": 0.49606299212598426
                    },
                    {
                        "number": 64,
                        "time": 337.3854166666675,
                        "value": 0
                    },
                    {
                        "number": 64,
                        "time": 337.60416666666754,
                        "value": 0.49606299212598426
                    },
                    {
                        "number": 64,
                        "time": 337.6083333333342,
                        "value": 1
                    },
                    {
                        "number": 64,
                        "time": 337.91875000000084,
                        "value": 0.49606299212598426
                    },
                    {
                        "number": 64,
                        "time": 337.92708333333417,
                        "value": 0
                    },
                    {
                        "number": 64,
                        "time": 338.0979166666675,
                        "value": 0.49606299212598426
                    },
                    {
                        "number": 64,
                        "time": 338.10416666666754,
                        "value": 1
                    },
                    {
                        "number": 64,
                        "time": 338.4458333333342,
                        "value": 0.49606299212598426
                    },
                    {
                        "number": 64,
                        "time": 338.4583333333342,
                        "value": 0
                    },
                    {
                        "number": 64,
                        "time": 338.5562500000009,
                        "value": 0.49606299212598426
                    },
                    {
                        "number": 64,
                        "time": 338.57083333333424,
                        "value": 1
                    },
                    {
                        "number": 64,
                        "time": 338.8583333333342,
                        "value": 0.49606299212598426
                    },
                    {
                        "number": 64,
                        "time": 338.87083333333425,
                        "value": 0
                    },
                    {
                        "number": 64,
                        "time": 339.0854166666676,
                        "value": 0.49606299212598426
                    },
                    {
                        "number": 64,
                        "time": 339.0916666666676,
                        "value": 1
                    },
                    {
                        "number": 64,
                        "time": 339.4083333333342,
                        "value": 0.49606299212598426
                    },
                    {
                        "number": 64,
                        "time": 339.4187500000009,
                        "value": 0
                    },
                    {
                        "number": 64,
                        "time": 339.54791666666756,
                        "value": 0.49606299212598426
                    },
                    {
                        "number": 64,
                        "time": 339.55833333333425,
                        "value": 1
                    },
                    {
                        "number": 64,
                        "time": 339.86041666666756,
                        "value": 0.49606299212598426
                    },
                    {
                        "number": 64,
                        "time": 339.8770833333342,
                        "value": 0
                    },
                    {
                        "number": 64,
                        "time": 339.9312500000009,
                        "value": 0.49606299212598426
                    },
                    {
                        "number": 64,
                        "time": 339.9479166666676,
                        "value": 1
                    },
                    {
                        "number": 64,
                        "time": 340.2187500000009,
                        "value": 0.49606299212598426
                    },
                    {
                        "number": 64,
                        "time": 340.23541666666756,
                        "value": 0
                    },
                    {
                        "number": 64,
                        "time": 340.2750000000009,
                        "value": 0.49606299212598426
                    },
                    {
                        "number": 64,
                        "time": 340.29166666666754,
                        "value": 1
                    },
                    {
                        "number": 64,
                        "time": 340.45625000000086,
                        "value": 0.49606299212598426
                    },
                    {
                        "number": 64,
                        "time": 340.4812500000009,
                        "value": 0
                    },
                    {
                        "number": 64,
                        "time": 340.5125000000009,
                        "value": 0.49606299212598426
                    },
                    {
                        "number": 64,
                        "time": 340.53958333333424,
                        "value": 1
                    },
                    {
                        "number": 64,
                        "time": 340.86250000000086,
                        "value": 0.49606299212598426
                    },
                    {
                        "number": 64,
                        "time": 340.8833333333342,
                        "value": 0
                    },
                    {
                        "number": 64,
                        "time": 340.9020833333342,
                        "value": 0.49606299212598426
                    },
                    {
                        "number": 64,
                        "time": 340.92500000000086,
                        "value": 1
                    },
                    {
                        "number": 64,
                        "time": 342.27500000000106,
                        "value": 0.49606299212598426
                    },
                    {
                        "number": 64,
                        "time": 342.4000000000011,
                        "value": 0
                    },
                    {
                        "number": 64,
                        "time": 344.0875000000011,
                        "value": 0.49606299212598426
                    },
                    {
                        "number": 64,
                        "time": 344.11666666666775,
                        "value": 1
                    },
                    {
                        "number": 64,
                        "time": 345.68750000000125,
                        "value": 0.49606299212598426
                    },
                    {
                        "number": 64,
                        "time": 345.70000000000124,
                        "value": 0
                    },
                    {
                        "number": 64,
                        "time": 345.76875000000126,
                        "value": 0.49606299212598426
                    },
                    {
                        "number": 64,
                        "time": 345.7895833333346,
                        "value": 1
                    },
                    {
                        "number": 64,
                        "time": 346.89166666666785,
                        "value": 0.49606299212598426
                    },
                    {
                        "number": 64,
                        "time": 346.91041666666786,
                        "value": 0
                    },
                    {
                        "number": 64,
                        "time": 347.02708333333453,
                        "value": 0.49606299212598426
                    },
                    {
                        "number": 64,
                        "time": 347.0416666666679,
                        "value": 1
                    },
                    {
                        "number": 64,
                        "time": 347.97083333333467,
                        "value": 0.49606299212598426
                    },
                    {
                        "number": 64,
                        "time": 347.98125000000135,
                        "value": 0
                    },
                    {
                        "number": 64,
                        "time": 348.166666666668,
                        "value": 0.49606299212598426
                    },
                    {
                        "number": 64,
                        "time": 348.17083333333466,
                        "value": 1
                    },
                    {
                        "number": 64,
                        "time": 349.0437500000014,
                        "value": 0.49606299212598426
                    },
                    {
                        "number": 64,
                        "time": 349.05000000000143,
                        "value": 0
                    },
                    {
                        "number": 64,
                        "time": 349.1875000000014,
                        "value": 0.49606299212598426
                    },
                    {
                        "number": 64,
                        "time": 349.19583333333475,
                        "value": 1
                    },
                    {
                        "number": 64,
                        "time": 350.2541666666682,
                        "value": 0.49606299212598426
                    },
                    {
                        "number": 64,
                        "time": 350.2625000000015,
                        "value": 0
                    },
                    {
                        "number": 64,
                        "time": 350.3770833333349,
                        "value": 0.49606299212598426
                    },
                    {
                        "number": 64,
                        "time": 350.39166666666824,
                        "value": 1
                    },
                    {
                        "number": 64,
                        "time": 351.5229166666684,
                        "value": 0.49606299212598426
                    },
                    {
                        "number": 64,
                        "time": 351.53333333333507,
                        "value": 0
                    },
                    {
                        "number": 64,
                        "time": 351.79375000000175,
                        "value": 0.49606299212598426
                    },
                    {
                        "number": 64,
                        "time": 351.7958333333351,
                        "value": 1
                    },
                    {
                        "number": 64,
                        "time": 353.2083333333352,
                        "value": 0.49606299212598426
                    },
                    {
                        "number": 64,
                        "time": 353.2395833333352,
                        "value": 0
                    },
                    {
                        "number": 64,
                        "time": 353.3854166666685,
                        "value": 0.49606299212598426
                    },
                    {
                        "number": 64,
                        "time": 353.4104166666685,
                        "value": 1
                    },
                    {
                        "number": 64,
                        "time": 353.69375000000184,
                        "value": 0.49606299212598426
                    },
                    {
                        "number": 64,
                        "time": 353.70625000000183,
                        "value": 0
                    },
                    {
                        "number": 64,
                        "time": 353.8479166666685,
                        "value": 0.49606299212598426
                    },
                    {
                        "number": 64,
                        "time": 353.85833333333517,
                        "value": 1
                    },
                    {
                        "number": 64,
                        "time": 354.4708333333351,
                        "value": 0.49606299212598426
                    },
                    {
                        "number": 64,
                        "time": 354.4729166666685,
                        "value": 0
                    },
                    {
                        "number": 64,
                        "time": 354.6250000000019,
                        "value": 0.49606299212598426
                    },
                    {
                        "number": 64,
                        "time": 354.62916666666854,
                        "value": 1
                    },
                    {
                        "number": 64,
                        "time": 356.0854166666686,
                        "value": 0.49606299212598426
                    },
                    {
                        "number": 64,
                        "time": 356.0979166666686,
                        "value": 0
                    },
                    {
                        "number": 64,
                        "time": 356.2125000000019,
                        "value": 0.49606299212598426
                    },
                    {
                        "number": 64,
                        "time": 356.22083333333524,
                        "value": 1
                    },
                    {
                        "number": 64,
                        "time": 356.66041666666865,
                        "value": 0.49606299212598426
                    },
                    {
                        "number": 64,
                        "time": 356.668750000002,
                        "value": 0
                    },
                    {
                        "number": 64,
                        "time": 356.73333333333534,
                        "value": 0.49606299212598426
                    },
                    {
                        "number": 64,
                        "time": 356.7458333333353,
                        "value": 1
                    },
                    {
                        "number": 64,
                        "time": 357.11666666666866,
                        "value": 0.49606299212598426
                    },
                    {
                        "number": 64,
                        "time": 357.125000000002,
                        "value": 0
                    },
                    {
                        "number": 64,
                        "time": 357.25208333333524,
                        "value": 0.49606299212598426
                    },
                    {
                        "number": 64,
                        "time": 357.25833333333526,
                        "value": 1
                    },
                    {
                        "number": 64,
                        "time": 358.15416666666863,
                        "value": 0.49606299212598426
                    },
                    {
                        "number": 64,
                        "time": 358.16041666666865,
                        "value": 0
                    },
                    {
                        "number": 64,
                        "time": 358.30416666666866,
                        "value": 0.49606299212598426
                    },
                    {
                        "number": 64,
                        "time": 358.3104166666687,
                        "value": 1
                    },
                    {
                        "number": 64,
                        "time": 359.58333333333536,
                        "value": 0.49606299212598426
                    },
                    {
                        "number": 64,
                        "time": 359.5916666666687,
                        "value": 0
                    },
                    {
                        "number": 64,
                        "time": 359.756250000002,
                        "value": 0.49606299212598426
                    },
                    {
                        "number": 64,
                        "time": 359.76250000000203,
                        "value": 1
                    },
                    {
                        "number": 64,
                        "time": 360.7416666666688,
                        "value": 0.49606299212598426
                    },
                    {
                        "number": 64,
                        "time": 360.75208333333546,
                        "value": 0
                    },
                    {
                        "number": 64,
                        "time": 360.8958333333355,
                        "value": 0.49606299212598426
                    },
                    {
                        "number": 64,
                        "time": 360.90000000000214,
                        "value": 1
                    },
                    {
                        "number": 64,
                        "time": 361.7687500000022,
                        "value": 0.49606299212598426
                    },
                    {
                        "number": 64,
                        "time": 361.7791666666689,
                        "value": 0
                    },
                    {
                        "number": 64,
                        "time": 361.88958333333557,
                        "value": 0.49606299212598426
                    },
                    {
                        "number": 64,
                        "time": 361.8979166666689,
                        "value": 1
                    },
                    {
                        "number": 64,
                        "time": 362.11250000000217,
                        "value": 0.49606299212598426
                    },
                    {
                        "number": 64,
                        "time": 362.11666666666883,
                        "value": 0
                    },
                    {
                        "number": 64,
                        "time": 362.3500000000022,
                        "value": 1
                    },
                    {
                        "number": 64,
                        "time": 363.8562500000023,
                        "value": 0.49606299212598426
                    },
                    {
                        "number": 64,
                        "time": 363.8645833333357,
                        "value": 0
                    },
                    {
                        "number": 64,
                        "time": 364.0125000000024,
                        "value": 0.49606299212598426
                    },
                    {
                        "number": 64,
                        "time": 364.01666666666904,
                        "value": 1
                    },
                    {
                        "number": 64,
                        "time": 364.70208333333574,
                        "value": 0.49606299212598426
                    },
                    {
                        "number": 64,
                        "time": 364.7166666666691,
                        "value": 0
                    },
                    {
                        "number": 64,
                        "time": 364.7541666666691,
                        "value": 0.49606299212598426
                    },
                    {
                        "number": 64,
                        "time": 364.7645833333358,
                        "value": 1
                    },
                    {
                        "number": 64,
                        "time": 366.1354166666692,
                        "value": 0.49606299212598426
                    },
                    {
                        "number": 64,
                        "time": 366.15208333333584,
                        "value": 0
                    },
                    {
                        "number": 64,
                        "time": 366.2041666666692,
                        "value": 0.49606299212598426
                    },
                    {
                        "number": 64,
                        "time": 366.2250000000026,
                        "value": 1
                    },
                    {
                        "number": 64,
                        "time": 367.05625000000276,
                        "value": 0.49606299212598426
                    },
                    {
                        "number": 64,
                        "time": 367.06666666666945,
                        "value": 0
                    },
                    {
                        "number": 64,
                        "time": 367.1791666666694,
                        "value": 0.49606299212598426
                    },
                    {
                        "number": 64,
                        "time": 367.1875000000028,
                        "value": 1
                    },
                    {
                        "number": 64,
                        "time": 367.97291666666945,
                        "value": 0.49606299212598426
                    },
                    {
                        "number": 64,
                        "time": 367.98333333333613,
                        "value": 0
                    },
                    {
                        "number": 64,
                        "time": 368.0625000000028,
                        "value": 0.49606299212598426
                    },
                    {
                        "number": 64,
                        "time": 368.0687500000028,
                        "value": 1
                    },
                    {
                        "number": 64,
                        "time": 368.44375000000286,
                        "value": 0.49606299212598426
                    },
                    {
                        "number": 64,
                        "time": 368.45416666666955,
                        "value": 0
                    },
                    {
                        "number": 64,
                        "time": 368.51458333333625,
                        "value": 0.49606299212598426
                    },
                    {
                        "number": 64,
                        "time": 368.5270833333363,
                        "value": 1
                    },
                    {
                        "number": 64,
                        "time": 369.018750000003,
                        "value": 0.49606299212598426
                    },
                    {
                        "number": 64,
                        "time": 369.0291666666697,
                        "value": 0
                    },
                    {
                        "number": 64,
                        "time": 369.081250000003,
                        "value": 0.49606299212598426
                    },
                    {
                        "number": 64,
                        "time": 369.0958333333364,
                        "value": 1
                    },
                    {
                        "number": 64,
                        "time": 370.34791666666996,
                        "value": 0.49606299212598426
                    },
                    {
                        "number": 64,
                        "time": 370.36875000000333,
                        "value": 0
                    },
                    {
                        "number": 64,
                        "time": 370.3895833333367,
                        "value": 0.49606299212598426
                    },
                    {
                        "number": 64,
                        "time": 370.4104166666701,
                        "value": 1
                    },
                    {
                        "number": 64,
                        "time": 371.1354166666701,
                        "value": 0.49606299212598426
                    },
                    {
                        "number": 64,
                        "time": 371.1479166666701,
                        "value": 0
                    },
                    {
                        "number": 64,
                        "time": 371.2520833333368,
                        "value": 0.49606299212598426
                    },
                    {
                        "number": 64,
                        "time": 371.2604166666702,
                        "value": 1
                    },
                    {
                        "number": 64,
                        "time": 372.47916666667044,
                        "value": 0.49606299212598426
                    },
                    {
                        "number": 64,
                        "time": 372.4895833333371,
                        "value": 0
                    },
                    {
                        "number": 64,
                        "time": 372.6270833333372,
                        "value": 0.49606299212598426
                    },
                    {
                        "number": 64,
                        "time": 372.63333333333725,
                        "value": 1
                    },
                    {
                        "number": 64,
                        "time": 373.0916666666707,
                        "value": 0.49606299212598426
                    },
                    {
                        "number": 64,
                        "time": 373.10208333333736,
                        "value": 0
                    },
                    {
                        "number": 64,
                        "time": 373.3104166666707,
                        "value": 0.49606299212598426
                    },
                    {
                        "number": 64,
                        "time": 373.31250000000404,
                        "value": 1
                    },
                    {
                        "number": 64,
                        "time": 374.6520833333373,
                        "value": 0.49606299212598426
                    },
                    {
                        "number": 64,
                        "time": 374.65833333333734,
                        "value": 0
                    },
                    {
                        "number": 64,
                        "time": 374.75208333333734,
                        "value": 0.49606299212598426
                    },
                    {
                        "number": 64,
                        "time": 374.76041666667066,
                        "value": 1
                    },
                    {
                        "number": 64,
                        "time": 375.5770833333374,
                        "value": 0.49606299212598426
                    },
                    {
                        "number": 64,
                        "time": 375.58750000000407,
                        "value": 0
                    },
                    {
                        "number": 64,
                        "time": 375.70416666667074,
                        "value": 0.49606299212598426
                    },
                    {
                        "number": 64,
                        "time": 375.71041666667077,
                        "value": 1
                    },
                    {
                        "number": 64,
                        "time": 376.7020833333375,
                        "value": 0.49606299212598426
                    },
                    {
                        "number": 64,
                        "time": 376.7104166666709,
                        "value": 0
                    },
                    {
                        "number": 64,
                        "time": 376.87708333333757,
                        "value": 0.49606299212598426
                    },
                    {
                        "number": 64,
                        "time": 376.8854166666709,
                        "value": 1
                    },
                    {
                        "number": 64,
                        "time": 378.63958333333755,
                        "value": 0.49606299212598426
                    },
                    {
                        "number": 64,
                        "time": 378.6479166666709,
                        "value": 0
                    },
                    {
                        "number": 64,
                        "time": 378.8979166666709,
                        "value": 0.49606299212598426
                    },
                    {
                        "number": 64,
                        "time": 378.90000000000424,
                        "value": 1
                    },
                    {
                        "number": 64,
                        "time": 380.2958333333375,
                        "value": 0.49606299212598426
                    },
                    {
                        "number": 64,
                        "time": 380.30833333333754,
                        "value": 0
                    },
                    {
                        "number": 64,
                        "time": 380.4375000000042,
                        "value": 0.49606299212598426
                    },
                    {
                        "number": 64,
                        "time": 380.4500000000042,
                        "value": 1
                    },
                    {
                        "number": 64,
                        "time": 381.1458333333376,
                        "value": 0.49606299212598426
                    },
                    {
                        "number": 64,
                        "time": 381.16250000000423,
                        "value": 0
                    },
                    {
                        "number": 64,
                        "time": 381.23125000000425,
                        "value": 0.49606299212598426
                    },
                    {
                        "number": 64,
                        "time": 381.25208333333757,
                        "value": 1
                    },
                    {
                        "number": 64,
                        "time": 382.24375000000435,
                        "value": 0.49606299212598426
                    },
                    {
                        "number": 64,
                        "time": 382.304166666671,
                        "value": 0
                    },
                    {
                        "number": 64,
                        "time": 383.5187500000043,
                        "value": 0.49606299212598426
                    },
                    {
                        "number": 64,
                        "time": 383.5395833333376,
                        "value": 1
                    },
                    {
                        "number": 64,
                        "time": 384.83750000000424,
                        "value": 0.49606299212598426
                    },
                    {
                        "number": 64,
                        "time": 384.85000000000423,
                        "value": 0
                    },
                    {
                        "number": 64,
                        "time": 384.9979166666709,
                        "value": 0.49606299212598426
                    },
                    {
                        "number": 64,
                        "time": 385.0062500000043,
                        "value": 1
                    },
                    {
                        "number": 64,
                        "time": 386.022916666671,
                        "value": 0.49606299212598426
                    },
                    {
                        "number": 64,
                        "time": 386.0333333333377,
                        "value": 0
                    },
                    {
                        "number": 64,
                        "time": 386.28750000000434,
                        "value": 0.49606299212598426
                    },
                    {
                        "number": 64,
                        "time": 386.2895833333377,
                        "value": 1
                    },
                    {
                        "number": 64,
                        "time": 387.41458333333776,
                        "value": 0.49606299212598426
                    },
                    {
                        "number": 64,
                        "time": 387.43333333333777,
                        "value": 0
                    },
                    {
                        "number": 64,
                        "time": 387.94583333333776,
                        "value": 0.49606299212598426
                    },
                    {
                        "number": 64,
                        "time": 387.95625000000445,
                        "value": 1
                    },
                    {
                        "number": 64,
                        "time": 388.37916666667115,
                        "value": 0.49606299212598426
                    },
                    {
                        "number": 64,
                        "time": 388.4125000000045,
                        "value": 0
                    },
                    {
                        "number": 64,
                        "time": 388.9333333333378,
                        "value": 0.49606299212598426
                    },
                    {
                        "number": 64,
                        "time": 388.9479166666712,
                        "value": 1
                    },
                    {
                        "number": 64,
                        "time": 389.7729166666712,
                        "value": 0.49606299212598426
                    },
                    {
                        "number": 64,
                        "time": 389.7833333333379,
                        "value": 0
                    },
                    {
                        "number": 64,
                        "time": 389.9312500000046,
                        "value": 0.49606299212598426
                    },
                    {
                        "number": 64,
                        "time": 389.9395833333379,
                        "value": 1
                    },
                    {
                        "number": 64,
                        "time": 391.4125000000046,
                        "value": 0.49606299212598426
                    },
                    {
                        "number": 64,
                        "time": 391.4437500000046,
                        "value": 0
                    },
                    {
                        "number": 64,
                        "time": 391.5166666666713,
                        "value": 0.49606299212598426
                    },
                    {
                        "number": 64,
                        "time": 391.5354166666713,
                        "value": 1
                    },
                    {
                        "number": 64,
                        "time": 392.51041666667135,
                        "value": 0.49606299212598426
                    },
                    {
                        "number": 64,
                        "time": 392.52291666667134,
                        "value": 0
                    },
                    {
                        "number": 64,
                        "time": 392.608333333338,
                        "value": 0.49606299212598426
                    },
                    {
                        "number": 64,
                        "time": 392.61666666667134,
                        "value": 1
                    },
                    {
                        "number": 64,
                        "time": 393.62916666667144,
                        "value": 0.49606299212598426
                    },
                    {
                        "number": 64,
                        "time": 393.6395833333381,
                        "value": 0
                    },
                    {
                        "number": 64,
                        "time": 393.7541666666715,
                        "value": 0.49606299212598426
                    },
                    {
                        "number": 64,
                        "time": 393.7625000000048,
                        "value": 1
                    },
                    {
                        "number": 64,
                        "time": 393.9645833333381,
                        "value": 0.49606299212598426
                    },
                    {
                        "number": 64,
                        "time": 393.97291666667144,
                        "value": 0
                    },
                    {
                        "number": 64,
                        "time": 394.49375000000475,
                        "value": 0.49606299212598426
                    },
                    {
                        "number": 64,
                        "time": 394.49375000000475,
                        "value": 1
                    },
                    {
                        "number": 64,
                        "time": 394.80625000000475,
                        "value": 0.49606299212598426
                    },
                    {
                        "number": 64,
                        "time": 394.82500000000476,
                        "value": 0
                    },
                    {
                        "number": 64,
                        "time": 394.95000000000476,
                        "value": 0.49606299212598426
                    },
                    {
                        "number": 64,
                        "time": 394.9645833333381,
                        "value": 1
                    },
                    {
                        "number": 64,
                        "time": 395.60625000000476,
                        "value": 0.49606299212598426
                    },
                    {
                        "number": 64,
                        "time": 395.6229166666714,
                        "value": 0
                    },
                    {
                        "number": 64,
                        "time": 395.69166666667144,
                        "value": 0.49606299212598426
                    },
                    {
                        "number": 64,
                        "time": 395.7083333333381,
                        "value": 1
                    },
                    {
                        "number": 64,
                        "time": 396.80208333333815,
                        "value": 0.49606299212598426
                    },
                    {
                        "number": 64,
                        "time": 396.8166666666715,
                        "value": 0
                    },
                    {
                        "number": 64,
                        "time": 396.90208333333817,
                        "value": 0.49606299212598426
                    },
                    {
                        "number": 64,
                        "time": 396.9166666666715,
                        "value": 1
                    },
                    {
                        "number": 64,
                        "time": 397.6458333333382,
                        "value": 0.49606299212598426
                    },
                    {
                        "number": 64,
                        "time": 397.65416666667153,
                        "value": 0
                    },
                    {
                        "number": 64,
                        "time": 397.7520833333382,
                        "value": 0.49606299212598426
                    },
                    {
                        "number": 64,
                        "time": 397.7583333333382,
                        "value": 1
                    },
                    {
                        "number": 64,
                        "time": 398.4958333333382,
                        "value": 0.49606299212598426
                    },
                    {
                        "number": 64,
                        "time": 398.5104166666716,
                        "value": 0
                    },
                    {
                        "number": 64,
                        "time": 398.5604166666716,
                        "value": 0.49606299212598426
                    },
                    {
                        "number": 64,
                        "time": 398.57708333333824,
                        "value": 1
                    },
                    {
                        "number": 64,
                        "time": 399.2666666666716,
                        "value": 0.49606299212598426
                    },
                    {
                        "number": 64,
                        "time": 399.2750000000049,
                        "value": 0
                    },
                    {
                        "number": 64,
                        "time": 399.37291666667164,
                        "value": 0.49606299212598426
                    },
                    {
                        "number": 64,
                        "time": 399.3833333333383,
                        "value": 1
                    },
                    {
                        "number": 64,
                        "time": 400.05625000000504,
                        "value": 0.49606299212598426
                    },
                    {
                        "number": 64,
                        "time": 400.06458333333836,
                        "value": 0
                    },
                    {
                        "number": 64,
                        "time": 400.1458333333384,
                        "value": 0.49606299212598426
                    },
                    {
                        "number": 64,
                        "time": 400.1583333333384,
                        "value": 1
                    },
                    {
                        "number": 64,
                        "time": 400.7625000000051,
                        "value": 0.49606299212598426
                    },
                    {
                        "number": 64,
                        "time": 400.77083333333843,
                        "value": 0
                    },
                    {
                        "number": 64,
                        "time": 400.9312500000051,
                        "value": 0.49606299212598426
                    },
                    {
                        "number": 64,
                        "time": 400.93541666667176,
                        "value": 1
                    },
                    {
                        "number": 64,
                        "time": 401.65000000000515,
                        "value": 0.49606299212598426
                    },
                    {
                        "number": 64,
                        "time": 401.6583333333385,
                        "value": 0
                    },
                    {
                        "number": 64,
                        "time": 401.7583333333385,
                        "value": 0.49606299212598426
                    },
                    {
                        "number": 64,
                        "time": 401.7666666666718,
                        "value": 1
                    },
                    {
                        "number": 64,
                        "time": 402.02708333333845,
                        "value": 0.49606299212598426
                    },
                    {
                        "number": 64,
                        "time": 402.0333333333385,
                        "value": 0
                    },
                    {
                        "number": 64,
                        "time": 402.4687500000052,
                        "value": 1
                    },
                    {
                        "number": 64,
                        "time": 403.1875000000052,
                        "value": 0.49606299212598426
                    },
                    {
                        "number": 64,
                        "time": 403.18958333333853,
                        "value": 0
                    },
                    {
                        "number": 64,
                        "time": 403.3520833333386,
                        "value": 0.49606299212598426
                    },
                    {
                        "number": 64,
                        "time": 403.354166666672,
                        "value": 1
                    },
                    {
                        "number": 64,
                        "time": 403.80208333333866,
                        "value": 0.49606299212598426
                    },
                    {
                        "number": 64,
                        "time": 403.810416666672,
                        "value": 0
                    },
                    {
                        "number": 64,
                        "time": 404.0687500000053,
                        "value": 1
                    },
                    {
                        "number": 64,
                        "time": 404.80625000000526,
                        "value": 0.49606299212598426
                    },
                    {
                        "number": 64,
                        "time": 404.8083333333386,
                        "value": 0
                    },
                    {
                        "number": 64,
                        "time": 404.947916666672,
                        "value": 0.49606299212598426
                    },
                    {
                        "number": 64,
                        "time": 404.95000000000533,
                        "value": 1
                    },
                    {
                        "number": 64,
                        "time": 405.55000000000535,
                        "value": 0.49606299212598426
                    },
                    {
                        "number": 64,
                        "time": 405.5520833333387,
                        "value": 0
                    },
                    {
                        "number": 64,
                        "time": 405.7229166666721,
                        "value": 0.49606299212598426
                    },
                    {
                        "number": 64,
                        "time": 405.7250000000055,
                        "value": 1
                    },
                    {
                        "number": 64,
                        "time": 406.36041666667217,
                        "value": 0.49606299212598426
                    },
                    {
                        "number": 64,
                        "time": 406.3645833333388,
                        "value": 0
                    },
                    {
                        "number": 64,
                        "time": 406.49166666667213,
                        "value": 0.49606299212598426
                    },
                    {
                        "number": 64,
                        "time": 406.4958333333388,
                        "value": 1
                    },
                    {
                        "number": 64,
                        "time": 407.07708333333875,
                        "value": 0.49606299212598426
                    },
                    {
                        "number": 64,
                        "time": 407.0854166666721,
                        "value": 0
                    },
                    {
                        "number": 64,
                        "time": 407.24791666667204,
                        "value": 1
                    },
                    {
                        "number": 64,
                        "time": 407.8520833333387,
                        "value": 0.49606299212598426
                    },
                    {
                        "number": 64,
                        "time": 407.85833333333875,
                        "value": 0
                    },
                    {
                        "number": 64,
                        "time": 408.0437500000054,
                        "value": 1
                    },
                    {
                        "number": 64,
                        "time": 408.71875000000546,
                        "value": 0.49606299212598426
                    },
                    {
                        "number": 64,
                        "time": 408.72916666667214,
                        "value": 0
                    },
                    {
                        "number": 64,
                        "time": 408.85208333333884,
                        "value": 1
                    },
                    {
                        "number": 64,
                        "time": 409.5583333333389,
                        "value": 0.49606299212598426
                    },
                    {
                        "number": 64,
                        "time": 409.59166666667227,
                        "value": 1
                    },
                    {
                        "number": 64,
                        "time": 410.2354166666724,
                        "value": 0.49606299212598426
                    },
                    {
                        "number": 64,
                        "time": 410.2479166666724,
                        "value": 0
                    },
                    {
                        "number": 64,
                        "time": 410.3875000000058,
                        "value": 0.49606299212598426
                    },
                    {
                        "number": 64,
                        "time": 410.3916666666725,
                        "value": 1
                    },
                    {
                        "number": 64,
                        "time": 411.50416666667263,
                        "value": 0.49606299212598426
                    },
                    {
                        "number": 64,
                        "time": 411.5145833333393,
                        "value": 0
                    },
                    {
                        "number": 64,
                        "time": 411.575000000006,
                        "value": 0.49606299212598426
                    },
                    {
                        "number": 64,
                        "time": 411.58333333333934,
                        "value": 1
                    },
                    {
                        "number": 64,
                        "time": 411.91666666667265,
                        "value": 0.49606299212598426
                    },
                    {
                        "number": 64,
                        "time": 411.9208333333393,
                        "value": 0
                    },
                    {
                        "number": 64,
                        "time": 412.01875000000604,
                        "value": 0.49606299212598426
                    },
                    {
                        "number": 64,
                        "time": 412.0208333333394,
                        "value": 1
                    },
                    {
                        "number": 64,
                        "time": 412.7604166666729,
                        "value": 0.49606299212598426
                    },
                    {
                        "number": 64,
                        "time": 412.80625000000623,
                        "value": 1
                    },
                    {
                        "number": 64,
                        "time": 413.4000000000065,
                        "value": 0.49606299212598426
                    },
                    {
                        "number": 64,
                        "time": 413.4104166666732,
                        "value": 0
                    },
                    {
                        "number": 64,
                        "time": 413.5937500000066,
                        "value": 1
                    },
                    {
                        "number": 64,
                        "time": 414.7562500000068,
                        "value": 0.49606299212598426
                    },
                    {
                        "number": 64,
                        "time": 414.7666666666735,
                        "value": 0
                    },
                    {
                        "number": 64,
                        "time": 414.8416666666735,
                        "value": 0.49606299212598426
                    },
                    {
                        "number": 64,
                        "time": 414.8458333333402,
                        "value": 1
                    },
                    {
                        "number": 64,
                        "time": 415.1833333333403,
                        "value": 0.49606299212598426
                    },
                    {
                        "number": 64,
                        "time": 415.1916666666736,
                        "value": 0
                    },
                    {
                        "number": 64,
                        "time": 415.3083333333403,
                        "value": 0.49606299212598426
                    },
                    {
                        "number": 64,
                        "time": 415.31041666667363,
                        "value": 1
                    },
                    {
                        "number": 64,
                        "time": 416.031250000007,
                        "value": 0.49606299212598426
                    },
                    {
                        "number": 64,
                        "time": 416.03541666667365,
                        "value": 0
                    },
                    {
                        "number": 64,
                        "time": 416.26250000000715,
                        "value": 1
                    },
                    {
                        "number": 64,
                        "time": 416.7666666666738,
                        "value": 0.49606299212598426
                    },
                    {
                        "number": 64,
                        "time": 416.7770833333405,
                        "value": 0
                    },
                    {
                        "number": 64,
                        "time": 416.84375000000716,
                        "value": 0.49606299212598426
                    },
                    {
                        "number": 64,
                        "time": 416.85625000000715,
                        "value": 1
                    },
                    {
                        "number": 64,
                        "time": 417.5187500000072,
                        "value": 0.49606299212598426
                    },
                    {
                        "number": 64,
                        "time": 417.52916666667386,
                        "value": 0
                    },
                    {
                        "number": 64,
                        "time": 417.5958333333405,
                        "value": 0.49606299212598426
                    },
                    {
                        "number": 64,
                        "time": 417.61041666667387,
                        "value": 1
                    },
                    {
                        "number": 64,
                        "time": 418.39583333334053,
                        "value": 0.49606299212598426
                    },
                    {
                        "number": 64,
                        "time": 418.4166666666739,
                        "value": 0
                    },
                    {
                        "number": 64,
                        "time": 418.46250000000725,
                        "value": 0.49606299212598426
                    },
                    {
                        "number": 64,
                        "time": 418.4791666666739,
                        "value": 1
                    },
                    {
                        "number": 64,
                        "time": 418.80000000000723,
                        "value": 0.49606299212598426
                    },
                    {
                        "number": 64,
                        "time": 418.8104166666739,
                        "value": 0
                    },
                    {
                        "number": 64,
                        "time": 418.8833333333406,
                        "value": 0.49606299212598426
                    },
                    {
                        "number": 64,
                        "time": 418.8937500000073,
                        "value": 1
                    },
                    {
                        "number": 64,
                        "time": 419.785416666674,
                        "value": 0.49606299212598426
                    },
                    {
                        "number": 64,
                        "time": 419.804166666674,
                        "value": 0
                    },
                    {
                        "number": 64,
                        "time": 419.90625000000733,
                        "value": 0.49606299212598426
                    },
                    {
                        "number": 64,
                        "time": 419.922916666674,
                        "value": 1
                    },
                    {
                        "number": 64,
                        "time": 420.7312500000074,
                        "value": 0.49606299212598426
                    },
                    {
                        "number": 64,
                        "time": 420.7458333333407,
                        "value": 0
                    },
                    {
                        "number": 64,
                        "time": 420.89166666667404,
                        "value": 0.49606299212598426
                    },
                    {
                        "number": 64,
                        "time": 420.9020833333407,
                        "value": 1
                    },
                    {
                        "number": 64,
                        "time": 421.6958333333408,
                        "value": 0.49606299212598426
                    },
                    {
                        "number": 64,
                        "time": 421.71875000000745,
                        "value": 0
                    },
                    {
                        "number": 64,
                        "time": 421.9333333333408,
                        "value": 0.49606299212598426
                    },
                    {
                        "number": 64,
                        "time": 421.9395833333408,
                        "value": 1
                    },
                    {
                        "number": 64,
                        "time": 423.28125000000745,
                        "value": 0.49606299212598426
                    },
                    {
                        "number": 64,
                        "time": 423.29375000000744,
                        "value": 0
                    },
                    {
                        "number": 64,
                        "time": 423.3687500000074,
                        "value": 0.49606299212598426
                    },
                    {
                        "number": 64,
                        "time": 423.3833333333408,
                        "value": 1
                    },
                    {
                        "number": 64,
                        "time": 425.03125000000745,
                        "value": 0.49606299212598426
                    },
                    {
                        "number": 64,
                        "time": 425.0458333333408,
                        "value": 0
                    },
                    {
                        "number": 64,
                        "time": 425.0875000000075,
                        "value": 0.49606299212598426
                    },
                    {
                        "number": 64,
                        "time": 425.1083333333408,
                        "value": 1
                    },
                    {
                        "number": 64,
                        "time": 425.63750000000755,
                        "value": 0.49606299212598426
                    },
                    {
                        "number": 64,
                        "time": 425.6458333333409,
                        "value": 0
                    },
                    {
                        "number": 64,
                        "time": 425.71458333334084,
                        "value": 0.49606299212598426
                    },
                    {
                        "number": 64,
                        "time": 425.72708333334083,
                        "value": 1
                    },
                    {
                        "number": 64,
                        "time": 426.4770833333409,
                        "value": 0.49606299212598426
                    },
                    {
                        "number": 64,
                        "time": 426.4854166666742,
                        "value": 0
                    },
                    {
                        "number": 64,
                        "time": 426.7104166666742,
                        "value": 1
                    },
                    {
                        "number": 64,
                        "time": 427.92291666667415,
                        "value": 0.49606299212598426
                    },
                    {
                        "number": 64,
                        "time": 427.9291666666742,
                        "value": 0
                    },
                    {
                        "number": 64,
                        "time": 428.04791666667415,
                        "value": 0.49606299212598426
                    },
                    {
                        "number": 64,
                        "time": 428.0520833333408,
                        "value": 1
                    },
                    {
                        "number": 64,
                        "time": 429.3145833333408,
                        "value": 0.49606299212598426
                    },
                    {
                        "number": 64,
                        "time": 429.32083333334083,
                        "value": 0
                    },
                    {
                        "number": 64,
                        "time": 429.43333333334084,
                        "value": 0.49606299212598426
                    },
                    {
                        "number": 64,
                        "time": 429.44166666667417,
                        "value": 1
                    },
                    {
                        "number": 64,
                        "time": 430.1104166666742,
                        "value": 0.49606299212598426
                    },
                    {
                        "number": 64,
                        "time": 430.11875000000754,
                        "value": 0
                    },
                    {
                        "number": 64,
                        "time": 430.2541666666742,
                        "value": 0.49606299212598426
                    },
                    {
                        "number": 64,
                        "time": 430.2583333333409,
                        "value": 1
                    },
                    {
                        "number": 64,
                        "time": 431.08541666667423,
                        "value": 0.49606299212598426
                    },
                    {
                        "number": 64,
                        "time": 431.11250000000757,
                        "value": 0
                    },
                    {
                        "number": 64,
                        "time": 431.7062500000076,
                        "value": 0.49606299212598426
                    },
                    {
                        "number": 64,
                        "time": 431.708333333341,
                        "value": 1
                    },
                    {
                        "number": 64,
                        "time": 434.03958333334094,
                        "value": 0.49606299212598426
                    },
                    {
                        "number": 64,
                        "time": 434.3187500000076,
                        "value": 0
                    },
                    {
                        "number": 64,
                        "time": 435.26666666667427,
                        "value": 0.49606299212598426
                    },
                    {
                        "number": 64,
                        "time": 435.2937500000076,
                        "value": 1
                    },
                    {
                        "number": 64,
                        "time": 439.4354166666743,
                        "value": 0.49606299212598426
                    },
                    {
                        "number": 64,
                        "time": 440.15000000000765,
                        "value": 1
                    },
                    {
                        "number": 64,
                        "time": 440.3666666666743,
                        "value": 0.49606299212598426
                    },
                    {
                        "number": 64,
                        "time": 440.45208333334097,
                        "value": 0
                    },
                    {
                        "number": 64,
                        "time": 441.252083333341,
                        "value": 0.49606299212598426
                    },
                    {
                        "number": 64,
                        "time": 441.27708333334095,
                        "value": 1
                    },
                    {
                        "number": 64,
                        "time": 441.4958333333409,
                        "value": 0.49606299212598426
                    },
                    {
                        "number": 64,
                        "time": 441.5375000000076,
                        "value": 0
                    },
                    {
                        "number": 64,
                        "time": 441.6604166666742,
                        "value": 0.49606299212598426
                    },
                    {
                        "number": 64,
                        "time": 441.68958333334086,
                        "value": 1
                    },
                    {
                        "number": 64,
                        "time": 443.35833333334085,
                        "value": 0.49606299212598426
                    },
                    {
                        "number": 64,
                        "time": 443.3645833333409,
                        "value": 0
                    },
                    {
                        "number": 64,
                        "time": 443.64583333334093,
                        "value": 1
                    },
                    {
                        "number": 64,
                        "time": 444.845833333341,
                        "value": 0.49606299212598426
                    },
                    {
                        "number": 64,
                        "time": 444.85000000000764,
                        "value": 0
                    },
                    {
                        "number": 64,
                        "time": 444.94166666667434,
                        "value": 0.49606299212598426
                    },
                    {
                        "number": 64,
                        "time": 444.94791666667436,
                        "value": 1
                    },
                    {
                        "number": 64,
                        "time": 446.13750000000795,
                        "value": 0.49606299212598426
                    },
                    {
                        "number": 64,
                        "time": 446.1458333333413,
                        "value": 0
                    },
                    {
                        "number": 64,
                        "time": 446.96666666667505,
                        "value": 1
                    },
                    {
                        "number": 64,
                        "time": 447.5770833333417,
                        "value": 0.49606299212598426
                    },
                    {
                        "number": 64,
                        "time": 447.5875000000084,
                        "value": 0
                    },
                    {
                        "number": 64,
                        "time": 447.65000000000845,
                        "value": 0.49606299212598426
                    },
                    {
                        "number": 64,
                        "time": 447.66041666667513,
                        "value": 1
                    },
                    {
                        "number": 64,
                        "time": 447.71250000000856,
                        "value": 0.49606299212598426
                    },
                    {
                        "number": 64,
                        "time": 447.7333333333419,
                        "value": 0
                    },
                    {
                        "number": 64,
                        "time": 447.97916666667527,
                        "value": 1
                    },
                    {
                        "number": 64,
                        "time": 448.7250000000087,
                        "value": 0.49606299212598426
                    },
                    {
                        "number": 64,
                        "time": 448.7375000000087,
                        "value": 0
                    },
                    {
                        "number": 64,
                        "time": 448.7875000000087,
                        "value": 0.49606299212598426
                    },
                    {
                        "number": 64,
                        "time": 448.7979166666754,
                        "value": 1
                    },
                    {
                        "number": 64,
                        "time": 448.8812500000088,
                        "value": 0.49606299212598426
                    },
                    {
                        "number": 64,
                        "time": 448.8895833333421,
                        "value": 0
                    },
                    {
                        "number": 64,
                        "time": 448.9645833333421,
                        "value": 0.49606299212598426
                    },
                    {
                        "number": 64,
                        "time": 448.9708333333421,
                        "value": 1
                    },
                    {
                        "number": 64,
                        "time": 450.593750000009,
                        "value": 0.49606299212598426
                    },
                    {
                        "number": 64,
                        "time": 450.6020833333423,
                        "value": 0
                    },
                    {
                        "number": 64,
                        "time": 451.09791666667564,
                        "value": 0.49606299212598426
                    },
                    {
                        "number": 64,
                        "time": 451.10416666667567,
                        "value": 1
                    },
                    {
                        "number": 64,
                        "time": 451.50208333334234,
                        "value": 0.49606299212598426
                    },
                    {
                        "number": 64,
                        "time": 451.512500000009,
                        "value": 0
                    },
                    {
                        "number": 64,
                        "time": 451.668750000009,
                        "value": 0.49606299212598426
                    },
                    {
                        "number": 64,
                        "time": 451.6708333333424,
                        "value": 1
                    },
                    {
                        "number": 64,
                        "time": 452.17916666667577,
                        "value": 0.49606299212598426
                    },
                    {
                        "number": 64,
                        "time": 452.19166666667576,
                        "value": 0
                    },
                    {
                        "number": 64,
                        "time": 452.3145833333424,
                        "value": 0.49606299212598426
                    },
                    {
                        "number": 64,
                        "time": 452.33125000000905,
                        "value": 1
                    },
                    {
                        "number": 64,
                        "time": 452.91875000000914,
                        "value": 0.49606299212598426
                    },
                    {
                        "number": 64,
                        "time": 452.93125000000913,
                        "value": 0
                    },
                    {
                        "number": 64,
                        "time": 453.08750000000913,
                        "value": 0.49606299212598426
                    },
                    {
                        "number": 64,
                        "time": 453.09583333334245,
                        "value": 1
                    },
                    {
                        "number": 64,
                        "time": 453.3291666666758,
                        "value": 0.49606299212598426
                    },
                    {
                        "number": 64,
                        "time": 453.35416666667584,
                        "value": 0
                    },
                    {
                        "number": 64,
                        "time": 453.43541666667585,
                        "value": 0.49606299212598426
                    },
                    {
                        "number": 64,
                        "time": 453.45416666667586,
                        "value": 1
                    },
                    {
                        "number": 64,
                        "time": 453.8729166666758,
                        "value": 0.49606299212598426
                    },
                    {
                        "number": 64,
                        "time": 453.8937500000091,
                        "value": 0
                    },
                    {
                        "number": 64,
                        "time": 454.1937500000091,
                        "value": 0.49606299212598426
                    },
                    {
                        "number": 64,
                        "time": 454.21250000000913,
                        "value": 1
                    },
                    {
                        "number": 64,
                        "time": 455.0645833333425,
                        "value": 0.49606299212598426
                    },
                    {
                        "number": 64,
                        "time": 455.1312500000092,
                        "value": 0
                    },
                    {
                        "number": 64,
                        "time": 455.14166666667586,
                        "value": 0.49606299212598426
                    },
                    {
                        "number": 64,
                        "time": 455.2020833333425,
                        "value": 1
                    },
                    {
                        "number": 64,
                        "time": 455.7729166666759,
                        "value": 0.49606299212598426
                    },
                    {
                        "number": 64,
                        "time": 455.8020833333426,
                        "value": 0
                    },
                    {
                        "number": 64,
                        "time": 455.8916666666759,
                        "value": 0.49606299212598426
                    },
                    {
                        "number": 64,
                        "time": 455.9250000000093,
                        "value": 1
                    },
                    {
                        "number": 64,
                        "time": 456.08333333334264,
                        "value": 0.49606299212598426
                    },
                    {
                        "number": 64,
                        "time": 456.1062500000093,
                        "value": 0
                    },
                    {
                        "number": 64,
                        "time": 456.1562500000093,
                        "value": 0.49606299212598426
                    },
                    {
                        "number": 64,
                        "time": 456.18333333334266,
                        "value": 1
                    },
                    {
                        "number": 64,
                        "time": 456.3645833333427,
                        "value": 0.49606299212598426
                    },
                    {
                        "number": 64,
                        "time": 456.38958333334267,
                        "value": 0
                    },
                    {
                        "number": 64,
                        "time": 456.422916666676,
                        "value": 0.49606299212598426
                    },
                    {
                        "number": 64,
                        "time": 456.454166666676,
                        "value": 1
                    },
                    {
                        "number": 64,
                        "time": 457.0395833333426,
                        "value": 0.49606299212598426
                    },
                    {
                        "number": 64,
                        "time": 457.1083333333426,
                        "value": 1
                    },
                    {
                        "number": 64,
                        "time": 457.3020833333427,
                        "value": 0.49606299212598426
                    },
                    {
                        "number": 64,
                        "time": 457.31666666667604,
                        "value": 0
                    },
                    {
                        "number": 64,
                        "time": 457.3895833333427,
                        "value": 0.49606299212598426
                    },
                    {
                        "number": 64,
                        "time": 457.4041666666761,
                        "value": 1
                    },
                    {
                        "number": 64,
                        "time": 457.6062500000094,
                        "value": 0.49606299212598426
                    },
                    {
                        "number": 64,
                        "time": 457.6208333333428,
                        "value": 0
                    },
                    {
                        "number": 64,
                        "time": 457.68541666667613,
                        "value": 0.49606299212598426
                    },
                    {
                        "number": 64,
                        "time": 457.7000000000095,
                        "value": 1
                    },
                    {
                        "number": 64,
                        "time": 458.2541666666763,
                        "value": 0.49606299212598426
                    },
                    {
                        "number": 64,
                        "time": 458.2666666666763,
                        "value": 0
                    },
                    {
                        "number": 64,
                        "time": 458.327083333343,
                        "value": 0.49606299212598426
                    },
                    {
                        "number": 64,
                        "time": 458.3375000000097,
                        "value": 1
                    },
                    {
                        "number": 64,
                        "time": 458.57083333334305,
                        "value": 0.49606299212598426
                    },
                    {
                        "number": 64,
                        "time": 458.5833333333431,
                        "value": 0
                    },
                    {
                        "number": 64,
                        "time": 458.6312500000098,
                        "value": 0.49606299212598426
                    },
                    {
                        "number": 64,
                        "time": 458.64583333334315,
                        "value": 1
                    },
                    {
                        "number": 64,
                        "time": 459.0145833333432,
                        "value": 0.49606299212598426
                    },
                    {
                        "number": 64,
                        "time": 459.02500000000987,
                        "value": 0
                    },
                    {
                        "number": 64,
                        "time": 459.0833333333432,
                        "value": 0.49606299212598426
                    },
                    {
                        "number": 64,
                        "time": 459.10000000000986,
                        "value": 1
                    },
                    {
                        "number": 64,
                        "time": 459.6437500000099,
                        "value": 0.49606299212598426
                    },
                    {
                        "number": 64,
                        "time": 459.6541666666766,
                        "value": 0
                    },
                    {
                        "number": 64,
                        "time": 459.7708333333434,
                        "value": 0.49606299212598426
                    },
                    {
                        "number": 64,
                        "time": 459.7770833333434,
                        "value": 1
                    },
                    {
                        "number": 64,
                        "time": 459.8479166666767,
                        "value": 0.49606299212598426
                    },
                    {
                        "number": 64,
                        "time": 459.85625000001005,
                        "value": 0
                    },
                    {
                        "number": 64,
                        "time": 459.9833333333434,
                        "value": 0.49606299212598426
                    },
                    {
                        "number": 64,
                        "time": 459.98958333334343,
                        "value": 1
                    },
                    {
                        "number": 64,
                        "time": 460.5000000000101,
                        "value": 0.49606299212598426
                    },
                    {
                        "number": 64,
                        "time": 460.5125000000101,
                        "value": 0
                    },
                    {
                        "number": 64,
                        "time": 460.5812500000101,
                        "value": 0.49606299212598426
                    },
                    {
                        "number": 64,
                        "time": 460.59166666667676,
                        "value": 1
                    },
                    {
                        "number": 64,
                        "time": 461.1562500000102,
                        "value": 0.49606299212598426
                    },
                    {
                        "number": 64,
                        "time": 461.16875000001016,
                        "value": 0
                    },
                    {
                        "number": 64,
                        "time": 461.2520833333436,
                        "value": 0.49606299212598426
                    },
                    {
                        "number": 64,
                        "time": 461.2645833333436,
                        "value": 1
                    },
                    {
                        "number": 64,
                        "time": 461.78333333334365,
                        "value": 0.49606299212598426
                    },
                    {
                        "number": 64,
                        "time": 461.797916666677,
                        "value": 0
                    },
                    {
                        "number": 64,
                        "time": 461.8687500000103,
                        "value": 0.49606299212598426
                    },
                    {
                        "number": 64,
                        "time": 461.8812500000103,
                        "value": 1
                    },
                    {
                        "number": 64,
                        "time": 462.43958333334376,
                        "value": 0.49606299212598426
                    },
                    {
                        "number": 64,
                        "time": 462.45208333334375,
                        "value": 0
                    },
                    {
                        "number": 64,
                        "time": 462.5104166666771,
                        "value": 0.49606299212598426
                    },
                    {
                        "number": 64,
                        "time": 462.5312500000104,
                        "value": 1
                    },
                    {
                        "number": 64,
                        "time": 463.06666666667724,
                        "value": 0.49606299212598426
                    },
                    {
                        "number": 64,
                        "time": 463.0812500000106,
                        "value": 0
                    },
                    {
                        "number": 64,
                        "time": 463.1437500000106,
                        "value": 0.49606299212598426
                    },
                    {
                        "number": 64,
                        "time": 463.16041666667724,
                        "value": 1
                    },
                    {
                        "number": 64,
                        "time": 463.35000000001054,
                        "value": 0.49606299212598426
                    },
                    {
                        "number": 64,
                        "time": 463.3645833333439,
                        "value": 0
                    },
                    {
                        "number": 64,
                        "time": 463.40416666667727,
                        "value": 0.49606299212598426
                    },
                    {
                        "number": 64,
                        "time": 463.4229166666773,
                        "value": 1
                    },
                    {
                        "number": 64,
                        "time": 463.63125000001065,
                        "value": 0.49606299212598426
                    },
                    {
                        "number": 64,
                        "time": 463.64166666667734,
                        "value": 0
                    },
                    {
                        "number": 64,
                        "time": 463.71250000001066,
                        "value": 0.49606299212598426
                    },
                    {
                        "number": 64,
                        "time": 463.7312500000107,
                        "value": 1
                    },
                    {
                        "number": 64,
                        "time": 464.11041666667734,
                        "value": 0.49606299212598426
                    },
                    {
                        "number": 64,
                        "time": 464.120833333344,
                        "value": 0
                    },
                    {
                        "number": 64,
                        "time": 464.20625000001075,
                        "value": 0.49606299212598426
                    },
                    {
                        "number": 64,
                        "time": 464.2208333333441,
                        "value": 1
                    },
                    {
                        "number": 64,
                        "time": 464.8541666666776,
                        "value": 0.49606299212598426
                    },
                    {
                        "number": 64,
                        "time": 464.8666666666776,
                        "value": 0
                    },
                    {
                        "number": 64,
                        "time": 464.9729166666776,
                        "value": 0.49606299212598426
                    },
                    {
                        "number": 64,
                        "time": 464.9791666666776,
                        "value": 1
                    },
                    {
                        "number": 64,
                        "time": 465.875000000011,
                        "value": 0.49606299212598426
                    },
                    {
                        "number": 64,
                        "time": 465.9208333333444,
                        "value": 1
                    },
                    {
                        "number": 64,
                        "time": 468.2729166666778,
                        "value": 0.49606299212598426
                    },
                    {
                        "number": 64,
                        "time": 468.28750000001116,
                        "value": 0
                    },
                    {
                        "number": 64,
                        "time": 469.63750000001124,
                        "value": 1
                    },
                    {
                        "number": 64,
                        "time": 470.11041666667796,
                        "value": 0.49606299212598426
                    },
                    {
                        "number": 64,
                        "time": 470.1375000000113,
                        "value": 0
                    },
                    {
                        "number": 64,
                        "time": 470.29791666667796,
                        "value": 0.49606299212598426
                    },
                    {
                        "number": 64,
                        "time": 470.31041666667795,
                        "value": 1
                    },
                    {
                        "number": 64,
                        "time": 470.6187500000113,
                        "value": 0.49606299212598426
                    },
                    {
                        "number": 64,
                        "time": 470.6312500000113,
                        "value": 0
                    },
                    {
                        "number": 64,
                        "time": 470.7500000000113,
                        "value": 0.49606299212598426
                    },
                    {
                        "number": 64,
                        "time": 470.7625000000113,
                        "value": 1
                    },
                    {
                        "number": 64,
                        "time": 471.3166666666779,
                        "value": 0.49606299212598426
                    },
                    {
                        "number": 64,
                        "time": 471.3520833333446,
                        "value": 0
                    },
                    {
                        "number": 64,
                        "time": 471.47083333334456,
                        "value": 0.49606299212598426
                    },
                    {
                        "number": 64,
                        "time": 471.4916666666779,
                        "value": 1
                    },
                    {
                        "number": 64,
                        "time": 471.80208333334457,
                        "value": 0.49606299212598426
                    },
                    {
                        "number": 64,
                        "time": 471.83750000001123,
                        "value": 0
                    },
                    {
                        "number": 64,
                        "time": 471.8604166666779,
                        "value": 0.49606299212598426
                    },
                    {
                        "number": 64,
                        "time": 471.89375000001127,
                        "value": 1
                    },
                    {
                        "number": 64,
                        "time": 472.11666666667793,
                        "value": 0.49606299212598426
                    },
                    {
                        "number": 64,
                        "time": 472.15625000001125,
                        "value": 0
                    },
                    {
                        "number": 64,
                        "time": 472.5687500000113,
                        "value": 0.49606299212598426
                    },
                    {
                        "number": 64,
                        "time": 472.5750000000113,
                        "value": 1
                    },
                    {
                        "number": 64,
                        "time": 473.05833333334465,
                        "value": 0.49606299212598426
                    },
                    {
                        "number": 64,
                        "time": 473.08750000001135,
                        "value": 0
                    },
                    {
                        "number": 64,
                        "time": 473.32708333334466,
                        "value": 0.49606299212598426
                    },
                    {
                        "number": 64,
                        "time": 473.40000000001135,
                        "value": 1
                    },
                    {
                        "number": 64,
                        "time": 473.58541666667804,
                        "value": 0.49606299212598426
                    },
                    {
                        "number": 64,
                        "time": 473.766666666678,
                        "value": 0
                    },
                    {
                        "number": 64,
                        "time": 474.3833333333447,
                        "value": 0.49606299212598426
                    },
                    {
                        "number": 64,
                        "time": 474.391666666678,
                        "value": 1
                    },
                    {
                        "number": 64,
                        "time": 474.94791666667805,
                        "value": 0.49606299212598426
                    },
                    {
                        "number": 64,
                        "time": 475.0145833333447,
                        "value": 0
                    },
                    {
                        "number": 64,
                        "time": 475.36458333334474,
                        "value": 0.49606299212598426
                    },
                    {
                        "number": 64,
                        "time": 475.3750000000114,
                        "value": 1
                    },
                    {
                        "number": 64,
                        "time": 475.7229166666781,
                        "value": 0.49606299212598426
                    },
                    {
                        "number": 64,
                        "time": 475.7437500000114,
                        "value": 0
                    },
                    {
                        "number": 64,
                        "time": 478.06041666667807,
                        "value": 0.49606299212598426
                    },
                    {
                        "number": 64,
                        "time": 478.08541666667804,
                        "value": 1
                    },
                    {
                        "number": 64,
                        "time": 478.61666666667804,
                        "value": 0.49606299212598426
                    },
                    {
                        "number": 64,
                        "time": 478.6437500000114,
                        "value": 0
                    },
                    {
                        "number": 64,
                        "time": 478.7250000000114,
                        "value": 0.49606299212598426
                    },
                    {
                        "number": 64,
                        "time": 478.7625000000114,
                        "value": 1
                    },
                    {
                        "number": 64,
                        "time": 480.3416666666781,
                        "value": 0.49606299212598426
                    },
                    {
                        "number": 64,
                        "time": 480.35000000001145,
                        "value": 0
                    },
                    {
                        "number": 64,
                        "time": 481.80000000001144,
                        "value": 0.49606299212598426
                    },
                    {
                        "number": 64,
                        "time": 481.8250000000114,
                        "value": 1
                    },
                    {
                        "number": 64,
                        "time": 482.8791666666781,
                        "value": 0.49606299212598426
                    },
                    {
                        "number": 64,
                        "time": 483.3854166666781,
                        "value": 0.49606299212598426
                    },
                    {
                        "number": 64,
                        "time": 483.4520833333448,
                        "value": 1
                    },
                    {
                        "number": 64,
                        "time": 483.67500000001144,
                        "value": 0.49606299212598426
                    },
                    {
                        "number": 64,
                        "time": 483.69375000001145,
                        "value": 0
                    },
                    {
                        "number": 64,
                        "time": 484.0937500000115,
                        "value": 0.49606299212598426
                    },
                    {
                        "number": 64,
                        "time": 484.11666666667816,
                        "value": 1
                    },
                    {
                        "number": 64,
                        "time": 484.30625000001146,
                        "value": 0.49606299212598426
                    },
                    {
                        "number": 64,
                        "time": 484.33125000001144,
                        "value": 0
                    },
                    {
                        "number": 64,
                        "time": 485.635416666678,
                        "value": 0.49606299212598426
                    },
                    {
                        "number": 64,
                        "time": 485.660416666678,
                        "value": 1
                    },
                    {
                        "number": 64,
                        "time": 485.9145833333447,
                        "value": 0.49606299212598426
                    },
                    {
                        "number": 64,
                        "time": 485.92916666667804,
                        "value": 0
                    },
                    {
                        "number": 64,
                        "time": 486.5625000000113,
                        "value": 0.49606299212598426
                    },
                    {
                        "number": 64,
                        "time": 486.597916666678,
                        "value": 1
                    },
                    {
                        "number": 64,
                        "time": 486.9750000000114,
                        "value": 0.49606299212598426
                    },
                    {
                        "number": 64,
                        "time": 486.99791666667807,
                        "value": 0
                    },
                    {
                        "number": 64,
                        "time": 487.8750000000115,
                        "value": 0.49606299212598426
                    },
                    {
                        "number": 64,
                        "time": 487.9125000000115,
                        "value": 1
                    },
                    {
                        "number": 64,
                        "time": 488.14791666667816,
                        "value": 0.49606299212598426
                    },
                    {
                        "number": 64,
                        "time": 488.18958333334484,
                        "value": 0
                    },
                    {
                        "number": 64,
                        "time": 489.90416666667824,
                        "value": 0.49606299212598426
                    },
                    {
                        "number": 64,
                        "time": 489.9312500000116,
                        "value": 1
                    },
                    {
                        "number": 64,
                        "time": 490.65625000001165,
                        "value": 0.49606299212598426
                    },
                    {
                        "number": 64,
                        "time": 490.6791666666783,
                        "value": 0
                    },
                    {
                        "number": 64,
                        "time": 490.76875000001166,
                        "value": 0.49606299212598426
                    },
                    {
                        "number": 64,
                        "time": 490.789583333345,
                        "value": 1
                    },
                    {
                        "number": 64,
                        "time": 491.59375000001177,
                        "value": 0.49606299212598426
                    },
                    {
                        "number": 64,
                        "time": 491.60416666667845,
                        "value": 0
                    },
                    {
                        "number": 64,
                        "time": 492.3041666666785,
                        "value": 0.49606299212598426
                    },
                    {
                        "number": 64,
                        "time": 492.30625000001186,
                        "value": 1
                    },
                    {
                        "number": 64,
                        "time": 492.8229166666785,
                        "value": 0.49606299212598426
                    },
                    {
                        "number": 64,
                        "time": 492.82916666667853,
                        "value": 0
                    },
                    {
                        "number": 64,
                        "time": 493.4958333333452,
                        "value": 0.49606299212598426
                    },
                    {
                        "number": 64,
                        "time": 493.51250000001187,
                        "value": 1
                    },
                    {
                        "number": 64,
                        "time": 493.8062500000118,
                        "value": 0.49606299212598426
                    },
                    {
                        "number": 64,
                        "time": 493.8270833333451,
                        "value": 0
                    },
                    {
                        "number": 64,
                        "time": 494.5750000000118,
                        "value": 0.49606299212598426
                    },
                    {
                        "number": 64,
                        "time": 494.6166666666785,
                        "value": 1
                    },
                    {
                        "number": 64,
                        "time": 495.0062500000118,
                        "value": 0.49606299212598426
                    },
                    {
                        "number": 64,
                        "time": 495.0625000000118,
                        "value": 0
                    },
                    {
                        "number": 64,
                        "time": 495.5479166666785,
                        "value": 0.49606299212598426
                    },
                    {
                        "number": 64,
                        "time": 495.56875000001185,
                        "value": 1
                    },
                    {
                        "number": 64,
                        "time": 495.97500000001185,
                        "value": 0.49606299212598426
                    },
                    {
                        "number": 64,
                        "time": 496.0291666666785,
                        "value": 0
                    },
                    {
                        "number": 64,
                        "time": 496.6166666666786,
                        "value": 0.49606299212598426
                    },
                    {
                        "number": 64,
                        "time": 496.687500000012,
                        "value": 1
                    },
                    {
                        "number": 64,
                        "time": 497.0604166666787,
                        "value": 0.49606299212598426
                    },
                    {
                        "number": 64,
                        "time": 497.1291666666787,
                        "value": 0
                    },
                    {
                        "number": 64,
                        "time": 499.4583333333457,
                        "value": 0.49606299212598426
                    },
                    {
                        "number": 64,
                        "time": 499.5812500000124,
                        "value": 1
                    },
                    {
                        "number": 64,
                        "time": 499.7270833333457,
                        "value": 0.49606299212598426
                    },
                    {
                        "number": 64,
                        "time": 499.90208333334573,
                        "value": 0
                    },
                    {
                        "number": 64,
                        "time": 502.12083333334584,
                        "value": 0.49606299212598426
                    },
                    {
                        "number": 64,
                        "time": 502.2729166666792,
                        "value": 1
                    },
                    {
                        "number": 64,
                        "time": 502.4250000000126,
                        "value": 0.49606299212598426
                    },
                    {
                        "number": 64,
                        "time": 502.76041666667925,
                        "value": 0
                    },
                    {
                        "number": 64,
                        "time": 507.17083333334637,
                        "value": 0.49606299212598426
                    },
                    {
                        "number": 64,
                        "time": 507.2541666666797,
                        "value": 1
                    },
                    {
                        "number": 64,
                        "time": 507.5020833333463,
                        "value": 0.49606299212598426
                    },
                    {
                        "number": 64,
                        "time": 507.5854166666797,
                        "value": 0
                    },
                    {
                        "number": 64,
                        "time": 509.1479166666798,
                        "value": 0.49606299212598426
                    },
                    {
                        "number": 64,
                        "time": 509.2000000000131,
                        "value": 1
                    },
                    {
                        "number": 64,
                        "time": 509.6333333333465,
                        "value": 0.49606299212598426
                    },
                    {
                        "number": 64,
                        "time": 509.71041666667986,
                        "value": 0
                    },
                    {
                        "number": 64,
                        "time": 510.6708333333466,
                        "value": 0.49606299212598426
                    },
                    {
                        "number": 64,
                        "time": 510.85416666668,
                        "value": 0
                    },
                    {
                        "number": 64,
                        "time": 516.7895833333465,
                        "value": 0.49606299212598426
                    },
                    {
                        "number": 64,
                        "time": 516.8104166666799,
                        "value": 1
                    },
                    {
                        "number": 64,
                        "time": 517.6604166666799,
                        "value": 0.49606299212598426
                    },
                    {
                        "number": 64,
                        "time": 517.7000000000132,
                        "value": 0
                    },
                    {
                        "number": 64,
                        "time": 517.7208333333466,
                        "value": 0.49606299212598426
                    },
                    {
                        "number": 64,
                        "time": 517.7625000000132,
                        "value": 1
                    },
                    {
                        "number": 64,
                        "time": 517.9937500000133,
                        "value": 0.49606299212598426
                    },
                    {
                        "number": 64,
                        "time": 518.0125000000132,
                        "value": 0
                    },
                    {
                        "number": 64,
                        "time": 518.2770833333466,
                        "value": 0.49606299212598426
                    },
                    {
                        "number": 64,
                        "time": 518.2812500000133,
                        "value": 1
                    },
                    {
                        "number": 64,
                        "time": 518.8458333333467,
                        "value": 0.49606299212598426
                    },
                    {
                        "number": 64,
                        "time": 518.8666666666801,
                        "value": 0
                    },
                    {
                        "number": 64,
                        "time": 518.94791666668,
                        "value": 0.49606299212598426
                    },
                    {
                        "number": 64,
                        "time": 518.9645833333467,
                        "value": 1
                    },
                    {
                        "number": 64,
                        "time": 519.66666666668,
                        "value": 0.49606299212598426
                    },
                    {
                        "number": 64,
                        "time": 519.69791666668,
                        "value": 0
                    },
                    {
                        "number": 64,
                        "time": 519.9458333333467,
                        "value": 0.49606299212598426
                    },
                    {
                        "number": 64,
                        "time": 519.9666666666801,
                        "value": 1
                    },
                    {
                        "number": 64,
                        "time": 521.7520833333468,
                        "value": 0.49606299212598426
                    },
                    {
                        "number": 64,
                        "time": 521.8583333333469,
                        "value": 0
                    },
                    {
                        "number": 64,
                        "time": 522.1333333333469,
                        "value": 0.49606299212598426
                    },
                    {
                        "number": 64,
                        "time": 522.1437500000135,
                        "value": 1
                    },
                    {
                        "number": 64,
                        "time": 523.8750000000134,
                        "value": 0.49606299212598426
                    },
                    {
                        "number": 64,
                        "time": 523.8875000000135,
                        "value": 0
                    },
                    {
                        "number": 64,
                        "time": 524.13541666668,
                        "value": 0.49606299212598426
                    },
                    {
                        "number": 64,
                        "time": 524.13541666668,
                        "value": 1
                    },
                    {
                        "number": 64,
                        "time": 524.5958333333466,
                        "value": 0.49606299212598426
                    },
                    {
                        "number": 64,
                        "time": 524.6000000000133,
                        "value": 0
                    },
                    {
                        "number": 64,
                        "time": 524.81666666668,
                        "value": 0.49606299212598426
                    },
                    {
                        "number": 64,
                        "time": 524.81666666668,
                        "value": 1
                    },
                    {
                        "number": 64,
                        "time": 525.2395833333471,
                        "value": 0.49606299212598426
                    },
                    {
                        "number": 64,
                        "time": 525.2437500000138,
                        "value": 0
                    },
                    {
                        "number": 64,
                        "time": 525.6333333333475,
                        "value": 1
                    },
                    {
                        "number": 64,
                        "time": 525.9979166666809,
                        "value": 0.49606299212598426
                    },
                    {
                        "number": 64,
                        "time": 526.0020833333476,
                        "value": 0
                    },
                    {
                        "number": 64,
                        "time": 526.1625000000142,
                        "value": 1
                    },
                    {
                        "number": 64,
                        "time": 526.3145833333475,
                        "value": 0.49606299212598426
                    },
                    {
                        "number": 64,
                        "time": 526.3166666666808,
                        "value": 0
                    },
                    {
                        "number": 64,
                        "time": 526.4000000000142,
                        "value": 0.49606299212598426
                    },
                    {
                        "number": 64,
                        "time": 526.4062500000142,
                        "value": 1
                    },
                    {
                        "number": 64,
                        "time": 526.5645833333474,
                        "value": 0.49606299212598426
                    },
                    {
                        "number": 64,
                        "time": 526.5666666666807,
                        "value": 0
                    },
                    {
                        "number": 64,
                        "time": 526.7354166666807,
                        "value": 1
                    },
                    {
                        "number": 64,
                        "time": 527.2125000000142,
                        "value": 0.49606299212598426
                    },
                    {
                        "number": 64,
                        "time": 527.2145833333475,
                        "value": 0
                    },
                    {
                        "number": 64,
                        "time": 527.3250000000141,
                        "value": 0.49606299212598426
                    },
                    {
                        "number": 64,
                        "time": 527.3312500000142,
                        "value": 1
                    },
                    {
                        "number": 64,
                        "time": 528.0145833333473,
                        "value": 0.49606299212598426
                    },
                    {
                        "number": 64,
                        "time": 528.0166666666806,
                        "value": 0
                    },
                    {
                        "number": 64,
                        "time": 528.181250000014,
                        "value": 1
                    },
                    {
                        "number": 64,
                        "time": 529.7166666666809,
                        "value": 0.49606299212598426
                    },
                    {
                        "number": 64,
                        "time": 529.729166666681,
                        "value": 0
                    },
                    {
                        "number": 64,
                        "time": 529.7770833333476,
                        "value": 0.49606299212598426
                    },
                    {
                        "number": 64,
                        "time": 529.7875000000142,
                        "value": 1
                    },
                    {
                        "number": 64,
                        "time": 531.218750000014,
                        "value": 0.49606299212598426
                    },
                    {
                        "number": 64,
                        "time": 531.2229166666807,
                        "value": 0
                    },
                    {
                        "number": 64,
                        "time": 531.3354166666808,
                        "value": 0.49606299212598426
                    },
                    {
                        "number": 64,
                        "time": 531.3395833333475,
                        "value": 1
                    },
                    {
                        "number": 64,
                        "time": 532.7604166666808,
                        "value": 0.49606299212598426
                    },
                    {
                        "number": 64,
                        "time": 532.7750000000142,
                        "value": 0
                    },
                    {
                        "number": 64,
                        "time": 532.8458333333475,
                        "value": 0.49606299212598426
                    },
                    {
                        "number": 64,
                        "time": 532.8500000000142,
                        "value": 1
                    },
                    {
                        "number": 64,
                        "time": 534.0958333333477,
                        "value": 0.49606299212598426
                    },
                    {
                        "number": 64,
                        "time": 534.1083333333478,
                        "value": 0
                    },
                    {
                        "number": 64,
                        "time": 534.1729166666811,
                        "value": 0.49606299212598426
                    },
                    {
                        "number": 64,
                        "time": 534.1812500000144,
                        "value": 1
                    },
                    {
                        "number": 64,
                        "time": 536.3520833333478,
                        "value": 0.49606299212598426
                    },
                    {
                        "number": 64,
                        "time": 536.3666666666811,
                        "value": 0
                    },
                    {
                        "number": 64,
                        "time": 536.4125000000145,
                        "value": 0.49606299212598426
                    },
                    {
                        "number": 64,
                        "time": 536.4250000000145,
                        "value": 1
                    },
                    {
                        "number": 64,
                        "time": 537.0125000000143,
                        "value": 0.49606299212598426
                    },
                    {
                        "number": 64,
                        "time": 537.0229166666809,
                        "value": 0
                    },
                    {
                        "number": 64,
                        "time": 537.1312500000142,
                        "value": 0.49606299212598426
                    },
                    {
                        "number": 64,
                        "time": 537.1333333333475,
                        "value": 1
                    },
                    {
                        "number": 64,
                        "time": 537.9125000000146,
                        "value": 0.49606299212598426
                    },
                    {
                        "number": 64,
                        "time": 537.9250000000146,
                        "value": 0
                    },
                    {
                        "number": 64,
                        "time": 537.9687500000147,
                        "value": 0.49606299212598426
                    },
                    {
                        "number": 64,
                        "time": 537.9812500000147,
                        "value": 1
                    },
                    {
                        "number": 64,
                        "time": 540.1583333333482,
                        "value": 0.49606299212598426
                    },
                    {
                        "number": 64,
                        "time": 540.1750000000148,
                        "value": 0
                    },
                    {
                        "number": 64,
                        "time": 540.8562500000147,
                        "value": 1
                    },
                    {
                        "number": 64,
                        "time": 541.7062500000147,
                        "value": 0.49606299212598426
                    },
                    {
                        "number": 64,
                        "time": 541.7145833333481,
                        "value": 0
                    },
                    {
                        "number": 64,
                        "time": 542.1937500000148,
                        "value": 1
                    },
                    {
                        "number": 64,
                        "time": 542.4083333333482,
                        "value": 0.49606299212598426
                    },
                    {
                        "number": 64,
                        "time": 542.4104166666815,
                        "value": 0
                    },
                    {
                        "number": 64,
                        "time": 542.5104166666815,
                        "value": 0.49606299212598426
                    },
                    {
                        "number": 64,
                        "time": 542.5166666666815,
                        "value": 1
                    },
                    {
                        "number": 64,
                        "time": 542.5833333333482,
                        "value": 0.49606299212598426
                    },
                    {
                        "number": 64,
                        "time": 542.5875000000149,
                        "value": 0
                    },
                    {
                        "number": 64,
                        "time": 542.7937500000149,
                        "value": 1
                    },
                    {
                        "number": 64,
                        "time": 543.0645833333484,
                        "value": 0.49606299212598426
                    },
                    {
                        "number": 64,
                        "time": 543.0666666666817,
                        "value": 0
                    },
                    {
                        "number": 64,
                        "time": 543.5125000000149,
                        "value": 1
                    },
                    {
                        "number": 64,
                        "time": 544.2833333333483,
                        "value": 0.49606299212598426
                    },
                    {
                        "number": 64,
                        "time": 544.2937500000149,
                        "value": 0
                    },
                    {
                        "number": 64,
                        "time": 544.468750000015,
                        "value": 0.49606299212598426
                    },
                    {
                        "number": 64,
                        "time": 544.468750000015,
                        "value": 1
                    },
                    {
                        "number": 64,
                        "time": 545.0770833333481,
                        "value": 0.49606299212598426
                    },
                    {
                        "number": 64,
                        "time": 545.0812500000148,
                        "value": 0
                    },
                    {
                        "number": 64,
                        "time": 545.1729166666815,
                        "value": 0.49606299212598426
                    },
                    {
                        "number": 64,
                        "time": 545.1791666666816,
                        "value": 1
                    },
                    {
                        "number": 64,
                        "time": 545.4729166666817,
                        "value": 0.49606299212598426
                    },
                    {
                        "number": 64,
                        "time": 545.4791666666817,
                        "value": 0
                    },
                    {
                        "number": 64,
                        "time": 545.5875000000151,
                        "value": 1
                    },
                    {
                        "number": 64,
                        "time": 546.7937500000149,
                        "value": 0.49606299212598426
                    },
                    {
                        "number": 64,
                        "time": 546.8083333333483,
                        "value": 0
                    },
                    {
                        "number": 64,
                        "time": 546.8395833333483,
                        "value": 0.49606299212598426
                    },
                    {
                        "number": 64,
                        "time": 546.8520833333483,
                        "value": 1
                    },
                    {
                        "number": 64,
                        "time": 547.6145833333485,
                        "value": 0.49606299212598426
                    },
                    {
                        "number": 64,
                        "time": 547.6187500000151,
                        "value": 0
                    },
                    {
                        "number": 64,
                        "time": 547.6979166666817,
                        "value": 0.49606299212598426
                    },
                    {
                        "number": 64,
                        "time": 547.7041666666818,
                        "value": 1
                    },
                    {
                        "number": 64,
                        "time": 548.5270833333485,
                        "value": 0.49606299212598426
                    },
                    {
                        "number": 64,
                        "time": 548.5479166666818,
                        "value": 0
                    },
                    {
                        "number": 64,
                        "time": 548.5916666666818,
                        "value": 0.49606299212598426
                    },
                    {
                        "number": 64,
                        "time": 548.6083333333485,
                        "value": 1
                    },
                    {
                        "number": 64,
                        "time": 548.9375000000151,
                        "value": 0.49606299212598426
                    },
                    {
                        "number": 64,
                        "time": 548.9562500000151,
                        "value": 0
                    },
                    {
                        "number": 64,
                        "time": 548.9791666666817,
                        "value": 0.49606299212598426
                    },
                    {
                        "number": 64,
                        "time": 549.0000000000151,
                        "value": 1
                    },
                    {
                        "number": 64,
                        "time": 550.3125000000153,
                        "value": 0.49606299212598426
                    },
                    {
                        "number": 64,
                        "time": 550.3270833333487,
                        "value": 0
                    },
                    {
                        "number": 64,
                        "time": 550.3875000000153,
                        "value": 0.49606299212598426
                    },
                    {
                        "number": 64,
                        "time": 550.3979166666819,
                        "value": 1
                    },
                    {
                        "number": 64,
                        "time": 551.2291666666817,
                        "value": 0.49606299212598426
                    },
                    {
                        "number": 64,
                        "time": 551.2395833333484,
                        "value": 0
                    },
                    {
                        "number": 64,
                        "time": 551.3333333333484,
                        "value": 0.49606299212598426
                    },
                    {
                        "number": 64,
                        "time": 551.3354166666817,
                        "value": 1
                    },
                    {
                        "number": 64,
                        "time": 551.8458333333484,
                        "value": 0.49606299212598426
                    },
                    {
                        "number": 64,
                        "time": 551.8520833333484,
                        "value": 0
                    },
                    {
                        "number": 64,
                        "time": 551.9687500000151,
                        "value": 0.49606299212598426
                    },
                    {
                        "number": 64,
                        "time": 551.9708333333484,
                        "value": 1
                    },
                    {
                        "number": 64,
                        "time": 552.5708333333483,
                        "value": 0.49606299212598426
                    },
                    {
                        "number": 64,
                        "time": 552.5770833333484,
                        "value": 0
                    },
                    {
                        "number": 64,
                        "time": 552.656250000015,
                        "value": 0.49606299212598426
                    },
                    {
                        "number": 64,
                        "time": 552.6583333333483,
                        "value": 1
                    },
                    {
                        "number": 64,
                        "time": 553.0625000000149,
                        "value": 0.49606299212598426
                    },
                    {
                        "number": 64,
                        "time": 553.0687500000149,
                        "value": 0
                    },
                    {
                        "number": 64,
                        "time": 553.1958333333482,
                        "value": 0.49606299212598426
                    },
                    {
                        "number": 64,
                        "time": 553.2041666666815,
                        "value": 1
                    },
                    {
                        "number": 64,
                        "time": 558.5375000000151,
                        "value": 0.49606299212598426
                    },
                    {
                        "number": 64,
                        "time": 558.5562500000151,
                        "value": 0
                    },
                    {
                        "number": 64,
                        "time": 558.8000000000151,
                        "value": 1
                    },
                    {
                        "number": 64,
                        "time": 561.4687500000152,
                        "value": 0.49606299212598426
                    },
                    {
                        "number": 64,
                        "time": 561.4895833333486,
                        "value": 0
                    },
                    {
                        "number": 64,
                        "time": 561.5291666666819,
                        "value": 0.49606299212598426
                    },
                    {
                        "number": 64,
                        "time": 561.541666666682,
                        "value": 1
                    },
                    {
                        "number": 64,
                        "time": 561.7520833333487,
                        "value": 0.49606299212598426
                    },
                    {
                        "number": 64,
                        "time": 561.7791666666819,
                        "value": 0
                    },
                    {
                        "number": 64,
                        "time": 561.8000000000153,
                        "value": 0.49606299212598426
                    },
                    {
                        "number": 64,
                        "time": 561.829166666682,
                        "value": 1
                    },
                    {
                        "number": 64,
                        "time": 562.0645833333487,
                        "value": 0.49606299212598426
                    },
                    {
                        "number": 64,
                        "time": 562.0812500000153,
                        "value": 0
                    },
                    {
                        "number": 64,
                        "time": 562.1458333333486,
                        "value": 0.49606299212598426
                    },
                    {
                        "number": 64,
                        "time": 562.1625000000153,
                        "value": 1
                    },
                    {
                        "number": 64,
                        "time": 562.6104166666821,
                        "value": 0.49606299212598426
                    },
                    {
                        "number": 64,
                        "time": 562.6208333333487,
                        "value": 0
                    },
                    {
                        "number": 64,
                        "time": 564.491666666682,
                        "value": 0.49606299212598426
                    },
                    {
                        "number": 64,
                        "time": 564.5145833333487,
                        "value": 1
                    },
                    {
                        "number": 64,
                        "time": 566.6291666666821,
                        "value": 0.49606299212598426
                    },
                    {
                        "number": 64,
                        "time": 566.7875000000154,
                        "value": 0
                    },
                    {
                        "number": 64,
                        "time": 567.5979166666821,
                        "value": 0.49606299212598426
                    },
                    {
                        "number": 64,
                        "time": 567.6145833333487,
                        "value": 1
                    },
                    {
                        "number": 64,
                        "time": 568.1479166666821,
                        "value": 0.49606299212598426
                    },
                    {
                        "number": 64,
                        "time": 568.2104166666821,
                        "value": 1
                    },
                    {
                        "number": 64,
                        "time": 568.4770833333489,
                        "value": 0.49606299212598426
                    },
                    {
                        "number": 64,
                        "time": 568.5104166666823,
                        "value": 1
                    },
                    {
                        "number": 64,
                        "time": 568.9166666666822,
                        "value": 0.49606299212598426
                    },
                    {
                        "number": 64,
                        "time": 568.9375000000156,
                        "value": 0
                    },
                    {
                        "number": 64,
                        "time": 569.1020833333489,
                        "value": 0.49606299212598426
                    },
                    {
                        "number": 64,
                        "time": 569.1125000000155,
                        "value": 1
                    },
                    {
                        "number": 64,
                        "time": 569.4916666666824,
                        "value": 0.49606299212598426
                    },
                    {
                        "number": 64,
                        "time": 569.5145833333489,
                        "value": 0
                    },
                    {
                        "number": 64,
                        "time": 569.5479166666822,
                        "value": 0.49606299212598426
                    },
                    {
                        "number": 64,
                        "time": 569.5770833333489,
                        "value": 1
                    },
                    {
                        "number": 64,
                        "time": 570.045833333349,
                        "value": 0.49606299212598426
                    },
                    {
                        "number": 64,
                        "time": 570.0625000000157,
                        "value": 0
                    },
                    {
                        "number": 64,
                        "time": 570.2291666666823,
                        "value": 0.49606299212598426
                    },
                    {
                        "number": 64,
                        "time": 570.2437500000157,
                        "value": 1
                    },
                    {
                        "number": 64,
                        "time": 571.0750000000157,
                        "value": 0.49606299212598426
                    },
                    {
                        "number": 64,
                        "time": 571.1270833333491,
                        "value": 0
                    },
                    {
                        "number": 64,
                        "time": 571.1812500000158,
                        "value": 0.49606299212598426
                    },
                    {
                        "number": 64,
                        "time": 571.2104166666825,
                        "value": 1
                    },
                    {
                        "number": 64,
                        "time": 571.7375000000156,
                        "value": 0.49606299212598426
                    },
                    {
                        "number": 64,
                        "time": 571.7875000000156,
                        "value": 1
                    },
                    {
                        "number": 64,
                        "time": 572.1062500000156,
                        "value": 0.49606299212598426
                    },
                    {
                        "number": 64,
                        "time": 572.1854166666823,
                        "value": 1
                    },
                    {
                        "number": 64,
                        "time": 572.6437500000156,
                        "value": 0.49606299212598426
                    },
                    {
                        "number": 64,
                        "time": 572.6750000000156,
                        "value": 0
                    },
                    {
                        "number": 64,
                        "time": 572.770833333349,
                        "value": 0.49606299212598426
                    },
                    {
                        "number": 64,
                        "time": 572.7895833333489,
                        "value": 1
                    },
                    {
                        "number": 64,
                        "time": 573.3416666666823,
                        "value": 0.49606299212598426
                    },
                    {
                        "number": 64,
                        "time": 573.4104166666823,
                        "value": 1
                    },
                    {
                        "number": 64,
                        "time": 574.0416666666821,
                        "value": 0.49606299212598426
                    },
                    {
                        "number": 64,
                        "time": 574.0750000000154,
                        "value": 0
                    },
                    {
                        "number": 64,
                        "time": 574.2208333333488,
                        "value": 0.49606299212598426
                    },
                    {
                        "number": 64,
                        "time": 574.2520833333488,
                        "value": 1
                    },
                    {
                        "number": 64,
                        "time": 575.3875000000154,
                        "value": 0.49606299212598426
                    },
                    {
                        "number": 64,
                        "time": 575.4854166666821,
                        "value": 1
                    },
                    {
                        "number": 64,
                        "time": 576.033333333349,
                        "value": 0.49606299212598426
                    },
                    {
                        "number": 64,
                        "time": 576.102083333349,
                        "value": 1
                    },
                    {
                        "number": 64,
                        "time": 576.5104166666823,
                        "value": 0.49606299212598426
                    },
                    {
                        "number": 64,
                        "time": 576.5375000000156,
                        "value": 0
                    },
                    {
                        "number": 64,
                        "time": 576.7520833333489,
                        "value": 0.49606299212598426
                    },
                    {
                        "number": 64,
                        "time": 576.7583333333489,
                        "value": 1
                    },
                    {
                        "number": 64,
                        "time": 577.3645833333488,
                        "value": 0.49606299212598426
                    },
                    {
                        "number": 64,
                        "time": 577.3875000000155,
                        "value": 0
                    },
                    {
                        "number": 64,
                        "time": 577.4562500000155,
                        "value": 0.49606299212598426
                    },
                    {
                        "number": 64,
                        "time": 577.4750000000155,
                        "value": 1
                    },
                    {
                        "number": 64,
                        "time": 578.1812500000154,
                        "value": 0.49606299212598426
                    },
                    {
                        "number": 64,
                        "time": 578.2270833333488,
                        "value": 0
                    },
                    {
                        "number": 64,
                        "time": 578.8041666666821,
                        "value": 0.49606299212598426
                    },
                    {
                        "number": 64,
                        "time": 578.8166666666822,
                        "value": 1
                    },
                    {
                        "number": 64,
                        "time": 584.4750000000156,
                        "value": 0.49606299212598426
                    },
                    {
                        "number": 64,
                        "time": 584.6645833333489,
                        "value": 0
                    },
                    {
                        "number": 64,
                        "time": 586.1375000000155,
                        "value": 0.49606299212598426
                    },
                    {
                        "number": 64,
                        "time": 586.1666666666822,
                        "value": 1
                    },
                    {
                        "number": 64,
                        "time": 588.3104166666823,
                        "value": 0.49606299212598426
                    },
                    {
                        "number": 64,
                        "time": 588.333333333349,
                        "value": 0
                    },
                    {
                        "number": 64,
                        "time": 588.3729166666823,
                        "value": 0.49606299212598426
                    },
                    {
                        "number": 64,
                        "time": 588.3979166666822,
                        "value": 1
                    },
                    {
                        "number": 64,
                        "time": 589.1187500000156,
                        "value": 0.49606299212598426
                    },
                    {
                        "number": 64,
                        "time": 589.1395833333489,
                        "value": 0
                    },
                    {
                        "number": 64,
                        "time": 589.2125000000156,
                        "value": 0.49606299212598426
                    },
                    {
                        "number": 64,
                        "time": 589.2312500000155,
                        "value": 1
                    },
                    {
                        "number": 64,
                        "time": 589.7770833333487,
                        "value": 0.49606299212598426
                    },
                    {
                        "number": 64,
                        "time": 589.8020833333487,
                        "value": 0
                    },
                    {
                        "number": 64,
                        "time": 589.8895833333487,
                        "value": 0.49606299212598426
                    },
                    {
                        "number": 64,
                        "time": 589.9125000000154,
                        "value": 1
                    },
                    {
                        "number": 64,
                        "time": 590.5270833333489,
                        "value": 0.49606299212598426
                    },
                    {
                        "number": 64,
                        "time": 590.5520833333488,
                        "value": 0
                    },
                    {
                        "number": 64,
                        "time": 590.6291666666822,
                        "value": 0.49606299212598426
                    },
                    {
                        "number": 64,
                        "time": 590.6479166666821,
                        "value": 1
                    },
                    {
                        "number": 64,
                        "time": 591.2750000000154,
                        "value": 0.49606299212598426
                    },
                    {
                        "number": 64,
                        "time": 591.2937500000154,
                        "value": 0
                    },
                    {
                        "number": 64,
                        "time": 591.397916666682,
                        "value": 0.49606299212598426
                    },
                    {
                        "number": 64,
                        "time": 591.4145833333487,
                        "value": 1
                    },
                    {
                        "number": 64,
                        "time": 592.170833333349,
                        "value": 0.49606299212598426
                    },
                    {
                        "number": 64,
                        "time": 592.1791666666824,
                        "value": 0
                    },
                    {
                        "number": 64,
                        "time": 592.3229166666823,
                        "value": 0.49606299212598426
                    },
                    {
                        "number": 64,
                        "time": 592.3312500000156,
                        "value": 1
                    },
                    {
                        "number": 64,
                        "time": 592.8104166666823,
                        "value": 0.49606299212598426
                    },
                    {
                        "number": 64,
                        "time": 592.8125000000156,
                        "value": 0
                    },
                    {
                        "number": 64,
                        "time": 592.9562500000156,
                        "value": 0.49606299212598426
                    },
                    {
                        "number": 64,
                        "time": 592.9562500000156,
                        "value": 1
                    },
                    {
                        "number": 64,
                        "time": 596.2333333333489,
                        "value": 0.49606299212598426
                    },
                    {
                        "number": 64,
                        "time": 596.2479166666823,
                        "value": 0
                    },
                    {
                        "number": 64,
                        "time": 596.9541666666823,
                        "value": 0.49606299212598426
                    },
                    {
                        "number": 64,
                        "time": 596.9583333333491,
                        "value": 1
                    },
                    {
                        "number": 64,
                        "time": 597.7625000000156,
                        "value": 0.49606299212598426
                    },
                    {
                        "number": 64,
                        "time": 597.777083333349,
                        "value": 0
                    },
                    {
                        "number": 64,
                        "time": 598.0250000000157,
                        "value": 0.49606299212598426
                    },
                    {
                        "number": 64,
                        "time": 598.033333333349,
                        "value": 1
                    },
                    {
                        "number": 64,
                        "time": 599.0541666666824,
                        "value": 0.49606299212598426
                    },
                    {
                        "number": 64,
                        "time": 599.0687500000157,
                        "value": 0
                    },
                    {
                        "number": 64,
                        "time": 599.195833333349,
                        "value": 0.49606299212598426
                    },
                    {
                        "number": 64,
                        "time": 599.2062500000156,
                        "value": 1
                    },
                    {
                        "number": 64,
                        "time": 599.895833333349,
                        "value": 0.49606299212598426
                    },
                    {
                        "number": 64,
                        "time": 599.920833333349,
                        "value": 0
                    },
                    {
                        "number": 64,
                        "time": 599.9562500000158,
                        "value": 0.49606299212598426
                    },
                    {
                        "number": 64,
                        "time": 599.983333333349,
                        "value": 1
                    },
                    {
                        "number": 64,
                        "time": 600.8291666666825,
                        "value": 0.49606299212598426
                    },
                    {
                        "number": 64,
                        "time": 600.8645833333492,
                        "value": 0
                    },
                    {
                        "number": 64,
                        "time": 600.9270833333492,
                        "value": 0.49606299212598426
                    },
                    {
                        "number": 64,
                        "time": 600.9562500000159,
                        "value": 1
                    },
                    {
                        "number": 64,
                        "time": 601.1645833333492,
                        "value": 0.49606299212598426
                    },
                    {
                        "number": 64,
                        "time": 601.1958333333492,
                        "value": 0
                    },
                    {
                        "number": 64,
                        "time": 601.2479166666826,
                        "value": 0.49606299212598426
                    },
                    {
                        "number": 64,
                        "time": 601.2812500000159,
                        "value": 1
                    },
                    {
                        "number": 64,
                        "time": 601.6979166666825,
                        "value": 0.49606299212598426
                    },
                    {
                        "number": 64,
                        "time": 601.7208333333492,
                        "value": 0
                    },
                    {
                        "number": 64,
                        "time": 601.8645833333492,
                        "value": 0.49606299212598426
                    },
                    {
                        "number": 64,
                        "time": 601.8791666666825,
                        "value": 1
                    },
                    {
                        "number": 64,
                        "time": 602.1020833333492,
                        "value": 0.49606299212598426
                    },
                    {
                        "number": 64,
                        "time": 602.1250000000159,
                        "value": 0
                    },
                    {
                        "number": 64,
                        "time": 602.4437500000158,
                        "value": 0.49606299212598426
                    },
                    {
                        "number": 64,
                        "time": 602.4541666666825,
                        "value": 1
                    },
                    {
                        "number": 64,
                        "time": 603.8958333333491,
                        "value": 0.49606299212598426
                    },
                    {
                        "number": 64,
                        "time": 603.920833333349,
                        "value": 0
                    },
                    {
                        "number": 64,
                        "time": 604.1416666666823,
                        "value": 0.49606299212598426
                    },
                    {
                        "number": 64,
                        "time": 604.1541666666824,
                        "value": 1
                    },
                    {
                        "number": 64,
                        "time": 604.7104166666824,
                        "value": 0.49606299212598426
                    },
                    {
                        "number": 64,
                        "time": 604.7458333333491,
                        "value": 0
                    },
                    {
                        "number": 64,
                        "time": 604.764583333349,
                        "value": 0.49606299212598426
                    },
                    {
                        "number": 64,
                        "time": 604.7979166666823,
                        "value": 1
                    },
                    {
                        "number": 64,
                        "time": 605.3250000000157,
                        "value": 0.49606299212598426
                    },
                    {
                        "number": 64,
                        "time": 605.3437500000157,
                        "value": 0
                    },
                    {
                        "number": 64,
                        "time": 605.420833333349,
                        "value": 0.49606299212598426
                    },
                    {
                        "number": 64,
                        "time": 605.4375000000157,
                        "value": 1
                    },
                    {
                        "number": 64,
                        "time": 606.183333333349,
                        "value": 0.49606299212598426
                    },
                    {
                        "number": 64,
                        "time": 606.1979166666823,
                        "value": 0
                    },
                    {
                        "number": 64,
                        "time": 606.314583333349,
                        "value": 0.49606299212598426
                    },
                    {
                        "number": 64,
                        "time": 606.3354166666824,
                        "value": 1
                    },
                    {
                        "number": 64,
                        "time": 606.7812500000157,
                        "value": 0.49606299212598426
                    },
                    {
                        "number": 64,
                        "time": 606.7979166666823,
                        "value": 0
                    },
                    {
                        "number": 64,
                        "time": 606.902083333349,
                        "value": 0.49606299212598426
                    },
                    {
                        "number": 64,
                        "time": 606.9208333333489,
                        "value": 1
                    },
                    {
                        "number": 64,
                        "time": 608.1604166666824,
                        "value": 0.49606299212598426
                    },
                    {
                        "number": 64,
                        "time": 608.1729166666825,
                        "value": 0
                    },
                    {
                        "number": 64,
                        "time": 608.3020833333492,
                        "value": 0.49606299212598426
                    },
                    {
                        "number": 64,
                        "time": 608.3104166666825,
                        "value": 1
                    },
                    {
                        "number": 64,
                        "time": 609.0416666666824,
                        "value": 0.49606299212598426
                    },
                    {
                        "number": 64,
                        "time": 609.0500000000158,
                        "value": 0
                    },
                    {
                        "number": 64,
                        "time": 609.2604166666824,
                        "value": 0.49606299212598426
                    },
                    {
                        "number": 64,
                        "time": 609.2708333333491,
                        "value": 1
                    },
                    {
                        "number": 64,
                        "time": 610.1229166666825,
                        "value": 0.49606299212598426
                    },
                    {
                        "number": 64,
                        "time": 610.1333333333491,
                        "value": 0
                    },
                    {
                        "number": 64,
                        "time": 610.2250000000158,
                        "value": 0.49606299212598426
                    },
                    {
                        "number": 64,
                        "time": 610.2375000000159,
                        "value": 1
                    },
                    {
                        "number": 64,
                        "time": 612.1666666666825,
                        "value": 0.49606299212598426
                    },
                    {
                        "number": 64,
                        "time": 612.1791666666826,
                        "value": 0
                    },
                    {
                        "number": 64,
                        "time": 612.2791666666826,
                        "value": 0.49606299212598426
                    },
                    {
                        "number": 64,
                        "time": 612.2958333333494,
                        "value": 1
                    },
                    {
                        "number": 64,
                        "time": 613.1750000000162,
                        "value": 0.49606299212598426
                    },
                    {
                        "number": 64,
                        "time": 613.1937500000162,
                        "value": 0
                    },
                    {
                        "number": 64,
                        "time": 613.2645833333495,
                        "value": 0.49606299212598426
                    },
                    {
                        "number": 64,
                        "time": 613.2854166666829,
                        "value": 1
                    },
                    {
                        "number": 64,
                        "time": 614.9145833333495,
                        "value": 0.49606299212598426
                    },
                    {
                        "number": 64,
                        "time": 614.9395833333494,
                        "value": 0
                    },
                    {
                        "number": 64,
                        "time": 615.0187500000161,
                        "value": 0.49606299212598426
                    },
                    {
                        "number": 64,
                        "time": 615.0458333333494,
                        "value": 1
                    },
                    {
                        "number": 64,
                        "time": 615.3562500000161,
                        "value": 0.49606299212598426
                    },
                    {
                        "number": 64,
                        "time": 615.3833333333494,
                        "value": 0
                    },
                    {
                        "number": 64,
                        "time": 615.4416666666827,
                        "value": 0.49606299212598426
                    },
                    {
                        "number": 64,
                        "time": 615.4708333333494,
                        "value": 1
                    },
                    {
                        "number": 64,
                        "time": 615.8541666666828,
                        "value": 0.49606299212598426
                    },
                    {
                        "number": 64,
                        "time": 615.8729166666827,
                        "value": 0
                    },
                    {
                        "number": 64,
                        "time": 615.9645833333494,
                        "value": 0.49606299212598426
                    },
                    {
                        "number": 64,
                        "time": 615.9895833333494,
                        "value": 1
                    },
                    {
                        "number": 64,
                        "time": 616.9270833333496,
                        "value": 0.49606299212598426
                    },
                    {
                        "number": 64,
                        "time": 616.9520833333496,
                        "value": 0
                    },
                    {
                        "number": 64,
                        "time": 617.2000000000163,
                        "value": 1
                    },
                    {
                        "number": 64,
                        "time": 618.4229166666829,
                        "value": 0.49606299212598426
                    },
                    {
                        "number": 64,
                        "time": 618.4312500000162,
                        "value": 0
                    },
                    {
                        "number": 64,
                        "time": 618.5270833333495,
                        "value": 0.49606299212598426
                    },
                    {
                        "number": 64,
                        "time": 618.5354166666829,
                        "value": 1
                    },
                    {
                        "number": 64,
                        "time": 620.2229166666827,
                        "value": 0.49606299212598426
                    },
                    {
                        "number": 64,
                        "time": 620.2312500000161,
                        "value": 0
                    },
                    {
                        "number": 64,
                        "time": 620.4187500000161,
                        "value": 0.49606299212598426
                    },
                    {
                        "number": 64,
                        "time": 620.4250000000161,
                        "value": 1
                    },
                    {
                        "number": 64,
                        "time": 622.1270833333494,
                        "value": 0.49606299212598426
                    },
                    {
                        "number": 64,
                        "time": 622.1333333333495,
                        "value": 0
                    },
                    {
                        "number": 64,
                        "time": 622.2541666666827,
                        "value": 0.49606299212598426
                    },
                    {
                        "number": 64,
                        "time": 622.2625000000161,
                        "value": 1
                    },
                    {
                        "number": 64,
                        "time": 622.7687500000162,
                        "value": 0.49606299212598426
                    },
                    {
                        "number": 64,
                        "time": 622.7770833333495,
                        "value": 0
                    },
                    {
                        "number": 64,
                        "time": 622.8958333333495,
                        "value": 0.49606299212598426
                    },
                    {
                        "number": 64,
                        "time": 622.9041666666828,
                        "value": 1
                    },
                    {
                        "number": 64,
                        "time": 624.1291666666831,
                        "value": 0.49606299212598426
                    },
                    {
                        "number": 64,
                        "time": 624.1395833333497,
                        "value": 0
                    },
                    {
                        "number": 64,
                        "time": 624.2750000000163,
                        "value": 0.49606299212598426
                    },
                    {
                        "number": 64,
                        "time": 624.2812500000164,
                        "value": 1
                    },
                    {
                        "number": 64,
                        "time": 625.7562500000164,
                        "value": 0.49606299212598426
                    },
                    {
                        "number": 64,
                        "time": 625.766666666683,
                        "value": 0
                    },
                    {
                        "number": 64,
                        "time": 625.9312500000163,
                        "value": 0.49606299212598426
                    },
                    {
                        "number": 64,
                        "time": 625.9375000000164,
                        "value": 1
                    },
                    {
                        "number": 64,
                        "time": 626.6020833333498,
                        "value": 0.49606299212598426
                    },
                    {
                        "number": 64,
                        "time": 626.6270833333498,
                        "value": 0
                    },
                    {
                        "number": 64,
                        "time": 626.6500000000165,
                        "value": 0.49606299212598426
                    },
                    {
                        "number": 64,
                        "time": 626.6770833333497,
                        "value": 1
                    },
                    {
                        "number": 64,
                        "time": 627.3875000000163,
                        "value": 0.49606299212598426
                    },
                    {
                        "number": 64,
                        "time": 627.4125000000163,
                        "value": 0
                    },
                    {
                        "number": 64,
                        "time": 627.5583333333497,
                        "value": 0.49606299212598426
                    },
                    {
                        "number": 64,
                        "time": 627.5812500000163,
                        "value": 1
                    },
                    {
                        "number": 64,
                        "time": 628.3437500000165,
                        "value": 0.49606299212598426
                    },
                    {
                        "number": 64,
                        "time": 628.3687500000165,
                        "value": 0
                    },
                    {
                        "number": 64,
                        "time": 628.5666666666831,
                        "value": 0.49606299212598426
                    },
                    {
                        "number": 64,
                        "time": 628.5791666666831,
                        "value": 1
                    },
                    {
                        "number": 64,
                        "time": 629.7000000000165,
                        "value": 0.49606299212598426
                    },
                    {
                        "number": 64,
                        "time": 629.7187500000165,
                        "value": 0
                    },
                    {
                        "number": 64,
                        "time": 631.0625000000165,
                        "value": 0.49606299212598426
                    },
                    {
                        "number": 64,
                        "time": 631.0645833333498,
                        "value": 1
                    },
                    {
                        "number": 64,
                        "time": 635.3375000000163,
                        "value": 0.49606299212598426
                    },
                    {
                        "number": 64,
                        "time": 635.366666666683,
                        "value": 0
                    },
                    {
                        "number": 64,
                        "time": 635.7125000000163,
                        "value": 0.49606299212598426
                    },
                    {
                        "number": 64,
                        "time": 635.7145833333497,
                        "value": 1
                    },
                    {
                        "number": 64,
                        "time": 638.0166666666831,
                        "value": 0.49606299212598426
                    },
                    {
                        "number": 64,
                        "time": 638.0291666666832,
                        "value": 0
                    },
                    {
                        "number": 64,
                        "time": 638.2812500000165,
                        "value": 0.49606299212598426
                    },
                    {
                        "number": 64,
                        "time": 638.2833333333498,
                        "value": 1
                    },
                    {
                        "number": 64,
                        "time": 642.9708333333498,
                        "value": 0.49606299212598426
                    },
                    {
                        "number": 64,
                        "time": 642.9791666666831,
                        "value": 0
                    },
                    {
                        "number": 64,
                        "time": 643.1083333333498,
                        "value": 0.49606299212598426
                    },
                    {
                        "number": 64,
                        "time": 643.1125000000166,
                        "value": 1
                    },
                    {
                        "number": 64,
                        "time": 645.7250000000166,
                        "value": 0.49606299212598426
                    },
                    {
                        "number": 64,
                        "time": 645.7312500000166,
                        "value": 0
                    },
                    {
                        "number": 64,
                        "time": 645.9604166666834,
                        "value": 1
                    },
                    {
                        "number": 64,
                        "time": 648.18958333335,
                        "value": 1
                    },
                    {
                        "number": 64,
                        "time": 648.2020833333501,
                        "value": 1
                    },
                    {
                        "number": 64,
                        "time": 648.2229166666834,
                        "value": 1
                    },
                    {
                        "number": 64,
                        "time": 648.2437500000168,
                        "value": 1
                    },
                    {
                        "number": 64,
                        "time": 649.5458333333502,
                        "value": 0.49606299212598426
                    },
                    {
                        "number": 64,
                        "time": 649.5520833333502,
                        "value": 0
                    },
                    {
                        "number": 64,
                        "time": 649.7166666666835,
                        "value": 0.49606299212598426
                    },
                    {
                        "number": 64,
                        "time": 649.7187500000168,
                        "value": 1
                    },
                    {
                        "number": 64,
                        "time": 651.2750000000169,
                        "value": 0.49606299212598426
                    },
                    {
                        "number": 64,
                        "time": 651.2895833333503,
                        "value": 1
                    },
                    {
                        "number": 64,
                        "time": 652.0104166666837,
                        "value": 0.49606299212598426
                    },
                    {
                        "number": 64,
                        "time": 652.025000000017,
                        "value": 0
                    },
                    {
                        "number": 64,
                        "time": 652.050000000017,
                        "value": 0.49606299212598426
                    },
                    {
                        "number": 64,
                        "time": 652.0708333333504,
                        "value": 1
                    },
                    {
                        "number": 64,
                        "time": 652.4770833333504,
                        "value": 0.49606299212598426
                    },
                    {
                        "number": 64,
                        "time": 652.4812500000171,
                        "value": 0
                    },
                    {
                        "number": 64,
                        "time": 652.6708333333504,
                        "value": 1
                    },
                    {
                        "number": 64,
                        "time": 655.7875000000173,
                        "value": 0.49606299212598426
                    },
                    {
                        "number": 64,
                        "time": 655.8000000000173,
                        "value": 0
                    },
                    {
                        "number": 64,
                        "time": 655.8875000000173,
                        "value": 0.49606299212598426
                    },
                    {
                        "number": 64,
                        "time": 655.891666666684,
                        "value": 1
                    },
                    {
                        "number": 64,
                        "time": 658.5395833333502,
                        "value": 0.49606299212598426
                    },
                    {
                        "number": 64,
                        "time": 658.5541666666835,
                        "value": 0
                    },
                    {
                        "number": 64,
                        "time": 658.6583333333501,
                        "value": 0.49606299212598426
                    },
                    {
                        "number": 64,
                        "time": 658.6604166666834,
                        "value": 1
                    },
                    {
                        "number": 64,
                        "time": 661.5208333333499,
                        "value": 1
                    },
                    {
                        "number": 64,
                        "time": 661.5312500000165,
                        "value": 1
                    },
                    {
                        "number": 64,
                        "time": 661.6458333333499,
                        "value": 1
                    },
                    {
                        "number": 64,
                        "time": 663.2479166666833,
                        "value": 1
                    },
                    {
                        "number": 64,
                        "time": 663.2854166666833,
                        "value": 1
                    },
                    {
                        "number": 64,
                        "time": 663.87708333335,
                        "value": 1
                    },
                    {
                        "number": 64,
                        "time": 663.8812500000167,
                        "value": 1
                    },
                    {
                        "number": 64,
                        "time": 663.9625000000167,
                        "value": 1
                    },
                    {
                        "number": 64,
                        "time": 663.97083333335,
                        "value": 1
                    },
                    {
                        "number": 64,
                        "time": 664.6041666666833,
                        "value": 0.49606299212598426
                    },
                    {
                        "number": 64,
                        "time": 664.6083333333501,
                        "value": 0
                    },
                    {
                        "number": 64,
                        "time": 664.8291666666834,
                        "value": 1
                    },
                    {
                        "number": 64,
                        "time": 666.3208333333503,
                        "value": 0.49606299212598426
                    },
                    {
                        "number": 64,
                        "time": 666.3583333333503,
                        "value": 1
                    },
                    {
                        "number": 64,
                        "time": 666.968750000017,
                        "value": 0.49606299212598426
                    },
                    {
                        "number": 64,
                        "time": 666.9750000000171,
                        "value": 0
                    },
                    {
                        "number": 64,
                        "time": 667.3104166666838,
                        "value": 1
                    },
                    {
                        "number": 64,
                        "time": 667.856250000017,
                        "value": 0.49606299212598426
                    },
                    {
                        "number": 64,
                        "time": 667.8583333333503,
                        "value": 0
                    },
                    {
                        "number": 64,
                        "time": 667.9770833333503,
                        "value": 0.49606299212598426
                    },
                    {
                        "number": 64,
                        "time": 667.9791666666836,
                        "value": 1
                    },
                    {
                        "number": 64,
                        "time": 670.9041666666836,
                        "value": 0.49606299212598426
                    },
                    {
                        "number": 64,
                        "time": 670.9062500000169,
                        "value": 0
                    },
                    {
                        "number": 64,
                        "time": 671.0000000000169,
                        "value": 0.49606299212598426
                    },
                    {
                        "number": 64,
                        "time": 671.0041666666835,
                        "value": 1
                    },
                    {
                        "number": 64,
                        "time": 674.0229166666841,
                        "value": 0.49606299212598426
                    },
                    {
                        "number": 64,
                        "time": 674.0375000000174,
                        "value": 0
                    },
                    {
                        "number": 64,
                        "time": 674.1375000000174,
                        "value": 0.49606299212598426
                    },
                    {
                        "number": 64,
                        "time": 674.1395833333507,
                        "value": 1
                    },
                    {
                        "number": 64,
                        "time": 677.3333333333505,
                        "value": 0.49606299212598426
                    },
                    {
                        "number": 64,
                        "time": 677.3354166666838,
                        "value": 0
                    },
                    {
                        "number": 64,
                        "time": 677.5354166666839,
                        "value": 1
                    },
                    {
                        "number": 64,
                        "time": 679.0500000000173,
                        "value": 0.49606299212598426
                    },
                    {
                        "number": 64,
                        "time": 679.0583333333507,
                        "value": 0
                    },
                    {
                        "number": 64,
                        "time": 679.0937500000174,
                        "value": 0.49606299212598426
                    },
                    {
                        "number": 64,
                        "time": 679.1062500000174,
                        "value": 1
                    },
                    {
                        "number": 64,
                        "time": 679.5791666666842,
                        "value": 0
                    },
                    {
                        "number": 64,
                        "time": 679.6520833333508,
                        "value": 0.49606299212598426
                    },
                    {
                        "number": 64,
                        "time": 679.6583333333508,
                        "value": 1
                    },
                    {
                        "number": 64,
                        "time": 681.3583333333509,
                        "value": 0.49606299212598426
                    },
                    {
                        "number": 64,
                        "time": 681.3708333333509,
                        "value": 0
                    },
                    {
                        "number": 64,
                        "time": 681.3916666666843,
                        "value": 0.49606299212598426
                    },
                    {
                        "number": 64,
                        "time": 681.4083333333509,
                        "value": 1
                    },
                    {
                        "number": 64,
                        "time": 682.064583333351,
                        "value": 0.49606299212598426
                    },
                    {
                        "number": 64,
                        "time": 682.0729166666844,
                        "value": 0
                    },
                    {
                        "number": 64,
                        "time": 682.2312500000177,
                        "value": 1
                    },
                    {
                        "number": 64,
                        "time": 683.4958333333508,
                        "value": 0.49606299212598426
                    },
                    {
                        "number": 64,
                        "time": 683.5020833333508,
                        "value": 1
                    },
                    {
                        "number": 64,
                        "time": 684.4916666666841,
                        "value": 0.49606299212598426
                    },
                    {
                        "number": 64,
                        "time": 684.5125000000174,
                        "value": 0
                    },
                    {
                        "number": 64,
                        "time": 684.6333333333507,
                        "value": 0.49606299212598426
                    },
                    {
                        "number": 64,
                        "time": 684.6437500000173,
                        "value": 1
                    },
                    {
                        "number": 64,
                        "time": 685.6729166666842,
                        "value": 0.49606299212598426
                    },
                    {
                        "number": 64,
                        "time": 685.6958333333508,
                        "value": 0
                    },
                    {
                        "number": 64,
                        "time": 685.7229166666841,
                        "value": 0.49606299212598426
                    },
                    {
                        "number": 64,
                        "time": 685.7500000000174,
                        "value": 1
                    },
                    {
                        "number": 64,
                        "time": 688.3937500000167,
                        "value": 0.49606299212598426
                    },
                    {
                        "number": 64,
                        "time": 688.4062500000167,
                        "value": 0
                    },
                    {
                        "number": 64,
                        "time": 688.4916666666836,
                        "value": 0.49606299212598426
                    },
                    {
                        "number": 64,
                        "time": 688.5000000000169,
                        "value": 1
                    },
                    {
                        "number": 64,
                        "time": 691.6000000000168,
                        "value": 0.49606299212598426
                    },
                    {
                        "number": 64,
                        "time": 691.7083333333502,
                        "value": 1
                    },
                    {
                        "number": 64,
                        "time": 692.2458333333503,
                        "value": 0.49606299212598426
                    },
                    {
                        "number": 64,
                        "time": 692.2770833333503,
                        "value": 0
                    },
                    {
                        "number": 64,
                        "time": 693.5229166666835,
                        "value": 0.49606299212598426
                    },
                    {
                        "number": 64,
                        "time": 693.5291666666835,
                        "value": 1
                    },
                    {
                        "number": 64,
                        "time": 694.1333333333503,
                        "value": 0.49606299212598426
                    },
                    {
                        "number": 64,
                        "time": 694.1458333333502,
                        "value": 0
                    },
                    {
                        "number": 64,
                        "time": 694.2770833333502,
                        "value": 0.49606299212598426
                    },
                    {
                        "number": 64,
                        "time": 694.2895833333503,
                        "value": 1
                    },
                    {
                        "number": 64,
                        "time": 694.7958333333502,
                        "value": 0.49606299212598426
                    },
                    {
                        "number": 64,
                        "time": 694.8250000000169,
                        "value": 0
                    },
                    {
                        "number": 64,
                        "time": 694.8604166666836,
                        "value": 0.49606299212598426
                    },
                    {
                        "number": 64,
                        "time": 694.8937500000169,
                        "value": 1
                    },
                    {
                        "number": 64,
                        "time": 695.2083333333502,
                        "value": 0.49606299212598426
                    },
                    {
                        "number": 64,
                        "time": 695.2500000000168,
                        "value": 0
                    },
                    {
                        "number": 64,
                        "time": 695.2875000000168,
                        "value": 0.49606299212598426
                    },
                    {
                        "number": 64,
                        "time": 695.3187500000168,
                        "value": 1
                    },
                    {
                        "number": 64,
                        "time": 695.7020833333501,
                        "value": 0.49606299212598426
                    },
                    {
                        "number": 64,
                        "time": 695.7270833333502,
                        "value": 0
                    },
                    {
                        "number": 64,
                        "time": 695.7708333333502,
                        "value": 0.49606299212598426
                    },
                    {
                        "number": 64,
                        "time": 695.7937500000169,
                        "value": 1
                    },
                    {
                        "number": 64,
                        "time": 696.0854166666834,
                        "value": 0.49606299212598426
                    },
                    {
                        "number": 64,
                        "time": 696.1104166666834,
                        "value": 0
                    },
                    {
                        "number": 64,
                        "time": 696.2291666666833,
                        "value": 0.49606299212598426
                    },
                    {
                        "number": 64,
                        "time": 696.2645833333501,
                        "value": 1
                    },
                    {
                        "number": 64,
                        "time": 696.8687500000169,
                        "value": 0.49606299212598426
                    },
                    {
                        "number": 64,
                        "time": 696.8833333333503,
                        "value": 0
                    },
                    {
                        "number": 64,
                        "time": 697.075000000017,
                        "value": 0.49606299212598426
                    },
                    {
                        "number": 64,
                        "time": 697.0833333333503,
                        "value": 1
                    },
                    {
                        "number": 64,
                        "time": 697.6666666666836,
                        "value": 0.49606299212598426
                    },
                    {
                        "number": 64,
                        "time": 697.6895833333502,
                        "value": 0
                    },
                    {
                        "number": 64,
                        "time": 697.7500000000169,
                        "value": 0.49606299212598426
                    },
                    {
                        "number": 64,
                        "time": 697.7708333333503,
                        "value": 1
                    },
                    {
                        "number": 64,
                        "time": 698.1583333333504,
                        "value": 0.49606299212598426
                    },
                    {
                        "number": 64,
                        "time": 698.1833333333503,
                        "value": 0
                    },
                    {
                        "number": 64,
                        "time": 698.212500000017,
                        "value": 0.49606299212598426
                    },
                    {
                        "number": 64,
                        "time": 698.2416666666837,
                        "value": 1
                    },
                    {
                        "number": 64,
                        "time": 698.700000000017,
                        "value": 0.49606299212598426
                    },
                    {
                        "number": 64,
                        "time": 698.7145833333503,
                        "value": 0
                    },
                    {
                        "number": 64,
                        "time": 698.8458333333502,
                        "value": 0.49606299212598426
                    },
                    {
                        "number": 64,
                        "time": 698.8541666666836,
                        "value": 1
                    },
                    {
                        "number": 64,
                        "time": 699.5270833333506,
                        "value": 0.49606299212598426
                    },
                    {
                        "number": 64,
                        "time": 699.5395833333506,
                        "value": 0
                    },
                    {
                        "number": 64,
                        "time": 699.747916666684,
                        "value": 0.49606299212598426
                    },
                    {
                        "number": 64,
                        "time": 699.7583333333506,
                        "value": 1
                    },
                    {
                        "number": 64,
                        "time": 700.2520833333506,
                        "value": 0.49606299212598426
                    },
                    {
                        "number": 64,
                        "time": 700.2979166666839,
                        "value": 0
                    },
                    {
                        "number": 64,
                        "time": 700.3145833333506,
                        "value": 0.49606299212598426
                    },
                    {
                        "number": 64,
                        "time": 700.3479166666839,
                        "value": 1
                    },
                    {
                        "number": 64,
                        "time": 700.7854166666838,
                        "value": 0.49606299212598426
                    },
                    {
                        "number": 64,
                        "time": 700.8083333333504,
                        "value": 0
                    },
                    {
                        "number": 64,
                        "time": 700.8583333333504,
                        "value": 0.49606299212598426
                    },
                    {
                        "number": 64,
                        "time": 700.8729166666838,
                        "value": 1
                    },
                    {
                        "number": 64,
                        "time": 701.3437500000172,
                        "value": 0.49606299212598426
                    },
                    {
                        "number": 64,
                        "time": 701.3604166666838,
                        "value": 0
                    },
                    {
                        "number": 64,
                        "time": 701.4333333333506,
                        "value": 0.49606299212598426
                    },
                    {
                        "number": 64,
                        "time": 701.4458333333506,
                        "value": 1
                    },
                    {
                        "number": 64,
                        "time": 702.2000000000172,
                        "value": 0.49606299212598426
                    },
                    {
                        "number": 64,
                        "time": 702.2104166666838,
                        "value": 0
                    },
                    {
                        "number": 64,
                        "time": 702.3166666666839,
                        "value": 0.49606299212598426
                    },
                    {
                        "number": 64,
                        "time": 702.3208333333506,
                        "value": 1
                    },
                    {
                        "number": 64,
                        "time": 703.5583333333509,
                        "value": 0.49606299212598426
                    },
                    {
                        "number": 64,
                        "time": 703.5833333333509,
                        "value": 0
                    },
                    {
                        "number": 64,
                        "time": 703.6458333333509,
                        "value": 0.49606299212598426
                    },
                    {
                        "number": 64,
                        "time": 703.6625000000175,
                        "value": 1
                    },
                    {
                        "number": 64,
                        "time": 704.9187500000172,
                        "value": 0.49606299212598426
                    },
                    {
                        "number": 64,
                        "time": 704.9354166666839,
                        "value": 0
                    },
                    {
                        "number": 64,
                        "time": 705.0062500000172,
                        "value": 0.49606299212598426
                    },
                    {
                        "number": 64,
                        "time": 705.0166666666838,
                        "value": 1
                    },
                    {
                        "number": 64,
                        "time": 705.7333333333506,
                        "value": 0.49606299212598426
                    },
                    {
                        "number": 64,
                        "time": 705.822916666684,
                        "value": 1
                    },
                    {
                        "number": 64,
                        "time": 706.958333333351,
                        "value": 0.49606299212598426
                    },
                    {
                        "number": 64,
                        "time": 706.9750000000176,
                        "value": 0
                    },
                    {
                        "number": 64,
                        "time": 707.1000000000176,
                        "value": 0.49606299212598426
                    },
                    {
                        "number": 64,
                        "time": 707.1104166666843,
                        "value": 1
                    },
                    {
                        "number": 64,
                        "time": 708.3375000000176,
                        "value": 0.49606299212598426
                    },
                    {
                        "number": 64,
                        "time": 708.4416666666842,
                        "value": 1
                    },
                    {
                        "number": 64,
                        "time": 709.4916666666843,
                        "value": 0.49606299212598426
                    },
                    {
                        "number": 64,
                        "time": 709.5416666666843,
                        "value": 0
                    },
                    {
                        "number": 64,
                        "time": 709.8666666666843,
                        "value": 0.49606299212598426
                    },
                    {
                        "number": 64,
                        "time": 709.8875000000177,
                        "value": 1
                    },
                    {
                        "number": 64,
                        "time": 710.6041666666844,
                        "value": 0.49606299212598426
                    },
                    {
                        "number": 64,
                        "time": 710.6687500000177,
                        "value": 0
                    },
                    {
                        "number": 64,
                        "time": 710.6791666666843,
                        "value": 0.49606299212598426
                    },
                    {
                        "number": 64,
                        "time": 710.7208333333509,
                        "value": 1
                    },
                    {
                        "number": 64,
                        "time": 712.9500000000177,
                        "value": 0.49606299212598426
                    },
                    {
                        "number": 64,
                        "time": 712.9812500000177,
                        "value": 1
                    },
                    {
                        "number": 64,
                        "time": 714.781250000018,
                        "value": 0.49606299212598426
                    },
                    {
                        "number": 64,
                        "time": 714.8000000000179,
                        "value": 0
                    },
                    {
                        "number": 64,
                        "time": 714.8250000000179,
                        "value": 0.49606299212598426
                    },
                    {
                        "number": 64,
                        "time": 714.8479166666846,
                        "value": 1
                    },
                    {
                        "number": 64,
                        "time": 715.0791666666845,
                        "value": 0.49606299212598426
                    },
                    {
                        "number": 64,
                        "time": 715.0833333333511,
                        "value": 0
                    },
                    {
                        "number": 64,
                        "time": 715.1812500000178,
                        "value": 0.49606299212598426
                    },
                    {
                        "number": 64,
                        "time": 715.1854166666845,
                        "value": 1
                    },
                    {
                        "number": 64,
                        "time": 717.8312500000179,
                        "value": 0.49606299212598426
                    },
                    {
                        "number": 64,
                        "time": 717.843750000018,
                        "value": 0
                    },
                    {
                        "number": 64,
                        "time": 717.9479166666846,
                        "value": 0.49606299212598426
                    },
                    {
                        "number": 64,
                        "time": 717.9520833333513,
                        "value": 1
                    },
                    {
                        "number": 64,
                        "time": 720.4312500000179,
                        "value": 0.49606299212598426
                    },
                    {
                        "number": 64,
                        "time": 720.4458333333513,
                        "value": 0
                    },
                    {
                        "number": 64,
                        "time": 720.575000000018,
                        "value": 0.49606299212598426
                    },
                    {
                        "number": 64,
                        "time": 720.5791666666847,
                        "value": 1
                    },
                    {
                        "number": 64,
                        "time": 723.3291666666847,
                        "value": 0.49606299212598426
                    },
                    {
                        "number": 64,
                        "time": 723.331250000018,
                        "value": 0
                    },
                    {
                        "number": 64,
                        "time": 723.4375000000181,
                        "value": 0.49606299212598426
                    },
                    {
                        "number": 64,
                        "time": 723.4416666666848,
                        "value": 1
                    },
                    {
                        "number": 64,
                        "time": 724.9875000000181,
                        "value": 0.49606299212598426
                    },
                    {
                        "number": 64,
                        "time": 724.9979166666848,
                        "value": 0
                    },
                    {
                        "number": 64,
                        "time": 725.087500000018,
                        "value": 0.49606299212598426
                    },
                    {
                        "number": 64,
                        "time": 725.0958333333514,
                        "value": 1
                    },
                    {
                        "number": 64,
                        "time": 726.660416666685,
                        "value": 0.49606299212598426
                    },
                    {
                        "number": 64,
                        "time": 726.6708333333517,
                        "value": 0
                    },
                    {
                        "number": 64,
                        "time": 726.8062500000183,
                        "value": 0.49606299212598426
                    },
                    {
                        "number": 64,
                        "time": 726.810416666685,
                        "value": 1
                    },
                    {
                        "number": 64,
                        "time": 727.2958333333518,
                        "value": 0.49606299212598426
                    },
                    {
                        "number": 64,
                        "time": 727.3020833333518,
                        "value": 0
                    },
                    {
                        "number": 64,
                        "time": 727.4020833333518,
                        "value": 0.49606299212598426
                    },
                    {
                        "number": 64,
                        "time": 727.4041666666851,
                        "value": 1
                    },
                    {
                        "number": 64,
                        "time": 729.7604166666849,
                        "value": 0.49606299212598426
                    },
                    {
                        "number": 64,
                        "time": 729.7750000000183,
                        "value": 0
                    },
                    {
                        "number": 64,
                        "time": 729.854166666685,
                        "value": 0.49606299212598426
                    },
                    {
                        "number": 64,
                        "time": 729.8604166666851,
                        "value": 1
                    },
                    {
                        "number": 64,
                        "time": 732.6812500000188,
                        "value": 0.49606299212598426
                    },
                    {
                        "number": 64,
                        "time": 732.6958333333522,
                        "value": 0
                    },
                    {
                        "number": 64,
                        "time": 733.1354166666855,
                        "value": 1
                    },
                    {
                        "number": 64,
                        "time": 734.3500000000188,
                        "value": 0.49606299212598426
                    },
                    {
                        "number": 64,
                        "time": 734.3604166666854,
                        "value": 0
                    },
                    {
                        "number": 64,
                        "time": 734.3895833333521,
                        "value": 0.49606299212598426
                    },
                    {
                        "number": 64,
                        "time": 734.4041666666855,
                        "value": 1
                    },
                    {
                        "number": 64,
                        "time": 734.8750000000188,
                        "value": 0.49606299212598426
                    },
                    {
                        "number": 64,
                        "time": 734.8812500000188,
                        "value": 0
                    },
                    {
                        "number": 64,
                        "time": 735.027083333352,
                        "value": 0.49606299212598426
                    },
                    {
                        "number": 64,
                        "time": 735.0291666666853,
                        "value": 1
                    },
                    {
                        "number": 64,
                        "time": 736.4625000000184,
                        "value": 0.49606299212598426
                    },
                    {
                        "number": 64,
                        "time": 736.4666666666851,
                        "value": 0
                    },
                    {
                        "number": 64,
                        "time": 736.5854166666851,
                        "value": 0.49606299212598426
                    },
                    {
                        "number": 64,
                        "time": 736.5895833333518,
                        "value": 1
                    },
                    {
                        "number": 64,
                        "time": 738.7583333333517,
                        "value": 0.49606299212598426
                    },
                    {
                        "number": 64,
                        "time": 738.7708333333518,
                        "value": 0
                    },
                    {
                        "number": 64,
                        "time": 739.0458333333518,
                        "value": 1
                    },
                    {
                        "number": 64,
                        "time": 740.7812500000184,
                        "value": 0.49606299212598426
                    },
                    {
                        "number": 64,
                        "time": 740.791666666685,
                        "value": 0
                    },
                    {
                        "number": 64,
                        "time": 741.1270833333517,
                        "value": 0.49606299212598426
                    },
                    {
                        "number": 64,
                        "time": 741.129166666685,
                        "value": 1
                    },
                    {
                        "number": 64,
                        "time": 741.8145833333516,
                        "value": 0.49606299212598426
                    },
                    {
                        "number": 64,
                        "time": 741.8250000000182,
                        "value": 0
                    },
                    {
                        "number": 64,
                        "time": 741.8895833333517,
                        "value": 0.49606299212598426
                    },
                    {
                        "number": 64,
                        "time": 741.897916666685,
                        "value": 1
                    },
                    {
                        "number": 64,
                        "time": 744.6312500000183,
                        "value": 0.49606299212598426
                    },
                    {
                        "number": 64,
                        "time": 744.6458333333517,
                        "value": 0
                    },
                    {
                        "number": 64,
                        "time": 744.9375000000182,
                        "value": 0.49606299212598426
                    },
                    {
                        "number": 64,
                        "time": 744.9437500000182,
                        "value": 1
                    },
                    {
                        "number": 64,
                        "time": 745.1062500000182,
                        "value": 0.49606299212598426
                    },
                    {
                        "number": 64,
                        "time": 745.1125000000183,
                        "value": 0
                    },
                    {
                        "number": 64,
                        "time": 745.2395833333516,
                        "value": 0.49606299212598426
                    },
                    {
                        "number": 64,
                        "time": 745.2479166666849,
                        "value": 1
                    },
                    {
                        "number": 64,
                        "time": 745.4875000000181,
                        "value": 0.49606299212598426
                    },
                    {
                        "number": 64,
                        "time": 745.4979166666848,
                        "value": 0
                    },
                    {
                        "number": 64,
                        "time": 747.0562500000184,
                        "value": 1
                    },
                    {
                        "number": 64,
                        "time": 747.372916666685,
                        "value": 0.49606299212598426
                    },
                    {
                        "number": 64,
                        "time": 747.3812500000183,
                        "value": 0
                    },
                    {
                        "number": 64,
                        "time": 747.435416666685,
                        "value": 0.49606299212598426
                    },
                    {
                        "number": 64,
                        "time": 747.4437500000183,
                        "value": 1
                    },
                    {
                        "number": 64,
                        "time": 750.5062500000183,
                        "value": 0.49606299212598426
                    },
                    {
                        "number": 64,
                        "time": 750.5187500000184,
                        "value": 0
                    },
                    {
                        "number": 64,
                        "time": 753.7479166666851,
                        "value": 0.49606299212598426
                    },
                    {
                        "number": 64,
                        "time": 753.7541666666851,
                        "value": 1
                    },
                    {
                        "number": 64,
                        "time": 755.0833333333517,
                        "value": 0.49606299212598426
                    },
                    {
                        "number": 64,
                        "time": 755.135416666685,
                        "value": 0
                    }
                ],
                "67": [
                    {
                        "number": 67,
                        "time": 131.09583333333296,
                        "value": 1
                    },
                    {
                        "number": 67,
                        "time": 131.27291666666622,
                        "value": 0
                    },
                    {
                        "number": 67,
                        "time": 164.19999999999845,
                        "value": 1
                    },
                    {
                        "number": 67,
                        "time": 172.63333333333173,
                        "value": 0
                    },
                    {
                        "number": 67,
                        "time": 566.8791666666821,
                        "value": 1
                    },
                    {
                        "number": 67,
                        "time": 584.8312500000155,
                        "value": 0
                    },
                    {
                        "number": 67,
                        "time": 585.1437500000155,
                        "value": 1
                    },
                    {
                        "number": 67,
                        "time": 643.0791666666831,
                        "value": 0
                    },
                    {
                        "number": 67,
                        "time": 693.175000000017,
                        "value": 1
                    },
                    {
                        "number": 67,
                        "time": 710.5312500000177,
                        "value": 0
                    }
                ],
                "91": [
                    {
                        "number": 91,
                        "time": 1.4124999999999999,
                        "value": 0.7086614173228346
                    }
                ],
                "98": [
                    {
                        "number": 98,
                        "time": 1.5166666666666666,
                        "value": 0.25196850393700787
                    },
                    {
                        "number": 98,
                        "time": 1.5291666666666666,
                        "value": 0.25984251968503935
                    },
                    {
                        "number": 98,
                        "time": 1.5416666666666665,
                        "value": 0.7795275590551181
                    },
                    {
                        "number": 98,
                        "time": 1.5541666666666665,
                        "value": 0.7874015748031497
                    },
                    {
                        "number": 98,
                        "time": 1.5666666666666664,
                        "value": 0.8031496062992126
                    }
                ],
                "99": [
                    {
                        "number": 99,
                        "time": 1.5125,
                        "value": 0.007874015748031496
                    },
                    {
                        "number": 99,
                        "time": 1.525,
                        "value": 0.007874015748031496
                    },
                    {
                        "number": 99,
                        "time": 1.5374999999999999,
                        "value": 0.007874015748031496
                    },
                    {
                        "number": 99,
                        "time": 1.5499999999999998,
                        "value": 0.007874015748031496
                    },
                    {
                        "number": 99,
                        "time": 1.5624999999999998,
                        "value": 0.007874015748031496
                    }
                ]
            },
            "id": 1,
            "name": "PIANO",
            "instrumentNumber": 0,
            "instrument": "acoustic grand piano",
            "instrumentFamily": "piano",
            "channelNumber": 0,
            "isPercussion": false
        },
        {
            "startTime": 755.7854166666667,
            "duration": 948.618750000004,
            "length": 2725,
            "notes": [
                {
                    "name": "C#6",
                    "midi": 85,
                    "time": 755.7854166666667,
                    "velocity": 0.889763779527559,
                    "duration": 0.05833333333328028
                },
                {
                    "name": "C#6",
                    "midi": 85,
                    "time": 755.8875,
                    "velocity": 0.84251968503937,
                    "duration": 0.08333333333337123
                },
                {
                    "name": "F5",
                    "midi": 77,
                    "time": 755.9937500000001,
                    "velocity": 0.5118110236220472,
                    "duration": 0.05624999999997726
                },
                {
                    "name": "B5",
                    "midi": 83,
                    "time": 755.9937500000001,
                    "velocity": 0.5118110236220472,
                    "duration": 0.05624999999997726
                },
                {
                    "name": "D6",
                    "midi": 86,
                    "time": 755.9937500000001,
                    "velocity": 0.6062992125984252,
                    "duration": 0.05624999999997726
                },
                {
                    "name": "C#6",
                    "midi": 85,
                    "time": 756.0645833333334,
                    "velocity": 0.9133858267716536,
                    "duration": 0.06458333333330302
                },
                {
                    "name": "C#6",
                    "midi": 85,
                    "time": 756.1770833333334,
                    "velocity": 0.8818897637795275,
                    "duration": 0.10416666666662877
                },
                {
                    "name": "F5",
                    "midi": 77,
                    "time": 756.2854166666667,
                    "velocity": 0.7480314960629921,
                    "duration": 0.07708333333334849
                },
                {
                    "name": "B5",
                    "midi": 83,
                    "time": 756.2854166666667,
                    "velocity": 0.7480314960629921,
                    "duration": 0.07708333333334849
                },
                {
                    "name": "E6",
                    "midi": 88,
                    "time": 756.2854166666667,
                    "velocity": 0.8188976377952756,
                    "duration": 0.07708333333334849
                },
                {
                    "name": "C#6",
                    "midi": 85,
                    "time": 756.3750000000001,
                    "velocity": 0.952755905511811,
                    "duration": 0.06041666666669698
                },
                {
                    "name": "C#6",
                    "midi": 85,
                    "time": 756.4708333333335,
                    "velocity": 0.9448818897637795,
                    "duration": 0.06875000000002274
                },
                {
                    "name": "C#6",
                    "midi": 85,
                    "time": 756.5854166666669,
                    "velocity": 0.9921259842519685,
                    "duration": 0.0625
                },
                {
                    "name": "C#5",
                    "midi": 73,
                    "time": 758.6583333333335,
                    "velocity": 0.7716535433070866,
                    "duration": 0.05208333333337123
                },
                {
                    "name": "C#5",
                    "midi": 73,
                    "time": 758.7770833333336,
                    "velocity": 0.6929133858267716,
                    "duration": 0.10000000000002274
                },
                {
                    "name": "F#4",
                    "midi": 66,
                    "time": 758.879166666667,
                    "velocity": 0.6062992125984252,
                    "duration": 0.08124999999995453
                },
                {
                    "name": "A4",
                    "midi": 69,
                    "time": 758.879166666667,
                    "velocity": 0.6062992125984252,
                    "duration": 0.08124999999995453
                },
                {
                    "name": "D5",
                    "midi": 74,
                    "time": 758.879166666667,
                    "velocity": 0.6614173228346457,
                    "duration": 0.08124999999995453
                },
                {
                    "name": "C#5",
                    "midi": 73,
                    "time": 758.9750000000003,
                    "velocity": 0.8188976377952756,
                    "duration": 0.06875000000002274
                },
                {
                    "name": "C#5",
                    "midi": 73,
                    "time": 759.0916666666669,
                    "velocity": 0.7716535433070866,
                    "duration": 0.12708333333330302
                },
                {
                    "name": "F#4",
                    "midi": 66,
                    "time": 759.2187500000002,
                    "velocity": 0.47244094488188976,
                    "duration": 0.0625
                },
                {
                    "name": "A4",
                    "midi": 69,
                    "time": 759.2187500000002,
                    "velocity": 0.47244094488188976,
                    "duration": 0.0625
                },
                {
                    "name": "E5",
                    "midi": 76,
                    "time": 759.2187500000002,
                    "velocity": 0.6220472440944882,
                    "duration": 0.06666666666671972
                },
                {
                    "name": "C#5",
                    "midi": 73,
                    "time": 759.3458333333336,
                    "velocity": 0.7559055118110236,
                    "duration": 0.07291666666662877
                },
                {
                    "name": "C#5",
                    "midi": 73,
                    "time": 759.479166666667,
                    "velocity": 0.6377952755905512,
                    "duration": 0.05833333333328028
                },
                {
                    "name": "C#5",
                    "midi": 73,
                    "time": 759.6458333333336,
                    "velocity": 0.7401574803149606,
                    "duration": 0.06666666666671972
                },
                {
                    "name": "C#4",
                    "midi": 61,
                    "time": 761.7895833333337,
                    "velocity": 0.6771653543307087,
                    "duration": 0.03750000000002274
                },
                {
                    "name": "C#4",
                    "midi": 61,
                    "time": 762.0270833333337,
                    "velocity": 0.3937007874015748,
                    "duration": 0.19166666666671972
                },
                {
                    "name": "F3",
                    "midi": 53,
                    "time": 762.2354166666671,
                    "velocity": 0.3543307086614173,
                    "duration": 0.09583333333330302
                },
                {
                    "name": "B3",
                    "midi": 59,
                    "time": 762.2354166666671,
                    "velocity": 0.3543307086614173,
                    "duration": 0.09583333333330302
                },
                {
                    "name": "D4",
                    "midi": 62,
                    "time": 762.2354166666671,
                    "velocity": 0.4015748031496063,
                    "duration": 0.09583333333330302
                },
                {
                    "name": "C#4",
                    "midi": 61,
                    "time": 762.4312500000004,
                    "velocity": 0.7165354330708661,
                    "duration": 0.04166666666662877
                },
                {
                    "name": "C#4",
                    "midi": 61,
                    "time": 762.616666666667,
                    "velocity": 0.5905511811023622,
                    "duration": 0.10208333333332575
                },
                {
                    "name": "F3",
                    "midi": 53,
                    "time": 762.7854166666671,
                    "velocity": 0.5118110236220472,
                    "duration": 0.07083333333332575
                },
                {
                    "name": "B3",
                    "midi": 59,
                    "time": 762.7854166666671,
                    "velocity": 0.5118110236220472,
                    "duration": 0.07083333333332575
                },
                {
                    "name": "E4",
                    "midi": 64,
                    "time": 762.7854166666671,
                    "velocity": 0.5748031496062992,
                    "duration": 0.07083333333332575
                },
                {
                    "name": "C#4",
                    "midi": 61,
                    "time": 762.9583333333337,
                    "velocity": 0.84251968503937,
                    "duration": 0.06041666666669698
                },
                {
                    "name": "C#4",
                    "midi": 61,
                    "time": 763.1375000000004,
                    "velocity": 0.5984251968503937,
                    "duration": 0.05624999999997726
                },
                {
                    "name": "C#4",
                    "midi": 61,
                    "time": 763.3166666666671,
                    "velocity": 0.889763779527559,
                    "duration": 0.05833333333328028
                },
                {
                    "name": "C#4",
                    "midi": 61,
                    "time": 763.4750000000004,
                    "velocity": 0.3937007874015748,
                    "duration": 0.12708333333330302
                },
                {
                    "name": "F3",
                    "midi": 53,
                    "time": 763.647916666667,
                    "velocity": 0.3937007874015748,
                    "duration": 0.07083333333332575
                },
                {
                    "name": "B3",
                    "midi": 59,
                    "time": 763.647916666667,
                    "velocity": 0.3937007874015748,
                    "duration": 0.07083333333332575
                },
                {
                    "name": "D4",
                    "midi": 62,
                    "time": 763.647916666667,
                    "velocity": 0.5275590551181102,
                    "duration": 0.07083333333332575
                },
                {
                    "name": "C#4",
                    "midi": 61,
                    "time": 763.810416666667,
                    "velocity": 0.8661417322834646,
                    "duration": 0.05624999999997726
                },
                {
                    "name": "C#4",
                    "midi": 61,
                    "time": 763.954166666667,
                    "velocity": 0.5669291338582677,
                    "duration": 0.13541666666662877
                },
                {
                    "name": "F3",
                    "midi": 53,
                    "time": 764.1229166666669,
                    "velocity": 0.3543307086614173,
                    "duration": 0.05208333333337123
                },
                {
                    "name": "B3",
                    "midi": 59,
                    "time": 764.1229166666669,
                    "velocity": 0.3543307086614173,
                    "duration": 0.05208333333337123
                },
                {
                    "name": "E4",
                    "midi": 64,
                    "time": 764.1229166666669,
                    "velocity": 0.4645669291338583,
                    "duration": 0.05208333333337123
                },
                {
                    "name": "C#4",
                    "midi": 61,
                    "time": 764.2625000000003,
                    "velocity": 0.905511811023622,
                    "duration": 0.05833333333328028
                },
                {
                    "name": "C#4",
                    "midi": 61,
                    "time": 764.4104166666668,
                    "velocity": 0.5748031496062992,
                    "duration": 0.06041666666669698
                },
                {
                    "name": "C#4",
                    "midi": 61,
                    "time": 764.5666666666668,
                    "velocity": 0.9291338582677166,
                    "duration": 0.06041666666669698
                },
                {
                    "name": "C#4",
                    "midi": 61,
                    "time": 764.7166666666668,
                    "velocity": 0.6299212598425197,
                    "duration": 0.08541666666667425
                },
                {
                    "name": "F#3",
                    "midi": 54,
                    "time": 764.8687500000002,
                    "velocity": 0.3543307086614173,
                    "duration": 0.05208333333337123
                },
                {
                    "name": "A3",
                    "midi": 57,
                    "time": 764.8687500000002,
                    "velocity": 0.3543307086614173,
                    "duration": 0.05208333333337123
                },
                {
                    "name": "D4",
                    "midi": 62,
                    "time": 764.8687500000002,
                    "velocity": 0.5196850393700787,
                    "duration": 0.05208333333337123
                },
                {
                    "name": "C#4",
                    "midi": 61,
                    "time": 765.0000000000002,
                    "velocity": 0.8818897637795275,
                    "duration": 0.05624999999997726
                },
                {
                    "name": "C#4",
                    "midi": 61,
                    "time": 765.1333333333336,
                    "velocity": 0.6141732283464567,
                    "duration": 0.125
                },
                {
                    "name": "F#3",
                    "midi": 54,
                    "time": 765.2750000000002,
                    "velocity": 0.4330708661417323,
                    "duration": 0.06875000000002274
                },
                {
                    "name": "A3",
                    "midi": 57,
                    "time": 765.2750000000002,
                    "velocity": 0.4330708661417323,
                    "duration": 0.06875000000002274
                },
                {
                    "name": "E4",
                    "midi": 64,
                    "time": 765.2750000000002,
                    "velocity": 0.5118110236220472,
                    "duration": 0.06875000000002274
                },
                {
                    "name": "C#4",
                    "midi": 61,
                    "time": 765.410416666667,
                    "velocity": 0.9133858267716536,
                    "duration": 0.05833333333328028
                },
                {
                    "name": "C#4",
                    "midi": 61,
                    "time": 765.5375000000003,
                    "velocity": 0.6220472440944882,
                    "duration": 0.05624999999997726
                },
                {
                    "name": "C#4",
                    "midi": 61,
                    "time": 765.7020833333336,
                    "velocity": 0.9133858267716536,
                    "duration": 0.05833333333328028
                },
                {
                    "name": "C#4",
                    "midi": 61,
                    "time": 765.8208333333336,
                    "velocity": 0.6929133858267716,
                    "duration": 0.09166666666669698
                },
                {
                    "name": "F#3",
                    "midi": 54,
                    "time": 765.9833333333336,
                    "velocity": 0.5118110236220472,
                    "duration": 0.054166666666674246
                },
                {
                    "name": "B3",
                    "midi": 59,
                    "time": 765.9833333333336,
                    "velocity": 0.5118110236220472,
                    "duration": 0.018749999999954525
                },
                {
                    "name": "D4",
                    "midi": 62,
                    "time": 765.9833333333336,
                    "velocity": 0.5669291338582677,
                    "duration": 0.054166666666674246
                },
                {
                    "name": "A3",
                    "midi": 57,
                    "time": 766.0000000000002,
                    "velocity": 0.5118110236220472,
                    "duration": 0.03750000000002274
                },
                {
                    "name": "C#4",
                    "midi": 61,
                    "time": 766.104166666667,
                    "velocity": 0.9133858267716536,
                    "duration": 0.054166666666674246
                },
                {
                    "name": "C#4",
                    "midi": 61,
                    "time": 766.2145833333336,
                    "velocity": 0.7007874015748031,
                    "duration": 0.10208333333332575
                },
                {
                    "name": "F#3",
                    "midi": 54,
                    "time": 766.3645833333336,
                    "velocity": 0.3543307086614173,
                    "duration": 0.04583333333334849
                },
                {
                    "name": "A3",
                    "midi": 57,
                    "time": 766.3645833333336,
                    "velocity": 0.3543307086614173,
                    "duration": 0.04583333333334849
                },
                {
                    "name": "E4",
                    "midi": 64,
                    "time": 766.3645833333336,
                    "velocity": 0.4645669291338583,
                    "duration": 0.04583333333334849
                },
                {
                    "name": "C#4",
                    "midi": 61,
                    "time": 766.472916666667,
                    "velocity": 0.968503937007874,
                    "duration": 0.054166666666674246
                },
                {
                    "name": "C#4",
                    "midi": 61,
                    "time": 766.597916666667,
                    "velocity": 0.5905511811023622,
                    "duration": 0.04583333333334849
                },
                {
                    "name": "C#4",
                    "midi": 61,
                    "time": 766.7270833333337,
                    "velocity": 0.968503937007874,
                    "duration": 0.05833333333328028
                },
                {
                    "name": "C#4",
                    "midi": 61,
                    "time": 766.8500000000003,
                    "velocity": 0.7244094488188977,
                    "duration": 0.08749999999997726
                },
                {
                    "name": "F3",
                    "midi": 53,
                    "time": 767.0104166666669,
                    "velocity": 0.5118110236220472,
                    "duration": 0.043750000000045475
                },
                {
                    "name": "B3",
                    "midi": 59,
                    "time": 767.0104166666669,
                    "velocity": 0.5118110236220472,
                    "duration": 0.043750000000045475
                },
                {
                    "name": "D4",
                    "midi": 62,
                    "time": 767.0104166666669,
                    "velocity": 0.5511811023622047,
                    "duration": 0.043750000000045475
                },
                {
                    "name": "C#4",
                    "midi": 61,
                    "time": 767.1145833333336,
                    "velocity": 0.952755905511811,
                    "duration": 0.0625
                },
                {
                    "name": "C#4",
                    "midi": 61,
                    "time": 767.2312500000003,
                    "velocity": 0.7165354330708661,
                    "duration": 0.09791666666671972
                },
                {
                    "name": "F3",
                    "midi": 53,
                    "time": 767.3500000000004,
                    "velocity": 0.6062992125984252,
                    "duration": 0.0625
                },
                {
                    "name": "B3",
                    "midi": 59,
                    "time": 767.3500000000004,
                    "velocity": 0.6062992125984252,
                    "duration": 0.0625
                },
                {
                    "name": "E4",
                    "midi": 64,
                    "time": 767.3500000000004,
                    "velocity": 0.6692913385826772,
                    "duration": 0.043750000000045475
                },
                {
                    "name": "C#4",
                    "midi": 61,
                    "time": 767.4770833333337,
                    "velocity": 0.6692913385826772,
                    "duration": 0.0625
                },
                {
                    "name": "C#4",
                    "midi": 61,
                    "time": 767.591666666667,
                    "velocity": 0.7559055118110236,
                    "duration": 0.04166666666662877
                },
                {
                    "name": "C#4",
                    "midi": 61,
                    "time": 767.7187500000003,
                    "velocity": 0.9448818897637795,
                    "duration": 0.05833333333328028
                },
                {
                    "name": "C#4",
                    "midi": 61,
                    "time": 767.829166666667,
                    "velocity": 0.8110236220472441,
                    "duration": 0.08958333333328028
                },
                {
                    "name": "F3",
                    "midi": 53,
                    "time": 767.9645833333336,
                    "velocity": 0.5905511811023622,
                    "duration": 0.06666666666671972
                },
                {
                    "name": "B3",
                    "midi": 59,
                    "time": 767.9645833333336,
                    "velocity": 0.5905511811023622,
                    "duration": 0.06666666666671972
                },
                {
                    "name": "D4",
                    "midi": 62,
                    "time": 767.9645833333336,
                    "velocity": 0.6692913385826772,
                    "duration": 0.06666666666671972
                },
                {
                    "name": "C#4",
                    "midi": 61,
                    "time": 768.091666666667,
                    "velocity": 0.937007874015748,
                    "duration": 0.0625
                },
                {
                    "name": "C#4",
                    "midi": 61,
                    "time": 768.1979166666671,
                    "velocity": 0.8661417322834646,
                    "duration": 0.09583333333330302
                },
                {
                    "name": "F3",
                    "midi": 53,
                    "time": 768.3020833333337,
                    "velocity": 0.6377952755905512,
                    "duration": 0.07916666666665151
                },
                {
                    "name": "B3",
                    "midi": 59,
                    "time": 768.3020833333337,
                    "velocity": 0.6377952755905512,
                    "duration": 0.07916666666665151
                },
                {
                    "name": "E4",
                    "midi": 64,
                    "time": 768.3020833333337,
                    "velocity": 0.7165354330708661,
                    "duration": 0.07916666666665151
                },
                {
                    "name": "C#4",
                    "midi": 61,
                    "time": 768.4416666666671,
                    "velocity": 0.952755905511811,
                    "duration": 0.0625
                },
                {
                    "name": "C#4",
                    "midi": 61,
                    "time": 768.5479166666671,
                    "velocity": 0.7952755905511811,
                    "duration": 0.06875000000002274
                },
                {
                    "name": "C#4",
                    "midi": 61,
                    "time": 768.6750000000004,
                    "velocity": 0.9133858267716536,
                    "duration": 0.06458333333330302
                },
                {
                    "name": "C#4",
                    "midi": 61,
                    "time": 768.7833333333338,
                    "velocity": 0.84251968503937,
                    "duration": 0.09791666666671972
                },
                {
                    "name": "F#3",
                    "midi": 54,
                    "time": 768.9250000000005,
                    "velocity": 0.5826771653543307,
                    "duration": 0.049999999999954525
                },
                {
                    "name": "A3",
                    "midi": 57,
                    "time": 768.9250000000005,
                    "velocity": 0.5826771653543307,
                    "duration": 0.049999999999954525
                },
                {
                    "name": "D4",
                    "midi": 62,
                    "time": 768.9250000000005,
                    "velocity": 0.6220472440944882,
                    "duration": 0.049999999999954525
                },
                {
                    "name": "C#4",
                    "midi": 61,
                    "time": 769.0333333333338,
                    "velocity": 0.937007874015748,
                    "duration": 0.06458333333330302
                },
                {
                    "name": "C#4",
                    "midi": 61,
                    "time": 769.1416666666671,
                    "velocity": 0.7952755905511811,
                    "duration": 0.08541666666667425
                },
                {
                    "name": "F#3",
                    "midi": 54,
                    "time": 769.2645833333338,
                    "velocity": 0.6220472440944882,
                    "duration": 0.0625
                },
                {
                    "name": "A3",
                    "midi": 57,
                    "time": 769.2645833333338,
                    "velocity": 0.6220472440944882,
                    "duration": 0.0625
                },
                {
                    "name": "E4",
                    "midi": 64,
                    "time": 769.2645833333338,
                    "velocity": 0.6614173228346457,
                    "duration": 0.06458333333330302
                },
                {
                    "name": "C#4",
                    "midi": 61,
                    "time": 769.3750000000005,
                    "velocity": 0.9291338582677166,
                    "duration": 0.06041666666669698
                },
                {
                    "name": "C#4",
                    "midi": 61,
                    "time": 769.4833333333338,
                    "velocity": 0.7874015748031497,
                    "duration": 0.04791666666665151
                },
                {
                    "name": "C#4",
                    "midi": 61,
                    "time": 769.6062500000005,
                    "velocity": 0.968503937007874,
                    "duration": 0.06041666666669698
                },
                {
                    "name": "C#4",
                    "midi": 61,
                    "time": 769.7083333333338,
                    "velocity": 0.8503937007874016,
                    "duration": 0.07500000000004547
                },
                {
                    "name": "F#3",
                    "midi": 54,
                    "time": 769.8354166666672,
                    "velocity": 0.5275590551181102,
                    "duration": 0.05624999999997726
                },
                {
                    "name": "A3",
                    "midi": 57,
                    "time": 769.8354166666672,
                    "velocity": 0.5275590551181102,
                    "duration": 0.05624999999997726
                },
                {
                    "name": "D4",
                    "midi": 62,
                    "time": 769.8354166666672,
                    "velocity": 0.5984251968503937,
                    "duration": 0.05624999999997726
                },
                {
                    "name": "C#4",
                    "midi": 61,
                    "time": 769.9541666666672,
                    "velocity": 0.937007874015748,
                    "duration": 0.06458333333330302
                },
                {
                    "name": "C#4",
                    "midi": 61,
                    "time": 770.0541666666672,
                    "velocity": 0.7795275590551181,
                    "duration": 0.08541666666667425
                },
                {
                    "name": "F#3",
                    "midi": 54,
                    "time": 770.1770833333339,
                    "velocity": 0.5118110236220472,
                    "duration": 0.07083333333332575
                },
                {
                    "name": "A3",
                    "midi": 57,
                    "time": 770.1770833333339,
                    "velocity": 0.5118110236220472,
                    "duration": 0.07083333333332575
                },
                {
                    "name": "E4",
                    "midi": 64,
                    "time": 770.1770833333339,
                    "velocity": 0.6299212598425197,
                    "duration": 0.07083333333332575
                },
                {
                    "name": "C#4",
                    "midi": 61,
                    "time": 770.2916666666673,
                    "velocity": 0.9448818897637795,
                    "duration": 0.05833333333328028
                },
                {
                    "name": "C#4",
                    "midi": 61,
                    "time": 770.3937500000006,
                    "velocity": 0.8188976377952756,
                    "duration": 0.07083333333332575
                },
                {
                    "name": "F#4",
                    "midi": 66,
                    "time": 770.533333333334,
                    "velocity": 0.9921259842519685,
                    "duration": 0.05624999999997726
                },
                {
                    "name": "F#4",
                    "midi": 66,
                    "time": 770.6312500000006,
                    "velocity": 0.84251968503937,
                    "duration": 0.09583333333330302
                },
                {
                    "name": "A#3",
                    "midi": 58,
                    "time": 770.7708333333339,
                    "velocity": 0.5118110236220472,
                    "duration": 0.049999999999954525
                },
                {
                    "name": "E4",
                    "midi": 64,
                    "time": 770.7708333333339,
                    "velocity": 0.5118110236220472,
                    "duration": 0.049999999999954525
                },
                {
                    "name": "G4",
                    "midi": 67,
                    "time": 770.7708333333339,
                    "velocity": 0.5826771653543307,
                    "duration": 0.049999999999954525
                },
                {
                    "name": "F#4",
                    "midi": 66,
                    "time": 770.8625000000005,
                    "velocity": 0.905511811023622,
                    "duration": 0.0625
                },
                {
                    "name": "F#4",
                    "midi": 66,
                    "time": 770.9666666666672,
                    "velocity": 0.7952755905511811,
                    "duration": 0.10000000000002274
                },
                {
                    "name": "A#3",
                    "midi": 58,
                    "time": 771.0625000000005,
                    "velocity": 0.5275590551181102,
                    "duration": 0.0625
                },
                {
                    "name": "E4",
                    "midi": 64,
                    "time": 771.0625000000005,
                    "velocity": 0.5275590551181102,
                    "duration": 0.0625
                },
                {
                    "name": "A4",
                    "midi": 69,
                    "time": 771.0625000000005,
                    "velocity": 0.5905511811023622,
                    "duration": 0.06666666666671972
                },
                {
                    "name": "F#4",
                    "midi": 66,
                    "time": 771.1708333333338,
                    "velocity": 0.968503937007874,
                    "duration": 0.0625
                },
                {
                    "name": "F#4",
                    "midi": 66,
                    "time": 771.2687500000005,
                    "velocity": 0.7874015748031497,
                    "duration": 0.07083333333332575
                },
                {
                    "name": "F#4",
                    "midi": 66,
                    "time": 771.3916666666672,
                    "velocity": 0.952755905511811,
                    "duration": 0.06875000000002274
                },
                {
                    "name": "F#4",
                    "midi": 66,
                    "time": 771.4979166666673,
                    "velocity": 0.84251968503937,
                    "duration": 0.08124999999995453
                },
                {
                    "name": "A#3",
                    "midi": 58,
                    "time": 771.6145833333339,
                    "velocity": 0.5118110236220472,
                    "duration": 0.0625
                },
                {
                    "name": "E4",
                    "midi": 64,
                    "time": 771.6145833333339,
                    "velocity": 0.5118110236220472,
                    "duration": 0.0625
                },
                {
                    "name": "G4",
                    "midi": 67,
                    "time": 771.6145833333339,
                    "velocity": 0.6062992125984252,
                    "duration": 0.06041666666669698
                },
                {
                    "name": "F#4",
                    "midi": 66,
                    "time": 771.7333333333339,
                    "velocity": 0.9921259842519685,
                    "duration": 0.07500000000004547
                },
                {
                    "name": "F#4",
                    "midi": 66,
                    "time": 771.8291666666673,
                    "velocity": 0.6692913385826772,
                    "duration": 0.1104166666667652
                },
                {
                    "name": "A#3",
                    "midi": 58,
                    "time": 771.9354166666674,
                    "velocity": 0.5118110236220472,
                    "duration": 0.0625
                },
                {
                    "name": "E4",
                    "midi": 64,
                    "time": 771.9354166666674,
                    "velocity": 0.5118110236220472,
                    "duration": 0.0625
                },
                {
                    "name": "A4",
                    "midi": 69,
                    "time": 771.9354166666674,
                    "velocity": 0.5984251968503937,
                    "duration": 0.06458333333330302
                },
                {
                    "name": "F#4",
                    "midi": 66,
                    "time": 772.0541666666674,
                    "velocity": 0.9763779527559056,
                    "duration": 0.15416666666669698
                },
                {
                    "name": "F#4",
                    "midi": 66,
                    "time": 772.2458333333341,
                    "velocity": 0.9921259842519685,
                    "duration": 0.0625
                },
                {
                    "name": "F#4",
                    "midi": 66,
                    "time": 772.3541666666674,
                    "velocity": 0.889763779527559,
                    "duration": 0.09791666666671972
                },
                {
                    "name": "B3",
                    "midi": 59,
                    "time": 772.4770833333341,
                    "velocity": 0.5118110236220472,
                    "duration": 0.0625
                },
                {
                    "name": "D4",
                    "midi": 62,
                    "time": 772.4770833333341,
                    "velocity": 0.5118110236220472,
                    "duration": 0.0625
                },
                {
                    "name": "G4",
                    "midi": 67,
                    "time": 772.4770833333341,
                    "velocity": 0.6062992125984252,
                    "duration": 0.05624999999997726
                },
                {
                    "name": "F#4",
                    "midi": 66,
                    "time": 772.5687500000008,
                    "velocity": 0.968503937007874,
                    "duration": 0.06666666666671972
                },
                {
                    "name": "F#4",
                    "midi": 66,
                    "time": 772.6687500000008,
                    "velocity": 0.8661417322834646,
                    "duration": 0.09375
                },
                {
                    "name": "B3",
                    "midi": 59,
                    "time": 772.7583333333341,
                    "velocity": 0.5905511811023622,
                    "duration": 0.0625
                },
                {
                    "name": "D4",
                    "midi": 62,
                    "time": 772.7583333333341,
                    "velocity": 0.5905511811023622,
                    "duration": 0.0625
                },
                {
                    "name": "A4",
                    "midi": 69,
                    "time": 772.7583333333341,
                    "velocity": 0.7244094488188977,
                    "duration": 0.07500000000004547
                },
                {
                    "name": "F#4",
                    "midi": 66,
                    "time": 772.8604166666674,
                    "velocity": 0.9763779527559056,
                    "duration": 0.06666666666671972
                },
                {
                    "name": "F#4",
                    "midi": 66,
                    "time": 772.9583333333342,
                    "velocity": 0.8818897637795275,
                    "duration": 0.07083333333332575
                },
                {
                    "name": "F#4",
                    "midi": 66,
                    "time": 773.0625000000008,
                    "velocity": 1,
                    "duration": 0.06666666666671972
                },
                {
                    "name": "F#4",
                    "midi": 66,
                    "time": 773.1666666666675,
                    "velocity": 0.937007874015748,
                    "duration": 0.09791666666660603
                },
                {
                    "name": "B3",
                    "midi": 59,
                    "time": 773.2625000000008,
                    "velocity": 0.6299212598425197,
                    "duration": 0.08958333333328028
                },
                {
                    "name": "D4",
                    "midi": 62,
                    "time": 773.2625000000008,
                    "velocity": 0.6299212598425197,
                    "duration": 0.08958333333328028
                },
                {
                    "name": "G4",
                    "midi": 67,
                    "time": 773.2625000000008,
                    "velocity": 0.7165354330708661,
                    "duration": 0.0916666666665833
                },
                {
                    "name": "F#4",
                    "midi": 66,
                    "time": 773.3875000000007,
                    "velocity": 0.984251968503937,
                    "duration": 0.19583333333332575
                },
                {
                    "name": "B3",
                    "midi": 59,
                    "time": 773.577083333334,
                    "velocity": 0.6299212598425197,
                    "duration": 0.07083333333332575
                },
                {
                    "name": "D4",
                    "midi": 62,
                    "time": 773.577083333334,
                    "velocity": 0.6299212598425197,
                    "duration": 0.07083333333332575
                },
                {
                    "name": "A4",
                    "midi": 69,
                    "time": 773.577083333334,
                    "velocity": 0.7165354330708661,
                    "duration": 0.07291666666662877
                },
                {
                    "name": "F#4",
                    "midi": 66,
                    "time": 773.670833333334,
                    "velocity": 0.984251968503937,
                    "duration": 0.06666666666671972
                },
                {
                    "name": "F#4",
                    "midi": 66,
                    "time": 773.7687500000008,
                    "velocity": 0.9291338582677166,
                    "duration": 0.07291666666662877
                },
                {
                    "name": "C#4",
                    "midi": 61,
                    "time": 773.9166666666674,
                    "velocity": 0.9763779527559056,
                    "duration": 0.05624999999997726
                },
                {
                    "name": "C#4",
                    "midi": 61,
                    "time": 774.0125000000007,
                    "velocity": 0.8818897637795275,
                    "duration": 0.08749999999997726
                },
                {
                    "name": "F3",
                    "midi": 53,
                    "time": 774.1500000000007,
                    "velocity": 0.5511811023622047,
                    "duration": 0.0625
                },
                {
                    "name": "B3",
                    "midi": 59,
                    "time": 774.1500000000007,
                    "velocity": 0.5511811023622047,
                    "duration": 0.0625
                },
                {
                    "name": "D4",
                    "midi": 62,
                    "time": 774.1500000000007,
                    "velocity": 0.6377952755905512,
                    "duration": 0.08124999999995453
                },
                {
                    "name": "C#2",
                    "midi": 37,
                    "time": 774.2645833333339,
                    "velocity": 0.8661417322834646,
                    "duration": 0.09375
                },
                {
                    "name": "C#4",
                    "midi": 61,
                    "time": 774.3625000000006,
                    "velocity": 0.8188976377952756,
                    "duration": 0.10208333333343944
                },
                {
                    "name": "F3",
                    "midi": 53,
                    "time": 774.4604166666674,
                    "velocity": 0.5511811023622047,
                    "duration": 0.0625
                },
                {
                    "name": "B3",
                    "midi": 59,
                    "time": 774.4604166666674,
                    "velocity": 0.5511811023622047,
                    "duration": 0.0625
                },
                {
                    "name": "E4",
                    "midi": 64,
                    "time": 774.4604166666674,
                    "velocity": 0.6692913385826772,
                    "duration": 0.06874999999990905
                },
                {
                    "name": "G#2",
                    "midi": 44,
                    "time": 774.558333333334,
                    "velocity": 0.8188976377952756,
                    "duration": 0.09583333333330302
                },
                {
                    "name": "C#4",
                    "midi": 61,
                    "time": 774.6458333333339,
                    "velocity": 0.8976377952755905,
                    "duration": 0.06458333333330302
                },
                {
                    "name": "C#3",
                    "midi": 49,
                    "time": 774.7625000000006,
                    "velocity": 0.968503937007874,
                    "duration": 0.08125000000006821
                },
                {
                    "name": "C#4",
                    "midi": 61,
                    "time": 774.8625000000006,
                    "velocity": 0.9133858267716536,
                    "duration": 0.08958333333328028
                },
                {
                    "name": "F3",
                    "midi": 53,
                    "time": 774.9750000000006,
                    "velocity": 0.5511811023622047,
                    "duration": 0.0625
                },
                {
                    "name": "B3",
                    "midi": 59,
                    "time": 774.9750000000006,
                    "velocity": 0.5511811023622047,
                    "duration": 0.0625
                },
                {
                    "name": "D4",
                    "midi": 62,
                    "time": 774.9750000000006,
                    "velocity": 0.6929133858267716,
                    "duration": 0.06875000000002274
                },
                {
                    "name": "G#3",
                    "midi": 56,
                    "time": 775.0770833333339,
                    "velocity": 0.9291338582677166,
                    "duration": 0.06666666666671972
                },
                {
                    "name": "C#4",
                    "midi": 61,
                    "time": 775.1562500000007,
                    "velocity": 0.8582677165354331,
                    "duration": 0.11041666666665151
                },
                {
                    "name": "F3",
                    "midi": 53,
                    "time": 775.2729166666674,
                    "velocity": 0.6692913385826772,
                    "duration": 0.0625
                },
                {
                    "name": "B3",
                    "midi": 59,
                    "time": 775.2729166666674,
                    "velocity": 0.6692913385826772,
                    "duration": 0.0625
                },
                {
                    "name": "E4",
                    "midi": 64,
                    "time": 775.2729166666674,
                    "velocity": 0.7795275590551181,
                    "duration": 0.07291666666662877
                },
                {
                    "name": "C#4",
                    "midi": 61,
                    "time": 775.414583333334,
                    "velocity": 0.8976377952755905,
                    "duration": 0.06875000000002274
                },
                {
                    "name": "C#4",
                    "midi": 61,
                    "time": 775.5312500000007,
                    "velocity": 0.8110236220472441,
                    "duration": 0.06041666666669698
                },
                {
                    "name": "C#4",
                    "midi": 61,
                    "time": 775.6562500000007,
                    "velocity": 0.952755905511811,
                    "duration": 0.06041666666669698
                },
                {
                    "name": "C#4",
                    "midi": 61,
                    "time": 775.770833333334,
                    "velocity": 0.7795275590551181,
                    "duration": 0.10208333333332575
                },
                {
                    "name": "F#3",
                    "midi": 54,
                    "time": 775.9041666666674,
                    "velocity": 0.5905511811023622,
                    "duration": 0.0625
                },
                {
                    "name": "A3",
                    "midi": 57,
                    "time": 775.9041666666674,
                    "velocity": 0.5905511811023622,
                    "duration": 0.0625
                },
                {
                    "name": "D4",
                    "midi": 62,
                    "time": 775.9041666666674,
                    "velocity": 0.6771653543307087,
                    "duration": 0.07083333333332575
                },
                {
                    "name": "C#2",
                    "midi": 37,
                    "time": 776.0000000000007,
                    "velocity": 0.8188976377952756,
                    "duration": 0.09375
                },
                {
                    "name": "C#4",
                    "midi": 61,
                    "time": 776.1104166666673,
                    "velocity": 0.7795275590551181,
                    "duration": 0.10000000000002274
                },
                {
                    "name": "F#3",
                    "midi": 54,
                    "time": 776.189583333334,
                    "velocity": 0.6299212598425197,
                    "duration": 0.07916666666665151
                },
                {
                    "name": "A3",
                    "midi": 57,
                    "time": 776.189583333334,
                    "velocity": 0.6299212598425197,
                    "duration": 0.07916666666665151
                },
                {
                    "name": "E4",
                    "midi": 64,
                    "time": 776.189583333334,
                    "velocity": 0.7086614173228346,
                    "duration": 0.07916666666665151
                },
                {
                    "name": "F#2",
                    "midi": 42,
                    "time": 776.295833333334,
                    "velocity": 0.9133858267716536,
                    "duration": 0.08124999999995453
                },
                {
                    "name": "C#4",
                    "midi": 61,
                    "time": 776.383333333334,
                    "velocity": 0.8976377952755905,
                    "duration": 0.06458333333330302
                },
                {
                    "name": "C#3",
                    "midi": 49,
                    "time": 776.514583333334,
                    "velocity": 0.968503937007874,
                    "duration": 0.08749999999997726
                },
                {
                    "name": "C#4",
                    "midi": 61,
                    "time": 776.620833333334,
                    "velocity": 0.8582677165354331,
                    "duration": 0.09375
                },
                {
                    "name": "F#3",
                    "midi": 54,
                    "time": 776.7416666666672,
                    "velocity": 0.6692913385826772,
                    "duration": 0.0625
                },
                {
                    "name": "A3",
                    "midi": 57,
                    "time": 776.7416666666672,
                    "velocity": 0.6692913385826772,
                    "duration": 0.0625
                },
                {
                    "name": "D4",
                    "midi": 62,
                    "time": 776.7416666666672,
                    "velocity": 0.7559055118110236,
                    "duration": 0.07291666666662877
                },
                {
                    "name": "F#3",
                    "midi": 54,
                    "time": 776.8645833333338,
                    "velocity": 0.905511811023622,
                    "duration": 0.08124999999995453
                },
                {
                    "name": "C#4",
                    "midi": 61,
                    "time": 776.9437500000005,
                    "velocity": 0.84251968503937,
                    "duration": 0.11666666666667425
                },
                {
                    "name": "F#3",
                    "midi": 54,
                    "time": 777.0541666666671,
                    "velocity": 0.6299212598425197,
                    "duration": 0.0625
                },
                {
                    "name": "A3",
                    "midi": 57,
                    "time": 777.0541666666671,
                    "velocity": 0.6299212598425197,
                    "duration": 0.0625
                },
                {
                    "name": "E4",
                    "midi": 64,
                    "time": 777.0541666666671,
                    "velocity": 0.7637795275590551,
                    "duration": 0.07500000000004547
                },
                {
                    "name": "C#4",
                    "midi": 61,
                    "time": 777.1854166666672,
                    "velocity": 0.905511811023622,
                    "duration": 0.06666666666660603
                },
                {
                    "name": "C#4",
                    "midi": 61,
                    "time": 777.2937500000004,
                    "velocity": 0.889763779527559,
                    "duration": 0.0625
                },
                {
                    "name": "C#4",
                    "midi": 61,
                    "time": 777.4458333333337,
                    "velocity": 1,
                    "duration": 0.060416666666583296
                },
                {
                    "name": "C#4",
                    "midi": 61,
                    "time": 777.5708333333336,
                    "velocity": 0.7716535433070866,
                    "duration": 0.09583333333330302
                },
                {
                    "name": "F3",
                    "midi": 53,
                    "time": 777.6895833333335,
                    "velocity": 0.5511811023622047,
                    "duration": 0.06458333333330302
                },
                {
                    "name": "B3",
                    "midi": 59,
                    "time": 777.6895833333335,
                    "velocity": 0.5511811023622047,
                    "duration": 0.06458333333330302
                },
                {
                    "name": "D4",
                    "midi": 62,
                    "time": 777.6895833333335,
                    "velocity": 0.6377952755905512,
                    "duration": 0.07499999999993179
                },
                {
                    "name": "C#2",
                    "midi": 37,
                    "time": 777.8083333333335,
                    "velocity": 0.8110236220472441,
                    "duration": 0.10000000000002274
                },
                {
                    "name": "C#4",
                    "midi": 61,
                    "time": 777.9041666666668,
                    "velocity": 0.8188976377952756,
                    "duration": 0.10625000000004547
                },
                {
                    "name": "F3",
                    "midi": 53,
                    "time": 778.0000000000002,
                    "velocity": 0.5905511811023622,
                    "duration": 0.0625
                },
                {
                    "name": "B3",
                    "midi": 59,
                    "time": 778.0000000000002,
                    "velocity": 0.5905511811023622,
                    "duration": 0.0625
                },
                {
                    "name": "E4",
                    "midi": 64,
                    "time": 778.0000000000002,
                    "velocity": 0.6535433070866141,
                    "duration": 0.07291666666662877
                },
                {
                    "name": "G#2",
                    "midi": 44,
                    "time": 778.0979166666668,
                    "velocity": 0.8661417322834646,
                    "duration": 0.08333333333325754
                },
                {
                    "name": "C#4",
                    "midi": 61,
                    "time": 778.1875000000001,
                    "velocity": 0.8661417322834646,
                    "duration": 0.06875000000002274
                },
                {
                    "name": "C#3",
                    "midi": 49,
                    "time": 778.3083333333335,
                    "velocity": 0.952755905511811,
                    "duration": 0.08541666666667425
                },
                {
                    "name": "C#4",
                    "midi": 61,
                    "time": 778.4166666666669,
                    "velocity": 0.905511811023622,
                    "duration": 0.10000000000002274
                },
                {
                    "name": "F3",
                    "midi": 53,
                    "time": 778.5291666666669,
                    "velocity": 0.5905511811023622,
                    "duration": 0.0625
                },
                {
                    "name": "B3",
                    "midi": 59,
                    "time": 778.5291666666669,
                    "velocity": 0.5905511811023622,
                    "duration": 0.0625
                },
                {
                    "name": "D4",
                    "midi": 62,
                    "time": 778.5291666666669,
                    "velocity": 0.7007874015748031,
                    "duration": 0.07083333333332575
                },
                {
                    "name": "G#3",
                    "midi": 56,
                    "time": 778.6458333333336,
                    "velocity": 0.8976377952755905,
                    "duration": 0.07083333333332575
                },
                {
                    "name": "C#4",
                    "midi": 61,
                    "time": 778.7375000000003,
                    "velocity": 0.8503937007874016,
                    "duration": 0.11041666666665151
                },
                {
                    "name": "F3",
                    "midi": 53,
                    "time": 778.8375000000003,
                    "velocity": 0.6377952755905512,
                    "duration": 0.0625
                },
                {
                    "name": "B3",
                    "midi": 59,
                    "time": 778.8375000000003,
                    "velocity": 0.6377952755905512,
                    "duration": 0.0625
                },
                {
                    "name": "E4",
                    "midi": 64,
                    "time": 778.8375000000003,
                    "velocity": 0.7086614173228346,
                    "duration": 0.06458333333330302
                },
                {
                    "name": "C#4",
                    "midi": 61,
                    "time": 778.9583333333336,
                    "velocity": 0.9448818897637795,
                    "duration": 0.06458333333330302
                },
                {
                    "name": "C#4",
                    "midi": 61,
                    "time": 779.0937500000002,
                    "velocity": 0.7165354330708661,
                    "duration": 0.043750000000045475
                },
                {
                    "name": "C#4",
                    "midi": 61,
                    "time": 779.2083333333336,
                    "velocity": 0.984251968503937,
                    "duration": 0.05833333333328028
                },
                {
                    "name": "C#4",
                    "midi": 61,
                    "time": 779.3333333333336,
                    "velocity": 0.7874015748031497,
                    "duration": 0.10000000000002274
                },
                {
                    "name": "A3",
                    "midi": 57,
                    "time": 779.4562500000003,
                    "velocity": 0.5511811023622047,
                    "duration": 0.0625
                },
                {
                    "name": "F#3",
                    "midi": 54,
                    "time": 779.4562500000003,
                    "velocity": 0.5511811023622047,
                    "duration": 0.0625
                },
                {
                    "name": "D4",
                    "midi": 62,
                    "time": 779.4562500000003,
                    "velocity": 0.6377952755905512,
                    "duration": 0.07500000000004547
                },
                {
                    "name": "C#2",
                    "midi": 37,
                    "time": 779.5562500000003,
                    "velocity": 0.8503937007874016,
                    "duration": 0.10208333333332575
                },
                {
                    "name": "C#4",
                    "midi": 61,
                    "time": 779.666666666667,
                    "velocity": 0.8582677165354331,
                    "duration": 0.11249999999995453
                },
                {
                    "name": "F#3",
                    "midi": 54,
                    "time": 779.7625000000003,
                    "velocity": 0.6299212598425197,
                    "duration": 0.0625
                },
                {
                    "name": "A3",
                    "midi": 57,
                    "time": 779.7625000000003,
                    "velocity": 0.6299212598425197,
                    "duration": 0.0625
                },
                {
                    "name": "E4",
                    "midi": 64,
                    "time": 779.7625000000003,
                    "velocity": 0.7007874015748031,
                    "duration": 0.06458333333330302
                },
                {
                    "name": "F#2",
                    "midi": 42,
                    "time": 779.8666666666669,
                    "velocity": 0.7716535433070866,
                    "duration": 0.04791666666665151
                },
                {
                    "name": "C#4",
                    "midi": 61,
                    "time": 779.9562500000002,
                    "velocity": 0.8818897637795275,
                    "duration": 0.06458333333330302
                },
                {
                    "name": "C#3",
                    "midi": 49,
                    "time": 780.0708333333334,
                    "velocity": 0.968503937007874,
                    "duration": 0.08541666666667425
                },
                {
                    "name": "C#4",
                    "midi": 61,
                    "time": 780.1750000000001,
                    "velocity": 0.889763779527559,
                    "duration": 0.10625000000004547
                },
                {
                    "name": "F#3",
                    "midi": 54,
                    "time": 780.2812500000001,
                    "velocity": 0.5905511811023622,
                    "duration": 0.07291666666662877
                },
                {
                    "name": "A3",
                    "midi": 57,
                    "time": 780.2812500000001,
                    "velocity": 0.5905511811023622,
                    "duration": 0.07291666666662877
                },
                {
                    "name": "D4",
                    "midi": 62,
                    "time": 780.2812500000001,
                    "velocity": 0.6929133858267716,
                    "duration": 0.08333333333325754
                },
                {
                    "name": "F#3",
                    "midi": 54,
                    "time": 780.3875,
                    "velocity": 0.8582677165354331,
                    "duration": 0.07500000000004547
                },
                {
                    "name": "C#4",
                    "midi": 61,
                    "time": 780.4937500000001,
                    "velocity": 0.8188976377952756,
                    "duration": 0.11249999999995453
                },
                {
                    "name": "F#3",
                    "midi": 54,
                    "time": 780.6041666666667,
                    "velocity": 0.5905511811023622,
                    "duration": 0.0625
                },
                {
                    "name": "A3",
                    "midi": 57,
                    "time": 780.6041666666667,
                    "velocity": 0.5905511811023622,
                    "duration": 0.0625
                },
                {
                    "name": "E4",
                    "midi": 64,
                    "time": 780.6041666666667,
                    "velocity": 0.6614173228346457,
                    "duration": 0.06875000000002274
                },
                {
                    "name": "C#4",
                    "midi": 61,
                    "time": 780.7041666666668,
                    "velocity": 0.8976377952755905,
                    "duration": 0.07083333333332575
                },
                {
                    "name": "C#4",
                    "midi": 61,
                    "time": 780.7958333333335,
                    "velocity": 0.6456692913385826,
                    "duration": 0.07083333333332575
                },
                {
                    "name": "C#4",
                    "midi": 61,
                    "time": 780.9291666666668,
                    "velocity": 0.8818897637795275,
                    "duration": 0.06875000000002274
                },
                {
                    "name": "C#4",
                    "midi": 61,
                    "time": 781.0333333333335,
                    "velocity": 0.8503937007874016,
                    "duration": 0.10000000000002274
                },
                {
                    "name": "F#3",
                    "midi": 54,
                    "time": 781.1395833333336,
                    "velocity": 0.5905511811023622,
                    "duration": 0.07291666666662877
                },
                {
                    "name": "A3",
                    "midi": 57,
                    "time": 781.1395833333336,
                    "velocity": 0.5905511811023622,
                    "duration": 0.07291666666662877
                },
                {
                    "name": "D4",
                    "midi": 62,
                    "time": 781.1395833333336,
                    "velocity": 0.6456692913385826,
                    "duration": 0.07499999999993179
                },
                {
                    "name": "C#4",
                    "midi": 61,
                    "time": 781.2437500000002,
                    "velocity": 0.84251968503937,
                    "duration": 0.06249999999988631
                },
                {
                    "name": "C#4",
                    "midi": 61,
                    "time": 781.3395833333334,
                    "velocity": 0.8110236220472441,
                    "duration": 0.10416666666662877
                },
                {
                    "name": "F#3",
                    "midi": 54,
                    "time": 781.4270833333334,
                    "velocity": 0.5905511811023622,
                    "duration": 0.0625
                },
                {
                    "name": "A3",
                    "midi": 57,
                    "time": 781.4270833333334,
                    "velocity": 0.5905511811023622,
                    "duration": 0.0625
                },
                {
                    "name": "E4",
                    "midi": 64,
                    "time": 781.4270833333334,
                    "velocity": 0.6771653543307087,
                    "duration": 0.08333333333337123
                },
                {
                    "name": "G#4",
                    "midi": 68,
                    "time": 781.5625000000001,
                    "velocity": 0.968503937007874,
                    "duration": 0.0625
                },
                {
                    "name": "C#4",
                    "midi": 61,
                    "time": 781.6750000000001,
                    "velocity": 0.8267716535433071,
                    "duration": 0.08749999999997726
                },
                {
                    "name": "F#4",
                    "midi": 66,
                    "time": 781.8333333333334,
                    "velocity": 0.968503937007874,
                    "duration": 0.06041666666669698
                },
                {
                    "name": "C#4",
                    "midi": 61,
                    "time": 781.9291666666668,
                    "velocity": 0.7795275590551181,
                    "duration": 0.125
                },
                {
                    "name": "F#3",
                    "midi": 54,
                    "time": 782.0500000000001,
                    "velocity": 0.5905511811023622,
                    "duration": 0.08333333333337123
                },
                {
                    "name": "A3",
                    "midi": 57,
                    "time": 782.0500000000001,
                    "velocity": 0.5905511811023622,
                    "duration": 0.08333333333337123
                },
                {
                    "name": "D4",
                    "midi": 62,
                    "time": 782.0500000000001,
                    "velocity": 0.6614173228346457,
                    "duration": 0.08958333333339397
                },
                {
                    "name": "C#4",
                    "midi": 61,
                    "time": 782.1854166666668,
                    "velocity": 0.8582677165354331,
                    "duration": 0.04583333333334849
                },
                {
                    "name": "C#4",
                    "midi": 61,
                    "time": 782.2937500000002,
                    "velocity": 0.7322834645669292,
                    "duration": 0.10000000000002274
                },
                {
                    "name": "F#3",
                    "midi": 54,
                    "time": 782.3875000000002,
                    "velocity": 0.5905511811023622,
                    "duration": 0.0625
                },
                {
                    "name": "A3",
                    "midi": 57,
                    "time": 782.3875000000002,
                    "velocity": 0.5905511811023622,
                    "duration": 0.0625
                },
                {
                    "name": "E4",
                    "midi": 64,
                    "time": 782.3875000000002,
                    "velocity": 0.6299212598425197,
                    "duration": 0.06458333333330302
                },
                {
                    "name": "C#4",
                    "midi": 61,
                    "time": 782.5208333333335,
                    "velocity": 0.84251968503937,
                    "duration": 0.05208333333337123
                },
                {
                    "name": "C#4",
                    "midi": 61,
                    "time": 782.6104166666669,
                    "velocity": 0.7401574803149606,
                    "duration": 0.0625
                },
                {
                    "name": "C#4",
                    "midi": 61,
                    "time": 782.7645833333336,
                    "velocity": 0.7795275590551181,
                    "duration": 0.05833333333328028
                },
                {
                    "name": "C#4",
                    "midi": 61,
                    "time": 782.8562500000002,
                    "velocity": 0.7559055118110236,
                    "duration": 0.10000000000002274
                },
                {
                    "name": "F3",
                    "midi": 53,
                    "time": 782.9708333333335,
                    "velocity": 0.5511811023622047,
                    "duration": 0.0625
                },
                {
                    "name": "B3",
                    "midi": 59,
                    "time": 782.9708333333335,
                    "velocity": 0.5511811023622047,
                    "duration": 0.0625
                },
                {
                    "name": "D4",
                    "midi": 62,
                    "time": 782.9708333333335,
                    "velocity": 0.6062992125984252,
                    "duration": 0.0625
                },
                {
                    "name": "C#4",
                    "midi": 61,
                    "time": 783.0854166666668,
                    "velocity": 0.8503937007874016,
                    "duration": 0.049999999999954525
                },
                {
                    "name": "C#4",
                    "midi": 61,
                    "time": 783.1833333333334,
                    "velocity": 0.8110236220472441,
                    "duration": 0.125
                },
                {
                    "name": "F3",
                    "midi": 53,
                    "time": 783.2895833333334,
                    "velocity": 0.5118110236220472,
                    "duration": 0.07291666666662877
                },
                {
                    "name": "B3",
                    "midi": 59,
                    "time": 783.2895833333334,
                    "velocity": 0.5118110236220472,
                    "duration": 0.07291666666662877
                },
                {
                    "name": "E4",
                    "midi": 64,
                    "time": 783.2895833333334,
                    "velocity": 0.5905511811023622,
                    "duration": 0.08333333333325754
                },
                {
                    "name": "A4",
                    "midi": 69,
                    "time": 783.3791666666667,
                    "velocity": 0.8582677165354331,
                    "duration": 0.06458333333330302
                },
                {
                    "name": "C#4",
                    "midi": 61,
                    "time": 783.5145833333333,
                    "velocity": 0.6850393700787402,
                    "duration": 0.09166666666669698
                },
                {
                    "name": "G#4",
                    "midi": 68,
                    "time": 783.6604166666667,
                    "velocity": 0.9448818897637795,
                    "duration": 0.06875000000002274
                },
                {
                    "name": "C#4",
                    "midi": 61,
                    "time": 783.75625,
                    "velocity": 0.8110236220472441,
                    "duration": 0.12083333333339397
                },
                {
                    "name": "F3",
                    "midi": 53,
                    "time": 783.8625000000001,
                    "velocity": 0.5118110236220472,
                    "duration": 0.07291666666662877
                },
                {
                    "name": "B3",
                    "midi": 59,
                    "time": 783.8625000000001,
                    "velocity": 0.5118110236220472,
                    "duration": 0.07291666666662877
                },
                {
                    "name": "D4",
                    "midi": 62,
                    "time": 783.8625000000001,
                    "velocity": 0.5984251968503937,
                    "duration": 0.07708333333334849
                },
                {
                    "name": "C#4",
                    "midi": 61,
                    "time": 783.9937500000001,
                    "velocity": 0.8346456692913385,
                    "duration": 0.06666666666671972
                },
                {
                    "name": "C#4",
                    "midi": 61,
                    "time": 784.1000000000001,
                    "velocity": 0.7244094488188977,
                    "duration": 0.10208333333332575
                },
                {
                    "name": "F3",
                    "midi": 53,
                    "time": 784.1916666666668,
                    "velocity": 0.5905511811023622,
                    "duration": 0.07291666666662877
                },
                {
                    "name": "B3",
                    "midi": 59,
                    "time": 784.1916666666668,
                    "velocity": 0.5905511811023622,
                    "duration": 0.07291666666662877
                },
                {
                    "name": "E4",
                    "midi": 64,
                    "time": 784.1916666666668,
                    "velocity": 0.6614173228346457,
                    "duration": 0.08541666666667425
                },
                {
                    "name": "C#4",
                    "midi": 61,
                    "time": 784.3208333333336,
                    "velocity": 0.8346456692913385,
                    "duration": 0.16458333333332575
                },
                {
                    "name": "C#4",
                    "midi": 61,
                    "time": 784.5562500000002,
                    "velocity": 0.8582677165354331,
                    "duration": 0.06458333333330302
                },
                {
                    "name": "C#4",
                    "midi": 61,
                    "time": 784.6729166666669,
                    "velocity": 0.8346456692913385,
                    "duration": 0.08749999999997726
                },
                {
                    "name": "F#3",
                    "midi": 54,
                    "time": 784.7708333333335,
                    "velocity": 0.5905511811023622,
                    "duration": 0.07500000000004547
                },
                {
                    "name": "A3",
                    "midi": 57,
                    "time": 784.7708333333335,
                    "velocity": 0.5905511811023622,
                    "duration": 0.07500000000004547
                },
                {
                    "name": "D4",
                    "midi": 62,
                    "time": 784.7708333333335,
                    "velocity": 0.6614173228346457,
                    "duration": 0.07708333333334849
                },
                {
                    "name": "C#4",
                    "midi": 61,
                    "time": 784.8916666666669,
                    "velocity": 0.8818897637795275,
                    "duration": 0.05833333333328028
                },
                {
                    "name": "C#4",
                    "midi": 61,
                    "time": 784.9729166666668,
                    "velocity": 0.7086614173228346,
                    "duration": 0.11666666666667425
                },
                {
                    "name": "F#3",
                    "midi": 54,
                    "time": 785.0750000000002,
                    "velocity": 0.5905511811023622,
                    "duration": 0.06666666666671972
                },
                {
                    "name": "A3",
                    "midi": 57,
                    "time": 785.0750000000002,
                    "velocity": 0.5905511811023622,
                    "duration": 0.06666666666671972
                },
                {
                    "name": "E4",
                    "midi": 64,
                    "time": 785.0750000000002,
                    "velocity": 0.6614173228346457,
                    "duration": 0.07083333333343944
                },
                {
                    "name": "B4",
                    "midi": 71,
                    "time": 785.1708333333336,
                    "velocity": 0.9448818897637795,
                    "duration": 0.06041666666669698
                },
                {
                    "name": "C#4",
                    "midi": 61,
                    "time": 785.2750000000003,
                    "velocity": 0.8346456692913385,
                    "duration": 0.09583333333330302
                },
                {
                    "name": "A4",
                    "midi": 69,
                    "time": 785.454166666667,
                    "velocity": 0.8740157480314961,
                    "duration": 0.0625
                },
                {
                    "name": "C#4",
                    "midi": 61,
                    "time": 785.5333333333336,
                    "velocity": 0.8582677165354331,
                    "duration": 0.125
                },
                {
                    "name": "F#3",
                    "midi": 54,
                    "time": 785.6645833333337,
                    "velocity": 0.5118110236220472,
                    "duration": 0.06041666666669698
                },
                {
                    "name": "A3",
                    "midi": 57,
                    "time": 785.6645833333337,
                    "velocity": 0.5118110236220472,
                    "duration": 0.06041666666669698
                },
                {
                    "name": "D4",
                    "midi": 62,
                    "time": 785.6645833333337,
                    "velocity": 0.6220472440944882,
                    "duration": 0.06041666666669698
                },
                {
                    "name": "C#4",
                    "midi": 61,
                    "time": 785.7708333333337,
                    "velocity": 0.8110236220472441,
                    "duration": 0.06666666666671972
                },
                {
                    "name": "C#4",
                    "midi": 61,
                    "time": 785.8750000000005,
                    "velocity": 0.7716535433070866,
                    "duration": 0.09999999999990905
                },
                {
                    "name": "F#3",
                    "midi": 54,
                    "time": 785.9645833333337,
                    "velocity": 0.5984251968503937,
                    "duration": 0.07708333333334849
                },
                {
                    "name": "A3",
                    "midi": 57,
                    "time": 785.9645833333337,
                    "velocity": 0.5984251968503937,
                    "duration": 0.07708333333334849
                },
                {
                    "name": "E4",
                    "midi": 64,
                    "time": 785.9645833333337,
                    "velocity": 0.6692913385826772,
                    "duration": 0.07708333333334849
                },
                {
                    "name": "C#4",
                    "midi": 61,
                    "time": 786.0979166666671,
                    "velocity": 0.889763779527559,
                    "duration": 0.0625
                },
                {
                    "name": "C#4",
                    "midi": 61,
                    "time": 786.1916666666671,
                    "velocity": 0.8267716535433071,
                    "duration": 0.06875000000002274
                },
                {
                    "name": "C#4",
                    "midi": 61,
                    "time": 786.3312500000004,
                    "velocity": 0.905511811023622,
                    "duration": 0.06458333333330302
                },
                {
                    "name": "C#4",
                    "midi": 61,
                    "time": 786.4416666666671,
                    "velocity": 0.8188976377952756,
                    "duration": 0.10416666666662877
                },
                {
                    "name": "F3",
                    "midi": 53,
                    "time": 786.5520833333337,
                    "velocity": 0.5118110236220472,
                    "duration": 0.06041666666669698
                },
                {
                    "name": "B3",
                    "midi": 59,
                    "time": 786.5520833333337,
                    "velocity": 0.5118110236220472,
                    "duration": 0.06041666666669698
                },
                {
                    "name": "D4",
                    "midi": 62,
                    "time": 786.5520833333337,
                    "velocity": 0.5905511811023622,
                    "duration": 0.06041666666669698
                },
                {
                    "name": "C#4",
                    "midi": 61,
                    "time": 786.6708333333337,
                    "velocity": 0.9291338582677166,
                    "duration": 0.058333333333393966
                },
                {
                    "name": "C#4",
                    "midi": 61,
                    "time": 786.7666666666671,
                    "velocity": 0.8188976377952756,
                    "duration": 0.1104166666667652
                },
                {
                    "name": "F3",
                    "midi": 53,
                    "time": 786.8645833333338,
                    "velocity": 0.5511811023622047,
                    "duration": 0.07291666666674246
                },
                {
                    "name": "B3",
                    "midi": 59,
                    "time": 786.8645833333338,
                    "velocity": 0.5511811023622047,
                    "duration": 0.07291666666674246
                },
                {
                    "name": "E4",
                    "midi": 64,
                    "time": 786.8645833333338,
                    "velocity": 0.6299212598425197,
                    "duration": 0.07708333333346218
                },
                {
                    "name": "C#5",
                    "midi": 73,
                    "time": 786.9812500000006,
                    "velocity": 0.952755905511811,
                    "duration": 0.0625
                },
                {
                    "name": "C#4",
                    "midi": 61,
                    "time": 787.0979166666673,
                    "velocity": 0.7559055118110236,
                    "duration": 0.09791666666671972
                },
                {
                    "name": "B4",
                    "midi": 71,
                    "time": 787.2541666666673,
                    "velocity": 0.8740157480314961,
                    "duration": 0.07083333333332575
                },
                {
                    "name": "C#4",
                    "midi": 61,
                    "time": 787.3666666666672,
                    "velocity": 0.7165354330708661,
                    "duration": 0.11666666666667425
                },
                {
                    "name": "F3",
                    "midi": 53,
                    "time": 787.4604166666672,
                    "velocity": 0.5118110236220472,
                    "duration": 0.09375
                },
                {
                    "name": "B3",
                    "midi": 59,
                    "time": 787.4604166666672,
                    "velocity": 0.5118110236220472,
                    "duration": 0.09375
                },
                {
                    "name": "D4",
                    "midi": 62,
                    "time": 787.4604166666672,
                    "velocity": 0.5984251968503937,
                    "duration": 0.10208333333332575
                },
                {
                    "name": "C#4",
                    "midi": 61,
                    "time": 787.5770833333339,
                    "velocity": 0.8818897637795275,
                    "duration": 0.06666666666671972
                },
                {
                    "name": "C#4",
                    "midi": 61,
                    "time": 787.6791666666674,
                    "velocity": 0.6850393700787402,
                    "duration": 0.13125000000002274
                },
                {
                    "name": "F3",
                    "midi": 53,
                    "time": 787.7750000000007,
                    "velocity": 0.5905511811023622,
                    "duration": 0.07291666666674246
                },
                {
                    "name": "B3",
                    "midi": 59,
                    "time": 787.7750000000007,
                    "velocity": 0.5905511811023622,
                    "duration": 0.07291666666674246
                },
                {
                    "name": "E4",
                    "midi": 64,
                    "time": 787.7750000000007,
                    "velocity": 0.6299212598425197,
                    "duration": 0.0791666666667652
                },
                {
                    "name": "B4",
                    "midi": 71,
                    "time": 787.8770833333341,
                    "velocity": 0.8976377952755905,
                    "duration": 0.0625
                },
                {
                    "name": "C#4",
                    "midi": 61,
                    "time": 787.989583333334,
                    "velocity": 0.8110236220472441,
                    "duration": 0.11041666666665151
                },
                {
                    "name": "A4",
                    "midi": 69,
                    "time": 788.1562500000007,
                    "velocity": 0.9133858267716536,
                    "duration": 0.0625
                },
                {
                    "name": "C#4",
                    "midi": 61,
                    "time": 788.2562500000007,
                    "velocity": 0.7874015748031497,
                    "duration": 0.11041666666665151
                },
                {
                    "name": "F#3",
                    "midi": 54,
                    "time": 788.3604166666673,
                    "velocity": 0.4881889763779528,
                    "duration": 0.0625
                },
                {
                    "name": "A3",
                    "midi": 57,
                    "time": 788.3604166666673,
                    "velocity": 0.4881889763779528,
                    "duration": 0.0625
                },
                {
                    "name": "D4",
                    "midi": 62,
                    "time": 788.3604166666673,
                    "velocity": 0.5905511811023622,
                    "duration": 0.07291666666662877
                },
                {
                    "name": "C#4",
                    "midi": 61,
                    "time": 788.4500000000006,
                    "velocity": 0.8818897637795275,
                    "duration": 0.19791666666662877
                },
                {
                    "name": "F#3",
                    "midi": 54,
                    "time": 788.6291666666673,
                    "velocity": 0.47244094488188976,
                    "duration": 0.08333333333325754
                },
                {
                    "name": "A3",
                    "midi": 57,
                    "time": 788.6291666666673,
                    "velocity": 0.47244094488188976,
                    "duration": 0.08333333333325754
                },
                {
                    "name": "E4",
                    "midi": 64,
                    "time": 788.6291666666673,
                    "velocity": 0.5905511811023622,
                    "duration": 0.08541666666656056
                },
                {
                    "name": "A4",
                    "midi": 69,
                    "time": 788.7291666666672,
                    "velocity": 0.8582677165354331,
                    "duration": 0.0625
                },
                {
                    "name": "C#4",
                    "midi": 61,
                    "time": 788.8166666666672,
                    "velocity": 0.8110236220472441,
                    "duration": 0.07916666666665151
                },
                {
                    "name": "G#4",
                    "midi": 68,
                    "time": 788.9854166666671,
                    "velocity": 0.937007874015748,
                    "duration": 0.1875
                },
                {
                    "name": "C4",
                    "midi": 60,
                    "time": 789.1562500000005,
                    "velocity": 0.5826771653543307,
                    "duration": 0.07291666666662877
                },
                {
                    "name": "F#4",
                    "midi": 66,
                    "time": 789.1562500000005,
                    "velocity": 0.5826771653543307,
                    "duration": 0.07291666666662877
                },
                {
                    "name": "A4",
                    "midi": 69,
                    "time": 789.1562500000005,
                    "velocity": 0.6692913385826772,
                    "duration": 0.08333333333325754
                },
                {
                    "name": "G#4",
                    "midi": 68,
                    "time": 789.2770833333337,
                    "velocity": 0.968503937007874,
                    "duration": 0.21250000000009095
                },
                {
                    "name": "C4",
                    "midi": 60,
                    "time": 789.4687500000005,
                    "velocity": 0.6771653543307087,
                    "duration": 0.0625
                },
                {
                    "name": "F#4",
                    "midi": 66,
                    "time": 789.4687500000005,
                    "velocity": 0.6771653543307087,
                    "duration": 0.0625
                },
                {
                    "name": "B4",
                    "midi": 71,
                    "time": 789.4687500000005,
                    "velocity": 0.7559055118110236,
                    "duration": 0.08333333333337123
                },
                {
                    "name": "E5",
                    "midi": 76,
                    "time": 789.5791666666671,
                    "velocity": 0.9212598425196851,
                    "duration": 0.06458333333330302
                },
                {
                    "name": "G#4",
                    "midi": 68,
                    "time": 789.7020833333337,
                    "velocity": 0.7952755905511811,
                    "duration": 0.09166666666669698
                },
                {
                    "name": "C#5",
                    "midi": 73,
                    "time": 789.9104166666671,
                    "velocity": 0.9448818897637795,
                    "duration": 0.09375
                },
                {
                    "name": "G#4",
                    "midi": 68,
                    "time": 790.0979166666671,
                    "velocity": 0.7244094488188977,
                    "duration": 0.10625000000004547
                },
                {
                    "name": "C#4",
                    "midi": 61,
                    "time": 790.2166666666672,
                    "velocity": 0.5118110236220472,
                    "duration": 0.07291666666662877
                },
                {
                    "name": "E4",
                    "midi": 64,
                    "time": 790.2166666666672,
                    "velocity": 0.5118110236220472,
                    "duration": 0.07291666666662877
                },
                {
                    "name": "A4",
                    "midi": 69,
                    "time": 790.2166666666672,
                    "velocity": 0.5984251968503937,
                    "duration": 0.08958333333328028
                },
                {
                    "name": "G#4",
                    "midi": 68,
                    "time": 790.3729166666672,
                    "velocity": 0.9291338582677166,
                    "duration": 0.06875000000002274
                },
                {
                    "name": "G#4",
                    "midi": 68,
                    "time": 790.4833333333338,
                    "velocity": 0.8503937007874016,
                    "duration": 0.11041666666665151
                },
                {
                    "name": "C#4",
                    "midi": 61,
                    "time": 790.5875000000004,
                    "velocity": 0.6377952755905512,
                    "duration": 0.07500000000004547
                },
                {
                    "name": "E4",
                    "midi": 64,
                    "time": 790.5875000000004,
                    "velocity": 0.6377952755905512,
                    "duration": 0.07500000000004547
                },
                {
                    "name": "B4",
                    "midi": 71,
                    "time": 790.5875000000004,
                    "velocity": 0.7165354330708661,
                    "duration": 0.08125000000006821
                },
                {
                    "name": "G#4",
                    "midi": 68,
                    "time": 790.7354166666672,
                    "velocity": 0.9291338582677166,
                    "duration": 0.06666666666671972
                },
                {
                    "name": "G#4",
                    "midi": 68,
                    "time": 790.8937500000006,
                    "velocity": 0.84251968503937,
                    "duration": 0.07708333333334849
                },
                {
                    "name": "G#3",
                    "midi": 56,
                    "time": 791.1729166666673,
                    "velocity": 0.9133858267716536,
                    "duration": 0.2041666666667652
                },
                {
                    "name": "G#3",
                    "midi": 56,
                    "time": 791.4229166666674,
                    "velocity": 0.7716535433070866,
                    "duration": 0.07291666666662877
                },
                {
                    "name": "C3",
                    "midi": 48,
                    "time": 791.5708333333341,
                    "velocity": 0.5905511811023622,
                    "duration": 0.09375
                },
                {
                    "name": "F#3",
                    "midi": 54,
                    "time": 791.5708333333341,
                    "velocity": 0.5905511811023622,
                    "duration": 0.09375
                },
                {
                    "name": "A3",
                    "midi": 57,
                    "time": 791.5708333333341,
                    "velocity": 0.6692913385826772,
                    "duration": 0.10000000000002274
                },
                {
                    "name": "G#3",
                    "midi": 56,
                    "time": 791.7083333333342,
                    "velocity": 0.8582677165354331,
                    "duration": 0.0625
                },
                {
                    "name": "G#3",
                    "midi": 56,
                    "time": 791.8145833333342,
                    "velocity": 0.7874015748031497,
                    "duration": 0.1395833333333485
                },
                {
                    "name": "C3",
                    "midi": 48,
                    "time": 792.0250000000009,
                    "velocity": 0.7480314960629921,
                    "duration": 0.10000000000002274
                },
                {
                    "name": "F#3",
                    "midi": 54,
                    "time": 792.0250000000009,
                    "velocity": 0.7480314960629921,
                    "duration": 0.10000000000002274
                },
                {
                    "name": "B3",
                    "midi": 59,
                    "time": 792.0250000000009,
                    "velocity": 0.8346456692913385,
                    "duration": 0.10416666666674246
                },
                {
                    "name": "E4",
                    "midi": 64,
                    "time": 792.2958333333343,
                    "velocity": 0.9606299212598425,
                    "duration": 0.849999999999909
                },
                {
                    "name": "C#2",
                    "midi": 37,
                    "time": 793.8958333333342,
                    "velocity": 0.5118110236220472,
                    "duration": 1.9520833333334622
                },
                {
                    "name": "C#4",
                    "midi": 61,
                    "time": 793.9333333333342,
                    "velocity": 0.905511811023622,
                    "duration": 2.2395833333332575
                },
                {
                    "name": "G#3",
                    "midi": 56,
                    "time": 794.3916666666674,
                    "velocity": 0.7086614173228346,
                    "duration": 0.404166666666697
                },
                {
                    "name": "A#3",
                    "midi": 58,
                    "time": 794.7333333333341,
                    "velocity": 0.6929133858267716,
                    "duration": 0.2979166666666515
                },
                {
                    "name": "G#2",
                    "midi": 44,
                    "time": 794.7479166666675,
                    "velocity": 0.4645669291338583,
                    "duration": 0.8125000000001137
                },
                {
                    "name": "G#3",
                    "midi": 56,
                    "time": 795.0062500000008,
                    "velocity": 0.7086614173228346,
                    "duration": 0.24166666666667425
                },
                {
                    "name": "B3",
                    "midi": 59,
                    "time": 795.2708333333342,
                    "velocity": 0.6062992125984252,
                    "duration": 0.30416666666678793
                },
                {
                    "name": "B3",
                    "midi": 59,
                    "time": 795.6770833333343,
                    "velocity": 0.6535433070866141,
                    "duration": 0.48749999999984084
                },
                {
                    "name": "G#2",
                    "midi": 44,
                    "time": 795.6854166666676,
                    "velocity": 0.4566929133858268,
                    "duration": 0.5749999999998181
                },
                {
                    "name": "C#2",
                    "midi": 37,
                    "time": 796.0604166666676,
                    "velocity": 0.3700787401574803,
                    "duration": 1.474999999999909
                },
                {
                    "name": "E4",
                    "midi": 64,
                    "time": 796.0937500000009,
                    "velocity": 0.7244094488188977,
                    "duration": 1.6124999999999545
                },
                {
                    "name": "G#3",
                    "midi": 56,
                    "time": 796.3312500000008,
                    "velocity": 0.3779527559055118,
                    "duration": 0.21875
                },
                {
                    "name": "G#2",
                    "midi": 44,
                    "time": 796.5062500000007,
                    "velocity": 0.41732283464566927,
                    "duration": 0.6812499999999773
                },
                {
                    "name": "A#3",
                    "midi": 58,
                    "time": 796.5270833333341,
                    "velocity": 0.5984251968503937,
                    "duration": 0.21249999999997726
                },
                {
                    "name": "G#3",
                    "midi": 56,
                    "time": 796.7229166666674,
                    "velocity": 0.5748031496062992,
                    "duration": 0.21458333333328028
                },
                {
                    "name": "B3",
                    "midi": 59,
                    "time": 796.945833333334,
                    "velocity": 0.4881889763779528,
                    "duration": 0.20833333333325754
                },
                {
                    "name": "C#4",
                    "midi": 61,
                    "time": 797.1666666666673,
                    "velocity": 0.4330708661417323,
                    "duration": 0.33958333333350765
                },
                {
                    "name": "B3",
                    "midi": 59,
                    "time": 797.4187500000007,
                    "velocity": 0.3779527559055118,
                    "duration": 0.24375000000009095
                },
                {
                    "name": "G#2",
                    "midi": 44,
                    "time": 797.4229166666674,
                    "velocity": 0.2755905511811024,
                    "duration": 0.7416666666666742
                },
                {
                    "name": "A#3",
                    "midi": 58,
                    "time": 797.6145833333342,
                    "velocity": 0.48031496062992124,
                    "duration": 0.3916666666666515
                },
                {
                    "name": "C#2",
                    "midi": 37,
                    "time": 797.9104166666675,
                    "velocity": 0.3464566929133858,
                    "duration": 2.1166666666666742
                },
                {
                    "name": "F4",
                    "midi": 65,
                    "time": 797.9791666666675,
                    "velocity": 0.47244094488188976,
                    "duration": 4.808333333333167
                },
                {
                    "name": "G#3",
                    "midi": 56,
                    "time": 798.2354166666674,
                    "velocity": 0.48031496062992124,
                    "duration": 0.27083333333337123
                },
                {
                    "name": "A#3",
                    "midi": 58,
                    "time": 798.4895833333342,
                    "velocity": 0.5039370078740157,
                    "duration": 0.28958333333332575
                },
                {
                    "name": "G#2",
                    "midi": 44,
                    "time": 798.5041666666675,
                    "velocity": 0.3779527559055118,
                    "duration": 0.9791666666666288
                },
                {
                    "name": "G#3",
                    "midi": 56,
                    "time": 798.7437500000008,
                    "velocity": 0.6299212598425197,
                    "duration": 0.40625
                },
                {
                    "name": "B3",
                    "midi": 59,
                    "time": 799.0770833333341,
                    "velocity": 0.5275590551181102,
                    "duration": 0.4500000000000455
                },
                {
                    "name": "G#2",
                    "midi": 44,
                    "time": 799.7979166666676,
                    "velocity": 0.30708661417322836,
                    "duration": 0.9270833333332575
                },
                {
                    "name": "B3",
                    "midi": 59,
                    "time": 799.8312500000009,
                    "velocity": 0.2755905511811024,
                    "duration": 2.858333333333235
                },
                {
                    "name": "C#2",
                    "midi": 37,
                    "time": 800.4250000000009,
                    "velocity": 0.28346456692913385,
                    "duration": 2.829166666666538
                },
                {
                    "name": "G#2",
                    "midi": 44,
                    "time": 801.1708333333341,
                    "velocity": 0.2047244094488189,
                    "duration": 0.8833333333333258
                },
                {
                    "name": "G#2",
                    "midi": 44,
                    "time": 802.7229166666674,
                    "velocity": 0.2047244094488189,
                    "duration": 0.5666666666667197
                },
                {
                    "name": "C#6",
                    "midi": 85,
                    "time": 804.3729166666675,
                    "velocity": 1,
                    "duration": 0.2375000000000682
                },
                {
                    "name": "D#6",
                    "midi": 87,
                    "time": 804.5541666666676,
                    "velocity": 0.8503937007874016,
                    "duration": 0.14374999999984084
                },
                {
                    "name": "B5",
                    "midi": 83,
                    "time": 804.5791666666676,
                    "velocity": 0.7322834645669292,
                    "duration": 0.0916666666665833
                },
                {
                    "name": "G#6",
                    "midi": 92,
                    "time": 804.6604166666675,
                    "velocity": 1,
                    "duration": 0.060416666666583296
                },
                {
                    "name": "B5",
                    "midi": 83,
                    "time": 804.7791666666674,
                    "velocity": 0.6692913385826772,
                    "duration": 0.14374999999995453
                },
                {
                    "name": "F5",
                    "midi": 77,
                    "time": 804.7854166666674,
                    "velocity": 0.6377952755905512,
                    "duration": 0.07291666666662877
                },
                {
                    "name": "C#6",
                    "midi": 85,
                    "time": 804.7854166666674,
                    "velocity": 0.7401574803149606,
                    "duration": 0.1395833333332348
                },
                {
                    "name": "F6",
                    "midi": 89,
                    "time": 804.9125000000007,
                    "velocity": 0.47244094488188976,
                    "duration": 0.045833333333234805
                },
                {
                    "name": "G#5",
                    "midi": 80,
                    "time": 805.002083333334,
                    "velocity": 0.952755905511811,
                    "duration": 0.054166666666674246
                },
                {
                    "name": "G#5",
                    "midi": 80,
                    "time": 805.1041666666673,
                    "velocity": 0.7952755905511811,
                    "duration": 0.07708333333334849
                },
                {
                    "name": "G#5",
                    "midi": 80,
                    "time": 805.227083333334,
                    "velocity": 0.9921259842519685,
                    "duration": 0.049999999999954525
                },
                {
                    "name": "G#5",
                    "midi": 80,
                    "time": 805.3145833333339,
                    "velocity": 0.8503937007874016,
                    "duration": 0.08749999999997726
                },
                {
                    "name": "A#5",
                    "midi": 82,
                    "time": 805.4291666666671,
                    "velocity": 0.84251968503937,
                    "duration": 0.10833333333334849
                },
                {
                    "name": "C5",
                    "midi": 72,
                    "time": 805.4625000000004,
                    "velocity": 0.3543307086614173,
                    "duration": 0.05208333333337123
                },
                {
                    "name": "F#5",
                    "midi": 78,
                    "time": 805.4666666666672,
                    "velocity": 0.6299212598425197,
                    "duration": 0.08124999999995453
                },
                {
                    "name": "D5",
                    "midi": 74,
                    "time": 805.4666666666672,
                    "velocity": 0.3937007874015748,
                    "duration": 0.05208333333337123
                },
                {
                    "name": "D#6",
                    "midi": 87,
                    "time": 805.5541666666671,
                    "velocity": 0.968503937007874,
                    "duration": 0.0625
                },
                {
                    "name": "F#5",
                    "midi": 78,
                    "time": 805.6437500000005,
                    "velocity": 0.7480314960629921,
                    "duration": 0.12708333333330302
                },
                {
                    "name": "G#5",
                    "midi": 80,
                    "time": 805.6562500000006,
                    "velocity": 0.6456692913385826,
                    "duration": 0.1083333333332348
                },
                {
                    "name": "C5",
                    "midi": 72,
                    "time": 805.6604166666672,
                    "velocity": 0.4645669291338583,
                    "duration": 0.05624999999997726
                },
                {
                    "name": "C6",
                    "midi": 84,
                    "time": 805.7750000000005,
                    "velocity": 0.2755905511811024,
                    "duration": 0.039583333333325754
                },
                {
                    "name": "C#5",
                    "midi": 73,
                    "time": 805.8666666666672,
                    "velocity": 0.9763779527559056,
                    "duration": 0.05208333333337123
                },
                {
                    "name": "C#5",
                    "midi": 73,
                    "time": 805.9687500000006,
                    "velocity": 0.8267716535433071,
                    "duration": 0.08541666666667425
                },
                {
                    "name": "C#5",
                    "midi": 73,
                    "time": 806.0854166666672,
                    "velocity": 1,
                    "duration": 0.05833333333328028
                },
                {
                    "name": "C#5",
                    "midi": 73,
                    "time": 806.1854166666672,
                    "velocity": 0.8267716535433071,
                    "duration": 0.1374999999999318
                },
                {
                    "name": "D#5",
                    "midi": 75,
                    "time": 806.2812500000005,
                    "velocity": 0.7952755905511811,
                    "duration": 0.1395833333332348
                },
                {
                    "name": "B4",
                    "midi": 71,
                    "time": 806.3062500000004,
                    "velocity": 0.5669291338582677,
                    "duration": 0.08958333333328028
                },
                {
                    "name": "F4",
                    "midi": 65,
                    "time": 806.3125000000005,
                    "velocity": 0.36220472440944884,
                    "duration": 0.05833333333328028
                },
                {
                    "name": "G#5",
                    "midi": 80,
                    "time": 806.4125000000004,
                    "velocity": 1,
                    "duration": 0.06041666666669698
                },
                {
                    "name": "B4",
                    "midi": 71,
                    "time": 806.5104166666671,
                    "velocity": 0.5433070866141733,
                    "duration": 0.1270833333334167
                },
                {
                    "name": "A#4",
                    "midi": 70,
                    "time": 806.5166666666671,
                    "velocity": 0.4251968503937008,
                    "duration": 0.043750000000045475
                },
                {
                    "name": "C#5",
                    "midi": 73,
                    "time": 806.5187500000004,
                    "velocity": 0.5905511811023622,
                    "duration": 0.12916666666671972
                },
                {
                    "name": "F4",
                    "midi": 65,
                    "time": 806.5229166666671,
                    "velocity": 0.3464566929133858,
                    "duration": 0.05208333333337123
                },
                {
                    "name": "F5",
                    "midi": 77,
                    "time": 806.6145833333338,
                    "velocity": 0.6377952755905512,
                    "duration": 0.05833333333328028
                },
                {
                    "name": "G#4",
                    "midi": 68,
                    "time": 806.7270833333338,
                    "velocity": 0.968503937007874,
                    "duration": 0.05833333333328028
                },
                {
                    "name": "G#4",
                    "midi": 68,
                    "time": 806.8291666666671,
                    "velocity": 0.7795275590551181,
                    "duration": 0.08333333333337123
                },
                {
                    "name": "G#4",
                    "midi": 68,
                    "time": 806.9479166666672,
                    "velocity": 1,
                    "duration": 0.05624999999997726
                },
                {
                    "name": "G#4",
                    "midi": 68,
                    "time": 807.0479166666672,
                    "velocity": 0.8110236220472441,
                    "duration": 0.16458333333332575
                },
                {
                    "name": "A#4",
                    "midi": 70,
                    "time": 807.1520833333338,
                    "velocity": 0.8346456692913385,
                    "duration": 0.13541666666674246
                },
                {
                    "name": "F#4",
                    "midi": 66,
                    "time": 807.1979166666672,
                    "velocity": 0.5354330708661418,
                    "duration": 0.06041666666669698
                },
                {
                    "name": "D#5",
                    "midi": 75,
                    "time": 807.2750000000005,
                    "velocity": 0.968503937007874,
                    "duration": 0.06041666666669698
                },
                {
                    "name": "F#4",
                    "midi": 66,
                    "time": 807.3666666666672,
                    "velocity": 0.7559055118110236,
                    "duration": 0.1270833333334167
                },
                {
                    "name": "G#4",
                    "midi": 68,
                    "time": 807.3833333333339,
                    "velocity": 0.6850393700787402,
                    "duration": 0.11666666666678793
                },
                {
                    "name": "C4",
                    "midi": 60,
                    "time": 807.3895833333339,
                    "velocity": 0.33070866141732286,
                    "duration": 0.043750000000045475
                },
                {
                    "name": "C5",
                    "midi": 72,
                    "time": 807.4895833333339,
                    "velocity": 0.36220472440944884,
                    "duration": 0.05000000000006821
                },
                {
                    "name": "C#4",
                    "midi": 61,
                    "time": 807.5854166666674,
                    "velocity": 0.937007874015748,
                    "duration": 0.06041666666669698
                },
                {
                    "name": "C#4",
                    "midi": 61,
                    "time": 807.6895833333341,
                    "velocity": 0.8346456692913385,
                    "duration": 0.054166666666674246
                },
                {
                    "name": "G#3",
                    "midi": 56,
                    "time": 807.7895833333341,
                    "velocity": 0.9921259842519685,
                    "duration": 0.058333333333393966
                },
                {
                    "name": "C#4",
                    "midi": 61,
                    "time": 807.8937500000009,
                    "velocity": 0.7637795275590551,
                    "duration": 0.1374999999999318
                },
                {
                    "name": "D#4",
                    "midi": 63,
                    "time": 807.9666666666675,
                    "velocity": 0.7244094488188977,
                    "duration": 0.15208333333328028
                },
                {
                    "name": "B3",
                    "midi": 59,
                    "time": 808.0229166666675,
                    "velocity": 0.6220472440944882,
                    "duration": 0.11458333333337123
                },
                {
                    "name": "F3",
                    "midi": 53,
                    "time": 808.0708333333341,
                    "velocity": 0.3228346456692913,
                    "duration": 0.05625000000009095
                },
                {
                    "name": "G#4",
                    "midi": 68,
                    "time": 808.1229166666675,
                    "velocity": 0.952755905511811,
                    "duration": 0.06875000000002274
                },
                {
                    "name": "C#4",
                    "midi": 61,
                    "time": 808.2479166666675,
                    "velocity": 0.6220472440944882,
                    "duration": 0.13125000000002274
                },
                {
                    "name": "B3",
                    "midi": 59,
                    "time": 808.2520833333342,
                    "velocity": 0.3937007874015748,
                    "duration": 0.11666666666667425
                },
                {
                    "name": "F4",
                    "midi": 65,
                    "time": 808.3187500000009,
                    "velocity": 0.6062992125984252,
                    "duration": 0.09791666666660603
                },
                {
                    "name": "C#3",
                    "midi": 49,
                    "time": 808.4416666666675,
                    "velocity": 0.8661417322834646,
                    "duration": 0.07708333333334849
                },
                {
                    "name": "B3",
                    "midi": 59,
                    "time": 808.5625000000009,
                    "velocity": 0.6377952755905512,
                    "duration": 0.08333333333325754
                },
                {
                    "name": "C#4",
                    "midi": 61,
                    "time": 808.5708333333342,
                    "velocity": 0.6535433070866141,
                    "duration": 0.10208333333321207
                },
                {
                    "name": "F3",
                    "midi": 53,
                    "time": 808.5791666666676,
                    "velocity": 0.44881889763779526,
                    "duration": 0.049999999999954525
                },
                {
                    "name": "G#3",
                    "midi": 56,
                    "time": 808.6875000000008,
                    "velocity": 1,
                    "duration": 0.0625
                },
                {
                    "name": "C#4",
                    "midi": 61,
                    "time": 808.7916666666674,
                    "velocity": 0.7322834645669292,
                    "duration": 0.17499999999995453
                },
                {
                    "name": "F3",
                    "midi": 53,
                    "time": 808.802083333334,
                    "velocity": 0.6614173228346457,
                    "duration": 0.054166666666674246
                },
                {
                    "name": "B3",
                    "midi": 59,
                    "time": 808.8145833333341,
                    "velocity": 0.5433070866141733,
                    "duration": 0.14999999999997726
                },
                {
                    "name": "D#4",
                    "midi": 63,
                    "time": 808.9083333333341,
                    "velocity": 0.7322834645669292,
                    "duration": 0.11041666666665151
                },
                {
                    "name": "G#4",
                    "midi": 68,
                    "time": 809.0187500000008,
                    "velocity": 1,
                    "duration": 0.06458333333330302
                },
                {
                    "name": "C#4",
                    "midi": 61,
                    "time": 809.1312500000007,
                    "velocity": 0.7559055118110236,
                    "duration": 0.16041666666660603
                },
                {
                    "name": "B3",
                    "midi": 59,
                    "time": 809.1479166666674,
                    "velocity": 0.44881889763779526,
                    "duration": 0.1395833333332348
                },
                {
                    "name": "F3",
                    "midi": 53,
                    "time": 809.1500000000007,
                    "velocity": 0.2677165354330709,
                    "duration": 0.039583333333325754
                },
                {
                    "name": "F4",
                    "midi": 65,
                    "time": 809.2375000000006,
                    "velocity": 0.6299212598425197,
                    "duration": 0.10833333333334849
                },
                {
                    "name": "C#3",
                    "midi": 49,
                    "time": 809.3312500000006,
                    "velocity": 0.8661417322834646,
                    "duration": 0.10000000000002274
                },
                {
                    "name": "C#4",
                    "midi": 61,
                    "time": 809.4354166666674,
                    "velocity": 0.7795275590551181,
                    "duration": 0.11041666666665151
                },
                {
                    "name": "F3",
                    "midi": 53,
                    "time": 809.4437500000007,
                    "velocity": 0.5433070866141733,
                    "duration": 0.04583333333334849
                },
                {
                    "name": "A#3",
                    "midi": 58,
                    "time": 809.4562500000008,
                    "velocity": 0.5511811023622047,
                    "duration": 0.07499999999993179
                },
                {
                    "name": "G3",
                    "midi": 55,
                    "time": 809.5687500000007,
                    "velocity": 0.9448818897637795,
                    "duration": 0.0625
                },
                {
                    "name": "C#4",
                    "midi": 61,
                    "time": 809.6812500000007,
                    "velocity": 0.8346456692913385,
                    "duration": 0.15416666666669698
                },
                {
                    "name": "A#3",
                    "midi": 58,
                    "time": 809.6812500000007,
                    "velocity": 0.7874015748031497,
                    "duration": 0.14999999999997726
                },
                {
                    "name": "F3",
                    "midi": 53,
                    "time": 809.683333333334,
                    "velocity": 0.7401574803149606,
                    "duration": 0.0625
                },
                {
                    "name": "D#4",
                    "midi": 63,
                    "time": 809.7791666666673,
                    "velocity": 0.84251968503937,
                    "duration": 0.12291666666681067
                },
                {
                    "name": "G4",
                    "midi": 67,
                    "time": 809.895833333334,
                    "velocity": 0.9291338582677166,
                    "duration": 0.05624999999997726
                },
                {
                    "name": "F3",
                    "midi": 53,
                    "time": 809.9937500000007,
                    "velocity": 0.5590551181102362,
                    "duration": 0.07291666666674246
                },
                {
                    "name": "C#4",
                    "midi": 61,
                    "time": 809.9979166666674,
                    "velocity": 0.7322834645669292,
                    "duration": 0.14374999999995453
                },
                {
                    "name": "A#3",
                    "midi": 58,
                    "time": 810.0000000000007,
                    "velocity": 0.6850393700787402,
                    "duration": 0.13333333333332575
                },
                {
                    "name": "F4",
                    "midi": 65,
                    "time": 810.1166666666674,
                    "velocity": 0.5590551181102362,
                    "duration": 0.08124999999995453
                },
                {
                    "name": "C#3",
                    "midi": 49,
                    "time": 810.2041666666673,
                    "velocity": 0.889763779527559,
                    "duration": 0.09375
                },
                {
                    "name": "C#4",
                    "midi": 61,
                    "time": 810.3104166666674,
                    "velocity": 0.8346456692913385,
                    "duration": 0.08749999999997726
                },
                {
                    "name": "A#3",
                    "midi": 58,
                    "time": 810.3125000000007,
                    "velocity": 0.7480314960629921,
                    "duration": 0.07500000000004547
                },
                {
                    "name": "F3",
                    "midi": 53,
                    "time": 810.3187500000007,
                    "velocity": 0.6377952755905512,
                    "duration": 0.03750000000002274
                },
                {
                    "name": "G3",
                    "midi": 55,
                    "time": 810.4333333333341,
                    "velocity": 0.9212598425196851,
                    "duration": 0.05208333333337123
                },
                {
                    "name": "C#4",
                    "midi": 61,
                    "time": 810.5375000000008,
                    "velocity": 0.8818897637795275,
                    "duration": 0.1541666666665833
                },
                {
                    "name": "F3",
                    "midi": 53,
                    "time": 810.5437500000008,
                    "velocity": 0.7637795275590551,
                    "duration": 0.05833333333328028
                },
                {
                    "name": "A#3",
                    "midi": 58,
                    "time": 810.5520833333342,
                    "velocity": 0.6929133858267716,
                    "duration": 0.1374999999999318
                },
                {
                    "name": "D#4",
                    "midi": 63,
                    "time": 810.6354166666674,
                    "velocity": 0.8503937007874016,
                    "duration": 0.11666666666667425
                },
                {
                    "name": "G4",
                    "midi": 67,
                    "time": 810.7437500000008,
                    "velocity": 0.9448818897637795,
                    "duration": 0.06041666666669698
                },
                {
                    "name": "C#4",
                    "midi": 61,
                    "time": 810.8437500000008,
                    "velocity": 0.7716535433070866,
                    "duration": 0.1541666666665833
                },
                {
                    "name": "F3",
                    "midi": 53,
                    "time": 810.8520833333341,
                    "velocity": 0.6299212598425197,
                    "duration": 0.0625
                },
                {
                    "name": "A#3",
                    "midi": 58,
                    "time": 810.8583333333341,
                    "velocity": 0.6850393700787402,
                    "duration": 0.13124999999990905
                },
                {
                    "name": "F4",
                    "midi": 65,
                    "time": 810.9645833333341,
                    "velocity": 0.5984251968503937,
                    "duration": 0.06875000000002274
                },
                {
                    "name": "C#3",
                    "midi": 49,
                    "time": 811.0416666666674,
                    "velocity": 0.8503937007874016,
                    "duration": 0.09375
                },
                {
                    "name": "A#3",
                    "midi": 58,
                    "time": 811.1500000000008,
                    "velocity": 0.7322834645669292,
                    "duration": 0.06250000000011369
                },
                {
                    "name": "C#4",
                    "midi": 61,
                    "time": 811.1541666666675,
                    "velocity": 0.7322834645669292,
                    "duration": 0.07083333333343944
                },
                {
                    "name": "F3",
                    "midi": 53,
                    "time": 811.1583333333342,
                    "velocity": 0.5826771653543307,
                    "duration": 0.039583333333325754
                },
                {
                    "name": "G#3",
                    "midi": 56,
                    "time": 811.2583333333342,
                    "velocity": 0.984251968503937,
                    "duration": 0.049999999999954525
                },
                {
                    "name": "A3",
                    "midi": 57,
                    "time": 811.2833333333342,
                    "velocity": 0.5748031496062992,
                    "duration": 0.049999999999954525
                },
                {
                    "name": "C#4",
                    "midi": 61,
                    "time": 811.3625000000009,
                    "velocity": 0.84251968503937,
                    "duration": 0.17499999999995453
                },
                {
                    "name": "F3",
                    "midi": 53,
                    "time": 811.3645833333342,
                    "velocity": 0.7637795275590551,
                    "duration": 0.04583333333334849
                },
                {
                    "name": "B3",
                    "midi": 59,
                    "time": 811.3687500000009,
                    "velocity": 0.7322834645669292,
                    "duration": 0.16041666666660603
                },
                {
                    "name": "D#4",
                    "midi": 63,
                    "time": 811.4729166666675,
                    "velocity": 0.84251968503937,
                    "duration": 0.12708333333330302
                },
                {
                    "name": "G#4",
                    "midi": 68,
                    "time": 811.5854166666675,
                    "velocity": 0.952755905511811,
                    "duration": 0.0625
                },
                {
                    "name": "C#4",
                    "midi": 61,
                    "time": 811.6729166666674,
                    "velocity": 0.7559055118110236,
                    "duration": 0.16250000000013642
                },
                {
                    "name": "F3",
                    "midi": 53,
                    "time": 811.6791666666675,
                    "velocity": 0.5748031496062992,
                    "duration": 0.06666666666671972
                },
                {
                    "name": "B3",
                    "midi": 59,
                    "time": 811.6854166666675,
                    "velocity": 0.5984251968503937,
                    "duration": 0.13333333333343944
                },
                {
                    "name": "F4",
                    "midi": 65,
                    "time": 811.7812500000009,
                    "velocity": 0.6850393700787402,
                    "duration": 0.08541666666667425
                },
                {
                    "name": "C#3",
                    "midi": 49,
                    "time": 811.8750000000009,
                    "velocity": 0.8503937007874016,
                    "duration": 0.07500000000004547
                },
                {
                    "name": "C#4",
                    "midi": 61,
                    "time": 811.9729166666676,
                    "velocity": 0.8503937007874016,
                    "duration": 0.0958333333334167
                },
                {
                    "name": "B3",
                    "midi": 59,
                    "time": 811.9770833333343,
                    "velocity": 0.7322834645669292,
                    "duration": 0.07083333333332575
                },
                {
                    "name": "F3",
                    "midi": 53,
                    "time": 811.9812500000011,
                    "velocity": 0.6535433070866141,
                    "duration": 0.039583333333325754
                },
                {
                    "name": "G#3",
                    "midi": 56,
                    "time": 812.087500000001,
                    "velocity": 0.9921259842519685,
                    "duration": 0.06041666666669698
                },
                {
                    "name": "C#4",
                    "midi": 61,
                    "time": 812.1854166666677,
                    "velocity": 0.84251968503937,
                    "duration": 0.16041666666671972
                },
                {
                    "name": "F3",
                    "midi": 53,
                    "time": 812.193750000001,
                    "velocity": 0.7874015748031497,
                    "duration": 0.07500000000004547
                },
                {
                    "name": "B3",
                    "midi": 59,
                    "time": 812.1979166666678,
                    "velocity": 0.7637795275590551,
                    "duration": 0.12708333333330302
                },
                {
                    "name": "D#4",
                    "midi": 63,
                    "time": 812.2958333333344,
                    "velocity": 0.7952755905511811,
                    "duration": 0.12083333333339397
                },
                {
                    "name": "G#4",
                    "midi": 68,
                    "time": 812.3708333333344,
                    "velocity": 0.9921259842519685,
                    "duration": 0.0625
                },
                {
                    "name": "C#4",
                    "midi": 61,
                    "time": 812.475000000001,
                    "velocity": 0.7244094488188977,
                    "duration": 0.14374999999995453
                },
                {
                    "name": "B3",
                    "midi": 59,
                    "time": 812.4770833333343,
                    "velocity": 0.6850393700787402,
                    "duration": 0.11458333333337123
                },
                {
                    "name": "F3",
                    "midi": 53,
                    "time": 812.4812500000011,
                    "velocity": 0.5354330708661418,
                    "duration": 0.049999999999954525
                },
                {
                    "name": "F4",
                    "midi": 65,
                    "time": 812.5708333333343,
                    "velocity": 0.7007874015748031,
                    "duration": 0.0916666666665833
                },
                {
                    "name": "C#3",
                    "midi": 49,
                    "time": 812.6604166666676,
                    "velocity": 0.889763779527559,
                    "duration": 0.08958333333339397
                },
                {
                    "name": "C#4",
                    "midi": 61,
                    "time": 812.7520833333343,
                    "velocity": 0.8110236220472441,
                    "duration": 0.10624999999993179
                },
                {
                    "name": "B3",
                    "midi": 59,
                    "time": 812.7520833333343,
                    "velocity": 0.7244094488188977,
                    "duration": 0.06458333333330302
                },
                {
                    "name": "F3",
                    "midi": 53,
                    "time": 812.768750000001,
                    "velocity": 0.47244094488188976,
                    "duration": 0.049999999999954525
                },
                {
                    "name": "G3",
                    "midi": 55,
                    "time": 812.8750000000009,
                    "velocity": 0.9291338582677166,
                    "duration": 0.05624999999997726
                },
                {
                    "name": "C#4",
                    "midi": 61,
                    "time": 812.9729166666675,
                    "velocity": 0.7952755905511811,
                    "duration": 0.16458333333343944
                },
                {
                    "name": "F3",
                    "midi": 53,
                    "time": 812.9937500000009,
                    "velocity": 0.6220472440944882,
                    "duration": 0.11458333333337123
                },
                {
                    "name": "A#3",
                    "midi": 58,
                    "time": 813.0020833333342,
                    "velocity": 0.6377952755905512,
                    "duration": 0.12916666666671972
                },
                {
                    "name": "D#4",
                    "midi": 63,
                    "time": 813.0687500000009,
                    "velocity": 0.7795275590551181,
                    "duration": 0.12708333333330302
                },
                {
                    "name": "G4",
                    "midi": 67,
                    "time": 813.1625000000009,
                    "velocity": 0.952755905511811,
                    "duration": 0.0625
                },
                {
                    "name": "A#3",
                    "midi": 58,
                    "time": 813.2541666666676,
                    "velocity": 0.7007874015748031,
                    "duration": 0.13750000000004547
                },
                {
                    "name": "C#4",
                    "midi": 61,
                    "time": 813.2562500000009,
                    "velocity": 0.7795275590551181,
                    "duration": 0.1437500000000682
                },
                {
                    "name": "F3",
                    "midi": 53,
                    "time": 813.2583333333342,
                    "velocity": 0.6141732283464567,
                    "duration": 0.06041666666669698
                },
                {
                    "name": "F4",
                    "midi": 65,
                    "time": 813.3479166666676,
                    "velocity": 0.7322834645669292,
                    "duration": 0.10208333333343944
                },
                {
                    "name": "C#3",
                    "midi": 49,
                    "time": 813.4354166666677,
                    "velocity": 0.905511811023622,
                    "duration": 0.10000000000002274
                },
                {
                    "name": "C#4",
                    "midi": 61,
                    "time": 813.5437500000011,
                    "velocity": 0.8188976377952756,
                    "duration": 0.10833333333346218
                },
                {
                    "name": "A#3",
                    "midi": 58,
                    "time": 813.5479166666678,
                    "velocity": 0.7165354330708661,
                    "duration": 0.09791666666671972
                },
                {
                    "name": "F3",
                    "midi": 53,
                    "time": 813.5625000000011,
                    "velocity": 0.49606299212598426,
                    "duration": 0.043750000000045475
                },
                {
                    "name": "G3",
                    "midi": 55,
                    "time": 813.6562500000013,
                    "velocity": 0.9291338582677166,
                    "duration": 0.05833333333328028
                },
                {
                    "name": "A#3",
                    "midi": 58,
                    "time": 813.7645833333345,
                    "velocity": 0.6692913385826772,
                    "duration": 0.1541666666665833
                },
                {
                    "name": "F3",
                    "midi": 53,
                    "time": 813.7645833333345,
                    "velocity": 0.6850393700787402,
                    "duration": 0.07916666666665151
                },
                {
                    "name": "C#4",
                    "midi": 61,
                    "time": 813.7645833333345,
                    "velocity": 0.7401574803149606,
                    "duration": 0.1708333333332348
                },
                {
                    "name": "D#4",
                    "midi": 63,
                    "time": 813.8541666666678,
                    "velocity": 0.7952755905511811,
                    "duration": 0.1395833333332348
                },
                {
                    "name": "G4",
                    "midi": 67,
                    "time": 813.9604166666677,
                    "velocity": 0.9606299212598425,
                    "duration": 0.06666666666660603
                },
                {
                    "name": "C#4",
                    "midi": 61,
                    "time": 814.0583333333343,
                    "velocity": 0.7795275590551181,
                    "duration": 0.15416666666669698
                },
                {
                    "name": "F3",
                    "midi": 53,
                    "time": 814.062500000001,
                    "velocity": 0.6299212598425197,
                    "duration": 0.07083333333332575
                },
                {
                    "name": "A#3",
                    "midi": 58,
                    "time": 814.0645833333343,
                    "velocity": 0.7007874015748031,
                    "duration": 0.14791666666667425
                },
                {
                    "name": "F4",
                    "midi": 65,
                    "time": 814.1541666666677,
                    "velocity": 0.7007874015748031,
                    "duration": 0.11458333333325754
                },
                {
                    "name": "C#3",
                    "midi": 49,
                    "time": 814.2604166666677,
                    "velocity": 0.8346456692913385,
                    "duration": 0.07708333333334849
                },
                {
                    "name": "A#3",
                    "midi": 58,
                    "time": 814.3958333333343,
                    "velocity": 0.7401574803149606,
                    "duration": 0.10416666666662877
                },
                {
                    "name": "C#4",
                    "midi": 61,
                    "time": 814.3979166666676,
                    "velocity": 0.8188976377952756,
                    "duration": 0.11249999999995453
                },
                {
                    "name": "F3",
                    "midi": 53,
                    "time": 814.4166666666675,
                    "velocity": 0.41732283464566927,
                    "duration": 0.04791666666665151
                },
                {
                    "name": "C#2",
                    "midi": 37,
                    "time": 814.7062500000009,
                    "velocity": 1,
                    "duration": 0.8562500000000455
                },
                {
                    "name": "C#1",
                    "midi": 25,
                    "time": 814.7083333333342,
                    "velocity": 0.9921259842519685,
                    "duration": 1.1416666666667652
                },
                {
                    "name": "C#2",
                    "midi": 37,
                    "time": 815.7791666666676,
                    "velocity": 1,
                    "duration": 0.10625000000004547
                },
                {
                    "name": "C2",
                    "midi": 36,
                    "time": 815.900000000001,
                    "velocity": 0.6299212598425197,
                    "duration": 0.054166666666674246
                },
                {
                    "name": "D2",
                    "midi": 38,
                    "time": 815.9104166666676,
                    "velocity": 0.7952755905511811,
                    "duration": 0.0958333333334167
                },
                {
                    "name": "E2",
                    "midi": 40,
                    "time": 815.962500000001,
                    "velocity": 0.3464566929133858,
                    "duration": 0.09375
                },
                {
                    "name": "F2",
                    "midi": 41,
                    "time": 816.0125000000011,
                    "velocity": 0.48031496062992124,
                    "duration": 0.08124999999984084
                },
                {
                    "name": "G2",
                    "midi": 43,
                    "time": 816.0458333333344,
                    "velocity": 0.6220472440944882,
                    "duration": 0.08958333333316659
                },
                {
                    "name": "A2",
                    "midi": 45,
                    "time": 816.075000000001,
                    "velocity": 0.5275590551181102,
                    "duration": 0.09583333333330302
                },
                {
                    "name": "B2",
                    "midi": 47,
                    "time": 816.1104166666676,
                    "velocity": 0.4094488188976378,
                    "duration": 0.09166666666669698
                },
                {
                    "name": "C3",
                    "midi": 48,
                    "time": 816.1479166666676,
                    "velocity": 0.4330708661417323,
                    "duration": 0.0916666666665833
                },
                {
                    "name": "D3",
                    "midi": 50,
                    "time": 816.1854166666676,
                    "velocity": 0.4566929133858268,
                    "duration": 0.08541666666644687
                },
                {
                    "name": "C#3",
                    "midi": 49,
                    "time": 816.2020833333343,
                    "velocity": 0.8346456692913385,
                    "duration": 0.07083333333309838
                },
                {
                    "name": "D#3",
                    "midi": 51,
                    "time": 816.2125000000009,
                    "velocity": 0.8818897637795275,
                    "duration": 0.056249999999863576
                },
                {
                    "name": "E3",
                    "midi": 52,
                    "time": 816.2208333333342,
                    "velocity": 0.49606299212598426,
                    "duration": 0.08958333333316659
                },
                {
                    "name": "F3",
                    "midi": 53,
                    "time": 816.2583333333341,
                    "velocity": 0.5905511811023622,
                    "duration": 0.08958333333328028
                },
                {
                    "name": "G3",
                    "midi": 55,
                    "time": 816.2937500000007,
                    "velocity": 0.5826771653543307,
                    "duration": 0.09583333333330302
                },
                {
                    "name": "A3",
                    "midi": 57,
                    "time": 816.3312500000008,
                    "velocity": 0.6062992125984252,
                    "duration": 0.09791666666660603
                },
                {
                    "name": "B3",
                    "midi": 59,
                    "time": 816.3708333333341,
                    "velocity": 0.5984251968503937,
                    "duration": 0.09791666666660603
                },
                {
                    "name": "C4",
                    "midi": 60,
                    "time": 816.4125000000007,
                    "velocity": 0.7165354330708661,
                    "duration": 0.08958333333339397
                },
                {
                    "name": "D4",
                    "midi": 62,
                    "time": 816.452083333334,
                    "velocity": 0.6929133858267716,
                    "duration": 0.09166666666681067
                },
                {
                    "name": "E4",
                    "midi": 64,
                    "time": 816.489583333334,
                    "velocity": 0.6614173228346457,
                    "duration": 0.08333333333348492
                },
                {
                    "name": "C#4",
                    "midi": 61,
                    "time": 816.5104166666674,
                    "velocity": 0.952755905511811,
                    "duration": 0.06666666666683341
                },
                {
                    "name": "F4",
                    "midi": 65,
                    "time": 816.5229166666675,
                    "velocity": 0.7401574803149606,
                    "duration": 0.0812500000001819
                },
                {
                    "name": "G4",
                    "midi": 67,
                    "time": 816.5520833333342,
                    "velocity": 0.6850393700787402,
                    "duration": 0.08333333333348492
                },
                {
                    "name": "A4",
                    "midi": 69,
                    "time": 816.581250000001,
                    "velocity": 0.6771653543307087,
                    "duration": 0.08749999999997726
                },
                {
                    "name": "B4",
                    "midi": 71,
                    "time": 816.6104166666677,
                    "velocity": 0.7007874015748031,
                    "duration": 0.08958333333328028
                },
                {
                    "name": "C5",
                    "midi": 72,
                    "time": 816.643750000001,
                    "velocity": 0.7086614173228346,
                    "duration": 0.08749999999997726
                },
                {
                    "name": "D5",
                    "midi": 74,
                    "time": 816.6770833333343,
                    "velocity": 0.6614173228346457,
                    "duration": 0.08541666666667425
                },
                {
                    "name": "E5",
                    "midi": 76,
                    "time": 816.712500000001,
                    "velocity": 0.7559055118110236,
                    "duration": 0.08541666666656056
                },
                {
                    "name": "F5",
                    "midi": 77,
                    "time": 816.7458333333343,
                    "velocity": 0.8110236220472441,
                    "duration": 0.08333333333325754
                },
                {
                    "name": "G5",
                    "midi": 79,
                    "time": 816.7791666666676,
                    "velocity": 0.7874015748031497,
                    "duration": 0.08124999999995453
                },
                {
                    "name": "C#5",
                    "midi": 73,
                    "time": 816.7958333333343,
                    "velocity": 0.984251968503937,
                    "duration": 0.06458333333330302
                },
                {
                    "name": "A5",
                    "midi": 81,
                    "time": 816.8125000000009,
                    "velocity": 0.7637795275590551,
                    "duration": 0.07708333333334849
                },
                {
                    "name": "B5",
                    "midi": 83,
                    "time": 816.8458333333342,
                    "velocity": 0.7165354330708661,
                    "duration": 0.07500000000004547
                },
                {
                    "name": "C6",
                    "midi": 84,
                    "time": 816.8770833333342,
                    "velocity": 0.7716535433070866,
                    "duration": 0.07500000000004547
                },
                {
                    "name": "D6",
                    "midi": 86,
                    "time": 816.9062500000009,
                    "velocity": 0.7952755905511811,
                    "duration": 0.07916666666665151
                },
                {
                    "name": "E6",
                    "midi": 88,
                    "time": 816.9416666666676,
                    "velocity": 0.7165354330708661,
                    "duration": 0.0770833333332348
                },
                {
                    "name": "F6",
                    "midi": 89,
                    "time": 816.9750000000009,
                    "velocity": 0.6850393700787402,
                    "duration": 0.0770833333332348
                },
                {
                    "name": "G6",
                    "midi": 91,
                    "time": 817.0104166666675,
                    "velocity": 0.6850393700787402,
                    "duration": 0.07083333333332575
                },
                {
                    "name": "A6",
                    "midi": 93,
                    "time": 817.0416666666675,
                    "velocity": 0.6929133858267716,
                    "duration": 0.07083333333332575
                },
                {
                    "name": "B6",
                    "midi": 95,
                    "time": 817.0729166666675,
                    "velocity": 0.6929133858267716,
                    "duration": 0.06875000000002274
                },
                {
                    "name": "C#6",
                    "midi": 85,
                    "time": 817.0750000000008,
                    "velocity": 0.9921259842519685,
                    "duration": 0.07708333333334849
                },
                {
                    "name": "C7",
                    "midi": 96,
                    "time": 817.1062500000008,
                    "velocity": 0.7007874015748031,
                    "duration": 0.06666666666671972
                },
                {
                    "name": "D7",
                    "midi": 98,
                    "time": 817.1375000000008,
                    "velocity": 0.7086614173228346,
                    "duration": 0.06875000000002274
                },
                {
                    "name": "E7",
                    "midi": 100,
                    "time": 817.1687500000008,
                    "velocity": 0.6850393700787402,
                    "duration": 0.07500000000004547
                },
                {
                    "name": "F7",
                    "midi": 101,
                    "time": 817.2041666666676,
                    "velocity": 0.6062992125984252,
                    "duration": 0.07708333333334849
                },
                {
                    "name": "G7",
                    "midi": 103,
                    "time": 817.2416666666676,
                    "velocity": 0.5984251968503937,
                    "duration": 0.07499999999993179
                },
                {
                    "name": "A7",
                    "midi": 105,
                    "time": 817.2750000000009,
                    "velocity": 0.6299212598425197,
                    "duration": 0.07291666666662877
                },
                {
                    "name": "B7",
                    "midi": 107,
                    "time": 817.3062500000009,
                    "velocity": 0.7007874015748031,
                    "duration": 0.12083333333328028
                },
                {
                    "name": "C8",
                    "midi": 108,
                    "time": 817.3416666666675,
                    "velocity": 0.7165354330708661,
                    "duration": 0.1395833333333485
                },
                {
                    "name": "C#7",
                    "midi": 97,
                    "time": 817.4250000000009,
                    "velocity": 1,
                    "duration": 0.07499999999993179
                },
                {
                    "name": "A3",
                    "midi": 57,
                    "time": 818.2437500000008,
                    "velocity": 0.9606299212598425,
                    "duration": 0.07499999999993179
                },
                {
                    "name": "A5",
                    "midi": 81,
                    "time": 818.2437500000008,
                    "velocity": 0.8503937007874016,
                    "duration": 0.11874999999986358
                },
                {
                    "name": "A2",
                    "midi": 45,
                    "time": 818.2458333333341,
                    "velocity": 0.9448818897637795,
                    "duration": 0.07083333333332575
                },
                {
                    "name": "C#6",
                    "midi": 85,
                    "time": 818.2479166666674,
                    "velocity": 0.9133858267716536,
                    "duration": 0.11666666666656056
                },
                {
                    "name": "C#5",
                    "midi": 73,
                    "time": 818.3354166666674,
                    "velocity": 0.8346456692913385,
                    "duration": 0.06666666666660603
                },
                {
                    "name": "F#5",
                    "midi": 78,
                    "time": 818.4375000000007,
                    "velocity": 0.84251968503937,
                    "duration": 0.07291666666674246
                },
                {
                    "name": "D6",
                    "midi": 86,
                    "time": 818.4562500000006,
                    "velocity": 0.7637795275590551,
                    "duration": 0.10416666666674246
                },
                {
                    "name": "B3",
                    "midi": 59,
                    "time": 818.4687500000007,
                    "velocity": 0.8582677165354331,
                    "duration": 0.0645833333334167
                },
                {
                    "name": "B2",
                    "midi": 47,
                    "time": 818.4729166666674,
                    "velocity": 0.8582677165354331,
                    "duration": 0.039583333333325754
                },
                {
                    "name": "C#6",
                    "midi": 85,
                    "time": 818.5333333333341,
                    "velocity": 0.7480314960629921,
                    "duration": 0.029166666666583296
                },
                {
                    "name": "C#3",
                    "midi": 49,
                    "time": 818.6750000000006,
                    "velocity": 0.937007874015748,
                    "duration": 0.054166666666674246
                },
                {
                    "name": "C#4",
                    "midi": 61,
                    "time": 818.6791666666674,
                    "velocity": 0.9291338582677166,
                    "duration": 0.024999999999977263
                },
                {
                    "name": "C#7",
                    "midi": 97,
                    "time": 818.6854166666674,
                    "velocity": 0.9133858267716536,
                    "duration": 0.07499999999993179
                },
                {
                    "name": "C#6",
                    "midi": 85,
                    "time": 818.7687500000006,
                    "velocity": 0.7480314960629921,
                    "duration": 0.029166666666696983
                },
                {
                    "name": "C#3",
                    "midi": 49,
                    "time": 818.9125000000007,
                    "velocity": 0.8661417322834646,
                    "duration": 0.3708333333332803
                },
                {
                    "name": "A5",
                    "midi": 81,
                    "time": 818.9250000000008,
                    "velocity": 0.8661417322834646,
                    "duration": 0.04374999999993179
                },
                {
                    "name": "C#2",
                    "midi": 37,
                    "time": 818.9312500000008,
                    "velocity": 0.8110236220472441,
                    "duration": 0.3312499999999545
                },
                {
                    "name": "C#6",
                    "midi": 85,
                    "time": 818.9437500000007,
                    "velocity": 0.6850393700787402,
                    "duration": 0.11249999999995453
                },
                {
                    "name": "A5",
                    "midi": 81,
                    "time": 818.9791666666673,
                    "velocity": 0.4330708661417323,
                    "duration": 0.1395833333333485
                },
                {
                    "name": "C#5",
                    "midi": 73,
                    "time": 819.0729166666673,
                    "velocity": 0.7007874015748031,
                    "duration": 0.08541666666667425
                },
                {
                    "name": "A5",
                    "midi": 81,
                    "time": 819.170833333334,
                    "velocity": 0.7559055118110236,
                    "duration": 0.1229166666665833
                },
                {
                    "name": "C#6",
                    "midi": 85,
                    "time": 819.1750000000008,
                    "velocity": 0.8976377952755905,
                    "duration": 0.14791666666656056
                },
                {
                    "name": "C#5",
                    "midi": 73,
                    "time": 819.264583333334,
                    "velocity": 0.8582677165354331,
                    "duration": 0.0770833333332348
                },
                {
                    "name": "F#5",
                    "midi": 78,
                    "time": 819.370833333334,
                    "velocity": 0.7795275590551181,
                    "duration": 0.06666666666660603
                },
                {
                    "name": "D6",
                    "midi": 86,
                    "time": 819.3958333333339,
                    "velocity": 0.7322834645669292,
                    "duration": 0.10208333333343944
                },
                {
                    "name": "D#3",
                    "midi": 51,
                    "time": 819.4104166666673,
                    "velocity": 0.937007874015748,
                    "duration": 0.06666666666671972
                },
                {
                    "name": "D#2",
                    "midi": 39,
                    "time": 819.4125000000006,
                    "velocity": 0.889763779527559,
                    "duration": 0.058333333333393966
                },
                {
                    "name": "C#6",
                    "midi": 85,
                    "time": 819.4583333333339,
                    "velocity": 0.6692913385826772,
                    "duration": 0.06250000000011369
                },
                {
                    "name": "F2",
                    "midi": 41,
                    "time": 819.6104166666673,
                    "velocity": 0.7716535433070866,
                    "duration": 0.06666666666660603
                },
                {
                    "name": "F3",
                    "midi": 53,
                    "time": 819.6125000000006,
                    "velocity": 0.7874015748031497,
                    "duration": 0.07916666666665151
                },
                {
                    "name": "C#7",
                    "midi": 97,
                    "time": 819.6145833333339,
                    "velocity": 0.8976377952755905,
                    "duration": 0.08541666666667425
                },
                {
                    "name": "C#6",
                    "midi": 85,
                    "time": 819.720833333334,
                    "velocity": 0.4566929133858268,
                    "duration": 0.043750000000045475
                },
                {
                    "name": "F#2",
                    "midi": 42,
                    "time": 819.827083333334,
                    "velocity": 0.9291338582677166,
                    "duration": 0.08541666666667425
                },
                {
                    "name": "F#3",
                    "midi": 54,
                    "time": 819.8291666666673,
                    "velocity": 0.952755905511811,
                    "duration": 0.06041666666669698
                },
                {
                    "name": "C#6",
                    "midi": 85,
                    "time": 819.8437500000007,
                    "velocity": 0.8582677165354331,
                    "duration": 0.12708333333330302
                },
                {
                    "name": "C#5",
                    "midi": 73,
                    "time": 819.9375000000007,
                    "velocity": 0.7795275590551181,
                    "duration": 0.06666666666660603
                },
                {
                    "name": "G#2",
                    "midi": 44,
                    "time": 820.0625000000006,
                    "velocity": 0.8818897637795275,
                    "duration": 0.08124999999995453
                },
                {
                    "name": "C#6",
                    "midi": 85,
                    "time": 820.0645833333339,
                    "velocity": 0.968503937007874,
                    "duration": 0.16041666666660603
                },
                {
                    "name": "G#3",
                    "midi": 56,
                    "time": 820.0687500000006,
                    "velocity": 0.9133858267716536,
                    "duration": 0.07499999999993179
                },
                {
                    "name": "F5",
                    "midi": 77,
                    "time": 820.1833333333338,
                    "velocity": 0.7716535433070866,
                    "duration": 0.09375
                },
                {
                    "name": "D6",
                    "midi": 86,
                    "time": 820.2812500000006,
                    "velocity": 0.8503937007874016,
                    "duration": 0.1708333333333485
                },
                {
                    "name": "G#5",
                    "midi": 80,
                    "time": 820.3062500000005,
                    "velocity": 0.8188976377952756,
                    "duration": 0.16666666666674246
                },
                {
                    "name": "G#6",
                    "midi": 92,
                    "time": 820.4291666666672,
                    "velocity": 0.984251968503937,
                    "duration": 0.0791666666667652
                },
                {
                    "name": "G#5",
                    "midi": 80,
                    "time": 820.539583333334,
                    "velocity": 0.7322834645669292,
                    "duration": 0.11041666666665151
                },
                {
                    "name": "C#6",
                    "midi": 85,
                    "time": 820.539583333334,
                    "velocity": 0.8503937007874016,
                    "duration": 0.15416666666669698
                },
                {
                    "name": "E6",
                    "midi": 88,
                    "time": 820.6437500000006,
                    "velocity": 0.7874015748031497,
                    "duration": 0.09791666666671972
                },
                {
                    "name": "G#4",
                    "midi": 68,
                    "time": 820.7458333333341,
                    "velocity": 0.8582677165354331,
                    "duration": 0.08541666666656056
                },
                {
                    "name": "G#5",
                    "midi": 80,
                    "time": 820.7562500000007,
                    "velocity": 0.8818897637795275,
                    "duration": 0.06458333333330302
                },
                {
                    "name": "C#6",
                    "midi": 85,
                    "time": 820.8729166666673,
                    "velocity": 0.9291338582677166,
                    "duration": 0.08333333333337123
                },
                {
                    "name": "G#5",
                    "midi": 80,
                    "time": 820.8791666666673,
                    "velocity": 0.8267716535433071,
                    "duration": 0.04166666666662877
                },
                {
                    "name": "C#5",
                    "midi": 73,
                    "time": 820.977083333334,
                    "velocity": 0.968503937007874,
                    "duration": 0.07499999999993179
                },
                {
                    "name": "G#5",
                    "midi": 80,
                    "time": 820.9791666666673,
                    "velocity": 0.9133858267716536,
                    "duration": 0.054166666666674246
                },
                {
                    "name": "G#5",
                    "midi": 80,
                    "time": 821.0812500000006,
                    "velocity": 0.889763779527559,
                    "duration": 0.17916666666667425
                },
                {
                    "name": "C#6",
                    "midi": 85,
                    "time": 821.0833333333339,
                    "velocity": 0.889763779527559,
                    "duration": 0.13125000000002274
                },
                {
                    "name": "D6",
                    "midi": 86,
                    "time": 821.1937500000006,
                    "velocity": 0.8031496062992126,
                    "duration": 0.13333333333343944
                },
                {
                    "name": "F5",
                    "midi": 77,
                    "time": 821.214583333334,
                    "velocity": 0.7795275590551181,
                    "duration": 0.08125000000006821
                },
                {
                    "name": "C#5",
                    "midi": 73,
                    "time": 821.3250000000007,
                    "velocity": 0.984251968503937,
                    "duration": 0.06458333333330302
                },
                {
                    "name": "C#4",
                    "midi": 61,
                    "time": 821.333333333334,
                    "velocity": 0.937007874015748,
                    "duration": 0.05624999999997726
                },
                {
                    "name": "F5",
                    "midi": 77,
                    "time": 821.4250000000008,
                    "velocity": 0.8346456692913385,
                    "duration": 0.07708333333334849
                },
                {
                    "name": "C#6",
                    "midi": 85,
                    "time": 821.427083333334,
                    "velocity": 0.8346456692913385,
                    "duration": 0.14583333333337123
                },
                {
                    "name": "G#5",
                    "midi": 80,
                    "time": 821.427083333334,
                    "velocity": 0.84251968503937,
                    "duration": 0.12916666666671972
                },
                {
                    "name": "E6",
                    "midi": 88,
                    "time": 821.5187500000008,
                    "velocity": 0.84251968503937,
                    "duration": 0.13125000000002274
                },
                {
                    "name": "G#4",
                    "midi": 68,
                    "time": 821.6479166666675,
                    "velocity": 0.905511811023622,
                    "duration": 0.06458333333330302
                },
                {
                    "name": "G#5",
                    "midi": 80,
                    "time": 821.6500000000008,
                    "velocity": 0.9133858267716536,
                    "duration": 0.022916666666674246
                },
                {
                    "name": "C#5",
                    "midi": 73,
                    "time": 821.6562500000008,
                    "velocity": 0.8110236220472441,
                    "duration": 0.03125
                },
                {
                    "name": "C#6",
                    "midi": 85,
                    "time": 821.7541666666674,
                    "velocity": 0.7559055118110236,
                    "duration": 0.10000000000002274
                },
                {
                    "name": "G#5",
                    "midi": 80,
                    "time": 821.7583333333341,
                    "velocity": 0.5590551181102362,
                    "duration": 0.06458333333330302
                },
                {
                    "name": "F5",
                    "midi": 77,
                    "time": 821.7729166666675,
                    "velocity": 0.5511811023622047,
                    "duration": 0.049999999999954525
                },
                {
                    "name": "A2",
                    "midi": 45,
                    "time": 821.9458333333341,
                    "velocity": 0.8582677165354331,
                    "duration": 0.08541666666690162
                },
                {
                    "name": "A3",
                    "midi": 57,
                    "time": 821.9500000000008,
                    "velocity": 0.9212598425196851,
                    "duration": 0.06458333333353039
                },
                {
                    "name": "C#6",
                    "midi": 85,
                    "time": 821.9583333333342,
                    "velocity": 0.8267716535433071,
                    "duration": 0.13333333333366681
                },
                {
                    "name": "A5",
                    "midi": 81,
                    "time": 821.9625000000009,
                    "velocity": 0.6062992125984252,
                    "duration": 0.12500000000022737
                },
                {
                    "name": "A#5",
                    "midi": 82,
                    "time": 821.9687500000009,
                    "velocity": 0.7244094488188977,
                    "duration": 0.033333333333416704
                },
                {
                    "name": "B2",
                    "midi": 47,
                    "time": 821.9791666666677,
                    "velocity": 0.4251968503937008,
                    "duration": 0.022916666666674246
                },
                {
                    "name": "C#5",
                    "midi": 73,
                    "time": 822.0520833333344,
                    "velocity": 0.8582677165354331,
                    "duration": 0.06250000000011369
                },
                {
                    "name": "B3",
                    "midi": 59,
                    "time": 822.1666666666679,
                    "velocity": 0.9212598425196851,
                    "duration": 0.06458333333330302
                },
                {
                    "name": "D6",
                    "midi": 86,
                    "time": 822.1687500000012,
                    "velocity": 0.8346456692913385,
                    "duration": 0.13541666666674246
                },
                {
                    "name": "B2",
                    "midi": 47,
                    "time": 822.1708333333345,
                    "velocity": 0.8503937007874016,
                    "duration": 0.07291666666674246
                },
                {
                    "name": "C#6",
                    "midi": 85,
                    "time": 822.2562500000013,
                    "velocity": 0.7559055118110236,
                    "duration": 0.07499999999993179
                },
                {
                    "name": "C#3",
                    "midi": 49,
                    "time": 822.3937500000012,
                    "velocity": 0.952755905511811,
                    "duration": 0.06041666666669698
                },
                {
                    "name": "C#4",
                    "midi": 61,
                    "time": 822.3958333333345,
                    "velocity": 0.968503937007874,
                    "duration": 0.05208333333337123
                },
                {
                    "name": "C#7",
                    "midi": 97,
                    "time": 822.4041666666678,
                    "velocity": 0.937007874015748,
                    "duration": 0.09375000000011369
                },
                {
                    "name": "C#6",
                    "midi": 85,
                    "time": 822.5062500000013,
                    "velocity": 0.7165354330708661,
                    "duration": 0.03125
                },
                {
                    "name": "C#3",
                    "midi": 49,
                    "time": 822.6270833333346,
                    "velocity": 0.9448818897637795,
                    "duration": 0.33333333333337123
                },
                {
                    "name": "C#2",
                    "midi": 37,
                    "time": 822.6333333333346,
                    "velocity": 0.952755905511811,
                    "duration": 0.30624999999997726
                },
                {
                    "name": "A5",
                    "midi": 81,
                    "time": 822.6395833333346,
                    "velocity": 0.8582677165354331,
                    "duration": 0.11666666666667425
                },
                {
                    "name": "C#6",
                    "midi": 85,
                    "time": 822.6625000000013,
                    "velocity": 0.4566929133858268,
                    "duration": 0.125
                },
                {
                    "name": "C#5",
                    "midi": 73,
                    "time": 822.7625000000013,
                    "velocity": 0.8818897637795275,
                    "duration": 0.08749999999997726
                },
                {
                    "name": "A5",
                    "midi": 81,
                    "time": 822.8666666666679,
                    "velocity": 0.7322834645669292,
                    "duration": 0.13541666666662877
                },
                {
                    "name": "C#6",
                    "midi": 85,
                    "time": 822.8666666666679,
                    "velocity": 0.84251968503937,
                    "duration": 0.14374999999995453
                },
                {
                    "name": "C#5",
                    "midi": 73,
                    "time": 822.9604166666679,
                    "velocity": 0.8503937007874016,
                    "duration": 0.07499999999993179
                },
                {
                    "name": "F#5",
                    "midi": 78,
                    "time": 823.0750000000012,
                    "velocity": 0.7637795275590551,
                    "duration": 0.03750000000002274
                },
                {
                    "name": "D6",
                    "midi": 86,
                    "time": 823.0833333333345,
                    "velocity": 0.7952755905511811,
                    "duration": 0.12083333333328028
                },
                {
                    "name": "D#3",
                    "midi": 51,
                    "time": 823.0875000000012,
                    "velocity": 0.984251968503937,
                    "duration": 0.07499999999993179
                },
                {
                    "name": "D#2",
                    "midi": 39,
                    "time": 823.0895833333345,
                    "velocity": 0.937007874015748,
                    "duration": 0.07499999999993179
                },
                {
                    "name": "G5",
                    "midi": 79,
                    "time": 823.1145833333345,
                    "velocity": 0.48031496062992124,
                    "duration": 0.05208333333325754
                },
                {
                    "name": "C#6",
                    "midi": 85,
                    "time": 823.1562500000011,
                    "velocity": 0.7007874015748031,
                    "duration": 0.07499999999993179
                },
                {
                    "name": "F2",
                    "midi": 41,
                    "time": 823.2979166666678,
                    "velocity": 0.9291338582677166,
                    "duration": 0.0625
                },
                {
                    "name": "F3",
                    "midi": 53,
                    "time": 823.3020833333345,
                    "velocity": 0.8976377952755905,
                    "duration": 0.05624999999997726
                },
                {
                    "name": "C#7",
                    "midi": 97,
                    "time": 823.3020833333345,
                    "velocity": 0.905511811023622,
                    "duration": 0.08958333333328028
                },
                {
                    "name": "C#6",
                    "midi": 85,
                    "time": 823.3812500000012,
                    "velocity": 0.8346456692913385,
                    "duration": 0.054166666666674246
                },
                {
                    "name": "F#3",
                    "midi": 54,
                    "time": 823.5166666666678,
                    "velocity": 0.9763779527559056,
                    "duration": 0.06458333333353039
                },
                {
                    "name": "F#2",
                    "midi": 42,
                    "time": 823.5208333333345,
                    "velocity": 0.952755905511811,
                    "duration": 0.08541666666678793
                },
                {
                    "name": "C#6",
                    "midi": 85,
                    "time": 823.5375000000012,
                    "velocity": 0.7874015748031497,
                    "duration": 0.13541666666674246
                },
                {
                    "name": "A5",
                    "midi": 81,
                    "time": 823.5500000000012,
                    "velocity": 0.8188976377952756,
                    "duration": 0.027083333333393966
                },
                {
                    "name": "C#5",
                    "midi": 73,
                    "time": 823.6312500000013,
                    "velocity": 0.8188976377952756,
                    "duration": 0.0625
                },
                {
                    "name": "G#2",
                    "midi": 44,
                    "time": 823.7625000000013,
                    "velocity": 0.8661417322834646,
                    "duration": 0.07708333333334849
                },
                {
                    "name": "C#6",
                    "midi": 85,
                    "time": 823.7645833333346,
                    "velocity": 0.937007874015748,
                    "duration": 0.15000000000009095
                },
                {
                    "name": "G#3",
                    "midi": 56,
                    "time": 823.7687500000013,
                    "velocity": 1,
                    "duration": 0.08958333333339397
                },
                {
                    "name": "F#3",
                    "midi": 54,
                    "time": 823.8062500000013,
                    "velocity": 0.3858267716535433,
                    "duration": 0.03750000000002274
                },
                {
                    "name": "F5",
                    "midi": 77,
                    "time": 823.885416666668,
                    "velocity": 0.7637795275590551,
                    "duration": 0.10625000000004547
                },
                {
                    "name": "D6",
                    "midi": 86,
                    "time": 823.985416666668,
                    "velocity": 0.84251968503937,
                    "duration": 0.16666666666662877
                },
                {
                    "name": "G#5",
                    "midi": 80,
                    "time": 824.0250000000013,
                    "velocity": 0.6929133858267716,
                    "duration": 0.1416666666666515
                },
                {
                    "name": "G#6",
                    "midi": 92,
                    "time": 824.1270833333347,
                    "velocity": 0.8661417322834646,
                    "duration": 0.054166666666674246
                },
                {
                    "name": "G#5",
                    "midi": 80,
                    "time": 824.241666666668,
                    "velocity": 0.7480314960629921,
                    "duration": 0.10416666666662877
                },
                {
                    "name": "C#6",
                    "midi": 85,
                    "time": 824.2500000000014,
                    "velocity": 0.8110236220472441,
                    "duration": 0.13333333333332575
                },
                {
                    "name": "E6",
                    "midi": 88,
                    "time": 824.3458333333347,
                    "velocity": 0.8110236220472441,
                    "duration": 0.09375
                },
                {
                    "name": "G#4",
                    "midi": 68,
                    "time": 824.460416666668,
                    "velocity": 0.8818897637795275,
                    "duration": 0.08749999999997726
                },
                {
                    "name": "G#5",
                    "midi": 80,
                    "time": 824.4625000000013,
                    "velocity": 0.968503937007874,
                    "duration": 0.06041666666669698
                },
                {
                    "name": "C#6",
                    "midi": 85,
                    "time": 824.5833333333347,
                    "velocity": 0.8818897637795275,
                    "duration": 0.07708333333334849
                },
                {
                    "name": "G#5",
                    "midi": 80,
                    "time": 824.5937500000014,
                    "velocity": 0.6929133858267716,
                    "duration": 0.03541666666671972
                },
                {
                    "name": "G#5",
                    "midi": 80,
                    "time": 824.6875000000014,
                    "velocity": 0.9763779527559056,
                    "duration": 0.05208333333325754
                },
                {
                    "name": "C#5",
                    "midi": 73,
                    "time": 824.6895833333347,
                    "velocity": 0.9921259842519685,
                    "duration": 0.06666666666660603
                },
                {
                    "name": "G#5",
                    "midi": 80,
                    "time": 824.7875000000013,
                    "velocity": 0.889763779527559,
                    "duration": 0.11874999999997726
                },
                {
                    "name": "C#6",
                    "midi": 85,
                    "time": 824.7895833333346,
                    "velocity": 0.8976377952755905,
                    "duration": 0.13541666666674246
                },
                {
                    "name": "D6",
                    "midi": 86,
                    "time": 824.9062500000013,
                    "velocity": 0.84251968503937,
                    "duration": 0.12916666666671972
                },
                {
                    "name": "F5",
                    "midi": 77,
                    "time": 824.9187500000013,
                    "velocity": 0.7086614173228346,
                    "duration": 0.07916666666665151
                },
                {
                    "name": "C#5",
                    "midi": 73,
                    "time": 825.0375000000013,
                    "velocity": 0.952755905511811,
                    "duration": 0.06041666666669698
                },
                {
                    "name": "C#4",
                    "midi": 61,
                    "time": 825.0437500000013,
                    "velocity": 0.8503937007874016,
                    "duration": 0.05208333333337123
                },
                {
                    "name": "F5",
                    "midi": 77,
                    "time": 825.1375000000013,
                    "velocity": 0.8110236220472441,
                    "duration": 0.10000000000002274
                },
                {
                    "name": "G#5",
                    "midi": 80,
                    "time": 825.1395833333346,
                    "velocity": 0.8346456692913385,
                    "duration": 0.1395833333333485
                },
                {
                    "name": "C#6",
                    "midi": 85,
                    "time": 825.1437500000013,
                    "velocity": 0.7874015748031497,
                    "duration": 0.1541666666665833
                },
                {
                    "name": "E6",
                    "midi": 88,
                    "time": 825.2458333333346,
                    "velocity": 0.8346456692913385,
                    "duration": 0.14791666666656056
                },
                {
                    "name": "G#5",
                    "midi": 80,
                    "time": 825.3708333333345,
                    "velocity": 0.968503937007874,
                    "duration": 0.04791666666665151
                },
                {
                    "name": "G#4",
                    "midi": 68,
                    "time": 825.3708333333345,
                    "velocity": 0.8976377952755905,
                    "duration": 0.08958333333328028
                },
                {
                    "name": "C#5",
                    "midi": 73,
                    "time": 825.3750000000013,
                    "velocity": 0.8661417322834646,
                    "duration": 0.05416666666656056
                },
                {
                    "name": "C#6",
                    "midi": 85,
                    "time": 825.4895833333345,
                    "velocity": 0.8661417322834646,
                    "duration": 0.08958333333328028
                },
                {
                    "name": "G#5",
                    "midi": 80,
                    "time": 825.4916666666678,
                    "velocity": 0.84251968503937,
                    "duration": 0.07083333333332575
                },
                {
                    "name": "F5",
                    "midi": 77,
                    "time": 825.5000000000011,
                    "velocity": 0.6929133858267716,
                    "duration": 0.0625
                },
                {
                    "name": "F#1",
                    "midi": 30,
                    "time": 825.8208333333345,
                    "velocity": 0.8503937007874016,
                    "duration": 0.058333333333393966
                },
                {
                    "name": "F#2",
                    "midi": 42,
                    "time": 825.8270833333345,
                    "velocity": 0.9448818897637795,
                    "duration": 0.07500000000004547
                },
                {
                    "name": "A#4",
                    "midi": 70,
                    "time": 825.8312500000012,
                    "velocity": 0.9133858267716536,
                    "duration": 0.13333333333332575
                },
                {
                    "name": "F#4",
                    "midi": 66,
                    "time": 825.8354166666679,
                    "velocity": 0.8976377952755905,
                    "duration": 0.14374999999995453
                },
                {
                    "name": "B3",
                    "midi": 59,
                    "time": 825.9562500000012,
                    "velocity": 0.8503937007874016,
                    "duration": 0.08125000000006821
                },
                {
                    "name": "D#4",
                    "midi": 63,
                    "time": 825.9854166666679,
                    "velocity": 0.5118110236220472,
                    "duration": 0.039583333333325754
                },
                {
                    "name": "B4",
                    "midi": 71,
                    "time": 826.0520833333346,
                    "velocity": 0.7952755905511811,
                    "duration": 0.07083333333332575
                },
                {
                    "name": "C#4",
                    "midi": 61,
                    "time": 826.1458333333346,
                    "velocity": 0.6614173228346457,
                    "duration": 0.10416666666662877
                },
                {
                    "name": "C#5",
                    "midi": 73,
                    "time": 826.2895833333346,
                    "velocity": 0.9763779527559056,
                    "duration": 0.047916666666765195
                },
                {
                    "name": "F#4",
                    "midi": 66,
                    "time": 826.2937500000013,
                    "velocity": 0.8267716535433071,
                    "duration": 0.0645833333334167
                },
                {
                    "name": "A#4",
                    "midi": 70,
                    "time": 826.3000000000013,
                    "velocity": 0.7795275590551181,
                    "duration": 0.029166666666696983
                },
                {
                    "name": "C#6",
                    "midi": 85,
                    "time": 826.422916666668,
                    "velocity": 0.84251968503937,
                    "duration": 0.08958333333328028
                },
                {
                    "name": "C#4",
                    "midi": 61,
                    "time": 826.5458333333346,
                    "velocity": 0.952755905511811,
                    "duration": 0.09375
                },
                {
                    "name": "C#7",
                    "midi": 97,
                    "time": 826.5458333333346,
                    "velocity": 0.905511811023622,
                    "duration": 0.09583333333330302
                },
                {
                    "name": "C#3",
                    "midi": 49,
                    "time": 826.5520833333346,
                    "velocity": 0.889763779527559,
                    "duration": 0.08749999999997726
                },
                {
                    "name": "F#6",
                    "midi": 90,
                    "time": 826.5625000000013,
                    "velocity": 0.7874015748031497,
                    "duration": 0.0958333333334167
                },
                {
                    "name": "A#6",
                    "midi": 94,
                    "time": 826.5645833333346,
                    "velocity": 0.7637795275590551,
                    "duration": 0.08750000000009095
                },
                {
                    "name": "A#3",
                    "midi": 58,
                    "time": 826.5729166666679,
                    "velocity": 0.6141732283464567,
                    "duration": 0.03125
                },
                {
                    "name": "C#6",
                    "midi": 85,
                    "time": 826.6479166666679,
                    "velocity": 0.7007874015748031,
                    "duration": 0.033333333333416704
                },
                {
                    "name": "C#6",
                    "midi": 85,
                    "time": 826.7770833333346,
                    "velocity": 0.8661417322834646,
                    "duration": 0.054166666666674246
                },
                {
                    "name": "A#5",
                    "midi": 82,
                    "time": 826.810416666668,
                    "velocity": 0.5748031496062992,
                    "duration": 0.05000000000006821
                },
                {
                    "name": "F#5",
                    "midi": 78,
                    "time": 826.8145833333347,
                    "velocity": 0.2755905511811024,
                    "duration": 0.07708333333334849
                },
                {
                    "name": "A#4",
                    "midi": 70,
                    "time": 826.8770833333347,
                    "velocity": 0.889763779527559,
                    "duration": 0.05000000000006821
                },
                {
                    "name": "D#4",
                    "midi": 63,
                    "time": 826.985416666668,
                    "velocity": 0.968503937007874,
                    "duration": 0.04791666666665151
                },
                {
                    "name": "D#3",
                    "midi": 51,
                    "time": 826.9895833333347,
                    "velocity": 0.8818897637795275,
                    "duration": 0.08749999999997726
                },
                {
                    "name": "A#3",
                    "midi": 58,
                    "time": 826.991666666668,
                    "velocity": 0.8267716535433071,
                    "duration": 0.04374999999993179
                },
                {
                    "name": "F#3",
                    "midi": 54,
                    "time": 826.991666666668,
                    "velocity": 0.84251968503937,
                    "duration": 0.07291666666662877
                },
                {
                    "name": "A#4",
                    "midi": 70,
                    "time": 827.0250000000013,
                    "velocity": 0.8976377952755905,
                    "duration": 0.11250000000006821
                },
                {
                    "name": "B4",
                    "midi": 71,
                    "time": 827.0583333333346,
                    "velocity": 0.4094488188976378,
                    "duration": 0.047916666666765195
                },
                {
                    "name": "G#4",
                    "midi": 68,
                    "time": 827.060416666668,
                    "velocity": 0.5275590551181102,
                    "duration": 0.052083333333484916
                },
                {
                    "name": "F3",
                    "midi": 53,
                    "time": 827.2645833333347,
                    "velocity": 0.84251968503937,
                    "duration": 0.05208333333337123
                },
                {
                    "name": "C#4",
                    "midi": 61,
                    "time": 827.2645833333347,
                    "velocity": 0.889763779527559,
                    "duration": 0.07291666666674246
                },
                {
                    "name": "F4",
                    "midi": 65,
                    "time": 827.266666666668,
                    "velocity": 0.889763779527559,
                    "duration": 0.08750000000009095
                },
                {
                    "name": "A#3",
                    "midi": 58,
                    "time": 827.2708333333347,
                    "velocity": 0.8110236220472441,
                    "duration": 0.03125
                },
                {
                    "name": "D#4",
                    "midi": 63,
                    "time": 827.2916666666681,
                    "velocity": 0.5669291338582677,
                    "duration": 0.03333333333330302
                },
                {
                    "name": "C#3",
                    "midi": 49,
                    "time": 827.3770833333348,
                    "velocity": 0.952755905511811,
                    "duration": 0.17708333333337123
                },
                {
                    "name": "A#2",
                    "midi": 46,
                    "time": 827.5062500000015,
                    "velocity": 0.8110236220472441,
                    "duration": 0.14791666666656056
                },
                {
                    "name": "F#3",
                    "midi": 54,
                    "time": 827.5083333333348,
                    "velocity": 0.9763779527559056,
                    "duration": 0.07916666666665151
                },
                {
                    "name": "F#4",
                    "midi": 66,
                    "time": 827.5125000000015,
                    "velocity": 0.9291338582677166,
                    "duration": 0.09999999999990905
                },
                {
                    "name": "F#2",
                    "midi": 42,
                    "time": 827.6208333333348,
                    "velocity": 0.8661417322834646,
                    "duration": 0.06875000000002274
                },
                {
                    "name": "G#3",
                    "midi": 56,
                    "time": 827.8416666666681,
                    "velocity": 0.984251968503937,
                    "duration": 0.05833333333328028
                },
                {
                    "name": "G#4",
                    "midi": 68,
                    "time": 827.8416666666681,
                    "velocity": 0.905511811023622,
                    "duration": 0.09791666666660603
                },
                {
                    "name": "G#1",
                    "midi": 32,
                    "time": 827.8458333333348,
                    "velocity": 0.8818897637795275,
                    "duration": 0.0916666666665833
                },
                {
                    "name": "F#4",
                    "midi": 66,
                    "time": 827.8479166666681,
                    "velocity": 0.9133858267716536,
                    "duration": 0.09583333333330302
                },
                {
                    "name": "G#2",
                    "midi": 44,
                    "time": 827.8479166666681,
                    "velocity": 0.9448818897637795,
                    "duration": 0.08333333333325754
                },
                {
                    "name": "A#1",
                    "midi": 34,
                    "time": 827.8812500000014,
                    "velocity": 0.5433070866141733,
                    "duration": 0.04166666666662877
                },
                {
                    "name": "G#5",
                    "midi": 80,
                    "time": 828.141666666668,
                    "velocity": 0.8267716535433071,
                    "duration": 0.14374999999995453
                },
                {
                    "name": "D#5",
                    "midi": 75,
                    "time": 828.1500000000013,
                    "velocity": 0.8346456692913385,
                    "duration": 0.16666666666662877
                },
                {
                    "name": "A#5",
                    "midi": 82,
                    "time": 828.2625000000013,
                    "velocity": 0.8267716535433071,
                    "duration": 0.1750000000000682
                },
                {
                    "name": "C5",
                    "midi": 72,
                    "time": 828.2770833333346,
                    "velocity": 0.7007874015748031,
                    "duration": 0.07708333333334849
                },
                {
                    "name": "D#6",
                    "midi": 87,
                    "time": 828.3833333333347,
                    "velocity": 1,
                    "duration": 0.05624999999997726
                },
                {
                    "name": "D#5",
                    "midi": 75,
                    "time": 828.5062500000014,
                    "velocity": 0.8503937007874016,
                    "duration": 0.09583333333330302
                },
                {
                    "name": "G#5",
                    "midi": 80,
                    "time": 828.516666666668,
                    "velocity": 0.7322834645669292,
                    "duration": 0.14791666666667425
                },
                {
                    "name": "C6",
                    "midi": 84,
                    "time": 828.635416666668,
                    "velocity": 0.8267716535433071,
                    "duration": 0.08333333333337123
                },
                {
                    "name": "D#4",
                    "midi": 63,
                    "time": 828.7312500000014,
                    "velocity": 0.9133858267716536,
                    "duration": 0.07500000000004547
                },
                {
                    "name": "D#5",
                    "midi": 75,
                    "time": 828.7333333333347,
                    "velocity": 0.937007874015748,
                    "duration": 0.06041666666669698
                },
                {
                    "name": "G#5",
                    "midi": 80,
                    "time": 828.8666666666682,
                    "velocity": 0.8503937007874016,
                    "duration": 0.08541666666656056
                },
                {
                    "name": "D#5",
                    "midi": 75,
                    "time": 828.8854166666681,
                    "velocity": 0.6299212598425197,
                    "duration": 0.03333333333330302
                },
                {
                    "name": "D#5",
                    "midi": 75,
                    "time": 828.9562500000014,
                    "velocity": 0.9763779527559056,
                    "duration": 0.05624999999997726
                },
                {
                    "name": "F#4",
                    "midi": 66,
                    "time": 828.9583333333347,
                    "velocity": 0.9291338582677166,
                    "duration": 0.08541666666667425
                },
                {
                    "name": "G#4",
                    "midi": 68,
                    "time": 828.9645833333348,
                    "velocity": 0.8346456692913385,
                    "duration": 0.06666666666660603
                },
                {
                    "name": "D#5",
                    "midi": 75,
                    "time": 829.0604166666681,
                    "velocity": 0.889763779527559,
                    "duration": 0.17083333333357587
                },
                {
                    "name": "G#5",
                    "midi": 80,
                    "time": 829.0645833333348,
                    "velocity": 0.8582677165354331,
                    "duration": 0.16250000000013642
                },
                {
                    "name": "C5",
                    "midi": 72,
                    "time": 829.1791666666682,
                    "velocity": 0.6456692913385826,
                    "duration": 0.09375000000011369
                },
                {
                    "name": "A#5",
                    "midi": 82,
                    "time": 829.1833333333349,
                    "velocity": 0.8188976377952756,
                    "duration": 0.16666666666674246
                },
                {
                    "name": "D#6",
                    "midi": 87,
                    "time": 829.3250000000016,
                    "velocity": 0.984251968503937,
                    "duration": 0.06041666666669698
                },
                {
                    "name": "D#5",
                    "midi": 75,
                    "time": 829.427083333335,
                    "velocity": 0.8267716535433071,
                    "duration": 0.09791666666671972
                },
                {
                    "name": "G#5",
                    "midi": 80,
                    "time": 829.4291666666683,
                    "velocity": 0.7874015748031497,
                    "duration": 0.1416666666667652
                },
                {
                    "name": "C5",
                    "midi": 72,
                    "time": 829.433333333335,
                    "velocity": 0.7322834645669292,
                    "duration": 0.05624999999997726
                },
                {
                    "name": "C6",
                    "midi": 84,
                    "time": 829.545833333335,
                    "velocity": 0.8346456692913385,
                    "duration": 0.10208333333332575
                },
                {
                    "name": "D#5",
                    "midi": 75,
                    "time": 829.6812500000017,
                    "velocity": 0.937007874015748,
                    "duration": 0.05000000000006821
                },
                {
                    "name": "F#4",
                    "midi": 66,
                    "time": 829.6854166666684,
                    "velocity": 0.7952755905511811,
                    "duration": 0.06666666666671972
                },
                {
                    "name": "G#4",
                    "midi": 68,
                    "time": 829.6895833333351,
                    "velocity": 0.7559055118110236,
                    "duration": 0.04166666666662877
                },
                {
                    "name": "D#4",
                    "midi": 63,
                    "time": 829.6916666666684,
                    "velocity": 0.7165354330708661,
                    "duration": 0.07500000000004547
                },
                {
                    "name": "G#5",
                    "midi": 80,
                    "time": 829.7979166666685,
                    "velocity": 0.8818897637795275,
                    "duration": 0.09375000000011369
                },
                {
                    "name": "D#5",
                    "midi": 75,
                    "time": 829.8041666666685,
                    "velocity": 0.7795275590551181,
                    "duration": 0.058333333333393966
                },
                {
                    "name": "C5",
                    "midi": 72,
                    "time": 829.8083333333352,
                    "velocity": 0.7322834645669292,
                    "duration": 0.04166666666662877
                },
                {
                    "name": "C#2",
                    "midi": 37,
                    "time": 830.0562500000019,
                    "velocity": 0.8582677165354331,
                    "duration": 0.08750000000009095
                },
                {
                    "name": "C#3",
                    "midi": 49,
                    "time": 830.0583333333352,
                    "velocity": 0.9291338582677166,
                    "duration": 0.0958333333334167
                },
                {
                    "name": "A4",
                    "midi": 69,
                    "time": 830.0625000000019,
                    "velocity": 0.8346456692913385,
                    "duration": 0.07291666666674246
                },
                {
                    "name": "F4",
                    "midi": 65,
                    "time": 830.0645833333352,
                    "velocity": 0.8976377952755905,
                    "duration": 0.06666666666671972
                },
                {
                    "name": "B3",
                    "midi": 59,
                    "time": 830.068750000002,
                    "velocity": 0.8188976377952756,
                    "duration": 0.043750000000045475
                },
                {
                    "name": "A5",
                    "midi": 81,
                    "time": 830.2770833333353,
                    "velocity": 0.8582677165354331,
                    "duration": 0.11874999999997726
                },
                {
                    "name": "F#5",
                    "midi": 78,
                    "time": 830.287500000002,
                    "velocity": 0.7007874015748031,
                    "duration": 0.03333333333330302
                },
                {
                    "name": "F5",
                    "midi": 77,
                    "time": 830.2958333333353,
                    "velocity": 0.6771653543307087,
                    "duration": 0.07083333333332575
                },
                {
                    "name": "B5",
                    "midi": 83,
                    "time": 830.3541666666686,
                    "velocity": 0.8582677165354331,
                    "duration": 0.18541666666669698
                },
                {
                    "name": "C#5",
                    "midi": 73,
                    "time": 830.3916666666686,
                    "velocity": 0.8818897637795275,
                    "duration": 0.10000000000002274
                },
                {
                    "name": "F6",
                    "midi": 89,
                    "time": 830.4916666666686,
                    "velocity": 0.9763779527559056,
                    "duration": 0.06666666666660603
                },
                {
                    "name": "A5",
                    "midi": 81,
                    "time": 830.6104166666686,
                    "velocity": 0.6771653543307087,
                    "duration": 0.12708333333318933
                },
                {
                    "name": "F5",
                    "midi": 77,
                    "time": 830.6208333333352,
                    "velocity": 0.5511811023622047,
                    "duration": 0.10624999999993179
                },
                {
                    "name": "E5",
                    "midi": 76,
                    "time": 830.6270833333352,
                    "velocity": 0.5748031496062992,
                    "duration": 0.04791666666665151
                },
                {
                    "name": "C#6",
                    "midi": 85,
                    "time": 830.7083333333352,
                    "velocity": 0.8503937007874016,
                    "duration": 0.09791666666649235
                },
                {
                    "name": "A#5",
                    "midi": 82,
                    "time": 830.7250000000018,
                    "velocity": 0.36220472440944884,
                    "duration": 0.03958333333321207
                },
                {
                    "name": "C#5",
                    "midi": 73,
                    "time": 830.8062500000017,
                    "velocity": 0.968503937007874,
                    "duration": 0.06875000000002274
                },
                {
                    "name": "C#4",
                    "midi": 61,
                    "time": 830.8104166666684,
                    "velocity": 0.9133858267716536,
                    "duration": 0.07291666666662877
                },
                {
                    "name": "A5",
                    "midi": 81,
                    "time": 830.9541666666684,
                    "velocity": 0.6692913385826772,
                    "duration": 0.09375
                },
                {
                    "name": "B5",
                    "midi": 83,
                    "time": 830.9583333333351,
                    "velocity": 0.6141732283464567,
                    "duration": 0.06458333333330302
                },
                {
                    "name": "F5",
                    "midi": 77,
                    "time": 830.9958333333351,
                    "velocity": 0.1968503937007874,
                    "duration": 0.035416666666606034
                },
                {
                    "name": "F4",
                    "midi": 65,
                    "time": 831.0687500000017,
                    "velocity": 0.8346456692913385,
                    "duration": 0.11874999999997726
                },
                {
                    "name": "C#5",
                    "midi": 73,
                    "time": 831.070833333335,
                    "velocity": 0.9291338582677166,
                    "duration": 0.12083333333339397
                },
                {
                    "name": "B4",
                    "midi": 71,
                    "time": 831.0729166666683,
                    "velocity": 0.84251968503937,
                    "duration": 0.12291666666681067
                },
                {
                    "name": "A5",
                    "midi": 81,
                    "time": 831.1687500000016,
                    "velocity": 0.84251968503937,
                    "duration": 0.09791666666683341
                },
                {
                    "name": "F5",
                    "midi": 77,
                    "time": 831.1729166666684,
                    "velocity": 0.8582677165354331,
                    "duration": 0.24791666666681067
                },
                {
                    "name": "B5",
                    "midi": 83,
                    "time": 831.2583333333351,
                    "velocity": 0.6062992125984252,
                    "duration": 0.14791666666667425
                },
                {
                    "name": "C#5",
                    "midi": 73,
                    "time": 831.3229166666684,
                    "velocity": 0.8503937007874016,
                    "duration": 0.08958333333339397
                },
                {
                    "name": "G#5",
                    "midi": 80,
                    "time": 831.3312500000018,
                    "velocity": 0.49606299212598426,
                    "duration": 0.08750000000009095
                },
                {
                    "name": "F6",
                    "midi": 89,
                    "time": 831.4583333333352,
                    "velocity": 0.984251968503937,
                    "duration": 0.05833333333328028
                },
                {
                    "name": "A5",
                    "midi": 81,
                    "time": 831.5729166666684,
                    "velocity": 0.6850393700787402,
                    "duration": 0.16458333333343944
                },
                {
                    "name": "F5",
                    "midi": 77,
                    "time": 831.5770833333352,
                    "velocity": 0.5196850393700787,
                    "duration": 0.22916666666674246
                },
                {
                    "name": "G#5",
                    "midi": 80,
                    "time": 831.5833333333352,
                    "velocity": 0.47244094488188976,
                    "duration": 0.10000000000002274
                },
                {
                    "name": "E5",
                    "midi": 76,
                    "time": 831.5916666666685,
                    "velocity": 0.5354330708661418,
                    "duration": 0.04583333333334849
                },
                {
                    "name": "C#6",
                    "midi": 85,
                    "time": 831.6625000000018,
                    "velocity": 0.8582677165354331,
                    "duration": 0.13333333333343944
                },
                {
                    "name": "C#5",
                    "midi": 73,
                    "time": 831.7895833333353,
                    "velocity": 0.952755905511811,
                    "duration": 0.039583333333325754
                },
                {
                    "name": "C#4",
                    "midi": 61,
                    "time": 831.7979166666686,
                    "velocity": 0.84251968503937,
                    "duration": 0.05833333333328028
                },
                {
                    "name": "C#5",
                    "midi": 73,
                    "time": 831.9062500000018,
                    "velocity": 0.8267716535433071,
                    "duration": 0.07083333333343944
                },
                {
                    "name": "A5",
                    "midi": 81,
                    "time": 831.9104166666685,
                    "velocity": 0.7322834645669292,
                    "duration": 0.07291666666674246
                },
                {
                    "name": "F5",
                    "midi": 77,
                    "time": 831.9145833333353,
                    "velocity": 0.6614173228346457,
                    "duration": 0.043750000000045475
                },
                {
                    "name": "F#1",
                    "midi": 30,
                    "time": 832.1979166666687,
                    "velocity": 0.8267716535433071,
                    "duration": 0.09791666666671972
                },
                {
                    "name": "A#4",
                    "midi": 70,
                    "time": 832.1979166666687,
                    "velocity": 0.9291338582677166,
                    "duration": 0.11250000000006821
                },
                {
                    "name": "F#4",
                    "midi": 66,
                    "time": 832.2020833333354,
                    "velocity": 0.9448818897637795,
                    "duration": 0.07916666666665151
                },
                {
                    "name": "F#2",
                    "midi": 42,
                    "time": 832.2020833333354,
                    "velocity": 0.937007874015748,
                    "duration": 0.11874999999997726
                },
                {
                    "name": "C#4",
                    "midi": 61,
                    "time": 832.2041666666687,
                    "velocity": 0.968503937007874,
                    "duration": 0.05000000000006821
                },
                {
                    "name": "C#5",
                    "midi": 73,
                    "time": 832.4604166666687,
                    "velocity": 0.8267716535433071,
                    "duration": 0.08958333333339397
                },
                {
                    "name": "A#5",
                    "midi": 82,
                    "time": 832.462500000002,
                    "velocity": 0.7874015748031497,
                    "duration": 0.13750000000004547
                },
                {
                    "name": "F#5",
                    "midi": 78,
                    "time": 832.4666666666687,
                    "velocity": 0.7480314960629921,
                    "duration": 0.10208333333332575
                },
                {
                    "name": "B5",
                    "midi": 83,
                    "time": 832.5833333333354,
                    "velocity": 0.7637795275590551,
                    "duration": 0.125
                },
                {
                    "name": "F#6",
                    "midi": 90,
                    "time": 832.6854166666687,
                    "velocity": 1,
                    "duration": 0.05624999999997726
                },
                {
                    "name": "F#5",
                    "midi": 78,
                    "time": 832.7916666666687,
                    "velocity": 0.8503937007874016,
                    "duration": 0.08125000000006821
                },
                {
                    "name": "A#5",
                    "midi": 82,
                    "time": 832.806250000002,
                    "velocity": 0.7637795275590551,
                    "duration": 0.1270833333334167
                },
                {
                    "name": "C#6",
                    "midi": 85,
                    "time": 832.8875000000021,
                    "velocity": 0.8503937007874016,
                    "duration": 0.11666666666678793
                },
                {
                    "name": "A#4",
                    "midi": 70,
                    "time": 832.9937500000021,
                    "velocity": 0.8661417322834646,
                    "duration": 0.0645833333334167
                },
                {
                    "name": "C#4",
                    "midi": 61,
                    "time": 833.0000000000022,
                    "velocity": 0.889763779527559,
                    "duration": 0.08750000000009095
                },
                {
                    "name": "G#4",
                    "midi": 68,
                    "time": 833.0083333333356,
                    "velocity": 0.7401574803149606,
                    "duration": 0.03333333333330302
                },
                {
                    "name": "A#5",
                    "midi": 82,
                    "time": 833.1000000000023,
                    "velocity": 0.8110236220472441,
                    "duration": 0.11250000000006821
                },
                {
                    "name": "F#5",
                    "midi": 78,
                    "time": 833.1000000000023,
                    "velocity": 0.8346456692913385,
                    "duration": 0.08750000000009095
                },
                {
                    "name": "C#5",
                    "midi": 73,
                    "time": 833.1083333333356,
                    "velocity": 0.7952755905511811,
                    "duration": 0.03541666666671972
                },
                {
                    "name": "F#4",
                    "midi": 66,
                    "time": 833.2312500000023,
                    "velocity": 0.968503937007874,
                    "duration": 0.12708333333330302
                },
                {
                    "name": "A#4",
                    "midi": 70,
                    "time": 833.2312500000023,
                    "velocity": 0.952755905511811,
                    "duration": 0.09583333333330302
                },
                {
                    "name": "F#5",
                    "midi": 78,
                    "time": 833.3333333333356,
                    "velocity": 0.9133858267716536,
                    "duration": 0.16666666666662877
                },
                {
                    "name": "C#5",
                    "midi": 73,
                    "time": 833.3395833333357,
                    "velocity": 0.9133858267716536,
                    "duration": 0.09999999999990905
                },
                {
                    "name": "A#5",
                    "midi": 82,
                    "time": 833.3395833333357,
                    "velocity": 0.7874015748031497,
                    "duration": 0.18333333333328028
                },
                {
                    "name": "C#6",
                    "midi": 85,
                    "time": 833.4541666666689,
                    "velocity": 0.937007874015748,
                    "duration": 0.08749999999997726
                },
                {
                    "name": "F#2",
                    "midi": 42,
                    "time": 833.7645833333356,
                    "velocity": 0.9291338582677166,
                    "duration": 0.06041666666669698
                },
                {
                    "name": "A#4",
                    "midi": 70,
                    "time": 833.7687500000023,
                    "velocity": 0.889763779527559,
                    "duration": 0.08333333333325754
                },
                {
                    "name": "F#1",
                    "midi": 30,
                    "time": 833.7708333333356,
                    "velocity": 0.905511811023622,
                    "duration": 0.07291666666662877
                },
                {
                    "name": "A#3",
                    "midi": 58,
                    "time": 833.7708333333356,
                    "velocity": 0.9133858267716536,
                    "duration": 0.04583333333334849
                },
                {
                    "name": "G1",
                    "midi": 31,
                    "time": 833.9270833333356,
                    "velocity": 0.7244094488188977,
                    "duration": 0.0645833333334167
                },
                {
                    "name": "B4",
                    "midi": 71,
                    "time": 833.9270833333356,
                    "velocity": 0.7086614173228346,
                    "duration": 0.05000000000006821
                },
                {
                    "name": "B3",
                    "midi": 59,
                    "time": 833.9270833333356,
                    "velocity": 0.8818897637795275,
                    "duration": 0.033333333333416704
                },
                {
                    "name": "G2",
                    "midi": 43,
                    "time": 833.9312500000024,
                    "velocity": 0.8346456692913385,
                    "duration": 0.058333333333393966
                },
                {
                    "name": "A4",
                    "midi": 69,
                    "time": 833.941666666669,
                    "velocity": 0.6062992125984252,
                    "duration": 0.05000000000006821
                },
                {
                    "name": "A1",
                    "midi": 33,
                    "time": 833.954166666669,
                    "velocity": 0.4330708661417323,
                    "duration": 0.04791666666665151
                },
                {
                    "name": "G#4",
                    "midi": 68,
                    "time": 833.9625000000024,
                    "velocity": 0.2992125984251969,
                    "duration": 0.03750000000002274
                },
                {
                    "name": "C4",
                    "midi": 60,
                    "time": 834.0562500000024,
                    "velocity": 0.8346456692913385,
                    "duration": 0.03750000000002274
                },
                {
                    "name": "C5",
                    "midi": 72,
                    "time": 834.0583333333357,
                    "velocity": 0.7716535433070866,
                    "duration": 0.05416666666678793
                },
                {
                    "name": "B4",
                    "midi": 71,
                    "time": 834.0645833333357,
                    "velocity": 0.7401574803149606,
                    "duration": 0.033333333333416704
                },
                {
                    "name": "G#1",
                    "midi": 32,
                    "time": 834.079166666669,
                    "velocity": 0.9133858267716536,
                    "duration": 0.09375000000011369
                },
                {
                    "name": "G#2",
                    "midi": 44,
                    "time": 834.0812500000023,
                    "velocity": 0.9763779527559056,
                    "duration": 0.06875000000013642
                },
                {
                    "name": "A#4",
                    "midi": 70,
                    "time": 834.2708333333359,
                    "velocity": 0.889763779527559,
                    "duration": 0.02083333333337123
                },
                {
                    "name": "A1",
                    "midi": 33,
                    "time": 834.2729166666692,
                    "velocity": 0.9133858267716536,
                    "duration": 0.06458333333353039
                },
                {
                    "name": "A2",
                    "midi": 45,
                    "time": 834.2791666666692,
                    "velocity": 0.952755905511811,
                    "duration": 0.06666666666683341
                },
                {
                    "name": "C#5",
                    "midi": 73,
                    "time": 834.2854166666692,
                    "velocity": 0.9448818897637795,
                    "duration": 0.17708333333337123
                },
                {
                    "name": "C#4",
                    "midi": 61,
                    "time": 834.2854166666692,
                    "velocity": 0.9921259842519685,
                    "duration": 0.05833333333350765
                },
                {
                    "name": "A#1",
                    "midi": 34,
                    "time": 834.2916666666692,
                    "velocity": 0.8188976377952756,
                    "duration": 0.02500000000009095
                },
                {
                    "name": "A4",
                    "midi": 69,
                    "time": 834.295833333336,
                    "velocity": 0.8818897637795275,
                    "duration": 0.10833333333334849
                },
                {
                    "name": "C#4",
                    "midi": 61,
                    "time": 834.4104166666693,
                    "velocity": 0.8346456692913385,
                    "duration": 0.049999999999954525
                },
                {
                    "name": "D4",
                    "midi": 62,
                    "time": 834.4604166666693,
                    "velocity": 0.6141732283464567,
                    "duration": 0.035416666666606034
                },
                {
                    "name": "D5",
                    "midi": 74,
                    "time": 834.5354166666692,
                    "velocity": 0.8582677165354331,
                    "duration": 0.06666666666671972
                },
                {
                    "name": "D4",
                    "midi": 62,
                    "time": 834.608333333336,
                    "velocity": 0.8740157480314961,
                    "duration": 0.06875000000002274
                },
                {
                    "name": "E5",
                    "midi": 76,
                    "time": 834.7895833333359,
                    "velocity": 0.9291338582677166,
                    "duration": 0.043750000000045475
                },
                {
                    "name": "C#5",
                    "midi": 73,
                    "time": 834.7937500000027,
                    "velocity": 0.9448818897637795,
                    "duration": 0.049999999999954525
                },
                {
                    "name": "A6",
                    "midi": 93,
                    "time": 835.1020833333359,
                    "velocity": 0.8346456692913385,
                    "duration": 0.09583333333330302
                },
                {
                    "name": "E3",
                    "midi": 52,
                    "time": 835.1104166666693,
                    "velocity": 0.9448818897637795,
                    "duration": 0.17916666666667425
                },
                {
                    "name": "E4",
                    "midi": 64,
                    "time": 835.114583333336,
                    "velocity": 0.8503937007874016,
                    "duration": 0.18333333333328028
                },
                {
                    "name": "C#7",
                    "midi": 97,
                    "time": 835.1250000000026,
                    "velocity": 0.6535433070866141,
                    "duration": 0.09375
                },
                {
                    "name": "C#4",
                    "midi": 61,
                    "time": 835.1250000000026,
                    "velocity": 0.7952755905511811,
                    "duration": 0.03125
                },
                {
                    "name": "E7",
                    "midi": 100,
                    "time": 835.1291666666693,
                    "velocity": 0.6456692913385826,
                    "duration": 0.07916666666653782
                },
                {
                    "name": "E6",
                    "midi": 88,
                    "time": 835.2125000000026,
                    "velocity": 0.6850393700787402,
                    "duration": 0.04583333333334849
                },
                {
                    "name": "E6",
                    "midi": 88,
                    "time": 835.358333333336,
                    "velocity": 0.8740157480314961,
                    "duration": 0.0770833333332348
                },
                {
                    "name": "C#6",
                    "midi": 85,
                    "time": 835.358333333336,
                    "velocity": 0.8661417322834646,
                    "duration": 0.11666666666656056
                },
                {
                    "name": "A5",
                    "midi": 81,
                    "time": 835.3687500000026,
                    "velocity": 0.7401574803149606,
                    "duration": 0.11041666666665151
                },
                {
                    "name": "A#5",
                    "midi": 82,
                    "time": 835.3854166666692,
                    "velocity": 0.6220472440944882,
                    "duration": 0.04166666666662877
                },
                {
                    "name": "E5",
                    "midi": 76,
                    "time": 835.4479166666692,
                    "velocity": 0.8346456692913385,
                    "duration": 0.06041666666669698
                },
                {
                    "name": "F#4",
                    "midi": 66,
                    "time": 835.5708333333359,
                    "velocity": 0.937007874015748,
                    "duration": 0.020833333333257542
                },
                {
                    "name": "F#3",
                    "midi": 54,
                    "time": 835.5729166666692,
                    "velocity": 0.9133858267716536,
                    "duration": 0.0770833333332348
                },
                {
                    "name": "E5",
                    "midi": 76,
                    "time": 835.6104166666692,
                    "velocity": 0.5905511811023622,
                    "duration": 0.06875000000002274
                },
                {
                    "name": "C#5",
                    "midi": 73,
                    "time": 835.6229166666692,
                    "velocity": 0.5669291338582677,
                    "duration": 0.07291666666674246
                },
                {
                    "name": "A4",
                    "midi": 69,
                    "time": 835.6333333333358,
                    "velocity": 0.6456692913385826,
                    "duration": 0.09375000000011369
                },
                {
                    "name": "F#4",
                    "midi": 66,
                    "time": 835.6416666666692,
                    "velocity": 0.4645669291338583,
                    "duration": 0.07291666666674246
                },
                {
                    "name": "D4",
                    "midi": 62,
                    "time": 835.6833333333359,
                    "velocity": 0.8740157480314961,
                    "duration": 0.0625
                },
                {
                    "name": "G#4",
                    "midi": 68,
                    "time": 835.8458333333359,
                    "velocity": 0.9133858267716536,
                    "duration": 0.10416666666674246
                },
                {
                    "name": "G#3",
                    "midi": 56,
                    "time": 835.8500000000026,
                    "velocity": 1,
                    "duration": 0.06458333333330302
                },
                {
                    "name": "C#4",
                    "midi": 61,
                    "time": 835.889583333336,
                    "velocity": 0.33070866141732286,
                    "duration": 0.035416666666606034
                },
                {
                    "name": "E3",
                    "midi": 52,
                    "time": 835.9541666666694,
                    "velocity": 0.9212598425196851,
                    "duration": 0.21458333333350765
                },
                {
                    "name": "C#3",
                    "midi": 49,
                    "time": 836.102083333336,
                    "velocity": 0.9291338582677166,
                    "duration": 0.1583333333335304
                },
                {
                    "name": "A3",
                    "midi": 57,
                    "time": 836.1062500000028,
                    "velocity": 0.9448818897637795,
                    "duration": 0.06250000000011369
                },
                {
                    "name": "A4",
                    "midi": 69,
                    "time": 836.1104166666695,
                    "velocity": 0.8346456692913385,
                    "duration": 0.06666666666671972
                },
                {
                    "name": "G4",
                    "midi": 67,
                    "time": 836.1229166666695,
                    "velocity": 0.8110236220472441,
                    "duration": 0.039583333333325754
                },
                {
                    "name": "F#4",
                    "midi": 66,
                    "time": 836.1250000000028,
                    "velocity": 0.7086614173228346,
                    "duration": 0.03125
                },
                {
                    "name": "C3",
                    "midi": 48,
                    "time": 836.1916666666696,
                    "velocity": 0.05511811023622047,
                    "duration": 0.07500000000004547
                },
                {
                    "name": "A2",
                    "midi": 45,
                    "time": 836.2229166666696,
                    "velocity": 0.8346456692913385,
                    "duration": 0.11458333333337123
                },
                {
                    "name": "A#2",
                    "midi": 46,
                    "time": 836.2604166666696,
                    "velocity": 0.49606299212598426,
                    "duration": 0.04166666666674246
                },
                {
                    "name": "G#4",
                    "midi": 68,
                    "time": 836.287500000003,
                    "velocity": 0.4566929133858268,
                    "duration": 0.04791666666665151
                },
                {
                    "name": "B4",
                    "midi": 71,
                    "time": 836.4250000000029,
                    "velocity": 0.8740157480314961,
                    "duration": 0.10208333333321207
                },
                {
                    "name": "D#4",
                    "midi": 63,
                    "time": 836.4250000000029,
                    "velocity": 0.9133858267716536,
                    "duration": 0.06249999999988631
                },
                {
                    "name": "A4",
                    "midi": 69,
                    "time": 836.4270833333362,
                    "velocity": 0.8031496062992126,
                    "duration": 0.10624999999993179
                },
                {
                    "name": "B3",
                    "midi": 59,
                    "time": 836.4291666666695,
                    "velocity": 0.8346456692913385,
                    "duration": 0.05833333333328028
                },
                {
                    "name": "B1",
                    "midi": 35,
                    "time": 836.4375000000028,
                    "velocity": 1,
                    "duration": 0.0916666666665833
                },
                {
                    "name": "C4",
                    "midi": 60,
                    "time": 836.4395833333361,
                    "velocity": 0.8346456692913385,
                    "duration": 0.029166666666696983
                },
                {
                    "name": "B5",
                    "midi": 83,
                    "time": 836.7041666666695,
                    "velocity": 0.7637795275590551,
                    "duration": 0.17708333333325754
                },
                {
                    "name": "F#5",
                    "midi": 78,
                    "time": 836.7125000000028,
                    "velocity": 0.8188976377952756,
                    "duration": 0.07708333333334849
                },
                {
                    "name": "C#6",
                    "midi": 85,
                    "time": 836.8208333333362,
                    "velocity": 0.8110236220472441,
                    "duration": 0.19791666666651508
                },
                {
                    "name": "D#5",
                    "midi": 75,
                    "time": 836.8312500000028,
                    "velocity": 0.84251968503937,
                    "duration": 0.09791666666660603
                },
                {
                    "name": "F#6",
                    "midi": 90,
                    "time": 836.939583333336,
                    "velocity": 1,
                    "duration": 0.06458333333330302
                },
                {
                    "name": "B5",
                    "midi": 83,
                    "time": 837.0750000000027,
                    "velocity": 0.6692913385826772,
                    "duration": 0.14583333333337123
                },
                {
                    "name": "F#5",
                    "midi": 78,
                    "time": 837.0750000000027,
                    "velocity": 0.7952755905511811,
                    "duration": 0.10625000000004547
                },
                {
                    "name": "D#6",
                    "midi": 87,
                    "time": 837.1604166666693,
                    "velocity": 0.8110236220472441,
                    "duration": 0.10625000000004547
                },
                {
                    "name": "B3",
                    "midi": 59,
                    "time": 837.258333333336,
                    "velocity": 0.9212598425196851,
                    "duration": 0.06666666666671972
                },
                {
                    "name": "B4",
                    "midi": 71,
                    "time": 837.2625000000028,
                    "velocity": 0.8503937007874016,
                    "duration": 0.05624999999997726
                },
                {
                    "name": "A4",
                    "midi": 69,
                    "time": 837.2645833333361,
                    "velocity": 0.8188976377952756,
                    "duration": 0.049999999999954525
                },
                {
                    "name": "F#5",
                    "midi": 78,
                    "time": 837.3625000000028,
                    "velocity": 0.7716535433070866,
                    "duration": 0.07291666666674246
                },
                {
                    "name": "B5",
                    "midi": 83,
                    "time": 837.3687500000028,
                    "velocity": 0.6456692913385826,
                    "duration": 0.10625000000004547
                },
                {
                    "name": "D#4",
                    "midi": 63,
                    "time": 837.4729166666696,
                    "velocity": 0.984251968503937,
                    "duration": 0.07500000000004547
                },
                {
                    "name": "B4",
                    "midi": 71,
                    "time": 837.4750000000029,
                    "velocity": 0.9133858267716536,
                    "duration": 0.0791666666667652
                },
                {
                    "name": "A4",
                    "midi": 69,
                    "time": 837.4791666666696,
                    "velocity": 0.8740157480314961,
                    "duration": 0.06458333333330302
                },
                {
                    "name": "B5",
                    "midi": 83,
                    "time": 837.5916666666697,
                    "velocity": 0.6535433070866141,
                    "duration": 0.16458333333332575
                },
                {
                    "name": "F#5",
                    "midi": 78,
                    "time": 837.5979166666697,
                    "velocity": 0.7559055118110236,
                    "duration": 0.17708333333325754
                },
                {
                    "name": "C#6",
                    "midi": 85,
                    "time": 837.7020833333363,
                    "velocity": 0.8503937007874016,
                    "duration": 0.1895833333334167
                },
                {
                    "name": "D#5",
                    "midi": 75,
                    "time": 837.7229166666697,
                    "velocity": 0.7874015748031497,
                    "duration": 0.12291666666669698
                },
                {
                    "name": "F#6",
                    "midi": 90,
                    "time": 837.8416666666697,
                    "velocity": 0.937007874015748,
                    "duration": 0.05625000000009095
                },
                {
                    "name": "F#5",
                    "midi": 78,
                    "time": 837.931250000003,
                    "velocity": 0.7559055118110236,
                    "duration": 0.14999999999997726
                },
                {
                    "name": "B5",
                    "midi": 83,
                    "time": 837.9458333333364,
                    "velocity": 0.5748031496062992,
                    "duration": 0.16666666666662877
                },
                {
                    "name": "D#6",
                    "midi": 87,
                    "time": 838.0270833333363,
                    "velocity": 0.84251968503937,
                    "duration": 0.13541666666662877
                },
                {
                    "name": "B4",
                    "midi": 71,
                    "time": 838.1895833333363,
                    "velocity": 0.889763779527559,
                    "duration": 0.05208333333337123
                },
                {
                    "name": "A4",
                    "midi": 69,
                    "time": 838.1916666666696,
                    "velocity": 0.8740157480314961,
                    "duration": 0.03958333333343944
                },
                {
                    "name": "D#4",
                    "midi": 63,
                    "time": 838.1958333333363,
                    "velocity": 0.8976377952755905,
                    "duration": 0.043750000000045475
                },
                {
                    "name": "B3",
                    "midi": 59,
                    "time": 838.1958333333363,
                    "velocity": 0.8818897637795275,
                    "duration": 0.054166666666674246
                },
                {
                    "name": "B5",
                    "midi": 83,
                    "time": 838.2791666666697,
                    "velocity": 0.6614173228346457,
                    "duration": 0.054166666666674246
                },
                {
                    "name": "F#5",
                    "midi": 78,
                    "time": 838.2791666666697,
                    "velocity": 0.6929133858267716,
                    "duration": 0.06875000000002274
                },
                {
                    "name": "D#5",
                    "midi": 75,
                    "time": 838.281250000003,
                    "velocity": 0.8267716535433071,
                    "duration": 0.07500000000004547
                },
                {
                    "name": "E2",
                    "midi": 40,
                    "time": 838.5458333333364,
                    "velocity": 0.9133858267716536,
                    "duration": 0.06250000000011369
                },
                {
                    "name": "C5",
                    "midi": 72,
                    "time": 838.5500000000031,
                    "velocity": 0.9763779527559056,
                    "duration": 0.09166666666681067
                },
                {
                    "name": "E3",
                    "midi": 52,
                    "time": 838.5541666666699,
                    "velocity": 0.9212598425196851,
                    "duration": 0.08125000000006821
                },
                {
                    "name": "G#4",
                    "midi": 68,
                    "time": 838.5562500000032,
                    "velocity": 0.905511811023622,
                    "duration": 0.058333333333393966
                },
                {
                    "name": "D4",
                    "midi": 62,
                    "time": 838.5604166666699,
                    "velocity": 0.9212598425196851,
                    "duration": 0.04166666666662877
                },
                {
                    "name": "E4",
                    "midi": 64,
                    "time": 838.5625000000032,
                    "velocity": 0.8818897637795275,
                    "duration": 0.03125
                },
                {
                    "name": "C6",
                    "midi": 84,
                    "time": 838.8166666666699,
                    "velocity": 0.8031496062992126,
                    "duration": 0.14374999999995453
                },
                {
                    "name": "G#5",
                    "midi": 80,
                    "time": 838.8208333333366,
                    "velocity": 0.8267716535433071,
                    "duration": 0.21249999999986358
                },
                {
                    "name": "D6",
                    "midi": 86,
                    "time": 838.9104166666699,
                    "velocity": 0.7559055118110236,
                    "duration": 0.18958333333318933
                },
                {
                    "name": "G#6",
                    "midi": 92,
                    "time": 839.0187500000031,
                    "velocity": 1,
                    "duration": 0.054166666666674246
                },
                {
                    "name": "C6",
                    "midi": 84,
                    "time": 839.1375000000031,
                    "velocity": 0.8031496062992126,
                    "duration": 0.15000000000020464
                },
                {
                    "name": "G#5",
                    "midi": 80,
                    "time": 839.1416666666698,
                    "velocity": 0.7401574803149606,
                    "duration": 0.11666666666678793
                },
                {
                    "name": "D#6",
                    "midi": 87,
                    "time": 839.2479166666699,
                    "velocity": 0.6220472440944882,
                    "duration": 0.07500000000015916
                },
                {
                    "name": "E6",
                    "midi": 88,
                    "time": 839.2520833333366,
                    "velocity": 0.5590551181102362,
                    "duration": 0.03958333333343944
                },
                {
                    "name": "E4",
                    "midi": 64,
                    "time": 839.3395833333367,
                    "velocity": 0.7716535433070866,
                    "duration": 0.06458333333318933
                },
                {
                    "name": "E5",
                    "midi": 76,
                    "time": 839.3395833333367,
                    "velocity": 0.9448818897637795,
                    "duration": 0.056249999999863576
                },
                {
                    "name": "D5",
                    "midi": 74,
                    "time": 839.34791666667,
                    "velocity": 0.8503937007874016,
                    "duration": 0.029166666666583296
                },
                {
                    "name": "F4",
                    "midi": 65,
                    "time": 839.3500000000033,
                    "velocity": 0.8188976377952756,
                    "duration": 0.035416666666606034
                },
                {
                    "name": "C6",
                    "midi": 84,
                    "time": 839.4750000000032,
                    "velocity": 0.84251968503937,
                    "duration": 0.07916666666665151
                },
                {
                    "name": "G#5",
                    "midi": 80,
                    "time": 839.4895833333366,
                    "velocity": 0.7165354330708661,
                    "duration": 0.03333333333330302
                },
                {
                    "name": "G#4",
                    "midi": 68,
                    "time": 839.5750000000032,
                    "velocity": 1,
                    "duration": 0.07083333333343944
                },
                {
                    "name": "E5",
                    "midi": 76,
                    "time": 839.57916666667,
                    "velocity": 0.984251968503937,
                    "duration": 0.0625
                },
                {
                    "name": "D5",
                    "midi": 74,
                    "time": 839.57916666667,
                    "velocity": 0.9212598425196851,
                    "duration": 0.05833333333328028
                },
                {
                    "name": "C6",
                    "midi": 84,
                    "time": 839.6770833333367,
                    "velocity": 0.84251968503937,
                    "duration": 0.22708333333332575
                },
                {
                    "name": "G#5",
                    "midi": 80,
                    "time": 839.6812500000034,
                    "velocity": 0.8976377952755905,
                    "duration": 0.19166666666660603
                },
                {
                    "name": "D6",
                    "midi": 86,
                    "time": 839.7875000000034,
                    "velocity": 0.8031496062992126,
                    "duration": 0.20624999999984084
                },
                {
                    "name": "E5",
                    "midi": 76,
                    "time": 839.8145833333367,
                    "velocity": 0.5905511811023622,
                    "duration": 0.11458333333325754
                },
                {
                    "name": "F5",
                    "midi": 77,
                    "time": 839.81666666667,
                    "velocity": 0.5984251968503937,
                    "duration": 0.11458333333325754
                },
                {
                    "name": "G#6",
                    "midi": 92,
                    "time": 839.92291666667,
                    "velocity": 0.9921259842519685,
                    "duration": 0.054166666666674246
                },
                {
                    "name": "F#6",
                    "midi": 90,
                    "time": 839.9375000000033,
                    "velocity": 0.8267716535433071,
                    "duration": 0.05833333333328028
                },
                {
                    "name": "G#5",
                    "midi": 80,
                    "time": 840.0312500000033,
                    "velocity": 0.7952755905511811,
                    "duration": 0.16666666666674246
                },
                {
                    "name": "C6",
                    "midi": 84,
                    "time": 840.0375000000033,
                    "velocity": 0.8031496062992126,
                    "duration": 0.16458333333343944
                },
                {
                    "name": "F5",
                    "midi": 77,
                    "time": 840.0708333333366,
                    "velocity": 0.36220472440944884,
                    "duration": 0.1250000000001137
                },
                {
                    "name": "E5",
                    "midi": 76,
                    "time": 840.0750000000033,
                    "velocity": 0.33070866141732286,
                    "duration": 0.11666666666667425
                },
                {
                    "name": "E6",
                    "midi": 88,
                    "time": 840.11666666667,
                    "velocity": 0.6850393700787402,
                    "duration": 0.18333333333362134
                },
                {
                    "name": "D5",
                    "midi": 74,
                    "time": 840.2687500000035,
                    "velocity": 0.9212598425196851,
                    "duration": 0.058333333333393966
                },
                {
                    "name": "G#4",
                    "midi": 68,
                    "time": 840.2729166666702,
                    "velocity": 0.905511811023622,
                    "duration": 0.05833333333328028
                },
                {
                    "name": "E4",
                    "midi": 64,
                    "time": 840.2770833333369,
                    "velocity": 0.8346456692913385,
                    "duration": 0.06458333333318933
                },
                {
                    "name": "E5",
                    "midi": 76,
                    "time": 840.2770833333369,
                    "velocity": 0.9448818897637795,
                    "duration": 0.024999999999977263
                },
                {
                    "name": "D4",
                    "midi": 62,
                    "time": 840.2770833333369,
                    "velocity": 0.8110236220472441,
                    "duration": 0.06458333333318933
                },
                {
                    "name": "C5",
                    "midi": 72,
                    "time": 840.2916666666703,
                    "velocity": 0.5905511811023622,
                    "duration": 0.03749999999990905
                },
                {
                    "name": "C6",
                    "midi": 84,
                    "time": 840.3979166666701,
                    "velocity": 0.8188976377952756,
                    "duration": 0.07291666666662877
                },
                {
                    "name": "G#5",
                    "midi": 80,
                    "time": 840.4000000000034,
                    "velocity": 0.8267716535433071,
                    "duration": 0.06875000000002274
                },
                {
                    "name": "C#5",
                    "midi": 73,
                    "time": 840.7437500000034,
                    "velocity": 0.952755905511811,
                    "duration": 0.16041666666671972
                },
                {
                    "name": "A4",
                    "midi": 69,
                    "time": 840.7437500000034,
                    "velocity": 0.8976377952755905,
                    "duration": 0.13125000000002274
                },
                {
                    "name": "A1",
                    "midi": 33,
                    "time": 840.7458333333367,
                    "velocity": 0.8976377952755905,
                    "duration": 0.19583333333343944
                },
                {
                    "name": "E4",
                    "midi": 64,
                    "time": 840.7458333333367,
                    "velocity": 0.9606299212598425,
                    "duration": 0.10833333333334849
                },
                {
                    "name": "A2",
                    "midi": 45,
                    "time": 840.74791666667,
                    "velocity": 0.8976377952755905,
                    "duration": 0.24583333333350765
                },
                {
                    "name": "C#6",
                    "midi": 85,
                    "time": 841.0395833333369,
                    "velocity": 0.8267716535433071,
                    "duration": 0.15000000000009095
                },
                {
                    "name": "A5",
                    "midi": 81,
                    "time": 841.0458333333369,
                    "velocity": 0.7795275590551181,
                    "duration": 0.19375000000002274
                },
                {
                    "name": "D6",
                    "midi": 86,
                    "time": 841.1541666666702,
                    "velocity": 0.7322834645669292,
                    "duration": 0.1875
                },
                {
                    "name": "A6",
                    "midi": 93,
                    "time": 841.2916666666703,
                    "velocity": 0.9291338582677166,
                    "duration": 0.049999999999954525
                },
                {
                    "name": "E5",
                    "midi": 76,
                    "time": 841.3958333333369,
                    "velocity": 0.6456692913385826,
                    "duration": 0.06875000000002274
                },
                {
                    "name": "A5",
                    "midi": 81,
                    "time": 841.3958333333369,
                    "velocity": 0.7007874015748031,
                    "duration": 0.11250000000006821
                },
                {
                    "name": "C#6",
                    "midi": 85,
                    "time": 841.4000000000036,
                    "velocity": 0.7716535433070866,
                    "duration": 0.16458333333332575
                },
                {
                    "name": "E6",
                    "midi": 88,
                    "time": 841.508333333337,
                    "velocity": 0.7086614173228346,
                    "duration": 0.11458333333337123
                },
                {
                    "name": "C#5",
                    "midi": 73,
                    "time": 841.5937500000036,
                    "velocity": 0.9763779527559056,
                    "duration": 0.08125000000006821
                },
                {
                    "name": "E4",
                    "midi": 64,
                    "time": 841.5979166666704,
                    "velocity": 0.8110236220472441,
                    "duration": 0.06041666666669698
                },
                {
                    "name": "C#6",
                    "midi": 85,
                    "time": 841.7041666666704,
                    "velocity": 0.8582677165354331,
                    "duration": 0.1416666666666515
                },
                {
                    "name": "A5",
                    "midi": 81,
                    "time": 841.7062500000037,
                    "velocity": 0.7795275590551181,
                    "duration": 0.10416666666662877
                },
                {
                    "name": "A4",
                    "midi": 69,
                    "time": 841.8520833333371,
                    "velocity": 0.8503937007874016,
                    "duration": 0.15416666666669698
                },
                {
                    "name": "E5",
                    "midi": 76,
                    "time": 841.8583333333371,
                    "velocity": 0.984251968503937,
                    "duration": 0.10833333333334849
                },
                {
                    "name": "C#6",
                    "midi": 85,
                    "time": 841.9729166666705,
                    "velocity": 0.9291338582677166,
                    "duration": 0.21875
                },
                {
                    "name": "A5",
                    "midi": 81,
                    "time": 841.9729166666705,
                    "velocity": 0.9212598425196851,
                    "duration": 0.20624999999995453
                },
                {
                    "name": "D6",
                    "midi": 86,
                    "time": 842.1062500000038,
                    "velocity": 0.8976377952755905,
                    "duration": 0.11249999999995453
                },
                {
                    "name": "E5",
                    "midi": 76,
                    "time": 842.1395833333371,
                    "velocity": 0.7716535433070866,
                    "duration": 0.07083333333332575
                },
                {
                    "name": "A4",
                    "midi": 69,
                    "time": 842.277083333337,
                    "velocity": 0.8503937007874016,
                    "duration": 0.058333333333393966
                },
                {
                    "name": "E4",
                    "midi": 64,
                    "time": 842.2812500000038,
                    "velocity": 0.889763779527559,
                    "duration": 0.07500000000004547
                },
                {
                    "name": "A1",
                    "midi": 33,
                    "time": 842.5916666666704,
                    "velocity": 0.8582677165354331,
                    "duration": 0.0916666666665833
                },
                {
                    "name": "A2",
                    "midi": 45,
                    "time": 842.5979166666705,
                    "velocity": 0.7795275590551181,
                    "duration": 0.06666666666660603
                },
                {
                    "name": "C#5",
                    "midi": 73,
                    "time": 842.6062500000038,
                    "velocity": 0.952755905511811,
                    "duration": 0.09374999999988631
                },
                {
                    "name": "G2",
                    "midi": 43,
                    "time": 842.6062500000038,
                    "velocity": 0.8582677165354331,
                    "duration": 0.03333333333330302
                },
                {
                    "name": "C#4",
                    "midi": 61,
                    "time": 842.6083333333371,
                    "velocity": 0.984251968503937,
                    "duration": 0.054166666666674246
                },
                {
                    "name": "D5",
                    "midi": 74,
                    "time": 842.8479166666704,
                    "velocity": 0.8818897637795275,
                    "duration": 0.0645833333334167
                },
                {
                    "name": "D4",
                    "midi": 62,
                    "time": 842.8520833333371,
                    "velocity": 0.84251968503937,
                    "duration": 0.03750000000002274
                },
                {
                    "name": "A#2",
                    "midi": 46,
                    "time": 842.8750000000038,
                    "velocity": 0.9763779527559056,
                    "duration": 0.0625
                },
                {
                    "name": "A#1",
                    "midi": 34,
                    "time": 842.877083333337,
                    "velocity": 0.9133858267716536,
                    "duration": 0.0645833333334167
                },
                {
                    "name": "B1",
                    "midi": 35,
                    "time": 843.0333333333372,
                    "velocity": 0.7086614173228346,
                    "duration": 0.06041666666669698
                },
                {
                    "name": "B2",
                    "midi": 47,
                    "time": 843.0333333333372,
                    "velocity": 0.7716535433070866,
                    "duration": 0.06875000000002274
                },
                {
                    "name": "D#5",
                    "midi": 75,
                    "time": 843.0333333333372,
                    "velocity": 0.9291338582677166,
                    "duration": 0.10000000000002274
                },
                {
                    "name": "D#4",
                    "midi": 63,
                    "time": 843.0354166666705,
                    "velocity": 0.9763779527559056,
                    "duration": 0.05625000000009095
                },
                {
                    "name": "C2",
                    "midi": 36,
                    "time": 843.2562500000039,
                    "velocity": 0.9448818897637795,
                    "duration": 0.05624999999997726
                },
                {
                    "name": "E5",
                    "midi": 76,
                    "time": 843.2625000000039,
                    "velocity": 0.8740157480314961,
                    "duration": 0.08958333333316659
                },
                {
                    "name": "C3",
                    "midi": 48,
                    "time": 843.2625000000039,
                    "velocity": 0.9921259842519685,
                    "duration": 0.060416666666583296
                },
                {
                    "name": "C5",
                    "midi": 72,
                    "time": 843.2645833333372,
                    "velocity": 0.8503937007874016,
                    "duration": 0.060416666666583296
                },
                {
                    "name": "E4",
                    "midi": 64,
                    "time": 843.2666666666705,
                    "velocity": 0.9133858267716536,
                    "duration": 0.05833333333328028
                },
                {
                    "name": "D4",
                    "midi": 62,
                    "time": 843.564583333337,
                    "velocity": 0.9291338582677166,
                    "duration": 0.05208333333337123
                },
                {
                    "name": "D3",
                    "midi": 50,
                    "time": 843.564583333337,
                    "velocity": 0.8110236220472441,
                    "duration": 0.05625000000009095
                },
                {
                    "name": "D5",
                    "midi": 74,
                    "time": 843.5687500000038,
                    "velocity": 0.8346456692913385,
                    "duration": 0.0625
                },
                {
                    "name": "F4",
                    "midi": 65,
                    "time": 843.5708333333371,
                    "velocity": 0.889763779527559,
                    "duration": 0.043750000000045475
                },
                {
                    "name": "F5",
                    "midi": 77,
                    "time": 843.5770833333371,
                    "velocity": 0.7874015748031497,
                    "duration": 0.03750000000002274
                },
                {
                    "name": "F3",
                    "midi": 53,
                    "time": 843.5791666666704,
                    "velocity": 0.7716535433070866,
                    "duration": 0.03125
                },
                {
                    "name": "G4",
                    "midi": 67,
                    "time": 843.8375000000037,
                    "velocity": 0.8818897637795275,
                    "duration": 0.05833333333316659
                },
                {
                    "name": "E5",
                    "midi": 76,
                    "time": 843.839583333337,
                    "velocity": 0.8503937007874016,
                    "duration": 0.02708333333328028
                },
                {
                    "name": "E4",
                    "midi": 64,
                    "time": 843.839583333337,
                    "velocity": 0.7086614173228346,
                    "duration": 0.03749999999990905
                },
                {
                    "name": "E3",
                    "midi": 52,
                    "time": 843.839583333337,
                    "velocity": 0.7637795275590551,
                    "duration": 0.03333333333318933
                },
                {
                    "name": "G5",
                    "midi": 79,
                    "time": 843.8416666666703,
                    "velocity": 0.8346456692913385,
                    "duration": 0.02708333333328028
                },
                {
                    "name": "G3",
                    "midi": 55,
                    "time": 843.8416666666703,
                    "velocity": 0.8346456692913385,
                    "duration": 0.029166666666583296
                },
                {
                    "name": "E2",
                    "midi": 40,
                    "time": 844.1479166666703,
                    "velocity": 0.889763779527559,
                    "duration": 0.23125000000004547
                },
                {
                    "name": "E3",
                    "midi": 52,
                    "time": 844.1541666666703,
                    "velocity": 0.8976377952755905,
                    "duration": 0.2333333333333485
                },
                {
                    "name": "G4",
                    "midi": 67,
                    "time": 844.1687500000037,
                    "velocity": 0.8818897637795275,
                    "duration": 0.20624999999995453
                },
                {
                    "name": "G3",
                    "midi": 55,
                    "time": 844.1729166666704,
                    "velocity": 0.9291338582677166,
                    "duration": 0.1999999999999318
                },
                {
                    "name": "E4",
                    "midi": 64,
                    "time": 844.1750000000037,
                    "velocity": 0.8740157480314961,
                    "duration": 0.22500000000002274
                },
                {
                    "name": "F4",
                    "midi": 65,
                    "time": 844.6416666666704,
                    "velocity": 0.889763779527559,
                    "duration": 0.060416666666583296
                },
                {
                    "name": "A3",
                    "midi": 57,
                    "time": 844.6437500000037,
                    "velocity": 0.9212598425196851,
                    "duration": 0.060416666666583296
                },
                {
                    "name": "F2",
                    "midi": 41,
                    "time": 844.645833333337,
                    "velocity": 0.889763779527559,
                    "duration": 0.0625
                },
                {
                    "name": "F3",
                    "midi": 53,
                    "time": 844.645833333337,
                    "velocity": 0.952755905511811,
                    "duration": 0.0625
                },
                {
                    "name": "A4",
                    "midi": 69,
                    "time": 844.6479166666703,
                    "velocity": 0.8346456692913385,
                    "duration": 0.08125000000006821
                },
                {
                    "name": "G2",
                    "midi": 43,
                    "time": 844.8875000000037,
                    "velocity": 0.889763779527559,
                    "duration": 0.07083333333332575
                },
                {
                    "name": "G3",
                    "midi": 55,
                    "time": 844.8916666666704,
                    "velocity": 0.8976377952755905,
                    "duration": 0.05416666666656056
                },
                {
                    "name": "G4",
                    "midi": 67,
                    "time": 844.8937500000037,
                    "velocity": 0.84251968503937,
                    "duration": 0.07083333333332575
                },
                {
                    "name": "B3",
                    "midi": 59,
                    "time": 844.8979166666704,
                    "velocity": 0.889763779527559,
                    "duration": 0.02708333333328028
                },
                {
                    "name": "B4",
                    "midi": 71,
                    "time": 844.9062500000038,
                    "velocity": 0.7165354330708661,
                    "duration": 0.03749999999990905
                },
                {
                    "name": "A2",
                    "midi": 45,
                    "time": 845.033333333337,
                    "velocity": 0.8346456692913385,
                    "duration": 0.03333333333330302
                },
                {
                    "name": "A3",
                    "midi": 57,
                    "time": 845.033333333337,
                    "velocity": 0.7952755905511811,
                    "duration": 0.03750000000002274
                },
                {
                    "name": "C4",
                    "midi": 60,
                    "time": 845.0354166666704,
                    "velocity": 0.7165354330708661,
                    "duration": 0.03750000000002274
                },
                {
                    "name": "A4",
                    "midi": 69,
                    "time": 845.052083333337,
                    "velocity": 0.4251968503937008,
                    "duration": 0.054166666666674246
                },
                {
                    "name": "C5",
                    "midi": 72,
                    "time": 845.052083333337,
                    "velocity": 0.4015748031496063,
                    "duration": 0.054166666666674246
                },
                {
                    "name": "B2",
                    "midi": 47,
                    "time": 845.1479166666704,
                    "velocity": 0.8110236220472441,
                    "duration": 0.054166666666674246
                },
                {
                    "name": "B3",
                    "midi": 59,
                    "time": 845.1500000000037,
                    "velocity": 0.8346456692913385,
                    "duration": 0.058333333333393966
                },
                {
                    "name": "B4",
                    "midi": 71,
                    "time": 845.1729166666704,
                    "velocity": 0.47244094488188976,
                    "duration": 0.04791666666665151
                },
                {
                    "name": "D4",
                    "midi": 62,
                    "time": 845.1750000000037,
                    "velocity": 0.5433070866141733,
                    "duration": 0.043750000000045475
                },
                {
                    "name": "D5",
                    "midi": 74,
                    "time": 845.1791666666704,
                    "velocity": 0.28346456692913385,
                    "duration": 0.039583333333325754
                },
                {
                    "name": "E4",
                    "midi": 64,
                    "time": 845.2937500000037,
                    "velocity": 0.8976377952755905,
                    "duration": 0.07083333333332575
                },
                {
                    "name": "C5",
                    "midi": 72,
                    "time": 845.295833333337,
                    "velocity": 0.8818897637795275,
                    "duration": 0.09791666666671972
                },
                {
                    "name": "E5",
                    "midi": 76,
                    "time": 845.2979166666703,
                    "velocity": 0.8582677165354331,
                    "duration": 0.1104166666667652
                },
                {
                    "name": "C4",
                    "midi": 60,
                    "time": 845.2979166666703,
                    "velocity": 0.984251968503937,
                    "duration": 0.05624999999997726
                },
                {
                    "name": "C3",
                    "midi": 48,
                    "time": 845.302083333337,
                    "velocity": 0.9448818897637795,
                    "duration": 0.05833333333328028
                },
                {
                    "name": "C#5",
                    "midi": 73,
                    "time": 845.3250000000037,
                    "velocity": 0.5905511811023622,
                    "duration": 0.031249999999886313
                },
                {
                    "name": "F4",
                    "midi": 65,
                    "time": 845.5458333333371,
                    "velocity": 0.84251968503937,
                    "duration": 0.04999999999984084
                },
                {
                    "name": "D3",
                    "midi": 50,
                    "time": 845.5479166666704,
                    "velocity": 0.84251968503937,
                    "duration": 0.056249999999863576
                },
                {
                    "name": "D5",
                    "midi": 74,
                    "time": 845.5479166666704,
                    "velocity": 0.84251968503937,
                    "duration": 0.07083333333321207
                },
                {
                    "name": "F5",
                    "midi": 77,
                    "time": 845.5500000000037,
                    "velocity": 0.7952755905511811,
                    "duration": 0.07291666666662877
                },
                {
                    "name": "D4",
                    "midi": 62,
                    "time": 845.552083333337,
                    "velocity": 0.8818897637795275,
                    "duration": 0.05624999999997726
                },
                {
                    "name": "G4",
                    "midi": 67,
                    "time": 845.5625000000036,
                    "velocity": 0.6535433070866141,
                    "duration": 0.039583333333325754
                },
                {
                    "name": "E3",
                    "midi": 52,
                    "time": 845.777083333337,
                    "velocity": 0.889763779527559,
                    "duration": 0.04166666666662877
                },
                {
                    "name": "E4",
                    "midi": 64,
                    "time": 845.7791666666703,
                    "velocity": 0.889763779527559,
                    "duration": 0.029166666666696983
                },
                {
                    "name": "E5",
                    "midi": 76,
                    "time": 845.783333333337,
                    "velocity": 0.8740157480314961,
                    "duration": 0.04166666666662877
                },
                {
                    "name": "G4",
                    "midi": 67,
                    "time": 845.7854166666704,
                    "velocity": 0.889763779527559,
                    "duration": 0.058333333333393966
                },
                {
                    "name": "G5",
                    "midi": 79,
                    "time": 845.7854166666704,
                    "velocity": 0.8188976377952756,
                    "duration": 0.03333333333330302
                },
                {
                    "name": "E3",
                    "midi": 52,
                    "time": 846.064583333337,
                    "velocity": 0.9763779527559056,
                    "duration": 0.06041666666669698
                },
                {
                    "name": "E2",
                    "midi": 40,
                    "time": 846.064583333337,
                    "velocity": 0.9606299212598425,
                    "duration": 0.06666666666671972
                },
                {
                    "name": "G4",
                    "midi": 67,
                    "time": 846.0729166666704,
                    "velocity": 0.8503937007874016,
                    "duration": 0.06666666666671972
                },
                {
                    "name": "G3",
                    "midi": 55,
                    "time": 846.0791666666704,
                    "velocity": 0.889763779527559,
                    "duration": 0.029166666666696983
                },
                {
                    "name": "E4",
                    "midi": 64,
                    "time": 846.0791666666704,
                    "velocity": 0.8346456692913385,
                    "duration": 0.043750000000045475
                },
                {
                    "name": "F3",
                    "midi": 53,
                    "time": 846.5229166666704,
                    "velocity": 0.9448818897637795,
                    "duration": 0.05208333333337123
                },
                {
                    "name": "F2",
                    "midi": 41,
                    "time": 846.5229166666704,
                    "velocity": 0.9212598425196851,
                    "duration": 0.05000000000006821
                },
                {
                    "name": "A3",
                    "midi": 57,
                    "time": 846.5270833333371,
                    "velocity": 0.8503937007874016,
                    "duration": 0.04791666666665151
                },
                {
                    "name": "F4",
                    "midi": 65,
                    "time": 846.5291666666704,
                    "velocity": 0.8188976377952756,
                    "duration": 0.03750000000002274
                },
                {
                    "name": "A4",
                    "midi": 69,
                    "time": 846.5312500000038,
                    "velocity": 0.7244094488188977,
                    "duration": 0.043750000000045475
                },
                {
                    "name": "G3",
                    "midi": 55,
                    "time": 846.7812500000038,
                    "velocity": 0.9212598425196851,
                    "duration": 0.05208333333337123
                },
                {
                    "name": "G2",
                    "midi": 43,
                    "time": 846.7812500000038,
                    "velocity": 0.9212598425196851,
                    "duration": 0.058333333333393966
                },
                {
                    "name": "B3",
                    "midi": 59,
                    "time": 846.783333333337,
                    "velocity": 0.8503937007874016,
                    "duration": 0.05416666666678793
                },
                {
                    "name": "G4",
                    "midi": 67,
                    "time": 846.7854166666704,
                    "velocity": 0.8503937007874016,
                    "duration": 0.043750000000045475
                },
                {
                    "name": "B4",
                    "midi": 71,
                    "time": 846.7875000000037,
                    "velocity": 0.7795275590551181,
                    "duration": 0.03333333333330302
                },
                {
                    "name": "A3",
                    "midi": 57,
                    "time": 846.9291666666704,
                    "velocity": 0.8740157480314961,
                    "duration": 0.03958333333321207
                },
                {
                    "name": "A2",
                    "midi": 45,
                    "time": 846.9291666666704,
                    "velocity": 0.84251968503937,
                    "duration": 0.035416666666606034
                },
                {
                    "name": "C4",
                    "midi": 60,
                    "time": 846.9312500000037,
                    "velocity": 0.8110236220472441,
                    "duration": 0.03125
                },
                {
                    "name": "A4",
                    "midi": 69,
                    "time": 846.9312500000037,
                    "velocity": 0.8031496062992126,
                    "duration": 0.035416666666606034
                },
                {
                    "name": "C5",
                    "midi": 72,
                    "time": 846.9375000000038,
                    "velocity": 0.6850393700787402,
                    "duration": 0.03749999999990905
                },
                {
                    "name": "D4",
                    "midi": 62,
                    "time": 846.9604166666704,
                    "velocity": 0.36220472440944884,
                    "duration": 0.04374999999993179
                },
                {
                    "name": "B2",
                    "midi": 47,
                    "time": 847.0437500000037,
                    "velocity": 0.7322834645669292,
                    "duration": 0.043750000000045475
                },
                {
                    "name": "B3",
                    "midi": 59,
                    "time": 847.045833333337,
                    "velocity": 0.6929133858267716,
                    "duration": 0.05000000000006821
                },
                {
                    "name": "D5",
                    "midi": 74,
                    "time": 847.0500000000037,
                    "velocity": 0.7007874015748031,
                    "duration": 0.039583333333325754
                },
                {
                    "name": "D4",
                    "midi": 62,
                    "time": 847.0500000000037,
                    "velocity": 0.7322834645669292,
                    "duration": 0.03750000000002274
                },
                {
                    "name": "B4",
                    "midi": 71,
                    "time": 847.052083333337,
                    "velocity": 0.7637795275590551,
                    "duration": 0.04166666666674246
                },
                {
                    "name": "E5",
                    "midi": 76,
                    "time": 847.1812500000037,
                    "velocity": 0.7637795275590551,
                    "duration": 0.08333333333348492
                },
                {
                    "name": "C4",
                    "midi": 60,
                    "time": 847.1854166666704,
                    "velocity": 0.9448818897637795,
                    "duration": 0.047916666666765195
                },
                {
                    "name": "C5",
                    "midi": 72,
                    "time": 847.1854166666704,
                    "velocity": 0.8346456692913385,
                    "duration": 0.06041666666681067
                },
                {
                    "name": "C3",
                    "midi": 48,
                    "time": 847.1875000000038,
                    "velocity": 0.8582677165354331,
                    "duration": 0.03958333333343944
                },
                {
                    "name": "E4",
                    "midi": 64,
                    "time": 847.1875000000038,
                    "velocity": 0.7795275590551181,
                    "duration": 0.03541666666671972
                },
                {
                    "name": "D3",
                    "midi": 50,
                    "time": 847.4270833333372,
                    "velocity": 0.8818897637795275,
                    "duration": 0.05624999999997726
                },
                {
                    "name": "D4",
                    "midi": 62,
                    "time": 847.4270833333372,
                    "velocity": 0.9133858267716536,
                    "duration": 0.05624999999997726
                },
                {
                    "name": "D5",
                    "midi": 74,
                    "time": 847.431250000004,
                    "velocity": 0.8110236220472441,
                    "duration": 0.07291666666662877
                },
                {
                    "name": "F4",
                    "midi": 65,
                    "time": 847.431250000004,
                    "velocity": 0.8346456692913385,
                    "duration": 0.04166666666662877
                },
                {
                    "name": "F5",
                    "midi": 77,
                    "time": 847.4333333333373,
                    "velocity": 0.7086614173228346,
                    "duration": 0.07500000000004547
                },
                {
                    "name": "E3",
                    "midi": 52,
                    "time": 847.6520833333373,
                    "velocity": 0.9212598425196851,
                    "duration": 0.06041666666669698
                },
                {
                    "name": "E4",
                    "midi": 64,
                    "time": 847.6520833333373,
                    "velocity": 0.9448818897637795,
                    "duration": 0.07916666666665151
                },
                {
                    "name": "G4",
                    "midi": 67,
                    "time": 847.656250000004,
                    "velocity": 0.9133858267716536,
                    "duration": 0.039583333333325754
                },
                {
                    "name": "E5",
                    "midi": 76,
                    "time": 847.6583333333373,
                    "velocity": 0.84251968503937,
                    "duration": 0.039583333333325754
                },
                {
                    "name": "G5",
                    "midi": 79,
                    "time": 847.662500000004,
                    "velocity": 0.7795275590551181,
                    "duration": 0.03125
                },
                {
                    "name": "A4",
                    "midi": 69,
                    "time": 847.6916666666707,
                    "velocity": 0.29133858267716534,
                    "duration": 0.03958333333321207
                },
                {
                    "name": "E3",
                    "midi": 52,
                    "time": 847.9125000000039,
                    "velocity": 0.9448818897637795,
                    "duration": 0.0645833333334167
                },
                {
                    "name": "E2",
                    "midi": 40,
                    "time": 847.9166666666706,
                    "velocity": 0.8740157480314961,
                    "duration": 0.0625
                },
                {
                    "name": "G4",
                    "midi": 67,
                    "time": 847.9229166666706,
                    "velocity": 0.6850393700787402,
                    "duration": 0.0770833333332348
                },
                {
                    "name": "G3",
                    "midi": 55,
                    "time": 847.9250000000039,
                    "velocity": 0.7637795275590551,
                    "duration": 0.039583333333325754
                },
                {
                    "name": "E4",
                    "midi": 64,
                    "time": 847.931250000004,
                    "velocity": 0.6771653543307087,
                    "duration": 0.05833333333328028
                },
                {
                    "name": "F2",
                    "midi": 41,
                    "time": 848.1729166666705,
                    "velocity": 0.9212598425196851,
                    "duration": 0.056249999999863576
                },
                {
                    "name": "F3",
                    "midi": 53,
                    "time": 848.1750000000038,
                    "velocity": 0.9448818897637795,
                    "duration": 0.05416666666656056
                },
                {
                    "name": "A3",
                    "midi": 57,
                    "time": 848.1770833333371,
                    "velocity": 0.8346456692913385,
                    "duration": 0.04374999999993179
                },
                {
                    "name": "F4",
                    "midi": 65,
                    "time": 848.1791666666704,
                    "velocity": 0.84251968503937,
                    "duration": 0.07083333333332575
                },
                {
                    "name": "A4",
                    "midi": 69,
                    "time": 848.1812500000037,
                    "velocity": 0.7322834645669292,
                    "duration": 0.06458333333330302
                },
                {
                    "name": "G3",
                    "midi": 55,
                    "time": 848.4000000000037,
                    "velocity": 0.8976377952755905,
                    "duration": 0.056249999999863576
                },
                {
                    "name": "G2",
                    "midi": 43,
                    "time": 848.4000000000037,
                    "velocity": 0.889763779527559,
                    "duration": 0.06666666666649235
                },
                {
                    "name": "B3",
                    "midi": 59,
                    "time": 848.402083333337,
                    "velocity": 0.8582677165354331,
                    "duration": 0.06874999999990905
                },
                {
                    "name": "G4",
                    "midi": 67,
                    "time": 848.4041666666703,
                    "velocity": 0.8346456692913385,
                    "duration": 0.06666666666660603
                },
                {
                    "name": "B4",
                    "midi": 71,
                    "time": 848.4041666666703,
                    "velocity": 0.8031496062992126,
                    "duration": 0.06874999999990905
                },
                {
                    "name": "A2",
                    "midi": 45,
                    "time": 848.6395833333369,
                    "velocity": 0.8976377952755905,
                    "duration": 0.06458333333330302
                },
                {
                    "name": "A3",
                    "midi": 57,
                    "time": 848.6395833333369,
                    "velocity": 0.9448818897637795,
                    "duration": 0.060416666666583296
                },
                {
                    "name": "A4",
                    "midi": 69,
                    "time": 848.6458333333369,
                    "velocity": 0.8110236220472441,
                    "duration": 0.06874999999990905
                },
                {
                    "name": "C4",
                    "midi": 60,
                    "time": 848.6479166666702,
                    "velocity": 0.7952755905511811,
                    "duration": 0.03333333333330302
                },
                {
                    "name": "C5",
                    "midi": 72,
                    "time": 848.6520833333369,
                    "velocity": 0.6929133858267716,
                    "duration": 0.04791666666653782
                },
                {
                    "name": "D4",
                    "midi": 62,
                    "time": 848.6541666666702,
                    "velocity": 0.8031496062992126,
                    "duration": 0.029166666666583296
                },
                {
                    "name": "B2",
                    "midi": 47,
                    "time": 848.8583333333368,
                    "velocity": 0.9133858267716536,
                    "duration": 0.06249999999988631
                },
                {
                    "name": "B3",
                    "midi": 59,
                    "time": 848.8583333333368,
                    "velocity": 0.9291338582677166,
                    "duration": 0.060416666666583296
                },
                {
                    "name": "D4",
                    "midi": 62,
                    "time": 848.8645833333368,
                    "velocity": 0.8740157480314961,
                    "duration": 0.03333333333330302
                },
                {
                    "name": "D5",
                    "midi": 74,
                    "time": 848.8666666666701,
                    "velocity": 0.7952755905511811,
                    "duration": 0.04791666666665151
                },
                {
                    "name": "B4",
                    "midi": 71,
                    "time": 848.8687500000034,
                    "velocity": 0.7952755905511811,
                    "duration": 0.04791666666665151
                },
                {
                    "name": "E4",
                    "midi": 64,
                    "time": 848.8937500000034,
                    "velocity": 0.3937007874015748,
                    "duration": 0.04374999999993179
                },
                {
                    "name": "C3",
                    "midi": 48,
                    "time": 849.08541666667,
                    "velocity": 0.9291338582677166,
                    "duration": 0.06666666666671972
                },
                {
                    "name": "C4",
                    "midi": 60,
                    "time": 849.0937500000033,
                    "velocity": 0.8503937007874016,
                    "duration": 0.05208333333337123
                },
                {
                    "name": "E4",
                    "midi": 64,
                    "time": 849.09791666667,
                    "velocity": 0.9133858267716536,
                    "duration": 0.04583333333334849
                },
                {
                    "name": "C5",
                    "midi": 72,
                    "time": 849.09791666667,
                    "velocity": 0.8740157480314961,
                    "duration": 0.07083333333343944
                },
                {
                    "name": "B3",
                    "midi": 59,
                    "time": 849.1062500000033,
                    "velocity": 0.7322834645669292,
                    "duration": 0.03541666666671972
                },
                {
                    "name": "E5",
                    "midi": 76,
                    "time": 849.1062500000033,
                    "velocity": 0.7401574803149606,
                    "duration": 0.03541666666671972
                },
                {
                    "name": "F4",
                    "midi": 65,
                    "time": 849.1208333333367,
                    "velocity": 0.5826771653543307,
                    "duration": 0.043750000000045475
                },
                {
                    "name": "D3",
                    "midi": 50,
                    "time": 849.2312500000035,
                    "velocity": 0.8976377952755905,
                    "duration": 0.06041666666669698
                },
                {
                    "name": "D4",
                    "midi": 62,
                    "time": 849.2375000000035,
                    "velocity": 0.8188976377952756,
                    "duration": 0.05208333333337123
                },
                {
                    "name": "F4",
                    "midi": 65,
                    "time": 849.2458333333368,
                    "velocity": 0.8110236220472441,
                    "duration": 0.03750000000002274
                },
                {
                    "name": "D5",
                    "midi": 74,
                    "time": 849.2479166666701,
                    "velocity": 0.7795275590551181,
                    "duration": 0.06666666666671972
                },
                {
                    "name": "F5",
                    "midi": 77,
                    "time": 849.2479166666701,
                    "velocity": 0.7244094488188977,
                    "duration": 0.04166666666674246
                },
                {
                    "name": "E3",
                    "midi": 52,
                    "time": 849.3666666666702,
                    "velocity": 0.7637795275590551,
                    "duration": 0.04583333333334849
                },
                {
                    "name": "G4",
                    "midi": 67,
                    "time": 849.3833333333369,
                    "velocity": 0.8346456692913385,
                    "duration": 0.07083333333332575
                },
                {
                    "name": "G5",
                    "midi": 79,
                    "time": 849.3875000000036,
                    "velocity": 0.7244094488188977,
                    "duration": 0.035416666666606034
                },
                {
                    "name": "E5",
                    "midi": 76,
                    "time": 849.3875000000036,
                    "velocity": 0.7795275590551181,
                    "duration": 0.04166666666662877
                },
                {
                    "name": "E4",
                    "midi": 64,
                    "time": 849.3958333333369,
                    "velocity": 0.33070866141732286,
                    "duration": 0.04374999999993179
                },
                {
                    "name": "E2",
                    "midi": 40,
                    "time": 849.5604166666702,
                    "velocity": 0.8976377952755905,
                    "duration": 0.06250000000022737
                },
                {
                    "name": "E3",
                    "midi": 52,
                    "time": 849.5645833333369,
                    "velocity": 0.7637795275590551,
                    "duration": 0.06666666666683341
                },
                {
                    "name": "D2",
                    "midi": 38,
                    "time": 849.5750000000036,
                    "velocity": 0.7637795275590551,
                    "duration": 0.02916666666681067
                },
                {
                    "name": "D3",
                    "midi": 50,
                    "time": 849.5895833333369,
                    "velocity": 0.49606299212598426,
                    "duration": 0.04791666666687888
                },
                {
                    "name": "G4",
                    "midi": 67,
                    "time": 849.5958333333369,
                    "velocity": 0.84251968503937,
                    "duration": 0.05833333333350765
                },
                {
                    "name": "G3",
                    "midi": 55,
                    "time": 849.5958333333369,
                    "velocity": 0.9448818897637795,
                    "duration": 0.037500000000136424
                },
                {
                    "name": "E4",
                    "midi": 64,
                    "time": 849.6000000000037,
                    "velocity": 0.84251968503937,
                    "duration": 0.04583333333346218
                },
                {
                    "name": "A3",
                    "midi": 57,
                    "time": 849.6083333333371,
                    "velocity": 0.7716535433070866,
                    "duration": 0.03750000000002274
                },
                {
                    "name": "F3",
                    "midi": 53,
                    "time": 849.7416666666704,
                    "velocity": 0.9212598425196851,
                    "duration": 0.05416666666656056
                },
                {
                    "name": "F2",
                    "midi": 41,
                    "time": 849.7437500000037,
                    "velocity": 0.84251968503937,
                    "duration": 0.02708333333328028
                },
                {
                    "name": "A3",
                    "midi": 57,
                    "time": 849.7541666666704,
                    "velocity": 0.8188976377952756,
                    "duration": 0.03125
                },
                {
                    "name": "A4",
                    "midi": 69,
                    "time": 849.7604166666704,
                    "velocity": 0.7086614173228346,
                    "duration": 0.03749999999990905
                },
                {
                    "name": "F4",
                    "midi": 65,
                    "time": 849.7625000000037,
                    "velocity": 0.7401574803149606,
                    "duration": 0.03125
                },
                {
                    "name": "B3",
                    "midi": 59,
                    "time": 849.8729166666703,
                    "velocity": 0.8582677165354331,
                    "duration": 0.049999999999954525
                },
                {
                    "name": "G3",
                    "midi": 55,
                    "time": 849.8729166666703,
                    "velocity": 0.9212598425196851,
                    "duration": 0.05208333333325754
                },
                {
                    "name": "G2",
                    "midi": 43,
                    "time": 849.877083333337,
                    "velocity": 0.7401574803149606,
                    "duration": 0.04999999999984084
                },
                {
                    "name": "B4",
                    "midi": 71,
                    "time": 849.877083333337,
                    "velocity": 0.6141732283464567,
                    "duration": 0.04999999999984084
                },
                {
                    "name": "G4",
                    "midi": 67,
                    "time": 849.8791666666704,
                    "velocity": 0.7874015748031497,
                    "duration": 0.056249999999863576
                },
                {
                    "name": "A2",
                    "midi": 45,
                    "time": 849.8875000000037,
                    "velocity": 0.7559055118110236,
                    "duration": 0.03333333333330302
                },
                {
                    "name": "A4",
                    "midi": 69,
                    "time": 849.8979166666703,
                    "velocity": 0.49606299212598426,
                    "duration": 0.056249999999863576
                },
                {
                    "name": "A3",
                    "midi": 57,
                    "time": 850.0145833333369,
                    "velocity": 0.8740157480314961,
                    "duration": 0.04791666666665151
                },
                {
                    "name": "A2",
                    "midi": 45,
                    "time": 850.0145833333369,
                    "velocity": 0.8188976377952756,
                    "duration": 0.035416666666606034
                },
                {
                    "name": "C5",
                    "midi": 72,
                    "time": 850.0145833333369,
                    "velocity": 0.7559055118110236,
                    "duration": 0.04166666666662877
                },
                {
                    "name": "A4",
                    "midi": 69,
                    "time": 850.0166666666702,
                    "velocity": 0.7165354330708661,
                    "duration": 0.043750000000045475
                },
                {
                    "name": "C4",
                    "midi": 60,
                    "time": 850.0187500000035,
                    "velocity": 0.6614173228346457,
                    "duration": 0.04166666666674246
                },
                {
                    "name": "B2",
                    "midi": 47,
                    "time": 850.1458333333369,
                    "velocity": 0.8031496062992126,
                    "duration": 0.03333333333318933
                },
                {
                    "name": "B3",
                    "midi": 59,
                    "time": 850.1479166666702,
                    "velocity": 0.8740157480314961,
                    "duration": 0.041666666666515084
                },
                {
                    "name": "D4",
                    "midi": 62,
                    "time": 850.1645833333369,
                    "velocity": 0.5905511811023622,
                    "duration": 0.03749999999990905
                },
                {
                    "name": "D5",
                    "midi": 74,
                    "time": 850.1666666666702,
                    "velocity": 0.5196850393700787,
                    "duration": 0.04374999999993179
                },
                {
                    "name": "B4",
                    "midi": 71,
                    "time": 850.1666666666702,
                    "velocity": 0.5354330708661418,
                    "duration": 0.045833333333234805
                },
                {
                    "name": "E4",
                    "midi": 64,
                    "time": 850.1687500000035,
                    "velocity": 0.5905511811023622,
                    "duration": 0.04374999999993179
                },
                {
                    "name": "C4",
                    "midi": 60,
                    "time": 850.2729166666701,
                    "velocity": 0.8818897637795275,
                    "duration": 0.054166666666674246
                },
                {
                    "name": "C3",
                    "midi": 48,
                    "time": 850.2750000000034,
                    "velocity": 0.8031496062992126,
                    "duration": 0.03125
                },
                {
                    "name": "E5",
                    "midi": 76,
                    "time": 850.2791666666701,
                    "velocity": 0.7716535433070866,
                    "duration": 0.07500000000004547
                },
                {
                    "name": "C5",
                    "midi": 72,
                    "time": 850.2895833333367,
                    "velocity": 0.8188976377952756,
                    "duration": 0.03750000000002274
                },
                {
                    "name": "E4",
                    "midi": 64,
                    "time": 850.2937500000035,
                    "velocity": 0.6299212598425197,
                    "duration": 0.04166666666662877
                },
                {
                    "name": "B3",
                    "midi": 59,
                    "time": 850.3020833333368,
                    "velocity": 0.41732283464566927,
                    "duration": 0.05000000000006821
                },
                {
                    "name": "F5",
                    "midi": 77,
                    "time": 850.4104166666701,
                    "velocity": 0.7637795275590551,
                    "duration": 0.05208333333325754
                },
                {
                    "name": "D4",
                    "midi": 62,
                    "time": 850.4145833333369,
                    "velocity": 0.8740157480314961,
                    "duration": 0.04999999999984084
                },
                {
                    "name": "D5",
                    "midi": 74,
                    "time": 850.4166666666702,
                    "velocity": 0.8031496062992126,
                    "duration": 0.03333333333330302
                },
                {
                    "name": "F4",
                    "midi": 65,
                    "time": 850.4187500000035,
                    "velocity": 0.6299212598425197,
                    "duration": 0.04166666666662877
                },
                {
                    "name": "E3",
                    "midi": 52,
                    "time": 850.4395833333368,
                    "velocity": 0.4645669291338583,
                    "duration": 0.045833333333234805
                },
                {
                    "name": "E3",
                    "midi": 52,
                    "time": 850.53541666667,
                    "velocity": 0.6929133858267716,
                    "duration": 0.0645833333334167
                },
                {
                    "name": "F3",
                    "midi": 53,
                    "time": 850.5375000000033,
                    "velocity": 0.7952755905511811,
                    "duration": 0.05833333333350765
                },
                {
                    "name": "E4",
                    "midi": 64,
                    "time": 850.54166666667,
                    "velocity": 0.6929133858267716,
                    "duration": 0.0500000000001819
                },
                {
                    "name": "G5",
                    "midi": 79,
                    "time": 850.5437500000033,
                    "velocity": 0.8031496062992126,
                    "duration": 0.03333333333353039
                },
                {
                    "name": "F4",
                    "midi": 65,
                    "time": 850.5479166666701,
                    "velocity": 0.6771653543307087,
                    "duration": 0.037500000000136424
                },
                {
                    "name": "G4",
                    "midi": 67,
                    "time": 850.5520833333368,
                    "velocity": 0.6535433070866141,
                    "duration": 0.04166666666674246
                },
                {
                    "name": "A4",
                    "midi": 69,
                    "time": 850.5541666666701,
                    "velocity": 0.7007874015748031,
                    "duration": 0.037500000000136424
                },
                {
                    "name": "E5",
                    "midi": 76,
                    "time": 850.5604166666701,
                    "velocity": 0.6220472440944882,
                    "duration": 0.03750000000002274
                },
                {
                    "name": "F5",
                    "midi": 77,
                    "time": 850.5645833333368,
                    "velocity": 0.5984251968503937,
                    "duration": 0.04374999999993179
                },
                {
                    "name": "E3",
                    "midi": 52,
                    "time": 850.7208333333367,
                    "velocity": 0.8110236220472441,
                    "duration": 0.04583333333334849
                },
                {
                    "name": "E2",
                    "midi": 40,
                    "time": 850.7208333333367,
                    "velocity": 0.984251968503937,
                    "duration": 0.05416666666678793
                },
                {
                    "name": "G4",
                    "midi": 67,
                    "time": 850.72916666667,
                    "velocity": 0.7322834645669292,
                    "duration": 0.05833333333350765
                },
                {
                    "name": "E4",
                    "midi": 64,
                    "time": 850.7354166666701,
                    "velocity": 0.8503937007874016,
                    "duration": 0.03125
                },
                {
                    "name": "G3",
                    "midi": 55,
                    "time": 850.7375000000034,
                    "velocity": 0.7795275590551181,
                    "duration": 0.033333333333416704
                },
                {
                    "name": "A3",
                    "midi": 57,
                    "time": 850.7416666666701,
                    "velocity": 0.6614173228346457,
                    "duration": 0.04166666666674246
                },
                {
                    "name": "G2",
                    "midi": 43,
                    "time": 850.8625000000036,
                    "velocity": 0.7322834645669292,
                    "duration": 0.05208333333337123
                },
                {
                    "name": "G3",
                    "midi": 55,
                    "time": 850.8687500000036,
                    "velocity": 0.7322834645669292,
                    "duration": 0.04583333333334849
                },
                {
                    "name": "F2",
                    "midi": 41,
                    "time": 850.8770833333369,
                    "velocity": 0.4094488188976378,
                    "duration": 0.047916666666765195
                },
                {
                    "name": "A3",
                    "midi": 57,
                    "time": 850.8791666666702,
                    "velocity": 0.6692913385826772,
                    "duration": 0.04166666666674246
                },
                {
                    "name": "A4",
                    "midi": 69,
                    "time": 850.8791666666702,
                    "velocity": 0.7637795275590551,
                    "duration": 0.03541666666671972
                },
                {
                    "name": "B3",
                    "midi": 59,
                    "time": 850.883333333337,
                    "velocity": 0.7637795275590551,
                    "duration": 0.03333333333330302
                },
                {
                    "name": "F3",
                    "midi": 53,
                    "time": 850.883333333337,
                    "velocity": 0.4094488188976378,
                    "duration": 0.05000000000006821
                },
                {
                    "name": "F4",
                    "midi": 65,
                    "time": 850.8875000000037,
                    "velocity": 0.6535433070866141,
                    "duration": 0.039583333333325754
                },
                {
                    "name": "B4",
                    "midi": 71,
                    "time": 850.995833333337,
                    "velocity": 0.8188976377952756,
                    "duration": 0.05000000000006821
                },
                {
                    "name": "A2",
                    "midi": 45,
                    "time": 850.9979166666703,
                    "velocity": 0.8582677165354331,
                    "duration": 0.03750000000002274
                },
                {
                    "name": "A3",
                    "midi": 57,
                    "time": 851.002083333337,
                    "velocity": 0.8346456692913385,
                    "duration": 0.05208333333337123
                },
                {
                    "name": "G3",
                    "midi": 55,
                    "time": 851.0041666666704,
                    "velocity": 0.7874015748031497,
                    "duration": 0.03541666666671972
                },
                {
                    "name": "B3",
                    "midi": 59,
                    "time": 851.0062500000037,
                    "velocity": 0.6535433070866141,
                    "duration": 0.03958333333343944
                },
                {
                    "name": "G4",
                    "midi": 67,
                    "time": 851.008333333337,
                    "velocity": 0.6771653543307087,
                    "duration": 0.03958333333343944
                },
                {
                    "name": "C4",
                    "midi": 60,
                    "time": 851.0125000000037,
                    "velocity": 0.6692913385826772,
                    "duration": 0.03541666666671972
                },
                {
                    "name": "B3",
                    "midi": 59,
                    "time": 851.1312500000038,
                    "velocity": 0.9133858267716536,
                    "duration": 0.054166666666674246
                },
                {
                    "name": "D4",
                    "midi": 62,
                    "time": 851.1333333333371,
                    "velocity": 0.6535433070866141,
                    "duration": 0.03750000000002274
                },
                {
                    "name": "C4",
                    "midi": 60,
                    "time": 851.1333333333371,
                    "velocity": 0.6929133858267716,
                    "duration": 0.03541666666671972
                },
                {
                    "name": "C5",
                    "midi": 72,
                    "time": 851.1333333333371,
                    "velocity": 0.6299212598425197,
                    "duration": 0.043750000000045475
                },
                {
                    "name": "B2",
                    "midi": 47,
                    "time": 851.1375000000038,
                    "velocity": 0.7795275590551181,
                    "duration": 0.03333333333330302
                },
                {
                    "name": "D5",
                    "midi": 74,
                    "time": 851.1458333333371,
                    "velocity": 0.4330708661417323,
                    "duration": 0.049999999999954525
                },
                {
                    "name": "A3",
                    "midi": 57,
                    "time": 851.1562500000038,
                    "velocity": 0.48031496062992124,
                    "duration": 0.05624999999997726
                },
                {
                    "name": "E4",
                    "midi": 64,
                    "time": 851.2583333333371,
                    "velocity": 0.8346456692913385,
                    "duration": 0.03750000000002274
                },
                {
                    "name": "E5",
                    "midi": 76,
                    "time": 851.2625000000038,
                    "velocity": 0.7874015748031497,
                    "duration": 0.04166666666662877
                },
                {
                    "name": "C5",
                    "midi": 72,
                    "time": 851.2645833333371,
                    "velocity": 0.8110236220472441,
                    "duration": 0.03125
                },
                {
                    "name": "C4",
                    "midi": 60,
                    "time": 851.2666666666704,
                    "velocity": 0.7795275590551181,
                    "duration": 0.05208333333337123
                },
                {
                    "name": "C3",
                    "midi": 48,
                    "time": 851.2708333333371,
                    "velocity": 0.7401574803149606,
                    "duration": 0.03333333333330302
                },
                {
                    "name": "F4",
                    "midi": 65,
                    "time": 851.2791666666704,
                    "velocity": 0.5826771653543307,
                    "duration": 0.04166666666662877
                },
                {
                    "name": "B3",
                    "midi": 59,
                    "time": 851.2895833333371,
                    "velocity": 0.5826771653543307,
                    "duration": 0.043750000000045475
                },
                {
                    "name": "F4",
                    "midi": 65,
                    "time": 851.3833333333371,
                    "velocity": 0.8503937007874016,
                    "duration": 0.03125
                },
                {
                    "name": "D5",
                    "midi": 74,
                    "time": 851.3895833333371,
                    "velocity": 0.8031496062992126,
                    "duration": 0.058333333333393966
                },
                {
                    "name": "D3",
                    "midi": 50,
                    "time": 851.3895833333371,
                    "velocity": 0.7401574803149606,
                    "duration": 0.03750000000002274
                },
                {
                    "name": "D4",
                    "midi": 62,
                    "time": 851.3916666666704,
                    "velocity": 0.7559055118110236,
                    "duration": 0.047916666666765195
                },
                {
                    "name": "C4",
                    "midi": 60,
                    "time": 851.3937500000037,
                    "velocity": 0.7637795275590551,
                    "duration": 0.03958333333343944
                },
                {
                    "name": "F5",
                    "midi": 77,
                    "time": 851.3979166666704,
                    "velocity": 0.4330708661417323,
                    "duration": 0.05000000000006821
                },
                {
                    "name": "E5",
                    "midi": 76,
                    "time": 851.4125000000038,
                    "velocity": 0.4094488188976378,
                    "duration": 0.05000000000006821
                },
                {
                    "name": "G5",
                    "midi": 79,
                    "time": 851.5145833333372,
                    "velocity": 0.8188976377952756,
                    "duration": 0.07916666666665151
                },
                {
                    "name": "E5",
                    "midi": 76,
                    "time": 851.5166666666705,
                    "velocity": 0.84251968503937,
                    "duration": 0.0625
                },
                {
                    "name": "G4",
                    "midi": 67,
                    "time": 851.5187500000038,
                    "velocity": 0.7401574803149606,
                    "duration": 0.039583333333325754
                },
                {
                    "name": "E4",
                    "midi": 64,
                    "time": 851.5250000000038,
                    "velocity": 0.9606299212598425,
                    "duration": 0.05208333333337123
                },
                {
                    "name": "F3",
                    "midi": 53,
                    "time": 851.5270833333371,
                    "velocity": 0.8031496062992126,
                    "duration": 0.0625
                },
                {
                    "name": "A4",
                    "midi": 69,
                    "time": 851.5291666666704,
                    "velocity": 0.6771653543307087,
                    "duration": 0.04166666666674246
                },
                {
                    "name": "G#3",
                    "midi": 56,
                    "time": 851.5541666666704,
                    "velocity": 0.5826771653543307,
                    "duration": 0.03958333333343944
                },
                {
                    "name": "E2",
                    "midi": 40,
                    "time": 851.7187500000039,
                    "velocity": 0.9448818897637795,
                    "duration": 0.02291666666656056
                },
                {
                    "name": "F2",
                    "midi": 41,
                    "time": 851.7187500000039,
                    "velocity": 0.8188976377952756,
                    "duration": 0.02708333333328028
                },
                {
                    "name": "F3",
                    "midi": 53,
                    "time": 851.7208333333372,
                    "velocity": 0.7007874015748031,
                    "duration": 0.03750000000002274
                },
                {
                    "name": "E3",
                    "midi": 52,
                    "time": 851.7229166666705,
                    "velocity": 0.8188976377952756,
                    "duration": 0.03125
                },
                {
                    "name": "A4",
                    "midi": 69,
                    "time": 851.7270833333372,
                    "velocity": 0.7401574803149606,
                    "duration": 0.05208333333337123
                },
                {
                    "name": "F#4",
                    "midi": 66,
                    "time": 851.7291666666705,
                    "velocity": 0.8346456692913385,
                    "duration": 0.03750000000002274
                },
                {
                    "name": "A3",
                    "midi": 57,
                    "time": 851.7312500000038,
                    "velocity": 0.7874015748031497,
                    "duration": 0.03541666666671972
                },
                {
                    "name": "F#2",
                    "midi": 42,
                    "time": 851.7395833333371,
                    "velocity": 0.5511811023622047,
                    "duration": 0.033333333333416704
                },
                {
                    "name": "B3",
                    "midi": 59,
                    "time": 851.7479166666704,
                    "velocity": 0.5590551181102362,
                    "duration": 0.04166666666674246
                },
                {
                    "name": "G2",
                    "midi": 43,
                    "time": 851.8604166666705,
                    "velocity": 0.9448818897637795,
                    "duration": 0.05208333333325754
                },
                {
                    "name": "G3",
                    "midi": 55,
                    "time": 851.8625000000038,
                    "velocity": 0.9606299212598425,
                    "duration": 0.049999999999954525
                },
                {
                    "name": "A4",
                    "midi": 69,
                    "time": 851.8708333333371,
                    "velocity": 0.8818897637795275,
                    "duration": 0.08333333333325754
                },
                {
                    "name": "B3",
                    "midi": 59,
                    "time": 851.8812500000038,
                    "velocity": 0.7559055118110236,
                    "duration": 0.03333333333330302
                },
                {
                    "name": "A3",
                    "midi": 57,
                    "time": 851.8812500000038,
                    "velocity": 0.7401574803149606,
                    "duration": 0.035416666666606034
                },
                {
                    "name": "F3",
                    "midi": 53,
                    "time": 851.8833333333371,
                    "velocity": 0.6377952755905512,
                    "duration": 0.039583333333325754
                },
                {
                    "name": "A2",
                    "midi": 45,
                    "time": 851.9875000000037,
                    "velocity": 0.9212598425196851,
                    "duration": 0.05625000000009095
                },
                {
                    "name": "A3",
                    "midi": 57,
                    "time": 851.989583333337,
                    "velocity": 0.9133858267716536,
                    "duration": 0.052083333333484916
                },
                {
                    "name": "G3",
                    "midi": 55,
                    "time": 851.995833333337,
                    "velocity": 0.7401574803149606,
                    "duration": 0.03541666666683341
                },
                {
                    "name": "B4",
                    "midi": 71,
                    "time": 852.0000000000038,
                    "velocity": 0.84251968503937,
                    "duration": 0.04583333333334849
                },
                {
                    "name": "B3",
                    "midi": 59,
                    "time": 852.0125000000038,
                    "velocity": 0.6299212598425197,
                    "duration": 0.039583333333325754
                },
                {
                    "name": "C4",
                    "midi": 60,
                    "time": 852.0166666666705,
                    "velocity": 0.6614173228346457,
                    "duration": 0.03333333333330302
                },
                {
                    "name": "C5",
                    "midi": 72,
                    "time": 852.1083333333371,
                    "velocity": 0.8503937007874016,
                    "duration": 0.06041666666669698
                },
                {
                    "name": "B2",
                    "midi": 47,
                    "time": 852.1104166666704,
                    "velocity": 0.8740157480314961,
                    "duration": 0.06666666666671972
                },
                {
                    "name": "B3",
                    "midi": 59,
                    "time": 852.1125000000037,
                    "velocity": 0.889763779527559,
                    "duration": 0.05208333333337123
                },
                {
                    "name": "D4",
                    "midi": 62,
                    "time": 852.1229166666703,
                    "velocity": 0.6220472440944882,
                    "duration": 0.03541666666671972
                },
                {
                    "name": "A3",
                    "midi": 57,
                    "time": 852.1229166666703,
                    "velocity": 0.6929133858267716,
                    "duration": 0.03958333333343944
                },
                {
                    "name": "D5",
                    "midi": 74,
                    "time": 852.2333333333371,
                    "velocity": 0.8346456692913385,
                    "duration": 0.07500000000015916
                },
                {
                    "name": "E5",
                    "midi": 76,
                    "time": 852.2375000000038,
                    "velocity": 0.8503937007874016,
                    "duration": 0.027083333333393966
                },
                {
                    "name": "E4",
                    "midi": 64,
                    "time": 852.2375000000038,
                    "velocity": 0.7165354330708661,
                    "duration": 0.043750000000045475
                },
                {
                    "name": "D4",
                    "midi": 62,
                    "time": 852.2416666666705,
                    "velocity": 0.8110236220472441,
                    "duration": 0.06041666666669698
                },
                {
                    "name": "D3",
                    "midi": 50,
                    "time": 852.2500000000039,
                    "velocity": 0.9212598425196851,
                    "duration": 0.06875000000002274
                },
                {
                    "name": "C4",
                    "midi": 60,
                    "time": 852.2520833333372,
                    "velocity": 0.9606299212598425,
                    "duration": 0.022916666666674246
                },
                {
                    "name": "E3",
                    "midi": 52,
                    "time": 852.2770833333371,
                    "velocity": 0.5984251968503937,
                    "duration": 0.03958333333343944
                },
                {
                    "name": "A#2",
                    "midi": 46,
                    "time": 852.6500000000038,
                    "velocity": 1,
                    "duration": 0.10208333333332575
                },
                {
                    "name": "D#2",
                    "midi": 39,
                    "time": 852.6500000000038,
                    "velocity": 0.9291338582677166,
                    "duration": 0.07291666666662877
                },
                {
                    "name": "D4",
                    "midi": 62,
                    "time": 852.9625000000038,
                    "velocity": 0.9606299212598425,
                    "duration": 0.03958333333321207
                },
                {
                    "name": "G#3",
                    "midi": 56,
                    "time": 852.9625000000038,
                    "velocity": 0.9133858267716536,
                    "duration": 0.03958333333321207
                },
                {
                    "name": "A5",
                    "midi": 81,
                    "time": 852.9645833333371,
                    "velocity": 0.8503937007874016,
                    "duration": 0.30416666666656056
                },
                {
                    "name": "F5",
                    "midi": 77,
                    "time": 852.9645833333371,
                    "velocity": 0.84251968503937,
                    "duration": 0.3562499999999318
                },
                {
                    "name": "G4",
                    "midi": 67,
                    "time": 852.9645833333371,
                    "velocity": 0.9763779527559056,
                    "duration": 0.03749999999990905
                },
                {
                    "name": "C#5",
                    "midi": 73,
                    "time": 852.9666666666704,
                    "velocity": 0.905511811023622,
                    "duration": 0.33333333333325754
                },
                {
                    "name": "A#3",
                    "midi": 58,
                    "time": 852.9666666666704,
                    "velocity": 0.937007874015748,
                    "duration": 0.36874999999997726
                },
                {
                    "name": "A4",
                    "midi": 69,
                    "time": 853.0000000000038,
                    "velocity": 0.9763779527559056,
                    "duration": 0.25624999999990905
                },
                {
                    "name": "A#4",
                    "midi": 70,
                    "time": 853.0041666666704,
                    "velocity": 0.33070866141732286,
                    "duration": 0.2312499999999318
                },
                {
                    "name": "D#3",
                    "midi": 51,
                    "time": 853.0500000000037,
                    "velocity": 0.4645669291338583,
                    "duration": 0.08958333333328028
                },
                {
                    "name": "E3",
                    "midi": 52,
                    "time": 855.0916666666703,
                    "velocity": 0.889763779527559,
                    "duration": 0.7020833333333485
                },
                {
                    "name": "C2",
                    "midi": 36,
                    "time": 855.0916666666703,
                    "velocity": 0.7007874015748031,
                    "duration": 0.4687500000001137
                },
                {
                    "name": "G3",
                    "midi": 55,
                    "time": 855.2250000000037,
                    "velocity": 0.6929133858267716,
                    "duration": 0.11041666666665151
                },
                {
                    "name": "A3",
                    "midi": 57,
                    "time": 855.3062500000036,
                    "velocity": 0.6141732283464567,
                    "duration": 0.13333333333343944
                },
                {
                    "name": "C3",
                    "midi": 48,
                    "time": 855.3145833333369,
                    "velocity": 0.5590551181102362,
                    "duration": 0.466666666666697
                },
                {
                    "name": "G3",
                    "midi": 55,
                    "time": 855.402083333337,
                    "velocity": 0.5590551181102362,
                    "duration": 0.1270833333334167
                },
                {
                    "name": "A#3",
                    "midi": 58,
                    "time": 855.5187500000037,
                    "velocity": 0.8582677165354331,
                    "duration": 0.15416666666669698
                },
                {
                    "name": "G2",
                    "midi": 43,
                    "time": 855.5250000000037,
                    "velocity": 0.5590551181102362,
                    "duration": 0.2645833333332348
                },
                {
                    "name": "A#3",
                    "midi": 58,
                    "time": 855.739583333337,
                    "velocity": 0.7086614173228346,
                    "duration": 0.13125000000002274
                },
                {
                    "name": "C2",
                    "midi": 36,
                    "time": 855.7562500000037,
                    "velocity": 0.5354330708661418,
                    "duration": 0.07500000000004547
                },
                {
                    "name": "B1",
                    "midi": 35,
                    "time": 855.9312500000037,
                    "velocity": 0.7559055118110236,
                    "duration": 0.3874999999998181
                },
                {
                    "name": "D#3",
                    "midi": 51,
                    "time": 855.9500000000037,
                    "velocity": 0.8818897637795275,
                    "duration": 0.08541666666667425
                },
                {
                    "name": "A3",
                    "midi": 57,
                    "time": 856.0645833333369,
                    "velocity": 0.6220472440944882,
                    "duration": 0.11041666666665151
                },
                {
                    "name": "B2",
                    "midi": 47,
                    "time": 856.1270833333369,
                    "velocity": 0.6692913385826772,
                    "duration": 0.3583333333332348
                },
                {
                    "name": "B3",
                    "midi": 59,
                    "time": 856.1500000000036,
                    "velocity": 0.7086614173228346,
                    "duration": 0.10833333333334849
                },
                {
                    "name": "A3",
                    "midi": 57,
                    "time": 856.2500000000036,
                    "velocity": 0.6929133858267716,
                    "duration": 0.09791666666660603
                },
                {
                    "name": "F#2",
                    "midi": 42,
                    "time": 856.3145833333369,
                    "velocity": 0.5984251968503937,
                    "duration": 0.22916666666662877
                },
                {
                    "name": "C#4",
                    "midi": 61,
                    "time": 856.3166666666702,
                    "velocity": 0.7795275590551181,
                    "duration": 0.13541666666662877
                },
                {
                    "name": "D#4",
                    "midi": 63,
                    "time": 856.4270833333369,
                    "velocity": 0.7952755905511811,
                    "duration": 0.125
                },
                {
                    "name": "B1",
                    "midi": 35,
                    "time": 856.4958333333368,
                    "velocity": 0.6141732283464567,
                    "duration": 0.04166666666674246
                },
                {
                    "name": "B3",
                    "midi": 59,
                    "time": 856.5166666666702,
                    "velocity": 0.6377952755905512,
                    "duration": 0.10000000000002274
                },
                {
                    "name": "A3",
                    "midi": 57,
                    "time": 856.5833333333369,
                    "velocity": 0.6614173228346457,
                    "duration": 0.10624999999993179
                },
                {
                    "name": "G3",
                    "midi": 55,
                    "time": 856.6875000000035,
                    "velocity": 0.7716535433070866,
                    "duration": 0.14583333333337123
                },
                {
                    "name": "D#2",
                    "midi": 39,
                    "time": 856.6979166666702,
                    "velocity": 0.8503937007874016,
                    "duration": 0.35208333333343944
                },
                {
                    "name": "A#3",
                    "midi": 58,
                    "time": 856.7979166666702,
                    "velocity": 0.8188976377952756,
                    "duration": 0.10000000000002274
                },
                {
                    "name": "D#3",
                    "midi": 51,
                    "time": 856.8729166666702,
                    "velocity": 0.6771653543307087,
                    "duration": 0.46041666666678793
                },
                {
                    "name": "C4",
                    "midi": 60,
                    "time": 856.8875000000036,
                    "velocity": 0.7401574803149606,
                    "duration": 0.10000000000002274
                },
                {
                    "name": "A#3",
                    "midi": 58,
                    "time": 856.9666666666702,
                    "velocity": 0.7165354330708661,
                    "duration": 0.10625000000004547
                },
                {
                    "name": "A#2",
                    "midi": 46,
                    "time": 857.0500000000036,
                    "velocity": 0.6141732283464567,
                    "duration": 0.3312500000000682
                },
                {
                    "name": "C#4",
                    "midi": 61,
                    "time": 857.0750000000036,
                    "velocity": 0.8818897637795275,
                    "duration": 0.07500000000004547
                },
                {
                    "name": "D#2",
                    "midi": 39,
                    "time": 857.2729166666703,
                    "velocity": 0.6771653543307087,
                    "duration": 0.1416666666666515
                },
                {
                    "name": "C#4",
                    "midi": 61,
                    "time": 857.2791666666703,
                    "velocity": 0.905511811023622,
                    "duration": 0.08749999999997726
                },
                {
                    "name": "D2",
                    "midi": 38,
                    "time": 857.458333333337,
                    "velocity": 0.7952755905511811,
                    "duration": 0.13750000000004547
                },
                {
                    "name": "F#3",
                    "midi": 54,
                    "time": 857.464583333337,
                    "velocity": 0.84251968503937,
                    "duration": 0.0625
                },
                {
                    "name": "C4",
                    "midi": 60,
                    "time": 857.5625000000038,
                    "velocity": 0.6692913385826772,
                    "duration": 0.11041666666653782
                },
                {
                    "name": "D3",
                    "midi": 50,
                    "time": 857.6229166666703,
                    "velocity": 0.6377952755905512,
                    "duration": 0.20624999999995453
                },
                {
                    "name": "D4",
                    "midi": 62,
                    "time": 857.6625000000037,
                    "velocity": 0.7322834645669292,
                    "duration": 0.10208333333332575
                },
                {
                    "name": "C4",
                    "midi": 60,
                    "time": 857.7604166666703,
                    "velocity": 0.7401574803149606,
                    "duration": 0.0958333333334167
                },
                {
                    "name": "A2",
                    "midi": 45,
                    "time": 857.8041666666703,
                    "velocity": 0.5354330708661418,
                    "duration": 0.16250000000013642
                },
                {
                    "name": "E4",
                    "midi": 64,
                    "time": 857.833333333337,
                    "velocity": 0.7086614173228346,
                    "duration": 0.16666666666674246
                },
                {
                    "name": "F#4",
                    "midi": 66,
                    "time": 857.9625000000037,
                    "velocity": 0.84251968503937,
                    "duration": 0.10625000000004547
                },
                {
                    "name": "D2",
                    "midi": 38,
                    "time": 857.9687500000038,
                    "velocity": 0.5275590551181102,
                    "duration": 0.06666666666671972
                },
                {
                    "name": "D4",
                    "midi": 62,
                    "time": 858.0125000000038,
                    "velocity": 0.5118110236220472,
                    "duration": 0.10000000000002274
                },
                {
                    "name": "C4",
                    "midi": 60,
                    "time": 858.0979166666705,
                    "velocity": 0.5590551181102362,
                    "duration": 0.07083333333332575
                },
                {
                    "name": "B3",
                    "midi": 59,
                    "time": 858.1145833333371,
                    "velocity": 0.5433070866141733,
                    "duration": 0.04791666666665151
                },
                {
                    "name": "C#2",
                    "midi": 37,
                    "time": 858.1916666666705,
                    "velocity": 0.9291338582677166,
                    "duration": 0.054166666666674246
                },
                {
                    "name": "C#3",
                    "midi": 49,
                    "time": 858.1958333333372,
                    "velocity": 1,
                    "duration": 0.06666666666660603
                },
                {
                    "name": "D#4",
                    "midi": 63,
                    "time": 858.3000000000038,
                    "velocity": 0.2283464566929134,
                    "duration": 0.04166666666662877
                },
                {
                    "name": "F3",
                    "midi": 53,
                    "time": 858.3812500000038,
                    "velocity": 0.4251968503937008,
                    "duration": 0.07916666666665151
                },
                {
                    "name": "B3",
                    "midi": 59,
                    "time": 858.4500000000038,
                    "velocity": 0.6141732283464567,
                    "duration": 0.08541666666667425
                },
                {
                    "name": "D4",
                    "midi": 62,
                    "time": 858.4833333333371,
                    "velocity": 0.7401574803149606,
                    "duration": 0.14791666666678793
                },
                {
                    "name": "G4",
                    "midi": 67,
                    "time": 858.5187500000038,
                    "velocity": 0.7165354330708661,
                    "duration": 0.10000000000002274
                },
                {
                    "name": "C#5",
                    "midi": 73,
                    "time": 858.5583333333371,
                    "velocity": 0.9763779527559056,
                    "duration": 0.0645833333334167
                },
                {
                    "name": "F3",
                    "midi": 53,
                    "time": 858.6854166666706,
                    "velocity": 0.6850393700787402,
                    "duration": 0.07916666666665151
                },
                {
                    "name": "B3",
                    "midi": 59,
                    "time": 858.7625000000039,
                    "velocity": 0.4645669291338583,
                    "duration": 0.08541666666667425
                },
                {
                    "name": "D4",
                    "midi": 62,
                    "time": 858.7854166666706,
                    "velocity": 0.6220472440944882,
                    "duration": 0.12083333333328028
                },
                {
                    "name": "G4",
                    "midi": 67,
                    "time": 858.8104166666706,
                    "velocity": 0.6850393700787402,
                    "duration": 0.07708333333334849
                },
                {
                    "name": "C#4",
                    "midi": 61,
                    "time": 858.8395833333373,
                    "velocity": 0.889763779527559,
                    "duration": 0.10000000000002274
                },
                {
                    "name": "F3",
                    "midi": 53,
                    "time": 858.9270833333372,
                    "velocity": 0.7559055118110236,
                    "duration": 0.09375
                },
                {
                    "name": "B3",
                    "midi": 59,
                    "time": 859.0187500000039,
                    "velocity": 0.6692913385826772,
                    "duration": 0.08749999999997726
                },
                {
                    "name": "D4",
                    "midi": 62,
                    "time": 859.0500000000039,
                    "velocity": 0.6929133858267716,
                    "duration": 0.11249999999995453
                },
                {
                    "name": "G4",
                    "midi": 67,
                    "time": 859.0583333333373,
                    "velocity": 0.7244094488188977,
                    "duration": 0.08124999999995453
                },
                {
                    "name": "C#3",
                    "midi": 49,
                    "time": 859.0645833333373,
                    "velocity": 0.8110236220472441,
                    "duration": 0.2479166666665833
                },
                {
                    "name": "F3",
                    "midi": 53,
                    "time": 859.1812500000038,
                    "velocity": 0.6929133858267716,
                    "duration": 0.09375
                },
                {
                    "name": "B3",
                    "midi": 59,
                    "time": 859.2645833333372,
                    "velocity": 0.7007874015748031,
                    "duration": 0.09999999999990905
                },
                {
                    "name": "C#4",
                    "midi": 61,
                    "time": 859.2937500000038,
                    "velocity": 0.889763779527559,
                    "duration": 0.09375
                },
                {
                    "name": "D4",
                    "midi": 62,
                    "time": 859.2979166666705,
                    "velocity": 0.6850393700787402,
                    "duration": 0.11458333333325754
                },
                {
                    "name": "G4",
                    "midi": 67,
                    "time": 859.3312500000038,
                    "velocity": 0.6456692913385826,
                    "duration": 0.07499999999993179
                },
                {
                    "name": "F3",
                    "midi": 53,
                    "time": 859.4291666666704,
                    "velocity": 0.5196850393700787,
                    "duration": 0.06875000000002274
                },
                {
                    "name": "B3",
                    "midi": 59,
                    "time": 859.4833333333371,
                    "velocity": 0.5669291338582677,
                    "duration": 0.08541666666678793
                },
                {
                    "name": "D4",
                    "midi": 62,
                    "time": 859.5125000000038,
                    "velocity": 0.7637795275590551,
                    "duration": 0.09375000000011369
                },
                {
                    "name": "G4",
                    "midi": 67,
                    "time": 859.5479166666705,
                    "velocity": 0.7716535433070866,
                    "duration": 0.08541666666667425
                },
                {
                    "name": "C#5",
                    "midi": 73,
                    "time": 859.5937500000039,
                    "velocity": 0.968503937007874,
                    "duration": 0.06041666666669698
                },
                {
                    "name": "F#2",
                    "midi": 42,
                    "time": 860.0479166666705,
                    "velocity": 0.9133858267716536,
                    "duration": 0.45833333333337123
                },
                {
                    "name": "A#3",
                    "midi": 58,
                    "time": 860.0479166666705,
                    "velocity": 0.952755905511811,
                    "duration": 0.38125000000002274
                },
                {
                    "name": "C#4",
                    "midi": 61,
                    "time": 860.1479166666705,
                    "velocity": 0.7322834645669292,
                    "duration": 0.11041666666665151
                },
                {
                    "name": "D#4",
                    "midi": 63,
                    "time": 860.2437500000038,
                    "velocity": 0.7952755905511811,
                    "duration": 0.12291666666669698
                },
                {
                    "name": "F#3",
                    "midi": 54,
                    "time": 860.2812500000039,
                    "velocity": 0.7559055118110236,
                    "duration": 0.4020833333332803
                },
                {
                    "name": "C#4",
                    "midi": 61,
                    "time": 860.3354166666705,
                    "velocity": 0.6850393700787402,
                    "duration": 0.12291666666669698
                },
                {
                    "name": "E4",
                    "midi": 64,
                    "time": 860.4312500000038,
                    "velocity": 0.7322834645669292,
                    "duration": 0.12083333333339397
                },
                {
                    "name": "D#4",
                    "midi": 63,
                    "time": 860.4458333333372,
                    "velocity": 0.4330708661417323,
                    "duration": 0.04166666666674246
                },
                {
                    "name": "C#3",
                    "midi": 49,
                    "time": 860.4645833333373,
                    "velocity": 0.6850393700787402,
                    "duration": 0.25624999999990905
                },
                {
                    "name": "F#2",
                    "midi": 42,
                    "time": 860.6562500000039,
                    "velocity": 0.7007874015748031,
                    "duration": 0.09583333333330302
                },
                {
                    "name": "E4",
                    "midi": 64,
                    "time": 860.6583333333372,
                    "velocity": 0.8582677165354331,
                    "duration": 0.07916666666665151
                },
                {
                    "name": "F4",
                    "midi": 65,
                    "time": 860.6729166666705,
                    "velocity": 0.5826771653543307,
                    "duration": 0.04791666666665151
                },
                {
                    "name": "F2",
                    "midi": 41,
                    "time": 860.8458333333372,
                    "velocity": 0.7322834645669292,
                    "duration": 0.35000000000002274
                },
                {
                    "name": "A3",
                    "midi": 57,
                    "time": 860.8562500000038,
                    "velocity": 0.8503937007874016,
                    "duration": 0.09375000000011369
                },
                {
                    "name": "D#4",
                    "midi": 63,
                    "time": 860.9562500000039,
                    "velocity": 0.7795275590551181,
                    "duration": 0.11041666666665151
                },
                {
                    "name": "F3",
                    "midi": 53,
                    "time": 861.056250000004,
                    "velocity": 0.5354330708661418,
                    "duration": 0.41250000000002274
                },
                {
                    "name": "F4",
                    "midi": 65,
                    "time": 861.0645833333373,
                    "velocity": 0.4881889763779528,
                    "duration": 0.09791666666660603
                },
                {
                    "name": "D#4",
                    "midi": 63,
                    "time": 861.1479166666705,
                    "velocity": 0.7795275590551181,
                    "duration": 0.10208333333332575
                },
                {
                    "name": "C3",
                    "midi": 48,
                    "time": 861.2333333333372,
                    "velocity": 0.6062992125984252,
                    "duration": 0.27291666666667425
                },
                {
                    "name": "G4",
                    "midi": 67,
                    "time": 861.2354166666705,
                    "velocity": 0.7716535433070866,
                    "duration": 0.13750000000004547
                },
                {
                    "name": "A4",
                    "midi": 69,
                    "time": 861.3500000000039,
                    "velocity": 0.6692913385826772,
                    "duration": 0.12083333333339397
                },
                {
                    "name": "F2",
                    "midi": 41,
                    "time": 861.4083333333373,
                    "velocity": 0.5118110236220472,
                    "duration": 0.06458333333330302
                },
                {
                    "name": "F4",
                    "midi": 65,
                    "time": 861.4166666666706,
                    "velocity": 0.6614173228346457,
                    "duration": 0.10624999999993179
                },
                {
                    "name": "D#4",
                    "midi": 63,
                    "time": 861.5083333333372,
                    "velocity": 0.8346456692913385,
                    "duration": 0.08541666666667425
                },
                {
                    "name": "A2",
                    "midi": 45,
                    "time": 861.5916666666706,
                    "velocity": 0.84251968503937,
                    "duration": 0.3583333333332348
                },
                {
                    "name": "C#4",
                    "midi": 61,
                    "time": 861.6020833333372,
                    "velocity": 0.8976377952755905,
                    "duration": 0.07708333333334849
                },
                {
                    "name": "E4",
                    "midi": 64,
                    "time": 861.7062500000038,
                    "velocity": 0.6299212598425197,
                    "duration": 0.09791666666671972
                },
                {
                    "name": "A3",
                    "midi": 57,
                    "time": 861.7833333333372,
                    "velocity": 0.5905511811023622,
                    "duration": 0.2687500000000682
                },
                {
                    "name": "F#4",
                    "midi": 66,
                    "time": 861.8000000000038,
                    "velocity": 0.7874015748031497,
                    "duration": 0.10833333333334849
                },
                {
                    "name": "E4",
                    "midi": 64,
                    "time": 861.9083333333372,
                    "velocity": 0.5354330708661418,
                    "duration": 0.08958333333339397
                },
                {
                    "name": "E3",
                    "midi": 52,
                    "time": 861.9791666666705,
                    "velocity": 0.6850393700787402,
                    "duration": 0.23125000000004547
                },
                {
                    "name": "G4",
                    "midi": 67,
                    "time": 861.9833333333372,
                    "velocity": 0.8110236220472441,
                    "duration": 0.06875000000002274
                },
                {
                    "name": "G4",
                    "midi": 67,
                    "time": 862.1770833333372,
                    "velocity": 0.8582677165354331,
                    "duration": 0.07916666666665151
                },
                {
                    "name": "A2",
                    "midi": 45,
                    "time": 862.1791666666705,
                    "velocity": 0.6456692913385826,
                    "duration": 0.07083333333332575
                },
                {
                    "name": "G#2",
                    "midi": 44,
                    "time": 862.3625000000039,
                    "velocity": 0.8503937007874016,
                    "duration": 0.18541666666681067
                },
                {
                    "name": "C4",
                    "midi": 60,
                    "time": 862.3666666666707,
                    "velocity": 0.84251968503937,
                    "duration": 0.09166666666669698
                },
                {
                    "name": "F#4",
                    "midi": 66,
                    "time": 862.4625000000041,
                    "velocity": 0.7637795275590551,
                    "duration": 0.11249999999995453
                },
                {
                    "name": "G#3",
                    "midi": 56,
                    "time": 862.550000000004,
                    "velocity": 0.7007874015748031,
                    "duration": 0.1999999999999318
                },
                {
                    "name": "G#4",
                    "midi": 68,
                    "time": 862.5645833333374,
                    "velocity": 0.7559055118110236,
                    "duration": 0.09791666666660603
                },
                {
                    "name": "F#4",
                    "midi": 66,
                    "time": 862.656250000004,
                    "velocity": 0.7559055118110236,
                    "duration": 0.10208333333332575
                },
                {
                    "name": "D#3",
                    "midi": 51,
                    "time": 862.7354166666706,
                    "velocity": 0.6692913385826772,
                    "duration": 0.17708333333314386
                },
                {
                    "name": "A#4",
                    "midi": 70,
                    "time": 862.7395833333374,
                    "velocity": 0.84251968503937,
                    "duration": 0.12708333333318933
                },
                {
                    "name": "C5",
                    "midi": 72,
                    "time": 862.8395833333373,
                    "velocity": 0.6456692913385826,
                    "duration": 0.13124999999979536
                },
                {
                    "name": "G#2",
                    "midi": 44,
                    "time": 862.8937500000038,
                    "velocity": 0.48031496062992124,
                    "duration": 0.03749999999990905
                },
                {
                    "name": "G#4",
                    "midi": 68,
                    "time": 862.9208333333371,
                    "velocity": 0.8110236220472441,
                    "duration": 0.11041666666653782
                },
                {
                    "name": "F#4",
                    "midi": 66,
                    "time": 862.9979166666703,
                    "velocity": 0.7874015748031497,
                    "duration": 0.07708333333334849
                },
                {
                    "name": "G3",
                    "midi": 55,
                    "time": 863.1041666666704,
                    "velocity": 0.8582677165354331,
                    "duration": 0.07708333333334849
                },
                {
                    "name": "C4",
                    "midi": 60,
                    "time": 863.1083333333371,
                    "velocity": 0.889763779527559,
                    "duration": 0.07083333333332575
                },
                {
                    "name": "E4",
                    "midi": 64,
                    "time": 863.1125000000038,
                    "velocity": 0.8110236220472441,
                    "duration": 0.09999999999990905
                },
                {
                    "name": "C3",
                    "midi": 48,
                    "time": 863.1145833333371,
                    "velocity": 0.7795275590551181,
                    "duration": 0.08958333333328028
                },
                {
                    "name": "G4",
                    "midi": 67,
                    "time": 863.2062500000037,
                    "velocity": 0.7716535433070866,
                    "duration": 0.11458333333337123
                },
                {
                    "name": "A4",
                    "midi": 69,
                    "time": 863.2979166666704,
                    "velocity": 0.6771653543307087,
                    "duration": 0.09791666666671972
                },
                {
                    "name": "G4",
                    "midi": 67,
                    "time": 863.3666666666704,
                    "velocity": 0.7874015748031497,
                    "duration": 0.08541666666667425
                },
                {
                    "name": "B2",
                    "midi": 47,
                    "time": 863.4562500000038,
                    "velocity": 0.6929133858267716,
                    "duration": 0.09791666666683341
                },
                {
                    "name": "D#4",
                    "midi": 63,
                    "time": 863.4687500000039,
                    "velocity": 0.8503937007874016,
                    "duration": 0.0625
                },
                {
                    "name": "B3",
                    "midi": 59,
                    "time": 863.4708333333372,
                    "velocity": 0.9212598425196851,
                    "duration": 0.07500000000004547
                },
                {
                    "name": "F#3",
                    "midi": 54,
                    "time": 863.4729166666705,
                    "velocity": 0.937007874015748,
                    "duration": 0.07708333333346218
                },
                {
                    "name": "A4",
                    "midi": 69,
                    "time": 863.4854166666705,
                    "velocity": 0.7165354330708661,
                    "duration": 0.09166666666681067
                },
                {
                    "name": "A4",
                    "midi": 69,
                    "time": 863.6645833333373,
                    "velocity": 0.7637795275590551,
                    "duration": 0.07916666666665151
                },
                {
                    "name": "A3",
                    "midi": 57,
                    "time": 863.8416666666707,
                    "velocity": 0.8346456692913385,
                    "duration": 0.06458333333353039
                },
                {
                    "name": "D4",
                    "midi": 62,
                    "time": 863.8416666666707,
                    "velocity": 0.9133858267716536,
                    "duration": 0.022916666666787933
                },
                {
                    "name": "D3",
                    "midi": 50,
                    "time": 863.8458333333374,
                    "velocity": 0.84251968503937,
                    "duration": 0.07083333333343944
                },
                {
                    "name": "F#4",
                    "midi": 66,
                    "time": 863.8520833333374,
                    "velocity": 0.889763779527559,
                    "duration": 0.05000000000006821
                },
                {
                    "name": "A4",
                    "midi": 69,
                    "time": 863.9312500000042,
                    "velocity": 0.6771653543307087,
                    "duration": 0.11041666666665151
                },
                {
                    "name": "B4",
                    "midi": 71,
                    "time": 864.0437500000041,
                    "velocity": 0.6771653543307087,
                    "duration": 0.10208333333332575
                },
                {
                    "name": "A4",
                    "midi": 69,
                    "time": 864.1062500000041,
                    "velocity": 0.49606299212598426,
                    "duration": 0.08124999999995453
                },
                {
                    "name": "B4",
                    "midi": 71,
                    "time": 864.1958333333374,
                    "velocity": 0.7637795275590551,
                    "duration": 0.09375000000011369
                },
                {
                    "name": "F4",
                    "midi": 65,
                    "time": 864.2020833333374,
                    "velocity": 0.7322834645669292,
                    "duration": 0.0645833333334167
                },
                {
                    "name": "C#3",
                    "midi": 49,
                    "time": 864.2083333333375,
                    "velocity": 0.9291338582677166,
                    "duration": 0.07291666666674246
                },
                {
                    "name": "C#4",
                    "midi": 61,
                    "time": 864.2125000000042,
                    "velocity": 0.9921259842519685,
                    "duration": 0.045833333333234805
                },
                {
                    "name": "G#3",
                    "midi": 56,
                    "time": 864.2145833333375,
                    "velocity": 0.8976377952755905,
                    "duration": 0.04791666666665151
                },
                {
                    "name": "B4",
                    "midi": 71,
                    "time": 864.4104166666708,
                    "velocity": 0.8582677165354331,
                    "duration": 0.07500000000004547
                },
                {
                    "name": "E3",
                    "midi": 52,
                    "time": 864.5645833333375,
                    "velocity": 0.8110236220472441,
                    "duration": 0.09374999999988631
                },
                {
                    "name": "B3",
                    "midi": 59,
                    "time": 864.5708333333375,
                    "velocity": 0.9212598425196851,
                    "duration": 0.06249999999988631
                },
                {
                    "name": "E4",
                    "midi": 64,
                    "time": 864.5729166666708,
                    "velocity": 0.9133858267716536,
                    "duration": 0.060416666666583296
                },
                {
                    "name": "G#4",
                    "midi": 68,
                    "time": 864.5895833333375,
                    "velocity": 0.8818897637795275,
                    "duration": 0.07291666666662877
                },
                {
                    "name": "B4",
                    "midi": 71,
                    "time": 864.6666666666708,
                    "velocity": 0.5748031496062992,
                    "duration": 0.11666666666667425
                },
                {
                    "name": "C#5",
                    "midi": 73,
                    "time": 864.7666666666709,
                    "velocity": 0.7322834645669292,
                    "duration": 0.12083333333339397
                },
                {
                    "name": "B4",
                    "midi": 71,
                    "time": 864.8583333333376,
                    "velocity": 0.5039370078740157,
                    "duration": 0.10000000000013642
                },
                {
                    "name": "C#5",
                    "midi": 73,
                    "time": 864.9416666666709,
                    "velocity": 0.7874015748031497,
                    "duration": 0.08750000000020464
                },
                {
                    "name": "D#3",
                    "midi": 51,
                    "time": 864.954166666671,
                    "velocity": 0.8582677165354331,
                    "duration": 0.06250000000011369
                },
                {
                    "name": "D#4",
                    "midi": 63,
                    "time": 864.9583333333377,
                    "velocity": 1,
                    "duration": 0.05416666666678793
                },
                {
                    "name": "A#3",
                    "midi": 58,
                    "time": 864.960416666671,
                    "velocity": 0.8976377952755905,
                    "duration": 0.052083333333484916
                },
                {
                    "name": "F4",
                    "midi": 65,
                    "time": 864.9625000000043,
                    "velocity": 0.4645669291338583,
                    "duration": 0.04375000000015916
                },
                {
                    "name": "G4",
                    "midi": 67,
                    "time": 864.9687500000043,
                    "velocity": 0.3937007874015748,
                    "duration": 0.04583333333346218
                },
                {
                    "name": "D4",
                    "midi": 62,
                    "time": 864.9895833333377,
                    "velocity": 0.4645669291338583,
                    "duration": 0.05000000000006821
                },
                {
                    "name": "C#5",
                    "midi": 73,
                    "time": 865.1416666666711,
                    "velocity": 0.889763779527559,
                    "duration": 0.07083333333332575
                },
                {
                    "name": "F#4",
                    "midi": 66,
                    "time": 865.3145833333377,
                    "velocity": 0.9921259842519685,
                    "duration": 0.0645833333334167
                },
                {
                    "name": "F#3",
                    "midi": 54,
                    "time": 865.3208333333378,
                    "velocity": 0.8582677165354331,
                    "duration": 0.0791666666667652
                },
                {
                    "name": "C#4",
                    "midi": 61,
                    "time": 865.3250000000045,
                    "velocity": 0.8267716535433071,
                    "duration": 0.04583333333334849
                },
                {
                    "name": "G#3",
                    "midi": 56,
                    "time": 865.3375000000045,
                    "velocity": 0.7007874015748031,
                    "duration": 0.03125
                },
                {
                    "name": "B4",
                    "midi": 71,
                    "time": 865.3479166666712,
                    "velocity": 0.6614173228346457,
                    "duration": 0.07291666666674246
                },
                {
                    "name": "C5",
                    "midi": 72,
                    "time": 865.3625000000045,
                    "velocity": 0.6929133858267716,
                    "duration": 0.04166666666674246
                },
                {
                    "name": "D5",
                    "midi": 74,
                    "time": 865.4145833333379,
                    "velocity": 0.6771653543307087,
                    "duration": 0.06666666666671972
                },
                {
                    "name": "D#5",
                    "midi": 75,
                    "time": 865.5229166666712,
                    "velocity": 0.6929133858267716,
                    "duration": 0.10208333333332575
                },
                {
                    "name": "C#5",
                    "midi": 73,
                    "time": 865.6062500000046,
                    "velocity": 0.8346456692913385,
                    "duration": 0.08749999999997726
                },
                {
                    "name": "F3",
                    "midi": 53,
                    "time": 865.6770833333379,
                    "velocity": 0.6614173228346457,
                    "duration": 0.08749999999986358
                },
                {
                    "name": "D#5",
                    "midi": 75,
                    "time": 865.689583333338,
                    "velocity": 0.8267716535433071,
                    "duration": 0.09374999999977263
                },
                {
                    "name": "F4",
                    "midi": 65,
                    "time": 865.6916666666713,
                    "velocity": 0.952755905511811,
                    "duration": 0.06458333333318933
                },
                {
                    "name": "C4",
                    "midi": 60,
                    "time": 865.6937500000046,
                    "velocity": 0.9448818897637795,
                    "duration": 0.060416666666583296
                },
                {
                    "name": "A4",
                    "midi": 69,
                    "time": 865.7083333333379,
                    "velocity": 0.7086614173228346,
                    "duration": 0.045833333333234805
                },
                {
                    "name": "D#5",
                    "midi": 75,
                    "time": 865.8958333333377,
                    "velocity": 0.952755905511811,
                    "duration": 0.07500000000004547
                },
                {
                    "name": "F4",
                    "midi": 65,
                    "time": 866.0562500000044,
                    "velocity": 0.984251968503937,
                    "duration": 0.0625
                },
                {
                    "name": "A#3",
                    "midi": 58,
                    "time": 866.0583333333377,
                    "velocity": 0.984251968503937,
                    "duration": 0.07291666666674246
                },
                {
                    "name": "D5",
                    "midi": 74,
                    "time": 866.2270833333378,
                    "velocity": 0.5748031496062992,
                    "duration": 0.0625
                },
                {
                    "name": "E5",
                    "midi": 76,
                    "time": 866.2333333333378,
                    "velocity": 0.6614173228346457,
                    "duration": 0.0625
                },
                {
                    "name": "G#5",
                    "midi": 80,
                    "time": 866.2895833333378,
                    "velocity": 0.5984251968503937,
                    "duration": 0.07708333333334849
                },
                {
                    "name": "C6",
                    "midi": 84,
                    "time": 866.3458333333377,
                    "velocity": 0.6535433070866141,
                    "duration": 0.09166666666669698
                },
                {
                    "name": "E6",
                    "midi": 88,
                    "time": 866.3812500000045,
                    "velocity": 0.5590551181102362,
                    "duration": 0.07916666666665151
                },
                {
                    "name": "A#6",
                    "midi": 94,
                    "time": 866.4395833333377,
                    "velocity": 0.9921259842519685,
                    "duration": 0.06041666666669698
                },
                {
                    "name": "E5",
                    "midi": 76,
                    "time": 866.5312500000044,
                    "velocity": 0.5118110236220472,
                    "duration": 0.05416666666678793
                },
                {
                    "name": "D5",
                    "midi": 74,
                    "time": 866.5375000000045,
                    "velocity": 0.47244094488188976,
                    "duration": 0.043750000000045475
                },
                {
                    "name": "G#5",
                    "midi": 80,
                    "time": 866.5895833333379,
                    "velocity": 0.5826771653543307,
                    "duration": 0.07499999999993179
                },
                {
                    "name": "C6",
                    "midi": 84,
                    "time": 866.627083333338,
                    "velocity": 0.5984251968503937,
                    "duration": 0.08541666666656056
                },
                {
                    "name": "E6",
                    "midi": 88,
                    "time": 866.6375000000046,
                    "velocity": 0.6929133858267716,
                    "duration": 0.09375
                },
                {
                    "name": "A#5",
                    "midi": 82,
                    "time": 866.7125000000045,
                    "velocity": 0.9448818897637795,
                    "duration": 0.06875000000002274
                },
                {
                    "name": "G#5",
                    "midi": 80,
                    "time": 866.7250000000046,
                    "velocity": 0.7952755905511811,
                    "duration": 0.08749999999997726
                },
                {
                    "name": "E5",
                    "midi": 76,
                    "time": 866.7875000000046,
                    "velocity": 0.5748031496062992,
                    "duration": 0.08333333333325754
                },
                {
                    "name": "D5",
                    "midi": 74,
                    "time": 866.7895833333379,
                    "velocity": 0.5039370078740157,
                    "duration": 0.04166666666662877
                },
                {
                    "name": "G#5",
                    "midi": 80,
                    "time": 866.8416666666711,
                    "velocity": 0.48031496062992124,
                    "duration": 0.07291666666674246
                },
                {
                    "name": "C6",
                    "midi": 84,
                    "time": 866.8666666666711,
                    "velocity": 0.6614173228346457,
                    "duration": 0.06875000000013642
                },
                {
                    "name": "E6",
                    "midi": 88,
                    "time": 866.8750000000045,
                    "velocity": 0.7716535433070866,
                    "duration": 0.09375
                },
                {
                    "name": "A#4",
                    "midi": 70,
                    "time": 866.9437500000046,
                    "velocity": 0.8976377952755905,
                    "duration": 0.1437500000000682
                },
                {
                    "name": "E5",
                    "midi": 76,
                    "time": 867.0458333333379,
                    "velocity": 0.6220472440944882,
                    "duration": 0.08541666666678793
                },
                {
                    "name": "D5",
                    "midi": 74,
                    "time": 867.0500000000046,
                    "velocity": 0.5511811023622047,
                    "duration": 0.04166666666674246
                },
                {
                    "name": "G#5",
                    "midi": 80,
                    "time": 867.0979166666714,
                    "velocity": 0.6929133858267716,
                    "duration": 0.14791666666678793
                },
                {
                    "name": "C6",
                    "midi": 84,
                    "time": 867.1312500000047,
                    "velocity": 0.6692913385826772,
                    "duration": 0.06875000000013642
                },
                {
                    "name": "E6",
                    "midi": 88,
                    "time": 867.152083333338,
                    "velocity": 0.6141732283464567,
                    "duration": 0.0791666666667652
                },
                {
                    "name": "A#5",
                    "midi": 82,
                    "time": 867.1562500000048,
                    "velocity": 0.9133858267716536,
                    "duration": 0.07083333333332575
                },
                {
                    "name": "E5",
                    "midi": 76,
                    "time": 867.2729166666714,
                    "velocity": 0.7716535433070866,
                    "duration": 0.09999999999990905
                },
                {
                    "name": "G#5",
                    "midi": 80,
                    "time": 867.3458333333381,
                    "velocity": 0.7165354330708661,
                    "duration": 0.07916666666665151
                },
                {
                    "name": "C6",
                    "midi": 84,
                    "time": 867.3770833333381,
                    "velocity": 0.7716535433070866,
                    "duration": 0.10208333333321207
                },
                {
                    "name": "E6",
                    "midi": 88,
                    "time": 867.395833333338,
                    "velocity": 0.7795275590551181,
                    "duration": 0.08124999999995453
                },
                {
                    "name": "A#6",
                    "midi": 94,
                    "time": 867.427083333338,
                    "velocity": 1,
                    "duration": 0.060416666666583296
                },
                {
                    "name": "G#3",
                    "midi": 56,
                    "time": 867.8437500000045,
                    "velocity": 0.8503937007874016,
                    "duration": 0.07291666666674246
                },
                {
                    "name": "G#4",
                    "midi": 68,
                    "time": 867.8458333333379,
                    "velocity": 1,
                    "duration": 0.0791666666667652
                },
                {
                    "name": "C5",
                    "midi": 72,
                    "time": 867.9750000000046,
                    "velocity": 0.6929133858267716,
                    "duration": 0.06875000000002274
                },
                {
                    "name": "F#5",
                    "midi": 78,
                    "time": 868.0375000000046,
                    "velocity": 0.5590551181102362,
                    "duration": 0.08749999999997726
                },
                {
                    "name": "A#5",
                    "midi": 82,
                    "time": 868.0812500000046,
                    "velocity": 0.7007874015748031,
                    "duration": 0.09999999999990905
                },
                {
                    "name": "D6",
                    "midi": 86,
                    "time": 868.0916666666712,
                    "velocity": 0.7952755905511811,
                    "duration": 0.08749999999997726
                },
                {
                    "name": "G#6",
                    "midi": 92,
                    "time": 868.2000000000045,
                    "velocity": 1,
                    "duration": 0.054166666666674246
                },
                {
                    "name": "C5",
                    "midi": 72,
                    "time": 868.2854166666712,
                    "velocity": 0.2992125984251969,
                    "duration": 0.04583333333334849
                },
                {
                    "name": "F#5",
                    "midi": 78,
                    "time": 868.3375000000045,
                    "velocity": 0.6377952755905512,
                    "duration": 0.07916666666665151
                },
                {
                    "name": "A#5",
                    "midi": 82,
                    "time": 868.3708333333378,
                    "velocity": 0.7086614173228346,
                    "duration": 0.07083333333332575
                },
                {
                    "name": "D6",
                    "midi": 86,
                    "time": 868.3875000000045,
                    "velocity": 0.7244094488188977,
                    "duration": 0.058333333333393966
                },
                {
                    "name": "G#5",
                    "midi": 80,
                    "time": 868.4812500000046,
                    "velocity": 0.9291338582677166,
                    "duration": 0.0625
                },
                {
                    "name": "F#5",
                    "midi": 78,
                    "time": 868.4937500000046,
                    "velocity": 0.8188976377952756,
                    "duration": 0.05624999999997726
                },
                {
                    "name": "C5",
                    "midi": 72,
                    "time": 868.5416666666713,
                    "velocity": 0.5511811023622047,
                    "duration": 0.049999999999954525
                },
                {
                    "name": "F#5",
                    "midi": 78,
                    "time": 868.6062500000046,
                    "velocity": 0.7559055118110236,
                    "duration": 0.06874999999990905
                },
                {
                    "name": "A#5",
                    "midi": 82,
                    "time": 868.6333333333379,
                    "velocity": 0.7480314960629921,
                    "duration": 0.07499999999993179
                },
                {
                    "name": "D6",
                    "midi": 86,
                    "time": 868.6500000000045,
                    "velocity": 0.7086614173228346,
                    "duration": 0.04374999999993179
                },
                {
                    "name": "G#4",
                    "midi": 68,
                    "time": 868.7208333333379,
                    "velocity": 0.8582677165354331,
                    "duration": 0.11458333333337123
                },
                {
                    "name": "C5",
                    "midi": 72,
                    "time": 868.7958333333379,
                    "velocity": 0.7244094488188977,
                    "duration": 0.07083333333332575
                },
                {
                    "name": "F#5",
                    "midi": 78,
                    "time": 868.8645833333379,
                    "velocity": 0.7322834645669292,
                    "duration": 0.08333333333337123
                },
                {
                    "name": "A#5",
                    "midi": 82,
                    "time": 868.9020833333379,
                    "velocity": 0.6692913385826772,
                    "duration": 0.06041666666669698
                },
                {
                    "name": "D6",
                    "midi": 86,
                    "time": 868.9166666666713,
                    "velocity": 0.49606299212598426,
                    "duration": 0.06666666666671972
                },
                {
                    "name": "G#5",
                    "midi": 80,
                    "time": 868.939583333338,
                    "velocity": 0.9291338582677166,
                    "duration": 0.058333333333393966
                },
                {
                    "name": "C5",
                    "midi": 72,
                    "time": 869.0437500000047,
                    "velocity": 0.5669291338582677,
                    "duration": 0.08541666666667425
                },
                {
                    "name": "F#5",
                    "midi": 78,
                    "time": 869.1187500000048,
                    "velocity": 0.7480314960629921,
                    "duration": 0.0625
                },
                {
                    "name": "A#5",
                    "midi": 82,
                    "time": 869.1604166666714,
                    "velocity": 0.8188976377952756,
                    "duration": 0.07291666666674246
                },
                {
                    "name": "D6",
                    "midi": 86,
                    "time": 869.1750000000047,
                    "velocity": 0.7401574803149606,
                    "duration": 0.08125000000006821
                },
                {
                    "name": "G#6",
                    "midi": 92,
                    "time": 869.1979166666714,
                    "velocity": 0.952755905511811,
                    "duration": 0.05000000000006821
                },
                {
                    "name": "F#3",
                    "midi": 54,
                    "time": 869.5895833333382,
                    "velocity": 0.8188976377952756,
                    "duration": 0.05416666666678793
                },
                {
                    "name": "F#4",
                    "midi": 66,
                    "time": 869.5937500000049,
                    "velocity": 0.9763779527559056,
                    "duration": 0.07291666666674246
                },
                {
                    "name": "A#4",
                    "midi": 70,
                    "time": 869.7229166666716,
                    "velocity": 0.7874015748031497,
                    "duration": 0.0625
                },
                {
                    "name": "E5",
                    "midi": 76,
                    "time": 869.7916666666716,
                    "velocity": 0.6141732283464567,
                    "duration": 0.09375
                },
                {
                    "name": "G5",
                    "midi": 79,
                    "time": 869.8250000000049,
                    "velocity": 0.6299212598425197,
                    "duration": 0.1583333333335304
                },
                {
                    "name": "C6",
                    "midi": 84,
                    "time": 869.8604166666717,
                    "velocity": 0.5669291338582677,
                    "duration": 0.07500000000004547
                },
                {
                    "name": "A#5",
                    "midi": 82,
                    "time": 869.8708333333383,
                    "velocity": 0.4015748031496063,
                    "duration": 0.06041666666669698
                },
                {
                    "name": "F#6",
                    "midi": 90,
                    "time": 869.9479166666717,
                    "velocity": 0.984251968503937,
                    "duration": 0.054166666666674246
                },
                {
                    "name": "A#4",
                    "midi": 70,
                    "time": 870.0395833333384,
                    "velocity": 0.7480314960629921,
                    "duration": 0.06041666666669698
                },
                {
                    "name": "E5",
                    "midi": 76,
                    "time": 870.1104166666718,
                    "velocity": 0.48031496062992124,
                    "duration": 0.07291666666674246
                },
                {
                    "name": "G5",
                    "midi": 79,
                    "time": 870.1354166666717,
                    "velocity": 0.5590551181102362,
                    "duration": 0.1437500000001819
                },
                {
                    "name": "C6",
                    "midi": 84,
                    "time": 870.1791666666718,
                    "velocity": 0.44881889763779526,
                    "duration": 0.047916666666765195
                },
                {
                    "name": "A#5",
                    "midi": 82,
                    "time": 870.1875000000052,
                    "velocity": 0.3464566929133858,
                    "duration": 0.0625
                },
                {
                    "name": "F#5",
                    "midi": 78,
                    "time": 870.2291666666719,
                    "velocity": 0.9448818897637795,
                    "duration": 0.08541666666667425
                },
                {
                    "name": "A#4",
                    "midi": 70,
                    "time": 870.2958333333386,
                    "velocity": 0.7322834645669292,
                    "duration": 0.07291666666662877
                },
                {
                    "name": "E5",
                    "midi": 76,
                    "time": 870.3854166666719,
                    "velocity": 0.5511811023622047,
                    "duration": 0.054166666666674246
                },
                {
                    "name": "G5",
                    "midi": 79,
                    "time": 870.4062500000052,
                    "velocity": 0.5826771653543307,
                    "duration": 0.14583333333337123
                },
                {
                    "name": "G#5",
                    "midi": 80,
                    "time": 870.4229166666719,
                    "velocity": 0.5039370078740157,
                    "duration": 0.08333333333337123
                },
                {
                    "name": "C6",
                    "midi": 84,
                    "time": 870.4312500000052,
                    "velocity": 0.7244094488188977,
                    "duration": 0.07708333333334849
                },
                {
                    "name": "A#5",
                    "midi": 82,
                    "time": 870.4458333333386,
                    "velocity": 0.5118110236220472,
                    "duration": 0.07708333333334849
                },
                {
                    "name": "F#4",
                    "midi": 66,
                    "time": 870.4750000000053,
                    "velocity": 0.905511811023622,
                    "duration": 0.08749999999997726
                },
                {
                    "name": "A#4",
                    "midi": 70,
                    "time": 870.5729166666719,
                    "velocity": 0.7086614173228346,
                    "duration": 0.06875000000002274
                },
                {
                    "name": "E5",
                    "midi": 76,
                    "time": 870.6520833333385,
                    "velocity": 0.5354330708661418,
                    "duration": 0.1250000000001137
                },
                {
                    "name": "F#5",
                    "midi": 78,
                    "time": 870.6958333333386,
                    "velocity": 1,
                    "duration": 0.06041666666669698
                },
                {
                    "name": "G5",
                    "midi": 79,
                    "time": 870.7104166666719,
                    "velocity": 0.3700787401574803,
                    "duration": 0.09375
                },
                {
                    "name": "A#4",
                    "midi": 70,
                    "time": 870.8062500000052,
                    "velocity": 0.8346456692913385,
                    "duration": 0.07916666666665151
                },
                {
                    "name": "E5",
                    "midi": 76,
                    "time": 870.8750000000052,
                    "velocity": 0.047244094488188976,
                    "duration": 0.09791666666660603
                },
                {
                    "name": "G5",
                    "midi": 79,
                    "time": 870.9104166666718,
                    "velocity": 0.6850393700787402,
                    "duration": 0.11458333333337123
                },
                {
                    "name": "C6",
                    "midi": 84,
                    "time": 870.9666666666718,
                    "velocity": 0.7716535433070866,
                    "duration": 0.08333333333337123
                },
                {
                    "name": "F#6",
                    "midi": 90,
                    "time": 871.0020833333385,
                    "velocity": 1,
                    "duration": 0.05833333333328028
                },
                {
                    "name": "E2",
                    "midi": 40,
                    "time": 871.5854166666718,
                    "velocity": 0.7559055118110236,
                    "duration": 0.06875000000002274
                },
                {
                    "name": "G#3",
                    "midi": 56,
                    "time": 871.5895833333385,
                    "velocity": 0.8976377952755905,
                    "duration": 0.0625
                },
                {
                    "name": "E3",
                    "midi": 52,
                    "time": 871.5937500000052,
                    "velocity": 0.9133858267716536,
                    "duration": 0.05624999999997726
                },
                {
                    "name": "E4",
                    "midi": 64,
                    "time": 871.5958333333385,
                    "velocity": 0.7795275590551181,
                    "duration": 0.11666666666667425
                },
                {
                    "name": "D4",
                    "midi": 62,
                    "time": 871.6000000000053,
                    "velocity": 0.7165354330708661,
                    "duration": 0.05208333333325754
                },
                {
                    "name": "F4",
                    "midi": 65,
                    "time": 871.8645833333385,
                    "velocity": 0.8346456692913385,
                    "duration": 0.08541666666678793
                },
                {
                    "name": "G3",
                    "midi": 55,
                    "time": 871.8645833333385,
                    "velocity": 0.7795275590551181,
                    "duration": 0.06041666666681067
                },
                {
                    "name": "C#4",
                    "midi": 61,
                    "time": 871.8687500000052,
                    "velocity": 0.8582677165354331,
                    "duration": 0.08750000000009095
                },
                {
                    "name": "D#3",
                    "midi": 51,
                    "time": 871.8812500000053,
                    "velocity": 0.9291338582677166,
                    "duration": 0.07708333333334849
                },
                {
                    "name": "D#2",
                    "midi": 39,
                    "time": 871.8875000000053,
                    "velocity": 0.7874015748031497,
                    "duration": 0.10416666666662877
                },
                {
                    "name": "A3",
                    "midi": 57,
                    "time": 871.8958333333386,
                    "velocity": 0.3937007874015748,
                    "duration": 0.04791666666665151
                },
                {
                    "name": "C4",
                    "midi": 60,
                    "time": 872.1395833333386,
                    "velocity": 0.7874015748031497,
                    "duration": 0.08333333333337123
                },
                {
                    "name": "F#3",
                    "midi": 54,
                    "time": 872.1479166666719,
                    "velocity": 0.8818897637795275,
                    "duration": 0.06041666666669698
                },
                {
                    "name": "F#4",
                    "midi": 66,
                    "time": 872.1479166666719,
                    "velocity": 0.8346456692913385,
                    "duration": 0.13125000000002274
                },
                {
                    "name": "D2",
                    "midi": 38,
                    "time": 872.1500000000052,
                    "velocity": 0.7322834645669292,
                    "duration": 0.06041666666669698
                },
                {
                    "name": "D3",
                    "midi": 50,
                    "time": 872.1500000000052,
                    "velocity": 0.889763779527559,
                    "duration": 0.06041666666669698
                },
                {
                    "name": "E2",
                    "midi": 40,
                    "time": 872.1708333333386,
                    "velocity": 0.5354330708661418,
                    "duration": 0.039583333333325754
                },
                {
                    "name": "C#2",
                    "midi": 37,
                    "time": 872.4125000000053,
                    "velocity": 0.8110236220472441,
                    "duration": 0.02500000000009095
                },
                {
                    "name": "B3",
                    "midi": 59,
                    "time": 872.4125000000053,
                    "velocity": 0.8582677165354331,
                    "duration": 0.06250000000011369
                },
                {
                    "name": "G4",
                    "midi": 67,
                    "time": 872.416666666672,
                    "velocity": 0.8346456692913385,
                    "duration": 0.0812500000001819
                },
                {
                    "name": "C#3",
                    "midi": 49,
                    "time": 872.416666666672,
                    "velocity": 0.968503937007874,
                    "duration": 0.06666666666683341
                },
                {
                    "name": "D#2",
                    "midi": 39,
                    "time": 872.4312500000053,
                    "velocity": 0.7401574803149606,
                    "duration": 0.047916666666765195
                },
                {
                    "name": "G#4",
                    "midi": 68,
                    "time": 872.6812500000054,
                    "velocity": 0.8818897637795275,
                    "duration": 0.10416666666674246
                },
                {
                    "name": "C4",
                    "midi": 60,
                    "time": 872.6854166666722,
                    "velocity": 0.8503937007874016,
                    "duration": 0.05624999999997726
                },
                {
                    "name": "F#4",
                    "midi": 66,
                    "time": 872.6875000000055,
                    "velocity": 0.8110236220472441,
                    "duration": 0.06875000000002274
                },
                {
                    "name": "G#2",
                    "midi": 44,
                    "time": 872.6895833333388,
                    "velocity": 0.84251968503937,
                    "duration": 0.08750000000009095
                },
                {
                    "name": "G#3",
                    "midi": 56,
                    "time": 872.6895833333388,
                    "velocity": 0.9448818897637795,
                    "duration": 0.06666666666671972
                },
                {
                    "name": "A4",
                    "midi": 69,
                    "time": 872.9437500000055,
                    "velocity": 0.8031496062992126,
                    "duration": 0.10833333333334849
                },
                {
                    "name": "B3",
                    "midi": 59,
                    "time": 872.9500000000055,
                    "velocity": 0.9133858267716536,
                    "duration": 0.06041666666669698
                },
                {
                    "name": "F4",
                    "midi": 65,
                    "time": 872.9541666666722,
                    "velocity": 0.7165354330708661,
                    "duration": 0.0625
                },
                {
                    "name": "G2",
                    "midi": 43,
                    "time": 872.9604166666722,
                    "velocity": 0.8188976377952756,
                    "duration": 0.05833333333328028
                },
                {
                    "name": "G3",
                    "midi": 55,
                    "time": 872.9604166666722,
                    "velocity": 0.889763779527559,
                    "duration": 0.05833333333328028
                },
                {
                    "name": "E4",
                    "midi": 64,
                    "time": 873.2333333333388,
                    "velocity": 0.7795275590551181,
                    "duration": 0.08124999999995453
                },
                {
                    "name": "A#3",
                    "midi": 58,
                    "time": 873.2354166666721,
                    "velocity": 0.9133858267716536,
                    "duration": 0.07083333333332575
                },
                {
                    "name": "A#4",
                    "midi": 70,
                    "time": 873.2375000000054,
                    "velocity": 0.8267716535433071,
                    "duration": 0.13125000000002274
                },
                {
                    "name": "F#3",
                    "midi": 54,
                    "time": 873.2437500000054,
                    "velocity": 0.952755905511811,
                    "duration": 0.07708333333334849
                },
                {
                    "name": "F#2",
                    "midi": 42,
                    "time": 873.2458333333387,
                    "velocity": 0.8582677165354331,
                    "duration": 0.06666666666671972
                },
                {
                    "name": "G#2",
                    "midi": 44,
                    "time": 873.2645833333387,
                    "velocity": 0.6929133858267716,
                    "duration": 0.029166666666696983
                },
                {
                    "name": "D#4",
                    "midi": 63,
                    "time": 873.5187500000054,
                    "velocity": 0.9763779527559056,
                    "duration": 0.06875000000002274
                },
                {
                    "name": "B4",
                    "midi": 71,
                    "time": 873.5250000000054,
                    "velocity": 0.8503937007874016,
                    "duration": 0.07500000000004547
                },
                {
                    "name": "F2",
                    "midi": 41,
                    "time": 873.5291666666722,
                    "velocity": 0.7322834645669292,
                    "duration": 0.05624999999997726
                },
                {
                    "name": "F3",
                    "midi": 53,
                    "time": 873.5291666666722,
                    "velocity": 0.9291338582677166,
                    "duration": 0.0625
                },
                {
                    "name": "G2",
                    "midi": 43,
                    "time": 873.5416666666722,
                    "velocity": 0.7952755905511811,
                    "duration": 0.03333333333330302
                },
                {
                    "name": "C5",
                    "midi": 72,
                    "time": 873.8062500000054,
                    "velocity": 0.8818897637795275,
                    "duration": 0.07916666666665151
                },
                {
                    "name": "C4",
                    "midi": 60,
                    "time": 873.8083333333387,
                    "velocity": 0.9291338582677166,
                    "duration": 0.05208333333337123
                },
                {
                    "name": "A#4",
                    "midi": 70,
                    "time": 873.810416666672,
                    "velocity": 0.8818897637795275,
                    "duration": 0.07708333333334849
                },
                {
                    "name": "E4",
                    "midi": 64,
                    "time": 873.8145833333388,
                    "velocity": 0.6614173228346457,
                    "duration": 0.04791666666665151
                },
                {
                    "name": "C3",
                    "midi": 48,
                    "time": 873.8187500000055,
                    "velocity": 0.6377952755905512,
                    "duration": 0.04791666666665151
                },
                {
                    "name": "D3",
                    "midi": 50,
                    "time": 873.8208333333388,
                    "velocity": 0.7322834645669292,
                    "duration": 0.03541666666671972
                },
                {
                    "name": "F4",
                    "midi": 65,
                    "time": 873.8229166666721,
                    "velocity": 0.7007874015748031,
                    "duration": 0.03541666666671972
                },
                {
                    "name": "C#5",
                    "midi": 73,
                    "time": 874.0833333333387,
                    "velocity": 0.8818897637795275,
                    "duration": 0.11458333333325754
                },
                {
                    "name": "D#4",
                    "midi": 63,
                    "time": 874.085416666672,
                    "velocity": 0.9448818897637795,
                    "duration": 0.054166666666674246
                },
                {
                    "name": "B3",
                    "midi": 59,
                    "time": 874.085416666672,
                    "velocity": 0.8582677165354331,
                    "duration": 0.06458333333330302
                },
                {
                    "name": "B2",
                    "midi": 47,
                    "time": 874.0875000000053,
                    "velocity": 0.8031496062992126,
                    "duration": 0.06458333333330302
                },
                {
                    "name": "A4",
                    "midi": 69,
                    "time": 874.0895833333386,
                    "velocity": 0.7165354330708661,
                    "duration": 0.07291666666662877
                },
                {
                    "name": "A3",
                    "midi": 57,
                    "time": 874.1020833333387,
                    "velocity": 0.7401574803149606,
                    "duration": 0.03750000000002274
                },
                {
                    "name": "D5",
                    "midi": 74,
                    "time": 874.3500000000053,
                    "velocity": 0.8188976377952756,
                    "duration": 0.056249999999863576
                },
                {
                    "name": "G#4",
                    "midi": 68,
                    "time": 874.3520833333386,
                    "velocity": 0.8582677165354331,
                    "duration": 0.06249999999988631
                },
                {
                    "name": "A#3",
                    "midi": 58,
                    "time": 874.3604166666719,
                    "velocity": 1,
                    "duration": 0.06666666666660603
                },
                {
                    "name": "D4",
                    "midi": 62,
                    "time": 874.3625000000052,
                    "velocity": 0.7165354330708661,
                    "duration": 0.03333333333330302
                },
                {
                    "name": "A#2",
                    "midi": 46,
                    "time": 874.3645833333385,
                    "velocity": 0.9291338582677166,
                    "duration": 0.08958333333328028
                },
                {
                    "name": "G4",
                    "midi": 67,
                    "time": 874.6000000000051,
                    "velocity": 0.8503937007874016,
                    "duration": 0.06458333333330302
                },
                {
                    "name": "D#5",
                    "midi": 75,
                    "time": 874.6062500000052,
                    "velocity": 0.889763779527559,
                    "duration": 0.10208333333321207
                },
                {
                    "name": "A3",
                    "midi": 57,
                    "time": 874.6062500000052,
                    "velocity": 0.9133858267716536,
                    "duration": 0.06249999999988631
                },
                {
                    "name": "A2",
                    "midi": 45,
                    "time": 874.6083333333385,
                    "velocity": 0.8503937007874016,
                    "duration": 0.05833333333328028
                },
                {
                    "name": "B2",
                    "midi": 47,
                    "time": 874.6416666666718,
                    "velocity": 0.3700787401574803,
                    "duration": 0.045833333333234805
                },
                {
                    "name": "G#3",
                    "midi": 56,
                    "time": 874.8541666666717,
                    "velocity": 1,
                    "duration": 0.0625
                },
                {
                    "name": "C#5",
                    "midi": 73,
                    "time": 874.8541666666717,
                    "velocity": 0.8582677165354331,
                    "duration": 0.06875000000002274
                },
                {
                    "name": "E4",
                    "midi": 64,
                    "time": 874.8583333333385,
                    "velocity": 0.84251968503937,
                    "duration": 0.03333333333330302
                },
                {
                    "name": "E5",
                    "midi": 76,
                    "time": 874.8583333333385,
                    "velocity": 0.7795275590551181,
                    "duration": 0.05624999999997726
                },
                {
                    "name": "G#2",
                    "midi": 44,
                    "time": 874.8583333333385,
                    "velocity": 0.937007874015748,
                    "duration": 0.08749999999997726
                },
                {
                    "name": "G3",
                    "midi": 55,
                    "time": 875.0979166666717,
                    "velocity": 0.9291338582677166,
                    "duration": 0.06666666666671972
                },
                {
                    "name": "G2",
                    "midi": 43,
                    "time": 875.0979166666717,
                    "velocity": 0.9291338582677166,
                    "duration": 0.06666666666671972
                },
                {
                    "name": "F5",
                    "midi": 77,
                    "time": 875.1020833333384,
                    "velocity": 0.8740157480314961,
                    "duration": 0.07083333333332575
                },
                {
                    "name": "B4",
                    "midi": 71,
                    "time": 875.1062500000052,
                    "velocity": 0.8346456692913385,
                    "duration": 0.07083333333332575
                },
                {
                    "name": "F4",
                    "midi": 65,
                    "time": 875.1083333333385,
                    "velocity": 0.8110236220472441,
                    "duration": 0.035416666666606034
                },
                {
                    "name": "G4",
                    "midi": 67,
                    "time": 875.1333333333384,
                    "velocity": 0.4566929133858268,
                    "duration": 0.05000000000006821
                },
                {
                    "name": "F#3",
                    "midi": 54,
                    "time": 875.3562500000052,
                    "velocity": 1,
                    "duration": 0.0791666666667652
                },
                {
                    "name": "F#2",
                    "midi": 42,
                    "time": 875.3625000000052,
                    "velocity": 0.952755905511811,
                    "duration": 0.10625000000004547
                },
                {
                    "name": "F#4",
                    "midi": 66,
                    "time": 875.3687500000052,
                    "velocity": 0.9763779527559056,
                    "duration": 0.058333333333393966
                },
                {
                    "name": "F#5",
                    "midi": 78,
                    "time": 875.3708333333385,
                    "velocity": 0.84251968503937,
                    "duration": 0.1250000000001137
                },
                {
                    "name": "D#5",
                    "midi": 75,
                    "time": 875.3791666666718,
                    "velocity": 0.7952755905511811,
                    "duration": 0.11250000000006821
                },
                {
                    "name": "G#2",
                    "midi": 44,
                    "time": 875.3875000000052,
                    "velocity": 0.5669291338582677,
                    "duration": 0.03541666666671972
                },
                {
                    "name": "G5",
                    "midi": 79,
                    "time": 875.641666666672,
                    "velocity": 0.8818897637795275,
                    "duration": 0.08333333333325754
                },
                {
                    "name": "D#5",
                    "midi": 75,
                    "time": 875.6437500000053,
                    "velocity": 0.9133858267716536,
                    "duration": 0.07083333333332575
                },
                {
                    "name": "G4",
                    "midi": 67,
                    "time": 875.6458333333386,
                    "velocity": 0.889763779527559,
                    "duration": 0.05208333333337123
                },
                {
                    "name": "F2",
                    "midi": 41,
                    "time": 875.6500000000053,
                    "velocity": 0.9212598425196851,
                    "duration": 0.07291666666662877
                },
                {
                    "name": "A4",
                    "midi": 69,
                    "time": 875.6500000000053,
                    "velocity": 0.8818897637795275,
                    "duration": 0.03750000000002274
                },
                {
                    "name": "F3",
                    "midi": 53,
                    "time": 875.6520833333386,
                    "velocity": 0.9606299212598425,
                    "duration": 0.06041666666669698
                },
                {
                    "name": "G#2",
                    "midi": 44,
                    "time": 875.6770833333386,
                    "velocity": 0.5905511811023622,
                    "duration": 0.03541666666671972
                },
                {
                    "name": "G2",
                    "midi": 43,
                    "time": 875.6833333333386,
                    "velocity": 0.4251968503937008,
                    "duration": 0.04583333333334849
                },
                {
                    "name": "C5",
                    "midi": 72,
                    "time": 875.9291666666719,
                    "velocity": 0.8346456692913385,
                    "duration": 0.08125000000006821
                },
                {
                    "name": "G#4",
                    "midi": 68,
                    "time": 875.9354166666719,
                    "velocity": 0.952755905511811,
                    "duration": 0.06041666666669698
                },
                {
                    "name": "G#5",
                    "midi": 80,
                    "time": 875.9375000000052,
                    "velocity": 0.9291338582677166,
                    "duration": 0.11250000000006821
                },
                {
                    "name": "E3",
                    "midi": 52,
                    "time": 875.941666666672,
                    "velocity": 0.9448818897637795,
                    "duration": 0.06041666666669698
                },
                {
                    "name": "E2",
                    "midi": 40,
                    "time": 875.941666666672,
                    "velocity": 0.8976377952755905,
                    "duration": 0.06875000000002274
                },
                {
                    "name": "F#2",
                    "midi": 42,
                    "time": 875.9708333333386,
                    "velocity": 0.5196850393700787,
                    "duration": 0.039583333333325754
                },
                {
                    "name": "C#5",
                    "midi": 73,
                    "time": 876.2312500000053,
                    "velocity": 0.937007874015748,
                    "duration": 0.05624999999997726
                },
                {
                    "name": "A5",
                    "midi": 81,
                    "time": 876.2333333333386,
                    "velocity": 0.8976377952755905,
                    "duration": 0.06666666666671972
                },
                {
                    "name": "A4",
                    "midi": 69,
                    "time": 876.2375000000052,
                    "velocity": 0.84251968503937,
                    "duration": 0.05000000000006821
                },
                {
                    "name": "D#2",
                    "midi": 39,
                    "time": 876.2375000000052,
                    "velocity": 0.8976377952755905,
                    "duration": 0.13750000000015916
                },
                {
                    "name": "D#3",
                    "midi": 51,
                    "time": 876.2395833333385,
                    "velocity": 0.984251968503937,
                    "duration": 0.10625000000015916
                },
                {
                    "name": "B4",
                    "midi": 71,
                    "time": 876.2500000000052,
                    "velocity": 0.7559055118110236,
                    "duration": 0.03333333333330302
                },
                {
                    "name": "D2",
                    "midi": 38,
                    "time": 876.5520833333387,
                    "velocity": 0.8503937007874016,
                    "duration": 0.08541666666667425
                },
                {
                    "name": "A#5",
                    "midi": 82,
                    "time": 876.5562500000053,
                    "velocity": 0.8503937007874016,
                    "duration": 0.1416666666666515
                },
                {
                    "name": "D3",
                    "midi": 50,
                    "time": 876.5562500000053,
                    "velocity": 0.9763779527559056,
                    "duration": 0.0791666666667652
                },
                {
                    "name": "A#4",
                    "midi": 70,
                    "time": 876.5583333333386,
                    "velocity": 0.968503937007874,
                    "duration": 0.08125000000006821
                },
                {
                    "name": "F5",
                    "midi": 77,
                    "time": 876.5625000000053,
                    "velocity": 0.7716535433070866,
                    "duration": 0.08541666666667425
                },
                {
                    "name": "E2",
                    "midi": 40,
                    "time": 876.579166666672,
                    "velocity": 0.6692913385826772,
                    "duration": 0.03125
                },
                {
                    "name": "C3",
                    "midi": 48,
                    "time": 876.5833333333387,
                    "velocity": 0.5669291338582677,
                    "duration": 0.039583333333325754
                },
                {
                    "name": "B5",
                    "midi": 83,
                    "time": 876.9000000000053,
                    "velocity": 0.8582677165354331,
                    "duration": 0.08749999999997726
                },
                {
                    "name": "F#5",
                    "midi": 78,
                    "time": 876.9020833333386,
                    "velocity": 0.8976377952755905,
                    "duration": 0.06875000000002274
                },
                {
                    "name": "B4",
                    "midi": 71,
                    "time": 876.9062500000053,
                    "velocity": 0.8976377952755905,
                    "duration": 0.05208333333325754
                },
                {
                    "name": "C#3",
                    "midi": 49,
                    "time": 876.9062500000053,
                    "velocity": 1,
                    "duration": 0.13541666666662877
                },
                {
                    "name": "C#2",
                    "midi": 37,
                    "time": 876.9083333333386,
                    "velocity": 0.9291338582677166,
                    "duration": 0.13750000000004547
                },
                {
                    "name": "C5",
                    "midi": 72,
                    "time": 876.916666666672,
                    "velocity": 0.84251968503937,
                    "duration": 0.03125
                },
                {
                    "name": "G#5",
                    "midi": 80,
                    "time": 876.9270833333386,
                    "velocity": 0.5748031496062992,
                    "duration": 0.03541666666671972
                },
                {
                    "name": "D#2",
                    "midi": 39,
                    "time": 876.9437500000053,
                    "velocity": 0.5196850393700787,
                    "duration": 0.03541666666671972
                },
                {
                    "name": "C6",
                    "midi": 84,
                    "time": 877.2937500000053,
                    "velocity": 0.8582677165354331,
                    "duration": 0.0916666666665833
                },
                {
                    "name": "C5",
                    "midi": 72,
                    "time": 877.2958333333386,
                    "velocity": 0.952755905511811,
                    "duration": 0.06874999999990905
                },
                {
                    "name": "C3",
                    "midi": 48,
                    "time": 877.2979166666719,
                    "velocity": 0.9921259842519685,
                    "duration": 0.10833333333334849
                },
                {
                    "name": "A#5",
                    "midi": 82,
                    "time": 877.3000000000052,
                    "velocity": 0.8503937007874016,
                    "duration": 0.08541666666667425
                },
                {
                    "name": "C2",
                    "midi": 36,
                    "time": 877.3000000000052,
                    "velocity": 0.9133858267716536,
                    "duration": 0.07291666666662877
                },
                {
                    "name": "D5",
                    "midi": 74,
                    "time": 877.3166666666718,
                    "velocity": 0.6614173228346457,
                    "duration": 0.03750000000002274
                },
                {
                    "name": "D2",
                    "midi": 38,
                    "time": 877.3187500000051,
                    "velocity": 0.7401574803149606,
                    "duration": 0.029166666666696983
                },
                {
                    "name": "G#5",
                    "midi": 80,
                    "time": 877.3270833333385,
                    "velocity": 0.48031496062992124,
                    "duration": 0.04166666666674246
                },
                {
                    "name": "F#5",
                    "midi": 78,
                    "time": 877.3333333333385,
                    "velocity": 0.33858267716535434,
                    "duration": 0.03750000000002274
                },
                {
                    "name": "B2",
                    "midi": 47,
                    "time": 877.7229166666718,
                    "velocity": 0.9606299212598425,
                    "duration": 0.2312499999999318
                },
                {
                    "name": "B1",
                    "midi": 35,
                    "time": 877.7250000000051,
                    "velocity": 0.8976377952755905,
                    "duration": 0.19583333333332575
                },
                {
                    "name": "C#6",
                    "midi": 85,
                    "time": 877.7291666666719,
                    "velocity": 0.8976377952755905,
                    "duration": 0.20624999999995453
                },
                {
                    "name": "C#5",
                    "midi": 73,
                    "time": 877.7312500000052,
                    "velocity": 0.984251968503937,
                    "duration": 0.14999999999997726
                },
                {
                    "name": "A5",
                    "midi": 81,
                    "time": 877.7375000000052,
                    "velocity": 0.8110236220472441,
                    "duration": 0.15208333333328028
                },
                {
                    "name": "A2",
                    "midi": 45,
                    "time": 877.7458333333385,
                    "velocity": 0.6377952755905512,
                    "duration": 0.039583333333325754
                },
                {
                    "name": "A#1",
                    "midi": 34,
                    "time": 878.2979166666718,
                    "velocity": 0.8976377952755905,
                    "duration": 0.24375000000020464
                },
                {
                    "name": "A#5",
                    "midi": 82,
                    "time": 878.3000000000051,
                    "velocity": 0.7637795275590551,
                    "duration": 0.23333333333357587
                },
                {
                    "name": "A#2",
                    "midi": 46,
                    "time": 878.3020833333384,
                    "velocity": 1,
                    "duration": 0.2520833333336441
                },
                {
                    "name": "D6",
                    "midi": 86,
                    "time": 878.3062500000051,
                    "velocity": 0.8818897637795275,
                    "duration": 0.18541666666681067
                },
                {
                    "name": "G#5",
                    "midi": 80,
                    "time": 878.3083333333384,
                    "velocity": 0.84251968503937,
                    "duration": 0.21041666666690162
                },
                {
                    "name": "D5",
                    "midi": 74,
                    "time": 878.3104166666717,
                    "velocity": 0.8582677165354331,
                    "duration": 0.18541666666692436
                },
                {
                    "name": "E5",
                    "midi": 76,
                    "time": 878.3229166666717,
                    "velocity": 0.84251968503937,
                    "duration": 0.027083333333393966
                },
                {
                    "name": "A#3",
                    "midi": 58,
                    "time": 879.5833333333387,
                    "velocity": 0.9448818897637795,
                    "duration": 0.1874999999998863
                },
                {
                    "name": "A#1",
                    "midi": 34,
                    "time": 879.5833333333387,
                    "velocity": 0.9763779527559056,
                    "duration": 0.16249999999990905
                },
                {
                    "name": "G#3",
                    "midi": 56,
                    "time": 879.7145833333386,
                    "velocity": 0.8976377952755905,
                    "duration": 0.19583333333321207
                },
                {
                    "name": "G#1",
                    "midi": 32,
                    "time": 879.7208333333386,
                    "velocity": 0.7874015748031497,
                    "duration": 0.17291666666653782
                },
                {
                    "name": "G1",
                    "midi": 31,
                    "time": 879.8354166666719,
                    "velocity": 0.6850393700787402,
                    "duration": 0.15625
                },
                {
                    "name": "G3",
                    "midi": 55,
                    "time": 879.8375000000052,
                    "velocity": 0.8740157480314961,
                    "duration": 0.14791666666667425
                },
                {
                    "name": "F1",
                    "midi": 29,
                    "time": 879.9312500000052,
                    "velocity": 0.7322834645669292,
                    "duration": 0.19166666666660603
                },
                {
                    "name": "F3",
                    "midi": 53,
                    "time": 879.9541666666719,
                    "velocity": 0.84251968503937,
                    "duration": 0.09791666666660603
                },
                {
                    "name": "D#3",
                    "midi": 51,
                    "time": 880.1250000000051,
                    "velocity": 1,
                    "duration": 0.2020833333333485
                },
                {
                    "name": "D#2",
                    "midi": 39,
                    "time": 880.1375000000052,
                    "velocity": 0.9921259842519685,
                    "duration": 0.28541666666660603
                },
                {
                    "name": "D#1",
                    "midi": 27,
                    "time": 880.1395833333385,
                    "velocity": 0.952755905511811,
                    "duration": 0.24166666666667425
                },
                {
                    "name": "G3",
                    "midi": 55,
                    "time": 880.7541666666717,
                    "velocity": 0.6614173228346457,
                    "duration": 0.09583333333307564
                },
                {
                    "name": "A#3",
                    "midi": 58,
                    "time": 880.781250000005,
                    "velocity": 0.7559055118110236,
                    "duration": 0.10208333333309838
                },
                {
                    "name": "D#6",
                    "midi": 87,
                    "time": 880.7895833333383,
                    "velocity": 0.9133858267716536,
                    "duration": 0.06458333333307564
                },
                {
                    "name": "D#4",
                    "midi": 63,
                    "time": 880.7916666666716,
                    "velocity": 0.9291338582677166,
                    "duration": 0.06041666666646961
                },
                {
                    "name": "D#5",
                    "midi": 75,
                    "time": 880.7937500000049,
                    "velocity": 0.984251968503937,
                    "duration": 0.05416666666656056
                },
                {
                    "name": "G4",
                    "midi": 67,
                    "time": 880.7958333333382,
                    "velocity": 0.9763779527559056,
                    "duration": 0.056249999999863576
                },
                {
                    "name": "A#5",
                    "midi": 82,
                    "time": 880.7979166666715,
                    "velocity": 0.8661417322834646,
                    "duration": 0.06458333333318933
                },
                {
                    "name": "A#1",
                    "midi": 34,
                    "time": 881.345833333338,
                    "velocity": 0.8346456692913385,
                    "duration": 0.07916666666665151
                },
                {
                    "name": "A#2",
                    "midi": 46,
                    "time": 881.3562500000046,
                    "velocity": 1,
                    "duration": 0.10625000000004547
                },
                {
                    "name": "F3",
                    "midi": 53,
                    "time": 881.8562500000046,
                    "velocity": 0.5039370078740157,
                    "duration": 0.06875000000002274
                },
                {
                    "name": "C#4",
                    "midi": 61,
                    "time": 881.8645833333379,
                    "velocity": 0.905511811023622,
                    "duration": 0.06041666666669698
                },
                {
                    "name": "C#6",
                    "midi": 85,
                    "time": 881.8666666666712,
                    "velocity": 0.9291338582677166,
                    "duration": 0.07500000000004547
                },
                {
                    "name": "F4",
                    "midi": 65,
                    "time": 881.8666666666712,
                    "velocity": 0.984251968503937,
                    "duration": 0.054166666666674246
                },
                {
                    "name": "G#3",
                    "midi": 56,
                    "time": 881.8666666666712,
                    "velocity": 0.8188976377952756,
                    "duration": 0.08333333333337123
                },
                {
                    "name": "F5",
                    "midi": 77,
                    "time": 881.8687500000045,
                    "velocity": 0.8582677165354331,
                    "duration": 0.07291666666674246
                },
                {
                    "name": "C#5",
                    "midi": 73,
                    "time": 881.8687500000045,
                    "velocity": 0.984251968503937,
                    "duration": 0.058333333333393966
                },
                {
                    "name": "G#5",
                    "midi": 80,
                    "time": 881.8729166666712,
                    "velocity": 0.8188976377952756,
                    "duration": 0.08958333333339397
                },
                {
                    "name": "D#2",
                    "midi": 39,
                    "time": 882.389583333338,
                    "velocity": 0.7637795275590551,
                    "duration": 0.07083333333343944
                },
                {
                    "name": "D#3",
                    "midi": 51,
                    "time": 882.402083333338,
                    "velocity": 1,
                    "duration": 0.06041666666669698
                },
                {
                    "name": "G3",
                    "midi": 55,
                    "time": 882.902083333338,
                    "velocity": 0.5039370078740157,
                    "duration": 0.0958333333334167
                },
                {
                    "name": "D#4",
                    "midi": 63,
                    "time": 882.9229166666714,
                    "velocity": 0.8976377952755905,
                    "duration": 0.0625
                },
                {
                    "name": "G4",
                    "midi": 67,
                    "time": 882.9270833333381,
                    "velocity": 0.9448818897637795,
                    "duration": 0.05833333333328028
                },
                {
                    "name": "A#3",
                    "midi": 58,
                    "time": 882.9291666666714,
                    "velocity": 0.7716535433070866,
                    "duration": 0.07500000000004547
                },
                {
                    "name": "D#6",
                    "midi": 87,
                    "time": 882.9312500000048,
                    "velocity": 0.9291338582677166,
                    "duration": 0.08958333333339397
                },
                {
                    "name": "G5",
                    "midi": 79,
                    "time": 882.9354166666715,
                    "velocity": 0.8503937007874016,
                    "duration": 0.07083333333332575
                },
                {
                    "name": "D#5",
                    "midi": 75,
                    "time": 882.9354166666715,
                    "velocity": 0.9763779527559056,
                    "duration": 0.05624999999997726
                },
                {
                    "name": "A#5",
                    "midi": 82,
                    "time": 882.9375000000048,
                    "velocity": 0.8267716535433071,
                    "duration": 0.09375
                },
                {
                    "name": "A#1",
                    "midi": 34,
                    "time": 883.4416666666715,
                    "velocity": 0.7480314960629921,
                    "duration": 0.06874999999990905
                },
                {
                    "name": "A#2",
                    "midi": 46,
                    "time": 883.4520833333381,
                    "velocity": 1,
                    "duration": 0.0916666666665833
                },
                {
                    "name": "F#3",
                    "midi": 54,
                    "time": 883.945833333338,
                    "velocity": 0.6535433070866141,
                    "duration": 0.06875000000002274
                },
                {
                    "name": "F#6",
                    "midi": 90,
                    "time": 883.9687500000047,
                    "velocity": 0.937007874015748,
                    "duration": 0.07291666666674246
                },
                {
                    "name": "F#5",
                    "midi": 78,
                    "time": 883.970833333338,
                    "velocity": 1,
                    "duration": 0.05625000000009095
                },
                {
                    "name": "F#4",
                    "midi": 66,
                    "time": 883.970833333338,
                    "velocity": 1,
                    "duration": 0.05000000000006821
                },
                {
                    "name": "B5",
                    "midi": 83,
                    "time": 883.970833333338,
                    "velocity": 0.889763779527559,
                    "duration": 0.06041666666681067
                },
                {
                    "name": "B3",
                    "midi": 59,
                    "time": 883.9750000000047,
                    "velocity": 0.7007874015748031,
                    "duration": 0.0645833333334167
                },
                {
                    "name": "D#6",
                    "midi": 87,
                    "time": 883.977083333338,
                    "velocity": 0.8346456692913385,
                    "duration": 0.06875000000013642
                },
                {
                    "name": "D#4",
                    "midi": 63,
                    "time": 883.9791666666713,
                    "velocity": 0.8188976377952756,
                    "duration": 0.03750000000002274
                },
                {
                    "name": "G#3",
                    "midi": 56,
                    "time": 884.0000000000047,
                    "velocity": 0.44881889763779526,
                    "duration": 0.037500000000136424
                },
                {
                    "name": "D#2",
                    "midi": 39,
                    "time": 884.5000000000047,
                    "velocity": 0.8267716535433071,
                    "duration": 0.06875000000002274
                },
                {
                    "name": "D#3",
                    "midi": 51,
                    "time": 884.5062500000047,
                    "velocity": 0.984251968503937,
                    "duration": 0.07916666666665151
                },
                {
                    "name": "D#6",
                    "midi": 87,
                    "time": 884.8416666666714,
                    "velocity": 0.9448818897637795,
                    "duration": 0.06874999999990905
                },
                {
                    "name": "D#5",
                    "midi": 75,
                    "time": 884.8437500000047,
                    "velocity": 1,
                    "duration": 0.05624999999997726
                },
                {
                    "name": "G3",
                    "midi": 55,
                    "time": 885.0916666666712,
                    "velocity": 0.4015748031496063,
                    "duration": 0.12916666666671972
                },
                {
                    "name": "A#3",
                    "midi": 58,
                    "time": 885.1250000000045,
                    "velocity": 0.5118110236220472,
                    "duration": 0.1250000000001137
                },
                {
                    "name": "D#4",
                    "midi": 63,
                    "time": 885.1500000000045,
                    "velocity": 0.9133858267716536,
                    "duration": 0.0645833333334167
                },
                {
                    "name": "G4",
                    "midi": 67,
                    "time": 885.1541666666712,
                    "velocity": 0.952755905511811,
                    "duration": 0.05624999999997726
                },
                {
                    "name": "D#6",
                    "midi": 87,
                    "time": 885.158333333338,
                    "velocity": 0.9133858267716536,
                    "duration": 0.09791666666671972
                },
                {
                    "name": "D#5",
                    "midi": 75,
                    "time": 885.158333333338,
                    "velocity": 0.952755905511811,
                    "duration": 0.06458333333330302
                },
                {
                    "name": "G5",
                    "midi": 79,
                    "time": 885.1604166666713,
                    "velocity": 0.8031496062992126,
                    "duration": 0.0625
                },
                {
                    "name": "A#5",
                    "midi": 82,
                    "time": 885.1604166666713,
                    "velocity": 0.84251968503937,
                    "duration": 0.08333333333337123
                },
                {
                    "name": "D#6",
                    "midi": 87,
                    "time": 885.4541666666713,
                    "velocity": 0.9448818897637795,
                    "duration": 0.07500000000004547
                },
                {
                    "name": "D#5",
                    "midi": 75,
                    "time": 885.4562500000046,
                    "velocity": 0.9921259842519685,
                    "duration": 0.05208333333337123
                },
                {
                    "name": "A#1",
                    "midi": 34,
                    "time": 885.6979166666713,
                    "velocity": 0.84251968503937,
                    "duration": 0.06666666666660603
                },
                {
                    "name": "A#2",
                    "midi": 46,
                    "time": 885.7145833333379,
                    "velocity": 0.9921259842519685,
                    "duration": 0.08541666666656056
                },
                {
                    "name": "D#6",
                    "midi": 87,
                    "time": 885.7166666666712,
                    "velocity": 0.9448818897637795,
                    "duration": 0.07291666666662877
                },
                {
                    "name": "D#5",
                    "midi": 75,
                    "time": 885.7187500000045,
                    "velocity": 1,
                    "duration": 0.05208333333337123
                },
                {
                    "name": "C#6",
                    "midi": 85,
                    "time": 886.0000000000045,
                    "velocity": 0.905511811023622,
                    "duration": 0.09999999999990905
                },
                {
                    "name": "C#5",
                    "midi": 73,
                    "time": 886.0000000000045,
                    "velocity": 0.9291338582677166,
                    "duration": 0.05833333333328028
                },
                {
                    "name": "F3",
                    "midi": 53,
                    "time": 886.1895833333377,
                    "velocity": 0.44881889763779526,
                    "duration": 0.10416666666651508
                },
                {
                    "name": "G#3",
                    "midi": 56,
                    "time": 886.216666666671,
                    "velocity": 0.6692913385826772,
                    "duration": 0.09999999999990905
                },
                {
                    "name": "C#4",
                    "midi": 61,
                    "time": 886.2333333333377,
                    "velocity": 0.889763779527559,
                    "duration": 0.06249999999988631
                },
                {
                    "name": "F4",
                    "midi": 65,
                    "time": 886.235416666671,
                    "velocity": 0.984251968503937,
                    "duration": 0.05833333333328028
                },
                {
                    "name": "C#6",
                    "midi": 85,
                    "time": 886.241666666671,
                    "velocity": 0.905511811023622,
                    "duration": 0.08541666666656056
                },
                {
                    "name": "G#5",
                    "midi": 80,
                    "time": 886.2437500000043,
                    "velocity": 0.84251968503937,
                    "duration": 0.07291666666662877
                },
                {
                    "name": "C#5",
                    "midi": 73,
                    "time": 886.2437500000043,
                    "velocity": 0.952755905511811,
                    "duration": 0.05624999999997726
                },
                {
                    "name": "F5",
                    "midi": 77,
                    "time": 886.2541666666709,
                    "velocity": 0.6299212598425197,
                    "duration": 0.03750000000002274
                },
                {
                    "name": "C#6",
                    "midi": 85,
                    "time": 886.5104166666708,
                    "velocity": 0.9291338582677166,
                    "duration": 0.08333333333314386
                },
                {
                    "name": "C#5",
                    "midi": 73,
                    "time": 886.5125000000041,
                    "velocity": 0.968503937007874,
                    "duration": 0.05833333333328028
                },
                {
                    "name": "D#2",
                    "midi": 39,
                    "time": 886.7208333333373,
                    "velocity": 0.7244094488188977,
                    "duration": 0.06875000000002274
                },
                {
                    "name": "D#3",
                    "midi": 51,
                    "time": 886.743750000004,
                    "velocity": 0.9763779527559056,
                    "duration": 0.06666666666660603
                },
                {
                    "name": "C#6",
                    "midi": 85,
                    "time": 886.756250000004,
                    "velocity": 0.937007874015748,
                    "duration": 0.07291666666651508
                },
                {
                    "name": "C#5",
                    "midi": 73,
                    "time": 886.7583333333373,
                    "velocity": 0.984251968503937,
                    "duration": 0.049999999999954525
                },
                {
                    "name": "D#6",
                    "midi": 87,
                    "time": 887.0291666666706,
                    "velocity": 0.905511811023622,
                    "duration": 0.11041666666665151
                },
                {
                    "name": "D#5",
                    "midi": 75,
                    "time": 887.0312500000039,
                    "velocity": 0.937007874015748,
                    "duration": 0.0625
                },
                {
                    "name": "G3",
                    "midi": 55,
                    "time": 887.1666666666705,
                    "velocity": 0.5196850393700787,
                    "duration": 0.13541666666651508
                },
                {
                    "name": "A#3",
                    "midi": 58,
                    "time": 887.2250000000038,
                    "velocity": 0.6299212598425197,
                    "duration": 0.11874999999986358
                },
                {
                    "name": "D#4",
                    "midi": 63,
                    "time": 887.2479166666704,
                    "velocity": 0.8976377952755905,
                    "duration": 0.06458333333318933
                },
                {
                    "name": "G4",
                    "midi": 67,
                    "time": 887.2562500000038,
                    "velocity": 0.9606299212598425,
                    "duration": 0.05416666666656056
                },
                {
                    "name": "D#6",
                    "midi": 87,
                    "time": 887.2562500000038,
                    "velocity": 0.8582677165354331,
                    "duration": 0.09583333333318933
                },
                {
                    "name": "G5",
                    "midi": 79,
                    "time": 887.2583333333371,
                    "velocity": 0.7637795275590551,
                    "duration": 0.06666666666660603
                },
                {
                    "name": "D#5",
                    "midi": 75,
                    "time": 887.2583333333371,
                    "velocity": 0.889763779527559,
                    "duration": 0.05833333333328028
                },
                {
                    "name": "A#5",
                    "midi": 82,
                    "time": 887.2604166666704,
                    "velocity": 0.7952755905511811,
                    "duration": 0.08333333333325754
                },
                {
                    "name": "D#6",
                    "midi": 87,
                    "time": 887.5062500000037,
                    "velocity": 0.8818897637795275,
                    "duration": 0.07708333333334849
                },
                {
                    "name": "D#5",
                    "midi": 75,
                    "time": 887.5104166666704,
                    "velocity": 0.8976377952755905,
                    "duration": 0.05208333333325754
                },
                {
                    "name": "A#1",
                    "midi": 34,
                    "time": 887.727083333337,
                    "velocity": 0.7716535433070866,
                    "duration": 0.058333333333393966
                },
                {
                    "name": "A#2",
                    "midi": 46,
                    "time": 887.7354166666703,
                    "velocity": 0.9448818897637795,
                    "duration": 0.07500000000015916
                },
                {
                    "name": "D#6",
                    "midi": 87,
                    "time": 887.7479166666703,
                    "velocity": 0.968503937007874,
                    "duration": 0.08958333333339397
                },
                {
                    "name": "D#5",
                    "midi": 75,
                    "time": 887.752083333337,
                    "velocity": 1,
                    "duration": 0.054166666666674246
                },
                {
                    "name": "F#6",
                    "midi": 90,
                    "time": 888.027083333337,
                    "velocity": 0.8661417322834646,
                    "duration": 0.09375
                },
                {
                    "name": "F#5",
                    "midi": 78,
                    "time": 888.0291666666703,
                    "velocity": 0.8818897637795275,
                    "duration": 0.06666666666671972
                },
                {
                    "name": "F#3",
                    "midi": 54,
                    "time": 888.1937500000037,
                    "velocity": 0.4645669291338583,
                    "duration": 0.10208333333321207
                },
                {
                    "name": "B3",
                    "midi": 59,
                    "time": 888.2416666666703,
                    "velocity": 0.7007874015748031,
                    "duration": 0.08124999999984084
                },
                {
                    "name": "F#4",
                    "midi": 66,
                    "time": 888.2437500000036,
                    "velocity": 0.9448818897637795,
                    "duration": 0.049999999999954525
                },
                {
                    "name": "D#4",
                    "midi": 63,
                    "time": 888.2437500000036,
                    "velocity": 0.8818897637795275,
                    "duration": 0.060416666666583296
                },
                {
                    "name": "F#6",
                    "midi": 90,
                    "time": 888.2520833333369,
                    "velocity": 0.8503937007874016,
                    "duration": 0.11041666666653782
                },
                {
                    "name": "F#5",
                    "midi": 78,
                    "time": 888.2520833333369,
                    "velocity": 0.905511811023622,
                    "duration": 0.08333333333325754
                },
                {
                    "name": "B5",
                    "midi": 83,
                    "time": 888.2541666666702,
                    "velocity": 0.7086614173228346,
                    "duration": 0.060416666666583296
                },
                {
                    "name": "D#6",
                    "midi": 87,
                    "time": 888.2562500000035,
                    "velocity": 0.7716535433070866,
                    "duration": 0.12083333333328028
                },
                {
                    "name": "F#6",
                    "midi": 90,
                    "time": 888.5000000000035,
                    "velocity": 0.8976377952755905,
                    "duration": 0.0916666666665833
                },
                {
                    "name": "F#5",
                    "midi": 78,
                    "time": 888.5041666666702,
                    "velocity": 0.9291338582677166,
                    "duration": 0.060416666666583296
                },
                {
                    "name": "D#2",
                    "midi": 39,
                    "time": 888.7229166666701,
                    "velocity": 0.6929133858267716,
                    "duration": 0.07291666666662877
                },
                {
                    "name": "D#3",
                    "midi": 51,
                    "time": 888.7395833333368,
                    "velocity": 1,
                    "duration": 0.07499999999993179
                },
                {
                    "name": "F#6",
                    "midi": 90,
                    "time": 888.7541666666701,
                    "velocity": 0.952755905511811,
                    "duration": 0.09583333333330302
                },
                {
                    "name": "F#5",
                    "midi": 78,
                    "time": 888.7562500000034,
                    "velocity": 1,
                    "duration": 0.049999999999954525
                },
                {
                    "name": "D#6",
                    "midi": 87,
                    "time": 888.7666666666701,
                    "velocity": 0.8110236220472441,
                    "duration": 0.10625000000004547
                },
                {
                    "name": "D#6",
                    "midi": 87,
                    "time": 889.0375000000034,
                    "velocity": 0.8818897637795275,
                    "duration": 0.06666666666660603
                },
                {
                    "name": "G6",
                    "midi": 91,
                    "time": 889.0375000000034,
                    "velocity": 0.8503937007874016,
                    "duration": 0.039583333333325754
                },
                {
                    "name": "G5",
                    "midi": 79,
                    "time": 889.0395833333367,
                    "velocity": 0.9133858267716536,
                    "duration": 0.03750000000002274
                },
                {
                    "name": "G3",
                    "midi": 55,
                    "time": 889.1520833333367,
                    "velocity": 0.5590551181102362,
                    "duration": 0.1708333333333485
                },
                {
                    "name": "A#3",
                    "midi": 58,
                    "time": 889.1895833333367,
                    "velocity": 0.5669291338582677,
                    "duration": 0.21249999999986358
                },
                {
                    "name": "D#4",
                    "midi": 63,
                    "time": 889.2812500000034,
                    "velocity": 0.8503937007874016,
                    "duration": 0.07499999999993179
                },
                {
                    "name": "G4",
                    "midi": 67,
                    "time": 889.29166666667,
                    "velocity": 0.9212598425196851,
                    "duration": 0.054166666666674246
                },
                {
                    "name": "D#6",
                    "midi": 87,
                    "time": 889.3145833333367,
                    "velocity": 0.8976377952755905,
                    "duration": 0.060416666666583296
                },
                {
                    "name": "D#5",
                    "midi": 75,
                    "time": 889.3145833333367,
                    "velocity": 0.968503937007874,
                    "duration": 0.04791666666665151
                },
                {
                    "name": "A#5",
                    "midi": 82,
                    "time": 889.31666666667,
                    "velocity": 0.8976377952755905,
                    "duration": 0.04791666666665151
                },
                {
                    "name": "C6",
                    "midi": 84,
                    "time": 889.5437500000032,
                    "velocity": 0.8740157480314961,
                    "duration": 0.05208333333337123
                },
                {
                    "name": "C5",
                    "midi": 72,
                    "time": 889.5437500000032,
                    "velocity": 0.84251968503937,
                    "duration": 0.039583333333325754
                },
                {
                    "name": "D5",
                    "midi": 74,
                    "time": 889.5645833333366,
                    "velocity": 0.5590551181102362,
                    "duration": 0.043750000000045475
                },
                {
                    "name": "A#1",
                    "midi": 34,
                    "time": 889.7500000000033,
                    "velocity": 0.8110236220472441,
                    "duration": 0.07083333333343944
                },
                {
                    "name": "A#2",
                    "midi": 46,
                    "time": 889.7708333333367,
                    "velocity": 0.9763779527559056,
                    "duration": 0.0791666666667652
                },
                {
                    "name": "C#6",
                    "midi": 85,
                    "time": 889.7833333333367,
                    "velocity": 0.9291338582677166,
                    "duration": 0.09375
                },
                {
                    "name": "C#5",
                    "midi": 73,
                    "time": 889.7833333333367,
                    "velocity": 0.9763779527559056,
                    "duration": 0.054166666666674246
                },
                {
                    "name": "C6",
                    "midi": 84,
                    "time": 890.0166666666701,
                    "velocity": 0.889763779527559,
                    "duration": 0.06458333333330302
                },
                {
                    "name": "C5",
                    "midi": 72,
                    "time": 890.0229166666701,
                    "velocity": 0.8503937007874016,
                    "duration": 0.03125
                },
                {
                    "name": "C#4",
                    "midi": 61,
                    "time": 890.2645833333366,
                    "velocity": 0.8503937007874016,
                    "duration": 0.09375
                },
                {
                    "name": "G#3",
                    "midi": 56,
                    "time": 890.26666666667,
                    "velocity": 0.7716535433070866,
                    "duration": 0.27708333333339397
                },
                {
                    "name": "F4",
                    "midi": 65,
                    "time": 890.27291666667,
                    "velocity": 0.7401574803149606,
                    "duration": 0.039583333333325754
                },
                {
                    "name": "A#5",
                    "midi": 82,
                    "time": 890.2812500000033,
                    "velocity": 0.8346456692913385,
                    "duration": 0.039583333333325754
                },
                {
                    "name": "A#4",
                    "midi": 70,
                    "time": 890.2833333333366,
                    "velocity": 0.905511811023622,
                    "duration": 0.043750000000045475
                },
                {
                    "name": "A#3",
                    "midi": 58,
                    "time": 890.2875000000033,
                    "velocity": 0.4330708661417323,
                    "duration": 0.043750000000045475
                },
                {
                    "name": "D4",
                    "midi": 62,
                    "time": 890.5145833333366,
                    "velocity": 0.984251968503937,
                    "duration": 0.0625
                },
                {
                    "name": "A3",
                    "midi": 57,
                    "time": 890.5312500000034,
                    "velocity": 0.7559055118110236,
                    "duration": 0.07916666666653782
                },
                {
                    "name": "F#4",
                    "midi": 66,
                    "time": 890.5333333333367,
                    "velocity": 0.9921259842519685,
                    "duration": 0.06666666666660603
                },
                {
                    "name": "F#5",
                    "midi": 78,
                    "time": 890.53541666667,
                    "velocity": 0.9448818897637795,
                    "duration": 0.09374999999988631
                },
                {
                    "name": "B3",
                    "midi": 59,
                    "time": 890.55416666667,
                    "velocity": 0.25984251968503935,
                    "duration": 0.039583333333325754
                },
                {
                    "name": "D#2",
                    "midi": 39,
                    "time": 890.7729166666699,
                    "velocity": 0.8818897637795275,
                    "duration": 0.07916666666665151
                },
                {
                    "name": "G5",
                    "midi": 79,
                    "time": 890.7729166666699,
                    "velocity": 0.8740157480314961,
                    "duration": 0.06875000000002274
                },
                {
                    "name": "D#5",
                    "midi": 75,
                    "time": 890.7750000000032,
                    "velocity": 0.8582677165354331,
                    "duration": 0.06041666666669698
                },
                {
                    "name": "G4",
                    "midi": 67,
                    "time": 890.7770833333365,
                    "velocity": 0.8503937007874016,
                    "duration": 0.03750000000002274
                },
                {
                    "name": "A#5",
                    "midi": 82,
                    "time": 891.0270833333365,
                    "velocity": 0.8503937007874016,
                    "duration": 0.07500000000004547
                },
                {
                    "name": "A#4",
                    "midi": 70,
                    "time": 891.0312500000032,
                    "velocity": 0.889763779527559,
                    "duration": 0.05208333333337123
                },
                {
                    "name": "G3",
                    "midi": 55,
                    "time": 891.2541666666698,
                    "velocity": 0.7795275590551181,
                    "duration": 0.0791666666667652
                },
                {
                    "name": "D#4",
                    "midi": 63,
                    "time": 891.2583333333365,
                    "velocity": 0.9133858267716536,
                    "duration": 0.054166666666674246
                },
                {
                    "name": "A#3",
                    "midi": 58,
                    "time": 891.2625000000032,
                    "velocity": 0.84251968503937,
                    "duration": 0.07708333333334849
                },
                {
                    "name": "G5",
                    "midi": 79,
                    "time": 891.2729166666699,
                    "velocity": 0.84251968503937,
                    "duration": 0.058333333333393966
                },
                {
                    "name": "G4",
                    "midi": 67,
                    "time": 891.2812500000032,
                    "velocity": 0.7637795275590551,
                    "duration": 0.03541666666671972
                },
                {
                    "name": "D#5",
                    "midi": 75,
                    "time": 891.2854166666699,
                    "velocity": 0.7795275590551181,
                    "duration": 0.02708333333328028
                },
                {
                    "name": "D#5",
                    "midi": 75,
                    "time": 891.5625000000033,
                    "velocity": 0.8976377952755905,
                    "duration": 0.39999999999997726
                },
                {
                    "name": "D#4",
                    "midi": 63,
                    "time": 891.56666666667,
                    "velocity": 0.984251968503937,
                    "duration": 0.38541666666662877
                },
                {
                    "name": "A#1",
                    "midi": 34,
                    "time": 891.80416666667,
                    "velocity": 0.8582677165354331,
                    "duration": 0.07499999999993179
                },
                {
                    "name": "A#2",
                    "midi": 46,
                    "time": 891.8125000000033,
                    "velocity": 0.9921259842519685,
                    "duration": 0.07916666666665151
                },
                {
                    "name": "A#4",
                    "midi": 70,
                    "time": 892.04791666667,
                    "velocity": 0.937007874015748,
                    "duration": 0.18124999999997726
                },
                {
                    "name": "D4",
                    "midi": 62,
                    "time": 892.2833333333366,
                    "velocity": 0.7637795275590551,
                    "duration": 0.07916666666653782
                },
                {
                    "name": "G#4",
                    "midi": 68,
                    "time": 892.2895833333366,
                    "velocity": 0.7952755905511811,
                    "duration": 0.12916666666649235
                },
                {
                    "name": "D5",
                    "midi": 74,
                    "time": 892.2895833333366,
                    "velocity": 0.7795275590551181,
                    "duration": 0.15624999999977263
                },
                {
                    "name": "A#3",
                    "midi": 58,
                    "time": 892.3000000000033,
                    "velocity": 0.937007874015748,
                    "duration": 0.1083333333332348
                },
                {
                    "name": "C5",
                    "midi": 72,
                    "time": 892.3104166666699,
                    "velocity": 0.7874015748031497,
                    "duration": 0.31666666666660603
                },
                {
                    "name": "A#4",
                    "midi": 70,
                    "time": 892.5604166666698,
                    "velocity": 0.968503937007874,
                    "duration": 0.20000000000004547
                },
                {
                    "name": "D#2",
                    "midi": 39,
                    "time": 892.8020833333364,
                    "velocity": 0.7559055118110236,
                    "duration": 0.09791666666671972
                },
                {
                    "name": "D#3",
                    "midi": 51,
                    "time": 892.8145833333365,
                    "velocity": 1,
                    "duration": 0.11041666666665151
                },
                {
                    "name": "D#6",
                    "midi": 87,
                    "time": 893.1145833333364,
                    "velocity": 0.8976377952755905,
                    "duration": 0.08958333333339397
                },
                {
                    "name": "D#5",
                    "midi": 75,
                    "time": 893.1187500000032,
                    "velocity": 0.9291338582677166,
                    "duration": 0.07083333333332575
                },
                {
                    "name": "G3",
                    "midi": 55,
                    "time": 893.3687500000032,
                    "velocity": 0.6614173228346457,
                    "duration": 0.07499999999993179
                },
                {
                    "name": "G5",
                    "midi": 79,
                    "time": 893.3875000000031,
                    "velocity": 0.8346456692913385,
                    "duration": 0.07916666666665151
                },
                {
                    "name": "D#6",
                    "midi": 87,
                    "time": 893.3895833333364,
                    "velocity": 0.9133858267716536,
                    "duration": 0.11458333333337123
                },
                {
                    "name": "D#5",
                    "midi": 75,
                    "time": 893.3895833333364,
                    "velocity": 0.937007874015748,
                    "duration": 0.08125000000006821
                },
                {
                    "name": "A#3",
                    "midi": 58,
                    "time": 893.3895833333364,
                    "velocity": 0.8267716535433071,
                    "duration": 0.10000000000002274
                },
                {
                    "name": "D#4",
                    "midi": 63,
                    "time": 893.3937500000031,
                    "velocity": 0.8346456692913385,
                    "duration": 0.060416666666583296
                },
                {
                    "name": "A#5",
                    "midi": 82,
                    "time": 893.3958333333364,
                    "velocity": 0.7795275590551181,
                    "duration": 0.11458333333337123
                },
                {
                    "name": "G4",
                    "midi": 67,
                    "time": 893.3979166666697,
                    "velocity": 0.8582677165354331,
                    "duration": 0.06041666666669698
                },
                {
                    "name": "D#6",
                    "midi": 87,
                    "time": 893.6875000000032,
                    "velocity": 0.905511811023622,
                    "duration": 0.07083333333332575
                },
                {
                    "name": "D#5",
                    "midi": 75,
                    "time": 893.6916666666699,
                    "velocity": 0.952755905511811,
                    "duration": 0.049999999999954525
                },
                {
                    "name": "A#1",
                    "midi": 34,
                    "time": 893.9395833333365,
                    "velocity": 0.8267716535433071,
                    "duration": 0.0625
                },
                {
                    "name": "A#2",
                    "midi": 46,
                    "time": 893.9500000000031,
                    "velocity": 0.984251968503937,
                    "duration": 0.08333333333337123
                },
                {
                    "name": "D#6",
                    "midi": 87,
                    "time": 893.9625000000032,
                    "velocity": 0.937007874015748,
                    "duration": 0.07500000000004547
                },
                {
                    "name": "D#5",
                    "midi": 75,
                    "time": 893.9645833333365,
                    "velocity": 1,
                    "duration": 0.05000000000006821
                },
                {
                    "name": "C#6",
                    "midi": 85,
                    "time": 894.2250000000032,
                    "velocity": 0.905511811023622,
                    "duration": 0.07708333333334849
                },
                {
                    "name": "C#5",
                    "midi": 73,
                    "time": 894.2270833333365,
                    "velocity": 0.9291338582677166,
                    "duration": 0.054166666666674246
                },
                {
                    "name": "G#3",
                    "midi": 56,
                    "time": 894.4020833333366,
                    "velocity": 0.5118110236220472,
                    "duration": 0.13750000000015916
                },
                {
                    "name": "C#4",
                    "midi": 61,
                    "time": 894.4375000000033,
                    "velocity": 0.7637795275590551,
                    "duration": 0.07083333333343944
                },
                {
                    "name": "F4",
                    "midi": 65,
                    "time": 894.4500000000033,
                    "velocity": 0.8661417322834646,
                    "duration": 0.058333333333393966
                },
                {
                    "name": "G#4",
                    "midi": 68,
                    "time": 894.4520833333366,
                    "velocity": 0.9212598425196851,
                    "duration": 0.05000000000006821
                },
                {
                    "name": "C#6",
                    "midi": 85,
                    "time": 894.4583333333367,
                    "velocity": 0.9133858267716536,
                    "duration": 0.08333333333337123
                },
                {
                    "name": "C#5",
                    "midi": 73,
                    "time": 894.4625000000034,
                    "velocity": 0.9921259842519685,
                    "duration": 0.04583333333334849
                },
                {
                    "name": "G#5",
                    "midi": 80,
                    "time": 894.4645833333367,
                    "velocity": 0.9291338582677166,
                    "duration": 0.07083333333332575
                },
                {
                    "name": "C#6",
                    "midi": 85,
                    "time": 894.7145833333367,
                    "velocity": 0.905511811023622,
                    "duration": 0.09583333333330302
                },
                {
                    "name": "C#5",
                    "midi": 73,
                    "time": 894.71666666667,
                    "velocity": 0.9448818897637795,
                    "duration": 0.05624999999997726
                },
                {
                    "name": "D#2",
                    "midi": 39,
                    "time": 894.94791666667,
                    "velocity": 0.7716535433070866,
                    "duration": 0.0625
                },
                {
                    "name": "D#3",
                    "midi": 51,
                    "time": 894.9562500000034,
                    "velocity": 1,
                    "duration": 0.06458333333330302
                },
                {
                    "name": "C#6",
                    "midi": 85,
                    "time": 894.9687500000034,
                    "velocity": 0.952755905511811,
                    "duration": 0.08333333333325754
                },
                {
                    "name": "C#5",
                    "midi": 73,
                    "time": 894.9687500000034,
                    "velocity": 1,
                    "duration": 0.05624999999997726
                },
                {
                    "name": "D#6",
                    "midi": 87,
                    "time": 895.2208333333367,
                    "velocity": 0.8818897637795275,
                    "duration": 0.07916666666665151
                },
                {
                    "name": "D#5",
                    "midi": 75,
                    "time": 895.2250000000034,
                    "velocity": 0.8976377952755905,
                    "duration": 0.049999999999954525
                },
                {
                    "name": "G3",
                    "midi": 55,
                    "time": 895.4083333333367,
                    "velocity": 0.5354330708661418,
                    "duration": 0.10000000000002274
                },
                {
                    "name": "A#3",
                    "midi": 58,
                    "time": 895.43541666667,
                    "velocity": 0.7637795275590551,
                    "duration": 0.10416666666674246
                },
                {
                    "name": "G4",
                    "midi": 67,
                    "time": 895.4458333333366,
                    "velocity": 0.9448818897637795,
                    "duration": 0.05625000000009095
                },
                {
                    "name": "D#4",
                    "midi": 63,
                    "time": 895.4458333333366,
                    "velocity": 0.8661417322834646,
                    "duration": 0.058333333333393966
                },
                {
                    "name": "D#6",
                    "midi": 87,
                    "time": 895.4625000000033,
                    "velocity": 0.9291338582677166,
                    "duration": 0.06875000000013642
                },
                {
                    "name": "D#5",
                    "midi": 75,
                    "time": 895.4625000000033,
                    "velocity": 1,
                    "duration": 0.04583333333346218
                },
                {
                    "name": "A#5",
                    "midi": 82,
                    "time": 895.46666666667,
                    "velocity": 0.9291338582677166,
                    "duration": 0.043750000000045475
                },
                {
                    "name": "D#6",
                    "midi": 87,
                    "time": 895.7020833333368,
                    "velocity": 0.8818897637795275,
                    "duration": 0.07083333333332575
                },
                {
                    "name": "D#5",
                    "midi": 75,
                    "time": 895.7062500000035,
                    "velocity": 0.8976377952755905,
                    "duration": 0.04791666666665151
                },
                {
                    "name": "A#1",
                    "midi": 34,
                    "time": 895.9041666666701,
                    "velocity": 0.7480314960629921,
                    "duration": 0.07083333333321207
                },
                {
                    "name": "A#2",
                    "midi": 46,
                    "time": 895.9312500000034,
                    "velocity": 1,
                    "duration": 0.07916666666665151
                },
                {
                    "name": "D#6",
                    "midi": 87,
                    "time": 895.9500000000033,
                    "velocity": 0.968503937007874,
                    "duration": 0.08541666666667425
                },
                {
                    "name": "D#5",
                    "midi": 75,
                    "time": 895.9520833333366,
                    "velocity": 1,
                    "duration": 0.058333333333393966
                },
                {
                    "name": "F#6",
                    "midi": 90,
                    "time": 896.2000000000033,
                    "velocity": 0.8582677165354331,
                    "duration": 0.0958333333334167
                },
                {
                    "name": "F#5",
                    "midi": 78,
                    "time": 896.2041666666701,
                    "velocity": 0.8582677165354331,
                    "duration": 0.0625
                },
                {
                    "name": "F#3",
                    "midi": 54,
                    "time": 896.3895833333368,
                    "velocity": 0.49606299212598426,
                    "duration": 0.09166666666669698
                },
                {
                    "name": "F#4",
                    "midi": 66,
                    "time": 896.4250000000035,
                    "velocity": 0.984251968503937,
                    "duration": 0.05208333333325754
                },
                {
                    "name": "F#6",
                    "midi": 90,
                    "time": 896.4291666666702,
                    "velocity": 0.8818897637795275,
                    "duration": 0.1083333333332348
                },
                {
                    "name": "D#4",
                    "midi": 63,
                    "time": 896.4312500000035,
                    "velocity": 0.8661417322834646,
                    "duration": 0.04374999999993179
                },
                {
                    "name": "F#5",
                    "midi": 78,
                    "time": 896.4312500000035,
                    "velocity": 0.9133858267716536,
                    "duration": 0.07291666666662877
                },
                {
                    "name": "B3",
                    "midi": 59,
                    "time": 896.4333333333368,
                    "velocity": 0.6692913385826772,
                    "duration": 0.07083333333332575
                },
                {
                    "name": "B5",
                    "midi": 83,
                    "time": 896.4354166666701,
                    "velocity": 0.7322834645669292,
                    "duration": 0.054166666666674246
                },
                {
                    "name": "D#6",
                    "midi": 87,
                    "time": 896.4375000000034,
                    "velocity": 0.7874015748031497,
                    "duration": 0.11874999999997726
                },
                {
                    "name": "F#6",
                    "midi": 90,
                    "time": 896.6729166666701,
                    "velocity": 0.8267716535433071,
                    "duration": 0.07083333333332575
                },
                {
                    "name": "F#5",
                    "midi": 78,
                    "time": 896.6750000000034,
                    "velocity": 0.8582677165354331,
                    "duration": 0.054166666666674246
                },
                {
                    "name": "D#2",
                    "midi": 39,
                    "time": 896.91041666667,
                    "velocity": 0.6456692913385826,
                    "duration": 0.05833333333328028
                },
                {
                    "name": "D#3",
                    "midi": 51,
                    "time": 896.9187500000033,
                    "velocity": 0.968503937007874,
                    "duration": 0.08541666666667425
                },
                {
                    "name": "F#6",
                    "midi": 90,
                    "time": 896.9333333333367,
                    "velocity": 0.9448818897637795,
                    "duration": 0.07500000000004547
                },
                {
                    "name": "F#5",
                    "midi": 78,
                    "time": 896.93541666667,
                    "velocity": 1,
                    "duration": 0.05624999999997726
                },
                {
                    "name": "G6",
                    "midi": 91,
                    "time": 897.1958333333367,
                    "velocity": 0.84251968503937,
                    "duration": 0.02708333333328028
                },
                {
                    "name": "G5",
                    "midi": 79,
                    "time": 897.19791666667,
                    "velocity": 0.7795275590551181,
                    "duration": 0.035416666666606034
                },
                {
                    "name": "G3",
                    "midi": 55,
                    "time": 897.37291666667,
                    "velocity": 0.47244094488188976,
                    "duration": 0.21041666666656056
                },
                {
                    "name": "A#3",
                    "midi": 58,
                    "time": 897.4312500000033,
                    "velocity": 0.4566929133858268,
                    "duration": 0.16458333333321207
                },
                {
                    "name": "D#4",
                    "midi": 63,
                    "time": 897.4687500000033,
                    "velocity": 0.8503937007874016,
                    "duration": 0.08124999999995453
                },
                {
                    "name": "G4",
                    "midi": 67,
                    "time": 897.4770833333366,
                    "velocity": 0.9212598425196851,
                    "duration": 0.0625
                },
                {
                    "name": "D#6",
                    "midi": 87,
                    "time": 897.4958333333366,
                    "velocity": 0.9133858267716536,
                    "duration": 0.08958333333328028
                },
                {
                    "name": "D#5",
                    "midi": 75,
                    "time": 897.4958333333366,
                    "velocity": 0.984251968503937,
                    "duration": 0.05624999999997726
                },
                {
                    "name": "A#5",
                    "midi": 82,
                    "time": 897.5020833333366,
                    "velocity": 0.8818897637795275,
                    "duration": 0.04583333333334849
                },
                {
                    "name": "C6",
                    "midi": 84,
                    "time": 897.7354166666698,
                    "velocity": 0.8346456692913385,
                    "duration": 0.058333333333393966
                },
                {
                    "name": "C5",
                    "midi": 72,
                    "time": 897.7458333333365,
                    "velocity": 0.7637795275590551,
                    "duration": 0.03541666666671972
                },
                {
                    "name": "A#1",
                    "midi": 34,
                    "time": 897.9666666666699,
                    "velocity": 0.7480314960629921,
                    "duration": 0.06666666666660603
                },
                {
                    "name": "A#2",
                    "midi": 46,
                    "time": 897.9833333333365,
                    "velocity": 0.968503937007874,
                    "duration": 0.08541666666656056
                },
                {
                    "name": "C#6",
                    "midi": 85,
                    "time": 897.9958333333366,
                    "velocity": 0.905511811023622,
                    "duration": 0.08333333333314386
                },
                {
                    "name": "C#5",
                    "midi": 73,
                    "time": 897.9979166666699,
                    "velocity": 0.9291338582677166,
                    "duration": 0.05208333333325754
                },
                {
                    "name": "C6",
                    "midi": 84,
                    "time": 898.2229166666697,
                    "velocity": 0.8110236220472441,
                    "duration": 0.03750000000002274
                },
                {
                    "name": "C5",
                    "midi": 72,
                    "time": 898.231250000003,
                    "velocity": 0.6220472440944882,
                    "duration": 0.04166666666674246
                },
                {
                    "name": "G#3",
                    "midi": 56,
                    "time": 898.4541666666697,
                    "velocity": 0.7401574803149606,
                    "duration": 0.1874999999998863
                },
                {
                    "name": "F4",
                    "midi": 65,
                    "time": 898.4541666666697,
                    "velocity": 0.84251968503937,
                    "duration": 0.0625
                },
                {
                    "name": "A#5",
                    "midi": 82,
                    "time": 898.4541666666697,
                    "velocity": 0.8818897637795275,
                    "duration": 0.06041666666669698
                },
                {
                    "name": "A#4",
                    "midi": 70,
                    "time": 898.4583333333364,
                    "velocity": 0.9448818897637795,
                    "duration": 0.04791666666665151
                },
                {
                    "name": "A#3",
                    "midi": 58,
                    "time": 898.4625000000032,
                    "velocity": 0.6299212598425197,
                    "duration": 0.1062499999998181
                },
                {
                    "name": "C#4",
                    "midi": 61,
                    "time": 898.4729166666698,
                    "velocity": 0.6614173228346457,
                    "duration": 0.06458333333318933
                },
                {
                    "name": "G#5",
                    "midi": 80,
                    "time": 898.4791666666698,
                    "velocity": 0.5984251968503937,
                    "duration": 0.03958333333321207
                },
                {
                    "name": "D#4",
                    "midi": 63,
                    "time": 898.6854166666697,
                    "velocity": 0.984251968503937,
                    "duration": 0.06874999999990905
                },
                {
                    "name": "A3",
                    "midi": 57,
                    "time": 898.700000000003,
                    "velocity": 0.6692913385826772,
                    "duration": 0.10000000000002274
                },
                {
                    "name": "F#5",
                    "midi": 78,
                    "time": 898.7020833333363,
                    "velocity": 0.9133858267716536,
                    "duration": 0.12916666666671972
                },
                {
                    "name": "F#4",
                    "midi": 66,
                    "time": 898.7020833333363,
                    "velocity": 0.984251968503937,
                    "duration": 0.06458333333330302
                },
                {
                    "name": "A4",
                    "midi": 69,
                    "time": 898.7354166666696,
                    "velocity": 0.41732283464566927,
                    "duration": 0.043750000000045475
                },
                {
                    "name": "G5",
                    "midi": 79,
                    "time": 898.9416666666698,
                    "velocity": 0.8346456692913385,
                    "duration": 0.06874999999990905
                },
                {
                    "name": "G4",
                    "midi": 67,
                    "time": 898.9437500000031,
                    "velocity": 0.889763779527559,
                    "duration": 0.045833333333234805
                },
                {
                    "name": "D#2",
                    "midi": 39,
                    "time": 898.9458333333364,
                    "velocity": 0.8582677165354331,
                    "duration": 0.024999999999977263
                },
                {
                    "name": "D#5",
                    "midi": 75,
                    "time": 898.9479166666697,
                    "velocity": 0.84251968503937,
                    "duration": 0.06875000000002274
                },
                {
                    "name": "F#2",
                    "midi": 42,
                    "time": 898.9791666666697,
                    "velocity": 0.4330708661417323,
                    "duration": 0.04583333333334849
                },
                {
                    "name": "A#5",
                    "midi": 82,
                    "time": 899.1937500000031,
                    "velocity": 0.8661417322834646,
                    "duration": 0.07499999999993179
                },
                {
                    "name": "A#4",
                    "midi": 70,
                    "time": 899.1958333333364,
                    "velocity": 0.9291338582677166,
                    "duration": 0.054166666666674246
                },
                {
                    "name": "G3",
                    "midi": 55,
                    "time": 899.4270833333363,
                    "velocity": 0.8346456692913385,
                    "duration": 0.07500000000004547
                },
                {
                    "name": "D#4",
                    "midi": 63,
                    "time": 899.4270833333363,
                    "velocity": 0.937007874015748,
                    "duration": 0.05625000000009095
                },
                {
                    "name": "A#3",
                    "midi": 58,
                    "time": 899.431250000003,
                    "velocity": 0.84251968503937,
                    "duration": 0.08124999999995453
                },
                {
                    "name": "G5",
                    "midi": 79,
                    "time": 899.450000000003,
                    "velocity": 0.8031496062992126,
                    "duration": 0.029166666666696983
                },
                {
                    "name": "G4",
                    "midi": 67,
                    "time": 899.4583333333363,
                    "velocity": 0.6614173228346457,
                    "duration": 0.04166666666674246
                },
                {
                    "name": "D#5",
                    "midi": 75,
                    "time": 899.700000000003,
                    "velocity": 0.889763779527559,
                    "duration": 0.31458333333318933
                },
                {
                    "name": "D#4",
                    "midi": 63,
                    "time": 899.7020833333363,
                    "velocity": 0.968503937007874,
                    "duration": 0.2791666666665833
                },
                {
                    "name": "C#5",
                    "midi": 73,
                    "time": 899.7291666666696,
                    "velocity": 0.5433070866141733,
                    "duration": 0.03750000000002274
                },
                {
                    "name": "D#2",
                    "midi": 39,
                    "time": 899.9541666666695,
                    "velocity": 0.8818897637795275,
                    "duration": 0.07291666666674246
                },
                {
                    "name": "D#3",
                    "midi": 51,
                    "time": 899.9666666666695,
                    "velocity": 1,
                    "duration": 0.06666666666671972
                },
                {
                    "name": "F#3",
                    "midi": 54,
                    "time": 900.2125000000029,
                    "velocity": 0.1968503937007874,
                    "duration": 0.03750000000002274
                },
                {
                    "name": "D#3",
                    "midi": 51,
                    "time": 900.3000000000029,
                    "velocity": 0.84251968503937,
                    "duration": 0.08124999999995453
                },
                {
                    "name": "C#4",
                    "midi": 61,
                    "time": 900.3041666666696,
                    "velocity": 0.84251968503937,
                    "duration": 0.05416666666656056
                },
                {
                    "name": "D#6",
                    "midi": 87,
                    "time": 900.3062500000029,
                    "velocity": 0.889763779527559,
                    "duration": 0.09791666666660603
                },
                {
                    "name": "D#5",
                    "midi": 75,
                    "time": 900.3083333333362,
                    "velocity": 0.952755905511811,
                    "duration": 0.06666666666660603
                },
                {
                    "name": "F3",
                    "midi": 53,
                    "time": 900.5625000000028,
                    "velocity": 0.9133858267716536,
                    "duration": 0.06041666666669698
                },
                {
                    "name": "F2",
                    "midi": 41,
                    "time": 900.5687500000029,
                    "velocity": 0.8976377952755905,
                    "duration": 0.03125
                },
                {
                    "name": "D#6",
                    "midi": 87,
                    "time": 900.5729166666696,
                    "velocity": 0.905511811023622,
                    "duration": 0.06666666666660603
                },
                {
                    "name": "D#5",
                    "midi": 75,
                    "time": 900.5750000000029,
                    "velocity": 0.952755905511811,
                    "duration": 0.049999999999954525
                },
                {
                    "name": "E3",
                    "midi": 52,
                    "time": 900.6000000000029,
                    "velocity": 0.33070866141732286,
                    "duration": 0.043750000000045475
                },
                {
                    "name": "G3",
                    "midi": 55,
                    "time": 900.8104166666695,
                    "velocity": 0.7244094488188977,
                    "duration": 0.13750000000004547
                },
                {
                    "name": "A3",
                    "midi": 57,
                    "time": 900.8125000000028,
                    "velocity": 0.7716535433070866,
                    "duration": 0.07083333333343944
                },
                {
                    "name": "A2",
                    "midi": 45,
                    "time": 900.8125000000028,
                    "velocity": 0.7086614173228346,
                    "duration": 0.05625000000009095
                },
                {
                    "name": "G2",
                    "midi": 43,
                    "time": 900.8208333333362,
                    "velocity": 0.6929133858267716,
                    "duration": 0.03541666666671972
                },
                {
                    "name": "D#5",
                    "midi": 75,
                    "time": 900.8250000000029,
                    "velocity": 0.952755905511811,
                    "duration": 0.06041666666669698
                },
                {
                    "name": "D#6",
                    "midi": 87,
                    "time": 900.8270833333362,
                    "velocity": 0.889763779527559,
                    "duration": 0.06666666666671972
                },
                {
                    "name": "G#2",
                    "midi": 44,
                    "time": 900.9979166666695,
                    "velocity": 0.889763779527559,
                    "duration": 0.1708333333333485
                },
                {
                    "name": "C4",
                    "midi": 60,
                    "time": 901.2479166666695,
                    "velocity": 0.9212598425196851,
                    "duration": 0.06041666666669698
                },
                {
                    "name": "D#3",
                    "midi": 51,
                    "time": 901.2479166666695,
                    "velocity": 0.7874015748031497,
                    "duration": 0.09791666666671972
                },
                {
                    "name": "F#3",
                    "midi": 54,
                    "time": 901.2479166666695,
                    "velocity": 0.84251968503937,
                    "duration": 0.08541666666667425
                },
                {
                    "name": "F6",
                    "midi": 89,
                    "time": 901.2520833333363,
                    "velocity": 0.84251968503937,
                    "duration": 0.06041666666669698
                },
                {
                    "name": "F5",
                    "midi": 77,
                    "time": 901.2541666666696,
                    "velocity": 0.8740157480314961,
                    "duration": 0.06041666666669698
                },
                {
                    "name": "D#3",
                    "midi": 51,
                    "time": 901.5500000000029,
                    "velocity": 0.8346456692913385,
                    "duration": 0.10000000000002274
                },
                {
                    "name": "C4",
                    "midi": 60,
                    "time": 901.5520833333362,
                    "velocity": 0.8031496062992126,
                    "duration": 0.0645833333334167
                },
                {
                    "name": "D#6",
                    "midi": 87,
                    "time": 901.5520833333362,
                    "velocity": 0.8503937007874016,
                    "duration": 0.07500000000004547
                },
                {
                    "name": "F#3",
                    "midi": 54,
                    "time": 901.5520833333362,
                    "velocity": 0.7952755905511811,
                    "duration": 0.07291666666674246
                },
                {
                    "name": "D#5",
                    "midi": 75,
                    "time": 901.5562500000029,
                    "velocity": 0.84251968503937,
                    "duration": 0.039583333333325754
                },
                {
                    "name": "G#6",
                    "midi": 92,
                    "time": 901.8083333333362,
                    "velocity": 0.889763779527559,
                    "duration": 0.07083333333332575
                },
                {
                    "name": "G#5",
                    "midi": 80,
                    "time": 901.8104166666695,
                    "velocity": 0.8976377952755905,
                    "duration": 0.05624999999997726
                },
                {
                    "name": "C4",
                    "midi": 60,
                    "time": 902.0479166666696,
                    "velocity": 0.9291338582677166,
                    "duration": 0.07916666666665151
                },
                {
                    "name": "F#3",
                    "midi": 54,
                    "time": 902.0500000000029,
                    "velocity": 0.8976377952755905,
                    "duration": 0.09791666666671972
                },
                {
                    "name": "D#3",
                    "midi": 51,
                    "time": 902.0520833333362,
                    "velocity": 0.9448818897637795,
                    "duration": 0.11458333333337123
                },
                {
                    "name": "C4",
                    "midi": 60,
                    "time": 902.3020833333362,
                    "velocity": 0.9448818897637795,
                    "duration": 0.37083333333339397
                },
                {
                    "name": "D#3",
                    "midi": 51,
                    "time": 902.3020833333362,
                    "velocity": 0.9291338582677166,
                    "duration": 0.3791666666667197
                },
                {
                    "name": "F#3",
                    "midi": 54,
                    "time": 902.3041666666695,
                    "velocity": 0.905511811023622,
                    "duration": 0.35416666666674246
                },
                {
                    "name": "F6",
                    "midi": 89,
                    "time": 902.3104166666695,
                    "velocity": 0.7952755905511811,
                    "duration": 0.06041666666669698
                },
                {
                    "name": "F5",
                    "midi": 77,
                    "time": 902.3187500000029,
                    "velocity": 0.7165354330708661,
                    "duration": 0.039583333333325754
                },
                {
                    "name": "D#6",
                    "midi": 87,
                    "time": 902.5395833333363,
                    "velocity": 0.7874015748031497,
                    "duration": 0.0625
                },
                {
                    "name": "D#5",
                    "midi": 75,
                    "time": 902.5500000000029,
                    "velocity": 0.7322834645669292,
                    "duration": 0.04791666666665151
                },
                {
                    "name": "C4",
                    "midi": 60,
                    "time": 902.787500000003,
                    "velocity": 0.7952755905511811,
                    "duration": 0.08124999999995453
                },
                {
                    "name": "G#5",
                    "midi": 80,
                    "time": 902.787500000003,
                    "velocity": 0.7952755905511811,
                    "duration": 0.685416666666697
                },
                {
                    "name": "F#3",
                    "midi": 54,
                    "time": 902.7895833333363,
                    "velocity": 0.8110236220472441,
                    "duration": 0.09791666666660603
                },
                {
                    "name": "D#3",
                    "midi": 51,
                    "time": 902.7895833333363,
                    "velocity": 0.7952755905511811,
                    "duration": 0.11041666666665151
                },
                {
                    "name": "G#4",
                    "midi": 68,
                    "time": 902.7979166666696,
                    "velocity": 0.7637795275590551,
                    "duration": 0.5854166666667879
                },
                {
                    "name": "F#3",
                    "midi": 54,
                    "time": 902.9958333333362,
                    "velocity": 0.7716535433070866,
                    "duration": 0.3312500000001819
                },
                {
                    "name": "D#3",
                    "midi": 51,
                    "time": 903.0020833333363,
                    "velocity": 0.7874015748031497,
                    "duration": 0.3312500000001819
                },
                {
                    "name": "C4",
                    "midi": 60,
                    "time": 903.006250000003,
                    "velocity": 0.7086614173228346,
                    "duration": 0.3020833333334849
                },
                {
                    "name": "D#3",
                    "midi": 51,
                    "time": 903.4729166666697,
                    "velocity": 0.84251968503937,
                    "duration": 0.13124999999990905
                },
                {
                    "name": "F#3",
                    "midi": 54,
                    "time": 903.475000000003,
                    "velocity": 0.8503937007874016,
                    "duration": 0.10416666666662877
                },
                {
                    "name": "C4",
                    "midi": 60,
                    "time": 903.475000000003,
                    "velocity": 0.8740157480314961,
                    "duration": 0.08958333333328028
                },
                {
                    "name": "D#3",
                    "midi": 51,
                    "time": 903.7166666666695,
                    "velocity": 0.8346456692913385,
                    "duration": 0.345833333333303
                },
                {
                    "name": "F#3",
                    "midi": 54,
                    "time": 903.7187500000028,
                    "velocity": 0.8818897637795275,
                    "duration": 0.345833333333303
                },
                {
                    "name": "C5",
                    "midi": 72,
                    "time": 903.7187500000028,
                    "velocity": 0.7559055118110236,
                    "duration": 0.1416666666666515
                },
                {
                    "name": "C4",
                    "midi": 60,
                    "time": 903.7208333333361,
                    "velocity": 0.8740157480314961,
                    "duration": 0.33333333333337123
                },
                {
                    "name": "D#5",
                    "midi": 75,
                    "time": 903.8312500000028,
                    "velocity": 0.7716535433070866,
                    "duration": 0.12916666666671972
                },
                {
                    "name": "F5",
                    "midi": 77,
                    "time": 903.9395833333361,
                    "velocity": 0.4330708661417323,
                    "duration": 0.12291666666669698
                },
                {
                    "name": "G#5",
                    "midi": 80,
                    "time": 904.0333333333361,
                    "velocity": 0.7086614173228346,
                    "duration": 0.08124999999995453
                },
                {
                    "name": "F#3",
                    "midi": 54,
                    "time": 904.1583333333361,
                    "velocity": 0.905511811023622,
                    "duration": 0.15208333333339397
                },
                {
                    "name": "D#3",
                    "midi": 51,
                    "time": 904.1583333333361,
                    "velocity": 0.905511811023622,
                    "duration": 0.16875000000004547
                },
                {
                    "name": "C4",
                    "midi": 60,
                    "time": 904.1604166666694,
                    "velocity": 0.9212598425196851,
                    "duration": 0.13333333333343944
                },
                {
                    "name": "C6",
                    "midi": 84,
                    "time": 904.1750000000028,
                    "velocity": 0.7401574803149606,
                    "duration": 0.10625000000004547
                },
                {
                    "name": "D#6",
                    "midi": 87,
                    "time": 904.2729166666695,
                    "velocity": 0.8110236220472441,
                    "duration": 0.10833333333334849
                },
                {
                    "name": "F6",
                    "midi": 89,
                    "time": 904.3791666666696,
                    "velocity": 0.7244094488188977,
                    "duration": 0.10624999999993179
                },
                {
                    "name": "F#3",
                    "midi": 54,
                    "time": 904.3791666666696,
                    "velocity": 0.8267716535433071,
                    "duration": 0.15833333333330302
                },
                {
                    "name": "D#3",
                    "midi": 51,
                    "time": 904.3812500000029,
                    "velocity": 0.8110236220472441,
                    "duration": 0.15208333333328028
                },
                {
                    "name": "C4",
                    "midi": 60,
                    "time": 904.3833333333362,
                    "velocity": 0.8818897637795275,
                    "duration": 0.16041666666671972
                },
                {
                    "name": "G#6",
                    "midi": 92,
                    "time": 904.4687500000028,
                    "velocity": 0.7086614173228346,
                    "duration": 0.04583333333334849
                },
                {
                    "name": "C7",
                    "midi": 96,
                    "time": 904.5750000000029,
                    "velocity": 0.84251968503937,
                    "duration": 0.08749999999997726
                },
                {
                    "name": "D#7",
                    "midi": 99,
                    "time": 904.6770833333362,
                    "velocity": 0.8110236220472441,
                    "duration": 0.1250000000001137
                },
                {
                    "name": "F#3",
                    "midi": 54,
                    "time": 904.7833333333363,
                    "velocity": 0.6456692913385826,
                    "duration": 0.13750000000015916
                },
                {
                    "name": "F7",
                    "midi": 101,
                    "time": 904.7854166666696,
                    "velocity": 0.5984251968503937,
                    "duration": 0.10833333333346218
                },
                {
                    "name": "D#3",
                    "midi": 51,
                    "time": 904.7916666666696,
                    "velocity": 0.6850393700787402,
                    "duration": 0.2187500000001137
                },
                {
                    "name": "C4",
                    "midi": 60,
                    "time": 904.7958333333363,
                    "velocity": 0.44881889763779526,
                    "duration": 0.043750000000045475
                },
                {
                    "name": "G#7",
                    "midi": 104,
                    "time": 904.8479166666697,
                    "velocity": 0.7559055118110236,
                    "duration": 0.06875000000002274
                },
                {
                    "name": "G#2",
                    "midi": 44,
                    "time": 904.9833333333364,
                    "velocity": 0.7165354330708661,
                    "duration": 0.11041666666653782
                },
                {
                    "name": "D#3",
                    "midi": 51,
                    "time": 905.0666666666697,
                    "velocity": 0.48031496062992124,
                    "duration": 0.5437500000003865
                },
                {
                    "name": "F#3",
                    "midi": 54,
                    "time": 905.1770833333363,
                    "velocity": 0.7322834645669292,
                    "duration": 0.4291666666670153
                },
                {
                    "name": "B3",
                    "midi": 59,
                    "time": 905.1979166666697,
                    "velocity": 0.9212598425196851,
                    "duration": 0.40416666666692436
                },
                {
                    "name": "F6",
                    "midi": 89,
                    "time": 905.1979166666697,
                    "velocity": 0.7716535433070866,
                    "duration": 0.07291666666685614
                },
                {
                    "name": "F5",
                    "midi": 77,
                    "time": 905.2145833333365,
                    "velocity": 0.5905511811023622,
                    "duration": 0.043750000000045475
                },
                {
                    "name": "D#6",
                    "midi": 87,
                    "time": 905.4583333333366,
                    "velocity": 0.8346456692913385,
                    "duration": 0.10000000000002274
                },
                {
                    "name": "D#5",
                    "midi": 75,
                    "time": 905.4645833333366,
                    "velocity": 0.8188976377952756,
                    "duration": 0.043750000000045475
                },
                {
                    "name": "F#3",
                    "midi": 54,
                    "time": 905.6854166666701,
                    "velocity": 0.7716535433070866,
                    "duration": 0.07499999999993179
                },
                {
                    "name": "B3",
                    "midi": 59,
                    "time": 905.6854166666701,
                    "velocity": 0.7874015748031497,
                    "duration": 0.07291666666662877
                },
                {
                    "name": "D#3",
                    "midi": 51,
                    "time": 905.6875000000034,
                    "velocity": 0.7637795275590551,
                    "duration": 0.08541666666667425
                },
                {
                    "name": "G#6",
                    "midi": 92,
                    "time": 905.6895833333367,
                    "velocity": 0.905511811023622,
                    "duration": 0.23125000000004547
                },
                {
                    "name": "G#5",
                    "midi": 80,
                    "time": 905.69166666667,
                    "velocity": 0.8818897637795275,
                    "duration": 0.2666666666667652
                },
                {
                    "name": "B3",
                    "midi": 59,
                    "time": 905.9145833333367,
                    "velocity": 0.952755905511811,
                    "duration": 0.06875000000002274
                },
                {
                    "name": "D#3",
                    "midi": 51,
                    "time": 905.91666666667,
                    "velocity": 0.937007874015748,
                    "duration": 0.08958333333339397
                },
                {
                    "name": "F#3",
                    "midi": 54,
                    "time": 905.91666666667,
                    "velocity": 0.937007874015748,
                    "duration": 0.07291666666674246
                },
                {
                    "name": "F6",
                    "midi": 89,
                    "time": 906.1520833333368,
                    "velocity": 0.7007874015748031,
                    "duration": 0.04583333333334849
                },
                {
                    "name": "B3",
                    "midi": 59,
                    "time": 906.3395833333368,
                    "velocity": 0.8346456692913385,
                    "duration": 0.08541666666678793
                },
                {
                    "name": "F#3",
                    "midi": 54,
                    "time": 906.3416666666701,
                    "velocity": 0.8582677165354331,
                    "duration": 0.1125000000001819
                },
                {
                    "name": "D#3",
                    "midi": 51,
                    "time": 906.3437500000034,
                    "velocity": 0.8582677165354331,
                    "duration": 0.1312500000002501
                },
                {
                    "name": "D#6",
                    "midi": 87,
                    "time": 906.3500000000034,
                    "velocity": 0.8188976377952756,
                    "duration": 0.06250000000011369
                },
                {
                    "name": "D#5",
                    "midi": 75,
                    "time": 906.3645833333368,
                    "velocity": 0.6771653543307087,
                    "duration": 0.03541666666671972
                },
                {
                    "name": "B3",
                    "midi": 59,
                    "time": 906.577083333337,
                    "velocity": 0.889763779527559,
                    "duration": 0.06041666666669698
                },
                {
                    "name": "G#5",
                    "midi": 80,
                    "time": 906.577083333337,
                    "velocity": 0.8346456692913385,
                    "duration": 0.6604166666668334
                },
                {
                    "name": "D#3",
                    "midi": 51,
                    "time": 906.5791666666703,
                    "velocity": 0.9133858267716536,
                    "duration": 0.07500000000015916
                },
                {
                    "name": "F#3",
                    "midi": 54,
                    "time": 906.583333333337,
                    "velocity": 0.8976377952755905,
                    "duration": 0.058333333333393966
                },
                {
                    "name": "G#4",
                    "midi": 68,
                    "time": 906.583333333337,
                    "velocity": 0.9133858267716536,
                    "duration": 0.6062500000001592
                },
                {
                    "name": "F#5",
                    "midi": 78,
                    "time": 906.6000000000037,
                    "velocity": 0.6456692913385826,
                    "duration": 0.03333333333330302
                },
                {
                    "name": "B3",
                    "midi": 59,
                    "time": 907.0125000000038,
                    "velocity": 0.9212598425196851,
                    "duration": 0.07083333333332575
                },
                {
                    "name": "F#3",
                    "midi": 54,
                    "time": 907.0145833333371,
                    "velocity": 0.9291338582677166,
                    "duration": 0.08333333333337123
                },
                {
                    "name": "D#3",
                    "midi": 51,
                    "time": 907.0187500000038,
                    "velocity": 0.937007874015748,
                    "duration": 0.10208333333332575
                },
                {
                    "name": "B3",
                    "midi": 59,
                    "time": 907.2395833333371,
                    "velocity": 0.9291338582677166,
                    "duration": 0.33958333333339397
                },
                {
                    "name": "D#3",
                    "midi": 51,
                    "time": 907.2437500000038,
                    "velocity": 0.9291338582677166,
                    "duration": 0.341666666666697
                },
                {
                    "name": "F#3",
                    "midi": 54,
                    "time": 907.2458333333371,
                    "velocity": 0.905511811023622,
                    "duration": 0.3291666666666515
                },
                {
                    "name": "B4",
                    "midi": 71,
                    "time": 907.4625000000037,
                    "velocity": 0.7637795275590551,
                    "duration": 0.10625000000004547
                },
                {
                    "name": "D#5",
                    "midi": 75,
                    "time": 907.5604166666704,
                    "velocity": 0.8346456692913385,
                    "duration": 0.15208333333350765
                },
                {
                    "name": "F#3",
                    "midi": 54,
                    "time": 907.6604166666706,
                    "velocity": 0.8582677165354331,
                    "duration": 0.37083333333350765
                },
                {
                    "name": "D#3",
                    "midi": 51,
                    "time": 907.6604166666706,
                    "velocity": 0.7874015748031497,
                    "duration": 0.3791666666668334
                },
                {
                    "name": "B3",
                    "midi": 59,
                    "time": 907.6604166666706,
                    "velocity": 0.8503937007874016,
                    "duration": 0.36875000000020464
                },
                {
                    "name": "F#5",
                    "midi": 78,
                    "time": 907.6666666666706,
                    "velocity": 0.7874015748031497,
                    "duration": 0.13125000000002274
                },
                {
                    "name": "G#5",
                    "midi": 80,
                    "time": 907.7520833333373,
                    "velocity": 0.7637795275590551,
                    "duration": 0.07500000000004547
                },
                {
                    "name": "B5",
                    "midi": 83,
                    "time": 907.8729166666707,
                    "velocity": 0.7716535433070866,
                    "duration": 0.10000000000002274
                },
                {
                    "name": "D#6",
                    "midi": 87,
                    "time": 907.9937500000041,
                    "velocity": 0.8346456692913385,
                    "duration": 0.15208333333328028
                },
                {
                    "name": "F#6",
                    "midi": 90,
                    "time": 908.1041666666707,
                    "velocity": 0.8346456692913385,
                    "duration": 0.13541666666662877
                },
                {
                    "name": "B3",
                    "midi": 59,
                    "time": 908.106250000004,
                    "velocity": 0.9133858267716536,
                    "duration": 0.42708333333337123
                },
                {
                    "name": "F#3",
                    "midi": 54,
                    "time": 908.1104166666707,
                    "velocity": 0.889763779527559,
                    "duration": 0.4208333333333485
                },
                {
                    "name": "D#3",
                    "midi": 51,
                    "time": 908.112500000004,
                    "velocity": 0.8661417322834646,
                    "duration": 0.41666666666674246
                },
                {
                    "name": "G#6",
                    "midi": 92,
                    "time": 908.2020833333373,
                    "velocity": 0.7637795275590551,
                    "duration": 0.07500000000004547
                },
                {
                    "name": "B6",
                    "midi": 95,
                    "time": 908.3208333333374,
                    "velocity": 0.8503937007874016,
                    "duration": 0.10000000000002274
                },
                {
                    "name": "D#7",
                    "midi": 99,
                    "time": 908.4354166666708,
                    "velocity": 0.8818897637795275,
                    "duration": 0.16666666666651508
                },
                {
                    "name": "F#7",
                    "midi": 102,
                    "time": 908.5562500000041,
                    "velocity": 0.84251968503937,
                    "duration": 0.16458333333321207
                },
                {
                    "name": "B3",
                    "midi": 59,
                    "time": 908.5979166666707,
                    "velocity": 0.8503937007874016,
                    "duration": 0.07291666666662877
                },
                {
                    "name": "F#3",
                    "midi": 54,
                    "time": 908.600000000004,
                    "velocity": 0.8346456692913385,
                    "duration": 0.07916666666665151
                },
                {
                    "name": "D#3",
                    "midi": 51,
                    "time": 908.6041666666706,
                    "velocity": 0.8188976377952756,
                    "duration": 0.09583333333330302
                },
                {
                    "name": "G#7",
                    "midi": 104,
                    "time": 908.6895833333373,
                    "velocity": 0.9291338582677166,
                    "duration": 0.11458333333337123
                },
                {
                    "name": "D#3",
                    "midi": 51,
                    "time": 908.9708333333374,
                    "velocity": 1,
                    "duration": 0.18958333333330302
                },
                {
                    "name": "D#2",
                    "midi": 39,
                    "time": 908.9708333333374,
                    "velocity": 0.8976377952755905,
                    "duration": 0.14999999999997726
                },
                {
                    "name": "D#6",
                    "midi": 87,
                    "time": 909.2666666666707,
                    "velocity": 0.8582677165354331,
                    "duration": 0.15416666666669698
                },
                {
                    "name": "D#5",
                    "midi": 75,
                    "time": 909.2708333333375,
                    "velocity": 0.937007874015748,
                    "duration": 0.07291666666662877
                },
                {
                    "name": "G3",
                    "midi": 55,
                    "time": 909.4645833333375,
                    "velocity": 0.5275590551181102,
                    "duration": 0.11250000000006821
                },
                {
                    "name": "A#3",
                    "midi": 58,
                    "time": 909.5145833333374,
                    "velocity": 0.6377952755905512,
                    "duration": 0.09166666666681067
                },
                {
                    "name": "D#4",
                    "midi": 63,
                    "time": 909.5375000000041,
                    "velocity": 0.905511811023622,
                    "duration": 0.0791666666667652
                },
                {
                    "name": "G4",
                    "midi": 67,
                    "time": 909.5500000000042,
                    "velocity": 0.952755905511811,
                    "duration": 0.06875000000002274
                },
                {
                    "name": "D#6",
                    "midi": 87,
                    "time": 909.5625000000042,
                    "velocity": 0.8582677165354331,
                    "duration": 0.11458333333325754
                },
                {
                    "name": "D#5",
                    "midi": 75,
                    "time": 909.5645833333375,
                    "velocity": 0.8661417322834646,
                    "duration": 0.07916666666665151
                },
                {
                    "name": "A#5",
                    "midi": 82,
                    "time": 909.5666666666708,
                    "velocity": 0.8188976377952756,
                    "duration": 0.14999999999997726
                },
                {
                    "name": "G5",
                    "midi": 79,
                    "time": 909.5708333333375,
                    "velocity": 0.7244094488188977,
                    "duration": 0.10416666666662877
                },
                {
                    "name": "A3",
                    "midi": 57,
                    "time": 909.5875000000042,
                    "velocity": 0.5590551181102362,
                    "duration": 0.04166666666662877
                },
                {
                    "name": "B3",
                    "midi": 59,
                    "time": 909.6020833333375,
                    "velocity": 0.6535433070866141,
                    "duration": 0.04583333333334849
                },
                {
                    "name": "D#6",
                    "midi": 87,
                    "time": 909.8250000000041,
                    "velocity": 0.8661417322834646,
                    "duration": 0.11874999999997726
                },
                {
                    "name": "D#5",
                    "midi": 75,
                    "time": 909.8333333333375,
                    "velocity": 0.9291338582677166,
                    "duration": 0.07083333333332575
                },
                {
                    "name": "A#1",
                    "midi": 34,
                    "time": 910.0479166666707,
                    "velocity": 0.84251968503937,
                    "duration": 0.06875000000013642
                },
                {
                    "name": "A#2",
                    "midi": 46,
                    "time": 910.0562500000041,
                    "velocity": 0.9763779527559056,
                    "duration": 0.10000000000025011
                },
                {
                    "name": "D#6",
                    "midi": 87,
                    "time": 910.0687500000041,
                    "velocity": 0.8976377952755905,
                    "duration": 0.06458333333353039
                },
                {
                    "name": "D#5",
                    "midi": 75,
                    "time": 910.0708333333374,
                    "velocity": 0.968503937007874,
                    "duration": 0.05833333333350765
                },
                {
                    "name": "C#6",
                    "midi": 85,
                    "time": 910.3208333333376,
                    "velocity": 0.8661417322834646,
                    "duration": 0.12916666666671972
                },
                {
                    "name": "C#5",
                    "midi": 73,
                    "time": 910.322916666671,
                    "velocity": 0.8976377952755905,
                    "duration": 0.09166666666669698
                },
                {
                    "name": "G#3",
                    "midi": 56,
                    "time": 910.4500000000044,
                    "velocity": 0.5669291338582677,
                    "duration": 0.11874999999986358
                },
                {
                    "name": "C#4",
                    "midi": 61,
                    "time": 910.5395833333376,
                    "velocity": 0.6535433070866141,
                    "duration": 0.12083333333339397
                },
                {
                    "name": "F4",
                    "midi": 65,
                    "time": 910.547916666671,
                    "velocity": 0.8582677165354331,
                    "duration": 0.07499999999993179
                },
                {
                    "name": "C#6",
                    "midi": 85,
                    "time": 910.5500000000043,
                    "velocity": 0.8661417322834646,
                    "duration": 0.11666666666678793
                },
                {
                    "name": "G#4",
                    "midi": 68,
                    "time": 910.5520833333376,
                    "velocity": 0.9921259842519685,
                    "duration": 0.08333333333337123
                },
                {
                    "name": "C#5",
                    "midi": 73,
                    "time": 910.5520833333376,
                    "velocity": 0.9133858267716536,
                    "duration": 0.0958333333334167
                },
                {
                    "name": "F5",
                    "midi": 77,
                    "time": 910.5541666666709,
                    "velocity": 0.7795275590551181,
                    "duration": 0.11041666666687888
                },
                {
                    "name": "G#5",
                    "midi": 80,
                    "time": 910.5604166666709,
                    "velocity": 0.7480314960629921,
                    "duration": 0.12291666666681067
                },
                {
                    "name": "C#6",
                    "midi": 85,
                    "time": 910.804166666671,
                    "velocity": 0.8661417322834646,
                    "duration": 0.10416666666662877
                },
                {
                    "name": "C#5",
                    "midi": 73,
                    "time": 910.8062500000043,
                    "velocity": 0.937007874015748,
                    "duration": 0.06875000000002274
                },
                {
                    "name": "C#6",
                    "midi": 85,
                    "time": 911.0625000000043,
                    "velocity": 0.9291338582677166,
                    "duration": 0.07499999999993179
                },
                {
                    "name": "C#5",
                    "midi": 73,
                    "time": 911.0625000000043,
                    "velocity": 0.984251968503937,
                    "duration": 0.060416666666583296
                },
                {
                    "name": "D#3",
                    "midi": 51,
                    "time": 911.0645833333376,
                    "velocity": 0.968503937007874,
                    "duration": 0.07291666666662877
                },
                {
                    "name": "D#2",
                    "midi": 39,
                    "time": 911.0645833333376,
                    "velocity": 0.5118110236220472,
                    "duration": 0.05833333333328028
                },
                {
                    "name": "D#6",
                    "midi": 87,
                    "time": 911.3458333333376,
                    "velocity": 0.889763779527559,
                    "duration": 0.09791666666671972
                },
                {
                    "name": "D#5",
                    "midi": 75,
                    "time": 911.3479166666709,
                    "velocity": 0.9291338582677166,
                    "duration": 0.06041666666669698
                },
                {
                    "name": "G3",
                    "midi": 55,
                    "time": 911.5708333333376,
                    "velocity": 0.5669291338582677,
                    "duration": 0.12916666666671972
                },
                {
                    "name": "D#4",
                    "midi": 63,
                    "time": 911.5958333333376,
                    "velocity": 0.84251968503937,
                    "duration": 0.07291666666674246
                },
                {
                    "name": "A#3",
                    "midi": 58,
                    "time": 911.5958333333376,
                    "velocity": 0.6692913385826772,
                    "duration": 0.11250000000006821
                },
                {
                    "name": "G4",
                    "midi": 67,
                    "time": 911.6000000000043,
                    "velocity": 0.8976377952755905,
                    "duration": 0.058333333333393966
                },
                {
                    "name": "D#6",
                    "midi": 87,
                    "time": 911.6000000000043,
                    "velocity": 0.905511811023622,
                    "duration": 0.10833333333334849
                },
                {
                    "name": "D#5",
                    "midi": 75,
                    "time": 911.6041666666711,
                    "velocity": 0.9291338582677166,
                    "duration": 0.0625
                },
                {
                    "name": "G5",
                    "midi": 79,
                    "time": 911.6062500000044,
                    "velocity": 0.7559055118110236,
                    "duration": 0.08333333333337123
                },
                {
                    "name": "A#5",
                    "midi": 82,
                    "time": 911.6125000000044,
                    "velocity": 0.7007874015748031,
                    "duration": 0.10208333333332575
                },
                {
                    "name": "D#6",
                    "midi": 87,
                    "time": 911.866666666671,
                    "velocity": 0.8582677165354331,
                    "duration": 0.07916666666665151
                },
                {
                    "name": "D#5",
                    "midi": 75,
                    "time": 911.872916666671,
                    "velocity": 0.8818897637795275,
                    "duration": 0.054166666666674246
                },
                {
                    "name": "A#1",
                    "midi": 34,
                    "time": 912.1062500000044,
                    "velocity": 0.5984251968503937,
                    "duration": 0.06041666666669698
                },
                {
                    "name": "A#2",
                    "midi": 46,
                    "time": 912.1145833333377,
                    "velocity": 1,
                    "duration": 0.0791666666667652
                },
                {
                    "name": "D#6",
                    "midi": 87,
                    "time": 912.1354166666711,
                    "velocity": 0.9448818897637795,
                    "duration": 0.08125000000006821
                },
                {
                    "name": "D#5",
                    "midi": 75,
                    "time": 912.1354166666711,
                    "velocity": 1,
                    "duration": 0.05208333333337123
                },
                {
                    "name": "F#6",
                    "midi": 90,
                    "time": 912.4187500000045,
                    "velocity": 0.8976377952755905,
                    "duration": 0.09374999999988631
                },
                {
                    "name": "F#5",
                    "midi": 78,
                    "time": 912.4208333333378,
                    "velocity": 0.889763779527559,
                    "duration": 0.06458333333330302
                },
                {
                    "name": "F#3",
                    "midi": 54,
                    "time": 912.685416666671,
                    "velocity": 0.6377952755905512,
                    "duration": 0.125
                },
                {
                    "name": "F#4",
                    "midi": 66,
                    "time": 912.704166666671,
                    "velocity": 0.9291338582677166,
                    "duration": 0.07500000000004547
                },
                {
                    "name": "D#4",
                    "midi": 63,
                    "time": 912.7083333333377,
                    "velocity": 0.8818897637795275,
                    "duration": 0.10833333333334849
                },
                {
                    "name": "F#6",
                    "midi": 90,
                    "time": 912.7083333333377,
                    "velocity": 0.8976377952755905,
                    "duration": 0.1395833333333485
                },
                {
                    "name": "F#5",
                    "midi": 78,
                    "time": 912.7125000000044,
                    "velocity": 0.968503937007874,
                    "duration": 0.11249999999995453
                },
                {
                    "name": "B3",
                    "midi": 59,
                    "time": 912.7125000000044,
                    "velocity": 0.6850393700787402,
                    "duration": 0.1374999999999318
                },
                {
                    "name": "D#6",
                    "midi": 87,
                    "time": 912.7145833333377,
                    "velocity": 0.8267716535433071,
                    "duration": 0.1729166666666515
                },
                {
                    "name": "B5",
                    "midi": 83,
                    "time": 912.7145833333377,
                    "velocity": 0.7874015748031497,
                    "duration": 0.13333333333332575
                },
                {
                    "name": "F#6",
                    "midi": 90,
                    "time": 913.0479166666711,
                    "velocity": 0.9133858267716536,
                    "duration": 0.14791666666667425
                },
                {
                    "name": "F#5",
                    "midi": 78,
                    "time": 913.0541666666711,
                    "velocity": 0.9448818897637795,
                    "duration": 0.07291666666662877
                },
                {
                    "name": "D#2",
                    "midi": 39,
                    "time": 913.4541666666711,
                    "velocity": 0.8267716535433071,
                    "duration": 0.09166666666669698
                },
                {
                    "name": "F#6",
                    "midi": 90,
                    "time": 913.4583333333378,
                    "velocity": 0.9133858267716536,
                    "duration": 0.1416666666666515
                },
                {
                    "name": "F#5",
                    "midi": 78,
                    "time": 913.4604166666711,
                    "velocity": 0.9763779527559056,
                    "duration": 0.11874999999997726
                },
                {
                    "name": "D#3",
                    "midi": 51,
                    "time": 913.4625000000044,
                    "velocity": 0.9921259842519685,
                    "duration": 0.08541666666667425
                },
                {
                    "name": "D#6",
                    "midi": 87,
                    "time": 913.4916666666711,
                    "velocity": 0.5984251968503937,
                    "duration": 0.03333333333330302
                },
                {
                    "name": "G6",
                    "midi": 91,
                    "time": 913.8791666666712,
                    "velocity": 0.8582677165354331,
                    "duration": 0.04166666666674246
                },
                {
                    "name": "G5",
                    "midi": 79,
                    "time": 913.8833333333379,
                    "velocity": 0.8582677165354331,
                    "duration": 0.04166666666674246
                },
                {
                    "name": "D#3",
                    "midi": 51,
                    "time": 914.2541666666713,
                    "velocity": 0.7244094488188977,
                    "duration": 0.16041666666671972
                },
                {
                    "name": "D#4",
                    "midi": 63,
                    "time": 914.2645833333379,
                    "velocity": 0.9921259842519685,
                    "duration": 0.07708333333334849
                },
                {
                    "name": "A#3",
                    "midi": 58,
                    "time": 914.2708333333379,
                    "velocity": 0.8267716535433071,
                    "duration": 0.07291666666662877
                },
                {
                    "name": "G3",
                    "midi": 55,
                    "time": 914.2791666666712,
                    "velocity": 0.6614173228346457,
                    "duration": 0.09375
                },
                {
                    "name": "D#6",
                    "midi": 87,
                    "time": 914.2791666666712,
                    "velocity": 0.8976377952755905,
                    "duration": 0.10000000000002274
                },
                {
                    "name": "D#5",
                    "midi": 75,
                    "time": 914.2812500000045,
                    "velocity": 1,
                    "duration": 0.07083333333332575
                },
                {
                    "name": "A#5",
                    "midi": 82,
                    "time": 914.2854166666713,
                    "velocity": 0.8661417322834646,
                    "duration": 0.060416666666583296
                },
                {
                    "name": "C3",
                    "midi": 48,
                    "time": 914.6500000000046,
                    "velocity": 0.5748031496062992,
                    "duration": 0.07500000000004547
                },
                {
                    "name": "G3",
                    "midi": 55,
                    "time": 914.664583333338,
                    "velocity": 0.7637795275590551,
                    "duration": 0.06666666666660603
                },
                {
                    "name": "C4",
                    "midi": 60,
                    "time": 914.664583333338,
                    "velocity": 0.9133858267716536,
                    "duration": 0.0625
                },
                {
                    "name": "D#3",
                    "midi": 51,
                    "time": 914.6687500000047,
                    "velocity": 0.7637795275590551,
                    "duration": 0.08541666666656056
                },
                {
                    "name": "C6",
                    "midi": 84,
                    "time": 914.6729166666714,
                    "velocity": 0.8740157480314961,
                    "duration": 0.06041666666646961
                },
                {
                    "name": "C5",
                    "midi": 72,
                    "time": 914.6750000000047,
                    "velocity": 0.8976377952755905,
                    "duration": 0.05416666666656056
                },
                {
                    "name": "C#3",
                    "midi": 49,
                    "time": 914.9729166666713,
                    "velocity": 0.6850393700787402,
                    "duration": 0.1708333333333485
                },
                {
                    "name": "C#4",
                    "midi": 61,
                    "time": 914.9812500000046,
                    "velocity": 0.937007874015748,
                    "duration": 0.13541666666662877
                },
                {
                    "name": "C#5",
                    "midi": 73,
                    "time": 914.9895833333379,
                    "velocity": 0.952755905511811,
                    "duration": 0.10208333333332575
                },
                {
                    "name": "C#6",
                    "midi": 85,
                    "time": 914.9916666666712,
                    "velocity": 0.8976377952755905,
                    "duration": 0.13750000000004547
                },
                {
                    "name": "G3",
                    "midi": 55,
                    "time": 914.9937500000045,
                    "velocity": 0.6141732283464567,
                    "duration": 0.15208333333339397
                },
                {
                    "name": "D#3",
                    "midi": 51,
                    "time": 914.9937500000045,
                    "velocity": 0.6299212598425197,
                    "duration": 0.18541666666669698
                },
                {
                    "name": "C4",
                    "midi": 60,
                    "time": 915.2458333333379,
                    "velocity": 0.8503937007874016,
                    "duration": 0.06041666666669698
                },
                {
                    "name": "G3",
                    "midi": 55,
                    "time": 915.2479166666712,
                    "velocity": 0.7165354330708661,
                    "duration": 0.06875000000013642
                },
                {
                    "name": "C3",
                    "midi": 48,
                    "time": 915.2479166666712,
                    "velocity": 0.6299212598425197,
                    "duration": 0.07500000000015916
                },
                {
                    "name": "C6",
                    "midi": 84,
                    "time": 915.2479166666712,
                    "velocity": 0.8110236220472441,
                    "duration": 0.06250000000011369
                },
                {
                    "name": "C5",
                    "midi": 72,
                    "time": 915.252083333338,
                    "velocity": 0.8503937007874016,
                    "duration": 0.04791666666665151
                },
                {
                    "name": "D#3",
                    "midi": 51,
                    "time": 915.2541666666713,
                    "velocity": 0.6929133858267716,
                    "duration": 0.3125000000001137
                },
                {
                    "name": "B3",
                    "midi": 59,
                    "time": 915.2770833333379,
                    "velocity": 0.4330708661417323,
                    "duration": 0.0500000000001819
                },
                {
                    "name": "A#2",
                    "midi": 46,
                    "time": 915.5041666666715,
                    "velocity": 0.7244094488188977,
                    "duration": 0.07291666666662877
                },
                {
                    "name": "F#3",
                    "midi": 54,
                    "time": 915.5166666666715,
                    "velocity": 0.7086614173228346,
                    "duration": 0.03958333333321207
                },
                {
                    "name": "A#5",
                    "midi": 82,
                    "time": 915.5187500000048,
                    "velocity": 0.8818897637795275,
                    "duration": 0.06458333333330302
                },
                {
                    "name": "A#4",
                    "midi": 70,
                    "time": 915.5208333333381,
                    "velocity": 0.952755905511811,
                    "duration": 0.05208333333325754
                },
                {
                    "name": "A#3",
                    "midi": 58,
                    "time": 915.5291666666715,
                    "velocity": 0.9291338582677166,
                    "duration": 0.07708333333334849
                },
                {
                    "name": "F#3",
                    "midi": 54,
                    "time": 915.8041666666714,
                    "velocity": 0.9291338582677166,
                    "duration": 0.15208333333339397
                },
                {
                    "name": "F#5",
                    "midi": 78,
                    "time": 915.8062500000048,
                    "velocity": 0.905511811023622,
                    "duration": 0.16250000000013642
                },
                {
                    "name": "F#2",
                    "midi": 42,
                    "time": 915.808333333338,
                    "velocity": 0.8818897637795275,
                    "duration": 0.16458333333355313
                },
                {
                    "name": "F#4",
                    "midi": 66,
                    "time": 915.808333333338,
                    "velocity": 0.9921259842519685,
                    "duration": 0.08750000000009095
                },
                {
                    "name": "D#5",
                    "midi": 75,
                    "time": 915.8187500000047,
                    "velocity": 0.7637795275590551,
                    "duration": 0.13333333333343944
                },
                {
                    "name": "G#2",
                    "midi": 44,
                    "time": 915.8312500000047,
                    "velocity": 0.6377952755905512,
                    "duration": 0.03125
                },
                {
                    "name": "G2",
                    "midi": 43,
                    "time": 916.1270833333383,
                    "velocity": 0.7559055118110236,
                    "duration": 0.06874999999990905
                },
                {
                    "name": "G5",
                    "midi": 79,
                    "time": 916.1291666666716,
                    "velocity": 0.8582677165354331,
                    "duration": 0.06249999999988631
                },
                {
                    "name": "G4",
                    "midi": 67,
                    "time": 916.1312500000049,
                    "velocity": 0.9212598425196851,
                    "duration": 0.05833333333328028
                },
                {
                    "name": "G3",
                    "midi": 55,
                    "time": 916.1333333333382,
                    "velocity": 0.9133858267716536,
                    "duration": 0.06458333333330302
                },
                {
                    "name": "A#2",
                    "midi": 46,
                    "time": 916.1395833333382,
                    "velocity": 0.7322834645669292,
                    "duration": 0.05833333333328028
                },
                {
                    "name": "D#5",
                    "midi": 75,
                    "time": 916.1395833333382,
                    "velocity": 0.8582677165354331,
                    "duration": 0.05624999999997726
                },
                {
                    "name": "A#2",
                    "midi": 46,
                    "time": 916.4958333333382,
                    "velocity": 0.7952755905511811,
                    "duration": 0.0770833333332348
                },
                {
                    "name": "A#3",
                    "midi": 58,
                    "time": 916.4979166666715,
                    "velocity": 0.952755905511811,
                    "duration": 0.05416666666656056
                },
                {
                    "name": "A#4",
                    "midi": 70,
                    "time": 916.5000000000048,
                    "velocity": 0.9448818897637795,
                    "duration": 0.049999999999954525
                },
                {
                    "name": "A#5",
                    "midi": 82,
                    "time": 916.5000000000048,
                    "velocity": 0.9133858267716536,
                    "duration": 0.060416666666583296
                },
                {
                    "name": "D#5",
                    "midi": 75,
                    "time": 916.5041666666715,
                    "velocity": 0.8818897637795275,
                    "duration": 0.045833333333234805
                },
                {
                    "name": "D#3",
                    "midi": 51,
                    "time": 916.5229166666714,
                    "velocity": 0.6771653543307087,
                    "duration": 0.02708333333328028
                },
                {
                    "name": "G2",
                    "midi": 43,
                    "time": 916.8625000000047,
                    "velocity": 0.7716535433070866,
                    "duration": 0.060416666666583296
                },
                {
                    "name": "G3",
                    "midi": 55,
                    "time": 916.864583333338,
                    "velocity": 0.8976377952755905,
                    "duration": 0.05624999999997726
                },
                {
                    "name": "G5",
                    "midi": 79,
                    "time": 916.8687500000048,
                    "velocity": 0.8346456692913385,
                    "duration": 0.03125
                },
                {
                    "name": "A#2",
                    "midi": 46,
                    "time": 916.870833333338,
                    "velocity": 0.7874015748031497,
                    "duration": 0.05416666666656056
                },
                {
                    "name": "G4",
                    "midi": 67,
                    "time": 916.8750000000048,
                    "velocity": 0.8346456692913385,
                    "duration": 0.03333333333330302
                },
                {
                    "name": "D#5",
                    "midi": 75,
                    "time": 916.8770833333381,
                    "velocity": 0.8267716535433071,
                    "duration": 0.03333333333330302
                },
                {
                    "name": "D#2",
                    "midi": 39,
                    "time": 917.3375000000046,
                    "velocity": 0.7795275590551181,
                    "duration": 1.270833333333485
                },
                {
                    "name": "D#5",
                    "midi": 75,
                    "time": 917.3395833333379,
                    "velocity": 0.8818897637795275,
                    "duration": 1.241666666666788
                },
                {
                    "name": "D#4",
                    "midi": 63,
                    "time": 917.3416666666712,
                    "velocity": 0.952755905511811,
                    "duration": 1.183333333333394
                },
                {
                    "name": "G4",
                    "midi": 67,
                    "time": 917.3437500000045,
                    "velocity": 0.8346456692913385,
                    "duration": 1.1875000000001137
                },
                {
                    "name": "D#3",
                    "midi": 51,
                    "time": 917.3437500000045,
                    "velocity": 0.968503937007874,
                    "duration": 1.2604166666668561
                },
                {
                    "name": "A#2",
                    "midi": 46,
                    "time": 917.3500000000046,
                    "velocity": 0.8188976377952756,
                    "duration": 1.241666666666788
                },
                {
                    "name": "A#4",
                    "midi": 70,
                    "time": 917.3520833333379,
                    "velocity": 0.7322834645669292,
                    "duration": 1.1916666666668334
                },
                {
                    "name": "G2",
                    "midi": 43,
                    "time": 917.3562500000046,
                    "velocity": 0.7559055118110236,
                    "duration": 1.2354166666667652
                },
                {
                    "name": "D#3",
                    "midi": 51,
                    "time": 919.3041666666714,
                    "velocity": 1,
                    "duration": 0.11875000000009095
                },
                {
                    "name": "D#2",
                    "midi": 39,
                    "time": 919.3062500000048,
                    "velocity": 0.905511811023622,
                    "duration": 0.13541666666674246
                },
                {
                    "name": "F6",
                    "midi": 89,
                    "time": 919.308333333338,
                    "velocity": 0.9763779527559056,
                    "duration": 0.1416666666667652
                },
                {
                    "name": "C6",
                    "midi": 84,
                    "time": 919.3125000000048,
                    "velocity": 0.9448818897637795,
                    "duration": 0.08333333333337123
                },
                {
                    "name": "A5",
                    "midi": 81,
                    "time": 919.3125000000048,
                    "velocity": 0.952755905511811,
                    "duration": 0.10416666666674246
                },
                {
                    "name": "D3",
                    "midi": 50,
                    "time": 919.6312500000048,
                    "velocity": 0.9291338582677166,
                    "duration": 0.07291666666651508
                },
                {
                    "name": "D#6",
                    "midi": 87,
                    "time": 919.6333333333381,
                    "velocity": 0.889763779527559,
                    "duration": 0.06874999999990905
                },
                {
                    "name": "G6",
                    "midi": 91,
                    "time": 919.6354166666714,
                    "velocity": 0.8582677165354331,
                    "duration": 0.06458333333330302
                },
                {
                    "name": "D2",
                    "midi": 38,
                    "time": 919.6354166666714,
                    "velocity": 0.8818897637795275,
                    "duration": 0.0625
                },
                {
                    "name": "G5",
                    "midi": 79,
                    "time": 919.6375000000047,
                    "velocity": 0.8976377952755905,
                    "duration": 0.054166666666674246
                },
                {
                    "name": "C3",
                    "midi": 48,
                    "time": 919.9062500000047,
                    "velocity": 0.952755905511811,
                    "duration": 0.07499999999993179
                },
                {
                    "name": "C2",
                    "midi": 36,
                    "time": 919.908333333338,
                    "velocity": 0.9133858267716536,
                    "duration": 0.06666666666660603
                },
                {
                    "name": "A6",
                    "midi": 93,
                    "time": 919.908333333338,
                    "velocity": 0.9448818897637795,
                    "duration": 0.056249999999863576
                },
                {
                    "name": "A5",
                    "midi": 81,
                    "time": 919.9104166666713,
                    "velocity": 0.9763779527559056,
                    "duration": 0.05208333333325754
                },
                {
                    "name": "D#6",
                    "midi": 87,
                    "time": 919.9125000000046,
                    "velocity": 0.937007874015748,
                    "duration": 0.05833333333328028
                },
                {
                    "name": "B5",
                    "midi": 83,
                    "time": 919.9291666666712,
                    "velocity": 0.6456692913385826,
                    "duration": 0.035416666666606034
                },
                {
                    "name": "A#2",
                    "midi": 46,
                    "time": 920.377083333338,
                    "velocity": 0.9921259842519685,
                    "duration": 0.2166666666665833
                },
                {
                    "name": "A#6",
                    "midi": 94,
                    "time": 920.3791666666713,
                    "velocity": 0.9133858267716536,
                    "duration": 0.27291666666656056
                },
                {
                    "name": "D6",
                    "midi": 86,
                    "time": 920.3791666666713,
                    "velocity": 0.8818897637795275,
                    "duration": 0.29999999999984084
                },
                {
                    "name": "A#1",
                    "midi": 34,
                    "time": 920.3812500000046,
                    "velocity": 0.952755905511811,
                    "duration": 0.17916666666667425
                },
                {
                    "name": "A#5",
                    "midi": 82,
                    "time": 920.3833333333379,
                    "velocity": 0.968503937007874,
                    "duration": 0.31874999999990905
                },
                {
                    "name": "F6",
                    "midi": 89,
                    "time": 920.3875000000046,
                    "velocity": 0.7559055118110236,
                    "duration": 0.2812499999998863
                },
                {
                    "name": "F3",
                    "midi": 53,
                    "time": 920.8520833333378,
                    "velocity": 0.8818897637795275,
                    "duration": 0.28125
                },
                {
                    "name": "A#3",
                    "midi": 58,
                    "time": 921.0395833333378,
                    "velocity": 0.7874015748031497,
                    "duration": 0.14791666666667425
                },
                {
                    "name": "D4",
                    "midi": 62,
                    "time": 921.1375000000045,
                    "velocity": 0.8188976377952756,
                    "duration": 0.06874999999990905
                },
                {
                    "name": "F4",
                    "midi": 65,
                    "time": 921.1875000000044,
                    "velocity": 0.7007874015748031,
                    "duration": 0.1395833333333485
                },
                {
                    "name": "A4",
                    "midi": 69,
                    "time": 921.2583333333378,
                    "velocity": 0.6614173228346457,
                    "duration": 0.13750000000004547
                },
                {
                    "name": "A#4",
                    "midi": 70,
                    "time": 921.3125000000044,
                    "velocity": 0.7401574803149606,
                    "duration": 0.09166666666669698
                },
                {
                    "name": "D5",
                    "midi": 74,
                    "time": 921.3791666666712,
                    "velocity": 0.7086614173228346,
                    "duration": 0.08125000000006821
                },
                {
                    "name": "F5",
                    "midi": 77,
                    "time": 921.4166666666712,
                    "velocity": 0.6535433070866141,
                    "duration": 0.8541666666668561
                },
                {
                    "name": "A#5",
                    "midi": 82,
                    "time": 921.5354166666713,
                    "velocity": 0.6456692913385826,
                    "duration": 0.6958333333334394
                },
                {
                    "name": "D6",
                    "midi": 86,
                    "time": 921.6437500000046,
                    "velocity": 0.7559055118110236,
                    "duration": 0.49583333333339397
                },
                {
                    "name": "A#6",
                    "midi": 94,
                    "time": 921.8166666666713,
                    "velocity": 0.8818897637795275,
                    "duration": 0.11250000000006821
                },
                {
                    "name": "A#7",
                    "midi": 106,
                    "time": 921.8937500000046,
                    "velocity": 0.9133858267716536,
                    "duration": 0.08541666666667425
                },
                {
                    "name": "F1",
                    "midi": 29,
                    "time": 923.208333333338,
                    "velocity": 0.7559055118110236,
                    "duration": 0.18541666666669698
                },
                {
                    "name": "F2",
                    "midi": 41,
                    "time": 923.214583333338,
                    "velocity": 0.9606299212598425,
                    "duration": 0.21666666666669698
                },
                {
                    "name": "A4",
                    "midi": 69,
                    "time": 923.7854166666714,
                    "velocity": 0.9606299212598425,
                    "duration": 0.44374999999990905
                },
                {
                    "name": "G#6",
                    "midi": 92,
                    "time": 923.7854166666714,
                    "velocity": 0.8661417322834646,
                    "duration": 0.2312499999999318
                },
                {
                    "name": "C4",
                    "midi": 60,
                    "time": 923.7875000000047,
                    "velocity": 0.9291338582677166,
                    "duration": 0.4375
                },
                {
                    "name": "D#4",
                    "midi": 63,
                    "time": 923.7916666666714,
                    "velocity": 0.937007874015748,
                    "duration": 0.4354166666665833
                },
                {
                    "name": "G#5",
                    "midi": 80,
                    "time": 923.7916666666714,
                    "velocity": 0.8976377952755905,
                    "duration": 0.33333333333325754
                },
                {
                    "name": "C6",
                    "midi": 84,
                    "time": 923.7937500000047,
                    "velocity": 0.8110236220472441,
                    "duration": 0.41458333333332575
                },
                {
                    "name": "D#6",
                    "midi": 87,
                    "time": 923.795833333338,
                    "velocity": 0.7637795275590551,
                    "duration": 0.4229166666666515
                },
                {
                    "name": "F#6",
                    "midi": 90,
                    "time": 924.283333333338,
                    "velocity": 0.84251968503937,
                    "duration": 0.2166666666665833
                },
                {
                    "name": "F#5",
                    "midi": 78,
                    "time": 924.2875000000047,
                    "velocity": 0.905511811023622,
                    "duration": 0.18124999999986358
                },
                {
                    "name": "C6",
                    "midi": 84,
                    "time": 924.2875000000047,
                    "velocity": 0.7716535433070866,
                    "duration": 0.23958333333314386
                },
                {
                    "name": "A4",
                    "midi": 69,
                    "time": 924.289583333338,
                    "velocity": 0.8976377952755905,
                    "duration": 0.24374999999986358
                },
                {
                    "name": "D#6",
                    "midi": 87,
                    "time": 924.2916666666713,
                    "velocity": 0.6692913385826772,
                    "duration": 0.2458333333331666
                },
                {
                    "name": "C4",
                    "midi": 60,
                    "time": 924.2916666666713,
                    "velocity": 0.8503937007874016,
                    "duration": 0.24374999999986358
                },
                {
                    "name": "D#4",
                    "midi": 63,
                    "time": 924.2937500000046,
                    "velocity": 0.8661417322834646,
                    "duration": 0.23541666666653782
                },
                {
                    "name": "G#6",
                    "midi": 92,
                    "time": 924.5937500000044,
                    "velocity": 0.9291338582677166,
                    "duration": 0.14374999999995453
                },
                {
                    "name": "D#6",
                    "midi": 87,
                    "time": 924.5958333333377,
                    "velocity": 0.7086614173228346,
                    "duration": 0.20000000000004547
                },
                {
                    "name": "C6",
                    "midi": 84,
                    "time": 924.5958333333377,
                    "velocity": 0.7637795275590551,
                    "duration": 0.18541666666669698
                },
                {
                    "name": "G#5",
                    "midi": 80,
                    "time": 924.597916666671,
                    "velocity": 0.8661417322834646,
                    "duration": 0.1395833333333485
                },
                {
                    "name": "A4",
                    "midi": 69,
                    "time": 924.6041666666711,
                    "velocity": 0.9133858267716536,
                    "duration": 0.1750000000000682
                },
                {
                    "name": "D#4",
                    "midi": 63,
                    "time": 924.6062500000044,
                    "velocity": 0.8818897637795275,
                    "duration": 0.1729166666667652
                },
                {
                    "name": "C4",
                    "midi": 60,
                    "time": 924.6062500000044,
                    "velocity": 0.8818897637795275,
                    "duration": 0.16875000000004547
                },
                {
                    "name": "F#6",
                    "midi": 90,
                    "time": 924.8562500000045,
                    "velocity": 0.8110236220472441,
                    "duration": 0.1416666666667652
                },
                {
                    "name": "D#6",
                    "midi": 87,
                    "time": 924.8604166666712,
                    "velocity": 0.5984251968503937,
                    "duration": 0.17499999999995453
                },
                {
                    "name": "F#5",
                    "midi": 78,
                    "time": 924.8625000000045,
                    "velocity": 0.889763779527559,
                    "duration": 0.11458333333337123
                },
                {
                    "name": "A4",
                    "midi": 69,
                    "time": 924.8625000000045,
                    "velocity": 0.9133858267716536,
                    "duration": 0.15625
                },
                {
                    "name": "C6",
                    "midi": 84,
                    "time": 924.8666666666712,
                    "velocity": 0.7165354330708661,
                    "duration": 0.16249999999990905
                },
                {
                    "name": "C4",
                    "midi": 60,
                    "time": 924.8687500000045,
                    "velocity": 0.8976377952755905,
                    "duration": 0.1395833333333485
                },
                {
                    "name": "D#4",
                    "midi": 63,
                    "time": 924.8687500000045,
                    "velocity": 0.905511811023622,
                    "duration": 0.14791666666667425
                },
                {
                    "name": "G#5",
                    "midi": 80,
                    "time": 925.1000000000045,
                    "velocity": 0.8661417322834646,
                    "duration": 0.12499999999988631
                },
                {
                    "name": "G#6",
                    "midi": 92,
                    "time": 925.1000000000045,
                    "velocity": 0.9133858267716536,
                    "duration": 0.12916666666660603
                },
                {
                    "name": "A4",
                    "midi": 69,
                    "time": 925.1020833333378,
                    "velocity": 0.8976377952755905,
                    "duration": 0.14791666666667425
                },
                {
                    "name": "C6",
                    "midi": 84,
                    "time": 925.1020833333378,
                    "velocity": 0.7165354330708661,
                    "duration": 0.18125000000009095
                },
                {
                    "name": "C4",
                    "midi": 60,
                    "time": 925.1041666666711,
                    "velocity": 0.889763779527559,
                    "duration": 0.15000000000009095
                },
                {
                    "name": "D#4",
                    "midi": 63,
                    "time": 925.1062500000044,
                    "velocity": 0.8818897637795275,
                    "duration": 0.1604166666668334
                },
                {
                    "name": "D#6",
                    "midi": 87,
                    "time": 925.1083333333377,
                    "velocity": 0.5905511811023622,
                    "duration": 0.17291666666687888
                },
                {
                    "name": "A4",
                    "midi": 69,
                    "time": 925.3354166666712,
                    "velocity": 0.8582677165354331,
                    "duration": 0.04791666666665151
                },
                {
                    "name": "C4",
                    "midi": 60,
                    "time": 925.3354166666712,
                    "velocity": 0.8582677165354331,
                    "duration": 0.06666666666671972
                },
                {
                    "name": "D#4",
                    "midi": 63,
                    "time": 925.3395833333379,
                    "velocity": 0.8346456692913385,
                    "duration": 0.05624999999997726
                },
                {
                    "name": "C6",
                    "midi": 84,
                    "time": 925.3583333333379,
                    "velocity": 0.7637795275590551,
                    "duration": 0.19166666666671972
                },
                {
                    "name": "F#5",
                    "midi": 78,
                    "time": 925.3583333333379,
                    "velocity": 0.9291338582677166,
                    "duration": 0.24374999999997726
                },
                {
                    "name": "F#6",
                    "midi": 90,
                    "time": 925.3604166666712,
                    "velocity": 0.8503937007874016,
                    "duration": 0.22291666666671972
                },
                {
                    "name": "D#6",
                    "midi": 87,
                    "time": 925.3687500000045,
                    "velocity": 0.6220472440944882,
                    "duration": 0.18333333333339397
                },
                {
                    "name": "A#1",
                    "midi": 34,
                    "time": 925.6645833333379,
                    "velocity": 0.889763779527559,
                    "duration": 0.06666666666660603
                },
                {
                    "name": "A#2",
                    "midi": 46,
                    "time": 925.6729166666712,
                    "velocity": 0.937007874015748,
                    "duration": 0.07499999999993179
                },
                {
                    "name": "A#5",
                    "midi": 82,
                    "time": 925.8583333333378,
                    "velocity": 0.905511811023622,
                    "duration": 0.05624999999997726
                },
                {
                    "name": "F5",
                    "midi": 77,
                    "time": 925.8604166666711,
                    "velocity": 0.9133858267716536,
                    "duration": 0.0625
                },
                {
                    "name": "F6",
                    "midi": 89,
                    "time": 925.8625000000044,
                    "velocity": 0.8188976377952756,
                    "duration": 0.0625
                },
                {
                    "name": "A#3",
                    "midi": 58,
                    "time": 925.8666666666711,
                    "velocity": 0.9291338582677166,
                    "duration": 0.04791666666665151
                },
                {
                    "name": "D6",
                    "midi": 86,
                    "time": 925.8666666666711,
                    "velocity": 0.7952755905511811,
                    "duration": 0.06666666666660603
                },
                {
                    "name": "A#2",
                    "midi": 46,
                    "time": 925.8937500000044,
                    "velocity": 0.3937007874015748,
                    "duration": 0.039583333333325754
                },
                {
                    "name": "A#1",
                    "midi": 34,
                    "time": 926.1687500000044,
                    "velocity": 0.952755905511811,
                    "duration": 0.0625
                },
                {
                    "name": "D#6",
                    "midi": 87,
                    "time": 926.2937500000044,
                    "velocity": 0.8818897637795275,
                    "duration": 0.17916666666678793
                },
                {
                    "name": "D#5",
                    "midi": 75,
                    "time": 926.2958333333377,
                    "velocity": 0.9448818897637795,
                    "duration": 0.14166666666687888
                },
                {
                    "name": "A5",
                    "midi": 81,
                    "time": 926.3000000000044,
                    "velocity": 0.7795275590551181,
                    "duration": 0.11875000000020464
                },
                {
                    "name": "C6",
                    "midi": 84,
                    "time": 926.3062500000044,
                    "velocity": 0.7401574803149606,
                    "duration": 0.1583333333334167
                },
                {
                    "name": "C4",
                    "midi": 60,
                    "time": 926.3416666666711,
                    "velocity": 0.8503937007874016,
                    "duration": 0.04166666666674246
                },
                {
                    "name": "C3",
                    "midi": 48,
                    "time": 926.3458333333379,
                    "velocity": 0.7795275590551181,
                    "duration": 0.029166666666696983
                },
                {
                    "name": "A#1",
                    "midi": 34,
                    "time": 926.6333333333378,
                    "velocity": 0.8582677165354331,
                    "duration": 0.058333333333393966
                },
                {
                    "name": "A#2",
                    "midi": 46,
                    "time": 926.6416666666711,
                    "velocity": 0.889763779527559,
                    "duration": 0.05208333333337123
                },
                {
                    "name": "D3",
                    "midi": 50,
                    "time": 926.6520833333377,
                    "velocity": 0.7874015748031497,
                    "duration": 0.027083333333393966
                },
                {
                    "name": "A#5",
                    "midi": 82,
                    "time": 926.7666666666711,
                    "velocity": 0.8818897637795275,
                    "duration": 0.06875000000002274
                },
                {
                    "name": "D6",
                    "midi": 86,
                    "time": 926.7687500000044,
                    "velocity": 0.889763779527559,
                    "duration": 0.06041666666669698
                },
                {
                    "name": "D5",
                    "midi": 74,
                    "time": 926.7708333333377,
                    "velocity": 0.952755905511811,
                    "duration": 0.054166666666674246
                },
                {
                    "name": "D4",
                    "midi": 62,
                    "time": 926.8145833333377,
                    "velocity": 0.7952755905511811,
                    "duration": 0.03125
                },
                {
                    "name": "A#1",
                    "midi": 34,
                    "time": 927.1541666666711,
                    "velocity": 0.8188976377952756,
                    "duration": 0.06875000000002274
                },
                {
                    "name": "A#2",
                    "midi": 46,
                    "time": 927.1625000000045,
                    "velocity": 0.968503937007874,
                    "duration": 0.07708333333334849
                },
                {
                    "name": "C#6",
                    "midi": 85,
                    "time": 927.4750000000045,
                    "velocity": 0.889763779527559,
                    "duration": 0.8437499999998863
                },
                {
                    "name": "C#5",
                    "midi": 73,
                    "time": 927.4750000000045,
                    "velocity": 0.984251968503937,
                    "duration": 0.816666666666606
                },
                {
                    "name": "G5",
                    "midi": 79,
                    "time": 927.4770833333378,
                    "velocity": 0.84251968503937,
                    "duration": 0.845833333333303
                },
                {
                    "name": "A#5",
                    "midi": 82,
                    "time": 927.4770833333378,
                    "velocity": 0.8267716535433071,
                    "duration": 0.8416666666665833
                },
                {
                    "name": "D#3",
                    "midi": 51,
                    "time": 927.4791666666711,
                    "velocity": 0.8582677165354331,
                    "duration": 0.8625000000000682
                },
                {
                    "name": "D#4",
                    "midi": 63,
                    "time": 927.4812500000044,
                    "velocity": 1,
                    "duration": 0.8541666666667425
                },
                {
                    "name": "A#3",
                    "midi": 58,
                    "time": 927.497916666671,
                    "velocity": 0.7874015748031497,
                    "duration": 0.8437500000001137
                },
                {
                    "name": "G3",
                    "midi": 55,
                    "time": 927.5020833333377,
                    "velocity": 0.6929133858267716,
                    "duration": 0.8458333333334167
                },
                {
                    "name": "D#6",
                    "midi": 87,
                    "time": 928.5562500000045,
                    "velocity": 0.905511811023622,
                    "duration": 0.2375000000000682
                },
                {
                    "name": "D#3",
                    "midi": 51,
                    "time": 928.5562500000045,
                    "velocity": 0.7716535433070866,
                    "duration": 0.15208333333339397
                },
                {
                    "name": "D#4",
                    "midi": 63,
                    "time": 928.5583333333378,
                    "velocity": 1,
                    "duration": 0.14583333333337123
                },
                {
                    "name": "G5",
                    "midi": 79,
                    "time": 928.5604166666711,
                    "velocity": 0.84251968503937,
                    "duration": 0.15000000000009095
                },
                {
                    "name": "D#5",
                    "midi": 75,
                    "time": 928.5604166666711,
                    "velocity": 0.9448818897637795,
                    "duration": 0.17083333333346218
                },
                {
                    "name": "A#5",
                    "midi": 82,
                    "time": 928.5604166666711,
                    "velocity": 0.8267716535433071,
                    "duration": 0.17916666666678793
                },
                {
                    "name": "A#3",
                    "midi": 58,
                    "time": 928.5645833333379,
                    "velocity": 0.8818897637795275,
                    "duration": 0.1729166666667652
                },
                {
                    "name": "G3",
                    "midi": 55,
                    "time": 928.5750000000045,
                    "velocity": 0.6929133858267716,
                    "duration": 0.16666666666674246
                },
                {
                    "name": "C#3",
                    "midi": 49,
                    "time": 929.0083333333379,
                    "velocity": 0.5748031496062992,
                    "duration": 0.14374999999995453
                },
                {
                    "name": "E6",
                    "midi": 88,
                    "time": 929.0270833333378,
                    "velocity": 0.84251968503937,
                    "duration": 0.12291666666669698
                },
                {
                    "name": "C#4",
                    "midi": 61,
                    "time": 929.0291666666711,
                    "velocity": 0.9763779527559056,
                    "duration": 0.15833333333330302
                },
                {
                    "name": "G3",
                    "midi": 55,
                    "time": 929.0291666666711,
                    "velocity": 0.7165354330708661,
                    "duration": 0.16666666666662877
                },
                {
                    "name": "A#5",
                    "midi": 82,
                    "time": 929.0291666666711,
                    "velocity": 0.8976377952755905,
                    "duration": 0.13125000000002274
                },
                {
                    "name": "A#3",
                    "midi": 58,
                    "time": 929.0291666666711,
                    "velocity": 0.889763779527559,
                    "duration": 0.18333333333328028
                },
                {
                    "name": "E5",
                    "midi": 76,
                    "time": 929.0333333333379,
                    "velocity": 0.8503937007874016,
                    "duration": 0.09791666666671972
                },
                {
                    "name": "C#6",
                    "midi": 85,
                    "time": 929.0541666666712,
                    "velocity": 0.6456692913385826,
                    "duration": 0.03125
                },
                {
                    "name": "D3",
                    "midi": 50,
                    "time": 929.4895833333377,
                    "velocity": 0.6141732283464567,
                    "duration": 0.7062500000000682
                },
                {
                    "name": "A#5",
                    "midi": 82,
                    "time": 929.5104166666711,
                    "velocity": 0.905511811023622,
                    "duration": 0.6937500000001364
                },
                {
                    "name": "F6",
                    "midi": 89,
                    "time": 929.5104166666711,
                    "velocity": 0.8976377952755905,
                    "duration": 0.6458333333333712
                },
                {
                    "name": "F3",
                    "midi": 53,
                    "time": 929.5125000000044,
                    "velocity": 0.7165354330708661,
                    "duration": 0.6875000000001137
                },
                {
                    "name": "F5",
                    "midi": 77,
                    "time": 929.5125000000044,
                    "velocity": 0.952755905511811,
                    "duration": 0.6875000000001137
                },
                {
                    "name": "A#3",
                    "midi": 58,
                    "time": 929.5166666666711,
                    "velocity": 0.8976377952755905,
                    "duration": 0.6687500000000455
                },
                {
                    "name": "D6",
                    "midi": 86,
                    "time": 929.5208333333378,
                    "velocity": 0.7952755905511811,
                    "duration": 0.65625
                },
                {
                    "name": "D4",
                    "midi": 62,
                    "time": 929.5229166666711,
                    "velocity": 0.9763779527559056,
                    "duration": 0.6312500000000227
                },
                {
                    "name": "A#2",
                    "midi": 46,
                    "time": 930.4833333333379,
                    "velocity": 0.6062992125984252,
                    "duration": 0.17291666666687888
                },
                {
                    "name": "D6",
                    "midi": 86,
                    "time": 930.4958333333379,
                    "velocity": 0.8976377952755905,
                    "duration": 0.06250000000011369
                },
                {
                    "name": "A#5",
                    "midi": 82,
                    "time": 930.5000000000047,
                    "velocity": 0.8818897637795275,
                    "duration": 0.058333333333393966
                },
                {
                    "name": "A#3",
                    "midi": 58,
                    "time": 930.5041666666714,
                    "velocity": 1,
                    "duration": 0.09583333333330302
                },
                {
                    "name": "D5",
                    "midi": 74,
                    "time": 930.5062500000047,
                    "velocity": 0.889763779527559,
                    "duration": 0.043750000000045475
                },
                {
                    "name": "F3",
                    "midi": 53,
                    "time": 930.5062500000047,
                    "velocity": 0.8188976377952756,
                    "duration": 0.07500000000004547
                },
                {
                    "name": "D3",
                    "midi": 50,
                    "time": 930.5125000000047,
                    "velocity": 0.7165354330708661,
                    "duration": 0.09166666666669698
                },
                {
                    "name": "F2",
                    "midi": 41,
                    "time": 931.0312500000048,
                    "velocity": 0.7244094488188977,
                    "duration": 0.28958333333321207
                },
                {
                    "name": "A#5",
                    "midi": 82,
                    "time": 931.0500000000047,
                    "velocity": 0.889763779527559,
                    "duration": 0.4979166666665833
                },
                {
                    "name": "A#2",
                    "midi": 46,
                    "time": 931.052083333338,
                    "velocity": 0.8267716535433071,
                    "duration": 0.3249999999999318
                },
                {
                    "name": "A#4",
                    "midi": 70,
                    "time": 931.0541666666713,
                    "velocity": 0.9448818897637795,
                    "duration": 0.5729166666666288
                },
                {
                    "name": "D3",
                    "midi": 50,
                    "time": 931.058333333338,
                    "velocity": 0.9212598425196851,
                    "duration": 0.32291666666662877
                },
                {
                    "name": "F5",
                    "midi": 77,
                    "time": 931.058333333338,
                    "velocity": 0.7874015748031497,
                    "duration": 0.6145833333332575
                },
                {
                    "name": "D5",
                    "midi": 74,
                    "time": 931.058333333338,
                    "velocity": 0.8188976377952756,
                    "duration": 0.5458333333332348
                },
                {
                    "name": "F3",
                    "midi": 53,
                    "time": 931.0625000000048,
                    "velocity": 0.9606299212598425,
                    "duration": 0.32083333333321207
                },
                {
                    "name": "F2",
                    "midi": 41,
                    "time": 931.420833333338,
                    "velocity": 0.9212598425196851,
                    "duration": 0.25
                },
                {
                    "name": "D#3",
                    "midi": 51,
                    "time": 931.8854166666713,
                    "velocity": 0.889763779527559,
                    "duration": 0.23749999999995453
                },
                {
                    "name": "C3",
                    "midi": 48,
                    "time": 931.8916666666713,
                    "velocity": 0.7401574803149606,
                    "duration": 0.19166666666649235
                },
                {
                    "name": "A3",
                    "midi": 57,
                    "time": 931.8916666666713,
                    "velocity": 0.8976377952755905,
                    "duration": 0.2687499999999545
                },
                {
                    "name": "G#5",
                    "midi": 80,
                    "time": 931.8916666666713,
                    "velocity": 0.952755905511811,
                    "duration": 0.20833333333314386
                },
                {
                    "name": "G#4",
                    "midi": 68,
                    "time": 931.8937500000046,
                    "velocity": 1,
                    "duration": 0.11666666666656056
                },
                {
                    "name": "D#5",
                    "midi": 75,
                    "time": 931.8958333333379,
                    "velocity": 0.9448818897637795,
                    "duration": 0.20833333333325754
                },
                {
                    "name": "A#2",
                    "midi": 46,
                    "time": 931.9291666666712,
                    "velocity": 0.5196850393700787,
                    "duration": 0.039583333333325754
                },
                {
                    "name": "G#4",
                    "midi": 68,
                    "time": 932.1166666666712,
                    "velocity": 0.7480314960629921,
                    "duration": 0.0791666666667652
                },
                {
                    "name": "G#5",
                    "midi": 80,
                    "time": 932.1979166666713,
                    "velocity": 0.7480314960629921,
                    "duration": 0.07083333333332575
                },
                {
                    "name": "G#4",
                    "midi": 68,
                    "time": 932.258333333338,
                    "velocity": 0.5669291338582677,
                    "duration": 0.06874999999990905
                },
                {
                    "name": "G#5",
                    "midi": 80,
                    "time": 932.3187500000046,
                    "velocity": 0.7716535433070866,
                    "duration": 0.07083333333332575
                },
                {
                    "name": "G#4",
                    "midi": 68,
                    "time": 932.3958333333379,
                    "velocity": 0.7401574803149606,
                    "duration": 0.06458333333330302
                },
                {
                    "name": "G#5",
                    "midi": 80,
                    "time": 932.4416666666713,
                    "velocity": 0.6220472440944882,
                    "duration": 0.07499999999993179
                },
                {
                    "name": "A4",
                    "midi": 69,
                    "time": 932.4625000000045,
                    "velocity": 0.7874015748031497,
                    "duration": 0.07708333333334849
                },
                {
                    "name": "G#4",
                    "midi": 68,
                    "time": 932.5104166666712,
                    "velocity": 0.7165354330708661,
                    "duration": 0.07500000000004547
                },
                {
                    "name": "G#5",
                    "midi": 80,
                    "time": 932.5729166666712,
                    "velocity": 0.6535433070866141,
                    "duration": 0.07708333333346218
                },
                {
                    "name": "A4",
                    "midi": 69,
                    "time": 932.5979166666713,
                    "velocity": 0.6692913385826772,
                    "duration": 0.07708333333334849
                },
                {
                    "name": "G#4",
                    "midi": 68,
                    "time": 932.6520833333379,
                    "velocity": 0.7322834645669292,
                    "duration": 0.0625
                },
                {
                    "name": "G#5",
                    "midi": 80,
                    "time": 932.7041666666713,
                    "velocity": 0.6692913385826772,
                    "duration": 0.08541666666667425
                },
                {
                    "name": "A4",
                    "midi": 69,
                    "time": 932.7333333333379,
                    "velocity": 0.8031496062992126,
                    "duration": 0.07083333333343944
                },
                {
                    "name": "G#4",
                    "midi": 68,
                    "time": 932.7770833333379,
                    "velocity": 0.7559055118110236,
                    "duration": 0.06875000000013642
                },
                {
                    "name": "A4",
                    "midi": 69,
                    "time": 932.8416666666714,
                    "velocity": 0.7795275590551181,
                    "duration": 0.054166666666674246
                },
                {
                    "name": "G#5",
                    "midi": 80,
                    "time": 932.8416666666714,
                    "velocity": 0.7165354330708661,
                    "duration": 0.07916666666665151
                },
                {
                    "name": "G#4",
                    "midi": 68,
                    "time": 932.914583333338,
                    "velocity": 0.8267716535433071,
                    "duration": 0.06666666666671972
                },
                {
                    "name": "A4",
                    "midi": 69,
                    "time": 932.9562500000047,
                    "velocity": 0.8582677165354331,
                    "duration": 0.06875000000002274
                },
                {
                    "name": "G#5",
                    "midi": 80,
                    "time": 932.9791666666714,
                    "velocity": 0.6929133858267716,
                    "duration": 0.10000000000002274
                },
                {
                    "name": "G#4",
                    "midi": 68,
                    "time": 933.0458333333381,
                    "velocity": 0.8503937007874016,
                    "duration": 0.06666666666660603
                },
                {
                    "name": "A4",
                    "midi": 69,
                    "time": 933.0604166666715,
                    "velocity": 0.8976377952755905,
                    "duration": 0.08541666666656056
                },
                {
                    "name": "G#5",
                    "midi": 80,
                    "time": 933.1270833333381,
                    "velocity": 0.8267716535433071,
                    "duration": 0.0770833333332348
                },
                {
                    "name": "G#4",
                    "midi": 68,
                    "time": 933.1875000000047,
                    "velocity": 0.8267716535433071,
                    "duration": 0.06666666666660603
                },
                {
                    "name": "A4",
                    "midi": 69,
                    "time": 933.189583333338,
                    "velocity": 0.8976377952755905,
                    "duration": 0.06666666666660603
                },
                {
                    "name": "G#5",
                    "midi": 80,
                    "time": 933.2604166666713,
                    "velocity": 0.7952755905511811,
                    "duration": 0.0958333333334167
                },
                {
                    "name": "A4",
                    "midi": 69,
                    "time": 933.3041666666713,
                    "velocity": 0.9133858267716536,
                    "duration": 0.06875000000002274
                },
                {
                    "name": "G#4",
                    "midi": 68,
                    "time": 933.3187500000047,
                    "velocity": 0.8110236220472441,
                    "duration": 0.07500000000004547
                },
                {
                    "name": "G#5",
                    "midi": 80,
                    "time": 933.402083333338,
                    "velocity": 0.7952755905511811,
                    "duration": 0.09791666666671972
                },
                {
                    "name": "A4",
                    "midi": 69,
                    "time": 933.4166666666714,
                    "velocity": 0.9212598425196851,
                    "duration": 0.06666666666671972
                },
                {
                    "name": "G#4",
                    "midi": 68,
                    "time": 933.4625000000048,
                    "velocity": 0.7716535433070866,
                    "duration": 0.07500000000004547
                },
                {
                    "name": "A4",
                    "midi": 69,
                    "time": 933.5250000000048,
                    "velocity": 0.9212598425196851,
                    "duration": 0.06666666666671972
                },
                {
                    "name": "G#5",
                    "midi": 80,
                    "time": 933.5479166666714,
                    "velocity": 0.8267716535433071,
                    "duration": 0.09583333333330302
                },
                {
                    "name": "G#4",
                    "midi": 68,
                    "time": 933.6083333333381,
                    "velocity": 0.889763779527559,
                    "duration": 0.07499999999993179
                },
                {
                    "name": "A4",
                    "midi": 69,
                    "time": 933.6270833333381,
                    "velocity": 0.952755905511811,
                    "duration": 0.07083333333332575
                },
                {
                    "name": "G#5",
                    "midi": 80,
                    "time": 933.6916666666714,
                    "velocity": 0.8267716535433071,
                    "duration": 0.2041666666667652
                },
                {
                    "name": "A4",
                    "midi": 69,
                    "time": 933.7333333333381,
                    "velocity": 0.984251968503937,
                    "duration": 0.08749999999997726
                },
                {
                    "name": "G#4",
                    "midi": 68,
                    "time": 933.7354166666714,
                    "velocity": 0.8346456692913385,
                    "duration": 0.08333333333337123
                },
                {
                    "name": "F#3",
                    "midi": 54,
                    "time": 934.1645833333381,
                    "velocity": 1,
                    "duration": 0.07499999999993179
                },
                {
                    "name": "F#4",
                    "midi": 66,
                    "time": 934.1750000000047,
                    "velocity": 0.9763779527559056,
                    "duration": 0.10000000000002274
                },
                {
                    "name": "F#5",
                    "midi": 78,
                    "time": 934.177083333338,
                    "velocity": 0.889763779527559,
                    "duration": 0.11458333333337123
                },
                {
                    "name": "C5",
                    "midi": 72,
                    "time": 934.177083333338,
                    "velocity": 0.8582677165354331,
                    "duration": 0.10833333333334849
                },
                {
                    "name": "D#5",
                    "midi": 75,
                    "time": 934.1791666666713,
                    "velocity": 0.8346456692913385,
                    "duration": 0.1395833333333485
                },
                {
                    "name": "F2",
                    "midi": 41,
                    "time": 934.6875000000047,
                    "velocity": 0.7716535433070866,
                    "duration": 0.9437500000001364
                },
                {
                    "name": "A4",
                    "midi": 69,
                    "time": 934.7000000000047,
                    "velocity": 0.84251968503937,
                    "duration": 0.962500000000091
                },
                {
                    "name": "D#5",
                    "midi": 75,
                    "time": 934.702083333338,
                    "velocity": 0.8188976377952756,
                    "duration": 0.962500000000091
                },
                {
                    "name": "F5",
                    "midi": 77,
                    "time": 934.7041666666713,
                    "velocity": 0.8976377952755905,
                    "duration": 0.9458333333334394
                },
                {
                    "name": "F4",
                    "midi": 65,
                    "time": 934.7062500000046,
                    "velocity": 0.8976377952755905,
                    "duration": 0.9625000000002046
                },
                {
                    "name": "F3",
                    "midi": 53,
                    "time": 934.7062500000046,
                    "velocity": 0.9921259842519685,
                    "duration": 0.8645833333334849
                },
                {
                    "name": "C5",
                    "midi": 72,
                    "time": 934.7104166666713,
                    "velocity": 0.7401574803149606,
                    "duration": 0.9687500000001137
                },
                {
                    "name": "G4",
                    "midi": 67,
                    "time": 934.7229166666714,
                    "velocity": 0.7244094488188977,
                    "duration": 0.03541666666671972
                },
                {
                    "name": "A#4",
                    "midi": 70,
                    "time": 936.3562500000048,
                    "velocity": 0.8582677165354331,
                    "duration": 0.527083333333394
                },
                {
                    "name": "F4",
                    "midi": 65,
                    "time": 936.3562500000048,
                    "velocity": 0.8740157480314961,
                    "duration": 0.47708333333343944
                },
                {
                    "name": "A#1",
                    "midi": 34,
                    "time": 936.3583333333381,
                    "velocity": 1,
                    "duration": 0.5312500000001137
                },
                {
                    "name": "F5",
                    "midi": 77,
                    "time": 936.3583333333381,
                    "velocity": 0.8582677165354331,
                    "duration": 0.5895833333335077
                },
                {
                    "name": "A#0",
                    "midi": 22,
                    "time": 936.3583333333381,
                    "velocity": 0.7795275590551181,
                    "duration": 0.46250000000009095
                },
                {
                    "name": "F1",
                    "midi": 29,
                    "time": 936.3604166666714,
                    "velocity": 0.9133858267716536,
                    "duration": 0.5083333333334394
                },
                {
                    "name": "D5",
                    "midi": 74,
                    "time": 936.3625000000047,
                    "velocity": 0.8110236220472441,
                    "duration": 0.5625000000002274
                },
                {
                    "name": "D1",
                    "midi": 26,
                    "time": 936.3729166666714,
                    "velocity": 0.8582677165354331,
                    "duration": 0.47708333333355313
                },
                {
                    "name": "F3",
                    "midi": 53,
                    "time": 937.3479166666716,
                    "velocity": 0.6062992125984252,
                    "duration": 0.14791666666656056
                },
                {
                    "name": "A#3",
                    "midi": 58,
                    "time": 937.3729166666716,
                    "velocity": 0.6220472440944882,
                    "duration": 0.2770833333332803
                },
                {
                    "name": "D4",
                    "midi": 62,
                    "time": 937.3791666666716,
                    "velocity": 0.889763779527559,
                    "duration": 0.3416666666665833
                },
                {
                    "name": "A#5",
                    "midi": 82,
                    "time": 937.3791666666716,
                    "velocity": 0.8582677165354331,
                    "duration": 0.06249999999988631
                },
                {
                    "name": "F6",
                    "midi": 89,
                    "time": 937.3812500000049,
                    "velocity": 0.84251968503937,
                    "duration": 0.0916666666665833
                },
                {
                    "name": "D6",
                    "midi": 86,
                    "time": 937.3812500000049,
                    "velocity": 0.7952755905511811,
                    "duration": 0.07083333333321207
                },
                {
                    "name": "F5",
                    "midi": 77,
                    "time": 937.3833333333382,
                    "velocity": 0.8818897637795275,
                    "duration": 0.060416666666583296
                },
                {
                    "name": "F4",
                    "midi": 65,
                    "time": 937.3854166666715,
                    "velocity": 0.9212598425196851,
                    "duration": 0.16458333333332575
                },
                {
                    "name": "G3",
                    "midi": 55,
                    "time": 937.7812500000049,
                    "velocity": 0.6456692913385826,
                    "duration": 0.125
                },
                {
                    "name": "D6",
                    "midi": 86,
                    "time": 937.7833333333382,
                    "velocity": 0.8740157480314961,
                    "duration": 0.06666666666671972
                },
                {
                    "name": "G6",
                    "midi": 91,
                    "time": 937.7854166666715,
                    "velocity": 0.8110236220472441,
                    "duration": 0.07500000000004547
                },
                {
                    "name": "G4",
                    "midi": 67,
                    "time": 937.7895833333382,
                    "velocity": 0.9133858267716536,
                    "duration": 0.15625
                },
                {
                    "name": "D4",
                    "midi": 62,
                    "time": 937.7895833333382,
                    "velocity": 0.7952755905511811,
                    "duration": 0.21666666666669698
                },
                {
                    "name": "G5",
                    "midi": 79,
                    "time": 937.7916666666715,
                    "velocity": 0.8346456692913385,
                    "duration": 0.058333333333393966
                },
                {
                    "name": "A#3",
                    "midi": 58,
                    "time": 937.7937500000048,
                    "velocity": 0.7322834645669292,
                    "duration": 0.41458333333332575
                },
                {
                    "name": "F6",
                    "midi": 89,
                    "time": 937.8291666666715,
                    "velocity": 0.23622047244094488,
                    "duration": 0.03541666666671972
                },
                {
                    "name": "F3",
                    "midi": 53,
                    "time": 938.0625000000049,
                    "velocity": 0.7165354330708661,
                    "duration": 0.09374999999988631
                },
                {
                    "name": "D4",
                    "midi": 62,
                    "time": 938.0875000000049,
                    "velocity": 0.8503937007874016,
                    "duration": 0.11249999999995453
                },
                {
                    "name": "F4",
                    "midi": 65,
                    "time": 938.0937500000049,
                    "velocity": 0.9291338582677166,
                    "duration": 0.11458333333325754
                },
                {
                    "name": "F6",
                    "midi": 89,
                    "time": 938.1020833333382,
                    "velocity": 0.8346456692913385,
                    "duration": 0.06249999999988631
                },
                {
                    "name": "F5",
                    "midi": 77,
                    "time": 938.1041666666715,
                    "velocity": 0.8740157480314961,
                    "duration": 0.03333333333330302
                },
                {
                    "name": "D#6",
                    "midi": 87,
                    "time": 938.1208333333382,
                    "velocity": 0.6220472440944882,
                    "duration": 0.03333333333330302
                },
                {
                    "name": "G#3",
                    "midi": 56,
                    "time": 938.4229166666714,
                    "velocity": 0.8267716535433071,
                    "duration": 0.09374999999977263
                },
                {
                    "name": "G#4",
                    "midi": 68,
                    "time": 938.4250000000047,
                    "velocity": 1,
                    "duration": 0.06874999999990905
                },
                {
                    "name": "A#3",
                    "midi": 58,
                    "time": 938.4250000000047,
                    "velocity": 0.5826771653543307,
                    "duration": 0.09166666666646961
                },
                {
                    "name": "D4",
                    "midi": 62,
                    "time": 938.4312500000048,
                    "velocity": 0.8346456692913385,
                    "duration": 0.07708333333312112
                },
                {
                    "name": "G#5",
                    "midi": 80,
                    "time": 938.4312500000048,
                    "velocity": 0.968503937007874,
                    "duration": 0.05416666666656056
                },
                {
                    "name": "G#6",
                    "midi": 92,
                    "time": 938.433333333338,
                    "velocity": 0.9448818897637795,
                    "duration": 0.06458333333318933
                },
                {
                    "name": "D6",
                    "midi": 86,
                    "time": 938.4354166666714,
                    "velocity": 0.8818897637795275,
                    "duration": 0.060416666666583296
                },
                {
                    "name": "G#3",
                    "midi": 56,
                    "time": 938.9812500000045,
                    "velocity": 0.6692913385826772,
                    "duration": 0.5041666666664923
                },
                {
                    "name": "G#4",
                    "midi": 68,
                    "time": 939.0041666666712,
                    "velocity": 1,
                    "duration": 0.41458333333321207
                },
                {
                    "name": "A#3",
                    "midi": 58,
                    "time": 939.0041666666712,
                    "velocity": 0.6929133858267716,
                    "duration": 0.47291666666649235
                },
                {
                    "name": "D4",
                    "midi": 62,
                    "time": 939.0062500000045,
                    "velocity": 0.8740157480314961,
                    "duration": 0.42916666666656056
                },
                {
                    "name": "G#6",
                    "midi": 92,
                    "time": 939.0083333333378,
                    "velocity": 0.952755905511811,
                    "duration": 0.06458333333330302
                },
                {
                    "name": "G#5",
                    "midi": 80,
                    "time": 939.0083333333378,
                    "velocity": 0.9921259842519685,
                    "duration": 0.0625
                },
                {
                    "name": "D6",
                    "midi": 86,
                    "time": 939.0104166666711,
                    "velocity": 0.889763779527559,
                    "duration": 0.06875000000002274
                },
                {
                    "name": "F3",
                    "midi": 53,
                    "time": 939.8687500000043,
                    "velocity": 0.6299212598425197,
                    "duration": 0.14999999999986358
                },
                {
                    "name": "A#5",
                    "midi": 82,
                    "time": 939.8958333333376,
                    "velocity": 0.889763779527559,
                    "duration": 0.060416666666583296
                },
                {
                    "name": "F5",
                    "midi": 77,
                    "time": 939.8979166666709,
                    "velocity": 0.9212598425196851,
                    "duration": 0.05833333333328028
                },
                {
                    "name": "A#3",
                    "midi": 58,
                    "time": 939.8979166666709,
                    "velocity": 0.8503937007874016,
                    "duration": 0.19583333333321207
                },
                {
                    "name": "D6",
                    "midi": 86,
                    "time": 939.8979166666709,
                    "velocity": 0.8503937007874016,
                    "duration": 0.06458333333330302
                },
                {
                    "name": "F6",
                    "midi": 89,
                    "time": 939.9000000000042,
                    "velocity": 0.8188976377952756,
                    "duration": 0.07291666666662877
                },
                {
                    "name": "D4",
                    "midi": 62,
                    "time": 939.9020833333375,
                    "velocity": 0.9133858267716536,
                    "duration": 0.2020833333332348
                },
                {
                    "name": "F4",
                    "midi": 65,
                    "time": 939.9020833333375,
                    "velocity": 0.952755905511811,
                    "duration": 0.17499999999995453
                },
                {
                    "name": "G3",
                    "midi": 55,
                    "time": 940.262500000004,
                    "velocity": 0.6456692913385826,
                    "duration": 0.13958333333346218
                },
                {
                    "name": "D6",
                    "midi": 86,
                    "time": 940.2666666666707,
                    "velocity": 0.8503937007874016,
                    "duration": 0.058333333333393966
                },
                {
                    "name": "G6",
                    "midi": 91,
                    "time": 940.2666666666707,
                    "velocity": 0.84251968503937,
                    "duration": 0.06666666666671972
                },
                {
                    "name": "A#3",
                    "midi": 58,
                    "time": 940.2708333333375,
                    "velocity": 0.7952755905511811,
                    "duration": 0.24374999999997726
                },
                {
                    "name": "G4",
                    "midi": 67,
                    "time": 940.2708333333375,
                    "velocity": 0.9133858267716536,
                    "duration": 0.14791666666667425
                },
                {
                    "name": "D4",
                    "midi": 62,
                    "time": 940.2729166666708,
                    "velocity": 0.8582677165354331,
                    "duration": 0.19583333333332575
                },
                {
                    "name": "G5",
                    "midi": 79,
                    "time": 940.2750000000041,
                    "velocity": 0.7401574803149606,
                    "duration": 0.043750000000045475
                },
                {
                    "name": "F3",
                    "midi": 53,
                    "time": 940.5562500000041,
                    "velocity": 0.6929133858267716,
                    "duration": 0.08958333333339397
                },
                {
                    "name": "A#3",
                    "midi": 58,
                    "time": 940.5687500000041,
                    "velocity": 0.49606299212598426,
                    "duration": 0.15416666666669698
                },
                {
                    "name": "D4",
                    "midi": 62,
                    "time": 940.5708333333374,
                    "velocity": 0.84251968503937,
                    "duration": 0.1270833333334167
                },
                {
                    "name": "F4",
                    "midi": 65,
                    "time": 940.5770833333374,
                    "velocity": 0.9212598425196851,
                    "duration": 0.13125000000002274
                },
                {
                    "name": "F5",
                    "midi": 77,
                    "time": 940.5895833333375,
                    "velocity": 0.8818897637795275,
                    "duration": 0.05624999999997726
                },
                {
                    "name": "F6",
                    "midi": 89,
                    "time": 940.5895833333375,
                    "velocity": 0.8740157480314961,
                    "duration": 0.06666666666660603
                },
                {
                    "name": "G5",
                    "midi": 79,
                    "time": 940.6208333333375,
                    "velocity": 0.3543307086614173,
                    "duration": 0.04166666666662877
                },
                {
                    "name": "G#3",
                    "midi": 56,
                    "time": 940.9312500000042,
                    "velocity": 0.7637795275590551,
                    "duration": 0.1854166666665833
                },
                {
                    "name": "G#5",
                    "midi": 80,
                    "time": 940.9312500000042,
                    "velocity": 0.937007874015748,
                    "duration": 0.14583333333325754
                },
                {
                    "name": "A#3",
                    "midi": 58,
                    "time": 940.9333333333375,
                    "velocity": 0.5748031496062992,
                    "duration": 0.19791666666662877
                },
                {
                    "name": "G#4",
                    "midi": 68,
                    "time": 940.9333333333375,
                    "velocity": 0.9921259842519685,
                    "duration": 0.2020833333333485
                },
                {
                    "name": "D6",
                    "midi": 86,
                    "time": 940.9354166666708,
                    "velocity": 0.84251968503937,
                    "duration": 0.2541666666667197
                },
                {
                    "name": "G#6",
                    "midi": 92,
                    "time": 940.9375000000041,
                    "velocity": 0.952755905511811,
                    "duration": 0.18124999999997726
                },
                {
                    "name": "D4",
                    "midi": 62,
                    "time": 940.9375000000041,
                    "velocity": 0.8346456692913385,
                    "duration": 0.2625000000000455
                },
                {
                    "name": "A#6",
                    "midi": 94,
                    "time": 941.2812500000041,
                    "velocity": 0.9291338582677166,
                    "duration": 0.13124999999990905
                },
                {
                    "name": "D6",
                    "midi": 86,
                    "time": 941.2833333333374,
                    "velocity": 0.8582677165354331,
                    "duration": 0.15208333333328028
                },
                {
                    "name": "D4",
                    "midi": 62,
                    "time": 941.2833333333374,
                    "velocity": 0.7874015748031497,
                    "duration": 0.18124999999997726
                },
                {
                    "name": "A#3",
                    "midi": 58,
                    "time": 941.2854166666707,
                    "velocity": 0.6929133858267716,
                    "duration": 0.32083333333332575
                },
                {
                    "name": "A#5",
                    "midi": 82,
                    "time": 941.2854166666707,
                    "velocity": 0.9133858267716536,
                    "duration": 0.11666666666667425
                },
                {
                    "name": "A#4",
                    "midi": 70,
                    "time": 941.2854166666707,
                    "velocity": 0.9763779527559056,
                    "duration": 0.125
                },
                {
                    "name": "G#3",
                    "midi": 56,
                    "time": 941.6645833333373,
                    "velocity": 0.7480314960629921,
                    "duration": 0.16458333333332575
                },
                {
                    "name": "G#4",
                    "midi": 68,
                    "time": 941.6666666666706,
                    "velocity": 0.9921259842519685,
                    "duration": 0.1416666666666515
                },
                {
                    "name": "D6",
                    "midi": 86,
                    "time": 941.6708333333373,
                    "velocity": 0.8740157480314961,
                    "duration": 0.1229166666665833
                },
                {
                    "name": "G#5",
                    "midi": 80,
                    "time": 941.6729166666706,
                    "velocity": 0.9763779527559056,
                    "duration": 0.12708333333330302
                },
                {
                    "name": "G#6",
                    "midi": 92,
                    "time": 941.6729166666706,
                    "velocity": 0.9291338582677166,
                    "duration": 0.12083333333328028
                },
                {
                    "name": "A#3",
                    "midi": 58,
                    "time": 941.6750000000039,
                    "velocity": 0.7637795275590551,
                    "duration": 0.16875000000004547
                },
                {
                    "name": "D4",
                    "midi": 62,
                    "time": 941.6770833333372,
                    "velocity": 0.7716535433070866,
                    "duration": 0.13125000000002274
                },
                {
                    "name": "G6",
                    "midi": 91,
                    "time": 942.062500000004,
                    "velocity": 0.8740157480314961,
                    "duration": 0.06249999999988631
                },
                {
                    "name": "D6",
                    "midi": 86,
                    "time": 942.062500000004,
                    "velocity": 0.8976377952755905,
                    "duration": 0.056249999999863576
                },
                {
                    "name": "G3",
                    "midi": 55,
                    "time": 942.0645833333373,
                    "velocity": 0.6456692913385826,
                    "duration": 0.11249999999995453
                },
                {
                    "name": "G5",
                    "midi": 79,
                    "time": 942.0666666666706,
                    "velocity": 0.8740157480314961,
                    "duration": 0.05208333333325754
                },
                {
                    "name": "A#3",
                    "midi": 58,
                    "time": 942.0687500000039,
                    "velocity": 0.84251968503937,
                    "duration": 0.12708333333330302
                },
                {
                    "name": "D4",
                    "midi": 62,
                    "time": 942.0708333333372,
                    "velocity": 0.9133858267716536,
                    "duration": 0.10833333333334849
                },
                {
                    "name": "G4",
                    "midi": 67,
                    "time": 942.0708333333372,
                    "velocity": 0.952755905511811,
                    "duration": 0.125
                },
                {
                    "name": "F3",
                    "midi": 53,
                    "time": 942.4895833333372,
                    "velocity": 0.5118110236220472,
                    "duration": 0.31874999999990905
                },
                {
                    "name": "A#5",
                    "midi": 82,
                    "time": 942.5187500000039,
                    "velocity": 0.9133858267716536,
                    "duration": 0.693749999999909
                },
                {
                    "name": "A#3",
                    "midi": 58,
                    "time": 942.5187500000039,
                    "velocity": 0.8582677165354331,
                    "duration": 0.27083333333325754
                },
                {
                    "name": "F6",
                    "midi": 89,
                    "time": 942.5229166666707,
                    "velocity": 0.889763779527559,
                    "duration": 0.6312499999997954
                },
                {
                    "name": "D6",
                    "midi": 86,
                    "time": 942.5229166666707,
                    "velocity": 0.8346456692913385,
                    "duration": 0.6687499999998181
                },
                {
                    "name": "F5",
                    "midi": 77,
                    "time": 942.525000000004,
                    "velocity": 0.9291338582677166,
                    "duration": 0.6874999999998863
                },
                {
                    "name": "D4",
                    "midi": 62,
                    "time": 942.5270833333373,
                    "velocity": 0.9448818897637795,
                    "duration": 0.22499999999990905
                },
                {
                    "name": "F4",
                    "midi": 65,
                    "time": 942.5291666666706,
                    "velocity": 0.9921259842519685,
                    "duration": 0.19791666666662877
                },
                {
                    "name": "A#0",
                    "midi": 22,
                    "time": 943.1562500000038,
                    "velocity": 0.905511811023622,
                    "duration": 0.10416666666685614
                },
                {
                    "name": "A#1",
                    "midi": 34,
                    "time": 943.2250000000039,
                    "velocity": 0.8582677165354331,
                    "duration": 0.08333333333337123
                },
                {
                    "name": "A#0",
                    "midi": 22,
                    "time": 943.3312500000039,
                    "velocity": 0.7637795275590551,
                    "duration": 0.08958333333328028
                },
                {
                    "name": "A#1",
                    "midi": 34,
                    "time": 943.3791666666706,
                    "velocity": 0.8346456692913385,
                    "duration": 0.07499999999993179
                },
                {
                    "name": "A#0",
                    "midi": 22,
                    "time": 943.4687500000039,
                    "velocity": 0.7637795275590551,
                    "duration": 0.0770833333332348
                },
                {
                    "name": "A#1",
                    "midi": 34,
                    "time": 943.5187500000038,
                    "velocity": 0.7874015748031497,
                    "duration": 0.0770833333332348
                },
                {
                    "name": "A#0",
                    "midi": 22,
                    "time": 943.6041666666704,
                    "velocity": 0.7559055118110236,
                    "duration": 0.09375
                },
                {
                    "name": "A#1",
                    "midi": 34,
                    "time": 943.6645833333371,
                    "velocity": 0.7795275590551181,
                    "duration": 0.08124999999995453
                },
                {
                    "name": "A#0",
                    "midi": 22,
                    "time": 943.7666666666704,
                    "velocity": 0.7874015748031497,
                    "duration": 0.09583333333318933
                },
                {
                    "name": "A#1",
                    "midi": 34,
                    "time": 943.8166666666704,
                    "velocity": 0.8188976377952756,
                    "duration": 0.08541666666656056
                },
                {
                    "name": "D4",
                    "midi": 62,
                    "time": 943.8250000000037,
                    "velocity": 0.9133858267716536,
                    "duration": 0.14583333333325754
                },
                {
                    "name": "F3",
                    "midi": 53,
                    "time": 943.827083333337,
                    "velocity": 0.952755905511811,
                    "duration": 0.08958333333328028
                },
                {
                    "name": "A#3",
                    "midi": 58,
                    "time": 943.8291666666703,
                    "velocity": 0.9448818897637795,
                    "duration": 0.16250000000002274
                },
                {
                    "name": "A#0",
                    "midi": 22,
                    "time": 943.9187500000036,
                    "velocity": 0.8110236220472441,
                    "duration": 0.0958333333334167
                },
                {
                    "name": "A#1",
                    "midi": 34,
                    "time": 943.983333333337,
                    "velocity": 0.7637795275590551,
                    "duration": 0.09166666666669698
                },
                {
                    "name": "A#0",
                    "midi": 22,
                    "time": 944.0937500000036,
                    "velocity": 0.8346456692913385,
                    "duration": 0.06875000000002274
                },
                {
                    "name": "A#1",
                    "midi": 34,
                    "time": 944.1541666666703,
                    "velocity": 0.8188976377952756,
                    "duration": 0.08749999999997726
                },
                {
                    "name": "A#0",
                    "midi": 22,
                    "time": 944.2625000000037,
                    "velocity": 0.9133858267716536,
                    "duration": 0.07291666666662877
                },
                {
                    "name": "A#1",
                    "midi": 34,
                    "time": 944.333333333337,
                    "velocity": 0.8976377952755905,
                    "duration": 0.07083333333332575
                },
                {
                    "name": "A#0",
                    "midi": 22,
                    "time": 944.4166666666704,
                    "velocity": 0.8976377952755905,
                    "duration": 0.07916666666665151
                },
                {
                    "name": "A#1",
                    "midi": 34,
                    "time": 944.4812500000037,
                    "velocity": 0.889763779527559,
                    "duration": 0.07500000000004547
                },
                {
                    "name": "A#0",
                    "midi": 22,
                    "time": 944.5666666666704,
                    "velocity": 0.8976377952755905,
                    "duration": 0.08541666666667425
                },
                {
                    "name": "A#1",
                    "midi": 34,
                    "time": 944.6333333333371,
                    "velocity": 0.8818897637795275,
                    "duration": 0.07499999999993179
                },
                {
                    "name": "A#0",
                    "midi": 22,
                    "time": 944.7125000000037,
                    "velocity": 0.889763779527559,
                    "duration": 0.09375
                },
                {
                    "name": "A#1",
                    "midi": 34,
                    "time": 944.7791666666704,
                    "velocity": 0.8661417322834646,
                    "duration": 0.08124999999995453
                },
                {
                    "name": "A#0",
                    "midi": 22,
                    "time": 944.8604166666704,
                    "velocity": 0.8818897637795275,
                    "duration": 0.08958333333339397
                },
                {
                    "name": "A#1",
                    "midi": 34,
                    "time": 944.9291666666704,
                    "velocity": 0.8346456692913385,
                    "duration": 0.08541666666667425
                },
                {
                    "name": "A#0",
                    "midi": 22,
                    "time": 945.0187500000038,
                    "velocity": 0.905511811023622,
                    "duration": 0.11041666666665151
                },
                {
                    "name": "D5",
                    "midi": 74,
                    "time": 945.0687500000038,
                    "velocity": 0.9763779527559056,
                    "duration": 0.11458333333337123
                },
                {
                    "name": "F4",
                    "midi": 65,
                    "time": 945.0729166666705,
                    "velocity": 1,
                    "duration": 0.07916666666665151
                },
                {
                    "name": "A#4",
                    "midi": 70,
                    "time": 945.0750000000038,
                    "velocity": 0.9448818897637795,
                    "duration": 0.11666666666667425
                },
                {
                    "name": "A#1",
                    "midi": 34,
                    "time": 945.0750000000038,
                    "velocity": 0.889763779527559,
                    "duration": 0.10208333333332575
                },
                {
                    "name": "A#0",
                    "midi": 22,
                    "time": 945.1812500000038,
                    "velocity": 0.8346456692913385,
                    "duration": 0.10625000000004547
                },
                {
                    "name": "A#1",
                    "midi": 34,
                    "time": 945.2520833333372,
                    "velocity": 0.8503937007874016,
                    "duration": 0.09166666666669698
                },
                {
                    "name": "A#0",
                    "midi": 22,
                    "time": 945.3437500000039,
                    "velocity": 0.84251968503937,
                    "duration": 0.09583333333330302
                },
                {
                    "name": "A#1",
                    "midi": 34,
                    "time": 945.4250000000038,
                    "velocity": 0.8818897637795275,
                    "duration": 0.08958333333339397
                },
                {
                    "name": "A#0",
                    "midi": 22,
                    "time": 945.5229166666705,
                    "velocity": 0.937007874015748,
                    "duration": 0.09375
                },
                {
                    "name": "A#1",
                    "midi": 34,
                    "time": 945.6062500000039,
                    "velocity": 0.952755905511811,
                    "duration": 0.08541666666667425
                },
                {
                    "name": "A#0",
                    "midi": 22,
                    "time": 945.6937500000039,
                    "velocity": 0.8976377952755905,
                    "duration": 0.09791666666671972
                },
                {
                    "name": "A#1",
                    "midi": 34,
                    "time": 945.7708333333372,
                    "velocity": 0.889763779527559,
                    "duration": 0.08750000000009095
                },
                {
                    "name": "A#0",
                    "midi": 22,
                    "time": 945.8604166666706,
                    "velocity": 0.8976377952755905,
                    "duration": 0.10208333333332575
                },
                {
                    "name": "A#1",
                    "midi": 34,
                    "time": 945.9333333333373,
                    "velocity": 0.8976377952755905,
                    "duration": 0.09375
                },
                {
                    "name": "A#0",
                    "midi": 22,
                    "time": 946.0187500000039,
                    "velocity": 0.8582677165354331,
                    "duration": 0.11666666666667425
                },
                {
                    "name": "A#1",
                    "midi": 34,
                    "time": 946.093750000004,
                    "velocity": 0.9133858267716536,
                    "duration": 0.11458333333325754
                },
                {
                    "name": "A#0",
                    "midi": 22,
                    "time": 946.1937500000039,
                    "velocity": 0.889763779527559,
                    "duration": 0.10625000000004547
                },
                {
                    "name": "A#1",
                    "midi": 34,
                    "time": 946.2875000000039,
                    "velocity": 0.8976377952755905,
                    "duration": 0.1270833333334167
                },
                {
                    "name": "B1",
                    "midi": 35,
                    "time": 946.3145833333373,
                    "velocity": 0.6377952755905512,
                    "duration": 0.03541666666671972
                },
                {
                    "name": "A#5",
                    "midi": 82,
                    "time": 946.3645833333374,
                    "velocity": 0.9448818897637795,
                    "duration": 0.20624999999984084
                },
                {
                    "name": "F5",
                    "midi": 77,
                    "time": 946.3666666666707,
                    "velocity": 0.952755905511811,
                    "duration": 0.17499999999984084
                },
                {
                    "name": "F6",
                    "midi": 89,
                    "time": 946.3666666666707,
                    "velocity": 0.9212598425196851,
                    "duration": 0.21041666666656056
                },
                {
                    "name": "A#0",
                    "midi": 22,
                    "time": 946.368750000004,
                    "velocity": 0.8976377952755905,
                    "duration": 0.1395833333332348
                },
                {
                    "name": "D6",
                    "midi": 86,
                    "time": 946.368750000004,
                    "velocity": 0.8818897637795275,
                    "duration": 0.22291666666660603
                },
                {
                    "name": "C#1",
                    "midi": 25,
                    "time": 946.4020833333373,
                    "velocity": 0.36220472440944884,
                    "duration": 0.039583333333325754
                },
                {
                    "name": "A#1",
                    "midi": 34,
                    "time": 946.4666666666706,
                    "velocity": 0.8582677165354331,
                    "duration": 0.11249999999995453
                },
                {
                    "name": "A#0",
                    "midi": 22,
                    "time": 946.5750000000039,
                    "velocity": 0.8661417322834646,
                    "duration": 0.11458333333337123
                },
                {
                    "name": "A#1",
                    "midi": 34,
                    "time": 946.6458333333372,
                    "velocity": 0.8661417322834646,
                    "duration": 0.10416666666674246
                },
                {
                    "name": "A#0",
                    "midi": 22,
                    "time": 946.7458333333373,
                    "velocity": 0.889763779527559,
                    "duration": 0.13125000000013642
                },
                {
                    "name": "A#1",
                    "midi": 34,
                    "time": 946.8333333333374,
                    "velocity": 0.984251968503937,
                    "duration": 0.12291666666669698
                },
                {
                    "name": "A#0",
                    "midi": 22,
                    "time": 946.9333333333374,
                    "velocity": 0.889763779527559,
                    "duration": 0.1395833333333485
                },
                {
                    "name": "A#1",
                    "midi": 34,
                    "time": 947.0333333333374,
                    "velocity": 0.952755905511811,
                    "duration": 0.1374999999999318
                },
                {
                    "name": "C#1",
                    "midi": 25,
                    "time": 947.0583333333374,
                    "velocity": 0.41732283464566927,
                    "duration": 0.04166666666662877
                },
                {
                    "name": "A#0",
                    "midi": 22,
                    "time": 947.1395833333373,
                    "velocity": 0.9133858267716536,
                    "duration": 0.14999999999997726
                },
                {
                    "name": "A#1",
                    "midi": 34,
                    "time": 947.2479166666707,
                    "velocity": 0.9921259842519685,
                    "duration": 0.16666666666662877
                },
                {
                    "name": "A#0",
                    "midi": 22,
                    "time": 947.3770833333373,
                    "velocity": 0.937007874015748,
                    "duration": 0.19375000000002274
                },
                {
                    "name": "A#1",
                    "midi": 34,
                    "time": 947.5229166666707,
                    "velocity": 1,
                    "duration": 0.2020833333332348
                },
                {
                    "name": "A#0",
                    "midi": 22,
                    "time": 947.6833333333373,
                    "velocity": 0.952755905511811,
                    "duration": 0.20624999999995453
                },
                {
                    "name": "A#1",
                    "midi": 34,
                    "time": 947.8354166666705,
                    "velocity": 1,
                    "duration": 0.16875000000004547
                },
                {
                    "name": "A#1",
                    "midi": 34,
                    "time": 948.2062500000039,
                    "velocity": 1,
                    "duration": 0.48958333333337123
                },
                {
                    "name": "A#0",
                    "midi": 22,
                    "time": 948.212500000004,
                    "velocity": 1,
                    "duration": 0.4375
                },
                {
                    "name": "A#6",
                    "midi": 94,
                    "time": 948.2145833333373,
                    "velocity": 1,
                    "duration": 0.4812500000000455
                },
                {
                    "name": "D7",
                    "midi": 98,
                    "time": 948.2145833333373,
                    "velocity": 1,
                    "duration": 0.46458333333339397
                },
                {
                    "name": "F7",
                    "midi": 101,
                    "time": 948.2208333333373,
                    "velocity": 1,
                    "duration": 0.44583333333332575
                },
                {
                    "name": "A#7",
                    "midi": 106,
                    "time": 948.225000000004,
                    "velocity": 1,
                    "duration": 0.3937499999999545
                }
            ],
            "controlChanges": {
                "1": [
                    {
                        "number": 1,
                        "time": 1.3312499999999998,
                        "value": 0
                    }
                ],
                "6": [
                    {
                        "number": 6,
                        "time": 1.4395833333333332,
                        "value": 0.5354330708661418
                    },
                    {
                        "number": 6,
                        "time": 1.4520833333333332,
                        "value": 0.4251968503937008
                    },
                    {
                        "number": 6,
                        "time": 1.4645833333333331,
                        "value": 0.5039370078740157
                    },
                    {
                        "number": 6,
                        "time": 1.477083333333333,
                        "value": 0.5354330708661418
                    },
                    {
                        "number": 6,
                        "time": 1.489583333333333,
                        "value": 0.5511811023622047
                    }
                ],
                "7": [
                    {
                        "number": 7,
                        "time": 0.73125,
                        "value": 0.7874015748031497
                    }
                ],
                "10": [
                    {
                        "number": 10,
                        "time": 1.1312499999999999,
                        "value": 0.5039370078740157
                    }
                ],
                "11": [
                    {
                        "number": 11,
                        "time": 0.9312499999999999,
                        "value": 0.7874015748031497
                    }
                ],
                "64": [
                    {
                        "number": 64,
                        "time": 773.9625000000008,
                        "value": 1
                    },
                    {
                        "number": 64,
                        "time": 774.5250000000007,
                        "value": 0.49606299212598426
                    },
                    {
                        "number": 64,
                        "time": 774.527083333334,
                        "value": 0
                    },
                    {
                        "number": 64,
                        "time": 774.808333333334,
                        "value": 1
                    },
                    {
                        "number": 64,
                        "time": 775.3604166666673,
                        "value": 0.49606299212598426
                    },
                    {
                        "number": 64,
                        "time": 775.364583333334,
                        "value": 0
                    },
                    {
                        "number": 64,
                        "time": 775.6791666666674,
                        "value": 1
                    },
                    {
                        "number": 64,
                        "time": 776.289583333334,
                        "value": 0.49606299212598426
                    },
                    {
                        "number": 64,
                        "time": 776.2916666666673,
                        "value": 0
                    },
                    {
                        "number": 64,
                        "time": 776.5541666666674,
                        "value": 1
                    },
                    {
                        "number": 64,
                        "time": 777.1875000000005,
                        "value": 0.49606299212598426
                    },
                    {
                        "number": 64,
                        "time": 777.1937500000005,
                        "value": 0
                    },
                    {
                        "number": 64,
                        "time": 777.4875000000003,
                        "value": 1
                    },
                    {
                        "number": 64,
                        "time": 778.1145833333335,
                        "value": 0.49606299212598426
                    },
                    {
                        "number": 64,
                        "time": 778.1166666666668,
                        "value": 0
                    },
                    {
                        "number": 64,
                        "time": 778.3458333333335,
                        "value": 1
                    },
                    {
                        "number": 64,
                        "time": 778.7375000000003,
                        "value": 0.49606299212598426
                    },
                    {
                        "number": 64,
                        "time": 778.7437500000003,
                        "value": 0
                    },
                    {
                        "number": 64,
                        "time": 779.2020833333336,
                        "value": 1
                    },
                    {
                        "number": 64,
                        "time": 779.8625000000003,
                        "value": 0.49606299212598426
                    },
                    {
                        "number": 64,
                        "time": 779.8645833333336,
                        "value": 0
                    },
                    {
                        "number": 64,
                        "time": 780.0937500000001,
                        "value": 1
                    },
                    {
                        "number": 64,
                        "time": 780.7229166666667,
                        "value": 0.49606299212598426
                    },
                    {
                        "number": 64,
                        "time": 780.7291666666667,
                        "value": 0
                    },
                    {
                        "number": 64,
                        "time": 780.9437500000001,
                        "value": 1
                    },
                    {
                        "number": 64,
                        "time": 781.2937500000002,
                        "value": 0.49606299212598426
                    },
                    {
                        "number": 64,
                        "time": 781.2958333333335,
                        "value": 0
                    },
                    {
                        "number": 64,
                        "time": 781.9083333333334,
                        "value": 1
                    },
                    {
                        "number": 64,
                        "time": 782.2041666666668,
                        "value": 0.49606299212598426
                    },
                    {
                        "number": 64,
                        "time": 782.2083333333335,
                        "value": 0
                    },
                    {
                        "number": 64,
                        "time": 782.7729166666669,
                        "value": 1
                    },
                    {
                        "number": 64,
                        "time": 783.0833333333335,
                        "value": 0.49606299212598426
                    },
                    {
                        "number": 64,
                        "time": 783.0875000000001,
                        "value": 0
                    },
                    {
                        "number": 64,
                        "time": 783.6729166666668,
                        "value": 1
                    },
                    {
                        "number": 64,
                        "time": 784.04375,
                        "value": 0.49606299212598426
                    },
                    {
                        "number": 64,
                        "time": 784.0479166666668,
                        "value": 0
                    },
                    {
                        "number": 64,
                        "time": 784.5812500000002,
                        "value": 1
                    },
                    {
                        "number": 64,
                        "time": 785.0208333333335,
                        "value": 0.49606299212598426
                    },
                    {
                        "number": 64,
                        "time": 785.0270833333335,
                        "value": 0
                    },
                    {
                        "number": 64,
                        "time": 785.4750000000004,
                        "value": 1
                    },
                    {
                        "number": 64,
                        "time": 786.1083333333337,
                        "value": 0.49606299212598426
                    },
                    {
                        "number": 64,
                        "time": 786.1145833333337,
                        "value": 0
                    },
                    {
                        "number": 64,
                        "time": 786.3625000000004,
                        "value": 1
                    },
                    {
                        "number": 64,
                        "time": 786.7145833333337,
                        "value": 0.49606299212598426
                    },
                    {
                        "number": 64,
                        "time": 786.7187500000005,
                        "value": 0
                    },
                    {
                        "number": 64,
                        "time": 787.2729166666672,
                        "value": 1
                    },
                    {
                        "number": 64,
                        "time": 787.8500000000007,
                        "value": 0.49606299212598426
                    },
                    {
                        "number": 64,
                        "time": 787.8541666666674,
                        "value": 0
                    },
                    {
                        "number": 64,
                        "time": 788.195833333334,
                        "value": 1
                    },
                    {
                        "number": 64,
                        "time": 788.5416666666673,
                        "value": 0.49606299212598426
                    },
                    {
                        "number": 64,
                        "time": 788.5479166666673,
                        "value": 0
                    },
                    {
                        "number": 64,
                        "time": 789.0020833333338,
                        "value": 1
                    },
                    {
                        "number": 64,
                        "time": 789.6520833333337,
                        "value": 0.49606299212598426
                    },
                    {
                        "number": 64,
                        "time": 789.6625000000004,
                        "value": 0
                    },
                    {
                        "number": 64,
                        "time": 789.9437500000004,
                        "value": 1
                    },
                    {
                        "number": 64,
                        "time": 791.2416666666674,
                        "value": 0.49606299212598426
                    },
                    {
                        "number": 64,
                        "time": 791.2500000000007,
                        "value": 0
                    },
                    {
                        "number": 64,
                        "time": 791.358333333334,
                        "value": 0.49606299212598426
                    },
                    {
                        "number": 64,
                        "time": 791.364583333334,
                        "value": 1
                    },
                    {
                        "number": 64,
                        "time": 792.4270833333343,
                        "value": 0.49606299212598426
                    },
                    {
                        "number": 64,
                        "time": 792.4416666666676,
                        "value": 0
                    },
                    {
                        "number": 64,
                        "time": 792.8187500000009,
                        "value": 0.49606299212598426
                    },
                    {
                        "number": 64,
                        "time": 792.8375000000009,
                        "value": 1
                    },
                    {
                        "number": 64,
                        "time": 794.1000000000008,
                        "value": 0.49606299212598426
                    },
                    {
                        "number": 64,
                        "time": 794.1333333333341,
                        "value": 0
                    },
                    {
                        "number": 64,
                        "time": 794.9958333333342,
                        "value": 0.49606299212598426
                    },
                    {
                        "number": 64,
                        "time": 795.0208333333342,
                        "value": 1
                    },
                    {
                        "number": 64,
                        "time": 795.2916666666675,
                        "value": 0.49606299212598426
                    },
                    {
                        "number": 64,
                        "time": 795.3208333333342,
                        "value": 0
                    },
                    {
                        "number": 64,
                        "time": 795.4125000000009,
                        "value": 0.49606299212598426
                    },
                    {
                        "number": 64,
                        "time": 795.4416666666676,
                        "value": 1
                    },
                    {
                        "number": 64,
                        "time": 796.1354166666675,
                        "value": 0.49606299212598426
                    },
                    {
                        "number": 64,
                        "time": 796.1541666666675,
                        "value": 0
                    },
                    {
                        "number": 64,
                        "time": 796.2875000000007,
                        "value": 0.49606299212598426
                    },
                    {
                        "number": 64,
                        "time": 796.3083333333341,
                        "value": 1
                    },
                    {
                        "number": 64,
                        "time": 796.5395833333341,
                        "value": 0.49606299212598426
                    },
                    {
                        "number": 64,
                        "time": 796.5791666666674,
                        "value": 0
                    },
                    {
                        "number": 64,
                        "time": 796.6166666666675,
                        "value": 0.49606299212598426
                    },
                    {
                        "number": 64,
                        "time": 796.6666666666674,
                        "value": 1
                    },
                    {
                        "number": 64,
                        "time": 796.9479166666673,
                        "value": 0.49606299212598426
                    },
                    {
                        "number": 64,
                        "time": 796.9875000000006,
                        "value": 0
                    },
                    {
                        "number": 64,
                        "time": 797.0833333333339,
                        "value": 0.49606299212598426
                    },
                    {
                        "number": 64,
                        "time": 797.1145833333339,
                        "value": 1
                    },
                    {
                        "number": 64,
                        "time": 798.0645833333341,
                        "value": 0.49606299212598426
                    },
                    {
                        "number": 64,
                        "time": 798.0979166666674,
                        "value": 0
                    },
                    {
                        "number": 64,
                        "time": 799.3791666666674,
                        "value": 0.49606299212598426
                    },
                    {
                        "number": 64,
                        "time": 799.3916666666674,
                        "value": 1
                    },
                    {
                        "number": 64,
                        "time": 800.3562500000008,
                        "value": 0.49606299212598426
                    },
                    {
                        "number": 64,
                        "time": 800.4125000000008,
                        "value": 0
                    },
                    {
                        "number": 64,
                        "time": 800.4729166666675,
                        "value": 0.49606299212598426
                    },
                    {
                        "number": 64,
                        "time": 800.5229166666675,
                        "value": 1
                    },
                    {
                        "number": 64,
                        "time": 804.4333333333342,
                        "value": 0.49606299212598426
                    },
                    {
                        "number": 64,
                        "time": 804.4458333333342,
                        "value": 0
                    },
                    {
                        "number": 64,
                        "time": 805.2958333333339,
                        "value": 1
                    },
                    {
                        "number": 64,
                        "time": 805.6229166666672,
                        "value": 0.49606299212598426
                    },
                    {
                        "number": 64,
                        "time": 805.6583333333339,
                        "value": 0
                    },
                    {
                        "number": 64,
                        "time": 806.1083333333339,
                        "value": 0.49606299212598426
                    },
                    {
                        "number": 64,
                        "time": 806.1187500000005,
                        "value": 1
                    },
                    {
                        "number": 64,
                        "time": 806.5187500000004,
                        "value": 0.49606299212598426
                    },
                    {
                        "number": 64,
                        "time": 806.5812500000005,
                        "value": 0
                    },
                    {
                        "number": 64,
                        "time": 806.6229166666672,
                        "value": 0.49606299212598426
                    },
                    {
                        "number": 64,
                        "time": 806.6333333333338,
                        "value": 0
                    },
                    {
                        "number": 64,
                        "time": 806.7354166666671,
                        "value": 0.49606299212598426
                    },
                    {
                        "number": 64,
                        "time": 806.7770833333337,
                        "value": 0
                    },
                    {
                        "number": 64,
                        "time": 806.9187500000005,
                        "value": 0.49606299212598426
                    },
                    {
                        "number": 64,
                        "time": 806.9500000000005,
                        "value": 1
                    },
                    {
                        "number": 64,
                        "time": 807.3208333333339,
                        "value": 0.49606299212598426
                    },
                    {
                        "number": 64,
                        "time": 807.4937500000007,
                        "value": 0
                    },
                    {
                        "number": 64,
                        "time": 807.7791666666675,
                        "value": 0.49606299212598426
                    },
                    {
                        "number": 64,
                        "time": 807.7937500000008,
                        "value": 1
                    },
                    {
                        "number": 64,
                        "time": 809.3916666666673,
                        "value": 0.49606299212598426
                    },
                    {
                        "number": 64,
                        "time": 809.402083333334,
                        "value": 0
                    },
                    {
                        "number": 64,
                        "time": 809.633333333334,
                        "value": 1
                    },
                    {
                        "number": 64,
                        "time": 810.239583333334,
                        "value": 0.49606299212598426
                    },
                    {
                        "number": 64,
                        "time": 810.2479166666674,
                        "value": 0
                    },
                    {
                        "number": 64,
                        "time": 810.4916666666675,
                        "value": 0.49606299212598426
                    },
                    {
                        "number": 64,
                        "time": 810.4916666666675,
                        "value": 1
                    },
                    {
                        "number": 64,
                        "time": 811.0291666666674,
                        "value": 0.49606299212598426
                    },
                    {
                        "number": 64,
                        "time": 811.0354166666674,
                        "value": 0
                    },
                    {
                        "number": 64,
                        "time": 811.3145833333342,
                        "value": 1
                    },
                    {
                        "number": 64,
                        "time": 811.8375000000009,
                        "value": 0.49606299212598426
                    },
                    {
                        "number": 64,
                        "time": 811.8458333333342,
                        "value": 0
                    },
                    {
                        "number": 64,
                        "time": 812.1416666666677,
                        "value": 1
                    },
                    {
                        "number": 64,
                        "time": 812.6604166666676,
                        "value": 0.49606299212598426
                    },
                    {
                        "number": 64,
                        "time": 812.675000000001,
                        "value": 0
                    },
                    {
                        "number": 64,
                        "time": 812.9250000000009,
                        "value": 1
                    },
                    {
                        "number": 64,
                        "time": 814.6625000000008,
                        "value": 0.49606299212598426
                    },
                    {
                        "number": 64,
                        "time": 814.6750000000009,
                        "value": 0
                    },
                    {
                        "number": 64,
                        "time": 815.3312500000009,
                        "value": 1
                    },
                    {
                        "number": 64,
                        "time": 818.1437500000008,
                        "value": 0.49606299212598426
                    },
                    {
                        "number": 64,
                        "time": 818.1687500000007,
                        "value": 0
                    },
                    {
                        "number": 64,
                        "time": 818.2750000000007,
                        "value": 0.49606299212598426
                    },
                    {
                        "number": 64,
                        "time": 818.2791666666674,
                        "value": 1
                    },
                    {
                        "number": 64,
                        "time": 818.9250000000008,
                        "value": 0.49606299212598426
                    },
                    {
                        "number": 64,
                        "time": 818.9416666666674,
                        "value": 0
                    },
                    {
                        "number": 64,
                        "time": 819.2229166666674,
                        "value": 1
                    },
                    {
                        "number": 64,
                        "time": 819.827083333334,
                        "value": 0.49606299212598426
                    },
                    {
                        "number": 64,
                        "time": 819.8437500000007,
                        "value": 0
                    },
                    {
                        "number": 64,
                        "time": 820.1020833333339,
                        "value": 1
                    },
                    {
                        "number": 64,
                        "time": 821.8562500000007,
                        "value": 0.49606299212598426
                    },
                    {
                        "number": 64,
                        "time": 821.8687500000008,
                        "value": 0
                    },
                    {
                        "number": 64,
                        "time": 821.9750000000009,
                        "value": 0.49606299212598426
                    },
                    {
                        "number": 64,
                        "time": 821.981250000001,
                        "value": 1
                    },
                    {
                        "number": 64,
                        "time": 822.6562500000013,
                        "value": 0.49606299212598426
                    },
                    {
                        "number": 64,
                        "time": 822.666666666668,
                        "value": 0
                    },
                    {
                        "number": 64,
                        "time": 822.8937500000012,
                        "value": 1
                    },
                    {
                        "number": 64,
                        "time": 823.5500000000012,
                        "value": 0.49606299212598426
                    },
                    {
                        "number": 64,
                        "time": 823.5625000000013,
                        "value": 0
                    },
                    {
                        "number": 64,
                        "time": 823.804166666668,
                        "value": 1
                    },
                    {
                        "number": 64,
                        "time": 825.7291666666678,
                        "value": 0.49606299212598426
                    },
                    {
                        "number": 64,
                        "time": 825.7437500000011,
                        "value": 0
                    },
                    {
                        "number": 64,
                        "time": 825.8375000000012,
                        "value": 0.49606299212598426
                    },
                    {
                        "number": 64,
                        "time": 825.8458333333346,
                        "value": 1
                    },
                    {
                        "number": 64,
                        "time": 827.2625000000014,
                        "value": 0.49606299212598426
                    },
                    {
                        "number": 64,
                        "time": 827.266666666668,
                        "value": 0
                    },
                    {
                        "number": 64,
                        "time": 827.3708333333348,
                        "value": 0.49606299212598426
                    },
                    {
                        "number": 64,
                        "time": 827.3770833333348,
                        "value": 1
                    },
                    {
                        "number": 64,
                        "time": 827.6750000000014,
                        "value": 0.49606299212598426
                    },
                    {
                        "number": 64,
                        "time": 827.6812500000015,
                        "value": 0
                    },
                    {
                        "number": 64,
                        "time": 827.897916666668,
                        "value": 1
                    },
                    {
                        "number": 64,
                        "time": 829.9645833333352,
                        "value": 0.49606299212598426
                    },
                    {
                        "number": 64,
                        "time": 829.9791666666686,
                        "value": 0
                    },
                    {
                        "number": 64,
                        "time": 830.0708333333353,
                        "value": 0.49606299212598426
                    },
                    {
                        "number": 64,
                        "time": 830.0770833333353,
                        "value": 1
                    },
                    {
                        "number": 64,
                        "time": 832.137500000002,
                        "value": 0.49606299212598426
                    },
                    {
                        "number": 64,
                        "time": 832.1416666666687,
                        "value": 0
                    },
                    {
                        "number": 64,
                        "time": 832.250000000002,
                        "value": 0.49606299212598426
                    },
                    {
                        "number": 64,
                        "time": 832.2541666666688,
                        "value": 1
                    },
                    {
                        "number": 64,
                        "time": 833.8333333333356,
                        "value": 0.49606299212598426
                    },
                    {
                        "number": 64,
                        "time": 833.8458333333356,
                        "value": 0
                    },
                    {
                        "number": 64,
                        "time": 834.3104166666693,
                        "value": 1
                    },
                    {
                        "number": 64,
                        "time": 835.9291666666693,
                        "value": 0.49606299212598426
                    },
                    {
                        "number": 64,
                        "time": 835.9458333333359,
                        "value": 0
                    },
                    {
                        "number": 64,
                        "time": 836.4875000000028,
                        "value": 1
                    },
                    {
                        "number": 64,
                        "time": 838.462500000003,
                        "value": 0.49606299212598426
                    },
                    {
                        "number": 64,
                        "time": 838.4666666666698,
                        "value": 0
                    },
                    {
                        "number": 64,
                        "time": 838.5687500000032,
                        "value": 0.49606299212598426
                    },
                    {
                        "number": 64,
                        "time": 838.5708333333365,
                        "value": 1
                    },
                    {
                        "number": 64,
                        "time": 840.7187500000034,
                        "value": 0.49606299212598426
                    },
                    {
                        "number": 64,
                        "time": 840.7208333333367,
                        "value": 0
                    },
                    {
                        "number": 64,
                        "time": 840.8270833333366,
                        "value": 0.49606299212598426
                    },
                    {
                        "number": 64,
                        "time": 840.8333333333367,
                        "value": 1
                    },
                    {
                        "number": 64,
                        "time": 843.0645833333372,
                        "value": 0.49606299212598426
                    },
                    {
                        "number": 64,
                        "time": 843.0791666666705,
                        "value": 0
                    },
                    {
                        "number": 64,
                        "time": 843.2916666666705,
                        "value": 1
                    },
                    {
                        "number": 64,
                        "time": 843.6812500000037,
                        "value": 0.49606299212598426
                    },
                    {
                        "number": 64,
                        "time": 843.6937500000038,
                        "value": 0
                    },
                    {
                        "number": 64,
                        "time": 843.8604166666703,
                        "value": 1
                    },
                    {
                        "number": 64,
                        "time": 844.0333333333369,
                        "value": 0.49606299212598426
                    },
                    {
                        "number": 64,
                        "time": 844.0416666666703,
                        "value": 0
                    },
                    {
                        "number": 64,
                        "time": 844.1979166666704,
                        "value": 1
                    },
                    {
                        "number": 64,
                        "time": 844.7000000000037,
                        "value": 0.49606299212598426
                    },
                    {
                        "number": 64,
                        "time": 844.814583333337,
                        "value": 1
                    },
                    {
                        "number": 64,
                        "time": 845.1416666666704,
                        "value": 0.49606299212598426
                    },
                    {
                        "number": 64,
                        "time": 845.158333333337,
                        "value": 0
                    },
                    {
                        "number": 64,
                        "time": 845.3500000000037,
                        "value": 0.49606299212598426
                    },
                    {
                        "number": 64,
                        "time": 845.352083333337,
                        "value": 1
                    },
                    {
                        "number": 64,
                        "time": 845.827083333337,
                        "value": 0.49606299212598426
                    },
                    {
                        "number": 64,
                        "time": 845.839583333337,
                        "value": 0
                    },
                    {
                        "number": 64,
                        "time": 846.0916666666704,
                        "value": 1
                    },
                    {
                        "number": 64,
                        "time": 846.8125000000036,
                        "value": 0.49606299212598426
                    },
                    {
                        "number": 64,
                        "time": 846.8250000000037,
                        "value": 0
                    },
                    {
                        "number": 64,
                        "time": 847.2375000000039,
                        "value": 1
                    },
                    {
                        "number": 64,
                        "time": 847.8520833333372,
                        "value": 0.49606299212598426
                    },
                    {
                        "number": 64,
                        "time": 847.8645833333372,
                        "value": 0
                    },
                    {
                        "number": 64,
                        "time": 847.968750000004,
                        "value": 0.49606299212598426
                    },
                    {
                        "number": 64,
                        "time": 847.9791666666706,
                        "value": 1
                    },
                    {
                        "number": 64,
                        "time": 848.4291666666703,
                        "value": 0.49606299212598426
                    },
                    {
                        "number": 64,
                        "time": 848.4375000000036,
                        "value": 0
                    },
                    {
                        "number": 64,
                        "time": 848.7729166666701,
                        "value": 0.49606299212598426
                    },
                    {
                        "number": 64,
                        "time": 848.7729166666701,
                        "value": 1
                    },
                    {
                        "number": 64,
                        "time": 848.9770833333366,
                        "value": 0.49606299212598426
                    },
                    {
                        "number": 64,
                        "time": 848.98541666667,
                        "value": 0
                    },
                    {
                        "number": 64,
                        "time": 849.0875000000033,
                        "value": 0.49606299212598426
                    },
                    {
                        "number": 64,
                        "time": 849.0895833333366,
                        "value": 1
                    },
                    {
                        "number": 64,
                        "time": 849.5250000000035,
                        "value": 0.49606299212598426
                    },
                    {
                        "number": 64,
                        "time": 849.5375000000035,
                        "value": 0
                    },
                    {
                        "number": 64,
                        "time": 849.6333333333371,
                        "value": 0.49606299212598426
                    },
                    {
                        "number": 64,
                        "time": 849.6395833333371,
                        "value": 1
                    },
                    {
                        "number": 64,
                        "time": 850.2812500000034,
                        "value": 0.49606299212598426
                    },
                    {
                        "number": 64,
                        "time": 850.3041666666701,
                        "value": 0
                    },
                    {
                        "number": 64,
                        "time": 850.3479166666701,
                        "value": 0.49606299212598426
                    },
                    {
                        "number": 64,
                        "time": 850.3604166666702,
                        "value": 1
                    },
                    {
                        "number": 64,
                        "time": 851.4520833333372,
                        "value": 0.49606299212598426
                    },
                    {
                        "number": 64,
                        "time": 851.4666666666706,
                        "value": 0
                    },
                    {
                        "number": 64,
                        "time": 851.5062500000039,
                        "value": 0.49606299212598426
                    },
                    {
                        "number": 64,
                        "time": 851.5208333333371,
                        "value": 1
                    },
                    {
                        "number": 64,
                        "time": 852.3604166666705,
                        "value": 0.49606299212598426
                    },
                    {
                        "number": 64,
                        "time": 852.3770833333372,
                        "value": 0
                    },
                    {
                        "number": 64,
                        "time": 852.7208333333372,
                        "value": 1
                    },
                    {
                        "number": 64,
                        "time": 854.783333333337,
                        "value": 0.49606299212598426
                    },
                    {
                        "number": 64,
                        "time": 854.7937500000037,
                        "value": 0
                    },
                    {
                        "number": 64,
                        "time": 855.1604166666704,
                        "value": 0.49606299212598426
                    },
                    {
                        "number": 64,
                        "time": 855.1687500000037,
                        "value": 1
                    },
                    {
                        "number": 64,
                        "time": 855.4562500000037,
                        "value": 0.49606299212598426
                    },
                    {
                        "number": 64,
                        "time": 855.4604166666704,
                        "value": 0
                    },
                    {
                        "number": 64,
                        "time": 855.689583333337,
                        "value": 1
                    },
                    {
                        "number": 64,
                        "time": 856.0625000000036,
                        "value": 0.49606299212598426
                    },
                    {
                        "number": 64,
                        "time": 856.070833333337,
                        "value": 0
                    },
                    {
                        "number": 64,
                        "time": 856.3500000000035,
                        "value": 0.49606299212598426
                    },
                    {
                        "number": 64,
                        "time": 856.3520833333369,
                        "value": 1
                    },
                    {
                        "number": 64,
                        "time": 856.6416666666702,
                        "value": 0.49606299212598426
                    },
                    {
                        "number": 64,
                        "time": 856.6500000000035,
                        "value": 0
                    },
                    {
                        "number": 64,
                        "time": 856.7645833333369,
                        "value": 0.49606299212598426
                    },
                    {
                        "number": 64,
                        "time": 856.7708333333369,
                        "value": 1
                    },
                    {
                        "number": 64,
                        "time": 856.9729166666702,
                        "value": 0.49606299212598426
                    },
                    {
                        "number": 64,
                        "time": 856.977083333337,
                        "value": 0
                    },
                    {
                        "number": 64,
                        "time": 857.5041666666704,
                        "value": 1
                    },
                    {
                        "number": 64,
                        "time": 858.0729166666705,
                        "value": 0.49606299212598426
                    },
                    {
                        "number": 64,
                        "time": 858.0812500000038,
                        "value": 0
                    },
                    {
                        "number": 64,
                        "time": 858.1958333333372,
                        "value": 0.49606299212598426
                    },
                    {
                        "number": 64,
                        "time": 858.1979166666705,
                        "value": 1
                    },
                    {
                        "number": 64,
                        "time": 859.9000000000038,
                        "value": 0.49606299212598426
                    },
                    {
                        "number": 64,
                        "time": 859.9104166666705,
                        "value": 0
                    },
                    {
                        "number": 64,
                        "time": 860.6479166666705,
                        "value": 1
                    },
                    {
                        "number": 64,
                        "time": 860.9166666666705,
                        "value": 0.49606299212598426
                    },
                    {
                        "number": 64,
                        "time": 860.9208333333372,
                        "value": 0
                    },
                    {
                        "number": 64,
                        "time": 861.6354166666705,
                        "value": 1
                    },
                    {
                        "number": 64,
                        "time": 862.0479166666705,
                        "value": 0.49606299212598426
                    },
                    {
                        "number": 64,
                        "time": 862.0583333333373,
                        "value": 0
                    },
                    {
                        "number": 64,
                        "time": 862.4041666666707,
                        "value": 1
                    },
                    {
                        "number": 64,
                        "time": 863.0437500000037,
                        "value": 0.49606299212598426
                    },
                    {
                        "number": 64,
                        "time": 863.0541666666703,
                        "value": 0
                    },
                    {
                        "number": 64,
                        "time": 863.1562500000038,
                        "value": 0.49606299212598426
                    },
                    {
                        "number": 64,
                        "time": 863.1625000000038,
                        "value": 1
                    },
                    {
                        "number": 64,
                        "time": 863.4979166666706,
                        "value": 0.49606299212598426
                    },
                    {
                        "number": 64,
                        "time": 863.5041666666706,
                        "value": 0
                    },
                    {
                        "number": 64,
                        "time": 863.8645833333375,
                        "value": 1
                    },
                    {
                        "number": 64,
                        "time": 864.2416666666708,
                        "value": 0.49606299212598426
                    },
                    {
                        "number": 64,
                        "time": 864.2437500000041,
                        "value": 0
                    },
                    {
                        "number": 64,
                        "time": 864.5916666666708,
                        "value": 1
                    },
                    {
                        "number": 64,
                        "time": 864.997916666671,
                        "value": 0.49606299212598426
                    },
                    {
                        "number": 64,
                        "time": 865.0020833333377,
                        "value": 0
                    },
                    {
                        "number": 64,
                        "time": 865.3333333333378,
                        "value": 1
                    },
                    {
                        "number": 64,
                        "time": 865.7500000000045,
                        "value": 0.49606299212598426
                    },
                    {
                        "number": 64,
                        "time": 865.7520833333379,
                        "value": 0
                    },
                    {
                        "number": 64,
                        "time": 866.0958333333377,
                        "value": 1
                    },
                    {
                        "number": 64,
                        "time": 867.7708333333379,
                        "value": 0.49606299212598426
                    },
                    {
                        "number": 64,
                        "time": 867.7812500000045,
                        "value": 0
                    },
                    {
                        "number": 64,
                        "time": 867.8979166666712,
                        "value": 0.49606299212598426
                    },
                    {
                        "number": 64,
                        "time": 867.9020833333379,
                        "value": 1
                    },
                    {
                        "number": 64,
                        "time": 869.4958333333382,
                        "value": 0.49606299212598426
                    },
                    {
                        "number": 64,
                        "time": 869.5062500000048,
                        "value": 0
                    },
                    {
                        "number": 64,
                        "time": 869.6395833333382,
                        "value": 1
                    },
                    {
                        "number": 64,
                        "time": 871.6500000000052,
                        "value": 0.49606299212598426
                    },
                    {
                        "number": 64,
                        "time": 871.6666666666719,
                        "value": 0
                    },
                    {
                        "number": 64,
                        "time": 872.0083333333386,
                        "value": 0.49606299212598426
                    },
                    {
                        "number": 64,
                        "time": 872.3083333333386,
                        "value": 0
                    },
                    {
                        "number": 64,
                        "time": 873.8354166666721,
                        "value": 1
                    },
                    {
                        "number": 64,
                        "time": 874.1187500000053,
                        "value": 0.49606299212598426
                    },
                    {
                        "number": 64,
                        "time": 874.122916666672,
                        "value": 0
                    },
                    {
                        "number": 64,
                        "time": 874.8770833333384,
                        "value": 0.49606299212598426
                    },
                    {
                        "number": 64,
                        "time": 874.8770833333384,
                        "value": 1
                    },
                    {
                        "number": 64,
                        "time": 875.2583333333386,
                        "value": 0.49606299212598426
                    },
                    {
                        "number": 64,
                        "time": 875.2687500000052,
                        "value": 0
                    },
                    {
                        "number": 64,
                        "time": 875.3770833333385,
                        "value": 0.49606299212598426
                    },
                    {
                        "number": 64,
                        "time": 875.3812500000051,
                        "value": 1
                    },
                    {
                        "number": 64,
                        "time": 875.579166666672,
                        "value": 0.49606299212598426
                    },
                    {
                        "number": 64,
                        "time": 875.5875000000053,
                        "value": 0
                    },
                    {
                        "number": 64,
                        "time": 875.916666666672,
                        "value": 0.49606299212598426
                    },
                    {
                        "number": 64,
                        "time": 875.9187500000053,
                        "value": 1
                    },
                    {
                        "number": 64,
                        "time": 876.0916666666719,
                        "value": 0.49606299212598426
                    },
                    {
                        "number": 64,
                        "time": 876.1020833333386,
                        "value": 0
                    },
                    {
                        "number": 64,
                        "time": 876.2354166666719,
                        "value": 0.49606299212598426
                    },
                    {
                        "number": 64,
                        "time": 876.2437500000052,
                        "value": 1
                    },
                    {
                        "number": 64,
                        "time": 876.4208333333387,
                        "value": 0.49606299212598426
                    },
                    {
                        "number": 64,
                        "time": 876.429166666672,
                        "value": 0
                    },
                    {
                        "number": 64,
                        "time": 876.554166666672,
                        "value": 0.49606299212598426
                    },
                    {
                        "number": 64,
                        "time": 876.5562500000053,
                        "value": 1
                    },
                    {
                        "number": 64,
                        "time": 876.8187500000053,
                        "value": 0.49606299212598426
                    },
                    {
                        "number": 64,
                        "time": 876.8250000000053,
                        "value": 0
                    },
                    {
                        "number": 64,
                        "time": 876.9333333333386,
                        "value": 0.49606299212598426
                    },
                    {
                        "number": 64,
                        "time": 876.9354166666719,
                        "value": 1
                    },
                    {
                        "number": 64,
                        "time": 877.210416666672,
                        "value": 0.49606299212598426
                    },
                    {
                        "number": 64,
                        "time": 877.2125000000053,
                        "value": 0
                    },
                    {
                        "number": 64,
                        "time": 877.3145833333385,
                        "value": 0.49606299212598426
                    },
                    {
                        "number": 64,
                        "time": 877.3166666666718,
                        "value": 1
                    },
                    {
                        "number": 64,
                        "time": 877.6500000000052,
                        "value": 0.49606299212598426
                    },
                    {
                        "number": 64,
                        "time": 877.6583333333385,
                        "value": 0
                    },
                    {
                        "number": 64,
                        "time": 877.7708333333385,
                        "value": 0.49606299212598426
                    },
                    {
                        "number": 64,
                        "time": 877.7729166666718,
                        "value": 1
                    },
                    {
                        "number": 64,
                        "time": 878.3458333333384,
                        "value": 0.49606299212598426
                    },
                    {
                        "number": 64,
                        "time": 878.3541666666719,
                        "value": 0
                    },
                    {
                        "number": 64,
                        "time": 878.4229166666719,
                        "value": 0.49606299212598426
                    },
                    {
                        "number": 64,
                        "time": 878.4291666666719,
                        "value": 1
                    },
                    {
                        "number": 64,
                        "time": 879.372916666672,
                        "value": 0.49606299212598426
                    },
                    {
                        "number": 64,
                        "time": 879.3812500000054,
                        "value": 0
                    },
                    {
                        "number": 64,
                        "time": 879.6958333333387,
                        "value": 1
                    },
                    {
                        "number": 64,
                        "time": 880.0020833333385,
                        "value": 0.49606299212598426
                    },
                    {
                        "number": 64,
                        "time": 880.0104166666719,
                        "value": 0
                    },
                    {
                        "number": 64,
                        "time": 880.2541666666718,
                        "value": 1
                    },
                    {
                        "number": 64,
                        "time": 881.027083333338,
                        "value": 0.49606299212598426
                    },
                    {
                        "number": 64,
                        "time": 881.0375000000047,
                        "value": 0
                    },
                    {
                        "number": 64,
                        "time": 881.4125000000046,
                        "value": 1
                    },
                    {
                        "number": 64,
                        "time": 882.1187500000046,
                        "value": 0.49606299212598426
                    },
                    {
                        "number": 64,
                        "time": 882.133333333338,
                        "value": 0
                    },
                    {
                        "number": 64,
                        "time": 882.4229166666714,
                        "value": 1
                    },
                    {
                        "number": 64,
                        "time": 883.3104166666715,
                        "value": 0.49606299212598426
                    },
                    {
                        "number": 64,
                        "time": 883.3229166666715,
                        "value": 0
                    },
                    {
                        "number": 64,
                        "time": 883.4770833333381,
                        "value": 0.49606299212598426
                    },
                    {
                        "number": 64,
                        "time": 883.4791666666714,
                        "value": 1
                    },
                    {
                        "number": 64,
                        "time": 884.4312500000048,
                        "value": 0.49606299212598426
                    },
                    {
                        "number": 64,
                        "time": 884.4416666666714,
                        "value": 0
                    },
                    {
                        "number": 64,
                        "time": 884.5541666666713,
                        "value": 0.49606299212598426
                    },
                    {
                        "number": 64,
                        "time": 884.5562500000046,
                        "value": 1
                    },
                    {
                        "number": 64,
                        "time": 885.5791666666713,
                        "value": 0.49606299212598426
                    },
                    {
                        "number": 64,
                        "time": 885.5895833333379,
                        "value": 0
                    },
                    {
                        "number": 64,
                        "time": 885.7520833333379,
                        "value": 1
                    },
                    {
                        "number": 64,
                        "time": 886.5729166666707,
                        "value": 0.49606299212598426
                    },
                    {
                        "number": 64,
                        "time": 886.5833333333374,
                        "value": 0
                    },
                    {
                        "number": 64,
                        "time": 886.7708333333374,
                        "value": 1
                    },
                    {
                        "number": 64,
                        "time": 887.5375000000037,
                        "value": 0.49606299212598426
                    },
                    {
                        "number": 64,
                        "time": 887.5479166666703,
                        "value": 0
                    },
                    {
                        "number": 64,
                        "time": 887.7666666666704,
                        "value": 1
                    },
                    {
                        "number": 64,
                        "time": 888.5229166666702,
                        "value": 0.49606299212598426
                    },
                    {
                        "number": 64,
                        "time": 888.5312500000035,
                        "value": 0
                    },
                    {
                        "number": 64,
                        "time": 888.7479166666701,
                        "value": 1
                    },
                    {
                        "number": 64,
                        "time": 889.6354166666699,
                        "value": 0.49606299212598426
                    },
                    {
                        "number": 64,
                        "time": 889.6500000000033,
                        "value": 0
                    },
                    {
                        "number": 64,
                        "time": 889.79166666667,
                        "value": 1
                    },
                    {
                        "number": 64,
                        "time": 890.3583333333366,
                        "value": 0.49606299212598426
                    },
                    {
                        "number": 64,
                        "time": 890.3687500000033,
                        "value": 0
                    },
                    {
                        "number": 64,
                        "time": 890.5187500000034,
                        "value": 1
                    },
                    {
                        "number": 64,
                        "time": 890.6854166666699,
                        "value": 0.49606299212598426
                    },
                    {
                        "number": 64,
                        "time": 890.6854166666699,
                        "value": 0
                    },
                    {
                        "number": 64,
                        "time": 890.8187500000032,
                        "value": 1
                    },
                    {
                        "number": 64,
                        "time": 891.6083333333366,
                        "value": 0.49606299212598426
                    },
                    {
                        "number": 64,
                        "time": 891.6187500000033,
                        "value": 0
                    },
                    {
                        "number": 64,
                        "time": 891.86041666667,
                        "value": 1
                    },
                    {
                        "number": 64,
                        "time": 892.2708333333366,
                        "value": 0.49606299212598426
                    },
                    {
                        "number": 64,
                        "time": 892.2791666666699,
                        "value": 0
                    },
                    {
                        "number": 64,
                        "time": 892.3354166666699,
                        "value": 0.49606299212598426
                    },
                    {
                        "number": 64,
                        "time": 892.3458333333365,
                        "value": 1
                    },
                    {
                        "number": 64,
                        "time": 892.7229166666698,
                        "value": 0.49606299212598426
                    },
                    {
                        "number": 64,
                        "time": 892.7291666666698,
                        "value": 0
                    },
                    {
                        "number": 64,
                        "time": 892.8645833333364,
                        "value": 0.49606299212598426
                    },
                    {
                        "number": 64,
                        "time": 892.8645833333364,
                        "value": 1
                    },
                    {
                        "number": 64,
                        "time": 893.8416666666699,
                        "value": 0.49606299212598426
                    },
                    {
                        "number": 64,
                        "time": 893.8520833333365,
                        "value": 0
                    },
                    {
                        "number": 64,
                        "time": 893.9770833333365,
                        "value": 0.49606299212598426
                    },
                    {
                        "number": 64,
                        "time": 893.9791666666698,
                        "value": 1
                    },
                    {
                        "number": 64,
                        "time": 894.8083333333367,
                        "value": 0.49606299212598426
                    },
                    {
                        "number": 64,
                        "time": 894.81041666667,
                        "value": 0
                    },
                    {
                        "number": 64,
                        "time": 894.97916666667,
                        "value": 1
                    },
                    {
                        "number": 64,
                        "time": 895.7104166666702,
                        "value": 0.49606299212598426
                    },
                    {
                        "number": 64,
                        "time": 895.7208333333368,
                        "value": 0
                    },
                    {
                        "number": 64,
                        "time": 895.9500000000033,
                        "value": 1
                    },
                    {
                        "number": 64,
                        "time": 896.7583333333367,
                        "value": 0.49606299212598426
                    },
                    {
                        "number": 64,
                        "time": 896.7687500000034,
                        "value": 0
                    },
                    {
                        "number": 64,
                        "time": 896.9437500000033,
                        "value": 1
                    },
                    {
                        "number": 64,
                        "time": 897.8708333333366,
                        "value": 0.49606299212598426
                    },
                    {
                        "number": 64,
                        "time": 897.8729166666699,
                        "value": 0
                    },
                    {
                        "number": 64,
                        "time": 898.0062500000032,
                        "value": 0.49606299212598426
                    },
                    {
                        "number": 64,
                        "time": 898.0083333333365,
                        "value": 1
                    },
                    {
                        "number": 64,
                        "time": 898.8916666666697,
                        "value": 0.49606299212598426
                    },
                    {
                        "number": 64,
                        "time": 898.9041666666698,
                        "value": 0
                    },
                    {
                        "number": 64,
                        "time": 898.9791666666697,
                        "value": 1
                    },
                    {
                        "number": 64,
                        "time": 899.7937500000029,
                        "value": 0.49606299212598426
                    },
                    {
                        "number": 64,
                        "time": 899.8041666666695,
                        "value": 0
                    },
                    {
                        "number": 64,
                        "time": 899.9958333333362,
                        "value": 1
                    },
                    {
                        "number": 64,
                        "time": 900.9958333333362,
                        "value": 0.49606299212598426
                    },
                    {
                        "number": 64,
                        "time": 901.0104166666696,
                        "value": 0
                    },
                    {
                        "number": 64,
                        "time": 901.1000000000029,
                        "value": 0.49606299212598426
                    },
                    {
                        "number": 64,
                        "time": 901.1041666666696,
                        "value": 1
                    },
                    {
                        "number": 64,
                        "time": 903.0666666666697,
                        "value": 0.49606299212598426
                    },
                    {
                        "number": 64,
                        "time": 903.0791666666697,
                        "value": 0
                    },
                    {
                        "number": 64,
                        "time": 903.1729166666697,
                        "value": 0.49606299212598426
                    },
                    {
                        "number": 64,
                        "time": 903.1770833333364,
                        "value": 1
                    },
                    {
                        "number": 64,
                        "time": 905.1020833333363,
                        "value": 0.49606299212598426
                    },
                    {
                        "number": 64,
                        "time": 905.1166666666696,
                        "value": 0
                    },
                    {
                        "number": 64,
                        "time": 905.2041666666697,
                        "value": 0.49606299212598426
                    },
                    {
                        "number": 64,
                        "time": 905.2083333333364,
                        "value": 1
                    },
                    {
                        "number": 64,
                        "time": 907.3645833333371,
                        "value": 0.49606299212598426
                    },
                    {
                        "number": 64,
                        "time": 907.3750000000038,
                        "value": 0
                    },
                    {
                        "number": 64,
                        "time": 907.4375000000038,
                        "value": 0.49606299212598426
                    },
                    {
                        "number": 64,
                        "time": 907.4520833333371,
                        "value": 1
                    },
                    {
                        "number": 64,
                        "time": 908.9583333333374,
                        "value": 0.49606299212598426
                    },
                    {
                        "number": 64,
                        "time": 908.9750000000041,
                        "value": 0
                    },
                    {
                        "number": 64,
                        "time": 909.0791666666707,
                        "value": 0.49606299212598426
                    },
                    {
                        "number": 64,
                        "time": 909.081250000004,
                        "value": 1
                    },
                    {
                        "number": 64,
                        "time": 909.9895833333375,
                        "value": 0.49606299212598426
                    },
                    {
                        "number": 64,
                        "time": 909.9916666666708,
                        "value": 0
                    },
                    {
                        "number": 64,
                        "time": 910.0916666666708,
                        "value": 0.49606299212598426
                    },
                    {
                        "number": 64,
                        "time": 910.0958333333375,
                        "value": 1
                    },
                    {
                        "number": 64,
                        "time": 910.9708333333376,
                        "value": 0.49606299212598426
                    },
                    {
                        "number": 64,
                        "time": 910.9833333333377,
                        "value": 0
                    },
                    {
                        "number": 64,
                        "time": 911.072916666671,
                        "value": 0.49606299212598426
                    },
                    {
                        "number": 64,
                        "time": 911.0750000000043,
                        "value": 1
                    },
                    {
                        "number": 64,
                        "time": 911.9812500000044,
                        "value": 0.49606299212598426
                    },
                    {
                        "number": 64,
                        "time": 911.9937500000044,
                        "value": 0
                    },
                    {
                        "number": 64,
                        "time": 912.1479166666711,
                        "value": 1
                    },
                    {
                        "number": 64,
                        "time": 913.3895833333378,
                        "value": 0.49606299212598426
                    },
                    {
                        "number": 64,
                        "time": 913.4000000000044,
                        "value": 0
                    },
                    {
                        "number": 64,
                        "time": 913.5000000000044,
                        "value": 0.49606299212598426
                    },
                    {
                        "number": 64,
                        "time": 913.5020833333377,
                        "value": 1
                    },
                    {
                        "number": 64,
                        "time": 915.7875000000048,
                        "value": 0.49606299212598426
                    },
                    {
                        "number": 64,
                        "time": 915.8062500000048,
                        "value": 0
                    },
                    {
                        "number": 64,
                        "time": 915.8750000000048,
                        "value": 0.49606299212598426
                    },
                    {
                        "number": 64,
                        "time": 915.8833333333381,
                        "value": 1
                    },
                    {
                        "number": 64,
                        "time": 916.112500000005,
                        "value": 0.49606299212598426
                    },
                    {
                        "number": 64,
                        "time": 916.118750000005,
                        "value": 0
                    },
                    {
                        "number": 64,
                        "time": 916.2083333333381,
                        "value": 0.49606299212598426
                    },
                    {
                        "number": 64,
                        "time": 916.2083333333381,
                        "value": 1
                    },
                    {
                        "number": 64,
                        "time": 917.4875000000046,
                        "value": 0.49606299212598426
                    },
                    {
                        "number": 64,
                        "time": 917.4937500000046,
                        "value": 0
                    },
                    {
                        "number": 64,
                        "time": 918.4875000000046,
                        "value": 0.49606299212598426
                    },
                    {
                        "number": 64,
                        "time": 918.4916666666713,
                        "value": 1
                    },
                    {
                        "number": 64,
                        "time": 918.8375000000048,
                        "value": 0.49606299212598426
                    },
                    {
                        "number": 64,
                        "time": 918.8500000000048,
                        "value": 0
                    },
                    {
                        "number": 64,
                        "time": 919.3291666666714,
                        "value": 1
                    },
                    {
                        "number": 64,
                        "time": 920.3625000000046,
                        "value": 0.49606299212598426
                    },
                    {
                        "number": 64,
                        "time": 920.3750000000047,
                        "value": 0
                    },
                    {
                        "number": 64,
                        "time": 920.5062500000046,
                        "value": 1
                    },
                    {
                        "number": 64,
                        "time": 923.202083333338,
                        "value": 0.49606299212598426
                    },
                    {
                        "number": 64,
                        "time": 923.2041666666713,
                        "value": 0
                    },
                    {
                        "number": 64,
                        "time": 923.3000000000047,
                        "value": 0.49606299212598426
                    },
                    {
                        "number": 64,
                        "time": 923.302083333338,
                        "value": 1
                    },
                    {
                        "number": 64,
                        "time": 925.6333333333379,
                        "value": 0.49606299212598426
                    },
                    {
                        "number": 64,
                        "time": 925.6458333333379,
                        "value": 0
                    },
                    {
                        "number": 64,
                        "time": 925.7125000000045,
                        "value": 0.49606299212598426
                    },
                    {
                        "number": 64,
                        "time": 925.7208333333379,
                        "value": 1
                    },
                    {
                        "number": 64,
                        "time": 926.1875000000043,
                        "value": 0.49606299212598426
                    },
                    {
                        "number": 64,
                        "time": 926.2312500000044,
                        "value": 1
                    },
                    {
                        "number": 64,
                        "time": 926.6229166666711,
                        "value": 0.49606299212598426
                    },
                    {
                        "number": 64,
                        "time": 926.6333333333378,
                        "value": 0
                    },
                    {
                        "number": 64,
                        "time": 926.6562500000044,
                        "value": 0.49606299212598426
                    },
                    {
                        "number": 64,
                        "time": 926.6729166666711,
                        "value": 1
                    },
                    {
                        "number": 64,
                        "time": 927.1416666666711,
                        "value": 0.49606299212598426
                    },
                    {
                        "number": 64,
                        "time": 927.1500000000044,
                        "value": 0
                    },
                    {
                        "number": 64,
                        "time": 927.2062500000045,
                        "value": 0.49606299212598426
                    },
                    {
                        "number": 64,
                        "time": 927.2145833333378,
                        "value": 1
                    },
                    {
                        "number": 64,
                        "time": 928.5833333333378,
                        "value": 0.49606299212598426
                    },
                    {
                        "number": 64,
                        "time": 928.6208333333378,
                        "value": 1
                    },
                    {
                        "number": 64,
                        "time": 929.0625000000045,
                        "value": 0.49606299212598426
                    },
                    {
                        "number": 64,
                        "time": 929.0729166666712,
                        "value": 0
                    },
                    {
                        "number": 64,
                        "time": 929.1083333333379,
                        "value": 0.49606299212598426
                    },
                    {
                        "number": 64,
                        "time": 929.1208333333379,
                        "value": 1
                    },
                    {
                        "number": 64,
                        "time": 929.6416666666711,
                        "value": 0.49606299212598426
                    },
                    {
                        "number": 64,
                        "time": 929.6562500000044,
                        "value": 0
                    },
                    {
                        "number": 64,
                        "time": 930.0666666666712,
                        "value": 1
                    },
                    {
                        "number": 64,
                        "time": 931.1354166666714,
                        "value": 0.49606299212598426
                    },
                    {
                        "number": 64,
                        "time": 931.1416666666714,
                        "value": 0
                    },
                    {
                        "number": 64,
                        "time": 931.2604166666714,
                        "value": 0.49606299212598426
                    },
                    {
                        "number": 64,
                        "time": 931.2625000000047,
                        "value": 1
                    },
                    {
                        "number": 64,
                        "time": 931.4229166666713,
                        "value": 0.49606299212598426
                    },
                    {
                        "number": 64,
                        "time": 931.4333333333379,
                        "value": 0
                    },
                    {
                        "number": 64,
                        "time": 931.4875000000046,
                        "value": 0.49606299212598426
                    },
                    {
                        "number": 64,
                        "time": 931.4916666666713,
                        "value": 1
                    },
                    {
                        "number": 64,
                        "time": 934.7895833333381,
                        "value": 0.49606299212598426
                    },
                    {
                        "number": 64,
                        "time": 934.7937500000048,
                        "value": 0
                    },
                    {
                        "number": 64,
                        "time": 935.5208333333381,
                        "value": 1
                    },
                    {
                        "number": 64,
                        "time": 936.4166666666714,
                        "value": 0.49606299212598426
                    },
                    {
                        "number": 64,
                        "time": 936.4229166666714,
                        "value": 0
                    },
                    {
                        "number": 64,
                        "time": 936.6562500000048,
                        "value": 0.49606299212598426
                    },
                    {
                        "number": 64,
                        "time": 936.6604166666715,
                        "value": 1
                    },
                    {
                        "number": 64,
                        "time": 942.5708333333372,
                        "value": 0.49606299212598426
                    },
                    {
                        "number": 64,
                        "time": 942.5750000000039,
                        "value": 0
                    },
                    {
                        "number": 64,
                        "time": 942.6875000000039,
                        "value": 0.49606299212598426
                    },
                    {
                        "number": 64,
                        "time": 942.6875000000039,
                        "value": 1
                    },
                    {
                        "number": 64,
                        "time": 948.281250000004,
                        "value": 0.49606299212598426
                    },
                    {
                        "number": 64,
                        "time": 948.293750000004,
                        "value": 0
                    },
                    {
                        "number": 64,
                        "time": 948.3979166666707,
                        "value": 0.49606299212598426
                    },
                    {
                        "number": 64,
                        "time": 948.3979166666707,
                        "value": 1
                    },
                    {
                        "number": 64,
                        "time": 949.2395833333374,
                        "value": 0.49606299212598426
                    },
                    {
                        "number": 64,
                        "time": 949.2479166666707,
                        "value": 1
                    }
                ],
                "91": [
                    {
                        "number": 91,
                        "time": 1.3312499999999998,
                        "value": 0.5039370078740157
                    }
                ],
                "98": [
                    {
                        "number": 98,
                        "time": 1.4354166666666666,
                        "value": 0.25196850393700787
                    },
                    {
                        "number": 98,
                        "time": 1.4479166666666665,
                        "value": 0.25984251968503935
                    },
                    {
                        "number": 98,
                        "time": 1.4604166666666665,
                        "value": 0.7795275590551181
                    },
                    {
                        "number": 98,
                        "time": 1.4729166666666664,
                        "value": 0.7874015748031497
                    },
                    {
                        "number": 98,
                        "time": 1.4854166666666664,
                        "value": 0.8031496062992126
                    }
                ],
                "99": [
                    {
                        "number": 99,
                        "time": 1.43125,
                        "value": 0.007874015748031496
                    },
                    {
                        "number": 99,
                        "time": 1.4437499999999999,
                        "value": 0.007874015748031496
                    },
                    {
                        "number": 99,
                        "time": 1.4562499999999998,
                        "value": 0.007874015748031496
                    },
                    {
                        "number": 99,
                        "time": 1.4687499999999998,
                        "value": 0.007874015748031496
                    },
                    {
                        "number": 99,
                        "time": 1.4812499999999997,
                        "value": 0.007874015748031496
                    }
                ]
            },
            "id": 2,
            "name": "PIANOi±«j",
            "instrumentNumber": 0,
            "instrument": "acoustic grand piano",
            "instrumentFamily": "piano",
            "channelNumber": 0,
            "isPercussion": false
        },
        {
            "startTime": 0,
            "duration": 0,
            "length": 0,
            "notes": [],
            "controlChanges": {},
            "id": 3
        }
    ]
}