{
    "header": {
        "PPQ": 480,
        "timeSignature": [
            7,
            4
        ],
        "bpm": 96,
        "name": "gershwin an american in paris part1 of 4"
    },
    "startTime": 0,
    "duration": 91.875,
    "tracks": [
        {
            "startTime": 0,
            "duration": 0,
            "length": 0,
            "notes": [],
            "controlChanges": {},
            "id": 0,
            "name": "gershwin an american in paris part1 of 4"
        },
        {
            "startTime": 0.546875,
            "duration": 86.74869791666667,
            "length": 291,
            "notes": [
                {
                    "name": "B4",
                    "midi": 71,
                    "time": 0.546875,
                    "velocity": 0.4881889763779528,
                    "duration": 0.078125
                },
                {
                    "name": "C5",
                    "midi": 72,
                    "time": 0.625,
                    "velocity": 0.4881889763779528,
                    "duration": 0.06119791666666663
                },
                {
                    "name": "D4",
                    "midi": 62,
                    "time": 0.9375,
                    "velocity": 0.4881889763779528,
                    "duration": 0.06119791666666663
                },
                {
                    "name": "E4",
                    "midi": 64,
                    "time": 1.25,
                    "velocity": 0.6929133858267716,
                    "duration": 0.625
                },
                {
                    "name": "B4",
                    "midi": 71,
                    "time": 1.796875,
                    "velocity": 0.4881889763779528,
                    "duration": 0.078125
                },
                {
                    "name": "C5",
                    "midi": 72,
                    "time": 1.875,
                    "velocity": 0.4881889763779528,
                    "duration": 0.06119791666666674
                },
                {
                    "name": "D4",
                    "midi": 62,
                    "time": 2.1875,
                    "velocity": 0.4881889763779528,
                    "duration": 0.06119791666666652
                },
                {
                    "name": "E4",
                    "midi": 64,
                    "time": 2.5,
                    "velocity": 0.6929133858267716,
                    "duration": 0.625
                },
                {
                    "name": "B4",
                    "midi": 71,
                    "time": 3.046875,
                    "velocity": 0.4881889763779528,
                    "duration": 0.078125
                },
                {
                    "name": "C5",
                    "midi": 72,
                    "time": 3.125,
                    "velocity": 0.4881889763779528,
                    "duration": 0.06119791666666652
                },
                {
                    "name": "D4",
                    "midi": 62,
                    "time": 3.4375,
                    "velocity": 0.4881889763779528,
                    "duration": 0.06119791666666652
                },
                {
                    "name": "E4",
                    "midi": 64,
                    "time": 3.75,
                    "velocity": 0.4881889763779528,
                    "duration": 0.06119791666666652
                },
                {
                    "name": "D5",
                    "midi": 74,
                    "time": 4.0625,
                    "velocity": 0.4881889763779528,
                    "duration": 0.3125
                },
                {
                    "name": "C5",
                    "midi": 72,
                    "time": 4.375,
                    "velocity": 0.4881889763779528,
                    "duration": 0.06119791666666696
                },
                {
                    "name": "C4",
                    "midi": 60,
                    "time": 4.6875,
                    "velocity": 0.4881889763779528,
                    "duration": 0.15625
                },
                {
                    "name": "D4",
                    "midi": 62,
                    "time": 4.84375,
                    "velocity": 0.4881889763779528,
                    "duration": 0.15625
                },
                {
                    "name": "E4",
                    "midi": 64,
                    "time": 5,
                    "velocity": 0.6929133858267716,
                    "duration": 0.625
                },
                {
                    "name": "B4",
                    "midi": 71,
                    "time": 5.546875,
                    "velocity": 0.4881889763779528,
                    "duration": 0.078125
                },
                {
                    "name": "C5",
                    "midi": 72,
                    "time": 5.625,
                    "velocity": 0.4881889763779528,
                    "duration": 0.06119791666666696
                },
                {
                    "name": "D4",
                    "midi": 62,
                    "time": 5.9375,
                    "velocity": 0.4881889763779528,
                    "duration": 0.3125
                },
                {
                    "name": "E4",
                    "midi": 64,
                    "time": 6.25,
                    "velocity": 0.6929133858267716,
                    "duration": 0.625
                },
                {
                    "name": "B4",
                    "midi": 71,
                    "time": 6.796875,
                    "velocity": 0.4881889763779528,
                    "duration": 0.078125
                },
                {
                    "name": "C5",
                    "midi": 72,
                    "time": 6.875,
                    "velocity": 0.4881889763779528,
                    "duration": 0.06119791666666696
                },
                {
                    "name": "D4",
                    "midi": 62,
                    "time": 7.1875,
                    "velocity": 0.4881889763779528,
                    "duration": 0.06119791666666696
                },
                {
                    "name": "E4",
                    "midi": 64,
                    "time": 7.5,
                    "velocity": 0.6929133858267716,
                    "duration": 0.3125
                },
                {
                    "name": "D5",
                    "midi": 74,
                    "time": 7.8125,
                    "velocity": 0.4881889763779528,
                    "duration": 0.3125
                },
                {
                    "name": "E5",
                    "midi": 76,
                    "time": 8.125,
                    "velocity": 0.4881889763779528,
                    "duration": 0.029947916666666075
                },
                {
                    "name": "E5",
                    "midi": 76,
                    "time": 8.28125,
                    "velocity": 0.4881889763779528,
                    "duration": 0.029947916666666075
                },
                {
                    "name": "E5",
                    "midi": 76,
                    "time": 8.4375,
                    "velocity": 0.5905511811023622,
                    "duration": 0.029947916666666075
                },
                {
                    "name": "E5",
                    "midi": 76,
                    "time": 8.59375,
                    "velocity": 0.5905511811023622,
                    "duration": 0.029947916666666075
                },
                {
                    "name": "E5",
                    "midi": 76,
                    "time": 8.75,
                    "velocity": 0.5905511811023622,
                    "duration": 0.061197916666666075
                },
                {
                    "name": "A5",
                    "midi": 81,
                    "time": 9.0625,
                    "velocity": 0.5905511811023622,
                    "duration": 0.061197916666666075
                },
                {
                    "name": "G5",
                    "midi": 79,
                    "time": 9.375,
                    "velocity": 0.7952755905511811,
                    "duration": 0.625
                },
                {
                    "name": "F5",
                    "midi": 77,
                    "time": 10,
                    "velocity": 0.5905511811023622,
                    "duration": 1.25
                },
                {
                    "name": "G4",
                    "midi": 67,
                    "time": 10.625,
                    "velocity": 0.7952755905511811,
                    "duration": 0.625
                },
                {
                    "name": "F4",
                    "midi": 65,
                    "time": 11.25,
                    "velocity": 0.5905511811023622,
                    "duration": 0.3125
                },
                {
                    "name": "D#4",
                    "midi": 63,
                    "time": 11.5625,
                    "velocity": 0.5905511811023622,
                    "duration": 0.15625
                },
                {
                    "name": "C#4",
                    "midi": 61,
                    "time": 11.71875,
                    "velocity": 0.5905511811023622,
                    "duration": 0.15625
                },
                {
                    "name": "C4",
                    "midi": 60,
                    "time": 11.875,
                    "velocity": 0.7952755905511811,
                    "duration": 1.25
                },
                {
                    "name": "B4",
                    "midi": 71,
                    "time": 14.296875,
                    "velocity": 0.4881889763779528,
                    "duration": 0.078125
                },
                {
                    "name": "C5",
                    "midi": 72,
                    "time": 14.375,
                    "velocity": 0.4881889763779528,
                    "duration": 0.061197916666666075
                },
                {
                    "name": "D4",
                    "midi": 62,
                    "time": 14.6875,
                    "velocity": 0.4881889763779528,
                    "duration": 0.061197916666666075
                },
                {
                    "name": "E4",
                    "midi": 64,
                    "time": 15,
                    "velocity": 0.6929133858267716,
                    "duration": 0.625
                },
                {
                    "name": "B4",
                    "midi": 71,
                    "time": 15.546875,
                    "velocity": 0.4881889763779528,
                    "duration": 0.078125
                },
                {
                    "name": "C5",
                    "midi": 72,
                    "time": 15.625,
                    "velocity": 0.4881889763779528,
                    "duration": 0.061197916666666075
                },
                {
                    "name": "D4",
                    "midi": 62,
                    "time": 15.9375,
                    "velocity": 0.4881889763779528,
                    "duration": 0.061197916666666075
                },
                {
                    "name": "E4",
                    "midi": 64,
                    "time": 16.25,
                    "velocity": 0.6929133858267716,
                    "duration": 0.625
                },
                {
                    "name": "B4",
                    "midi": 71,
                    "time": 16.796875,
                    "velocity": 0.4881889763779528,
                    "duration": 0.078125
                },
                {
                    "name": "C5",
                    "midi": 72,
                    "time": 16.875,
                    "velocity": 0.4881889763779528,
                    "duration": 0.06119791666666785
                },
                {
                    "name": "D4",
                    "midi": 62,
                    "time": 17.1875,
                    "velocity": 0.4881889763779528,
                    "duration": 0.06119791666666785
                },
                {
                    "name": "E4",
                    "midi": 64,
                    "time": 17.5,
                    "velocity": 0.4881889763779528,
                    "duration": 0.06119791666666785
                },
                {
                    "name": "D5",
                    "midi": 74,
                    "time": 17.8125,
                    "velocity": 0.4881889763779528,
                    "duration": 0.3125
                },
                {
                    "name": "C5",
                    "midi": 72,
                    "time": 18.125,
                    "velocity": 0.4881889763779528,
                    "duration": 0.06119791666666785
                },
                {
                    "name": "C4",
                    "midi": 60,
                    "time": 18.4375,
                    "velocity": 0.4881889763779528,
                    "duration": 0.15625
                },
                {
                    "name": "D4",
                    "midi": 62,
                    "time": 18.59375,
                    "velocity": 0.4881889763779528,
                    "duration": 0.15625
                },
                {
                    "name": "E4",
                    "midi": 64,
                    "time": 18.75,
                    "velocity": 0.6929133858267716,
                    "duration": 0.625
                },
                {
                    "name": "B4",
                    "midi": 71,
                    "time": 19.296875,
                    "velocity": 0.4881889763779528,
                    "duration": 0.078125
                },
                {
                    "name": "C5",
                    "midi": 72,
                    "time": 19.375,
                    "velocity": 0.4881889763779528,
                    "duration": 0.06119791666666785
                },
                {
                    "name": "D4",
                    "midi": 62,
                    "time": 19.6875,
                    "velocity": 0.4881889763779528,
                    "duration": 0.3125
                },
                {
                    "name": "E4",
                    "midi": 64,
                    "time": 20,
                    "velocity": 0.6929133858267716,
                    "duration": 0.625
                },
                {
                    "name": "B4",
                    "midi": 71,
                    "time": 20.546875,
                    "velocity": 0.4881889763779528,
                    "duration": 0.078125
                },
                {
                    "name": "C5",
                    "midi": 72,
                    "time": 20.625,
                    "velocity": 0.4881889763779528,
                    "duration": 0.06119791666666785
                },
                {
                    "name": "D4",
                    "midi": 62,
                    "time": 20.9375,
                    "velocity": 0.4881889763779528,
                    "duration": 0.06119791666666785
                },
                {
                    "name": "E4",
                    "midi": 64,
                    "time": 21.25,
                    "velocity": 0.4881889763779528,
                    "duration": 0.06119791666666785
                },
                {
                    "name": "D5",
                    "midi": 74,
                    "time": 21.5625,
                    "velocity": 0.4881889763779528,
                    "duration": 0.06119791666666785
                },
                {
                    "name": "E5",
                    "midi": 76,
                    "time": 21.875,
                    "velocity": 0.4881889763779528,
                    "duration": 0.02994791666666785
                },
                {
                    "name": "E5",
                    "midi": 76,
                    "time": 22.03125,
                    "velocity": 0.4881889763779528,
                    "duration": 0.02994791666666785
                },
                {
                    "name": "E5",
                    "midi": 76,
                    "time": 22.1875,
                    "velocity": 0.5905511811023622,
                    "duration": 0.02994791666666785
                },
                {
                    "name": "E5",
                    "midi": 76,
                    "time": 22.34375,
                    "velocity": 0.5905511811023622,
                    "duration": 0.02994791666666785
                },
                {
                    "name": "E5",
                    "midi": 76,
                    "time": 22.5,
                    "velocity": 0.5905511811023622,
                    "duration": 0.06119791666666785
                },
                {
                    "name": "A5",
                    "midi": 81,
                    "time": 22.8125,
                    "velocity": 0.5905511811023622,
                    "duration": 0.06119791666666785
                },
                {
                    "name": "G5",
                    "midi": 79,
                    "time": 23.125,
                    "velocity": 0.7952755905511811,
                    "duration": 0.625
                },
                {
                    "name": "F5",
                    "midi": 77,
                    "time": 23.75,
                    "velocity": 0.5905511811023622,
                    "duration": 1.875
                },
                {
                    "name": "D#4",
                    "midi": 63,
                    "time": 25.625,
                    "velocity": 0.6929133858267716,
                    "duration": 0.15625
                },
                {
                    "name": "D#4",
                    "midi": 63,
                    "time": 25.78125,
                    "velocity": 0.6929133858267716,
                    "duration": 0.15625
                },
                {
                    "name": "D#4",
                    "midi": 63,
                    "time": 25.9375,
                    "velocity": 0.6929133858267716,
                    "duration": 0.15625
                },
                {
                    "name": "D#4",
                    "midi": 63,
                    "time": 26.09375,
                    "velocity": 0.6929133858267716,
                    "duration": 0.15625
                },
                {
                    "name": "F4",
                    "midi": 65,
                    "time": 26.25,
                    "velocity": 0.6929133858267716,
                    "duration": 0.06119791666666785
                },
                {
                    "name": "D#4",
                    "midi": 63,
                    "time": 26.5625,
                    "velocity": 0.4881889763779528,
                    "duration": 0.06119791666666785
                },
                {
                    "name": "F4",
                    "midi": 65,
                    "time": 26.875,
                    "velocity": 0.4881889763779528,
                    "duration": 1.25
                },
                {
                    "name": "D#3",
                    "midi": 51,
                    "time": 28.125,
                    "velocity": 0.6929133858267716,
                    "duration": 0.02994791666666785
                },
                {
                    "name": "D#3",
                    "midi": 51,
                    "time": 28.28125,
                    "velocity": 0.4881889763779528,
                    "duration": 0.02994791666666785
                },
                {
                    "name": "D#3",
                    "midi": 51,
                    "time": 28.4375,
                    "velocity": 0.4881889763779528,
                    "duration": 0.02994791666666785
                },
                {
                    "name": "D#3",
                    "midi": 51,
                    "time": 28.59375,
                    "velocity": 0.4881889763779528,
                    "duration": 0.02994791666666785
                },
                {
                    "name": "F3",
                    "midi": 53,
                    "time": 28.75,
                    "velocity": 0.6929133858267716,
                    "duration": 0.06119791666666785
                },
                {
                    "name": "D#3",
                    "midi": 51,
                    "time": 29.0625,
                    "velocity": 0.4881889763779528,
                    "duration": 0.06119791666666785
                },
                {
                    "name": "F4",
                    "midi": 65,
                    "time": 29.375,
                    "velocity": 0.4881889763779528,
                    "duration": 0.02994791666666785
                },
                {
                    "name": "F4",
                    "midi": 65,
                    "time": 29.53125,
                    "velocity": 0.4881889763779528,
                    "duration": 0.02994791666666785
                },
                {
                    "name": "F4",
                    "midi": 65,
                    "time": 29.6875,
                    "velocity": 0.5905511811023622,
                    "duration": 0.02994791666666785
                },
                {
                    "name": "F4",
                    "midi": 65,
                    "time": 29.84375,
                    "velocity": 0.5905511811023622,
                    "duration": 0.02994791666666785
                },
                {
                    "name": "G4",
                    "midi": 67,
                    "time": 30,
                    "velocity": 0.7952755905511811,
                    "duration": 0.06119791666666785
                },
                {
                    "name": "C5",
                    "midi": 72,
                    "time": 30,
                    "velocity": 0.7952755905511811,
                    "duration": 0.06119791666666785
                },
                {
                    "name": "C4",
                    "midi": 60,
                    "time": 30.3125,
                    "velocity": 0.4881889763779528,
                    "duration": 0.02994791666666785
                },
                {
                    "name": "C4",
                    "midi": 60,
                    "time": 30.46875,
                    "velocity": 0.4881889763779528,
                    "duration": 0.02994791666666785
                },
                {
                    "name": "C4",
                    "midi": 60,
                    "time": 30.625,
                    "velocity": 0.5905511811023622,
                    "duration": 0.02994791666666785
                },
                {
                    "name": "C4",
                    "midi": 60,
                    "time": 30.78125,
                    "velocity": 0.5905511811023622,
                    "duration": 0.02994791666666785
                },
                {
                    "name": "D4",
                    "midi": 62,
                    "time": 30.9375,
                    "velocity": 0.7952755905511811,
                    "duration": 0.06119791666666785
                },
                {
                    "name": "A4",
                    "midi": 69,
                    "time": 30.9375,
                    "velocity": 0.7952755905511811,
                    "duration": 0.06119791666666785
                },
                {
                    "name": "C#4",
                    "midi": 61,
                    "time": 35,
                    "velocity": 0.7952755905511811,
                    "duration": 0.625
                },
                {
                    "name": "D#4",
                    "midi": 63,
                    "time": 35.625,
                    "velocity": 0.7952755905511811,
                    "duration": 0.625
                },
                {
                    "name": "C#4",
                    "midi": 61,
                    "time": 36.25,
                    "velocity": 0.7952755905511811,
                    "duration": 0.625
                },
                {
                    "name": "G4",
                    "midi": 67,
                    "time": 36.875,
                    "velocity": 0.7952755905511811,
                    "duration": 0.3125
                },
                {
                    "name": "G4",
                    "midi": 67,
                    "time": 37.1875,
                    "velocity": 0.7952755905511811,
                    "duration": 0.3125
                },
                {
                    "name": "G4",
                    "midi": 67,
                    "time": 37.5,
                    "velocity": 0.7952755905511811,
                    "duration": 0.3125
                },
                {
                    "name": "C#4",
                    "midi": 61,
                    "time": 37.8125,
                    "velocity": 0.7952755905511811,
                    "duration": 0.3125
                },
                {
                    "name": "D#4",
                    "midi": 63,
                    "time": 38.125,
                    "velocity": 0.5905511811023622,
                    "duration": 0.625
                },
                {
                    "name": "C#4",
                    "midi": 61,
                    "time": 38.75,
                    "velocity": 0.5905511811023622,
                    "duration": 0.625
                },
                {
                    "name": "C#4",
                    "midi": 61,
                    "time": 39.6875,
                    "velocity": 0.6929133858267716,
                    "duration": 0.15625
                },
                {
                    "name": "D#4",
                    "midi": 63,
                    "time": 39.6875,
                    "velocity": 0.6929133858267716,
                    "duration": 0.15625
                },
                {
                    "name": "G#4",
                    "midi": 68,
                    "time": 39.6875,
                    "velocity": 0.6929133858267716,
                    "duration": 0.15625
                },
                {
                    "name": "A3",
                    "midi": 57,
                    "time": 39.84375,
                    "velocity": 0.6929133858267716,
                    "duration": 0.15625
                },
                {
                    "name": "G#3",
                    "midi": 56,
                    "time": 40.3125,
                    "velocity": 0.6929133858267716,
                    "duration": 0.0611979166666643
                },
                {
                    "name": "D4",
                    "midi": 62,
                    "time": 40.3125,
                    "velocity": 0.6929133858267716,
                    "duration": 0.0611979166666643
                },
                {
                    "name": "E4",
                    "midi": 64,
                    "time": 40.3125,
                    "velocity": 0.6929133858267716,
                    "duration": 0.0611979166666643
                },
                {
                    "name": "A4",
                    "midi": 69,
                    "time": 40.3125,
                    "velocity": 0.6929133858267716,
                    "duration": 0.0611979166666643
                },
                {
                    "name": "A#3",
                    "midi": 58,
                    "time": 40.9375,
                    "velocity": 0.6929133858267716,
                    "duration": 0.0611979166666643
                },
                {
                    "name": "D#4",
                    "midi": 63,
                    "time": 40.9375,
                    "velocity": 0.6929133858267716,
                    "duration": 0.0611979166666643
                },
                {
                    "name": "F4",
                    "midi": 65,
                    "time": 40.9375,
                    "velocity": 0.6929133858267716,
                    "duration": 0.0611979166666643
                },
                {
                    "name": "A#4",
                    "midi": 70,
                    "time": 40.9375,
                    "velocity": 0.6929133858267716,
                    "duration": 0.0611979166666643
                },
                {
                    "name": "C#4",
                    "midi": 61,
                    "time": 41.5625,
                    "velocity": 0.6929133858267716,
                    "duration": 0.15625
                },
                {
                    "name": "D#4",
                    "midi": 63,
                    "time": 41.5625,
                    "velocity": 0.6929133858267716,
                    "duration": 0.15625
                },
                {
                    "name": "G#4",
                    "midi": 68,
                    "time": 41.5625,
                    "velocity": 0.6929133858267716,
                    "duration": 0.15625
                },
                {
                    "name": "A3",
                    "midi": 57,
                    "time": 41.71875,
                    "velocity": 0.6929133858267716,
                    "duration": 0.15625
                },
                {
                    "name": "G#3",
                    "midi": 56,
                    "time": 42.1875,
                    "velocity": 0.6929133858267716,
                    "duration": 0.0611979166666643
                },
                {
                    "name": "D4",
                    "midi": 62,
                    "time": 42.1875,
                    "velocity": 0.6929133858267716,
                    "duration": 0.0611979166666643
                },
                {
                    "name": "E4",
                    "midi": 64,
                    "time": 42.1875,
                    "velocity": 0.6929133858267716,
                    "duration": 0.0611979166666643
                },
                {
                    "name": "A4",
                    "midi": 69,
                    "time": 42.1875,
                    "velocity": 0.6929133858267716,
                    "duration": 0.0611979166666643
                },
                {
                    "name": "A#3",
                    "midi": 58,
                    "time": 42.8125,
                    "velocity": 0.6929133858267716,
                    "duration": 0.0611979166666643
                },
                {
                    "name": "D#4",
                    "midi": 63,
                    "time": 42.8125,
                    "velocity": 0.6929133858267716,
                    "duration": 0.0611979166666643
                },
                {
                    "name": "F4",
                    "midi": 65,
                    "time": 42.8125,
                    "velocity": 0.6929133858267716,
                    "duration": 0.0611979166666643
                },
                {
                    "name": "A#4",
                    "midi": 70,
                    "time": 42.8125,
                    "velocity": 0.6929133858267716,
                    "duration": 0.0611979166666643
                },
                {
                    "name": "C#4",
                    "midi": 61,
                    "time": 43.4375,
                    "velocity": 0.6929133858267716,
                    "duration": 0.15625
                },
                {
                    "name": "D#4",
                    "midi": 63,
                    "time": 43.4375,
                    "velocity": 0.6929133858267716,
                    "duration": 0.15625
                },
                {
                    "name": "G#4",
                    "midi": 68,
                    "time": 43.4375,
                    "velocity": 0.6929133858267716,
                    "duration": 0.15625
                },
                {
                    "name": "A3",
                    "midi": 57,
                    "time": 43.59375,
                    "velocity": 0.6929133858267716,
                    "duration": 0.15625
                },
                {
                    "name": "G#3",
                    "midi": 56,
                    "time": 44.0625,
                    "velocity": 0.6929133858267716,
                    "duration": 0.0611979166666643
                },
                {
                    "name": "D4",
                    "midi": 62,
                    "time": 44.0625,
                    "velocity": 0.6929133858267716,
                    "duration": 0.0611979166666643
                },
                {
                    "name": "E4",
                    "midi": 64,
                    "time": 44.0625,
                    "velocity": 0.6929133858267716,
                    "duration": 0.0611979166666643
                },
                {
                    "name": "A4",
                    "midi": 69,
                    "time": 44.0625,
                    "velocity": 0.6929133858267716,
                    "duration": 0.0611979166666643
                },
                {
                    "name": "C#4",
                    "midi": 61,
                    "time": 45,
                    "velocity": 0.7952755905511811,
                    "duration": 0.625
                },
                {
                    "name": "D#4",
                    "midi": 63,
                    "time": 45.625,
                    "velocity": 0.7952755905511811,
                    "duration": 0.625
                },
                {
                    "name": "C#4",
                    "midi": 61,
                    "time": 46.25,
                    "velocity": 0.7952755905511811,
                    "duration": 0.625
                },
                {
                    "name": "A4",
                    "midi": 69,
                    "time": 46.875,
                    "velocity": 0.7952755905511811,
                    "duration": 0.3125
                },
                {
                    "name": "A4",
                    "midi": 69,
                    "time": 47.1875,
                    "velocity": 0.7952755905511811,
                    "duration": 0.3125
                },
                {
                    "name": "A4",
                    "midi": 69,
                    "time": 47.5,
                    "velocity": 0.7952755905511811,
                    "duration": 0.3125
                },
                {
                    "name": "C#4",
                    "midi": 61,
                    "time": 47.8125,
                    "velocity": 0.7952755905511811,
                    "duration": 0.3125
                },
                {
                    "name": "D#4",
                    "midi": 63,
                    "time": 48.125,
                    "velocity": 0.5905511811023622,
                    "duration": 0.625
                },
                {
                    "name": "C#4",
                    "midi": 61,
                    "time": 48.75,
                    "velocity": 0.5905511811023622,
                    "duration": 0.625
                },
                {
                    "name": "B3",
                    "midi": 59,
                    "time": 49.6875,
                    "velocity": 0.5905511811023622,
                    "duration": 0.0611979166666643
                },
                {
                    "name": "F4",
                    "midi": 65,
                    "time": 49.6875,
                    "velocity": 0.5905511811023622,
                    "duration": 0.0611979166666643
                },
                {
                    "name": "B3",
                    "midi": 59,
                    "time": 50.3125,
                    "velocity": 0.5905511811023622,
                    "duration": 0.0611979166666643
                },
                {
                    "name": "F4",
                    "midi": 65,
                    "time": 50.3125,
                    "velocity": 0.5905511811023622,
                    "duration": 0.0611979166666643
                },
                {
                    "name": "B3",
                    "midi": 59,
                    "time": 50.9375,
                    "velocity": 0.5905511811023622,
                    "duration": 0.0611979166666643
                },
                {
                    "name": "F4",
                    "midi": 65,
                    "time": 50.9375,
                    "velocity": 0.5905511811023622,
                    "duration": 0.0611979166666643
                },
                {
                    "name": "B3",
                    "midi": 59,
                    "time": 51.5625,
                    "velocity": 0.5905511811023622,
                    "duration": 0.0611979166666643
                },
                {
                    "name": "F4",
                    "midi": 65,
                    "time": 51.5625,
                    "velocity": 0.5905511811023622,
                    "duration": 0.0611979166666643
                },
                {
                    "name": "B3",
                    "midi": 59,
                    "time": 52.1875,
                    "velocity": 0.5905511811023622,
                    "duration": 0.0611979166666643
                },
                {
                    "name": "F4",
                    "midi": 65,
                    "time": 52.1875,
                    "velocity": 0.5905511811023622,
                    "duration": 0.0611979166666643
                },
                {
                    "name": "B3",
                    "midi": 59,
                    "time": 52.8125,
                    "velocity": 0.5905511811023622,
                    "duration": 0.0611979166666643
                },
                {
                    "name": "F4",
                    "midi": 65,
                    "time": 52.8125,
                    "velocity": 0.5905511811023622,
                    "duration": 0.0611979166666643
                },
                {
                    "name": "B3",
                    "midi": 59,
                    "time": 53.4375,
                    "velocity": 0.5905511811023622,
                    "duration": 0.0611979166666643
                },
                {
                    "name": "F4",
                    "midi": 65,
                    "time": 53.4375,
                    "velocity": 0.5905511811023622,
                    "duration": 0.0611979166666643
                },
                {
                    "name": "B3",
                    "midi": 59,
                    "time": 54.0625,
                    "velocity": 0.5905511811023622,
                    "duration": 0.0611979166666643
                },
                {
                    "name": "F4",
                    "midi": 65,
                    "time": 54.0625,
                    "velocity": 0.5905511811023622,
                    "duration": 0.0611979166666643
                },
                {
                    "name": "D4",
                    "midi": 62,
                    "time": 55,
                    "velocity": 0.7952755905511811,
                    "duration": 0.625
                },
                {
                    "name": "E4",
                    "midi": 64,
                    "time": 55.625,
                    "velocity": 0.7952755905511811,
                    "duration": 0.625
                },
                {
                    "name": "D4",
                    "midi": 62,
                    "time": 56.25,
                    "velocity": 0.7952755905511811,
                    "duration": 0.625
                },
                {
                    "name": "G#4",
                    "midi": 68,
                    "time": 56.875,
                    "velocity": 0.7952755905511811,
                    "duration": 0.3125
                },
                {
                    "name": "G#4",
                    "midi": 68,
                    "time": 57.1875,
                    "velocity": 0.7952755905511811,
                    "duration": 0.3125
                },
                {
                    "name": "G#4",
                    "midi": 68,
                    "time": 57.5,
                    "velocity": 0.7952755905511811,
                    "duration": 0.3125
                },
                {
                    "name": "D4",
                    "midi": 62,
                    "time": 57.8125,
                    "velocity": 0.5905511811023622,
                    "duration": 0.3125
                },
                {
                    "name": "E4",
                    "midi": 64,
                    "time": 58.125,
                    "velocity": 0.5905511811023622,
                    "duration": 0.625
                },
                {
                    "name": "D4",
                    "midi": 62,
                    "time": 58.75,
                    "velocity": 0.5905511811023622,
                    "duration": 0.625
                },
                {
                    "name": "D4",
                    "midi": 62,
                    "time": 59.6875,
                    "velocity": 0.5905511811023622,
                    "duration": 0.15625
                },
                {
                    "name": "E4",
                    "midi": 64,
                    "time": 59.6875,
                    "velocity": 0.5905511811023622,
                    "duration": 0.15625
                },
                {
                    "name": "A4",
                    "midi": 69,
                    "time": 59.6875,
                    "velocity": 0.5905511811023622,
                    "duration": 0.15625
                },
                {
                    "name": "A#3",
                    "midi": 58,
                    "time": 59.84375,
                    "velocity": 0.5905511811023622,
                    "duration": 0.15625
                },
                {
                    "name": "B3",
                    "midi": 59,
                    "time": 60.3125,
                    "velocity": 0.5905511811023622,
                    "duration": 0.0611979166666643
                },
                {
                    "name": "D#4",
                    "midi": 63,
                    "time": 60.3125,
                    "velocity": 0.5905511811023622,
                    "duration": 0.0611979166666643
                },
                {
                    "name": "F4",
                    "midi": 65,
                    "time": 60.3125,
                    "velocity": 0.5905511811023622,
                    "duration": 0.0611979166666643
                },
                {
                    "name": "A#4",
                    "midi": 70,
                    "time": 60.3125,
                    "velocity": 0.5905511811023622,
                    "duration": 0.0611979166666643
                },
                {
                    "name": "C4",
                    "midi": 60,
                    "time": 60.9375,
                    "velocity": 0.5905511811023622,
                    "duration": 0.0611979166666643
                },
                {
                    "name": "E4",
                    "midi": 64,
                    "time": 60.9375,
                    "velocity": 0.5905511811023622,
                    "duration": 0.0611979166666643
                },
                {
                    "name": "F#4",
                    "midi": 66,
                    "time": 60.9375,
                    "velocity": 0.5905511811023622,
                    "duration": 0.0611979166666643
                },
                {
                    "name": "B4",
                    "midi": 71,
                    "time": 60.9375,
                    "velocity": 0.5905511811023622,
                    "duration": 0.0611979166666643
                },
                {
                    "name": "D4",
                    "midi": 62,
                    "time": 61.5625,
                    "velocity": 0.5905511811023622,
                    "duration": 0.15625
                },
                {
                    "name": "E4",
                    "midi": 64,
                    "time": 61.5625,
                    "velocity": 0.5905511811023622,
                    "duration": 0.15625
                },
                {
                    "name": "A4",
                    "midi": 69,
                    "time": 61.5625,
                    "velocity": 0.5905511811023622,
                    "duration": 0.15625
                },
                {
                    "name": "A#3",
                    "midi": 58,
                    "time": 61.71875,
                    "velocity": 0.5905511811023622,
                    "duration": 0.15625
                },
                {
                    "name": "B3",
                    "midi": 59,
                    "time": 62.1875,
                    "velocity": 0.5905511811023622,
                    "duration": 0.0611979166666643
                },
                {
                    "name": "D#4",
                    "midi": 63,
                    "time": 62.1875,
                    "velocity": 0.5905511811023622,
                    "duration": 0.0611979166666643
                },
                {
                    "name": "F4",
                    "midi": 65,
                    "time": 62.1875,
                    "velocity": 0.5905511811023622,
                    "duration": 0.0611979166666643
                },
                {
                    "name": "A#4",
                    "midi": 70,
                    "time": 62.1875,
                    "velocity": 0.5905511811023622,
                    "duration": 0.0611979166666643
                },
                {
                    "name": "C4",
                    "midi": 60,
                    "time": 62.8125,
                    "velocity": 0.5905511811023622,
                    "duration": 0.0611979166666643
                },
                {
                    "name": "E4",
                    "midi": 64,
                    "time": 62.8125,
                    "velocity": 0.5905511811023622,
                    "duration": 0.0611979166666643
                },
                {
                    "name": "F#4",
                    "midi": 66,
                    "time": 62.8125,
                    "velocity": 0.5905511811023622,
                    "duration": 0.0611979166666643
                },
                {
                    "name": "B4",
                    "midi": 71,
                    "time": 62.8125,
                    "velocity": 0.5905511811023622,
                    "duration": 0.0611979166666643
                },
                {
                    "name": "D4",
                    "midi": 62,
                    "time": 63.4375,
                    "velocity": 0.5905511811023622,
                    "duration": 0.15625
                },
                {
                    "name": "E4",
                    "midi": 64,
                    "time": 63.4375,
                    "velocity": 0.5905511811023622,
                    "duration": 0.15625
                },
                {
                    "name": "A4",
                    "midi": 69,
                    "time": 63.4375,
                    "velocity": 0.5905511811023622,
                    "duration": 0.15625
                },
                {
                    "name": "A#3",
                    "midi": 58,
                    "time": 63.59375,
                    "velocity": 0.5905511811023622,
                    "duration": 0.15625
                },
                {
                    "name": "B3",
                    "midi": 59,
                    "time": 64.0625,
                    "velocity": 0.5905511811023622,
                    "duration": 0.061197916666671404
                },
                {
                    "name": "D#4",
                    "midi": 63,
                    "time": 64.0625,
                    "velocity": 0.5905511811023622,
                    "duration": 0.061197916666671404
                },
                {
                    "name": "F4",
                    "midi": 65,
                    "time": 64.0625,
                    "velocity": 0.5905511811023622,
                    "duration": 0.061197916666671404
                },
                {
                    "name": "A#4",
                    "midi": 70,
                    "time": 64.0625,
                    "velocity": 0.5905511811023622,
                    "duration": 0.061197916666671404
                },
                {
                    "name": "D4",
                    "midi": 62,
                    "time": 65,
                    "velocity": 0.7952755905511811,
                    "duration": 0.625
                },
                {
                    "name": "E4",
                    "midi": 64,
                    "time": 65.625,
                    "velocity": 0.7952755905511811,
                    "duration": 0.625
                },
                {
                    "name": "D4",
                    "midi": 62,
                    "time": 66.25,
                    "velocity": 0.7952755905511811,
                    "duration": 0.625
                },
                {
                    "name": "A#4",
                    "midi": 70,
                    "time": 66.875,
                    "velocity": 0.7952755905511811,
                    "duration": 0.3125
                },
                {
                    "name": "A#4",
                    "midi": 70,
                    "time": 67.1875,
                    "velocity": 0.7952755905511811,
                    "duration": 0.3125
                },
                {
                    "name": "A#4",
                    "midi": 70,
                    "time": 67.5,
                    "velocity": 0.7952755905511811,
                    "duration": 0.3125
                },
                {
                    "name": "D4",
                    "midi": 62,
                    "time": 67.8125,
                    "velocity": 0.5905511811023622,
                    "duration": 0.3125
                },
                {
                    "name": "E4",
                    "midi": 64,
                    "time": 68.125,
                    "velocity": 0.5905511811023622,
                    "duration": 0.625
                },
                {
                    "name": "D4",
                    "midi": 62,
                    "time": 68.75,
                    "velocity": 0.5905511811023622,
                    "duration": 0.625
                },
                {
                    "name": "C4",
                    "midi": 60,
                    "time": 69.6875,
                    "velocity": 0.5905511811023622,
                    "duration": 0.3125
                },
                {
                    "name": "F#4",
                    "midi": 66,
                    "time": 69.6875,
                    "velocity": 0.5905511811023622,
                    "duration": 0.3125
                },
                {
                    "name": "C4",
                    "midi": 60,
                    "time": 70.3125,
                    "velocity": 0.5905511811023622,
                    "duration": 0.3125
                },
                {
                    "name": "F#4",
                    "midi": 66,
                    "time": 70.3125,
                    "velocity": 0.5905511811023622,
                    "duration": 0.3125
                },
                {
                    "name": "C4",
                    "midi": 60,
                    "time": 70.9375,
                    "velocity": 0.5905511811023622,
                    "duration": 0.3125
                },
                {
                    "name": "F#4",
                    "midi": 66,
                    "time": 70.9375,
                    "velocity": 0.5905511811023622,
                    "duration": 0.3125
                },
                {
                    "name": "C4",
                    "midi": 60,
                    "time": 71.5625,
                    "velocity": 0.5905511811023622,
                    "duration": 0.3125
                },
                {
                    "name": "F#4",
                    "midi": 66,
                    "time": 71.5625,
                    "velocity": 0.5905511811023622,
                    "duration": 0.3125
                },
                {
                    "name": "C4",
                    "midi": 60,
                    "time": 72.1875,
                    "velocity": 0.5905511811023622,
                    "duration": 0.3125
                },
                {
                    "name": "F#4",
                    "midi": 66,
                    "time": 72.1875,
                    "velocity": 0.5905511811023622,
                    "duration": 0.3125
                },
                {
                    "name": "C4",
                    "midi": 60,
                    "time": 72.8125,
                    "velocity": 0.5905511811023622,
                    "duration": 0.3125
                },
                {
                    "name": "F#4",
                    "midi": 66,
                    "time": 72.8125,
                    "velocity": 0.5905511811023622,
                    "duration": 0.3125
                },
                {
                    "name": "C4",
                    "midi": 60,
                    "time": 73.4375,
                    "velocity": 0.5905511811023622,
                    "duration": 0.3125
                },
                {
                    "name": "F#4",
                    "midi": 66,
                    "time": 73.4375,
                    "velocity": 0.5905511811023622,
                    "duration": 0.3125
                },
                {
                    "name": "C4",
                    "midi": 60,
                    "time": 74.0625,
                    "velocity": 0.5905511811023622,
                    "duration": 0.3125
                },
                {
                    "name": "F#4",
                    "midi": 66,
                    "time": 74.0625,
                    "velocity": 0.5905511811023622,
                    "duration": 0.3125
                },
                {
                    "name": "A#4",
                    "midi": 70,
                    "time": 74.375,
                    "velocity": 0.7952755905511811,
                    "duration": 0.3125
                },
                {
                    "name": "A#4",
                    "midi": 70,
                    "time": 74.6875,
                    "velocity": 0.7952755905511811,
                    "duration": 0.3125
                },
                {
                    "name": "A#4",
                    "midi": 70,
                    "time": 75,
                    "velocity": 0.7952755905511811,
                    "duration": 0.3125
                },
                {
                    "name": "D#4",
                    "midi": 63,
                    "time": 75.3125,
                    "velocity": 0.5905511811023622,
                    "duration": 0.3125
                },
                {
                    "name": "F#4",
                    "midi": 66,
                    "time": 75.625,
                    "velocity": 0.6929133858267716,
                    "duration": 0.625
                },
                {
                    "name": "D#4",
                    "midi": 63,
                    "time": 76.25,
                    "velocity": 0.5905511811023622,
                    "duration": 0.625
                },
                {
                    "name": "B4",
                    "midi": 71,
                    "time": 76.875,
                    "velocity": 0.7952755905511811,
                    "duration": 0.3125
                },
                {
                    "name": "B4",
                    "midi": 71,
                    "time": 77.1875,
                    "velocity": 0.7952755905511811,
                    "duration": 0.3125
                },
                {
                    "name": "B4",
                    "midi": 71,
                    "time": 77.5,
                    "velocity": 0.7952755905511811,
                    "duration": 0.3125
                },
                {
                    "name": "E4",
                    "midi": 64,
                    "time": 77.8125,
                    "velocity": 0.5905511811023622,
                    "duration": 0.3125
                },
                {
                    "name": "G4",
                    "midi": 67,
                    "time": 78.125,
                    "velocity": 0.6929133858267716,
                    "duration": 0.625
                },
                {
                    "name": "E4",
                    "midi": 64,
                    "time": 78.75,
                    "velocity": 0.5905511811023622,
                    "duration": 0.625
                },
                {
                    "name": "C5",
                    "midi": 72,
                    "time": 79.375,
                    "velocity": 0.7952755905511811,
                    "duration": 0.46875
                },
                {
                    "name": "C6",
                    "midi": 84,
                    "time": 79.375,
                    "velocity": 0.7952755905511811,
                    "duration": 0.46875
                },
                {
                    "name": "C5",
                    "midi": 72,
                    "time": 79.84375,
                    "velocity": 0.5905511811023622,
                    "duration": 0.15625
                },
                {
                    "name": "C6",
                    "midi": 84,
                    "time": 79.84375,
                    "velocity": 0.5905511811023622,
                    "duration": 0.15625
                },
                {
                    "name": "D5",
                    "midi": 74,
                    "time": 80,
                    "velocity": 0.5905511811023622,
                    "duration": 0.3125
                },
                {
                    "name": "D6",
                    "midi": 86,
                    "time": 80,
                    "velocity": 0.5905511811023622,
                    "duration": 0.3125
                },
                {
                    "name": "D#5",
                    "midi": 75,
                    "time": 80.3125,
                    "velocity": 0.5905511811023622,
                    "duration": 0.061197916666671404
                },
                {
                    "name": "D#6",
                    "midi": 87,
                    "time": 80.3125,
                    "velocity": 0.5905511811023622,
                    "duration": 0.061197916666671404
                },
                {
                    "name": "E5",
                    "midi": 76,
                    "time": 80.625,
                    "velocity": 0.7952755905511811,
                    "duration": 0.46875
                },
                {
                    "name": "E6",
                    "midi": 88,
                    "time": 80.625,
                    "velocity": 0.7952755905511811,
                    "duration": 0.46875
                },
                {
                    "name": "E5",
                    "midi": 76,
                    "time": 81.09375,
                    "velocity": 0.5905511811023622,
                    "duration": 0.15625
                },
                {
                    "name": "E6",
                    "midi": 88,
                    "time": 81.09375,
                    "velocity": 0.5905511811023622,
                    "duration": 0.15625
                },
                {
                    "name": "F5",
                    "midi": 77,
                    "time": 81.25,
                    "velocity": 0.5905511811023622,
                    "duration": 0.3125
                },
                {
                    "name": "F6",
                    "midi": 89,
                    "time": 81.25,
                    "velocity": 0.5905511811023622,
                    "duration": 0.3125
                },
                {
                    "name": "F#5",
                    "midi": 78,
                    "time": 81.5625,
                    "velocity": 0.5905511811023622,
                    "duration": 0.061197916666671404
                },
                {
                    "name": "F#6",
                    "midi": 90,
                    "time": 81.5625,
                    "velocity": 0.5905511811023622,
                    "duration": 0.061197916666671404
                },
                {
                    "name": "G5",
                    "midi": 79,
                    "time": 81.875,
                    "velocity": 0.7952755905511811,
                    "duration": 0.46875
                },
                {
                    "name": "G6",
                    "midi": 91,
                    "time": 81.875,
                    "velocity": 0.7952755905511811,
                    "duration": 0.46875
                },
                {
                    "name": "G5",
                    "midi": 79,
                    "time": 82.34375,
                    "velocity": 0.5905511811023622,
                    "duration": 0.15625
                },
                {
                    "name": "G6",
                    "midi": 91,
                    "time": 82.34375,
                    "velocity": 0.5905511811023622,
                    "duration": 0.15625
                },
                {
                    "name": "G#5",
                    "midi": 80,
                    "time": 82.5,
                    "velocity": 0.5905511811023622,
                    "duration": 0.3125
                },
                {
                    "name": "G#6",
                    "midi": 92,
                    "time": 82.5,
                    "velocity": 0.5905511811023622,
                    "duration": 0.3125
                },
                {
                    "name": "A5",
                    "midi": 81,
                    "time": 82.8125,
                    "velocity": 0.5905511811023622,
                    "duration": 0.061197916666671404
                },
                {
                    "name": "A6",
                    "midi": 93,
                    "time": 82.8125,
                    "velocity": 0.5905511811023622,
                    "duration": 0.061197916666671404
                },
                {
                    "name": "A#5",
                    "midi": 82,
                    "time": 83.125,
                    "velocity": 0.7952755905511811,
                    "duration": 0.46875
                },
                {
                    "name": "A#6",
                    "midi": 94,
                    "time": 83.125,
                    "velocity": 0.7952755905511811,
                    "duration": 0.46875
                },
                {
                    "name": "A#5",
                    "midi": 82,
                    "time": 83.59375,
                    "velocity": 0.5905511811023622,
                    "duration": 0.15625
                },
                {
                    "name": "A#6",
                    "midi": 94,
                    "time": 83.59375,
                    "velocity": 0.5905511811023622,
                    "duration": 0.15625
                },
                {
                    "name": "C6",
                    "midi": 84,
                    "time": 83.75,
                    "velocity": 0.5905511811023622,
                    "duration": 0.3125
                },
                {
                    "name": "C7",
                    "midi": 96,
                    "time": 83.75,
                    "velocity": 0.5905511811023622,
                    "duration": 0.3125
                },
                {
                    "name": "C#6",
                    "midi": 85,
                    "time": 84.0625,
                    "velocity": 0.5905511811023622,
                    "duration": 0.3125
                },
                {
                    "name": "A6",
                    "midi": 93,
                    "time": 84.0625,
                    "velocity": 0.5905511811023622,
                    "duration": 0.3125
                },
                {
                    "name": "C#7",
                    "midi": 97,
                    "time": 84.0625,
                    "velocity": 0.5905511811023622,
                    "duration": 0.3125
                },
                {
                    "name": "D6",
                    "midi": 86,
                    "time": 84.375,
                    "velocity": 0.7952755905511811,
                    "duration": 0.15625
                },
                {
                    "name": "C6",
                    "midi": 84,
                    "time": 84.53125,
                    "velocity": 0.5905511811023622,
                    "duration": 0.15625
                },
                {
                    "name": "G5",
                    "midi": 79,
                    "time": 84.6875,
                    "velocity": 0.5905511811023622,
                    "duration": 0.029947916666671404
                },
                {
                    "name": "G#5",
                    "midi": 80,
                    "time": 84.84375,
                    "velocity": 0.5905511811023622,
                    "duration": 0.029947916666671404
                },
                {
                    "name": "A5",
                    "midi": 81,
                    "time": 85,
                    "velocity": 0.7952755905511811,
                    "duration": 0.15625
                },
                {
                    "name": "G5",
                    "midi": 79,
                    "time": 85.15625,
                    "velocity": 0.5905511811023622,
                    "duration": 0.15625
                },
                {
                    "name": "C5",
                    "midi": 72,
                    "time": 85.3125,
                    "velocity": 0.5905511811023622,
                    "duration": 0.029947916666671404
                },
                {
                    "name": "C#5",
                    "midi": 73,
                    "time": 85.46875,
                    "velocity": 0.5905511811023622,
                    "duration": 0.029947916666671404
                },
                {
                    "name": "D5",
                    "midi": 74,
                    "time": 85.625,
                    "velocity": 0.7952755905511811,
                    "duration": 0.15625
                },
                {
                    "name": "C5",
                    "midi": 72,
                    "time": 85.78125,
                    "velocity": 0.5905511811023622,
                    "duration": 0.15625
                },
                {
                    "name": "G4",
                    "midi": 67,
                    "time": 85.9375,
                    "velocity": 0.5905511811023622,
                    "duration": 0.029947916666671404
                },
                {
                    "name": "G#4",
                    "midi": 68,
                    "time": 86.09375,
                    "velocity": 0.5905511811023622,
                    "duration": 0.029947916666671404
                },
                {
                    "name": "A4",
                    "midi": 69,
                    "time": 86.25,
                    "velocity": 0.7952755905511811,
                    "duration": 0.15625
                },
                {
                    "name": "G4",
                    "midi": 67,
                    "time": 86.40625,
                    "velocity": 0.5905511811023622,
                    "duration": 0.15625
                },
                {
                    "name": "C4",
                    "midi": 60,
                    "time": 86.5625,
                    "velocity": 0.5905511811023622,
                    "duration": 0.029947916666671404
                },
                {
                    "name": "C#4",
                    "midi": 61,
                    "time": 86.71875,
                    "velocity": 0.5905511811023622,
                    "duration": 0.029947916666671404
                }
            ],
            "controlChanges": {
                "7": [
                    {
                        "number": 7,
                        "time": 0,
                        "value": 1
                    }
                ],
                "10": [
                    {
                        "number": 10,
                        "time": 0,
                        "value": 0.7637795275590551
                    }
                ]
            },
            "id": 1,
            "name": "Grand Piano",
            "instrumentNumber": 0,
            "instrument": "acoustic grand piano",
            "instrumentFamily": "piano",
            "channelNumber": 0,
            "isPercussion": false
        },
        {
            "startTime": 0.625,
            "duration": 88.125,
            "length": 207,
            "notes": [
                {
                    "name": "G2",
                    "midi": 43,
                    "time": 0.625,
                    "velocity": 0.4881889763779528,
                    "duration": 0.06119791666666663
                },
                {
                    "name": "A#3",
                    "midi": 58,
                    "time": 0.9375,
                    "velocity": 0.4881889763779528,
                    "duration": 0.06119791666666663
                },
                {
                    "name": "F2",
                    "midi": 41,
                    "time": 1.25,
                    "velocity": 0.4881889763779528,
                    "duration": 0.06119791666666674
                },
                {
                    "name": "A3",
                    "midi": 57,
                    "time": 1.5625,
                    "velocity": 0.4881889763779528,
                    "duration": 0.06119791666666674
                },
                {
                    "name": "G2",
                    "midi": 43,
                    "time": 1.875,
                    "velocity": 0.4881889763779528,
                    "duration": 0.06119791666666674
                },
                {
                    "name": "A#3",
                    "midi": 58,
                    "time": 2.1875,
                    "velocity": 0.4881889763779528,
                    "duration": 0.06119791666666652
                },
                {
                    "name": "F2",
                    "midi": 41,
                    "time": 2.5,
                    "velocity": 0.4881889763779528,
                    "duration": 0.06119791666666652
                },
                {
                    "name": "A3",
                    "midi": 57,
                    "time": 2.8125,
                    "velocity": 0.4881889763779528,
                    "duration": 0.06119791666666652
                },
                {
                    "name": "G2",
                    "midi": 43,
                    "time": 3.125,
                    "velocity": 0.4881889763779528,
                    "duration": 0.06119791666666652
                },
                {
                    "name": "A#3",
                    "midi": 58,
                    "time": 3.4375,
                    "velocity": 0.4881889763779528,
                    "duration": 0.06119791666666652
                },
                {
                    "name": "F2",
                    "midi": 41,
                    "time": 3.75,
                    "velocity": 0.4881889763779528,
                    "duration": 0.06119791666666652
                },
                {
                    "name": "A3",
                    "midi": 57,
                    "time": 4.0625,
                    "velocity": 0.4881889763779528,
                    "duration": 0.06119791666666696
                },
                {
                    "name": "G2",
                    "midi": 43,
                    "time": 4.375,
                    "velocity": 0.4881889763779528,
                    "duration": 0.06119791666666696
                },
                {
                    "name": "A#3",
                    "midi": 58,
                    "time": 4.6875,
                    "velocity": 0.4881889763779528,
                    "duration": 0.06119791666666696
                },
                {
                    "name": "F2",
                    "midi": 41,
                    "time": 5,
                    "velocity": 0.4881889763779528,
                    "duration": 0.06119791666666696
                },
                {
                    "name": "A3",
                    "midi": 57,
                    "time": 5.3125,
                    "velocity": 0.4881889763779528,
                    "duration": 0.06119791666666696
                },
                {
                    "name": "G2",
                    "midi": 43,
                    "time": 5.625,
                    "velocity": 0.4881889763779528,
                    "duration": 0.06119791666666696
                },
                {
                    "name": "A#3",
                    "midi": 58,
                    "time": 5.9375,
                    "velocity": 0.4881889763779528,
                    "duration": 0.06119791666666696
                },
                {
                    "name": "F2",
                    "midi": 41,
                    "time": 6.25,
                    "velocity": 0.4881889763779528,
                    "duration": 0.06119791666666696
                },
                {
                    "name": "A3",
                    "midi": 57,
                    "time": 6.5625,
                    "velocity": 0.4881889763779528,
                    "duration": 0.06119791666666696
                },
                {
                    "name": "G2",
                    "midi": 43,
                    "time": 6.875,
                    "velocity": 0.4881889763779528,
                    "duration": 0.06119791666666696
                },
                {
                    "name": "A#3",
                    "midi": 58,
                    "time": 7.1875,
                    "velocity": 0.4881889763779528,
                    "duration": 0.06119791666666696
                },
                {
                    "name": "F2",
                    "midi": 41,
                    "time": 7.5,
                    "velocity": 0.4881889763779528,
                    "duration": 0.06119791666666696
                },
                {
                    "name": "A3",
                    "midi": 57,
                    "time": 7.8125,
                    "velocity": 0.4881889763779528,
                    "duration": 0.06119791666666696
                },
                {
                    "name": "G2",
                    "midi": 43,
                    "time": 8.125,
                    "velocity": 0.4881889763779528,
                    "duration": 0.061197916666666075
                },
                {
                    "name": "A#3",
                    "midi": 58,
                    "time": 8.4375,
                    "velocity": 0.4881889763779528,
                    "duration": 0.061197916666666075
                },
                {
                    "name": "F2",
                    "midi": 41,
                    "time": 8.75,
                    "velocity": 0.4881889763779528,
                    "duration": 0.061197916666666075
                },
                {
                    "name": "A3",
                    "midi": 57,
                    "time": 9.0625,
                    "velocity": 0.4881889763779528,
                    "duration": 0.061197916666666075
                },
                {
                    "name": "G2",
                    "midi": 43,
                    "time": 9.375,
                    "velocity": 0.4881889763779528,
                    "duration": 0.061197916666666075
                },
                {
                    "name": "A#3",
                    "midi": 58,
                    "time": 9.6875,
                    "velocity": 0.4881889763779528,
                    "duration": 0.061197916666666075
                },
                {
                    "name": "F2",
                    "midi": 41,
                    "time": 10,
                    "velocity": 0.4881889763779528,
                    "duration": 0.061197916666666075
                },
                {
                    "name": "A3",
                    "midi": 57,
                    "time": 10.3125,
                    "velocity": 0.4881889763779528,
                    "duration": 0.061197916666666075
                },
                {
                    "name": "G2",
                    "midi": 43,
                    "time": 10.625,
                    "velocity": 0.4881889763779528,
                    "duration": 0.061197916666666075
                },
                {
                    "name": "A#3",
                    "midi": 58,
                    "time": 10.9375,
                    "velocity": 0.4881889763779528,
                    "duration": 0.061197916666666075
                },
                {
                    "name": "F2",
                    "midi": 41,
                    "time": 11.25,
                    "velocity": 0.4881889763779528,
                    "duration": 0.061197916666666075
                },
                {
                    "name": "A3",
                    "midi": 57,
                    "time": 11.5625,
                    "velocity": 0.4881889763779528,
                    "duration": 0.061197916666666075
                },
                {
                    "name": "G2",
                    "midi": 43,
                    "time": 11.875,
                    "velocity": 0.4881889763779528,
                    "duration": 0.061197916666666075
                },
                {
                    "name": "A#3",
                    "midi": 58,
                    "time": 12.1875,
                    "velocity": 0.4881889763779528,
                    "duration": 0.061197916666666075
                },
                {
                    "name": "F2",
                    "midi": 41,
                    "time": 12.5,
                    "velocity": 0.4881889763779528,
                    "duration": 0.061197916666666075
                },
                {
                    "name": "A3",
                    "midi": 57,
                    "time": 12.8125,
                    "velocity": 0.4881889763779528,
                    "duration": 0.061197916666666075
                },
                {
                    "name": "G2",
                    "midi": 43,
                    "time": 14.375,
                    "velocity": 0.4881889763779528,
                    "duration": 0.061197916666666075
                },
                {
                    "name": "A#3",
                    "midi": 58,
                    "time": 14.6875,
                    "velocity": 0.4881889763779528,
                    "duration": 0.061197916666666075
                },
                {
                    "name": "F2",
                    "midi": 41,
                    "time": 15,
                    "velocity": 0.4881889763779528,
                    "duration": 0.061197916666666075
                },
                {
                    "name": "A3",
                    "midi": 57,
                    "time": 15.3125,
                    "velocity": 0.4881889763779528,
                    "duration": 0.061197916666666075
                },
                {
                    "name": "G2",
                    "midi": 43,
                    "time": 15.625,
                    "velocity": 0.4881889763779528,
                    "duration": 0.061197916666666075
                },
                {
                    "name": "A#3",
                    "midi": 58,
                    "time": 15.9375,
                    "velocity": 0.4881889763779528,
                    "duration": 0.061197916666666075
                },
                {
                    "name": "F2",
                    "midi": 41,
                    "time": 16.25,
                    "velocity": 0.4881889763779528,
                    "duration": 0.06119791666666785
                },
                {
                    "name": "A3",
                    "midi": 57,
                    "time": 16.5625,
                    "velocity": 0.4881889763779528,
                    "duration": 0.06119791666666785
                },
                {
                    "name": "G2",
                    "midi": 43,
                    "time": 16.875,
                    "velocity": 0.4881889763779528,
                    "duration": 0.06119791666666785
                },
                {
                    "name": "A#3",
                    "midi": 58,
                    "time": 17.1875,
                    "velocity": 0.4881889763779528,
                    "duration": 0.06119791666666785
                },
                {
                    "name": "F2",
                    "midi": 41,
                    "time": 17.5,
                    "velocity": 0.4881889763779528,
                    "duration": 0.06119791666666785
                },
                {
                    "name": "A3",
                    "midi": 57,
                    "time": 17.8125,
                    "velocity": 0.4881889763779528,
                    "duration": 0.06119791666666785
                },
                {
                    "name": "G2",
                    "midi": 43,
                    "time": 18.125,
                    "velocity": 0.4881889763779528,
                    "duration": 0.06119791666666785
                },
                {
                    "name": "A#3",
                    "midi": 58,
                    "time": 18.4375,
                    "velocity": 0.4881889763779528,
                    "duration": 0.06119791666666785
                },
                {
                    "name": "F2",
                    "midi": 41,
                    "time": 18.75,
                    "velocity": 0.4881889763779528,
                    "duration": 0.06119791666666785
                },
                {
                    "name": "A3",
                    "midi": 57,
                    "time": 19.0625,
                    "velocity": 0.4881889763779528,
                    "duration": 0.06119791666666785
                },
                {
                    "name": "D2",
                    "midi": 38,
                    "time": 19.375,
                    "velocity": 0.5905511811023622,
                    "duration": 0.625
                },
                {
                    "name": "A2",
                    "midi": 45,
                    "time": 19.375,
                    "velocity": 0.5905511811023622,
                    "duration": 0.625
                },
                {
                    "name": "F#2",
                    "midi": 42,
                    "time": 20,
                    "velocity": 0.5905511811023622,
                    "duration": 0.625
                },
                {
                    "name": "C#3",
                    "midi": 49,
                    "time": 20,
                    "velocity": 0.5905511811023622,
                    "duration": 0.625
                },
                {
                    "name": "E2",
                    "midi": 40,
                    "time": 20.625,
                    "velocity": 0.5905511811023622,
                    "duration": 0.625
                },
                {
                    "name": "A#2",
                    "midi": 46,
                    "time": 20.625,
                    "velocity": 0.5905511811023622,
                    "duration": 0.625
                },
                {
                    "name": "G2",
                    "midi": 43,
                    "time": 21.25,
                    "velocity": 0.5905511811023622,
                    "duration": 0.625
                },
                {
                    "name": "D3",
                    "midi": 50,
                    "time": 21.25,
                    "velocity": 0.5905511811023622,
                    "duration": 0.625
                },
                {
                    "name": "A#2",
                    "midi": 46,
                    "time": 21.875,
                    "velocity": 0.3858267716535433,
                    "duration": 0.625
                },
                {
                    "name": "F3",
                    "midi": 53,
                    "time": 21.875,
                    "velocity": 0.3858267716535433,
                    "duration": 0.625
                },
                {
                    "name": "A2",
                    "midi": 45,
                    "time": 22.5,
                    "velocity": 0.4881889763779528,
                    "duration": 0.625
                },
                {
                    "name": "E3",
                    "midi": 52,
                    "time": 22.5,
                    "velocity": 0.4881889763779528,
                    "duration": 0.625
                },
                {
                    "name": "G#2",
                    "midi": 44,
                    "time": 23.125,
                    "velocity": 0.4881889763779528,
                    "duration": 0.625
                },
                {
                    "name": "D#3",
                    "midi": 51,
                    "time": 23.125,
                    "velocity": 0.4881889763779528,
                    "duration": 0.625
                },
                {
                    "name": "G2",
                    "midi": 43,
                    "time": 23.75,
                    "velocity": 0.4881889763779528,
                    "duration": 0.625
                },
                {
                    "name": "D3",
                    "midi": 50,
                    "time": 23.75,
                    "velocity": 0.4881889763779528,
                    "duration": 0.625
                },
                {
                    "name": "F#2",
                    "midi": 42,
                    "time": 24.375,
                    "velocity": 0.3858267716535433,
                    "duration": 0.625
                },
                {
                    "name": "C#3",
                    "midi": 49,
                    "time": 24.375,
                    "velocity": 0.3858267716535433,
                    "duration": 0.625
                },
                {
                    "name": "F2",
                    "midi": 41,
                    "time": 25,
                    "velocity": 0.3858267716535433,
                    "duration": 0.625
                },
                {
                    "name": "C3",
                    "midi": 48,
                    "time": 25,
                    "velocity": 0.3858267716535433,
                    "duration": 0.625
                },
                {
                    "name": "F#2",
                    "midi": 42,
                    "time": 25.625,
                    "velocity": 0.3858267716535433,
                    "duration": 0.625
                },
                {
                    "name": "C#3",
                    "midi": 49,
                    "time": 25.625,
                    "velocity": 0.3858267716535433,
                    "duration": 0.625
                },
                {
                    "name": "F2",
                    "midi": 41,
                    "time": 26.25,
                    "velocity": 0.3858267716535433,
                    "duration": 0.625
                },
                {
                    "name": "C3",
                    "midi": 48,
                    "time": 26.25,
                    "velocity": 0.3858267716535433,
                    "duration": 0.625
                },
                {
                    "name": "F#2",
                    "midi": 42,
                    "time": 26.875,
                    "velocity": 0.3858267716535433,
                    "duration": 0.625
                },
                {
                    "name": "C#3",
                    "midi": 49,
                    "time": 26.875,
                    "velocity": 0.3858267716535433,
                    "duration": 0.625
                },
                {
                    "name": "F2",
                    "midi": 41,
                    "time": 27.5,
                    "velocity": 0.3858267716535433,
                    "duration": 0.625
                },
                {
                    "name": "C3",
                    "midi": 48,
                    "time": 27.5,
                    "velocity": 0.3858267716535433,
                    "duration": 0.625
                },
                {
                    "name": "F#2",
                    "midi": 42,
                    "time": 28.125,
                    "velocity": 0.3858267716535433,
                    "duration": 0.625
                },
                {
                    "name": "C#3",
                    "midi": 49,
                    "time": 28.125,
                    "velocity": 0.3858267716535433,
                    "duration": 0.625
                },
                {
                    "name": "F2",
                    "midi": 41,
                    "time": 28.75,
                    "velocity": 0.3858267716535433,
                    "duration": 0.625
                },
                {
                    "name": "C3",
                    "midi": 48,
                    "time": 28.75,
                    "velocity": 0.3858267716535433,
                    "duration": 0.625
                },
                {
                    "name": "F3",
                    "midi": 53,
                    "time": 31.25,
                    "velocity": 0.5905511811023622,
                    "duration": 0.02994791666666785
                },
                {
                    "name": "F3",
                    "midi": 53,
                    "time": 31.40625,
                    "velocity": 0.5905511811023622,
                    "duration": 0.02994791666666785
                },
                {
                    "name": "F3",
                    "midi": 53,
                    "time": 31.5625,
                    "velocity": 0.5905511811023622,
                    "duration": 0.02994791666666785
                },
                {
                    "name": "F3",
                    "midi": 53,
                    "time": 31.71875,
                    "velocity": 0.5905511811023622,
                    "duration": 0.02994791666666785
                },
                {
                    "name": "G3",
                    "midi": 55,
                    "time": 31.875,
                    "velocity": 0.7952755905511811,
                    "duration": 0.06119791666666785
                },
                {
                    "name": "C4",
                    "midi": 60,
                    "time": 31.875,
                    "velocity": 0.7952755905511811,
                    "duration": 0.06119791666666785
                },
                {
                    "name": "C3",
                    "midi": 48,
                    "time": 32.1875,
                    "velocity": 0.5905511811023622,
                    "duration": 0.029947916666664298
                },
                {
                    "name": "C3",
                    "midi": 48,
                    "time": 32.34375,
                    "velocity": 0.5905511811023622,
                    "duration": 0.029947916666664298
                },
                {
                    "name": "C3",
                    "midi": 48,
                    "time": 32.5,
                    "velocity": 0.5905511811023622,
                    "duration": 0.029947916666664298
                },
                {
                    "name": "C3",
                    "midi": 48,
                    "time": 32.65625,
                    "velocity": 0.5905511811023622,
                    "duration": 0.029947916666664298
                },
                {
                    "name": "D3",
                    "midi": 50,
                    "time": 32.8125,
                    "velocity": 0.7952755905511811,
                    "duration": 0.3125
                },
                {
                    "name": "A3",
                    "midi": 57,
                    "time": 32.8125,
                    "velocity": 0.7952755905511811,
                    "duration": 0.3125
                },
                {
                    "name": "F2",
                    "midi": 41,
                    "time": 33.125,
                    "velocity": 0.5905511811023622,
                    "duration": 0.029947916666664298
                },
                {
                    "name": "F2",
                    "midi": 41,
                    "time": 33.28125,
                    "velocity": 0.5905511811023622,
                    "duration": 0.029947916666664298
                },
                {
                    "name": "F2",
                    "midi": 41,
                    "time": 33.4375,
                    "velocity": 0.5905511811023622,
                    "duration": 0.029947916666664298
                },
                {
                    "name": "F2",
                    "midi": 41,
                    "time": 33.59375,
                    "velocity": 0.5905511811023622,
                    "duration": 0.029947916666664298
                },
                {
                    "name": "G2",
                    "midi": 43,
                    "time": 33.75,
                    "velocity": 0.7952755905511811,
                    "duration": 0.15625
                },
                {
                    "name": "C3",
                    "midi": 48,
                    "time": 33.75,
                    "velocity": 0.7952755905511811,
                    "duration": 0.15625
                },
                {
                    "name": "F2",
                    "midi": 41,
                    "time": 33.90625,
                    "velocity": 0.5905511811023622,
                    "duration": 0.029947916666664298
                },
                {
                    "name": "D#2",
                    "midi": 39,
                    "time": 34.0625,
                    "velocity": 0.5905511811023622,
                    "duration": 0.029947916666664298
                },
                {
                    "name": "D2",
                    "midi": 38,
                    "time": 34.21875,
                    "velocity": 0.5905511811023622,
                    "duration": 0.029947916666664298
                },
                {
                    "name": "C#2",
                    "midi": 37,
                    "time": 34.375,
                    "velocity": 0.7952755905511811,
                    "duration": 0.625
                },
                {
                    "name": "G#2",
                    "midi": 44,
                    "time": 34.375,
                    "velocity": 0.7952755905511811,
                    "duration": 0.625
                },
                {
                    "name": "C#3",
                    "midi": 49,
                    "time": 39.375,
                    "velocity": 0.6929133858267716,
                    "duration": 0.0611979166666643
                },
                {
                    "name": "D#3",
                    "midi": 51,
                    "time": 39.6875,
                    "velocity": 0.6929133858267716,
                    "duration": 0.0611979166666643
                },
                {
                    "name": "G#2",
                    "midi": 44,
                    "time": 40,
                    "velocity": 0.6929133858267716,
                    "duration": 0.0611979166666643
                },
                {
                    "name": "A#2",
                    "midi": 46,
                    "time": 40.3125,
                    "velocity": 0.6929133858267716,
                    "duration": 0.0611979166666643
                },
                {
                    "name": "C#2",
                    "midi": 37,
                    "time": 40.625,
                    "velocity": 0.8976377952755905,
                    "duration": 0.0611979166666643
                },
                {
                    "name": "C#3",
                    "midi": 49,
                    "time": 41.25,
                    "velocity": 0.6929133858267716,
                    "duration": 0.0611979166666643
                },
                {
                    "name": "D#3",
                    "midi": 51,
                    "time": 41.5625,
                    "velocity": 0.6929133858267716,
                    "duration": 0.0611979166666643
                },
                {
                    "name": "G#2",
                    "midi": 44,
                    "time": 41.875,
                    "velocity": 0.6929133858267716,
                    "duration": 0.0611979166666643
                },
                {
                    "name": "A#2",
                    "midi": 46,
                    "time": 42.1875,
                    "velocity": 0.6929133858267716,
                    "duration": 0.0611979166666643
                },
                {
                    "name": "C#2",
                    "midi": 37,
                    "time": 42.5,
                    "velocity": 0.8976377952755905,
                    "duration": 0.0611979166666643
                },
                {
                    "name": "C#3",
                    "midi": 49,
                    "time": 43.125,
                    "velocity": 0.6929133858267716,
                    "duration": 0.0611979166666643
                },
                {
                    "name": "D#3",
                    "midi": 51,
                    "time": 43.4375,
                    "velocity": 0.6929133858267716,
                    "duration": 0.0611979166666643
                },
                {
                    "name": "G#2",
                    "midi": 44,
                    "time": 43.75,
                    "velocity": 0.6929133858267716,
                    "duration": 0.0611979166666643
                },
                {
                    "name": "A#2",
                    "midi": 46,
                    "time": 44.0625,
                    "velocity": 0.6929133858267716,
                    "duration": 0.0611979166666643
                },
                {
                    "name": "C#2",
                    "midi": 37,
                    "time": 44.375,
                    "velocity": 0.8976377952755905,
                    "duration": 0.625
                },
                {
                    "name": "G#2",
                    "midi": 44,
                    "time": 44.375,
                    "velocity": 0.8976377952755905,
                    "duration": 0.625
                },
                {
                    "name": "G#3",
                    "midi": 56,
                    "time": 48.75,
                    "velocity": 0.6929133858267716,
                    "duration": 0.625
                },
                {
                    "name": "A4",
                    "midi": 69,
                    "time": 49.375,
                    "velocity": 0.8976377952755905,
                    "duration": 0.3125
                },
                {
                    "name": "A4",
                    "midi": 69,
                    "time": 49.6875,
                    "velocity": 0.8976377952755905,
                    "duration": 0.3125
                },
                {
                    "name": "A4",
                    "midi": 69,
                    "time": 50,
                    "velocity": 0.8976377952755905,
                    "duration": 0.3125
                },
                {
                    "name": "C#4",
                    "midi": 61,
                    "time": 50.3125,
                    "velocity": 0.6929133858267716,
                    "duration": 0.3125
                },
                {
                    "name": "G4",
                    "midi": 67,
                    "time": 50.625,
                    "velocity": 0.8976377952755905,
                    "duration": 0.3125
                },
                {
                    "name": "G4",
                    "midi": 67,
                    "time": 50.9375,
                    "velocity": 0.8976377952755905,
                    "duration": 0.3125
                },
                {
                    "name": "G4",
                    "midi": 67,
                    "time": 51.25,
                    "velocity": 0.8976377952755905,
                    "duration": 0.3125
                },
                {
                    "name": "C#4",
                    "midi": 61,
                    "time": 51.5625,
                    "velocity": 0.6929133858267716,
                    "duration": 0.3125
                },
                {
                    "name": "A4",
                    "midi": 69,
                    "time": 51.875,
                    "velocity": 0.8976377952755905,
                    "duration": 0.3125
                },
                {
                    "name": "A4",
                    "midi": 69,
                    "time": 52.1875,
                    "velocity": 0.8976377952755905,
                    "duration": 0.3125
                },
                {
                    "name": "A4",
                    "midi": 69,
                    "time": 52.5,
                    "velocity": 0.8976377952755905,
                    "duration": 0.3125
                },
                {
                    "name": "C#4",
                    "midi": 61,
                    "time": 52.8125,
                    "velocity": 0.6929133858267716,
                    "duration": 0.3125
                },
                {
                    "name": "G4",
                    "midi": 67,
                    "time": 53.125,
                    "velocity": 0.8976377952755905,
                    "duration": 0.3125
                },
                {
                    "name": "G4",
                    "midi": 67,
                    "time": 53.4375,
                    "velocity": 0.8976377952755905,
                    "duration": 0.3125
                },
                {
                    "name": "G4",
                    "midi": 67,
                    "time": 53.75,
                    "velocity": 0.8976377952755905,
                    "duration": 0.3125
                },
                {
                    "name": "C#4",
                    "midi": 61,
                    "time": 54.0625,
                    "velocity": 0.6929133858267716,
                    "duration": 0.3125
                },
                {
                    "name": "D2",
                    "midi": 38,
                    "time": 54.375,
                    "velocity": 0.4881889763779528,
                    "duration": 0.625
                },
                {
                    "name": "A2",
                    "midi": 45,
                    "time": 54.375,
                    "velocity": 0.4881889763779528,
                    "duration": 0.625
                },
                {
                    "name": "D3",
                    "midi": 50,
                    "time": 59.375,
                    "velocity": 0.4881889763779528,
                    "duration": 0.0611979166666643
                },
                {
                    "name": "E3",
                    "midi": 52,
                    "time": 59.6875,
                    "velocity": 0.4881889763779528,
                    "duration": 0.0611979166666643
                },
                {
                    "name": "A2",
                    "midi": 45,
                    "time": 60,
                    "velocity": 0.4881889763779528,
                    "duration": 0.0611979166666643
                },
                {
                    "name": "B2",
                    "midi": 47,
                    "time": 60.3125,
                    "velocity": 0.4881889763779528,
                    "duration": 0.0611979166666643
                },
                {
                    "name": "D2",
                    "midi": 38,
                    "time": 60.625,
                    "velocity": 0.6929133858267716,
                    "duration": 0.625
                },
                {
                    "name": "D3",
                    "midi": 50,
                    "time": 61.25,
                    "velocity": 0.4881889763779528,
                    "duration": 0.0611979166666643
                },
                {
                    "name": "E3",
                    "midi": 52,
                    "time": 61.5625,
                    "velocity": 0.4881889763779528,
                    "duration": 0.0611979166666643
                },
                {
                    "name": "A2",
                    "midi": 45,
                    "time": 61.875,
                    "velocity": 0.4881889763779528,
                    "duration": 0.0611979166666643
                },
                {
                    "name": "B2",
                    "midi": 47,
                    "time": 62.1875,
                    "velocity": 0.4881889763779528,
                    "duration": 0.0611979166666643
                },
                {
                    "name": "D2",
                    "midi": 38,
                    "time": 62.5,
                    "velocity": 0.6929133858267716,
                    "duration": 0.625
                },
                {
                    "name": "D3",
                    "midi": 50,
                    "time": 63.125,
                    "velocity": 0.4881889763779528,
                    "duration": 0.0611979166666643
                },
                {
                    "name": "E3",
                    "midi": 52,
                    "time": 63.4375,
                    "velocity": 0.4881889763779528,
                    "duration": 0.0611979166666643
                },
                {
                    "name": "A2",
                    "midi": 45,
                    "time": 63.75,
                    "velocity": 0.4881889763779528,
                    "duration": 0.0611979166666643
                },
                {
                    "name": "B2",
                    "midi": 47,
                    "time": 64.0625,
                    "velocity": 0.4881889763779528,
                    "duration": 0.061197916666671404
                },
                {
                    "name": "D2",
                    "midi": 38,
                    "time": 64.375,
                    "velocity": 0.4881889763779528,
                    "duration": 0.3125
                },
                {
                    "name": "A2",
                    "midi": 45,
                    "time": 64.375,
                    "velocity": 0.4881889763779528,
                    "duration": 0.3125
                },
                {
                    "name": "A3",
                    "midi": 57,
                    "time": 68.75,
                    "velocity": 0.4881889763779528,
                    "duration": 0.625
                },
                {
                    "name": "A#4",
                    "midi": 70,
                    "time": 69.375,
                    "velocity": 0.6929133858267716,
                    "duration": 0.3125
                },
                {
                    "name": "A#4",
                    "midi": 70,
                    "time": 69.6875,
                    "velocity": 0.6929133858267716,
                    "duration": 0.3125
                },
                {
                    "name": "A#4",
                    "midi": 70,
                    "time": 70,
                    "velocity": 0.6929133858267716,
                    "duration": 0.3125
                },
                {
                    "name": "D4",
                    "midi": 62,
                    "time": 70.3125,
                    "velocity": 0.4881889763779528,
                    "duration": 0.3125
                },
                {
                    "name": "G#4",
                    "midi": 68,
                    "time": 70.625,
                    "velocity": 0.6929133858267716,
                    "duration": 0.3125
                },
                {
                    "name": "G#4",
                    "midi": 68,
                    "time": 70.9375,
                    "velocity": 0.6929133858267716,
                    "duration": 0.3125
                },
                {
                    "name": "G#4",
                    "midi": 68,
                    "time": 71.25,
                    "velocity": 0.6929133858267716,
                    "duration": 0.3125
                },
                {
                    "name": "D4",
                    "midi": 62,
                    "time": 71.5625,
                    "velocity": 0.4881889763779528,
                    "duration": 0.3125
                },
                {
                    "name": "A#4",
                    "midi": 70,
                    "time": 71.875,
                    "velocity": 0.6929133858267716,
                    "duration": 0.3125
                },
                {
                    "name": "A#4",
                    "midi": 70,
                    "time": 72.1875,
                    "velocity": 0.6929133858267716,
                    "duration": 0.3125
                },
                {
                    "name": "A#4",
                    "midi": 70,
                    "time": 72.5,
                    "velocity": 0.6929133858267716,
                    "duration": 0.3125
                },
                {
                    "name": "D4",
                    "midi": 62,
                    "time": 72.8125,
                    "velocity": 0.4881889763779528,
                    "duration": 0.3125
                },
                {
                    "name": "G#4",
                    "midi": 68,
                    "time": 73.125,
                    "velocity": 0.6929133858267716,
                    "duration": 0.3125
                },
                {
                    "name": "G#4",
                    "midi": 68,
                    "time": 73.4375,
                    "velocity": 0.6929133858267716,
                    "duration": 0.3125
                },
                {
                    "name": "G#4",
                    "midi": 68,
                    "time": 73.75,
                    "velocity": 0.6929133858267716,
                    "duration": 0.3125
                },
                {
                    "name": "D4",
                    "midi": 62,
                    "time": 74.0625,
                    "velocity": 0.4881889763779528,
                    "duration": 0.3125
                },
                {
                    "name": "A#3",
                    "midi": 58,
                    "time": 74.375,
                    "velocity": 0.6929133858267716,
                    "duration": 0.3125
                },
                {
                    "name": "A#3",
                    "midi": 58,
                    "time": 74.6875,
                    "velocity": 0.6929133858267716,
                    "duration": 0.3125
                },
                {
                    "name": "A#3",
                    "midi": 58,
                    "time": 75,
                    "velocity": 0.6929133858267716,
                    "duration": 0.3125
                },
                {
                    "name": "D#3",
                    "midi": 51,
                    "time": 75.3125,
                    "velocity": 0.4881889763779528,
                    "duration": 0.3125
                },
                {
                    "name": "F#3",
                    "midi": 54,
                    "time": 75.625,
                    "velocity": 0.6929133858267716,
                    "duration": 0.625
                },
                {
                    "name": "D#3",
                    "midi": 51,
                    "time": 76.25,
                    "velocity": 0.5905511811023622,
                    "duration": 0.625
                },
                {
                    "name": "B3",
                    "midi": 59,
                    "time": 76.875,
                    "velocity": 0.7952755905511811,
                    "duration": 0.3125
                },
                {
                    "name": "B3",
                    "midi": 59,
                    "time": 77.1875,
                    "velocity": 0.7952755905511811,
                    "duration": 0.3125
                },
                {
                    "name": "B3",
                    "midi": 59,
                    "time": 77.5,
                    "velocity": 0.7952755905511811,
                    "duration": 0.3125
                },
                {
                    "name": "E3",
                    "midi": 52,
                    "time": 77.8125,
                    "velocity": 0.5905511811023622,
                    "duration": 0.3125
                },
                {
                    "name": "G3",
                    "midi": 55,
                    "time": 78.125,
                    "velocity": 0.6929133858267716,
                    "duration": 0.625
                },
                {
                    "name": "E3",
                    "midi": 52,
                    "time": 78.75,
                    "velocity": 0.5905511811023622,
                    "duration": 0.625
                },
                {
                    "name": "C2",
                    "midi": 36,
                    "time": 79.375,
                    "velocity": 0.4881889763779528,
                    "duration": 1.25
                },
                {
                    "name": "A#4",
                    "midi": 70,
                    "time": 84.375,
                    "velocity": 0.6929133858267716,
                    "duration": 0.061197916666671404
                },
                {
                    "name": "E5",
                    "midi": 76,
                    "time": 84.375,
                    "velocity": 0.6929133858267716,
                    "duration": 0.061197916666671404
                },
                {
                    "name": "F#5",
                    "midi": 78,
                    "time": 84.375,
                    "velocity": 0.6929133858267716,
                    "duration": 0.061197916666671404
                },
                {
                    "name": "F4",
                    "midi": 65,
                    "time": 85,
                    "velocity": 0.6929133858267716,
                    "duration": 0.061197916666671404
                },
                {
                    "name": "B4",
                    "midi": 71,
                    "time": 85,
                    "velocity": 0.6929133858267716,
                    "duration": 0.061197916666671404
                },
                {
                    "name": "E5",
                    "midi": 76,
                    "time": 85,
                    "velocity": 0.6929133858267716,
                    "duration": 0.061197916666671404
                },
                {
                    "name": "A#3",
                    "midi": 58,
                    "time": 85.625,
                    "velocity": 0.6929133858267716,
                    "duration": 0.061197916666671404
                },
                {
                    "name": "E4",
                    "midi": 64,
                    "time": 85.625,
                    "velocity": 0.6929133858267716,
                    "duration": 0.061197916666671404
                },
                {
                    "name": "F#4",
                    "midi": 66,
                    "time": 85.625,
                    "velocity": 0.6929133858267716,
                    "duration": 0.061197916666671404
                },
                {
                    "name": "F3",
                    "midi": 53,
                    "time": 86.25,
                    "velocity": 0.6929133858267716,
                    "duration": 0.061197916666671404
                },
                {
                    "name": "B3",
                    "midi": 59,
                    "time": 86.25,
                    "velocity": 0.6929133858267716,
                    "duration": 0.061197916666671404
                },
                {
                    "name": "E4",
                    "midi": 64,
                    "time": 86.25,
                    "velocity": 0.6929133858267716,
                    "duration": 0.061197916666671404
                },
                {
                    "name": "E3",
                    "midi": 52,
                    "time": 86.875,
                    "velocity": 0.4881889763779528,
                    "duration": 1.25
                },
                {
                    "name": "A#3",
                    "midi": 58,
                    "time": 86.875,
                    "velocity": 0.4881889763779528,
                    "duration": 1.25
                },
                {
                    "name": "D4",
                    "midi": 62,
                    "time": 86.875,
                    "velocity": 0.4881889763779528,
                    "duration": 1.25
                }
            ],
            "controlChanges": {
                "7": [
                    {
                        "number": 7,
                        "time": 0,
                        "value": 1
                    }
                ],
                "10": [
                    {
                        "number": 10,
                        "time": 0,
                        "value": 0.7637795275590551
                    }
                ],
                "64": [
                    {
                        "number": 64,
                        "time": 21.875,
                        "value": 1
                    },
                    {
                        "number": 64,
                        "time": 23.75,
                        "value": 0
                    },
                    {
                        "number": 64,
                        "time": 79.375,
                        "value": 1
                    },
                    {
                        "number": 64,
                        "time": 83.75,
                        "value": 0
                    }
                ]
            },
            "id": 2,
            "name": "Instrument17",
            "instrumentNumber": 0,
            "instrument": "acoustic grand piano",
            "instrumentFamily": "piano",
            "channelNumber": 1,
            "isPercussion": false
        },
        {
            "startTime": 10.3125,
            "duration": 88.125,
            "length": 387,
            "notes": [
                {
                    "name": "D#5",
                    "midi": 75,
                    "time": 10.3125,
                    "velocity": 0.5039370078740157,
                    "duration": 0.15625
                },
                {
                    "name": "C#5",
                    "midi": 73,
                    "time": 10.46875,
                    "velocity": 0.5039370078740157,
                    "duration": 0.15625
                },
                {
                    "name": "C5",
                    "midi": 72,
                    "time": 10.625,
                    "velocity": 0.7086614173228346,
                    "duration": 1.25
                },
                {
                    "name": "G3",
                    "midi": 55,
                    "time": 13.4375,
                    "velocity": 0.7086614173228346,
                    "duration": 0.3125
                },
                {
                    "name": "C#4",
                    "midi": 61,
                    "time": 13.4375,
                    "velocity": 0.7086614173228346,
                    "duration": 0.3125
                },
                {
                    "name": "B3",
                    "midi": 59,
                    "time": 14.0625,
                    "velocity": 0.7086614173228346,
                    "duration": 0.3125
                },
                {
                    "name": "E4",
                    "midi": 64,
                    "time": 14.0625,
                    "velocity": 0.7086614173228346,
                    "duration": 0.3125
                },
                {
                    "name": "F#4",
                    "midi": 66,
                    "time": 14.375,
                    "velocity": 0.3858267716535433,
                    "duration": 0.625
                },
                {
                    "name": "F#5",
                    "midi": 78,
                    "time": 14.375,
                    "velocity": 0.3858267716535433,
                    "duration": 0.625
                },
                {
                    "name": "G4",
                    "midi": 67,
                    "time": 15,
                    "velocity": 0.3858267716535433,
                    "duration": 0.625
                },
                {
                    "name": "G5",
                    "midi": 79,
                    "time": 15,
                    "velocity": 0.3858267716535433,
                    "duration": 0.625
                },
                {
                    "name": "G#4",
                    "midi": 68,
                    "time": 15.625,
                    "velocity": 0.3858267716535433,
                    "duration": 0.625
                },
                {
                    "name": "G#5",
                    "midi": 80,
                    "time": 15.625,
                    "velocity": 0.3858267716535433,
                    "duration": 0.625
                },
                {
                    "name": "A4",
                    "midi": 69,
                    "time": 16.25,
                    "velocity": 0.3858267716535433,
                    "duration": 0.625
                },
                {
                    "name": "A5",
                    "midi": 81,
                    "time": 16.25,
                    "velocity": 0.3858267716535433,
                    "duration": 0.625
                },
                {
                    "name": "F#4",
                    "midi": 66,
                    "time": 16.875,
                    "velocity": 0.3858267716535433,
                    "duration": 0.625
                },
                {
                    "name": "F#5",
                    "midi": 78,
                    "time": 16.875,
                    "velocity": 0.3858267716535433,
                    "duration": 0.625
                },
                {
                    "name": "G4",
                    "midi": 67,
                    "time": 17.5,
                    "velocity": 0.3858267716535433,
                    "duration": 0.625
                },
                {
                    "name": "G5",
                    "midi": 79,
                    "time": 17.5,
                    "velocity": 0.3858267716535433,
                    "duration": 0.625
                },
                {
                    "name": "G#4",
                    "midi": 68,
                    "time": 18.4375,
                    "velocity": 0.3858267716535433,
                    "duration": 0.06119791666666785
                },
                {
                    "name": "G#5",
                    "midi": 80,
                    "time": 18.4375,
                    "velocity": 0.3858267716535433,
                    "duration": 0.06119791666666785
                },
                {
                    "name": "A4",
                    "midi": 69,
                    "time": 19.0625,
                    "velocity": 0.3858267716535433,
                    "duration": 0.06119791666666785
                },
                {
                    "name": "A5",
                    "midi": 81,
                    "time": 19.0625,
                    "velocity": 0.3858267716535433,
                    "duration": 0.06119791666666785
                },
                {
                    "name": "B5",
                    "midi": 83,
                    "time": 19.296875,
                    "velocity": 0.4881889763779528,
                    "duration": 0.078125
                },
                {
                    "name": "C6",
                    "midi": 84,
                    "time": 19.375,
                    "velocity": 0.4881889763779528,
                    "duration": 0.06119791666666785
                },
                {
                    "name": "D5",
                    "midi": 74,
                    "time": 19.6875,
                    "velocity": 0.4881889763779528,
                    "duration": 0.06119791666666785
                },
                {
                    "name": "E5",
                    "midi": 76,
                    "time": 20,
                    "velocity": 0.6929133858267716,
                    "duration": 0.625
                },
                {
                    "name": "B5",
                    "midi": 83,
                    "time": 20.546875,
                    "velocity": 0.4881889763779528,
                    "duration": 0.078125
                },
                {
                    "name": "C6",
                    "midi": 84,
                    "time": 20.625,
                    "velocity": 0.4881889763779528,
                    "duration": 0.06119791666666785
                },
                {
                    "name": "D5",
                    "midi": 74,
                    "time": 20.9375,
                    "velocity": 0.4881889763779528,
                    "duration": 0.06119791666666785
                },
                {
                    "name": "E5",
                    "midi": 76,
                    "time": 21.25,
                    "velocity": 0.4881889763779528,
                    "duration": 0.06119791666666785
                },
                {
                    "name": "D6",
                    "midi": 86,
                    "time": 21.5625,
                    "velocity": 0.4881889763779528,
                    "duration": 0.06119791666666785
                },
                {
                    "name": "E6",
                    "midi": 88,
                    "time": 21.875,
                    "velocity": 0.4881889763779528,
                    "duration": 0.02994791666666785
                },
                {
                    "name": "E6",
                    "midi": 88,
                    "time": 22.03125,
                    "velocity": 0.4881889763779528,
                    "duration": 0.02994791666666785
                },
                {
                    "name": "E6",
                    "midi": 88,
                    "time": 22.1875,
                    "velocity": 0.5905511811023622,
                    "duration": 0.02994791666666785
                },
                {
                    "name": "E6",
                    "midi": 88,
                    "time": 22.34375,
                    "velocity": 0.5905511811023622,
                    "duration": 0.02994791666666785
                },
                {
                    "name": "E6",
                    "midi": 88,
                    "time": 22.5,
                    "velocity": 0.5905511811023622,
                    "duration": 0.06119791666666785
                },
                {
                    "name": "A6",
                    "midi": 93,
                    "time": 22.8125,
                    "velocity": 0.5905511811023622,
                    "duration": 0.06119791666666785
                },
                {
                    "name": "G6",
                    "midi": 91,
                    "time": 23.125,
                    "velocity": 0.7952755905511811,
                    "duration": 0.625
                },
                {
                    "name": "F6",
                    "midi": 89,
                    "time": 23.75,
                    "velocity": 0.5905511811023622,
                    "duration": 0.625
                },
                {
                    "name": "C5",
                    "midi": 72,
                    "time": 24.375,
                    "velocity": 0.4881889763779528,
                    "duration": 0.02994791666666785
                },
                {
                    "name": "C5",
                    "midi": 72,
                    "time": 24.53125,
                    "velocity": 0.4881889763779528,
                    "duration": 0.02994791666666785
                },
                {
                    "name": "C5",
                    "midi": 72,
                    "time": 24.6875,
                    "velocity": 0.4881889763779528,
                    "duration": 0.02994791666666785
                },
                {
                    "name": "C5",
                    "midi": 72,
                    "time": 24.84375,
                    "velocity": 0.4881889763779528,
                    "duration": 0.02994791666666785
                },
                {
                    "name": "D5",
                    "midi": 74,
                    "time": 25,
                    "velocity": 0.4881889763779528,
                    "duration": 0.06119791666666785
                },
                {
                    "name": "C5",
                    "midi": 72,
                    "time": 25.3125,
                    "velocity": 0.4881889763779528,
                    "duration": 0.06119791666666785
                },
                {
                    "name": "C4",
                    "midi": 60,
                    "time": 26.875,
                    "velocity": 0.6929133858267716,
                    "duration": 0.02994791666666785
                },
                {
                    "name": "C4",
                    "midi": 60,
                    "time": 27.03125,
                    "velocity": 0.4881889763779528,
                    "duration": 0.02994791666666785
                },
                {
                    "name": "C4",
                    "midi": 60,
                    "time": 27.1875,
                    "velocity": 0.4881889763779528,
                    "duration": 0.02994791666666785
                },
                {
                    "name": "C4",
                    "midi": 60,
                    "time": 27.34375,
                    "velocity": 0.4881889763779528,
                    "duration": 0.02994791666666785
                },
                {
                    "name": "D4",
                    "midi": 62,
                    "time": 27.5,
                    "velocity": 0.6929133858267716,
                    "duration": 0.06119791666666785
                },
                {
                    "name": "C4",
                    "midi": 60,
                    "time": 27.8125,
                    "velocity": 0.6929133858267716,
                    "duration": 1.5625
                },
                {
                    "name": "A#4",
                    "midi": 70,
                    "time": 29.375,
                    "velocity": 0.5905511811023622,
                    "duration": 0.625
                },
                {
                    "name": "C#5",
                    "midi": 73,
                    "time": 29.375,
                    "velocity": 0.5905511811023622,
                    "duration": 0.625
                },
                {
                    "name": "F#5",
                    "midi": 78,
                    "time": 29.375,
                    "velocity": 0.5905511811023622,
                    "duration": 0.625
                },
                {
                    "name": "A#5",
                    "midi": 82,
                    "time": 29.375,
                    "velocity": 0.5905511811023622,
                    "duration": 0.625
                },
                {
                    "name": "A4",
                    "midi": 69,
                    "time": 30,
                    "velocity": 0.4881889763779528,
                    "duration": 0.06119791666666785
                },
                {
                    "name": "C5",
                    "midi": 72,
                    "time": 30,
                    "velocity": 0.4881889763779528,
                    "duration": 0.06119791666666785
                },
                {
                    "name": "F5",
                    "midi": 77,
                    "time": 30,
                    "velocity": 0.4881889763779528,
                    "duration": 0.06119791666666785
                },
                {
                    "name": "A5",
                    "midi": 81,
                    "time": 30,
                    "velocity": 0.4881889763779528,
                    "duration": 0.06119791666666785
                },
                {
                    "name": "B3",
                    "midi": 59,
                    "time": 34.6875,
                    "velocity": 0.4881889763779528,
                    "duration": 0.3125
                },
                {
                    "name": "F4",
                    "midi": 65,
                    "time": 34.6875,
                    "velocity": 0.4881889763779528,
                    "duration": 0.3125
                },
                {
                    "name": "B3",
                    "midi": 59,
                    "time": 35.3125,
                    "velocity": 0.4881889763779528,
                    "duration": 0.3125
                },
                {
                    "name": "F4",
                    "midi": 65,
                    "time": 35.3125,
                    "velocity": 0.4881889763779528,
                    "duration": 0.3125
                },
                {
                    "name": "B3",
                    "midi": 59,
                    "time": 35.9375,
                    "velocity": 0.4881889763779528,
                    "duration": 0.3125
                },
                {
                    "name": "F4",
                    "midi": 65,
                    "time": 35.9375,
                    "velocity": 0.4881889763779528,
                    "duration": 0.3125
                },
                {
                    "name": "B3",
                    "midi": 59,
                    "time": 36.5625,
                    "velocity": 0.4881889763779528,
                    "duration": 0.3125
                },
                {
                    "name": "F4",
                    "midi": 65,
                    "time": 36.5625,
                    "velocity": 0.4881889763779528,
                    "duration": 0.3125
                },
                {
                    "name": "B3",
                    "midi": 59,
                    "time": 37.1875,
                    "velocity": 0.4881889763779528,
                    "duration": 0.3125
                },
                {
                    "name": "F4",
                    "midi": 65,
                    "time": 37.1875,
                    "velocity": 0.4881889763779528,
                    "duration": 0.3125
                },
                {
                    "name": "B3",
                    "midi": 59,
                    "time": 37.8125,
                    "velocity": 0.4881889763779528,
                    "duration": 0.3125
                },
                {
                    "name": "F4",
                    "midi": 65,
                    "time": 37.8125,
                    "velocity": 0.4881889763779528,
                    "duration": 0.3125
                },
                {
                    "name": "B3",
                    "midi": 59,
                    "time": 38.4375,
                    "velocity": 0.4881889763779528,
                    "duration": 0.3125
                },
                {
                    "name": "F4",
                    "midi": 65,
                    "time": 38.4375,
                    "velocity": 0.4881889763779528,
                    "duration": 0.3125
                },
                {
                    "name": "B3",
                    "midi": 59,
                    "time": 39.0625,
                    "velocity": 0.4881889763779528,
                    "duration": 0.3125
                },
                {
                    "name": "F4",
                    "midi": 65,
                    "time": 39.0625,
                    "velocity": 0.4881889763779528,
                    "duration": 0.3125
                },
                {
                    "name": "C#6",
                    "midi": 85,
                    "time": 39.375,
                    "velocity": 0.6929133858267716,
                    "duration": 0.15625
                },
                {
                    "name": "D#6",
                    "midi": 87,
                    "time": 39.53125,
                    "velocity": 0.4881889763779528,
                    "duration": 0.15625
                },
                {
                    "name": "G#5",
                    "midi": 80,
                    "time": 39.6875,
                    "velocity": 0.4881889763779528,
                    "duration": 0.15625
                },
                {
                    "name": "A#5",
                    "midi": 82,
                    "time": 39.84375,
                    "velocity": 0.4881889763779528,
                    "duration": 0.15625
                },
                {
                    "name": "C#5",
                    "midi": 73,
                    "time": 40,
                    "velocity": 0.4881889763779528,
                    "duration": 0.3125
                },
                {
                    "name": "C#6",
                    "midi": 85,
                    "time": 40.3125,
                    "velocity": 0.4881889763779528,
                    "duration": 0.15625
                },
                {
                    "name": "D#6",
                    "midi": 87,
                    "time": 40.46875,
                    "velocity": 0.4881889763779528,
                    "duration": 0.15625
                },
                {
                    "name": "G#5",
                    "midi": 80,
                    "time": 40.625,
                    "velocity": 0.4881889763779528,
                    "duration": 0.15625
                },
                {
                    "name": "A#5",
                    "midi": 82,
                    "time": 40.78125,
                    "velocity": 0.4881889763779528,
                    "duration": 0.15625
                },
                {
                    "name": "C#5",
                    "midi": 73,
                    "time": 40.9375,
                    "velocity": 0.4881889763779528,
                    "duration": 0.3125
                },
                {
                    "name": "C#6",
                    "midi": 85,
                    "time": 41.25,
                    "velocity": 0.4881889763779528,
                    "duration": 0.15625
                },
                {
                    "name": "D#6",
                    "midi": 87,
                    "time": 41.40625,
                    "velocity": 0.4881889763779528,
                    "duration": 0.15625
                },
                {
                    "name": "G#5",
                    "midi": 80,
                    "time": 41.5625,
                    "velocity": 0.4881889763779528,
                    "duration": 0.15625
                },
                {
                    "name": "A#5",
                    "midi": 82,
                    "time": 41.71875,
                    "velocity": 0.4881889763779528,
                    "duration": 0.15625
                },
                {
                    "name": "C#5",
                    "midi": 73,
                    "time": 41.875,
                    "velocity": 0.4881889763779528,
                    "duration": 0.3125
                },
                {
                    "name": "C#6",
                    "midi": 85,
                    "time": 42.1875,
                    "velocity": 0.4881889763779528,
                    "duration": 0.15625
                },
                {
                    "name": "D#6",
                    "midi": 87,
                    "time": 42.34375,
                    "velocity": 0.4881889763779528,
                    "duration": 0.15625
                },
                {
                    "name": "G#5",
                    "midi": 80,
                    "time": 42.5,
                    "velocity": 0.4881889763779528,
                    "duration": 0.15625
                },
                {
                    "name": "A#5",
                    "midi": 82,
                    "time": 42.65625,
                    "velocity": 0.4881889763779528,
                    "duration": 0.15625
                },
                {
                    "name": "C#5",
                    "midi": 73,
                    "time": 42.8125,
                    "velocity": 0.4881889763779528,
                    "duration": 0.3125
                },
                {
                    "name": "C#6",
                    "midi": 85,
                    "time": 43.125,
                    "velocity": 0.4881889763779528,
                    "duration": 0.15625
                },
                {
                    "name": "D#6",
                    "midi": 87,
                    "time": 43.28125,
                    "velocity": 0.4881889763779528,
                    "duration": 0.15625
                },
                {
                    "name": "G#5",
                    "midi": 80,
                    "time": 43.4375,
                    "velocity": 0.4881889763779528,
                    "duration": 0.15625
                },
                {
                    "name": "A#5",
                    "midi": 82,
                    "time": 43.59375,
                    "velocity": 0.4881889763779528,
                    "duration": 0.15625
                },
                {
                    "name": "C#5",
                    "midi": 73,
                    "time": 43.75,
                    "velocity": 0.4881889763779528,
                    "duration": 0.15625
                },
                {
                    "name": "D#5",
                    "midi": 75,
                    "time": 43.90625,
                    "velocity": 0.4881889763779528,
                    "duration": 0.15625
                },
                {
                    "name": "F5",
                    "midi": 77,
                    "time": 44.0625,
                    "velocity": 0.4881889763779528,
                    "duration": 0.15625
                },
                {
                    "name": "F#5",
                    "midi": 78,
                    "time": 44.21875,
                    "velocity": 0.4881889763779528,
                    "duration": 0.15625
                },
                {
                    "name": "G#5",
                    "midi": 80,
                    "time": 44.375,
                    "velocity": 0.4881889763779528,
                    "duration": 0.15625
                },
                {
                    "name": "B3",
                    "midi": 59,
                    "time": 44.6875,
                    "velocity": 0.4881889763779528,
                    "duration": 0.3125
                },
                {
                    "name": "F4",
                    "midi": 65,
                    "time": 44.6875,
                    "velocity": 0.4881889763779528,
                    "duration": 0.3125
                },
                {
                    "name": "B3",
                    "midi": 59,
                    "time": 45.3125,
                    "velocity": 0.4881889763779528,
                    "duration": 0.3125
                },
                {
                    "name": "F4",
                    "midi": 65,
                    "time": 45.3125,
                    "velocity": 0.4881889763779528,
                    "duration": 0.3125
                },
                {
                    "name": "B3",
                    "midi": 59,
                    "time": 45.9375,
                    "velocity": 0.4881889763779528,
                    "duration": 0.3125
                },
                {
                    "name": "F4",
                    "midi": 65,
                    "time": 45.9375,
                    "velocity": 0.4881889763779528,
                    "duration": 0.3125
                },
                {
                    "name": "B3",
                    "midi": 59,
                    "time": 46.5625,
                    "velocity": 0.4881889763779528,
                    "duration": 0.3125
                },
                {
                    "name": "F4",
                    "midi": 65,
                    "time": 46.5625,
                    "velocity": 0.4881889763779528,
                    "duration": 0.3125
                },
                {
                    "name": "B3",
                    "midi": 59,
                    "time": 47.1875,
                    "velocity": 0.4881889763779528,
                    "duration": 0.3125
                },
                {
                    "name": "F4",
                    "midi": 65,
                    "time": 47.1875,
                    "velocity": 0.4881889763779528,
                    "duration": 0.3125
                },
                {
                    "name": "B3",
                    "midi": 59,
                    "time": 47.8125,
                    "velocity": 0.4881889763779528,
                    "duration": 0.3125
                },
                {
                    "name": "F4",
                    "midi": 65,
                    "time": 47.8125,
                    "velocity": 0.4881889763779528,
                    "duration": 0.3125
                },
                {
                    "name": "B3",
                    "midi": 59,
                    "time": 48.4375,
                    "velocity": 0.4881889763779528,
                    "duration": 0.3125
                },
                {
                    "name": "F4",
                    "midi": 65,
                    "time": 48.4375,
                    "velocity": 0.4881889763779528,
                    "duration": 0.3125
                },
                {
                    "name": "B3",
                    "midi": 59,
                    "time": 49.0625,
                    "velocity": 0.4881889763779528,
                    "duration": 0.3125
                },
                {
                    "name": "F4",
                    "midi": 65,
                    "time": 49.0625,
                    "velocity": 0.4881889763779528,
                    "duration": 0.3125
                },
                {
                    "name": "A5",
                    "midi": 81,
                    "time": 49.375,
                    "velocity": 0.4881889763779528,
                    "duration": 0.15625
                },
                {
                    "name": "C#6",
                    "midi": 85,
                    "time": 49.375,
                    "velocity": 0.4881889763779528,
                    "duration": 0.15625
                },
                {
                    "name": "B5",
                    "midi": 83,
                    "time": 49.53125,
                    "velocity": 0.4881889763779528,
                    "duration": 0.15625
                },
                {
                    "name": "D#6",
                    "midi": 87,
                    "time": 49.53125,
                    "velocity": 0.4881889763779528,
                    "duration": 0.15625
                },
                {
                    "name": "A5",
                    "midi": 81,
                    "time": 49.6875,
                    "velocity": 0.4881889763779528,
                    "duration": 0.15625
                },
                {
                    "name": "C#6",
                    "midi": 85,
                    "time": 49.6875,
                    "velocity": 0.4881889763779528,
                    "duration": 0.15625
                },
                {
                    "name": "B5",
                    "midi": 83,
                    "time": 49.84375,
                    "velocity": 0.4881889763779528,
                    "duration": 0.15625
                },
                {
                    "name": "D#6",
                    "midi": 87,
                    "time": 49.84375,
                    "velocity": 0.4881889763779528,
                    "duration": 0.15625
                },
                {
                    "name": "A5",
                    "midi": 81,
                    "time": 50,
                    "velocity": 0.4881889763779528,
                    "duration": 0.3125
                },
                {
                    "name": "C#6",
                    "midi": 85,
                    "time": 50,
                    "velocity": 0.4881889763779528,
                    "duration": 0.3125
                },
                {
                    "name": "C#5",
                    "midi": 73,
                    "time": 50.3125,
                    "velocity": 0.4881889763779528,
                    "duration": 0.1041666666666643
                },
                {
                    "name": "F5",
                    "midi": 77,
                    "time": 50.3125,
                    "velocity": 0.4881889763779528,
                    "duration": 0.1041666666666643
                },
                {
                    "name": "D#5",
                    "midi": 75,
                    "time": 50.416666666666664,
                    "velocity": 0.4881889763779528,
                    "duration": 0.1028645833333357
                },
                {
                    "name": "G5",
                    "midi": 79,
                    "time": 50.416666666666664,
                    "velocity": 0.4881889763779528,
                    "duration": 0.1028645833333357
                },
                {
                    "name": "F5",
                    "midi": 77,
                    "time": 50.51953125,
                    "velocity": 0.4881889763779528,
                    "duration": 0.10546875
                },
                {
                    "name": "A5",
                    "midi": 81,
                    "time": 50.51953125,
                    "velocity": 0.4881889763779528,
                    "duration": 0.10546875
                },
                {
                    "name": "G5",
                    "midi": 79,
                    "time": 50.625,
                    "velocity": 0.4881889763779528,
                    "duration": 0.15625
                },
                {
                    "name": "B5",
                    "midi": 83,
                    "time": 50.625,
                    "velocity": 0.4881889763779528,
                    "duration": 0.15625
                },
                {
                    "name": "A5",
                    "midi": 81,
                    "time": 50.78125,
                    "velocity": 0.4881889763779528,
                    "duration": 0.15625
                },
                {
                    "name": "C#6",
                    "midi": 85,
                    "time": 50.78125,
                    "velocity": 0.4881889763779528,
                    "duration": 0.15625
                },
                {
                    "name": "G5",
                    "midi": 79,
                    "time": 50.9375,
                    "velocity": 0.4881889763779528,
                    "duration": 0.15625
                },
                {
                    "name": "B5",
                    "midi": 83,
                    "time": 50.9375,
                    "velocity": 0.4881889763779528,
                    "duration": 0.15625
                },
                {
                    "name": "A5",
                    "midi": 81,
                    "time": 51.09375,
                    "velocity": 0.4881889763779528,
                    "duration": 0.15625
                },
                {
                    "name": "C#6",
                    "midi": 85,
                    "time": 51.09375,
                    "velocity": 0.4881889763779528,
                    "duration": 0.15625
                },
                {
                    "name": "G5",
                    "midi": 79,
                    "time": 51.25,
                    "velocity": 0.4881889763779528,
                    "duration": 0.3125
                },
                {
                    "name": "B5",
                    "midi": 83,
                    "time": 51.25,
                    "velocity": 0.4881889763779528,
                    "duration": 0.3125
                },
                {
                    "name": "D#5",
                    "midi": 75,
                    "time": 51.5625,
                    "velocity": 0.4881889763779528,
                    "duration": 0.1041666666666643
                },
                {
                    "name": "G5",
                    "midi": 79,
                    "time": 51.5625,
                    "velocity": 0.4881889763779528,
                    "duration": 0.1041666666666643
                },
                {
                    "name": "F5",
                    "midi": 77,
                    "time": 51.666666666666664,
                    "velocity": 0.4881889763779528,
                    "duration": 0.1028645833333357
                },
                {
                    "name": "A5",
                    "midi": 81,
                    "time": 51.666666666666664,
                    "velocity": 0.4881889763779528,
                    "duration": 0.1028645833333357
                },
                {
                    "name": "G5",
                    "midi": 79,
                    "time": 51.76953125,
                    "velocity": 0.4881889763779528,
                    "duration": 0.10546875
                },
                {
                    "name": "B5",
                    "midi": 83,
                    "time": 51.76953125,
                    "velocity": 0.4881889763779528,
                    "duration": 0.10546875
                },
                {
                    "name": "A5",
                    "midi": 81,
                    "time": 51.875,
                    "velocity": 0.4881889763779528,
                    "duration": 0.15625
                },
                {
                    "name": "C#6",
                    "midi": 85,
                    "time": 51.875,
                    "velocity": 0.4881889763779528,
                    "duration": 0.15625
                },
                {
                    "name": "B5",
                    "midi": 83,
                    "time": 52.03125,
                    "velocity": 0.4881889763779528,
                    "duration": 0.15625
                },
                {
                    "name": "D#6",
                    "midi": 87,
                    "time": 52.03125,
                    "velocity": 0.4881889763779528,
                    "duration": 0.15625
                },
                {
                    "name": "A5",
                    "midi": 81,
                    "time": 52.1875,
                    "velocity": 0.4881889763779528,
                    "duration": 0.15625
                },
                {
                    "name": "C#6",
                    "midi": 85,
                    "time": 52.1875,
                    "velocity": 0.4881889763779528,
                    "duration": 0.15625
                },
                {
                    "name": "B5",
                    "midi": 83,
                    "time": 52.34375,
                    "velocity": 0.4881889763779528,
                    "duration": 0.15625
                },
                {
                    "name": "D#6",
                    "midi": 87,
                    "time": 52.34375,
                    "velocity": 0.4881889763779528,
                    "duration": 0.15625
                },
                {
                    "name": "A5",
                    "midi": 81,
                    "time": 52.5,
                    "velocity": 0.4881889763779528,
                    "duration": 0.3125
                },
                {
                    "name": "C#6",
                    "midi": 85,
                    "time": 52.5,
                    "velocity": 0.4881889763779528,
                    "duration": 0.3125
                },
                {
                    "name": "C#5",
                    "midi": 73,
                    "time": 52.8125,
                    "velocity": 0.4881889763779528,
                    "duration": 0.1041666666666643
                },
                {
                    "name": "F5",
                    "midi": 77,
                    "time": 52.8125,
                    "velocity": 0.4881889763779528,
                    "duration": 0.1041666666666643
                },
                {
                    "name": "D#5",
                    "midi": 75,
                    "time": 52.916666666666664,
                    "velocity": 0.4881889763779528,
                    "duration": 0.1028645833333357
                },
                {
                    "name": "G5",
                    "midi": 79,
                    "time": 52.916666666666664,
                    "velocity": 0.4881889763779528,
                    "duration": 0.1028645833333357
                },
                {
                    "name": "F5",
                    "midi": 77,
                    "time": 53.01953125,
                    "velocity": 0.4881889763779528,
                    "duration": 0.10546875
                },
                {
                    "name": "A5",
                    "midi": 81,
                    "time": 53.01953125,
                    "velocity": 0.4881889763779528,
                    "duration": 0.10546875
                },
                {
                    "name": "G5",
                    "midi": 79,
                    "time": 53.125,
                    "velocity": 0.4881889763779528,
                    "duration": 0.15625
                },
                {
                    "name": "B5",
                    "midi": 83,
                    "time": 53.125,
                    "velocity": 0.4881889763779528,
                    "duration": 0.15625
                },
                {
                    "name": "A5",
                    "midi": 81,
                    "time": 53.28125,
                    "velocity": 0.4881889763779528,
                    "duration": 0.15625
                },
                {
                    "name": "C#6",
                    "midi": 85,
                    "time": 53.28125,
                    "velocity": 0.4881889763779528,
                    "duration": 0.15625
                },
                {
                    "name": "G5",
                    "midi": 79,
                    "time": 53.4375,
                    "velocity": 0.4881889763779528,
                    "duration": 0.15625
                },
                {
                    "name": "B5",
                    "midi": 83,
                    "time": 53.4375,
                    "velocity": 0.4881889763779528,
                    "duration": 0.15625
                },
                {
                    "name": "A5",
                    "midi": 81,
                    "time": 53.59375,
                    "velocity": 0.4881889763779528,
                    "duration": 0.15625
                },
                {
                    "name": "C#6",
                    "midi": 85,
                    "time": 53.59375,
                    "velocity": 0.4881889763779528,
                    "duration": 0.15625
                },
                {
                    "name": "G5",
                    "midi": 79,
                    "time": 53.75,
                    "velocity": 0.4881889763779528,
                    "duration": 0.3125
                },
                {
                    "name": "B5",
                    "midi": 83,
                    "time": 53.75,
                    "velocity": 0.4881889763779528,
                    "duration": 0.3125
                },
                {
                    "name": "D#5",
                    "midi": 75,
                    "time": 54.0625,
                    "velocity": 0.4881889763779528,
                    "duration": 0.1041666666666643
                },
                {
                    "name": "G5",
                    "midi": 79,
                    "time": 54.0625,
                    "velocity": 0.4881889763779528,
                    "duration": 0.1041666666666643
                },
                {
                    "name": "F5",
                    "midi": 77,
                    "time": 54.166666666666664,
                    "velocity": 0.4881889763779528,
                    "duration": 0.1028645833333357
                },
                {
                    "name": "A5",
                    "midi": 81,
                    "time": 54.166666666666664,
                    "velocity": 0.4881889763779528,
                    "duration": 0.1028645833333357
                },
                {
                    "name": "G5",
                    "midi": 79,
                    "time": 54.26953125,
                    "velocity": 0.4881889763779528,
                    "duration": 0.10546875
                },
                {
                    "name": "B5",
                    "midi": 83,
                    "time": 54.26953125,
                    "velocity": 0.4881889763779528,
                    "duration": 0.10546875
                },
                {
                    "name": "F#5",
                    "midi": 78,
                    "time": 54.375,
                    "velocity": 0.4881889763779528,
                    "duration": 0.3125
                },
                {
                    "name": "D6",
                    "midi": 86,
                    "time": 54.375,
                    "velocity": 0.4881889763779528,
                    "duration": 0.3125
                },
                {
                    "name": "C4",
                    "midi": 60,
                    "time": 54.6875,
                    "velocity": 0.4881889763779528,
                    "duration": 0.3125
                },
                {
                    "name": "F#4",
                    "midi": 66,
                    "time": 54.6875,
                    "velocity": 0.4881889763779528,
                    "duration": 0.3125
                },
                {
                    "name": "C4",
                    "midi": 60,
                    "time": 55.3125,
                    "velocity": 0.4881889763779528,
                    "duration": 0.3125
                },
                {
                    "name": "F#4",
                    "midi": 66,
                    "time": 55.3125,
                    "velocity": 0.4881889763779528,
                    "duration": 0.3125
                },
                {
                    "name": "C4",
                    "midi": 60,
                    "time": 55.9375,
                    "velocity": 0.4881889763779528,
                    "duration": 0.3125
                },
                {
                    "name": "F#4",
                    "midi": 66,
                    "time": 55.9375,
                    "velocity": 0.4881889763779528,
                    "duration": 0.3125
                },
                {
                    "name": "C4",
                    "midi": 60,
                    "time": 56.5625,
                    "velocity": 0.4881889763779528,
                    "duration": 0.3125
                },
                {
                    "name": "F#4",
                    "midi": 66,
                    "time": 56.5625,
                    "velocity": 0.4881889763779528,
                    "duration": 0.3125
                },
                {
                    "name": "C4",
                    "midi": 60,
                    "time": 57.1875,
                    "velocity": 0.4881889763779528,
                    "duration": 0.3125
                },
                {
                    "name": "F#4",
                    "midi": 66,
                    "time": 57.1875,
                    "velocity": 0.4881889763779528,
                    "duration": 0.3125
                },
                {
                    "name": "C4",
                    "midi": 60,
                    "time": 57.8125,
                    "velocity": 0.4881889763779528,
                    "duration": 0.3125
                },
                {
                    "name": "F#4",
                    "midi": 66,
                    "time": 57.8125,
                    "velocity": 0.4881889763779528,
                    "duration": 0.3125
                },
                {
                    "name": "C4",
                    "midi": 60,
                    "time": 58.4375,
                    "velocity": 0.4881889763779528,
                    "duration": 0.3125
                },
                {
                    "name": "F#4",
                    "midi": 66,
                    "time": 58.4375,
                    "velocity": 0.4881889763779528,
                    "duration": 0.3125
                },
                {
                    "name": "C4",
                    "midi": 60,
                    "time": 59.0625,
                    "velocity": 0.4881889763779528,
                    "duration": 0.3125
                },
                {
                    "name": "F#4",
                    "midi": 66,
                    "time": 59.0625,
                    "velocity": 0.4881889763779528,
                    "duration": 0.3125
                },
                {
                    "name": "D6",
                    "midi": 86,
                    "time": 59.375,
                    "velocity": 0.4881889763779528,
                    "duration": 0.15625
                },
                {
                    "name": "E6",
                    "midi": 88,
                    "time": 59.53125,
                    "velocity": 0.4881889763779528,
                    "duration": 0.15625
                },
                {
                    "name": "A5",
                    "midi": 81,
                    "time": 59.6875,
                    "velocity": 0.4881889763779528,
                    "duration": 0.15625
                },
                {
                    "name": "B5",
                    "midi": 83,
                    "time": 59.84375,
                    "velocity": 0.4881889763779528,
                    "duration": 0.15625
                },
                {
                    "name": "D5",
                    "midi": 74,
                    "time": 60,
                    "velocity": 0.4881889763779528,
                    "duration": 0.3125
                },
                {
                    "name": "D6",
                    "midi": 86,
                    "time": 60.3125,
                    "velocity": 0.4881889763779528,
                    "duration": 0.15625
                },
                {
                    "name": "E6",
                    "midi": 88,
                    "time": 60.46875,
                    "velocity": 0.4881889763779528,
                    "duration": 0.15625
                },
                {
                    "name": "A5",
                    "midi": 81,
                    "time": 60.625,
                    "velocity": 0.4881889763779528,
                    "duration": 0.15625
                },
                {
                    "name": "B5",
                    "midi": 83,
                    "time": 60.78125,
                    "velocity": 0.4881889763779528,
                    "duration": 0.15625
                },
                {
                    "name": "D5",
                    "midi": 74,
                    "time": 60.9375,
                    "velocity": 0.4881889763779528,
                    "duration": 0.3125
                },
                {
                    "name": "D6",
                    "midi": 86,
                    "time": 61.25,
                    "velocity": 0.4881889763779528,
                    "duration": 0.15625
                },
                {
                    "name": "E6",
                    "midi": 88,
                    "time": 61.40625,
                    "velocity": 0.4881889763779528,
                    "duration": 0.15625
                },
                {
                    "name": "A5",
                    "midi": 81,
                    "time": 61.5625,
                    "velocity": 0.4881889763779528,
                    "duration": 0.15625
                },
                {
                    "name": "B5",
                    "midi": 83,
                    "time": 61.71875,
                    "velocity": 0.4881889763779528,
                    "duration": 0.15625
                },
                {
                    "name": "D5",
                    "midi": 74,
                    "time": 61.875,
                    "velocity": 0.4881889763779528,
                    "duration": 0.3125
                },
                {
                    "name": "D6",
                    "midi": 86,
                    "time": 62.1875,
                    "velocity": 0.4881889763779528,
                    "duration": 0.15625
                },
                {
                    "name": "E6",
                    "midi": 88,
                    "time": 62.34375,
                    "velocity": 0.4881889763779528,
                    "duration": 0.15625
                },
                {
                    "name": "A5",
                    "midi": 81,
                    "time": 62.5,
                    "velocity": 0.4881889763779528,
                    "duration": 0.15625
                },
                {
                    "name": "B5",
                    "midi": 83,
                    "time": 62.65625,
                    "velocity": 0.4881889763779528,
                    "duration": 0.15625
                },
                {
                    "name": "D5",
                    "midi": 74,
                    "time": 62.8125,
                    "velocity": 0.4881889763779528,
                    "duration": 0.3125
                },
                {
                    "name": "D6",
                    "midi": 86,
                    "time": 63.125,
                    "velocity": 0.4881889763779528,
                    "duration": 0.15625
                },
                {
                    "name": "E6",
                    "midi": 88,
                    "time": 63.28125,
                    "velocity": 0.4881889763779528,
                    "duration": 0.15625
                },
                {
                    "name": "A5",
                    "midi": 81,
                    "time": 63.4375,
                    "velocity": 0.4881889763779528,
                    "duration": 0.15625
                },
                {
                    "name": "B5",
                    "midi": 83,
                    "time": 63.59375,
                    "velocity": 0.4881889763779528,
                    "duration": 0.15625
                },
                {
                    "name": "D5",
                    "midi": 74,
                    "time": 63.75,
                    "velocity": 0.4881889763779528,
                    "duration": 0.15625
                },
                {
                    "name": "E5",
                    "midi": 76,
                    "time": 63.90625,
                    "velocity": 0.4881889763779528,
                    "duration": 0.15625
                },
                {
                    "name": "F#5",
                    "midi": 78,
                    "time": 64.0625,
                    "velocity": 0.4881889763779528,
                    "duration": 0.15625
                },
                {
                    "name": "G5",
                    "midi": 79,
                    "time": 64.21875,
                    "velocity": 0.4881889763779528,
                    "duration": 0.15625
                },
                {
                    "name": "D5",
                    "midi": 74,
                    "time": 64.375,
                    "velocity": 0.4881889763779528,
                    "duration": 0.078125
                },
                {
                    "name": "A5",
                    "midi": 81,
                    "time": 64.375,
                    "velocity": 0.4881889763779528,
                    "duration": 0.15625
                },
                {
                    "name": "C5",
                    "midi": 72,
                    "time": 64.453125,
                    "velocity": 0.4881889763779528,
                    "duration": 0.078125
                },
                {
                    "name": "C4",
                    "midi": 60,
                    "time": 64.6875,
                    "velocity": 0.4881889763779528,
                    "duration": 0.3125
                },
                {
                    "name": "F#4",
                    "midi": 66,
                    "time": 64.6875,
                    "velocity": 0.4881889763779528,
                    "duration": 0.3125
                },
                {
                    "name": "C4",
                    "midi": 60,
                    "time": 65.3125,
                    "velocity": 0.4881889763779528,
                    "duration": 0.3125
                },
                {
                    "name": "F#4",
                    "midi": 66,
                    "time": 65.3125,
                    "velocity": 0.4881889763779528,
                    "duration": 0.3125
                },
                {
                    "name": "C4",
                    "midi": 60,
                    "time": 65.9375,
                    "velocity": 0.4881889763779528,
                    "duration": 0.3125
                },
                {
                    "name": "F#4",
                    "midi": 66,
                    "time": 65.9375,
                    "velocity": 0.4881889763779528,
                    "duration": 0.3125
                },
                {
                    "name": "C4",
                    "midi": 60,
                    "time": 66.5625,
                    "velocity": 0.4881889763779528,
                    "duration": 0.3125
                },
                {
                    "name": "F#4",
                    "midi": 66,
                    "time": 66.5625,
                    "velocity": 0.4881889763779528,
                    "duration": 0.3125
                },
                {
                    "name": "C4",
                    "midi": 60,
                    "time": 67.1875,
                    "velocity": 0.4881889763779528,
                    "duration": 0.3125
                },
                {
                    "name": "F#4",
                    "midi": 66,
                    "time": 67.1875,
                    "velocity": 0.4881889763779528,
                    "duration": 0.3125
                },
                {
                    "name": "C4",
                    "midi": 60,
                    "time": 67.8125,
                    "velocity": 0.4881889763779528,
                    "duration": 0.3125
                },
                {
                    "name": "F#4",
                    "midi": 66,
                    "time": 67.8125,
                    "velocity": 0.4881889763779528,
                    "duration": 0.3125
                },
                {
                    "name": "C4",
                    "midi": 60,
                    "time": 68.4375,
                    "velocity": 0.4881889763779528,
                    "duration": 0.3125
                },
                {
                    "name": "F#4",
                    "midi": 66,
                    "time": 68.4375,
                    "velocity": 0.4881889763779528,
                    "duration": 0.3125
                },
                {
                    "name": "C4",
                    "midi": 60,
                    "time": 69.0625,
                    "velocity": 0.4881889763779528,
                    "duration": 0.3125
                },
                {
                    "name": "F#4",
                    "midi": 66,
                    "time": 69.0625,
                    "velocity": 0.4881889763779528,
                    "duration": 0.3125
                },
                {
                    "name": "A#5",
                    "midi": 82,
                    "time": 69.375,
                    "velocity": 0.4881889763779528,
                    "duration": 0.15625
                },
                {
                    "name": "D6",
                    "midi": 86,
                    "time": 69.375,
                    "velocity": 0.4881889763779528,
                    "duration": 0.15625
                },
                {
                    "name": "C6",
                    "midi": 84,
                    "time": 69.53125,
                    "velocity": 0.4881889763779528,
                    "duration": 0.15625
                },
                {
                    "name": "E6",
                    "midi": 88,
                    "time": 69.53125,
                    "velocity": 0.4881889763779528,
                    "duration": 0.15625
                },
                {
                    "name": "A#5",
                    "midi": 82,
                    "time": 69.6875,
                    "velocity": 0.4881889763779528,
                    "duration": 0.15625
                },
                {
                    "name": "D6",
                    "midi": 86,
                    "time": 69.6875,
                    "velocity": 0.4881889763779528,
                    "duration": 0.15625
                },
                {
                    "name": "C6",
                    "midi": 84,
                    "time": 69.84375,
                    "velocity": 0.4881889763779528,
                    "duration": 0.15625
                },
                {
                    "name": "E6",
                    "midi": 88,
                    "time": 69.84375,
                    "velocity": 0.4881889763779528,
                    "duration": 0.15625
                },
                {
                    "name": "A#5",
                    "midi": 82,
                    "time": 70,
                    "velocity": 0.4881889763779528,
                    "duration": 0.3125
                },
                {
                    "name": "D6",
                    "midi": 86,
                    "time": 70,
                    "velocity": 0.4881889763779528,
                    "duration": 0.3125
                },
                {
                    "name": "D5",
                    "midi": 74,
                    "time": 70.3125,
                    "velocity": 0.4881889763779528,
                    "duration": 0.1041666666666714
                },
                {
                    "name": "F#5",
                    "midi": 78,
                    "time": 70.3125,
                    "velocity": 0.4881889763779528,
                    "duration": 0.1041666666666714
                },
                {
                    "name": "E5",
                    "midi": 76,
                    "time": 70.41666666666667,
                    "velocity": 0.4881889763779528,
                    "duration": 0.1028645833333286
                },
                {
                    "name": "G#5",
                    "midi": 80,
                    "time": 70.41666666666667,
                    "velocity": 0.4881889763779528,
                    "duration": 0.1028645833333286
                },
                {
                    "name": "F#5",
                    "midi": 78,
                    "time": 70.51953125,
                    "velocity": 0.4881889763779528,
                    "duration": 0.10546875
                },
                {
                    "name": "A#5",
                    "midi": 82,
                    "time": 70.51953125,
                    "velocity": 0.4881889763779528,
                    "duration": 0.10546875
                },
                {
                    "name": "G#5",
                    "midi": 80,
                    "time": 70.625,
                    "velocity": 0.4881889763779528,
                    "duration": 0.15625
                },
                {
                    "name": "C6",
                    "midi": 84,
                    "time": 70.625,
                    "velocity": 0.4881889763779528,
                    "duration": 0.15625
                },
                {
                    "name": "A#5",
                    "midi": 82,
                    "time": 70.78125,
                    "velocity": 0.4881889763779528,
                    "duration": 0.15625
                },
                {
                    "name": "D6",
                    "midi": 86,
                    "time": 70.78125,
                    "velocity": 0.4881889763779528,
                    "duration": 0.15625
                },
                {
                    "name": "G#5",
                    "midi": 80,
                    "time": 70.9375,
                    "velocity": 0.4881889763779528,
                    "duration": 0.15625
                },
                {
                    "name": "C6",
                    "midi": 84,
                    "time": 70.9375,
                    "velocity": 0.4881889763779528,
                    "duration": 0.15625
                },
                {
                    "name": "A#5",
                    "midi": 82,
                    "time": 71.09375,
                    "velocity": 0.4881889763779528,
                    "duration": 0.15625
                },
                {
                    "name": "D6",
                    "midi": 86,
                    "time": 71.09375,
                    "velocity": 0.4881889763779528,
                    "duration": 0.15625
                },
                {
                    "name": "G#5",
                    "midi": 80,
                    "time": 71.25,
                    "velocity": 0.4881889763779528,
                    "duration": 0.3125
                },
                {
                    "name": "C6",
                    "midi": 84,
                    "time": 71.25,
                    "velocity": 0.4881889763779528,
                    "duration": 0.3125
                },
                {
                    "name": "E5",
                    "midi": 76,
                    "time": 71.5625,
                    "velocity": 0.4881889763779528,
                    "duration": 0.1041666666666714
                },
                {
                    "name": "G#5",
                    "midi": 80,
                    "time": 71.5625,
                    "velocity": 0.4881889763779528,
                    "duration": 0.1041666666666714
                },
                {
                    "name": "F#5",
                    "midi": 78,
                    "time": 71.66666666666667,
                    "velocity": 0.4881889763779528,
                    "duration": 0.1028645833333286
                },
                {
                    "name": "A#5",
                    "midi": 82,
                    "time": 71.66666666666667,
                    "velocity": 0.4881889763779528,
                    "duration": 0.1028645833333286
                },
                {
                    "name": "G#5",
                    "midi": 80,
                    "time": 71.76953125,
                    "velocity": 0.4881889763779528,
                    "duration": 0.10546875
                },
                {
                    "name": "C6",
                    "midi": 84,
                    "time": 71.76953125,
                    "velocity": 0.4881889763779528,
                    "duration": 0.10546875
                },
                {
                    "name": "A#5",
                    "midi": 82,
                    "time": 71.875,
                    "velocity": 0.4881889763779528,
                    "duration": 0.15625
                },
                {
                    "name": "D6",
                    "midi": 86,
                    "time": 71.875,
                    "velocity": 0.4881889763779528,
                    "duration": 0.15625
                },
                {
                    "name": "C6",
                    "midi": 84,
                    "time": 72.03125,
                    "velocity": 0.4881889763779528,
                    "duration": 0.15625
                },
                {
                    "name": "E6",
                    "midi": 88,
                    "time": 72.03125,
                    "velocity": 0.4881889763779528,
                    "duration": 0.15625
                },
                {
                    "name": "A#5",
                    "midi": 82,
                    "time": 72.1875,
                    "velocity": 0.4881889763779528,
                    "duration": 0.15625
                },
                {
                    "name": "D6",
                    "midi": 86,
                    "time": 72.1875,
                    "velocity": 0.4881889763779528,
                    "duration": 0.15625
                },
                {
                    "name": "C6",
                    "midi": 84,
                    "time": 72.34375,
                    "velocity": 0.4881889763779528,
                    "duration": 0.15625
                },
                {
                    "name": "E6",
                    "midi": 88,
                    "time": 72.34375,
                    "velocity": 0.4881889763779528,
                    "duration": 0.15625
                },
                {
                    "name": "A#5",
                    "midi": 82,
                    "time": 72.5,
                    "velocity": 0.4881889763779528,
                    "duration": 0.3125
                },
                {
                    "name": "D6",
                    "midi": 86,
                    "time": 72.5,
                    "velocity": 0.4881889763779528,
                    "duration": 0.3125
                },
                {
                    "name": "D5",
                    "midi": 74,
                    "time": 72.8125,
                    "velocity": 0.4881889763779528,
                    "duration": 0.1041666666666714
                },
                {
                    "name": "F#5",
                    "midi": 78,
                    "time": 72.8125,
                    "velocity": 0.4881889763779528,
                    "duration": 0.1041666666666714
                },
                {
                    "name": "E5",
                    "midi": 76,
                    "time": 72.91666666666667,
                    "velocity": 0.4881889763779528,
                    "duration": 0.1028645833333286
                },
                {
                    "name": "G#5",
                    "midi": 80,
                    "time": 72.91666666666667,
                    "velocity": 0.4881889763779528,
                    "duration": 0.1028645833333286
                },
                {
                    "name": "F#5",
                    "midi": 78,
                    "time": 73.01953125,
                    "velocity": 0.4881889763779528,
                    "duration": 0.10546875
                },
                {
                    "name": "A#5",
                    "midi": 82,
                    "time": 73.01953125,
                    "velocity": 0.4881889763779528,
                    "duration": 0.10546875
                },
                {
                    "name": "G#5",
                    "midi": 80,
                    "time": 73.125,
                    "velocity": 0.4881889763779528,
                    "duration": 0.15625
                },
                {
                    "name": "C6",
                    "midi": 84,
                    "time": 73.125,
                    "velocity": 0.4881889763779528,
                    "duration": 0.15625
                },
                {
                    "name": "A#5",
                    "midi": 82,
                    "time": 73.28125,
                    "velocity": 0.4881889763779528,
                    "duration": 0.15625
                },
                {
                    "name": "D6",
                    "midi": 86,
                    "time": 73.28125,
                    "velocity": 0.4881889763779528,
                    "duration": 0.15625
                },
                {
                    "name": "G#5",
                    "midi": 80,
                    "time": 73.4375,
                    "velocity": 0.4881889763779528,
                    "duration": 0.15625
                },
                {
                    "name": "C6",
                    "midi": 84,
                    "time": 73.4375,
                    "velocity": 0.4881889763779528,
                    "duration": 0.15625
                },
                {
                    "name": "A#5",
                    "midi": 82,
                    "time": 73.59375,
                    "velocity": 0.4881889763779528,
                    "duration": 0.15625
                },
                {
                    "name": "D6",
                    "midi": 86,
                    "time": 73.59375,
                    "velocity": 0.4881889763779528,
                    "duration": 0.15625
                },
                {
                    "name": "G#5",
                    "midi": 80,
                    "time": 73.75,
                    "velocity": 0.4881889763779528,
                    "duration": 0.3125
                },
                {
                    "name": "C6",
                    "midi": 84,
                    "time": 73.75,
                    "velocity": 0.4881889763779528,
                    "duration": 0.3125
                },
                {
                    "name": "E5",
                    "midi": 76,
                    "time": 74.0625,
                    "velocity": 0.4881889763779528,
                    "duration": 0.1041666666666714
                },
                {
                    "name": "G#5",
                    "midi": 80,
                    "time": 74.0625,
                    "velocity": 0.4881889763779528,
                    "duration": 0.1041666666666714
                },
                {
                    "name": "F#5",
                    "midi": 78,
                    "time": 74.16666666666667,
                    "velocity": 0.4881889763779528,
                    "duration": 0.1028645833333286
                },
                {
                    "name": "A#5",
                    "midi": 82,
                    "time": 74.16666666666667,
                    "velocity": 0.4881889763779528,
                    "duration": 0.1028645833333286
                },
                {
                    "name": "G#5",
                    "midi": 80,
                    "time": 74.26953125,
                    "velocity": 0.4881889763779528,
                    "duration": 0.10546875
                },
                {
                    "name": "C6",
                    "midi": 84,
                    "time": 74.26953125,
                    "velocity": 0.4881889763779528,
                    "duration": 0.10546875
                },
                {
                    "name": "C4",
                    "midi": 60,
                    "time": 74.6875,
                    "velocity": 0.4881889763779528,
                    "duration": 0.3125
                },
                {
                    "name": "F#4",
                    "midi": 66,
                    "time": 74.6875,
                    "velocity": 0.4881889763779528,
                    "duration": 0.3125
                },
                {
                    "name": "A#3",
                    "midi": 58,
                    "time": 75.3125,
                    "velocity": 0.4881889763779528,
                    "duration": 0.3125
                },
                {
                    "name": "F#4",
                    "midi": 66,
                    "time": 75.3125,
                    "velocity": 0.4881889763779528,
                    "duration": 0.3125
                },
                {
                    "name": "B3",
                    "midi": 59,
                    "time": 75.9375,
                    "velocity": 0.4881889763779528,
                    "duration": 0.3125
                },
                {
                    "name": "F#4",
                    "midi": 66,
                    "time": 75.9375,
                    "velocity": 0.4881889763779528,
                    "duration": 0.3125
                },
                {
                    "name": "C4",
                    "midi": 60,
                    "time": 76.5625,
                    "velocity": 0.4881889763779528,
                    "duration": 0.3125
                },
                {
                    "name": "F#4",
                    "midi": 66,
                    "time": 76.5625,
                    "velocity": 0.4881889763779528,
                    "duration": 0.3125
                },
                {
                    "name": "C#4",
                    "midi": 61,
                    "time": 77.1875,
                    "velocity": 0.4881889763779528,
                    "duration": 0.3125
                },
                {
                    "name": "G4",
                    "midi": 67,
                    "time": 77.1875,
                    "velocity": 0.4881889763779528,
                    "duration": 0.3125
                },
                {
                    "name": "B3",
                    "midi": 59,
                    "time": 77.8125,
                    "velocity": 0.4881889763779528,
                    "duration": 0.3125
                },
                {
                    "name": "G4",
                    "midi": 67,
                    "time": 77.8125,
                    "velocity": 0.4881889763779528,
                    "duration": 0.3125
                },
                {
                    "name": "A#3",
                    "midi": 58,
                    "time": 78.4375,
                    "velocity": 0.4881889763779528,
                    "duration": 0.3125
                },
                {
                    "name": "G4",
                    "midi": 67,
                    "time": 78.4375,
                    "velocity": 0.4881889763779528,
                    "duration": 0.3125
                },
                {
                    "name": "C#4",
                    "midi": 61,
                    "time": 79.0625,
                    "velocity": 0.4881889763779528,
                    "duration": 0.3125
                },
                {
                    "name": "G4",
                    "midi": 67,
                    "time": 79.0625,
                    "velocity": 0.4881889763779528,
                    "duration": 0.3125
                },
                {
                    "name": "G3",
                    "midi": 55,
                    "time": 79.375,
                    "velocity": 0.5905511811023622,
                    "duration": 0.625
                },
                {
                    "name": "A#3",
                    "midi": 58,
                    "time": 79.375,
                    "velocity": 0.5905511811023622,
                    "duration": 0.625
                },
                {
                    "name": "D4",
                    "midi": 62,
                    "time": 79.375,
                    "velocity": 0.5905511811023622,
                    "duration": 0.625
                },
                {
                    "name": "G4",
                    "midi": 67,
                    "time": 79.375,
                    "velocity": 0.5905511811023622,
                    "duration": 0.625
                },
                {
                    "name": "G#3",
                    "midi": 56,
                    "time": 80,
                    "velocity": 0.5905511811023622,
                    "duration": 0.625
                },
                {
                    "name": "B3",
                    "midi": 59,
                    "time": 80,
                    "velocity": 0.5905511811023622,
                    "duration": 0.625
                },
                {
                    "name": "D#4",
                    "midi": 63,
                    "time": 80,
                    "velocity": 0.5905511811023622,
                    "duration": 0.625
                },
                {
                    "name": "G#4",
                    "midi": 68,
                    "time": 80,
                    "velocity": 0.5905511811023622,
                    "duration": 0.625
                },
                {
                    "name": "A3",
                    "midi": 57,
                    "time": 80.625,
                    "velocity": 0.5905511811023622,
                    "duration": 0.625
                },
                {
                    "name": "C4",
                    "midi": 60,
                    "time": 80.625,
                    "velocity": 0.5905511811023622,
                    "duration": 0.625
                },
                {
                    "name": "E4",
                    "midi": 64,
                    "time": 80.625,
                    "velocity": 0.5905511811023622,
                    "duration": 0.625
                },
                {
                    "name": "A4",
                    "midi": 69,
                    "time": 80.625,
                    "velocity": 0.5905511811023622,
                    "duration": 0.625
                },
                {
                    "name": "G#3",
                    "midi": 56,
                    "time": 81.25,
                    "velocity": 0.5905511811023622,
                    "duration": 0.625
                },
                {
                    "name": "B3",
                    "midi": 59,
                    "time": 81.25,
                    "velocity": 0.5905511811023622,
                    "duration": 0.625
                },
                {
                    "name": "D#4",
                    "midi": 63,
                    "time": 81.25,
                    "velocity": 0.5905511811023622,
                    "duration": 0.625
                },
                {
                    "name": "G#4",
                    "midi": 68,
                    "time": 81.25,
                    "velocity": 0.5905511811023622,
                    "duration": 0.625
                },
                {
                    "name": "G3",
                    "midi": 55,
                    "time": 81.875,
                    "velocity": 0.6929133858267716,
                    "duration": 0.625
                },
                {
                    "name": "A#3",
                    "midi": 58,
                    "time": 81.875,
                    "velocity": 0.6929133858267716,
                    "duration": 0.625
                },
                {
                    "name": "D4",
                    "midi": 62,
                    "time": 81.875,
                    "velocity": 0.6929133858267716,
                    "duration": 0.625
                },
                {
                    "name": "G4",
                    "midi": 67,
                    "time": 81.875,
                    "velocity": 0.6929133858267716,
                    "duration": 0.625
                },
                {
                    "name": "F#3",
                    "midi": 54,
                    "time": 82.5,
                    "velocity": 0.6929133858267716,
                    "duration": 0.625
                },
                {
                    "name": "A3",
                    "midi": 57,
                    "time": 82.5,
                    "velocity": 0.6929133858267716,
                    "duration": 0.625
                },
                {
                    "name": "C#4",
                    "midi": 61,
                    "time": 82.5,
                    "velocity": 0.6929133858267716,
                    "duration": 0.625
                },
                {
                    "name": "F#4",
                    "midi": 66,
                    "time": 82.5,
                    "velocity": 0.6929133858267716,
                    "duration": 0.625
                },
                {
                    "name": "F3",
                    "midi": 53,
                    "time": 83.125,
                    "velocity": 0.7952755905511811,
                    "duration": 0.625
                },
                {
                    "name": "G#3",
                    "midi": 56,
                    "time": 83.125,
                    "velocity": 0.7952755905511811,
                    "duration": 0.625
                },
                {
                    "name": "C4",
                    "midi": 60,
                    "time": 83.125,
                    "velocity": 0.7952755905511811,
                    "duration": 0.625
                },
                {
                    "name": "F4",
                    "midi": 65,
                    "time": 83.125,
                    "velocity": 0.7952755905511811,
                    "duration": 0.625
                },
                {
                    "name": "F3",
                    "midi": 53,
                    "time": 83.75,
                    "velocity": 0.7952755905511811,
                    "duration": 0.625
                },
                {
                    "name": "G3",
                    "midi": 55,
                    "time": 83.75,
                    "velocity": 0.7952755905511811,
                    "duration": 0.625
                },
                {
                    "name": "B3",
                    "midi": 59,
                    "time": 83.75,
                    "velocity": 0.7952755905511811,
                    "duration": 0.625
                },
                {
                    "name": "F4",
                    "midi": 65,
                    "time": 83.75,
                    "velocity": 0.7952755905511811,
                    "duration": 0.625
                },
                {
                    "name": "A#4",
                    "midi": 70,
                    "time": 84.375,
                    "velocity": 0.7952755905511811,
                    "duration": 0.061197916666671404
                },
                {
                    "name": "E5",
                    "midi": 76,
                    "time": 84.375,
                    "velocity": 0.7952755905511811,
                    "duration": 0.061197916666671404
                },
                {
                    "name": "A4",
                    "midi": 69,
                    "time": 84.6875,
                    "velocity": 0.5905511811023622,
                    "duration": 0.1041666666666714
                },
                {
                    "name": "G4",
                    "midi": 67,
                    "time": 84.79166666666667,
                    "velocity": 0.5905511811023622,
                    "duration": 0.1028645833333286
                },
                {
                    "name": "F#4",
                    "midi": 66,
                    "time": 84.89453125,
                    "velocity": 0.5905511811023622,
                    "duration": 0.10546875
                },
                {
                    "name": "B3",
                    "midi": 59,
                    "time": 85,
                    "velocity": 0.7952755905511811,
                    "duration": 0.061197916666671404
                },
                {
                    "name": "F4",
                    "midi": 65,
                    "time": 85,
                    "velocity": 0.7952755905511811,
                    "duration": 0.061197916666671404
                },
                {
                    "name": "E4",
                    "midi": 64,
                    "time": 85.3125,
                    "velocity": 0.5905511811023622,
                    "duration": 0.1041666666666714
                },
                {
                    "name": "D4",
                    "midi": 62,
                    "time": 85.41666666666667,
                    "velocity": 0.5905511811023622,
                    "duration": 0.1028645833333286
                },
                {
                    "name": "C4",
                    "midi": 60,
                    "time": 85.51953125,
                    "velocity": 0.5905511811023622,
                    "duration": 0.10546875
                },
                {
                    "name": "A#3",
                    "midi": 58,
                    "time": 85.625,
                    "velocity": 0.7952755905511811,
                    "duration": 0.061197916666671404
                },
                {
                    "name": "E4",
                    "midi": 64,
                    "time": 85.625,
                    "velocity": 0.7952755905511811,
                    "duration": 0.061197916666671404
                },
                {
                    "name": "A3",
                    "midi": 57,
                    "time": 85.9375,
                    "velocity": 0.5905511811023622,
                    "duration": 0.1041666666666714
                },
                {
                    "name": "G3",
                    "midi": 55,
                    "time": 86.04166666666667,
                    "velocity": 0.5905511811023622,
                    "duration": 0.1028645833333286
                },
                {
                    "name": "F#3",
                    "midi": 54,
                    "time": 86.14453125,
                    "velocity": 0.5905511811023622,
                    "duration": 0.10546875
                },
                {
                    "name": "F3",
                    "midi": 53,
                    "time": 86.25,
                    "velocity": 0.7952755905511811,
                    "duration": 0.061197916666671404
                },
                {
                    "name": "B3",
                    "midi": 59,
                    "time": 86.25,
                    "velocity": 0.7952755905511811,
                    "duration": 0.061197916666671404
                },
                {
                    "name": "E3",
                    "midi": 52,
                    "time": 86.5625,
                    "velocity": 0.5905511811023622,
                    "duration": 0.15625
                },
                {
                    "name": "D#3",
                    "midi": 51,
                    "time": 86.71875,
                    "velocity": 0.5905511811023622,
                    "duration": 0.15625
                },
                {
                    "name": "D3",
                    "midi": 50,
                    "time": 86.875,
                    "velocity": 0.4881889763779528,
                    "duration": 0.15625
                },
                {
                    "name": "D3",
                    "midi": 50,
                    "time": 87.03125,
                    "velocity": 0.4881889763779528,
                    "duration": 0.029947916666671404
                },
                {
                    "name": "D3",
                    "midi": 50,
                    "time": 87.1875,
                    "velocity": 0.4881889763779528,
                    "duration": 0.029947916666671404
                },
                {
                    "name": "D3",
                    "midi": 50,
                    "time": 87.34375,
                    "velocity": 0.4881889763779528,
                    "duration": 0.029947916666671404
                },
                {
                    "name": "D3",
                    "midi": 50,
                    "time": 87.5,
                    "velocity": 0.4881889763779528,
                    "duration": 0.3125
                },
                {
                    "name": "A3",
                    "midi": 57,
                    "time": 87.8125,
                    "velocity": 0.4881889763779528,
                    "duration": 0.3125
                }
            ],
            "controlChanges": {
                "7": [
                    {
                        "number": 7,
                        "time": 0,
                        "value": 1
                    }
                ],
                "10": [
                    {
                        "number": 10,
                        "time": 0,
                        "value": 0.23622047244094488
                    }
                ],
                "64": [
                    {
                        "number": 64,
                        "time": 14.375,
                        "value": 1
                    },
                    {
                        "number": 64,
                        "time": 16.25,
                        "value": 0
                    },
                    {
                        "number": 64,
                        "time": 39.375,
                        "value": 1
                    },
                    {
                        "number": 64,
                        "time": 40,
                        "value": 0
                    },
                    {
                        "number": 64,
                        "time": 40.3125,
                        "value": 1
                    },
                    {
                        "number": 64,
                        "time": 40.9375,
                        "value": 0
                    },
                    {
                        "number": 64,
                        "time": 41.25,
                        "value": 1
                    },
                    {
                        "number": 64,
                        "time": 41.875,
                        "value": 0
                    },
                    {
                        "number": 64,
                        "time": 42.1875,
                        "value": 1
                    },
                    {
                        "number": 64,
                        "time": 42.8125,
                        "value": 0
                    },
                    {
                        "number": 64,
                        "time": 43.125,
                        "value": 1
                    },
                    {
                        "number": 64,
                        "time": 43.59375,
                        "value": 0
                    },
                    {
                        "number": 64,
                        "time": 43.75,
                        "value": 1
                    },
                    {
                        "number": 64,
                        "time": 44.375,
                        "value": 0
                    },
                    {
                        "number": 64,
                        "time": 49.375,
                        "value": 1
                    },
                    {
                        "number": 64,
                        "time": 50,
                        "value": 0
                    },
                    {
                        "number": 64,
                        "time": 50.625,
                        "value": 1
                    },
                    {
                        "number": 64,
                        "time": 51.5625,
                        "value": 0
                    },
                    {
                        "number": 64,
                        "time": 51.875,
                        "value": 1
                    },
                    {
                        "number": 64,
                        "time": 52.5,
                        "value": 0
                    },
                    {
                        "number": 64,
                        "time": 53.125,
                        "value": 1
                    },
                    {
                        "number": 64,
                        "time": 53.75,
                        "value": 0
                    },
                    {
                        "number": 64,
                        "time": 59.375,
                        "value": 1
                    },
                    {
                        "number": 64,
                        "time": 60,
                        "value": 0
                    },
                    {
                        "number": 64,
                        "time": 60.3125,
                        "value": 1
                    },
                    {
                        "number": 64,
                        "time": 60.9375,
                        "value": 0
                    },
                    {
                        "number": 64,
                        "time": 61.25,
                        "value": 1
                    },
                    {
                        "number": 64,
                        "time": 61.875,
                        "value": 0
                    },
                    {
                        "number": 64,
                        "time": 62.1875,
                        "value": 1
                    },
                    {
                        "number": 64,
                        "time": 62.8125,
                        "value": 0
                    },
                    {
                        "number": 64,
                        "time": 63.125,
                        "value": 1
                    },
                    {
                        "number": 64,
                        "time": 63.59375,
                        "value": 0
                    },
                    {
                        "number": 64,
                        "time": 63.75,
                        "value": 1
                    },
                    {
                        "number": 64,
                        "time": 64.21875,
                        "value": 0
                    },
                    {
                        "number": 64,
                        "time": 69.375,
                        "value": 1
                    },
                    {
                        "number": 64,
                        "time": 70,
                        "value": 0
                    },
                    {
                        "number": 64,
                        "time": 70.625,
                        "value": 1
                    },
                    {
                        "number": 64,
                        "time": 71.25,
                        "value": 0
                    },
                    {
                        "number": 64,
                        "time": 71.875,
                        "value": 1
                    },
                    {
                        "number": 64,
                        "time": 72.5,
                        "value": 0
                    },
                    {
                        "number": 64,
                        "time": 73.125,
                        "value": 1
                    },
                    {
                        "number": 64,
                        "time": 73.75,
                        "value": 0
                    }
                ]
            },
            "id": 3,
            "name": "Instrument18",
            "instrumentNumber": 0,
            "instrument": "acoustic grand piano",
            "instrumentFamily": "piano",
            "channelNumber": 2,
            "isPercussion": false
        },
        {
            "startTime": 0.625,
            "duration": 91.875,
            "length": 84,
            "notes": [
                {
                    "name": "C3",
                    "midi": 48,
                    "time": 0.625,
                    "velocity": 0.3858267716535433,
                    "duration": 1.25
                },
                {
                    "name": "C3",
                    "midi": 48,
                    "time": 5.625,
                    "velocity": 0.3858267716535433,
                    "duration": 1.25
                },
                {
                    "name": "G3",
                    "midi": 55,
                    "time": 11.875,
                    "velocity": 0.5905511811023622,
                    "duration": 0.625
                },
                {
                    "name": "F3",
                    "midi": 53,
                    "time": 12.5,
                    "velocity": 0.3858267716535433,
                    "duration": 0.3125
                },
                {
                    "name": "D#3",
                    "midi": 51,
                    "time": 12.8125,
                    "velocity": 0.3858267716535433,
                    "duration": 0.15625
                },
                {
                    "name": "C#3",
                    "midi": 49,
                    "time": 12.96875,
                    "velocity": 0.3858267716535433,
                    "duration": 0.15625
                },
                {
                    "name": "A#2",
                    "midi": 46,
                    "time": 13.125,
                    "velocity": 0.5905511811023622,
                    "duration": 0.625
                },
                {
                    "name": "G#2",
                    "midi": 44,
                    "time": 13.75,
                    "velocity": 0.5905511811023622,
                    "duration": 0.625
                },
                {
                    "name": "C3",
                    "midi": 48,
                    "time": 14.375,
                    "velocity": 0.4881889763779528,
                    "duration": 1.25
                },
                {
                    "name": "F#3",
                    "midi": 54,
                    "time": 19.6875,
                    "velocity": 0.4881889763779528,
                    "duration": 0.06119791666666785
                },
                {
                    "name": "A#3",
                    "midi": 58,
                    "time": 20.3125,
                    "velocity": 0.4881889763779528,
                    "duration": 0.06119791666666785
                },
                {
                    "name": "G#3",
                    "midi": 56,
                    "time": 20.9375,
                    "velocity": 0.4881889763779528,
                    "duration": 0.06119791666666785
                },
                {
                    "name": "B3",
                    "midi": 59,
                    "time": 21.5625,
                    "velocity": 0.4881889763779528,
                    "duration": 0.06119791666666785
                },
                {
                    "name": "D4",
                    "midi": 62,
                    "time": 22.1875,
                    "velocity": 0.4881889763779528,
                    "duration": 0.06119791666666785
                },
                {
                    "name": "C#4",
                    "midi": 61,
                    "time": 22.8125,
                    "velocity": 0.5905511811023622,
                    "duration": 0.06119791666666785
                },
                {
                    "name": "C#4",
                    "midi": 61,
                    "time": 23.4375,
                    "velocity": 0.5905511811023622,
                    "duration": 0.06119791666666785
                },
                {
                    "name": "B3",
                    "midi": 59,
                    "time": 24.0625,
                    "velocity": 0.5905511811023622,
                    "duration": 0.06119791666666785
                },
                {
                    "name": "A#3",
                    "midi": 58,
                    "time": 24.6875,
                    "velocity": 0.4881889763779528,
                    "duration": 0.06119791666666785
                },
                {
                    "name": "A3",
                    "midi": 57,
                    "time": 25.3125,
                    "velocity": 0.4881889763779528,
                    "duration": 0.06119791666666785
                },
                {
                    "name": "A#3",
                    "midi": 58,
                    "time": 25.9375,
                    "velocity": 0.4881889763779528,
                    "duration": 0.06119791666666785
                },
                {
                    "name": "A3",
                    "midi": 57,
                    "time": 26.5625,
                    "velocity": 0.4881889763779528,
                    "duration": 0.06119791666666785
                },
                {
                    "name": "A#3",
                    "midi": 58,
                    "time": 27.1875,
                    "velocity": 0.4881889763779528,
                    "duration": 0.06119791666666785
                },
                {
                    "name": "A3",
                    "midi": 57,
                    "time": 27.8125,
                    "velocity": 0.4881889763779528,
                    "duration": 0.06119791666666785
                },
                {
                    "name": "A#3",
                    "midi": 58,
                    "time": 28.4375,
                    "velocity": 0.4881889763779528,
                    "duration": 0.06119791666666785
                },
                {
                    "name": "A3",
                    "midi": 57,
                    "time": 29.0625,
                    "velocity": 0.4881889763779528,
                    "duration": 0.06119791666666785
                },
                {
                    "name": "F#2",
                    "midi": 42,
                    "time": 29.375,
                    "velocity": 0.5905511811023622,
                    "duration": 0.625
                },
                {
                    "name": "C#3",
                    "midi": 49,
                    "time": 29.375,
                    "velocity": 0.5905511811023622,
                    "duration": 0.625
                },
                {
                    "name": "F#3",
                    "midi": 54,
                    "time": 29.375,
                    "velocity": 0.5905511811023622,
                    "duration": 0.625
                },
                {
                    "name": "F2",
                    "midi": 41,
                    "time": 30,
                    "velocity": 0.4881889763779528,
                    "duration": 0.06119791666666785
                },
                {
                    "name": "C3",
                    "midi": 48,
                    "time": 30,
                    "velocity": 0.4881889763779528,
                    "duration": 0.06119791666666785
                },
                {
                    "name": "F3",
                    "midi": 53,
                    "time": 30,
                    "velocity": 0.4881889763779528,
                    "duration": 0.06119791666666785
                },
                {
                    "name": "C#1",
                    "midi": 25,
                    "time": 34.375,
                    "velocity": 0.6929133858267716,
                    "duration": 0.625
                },
                {
                    "name": "G#3",
                    "midi": 56,
                    "time": 35,
                    "velocity": 0.4881889763779528,
                    "duration": 0.625
                },
                {
                    "name": "B4",
                    "midi": 71,
                    "time": 39.375,
                    "velocity": 0.4881889763779528,
                    "duration": 1.25
                },
                {
                    "name": "C#5",
                    "midi": 73,
                    "time": 40.625,
                    "velocity": 0.5905511811023622,
                    "duration": 0.078125
                },
                {
                    "name": "B4",
                    "midi": 71,
                    "time": 40.703125,
                    "velocity": 0.4881889763779528,
                    "duration": 1.171875
                },
                {
                    "name": "C5",
                    "midi": 72,
                    "time": 41.875,
                    "velocity": 0.4881889763779528,
                    "duration": 0.625
                },
                {
                    "name": "C#5",
                    "midi": 73,
                    "time": 42.5,
                    "velocity": 0.5905511811023622,
                    "duration": 0.078125
                },
                {
                    "name": "B4",
                    "midi": 71,
                    "time": 42.578125,
                    "velocity": 0.4881889763779528,
                    "duration": 0.546875
                },
                {
                    "name": "C#5",
                    "midi": 73,
                    "time": 44.375,
                    "velocity": 0.4881889763779528,
                    "duration": 0.078125
                },
                {
                    "name": "B4",
                    "midi": 71,
                    "time": 44.453125,
                    "velocity": 0.4881889763779528,
                    "duration": 0.078125
                },
                {
                    "name": "G#3",
                    "midi": 56,
                    "time": 45,
                    "velocity": 0.6929133858267716,
                    "duration": 0.625
                },
                {
                    "name": "A3",
                    "midi": 57,
                    "time": 55,
                    "velocity": 0.5905511811023622,
                    "duration": 0.625
                },
                {
                    "name": "C5",
                    "midi": 72,
                    "time": 59.375,
                    "velocity": 0.5905511811023622,
                    "duration": 1.25
                },
                {
                    "name": "D5",
                    "midi": 74,
                    "time": 60.625,
                    "velocity": 0.5905511811023622,
                    "duration": 0.078125
                },
                {
                    "name": "C5",
                    "midi": 72,
                    "time": 60.703125,
                    "velocity": 0.5905511811023622,
                    "duration": 1.796875
                },
                {
                    "name": "D5",
                    "midi": 74,
                    "time": 62.5,
                    "velocity": 0.5905511811023622,
                    "duration": 0.078125
                },
                {
                    "name": "C5",
                    "midi": 72,
                    "time": 62.578125,
                    "velocity": 0.5905511811023622,
                    "duration": 1.796875
                },
                {
                    "name": "F5",
                    "midi": 77,
                    "time": 65,
                    "velocity": 0.5905511811023622,
                    "duration": 0.625
                },
                {
                    "name": "F#3",
                    "midi": 54,
                    "time": 74.6875,
                    "velocity": 0.5905511811023622,
                    "duration": 0.3125
                },
                {
                    "name": "F#3",
                    "midi": 54,
                    "time": 75.3125,
                    "velocity": 0.5905511811023622,
                    "duration": 0.3125
                },
                {
                    "name": "F#3",
                    "midi": 54,
                    "time": 75.9375,
                    "velocity": 0.5905511811023622,
                    "duration": 0.3125
                },
                {
                    "name": "F#3",
                    "midi": 54,
                    "time": 76.5625,
                    "velocity": 0.5905511811023622,
                    "duration": 0.3125
                },
                {
                    "name": "G3",
                    "midi": 55,
                    "time": 77.1875,
                    "velocity": 0.5905511811023622,
                    "duration": 0.3125
                },
                {
                    "name": "G3",
                    "midi": 55,
                    "time": 77.8125,
                    "velocity": 0.5905511811023622,
                    "duration": 0.3125
                },
                {
                    "name": "G3",
                    "midi": 55,
                    "time": 78.4375,
                    "velocity": 0.5905511811023622,
                    "duration": 0.3125
                },
                {
                    "name": "G3",
                    "midi": 55,
                    "time": 79.0625,
                    "velocity": 0.5905511811023622,
                    "duration": 0.3125
                },
                {
                    "name": "C3",
                    "midi": 48,
                    "time": 79.6875,
                    "velocity": 0.4881889763779528,
                    "duration": 0.3125
                },
                {
                    "name": "C4",
                    "midi": 60,
                    "time": 79.6875,
                    "velocity": 0.4881889763779528,
                    "duration": 0.3125
                },
                {
                    "name": "C3",
                    "midi": 48,
                    "time": 80.3125,
                    "velocity": 0.4881889763779528,
                    "duration": 0.3125
                },
                {
                    "name": "C4",
                    "midi": 60,
                    "time": 80.3125,
                    "velocity": 0.4881889763779528,
                    "duration": 0.3125
                },
                {
                    "name": "C3",
                    "midi": 48,
                    "time": 80.9375,
                    "velocity": 0.4881889763779528,
                    "duration": 0.3125
                },
                {
                    "name": "C4",
                    "midi": 60,
                    "time": 80.9375,
                    "velocity": 0.4881889763779528,
                    "duration": 0.3125
                },
                {
                    "name": "C3",
                    "midi": 48,
                    "time": 81.5625,
                    "velocity": 0.4881889763779528,
                    "duration": 0.3125
                },
                {
                    "name": "C4",
                    "midi": 60,
                    "time": 81.5625,
                    "velocity": 0.4881889763779528,
                    "duration": 0.3125
                },
                {
                    "name": "C3",
                    "midi": 48,
                    "time": 82.1875,
                    "velocity": 0.4881889763779528,
                    "duration": 0.3125
                },
                {
                    "name": "C4",
                    "midi": 60,
                    "time": 82.1875,
                    "velocity": 0.4881889763779528,
                    "duration": 0.3125
                },
                {
                    "name": "C3",
                    "midi": 48,
                    "time": 82.8125,
                    "velocity": 0.4881889763779528,
                    "duration": 0.3125
                },
                {
                    "name": "C4",
                    "midi": 60,
                    "time": 82.8125,
                    "velocity": 0.4881889763779528,
                    "duration": 0.3125
                },
                {
                    "name": "C3",
                    "midi": 48,
                    "time": 83.4375,
                    "velocity": 0.4881889763779528,
                    "duration": 0.3125
                },
                {
                    "name": "C4",
                    "midi": 60,
                    "time": 83.4375,
                    "velocity": 0.4881889763779528,
                    "duration": 0.3125
                },
                {
                    "name": "C3",
                    "midi": 48,
                    "time": 84.0625,
                    "velocity": 0.4881889763779528,
                    "duration": 0.3125
                },
                {
                    "name": "C4",
                    "midi": 60,
                    "time": 84.0625,
                    "velocity": 0.4881889763779528,
                    "duration": 0.3125
                },
                {
                    "name": "C3",
                    "midi": 48,
                    "time": 84.375,
                    "velocity": 0.6929133858267716,
                    "duration": 0.061197916666671404
                },
                {
                    "name": "C4",
                    "midi": 60,
                    "time": 84.375,
                    "velocity": 0.6929133858267716,
                    "duration": 0.061197916666671404
                },
                {
                    "name": "G2",
                    "midi": 43,
                    "time": 85,
                    "velocity": 0.6929133858267716,
                    "duration": 0.061197916666671404
                },
                {
                    "name": "G3",
                    "midi": 55,
                    "time": 85,
                    "velocity": 0.6929133858267716,
                    "duration": 0.061197916666671404
                },
                {
                    "name": "C2",
                    "midi": 36,
                    "time": 85.625,
                    "velocity": 0.6929133858267716,
                    "duration": 0.061197916666671404
                },
                {
                    "name": "C3",
                    "midi": 48,
                    "time": 85.625,
                    "velocity": 0.6929133858267716,
                    "duration": 0.061197916666671404
                },
                {
                    "name": "G1",
                    "midi": 31,
                    "time": 86.25,
                    "velocity": 0.6929133858267716,
                    "duration": 0.061197916666671404
                },
                {
                    "name": "G2",
                    "midi": 43,
                    "time": 86.25,
                    "velocity": 0.6929133858267716,
                    "duration": 0.061197916666671404
                },
                {
                    "name": "C2",
                    "midi": 36,
                    "time": 86.875,
                    "velocity": 0.6929133858267716,
                    "duration": 0.061197916666671404
                },
                {
                    "name": "G2",
                    "midi": 43,
                    "time": 86.875,
                    "velocity": 0.6929133858267716,
                    "duration": 0.061197916666671404
                },
                {
                    "name": "G#2",
                    "midi": 44,
                    "time": 88.125,
                    "velocity": 0.4881889763779528,
                    "duration": 3.75
                }
            ],
            "controlChanges": {
                "7": [
                    {
                        "number": 7,
                        "time": 0,
                        "value": 1
                    }
                ],
                "10": [
                    {
                        "number": 10,
                        "time": 0,
                        "value": 0.23622047244094488
                    }
                ],
                "64": [
                    {
                        "number": 64,
                        "time": 0.625,
                        "value": 1
                    },
                    {
                        "number": 64,
                        "time": 5,
                        "value": 0
                    },
                    {
                        "number": 64,
                        "time": 5.625,
                        "value": 1
                    },
                    {
                        "number": 64,
                        "time": 11.25,
                        "value": 0
                    },
                    {
                        "number": 64,
                        "time": 14.375,
                        "value": 1
                    },
                    {
                        "number": 64,
                        "time": 18.75,
                        "value": 0
                    },
                    {
                        "number": 64,
                        "time": 35,
                        "value": 1
                    },
                    {
                        "number": 64,
                        "time": 38.75,
                        "value": 0
                    },
                    {
                        "number": 64,
                        "time": 45,
                        "value": 1
                    },
                    {
                        "number": 64,
                        "time": 48.75,
                        "value": 0
                    },
                    {
                        "number": 64,
                        "time": 55,
                        "value": 1
                    },
                    {
                        "number": 64,
                        "time": 58.75,
                        "value": 0
                    },
                    {
                        "number": 64,
                        "time": 65,
                        "value": 1
                    },
                    {
                        "number": 64,
                        "time": 68.75,
                        "value": 0
                    },
                    {
                        "number": 64,
                        "time": 91.875,
                        "value": 1
                    },
                    {
                        "number": 64,
                        "time": 93.125,
                        "value": 0
                    }
                ]
            },
            "id": 4,
            "name": "Instrument19",
            "instrumentNumber": 0,
            "instrument": "acoustic grand piano",
            "instrumentFamily": "piano",
            "channelNumber": 3,
            "isPercussion": false
        },
        {
            "startTime": 0,
            "duration": 0,
            "length": 0,
            "notes": [],
            "controlChanges": {},
            "id": 5
        }
    ]
}