{
    "header": {
        "PPQ": 192,
        "timeSignature": [
            4,
            4
        ],
        "bpm": 120,
        "name": "159S"
    },
    "startTime": 0,
    "duration": 213.81510416666924,
    "tracks": [
        {
            "startTime": 0,
            "duration": 0,
            "length": 0,
            "notes": [],
            "controlChanges": {},
            "id": 0,
            "name": "159S"
        },
        {
            "startTime": 0.25520833333333337,
            "duration": 213.81510416666924,
            "length": 3726,
            "notes": [
                {
                    "name": "A4",
                    "midi": 69,
                    "time": 0.25520833333333337,
                    "velocity": 0.6299212598425197,
                    "duration": 0.1171875
                },
                {
                    "name": "A5",
                    "midi": 81,
                    "time": 0.25520833333333337,
                    "velocity": 0.6299212598425197,
                    "duration": 0.11197916666666669
                },
                {
                    "name": "A#4",
                    "midi": 70,
                    "time": 0.38802083333333337,
                    "velocity": 0.6299212598425197,
                    "duration": 0.1484375
                },
                {
                    "name": "A#5",
                    "midi": 82,
                    "time": 0.38802083333333337,
                    "velocity": 0.6299212598425197,
                    "duration": 0.1484375
                },
                {
                    "name": "B4",
                    "midi": 71,
                    "time": 0.6510416666666667,
                    "velocity": 0.6299212598425197,
                    "duration": 0.11458333333333337
                },
                {
                    "name": "B5",
                    "midi": 83,
                    "time": 0.6562500000000001,
                    "velocity": 0.6299212598425197,
                    "duration": 0.109375
                },
                {
                    "name": "D#2",
                    "midi": 39,
                    "time": 0.7786458333333335,
                    "velocity": 0.6299212598425197,
                    "duration": 0.10677083333333337
                },
                {
                    "name": "D#3",
                    "midi": 51,
                    "time": 0.7838541666666669,
                    "velocity": 0.6299212598425197,
                    "duration": 0.7005208333333329
                },
                {
                    "name": "C5",
                    "midi": 72,
                    "time": 0.7838541666666669,
                    "velocity": 0.6299212598425197,
                    "duration": 0.10677083333333337
                },
                {
                    "name": "C6",
                    "midi": 84,
                    "time": 0.7890625000000002,
                    "velocity": 0.6299212598425197,
                    "duration": 0.10677083333333337
                },
                {
                    "name": "A#4",
                    "midi": 70,
                    "time": 1.041666666666667,
                    "velocity": 0.6299212598425197,
                    "duration": 0.11458333333333326
                },
                {
                    "name": "A#5",
                    "midi": 82,
                    "time": 1.0468750000000002,
                    "velocity": 0.6299212598425197,
                    "duration": 0.11458333333333326
                },
                {
                    "name": "A#3",
                    "midi": 58,
                    "time": 1.1744791666666667,
                    "velocity": 0.6299212598425197,
                    "duration": 0.109375
                },
                {
                    "name": "D#4",
                    "midi": 63,
                    "time": 1.1744791666666667,
                    "velocity": 0.6299212598425197,
                    "duration": 0.11458333333333326
                },
                {
                    "name": "A4",
                    "midi": 69,
                    "time": 1.1744791666666667,
                    "velocity": 0.6299212598425197,
                    "duration": 0.18229166666666652
                },
                {
                    "name": "A5",
                    "midi": 81,
                    "time": 1.2786458333333335,
                    "velocity": 0.6299212598425197,
                    "duration": 0.07812499999999978
                },
                {
                    "name": "G4",
                    "midi": 67,
                    "time": 1.4401041666666665,
                    "velocity": 0.6299212598425197,
                    "duration": 0.11197916666666652
                },
                {
                    "name": "E2",
                    "midi": 40,
                    "time": 1.567708333333333,
                    "velocity": 0.6299212598425197,
                    "duration": 0.11197916666666652
                },
                {
                    "name": "E3",
                    "midi": 52,
                    "time": 1.567708333333333,
                    "velocity": 0.6299212598425197,
                    "duration": 0.7161458333333339
                },
                {
                    "name": "E5",
                    "midi": 76,
                    "time": 1.5729166666666663,
                    "velocity": 0.6299212598425197,
                    "duration": 0.11197916666666652
                },
                {
                    "name": "C6",
                    "midi": 84,
                    "time": 1.5729166666666663,
                    "velocity": 0.6299212598425197,
                    "duration": 0.11197916666666652
                },
                {
                    "name": "A#4",
                    "midi": 70,
                    "time": 1.8411458333333328,
                    "velocity": 0.6299212598425197,
                    "duration": 0.0859375
                },
                {
                    "name": "A#5",
                    "midi": 82,
                    "time": 1.8411458333333328,
                    "velocity": 0.6299212598425197,
                    "duration": 0.09114583333333326
                },
                {
                    "name": "A#3",
                    "midi": 58,
                    "time": 1.9739583333333328,
                    "velocity": 0.6299212598425197,
                    "duration": 0.08072916666666674
                },
                {
                    "name": "C#4",
                    "midi": 61,
                    "time": 1.9739583333333328,
                    "velocity": 0.6299212598425197,
                    "duration": 0.08072916666666674
                },
                {
                    "name": "E4",
                    "midi": 64,
                    "time": 1.9739583333333328,
                    "velocity": 0.6299212598425197,
                    "duration": 0.08593750000000022
                },
                {
                    "name": "A4",
                    "midi": 69,
                    "time": 1.9739583333333328,
                    "velocity": 0.6299212598425197,
                    "duration": 0.21875000000000022
                },
                {
                    "name": "A5",
                    "midi": 81,
                    "time": 1.9739583333333328,
                    "velocity": 0.6299212598425197,
                    "duration": 0.2239583333333337
                },
                {
                    "name": "G4",
                    "midi": 67,
                    "time": 2.2421875,
                    "velocity": 0.6299212598425197,
                    "duration": 0.1484375000000009
                },
                {
                    "name": "D5",
                    "midi": 74,
                    "time": 2.2421875,
                    "velocity": 0.6299212598425197,
                    "duration": 0.054687500000000444
                },
                {
                    "name": "G5",
                    "midi": 79,
                    "time": 2.2473958333333335,
                    "velocity": 0.6299212598425197,
                    "duration": 0.08593750000000044
                },
                {
                    "name": "F2",
                    "midi": 41,
                    "time": 2.3697916666666674,
                    "velocity": 0.6299212598425197,
                    "duration": 0.11979166666666696
                },
                {
                    "name": "F3",
                    "midi": 53,
                    "time": 2.375000000000001,
                    "velocity": 0.6299212598425197,
                    "duration": 0.25260416666666696
                },
                {
                    "name": "F4",
                    "midi": 65,
                    "time": 2.375000000000001,
                    "velocity": 0.6299212598425197,
                    "duration": 0.14322916666666696
                },
                {
                    "name": "D5",
                    "midi": 74,
                    "time": 2.3776041666666674,
                    "velocity": 0.6299212598425197,
                    "duration": 0.14062500000000044
                },
                {
                    "name": "F5",
                    "midi": 77,
                    "time": 2.3776041666666674,
                    "velocity": 0.6299212598425197,
                    "duration": 0.14062500000000044
                },
                {
                    "name": "C#4",
                    "midi": 61,
                    "time": 2.6458333333333344,
                    "velocity": 0.6299212598425197,
                    "duration": 0.08072916666666652
                },
                {
                    "name": "C#5",
                    "midi": 73,
                    "time": 2.6770833333333344,
                    "velocity": 0.6299212598425197,
                    "duration": 0.0546875
                },
                {
                    "name": "F3",
                    "midi": 53,
                    "time": 2.7864583333333344,
                    "velocity": 0.6299212598425197,
                    "duration": 0.6484375
                },
                {
                    "name": "A#3",
                    "midi": 58,
                    "time": 2.7864583333333344,
                    "velocity": 0.6299212598425197,
                    "duration": 0.1171875
                },
                {
                    "name": "D4",
                    "midi": 62,
                    "time": 2.7864583333333344,
                    "velocity": 0.6299212598425197,
                    "duration": 0.08072916666666652
                },
                {
                    "name": "A#4",
                    "midi": 70,
                    "time": 2.7864583333333344,
                    "velocity": 0.6299212598425197,
                    "duration": 0.08072916666666652
                },
                {
                    "name": "D5",
                    "midi": 74,
                    "time": 2.7864583333333344,
                    "velocity": 0.6299212598425197,
                    "duration": 0.08072916666666652
                },
                {
                    "name": "B3",
                    "midi": 59,
                    "time": 3.057291666666668,
                    "velocity": 0.6299212598425197,
                    "duration": 0.3776041666666665
                },
                {
                    "name": "F4",
                    "midi": 65,
                    "time": 3.057291666666668,
                    "velocity": 0.6299212598425197,
                    "duration": 0.38020833333333304
                },
                {
                    "name": "A4",
                    "midi": 69,
                    "time": 3.057291666666668,
                    "velocity": 0.6299212598425197,
                    "duration": 0.6484375
                },
                {
                    "name": "D2",
                    "midi": 38,
                    "time": 3.1848958333333344,
                    "velocity": 0.6299212598425197,
                    "duration": 0.11458333333333348
                },
                {
                    "name": "F3",
                    "midi": 53,
                    "time": 3.585937500000001,
                    "velocity": 0.6299212598425197,
                    "duration": 0.3098958333333335
                },
                {
                    "name": "G3",
                    "midi": 55,
                    "time": 3.585937500000001,
                    "velocity": 0.6299212598425197,
                    "duration": 0.11458333333333348
                },
                {
                    "name": "B3",
                    "midi": 59,
                    "time": 3.585937500000001,
                    "velocity": 0.6299212598425197,
                    "duration": 0.11458333333333348
                },
                {
                    "name": "D4",
                    "midi": 62,
                    "time": 3.585937500000001,
                    "velocity": 0.6299212598425197,
                    "duration": 0.11979166666666696
                },
                {
                    "name": "F4",
                    "midi": 65,
                    "time": 3.585937500000001,
                    "velocity": 0.6299212598425197,
                    "duration": 0.11979166666666696
                },
                {
                    "name": "C2",
                    "midi": 36,
                    "time": 3.846354166666668,
                    "velocity": 0.6299212598425197,
                    "duration": 0.109375
                },
                {
                    "name": "G4",
                    "midi": 67,
                    "time": 3.846354166666668,
                    "velocity": 0.6299212598425197,
                    "duration": 0.11458333333333348
                },
                {
                    "name": "E5",
                    "midi": 76,
                    "time": 3.846354166666668,
                    "velocity": 0.6299212598425197,
                    "duration": 0.04947916666666652
                },
                {
                    "name": "G5",
                    "midi": 79,
                    "time": 3.846354166666668,
                    "velocity": 0.6299212598425197,
                    "duration": 0.0546875
                },
                {
                    "name": "G2",
                    "midi": 43,
                    "time": 3.979166666666668,
                    "velocity": 0.6299212598425197,
                    "duration": 0.109375
                },
                {
                    "name": "E3",
                    "midi": 52,
                    "time": 3.979166666666668,
                    "velocity": 0.6299212598425197,
                    "duration": 0.7421874999999991
                },
                {
                    "name": "A#4",
                    "midi": 70,
                    "time": 3.979166666666668,
                    "velocity": 0.6299212598425197,
                    "duration": 0.109375
                },
                {
                    "name": "E5",
                    "midi": 76,
                    "time": 3.979166666666668,
                    "velocity": 0.6299212598425197,
                    "duration": 0.04947916666666696
                },
                {
                    "name": "G5",
                    "midi": 79,
                    "time": 3.979166666666668,
                    "velocity": 0.6299212598425197,
                    "duration": 0.04947916666666696
                },
                {
                    "name": "A#5",
                    "midi": 82,
                    "time": 3.979166666666668,
                    "velocity": 0.6299212598425197,
                    "duration": 0.11458333333333304
                },
                {
                    "name": "E5",
                    "midi": 76,
                    "time": 4.111979166666667,
                    "velocity": 0.6299212598425197,
                    "duration": 0.04947916666666696
                },
                {
                    "name": "G5",
                    "midi": 79,
                    "time": 4.111979166666667,
                    "velocity": 0.6299212598425197,
                    "duration": 0.04947916666666696
                },
                {
                    "name": "C6",
                    "midi": 84,
                    "time": 4.111979166666667,
                    "velocity": 0.6299212598425197,
                    "duration": 0.1171875
                },
                {
                    "name": "A#4",
                    "midi": 70,
                    "time": 4.247395833333334,
                    "velocity": 0.6299212598425197,
                    "duration": 0.10416666666666607
                },
                {
                    "name": "E5",
                    "midi": 76,
                    "time": 4.247395833333334,
                    "velocity": 0.6299212598425197,
                    "duration": 0.0390625
                },
                {
                    "name": "G5",
                    "midi": 79,
                    "time": 4.250000000000001,
                    "velocity": 0.6299212598425197,
                    "duration": 0.041666666666666075
                },
                {
                    "name": "A#5",
                    "midi": 82,
                    "time": 4.250000000000001,
                    "velocity": 0.6299212598425197,
                    "duration": 0.10677083333333215
                },
                {
                    "name": "G3",
                    "midi": 55,
                    "time": 4.375,
                    "velocity": 0.6299212598425197,
                    "duration": 0.06510416666666696
                },
                {
                    "name": "A#3",
                    "midi": 58,
                    "time": 4.375,
                    "velocity": 0.6299212598425197,
                    "duration": 0.06510416666666696
                },
                {
                    "name": "C4",
                    "midi": 60,
                    "time": 4.375,
                    "velocity": 0.6299212598425197,
                    "duration": 0.06510416666666696
                },
                {
                    "name": "E4",
                    "midi": 64,
                    "time": 4.375,
                    "velocity": 0.6299212598425197,
                    "duration": 0.06510416666666696
                },
                {
                    "name": "G4",
                    "midi": 67,
                    "time": 4.375,
                    "velocity": 0.6299212598425197,
                    "duration": 0.06510416666666696
                },
                {
                    "name": "E5",
                    "midi": 76,
                    "time": 4.375,
                    "velocity": 0.6299212598425197,
                    "duration": 0.10416666666666696
                },
                {
                    "name": "G5",
                    "midi": 79,
                    "time": 4.375,
                    "velocity": 0.6299212598425197,
                    "duration": 0.10416666666666696
                },
                {
                    "name": "F#4",
                    "midi": 66,
                    "time": 4.635416666666667,
                    "velocity": 0.6299212598425197,
                    "duration": 0.12239583333333304
                },
                {
                    "name": "F#5",
                    "midi": 78,
                    "time": 4.640625,
                    "velocity": 0.6299212598425197,
                    "duration": 0.1171875
                },
                {
                    "name": "F2",
                    "midi": 41,
                    "time": 4.776041666666667,
                    "velocity": 0.6299212598425197,
                    "duration": 0.10416666666666696
                },
                {
                    "name": "F3",
                    "midi": 53,
                    "time": 4.776041666666667,
                    "velocity": 0.6299212598425197,
                    "duration": 0.27604166666666696
                },
                {
                    "name": "F4",
                    "midi": 65,
                    "time": 4.776041666666667,
                    "velocity": 0.6299212598425197,
                    "duration": 0.17708333333333393
                },
                {
                    "name": "A4",
                    "midi": 69,
                    "time": 4.776041666666667,
                    "velocity": 0.6299212598425197,
                    "duration": 0.17708333333333393
                },
                {
                    "name": "F5",
                    "midi": 77,
                    "time": 4.776041666666667,
                    "velocity": 0.6299212598425197,
                    "duration": 0.17708333333333393
                },
                {
                    "name": "C#4",
                    "midi": 61,
                    "time": 5.039062500000001,
                    "velocity": 0.6299212598425197,
                    "duration": 0.10156249999999911
                },
                {
                    "name": "F4",
                    "midi": 65,
                    "time": 5.039062500000001,
                    "velocity": 0.6299212598425197,
                    "duration": 0.041666666666666075
                },
                {
                    "name": "A4",
                    "midi": 69,
                    "time": 5.039062500000001,
                    "velocity": 0.6299212598425197,
                    "duration": 0.10677083333333215
                },
                {
                    "name": "C#5",
                    "midi": 73,
                    "time": 5.039062500000001,
                    "velocity": 0.6299212598425197,
                    "duration": 0.10156249999999911
                },
                {
                    "name": "F3",
                    "midi": 53,
                    "time": 5.1640625,
                    "velocity": 0.6299212598425197,
                    "duration": 0.18229166666666607
                },
                {
                    "name": "C4",
                    "midi": 60,
                    "time": 5.1640625,
                    "velocity": 0.6299212598425197,
                    "duration": 0.18229166666666607
                },
                {
                    "name": "D#4",
                    "midi": 63,
                    "time": 5.1640625,
                    "velocity": 0.6299212598425197,
                    "duration": 0.18229166666666607
                },
                {
                    "name": "F4",
                    "midi": 65,
                    "time": 5.1640625,
                    "velocity": 0.6299212598425197,
                    "duration": 0.18229166666666607
                },
                {
                    "name": "D5",
                    "midi": 74,
                    "time": 5.169270833333333,
                    "velocity": 0.6299212598425197,
                    "duration": 0.17708333333333304
                },
                {
                    "name": "A#4",
                    "midi": 70,
                    "time": 5.432291666666666,
                    "velocity": 0.6299212598425197,
                    "duration": 0.20833333333333393
                },
                {
                    "name": "A#2",
                    "midi": 46,
                    "time": 5.5625,
                    "velocity": 0.6299212598425197,
                    "duration": 0.07291666666666696
                },
                {
                    "name": "A#3",
                    "midi": 58,
                    "time": 5.580729166666667,
                    "velocity": 0.6299212598425197,
                    "duration": 0.05989583333333304
                },
                {
                    "name": "F4",
                    "midi": 65,
                    "time": 5.822916666666666,
                    "velocity": 0.6299212598425197,
                    "duration": 0.078125
                },
                {
                    "name": "F5",
                    "midi": 77,
                    "time": 5.828124999999999,
                    "velocity": 0.6299212598425197,
                    "duration": 0.07291666666666696
                },
                {
                    "name": "F2",
                    "midi": 41,
                    "time": 5.955729166666666,
                    "velocity": 0.6299212598425197,
                    "duration": 0.17708333333333304
                },
                {
                    "name": "A2",
                    "midi": 45,
                    "time": 5.955729166666666,
                    "velocity": 0.6299212598425197,
                    "duration": 0.17708333333333304
                },
                {
                    "name": "C3",
                    "midi": 48,
                    "time": 5.955729166666666,
                    "velocity": 0.6299212598425197,
                    "duration": 0.17708333333333304
                },
                {
                    "name": "F3",
                    "midi": 53,
                    "time": 5.955729166666666,
                    "velocity": 0.6299212598425197,
                    "duration": 0.17708333333333304
                },
                {
                    "name": "G4",
                    "midi": 67,
                    "time": 5.955729166666666,
                    "velocity": 0.6299212598425197,
                    "duration": 0.17708333333333304
                },
                {
                    "name": "D5",
                    "midi": 74,
                    "time": 5.955729166666666,
                    "velocity": 0.6299212598425197,
                    "duration": 0.17708333333333304
                },
                {
                    "name": "G5",
                    "midi": 79,
                    "time": 5.955729166666666,
                    "velocity": 0.6299212598425197,
                    "duration": 0.17708333333333304
                },
                {
                    "name": "F4",
                    "midi": 65,
                    "time": 6.218749999999999,
                    "velocity": 0.6299212598425197,
                    "duration": 0.12239583333333304
                },
                {
                    "name": "F5",
                    "midi": 77,
                    "time": 6.218749999999999,
                    "velocity": 0.6299212598425197,
                    "duration": 0.12239583333333304
                },
                {
                    "name": "A#2",
                    "midi": 46,
                    "time": 6.359374999999999,
                    "velocity": 0.6299212598425197,
                    "duration": 0.23697916666666696
                },
                {
                    "name": "F3",
                    "midi": 53,
                    "time": 6.359374999999999,
                    "velocity": 0.6299212598425197,
                    "duration": 0.2421875
                },
                {
                    "name": "A#3",
                    "midi": 58,
                    "time": 6.359374999999999,
                    "velocity": 0.6299212598425197,
                    "duration": 0.23697916666666696
                },
                {
                    "name": "D4",
                    "midi": 62,
                    "time": 6.359374999999999,
                    "velocity": 0.6299212598425197,
                    "duration": 0.2421875
                },
                {
                    "name": "D5",
                    "midi": 74,
                    "time": 6.359374999999999,
                    "velocity": 0.6299212598425197,
                    "duration": 0.2421875
                },
                {
                    "name": "F2",
                    "midi": 41,
                    "time": 6.752604166666666,
                    "velocity": 0.6299212598425197,
                    "duration": 0.1171875
                },
                {
                    "name": "F3",
                    "midi": 53,
                    "time": 6.757812499999999,
                    "velocity": 0.6299212598425197,
                    "duration": 0.08072916666666696
                },
                {
                    "name": "F4",
                    "midi": 65,
                    "time": 6.757812499999999,
                    "velocity": 0.6299212598425197,
                    "duration": 0.11197916666666696
                },
                {
                    "name": "A4",
                    "midi": 69,
                    "time": 6.757812499999999,
                    "velocity": 0.6299212598425197,
                    "duration": 0.08072916666666696
                },
                {
                    "name": "D#5",
                    "midi": 75,
                    "time": 6.757812499999999,
                    "velocity": 0.6299212598425197,
                    "duration": 0.08072916666666696
                },
                {
                    "name": "F5",
                    "midi": 77,
                    "time": 6.757812499999999,
                    "velocity": 0.6299212598425197,
                    "duration": 0.08072916666666696
                },
                {
                    "name": "D2",
                    "midi": 38,
                    "time": 7.169270833333333,
                    "velocity": 0.6299212598425197,
                    "duration": 0.7109375
                },
                {
                    "name": "D3",
                    "midi": 50,
                    "time": 7.169270833333333,
                    "velocity": 0.6299212598425197,
                    "duration": 0.7109375
                },
                {
                    "name": "C4",
                    "midi": 60,
                    "time": 7.4375,
                    "velocity": 0.6299212598425197,
                    "duration": 0.049479166666666075
                },
                {
                    "name": "D4",
                    "midi": 62,
                    "time": 7.473958333333333,
                    "velocity": 0.6299212598425197,
                    "duration": 0.049479166666666075
                },
                {
                    "name": "D#4",
                    "midi": 63,
                    "time": 7.510416666666666,
                    "velocity": 0.6299212598425197,
                    "duration": 0.04947916666666696
                },
                {
                    "name": "E4",
                    "midi": 64,
                    "time": 7.541666666666666,
                    "velocity": 0.6299212598425197,
                    "duration": 0.04166666666666696
                },
                {
                    "name": "F4",
                    "midi": 65,
                    "time": 7.5703125,
                    "velocity": 0.6299212598425197,
                    "duration": 0.11718749999999911
                },
                {
                    "name": "E4",
                    "midi": 64,
                    "time": 7.838541666666666,
                    "velocity": 0.6299212598425197,
                    "duration": 0.3098958333333339
                },
                {
                    "name": "A4",
                    "midi": 69,
                    "time": 7.838541666666666,
                    "velocity": 0.6299212598425197,
                    "duration": 0.3098958333333339
                },
                {
                    "name": "C#2",
                    "midi": 37,
                    "time": 7.966145833333333,
                    "velocity": 0.6299212598425197,
                    "duration": 0.716145833333333
                },
                {
                    "name": "C#3",
                    "midi": 49,
                    "time": 7.966145833333333,
                    "velocity": 0.6299212598425197,
                    "duration": 0.721354166666667
                },
                {
                    "name": "A3",
                    "midi": 57,
                    "time": 7.966145833333333,
                    "velocity": 0.6299212598425197,
                    "duration": 0.18229166666666696
                },
                {
                    "name": "G#4",
                    "midi": 68,
                    "time": 8.2421875,
                    "velocity": 0.6299212598425197,
                    "duration": 0.049479166666666075
                },
                {
                    "name": "A#3",
                    "midi": 58,
                    "time": 8.375,
                    "velocity": 0.6299212598425197,
                    "duration": 0.21354166666666607
                },
                {
                    "name": "E4",
                    "midi": 64,
                    "time": 8.375,
                    "velocity": 0.6299212598425197,
                    "duration": 0.20833333333333215
                },
                {
                    "name": "G#4",
                    "midi": 68,
                    "time": 8.375,
                    "velocity": 0.6299212598425197,
                    "duration": 0.08072916666666607
                },
                {
                    "name": "G4",
                    "midi": 67,
                    "time": 8.510416666666666,
                    "velocity": 0.6299212598425197,
                    "duration": 0.07291666666666607
                },
                {
                    "name": "A4",
                    "midi": 69,
                    "time": 8.638020833333332,
                    "velocity": 0.6299212598425197,
                    "duration": 0.11458333333333393
                },
                {
                    "name": "C2",
                    "midi": 36,
                    "time": 8.770833333333334,
                    "velocity": 0.6299212598425197,
                    "duration": 0.6119791666666679
                },
                {
                    "name": "C3",
                    "midi": 48,
                    "time": 8.770833333333334,
                    "velocity": 0.6299212598425197,
                    "duration": 0.6119791666666679
                },
                {
                    "name": "A3",
                    "midi": 57,
                    "time": 8.770833333333334,
                    "velocity": 0.6299212598425197,
                    "duration": 0.2890625
                },
                {
                    "name": "D#4",
                    "midi": 63,
                    "time": 8.770833333333334,
                    "velocity": 0.6299212598425197,
                    "duration": 0.2890625
                },
                {
                    "name": "G4",
                    "midi": 67,
                    "time": 8.770833333333334,
                    "velocity": 0.6299212598425197,
                    "duration": 0.2890625
                },
                {
                    "name": "A3",
                    "midi": 57,
                    "time": 9.169270833333334,
                    "velocity": 0.6299212598425197,
                    "duration": 0.12239583333333393
                },
                {
                    "name": "D#4",
                    "midi": 63,
                    "time": 9.174479166666668,
                    "velocity": 0.6299212598425197,
                    "duration": 0.078125
                },
                {
                    "name": "F#4",
                    "midi": 66,
                    "time": 9.174479166666668,
                    "velocity": 0.6299212598425197,
                    "duration": 0.1171875
                },
                {
                    "name": "A3",
                    "midi": 57,
                    "time": 9.437500000000002,
                    "velocity": 0.6299212598425197,
                    "duration": 0.3854166666666661
                },
                {
                    "name": "D#4",
                    "midi": 63,
                    "time": 9.437500000000002,
                    "velocity": 0.6299212598425197,
                    "duration": 0.3854166666666661
                },
                {
                    "name": "F4",
                    "midi": 65,
                    "time": 9.437500000000002,
                    "velocity": 0.6299212598425197,
                    "duration": 0.3854166666666661
                },
                {
                    "name": "F2",
                    "midi": 41,
                    "time": 9.578125000000002,
                    "velocity": 0.6299212598425197,
                    "duration": 0.24479166666666607
                },
                {
                    "name": "C3",
                    "midi": 48,
                    "time": 9.578125000000002,
                    "velocity": 0.6299212598425197,
                    "duration": 0.24479166666666607
                },
                {
                    "name": "F2",
                    "midi": 41,
                    "time": 9.981770833333334,
                    "velocity": 0.6299212598425197,
                    "duration": 0.08333333333333393
                },
                {
                    "name": "F3",
                    "midi": 53,
                    "time": 9.986979166666668,
                    "velocity": 0.6299212598425197,
                    "duration": 0.078125
                },
                {
                    "name": "F4",
                    "midi": 65,
                    "time": 9.986979166666668,
                    "velocity": 0.6299212598425197,
                    "duration": 0.1171875
                },
                {
                    "name": "A4",
                    "midi": 69,
                    "time": 9.986979166666668,
                    "velocity": 0.6299212598425197,
                    "duration": 0.078125
                },
                {
                    "name": "C5",
                    "midi": 72,
                    "time": 9.986979166666668,
                    "velocity": 0.6299212598425197,
                    "duration": 0.078125
                },
                {
                    "name": "D#5",
                    "midi": 75,
                    "time": 9.986979166666668,
                    "velocity": 0.6299212598425197,
                    "duration": 0.078125
                },
                {
                    "name": "F5",
                    "midi": 77,
                    "time": 9.986979166666668,
                    "velocity": 0.6299212598425197,
                    "duration": 0.078125
                },
                {
                    "name": "D2",
                    "midi": 38,
                    "time": 10.390625000000002,
                    "velocity": 0.6299212598425197,
                    "duration": 0.7109375000000018
                },
                {
                    "name": "D3",
                    "midi": 50,
                    "time": 10.421875000000002,
                    "velocity": 0.6299212598425197,
                    "duration": 0.6796875000000018
                },
                {
                    "name": "G3",
                    "midi": 55,
                    "time": 10.804687500000002,
                    "velocity": 0.6299212598425197,
                    "duration": 0.19791666666666785
                },
                {
                    "name": "C#4",
                    "midi": 61,
                    "time": 10.804687500000002,
                    "velocity": 0.6299212598425197,
                    "duration": 0.16927083333333393
                },
                {
                    "name": "D4",
                    "midi": 62,
                    "time": 11.062500000000004,
                    "velocity": 0.6299212598425197,
                    "duration": 0.10677083333333393
                },
                {
                    "name": "C#2",
                    "midi": 37,
                    "time": 11.187500000000004,
                    "velocity": 0.6299212598425197,
                    "duration": 0.7552083333333321
                },
                {
                    "name": "C#3",
                    "midi": 49,
                    "time": 11.187500000000004,
                    "velocity": 0.6299212598425197,
                    "duration": 0.7552083333333321
                },
                {
                    "name": "A#3",
                    "midi": 58,
                    "time": 11.19010416666667,
                    "velocity": 0.6299212598425197,
                    "duration": 0.25
                },
                {
                    "name": "E4",
                    "midi": 64,
                    "time": 11.19010416666667,
                    "velocity": 0.6299212598425197,
                    "duration": 0.25
                },
                {
                    "name": "A4",
                    "midi": 69,
                    "time": 11.19010416666667,
                    "velocity": 0.6299212598425197,
                    "duration": 0.25
                },
                {
                    "name": "A#3",
                    "midi": 58,
                    "time": 11.593750000000004,
                    "velocity": 0.6299212598425197,
                    "duration": 0.24479166666666607
                },
                {
                    "name": "E4",
                    "midi": 64,
                    "time": 11.593750000000004,
                    "velocity": 0.6299212598425197,
                    "duration": 0.24479166666666607
                },
                {
                    "name": "G4",
                    "midi": 67,
                    "time": 11.593750000000004,
                    "velocity": 0.6299212598425197,
                    "duration": 0.24479166666666607
                },
                {
                    "name": "C2",
                    "midi": 36,
                    "time": 11.98697916666667,
                    "velocity": 0.6299212598425197,
                    "duration": 0.6718750000000036
                },
                {
                    "name": "C3",
                    "midi": 48,
                    "time": 11.98697916666667,
                    "velocity": 0.6299212598425197,
                    "duration": 0.6718750000000036
                },
                {
                    "name": "A3",
                    "midi": 57,
                    "time": 11.992187500000004,
                    "velocity": 0.6299212598425197,
                    "duration": 0.23697916666666607
                },
                {
                    "name": "D#4",
                    "midi": 63,
                    "time": 11.992187500000004,
                    "velocity": 0.6299212598425197,
                    "duration": 0.2421875
                },
                {
                    "name": "G4",
                    "midi": 67,
                    "time": 11.992187500000004,
                    "velocity": 0.6299212598425197,
                    "duration": 0.2421875
                },
                {
                    "name": "A3",
                    "midi": 57,
                    "time": 12.377604166666671,
                    "velocity": 0.6299212598425197,
                    "duration": 0.11197916666666785
                },
                {
                    "name": "D#4",
                    "midi": 63,
                    "time": 12.382812500000005,
                    "velocity": 0.6299212598425197,
                    "duration": 0.11197916666666785
                },
                {
                    "name": "F#4",
                    "midi": 66,
                    "time": 12.382812500000005,
                    "velocity": 0.6299212598425197,
                    "duration": 0.11197916666666785
                },
                {
                    "name": "A3",
                    "midi": 57,
                    "time": 12.64583333333334,
                    "velocity": 0.6299212598425197,
                    "duration": 0.3437500000000018
                },
                {
                    "name": "D#4",
                    "midi": 63,
                    "time": 12.64583333333334,
                    "velocity": 0.6299212598425197,
                    "duration": 0.3489583333333357
                },
                {
                    "name": "F4",
                    "midi": 65,
                    "time": 12.64583333333334,
                    "velocity": 0.6299212598425197,
                    "duration": 0.3489583333333357
                },
                {
                    "name": "F2",
                    "midi": 41,
                    "time": 12.781250000000007,
                    "velocity": 0.6299212598425197,
                    "duration": 0.20833333333333393
                },
                {
                    "name": "C3",
                    "midi": 48,
                    "time": 12.781250000000007,
                    "velocity": 0.6299212598425197,
                    "duration": 0.20833333333333393
                },
                {
                    "name": "E2",
                    "midi": 40,
                    "time": 13.171875000000009,
                    "velocity": 0.6299212598425197,
                    "duration": 0.08333333333333393
                },
                {
                    "name": "E3",
                    "midi": 52,
                    "time": 13.171875000000009,
                    "velocity": 0.6299212598425197,
                    "duration": 0.3177083333333339
                },
                {
                    "name": "F2",
                    "midi": 41,
                    "time": 13.445312500000009,
                    "velocity": 0.6299212598425197,
                    "duration": 0.2500000000000018
                },
                {
                    "name": "F3",
                    "midi": 53,
                    "time": 13.580729166666677,
                    "velocity": 0.6299212598425197,
                    "duration": 0.2552083333333339
                },
                {
                    "name": "C#4",
                    "midi": 61,
                    "time": 13.861979166666677,
                    "velocity": 0.6299212598425197,
                    "duration": 0.07291666666666785
                },
                {
                    "name": "G#4",
                    "midi": 68,
                    "time": 13.861979166666677,
                    "velocity": 0.6299212598425197,
                    "duration": 0.04166666666666785
                },
                {
                    "name": "C#5",
                    "midi": 73,
                    "time": 13.861979166666677,
                    "velocity": 0.6299212598425197,
                    "duration": 0.07291666666666785
                },
                {
                    "name": "F3",
                    "midi": 53,
                    "time": 13.989583333333345,
                    "velocity": 0.6299212598425197,
                    "duration": 0.6744791666666679
                },
                {
                    "name": "G#3",
                    "midi": 56,
                    "time": 13.989583333333345,
                    "velocity": 0.6299212598425197,
                    "duration": 0.2708333333333339
                },
                {
                    "name": "A#3",
                    "midi": 58,
                    "time": 13.989583333333345,
                    "velocity": 0.6299212598425197,
                    "duration": 0.21875
                },
                {
                    "name": "G#4",
                    "midi": 68,
                    "time": 13.989583333333345,
                    "velocity": 0.6299212598425197,
                    "duration": 0.078125
                },
                {
                    "name": "D5",
                    "midi": 74,
                    "time": 13.989583333333345,
                    "velocity": 0.6299212598425197,
                    "duration": 0.078125
                },
                {
                    "name": "D4",
                    "midi": 62,
                    "time": 14.018229166666679,
                    "velocity": 0.6299212598425197,
                    "duration": 0.049479166666666075
                },
                {
                    "name": "D5",
                    "midi": 74,
                    "time": 14.25000000000001,
                    "velocity": 0.6299212598425197,
                    "duration": 0.3828125000000018
                },
                {
                    "name": "D6",
                    "midi": 86,
                    "time": 14.25000000000001,
                    "velocity": 0.6299212598425197,
                    "duration": 0.3828125000000018
                },
                {
                    "name": "G#5",
                    "midi": 80,
                    "time": 14.255208333333345,
                    "velocity": 0.6299212598425197,
                    "duration": 0.37760416666666785
                },
                {
                    "name": "F3",
                    "midi": 53,
                    "time": 14.791666666666679,
                    "velocity": 0.6299212598425197,
                    "duration": 0.3124999999999982
                },
                {
                    "name": "G#3",
                    "midi": 56,
                    "time": 14.791666666666679,
                    "velocity": 0.6299212598425197,
                    "duration": 0.17708333333333215
                },
                {
                    "name": "A#3",
                    "midi": 58,
                    "time": 14.791666666666679,
                    "velocity": 0.6299212598425197,
                    "duration": 0.17708333333333215
                },
                {
                    "name": "D4",
                    "midi": 62,
                    "time": 14.791666666666679,
                    "velocity": 0.6299212598425197,
                    "duration": 0.14583333333333215
                },
                {
                    "name": "C#5",
                    "midi": 73,
                    "time": 14.791666666666679,
                    "velocity": 0.6299212598425197,
                    "duration": 0.08072916666666607
                },
                {
                    "name": "G#5",
                    "midi": 80,
                    "time": 14.791666666666679,
                    "velocity": 0.6299212598425197,
                    "duration": 0.08072916666666607
                },
                {
                    "name": "C#6",
                    "midi": 85,
                    "time": 14.791666666666679,
                    "velocity": 0.6299212598425197,
                    "duration": 0.08072916666666607
                },
                {
                    "name": "D#2",
                    "midi": 39,
                    "time": 15.05468750000001,
                    "velocity": 0.6299212598425197,
                    "duration": 0.109375
                },
                {
                    "name": "D5",
                    "midi": 74,
                    "time": 15.05468750000001,
                    "velocity": 0.6299212598425197,
                    "duration": 0.11458333333333393
                },
                {
                    "name": "G#5",
                    "midi": 80,
                    "time": 15.05468750000001,
                    "velocity": 0.6299212598425197,
                    "duration": 0.11979166666666785
                },
                {
                    "name": "D6",
                    "midi": 86,
                    "time": 15.05468750000001,
                    "velocity": 0.6299212598425197,
                    "duration": 0.11979166666666785
                },
                {
                    "name": "A#2",
                    "midi": 46,
                    "time": 15.184895833333346,
                    "velocity": 0.6299212598425197,
                    "duration": 0.109375
                },
                {
                    "name": "G3",
                    "midi": 55,
                    "time": 15.184895833333346,
                    "velocity": 0.6299212598425197,
                    "duration": 0.7473958333333321
                },
                {
                    "name": "G5",
                    "midi": 79,
                    "time": 15.184895833333346,
                    "velocity": 0.6299212598425197,
                    "duration": 0.2526041666666661
                },
                {
                    "name": "A#5",
                    "midi": 82,
                    "time": 15.184895833333346,
                    "velocity": 0.6299212598425197,
                    "duration": 0.25
                },
                {
                    "name": "C6",
                    "midi": 84,
                    "time": 15.184895833333346,
                    "velocity": 0.6299212598425197,
                    "duration": 0.25
                },
                {
                    "name": "C5",
                    "midi": 72,
                    "time": 15.22135416666668,
                    "velocity": 0.6299212598425197,
                    "duration": 0.21354166666666607
                },
                {
                    "name": "A#3",
                    "midi": 58,
                    "time": 15.585937500000012,
                    "velocity": 0.6299212598425197,
                    "duration": 0.109375
                },
                {
                    "name": "D#4",
                    "midi": 63,
                    "time": 15.585937500000012,
                    "velocity": 0.6299212598425197,
                    "duration": 0.109375
                },
                {
                    "name": "G4",
                    "midi": 67,
                    "time": 15.585937500000012,
                    "velocity": 0.6299212598425197,
                    "duration": 0.109375
                },
                {
                    "name": "B4",
                    "midi": 71,
                    "time": 15.585937500000012,
                    "velocity": 0.6299212598425197,
                    "duration": 0.109375
                },
                {
                    "name": "B5",
                    "midi": 83,
                    "time": 15.585937500000012,
                    "velocity": 0.6299212598425197,
                    "duration": 0.109375
                },
                {
                    "name": "A#4",
                    "midi": 70,
                    "time": 15.854166666666679,
                    "velocity": 0.6299212598425197,
                    "duration": 0.2916666666666643
                },
                {
                    "name": "G5",
                    "midi": 79,
                    "time": 15.854166666666679,
                    "velocity": 0.6299212598425197,
                    "duration": 0.2916666666666643
                },
                {
                    "name": "A#5",
                    "midi": 82,
                    "time": 15.859375000000012,
                    "velocity": 0.6299212598425197,
                    "duration": 0.2864583333333304
                },
                {
                    "name": "D#2",
                    "midi": 39,
                    "time": 15.986979166666679,
                    "velocity": 0.6299212598425197,
                    "duration": 0.12239583333333215
                },
                {
                    "name": "D#3",
                    "midi": 51,
                    "time": 15.986979166666679,
                    "velocity": 0.6299212598425197,
                    "duration": 0.12239583333333215
                },
                {
                    "name": "B4",
                    "midi": 71,
                    "time": 16.27343750000001,
                    "velocity": 0.6299212598425197,
                    "duration": 0.14322916666666785
                },
                {
                    "name": "G5",
                    "midi": 79,
                    "time": 16.27343750000001,
                    "velocity": 0.6299212598425197,
                    "duration": 0.04947916666666785
                },
                {
                    "name": "B5",
                    "midi": 83,
                    "time": 16.27343750000001,
                    "velocity": 0.6299212598425197,
                    "duration": 0.1484375
                },
                {
                    "name": "F2",
                    "midi": 41,
                    "time": 16.403645833333346,
                    "velocity": 0.6299212598425197,
                    "duration": 0.14062499999999645
                },
                {
                    "name": "D3",
                    "midi": 50,
                    "time": 16.403645833333346,
                    "velocity": 0.6299212598425197,
                    "duration": 0.14062499999999645
                },
                {
                    "name": "C5",
                    "midi": 72,
                    "time": 16.403645833333346,
                    "velocity": 0.6299212598425197,
                    "duration": 0.10937499999999645
                },
                {
                    "name": "G5",
                    "midi": 79,
                    "time": 16.403645833333346,
                    "velocity": 0.6299212598425197,
                    "duration": 0.10937499999999645
                },
                {
                    "name": "C6",
                    "midi": 84,
                    "time": 16.403645833333346,
                    "velocity": 0.6299212598425197,
                    "duration": 0.10937499999999645
                },
                {
                    "name": "F#2",
                    "midi": 42,
                    "time": 16.67187500000001,
                    "velocity": 0.6299212598425197,
                    "duration": 0.0755208333333357
                },
                {
                    "name": "D#3",
                    "midi": 51,
                    "time": 16.67187500000001,
                    "velocity": 0.6299212598425197,
                    "duration": 0.0755208333333357
                },
                {
                    "name": "C#5",
                    "midi": 73,
                    "time": 16.67187500000001,
                    "velocity": 0.6299212598425197,
                    "duration": 0.07812500000000355
                },
                {
                    "name": "G5",
                    "midi": 79,
                    "time": 16.67187500000001,
                    "velocity": 0.6299212598425197,
                    "duration": 0.04947916666666785
                },
                {
                    "name": "A#5",
                    "midi": 82,
                    "time": 16.67187500000001,
                    "velocity": 0.6299212598425197,
                    "duration": 0.04947916666666785
                },
                {
                    "name": "C#6",
                    "midi": 85,
                    "time": 16.67187500000001,
                    "velocity": 0.6299212598425197,
                    "duration": 0.07812500000000355
                },
                {
                    "name": "G2",
                    "midi": 43,
                    "time": 16.807291666666682,
                    "velocity": 0.6299212598425197,
                    "duration": 0.0703125
                },
                {
                    "name": "E3",
                    "midi": 52,
                    "time": 16.807291666666682,
                    "velocity": 0.6299212598425197,
                    "duration": 1.2604166666666643
                },
                {
                    "name": "D5",
                    "midi": 74,
                    "time": 16.807291666666682,
                    "velocity": 0.6299212598425197,
                    "duration": 0.20572916666666785
                },
                {
                    "name": "G5",
                    "midi": 79,
                    "time": 16.812500000000014,
                    "velocity": 0.6299212598425197,
                    "duration": 0.2005208333333357
                },
                {
                    "name": "A#5",
                    "midi": 82,
                    "time": 16.812500000000014,
                    "velocity": 0.6299212598425197,
                    "duration": 0.2005208333333357
                },
                {
                    "name": "D6",
                    "midi": 86,
                    "time": 16.812500000000014,
                    "velocity": 0.6299212598425197,
                    "duration": 0.2005208333333357
                },
                {
                    "name": "G3",
                    "midi": 55,
                    "time": 17.203125000000018,
                    "velocity": 0.6299212598425197,
                    "duration": 0.07291666666666785
                },
                {
                    "name": "A#3",
                    "midi": 58,
                    "time": 17.203125000000018,
                    "velocity": 0.6299212598425197,
                    "duration": 0.07291666666666785
                },
                {
                    "name": "C4",
                    "midi": 60,
                    "time": 17.203125000000018,
                    "velocity": 0.6299212598425197,
                    "duration": 0.07291666666666785
                },
                {
                    "name": "E4",
                    "midi": 64,
                    "time": 17.203125000000018,
                    "velocity": 0.6299212598425197,
                    "duration": 0.07291666666666785
                },
                {
                    "name": "C5",
                    "midi": 72,
                    "time": 17.203125000000018,
                    "velocity": 0.6299212598425197,
                    "duration": 0.078125
                },
                {
                    "name": "G5",
                    "midi": 79,
                    "time": 17.203125000000018,
                    "velocity": 0.6299212598425197,
                    "duration": 0.078125
                },
                {
                    "name": "A#5",
                    "midi": 82,
                    "time": 17.203125000000018,
                    "velocity": 0.6299212598425197,
                    "duration": 0.078125
                },
                {
                    "name": "C6",
                    "midi": 84,
                    "time": 17.203125000000018,
                    "velocity": 0.6299212598425197,
                    "duration": 0.078125
                },
                {
                    "name": "D5",
                    "midi": 74,
                    "time": 17.471354166666686,
                    "velocity": 0.6299212598425197,
                    "duration": 0.07291666666666785
                },
                {
                    "name": "G5",
                    "midi": 79,
                    "time": 17.471354166666686,
                    "velocity": 0.6299212598425197,
                    "duration": 0.04166666666666785
                },
                {
                    "name": "A#5",
                    "midi": 82,
                    "time": 17.471354166666686,
                    "velocity": 0.6299212598425197,
                    "duration": 0.046875
                },
                {
                    "name": "D6",
                    "midi": 86,
                    "time": 17.471354166666686,
                    "velocity": 0.6299212598425197,
                    "duration": 0.078125
                },
                {
                    "name": "C2",
                    "midi": 36,
                    "time": 17.591145833333353,
                    "velocity": 0.6299212598425197,
                    "duration": 0.07812499999999645
                },
                {
                    "name": "C5",
                    "midi": 72,
                    "time": 17.596354166666686,
                    "velocity": 0.6299212598425197,
                    "duration": 0.07812499999999645
                },
                {
                    "name": "A#5",
                    "midi": 82,
                    "time": 17.596354166666686,
                    "velocity": 0.6299212598425197,
                    "duration": 0.07812499999999645
                },
                {
                    "name": "C6",
                    "midi": 84,
                    "time": 17.596354166666686,
                    "velocity": 0.6299212598425197,
                    "duration": 0.07812499999999645
                },
                {
                    "name": "G5",
                    "midi": 79,
                    "time": 17.601562500000018,
                    "velocity": 0.6299212598425197,
                    "duration": 0.0729166666666643
                },
                {
                    "name": "A#4",
                    "midi": 70,
                    "time": 17.869791666666682,
                    "velocity": 0.6299212598425197,
                    "duration": 0.078125
                },
                {
                    "name": "E5",
                    "midi": 76,
                    "time": 17.869791666666682,
                    "velocity": 0.6299212598425197,
                    "duration": 0.04947916666666785
                },
                {
                    "name": "A#5",
                    "midi": 82,
                    "time": 17.869791666666682,
                    "velocity": 0.6299212598425197,
                    "duration": 0.08333333333333215
                },
                {
                    "name": "G3",
                    "midi": 55,
                    "time": 17.997395833333346,
                    "velocity": 0.6299212598425197,
                    "duration": 0.0703125
                },
                {
                    "name": "A#3",
                    "midi": 58,
                    "time": 17.997395833333346,
                    "velocity": 0.6299212598425197,
                    "duration": 0.3255208333333286
                },
                {
                    "name": "C4",
                    "midi": 60,
                    "time": 17.997395833333346,
                    "velocity": 0.6299212598425197,
                    "duration": 0.07552083333333215
                },
                {
                    "name": "E4",
                    "midi": 64,
                    "time": 17.997395833333346,
                    "velocity": 0.6299212598425197,
                    "duration": 0.07552083333333215
                },
                {
                    "name": "G4",
                    "midi": 67,
                    "time": 17.997395833333346,
                    "velocity": 0.6299212598425197,
                    "duration": 0.07552083333333215
                },
                {
                    "name": "E5",
                    "midi": 76,
                    "time": 17.997395833333346,
                    "velocity": 0.6299212598425197,
                    "duration": 0.07552083333333215
                },
                {
                    "name": "G5",
                    "midi": 79,
                    "time": 18.000000000000014,
                    "velocity": 0.6299212598425197,
                    "duration": 0.0729166666666643
                },
                {
                    "name": "C3",
                    "midi": 48,
                    "time": 18.25000000000001,
                    "velocity": 0.6299212598425197,
                    "duration": 0.0729166666666643
                },
                {
                    "name": "A4",
                    "midi": 69,
                    "time": 18.255208333333343,
                    "velocity": 0.6299212598425197,
                    "duration": 0.0729166666666643
                },
                {
                    "name": "E5",
                    "midi": 76,
                    "time": 18.255208333333343,
                    "velocity": 0.6299212598425197,
                    "duration": 0.06770833333333215
                },
                {
                    "name": "A5",
                    "midi": 81,
                    "time": 18.255208333333343,
                    "velocity": 0.6299212598425197,
                    "duration": 0.0729166666666643
                },
                {
                    "name": "A3",
                    "midi": 57,
                    "time": 18.377604166666675,
                    "velocity": 0.6299212598425197,
                    "duration": 0.27864583333333215
                },
                {
                    "name": "C4",
                    "midi": 60,
                    "time": 18.382812500000007,
                    "velocity": 0.6299212598425197,
                    "duration": 0.171875
                },
                {
                    "name": "G4",
                    "midi": 67,
                    "time": 18.382812500000007,
                    "velocity": 0.6299212598425197,
                    "duration": 0.171875
                },
                {
                    "name": "D#5",
                    "midi": 75,
                    "time": 18.382812500000007,
                    "velocity": 0.6299212598425197,
                    "duration": 0.17708333333333215
                },
                {
                    "name": "G5",
                    "midi": 79,
                    "time": 18.382812500000007,
                    "velocity": 0.6299212598425197,
                    "duration": 0.17708333333333215
                },
                {
                    "name": "F3",
                    "midi": 53,
                    "time": 18.783854166666675,
                    "velocity": 0.6299212598425197,
                    "duration": 0.109375
                },
                {
                    "name": "A3",
                    "midi": 57,
                    "time": 18.783854166666675,
                    "velocity": 0.6299212598425197,
                    "duration": 0.6067708333333357
                },
                {
                    "name": "D4",
                    "midi": 62,
                    "time": 18.783854166666675,
                    "velocity": 0.6299212598425197,
                    "duration": 0.10416666666666785
                },
                {
                    "name": "G#4",
                    "midi": 68,
                    "time": 18.783854166666675,
                    "velocity": 0.6299212598425197,
                    "duration": 0.109375
                },
                {
                    "name": "B4",
                    "midi": 71,
                    "time": 18.783854166666675,
                    "velocity": 0.6299212598425197,
                    "duration": 0.109375
                },
                {
                    "name": "D5",
                    "midi": 74,
                    "time": 18.783854166666675,
                    "velocity": 0.6299212598425197,
                    "duration": 0.109375
                },
                {
                    "name": "D#4",
                    "midi": 63,
                    "time": 19.059895833333343,
                    "velocity": 0.6299212598425197,
                    "duration": 0.33072916666666785
                },
                {
                    "name": "A4",
                    "midi": 69,
                    "time": 19.059895833333343,
                    "velocity": 0.6299212598425197,
                    "duration": 0.3359375
                },
                {
                    "name": "C5",
                    "midi": 72,
                    "time": 19.059895833333343,
                    "velocity": 0.6299212598425197,
                    "duration": 0.33072916666666785
                },
                {
                    "name": "D#5",
                    "midi": 75,
                    "time": 19.059895833333343,
                    "velocity": 0.6299212598425197,
                    "duration": 0.3359375
                },
                {
                    "name": "F2",
                    "midi": 41,
                    "time": 19.18750000000001,
                    "velocity": 0.6299212598425197,
                    "duration": 0.0625
                },
                {
                    "name": "C3",
                    "midi": 48,
                    "time": 19.19010416666668,
                    "velocity": 0.6299212598425197,
                    "duration": 0.0651041666666643
                },
                {
                    "name": "F3",
                    "midi": 53,
                    "time": 19.58593750000001,
                    "velocity": 0.6299212598425197,
                    "duration": 0.07291666666666785
                },
                {
                    "name": "A3",
                    "midi": 57,
                    "time": 19.58593750000001,
                    "velocity": 0.6299212598425197,
                    "duration": 0.22916666666666785
                },
                {
                    "name": "C4",
                    "midi": 60,
                    "time": 19.58593750000001,
                    "velocity": 0.6299212598425197,
                    "duration": 0.078125
                },
                {
                    "name": "D#4",
                    "midi": 63,
                    "time": 19.58593750000001,
                    "velocity": 0.6299212598425197,
                    "duration": 0.07291666666666785
                },
                {
                    "name": "F4",
                    "midi": 65,
                    "time": 19.58593750000001,
                    "velocity": 0.6299212598425197,
                    "duration": 0.22916666666666785
                },
                {
                    "name": "A4",
                    "midi": 69,
                    "time": 19.58593750000001,
                    "velocity": 0.6299212598425197,
                    "duration": 0.22916666666666785
                },
                {
                    "name": "C5",
                    "midi": 72,
                    "time": 19.58593750000001,
                    "velocity": 0.6299212598425197,
                    "duration": 0.2265625
                },
                {
                    "name": "D#5",
                    "midi": 75,
                    "time": 19.58593750000001,
                    "velocity": 0.6299212598425197,
                    "duration": 0.22916666666666785
                },
                {
                    "name": "F5",
                    "midi": 77,
                    "time": 19.58593750000001,
                    "velocity": 0.6299212598425197,
                    "duration": 0.22916666666666785
                },
                {
                    "name": "D2",
                    "midi": 38,
                    "time": 19.82812500000001,
                    "velocity": 0.6299212598425197,
                    "duration": 0.08072916666666785
                },
                {
                    "name": "D3",
                    "midi": 50,
                    "time": 19.958333333333346,
                    "velocity": 0.6299212598425197,
                    "duration": 0.7109375000000036
                },
                {
                    "name": "A#3",
                    "midi": 58,
                    "time": 19.958333333333346,
                    "velocity": 0.6299212598425197,
                    "duration": 0.2421875
                },
                {
                    "name": "C#4",
                    "midi": 61,
                    "time": 20.218750000000014,
                    "velocity": 0.6299212598425197,
                    "duration": 0.1171875
                },
                {
                    "name": "A#4",
                    "midi": 70,
                    "time": 20.218750000000014,
                    "velocity": 0.6299212598425197,
                    "duration": 0.04947916666666785
                },
                {
                    "name": "C#5",
                    "midi": 73,
                    "time": 20.218750000000014,
                    "velocity": 0.6299212598425197,
                    "duration": 0.1536458333333357
                },
                {
                    "name": "F3",
                    "midi": 53,
                    "time": 20.354166666666682,
                    "velocity": 0.6299212598425197,
                    "duration": 0.11979166666666785
                },
                {
                    "name": "A#3",
                    "midi": 58,
                    "time": 20.354166666666682,
                    "velocity": 0.6299212598425197,
                    "duration": 0.11979166666666785
                },
                {
                    "name": "D4",
                    "midi": 62,
                    "time": 20.354166666666682,
                    "velocity": 0.6299212598425197,
                    "duration": 0.11979166666666785
                },
                {
                    "name": "A#4",
                    "midi": 70,
                    "time": 20.354166666666682,
                    "velocity": 0.6299212598425197,
                    "duration": 0.1145833333333357
                },
                {
                    "name": "D5",
                    "midi": 74,
                    "time": 20.354166666666682,
                    "velocity": 0.6299212598425197,
                    "duration": 0.11979166666666785
                },
                {
                    "name": "A4",
                    "midi": 69,
                    "time": 20.625000000000018,
                    "velocity": 0.6299212598425197,
                    "duration": 0.2578125
                },
                {
                    "name": "E5",
                    "midi": 76,
                    "time": 20.63020833333335,
                    "velocity": 0.6299212598425197,
                    "duration": 0.25260416666666785
                },
                {
                    "name": "A5",
                    "midi": 81,
                    "time": 20.63020833333335,
                    "velocity": 0.6299212598425197,
                    "duration": 0.25260416666666785
                },
                {
                    "name": "C#2",
                    "midi": 37,
                    "time": 20.760416666666682,
                    "velocity": 0.6299212598425197,
                    "duration": 0.07291666666666785
                },
                {
                    "name": "C#3",
                    "midi": 49,
                    "time": 20.760416666666682,
                    "velocity": 0.6299212598425197,
                    "duration": 0.7187500000000036
                },
                {
                    "name": "G#4",
                    "midi": 68,
                    "time": 21.03645833333335,
                    "velocity": 0.6299212598425197,
                    "duration": 0.08072916666666785
                },
                {
                    "name": "E5",
                    "midi": 76,
                    "time": 21.03645833333335,
                    "velocity": 0.6299212598425197,
                    "duration": 0.0546875
                },
                {
                    "name": "G#5",
                    "midi": 80,
                    "time": 21.041666666666682,
                    "velocity": 0.6299212598425197,
                    "duration": 0.08072916666666785
                },
                {
                    "name": "G3",
                    "midi": 55,
                    "time": 21.171875000000018,
                    "velocity": 0.6299212598425197,
                    "duration": 0.07291666666666785
                },
                {
                    "name": "A#3",
                    "midi": 58,
                    "time": 21.171875000000018,
                    "velocity": 0.6299212598425197,
                    "duration": 0.078125
                },
                {
                    "name": "C#4",
                    "midi": 61,
                    "time": 21.171875000000018,
                    "velocity": 0.6299212598425197,
                    "duration": 0.07291666666666785
                },
                {
                    "name": "E4",
                    "midi": 64,
                    "time": 21.171875000000018,
                    "velocity": 0.6299212598425197,
                    "duration": 0.07291666666666785
                },
                {
                    "name": "G4",
                    "midi": 67,
                    "time": 21.171875000000018,
                    "velocity": 0.6299212598425197,
                    "duration": 0.07291666666666785
                },
                {
                    "name": "E5",
                    "midi": 76,
                    "time": 21.171875000000018,
                    "velocity": 0.6299212598425197,
                    "duration": 0.078125
                },
                {
                    "name": "G5",
                    "midi": 79,
                    "time": 21.171875000000018,
                    "velocity": 0.6299212598425197,
                    "duration": 0.078125
                },
                {
                    "name": "C2",
                    "midi": 36,
                    "time": 21.432291666666686,
                    "velocity": 0.6299212598425197,
                    "duration": 0.1484375
                },
                {
                    "name": "A4",
                    "midi": 69,
                    "time": 21.437500000000018,
                    "velocity": 0.6299212598425197,
                    "duration": 0.1223958333333357
                },
                {
                    "name": "E5",
                    "midi": 76,
                    "time": 21.437500000000018,
                    "velocity": 0.6299212598425197,
                    "duration": 0.1223958333333357
                },
                {
                    "name": "A5",
                    "midi": 81,
                    "time": 21.437500000000018,
                    "velocity": 0.6299212598425197,
                    "duration": 0.1223958333333357
                },
                {
                    "name": "C3",
                    "midi": 48,
                    "time": 21.57031250000002,
                    "velocity": 0.6299212598425197,
                    "duration": 0.932291666666675
                },
                {
                    "name": "G4",
                    "midi": 67,
                    "time": 21.575520833333353,
                    "velocity": 0.6299212598425197,
                    "duration": 0.34635416666666785
                },
                {
                    "name": "D#5",
                    "midi": 75,
                    "time": 21.575520833333353,
                    "velocity": 0.6299212598425197,
                    "duration": 0.34635416666666785
                },
                {
                    "name": "G5",
                    "midi": 79,
                    "time": 21.575520833333353,
                    "velocity": 0.6299212598425197,
                    "duration": 0.34635416666666785
                },
                {
                    "name": "F3",
                    "midi": 53,
                    "time": 21.97135416666669,
                    "velocity": 0.6299212598425197,
                    "duration": 0.08072916666666785
                },
                {
                    "name": "A3",
                    "midi": 57,
                    "time": 21.97135416666669,
                    "velocity": 0.6299212598425197,
                    "duration": 0.08072916666666785
                },
                {
                    "name": "C4",
                    "midi": 60,
                    "time": 21.97135416666669,
                    "velocity": 0.6299212598425197,
                    "duration": 0.08072916666666785
                },
                {
                    "name": "D#4",
                    "midi": 63,
                    "time": 21.97135416666669,
                    "velocity": 0.6299212598425197,
                    "duration": 0.08072916666666785
                },
                {
                    "name": "D4",
                    "midi": 62,
                    "time": 22.257812500000025,
                    "velocity": 0.6299212598425197,
                    "duration": 0.11197916666666785
                },
                {
                    "name": "D5",
                    "midi": 74,
                    "time": 22.257812500000025,
                    "velocity": 0.6299212598425197,
                    "duration": 0.11197916666666785
                },
                {
                    "name": "D#4",
                    "midi": 63,
                    "time": 22.393229166666693,
                    "velocity": 0.6299212598425197,
                    "duration": 0.10937500000000355
                },
                {
                    "name": "A4",
                    "midi": 69,
                    "time": 22.393229166666693,
                    "velocity": 0.6299212598425197,
                    "duration": 0.1145833333333357
                },
                {
                    "name": "C5",
                    "midi": 72,
                    "time": 22.393229166666693,
                    "velocity": 0.6299212598425197,
                    "duration": 0.1145833333333357
                },
                {
                    "name": "D#5",
                    "midi": 75,
                    "time": 22.393229166666693,
                    "velocity": 0.6299212598425197,
                    "duration": 0.1145833333333357
                },
                {
                    "name": "F1",
                    "midi": 29,
                    "time": 22.41927083333336,
                    "velocity": 0.6299212598425197,
                    "duration": 0.08072916666666785
                },
                {
                    "name": "G4",
                    "midi": 67,
                    "time": 22.666666666666696,
                    "velocity": 0.6299212598425197,
                    "duration": 0.11458333333333215
                },
                {
                    "name": "C5",
                    "midi": 72,
                    "time": 22.666666666666696,
                    "velocity": 0.6299212598425197,
                    "duration": 0.24479166666666075
                },
                {
                    "name": "D#5",
                    "midi": 75,
                    "time": 22.67187500000003,
                    "velocity": 0.6299212598425197,
                    "duration": 0.24479166666666075
                },
                {
                    "name": "G5",
                    "midi": 79,
                    "time": 22.67187500000003,
                    "velocity": 0.6299212598425197,
                    "duration": 0.11458333333333215
                },
                {
                    "name": "C4",
                    "midi": 60,
                    "time": 22.791666666666693,
                    "velocity": 0.6299212598425197,
                    "duration": 0.1197916666666643
                },
                {
                    "name": "F3",
                    "midi": 53,
                    "time": 22.796875000000025,
                    "velocity": 0.6299212598425197,
                    "duration": 0.11458333333333215
                },
                {
                    "name": "A3",
                    "midi": 57,
                    "time": 22.796875000000025,
                    "velocity": 0.6299212598425197,
                    "duration": 0.28385416666666075
                },
                {
                    "name": "D#4",
                    "midi": 63,
                    "time": 22.796875000000025,
                    "velocity": 0.6299212598425197,
                    "duration": 0.1197916666666643
                },
                {
                    "name": "F4",
                    "midi": 65,
                    "time": 22.796875000000025,
                    "velocity": 0.6299212598425197,
                    "duration": 0.1197916666666643
                },
                {
                    "name": "A4",
                    "midi": 69,
                    "time": 22.796875000000025,
                    "velocity": 0.6299212598425197,
                    "duration": 0.12499999999999645
                },
                {
                    "name": "F5",
                    "midi": 77,
                    "time": 22.796875000000025,
                    "velocity": 0.6299212598425197,
                    "duration": 0.1197916666666643
                },
                {
                    "name": "D#4",
                    "midi": 63,
                    "time": 23.067708333333353,
                    "velocity": 0.6299212598425197,
                    "duration": 0.0807291666666643
                },
                {
                    "name": "A4",
                    "midi": 69,
                    "time": 23.067708333333353,
                    "velocity": 0.6299212598425197,
                    "duration": 0.08593749999999645
                },
                {
                    "name": "C5",
                    "midi": 72,
                    "time": 23.067708333333353,
                    "velocity": 0.6299212598425197,
                    "duration": 0.08593749999999645
                },
                {
                    "name": "D#5",
                    "midi": 75,
                    "time": 23.067708333333353,
                    "velocity": 0.6299212598425197,
                    "duration": 0.08593749999999645
                },
                {
                    "name": "A#2",
                    "midi": 46,
                    "time": 23.20052083333335,
                    "velocity": 0.6299212598425197,
                    "duration": 0.08072916666666785
                },
                {
                    "name": "G#3",
                    "midi": 56,
                    "time": 23.20052083333335,
                    "velocity": 0.6299212598425197,
                    "duration": 0.2864583333333286
                },
                {
                    "name": "D4",
                    "midi": 62,
                    "time": 23.20052083333335,
                    "velocity": 0.6299212598425197,
                    "duration": 0.08072916666666785
                },
                {
                    "name": "A#4",
                    "midi": 70,
                    "time": 23.20052083333335,
                    "velocity": 0.6299212598425197,
                    "duration": 0.0859375
                },
                {
                    "name": "D5",
                    "midi": 74,
                    "time": 23.20052083333335,
                    "velocity": 0.6299212598425197,
                    "duration": 0.0859375
                },
                {
                    "name": "F5",
                    "midi": 77,
                    "time": 23.476562500000014,
                    "velocity": 0.6299212598425197,
                    "duration": 0.04687499999999645
                },
                {
                    "name": "F4",
                    "midi": 65,
                    "time": 23.481770833333346,
                    "velocity": 0.6299212598425197,
                    "duration": 0.10937499999999645
                },
                {
                    "name": "F3",
                    "midi": 53,
                    "time": 23.604166666666675,
                    "velocity": 0.6299212598425197,
                    "duration": 0.08072916666666785
                },
                {
                    "name": "G#3",
                    "midi": 56,
                    "time": 23.604166666666675,
                    "velocity": 0.6299212598425197,
                    "duration": 1.1015625
                },
                {
                    "name": "A#3",
                    "midi": 58,
                    "time": 23.604166666666675,
                    "velocity": 0.6299212598425197,
                    "duration": 0.0833333333333357
                },
                {
                    "name": "D4",
                    "midi": 62,
                    "time": 23.609375000000007,
                    "velocity": 0.6299212598425197,
                    "duration": 0.04947916666666785
                },
                {
                    "name": "G#4",
                    "midi": 68,
                    "time": 23.609375000000007,
                    "velocity": 0.6299212598425197,
                    "duration": 0.07812500000000355
                },
                {
                    "name": "D5",
                    "midi": 74,
                    "time": 23.609375000000007,
                    "velocity": 0.6299212598425197,
                    "duration": 0.07812500000000355
                },
                {
                    "name": "F5",
                    "midi": 77,
                    "time": 23.609375000000007,
                    "velocity": 0.6299212598425197,
                    "duration": 0.07812500000000355
                },
                {
                    "name": "G#5",
                    "midi": 80,
                    "time": 23.609375000000007,
                    "velocity": 0.6299212598425197,
                    "duration": 0.07812500000000355
                },
                {
                    "name": "D5",
                    "midi": 74,
                    "time": 23.87760416666668,
                    "velocity": 0.6299212598425197,
                    "duration": 0.24479166666666785
                },
                {
                    "name": "G#5",
                    "midi": 80,
                    "time": 23.87760416666668,
                    "velocity": 0.6299212598425197,
                    "duration": 0.24479166666666785
                },
                {
                    "name": "D6",
                    "midi": 86,
                    "time": 23.87760416666668,
                    "velocity": 0.6299212598425197,
                    "duration": 0.24479166666666785
                },
                {
                    "name": "F2",
                    "midi": 41,
                    "time": 24.005208333333346,
                    "velocity": 0.6299212598425197,
                    "duration": 0.11197916666666785
                },
                {
                    "name": "C#5",
                    "midi": 73,
                    "time": 24.26822916666668,
                    "velocity": 0.6299212598425197,
                    "duration": 0.08072916666666785
                },
                {
                    "name": "C#6",
                    "midi": 85,
                    "time": 24.26822916666668,
                    "velocity": 0.6299212598425197,
                    "duration": 0.0859375
                },
                {
                    "name": "F3",
                    "midi": 53,
                    "time": 24.395833333333346,
                    "velocity": 0.6299212598425197,
                    "duration": 0.08072916666666785
                },
                {
                    "name": "A#3",
                    "midi": 58,
                    "time": 24.395833333333346,
                    "velocity": 0.6299212598425197,
                    "duration": 0.08072916666666785
                },
                {
                    "name": "D4",
                    "midi": 62,
                    "time": 24.395833333333346,
                    "velocity": 0.6299212598425197,
                    "duration": 0.0546875
                },
                {
                    "name": "C5",
                    "midi": 72,
                    "time": 24.40104166666668,
                    "velocity": 0.6299212598425197,
                    "duration": 0.0755208333333357
                },
                {
                    "name": "G#5",
                    "midi": 80,
                    "time": 24.40104166666668,
                    "velocity": 0.6299212598425197,
                    "duration": 0.08072916666666785
                },
                {
                    "name": "C6",
                    "midi": 84,
                    "time": 24.40104166666668,
                    "velocity": 0.6299212598425197,
                    "duration": 0.0755208333333357
                },
                {
                    "name": "D#2",
                    "midi": 39,
                    "time": 24.65885416666668,
                    "velocity": 0.6299212598425197,
                    "duration": 0.07812499999999645
                },
                {
                    "name": "D5",
                    "midi": 74,
                    "time": 24.66406250000001,
                    "velocity": 0.6299212598425197,
                    "duration": 0.07812499999999645
                },
                {
                    "name": "G#5",
                    "midi": 80,
                    "time": 24.669270833333343,
                    "velocity": 0.6299212598425197,
                    "duration": 0.07812499999999645
                },
                {
                    "name": "D6",
                    "midi": 86,
                    "time": 24.669270833333343,
                    "velocity": 0.6299212598425197,
                    "duration": 0.07812499999999645
                },
                {
                    "name": "A#2",
                    "midi": 46,
                    "time": 24.789062500000007,
                    "velocity": 0.6299212598425197,
                    "duration": 0.078125
                },
                {
                    "name": "G3",
                    "midi": 55,
                    "time": 24.789062500000007,
                    "velocity": 0.6299212598425197,
                    "duration": 0.6197916666666714
                },
                {
                    "name": "C5",
                    "midi": 72,
                    "time": 24.79427083333334,
                    "velocity": 0.6299212598425197,
                    "duration": 0.21093750000000355
                },
                {
                    "name": "G5",
                    "midi": 79,
                    "time": 24.79427083333334,
                    "velocity": 0.6299212598425197,
                    "duration": 0.21093750000000355
                },
                {
                    "name": "C6",
                    "midi": 84,
                    "time": 24.79427083333334,
                    "velocity": 0.6299212598425197,
                    "duration": 0.21093750000000355
                },
                {
                    "name": "A#3",
                    "midi": 58,
                    "time": 25.200520833333343,
                    "velocity": 0.6299212598425197,
                    "duration": 0.07291666666666785
                },
                {
                    "name": "D#4",
                    "midi": 63,
                    "time": 25.200520833333343,
                    "velocity": 0.6299212598425197,
                    "duration": 0.07291666666666785
                },
                {
                    "name": "G4",
                    "midi": 67,
                    "time": 25.200520833333343,
                    "velocity": 0.6299212598425197,
                    "duration": 0.07291666666666785
                },
                {
                    "name": "B4",
                    "midi": 71,
                    "time": 25.200520833333343,
                    "velocity": 0.6299212598425197,
                    "duration": 0.07291666666666785
                },
                {
                    "name": "B5",
                    "midi": 83,
                    "time": 25.200520833333343,
                    "velocity": 0.6299212598425197,
                    "duration": 0.07291666666666785
                },
                {
                    "name": "A#2",
                    "midi": 46,
                    "time": 25.458333333333346,
                    "velocity": 0.6299212598425197,
                    "duration": 0.11458333333333215
                },
                {
                    "name": "A#4",
                    "midi": 70,
                    "time": 25.46354166666668,
                    "velocity": 0.6299212598425197,
                    "duration": 0.18229166666666785
                },
                {
                    "name": "D#5",
                    "midi": 75,
                    "time": 25.46354166666668,
                    "velocity": 0.6299212598425197,
                    "duration": 0.21354166666666785
                },
                {
                    "name": "G5",
                    "midi": 79,
                    "time": 25.46354166666668,
                    "velocity": 0.6299212598425197,
                    "duration": 0.21354166666666785
                },
                {
                    "name": "A#5",
                    "midi": 82,
                    "time": 25.46875000000001,
                    "velocity": 0.6299212598425197,
                    "duration": 0.2083333333333357
                },
                {
                    "name": "G3",
                    "midi": 55,
                    "time": 25.591145833333346,
                    "velocity": 0.6299212598425197,
                    "duration": 0.7213541666666572
                },
                {
                    "name": "A#3",
                    "midi": 58,
                    "time": 25.591145833333346,
                    "velocity": 0.6299212598425197,
                    "duration": 0.15364583333333215
                },
                {
                    "name": "A4",
                    "midi": 69,
                    "time": 25.86718750000001,
                    "velocity": 0.6299212598425197,
                    "duration": 0.11458333333333215
                },
                {
                    "name": "A5",
                    "midi": 81,
                    "time": 25.86718750000001,
                    "velocity": 0.6299212598425197,
                    "duration": 0.1197916666666643
                },
                {
                    "name": "A#3",
                    "midi": 58,
                    "time": 26.000000000000007,
                    "velocity": 0.6299212598425197,
                    "duration": 0.18229166666666785
                },
                {
                    "name": "D#4",
                    "midi": 63,
                    "time": 26.000000000000007,
                    "velocity": 0.6299212598425197,
                    "duration": 0.1145833333333357
                },
                {
                    "name": "G4",
                    "midi": 67,
                    "time": 26.000000000000007,
                    "velocity": 0.6299212598425197,
                    "duration": 0.1145833333333357
                },
                {
                    "name": "A#4",
                    "midi": 70,
                    "time": 26.000000000000007,
                    "velocity": 0.6299212598425197,
                    "duration": 0.1875
                },
                {
                    "name": "A#5",
                    "midi": 82,
                    "time": 26.002604166666675,
                    "velocity": 0.6299212598425197,
                    "duration": 0.140625
                },
                {
                    "name": "B4",
                    "midi": 71,
                    "time": 26.27083333333334,
                    "velocity": 0.6299212598425197,
                    "duration": 0.10937499999999645
                },
                {
                    "name": "B5",
                    "midi": 83,
                    "time": 26.27604166666667,
                    "velocity": 0.6299212598425197,
                    "duration": 0.10937499999999645
                },
                {
                    "name": "D#2",
                    "midi": 39,
                    "time": 26.395833333333332,
                    "velocity": 0.6299212598425197,
                    "duration": 0.10677083333333215
                },
                {
                    "name": "D#3",
                    "midi": 51,
                    "time": 26.395833333333332,
                    "velocity": 0.6299212598425197,
                    "duration": 0.7057291666666643
                },
                {
                    "name": "C5",
                    "midi": 72,
                    "time": 26.401041666666664,
                    "velocity": 0.6299212598425197,
                    "duration": 0.078125
                },
                {
                    "name": "G5",
                    "midi": 79,
                    "time": 26.401041666666664,
                    "velocity": 0.6299212598425197,
                    "duration": 0.07291666666666785
                },
                {
                    "name": "C6",
                    "midi": 84,
                    "time": 26.401041666666664,
                    "velocity": 0.6299212598425197,
                    "duration": 0.078125
                },
                {
                    "name": "A#4",
                    "midi": 70,
                    "time": 26.664062499999996,
                    "velocity": 0.6299212598425197,
                    "duration": 0.08072916666666785
                },
                {
                    "name": "A#5",
                    "midi": 82,
                    "time": 26.664062499999996,
                    "velocity": 0.6299212598425197,
                    "duration": 0.08072916666666785
                },
                {
                    "name": "A#3",
                    "midi": 58,
                    "time": 26.799479166666664,
                    "velocity": 0.6299212598425197,
                    "duration": 0.07552083333333215
                },
                {
                    "name": "A4",
                    "midi": 69,
                    "time": 26.799479166666664,
                    "velocity": 0.6299212598425197,
                    "duration": 0.0729166666666643
                },
                {
                    "name": "D#4",
                    "midi": 63,
                    "time": 26.804687499999996,
                    "velocity": 0.6299212598425197,
                    "duration": 0.06770833333333215
                },
                {
                    "name": "A5",
                    "midi": 81,
                    "time": 26.804687499999996,
                    "velocity": 0.6299212598425197,
                    "duration": 0.06770833333333215
                },
                {
                    "name": "G4",
                    "midi": 67,
                    "time": 27.05989583333333,
                    "velocity": 0.6299212598425197,
                    "duration": 0.109375
                },
                {
                    "name": "G5",
                    "midi": 79,
                    "time": 27.05989583333333,
                    "velocity": 0.6299212598425197,
                    "duration": 0.109375
                },
                {
                    "name": "E2",
                    "midi": 40,
                    "time": 27.18229166666666,
                    "velocity": 0.6299212598425197,
                    "duration": 0.109375
                },
                {
                    "name": "E3",
                    "midi": 52,
                    "time": 27.18229166666666,
                    "velocity": 0.6299212598425197,
                    "duration": 0.7031249999999964
                },
                {
                    "name": "C5",
                    "midi": 72,
                    "time": 27.18229166666666,
                    "velocity": 0.6299212598425197,
                    "duration": 0.109375
                },
                {
                    "name": "C6",
                    "midi": 84,
                    "time": 27.187499999999993,
                    "velocity": 0.6299212598425197,
                    "duration": 0.109375
                },
                {
                    "name": "A#4",
                    "midi": 70,
                    "time": 27.442708333333325,
                    "velocity": 0.6299212598425197,
                    "duration": 0.1197916666666643
                },
                {
                    "name": "A#5",
                    "midi": 82,
                    "time": 27.447916666666657,
                    "velocity": 0.6299212598425197,
                    "duration": 0.11458333333333215
                },
                {
                    "name": "A#3",
                    "midi": 58,
                    "time": 27.580729166666657,
                    "velocity": 0.6299212598425197,
                    "duration": 0.08072916666666785
                },
                {
                    "name": "C#4",
                    "midi": 61,
                    "time": 27.580729166666657,
                    "velocity": 0.6299212598425197,
                    "duration": 0.08072916666666785
                },
                {
                    "name": "E4",
                    "midi": 64,
                    "time": 27.580729166666657,
                    "velocity": 0.6299212598425197,
                    "duration": 0.08072916666666785
                },
                {
                    "name": "A4",
                    "midi": 69,
                    "time": 27.580729166666657,
                    "velocity": 0.6299212598425197,
                    "duration": 0.1171875
                },
                {
                    "name": "A5",
                    "midi": 81,
                    "time": 27.580729166666657,
                    "velocity": 0.6299212598425197,
                    "duration": 0.12239583333333215
                },
                {
                    "name": "G4",
                    "midi": 67,
                    "time": 27.84374999999999,
                    "velocity": 0.6299212598425197,
                    "duration": 0.078125
                },
                {
                    "name": "D5",
                    "midi": 74,
                    "time": 27.84374999999999,
                    "velocity": 0.6299212598425197,
                    "duration": 0.046875
                },
                {
                    "name": "G5",
                    "midi": 79,
                    "time": 27.84374999999999,
                    "velocity": 0.6299212598425197,
                    "duration": 0.09114583333333215
                },
                {
                    "name": "F2",
                    "midi": 41,
                    "time": 27.98177083333332,
                    "velocity": 0.6299212598425197,
                    "duration": 0.10677083333333215
                },
                {
                    "name": "F3",
                    "midi": 53,
                    "time": 27.986979166666654,
                    "velocity": 0.6299212598425197,
                    "duration": 0.23697916666666785
                },
                {
                    "name": "F4",
                    "midi": 65,
                    "time": 27.986979166666654,
                    "velocity": 0.6299212598425197,
                    "duration": 0.07291666666666785
                },
                {
                    "name": "D5",
                    "midi": 74,
                    "time": 27.986979166666654,
                    "velocity": 0.6299212598425197,
                    "duration": 0.07291666666666785
                },
                {
                    "name": "F5",
                    "midi": 77,
                    "time": 27.986979166666654,
                    "velocity": 0.6299212598425197,
                    "duration": 0.07291666666666785
                },
                {
                    "name": "C#4",
                    "midi": 61,
                    "time": 28.252604166666654,
                    "velocity": 0.6299212598425197,
                    "duration": 0.08072916666666785
                },
                {
                    "name": "C#5",
                    "midi": 73,
                    "time": 28.252604166666654,
                    "velocity": 0.6299212598425197,
                    "duration": 0.08072916666666785
                },
                {
                    "name": "F3",
                    "midi": 53,
                    "time": 28.38802083333332,
                    "velocity": 0.6299212598425197,
                    "duration": 0.28645833333333215
                },
                {
                    "name": "A#3",
                    "midi": 58,
                    "time": 28.38802083333332,
                    "velocity": 0.6299212598425197,
                    "duration": 0.1484375
                },
                {
                    "name": "D4",
                    "midi": 62,
                    "time": 28.38802083333332,
                    "velocity": 0.6299212598425197,
                    "duration": 0.04947916666666785
                },
                {
                    "name": "A#4",
                    "midi": 70,
                    "time": 28.38802083333332,
                    "velocity": 0.6299212598425197,
                    "duration": 0.08072916666666785
                },
                {
                    "name": "D5",
                    "midi": 74,
                    "time": 28.38802083333332,
                    "velocity": 0.6299212598425197,
                    "duration": 0.08072916666666785
                },
                {
                    "name": "A4",
                    "midi": 69,
                    "time": 28.66406249999999,
                    "velocity": 0.6299212598425197,
                    "duration": 0.6171874999999964
                },
                {
                    "name": "F5",
                    "midi": 77,
                    "time": 28.66927083333332,
                    "velocity": 0.6299212598425197,
                    "duration": 0.6119791666666643
                },
                {
                    "name": "A5",
                    "midi": 81,
                    "time": 28.66927083333332,
                    "velocity": 0.6299212598425197,
                    "duration": 0.6067708333333321
                },
                {
                    "name": "D2",
                    "midi": 38,
                    "time": 28.796874999999986,
                    "velocity": 0.6299212598425197,
                    "duration": 0.109375
                },
                {
                    "name": "D3",
                    "midi": 50,
                    "time": 28.796874999999986,
                    "velocity": 0.6299212598425197,
                    "duration": 0.7291666666666679
                },
                {
                    "name": "G3",
                    "midi": 55,
                    "time": 29.197916666666654,
                    "velocity": 0.6299212598425197,
                    "duration": 0.078125
                },
                {
                    "name": "B3",
                    "midi": 59,
                    "time": 29.197916666666654,
                    "velocity": 0.6299212598425197,
                    "duration": 0.078125
                },
                {
                    "name": "D4",
                    "midi": 62,
                    "time": 29.203124999999986,
                    "velocity": 0.6299212598425197,
                    "duration": 0.0546875
                },
                {
                    "name": "F4",
                    "midi": 65,
                    "time": 29.203124999999986,
                    "velocity": 0.6299212598425197,
                    "duration": 0.07291666666666785
                },
                {
                    "name": "C2",
                    "midi": 36,
                    "time": 29.471354166666654,
                    "velocity": 0.6299212598425197,
                    "duration": 0.11458333333333215
                },
                {
                    "name": "G4",
                    "midi": 67,
                    "time": 29.484374999999986,
                    "velocity": 0.6299212598425197,
                    "duration": 0.07291666666666785
                },
                {
                    "name": "E5",
                    "midi": 76,
                    "time": 29.484374999999986,
                    "velocity": 0.6299212598425197,
                    "duration": 0.046875
                },
                {
                    "name": "G5",
                    "midi": 79,
                    "time": 29.484374999999986,
                    "velocity": 0.6299212598425197,
                    "duration": 0.046875
                },
                {
                    "name": "G2",
                    "midi": 43,
                    "time": 29.604166666666654,
                    "velocity": 0.6299212598425197,
                    "duration": 0.08333333333333215
                },
                {
                    "name": "E3",
                    "midi": 52,
                    "time": 29.609374999999986,
                    "velocity": 0.6299212598425197,
                    "duration": 0.35156249999999645
                },
                {
                    "name": "A#4",
                    "midi": 70,
                    "time": 29.609374999999986,
                    "velocity": 0.6299212598425197,
                    "duration": 0.08333333333333215
                },
                {
                    "name": "E5",
                    "midi": 76,
                    "time": 29.614583333333318,
                    "velocity": 0.6299212598425197,
                    "duration": 0.04947916666666785
                },
                {
                    "name": "G5",
                    "midi": 79,
                    "time": 29.614583333333318,
                    "velocity": 0.6299212598425197,
                    "duration": 0.04947916666666785
                },
                {
                    "name": "A#5",
                    "midi": 82,
                    "time": 29.614583333333318,
                    "velocity": 0.6299212598425197,
                    "duration": 0.078125
                },
                {
                    "name": "C5",
                    "midi": 72,
                    "time": 29.74479166666665,
                    "velocity": 0.6299212598425197,
                    "duration": 0.07552083333333215
                },
                {
                    "name": "E5",
                    "midi": 76,
                    "time": 29.749999999999982,
                    "velocity": 0.6299212598425197,
                    "duration": 0.04166666666666785
                },
                {
                    "name": "G5",
                    "midi": 79,
                    "time": 29.749999999999982,
                    "velocity": 0.6299212598425197,
                    "duration": 0.04166666666666785
                },
                {
                    "name": "C6",
                    "midi": 84,
                    "time": 29.749999999999982,
                    "velocity": 0.6299212598425197,
                    "duration": 0.07552083333333215
                },
                {
                    "name": "A#4",
                    "midi": 70,
                    "time": 29.880208333333314,
                    "velocity": 0.6299212598425197,
                    "duration": 0.0859375
                },
                {
                    "name": "E5",
                    "midi": 76,
                    "time": 29.880208333333314,
                    "velocity": 0.6299212598425197,
                    "duration": 0.05729166666666785
                },
                {
                    "name": "A#5",
                    "midi": 82,
                    "time": 29.880208333333314,
                    "velocity": 0.6299212598425197,
                    "duration": 0.0859375
                },
                {
                    "name": "A#3",
                    "midi": 58,
                    "time": 30.007812499999982,
                    "velocity": 0.6299212598425197,
                    "duration": 0.0859375
                },
                {
                    "name": "G3",
                    "midi": 55,
                    "time": 30.013020833333314,
                    "velocity": 0.6299212598425197,
                    "duration": 0.3489583333333357
                },
                {
                    "name": "C4",
                    "midi": 60,
                    "time": 30.013020833333314,
                    "velocity": 0.6299212598425197,
                    "duration": 0.08072916666666785
                },
                {
                    "name": "E4",
                    "midi": 64,
                    "time": 30.013020833333314,
                    "velocity": 0.6299212598425197,
                    "duration": 0.08072916666666785
                },
                {
                    "name": "G4",
                    "midi": 67,
                    "time": 30.013020833333314,
                    "velocity": 0.6299212598425197,
                    "duration": 0.08072916666666785
                },
                {
                    "name": "E5",
                    "midi": 76,
                    "time": 30.013020833333314,
                    "velocity": 0.6299212598425197,
                    "duration": 0.08072916666666785
                },
                {
                    "name": "G5",
                    "midi": 79,
                    "time": 30.013020833333314,
                    "velocity": 0.6299212598425197,
                    "duration": 0.08072916666666785
                },
                {
                    "name": "F2",
                    "midi": 41,
                    "time": 30.27604166666665,
                    "velocity": 0.6299212598425197,
                    "duration": 0.11458333333333215
                },
                {
                    "name": "F#4",
                    "midi": 66,
                    "time": 30.281249999999982,
                    "velocity": 0.6299212598425197,
                    "duration": 0.109375
                },
                {
                    "name": "F#5",
                    "midi": 78,
                    "time": 30.281249999999982,
                    "velocity": 0.6299212598425197,
                    "duration": 0.11458333333333215
                },
                {
                    "name": "C3",
                    "midi": 48,
                    "time": 30.414062499999982,
                    "velocity": 0.6299212598425197,
                    "duration": 0.109375
                },
                {
                    "name": "A3",
                    "midi": 57,
                    "time": 30.414062499999982,
                    "velocity": 0.6299212598425197,
                    "duration": 0.2786458333333357
                },
                {
                    "name": "F4",
                    "midi": 65,
                    "time": 30.414062499999982,
                    "velocity": 0.6299212598425197,
                    "duration": 0.109375
                },
                {
                    "name": "A4",
                    "midi": 69,
                    "time": 30.414062499999982,
                    "velocity": 0.6299212598425197,
                    "duration": 0.109375
                },
                {
                    "name": "F5",
                    "midi": 77,
                    "time": 30.414062499999982,
                    "velocity": 0.6299212598425197,
                    "duration": 0.109375
                },
                {
                    "name": "F4",
                    "midi": 65,
                    "time": 30.68229166666665,
                    "velocity": 0.6299212598425197,
                    "duration": 0.04947916666666785
                },
                {
                    "name": "A4",
                    "midi": 69,
                    "time": 30.68229166666665,
                    "velocity": 0.6299212598425197,
                    "duration": 0.109375
                },
                {
                    "name": "C#5",
                    "midi": 73,
                    "time": 30.68229166666665,
                    "velocity": 0.6299212598425197,
                    "duration": 0.109375
                },
                {
                    "name": "F3",
                    "midi": 53,
                    "time": 30.809895833333318,
                    "velocity": 0.6299212598425197,
                    "duration": 0.17708333333333215
                },
                {
                    "name": "A3",
                    "midi": 57,
                    "time": 30.809895833333318,
                    "velocity": 0.6299212598425197,
                    "duration": 0.17708333333333215
                },
                {
                    "name": "C4",
                    "midi": 60,
                    "time": 30.809895833333318,
                    "velocity": 0.6299212598425197,
                    "duration": 0.17708333333333215
                },
                {
                    "name": "D#4",
                    "midi": 63,
                    "time": 30.809895833333318,
                    "velocity": 0.6299212598425197,
                    "duration": 0.17708333333333215
                },
                {
                    "name": "F4",
                    "midi": 65,
                    "time": 30.809895833333318,
                    "velocity": 0.6299212598425197,
                    "duration": 0.17708333333333215
                },
                {
                    "name": "D5",
                    "midi": 74,
                    "time": 30.809895833333318,
                    "velocity": 0.6299212598425197,
                    "duration": 0.17708333333333215
                },
                {
                    "name": "A#4",
                    "midi": 70,
                    "time": 31.070312499999982,
                    "velocity": 0.6299212598425197,
                    "duration": 0.2526041666666643
                },
                {
                    "name": "A#2",
                    "midi": 46,
                    "time": 31.203124999999982,
                    "velocity": 0.6299212598425197,
                    "duration": 0.11458333333333215
                },
                {
                    "name": "D3",
                    "midi": 50,
                    "time": 31.203124999999982,
                    "velocity": 0.6299212598425197,
                    "duration": 0.11458333333333215
                },
                {
                    "name": "F3",
                    "midi": 53,
                    "time": 31.203124999999982,
                    "velocity": 0.6299212598425197,
                    "duration": 0.11458333333333215
                },
                {
                    "name": "A#3",
                    "midi": 58,
                    "time": 31.203124999999982,
                    "velocity": 0.6299212598425197,
                    "duration": 0.11458333333333215
                },
                {
                    "name": "G2",
                    "midi": 43,
                    "time": 31.463541666666647,
                    "velocity": 0.6299212598425197,
                    "duration": 0.0390625
                },
                {
                    "name": "B2",
                    "midi": 47,
                    "time": 31.463541666666647,
                    "velocity": 0.6299212598425197,
                    "duration": 0.03645833333333215
                },
                {
                    "name": "E3",
                    "midi": 52,
                    "time": 31.463541666666647,
                    "velocity": 0.6299212598425197,
                    "duration": 0.0390625
                },
                {
                    "name": "C#5",
                    "midi": 73,
                    "time": 31.463541666666647,
                    "velocity": 0.6299212598425197,
                    "duration": 0.0390625
                },
                {
                    "name": "G5",
                    "midi": 79,
                    "time": 31.46874999999998,
                    "velocity": 0.6299212598425197,
                    "duration": 0.0390625
                },
                {
                    "name": "A#5",
                    "midi": 82,
                    "time": 31.46874999999998,
                    "velocity": 0.6299212598425197,
                    "duration": 0.0390625
                },
                {
                    "name": "C#6",
                    "midi": 85,
                    "time": 31.46874999999998,
                    "velocity": 0.6299212598425197,
                    "duration": 0.0390625
                },
                {
                    "name": "G2",
                    "midi": 43,
                    "time": 31.588541666666647,
                    "velocity": 0.6299212598425197,
                    "duration": 0.08072916666666785
                },
                {
                    "name": "E3",
                    "midi": 52,
                    "time": 31.588541666666647,
                    "velocity": 0.6299212598425197,
                    "duration": 0.08072916666666785
                },
                {
                    "name": "C#5",
                    "midi": 73,
                    "time": 31.59374999999998,
                    "velocity": 0.6299212598425197,
                    "duration": 0.0755208333333357
                },
                {
                    "name": "G5",
                    "midi": 79,
                    "time": 31.59374999999998,
                    "velocity": 0.6299212598425197,
                    "duration": 0.08072916666666785
                },
                {
                    "name": "A#5",
                    "midi": 82,
                    "time": 31.59374999999998,
                    "velocity": 0.6299212598425197,
                    "duration": 0.08072916666666785
                },
                {
                    "name": "C#6",
                    "midi": 85,
                    "time": 31.59374999999998,
                    "velocity": 0.6299212598425197,
                    "duration": 0.08072916666666785
                },
                {
                    "name": "E2",
                    "midi": 40,
                    "time": 31.619791666666647,
                    "velocity": 0.6299212598425197,
                    "duration": 0.04947916666666785
                },
                {
                    "name": "B2",
                    "midi": 47,
                    "time": 31.619791666666647,
                    "velocity": 0.6299212598425197,
                    "duration": 0.0546875
                },
                {
                    "name": "G2",
                    "midi": 43,
                    "time": 31.85156249999998,
                    "velocity": 0.6299212598425197,
                    "duration": 0.046875
                },
                {
                    "name": "B2",
                    "midi": 47,
                    "time": 31.85156249999998,
                    "velocity": 0.6299212598425197,
                    "duration": 0.046875
                },
                {
                    "name": "E3",
                    "midi": 52,
                    "time": 31.85156249999998,
                    "velocity": 0.6299212598425197,
                    "duration": 0.046875
                },
                {
                    "name": "G5",
                    "midi": 79,
                    "time": 31.85677083333331,
                    "velocity": 0.6299212598425197,
                    "duration": 0.046875
                },
                {
                    "name": "A#5",
                    "midi": 82,
                    "time": 31.85677083333331,
                    "velocity": 0.6299212598425197,
                    "duration": 0.05208333333333215
                },
                {
                    "name": "C#6",
                    "midi": 85,
                    "time": 31.85677083333331,
                    "velocity": 0.6299212598425197,
                    "duration": 0.046875
                },
                {
                    "name": "G2",
                    "midi": 43,
                    "time": 31.98177083333331,
                    "velocity": 0.6299212598425197,
                    "duration": 0.08072916666666785
                },
                {
                    "name": "B2",
                    "midi": 47,
                    "time": 31.98177083333331,
                    "velocity": 0.6299212598425197,
                    "duration": 0.08072916666666785
                },
                {
                    "name": "E3",
                    "midi": 52,
                    "time": 31.986979166666643,
                    "velocity": 0.6299212598425197,
                    "duration": 0.0755208333333357
                },
                {
                    "name": "C#5",
                    "midi": 73,
                    "time": 31.986979166666643,
                    "velocity": 0.6299212598425197,
                    "duration": 0.078125
                },
                {
                    "name": "G5",
                    "midi": 79,
                    "time": 31.986979166666643,
                    "velocity": 0.6299212598425197,
                    "duration": 0.078125
                },
                {
                    "name": "A#5",
                    "midi": 82,
                    "time": 31.986979166666643,
                    "velocity": 0.6299212598425197,
                    "duration": 0.078125
                },
                {
                    "name": "C#6",
                    "midi": 85,
                    "time": 31.986979166666643,
                    "velocity": 0.6299212598425197,
                    "duration": 0.078125
                },
                {
                    "name": "E2",
                    "midi": 40,
                    "time": 32.01041666666664,
                    "velocity": 0.6299212598425197,
                    "duration": 0.0546875
                },
                {
                    "name": "G2",
                    "midi": 43,
                    "time": 32.25520833333331,
                    "velocity": 0.6299212598425197,
                    "duration": 0.049479166666671404
                },
                {
                    "name": "B2",
                    "midi": 47,
                    "time": 32.25520833333331,
                    "velocity": 0.6299212598425197,
                    "duration": 0.049479166666671404
                },
                {
                    "name": "E3",
                    "midi": 52,
                    "time": 32.25520833333331,
                    "velocity": 0.6299212598425197,
                    "duration": 0.049479166666671404
                },
                {
                    "name": "C#5",
                    "midi": 73,
                    "time": 32.25520833333331,
                    "velocity": 0.6299212598425197,
                    "duration": 0.049479166666671404
                },
                {
                    "name": "C#6",
                    "midi": 85,
                    "time": 32.25520833333331,
                    "velocity": 0.6299212598425197,
                    "duration": 0.054687500000007105
                },
                {
                    "name": "G5",
                    "midi": 79,
                    "time": 32.26041666666664,
                    "velocity": 0.6299212598425197,
                    "duration": 0.049479166666671404
                },
                {
                    "name": "A#5",
                    "midi": 82,
                    "time": 32.26041666666664,
                    "velocity": 0.6299212598425197,
                    "duration": 0.049479166666671404
                },
                {
                    "name": "G2",
                    "midi": 43,
                    "time": 32.380208333333314,
                    "velocity": 0.6299212598425197,
                    "duration": 0.078125
                },
                {
                    "name": "B2",
                    "midi": 47,
                    "time": 32.380208333333314,
                    "velocity": 0.6299212598425197,
                    "duration": 0.078125
                },
                {
                    "name": "E3",
                    "midi": 52,
                    "time": 32.380208333333314,
                    "velocity": 0.6299212598425197,
                    "duration": 0.078125
                },
                {
                    "name": "C#5",
                    "midi": 73,
                    "time": 32.38541666666665,
                    "velocity": 0.6299212598425197,
                    "duration": 0.078125
                },
                {
                    "name": "G5",
                    "midi": 79,
                    "time": 32.38541666666665,
                    "velocity": 0.6299212598425197,
                    "duration": 0.078125
                },
                {
                    "name": "A#5",
                    "midi": 82,
                    "time": 32.38541666666665,
                    "velocity": 0.6299212598425197,
                    "duration": 0.078125
                },
                {
                    "name": "C#6",
                    "midi": 85,
                    "time": 32.38541666666665,
                    "velocity": 0.6299212598425197,
                    "duration": 0.078125
                },
                {
                    "name": "E2",
                    "midi": 40,
                    "time": 32.41666666666665,
                    "velocity": 0.6299212598425197,
                    "duration": 0.0416666666666643
                },
                {
                    "name": "G2",
                    "midi": 43,
                    "time": 32.640624999999986,
                    "velocity": 0.6299212598425197,
                    "duration": 0.1197916666666714
                },
                {
                    "name": "B2",
                    "midi": 47,
                    "time": 32.64583333333332,
                    "velocity": 0.6299212598425197,
                    "duration": 0.1145833333333357
                },
                {
                    "name": "E3",
                    "midi": 52,
                    "time": 32.64583333333332,
                    "velocity": 0.6299212598425197,
                    "duration": 0.1145833333333357
                },
                {
                    "name": "C#5",
                    "midi": 73,
                    "time": 32.64583333333332,
                    "velocity": 0.6299212598425197,
                    "duration": 0.0807291666666643
                },
                {
                    "name": "G5",
                    "midi": 79,
                    "time": 32.64583333333332,
                    "velocity": 0.6299212598425197,
                    "duration": 0.0859375
                },
                {
                    "name": "A#5",
                    "midi": 82,
                    "time": 32.64583333333332,
                    "velocity": 0.6299212598425197,
                    "duration": 0.0546875
                },
                {
                    "name": "C#6",
                    "midi": 85,
                    "time": 32.64583333333332,
                    "velocity": 0.6299212598425197,
                    "duration": 0.0859375
                },
                {
                    "name": "E2",
                    "midi": 40,
                    "time": 32.67708333333332,
                    "velocity": 0.6299212598425197,
                    "duration": 0.0833333333333357
                },
                {
                    "name": "F2",
                    "midi": 41,
                    "time": 32.77864583333332,
                    "velocity": 0.6299212598425197,
                    "duration": 0.109375
                },
                {
                    "name": "F3",
                    "midi": 53,
                    "time": 32.78385416666666,
                    "velocity": 0.6299212598425197,
                    "duration": 1.2604166666666714
                },
                {
                    "name": "D5",
                    "midi": 74,
                    "time": 32.78385416666666,
                    "velocity": 0.6299212598425197,
                    "duration": 0.109375
                },
                {
                    "name": "G#5",
                    "midi": 80,
                    "time": 32.78385416666666,
                    "velocity": 0.6299212598425197,
                    "duration": 0.109375
                },
                {
                    "name": "A#5",
                    "midi": 82,
                    "time": 32.78385416666666,
                    "velocity": 0.6299212598425197,
                    "duration": 0.109375
                },
                {
                    "name": "D6",
                    "midi": 86,
                    "time": 32.78385416666666,
                    "velocity": 0.6299212598425197,
                    "duration": 0.109375
                },
                {
                    "name": "C5",
                    "midi": 72,
                    "time": 33.04687499999999,
                    "velocity": 0.6299212598425197,
                    "duration": 0.0833333333333357
                },
                {
                    "name": "G#5",
                    "midi": 80,
                    "time": 33.04687499999999,
                    "velocity": 0.6299212598425197,
                    "duration": 0.0546875
                },
                {
                    "name": "C6",
                    "midi": 84,
                    "time": 33.05208333333333,
                    "velocity": 0.6299212598425197,
                    "duration": 0.078125
                },
                {
                    "name": "G#3",
                    "midi": 56,
                    "time": 33.18749999999999,
                    "velocity": 0.6299212598425197,
                    "duration": 0.0703125
                },
                {
                    "name": "A#3",
                    "midi": 58,
                    "time": 33.18749999999999,
                    "velocity": 0.6299212598425197,
                    "duration": 0.0703125
                },
                {
                    "name": "F4",
                    "midi": 65,
                    "time": 33.18749999999999,
                    "velocity": 0.6299212598425197,
                    "duration": 0.0703125
                },
                {
                    "name": "A#4",
                    "midi": 70,
                    "time": 33.18749999999999,
                    "velocity": 0.6299212598425197,
                    "duration": 0.0703125
                },
                {
                    "name": "D5",
                    "midi": 74,
                    "time": 33.18749999999999,
                    "velocity": 0.6299212598425197,
                    "duration": 0.0703125
                },
                {
                    "name": "G#5",
                    "midi": 80,
                    "time": 33.18749999999999,
                    "velocity": 0.6299212598425197,
                    "duration": 0.0755208333333357
                },
                {
                    "name": "A#5",
                    "midi": 82,
                    "time": 33.18749999999999,
                    "velocity": 0.6299212598425197,
                    "duration": 0.0755208333333357
                },
                {
                    "name": "D4",
                    "midi": 62,
                    "time": 33.20312499999999,
                    "velocity": 0.6299212598425197,
                    "duration": 0.0546875
                },
                {
                    "name": "C5",
                    "midi": 72,
                    "time": 33.44531249999999,
                    "velocity": 0.6299212598425197,
                    "duration": 0.734375
                },
                {
                    "name": "D5",
                    "midi": 74,
                    "time": 33.44531249999999,
                    "velocity": 0.6299212598425197,
                    "duration": 0.734375
                },
                {
                    "name": "G#5",
                    "midi": 80,
                    "time": 33.44531249999999,
                    "velocity": 0.6299212598425197,
                    "duration": 0.734375
                },
                {
                    "name": "C6",
                    "midi": 84,
                    "time": 33.44531249999999,
                    "velocity": 0.6299212598425197,
                    "duration": 0.734375
                },
                {
                    "name": "A#1",
                    "midi": 34,
                    "time": 33.57291666666666,
                    "velocity": 0.6299212598425197,
                    "duration": 0.1067708333333357
                },
                {
                    "name": "G#3",
                    "midi": 56,
                    "time": 33.97135416666666,
                    "velocity": 0.6299212598425197,
                    "duration": 0.0677083333333357
                },
                {
                    "name": "A#3",
                    "midi": 58,
                    "time": 33.97135416666666,
                    "velocity": 0.6299212598425197,
                    "duration": 0.0677083333333357
                },
                {
                    "name": "D4",
                    "midi": 62,
                    "time": 33.97135416666666,
                    "velocity": 0.6299212598425197,
                    "duration": 0.0677083333333357
                },
                {
                    "name": "F4",
                    "midi": 65,
                    "time": 33.97135416666666,
                    "velocity": 0.6299212598425197,
                    "duration": 0.0729166666666714
                },
                {
                    "name": "F2",
                    "midi": 41,
                    "time": 34.36718749999999,
                    "velocity": 0.6299212598425197,
                    "duration": 0.1015625
                },
                {
                    "name": "F3",
                    "midi": 53,
                    "time": 34.36718749999999,
                    "velocity": 0.6299212598425197,
                    "duration": 1.546874999999993
                },
                {
                    "name": "D5",
                    "midi": 74,
                    "time": 34.36718749999999,
                    "velocity": 0.6299212598425197,
                    "duration": 0.0703125
                },
                {
                    "name": "A#5",
                    "midi": 82,
                    "time": 34.36718749999999,
                    "velocity": 0.6299212598425197,
                    "duration": 0.0703125
                },
                {
                    "name": "D6",
                    "midi": 86,
                    "time": 34.36718749999999,
                    "velocity": 0.6299212598425197,
                    "duration": 0.0703125
                },
                {
                    "name": "D#5",
                    "midi": 75,
                    "time": 34.62499999999999,
                    "velocity": 0.6299212598425197,
                    "duration": 0.0859375
                },
                {
                    "name": "A#5",
                    "midi": 82,
                    "time": 34.62499999999999,
                    "velocity": 0.6299212598425197,
                    "duration": 0.0859375
                },
                {
                    "name": "D#6",
                    "midi": 87,
                    "time": 34.62499999999999,
                    "velocity": 0.6299212598425197,
                    "duration": 0.0859375
                },
                {
                    "name": "G#3",
                    "midi": 56,
                    "time": 34.76562499999999,
                    "velocity": 0.6299212598425197,
                    "duration": 0.0729166666666643
                },
                {
                    "name": "A#3",
                    "midi": 58,
                    "time": 34.76562499999999,
                    "velocity": 0.6299212598425197,
                    "duration": 0.0729166666666643
                },
                {
                    "name": "D4",
                    "midi": 62,
                    "time": 34.76562499999999,
                    "velocity": 0.6299212598425197,
                    "duration": 0.0729166666666643
                },
                {
                    "name": "F4",
                    "midi": 65,
                    "time": 34.76562499999999,
                    "velocity": 0.6299212598425197,
                    "duration": 0.0729166666666643
                },
                {
                    "name": "C5",
                    "midi": 72,
                    "time": 34.76562499999999,
                    "velocity": 0.6299212598425197,
                    "duration": 0.0729166666666643
                },
                {
                    "name": "G#5",
                    "midi": 80,
                    "time": 34.76562499999999,
                    "velocity": 0.6299212598425197,
                    "duration": 0.078125
                },
                {
                    "name": "C6",
                    "midi": 84,
                    "time": 34.76562499999999,
                    "velocity": 0.6299212598425197,
                    "duration": 0.078125
                },
                {
                    "name": "D5",
                    "midi": 74,
                    "time": 35.03906249999999,
                    "velocity": 0.6299212598425197,
                    "duration": 0.0807291666666643
                },
                {
                    "name": "G#5",
                    "midi": 80,
                    "time": 35.03906249999999,
                    "velocity": 0.6299212598425197,
                    "duration": 0.0494791666666643
                },
                {
                    "name": "D6",
                    "midi": 86,
                    "time": 35.03906249999999,
                    "velocity": 0.6299212598425197,
                    "duration": 0.0807291666666643
                },
                {
                    "name": "A#1",
                    "midi": 34,
                    "time": 35.16927083333332,
                    "velocity": 0.6299212598425197,
                    "duration": 0.0885416666666714
                },
                {
                    "name": "A#4",
                    "midi": 70,
                    "time": 35.17447916666666,
                    "velocity": 0.6299212598425197,
                    "duration": 0.0833333333333357
                },
                {
                    "name": "G#5",
                    "midi": 80,
                    "time": 35.17447916666666,
                    "velocity": 0.6299212598425197,
                    "duration": 0.0833333333333357
                },
                {
                    "name": "A#5",
                    "midi": 82,
                    "time": 35.17447916666666,
                    "velocity": 0.6299212598425197,
                    "duration": 0.0833333333333357
                },
                {
                    "name": "B4",
                    "midi": 71,
                    "time": 35.45312499999999,
                    "velocity": 0.6299212598425197,
                    "duration": 0.0885416666666643
                },
                {
                    "name": "G#5",
                    "midi": 80,
                    "time": 35.45312499999999,
                    "velocity": 0.6299212598425197,
                    "duration": 0.0494791666666643
                },
                {
                    "name": "B5",
                    "midi": 83,
                    "time": 35.45312499999999,
                    "velocity": 0.6299212598425197,
                    "duration": 0.0885416666666643
                },
                {
                    "name": "G#3",
                    "midi": 56,
                    "time": 35.59114583333332,
                    "velocity": 0.6299212598425197,
                    "duration": 0.078125
                },
                {
                    "name": "A#3",
                    "midi": 58,
                    "time": 35.59114583333332,
                    "velocity": 0.6299212598425197,
                    "duration": 0.078125
                },
                {
                    "name": "F4",
                    "midi": 65,
                    "time": 35.59114583333332,
                    "velocity": 0.6299212598425197,
                    "duration": 0.078125
                },
                {
                    "name": "C5",
                    "midi": 72,
                    "time": 35.59114583333332,
                    "velocity": 0.6299212598425197,
                    "duration": 0.078125
                },
                {
                    "name": "G#5",
                    "midi": 80,
                    "time": 35.59635416666666,
                    "velocity": 0.6299212598425197,
                    "duration": 0.078125
                },
                {
                    "name": "C6",
                    "midi": 84,
                    "time": 35.59635416666666,
                    "velocity": 0.6299212598425197,
                    "duration": 0.0729166666666643
                },
                {
                    "name": "D#2",
                    "midi": 39,
                    "time": 35.86458333333332,
                    "velocity": 0.6299212598425197,
                    "duration": 0.1145833333333357
                },
                {
                    "name": "C#5",
                    "midi": 73,
                    "time": 35.86458333333332,
                    "velocity": 0.6299212598425197,
                    "duration": 0.1197916666666714
                },
                {
                    "name": "G5",
                    "midi": 79,
                    "time": 35.86458333333332,
                    "velocity": 0.6299212598425197,
                    "duration": 0.0546875
                },
                {
                    "name": "A#5",
                    "midi": 82,
                    "time": 35.86458333333332,
                    "velocity": 0.6299212598425197,
                    "duration": 0.0546875
                },
                {
                    "name": "C#6",
                    "midi": 85,
                    "time": 35.86458333333332,
                    "velocity": 0.6299212598425197,
                    "duration": 0.1197916666666714
                },
                {
                    "name": "D#3",
                    "midi": 51,
                    "time": 35.99739583333333,
                    "velocity": 0.6299212598425197,
                    "duration": 1.546875000000007
                },
                {
                    "name": "D5",
                    "midi": 74,
                    "time": 35.99739583333333,
                    "velocity": 0.6299212598425197,
                    "duration": 0.1432291666666643
                },
                {
                    "name": "G5",
                    "midi": 79,
                    "time": 35.99739583333333,
                    "velocity": 0.6299212598425197,
                    "duration": 0.1432291666666643
                },
                {
                    "name": "D6",
                    "midi": 86,
                    "time": 35.99739583333333,
                    "velocity": 0.6299212598425197,
                    "duration": 0.1432291666666643
                },
                {
                    "name": "A#5",
                    "midi": 82,
                    "time": 35.99999999999999,
                    "velocity": 0.6299212598425197,
                    "duration": 0.140625
                },
                {
                    "name": "C5",
                    "midi": 72,
                    "time": 36.260416666666664,
                    "velocity": 0.6299212598425197,
                    "duration": 0.0859375
                },
                {
                    "name": "G5",
                    "midi": 79,
                    "time": 36.260416666666664,
                    "velocity": 0.6299212598425197,
                    "duration": 0.0546875
                },
                {
                    "name": "C6",
                    "midi": 84,
                    "time": 36.260416666666664,
                    "velocity": 0.6299212598425197,
                    "duration": 0.0807291666666643
                },
                {
                    "name": "A#3",
                    "midi": 58,
                    "time": 36.39583333333333,
                    "velocity": 0.6299212598425197,
                    "duration": 0.1588541666666714
                },
                {
                    "name": "D#4",
                    "midi": 63,
                    "time": 36.401041666666664,
                    "velocity": 0.6299212598425197,
                    "duration": 0.1145833333333357
                },
                {
                    "name": "G4",
                    "midi": 67,
                    "time": 36.401041666666664,
                    "velocity": 0.6299212598425197,
                    "duration": 0.109375
                },
                {
                    "name": "A#4",
                    "midi": 70,
                    "time": 36.401041666666664,
                    "velocity": 0.6299212598425197,
                    "duration": 0.1145833333333357
                },
                {
                    "name": "G5",
                    "midi": 79,
                    "time": 36.401041666666664,
                    "velocity": 0.6299212598425197,
                    "duration": 0.1145833333333357
                },
                {
                    "name": "A#5",
                    "midi": 82,
                    "time": 36.401041666666664,
                    "velocity": 0.6299212598425197,
                    "duration": 0.1145833333333357
                },
                {
                    "name": "C5",
                    "midi": 72,
                    "time": 36.677083333333336,
                    "velocity": 0.6299212598425197,
                    "duration": 0.6744791666666643
                },
                {
                    "name": "G5",
                    "midi": 79,
                    "time": 36.677083333333336,
                    "velocity": 0.6299212598425197,
                    "duration": 0.6796875
                },
                {
                    "name": "A#5",
                    "midi": 82,
                    "time": 36.677083333333336,
                    "velocity": 0.6299212598425197,
                    "duration": 0.6744791666666643
                },
                {
                    "name": "C6",
                    "midi": 84,
                    "time": 36.677083333333336,
                    "velocity": 0.6299212598425197,
                    "duration": 0.6796875
                },
                {
                    "name": "A#1",
                    "midi": 34,
                    "time": 36.8046875,
                    "velocity": 0.6299212598425197,
                    "duration": 0.109375
                },
                {
                    "name": "A#3",
                    "midi": 58,
                    "time": 37.205729166666664,
                    "velocity": 0.6299212598425197,
                    "duration": 0.109375
                },
                {
                    "name": "D#4",
                    "midi": 63,
                    "time": 37.205729166666664,
                    "velocity": 0.6299212598425197,
                    "duration": 0.1145833333333357
                },
                {
                    "name": "G4",
                    "midi": 67,
                    "time": 37.205729166666664,
                    "velocity": 0.6299212598425197,
                    "duration": 0.109375
                },
                {
                    "name": "A#5",
                    "midi": 82,
                    "time": 37.47135416666667,
                    "velocity": 0.6299212598425197,
                    "duration": 0.2421875
                },
                {
                    "name": "G2",
                    "midi": 43,
                    "time": 37.598958333333336,
                    "velocity": 0.6299212598425197,
                    "duration": 0.1145833333333357
                },
                {
                    "name": "G3",
                    "midi": 55,
                    "time": 37.60416666666667,
                    "velocity": 0.6299212598425197,
                    "duration": 0.7552083333333428
                },
                {
                    "name": "D5",
                    "midi": 74,
                    "time": 37.60416666666667,
                    "velocity": 0.6299212598425197,
                    "duration": 0.109375
                },
                {
                    "name": "G5",
                    "midi": 79,
                    "time": 37.60416666666667,
                    "velocity": 0.6299212598425197,
                    "duration": 0.109375
                },
                {
                    "name": "D6",
                    "midi": 86,
                    "time": 37.60416666666667,
                    "velocity": 0.6299212598425197,
                    "duration": 0.109375
                },
                {
                    "name": "D#5",
                    "midi": 75,
                    "time": 37.86979166666667,
                    "velocity": 0.6299212598425197,
                    "duration": 0.1171875
                },
                {
                    "name": "G5",
                    "midi": 79,
                    "time": 37.86979166666667,
                    "velocity": 0.6299212598425197,
                    "duration": 0.0546875
                },
                {
                    "name": "A#5",
                    "midi": 82,
                    "time": 37.86979166666667,
                    "velocity": 0.6299212598425197,
                    "duration": 0.0546875
                },
                {
                    "name": "D#6",
                    "midi": 87,
                    "time": 37.86979166666667,
                    "velocity": 0.6299212598425197,
                    "duration": 0.1171875
                },
                {
                    "name": "C5",
                    "midi": 72,
                    "time": 37.973958333333336,
                    "velocity": 0.6299212598425197,
                    "duration": 0.1380208333333428
                },
                {
                    "name": "A#3",
                    "midi": 58,
                    "time": 38.00260416666667,
                    "velocity": 0.6299212598425197,
                    "duration": 0.1041666666666714
                },
                {
                    "name": "D#4",
                    "midi": 63,
                    "time": 38.00260416666667,
                    "velocity": 0.6299212598425197,
                    "duration": 0.1041666666666714
                },
                {
                    "name": "G4",
                    "midi": 67,
                    "time": 38.00260416666667,
                    "velocity": 0.6299212598425197,
                    "duration": 0.1041666666666714
                },
                {
                    "name": "A#5",
                    "midi": 82,
                    "time": 38.00260416666667,
                    "velocity": 0.6299212598425197,
                    "duration": 0.1093750000000071
                },
                {
                    "name": "C6",
                    "midi": 84,
                    "time": 38.00260416666667,
                    "velocity": 0.6299212598425197,
                    "duration": 0.1093750000000071
                },
                {
                    "name": "G5",
                    "midi": 79,
                    "time": 38.00781250000001,
                    "velocity": 0.6299212598425197,
                    "duration": 0.1041666666666714
                },
                {
                    "name": "D5",
                    "midi": 74,
                    "time": 38.26302083333334,
                    "velocity": 0.6299212598425197,
                    "duration": 0.0859375
                },
                {
                    "name": "D6",
                    "midi": 86,
                    "time": 38.26302083333334,
                    "velocity": 0.6299212598425197,
                    "duration": 0.0911458333333357
                },
                {
                    "name": "G5",
                    "midi": 79,
                    "time": 38.26822916666668,
                    "velocity": 0.6299212598425197,
                    "duration": 0.0494791666666643
                },
                {
                    "name": "A#5",
                    "midi": 82,
                    "time": 38.26822916666668,
                    "velocity": 0.6299212598425197,
                    "duration": 0.0494791666666643
                },
                {
                    "name": "F#2",
                    "midi": 42,
                    "time": 38.40104166666668,
                    "velocity": 0.6299212598425197,
                    "duration": 0.0807291666666643
                },
                {
                    "name": "F#3",
                    "midi": 54,
                    "time": 38.40104166666668,
                    "velocity": 0.6299212598425197,
                    "duration": 0.6875
                },
                {
                    "name": "A#4",
                    "midi": 70,
                    "time": 38.40104166666668,
                    "velocity": 0.6299212598425197,
                    "duration": 0.0859375
                },
                {
                    "name": "G5",
                    "midi": 79,
                    "time": 38.40104166666668,
                    "velocity": 0.6299212598425197,
                    "duration": 0.0859375
                },
                {
                    "name": "A#5",
                    "midi": 82,
                    "time": 38.40104166666668,
                    "velocity": 0.6299212598425197,
                    "duration": 0.0859375
                },
                {
                    "name": "B4",
                    "midi": 71,
                    "time": 38.66927083333334,
                    "velocity": 0.6299212598425197,
                    "duration": 0.1145833333333357
                },
                {
                    "name": "G5",
                    "midi": 79,
                    "time": 38.67447916666668,
                    "velocity": 0.6299212598425197,
                    "duration": 0.0494791666666643
                },
                {
                    "name": "B5",
                    "midi": 83,
                    "time": 38.67447916666668,
                    "velocity": 0.6299212598425197,
                    "duration": 0.109375
                },
                {
                    "name": "C4",
                    "midi": 60,
                    "time": 38.80989583333334,
                    "velocity": 0.6299212598425197,
                    "duration": 0.0651041666666643
                },
                {
                    "name": "D#4",
                    "midi": 63,
                    "time": 38.80989583333334,
                    "velocity": 0.6299212598425197,
                    "duration": 0.0651041666666643
                },
                {
                    "name": "F#4",
                    "midi": 66,
                    "time": 38.80989583333334,
                    "velocity": 0.6299212598425197,
                    "duration": 0.0651041666666643
                },
                {
                    "name": "A4",
                    "midi": 69,
                    "time": 38.80989583333334,
                    "velocity": 0.6299212598425197,
                    "duration": 0.0651041666666643
                },
                {
                    "name": "C5",
                    "midi": 72,
                    "time": 38.80989583333334,
                    "velocity": 0.6299212598425197,
                    "duration": 0.0651041666666643
                },
                {
                    "name": "G5",
                    "midi": 79,
                    "time": 38.80989583333334,
                    "velocity": 0.6299212598425197,
                    "duration": 0.0651041666666643
                },
                {
                    "name": "C6",
                    "midi": 84,
                    "time": 38.80989583333334,
                    "velocity": 0.6299212598425197,
                    "duration": 0.0651041666666643
                },
                {
                    "name": "F2",
                    "midi": 41,
                    "time": 39.07031250000001,
                    "velocity": 0.6299212598425197,
                    "duration": 0.1171875000000071
                },
                {
                    "name": "C#5",
                    "midi": 73,
                    "time": 39.07031250000001,
                    "velocity": 0.6299212598425197,
                    "duration": 0.1171875000000071
                },
                {
                    "name": "G#5",
                    "midi": 80,
                    "time": 39.07552083333334,
                    "velocity": 0.6299212598425197,
                    "duration": 0.049479166666671404
                },
                {
                    "name": "C#6",
                    "midi": 85,
                    "time": 39.07552083333334,
                    "velocity": 0.6299212598425197,
                    "duration": 0.1119791666666714
                },
                {
                    "name": "F3",
                    "midi": 53,
                    "time": 39.19791666666668,
                    "velocity": 0.6299212598425197,
                    "duration": 1.5182291666666714
                },
                {
                    "name": "D5",
                    "midi": 74,
                    "time": 39.203125000000014,
                    "velocity": 0.6299212598425197,
                    "duration": 0.1067708333333357
                },
                {
                    "name": "G#5",
                    "midi": 80,
                    "time": 39.203125000000014,
                    "velocity": 0.6299212598425197,
                    "duration": 0.109375
                },
                {
                    "name": "D6",
                    "midi": 86,
                    "time": 39.203125000000014,
                    "velocity": 0.6299212598425197,
                    "duration": 0.1067708333333357
                },
                {
                    "name": "C5",
                    "midi": 72,
                    "time": 39.471354166666686,
                    "velocity": 0.6299212598425197,
                    "duration": 0.1171875
                },
                {
                    "name": "G#5",
                    "midi": 80,
                    "time": 39.471354166666686,
                    "velocity": 0.6299212598425197,
                    "duration": 0.0494791666666643
                },
                {
                    "name": "C6",
                    "midi": 84,
                    "time": 39.471354166666686,
                    "velocity": 0.6299212598425197,
                    "duration": 0.1171875
                },
                {
                    "name": "G#3",
                    "midi": 56,
                    "time": 39.60677083333335,
                    "velocity": 0.6299212598425197,
                    "duration": 0.1015625
                },
                {
                    "name": "A#3",
                    "midi": 58,
                    "time": 39.60677083333335,
                    "velocity": 0.6299212598425197,
                    "duration": 0.1015625
                },
                {
                    "name": "F4",
                    "midi": 65,
                    "time": 39.60677083333335,
                    "velocity": 0.6299212598425197,
                    "duration": 0.1067708333333357
                },
                {
                    "name": "G#4",
                    "midi": 68,
                    "time": 39.60677083333335,
                    "velocity": 0.6299212598425197,
                    "duration": 0.1067708333333357
                },
                {
                    "name": "F5",
                    "midi": 77,
                    "time": 39.60677083333335,
                    "velocity": 0.6299212598425197,
                    "duration": 0.1067708333333357
                },
                {
                    "name": "G#5",
                    "midi": 80,
                    "time": 39.60677083333335,
                    "velocity": 0.6299212598425197,
                    "duration": 0.1119791666666714
                },
                {
                    "name": "D4",
                    "midi": 62,
                    "time": 39.611979166666686,
                    "velocity": 0.6299212598425197,
                    "duration": 0.1015625
                },
                {
                    "name": "G4",
                    "midi": 67,
                    "time": 39.86718750000002,
                    "velocity": 0.6299212598425197,
                    "duration": 0.109375
                },
                {
                    "name": "C#5",
                    "midi": 73,
                    "time": 39.87239583333336,
                    "velocity": 0.6299212598425197,
                    "duration": 0.1041666666666643
                },
                {
                    "name": "G5",
                    "midi": 79,
                    "time": 39.87239583333336,
                    "velocity": 0.6299212598425197,
                    "duration": 0.109375
                },
                {
                    "name": "A#1",
                    "midi": 34,
                    "time": 40.00000000000002,
                    "velocity": 0.6299212598425197,
                    "duration": 0.1145833333333357
                },
                {
                    "name": "F4",
                    "midi": 65,
                    "time": 40.00000000000002,
                    "velocity": 0.6299212598425197,
                    "duration": 0.1197916666666714
                },
                {
                    "name": "D5",
                    "midi": 74,
                    "time": 40.00000000000002,
                    "velocity": 0.6299212598425197,
                    "duration": 0.1145833333333357
                },
                {
                    "name": "F5",
                    "midi": 77,
                    "time": 40.00000000000002,
                    "velocity": 0.6299212598425197,
                    "duration": 0.1197916666666714
                },
                {
                    "name": "D#5",
                    "midi": 75,
                    "time": 40.27604166666669,
                    "velocity": 0.6299212598425197,
                    "duration": 0.2395833333333286
                },
                {
                    "name": "G#5",
                    "midi": 80,
                    "time": 40.27604166666669,
                    "velocity": 0.6299212598425197,
                    "duration": 0.2395833333333286
                },
                {
                    "name": "C6",
                    "midi": 84,
                    "time": 40.27604166666669,
                    "velocity": 0.6299212598425197,
                    "duration": 0.2395833333333286
                },
                {
                    "name": "D#6",
                    "midi": 87,
                    "time": 40.27604166666669,
                    "velocity": 0.6299212598425197,
                    "duration": 0.2395833333333286
                },
                {
                    "name": "G#3",
                    "midi": 56,
                    "time": 40.41145833333336,
                    "velocity": 0.6299212598425197,
                    "duration": 0.0677083333333286
                },
                {
                    "name": "A#3",
                    "midi": 58,
                    "time": 40.41145833333336,
                    "velocity": 0.6299212598425197,
                    "duration": 0.0677083333333286
                },
                {
                    "name": "D4",
                    "midi": 62,
                    "time": 40.41145833333336,
                    "velocity": 0.6299212598425197,
                    "duration": 0.0416666666666643
                },
                {
                    "name": "F4",
                    "midi": 65,
                    "time": 40.41145833333336,
                    "velocity": 0.6299212598425197,
                    "duration": 0.0677083333333286
                },
                {
                    "name": "F2",
                    "midi": 41,
                    "time": 40.674479166666686,
                    "velocity": 0.6299212598425197,
                    "duration": 0.109375
                },
                {
                    "name": "C5",
                    "midi": 72,
                    "time": 40.674479166666686,
                    "velocity": 0.6299212598425197,
                    "duration": 0.0729166666666643
                },
                {
                    "name": "G#5",
                    "midi": 80,
                    "time": 40.674479166666686,
                    "velocity": 0.6299212598425197,
                    "duration": 0.046875
                },
                {
                    "name": "C6",
                    "midi": 84,
                    "time": 40.674479166666686,
                    "velocity": 0.6299212598425197,
                    "duration": 0.0729166666666643
                },
                {
                    "name": "G#3",
                    "midi": 56,
                    "time": 40.80208333333335,
                    "velocity": 0.6299212598425197,
                    "duration": 0.2786458333333357
                },
                {
                    "name": "G#5",
                    "midi": 80,
                    "time": 40.80208333333335,
                    "velocity": 0.6299212598425197,
                    "duration": 0.0833333333333357
                },
                {
                    "name": "D6",
                    "midi": 86,
                    "time": 40.80208333333335,
                    "velocity": 0.6299212598425197,
                    "duration": 0.0833333333333357
                },
                {
                    "name": "D5",
                    "midi": 74,
                    "time": 40.807291666666686,
                    "velocity": 0.6299212598425197,
                    "duration": 0.078125
                },
                {
                    "name": "A#4",
                    "midi": 70,
                    "time": 41.06770833333335,
                    "velocity": 0.6299212598425197,
                    "duration": 0.0807291666666714
                },
                {
                    "name": "A#5",
                    "midi": 82,
                    "time": 41.06770833333335,
                    "velocity": 0.6299212598425197,
                    "duration": 0.0807291666666714
                },
                {
                    "name": "G#3",
                    "midi": 56,
                    "time": 41.197916666666686,
                    "velocity": 0.6299212598425197,
                    "duration": 0.3203125
                },
                {
                    "name": "A#3",
                    "midi": 58,
                    "time": 41.197916666666686,
                    "velocity": 0.6299212598425197,
                    "duration": 0.1119791666666643
                },
                {
                    "name": "D4",
                    "midi": 62,
                    "time": 41.197916666666686,
                    "velocity": 0.6299212598425197,
                    "duration": 0.1119791666666643
                },
                {
                    "name": "F4",
                    "midi": 65,
                    "time": 41.197916666666686,
                    "velocity": 0.6299212598425197,
                    "duration": 0.1119791666666643
                },
                {
                    "name": "B4",
                    "midi": 71,
                    "time": 41.197916666666686,
                    "velocity": 0.6299212598425197,
                    "duration": 0.1770833333333357
                },
                {
                    "name": "G#5",
                    "midi": 80,
                    "time": 41.197916666666686,
                    "velocity": 0.6299212598425197,
                    "duration": 0.140625
                },
                {
                    "name": "B5",
                    "midi": 83,
                    "time": 41.197916666666686,
                    "velocity": 0.6299212598425197,
                    "duration": 0.140625
                },
                {
                    "name": "C5",
                    "midi": 72,
                    "time": 41.46875000000002,
                    "velocity": 0.6299212598425197,
                    "duration": 0.4114583333333286
                },
                {
                    "name": "G#5",
                    "midi": 80,
                    "time": 41.46875000000002,
                    "velocity": 0.6299212598425197,
                    "duration": 0.4114583333333286
                },
                {
                    "name": "C6",
                    "midi": 84,
                    "time": 41.46875000000002,
                    "velocity": 0.6299212598425197,
                    "duration": 0.4114583333333286
                },
                {
                    "name": "A#2",
                    "midi": 46,
                    "time": 41.59895833333335,
                    "velocity": 0.6299212598425197,
                    "duration": 0.1041666666666643
                },
                {
                    "name": "F3",
                    "midi": 53,
                    "time": 41.59895833333335,
                    "velocity": 0.6299212598425197,
                    "duration": 0.3125
                },
                {
                    "name": "G3",
                    "midi": 55,
                    "time": 42.002604166666686,
                    "velocity": 0.6299212598425197,
                    "duration": 0.2812499999999929
                },
                {
                    "name": "D4",
                    "midi": 62,
                    "time": 42.002604166666686,
                    "velocity": 0.6299212598425197,
                    "duration": 0.3177083333333286
                },
                {
                    "name": "G4",
                    "midi": 67,
                    "time": 42.002604166666686,
                    "velocity": 0.6299212598425197,
                    "duration": 0.1119791666666643
                },
                {
                    "name": "D5",
                    "midi": 74,
                    "time": 42.002604166666686,
                    "velocity": 0.6299212598425197,
                    "duration": 0.2473958333333286
                },
                {
                    "name": "G5",
                    "midi": 79,
                    "time": 42.002604166666686,
                    "velocity": 0.6299212598425197,
                    "duration": 0.2473958333333286
                },
                {
                    "name": "A#5",
                    "midi": 82,
                    "time": 42.002604166666686,
                    "velocity": 0.6299212598425197,
                    "duration": 0.2473958333333286
                },
                {
                    "name": "C6",
                    "midi": 84,
                    "time": 42.265625000000014,
                    "velocity": 0.6299212598425197,
                    "duration": 0.0859375
                },
                {
                    "name": "D#3",
                    "midi": 51,
                    "time": 42.41145833333335,
                    "velocity": 0.6299212598425197,
                    "duration": 0.1041666666666643
                },
                {
                    "name": "G3",
                    "midi": 55,
                    "time": 42.41145833333335,
                    "velocity": 0.6299212598425197,
                    "duration": 0.1041666666666643
                },
                {
                    "name": "A#3",
                    "midi": 58,
                    "time": 42.41145833333335,
                    "velocity": 0.6299212598425197,
                    "duration": 0.1041666666666643
                },
                {
                    "name": "D#4",
                    "midi": 63,
                    "time": 42.41145833333335,
                    "velocity": 0.6299212598425197,
                    "duration": 0.1041666666666643
                },
                {
                    "name": "F#5",
                    "midi": 78,
                    "time": 42.41145833333335,
                    "velocity": 0.6299212598425197,
                    "duration": 0.2473958333333357
                },
                {
                    "name": "F#6",
                    "midi": 90,
                    "time": 42.41145833333335,
                    "velocity": 0.6299212598425197,
                    "duration": 0.2109375
                },
                {
                    "name": "G5",
                    "midi": 79,
                    "time": 42.67708333333335,
                    "velocity": 0.6299212598425197,
                    "duration": 0.1197916666666714
                },
                {
                    "name": "G6",
                    "midi": 91,
                    "time": 42.67708333333335,
                    "velocity": 0.6299212598425197,
                    "duration": 0.1145833333333357
                },
                {
                    "name": "D5",
                    "midi": 74,
                    "time": 42.81250000000002,
                    "velocity": 0.6299212598425197,
                    "duration": 0.2578125
                },
                {
                    "name": "D6",
                    "midi": 86,
                    "time": 42.81250000000002,
                    "velocity": 0.6299212598425197,
                    "duration": 0.2578125
                },
                {
                    "name": "F5",
                    "midi": 77,
                    "time": 43.096354166666686,
                    "velocity": 0.6299212598425197,
                    "duration": 0.390625
                },
                {
                    "name": "F6",
                    "midi": 89,
                    "time": 43.096354166666686,
                    "velocity": 0.6299212598425197,
                    "duration": 0.390625
                },
                {
                    "name": "D#5",
                    "midi": 75,
                    "time": 43.502604166666686,
                    "velocity": 0.6299212598425197,
                    "duration": 0.1119791666666643
                },
                {
                    "name": "D#6",
                    "midi": 87,
                    "time": 43.502604166666686,
                    "velocity": 0.6299212598425197,
                    "duration": 0.1119791666666643
                },
                {
                    "name": "F4",
                    "midi": 65,
                    "time": 43.63802083333335,
                    "velocity": 0.6299212598425197,
                    "duration": 0.2630208333333357
                },
                {
                    "name": "F5",
                    "midi": 77,
                    "time": 43.63802083333335,
                    "velocity": 0.6299212598425197,
                    "duration": 0.2630208333333357
                },
                {
                    "name": "F#5",
                    "midi": 78,
                    "time": 43.91927083333335,
                    "velocity": 0.6299212598425197,
                    "duration": 0.1145833333333357
                },
                {
                    "name": "G4",
                    "midi": 67,
                    "time": 44.04687500000002,
                    "velocity": 0.6299212598425197,
                    "duration": 0.2161458333333357
                },
                {
                    "name": "D#5",
                    "midi": 75,
                    "time": 44.05208333333336,
                    "velocity": 0.6299212598425197,
                    "duration": 0.2109375
                },
                {
                    "name": "G5",
                    "midi": 79,
                    "time": 44.05208333333336,
                    "velocity": 0.6299212598425197,
                    "duration": 0.2109375
                },
                {
                    "name": "D5",
                    "midi": 74,
                    "time": 44.31250000000002,
                    "velocity": 0.6299212598425197,
                    "duration": 0.390625
                },
                {
                    "name": "D6",
                    "midi": 86,
                    "time": 44.31250000000002,
                    "velocity": 0.6299212598425197,
                    "duration": 0.390625
                },
                {
                    "name": "C#5",
                    "midi": 73,
                    "time": 44.721354166666686,
                    "velocity": 0.6299212598425197,
                    "duration": 0.0807291666666643
                },
                {
                    "name": "C#6",
                    "midi": 85,
                    "time": 44.721354166666686,
                    "velocity": 0.6299212598425197,
                    "duration": 0.0807291666666643
                },
                {
                    "name": "C5",
                    "midi": 72,
                    "time": 44.85677083333335,
                    "velocity": 0.6299212598425197,
                    "duration": 0.1770833333333357
                },
                {
                    "name": "G5",
                    "midi": 79,
                    "time": 44.85677083333335,
                    "velocity": 0.6299212598425197,
                    "duration": 0.1458333333333357
                },
                {
                    "name": "C6",
                    "midi": 84,
                    "time": 44.85677083333335,
                    "velocity": 0.6299212598425197,
                    "duration": 0.1770833333333357
                },
                {
                    "name": "E2",
                    "midi": 40,
                    "time": 45.119791666666686,
                    "velocity": 0.6299212598425197,
                    "duration": 0.2369791666666643
                },
                {
                    "name": "B4",
                    "midi": 71,
                    "time": 45.119791666666686,
                    "velocity": 0.6299212598425197,
                    "duration": 0.109375
                },
                {
                    "name": "B5",
                    "midi": 83,
                    "time": 45.12500000000002,
                    "velocity": 0.6299212598425197,
                    "duration": 0.1041666666666643
                },
                {
                    "name": "G5",
                    "midi": 79,
                    "time": 45.24739583333335,
                    "velocity": 0.6299212598425197,
                    "duration": 0.1770833333333357
                },
                {
                    "name": "C6",
                    "midi": 84,
                    "time": 45.24739583333335,
                    "velocity": 0.6299212598425197,
                    "duration": 0.1822916666666714
                },
                {
                    "name": "G3",
                    "midi": 55,
                    "time": 45.250000000000014,
                    "velocity": 0.6299212598425197,
                    "duration": 0.3489583333333428
                },
                {
                    "name": "C5",
                    "midi": 72,
                    "time": 45.250000000000014,
                    "velocity": 0.6299212598425197,
                    "duration": 0.1796875000000071
                },
                {
                    "name": "F2",
                    "midi": 41,
                    "time": 45.51302083333336,
                    "velocity": 0.6299212598425197,
                    "duration": 0.2473958333333357
                },
                {
                    "name": "C#5",
                    "midi": 73,
                    "time": 45.51302083333336,
                    "velocity": 0.6299212598425197,
                    "duration": 0.109375
                },
                {
                    "name": "C#6",
                    "midi": 85,
                    "time": 45.51302083333336,
                    "velocity": 0.6299212598425197,
                    "duration": 0.109375
                },
                {
                    "name": "G#3",
                    "midi": 56,
                    "time": 45.63802083333336,
                    "velocity": 0.6299212598425197,
                    "duration": 1.414062499999993
                },
                {
                    "name": "D5",
                    "midi": 74,
                    "time": 45.63802083333336,
                    "velocity": 0.6299212598425197,
                    "duration": 0.140625
                },
                {
                    "name": "G#5",
                    "midi": 80,
                    "time": 45.63802083333336,
                    "velocity": 0.6299212598425197,
                    "duration": 0.1458333333333357
                },
                {
                    "name": "D6",
                    "midi": 86,
                    "time": 45.63802083333336,
                    "velocity": 0.6299212598425197,
                    "duration": 0.1458333333333357
                },
                {
                    "name": "A#4",
                    "midi": 70,
                    "time": 45.90625000000003,
                    "velocity": 0.6299212598425197,
                    "duration": 0.109375
                },
                {
                    "name": "A#5",
                    "midi": 82,
                    "time": 45.90625000000003,
                    "velocity": 0.6299212598425197,
                    "duration": 0.109375
                },
                {
                    "name": "B4",
                    "midi": 71,
                    "time": 46.03385416666669,
                    "velocity": 0.6299212598425197,
                    "duration": 0.109375
                },
                {
                    "name": "A#3",
                    "midi": 58,
                    "time": 46.03906250000003,
                    "velocity": 0.6299212598425197,
                    "duration": 0.1041666666666643
                },
                {
                    "name": "D4",
                    "midi": 62,
                    "time": 46.03906250000003,
                    "velocity": 0.6299212598425197,
                    "duration": 0.1041666666666643
                },
                {
                    "name": "F4",
                    "midi": 65,
                    "time": 46.03906250000003,
                    "velocity": 0.6299212598425197,
                    "duration": 0.1041666666666643
                },
                {
                    "name": "G#4",
                    "midi": 68,
                    "time": 46.03906250000003,
                    "velocity": 0.6299212598425197,
                    "duration": 0.1041666666666643
                },
                {
                    "name": "G#5",
                    "midi": 80,
                    "time": 46.03906250000003,
                    "velocity": 0.6299212598425197,
                    "duration": 0.1041666666666643
                },
                {
                    "name": "B5",
                    "midi": 83,
                    "time": 46.03906250000003,
                    "velocity": 0.6299212598425197,
                    "duration": 0.1041666666666643
                },
                {
                    "name": "C5",
                    "midi": 72,
                    "time": 46.30989583333336,
                    "velocity": 0.6299212598425197,
                    "duration": 0.7473958333333286
                },
                {
                    "name": "D5",
                    "midi": 74,
                    "time": 46.30989583333336,
                    "velocity": 0.6299212598425197,
                    "duration": 0.7473958333333286
                },
                {
                    "name": "G#5",
                    "midi": 80,
                    "time": 46.30989583333336,
                    "velocity": 0.6299212598425197,
                    "duration": 0.7473958333333286
                },
                {
                    "name": "C6",
                    "midi": 84,
                    "time": 46.30989583333336,
                    "velocity": 0.6299212598425197,
                    "duration": 0.7473958333333286
                },
                {
                    "name": "A#1",
                    "midi": 34,
                    "time": 46.43750000000002,
                    "velocity": 0.6299212598425197,
                    "duration": 0.1145833333333357
                },
                {
                    "name": "A#3",
                    "midi": 58,
                    "time": 46.84375000000002,
                    "velocity": 0.6299212598425197,
                    "duration": 0.0807291666666643
                },
                {
                    "name": "D4",
                    "midi": 62,
                    "time": 46.84375000000002,
                    "velocity": 0.6299212598425197,
                    "duration": 0.0807291666666643
                },
                {
                    "name": "F4",
                    "midi": 65,
                    "time": 46.84375000000002,
                    "velocity": 0.6299212598425197,
                    "duration": 0.0807291666666643
                },
                {
                    "name": "G#4",
                    "midi": 68,
                    "time": 46.84375000000002,
                    "velocity": 0.6299212598425197,
                    "duration": 0.0807291666666643
                },
                {
                    "name": "F2",
                    "midi": 41,
                    "time": 47.25000000000002,
                    "velocity": 0.6299212598425197,
                    "duration": 0.140625
                },
                {
                    "name": "G#3",
                    "midi": 56,
                    "time": 47.25000000000002,
                    "velocity": 0.6299212598425197,
                    "duration": 0.1536458333333357
                },
                {
                    "name": "G#5",
                    "midi": 80,
                    "time": 47.25000000000002,
                    "velocity": 0.6299212598425197,
                    "duration": 0.1119791666666643
                },
                {
                    "name": "D6",
                    "midi": 86,
                    "time": 47.25000000000002,
                    "velocity": 0.6299212598425197,
                    "duration": 0.1119791666666643
                },
                {
                    "name": "F6",
                    "midi": 89,
                    "time": 47.25000000000002,
                    "velocity": 0.6299212598425197,
                    "duration": 0.1119791666666643
                },
                {
                    "name": "G#6",
                    "midi": 92,
                    "time": 47.25000000000002,
                    "velocity": 0.6299212598425197,
                    "duration": 0.1119791666666643
                },
                {
                    "name": "A#5",
                    "midi": 82,
                    "time": 47.52083333333336,
                    "velocity": 0.6299212598425197,
                    "duration": 0.2317708333333286
                },
                {
                    "name": "D6",
                    "midi": 86,
                    "time": 47.52083333333336,
                    "velocity": 0.6299212598425197,
                    "duration": 0.2317708333333286
                },
                {
                    "name": "G#6",
                    "midi": 92,
                    "time": 47.52083333333336,
                    "velocity": 0.6299212598425197,
                    "duration": 0.2317708333333286
                },
                {
                    "name": "A#6",
                    "midi": 94,
                    "time": 47.52083333333336,
                    "velocity": 0.6299212598425197,
                    "duration": 0.2317708333333286
                },
                {
                    "name": "G#4",
                    "midi": 68,
                    "time": 47.65625000000002,
                    "velocity": 0.6299212598425197,
                    "duration": 0.1640625
                },
                {
                    "name": "A#4",
                    "midi": 70,
                    "time": 47.65625000000002,
                    "velocity": 0.6299212598425197,
                    "duration": 0.1640625
                },
                {
                    "name": "D5",
                    "midi": 74,
                    "time": 47.65625000000002,
                    "velocity": 0.6299212598425197,
                    "duration": 0.1640625
                },
                {
                    "name": "F5",
                    "midi": 77,
                    "time": 47.65625000000002,
                    "velocity": 0.6299212598425197,
                    "duration": 0.0963541666666643
                },
                {
                    "name": "F5",
                    "midi": 77,
                    "time": 47.90625000000002,
                    "velocity": 0.6299212598425197,
                    "duration": 0.0859375
                },
                {
                    "name": "F6",
                    "midi": 89,
                    "time": 47.90625000000002,
                    "velocity": 0.6299212598425197,
                    "duration": 0.0859375
                },
                {
                    "name": "C#6",
                    "midi": 85,
                    "time": 47.91145833333336,
                    "velocity": 0.6299212598425197,
                    "duration": 0.1432291666666643
                },
                {
                    "name": "A#3",
                    "midi": 58,
                    "time": 48.041666666666686,
                    "velocity": 0.6299212598425197,
                    "duration": 0.2083333333333428
                },
                {
                    "name": "D4",
                    "midi": 62,
                    "time": 48.041666666666686,
                    "velocity": 0.6299212598425197,
                    "duration": 0.1718750000000071
                },
                {
                    "name": "F4",
                    "midi": 65,
                    "time": 48.041666666666686,
                    "velocity": 0.6299212598425197,
                    "duration": 0.2083333333333428
                },
                {
                    "name": "A#4",
                    "midi": 70,
                    "time": 48.041666666666686,
                    "velocity": 0.6299212598425197,
                    "duration": 0.1718750000000071
                },
                {
                    "name": "G5",
                    "midi": 79,
                    "time": 48.041666666666686,
                    "velocity": 0.6299212598425197,
                    "duration": 0.1041666666666714
                },
                {
                    "name": "D6",
                    "midi": 86,
                    "time": 48.041666666666686,
                    "velocity": 0.6299212598425197,
                    "duration": 0.1041666666666714
                },
                {
                    "name": "G6",
                    "midi": 91,
                    "time": 48.041666666666686,
                    "velocity": 0.6299212598425197,
                    "duration": 0.1041666666666714
                },
                {
                    "name": "F5",
                    "midi": 77,
                    "time": 48.302083333333364,
                    "velocity": 0.6299212598425197,
                    "duration": 0.0494791666666643
                },
                {
                    "name": "F6",
                    "midi": 89,
                    "time": 48.302083333333364,
                    "velocity": 0.6299212598425197,
                    "duration": 0.0859375
                },
                {
                    "name": "G#4",
                    "midi": 68,
                    "time": 48.43750000000003,
                    "velocity": 0.6299212598425197,
                    "duration": 0.1796875
                },
                {
                    "name": "A#4",
                    "midi": 70,
                    "time": 48.43750000000003,
                    "velocity": 0.6299212598425197,
                    "duration": 0.1119791666666643
                },
                {
                    "name": "D5",
                    "midi": 74,
                    "time": 48.43750000000003,
                    "velocity": 0.6299212598425197,
                    "duration": 0.1796875
                },
                {
                    "name": "F5",
                    "midi": 77,
                    "time": 48.43750000000003,
                    "velocity": 0.6299212598425197,
                    "duration": 0.1796875
                },
                {
                    "name": "G5",
                    "midi": 79,
                    "time": 48.43750000000003,
                    "velocity": 0.6299212598425197,
                    "duration": 0.0807291666666643
                },
                {
                    "name": "D6",
                    "midi": 86,
                    "time": 48.43750000000003,
                    "velocity": 0.6299212598425197,
                    "duration": 0.0807291666666643
                },
                {
                    "name": "G6",
                    "midi": 91,
                    "time": 48.43750000000003,
                    "velocity": 0.6299212598425197,
                    "duration": 0.0807291666666643
                },
                {
                    "name": "A#4",
                    "midi": 70,
                    "time": 48.700520833333364,
                    "velocity": 0.6299212598425197,
                    "duration": 0.049479166666671404
                },
                {
                    "name": "A#6",
                    "midi": 94,
                    "time": 48.700520833333364,
                    "velocity": 0.6299212598425197,
                    "duration": 0.049479166666671404
                },
                {
                    "name": "A#5",
                    "midi": 82,
                    "time": 48.7057291666667,
                    "velocity": 0.6299212598425197,
                    "duration": 0.0729166666666714
                },
                {
                    "name": "A#4",
                    "midi": 70,
                    "time": 48.828125000000036,
                    "velocity": 0.6299212598425197,
                    "duration": 1.1197916666666714
                },
                {
                    "name": "G5",
                    "midi": 79,
                    "time": 48.828125000000036,
                    "velocity": 0.6299212598425197,
                    "duration": 0.5364583333333357
                },
                {
                    "name": "D6",
                    "midi": 86,
                    "time": 48.828125000000036,
                    "velocity": 0.6299212598425197,
                    "duration": 0.140625
                },
                {
                    "name": "G6",
                    "midi": 91,
                    "time": 48.828125000000036,
                    "velocity": 0.6299212598425197,
                    "duration": 0.140625
                },
                {
                    "name": "A#6",
                    "midi": 94,
                    "time": 48.828125000000036,
                    "velocity": 0.6299212598425197,
                    "duration": 0.140625
                },
                {
                    "name": "D7",
                    "midi": 98,
                    "time": 48.859375000000036,
                    "velocity": 0.6299212598425197,
                    "duration": 0.109375
                },
                {
                    "name": "C6",
                    "midi": 84,
                    "time": 49.09114583333337,
                    "velocity": 0.6299212598425197,
                    "duration": 0.078125
                },
                {
                    "name": "G6",
                    "midi": 91,
                    "time": 49.09114583333337,
                    "velocity": 0.6299212598425197,
                    "duration": 0.0416666666666643
                },
                {
                    "name": "C7",
                    "midi": 96,
                    "time": 49.09114583333337,
                    "velocity": 0.6299212598425197,
                    "duration": 0.0729166666666643
                },
                {
                    "name": "G6",
                    "midi": 91,
                    "time": 49.218750000000036,
                    "velocity": 0.6299212598425197,
                    "duration": 0.1875000000000071
                },
                {
                    "name": "A#6",
                    "midi": 94,
                    "time": 49.218750000000036,
                    "velocity": 0.6299212598425197,
                    "duration": 0.1822916666666714
                },
                {
                    "name": "A#5",
                    "midi": 82,
                    "time": 49.22395833333337,
                    "velocity": 0.6299212598425197,
                    "duration": 0.140625
                },
                {
                    "name": "D#5",
                    "midi": 75,
                    "time": 49.49218750000004,
                    "velocity": 0.6299212598425197,
                    "duration": 0.3098958333333357
                },
                {
                    "name": "G5",
                    "midi": 79,
                    "time": 49.49218750000004,
                    "velocity": 0.6299212598425197,
                    "duration": 0.3098958333333357
                },
                {
                    "name": "C6",
                    "midi": 84,
                    "time": 49.49218750000004,
                    "velocity": 0.6299212598425197,
                    "duration": 0.3098958333333357
                },
                {
                    "name": "G6",
                    "midi": 91,
                    "time": 49.49218750000004,
                    "velocity": 0.6299212598425197,
                    "duration": 0.3098958333333357
                },
                {
                    "name": "A#6",
                    "midi": 94,
                    "time": 49.49218750000004,
                    "velocity": 0.6299212598425197,
                    "duration": 0.25
                },
                {
                    "name": "C7",
                    "midi": 96,
                    "time": 49.49218750000004,
                    "velocity": 0.6299212598425197,
                    "duration": 0.3098958333333357
                },
                {
                    "name": "D#6",
                    "midi": 87,
                    "time": 49.89843750000004,
                    "velocity": 0.6299212598425197,
                    "duration": 0.0807291666666643
                },
                {
                    "name": "D#7",
                    "midi": 99,
                    "time": 49.89843750000004,
                    "velocity": 0.6299212598425197,
                    "duration": 0.0807291666666643
                },
                {
                    "name": "A4",
                    "midi": 69,
                    "time": 50.03385416666671,
                    "velocity": 0.6299212598425197,
                    "duration": 0.2578125
                },
                {
                    "name": "D5",
                    "midi": 74,
                    "time": 50.03385416666671,
                    "velocity": 0.6299212598425197,
                    "duration": 0.21875
                },
                {
                    "name": "F#5",
                    "midi": 78,
                    "time": 50.03385416666671,
                    "velocity": 0.6299212598425197,
                    "duration": 0.21875
                },
                {
                    "name": "D6",
                    "midi": 86,
                    "time": 50.03385416666671,
                    "velocity": 0.6299212598425197,
                    "duration": 0.1822916666666643
                },
                {
                    "name": "D7",
                    "midi": 98,
                    "time": 50.03385416666671,
                    "velocity": 0.6299212598425197,
                    "duration": 0.1822916666666643
                },
                {
                    "name": "D#6",
                    "midi": 87,
                    "time": 50.31510416666671,
                    "velocity": 0.6299212598425197,
                    "duration": 0.0859375
                },
                {
                    "name": "D#7",
                    "midi": 99,
                    "time": 50.31510416666671,
                    "velocity": 0.6299212598425197,
                    "duration": 0.0807291666666643
                },
                {
                    "name": "D#5",
                    "midi": 75,
                    "time": 50.45572916666671,
                    "velocity": 0.6299212598425197,
                    "duration": 0.1458333333333357
                },
                {
                    "name": "C#6",
                    "midi": 85,
                    "time": 50.45572916666671,
                    "velocity": 0.6299212598425197,
                    "duration": 0.1458333333333357
                },
                {
                    "name": "C#7",
                    "midi": 97,
                    "time": 50.45572916666671,
                    "velocity": 0.6299212598425197,
                    "duration": 0.1458333333333357
                },
                {
                    "name": "G5",
                    "midi": 79,
                    "time": 50.46093750000004,
                    "velocity": 0.6299212598425197,
                    "duration": 0.1458333333333357
                },
                {
                    "name": "A#5",
                    "midi": 82,
                    "time": 50.721354166666714,
                    "velocity": 0.6299212598425197,
                    "duration": 0.109375
                },
                {
                    "name": "A#6",
                    "midi": 94,
                    "time": 50.721354166666714,
                    "velocity": 0.6299212598425197,
                    "duration": 0.109375
                },
                {
                    "name": "F5",
                    "midi": 77,
                    "time": 50.85677083333338,
                    "velocity": 0.6299212598425197,
                    "duration": 0.1145833333333357
                },
                {
                    "name": "C#6",
                    "midi": 85,
                    "time": 50.85677083333338,
                    "velocity": 0.6299212598425197,
                    "duration": 0.1197916666666714
                },
                {
                    "name": "F6",
                    "midi": 89,
                    "time": 50.85677083333338,
                    "velocity": 0.6299212598425197,
                    "duration": 0.1197916666666714
                },
                {
                    "name": "F#5",
                    "midi": 78,
                    "time": 51.13281250000005,
                    "velocity": 0.6299212598425197,
                    "duration": 0.0807291666666714
                },
                {
                    "name": "C#6",
                    "midi": 85,
                    "time": 51.13281250000005,
                    "velocity": 0.6299212598425197,
                    "duration": 0.0520833333333357
                },
                {
                    "name": "F#6",
                    "midi": 90,
                    "time": 51.13281250000005,
                    "velocity": 0.6299212598425197,
                    "duration": 0.0807291666666714
                },
                {
                    "name": "D#4",
                    "midi": 63,
                    "time": 51.263020833333385,
                    "velocity": 0.6299212598425197,
                    "duration": 0.2161458333333286
                },
                {
                    "name": "G4",
                    "midi": 67,
                    "time": 51.263020833333385,
                    "velocity": 0.6299212598425197,
                    "duration": 0.2213541666666643
                },
                {
                    "name": "A#4",
                    "midi": 70,
                    "time": 51.263020833333385,
                    "velocity": 0.6299212598425197,
                    "duration": 0.2161458333333286
                },
                {
                    "name": "G5",
                    "midi": 79,
                    "time": 51.263020833333385,
                    "velocity": 0.6299212598425197,
                    "duration": 0.0807291666666643
                },
                {
                    "name": "C#6",
                    "midi": 85,
                    "time": 51.263020833333385,
                    "velocity": 0.6299212598425197,
                    "duration": 0.0807291666666643
                },
                {
                    "name": "G6",
                    "midi": 91,
                    "time": 51.263020833333385,
                    "velocity": 0.6299212598425197,
                    "duration": 0.0807291666666643
                },
                {
                    "name": "F5",
                    "midi": 77,
                    "time": 51.533854166666714,
                    "velocity": 0.6299212598425197,
                    "duration": 0.0729166666666643
                },
                {
                    "name": "C6",
                    "midi": 84,
                    "time": 51.533854166666714,
                    "velocity": 0.6299212598425197,
                    "duration": 0.078125
                },
                {
                    "name": "F6",
                    "midi": 89,
                    "time": 51.533854166666714,
                    "velocity": 0.6299212598425197,
                    "duration": 0.0729166666666643
                },
                {
                    "name": "G4",
                    "midi": 67,
                    "time": 51.66145833333338,
                    "velocity": 0.6299212598425197,
                    "duration": 0.2135416666666714
                },
                {
                    "name": "D#4",
                    "midi": 63,
                    "time": 51.666666666666714,
                    "velocity": 0.6299212598425197,
                    "duration": 0.2083333333333357
                },
                {
                    "name": "A#4",
                    "midi": 70,
                    "time": 51.666666666666714,
                    "velocity": 0.6299212598425197,
                    "duration": 0.2083333333333357
                },
                {
                    "name": "D#5",
                    "midi": 75,
                    "time": 51.666666666666714,
                    "velocity": 0.6299212598425197,
                    "duration": 0.1145833333333357
                },
                {
                    "name": "D#6",
                    "midi": 87,
                    "time": 51.666666666666714,
                    "velocity": 0.6299212598425197,
                    "duration": 0.109375
                },
                {
                    "name": "C#5",
                    "midi": 73,
                    "time": 51.92968750000005,
                    "velocity": 0.6299212598425197,
                    "duration": 0.0703125
                },
                {
                    "name": "C#6",
                    "midi": 85,
                    "time": 51.92968750000005,
                    "velocity": 0.6299212598425197,
                    "duration": 0.0755208333333357
                },
                {
                    "name": "G#3",
                    "midi": 56,
                    "time": 52.06250000000005,
                    "velocity": 0.6299212598425197,
                    "duration": 0.6328125000000071
                },
                {
                    "name": "D#4",
                    "midi": 63,
                    "time": 52.06250000000005,
                    "velocity": 0.6299212598425197,
                    "duration": 0.6328125000000071
                },
                {
                    "name": "G#4",
                    "midi": 68,
                    "time": 52.06250000000005,
                    "velocity": 0.6299212598425197,
                    "duration": 0.6380208333333428
                },
                {
                    "name": "C5",
                    "midi": 72,
                    "time": 52.06250000000005,
                    "velocity": 0.6299212598425197,
                    "duration": 0.1979166666666714
                },
                {
                    "name": "G#5",
                    "midi": 80,
                    "time": 52.06250000000005,
                    "velocity": 0.6299212598425197,
                    "duration": 0.2031250000000071
                },
                {
                    "name": "C6",
                    "midi": 84,
                    "time": 52.06250000000005,
                    "velocity": 0.6299212598425197,
                    "duration": 0.1979166666666714
                },
                {
                    "name": "B4",
                    "midi": 71,
                    "time": 52.44270833333339,
                    "velocity": 0.6299212598425197,
                    "duration": 0.1484375
                },
                {
                    "name": "G#5",
                    "midi": 80,
                    "time": 52.44270833333339,
                    "velocity": 0.6299212598425197,
                    "duration": 0.1119791666666643
                },
                {
                    "name": "B5",
                    "midi": 83,
                    "time": 52.44270833333339,
                    "velocity": 0.6299212598425197,
                    "duration": 0.1119791666666643
                },
                {
                    "name": "C5",
                    "midi": 72,
                    "time": 52.71875000000006,
                    "velocity": 0.6299212598425197,
                    "duration": 0.0807291666666643
                },
                {
                    "name": "C6",
                    "midi": 84,
                    "time": 52.71875000000006,
                    "velocity": 0.6299212598425197,
                    "duration": 0.0807291666666643
                },
                {
                    "name": "A3",
                    "midi": 57,
                    "time": 52.85416666666672,
                    "velocity": 0.6299212598425197,
                    "duration": 0.6796875
                },
                {
                    "name": "F#4",
                    "midi": 66,
                    "time": 52.85416666666672,
                    "velocity": 0.6299212598425197,
                    "duration": 0.6848958333333357
                },
                {
                    "name": "D5",
                    "midi": 74,
                    "time": 52.85416666666672,
                    "velocity": 0.6299212598425197,
                    "duration": 0.2447916666666643
                },
                {
                    "name": "F#5",
                    "midi": 78,
                    "time": 52.85416666666672,
                    "velocity": 0.6299212598425197,
                    "duration": 0.2447916666666643
                },
                {
                    "name": "A5",
                    "midi": 81,
                    "time": 52.85416666666672,
                    "velocity": 0.6299212598425197,
                    "duration": 0.2447916666666643
                },
                {
                    "name": "D6",
                    "midi": 86,
                    "time": 52.85416666666672,
                    "velocity": 0.6299212598425197,
                    "duration": 0.2447916666666643
                },
                {
                    "name": "C5",
                    "midi": 72,
                    "time": 53.25000000000005,
                    "velocity": 0.6299212598425197,
                    "duration": 0.1171875
                },
                {
                    "name": "F#5",
                    "midi": 78,
                    "time": 53.25000000000005,
                    "velocity": 0.6299212598425197,
                    "duration": 0.1171875
                },
                {
                    "name": "C6",
                    "midi": 84,
                    "time": 53.255208333333385,
                    "velocity": 0.6299212598425197,
                    "duration": 0.1119791666666643
                },
                {
                    "name": "D5",
                    "midi": 74,
                    "time": 53.52343750000005,
                    "velocity": 0.6299212598425197,
                    "duration": 0.08333333333334281
                },
                {
                    "name": "G5",
                    "midi": 79,
                    "time": 53.52343750000005,
                    "velocity": 0.6299212598425197,
                    "duration": 0.05208333333334281
                },
                {
                    "name": "D6",
                    "midi": 86,
                    "time": 53.52343750000005,
                    "velocity": 0.6299212598425197,
                    "duration": 0.08333333333334281
                },
                {
                    "name": "A#5",
                    "midi": 82,
                    "time": 53.528645833333385,
                    "velocity": 0.6299212598425197,
                    "duration": 0.046875000000007105
                },
                {
                    "name": "A#3",
                    "midi": 58,
                    "time": 53.656250000000064,
                    "velocity": 0.6299212598425197,
                    "duration": 0.1171875
                },
                {
                    "name": "G4",
                    "midi": 67,
                    "time": 53.656250000000064,
                    "velocity": 0.6299212598425197,
                    "duration": 0.1171875
                },
                {
                    "name": "D#5",
                    "midi": 75,
                    "time": 53.656250000000064,
                    "velocity": 0.6299212598425197,
                    "duration": 0.0807291666666643
                },
                {
                    "name": "G5",
                    "midi": 79,
                    "time": 53.656250000000064,
                    "velocity": 0.6299212598425197,
                    "duration": 0.0546875
                },
                {
                    "name": "A#5",
                    "midi": 82,
                    "time": 53.656250000000064,
                    "velocity": 0.6299212598425197,
                    "duration": 0.0546875
                },
                {
                    "name": "D#6",
                    "midi": 87,
                    "time": 53.656250000000064,
                    "velocity": 0.6299212598425197,
                    "duration": 0.0807291666666643
                },
                {
                    "name": "G5",
                    "midi": 79,
                    "time": 53.7864583333334,
                    "velocity": 0.6299212598425197,
                    "duration": 0.0546875
                },
                {
                    "name": "F5",
                    "midi": 77,
                    "time": 53.791666666666735,
                    "velocity": 0.6299212598425197,
                    "duration": 0.0807291666666643
                },
                {
                    "name": "A#5",
                    "midi": 82,
                    "time": 53.791666666666735,
                    "velocity": 0.6299212598425197,
                    "duration": 0.0494791666666643
                },
                {
                    "name": "F6",
                    "midi": 89,
                    "time": 53.791666666666735,
                    "velocity": 0.6299212598425197,
                    "duration": 0.0807291666666643
                },
                {
                    "name": "D#5",
                    "midi": 75,
                    "time": 53.9348958333334,
                    "velocity": 0.6299212598425197,
                    "duration": 0.0703125
                },
                {
                    "name": "G5",
                    "midi": 79,
                    "time": 53.9348958333334,
                    "velocity": 0.6299212598425197,
                    "duration": 0.0703125
                },
                {
                    "name": "A#5",
                    "midi": 82,
                    "time": 53.9348958333334,
                    "velocity": 0.6299212598425197,
                    "duration": 0.0703125
                },
                {
                    "name": "D#6",
                    "midi": 87,
                    "time": 53.9348958333334,
                    "velocity": 0.6299212598425197,
                    "duration": 0.0703125
                },
                {
                    "name": "G3",
                    "midi": 55,
                    "time": 54.062500000000064,
                    "velocity": 0.6299212598425197,
                    "duration": 0.2552083333333286
                },
                {
                    "name": "D4",
                    "midi": 62,
                    "time": 54.062500000000064,
                    "velocity": 0.6299212598425197,
                    "duration": 0.2552083333333286
                },
                {
                    "name": "F4",
                    "midi": 65,
                    "time": 54.062500000000064,
                    "velocity": 0.6299212598425197,
                    "duration": 0.2552083333333286
                },
                {
                    "name": "B4",
                    "midi": 71,
                    "time": 54.062500000000064,
                    "velocity": 0.6299212598425197,
                    "duration": 0.1510416666666643
                },
                {
                    "name": "D5",
                    "midi": 74,
                    "time": 54.062500000000064,
                    "velocity": 0.6299212598425197,
                    "duration": 0.1510416666666643
                },
                {
                    "name": "F5",
                    "midi": 77,
                    "time": 54.062500000000064,
                    "velocity": 0.6299212598425197,
                    "duration": 0.1510416666666643
                },
                {
                    "name": "B5",
                    "midi": 83,
                    "time": 54.062500000000064,
                    "velocity": 0.6299212598425197,
                    "duration": 0.1510416666666643
                },
                {
                    "name": "C5",
                    "midi": 72,
                    "time": 54.33593750000006,
                    "velocity": 0.6299212598425197,
                    "duration": 0.3411458333333286
                },
                {
                    "name": "E5",
                    "midi": 76,
                    "time": 54.33593750000006,
                    "velocity": 0.6299212598425197,
                    "duration": 0.3411458333333286
                },
                {
                    "name": "G5",
                    "midi": 79,
                    "time": 54.33593750000006,
                    "velocity": 0.6299212598425197,
                    "duration": 0.3411458333333286
                },
                {
                    "name": "A#5",
                    "midi": 82,
                    "time": 54.33593750000006,
                    "velocity": 0.6299212598425197,
                    "duration": 0.3411458333333286
                },
                {
                    "name": "C6",
                    "midi": 84,
                    "time": 54.33593750000006,
                    "velocity": 0.6299212598425197,
                    "duration": 0.3411458333333286
                },
                {
                    "name": "C4",
                    "midi": 60,
                    "time": 54.46354166666672,
                    "velocity": 0.6299212598425197,
                    "duration": 0.2135416666666643
                },
                {
                    "name": "E4",
                    "midi": 64,
                    "time": 54.46354166666672,
                    "velocity": 0.6299212598425197,
                    "duration": 0.2135416666666643
                },
                {
                    "name": "G4",
                    "midi": 67,
                    "time": 54.46354166666672,
                    "velocity": 0.6299212598425197,
                    "duration": 0.2135416666666643
                },
                {
                    "name": "A#4",
                    "midi": 70,
                    "time": 54.46354166666672,
                    "velocity": 0.6299212598425197,
                    "duration": 0.2135416666666643
                },
                {
                    "name": "G4",
                    "midi": 67,
                    "time": 54.86718750000005,
                    "velocity": 0.6299212598425197,
                    "duration": 0.2109375
                },
                {
                    "name": "A#3",
                    "midi": 58,
                    "time": 54.872395833333385,
                    "velocity": 0.6299212598425197,
                    "duration": 0.2057291666666643
                },
                {
                    "name": "B3",
                    "midi": 59,
                    "time": 55.13281250000005,
                    "velocity": 0.6299212598425197,
                    "duration": 0.1119791666666643
                },
                {
                    "name": "G#4",
                    "midi": 68,
                    "time": 55.13281250000005,
                    "velocity": 0.6299212598425197,
                    "duration": 0.1119791666666643
                },
                {
                    "name": "A5",
                    "midi": 81,
                    "time": 55.25520833333338,
                    "velocity": 0.6299212598425197,
                    "duration": 0.057291666666671404
                },
                {
                    "name": "C6",
                    "midi": 84,
                    "time": 55.25520833333338,
                    "velocity": 0.6299212598425197,
                    "duration": 0.057291666666671404
                },
                {
                    "name": "D#6",
                    "midi": 87,
                    "time": 55.25520833333338,
                    "velocity": 0.6299212598425197,
                    "duration": 0.1171875000000071
                },
                {
                    "name": "C4",
                    "midi": 60,
                    "time": 55.260416666666714,
                    "velocity": 0.6299212598425197,
                    "duration": 0.6536458333333428
                },
                {
                    "name": "A4",
                    "midi": 69,
                    "time": 55.260416666666714,
                    "velocity": 0.6299212598425197,
                    "duration": 0.6536458333333428
                },
                {
                    "name": "D#5",
                    "midi": 75,
                    "time": 55.260416666666714,
                    "velocity": 0.6299212598425197,
                    "duration": 0.1119791666666714
                },
                {
                    "name": "F5",
                    "midi": 77,
                    "time": 55.388020833333385,
                    "velocity": 0.6299212598425197,
                    "duration": 0.1067708333333286
                },
                {
                    "name": "A5",
                    "midi": 81,
                    "time": 55.388020833333385,
                    "velocity": 0.6299212598425197,
                    "duration": 0.0494791666666643
                },
                {
                    "name": "C6",
                    "midi": 84,
                    "time": 55.388020833333385,
                    "velocity": 0.6299212598425197,
                    "duration": 0.0494791666666643
                },
                {
                    "name": "F6",
                    "midi": 89,
                    "time": 55.388020833333385,
                    "velocity": 0.6299212598425197,
                    "duration": 0.1067708333333286
                },
                {
                    "name": "D#5",
                    "midi": 75,
                    "time": 55.510416666666714,
                    "velocity": 0.6299212598425197,
                    "duration": 0.0781250000000071
                },
                {
                    "name": "D#6",
                    "midi": 87,
                    "time": 55.510416666666714,
                    "velocity": 0.6299212598425197,
                    "duration": 0.0781250000000071
                },
                {
                    "name": "A5",
                    "midi": 81,
                    "time": 55.51562500000005,
                    "velocity": 0.6299212598425197,
                    "duration": 0.0442708333333357
                },
                {
                    "name": "C6",
                    "midi": 84,
                    "time": 55.51562500000005,
                    "velocity": 0.6299212598425197,
                    "duration": 0.0442708333333357
                },
                {
                    "name": "C5",
                    "midi": 72,
                    "time": 55.638020833333385,
                    "velocity": 0.6299212598425197,
                    "duration": 0.1770833333333357
                },
                {
                    "name": "F5",
                    "midi": 77,
                    "time": 55.638020833333385,
                    "velocity": 0.6299212598425197,
                    "duration": 0.1770833333333357
                },
                {
                    "name": "A5",
                    "midi": 81,
                    "time": 55.638020833333385,
                    "velocity": 0.6299212598425197,
                    "duration": 0.1770833333333357
                },
                {
                    "name": "C6",
                    "midi": 84,
                    "time": 55.638020833333385,
                    "velocity": 0.6299212598425197,
                    "duration": 0.1770833333333357
                },
                {
                    "name": "B4",
                    "midi": 71,
                    "time": 55.90104166666672,
                    "velocity": 0.6299212598425197,
                    "duration": 0.109375
                },
                {
                    "name": "B5",
                    "midi": 83,
                    "time": 55.90104166666672,
                    "velocity": 0.6299212598425197,
                    "duration": 0.109375
                },
                {
                    "name": "A#3",
                    "midi": 58,
                    "time": 56.028645833333385,
                    "velocity": 0.6299212598425197,
                    "duration": 0.140625
                },
                {
                    "name": "D4",
                    "midi": 62,
                    "time": 56.028645833333385,
                    "velocity": 0.6299212598425197,
                    "duration": 0.140625
                },
                {
                    "name": "F4",
                    "midi": 65,
                    "time": 56.028645833333385,
                    "velocity": 0.6299212598425197,
                    "duration": 0.140625
                },
                {
                    "name": "G#4",
                    "midi": 68,
                    "time": 56.028645833333385,
                    "velocity": 0.6299212598425197,
                    "duration": 0.140625
                },
                {
                    "name": "A#4",
                    "midi": 70,
                    "time": 56.028645833333385,
                    "velocity": 0.6299212598425197,
                    "duration": 0.140625
                },
                {
                    "name": "D5",
                    "midi": 74,
                    "time": 56.028645833333385,
                    "velocity": 0.6299212598425197,
                    "duration": 0.1354166666666643
                },
                {
                    "name": "G#5",
                    "midi": 80,
                    "time": 56.028645833333385,
                    "velocity": 0.6299212598425197,
                    "duration": 0.140625
                },
                {
                    "name": "A#5",
                    "midi": 82,
                    "time": 56.028645833333385,
                    "velocity": 0.6299212598425197,
                    "duration": 0.140625
                },
                {
                    "name": "A#4",
                    "midi": 70,
                    "time": 56.29166666666672,
                    "velocity": 0.6299212598425197,
                    "duration": 0.25
                },
                {
                    "name": "D5",
                    "midi": 74,
                    "time": 56.29166666666672,
                    "velocity": 0.6299212598425197,
                    "duration": 0.0416666666666643
                },
                {
                    "name": "F#5",
                    "midi": 78,
                    "time": 56.29166666666672,
                    "velocity": 0.6299212598425197,
                    "duration": 0.0833333333333286
                },
                {
                    "name": "A#2",
                    "midi": 46,
                    "time": 56.427083333333385,
                    "velocity": 0.6299212598425197,
                    "duration": 0.2109375000000071
                },
                {
                    "name": "F3",
                    "midi": 53,
                    "time": 56.43229166666672,
                    "velocity": 0.6299212598425197,
                    "duration": 0.2109375000000071
                },
                {
                    "name": "A#3",
                    "midi": 58,
                    "time": 56.43229166666672,
                    "velocity": 0.6299212598425197,
                    "duration": 0.2109375000000071
                },
                {
                    "name": "D5",
                    "midi": 74,
                    "time": 56.43229166666672,
                    "velocity": 0.6299212598425197,
                    "duration": 0.109375
                },
                {
                    "name": "G5",
                    "midi": 79,
                    "time": 56.43229166666672,
                    "velocity": 0.6299212598425197,
                    "duration": 0.109375
                },
                {
                    "name": "A#4",
                    "midi": 70,
                    "time": 56.62500000000006,
                    "velocity": 0.6299212598425197,
                    "duration": 0.2838541666666643
                },
                {
                    "name": "D#5",
                    "midi": 75,
                    "time": 56.69270833333339,
                    "velocity": 0.6299212598425197,
                    "duration": 0.2213541666666643
                },
                {
                    "name": "G5",
                    "midi": 79,
                    "time": 56.69270833333339,
                    "velocity": 0.6299212598425197,
                    "duration": 0.2213541666666643
                },
                {
                    "name": "D#3",
                    "midi": 51,
                    "time": 56.82812500000006,
                    "velocity": 0.6299212598425197,
                    "duration": 0.0807291666666643
                },
                {
                    "name": "G3",
                    "midi": 55,
                    "time": 56.82812500000006,
                    "velocity": 0.6299212598425197,
                    "duration": 0.0807291666666643
                },
                {
                    "name": "A#3",
                    "midi": 58,
                    "time": 56.82812500000006,
                    "velocity": 0.6299212598425197,
                    "duration": 0.0807291666666643
                },
                {
                    "name": "D#4",
                    "midi": 63,
                    "time": 56.82812500000006,
                    "velocity": 0.6299212598425197,
                    "duration": 0.0859375
                },
                {
                    "name": "E2",
                    "midi": 40,
                    "time": 57.09635416666672,
                    "velocity": 0.6299212598425197,
                    "duration": 0.057291666666671404
                },
                {
                    "name": "G2",
                    "midi": 43,
                    "time": 57.09635416666672,
                    "velocity": 0.6299212598425197,
                    "duration": 0.057291666666671404
                },
                {
                    "name": "B2",
                    "midi": 47,
                    "time": 57.09635416666672,
                    "velocity": 0.6299212598425197,
                    "duration": 0.057291666666671404
                },
                {
                    "name": "E3",
                    "midi": 52,
                    "time": 57.09635416666672,
                    "velocity": 0.6299212598425197,
                    "duration": 0.0520833333333357
                },
                {
                    "name": "A#4",
                    "midi": 70,
                    "time": 57.09635416666672,
                    "velocity": 0.6299212598425197,
                    "duration": 0.057291666666671404
                },
                {
                    "name": "C#5",
                    "midi": 73,
                    "time": 57.09635416666672,
                    "velocity": 0.6299212598425197,
                    "duration": 0.057291666666671404
                },
                {
                    "name": "E5",
                    "midi": 76,
                    "time": 57.09635416666672,
                    "velocity": 0.6299212598425197,
                    "duration": 0.057291666666671404
                },
                {
                    "name": "A#5",
                    "midi": 82,
                    "time": 57.09635416666672,
                    "velocity": 0.6299212598425197,
                    "duration": 0.057291666666671404
                },
                {
                    "name": "G5",
                    "midi": 79,
                    "time": 57.10156250000006,
                    "velocity": 0.6299212598425197,
                    "duration": 0.0520833333333357
                },
                {
                    "name": "E2",
                    "midi": 40,
                    "time": 57.23437500000006,
                    "velocity": 0.6299212598425197,
                    "duration": 0.1223958333333357
                },
                {
                    "name": "G2",
                    "midi": 43,
                    "time": 57.23437500000006,
                    "velocity": 0.6299212598425197,
                    "duration": 0.1223958333333357
                },
                {
                    "name": "B2",
                    "midi": 47,
                    "time": 57.23437500000006,
                    "velocity": 0.6299212598425197,
                    "duration": 0.1223958333333357
                },
                {
                    "name": "E3",
                    "midi": 52,
                    "time": 57.23437500000006,
                    "velocity": 0.6299212598425197,
                    "duration": 0.1223958333333357
                },
                {
                    "name": "A#4",
                    "midi": 70,
                    "time": 57.23437500000006,
                    "velocity": 0.6299212598425197,
                    "duration": 0.0911458333333357
                },
                {
                    "name": "C#5",
                    "midi": 73,
                    "time": 57.23437500000006,
                    "velocity": 0.6299212598425197,
                    "duration": 0.0911458333333357
                },
                {
                    "name": "E5",
                    "midi": 76,
                    "time": 57.23437500000006,
                    "velocity": 0.6299212598425197,
                    "duration": 0.0911458333333357
                },
                {
                    "name": "G5",
                    "midi": 79,
                    "time": 57.23437500000006,
                    "velocity": 0.6299212598425197,
                    "duration": 0.0911458333333357
                },
                {
                    "name": "A#5",
                    "midi": 82,
                    "time": 57.23437500000006,
                    "velocity": 0.6299212598425197,
                    "duration": 0.0911458333333357
                },
                {
                    "name": "E2",
                    "midi": 40,
                    "time": 57.51302083333339,
                    "velocity": 0.6299212598425197,
                    "duration": 0.049479166666671404
                },
                {
                    "name": "G2",
                    "midi": 43,
                    "time": 57.51302083333339,
                    "velocity": 0.6299212598425197,
                    "duration": 0.049479166666671404
                },
                {
                    "name": "B2",
                    "midi": 47,
                    "time": 57.51302083333339,
                    "velocity": 0.6299212598425197,
                    "duration": 0.0442708333333357
                },
                {
                    "name": "E3",
                    "midi": 52,
                    "time": 57.51302083333339,
                    "velocity": 0.6299212598425197,
                    "duration": 0.049479166666671404
                },
                {
                    "name": "A#4",
                    "midi": 70,
                    "time": 57.51302083333339,
                    "velocity": 0.6299212598425197,
                    "duration": 0.049479166666671404
                },
                {
                    "name": "C#5",
                    "midi": 73,
                    "time": 57.51302083333339,
                    "velocity": 0.6299212598425197,
                    "duration": 0.049479166666671404
                },
                {
                    "name": "E5",
                    "midi": 76,
                    "time": 57.51302083333339,
                    "velocity": 0.6299212598425197,
                    "duration": 0.049479166666671404
                },
                {
                    "name": "G5",
                    "midi": 79,
                    "time": 57.51302083333339,
                    "velocity": 0.6299212598425197,
                    "duration": 0.049479166666671404
                },
                {
                    "name": "A#5",
                    "midi": 82,
                    "time": 57.51302083333339,
                    "velocity": 0.6299212598425197,
                    "duration": 0.049479166666671404
                },
                {
                    "name": "E3",
                    "midi": 52,
                    "time": 57.640625000000064,
                    "velocity": 0.6299212598425197,
                    "duration": 0.1302083333333428
                },
                {
                    "name": "C#5",
                    "midi": 73,
                    "time": 57.640625000000064,
                    "velocity": 0.6299212598425197,
                    "duration": 0.0911458333333357
                },
                {
                    "name": "E2",
                    "midi": 40,
                    "time": 57.6458333333334,
                    "velocity": 0.6299212598425197,
                    "duration": 0.1197916666666714
                },
                {
                    "name": "G2",
                    "midi": 43,
                    "time": 57.6458333333334,
                    "velocity": 0.6299212598425197,
                    "duration": 0.1197916666666714
                },
                {
                    "name": "B2",
                    "midi": 47,
                    "time": 57.6458333333334,
                    "velocity": 0.6299212598425197,
                    "duration": 0.1197916666666714
                },
                {
                    "name": "A#4",
                    "midi": 70,
                    "time": 57.6458333333334,
                    "velocity": 0.6299212598425197,
                    "duration": 0.0859375
                },
                {
                    "name": "E5",
                    "midi": 76,
                    "time": 57.6458333333334,
                    "velocity": 0.6299212598425197,
                    "duration": 0.0911458333333357
                },
                {
                    "name": "G5",
                    "midi": 79,
                    "time": 57.6458333333334,
                    "velocity": 0.6299212598425197,
                    "duration": 0.0911458333333357
                },
                {
                    "name": "A#5",
                    "midi": 82,
                    "time": 57.6458333333334,
                    "velocity": 0.6299212598425197,
                    "duration": 0.0859375
                },
                {
                    "name": "E2",
                    "midi": 40,
                    "time": 57.91927083333341,
                    "velocity": 0.6299212598425197,
                    "duration": 0.046875
                },
                {
                    "name": "G2",
                    "midi": 43,
                    "time": 57.91927083333341,
                    "velocity": 0.6299212598425197,
                    "duration": 0.046875
                },
                {
                    "name": "B2",
                    "midi": 47,
                    "time": 57.91927083333341,
                    "velocity": 0.6299212598425197,
                    "duration": 0.046875
                },
                {
                    "name": "E3",
                    "midi": 52,
                    "time": 57.91927083333341,
                    "velocity": 0.6299212598425197,
                    "duration": 0.0416666666666643
                },
                {
                    "name": "A#4",
                    "midi": 70,
                    "time": 57.91927083333341,
                    "velocity": 0.6299212598425197,
                    "duration": 0.1432291666666643
                },
                {
                    "name": "C#5",
                    "midi": 73,
                    "time": 57.91927083333341,
                    "velocity": 0.6299212598425197,
                    "duration": 0.078125
                },
                {
                    "name": "E5",
                    "midi": 76,
                    "time": 57.91927083333341,
                    "velocity": 0.6299212598425197,
                    "duration": 0.0416666666666643
                },
                {
                    "name": "G5",
                    "midi": 79,
                    "time": 57.91927083333341,
                    "velocity": 0.6299212598425197,
                    "duration": 0.046875
                },
                {
                    "name": "A#5",
                    "midi": 82,
                    "time": 57.91927083333341,
                    "velocity": 0.6299212598425197,
                    "duration": 0.078125
                },
                {
                    "name": "E2",
                    "midi": 40,
                    "time": 58.04687500000007,
                    "velocity": 0.6299212598425197,
                    "duration": 0.1197916666666714
                },
                {
                    "name": "G2",
                    "midi": 43,
                    "time": 58.04687500000007,
                    "velocity": 0.6299212598425197,
                    "duration": 0.1197916666666714
                },
                {
                    "name": "B2",
                    "midi": 47,
                    "time": 58.04687500000007,
                    "velocity": 0.6299212598425197,
                    "duration": 0.1197916666666714
                },
                {
                    "name": "E3",
                    "midi": 52,
                    "time": 58.04687500000007,
                    "velocity": 0.6299212598425197,
                    "duration": 0.1197916666666714
                },
                {
                    "name": "C5",
                    "midi": 72,
                    "time": 58.04687500000007,
                    "velocity": 0.6299212598425197,
                    "duration": 0.0833333333333357
                },
                {
                    "name": "E5",
                    "midi": 76,
                    "time": 58.04687500000007,
                    "velocity": 0.6299212598425197,
                    "duration": 0.0885416666666714
                },
                {
                    "name": "G5",
                    "midi": 79,
                    "time": 58.04687500000007,
                    "velocity": 0.6299212598425197,
                    "duration": 0.0885416666666714
                },
                {
                    "name": "C6",
                    "midi": 84,
                    "time": 58.04687500000007,
                    "velocity": 0.6299212598425197,
                    "duration": 0.0885416666666714
                },
                {
                    "name": "E2",
                    "midi": 40,
                    "time": 58.33072916666674,
                    "velocity": 0.6299212598425197,
                    "duration": 0.109375
                },
                {
                    "name": "G2",
                    "midi": 43,
                    "time": 58.33072916666674,
                    "velocity": 0.6299212598425197,
                    "duration": 0.109375
                },
                {
                    "name": "B2",
                    "midi": 47,
                    "time": 58.33072916666674,
                    "velocity": 0.6299212598425197,
                    "duration": 0.109375
                },
                {
                    "name": "E3",
                    "midi": 52,
                    "time": 58.33072916666674,
                    "velocity": 0.6299212598425197,
                    "duration": 0.109375
                },
                {
                    "name": "A#4",
                    "midi": 70,
                    "time": 58.33072916666674,
                    "velocity": 0.6299212598425197,
                    "duration": 0.109375
                },
                {
                    "name": "E5",
                    "midi": 76,
                    "time": 58.33072916666674,
                    "velocity": 0.6299212598425197,
                    "duration": 0.109375
                },
                {
                    "name": "G5",
                    "midi": 79,
                    "time": 58.33072916666674,
                    "velocity": 0.6299212598425197,
                    "duration": 0.109375
                },
                {
                    "name": "A#5",
                    "midi": 82,
                    "time": 58.33072916666674,
                    "velocity": 0.6299212598425197,
                    "duration": 0.109375
                },
                {
                    "name": "F2",
                    "midi": 41,
                    "time": 58.45833333333341,
                    "velocity": 0.6299212598425197,
                    "duration": 0.1145833333333357
                },
                {
                    "name": "F3",
                    "midi": 53,
                    "time": 58.45833333333341,
                    "velocity": 0.6299212598425197,
                    "duration": 1.4791666666666785
                },
                {
                    "name": "D5",
                    "midi": 74,
                    "time": 58.45833333333341,
                    "velocity": 0.6299212598425197,
                    "duration": 0.140625
                },
                {
                    "name": "D6",
                    "midi": 86,
                    "time": 58.45833333333341,
                    "velocity": 0.6299212598425197,
                    "duration": 0.140625
                },
                {
                    "name": "G#5",
                    "midi": 80,
                    "time": 58.46354166666674,
                    "velocity": 0.6299212598425197,
                    "duration": 0.1354166666666643
                },
                {
                    "name": "C5",
                    "midi": 72,
                    "time": 58.72135416666674,
                    "velocity": 0.6299212598425197,
                    "duration": 0.0807291666666714
                },
                {
                    "name": "G#5",
                    "midi": 80,
                    "time": 58.72135416666674,
                    "velocity": 0.6299212598425197,
                    "duration": 0.049479166666671404
                },
                {
                    "name": "C6",
                    "midi": 84,
                    "time": 58.72135416666674,
                    "velocity": 0.6299212598425197,
                    "duration": 0.0807291666666714
                },
                {
                    "name": "G#3",
                    "midi": 56,
                    "time": 58.856770833333414,
                    "velocity": 0.6299212598425197,
                    "duration": 0.1145833333333357
                },
                {
                    "name": "A#3",
                    "midi": 58,
                    "time": 58.856770833333414,
                    "velocity": 0.6299212598425197,
                    "duration": 0.1145833333333357
                },
                {
                    "name": "D4",
                    "midi": 62,
                    "time": 58.856770833333414,
                    "velocity": 0.6299212598425197,
                    "duration": 0.1145833333333357
                },
                {
                    "name": "F4",
                    "midi": 65,
                    "time": 58.856770833333414,
                    "velocity": 0.6299212598425197,
                    "duration": 0.1145833333333357
                },
                {
                    "name": "A#4",
                    "midi": 70,
                    "time": 58.856770833333414,
                    "velocity": 0.6299212598425197,
                    "duration": 0.0833333333333357
                },
                {
                    "name": "G#5",
                    "midi": 80,
                    "time": 58.856770833333414,
                    "velocity": 0.6299212598425197,
                    "duration": 0.0833333333333357
                },
                {
                    "name": "A#5",
                    "midi": 82,
                    "time": 58.856770833333414,
                    "velocity": 0.6299212598425197,
                    "duration": 0.0833333333333357
                },
                {
                    "name": "C5",
                    "midi": 72,
                    "time": 59.12760416666675,
                    "velocity": 0.6299212598425197,
                    "duration": 0.28125
                },
                {
                    "name": "G#5",
                    "midi": 80,
                    "time": 59.12760416666675,
                    "velocity": 0.6299212598425197,
                    "duration": 0.28125
                },
                {
                    "name": "C6",
                    "midi": 84,
                    "time": 59.12760416666675,
                    "velocity": 0.6299212598425197,
                    "duration": 0.28125
                },
                {
                    "name": "A#1",
                    "midi": 34,
                    "time": 59.255208333333414,
                    "velocity": 0.6299212598425197,
                    "duration": 0.1171875
                },
                {
                    "name": "G#5",
                    "midi": 80,
                    "time": 59.523437500000085,
                    "velocity": 0.6299212598425197,
                    "duration": 0.2734375
                },
                {
                    "name": "A#5",
                    "midi": 82,
                    "time": 59.523437500000085,
                    "velocity": 0.6299212598425197,
                    "duration": 0.2734375
                },
                {
                    "name": "F6",
                    "midi": 89,
                    "time": 59.523437500000085,
                    "velocity": 0.6299212598425197,
                    "duration": 0.2734375
                },
                {
                    "name": "G#6",
                    "midi": 92,
                    "time": 59.523437500000085,
                    "velocity": 0.6299212598425197,
                    "duration": 0.2734375
                },
                {
                    "name": "G#3",
                    "midi": 56,
                    "time": 59.65104166666675,
                    "velocity": 0.6299212598425197,
                    "duration": 0.1145833333333357
                },
                {
                    "name": "A#3",
                    "midi": 58,
                    "time": 59.65104166666675,
                    "velocity": 0.6299212598425197,
                    "duration": 0.1145833333333357
                },
                {
                    "name": "D4",
                    "midi": 62,
                    "time": 59.65104166666675,
                    "velocity": 0.6299212598425197,
                    "duration": 0.1145833333333357
                },
                {
                    "name": "F4",
                    "midi": 65,
                    "time": 59.65104166666675,
                    "velocity": 0.6299212598425197,
                    "duration": 0.1145833333333357
                },
                {
                    "name": "F2",
                    "midi": 41,
                    "time": 59.92447916666675,
                    "velocity": 0.6299212598425197,
                    "duration": 0.1171875
                },
                {
                    "name": "C5",
                    "midi": 72,
                    "time": 59.92447916666675,
                    "velocity": 0.6299212598425197,
                    "duration": 0.1223958333333357
                },
                {
                    "name": "C6",
                    "midi": 84,
                    "time": 59.92447916666675,
                    "velocity": 0.6299212598425197,
                    "duration": 0.1223958333333357
                },
                {
                    "name": "G#3",
                    "midi": 56,
                    "time": 60.062500000000085,
                    "velocity": 0.6299212598425197,
                    "duration": 1.554687500000007
                },
                {
                    "name": "D5",
                    "midi": 74,
                    "time": 60.062500000000085,
                    "velocity": 0.6299212598425197,
                    "duration": 0.1536458333333357
                },
                {
                    "name": "A#5",
                    "midi": 82,
                    "time": 60.062500000000085,
                    "velocity": 0.6299212598425197,
                    "duration": 0.1536458333333357
                },
                {
                    "name": "D6",
                    "midi": 86,
                    "time": 60.062500000000085,
                    "velocity": 0.6299212598425197,
                    "duration": 0.1536458333333357
                },
                {
                    "name": "D#5",
                    "midi": 75,
                    "time": 60.33072916666676,
                    "velocity": 0.6299212598425197,
                    "duration": 0.1171875
                },
                {
                    "name": "D#6",
                    "midi": 87,
                    "time": 60.33072916666676,
                    "velocity": 0.6299212598425197,
                    "duration": 0.1171875
                },
                {
                    "name": "A#3",
                    "midi": 58,
                    "time": 60.47395833333342,
                    "velocity": 0.6299212598425197,
                    "duration": 0.109375
                },
                {
                    "name": "F4",
                    "midi": 65,
                    "time": 60.47395833333342,
                    "velocity": 0.6299212598425197,
                    "duration": 0.109375
                },
                {
                    "name": "C5",
                    "midi": 72,
                    "time": 60.47395833333342,
                    "velocity": 0.6299212598425197,
                    "duration": 0.109375
                },
                {
                    "name": "G#5",
                    "midi": 80,
                    "time": 60.47395833333342,
                    "velocity": 0.6299212598425197,
                    "duration": 0.109375
                },
                {
                    "name": "C6",
                    "midi": 84,
                    "time": 60.47395833333342,
                    "velocity": 0.6299212598425197,
                    "duration": 0.109375
                },
                {
                    "name": "D4",
                    "midi": 62,
                    "time": 60.47916666666676,
                    "velocity": 0.6299212598425197,
                    "duration": 0.109375
                },
                {
                    "name": "D5",
                    "midi": 74,
                    "time": 60.74739583333342,
                    "velocity": 0.6299212598425197,
                    "duration": 0.078125
                },
                {
                    "name": "G#5",
                    "midi": 80,
                    "time": 60.74739583333342,
                    "velocity": 0.6299212598425197,
                    "duration": 0.0546875
                },
                {
                    "name": "D6",
                    "midi": 86,
                    "time": 60.74739583333342,
                    "velocity": 0.6299212598425197,
                    "duration": 0.078125
                },
                {
                    "name": "A#1",
                    "midi": 34,
                    "time": 60.875000000000085,
                    "velocity": 0.6299212598425197,
                    "duration": 0.125
                },
                {
                    "name": "A#4",
                    "midi": 70,
                    "time": 60.875000000000085,
                    "velocity": 0.6299212598425197,
                    "duration": 0.0859375
                },
                {
                    "name": "G#5",
                    "midi": 80,
                    "time": 60.875000000000085,
                    "velocity": 0.6299212598425197,
                    "duration": 0.0859375
                },
                {
                    "name": "A#5",
                    "midi": 82,
                    "time": 60.88020833333342,
                    "velocity": 0.6299212598425197,
                    "duration": 0.0807291666666643
                },
                {
                    "name": "B4",
                    "midi": 71,
                    "time": 61.14583333333342,
                    "velocity": 0.6299212598425197,
                    "duration": 0.1145833333333357
                },
                {
                    "name": "G#5",
                    "midi": 80,
                    "time": 61.14583333333342,
                    "velocity": 0.6299212598425197,
                    "duration": 0.0546875
                },
                {
                    "name": "B5",
                    "midi": 83,
                    "time": 61.14583333333342,
                    "velocity": 0.6299212598425197,
                    "duration": 0.1536458333333357
                },
                {
                    "name": "A#3",
                    "midi": 58,
                    "time": 61.28645833333342,
                    "velocity": 0.6299212598425197,
                    "duration": 0.1041666666666714
                },
                {
                    "name": "D4",
                    "midi": 62,
                    "time": 61.28645833333342,
                    "velocity": 0.6299212598425197,
                    "duration": 0.1041666666666714
                },
                {
                    "name": "F4",
                    "midi": 65,
                    "time": 61.28645833333342,
                    "velocity": 0.6299212598425197,
                    "duration": 0.1093750000000071
                },
                {
                    "name": "C5",
                    "midi": 72,
                    "time": 61.28645833333342,
                    "velocity": 0.6299212598425197,
                    "duration": 0.1093750000000071
                },
                {
                    "name": "G#5",
                    "midi": 80,
                    "time": 61.28645833333342,
                    "velocity": 0.6299212598425197,
                    "duration": 0.1093750000000071
                },
                {
                    "name": "C6",
                    "midi": 84,
                    "time": 61.28645833333342,
                    "velocity": 0.6299212598425197,
                    "duration": 0.1041666666666714
                },
                {
                    "name": "D#2",
                    "midi": 39,
                    "time": 61.54427083333343,
                    "velocity": 0.6299212598425197,
                    "duration": 0.1067708333333357
                },
                {
                    "name": "C#5",
                    "midi": 73,
                    "time": 61.54427083333343,
                    "velocity": 0.6299212598425197,
                    "duration": 0.0729166666666643
                },
                {
                    "name": "G5",
                    "midi": 79,
                    "time": 61.54427083333343,
                    "velocity": 0.6299212598425197,
                    "duration": 0.046875
                },
                {
                    "name": "C#6",
                    "midi": 85,
                    "time": 61.572916666666764,
                    "velocity": 0.6299212598425197,
                    "duration": 0.0494791666666643
                },
                {
                    "name": "A#2",
                    "midi": 46,
                    "time": 61.66927083333343,
                    "velocity": 0.6299212598425197,
                    "duration": 0.1770833333333357
                },
                {
                    "name": "G3",
                    "midi": 55,
                    "time": 61.66927083333343,
                    "velocity": 0.6299212598425197,
                    "duration": 1.3984375
                },
                {
                    "name": "D5",
                    "midi": 74,
                    "time": 61.66927083333343,
                    "velocity": 0.6299212598425197,
                    "duration": 0.0807291666666714
                },
                {
                    "name": "G5",
                    "midi": 79,
                    "time": 61.66927083333343,
                    "velocity": 0.6299212598425197,
                    "duration": 0.0807291666666714
                },
                {
                    "name": "D6",
                    "midi": 86,
                    "time": 61.66927083333343,
                    "velocity": 0.6299212598425197,
                    "duration": 0.0807291666666714
                },
                {
                    "name": "A#5",
                    "midi": 82,
                    "time": 61.705729166666764,
                    "velocity": 0.6299212598425197,
                    "duration": 0.046875
                },
                {
                    "name": "C5",
                    "midi": 72,
                    "time": 61.932291666666764,
                    "velocity": 0.6299212598425197,
                    "duration": 0.109375
                },
                {
                    "name": "G5",
                    "midi": 79,
                    "time": 61.932291666666764,
                    "velocity": 0.6299212598425197,
                    "duration": 0.0546875
                },
                {
                    "name": "C6",
                    "midi": 84,
                    "time": 61.932291666666764,
                    "velocity": 0.6299212598425197,
                    "duration": 0.1145833333333357
                },
                {
                    "name": "A#3",
                    "midi": 58,
                    "time": 62.059895833333435,
                    "velocity": 0.6299212598425197,
                    "duration": 0.1041666666666643
                },
                {
                    "name": "D#4",
                    "midi": 63,
                    "time": 62.059895833333435,
                    "velocity": 0.6299212598425197,
                    "duration": 0.109375
                },
                {
                    "name": "G4",
                    "midi": 67,
                    "time": 62.059895833333435,
                    "velocity": 0.6299212598425197,
                    "duration": 0.1041666666666643
                },
                {
                    "name": "A#4",
                    "midi": 70,
                    "time": 62.059895833333435,
                    "velocity": 0.6299212598425197,
                    "duration": 0.109375
                },
                {
                    "name": "G5",
                    "midi": 79,
                    "time": 62.059895833333435,
                    "velocity": 0.6299212598425197,
                    "duration": 0.109375
                },
                {
                    "name": "A#5",
                    "midi": 82,
                    "time": 62.059895833333435,
                    "velocity": 0.6299212598425197,
                    "duration": 0.109375
                },
                {
                    "name": "C5",
                    "midi": 72,
                    "time": 62.31510416666677,
                    "velocity": 0.6299212598425197,
                    "duration": 0.6484374999999929
                },
                {
                    "name": "G5",
                    "midi": 79,
                    "time": 62.31510416666677,
                    "velocity": 0.6299212598425197,
                    "duration": 0.6484374999999929
                },
                {
                    "name": "C6",
                    "midi": 84,
                    "time": 62.31510416666677,
                    "velocity": 0.6299212598425197,
                    "duration": 0.3463541666666643
                },
                {
                    "name": "A#1",
                    "midi": 34,
                    "time": 62.450520833333435,
                    "velocity": 0.6299212598425197,
                    "duration": 0.1067708333333357
                },
                {
                    "name": "A#5",
                    "midi": 82,
                    "time": 62.7109375000001,
                    "velocity": 0.6299212598425197,
                    "duration": 0.2526041666666643
                },
                {
                    "name": "A#3",
                    "midi": 58,
                    "time": 62.846354166666764,
                    "velocity": 0.6299212598425197,
                    "duration": 0.0807291666666643
                },
                {
                    "name": "D#4",
                    "midi": 63,
                    "time": 62.846354166666764,
                    "velocity": 0.6299212598425197,
                    "duration": 0.0807291666666643
                },
                {
                    "name": "G4",
                    "midi": 67,
                    "time": 62.846354166666764,
                    "velocity": 0.6299212598425197,
                    "duration": 0.0807291666666643
                },
                {
                    "name": "A#5",
                    "midi": 82,
                    "time": 63.12500000000009,
                    "velocity": 0.6299212598425197,
                    "duration": 0.2447916666666643
                },
                {
                    "name": "A#2",
                    "midi": 46,
                    "time": 63.25781250000009,
                    "velocity": 0.6299212598425197,
                    "duration": 0.28125
                },
                {
                    "name": "G3",
                    "midi": 55,
                    "time": 63.25781250000009,
                    "velocity": 0.6299212598425197,
                    "duration": 0.7526041666666643
                },
                {
                    "name": "D5",
                    "midi": 74,
                    "time": 63.25781250000009,
                    "velocity": 0.6299212598425197,
                    "duration": 0.1119791666666643
                },
                {
                    "name": "G5",
                    "midi": 79,
                    "time": 63.25781250000009,
                    "velocity": 0.6299212598425197,
                    "duration": 0.1119791666666643
                },
                {
                    "name": "D6",
                    "midi": 86,
                    "time": 63.25781250000009,
                    "velocity": 0.6299212598425197,
                    "duration": 0.1119791666666643
                },
                {
                    "name": "D#5",
                    "midi": 75,
                    "time": 63.52604166666676,
                    "velocity": 0.6299212598425197,
                    "duration": 0.0885416666666714
                },
                {
                    "name": "G5",
                    "midi": 79,
                    "time": 63.52604166666676,
                    "velocity": 0.6299212598425197,
                    "duration": 0.049479166666671404
                },
                {
                    "name": "A#5",
                    "midi": 82,
                    "time": 63.52604166666676,
                    "velocity": 0.6299212598425197,
                    "duration": 0.049479166666671404
                },
                {
                    "name": "D#6",
                    "midi": 87,
                    "time": 63.52604166666676,
                    "velocity": 0.6299212598425197,
                    "duration": 0.0885416666666714
                },
                {
                    "name": "A#3",
                    "midi": 58,
                    "time": 63.66927083333343,
                    "velocity": 0.6299212598425197,
                    "duration": 0.0807291666666643
                },
                {
                    "name": "D#4",
                    "midi": 63,
                    "time": 63.66927083333343,
                    "velocity": 0.6299212598425197,
                    "duration": 0.0807291666666643
                },
                {
                    "name": "G4",
                    "midi": 67,
                    "time": 63.66927083333343,
                    "velocity": 0.6299212598425197,
                    "duration": 0.0807291666666643
                },
                {
                    "name": "C5",
                    "midi": 72,
                    "time": 63.66927083333343,
                    "velocity": 0.6299212598425197,
                    "duration": 0.0807291666666643
                },
                {
                    "name": "G5",
                    "midi": 79,
                    "time": 63.66927083333343,
                    "velocity": 0.6299212598425197,
                    "duration": 0.0807291666666643
                },
                {
                    "name": "A#5",
                    "midi": 82,
                    "time": 63.66927083333343,
                    "velocity": 0.6299212598425197,
                    "duration": 0.0807291666666643
                },
                {
                    "name": "C6",
                    "midi": 84,
                    "time": 63.66927083333343,
                    "velocity": 0.6299212598425197,
                    "duration": 0.0807291666666643
                },
                {
                    "name": "D5",
                    "midi": 74,
                    "time": 63.93229166666676,
                    "velocity": 0.6299212598425197,
                    "duration": 0.078125
                },
                {
                    "name": "G5",
                    "midi": 79,
                    "time": 63.93750000000009,
                    "velocity": 0.6299212598425197,
                    "duration": 0.0494791666666643
                },
                {
                    "name": "D6",
                    "midi": 86,
                    "time": 63.93750000000009,
                    "velocity": 0.6299212598425197,
                    "duration": 0.0729166666666643
                },
                {
                    "name": "A#2",
                    "midi": 46,
                    "time": 64.06510416666676,
                    "velocity": 0.6299212598425197,
                    "duration": 0.2786458333333286
                },
                {
                    "name": "F#3",
                    "midi": 54,
                    "time": 64.07031250000009,
                    "velocity": 0.6299212598425197,
                    "duration": 0.7161458333333286
                },
                {
                    "name": "A#4",
                    "midi": 70,
                    "time": 64.07031250000009,
                    "velocity": 0.6299212598425197,
                    "duration": 0.0807291666666714
                },
                {
                    "name": "A#5",
                    "midi": 82,
                    "time": 64.07031250000009,
                    "velocity": 0.6299212598425197,
                    "duration": 0.0807291666666714
                },
                {
                    "name": "B4",
                    "midi": 71,
                    "time": 64.33333333333343,
                    "velocity": 0.6299212598425197,
                    "duration": 0.11979166666665719
                },
                {
                    "name": "G5",
                    "midi": 79,
                    "time": 64.33333333333343,
                    "velocity": 0.6299212598425197,
                    "duration": 0.052083333333328596
                },
                {
                    "name": "B5",
                    "midi": 83,
                    "time": 64.33854166666676,
                    "velocity": 0.6299212598425197,
                    "duration": 0.1145833333333286
                },
                {
                    "name": "C4",
                    "midi": 60,
                    "time": 64.46614583333341,
                    "velocity": 0.6299212598425197,
                    "duration": 0.1145833333333286
                },
                {
                    "name": "D#4",
                    "midi": 63,
                    "time": 64.46614583333341,
                    "velocity": 0.6299212598425197,
                    "duration": 0.1145833333333286
                },
                {
                    "name": "F#4",
                    "midi": 66,
                    "time": 64.46614583333341,
                    "velocity": 0.6299212598425197,
                    "duration": 0.1145833333333286
                },
                {
                    "name": "C5",
                    "midi": 72,
                    "time": 64.46614583333341,
                    "velocity": 0.6299212598425197,
                    "duration": 0.1145833333333286
                },
                {
                    "name": "A4",
                    "midi": 69,
                    "time": 64.47135416666674,
                    "velocity": 0.6299212598425197,
                    "duration": 0.109375
                },
                {
                    "name": "C6",
                    "midi": 84,
                    "time": 64.47135416666674,
                    "velocity": 0.6299212598425197,
                    "duration": 0.109375
                },
                {
                    "name": "C#5",
                    "midi": 73,
                    "time": 64.73958333333341,
                    "velocity": 0.6299212598425197,
                    "duration": 0.08072916666665719
                },
                {
                    "name": "G#5",
                    "midi": 80,
                    "time": 64.74479166666674,
                    "velocity": 0.6299212598425197,
                    "duration": 0.046875
                },
                {
                    "name": "C#6",
                    "midi": 85,
                    "time": 64.74479166666674,
                    "velocity": 0.6299212598425197,
                    "duration": 0.0755208333333286
                },
                {
                    "name": "F3",
                    "midi": 53,
                    "time": 64.8723958333334,
                    "velocity": 0.6299212598425197,
                    "duration": 1.4921874999999574
                },
                {
                    "name": "D5",
                    "midi": 74,
                    "time": 64.8723958333334,
                    "velocity": 0.6299212598425197,
                    "duration": 0.11458333333334281
                },
                {
                    "name": "D6",
                    "midi": 86,
                    "time": 64.8723958333334,
                    "velocity": 0.6299212598425197,
                    "duration": 0.11458333333334281
                },
                {
                    "name": "G#5",
                    "midi": 80,
                    "time": 64.87500000000007,
                    "velocity": 0.6299212598425197,
                    "duration": 0.1119791666666714
                },
                {
                    "name": "G#2",
                    "midi": 44,
                    "time": 64.90104166666674,
                    "velocity": 0.6299212598425197,
                    "duration": 0.2369791666666572
                },
                {
                    "name": "C5",
                    "midi": 72,
                    "time": 65.13281250000007,
                    "velocity": 0.6299212598425197,
                    "duration": 0.0729166666666714
                },
                {
                    "name": "G#5",
                    "midi": 80,
                    "time": 65.13281250000007,
                    "velocity": 0.6299212598425197,
                    "duration": 0.049479166666671404
                },
                {
                    "name": "C6",
                    "midi": 84,
                    "time": 65.13281250000007,
                    "velocity": 0.6299212598425197,
                    "duration": 0.0859375
                },
                {
                    "name": "G#3",
                    "midi": 56,
                    "time": 65.26822916666674,
                    "velocity": 0.6299212598425197,
                    "duration": 0.1067708333333286
                },
                {
                    "name": "A#3",
                    "midi": 58,
                    "time": 65.26822916666674,
                    "velocity": 0.6299212598425197,
                    "duration": 0.1067708333333286
                },
                {
                    "name": "D4",
                    "midi": 62,
                    "time": 65.26822916666674,
                    "velocity": 0.6299212598425197,
                    "duration": 0.1067708333333286
                },
                {
                    "name": "F4",
                    "midi": 65,
                    "time": 65.26822916666674,
                    "velocity": 0.6299212598425197,
                    "duration": 0.11197916666665719
                },
                {
                    "name": "D5",
                    "midi": 74,
                    "time": 65.26822916666674,
                    "velocity": 0.6299212598425197,
                    "duration": 0.078125
                },
                {
                    "name": "G#4",
                    "midi": 68,
                    "time": 65.27343750000007,
                    "velocity": 0.6299212598425197,
                    "duration": 0.0729166666666714
                },
                {
                    "name": "G#5",
                    "midi": 80,
                    "time": 65.27343750000007,
                    "velocity": 0.6299212598425197,
                    "duration": 0.0729166666666714
                },
                {
                    "name": "G4",
                    "midi": 67,
                    "time": 65.53385416666673,
                    "velocity": 0.6299212598425197,
                    "duration": 0.109375
                },
                {
                    "name": "C#5",
                    "midi": 73,
                    "time": 65.53385416666673,
                    "velocity": 0.6299212598425197,
                    "duration": 0.0807291666666714
                },
                {
                    "name": "G5",
                    "midi": 79,
                    "time": 65.53385416666673,
                    "velocity": 0.6299212598425197,
                    "duration": 0.1145833333333286
                },
                {
                    "name": "A#1",
                    "midi": 34,
                    "time": 65.65364583333339,
                    "velocity": 0.6299212598425197,
                    "duration": 0.109375
                },
                {
                    "name": "F4",
                    "midi": 65,
                    "time": 65.65885416666671,
                    "velocity": 0.6299212598425197,
                    "duration": 0.1432291666666714
                },
                {
                    "name": "D5",
                    "midi": 74,
                    "time": 65.65885416666671,
                    "velocity": 0.6299212598425197,
                    "duration": 0.1484375
                },
                {
                    "name": "F5",
                    "midi": 77,
                    "time": 65.65885416666671,
                    "velocity": 0.6299212598425197,
                    "duration": 0.1484375
                },
                {
                    "name": "D#5",
                    "midi": 75,
                    "time": 65.92187500000004,
                    "velocity": 0.6299212598425197,
                    "duration": 0.2552083333333286
                },
                {
                    "name": "G#5",
                    "midi": 80,
                    "time": 65.92708333333337,
                    "velocity": 0.6299212598425197,
                    "duration": 0.2447916666666714
                },
                {
                    "name": "C6",
                    "midi": 84,
                    "time": 65.92708333333337,
                    "velocity": 0.6299212598425197,
                    "duration": 0.2447916666666714
                },
                {
                    "name": "D#6",
                    "midi": 87,
                    "time": 65.92708333333337,
                    "velocity": 0.6299212598425197,
                    "duration": 0.25
                },
                {
                    "name": "G#3",
                    "midi": 56,
                    "time": 66.06250000000004,
                    "velocity": 0.6299212598425197,
                    "duration": 0.109375
                },
                {
                    "name": "A#3",
                    "midi": 58,
                    "time": 66.06250000000004,
                    "velocity": 0.6299212598425197,
                    "duration": 0.109375
                },
                {
                    "name": "D4",
                    "midi": 62,
                    "time": 66.06250000000004,
                    "velocity": 0.6299212598425197,
                    "duration": 0.109375
                },
                {
                    "name": "F4",
                    "midi": 65,
                    "time": 66.06510416666671,
                    "velocity": 0.6299212598425197,
                    "duration": 0.1067708333333286
                },
                {
                    "name": "C5",
                    "midi": 72,
                    "time": 66.3151041666667,
                    "velocity": 0.6299212598425197,
                    "duration": 0.0911458333333286
                },
                {
                    "name": "C6",
                    "midi": 84,
                    "time": 66.32031250000003,
                    "velocity": 0.6299212598425197,
                    "duration": 0.0859375
                },
                {
                    "name": "F2",
                    "midi": 41,
                    "time": 66.46093750000003,
                    "velocity": 0.6299212598425197,
                    "duration": 0.1822916666666572
                },
                {
                    "name": "D3",
                    "midi": 50,
                    "time": 66.46093750000003,
                    "velocity": 0.6299212598425197,
                    "duration": 0.479166666666643
                },
                {
                    "name": "D5",
                    "midi": 74,
                    "time": 66.46093750000003,
                    "velocity": 0.6299212598425197,
                    "duration": 0.0911458333333286
                },
                {
                    "name": "G#5",
                    "midi": 80,
                    "time": 66.46614583333336,
                    "velocity": 0.6299212598425197,
                    "duration": 0.0859375
                },
                {
                    "name": "D6",
                    "midi": 86,
                    "time": 66.46614583333336,
                    "velocity": 0.6299212598425197,
                    "duration": 0.0807291666666714
                },
                {
                    "name": "A#4",
                    "midi": 70,
                    "time": 66.73697916666669,
                    "velocity": 0.6299212598425197,
                    "duration": 0.08072916666665719
                },
                {
                    "name": "G#5",
                    "midi": 80,
                    "time": 66.74218750000001,
                    "velocity": 0.6299212598425197,
                    "duration": 0.046875
                },
                {
                    "name": "A#5",
                    "midi": 82,
                    "time": 66.74218750000001,
                    "velocity": 0.6299212598425197,
                    "duration": 0.0755208333333286
                },
                {
                    "name": "G#3",
                    "midi": 56,
                    "time": 66.86979166666667,
                    "velocity": 0.6299212598425197,
                    "duration": 0.0755208333333286
                },
                {
                    "name": "A#3",
                    "midi": 58,
                    "time": 66.86979166666667,
                    "velocity": 0.6299212598425197,
                    "duration": 0.0755208333333286
                },
                {
                    "name": "D4",
                    "midi": 62,
                    "time": 66.86979166666667,
                    "velocity": 0.6299212598425197,
                    "duration": 0.0755208333333286
                },
                {
                    "name": "F4",
                    "midi": 65,
                    "time": 66.86979166666667,
                    "velocity": 0.6299212598425197,
                    "duration": 0.0755208333333286
                },
                {
                    "name": "B4",
                    "midi": 71,
                    "time": 66.86979166666667,
                    "velocity": 0.6299212598425197,
                    "duration": 0.0755208333333286
                },
                {
                    "name": "B5",
                    "midi": 83,
                    "time": 66.86979166666667,
                    "velocity": 0.6299212598425197,
                    "duration": 0.0755208333333286
                },
                {
                    "name": "G#5",
                    "midi": 80,
                    "time": 66.875,
                    "velocity": 0.6299212598425197,
                    "duration": 0.0703125
                },
                {
                    "name": "C5",
                    "midi": 72,
                    "time": 67.140625,
                    "velocity": 0.6299212598425197,
                    "duration": 0.2135416666666714
                },
                {
                    "name": "G#5",
                    "midi": 80,
                    "time": 67.14583333333333,
                    "velocity": 0.6299212598425197,
                    "duration": 0.2083333333333428
                },
                {
                    "name": "C6",
                    "midi": 84,
                    "time": 67.14583333333333,
                    "velocity": 0.6299212598425197,
                    "duration": 0.2447916666666714
                },
                {
                    "name": "A#2",
                    "midi": 46,
                    "time": 67.28125,
                    "velocity": 0.6299212598425197,
                    "duration": 0.0729166666666714
                },
                {
                    "name": "A#3",
                    "midi": 58,
                    "time": 67.28125,
                    "velocity": 0.6299212598425197,
                    "duration": 0.28125
                },
                {
                    "name": "A#4",
                    "midi": 70,
                    "time": 67.54947916666667,
                    "velocity": 0.6299212598425197,
                    "duration": 0.078125
                },
                {
                    "name": "A#5",
                    "midi": 82,
                    "time": 67.54947916666667,
                    "velocity": 0.6299212598425197,
                    "duration": 0.078125
                },
                {
                    "name": "G#3",
                    "midi": 56,
                    "time": 67.6796875,
                    "velocity": 0.6299212598425197,
                    "duration": 0.346354166666643
                },
                {
                    "name": "A#3",
                    "midi": 58,
                    "time": 67.6796875,
                    "velocity": 0.6299212598425197,
                    "duration": 0.1145833333333286
                },
                {
                    "name": "C5",
                    "midi": 72,
                    "time": 67.6796875,
                    "velocity": 0.6299212598425197,
                    "duration": 0.1510416666666572
                },
                {
                    "name": "D4",
                    "midi": 62,
                    "time": 67.68489583333333,
                    "velocity": 0.6299212598425197,
                    "duration": 0.1041666666666714
                },
                {
                    "name": "F4",
                    "midi": 65,
                    "time": 67.68489583333333,
                    "velocity": 0.6299212598425197,
                    "duration": 0.109375
                },
                {
                    "name": "G#5",
                    "midi": 80,
                    "time": 67.68489583333333,
                    "velocity": 0.6299212598425197,
                    "duration": 0.1458333333333286
                },
                {
                    "name": "C6",
                    "midi": 84,
                    "time": 67.68489583333333,
                    "velocity": 0.6299212598425197,
                    "duration": 0.1458333333333286
                },
                {
                    "name": "D#2",
                    "midi": 39,
                    "time": 67.94010416666666,
                    "velocity": 0.6299212598425197,
                    "duration": 0.24218749999997158
                },
                {
                    "name": "A#4",
                    "midi": 70,
                    "time": 67.94531249999999,
                    "velocity": 0.6299212598425197,
                    "duration": 0.08593749999998579
                },
                {
                    "name": "A#5",
                    "midi": 82,
                    "time": 67.94531249999999,
                    "velocity": 0.6299212598425197,
                    "duration": 0.052083333333328596
                },
                {
                    "name": "A#2",
                    "midi": 46,
                    "time": 68.07812499999997,
                    "velocity": 0.6299212598425197,
                    "duration": 0.10416666666665719
                },
                {
                    "name": "G3",
                    "midi": 55,
                    "time": 68.07812499999997,
                    "velocity": 0.6299212598425197,
                    "duration": 0.10937499999998579
                },
                {
                    "name": "D#5",
                    "midi": 75,
                    "time": 68.07812499999997,
                    "velocity": 0.6299212598425197,
                    "duration": 0.10937499999998579
                },
                {
                    "name": "G5",
                    "midi": 79,
                    "time": 68.07812499999997,
                    "velocity": 0.6299212598425197,
                    "duration": 0.10937499999998579
                },
                {
                    "name": "A#5",
                    "midi": 82,
                    "time": 68.0833333333333,
                    "velocity": 0.6299212598425197,
                    "duration": 0.10416666666665719
                },
                {
                    "name": "D#6",
                    "midi": 87,
                    "time": 68.0833333333333,
                    "velocity": 0.6299212598425197,
                    "duration": 0.10416666666665719
                },
                {
                    "name": "G2",
                    "midi": 43,
                    "time": 68.34374999999996,
                    "velocity": 0.6299212598425197,
                    "duration": 0.3046875
                },
                {
                    "name": "G3",
                    "midi": 55,
                    "time": 68.34374999999996,
                    "velocity": 0.6299212598425197,
                    "duration": 0.3046875
                },
                {
                    "name": "F#2",
                    "midi": 42,
                    "time": 68.72916666666663,
                    "velocity": 0.6299212598425197,
                    "duration": 0.1145833333333286
                },
                {
                    "name": "F#3",
                    "midi": 54,
                    "time": 68.72916666666663,
                    "velocity": 0.6299212598425197,
                    "duration": 0.11979166666665719
                },
                {
                    "name": "G2",
                    "midi": 43,
                    "time": 68.87499999999996,
                    "velocity": 0.6299212598425197,
                    "duration": 0.1380208333333286
                },
                {
                    "name": "G3",
                    "midi": 55,
                    "time": 68.87499999999996,
                    "velocity": 0.6299212598425197,
                    "duration": 0.1432291666666572
                },
                {
                    "name": "A2",
                    "midi": 45,
                    "time": 69.14062499999994,
                    "velocity": 0.6299212598425197,
                    "duration": 0.28125
                },
                {
                    "name": "A3",
                    "midi": 57,
                    "time": 69.14062499999994,
                    "velocity": 0.6299212598425197,
                    "duration": 0.28125
                },
                {
                    "name": "A2",
                    "midi": 45,
                    "time": 69.54427083333327,
                    "velocity": 0.6299212598425197,
                    "duration": 0.109375
                },
                {
                    "name": "A3",
                    "midi": 57,
                    "time": 69.5494791666666,
                    "velocity": 0.6299212598425197,
                    "duration": 0.1041666666666714
                },
                {
                    "name": "A#2",
                    "midi": 46,
                    "time": 69.67187499999994,
                    "velocity": 0.6299212598425197,
                    "duration": 0.1510416666666572
                },
                {
                    "name": "A#3",
                    "midi": 58,
                    "time": 69.67708333333327,
                    "velocity": 0.6299212598425197,
                    "duration": 0.1458333333333286
                },
                {
                    "name": "A2",
                    "midi": 45,
                    "time": 69.94531249999993,
                    "velocity": 0.6299212598425197,
                    "duration": 0.1067708333333286
                },
                {
                    "name": "A3",
                    "midi": 57,
                    "time": 69.94531249999993,
                    "velocity": 0.6299212598425197,
                    "duration": 0.1067708333333286
                },
                {
                    "name": "A#2",
                    "midi": 46,
                    "time": 70.06770833333326,
                    "velocity": 0.6299212598425197,
                    "duration": 0.1822916666666714
                },
                {
                    "name": "A#3",
                    "midi": 58,
                    "time": 70.06770833333326,
                    "velocity": 0.6299212598425197,
                    "duration": 0.1875
                },
                {
                    "name": "C3",
                    "midi": 48,
                    "time": 70.33593749999993,
                    "velocity": 0.6299212598425197,
                    "duration": 0.2734375
                },
                {
                    "name": "C4",
                    "midi": 60,
                    "time": 70.34114583333326,
                    "velocity": 0.6299212598425197,
                    "duration": 0.2682291666666714
                },
                {
                    "name": "A#2",
                    "midi": 46,
                    "time": 70.73177083333326,
                    "velocity": 0.6299212598425197,
                    "duration": 0.1145833333333286
                },
                {
                    "name": "A#3",
                    "midi": 58,
                    "time": 70.73697916666659,
                    "velocity": 0.6299212598425197,
                    "duration": 0.1145833333333286
                },
                {
                    "name": "G2",
                    "midi": 43,
                    "time": 70.86979166666659,
                    "velocity": 0.6299212598425197,
                    "duration": 0.1458333333333286
                },
                {
                    "name": "G3",
                    "midi": 55,
                    "time": 70.86979166666659,
                    "velocity": 0.6299212598425197,
                    "duration": 0.1510416666666572
                },
                {
                    "name": "F#2",
                    "midi": 42,
                    "time": 71.13541666666657,
                    "velocity": 0.6299212598425197,
                    "duration": 0.1119791666666714
                },
                {
                    "name": "F#3",
                    "midi": 54,
                    "time": 71.13541666666657,
                    "velocity": 0.6299212598425197,
                    "duration": 0.1119791666666714
                },
                {
                    "name": "F2",
                    "midi": 41,
                    "time": 71.26302083333324,
                    "velocity": 0.6299212598425197,
                    "duration": 0.1822916666666572
                },
                {
                    "name": "F3",
                    "midi": 53,
                    "time": 71.26822916666657,
                    "velocity": 0.6299212598425197,
                    "duration": 1.3229166666666146
                },
                {
                    "name": "D5",
                    "midi": 74,
                    "time": 71.26822916666657,
                    "velocity": 0.6299212598425197,
                    "duration": 0.1536458333333286
                },
                {
                    "name": "G#5",
                    "midi": 80,
                    "time": 71.2734374999999,
                    "velocity": 0.6299212598425197,
                    "duration": 0.1484375
                },
                {
                    "name": "D6",
                    "midi": 86,
                    "time": 71.2734374999999,
                    "velocity": 0.6299212598425197,
                    "duration": 0.1484375
                },
                {
                    "name": "C5",
                    "midi": 72,
                    "time": 71.54427083333323,
                    "velocity": 0.6299212598425197,
                    "duration": 0.1067708333333286
                },
                {
                    "name": "G#5",
                    "midi": 80,
                    "time": 71.54427083333323,
                    "velocity": 0.6299212598425197,
                    "duration": 0.046875
                },
                {
                    "name": "C6",
                    "midi": 84,
                    "time": 71.54947916666656,
                    "velocity": 0.6299212598425197,
                    "duration": 0.1067708333333286
                },
                {
                    "name": "G#3",
                    "midi": 56,
                    "time": 71.66927083333321,
                    "velocity": 0.6299212598425197,
                    "duration": 0.1067708333333286
                },
                {
                    "name": "A#3",
                    "midi": 58,
                    "time": 71.66927083333321,
                    "velocity": 0.6299212598425197,
                    "duration": 0.1067708333333286
                },
                {
                    "name": "D4",
                    "midi": 62,
                    "time": 71.66927083333321,
                    "velocity": 0.6299212598425197,
                    "duration": 0.1067708333333286
                },
                {
                    "name": "F4",
                    "midi": 65,
                    "time": 71.66927083333321,
                    "velocity": 0.6299212598425197,
                    "duration": 0.1067708333333286
                },
                {
                    "name": "A#4",
                    "midi": 70,
                    "time": 71.66927083333321,
                    "velocity": 0.6299212598425197,
                    "duration": 0.11197916666665719
                },
                {
                    "name": "D5",
                    "midi": 74,
                    "time": 71.66927083333321,
                    "velocity": 0.6299212598425197,
                    "duration": 0.1067708333333286
                },
                {
                    "name": "G#5",
                    "midi": 80,
                    "time": 71.67447916666654,
                    "velocity": 0.6299212598425197,
                    "duration": 0.1067708333333286
                },
                {
                    "name": "A#5",
                    "midi": 82,
                    "time": 71.67447916666654,
                    "velocity": 0.6299212598425197,
                    "duration": 0.1067708333333286
                },
                {
                    "name": "B4",
                    "midi": 71,
                    "time": 71.93749999999987,
                    "velocity": 0.6299212598425197,
                    "duration": 0.11718749999998579
                },
                {
                    "name": "G#5",
                    "midi": 80,
                    "time": 71.9427083333332,
                    "velocity": 0.6299212598425197,
                    "duration": 0.052083333333328596
                },
                {
                    "name": "B5",
                    "midi": 83,
                    "time": 71.9427083333332,
                    "velocity": 0.6299212598425197,
                    "duration": 0.11718749999998579
                },
                {
                    "name": "A#1",
                    "midi": 34,
                    "time": 71.99999999999986,
                    "velocity": 0.6299212598425197,
                    "duration": 0.1145833333333286
                },
                {
                    "name": "C5",
                    "midi": 72,
                    "time": 72.07552083333319,
                    "velocity": 0.6299212598425197,
                    "duration": 0.5208333333333286
                },
                {
                    "name": "G#5",
                    "midi": 80,
                    "time": 72.07552083333319,
                    "velocity": 0.6299212598425197,
                    "duration": 0.5208333333333286
                },
                {
                    "name": "C6",
                    "midi": 84,
                    "time": 72.07552083333319,
                    "velocity": 0.6299212598425197,
                    "duration": 0.5208333333333286
                },
                {
                    "name": "G#3",
                    "midi": 56,
                    "time": 72.48177083333319,
                    "velocity": 0.6299212598425197,
                    "duration": 0.109375
                },
                {
                    "name": "A#3",
                    "midi": 58,
                    "time": 72.48177083333319,
                    "velocity": 0.6299212598425197,
                    "duration": 0.109375
                },
                {
                    "name": "D4",
                    "midi": 62,
                    "time": 72.48177083333319,
                    "velocity": 0.6299212598425197,
                    "duration": 0.109375
                },
                {
                    "name": "F4",
                    "midi": 65,
                    "time": 72.48177083333319,
                    "velocity": 0.6299212598425197,
                    "duration": 0.109375
                },
                {
                    "name": "F2",
                    "midi": 41,
                    "time": 72.75260416666652,
                    "velocity": 0.6299212598425197,
                    "duration": 0.2421874999999858
                },
                {
                    "name": "A#5",
                    "midi": 82,
                    "time": 72.75781249999984,
                    "velocity": 0.6299212598425197,
                    "duration": 0.1171875
                },
                {
                    "name": "G#3",
                    "midi": 56,
                    "time": 72.88281249999984,
                    "velocity": 0.6299212598425197,
                    "duration": 1.4427083333333286
                },
                {
                    "name": "A5",
                    "midi": 81,
                    "time": 72.88802083333317,
                    "velocity": 0.6299212598425197,
                    "duration": 0.1848958333333286
                },
                {
                    "name": "A#5",
                    "midi": 82,
                    "time": 73.12499999999983,
                    "velocity": 0.6299212598425197,
                    "duration": 0.1145833333333286
                },
                {
                    "name": "A#3",
                    "midi": 58,
                    "time": 73.28645833333316,
                    "velocity": 0.6299212598425197,
                    "duration": 0.0859375
                },
                {
                    "name": "F4",
                    "midi": 65,
                    "time": 73.28645833333316,
                    "velocity": 0.6299212598425197,
                    "duration": 0.0859375
                },
                {
                    "name": "G#4",
                    "midi": 68,
                    "time": 73.28645833333316,
                    "velocity": 0.6299212598425197,
                    "duration": 0.0859375
                },
                {
                    "name": "D4",
                    "midi": 62,
                    "time": 73.29166666666649,
                    "velocity": 0.6299212598425197,
                    "duration": 0.0807291666666714
                },
                {
                    "name": "G#5",
                    "midi": 80,
                    "time": 73.29166666666649,
                    "velocity": 0.6299212598425197,
                    "duration": 0.0807291666666714
                },
                {
                    "name": "A#5",
                    "midi": 82,
                    "time": 73.38802083333316,
                    "velocity": 0.6299212598425197,
                    "duration": 0.0859375
                },
                {
                    "name": "G#5",
                    "midi": 80,
                    "time": 73.49218749999983,
                    "velocity": 0.6299212598425197,
                    "duration": 0.0833333333333286
                },
                {
                    "name": "F5",
                    "midi": 77,
                    "time": 73.58854166666649,
                    "velocity": 0.6299212598425197,
                    "duration": 0.0859375
                },
                {
                    "name": "A#1",
                    "midi": 34,
                    "time": 73.67968749999982,
                    "velocity": 0.6299212598425197,
                    "duration": 0.1197916666666714
                },
                {
                    "name": "D5",
                    "midi": 74,
                    "time": 73.69010416666649,
                    "velocity": 0.6299212598425197,
                    "duration": 0.0859375
                },
                {
                    "name": "F5",
                    "midi": 77,
                    "time": 73.79427083333316,
                    "velocity": 0.6299212598425197,
                    "duration": 0.078125
                },
                {
                    "name": "D5",
                    "midi": 74,
                    "time": 73.89583333333316,
                    "velocity": 0.6299212598425197,
                    "duration": 0.0807291666666714
                },
                {
                    "name": "C5",
                    "midi": 72,
                    "time": 73.9947916666665,
                    "velocity": 0.6299212598425197,
                    "duration": 0.0703125
                },
                {
                    "name": "A#3",
                    "midi": 58,
                    "time": 74.08333333333317,
                    "velocity": 0.6299212598425197,
                    "duration": 0.109375
                },
                {
                    "name": "F4",
                    "midi": 65,
                    "time": 74.08333333333317,
                    "velocity": 0.6299212598425197,
                    "duration": 0.1145833333333286
                },
                {
                    "name": "A#4",
                    "midi": 70,
                    "time": 74.0885416666665,
                    "velocity": 0.6299212598425197,
                    "duration": 0.1354166666666714
                },
                {
                    "name": "D5",
                    "midi": 74,
                    "time": 74.0885416666665,
                    "velocity": 0.6299212598425197,
                    "duration": 0.1354166666666714
                },
                {
                    "name": "F5",
                    "midi": 77,
                    "time": 74.0885416666665,
                    "velocity": 0.6299212598425197,
                    "duration": 0.1354166666666714
                },
                {
                    "name": "G#5",
                    "midi": 80,
                    "time": 74.0885416666665,
                    "velocity": 0.6299212598425197,
                    "duration": 0.140625
                },
                {
                    "name": "A#5",
                    "midi": 82,
                    "time": 74.0885416666665,
                    "velocity": 0.6299212598425197,
                    "duration": 0.140625
                },
                {
                    "name": "D4",
                    "midi": 62,
                    "time": 74.11458333333317,
                    "velocity": 0.6299212598425197,
                    "duration": 0.0833333333333286
                },
                {
                    "name": "D#2",
                    "midi": 39,
                    "time": 74.34374999999984,
                    "velocity": 0.6299212598425197,
                    "duration": 0.07812499999998579
                },
                {
                    "name": "G#4",
                    "midi": 68,
                    "time": 74.34895833333317,
                    "velocity": 0.6299212598425197,
                    "duration": 0.1458333333333286
                },
                {
                    "name": "D5",
                    "midi": 74,
                    "time": 74.3541666666665,
                    "velocity": 0.6299212598425197,
                    "duration": 0.140625
                },
                {
                    "name": "F5",
                    "midi": 77,
                    "time": 74.3541666666665,
                    "velocity": 0.6299212598425197,
                    "duration": 0.1458333333333286
                },
                {
                    "name": "G#5",
                    "midi": 80,
                    "time": 74.3541666666665,
                    "velocity": 0.6299212598425197,
                    "duration": 0.1458333333333286
                },
                {
                    "name": "A#2",
                    "midi": 46,
                    "time": 74.47656249999983,
                    "velocity": 0.6299212598425197,
                    "duration": 0.1744791666666714
                },
                {
                    "name": "G3",
                    "midi": 55,
                    "time": 74.47656249999983,
                    "velocity": 0.6299212598425197,
                    "duration": 0.6380208333333144
                },
                {
                    "name": "D5",
                    "midi": 74,
                    "time": 74.7447916666665,
                    "velocity": 0.6299212598425197,
                    "duration": 0.11458333333331439
                },
                {
                    "name": "G5",
                    "midi": 79,
                    "time": 74.74999999999983,
                    "velocity": 0.6299212598425197,
                    "duration": 0.04166666666665719
                },
                {
                    "name": "A#5",
                    "midi": 82,
                    "time": 74.74999999999983,
                    "velocity": 0.6299212598425197,
                    "duration": 0.04166666666665719
                },
                {
                    "name": "D6",
                    "midi": 86,
                    "time": 74.74999999999983,
                    "velocity": 0.6299212598425197,
                    "duration": 0.10937499999998579
                },
                {
                    "name": "A#3",
                    "midi": 58,
                    "time": 74.87499999999982,
                    "velocity": 0.6299212598425197,
                    "duration": 0.1119791666666714
                },
                {
                    "name": "D#4",
                    "midi": 63,
                    "time": 74.87499999999982,
                    "velocity": 0.6299212598425197,
                    "duration": 0.1171875
                },
                {
                    "name": "G4",
                    "midi": 67,
                    "time": 74.87499999999982,
                    "velocity": 0.6299212598425197,
                    "duration": 0.1119791666666714
                },
                {
                    "name": "C5",
                    "midi": 72,
                    "time": 74.87499999999982,
                    "velocity": 0.6299212598425197,
                    "duration": 0.1119791666666714
                },
                {
                    "name": "G5",
                    "midi": 79,
                    "time": 74.87499999999982,
                    "velocity": 0.6299212598425197,
                    "duration": 0.1171875
                },
                {
                    "name": "A#5",
                    "midi": 82,
                    "time": 74.87499999999982,
                    "velocity": 0.6299212598425197,
                    "duration": 0.1171875
                },
                {
                    "name": "C6",
                    "midi": 84,
                    "time": 74.87499999999982,
                    "velocity": 0.6299212598425197,
                    "duration": 0.1171875
                },
                {
                    "name": "A#4",
                    "midi": 70,
                    "time": 75.14322916666647,
                    "velocity": 0.6299212598425197,
                    "duration": 0.1171875
                },
                {
                    "name": "G5",
                    "midi": 79,
                    "time": 75.14322916666647,
                    "velocity": 0.6299212598425197,
                    "duration": 0.049479166666671404
                },
                {
                    "name": "A#5",
                    "midi": 82,
                    "time": 75.14322916666647,
                    "velocity": 0.6299212598425197,
                    "duration": 0.1171875
                },
                {
                    "name": "A#3",
                    "midi": 58,
                    "time": 75.2734374999998,
                    "velocity": 0.6299212598425197,
                    "duration": 0.3177083333333286
                },
                {
                    "name": "C5",
                    "midi": 72,
                    "time": 75.27864583333313,
                    "velocity": 0.6299212598425197,
                    "duration": 0.5052083333333286
                },
                {
                    "name": "G5",
                    "midi": 79,
                    "time": 75.27864583333313,
                    "velocity": 0.6299212598425197,
                    "duration": 0.5104166666666572
                },
                {
                    "name": "C6",
                    "midi": 84,
                    "time": 75.27864583333313,
                    "velocity": 0.6299212598425197,
                    "duration": 0.5104166666666572
                },
                {
                    "name": "A#3",
                    "midi": 58,
                    "time": 75.67708333333313,
                    "velocity": 0.6299212598425197,
                    "duration": 0.3281249999999858
                },
                {
                    "name": "G4",
                    "midi": 67,
                    "time": 75.67708333333313,
                    "velocity": 0.6299212598425197,
                    "duration": 0.0755208333333286
                },
                {
                    "name": "D#4",
                    "midi": 63,
                    "time": 75.68229166666646,
                    "velocity": 0.6299212598425197,
                    "duration": 0.0703125
                },
                {
                    "name": "A#2",
                    "midi": 46,
                    "time": 75.92968749999979,
                    "velocity": 0.6299212598425197,
                    "duration": 0.2031249999999858
                },
                {
                    "name": "G5",
                    "midi": 79,
                    "time": 75.93489583333312,
                    "velocity": 0.6299212598425197,
                    "duration": 0.046875
                },
                {
                    "name": "A#5",
                    "midi": 82,
                    "time": 75.93749999999979,
                    "velocity": 0.6299212598425197,
                    "duration": 0.044270833333328596
                },
                {
                    "name": "G3",
                    "midi": 55,
                    "time": 76.06249999999977,
                    "velocity": 0.6299212598425197,
                    "duration": 1.4843749999999716
                },
                {
                    "name": "D5",
                    "midi": 74,
                    "time": 76.06249999999977,
                    "velocity": 0.6299212598425197,
                    "duration": 0.0755208333333286
                },
                {
                    "name": "G5",
                    "midi": 79,
                    "time": 76.06510416666644,
                    "velocity": 0.6299212598425197,
                    "duration": 0.07812499999998579
                },
                {
                    "name": "A#5",
                    "midi": 82,
                    "time": 76.06510416666644,
                    "velocity": 0.6299212598425197,
                    "duration": 0.07291666666665719
                },
                {
                    "name": "D6",
                    "midi": 86,
                    "time": 76.06510416666644,
                    "velocity": 0.6299212598425197,
                    "duration": 0.07812499999998579
                },
                {
                    "name": "D#5",
                    "midi": 75,
                    "time": 76.3255208333331,
                    "velocity": 0.6299212598425197,
                    "duration": 0.0807291666666714
                },
                {
                    "name": "G5",
                    "midi": 79,
                    "time": 76.3255208333331,
                    "velocity": 0.6299212598425197,
                    "duration": 0.049479166666671404
                },
                {
                    "name": "A#5",
                    "midi": 82,
                    "time": 76.3255208333331,
                    "velocity": 0.6299212598425197,
                    "duration": 0.0546875
                },
                {
                    "name": "D#6",
                    "midi": 87,
                    "time": 76.3255208333331,
                    "velocity": 0.6299212598425197,
                    "duration": 0.0807291666666714
                },
                {
                    "name": "D#4",
                    "midi": 63,
                    "time": 76.45572916666644,
                    "velocity": 0.6299212598425197,
                    "duration": 0.1145833333333286
                },
                {
                    "name": "G5",
                    "midi": 79,
                    "time": 76.46093749999977,
                    "velocity": 0.6299212598425197,
                    "duration": 0.109375
                },
                {
                    "name": "A#5",
                    "midi": 82,
                    "time": 76.46093749999977,
                    "velocity": 0.6299212598425197,
                    "duration": 0.1145833333333286
                },
                {
                    "name": "C6",
                    "midi": 84,
                    "time": 76.46093749999977,
                    "velocity": 0.6299212598425197,
                    "duration": 0.1145833333333286
                },
                {
                    "name": "C4",
                    "midi": 60,
                    "time": 76.4661458333331,
                    "velocity": 0.6299212598425197,
                    "duration": 0.1041666666666714
                },
                {
                    "name": "D5",
                    "midi": 74,
                    "time": 76.7239583333331,
                    "velocity": 0.6299212598425197,
                    "duration": 0.0729166666666714
                },
                {
                    "name": "G5",
                    "midi": 79,
                    "time": 76.7239583333331,
                    "velocity": 0.6299212598425197,
                    "duration": 0.046875
                },
                {
                    "name": "A#5",
                    "midi": 82,
                    "time": 76.72916666666643,
                    "velocity": 0.6299212598425197,
                    "duration": 0.041666666666671404
                },
                {
                    "name": "D6",
                    "midi": 86,
                    "time": 76.72916666666643,
                    "velocity": 0.6299212598425197,
                    "duration": 0.0729166666666714
                },
                {
                    "name": "D#2",
                    "midi": 39,
                    "time": 76.85156249999977,
                    "velocity": 0.6299212598425197,
                    "duration": 0.1067708333333286
                },
                {
                    "name": "A#4",
                    "midi": 70,
                    "time": 76.8567708333331,
                    "velocity": 0.6299212598425197,
                    "duration": 0.1067708333333286
                },
                {
                    "name": "G5",
                    "midi": 79,
                    "time": 76.8567708333331,
                    "velocity": 0.6299212598425197,
                    "duration": 0.1067708333333286
                },
                {
                    "name": "A#5",
                    "midi": 82,
                    "time": 76.86197916666643,
                    "velocity": 0.6299212598425197,
                    "duration": 0.1015625
                },
                {
                    "name": "D#5",
                    "midi": 75,
                    "time": 77.11718749999976,
                    "velocity": 0.6299212598425197,
                    "duration": 0.109375
                },
                {
                    "name": "D#6",
                    "midi": 87,
                    "time": 77.12239583333309,
                    "velocity": 0.6299212598425197,
                    "duration": 0.1041666666666714
                },
                {
                    "name": "A#3",
                    "midi": 58,
                    "time": 77.23958333333309,
                    "velocity": 0.6299212598425197,
                    "duration": 0.1432291666666572
                },
                {
                    "name": "D4",
                    "midi": 62,
                    "time": 77.24479166666642,
                    "velocity": 0.6299212598425197,
                    "duration": 0.1145833333333286
                },
                {
                    "name": "D5",
                    "midi": 74,
                    "time": 77.24479166666642,
                    "velocity": 0.6299212598425197,
                    "duration": 0.109375
                },
                {
                    "name": "G5",
                    "midi": 79,
                    "time": 77.24479166666642,
                    "velocity": 0.6299212598425197,
                    "duration": 0.1145833333333286
                },
                {
                    "name": "D6",
                    "midi": 86,
                    "time": 77.24479166666642,
                    "velocity": 0.6299212598425197,
                    "duration": 0.1145833333333286
                },
                {
                    "name": "C#5",
                    "midi": 73,
                    "time": 77.49999999999974,
                    "velocity": 0.6299212598425197,
                    "duration": 0.1145833333333286
                },
                {
                    "name": "G5",
                    "midi": 79,
                    "time": 77.50260416666642,
                    "velocity": 0.6299212598425197,
                    "duration": 0.11718749999998579
                },
                {
                    "name": "C#6",
                    "midi": 85,
                    "time": 77.50260416666642,
                    "velocity": 0.6299212598425197,
                    "duration": 0.11197916666665719
                },
                {
                    "name": "G#2",
                    "midi": 44,
                    "time": 77.62499999999973,
                    "velocity": 0.6299212598425197,
                    "duration": 0.1145833333333286
                },
                {
                    "name": "G#3",
                    "midi": 56,
                    "time": 77.6276041666664,
                    "velocity": 0.6299212598425197,
                    "duration": 0.2786458333333144
                },
                {
                    "name": "C5",
                    "midi": 72,
                    "time": 77.6276041666664,
                    "velocity": 0.6299212598425197,
                    "duration": 0.2213541666666572
                },
                {
                    "name": "C6",
                    "midi": 84,
                    "time": 77.6276041666664,
                    "velocity": 0.6299212598425197,
                    "duration": 0.2552083333333144
                },
                {
                    "name": "G#5",
                    "midi": 80,
                    "time": 77.63281249999973,
                    "velocity": 0.6299212598425197,
                    "duration": 0.2447916666666572
                },
                {
                    "name": "D#3",
                    "midi": 51,
                    "time": 78.03385416666639,
                    "velocity": 0.6299212598425197,
                    "duration": 0.1145833333333286
                },
                {
                    "name": "G#3",
                    "midi": 56,
                    "time": 78.03385416666639,
                    "velocity": 0.6299212598425197,
                    "duration": 0.3151041666666572
                },
                {
                    "name": "C4",
                    "midi": 60,
                    "time": 78.03385416666639,
                    "velocity": 0.6299212598425197,
                    "duration": 0.1145833333333286
                },
                {
                    "name": "B4",
                    "midi": 71,
                    "time": 78.03385416666639,
                    "velocity": 0.6299212598425197,
                    "duration": 0.1510416666666572
                },
                {
                    "name": "G#5",
                    "midi": 80,
                    "time": 78.03906249999972,
                    "velocity": 0.6299212598425197,
                    "duration": 0.1145833333333286
                },
                {
                    "name": "B5",
                    "midi": 83,
                    "time": 78.03906249999972,
                    "velocity": 0.6299212598425197,
                    "duration": 0.1458333333333286
                },
                {
                    "name": "C5",
                    "midi": 72,
                    "time": 78.30729166666637,
                    "velocity": 0.6299212598425197,
                    "duration": 0.11458333333334281
                },
                {
                    "name": "C6",
                    "midi": 84,
                    "time": 78.30729166666637,
                    "velocity": 0.6299212598425197,
                    "duration": 0.11458333333334281
                },
                {
                    "name": "A2",
                    "midi": 45,
                    "time": 78.43749999999972,
                    "velocity": 0.6299212598425197,
                    "duration": 0.11197916666665719
                },
                {
                    "name": "A3",
                    "midi": 57,
                    "time": 78.43749999999972,
                    "velocity": 0.6299212598425197,
                    "duration": 0.2760416666666572
                },
                {
                    "name": "D5",
                    "midi": 74,
                    "time": 78.43749999999972,
                    "velocity": 0.6299212598425197,
                    "duration": 0.2499999999999858
                },
                {
                    "name": "F#5",
                    "midi": 78,
                    "time": 78.44270833333304,
                    "velocity": 0.6299212598425197,
                    "duration": 0.2447916666666572
                },
                {
                    "name": "A5",
                    "midi": 81,
                    "time": 78.44270833333304,
                    "velocity": 0.6299212598425197,
                    "duration": 0.2447916666666572
                },
                {
                    "name": "D6",
                    "midi": 86,
                    "time": 78.44270833333304,
                    "velocity": 0.6299212598425197,
                    "duration": 0.2447916666666572
                },
                {
                    "name": "D#3",
                    "midi": 51,
                    "time": 78.8359374999997,
                    "velocity": 0.6299212598425197,
                    "duration": 0.078125
                },
                {
                    "name": "F#3",
                    "midi": 54,
                    "time": 78.84114583333303,
                    "velocity": 0.6299212598425197,
                    "duration": 0.0729166666666714
                },
                {
                    "name": "A3",
                    "midi": 57,
                    "time": 78.84114583333303,
                    "velocity": 0.6299212598425197,
                    "duration": 0.3098958333333286
                },
                {
                    "name": "C4",
                    "midi": 60,
                    "time": 78.84114583333303,
                    "velocity": 0.6299212598425197,
                    "duration": 0.0729166666666714
                },
                {
                    "name": "C5",
                    "midi": 72,
                    "time": 78.84114583333303,
                    "velocity": 0.6299212598425197,
                    "duration": 0.109375
                },
                {
                    "name": "F#5",
                    "midi": 78,
                    "time": 78.84114583333303,
                    "velocity": 0.6299212598425197,
                    "duration": 0.109375
                },
                {
                    "name": "C6",
                    "midi": 84,
                    "time": 78.84114583333303,
                    "velocity": 0.6299212598425197,
                    "duration": 0.1536458333333286
                },
                {
                    "name": "A5",
                    "midi": 81,
                    "time": 78.87239583333303,
                    "velocity": 0.6299212598425197,
                    "duration": 0.078125
                },
                {
                    "name": "D5",
                    "midi": 74,
                    "time": 79.10937499999969,
                    "velocity": 0.6299212598425197,
                    "duration": 0.078125
                },
                {
                    "name": "D6",
                    "midi": 86,
                    "time": 79.10937499999969,
                    "velocity": 0.6299212598425197,
                    "duration": 0.078125
                },
                {
                    "name": "A#2",
                    "midi": 46,
                    "time": 79.23697916666634,
                    "velocity": 0.6299212598425197,
                    "duration": 0.2057291666666572
                },
                {
                    "name": "A#3",
                    "midi": 58,
                    "time": 79.23697916666634,
                    "velocity": 0.6299212598425197,
                    "duration": 0.2499999999999858
                },
                {
                    "name": "D#5",
                    "midi": 75,
                    "time": 79.24218749999967,
                    "velocity": 0.6299212598425197,
                    "duration": 0.0833333333333286
                },
                {
                    "name": "G5",
                    "midi": 79,
                    "time": 79.24218749999967,
                    "velocity": 0.6299212598425197,
                    "duration": 0.0833333333333286
                },
                {
                    "name": "D#6",
                    "midi": 87,
                    "time": 79.24218749999967,
                    "velocity": 0.6299212598425197,
                    "duration": 0.1223958333333286
                },
                {
                    "name": "F5",
                    "midi": 77,
                    "time": 79.37499999999967,
                    "velocity": 0.6299212598425197,
                    "duration": 0.08072916666665719
                },
                {
                    "name": "A#5",
                    "midi": 82,
                    "time": 79.37499999999967,
                    "velocity": 0.6299212598425197,
                    "duration": 0.052083333333328596
                },
                {
                    "name": "F6",
                    "midi": 89,
                    "time": 79.37499999999967,
                    "velocity": 0.6299212598425197,
                    "duration": 0.08072916666665719
                },
                {
                    "name": "D#5",
                    "midi": 75,
                    "time": 79.50260416666633,
                    "velocity": 0.6299212598425197,
                    "duration": 0.1171875
                },
                {
                    "name": "A#5",
                    "midi": 82,
                    "time": 79.54166666666633,
                    "velocity": 0.6299212598425197,
                    "duration": 0.0833333333333286
                },
                {
                    "name": "D#6",
                    "midi": 87,
                    "time": 79.54166666666633,
                    "velocity": 0.6299212598425197,
                    "duration": 0.0833333333333286
                },
                {
                    "name": "G5",
                    "midi": 79,
                    "time": 79.54687499999966,
                    "velocity": 0.6299212598425197,
                    "duration": 0.0729166666666714
                },
                {
                    "name": "G2",
                    "midi": 43,
                    "time": 79.62760416666633,
                    "velocity": 0.6299212598425197,
                    "duration": 0.24739583333331439
                },
                {
                    "name": "D3",
                    "midi": 50,
                    "time": 79.63281249999966,
                    "velocity": 0.6299212598425197,
                    "duration": 0.2421874999999858
                },
                {
                    "name": "B3",
                    "midi": 59,
                    "time": 79.63281249999966,
                    "velocity": 0.6299212598425197,
                    "duration": 0.2421874999999858
                },
                {
                    "name": "D5",
                    "midi": 74,
                    "time": 79.63281249999966,
                    "velocity": 0.6299212598425197,
                    "duration": 0.1536458333333286
                },
                {
                    "name": "F5",
                    "midi": 77,
                    "time": 79.63802083333299,
                    "velocity": 0.6299212598425197,
                    "duration": 0.1536458333333286
                },
                {
                    "name": "B5",
                    "midi": 83,
                    "time": 79.63802083333299,
                    "velocity": 0.6299212598425197,
                    "duration": 0.1484375
                },
                {
                    "name": "D6",
                    "midi": 86,
                    "time": 79.63802083333299,
                    "velocity": 0.6299212598425197,
                    "duration": 0.1536458333333286
                },
                {
                    "name": "C5",
                    "midi": 72,
                    "time": 79.90624999999964,
                    "velocity": 0.6299212598425197,
                    "duration": 0.6249999999999858
                },
                {
                    "name": "E5",
                    "midi": 76,
                    "time": 79.90624999999964,
                    "velocity": 0.6299212598425197,
                    "duration": 0.6249999999999858
                },
                {
                    "name": "G5",
                    "midi": 79,
                    "time": 79.90624999999964,
                    "velocity": 0.6299212598425197,
                    "duration": 0.6249999999999858
                },
                {
                    "name": "A#5",
                    "midi": 82,
                    "time": 79.90624999999964,
                    "velocity": 0.6299212598425197,
                    "duration": 0.6380208333333144
                },
                {
                    "name": "C6",
                    "midi": 84,
                    "time": 79.90624999999964,
                    "velocity": 0.6299212598425197,
                    "duration": 0.6249999999999858
                },
                {
                    "name": "C2",
                    "midi": 36,
                    "time": 80.02083333333297,
                    "velocity": 0.6299212598425197,
                    "duration": 0.5052083333333286
                },
                {
                    "name": "G2",
                    "midi": 43,
                    "time": 80.0260416666663,
                    "velocity": 0.6299212598425197,
                    "duration": 0.5
                },
                {
                    "name": "E3",
                    "midi": 52,
                    "time": 80.0260416666663,
                    "velocity": 0.6299212598425197,
                    "duration": 0.5
                },
                {
                    "name": "G3",
                    "midi": 55,
                    "time": 80.4166666666663,
                    "velocity": 0.6299212598425197,
                    "duration": 0.109375
                },
                {
                    "name": "A#3",
                    "midi": 58,
                    "time": 80.42187499999963,
                    "velocity": 0.6299212598425197,
                    "duration": 0.109375
                },
                {
                    "name": "C4",
                    "midi": 60,
                    "time": 80.42187499999963,
                    "velocity": 0.6299212598425197,
                    "duration": 0.109375
                },
                {
                    "name": "E4",
                    "midi": 64,
                    "time": 80.42187499999963,
                    "velocity": 0.6299212598425197,
                    "duration": 0.109375
                },
                {
                    "name": "F2",
                    "midi": 41,
                    "time": 80.68489583333296,
                    "velocity": 0.6299212598425197,
                    "duration": 0.2552083333333286
                },
                {
                    "name": "D5",
                    "midi": 74,
                    "time": 80.68749999999963,
                    "velocity": 0.6299212598425197,
                    "duration": 0.125
                },
                {
                    "name": "D6",
                    "midi": 86,
                    "time": 80.68749999999963,
                    "velocity": 0.6299212598425197,
                    "duration": 0.1276041666666714
                },
                {
                    "name": "C3",
                    "midi": 48,
                    "time": 80.82552083333296,
                    "velocity": 0.6299212598425197,
                    "duration": 0.1145833333333286
                },
                {
                    "name": "A3",
                    "midi": 57,
                    "time": 80.82552083333296,
                    "velocity": 0.6299212598425197,
                    "duration": 0.2734374999999858
                },
                {
                    "name": "D#5",
                    "midi": 75,
                    "time": 80.83072916666629,
                    "velocity": 0.6299212598425197,
                    "duration": 0.1145833333333286
                },
                {
                    "name": "C6",
                    "midi": 84,
                    "time": 80.83072916666629,
                    "velocity": 0.6299212598425197,
                    "duration": 0.0546875
                },
                {
                    "name": "D#6",
                    "midi": 87,
                    "time": 80.86979166666629,
                    "velocity": 0.6299212598425197,
                    "duration": 0.1119791666666714
                },
                {
                    "name": "F5",
                    "midi": 77,
                    "time": 80.96354166666629,
                    "velocity": 0.6299212598425197,
                    "duration": 0.1171875
                },
                {
                    "name": "C6",
                    "midi": 84,
                    "time": 80.96354166666629,
                    "velocity": 0.6299212598425197,
                    "duration": 0.05208333333334281
                },
                {
                    "name": "F6",
                    "midi": 89,
                    "time": 80.99999999999963,
                    "velocity": 0.6299212598425197,
                    "duration": 0.0755208333333286
                },
                {
                    "name": "D#5",
                    "midi": 75,
                    "time": 81.09374999999962,
                    "velocity": 0.6299212598425197,
                    "duration": 0.1145833333333286
                },
                {
                    "name": "C6",
                    "midi": 84,
                    "time": 81.09374999999962,
                    "velocity": 0.6299212598425197,
                    "duration": 0.046875
                },
                {
                    "name": "D#6",
                    "midi": 87,
                    "time": 81.09374999999962,
                    "velocity": 0.6299212598425197,
                    "duration": 0.1510416666666714
                },
                {
                    "name": "F3",
                    "midi": 53,
                    "time": 81.22656249999962,
                    "velocity": 0.6299212598425197,
                    "duration": 0.078125
                },
                {
                    "name": "A3",
                    "midi": 57,
                    "time": 81.22656249999962,
                    "velocity": 0.6299212598425197,
                    "duration": 0.3125
                },
                {
                    "name": "C4",
                    "midi": 60,
                    "time": 81.22656249999962,
                    "velocity": 0.6299212598425197,
                    "duration": 0.078125
                },
                {
                    "name": "D#4",
                    "midi": 63,
                    "time": 81.22656249999962,
                    "velocity": 0.6299212598425197,
                    "duration": 0.078125
                },
                {
                    "name": "C5",
                    "midi": 72,
                    "time": 81.22656249999962,
                    "velocity": 0.6299212598425197,
                    "duration": 0.2109375
                },
                {
                    "name": "C6",
                    "midi": 84,
                    "time": 81.22656249999962,
                    "velocity": 0.6299212598425197,
                    "duration": 0.2135416666666714
                },
                {
                    "name": "A5",
                    "midi": 81,
                    "time": 81.26041666666629,
                    "velocity": 0.6299212598425197,
                    "duration": 0.04947916666665719
                },
                {
                    "name": "A#2",
                    "midi": 46,
                    "time": 81.49218749999962,
                    "velocity": 0.6299212598425197,
                    "duration": 0.2057291666666714
                },
                {
                    "name": "B4",
                    "midi": 71,
                    "time": 81.49739583333294,
                    "velocity": 0.6299212598425197,
                    "duration": 0.1067708333333286
                },
                {
                    "name": "F5",
                    "midi": 77,
                    "time": 81.49739583333294,
                    "velocity": 0.6299212598425197,
                    "duration": 0.046875
                },
                {
                    "name": "B5",
                    "midi": 83,
                    "time": 81.49739583333294,
                    "velocity": 0.6299212598425197,
                    "duration": 0.1067708333333286
                },
                {
                    "name": "A#3",
                    "midi": 58,
                    "time": 81.62239583333294,
                    "velocity": 0.6299212598425197,
                    "duration": 0.3151041666666572
                },
                {
                    "name": "D5",
                    "midi": 74,
                    "time": 81.62239583333294,
                    "velocity": 0.6299212598425197,
                    "duration": 0.11458333333334281
                },
                {
                    "name": "A#4",
                    "midi": 70,
                    "time": 81.62499999999962,
                    "velocity": 0.6299212598425197,
                    "duration": 0.1119791666666714
                },
                {
                    "name": "F5",
                    "midi": 77,
                    "time": 81.62499999999962,
                    "velocity": 0.6299212598425197,
                    "duration": 0.1119791666666714
                },
                {
                    "name": "G#5",
                    "midi": 80,
                    "time": 81.62499999999962,
                    "velocity": 0.6299212598425197,
                    "duration": 0.1119791666666714
                },
                {
                    "name": "A#5",
                    "midi": 82,
                    "time": 81.62499999999962,
                    "velocity": 0.6299212598425197,
                    "duration": 0.1171875
                },
                {
                    "name": "A#4",
                    "midi": 70,
                    "time": 81.88802083333294,
                    "velocity": 0.6299212598425197,
                    "duration": 0.052083333333328596
                },
                {
                    "name": "D5",
                    "midi": 74,
                    "time": 81.89322916666627,
                    "velocity": 0.6299212598425197,
                    "duration": 0.044270833333328596
                },
                {
                    "name": "F#5",
                    "midi": 78,
                    "time": 81.89322916666627,
                    "velocity": 0.6299212598425197,
                    "duration": 0.0729166666666714
                },
                {
                    "name": "F3",
                    "midi": 53,
                    "time": 82.02083333333294,
                    "velocity": 0.6299212598425197,
                    "duration": 0.2083333333333428
                },
                {
                    "name": "G#3",
                    "midi": 56,
                    "time": 82.02083333333294,
                    "velocity": 0.6299212598425197,
                    "duration": 0.2135416666666714
                },
                {
                    "name": "A#3",
                    "midi": 58,
                    "time": 82.02083333333294,
                    "velocity": 0.6299212598425197,
                    "duration": 0.2135416666666714
                },
                {
                    "name": "A#4",
                    "midi": 70,
                    "time": 82.02083333333294,
                    "velocity": 0.6299212598425197,
                    "duration": 0.1822916666666714
                },
                {
                    "name": "D5",
                    "midi": 74,
                    "time": 82.02604166666627,
                    "velocity": 0.6299212598425197,
                    "duration": 0.1770833333333428
                },
                {
                    "name": "G5",
                    "midi": 79,
                    "time": 82.02604166666627,
                    "velocity": 0.6299212598425197,
                    "duration": 0.1770833333333428
                },
                {
                    "name": "D4",
                    "midi": 62,
                    "time": 82.05208333333294,
                    "velocity": 0.6299212598425197,
                    "duration": 0.1822916666666714
                },
                {
                    "name": "D#5",
                    "midi": 75,
                    "time": 82.28906249999962,
                    "velocity": 0.6299212598425197,
                    "duration": 0.2057291666666714
                },
                {
                    "name": "D#3",
                    "midi": 51,
                    "time": 82.41145833333296,
                    "velocity": 0.6299212598425197,
                    "duration": 0.078125
                },
                {
                    "name": "G3",
                    "midi": 55,
                    "time": 82.41666666666629,
                    "velocity": 0.6299212598425197,
                    "duration": 0.0729166666666714
                },
                {
                    "name": "A#3",
                    "midi": 58,
                    "time": 82.41666666666629,
                    "velocity": 0.6299212598425197,
                    "duration": 0.078125
                },
                {
                    "name": "D#4",
                    "midi": 63,
                    "time": 82.41666666666629,
                    "velocity": 0.6299212598425197,
                    "duration": 0.0729166666666714
                },
                {
                    "name": "A#4",
                    "midi": 70,
                    "time": 82.41666666666629,
                    "velocity": 0.6299212598425197,
                    "duration": 0.078125
                },
                {
                    "name": "G5",
                    "midi": 79,
                    "time": 82.41666666666629,
                    "velocity": 0.6299212598425197,
                    "duration": 0.078125
                },
                {
                    "name": "D#2",
                    "midi": 39,
                    "time": 83.21354166666629,
                    "velocity": 0.6299212598425197,
                    "duration": 0.1796874999999858
                },
                {
                    "name": "D#3",
                    "midi": 51,
                    "time": 83.21874999999962,
                    "velocity": 0.6299212598425197,
                    "duration": 0.1744791666666572
                },
                {
                    "name": "D#5",
                    "midi": 75,
                    "time": 83.21874999999962,
                    "velocity": 0.6299212598425197,
                    "duration": 0.3229166666666572
                },
                {
                    "name": "G5",
                    "midi": 79,
                    "time": 83.21874999999962,
                    "velocity": 0.6299212598425197,
                    "duration": 0.3281249999999858
                },
                {
                    "name": "A#5",
                    "midi": 82,
                    "time": 83.22395833333294,
                    "velocity": 0.6299212598425197,
                    "duration": 0.3177083333333286
                },
                {
                    "name": "D#6",
                    "midi": 87,
                    "time": 83.22395833333294,
                    "velocity": 0.6299212598425197,
                    "duration": 0.3177083333333286
                },
                {
                    "name": "D2",
                    "midi": 38,
                    "time": 84.03385416666626,
                    "velocity": 0.6299212598425197,
                    "duration": 0.7057291666666856
                },
                {
                    "name": "D3",
                    "midi": 50,
                    "time": 84.03385416666626,
                    "velocity": 0.6299212598425197,
                    "duration": 0.7109375000000142
                },
                {
                    "name": "C4",
                    "midi": 60,
                    "time": 84.30208333333293,
                    "velocity": 0.6299212598425197,
                    "duration": 0.04947916666665719
                },
                {
                    "name": "D4",
                    "midi": 62,
                    "time": 84.33854166666626,
                    "velocity": 0.6299212598425197,
                    "duration": 0.041666666666671404
                },
                {
                    "name": "D#4",
                    "midi": 63,
                    "time": 84.36979166666626,
                    "velocity": 0.6299212598425197,
                    "duration": 0.04687500000001421
                },
                {
                    "name": "E4",
                    "midi": 64,
                    "time": 84.3984374999996,
                    "velocity": 0.6299212598425197,
                    "duration": 0.04687500000001421
                },
                {
                    "name": "F4",
                    "midi": 65,
                    "time": 84.43489583333294,
                    "velocity": 0.6299212598425197,
                    "duration": 0.109375
                },
                {
                    "name": "A3",
                    "midi": 57,
                    "time": 84.69531249999962,
                    "velocity": 0.6299212598425197,
                    "duration": 0.2916666666666572
                },
                {
                    "name": "E4",
                    "midi": 64,
                    "time": 84.69531249999962,
                    "velocity": 0.6299212598425197,
                    "duration": 0.2916666666666572
                },
                {
                    "name": "A4",
                    "midi": 69,
                    "time": 84.69531249999962,
                    "velocity": 0.6299212598425197,
                    "duration": 0.2916666666666572
                },
                {
                    "name": "C#2",
                    "midi": 37,
                    "time": 84.81510416666627,
                    "velocity": 0.6299212598425197,
                    "duration": 0.7057291666666856
                },
                {
                    "name": "C#3",
                    "midi": 49,
                    "time": 84.81510416666627,
                    "velocity": 0.6299212598425197,
                    "duration": 0.7057291666666856
                },
                {
                    "name": "G#4",
                    "midi": 68,
                    "time": 85.0781249999996,
                    "velocity": 0.6299212598425197,
                    "duration": 0.049479166666671404
                },
                {
                    "name": "A#3",
                    "midi": 58,
                    "time": 85.20833333333294,
                    "velocity": 0.6299212598425197,
                    "duration": 0.2213541666666714
                },
                {
                    "name": "E4",
                    "midi": 64,
                    "time": 85.20833333333294,
                    "velocity": 0.6299212598425197,
                    "duration": 0.2213541666666714
                },
                {
                    "name": "G#4",
                    "midi": 68,
                    "time": 85.21354166666627,
                    "velocity": 0.6299212598425197,
                    "duration": 0.0807291666666714
                },
                {
                    "name": "G4",
                    "midi": 67,
                    "time": 85.34374999999962,
                    "velocity": 0.6299212598425197,
                    "duration": 0.0859375
                },
                {
                    "name": "A4",
                    "midi": 69,
                    "time": 85.47916666666629,
                    "velocity": 0.6299212598425197,
                    "duration": 0.11458333333334281
                },
                {
                    "name": "C2",
                    "midi": 36,
                    "time": 85.60677083333296,
                    "velocity": 0.6299212598425197,
                    "duration": 0.6119791666666572
                },
                {
                    "name": "C3",
                    "midi": 48,
                    "time": 85.61197916666629,
                    "velocity": 0.6299212598425197,
                    "duration": 0.6119791666666572
                },
                {
                    "name": "A3",
                    "midi": 57,
                    "time": 85.61197916666629,
                    "velocity": 0.6299212598425197,
                    "duration": 0.2786458333333286
                },
                {
                    "name": "D#4",
                    "midi": 63,
                    "time": 85.61197916666629,
                    "velocity": 0.6299212598425197,
                    "duration": 0.2786458333333286
                },
                {
                    "name": "G4",
                    "midi": 67,
                    "time": 85.61197916666629,
                    "velocity": 0.6299212598425197,
                    "duration": 0.2786458333333286
                },
                {
                    "name": "A3",
                    "midi": 57,
                    "time": 86.00520833333294,
                    "velocity": 0.6299212598425197,
                    "duration": 0.1197916666666714
                },
                {
                    "name": "F#4",
                    "midi": 66,
                    "time": 86.00520833333294,
                    "velocity": 0.6299212598425197,
                    "duration": 0.1197916666666714
                },
                {
                    "name": "D#4",
                    "midi": 63,
                    "time": 86.01041666666627,
                    "velocity": 0.6299212598425197,
                    "duration": 0.0729166666666714
                },
                {
                    "name": "A3",
                    "midi": 57,
                    "time": 86.27864583333294,
                    "velocity": 0.6299212598425197,
                    "duration": 0.390625
                },
                {
                    "name": "D#4",
                    "midi": 63,
                    "time": 86.27864583333294,
                    "velocity": 0.6299212598425197,
                    "duration": 0.390625
                },
                {
                    "name": "F4",
                    "midi": 65,
                    "time": 86.27864583333294,
                    "velocity": 0.6299212598425197,
                    "duration": 0.390625
                },
                {
                    "name": "F2",
                    "midi": 41,
                    "time": 86.41927083333294,
                    "velocity": 0.6299212598425197,
                    "duration": 0.25
                },
                {
                    "name": "C3",
                    "midi": 48,
                    "time": 86.41927083333294,
                    "velocity": 0.6299212598425197,
                    "duration": 0.25
                },
                {
                    "name": "F2",
                    "midi": 41,
                    "time": 86.82031249999962,
                    "velocity": 0.6299212598425197,
                    "duration": 0.0911458333333286
                },
                {
                    "name": "F3",
                    "midi": 53,
                    "time": 86.82552083333294,
                    "velocity": 0.6299212598425197,
                    "duration": 0.0807291666666714
                },
                {
                    "name": "F4",
                    "midi": 65,
                    "time": 86.82552083333294,
                    "velocity": 0.6299212598425197,
                    "duration": 0.1145833333333286
                },
                {
                    "name": "A4",
                    "midi": 69,
                    "time": 86.82552083333294,
                    "velocity": 0.6299212598425197,
                    "duration": 0.0859375
                },
                {
                    "name": "C5",
                    "midi": 72,
                    "time": 86.82552083333294,
                    "velocity": 0.6299212598425197,
                    "duration": 0.0859375
                },
                {
                    "name": "D#5",
                    "midi": 75,
                    "time": 86.82552083333294,
                    "velocity": 0.6299212598425197,
                    "duration": 0.0859375
                },
                {
                    "name": "F5",
                    "midi": 77,
                    "time": 86.82552083333294,
                    "velocity": 0.6299212598425197,
                    "duration": 0.0859375
                },
                {
                    "name": "D2",
                    "midi": 38,
                    "time": 87.2421874999996,
                    "velocity": 0.6299212598425197,
                    "duration": 0.6979166666666714
                },
                {
                    "name": "D3",
                    "midi": 50,
                    "time": 87.2421874999996,
                    "velocity": 0.6299212598425197,
                    "duration": 0.703125
                },
                {
                    "name": "G3",
                    "midi": 55,
                    "time": 87.6484374999996,
                    "velocity": 0.6299212598425197,
                    "duration": 0.1953125
                },
                {
                    "name": "C#4",
                    "midi": 61,
                    "time": 87.6484374999996,
                    "velocity": 0.6299212598425197,
                    "duration": 0.1692708333333286
                },
                {
                    "name": "D4",
                    "midi": 62,
                    "time": 87.8984374999996,
                    "velocity": 0.6299212598425197,
                    "duration": 0.1145833333333286
                },
                {
                    "name": "C#2",
                    "midi": 37,
                    "time": 88.0312499999996,
                    "velocity": 0.6299212598425197,
                    "duration": 0.25
                },
                {
                    "name": "C#3",
                    "midi": 49,
                    "time": 88.03645833333293,
                    "velocity": 0.6299212598425197,
                    "duration": 0.75
                },
                {
                    "name": "A#3",
                    "midi": 58,
                    "time": 88.03645833333293,
                    "velocity": 0.6299212598425197,
                    "duration": 0.25
                },
                {
                    "name": "E4",
                    "midi": 64,
                    "time": 88.03645833333293,
                    "velocity": 0.6299212598425197,
                    "duration": 0.25
                },
                {
                    "name": "A4",
                    "midi": 69,
                    "time": 88.03645833333293,
                    "velocity": 0.6299212598425197,
                    "duration": 0.2552083333333286
                },
                {
                    "name": "C#2",
                    "midi": 37,
                    "time": 88.33333333333293,
                    "velocity": 0.6299212598425197,
                    "duration": 0.453125
                },
                {
                    "name": "A#3",
                    "midi": 58,
                    "time": 88.4374999999996,
                    "velocity": 0.6299212598425197,
                    "duration": 0.2473958333333286
                },
                {
                    "name": "E4",
                    "midi": 64,
                    "time": 88.4374999999996,
                    "velocity": 0.6299212598425197,
                    "duration": 0.2473958333333286
                },
                {
                    "name": "G4",
                    "midi": 67,
                    "time": 88.4374999999996,
                    "velocity": 0.6299212598425197,
                    "duration": 0.25
                },
                {
                    "name": "C2",
                    "midi": 36,
                    "time": 88.84114583333293,
                    "velocity": 0.6299212598425197,
                    "duration": 0.6927083333333286
                },
                {
                    "name": "C3",
                    "midi": 48,
                    "time": 88.84114583333293,
                    "velocity": 0.6299212598425197,
                    "duration": 0.6927083333333286
                },
                {
                    "name": "A3",
                    "midi": 57,
                    "time": 88.84114583333293,
                    "velocity": 0.6299212598425197,
                    "duration": 0.2447916666666714
                },
                {
                    "name": "D#4",
                    "midi": 63,
                    "time": 88.84114583333293,
                    "velocity": 0.6299212598425197,
                    "duration": 0.2447916666666714
                },
                {
                    "name": "G4",
                    "midi": 67,
                    "time": 88.84114583333293,
                    "velocity": 0.6299212598425197,
                    "duration": 0.2447916666666714
                },
                {
                    "name": "A3",
                    "midi": 57,
                    "time": 89.24739583333293,
                    "velocity": 0.6299212598425197,
                    "duration": 0.11458333333334281
                },
                {
                    "name": "F#4",
                    "midi": 66,
                    "time": 89.24739583333293,
                    "velocity": 0.6299212598425197,
                    "duration": 0.11458333333334281
                },
                {
                    "name": "D#4",
                    "midi": 63,
                    "time": 89.2499999999996,
                    "velocity": 0.6299212598425197,
                    "duration": 0.1119791666666714
                },
                {
                    "name": "A3",
                    "midi": 57,
                    "time": 89.5078124999996,
                    "velocity": 0.6299212598425197,
                    "duration": 0.3541666666666572
                },
                {
                    "name": "D#4",
                    "midi": 63,
                    "time": 89.5078124999996,
                    "velocity": 0.6299212598425197,
                    "duration": 0.3541666666666572
                },
                {
                    "name": "F4",
                    "midi": 65,
                    "time": 89.52083333333293,
                    "velocity": 0.6299212598425197,
                    "duration": 0.3411458333333286
                },
                {
                    "name": "F2",
                    "midi": 41,
                    "time": 89.64843749999959,
                    "velocity": 0.6299212598425197,
                    "duration": 0.2135416666666714
                },
                {
                    "name": "C3",
                    "midi": 48,
                    "time": 89.64843749999959,
                    "velocity": 0.6299212598425197,
                    "duration": 0.2135416666666714
                },
                {
                    "name": "E2",
                    "midi": 40,
                    "time": 90.06249999999959,
                    "velocity": 0.6299212598425197,
                    "duration": 0.0807291666666714
                },
                {
                    "name": "E3",
                    "midi": 52,
                    "time": 90.06249999999959,
                    "velocity": 0.6299212598425197,
                    "duration": 0.3125000000000142
                },
                {
                    "name": "F2",
                    "midi": 41,
                    "time": 90.33333333333293,
                    "velocity": 0.6299212598425197,
                    "duration": 0.2473958333333286
                },
                {
                    "name": "F3",
                    "midi": 53,
                    "time": 90.46614583333293,
                    "velocity": 0.6299212598425197,
                    "duration": 0.2421875
                },
                {
                    "name": "C#4",
                    "midi": 61,
                    "time": 90.7265624999996,
                    "velocity": 0.6299212598425197,
                    "duration": 0.08593749999998579
                },
                {
                    "name": "G#4",
                    "midi": 68,
                    "time": 90.7265624999996,
                    "velocity": 0.6299212598425197,
                    "duration": 0.04947916666665719
                },
                {
                    "name": "C#5",
                    "midi": 73,
                    "time": 90.7265624999996,
                    "velocity": 0.6299212598425197,
                    "duration": 0.08593749999998579
                },
                {
                    "name": "F3",
                    "midi": 53,
                    "time": 90.86458333333292,
                    "velocity": 0.6299212598425197,
                    "duration": 0.6770833333333428
                },
                {
                    "name": "D5",
                    "midi": 74,
                    "time": 90.86458333333292,
                    "velocity": 0.6299212598425197,
                    "duration": 0.0833333333333286
                },
                {
                    "name": "G#3",
                    "midi": 56,
                    "time": 90.86979166666625,
                    "velocity": 0.6299212598425197,
                    "duration": 0.2734375
                },
                {
                    "name": "A#3",
                    "midi": 58,
                    "time": 90.86979166666625,
                    "velocity": 0.6299212598425197,
                    "duration": 0.2057291666666714
                },
                {
                    "name": "D4",
                    "midi": 62,
                    "time": 90.86979166666625,
                    "velocity": 0.6299212598425197,
                    "duration": 0.049479166666671404
                },
                {
                    "name": "G#4",
                    "midi": 68,
                    "time": 90.86979166666625,
                    "velocity": 0.6299212598425197,
                    "duration": 0.0729166666666714
                },
                {
                    "name": "D5",
                    "midi": 74,
                    "time": 91.13020833333292,
                    "velocity": 0.6299212598425197,
                    "duration": 0.3723958333333428
                },
                {
                    "name": "G#5",
                    "midi": 80,
                    "time": 91.13020833333292,
                    "velocity": 0.6299212598425197,
                    "duration": 0.4114583333333428
                },
                {
                    "name": "D6",
                    "midi": 86,
                    "time": 91.16927083333292,
                    "velocity": 0.6299212598425197,
                    "duration": 0.3723958333333428
                },
                {
                    "name": "A#1",
                    "midi": 34,
                    "time": 91.26562499999959,
                    "velocity": 0.6299212598425197,
                    "duration": 0.109375
                },
                {
                    "name": "F3",
                    "midi": 53,
                    "time": 91.66927083333293,
                    "velocity": 0.6299212598425197,
                    "duration": 0.3020833333333144
                },
                {
                    "name": "G#3",
                    "midi": 56,
                    "time": 91.66927083333293,
                    "velocity": 0.6299212598425197,
                    "duration": 0.17447916666664298
                },
                {
                    "name": "A#3",
                    "midi": 58,
                    "time": 91.66927083333293,
                    "velocity": 0.6299212598425197,
                    "duration": 0.17447916666664298
                },
                {
                    "name": "C#5",
                    "midi": 73,
                    "time": 91.66927083333293,
                    "velocity": 0.6299212598425197,
                    "duration": 0.07291666666665719
                },
                {
                    "name": "G#5",
                    "midi": 80,
                    "time": 91.66927083333293,
                    "velocity": 0.6299212598425197,
                    "duration": 0.10677083333331439
                },
                {
                    "name": "C#6",
                    "midi": 85,
                    "time": 91.66927083333293,
                    "velocity": 0.6299212598425197,
                    "duration": 0.07812499999998579
                },
                {
                    "name": "D4",
                    "midi": 62,
                    "time": 91.69791666666626,
                    "velocity": 0.6299212598425197,
                    "duration": 0.11458333333331439
                },
                {
                    "name": "G#5",
                    "midi": 80,
                    "time": 91.92447916666625,
                    "velocity": 0.6299212598425197,
                    "duration": 0.1145833333333286
                },
                {
                    "name": "D6",
                    "midi": 86,
                    "time": 91.92447916666625,
                    "velocity": 0.6299212598425197,
                    "duration": 0.1145833333333286
                },
                {
                    "name": "D#2",
                    "midi": 39,
                    "time": 91.92968749999957,
                    "velocity": 0.6299212598425197,
                    "duration": 0.109375
                },
                {
                    "name": "D5",
                    "midi": 74,
                    "time": 91.92968749999957,
                    "velocity": 0.6299212598425197,
                    "duration": 0.109375
                },
                {
                    "name": "A#2",
                    "midi": 46,
                    "time": 92.05729166666625,
                    "velocity": 0.6299212598425197,
                    "duration": 0.1067708333333286
                },
                {
                    "name": "G3",
                    "midi": 55,
                    "time": 92.06249999999957,
                    "velocity": 0.6299212598425197,
                    "duration": 0.7343749999999858
                },
                {
                    "name": "G5",
                    "midi": 79,
                    "time": 92.06249999999957,
                    "velocity": 0.6299212598425197,
                    "duration": 0.2369791666666714
                },
                {
                    "name": "A#5",
                    "midi": 82,
                    "time": 92.06249999999957,
                    "velocity": 0.6299212598425197,
                    "duration": 0.2369791666666714
                },
                {
                    "name": "C6",
                    "midi": 84,
                    "time": 92.06249999999957,
                    "velocity": 0.6299212598425197,
                    "duration": 0.2421875
                },
                {
                    "name": "C5",
                    "midi": 72,
                    "time": 92.0911458333329,
                    "velocity": 0.6299212598425197,
                    "duration": 0.2083333333333428
                },
                {
                    "name": "A#3",
                    "midi": 58,
                    "time": 92.4505208333329,
                    "velocity": 0.6299212598425197,
                    "duration": 0.11979166666665719
                },
                {
                    "name": "D#4",
                    "midi": 63,
                    "time": 92.4505208333329,
                    "velocity": 0.6299212598425197,
                    "duration": 0.11979166666665719
                },
                {
                    "name": "G4",
                    "midi": 67,
                    "time": 92.4505208333329,
                    "velocity": 0.6299212598425197,
                    "duration": 0.1145833333333286
                },
                {
                    "name": "B4",
                    "midi": 71,
                    "time": 92.4505208333329,
                    "velocity": 0.6299212598425197,
                    "duration": 0.1145833333333286
                },
                {
                    "name": "B5",
                    "midi": 83,
                    "time": 92.4505208333329,
                    "velocity": 0.6299212598425197,
                    "duration": 0.11979166666665719
                },
                {
                    "name": "A#4",
                    "midi": 70,
                    "time": 92.71093749999956,
                    "velocity": 0.6299212598425197,
                    "duration": 0.2916666666666572
                },
                {
                    "name": "G5",
                    "midi": 79,
                    "time": 92.71093749999956,
                    "velocity": 0.6299212598425197,
                    "duration": 0.2916666666666572
                },
                {
                    "name": "A#5",
                    "midi": 82,
                    "time": 92.71093749999956,
                    "velocity": 0.6299212598425197,
                    "duration": 0.2916666666666572
                },
                {
                    "name": "D#2",
                    "midi": 39,
                    "time": 92.85156249999956,
                    "velocity": 0.6299212598425197,
                    "duration": 0.1145833333333286
                },
                {
                    "name": "D#3",
                    "midi": 51,
                    "time": 92.85156249999956,
                    "velocity": 0.6299212598425197,
                    "duration": 0.1145833333333286
                },
                {
                    "name": "B4",
                    "midi": 71,
                    "time": 93.11979166666622,
                    "velocity": 0.6299212598425197,
                    "duration": 0.1458333333333286
                },
                {
                    "name": "G5",
                    "midi": 79,
                    "time": 93.11979166666622,
                    "velocity": 0.6299212598425197,
                    "duration": 0.0546875
                },
                {
                    "name": "B5",
                    "midi": 83,
                    "time": 93.11979166666622,
                    "velocity": 0.6299212598425197,
                    "duration": 0.1458333333333286
                },
                {
                    "name": "F2",
                    "midi": 41,
                    "time": 93.25260416666622,
                    "velocity": 0.6299212598425197,
                    "duration": 0.1406249999999858
                },
                {
                    "name": "D3",
                    "midi": 50,
                    "time": 93.25260416666622,
                    "velocity": 0.6299212598425197,
                    "duration": 0.14583333333331439
                },
                {
                    "name": "C5",
                    "midi": 72,
                    "time": 93.25260416666622,
                    "velocity": 0.6299212598425197,
                    "duration": 0.11718749999998579
                },
                {
                    "name": "G5",
                    "midi": 79,
                    "time": 93.25260416666622,
                    "velocity": 0.6299212598425197,
                    "duration": 0.11197916666665719
                },
                {
                    "name": "C6",
                    "midi": 84,
                    "time": 93.25260416666622,
                    "velocity": 0.6299212598425197,
                    "duration": 0.11718749999998579
                },
                {
                    "name": "C#5",
                    "midi": 73,
                    "time": 93.52083333333286,
                    "velocity": 0.6299212598425197,
                    "duration": 0.078125
                },
                {
                    "name": "G5",
                    "midi": 79,
                    "time": 93.52083333333286,
                    "velocity": 0.6299212598425197,
                    "duration": 0.052083333333328596
                },
                {
                    "name": "C#6",
                    "midi": 85,
                    "time": 93.52083333333286,
                    "velocity": 0.6299212598425197,
                    "duration": 0.078125
                },
                {
                    "name": "D#3",
                    "midi": 51,
                    "time": 93.52604166666619,
                    "velocity": 0.6299212598425197,
                    "duration": 0.078125
                },
                {
                    "name": "F#2",
                    "midi": 42,
                    "time": 93.55729166666619,
                    "velocity": 0.6299212598425197,
                    "duration": 0.046875
                },
                {
                    "name": "G2",
                    "midi": 43,
                    "time": 93.65364583333286,
                    "velocity": 0.6299212598425197,
                    "duration": 0.0859375
                },
                {
                    "name": "E3",
                    "midi": 52,
                    "time": 93.65364583333286,
                    "velocity": 0.6299212598425197,
                    "duration": 1.3046875000000142
                },
                {
                    "name": "D5",
                    "midi": 74,
                    "time": 93.65364583333286,
                    "velocity": 0.6299212598425197,
                    "duration": 0.2213541666666714
                },
                {
                    "name": "G5",
                    "midi": 79,
                    "time": 93.65364583333286,
                    "velocity": 0.6299212598425197,
                    "duration": 0.2213541666666714
                },
                {
                    "name": "A#5",
                    "midi": 82,
                    "time": 93.65364583333286,
                    "velocity": 0.6299212598425197,
                    "duration": 0.2213541666666714
                },
                {
                    "name": "D6",
                    "midi": 86,
                    "time": 93.65364583333286,
                    "velocity": 0.6299212598425197,
                    "duration": 0.2213541666666714
                },
                {
                    "name": "G3",
                    "midi": 55,
                    "time": 94.06770833333286,
                    "velocity": 0.6299212598425197,
                    "duration": 0.0729166666666714
                },
                {
                    "name": "A#3",
                    "midi": 58,
                    "time": 94.06770833333286,
                    "velocity": 0.6299212598425197,
                    "duration": 0.0729166666666714
                },
                {
                    "name": "C4",
                    "midi": 60,
                    "time": 94.06770833333286,
                    "velocity": 0.6299212598425197,
                    "duration": 0.0729166666666714
                },
                {
                    "name": "E4",
                    "midi": 64,
                    "time": 94.06770833333286,
                    "velocity": 0.6299212598425197,
                    "duration": 0.0729166666666714
                },
                {
                    "name": "C5",
                    "midi": 72,
                    "time": 94.06770833333286,
                    "velocity": 0.6299212598425197,
                    "duration": 0.0729166666666714
                },
                {
                    "name": "G5",
                    "midi": 79,
                    "time": 94.06770833333286,
                    "velocity": 0.6299212598425197,
                    "duration": 0.0729166666666714
                },
                {
                    "name": "A#5",
                    "midi": 82,
                    "time": 94.06770833333286,
                    "velocity": 0.6299212598425197,
                    "duration": 0.0729166666666714
                },
                {
                    "name": "C6",
                    "midi": 84,
                    "time": 94.06770833333286,
                    "velocity": 0.6299212598425197,
                    "duration": 0.0729166666666714
                },
                {
                    "name": "D5",
                    "midi": 74,
                    "time": 94.33593749999953,
                    "velocity": 0.6299212598425197,
                    "duration": 0.0807291666666714
                },
                {
                    "name": "G5",
                    "midi": 79,
                    "time": 94.33593749999953,
                    "velocity": 0.6299212598425197,
                    "duration": 0.049479166666671404
                },
                {
                    "name": "D6",
                    "midi": 86,
                    "time": 94.33593749999953,
                    "velocity": 0.6299212598425197,
                    "duration": 0.0807291666666714
                },
                {
                    "name": "C2",
                    "midi": 36,
                    "time": 94.46614583333287,
                    "velocity": 0.6299212598425197,
                    "duration": 0.0911458333333286
                },
                {
                    "name": "C5",
                    "midi": 72,
                    "time": 94.46614583333287,
                    "velocity": 0.6299212598425197,
                    "duration": 0.0859375
                },
                {
                    "name": "G5",
                    "midi": 79,
                    "time": 94.46614583333287,
                    "velocity": 0.6299212598425197,
                    "duration": 0.0859375
                },
                {
                    "name": "A#5",
                    "midi": 82,
                    "time": 94.46614583333287,
                    "velocity": 0.6299212598425197,
                    "duration": 0.0859375
                },
                {
                    "name": "C6",
                    "midi": 84,
                    "time": 94.46614583333287,
                    "velocity": 0.6299212598425197,
                    "duration": 0.0859375
                },
                {
                    "name": "A#4",
                    "midi": 70,
                    "time": 94.74739583333287,
                    "velocity": 0.6299212598425197,
                    "duration": 0.078125
                },
                {
                    "name": "E5",
                    "midi": 76,
                    "time": 94.74739583333287,
                    "velocity": 0.6299212598425197,
                    "duration": 0.049479166666671404
                },
                {
                    "name": "A#5",
                    "midi": 82,
                    "time": 94.74739583333287,
                    "velocity": 0.6299212598425197,
                    "duration": 0.0833333333333286
                },
                {
                    "name": "G3",
                    "midi": 55,
                    "time": 94.88020833333287,
                    "velocity": 0.6299212598425197,
                    "duration": 0.078125
                },
                {
                    "name": "A#3",
                    "midi": 58,
                    "time": 94.88020833333287,
                    "velocity": 0.6299212598425197,
                    "duration": 0.3489583333333428
                },
                {
                    "name": "C4",
                    "midi": 60,
                    "time": 94.88020833333287,
                    "velocity": 0.6299212598425197,
                    "duration": 0.078125
                },
                {
                    "name": "E4",
                    "midi": 64,
                    "time": 94.88020833333287,
                    "velocity": 0.6299212598425197,
                    "duration": 0.078125
                },
                {
                    "name": "G4",
                    "midi": 67,
                    "time": 94.88020833333287,
                    "velocity": 0.6299212598425197,
                    "duration": 0.078125
                },
                {
                    "name": "E5",
                    "midi": 76,
                    "time": 94.88020833333287,
                    "velocity": 0.6299212598425197,
                    "duration": 0.0729166666666714
                },
                {
                    "name": "G5",
                    "midi": 79,
                    "time": 94.88020833333287,
                    "velocity": 0.6299212598425197,
                    "duration": 0.078125
                },
                {
                    "name": "C3",
                    "midi": 48,
                    "time": 95.14843749999955,
                    "velocity": 0.6299212598425197,
                    "duration": 0.0807291666666714
                },
                {
                    "name": "A4",
                    "midi": 69,
                    "time": 95.14843749999955,
                    "velocity": 0.6299212598425197,
                    "duration": 0.0807291666666714
                },
                {
                    "name": "E5",
                    "midi": 76,
                    "time": 95.14843749999955,
                    "velocity": 0.6299212598425197,
                    "duration": 0.0807291666666714
                },
                {
                    "name": "A5",
                    "midi": 81,
                    "time": 95.14843749999955,
                    "velocity": 0.6299212598425197,
                    "duration": 0.0807291666666714
                },
                {
                    "name": "A3",
                    "midi": 57,
                    "time": 95.28906249999955,
                    "velocity": 0.6299212598425197,
                    "duration": 0.2838541666666714
                },
                {
                    "name": "C4",
                    "midi": 60,
                    "time": 95.28906249999955,
                    "velocity": 0.6299212598425197,
                    "duration": 0.1875
                },
                {
                    "name": "G4",
                    "midi": 67,
                    "time": 95.28906249999955,
                    "velocity": 0.6299212598425197,
                    "duration": 0.1822916666666714
                },
                {
                    "name": "D#5",
                    "midi": 75,
                    "time": 95.28906249999955,
                    "velocity": 0.6299212598425197,
                    "duration": 0.1822916666666714
                },
                {
                    "name": "G5",
                    "midi": 79,
                    "time": 95.28906249999955,
                    "velocity": 0.6299212598425197,
                    "duration": 0.1875
                },
                {
                    "name": "A3",
                    "midi": 57,
                    "time": 95.68749999999955,
                    "velocity": 0.6299212598425197,
                    "duration": 0.6171875
                },
                {
                    "name": "D4",
                    "midi": 62,
                    "time": 95.68749999999955,
                    "velocity": 0.6299212598425197,
                    "duration": 0.1171875
                },
                {
                    "name": "G#4",
                    "midi": 68,
                    "time": 95.68749999999955,
                    "velocity": 0.6299212598425197,
                    "duration": 0.1171875
                },
                {
                    "name": "B4",
                    "midi": 71,
                    "time": 95.68749999999955,
                    "velocity": 0.6299212598425197,
                    "duration": 0.1171875
                },
                {
                    "name": "D5",
                    "midi": 74,
                    "time": 95.68749999999955,
                    "velocity": 0.6299212598425197,
                    "duration": 0.1171875
                },
                {
                    "name": "F3",
                    "midi": 53,
                    "time": 95.69270833333287,
                    "velocity": 0.6299212598425197,
                    "duration": 0.1119791666666714
                },
                {
                    "name": "D#4",
                    "midi": 63,
                    "time": 95.95572916666622,
                    "velocity": 0.6299212598425197,
                    "duration": 0.3489583333333286
                },
                {
                    "name": "A4",
                    "midi": 69,
                    "time": 95.95572916666622,
                    "velocity": 0.6299212598425197,
                    "duration": 0.3489583333333286
                },
                {
                    "name": "C5",
                    "midi": 72,
                    "time": 95.95572916666622,
                    "velocity": 0.6299212598425197,
                    "duration": 0.34375
                },
                {
                    "name": "D#5",
                    "midi": 75,
                    "time": 95.95572916666622,
                    "velocity": 0.6299212598425197,
                    "duration": 0.34375
                },
                {
                    "name": "F2",
                    "midi": 41,
                    "time": 96.09635416666622,
                    "velocity": 0.6299212598425197,
                    "duration": 0.0807291666666714
                },
                {
                    "name": "C3",
                    "midi": 48,
                    "time": 96.09635416666622,
                    "velocity": 0.6299212598425197,
                    "duration": 0.0807291666666714
                },
                {
                    "name": "D#4",
                    "midi": 63,
                    "time": 96.48177083333287,
                    "velocity": 0.6299212598425197,
                    "duration": 0.078125
                },
                {
                    "name": "F4",
                    "midi": 65,
                    "time": 96.48177083333287,
                    "velocity": 0.6299212598425197,
                    "duration": 0.2421875
                },
                {
                    "name": "A4",
                    "midi": 69,
                    "time": 96.48177083333287,
                    "velocity": 0.6299212598425197,
                    "duration": 0.2421875
                },
                {
                    "name": "C5",
                    "midi": 72,
                    "time": 96.48177083333287,
                    "velocity": 0.6299212598425197,
                    "duration": 0.2421875
                },
                {
                    "name": "D#5",
                    "midi": 75,
                    "time": 96.48177083333287,
                    "velocity": 0.6299212598425197,
                    "duration": 0.2421875
                },
                {
                    "name": "F5",
                    "midi": 77,
                    "time": 96.48177083333287,
                    "velocity": 0.6299212598425197,
                    "duration": 0.2421875
                },
                {
                    "name": "F3",
                    "midi": 53,
                    "time": 96.4869791666662,
                    "velocity": 0.6299212598425197,
                    "duration": 0.0729166666666714
                },
                {
                    "name": "A3",
                    "midi": 57,
                    "time": 96.4869791666662,
                    "velocity": 0.6299212598425197,
                    "duration": 0.2369791666666714
                },
                {
                    "name": "C4",
                    "midi": 60,
                    "time": 96.4869791666662,
                    "velocity": 0.6299212598425197,
                    "duration": 0.0729166666666714
                },
                {
                    "name": "D2",
                    "midi": 38,
                    "time": 96.74999999999955,
                    "velocity": 0.6299212598425197,
                    "duration": 0.078125
                },
                {
                    "name": "D3",
                    "midi": 50,
                    "time": 96.87239583333287,
                    "velocity": 0.6299212598425197,
                    "duration": 0.7161458333333144
                },
                {
                    "name": "A#3",
                    "midi": 58,
                    "time": 96.87239583333287,
                    "velocity": 0.6299212598425197,
                    "duration": 0.2526041666666714
                },
                {
                    "name": "C#5",
                    "midi": 73,
                    "time": 97.13802083333287,
                    "velocity": 0.6299212598425197,
                    "duration": 0.15104166666664298
                },
                {
                    "name": "C#4",
                    "midi": 61,
                    "time": 97.1432291666662,
                    "velocity": 0.6299212598425197,
                    "duration": 0.1145833333333286
                },
                {
                    "name": "A#4",
                    "midi": 70,
                    "time": 97.1432291666662,
                    "velocity": 0.6299212598425197,
                    "duration": 0.044270833333328596
                },
                {
                    "name": "A#4",
                    "midi": 70,
                    "time": 97.27083333333286,
                    "velocity": 0.6299212598425197,
                    "duration": 0.1145833333333286
                },
                {
                    "name": "D5",
                    "midi": 74,
                    "time": 97.27083333333286,
                    "velocity": 0.6299212598425197,
                    "duration": 0.1145833333333286
                },
                {
                    "name": "F3",
                    "midi": 53,
                    "time": 97.27604166666619,
                    "velocity": 0.6299212598425197,
                    "duration": 0.109375
                },
                {
                    "name": "A#3",
                    "midi": 58,
                    "time": 97.27604166666619,
                    "velocity": 0.6299212598425197,
                    "duration": 0.109375
                },
                {
                    "name": "D4",
                    "midi": 62,
                    "time": 97.27604166666619,
                    "velocity": 0.6299212598425197,
                    "duration": 0.109375
                },
                {
                    "name": "A4",
                    "midi": 69,
                    "time": 97.53906249999952,
                    "velocity": 0.6299212598425197,
                    "duration": 0.25
                },
                {
                    "name": "E5",
                    "midi": 76,
                    "time": 97.53906249999952,
                    "velocity": 0.6299212598425197,
                    "duration": 0.2447916666666714
                },
                {
                    "name": "A5",
                    "midi": 81,
                    "time": 97.53906249999952,
                    "velocity": 0.6299212598425197,
                    "duration": 0.2447916666666714
                },
                {
                    "name": "C#2",
                    "midi": 37,
                    "time": 97.67447916666619,
                    "velocity": 0.6299212598425197,
                    "duration": 0.078125
                },
                {
                    "name": "C#3",
                    "midi": 49,
                    "time": 97.67447916666619,
                    "velocity": 0.6299212598425197,
                    "duration": 0.729166666666643
                },
                {
                    "name": "G#4",
                    "midi": 68,
                    "time": 97.94531249999952,
                    "velocity": 0.6299212598425197,
                    "duration": 0.08072916666665719
                },
                {
                    "name": "E5",
                    "midi": 76,
                    "time": 97.94531249999952,
                    "velocity": 0.6299212598425197,
                    "duration": 0.052083333333328596
                },
                {
                    "name": "G#5",
                    "midi": 80,
                    "time": 97.94531249999952,
                    "velocity": 0.6299212598425197,
                    "duration": 0.08072916666665719
                },
                {
                    "name": "G3",
                    "midi": 55,
                    "time": 98.08072916666617,
                    "velocity": 0.6299212598425197,
                    "duration": 0.07812499999998579
                },
                {
                    "name": "A#3",
                    "midi": 58,
                    "time": 98.08072916666617,
                    "velocity": 0.6299212598425197,
                    "duration": 0.07812499999998579
                },
                {
                    "name": "C#4",
                    "midi": 61,
                    "time": 98.08072916666617,
                    "velocity": 0.6299212598425197,
                    "duration": 0.07812499999998579
                },
                {
                    "name": "E4",
                    "midi": 64,
                    "time": 98.08072916666617,
                    "velocity": 0.6299212598425197,
                    "duration": 0.07812499999998579
                },
                {
                    "name": "G4",
                    "midi": 67,
                    "time": 98.08072916666617,
                    "velocity": 0.6299212598425197,
                    "duration": 0.07291666666665719
                },
                {
                    "name": "G5",
                    "midi": 79,
                    "time": 98.08072916666617,
                    "velocity": 0.6299212598425197,
                    "duration": 0.07291666666665719
                },
                {
                    "name": "E5",
                    "midi": 76,
                    "time": 98.0859374999995,
                    "velocity": 0.6299212598425197,
                    "duration": 0.0677083333333286
                },
                {
                    "name": "C2",
                    "midi": 36,
                    "time": 98.35416666666616,
                    "velocity": 0.6299212598425197,
                    "duration": 0.140625
                },
                {
                    "name": "A4",
                    "midi": 69,
                    "time": 98.35416666666616,
                    "velocity": 0.6299212598425197,
                    "duration": 0.1171875
                },
                {
                    "name": "E5",
                    "midi": 76,
                    "time": 98.35416666666616,
                    "velocity": 0.6299212598425197,
                    "duration": 0.1171875
                },
                {
                    "name": "A5",
                    "midi": 81,
                    "time": 98.35416666666616,
                    "velocity": 0.6299212598425197,
                    "duration": 0.1171875
                },
                {
                    "name": "G4",
                    "midi": 67,
                    "time": 98.48958333333283,
                    "velocity": 0.6299212598425197,
                    "duration": 0.3333333333333286
                },
                {
                    "name": "D#5",
                    "midi": 75,
                    "time": 98.48958333333283,
                    "velocity": 0.6299212598425197,
                    "duration": 0.3333333333333286
                },
                {
                    "name": "G5",
                    "midi": 79,
                    "time": 98.48958333333283,
                    "velocity": 0.6299212598425197,
                    "duration": 0.3333333333333286
                },
                {
                    "name": "C3",
                    "midi": 48,
                    "time": 98.48958333333283,
                    "velocity": 0.6299212598425197,
                    "duration": 0.8854166666666714
                },
                {
                    "name": "F3",
                    "midi": 53,
                    "time": 98.87760416666616,
                    "velocity": 0.6299212598425197,
                    "duration": 0.0729166666666714
                },
                {
                    "name": "A3",
                    "midi": 57,
                    "time": 98.87760416666616,
                    "velocity": 0.6299212598425197,
                    "duration": 0.0729166666666714
                },
                {
                    "name": "C4",
                    "midi": 60,
                    "time": 98.87760416666616,
                    "velocity": 0.6299212598425197,
                    "duration": 0.0729166666666714
                },
                {
                    "name": "D#4",
                    "midi": 63,
                    "time": 98.87760416666616,
                    "velocity": 0.6299212598425197,
                    "duration": 0.0729166666666714
                },
                {
                    "name": "D5",
                    "midi": 74,
                    "time": 99.1718749999995,
                    "velocity": 0.6299212598425197,
                    "duration": 0.078125
                },
                {
                    "name": "D4",
                    "midi": 62,
                    "time": 99.17708333333283,
                    "velocity": 0.6299212598425197,
                    "duration": 0.041666666666671404
                },
                {
                    "name": "D#4",
                    "midi": 63,
                    "time": 99.2656249999995,
                    "velocity": 0.6299212598425197,
                    "duration": 0.109375
                },
                {
                    "name": "A4",
                    "midi": 69,
                    "time": 99.2656249999995,
                    "velocity": 0.6299212598425197,
                    "duration": 0.109375
                },
                {
                    "name": "C5",
                    "midi": 72,
                    "time": 99.2656249999995,
                    "velocity": 0.6299212598425197,
                    "duration": 0.109375
                },
                {
                    "name": "D#5",
                    "midi": 75,
                    "time": 99.2656249999995,
                    "velocity": 0.6299212598425197,
                    "duration": 0.109375
                },
                {
                    "name": "F1",
                    "midi": 29,
                    "time": 99.3046874999995,
                    "velocity": 0.6299212598425197,
                    "duration": 0.0703125
                },
                {
                    "name": "G4",
                    "midi": 67,
                    "time": 99.52864583333283,
                    "velocity": 0.6299212598425197,
                    "duration": 0.109375
                },
                {
                    "name": "C5",
                    "midi": 72,
                    "time": 99.52864583333283,
                    "velocity": 0.6299212598425197,
                    "duration": 0.2369791666666572
                },
                {
                    "name": "D#5",
                    "midi": 75,
                    "time": 99.52864583333283,
                    "velocity": 0.6299212598425197,
                    "duration": 0.2317708333333286
                },
                {
                    "name": "G5",
                    "midi": 79,
                    "time": 99.52864583333283,
                    "velocity": 0.6299212598425197,
                    "duration": 0.109375
                },
                {
                    "name": "F3",
                    "midi": 53,
                    "time": 99.65104166666616,
                    "velocity": 0.6299212598425197,
                    "duration": 0.1145833333333286
                },
                {
                    "name": "A3",
                    "midi": 57,
                    "time": 99.65104166666616,
                    "velocity": 0.6299212598425197,
                    "duration": 0.2734375
                },
                {
                    "name": "C4",
                    "midi": 60,
                    "time": 99.65104166666616,
                    "velocity": 0.6299212598425197,
                    "duration": 0.1145833333333286
                },
                {
                    "name": "D#4",
                    "midi": 63,
                    "time": 99.65104166666616,
                    "velocity": 0.6299212598425197,
                    "duration": 0.1145833333333286
                },
                {
                    "name": "F4",
                    "midi": 65,
                    "time": 99.65104166666616,
                    "velocity": 0.6299212598425197,
                    "duration": 0.1145833333333286
                },
                {
                    "name": "A4",
                    "midi": 69,
                    "time": 99.65104166666616,
                    "velocity": 0.6299212598425197,
                    "duration": 0.1145833333333286
                },
                {
                    "name": "F5",
                    "midi": 77,
                    "time": 99.65104166666616,
                    "velocity": 0.6299212598425197,
                    "duration": 0.1145833333333286
                },
                {
                    "name": "D#4",
                    "midi": 63,
                    "time": 99.90624999999949,
                    "velocity": 0.6299212598425197,
                    "duration": 0.078125
                },
                {
                    "name": "A4",
                    "midi": 69,
                    "time": 99.90624999999949,
                    "velocity": 0.6299212598425197,
                    "duration": 0.078125
                },
                {
                    "name": "C5",
                    "midi": 72,
                    "time": 99.90624999999949,
                    "velocity": 0.6299212598425197,
                    "duration": 0.078125
                },
                {
                    "name": "D#5",
                    "midi": 75,
                    "time": 99.90624999999949,
                    "velocity": 0.6299212598425197,
                    "duration": 0.078125
                },
                {
                    "name": "A#2",
                    "midi": 46,
                    "time": 100.03906249999949,
                    "velocity": 0.6299212598425197,
                    "duration": 0.078125
                },
                {
                    "name": "G#3",
                    "midi": 56,
                    "time": 100.03906249999949,
                    "velocity": 0.6299212598425197,
                    "duration": 0.2916666666666572
                },
                {
                    "name": "D4",
                    "midi": 62,
                    "time": 100.03906249999949,
                    "velocity": 0.6299212598425197,
                    "duration": 0.078125
                },
                {
                    "name": "A#4",
                    "midi": 70,
                    "time": 100.03906249999949,
                    "velocity": 0.6299212598425197,
                    "duration": 0.078125
                },
                {
                    "name": "D5",
                    "midi": 74,
                    "time": 100.03906249999949,
                    "velocity": 0.6299212598425197,
                    "duration": 0.078125
                },
                {
                    "name": "F4",
                    "midi": 65,
                    "time": 100.31770833333282,
                    "velocity": 0.6299212598425197,
                    "duration": 0.11197916666665719
                },
                {
                    "name": "F5",
                    "midi": 77,
                    "time": 100.31770833333282,
                    "velocity": 0.6299212598425197,
                    "duration": 0.044270833333328596
                },
                {
                    "name": "A#3",
                    "midi": 58,
                    "time": 100.45312499999947,
                    "velocity": 0.6299212598425197,
                    "duration": 0.078125
                },
                {
                    "name": "D5",
                    "midi": 74,
                    "time": 100.45312499999947,
                    "velocity": 0.6299212598425197,
                    "duration": 0.078125
                },
                {
                    "name": "F5",
                    "midi": 77,
                    "time": 100.45312499999947,
                    "velocity": 0.6299212598425197,
                    "duration": 0.078125
                },
                {
                    "name": "G#5",
                    "midi": 80,
                    "time": 100.45312499999947,
                    "velocity": 0.6299212598425197,
                    "duration": 0.078125
                },
                {
                    "name": "F3",
                    "midi": 53,
                    "time": 100.4583333333328,
                    "velocity": 0.6299212598425197,
                    "duration": 0.0729166666666714
                },
                {
                    "name": "G#3",
                    "midi": 56,
                    "time": 100.4583333333328,
                    "velocity": 0.6299212598425197,
                    "duration": 1.1328125
                },
                {
                    "name": "D4",
                    "midi": 62,
                    "time": 100.4583333333328,
                    "velocity": 0.6299212598425197,
                    "duration": 0.0729166666666714
                },
                {
                    "name": "G#4",
                    "midi": 68,
                    "time": 100.4583333333328,
                    "velocity": 0.6299212598425197,
                    "duration": 0.0729166666666714
                },
                {
                    "name": "D5",
                    "midi": 74,
                    "time": 100.72656249999947,
                    "velocity": 0.6299212598425197,
                    "duration": 0.2473958333333286
                },
                {
                    "name": "D6",
                    "midi": 86,
                    "time": 100.72656249999947,
                    "velocity": 0.6299212598425197,
                    "duration": 0.2473958333333286
                },
                {
                    "name": "G#5",
                    "midi": 80,
                    "time": 100.7317708333328,
                    "velocity": 0.6299212598425197,
                    "duration": 0.2473958333333286
                },
                {
                    "name": "F2",
                    "midi": 41,
                    "time": 100.85937499999947,
                    "velocity": 0.6299212598425197,
                    "duration": 0.1145833333333286
                },
                {
                    "name": "C#5",
                    "midi": 73,
                    "time": 101.1302083333328,
                    "velocity": 0.6299212598425197,
                    "duration": 0.0807291666666714
                },
                {
                    "name": "C#6",
                    "midi": 85,
                    "time": 101.1302083333328,
                    "velocity": 0.6299212598425197,
                    "duration": 0.0807291666666714
                },
                {
                    "name": "F3",
                    "midi": 53,
                    "time": 101.2708333333328,
                    "velocity": 0.6299212598425197,
                    "duration": 0.078125
                },
                {
                    "name": "A#3",
                    "midi": 58,
                    "time": 101.2708333333328,
                    "velocity": 0.6299212598425197,
                    "duration": 0.0729166666666714
                },
                {
                    "name": "D4",
                    "midi": 62,
                    "time": 101.2708333333328,
                    "velocity": 0.6299212598425197,
                    "duration": 0.078125
                },
                {
                    "name": "C5",
                    "midi": 72,
                    "time": 101.2708333333328,
                    "velocity": 0.6299212598425197,
                    "duration": 0.0729166666666714
                },
                {
                    "name": "G#5",
                    "midi": 80,
                    "time": 101.2708333333328,
                    "velocity": 0.6299212598425197,
                    "duration": 0.0729166666666714
                },
                {
                    "name": "C6",
                    "midi": 84,
                    "time": 101.2708333333328,
                    "velocity": 0.6299212598425197,
                    "duration": 0.078125
                },
                {
                    "name": "D6",
                    "midi": 86,
                    "time": 101.53124999999947,
                    "velocity": 0.6299212598425197,
                    "duration": 0.0911458333333286
                },
                {
                    "name": "D#2",
                    "midi": 39,
                    "time": 101.5364583333328,
                    "velocity": 0.6299212598425197,
                    "duration": 0.0859375
                },
                {
                    "name": "D5",
                    "midi": 74,
                    "time": 101.5364583333328,
                    "velocity": 0.6299212598425197,
                    "duration": 0.0859375
                },
                {
                    "name": "G#5",
                    "midi": 80,
                    "time": 101.5364583333328,
                    "velocity": 0.6299212598425197,
                    "duration": 0.0859375
                },
                {
                    "name": "A#2",
                    "midi": 46,
                    "time": 101.6770833333328,
                    "velocity": 0.6299212598425197,
                    "duration": 0.078125
                },
                {
                    "name": "G3",
                    "midi": 55,
                    "time": 101.6770833333328,
                    "velocity": 0.6299212598425197,
                    "duration": 0.6276041666666714
                },
                {
                    "name": "C5",
                    "midi": 72,
                    "time": 101.6770833333328,
                    "velocity": 0.6299212598425197,
                    "duration": 0.2161458333333286
                },
                {
                    "name": "G5",
                    "midi": 79,
                    "time": 101.6770833333328,
                    "velocity": 0.6299212598425197,
                    "duration": 0.2109375
                },
                {
                    "name": "C6",
                    "midi": 84,
                    "time": 101.6770833333328,
                    "velocity": 0.6299212598425197,
                    "duration": 0.2109375
                },
                {
                    "name": "A#3",
                    "midi": 58,
                    "time": 102.0833333333328,
                    "velocity": 0.6299212598425197,
                    "duration": 0.0859375
                },
                {
                    "name": "D#4",
                    "midi": 63,
                    "time": 102.0833333333328,
                    "velocity": 0.6299212598425197,
                    "duration": 0.0859375
                },
                {
                    "name": "G4",
                    "midi": 67,
                    "time": 102.0833333333328,
                    "velocity": 0.6299212598425197,
                    "duration": 0.0807291666666714
                },
                {
                    "name": "B4",
                    "midi": 71,
                    "time": 102.0833333333328,
                    "velocity": 0.6299212598425197,
                    "duration": 0.0859375
                },
                {
                    "name": "B5",
                    "midi": 83,
                    "time": 102.0833333333328,
                    "velocity": 0.6299212598425197,
                    "duration": 0.0807291666666714
                },
                {
                    "name": "A#2",
                    "midi": 46,
                    "time": 102.35416666666615,
                    "velocity": 0.6299212598425197,
                    "duration": 0.1041666666666714
                },
                {
                    "name": "A#4",
                    "midi": 70,
                    "time": 102.35416666666615,
                    "velocity": 0.6299212598425197,
                    "duration": 0.1796875000000142
                },
                {
                    "name": "D#5",
                    "midi": 75,
                    "time": 102.35416666666615,
                    "velocity": 0.6299212598425197,
                    "duration": 0.20572916666668561
                },
                {
                    "name": "G5",
                    "midi": 79,
                    "time": 102.35416666666615,
                    "velocity": 0.6299212598425197,
                    "duration": 0.20833333333335702
                },
                {
                    "name": "A#5",
                    "midi": 82,
                    "time": 102.35416666666615,
                    "velocity": 0.6299212598425197,
                    "duration": 0.20572916666668561
                },
                {
                    "name": "G3",
                    "midi": 55,
                    "time": 102.48437499999949,
                    "velocity": 0.6299212598425197,
                    "duration": 0.7109375000000142
                },
                {
                    "name": "A#3",
                    "midi": 58,
                    "time": 102.48437499999949,
                    "velocity": 0.6299212598425197,
                    "duration": 0.1458333333333428
                },
                {
                    "name": "A4",
                    "midi": 69,
                    "time": 102.7578124999995,
                    "velocity": 0.6299212598425197,
                    "duration": 0.1171875
                },
                {
                    "name": "A5",
                    "midi": 81,
                    "time": 102.7578124999995,
                    "velocity": 0.6299212598425197,
                    "duration": 0.1119791666666714
                },
                {
                    "name": "A#3",
                    "midi": 58,
                    "time": 102.88541666666617,
                    "velocity": 0.6299212598425197,
                    "duration": 0.1822916666666572
                },
                {
                    "name": "D#4",
                    "midi": 63,
                    "time": 102.88541666666617,
                    "velocity": 0.6299212598425197,
                    "duration": 0.1145833333333286
                },
                {
                    "name": "G4",
                    "midi": 67,
                    "time": 102.88541666666617,
                    "velocity": 0.6299212598425197,
                    "duration": 0.1145833333333286
                },
                {
                    "name": "A#4",
                    "midi": 70,
                    "time": 102.88541666666617,
                    "velocity": 0.6299212598425197,
                    "duration": 0.1822916666666572
                },
                {
                    "name": "A#5",
                    "midi": 82,
                    "time": 102.88541666666617,
                    "velocity": 0.6299212598425197,
                    "duration": 0.1458333333333286
                },
                {
                    "name": "B4",
                    "midi": 71,
                    "time": 103.15364583333283,
                    "velocity": 0.6299212598425197,
                    "duration": 0.11458333333334281
                },
                {
                    "name": "B5",
                    "midi": 83,
                    "time": 103.15364583333283,
                    "velocity": 0.6299212598425197,
                    "duration": 0.11458333333334281
                },
                {
                    "name": "D#2",
                    "midi": 39,
                    "time": 103.28645833333285,
                    "velocity": 0.6299212598425197,
                    "duration": 0.1171875
                },
                {
                    "name": "D#3",
                    "midi": 51,
                    "time": 103.28645833333285,
                    "velocity": 0.6299212598425197,
                    "duration": 0.7161458333333428
                },
                {
                    "name": "C5",
                    "midi": 72,
                    "time": 103.28645833333285,
                    "velocity": 0.6299212598425197,
                    "duration": 0.0807291666666714
                },
                {
                    "name": "G5",
                    "midi": 79,
                    "time": 103.28645833333285,
                    "velocity": 0.6299212598425197,
                    "duration": 0.0807291666666714
                },
                {
                    "name": "C6",
                    "midi": 84,
                    "time": 103.28645833333285,
                    "velocity": 0.6299212598425197,
                    "duration": 0.0807291666666714
                },
                {
                    "name": "A#4",
                    "midi": 70,
                    "time": 103.55729166666617,
                    "velocity": 0.6299212598425197,
                    "duration": 0.078125
                },
                {
                    "name": "A#5",
                    "midi": 82,
                    "time": 103.55729166666617,
                    "velocity": 0.6299212598425197,
                    "duration": 0.078125
                },
                {
                    "name": "A#3",
                    "midi": 58,
                    "time": 103.69010416666617,
                    "velocity": 0.6299212598425197,
                    "duration": 0.0807291666666714
                },
                {
                    "name": "D#4",
                    "midi": 63,
                    "time": 103.69010416666617,
                    "velocity": 0.6299212598425197,
                    "duration": 0.0807291666666714
                },
                {
                    "name": "A4",
                    "midi": 69,
                    "time": 103.69010416666617,
                    "velocity": 0.6299212598425197,
                    "duration": 0.0807291666666714
                },
                {
                    "name": "A5",
                    "midi": 81,
                    "time": 103.69010416666617,
                    "velocity": 0.6299212598425197,
                    "duration": 0.0807291666666714
                },
                {
                    "name": "G4",
                    "midi": 67,
                    "time": 103.96093749999952,
                    "velocity": 0.6299212598425197,
                    "duration": 0.109375
                },
                {
                    "name": "G5",
                    "midi": 79,
                    "time": 103.96093749999952,
                    "velocity": 0.6299212598425197,
                    "duration": 0.109375
                },
                {
                    "name": "E2",
                    "midi": 40,
                    "time": 104.08854166666619,
                    "velocity": 0.6299212598425197,
                    "duration": 0.109375
                },
                {
                    "name": "E3",
                    "midi": 52,
                    "time": 104.08854166666619,
                    "velocity": 0.6299212598425197,
                    "duration": 0.7135416666666572
                },
                {
                    "name": "C5",
                    "midi": 72,
                    "time": 104.08854166666619,
                    "velocity": 0.6299212598425197,
                    "duration": 0.109375
                },
                {
                    "name": "C6",
                    "midi": 84,
                    "time": 104.08854166666619,
                    "velocity": 0.6299212598425197,
                    "duration": 0.109375
                },
                {
                    "name": "A#4",
                    "midi": 70,
                    "time": 104.35677083333286,
                    "velocity": 0.6299212598425197,
                    "duration": 0.0807291666666714
                },
                {
                    "name": "A#5",
                    "midi": 82,
                    "time": 104.35677083333286,
                    "velocity": 0.6299212598425197,
                    "duration": 0.0807291666666714
                },
                {
                    "name": "A5",
                    "midi": 81,
                    "time": 104.49218749999953,
                    "velocity": 0.6299212598425197,
                    "duration": 0.1145833333333286
                },
                {
                    "name": "A#3",
                    "midi": 58,
                    "time": 104.49739583333286,
                    "velocity": 0.6299212598425197,
                    "duration": 0.0703125
                },
                {
                    "name": "C#4",
                    "midi": 61,
                    "time": 104.49739583333286,
                    "velocity": 0.6299212598425197,
                    "duration": 0.0703125
                },
                {
                    "name": "E4",
                    "midi": 64,
                    "time": 104.49739583333286,
                    "velocity": 0.6299212598425197,
                    "duration": 0.0703125
                },
                {
                    "name": "A4",
                    "midi": 69,
                    "time": 104.49739583333286,
                    "velocity": 0.6299212598425197,
                    "duration": 0.1145833333333286
                },
                {
                    "name": "G4",
                    "midi": 67,
                    "time": 104.75781249999952,
                    "velocity": 0.6299212598425197,
                    "duration": 0.07812499999998579
                },
                {
                    "name": "D5",
                    "midi": 74,
                    "time": 104.75781249999952,
                    "velocity": 0.6299212598425197,
                    "duration": 0.04947916666665719
                },
                {
                    "name": "G5",
                    "midi": 79,
                    "time": 104.75781249999952,
                    "velocity": 0.6299212598425197,
                    "duration": 0.07812499999998579
                },
                {
                    "name": "F2",
                    "midi": 41,
                    "time": 104.8906249999995,
                    "velocity": 0.6299212598425197,
                    "duration": 0.1145833333333286
                },
                {
                    "name": "F3",
                    "midi": 53,
                    "time": 104.8906249999995,
                    "velocity": 0.6299212598425197,
                    "duration": 0.2552083333333286
                },
                {
                    "name": "F4",
                    "midi": 65,
                    "time": 104.8906249999995,
                    "velocity": 0.6299212598425197,
                    "duration": 0.078125
                },
                {
                    "name": "F5",
                    "midi": 77,
                    "time": 104.8906249999995,
                    "velocity": 0.6299212598425197,
                    "duration": 0.078125
                },
                {
                    "name": "D5",
                    "midi": 74,
                    "time": 104.89583333333283,
                    "velocity": 0.6299212598425197,
                    "duration": 0.0729166666666714
                },
                {
                    "name": "C#4",
                    "midi": 61,
                    "time": 105.1640624999995,
                    "velocity": 0.6299212598425197,
                    "duration": 0.0807291666666714
                },
                {
                    "name": "C#5",
                    "midi": 73,
                    "time": 105.1640624999995,
                    "velocity": 0.6299212598425197,
                    "duration": 0.0807291666666714
                },
                {
                    "name": "F3",
                    "midi": 53,
                    "time": 105.29947916666617,
                    "velocity": 0.6299212598425197,
                    "duration": 0.276041666666643
                },
                {
                    "name": "A#3",
                    "midi": 58,
                    "time": 105.29947916666617,
                    "velocity": 0.6299212598425197,
                    "duration": 0.1406249999999858
                },
                {
                    "name": "A#4",
                    "midi": 70,
                    "time": 105.29947916666617,
                    "velocity": 0.6299212598425197,
                    "duration": 0.07031249999998579
                },
                {
                    "name": "D5",
                    "midi": 74,
                    "time": 105.29947916666617,
                    "velocity": 0.6299212598425197,
                    "duration": 0.07031249999998579
                },
                {
                    "name": "D4",
                    "midi": 62,
                    "time": 105.3046874999995,
                    "velocity": 0.6299212598425197,
                    "duration": 0.059895833333328596
                },
                {
                    "name": "A4",
                    "midi": 69,
                    "time": 105.56249999999949,
                    "velocity": 0.6299212598425197,
                    "duration": 0.6041666666666572
                },
                {
                    "name": "F5",
                    "midi": 77,
                    "time": 105.56249999999949,
                    "velocity": 0.6299212598425197,
                    "duration": 0.6041666666666572
                },
                {
                    "name": "A5",
                    "midi": 81,
                    "time": 105.56249999999949,
                    "velocity": 0.6299212598425197,
                    "duration": 0.6041666666666572
                },
                {
                    "name": "D2",
                    "midi": 38,
                    "time": 105.69791666666615,
                    "velocity": 0.6299212598425197,
                    "duration": 0.1145833333333286
                },
                {
                    "name": "D3",
                    "midi": 50,
                    "time": 105.69791666666615,
                    "velocity": 0.6299212598425197,
                    "duration": 0.703125
                },
                {
                    "name": "G3",
                    "midi": 55,
                    "time": 106.08854166666615,
                    "velocity": 0.6299212598425197,
                    "duration": 0.0833333333333286
                },
                {
                    "name": "F4",
                    "midi": 65,
                    "time": 106.08854166666615,
                    "velocity": 0.6299212598425197,
                    "duration": 0.078125
                },
                {
                    "name": "B3",
                    "midi": 59,
                    "time": 106.09374999999947,
                    "velocity": 0.6299212598425197,
                    "duration": 0.0729166666666714
                },
                {
                    "name": "D4",
                    "midi": 62,
                    "time": 106.09374999999947,
                    "velocity": 0.6299212598425197,
                    "duration": 0.0729166666666714
                },
                {
                    "name": "C2",
                    "midi": 36,
                    "time": 106.35416666666615,
                    "velocity": 0.6299212598425197,
                    "duration": 0.1067708333333286
                },
                {
                    "name": "G4",
                    "midi": 67,
                    "time": 106.35416666666615,
                    "velocity": 0.6299212598425197,
                    "duration": 0.078125
                },
                {
                    "name": "E5",
                    "midi": 76,
                    "time": 106.35416666666615,
                    "velocity": 0.6299212598425197,
                    "duration": 0.046875
                },
                {
                    "name": "G5",
                    "midi": 79,
                    "time": 106.35937499999947,
                    "velocity": 0.6299212598425197,
                    "duration": 0.041666666666671404
                },
                {
                    "name": "G2",
                    "midi": 43,
                    "time": 106.47916666666615,
                    "velocity": 0.6299212598425197,
                    "duration": 0.0729166666666714
                },
                {
                    "name": "E3",
                    "midi": 52,
                    "time": 106.47916666666615,
                    "velocity": 0.6299212598425197,
                    "duration": 0.333333333333357
                },
                {
                    "name": "A#4",
                    "midi": 70,
                    "time": 106.47916666666615,
                    "velocity": 0.6299212598425197,
                    "duration": 0.0729166666666714
                },
                {
                    "name": "E5",
                    "midi": 76,
                    "time": 106.47916666666615,
                    "velocity": 0.6299212598425197,
                    "duration": 0.046875
                },
                {
                    "name": "A#5",
                    "midi": 82,
                    "time": 106.47916666666615,
                    "velocity": 0.6299212598425197,
                    "duration": 0.078125
                },
                {
                    "name": "G5",
                    "midi": 79,
                    "time": 106.48437499999947,
                    "velocity": 0.6299212598425197,
                    "duration": 0.041666666666671404
                },
                {
                    "name": "C5",
                    "midi": 72,
                    "time": 106.60677083333282,
                    "velocity": 0.6299212598425197,
                    "duration": 0.0807291666666714
                },
                {
                    "name": "E5",
                    "midi": 76,
                    "time": 106.60677083333282,
                    "velocity": 0.6299212598425197,
                    "duration": 0.049479166666671404
                },
                {
                    "name": "G5",
                    "midi": 79,
                    "time": 106.60677083333282,
                    "velocity": 0.6299212598425197,
                    "duration": 0.049479166666671404
                },
                {
                    "name": "C6",
                    "midi": 84,
                    "time": 106.60677083333282,
                    "velocity": 0.6299212598425197,
                    "duration": 0.0807291666666714
                },
                {
                    "name": "A#4",
                    "midi": 70,
                    "time": 106.73697916666616,
                    "velocity": 0.6299212598425197,
                    "duration": 0.0729166666666714
                },
                {
                    "name": "E5",
                    "midi": 76,
                    "time": 106.73697916666616,
                    "velocity": 0.6299212598425197,
                    "duration": 0.041666666666671404
                },
                {
                    "name": "A#5",
                    "midi": 82,
                    "time": 106.73697916666616,
                    "velocity": 0.6299212598425197,
                    "duration": 0.0729166666666714
                },
                {
                    "name": "G3",
                    "midi": 55,
                    "time": 106.86979166666617,
                    "velocity": 0.6299212598425197,
                    "duration": 0.3385416666666572
                },
                {
                    "name": "C4",
                    "midi": 60,
                    "time": 106.86979166666617,
                    "velocity": 0.6299212598425197,
                    "duration": 0.0703125
                },
                {
                    "name": "E4",
                    "midi": 64,
                    "time": 106.86979166666617,
                    "velocity": 0.6299212598425197,
                    "duration": 0.0703125
                },
                {
                    "name": "G4",
                    "midi": 67,
                    "time": 106.86979166666617,
                    "velocity": 0.6299212598425197,
                    "duration": 0.0703125
                },
                {
                    "name": "E5",
                    "midi": 76,
                    "time": 106.86979166666617,
                    "velocity": 0.6299212598425197,
                    "duration": 0.0703125
                },
                {
                    "name": "G5",
                    "midi": 79,
                    "time": 106.86979166666617,
                    "velocity": 0.6299212598425197,
                    "duration": 0.0755208333333286
                },
                {
                    "name": "A#3",
                    "midi": 58,
                    "time": 106.8984374999995,
                    "velocity": 0.6299212598425197,
                    "duration": 0.046875
                },
                {
                    "name": "F2",
                    "midi": 41,
                    "time": 107.1249999999995,
                    "velocity": 0.6299212598425197,
                    "duration": 0.1145833333333286
                },
                {
                    "name": "F#4",
                    "midi": 66,
                    "time": 107.1249999999995,
                    "velocity": 0.6299212598425197,
                    "duration": 0.11979166666665719
                },
                {
                    "name": "F#5",
                    "midi": 78,
                    "time": 107.1249999999995,
                    "velocity": 0.6299212598425197,
                    "duration": 0.11979166666665719
                },
                {
                    "name": "C3",
                    "midi": 48,
                    "time": 107.26041666666616,
                    "velocity": 0.6299212598425197,
                    "duration": 0.1145833333333286
                },
                {
                    "name": "A3",
                    "midi": 57,
                    "time": 107.26041666666616,
                    "velocity": 0.6299212598425197,
                    "duration": 0.2864583333333286
                },
                {
                    "name": "F4",
                    "midi": 65,
                    "time": 107.26041666666616,
                    "velocity": 0.6299212598425197,
                    "duration": 0.1145833333333286
                },
                {
                    "name": "A4",
                    "midi": 69,
                    "time": 107.26041666666616,
                    "velocity": 0.6299212598425197,
                    "duration": 0.1145833333333286
                },
                {
                    "name": "F5",
                    "midi": 77,
                    "time": 107.26041666666616,
                    "velocity": 0.6299212598425197,
                    "duration": 0.1145833333333286
                },
                {
                    "name": "F4",
                    "midi": 65,
                    "time": 107.53385416666616,
                    "velocity": 0.6299212598425197,
                    "duration": 0.0546875
                },
                {
                    "name": "A4",
                    "midi": 69,
                    "time": 107.53385416666616,
                    "velocity": 0.6299212598425197,
                    "duration": 0.1145833333333286
                },
                {
                    "name": "C#5",
                    "midi": 73,
                    "time": 107.53385416666616,
                    "velocity": 0.6299212598425197,
                    "duration": 0.1145833333333286
                },
                {
                    "name": "A3",
                    "midi": 57,
                    "time": 107.66145833333282,
                    "velocity": 0.6299212598425197,
                    "duration": 0.1822916666666572
                },
                {
                    "name": "D#4",
                    "midi": 63,
                    "time": 107.66145833333282,
                    "velocity": 0.6299212598425197,
                    "duration": 0.1822916666666572
                },
                {
                    "name": "F4",
                    "midi": 65,
                    "time": 107.66145833333282,
                    "velocity": 0.6299212598425197,
                    "duration": 0.1822916666666572
                },
                {
                    "name": "D5",
                    "midi": 74,
                    "time": 107.66145833333282,
                    "velocity": 0.6299212598425197,
                    "duration": 0.1822916666666572
                },
                {
                    "name": "F3",
                    "midi": 53,
                    "time": 107.66666666666615,
                    "velocity": 0.6299212598425197,
                    "duration": 0.1770833333333286
                },
                {
                    "name": "C4",
                    "midi": 60,
                    "time": 107.66666666666615,
                    "velocity": 0.6299212598425197,
                    "duration": 0.1770833333333286
                },
                {
                    "name": "A#4",
                    "midi": 70,
                    "time": 107.94010416666615,
                    "velocity": 0.6299212598425197,
                    "duration": 0.2578125
                },
                {
                    "name": "A#2",
                    "midi": 46,
                    "time": 108.07552083333282,
                    "velocity": 0.6299212598425197,
                    "duration": 0.1223958333333286
                },
                {
                    "name": "D3",
                    "midi": 50,
                    "time": 108.07552083333282,
                    "velocity": 0.6299212598425197,
                    "duration": 0.1223958333333286
                },
                {
                    "name": "F3",
                    "midi": 53,
                    "time": 108.07552083333282,
                    "velocity": 0.6299212598425197,
                    "duration": 0.1223958333333286
                },
                {
                    "name": "A#3",
                    "midi": 58,
                    "time": 108.07552083333282,
                    "velocity": 0.6299212598425197,
                    "duration": 0.1223958333333286
                },
                {
                    "name": "G2",
                    "midi": 43,
                    "time": 108.33854166666615,
                    "velocity": 0.6299212598425197,
                    "duration": 0.0546875
                },
                {
                    "name": "B2",
                    "midi": 47,
                    "time": 108.33854166666615,
                    "velocity": 0.6299212598425197,
                    "duration": 0.059895833333328596
                },
                {
                    "name": "E3",
                    "midi": 52,
                    "time": 108.33854166666615,
                    "velocity": 0.6299212598425197,
                    "duration": 0.0546875
                },
                {
                    "name": "C#5",
                    "midi": 73,
                    "time": 108.35156249999947,
                    "velocity": 0.6299212598425197,
                    "duration": 0.046875
                },
                {
                    "name": "G5",
                    "midi": 79,
                    "time": 108.35156249999947,
                    "velocity": 0.6299212598425197,
                    "duration": 0.046875
                },
                {
                    "name": "A#5",
                    "midi": 82,
                    "time": 108.35156249999947,
                    "velocity": 0.6299212598425197,
                    "duration": 0.046875
                },
                {
                    "name": "C#6",
                    "midi": 85,
                    "time": 108.35156249999947,
                    "velocity": 0.6299212598425197,
                    "duration": 0.046875
                },
                {
                    "name": "E2",
                    "midi": 40,
                    "time": 108.47916666666615,
                    "velocity": 0.6299212598425197,
                    "duration": 0.0833333333333286
                },
                {
                    "name": "G2",
                    "midi": 43,
                    "time": 108.47916666666615,
                    "velocity": 0.6299212598425197,
                    "duration": 0.0833333333333286
                },
                {
                    "name": "B2",
                    "midi": 47,
                    "time": 108.47916666666615,
                    "velocity": 0.6299212598425197,
                    "duration": 0.0833333333333286
                },
                {
                    "name": "E3",
                    "midi": 52,
                    "time": 108.47916666666615,
                    "velocity": 0.6299212598425197,
                    "duration": 0.0833333333333286
                },
                {
                    "name": "C#5",
                    "midi": 73,
                    "time": 108.47916666666615,
                    "velocity": 0.6299212598425197,
                    "duration": 0.0833333333333286
                },
                {
                    "name": "C#6",
                    "midi": 85,
                    "time": 108.47916666666615,
                    "velocity": 0.6299212598425197,
                    "duration": 0.08854166666665719
                },
                {
                    "name": "G5",
                    "midi": 79,
                    "time": 108.48437499999947,
                    "velocity": 0.6299212598425197,
                    "duration": 0.0833333333333286
                },
                {
                    "name": "A#5",
                    "midi": 82,
                    "time": 108.48437499999947,
                    "velocity": 0.6299212598425197,
                    "duration": 0.0833333333333286
                },
                {
                    "name": "E2",
                    "midi": 40,
                    "time": 108.74999999999947,
                    "velocity": 0.6299212598425197,
                    "duration": 0.044270833333328596
                },
                {
                    "name": "G2",
                    "midi": 43,
                    "time": 108.74999999999947,
                    "velocity": 0.6299212598425197,
                    "duration": 0.04947916666665719
                },
                {
                    "name": "B2",
                    "midi": 47,
                    "time": 108.74999999999947,
                    "velocity": 0.6299212598425197,
                    "duration": 0.04947916666665719
                },
                {
                    "name": "E3",
                    "midi": 52,
                    "time": 108.74999999999947,
                    "velocity": 0.6299212598425197,
                    "duration": 0.04947916666665719
                },
                {
                    "name": "C#5",
                    "midi": 73,
                    "time": 108.74999999999947,
                    "velocity": 0.6299212598425197,
                    "duration": 0.044270833333328596
                },
                {
                    "name": "G5",
                    "midi": 79,
                    "time": 108.74999999999947,
                    "velocity": 0.6299212598425197,
                    "duration": 0.04947916666665719
                },
                {
                    "name": "A#5",
                    "midi": 82,
                    "time": 108.74999999999947,
                    "velocity": 0.6299212598425197,
                    "duration": 0.04947916666665719
                },
                {
                    "name": "C#6",
                    "midi": 85,
                    "time": 108.74999999999947,
                    "velocity": 0.6299212598425197,
                    "duration": 0.04947916666665719
                },
                {
                    "name": "E2",
                    "midi": 40,
                    "time": 108.87760416666613,
                    "velocity": 0.6299212598425197,
                    "duration": 0.0911458333333286
                },
                {
                    "name": "G2",
                    "midi": 43,
                    "time": 108.87760416666613,
                    "velocity": 0.6299212598425197,
                    "duration": 0.0859375
                },
                {
                    "name": "B2",
                    "midi": 47,
                    "time": 108.87760416666613,
                    "velocity": 0.6299212598425197,
                    "duration": 0.0911458333333286
                },
                {
                    "name": "E3",
                    "midi": 52,
                    "time": 108.87760416666613,
                    "velocity": 0.6299212598425197,
                    "duration": 0.0911458333333286
                },
                {
                    "name": "C#5",
                    "midi": 73,
                    "time": 108.87760416666613,
                    "velocity": 0.6299212598425197,
                    "duration": 0.0911458333333286
                },
                {
                    "name": "A#5",
                    "midi": 82,
                    "time": 108.87760416666613,
                    "velocity": 0.6299212598425197,
                    "duration": 0.0911458333333286
                },
                {
                    "name": "C#6",
                    "midi": 85,
                    "time": 108.87760416666613,
                    "velocity": 0.6299212598425197,
                    "duration": 0.0911458333333286
                },
                {
                    "name": "G5",
                    "midi": 79,
                    "time": 108.88281249999946,
                    "velocity": 0.6299212598425197,
                    "duration": 0.0859375
                },
                {
                    "name": "G2",
                    "midi": 43,
                    "time": 109.15104166666613,
                    "velocity": 0.6299212598425197,
                    "duration": 0.046875
                },
                {
                    "name": "E2",
                    "midi": 40,
                    "time": 109.15624999999946,
                    "velocity": 0.6299212598425197,
                    "duration": 0.046875
                },
                {
                    "name": "B2",
                    "midi": 47,
                    "time": 109.15624999999946,
                    "velocity": 0.6299212598425197,
                    "duration": 0.046875
                },
                {
                    "name": "E3",
                    "midi": 52,
                    "time": 109.15624999999946,
                    "velocity": 0.6299212598425197,
                    "duration": 0.046875
                },
                {
                    "name": "C#5",
                    "midi": 73,
                    "time": 109.15624999999946,
                    "velocity": 0.6299212598425197,
                    "duration": 0.046875
                },
                {
                    "name": "G5",
                    "midi": 79,
                    "time": 109.15624999999946,
                    "velocity": 0.6299212598425197,
                    "duration": 0.046875
                },
                {
                    "name": "A#5",
                    "midi": 82,
                    "time": 109.15624999999946,
                    "velocity": 0.6299212598425197,
                    "duration": 0.046875
                },
                {
                    "name": "C#6",
                    "midi": 85,
                    "time": 109.15624999999946,
                    "velocity": 0.6299212598425197,
                    "duration": 0.046875
                },
                {
                    "name": "E2",
                    "midi": 40,
                    "time": 109.30208333333279,
                    "velocity": 0.6299212598425197,
                    "duration": 0.078125
                },
                {
                    "name": "G2",
                    "midi": 43,
                    "time": 109.30208333333279,
                    "velocity": 0.6299212598425197,
                    "duration": 0.078125
                },
                {
                    "name": "B2",
                    "midi": 47,
                    "time": 109.30208333333279,
                    "velocity": 0.6299212598425197,
                    "duration": 0.078125
                },
                {
                    "name": "E3",
                    "midi": 52,
                    "time": 109.30208333333279,
                    "velocity": 0.6299212598425197,
                    "duration": 0.0833333333333286
                },
                {
                    "name": "C#5",
                    "midi": 73,
                    "time": 109.30208333333279,
                    "velocity": 0.6299212598425197,
                    "duration": 0.0833333333333286
                },
                {
                    "name": "G5",
                    "midi": 79,
                    "time": 109.30208333333279,
                    "velocity": 0.6299212598425197,
                    "duration": 0.0833333333333286
                },
                {
                    "name": "A#5",
                    "midi": 82,
                    "time": 109.30208333333279,
                    "velocity": 0.6299212598425197,
                    "duration": 0.0833333333333286
                },
                {
                    "name": "C#6",
                    "midi": 85,
                    "time": 109.30208333333279,
                    "velocity": 0.6299212598425197,
                    "duration": 0.0833333333333286
                },
                {
                    "name": "E3",
                    "midi": 52,
                    "time": 109.56249999999945,
                    "velocity": 0.6299212598425197,
                    "duration": 0.1171875
                },
                {
                    "name": "E2",
                    "midi": 40,
                    "time": 109.57552083333277,
                    "velocity": 0.6299212598425197,
                    "duration": 0.1041666666666714
                },
                {
                    "name": "G2",
                    "midi": 43,
                    "time": 109.57552083333277,
                    "velocity": 0.6299212598425197,
                    "duration": 0.1041666666666714
                },
                {
                    "name": "B2",
                    "midi": 47,
                    "time": 109.57552083333277,
                    "velocity": 0.6299212598425197,
                    "duration": 0.1041666666666714
                },
                {
                    "name": "C#5",
                    "midi": 73,
                    "time": 109.57552083333277,
                    "velocity": 0.6299212598425197,
                    "duration": 0.0729166666666714
                },
                {
                    "name": "G5",
                    "midi": 79,
                    "time": 109.57552083333277,
                    "velocity": 0.6299212598425197,
                    "duration": 0.0729166666666714
                },
                {
                    "name": "A#5",
                    "midi": 82,
                    "time": 109.57552083333277,
                    "velocity": 0.6299212598425197,
                    "duration": 0.0729166666666714
                },
                {
                    "name": "C#6",
                    "midi": 85,
                    "time": 109.57552083333277,
                    "velocity": 0.6299212598425197,
                    "duration": 0.0729166666666714
                },
                {
                    "name": "F2",
                    "midi": 41,
                    "time": 109.70312499999945,
                    "velocity": 0.6299212598425197,
                    "duration": 0.109375
                },
                {
                    "name": "F3",
                    "midi": 53,
                    "time": 109.70312499999945,
                    "velocity": 0.6299212598425197,
                    "duration": 1.4375
                },
                {
                    "name": "D5",
                    "midi": 74,
                    "time": 109.70312499999945,
                    "velocity": 0.6299212598425197,
                    "duration": 0.1484375
                },
                {
                    "name": "G#5",
                    "midi": 80,
                    "time": 109.70312499999945,
                    "velocity": 0.6299212598425197,
                    "duration": 0.1484375
                },
                {
                    "name": "D6",
                    "midi": 86,
                    "time": 109.70312499999945,
                    "velocity": 0.6299212598425197,
                    "duration": 0.1484375
                },
                {
                    "name": "C5",
                    "midi": 72,
                    "time": 109.96614583333277,
                    "velocity": 0.6299212598425197,
                    "duration": 0.078125
                },
                {
                    "name": "G#5",
                    "midi": 80,
                    "time": 109.96614583333277,
                    "velocity": 0.6299212598425197,
                    "duration": 0.046875
                },
                {
                    "name": "C6",
                    "midi": 84,
                    "time": 109.96614583333277,
                    "velocity": 0.6299212598425197,
                    "duration": 0.078125
                },
                {
                    "name": "G#3",
                    "midi": 56,
                    "time": 110.09374999999945,
                    "velocity": 0.6299212598425197,
                    "duration": 0.1067708333333286
                },
                {
                    "name": "A#3",
                    "midi": 58,
                    "time": 110.09374999999945,
                    "velocity": 0.6299212598425197,
                    "duration": 0.1067708333333286
                },
                {
                    "name": "F4",
                    "midi": 65,
                    "time": 110.09374999999945,
                    "velocity": 0.6299212598425197,
                    "duration": 0.1067708333333286
                },
                {
                    "name": "A#4",
                    "midi": 70,
                    "time": 110.09374999999945,
                    "velocity": 0.6299212598425197,
                    "duration": 0.078125
                },
                {
                    "name": "A#5",
                    "midi": 82,
                    "time": 110.09374999999945,
                    "velocity": 0.6299212598425197,
                    "duration": 0.078125
                },
                {
                    "name": "D4",
                    "midi": 62,
                    "time": 110.09895833333277,
                    "velocity": 0.6299212598425197,
                    "duration": 0.1015625
                },
                {
                    "name": "G#5",
                    "midi": 80,
                    "time": 110.09895833333277,
                    "velocity": 0.6299212598425197,
                    "duration": 0.0729166666666714
                },
                {
                    "name": "C5",
                    "midi": 72,
                    "time": 110.3541666666661,
                    "velocity": 0.6299212598425197,
                    "duration": 0.2682291666666714
                },
                {
                    "name": "G#5",
                    "midi": 80,
                    "time": 110.3541666666661,
                    "velocity": 0.6299212598425197,
                    "duration": 0.2708333333333428
                },
                {
                    "name": "C6",
                    "midi": 84,
                    "time": 110.3541666666661,
                    "velocity": 0.6299212598425197,
                    "duration": 0.2708333333333428
                },
                {
                    "name": "A#1",
                    "midi": 34,
                    "time": 110.48177083333277,
                    "velocity": 0.6299212598425197,
                    "duration": 0.109375
                },
                {
                    "name": "G#5",
                    "midi": 80,
                    "time": 110.74218749999945,
                    "velocity": 0.6299212598425197,
                    "duration": 0.265625
                },
                {
                    "name": "A#5",
                    "midi": 82,
                    "time": 110.74218749999945,
                    "velocity": 0.6299212598425197,
                    "duration": 0.265625
                },
                {
                    "name": "F6",
                    "midi": 89,
                    "time": 110.74218749999945,
                    "velocity": 0.6299212598425197,
                    "duration": 0.265625
                },
                {
                    "name": "G#6",
                    "midi": 92,
                    "time": 110.74218749999945,
                    "velocity": 0.6299212598425197,
                    "duration": 0.265625
                },
                {
                    "name": "G#3",
                    "midi": 56,
                    "time": 110.86979166666612,
                    "velocity": 0.6299212598425197,
                    "duration": 0.109375
                },
                {
                    "name": "A#3",
                    "midi": 58,
                    "time": 110.86979166666612,
                    "velocity": 0.6299212598425197,
                    "duration": 0.109375
                },
                {
                    "name": "D4",
                    "midi": 62,
                    "time": 110.87499999999945,
                    "velocity": 0.6299212598425197,
                    "duration": 0.1041666666666714
                },
                {
                    "name": "F4",
                    "midi": 65,
                    "time": 110.87499999999945,
                    "velocity": 0.6299212598425197,
                    "duration": 0.1041666666666714
                },
                {
                    "name": "F2",
                    "midi": 41,
                    "time": 111.12499999999945,
                    "velocity": 0.6299212598425197,
                    "duration": 0.1145833333333286
                },
                {
                    "name": "C5",
                    "midi": 72,
                    "time": 111.12760416666612,
                    "velocity": 0.6299212598425197,
                    "duration": 0.11718749999998579
                },
                {
                    "name": "C6",
                    "midi": 84,
                    "time": 111.12760416666612,
                    "velocity": 0.6299212598425197,
                    "duration": 0.11718749999998579
                },
                {
                    "name": "G#3",
                    "midi": 56,
                    "time": 111.25520833333277,
                    "velocity": 0.6299212598425197,
                    "duration": 1.5624999999999432
                },
                {
                    "name": "D5",
                    "midi": 74,
                    "time": 111.25520833333277,
                    "velocity": 0.6299212598425197,
                    "duration": 0.1458333333333286
                },
                {
                    "name": "A#5",
                    "midi": 82,
                    "time": 111.2604166666661,
                    "velocity": 0.6299212598425197,
                    "duration": 0.1458333333333286
                },
                {
                    "name": "D6",
                    "midi": 86,
                    "time": 111.2604166666661,
                    "velocity": 0.6299212598425197,
                    "duration": 0.1458333333333286
                },
                {
                    "name": "D#5",
                    "midi": 75,
                    "time": 111.52864583333276,
                    "velocity": 0.6299212598425197,
                    "duration": 0.1197916666666714
                },
                {
                    "name": "D#6",
                    "midi": 87,
                    "time": 111.53385416666609,
                    "velocity": 0.6299212598425197,
                    "duration": 0.11458333333334281
                },
                {
                    "name": "A#3",
                    "midi": 58,
                    "time": 111.66145833333276,
                    "velocity": 0.6299212598425197,
                    "duration": 0.1145833333333286
                },
                {
                    "name": "D4",
                    "midi": 62,
                    "time": 111.66145833333276,
                    "velocity": 0.6299212598425197,
                    "duration": 0.1145833333333286
                },
                {
                    "name": "F4",
                    "midi": 65,
                    "time": 111.66145833333276,
                    "velocity": 0.6299212598425197,
                    "duration": 0.11979166666665719
                },
                {
                    "name": "C5",
                    "midi": 72,
                    "time": 111.66145833333276,
                    "velocity": 0.6299212598425197,
                    "duration": 0.11979166666665719
                },
                {
                    "name": "G#5",
                    "midi": 80,
                    "time": 111.66145833333276,
                    "velocity": 0.6299212598425197,
                    "duration": 0.11979166666665719
                },
                {
                    "name": "C6",
                    "midi": 84,
                    "time": 111.66145833333276,
                    "velocity": 0.6299212598425197,
                    "duration": 0.11979166666665719
                },
                {
                    "name": "D5",
                    "midi": 74,
                    "time": 111.93749999999942,
                    "velocity": 0.6299212598425197,
                    "duration": 0.08072916666665719
                },
                {
                    "name": "G#5",
                    "midi": 80,
                    "time": 111.93749999999942,
                    "velocity": 0.6299212598425197,
                    "duration": 0.052083333333328596
                },
                {
                    "name": "D6",
                    "midi": 86,
                    "time": 111.93749999999942,
                    "velocity": 0.6299212598425197,
                    "duration": 0.08072916666665719
                },
                {
                    "name": "A#1",
                    "midi": 34,
                    "time": 112.0781249999994,
                    "velocity": 0.6299212598425197,
                    "duration": 0.1145833333333286
                },
                {
                    "name": "A#4",
                    "midi": 70,
                    "time": 112.0781249999994,
                    "velocity": 0.6299212598425197,
                    "duration": 0.078125
                },
                {
                    "name": "G#5",
                    "midi": 80,
                    "time": 112.08333333333273,
                    "velocity": 0.6299212598425197,
                    "duration": 0.0729166666666714
                },
                {
                    "name": "A#5",
                    "midi": 82,
                    "time": 112.08333333333273,
                    "velocity": 0.6299212598425197,
                    "duration": 0.0729166666666714
                },
                {
                    "name": "B4",
                    "midi": 71,
                    "time": 112.3515624999994,
                    "velocity": 0.6299212598425197,
                    "duration": 0.109375
                },
                {
                    "name": "B5",
                    "midi": 83,
                    "time": 112.3515624999994,
                    "velocity": 0.6299212598425197,
                    "duration": 0.1458333333333286
                },
                {
                    "name": "G#5",
                    "midi": 80,
                    "time": 112.35677083333273,
                    "velocity": 0.6299212598425197,
                    "duration": 0.049479166666671404
                },
                {
                    "name": "A#3",
                    "midi": 58,
                    "time": 112.47916666666607,
                    "velocity": 0.6299212598425197,
                    "duration": 0.10156249999998579
                },
                {
                    "name": "F4",
                    "midi": 65,
                    "time": 112.47916666666607,
                    "velocity": 0.6299212598425197,
                    "duration": 0.10677083333331439
                },
                {
                    "name": "C5",
                    "midi": 72,
                    "time": 112.47916666666607,
                    "velocity": 0.6299212598425197,
                    "duration": 0.10677083333331439
                },
                {
                    "name": "G#5",
                    "midi": 80,
                    "time": 112.47916666666607,
                    "velocity": 0.6299212598425197,
                    "duration": 0.10677083333331439
                },
                {
                    "name": "C6",
                    "midi": 84,
                    "time": 112.47916666666607,
                    "velocity": 0.6299212598425197,
                    "duration": 0.10677083333331439
                },
                {
                    "name": "D4",
                    "midi": 62,
                    "time": 112.4921874999994,
                    "velocity": 0.6299212598425197,
                    "duration": 0.09374999999998579
                },
                {
                    "name": "D#2",
                    "midi": 39,
                    "time": 112.73437499999939,
                    "velocity": 0.6299212598425197,
                    "duration": 0.11197916666665719
                },
                {
                    "name": "C#5",
                    "midi": 73,
                    "time": 112.73958333333272,
                    "velocity": 0.6299212598425197,
                    "duration": 0.078125
                },
                {
                    "name": "G5",
                    "midi": 79,
                    "time": 112.73958333333272,
                    "velocity": 0.6299212598425197,
                    "duration": 0.0546875
                },
                {
                    "name": "A#5",
                    "midi": 82,
                    "time": 112.73958333333272,
                    "velocity": 0.6299212598425197,
                    "duration": 0.0546875
                },
                {
                    "name": "C#6",
                    "midi": 85,
                    "time": 112.73958333333272,
                    "velocity": 0.6299212598425197,
                    "duration": 0.0833333333333286
                },
                {
                    "name": "A#2",
                    "midi": 46,
                    "time": 112.86458333333272,
                    "velocity": 0.6299212598425197,
                    "duration": 0.1666666666666572
                },
                {
                    "name": "G3",
                    "midi": 55,
                    "time": 112.86458333333272,
                    "velocity": 0.6299212598425197,
                    "duration": 1.3854166666666288
                },
                {
                    "name": "D5",
                    "midi": 74,
                    "time": 112.86458333333272,
                    "velocity": 0.6299212598425197,
                    "duration": 0.0755208333333286
                },
                {
                    "name": "G5",
                    "midi": 79,
                    "time": 112.86458333333272,
                    "velocity": 0.6299212598425197,
                    "duration": 0.0755208333333286
                },
                {
                    "name": "A#5",
                    "midi": 82,
                    "time": 112.86979166666605,
                    "velocity": 0.6299212598425197,
                    "duration": 0.0755208333333286
                },
                {
                    "name": "D6",
                    "midi": 86,
                    "time": 112.86979166666605,
                    "velocity": 0.6299212598425197,
                    "duration": 0.0755208333333286
                },
                {
                    "name": "C5",
                    "midi": 72,
                    "time": 113.12499999999937,
                    "velocity": 0.6299212598425197,
                    "duration": 0.109375
                },
                {
                    "name": "G5",
                    "midi": 79,
                    "time": 113.12499999999937,
                    "velocity": 0.6299212598425197,
                    "duration": 0.0546875
                },
                {
                    "name": "C6",
                    "midi": 84,
                    "time": 113.12760416666605,
                    "velocity": 0.6299212598425197,
                    "duration": 0.1067708333333286
                },
                {
                    "name": "A#3",
                    "midi": 58,
                    "time": 113.24999999999937,
                    "velocity": 0.6299212598425197,
                    "duration": 0.11197916666665719
                },
                {
                    "name": "D#4",
                    "midi": 63,
                    "time": 113.24999999999937,
                    "velocity": 0.6299212598425197,
                    "duration": 0.11197916666665719
                },
                {
                    "name": "G4",
                    "midi": 67,
                    "time": 113.24999999999937,
                    "velocity": 0.6299212598425197,
                    "duration": 0.11197916666665719
                },
                {
                    "name": "A#4",
                    "midi": 70,
                    "time": 113.24999999999937,
                    "velocity": 0.6299212598425197,
                    "duration": 0.11197916666665719
                },
                {
                    "name": "A#5",
                    "midi": 82,
                    "time": 113.24999999999937,
                    "velocity": 0.6299212598425197,
                    "duration": 0.11197916666665719
                },
                {
                    "name": "G5",
                    "midi": 79,
                    "time": 113.2552083333327,
                    "velocity": 0.6299212598425197,
                    "duration": 0.1067708333333286
                },
                {
                    "name": "C5",
                    "midi": 72,
                    "time": 113.50781249999936,
                    "velocity": 0.6299212598425197,
                    "duration": 0.6432291666666572
                },
                {
                    "name": "G5",
                    "midi": 79,
                    "time": 113.50781249999936,
                    "velocity": 0.6299212598425197,
                    "duration": 0.6432291666666572
                },
                {
                    "name": "C6",
                    "midi": 84,
                    "time": 113.51302083333269,
                    "velocity": 0.6299212598425197,
                    "duration": 0.3437499999999858
                },
                {
                    "name": "A#1",
                    "midi": 34,
                    "time": 113.63541666666602,
                    "velocity": 0.6299212598425197,
                    "duration": 0.1067708333333286
                },
                {
                    "name": "A#5",
                    "midi": 82,
                    "time": 113.90624999999935,
                    "velocity": 0.6299212598425197,
                    "duration": 0.2447916666666714
                },
                {
                    "name": "A#3",
                    "midi": 58,
                    "time": 114.03385416666602,
                    "velocity": 0.6299212598425197,
                    "duration": 0.0807291666666714
                },
                {
                    "name": "D#4",
                    "midi": 63,
                    "time": 114.03385416666602,
                    "velocity": 0.6299212598425197,
                    "duration": 0.0807291666666714
                },
                {
                    "name": "G4",
                    "midi": 67,
                    "time": 114.03385416666602,
                    "velocity": 0.6299212598425197,
                    "duration": 0.0807291666666714
                },
                {
                    "name": "A#5",
                    "midi": 82,
                    "time": 114.30989583333267,
                    "velocity": 0.6299212598425197,
                    "duration": 0.2421874999999858
                },
                {
                    "name": "A#2",
                    "midi": 46,
                    "time": 114.43749999999933,
                    "velocity": 0.6299212598425197,
                    "duration": 0.2838541666666572
                },
                {
                    "name": "G3",
                    "midi": 55,
                    "time": 114.43749999999933,
                    "velocity": 0.6299212598425197,
                    "duration": 0.7578124999999716
                },
                {
                    "name": "D5",
                    "midi": 74,
                    "time": 114.440104166666,
                    "velocity": 0.6299212598425197,
                    "duration": 0.11197916666665719
                },
                {
                    "name": "D6",
                    "midi": 86,
                    "time": 114.440104166666,
                    "velocity": 0.6299212598425197,
                    "duration": 0.11197916666665719
                },
                {
                    "name": "G5",
                    "midi": 79,
                    "time": 114.45312499999933,
                    "velocity": 0.6299212598425197,
                    "duration": 0.0989583333333286
                },
                {
                    "name": "D#5",
                    "midi": 75,
                    "time": 114.70312499999933,
                    "velocity": 0.6299212598425197,
                    "duration": 0.08593749999998579
                },
                {
                    "name": "G5",
                    "midi": 79,
                    "time": 114.70312499999933,
                    "velocity": 0.6299212598425197,
                    "duration": 0.05468749999998579
                },
                {
                    "name": "A#5",
                    "midi": 82,
                    "time": 114.70312499999933,
                    "velocity": 0.6299212598425197,
                    "duration": 0.059895833333314386
                },
                {
                    "name": "D#6",
                    "midi": 87,
                    "time": 114.71614583333266,
                    "velocity": 0.6299212598425197,
                    "duration": 0.07291666666665719
                },
                {
                    "name": "A#3",
                    "midi": 58,
                    "time": 114.84374999999932,
                    "velocity": 0.6299212598425197,
                    "duration": 0.07291666666665719
                },
                {
                    "name": "D#4",
                    "midi": 63,
                    "time": 114.84374999999932,
                    "velocity": 0.6299212598425197,
                    "duration": 0.07291666666665719
                },
                {
                    "name": "G4",
                    "midi": 67,
                    "time": 114.84895833333265,
                    "velocity": 0.6299212598425197,
                    "duration": 0.0677083333333286
                },
                {
                    "name": "C5",
                    "midi": 72,
                    "time": 114.84895833333265,
                    "velocity": 0.6299212598425197,
                    "duration": 0.0677083333333286
                },
                {
                    "name": "G5",
                    "midi": 79,
                    "time": 114.84895833333265,
                    "velocity": 0.6299212598425197,
                    "duration": 0.07291666666665719
                },
                {
                    "name": "A#5",
                    "midi": 82,
                    "time": 114.84895833333265,
                    "velocity": 0.6299212598425197,
                    "duration": 0.07291666666665719
                },
                {
                    "name": "C6",
                    "midi": 84,
                    "time": 114.84895833333265,
                    "velocity": 0.6299212598425197,
                    "duration": 0.07291666666665719
                },
                {
                    "name": "D5",
                    "midi": 74,
                    "time": 115.11197916666598,
                    "velocity": 0.6299212598425197,
                    "duration": 0.08854166666665719
                },
                {
                    "name": "D6",
                    "midi": 86,
                    "time": 115.11197916666598,
                    "velocity": 0.6299212598425197,
                    "duration": 0.08854166666665719
                },
                {
                    "name": "G5",
                    "midi": 79,
                    "time": 115.1171874999993,
                    "velocity": 0.6299212598425197,
                    "duration": 0.0833333333333286
                },
                {
                    "name": "A#2",
                    "midi": 46,
                    "time": 115.24479166666596,
                    "velocity": 0.6299212598425197,
                    "duration": 0.2760416666666572
                },
                {
                    "name": "F#3",
                    "midi": 54,
                    "time": 115.24999999999929,
                    "velocity": 0.6299212598425197,
                    "duration": 0.7135416666666572
                },
                {
                    "name": "A#4",
                    "midi": 70,
                    "time": 115.24999999999929,
                    "velocity": 0.6299212598425197,
                    "duration": 0.0833333333333286
                },
                {
                    "name": "A#5",
                    "midi": 82,
                    "time": 115.24999999999929,
                    "velocity": 0.6299212598425197,
                    "duration": 0.0833333333333286
                },
                {
                    "name": "B4",
                    "midi": 71,
                    "time": 115.51562499999929,
                    "velocity": 0.6299212598425197,
                    "duration": 0.1145833333333286
                },
                {
                    "name": "G5",
                    "midi": 79,
                    "time": 115.51562499999929,
                    "velocity": 0.6299212598425197,
                    "duration": 0.07291666666665719
                },
                {
                    "name": "B5",
                    "midi": 83,
                    "time": 115.51562499999929,
                    "velocity": 0.6299212598425197,
                    "duration": 0.1145833333333286
                },
                {
                    "name": "C4",
                    "midi": 60,
                    "time": 115.64843749999929,
                    "velocity": 0.6299212598425197,
                    "duration": 0.109375
                },
                {
                    "name": "D#4",
                    "midi": 63,
                    "time": 115.64843749999929,
                    "velocity": 0.6299212598425197,
                    "duration": 0.1145833333333286
                },
                {
                    "name": "F#4",
                    "midi": 66,
                    "time": 115.64843749999929,
                    "velocity": 0.6299212598425197,
                    "duration": 0.1145833333333286
                },
                {
                    "name": "A4",
                    "midi": 69,
                    "time": 115.64843749999929,
                    "velocity": 0.6299212598425197,
                    "duration": 0.1145833333333286
                },
                {
                    "name": "C5",
                    "midi": 72,
                    "time": 115.64843749999929,
                    "velocity": 0.6299212598425197,
                    "duration": 0.1145833333333286
                },
                {
                    "name": "C6",
                    "midi": 84,
                    "time": 115.65364583333262,
                    "velocity": 0.6299212598425197,
                    "duration": 0.109375
                },
                {
                    "name": "C#5",
                    "midi": 73,
                    "time": 115.92187499999929,
                    "velocity": 0.6299212598425197,
                    "duration": 0.07812499999998579
                },
                {
                    "name": "G#5",
                    "midi": 80,
                    "time": 115.92708333333262,
                    "velocity": 0.6299212598425197,
                    "duration": 0.04166666666665719
                },
                {
                    "name": "C#6",
                    "midi": 85,
                    "time": 115.92708333333262,
                    "velocity": 0.6299212598425197,
                    "duration": 0.07291666666665719
                },
                {
                    "name": "G#2",
                    "midi": 44,
                    "time": 116.05468749999928,
                    "velocity": 0.6299212598425197,
                    "duration": 0.2708333333333286
                },
                {
                    "name": "F3",
                    "midi": 53,
                    "time": 116.05468749999928,
                    "velocity": 0.6299212598425197,
                    "duration": 1.5052083333333002
                },
                {
                    "name": "D5",
                    "midi": 74,
                    "time": 116.0598958333326,
                    "velocity": 0.6299212598425197,
                    "duration": 0.109375
                },
                {
                    "name": "G#5",
                    "midi": 80,
                    "time": 116.0598958333326,
                    "velocity": 0.6299212598425197,
                    "duration": 0.109375
                },
                {
                    "name": "D6",
                    "midi": 86,
                    "time": 116.0598958333326,
                    "velocity": 0.6299212598425197,
                    "duration": 0.109375
                },
                {
                    "name": "C5",
                    "midi": 72,
                    "time": 116.32031249999928,
                    "velocity": 0.6299212598425197,
                    "duration": 0.078125
                },
                {
                    "name": "G#5",
                    "midi": 80,
                    "time": 116.3255208333326,
                    "velocity": 0.6299212598425197,
                    "duration": 0.049479166666671404
                },
                {
                    "name": "C6",
                    "midi": 84,
                    "time": 116.3255208333326,
                    "velocity": 0.6299212598425197,
                    "duration": 0.078125
                },
                {
                    "name": "G#3",
                    "midi": 56,
                    "time": 116.44531249999928,
                    "velocity": 0.6299212598425197,
                    "duration": 0.1145833333333286
                },
                {
                    "name": "A#3",
                    "midi": 58,
                    "time": 116.44531249999928,
                    "velocity": 0.6299212598425197,
                    "duration": 0.1145833333333286
                },
                {
                    "name": "D4",
                    "midi": 62,
                    "time": 116.4505208333326,
                    "velocity": 0.6299212598425197,
                    "duration": 0.109375
                },
                {
                    "name": "F4",
                    "midi": 65,
                    "time": 116.4505208333326,
                    "velocity": 0.6299212598425197,
                    "duration": 0.109375
                },
                {
                    "name": "G#4",
                    "midi": 68,
                    "time": 116.4505208333326,
                    "velocity": 0.6299212598425197,
                    "duration": 0.078125
                },
                {
                    "name": "D5",
                    "midi": 74,
                    "time": 116.4505208333326,
                    "velocity": 0.6299212598425197,
                    "duration": 0.078125
                },
                {
                    "name": "G#5",
                    "midi": 80,
                    "time": 116.45572916666593,
                    "velocity": 0.6299212598425197,
                    "duration": 0.078125
                },
                {
                    "name": "G4",
                    "midi": 67,
                    "time": 116.7239583333326,
                    "velocity": 0.6299212598425197,
                    "duration": 0.109375
                },
                {
                    "name": "C#5",
                    "midi": 73,
                    "time": 116.7239583333326,
                    "velocity": 0.6299212598425197,
                    "duration": 0.0807291666666714
                },
                {
                    "name": "G5",
                    "midi": 79,
                    "time": 116.7239583333326,
                    "velocity": 0.6299212598425197,
                    "duration": 0.1145833333333286
                },
                {
                    "name": "A#1",
                    "midi": 34,
                    "time": 116.84374999999926,
                    "velocity": 0.6299212598425197,
                    "duration": 0.1067708333333286
                },
                {
                    "name": "F4",
                    "midi": 65,
                    "time": 116.84895833333259,
                    "velocity": 0.6299212598425197,
                    "duration": 0.1510416666666714
                },
                {
                    "name": "D5",
                    "midi": 74,
                    "time": 116.85416666666592,
                    "velocity": 0.6299212598425197,
                    "duration": 0.1510416666666714
                },
                {
                    "name": "F5",
                    "midi": 77,
                    "time": 116.85416666666592,
                    "velocity": 0.6299212598425197,
                    "duration": 0.1510416666666714
                },
                {
                    "name": "D#5",
                    "midi": 75,
                    "time": 117.12239583333259,
                    "velocity": 0.6299212598425197,
                    "duration": 0.2421874999999858
                },
                {
                    "name": "G#5",
                    "midi": 80,
                    "time": 117.12239583333259,
                    "velocity": 0.6299212598425197,
                    "duration": 0.2421874999999858
                },
                {
                    "name": "C6",
                    "midi": 84,
                    "time": 117.12239583333259,
                    "velocity": 0.6299212598425197,
                    "duration": 0.2421874999999858
                },
                {
                    "name": "D#6",
                    "midi": 87,
                    "time": 117.12239583333259,
                    "velocity": 0.6299212598425197,
                    "duration": 0.2421874999999858
                },
                {
                    "name": "G#3",
                    "midi": 56,
                    "time": 117.24479166666592,
                    "velocity": 0.6299212598425197,
                    "duration": 0.1145833333333286
                },
                {
                    "name": "A#3",
                    "midi": 58,
                    "time": 117.24479166666592,
                    "velocity": 0.6299212598425197,
                    "duration": 0.1145833333333286
                },
                {
                    "name": "D4",
                    "midi": 62,
                    "time": 117.24479166666592,
                    "velocity": 0.6299212598425197,
                    "duration": 0.1145833333333286
                },
                {
                    "name": "F4",
                    "midi": 65,
                    "time": 117.24479166666592,
                    "velocity": 0.6299212598425197,
                    "duration": 0.1145833333333286
                },
                {
                    "name": "C5",
                    "midi": 72,
                    "time": 117.51562499999925,
                    "velocity": 0.6299212598425197,
                    "duration": 0.08072916666665719
                },
                {
                    "name": "C6",
                    "midi": 84,
                    "time": 117.52083333333258,
                    "velocity": 0.6299212598425197,
                    "duration": 0.0755208333333286
                },
                {
                    "name": "F2",
                    "midi": 41,
                    "time": 117.6510416666659,
                    "velocity": 0.6299212598425197,
                    "duration": 0.1744791666666572
                },
                {
                    "name": "D3",
                    "midi": 50,
                    "time": 117.6510416666659,
                    "velocity": 0.6299212598425197,
                    "duration": 0.4609374999999716
                },
                {
                    "name": "D5",
                    "midi": 74,
                    "time": 117.6510416666659,
                    "velocity": 0.6299212598425197,
                    "duration": 0.078125
                },
                {
                    "name": "G#5",
                    "midi": 80,
                    "time": 117.65624999999923,
                    "velocity": 0.6299212598425197,
                    "duration": 0.078125
                },
                {
                    "name": "D6",
                    "midi": 86,
                    "time": 117.65624999999923,
                    "velocity": 0.6299212598425197,
                    "duration": 0.0729166666666714
                },
                {
                    "name": "A#4",
                    "midi": 70,
                    "time": 117.91145833333256,
                    "velocity": 0.6299212598425197,
                    "duration": 0.0755208333333286
                },
                {
                    "name": "G#5",
                    "midi": 80,
                    "time": 117.91145833333256,
                    "velocity": 0.6299212598425197,
                    "duration": 0.04947916666665719
                },
                {
                    "name": "A#5",
                    "midi": 82,
                    "time": 117.91145833333256,
                    "velocity": 0.6299212598425197,
                    "duration": 0.0755208333333286
                },
                {
                    "name": "G#3",
                    "midi": 56,
                    "time": 118.04687499999922,
                    "velocity": 0.6299212598425197,
                    "duration": 0.06510416666665719
                },
                {
                    "name": "A#3",
                    "midi": 58,
                    "time": 118.04687499999922,
                    "velocity": 0.6299212598425197,
                    "duration": 0.07031249999998579
                },
                {
                    "name": "D4",
                    "midi": 62,
                    "time": 118.04687499999922,
                    "velocity": 0.6299212598425197,
                    "duration": 0.07031249999998579
                },
                {
                    "name": "F4",
                    "midi": 65,
                    "time": 118.04687499999922,
                    "velocity": 0.6299212598425197,
                    "duration": 0.07031249999998579
                },
                {
                    "name": "B4",
                    "midi": 71,
                    "time": 118.04687499999922,
                    "velocity": 0.6299212598425197,
                    "duration": 0.07031249999998579
                },
                {
                    "name": "G#5",
                    "midi": 80,
                    "time": 118.05208333333255,
                    "velocity": 0.6299212598425197,
                    "duration": 0.06510416666665719
                },
                {
                    "name": "B5",
                    "midi": 83,
                    "time": 118.05208333333255,
                    "velocity": 0.6299212598425197,
                    "duration": 0.06510416666665719
                },
                {
                    "name": "C5",
                    "midi": 72,
                    "time": 118.3124999999992,
                    "velocity": 0.6299212598425197,
                    "duration": 0.2005208333333286
                },
                {
                    "name": "G#5",
                    "midi": 80,
                    "time": 118.3124999999992,
                    "velocity": 0.6299212598425197,
                    "duration": 0.2005208333333286
                },
                {
                    "name": "C6",
                    "midi": 84,
                    "time": 118.3124999999992,
                    "velocity": 0.6299212598425197,
                    "duration": 0.2395833333333286
                },
                {
                    "name": "A#2",
                    "midi": 46,
                    "time": 118.43489583333253,
                    "velocity": 0.6299212598425197,
                    "duration": 0.078125
                },
                {
                    "name": "A#3",
                    "midi": 58,
                    "time": 118.43489583333253,
                    "velocity": 0.6299212598425197,
                    "duration": 0.28125
                },
                {
                    "name": "A#4",
                    "midi": 70,
                    "time": 118.7031249999992,
                    "velocity": 0.6299212598425197,
                    "duration": 0.08072916666665719
                },
                {
                    "name": "A#5",
                    "midi": 82,
                    "time": 118.7031249999992,
                    "velocity": 0.6299212598425197,
                    "duration": 0.08072916666665719
                },
                {
                    "name": "G#3",
                    "midi": 56,
                    "time": 118.83854166666586,
                    "velocity": 0.6299212598425197,
                    "duration": 0.3411458333333286
                },
                {
                    "name": "A#3",
                    "midi": 58,
                    "time": 118.83854166666586,
                    "velocity": 0.6299212598425197,
                    "duration": 0.109375
                },
                {
                    "name": "F4",
                    "midi": 65,
                    "time": 118.83854166666586,
                    "velocity": 0.6299212598425197,
                    "duration": 0.109375
                },
                {
                    "name": "D4",
                    "midi": 62,
                    "time": 118.84374999999919,
                    "velocity": 0.6299212598425197,
                    "duration": 0.1041666666666714
                },
                {
                    "name": "C5",
                    "midi": 72,
                    "time": 118.84374999999919,
                    "velocity": 0.6299212598425197,
                    "duration": 0.1354166666666714
                },
                {
                    "name": "G#5",
                    "midi": 80,
                    "time": 118.84374999999919,
                    "velocity": 0.6299212598425197,
                    "duration": 0.140625
                },
                {
                    "name": "C6",
                    "midi": 84,
                    "time": 118.84374999999919,
                    "velocity": 0.6299212598425197,
                    "duration": 0.1354166666666714
                },
                {
                    "name": "D#2",
                    "midi": 39,
                    "time": 119.09895833333252,
                    "velocity": 0.6299212598425197,
                    "duration": 0.25
                },
                {
                    "name": "A#4",
                    "midi": 70,
                    "time": 119.09895833333252,
                    "velocity": 0.6299212598425197,
                    "duration": 0.0807291666666714
                },
                {
                    "name": "A#5",
                    "midi": 82,
                    "time": 119.10416666666585,
                    "velocity": 0.6299212598425197,
                    "duration": 0.049479166666671404
                },
                {
                    "name": "A#2",
                    "midi": 46,
                    "time": 119.23958333333252,
                    "velocity": 0.6299212598425197,
                    "duration": 0.109375
                },
                {
                    "name": "G3",
                    "midi": 55,
                    "time": 119.23958333333252,
                    "velocity": 0.6299212598425197,
                    "duration": 0.109375
                },
                {
                    "name": "D#5",
                    "midi": 75,
                    "time": 119.24479166666585,
                    "velocity": 0.6299212598425197,
                    "duration": 0.109375
                },
                {
                    "name": "G5",
                    "midi": 79,
                    "time": 119.24479166666585,
                    "velocity": 0.6299212598425197,
                    "duration": 0.109375
                },
                {
                    "name": "A#5",
                    "midi": 82,
                    "time": 119.24479166666585,
                    "velocity": 0.6299212598425197,
                    "duration": 0.109375
                },
                {
                    "name": "D#6",
                    "midi": 87,
                    "time": 119.24479166666585,
                    "velocity": 0.6299212598425197,
                    "duration": 0.109375
                },
                {
                    "name": "G2",
                    "midi": 43,
                    "time": 119.50520833333252,
                    "velocity": 0.6299212598425197,
                    "duration": 0.3177083333333286
                },
                {
                    "name": "G3",
                    "midi": 55,
                    "time": 119.50520833333252,
                    "velocity": 0.6299212598425197,
                    "duration": 0.3229166666666572
                },
                {
                    "name": "F#2",
                    "midi": 42,
                    "time": 119.92187499999918,
                    "velocity": 0.6299212598425197,
                    "duration": 0.11979166666665719
                },
                {
                    "name": "F#3",
                    "midi": 54,
                    "time": 119.9270833333325,
                    "velocity": 0.6299212598425197,
                    "duration": 0.1145833333333286
                },
                {
                    "name": "G2",
                    "midi": 43,
                    "time": 120.06510416666583,
                    "velocity": 0.6299212598425197,
                    "duration": 0.1484375
                },
                {
                    "name": "G3",
                    "midi": 55,
                    "time": 120.06510416666583,
                    "velocity": 0.6299212598425197,
                    "duration": 0.1484375
                },
                {
                    "name": "A2",
                    "midi": 45,
                    "time": 120.32812499999916,
                    "velocity": 0.6299212598425197,
                    "duration": 0.2734375
                },
                {
                    "name": "A3",
                    "midi": 57,
                    "time": 120.33333333333249,
                    "velocity": 0.6299212598425197,
                    "duration": 0.2734375
                },
                {
                    "name": "A2",
                    "midi": 45,
                    "time": 120.72135416666582,
                    "velocity": 0.6299212598425197,
                    "duration": 0.109375
                },
                {
                    "name": "A3",
                    "midi": 57,
                    "time": 120.72656249999915,
                    "velocity": 0.6299212598425197,
                    "duration": 0.1041666666666714
                },
                {
                    "name": "A#2",
                    "midi": 46,
                    "time": 120.84374999999915,
                    "velocity": 0.6299212598425197,
                    "duration": 0.1484374999999858
                },
                {
                    "name": "A#3",
                    "midi": 58,
                    "time": 120.84895833333248,
                    "velocity": 0.6299212598425197,
                    "duration": 0.1432291666666572
                },
                {
                    "name": "A2",
                    "midi": 45,
                    "time": 121.11458333333246,
                    "velocity": 0.6299212598425197,
                    "duration": 0.109375
                },
                {
                    "name": "A3",
                    "midi": 57,
                    "time": 121.11458333333246,
                    "velocity": 0.6299212598425197,
                    "duration": 0.1145833333333286
                },
                {
                    "name": "A#2",
                    "midi": 46,
                    "time": 121.24218749999912,
                    "velocity": 0.6299212598425197,
                    "duration": 0.1692708333333286
                },
                {
                    "name": "A#3",
                    "midi": 58,
                    "time": 121.24218749999912,
                    "velocity": 0.6299212598425197,
                    "duration": 0.1692708333333286
                },
                {
                    "name": "C3",
                    "midi": 48,
                    "time": 121.49739583333245,
                    "velocity": 0.6299212598425197,
                    "duration": 0.2734375
                },
                {
                    "name": "C4",
                    "midi": 60,
                    "time": 121.49739583333245,
                    "velocity": 0.6299212598425197,
                    "duration": 0.2786458333333286
                },
                {
                    "name": "A#2",
                    "midi": 46,
                    "time": 121.8906249999991,
                    "velocity": 0.6299212598425197,
                    "duration": 0.11979166666665719
                },
                {
                    "name": "A#3",
                    "midi": 58,
                    "time": 121.89583333333243,
                    "velocity": 0.6299212598425197,
                    "duration": 0.11979166666665719
                },
                {
                    "name": "G2",
                    "midi": 43,
                    "time": 122.02864583333242,
                    "velocity": 0.6299212598425197,
                    "duration": 0.1484375
                },
                {
                    "name": "G3",
                    "midi": 55,
                    "time": 122.02864583333242,
                    "velocity": 0.6299212598425197,
                    "duration": 0.1484375
                },
                {
                    "name": "F#2",
                    "midi": 42,
                    "time": 122.29947916666575,
                    "velocity": 0.6299212598425197,
                    "duration": 0.1145833333333286
                },
                {
                    "name": "F#3",
                    "midi": 54,
                    "time": 122.30468749999908,
                    "velocity": 0.6299212598425197,
                    "duration": 0.1223958333333286
                },
                {
                    "name": "F2",
                    "midi": 41,
                    "time": 122.4427083333324,
                    "velocity": 0.6299212598425197,
                    "duration": 0.1796875
                },
                {
                    "name": "F3",
                    "midi": 53,
                    "time": 122.4427083333324,
                    "velocity": 0.6299212598425197,
                    "duration": 1.3281249999999716
                },
                {
                    "name": "D5",
                    "midi": 74,
                    "time": 122.44791666666573,
                    "velocity": 0.6299212598425197,
                    "duration": 0.1484375
                },
                {
                    "name": "G#5",
                    "midi": 80,
                    "time": 122.44791666666573,
                    "velocity": 0.6299212598425197,
                    "duration": 0.1484375
                },
                {
                    "name": "D6",
                    "midi": 86,
                    "time": 122.44791666666573,
                    "velocity": 0.6299212598425197,
                    "duration": 0.1484375
                },
                {
                    "name": "C5",
                    "midi": 72,
                    "time": 122.71354166666573,
                    "velocity": 0.6299212598425197,
                    "duration": 0.1223958333333286
                },
                {
                    "name": "G#5",
                    "midi": 80,
                    "time": 122.71874999999906,
                    "velocity": 0.6299212598425197,
                    "duration": 0.049479166666671404
                },
                {
                    "name": "C6",
                    "midi": 84,
                    "time": 122.71874999999906,
                    "velocity": 0.6299212598425197,
                    "duration": 0.1171875
                },
                {
                    "name": "G#3",
                    "midi": 56,
                    "time": 122.84895833333239,
                    "velocity": 0.6299212598425197,
                    "duration": 0.1145833333333286
                },
                {
                    "name": "A#3",
                    "midi": 58,
                    "time": 122.84895833333239,
                    "velocity": 0.6299212598425197,
                    "duration": 0.1145833333333286
                },
                {
                    "name": "D4",
                    "midi": 62,
                    "time": 122.86197916666572,
                    "velocity": 0.6299212598425197,
                    "duration": 0.1015625
                },
                {
                    "name": "F4",
                    "midi": 65,
                    "time": 122.86197916666572,
                    "velocity": 0.6299212598425197,
                    "duration": 0.1015625
                },
                {
                    "name": "A#4",
                    "midi": 70,
                    "time": 122.86197916666572,
                    "velocity": 0.6299212598425197,
                    "duration": 0.1015625
                },
                {
                    "name": "D5",
                    "midi": 74,
                    "time": 122.86197916666572,
                    "velocity": 0.6299212598425197,
                    "duration": 0.1015625
                },
                {
                    "name": "G#5",
                    "midi": 80,
                    "time": 122.86718749999905,
                    "velocity": 0.6299212598425197,
                    "duration": 0.0963541666666714
                },
                {
                    "name": "A#5",
                    "midi": 82,
                    "time": 122.86718749999905,
                    "velocity": 0.6299212598425197,
                    "duration": 0.1015625
                },
                {
                    "name": "B4",
                    "midi": 71,
                    "time": 123.12239583333238,
                    "velocity": 0.6299212598425197,
                    "duration": 0.11458333333334281
                },
                {
                    "name": "G#5",
                    "midi": 80,
                    "time": 123.12239583333238,
                    "velocity": 0.6299212598425197,
                    "duration": 0.05989583333334281
                },
                {
                    "name": "B5",
                    "midi": 83,
                    "time": 123.12499999999905,
                    "velocity": 0.6299212598425197,
                    "duration": 0.1171875
                },
                {
                    "name": "A#1",
                    "midi": 34,
                    "time": 123.18229166666572,
                    "velocity": 0.6299212598425197,
                    "duration": 0.1067708333333286
                },
                {
                    "name": "C5",
                    "midi": 72,
                    "time": 123.25260416666572,
                    "velocity": 0.6299212598425197,
                    "duration": 0.5182291666666572
                },
                {
                    "name": "G#5",
                    "midi": 80,
                    "time": 123.25781249999905,
                    "velocity": 0.6299212598425197,
                    "duration": 0.5182291666666572
                },
                {
                    "name": "C6",
                    "midi": 84,
                    "time": 123.25781249999905,
                    "velocity": 0.6299212598425197,
                    "duration": 0.5182291666666572
                },
                {
                    "name": "G#3",
                    "midi": 56,
                    "time": 123.65624999999905,
                    "velocity": 0.6299212598425197,
                    "duration": 0.1145833333333286
                },
                {
                    "name": "A#3",
                    "midi": 58,
                    "time": 123.65624999999905,
                    "velocity": 0.6299212598425197,
                    "duration": 0.1145833333333286
                },
                {
                    "name": "D4",
                    "midi": 62,
                    "time": 123.65624999999905,
                    "velocity": 0.6299212598425197,
                    "duration": 0.1145833333333286
                },
                {
                    "name": "F4",
                    "midi": 65,
                    "time": 123.65624999999905,
                    "velocity": 0.6299212598425197,
                    "duration": 0.1145833333333286
                },
                {
                    "name": "F2",
                    "midi": 41,
                    "time": 123.91145833333238,
                    "velocity": 0.6299212598425197,
                    "duration": 0.2499999999999858
                },
                {
                    "name": "A#5",
                    "midi": 82,
                    "time": 123.9244791666657,
                    "velocity": 0.6299212598425197,
                    "duration": 0.1223958333333286
                },
                {
                    "name": "G#3",
                    "midi": 56,
                    "time": 124.05989583333236,
                    "velocity": 0.6299212598425197,
                    "duration": 1.4401041666666572
                },
                {
                    "name": "A5",
                    "midi": 81,
                    "time": 124.06249999999903,
                    "velocity": 0.6299212598425197,
                    "duration": 0.1796875
                },
                {
                    "name": "A#5",
                    "midi": 82,
                    "time": 124.29687499999903,
                    "velocity": 0.6299212598425197,
                    "duration": 0.1041666666666714
                },
                {
                    "name": "A#3",
                    "midi": 58,
                    "time": 124.44270833333236,
                    "velocity": 0.6299212598425197,
                    "duration": 0.078125
                },
                {
                    "name": "D4",
                    "midi": 62,
                    "time": 124.44270833333236,
                    "velocity": 0.6299212598425197,
                    "duration": 0.078125
                },
                {
                    "name": "F4",
                    "midi": 65,
                    "time": 124.44270833333236,
                    "velocity": 0.6299212598425197,
                    "duration": 0.078125
                },
                {
                    "name": "G#4",
                    "midi": 68,
                    "time": 124.44270833333236,
                    "velocity": 0.6299212598425197,
                    "duration": 0.078125
                },
                {
                    "name": "G#5",
                    "midi": 80,
                    "time": 124.44791666666569,
                    "velocity": 0.6299212598425197,
                    "duration": 0.078125
                },
                {
                    "name": "A#5",
                    "midi": 82,
                    "time": 124.54427083333236,
                    "velocity": 0.6299212598425197,
                    "duration": 0.0807291666666714
                },
                {
                    "name": "G#5",
                    "midi": 80,
                    "time": 124.64843749999903,
                    "velocity": 0.6299212598425197,
                    "duration": 0.0807291666666714
                },
                {
                    "name": "F5",
                    "midi": 77,
                    "time": 124.74739583333238,
                    "velocity": 0.6299212598425197,
                    "duration": 0.078125
                },
                {
                    "name": "A#1",
                    "midi": 34,
                    "time": 124.84374999999905,
                    "velocity": 0.6299212598425197,
                    "duration": 0.109375
                },
                {
                    "name": "D5",
                    "midi": 74,
                    "time": 124.85677083333238,
                    "velocity": 0.6299212598425197,
                    "duration": 0.0807291666666714
                },
                {
                    "name": "F5",
                    "midi": 77,
                    "time": 124.95312499999905,
                    "velocity": 0.6299212598425197,
                    "duration": 0.0859375
                },
                {
                    "name": "D5",
                    "midi": 74,
                    "time": 125.05208333333238,
                    "velocity": 0.6299212598425197,
                    "duration": 0.078125
                },
                {
                    "name": "C5",
                    "midi": 72,
                    "time": 125.14843749999905,
                    "velocity": 0.6299212598425197,
                    "duration": 0.0859375
                },
                {
                    "name": "A#3",
                    "midi": 58,
                    "time": 125.24999999999905,
                    "velocity": 0.6299212598425197,
                    "duration": 0.11197916666665719
                },
                {
                    "name": "D4",
                    "midi": 62,
                    "time": 125.24999999999905,
                    "velocity": 0.6299212598425197,
                    "duration": 0.11197916666665719
                },
                {
                    "name": "F4",
                    "midi": 65,
                    "time": 125.24999999999905,
                    "velocity": 0.6299212598425197,
                    "duration": 0.11718749999998579
                },
                {
                    "name": "A#4",
                    "midi": 70,
                    "time": 125.24999999999905,
                    "velocity": 0.6299212598425197,
                    "duration": 0.14583333333331439
                },
                {
                    "name": "D5",
                    "midi": 74,
                    "time": 125.24999999999905,
                    "velocity": 0.6299212598425197,
                    "duration": 0.14583333333331439
                },
                {
                    "name": "F5",
                    "midi": 77,
                    "time": 125.24999999999905,
                    "velocity": 0.6299212598425197,
                    "duration": 0.14583333333331439
                },
                {
                    "name": "G#5",
                    "midi": 80,
                    "time": 125.24999999999905,
                    "velocity": 0.6299212598425197,
                    "duration": 0.15104166666664298
                },
                {
                    "name": "A#5",
                    "midi": 82,
                    "time": 125.25520833333238,
                    "velocity": 0.6299212598425197,
                    "duration": 0.14583333333331439
                },
                {
                    "name": "D#2",
                    "midi": 39,
                    "time": 125.51041666666569,
                    "velocity": 0.6299212598425197,
                    "duration": 0.07812499999998579
                },
                {
                    "name": "D5",
                    "midi": 74,
                    "time": 125.51562499999902,
                    "velocity": 0.6299212598425197,
                    "duration": 0.14583333333331439
                },
                {
                    "name": "F5",
                    "midi": 77,
                    "time": 125.51562499999902,
                    "velocity": 0.6299212598425197,
                    "duration": 0.14583333333331439
                },
                {
                    "name": "G#4",
                    "midi": 68,
                    "time": 125.52083333333235,
                    "velocity": 0.6299212598425197,
                    "duration": 0.1406249999999858
                },
                {
                    "name": "G#5",
                    "midi": 80,
                    "time": 125.52083333333235,
                    "velocity": 0.6299212598425197,
                    "duration": 0.1406249999999858
                },
                {
                    "name": "A#2",
                    "midi": 46,
                    "time": 125.64322916666568,
                    "velocity": 0.6299212598425197,
                    "duration": 0.1822916666666572
                },
                {
                    "name": "G3",
                    "midi": 55,
                    "time": 125.648437499999,
                    "velocity": 0.6299212598425197,
                    "duration": 0.6380208333333002
                },
                {
                    "name": "D5",
                    "midi": 74,
                    "time": 125.91927083333233,
                    "velocity": 0.6299212598425197,
                    "duration": 0.11197916666665719
                },
                {
                    "name": "G5",
                    "midi": 79,
                    "time": 125.91927083333233,
                    "velocity": 0.6299212598425197,
                    "duration": 0.052083333333328596
                },
                {
                    "name": "A#5",
                    "midi": 82,
                    "time": 125.92447916666566,
                    "velocity": 0.6299212598425197,
                    "duration": 0.046875
                },
                {
                    "name": "D6",
                    "midi": 86,
                    "time": 125.92447916666566,
                    "velocity": 0.6299212598425197,
                    "duration": 0.11197916666665719
                },
                {
                    "name": "A#3",
                    "midi": 58,
                    "time": 126.04947916666565,
                    "velocity": 0.6299212598425197,
                    "duration": 0.1041666666666714
                },
                {
                    "name": "D#4",
                    "midi": 63,
                    "time": 126.04947916666565,
                    "velocity": 0.6299212598425197,
                    "duration": 0.109375
                },
                {
                    "name": "G4",
                    "midi": 67,
                    "time": 126.04947916666565,
                    "velocity": 0.6299212598425197,
                    "duration": 0.109375
                },
                {
                    "name": "C5",
                    "midi": 72,
                    "time": 126.04947916666565,
                    "velocity": 0.6299212598425197,
                    "duration": 0.109375
                },
                {
                    "name": "G5",
                    "midi": 79,
                    "time": 126.04947916666565,
                    "velocity": 0.6299212598425197,
                    "duration": 0.109375
                },
                {
                    "name": "A#5",
                    "midi": 82,
                    "time": 126.04947916666565,
                    "velocity": 0.6299212598425197,
                    "duration": 0.109375
                },
                {
                    "name": "C6",
                    "midi": 84,
                    "time": 126.04947916666565,
                    "velocity": 0.6299212598425197,
                    "duration": 0.1145833333333286
                },
                {
                    "name": "A#4",
                    "midi": 70,
                    "time": 126.30468749999898,
                    "velocity": 0.6299212598425197,
                    "duration": 0.1145833333333286
                },
                {
                    "name": "G5",
                    "midi": 79,
                    "time": 126.3098958333323,
                    "velocity": 0.6299212598425197,
                    "duration": 0.041666666666671404
                },
                {
                    "name": "A#5",
                    "midi": 82,
                    "time": 126.3098958333323,
                    "velocity": 0.6299212598425197,
                    "duration": 0.1145833333333286
                },
                {
                    "name": "A#3",
                    "midi": 58,
                    "time": 126.43749999999896,
                    "velocity": 0.6299212598425197,
                    "duration": 0.3098958333333428
                },
                {
                    "name": "C5",
                    "midi": 72,
                    "time": 126.43749999999896,
                    "velocity": 0.6299212598425197,
                    "duration": 0.5
                },
                {
                    "name": "G5",
                    "midi": 79,
                    "time": 126.44010416666563,
                    "velocity": 0.6299212598425197,
                    "duration": 0.5026041666666572
                },
                {
                    "name": "C6",
                    "midi": 84,
                    "time": 126.44010416666563,
                    "velocity": 0.6299212598425197,
                    "duration": 0.5026041666666572
                },
                {
                    "name": "A#3",
                    "midi": 58,
                    "time": 126.83072916666563,
                    "velocity": 0.6299212598425197,
                    "duration": 0.3463541666666572
                },
                {
                    "name": "D#4",
                    "midi": 63,
                    "time": 126.83072916666563,
                    "velocity": 0.6299212598425197,
                    "duration": 0.0729166666666714
                },
                {
                    "name": "G4",
                    "midi": 67,
                    "time": 126.83072916666563,
                    "velocity": 0.6299212598425197,
                    "duration": 0.078125
                },
                {
                    "name": "A#2",
                    "midi": 46,
                    "time": 127.09114583333229,
                    "velocity": 0.6299212598425197,
                    "duration": 0.2109374999999858
                },
                {
                    "name": "G5",
                    "midi": 79,
                    "time": 127.09635416666562,
                    "velocity": 0.6299212598425197,
                    "duration": 0.0546875
                },
                {
                    "name": "A#5",
                    "midi": 82,
                    "time": 127.09635416666562,
                    "velocity": 0.6299212598425197,
                    "duration": 0.0546875
                },
                {
                    "name": "G3",
                    "midi": 55,
                    "time": 127.22395833333229,
                    "velocity": 0.6299212598425197,
                    "duration": 1.5104166666666856
                },
                {
                    "name": "D5",
                    "midi": 74,
                    "time": 127.22916666666562,
                    "velocity": 0.6299212598425197,
                    "duration": 0.07812499999998579
                },
                {
                    "name": "G5",
                    "midi": 79,
                    "time": 127.22916666666562,
                    "velocity": 0.6299212598425197,
                    "duration": 0.08333333333331439
                },
                {
                    "name": "A#5",
                    "midi": 82,
                    "time": 127.22916666666562,
                    "velocity": 0.6299212598425197,
                    "duration": 0.08333333333331439
                },
                {
                    "name": "D6",
                    "midi": 86,
                    "time": 127.23437499999895,
                    "velocity": 0.6299212598425197,
                    "duration": 0.07812499999998579
                },
                {
                    "name": "D#5",
                    "midi": 75,
                    "time": 127.4947916666656,
                    "velocity": 0.6299212598425197,
                    "duration": 0.0729166666666714
                },
                {
                    "name": "G5",
                    "midi": 79,
                    "time": 127.4947916666656,
                    "velocity": 0.6299212598425197,
                    "duration": 0.049479166666671404
                },
                {
                    "name": "A#5",
                    "midi": 82,
                    "time": 127.4947916666656,
                    "velocity": 0.6299212598425197,
                    "duration": 0.049479166666671404
                },
                {
                    "name": "D#6",
                    "midi": 87,
                    "time": 127.4947916666656,
                    "velocity": 0.6299212598425197,
                    "duration": 0.078125
                },
                {
                    "name": "C4",
                    "midi": 60,
                    "time": 127.6276041666656,
                    "velocity": 0.6299212598425197,
                    "duration": 0.11197916666665719
                },
                {
                    "name": "D#4",
                    "midi": 63,
                    "time": 127.6276041666656,
                    "velocity": 0.6299212598425197,
                    "duration": 0.11197916666665719
                },
                {
                    "name": "G5",
                    "midi": 79,
                    "time": 127.63281249999893,
                    "velocity": 0.6299212598425197,
                    "duration": 0.1171875
                },
                {
                    "name": "A#5",
                    "midi": 82,
                    "time": 127.63281249999893,
                    "velocity": 0.6299212598425197,
                    "duration": 0.1171875
                },
                {
                    "name": "C6",
                    "midi": 84,
                    "time": 127.63281249999893,
                    "velocity": 0.6299212598425197,
                    "duration": 0.1171875
                },
                {
                    "name": "D5",
                    "midi": 74,
                    "time": 127.90364583333226,
                    "velocity": 0.6299212598425197,
                    "duration": 0.078125
                },
                {
                    "name": "G5",
                    "midi": 79,
                    "time": 127.90885416666559,
                    "velocity": 0.6299212598425197,
                    "duration": 0.041666666666671404
                },
                {
                    "name": "A#5",
                    "midi": 82,
                    "time": 127.90885416666559,
                    "velocity": 0.6299212598425197,
                    "duration": 0.041666666666671404
                },
                {
                    "name": "D6",
                    "midi": 86,
                    "time": 127.90885416666559,
                    "velocity": 0.6299212598425197,
                    "duration": 0.0729166666666714
                },
                {
                    "name": "D#2",
                    "midi": 39,
                    "time": 128.0182291666656,
                    "velocity": 0.6299212598425197,
                    "duration": 0.11458333333331439
                },
                {
                    "name": "A#4",
                    "midi": 70,
                    "time": 128.03645833333226,
                    "velocity": 0.6299212598425197,
                    "duration": 0.1015625
                },
                {
                    "name": "G5",
                    "midi": 79,
                    "time": 128.03645833333226,
                    "velocity": 0.6299212598425197,
                    "duration": 0.10677083333334281
                },
                {
                    "name": "A#5",
                    "midi": 82,
                    "time": 128.03645833333226,
                    "velocity": 0.6299212598425197,
                    "duration": 0.1015625
                },
                {
                    "name": "D#5",
                    "midi": 75,
                    "time": 128.29687499999895,
                    "velocity": 0.6299212598425197,
                    "duration": 0.109375
                },
                {
                    "name": "D#6",
                    "midi": 87,
                    "time": 128.29687499999895,
                    "velocity": 0.6299212598425197,
                    "duration": 0.109375
                },
                {
                    "name": "A#3",
                    "midi": 58,
                    "time": 128.4192708333323,
                    "velocity": 0.6299212598425197,
                    "duration": 0.14322916666668561
                },
                {
                    "name": "D4",
                    "midi": 62,
                    "time": 128.42447916666563,
                    "velocity": 0.6299212598425197,
                    "duration": 0.109375
                },
                {
                    "name": "D5",
                    "midi": 74,
                    "time": 128.42447916666563,
                    "velocity": 0.6299212598425197,
                    "duration": 0.109375
                },
                {
                    "name": "G5",
                    "midi": 79,
                    "time": 128.42968749999898,
                    "velocity": 0.6299212598425197,
                    "duration": 0.109375
                },
                {
                    "name": "D6",
                    "midi": 86,
                    "time": 128.42968749999898,
                    "velocity": 0.6299212598425197,
                    "duration": 0.10416666666665719
                },
                {
                    "name": "C#5",
                    "midi": 73,
                    "time": 128.68749999999898,
                    "velocity": 0.6299212598425197,
                    "duration": 0.10677083333334281
                },
                {
                    "name": "G5",
                    "midi": 79,
                    "time": 128.68749999999898,
                    "velocity": 0.6299212598425197,
                    "duration": 0.11197916666668561
                },
                {
                    "name": "C#6",
                    "midi": 85,
                    "time": 128.69010416666563,
                    "velocity": 0.6299212598425197,
                    "duration": 0.10937500000002842
                },
                {
                    "name": "G#2",
                    "midi": 44,
                    "time": 128.804687499999,
                    "velocity": 0.6299212598425197,
                    "duration": 0.109375
                },
                {
                    "name": "G#3",
                    "midi": 56,
                    "time": 128.80989583333235,
                    "velocity": 0.6299212598425197,
                    "duration": 0.2682291666666572
                },
                {
                    "name": "C5",
                    "midi": 72,
                    "time": 128.80989583333235,
                    "velocity": 0.6299212598425197,
                    "duration": 0.20833333333331439
                },
                {
                    "name": "G#5",
                    "midi": 80,
                    "time": 128.80989583333235,
                    "velocity": 0.6299212598425197,
                    "duration": 0.2526041666666572
                },
                {
                    "name": "C6",
                    "midi": 84,
                    "time": 128.80989583333235,
                    "velocity": 0.6299212598425197,
                    "duration": 0.2526041666666572
                },
                {
                    "name": "D#3",
                    "midi": 51,
                    "time": 129.19270833333235,
                    "velocity": 0.6299212598425197,
                    "duration": 0.11718750000002842
                },
                {
                    "name": "G#3",
                    "midi": 56,
                    "time": 129.19270833333235,
                    "velocity": 0.6299212598425197,
                    "duration": 0.31510416666671404
                },
                {
                    "name": "C4",
                    "midi": 60,
                    "time": 129.1979166666657,
                    "velocity": 0.6299212598425197,
                    "duration": 0.11197916666668561
                },
                {
                    "name": "B4",
                    "midi": 71,
                    "time": 129.1979166666657,
                    "velocity": 0.6299212598425197,
                    "duration": 0.1458333333333428
                },
                {
                    "name": "G#5",
                    "midi": 80,
                    "time": 129.20312499999903,
                    "velocity": 0.6299212598425197,
                    "duration": 0.109375
                },
                {
                    "name": "B5",
                    "midi": 83,
                    "time": 129.20312499999903,
                    "velocity": 0.6299212598425197,
                    "duration": 0.140625
                },
                {
                    "name": "C5",
                    "midi": 72,
                    "time": 129.46614583333238,
                    "velocity": 0.6299212598425197,
                    "duration": 0.11458333333334281
                },
                {
                    "name": "C6",
                    "midi": 84,
                    "time": 129.47135416666572,
                    "velocity": 0.6299212598425197,
                    "duration": 0.11458333333334281
                },
                {
                    "name": "A2",
                    "midi": 45,
                    "time": 129.5911458333324,
                    "velocity": 0.6299212598425197,
                    "duration": 0.11458333333334281
                },
                {
                    "name": "A3",
                    "midi": 57,
                    "time": 129.59635416666575,
                    "velocity": 0.6299212598425197,
                    "duration": 0.2786458333333428
                },
                {
                    "name": "D5",
                    "midi": 74,
                    "time": 129.59635416666575,
                    "velocity": 0.6299212598425197,
                    "duration": 0.25
                },
                {
                    "name": "F#5",
                    "midi": 78,
                    "time": 129.59635416666575,
                    "velocity": 0.6299212598425197,
                    "duration": 0.25
                },
                {
                    "name": "A5",
                    "midi": 81,
                    "time": 129.59635416666575,
                    "velocity": 0.6299212598425197,
                    "duration": 0.25
                },
                {
                    "name": "D6",
                    "midi": 86,
                    "time": 129.59635416666575,
                    "velocity": 0.6299212598425197,
                    "duration": 0.25
                },
                {
                    "name": "D#3",
                    "midi": 51,
                    "time": 129.9999999999991,
                    "velocity": 0.6299212598425197,
                    "duration": 0.078125
                },
                {
                    "name": "F#3",
                    "midi": 54,
                    "time": 129.9999999999991,
                    "velocity": 0.6299212598425197,
                    "duration": 0.078125
                },
                {
                    "name": "A3",
                    "midi": 57,
                    "time": 129.9999999999991,
                    "velocity": 0.6299212598425197,
                    "duration": 0.3151041666666856
                },
                {
                    "name": "C4",
                    "midi": 60,
                    "time": 129.9999999999991,
                    "velocity": 0.6299212598425197,
                    "duration": 0.078125
                },
                {
                    "name": "C5",
                    "midi": 72,
                    "time": 129.9999999999991,
                    "velocity": 0.6299212598425197,
                    "duration": 0.12239583333334281
                },
                {
                    "name": "A5",
                    "midi": 81,
                    "time": 129.9999999999991,
                    "velocity": 0.6299212598425197,
                    "duration": 0.125
                },
                {
                    "name": "C6",
                    "midi": 84,
                    "time": 130.00260416666575,
                    "velocity": 0.6299212598425197,
                    "duration": 0.11979166666668561
                },
                {
                    "name": "F#5",
                    "midi": 78,
                    "time": 130.04166666666575,
                    "velocity": 0.6299212598425197,
                    "duration": 0.08072916666668561
                },
                {
                    "name": "D5",
                    "midi": 74,
                    "time": 130.27864583333243,
                    "velocity": 0.6299212598425197,
                    "duration": 0.08854166666668561
                },
                {
                    "name": "D6",
                    "midi": 86,
                    "time": 130.27864583333243,
                    "velocity": 0.6299212598425197,
                    "duration": 0.08854166666668561
                },
                {
                    "name": "A#2",
                    "midi": 46,
                    "time": 130.4088541666658,
                    "velocity": 0.6299212598425197,
                    "duration": 0.2135416666666572
                },
                {
                    "name": "A#3",
                    "midi": 58,
                    "time": 130.4088541666658,
                    "velocity": 0.6299212598425197,
                    "duration": 0.2552083333333144
                },
                {
                    "name": "D#5",
                    "midi": 75,
                    "time": 130.41406249999915,
                    "velocity": 0.6299212598425197,
                    "duration": 0.08072916666665719
                },
                {
                    "name": "G5",
                    "midi": 79,
                    "time": 130.41406249999915,
                    "velocity": 0.6299212598425197,
                    "duration": 0.0859375
                },
                {
                    "name": "A#5",
                    "midi": 82,
                    "time": 130.41406249999915,
                    "velocity": 0.6299212598425197,
                    "duration": 0.0546875
                },
                {
                    "name": "D#6",
                    "midi": 87,
                    "time": 130.41406249999915,
                    "velocity": 0.6299212598425197,
                    "duration": 0.0859375
                },
                {
                    "name": "F5",
                    "midi": 77,
                    "time": 130.5494791666658,
                    "velocity": 0.6299212598425197,
                    "duration": 0.08333333333331439
                },
                {
                    "name": "A#5",
                    "midi": 82,
                    "time": 130.5494791666658,
                    "velocity": 0.6299212598425197,
                    "duration": 0.0546875
                },
                {
                    "name": "F6",
                    "midi": 89,
                    "time": 130.5494791666658,
                    "velocity": 0.6299212598425197,
                    "duration": 0.08333333333331439
                },
                {
                    "name": "D#5",
                    "midi": 75,
                    "time": 130.68749999999912,
                    "velocity": 0.6299212598425197,
                    "duration": 0.08072916666665719
                },
                {
                    "name": "G5",
                    "midi": 79,
                    "time": 130.68749999999912,
                    "velocity": 0.6299212598425197,
                    "duration": 0.0859375
                },
                {
                    "name": "A#5",
                    "midi": 82,
                    "time": 130.68749999999912,
                    "velocity": 0.6299212598425197,
                    "duration": 0.0859375
                },
                {
                    "name": "D#6",
                    "midi": 87,
                    "time": 130.68749999999912,
                    "velocity": 0.6299212598425197,
                    "duration": 0.0859375
                },
                {
                    "name": "G2",
                    "midi": 43,
                    "time": 130.81510416666578,
                    "velocity": 0.6299212598425197,
                    "duration": 0.2473958333333428
                },
                {
                    "name": "D3",
                    "midi": 50,
                    "time": 130.81510416666578,
                    "velocity": 0.6299212598425197,
                    "duration": 0.2473958333333428
                },
                {
                    "name": "B3",
                    "midi": 59,
                    "time": 130.81510416666578,
                    "velocity": 0.6299212598425197,
                    "duration": 0.25
                },
                {
                    "name": "D5",
                    "midi": 74,
                    "time": 130.81510416666578,
                    "velocity": 0.6299212598425197,
                    "duration": 0.1536458333333428
                },
                {
                    "name": "F5",
                    "midi": 77,
                    "time": 130.81510416666578,
                    "velocity": 0.6299212598425197,
                    "duration": 0.1536458333333428
                },
                {
                    "name": "B5",
                    "midi": 83,
                    "time": 130.82031249999912,
                    "velocity": 0.6299212598425197,
                    "duration": 0.1484375
                },
                {
                    "name": "D6",
                    "midi": 86,
                    "time": 130.82031249999912,
                    "velocity": 0.6299212598425197,
                    "duration": 0.1484375
                },
                {
                    "name": "C5",
                    "midi": 72,
                    "time": 131.08333333333243,
                    "velocity": 0.6299212598425197,
                    "duration": 0.640625
                },
                {
                    "name": "E5",
                    "midi": 76,
                    "time": 131.08333333333243,
                    "velocity": 0.6299212598425197,
                    "duration": 0.640625
                },
                {
                    "name": "G5",
                    "midi": 79,
                    "time": 131.08854166666578,
                    "velocity": 0.6299212598425197,
                    "duration": 0.640625
                },
                {
                    "name": "A#5",
                    "midi": 82,
                    "time": 131.08854166666578,
                    "velocity": 0.6299212598425197,
                    "duration": 0.640625
                },
                {
                    "name": "C6",
                    "midi": 84,
                    "time": 131.08854166666578,
                    "velocity": 0.6299212598425197,
                    "duration": 0.640625
                },
                {
                    "name": "C2",
                    "midi": 36,
                    "time": 131.21614583333243,
                    "velocity": 0.6299212598425197,
                    "duration": 0.5026041666666572
                },
                {
                    "name": "G2",
                    "midi": 43,
                    "time": 131.21614583333243,
                    "velocity": 0.6299212598425197,
                    "duration": 0.5026041666666572
                },
                {
                    "name": "E3",
                    "midi": 52,
                    "time": 131.21614583333243,
                    "velocity": 0.6299212598425197,
                    "duration": 0.5078125
                },
                {
                    "name": "G3",
                    "midi": 55,
                    "time": 131.61458333333243,
                    "velocity": 0.6299212598425197,
                    "duration": 0.109375
                },
                {
                    "name": "A#3",
                    "midi": 58,
                    "time": 131.61458333333243,
                    "velocity": 0.6299212598425197,
                    "duration": 0.109375
                },
                {
                    "name": "C4",
                    "midi": 60,
                    "time": 131.61458333333243,
                    "velocity": 0.6299212598425197,
                    "duration": 0.109375
                },
                {
                    "name": "E4",
                    "midi": 64,
                    "time": 131.61458333333243,
                    "velocity": 0.6299212598425197,
                    "duration": 0.109375
                },
                {
                    "name": "F2",
                    "midi": 41,
                    "time": 131.87499999999912,
                    "velocity": 0.6299212598425197,
                    "duration": 0.25520833333337123
                },
                {
                    "name": "D5",
                    "midi": 74,
                    "time": 131.88020833333246,
                    "velocity": 0.6299212598425197,
                    "duration": 0.12239583333334281
                },
                {
                    "name": "D6",
                    "midi": 86,
                    "time": 131.88020833333246,
                    "velocity": 0.6299212598425197,
                    "duration": 0.12239583333334281
                },
                {
                    "name": "C3",
                    "midi": 48,
                    "time": 132.01562499999915,
                    "velocity": 0.6299212598425197,
                    "duration": 0.11458333333334281
                },
                {
                    "name": "A3",
                    "midi": 57,
                    "time": 132.01562499999915,
                    "velocity": 0.6299212598425197,
                    "duration": 0.2760416666666856
                },
                {
                    "name": "D#5",
                    "midi": 75,
                    "time": 132.0208333333325,
                    "velocity": 0.6299212598425197,
                    "duration": 0.11458333333334281
                },
                {
                    "name": "A5",
                    "midi": 81,
                    "time": 132.0208333333325,
                    "velocity": 0.6299212598425197,
                    "duration": 0.04947916666665719
                },
                {
                    "name": "C6",
                    "midi": 84,
                    "time": 132.0208333333325,
                    "velocity": 0.6299212598425197,
                    "duration": 0.04947916666665719
                },
                {
                    "name": "D#6",
                    "midi": 87,
                    "time": 132.0208333333325,
                    "velocity": 0.6299212598425197,
                    "duration": 0.11458333333334281
                },
                {
                    "name": "F5",
                    "midi": 77,
                    "time": 132.1536458333325,
                    "velocity": 0.6299212598425197,
                    "duration": 0.11458333333334281
                },
                {
                    "name": "A5",
                    "midi": 81,
                    "time": 132.1536458333325,
                    "velocity": 0.6299212598425197,
                    "duration": 0.04947916666665719
                },
                {
                    "name": "C6",
                    "midi": 84,
                    "time": 132.1536458333325,
                    "velocity": 0.6299212598425197,
                    "duration": 0.0546875
                },
                {
                    "name": "F6",
                    "midi": 89,
                    "time": 132.1536458333325,
                    "velocity": 0.6299212598425197,
                    "duration": 0.11458333333334281
                },
                {
                    "name": "D#5",
                    "midi": 75,
                    "time": 132.2864583333325,
                    "velocity": 0.6299212598425197,
                    "duration": 0.11458333333334281
                },
                {
                    "name": "A5",
                    "midi": 81,
                    "time": 132.2864583333325,
                    "velocity": 0.6299212598425197,
                    "duration": 0.046875
                },
                {
                    "name": "C6",
                    "midi": 84,
                    "time": 132.2864583333325,
                    "velocity": 0.6299212598425197,
                    "duration": 0.046875
                },
                {
                    "name": "D#6",
                    "midi": 87,
                    "time": 132.2864583333325,
                    "velocity": 0.6299212598425197,
                    "duration": 0.11458333333334281
                },
                {
                    "name": "F3",
                    "midi": 53,
                    "time": 132.41406249999918,
                    "velocity": 0.6299212598425197,
                    "duration": 0.0859375
                },
                {
                    "name": "A3",
                    "midi": 57,
                    "time": 132.41406249999918,
                    "velocity": 0.6299212598425197,
                    "duration": 0.3203125
                },
                {
                    "name": "C4",
                    "midi": 60,
                    "time": 132.41406249999918,
                    "velocity": 0.6299212598425197,
                    "duration": 0.0859375
                },
                {
                    "name": "D#4",
                    "midi": 63,
                    "time": 132.41406249999918,
                    "velocity": 0.6299212598425197,
                    "duration": 0.08854166666665719
                },
                {
                    "name": "C5",
                    "midi": 72,
                    "time": 132.41927083333252,
                    "velocity": 0.6299212598425197,
                    "duration": 0.21874999999997158
                },
                {
                    "name": "A5",
                    "midi": 81,
                    "time": 132.41927083333252,
                    "velocity": 0.6299212598425197,
                    "duration": 0.08333333333331439
                },
                {
                    "name": "C6",
                    "midi": 84,
                    "time": 132.41927083333252,
                    "velocity": 0.6299212598425197,
                    "duration": 0.22395833333331439
                },
                {
                    "name": "A#2",
                    "midi": 46,
                    "time": 132.68749999999918,
                    "velocity": 0.6299212598425197,
                    "duration": 0.2083333333333428
                },
                {
                    "name": "B4",
                    "midi": 71,
                    "time": 132.69010416666583,
                    "velocity": 0.6299212598425197,
                    "duration": 0.11718750000002842
                },
                {
                    "name": "F5",
                    "midi": 77,
                    "time": 132.69010416666583,
                    "velocity": 0.6299212598425197,
                    "duration": 0.057291666666685614
                },
                {
                    "name": "B5",
                    "midi": 83,
                    "time": 132.69010416666583,
                    "velocity": 0.6299212598425197,
                    "duration": 0.11718750000002842
                },
                {
                    "name": "A#3",
                    "midi": 58,
                    "time": 132.81770833333252,
                    "velocity": 0.6299212598425197,
                    "duration": 0.3541666666666572
                },
                {
                    "name": "A#4",
                    "midi": 70,
                    "time": 132.82291666666586,
                    "velocity": 0.6299212598425197,
                    "duration": 0.11197916666665719
                },
                {
                    "name": "D5",
                    "midi": 74,
                    "time": 132.82291666666586,
                    "velocity": 0.6299212598425197,
                    "duration": 0.11197916666665719
                },
                {
                    "name": "F5",
                    "midi": 77,
                    "time": 132.82291666666586,
                    "velocity": 0.6299212598425197,
                    "duration": 0.11197916666665719
                },
                {
                    "name": "G#5",
                    "midi": 80,
                    "time": 132.82291666666586,
                    "velocity": 0.6299212598425197,
                    "duration": 0.11458333333331439
                },
                {
                    "name": "A#5",
                    "midi": 82,
                    "time": 132.82291666666586,
                    "velocity": 0.6299212598425197,
                    "duration": 0.11458333333331439
                },
                {
                    "name": "A#4",
                    "midi": 70,
                    "time": 133.09114583333252,
                    "velocity": 0.6299212598425197,
                    "duration": 0.0546875
                },
                {
                    "name": "D5",
                    "midi": 74,
                    "time": 133.09114583333252,
                    "velocity": 0.6299212598425197,
                    "duration": 0.0546875
                },
                {
                    "name": "F#5",
                    "midi": 78,
                    "time": 133.09635416666586,
                    "velocity": 0.6299212598425197,
                    "duration": 0.08072916666665719
                },
                {
                    "name": "F3",
                    "midi": 53,
                    "time": 133.23177083333252,
                    "velocity": 0.6299212598425197,
                    "duration": 0.20572916666668561
                },
                {
                    "name": "G#3",
                    "midi": 56,
                    "time": 133.23177083333252,
                    "velocity": 0.6299212598425197,
                    "duration": 0.20572916666668561
                },
                {
                    "name": "A#3",
                    "midi": 58,
                    "time": 133.23177083333252,
                    "velocity": 0.6299212598425197,
                    "duration": 0.21093750000002842
                },
                {
                    "name": "D4",
                    "midi": 62,
                    "time": 133.23177083333252,
                    "velocity": 0.6299212598425197,
                    "duration": 0.21093750000002842
                },
                {
                    "name": "A#4",
                    "midi": 70,
                    "time": 133.23177083333252,
                    "velocity": 0.6299212598425197,
                    "duration": 0.18229166666668561
                },
                {
                    "name": "D5",
                    "midi": 74,
                    "time": 133.23177083333252,
                    "velocity": 0.6299212598425197,
                    "duration": 0.18229166666668561
                },
                {
                    "name": "G5",
                    "midi": 79,
                    "time": 133.23697916666586,
                    "velocity": 0.6299212598425197,
                    "duration": 0.1770833333333428
                },
                {
                    "name": "D#5",
                    "midi": 75,
                    "time": 133.4947916666659,
                    "velocity": 0.6299212598425197,
                    "duration": 0.25
                },
                {
                    "name": "D#3",
                    "midi": 51,
                    "time": 133.6328124999992,
                    "velocity": 0.6299212598425197,
                    "duration": 0.10677083333334281
                },
                {
                    "name": "G3",
                    "midi": 55,
                    "time": 133.6328124999992,
                    "velocity": 0.6299212598425197,
                    "duration": 0.11197916666668561
                },
                {
                    "name": "A#3",
                    "midi": 58,
                    "time": 133.6328124999992,
                    "velocity": 0.6299212598425197,
                    "duration": 0.10677083333334281
                },
                {
                    "name": "D#4",
                    "midi": 63,
                    "time": 133.6328124999992,
                    "velocity": 0.6299212598425197,
                    "duration": 0.10677083333334281
                },
                {
                    "name": "A#4",
                    "midi": 70,
                    "time": 133.6328124999992,
                    "velocity": 0.6299212598425197,
                    "duration": 0.11197916666668561
                },
                {
                    "name": "G5",
                    "midi": 79,
                    "time": 133.6328124999992,
                    "velocity": 0.6299212598425197,
                    "duration": 0.11197916666668561
                },
                {
                    "name": "D#2",
                    "midi": 39,
                    "time": 133.9010416666659,
                    "velocity": 0.6299212598425197,
                    "duration": 0.10677083333334281
                },
                {
                    "name": "D#5",
                    "midi": 75,
                    "time": 133.90624999999923,
                    "velocity": 0.6299212598425197,
                    "duration": 0.2421875
                },
                {
                    "name": "D#6",
                    "midi": 87,
                    "time": 133.90624999999923,
                    "velocity": 0.6299212598425197,
                    "duration": 0.2473958333333428
                },
                {
                    "name": "G2",
                    "midi": 43,
                    "time": 134.0338541666659,
                    "velocity": 0.6299212598425197,
                    "duration": 0.2161458333333428
                },
                {
                    "name": "D#3",
                    "midi": 51,
                    "time": 134.0338541666659,
                    "velocity": 0.6299212598425197,
                    "duration": 0.2161458333333428
                },
                {
                    "name": "F2",
                    "midi": 41,
                    "time": 134.30208333333258,
                    "velocity": 0.6299212598425197,
                    "duration": 0.109375
                },
                {
                    "name": "D#5",
                    "midi": 75,
                    "time": 134.30729166666592,
                    "velocity": 0.6299212598425197,
                    "duration": 0.078125
                },
                {
                    "name": "D#6",
                    "midi": 87,
                    "time": 134.30729166666592,
                    "velocity": 0.6299212598425197,
                    "duration": 0.078125
                },
                {
                    "name": "F3",
                    "midi": 53,
                    "time": 134.43749999999923,
                    "velocity": 0.6299212598425197,
                    "duration": 0.1744791666666572
                },
                {
                    "name": "D5",
                    "midi": 74,
                    "time": 134.43749999999923,
                    "velocity": 0.6299212598425197,
                    "duration": 0.3098958333333428
                },
                {
                    "name": "D6",
                    "midi": 86,
                    "time": 134.4401041666659,
                    "velocity": 0.6299212598425197,
                    "duration": 0.3098958333333428
                },
                {
                    "name": "F#2",
                    "midi": 42,
                    "time": 134.69531249999923,
                    "velocity": 0.6299212598425197,
                    "duration": 0.10677083333334281
                },
                {
                    "name": "A2",
                    "midi": 45,
                    "time": 134.82552083333258,
                    "velocity": 0.6299212598425197,
                    "duration": 0.27343750000005684
                },
                {
                    "name": "F#3",
                    "midi": 54,
                    "time": 134.82552083333258,
                    "velocity": 0.6299212598425197,
                    "duration": 0.17968750000002842
                },
                {
                    "name": "D#5",
                    "midi": 75,
                    "time": 134.83072916666592,
                    "velocity": 0.6299212598425197,
                    "duration": 0.17968750000002842
                },
                {
                    "name": "D#6",
                    "midi": 87,
                    "time": 134.83593749999926,
                    "velocity": 0.6299212598425197,
                    "duration": 0.17447916666668561
                },
                {
                    "name": "D#2",
                    "midi": 39,
                    "time": 135.0833333333326,
                    "velocity": 0.6299212598425197,
                    "duration": 0.10677083333337123
                },
                {
                    "name": "C#5",
                    "midi": 73,
                    "time": 135.08854166666595,
                    "velocity": 0.6299212598425197,
                    "duration": 0.7369791666666856
                },
                {
                    "name": "C#6",
                    "midi": 85,
                    "time": 135.0937499999993,
                    "velocity": 0.6299212598425197,
                    "duration": 0.7317708333333428
                },
                {
                    "name": "A#2",
                    "midi": 46,
                    "time": 135.21354166666598,
                    "velocity": 0.6299212598425197,
                    "duration": 0.109375
                },
                {
                    "name": "G3",
                    "midi": 55,
                    "time": 135.21354166666598,
                    "velocity": 0.6299212598425197,
                    "duration": 1.0989583333333428
                },
                {
                    "name": "A#3",
                    "midi": 58,
                    "time": 135.61197916666598,
                    "velocity": 0.6299212598425197,
                    "duration": 0.078125
                },
                {
                    "name": "C#4",
                    "midi": 61,
                    "time": 135.61197916666598,
                    "velocity": 0.6299212598425197,
                    "duration": 0.078125
                },
                {
                    "name": "D#4",
                    "midi": 63,
                    "time": 135.61197916666598,
                    "velocity": 0.6299212598425197,
                    "duration": 0.078125
                },
                {
                    "name": "G4",
                    "midi": 67,
                    "time": 135.61197916666598,
                    "velocity": 0.6299212598425197,
                    "duration": 0.078125
                },
                {
                    "name": "D#2",
                    "midi": 39,
                    "time": 136.00260416666598,
                    "velocity": 0.6299212598425197,
                    "duration": 0.11197916666665719
                },
                {
                    "name": "F4",
                    "midi": 65,
                    "time": 136.00260416666598,
                    "velocity": 0.6299212598425197,
                    "duration": 0.0859375
                },
                {
                    "name": "C#5",
                    "midi": 73,
                    "time": 136.00260416666598,
                    "velocity": 0.6299212598425197,
                    "duration": 0.0859375
                },
                {
                    "name": "F5",
                    "midi": 77,
                    "time": 136.00260416666598,
                    "velocity": 0.6299212598425197,
                    "duration": 0.0859375
                },
                {
                    "name": "F#4",
                    "midi": 66,
                    "time": 136.27083333333263,
                    "velocity": 0.6299212598425197,
                    "duration": 0.203125
                },
                {
                    "name": "C#5",
                    "midi": 73,
                    "time": 136.27083333333263,
                    "velocity": 0.6299212598425197,
                    "duration": 0.203125
                },
                {
                    "name": "F#5",
                    "midi": 78,
                    "time": 136.27604166666598,
                    "velocity": 0.6299212598425197,
                    "duration": 0.1979166666666572
                },
                {
                    "name": "D#3",
                    "midi": 51,
                    "time": 136.39322916666598,
                    "velocity": 0.6299212598425197,
                    "duration": 0.10677083333331439
                },
                {
                    "name": "G3",
                    "midi": 55,
                    "time": 136.39322916666598,
                    "velocity": 0.6299212598425197,
                    "duration": 0.10677083333331439
                },
                {
                    "name": "A#3",
                    "midi": 58,
                    "time": 136.39322916666598,
                    "velocity": 0.6299212598425197,
                    "duration": 0.10677083333331439
                },
                {
                    "name": "C#4",
                    "midi": 61,
                    "time": 136.39322916666598,
                    "velocity": 0.6299212598425197,
                    "duration": 0.10677083333331439
                },
                {
                    "name": "C#5",
                    "midi": 73,
                    "time": 136.6640624999993,
                    "velocity": 0.6299212598425197,
                    "duration": 0.21875000000002842
                },
                {
                    "name": "G5",
                    "midi": 79,
                    "time": 136.66927083333263,
                    "velocity": 0.6299212598425197,
                    "duration": 0.21875000000002842
                },
                {
                    "name": "G4",
                    "midi": 67,
                    "time": 136.69791666666598,
                    "velocity": 0.6299212598425197,
                    "duration": 0.1848958333333428
                },
                {
                    "name": "A#2",
                    "midi": 46,
                    "time": 136.80468749999932,
                    "velocity": 0.6299212598425197,
                    "duration": 0.11458333333334281
                },
                {
                    "name": "A#3",
                    "midi": 58,
                    "time": 136.80468749999932,
                    "velocity": 0.6299212598425197,
                    "duration": 0.3203125
                },
                {
                    "name": "C5",
                    "midi": 72,
                    "time": 137.07552083333266,
                    "velocity": 0.6299212598425197,
                    "duration": 0.08072916666665719
                },
                {
                    "name": "G5",
                    "midi": 79,
                    "time": 137.07552083333266,
                    "velocity": 0.6299212598425197,
                    "duration": 0.08072916666665719
                },
                {
                    "name": "C6",
                    "midi": 84,
                    "time": 137.07552083333266,
                    "velocity": 0.6299212598425197,
                    "duration": 0.08072916666665719
                },
                {
                    "name": "D#3",
                    "midi": 51,
                    "time": 137.21093749999932,
                    "velocity": 0.6299212598425197,
                    "duration": 0.10677083333334281
                },
                {
                    "name": "G3",
                    "midi": 55,
                    "time": 137.21093749999932,
                    "velocity": 0.6299212598425197,
                    "duration": 0.10677083333334281
                },
                {
                    "name": "A#3",
                    "midi": 58,
                    "time": 137.21093749999932,
                    "velocity": 0.6299212598425197,
                    "duration": 0.7005208333333712
                },
                {
                    "name": "C#4",
                    "midi": 61,
                    "time": 137.21093749999932,
                    "velocity": 0.6299212598425197,
                    "duration": 0.10677083333334281
                },
                {
                    "name": "B4",
                    "midi": 71,
                    "time": 137.21093749999932,
                    "velocity": 0.6299212598425197,
                    "duration": 0.078125
                },
                {
                    "name": "B5",
                    "midi": 83,
                    "time": 137.21614583333266,
                    "velocity": 0.6299212598425197,
                    "duration": 0.07291666666665719
                },
                {
                    "name": "C5",
                    "midi": 72,
                    "time": 137.48437499999932,
                    "velocity": 0.6299212598425197,
                    "duration": 0.078125
                },
                {
                    "name": "G5",
                    "midi": 79,
                    "time": 137.48437499999932,
                    "velocity": 0.6299212598425197,
                    "duration": 0.078125
                },
                {
                    "name": "C6",
                    "midi": 84,
                    "time": 137.48437499999932,
                    "velocity": 0.6299212598425197,
                    "duration": 0.078125
                },
                {
                    "name": "D#2",
                    "midi": 39,
                    "time": 137.61458333333266,
                    "velocity": 0.6299212598425197,
                    "duration": 0.11458333333334281
                },
                {
                    "name": "A#4",
                    "midi": 70,
                    "time": 137.61458333333266,
                    "velocity": 0.6299212598425197,
                    "duration": 0.11458333333334281
                },
                {
                    "name": "A#5",
                    "midi": 82,
                    "time": 137.619791666666,
                    "velocity": 0.6299212598425197,
                    "duration": 0.109375
                },
                {
                    "name": "G4",
                    "midi": 67,
                    "time": 137.893229166666,
                    "velocity": 0.6299212598425197,
                    "duration": 0.22135416666668561
                },
                {
                    "name": "C#5",
                    "midi": 73,
                    "time": 137.893229166666,
                    "velocity": 0.6299212598425197,
                    "duration": 0.22135416666668561
                },
                {
                    "name": "G5",
                    "midi": 79,
                    "time": 137.89843749999935,
                    "velocity": 0.6299212598425197,
                    "duration": 0.2161458333333428
                },
                {
                    "name": "D#3",
                    "midi": 51,
                    "time": 138.03385416666603,
                    "velocity": 0.6299212598425197,
                    "duration": 0.1171875
                },
                {
                    "name": "G3",
                    "midi": 55,
                    "time": 138.03385416666603,
                    "velocity": 0.6299212598425197,
                    "duration": 0.1171875
                },
                {
                    "name": "A#3",
                    "midi": 58,
                    "time": 138.03385416666603,
                    "velocity": 0.6299212598425197,
                    "duration": 0.1171875
                },
                {
                    "name": "C#4",
                    "midi": 61,
                    "time": 138.03385416666603,
                    "velocity": 0.6299212598425197,
                    "duration": 0.1171875
                },
                {
                    "name": "F4",
                    "midi": 65,
                    "time": 138.3098958333327,
                    "velocity": 0.6299212598425197,
                    "duration": 0.6015624999999716
                },
                {
                    "name": "C5",
                    "midi": 72,
                    "time": 138.3098958333327,
                    "velocity": 0.6299212598425197,
                    "duration": 0.6015624999999716
                },
                {
                    "name": "F5",
                    "midi": 77,
                    "time": 138.3098958333327,
                    "velocity": 0.6299212598425197,
                    "duration": 0.6067708333333144
                },
                {
                    "name": "G#2",
                    "midi": 44,
                    "time": 138.440104166666,
                    "velocity": 0.6299212598425197,
                    "duration": 0.11197916666665719
                },
                {
                    "name": "G#3",
                    "midi": 56,
                    "time": 138.440104166666,
                    "velocity": 0.6299212598425197,
                    "duration": 0.2760416666666572
                },
                {
                    "name": "D#3",
                    "midi": 51,
                    "time": 138.838541666666,
                    "velocity": 0.6299212598425197,
                    "duration": 0.07291666666665719
                },
                {
                    "name": "G#3",
                    "midi": 56,
                    "time": 138.838541666666,
                    "velocity": 0.6299212598425197,
                    "duration": 0.6640625
                },
                {
                    "name": "C4",
                    "midi": 60,
                    "time": 138.838541666666,
                    "velocity": 0.6299212598425197,
                    "duration": 0.078125
                },
                {
                    "name": "D#4",
                    "midi": 63,
                    "time": 139.09895833333266,
                    "velocity": 0.6299212598425197,
                    "duration": 0.11458333333334281
                },
                {
                    "name": "D#5",
                    "midi": 75,
                    "time": 139.09895833333266,
                    "velocity": 0.6299212598425197,
                    "duration": 0.11458333333334281
                },
                {
                    "name": "D#2",
                    "midi": 39,
                    "time": 139.22656249999935,
                    "velocity": 0.6299212598425197,
                    "duration": 0.11458333333334281
                },
                {
                    "name": "F4",
                    "midi": 65,
                    "time": 139.22656249999935,
                    "velocity": 0.6299212598425197,
                    "duration": 0.11458333333334281
                },
                {
                    "name": "C5",
                    "midi": 72,
                    "time": 139.22656249999935,
                    "velocity": 0.6299212598425197,
                    "duration": 0.11458333333334281
                },
                {
                    "name": "F5",
                    "midi": 77,
                    "time": 139.2317708333327,
                    "velocity": 0.6299212598425197,
                    "duration": 0.109375
                },
                {
                    "name": "G4",
                    "midi": 67,
                    "time": 139.49999999999935,
                    "velocity": 0.6299212598425197,
                    "duration": 0.0703125
                },
                {
                    "name": "G5",
                    "midi": 79,
                    "time": 139.49999999999935,
                    "velocity": 0.6299212598425197,
                    "duration": 0.07552083333334281
                },
                {
                    "name": "D#3",
                    "midi": 51,
                    "time": 139.62499999999935,
                    "velocity": 0.6299212598425197,
                    "duration": 0.0859375
                },
                {
                    "name": "G#3",
                    "midi": 56,
                    "time": 139.62499999999935,
                    "velocity": 0.6299212598425197,
                    "duration": 0.0859375
                },
                {
                    "name": "C4",
                    "midi": 60,
                    "time": 139.62499999999935,
                    "velocity": 0.6299212598425197,
                    "duration": 0.0859375
                },
                {
                    "name": "G#4",
                    "midi": 68,
                    "time": 139.62499999999935,
                    "velocity": 0.6299212598425197,
                    "duration": 0.0859375
                },
                {
                    "name": "G#5",
                    "midi": 80,
                    "time": 139.62499999999935,
                    "velocity": 0.6299212598425197,
                    "duration": 0.0859375
                },
                {
                    "name": "C2",
                    "midi": 36,
                    "time": 139.90624999999935,
                    "velocity": 0.6299212598425197,
                    "duration": 0.08072916666668561
                },
                {
                    "name": "A#4",
                    "midi": 70,
                    "time": 139.90624999999935,
                    "velocity": 0.6299212598425197,
                    "duration": 0.08072916666668561
                },
                {
                    "name": "A#5",
                    "midi": 82,
                    "time": 139.90624999999935,
                    "velocity": 0.6299212598425197,
                    "duration": 0.08072916666668561
                },
                {
                    "name": "C5",
                    "midi": 72,
                    "time": 140.04166666666603,
                    "velocity": 0.6299212598425197,
                    "duration": 0.07291666666668561
                },
                {
                    "name": "C6",
                    "midi": 84,
                    "time": 140.04166666666603,
                    "velocity": 0.6299212598425197,
                    "duration": 0.07812500000002842
                },
                {
                    "name": "C3",
                    "midi": 48,
                    "time": 140.04687499999937,
                    "velocity": 0.6299212598425197,
                    "duration": 0.07291666666668561
                },
                {
                    "name": "C4",
                    "midi": 60,
                    "time": 140.04687499999937,
                    "velocity": 0.6299212598425197,
                    "duration": 0.27083333333337123
                },
                {
                    "name": "G#5",
                    "midi": 80,
                    "time": 140.04687499999937,
                    "velocity": 0.6299212598425197,
                    "duration": 0.07291666666668561
                },
                {
                    "name": "G#4",
                    "midi": 68,
                    "time": 140.3124999999994,
                    "velocity": 0.6299212598425197,
                    "duration": 0.2864583333333144
                },
                {
                    "name": "G#5",
                    "midi": 80,
                    "time": 140.3124999999994,
                    "velocity": 0.6299212598425197,
                    "duration": 0.2864583333333144
                },
                {
                    "name": "G#3",
                    "midi": 56,
                    "time": 140.4453124999994,
                    "velocity": 0.6299212598425197,
                    "duration": 0.11197916666665719
                },
                {
                    "name": "C4",
                    "midi": 60,
                    "time": 140.4453124999994,
                    "velocity": 0.6299212598425197,
                    "duration": 0.3098958333333144
                },
                {
                    "name": "D#4",
                    "midi": 63,
                    "time": 140.4453124999994,
                    "velocity": 0.6299212598425197,
                    "duration": 0.11197916666665719
                },
                {
                    "name": "D3",
                    "midi": 50,
                    "time": 140.71354166666606,
                    "velocity": 0.6299212598425197,
                    "duration": 0.25
                },
                {
                    "name": "F4",
                    "midi": 65,
                    "time": 140.71354166666606,
                    "velocity": 0.6299212598425197,
                    "duration": 0.109375
                },
                {
                    "name": "C#5",
                    "midi": 73,
                    "time": 140.71354166666606,
                    "velocity": 0.6299212598425197,
                    "duration": 0.109375
                },
                {
                    "name": "F5",
                    "midi": 77,
                    "time": 140.71354166666606,
                    "velocity": 0.6299212598425197,
                    "duration": 0.109375
                },
                {
                    "name": "B3",
                    "midi": 59,
                    "time": 140.85416666666606,
                    "velocity": 0.6299212598425197,
                    "duration": 0.3046875
                },
                {
                    "name": "G4",
                    "midi": 67,
                    "time": 140.85416666666606,
                    "velocity": 0.6299212598425197,
                    "duration": 0.2369791666666572
                },
                {
                    "name": "D5",
                    "midi": 74,
                    "time": 140.85416666666606,
                    "velocity": 0.6299212598425197,
                    "duration": 0.2369791666666572
                },
                {
                    "name": "G5",
                    "midi": 79,
                    "time": 140.85416666666606,
                    "velocity": 0.6299212598425197,
                    "duration": 0.2369791666666572
                },
                {
                    "name": "F3",
                    "midi": 53,
                    "time": 141.24479166666606,
                    "velocity": 0.6299212598425197,
                    "duration": 0.109375
                },
                {
                    "name": "G#3",
                    "midi": 56,
                    "time": 141.24479166666606,
                    "velocity": 0.6299212598425197,
                    "duration": 0.109375
                },
                {
                    "name": "B3",
                    "midi": 59,
                    "time": 141.24479166666606,
                    "velocity": 0.6299212598425197,
                    "duration": 0.3463541666666572
                },
                {
                    "name": "D4",
                    "midi": 62,
                    "time": 141.24479166666606,
                    "velocity": 0.6299212598425197,
                    "duration": 0.109375
                },
                {
                    "name": "F4",
                    "midi": 65,
                    "time": 141.24479166666606,
                    "velocity": 0.6299212598425197,
                    "duration": 0.109375
                },
                {
                    "name": "D5",
                    "midi": 74,
                    "time": 141.24479166666606,
                    "velocity": 0.6299212598425197,
                    "duration": 0.109375
                },
                {
                    "name": "F5",
                    "midi": 77,
                    "time": 141.24479166666606,
                    "velocity": 0.6299212598425197,
                    "duration": 0.109375
                },
                {
                    "name": "G4",
                    "midi": 67,
                    "time": 141.51041666666606,
                    "velocity": 0.6299212598425197,
                    "duration": 0.08072916666665719
                },
                {
                    "name": "D5",
                    "midi": 74,
                    "time": 141.51041666666606,
                    "velocity": 0.6299212598425197,
                    "duration": 0.08072916666665719
                },
                {
                    "name": "G5",
                    "midi": 79,
                    "time": 141.51041666666606,
                    "velocity": 0.6299212598425197,
                    "duration": 0.08072916666665719
                },
                {
                    "name": "A#2",
                    "midi": 46,
                    "time": 141.64583333333272,
                    "velocity": 0.6299212598425197,
                    "duration": 0.1171875
                },
                {
                    "name": "A#3",
                    "midi": 58,
                    "time": 141.64583333333272,
                    "velocity": 0.6299212598425197,
                    "duration": 0.2838541666666572
                },
                {
                    "name": "F4",
                    "midi": 65,
                    "time": 141.64583333333272,
                    "velocity": 0.6299212598425197,
                    "duration": 0.1171875
                },
                {
                    "name": "C#5",
                    "midi": 73,
                    "time": 141.64583333333272,
                    "velocity": 0.6299212598425197,
                    "duration": 0.1171875
                },
                {
                    "name": "F5",
                    "midi": 77,
                    "time": 141.64583333333272,
                    "velocity": 0.6299212598425197,
                    "duration": 0.1171875
                },
                {
                    "name": "C#4",
                    "midi": 61,
                    "time": 141.91145833333272,
                    "velocity": 0.6299212598425197,
                    "duration": 0.265625
                },
                {
                    "name": "C#5",
                    "midi": 73,
                    "time": 141.91145833333272,
                    "velocity": 0.6299212598425197,
                    "duration": 0.265625
                },
                {
                    "name": "A#3",
                    "midi": 58,
                    "time": 142.03124999999937,
                    "velocity": 0.6299212598425197,
                    "duration": 0.7057291666666572
                },
                {
                    "name": "D#3",
                    "midi": 51,
                    "time": 142.03645833333272,
                    "velocity": 0.6299212598425197,
                    "duration": 0.109375
                },
                {
                    "name": "G3",
                    "midi": 55,
                    "time": 142.04166666666606,
                    "velocity": 0.6299212598425197,
                    "duration": 0.10416666666665719
                },
                {
                    "name": "A#4",
                    "midi": 70,
                    "time": 142.30468749999937,
                    "velocity": 0.6299212598425197,
                    "duration": 0.7317708333333428
                },
                {
                    "name": "C#5",
                    "midi": 73,
                    "time": 142.30468749999937,
                    "velocity": 0.6299212598425197,
                    "duration": 0.7265625
                },
                {
                    "name": "G5",
                    "midi": 79,
                    "time": 142.30468749999937,
                    "velocity": 0.6299212598425197,
                    "duration": 0.7265625
                },
                {
                    "name": "A#5",
                    "midi": 82,
                    "time": 142.30468749999937,
                    "velocity": 0.6299212598425197,
                    "duration": 0.7265625
                },
                {
                    "name": "D#2",
                    "midi": 39,
                    "time": 142.43229166666603,
                    "velocity": 0.6299212598425197,
                    "duration": 0.109375
                },
                {
                    "name": "D#3",
                    "midi": 51,
                    "time": 142.82812499999937,
                    "velocity": 0.6299212598425197,
                    "duration": 0.10677083333334281
                },
                {
                    "name": "G3",
                    "midi": 55,
                    "time": 142.82812499999937,
                    "velocity": 0.6299212598425197,
                    "duration": 0.109375
                },
                {
                    "name": "A#3",
                    "midi": 58,
                    "time": 142.82812499999937,
                    "velocity": 0.6299212598425197,
                    "duration": 0.109375
                },
                {
                    "name": "C#4",
                    "midi": 61,
                    "time": 142.82812499999937,
                    "velocity": 0.6299212598425197,
                    "duration": 0.109375
                },
                {
                    "name": "G2",
                    "midi": 43,
                    "time": 143.08593749999937,
                    "velocity": 0.6299212598425197,
                    "duration": 0.2317708333333428
                },
                {
                    "name": "C#5",
                    "midi": 73,
                    "time": 143.22135416666603,
                    "velocity": 0.6299212598425197,
                    "duration": 0.09635416666668561
                },
                {
                    "name": "D#5",
                    "midi": 75,
                    "time": 143.22135416666603,
                    "velocity": 0.6299212598425197,
                    "duration": 0.09635416666668561
                },
                {
                    "name": "G3",
                    "midi": 55,
                    "time": 143.23437499999937,
                    "velocity": 0.6299212598425197,
                    "duration": 0.2916666666666572
                },
                {
                    "name": "D#4",
                    "midi": 63,
                    "time": 143.23437499999937,
                    "velocity": 0.6299212598425197,
                    "duration": 0.08333333333334281
                },
                {
                    "name": "F4",
                    "midi": 65,
                    "time": 143.47656249999937,
                    "velocity": 0.6299212598425197,
                    "duration": 0.2421875
                },
                {
                    "name": "C#5",
                    "midi": 73,
                    "time": 143.47656249999937,
                    "velocity": 0.6299212598425197,
                    "duration": 0.2369791666666572
                },
                {
                    "name": "F5",
                    "midi": 77,
                    "time": 143.47656249999937,
                    "velocity": 0.6299212598425197,
                    "duration": 0.2369791666666572
                },
                {
                    "name": "D#3",
                    "midi": 51,
                    "time": 143.61197916666603,
                    "velocity": 0.6299212598425197,
                    "duration": 0.10677083333334281
                },
                {
                    "name": "G3",
                    "midi": 55,
                    "time": 143.61197916666603,
                    "velocity": 0.6299212598425197,
                    "duration": 0.6588541666666856
                },
                {
                    "name": "A#3",
                    "midi": 58,
                    "time": 143.61197916666603,
                    "velocity": 0.6299212598425197,
                    "duration": 0.10677083333334281
                },
                {
                    "name": "C#4",
                    "midi": 61,
                    "time": 143.61197916666603,
                    "velocity": 0.6299212598425197,
                    "duration": 0.1015625
                },
                {
                    "name": "C#5",
                    "midi": 73,
                    "time": 143.86718749999937,
                    "velocity": 0.6299212598425197,
                    "duration": 0.7317708333333428
                },
                {
                    "name": "G5",
                    "midi": 79,
                    "time": 143.87239583333272,
                    "velocity": 0.6299212598425197,
                    "duration": 0.7317708333333428
                },
                {
                    "name": "A#5",
                    "midi": 82,
                    "time": 143.87239583333272,
                    "velocity": 0.6299212598425197,
                    "duration": 0.7265625
                },
                {
                    "name": "C#6",
                    "midi": 85,
                    "time": 143.87239583333272,
                    "velocity": 0.6299212598425197,
                    "duration": 0.7265625
                },
                {
                    "name": "D#2",
                    "midi": 39,
                    "time": 143.99999999999937,
                    "velocity": 0.6299212598425197,
                    "duration": 0.11458333333334281
                },
                {
                    "name": "D#3",
                    "midi": 51,
                    "time": 144.38541666666606,
                    "velocity": 0.6299212598425197,
                    "duration": 0.0859375
                },
                {
                    "name": "G3",
                    "midi": 55,
                    "time": 144.38541666666606,
                    "velocity": 0.6299212598425197,
                    "duration": 0.0859375
                },
                {
                    "name": "A#3",
                    "midi": 58,
                    "time": 144.38541666666606,
                    "velocity": 0.6299212598425197,
                    "duration": 0.0859375
                },
                {
                    "name": "C#4",
                    "midi": 61,
                    "time": 144.38541666666606,
                    "velocity": 0.6299212598425197,
                    "duration": 0.0859375
                },
                {
                    "name": "B4",
                    "midi": 71,
                    "time": 144.7812499999994,
                    "velocity": 0.6299212598425197,
                    "duration": 0.11458333333334281
                },
                {
                    "name": "G#5",
                    "midi": 80,
                    "time": 144.7812499999994,
                    "velocity": 0.6299212598425197,
                    "duration": 0.11458333333334281
                },
                {
                    "name": "B5",
                    "midi": 83,
                    "time": 144.7812499999994,
                    "velocity": 0.6299212598425197,
                    "duration": 0.11458333333334281
                },
                {
                    "name": "G#2",
                    "midi": 44,
                    "time": 144.78645833333275,
                    "velocity": 0.6299212598425197,
                    "duration": 0.109375
                },
                {
                    "name": "G#3",
                    "midi": 56,
                    "time": 144.78645833333275,
                    "velocity": 0.6299212598425197,
                    "duration": 0.2864583333333428
                },
                {
                    "name": "C5",
                    "midi": 72,
                    "time": 145.0494791666661,
                    "velocity": 0.6299212598425197,
                    "duration": 0.2213541666666572
                },
                {
                    "name": "G#5",
                    "midi": 80,
                    "time": 145.0494791666661,
                    "velocity": 0.6299212598425197,
                    "duration": 0.2213541666666572
                },
                {
                    "name": "C6",
                    "midi": 84,
                    "time": 145.0494791666661,
                    "velocity": 0.6299212598425197,
                    "duration": 0.2265625
                },
                {
                    "name": "D#3",
                    "midi": 51,
                    "time": 145.1901041666661,
                    "velocity": 0.6299212598425197,
                    "duration": 0.1171875
                },
                {
                    "name": "G#3",
                    "midi": 56,
                    "time": 145.1901041666661,
                    "velocity": 0.6299212598425197,
                    "duration": 0.6953125000000284
                },
                {
                    "name": "C4",
                    "midi": 60,
                    "time": 145.1901041666661,
                    "velocity": 0.6299212598425197,
                    "duration": 0.1171875
                },
                {
                    "name": "C5",
                    "midi": 72,
                    "time": 145.45312499999943,
                    "velocity": 0.6299212598425197,
                    "duration": 0.8203125000000568
                },
                {
                    "name": "F4",
                    "midi": 65,
                    "time": 145.45833333333277,
                    "velocity": 0.6299212598425197,
                    "duration": 0.815104166666714
                },
                {
                    "name": "F5",
                    "midi": 77,
                    "time": 145.45833333333277,
                    "velocity": 0.6299212598425197,
                    "duration": 0.8098958333333712
                },
                {
                    "name": "D#2",
                    "midi": 39,
                    "time": 145.60677083333277,
                    "velocity": 0.6299212598425197,
                    "duration": 0.109375
                },
                {
                    "name": "D#3",
                    "midi": 51,
                    "time": 145.99999999999946,
                    "velocity": 0.6299212598425197,
                    "duration": 0.11197916666668561
                },
                {
                    "name": "G#3",
                    "midi": 56,
                    "time": 145.99999999999946,
                    "velocity": 0.6299212598425197,
                    "duration": 0.10677083333334281
                },
                {
                    "name": "C4",
                    "midi": 60,
                    "time": 145.99999999999946,
                    "velocity": 0.6299212598425197,
                    "duration": 0.10677083333334281
                },
                {
                    "name": "C3",
                    "midi": 48,
                    "time": 146.40104166666615,
                    "velocity": 0.6299212598425197,
                    "duration": 0.11458333333334281
                },
                {
                    "name": "C4",
                    "midi": 60,
                    "time": 146.40104166666615,
                    "velocity": 0.6299212598425197,
                    "duration": 0.2734375
                },
                {
                    "name": "C5",
                    "midi": 72,
                    "time": 146.6562499999995,
                    "velocity": 0.6299212598425197,
                    "duration": 0.11458333333334281
                },
                {
                    "name": "G#5",
                    "midi": 80,
                    "time": 146.6562499999995,
                    "velocity": 0.6299212598425197,
                    "duration": 0.0546875
                },
                {
                    "name": "C6",
                    "midi": 84,
                    "time": 146.6562499999995,
                    "velocity": 0.6299212598425197,
                    "duration": 0.109375
                },
                {
                    "name": "G#3",
                    "midi": 56,
                    "time": 146.7890624999995,
                    "velocity": 0.6299212598425197,
                    "duration": 0.11458333333334281
                },
                {
                    "name": "D#4",
                    "midi": 63,
                    "time": 146.7890624999995,
                    "velocity": 0.6299212598425197,
                    "duration": 0.11458333333334281
                },
                {
                    "name": "B4",
                    "midi": 71,
                    "time": 146.7890624999995,
                    "velocity": 0.6299212598425197,
                    "duration": 0.11458333333334281
                },
                {
                    "name": "G#5",
                    "midi": 80,
                    "time": 146.7890624999995,
                    "velocity": 0.6299212598425197,
                    "duration": 0.11458333333334281
                },
                {
                    "name": "B5",
                    "midi": 83,
                    "time": 146.7890624999995,
                    "velocity": 0.6299212598425197,
                    "duration": 0.11458333333334281
                },
                {
                    "name": "C4",
                    "midi": 60,
                    "time": 146.79427083333283,
                    "velocity": 0.6299212598425197,
                    "duration": 0.3411458333333428
                },
                {
                    "name": "C5",
                    "midi": 72,
                    "time": 147.05729166666617,
                    "velocity": 0.6299212598425197,
                    "duration": 0.11458333333334281
                },
                {
                    "name": "G#5",
                    "midi": 80,
                    "time": 147.05729166666617,
                    "velocity": 0.6299212598425197,
                    "duration": 0.109375
                },
                {
                    "name": "C6",
                    "midi": 84,
                    "time": 147.05729166666617,
                    "velocity": 0.6299212598425197,
                    "duration": 0.109375
                },
                {
                    "name": "B2",
                    "midi": 47,
                    "time": 147.18749999999952,
                    "velocity": 0.6299212598425197,
                    "duration": 0.1171875
                },
                {
                    "name": "B3",
                    "midi": 59,
                    "time": 147.18749999999952,
                    "velocity": 0.6299212598425197,
                    "duration": 0.3177083333333144
                },
                {
                    "name": "D#5",
                    "midi": 75,
                    "time": 147.18749999999952,
                    "velocity": 0.6299212598425197,
                    "duration": 0.140625
                },
                {
                    "name": "D#6",
                    "midi": 87,
                    "time": 147.18749999999952,
                    "velocity": 0.6299212598425197,
                    "duration": 0.140625
                },
                {
                    "name": "D5",
                    "midi": 74,
                    "time": 147.45572916666617,
                    "velocity": 0.6299212598425197,
                    "duration": 0.2213541666666572
                },
                {
                    "name": "D6",
                    "midi": 86,
                    "time": 147.45572916666617,
                    "velocity": 0.6299212598425197,
                    "duration": 0.2213541666666572
                },
                {
                    "name": "G#3",
                    "midi": 56,
                    "time": 147.59114583333283,
                    "velocity": 0.6299212598425197,
                    "duration": 0.11458333333334281
                },
                {
                    "name": "F3",
                    "midi": 53,
                    "time": 147.59635416666617,
                    "velocity": 0.6299212598425197,
                    "duration": 0.11458333333334281
                },
                {
                    "name": "B3",
                    "midi": 59,
                    "time": 147.59635416666617,
                    "velocity": 0.6299212598425197,
                    "duration": 0.3411458333333428
                },
                {
                    "name": "D4",
                    "midi": 62,
                    "time": 147.59635416666617,
                    "velocity": 0.6299212598425197,
                    "duration": 0.11458333333334281
                },
                {
                    "name": "C#5",
                    "midi": 73,
                    "time": 147.85937499999952,
                    "velocity": 0.6299212598425197,
                    "duration": 0.7447916666666856
                },
                {
                    "name": "G5",
                    "midi": 79,
                    "time": 147.85937499999952,
                    "velocity": 0.6299212598425197,
                    "duration": 0.7447916666666856
                },
                {
                    "name": "A#5",
                    "midi": 82,
                    "time": 147.85937499999952,
                    "velocity": 0.6299212598425197,
                    "duration": 0.7447916666666856
                },
                {
                    "name": "C#6",
                    "midi": 85,
                    "time": 147.85937499999952,
                    "velocity": 0.6299212598425197,
                    "duration": 0.7447916666666856
                },
                {
                    "name": "A#3",
                    "midi": 58,
                    "time": 147.99479166666617,
                    "velocity": 0.6299212598425197,
                    "duration": 0.31770833333337123
                },
                {
                    "name": "A#2",
                    "midi": 46,
                    "time": 147.99999999999952,
                    "velocity": 0.6299212598425197,
                    "duration": 0.11458333333334281
                },
                {
                    "name": "D#3",
                    "midi": 51,
                    "time": 148.39843749999955,
                    "velocity": 0.6299212598425197,
                    "duration": 0.078125
                },
                {
                    "name": "G3",
                    "midi": 55,
                    "time": 148.39843749999955,
                    "velocity": 0.6299212598425197,
                    "duration": 0.078125
                },
                {
                    "name": "A#3",
                    "midi": 58,
                    "time": 148.39843749999955,
                    "velocity": 0.6299212598425197,
                    "duration": 0.71875
                },
                {
                    "name": "C#4",
                    "midi": 61,
                    "time": 148.39843749999955,
                    "velocity": 0.6299212598425197,
                    "duration": 0.07291666666665719
                },
                {
                    "name": "A4",
                    "midi": 69,
                    "time": 148.7994791666662,
                    "velocity": 0.6299212598425197,
                    "duration": 0.109375
                },
                {
                    "name": "A5",
                    "midi": 81,
                    "time": 148.7994791666662,
                    "velocity": 0.6299212598425197,
                    "duration": 0.109375
                },
                {
                    "name": "D#2",
                    "midi": 39,
                    "time": 148.80468749999955,
                    "velocity": 0.6299212598425197,
                    "duration": 0.109375
                },
                {
                    "name": "A#2",
                    "midi": 46,
                    "time": 148.80468749999955,
                    "velocity": 0.6299212598425197,
                    "duration": 0.10416666666665719
                },
                {
                    "name": "C5",
                    "midi": 72,
                    "time": 149.06249999999955,
                    "velocity": 0.6299212598425197,
                    "duration": 0.2734375000000284
                },
                {
                    "name": "G5",
                    "midi": 79,
                    "time": 149.06249999999955,
                    "velocity": 0.6299212598425197,
                    "duration": 0.2734375000000284
                },
                {
                    "name": "C6",
                    "midi": 84,
                    "time": 149.06249999999955,
                    "velocity": 0.6299212598425197,
                    "duration": 0.2734375000000284
                },
                {
                    "name": "D#3",
                    "midi": 51,
                    "time": 149.2005208333329,
                    "velocity": 0.6299212598425197,
                    "duration": 0.11197916666668561
                },
                {
                    "name": "G3",
                    "midi": 55,
                    "time": 149.2005208333329,
                    "velocity": 0.6299212598425197,
                    "duration": 0.10677083333334281
                },
                {
                    "name": "A#3",
                    "midi": 58,
                    "time": 149.2005208333329,
                    "velocity": 0.6299212598425197,
                    "duration": 0.3515625000000284
                },
                {
                    "name": "C#4",
                    "midi": 61,
                    "time": 149.2005208333329,
                    "velocity": 0.6299212598425197,
                    "duration": 0.10677083333334281
                },
                {
                    "name": "A#4",
                    "midi": 70,
                    "time": 149.45833333333292,
                    "velocity": 0.6299212598425197,
                    "duration": 0.6536458333333428
                },
                {
                    "name": "G5",
                    "midi": 79,
                    "time": 149.45833333333292,
                    "velocity": 0.6299212598425197,
                    "duration": 0.6536458333333428
                },
                {
                    "name": "A#5",
                    "midi": 82,
                    "time": 149.45833333333292,
                    "velocity": 0.6299212598425197,
                    "duration": 0.6484375
                },
                {
                    "name": "A#2",
                    "midi": 46,
                    "time": 149.59374999999957,
                    "velocity": 0.6299212598425197,
                    "duration": 0.109375
                },
                {
                    "name": "G3",
                    "midi": 55,
                    "time": 149.59374999999957,
                    "velocity": 0.6299212598425197,
                    "duration": 0.2447916666666572
                },
                {
                    "name": "D#3",
                    "midi": 51,
                    "time": 149.99218749999957,
                    "velocity": 0.6299212598425197,
                    "duration": 0.11979166666668561
                },
                {
                    "name": "G3",
                    "midi": 55,
                    "time": 149.99218749999957,
                    "velocity": 0.6299212598425197,
                    "duration": 0.7135416666666856
                },
                {
                    "name": "A#3",
                    "midi": 58,
                    "time": 149.99218749999957,
                    "velocity": 0.6299212598425197,
                    "duration": 0.11979166666668561
                },
                {
                    "name": "C#4",
                    "midi": 61,
                    "time": 149.99218749999957,
                    "velocity": 0.6299212598425197,
                    "duration": 0.11979166666668561
                },
                {
                    "name": "F4",
                    "midi": 65,
                    "time": 150.3906249999996,
                    "velocity": 0.6299212598425197,
                    "duration": 0.1458333333333428
                },
                {
                    "name": "C#5",
                    "midi": 73,
                    "time": 150.3906249999996,
                    "velocity": 0.6299212598425197,
                    "duration": 0.140625
                },
                {
                    "name": "F5",
                    "midi": 77,
                    "time": 150.3906249999996,
                    "velocity": 0.6299212598425197,
                    "duration": 0.1458333333333428
                },
                {
                    "name": "D#2",
                    "midi": 39,
                    "time": 150.39583333333294,
                    "velocity": 0.6299212598425197,
                    "duration": 0.109375
                },
                {
                    "name": "D#3",
                    "midi": 51,
                    "time": 150.39583333333294,
                    "velocity": 0.6299212598425197,
                    "duration": 0.109375
                },
                {
                    "name": "G4",
                    "midi": 67,
                    "time": 150.6640624999996,
                    "velocity": 0.6299212598425197,
                    "duration": 0.20833333333331439
                },
                {
                    "name": "C#5",
                    "midi": 73,
                    "time": 150.6640624999996,
                    "velocity": 0.6299212598425197,
                    "duration": 0.20833333333331439
                },
                {
                    "name": "G5",
                    "midi": 79,
                    "time": 150.6640624999996,
                    "velocity": 0.6299212598425197,
                    "duration": 0.20833333333331439
                },
                {
                    "name": "D#3",
                    "midi": 51,
                    "time": 150.79166666666626,
                    "velocity": 0.6299212598425197,
                    "duration": 0.11458333333334281
                },
                {
                    "name": "A#3",
                    "midi": 58,
                    "time": 150.79166666666626,
                    "velocity": 0.6299212598425197,
                    "duration": 0.109375
                },
                {
                    "name": "C#4",
                    "midi": 61,
                    "time": 150.79166666666626,
                    "velocity": 0.6299212598425197,
                    "duration": 0.3463541666666856
                },
                {
                    "name": "F4",
                    "midi": 65,
                    "time": 151.0546874999996,
                    "velocity": 0.6299212598425197,
                    "duration": 0.6380208333333428
                },
                {
                    "name": "C5",
                    "midi": 72,
                    "time": 151.0546874999996,
                    "velocity": 0.6299212598425197,
                    "duration": 0.6328125
                },
                {
                    "name": "F5",
                    "midi": 77,
                    "time": 151.0546874999996,
                    "velocity": 0.6299212598425197,
                    "duration": 0.6328125
                },
                {
                    "name": "C3",
                    "midi": 48,
                    "time": 151.19270833333294,
                    "velocity": 0.6299212598425197,
                    "duration": 0.5
                },
                {
                    "name": "C4",
                    "midi": 60,
                    "time": 151.19270833333294,
                    "velocity": 0.6299212598425197,
                    "duration": 0.2395833333333428
                },
                {
                    "name": "D#3",
                    "midi": 51,
                    "time": 151.58333333333294,
                    "velocity": 0.6299212598425197,
                    "duration": 0.109375
                },
                {
                    "name": "G#3",
                    "midi": 56,
                    "time": 151.58333333333294,
                    "velocity": 0.6299212598425197,
                    "duration": 0.10416666666665719
                },
                {
                    "name": "C4",
                    "midi": 60,
                    "time": 151.58333333333294,
                    "velocity": 0.6299212598425197,
                    "duration": 0.10416666666665719
                },
                {
                    "name": "C#3",
                    "midi": 49,
                    "time": 151.8515624999996,
                    "velocity": 0.6299212598425197,
                    "duration": 0.7447916666666856
                },
                {
                    "name": "F#3",
                    "midi": 54,
                    "time": 151.8515624999996,
                    "velocity": 0.6299212598425197,
                    "duration": 0.7447916666666856
                },
                {
                    "name": "A#3",
                    "midi": 58,
                    "time": 151.8515624999996,
                    "velocity": 0.6299212598425197,
                    "duration": 0.3385416666666856
                },
                {
                    "name": "E4",
                    "midi": 64,
                    "time": 151.8515624999996,
                    "velocity": 0.6299212598425197,
                    "duration": 0.3098958333333428
                },
                {
                    "name": "F#4",
                    "midi": 66,
                    "time": 151.8515624999996,
                    "velocity": 0.6299212598425197,
                    "duration": 0.296875
                },
                {
                    "name": "F#2",
                    "midi": 42,
                    "time": 151.85677083333294,
                    "velocity": 0.6299212598425197,
                    "duration": 0.7395833333333428
                },
                {
                    "name": "A#4",
                    "midi": 70,
                    "time": 151.88020833333294,
                    "velocity": 0.6299212598425197,
                    "duration": 0.28125
                },
                {
                    "name": "C5",
                    "midi": 72,
                    "time": 152.24739583333294,
                    "velocity": 0.6299212598425197,
                    "duration": 0.2838541666666572
                },
                {
                    "name": "C4",
                    "midi": 60,
                    "time": 152.2499999999996,
                    "velocity": 0.6299212598425197,
                    "duration": 0.2864583333333428
                },
                {
                    "name": "A3",
                    "midi": 57,
                    "time": 152.64583333333294,
                    "velocity": 0.6299212598425197,
                    "duration": 0.3229166666666856
                },
                {
                    "name": "D#4",
                    "midi": 63,
                    "time": 152.64583333333294,
                    "velocity": 0.6299212598425197,
                    "duration": 0.3229166666666856
                },
                {
                    "name": "F4",
                    "midi": 65,
                    "time": 152.64583333333294,
                    "velocity": 0.6299212598425197,
                    "duration": 0.3229166666666856
                },
                {
                    "name": "A4",
                    "midi": 69,
                    "time": 152.64583333333294,
                    "velocity": 0.6299212598425197,
                    "duration": 0.3229166666666856
                },
                {
                    "name": "F2",
                    "midi": 41,
                    "time": 152.78645833333294,
                    "velocity": 0.6299212598425197,
                    "duration": 0.18750000000002842
                },
                {
                    "name": "C3",
                    "midi": 48,
                    "time": 152.78645833333294,
                    "velocity": 0.6299212598425197,
                    "duration": 0.18750000000002842
                },
                {
                    "name": "F3",
                    "midi": 53,
                    "time": 152.78645833333294,
                    "velocity": 0.6299212598425197,
                    "duration": 0.18750000000002842
                },
                {
                    "name": "F3",
                    "midi": 53,
                    "time": 153.14322916666632,
                    "velocity": 0.6299212598425197,
                    "duration": 0.109375
                },
                {
                    "name": "A3",
                    "midi": 57,
                    "time": 153.14322916666632,
                    "velocity": 0.6299212598425197,
                    "duration": 0.109375
                },
                {
                    "name": "C4",
                    "midi": 60,
                    "time": 153.14322916666632,
                    "velocity": 0.6299212598425197,
                    "duration": 0.109375
                },
                {
                    "name": "D#4",
                    "midi": 63,
                    "time": 153.14322916666632,
                    "velocity": 0.6299212598425197,
                    "duration": 0.109375
                },
                {
                    "name": "F4",
                    "midi": 65,
                    "time": 153.14322916666632,
                    "velocity": 0.6299212598425197,
                    "duration": 0.109375
                },
                {
                    "name": "A4",
                    "midi": 69,
                    "time": 153.14322916666632,
                    "velocity": 0.6299212598425197,
                    "duration": 0.109375
                },
                {
                    "name": "C5",
                    "midi": 72,
                    "time": 153.14322916666632,
                    "velocity": 0.6299212598425197,
                    "duration": 0.109375
                },
                {
                    "name": "D#5",
                    "midi": 75,
                    "time": 153.14322916666632,
                    "velocity": 0.6299212598425197,
                    "duration": 0.109375
                },
                {
                    "name": "F5",
                    "midi": 77,
                    "time": 153.14322916666632,
                    "velocity": 0.6299212598425197,
                    "duration": 0.109375
                },
                {
                    "name": "E4",
                    "midi": 64,
                    "time": 153.41927083333297,
                    "velocity": 0.6299212598425197,
                    "duration": 0.2239583333333428
                },
                {
                    "name": "C5",
                    "midi": 72,
                    "time": 153.41927083333297,
                    "velocity": 0.6299212598425197,
                    "duration": 0.2239583333333428
                },
                {
                    "name": "E5",
                    "midi": 76,
                    "time": 153.41927083333297,
                    "velocity": 0.6299212598425197,
                    "duration": 0.21875
                },
                {
                    "name": "C2",
                    "midi": 36,
                    "time": 153.57031249999963,
                    "velocity": 0.6299212598425197,
                    "duration": 0.11197916666668561
                },
                {
                    "name": "C3",
                    "midi": 48,
                    "time": 153.57031249999963,
                    "velocity": 0.6299212598425197,
                    "duration": 0.7057291666667425
                },
                {
                    "name": "C5",
                    "midi": 72,
                    "time": 153.82031249999966,
                    "velocity": 0.6299212598425197,
                    "duration": 0.049479166666685614
                },
                {
                    "name": "F5",
                    "midi": 77,
                    "time": 153.82031249999966,
                    "velocity": 0.6299212598425197,
                    "duration": 0.11718750000002842
                },
                {
                    "name": "F4",
                    "midi": 65,
                    "time": 153.825520833333,
                    "velocity": 0.6299212598425197,
                    "duration": 0.11458333333334281
                },
                {
                    "name": "A4",
                    "midi": 69,
                    "time": 153.825520833333,
                    "velocity": 0.6299212598425197,
                    "duration": 0.04427083333334281
                },
                {
                    "name": "C5",
                    "midi": 72,
                    "time": 153.9531249999997,
                    "velocity": 0.6299212598425197,
                    "duration": 0.109375
                },
                {
                    "name": "D#5",
                    "midi": 75,
                    "time": 153.9531249999997,
                    "velocity": 0.6299212598425197,
                    "duration": 0.109375
                },
                {
                    "name": "F3",
                    "midi": 53,
                    "time": 153.95833333333303,
                    "velocity": 0.6299212598425197,
                    "duration": 0.109375
                },
                {
                    "name": "A3",
                    "midi": 57,
                    "time": 153.95833333333303,
                    "velocity": 0.6299212598425197,
                    "duration": 0.10416666666665719
                },
                {
                    "name": "C4",
                    "midi": 60,
                    "time": 153.95833333333303,
                    "velocity": 0.6299212598425197,
                    "duration": 0.109375
                },
                {
                    "name": "D#4",
                    "midi": 63,
                    "time": 153.95833333333303,
                    "velocity": 0.6299212598425197,
                    "duration": 0.10416666666665719
                },
                {
                    "name": "A4",
                    "midi": 69,
                    "time": 153.95833333333303,
                    "velocity": 0.6299212598425197,
                    "duration": 0.10416666666665719
                },
                {
                    "name": "D5",
                    "midi": 74,
                    "time": 154.22135416666637,
                    "velocity": 0.6299212598425197,
                    "duration": 0.09114583333334281
                },
                {
                    "name": "D4",
                    "midi": 62,
                    "time": 154.22656249999972,
                    "velocity": 0.6299212598425197,
                    "duration": 0.1171875
                },
                {
                    "name": "C#2",
                    "midi": 37,
                    "time": 154.36197916666637,
                    "velocity": 0.6299212598425197,
                    "duration": 0.10677083333334281
                },
                {
                    "name": "C#3",
                    "midi": 49,
                    "time": 154.36197916666637,
                    "velocity": 0.6299212598425197,
                    "duration": 0.7161458333333428
                },
                {
                    "name": "C#4",
                    "midi": 61,
                    "time": 154.36197916666637,
                    "velocity": 0.6299212598425197,
                    "duration": 0.10677083333334281
                },
                {
                    "name": "F4",
                    "midi": 65,
                    "time": 154.36197916666637,
                    "velocity": 0.6299212598425197,
                    "duration": 0.10677083333334281
                },
                {
                    "name": "A#4",
                    "midi": 70,
                    "time": 154.36197916666637,
                    "velocity": 0.6299212598425197,
                    "duration": 0.07552083333334281
                },
                {
                    "name": "C#5",
                    "midi": 73,
                    "time": 154.36197916666637,
                    "velocity": 0.6299212598425197,
                    "duration": 0.07291666666668561
                },
                {
                    "name": "F4",
                    "midi": 65,
                    "time": 154.62499999999972,
                    "velocity": 0.6299212598425197,
                    "duration": 0.04947916666665719
                },
                {
                    "name": "F5",
                    "midi": 77,
                    "time": 154.62499999999972,
                    "velocity": 0.6299212598425197,
                    "duration": 0.04947916666665719
                },
                {
                    "name": "A#3",
                    "midi": 58,
                    "time": 154.76562499999972,
                    "velocity": 0.6299212598425197,
                    "duration": 0.11458333333334281
                },
                {
                    "name": "C#4",
                    "midi": 61,
                    "time": 154.76562499999972,
                    "velocity": 0.6299212598425197,
                    "duration": 0.07291666666665719
                },
                {
                    "name": "F4",
                    "midi": 65,
                    "time": 154.76562499999972,
                    "velocity": 0.6299212598425197,
                    "duration": 0.109375
                },
                {
                    "name": "A#4",
                    "midi": 70,
                    "time": 154.76562499999972,
                    "velocity": 0.6299212598425197,
                    "duration": 0.07291666666665719
                },
                {
                    "name": "F5",
                    "midi": 77,
                    "time": 154.76562499999972,
                    "velocity": 0.6299212598425197,
                    "duration": 0.07291666666665719
                },
                {
                    "name": "A#5",
                    "midi": 82,
                    "time": 154.76562499999972,
                    "velocity": 0.6299212598425197,
                    "duration": 0.07291666666665719
                },
                {
                    "name": "A4",
                    "midi": 69,
                    "time": 155.02864583333306,
                    "velocity": 0.6299212598425197,
                    "duration": 0.109375
                },
                {
                    "name": "A5",
                    "midi": 81,
                    "time": 155.02864583333306,
                    "velocity": 0.6299212598425197,
                    "duration": 0.109375
                },
                {
                    "name": "B4",
                    "midi": 71,
                    "time": 155.15624999999972,
                    "velocity": 0.6299212598425197,
                    "duration": 0.11458333333334281
                },
                {
                    "name": "F5",
                    "midi": 77,
                    "time": 155.15624999999972,
                    "velocity": 0.6299212598425197,
                    "duration": 0.11458333333334281
                },
                {
                    "name": "G#5",
                    "midi": 80,
                    "time": 155.15624999999972,
                    "velocity": 0.6299212598425197,
                    "duration": 0.11458333333334281
                },
                {
                    "name": "B5",
                    "midi": 83,
                    "time": 155.15624999999972,
                    "velocity": 0.6299212598425197,
                    "duration": 0.11458333333334281
                },
                {
                    "name": "D2",
                    "midi": 38,
                    "time": 155.16145833333306,
                    "velocity": 0.6299212598425197,
                    "duration": 0.11458333333334281
                },
                {
                    "name": "D3",
                    "midi": 50,
                    "time": 155.16145833333306,
                    "velocity": 0.6299212598425197,
                    "duration": 0.7135416666666856
                },
                {
                    "name": "A#4",
                    "midi": 70,
                    "time": 155.42968749999974,
                    "velocity": 0.6299212598425197,
                    "duration": 0.11458333333334281
                },
                {
                    "name": "A#5",
                    "midi": 82,
                    "time": 155.42968749999974,
                    "velocity": 0.6299212598425197,
                    "duration": 0.11458333333334281
                },
                {
                    "name": "G#3",
                    "midi": 56,
                    "time": 155.56249999999974,
                    "velocity": 0.6299212598425197,
                    "duration": 0.11458333333334281
                },
                {
                    "name": "B3",
                    "midi": 59,
                    "time": 155.56249999999974,
                    "velocity": 0.6299212598425197,
                    "duration": 0.11458333333334281
                },
                {
                    "name": "D4",
                    "midi": 62,
                    "time": 155.56249999999974,
                    "velocity": 0.6299212598425197,
                    "duration": 0.11458333333334281
                },
                {
                    "name": "G#4",
                    "midi": 68,
                    "time": 155.56249999999974,
                    "velocity": 0.6299212598425197,
                    "duration": 0.11458333333334281
                },
                {
                    "name": "G#5",
                    "midi": 80,
                    "time": 155.56249999999974,
                    "velocity": 0.6299212598425197,
                    "duration": 0.109375
                },
                {
                    "name": "F3",
                    "midi": 53,
                    "time": 155.5651041666664,
                    "velocity": 0.6299212598425197,
                    "duration": 0.11197916666668561
                },
                {
                    "name": "F5",
                    "midi": 77,
                    "time": 155.82812499999974,
                    "velocity": 0.6299212598425197,
                    "duration": 0.11197916666665719
                },
                {
                    "name": "F4",
                    "midi": 65,
                    "time": 155.8333333333331,
                    "velocity": 0.6299212598425197,
                    "duration": 0.10677083333331439
                },
                {
                    "name": "C5",
                    "midi": 72,
                    "time": 155.95312499999974,
                    "velocity": 0.6299212598425197,
                    "duration": 0.11458333333334281
                },
                {
                    "name": "D#5",
                    "midi": 75,
                    "time": 155.95312499999974,
                    "velocity": 0.6299212598425197,
                    "duration": 0.11458333333334281
                },
                {
                    "name": "G5",
                    "midi": 79,
                    "time": 155.95312499999974,
                    "velocity": 0.6299212598425197,
                    "duration": 0.11458333333334281
                },
                {
                    "name": "D#2",
                    "midi": 39,
                    "time": 155.9583333333331,
                    "velocity": 0.6299212598425197,
                    "duration": 0.11458333333334281
                },
                {
                    "name": "D#3",
                    "midi": 51,
                    "time": 155.9583333333331,
                    "velocity": 0.6299212598425197,
                    "duration": 0.7161458333333428
                },
                {
                    "name": "F5",
                    "midi": 77,
                    "time": 156.22135416666643,
                    "velocity": 0.6299212598425197,
                    "duration": 0.2447916666666572
                },
                {
                    "name": "F4",
                    "midi": 65,
                    "time": 156.22656249999977,
                    "velocity": 0.6299212598425197,
                    "duration": 0.2447916666666572
                },
                {
                    "name": "C5",
                    "midi": 72,
                    "time": 156.24999999999977,
                    "velocity": 0.6299212598425197,
                    "duration": 0.21614583333331439
                },
                {
                    "name": "G#3",
                    "midi": 56,
                    "time": 156.36197916666643,
                    "velocity": 0.6299212598425197,
                    "duration": 0.10416666666665719
                },
                {
                    "name": "C4",
                    "midi": 60,
                    "time": 156.36197916666643,
                    "velocity": 0.6299212598425197,
                    "duration": 0.10416666666665719
                },
                {
                    "name": "D#4",
                    "midi": 63,
                    "time": 156.36197916666643,
                    "velocity": 0.6299212598425197,
                    "duration": 0.109375
                },
                {
                    "name": "D#4",
                    "midi": 63,
                    "time": 156.62499999999977,
                    "velocity": 0.6299212598425197,
                    "duration": 0.3671875
                },
                {
                    "name": "A4",
                    "midi": 69,
                    "time": 156.62499999999977,
                    "velocity": 0.6299212598425197,
                    "duration": 0.6432291666666856
                },
                {
                    "name": "C5",
                    "midi": 72,
                    "time": 156.62499999999977,
                    "velocity": 0.6299212598425197,
                    "duration": 0.6380208333333428
                },
                {
                    "name": "D#5",
                    "midi": 75,
                    "time": 156.62499999999977,
                    "velocity": 0.6299212598425197,
                    "duration": 0.6432291666666856
                },
                {
                    "name": "F2",
                    "midi": 41,
                    "time": 156.75260416666643,
                    "velocity": 0.6299212598425197,
                    "duration": 0.10677083333334281
                },
                {
                    "name": "C3",
                    "midi": 48,
                    "time": 156.75260416666643,
                    "velocity": 0.6299212598425197,
                    "duration": 0.11197916666668561
                },
                {
                    "name": "A3",
                    "midi": 57,
                    "time": 156.75260416666643,
                    "velocity": 0.6299212598425197,
                    "duration": 0.24479166666668561
                },
                {
                    "name": "C4",
                    "midi": 60,
                    "time": 157.15364583333312,
                    "velocity": 0.6299212598425197,
                    "duration": 0.11458333333334281
                },
                {
                    "name": "D#4",
                    "midi": 63,
                    "time": 157.15364583333312,
                    "velocity": 0.6299212598425197,
                    "duration": 0.11458333333334281
                },
                {
                    "name": "F3",
                    "midi": 53,
                    "time": 157.15885416666646,
                    "velocity": 0.6299212598425197,
                    "duration": 0.109375
                },
                {
                    "name": "A3",
                    "midi": 57,
                    "time": 157.15885416666646,
                    "velocity": 0.6299212598425197,
                    "duration": 0.3125
                },
                {
                    "name": "F2",
                    "midi": 41,
                    "time": 157.4218749999998,
                    "velocity": 0.6299212598425197,
                    "duration": 0.25
                },
                {
                    "name": "G#4",
                    "midi": 68,
                    "time": 157.4218749999998,
                    "velocity": 0.6299212598425197,
                    "duration": 0.6458333333333428
                },
                {
                    "name": "D5",
                    "midi": 74,
                    "time": 157.4218749999998,
                    "velocity": 0.6299212598425197,
                    "duration": 0.6458333333333428
                },
                {
                    "name": "F5",
                    "midi": 77,
                    "time": 157.4218749999998,
                    "velocity": 0.6299212598425197,
                    "duration": 0.6458333333333428
                },
                {
                    "name": "G#5",
                    "midi": 80,
                    "time": 157.4218749999998,
                    "velocity": 0.6299212598425197,
                    "duration": 0.6458333333333428
                },
                {
                    "name": "G#3",
                    "midi": 56,
                    "time": 157.55729166666646,
                    "velocity": 0.6299212598425197,
                    "duration": 0.3177083333333428
                },
                {
                    "name": "F3",
                    "midi": 53,
                    "time": 157.95833333333314,
                    "velocity": 0.6299212598425197,
                    "duration": 0.109375
                },
                {
                    "name": "G#3",
                    "midi": 56,
                    "time": 157.95833333333314,
                    "velocity": 0.6299212598425197,
                    "duration": 0.109375
                },
                {
                    "name": "A#3",
                    "midi": 58,
                    "time": 157.95833333333314,
                    "velocity": 0.6299212598425197,
                    "duration": 0.109375
                },
                {
                    "name": "D4",
                    "midi": 62,
                    "time": 157.95833333333314,
                    "velocity": 0.6299212598425197,
                    "duration": 0.109375
                },
                {
                    "name": "G#4",
                    "midi": 68,
                    "time": 158.2265624999998,
                    "velocity": 0.6299212598425197,
                    "duration": 0.12239583333334281
                },
                {
                    "name": "D5",
                    "midi": 74,
                    "time": 158.2265624999998,
                    "velocity": 0.6299212598425197,
                    "duration": 0.12239583333334281
                },
                {
                    "name": "F5",
                    "midi": 77,
                    "time": 158.2265624999998,
                    "velocity": 0.6299212598425197,
                    "duration": 0.12239583333334281
                },
                {
                    "name": "G#5",
                    "midi": 80,
                    "time": 158.2265624999998,
                    "velocity": 0.6299212598425197,
                    "duration": 0.12239583333334281
                },
                {
                    "name": "G4",
                    "midi": 67,
                    "time": 158.3619791666665,
                    "velocity": 0.6299212598425197,
                    "duration": 0.11979166666668561
                },
                {
                    "name": "C#5",
                    "midi": 73,
                    "time": 158.3619791666665,
                    "velocity": 0.6299212598425197,
                    "duration": 0.11458333333334281
                },
                {
                    "name": "G5",
                    "midi": 79,
                    "time": 158.3619791666665,
                    "velocity": 0.6299212598425197,
                    "duration": 0.11458333333334281
                },
                {
                    "name": "D#2",
                    "midi": 39,
                    "time": 158.36718749999983,
                    "velocity": 0.6299212598425197,
                    "duration": 0.11458333333334281
                },
                {
                    "name": "D#3",
                    "midi": 51,
                    "time": 158.36718749999983,
                    "velocity": 0.6299212598425197,
                    "duration": 0.11458333333334281
                },
                {
                    "name": "F2",
                    "midi": 41,
                    "time": 158.62239583333317,
                    "velocity": 0.6299212598425197,
                    "duration": 0.109375
                },
                {
                    "name": "G#4",
                    "midi": 68,
                    "time": 158.62239583333317,
                    "velocity": 0.6299212598425197,
                    "duration": 0.109375
                },
                {
                    "name": "G#5",
                    "midi": 80,
                    "time": 158.62239583333317,
                    "velocity": 0.6299212598425197,
                    "duration": 0.109375
                },
                {
                    "name": "F3",
                    "midi": 53,
                    "time": 158.62499999999983,
                    "velocity": 0.6299212598425197,
                    "duration": 0.10677083333334281
                },
                {
                    "name": "G2",
                    "midi": 43,
                    "time": 158.74999999999983,
                    "velocity": 0.6299212598425197,
                    "duration": 0.1458333333333428
                },
                {
                    "name": "G3",
                    "midi": 55,
                    "time": 158.74999999999983,
                    "velocity": 0.6299212598425197,
                    "duration": 0.1458333333333428
                },
                {
                    "name": "A#4",
                    "midi": 70,
                    "time": 158.74999999999983,
                    "velocity": 0.6299212598425197,
                    "duration": 0.1458333333333428
                },
                {
                    "name": "A#5",
                    "midi": 82,
                    "time": 158.74999999999983,
                    "velocity": 0.6299212598425197,
                    "duration": 0.15104166666668561
                },
                {
                    "name": "G#2",
                    "midi": 44,
                    "time": 159.01562499999986,
                    "velocity": 0.6299212598425197,
                    "duration": 0.359375
                },
                {
                    "name": "D#3",
                    "midi": 51,
                    "time": 159.01562499999986,
                    "velocity": 0.6299212598425197,
                    "duration": 0.359375
                },
                {
                    "name": "G#3",
                    "midi": 56,
                    "time": 159.01562499999986,
                    "velocity": 0.6299212598425197,
                    "duration": 0.359375
                },
                {
                    "name": "G#4",
                    "midi": 68,
                    "time": 159.01562499999986,
                    "velocity": 0.6299212598425197,
                    "duration": 0.359375
                },
                {
                    "name": "C5",
                    "midi": 72,
                    "time": 159.01562499999986,
                    "velocity": 0.6299212598425197,
                    "duration": 0.359375
                },
                {
                    "name": "D#5",
                    "midi": 75,
                    "time": 159.01562499999986,
                    "velocity": 0.6299212598425197,
                    "duration": 0.359375
                },
                {
                    "name": "G#5",
                    "midi": 80,
                    "time": 159.01562499999986,
                    "velocity": 0.6299212598425197,
                    "duration": 0.359375
                },
                {
                    "name": "C3",
                    "midi": 48,
                    "time": 159.53124999999986,
                    "velocity": 0.6299212598425197,
                    "duration": 0.12239583333334281
                },
                {
                    "name": "C4",
                    "midi": 60,
                    "time": 159.53124999999986,
                    "velocity": 0.6299212598425197,
                    "duration": 0.3125
                },
                {
                    "name": "A4",
                    "midi": 69,
                    "time": 159.53124999999986,
                    "velocity": 0.6299212598425197,
                    "duration": 0.1770833333333428
                },
                {
                    "name": "A5",
                    "midi": 81,
                    "time": 159.53124999999986,
                    "velocity": 0.6299212598425197,
                    "duration": 0.1536458333333428
                },
                {
                    "name": "A#4",
                    "midi": 70,
                    "time": 159.7942708333332,
                    "velocity": 0.6299212598425197,
                    "duration": 0.12239583333331439
                },
                {
                    "name": "A#5",
                    "midi": 82,
                    "time": 159.7942708333332,
                    "velocity": 0.6299212598425197,
                    "duration": 0.12239583333331439
                },
                {
                    "name": "B2",
                    "midi": 47,
                    "time": 159.93489583333317,
                    "velocity": 0.6299212598425197,
                    "duration": 0.11458333333334281
                },
                {
                    "name": "B3",
                    "midi": 59,
                    "time": 159.93489583333317,
                    "velocity": 0.6299212598425197,
                    "duration": 0.7734375000000284
                },
                {
                    "name": "B4",
                    "midi": 71,
                    "time": 159.93489583333317,
                    "velocity": 0.6299212598425197,
                    "duration": 0.15104166666668561
                },
                {
                    "name": "B5",
                    "midi": 83,
                    "time": 159.93489583333317,
                    "velocity": 0.6299212598425197,
                    "duration": 0.15104166666668561
                },
                {
                    "name": "C5",
                    "midi": 72,
                    "time": 160.21354166666652,
                    "velocity": 0.6299212598425197,
                    "duration": 0.0859375
                },
                {
                    "name": "C6",
                    "midi": 84,
                    "time": 160.21354166666652,
                    "velocity": 0.6299212598425197,
                    "duration": 0.0859375
                },
                {
                    "name": "F3",
                    "midi": 53,
                    "time": 160.34895833333317,
                    "velocity": 0.6299212598425197,
                    "duration": 0.12239583333334281
                },
                {
                    "name": "G#3",
                    "midi": 56,
                    "time": 160.34895833333317,
                    "velocity": 0.6299212598425197,
                    "duration": 0.12239583333334281
                },
                {
                    "name": "D#5",
                    "midi": 75,
                    "time": 160.34895833333317,
                    "velocity": 0.6299212598425197,
                    "duration": 0.12239583333334281
                },
                {
                    "name": "D#6",
                    "midi": 87,
                    "time": 160.34895833333317,
                    "velocity": 0.6299212598425197,
                    "duration": 0.12239583333334281
                },
                {
                    "name": "D5",
                    "midi": 74,
                    "time": 160.62499999999986,
                    "velocity": 0.6299212598425197,
                    "duration": 0.11458333333334281
                },
                {
                    "name": "D6",
                    "midi": 86,
                    "time": 160.62499999999986,
                    "velocity": 0.6299212598425197,
                    "duration": 0.11458333333334281
                },
                {
                    "name": "C#5",
                    "midi": 73,
                    "time": 160.7630208333332,
                    "velocity": 0.6299212598425197,
                    "duration": 0.6093750000000284
                },
                {
                    "name": "G5",
                    "midi": 79,
                    "time": 160.7630208333332,
                    "velocity": 0.6299212598425197,
                    "duration": 0.6119791666666856
                },
                {
                    "name": "A#2",
                    "midi": 46,
                    "time": 160.76822916666654,
                    "velocity": 0.6299212598425197,
                    "duration": 0.109375
                },
                {
                    "name": "A#3",
                    "midi": 58,
                    "time": 160.76822916666654,
                    "velocity": 0.6299212598425197,
                    "duration": 1.5364583333333712
                },
                {
                    "name": "A#5",
                    "midi": 82,
                    "time": 160.76822916666654,
                    "velocity": 0.6299212598425197,
                    "duration": 0.6067708333333428
                },
                {
                    "name": "C#6",
                    "midi": 85,
                    "time": 160.76822916666654,
                    "velocity": 0.6299212598425197,
                    "duration": 0.6067708333333428
                },
                {
                    "name": "D#3",
                    "midi": 51,
                    "time": 161.1640624999999,
                    "velocity": 0.6299212598425197,
                    "duration": 0.109375
                },
                {
                    "name": "G3",
                    "midi": 55,
                    "time": 161.1640624999999,
                    "velocity": 0.6299212598425197,
                    "duration": 0.109375
                },
                {
                    "name": "C#4",
                    "midi": 61,
                    "time": 161.1640624999999,
                    "velocity": 0.6299212598425197,
                    "duration": 0.109375
                },
                {
                    "name": "D#2",
                    "midi": 39,
                    "time": 161.5546874999999,
                    "velocity": 0.6299212598425197,
                    "duration": 0.11458333333334281
                },
                {
                    "name": "A4",
                    "midi": 69,
                    "time": 161.5546874999999,
                    "velocity": 0.6299212598425197,
                    "duration": 0.14322916666668561
                },
                {
                    "name": "A5",
                    "midi": 81,
                    "time": 161.5546874999999,
                    "velocity": 0.6299212598425197,
                    "duration": 0.14322916666668561
                },
                {
                    "name": "C5",
                    "midi": 72,
                    "time": 161.82031249999991,
                    "velocity": 0.6299212598425197,
                    "duration": 0.2890625
                },
                {
                    "name": "G5",
                    "midi": 79,
                    "time": 161.82031249999991,
                    "velocity": 0.6299212598425197,
                    "duration": 0.2890625
                },
                {
                    "name": "C6",
                    "midi": 84,
                    "time": 161.82552083333326,
                    "velocity": 0.6299212598425197,
                    "duration": 0.2838541666666572
                },
                {
                    "name": "D#3",
                    "midi": 51,
                    "time": 161.96093749999991,
                    "velocity": 0.6299212598425197,
                    "duration": 0.109375
                },
                {
                    "name": "G3",
                    "midi": 55,
                    "time": 161.96093749999991,
                    "velocity": 0.6299212598425197,
                    "duration": 0.12239583333334281
                },
                {
                    "name": "C#4",
                    "midi": 61,
                    "time": 161.96093749999991,
                    "velocity": 0.6299212598425197,
                    "duration": 0.109375
                },
                {
                    "name": "A#4",
                    "midi": 70,
                    "time": 162.22395833333326,
                    "velocity": 0.6299212598425197,
                    "duration": 0.3125
                },
                {
                    "name": "G5",
                    "midi": 79,
                    "time": 162.22395833333326,
                    "velocity": 0.6299212598425197,
                    "duration": 0.3177083333333428
                },
                {
                    "name": "A#5",
                    "midi": 82,
                    "time": 162.22395833333326,
                    "velocity": 0.6299212598425197,
                    "duration": 0.3125
                },
                {
                    "name": "G2",
                    "midi": 43,
                    "time": 162.35937499999991,
                    "velocity": 0.6299212598425197,
                    "duration": 0.109375
                },
                {
                    "name": "G3",
                    "midi": 55,
                    "time": 162.35937499999991,
                    "velocity": 0.6299212598425197,
                    "duration": 0.24218750000002842
                },
                {
                    "name": "C#3",
                    "midi": 49,
                    "time": 162.76041666666663,
                    "velocity": 0.6299212598425197,
                    "duration": 0.10677083333334281
                },
                {
                    "name": "C#4",
                    "midi": 61,
                    "time": 162.76041666666663,
                    "velocity": 0.6299212598425197,
                    "duration": 0.3229166666666856
                },
                {
                    "name": "E4",
                    "midi": 64,
                    "time": 162.76041666666663,
                    "velocity": 0.6299212598425197,
                    "duration": 0.10677083333334281
                },
                {
                    "name": "C#5",
                    "midi": 73,
                    "time": 162.76041666666663,
                    "velocity": 0.6299212598425197,
                    "duration": 0.10677083333334281
                },
                {
                    "name": "E5",
                    "midi": 76,
                    "time": 162.76041666666663,
                    "velocity": 0.6299212598425197,
                    "duration": 0.11197916666668561
                },
                {
                    "name": "F4",
                    "midi": 65,
                    "time": 163.02864583333331,
                    "velocity": 0.6299212598425197,
                    "duration": 0.11979166666668561
                },
                {
                    "name": "C#5",
                    "midi": 73,
                    "time": 163.02864583333331,
                    "velocity": 0.6299212598425197,
                    "duration": 0.0546875
                },
                {
                    "name": "F5",
                    "midi": 77,
                    "time": 163.02864583333331,
                    "velocity": 0.6299212598425197,
                    "duration": 0.11458333333334281
                },
                {
                    "name": "C3",
                    "midi": 48,
                    "time": 163.16666666666666,
                    "velocity": 0.6299212598425197,
                    "duration": 0.11458333333334281
                },
                {
                    "name": "C4",
                    "midi": 60,
                    "time": 163.16666666666666,
                    "velocity": 0.6299212598425197,
                    "duration": 0.3098958333333428
                },
                {
                    "name": "C#5",
                    "midi": 73,
                    "time": 163.16666666666666,
                    "velocity": 0.6299212598425197,
                    "duration": 0.11458333333334281
                },
                {
                    "name": "F#5",
                    "midi": 78,
                    "time": 163.16666666666666,
                    "velocity": 0.6299212598425197,
                    "duration": 0.11458333333334281
                },
                {
                    "name": "G4",
                    "midi": 67,
                    "time": 163.43489583333334,
                    "velocity": 0.6299212598425197,
                    "duration": 0.1015625
                },
                {
                    "name": "G5",
                    "midi": 79,
                    "time": 163.43489583333334,
                    "velocity": 0.6299212598425197,
                    "duration": 0.10677083333334281
                },
                {
                    "name": "A#2",
                    "midi": 46,
                    "time": 163.55989583333334,
                    "velocity": 0.6299212598425197,
                    "duration": 0.1171875
                },
                {
                    "name": "A#3",
                    "midi": 58,
                    "time": 163.55989583333334,
                    "velocity": 0.6299212598425197,
                    "duration": 0.3489583333333428
                },
                {
                    "name": "C6",
                    "midi": 84,
                    "time": 163.55989583333334,
                    "velocity": 0.6299212598425197,
                    "duration": 0.1536458333333428
                },
                {
                    "name": "C5",
                    "midi": 72,
                    "time": 163.59635416666669,
                    "velocity": 0.6299212598425197,
                    "duration": 0.1171875
                },
                {
                    "name": "G4",
                    "midi": 67,
                    "time": 163.83593750000003,
                    "velocity": 0.6299212598425197,
                    "duration": 0.109375
                },
                {
                    "name": "G5",
                    "midi": 79,
                    "time": 163.83593750000003,
                    "velocity": 0.6299212598425197,
                    "duration": 0.109375
                },
                {
                    "name": "G#2",
                    "midi": 44,
                    "time": 163.95833333333337,
                    "velocity": 0.6299212598425197,
                    "duration": 0.11458333333334281
                },
                {
                    "name": "G#3",
                    "midi": 56,
                    "time": 163.9635416666667,
                    "velocity": 0.6299212598425197,
                    "duration": 1.1067708333333144
                },
                {
                    "name": "A#4",
                    "midi": 70,
                    "time": 163.9635416666667,
                    "velocity": 0.6299212598425197,
                    "duration": 0.109375
                },
                {
                    "name": "A#5",
                    "midi": 82,
                    "time": 163.9635416666667,
                    "velocity": 0.6299212598425197,
                    "duration": 0.109375
                },
                {
                    "name": "G#4",
                    "midi": 68,
                    "time": 164.23177083333337,
                    "velocity": 0.6299212598425197,
                    "duration": 0.2421875
                },
                {
                    "name": "C5",
                    "midi": 72,
                    "time": 164.23177083333337,
                    "velocity": 0.6299212598425197,
                    "duration": 0.2473958333333428
                },
                {
                    "name": "D#5",
                    "midi": 75,
                    "time": 164.23177083333337,
                    "velocity": 0.6299212598425197,
                    "duration": 0.2473958333333428
                },
                {
                    "name": "G#5",
                    "midi": 80,
                    "time": 164.23177083333337,
                    "velocity": 0.6299212598425197,
                    "duration": 0.2421875
                },
                {
                    "name": "D#3",
                    "midi": 51,
                    "time": 164.35937500000003,
                    "velocity": 0.6299212598425197,
                    "duration": 0.11458333333334281
                },
                {
                    "name": "C4",
                    "midi": 60,
                    "time": 164.35937500000003,
                    "velocity": 0.6299212598425197,
                    "duration": 0.11458333333334281
                },
                {
                    "name": "F4",
                    "midi": 65,
                    "time": 164.62500000000006,
                    "velocity": 0.6299212598425197,
                    "duration": 0.9999999999999716
                },
                {
                    "name": "C5",
                    "midi": 72,
                    "time": 164.62500000000006,
                    "velocity": 0.6299212598425197,
                    "duration": 0.9999999999999716
                },
                {
                    "name": "D#5",
                    "midi": 75,
                    "time": 164.62500000000006,
                    "velocity": 0.6299212598425197,
                    "duration": 0.9999999999999716
                },
                {
                    "name": "F5",
                    "midi": 77,
                    "time": 164.62500000000006,
                    "velocity": 0.6299212598425197,
                    "duration": 1.0052083333333144
                },
                {
                    "name": "D#2",
                    "midi": 39,
                    "time": 164.7526041666667,
                    "velocity": 0.6299212598425197,
                    "duration": 0.11197916666665719
                },
                {
                    "name": "D#3",
                    "midi": 51,
                    "time": 165.15625000000003,
                    "velocity": 0.6299212598425197,
                    "duration": 0.10416666666665719
                },
                {
                    "name": "G#3",
                    "midi": 56,
                    "time": 165.15625000000003,
                    "velocity": 0.6299212598425197,
                    "duration": 0.109375
                },
                {
                    "name": "C4",
                    "midi": 60,
                    "time": 165.15625000000003,
                    "velocity": 0.6299212598425197,
                    "duration": 0.109375
                },
                {
                    "name": "C3",
                    "midi": 48,
                    "time": 165.54687500000003,
                    "velocity": 0.6299212598425197,
                    "duration": 0.7109375000000284
                },
                {
                    "name": "D#4",
                    "midi": 63,
                    "time": 165.81250000000003,
                    "velocity": 0.6299212598425197,
                    "duration": 0.08072916666668561
                },
                {
                    "name": "C5",
                    "midi": 72,
                    "time": 165.81250000000003,
                    "velocity": 0.6299212598425197,
                    "duration": 0.057291666666685614
                },
                {
                    "name": "D#5",
                    "midi": 75,
                    "time": 165.81250000000003,
                    "velocity": 0.6299212598425197,
                    "duration": 0.08072916666668561
                },
                {
                    "name": "D#3",
                    "midi": 51,
                    "time": 165.9479166666667,
                    "velocity": 0.6299212598425197,
                    "duration": 0.078125
                },
                {
                    "name": "G#3",
                    "midi": 56,
                    "time": 165.9479166666667,
                    "velocity": 0.6299212598425197,
                    "duration": 0.078125
                },
                {
                    "name": "C4",
                    "midi": 60,
                    "time": 165.9479166666667,
                    "velocity": 0.6299212598425197,
                    "duration": 0.078125
                },
                {
                    "name": "E4",
                    "midi": 64,
                    "time": 165.9479166666667,
                    "velocity": 0.6299212598425197,
                    "duration": 0.078125
                },
                {
                    "name": "C5",
                    "midi": 72,
                    "time": 165.95312500000006,
                    "velocity": 0.6299212598425197,
                    "duration": 0.07291666666665719
                },
                {
                    "name": "E5",
                    "midi": 76,
                    "time": 165.95312500000006,
                    "velocity": 0.6299212598425197,
                    "duration": 0.078125
                },
                {
                    "name": "F4",
                    "midi": 65,
                    "time": 166.2213541666667,
                    "velocity": 0.6299212598425197,
                    "duration": 0.06770833333334281
                },
                {
                    "name": "F5",
                    "midi": 77,
                    "time": 166.2213541666667,
                    "velocity": 0.6299212598425197,
                    "duration": 0.041666666666685614
                },
                {
                    "name": "B1",
                    "midi": 35,
                    "time": 166.34375000000006,
                    "velocity": 0.6299212598425197,
                    "duration": 0.1015625
                },
                {
                    "name": "B2",
                    "midi": 47,
                    "time": 166.34375000000006,
                    "velocity": 0.6299212598425197,
                    "duration": 0.6588541666666572
                },
                {
                    "name": "A#4",
                    "midi": 70,
                    "time": 166.34375000000006,
                    "velocity": 0.6299212598425197,
                    "duration": 0.078125
                },
                {
                    "name": "D5",
                    "midi": 74,
                    "time": 166.3489583333334,
                    "velocity": 0.6299212598425197,
                    "duration": 0.07291666666665719
                },
                {
                    "name": "F5",
                    "midi": 77,
                    "time": 166.3489583333334,
                    "velocity": 0.6299212598425197,
                    "duration": 0.07291666666665719
                },
                {
                    "name": "A#5",
                    "midi": 82,
                    "time": 166.3489583333334,
                    "velocity": 0.6299212598425197,
                    "duration": 0.07291666666665719
                },
                {
                    "name": "G#4",
                    "midi": 68,
                    "time": 166.6119791666667,
                    "velocity": 0.6299212598425197,
                    "duration": 0.203125
                },
                {
                    "name": "D5",
                    "midi": 74,
                    "time": 166.6119791666667,
                    "velocity": 0.6299212598425197,
                    "duration": 0.2083333333333428
                },
                {
                    "name": "F5",
                    "midi": 77,
                    "time": 166.6119791666667,
                    "velocity": 0.6299212598425197,
                    "duration": 0.203125
                },
                {
                    "name": "G#5",
                    "midi": 80,
                    "time": 166.6119791666667,
                    "velocity": 0.6299212598425197,
                    "duration": 0.2083333333333428
                },
                {
                    "name": "F3",
                    "midi": 53,
                    "time": 166.73958333333337,
                    "velocity": 0.6299212598425197,
                    "duration": 0.07552083333334281
                },
                {
                    "name": "G#3",
                    "midi": 56,
                    "time": 166.73958333333337,
                    "velocity": 0.6299212598425197,
                    "duration": 0.07552083333334281
                },
                {
                    "name": "B3",
                    "midi": 59,
                    "time": 166.73958333333337,
                    "velocity": 0.6299212598425197,
                    "duration": 0.07552083333334281
                },
                {
                    "name": "D4",
                    "midi": 62,
                    "time": 166.7447916666667,
                    "velocity": 0.6299212598425197,
                    "duration": 0.0703125
                },
                {
                    "name": "F4",
                    "midi": 65,
                    "time": 167.00000000000006,
                    "velocity": 0.6299212598425197,
                    "duration": 0.0703125
                },
                {
                    "name": "F5",
                    "midi": 77,
                    "time": 167.00000000000006,
                    "velocity": 0.6299212598425197,
                    "duration": 0.0703125
                },
                {
                    "name": "A#2",
                    "midi": 46,
                    "time": 167.1302083333334,
                    "velocity": 0.6299212598425197,
                    "duration": 0.1328125
                },
                {
                    "name": "G4",
                    "midi": 67,
                    "time": 167.1302083333334,
                    "velocity": 0.6299212598425197,
                    "duration": 0.078125
                },
                {
                    "name": "C#5",
                    "midi": 73,
                    "time": 167.13541666666674,
                    "velocity": 0.6299212598425197,
                    "duration": 0.078125
                },
                {
                    "name": "G5",
                    "midi": 79,
                    "time": 167.13541666666674,
                    "velocity": 0.6299212598425197,
                    "duration": 0.078125
                },
                {
                    "name": "A#1",
                    "midi": 34,
                    "time": 167.1536458333334,
                    "velocity": 0.6299212598425197,
                    "duration": 0.109375
                },
                {
                    "name": "C#4",
                    "midi": 61,
                    "time": 167.3958333333334,
                    "velocity": 0.6299212598425197,
                    "duration": 0.8437500000000284
                },
                {
                    "name": "C#5",
                    "midi": 73,
                    "time": 167.40104166666674,
                    "velocity": 0.6299212598425197,
                    "duration": 0.2526041666666856
                },
                {
                    "name": "D#3",
                    "midi": 51,
                    "time": 167.5286458333334,
                    "velocity": 0.6299212598425197,
                    "duration": 0.11979166666668561
                },
                {
                    "name": "G3",
                    "midi": 55,
                    "time": 167.5286458333334,
                    "velocity": 0.6299212598425197,
                    "duration": 0.11979166666668561
                },
                {
                    "name": "A#3",
                    "midi": 58,
                    "time": 167.53385416666674,
                    "velocity": 0.6299212598425197,
                    "duration": 0.11458333333334281
                },
                {
                    "name": "G4",
                    "midi": 67,
                    "time": 167.81250000000009,
                    "velocity": 0.6299212598425197,
                    "duration": 0.4270833333333428
                },
                {
                    "name": "A#4",
                    "midi": 70,
                    "time": 167.81250000000009,
                    "velocity": 0.6299212598425197,
                    "duration": 0.830729166666714
                },
                {
                    "name": "C#5",
                    "midi": 73,
                    "time": 167.81250000000009,
                    "velocity": 0.6299212598425197,
                    "duration": 0.830729166666714
                },
                {
                    "name": "D#2",
                    "midi": 39,
                    "time": 167.93750000000009,
                    "velocity": 0.6299212598425197,
                    "duration": 0.1536458333333428
                },
                {
                    "name": "D#3",
                    "midi": 51,
                    "time": 168.35416666666677,
                    "velocity": 0.6299212598425197,
                    "duration": 0.11458333333334281
                },
                {
                    "name": "A#3",
                    "midi": 58,
                    "time": 168.3593750000001,
                    "velocity": 0.6299212598425197,
                    "duration": 0.109375
                },
                {
                    "name": "C#4",
                    "midi": 61,
                    "time": 168.3593750000001,
                    "velocity": 0.6299212598425197,
                    "duration": 0.2786458333333428
                },
                {
                    "name": "G3",
                    "midi": 55,
                    "time": 168.36458333333346,
                    "velocity": 0.6299212598425197,
                    "duration": 0.10416666666665719
                },
                {
                    "name": "G2",
                    "midi": 43,
                    "time": 168.7604166666668,
                    "velocity": 0.6299212598425197,
                    "duration": 0.11197916666668561
                },
                {
                    "name": "G3",
                    "midi": 55,
                    "time": 168.7604166666668,
                    "velocity": 0.6299212598425197,
                    "duration": 0.2812500000000284
                },
                {
                    "name": "E4",
                    "midi": 64,
                    "time": 168.76562500000014,
                    "velocity": 0.6299212598425197,
                    "duration": 0.109375
                },
                {
                    "name": "C#5",
                    "midi": 73,
                    "time": 168.76562500000014,
                    "velocity": 0.6299212598425197,
                    "duration": 0.109375
                },
                {
                    "name": "E5",
                    "midi": 76,
                    "time": 168.76562500000014,
                    "velocity": 0.6299212598425197,
                    "duration": 0.109375
                },
                {
                    "name": "F4",
                    "midi": 65,
                    "time": 169.03645833333348,
                    "velocity": 0.6299212598425197,
                    "duration": 0.24218750000002842
                },
                {
                    "name": "C#5",
                    "midi": 73,
                    "time": 169.03645833333348,
                    "velocity": 0.6299212598425197,
                    "duration": 0.24739583333337123
                },
                {
                    "name": "F5",
                    "midi": 77,
                    "time": 169.04166666666683,
                    "velocity": 0.6299212598425197,
                    "duration": 0.24218750000002842
                },
                {
                    "name": "D#3",
                    "midi": 51,
                    "time": 169.15625000000017,
                    "velocity": 0.6299212598425197,
                    "duration": 0.1171875
                },
                {
                    "name": "G3",
                    "midi": 55,
                    "time": 169.1692708333335,
                    "velocity": 0.6299212598425197,
                    "duration": 0.8932291666666856
                },
                {
                    "name": "A#3",
                    "midi": 58,
                    "time": 169.1692708333335,
                    "velocity": 0.6299212598425197,
                    "duration": 0.109375
                },
                {
                    "name": "C#4",
                    "midi": 61,
                    "time": 169.1692708333335,
                    "velocity": 0.6299212598425197,
                    "duration": 0.109375
                },
                {
                    "name": "G4",
                    "midi": 67,
                    "time": 169.42447916666686,
                    "velocity": 0.6299212598425197,
                    "duration": 0.6432291666666856
                },
                {
                    "name": "C#5",
                    "midi": 73,
                    "time": 169.4296875000002,
                    "velocity": 0.6299212598425197,
                    "duration": 0.6380208333333428
                },
                {
                    "name": "D#5",
                    "midi": 75,
                    "time": 169.4296875000002,
                    "velocity": 0.6299212598425197,
                    "duration": 0.6380208333333428
                },
                {
                    "name": "G5",
                    "midi": 79,
                    "time": 169.4296875000002,
                    "velocity": 0.6299212598425197,
                    "duration": 0.6380208333333428
                },
                {
                    "name": "D#2",
                    "midi": 39,
                    "time": 169.55729166666686,
                    "velocity": 0.6299212598425197,
                    "duration": 0.109375
                },
                {
                    "name": "D#3",
                    "midi": 51,
                    "time": 169.9531250000002,
                    "velocity": 0.6299212598425197,
                    "duration": 0.109375
                },
                {
                    "name": "A#3",
                    "midi": 58,
                    "time": 169.9531250000002,
                    "velocity": 0.6299212598425197,
                    "duration": 0.109375
                },
                {
                    "name": "C#4",
                    "midi": 61,
                    "time": 169.9531250000002,
                    "velocity": 0.6299212598425197,
                    "duration": 0.109375
                },
                {
                    "name": "G#2",
                    "midi": 44,
                    "time": 170.22135416666688,
                    "velocity": 0.6299212598425197,
                    "duration": 0.2500000000000284
                },
                {
                    "name": "G#3",
                    "midi": 56,
                    "time": 170.22135416666688,
                    "velocity": 0.6299212598425197,
                    "duration": 0.2500000000000284
                },
                {
                    "name": "F4",
                    "midi": 65,
                    "time": 170.22656250000023,
                    "velocity": 0.6299212598425197,
                    "duration": 2.2630208333334565
                },
                {
                    "name": "C5",
                    "midi": 72,
                    "time": 170.22656250000023,
                    "velocity": 0.6299212598425197,
                    "duration": 2.2630208333334565
                },
                {
                    "name": "F5",
                    "midi": 77,
                    "time": 170.22656250000023,
                    "velocity": 0.6299212598425197,
                    "duration": 2.2682291666667993
                },
                {
                    "name": "D#2",
                    "midi": 39,
                    "time": 170.62500000000026,
                    "velocity": 0.6299212598425197,
                    "duration": 0.11458333333334281
                },
                {
                    "name": "D#3",
                    "midi": 51,
                    "time": 170.6276041666669,
                    "velocity": 0.6299212598425197,
                    "duration": 0.11197916666668561
                },
                {
                    "name": "F2",
                    "midi": 41,
                    "time": 170.7552083333336,
                    "velocity": 0.6299212598425197,
                    "duration": 0.1458333333333428
                },
                {
                    "name": "F3",
                    "midi": 53,
                    "time": 170.76041666666694,
                    "velocity": 0.6299212598425197,
                    "duration": 0.140625
                },
                {
                    "name": "G2",
                    "midi": 43,
                    "time": 171.01562500000028,
                    "velocity": 0.6299212598425197,
                    "duration": 0.1171875
                },
                {
                    "name": "G3",
                    "midi": 55,
                    "time": 171.02864583333363,
                    "velocity": 0.6299212598425197,
                    "duration": 0.10416666666665719
                },
                {
                    "name": "G#2",
                    "midi": 44,
                    "time": 171.14583333333363,
                    "velocity": 0.6299212598425197,
                    "duration": 0.109375
                },
                {
                    "name": "G#3",
                    "midi": 56,
                    "time": 171.15104166666697,
                    "velocity": 0.6299212598425197,
                    "duration": 0.109375
                },
                {
                    "name": "A#2",
                    "midi": 46,
                    "time": 171.4140625000003,
                    "velocity": 0.6299212598425197,
                    "duration": 0.2734375
                },
                {
                    "name": "A#3",
                    "midi": 58,
                    "time": 171.41927083333366,
                    "velocity": 0.6299212598425197,
                    "duration": 0.2708333333333144
                },
                {
                    "name": "B2",
                    "midi": 47,
                    "time": 171.80208333333363,
                    "velocity": 0.6299212598425197,
                    "duration": 0.109375
                },
                {
                    "name": "B3",
                    "midi": 59,
                    "time": 171.80729166666697,
                    "velocity": 0.6299212598425197,
                    "duration": 0.109375
                },
                {
                    "name": "C3",
                    "midi": 48,
                    "time": 171.93489583333366,
                    "velocity": 0.6299212598425197,
                    "duration": 0.1510416666666572
                },
                {
                    "name": "C4",
                    "midi": 60,
                    "time": 171.9375000000003,
                    "velocity": 0.6299212598425197,
                    "duration": 0.1536458333333428
                },
                {
                    "name": "B2",
                    "midi": 47,
                    "time": 172.205729166667,
                    "velocity": 0.6299212598425197,
                    "duration": 0.11458333333334281
                },
                {
                    "name": "B3",
                    "midi": 59,
                    "time": 172.21093750000034,
                    "velocity": 0.6299212598425197,
                    "duration": 0.11458333333334281
                },
                {
                    "name": "C3",
                    "midi": 48,
                    "time": 172.34375000000034,
                    "velocity": 0.6299212598425197,
                    "duration": 0.140625
                },
                {
                    "name": "C4",
                    "midi": 60,
                    "time": 172.34375000000034,
                    "velocity": 0.6299212598425197,
                    "duration": 0.140625
                },
                {
                    "name": "D#3",
                    "midi": 51,
                    "time": 172.62239583333368,
                    "velocity": 0.6299212598425197,
                    "duration": 0.40625
                },
                {
                    "name": "D#4",
                    "midi": 63,
                    "time": 172.62239583333368,
                    "velocity": 0.6299212598425197,
                    "duration": 0.40625
                },
                {
                    "name": "D#5",
                    "midi": 75,
                    "time": 173.02343750000034,
                    "velocity": 0.6299212598425197,
                    "duration": 0.11458333333334281
                },
                {
                    "name": "D#6",
                    "midi": 87,
                    "time": 173.02343750000034,
                    "velocity": 0.6299212598425197,
                    "duration": 0.11458333333334281
                },
                {
                    "name": "D3",
                    "midi": 50,
                    "time": 173.14322916666703,
                    "velocity": 0.6299212598425197,
                    "duration": 0.15625000000002842
                },
                {
                    "name": "D4",
                    "midi": 62,
                    "time": 173.14843750000037,
                    "velocity": 0.6299212598425197,
                    "duration": 0.15104166666668561
                },
                {
                    "name": "D5",
                    "midi": 74,
                    "time": 173.1536458333337,
                    "velocity": 0.6299212598425197,
                    "duration": 0.15104166666668561
                },
                {
                    "name": "D6",
                    "midi": 86,
                    "time": 173.15885416666706,
                    "velocity": 0.6299212598425197,
                    "duration": 0.1458333333333428
                },
                {
                    "name": "C#3",
                    "midi": 49,
                    "time": 173.4140625000004,
                    "velocity": 0.6299212598425197,
                    "duration": 0.3281250000000284
                },
                {
                    "name": "C#4",
                    "midi": 61,
                    "time": 173.41927083333374,
                    "velocity": 0.6299212598425197,
                    "duration": 0.3229166666666856
                },
                {
                    "name": "D#5",
                    "midi": 75,
                    "time": 173.41927083333374,
                    "velocity": 0.6299212598425197,
                    "duration": 0.109375
                },
                {
                    "name": "D#6",
                    "midi": 87,
                    "time": 173.42447916666708,
                    "velocity": 0.6299212598425197,
                    "duration": 0.109375
                },
                {
                    "name": "C#5",
                    "midi": 73,
                    "time": 173.54687500000043,
                    "velocity": 0.6299212598425197,
                    "duration": 0.5781250000000284
                },
                {
                    "name": "G5",
                    "midi": 79,
                    "time": 173.54687500000043,
                    "velocity": 0.6299212598425197,
                    "duration": 0.5911458333333712
                },
                {
                    "name": "A#5",
                    "midi": 82,
                    "time": 173.54687500000043,
                    "velocity": 0.6299212598425197,
                    "duration": 0.596354166666714
                },
                {
                    "name": "C#6",
                    "midi": 85,
                    "time": 173.54687500000043,
                    "velocity": 0.6299212598425197,
                    "duration": 0.5911458333333712
                },
                {
                    "name": "G3",
                    "midi": 55,
                    "time": 173.78385416666708,
                    "velocity": 0.6299212598425197,
                    "duration": 0.24479166666668561
                },
                {
                    "name": "D#3",
                    "midi": 51,
                    "time": 173.91927083333377,
                    "velocity": 0.6299212598425197,
                    "duration": 0.109375
                },
                {
                    "name": "A#3",
                    "midi": 58,
                    "time": 173.9244791666671,
                    "velocity": 0.6299212598425197,
                    "duration": 0.109375
                },
                {
                    "name": "C#4",
                    "midi": 61,
                    "time": 173.9244791666671,
                    "velocity": 0.6299212598425197,
                    "duration": 0.109375
                },
                {
                    "name": "D#2",
                    "midi": 39,
                    "time": 174.3020833333338,
                    "velocity": 0.6299212598425197,
                    "duration": 0.12239583333334281
                },
                {
                    "name": "A4",
                    "midi": 69,
                    "time": 174.3177083333338,
                    "velocity": 0.6299212598425197,
                    "duration": 0.19010416666668561
                },
                {
                    "name": "A5",
                    "midi": 81,
                    "time": 174.3177083333338,
                    "velocity": 0.6299212598425197,
                    "duration": 0.1614583333333428
                },
                {
                    "name": "C5",
                    "midi": 72,
                    "time": 174.60156250000048,
                    "velocity": 0.6299212598425197,
                    "duration": 0.23437500000002842
                },
                {
                    "name": "G5",
                    "midi": 79,
                    "time": 174.60677083333383,
                    "velocity": 0.6299212598425197,
                    "duration": 0.24218750000002842
                },
                {
                    "name": "C6",
                    "midi": 84,
                    "time": 174.60677083333383,
                    "velocity": 0.6299212598425197,
                    "duration": 0.24218750000002842
                },
                {
                    "name": "D#3",
                    "midi": 51,
                    "time": 174.72135416666717,
                    "velocity": 0.6299212598425197,
                    "duration": 0.109375
                },
                {
                    "name": "G3",
                    "midi": 55,
                    "time": 174.7265625000005,
                    "velocity": 0.6299212598425197,
                    "duration": 0.10416666666665719
                },
                {
                    "name": "A#3",
                    "midi": 58,
                    "time": 174.7265625000005,
                    "velocity": 0.6299212598425197,
                    "duration": 0.10416666666665719
                },
                {
                    "name": "C#4",
                    "midi": 61,
                    "time": 174.7265625000005,
                    "velocity": 0.6299212598425197,
                    "duration": 0.10416666666665719
                },
                {
                    "name": "A#4",
                    "midi": 70,
                    "time": 175.0000000000005,
                    "velocity": 0.6299212598425197,
                    "duration": 1.033854166666714
                },
                {
                    "name": "G5",
                    "midi": 79,
                    "time": 175.00520833333385,
                    "velocity": 0.6299212598425197,
                    "duration": 1.0286458333333712
                },
                {
                    "name": "A#5",
                    "midi": 82,
                    "time": 175.00520833333385,
                    "velocity": 0.6299212598425197,
                    "duration": 1.033854166666714
                },
                {
                    "name": "G2",
                    "midi": 43,
                    "time": 175.1328125000005,
                    "velocity": 0.6299212598425197,
                    "duration": 0.25
                },
                {
                    "name": "G3",
                    "midi": 55,
                    "time": 175.13802083333385,
                    "velocity": 0.6299212598425197,
                    "duration": 0.25
                },
                {
                    "name": "A#2",
                    "midi": 46,
                    "time": 175.5416666666672,
                    "velocity": 0.6299212598425197,
                    "duration": 0.17447916666668561
                },
                {
                    "name": "A#3",
                    "midi": 58,
                    "time": 175.54687500000054,
                    "velocity": 0.6299212598425197,
                    "duration": 0.2109375
                },
                {
                    "name": "G2",
                    "midi": 43,
                    "time": 175.80989583333388,
                    "velocity": 0.6299212598425197,
                    "duration": 0.2109375
                },
                {
                    "name": "G3",
                    "midi": 55,
                    "time": 175.80989583333388,
                    "velocity": 0.6299212598425197,
                    "duration": 0.2109375
                },
                {
                    "name": "D#2",
                    "midi": 39,
                    "time": 176.2083333333339,
                    "velocity": 0.6299212598425197,
                    "duration": 0.07552083333334281
                },
                {
                    "name": "D#3",
                    "midi": 51,
                    "time": 176.21354166666725,
                    "velocity": 0.6299212598425197,
                    "duration": 0.0703125
                },
                {
                    "name": "C#5",
                    "midi": 73,
                    "time": 176.2187500000006,
                    "velocity": 0.6299212598425197,
                    "duration": 0.046875
                },
                {
                    "name": "G5",
                    "midi": 79,
                    "time": 176.2187500000006,
                    "velocity": 0.6299212598425197,
                    "duration": 0.078125
                },
                {
                    "name": "G4",
                    "midi": 67,
                    "time": 176.2500000000006,
                    "velocity": 0.6299212598425197,
                    "duration": 0.046875
                },
                {
                    "name": "F3",
                    "midi": 53,
                    "time": 176.34635416666725,
                    "velocity": 0.6299212598425197,
                    "duration": 0.10677083333334281
                },
                {
                    "name": "F#4",
                    "midi": 66,
                    "time": 176.34635416666725,
                    "velocity": 0.6299212598425197,
                    "duration": 0.10677083333334281
                },
                {
                    "name": "C#5",
                    "midi": 73,
                    "time": 176.3515625000006,
                    "velocity": 0.6299212598425197,
                    "duration": 0.10677083333334281
                },
                {
                    "name": "F#5",
                    "midi": 78,
                    "time": 176.3515625000006,
                    "velocity": 0.6299212598425197,
                    "duration": 0.10677083333334281
                },
                {
                    "name": "F2",
                    "midi": 41,
                    "time": 176.3750000000006,
                    "velocity": 0.6299212598425197,
                    "duration": 0.07291666666665719
                },
                {
                    "name": "G2",
                    "midi": 43,
                    "time": 176.5937500000006,
                    "velocity": 0.6299212598425197,
                    "duration": 0.11458333333334281
                },
                {
                    "name": "G3",
                    "midi": 55,
                    "time": 176.60677083333394,
                    "velocity": 0.6299212598425197,
                    "duration": 0.11458333333334281
                },
                {
                    "name": "G4",
                    "midi": 67,
                    "time": 176.60677083333394,
                    "velocity": 0.6299212598425197,
                    "duration": 0.11458333333334281
                },
                {
                    "name": "C#5",
                    "midi": 73,
                    "time": 176.61197916666728,
                    "velocity": 0.6299212598425197,
                    "duration": 0.109375
                },
                {
                    "name": "G5",
                    "midi": 79,
                    "time": 176.61197916666728,
                    "velocity": 0.6299212598425197,
                    "duration": 0.11458333333334281
                },
                {
                    "name": "G#3",
                    "midi": 56,
                    "time": 176.73177083333397,
                    "velocity": 0.6299212598425197,
                    "duration": 0.2838541666666856
                },
                {
                    "name": "F5",
                    "midi": 77,
                    "time": 176.7369791666673,
                    "velocity": 0.6299212598425197,
                    "duration": 0.5052083333333712
                },
                {
                    "name": "G#2",
                    "midi": 44,
                    "time": 176.7604166666673,
                    "velocity": 0.6299212598425197,
                    "duration": 0.4713541666666856
                },
                {
                    "name": "F4",
                    "midi": 65,
                    "time": 176.76562500000065,
                    "velocity": 0.6299212598425197,
                    "duration": 0.4765625000000284
                },
                {
                    "name": "D#3",
                    "midi": 51,
                    "time": 177.13281250000065,
                    "velocity": 0.6299212598425197,
                    "duration": 0.10416666666668561
                },
                {
                    "name": "G#3",
                    "midi": 56,
                    "time": 177.13281250000065,
                    "velocity": 0.6299212598425197,
                    "duration": 0.10416666666668561
                },
                {
                    "name": "C4",
                    "midi": 60,
                    "time": 177.138020833334,
                    "velocity": 0.6299212598425197,
                    "duration": 0.09895833333334281
                },
                {
                    "name": "F#2",
                    "midi": 42,
                    "time": 177.38802083333402,
                    "velocity": 0.6299212598425197,
                    "duration": 0.2734375000000284
                },
                {
                    "name": "C#3",
                    "midi": 49,
                    "time": 177.39322916666737,
                    "velocity": 0.6299212598425197,
                    "duration": 0.2682291666666856
                },
                {
                    "name": "F#3",
                    "midi": 54,
                    "time": 177.39322916666737,
                    "velocity": 0.6299212598425197,
                    "duration": 0.2734375000000284
                },
                {
                    "name": "A#3",
                    "midi": 58,
                    "time": 177.39322916666737,
                    "velocity": 0.6299212598425197,
                    "duration": 0.2734375000000284
                },
                {
                    "name": "E4",
                    "midi": 64,
                    "time": 177.3984375000007,
                    "velocity": 0.6299212598425197,
                    "duration": 0.2682291666666856
                },
                {
                    "name": "F#4",
                    "midi": 66,
                    "time": 177.3984375000007,
                    "velocity": 0.6299212598425197,
                    "duration": 0.2682291666666856
                },
                {
                    "name": "A#4",
                    "midi": 70,
                    "time": 177.3984375000007,
                    "velocity": 0.6299212598425197,
                    "duration": 0.2682291666666856
                },
                {
                    "name": "C4",
                    "midi": 60,
                    "time": 177.78906250000074,
                    "velocity": 0.6299212598425197,
                    "duration": 0.28645833333337123
                },
                {
                    "name": "C5",
                    "midi": 72,
                    "time": 177.82552083333408,
                    "velocity": 0.6299212598425197,
                    "duration": 0.2500000000000284
                },
                {
                    "name": "F#2",
                    "midi": 42,
                    "time": 177.92447916666742,
                    "velocity": 0.6299212598425197,
                    "duration": 0.3046875000000284
                },
                {
                    "name": "F#3",
                    "midi": 54,
                    "time": 177.92968750000077,
                    "velocity": 0.6299212598425197,
                    "duration": 0.3046875000000284
                },
                {
                    "name": "D#4",
                    "midi": 63,
                    "time": 178.19010416666745,
                    "velocity": 0.6299212598425197,
                    "duration": 0.265625
                },
                {
                    "name": "F4",
                    "midi": 65,
                    "time": 178.19010416666745,
                    "velocity": 0.6299212598425197,
                    "duration": 0.265625
                },
                {
                    "name": "A4",
                    "midi": 69,
                    "time": 178.19010416666745,
                    "velocity": 0.6299212598425197,
                    "duration": 0.2708333333333428
                },
                {
                    "name": "F2",
                    "midi": 41,
                    "time": 178.3125000000008,
                    "velocity": 0.6299212598425197,
                    "duration": 0.13802083333331439
                },
                {
                    "name": "F3",
                    "midi": 53,
                    "time": 178.31510416666745,
                    "velocity": 0.6299212598425197,
                    "duration": 0.140625
                },
                {
                    "name": "A3",
                    "midi": 57,
                    "time": 178.31510416666745,
                    "velocity": 0.6299212598425197,
                    "duration": 0.140625
                },
                {
                    "name": "C3",
                    "midi": 48,
                    "time": 178.3411458333341,
                    "velocity": 0.6299212598425197,
                    "duration": 0.109375
                },
                {
                    "name": "F4",
                    "midi": 65,
                    "time": 178.57552083333414,
                    "velocity": 0.6299212598425197,
                    "duration": 0.11979166666668561
                },
                {
                    "name": "F5",
                    "midi": 77,
                    "time": 178.58072916666748,
                    "velocity": 0.6299212598425197,
                    "duration": 0.11458333333334281
                },
                {
                    "name": "F#3",
                    "midi": 54,
                    "time": 178.70833333333417,
                    "velocity": 0.6299212598425197,
                    "duration": 0.17447916666668561
                },
                {
                    "name": "A#3",
                    "midi": 58,
                    "time": 178.70833333333417,
                    "velocity": 0.6299212598425197,
                    "duration": 0.17968750000002842
                },
                {
                    "name": "C#4",
                    "midi": 61,
                    "time": 178.70833333333417,
                    "velocity": 0.6299212598425197,
                    "duration": 0.11458333333334281
                },
                {
                    "name": "E4",
                    "midi": 64,
                    "time": 178.70833333333417,
                    "velocity": 0.6299212598425197,
                    "duration": 0.17968750000002842
                },
                {
                    "name": "E5",
                    "midi": 76,
                    "time": 178.7135416666675,
                    "velocity": 0.6299212598425197,
                    "duration": 0.21354166666668561
                },
                {
                    "name": "F4",
                    "midi": 65,
                    "time": 178.97656250000085,
                    "velocity": 0.6299212598425197,
                    "duration": 0.1510416666666572
                },
                {
                    "name": "C5",
                    "midi": 72,
                    "time": 178.97656250000085,
                    "velocity": 0.6299212598425197,
                    "duration": 0.04947916666665719
                },
                {
                    "name": "F5",
                    "midi": 77,
                    "time": 178.97656250000085,
                    "velocity": 0.6299212598425197,
                    "duration": 0.1171875
                },
                {
                    "name": "C3",
                    "midi": 48,
                    "time": 179.1119791666675,
                    "velocity": 0.6299212598425197,
                    "duration": 0.109375
                },
                {
                    "name": "G3",
                    "midi": 55,
                    "time": 179.1119791666675,
                    "velocity": 0.6299212598425197,
                    "duration": 0.3567708333333428
                },
                {
                    "name": "D#4",
                    "midi": 63,
                    "time": 179.1119791666675,
                    "velocity": 0.6299212598425197,
                    "duration": 0.11458333333334281
                },
                {
                    "name": "A4",
                    "midi": 69,
                    "time": 179.11718750000085,
                    "velocity": 0.6299212598425197,
                    "duration": 0.109375
                },
                {
                    "name": "C5",
                    "midi": 72,
                    "time": 179.11718750000085,
                    "velocity": 0.6299212598425197,
                    "duration": 0.109375
                },
                {
                    "name": "D#5",
                    "midi": 75,
                    "time": 179.11718750000085,
                    "velocity": 0.6299212598425197,
                    "duration": 0.11458333333334281
                },
                {
                    "name": "A#4",
                    "midi": 70,
                    "time": 179.3880208333342,
                    "velocity": 0.6299212598425197,
                    "duration": 0.11197916666665719
                },
                {
                    "name": "A#5",
                    "midi": 82,
                    "time": 179.4270833333342,
                    "velocity": 0.6299212598425197,
                    "duration": 0.07552083333331439
                },
                {
                    "name": "F3",
                    "midi": 53,
                    "time": 179.51562500000085,
                    "velocity": 0.6299212598425197,
                    "duration": 0.12239583333334281
                },
                {
                    "name": "A3",
                    "midi": 57,
                    "time": 179.51562500000085,
                    "velocity": 0.6299212598425197,
                    "duration": 0.12239583333334281
                },
                {
                    "name": "C4",
                    "midi": 60,
                    "time": 179.51562500000085,
                    "velocity": 0.6299212598425197,
                    "duration": 0.12239583333334281
                },
                {
                    "name": "D#4",
                    "midi": 63,
                    "time": 179.51562500000085,
                    "velocity": 0.6299212598425197,
                    "duration": 0.12239583333334281
                },
                {
                    "name": "A4",
                    "midi": 69,
                    "time": 179.51562500000085,
                    "velocity": 0.6299212598425197,
                    "duration": 0.1614583333333428
                },
                {
                    "name": "A#4",
                    "midi": 70,
                    "time": 179.79947916666754,
                    "velocity": 0.6299212598425197,
                    "duration": 0.11979166666668561
                },
                {
                    "name": "F5",
                    "midi": 77,
                    "time": 179.79947916666754,
                    "velocity": 0.6299212598425197,
                    "duration": 0.05989583333334281
                },
                {
                    "name": "A#5",
                    "midi": 82,
                    "time": 179.79947916666754,
                    "velocity": 0.6299212598425197,
                    "duration": 0.12500000000002842
                },
                {
                    "name": "C#2",
                    "midi": 37,
                    "time": 179.92447916666757,
                    "velocity": 0.6299212598425197,
                    "duration": 0.11458333333334281
                },
                {
                    "name": "C#3",
                    "midi": 49,
                    "time": 179.9296875000009,
                    "velocity": 0.6299212598425197,
                    "duration": 0.7265625000000284
                },
                {
                    "name": "G#4",
                    "midi": 68,
                    "time": 179.93489583333425,
                    "velocity": 0.6299212598425197,
                    "duration": 0.23958333333331439
                },
                {
                    "name": "F5",
                    "midi": 77,
                    "time": 179.93489583333425,
                    "velocity": 0.6299212598425197,
                    "duration": 0.2526041666666572
                },
                {
                    "name": "G#5",
                    "midi": 80,
                    "time": 179.93489583333425,
                    "velocity": 0.6299212598425197,
                    "duration": 0.2552083333333144
                },
                {
                    "name": "A#3",
                    "midi": 58,
                    "time": 180.32291666666757,
                    "velocity": 0.6299212598425197,
                    "duration": 0.11197916666668561
                },
                {
                    "name": "C#4",
                    "midi": 61,
                    "time": 180.3281250000009,
                    "velocity": 0.6299212598425197,
                    "duration": 0.10677083333334281
                },
                {
                    "name": "G4",
                    "midi": 67,
                    "time": 180.3281250000009,
                    "velocity": 0.6299212598425197,
                    "duration": 0.13541666666668561
                },
                {
                    "name": "G5",
                    "midi": 79,
                    "time": 180.3281250000009,
                    "velocity": 0.6299212598425197,
                    "duration": 0.14062500000002842
                },
                {
                    "name": "F4",
                    "midi": 65,
                    "time": 180.58333333333428,
                    "velocity": 0.6299212598425197,
                    "duration": 0.109375
                },
                {
                    "name": "F5",
                    "midi": 77,
                    "time": 180.58333333333428,
                    "velocity": 0.6299212598425197,
                    "duration": 0.11458333333334281
                },
                {
                    "name": "D2",
                    "midi": 38,
                    "time": 180.70312500000097,
                    "velocity": 0.6299212598425197,
                    "duration": 0.10937500000002842
                },
                {
                    "name": "D3",
                    "midi": 50,
                    "time": 180.7083333333343,
                    "velocity": 0.6299212598425197,
                    "duration": 0.690104166666714
                },
                {
                    "name": "A#4",
                    "midi": 70,
                    "time": 180.7083333333343,
                    "velocity": 0.6299212598425197,
                    "duration": 0.18229166666668561
                },
                {
                    "name": "A#5",
                    "midi": 82,
                    "time": 180.71354166666765,
                    "velocity": 0.6299212598425197,
                    "duration": 0.1770833333333428
                },
                {
                    "name": "G#4",
                    "midi": 68,
                    "time": 180.976562500001,
                    "velocity": 0.6299212598425197,
                    "duration": 0.109375
                },
                {
                    "name": "G#5",
                    "midi": 80,
                    "time": 180.976562500001,
                    "velocity": 0.6299212598425197,
                    "duration": 0.11458333333334281
                },
                {
                    "name": "F3",
                    "midi": 53,
                    "time": 181.09635416666768,
                    "velocity": 0.6299212598425197,
                    "duration": 0.109375
                },
                {
                    "name": "G#3",
                    "midi": 56,
                    "time": 181.09635416666768,
                    "velocity": 0.6299212598425197,
                    "duration": 0.11458333333334281
                },
                {
                    "name": "B3",
                    "midi": 59,
                    "time": 181.10156250000102,
                    "velocity": 0.6299212598425197,
                    "duration": 0.10416666666665719
                },
                {
                    "name": "D4",
                    "midi": 62,
                    "time": 181.10156250000102,
                    "velocity": 0.6299212598425197,
                    "duration": 0.10416666666665719
                },
                {
                    "name": "G4",
                    "midi": 67,
                    "time": 181.10156250000102,
                    "velocity": 0.6299212598425197,
                    "duration": 0.140625
                },
                {
                    "name": "G5",
                    "midi": 79,
                    "time": 181.10156250000102,
                    "velocity": 0.6299212598425197,
                    "duration": 0.1458333333333428
                },
                {
                    "name": "F4",
                    "midi": 65,
                    "time": 181.35156250000102,
                    "velocity": 0.6299212598425197,
                    "duration": 0.125
                },
                {
                    "name": "F5",
                    "midi": 77,
                    "time": 181.35677083333437,
                    "velocity": 0.6299212598425197,
                    "duration": 0.11458333333331439
                },
                {
                    "name": "D#3",
                    "midi": 51,
                    "time": 181.48177083333437,
                    "velocity": 0.6299212598425197,
                    "duration": 0.2109375
                },
                {
                    "name": "C4",
                    "midi": 60,
                    "time": 181.48177083333437,
                    "velocity": 0.6299212598425197,
                    "duration": 0.2109375
                },
                {
                    "name": "G#4",
                    "midi": 68,
                    "time": 181.4869791666677,
                    "velocity": 0.6299212598425197,
                    "duration": 0.21875
                },
                {
                    "name": "C5",
                    "midi": 72,
                    "time": 181.4869791666677,
                    "velocity": 0.6299212598425197,
                    "duration": 0.21875
                },
                {
                    "name": "D#5",
                    "midi": 75,
                    "time": 181.4869791666677,
                    "velocity": 0.6299212598425197,
                    "duration": 0.21875
                },
                {
                    "name": "G#5",
                    "midi": 80,
                    "time": 181.4869791666677,
                    "velocity": 0.6299212598425197,
                    "duration": 0.21875
                },
                {
                    "name": "C#3",
                    "midi": 49,
                    "time": 181.8776041666677,
                    "velocity": 0.6299212598425197,
                    "duration": 0.2604166666666856
                },
                {
                    "name": "A#3",
                    "midi": 58,
                    "time": 181.89062500000105,
                    "velocity": 0.6299212598425197,
                    "duration": 0.2526041666666856
                },
                {
                    "name": "G4",
                    "midi": 67,
                    "time": 181.89062500000105,
                    "velocity": 0.6299212598425197,
                    "duration": 0.078125
                },
                {
                    "name": "C5",
                    "midi": 72,
                    "time": 181.89062500000105,
                    "velocity": 0.6299212598425197,
                    "duration": 0.078125
                },
                {
                    "name": "D#5",
                    "midi": 75,
                    "time": 181.8958333333344,
                    "velocity": 0.6299212598425197,
                    "duration": 0.07291666666665719
                },
                {
                    "name": "G5",
                    "midi": 79,
                    "time": 181.8958333333344,
                    "velocity": 0.6299212598425197,
                    "duration": 0.07291666666665719
                },
                {
                    "name": "F4",
                    "midi": 65,
                    "time": 182.1614583333344,
                    "velocity": 0.6299212598425197,
                    "duration": 0.6588541666666572
                },
                {
                    "name": "C5",
                    "midi": 72,
                    "time": 182.1614583333344,
                    "velocity": 0.6299212598425197,
                    "duration": 0.6588541666666572
                },
                {
                    "name": "D#5",
                    "midi": 75,
                    "time": 182.1614583333344,
                    "velocity": 0.6299212598425197,
                    "duration": 0.6588541666666572
                },
                {
                    "name": "F5",
                    "midi": 77,
                    "time": 182.1614583333344,
                    "velocity": 0.6299212598425197,
                    "duration": 0.6588541666666572
                },
                {
                    "name": "C3",
                    "midi": 48,
                    "time": 182.29687500000105,
                    "velocity": 0.6299212598425197,
                    "duration": 0.2109375
                },
                {
                    "name": "A3",
                    "midi": 57,
                    "time": 182.29687500000105,
                    "velocity": 0.6299212598425197,
                    "duration": 0.2109375
                },
                {
                    "name": "F3",
                    "midi": 53,
                    "time": 182.71093750000105,
                    "velocity": 0.6299212598425197,
                    "duration": 0.10416666666665719
                },
                {
                    "name": "A3",
                    "midi": 57,
                    "time": 182.71093750000105,
                    "velocity": 0.6299212598425197,
                    "duration": 0.109375
                },
                {
                    "name": "C4",
                    "midi": 60,
                    "time": 182.71093750000105,
                    "velocity": 0.6299212598425197,
                    "duration": 0.109375
                },
                {
                    "name": "D#4",
                    "midi": 63,
                    "time": 182.71093750000105,
                    "velocity": 0.6299212598425197,
                    "duration": 0.109375
                },
                {
                    "name": "C#3",
                    "midi": 49,
                    "time": 182.9739583333344,
                    "velocity": 0.6299212598425197,
                    "duration": 0.109375
                },
                {
                    "name": "C#4",
                    "midi": 61,
                    "time": 182.9739583333344,
                    "velocity": 0.6299212598425197,
                    "duration": 0.11458333333334281
                },
                {
                    "name": "D3",
                    "midi": 50,
                    "time": 183.10677083333442,
                    "velocity": 0.6299212598425197,
                    "duration": 0.2682291666666572
                },
                {
                    "name": "D4",
                    "midi": 62,
                    "time": 183.11197916666777,
                    "velocity": 0.6299212598425197,
                    "duration": 0.2682291666666572
                },
                {
                    "name": "A#4",
                    "midi": 70,
                    "time": 183.11197916666777,
                    "velocity": 0.6299212598425197,
                    "duration": 0.09635416666665719
                },
                {
                    "name": "D5",
                    "midi": 74,
                    "time": 183.11197916666777,
                    "velocity": 0.6299212598425197,
                    "duration": 0.1015625
                },
                {
                    "name": "F5",
                    "midi": 77,
                    "time": 183.11197916666777,
                    "velocity": 0.6299212598425197,
                    "duration": 0.1015625
                },
                {
                    "name": "A#5",
                    "midi": 82,
                    "time": 183.11197916666777,
                    "velocity": 0.6299212598425197,
                    "duration": 0.1015625
                },
                {
                    "name": "G#4",
                    "midi": 68,
                    "time": 183.37239583333442,
                    "velocity": 0.6299212598425197,
                    "duration": 0.20052083333331439
                },
                {
                    "name": "D5",
                    "midi": 74,
                    "time": 183.37239583333442,
                    "velocity": 0.6299212598425197,
                    "duration": 0.20052083333331439
                },
                {
                    "name": "F5",
                    "midi": 77,
                    "time": 183.37239583333442,
                    "velocity": 0.6299212598425197,
                    "duration": 0.20052083333331439
                },
                {
                    "name": "G#5",
                    "midi": 80,
                    "time": 183.37239583333442,
                    "velocity": 0.6299212598425197,
                    "duration": 0.20052083333331439
                },
                {
                    "name": "F3",
                    "midi": 53,
                    "time": 183.49739583333442,
                    "velocity": 0.6299212598425197,
                    "duration": 0.21614583333331439
                },
                {
                    "name": "A#3",
                    "midi": 58,
                    "time": 183.49739583333442,
                    "velocity": 0.6299212598425197,
                    "duration": 0.21614583333331439
                },
                {
                    "name": "D4",
                    "midi": 62,
                    "time": 183.50000000000108,
                    "velocity": 0.6299212598425197,
                    "duration": 0.2135416666666572
                },
                {
                    "name": "F4",
                    "midi": 65,
                    "time": 183.7630208333344,
                    "velocity": 0.6299212598425197,
                    "duration": 0.11458333333334281
                },
                {
                    "name": "C#5",
                    "midi": 73,
                    "time": 183.7630208333344,
                    "velocity": 0.6299212598425197,
                    "duration": 0.049479166666685614
                },
                {
                    "name": "F5",
                    "midi": 77,
                    "time": 183.76822916666774,
                    "velocity": 0.6299212598425197,
                    "duration": 0.11458333333334281
                },
                {
                    "name": "D#3",
                    "midi": 51,
                    "time": 183.89583333333442,
                    "velocity": 0.6299212598425197,
                    "duration": 0.1458333333333428
                },
                {
                    "name": "G3",
                    "midi": 55,
                    "time": 183.89583333333442,
                    "velocity": 0.6299212598425197,
                    "duration": 0.1458333333333428
                },
                {
                    "name": "A#3",
                    "midi": 58,
                    "time": 183.89583333333442,
                    "velocity": 0.6299212598425197,
                    "duration": 0.1458333333333428
                },
                {
                    "name": "C#4",
                    "midi": 61,
                    "time": 183.90104166666777,
                    "velocity": 0.6299212598425197,
                    "duration": 0.140625
                },
                {
                    "name": "D#4",
                    "midi": 63,
                    "time": 183.90104166666777,
                    "velocity": 0.6299212598425197,
                    "duration": 0.140625
                },
                {
                    "name": "C#5",
                    "midi": 73,
                    "time": 183.90104166666777,
                    "velocity": 0.6299212598425197,
                    "duration": 0.140625
                },
                {
                    "name": "D#5",
                    "midi": 75,
                    "time": 183.90104166666777,
                    "velocity": 0.6299212598425197,
                    "duration": 0.1458333333333428
                },
                {
                    "name": "E4",
                    "midi": 64,
                    "time": 184.16927083333445,
                    "velocity": 0.6299212598425197,
                    "duration": 0.08072916666665719
                },
                {
                    "name": "C#5",
                    "midi": 73,
                    "time": 184.16927083333445,
                    "velocity": 0.6299212598425197,
                    "duration": 0.0546875
                },
                {
                    "name": "E5",
                    "midi": 76,
                    "time": 184.16927083333445,
                    "velocity": 0.6299212598425197,
                    "duration": 0.08333333333331439
                },
                {
                    "name": "D#2",
                    "midi": 39,
                    "time": 184.3046875000011,
                    "velocity": 0.6299212598425197,
                    "duration": 0.21093750000002842
                },
                {
                    "name": "G2",
                    "midi": 43,
                    "time": 184.3046875000011,
                    "velocity": 0.6299212598425197,
                    "duration": 0.21093750000002842
                },
                {
                    "name": "A#2",
                    "midi": 46,
                    "time": 184.3046875000011,
                    "velocity": 0.6299212598425197,
                    "duration": 0.21614583333337123
                },
                {
                    "name": "D#3",
                    "midi": 51,
                    "time": 184.3046875000011,
                    "velocity": 0.6299212598425197,
                    "duration": 0.21614583333337123
                },
                {
                    "name": "F4",
                    "midi": 65,
                    "time": 184.30989583333445,
                    "velocity": 0.6299212598425197,
                    "duration": 0.1380208333333428
                },
                {
                    "name": "C#5",
                    "midi": 73,
                    "time": 184.30989583333445,
                    "velocity": 0.6299212598425197,
                    "duration": 0.1380208333333428
                },
                {
                    "name": "F5",
                    "midi": 77,
                    "time": 184.30989583333445,
                    "velocity": 0.6299212598425197,
                    "duration": 0.1380208333333428
                },
                {
                    "name": "G4",
                    "midi": 67,
                    "time": 184.57031250000114,
                    "velocity": 0.6299212598425197,
                    "duration": 0.0859375
                },
                {
                    "name": "D#5",
                    "midi": 75,
                    "time": 184.57552083333448,
                    "velocity": 0.6299212598425197,
                    "duration": 0.0546875
                },
                {
                    "name": "G5",
                    "midi": 79,
                    "time": 184.57552083333448,
                    "velocity": 0.6299212598425197,
                    "duration": 0.09375
                },
                {
                    "name": "D#5",
                    "midi": 75,
                    "time": 184.69791666666782,
                    "velocity": 0.6299212598425197,
                    "duration": 0.11718750000002842
                },
                {
                    "name": "G#2",
                    "midi": 44,
                    "time": 184.70312500000117,
                    "velocity": 0.6299212598425197,
                    "duration": 0.14322916666668561
                },
                {
                    "name": "C3",
                    "midi": 48,
                    "time": 184.70312500000117,
                    "velocity": 0.6299212598425197,
                    "duration": 0.14322916666668561
                },
                {
                    "name": "D#3",
                    "midi": 51,
                    "time": 184.70312500000117,
                    "velocity": 0.6299212598425197,
                    "duration": 0.14322916666668561
                },
                {
                    "name": "G#4",
                    "midi": 68,
                    "time": 184.7083333333345,
                    "velocity": 0.6299212598425197,
                    "duration": 0.10677083333334281
                },
                {
                    "name": "F#5",
                    "midi": 78,
                    "time": 184.7083333333345,
                    "velocity": 0.6299212598425197,
                    "duration": 0.10677083333334281
                },
                {
                    "name": "G#5",
                    "midi": 80,
                    "time": 184.7083333333345,
                    "velocity": 0.6299212598425197,
                    "duration": 0.10677083333334281
                },
                {
                    "name": "G#3",
                    "midi": 56,
                    "time": 184.7395833333345,
                    "velocity": 0.6299212598425197,
                    "duration": 0.10677083333334281
                },
                {
                    "name": "C5",
                    "midi": 72,
                    "time": 184.74479166666785,
                    "velocity": 0.6299212598425197,
                    "duration": 0.0703125
                },
                {
                    "name": "F#2",
                    "midi": 42,
                    "time": 184.95572916666785,
                    "velocity": 0.6299212598425197,
                    "duration": 0.07291666666668561
                },
                {
                    "name": "F#3",
                    "midi": 54,
                    "time": 184.9609375000012,
                    "velocity": 0.6299212598425197,
                    "duration": 0.06770833333334281
                },
                {
                    "name": "G#5",
                    "midi": 80,
                    "time": 184.9609375000012,
                    "velocity": 0.6299212598425197,
                    "duration": 0.07291666666668561
                },
                {
                    "name": "E2",
                    "midi": 40,
                    "time": 185.08333333333454,
                    "velocity": 0.6299212598425197,
                    "duration": 0.109375
                },
                {
                    "name": "G#2",
                    "midi": 44,
                    "time": 185.08333333333454,
                    "velocity": 0.6299212598425197,
                    "duration": 0.109375
                },
                {
                    "name": "B2",
                    "midi": 47,
                    "time": 185.08333333333454,
                    "velocity": 0.6299212598425197,
                    "duration": 0.109375
                },
                {
                    "name": "E3",
                    "midi": 52,
                    "time": 185.08333333333454,
                    "velocity": 0.6299212598425197,
                    "duration": 0.109375
                },
                {
                    "name": "C#5",
                    "midi": 73,
                    "time": 185.08854166666788,
                    "velocity": 0.6299212598425197,
                    "duration": 0.109375
                },
                {
                    "name": "G5",
                    "midi": 79,
                    "time": 185.08854166666788,
                    "velocity": 0.6299212598425197,
                    "duration": 0.109375
                },
                {
                    "name": "A#5",
                    "midi": 82,
                    "time": 185.08854166666788,
                    "velocity": 0.6299212598425197,
                    "duration": 0.109375
                },
                {
                    "name": "C#6",
                    "midi": 85,
                    "time": 185.08854166666788,
                    "velocity": 0.6299212598425197,
                    "duration": 0.11458333333334281
                },
                {
                    "name": "E2",
                    "midi": 40,
                    "time": 185.33854166666788,
                    "velocity": 0.6299212598425197,
                    "duration": 0.05208333333334281
                },
                {
                    "name": "G#2",
                    "midi": 44,
                    "time": 185.33854166666788,
                    "velocity": 0.6299212598425197,
                    "duration": 0.05208333333334281
                },
                {
                    "name": "B2",
                    "midi": 47,
                    "time": 185.34375000000122,
                    "velocity": 0.6299212598425197,
                    "duration": 0.046875
                },
                {
                    "name": "E3",
                    "midi": 52,
                    "time": 185.34375000000122,
                    "velocity": 0.6299212598425197,
                    "duration": 0.05208333333334281
                },
                {
                    "name": "C#5",
                    "midi": 73,
                    "time": 185.34375000000122,
                    "velocity": 0.6299212598425197,
                    "duration": 0.046875
                },
                {
                    "name": "G5",
                    "midi": 79,
                    "time": 185.34375000000122,
                    "velocity": 0.6299212598425197,
                    "duration": 0.05208333333334281
                },
                {
                    "name": "A#5",
                    "midi": 82,
                    "time": 185.34895833333456,
                    "velocity": 0.6299212598425197,
                    "duration": 0.05208333333334281
                },
                {
                    "name": "C#6",
                    "midi": 85,
                    "time": 185.34895833333456,
                    "velocity": 0.6299212598425197,
                    "duration": 0.046875
                },
                {
                    "name": "E2",
                    "midi": 40,
                    "time": 185.46093750000125,
                    "velocity": 0.6299212598425197,
                    "duration": 0.12500000000002842
                },
                {
                    "name": "G#2",
                    "midi": 44,
                    "time": 185.4661458333346,
                    "velocity": 0.6299212598425197,
                    "duration": 0.11979166666668561
                },
                {
                    "name": "B2",
                    "midi": 47,
                    "time": 185.4661458333346,
                    "velocity": 0.6299212598425197,
                    "duration": 0.11979166666668561
                },
                {
                    "name": "E3",
                    "midi": 52,
                    "time": 185.4661458333346,
                    "velocity": 0.6299212598425197,
                    "duration": 0.11979166666668561
                },
                {
                    "name": "C#5",
                    "midi": 73,
                    "time": 185.4661458333346,
                    "velocity": 0.6299212598425197,
                    "duration": 0.11979166666668561
                },
                {
                    "name": "G5",
                    "midi": 79,
                    "time": 185.47135416666794,
                    "velocity": 0.6299212598425197,
                    "duration": 0.11979166666668561
                },
                {
                    "name": "A#5",
                    "midi": 82,
                    "time": 185.47135416666794,
                    "velocity": 0.6299212598425197,
                    "duration": 0.11979166666668561
                },
                {
                    "name": "C#6",
                    "midi": 85,
                    "time": 185.47135416666794,
                    "velocity": 0.6299212598425197,
                    "duration": 0.11979166666668561
                },
                {
                    "name": "E2",
                    "midi": 40,
                    "time": 185.73177083333462,
                    "velocity": 0.6299212598425197,
                    "duration": 0.04687500000002842
                },
                {
                    "name": "G#2",
                    "midi": 44,
                    "time": 185.73177083333462,
                    "velocity": 0.6299212598425197,
                    "duration": 0.05208333333337123
                },
                {
                    "name": "B2",
                    "midi": 47,
                    "time": 185.73177083333462,
                    "velocity": 0.6299212598425197,
                    "duration": 0.05208333333337123
                },
                {
                    "name": "E3",
                    "midi": 52,
                    "time": 185.73177083333462,
                    "velocity": 0.6299212598425197,
                    "duration": 0.05208333333337123
                },
                {
                    "name": "C#5",
                    "midi": 73,
                    "time": 185.73697916666796,
                    "velocity": 0.6299212598425197,
                    "duration": 0.04687500000002842
                },
                {
                    "name": "G5",
                    "midi": 79,
                    "time": 185.7421875000013,
                    "velocity": 0.6299212598425197,
                    "duration": 0.04687500000002842
                },
                {
                    "name": "A#5",
                    "midi": 82,
                    "time": 185.7421875000013,
                    "velocity": 0.6299212598425197,
                    "duration": 0.04687500000002842
                },
                {
                    "name": "C#6",
                    "midi": 85,
                    "time": 185.7421875000013,
                    "velocity": 0.6299212598425197,
                    "duration": 0.04687500000002842
                },
                {
                    "name": "E2",
                    "midi": 40,
                    "time": 185.861979166668,
                    "velocity": 0.6299212598425197,
                    "duration": 0.1171875
                },
                {
                    "name": "G#2",
                    "midi": 44,
                    "time": 185.861979166668,
                    "velocity": 0.6299212598425197,
                    "duration": 0.1171875
                },
                {
                    "name": "B2",
                    "midi": 47,
                    "time": 185.861979166668,
                    "velocity": 0.6299212598425197,
                    "duration": 0.1171875
                },
                {
                    "name": "E3",
                    "midi": 52,
                    "time": 185.861979166668,
                    "velocity": 0.6299212598425197,
                    "duration": 0.12239583333334281
                },
                {
                    "name": "C#5",
                    "midi": 73,
                    "time": 185.87500000000134,
                    "velocity": 0.6299212598425197,
                    "duration": 0.109375
                },
                {
                    "name": "G5",
                    "midi": 79,
                    "time": 185.87500000000134,
                    "velocity": 0.6299212598425197,
                    "duration": 0.11458333333334281
                },
                {
                    "name": "A#5",
                    "midi": 82,
                    "time": 185.87500000000134,
                    "velocity": 0.6299212598425197,
                    "duration": 0.11458333333334281
                },
                {
                    "name": "C#6",
                    "midi": 85,
                    "time": 185.87500000000134,
                    "velocity": 0.6299212598425197,
                    "duration": 0.11458333333334281
                },
                {
                    "name": "E2",
                    "midi": 40,
                    "time": 186.13541666666802,
                    "velocity": 0.6299212598425197,
                    "duration": 0.12239583333334281
                },
                {
                    "name": "G#2",
                    "midi": 44,
                    "time": 186.13541666666802,
                    "velocity": 0.6299212598425197,
                    "duration": 0.12239583333334281
                },
                {
                    "name": "B2",
                    "midi": 47,
                    "time": 186.13541666666802,
                    "velocity": 0.6299212598425197,
                    "duration": 0.1171875
                },
                {
                    "name": "E3",
                    "midi": 52,
                    "time": 186.13541666666802,
                    "velocity": 0.6299212598425197,
                    "duration": 0.14843750000005684
                },
                {
                    "name": "C#5",
                    "midi": 73,
                    "time": 186.13541666666802,
                    "velocity": 0.6299212598425197,
                    "duration": 0.12239583333334281
                },
                {
                    "name": "G5",
                    "midi": 79,
                    "time": 186.14843750000136,
                    "velocity": 0.6299212598425197,
                    "duration": 0.11458333333334281
                },
                {
                    "name": "A#5",
                    "midi": 82,
                    "time": 186.14843750000136,
                    "velocity": 0.6299212598425197,
                    "duration": 0.04947916666665719
                },
                {
                    "name": "C#6",
                    "midi": 85,
                    "time": 186.14843750000136,
                    "velocity": 0.6299212598425197,
                    "duration": 0.11458333333334281
                },
                {
                    "name": "F2",
                    "midi": 41,
                    "time": 186.2734375000014,
                    "velocity": 0.6299212598425197,
                    "duration": 0.11458333333334281
                },
                {
                    "name": "F3",
                    "midi": 53,
                    "time": 186.2734375000014,
                    "velocity": 0.6299212598425197,
                    "duration": 1.4973958333333712
                },
                {
                    "name": "D5",
                    "midi": 74,
                    "time": 186.27864583333474,
                    "velocity": 0.6299212598425197,
                    "duration": 0.1536458333333428
                },
                {
                    "name": "G#5",
                    "midi": 80,
                    "time": 186.28385416666808,
                    "velocity": 0.6299212598425197,
                    "duration": 0.1484375
                },
                {
                    "name": "A#5",
                    "midi": 82,
                    "time": 186.28385416666808,
                    "velocity": 0.6299212598425197,
                    "duration": 0.1484375
                },
                {
                    "name": "D6",
                    "midi": 86,
                    "time": 186.28385416666808,
                    "velocity": 0.6299212598425197,
                    "duration": 0.1484375
                },
                {
                    "name": "C5",
                    "midi": 72,
                    "time": 186.55989583333474,
                    "velocity": 0.6299212598425197,
                    "duration": 0.11458333333334281
                },
                {
                    "name": "G#5",
                    "midi": 80,
                    "time": 186.55989583333474,
                    "velocity": 0.6299212598425197,
                    "duration": 0.0546875
                },
                {
                    "name": "C6",
                    "midi": 84,
                    "time": 186.55989583333474,
                    "velocity": 0.6299212598425197,
                    "duration": 0.11458333333334281
                },
                {
                    "name": "G#3",
                    "midi": 56,
                    "time": 186.69010416666808,
                    "velocity": 0.6299212598425197,
                    "duration": 0.11197916666665719
                },
                {
                    "name": "A#3",
                    "midi": 58,
                    "time": 186.69010416666808,
                    "velocity": 0.6299212598425197,
                    "duration": 0.11197916666665719
                },
                {
                    "name": "D4",
                    "midi": 62,
                    "time": 186.69010416666808,
                    "velocity": 0.6299212598425197,
                    "duration": 0.11197916666665719
                },
                {
                    "name": "F4",
                    "midi": 65,
                    "time": 186.69010416666808,
                    "velocity": 0.6299212598425197,
                    "duration": 0.11197916666665719
                },
                {
                    "name": "A#4",
                    "midi": 70,
                    "time": 186.69010416666808,
                    "velocity": 0.6299212598425197,
                    "duration": 0.1171875
                },
                {
                    "name": "G#5",
                    "midi": 80,
                    "time": 186.69010416666808,
                    "velocity": 0.6299212598425197,
                    "duration": 0.1171875
                },
                {
                    "name": "A#5",
                    "midi": 82,
                    "time": 186.69010416666808,
                    "velocity": 0.6299212598425197,
                    "duration": 0.1171875
                },
                {
                    "name": "C5",
                    "midi": 72,
                    "time": 186.96354166666808,
                    "velocity": 0.6299212598425197,
                    "duration": 0.7786458333333428
                },
                {
                    "name": "G#5",
                    "midi": 80,
                    "time": 186.96354166666808,
                    "velocity": 0.6299212598425197,
                    "duration": 0.7786458333333428
                },
                {
                    "name": "C6",
                    "midi": 84,
                    "time": 186.96354166666808,
                    "velocity": 0.6299212598425197,
                    "duration": 0.7786458333333428
                },
                {
                    "name": "A#1",
                    "midi": 34,
                    "time": 187.09895833333474,
                    "velocity": 0.6299212598425197,
                    "duration": 0.11458333333334281
                },
                {
                    "name": "G#3",
                    "midi": 56,
                    "time": 187.50000000000142,
                    "velocity": 0.6299212598425197,
                    "duration": 0.10677083333334281
                },
                {
                    "name": "A#3",
                    "midi": 58,
                    "time": 187.50000000000142,
                    "velocity": 0.6299212598425197,
                    "duration": 0.10677083333334281
                },
                {
                    "name": "D4",
                    "midi": 62,
                    "time": 187.50000000000142,
                    "velocity": 0.6299212598425197,
                    "duration": 0.10677083333334281
                },
                {
                    "name": "F4",
                    "midi": 65,
                    "time": 187.50000000000142,
                    "velocity": 0.6299212598425197,
                    "duration": 0.10677083333334281
                },
                {
                    "name": "A2",
                    "midi": 45,
                    "time": 187.75781250000142,
                    "velocity": 0.6299212598425197,
                    "duration": 0.11197916666668561
                },
                {
                    "name": "F2",
                    "midi": 41,
                    "time": 187.8854166666681,
                    "velocity": 0.6299212598425197,
                    "duration": 0.10677083333334281
                },
                {
                    "name": "D3",
                    "midi": 50,
                    "time": 187.8854166666681,
                    "velocity": 0.6299212598425197,
                    "duration": 1.5494791666667709
                },
                {
                    "name": "D5",
                    "midi": 74,
                    "time": 187.8854166666681,
                    "velocity": 0.6299212598425197,
                    "duration": 0.11197916666668561
                },
                {
                    "name": "A#5",
                    "midi": 82,
                    "time": 187.8854166666681,
                    "velocity": 0.6299212598425197,
                    "duration": 0.11197916666668561
                },
                {
                    "name": "D6",
                    "midi": 86,
                    "time": 187.8854166666681,
                    "velocity": 0.6299212598425197,
                    "duration": 0.11197916666668561
                },
                {
                    "name": "D#5",
                    "midi": 75,
                    "time": 188.1536458333348,
                    "velocity": 0.6299212598425197,
                    "duration": 0.1171875
                },
                {
                    "name": "A#5",
                    "midi": 82,
                    "time": 188.1536458333348,
                    "velocity": 0.6299212598425197,
                    "duration": 0.1171875
                },
                {
                    "name": "D#6",
                    "midi": 87,
                    "time": 188.1536458333348,
                    "velocity": 0.6299212598425197,
                    "duration": 0.1171875
                },
                {
                    "name": "G#3",
                    "midi": 56,
                    "time": 188.28385416666814,
                    "velocity": 0.6299212598425197,
                    "duration": 0.109375
                },
                {
                    "name": "A#3",
                    "midi": 58,
                    "time": 188.28385416666814,
                    "velocity": 0.6299212598425197,
                    "duration": 0.109375
                },
                {
                    "name": "D4",
                    "midi": 62,
                    "time": 188.28385416666814,
                    "velocity": 0.6299212598425197,
                    "duration": 0.109375
                },
                {
                    "name": "F4",
                    "midi": 65,
                    "time": 188.28385416666814,
                    "velocity": 0.6299212598425197,
                    "duration": 0.109375
                },
                {
                    "name": "C5",
                    "midi": 72,
                    "time": 188.28385416666814,
                    "velocity": 0.6299212598425197,
                    "duration": 0.109375
                },
                {
                    "name": "G#5",
                    "midi": 80,
                    "time": 188.28906250000148,
                    "velocity": 0.6299212598425197,
                    "duration": 0.10416666666665719
                },
                {
                    "name": "C6",
                    "midi": 84,
                    "time": 188.28906250000148,
                    "velocity": 0.6299212598425197,
                    "duration": 0.10416666666665719
                },
                {
                    "name": "D5",
                    "midi": 74,
                    "time": 188.54687500000148,
                    "velocity": 0.6299212598425197,
                    "duration": 0.11979166666668561
                },
                {
                    "name": "G#5",
                    "midi": 80,
                    "time": 188.54687500000148,
                    "velocity": 0.6299212598425197,
                    "duration": 0.0546875
                },
                {
                    "name": "D6",
                    "midi": 86,
                    "time": 188.54687500000148,
                    "velocity": 0.6299212598425197,
                    "duration": 0.11458333333334281
                },
                {
                    "name": "A#1",
                    "midi": 34,
                    "time": 188.6796875000015,
                    "velocity": 0.6299212598425197,
                    "duration": 0.11458333333334281
                },
                {
                    "name": "A#4",
                    "midi": 70,
                    "time": 188.68489583333485,
                    "velocity": 0.6299212598425197,
                    "duration": 0.109375
                },
                {
                    "name": "G#5",
                    "midi": 80,
                    "time": 188.68489583333485,
                    "velocity": 0.6299212598425197,
                    "duration": 0.109375
                },
                {
                    "name": "A#5",
                    "midi": 82,
                    "time": 188.68489583333485,
                    "velocity": 0.6299212598425197,
                    "duration": 0.109375
                },
                {
                    "name": "G#5",
                    "midi": 80,
                    "time": 188.9453125000015,
                    "velocity": 0.6299212598425197,
                    "duration": 0.0546875
                },
                {
                    "name": "B5",
                    "midi": 83,
                    "time": 188.9453125000015,
                    "velocity": 0.6299212598425197,
                    "duration": 0.12239583333334281
                },
                {
                    "name": "B4",
                    "midi": 71,
                    "time": 188.98958333333485,
                    "velocity": 0.6299212598425197,
                    "duration": 0.078125
                },
                {
                    "name": "A#3",
                    "midi": 58,
                    "time": 189.0807291666682,
                    "velocity": 0.6299212598425197,
                    "duration": 0.11458333333334281
                },
                {
                    "name": "F4",
                    "midi": 65,
                    "time": 189.0807291666682,
                    "velocity": 0.6299212598425197,
                    "duration": 0.11458333333334281
                },
                {
                    "name": "C5",
                    "midi": 72,
                    "time": 189.0807291666682,
                    "velocity": 0.6299212598425197,
                    "duration": 0.11458333333334281
                },
                {
                    "name": "G#5",
                    "midi": 80,
                    "time": 189.0807291666682,
                    "velocity": 0.6299212598425197,
                    "duration": 0.109375
                },
                {
                    "name": "G#3",
                    "midi": 56,
                    "time": 189.08593750000153,
                    "velocity": 0.6299212598425197,
                    "duration": 0.109375
                },
                {
                    "name": "D4",
                    "midi": 62,
                    "time": 189.08593750000153,
                    "velocity": 0.6299212598425197,
                    "duration": 0.109375
                },
                {
                    "name": "C6",
                    "midi": 84,
                    "time": 189.08593750000153,
                    "velocity": 0.6299212598425197,
                    "duration": 0.10416666666665719
                },
                {
                    "name": "C#5",
                    "midi": 73,
                    "time": 189.34895833333488,
                    "velocity": 0.6299212598425197,
                    "duration": 0.12239583333334281
                },
                {
                    "name": "G5",
                    "midi": 79,
                    "time": 189.34895833333488,
                    "velocity": 0.6299212598425197,
                    "duration": 0.0859375
                },
                {
                    "name": "A#5",
                    "midi": 82,
                    "time": 189.34895833333488,
                    "velocity": 0.6299212598425197,
                    "duration": 0.0546875
                },
                {
                    "name": "C#6",
                    "midi": 85,
                    "time": 189.34895833333488,
                    "velocity": 0.6299212598425197,
                    "duration": 0.12760416666668561
                },
                {
                    "name": "D5",
                    "midi": 74,
                    "time": 189.4895833333349,
                    "velocity": 0.6299212598425197,
                    "duration": 0.109375
                },
                {
                    "name": "G5",
                    "midi": 79,
                    "time": 189.4895833333349,
                    "velocity": 0.6299212598425197,
                    "duration": 0.109375
                },
                {
                    "name": "A#5",
                    "midi": 82,
                    "time": 189.4895833333349,
                    "velocity": 0.6299212598425197,
                    "duration": 0.109375
                },
                {
                    "name": "D6",
                    "midi": 86,
                    "time": 189.4895833333349,
                    "velocity": 0.6299212598425197,
                    "duration": 0.109375
                },
                {
                    "name": "D#2",
                    "midi": 39,
                    "time": 189.49479166666825,
                    "velocity": 0.6299212598425197,
                    "duration": 0.10416666666665719
                },
                {
                    "name": "D#3",
                    "midi": 51,
                    "time": 189.49479166666825,
                    "velocity": 0.6299212598425197,
                    "duration": 0.5104166666666856
                },
                {
                    "name": "C5",
                    "midi": 72,
                    "time": 189.75000000000156,
                    "velocity": 0.6299212598425197,
                    "duration": 0.11718750000002842
                },
                {
                    "name": "G5",
                    "midi": 79,
                    "time": 189.75000000000156,
                    "velocity": 0.6299212598425197,
                    "duration": 0.057291666666685614
                },
                {
                    "name": "C6",
                    "midi": 84,
                    "time": 189.75000000000156,
                    "velocity": 0.6299212598425197,
                    "duration": 0.11197916666668561
                },
                {
                    "name": "A#3",
                    "midi": 58,
                    "time": 189.8906250000016,
                    "velocity": 0.6299212598425197,
                    "duration": 0.109375
                },
                {
                    "name": "D#4",
                    "midi": 63,
                    "time": 189.8906250000016,
                    "velocity": 0.6299212598425197,
                    "duration": 0.11458333333334281
                },
                {
                    "name": "G4",
                    "midi": 67,
                    "time": 189.8906250000016,
                    "velocity": 0.6299212598425197,
                    "duration": 0.109375
                },
                {
                    "name": "A#4",
                    "midi": 70,
                    "time": 189.8906250000016,
                    "velocity": 0.6299212598425197,
                    "duration": 0.11458333333334281
                },
                {
                    "name": "G5",
                    "midi": 79,
                    "time": 189.8906250000016,
                    "velocity": 0.6299212598425197,
                    "duration": 0.109375
                },
                {
                    "name": "A#5",
                    "midi": 82,
                    "time": 189.8906250000016,
                    "velocity": 0.6299212598425197,
                    "duration": 0.109375
                },
                {
                    "name": "C5",
                    "midi": 72,
                    "time": 190.1640625000016,
                    "velocity": 0.6299212598425197,
                    "duration": 1.0234375
                },
                {
                    "name": "G5",
                    "midi": 79,
                    "time": 190.1640625000016,
                    "velocity": 0.6299212598425197,
                    "duration": 1.0234375
                },
                {
                    "name": "A#5",
                    "midi": 82,
                    "time": 190.1640625000016,
                    "velocity": 0.6299212598425197,
                    "duration": 1.0234375
                },
                {
                    "name": "C6",
                    "midi": 84,
                    "time": 190.1640625000016,
                    "velocity": 0.6299212598425197,
                    "duration": 1.0234375
                },
                {
                    "name": "A#3",
                    "midi": 58,
                    "time": 190.29947916666825,
                    "velocity": 0.6299212598425197,
                    "duration": 0.2786458333333428
                },
                {
                    "name": "A#2",
                    "midi": 46,
                    "time": 190.3046875000016,
                    "velocity": 0.6299212598425197,
                    "duration": 0.2734375
                },
                {
                    "name": "D3",
                    "midi": 50,
                    "time": 190.56510416666825,
                    "velocity": 0.6299212598425197,
                    "duration": 0.28125
                },
                {
                    "name": "D4",
                    "midi": 62,
                    "time": 190.56510416666825,
                    "velocity": 0.6299212598425197,
                    "duration": 0.28125
                },
                {
                    "name": "D#3",
                    "midi": 51,
                    "time": 190.9609375000016,
                    "velocity": 0.6299212598425197,
                    "duration": 0.0859375
                },
                {
                    "name": "D#4",
                    "midi": 63,
                    "time": 190.9609375000016,
                    "velocity": 0.6299212598425197,
                    "duration": 0.0859375
                },
                {
                    "name": "F#4",
                    "midi": 66,
                    "time": 191.1015625000016,
                    "velocity": 0.6299212598425197,
                    "duration": 0.0859375
                },
                {
                    "name": "F#3",
                    "midi": 54,
                    "time": 191.10677083333493,
                    "velocity": 0.6299212598425197,
                    "duration": 0.08072916666665719
                },
                {
                    "name": "G4",
                    "midi": 67,
                    "time": 191.3750000000016,
                    "velocity": 0.6299212598425197,
                    "duration": 0.2734375000000284
                },
                {
                    "name": "D#5",
                    "midi": 75,
                    "time": 191.3750000000016,
                    "velocity": 0.6299212598425197,
                    "duration": 0.2734375000000284
                },
                {
                    "name": "G5",
                    "midi": 79,
                    "time": 191.3750000000016,
                    "velocity": 0.6299212598425197,
                    "duration": 0.2734375000000284
                },
                {
                    "name": "A#5",
                    "midi": 82,
                    "time": 191.3750000000016,
                    "velocity": 0.6299212598425197,
                    "duration": 0.2734375000000284
                },
                {
                    "name": "D#6",
                    "midi": 87,
                    "time": 191.3750000000016,
                    "velocity": 0.6299212598425197,
                    "duration": 0.2734375000000284
                },
                {
                    "name": "G3",
                    "midi": 55,
                    "time": 191.38020833333493,
                    "velocity": 0.6299212598425197,
                    "duration": 0.2682291666666856
                },
                {
                    "name": "D#3",
                    "midi": 51,
                    "time": 191.77083333333496,
                    "velocity": 0.6299212598425197,
                    "duration": 0.11458333333334281
                },
                {
                    "name": "D#4",
                    "midi": 63,
                    "time": 191.77083333333496,
                    "velocity": 0.6299212598425197,
                    "duration": 0.11458333333334281
                },
                {
                    "name": "C5",
                    "midi": 72,
                    "time": 191.77083333333496,
                    "velocity": 0.6299212598425197,
                    "duration": 0.11458333333334281
                },
                {
                    "name": "G5",
                    "midi": 79,
                    "time": 191.77083333333496,
                    "velocity": 0.6299212598425197,
                    "duration": 0.046875
                },
                {
                    "name": "A#5",
                    "midi": 82,
                    "time": 191.77083333333496,
                    "velocity": 0.6299212598425197,
                    "duration": 0.04166666666665719
                },
                {
                    "name": "C6",
                    "midi": 84,
                    "time": 191.77083333333496,
                    "velocity": 0.6299212598425197,
                    "duration": 0.11458333333334281
                },
                {
                    "name": "D6",
                    "midi": 86,
                    "time": 191.89843750000165,
                    "velocity": 0.6299212598425197,
                    "duration": 0.12500000000002842
                },
                {
                    "name": "D3",
                    "midi": 50,
                    "time": 191.903645833335,
                    "velocity": 0.6299212598425197,
                    "duration": 0.2786458333333428
                },
                {
                    "name": "D5",
                    "midi": 74,
                    "time": 191.903645833335,
                    "velocity": 0.6299212598425197,
                    "duration": 0.11458333333334281
                },
                {
                    "name": "G5",
                    "midi": 79,
                    "time": 191.903645833335,
                    "velocity": 0.6299212598425197,
                    "duration": 0.11458333333334281
                },
                {
                    "name": "A#5",
                    "midi": 82,
                    "time": 191.903645833335,
                    "velocity": 0.6299212598425197,
                    "duration": 0.109375
                },
                {
                    "name": "D4",
                    "midi": 62,
                    "time": 191.94531250000165,
                    "velocity": 0.6299212598425197,
                    "duration": 0.2317708333333428
                },
                {
                    "name": "D#5",
                    "midi": 75,
                    "time": 192.15885416666833,
                    "velocity": 0.6299212598425197,
                    "duration": 0.11458333333334281
                },
                {
                    "name": "D#6",
                    "midi": 87,
                    "time": 192.15885416666833,
                    "velocity": 0.6299212598425197,
                    "duration": 0.11458333333334281
                },
                {
                    "name": "G5",
                    "midi": 79,
                    "time": 192.29166666666833,
                    "velocity": 0.6299212598425197,
                    "duration": 0.11458333333334281
                },
                {
                    "name": "A#5",
                    "midi": 82,
                    "time": 192.29166666666833,
                    "velocity": 0.6299212598425197,
                    "duration": 0.11458333333334281
                },
                {
                    "name": "D6",
                    "midi": 86,
                    "time": 192.29166666666833,
                    "velocity": 0.6299212598425197,
                    "duration": 0.11458333333334281
                },
                {
                    "name": "C3",
                    "midi": 48,
                    "time": 192.29687500000168,
                    "velocity": 0.6299212598425197,
                    "duration": 0.2864583333333428
                },
                {
                    "name": "C4",
                    "midi": 60,
                    "time": 192.29687500000168,
                    "velocity": 0.6299212598425197,
                    "duration": 0.2864583333333428
                },
                {
                    "name": "D5",
                    "midi": 74,
                    "time": 192.29687500000168,
                    "velocity": 0.6299212598425197,
                    "duration": 0.109375
                },
                {
                    "name": "C5",
                    "midi": 72,
                    "time": 192.57031250000168,
                    "velocity": 0.6299212598425197,
                    "duration": 0.11197916666668561
                },
                {
                    "name": "C6",
                    "midi": 84,
                    "time": 192.57031250000168,
                    "velocity": 0.6299212598425197,
                    "duration": 0.11197916666668561
                },
                {
                    "name": "D6",
                    "midi": 86,
                    "time": 192.69270833333502,
                    "velocity": 0.6299212598425197,
                    "duration": 0.15104166666668561
                },
                {
                    "name": "F3",
                    "midi": 53,
                    "time": 192.69791666666836,
                    "velocity": 0.6299212598425197,
                    "duration": 1.5130208333334565
                },
                {
                    "name": "D5",
                    "midi": 74,
                    "time": 192.69791666666836,
                    "velocity": 0.6299212598425197,
                    "duration": 0.15104166666668561
                },
                {
                    "name": "G#5",
                    "midi": 80,
                    "time": 192.69791666666836,
                    "velocity": 0.6299212598425197,
                    "duration": 0.15104166666668561
                },
                {
                    "name": "F2",
                    "midi": 41,
                    "time": 192.7031250000017,
                    "velocity": 0.6299212598425197,
                    "duration": 0.11458333333334281
                },
                {
                    "name": "C6",
                    "midi": 84,
                    "time": 192.9635416666684,
                    "velocity": 0.6299212598425197,
                    "duration": 0.15625000000002842
                },
                {
                    "name": "C5",
                    "midi": 72,
                    "time": 192.96875000000173,
                    "velocity": 0.6299212598425197,
                    "duration": 0.12239583333334281
                },
                {
                    "name": "G#5",
                    "midi": 80,
                    "time": 192.96875000000173,
                    "velocity": 0.6299212598425197,
                    "duration": 0.0546875
                },
                {
                    "name": "G#3",
                    "midi": 56,
                    "time": 193.10937500000173,
                    "velocity": 0.6299212598425197,
                    "duration": 0.11458333333334281
                },
                {
                    "name": "D4",
                    "midi": 62,
                    "time": 193.10937500000173,
                    "velocity": 0.6299212598425197,
                    "duration": 0.11458333333334281
                },
                {
                    "name": "F4",
                    "midi": 65,
                    "time": 193.10937500000173,
                    "velocity": 0.6299212598425197,
                    "duration": 0.11458333333334281
                },
                {
                    "name": "G#4",
                    "midi": 68,
                    "time": 193.10937500000173,
                    "velocity": 0.6299212598425197,
                    "duration": 0.14322916666668561
                },
                {
                    "name": "D5",
                    "midi": 74,
                    "time": 193.10937500000173,
                    "velocity": 0.6299212598425197,
                    "duration": 0.14322916666668561
                },
                {
                    "name": "G#5",
                    "midi": 80,
                    "time": 193.10937500000173,
                    "velocity": 0.6299212598425197,
                    "duration": 0.14322916666668561
                },
                {
                    "name": "A#3",
                    "midi": 58,
                    "time": 193.11458333333508,
                    "velocity": 0.6299212598425197,
                    "duration": 0.11458333333334281
                },
                {
                    "name": "G5",
                    "midi": 79,
                    "time": 193.36979166666842,
                    "velocity": 0.6299212598425197,
                    "duration": 0.11979166666668561
                },
                {
                    "name": "G4",
                    "midi": 67,
                    "time": 193.37500000000176,
                    "velocity": 0.6299212598425197,
                    "duration": 0.11458333333334281
                },
                {
                    "name": "D5",
                    "midi": 74,
                    "time": 193.50000000000176,
                    "velocity": 0.6299212598425197,
                    "duration": 0.15104166666668561
                },
                {
                    "name": "F5",
                    "midi": 77,
                    "time": 193.50000000000176,
                    "velocity": 0.6299212598425197,
                    "duration": 0.15104166666668561
                },
                {
                    "name": "A#1",
                    "midi": 34,
                    "time": 193.5052083333351,
                    "velocity": 0.6299212598425197,
                    "duration": 0.1171875
                },
                {
                    "name": "G#3",
                    "midi": 56,
                    "time": 193.5052083333351,
                    "velocity": 0.6299212598425197,
                    "duration": 0.11197916666665719
                },
                {
                    "name": "F4",
                    "midi": 65,
                    "time": 193.5052083333351,
                    "velocity": 0.6299212598425197,
                    "duration": 0.15104166666668561
                },
                {
                    "name": "A#4",
                    "midi": 70,
                    "time": 193.77083333333513,
                    "velocity": 0.6299212598425197,
                    "duration": 0.109375
                },
                {
                    "name": "A#5",
                    "midi": 82,
                    "time": 193.77083333333513,
                    "velocity": 0.6299212598425197,
                    "duration": 0.109375
                },
                {
                    "name": "F4",
                    "midi": 65,
                    "time": 193.89322916666848,
                    "velocity": 0.6299212598425197,
                    "duration": 0.11458333333334281
                },
                {
                    "name": "D#5",
                    "midi": 75,
                    "time": 193.89322916666848,
                    "velocity": 0.6299212598425197,
                    "duration": 0.11458333333334281
                },
                {
                    "name": "G#5",
                    "midi": 80,
                    "time": 193.89322916666848,
                    "velocity": 0.6299212598425197,
                    "duration": 0.11458333333334281
                },
                {
                    "name": "D#6",
                    "midi": 87,
                    "time": 193.89322916666848,
                    "velocity": 0.6299212598425197,
                    "duration": 0.11458333333334281
                },
                {
                    "name": "G#3",
                    "midi": 56,
                    "time": 193.89843750000182,
                    "velocity": 0.6299212598425197,
                    "duration": 0.109375
                },
                {
                    "name": "A#3",
                    "midi": 58,
                    "time": 193.89843750000182,
                    "velocity": 0.6299212598425197,
                    "duration": 0.11458333333334281
                },
                {
                    "name": "D4",
                    "midi": 62,
                    "time": 193.89843750000182,
                    "velocity": 0.6299212598425197,
                    "duration": 0.109375
                },
                {
                    "name": "C5",
                    "midi": 72,
                    "time": 194.16145833333516,
                    "velocity": 0.6299212598425197,
                    "duration": 0.08072916666665719
                },
                {
                    "name": "C6",
                    "midi": 84,
                    "time": 194.16145833333516,
                    "velocity": 0.6299212598425197,
                    "duration": 0.08072916666665719
                },
                {
                    "name": "D5",
                    "midi": 74,
                    "time": 194.29687500000182,
                    "velocity": 0.6299212598425197,
                    "duration": 0.07552083333337123
                },
                {
                    "name": "G#5",
                    "midi": 80,
                    "time": 194.29687500000182,
                    "velocity": 0.6299212598425197,
                    "duration": 0.07552083333337123
                },
                {
                    "name": "D6",
                    "midi": 86,
                    "time": 194.29687500000182,
                    "velocity": 0.6299212598425197,
                    "duration": 0.07031250000002842
                },
                {
                    "name": "F2",
                    "midi": 41,
                    "time": 194.30208333333516,
                    "velocity": 0.6299212598425197,
                    "duration": 0.11197916666668561
                },
                {
                    "name": "D3",
                    "midi": 50,
                    "time": 194.30208333333516,
                    "velocity": 0.6299212598425197,
                    "duration": 0.49739583333337123
                },
                {
                    "name": "A#5",
                    "midi": 82,
                    "time": 194.5494791666685,
                    "velocity": 0.6299212598425197,
                    "duration": 0.1171875
                },
                {
                    "name": "A#4",
                    "midi": 70,
                    "time": 194.56250000000185,
                    "velocity": 0.6299212598425197,
                    "duration": 0.109375
                },
                {
                    "name": "D4",
                    "midi": 62,
                    "time": 194.6848958333352,
                    "velocity": 0.6299212598425197,
                    "duration": 0.109375
                },
                {
                    "name": "F4",
                    "midi": 65,
                    "time": 194.6848958333352,
                    "velocity": 0.6299212598425197,
                    "duration": 0.109375
                },
                {
                    "name": "B4",
                    "midi": 71,
                    "time": 194.6848958333352,
                    "velocity": 0.6299212598425197,
                    "duration": 0.109375
                },
                {
                    "name": "G#5",
                    "midi": 80,
                    "time": 194.6848958333352,
                    "velocity": 0.6299212598425197,
                    "duration": 0.109375
                },
                {
                    "name": "B5",
                    "midi": 83,
                    "time": 194.6848958333352,
                    "velocity": 0.6299212598425197,
                    "duration": 0.109375
                },
                {
                    "name": "G#3",
                    "midi": 56,
                    "time": 194.69531250000185,
                    "velocity": 0.6299212598425197,
                    "duration": 0.10416666666668561
                },
                {
                    "name": "A#3",
                    "midi": 58,
                    "time": 194.69531250000185,
                    "velocity": 0.6299212598425197,
                    "duration": 0.10416666666668561
                },
                {
                    "name": "C5",
                    "midi": 72,
                    "time": 194.9505208333352,
                    "velocity": 0.6299212598425197,
                    "duration": 0.7916666666666856
                },
                {
                    "name": "D5",
                    "midi": 74,
                    "time": 194.9505208333352,
                    "velocity": 0.6299212598425197,
                    "duration": 0.7916666666666856
                },
                {
                    "name": "G#5",
                    "midi": 80,
                    "time": 194.9505208333352,
                    "velocity": 0.6299212598425197,
                    "duration": 0.7916666666666856
                },
                {
                    "name": "C6",
                    "midi": 84,
                    "time": 194.9505208333352,
                    "velocity": 0.6299212598425197,
                    "duration": 0.7916666666666856
                },
                {
                    "name": "A#3",
                    "midi": 58,
                    "time": 195.07812500000185,
                    "velocity": 0.6299212598425197,
                    "duration": 0.2682291666666856
                },
                {
                    "name": "A#2",
                    "midi": 46,
                    "time": 195.0833333333352,
                    "velocity": 0.6299212598425197,
                    "duration": 0.09895833333334281
                },
                {
                    "name": "A#3",
                    "midi": 58,
                    "time": 195.46875000000188,
                    "velocity": 0.6299212598425197,
                    "duration": 0.11458333333334281
                },
                {
                    "name": "D4",
                    "midi": 62,
                    "time": 195.46875000000188,
                    "velocity": 0.6299212598425197,
                    "duration": 0.11458333333334281
                },
                {
                    "name": "F4",
                    "midi": 65,
                    "time": 195.46875000000188,
                    "velocity": 0.6299212598425197,
                    "duration": 0.11458333333334281
                },
                {
                    "name": "G#3",
                    "midi": 56,
                    "time": 195.47395833333522,
                    "velocity": 0.6299212598425197,
                    "duration": 0.3046875
                },
                {
                    "name": "D#4",
                    "midi": 63,
                    "time": 195.86458333333522,
                    "velocity": 0.6299212598425197,
                    "duration": 0.2421875
                },
                {
                    "name": "D#5",
                    "midi": 75,
                    "time": 195.86458333333522,
                    "velocity": 0.6299212598425197,
                    "duration": 0.2369791666666572
                },
                {
                    "name": "G5",
                    "midi": 79,
                    "time": 195.86458333333522,
                    "velocity": 0.6299212598425197,
                    "duration": 0.2369791666666572
                },
                {
                    "name": "A#5",
                    "midi": 82,
                    "time": 195.86458333333522,
                    "velocity": 0.6299212598425197,
                    "duration": 0.2369791666666572
                },
                {
                    "name": "D#6",
                    "midi": 87,
                    "time": 195.86458333333522,
                    "velocity": 0.6299212598425197,
                    "duration": 0.2369791666666572
                },
                {
                    "name": "D#3",
                    "midi": 51,
                    "time": 195.86979166666856,
                    "velocity": 0.6299212598425197,
                    "duration": 0.2369791666666572
                },
                {
                    "name": "G3",
                    "midi": 55,
                    "time": 195.86979166666856,
                    "velocity": 0.6299212598425197,
                    "duration": 0.2369791666666572
                },
                {
                    "name": "A3",
                    "midi": 57,
                    "time": 196.52083333333522,
                    "velocity": 0.6299212598425197,
                    "duration": 0.12239583333334281
                },
                {
                    "name": "F#4",
                    "midi": 66,
                    "time": 196.52083333333522,
                    "velocity": 0.6299212598425197,
                    "duration": 0.12239583333334281
                },
                {
                    "name": "A#3",
                    "midi": 58,
                    "time": 196.66145833333522,
                    "velocity": 0.6299212598425197,
                    "duration": 0.2135416666666572
                },
                {
                    "name": "G4",
                    "midi": 67,
                    "time": 196.66145833333522,
                    "velocity": 0.6299212598425197,
                    "duration": 0.2135416666666572
                },
                {
                    "name": "A3",
                    "midi": 57,
                    "time": 196.92968750000188,
                    "velocity": 0.6299212598425197,
                    "duration": 0.11979166666668561
                },
                {
                    "name": "F#4",
                    "midi": 66,
                    "time": 196.92968750000188,
                    "velocity": 0.6299212598425197,
                    "duration": 0.11458333333334281
                },
                {
                    "name": "A#3",
                    "midi": 58,
                    "time": 197.06510416666856,
                    "velocity": 0.6299212598425197,
                    "duration": 0.2994791666666856
                },
                {
                    "name": "G4",
                    "midi": 67,
                    "time": 197.06510416666856,
                    "velocity": 0.6299212598425197,
                    "duration": 0.2942708333333428
                },
                {
                    "name": "C4",
                    "midi": 60,
                    "time": 197.4791666666686,
                    "velocity": 0.6299212598425197,
                    "duration": 0.15104166666668561
                },
                {
                    "name": "D#4",
                    "midi": 63,
                    "time": 197.4791666666686,
                    "velocity": 0.6299212598425197,
                    "duration": 0.15104166666668561
                },
                {
                    "name": "A4",
                    "midi": 69,
                    "time": 197.4791666666686,
                    "velocity": 0.6299212598425197,
                    "duration": 0.15104166666668561
                },
                {
                    "name": "A#4",
                    "midi": 70,
                    "time": 197.75260416666862,
                    "velocity": 0.6299212598425197,
                    "duration": 0.2942708333333428
                },
                {
                    "name": "C#4",
                    "midi": 61,
                    "time": 197.75781250000196,
                    "velocity": 0.6299212598425197,
                    "duration": 0.2890625
                },
                {
                    "name": "D#4",
                    "midi": 63,
                    "time": 197.75781250000196,
                    "velocity": 0.6299212598425197,
                    "duration": 0.2890625
                },
                {
                    "name": "A3",
                    "midi": 57,
                    "time": 198.1614583333353,
                    "velocity": 0.6299212598425197,
                    "duration": 0.11458333333334281
                },
                {
                    "name": "A#3",
                    "midi": 58,
                    "time": 198.2942708333353,
                    "velocity": 0.6299212598425197,
                    "duration": 0.2109375
                },
                {
                    "name": "G4",
                    "midi": 67,
                    "time": 198.2942708333353,
                    "velocity": 0.6299212598425197,
                    "duration": 0.2109375
                },
                {
                    "name": "A3",
                    "midi": 57,
                    "time": 198.56510416666865,
                    "velocity": 0.6299212598425197,
                    "duration": 0.11197916666665719
                },
                {
                    "name": "A#3",
                    "midi": 58,
                    "time": 198.6927083333353,
                    "velocity": 0.6299212598425197,
                    "duration": 0.28125
                },
                {
                    "name": "G4",
                    "midi": 67,
                    "time": 198.6927083333353,
                    "velocity": 0.6299212598425197,
                    "duration": 0.28125
                },
                {
                    "name": "D5",
                    "midi": 74,
                    "time": 199.09635416666862,
                    "velocity": 0.6299212598425197,
                    "duration": 0.140625
                },
                {
                    "name": "G#5",
                    "midi": 80,
                    "time": 199.09635416666862,
                    "velocity": 0.6299212598425197,
                    "duration": 0.140625
                },
                {
                    "name": "A#5",
                    "midi": 82,
                    "time": 199.09635416666862,
                    "velocity": 0.6299212598425197,
                    "duration": 0.140625
                },
                {
                    "name": "D6",
                    "midi": 86,
                    "time": 199.09635416666862,
                    "velocity": 0.6299212598425197,
                    "duration": 0.140625
                },
                {
                    "name": "F2",
                    "midi": 41,
                    "time": 199.10156250000196,
                    "velocity": 0.6299212598425197,
                    "duration": 0.109375
                },
                {
                    "name": "F3",
                    "midi": 53,
                    "time": 199.10156250000196,
                    "velocity": 0.6299212598425197,
                    "duration": 1.4973958333333428
                },
                {
                    "name": "G#5",
                    "midi": 80,
                    "time": 199.35156250000196,
                    "velocity": 0.6299212598425197,
                    "duration": 0.046875
                },
                {
                    "name": "C6",
                    "midi": 84,
                    "time": 199.35156250000196,
                    "velocity": 0.6299212598425197,
                    "duration": 0.11458333333334281
                },
                {
                    "name": "C5",
                    "midi": 72,
                    "time": 199.3567708333353,
                    "velocity": 0.6299212598425197,
                    "duration": 0.109375
                },
                {
                    "name": "A#4",
                    "midi": 70,
                    "time": 199.48437500000196,
                    "velocity": 0.6299212598425197,
                    "duration": 0.11458333333334281
                },
                {
                    "name": "G#5",
                    "midi": 80,
                    "time": 199.48437500000196,
                    "velocity": 0.6299212598425197,
                    "duration": 0.11458333333334281
                },
                {
                    "name": "A#5",
                    "midi": 82,
                    "time": 199.48437500000196,
                    "velocity": 0.6299212598425197,
                    "duration": 0.109375
                },
                {
                    "name": "G#3",
                    "midi": 56,
                    "time": 199.4895833333353,
                    "velocity": 0.6299212598425197,
                    "duration": 0.109375
                },
                {
                    "name": "A#3",
                    "midi": 58,
                    "time": 199.4895833333353,
                    "velocity": 0.6299212598425197,
                    "duration": 0.109375
                },
                {
                    "name": "D4",
                    "midi": 62,
                    "time": 199.4895833333353,
                    "velocity": 0.6299212598425197,
                    "duration": 0.109375
                },
                {
                    "name": "F4",
                    "midi": 65,
                    "time": 199.4895833333353,
                    "velocity": 0.6299212598425197,
                    "duration": 0.109375
                },
                {
                    "name": "B4",
                    "midi": 71,
                    "time": 199.75000000000196,
                    "velocity": 0.6299212598425197,
                    "duration": 0.11197916666665719
                },
                {
                    "name": "B5",
                    "midi": 83,
                    "time": 199.75000000000196,
                    "velocity": 0.6299212598425197,
                    "duration": 0.11197916666665719
                },
                {
                    "name": "C5",
                    "midi": 72,
                    "time": 199.88541666666862,
                    "velocity": 0.6299212598425197,
                    "duration": 0.6093750000000284
                },
                {
                    "name": "D5",
                    "midi": 74,
                    "time": 199.88541666666862,
                    "velocity": 0.6299212598425197,
                    "duration": 0.6093750000000284
                },
                {
                    "name": "G#5",
                    "midi": 80,
                    "time": 199.88541666666862,
                    "velocity": 0.6299212598425197,
                    "duration": 0.6093750000000284
                },
                {
                    "name": "C6",
                    "midi": 84,
                    "time": 199.88541666666862,
                    "velocity": 0.6299212598425197,
                    "duration": 0.6093750000000284
                },
                {
                    "name": "A#1",
                    "midi": 34,
                    "time": 199.89062500000196,
                    "velocity": 0.6299212598425197,
                    "duration": 0.11458333333334281
                },
                {
                    "name": "G#3",
                    "midi": 56,
                    "time": 200.2864583333353,
                    "velocity": 0.6299212598425197,
                    "duration": 0.109375
                },
                {
                    "name": "A#3",
                    "midi": 58,
                    "time": 200.2864583333353,
                    "velocity": 0.6299212598425197,
                    "duration": 0.109375
                },
                {
                    "name": "D4",
                    "midi": 62,
                    "time": 200.2864583333353,
                    "velocity": 0.6299212598425197,
                    "duration": 0.109375
                },
                {
                    "name": "F4",
                    "midi": 65,
                    "time": 200.2864583333353,
                    "velocity": 0.6299212598425197,
                    "duration": 0.109375
                },
                {
                    "name": "F2",
                    "midi": 41,
                    "time": 200.54947916666865,
                    "velocity": 0.6299212598425197,
                    "duration": 0.25
                },
                {
                    "name": "G#3",
                    "midi": 56,
                    "time": 200.67968750000196,
                    "velocity": 0.6299212598425197,
                    "duration": 1.5312500000000853
                },
                {
                    "name": "D5",
                    "midi": 74,
                    "time": 200.67968750000196,
                    "velocity": 0.6299212598425197,
                    "duration": 0.07552083333334281
                },
                {
                    "name": "A#5",
                    "midi": 82,
                    "time": 200.67968750000196,
                    "velocity": 0.6299212598425197,
                    "duration": 0.0703125
                },
                {
                    "name": "D6",
                    "midi": 86,
                    "time": 200.67968750000196,
                    "velocity": 0.6299212598425197,
                    "duration": 0.0703125
                },
                {
                    "name": "D#6",
                    "midi": 87,
                    "time": 200.937500000002,
                    "velocity": 0.6299212598425197,
                    "duration": 0.0859375
                },
                {
                    "name": "D#5",
                    "midi": 75,
                    "time": 200.94270833333533,
                    "velocity": 0.6299212598425197,
                    "duration": 0.08072916666665719
                },
                {
                    "name": "A#5",
                    "midi": 82,
                    "time": 200.94270833333533,
                    "velocity": 0.6299212598425197,
                    "duration": 0.08072916666665719
                },
                {
                    "name": "F4",
                    "midi": 65,
                    "time": 201.078125000002,
                    "velocity": 0.6299212598425197,
                    "duration": 0.078125
                },
                {
                    "name": "C5",
                    "midi": 72,
                    "time": 201.078125000002,
                    "velocity": 0.6299212598425197,
                    "duration": 0.078125
                },
                {
                    "name": "G#5",
                    "midi": 80,
                    "time": 201.078125000002,
                    "velocity": 0.6299212598425197,
                    "duration": 0.08333333333334281
                },
                {
                    "name": "C6",
                    "midi": 84,
                    "time": 201.078125000002,
                    "velocity": 0.6299212598425197,
                    "duration": 0.078125
                },
                {
                    "name": "A#3",
                    "midi": 58,
                    "time": 201.08333333333533,
                    "velocity": 0.6299212598425197,
                    "duration": 0.078125
                },
                {
                    "name": "D4",
                    "midi": 62,
                    "time": 201.08333333333533,
                    "velocity": 0.6299212598425197,
                    "duration": 0.07291666666665719
                },
                {
                    "name": "G#5",
                    "midi": 80,
                    "time": 201.343750000002,
                    "velocity": 0.6299212598425197,
                    "duration": 0.046875
                },
                {
                    "name": "D6",
                    "midi": 86,
                    "time": 201.343750000002,
                    "velocity": 0.6299212598425197,
                    "duration": 0.0859375
                },
                {
                    "name": "D5",
                    "midi": 74,
                    "time": 201.34895833333533,
                    "velocity": 0.6299212598425197,
                    "duration": 0.08072916666665719
                },
                {
                    "name": "G#5",
                    "midi": 80,
                    "time": 201.47916666666865,
                    "velocity": 0.6299212598425197,
                    "duration": 0.08854166666668561
                },
                {
                    "name": "A#5",
                    "midi": 82,
                    "time": 201.47916666666865,
                    "velocity": 0.6299212598425197,
                    "duration": 0.08333333333334281
                },
                {
                    "name": "A#4",
                    "midi": 70,
                    "time": 201.492187500002,
                    "velocity": 0.6299212598425197,
                    "duration": 0.0703125
                },
                {
                    "name": "A#1",
                    "midi": 34,
                    "time": 201.49739583333533,
                    "velocity": 0.6299212598425197,
                    "duration": 0.11458333333334281
                },
                {
                    "name": "B4",
                    "midi": 71,
                    "time": 201.75000000000202,
                    "velocity": 0.6299212598425197,
                    "duration": 0.0859375
                },
                {
                    "name": "G#5",
                    "midi": 80,
                    "time": 201.75000000000202,
                    "velocity": 0.6299212598425197,
                    "duration": 0.05729166666665719
                },
                {
                    "name": "B5",
                    "midi": 83,
                    "time": 201.75000000000202,
                    "velocity": 0.6299212598425197,
                    "duration": 0.08072916666665719
                },
                {
                    "name": "C5",
                    "midi": 72,
                    "time": 201.89062500000202,
                    "velocity": 0.6299212598425197,
                    "duration": 0.08333333333337123
                },
                {
                    "name": "G#5",
                    "midi": 80,
                    "time": 201.89062500000202,
                    "velocity": 0.6299212598425197,
                    "duration": 0.07812500000002842
                },
                {
                    "name": "C6",
                    "midi": 84,
                    "time": 201.89062500000202,
                    "velocity": 0.6299212598425197,
                    "duration": 0.07812500000002842
                },
                {
                    "name": "A#3",
                    "midi": 58,
                    "time": 201.89583333333536,
                    "velocity": 0.6299212598425197,
                    "duration": 0.07812500000002842
                },
                {
                    "name": "D4",
                    "midi": 62,
                    "time": 201.89583333333536,
                    "velocity": 0.6299212598425197,
                    "duration": 0.05989583333334281
                },
                {
                    "name": "F4",
                    "midi": 65,
                    "time": 201.89583333333536,
                    "velocity": 0.6299212598425197,
                    "duration": 0.07812500000002842
                },
                {
                    "name": "A#4",
                    "midi": 70,
                    "time": 202.16406250000205,
                    "velocity": 0.6299212598425197,
                    "duration": 0.10677083333334281
                },
                {
                    "name": "D#2",
                    "midi": 39,
                    "time": 202.1692708333354,
                    "velocity": 0.6299212598425197,
                    "duration": 0.23437500000002842
                },
                {
                    "name": "A#5",
                    "midi": 82,
                    "time": 202.1692708333354,
                    "velocity": 0.6299212598425197,
                    "duration": 0.04166666666665719
                },
                {
                    "name": "D5",
                    "midi": 74,
                    "time": 202.28906250000205,
                    "velocity": 0.6299212598425197,
                    "duration": 0.10156250000002842
                },
                {
                    "name": "G5",
                    "midi": 79,
                    "time": 202.28906250000205,
                    "velocity": 0.6299212598425197,
                    "duration": 0.10156250000002842
                },
                {
                    "name": "A#5",
                    "midi": 82,
                    "time": 202.28906250000205,
                    "velocity": 0.6299212598425197,
                    "duration": 0.10156250000002842
                },
                {
                    "name": "D6",
                    "midi": 86,
                    "time": 202.28906250000205,
                    "velocity": 0.6299212598425197,
                    "duration": 0.10156250000002842
                },
                {
                    "name": "A#2",
                    "midi": 46,
                    "time": 202.2942708333354,
                    "velocity": 0.6299212598425197,
                    "duration": 0.10937500000002842
                },
                {
                    "name": "G3",
                    "midi": 55,
                    "time": 202.2942708333354,
                    "velocity": 0.6299212598425197,
                    "duration": 1.2526041666667425
                },
                {
                    "name": "C5",
                    "midi": 72,
                    "time": 202.55729166666876,
                    "velocity": 0.6299212598425197,
                    "duration": 0.0703125
                },
                {
                    "name": "G5",
                    "midi": 79,
                    "time": 202.55729166666876,
                    "velocity": 0.6299212598425197,
                    "duration": 0.04166666666665719
                },
                {
                    "name": "C6",
                    "midi": 84,
                    "time": 202.55729166666876,
                    "velocity": 0.6299212598425197,
                    "duration": 0.11458333333334281
                },
                {
                    "name": "D#4",
                    "midi": 63,
                    "time": 202.68489583333545,
                    "velocity": 0.6299212598425197,
                    "duration": 0.10677083333334281
                },
                {
                    "name": "G4",
                    "midi": 67,
                    "time": 202.68489583333545,
                    "velocity": 0.6299212598425197,
                    "duration": 0.10677083333334281
                },
                {
                    "name": "A#4",
                    "midi": 70,
                    "time": 202.68489583333545,
                    "velocity": 0.6299212598425197,
                    "duration": 0.10677083333334281
                },
                {
                    "name": "G5",
                    "midi": 79,
                    "time": 202.68489583333545,
                    "velocity": 0.6299212598425197,
                    "duration": 0.1015625
                },
                {
                    "name": "A#5",
                    "midi": 82,
                    "time": 202.68489583333545,
                    "velocity": 0.6299212598425197,
                    "duration": 0.1015625
                },
                {
                    "name": "A#3",
                    "midi": 58,
                    "time": 202.6875000000021,
                    "velocity": 0.6299212598425197,
                    "duration": 0.10416666666668561
                },
                {
                    "name": "C6",
                    "midi": 84,
                    "time": 202.92708333333545,
                    "velocity": 0.6299212598425197,
                    "duration": 0.2500000000000284
                },
                {
                    "name": "C5",
                    "midi": 72,
                    "time": 202.9322916666688,
                    "velocity": 0.6299212598425197,
                    "duration": 0.24479166666668561
                },
                {
                    "name": "G5",
                    "midi": 79,
                    "time": 202.9322916666688,
                    "velocity": 0.6299212598425197,
                    "duration": 0.24479166666668561
                },
                {
                    "name": "A#1",
                    "midi": 34,
                    "time": 203.07031250000213,
                    "velocity": 0.6299212598425197,
                    "duration": 0.1171875
                },
                {
                    "name": "G5",
                    "midi": 79,
                    "time": 203.33593750000213,
                    "velocity": 0.6299212598425197,
                    "duration": 0.0859375
                },
                {
                    "name": "G#5",
                    "midi": 80,
                    "time": 203.36718750000213,
                    "velocity": 0.6299212598425197,
                    "duration": 0.07552083333334281
                },
                {
                    "name": "B5",
                    "midi": 83,
                    "time": 203.42708333333547,
                    "velocity": 0.6299212598425197,
                    "duration": 0.08854166666665719
                },
                {
                    "name": "G4",
                    "midi": 67,
                    "time": 203.46875000000213,
                    "velocity": 0.6299212598425197,
                    "duration": 0.11458333333334281
                },
                {
                    "name": "C6",
                    "midi": 84,
                    "time": 203.46875000000213,
                    "velocity": 0.6299212598425197,
                    "duration": 0.17447916666668561
                },
                {
                    "name": "A#3",
                    "midi": 58,
                    "time": 203.47395833333547,
                    "velocity": 0.6299212598425197,
                    "duration": 0.109375
                },
                {
                    "name": "D#4",
                    "midi": 63,
                    "time": 203.47395833333547,
                    "velocity": 0.6299212598425197,
                    "duration": 0.109375
                },
                {
                    "name": "C5",
                    "midi": 72,
                    "time": 203.72916666666882,
                    "velocity": 0.6299212598425197,
                    "duration": 0.12239583333334281
                },
                {
                    "name": "G5",
                    "midi": 79,
                    "time": 203.72916666666882,
                    "velocity": 0.6299212598425197,
                    "duration": 0.0546875
                },
                {
                    "name": "A#5",
                    "midi": 82,
                    "time": 203.72916666666882,
                    "velocity": 0.6299212598425197,
                    "duration": 0.0546875
                },
                {
                    "name": "G3",
                    "midi": 55,
                    "time": 203.8645833333355,
                    "velocity": 0.6299212598425197,
                    "duration": 0.526041666666714
                },
                {
                    "name": "D#5",
                    "midi": 75,
                    "time": 203.8645833333355,
                    "velocity": 0.6299212598425197,
                    "duration": 0.18229166666668561
                },
                {
                    "name": "G5",
                    "midi": 79,
                    "time": 203.8645833333355,
                    "velocity": 0.6299212598425197,
                    "duration": 0.24218750000002842
                },
                {
                    "name": "A#5",
                    "midi": 82,
                    "time": 203.8645833333355,
                    "velocity": 0.6299212598425197,
                    "duration": 0.24218750000002842
                },
                {
                    "name": "D#6",
                    "midi": 87,
                    "time": 203.8645833333355,
                    "velocity": 0.6299212598425197,
                    "duration": 0.24218750000002842
                },
                {
                    "name": "A#2",
                    "midi": 46,
                    "time": 203.87500000000216,
                    "velocity": 0.6299212598425197,
                    "duration": 0.10416666666668561
                },
                {
                    "name": "D6",
                    "midi": 86,
                    "time": 204.27083333333553,
                    "velocity": 0.6299212598425197,
                    "duration": 0.1458333333333428
                },
                {
                    "name": "A#3",
                    "midi": 58,
                    "time": 204.27604166666887,
                    "velocity": 0.6299212598425197,
                    "duration": 0.11458333333334281
                },
                {
                    "name": "C#4",
                    "midi": 61,
                    "time": 204.27604166666887,
                    "velocity": 0.6299212598425197,
                    "duration": 0.11458333333334281
                },
                {
                    "name": "D#4",
                    "midi": 63,
                    "time": 204.27604166666887,
                    "velocity": 0.6299212598425197,
                    "duration": 0.11458333333334281
                },
                {
                    "name": "G4",
                    "midi": 67,
                    "time": 204.27604166666887,
                    "velocity": 0.6299212598425197,
                    "duration": 0.11458333333334281
                },
                {
                    "name": "D5",
                    "midi": 74,
                    "time": 204.27604166666887,
                    "velocity": 0.6299212598425197,
                    "duration": 0.1458333333333428
                },
                {
                    "name": "G5",
                    "midi": 79,
                    "time": 204.27604166666887,
                    "velocity": 0.6299212598425197,
                    "duration": 0.1458333333333428
                },
                {
                    "name": "A#5",
                    "midi": 82,
                    "time": 204.27604166666887,
                    "velocity": 0.6299212598425197,
                    "duration": 0.1458333333333428
                },
                {
                    "name": "D#5",
                    "midi": 75,
                    "time": 204.54947916666887,
                    "velocity": 0.6299212598425197,
                    "duration": 0.08333333333334281
                },
                {
                    "name": "G5",
                    "midi": 79,
                    "time": 204.54947916666887,
                    "velocity": 0.6299212598425197,
                    "duration": 0.0546875
                },
                {
                    "name": "A#5",
                    "midi": 82,
                    "time": 204.54947916666887,
                    "velocity": 0.6299212598425197,
                    "duration": 0.0546875
                },
                {
                    "name": "D#6",
                    "midi": 87,
                    "time": 204.54947916666887,
                    "velocity": 0.6299212598425197,
                    "duration": 0.078125
                },
                {
                    "name": "G5",
                    "midi": 79,
                    "time": 204.68489583333556,
                    "velocity": 0.6299212598425197,
                    "duration": 0.08072916666665719
                },
                {
                    "name": "A#5",
                    "midi": 82,
                    "time": 204.68489583333556,
                    "velocity": 0.6299212598425197,
                    "duration": 0.08072916666665719
                },
                {
                    "name": "C6",
                    "midi": 84,
                    "time": 204.68489583333556,
                    "velocity": 0.6299212598425197,
                    "duration": 0.08072916666665719
                },
                {
                    "name": "D#3",
                    "midi": 51,
                    "time": 204.68750000000222,
                    "velocity": 0.6299212598425197,
                    "duration": 0.078125
                },
                {
                    "name": "C5",
                    "midi": 72,
                    "time": 204.68750000000222,
                    "velocity": 0.6299212598425197,
                    "duration": 0.078125
                },
                {
                    "name": "D#2",
                    "midi": 39,
                    "time": 204.69270833333556,
                    "velocity": 0.6299212598425197,
                    "duration": 0.07291666666665719
                },
                {
                    "name": "D#5",
                    "midi": 75,
                    "time": 204.95572916666887,
                    "velocity": 0.6299212598425197,
                    "duration": 0.28125
                },
                {
                    "name": "D#6",
                    "midi": 87,
                    "time": 204.95572916666887,
                    "velocity": 0.6299212598425197,
                    "duration": 0.28125
                },
                {
                    "name": "F2",
                    "midi": 41,
                    "time": 204.96093750000222,
                    "velocity": 0.6299212598425197,
                    "duration": 0.0859375
                },
                {
                    "name": "F3",
                    "midi": 53,
                    "time": 204.96093750000222,
                    "velocity": 0.6299212598425197,
                    "duration": 0.0859375
                },
                {
                    "name": "G2",
                    "midi": 43,
                    "time": 205.09635416666887,
                    "velocity": 0.6299212598425197,
                    "duration": 0.0859375
                },
                {
                    "name": "G3",
                    "midi": 55,
                    "time": 205.09635416666887,
                    "velocity": 0.6299212598425197,
                    "duration": 0.08072916666665719
                },
                {
                    "name": "C6",
                    "midi": 84,
                    "time": 205.35156250000222,
                    "velocity": 0.6299212598425197,
                    "duration": 0.0546875
                },
                {
                    "name": "G2",
                    "midi": 43,
                    "time": 205.36458333333556,
                    "velocity": 0.6299212598425197,
                    "duration": 0.07552083333331439
                },
                {
                    "name": "G3",
                    "midi": 55,
                    "time": 205.36458333333556,
                    "velocity": 0.6299212598425197,
                    "duration": 0.08072916666665719
                },
                {
                    "name": "C5",
                    "midi": 72,
                    "time": 205.36458333333556,
                    "velocity": 0.6299212598425197,
                    "duration": 0.07291666666665719
                },
                {
                    "name": "G#5",
                    "midi": 80,
                    "time": 205.36458333333556,
                    "velocity": 0.6299212598425197,
                    "duration": 0.04166666666665719
                },
                {
                    "name": "G#3",
                    "midi": 56,
                    "time": 205.48958333333556,
                    "velocity": 0.6299212598425197,
                    "duration": 0.07552083333334281
                },
                {
                    "name": "D#5",
                    "midi": 75,
                    "time": 205.48958333333556,
                    "velocity": 0.6299212598425197,
                    "duration": 0.2161458333333428
                },
                {
                    "name": "G#5",
                    "midi": 80,
                    "time": 205.48958333333556,
                    "velocity": 0.6299212598425197,
                    "duration": 0.2161458333333428
                },
                {
                    "name": "C6",
                    "midi": 84,
                    "time": 205.48958333333556,
                    "velocity": 0.6299212598425197,
                    "duration": 0.2161458333333428
                },
                {
                    "name": "D#6",
                    "midi": 87,
                    "time": 205.48958333333556,
                    "velocity": 0.6299212598425197,
                    "duration": 0.2161458333333428
                },
                {
                    "name": "G#2",
                    "midi": 44,
                    "time": 205.4947916666689,
                    "velocity": 0.6299212598425197,
                    "duration": 0.0703125
                },
                {
                    "name": "D#3",
                    "midi": 51,
                    "time": 205.68750000000225,
                    "velocity": 0.6299212598425197,
                    "duration": 0.0546875
                },
                {
                    "name": "G#3",
                    "midi": 56,
                    "time": 205.68750000000225,
                    "velocity": 0.6299212598425197,
                    "duration": 0.0546875
                },
                {
                    "name": "C4",
                    "midi": 60,
                    "time": 205.68750000000225,
                    "velocity": 0.6299212598425197,
                    "duration": 0.04947916666665719
                },
                {
                    "name": "C5",
                    "midi": 72,
                    "time": 205.8880208333356,
                    "velocity": 0.6299212598425197,
                    "duration": 0.1458333333333428
                },
                {
                    "name": "G#5",
                    "midi": 80,
                    "time": 205.8880208333356,
                    "velocity": 0.6299212598425197,
                    "duration": 0.1458333333333428
                },
                {
                    "name": "C6",
                    "midi": 84,
                    "time": 205.8880208333356,
                    "velocity": 0.6299212598425197,
                    "duration": 0.1458333333333428
                },
                {
                    "name": "D#2",
                    "midi": 39,
                    "time": 205.89322916666893,
                    "velocity": 0.6299212598425197,
                    "duration": 0.11458333333334281
                },
                {
                    "name": "D#3",
                    "midi": 51,
                    "time": 206.09375000000227,
                    "velocity": 0.6299212598425197,
                    "duration": 0.046875
                },
                {
                    "name": "G#3",
                    "midi": 56,
                    "time": 206.09375000000227,
                    "velocity": 0.6299212598425197,
                    "duration": 0.046875
                },
                {
                    "name": "C4",
                    "midi": 60,
                    "time": 206.09375000000227,
                    "velocity": 0.6299212598425197,
                    "duration": 0.046875
                },
                {
                    "name": "G#5",
                    "midi": 80,
                    "time": 206.12500000000227,
                    "velocity": 0.6299212598425197,
                    "duration": 0.08333333333334281
                },
                {
                    "name": "A5",
                    "midi": 81,
                    "time": 206.14583333333562,
                    "velocity": 0.6299212598425197,
                    "duration": 0.09375
                },
                {
                    "name": "A#5",
                    "midi": 82,
                    "time": 206.18489583333562,
                    "velocity": 0.6299212598425197,
                    "duration": 0.08333333333334281
                },
                {
                    "name": "B5",
                    "midi": 83,
                    "time": 206.22135416666896,
                    "velocity": 0.6299212598425197,
                    "duration": 0.078125
                },
                {
                    "name": "G#2",
                    "midi": 44,
                    "time": 206.28645833333562,
                    "velocity": 0.6299212598425197,
                    "duration": 0.125
                },
                {
                    "name": "G#3",
                    "midi": 56,
                    "time": 206.28645833333562,
                    "velocity": 0.6299212598425197,
                    "duration": 0.049479166666685614
                },
                {
                    "name": "C6",
                    "midi": 84,
                    "time": 206.28645833333562,
                    "velocity": 0.6299212598425197,
                    "duration": 0.125
                },
                {
                    "name": "D#5",
                    "midi": 75,
                    "time": 206.38541666666896,
                    "velocity": 0.6299212598425197,
                    "duration": 0.1276041666666572
                },
                {
                    "name": "D#6",
                    "midi": 87,
                    "time": 206.38541666666896,
                    "velocity": 0.6299212598425197,
                    "duration": 0.11458333333331439
                },
                {
                    "name": "G#3",
                    "midi": 56,
                    "time": 206.49218750000227,
                    "velocity": 0.6299212598425197,
                    "duration": 0.05208333333334281
                },
                {
                    "name": "C4",
                    "midi": 60,
                    "time": 206.49218750000227,
                    "velocity": 0.6299212598425197,
                    "duration": 0.05208333333334281
                },
                {
                    "name": "D#3",
                    "midi": 51,
                    "time": 206.49739583333562,
                    "velocity": 0.6299212598425197,
                    "duration": 0.046875
                },
                {
                    "name": "C5",
                    "midi": 72,
                    "time": 206.58593750000227,
                    "velocity": 0.6299212598425197,
                    "duration": 0.08072916666665719
                },
                {
                    "name": "C6",
                    "midi": 84,
                    "time": 206.58593750000227,
                    "velocity": 0.6299212598425197,
                    "duration": 0.08072916666665719
                },
                {
                    "name": "F#5",
                    "midi": 78,
                    "time": 206.6848958333356,
                    "velocity": 0.6299212598425197,
                    "duration": 0.0546875
                },
                {
                    "name": "A5",
                    "midi": 81,
                    "time": 206.6848958333356,
                    "velocity": 0.6299212598425197,
                    "duration": 0.0546875
                },
                {
                    "name": "D#6",
                    "midi": 87,
                    "time": 206.6848958333356,
                    "velocity": 0.6299212598425197,
                    "duration": 0.08333333333334281
                },
                {
                    "name": "A2",
                    "midi": 45,
                    "time": 206.69531250000225,
                    "velocity": 0.6299212598425197,
                    "duration": 0.11197916666668561
                },
                {
                    "name": "A3",
                    "midi": 57,
                    "time": 206.69531250000225,
                    "velocity": 0.6299212598425197,
                    "duration": 0.04427083333334281
                },
                {
                    "name": "D#5",
                    "midi": 75,
                    "time": 206.69531250000225,
                    "velocity": 0.6299212598425197,
                    "duration": 0.07291666666668561
                },
                {
                    "name": "D#3",
                    "midi": 51,
                    "time": 206.89062500000227,
                    "velocity": 0.6299212598425197,
                    "duration": 0.04947916666665719
                },
                {
                    "name": "F#3",
                    "midi": 54,
                    "time": 206.89062500000227,
                    "velocity": 0.6299212598425197,
                    "duration": 0.04947916666665719
                },
                {
                    "name": "A3",
                    "midi": 57,
                    "time": 206.89062500000227,
                    "velocity": 0.6299212598425197,
                    "duration": 0.04947916666665719
                },
                {
                    "name": "C4",
                    "midi": 60,
                    "time": 206.89062500000227,
                    "velocity": 0.6299212598425197,
                    "duration": 0.04947916666665719
                },
                {
                    "name": "C5",
                    "midi": 72,
                    "time": 206.89062500000227,
                    "velocity": 0.6299212598425197,
                    "duration": 0.08072916666665719
                },
                {
                    "name": "F#5",
                    "midi": 78,
                    "time": 206.89062500000227,
                    "velocity": 0.6299212598425197,
                    "duration": 0.08072916666665719
                },
                {
                    "name": "A5",
                    "midi": 81,
                    "time": 206.89062500000227,
                    "velocity": 0.6299212598425197,
                    "duration": 0.08072916666665719
                },
                {
                    "name": "C6",
                    "midi": 84,
                    "time": 206.89062500000227,
                    "velocity": 0.6299212598425197,
                    "duration": 0.08072916666665719
                },
                {
                    "name": "A#2",
                    "midi": 46,
                    "time": 207.08072916666893,
                    "velocity": 0.6299212598425197,
                    "duration": 0.109375
                },
                {
                    "name": "A#3",
                    "midi": 58,
                    "time": 207.08072916666893,
                    "velocity": 0.6299212598425197,
                    "duration": 0.04947916666665719
                },
                {
                    "name": "D#5",
                    "midi": 75,
                    "time": 207.08072916666893,
                    "velocity": 0.6299212598425197,
                    "duration": 0.18229166666668561
                },
                {
                    "name": "G5",
                    "midi": 79,
                    "time": 207.08072916666893,
                    "velocity": 0.6299212598425197,
                    "duration": 0.18229166666668561
                },
                {
                    "name": "A#5",
                    "midi": 82,
                    "time": 207.08072916666893,
                    "velocity": 0.6299212598425197,
                    "duration": 0.18229166666668561
                },
                {
                    "name": "D#6",
                    "midi": 87,
                    "time": 207.08072916666893,
                    "velocity": 0.6299212598425197,
                    "duration": 0.1770833333333428
                },
                {
                    "name": "G4",
                    "midi": 67,
                    "time": 207.27604166666896,
                    "velocity": 0.6299212598425197,
                    "duration": 0.0546875
                },
                {
                    "name": "A#3",
                    "midi": 58,
                    "time": 207.2812500000023,
                    "velocity": 0.6299212598425197,
                    "duration": 0.0546875
                },
                {
                    "name": "D#4",
                    "midi": 63,
                    "time": 207.2812500000023,
                    "velocity": 0.6299212598425197,
                    "duration": 0.0546875
                },
                {
                    "name": "D6",
                    "midi": 86,
                    "time": 207.4687500000023,
                    "velocity": 0.6299212598425197,
                    "duration": 0.1536458333333428
                },
                {
                    "name": "G2",
                    "midi": 43,
                    "time": 207.47395833333564,
                    "velocity": 0.6299212598425197,
                    "duration": 0.1171875
                },
                {
                    "name": "G3",
                    "midi": 55,
                    "time": 207.47395833333564,
                    "velocity": 0.6299212598425197,
                    "duration": 0.04947916666665719
                },
                {
                    "name": "D5",
                    "midi": 74,
                    "time": 207.47395833333564,
                    "velocity": 0.6299212598425197,
                    "duration": 0.1484375
                },
                {
                    "name": "F5",
                    "midi": 77,
                    "time": 207.47395833333564,
                    "velocity": 0.6299212598425197,
                    "duration": 0.1484375
                },
                {
                    "name": "B5",
                    "midi": 83,
                    "time": 207.47395833333564,
                    "velocity": 0.6299212598425197,
                    "duration": 0.1484375
                },
                {
                    "name": "G3",
                    "midi": 55,
                    "time": 207.6640625000023,
                    "velocity": 0.6299212598425197,
                    "duration": 0.04166666666665719
                },
                {
                    "name": "B3",
                    "midi": 59,
                    "time": 207.6640625000023,
                    "velocity": 0.6299212598425197,
                    "duration": 0.04166666666665719
                },
                {
                    "name": "D4",
                    "midi": 62,
                    "time": 207.6640625000023,
                    "velocity": 0.6299212598425197,
                    "duration": 0.0546875
                },
                {
                    "name": "F4",
                    "midi": 65,
                    "time": 207.6640625000023,
                    "velocity": 0.6299212598425197,
                    "duration": 0.0546875
                },
                {
                    "name": "C6",
                    "midi": 84,
                    "time": 207.76041666666896,
                    "velocity": 0.6299212598425197,
                    "duration": 0.2265625
                },
                {
                    "name": "C5",
                    "midi": 72,
                    "time": 207.7656250000023,
                    "velocity": 0.6299212598425197,
                    "duration": 0.2213541666666572
                },
                {
                    "name": "E5",
                    "midi": 76,
                    "time": 207.7656250000023,
                    "velocity": 0.6299212598425197,
                    "duration": 0.2213541666666572
                },
                {
                    "name": "G5",
                    "midi": 79,
                    "time": 207.7656250000023,
                    "velocity": 0.6299212598425197,
                    "duration": 0.2213541666666572
                },
                {
                    "name": "A#5",
                    "midi": 82,
                    "time": 207.7656250000023,
                    "velocity": 0.6299212598425197,
                    "duration": 0.2213541666666572
                },
                {
                    "name": "E2",
                    "midi": 40,
                    "time": 207.8750000000023,
                    "velocity": 0.6299212598425197,
                    "duration": 0.11197916666665719
                },
                {
                    "name": "E3",
                    "midi": 52,
                    "time": 207.8750000000023,
                    "velocity": 0.6299212598425197,
                    "duration": 0.11197916666665719
                },
                {
                    "name": "A#3",
                    "midi": 58,
                    "time": 208.06510416666896,
                    "velocity": 0.6299212598425197,
                    "duration": 0.057291666666685614
                },
                {
                    "name": "G3",
                    "midi": 55,
                    "time": 208.0781250000023,
                    "velocity": 0.6299212598425197,
                    "duration": 0.04427083333334281
                },
                {
                    "name": "C4",
                    "midi": 60,
                    "time": 208.0781250000023,
                    "velocity": 0.6299212598425197,
                    "duration": 0.04427083333334281
                },
                {
                    "name": "E4",
                    "midi": 64,
                    "time": 208.0781250000023,
                    "velocity": 0.6299212598425197,
                    "duration": 0.04427083333334281
                },
                {
                    "name": "C5",
                    "midi": 72,
                    "time": 208.17708333333564,
                    "velocity": 0.6299212598425197,
                    "duration": 0.12239583333334281
                },
                {
                    "name": "C6",
                    "midi": 84,
                    "time": 208.17708333333564,
                    "velocity": 0.6299212598425197,
                    "duration": 0.12239583333334281
                },
                {
                    "name": "G2",
                    "midi": 43,
                    "time": 208.2812500000023,
                    "velocity": 0.6299212598425197,
                    "duration": 0.08593750000002842
                },
                {
                    "name": "G3",
                    "midi": 55,
                    "time": 208.2812500000023,
                    "velocity": 0.6299212598425197,
                    "duration": 0.08593750000002842
                },
                {
                    "name": "D#6",
                    "midi": 87,
                    "time": 208.2812500000023,
                    "velocity": 0.6299212598425197,
                    "duration": 0.19010416666668561
                },
                {
                    "name": "D#5",
                    "midi": 75,
                    "time": 208.28645833333564,
                    "velocity": 0.6299212598425197,
                    "duration": 0.1848958333333428
                },
                {
                    "name": "G#2",
                    "midi": 44,
                    "time": 208.49739583333564,
                    "velocity": 0.6299212598425197,
                    "duration": 0.0703125
                },
                {
                    "name": "G#3",
                    "midi": 56,
                    "time": 208.49739583333564,
                    "velocity": 0.6299212598425197,
                    "duration": 0.0703125
                },
                {
                    "name": "C5",
                    "midi": 72,
                    "time": 208.5859375000023,
                    "velocity": 0.6299212598425197,
                    "duration": 0.0546875
                },
                {
                    "name": "C6",
                    "midi": 84,
                    "time": 208.5859375000023,
                    "velocity": 0.6299212598425197,
                    "duration": 0.15625
                },
                {
                    "name": "A2",
                    "midi": 45,
                    "time": 208.69010416666896,
                    "velocity": 0.6299212598425197,
                    "duration": 0.11718750000002842
                },
                {
                    "name": "A3",
                    "midi": 57,
                    "time": 208.69010416666896,
                    "velocity": 0.6299212598425197,
                    "duration": 0.05208333333334281
                },
                {
                    "name": "D#5",
                    "midi": 75,
                    "time": 208.69010416666896,
                    "velocity": 0.6299212598425197,
                    "duration": 0.08593750000002842
                },
                {
                    "name": "A5",
                    "midi": 81,
                    "time": 208.69010416666896,
                    "velocity": 0.6299212598425197,
                    "duration": 0.057291666666685614
                },
                {
                    "name": "D#6",
                    "midi": 87,
                    "time": 208.69010416666896,
                    "velocity": 0.6299212598425197,
                    "duration": 0.08593750000002842
                },
                {
                    "name": "F3",
                    "midi": 53,
                    "time": 208.885416666669,
                    "velocity": 0.6299212598425197,
                    "duration": 0.0546875
                },
                {
                    "name": "A3",
                    "midi": 57,
                    "time": 208.885416666669,
                    "velocity": 0.6299212598425197,
                    "duration": 0.0546875
                },
                {
                    "name": "C4",
                    "midi": 60,
                    "time": 208.885416666669,
                    "velocity": 0.6299212598425197,
                    "duration": 0.0546875
                },
                {
                    "name": "D#4",
                    "midi": 63,
                    "time": 208.885416666669,
                    "velocity": 0.6299212598425197,
                    "duration": 0.0546875
                },
                {
                    "name": "C5",
                    "midi": 72,
                    "time": 208.885416666669,
                    "velocity": 0.6299212598425197,
                    "duration": 0.0859375
                },
                {
                    "name": "C6",
                    "midi": 84,
                    "time": 208.885416666669,
                    "velocity": 0.6299212598425197,
                    "duration": 0.0859375
                },
                {
                    "name": "F2",
                    "midi": 41,
                    "time": 209.080729166669,
                    "velocity": 0.6299212598425197,
                    "duration": 0.11197916666668561
                },
                {
                    "name": "D#5",
                    "midi": 75,
                    "time": 209.080729166669,
                    "velocity": 0.6299212598425197,
                    "duration": 0.08333333333334281
                },
                {
                    "name": "A5",
                    "midi": 81,
                    "time": 209.080729166669,
                    "velocity": 0.6299212598425197,
                    "duration": 0.078125
                },
                {
                    "name": "C6",
                    "midi": 84,
                    "time": 209.080729166669,
                    "velocity": 0.6299212598425197,
                    "duration": 0.046875
                },
                {
                    "name": "D#6",
                    "midi": 87,
                    "time": 209.080729166669,
                    "velocity": 0.6299212598425197,
                    "duration": 0.078125
                },
                {
                    "name": "C5",
                    "midi": 72,
                    "time": 209.28645833333567,
                    "velocity": 0.6299212598425197,
                    "duration": 0.078125
                },
                {
                    "name": "F3",
                    "midi": 53,
                    "time": 209.29166666666902,
                    "velocity": 0.6299212598425197,
                    "duration": 0.04166666666665719
                },
                {
                    "name": "A3",
                    "midi": 57,
                    "time": 209.29166666666902,
                    "velocity": 0.6299212598425197,
                    "duration": 0.04166666666665719
                },
                {
                    "name": "C4",
                    "midi": 60,
                    "time": 209.29166666666902,
                    "velocity": 0.6299212598425197,
                    "duration": 0.04166666666665719
                },
                {
                    "name": "D#4",
                    "midi": 63,
                    "time": 209.29166666666902,
                    "velocity": 0.6299212598425197,
                    "duration": 0.04166666666665719
                },
                {
                    "name": "C6",
                    "midi": 84,
                    "time": 209.29166666666902,
                    "velocity": 0.6299212598425197,
                    "duration": 0.07291666666665719
                },
                {
                    "name": "D3",
                    "midi": 50,
                    "time": 209.48697916666902,
                    "velocity": 0.6299212598425197,
                    "duration": 0.1171875
                },
                {
                    "name": "D4",
                    "midi": 62,
                    "time": 209.48697916666902,
                    "velocity": 0.6299212598425197,
                    "duration": 0.04947916666665719
                },
                {
                    "name": "D#5",
                    "midi": 75,
                    "time": 209.48697916666902,
                    "velocity": 0.6299212598425197,
                    "duration": 0.1171875
                },
                {
                    "name": "G#5",
                    "midi": 80,
                    "time": 209.48697916666902,
                    "velocity": 0.6299212598425197,
                    "duration": 0.1171875
                },
                {
                    "name": "D#6",
                    "midi": 87,
                    "time": 209.48697916666902,
                    "velocity": 0.6299212598425197,
                    "duration": 0.1171875
                },
                {
                    "name": "A#3",
                    "midi": 58,
                    "time": 209.67708333333567,
                    "velocity": 0.6299212598425197,
                    "duration": 0.0546875
                },
                {
                    "name": "G#3",
                    "midi": 56,
                    "time": 209.68229166666902,
                    "velocity": 0.6299212598425197,
                    "duration": 0.04947916666665719
                },
                {
                    "name": "D4",
                    "midi": 62,
                    "time": 209.68229166666902,
                    "velocity": 0.6299212598425197,
                    "duration": 0.04947916666665719
                },
                {
                    "name": "F4",
                    "midi": 65,
                    "time": 209.68229166666902,
                    "velocity": 0.6299212598425197,
                    "duration": 0.04947916666665719
                },
                {
                    "name": "C5",
                    "midi": 72,
                    "time": 209.68229166666902,
                    "velocity": 0.6299212598425197,
                    "duration": 0.078125
                },
                {
                    "name": "C6",
                    "midi": 84,
                    "time": 209.68229166666902,
                    "velocity": 0.6299212598425197,
                    "duration": 0.078125
                },
                {
                    "name": "A#2",
                    "midi": 46,
                    "time": 209.88281250000236,
                    "velocity": 0.6299212598425197,
                    "duration": 0.11197916666668561
                },
                {
                    "name": "A#3",
                    "midi": 58,
                    "time": 209.88281250000236,
                    "velocity": 0.6299212598425197,
                    "duration": 0.11197916666668561
                },
                {
                    "name": "D#5",
                    "midi": 75,
                    "time": 209.88281250000236,
                    "velocity": 0.6299212598425197,
                    "duration": 0.14062500000002842
                },
                {
                    "name": "A#5",
                    "midi": 82,
                    "time": 209.88281250000236,
                    "velocity": 0.6299212598425197,
                    "duration": 0.05208333333334281
                },
                {
                    "name": "D#6",
                    "midi": 87,
                    "time": 209.88281250000236,
                    "velocity": 0.6299212598425197,
                    "duration": 0.14062500000002842
                },
                {
                    "name": "G#3",
                    "midi": 56,
                    "time": 210.0781250000024,
                    "velocity": 0.6299212598425197,
                    "duration": 0.06770833333334281
                },
                {
                    "name": "A#3",
                    "midi": 58,
                    "time": 210.0781250000024,
                    "velocity": 0.6299212598425197,
                    "duration": 0.07291666666668561
                },
                {
                    "name": "D4",
                    "midi": 62,
                    "time": 210.0781250000024,
                    "velocity": 0.6299212598425197,
                    "duration": 0.07291666666668561
                },
                {
                    "name": "F4",
                    "midi": 65,
                    "time": 210.0781250000024,
                    "velocity": 0.6299212598425197,
                    "duration": 0.07291666666668561
                },
                {
                    "name": "C5",
                    "midi": 72,
                    "time": 210.16406250000242,
                    "velocity": 0.6299212598425197,
                    "duration": 0.0859375
                },
                {
                    "name": "C6",
                    "midi": 84,
                    "time": 210.16927083333576,
                    "velocity": 0.6299212598425197,
                    "duration": 0.08333333333331439
                },
                {
                    "name": "D#3",
                    "midi": 51,
                    "time": 210.26562500000242,
                    "velocity": 0.6299212598425197,
                    "duration": 0.11979166666668561
                },
                {
                    "name": "D#4",
                    "midi": 63,
                    "time": 210.26562500000242,
                    "velocity": 0.6299212598425197,
                    "duration": 0.0546875
                },
                {
                    "name": "D#5",
                    "midi": 75,
                    "time": 210.26562500000242,
                    "velocity": 0.6299212598425197,
                    "duration": 0.11979166666668561
                },
                {
                    "name": "G5",
                    "midi": 79,
                    "time": 210.26562500000242,
                    "velocity": 0.6299212598425197,
                    "duration": 0.11979166666668561
                },
                {
                    "name": "A#5",
                    "midi": 82,
                    "time": 210.26562500000242,
                    "velocity": 0.6299212598425197,
                    "duration": 0.11458333333334281
                },
                {
                    "name": "D#6",
                    "midi": 87,
                    "time": 210.26562500000242,
                    "velocity": 0.6299212598425197,
                    "duration": 0.11458333333334281
                },
                {
                    "name": "A#3",
                    "midi": 58,
                    "time": 210.46614583333576,
                    "velocity": 0.6299212598425197,
                    "duration": 0.046875
                },
                {
                    "name": "D#4",
                    "midi": 63,
                    "time": 210.46614583333576,
                    "velocity": 0.6299212598425197,
                    "duration": 0.04166666666665719
                },
                {
                    "name": "G4",
                    "midi": 67,
                    "time": 210.46614583333576,
                    "velocity": 0.6299212598425197,
                    "duration": 0.046875
                },
                {
                    "name": "B4",
                    "midi": 71,
                    "time": 210.46614583333576,
                    "velocity": 0.6299212598425197,
                    "duration": 0.11458333333334281
                },
                {
                    "name": "B5",
                    "midi": 83,
                    "time": 210.46614583333576,
                    "velocity": 0.6299212598425197,
                    "duration": 0.11458333333334281
                },
                {
                    "name": "A#2",
                    "midi": 46,
                    "time": 210.6666666666691,
                    "velocity": 0.6299212598425197,
                    "duration": 0.109375
                },
                {
                    "name": "A#3",
                    "midi": 58,
                    "time": 210.6666666666691,
                    "velocity": 0.6299212598425197,
                    "duration": 0.109375
                },
                {
                    "name": "C5",
                    "midi": 72,
                    "time": 210.6666666666691,
                    "velocity": 0.6299212598425197,
                    "duration": 0.109375
                },
                {
                    "name": "G5",
                    "midi": 79,
                    "time": 210.6666666666691,
                    "velocity": 0.6299212598425197,
                    "duration": 0.109375
                },
                {
                    "name": "A#5",
                    "midi": 82,
                    "time": 210.6666666666691,
                    "velocity": 0.6299212598425197,
                    "duration": 0.109375
                },
                {
                    "name": "C6",
                    "midi": 84,
                    "time": 210.6666666666691,
                    "velocity": 0.6299212598425197,
                    "duration": 0.11458333333334281
                },
                {
                    "name": "D#4",
                    "midi": 63,
                    "time": 210.86718750000244,
                    "velocity": 0.6299212598425197,
                    "duration": 0.0546875
                },
                {
                    "name": "G4",
                    "midi": 67,
                    "time": 210.86718750000244,
                    "velocity": 0.6299212598425197,
                    "duration": 0.0546875
                },
                {
                    "name": "B4",
                    "midi": 71,
                    "time": 210.86718750000244,
                    "velocity": 0.6299212598425197,
                    "duration": 0.078125
                },
                {
                    "name": "B5",
                    "midi": 83,
                    "time": 210.86718750000244,
                    "velocity": 0.6299212598425197,
                    "duration": 0.08333333333334281
                },
                {
                    "name": "D#3",
                    "midi": 51,
                    "time": 211.06510416666913,
                    "velocity": 0.6299212598425197,
                    "duration": 0.12239583333334281
                },
                {
                    "name": "D#4",
                    "midi": 63,
                    "time": 211.06510416666913,
                    "velocity": 0.6299212598425197,
                    "duration": 0.12239583333334281
                },
                {
                    "name": "C5",
                    "midi": 72,
                    "time": 211.06510416666913,
                    "velocity": 0.6299212598425197,
                    "duration": 0.12239583333334281
                },
                {
                    "name": "G5",
                    "midi": 79,
                    "time": 211.07031250000247,
                    "velocity": 0.6299212598425197,
                    "duration": 0.1171875
                },
                {
                    "name": "C6",
                    "midi": 84,
                    "time": 211.07031250000247,
                    "velocity": 0.6299212598425197,
                    "duration": 0.1171875
                },
                {
                    "name": "D3",
                    "midi": 50,
                    "time": 211.26562500000247,
                    "velocity": 0.6299212598425197,
                    "duration": 0.07291666666665719
                },
                {
                    "name": "B4",
                    "midi": 71,
                    "time": 211.26562500000247,
                    "velocity": 0.6299212598425197,
                    "duration": 0.07291666666665719
                },
                {
                    "name": "F#5",
                    "midi": 78,
                    "time": 211.26562500000247,
                    "velocity": 0.6299212598425197,
                    "duration": 0.07291666666665719
                },
                {
                    "name": "B5",
                    "midi": 83,
                    "time": 211.26562500000247,
                    "velocity": 0.6299212598425197,
                    "duration": 0.07291666666665719
                },
                {
                    "name": "D4",
                    "midi": 62,
                    "time": 211.28385416666913,
                    "velocity": 0.6299212598425197,
                    "duration": 0.0546875
                },
                {
                    "name": "C5",
                    "midi": 72,
                    "time": 211.3567708333358,
                    "velocity": 0.6299212598425197,
                    "duration": 0.1796875
                },
                {
                    "name": "G5",
                    "midi": 79,
                    "time": 211.36197916666913,
                    "velocity": 0.6299212598425197,
                    "duration": 0.16927083333331439
                },
                {
                    "name": "C6",
                    "midi": 84,
                    "time": 211.36197916666913,
                    "velocity": 0.6299212598425197,
                    "duration": 0.16927083333331439
                },
                {
                    "name": "C3",
                    "midi": 48,
                    "time": 211.4583333333358,
                    "velocity": 0.6299212598425197,
                    "duration": 0.07291666666665719
                },
                {
                    "name": "E3",
                    "midi": 52,
                    "time": 211.4583333333358,
                    "velocity": 0.6299212598425197,
                    "duration": 0.07291666666665719
                },
                {
                    "name": "C4",
                    "midi": 60,
                    "time": 211.4583333333358,
                    "velocity": 0.6299212598425197,
                    "duration": 0.07291666666665719
                },
                {
                    "name": "A#2",
                    "midi": 46,
                    "time": 211.65104166666913,
                    "velocity": 0.6299212598425197,
                    "duration": 0.08072916666665719
                },
                {
                    "name": "A#3",
                    "midi": 58,
                    "time": 211.65104166666913,
                    "velocity": 0.6299212598425197,
                    "duration": 0.08072916666665719
                },
                {
                    "name": "D#5",
                    "midi": 75,
                    "time": 211.65104166666913,
                    "velocity": 0.6299212598425197,
                    "duration": 0.08072916666665719
                },
                {
                    "name": "D#6",
                    "midi": 87,
                    "time": 211.65104166666913,
                    "velocity": 0.6299212598425197,
                    "duration": 0.0859375
                },
                {
                    "name": "C5",
                    "midi": 72,
                    "time": 211.75000000000247,
                    "velocity": 0.6299212598425197,
                    "duration": 0.12239583333334281
                },
                {
                    "name": "C6",
                    "midi": 84,
                    "time": 211.75260416666913,
                    "velocity": 0.6299212598425197,
                    "duration": 0.11979166666668561
                },
                {
                    "name": "D#3",
                    "midi": 51,
                    "time": 211.85937500000247,
                    "velocity": 0.6299212598425197,
                    "duration": 0.10156250000002842
                },
                {
                    "name": "A#3",
                    "midi": 58,
                    "time": 211.85937500000247,
                    "velocity": 0.6299212598425197,
                    "duration": 0.10156250000002842
                },
                {
                    "name": "D#4",
                    "midi": 63,
                    "time": 211.85937500000247,
                    "velocity": 0.6299212598425197,
                    "duration": 0.10156250000002842
                },
                {
                    "name": "D#5",
                    "midi": 75,
                    "time": 211.85937500000247,
                    "velocity": 0.6299212598425197,
                    "duration": 0.10156250000002842
                },
                {
                    "name": "G5",
                    "midi": 79,
                    "time": 211.85937500000247,
                    "velocity": 0.6299212598425197,
                    "duration": 0.07291666666668561
                },
                {
                    "name": "A#5",
                    "midi": 82,
                    "time": 211.85937500000247,
                    "velocity": 0.6299212598425197,
                    "duration": 0.07291666666668561
                },
                {
                    "name": "D#6",
                    "midi": 87,
                    "time": 211.85937500000247,
                    "velocity": 0.6299212598425197,
                    "duration": 0.10677083333337123
                },
                {
                    "name": "A#2",
                    "midi": 46,
                    "time": 212.05208333333584,
                    "velocity": 0.6299212598425197,
                    "duration": 0.1432291666666572
                },
                {
                    "name": "A#3",
                    "midi": 58,
                    "time": 212.05208333333584,
                    "velocity": 0.6299212598425197,
                    "duration": 0.1432291666666572
                },
                {
                    "name": "C5",
                    "midi": 72,
                    "time": 212.05208333333584,
                    "velocity": 0.6299212598425197,
                    "duration": 0.1432291666666572
                },
                {
                    "name": "G5",
                    "midi": 79,
                    "time": 212.05208333333584,
                    "velocity": 0.6299212598425197,
                    "duration": 0.07552083333331439
                },
                {
                    "name": "A#5",
                    "midi": 82,
                    "time": 212.05208333333584,
                    "velocity": 0.6299212598425197,
                    "duration": 0.07552083333331439
                },
                {
                    "name": "C6",
                    "midi": 84,
                    "time": 212.05208333333584,
                    "velocity": 0.6299212598425197,
                    "duration": 0.1432291666666572
                },
                {
                    "name": "A2",
                    "midi": 45,
                    "time": 212.24739583333584,
                    "velocity": 0.6299212598425197,
                    "duration": 0.11197916666665719
                },
                {
                    "name": "A3",
                    "midi": 57,
                    "time": 212.2500000000025,
                    "velocity": 0.6299212598425197,
                    "duration": 0.078125
                },
                {
                    "name": "C#5",
                    "midi": 73,
                    "time": 212.2500000000025,
                    "velocity": 0.6299212598425197,
                    "duration": 0.078125
                },
                {
                    "name": "G5",
                    "midi": 79,
                    "time": 212.2500000000025,
                    "velocity": 0.6299212598425197,
                    "duration": 0.08333333333334281
                },
                {
                    "name": "A#5",
                    "midi": 82,
                    "time": 212.25520833333584,
                    "velocity": 0.6299212598425197,
                    "duration": 0.078125
                },
                {
                    "name": "C#6",
                    "midi": 85,
                    "time": 212.25520833333584,
                    "velocity": 0.6299212598425197,
                    "duration": 0.078125
                },
                {
                    "name": "G#2",
                    "midi": 44,
                    "time": 212.44270833333584,
                    "velocity": 0.6299212598425197,
                    "duration": 0.11979166666668561
                },
                {
                    "name": "G#3",
                    "midi": 56,
                    "time": 212.44270833333584,
                    "velocity": 0.6299212598425197,
                    "duration": 0.12239583333334281
                },
                {
                    "name": "C5",
                    "midi": 72,
                    "time": 212.44270833333584,
                    "velocity": 0.6299212598425197,
                    "duration": 0.12239583333334281
                },
                {
                    "name": "C6",
                    "midi": 84,
                    "time": 212.4557291666692,
                    "velocity": 0.6299212598425197,
                    "duration": 0.109375
                },
                {
                    "name": "A#2",
                    "midi": 46,
                    "time": 212.6588541666692,
                    "velocity": 0.6299212598425197,
                    "duration": 0.3307291666666856
                },
                {
                    "name": "G3",
                    "midi": 55,
                    "time": 212.6588541666692,
                    "velocity": 0.6299212598425197,
                    "duration": 0.11458333333334281
                },
                {
                    "name": "A#4",
                    "midi": 70,
                    "time": 212.6588541666692,
                    "velocity": 0.6299212598425197,
                    "duration": 0.2317708333333428
                },
                {
                    "name": "G5",
                    "midi": 79,
                    "time": 212.6588541666692,
                    "velocity": 0.6299212598425197,
                    "duration": 0.0546875
                },
                {
                    "name": "A#5",
                    "midi": 82,
                    "time": 212.66406250000253,
                    "velocity": 0.6299212598425197,
                    "duration": 0.04947916666665719
                },
                {
                    "name": "A#5",
                    "midi": 82,
                    "time": 212.7682291666692,
                    "velocity": 0.6299212598425197,
                    "duration": 0.12239583333334281
                },
                {
                    "name": "A#3",
                    "midi": 58,
                    "time": 212.86718750000253,
                    "velocity": 0.6299212598425197,
                    "duration": 0.22916666666671404
                },
                {
                    "name": "C5",
                    "midi": 72,
                    "time": 212.86718750000253,
                    "velocity": 0.6299212598425197,
                    "duration": 0.19531250000002842
                },
                {
                    "name": "G5",
                    "midi": 79,
                    "time": 212.8776041666692,
                    "velocity": 0.6299212598425197,
                    "duration": 0.11718750000002842
                },
                {
                    "name": "C6",
                    "midi": 84,
                    "time": 212.8776041666692,
                    "velocity": 0.6299212598425197,
                    "duration": 0.18489583333337123
                },
                {
                    "name": "D#2",
                    "midi": 39,
                    "time": 213.07812500000256,
                    "velocity": 0.6299212598425197,
                    "duration": 0.7630208333333428
                },
                {
                    "name": "D#3",
                    "midi": 51,
                    "time": 213.07812500000256,
                    "velocity": 0.6299212598425197,
                    "duration": 0.7630208333333428
                },
                {
                    "name": "G4",
                    "midi": 67,
                    "time": 213.07812500000256,
                    "velocity": 0.6299212598425197,
                    "duration": 0.7343750000000284
                },
                {
                    "name": "C#5",
                    "midi": 73,
                    "time": 213.07812500000256,
                    "velocity": 0.6299212598425197,
                    "duration": 0.7369791666666856
                },
                {
                    "name": "D#5",
                    "midi": 75,
                    "time": 213.07812500000256,
                    "velocity": 0.6299212598425197,
                    "duration": 0.7369791666666856
                },
                {
                    "name": "G5",
                    "midi": 79,
                    "time": 213.0833333333359,
                    "velocity": 0.6299212598425197,
                    "duration": 0.7317708333333428
                }
            ],
            "controlChanges": {
                "64": [
                    {
                        "number": 64,
                        "time": 0.036458333333333336,
                        "value": 1
                    },
                    {
                        "number": 64,
                        "time": 0.09114583333333334,
                        "value": 0
                    },
                    {
                        "number": 64,
                        "time": 0.7786458333333335,
                        "value": 1
                    },
                    {
                        "number": 64,
                        "time": 0.9817708333333336,
                        "value": 0
                    },
                    {
                        "number": 64,
                        "time": 2.364583333333334,
                        "value": 1
                    },
                    {
                        "number": 64,
                        "time": 2.5442708333333344,
                        "value": 0
                    },
                    {
                        "number": 64,
                        "time": 4.106770833333334,
                        "value": 1
                    },
                    {
                        "number": 64,
                        "time": 4.281250000000001,
                        "value": 0
                    },
                    {
                        "number": 64,
                        "time": 5.559895833333333,
                        "value": 1
                    },
                    {
                        "number": 64,
                        "time": 5.700520833333333,
                        "value": 0
                    },
                    {
                        "number": 64,
                        "time": 7.169270833333333,
                        "value": 1
                    },
                    {
                        "number": 64,
                        "time": 7.682291666666666,
                        "value": 0
                    },
                    {
                        "number": 64,
                        "time": 8.765625,
                        "value": 1
                    },
                    {
                        "number": 64,
                        "time": 9.151041666666668,
                        "value": 0
                    },
                    {
                        "number": 64,
                        "time": 10.390625000000002,
                        "value": 1
                    },
                    {
                        "number": 64,
                        "time": 10.536458333333336,
                        "value": 0
                    },
                    {
                        "number": 64,
                        "time": 11.98697916666667,
                        "value": 1
                    },
                    {
                        "number": 64,
                        "time": 12.294270833333337,
                        "value": 0
                    },
                    {
                        "number": 64,
                        "time": 13.611979166666677,
                        "value": 1
                    },
                    {
                        "number": 64,
                        "time": 13.86718750000001,
                        "value": 0
                    },
                    {
                        "number": 64,
                        "time": 15.179687500000012,
                        "value": 1
                    },
                    {
                        "number": 64,
                        "time": 15.421875000000012,
                        "value": 0
                    },
                    {
                        "number": 64,
                        "time": 16.807291666666682,
                        "value": 1
                    },
                    {
                        "number": 64,
                        "time": 16.971354166666682,
                        "value": 0
                    },
                    {
                        "number": 64,
                        "time": 18.377604166666675,
                        "value": 1
                    },
                    {
                        "number": 64,
                        "time": 18.549479166666675,
                        "value": 0
                    },
                    {
                        "number": 64,
                        "time": 19.958333333333346,
                        "value": 1
                    },
                    {
                        "number": 64,
                        "time": 20.171875000000014,
                        "value": 0
                    },
                    {
                        "number": 64,
                        "time": 21.559895833333353,
                        "value": 1
                    },
                    {
                        "number": 64,
                        "time": 21.739583333333353,
                        "value": 0
                    },
                    {
                        "number": 64,
                        "time": 23.195312500000018,
                        "value": 1
                    },
                    {
                        "number": 64,
                        "time": 23.377604166666682,
                        "value": 0
                    },
                    {
                        "number": 64,
                        "time": 24.877604166666675,
                        "value": 1
                    },
                    {
                        "number": 64,
                        "time": 25.13281250000001,
                        "value": 0
                    },
                    {
                        "number": 64,
                        "time": 26.390625,
                        "value": 1
                    },
                    {
                        "number": 64,
                        "time": 26.570312499999996,
                        "value": 0
                    },
                    {
                        "number": 64,
                        "time": 27.97656249999999,
                        "value": 1
                    },
                    {
                        "number": 64,
                        "time": 28.182291666666654,
                        "value": 0
                    },
                    {
                        "number": 64,
                        "time": 29.604166666666654,
                        "value": 1
                    },
                    {
                        "number": 64,
                        "time": 29.81510416666665,
                        "value": 0
                    },
                    {
                        "number": 64,
                        "time": 31.19791666666665,
                        "value": 1
                    },
                    {
                        "number": 64,
                        "time": 31.33593749999998,
                        "value": 0
                    },
                    {
                        "number": 64,
                        "time": 32.77864583333332,
                        "value": 1
                    },
                    {
                        "number": 64,
                        "time": 32.96093749999999,
                        "value": 0
                    },
                    {
                        "number": 64,
                        "time": 34.36197916666666,
                        "value": 1
                    },
                    {
                        "number": 64,
                        "time": 34.56510416666666,
                        "value": 0
                    },
                    {
                        "number": 64,
                        "time": 35.99739583333333,
                        "value": 1
                    },
                    {
                        "number": 64,
                        "time": 36.20052083333333,
                        "value": 0
                    },
                    {
                        "number": 64,
                        "time": 37.598958333333336,
                        "value": 1
                    },
                    {
                        "number": 64,
                        "time": 37.817708333333336,
                        "value": 0
                    },
                    {
                        "number": 64,
                        "time": 39.19791666666668,
                        "value": 1
                    },
                    {
                        "number": 64,
                        "time": 39.41145833333335,
                        "value": 0
                    },
                    {
                        "number": 64,
                        "time": 40.80208333333335,
                        "value": 1
                    },
                    {
                        "number": 64,
                        "time": 41.05208333333335,
                        "value": 0
                    },
                    {
                        "number": 64,
                        "time": 42.406250000000014,
                        "value": 1
                    },
                    {
                        "number": 64,
                        "time": 42.658854166666686,
                        "value": 0
                    },
                    {
                        "number": 64,
                        "time": 44.04687500000002,
                        "value": 1
                    },
                    {
                        "number": 64,
                        "time": 44.26302083333336,
                        "value": 0
                    },
                    {
                        "number": 64,
                        "time": 45.61718750000002,
                        "value": 1
                    },
                    {
                        "number": 64,
                        "time": 45.81250000000003,
                        "value": 0
                    },
                    {
                        "number": 64,
                        "time": 47.25000000000002,
                        "value": 1
                    },
                    {
                        "number": 64,
                        "time": 47.47135416666669,
                        "value": 0
                    },
                    {
                        "number": 64,
                        "time": 48.859375000000036,
                        "value": 1
                    },
                    {
                        "number": 64,
                        "time": 49.132812500000036,
                        "value": 0
                    },
                    {
                        "number": 64,
                        "time": 50.47916666666671,
                        "value": 1
                    },
                    {
                        "number": 64,
                        "time": 50.73437500000005,
                        "value": 0
                    },
                    {
                        "number": 64,
                        "time": 52.091145833333385,
                        "value": 1
                    },
                    {
                        "number": 64,
                        "time": 52.38802083333339,
                        "value": 0
                    },
                    {
                        "number": 64,
                        "time": 53.61979166666673,
                        "value": 1
                    },
                    {
                        "number": 64,
                        "time": 53.908854166666735,
                        "value": 0
                    },
                    {
                        "number": 64,
                        "time": 55.25520833333338,
                        "value": 1
                    },
                    {
                        "number": 64,
                        "time": 55.55468750000005,
                        "value": 0
                    },
                    {
                        "number": 64,
                        "time": 56.82812500000006,
                        "value": 1
                    },
                    {
                        "number": 64,
                        "time": 57.11979166666672,
                        "value": 0
                    },
                    {
                        "number": 64,
                        "time": 58.45833333333341,
                        "value": 1
                    },
                    {
                        "number": 64,
                        "time": 58.73437500000008,
                        "value": 0
                    },
                    {
                        "number": 64,
                        "time": 60.062500000000085,
                        "value": 1
                    },
                    {
                        "number": 64,
                        "time": 60.41145833333342,
                        "value": 0
                    },
                    {
                        "number": 64,
                        "time": 61.63802083333343,
                        "value": 1
                    },
                    {
                        "number": 64,
                        "time": 61.97395833333343,
                        "value": 0
                    },
                    {
                        "number": 64,
                        "time": 63.25781250000009,
                        "value": 1
                    },
                    {
                        "number": 64,
                        "time": 63.53906250000009,
                        "value": 0
                    },
                    {
                        "number": 64,
                        "time": 64.90104166666674,
                        "value": 1
                    },
                    {
                        "number": 64,
                        "time": 65.16406250000007,
                        "value": 0
                    },
                    {
                        "number": 64,
                        "time": 66.46093750000003,
                        "value": 1
                    },
                    {
                        "number": 64,
                        "time": 66.78385416666669,
                        "value": 0
                    },
                    {
                        "number": 64,
                        "time": 68.07291666666664,
                        "value": 1
                    },
                    {
                        "number": 64,
                        "time": 68.31249999999996,
                        "value": 0
                    },
                    {
                        "number": 64,
                        "time": 69.7682291666666,
                        "value": 1
                    },
                    {
                        "number": 64,
                        "time": 70.17968749999993,
                        "value": 0
                    },
                    {
                        "number": 64,
                        "time": 71.25781249999991,
                        "value": 1
                    },
                    {
                        "number": 64,
                        "time": 71.70312499999987,
                        "value": 0
                    },
                    {
                        "number": 64,
                        "time": 72.87760416666652,
                        "value": 1
                    },
                    {
                        "number": 64,
                        "time": 73.25520833333316,
                        "value": 0
                    },
                    {
                        "number": 64,
                        "time": 74.4713541666665,
                        "value": 1
                    },
                    {
                        "number": 64,
                        "time": 74.78645833333316,
                        "value": 0
                    },
                    {
                        "number": 64,
                        "time": 76.05729166666644,
                        "value": 1
                    },
                    {
                        "number": 64,
                        "time": 76.3255208333331,
                        "value": 0
                    },
                    {
                        "number": 64,
                        "time": 77.6197916666664,
                        "value": 1
                    },
                    {
                        "number": 64,
                        "time": 77.90104166666639,
                        "value": 0
                    },
                    {
                        "number": 64,
                        "time": 79.19270833333302,
                        "value": 1
                    },
                    {
                        "number": 64,
                        "time": 79.54687499999966,
                        "value": 0
                    },
                    {
                        "number": 64,
                        "time": 80.82031249999963,
                        "value": 1
                    },
                    {
                        "number": 64,
                        "time": 81.17968749999962,
                        "value": 0
                    },
                    {
                        "number": 64,
                        "time": 82.36979166666629,
                        "value": 1
                    },
                    {
                        "number": 64,
                        "time": 82.57812499999962,
                        "value": 0
                    },
                    {
                        "number": 64,
                        "time": 84.02864583333293,
                        "value": 1
                    },
                    {
                        "number": 64,
                        "time": 84.53906249999962,
                        "value": 0
                    },
                    {
                        "number": 64,
                        "time": 85.60677083333296,
                        "value": 1
                    },
                    {
                        "number": 64,
                        "time": 85.98958333333294,
                        "value": 0
                    },
                    {
                        "number": 64,
                        "time": 87.2421874999996,
                        "value": 1
                    },
                    {
                        "number": 64,
                        "time": 87.38020833333293,
                        "value": 0
                    },
                    {
                        "number": 64,
                        "time": 88.8281249999996,
                        "value": 1
                    },
                    {
                        "number": 64,
                        "time": 89.15364583333293,
                        "value": 0
                    },
                    {
                        "number": 64,
                        "time": 90.4609374999996,
                        "value": 1
                    },
                    {
                        "number": 64,
                        "time": 90.73958333333293,
                        "value": 0
                    },
                    {
                        "number": 64,
                        "time": 92.05729166666625,
                        "value": 1
                    },
                    {
                        "number": 64,
                        "time": 92.29947916666625,
                        "value": 0
                    },
                    {
                        "number": 64,
                        "time": 93.65364583333286,
                        "value": 1
                    },
                    {
                        "number": 64,
                        "time": 93.83593749999953,
                        "value": 0
                    },
                    {
                        "number": 64,
                        "time": 95.28906249999955,
                        "value": 1
                    },
                    {
                        "number": 64,
                        "time": 95.47656249999955,
                        "value": 0
                    },
                    {
                        "number": 64,
                        "time": 96.87499999999955,
                        "value": 1
                    },
                    {
                        "number": 64,
                        "time": 97.08333333333287,
                        "value": 0
                    },
                    {
                        "number": 64,
                        "time": 98.48958333333283,
                        "value": 1
                    },
                    {
                        "number": 64,
                        "time": 98.65885416666616,
                        "value": 0
                    },
                    {
                        "number": 64,
                        "time": 100.04427083333282,
                        "value": 1
                    },
                    {
                        "number": 64,
                        "time": 100.22656249999949,
                        "value": 0
                    },
                    {
                        "number": 64,
                        "time": 101.77343749999947,
                        "value": 1
                    },
                    {
                        "number": 64,
                        "time": 102.0286458333328,
                        "value": 0
                    },
                    {
                        "number": 64,
                        "time": 103.28645833333285,
                        "value": 1
                    },
                    {
                        "number": 64,
                        "time": 103.46354166666617,
                        "value": 0
                    },
                    {
                        "number": 64,
                        "time": 104.89583333333283,
                        "value": 1
                    },
                    {
                        "number": 64,
                        "time": 105.1171874999995,
                        "value": 0
                    },
                    {
                        "number": 64,
                        "time": 106.48437499999947,
                        "value": 1
                    },
                    {
                        "number": 64,
                        "time": 106.68229166666616,
                        "value": 0
                    },
                    {
                        "number": 64,
                        "time": 108.07552083333282,
                        "value": 1
                    },
                    {
                        "number": 64,
                        "time": 108.25781249999947,
                        "value": 0
                    },
                    {
                        "number": 64,
                        "time": 109.70312499999945,
                        "value": 1
                    },
                    {
                        "number": 64,
                        "time": 109.9713541666661,
                        "value": 0
                    },
                    {
                        "number": 64,
                        "time": 111.25520833333277,
                        "value": 1
                    },
                    {
                        "number": 64,
                        "time": 111.60677083333276,
                        "value": 0
                    },
                    {
                        "number": 64,
                        "time": 112.82812499999937,
                        "value": 1
                    },
                    {
                        "number": 64,
                        "time": 113.16666666666605,
                        "value": 0
                    },
                    {
                        "number": 64,
                        "time": 114.432291666666,
                        "value": 1
                    },
                    {
                        "number": 64,
                        "time": 114.71614583333266,
                        "value": 0
                    },
                    {
                        "number": 64,
                        "time": 116.0755208333326,
                        "value": 1
                    },
                    {
                        "number": 64,
                        "time": 116.3567708333326,
                        "value": 0
                    },
                    {
                        "number": 64,
                        "time": 117.63802083333258,
                        "value": 1
                    },
                    {
                        "number": 64,
                        "time": 117.94791666666589,
                        "value": 0
                    },
                    {
                        "number": 64,
                        "time": 119.23437499999919,
                        "value": 1
                    },
                    {
                        "number": 64,
                        "time": 119.48177083333252,
                        "value": 0
                    },
                    {
                        "number": 64,
                        "time": 120.9401041666658,
                        "value": 1
                    },
                    {
                        "number": 64,
                        "time": 121.35156249999912,
                        "value": 0
                    },
                    {
                        "number": 64,
                        "time": 122.43749999999908,
                        "value": 1
                    },
                    {
                        "number": 64,
                        "time": 122.89062499999905,
                        "value": 0
                    },
                    {
                        "number": 64,
                        "time": 124.04687499999903,
                        "value": 1
                    },
                    {
                        "number": 64,
                        "time": 124.41406249999903,
                        "value": 0
                    },
                    {
                        "number": 64,
                        "time": 125.63802083333235,
                        "value": 1
                    },
                    {
                        "number": 64,
                        "time": 125.95312499999899,
                        "value": 0
                    },
                    {
                        "number": 64,
                        "time": 127.21874999999896,
                        "value": 1
                    },
                    {
                        "number": 64,
                        "time": 127.4947916666656,
                        "value": 0
                    },
                    {
                        "number": 64,
                        "time": 128.79947916666566,
                        "value": 1
                    },
                    {
                        "number": 64,
                        "time": 129.07291666666566,
                        "value": 0
                    },
                    {
                        "number": 64,
                        "time": 130.40364583333246,
                        "value": 1
                    },
                    {
                        "number": 64,
                        "time": 130.72656249999912,
                        "value": 0
                    },
                    {
                        "number": 64,
                        "time": 132.0026041666658,
                        "value": 1
                    },
                    {
                        "number": 64,
                        "time": 132.34635416666583,
                        "value": 0
                    },
                    {
                        "number": 64,
                        "time": 133.59114583333255,
                        "value": 1
                    },
                    {
                        "number": 64,
                        "time": 133.91145833333258,
                        "value": 0
                    },
                    {
                        "number": 64,
                        "time": 135.20833333333263,
                        "value": 1
                    },
                    {
                        "number": 64,
                        "time": 135.44531249999932,
                        "value": 0
                    },
                    {
                        "number": 64,
                        "time": 136.93749999999932,
                        "value": 1
                    },
                    {
                        "number": 64,
                        "time": 137.18229166666598,
                        "value": 0
                    },
                    {
                        "number": 64,
                        "time": 138.43749999999935,
                        "value": 1
                    },
                    {
                        "number": 64,
                        "time": 138.71614583333266,
                        "value": 0
                    },
                    {
                        "number": 64,
                        "time": 139.9739583333327,
                        "value": 1
                    },
                    {
                        "number": 64,
                        "time": 140.31770833333275,
                        "value": 0
                    },
                    {
                        "number": 64,
                        "time": 141.68489583333272,
                        "value": 1
                    },
                    {
                        "number": 64,
                        "time": 141.98958333333272,
                        "value": 0
                    },
                    {
                        "number": 64,
                        "time": 143.23437499999937,
                        "value": 1
                    },
                    {
                        "number": 64,
                        "time": 143.6536458333327,
                        "value": 0
                    },
                    {
                        "number": 64,
                        "time": 144.7916666666661,
                        "value": 1
                    },
                    {
                        "number": 64,
                        "time": 145.17968749999943,
                        "value": 0
                    },
                    {
                        "number": 64,
                        "time": 146.40104166666615,
                        "value": 1
                    },
                    {
                        "number": 64,
                        "time": 146.7421874999995,
                        "value": 0
                    },
                    {
                        "number": 64,
                        "time": 147.99999999999952,
                        "value": 1
                    },
                    {
                        "number": 64,
                        "time": 148.2838541666662,
                        "value": 0
                    },
                    {
                        "number": 64,
                        "time": 149.59895833333292,
                        "value": 1
                    },
                    {
                        "number": 64,
                        "time": 149.87499999999957,
                        "value": 0
                    },
                    {
                        "number": 64,
                        "time": 151.1979166666663,
                        "value": 1
                    },
                    {
                        "number": 64,
                        "time": 151.5651041666663,
                        "value": 0
                    },
                    {
                        "number": 64,
                        "time": 152.7916666666663,
                        "value": 1
                    },
                    {
                        "number": 64,
                        "time": 153.08854166666632,
                        "value": 0
                    },
                    {
                        "number": 64,
                        "time": 154.36718749999972,
                        "value": 1
                    },
                    {
                        "number": 64,
                        "time": 154.64322916666637,
                        "value": 0
                    },
                    {
                        "number": 64,
                        "time": 155.93749999999974,
                        "value": 1
                    },
                    {
                        "number": 64,
                        "time": 156.2083333333331,
                        "value": 0
                    },
                    {
                        "number": 64,
                        "time": 157.52604166666646,
                        "value": 1
                    },
                    {
                        "number": 64,
                        "time": 157.80729166666646,
                        "value": 0
                    },
                    {
                        "number": 64,
                        "time": 159.0755208333332,
                        "value": 1
                    },
                    {
                        "number": 64,
                        "time": 159.34374999999986,
                        "value": 0
                    },
                    {
                        "number": 64,
                        "time": 160.7630208333332,
                        "value": 1
                    },
                    {
                        "number": 64,
                        "time": 161.10416666666654,
                        "value": 0
                    },
                    {
                        "number": 64,
                        "time": 162.35937499999991,
                        "value": 1
                    },
                    {
                        "number": 64,
                        "time": 162.6927083333333,
                        "value": 0
                    },
                    {
                        "number": 64,
                        "time": 163.95833333333337,
                        "value": 1
                    },
                    {
                        "number": 64,
                        "time": 164.23177083333337,
                        "value": 0
                    },
                    {
                        "number": 64,
                        "time": 165.50260416666669,
                        "value": 1
                    },
                    {
                        "number": 64,
                        "time": 165.81770833333337,
                        "value": 0
                    },
                    {
                        "number": 64,
                        "time": 167.17968750000006,
                        "value": 1
                    },
                    {
                        "number": 64,
                        "time": 167.32291666666674,
                        "value": 0
                    },
                    {
                        "number": 64,
                        "time": 168.75000000000014,
                        "value": 1
                    },
                    {
                        "number": 64,
                        "time": 169.00000000000014,
                        "value": 0
                    },
                    {
                        "number": 64,
                        "time": 170.34895833333357,
                        "value": 1
                    },
                    {
                        "number": 64,
                        "time": 170.69531250000026,
                        "value": 0
                    },
                    {
                        "number": 64,
                        "time": 171.9218750000003,
                        "value": 1
                    },
                    {
                        "number": 64,
                        "time": 172.24218750000034,
                        "value": 0
                    },
                    {
                        "number": 64,
                        "time": 173.52864583333374,
                        "value": 1
                    },
                    {
                        "number": 64,
                        "time": 173.85156250000043,
                        "value": 0
                    },
                    {
                        "number": 64,
                        "time": 175.12239583333385,
                        "value": 1
                    },
                    {
                        "number": 64,
                        "time": 175.4479166666672,
                        "value": 0
                    },
                    {
                        "number": 64,
                        "time": 176.72135416666728,
                        "value": 1
                    },
                    {
                        "number": 64,
                        "time": 177.0651041666673,
                        "value": 0
                    },
                    {
                        "number": 64,
                        "time": 178.30729166666745,
                        "value": 1
                    },
                    {
                        "number": 64,
                        "time": 178.64062500000082,
                        "value": 0
                    },
                    {
                        "number": 64,
                        "time": 179.91927083333422,
                        "value": 1
                    },
                    {
                        "number": 64,
                        "time": 180.2500000000009,
                        "value": 0
                    },
                    {
                        "number": 64,
                        "time": 181.47656250000102,
                        "value": 1
                    },
                    {
                        "number": 64,
                        "time": 181.75520833333437,
                        "value": 0
                    },
                    {
                        "number": 64,
                        "time": 183.09375000000108,
                        "value": 1
                    },
                    {
                        "number": 64,
                        "time": 183.39843750000108,
                        "value": 0
                    },
                    {
                        "number": 64,
                        "time": 184.69791666666782,
                        "value": 1
                    },
                    {
                        "number": 64,
                        "time": 184.9921875000012,
                        "value": 0
                    },
                    {
                        "number": 64,
                        "time": 186.26822916666805,
                        "value": 1
                    },
                    {
                        "number": 64,
                        "time": 186.5625000000014,
                        "value": 0
                    },
                    {
                        "number": 64,
                        "time": 187.88020833333476,
                        "value": 1
                    },
                    {
                        "number": 64,
                        "time": 188.19010416666814,
                        "value": 0
                    },
                    {
                        "number": 64,
                        "time": 189.49479166666825,
                        "value": 1
                    },
                    {
                        "number": 64,
                        "time": 189.7630208333349,
                        "value": 0
                    },
                    {
                        "number": 64,
                        "time": 191.10677083333493,
                        "value": 1
                    },
                    {
                        "number": 64,
                        "time": 191.38541666666828,
                        "value": 0
                    },
                    {
                        "number": 64,
                        "time": 192.67708333333502,
                        "value": 1
                    },
                    {
                        "number": 64,
                        "time": 192.95833333333505,
                        "value": 0
                    },
                    {
                        "number": 64,
                        "time": 194.3072916666685,
                        "value": 1
                    },
                    {
                        "number": 64,
                        "time": 194.6119791666685,
                        "value": 0
                    },
                    {
                        "number": 64,
                        "time": 195.88020833333522,
                        "value": 1
                    },
                    {
                        "number": 64,
                        "time": 196.17447916666856,
                        "value": 0
                    },
                    {
                        "number": 64,
                        "time": 197.48437500000193,
                        "value": 1
                    },
                    {
                        "number": 64,
                        "time": 197.63020833333528,
                        "value": 0
                    },
                    {
                        "number": 64,
                        "time": 199.07812500000196,
                        "value": 1
                    },
                    {
                        "number": 64,
                        "time": 199.37500000000196,
                        "value": 0
                    },
                    {
                        "number": 64,
                        "time": 200.69531250000196,
                        "value": 1
                    },
                    {
                        "number": 64,
                        "time": 200.968750000002,
                        "value": 0
                    },
                    {
                        "number": 64,
                        "time": 202.30729166666873,
                        "value": 1
                    },
                    {
                        "number": 64,
                        "time": 202.61197916666876,
                        "value": 0
                    },
                    {
                        "number": 64,
                        "time": 203.8802083333355,
                        "value": 1
                    },
                    {
                        "number": 64,
                        "time": 204.19010416666887,
                        "value": 0
                    },
                    {
                        "number": 64,
                        "time": 205.4947916666689,
                        "value": 1
                    },
                    {
                        "number": 64,
                        "time": 205.74218750000225,
                        "value": 0
                    },
                    {
                        "number": 64,
                        "time": 207.11979166666893,
                        "value": 1
                    },
                    {
                        "number": 64,
                        "time": 207.46354166666896,
                        "value": 0
                    },
                    {
                        "number": 64,
                        "time": 208.72916666666896,
                        "value": 1
                    },
                    {
                        "number": 64,
                        "time": 209.09895833333564,
                        "value": 0
                    },
                    {
                        "number": 64,
                        "time": 210.30468750000242,
                        "value": 1
                    },
                    {
                        "number": 64,
                        "time": 210.64843750000244,
                        "value": 0
                    },
                    {
                        "number": 64,
                        "time": 211.85937500000247,
                        "value": 1
                    },
                    {
                        "number": 64,
                        "time": 212.1250000000025,
                        "value": 0
                    },
                    {
                        "number": 64,
                        "time": 213.4375000000026,
                        "value": 1
                    },
                    {
                        "number": 64,
                        "time": 213.76822916666924,
                        "value": 0
                    }
                ]
            },
            "id": 1,
            "name": "Mr. Jelly Lord (1924)",
            "channelNumber": 0,
            "isPercussion": false
        },
        {
            "startTime": 0,
            "duration": 0,
            "length": 0,
            "notes": [],
            "controlChanges": {},
            "id": 2,
            "name": "c/b Jelly Roll Morton"
        },
        {
            "startTime": 0,
            "duration": 0,
            "length": 0,
            "notes": [],
            "controlChanges": {},
            "id": 3,
            "name": "p/b Jelly Roll Morton"
        },
        {
            "startTime": 0,
            "duration": 0,
            "length": 0,
            "notes": [],
            "controlChanges": {},
            "id": 4,
            "name": "QRS # 159 (Vocalstyle # 12973)"
        },
        {
            "startTime": 0,
            "duration": 0,
            "length": 0,
            "notes": [],
            "controlChanges": {},
            "id": 5,
            "name": "Scan of a player piano roll"
        },
        {
            "startTime": 0,
            "duration": 0,
            "length": 0,
            "notes": [],
            "controlChanges": {},
            "id": 6,
            "name": "by Terry Smythe, Winnipeg, Canada"
        },
        {
            "startTime": 0,
            "duration": 0,
            "length": 0,
            "notes": [],
            "controlChanges": {},
            "id": 7
        }
    ]
}