{
    "header": {
        "PPQ": 480,
        "bpm": 92.95004864385879,
        "timeSignature": [
            3,
            4
        ],
        "name": "============="
    },
    "startTime": 0,
    "duration": 96.82620000000033,
    "tracks": [
        {
            "startTime": 0,
            "duration": 0,
            "length": 0,
            "notes": [],
            "controlChanges": {},
            "id": 0
        },
        {
            "startTime": 0,
            "duration": 96.82620000000033,
            "length": 248,
            "notes": [
                {
                    "name": "F5",
                    "midi": 77,
                    "time": 0,
                    "velocity": 0.5669291338582677,
                    "duration": 0.484131
                },
                {
                    "name": "C5",
                    "midi": 72,
                    "time": 0.484131,
                    "velocity": 0.5669291338582677,
                    "duration": 0.161377
                },
                {
                    "name": "C#5",
                    "midi": 73,
                    "time": 0.645508,
                    "velocity": 0.5669291338582677,
                    "duration": 0.8068849999999999
                },
                {
                    "name": "C5",
                    "midi": 72,
                    "time": 1.4523929999999998,
                    "velocity": 0.5669291338582677,
                    "duration": 0.16137699999999988
                },
                {
                    "name": "A#4",
                    "midi": 70,
                    "time": 1.6137699999999997,
                    "velocity": 0.5669291338582677,
                    "duration": 0.16137699999999988
                },
                {
                    "name": "C5",
                    "midi": 72,
                    "time": 1.7751469999999996,
                    "velocity": 0.5669291338582677,
                    "duration": 0.16137699999999988
                },
                {
                    "name": "C#5",
                    "midi": 73,
                    "time": 1.9365239999999995,
                    "velocity": 0.5669291338582677,
                    "duration": 0.4841310000000001
                },
                {
                    "name": "C5",
                    "midi": 72,
                    "time": 2.4206549999999996,
                    "velocity": 0.5669291338582677,
                    "duration": 0.16137699999999988
                },
                {
                    "name": "D#5",
                    "midi": 75,
                    "time": 2.5820319999999994,
                    "velocity": 0.5669291338582677,
                    "duration": 1.4523929999999994
                },
                {
                    "name": "C#5",
                    "midi": 73,
                    "time": 4.034424999999999,
                    "velocity": 0.5669291338582677,
                    "duration": 0.16137699999999988
                },
                {
                    "name": "C5",
                    "midi": 72,
                    "time": 4.195801999999999,
                    "velocity": 0.5669291338582677,
                    "duration": 0.16137699999999988
                },
                {
                    "name": "C#5",
                    "midi": 73,
                    "time": 4.357178999999999,
                    "velocity": 0.5669291338582677,
                    "duration": 0.16137699999999988
                },
                {
                    "name": "A#4",
                    "midi": 70,
                    "time": 4.5185559999999985,
                    "velocity": 0.5669291338582677,
                    "duration": 0.32275399999999976
                },
                {
                    "name": "G#4",
                    "midi": 68,
                    "time": 4.841309999999998,
                    "velocity": 0.5669291338582677,
                    "duration": 0.32275399999999976
                },
                {
                    "name": "G4",
                    "midi": 67,
                    "time": 5.164063999999998,
                    "velocity": 0.5669291338582677,
                    "duration": 0.32275399999999976
                },
                {
                    "name": "F4",
                    "midi": 65,
                    "time": 5.486817999999998,
                    "velocity": 0.5669291338582677,
                    "duration": 0.32275399999999976
                },
                {
                    "name": "G4",
                    "midi": 67,
                    "time": 5.8095719999999975,
                    "velocity": 0.5669291338582677,
                    "duration": 0.48413099999999964
                },
                {
                    "name": "G#4",
                    "midi": 68,
                    "time": 6.293702999999997,
                    "velocity": 0.5669291338582677,
                    "duration": 0.16137699999999988
                },
                {
                    "name": "A#4",
                    "midi": 70,
                    "time": 6.455079999999997,
                    "velocity": 0.5669291338582677,
                    "duration": 1.2103275
                },
                {
                    "name": "G#4",
                    "midi": 68,
                    "time": 7.746095999999997,
                    "velocity": 0.5905511811023622,
                    "duration": 0.48413100000000053
                },
                {
                    "name": "A#4",
                    "midi": 70,
                    "time": 8.230226999999998,
                    "velocity": 0.6062992125984252,
                    "duration": 0.16137699999999988
                },
                {
                    "name": "C5",
                    "midi": 72,
                    "time": 8.391603999999997,
                    "velocity": 0.6141732283464567,
                    "duration": 0.32275399999999976
                },
                {
                    "name": "C#5",
                    "midi": 73,
                    "time": 8.714357999999997,
                    "velocity": 0.6299212598425197,
                    "duration": 0.32275399999999976
                },
                {
                    "name": "D#5",
                    "midi": 75,
                    "time": 9.037111999999997,
                    "velocity": 0.6377952755905512,
                    "duration": 0.32275399999999976
                },
                {
                    "name": "F5",
                    "midi": 77,
                    "time": 9.359865999999997,
                    "velocity": 0.6535433070866141,
                    "duration": 0.32275399999999976
                },
                {
                    "name": "G5",
                    "midi": 79,
                    "time": 9.682619999999996,
                    "velocity": 0.6692913385826772,
                    "duration": 0.16137699999999988
                },
                {
                    "name": "F5",
                    "midi": 77,
                    "time": 9.843996999999996,
                    "velocity": 0.6692913385826772,
                    "duration": 0.16137699999999988
                },
                {
                    "name": "G#5",
                    "midi": 80,
                    "time": 10.005373999999996,
                    "velocity": 0.6771653543307087,
                    "duration": 0.16137699999999988
                },
                {
                    "name": "G5",
                    "midi": 79,
                    "time": 10.166750999999996,
                    "velocity": 0.6850393700787402,
                    "duration": 0.16137699999999988
                },
                {
                    "name": "F5",
                    "midi": 77,
                    "time": 10.328127999999996,
                    "velocity": 0.6929133858267716,
                    "duration": 0.8068849999999994
                },
                {
                    "name": "G5",
                    "midi": 79,
                    "time": 11.296389999999995,
                    "velocity": 0.7322834645669292,
                    "duration": 0.16137699999999988
                },
                {
                    "name": "G#5",
                    "midi": 80,
                    "time": 11.457766999999995,
                    "velocity": 0.7401574803149606,
                    "duration": 0.16137699999999988
                },
                {
                    "name": "A#5",
                    "midi": 82,
                    "time": 11.619143999999995,
                    "velocity": 0.7480314960629921,
                    "duration": 0.48413099999999964
                },
                {
                    "name": "G#5",
                    "midi": 80,
                    "time": 12.103274999999995,
                    "velocity": 0.7480314960629921,
                    "duration": 0.16137699999999988
                },
                {
                    "name": "A#5",
                    "midi": 82,
                    "time": 12.264651999999995,
                    "velocity": 0.7480314960629921,
                    "duration": 0.16137699999999988
                },
                {
                    "name": "C6",
                    "midi": 84,
                    "time": 12.426028999999994,
                    "velocity": 0.7480314960629921,
                    "duration": 0.16137699999999988
                },
                {
                    "name": "A#5",
                    "midi": 82,
                    "time": 12.587405999999994,
                    "velocity": 0.7480314960629921,
                    "duration": 0.16137699999999988
                },
                {
                    "name": "C6",
                    "midi": 84,
                    "time": 12.748782999999994,
                    "velocity": 0.7480314960629921,
                    "duration": 0.16137699999999988
                },
                {
                    "name": "G#5",
                    "midi": 80,
                    "time": 12.910159999999994,
                    "velocity": 0.7480314960629921,
                    "duration": 0.16137699999999988
                },
                {
                    "name": "A#5",
                    "midi": 82,
                    "time": 13.071536999999994,
                    "velocity": 0.7480314960629921,
                    "duration": 0.16137699999999988
                },
                {
                    "name": "C6",
                    "midi": 84,
                    "time": 13.232913999999994,
                    "velocity": 0.7480314960629921,
                    "duration": 0.32275399999999976
                },
                {
                    "name": "F5",
                    "midi": 77,
                    "time": 13.555667999999994,
                    "velocity": 0.7480314960629921,
                    "duration": 0.48413099999999964
                },
                {
                    "name": "D#5",
                    "midi": 75,
                    "time": 14.039798999999993,
                    "velocity": 0.7480314960629921,
                    "duration": 0.16137699999999988
                },
                {
                    "name": "F5",
                    "midi": 77,
                    "time": 14.201175999999993,
                    "velocity": 0.7480314960629921,
                    "duration": 0.16137699999999988
                },
                {
                    "name": "G5",
                    "midi": 79,
                    "time": 14.362552999999993,
                    "velocity": 0.7480314960629921,
                    "duration": 0.16137699999999988
                },
                {
                    "name": "G#5",
                    "midi": 80,
                    "time": 14.523929999999993,
                    "velocity": 0.7480314960629921,
                    "duration": 0.32275399999999976
                },
                {
                    "name": "D#5",
                    "midi": 75,
                    "time": 14.846683999999993,
                    "velocity": 0.7480314960629921,
                    "duration": 0.16137699999999988
                },
                {
                    "name": "F5",
                    "midi": 77,
                    "time": 15.008060999999993,
                    "velocity": 0.7480314960629921,
                    "duration": 0.16137699999999988
                },
                {
                    "name": "G5",
                    "midi": 79,
                    "time": 15.169437999999992,
                    "velocity": 0.7480314960629921,
                    "duration": 0.32275399999999976
                },
                {
                    "name": "C5",
                    "midi": 72,
                    "time": 15.492191999999992,
                    "velocity": 0.7480314960629921,
                    "duration": 0.48413099999999964
                },
                {
                    "name": "A#4",
                    "midi": 70,
                    "time": 15.976322999999992,
                    "velocity": 0.7322834645669292,
                    "duration": 0.16137699999999988
                },
                {
                    "name": "C5",
                    "midi": 72,
                    "time": 16.13769999999999,
                    "velocity": 0.7244094488188977,
                    "duration": 0.4841310000000014
                },
                {
                    "name": "A#4",
                    "midi": 70,
                    "time": 16.621830999999993,
                    "velocity": 0.7086614173228346,
                    "duration": 0.16137700000000166
                },
                {
                    "name": "C5",
                    "midi": 72,
                    "time": 16.783207999999995,
                    "velocity": 0.7007874015748031,
                    "duration": 0.4841310000000014
                },
                {
                    "name": "C#5",
                    "midi": 73,
                    "time": 17.267338999999996,
                    "velocity": 0.6771653543307087,
                    "duration": 0.16137700000000166
                },
                {
                    "name": "A#4",
                    "midi": 70,
                    "time": 17.428715999999998,
                    "velocity": 0.6692913385826772,
                    "duration": 0.4841310000000014
                },
                {
                    "name": "G#4",
                    "midi": 68,
                    "time": 17.912847,
                    "velocity": 0.6535433070866141,
                    "duration": 0.16137700000000166
                },
                {
                    "name": "G4",
                    "midi": 67,
                    "time": 18.074224,
                    "velocity": 0.6456692913385826,
                    "duration": 0.4841310000000014
                },
                {
                    "name": "G#4",
                    "midi": 68,
                    "time": 18.558355000000002,
                    "velocity": 0.6299212598425197,
                    "duration": 0.16137700000000166
                },
                {
                    "name": "A#4",
                    "midi": 70,
                    "time": 18.719732000000004,
                    "velocity": 0.6220472440944882,
                    "duration": 0.4841310000000014
                },
                {
                    "name": "C5",
                    "midi": 72,
                    "time": 19.203863000000005,
                    "velocity": 0.5984251968503937,
                    "duration": 0.16137700000000166
                },
                {
                    "name": "C#5",
                    "midi": 73,
                    "time": 19.365240000000007,
                    "velocity": 0.5669291338582677,
                    "duration": 0.4841310000000014
                },
                {
                    "name": "C5",
                    "midi": 72,
                    "time": 19.84937100000001,
                    "velocity": 0.5669291338582677,
                    "duration": 0.16137700000000166
                },
                {
                    "name": "C#5",
                    "midi": 73,
                    "time": 20.01074800000001,
                    "velocity": 0.5669291338582677,
                    "duration": 0.8068850000000012
                },
                {
                    "name": "C5",
                    "midi": 72,
                    "time": 20.81763300000001,
                    "velocity": 0.5669291338582677,
                    "duration": 0.16137700000000166
                },
                {
                    "name": "A#4",
                    "midi": 70,
                    "time": 20.979010000000013,
                    "velocity": 0.5669291338582677,
                    "duration": 0.16137700000000166
                },
                {
                    "name": "C5",
                    "midi": 72,
                    "time": 21.140387000000015,
                    "velocity": 0.5669291338582677,
                    "duration": 0.16137700000000166
                },
                {
                    "name": "C#5",
                    "midi": 73,
                    "time": 21.301764000000016,
                    "velocity": 0.5669291338582677,
                    "duration": 0.4841310000000014
                },
                {
                    "name": "C5",
                    "midi": 72,
                    "time": 21.785895000000018,
                    "velocity": 0.5669291338582677,
                    "duration": 0.16137700000000166
                },
                {
                    "name": "D#5",
                    "midi": 75,
                    "time": 21.94727200000002,
                    "velocity": 0.5669291338582677,
                    "duration": 1.6137699999999988
                },
                {
                    "name": "C#5",
                    "midi": 73,
                    "time": 23.72241900000002,
                    "velocity": 0.5669291338582677,
                    "duration": 0.16137700000000166
                },
                {
                    "name": "C5",
                    "midi": 72,
                    "time": 23.88379600000002,
                    "velocity": 0.5669291338582677,
                    "duration": 0.4841310000000014
                },
                {
                    "name": "A#4",
                    "midi": 70,
                    "time": 24.367927000000023,
                    "velocity": 0.5669291338582677,
                    "duration": 0.16137700000000166
                },
                {
                    "name": "G#4",
                    "midi": 68,
                    "time": 24.529304000000025,
                    "velocity": 0.5669291338582677,
                    "duration": 0.4841310000000014
                },
                {
                    "name": "F#4",
                    "midi": 66,
                    "time": 25.013435000000026,
                    "velocity": 0.5669291338582677,
                    "duration": 0.16137700000000166
                },
                {
                    "name": "F4",
                    "midi": 65,
                    "time": 25.174812000000028,
                    "velocity": 0.5669291338582677,
                    "duration": 0.4841310000000014
                },
                {
                    "name": "C#5",
                    "midi": 73,
                    "time": 25.65894300000003,
                    "velocity": 0.5669291338582677,
                    "duration": 0.16137700000000166
                },
                {
                    "name": "C5",
                    "midi": 72,
                    "time": 25.82032000000003,
                    "velocity": 0.5669291338582677,
                    "duration": 0.8068850000000012
                },
                {
                    "name": "C4",
                    "midi": 60,
                    "time": 26.788582000000034,
                    "velocity": 0.5669291338582677,
                    "duration": 0.32275399999999976
                },
                {
                    "name": "C#4",
                    "midi": 61,
                    "time": 27.111336000000033,
                    "velocity": 0.5669291338582677,
                    "duration": 0.4841310000000014
                },
                {
                    "name": "D#4",
                    "midi": 63,
                    "time": 27.595467000000035,
                    "velocity": 0.5669291338582677,
                    "duration": 0.16137700000000166
                },
                {
                    "name": "F4",
                    "midi": 65,
                    "time": 27.756844000000036,
                    "velocity": 0.5669291338582677,
                    "duration": 0.4841310000000014
                },
                {
                    "name": "F#4",
                    "midi": 66,
                    "time": 28.240975000000038,
                    "velocity": 0.5669291338582677,
                    "duration": 0.16137700000000166
                },
                {
                    "name": "G#4",
                    "midi": 68,
                    "time": 28.40235200000004,
                    "velocity": 0.5669291338582677,
                    "duration": 0.4841310000000014
                },
                {
                    "name": "A#4",
                    "midi": 70,
                    "time": 28.88648300000004,
                    "velocity": 0.5669291338582677,
                    "duration": 0.16137700000000166
                },
                {
                    "name": "F#4",
                    "midi": 66,
                    "time": 29.047860000000043,
                    "velocity": 0.5669291338582677,
                    "duration": 1.129639000000001
                },
                {
                    "name": "F4",
                    "midi": 65,
                    "time": 30.177499000000044,
                    "velocity": 0.5669291338582677,
                    "duration": 0.16137700000000166
                },
                {
                    "name": "F#4",
                    "midi": 66,
                    "time": 30.338876000000045,
                    "velocity": 0.5669291338582677,
                    "duration": 0.32275399999999976
                },
                {
                    "name": "F4",
                    "midi": 65,
                    "time": 30.823007000000047,
                    "velocity": 0.5669291338582677,
                    "duration": 0.16137700000000166
                },
                {
                    "name": "F#4",
                    "midi": 66,
                    "time": 30.98438400000005,
                    "velocity": 0.5669291338582677,
                    "duration": 0.4841310000000014
                },
                {
                    "name": "F4",
                    "midi": 65,
                    "time": 31.46851500000005,
                    "velocity": 0.5669291338582677,
                    "duration": 0.16137700000000166
                },
                {
                    "name": "D#4",
                    "midi": 63,
                    "time": 31.62989200000005,
                    "velocity": 0.5669291338582677,
                    "duration": 0.4841310000000014
                },
                {
                    "name": "F4",
                    "midi": 65,
                    "time": 32.11402300000005,
                    "velocity": 0.5669291338582677,
                    "duration": 0.16137700000000166
                },
                {
                    "name": "C#4",
                    "midi": 61,
                    "time": 32.275400000000054,
                    "velocity": 0.5669291338582677,
                    "duration": 0.48413099999999787
                },
                {
                    "name": "D#4",
                    "midi": 63,
                    "time": 32.75953100000005,
                    "velocity": 0.5669291338582677,
                    "duration": 0.16137700000000166
                },
                {
                    "name": "F4",
                    "midi": 65,
                    "time": 32.920908000000054,
                    "velocity": 0.6220472440944882,
                    "duration": 0.3227540000000033
                },
                {
                    "name": "C#4",
                    "midi": 61,
                    "time": 33.24366200000006,
                    "velocity": 0.7086614173228346,
                    "duration": 0.9682620000000028
                },
                {
                    "name": "D#4",
                    "midi": 63,
                    "time": 34.21192400000006,
                    "velocity": 0.7716535433070866,
                    "duration": 0.3227540000000033
                },
                {
                    "name": "C4",
                    "midi": 60,
                    "time": 34.53467800000006,
                    "velocity": 0.7559055118110236,
                    "duration": 0.9682620000000028
                },
                {
                    "name": "A#3",
                    "midi": 58,
                    "time": 35.502940000000066,
                    "velocity": 0.7244094488188977,
                    "duration": 0.3227540000000033
                },
                {
                    "name": "C4",
                    "midi": 60,
                    "time": 35.82569400000007,
                    "velocity": 0.7401574803149606,
                    "duration": 0.3227540000000033
                },
                {
                    "name": "C#4",
                    "midi": 61,
                    "time": 36.14844800000007,
                    "velocity": 0.7559055118110236,
                    "duration": 0.3227540000000033
                },
                {
                    "name": "D#4",
                    "midi": 63,
                    "time": 36.471202000000076,
                    "velocity": 0.7716535433070866,
                    "duration": 0.3227540000000033
                },
                {
                    "name": "C#4",
                    "midi": 61,
                    "time": 36.79395600000008,
                    "velocity": 0.7795275590551181,
                    "duration": 0.6455079999999995
                },
                {
                    "name": "F4",
                    "midi": 65,
                    "time": 36.79395600000008,
                    "velocity": 0.7795275590551181,
                    "duration": 0.6455079999999995
                },
                {
                    "name": "C4",
                    "midi": 60,
                    "time": 37.43946400000008,
                    "velocity": 0.7559055118110236,
                    "duration": 0.6455080000000066
                },
                {
                    "name": "D#4",
                    "midi": 63,
                    "time": 37.43946400000008,
                    "velocity": 0.7559055118110236,
                    "duration": 0.3227540000000033
                },
                {
                    "name": "F4",
                    "midi": 65,
                    "time": 37.76221800000008,
                    "velocity": 0.7480314960629921,
                    "duration": 0.3227540000000033
                },
                {
                    "name": "A#3",
                    "midi": 58,
                    "time": 38.084972000000086,
                    "velocity": 0.7401574803149606,
                    "duration": 1.291015999999999
                },
                {
                    "name": "C#4",
                    "midi": 61,
                    "time": 38.084972000000086,
                    "velocity": 0.7401574803149606,
                    "duration": 1.291015999999999
                },
                {
                    "name": "C4",
                    "midi": 60,
                    "time": 39.375988000000085,
                    "velocity": 0.5826771653543307,
                    "duration": 0.3227540000000033
                },
                {
                    "name": "D#4",
                    "midi": 63,
                    "time": 39.375988000000085,
                    "velocity": 0.5826771653543307,
                    "duration": 0.3227540000000033
                },
                {
                    "name": "C#4",
                    "midi": 61,
                    "time": 39.69874200000009,
                    "velocity": 0.6220472440944882,
                    "duration": 0.3227540000000033
                },
                {
                    "name": "F4",
                    "midi": 65,
                    "time": 39.69874200000009,
                    "velocity": 0.6220472440944882,
                    "duration": 0.3227540000000033
                },
                {
                    "name": "G#3",
                    "midi": 56,
                    "time": 40.02149600000009,
                    "velocity": 0.6614173228346457,
                    "duration": 0.6455080000000066
                },
                {
                    "name": "D#4",
                    "midi": 63,
                    "time": 40.02149600000009,
                    "velocity": 0.6614173228346457,
                    "duration": 0.3227540000000033
                },
                {
                    "name": "F#4",
                    "midi": 66,
                    "time": 40.02149600000009,
                    "velocity": 0.6614173228346457,
                    "duration": 0.3227540000000033
                },
                {
                    "name": "F4",
                    "midi": 65,
                    "time": 40.344250000000095,
                    "velocity": 0.7007874015748031,
                    "duration": 0.3227540000000033
                },
                {
                    "name": "G#4",
                    "midi": 68,
                    "time": 40.344250000000095,
                    "velocity": 0.7007874015748031,
                    "duration": 0.3227540000000033
                },
                {
                    "name": "A3",
                    "midi": 57,
                    "time": 40.6670040000001,
                    "velocity": 0.5118110236220472,
                    "duration": 1.9365240000000057
                },
                {
                    "name": "F#4",
                    "midi": 66,
                    "time": 40.6670040000001,
                    "velocity": 0.5118110236220472,
                    "duration": 0.6455079999999995
                },
                {
                    "name": "A4",
                    "midi": 69,
                    "time": 40.6670040000001,
                    "velocity": 0.5118110236220472,
                    "duration": 0.6455079999999995
                },
                {
                    "name": "D4",
                    "midi": 62,
                    "time": 41.3125120000001,
                    "velocity": 0.5118110236220472,
                    "duration": 1.2910160000000062
                },
                {
                    "name": "F#4",
                    "midi": 66,
                    "time": 41.3125120000001,
                    "velocity": 0.5118110236220472,
                    "duration": 0.3227540000000033
                },
                {
                    "name": "E4",
                    "midi": 64,
                    "time": 41.6352660000001,
                    "velocity": 0.5118110236220472,
                    "duration": 0.3227540000000033
                },
                {
                    "name": "G4",
                    "midi": 67,
                    "time": 41.6352660000001,
                    "velocity": 0.5118110236220472,
                    "duration": 0.3227540000000033
                },
                {
                    "name": "F#4",
                    "midi": 66,
                    "time": 41.958020000000104,
                    "velocity": 0.5118110236220472,
                    "duration": 0.6455079999999995
                },
                {
                    "name": "A4",
                    "midi": 69,
                    "time": 41.958020000000104,
                    "velocity": 0.5118110236220472,
                    "duration": 0.6455079999999995
                },
                {
                    "name": "D5",
                    "midi": 74,
                    "time": 42.603528000000104,
                    "velocity": 0.5118110236220472,
                    "duration": 0.6455079999999995
                },
                {
                    "name": "B4",
                    "midi": 71,
                    "time": 42.603528000000104,
                    "velocity": 0.5118110236220472,
                    "duration": 0.6455079999999995
                },
                {
                    "name": "G4",
                    "midi": 67,
                    "time": 42.603528000000104,
                    "velocity": 0.5118110236220472,
                    "duration": 0.6455079999999995
                },
                {
                    "name": "A4",
                    "midi": 69,
                    "time": 43.2490360000001,
                    "velocity": 0.5118110236220472,
                    "duration": 0.6455079999999995
                },
                {
                    "name": "F#4",
                    "midi": 66,
                    "time": 43.2490360000001,
                    "velocity": 0.5118110236220472,
                    "duration": 0.6455079999999995
                },
                {
                    "name": "D5",
                    "midi": 74,
                    "time": 43.8945440000001,
                    "velocity": 0.5118110236220472,
                    "duration": 0.6455079999999995
                },
                {
                    "name": "B4",
                    "midi": 71,
                    "time": 43.8945440000001,
                    "velocity": 0.5118110236220472,
                    "duration": 0.6455079999999995
                },
                {
                    "name": "G4",
                    "midi": 67,
                    "time": 43.8945440000001,
                    "velocity": 0.5118110236220472,
                    "duration": 0.6455079999999995
                },
                {
                    "name": "G#4",
                    "midi": 68,
                    "time": 44.5400520000001,
                    "velocity": 0.5118110236220472,
                    "duration": 0.9682620000000028
                },
                {
                    "name": "F4",
                    "midi": 65,
                    "time": 44.5400520000001,
                    "velocity": 0.5118110236220472,
                    "duration": 0.9682620000000028
                },
                {
                    "name": "G4",
                    "midi": 67,
                    "time": 45.508314000000105,
                    "velocity": 0.5118110236220472,
                    "duration": 0.3227540000000033
                },
                {
                    "name": "D#4",
                    "midi": 63,
                    "time": 45.508314000000105,
                    "velocity": 0.5118110236220472,
                    "duration": 0.3227540000000033
                },
                {
                    "name": "F4",
                    "midi": 65,
                    "time": 45.83106800000011,
                    "velocity": 0.5118110236220472,
                    "duration": 0.3227540000000033
                },
                {
                    "name": "C#4",
                    "midi": 61,
                    "time": 45.83106800000011,
                    "velocity": 0.5118110236220472,
                    "duration": 0.3227540000000033
                },
                {
                    "name": "G#4",
                    "midi": 68,
                    "time": 46.15382200000011,
                    "velocity": 0.5118110236220472,
                    "duration": 0.3227540000000033
                },
                {
                    "name": "C4",
                    "midi": 60,
                    "time": 46.15382200000011,
                    "velocity": 0.5118110236220472,
                    "duration": 0.3227540000000033
                },
                {
                    "name": "D#4",
                    "midi": 63,
                    "time": 46.476576000000115,
                    "velocity": 0.5118110236220472,
                    "duration": 0.6455079999999995
                },
                {
                    "name": "G4",
                    "midi": 67,
                    "time": 46.476576000000115,
                    "velocity": 0.5118110236220472,
                    "duration": 1.6137700000000095
                },
                {
                    "name": "C4",
                    "midi": 60,
                    "time": 47.122084000000115,
                    "velocity": 0.5196850393700787,
                    "duration": 0.3227540000000033
                },
                {
                    "name": "C#4",
                    "midi": 61,
                    "time": 47.44483800000012,
                    "velocity": 0.5196850393700787,
                    "duration": 0.3227540000000033
                },
                {
                    "name": "D#4",
                    "midi": 63,
                    "time": 47.76759200000012,
                    "velocity": 0.5275590551181102,
                    "duration": 1.2910160000000062
                },
                {
                    "name": "G#4",
                    "midi": 68,
                    "time": 48.090346000000125,
                    "velocity": 0.5275590551181102,
                    "duration": 0.3227540000000033
                },
                {
                    "name": "F4",
                    "midi": 65,
                    "time": 48.41310000000013,
                    "velocity": 0.5354330708661418,
                    "duration": 1.6137700000000095
                },
                {
                    "name": "A#3",
                    "midi": 58,
                    "time": 49.05860800000013,
                    "velocity": 0.5354330708661418,
                    "duration": 0.3227540000000033
                },
                {
                    "name": "C4",
                    "midi": 60,
                    "time": 49.38136200000013,
                    "velocity": 0.5433070866141733,
                    "duration": 0.3227540000000033
                },
                {
                    "name": "C#4",
                    "midi": 61,
                    "time": 49.704116000000134,
                    "velocity": 0.5433070866141733,
                    "duration": 0.96826200000001
                },
                {
                    "name": "F#4",
                    "midi": 66,
                    "time": 50.02687000000014,
                    "velocity": 0.5511811023622047,
                    "duration": 0.3227540000000033
                },
                {
                    "name": "D#4",
                    "midi": 63,
                    "time": 50.34962400000014,
                    "velocity": 0.5590551181102362,
                    "duration": 0.6455080000000066
                },
                {
                    "name": "C4",
                    "midi": 60,
                    "time": 50.672378000000144,
                    "velocity": 0.5669291338582677,
                    "duration": 0.6455080000000066
                },
                {
                    "name": "C#4",
                    "midi": 61,
                    "time": 50.99513200000015,
                    "velocity": 0.5669291338582677,
                    "duration": 0.6455080000000066
                },
                {
                    "name": "A#3",
                    "midi": 58,
                    "time": 51.31788600000015,
                    "velocity": 0.5748031496062992,
                    "duration": 0.6455080000000066
                },
                {
                    "name": "C4",
                    "midi": 60,
                    "time": 51.640640000000154,
                    "velocity": 0.5826771653543307,
                    "duration": 0.6455080000000066
                },
                {
                    "name": "G#3",
                    "midi": 56,
                    "time": 51.96339400000016,
                    "velocity": 0.5826771653543307,
                    "duration": 0.9682620000000028
                },
                {
                    "name": "F5",
                    "midi": 77,
                    "time": 52.28614800000016,
                    "velocity": 0.5905511811023622,
                    "duration": 0.48413099999999787
                },
                {
                    "name": "C5",
                    "midi": 72,
                    "time": 52.77027900000016,
                    "velocity": 0.5984251968503937,
                    "duration": 0.16137700000000166
                },
                {
                    "name": "C#5",
                    "midi": 73,
                    "time": 52.93165600000016,
                    "velocity": 0.6062992125984252,
                    "duration": 0.8068850000000012
                },
                {
                    "name": "C5",
                    "midi": 72,
                    "time": 53.73854100000016,
                    "velocity": 0.6141732283464567,
                    "duration": 0.16137700000000166
                },
                {
                    "name": "A#4",
                    "midi": 70,
                    "time": 53.89991800000016,
                    "velocity": 0.6220472440944882,
                    "duration": 0.16137700000000166
                },
                {
                    "name": "C5",
                    "midi": 72,
                    "time": 54.061295000000165,
                    "velocity": 0.6220472440944882,
                    "duration": 0.16137700000000166
                },
                {
                    "name": "C#5",
                    "midi": 73,
                    "time": 54.222672000000166,
                    "velocity": 0.6299212598425197,
                    "duration": 0.48413099999999787
                },
                {
                    "name": "C5",
                    "midi": 72,
                    "time": 54.706803000000164,
                    "velocity": 0.6220472440944882,
                    "duration": 0.16137700000000166
                },
                {
                    "name": "D#5",
                    "midi": 75,
                    "time": 54.868180000000166,
                    "velocity": 0.6141732283464567,
                    "duration": 1.4523930000000007
                },
                {
                    "name": "C#5",
                    "midi": 73,
                    "time": 56.32057300000017,
                    "velocity": 0.5826771653543307,
                    "duration": 0.16137700000000166
                },
                {
                    "name": "C5",
                    "midi": 72,
                    "time": 56.48195000000017,
                    "velocity": 0.5826771653543307,
                    "duration": 0.16137700000000166
                },
                {
                    "name": "C#5",
                    "midi": 73,
                    "time": 56.64332700000017,
                    "velocity": 0.5669291338582677,
                    "duration": 0.16137700000000166
                },
                {
                    "name": "A#4",
                    "midi": 70,
                    "time": 56.80470400000017,
                    "velocity": 0.5669291338582677,
                    "duration": 0.3227540000000033
                },
                {
                    "name": "G#4",
                    "midi": 68,
                    "time": 57.127458000000175,
                    "velocity": 0.5669291338582677,
                    "duration": 0.3227540000000033
                },
                {
                    "name": "G4",
                    "midi": 67,
                    "time": 57.45021200000018,
                    "velocity": 0.5669291338582677,
                    "duration": 0.3227540000000033
                },
                {
                    "name": "F4",
                    "midi": 65,
                    "time": 57.77296600000018,
                    "velocity": 0.5669291338582677,
                    "duration": 0.3227540000000033
                },
                {
                    "name": "G4",
                    "midi": 67,
                    "time": 58.095720000000185,
                    "velocity": 0.5905511811023622,
                    "duration": 0.48413099999999787
                },
                {
                    "name": "G4",
                    "midi": 67,
                    "time": 58.095720000000185,
                    "velocity": 0.5905511811023622,
                    "duration": 1.9365239999999986
                },
                {
                    "name": "G#4",
                    "midi": 68,
                    "time": 58.57985100000018,
                    "velocity": 0.5826771653543307,
                    "duration": 0.16137700000000166
                },
                {
                    "name": "A#4",
                    "midi": 70,
                    "time": 58.741228000000184,
                    "velocity": 0.5826771653543307,
                    "duration": 1.2103274999999982
                },
                {
                    "name": "G#4",
                    "midi": 68,
                    "time": 60.03224400000018,
                    "velocity": 0.5511811023622047,
                    "duration": 0.48413099999999787
                },
                {
                    "name": "G#4",
                    "midi": 68,
                    "time": 60.03224400000018,
                    "velocity": 0.5511811023622047,
                    "duration": 3.873047999999997
                },
                {
                    "name": "A#4",
                    "midi": 70,
                    "time": 60.51637500000018,
                    "velocity": 0.5433070866141733,
                    "duration": 0.16137700000000166
                },
                {
                    "name": "B4",
                    "midi": 71,
                    "time": 60.67775200000018,
                    "velocity": 0.5433070866141733,
                    "duration": 1.9365239999999986
                },
                {
                    "name": "G#5",
                    "midi": 80,
                    "time": 62.61427600000018,
                    "velocity": 0.5118110236220472,
                    "duration": 0.6455079999999995
                },
                {
                    "name": "E5",
                    "midi": 76,
                    "time": 63.25978400000018,
                    "velocity": 0.5118110236220472,
                    "duration": 0.6455079999999995
                },
                {
                    "name": "B4",
                    "midi": 71,
                    "time": 63.90529200000018,
                    "velocity": 0.5118110236220472,
                    "duration": 0.9682620000000028
                },
                {
                    "name": "A#4",
                    "midi": 70,
                    "time": 64.87355400000018,
                    "velocity": 0.5118110236220472,
                    "duration": 0.3227540000000033
                },
                {
                    "name": "B4",
                    "midi": 71,
                    "time": 65.19630800000019,
                    "velocity": 0.5118110236220472,
                    "duration": 0.3227540000000033
                },
                {
                    "name": "A#4",
                    "midi": 70,
                    "time": 65.51906200000019,
                    "velocity": 0.5118110236220472,
                    "duration": 0.3227540000000033
                },
                {
                    "name": "A4",
                    "midi": 69,
                    "time": 65.8418160000002,
                    "velocity": 0.5748031496062992,
                    "duration": 0.6455080000000066
                },
                {
                    "name": "E4",
                    "midi": 64,
                    "time": 66.4873240000002,
                    "velocity": 0.5748031496062992,
                    "duration": 1.291015999999999
                },
                {
                    "name": "G#4",
                    "midi": 68,
                    "time": 67.7783400000002,
                    "velocity": 0.5984251968503937,
                    "duration": 0.6455080000000066
                },
                {
                    "name": "C#4",
                    "midi": 61,
                    "time": 68.4238480000002,
                    "velocity": 0.6299212598425197,
                    "duration": 2.5820320000000123
                },
                {
                    "name": "A#3",
                    "midi": 58,
                    "time": 69.06935600000021,
                    "velocity": 0.6614173228346457,
                    "duration": 1.291015999999999
                },
                {
                    "name": "A3",
                    "midi": 57,
                    "time": 70.36037200000021,
                    "velocity": 0.6692913385826772,
                    "duration": 1.9365240000000057
                },
                {
                    "name": "C4",
                    "midi": 60,
                    "time": 71.00588000000022,
                    "velocity": 0.7007874015748031,
                    "duration": 1.291015999999999
                },
                {
                    "name": "C#4",
                    "midi": 61,
                    "time": 72.29689600000022,
                    "velocity": 0.7637795275590551,
                    "duration": 0.6455080000000066
                },
                {
                    "name": "A#3",
                    "midi": 58,
                    "time": 72.29689600000022,
                    "velocity": 0.7637795275590551,
                    "duration": 0.6455080000000066
                },
                {
                    "name": "C4",
                    "midi": 60,
                    "time": 72.94240400000022,
                    "velocity": 0.7637795275590551,
                    "duration": 1.291015999999999
                },
                {
                    "name": "A3",
                    "midi": 57,
                    "time": 72.94240400000022,
                    "velocity": 0.7637795275590551,
                    "duration": 1.291015999999999
                },
                {
                    "name": "B3",
                    "midi": 59,
                    "time": 74.23342000000022,
                    "velocity": 0.7637795275590551,
                    "duration": 2.582031999999998
                },
                {
                    "name": "G#3",
                    "midi": 56,
                    "time": 74.23342000000022,
                    "velocity": 0.7637795275590551,
                    "duration": 2.582031999999998
                },
                {
                    "name": "A#3",
                    "midi": 58,
                    "time": 76.81545200000022,
                    "velocity": 0.7637795275590551,
                    "duration": 2.9047860000000014
                },
                {
                    "name": "G3",
                    "midi": 55,
                    "time": 76.81545200000022,
                    "velocity": 0.7637795275590551,
                    "duration": 1.9365240000000057
                },
                {
                    "name": "F#3",
                    "midi": 54,
                    "time": 78.75197600000023,
                    "velocity": 0.7637795275590551,
                    "duration": 1.9365240000000057
                },
                {
                    "name": "C4",
                    "midi": 60,
                    "time": 79.72023800000022,
                    "velocity": 0.8267716535433071,
                    "duration": 0.3227540000000033
                },
                {
                    "name": "C#4",
                    "midi": 61,
                    "time": 80.04299200000023,
                    "velocity": 0.8503937007874016,
                    "duration": 0.3227540000000033
                },
                {
                    "name": "C4",
                    "midi": 60,
                    "time": 80.36574600000023,
                    "velocity": 0.8661417322834646,
                    "duration": 0.3227540000000033
                },
                {
                    "name": "G#3",
                    "midi": 56,
                    "time": 80.68850000000023,
                    "velocity": 0.8503937007874016,
                    "duration": 0.6455080000000066
                },
                {
                    "name": "C#4",
                    "midi": 61,
                    "time": 80.68850000000023,
                    "velocity": 0.8503937007874016,
                    "duration": 0.3227540000000033
                },
                {
                    "name": "D#4",
                    "midi": 63,
                    "time": 81.01125400000024,
                    "velocity": 0.7716535433070866,
                    "duration": 0.3227540000000033
                },
                {
                    "name": "A3",
                    "midi": 57,
                    "time": 81.33400800000024,
                    "velocity": 0.6929133858267716,
                    "duration": 0.484131000000005
                },
                {
                    "name": "C4",
                    "midi": 60,
                    "time": 81.33400800000024,
                    "velocity": 0.6929133858267716,
                    "duration": 2.259278000000009
                },
                {
                    "name": "F3",
                    "midi": 53,
                    "time": 81.81813900000024,
                    "velocity": 0.6299212598425197,
                    "duration": 0.16137700000000166
                },
                {
                    "name": "A3",
                    "midi": 57,
                    "time": 81.97951600000025,
                    "velocity": 0.6299212598425197,
                    "duration": 1.9365240000000057
                },
                {
                    "name": "C#4",
                    "midi": 61,
                    "time": 83.59328600000025,
                    "velocity": 0.6141732283464567,
                    "duration": 0.3227540000000033
                },
                {
                    "name": "A#3",
                    "midi": 58,
                    "time": 83.91604000000025,
                    "velocity": 0.6141732283464567,
                    "duration": 0.96826200000001
                },
                {
                    "name": "G#3",
                    "midi": 56,
                    "time": 83.91604000000025,
                    "velocity": 0.6141732283464567,
                    "duration": 0.6455080000000066
                },
                {
                    "name": "F#3",
                    "midi": 54,
                    "time": 84.56154800000026,
                    "velocity": 0.6062992125984252,
                    "duration": 1.93652400000002
                },
                {
                    "name": "A3",
                    "midi": 57,
                    "time": 84.88430200000026,
                    "velocity": 0.6062992125984252,
                    "duration": 0.3227540000000033
                },
                {
                    "name": "C4",
                    "midi": 60,
                    "time": 85.20705600000026,
                    "velocity": 0.6062992125984252,
                    "duration": 0.484131000000005
                },
                {
                    "name": "A3",
                    "midi": 57,
                    "time": 85.69118700000027,
                    "velocity": 0.5984251968503937,
                    "duration": 0.16137700000000166
                },
                {
                    "name": "C4",
                    "midi": 60,
                    "time": 85.85256400000027,
                    "velocity": 0.5984251968503937,
                    "duration": 1.6137700000000166
                },
                {
                    "name": "G#3",
                    "midi": 56,
                    "time": 86.49807200000028,
                    "velocity": 0.5905511811023622,
                    "duration": 0.3227540000000033
                },
                {
                    "name": "F#3",
                    "midi": 54,
                    "time": 86.82082600000028,
                    "velocity": 0.5905511811023622,
                    "duration": 0.3227540000000033
                },
                {
                    "name": "F3",
                    "midi": 53,
                    "time": 87.14358000000028,
                    "velocity": 0.5826771653543307,
                    "duration": 1.2910160000000133
                },
                {
                    "name": "C#4",
                    "midi": 61,
                    "time": 87.46633400000029,
                    "velocity": 0.5748031496062992,
                    "duration": 0.3227540000000033
                },
                {
                    "name": "D#4",
                    "midi": 63,
                    "time": 87.78908800000029,
                    "velocity": 0.5669291338582677,
                    "duration": 0.3227540000000033
                },
                {
                    "name": "C4",
                    "midi": 60,
                    "time": 87.78908800000029,
                    "velocity": 0.5669291338582677,
                    "duration": 0.3227540000000033
                },
                {
                    "name": "F4",
                    "midi": 65,
                    "time": 88.1118420000003,
                    "velocity": 0.5590551181102362,
                    "duration": 0.3227540000000033
                },
                {
                    "name": "C#4",
                    "midi": 61,
                    "time": 88.1118420000003,
                    "velocity": 0.5590551181102362,
                    "duration": 0.3227540000000033
                },
                {
                    "name": "D#4",
                    "midi": 63,
                    "time": 88.4345960000003,
                    "velocity": 0.5511811023622047,
                    "duration": 1.6137700000000024
                },
                {
                    "name": "F#3",
                    "midi": 54,
                    "time": 88.4345960000003,
                    "velocity": 0.5511811023622047,
                    "duration": 1.6137700000000024
                },
                {
                    "name": "F#4",
                    "midi": 66,
                    "time": 88.4345960000003,
                    "velocity": 0.5511811023622047,
                    "duration": 1.6137700000000024
                },
                {
                    "name": "G#4",
                    "midi": 68,
                    "time": 90.3711200000003,
                    "velocity": 0.5118110236220472,
                    "duration": 0.6455080000000066
                },
                {
                    "name": "C4",
                    "midi": 60,
                    "time": 90.3711200000003,
                    "velocity": 0.5118110236220472,
                    "duration": 0.6455080000000066
                },
                {
                    "name": "A4",
                    "midi": 69,
                    "time": 91.01662800000031,
                    "velocity": 0.5118110236220472,
                    "duration": 1.291015999999999
                },
                {
                    "name": "F4",
                    "midi": 65,
                    "time": 91.01662800000031,
                    "velocity": 0.5118110236220472,
                    "duration": 1.291015999999999
                },
                {
                    "name": "G#4",
                    "midi": 68,
                    "time": 92.30764400000031,
                    "velocity": 0.49606299212598426,
                    "duration": 0.6455080000000066
                },
                {
                    "name": "C4",
                    "midi": 60,
                    "time": 92.30764400000031,
                    "velocity": 0.49606299212598426,
                    "duration": 0.6455080000000066
                },
                {
                    "name": "A4",
                    "midi": 69,
                    "time": 92.95315200000032,
                    "velocity": 0.49606299212598426,
                    "duration": 1.291015999999999
                },
                {
                    "name": "F4",
                    "midi": 65,
                    "time": 92.95315200000032,
                    "velocity": 0.49606299212598426,
                    "duration": 1.291015999999999
                },
                {
                    "name": "G#4",
                    "midi": 68,
                    "time": 94.24416800000031,
                    "velocity": 0.48031496062992124,
                    "duration": 0.6455080000000066
                },
                {
                    "name": "C4",
                    "midi": 60,
                    "time": 94.24416800000031,
                    "velocity": 0.48031496062992124,
                    "duration": 0.6455080000000066
                },
                {
                    "name": "A4",
                    "midi": 69,
                    "time": 94.88967600000032,
                    "velocity": 0.47244094488188976,
                    "duration": 1.9365240000000057
                },
                {
                    "name": "F4",
                    "midi": 65,
                    "time": 94.88967600000032,
                    "velocity": 0.47244094488188976,
                    "duration": 1.9365240000000057
                }
            ],
            "controlChanges": {
                "10": [
                    {
                        "number": 10,
                        "time": 0,
                        "value": 0.5354330708661418
                    }
                ],
                "91": [
                    {
                        "number": 91,
                        "time": 0.0013448083333333332,
                        "value": 0.4881889763779528
                    },
                    {
                        "number": 91,
                        "time": 96.82082076666698,
                        "value": 0
                    }
                ],
                "93": [
                    {
                        "number": 93,
                        "time": 0.0013448083333333332,
                        "value": 0.10236220472440945
                    },
                    {
                        "number": 93,
                        "time": 96.82082076666698,
                        "value": 0
                    }
                ],
                "121": [
                    {
                        "number": 121,
                        "time": 0,
                        "value": 0
                    },
                    {
                        "number": 121,
                        "time": 96.82351038333366,
                        "value": 0
                    }
                ]
            },
            "id": 1,
            "name": "RH",
            "channelNumber": 0,
            "isPercussion": false
        },
        {
            "startTime": 0,
            "duration": 96.82620000000013,
            "length": 160,
            "notes": [
                {
                    "name": "G#3",
                    "midi": 56,
                    "time": 0,
                    "velocity": 0.5511811023622047,
                    "duration": 1.291016
                },
                {
                    "name": "F3",
                    "midi": 53,
                    "time": 0,
                    "velocity": 0.5511811023622047,
                    "duration": 1.291016
                },
                {
                    "name": "G#3",
                    "midi": 56,
                    "time": 1.291016,
                    "velocity": 0.5511811023622047,
                    "duration": 0.645508
                },
                {
                    "name": "F3",
                    "midi": 53,
                    "time": 1.291016,
                    "velocity": 0.5511811023622047,
                    "duration": 0.645508
                },
                {
                    "name": "G#3",
                    "midi": 56,
                    "time": 1.936524,
                    "velocity": 0.5511811023622047,
                    "duration": 1.291016
                },
                {
                    "name": "F3",
                    "midi": 53,
                    "time": 1.936524,
                    "velocity": 0.5511811023622047,
                    "duration": 1.291016
                },
                {
                    "name": "G#3",
                    "midi": 56,
                    "time": 3.22754,
                    "velocity": 0.5511811023622047,
                    "duration": 0.645508
                },
                {
                    "name": "F3",
                    "midi": 53,
                    "time": 3.22754,
                    "velocity": 0.5511811023622047,
                    "duration": 0.645508
                },
                {
                    "name": "A#3",
                    "midi": 58,
                    "time": 3.873048,
                    "velocity": 0.5511811023622047,
                    "duration": 1.291016
                },
                {
                    "name": "G3",
                    "midi": 55,
                    "time": 3.873048,
                    "velocity": 0.5511811023622047,
                    "duration": 1.291016
                },
                {
                    "name": "G#3",
                    "midi": 56,
                    "time": 5.164064,
                    "velocity": 0.5511811023622047,
                    "duration": 0.6455079999999995
                },
                {
                    "name": "D#4",
                    "midi": 63,
                    "time": 5.164064,
                    "velocity": 0.5511811023622047,
                    "duration": 0.6455079999999995
                },
                {
                    "name": "A#3",
                    "midi": 58,
                    "time": 5.809571999999999,
                    "velocity": 0.5511811023622047,
                    "duration": 1.291016
                },
                {
                    "name": "C#4",
                    "midi": 61,
                    "time": 5.809571999999999,
                    "velocity": 0.5511811023622047,
                    "duration": 1.291016
                },
                {
                    "name": "A#3",
                    "midi": 58,
                    "time": 7.100587999999999,
                    "velocity": 0.5511811023622047,
                    "duration": 0.6455080000000004
                },
                {
                    "name": "C#4",
                    "midi": 61,
                    "time": 7.100587999999999,
                    "velocity": 0.5511811023622047,
                    "duration": 0.6455080000000004
                },
                {
                    "name": "D#4",
                    "midi": 63,
                    "time": 7.746096,
                    "velocity": 0.5511811023622047,
                    "duration": 1.2910160000000008
                },
                {
                    "name": "C4",
                    "midi": 60,
                    "time": 7.746096,
                    "velocity": 0.5511811023622047,
                    "duration": 1.2910160000000008
                },
                {
                    "name": "C4",
                    "midi": 60,
                    "time": 9.037112,
                    "velocity": 0.5984251968503937,
                    "duration": 0.6455079999999995
                },
                {
                    "name": "D#4",
                    "midi": 63,
                    "time": 9.037112,
                    "velocity": 0.5984251968503937,
                    "duration": 0.6455079999999995
                },
                {
                    "name": "A#3",
                    "midi": 58,
                    "time": 9.68262,
                    "velocity": 0.6299212598425197,
                    "duration": 1.291015999999999
                },
                {
                    "name": "C#4",
                    "midi": 61,
                    "time": 9.68262,
                    "velocity": 0.6299212598425197,
                    "duration": 1.291015999999999
                },
                {
                    "name": "A#3",
                    "midi": 58,
                    "time": 10.973635999999999,
                    "velocity": 0.6771653543307087,
                    "duration": 0.6455079999999995
                },
                {
                    "name": "C#4",
                    "midi": 61,
                    "time": 10.973635999999999,
                    "velocity": 0.6771653543307087,
                    "duration": 0.6455079999999995
                },
                {
                    "name": "G3",
                    "midi": 55,
                    "time": 11.619143999999999,
                    "velocity": 0.7086614173228346,
                    "duration": 1.291015999999999
                },
                {
                    "name": "D#4",
                    "midi": 63,
                    "time": 11.619143999999999,
                    "velocity": 0.7086614173228346,
                    "duration": 1.291015999999999
                },
                {
                    "name": "G3",
                    "midi": 55,
                    "time": 12.910159999999998,
                    "velocity": 0.7086614173228346,
                    "duration": 0.6455079999999995
                },
                {
                    "name": "D#4",
                    "midi": 63,
                    "time": 12.910159999999998,
                    "velocity": 0.7086614173228346,
                    "duration": 0.6455079999999995
                },
                {
                    "name": "G3",
                    "midi": 55,
                    "time": 13.555667999999997,
                    "velocity": 0.7086614173228346,
                    "duration": 1.291015999999999
                },
                {
                    "name": "C#4",
                    "midi": 61,
                    "time": 13.555667999999997,
                    "velocity": 0.7086614173228346,
                    "duration": 1.291015999999999
                },
                {
                    "name": "G3",
                    "midi": 55,
                    "time": 14.846683999999996,
                    "velocity": 0.7086614173228346,
                    "duration": 0.6455079999999995
                },
                {
                    "name": "C#4",
                    "midi": 61,
                    "time": 14.846683999999996,
                    "velocity": 0.7086614173228346,
                    "duration": 0.6455079999999995
                },
                {
                    "name": "G#3",
                    "midi": 56,
                    "time": 15.492191999999996,
                    "velocity": 0.7086614173228346,
                    "duration": 1.291015999999999
                },
                {
                    "name": "C#4",
                    "midi": 61,
                    "time": 15.492191999999996,
                    "velocity": 0.7086614173228346,
                    "duration": 1.291015999999999
                },
                {
                    "name": "G3",
                    "midi": 55,
                    "time": 16.783207999999995,
                    "velocity": 0.6614173228346457,
                    "duration": 1.9365239999999986
                },
                {
                    "name": "D#4",
                    "midi": 63,
                    "time": 16.783207999999995,
                    "velocity": 0.6614173228346457,
                    "duration": 0.6455079999999995
                },
                {
                    "name": "C4",
                    "midi": 60,
                    "time": 17.428715999999994,
                    "velocity": 0.6299212598425197,
                    "duration": 1.291015999999999
                },
                {
                    "name": "F#3",
                    "midi": 54,
                    "time": 18.719731999999993,
                    "velocity": 0.5826771653543307,
                    "duration": 1.9365239999999986
                },
                {
                    "name": "C#4",
                    "midi": 61,
                    "time": 18.719731999999993,
                    "velocity": 0.5826771653543307,
                    "duration": 0.6455079999999995
                },
                {
                    "name": "A#3",
                    "midi": 58,
                    "time": 19.365239999999993,
                    "velocity": 0.5511811023622047,
                    "duration": 1.291015999999999
                },
                {
                    "name": "F#3",
                    "midi": 54,
                    "time": 20.656255999999992,
                    "velocity": 0.5511811023622047,
                    "duration": 0.6455079999999995
                },
                {
                    "name": "A#3",
                    "midi": 58,
                    "time": 20.656255999999992,
                    "velocity": 0.5511811023622047,
                    "duration": 0.6455079999999995
                },
                {
                    "name": "G#3",
                    "midi": 56,
                    "time": 21.30176399999999,
                    "velocity": 0.5511811023622047,
                    "duration": 1.291015999999999
                },
                {
                    "name": "C3",
                    "midi": 48,
                    "time": 21.30176399999999,
                    "velocity": 0.5511811023622047,
                    "duration": 1.291015999999999
                },
                {
                    "name": "G#3",
                    "midi": 56,
                    "time": 22.59277999999999,
                    "velocity": 0.5511811023622047,
                    "duration": 0.6455079999999995
                },
                {
                    "name": "C3",
                    "midi": 48,
                    "time": 22.59277999999999,
                    "velocity": 0.5511811023622047,
                    "duration": 0.6455079999999995
                },
                {
                    "name": "C#3",
                    "midi": 49,
                    "time": 23.23828799999999,
                    "velocity": 0.5511811023622047,
                    "duration": 1.9365239999999986
                },
                {
                    "name": "A#3",
                    "midi": 58,
                    "time": 23.23828799999999,
                    "velocity": 0.5511811023622047,
                    "duration": 1.9365239999999986
                },
                {
                    "name": "F#2",
                    "midi": 42,
                    "time": 24.52930399999999,
                    "velocity": 0.6141732283464567,
                    "duration": 1.9365239999999986
                },
                {
                    "name": "A3",
                    "midi": 57,
                    "time": 25.17481199999999,
                    "velocity": 0.5511811023622047,
                    "duration": 1.9365239999999986
                },
                {
                    "name": "C3",
                    "midi": 48,
                    "time": 25.17481199999999,
                    "velocity": 0.5511811023622047,
                    "duration": 1.9365239999999986
                },
                {
                    "name": "F#2",
                    "midi": 42,
                    "time": 26.465827999999988,
                    "velocity": 0.6062992125984252,
                    "duration": 0.6455079999999995
                },
                {
                    "name": "B2",
                    "midi": 47,
                    "time": 27.111335999999987,
                    "velocity": 0.5511811023622047,
                    "duration": 1.291015999999999
                },
                {
                    "name": "G#3",
                    "midi": 56,
                    "time": 27.111335999999987,
                    "velocity": 0.5511811023622047,
                    "duration": 0.6455079999999995
                },
                {
                    "name": "F2",
                    "midi": 41,
                    "time": 27.111335999999987,
                    "velocity": 0.5511811023622047,
                    "duration": 1.291015999999999
                },
                {
                    "name": "F#3",
                    "midi": 54,
                    "time": 27.756843999999987,
                    "velocity": 0.5511811023622047,
                    "duration": 0.6455079999999995
                },
                {
                    "name": "F3",
                    "midi": 53,
                    "time": 28.402351999999986,
                    "velocity": 0.5511811023622047,
                    "duration": 0.6455079999999995
                },
                {
                    "name": "F#3",
                    "midi": 54,
                    "time": 29.047859999999986,
                    "velocity": 0.5511811023622047,
                    "duration": 0.6455079999999995
                },
                {
                    "name": "D#2",
                    "midi": 39,
                    "time": 29.047859999999986,
                    "velocity": 0.5511811023622047,
                    "duration": 0.6455079999999995
                },
                {
                    "name": "B2",
                    "midi": 47,
                    "time": 29.047859999999986,
                    "velocity": 0.5511811023622047,
                    "duration": 0.6455079999999995
                },
                {
                    "name": "F#3",
                    "midi": 54,
                    "time": 29.693367999999985,
                    "velocity": 0.5511811023622047,
                    "duration": 0.6455079999999995
                },
                {
                    "name": "D#2",
                    "midi": 39,
                    "time": 29.693367999999985,
                    "velocity": 0.5511811023622047,
                    "duration": 0.6455079999999995
                },
                {
                    "name": "B2",
                    "midi": 47,
                    "time": 29.693367999999985,
                    "velocity": 0.5511811023622047,
                    "duration": 0.6455079999999995
                },
                {
                    "name": "F#3",
                    "midi": 54,
                    "time": 30.338875999999985,
                    "velocity": 0.5511811023622047,
                    "duration": 0.6455079999999995
                },
                {
                    "name": "D#2",
                    "midi": 39,
                    "time": 30.338875999999985,
                    "velocity": 0.5511811023622047,
                    "duration": 0.6455079999999995
                },
                {
                    "name": "B2",
                    "midi": 47,
                    "time": 30.338875999999985,
                    "velocity": 0.5511811023622047,
                    "duration": 0.6455079999999995
                },
                {
                    "name": "F#3",
                    "midi": 54,
                    "time": 30.984383999999984,
                    "velocity": 0.5511811023622047,
                    "duration": 0.6455079999999995
                },
                {
                    "name": "A#2",
                    "midi": 46,
                    "time": 30.984383999999984,
                    "velocity": 0.5511811023622047,
                    "duration": 0.6455079999999995
                },
                {
                    "name": "F2",
                    "midi": 41,
                    "time": 30.984383999999984,
                    "velocity": 0.5511811023622047,
                    "duration": 0.6455079999999995
                },
                {
                    "name": "A#2",
                    "midi": 46,
                    "time": 31.629891999999984,
                    "velocity": 0.5511811023622047,
                    "duration": 0.6455079999999995
                },
                {
                    "name": "F#3",
                    "midi": 54,
                    "time": 31.629891999999984,
                    "velocity": 0.5511811023622047,
                    "duration": 0.6455079999999995
                },
                {
                    "name": "F2",
                    "midi": 41,
                    "time": 31.629891999999984,
                    "velocity": 0.5511811023622047,
                    "duration": 0.6455079999999995
                },
                {
                    "name": "F2",
                    "midi": 41,
                    "time": 32.27539999999998,
                    "velocity": 0.5511811023622047,
                    "duration": 0.6455079999999995
                },
                {
                    "name": "F#3",
                    "midi": 54,
                    "time": 32.27539999999998,
                    "velocity": 0.5511811023622047,
                    "duration": 0.6455079999999995
                },
                {
                    "name": "A#2",
                    "midi": 46,
                    "time": 32.27539999999998,
                    "velocity": 0.5511811023622047,
                    "duration": 0.6455079999999995
                },
                {
                    "name": "F#2",
                    "midi": 42,
                    "time": 32.92090799999998,
                    "velocity": 0.6377952755905512,
                    "duration": 0.6455079999999995
                },
                {
                    "name": "A2",
                    "midi": 45,
                    "time": 32.92090799999998,
                    "velocity": 0.6377952755905512,
                    "duration": 0.6455079999999995
                },
                {
                    "name": "F#3",
                    "midi": 54,
                    "time": 32.92090799999998,
                    "velocity": 0.6377952755905512,
                    "duration": 0.6455079999999995
                },
                {
                    "name": "F#2",
                    "midi": 42,
                    "time": 33.56641599999998,
                    "velocity": 0.6535433070866141,
                    "duration": 0.6455079999999995
                },
                {
                    "name": "A2",
                    "midi": 45,
                    "time": 33.56641599999998,
                    "velocity": 0.6535433070866141,
                    "duration": 0.6455079999999995
                },
                {
                    "name": "F#3",
                    "midi": 54,
                    "time": 33.56641599999998,
                    "velocity": 0.6535433070866141,
                    "duration": 0.6455079999999995
                },
                {
                    "name": "F#2",
                    "midi": 42,
                    "time": 34.21192399999998,
                    "velocity": 0.6771653543307087,
                    "duration": 1.291015999999999
                },
                {
                    "name": "A2",
                    "midi": 45,
                    "time": 34.21192399999998,
                    "velocity": 0.6771653543307087,
                    "duration": 1.291015999999999
                },
                {
                    "name": "F#3",
                    "midi": 54,
                    "time": 34.21192399999998,
                    "velocity": 0.6771653543307087,
                    "duration": 1.291015999999999
                },
                {
                    "name": "C2",
                    "midi": 36,
                    "time": 34.85743199999998,
                    "velocity": 0.7007874015748031,
                    "duration": 0.6455079999999995
                },
                {
                    "name": "C#2",
                    "midi": 37,
                    "time": 35.50293999999998,
                    "velocity": 0.7165354330708661,
                    "duration": 0.6455079999999995
                },
                {
                    "name": "C2",
                    "midi": 36,
                    "time": 36.14844799999998,
                    "velocity": 0.7401574803149606,
                    "duration": 0.6455079999999995
                },
                {
                    "name": "F#3",
                    "midi": 54,
                    "time": 36.79395599999998,
                    "velocity": 0.7559055118110236,
                    "duration": 3.2275399999999976
                },
                {
                    "name": "A#1",
                    "midi": 34,
                    "time": 36.79395599999998,
                    "velocity": 0.7559055118110236,
                    "duration": 1.9365239999999986
                },
                {
                    "name": "C2",
                    "midi": 36,
                    "time": 38.73047999999998,
                    "velocity": 0.6929133858267716,
                    "duration": 1.291015999999999
                },
                {
                    "name": "A#1",
                    "midi": 34,
                    "time": 40.02149599999998,
                    "velocity": 0.6220472440944882,
                    "duration": 0.6455079999999995
                },
                {
                    "name": "A1",
                    "midi": 33,
                    "time": 40.66700399999998,
                    "velocity": 0.5511811023622047,
                    "duration": 3.2275399999999976
                },
                {
                    "name": "B1",
                    "midi": 35,
                    "time": 43.894543999999975,
                    "velocity": 0.5905511811023622,
                    "duration": 1.291015999999999
                },
                {
                    "name": "C2",
                    "midi": 36,
                    "time": 45.185559999999974,
                    "velocity": 0.5905511811023622,
                    "duration": 4.84131
                },
                {
                    "name": "C4",
                    "midi": 60,
                    "time": 52.286147999999976,
                    "velocity": 0.5511811023622047,
                    "duration": 0.6455079999999995
                },
                {
                    "name": "A#3",
                    "midi": 58,
                    "time": 52.931655999999975,
                    "velocity": 0.5511811023622047,
                    "duration": 0.6455079999999995
                },
                {
                    "name": "G3",
                    "midi": 55,
                    "time": 52.931655999999975,
                    "velocity": 0.5511811023622047,
                    "duration": 0.6455079999999995
                },
                {
                    "name": "G#3",
                    "midi": 56,
                    "time": 53.577163999999975,
                    "velocity": 0.5511811023622047,
                    "duration": 0.6455079999999995
                },
                {
                    "name": "F3",
                    "midi": 53,
                    "time": 53.577163999999975,
                    "velocity": 0.5511811023622047,
                    "duration": 0.6455079999999995
                },
                {
                    "name": "A#3",
                    "midi": 58,
                    "time": 54.222671999999974,
                    "velocity": 0.5511811023622047,
                    "duration": 1.291015999999999
                },
                {
                    "name": "G3",
                    "midi": 55,
                    "time": 54.222671999999974,
                    "velocity": 0.5511811023622047,
                    "duration": 1.291015999999999
                },
                {
                    "name": "G#3",
                    "midi": 56,
                    "time": 55.51368799999997,
                    "velocity": 0.5511811023622047,
                    "duration": 0.6455079999999995
                },
                {
                    "name": "F3",
                    "midi": 53,
                    "time": 55.51368799999997,
                    "velocity": 0.5511811023622047,
                    "duration": 0.6455079999999995
                },
                {
                    "name": "D#4",
                    "midi": 63,
                    "time": 56.15919599999997,
                    "velocity": 0.5511811023622047,
                    "duration": 1.291015999999999
                },
                {
                    "name": "G3",
                    "midi": 55,
                    "time": 56.15919599999997,
                    "velocity": 0.5511811023622047,
                    "duration": 1.291015999999999
                },
                {
                    "name": "G#3",
                    "midi": 56,
                    "time": 57.45021199999997,
                    "velocity": 0.5511811023622047,
                    "duration": 0.6455079999999995
                },
                {
                    "name": "D#4",
                    "midi": 63,
                    "time": 57.45021199999997,
                    "velocity": 0.5511811023622047,
                    "duration": 0.6455079999999995
                },
                {
                    "name": "A#3",
                    "midi": 58,
                    "time": 58.09571999999997,
                    "velocity": 0.5511811023622047,
                    "duration": 1.291015999999999
                },
                {
                    "name": "C#4",
                    "midi": 61,
                    "time": 58.09571999999997,
                    "velocity": 0.5511811023622047,
                    "duration": 1.291015999999999
                },
                {
                    "name": "A#3",
                    "midi": 58,
                    "time": 59.38673599999997,
                    "velocity": 0.5275590551181102,
                    "duration": 0.6455079999999995
                },
                {
                    "name": "C#4",
                    "midi": 61,
                    "time": 59.38673599999997,
                    "velocity": 0.5275590551181102,
                    "duration": 0.6455079999999995
                },
                {
                    "name": "B3",
                    "midi": 59,
                    "time": 60.03224399999997,
                    "velocity": 0.5118110236220472,
                    "duration": 1.291015999999999
                },
                {
                    "name": "E3",
                    "midi": 52,
                    "time": 60.03224399999997,
                    "velocity": 0.5118110236220472,
                    "duration": 1.291015999999999
                },
                {
                    "name": "B3",
                    "midi": 59,
                    "time": 61.32325999999997,
                    "velocity": 0.4881889763779528,
                    "duration": 2.582031999999998
                },
                {
                    "name": "E3",
                    "midi": 52,
                    "time": 61.32325999999997,
                    "velocity": 0.4881889763779528,
                    "duration": 2.582031999999998
                },
                {
                    "name": "C4",
                    "midi": 60,
                    "time": 64.55079999999997,
                    "velocity": 0.47244094488188976,
                    "duration": 2.582031999999998
                },
                {
                    "name": "E3",
                    "midi": 52,
                    "time": 64.55079999999997,
                    "velocity": 0.47244094488188976,
                    "duration": 2.582031999999998
                },
                {
                    "name": "E3",
                    "midi": 52,
                    "time": 67.13283199999996,
                    "velocity": 0.5354330708661418,
                    "duration": 1.9365240000000057
                },
                {
                    "name": "C#4",
                    "midi": 61,
                    "time": 67.13283199999996,
                    "velocity": 0.5354330708661418,
                    "duration": 0.6455080000000066
                },
                {
                    "name": "A#3",
                    "midi": 58,
                    "time": 67.77833999999997,
                    "velocity": 0.6377952755905512,
                    "duration": 1.291015999999999
                },
                {
                    "name": "F#3",
                    "midi": 54,
                    "time": 69.06935599999997,
                    "velocity": 0.7401574803149606,
                    "duration": 0.6455080000000066
                },
                {
                    "name": "C#3",
                    "midi": 49,
                    "time": 69.71486399999998,
                    "velocity": 0.7716535433070866,
                    "duration": 0.9682619999999957
                },
                {
                    "name": "D#3",
                    "midi": 51,
                    "time": 70.68312599999997,
                    "velocity": 0.8110236220472441,
                    "duration": 0.3227540000000033
                },
                {
                    "name": "F3",
                    "midi": 53,
                    "time": 71.00587999999998,
                    "velocity": 0.8267716535433071,
                    "duration": 0.3227540000000033
                },
                {
                    "name": "F#3",
                    "midi": 54,
                    "time": 71.32863399999998,
                    "velocity": 0.84251968503937,
                    "duration": 0.3227540000000033
                },
                {
                    "name": "F3",
                    "midi": 53,
                    "time": 71.65138799999998,
                    "velocity": 0.8582677165354331,
                    "duration": 1.291015999999999
                },
                {
                    "name": "C3",
                    "midi": 48,
                    "time": 72.94240399999998,
                    "velocity": 0.889763779527559,
                    "duration": 0.6455080000000066
                },
                {
                    "name": "F3",
                    "midi": 53,
                    "time": 73.58791199999999,
                    "velocity": 0.889763779527559,
                    "duration": 1.291015999999999
                },
                {
                    "name": "C3",
                    "midi": 48,
                    "time": 74.87892799999999,
                    "velocity": 0.889763779527559,
                    "duration": 0.6455080000000066
                },
                {
                    "name": "C#3",
                    "midi": 49,
                    "time": 75.524436,
                    "velocity": 0.889763779527559,
                    "duration": 0.484131000000005
                },
                {
                    "name": "C3",
                    "midi": 48,
                    "time": 76.008567,
                    "velocity": 0.889763779527559,
                    "duration": 0.16137700000000166
                },
                {
                    "name": "C#3",
                    "midi": 49,
                    "time": 76.169944,
                    "velocity": 0.889763779527559,
                    "duration": 0.8068849999999941
                },
                {
                    "name": "C3",
                    "midi": 48,
                    "time": 76.976829,
                    "velocity": 0.889763779527559,
                    "duration": 0.16137700000000166
                },
                {
                    "name": "A#2",
                    "midi": 46,
                    "time": 77.138206,
                    "velocity": 0.889763779527559,
                    "duration": 0.16137700000000166
                },
                {
                    "name": "C3",
                    "midi": 48,
                    "time": 77.299583,
                    "velocity": 0.889763779527559,
                    "duration": 0.16137700000000166
                },
                {
                    "name": "C#3",
                    "midi": 49,
                    "time": 77.46096,
                    "velocity": 0.889763779527559,
                    "duration": 0.484131000000005
                },
                {
                    "name": "C3",
                    "midi": 48,
                    "time": 77.945091,
                    "velocity": 0.889763779527559,
                    "duration": 0.16137700000000166
                },
                {
                    "name": "D#3",
                    "midi": 51,
                    "time": 78.106468,
                    "velocity": 0.889763779527559,
                    "duration": 3.2275400000000047
                },
                {
                    "name": "F2",
                    "midi": 41,
                    "time": 81.33400800000001,
                    "velocity": 0.7559055118110236,
                    "duration": 1.291015999999999
                },
                {
                    "name": "F#2",
                    "midi": 42,
                    "time": 82.62502400000001,
                    "velocity": 0.6850393700787402,
                    "duration": 0.6455080000000066
                },
                {
                    "name": "C#2",
                    "midi": 37,
                    "time": 83.27053200000002,
                    "velocity": 0.6850393700787402,
                    "duration": 1.9365240000000057
                },
                {
                    "name": "D#2",
                    "midi": 39,
                    "time": 85.20705600000002,
                    "velocity": 0.6692913385826772,
                    "duration": 1.9365240000000057
                },
                {
                    "name": "A1",
                    "midi": 33,
                    "time": 87.14358000000003,
                    "velocity": 0.6456692913385826,
                    "duration": 0.6455080000000066
                },
                {
                    "name": "G1",
                    "midi": 31,
                    "time": 87.78908800000004,
                    "velocity": 0.6299212598425197,
                    "duration": 0.6455080000000066
                },
                {
                    "name": "F#1",
                    "midi": 30,
                    "time": 88.43459600000004,
                    "velocity": 0.6141732283464567,
                    "duration": 1.6137700000000166
                },
                {
                    "name": "C3",
                    "midi": 48,
                    "time": 89.08010400000005,
                    "velocity": 0.6062992125984252,
                    "duration": 0.484131000000005
                },
                {
                    "name": "C#3",
                    "midi": 49,
                    "time": 89.56423500000005,
                    "velocity": 0.5984251968503937,
                    "duration": 0.16137700000000166
                },
                {
                    "name": "C3",
                    "midi": 48,
                    "time": 89.72561200000005,
                    "velocity": 0.5905511811023622,
                    "duration": 1.7751470000000182
                },
                {
                    "name": "G#1",
                    "midi": 32,
                    "time": 90.37112000000006,
                    "velocity": 0.5748031496062992,
                    "duration": 0.6455080000000066
                },
                {
                    "name": "F1",
                    "midi": 29,
                    "time": 91.01662800000007,
                    "velocity": 0.5748031496062992,
                    "duration": 1.2910160000000133
                },
                {
                    "name": "C#3",
                    "midi": 49,
                    "time": 91.50075900000007,
                    "velocity": 0.5669291338582677,
                    "duration": 0.16137700000000166
                },
                {
                    "name": "C3",
                    "midi": 48,
                    "time": 91.66213600000007,
                    "velocity": 0.5669291338582677,
                    "duration": 1.7751470000000182
                },
                {
                    "name": "G#1",
                    "midi": 32,
                    "time": 92.30764400000008,
                    "velocity": 0.5590551181102362,
                    "duration": 0.6455080000000066
                },
                {
                    "name": "F1",
                    "midi": 29,
                    "time": 92.95315200000009,
                    "velocity": 0.5590551181102362,
                    "duration": 1.2910160000000133
                },
                {
                    "name": "C#3",
                    "midi": 49,
                    "time": 93.4372830000001,
                    "velocity": 0.5511811023622047,
                    "duration": 0.16137700000000166
                },
                {
                    "name": "C3",
                    "midi": 48,
                    "time": 93.5986600000001,
                    "velocity": 0.5511811023622047,
                    "duration": 1.7751470000000182
                },
                {
                    "name": "G#1",
                    "midi": 32,
                    "time": 94.2441680000001,
                    "velocity": 0.5433070866141733,
                    "duration": 0.6455080000000066
                },
                {
                    "name": "F1",
                    "midi": 29,
                    "time": 94.88967600000011,
                    "velocity": 0.5354330708661418,
                    "duration": 1.93652400000002
                },
                {
                    "name": "C#3",
                    "midi": 49,
                    "time": 95.37380700000011,
                    "velocity": 0.5354330708661418,
                    "duration": 0.16137700000000166
                },
                {
                    "name": "C3",
                    "midi": 48,
                    "time": 95.53518400000011,
                    "velocity": 0.5354330708661418,
                    "duration": 1.2910160000000133
                }
            ],
            "controlChanges": {
                "10": [
                    {
                        "number": 10,
                        "time": 0,
                        "value": 0.47244094488188976
                    }
                ],
                "91": [
                    {
                        "number": 91,
                        "time": 0.0013448083333333332,
                        "value": 0.4881889763779528
                    },
                    {
                        "number": 91,
                        "time": 96.82082076666678,
                        "value": 0
                    }
                ],
                "93": [
                    {
                        "number": 93,
                        "time": 0.0013448083333333332,
                        "value": 0.10236220472440945
                    },
                    {
                        "number": 93,
                        "time": 96.82082076666678,
                        "value": 0
                    }
                ],
                "121": [
                    {
                        "number": 121,
                        "time": 0,
                        "value": 0
                    },
                    {
                        "number": 121,
                        "time": 96.82351038333346,
                        "value": 0
                    }
                ]
            },
            "id": 2,
            "name": "LH",
            "channelNumber": 1,
            "isPercussion": false
        },
        {
            "startTime": 0,
            "duration": 0,
            "length": 0,
            "notes": [],
            "controlChanges": {},
            "id": 3,
            "name": "============="
        },
        {
            "startTime": 0,
            "duration": 0,
            "length": 0,
            "notes": [],
            "controlChanges": {},
            "id": 4,
            "name": "D. SHOSTAKOVICH"
        },
        {
            "startTime": 0,
            "duration": 0,
            "length": 0,
            "notes": [],
            "controlChanges": {},
            "id": 5,
            "name": "Prelude in F minor"
        },
        {
            "startTime": 0,
            "duration": 0,
            "length": 0,
            "notes": [],
            "controlChanges": {},
            "id": 6,
            "name": "opus 87 no. 18"
        },
        {
            "startTime": 0,
            "duration": 0,
            "length": 0,
            "notes": [],
            "controlChanges": {},
            "id": 7,
            "name": "Seq. by J. Marques"
        },
        {
            "startTime": 0,
            "duration": 0,
            "length": 0,
            "notes": [],
            "controlChanges": {},
            "id": 8,
            "name": "marques@super.zippo.com"
        },
        {
            "startTime": 0,
            "duration": 0,
            "length": 0,
            "notes": [],
            "controlChanges": {},
            "id": 9,
            "name": "=============="
        },
        {
            "startTime": 0,
            "duration": 0,
            "length": 0,
            "notes": [],
            "controlChanges": {},
            "id": 10
        }
    ]
}