{
    "header": {
        "PPQ": 480,
        "bpm": 100,
        "timeSignature": [
            3,
            4
        ],
        "name": "=============="
    },
    "startTime": 0,
    "duration": 120.29374999999996,
    "tracks": [
        {
            "startTime": 0,
            "duration": 0,
            "length": 0,
            "notes": [],
            "controlChanges": {},
            "id": 0
        },
        {
            "startTime": 0,
            "duration": 120.29374999999987,
            "length": 439,
            "notes": [
                {
                    "name": "G4",
                    "midi": 67,
                    "time": 0,
                    "velocity": 0.6299212598425197,
                    "duration": 0.5499999999999999
                },
                {
                    "name": "C5",
                    "midi": 72,
                    "time": 0,
                    "velocity": 0.6299212598425197,
                    "duration": 0.5499999999999999
                },
                {
                    "name": "E5",
                    "midi": 76,
                    "time": 0,
                    "velocity": 0.6299212598425197,
                    "duration": 0.5499999999999999
                },
                {
                    "name": "G4",
                    "midi": 67,
                    "time": 0.6,
                    "velocity": 0.6299212598425197,
                    "duration": 0.83
                },
                {
                    "name": "C5",
                    "midi": 72,
                    "time": 0.6,
                    "velocity": 0.6299212598425197,
                    "duration": 0.83
                },
                {
                    "name": "E5",
                    "midi": 76,
                    "time": 0.6,
                    "velocity": 0.6299212598425197,
                    "duration": 0.83
                },
                {
                    "name": "G4",
                    "midi": 67,
                    "time": 1.5,
                    "velocity": 0.6299212598425197,
                    "duration": 0.2749999999999999
                },
                {
                    "name": "C5",
                    "midi": 72,
                    "time": 1.5,
                    "velocity": 0.6299212598425197,
                    "duration": 0.2749999999999999
                },
                {
                    "name": "E5",
                    "midi": 76,
                    "time": 1.5,
                    "velocity": 0.6299212598425197,
                    "duration": 0.2749999999999999
                },
                {
                    "name": "D5",
                    "midi": 74,
                    "time": 1.7999999999999998,
                    "velocity": 0.6299212598425197,
                    "duration": 0.5499999999999998
                },
                {
                    "name": "B4",
                    "midi": 71,
                    "time": 1.7999999999999998,
                    "velocity": 0.6299212598425197,
                    "duration": 0.5499999999999998
                },
                {
                    "name": "G4",
                    "midi": 67,
                    "time": 1.7999999999999998,
                    "velocity": 0.6299212598425197,
                    "duration": 0.5499999999999998
                },
                {
                    "name": "D5",
                    "midi": 74,
                    "time": 2.3999999999999995,
                    "velocity": 0.6299212598425197,
                    "duration": 1.105
                },
                {
                    "name": "B4",
                    "midi": 71,
                    "time": 2.3999999999999995,
                    "velocity": 0.6299212598425197,
                    "duration": 1.105
                },
                {
                    "name": "G4",
                    "midi": 67,
                    "time": 2.3999999999999995,
                    "velocity": 0.6299212598425197,
                    "duration": 1.105
                },
                {
                    "name": "C5",
                    "midi": 72,
                    "time": 3.5999999999999996,
                    "velocity": 0.6299212598425197,
                    "duration": 0.5499999999999998
                },
                {
                    "name": "A4",
                    "midi": 69,
                    "time": 3.5999999999999996,
                    "velocity": 0.6299212598425197,
                    "duration": 0.5499999999999998
                },
                {
                    "name": "G4",
                    "midi": 67,
                    "time": 3.5999999999999996,
                    "velocity": 0.6299212598425197,
                    "duration": 0.5499999999999998
                },
                {
                    "name": "B4",
                    "midi": 71,
                    "time": 4.199999999999999,
                    "velocity": 0.6299212598425197,
                    "duration": 0.8300000000000001
                },
                {
                    "name": "A4",
                    "midi": 69,
                    "time": 4.199999999999999,
                    "velocity": 0.6299212598425197,
                    "duration": 0.8300000000000001
                },
                {
                    "name": "G4",
                    "midi": 67,
                    "time": 4.199999999999999,
                    "velocity": 0.6299212598425197,
                    "duration": 0.8300000000000001
                },
                {
                    "name": "C5",
                    "midi": 72,
                    "time": 5.1,
                    "velocity": 0.6299212598425197,
                    "duration": 0.27500000000000036
                },
                {
                    "name": "A4",
                    "midi": 69,
                    "time": 5.1,
                    "velocity": 0.6299212598425197,
                    "duration": 0.27500000000000036
                },
                {
                    "name": "G4",
                    "midi": 67,
                    "time": 5.1,
                    "velocity": 0.6299212598425197,
                    "duration": 0.27500000000000036
                },
                {
                    "name": "D5",
                    "midi": 74,
                    "time": 5.4,
                    "velocity": 0.6299212598425197,
                    "duration": 0.5499999999999998
                },
                {
                    "name": "B4",
                    "midi": 71,
                    "time": 5.4,
                    "velocity": 0.6299212598425197,
                    "duration": 0.5499999999999998
                },
                {
                    "name": "G4",
                    "midi": 67,
                    "time": 5.4,
                    "velocity": 0.6299212598425197,
                    "duration": 0.5499999999999998
                },
                {
                    "name": "B4",
                    "midi": 71,
                    "time": 6,
                    "velocity": 0.6299212598425197,
                    "duration": 1.1050000000000004
                },
                {
                    "name": "G4",
                    "midi": 67,
                    "time": 6,
                    "velocity": 0.6299212598425197,
                    "duration": 1.1050000000000004
                },
                {
                    "name": "D5",
                    "midi": 74,
                    "time": 6,
                    "velocity": 0.6299212598425197,
                    "duration": 1.1050000000000004
                },
                {
                    "name": "D5",
                    "midi": 74,
                    "time": 7.2,
                    "velocity": 0.6299212598425197,
                    "duration": 0.5499999999999998
                },
                {
                    "name": "B4",
                    "midi": 71,
                    "time": 7.2,
                    "velocity": 0.6299212598425197,
                    "duration": 0.5499999999999998
                },
                {
                    "name": "G4",
                    "midi": 67,
                    "time": 7.2,
                    "velocity": 0.6299212598425197,
                    "duration": 0.5499999999999998
                },
                {
                    "name": "G4",
                    "midi": 67,
                    "time": 7.8,
                    "velocity": 0.6299212598425197,
                    "duration": 0.8299999999999992
                },
                {
                    "name": "C5",
                    "midi": 72,
                    "time": 7.8,
                    "velocity": 0.6299212598425197,
                    "duration": 0.8299999999999992
                },
                {
                    "name": "E5",
                    "midi": 76,
                    "time": 7.8,
                    "velocity": 0.6299212598425197,
                    "duration": 0.8299999999999992
                },
                {
                    "name": "D5",
                    "midi": 74,
                    "time": 8.7,
                    "velocity": 0.6771653543307087,
                    "duration": 0.27500000000000036
                },
                {
                    "name": "F5",
                    "midi": 77,
                    "time": 8.7,
                    "velocity": 0.6771653543307087,
                    "duration": 0.27500000000000036
                },
                {
                    "name": "G4",
                    "midi": 67,
                    "time": 8.7,
                    "velocity": 0.6771653543307087,
                    "duration": 0.27500000000000036
                },
                {
                    "name": "D5",
                    "midi": 74,
                    "time": 9,
                    "velocity": 0.6535433070866141,
                    "duration": 0.5500000000000007
                },
                {
                    "name": "F5",
                    "midi": 77,
                    "time": 9,
                    "velocity": 0.6535433070866141,
                    "duration": 0.5500000000000007
                },
                {
                    "name": "G4",
                    "midi": 67,
                    "time": 9,
                    "velocity": 0.6535433070866141,
                    "duration": 0.5500000000000007
                },
                {
                    "name": "G4",
                    "midi": 67,
                    "time": 9.600000000000001,
                    "velocity": 0.6692913385826772,
                    "duration": 1.1050000000000004
                },
                {
                    "name": "C5",
                    "midi": 72,
                    "time": 9.600000000000001,
                    "velocity": 0.6692913385826772,
                    "duration": 1.1050000000000004
                },
                {
                    "name": "E5",
                    "midi": 76,
                    "time": 9.600000000000001,
                    "velocity": 0.6692913385826772,
                    "duration": 1.1050000000000004
                },
                {
                    "name": "D#4",
                    "midi": 63,
                    "time": 10.800000000000002,
                    "velocity": 0.8031496062992126,
                    "duration": 0.5500000000000007
                },
                {
                    "name": "D#5",
                    "midi": 75,
                    "time": 10.800000000000002,
                    "velocity": 0.8031496062992126,
                    "duration": 0.5500000000000007
                },
                {
                    "name": "C5",
                    "midi": 72,
                    "time": 10.800000000000002,
                    "velocity": 0.8031496062992126,
                    "duration": 0.5500000000000007
                },
                {
                    "name": "B4",
                    "midi": 71,
                    "time": 11.400000000000004,
                    "velocity": 0.7165354330708661,
                    "duration": 0.8300000000000001
                },
                {
                    "name": "F4",
                    "midi": 65,
                    "time": 11.400000000000004,
                    "velocity": 0.7165354330708661,
                    "duration": 0.8300000000000001
                },
                {
                    "name": "D5",
                    "midi": 74,
                    "time": 11.400000000000004,
                    "velocity": 0.7165354330708661,
                    "duration": 0.8300000000000001
                },
                {
                    "name": "F#4",
                    "midi": 66,
                    "time": 12.300000000000004,
                    "velocity": 0.6614173228346457,
                    "duration": 0.27500000000000036
                },
                {
                    "name": "C5",
                    "midi": 72,
                    "time": 12.300000000000004,
                    "velocity": 0.6614173228346457,
                    "duration": 0.27500000000000036
                },
                {
                    "name": "A4",
                    "midi": 69,
                    "time": 12.300000000000004,
                    "velocity": 0.6614173228346457,
                    "duration": 0.27500000000000036
                },
                {
                    "name": "B4",
                    "midi": 71,
                    "time": 12.600000000000005,
                    "velocity": 0.6692913385826772,
                    "duration": 0.5500000000000007
                },
                {
                    "name": "G#4",
                    "midi": 68,
                    "time": 12.600000000000005,
                    "velocity": 0.6692913385826772,
                    "duration": 0.5500000000000007
                },
                {
                    "name": "F4",
                    "midi": 65,
                    "time": 12.600000000000005,
                    "velocity": 0.6692913385826772,
                    "duration": 0.5500000000000007
                },
                {
                    "name": "B4",
                    "midi": 71,
                    "time": 13.200000000000006,
                    "velocity": 0.6299212598425197,
                    "duration": 1.1050000000000004
                },
                {
                    "name": "G#4",
                    "midi": 68,
                    "time": 13.200000000000006,
                    "velocity": 0.6299212598425197,
                    "duration": 1.1050000000000004
                },
                {
                    "name": "F4",
                    "midi": 65,
                    "time": 13.200000000000006,
                    "velocity": 0.6299212598425197,
                    "duration": 1.1050000000000004
                },
                {
                    "name": "E4",
                    "midi": 64,
                    "time": 14.400000000000007,
                    "velocity": 0.5275590551181102,
                    "duration": 0.5500000000000007
                },
                {
                    "name": "G4",
                    "midi": 67,
                    "time": 14.400000000000007,
                    "velocity": 0.5275590551181102,
                    "duration": 0.5500000000000007
                },
                {
                    "name": "E5",
                    "midi": 76,
                    "time": 14.400000000000007,
                    "velocity": 0.5275590551181102,
                    "duration": 0.5500000000000007
                },
                {
                    "name": "G4",
                    "midi": 67,
                    "time": 15.000000000000009,
                    "velocity": 0.5275590551181102,
                    "duration": 0.8300000000000001
                },
                {
                    "name": "C5",
                    "midi": 72,
                    "time": 15.000000000000009,
                    "velocity": 0.5275590551181102,
                    "duration": 0.8300000000000001
                },
                {
                    "name": "E5",
                    "midi": 76,
                    "time": 15.000000000000009,
                    "velocity": 0.5275590551181102,
                    "duration": 0.8300000000000001
                },
                {
                    "name": "G4",
                    "midi": 67,
                    "time": 15.90000000000001,
                    "velocity": 0.5511811023622047,
                    "duration": 0.2749999999999986
                },
                {
                    "name": "C5",
                    "midi": 72,
                    "time": 15.90000000000001,
                    "velocity": 0.5511811023622047,
                    "duration": 0.2749999999999986
                },
                {
                    "name": "E5",
                    "midi": 76,
                    "time": 15.90000000000001,
                    "velocity": 0.5511811023622047,
                    "duration": 0.2749999999999986
                },
                {
                    "name": "G4",
                    "midi": 67,
                    "time": 16.200000000000006,
                    "velocity": 0.5590551181102362,
                    "duration": 0.5500000000000007
                },
                {
                    "name": "B4",
                    "midi": 71,
                    "time": 16.200000000000006,
                    "velocity": 0.5590551181102362,
                    "duration": 0.5500000000000007
                },
                {
                    "name": "D5",
                    "midi": 74,
                    "time": 16.200000000000006,
                    "velocity": 0.5590551181102362,
                    "duration": 0.5500000000000007
                },
                {
                    "name": "G4",
                    "midi": 67,
                    "time": 16.800000000000008,
                    "velocity": 0.5590551181102362,
                    "duration": 1.1050000000000004
                },
                {
                    "name": "B4",
                    "midi": 71,
                    "time": 16.800000000000008,
                    "velocity": 0.5590551181102362,
                    "duration": 1.1050000000000004
                },
                {
                    "name": "D5",
                    "midi": 74,
                    "time": 16.800000000000008,
                    "velocity": 0.5590551181102362,
                    "duration": 1.1050000000000004
                },
                {
                    "name": "G4",
                    "midi": 67,
                    "time": 18.000000000000007,
                    "velocity": 0.5669291338582677,
                    "duration": 0.5500000000000007
                },
                {
                    "name": "B4",
                    "midi": 71,
                    "time": 18.000000000000007,
                    "velocity": 0.5669291338582677,
                    "duration": 0.5500000000000007
                },
                {
                    "name": "D5",
                    "midi": 74,
                    "time": 18.000000000000007,
                    "velocity": 0.5669291338582677,
                    "duration": 0.5500000000000007
                },
                {
                    "name": "G4",
                    "midi": 67,
                    "time": 18.60000000000001,
                    "velocity": 0.6299212598425197,
                    "duration": 0.8299999999999983
                },
                {
                    "name": "A4",
                    "midi": 69,
                    "time": 18.60000000000001,
                    "velocity": 0.6299212598425197,
                    "duration": 0.8299999999999983
                },
                {
                    "name": "C5",
                    "midi": 72,
                    "time": 18.60000000000001,
                    "velocity": 0.6299212598425197,
                    "duration": 0.8299999999999983
                },
                {
                    "name": "D5",
                    "midi": 74,
                    "time": 19.500000000000007,
                    "velocity": 0.6299212598425197,
                    "duration": 0.2749999999999986
                },
                {
                    "name": "B4",
                    "midi": 71,
                    "time": 19.500000000000007,
                    "velocity": 0.6299212598425197,
                    "duration": 0.2749999999999986
                },
                {
                    "name": "G4",
                    "midi": 67,
                    "time": 19.500000000000007,
                    "velocity": 0.6299212598425197,
                    "duration": 0.2749999999999986
                },
                {
                    "name": "E5",
                    "midi": 76,
                    "time": 19.800000000000004,
                    "velocity": 0.6299212598425197,
                    "duration": 0.5500000000000007
                },
                {
                    "name": "C5",
                    "midi": 72,
                    "time": 19.800000000000004,
                    "velocity": 0.6299212598425197,
                    "duration": 0.5500000000000007
                },
                {
                    "name": "G4",
                    "midi": 67,
                    "time": 19.800000000000004,
                    "velocity": 0.6299212598425197,
                    "duration": 0.5500000000000007
                },
                {
                    "name": "F#5",
                    "midi": 78,
                    "time": 20.400000000000006,
                    "velocity": 0.6456692913385826,
                    "duration": 1.1050000000000004
                },
                {
                    "name": "D5",
                    "midi": 74,
                    "time": 20.400000000000006,
                    "velocity": 0.6456692913385826,
                    "duration": 1.1050000000000004
                },
                {
                    "name": "G4",
                    "midi": 67,
                    "time": 20.400000000000006,
                    "velocity": 0.6456692913385826,
                    "duration": 1.1050000000000004
                },
                {
                    "name": "G4",
                    "midi": 67,
                    "time": 21.600000000000005,
                    "velocity": 0.4094488188976378,
                    "duration": 0.5500000000000007
                },
                {
                    "name": "G5",
                    "midi": 79,
                    "time": 21.600000000000005,
                    "velocity": 0.4094488188976378,
                    "duration": 0.5500000000000007
                },
                {
                    "name": "D#5",
                    "midi": 75,
                    "time": 21.600000000000005,
                    "velocity": 0.4094488188976378,
                    "duration": 0.5500000000000007
                },
                {
                    "name": "G4",
                    "midi": 67,
                    "time": 22.200000000000006,
                    "velocity": 0.5039370078740157,
                    "duration": 0.8299999999999983
                },
                {
                    "name": "F5",
                    "midi": 77,
                    "time": 22.200000000000006,
                    "velocity": 0.5039370078740157,
                    "duration": 0.8299999999999983
                },
                {
                    "name": "D5",
                    "midi": 74,
                    "time": 22.200000000000006,
                    "velocity": 0.5039370078740157,
                    "duration": 0.8299999999999983
                },
                {
                    "name": "G4",
                    "midi": 67,
                    "time": 23.100000000000005,
                    "velocity": 0.5354330708661418,
                    "duration": 0.2749999999999986
                },
                {
                    "name": "C5",
                    "midi": 72,
                    "time": 23.100000000000005,
                    "velocity": 0.5354330708661418,
                    "duration": 0.2749999999999986
                },
                {
                    "name": "D#5",
                    "midi": 75,
                    "time": 23.100000000000005,
                    "velocity": 0.5354330708661418,
                    "duration": 0.2749999999999986
                },
                {
                    "name": "D5",
                    "midi": 74,
                    "time": 23.400000000000002,
                    "velocity": 0.5984251968503937,
                    "duration": 0.5500000000000007
                },
                {
                    "name": "A#4",
                    "midi": 70,
                    "time": 23.400000000000002,
                    "velocity": 0.5984251968503937,
                    "duration": 0.5500000000000007
                },
                {
                    "name": "G4",
                    "midi": 67,
                    "time": 23.400000000000002,
                    "velocity": 0.5984251968503937,
                    "duration": 0.5500000000000007
                },
                {
                    "name": "D5",
                    "midi": 74,
                    "time": 24.000000000000004,
                    "velocity": 0.5590551181102362,
                    "duration": 1.1050000000000004
                },
                {
                    "name": "A#4",
                    "midi": 70,
                    "time": 24.000000000000004,
                    "velocity": 0.5590551181102362,
                    "duration": 1.1050000000000004
                },
                {
                    "name": "G4",
                    "midi": 67,
                    "time": 24.000000000000004,
                    "velocity": 0.5590551181102362,
                    "duration": 1.1050000000000004
                },
                {
                    "name": "D4",
                    "midi": 62,
                    "time": 25.500000000000004,
                    "velocity": 0.5275590551181102,
                    "duration": 0.3000000000000007
                },
                {
                    "name": "D#4",
                    "midi": 63,
                    "time": 25.800000000000004,
                    "velocity": 0.5275590551181102,
                    "duration": 0.3000000000000007
                },
                {
                    "name": "G4",
                    "midi": 67,
                    "time": 26.100000000000005,
                    "velocity": 0.5511811023622047,
                    "duration": 0.3000000000000007
                },
                {
                    "name": "A#4",
                    "midi": 70,
                    "time": 26.400000000000006,
                    "velocity": 0.5590551181102362,
                    "duration": 0.3000000000000007
                },
                {
                    "name": "C5",
                    "midi": 72,
                    "time": 26.700000000000006,
                    "velocity": 0.5905511811023622,
                    "duration": 0.3000000000000007
                },
                {
                    "name": "C#5",
                    "midi": 73,
                    "time": 27.000000000000007,
                    "velocity": 0.5905511811023622,
                    "duration": 0.3000000000000007
                },
                {
                    "name": "C#4",
                    "midi": 61,
                    "time": 27.000000000000007,
                    "velocity": 0.5905511811023622,
                    "duration": 0.9000000000000021
                },
                {
                    "name": "F#4",
                    "midi": 66,
                    "time": 27.000000000000007,
                    "velocity": 0.5905511811023622,
                    "duration": 0.9000000000000021
                },
                {
                    "name": "C5",
                    "midi": 72,
                    "time": 27.300000000000008,
                    "velocity": 0.5984251968503937,
                    "duration": 0.3000000000000007
                },
                {
                    "name": "D#5",
                    "midi": 75,
                    "time": 27.60000000000001,
                    "velocity": 0.6377952755905512,
                    "duration": 0.3000000000000007
                },
                {
                    "name": "C#5",
                    "midi": 73,
                    "time": 27.90000000000001,
                    "velocity": 0.6614173228346457,
                    "duration": 0.3000000000000007
                },
                {
                    "name": "C5",
                    "midi": 72,
                    "time": 28.20000000000001,
                    "velocity": 0.6850393700787402,
                    "duration": 0.3000000000000007
                },
                {
                    "name": "A#4",
                    "midi": 70,
                    "time": 28.50000000000001,
                    "velocity": 0.6929133858267716,
                    "duration": 0.3000000000000007
                },
                {
                    "name": "G#4",
                    "midi": 68,
                    "time": 28.80000000000001,
                    "velocity": 0.7165354330708661,
                    "duration": 1.2000000000000028
                },
                {
                    "name": "C4",
                    "midi": 60,
                    "time": 29.400000000000013,
                    "velocity": 0.7165354330708661,
                    "duration": 0.6000000000000014
                },
                {
                    "name": "D#4",
                    "midi": 63,
                    "time": 29.400000000000013,
                    "velocity": 0.7165354330708661,
                    "duration": 0.6000000000000014
                },
                {
                    "name": "F4",
                    "midi": 65,
                    "time": 30.000000000000014,
                    "velocity": 0.7165354330708661,
                    "duration": 0.6000000000000014
                },
                {
                    "name": "B3",
                    "midi": 59,
                    "time": 30.000000000000014,
                    "velocity": 0.7165354330708661,
                    "duration": 0.6000000000000014
                },
                {
                    "name": "D4",
                    "midi": 62,
                    "time": 30.000000000000014,
                    "velocity": 0.7165354330708661,
                    "duration": 0.6000000000000014
                },
                {
                    "name": "E4",
                    "midi": 64,
                    "time": 30.600000000000016,
                    "velocity": 0.7007874015748031,
                    "duration": 2.3700000000000045
                },
                {
                    "name": "D4",
                    "midi": 62,
                    "time": 31.200000000000017,
                    "velocity": 0.6220472440944882,
                    "duration": 1.7700000000000031
                },
                {
                    "name": "B3",
                    "midi": 59,
                    "time": 31.200000000000017,
                    "velocity": 0.6220472440944882,
                    "duration": 1.7700000000000031
                },
                {
                    "name": "B3",
                    "midi": 59,
                    "time": 33.00000000000002,
                    "velocity": 0.5905511811023622,
                    "duration": 0.8299999999999983
                },
                {
                    "name": "D4",
                    "midi": 62,
                    "time": 33.00000000000002,
                    "velocity": 0.5905511811023622,
                    "duration": 0.8299999999999983
                },
                {
                    "name": "E4",
                    "midi": 64,
                    "time": 33.00000000000002,
                    "velocity": 0.5905511811023622,
                    "duration": 0.8299999999999983
                },
                {
                    "name": "B3",
                    "midi": 59,
                    "time": 33.90000000000002,
                    "velocity": 0.5826771653543307,
                    "duration": 0.2749999999999986
                },
                {
                    "name": "D4",
                    "midi": 62,
                    "time": 33.90000000000002,
                    "velocity": 0.5826771653543307,
                    "duration": 0.2749999999999986
                },
                {
                    "name": "D#4",
                    "midi": 63,
                    "time": 33.90000000000002,
                    "velocity": 0.5826771653543307,
                    "duration": 0.2749999999999986
                },
                {
                    "name": "A3",
                    "midi": 57,
                    "time": 34.20000000000002,
                    "velocity": 0.5748031496062992,
                    "duration": 0.5499999999999972
                },
                {
                    "name": "C4",
                    "midi": 60,
                    "time": 34.20000000000002,
                    "velocity": 0.5748031496062992,
                    "duration": 0.5499999999999972
                },
                {
                    "name": "E4",
                    "midi": 64,
                    "time": 34.20000000000002,
                    "velocity": 0.5748031496062992,
                    "duration": 0.5499999999999972
                },
                {
                    "name": "E4",
                    "midi": 64,
                    "time": 34.80000000000001,
                    "velocity": 0.5590551181102362,
                    "duration": 1.4937499999999986
                },
                {
                    "name": "C4",
                    "midi": 60,
                    "time": 34.80000000000001,
                    "velocity": 0.5590551181102362,
                    "duration": 1.4937499999999986
                },
                {
                    "name": "A3",
                    "midi": 57,
                    "time": 34.80000000000001,
                    "velocity": 0.5590551181102362,
                    "duration": 1.4937499999999986
                },
                {
                    "name": "A3",
                    "midi": 57,
                    "time": 36.60000000000001,
                    "velocity": 0.5590551181102362,
                    "duration": 0.8299999999999983
                },
                {
                    "name": "C4",
                    "midi": 60,
                    "time": 36.60000000000001,
                    "velocity": 0.5590551181102362,
                    "duration": 0.8299999999999983
                },
                {
                    "name": "D4",
                    "midi": 62,
                    "time": 36.60000000000001,
                    "velocity": 0.5590551181102362,
                    "duration": 0.8299999999999983
                },
                {
                    "name": "A3",
                    "midi": 57,
                    "time": 37.50000000000001,
                    "velocity": 0.49606299212598426,
                    "duration": 0.2749999999999986
                },
                {
                    "name": "C4",
                    "midi": 60,
                    "time": 37.50000000000001,
                    "velocity": 0.49606299212598426,
                    "duration": 0.2749999999999986
                },
                {
                    "name": "C#4",
                    "midi": 61,
                    "time": 37.50000000000001,
                    "velocity": 0.49606299212598426,
                    "duration": 0.2749999999999986
                },
                {
                    "name": "D4",
                    "midi": 62,
                    "time": 37.800000000000004,
                    "velocity": 0.4881889763779528,
                    "duration": 0.5499999999999972
                },
                {
                    "name": "B3",
                    "midi": 59,
                    "time": 37.800000000000004,
                    "velocity": 0.4881889763779528,
                    "duration": 0.5499999999999972
                },
                {
                    "name": "G3",
                    "midi": 55,
                    "time": 37.800000000000004,
                    "velocity": 0.4881889763779528,
                    "duration": 0.5499999999999972
                },
                {
                    "name": "D4",
                    "midi": 62,
                    "time": 38.4,
                    "velocity": 0.48031496062992124,
                    "duration": 1.1049999999999969
                },
                {
                    "name": "B3",
                    "midi": 59,
                    "time": 38.4,
                    "velocity": 0.48031496062992124,
                    "duration": 1.1049999999999969
                },
                {
                    "name": "G3",
                    "midi": 55,
                    "time": 38.4,
                    "velocity": 0.48031496062992124,
                    "duration": 1.1049999999999969
                },
                {
                    "name": "A3",
                    "midi": 57,
                    "time": 39.599999999999994,
                    "velocity": 0.5354330708661418,
                    "duration": 0.5512500000000031
                },
                {
                    "name": "C4",
                    "midi": 60,
                    "time": 39.599999999999994,
                    "velocity": 0.5354330708661418,
                    "duration": 0.5512500000000031
                },
                {
                    "name": "B3",
                    "midi": 59,
                    "time": 40.199999999999996,
                    "velocity": 0.5748031496062992,
                    "duration": 0.8275000000000006
                },
                {
                    "name": "D4",
                    "midi": 62,
                    "time": 40.199999999999996,
                    "velocity": 0.5748031496062992,
                    "duration": 0.8275000000000006
                },
                {
                    "name": "G3",
                    "midi": 55,
                    "time": 40.8,
                    "velocity": 0.5590551181102362,
                    "duration": 1.1699999999999946
                },
                {
                    "name": "C4",
                    "midi": 60,
                    "time": 41.099999999999994,
                    "velocity": 0.5826771653543307,
                    "duration": 0.2749999999999986
                },
                {
                    "name": "E4",
                    "midi": 64,
                    "time": 41.099999999999994,
                    "velocity": 0.5826771653543307,
                    "duration": 0.2749999999999986
                },
                {
                    "name": "F4",
                    "midi": 65,
                    "time": 41.39999999999999,
                    "velocity": 0.5984251968503937,
                    "duration": 0.5499999999999972
                },
                {
                    "name": "D4",
                    "midi": 62,
                    "time": 41.39999999999999,
                    "velocity": 0.5984251968503937,
                    "duration": 0.5499999999999972
                },
                {
                    "name": "G3",
                    "midi": 55,
                    "time": 41.99999999999999,
                    "velocity": 0.5984251968503937,
                    "duration": 1.1049999999999969
                },
                {
                    "name": "F4",
                    "midi": 65,
                    "time": 41.99999999999999,
                    "velocity": 0.5984251968503937,
                    "duration": 1.1049999999999969
                },
                {
                    "name": "D4",
                    "midi": 62,
                    "time": 41.99999999999999,
                    "velocity": 0.5984251968503937,
                    "duration": 1.1049999999999969
                },
                {
                    "name": "D4",
                    "midi": 62,
                    "time": 43.19999999999999,
                    "velocity": 0.7244094488188977,
                    "duration": 0.5512500000000031
                },
                {
                    "name": "F4",
                    "midi": 65,
                    "time": 43.19999999999999,
                    "velocity": 0.7244094488188977,
                    "duration": 0.5512500000000031
                },
                {
                    "name": "G4",
                    "midi": 67,
                    "time": 43.79999999999999,
                    "velocity": 0.7716535433070866,
                    "duration": 0.8275000000000006
                },
                {
                    "name": "E4",
                    "midi": 64,
                    "time": 43.79999999999999,
                    "velocity": 0.7716535433070866,
                    "duration": 1.103749999999998
                },
                {
                    "name": "C4",
                    "midi": 60,
                    "time": 44.39999999999999,
                    "velocity": 0.7795275590551181,
                    "duration": 0.551249999999996
                },
                {
                    "name": "A4",
                    "midi": 69,
                    "time": 44.69999999999999,
                    "velocity": 0.7716535433070866,
                    "duration": 0.2749999999999986
                },
                {
                    "name": "A#4",
                    "midi": 70,
                    "time": 44.999999999999986,
                    "velocity": 0.7716535433070866,
                    "duration": 0.5499999999999972
                },
                {
                    "name": "F4",
                    "midi": 65,
                    "time": 44.999999999999986,
                    "velocity": 0.7716535433070866,
                    "duration": 0.5499999999999972
                },
                {
                    "name": "C#4",
                    "midi": 61,
                    "time": 44.999999999999986,
                    "velocity": 0.7716535433070866,
                    "duration": 0.5499999999999972
                },
                {
                    "name": "A#4",
                    "midi": 70,
                    "time": 45.59999999999998,
                    "velocity": 0.7716535433070866,
                    "duration": 1.1049999999999969
                },
                {
                    "name": "F4",
                    "midi": 65,
                    "time": 45.59999999999998,
                    "velocity": 0.7716535433070866,
                    "duration": 1.1049999999999969
                },
                {
                    "name": "C#4",
                    "midi": 61,
                    "time": 45.59999999999998,
                    "velocity": 0.7716535433070866,
                    "duration": 1.1049999999999969
                },
                {
                    "name": "A#4",
                    "midi": 70,
                    "time": 46.799999999999976,
                    "velocity": 0.5118110236220472,
                    "duration": 0.5499999999999972
                },
                {
                    "name": "C#4",
                    "midi": 61,
                    "time": 46.799999999999976,
                    "velocity": 0.5118110236220472,
                    "duration": 0.5499999999999972
                },
                {
                    "name": "F4",
                    "midi": 65,
                    "time": 46.799999999999976,
                    "velocity": 0.5118110236220472,
                    "duration": 0.5499999999999972
                },
                {
                    "name": "C#4",
                    "midi": 61,
                    "time": 47.39999999999997,
                    "velocity": 0.5196850393700787,
                    "duration": 0.8299999999999983
                },
                {
                    "name": "F4",
                    "midi": 65,
                    "time": 47.39999999999997,
                    "velocity": 0.5196850393700787,
                    "duration": 0.8299999999999983
                },
                {
                    "name": "A#4",
                    "midi": 70,
                    "time": 47.39999999999997,
                    "velocity": 0.5196850393700787,
                    "duration": 0.8299999999999983
                },
                {
                    "name": "C4",
                    "midi": 60,
                    "time": 48.29999999999997,
                    "velocity": 0.41732283464566927,
                    "duration": 0.2749999999999986
                },
                {
                    "name": "F4",
                    "midi": 65,
                    "time": 48.29999999999997,
                    "velocity": 0.41732283464566927,
                    "duration": 0.2749999999999986
                },
                {
                    "name": "A4",
                    "midi": 69,
                    "time": 48.29999999999997,
                    "velocity": 0.41732283464566927,
                    "duration": 0.2749999999999986
                },
                {
                    "name": "A#4",
                    "midi": 70,
                    "time": 48.599999999999966,
                    "velocity": 0.4251968503937008,
                    "duration": 0.5499999999999972
                },
                {
                    "name": "F4",
                    "midi": 65,
                    "time": 48.599999999999966,
                    "velocity": 0.4251968503937008,
                    "duration": 0.5499999999999972
                },
                {
                    "name": "C#4",
                    "midi": 61,
                    "time": 48.599999999999966,
                    "velocity": 0.4251968503937008,
                    "duration": 0.5499999999999972
                },
                {
                    "name": "F4",
                    "midi": 65,
                    "time": 49.19999999999996,
                    "velocity": 0.4251968503937008,
                    "duration": 1.1049999999999969
                },
                {
                    "name": "C#4",
                    "midi": 61,
                    "time": 49.19999999999996,
                    "velocity": 0.4251968503937008,
                    "duration": 1.1049999999999969
                },
                {
                    "name": "A#3",
                    "midi": 58,
                    "time": 49.19999999999996,
                    "velocity": 0.4251968503937008,
                    "duration": 1.1049999999999969
                },
                {
                    "name": "A#3",
                    "midi": 58,
                    "time": 50.399999999999956,
                    "velocity": 0.5118110236220472,
                    "duration": 0.5499999999999972
                },
                {
                    "name": "C4",
                    "midi": 60,
                    "time": 50.399999999999956,
                    "velocity": 0.5118110236220472,
                    "duration": 0.5499999999999972
                },
                {
                    "name": "E4",
                    "midi": 64,
                    "time": 50.399999999999956,
                    "velocity": 0.5118110236220472,
                    "duration": 0.5499999999999972
                },
                {
                    "name": "A#3",
                    "midi": 58,
                    "time": 50.99999999999995,
                    "velocity": 0.5275590551181102,
                    "duration": 0.8299999999999983
                },
                {
                    "name": "C4",
                    "midi": 60,
                    "time": 50.99999999999995,
                    "velocity": 0.5275590551181102,
                    "duration": 0.8299999999999983
                },
                {
                    "name": "E4",
                    "midi": 64,
                    "time": 50.99999999999995,
                    "velocity": 0.5275590551181102,
                    "duration": 0.8299999999999983
                },
                {
                    "name": "A#3",
                    "midi": 58,
                    "time": 51.89999999999995,
                    "velocity": 0.5590551181102362,
                    "duration": 0.2749999999999986
                },
                {
                    "name": "C4",
                    "midi": 60,
                    "time": 51.89999999999995,
                    "velocity": 0.5590551181102362,
                    "duration": 0.2749999999999986
                },
                {
                    "name": "D#4",
                    "midi": 63,
                    "time": 51.89999999999995,
                    "velocity": 0.5590551181102362,
                    "duration": 0.2749999999999986
                },
                {
                    "name": "F3",
                    "midi": 53,
                    "time": 52.199999999999946,
                    "velocity": 0.5669291338582677,
                    "duration": 0.5499999999999972
                },
                {
                    "name": "A3",
                    "midi": 57,
                    "time": 52.199999999999946,
                    "velocity": 0.5669291338582677,
                    "duration": 0.5499999999999972
                },
                {
                    "name": "C4",
                    "midi": 60,
                    "time": 52.199999999999946,
                    "velocity": 0.5669291338582677,
                    "duration": 0.5499999999999972
                },
                {
                    "name": "E4",
                    "midi": 64,
                    "time": 52.199999999999946,
                    "velocity": 0.5669291338582677,
                    "duration": 0.5499999999999972
                },
                {
                    "name": "F3",
                    "midi": 53,
                    "time": 52.79999999999994,
                    "velocity": 0.5826771653543307,
                    "duration": 1.103749999999998
                },
                {
                    "name": "G#3",
                    "midi": 56,
                    "time": 52.79999999999994,
                    "velocity": 0.5826771653543307,
                    "duration": 1.103749999999998
                },
                {
                    "name": "C4",
                    "midi": 60,
                    "time": 52.79999999999994,
                    "velocity": 0.5826771653543307,
                    "duration": 1.103749999999998
                },
                {
                    "name": "D#4",
                    "midi": 63,
                    "time": 52.79999999999994,
                    "velocity": 0.5826771653543307,
                    "duration": 1.103749999999998
                },
                {
                    "name": "C#5",
                    "midi": 73,
                    "time": 58.19999999999994,
                    "velocity": 0.7480314960629921,
                    "duration": 0.8999999999999986
                },
                {
                    "name": "F5",
                    "midi": 77,
                    "time": 58.19999999999994,
                    "velocity": 0.7480314960629921,
                    "duration": 0.8999999999999986
                },
                {
                    "name": "C5",
                    "midi": 72,
                    "time": 59.09999999999994,
                    "velocity": 0.5748031496062992,
                    "duration": 0.29999999999999716
                },
                {
                    "name": "E5",
                    "midi": 76,
                    "time": 59.09999999999994,
                    "velocity": 0.5748031496062992,
                    "duration": 0.29999999999999716
                },
                {
                    "name": "C#5",
                    "midi": 73,
                    "time": 59.399999999999935,
                    "velocity": 0.5748031496062992,
                    "duration": 0.6000000000000014
                },
                {
                    "name": "F5",
                    "midi": 77,
                    "time": 59.399999999999935,
                    "velocity": 0.5748031496062992,
                    "duration": 0.6000000000000014
                },
                {
                    "name": "C5",
                    "midi": 72,
                    "time": 59.999999999999936,
                    "velocity": 0.5984251968503937,
                    "duration": 0.8999999999999986
                },
                {
                    "name": "E5",
                    "midi": 76,
                    "time": 59.999999999999936,
                    "velocity": 0.5984251968503937,
                    "duration": 0.8999999999999986
                },
                {
                    "name": "B4",
                    "midi": 71,
                    "time": 60.899999999999935,
                    "velocity": 0.6299212598425197,
                    "duration": 0.29999999999999716
                },
                {
                    "name": "D#5",
                    "midi": 75,
                    "time": 60.899999999999935,
                    "velocity": 0.6299212598425197,
                    "duration": 0.29999999999999716
                },
                {
                    "name": "C5",
                    "midi": 72,
                    "time": 61.19999999999993,
                    "velocity": 0.6299212598425197,
                    "duration": 0.5512500000000031
                },
                {
                    "name": "E5",
                    "midi": 76,
                    "time": 61.19999999999993,
                    "velocity": 0.6299212598425197,
                    "duration": 0.5512500000000031
                },
                {
                    "name": "G4",
                    "midi": 67,
                    "time": 61.79999999999993,
                    "velocity": 0.6299212598425197,
                    "duration": 0.8275000000000006
                },
                {
                    "name": "C5",
                    "midi": 72,
                    "time": 61.79999999999993,
                    "velocity": 0.6299212598425197,
                    "duration": 0.8275000000000006
                },
                {
                    "name": "E5",
                    "midi": 76,
                    "time": 61.79999999999993,
                    "velocity": 0.6299212598425197,
                    "duration": 0.8275000000000006
                },
                {
                    "name": "G4",
                    "midi": 67,
                    "time": 62.69999999999993,
                    "velocity": 0.6299212598425197,
                    "duration": 0.2749999999999986
                },
                {
                    "name": "C5",
                    "midi": 72,
                    "time": 62.69999999999993,
                    "velocity": 0.6299212598425197,
                    "duration": 0.2749999999999986
                },
                {
                    "name": "E5",
                    "midi": 76,
                    "time": 62.69999999999993,
                    "velocity": 0.6299212598425197,
                    "duration": 0.2749999999999986
                },
                {
                    "name": "G4",
                    "midi": 67,
                    "time": 62.99999999999993,
                    "velocity": 0.6299212598425197,
                    "duration": 0.5512500000000031
                },
                {
                    "name": "B4",
                    "midi": 71,
                    "time": 62.99999999999993,
                    "velocity": 0.6299212598425197,
                    "duration": 0.5512500000000031
                },
                {
                    "name": "D5",
                    "midi": 74,
                    "time": 62.99999999999993,
                    "velocity": 0.6299212598425197,
                    "duration": 0.5512500000000031
                },
                {
                    "name": "G4",
                    "midi": 67,
                    "time": 63.59999999999993,
                    "velocity": 0.6299212598425197,
                    "duration": 1.103749999999998
                },
                {
                    "name": "B4",
                    "midi": 71,
                    "time": 63.59999999999993,
                    "velocity": 0.6299212598425197,
                    "duration": 1.103749999999998
                },
                {
                    "name": "D5",
                    "midi": 74,
                    "time": 63.59999999999993,
                    "velocity": 0.6299212598425197,
                    "duration": 1.103749999999998
                },
                {
                    "name": "C5",
                    "midi": 72,
                    "time": 64.79999999999993,
                    "velocity": 0.6299212598425197,
                    "duration": 0.5499999999999972
                },
                {
                    "name": "A4",
                    "midi": 69,
                    "time": 64.79999999999993,
                    "velocity": 0.6299212598425197,
                    "duration": 0.5499999999999972
                },
                {
                    "name": "G4",
                    "midi": 67,
                    "time": 64.79999999999993,
                    "velocity": 0.6299212598425197,
                    "duration": 0.5499999999999972
                },
                {
                    "name": "B4",
                    "midi": 71,
                    "time": 65.39999999999992,
                    "velocity": 0.6299212598425197,
                    "duration": 0.8299999999999983
                },
                {
                    "name": "A4",
                    "midi": 69,
                    "time": 65.39999999999992,
                    "velocity": 0.6299212598425197,
                    "duration": 0.8299999999999983
                },
                {
                    "name": "G4",
                    "midi": 67,
                    "time": 65.39999999999992,
                    "velocity": 0.6299212598425197,
                    "duration": 0.8299999999999983
                },
                {
                    "name": "C5",
                    "midi": 72,
                    "time": 66.29999999999991,
                    "velocity": 0.6299212598425197,
                    "duration": 0.2750000000000057
                },
                {
                    "name": "A4",
                    "midi": 69,
                    "time": 66.29999999999991,
                    "velocity": 0.6299212598425197,
                    "duration": 0.2750000000000057
                },
                {
                    "name": "G4",
                    "midi": 67,
                    "time": 66.29999999999991,
                    "velocity": 0.6299212598425197,
                    "duration": 0.2750000000000057
                },
                {
                    "name": "D5",
                    "midi": 74,
                    "time": 66.59999999999992,
                    "velocity": 0.6299212598425197,
                    "duration": 0.5499999999999972
                },
                {
                    "name": "B4",
                    "midi": 71,
                    "time": 66.59999999999992,
                    "velocity": 0.6299212598425197,
                    "duration": 0.5499999999999972
                },
                {
                    "name": "G4",
                    "midi": 67,
                    "time": 66.59999999999992,
                    "velocity": 0.6299212598425197,
                    "duration": 0.5499999999999972
                },
                {
                    "name": "B4",
                    "midi": 71,
                    "time": 67.19999999999992,
                    "velocity": 0.6299212598425197,
                    "duration": 1.105000000000004
                },
                {
                    "name": "G4",
                    "midi": 67,
                    "time": 67.19999999999992,
                    "velocity": 0.6299212598425197,
                    "duration": 1.105000000000004
                },
                {
                    "name": "D5",
                    "midi": 74,
                    "time": 67.19999999999992,
                    "velocity": 0.6299212598425197,
                    "duration": 1.105000000000004
                },
                {
                    "name": "D5",
                    "midi": 74,
                    "time": 68.39999999999992,
                    "velocity": 0.6299212598425197,
                    "duration": 0.5499999999999972
                },
                {
                    "name": "B4",
                    "midi": 71,
                    "time": 68.39999999999992,
                    "velocity": 0.6299212598425197,
                    "duration": 0.5499999999999972
                },
                {
                    "name": "G4",
                    "midi": 67,
                    "time": 68.39999999999992,
                    "velocity": 0.6299212598425197,
                    "duration": 0.5499999999999972
                },
                {
                    "name": "G4",
                    "midi": 67,
                    "time": 68.99999999999991,
                    "velocity": 0.5433070866141733,
                    "duration": 0.8299999999999983
                },
                {
                    "name": "C5",
                    "midi": 72,
                    "time": 68.99999999999991,
                    "velocity": 0.5433070866141733,
                    "duration": 0.8299999999999983
                },
                {
                    "name": "E5",
                    "midi": 76,
                    "time": 68.99999999999991,
                    "velocity": 0.5433070866141733,
                    "duration": 0.8299999999999983
                },
                {
                    "name": "D5",
                    "midi": 74,
                    "time": 69.8999999999999,
                    "velocity": 0.5511811023622047,
                    "duration": 0.2750000000000057
                },
                {
                    "name": "F5",
                    "midi": 77,
                    "time": 69.8999999999999,
                    "velocity": 0.5511811023622047,
                    "duration": 0.2750000000000057
                },
                {
                    "name": "G4",
                    "midi": 67,
                    "time": 69.8999999999999,
                    "velocity": 0.5511811023622047,
                    "duration": 0.2750000000000057
                },
                {
                    "name": "D5",
                    "midi": 74,
                    "time": 70.19999999999992,
                    "velocity": 0.6456692913385826,
                    "duration": 0.5499999999999972
                },
                {
                    "name": "F5",
                    "midi": 77,
                    "time": 70.19999999999992,
                    "velocity": 0.6456692913385826,
                    "duration": 0.5499999999999972
                },
                {
                    "name": "G4",
                    "midi": 67,
                    "time": 70.19999999999992,
                    "velocity": 0.6456692913385826,
                    "duration": 0.5499999999999972
                },
                {
                    "name": "G4",
                    "midi": 67,
                    "time": 70.79999999999991,
                    "velocity": 0.6692913385826772,
                    "duration": 1.105000000000004
                },
                {
                    "name": "C5",
                    "midi": 72,
                    "time": 70.79999999999991,
                    "velocity": 0.6692913385826772,
                    "duration": 1.105000000000004
                },
                {
                    "name": "E5",
                    "midi": 76,
                    "time": 70.79999999999991,
                    "velocity": 0.6692913385826772,
                    "duration": 1.105000000000004
                },
                {
                    "name": "D#4",
                    "midi": 63,
                    "time": 71.99999999999991,
                    "velocity": 0.7401574803149606,
                    "duration": 0.5499999999999972
                },
                {
                    "name": "D#5",
                    "midi": 75,
                    "time": 71.99999999999991,
                    "velocity": 0.7401574803149606,
                    "duration": 0.5499999999999972
                },
                {
                    "name": "C5",
                    "midi": 72,
                    "time": 71.99999999999991,
                    "velocity": 0.7401574803149606,
                    "duration": 0.5499999999999972
                },
                {
                    "name": "B4",
                    "midi": 71,
                    "time": 72.59999999999991,
                    "velocity": 0.6771653543307087,
                    "duration": 0.8299999999999983
                },
                {
                    "name": "F4",
                    "midi": 65,
                    "time": 72.59999999999991,
                    "velocity": 0.6771653543307087,
                    "duration": 0.8299999999999983
                },
                {
                    "name": "D5",
                    "midi": 74,
                    "time": 72.59999999999991,
                    "velocity": 0.6771653543307087,
                    "duration": 0.8299999999999983
                },
                {
                    "name": "F#4",
                    "midi": 66,
                    "time": 73.4999999999999,
                    "velocity": 0.6456692913385826,
                    "duration": 0.2750000000000057
                },
                {
                    "name": "C5",
                    "midi": 72,
                    "time": 73.4999999999999,
                    "velocity": 0.6456692913385826,
                    "duration": 0.2750000000000057
                },
                {
                    "name": "A4",
                    "midi": 69,
                    "time": 73.4999999999999,
                    "velocity": 0.6456692913385826,
                    "duration": 0.2750000000000057
                },
                {
                    "name": "B4",
                    "midi": 71,
                    "time": 73.79999999999991,
                    "velocity": 0.6299212598425197,
                    "duration": 0.5499999999999972
                },
                {
                    "name": "G#4",
                    "midi": 68,
                    "time": 73.79999999999991,
                    "velocity": 0.6299212598425197,
                    "duration": 0.5499999999999972
                },
                {
                    "name": "F4",
                    "midi": 65,
                    "time": 73.79999999999991,
                    "velocity": 0.6299212598425197,
                    "duration": 0.5499999999999972
                },
                {
                    "name": "B4",
                    "midi": 71,
                    "time": 74.3999999999999,
                    "velocity": 0.6299212598425197,
                    "duration": 1.105000000000004
                },
                {
                    "name": "G#4",
                    "midi": 68,
                    "time": 74.3999999999999,
                    "velocity": 0.6299212598425197,
                    "duration": 1.105000000000004
                },
                {
                    "name": "F4",
                    "midi": 65,
                    "time": 74.3999999999999,
                    "velocity": 0.6299212598425197,
                    "duration": 1.105000000000004
                },
                {
                    "name": "E4",
                    "midi": 64,
                    "time": 75.59999999999991,
                    "velocity": 0.5433070866141733,
                    "duration": 0.5499999999999972
                },
                {
                    "name": "G4",
                    "midi": 67,
                    "time": 75.59999999999991,
                    "velocity": 0.5433070866141733,
                    "duration": 0.5499999999999972
                },
                {
                    "name": "E5",
                    "midi": 76,
                    "time": 75.59999999999991,
                    "velocity": 0.5433070866141733,
                    "duration": 0.5499999999999972
                },
                {
                    "name": "E5",
                    "midi": 76,
                    "time": 76.1999999999999,
                    "velocity": 0.5590551181102362,
                    "duration": 0.8275000000000006
                },
                {
                    "name": "G4",
                    "midi": 67,
                    "time": 76.1999999999999,
                    "velocity": 0.5590551181102362,
                    "duration": 0.8275000000000006
                },
                {
                    "name": "E4",
                    "midi": 64,
                    "time": 76.1999999999999,
                    "velocity": 0.5590551181102362,
                    "duration": 0.8275000000000006
                },
                {
                    "name": "E5",
                    "midi": 76,
                    "time": 77.09999999999991,
                    "velocity": 0.5433070866141733,
                    "duration": 0.2750000000000057
                },
                {
                    "name": "G4",
                    "midi": 67,
                    "time": 77.09999999999991,
                    "velocity": 0.5433070866141733,
                    "duration": 0.2750000000000057
                },
                {
                    "name": "E4",
                    "midi": 64,
                    "time": 77.09999999999991,
                    "velocity": 0.5433070866141733,
                    "duration": 0.2750000000000057
                },
                {
                    "name": "F4",
                    "midi": 65,
                    "time": 77.39999999999992,
                    "velocity": 0.5433070866141733,
                    "duration": 0.5499999999999972
                },
                {
                    "name": "G4",
                    "midi": 67,
                    "time": 77.39999999999992,
                    "velocity": 0.5433070866141733,
                    "duration": 0.5499999999999972
                },
                {
                    "name": "D5",
                    "midi": 74,
                    "time": 77.39999999999992,
                    "velocity": 0.5433070866141733,
                    "duration": 0.5499999999999972
                },
                {
                    "name": "F4",
                    "midi": 65,
                    "time": 77.99999999999991,
                    "velocity": 0.5511811023622047,
                    "duration": 1.105000000000004
                },
                {
                    "name": "G4",
                    "midi": 67,
                    "time": 77.99999999999991,
                    "velocity": 0.5511811023622047,
                    "duration": 1.105000000000004
                },
                {
                    "name": "D5",
                    "midi": 74,
                    "time": 77.99999999999991,
                    "velocity": 0.5511811023622047,
                    "duration": 1.105000000000004
                },
                {
                    "name": "E5",
                    "midi": 76,
                    "time": 79.19999999999992,
                    "velocity": 0.5511811023622047,
                    "duration": 0.5499999999999972
                },
                {
                    "name": "C5",
                    "midi": 72,
                    "time": 79.19999999999992,
                    "velocity": 0.5511811023622047,
                    "duration": 0.5499999999999972
                },
                {
                    "name": "G4",
                    "midi": 67,
                    "time": 79.19999999999992,
                    "velocity": 0.5511811023622047,
                    "duration": 0.5499999999999972
                },
                {
                    "name": "F5",
                    "midi": 77,
                    "time": 79.79999999999991,
                    "velocity": 0.5354330708661418,
                    "duration": 0.8275000000000006
                },
                {
                    "name": "D5",
                    "midi": 74,
                    "time": 79.79999999999991,
                    "velocity": 0.5354330708661418,
                    "duration": 0.8275000000000006
                },
                {
                    "name": "A4",
                    "midi": 69,
                    "time": 79.79999999999991,
                    "velocity": 0.5354330708661418,
                    "duration": 0.8275000000000006
                },
                {
                    "name": "G5",
                    "midi": 79,
                    "time": 80.69999999999992,
                    "velocity": 0.5669291338582677,
                    "duration": 0.2750000000000057
                },
                {
                    "name": "D#5",
                    "midi": 75,
                    "time": 80.69999999999992,
                    "velocity": 0.5669291338582677,
                    "duration": 0.2750000000000057
                },
                {
                    "name": "A#4",
                    "midi": 70,
                    "time": 80.69999999999992,
                    "velocity": 0.5669291338582677,
                    "duration": 0.2750000000000057
                },
                {
                    "name": "A5",
                    "midi": 81,
                    "time": 80.99999999999993,
                    "velocity": 0.6299212598425197,
                    "duration": 0.5499999999999972
                },
                {
                    "name": "E5",
                    "midi": 76,
                    "time": 80.99999999999993,
                    "velocity": 0.6299212598425197,
                    "duration": 0.5499999999999972
                },
                {
                    "name": "B4",
                    "midi": 71,
                    "time": 80.99999999999993,
                    "velocity": 0.6299212598425197,
                    "duration": 0.5499999999999972
                },
                {
                    "name": "E5",
                    "midi": 76,
                    "time": 81.59999999999992,
                    "velocity": 0.6692913385826772,
                    "duration": 1.105000000000004
                },
                {
                    "name": "B4",
                    "midi": 71,
                    "time": 81.59999999999992,
                    "velocity": 0.6692913385826772,
                    "duration": 1.105000000000004
                },
                {
                    "name": "A5",
                    "midi": 81,
                    "time": 81.59999999999992,
                    "velocity": 0.6692913385826772,
                    "duration": 1.105000000000004
                },
                {
                    "name": "A5",
                    "midi": 81,
                    "time": 82.79999999999993,
                    "velocity": 0.7244094488188977,
                    "duration": 0.5499999999999972
                },
                {
                    "name": "E5",
                    "midi": 76,
                    "time": 82.79999999999993,
                    "velocity": 0.7244094488188977,
                    "duration": 0.5499999999999972
                },
                {
                    "name": "A#4",
                    "midi": 70,
                    "time": 82.79999999999993,
                    "velocity": 0.7244094488188977,
                    "duration": 0.5499999999999972
                },
                {
                    "name": "A5",
                    "midi": 81,
                    "time": 83.39999999999992,
                    "velocity": 0.7244094488188977,
                    "duration": 0.8275000000000006
                },
                {
                    "name": "E5",
                    "midi": 76,
                    "time": 83.39999999999992,
                    "velocity": 0.7244094488188977,
                    "duration": 0.8275000000000006
                },
                {
                    "name": "A#4",
                    "midi": 70,
                    "time": 83.39999999999992,
                    "velocity": 0.7244094488188977,
                    "duration": 0.8275000000000006
                },
                {
                    "name": "A#4",
                    "midi": 70,
                    "time": 84.29999999999993,
                    "velocity": 0.7086614173228346,
                    "duration": 0.2750000000000057
                },
                {
                    "name": "E5",
                    "midi": 76,
                    "time": 84.29999999999993,
                    "velocity": 0.7086614173228346,
                    "duration": 0.2750000000000057
                },
                {
                    "name": "G#5",
                    "midi": 80,
                    "time": 84.29999999999993,
                    "velocity": 0.7086614173228346,
                    "duration": 0.2750000000000057
                },
                {
                    "name": "A4",
                    "midi": 69,
                    "time": 84.59999999999994,
                    "velocity": 0.7086614173228346,
                    "duration": 0.551249999999996
                },
                {
                    "name": "F#5",
                    "midi": 78,
                    "time": 84.59999999999994,
                    "velocity": 0.7086614173228346,
                    "duration": 0.551249999999996
                },
                {
                    "name": "A5",
                    "midi": 81,
                    "time": 84.59999999999994,
                    "velocity": 0.7086614173228346,
                    "duration": 0.551249999999996
                },
                {
                    "name": "A4",
                    "midi": 69,
                    "time": 85.19999999999993,
                    "velocity": 0.7086614173228346,
                    "duration": 1.1037500000000051
                },
                {
                    "name": "F#5",
                    "midi": 78,
                    "time": 85.19999999999993,
                    "velocity": 0.7086614173228346,
                    "duration": 1.1037500000000051
                },
                {
                    "name": "A5",
                    "midi": 81,
                    "time": 85.19999999999993,
                    "velocity": 0.7086614173228346,
                    "duration": 1.1037500000000051
                },
                {
                    "name": "A4",
                    "midi": 69,
                    "time": 86.39999999999993,
                    "velocity": 0.7165354330708661,
                    "duration": 0.551249999999996
                },
                {
                    "name": "E5",
                    "midi": 76,
                    "time": 86.39999999999993,
                    "velocity": 0.7165354330708661,
                    "duration": 0.551249999999996
                },
                {
                    "name": "A5",
                    "midi": 81,
                    "time": 86.39999999999993,
                    "velocity": 0.7165354330708661,
                    "duration": 0.551249999999996
                },
                {
                    "name": "A4",
                    "midi": 69,
                    "time": 86.99999999999993,
                    "velocity": 0.7322834645669292,
                    "duration": 1.103749999999991
                },
                {
                    "name": "E5",
                    "midi": 76,
                    "time": 86.99999999999993,
                    "velocity": 0.7322834645669292,
                    "duration": 1.103749999999991
                },
                {
                    "name": "A5",
                    "midi": 81,
                    "time": 86.99999999999993,
                    "velocity": 0.7322834645669292,
                    "duration": 0.8937499999999972
                },
                {
                    "name": "G#5",
                    "midi": 80,
                    "time": 87.89999999999992,
                    "velocity": 0.7480314960629921,
                    "duration": 0.3062499999999915
                },
                {
                    "name": "G4",
                    "midi": 67,
                    "time": 88.19999999999992,
                    "velocity": 0.7480314960629921,
                    "duration": 0.551249999999996
                },
                {
                    "name": "D#5",
                    "midi": 75,
                    "time": 88.19999999999992,
                    "velocity": 0.7480314960629921,
                    "duration": 0.551249999999996
                },
                {
                    "name": "A5",
                    "midi": 81,
                    "time": 88.19999999999992,
                    "velocity": 0.7480314960629921,
                    "duration": 0.551249999999996
                },
                {
                    "name": "G4",
                    "midi": 67,
                    "time": 88.79999999999991,
                    "velocity": 0.7322834645669292,
                    "duration": 1.1037500000000051
                },
                {
                    "name": "D#5",
                    "midi": 75,
                    "time": 88.79999999999991,
                    "velocity": 0.7322834645669292,
                    "duration": 1.1037500000000051
                },
                {
                    "name": "A5",
                    "midi": 81,
                    "time": 88.79999999999991,
                    "velocity": 0.7322834645669292,
                    "duration": 1.1037500000000051
                },
                {
                    "name": "A5",
                    "midi": 81,
                    "time": 89.99999999999991,
                    "velocity": 0.7244094488188977,
                    "duration": 0.551249999999996
                },
                {
                    "name": "F#5",
                    "midi": 78,
                    "time": 89.99999999999991,
                    "velocity": 0.7244094488188977,
                    "duration": 0.551249999999996
                },
                {
                    "name": "D5",
                    "midi": 74,
                    "time": 89.99999999999991,
                    "velocity": 0.7244094488188977,
                    "duration": 0.551249999999996
                },
                {
                    "name": "A5",
                    "midi": 81,
                    "time": 90.59999999999991,
                    "velocity": 0.7244094488188977,
                    "duration": 0.8937499999999972
                },
                {
                    "name": "F#5",
                    "midi": 78,
                    "time": 90.59999999999991,
                    "velocity": 0.7244094488188977,
                    "duration": 1.103749999999991
                },
                {
                    "name": "D5",
                    "midi": 74,
                    "time": 90.59999999999991,
                    "velocity": 0.7244094488188977,
                    "duration": 1.103749999999991
                },
                {
                    "name": "G#5",
                    "midi": 80,
                    "time": 91.4999999999999,
                    "velocity": 0.7244094488188977,
                    "duration": 0.3062499999999915
                },
                {
                    "name": "B5",
                    "midi": 83,
                    "time": 91.7999999999999,
                    "velocity": 0.7952755905511811,
                    "duration": 1.1999999999999886
                },
                {
                    "name": "F5",
                    "midi": 77,
                    "time": 91.7999999999999,
                    "velocity": 0.7952755905511811,
                    "duration": 1.7512499999999847
                },
                {
                    "name": "C5",
                    "midi": 72,
                    "time": 91.7999999999999,
                    "velocity": 0.7952755905511811,
                    "duration": 1.7512499999999847
                },
                {
                    "name": "A5",
                    "midi": 81,
                    "time": 92.99999999999989,
                    "velocity": 0.7716535433070866,
                    "duration": 0.551249999999996
                },
                {
                    "name": "B4",
                    "midi": 71,
                    "time": 93.59999999999988,
                    "velocity": 0.7637795275590551,
                    "duration": 0.5999999999999943
                },
                {
                    "name": "E5",
                    "midi": 76,
                    "time": 93.59999999999988,
                    "velocity": 0.7637795275590551,
                    "duration": 0.5999999999999943
                },
                {
                    "name": "G5",
                    "midi": 79,
                    "time": 93.59999999999988,
                    "velocity": 0.7637795275590551,
                    "duration": 0.5999999999999943
                },
                {
                    "name": "A#4",
                    "midi": 70,
                    "time": 94.19999999999987,
                    "velocity": 0.7322834645669292,
                    "duration": 0.5999999999999943
                },
                {
                    "name": "D5",
                    "midi": 74,
                    "time": 94.19999999999987,
                    "velocity": 0.7322834645669292,
                    "duration": 0.5999999999999943
                },
                {
                    "name": "F5",
                    "midi": 77,
                    "time": 94.19999999999987,
                    "velocity": 0.7322834645669292,
                    "duration": 0.8999999999999915
                },
                {
                    "name": "C#5",
                    "midi": 73,
                    "time": 94.79999999999987,
                    "velocity": 0.7952755905511811,
                    "duration": 1.1512499999999903
                },
                {
                    "name": "A4",
                    "midi": 69,
                    "time": 94.79999999999987,
                    "velocity": 0.7952755905511811,
                    "duration": 1.1512499999999903
                },
                {
                    "name": "G5",
                    "midi": 79,
                    "time": 95.09999999999987,
                    "velocity": 0.7952755905511811,
                    "duration": 0.29999999999999716
                },
                {
                    "name": "E5",
                    "midi": 76,
                    "time": 95.39999999999986,
                    "velocity": 0.7322834645669292,
                    "duration": 0.551249999999996
                },
                {
                    "name": "D#5",
                    "midi": 75,
                    "time": 95.99999999999986,
                    "velocity": 0.5905511811023622,
                    "duration": 0.8275000000000006
                },
                {
                    "name": "A4",
                    "midi": 69,
                    "time": 95.99999999999986,
                    "velocity": 0.5905511811023622,
                    "duration": 0.8275000000000006
                },
                {
                    "name": "C5",
                    "midi": 72,
                    "time": 95.99999999999986,
                    "velocity": 0.5905511811023622,
                    "duration": 0.8275000000000006
                },
                {
                    "name": "D5",
                    "midi": 74,
                    "time": 96.89999999999986,
                    "velocity": 0.6141732283464567,
                    "duration": 0.2750000000000057
                },
                {
                    "name": "C5",
                    "midi": 72,
                    "time": 96.89999999999986,
                    "velocity": 0.6141732283464567,
                    "duration": 0.2750000000000057
                },
                {
                    "name": "A4",
                    "midi": 69,
                    "time": 96.89999999999986,
                    "velocity": 0.6141732283464567,
                    "duration": 0.2750000000000057
                },
                {
                    "name": "G#4",
                    "midi": 68,
                    "time": 97.19999999999987,
                    "velocity": 0.5984251968503937,
                    "duration": 0.551249999999996
                },
                {
                    "name": "B4",
                    "midi": 71,
                    "time": 97.19999999999987,
                    "velocity": 0.5984251968503937,
                    "duration": 0.551249999999996
                },
                {
                    "name": "D#5",
                    "midi": 75,
                    "time": 97.19999999999987,
                    "velocity": 0.5984251968503937,
                    "duration": 0.551249999999996
                },
                {
                    "name": "D#5",
                    "midi": 75,
                    "time": 97.79999999999987,
                    "velocity": 0.5748031496062992,
                    "duration": 1.6550000000000011
                },
                {
                    "name": "B4",
                    "midi": 71,
                    "time": 97.79999999999987,
                    "velocity": 0.5748031496062992,
                    "duration": 1.6550000000000011
                },
                {
                    "name": "G#4",
                    "midi": 68,
                    "time": 97.79999999999987,
                    "velocity": 0.5748031496062992,
                    "duration": 1.6550000000000011
                },
                {
                    "name": "G#4",
                    "midi": 68,
                    "time": 99.59999999999987,
                    "velocity": 0.5826771653543307,
                    "duration": 0.8275000000000006
                },
                {
                    "name": "B4",
                    "midi": 71,
                    "time": 99.59999999999987,
                    "velocity": 0.5826771653543307,
                    "duration": 0.8275000000000006
                },
                {
                    "name": "D5",
                    "midi": 74,
                    "time": 99.59999999999987,
                    "velocity": 0.5826771653543307,
                    "duration": 0.8275000000000006
                },
                {
                    "name": "G#4",
                    "midi": 68,
                    "time": 100.49999999999987,
                    "velocity": 0.5669291338582677,
                    "duration": 0.2750000000000057
                },
                {
                    "name": "B4",
                    "midi": 71,
                    "time": 100.49999999999987,
                    "velocity": 0.5669291338582677,
                    "duration": 0.2750000000000057
                },
                {
                    "name": "C#5",
                    "midi": 73,
                    "time": 100.49999999999987,
                    "velocity": 0.5669291338582677,
                    "duration": 0.2750000000000057
                },
                {
                    "name": "G4",
                    "midi": 67,
                    "time": 100.79999999999988,
                    "velocity": 0.5433070866141733,
                    "duration": 0.551249999999996
                },
                {
                    "name": "A#4",
                    "midi": 70,
                    "time": 100.79999999999988,
                    "velocity": 0.5433070866141733,
                    "duration": 0.551249999999996
                },
                {
                    "name": "D5",
                    "midi": 74,
                    "time": 100.79999999999988,
                    "velocity": 0.5433070866141733,
                    "duration": 0.551249999999996
                },
                {
                    "name": "G4",
                    "midi": 67,
                    "time": 101.39999999999988,
                    "velocity": 0.5590551181102362,
                    "duration": 1.1037500000000051
                },
                {
                    "name": "A#4",
                    "midi": 70,
                    "time": 101.39999999999988,
                    "velocity": 0.5590551181102362,
                    "duration": 1.1037500000000051
                },
                {
                    "name": "D5",
                    "midi": 74,
                    "time": 101.39999999999988,
                    "velocity": 0.5590551181102362,
                    "duration": 1.1037500000000051
                },
                {
                    "name": "B3",
                    "midi": 59,
                    "time": 102.89999999999988,
                    "velocity": 0.5196850393700787,
                    "duration": 0.3062499999999915
                },
                {
                    "name": "E4",
                    "midi": 64,
                    "time": 103.19999999999987,
                    "velocity": 0.6456692913385826,
                    "duration": 0.29999999999999716
                },
                {
                    "name": "G4",
                    "midi": 67,
                    "time": 103.49999999999987,
                    "velocity": 0.6850393700787402,
                    "duration": 0.3062499999999915
                },
                {
                    "name": "A#4",
                    "midi": 70,
                    "time": 103.79999999999987,
                    "velocity": 0.6929133858267716,
                    "duration": 0.29999999999999716
                },
                {
                    "name": "C5",
                    "midi": 72,
                    "time": 104.09999999999987,
                    "velocity": 0.7480314960629921,
                    "duration": 0.3062499999999915
                },
                {
                    "name": "D5",
                    "midi": 74,
                    "time": 104.39999999999986,
                    "velocity": 0.7480314960629921,
                    "duration": 1.1999999999999886
                },
                {
                    "name": "F4",
                    "midi": 65,
                    "time": 104.99999999999986,
                    "velocity": 0.5590551181102362,
                    "duration": 1.103749999999991
                },
                {
                    "name": "A#4",
                    "midi": 70,
                    "time": 104.99999999999986,
                    "velocity": 0.5590551181102362,
                    "duration": 1.103749999999991
                },
                {
                    "name": "F5",
                    "midi": 77,
                    "time": 105.59999999999985,
                    "velocity": 0.5354330708661418,
                    "duration": 0.5999999999999943
                },
                {
                    "name": "E5",
                    "midi": 76,
                    "time": 106.19999999999985,
                    "velocity": 0.5354330708661418,
                    "duration": 1.1999999999999886
                },
                {
                    "name": "G4",
                    "midi": 67,
                    "time": 106.79999999999984,
                    "velocity": 0.5354330708661418,
                    "duration": 1.103749999999991
                },
                {
                    "name": "B4",
                    "midi": 71,
                    "time": 106.79999999999984,
                    "velocity": 0.5354330708661418,
                    "duration": 1.103749999999991
                },
                {
                    "name": "G5",
                    "midi": 79,
                    "time": 107.39999999999984,
                    "velocity": 0.5590551181102362,
                    "duration": 0.551249999999996
                },
                {
                    "name": "E4",
                    "midi": 64,
                    "time": 107.99999999999983,
                    "velocity": 0.5118110236220472,
                    "duration": 0.5499999999999972
                },
                {
                    "name": "G4",
                    "midi": 67,
                    "time": 107.99999999999983,
                    "velocity": 0.5118110236220472,
                    "duration": 0.5499999999999972
                },
                {
                    "name": "C5",
                    "midi": 72,
                    "time": 107.99999999999983,
                    "velocity": 0.5118110236220472,
                    "duration": 0.5499999999999972
                },
                {
                    "name": "E4",
                    "midi": 64,
                    "time": 108.59999999999982,
                    "velocity": 0.5118110236220472,
                    "duration": 0.8275000000000006
                },
                {
                    "name": "G4",
                    "midi": 67,
                    "time": 108.59999999999982,
                    "velocity": 0.5118110236220472,
                    "duration": 0.8275000000000006
                },
                {
                    "name": "B4",
                    "midi": 71,
                    "time": 108.59999999999982,
                    "velocity": 0.5118110236220472,
                    "duration": 0.8275000000000006
                },
                {
                    "name": "E4",
                    "midi": 64,
                    "time": 109.49999999999983,
                    "velocity": 0.5039370078740157,
                    "duration": 0.2750000000000057
                },
                {
                    "name": "G4",
                    "midi": 67,
                    "time": 109.49999999999983,
                    "velocity": 0.5039370078740157,
                    "duration": 0.2750000000000057
                },
                {
                    "name": "A4",
                    "midi": 69,
                    "time": 109.49999999999983,
                    "velocity": 0.5039370078740157,
                    "duration": 0.2750000000000057
                },
                {
                    "name": "E4",
                    "midi": 64,
                    "time": 109.79999999999984,
                    "velocity": 0.5039370078740157,
                    "duration": 0.551249999999996
                },
                {
                    "name": "G4",
                    "midi": 67,
                    "time": 109.79999999999984,
                    "velocity": 0.5039370078740157,
                    "duration": 0.551249999999996
                },
                {
                    "name": "B4",
                    "midi": 71,
                    "time": 109.79999999999984,
                    "velocity": 0.5039370078740157,
                    "duration": 0.551249999999996
                },
                {
                    "name": "E4",
                    "midi": 64,
                    "time": 110.39999999999984,
                    "velocity": 0.5039370078740157,
                    "duration": 1.1037500000000051
                },
                {
                    "name": "G4",
                    "midi": 67,
                    "time": 110.39999999999984,
                    "velocity": 0.5039370078740157,
                    "duration": 1.1037500000000051
                },
                {
                    "name": "B4",
                    "midi": 71,
                    "time": 110.39999999999984,
                    "velocity": 0.5039370078740157,
                    "duration": 1.1037500000000051
                },
                {
                    "name": "C5",
                    "midi": 72,
                    "time": 111.59999999999984,
                    "velocity": 0.5590551181102362,
                    "duration": 0.5499999999999972
                },
                {
                    "name": "G4",
                    "midi": 67,
                    "time": 111.59999999999984,
                    "velocity": 0.5590551181102362,
                    "duration": 0.5499999999999972
                },
                {
                    "name": "E4",
                    "midi": 64,
                    "time": 111.59999999999984,
                    "velocity": 0.5590551181102362,
                    "duration": 0.5499999999999972
                },
                {
                    "name": "E4",
                    "midi": 64,
                    "time": 112.19999999999983,
                    "velocity": 0.5039370078740157,
                    "duration": 0.8275000000000006
                },
                {
                    "name": "G4",
                    "midi": 67,
                    "time": 112.19999999999983,
                    "velocity": 0.5039370078740157,
                    "duration": 0.8275000000000006
                },
                {
                    "name": "B4",
                    "midi": 71,
                    "time": 112.19999999999983,
                    "velocity": 0.5039370078740157,
                    "duration": 0.8275000000000006
                },
                {
                    "name": "E4",
                    "midi": 64,
                    "time": 113.09999999999984,
                    "velocity": 0.5118110236220472,
                    "duration": 0.2750000000000057
                },
                {
                    "name": "G4",
                    "midi": 67,
                    "time": 113.09999999999984,
                    "velocity": 0.5118110236220472,
                    "duration": 0.2750000000000057
                },
                {
                    "name": "A4",
                    "midi": 69,
                    "time": 113.09999999999984,
                    "velocity": 0.5118110236220472,
                    "duration": 0.2750000000000057
                },
                {
                    "name": "E4",
                    "midi": 64,
                    "time": 113.39999999999985,
                    "velocity": 0.5039370078740157,
                    "duration": 0.551249999999996
                },
                {
                    "name": "G4",
                    "midi": 67,
                    "time": 113.39999999999985,
                    "velocity": 0.5039370078740157,
                    "duration": 0.551249999999996
                },
                {
                    "name": "B4",
                    "midi": 71,
                    "time": 113.39999999999985,
                    "velocity": 0.5039370078740157,
                    "duration": 0.551249999999996
                },
                {
                    "name": "E4",
                    "midi": 64,
                    "time": 113.99999999999984,
                    "velocity": 0.5039370078740157,
                    "duration": 1.1037500000000051
                },
                {
                    "name": "G4",
                    "midi": 67,
                    "time": 113.99999999999984,
                    "velocity": 0.5039370078740157,
                    "duration": 1.1037500000000051
                },
                {
                    "name": "B4",
                    "midi": 71,
                    "time": 113.99999999999984,
                    "velocity": 0.5039370078740157,
                    "duration": 1.1037500000000051
                },
                {
                    "name": "E4",
                    "midi": 64,
                    "time": 115.19999999999985,
                    "velocity": 0.4645669291338583,
                    "duration": 0.5499999999999972
                },
                {
                    "name": "G4",
                    "midi": 67,
                    "time": 115.19999999999985,
                    "velocity": 0.4645669291338583,
                    "duration": 0.5499999999999972
                },
                {
                    "name": "C5",
                    "midi": 72,
                    "time": 115.19999999999985,
                    "velocity": 0.4645669291338583,
                    "duration": 0.5499999999999972
                },
                {
                    "name": "E4",
                    "midi": 64,
                    "time": 115.79999999999984,
                    "velocity": 0.47244094488188976,
                    "duration": 1.1037500000000051
                },
                {
                    "name": "G4",
                    "midi": 67,
                    "time": 115.79999999999984,
                    "velocity": 0.47244094488188976,
                    "duration": 1.1037500000000051
                },
                {
                    "name": "A4",
                    "midi": 69,
                    "time": 115.79999999999984,
                    "velocity": 0.47244094488188976,
                    "duration": 0.8275000000000006
                },
                {
                    "name": "B4",
                    "midi": 71,
                    "time": 116.69999999999985,
                    "velocity": 0.4566929133858268,
                    "duration": 0.2750000000000057
                },
                {
                    "name": "C5",
                    "midi": 72,
                    "time": 116.99999999999986,
                    "velocity": 0.44881889763779526,
                    "duration": 0.5499999999999972
                },
                {
                    "name": "G4",
                    "midi": 67,
                    "time": 116.99999999999986,
                    "velocity": 0.44881889763779526,
                    "duration": 0.5499999999999972
                },
                {
                    "name": "E4",
                    "midi": 64,
                    "time": 116.99999999999986,
                    "velocity": 0.44881889763779526,
                    "duration": 0.5499999999999972
                },
                {
                    "name": "E4",
                    "midi": 64,
                    "time": 117.59999999999985,
                    "velocity": 0.4330708661417323,
                    "duration": 1.1037500000000051
                },
                {
                    "name": "G4",
                    "midi": 67,
                    "time": 117.59999999999985,
                    "velocity": 0.4330708661417323,
                    "duration": 1.1037500000000051
                },
                {
                    "name": "A4",
                    "midi": 69,
                    "time": 117.59999999999985,
                    "velocity": 0.4330708661417323,
                    "duration": 0.8275000000000006
                },
                {
                    "name": "B4",
                    "midi": 71,
                    "time": 118.49999999999986,
                    "velocity": 0.41732283464566927,
                    "duration": 0.2750000000000057
                },
                {
                    "name": "C5",
                    "midi": 72,
                    "time": 118.79999999999987,
                    "velocity": 0.4015748031496063,
                    "duration": 1.4937500000000057
                },
                {
                    "name": "G4",
                    "midi": 67,
                    "time": 118.79999999999987,
                    "velocity": 0.4015748031496063,
                    "duration": 1.4937500000000057
                },
                {
                    "name": "E4",
                    "midi": 64,
                    "time": 118.79999999999987,
                    "velocity": 0.4015748031496063,
                    "duration": 1.4937500000000057
                }
            ],
            "controlChanges": {
                "7": [
                    {
                        "number": 7,
                        "time": 0,
                        "value": 0.905511811023622
                    }
                ],
                "10": [
                    {
                        "number": 10,
                        "time": 0,
                        "value": 0.5511811023622047
                    }
                ],
                "91": [
                    {
                        "number": 91,
                        "time": 0.00125,
                        "value": 0.5669291338582677
                    },
                    {
                        "number": 91,
                        "time": 120.59874999999988,
                        "value": 0
                    }
                ],
                "93": [
                    {
                        "number": 93,
                        "time": 0.00125,
                        "value": 0.09448818897637795
                    },
                    {
                        "number": 93,
                        "time": 120.59874999999988,
                        "value": 0
                    }
                ],
                "121": [
                    {
                        "number": 121,
                        "time": 0,
                        "value": 0
                    },
                    {
                        "number": 121,
                        "time": 120.59874999999988,
                        "value": 0
                    }
                ]
            },
            "id": 1,
            "name": "RH",
            "instrumentNumber": 0,
            "instrument": "acoustic grand piano",
            "instrumentFamily": "piano",
            "channelNumber": 0,
            "isPercussion": false
        },
        {
            "startTime": 0,
            "duration": 120.29374999999996,
            "length": 271,
            "notes": [
                {
                    "name": "C4",
                    "midi": 60,
                    "time": 0,
                    "velocity": 0.6299212598425197,
                    "duration": 0.5499999999999999
                },
                {
                    "name": "E4",
                    "midi": 64,
                    "time": 0,
                    "velocity": 0.6299212598425197,
                    "duration": 0.5499999999999999
                },
                {
                    "name": "C4",
                    "midi": 60,
                    "time": 0.6,
                    "velocity": 0.6299212598425197,
                    "duration": 0.83
                },
                {
                    "name": "E4",
                    "midi": 64,
                    "time": 0.6,
                    "velocity": 0.6299212598425197,
                    "duration": 0.83
                },
                {
                    "name": "C4",
                    "midi": 60,
                    "time": 1.5,
                    "velocity": 0.5275590551181102,
                    "duration": 0.2749999999999999
                },
                {
                    "name": "E4",
                    "midi": 64,
                    "time": 1.5,
                    "velocity": 0.5275590551181102,
                    "duration": 0.2749999999999999
                },
                {
                    "name": "F4",
                    "midi": 65,
                    "time": 1.7999999999999998,
                    "velocity": 0.6299212598425197,
                    "duration": 0.5499999999999998
                },
                {
                    "name": "C4",
                    "midi": 60,
                    "time": 1.7999999999999998,
                    "velocity": 0.6299212598425197,
                    "duration": 0.5499999999999998
                },
                {
                    "name": "F4",
                    "midi": 65,
                    "time": 2.3999999999999995,
                    "velocity": 0.6299212598425197,
                    "duration": 1.105
                },
                {
                    "name": "C4",
                    "midi": 60,
                    "time": 2.3999999999999995,
                    "velocity": 0.6299212598425197,
                    "duration": 1.105
                },
                {
                    "name": "E4",
                    "midi": 64,
                    "time": 3.5999999999999996,
                    "velocity": 0.6299212598425197,
                    "duration": 0.5499999999999998
                },
                {
                    "name": "C4",
                    "midi": 60,
                    "time": 3.5999999999999996,
                    "velocity": 0.6299212598425197,
                    "duration": 0.5499999999999998
                },
                {
                    "name": "D4",
                    "midi": 62,
                    "time": 4.199999999999999,
                    "velocity": 0.6299212598425197,
                    "duration": 0.8300000000000001
                },
                {
                    "name": "F4",
                    "midi": 65,
                    "time": 4.199999999999999,
                    "velocity": 0.6299212598425197,
                    "duration": 0.8300000000000001
                },
                {
                    "name": "C4",
                    "midi": 60,
                    "time": 5.1,
                    "velocity": 0.6299212598425197,
                    "duration": 0.27500000000000036
                },
                {
                    "name": "E4",
                    "midi": 64,
                    "time": 5.1,
                    "velocity": 0.6299212598425197,
                    "duration": 0.27500000000000036
                },
                {
                    "name": "B3",
                    "midi": 59,
                    "time": 5.4,
                    "velocity": 0.6299212598425197,
                    "duration": 0.5499999999999998
                },
                {
                    "name": "D4",
                    "midi": 62,
                    "time": 5.4,
                    "velocity": 0.6299212598425197,
                    "duration": 0.5499999999999998
                },
                {
                    "name": "B3",
                    "midi": 59,
                    "time": 6,
                    "velocity": 0.6299212598425197,
                    "duration": 1.1050000000000004
                },
                {
                    "name": "D4",
                    "midi": 62,
                    "time": 6,
                    "velocity": 0.6299212598425197,
                    "duration": 1.1050000000000004
                },
                {
                    "name": "D4",
                    "midi": 62,
                    "time": 7.2,
                    "velocity": 0.5354330708661418,
                    "duration": 0.5499999999999998
                },
                {
                    "name": "B3",
                    "midi": 59,
                    "time": 7.2,
                    "velocity": 0.5354330708661418,
                    "duration": 0.5499999999999998
                },
                {
                    "name": "C4",
                    "midi": 60,
                    "time": 7.8,
                    "velocity": 0.5905511811023622,
                    "duration": 0.8299999999999992
                },
                {
                    "name": "A3",
                    "midi": 57,
                    "time": 7.8,
                    "velocity": 0.5905511811023622,
                    "duration": 0.8299999999999992
                },
                {
                    "name": "B3",
                    "midi": 59,
                    "time": 8.7,
                    "velocity": 0.6456692913385826,
                    "duration": 0.27500000000000036
                },
                {
                    "name": "G3",
                    "midi": 55,
                    "time": 8.7,
                    "velocity": 0.6456692913385826,
                    "duration": 0.27500000000000036
                },
                {
                    "name": "G3",
                    "midi": 55,
                    "time": 9,
                    "velocity": 0.7007874015748031,
                    "duration": 0.5500000000000007
                },
                {
                    "name": "B3",
                    "midi": 59,
                    "time": 9,
                    "velocity": 0.7007874015748031,
                    "duration": 0.5500000000000007
                },
                {
                    "name": "C4",
                    "midi": 60,
                    "time": 9.600000000000001,
                    "velocity": 0.7401574803149606,
                    "duration": 1.1050000000000004
                },
                {
                    "name": "C3",
                    "midi": 48,
                    "time": 9.600000000000001,
                    "velocity": 0.7401574803149606,
                    "duration": 1.1050000000000004
                },
                {
                    "name": "C4",
                    "midi": 60,
                    "time": 10.800000000000002,
                    "velocity": 0.7952755905511811,
                    "duration": 0.5500000000000007
                },
                {
                    "name": "C3",
                    "midi": 48,
                    "time": 10.800000000000002,
                    "velocity": 0.7952755905511811,
                    "duration": 0.5500000000000007
                },
                {
                    "name": "C4",
                    "midi": 60,
                    "time": 11.400000000000004,
                    "velocity": 0.6929133858267716,
                    "duration": 0.8300000000000001
                },
                {
                    "name": "C3",
                    "midi": 48,
                    "time": 11.400000000000004,
                    "velocity": 0.6929133858267716,
                    "duration": 0.8300000000000001
                },
                {
                    "name": "C3",
                    "midi": 48,
                    "time": 12.300000000000004,
                    "velocity": 0.6614173228346457,
                    "duration": 0.27500000000000036
                },
                {
                    "name": "C4",
                    "midi": 60,
                    "time": 12.300000000000004,
                    "velocity": 0.6614173228346457,
                    "duration": 0.27500000000000036
                },
                {
                    "name": "C3",
                    "midi": 48,
                    "time": 12.600000000000005,
                    "velocity": 0.5511811023622047,
                    "duration": 0.5500000000000007
                },
                {
                    "name": "C4",
                    "midi": 60,
                    "time": 12.600000000000005,
                    "velocity": 0.5511811023622047,
                    "duration": 0.5500000000000007
                },
                {
                    "name": "C3",
                    "midi": 48,
                    "time": 13.200000000000006,
                    "velocity": 0.5590551181102362,
                    "duration": 1.1050000000000004
                },
                {
                    "name": "C4",
                    "midi": 60,
                    "time": 13.200000000000006,
                    "velocity": 0.5590551181102362,
                    "duration": 1.1050000000000004
                },
                {
                    "name": "C3",
                    "midi": 48,
                    "time": 14.400000000000007,
                    "velocity": 0.5433070866141733,
                    "duration": 0.5500000000000007
                },
                {
                    "name": "C4",
                    "midi": 60,
                    "time": 14.400000000000007,
                    "velocity": 0.5433070866141733,
                    "duration": 0.5500000000000007
                },
                {
                    "name": "C4",
                    "midi": 60,
                    "time": 15.000000000000009,
                    "velocity": 0.5511811023622047,
                    "duration": 0.8300000000000001
                },
                {
                    "name": "E4",
                    "midi": 64,
                    "time": 15.000000000000009,
                    "velocity": 0.5511811023622047,
                    "duration": 0.8300000000000001
                },
                {
                    "name": "C4",
                    "midi": 60,
                    "time": 15.90000000000001,
                    "velocity": 0.5590551181102362,
                    "duration": 0.2749999999999986
                },
                {
                    "name": "E4",
                    "midi": 64,
                    "time": 15.90000000000001,
                    "velocity": 0.5590551181102362,
                    "duration": 0.2749999999999986
                },
                {
                    "name": "C4",
                    "midi": 60,
                    "time": 16.200000000000006,
                    "velocity": 0.5590551181102362,
                    "duration": 0.5500000000000007
                },
                {
                    "name": "F4",
                    "midi": 65,
                    "time": 16.200000000000006,
                    "velocity": 0.5590551181102362,
                    "duration": 0.5500000000000007
                },
                {
                    "name": "C4",
                    "midi": 60,
                    "time": 16.800000000000008,
                    "velocity": 0.5590551181102362,
                    "duration": 1.1050000000000004
                },
                {
                    "name": "F4",
                    "midi": 65,
                    "time": 16.800000000000008,
                    "velocity": 0.5590551181102362,
                    "duration": 1.1050000000000004
                },
                {
                    "name": "C4",
                    "midi": 60,
                    "time": 18.000000000000007,
                    "velocity": 0.6299212598425197,
                    "duration": 0.5500000000000007
                },
                {
                    "name": "F4",
                    "midi": 65,
                    "time": 18.000000000000007,
                    "velocity": 0.6299212598425197,
                    "duration": 0.5500000000000007
                },
                {
                    "name": "C4",
                    "midi": 60,
                    "time": 18.60000000000001,
                    "velocity": 0.6299212598425197,
                    "duration": 0.8299999999999983
                },
                {
                    "name": "E4",
                    "midi": 64,
                    "time": 18.60000000000001,
                    "velocity": 0.6299212598425197,
                    "duration": 0.8299999999999983
                },
                {
                    "name": "B3",
                    "midi": 59,
                    "time": 19.500000000000007,
                    "velocity": 0.6692913385826772,
                    "duration": 0.2749999999999986
                },
                {
                    "name": "D4",
                    "midi": 62,
                    "time": 19.500000000000007,
                    "velocity": 0.6692913385826772,
                    "duration": 0.2749999999999986
                },
                {
                    "name": "C4",
                    "midi": 60,
                    "time": 19.800000000000004,
                    "velocity": 0.7480314960629921,
                    "duration": 0.5500000000000007
                },
                {
                    "name": "A3",
                    "midi": 57,
                    "time": 19.800000000000004,
                    "velocity": 0.7480314960629921,
                    "duration": 0.5500000000000007
                },
                {
                    "name": "B3",
                    "midi": 59,
                    "time": 20.400000000000006,
                    "velocity": 0.7874015748031497,
                    "duration": 1.1050000000000004
                },
                {
                    "name": "G#3",
                    "midi": 56,
                    "time": 20.400000000000006,
                    "velocity": 0.7874015748031497,
                    "duration": 1.1050000000000004
                },
                {
                    "name": "A#3",
                    "midi": 58,
                    "time": 21.600000000000005,
                    "velocity": 0.44881889763779526,
                    "duration": 0.5500000000000007
                },
                {
                    "name": "D#3",
                    "midi": 51,
                    "time": 21.600000000000005,
                    "velocity": 0.44881889763779526,
                    "duration": 0.5500000000000007
                },
                {
                    "name": "D#3",
                    "midi": 51,
                    "time": 22.200000000000006,
                    "velocity": 0.4566929133858268,
                    "duration": 0.8299999999999983
                },
                {
                    "name": "A#3",
                    "midi": 58,
                    "time": 22.200000000000006,
                    "velocity": 0.4566929133858268,
                    "duration": 0.8299999999999983
                },
                {
                    "name": "D#3",
                    "midi": 51,
                    "time": 23.100000000000005,
                    "velocity": 0.4566929133858268,
                    "duration": 0.2749999999999986
                },
                {
                    "name": "A#3",
                    "midi": 58,
                    "time": 23.100000000000005,
                    "velocity": 0.4566929133858268,
                    "duration": 0.2749999999999986
                },
                {
                    "name": "A#2",
                    "midi": 46,
                    "time": 23.400000000000002,
                    "velocity": 0.4566929133858268,
                    "duration": 0.5500000000000007
                },
                {
                    "name": "A#3",
                    "midi": 58,
                    "time": 23.400000000000002,
                    "velocity": 0.4566929133858268,
                    "duration": 0.5500000000000007
                },
                {
                    "name": "A#2",
                    "midi": 46,
                    "time": 24.000000000000004,
                    "velocity": 0.4566929133858268,
                    "duration": 1.1050000000000004
                },
                {
                    "name": "A#3",
                    "midi": 58,
                    "time": 24.000000000000004,
                    "velocity": 0.4566929133858268,
                    "duration": 1.1050000000000004
                },
                {
                    "name": "A#2",
                    "midi": 46,
                    "time": 27.000000000000004,
                    "velocity": 0.3464566929133858,
                    "duration": 0.8275000000000006
                },
                {
                    "name": "F#3",
                    "midi": 54,
                    "time": 27.000000000000004,
                    "velocity": 0.3464566929133858,
                    "duration": 0.8275000000000006
                },
                {
                    "name": "G#3",
                    "midi": 56,
                    "time": 29.400000000000006,
                    "velocity": 0.36220472440944884,
                    "duration": 1.103749999999998
                },
                {
                    "name": "C3",
                    "midi": 48,
                    "time": 29.400000000000006,
                    "velocity": 0.36220472440944884,
                    "duration": 0.5512499999999996
                },
                {
                    "name": "D3",
                    "midi": 50,
                    "time": 30.000000000000004,
                    "velocity": 0.4409448818897638,
                    "duration": 0.5512499999999996
                },
                {
                    "name": "G#3",
                    "midi": 56,
                    "time": 31.200000000000003,
                    "velocity": 0.4330708661417323,
                    "duration": 0.6000000000000014
                },
                {
                    "name": "E3",
                    "midi": 52,
                    "time": 31.200000000000003,
                    "velocity": 0.4330708661417323,
                    "duration": 0.3000000000000007
                },
                {
                    "name": "F3",
                    "midi": 53,
                    "time": 31.500000000000004,
                    "velocity": 0.4645669291338583,
                    "duration": 0.3000000000000007
                },
                {
                    "name": "G3",
                    "midi": 55,
                    "time": 31.800000000000004,
                    "velocity": 0.49606299212598426,
                    "duration": 1.1512500000000045
                },
                {
                    "name": "C3",
                    "midi": 48,
                    "time": 32.400000000000006,
                    "velocity": 0.6299212598425197,
                    "duration": 0.5512500000000031
                },
                {
                    "name": "C3",
                    "midi": 48,
                    "time": 33.00000000000001,
                    "velocity": 0.5196850393700787,
                    "duration": 0.8275000000000006
                },
                {
                    "name": "G3",
                    "midi": 55,
                    "time": 33.00000000000001,
                    "velocity": 0.5196850393700787,
                    "duration": 0.8275000000000006
                },
                {
                    "name": "G3",
                    "midi": 55,
                    "time": 33.900000000000006,
                    "velocity": 0.48031496062992124,
                    "duration": 0.2749999999999986
                },
                {
                    "name": "C3",
                    "midi": 48,
                    "time": 33.900000000000006,
                    "velocity": 0.48031496062992124,
                    "duration": 0.2749999999999986
                },
                {
                    "name": "G3",
                    "midi": 55,
                    "time": 34.2,
                    "velocity": 0.49606299212598426,
                    "duration": 0.5512500000000031
                },
                {
                    "name": "F2",
                    "midi": 41,
                    "time": 34.2,
                    "velocity": 0.49606299212598426,
                    "duration": 0.5512500000000031
                },
                {
                    "name": "F2",
                    "midi": 41,
                    "time": 34.800000000000004,
                    "velocity": 0.5275590551181102,
                    "duration": 1.4937499999999986
                },
                {
                    "name": "G3",
                    "midi": 55,
                    "time": 34.800000000000004,
                    "velocity": 0.5275590551181102,
                    "duration": 1.4937499999999986
                },
                {
                    "name": "B2",
                    "midi": 47,
                    "time": 36.6,
                    "velocity": 0.5196850393700787,
                    "duration": 0.8275000000000006
                },
                {
                    "name": "F3",
                    "midi": 53,
                    "time": 36.6,
                    "velocity": 0.5196850393700787,
                    "duration": 0.8275000000000006
                },
                {
                    "name": "F3",
                    "midi": 53,
                    "time": 37.5,
                    "velocity": 0.5039370078740157,
                    "duration": 0.2749999999999986
                },
                {
                    "name": "B2",
                    "midi": 47,
                    "time": 37.5,
                    "velocity": 0.5039370078740157,
                    "duration": 0.2749999999999986
                },
                {
                    "name": "F3",
                    "midi": 53,
                    "time": 37.8,
                    "velocity": 0.5039370078740157,
                    "duration": 0.5512500000000031
                },
                {
                    "name": "E2",
                    "midi": 40,
                    "time": 37.8,
                    "velocity": 0.5039370078740157,
                    "duration": 0.5512500000000031
                },
                {
                    "name": "F3",
                    "midi": 53,
                    "time": 38.4,
                    "velocity": 0.5039370078740157,
                    "duration": 1.103749999999998
                },
                {
                    "name": "E2",
                    "midi": 40,
                    "time": 38.4,
                    "velocity": 0.5039370078740157,
                    "duration": 1.103749999999998
                },
                {
                    "name": "F3",
                    "midi": 53,
                    "time": 40.8,
                    "velocity": 0.5511811023622047,
                    "duration": 1.103749999999998
                },
                {
                    "name": "E3",
                    "midi": 52,
                    "time": 40.8,
                    "velocity": 0.5511811023622047,
                    "duration": 0.6000000000000014
                },
                {
                    "name": "D3",
                    "midi": 50,
                    "time": 41.4,
                    "velocity": 0.5826771653543307,
                    "duration": 0.551249999999996
                },
                {
                    "name": "D3",
                    "midi": 50,
                    "time": 41.99999999999999,
                    "velocity": 0.6299212598425197,
                    "duration": 1.103749999999998
                },
                {
                    "name": "F3",
                    "midi": 53,
                    "time": 41.99999999999999,
                    "velocity": 0.6299212598425197,
                    "duration": 1.103749999999998
                },
                {
                    "name": "G3",
                    "midi": 55,
                    "time": 44.39999999999999,
                    "velocity": 0.6299212598425197,
                    "duration": 1.103749999999998
                },
                {
                    "name": "C3",
                    "midi": 48,
                    "time": 44.39999999999999,
                    "velocity": 0.6299212598425197,
                    "duration": 0.5512500000000031
                },
                {
                    "name": "A#2",
                    "midi": 46,
                    "time": 44.99999999999999,
                    "velocity": 0.7007874015748031,
                    "duration": 0.551249999999996
                },
                {
                    "name": "G3",
                    "midi": 55,
                    "time": 45.59999999999999,
                    "velocity": 0.5826771653543307,
                    "duration": 1.103749999999998
                },
                {
                    "name": "A#2",
                    "midi": 46,
                    "time": 45.59999999999999,
                    "velocity": 0.5826771653543307,
                    "duration": 1.103749999999998
                },
                {
                    "name": "A#2",
                    "midi": 46,
                    "time": 46.79999999999998,
                    "velocity": 0.4409448818897638,
                    "duration": 0.5499999999999972
                },
                {
                    "name": "G3",
                    "midi": 55,
                    "time": 46.79999999999998,
                    "velocity": 0.4409448818897638,
                    "duration": 0.5499999999999972
                },
                {
                    "name": "G3",
                    "midi": 55,
                    "time": 47.39999999999998,
                    "velocity": 0.5039370078740157,
                    "duration": 0.8299999999999983
                },
                {
                    "name": "A#2",
                    "midi": 46,
                    "time": 47.39999999999998,
                    "velocity": 0.5039370078740157,
                    "duration": 0.8299999999999983
                },
                {
                    "name": "G3",
                    "midi": 55,
                    "time": 48.299999999999976,
                    "velocity": 0.47244094488188976,
                    "duration": 0.2749999999999986
                },
                {
                    "name": "F2",
                    "midi": 41,
                    "time": 48.299999999999976,
                    "velocity": 0.47244094488188976,
                    "duration": 0.2749999999999986
                },
                {
                    "name": "A#2",
                    "midi": 46,
                    "time": 48.59999999999997,
                    "velocity": 0.47244094488188976,
                    "duration": 0.5512500000000031
                },
                {
                    "name": "G3",
                    "midi": 55,
                    "time": 48.59999999999997,
                    "velocity": 0.47244094488188976,
                    "duration": 0.5512500000000031
                },
                {
                    "name": "A#2",
                    "midi": 46,
                    "time": 49.199999999999974,
                    "velocity": 0.48031496062992124,
                    "duration": 1.1049999999999969
                },
                {
                    "name": "G3",
                    "midi": 55,
                    "time": 49.199999999999974,
                    "velocity": 0.48031496062992124,
                    "duration": 1.1049999999999969
                },
                {
                    "name": "G3",
                    "midi": 55,
                    "time": 50.39999999999997,
                    "velocity": 0.49606299212598426,
                    "duration": 0.5499999999999972
                },
                {
                    "name": "A2",
                    "midi": 45,
                    "time": 50.39999999999997,
                    "velocity": 0.49606299212598426,
                    "duration": 0.5499999999999972
                },
                {
                    "name": "G3",
                    "midi": 55,
                    "time": 50.999999999999964,
                    "velocity": 0.5039370078740157,
                    "duration": 0.8299999999999983
                },
                {
                    "name": "A2",
                    "midi": 45,
                    "time": 50.999999999999964,
                    "velocity": 0.5039370078740157,
                    "duration": 0.8299999999999983
                },
                {
                    "name": "G3",
                    "midi": 55,
                    "time": 51.89999999999996,
                    "velocity": 0.5118110236220472,
                    "duration": 0.2749999999999986
                },
                {
                    "name": "A2",
                    "midi": 45,
                    "time": 51.89999999999996,
                    "velocity": 0.5118110236220472,
                    "duration": 0.2749999999999986
                },
                {
                    "name": "D2",
                    "midi": 38,
                    "time": 52.19999999999996,
                    "velocity": 0.5118110236220472,
                    "duration": 0.5512500000000031
                },
                {
                    "name": "D#2",
                    "midi": 39,
                    "time": 52.79999999999996,
                    "velocity": 0.5118110236220472,
                    "duration": 1.103749999999998
                },
                {
                    "name": "D#2",
                    "midi": 39,
                    "time": 54.29999999999996,
                    "velocity": 0.4015748031496063,
                    "duration": 0.3062499999999986
                },
                {
                    "name": "F2",
                    "midi": 41,
                    "time": 54.59999999999996,
                    "velocity": 0.4566929133858268,
                    "duration": 0.30000000000000426
                },
                {
                    "name": "G#2",
                    "midi": 44,
                    "time": 54.89999999999996,
                    "velocity": 0.47244094488188976,
                    "duration": 0.29999999999999716
                },
                {
                    "name": "C3",
                    "midi": 48,
                    "time": 55.19999999999996,
                    "velocity": 0.49606299212598426,
                    "duration": 0.29999999999999716
                },
                {
                    "name": "D3",
                    "midi": 50,
                    "time": 55.49999999999996,
                    "velocity": 0.5196850393700787,
                    "duration": 0.29999999999999716
                },
                {
                    "name": "D#3",
                    "midi": 51,
                    "time": 55.799999999999955,
                    "velocity": 0.5511811023622047,
                    "duration": 0.29999999999999716
                },
                {
                    "name": "F3",
                    "midi": 53,
                    "time": 56.09999999999995,
                    "velocity": 0.5984251968503937,
                    "duration": 0.29999999999999716
                },
                {
                    "name": "F#3",
                    "midi": 54,
                    "time": 56.39999999999995,
                    "velocity": 0.6614173228346457,
                    "duration": 0.29999999999999716
                },
                {
                    "name": "A#3",
                    "midi": 58,
                    "time": 56.699999999999946,
                    "velocity": 0.7244094488188977,
                    "duration": 0.29999999999999716
                },
                {
                    "name": "D#4",
                    "midi": 63,
                    "time": 56.99999999999994,
                    "velocity": 0.7559055118110236,
                    "duration": 0.29999999999999716
                },
                {
                    "name": "F4",
                    "midi": 65,
                    "time": 57.29999999999994,
                    "velocity": 0.7874015748031497,
                    "duration": 0.29999999999999716
                },
                {
                    "name": "F#4",
                    "midi": 66,
                    "time": 57.59999999999994,
                    "velocity": 0.8031496062992126,
                    "duration": 2.207500000000003
                },
                {
                    "name": "G4",
                    "midi": 67,
                    "time": 59.99999999999994,
                    "velocity": 0.7086614173228346,
                    "duration": 1.751250000000006
                },
                {
                    "name": "C4",
                    "midi": 60,
                    "time": 61.199999999999946,
                    "velocity": 0.6299212598425197,
                    "duration": 0.5512500000000031
                },
                {
                    "name": "E4",
                    "midi": 64,
                    "time": 61.199999999999946,
                    "velocity": 0.6299212598425197,
                    "duration": 0.5512500000000031
                },
                {
                    "name": "C4",
                    "midi": 60,
                    "time": 61.79999999999995,
                    "velocity": 0.5433070866141733,
                    "duration": 0.8275000000000006
                },
                {
                    "name": "E4",
                    "midi": 64,
                    "time": 61.79999999999995,
                    "velocity": 0.5433070866141733,
                    "duration": 0.8275000000000006
                },
                {
                    "name": "E4",
                    "midi": 64,
                    "time": 62.699999999999946,
                    "velocity": 0.6299212598425197,
                    "duration": 0.29999999999999716
                },
                {
                    "name": "C4",
                    "midi": 60,
                    "time": 62.699999999999946,
                    "velocity": 0.6299212598425197,
                    "duration": 0.2749999999999986
                },
                {
                    "name": "C4",
                    "midi": 60,
                    "time": 62.99999999999994,
                    "velocity": 0.6299212598425197,
                    "duration": 0.5512500000000031
                },
                {
                    "name": "F4",
                    "midi": 65,
                    "time": 62.99999999999994,
                    "velocity": 0.6299212598425197,
                    "duration": 0.5512500000000031
                },
                {
                    "name": "C4",
                    "midi": 60,
                    "time": 63.599999999999945,
                    "velocity": 0.5118110236220472,
                    "duration": 1.103749999999998
                },
                {
                    "name": "F4",
                    "midi": 65,
                    "time": 63.599999999999945,
                    "velocity": 0.5118110236220472,
                    "duration": 1.103749999999998
                },
                {
                    "name": "E4",
                    "midi": 64,
                    "time": 64.79999999999994,
                    "velocity": 0.6299212598425197,
                    "duration": 0.5499999999999972
                },
                {
                    "name": "C4",
                    "midi": 60,
                    "time": 64.79999999999994,
                    "velocity": 0.6299212598425197,
                    "duration": 0.5499999999999972
                },
                {
                    "name": "D4",
                    "midi": 62,
                    "time": 65.39999999999993,
                    "velocity": 0.5275590551181102,
                    "duration": 0.8299999999999983
                },
                {
                    "name": "F4",
                    "midi": 65,
                    "time": 65.39999999999993,
                    "velocity": 0.5275590551181102,
                    "duration": 0.8299999999999983
                },
                {
                    "name": "C4",
                    "midi": 60,
                    "time": 66.29999999999993,
                    "velocity": 0.6299212598425197,
                    "duration": 0.2750000000000057
                },
                {
                    "name": "E4",
                    "midi": 64,
                    "time": 66.29999999999993,
                    "velocity": 0.6299212598425197,
                    "duration": 0.2750000000000057
                },
                {
                    "name": "B3",
                    "midi": 59,
                    "time": 66.59999999999994,
                    "velocity": 0.6299212598425197,
                    "duration": 0.5499999999999972
                },
                {
                    "name": "D4",
                    "midi": 62,
                    "time": 66.59999999999994,
                    "velocity": 0.6299212598425197,
                    "duration": 0.5499999999999972
                },
                {
                    "name": "B3",
                    "midi": 59,
                    "time": 67.19999999999993,
                    "velocity": 0.48031496062992124,
                    "duration": 1.105000000000004
                },
                {
                    "name": "D4",
                    "midi": 62,
                    "time": 67.19999999999993,
                    "velocity": 0.48031496062992124,
                    "duration": 1.105000000000004
                },
                {
                    "name": "D4",
                    "midi": 62,
                    "time": 68.39999999999993,
                    "velocity": 0.6299212598425197,
                    "duration": 0.5499999999999972
                },
                {
                    "name": "B3",
                    "midi": 59,
                    "time": 68.39999999999993,
                    "velocity": 0.6299212598425197,
                    "duration": 0.5499999999999972
                },
                {
                    "name": "C4",
                    "midi": 60,
                    "time": 68.99999999999993,
                    "velocity": 0.5433070866141733,
                    "duration": 0.8299999999999983
                },
                {
                    "name": "A3",
                    "midi": 57,
                    "time": 68.99999999999993,
                    "velocity": 0.5433070866141733,
                    "duration": 0.8299999999999983
                },
                {
                    "name": "B3",
                    "midi": 59,
                    "time": 69.89999999999992,
                    "velocity": 0.5275590551181102,
                    "duration": 0.2750000000000057
                },
                {
                    "name": "G3",
                    "midi": 55,
                    "time": 69.89999999999992,
                    "velocity": 0.5275590551181102,
                    "duration": 0.2750000000000057
                },
                {
                    "name": "G3",
                    "midi": 55,
                    "time": 70.19999999999993,
                    "velocity": 0.6299212598425197,
                    "duration": 0.5499999999999972
                },
                {
                    "name": "B3",
                    "midi": 59,
                    "time": 70.19999999999993,
                    "velocity": 0.6299212598425197,
                    "duration": 0.5499999999999972
                },
                {
                    "name": "C4",
                    "midi": 60,
                    "time": 70.79999999999993,
                    "velocity": 0.5590551181102362,
                    "duration": 1.105000000000004
                },
                {
                    "name": "C3",
                    "midi": 48,
                    "time": 70.79999999999993,
                    "velocity": 0.5590551181102362,
                    "duration": 1.105000000000004
                },
                {
                    "name": "C4",
                    "midi": 60,
                    "time": 71.99999999999993,
                    "velocity": 0.7637795275590551,
                    "duration": 0.5499999999999972
                },
                {
                    "name": "C3",
                    "midi": 48,
                    "time": 71.99999999999993,
                    "velocity": 0.7637795275590551,
                    "duration": 0.5499999999999972
                },
                {
                    "name": "C4",
                    "midi": 60,
                    "time": 72.59999999999992,
                    "velocity": 0.7244094488188977,
                    "duration": 0.8299999999999983
                },
                {
                    "name": "C3",
                    "midi": 48,
                    "time": 72.59999999999992,
                    "velocity": 0.7244094488188977,
                    "duration": 0.8299999999999983
                },
                {
                    "name": "C3",
                    "midi": 48,
                    "time": 73.49999999999991,
                    "velocity": 0.6614173228346457,
                    "duration": 0.2750000000000057
                },
                {
                    "name": "C4",
                    "midi": 60,
                    "time": 73.49999999999991,
                    "velocity": 0.6614173228346457,
                    "duration": 0.2750000000000057
                },
                {
                    "name": "C3",
                    "midi": 48,
                    "time": 73.79999999999993,
                    "velocity": 0.6377952755905512,
                    "duration": 0.5499999999999972
                },
                {
                    "name": "C4",
                    "midi": 60,
                    "time": 73.79999999999993,
                    "velocity": 0.6377952755905512,
                    "duration": 0.5499999999999972
                },
                {
                    "name": "C3",
                    "midi": 48,
                    "time": 74.39999999999992,
                    "velocity": 0.6299212598425197,
                    "duration": 1.105000000000004
                },
                {
                    "name": "C4",
                    "midi": 60,
                    "time": 74.39999999999992,
                    "velocity": 0.6299212598425197,
                    "duration": 1.105000000000004
                },
                {
                    "name": "B3",
                    "midi": 59,
                    "time": 75.59999999999992,
                    "velocity": 0.5039370078740157,
                    "duration": 0.5499999999999972
                },
                {
                    "name": "B2",
                    "midi": 47,
                    "time": 75.59999999999992,
                    "velocity": 0.5039370078740157,
                    "duration": 0.5499999999999972
                },
                {
                    "name": "B3",
                    "midi": 59,
                    "time": 76.19999999999992,
                    "velocity": 0.5196850393700787,
                    "duration": 0.8299999999999983
                },
                {
                    "name": "B2",
                    "midi": 47,
                    "time": 76.19999999999992,
                    "velocity": 0.5196850393700787,
                    "duration": 0.8299999999999983
                },
                {
                    "name": "B2",
                    "midi": 47,
                    "time": 77.09999999999991,
                    "velocity": 0.5196850393700787,
                    "duration": 0.2750000000000057
                },
                {
                    "name": "B3",
                    "midi": 59,
                    "time": 77.09999999999991,
                    "velocity": 0.5196850393700787,
                    "duration": 0.2750000000000057
                },
                {
                    "name": "B2",
                    "midi": 47,
                    "time": 77.39999999999992,
                    "velocity": 0.5196850393700787,
                    "duration": 0.5499999999999972
                },
                {
                    "name": "B3",
                    "midi": 59,
                    "time": 77.39999999999992,
                    "velocity": 0.5196850393700787,
                    "duration": 0.5499999999999972
                },
                {
                    "name": "B2",
                    "midi": 47,
                    "time": 77.99999999999991,
                    "velocity": 0.5118110236220472,
                    "duration": 1.105000000000004
                },
                {
                    "name": "B3",
                    "midi": 59,
                    "time": 77.99999999999991,
                    "velocity": 0.5118110236220472,
                    "duration": 1.105000000000004
                },
                {
                    "name": "C4",
                    "midi": 60,
                    "time": 79.19999999999992,
                    "velocity": 0.5433070866141733,
                    "duration": 0.5499999999999972
                },
                {
                    "name": "A#3",
                    "midi": 58,
                    "time": 79.19999999999992,
                    "velocity": 0.5433070866141733,
                    "duration": 0.5499999999999972
                },
                {
                    "name": "C4",
                    "midi": 60,
                    "time": 79.79999999999991,
                    "velocity": 0.6062992125984252,
                    "duration": 0.8299999999999983
                },
                {
                    "name": "A#3",
                    "midi": 58,
                    "time": 79.79999999999991,
                    "velocity": 0.6062992125984252,
                    "duration": 0.8299999999999983
                },
                {
                    "name": "C4",
                    "midi": 60,
                    "time": 80.6999999999999,
                    "velocity": 0.6377952755905512,
                    "duration": 0.2750000000000057
                },
                {
                    "name": "A#3",
                    "midi": 58,
                    "time": 80.6999999999999,
                    "velocity": 0.6377952755905512,
                    "duration": 0.2750000000000057
                },
                {
                    "name": "C#4",
                    "midi": 61,
                    "time": 80.99999999999991,
                    "velocity": 0.6299212598425197,
                    "duration": 0.5499999999999972
                },
                {
                    "name": "A3",
                    "midi": 57,
                    "time": 80.99999999999991,
                    "velocity": 0.6299212598425197,
                    "duration": 0.5499999999999972
                },
                {
                    "name": "C#4",
                    "midi": 61,
                    "time": 81.59999999999991,
                    "velocity": 0.6614173228346457,
                    "duration": 1.105000000000004
                },
                {
                    "name": "A3",
                    "midi": 57,
                    "time": 81.59999999999991,
                    "velocity": 0.6614173228346457,
                    "duration": 1.105000000000004
                },
                {
                    "name": "F3",
                    "midi": 53,
                    "time": 82.79999999999991,
                    "velocity": 0.7480314960629921,
                    "duration": 0.5499999999999972
                },
                {
                    "name": "C4",
                    "midi": 60,
                    "time": 82.79999999999991,
                    "velocity": 0.7480314960629921,
                    "duration": 0.5499999999999972
                },
                {
                    "name": "C4",
                    "midi": 60,
                    "time": 83.3999999999999,
                    "velocity": 0.7165354330708661,
                    "duration": 0.8299999999999983
                },
                {
                    "name": "F3",
                    "midi": 53,
                    "time": 83.3999999999999,
                    "velocity": 0.7165354330708661,
                    "duration": 0.8299999999999983
                },
                {
                    "name": "C4",
                    "midi": 60,
                    "time": 84.2999999999999,
                    "velocity": 0.7716535433070866,
                    "duration": 0.2750000000000057
                },
                {
                    "name": "F3",
                    "midi": 53,
                    "time": 84.2999999999999,
                    "velocity": 0.7716535433070866,
                    "duration": 0.2750000000000057
                },
                {
                    "name": "D4",
                    "midi": 62,
                    "time": 84.59999999999991,
                    "velocity": 0.7559055118110236,
                    "duration": 0.5499999999999972
                },
                {
                    "name": "D3",
                    "midi": 50,
                    "time": 84.59999999999991,
                    "velocity": 0.7559055118110236,
                    "duration": 0.5499999999999972
                },
                {
                    "name": "D4",
                    "midi": 62,
                    "time": 85.1999999999999,
                    "velocity": 0.7559055118110236,
                    "duration": 1.105000000000004
                },
                {
                    "name": "D3",
                    "midi": 50,
                    "time": 85.1999999999999,
                    "velocity": 0.7559055118110236,
                    "duration": 1.105000000000004
                },
                {
                    "name": "C4",
                    "midi": 60,
                    "time": 86.3999999999999,
                    "velocity": 0.7559055118110236,
                    "duration": 0.5499999999999972
                },
                {
                    "name": "C3",
                    "midi": 48,
                    "time": 86.3999999999999,
                    "velocity": 0.7559055118110236,
                    "duration": 0.5499999999999972
                },
                {
                    "name": "C4",
                    "midi": 60,
                    "time": 86.9999999999999,
                    "velocity": 0.7559055118110236,
                    "duration": 1.105000000000004
                },
                {
                    "name": "C3",
                    "midi": 48,
                    "time": 86.9999999999999,
                    "velocity": 0.7559055118110236,
                    "duration": 1.105000000000004
                },
                {
                    "name": "A#3",
                    "midi": 58,
                    "time": 88.1999999999999,
                    "velocity": 0.7244094488188977,
                    "duration": 0.5499999999999972
                },
                {
                    "name": "A#2",
                    "midi": 46,
                    "time": 88.1999999999999,
                    "velocity": 0.7244094488188977,
                    "duration": 0.5499999999999972
                },
                {
                    "name": "A#3",
                    "midi": 58,
                    "time": 88.7999999999999,
                    "velocity": 0.7165354330708661,
                    "duration": 1.105000000000004
                },
                {
                    "name": "A#2",
                    "midi": 46,
                    "time": 88.7999999999999,
                    "velocity": 0.7165354330708661,
                    "duration": 1.105000000000004
                },
                {
                    "name": "F#4",
                    "midi": 66,
                    "time": 89.9999999999999,
                    "velocity": 0.7795275590551181,
                    "duration": 0.5499999999999972
                },
                {
                    "name": "A3",
                    "midi": 57,
                    "time": 89.9999999999999,
                    "velocity": 0.7795275590551181,
                    "duration": 0.5499999999999972
                },
                {
                    "name": "F#4",
                    "midi": 66,
                    "time": 90.5999999999999,
                    "velocity": 0.8503937007874016,
                    "duration": 1.105000000000004
                },
                {
                    "name": "A3",
                    "midi": 57,
                    "time": 90.5999999999999,
                    "velocity": 0.8503937007874016,
                    "duration": 1.105000000000004
                },
                {
                    "name": "G4",
                    "midi": 67,
                    "time": 91.7999999999999,
                    "velocity": 0.9212598425196851,
                    "duration": 4.1512500000000045
                },
                {
                    "name": "G3",
                    "midi": 55,
                    "time": 91.7999999999999,
                    "velocity": 0.9212598425196851,
                    "duration": 4.1512500000000045
                },
                {
                    "name": "G3",
                    "midi": 55,
                    "time": 95.9999999999999,
                    "velocity": 0.5905511811023622,
                    "duration": 0.8275000000000006
                },
                {
                    "name": "F#4",
                    "midi": 66,
                    "time": 95.9999999999999,
                    "velocity": 0.5905511811023622,
                    "duration": 0.8275000000000006
                },
                {
                    "name": "G3",
                    "midi": 55,
                    "time": 96.8999999999999,
                    "velocity": 0.5905511811023622,
                    "duration": 0.2750000000000057
                },
                {
                    "name": "F#4",
                    "midi": 66,
                    "time": 96.8999999999999,
                    "velocity": 0.5905511811023622,
                    "duration": 0.2750000000000057
                },
                {
                    "name": "F4",
                    "midi": 65,
                    "time": 97.19999999999992,
                    "velocity": 0.6141732283464567,
                    "duration": 0.551249999999996
                },
                {
                    "name": "C4",
                    "midi": 60,
                    "time": 97.19999999999992,
                    "velocity": 0.6141732283464567,
                    "duration": 0.551249999999996
                },
                {
                    "name": "F4",
                    "midi": 65,
                    "time": 97.79999999999991,
                    "velocity": 0.6299212598425197,
                    "duration": 1.6550000000000011
                },
                {
                    "name": "C4",
                    "midi": 60,
                    "time": 97.79999999999991,
                    "velocity": 0.6299212598425197,
                    "duration": 1.6550000000000011
                },
                {
                    "name": "F4",
                    "midi": 65,
                    "time": 99.59999999999991,
                    "velocity": 0.6299212598425197,
                    "duration": 0.8275000000000006
                },
                {
                    "name": "F#3",
                    "midi": 54,
                    "time": 99.59999999999991,
                    "velocity": 0.6299212598425197,
                    "duration": 0.8275000000000006
                },
                {
                    "name": "F4",
                    "midi": 65,
                    "time": 100.49999999999991,
                    "velocity": 0.6299212598425197,
                    "duration": 0.2750000000000057
                },
                {
                    "name": "F#3",
                    "midi": 54,
                    "time": 100.49999999999991,
                    "velocity": 0.6299212598425197,
                    "duration": 0.2750000000000057
                },
                {
                    "name": "B3",
                    "midi": 59,
                    "time": 100.79999999999993,
                    "velocity": 0.5039370078740157,
                    "duration": 0.551249999999996
                },
                {
                    "name": "E4",
                    "midi": 64,
                    "time": 100.79999999999993,
                    "velocity": 0.5039370078740157,
                    "duration": 0.551249999999996
                },
                {
                    "name": "B3",
                    "midi": 59,
                    "time": 101.39999999999992,
                    "velocity": 0.5118110236220472,
                    "duration": 1.1037500000000051
                },
                {
                    "name": "E4",
                    "midi": 64,
                    "time": 101.39999999999992,
                    "velocity": 0.5118110236220472,
                    "duration": 1.1037500000000051
                },
                {
                    "name": "A#3",
                    "midi": 58,
                    "time": 104.99999999999993,
                    "velocity": 0.5354330708661418,
                    "duration": 1.1037500000000051
                },
                {
                    "name": "D4",
                    "midi": 62,
                    "time": 104.99999999999993,
                    "velocity": 0.5354330708661418,
                    "duration": 1.1037500000000051
                },
                {
                    "name": "G3",
                    "midi": 55,
                    "time": 106.79999999999994,
                    "velocity": 0.5196850393700787,
                    "duration": 1.1037500000000051
                },
                {
                    "name": "E4",
                    "midi": 64,
                    "time": 106.79999999999994,
                    "velocity": 0.5196850393700787,
                    "duration": 1.1037500000000051
                },
                {
                    "name": "C3",
                    "midi": 48,
                    "time": 107.99999999999994,
                    "velocity": 0.4645669291338583,
                    "duration": 0.551249999999996
                },
                {
                    "name": "C4",
                    "midi": 60,
                    "time": 107.99999999999994,
                    "velocity": 0.4645669291338583,
                    "duration": 0.551249999999996
                },
                {
                    "name": "C4",
                    "midi": 60,
                    "time": 108.59999999999994,
                    "velocity": 0.4645669291338583,
                    "duration": 0.8275000000000006
                },
                {
                    "name": "C3",
                    "midi": 48,
                    "time": 108.59999999999994,
                    "velocity": 0.4645669291338583,
                    "duration": 0.8275000000000006
                },
                {
                    "name": "C4",
                    "midi": 60,
                    "time": 109.49999999999994,
                    "velocity": 0.4645669291338583,
                    "duration": 0.2750000000000057
                },
                {
                    "name": "C3",
                    "midi": 48,
                    "time": 109.49999999999994,
                    "velocity": 0.4645669291338583,
                    "duration": 0.2750000000000057
                },
                {
                    "name": "G3",
                    "midi": 55,
                    "time": 109.79999999999995,
                    "velocity": 0.4645669291338583,
                    "duration": 0.551249999999996
                },
                {
                    "name": "D3",
                    "midi": 50,
                    "time": 109.79999999999995,
                    "velocity": 0.4645669291338583,
                    "duration": 0.551249999999996
                },
                {
                    "name": "G3",
                    "midi": 55,
                    "time": 110.39999999999995,
                    "velocity": 0.49606299212598426,
                    "duration": 1.1037500000000051
                },
                {
                    "name": "D3",
                    "midi": 50,
                    "time": 110.39999999999995,
                    "velocity": 0.49606299212598426,
                    "duration": 1.1037500000000051
                },
                {
                    "name": "C4",
                    "midi": 60,
                    "time": 111.59999999999995,
                    "velocity": 0.5196850393700787,
                    "duration": 0.551249999999996
                },
                {
                    "name": "C3",
                    "midi": 48,
                    "time": 111.59999999999995,
                    "velocity": 0.5196850393700787,
                    "duration": 0.551249999999996
                },
                {
                    "name": "C4",
                    "midi": 60,
                    "time": 112.19999999999995,
                    "velocity": 0.5275590551181102,
                    "duration": 0.8275000000000006
                },
                {
                    "name": "C3",
                    "midi": 48,
                    "time": 112.19999999999995,
                    "velocity": 0.5275590551181102,
                    "duration": 0.8275000000000006
                },
                {
                    "name": "C4",
                    "midi": 60,
                    "time": 113.09999999999995,
                    "velocity": 0.5275590551181102,
                    "duration": 0.2750000000000057
                },
                {
                    "name": "C3",
                    "midi": 48,
                    "time": 113.09999999999995,
                    "velocity": 0.5275590551181102,
                    "duration": 0.2750000000000057
                },
                {
                    "name": "G3",
                    "midi": 55,
                    "time": 113.39999999999996,
                    "velocity": 0.5039370078740157,
                    "duration": 0.551249999999996
                },
                {
                    "name": "D3",
                    "midi": 50,
                    "time": 113.39999999999996,
                    "velocity": 0.5039370078740157,
                    "duration": 0.551249999999996
                },
                {
                    "name": "G3",
                    "midi": 55,
                    "time": 113.99999999999996,
                    "velocity": 0.47244094488188976,
                    "duration": 1.1037500000000051
                },
                {
                    "name": "D3",
                    "midi": 50,
                    "time": 113.99999999999996,
                    "velocity": 0.47244094488188976,
                    "duration": 1.1037500000000051
                },
                {
                    "name": "C3",
                    "midi": 48,
                    "time": 115.19999999999996,
                    "velocity": 0.4881889763779528,
                    "duration": 0.551249999999996
                },
                {
                    "name": "C4",
                    "midi": 60,
                    "time": 115.19999999999996,
                    "velocity": 0.4881889763779528,
                    "duration": 0.551249999999996
                },
                {
                    "name": "D3",
                    "midi": 50,
                    "time": 115.79999999999995,
                    "velocity": 0.4881889763779528,
                    "duration": 1.1037500000000051
                },
                {
                    "name": "G3",
                    "midi": 55,
                    "time": 115.79999999999995,
                    "velocity": 0.4881889763779528,
                    "duration": 1.1037500000000051
                },
                {
                    "name": "C4",
                    "midi": 60,
                    "time": 116.99999999999996,
                    "velocity": 0.5275590551181102,
                    "duration": 0.551249999999996
                },
                {
                    "name": "C3",
                    "midi": 48,
                    "time": 116.99999999999996,
                    "velocity": 0.5275590551181102,
                    "duration": 0.551249999999996
                },
                {
                    "name": "D3",
                    "midi": 50,
                    "time": 117.59999999999995,
                    "velocity": 0.5118110236220472,
                    "duration": 1.1037500000000051
                },
                {
                    "name": "G3",
                    "midi": 55,
                    "time": 117.59999999999995,
                    "velocity": 0.5118110236220472,
                    "duration": 1.1037500000000051
                },
                {
                    "name": "C4",
                    "midi": 60,
                    "time": 118.79999999999995,
                    "velocity": 0.3937007874015748,
                    "duration": 1.4937500000000057
                },
                {
                    "name": "C3",
                    "midi": 48,
                    "time": 118.79999999999995,
                    "velocity": 0.3937007874015748,
                    "duration": 1.4937500000000057
                }
            ],
            "controlChanges": {
                "7": [
                    {
                        "number": 7,
                        "time": 0,
                        "value": 0.905511811023622
                    }
                ],
                "10": [
                    {
                        "number": 10,
                        "time": 0,
                        "value": 0.4566929133858268
                    }
                ],
                "91": [
                    {
                        "number": 91,
                        "time": 0.00125,
                        "value": 0.5669291338582677
                    },
                    {
                        "number": 91,
                        "time": 120.59874999999997,
                        "value": 0
                    }
                ],
                "93": [
                    {
                        "number": 93,
                        "time": 0.00125,
                        "value": 0.09448818897637795
                    },
                    {
                        "number": 93,
                        "time": 120.59874999999997,
                        "value": 0
                    }
                ],
                "121": [
                    {
                        "number": 121,
                        "time": 0,
                        "value": 0
                    },
                    {
                        "number": 121,
                        "time": 120.59874999999997,
                        "value": 0
                    }
                ]
            },
            "id": 2,
            "name": "LH",
            "instrumentNumber": 0,
            "instrument": "acoustic grand piano",
            "instrumentFamily": "piano",
            "channelNumber": 1,
            "isPercussion": false
        },
        {
            "startTime": 0,
            "duration": 0,
            "length": 0,
            "notes": [],
            "controlChanges": {},
            "id": 3,
            "name": "=============="
        },
        {
            "startTime": 0,
            "duration": 0,
            "length": 0,
            "notes": [],
            "controlChanges": {},
            "id": 4,
            "name": "D. SHOSTAKOVICH"
        },
        {
            "startTime": 0,
            "duration": 0,
            "length": 0,
            "notes": [],
            "controlChanges": {},
            "id": 5,
            "name": "Prelude in C Major"
        },
        {
            "startTime": 0,
            "duration": 0,
            "length": 0,
            "notes": [],
            "controlChanges": {},
            "id": 6,
            "name": "opus 87 no.1"
        },
        {
            "startTime": 0,
            "duration": 0,
            "length": 0,
            "notes": [],
            "controlChanges": {},
            "id": 7,
            "name": "Sequenced by J. Marques"
        },
        {
            "startTime": 0,
            "duration": 0,
            "length": 0,
            "notes": [],
            "controlChanges": {},
            "id": 8,
            "name": "jmarques@super.zippo.com"
        },
        {
            "startTime": 0,
            "duration": 0,
            "length": 0,
            "notes": [],
            "controlChanges": {},
            "id": 9,
            "name": "================"
        },
        {
            "startTime": 0,
            "duration": 0,
            "length": 0,
            "notes": [],
            "controlChanges": {},
            "id": 10
        }
    ]
}