{
    "header": {
        "PPQ": 384,
        "timeSignature": [
            4,
            4
        ],
        "bpm": 120,
        "name": "Arnold Schönberg's Drei Klavierstucke, op. 11"
    },
    "startTime": 0,
    "duration": 226.3333333333341,
    "tracks": [
        {
            "startTime": 0,
            "duration": 0,
            "length": 0,
            "notes": [],
            "controlChanges": {},
            "id": 0
        },
        {
            "startTime": 6.296875,
            "duration": 226.3333333333341,
            "length": 672,
            "notes": [
                {
                    "name": "B4",
                    "midi": 71,
                    "time": 6.296875,
                    "velocity": 0.4409448818897638,
                    "duration": 0.947916666666667
                },
                {
                    "name": "G#4",
                    "midi": 68,
                    "time": 7.182291666666667,
                    "velocity": 0.4251968503937008,
                    "duration": 1.088541666666667
                },
                {
                    "name": "G4",
                    "midi": 67,
                    "time": 8.255208333333334,
                    "velocity": 0.4645669291338583,
                    "duration": 1.380208333333334
                },
                {
                    "name": "B3",
                    "midi": 59,
                    "time": 9.130208333333334,
                    "velocity": 0.2755905511811024,
                    "duration": 1.3541666666666679
                },
                {
                    "name": "F#2",
                    "midi": 42,
                    "time": 9.140625,
                    "velocity": 0.2283464566929134,
                    "duration": 1.3229166666666679
                },
                {
                    "name": "F3",
                    "midi": 53,
                    "time": 9.140625,
                    "velocity": 0.23622047244094488,
                    "duration": 1.3229166666666679
                },
                {
                    "name": "A4",
                    "midi": 69,
                    "time": 9.630208333333334,
                    "velocity": 0.48031496062992124,
                    "duration": 0.23958333333333393
                },
                {
                    "name": "F4",
                    "midi": 65,
                    "time": 10.093750000000002,
                    "velocity": 0.4251968503937008,
                    "duration": 0.46875
                },
                {
                    "name": "F4",
                    "midi": 65,
                    "time": 11.109375000000002,
                    "velocity": 0.5039370078740157,
                    "duration": 1.3437500000000018
                },
                {
                    "name": "A#2",
                    "midi": 46,
                    "time": 11.953125000000002,
                    "velocity": 0.2440944881889764,
                    "duration": 1.302083333333334
                },
                {
                    "name": "C#4",
                    "midi": 61,
                    "time": 11.963541666666668,
                    "velocity": 0.23622047244094488,
                    "duration": 1.3125000000000018
                },
                {
                    "name": "A3",
                    "midi": 57,
                    "time": 11.968750000000002,
                    "velocity": 0.2440944881889764,
                    "duration": 1.2604166666666679
                },
                {
                    "name": "E4",
                    "midi": 64,
                    "time": 12.833333333333337,
                    "velocity": 0.3228346456692913,
                    "duration": 0.47395833333333215
                },
                {
                    "name": "E4",
                    "midi": 64,
                    "time": 14.578125000000004,
                    "velocity": 0.44881889763779526,
                    "duration": 0.5624999999999982
                },
                {
                    "name": "C4",
                    "midi": 60,
                    "time": 14.583333333333337,
                    "velocity": 0.3228346456692913,
                    "duration": 0.13541666666666607
                },
                {
                    "name": "A#3",
                    "midi": 58,
                    "time": 15.031250000000004,
                    "velocity": 0.29133858267716534,
                    "duration": 0.06770833333333215
                },
                {
                    "name": "G4",
                    "midi": 67,
                    "time": 15.494791666666668,
                    "velocity": 0.4881889763779528,
                    "duration": 1.0677083333333357
                },
                {
                    "name": "G#2",
                    "midi": 44,
                    "time": 15.500000000000002,
                    "velocity": 0.25196850393700787,
                    "duration": 1.791666666666666
                },
                {
                    "name": "D3",
                    "midi": 50,
                    "time": 15.500000000000002,
                    "velocity": 0.2204724409448819,
                    "duration": 0.2916666666666661
                },
                {
                    "name": "B3",
                    "midi": 59,
                    "time": 15.515625000000002,
                    "velocity": 0.25196850393700787,
                    "duration": 1.0416666666666696
                },
                {
                    "name": "F#3",
                    "midi": 54,
                    "time": 15.937500000000002,
                    "velocity": 0.23622047244094488,
                    "duration": 0.08333333333333393
                },
                {
                    "name": "A3",
                    "midi": 57,
                    "time": 16.343750000000004,
                    "velocity": 0.29133858267716534,
                    "duration": 0.4375
                },
                {
                    "name": "A#3",
                    "midi": 58,
                    "time": 16.750000000000004,
                    "velocity": 0.25984251968503935,
                    "duration": 0.453125
                },
                {
                    "name": "B3",
                    "midi": 59,
                    "time": 17.192708333333336,
                    "velocity": 0.2204724409448819,
                    "duration": 0.09375
                },
                {
                    "name": "E4",
                    "midi": 64,
                    "time": 17.739583333333336,
                    "velocity": 0.3937007874015748,
                    "duration": 0.984375
                },
                {
                    "name": "C4",
                    "midi": 60,
                    "time": 18.15625,
                    "velocity": 0.25984251968503935,
                    "duration": 0.453125
                },
                {
                    "name": "A#3",
                    "midi": 58,
                    "time": 18.583333333333336,
                    "velocity": 0.25984251968503935,
                    "duration": 0.13020833333333215
                },
                {
                    "name": "G4",
                    "midi": 67,
                    "time": 19.125000000000004,
                    "velocity": 0.3543307086614173,
                    "duration": 1.1458333333333286
                },
                {
                    "name": "B3",
                    "midi": 59,
                    "time": 19.125000000000004,
                    "velocity": 0.2204724409448819,
                    "duration": 1.1562499999999964
                },
                {
                    "name": "G#2",
                    "midi": 44,
                    "time": 19.609375000000004,
                    "velocity": 0.2125984251968504,
                    "duration": 2.619791666666668
                },
                {
                    "name": "D3",
                    "midi": 50,
                    "time": 19.609375000000004,
                    "velocity": 0.25984251968503935,
                    "duration": 0.2604166666666643
                },
                {
                    "name": "F#3",
                    "midi": 54,
                    "time": 20.046875,
                    "velocity": 0.2677165354330709,
                    "duration": 0.09375
                },
                {
                    "name": "A3",
                    "midi": 57,
                    "time": 20.510416666666668,
                    "velocity": 0.29133858267716534,
                    "duration": 0.23958333333333215
                },
                {
                    "name": "A#3",
                    "midi": 58,
                    "time": 21.057291666666668,
                    "velocity": 0.25984251968503935,
                    "duration": 0.1927083333333357
                },
                {
                    "name": "B3",
                    "midi": 59,
                    "time": 21.640625000000004,
                    "velocity": 0.2125984251968504,
                    "duration": 0.40104166666666785
                },
                {
                    "name": "C4",
                    "midi": 60,
                    "time": 22.86979166666667,
                    "velocity": 0.3858267716535433,
                    "duration": 0.8958333333333357
                },
                {
                    "name": "C#3",
                    "midi": 49,
                    "time": 23.33854166666667,
                    "velocity": 0.2047244094488189,
                    "duration": 1.015625
                },
                {
                    "name": "E4",
                    "midi": 64,
                    "time": 23.36458333333334,
                    "velocity": 0.3779527559055118,
                    "duration": 1.2291666666666643
                },
                {
                    "name": "A#3",
                    "midi": 58,
                    "time": 23.86458333333334,
                    "velocity": 0.4094488188976378,
                    "duration": 1.2135416666666643
                },
                {
                    "name": "C3",
                    "midi": 48,
                    "time": 24.343750000000004,
                    "velocity": 0.2047244094488189,
                    "duration": 1.2864583333333321
                },
                {
                    "name": "G4",
                    "midi": 67,
                    "time": 24.83854166666667,
                    "velocity": 0.2992125984251969,
                    "duration": 1.7291666666666643
                },
                {
                    "name": "B3",
                    "midi": 59,
                    "time": 25.500000000000004,
                    "velocity": 0.2677165354330709,
                    "duration": 1.0833333333333321
                },
                {
                    "name": "G#2",
                    "midi": 44,
                    "time": 26.067708333333336,
                    "velocity": 0.1968503937007874,
                    "duration": 2.911458333333332
                },
                {
                    "name": "D3",
                    "midi": 50,
                    "time": 26.083333333333336,
                    "velocity": 0.2047244094488189,
                    "duration": 0.5260416666666679
                },
                {
                    "name": "F#3",
                    "midi": 54,
                    "time": 26.578125000000004,
                    "velocity": 0.23622047244094488,
                    "duration": 0.47395833333333215
                },
                {
                    "name": "A3",
                    "midi": 57,
                    "time": 27.057291666666668,
                    "velocity": 0.2677165354330709,
                    "duration": 0.6614583333333357
                },
                {
                    "name": "A#3",
                    "midi": 58,
                    "time": 27.578125000000004,
                    "velocity": 0.23622047244094488,
                    "duration": 1.03125
                },
                {
                    "name": "B3",
                    "midi": 59,
                    "time": 28.223958333333336,
                    "velocity": 0.1968503937007874,
                    "duration": 0.5625
                },
                {
                    "name": "F#4",
                    "midi": 66,
                    "time": 29.9375,
                    "velocity": 0.44881889763779526,
                    "duration": 0.921875
                },
                {
                    "name": "D4",
                    "midi": 62,
                    "time": 30.854166666666668,
                    "velocity": 0.41732283464566927,
                    "duration": 0.9218749999999964
                },
                {
                    "name": "C4",
                    "midi": 60,
                    "time": 31.770833333333332,
                    "velocity": 0.3937007874015748,
                    "duration": 1.3177083333333393
                },
                {
                    "name": "E3",
                    "midi": 52,
                    "time": 32.640625,
                    "velocity": 0.3543307086614173,
                    "duration": 1.53125
                },
                {
                    "name": "G#3",
                    "midi": 56,
                    "time": 32.640625,
                    "velocity": 0.33070866141732286,
                    "duration": 1.5364583333333357
                },
                {
                    "name": "F#2",
                    "midi": 42,
                    "time": 32.645833333333336,
                    "velocity": 0.2204724409448819,
                    "duration": 1.53125
                },
                {
                    "name": "G#4",
                    "midi": 68,
                    "time": 33.036458333333336,
                    "velocity": 0.4330708661417323,
                    "duration": 0.5625
                },
                {
                    "name": "A3",
                    "midi": 57,
                    "time": 33.59375,
                    "velocity": 0.41732283464566927,
                    "duration": 0.6197916666666714
                },
                {
                    "name": "A3",
                    "midi": 57,
                    "time": 34.59375000000001,
                    "velocity": 0.4409448818897638,
                    "duration": 2.0416666666666714
                },
                {
                    "name": "G2",
                    "midi": 43,
                    "time": 35.50000000000001,
                    "velocity": 0.23622047244094488,
                    "duration": 1.4010416666666714
                },
                {
                    "name": "B2",
                    "midi": 47,
                    "time": 35.50520833333334,
                    "velocity": 0.2755905511811024,
                    "duration": 1.3958333333333357
                },
                {
                    "name": "F3",
                    "midi": 53,
                    "time": 35.51041666666668,
                    "velocity": 0.25196850393700787,
                    "duration": 1.40625
                },
                {
                    "name": "A#3",
                    "midi": 58,
                    "time": 36.55208333333334,
                    "velocity": 0.28346456692913385,
                    "duration": 0.4114583333333357
                },
                {
                    "name": "B2",
                    "midi": 47,
                    "time": 37.86979166666668,
                    "velocity": 0.2204724409448819,
                    "duration": 0.0989583333333357
                },
                {
                    "name": "C3",
                    "midi": 48,
                    "time": 37.968750000000014,
                    "velocity": 0.2204724409448819,
                    "duration": 0.0625
                },
                {
                    "name": "B2",
                    "midi": 47,
                    "time": 38.03645833333335,
                    "velocity": 0.23622047244094488,
                    "duration": 0.0677083333333357
                },
                {
                    "name": "D#2",
                    "midi": 39,
                    "time": 38.10937500000002,
                    "velocity": 0.2440944881889764,
                    "duration": 0.0729166666666643
                },
                {
                    "name": "A3",
                    "midi": 57,
                    "time": 38.182291666666686,
                    "velocity": 0.25984251968503935,
                    "duration": 0.078125
                },
                {
                    "name": "D4",
                    "midi": 62,
                    "time": 38.260416666666686,
                    "velocity": 0.2755905511811024,
                    "duration": 0.0833333333333286
                },
                {
                    "name": "G#4",
                    "midi": 68,
                    "time": 38.33333333333335,
                    "velocity": 0.33858267716535434,
                    "duration": 0.052083333333328596
                },
                {
                    "name": "C5",
                    "midi": 72,
                    "time": 38.406250000000014,
                    "velocity": 0.3543307086614173,
                    "duration": 0.0729166666666714
                },
                {
                    "name": "E5",
                    "midi": 76,
                    "time": 38.47395833333335,
                    "velocity": 0.4094488188976378,
                    "duration": 0.1197916666666714
                },
                {
                    "name": "C#6",
                    "midi": 85,
                    "time": 38.59895833333336,
                    "velocity": 0.4409448818897638,
                    "duration": 0.046875
                },
                {
                    "name": "A#5",
                    "midi": 82,
                    "time": 38.80208333333336,
                    "velocity": 0.3464566929133858,
                    "duration": 0.15625
                },
                {
                    "name": "A4",
                    "midi": 69,
                    "time": 38.90625000000002,
                    "velocity": 0.2992125984251969,
                    "duration": 0.0520833333333357
                },
                {
                    "name": "G#3",
                    "midi": 56,
                    "time": 38.96354166666669,
                    "velocity": 0.2440944881889764,
                    "duration": 0.0989583333333286
                },
                {
                    "name": "G2",
                    "midi": 43,
                    "time": 39.03645833333336,
                    "velocity": 0.2047244094488189,
                    "duration": 0.125
                },
                {
                    "name": "F#1",
                    "midi": 30,
                    "time": 39.13020833333336,
                    "velocity": 0.1889763779527559,
                    "duration": 0.0625
                },
                {
                    "name": "D#2",
                    "midi": 39,
                    "time": 40.276041666666686,
                    "velocity": 0.15748031496062992,
                    "duration": 0.1302083333333357
                },
                {
                    "name": "D#3",
                    "midi": 51,
                    "time": 40.39583333333335,
                    "velocity": 0.3464566929133858,
                    "duration": 0.041666666666671404
                },
                {
                    "name": "B2",
                    "midi": 47,
                    "time": 40.401041666666686,
                    "velocity": 0.23622047244094488,
                    "duration": 0.0989583333333357
                },
                {
                    "name": "C#3",
                    "midi": 49,
                    "time": 40.50000000000002,
                    "velocity": 0.1889763779527559,
                    "duration": 0.2708333333333357
                },
                {
                    "name": "F4",
                    "midi": 65,
                    "time": 40.60937500000002,
                    "velocity": 0.4645669291338583,
                    "duration": 0.0625
                },
                {
                    "name": "D4",
                    "midi": 62,
                    "time": 40.77083333333336,
                    "velocity": 0.48031496062992124,
                    "duration": 0.046875
                },
                {
                    "name": "B2",
                    "midi": 47,
                    "time": 40.77604166666669,
                    "velocity": 0.25196850393700787,
                    "duration": 0.0833333333333286
                },
                {
                    "name": "D#2",
                    "midi": 39,
                    "time": 40.85937500000002,
                    "velocity": 0.2992125984251969,
                    "duration": 0.0677083333333357
                },
                {
                    "name": "C3",
                    "midi": 48,
                    "time": 40.93229166666669,
                    "velocity": 0.3464566929133858,
                    "duration": 0.09375
                },
                {
                    "name": "C#5",
                    "midi": 73,
                    "time": 40.94270833333336,
                    "velocity": 0.47244094488188976,
                    "duration": 0.0833333333333357
                },
                {
                    "name": "D3",
                    "midi": 50,
                    "time": 41.03125000000003,
                    "velocity": 0.4015748031496063,
                    "duration": 0.1927083333333286
                },
                {
                    "name": "G3",
                    "midi": 55,
                    "time": 41.11979166666669,
                    "velocity": 0.5275590551181102,
                    "duration": 0.03125
                },
                {
                    "name": "C#3",
                    "midi": 49,
                    "time": 41.22395833333336,
                    "velocity": 0.3543307086614173,
                    "duration": 0.0572916666666643
                },
                {
                    "name": "A4",
                    "midi": 69,
                    "time": 41.23437500000002,
                    "velocity": 0.5511811023622047,
                    "duration": 0.0677083333333357
                },
                {
                    "name": "E2",
                    "midi": 40,
                    "time": 41.30208333333336,
                    "velocity": 0.5196850393700787,
                    "duration": 0.046875
                },
                {
                    "name": "F#4",
                    "midi": 66,
                    "time": 41.36458333333336,
                    "velocity": 0.5039370078740157,
                    "duration": 0.026041666666664298
                },
                {
                    "name": "C3",
                    "midi": 48,
                    "time": 41.36458333333336,
                    "velocity": 0.4881889763779528,
                    "duration": 0.0572916666666643
                },
                {
                    "name": "D3",
                    "midi": 50,
                    "time": 41.42708333333336,
                    "velocity": 0.5669291338582677,
                    "duration": 0.1822916666666714
                },
                {
                    "name": "F5",
                    "midi": 77,
                    "time": 41.48958333333336,
                    "velocity": 0.6299212598425197,
                    "duration": 0.0677083333333357
                },
                {
                    "name": "C#3",
                    "midi": 49,
                    "time": 41.60937500000003,
                    "velocity": 0.5196850393700787,
                    "duration": 0.0729166666666643
                },
                {
                    "name": "E2",
                    "midi": 40,
                    "time": 41.68229166666669,
                    "velocity": 0.5669291338582677,
                    "duration": 0.0729166666666643
                },
                {
                    "name": "C#3",
                    "midi": 49,
                    "time": 41.76041666666669,
                    "velocity": 0.6456692913385826,
                    "duration": 0.109375
                },
                {
                    "name": "D#3",
                    "midi": 51,
                    "time": 41.86979166666669,
                    "velocity": 0.5826771653543307,
                    "duration": 0.9895833333333286
                },
                {
                    "name": "F1",
                    "midi": 29,
                    "time": 43.776041666666686,
                    "velocity": 0.6771653543307087,
                    "duration": 0.109375
                },
                {
                    "name": "A1",
                    "midi": 33,
                    "time": 43.78125000000002,
                    "velocity": 0.7244094488188977,
                    "duration": 0.1145833333333286
                },
                {
                    "name": "F2",
                    "midi": 41,
                    "time": 43.78125000000002,
                    "velocity": 0.6771653543307087,
                    "duration": 0.1302083333333286
                },
                {
                    "name": "C#2",
                    "midi": 37,
                    "time": 43.953125000000014,
                    "velocity": 0.6929133858267716,
                    "duration": 0.0729166666666643
                },
                {
                    "name": "E2",
                    "midi": 40,
                    "time": 44.16145833333334,
                    "velocity": 0.6771653543307087,
                    "duration": 0.34375
                },
                {
                    "name": "G#5",
                    "midi": 80,
                    "time": 45.71875000000001,
                    "velocity": 0.36220472440944884,
                    "duration": 1.5260416666666643
                },
                {
                    "name": "G5",
                    "midi": 79,
                    "time": 47.32812500000001,
                    "velocity": 0.28346456692913385,
                    "duration": 0.3072916666666643
                },
                {
                    "name": "F#5",
                    "midi": 78,
                    "time": 48.130208333333336,
                    "velocity": 0.33070866141732286,
                    "duration": 0.9583333333333357
                },
                {
                    "name": "D5",
                    "midi": 74,
                    "time": 49.052083333333336,
                    "velocity": 0.2677165354330709,
                    "duration": 0.0572916666666643
                },
                {
                    "name": "F1",
                    "midi": 29,
                    "time": 49.84375,
                    "velocity": 0.5354330708661418,
                    "duration": 0.078125
                },
                {
                    "name": "A1",
                    "midi": 33,
                    "time": 49.84375,
                    "velocity": 0.6929133858267716,
                    "duration": 0.0885416666666643
                },
                {
                    "name": "F2",
                    "midi": 41,
                    "time": 49.84375,
                    "velocity": 0.6771653543307087,
                    "duration": 0.109375
                },
                {
                    "name": "C#2",
                    "midi": 37,
                    "time": 50.052083333333336,
                    "velocity": 0.5984251968503937,
                    "duration": 0.0885416666666643
                },
                {
                    "name": "E2",
                    "midi": 40,
                    "time": 50.385416666666664,
                    "velocity": 0.4881889763779528,
                    "duration": 0.375
                },
                {
                    "name": "G#4",
                    "midi": 68,
                    "time": 51.69270833333333,
                    "velocity": 0.28346456692913385,
                    "duration": 0.8333333333333357
                },
                {
                    "name": "G4",
                    "midi": 67,
                    "time": 52.479166666666664,
                    "velocity": 0.2992125984251969,
                    "duration": 1.0208333333333357
                },
                {
                    "name": "F#4",
                    "midi": 66,
                    "time": 53.463541666666664,
                    "velocity": 0.3228346456692913,
                    "duration": 1.9010416666666714
                },
                {
                    "name": "D4",
                    "midi": 62,
                    "time": 54.796875,
                    "velocity": 0.3464566929133858,
                    "duration": 0.1197916666666714
                },
                {
                    "name": "C4",
                    "midi": 60,
                    "time": 55.609375,
                    "velocity": 0.36220472440944884,
                    "duration": 1.750000000000007
                },
                {
                    "name": "E3",
                    "midi": 52,
                    "time": 56.765625,
                    "velocity": 0.1889763779527559,
                    "duration": 1.1666666666666714
                },
                {
                    "name": "F#2",
                    "midi": 42,
                    "time": 56.765625,
                    "velocity": 0.15748031496062992,
                    "duration": 1.1770833333333357
                },
                {
                    "name": "G#3",
                    "midi": 56,
                    "time": 56.765625,
                    "velocity": 0.2204724409448819,
                    "duration": 1.1822916666666714
                },
                {
                    "name": "G#4",
                    "midi": 68,
                    "time": 57.22916666666667,
                    "velocity": 0.3228346456692913,
                    "duration": 1.0052083333333357
                },
                {
                    "name": "A3",
                    "midi": 57,
                    "time": 58.15104166666667,
                    "velocity": 0.2677165354330709,
                    "duration": 0.1875
                },
                {
                    "name": "A3",
                    "midi": 57,
                    "time": 59.16666666666667,
                    "velocity": 0.3779527559055118,
                    "duration": 2.781249999999993
                },
                {
                    "name": "F2",
                    "midi": 41,
                    "time": 60.25,
                    "velocity": 0.23622047244094488,
                    "duration": 2.1302083333333286
                },
                {
                    "name": "D#3",
                    "midi": 51,
                    "time": 60.255208333333336,
                    "velocity": 0.2204724409448819,
                    "duration": 2.1458333333333286
                },
                {
                    "name": "A2",
                    "midi": 45,
                    "time": 60.255208333333336,
                    "velocity": 0.2204724409448819,
                    "duration": 2.124999999999993
                },
                {
                    "name": "G#3",
                    "midi": 56,
                    "time": 61.65625,
                    "velocity": 0.2283464566929134,
                    "duration": 0.8020833333333286
                },
                {
                    "name": "A#3",
                    "midi": 58,
                    "time": 64.77604166666666,
                    "velocity": 0.5196850393700787,
                    "duration": 0.7395833333333286
                },
                {
                    "name": "C#3",
                    "midi": 49,
                    "time": 65.29166666666666,
                    "velocity": 0.4881889763779528,
                    "duration": 0.5937499999999858
                },
                {
                    "name": "A3",
                    "midi": 57,
                    "time": 65.29166666666666,
                    "velocity": 0.4566929133858268,
                    "duration": 0.5624999999999858
                },
                {
                    "name": "A2",
                    "midi": 45,
                    "time": 65.29166666666666,
                    "velocity": 0.4881889763779528,
                    "duration": 0.5989583333333144
                },
                {
                    "name": "C4",
                    "midi": 60,
                    "time": 65.77604166666664,
                    "velocity": 0.5354330708661418,
                    "duration": 2.093750000000014
                },
                {
                    "name": "G#2",
                    "midi": 44,
                    "time": 66.29166666666664,
                    "velocity": 0.33070866141732286,
                    "duration": 1.7291666666666856
                },
                {
                    "name": "G#3",
                    "midi": 56,
                    "time": 66.29166666666664,
                    "velocity": 0.3464566929133858,
                    "duration": 1.7135416666666856
                },
                {
                    "name": "E3",
                    "midi": 52,
                    "time": 66.29166666666664,
                    "velocity": 0.4409448818897638,
                    "duration": 1.7187500000000142
                },
                {
                    "name": "D#4",
                    "midi": 63,
                    "time": 67.67708333333333,
                    "velocity": 0.3464566929133858,
                    "duration": 0.1354166666666572
                },
                {
                    "name": "G4",
                    "midi": 67,
                    "time": 68.15625,
                    "velocity": 0.31496062992125984,
                    "duration": 0.1822916666666714
                },
                {
                    "name": "A#4",
                    "midi": 70,
                    "time": 68.61979166666667,
                    "velocity": 0.3779527559055118,
                    "duration": 0.234375
                },
                {
                    "name": "B4",
                    "midi": 71,
                    "time": 69.125,
                    "velocity": 0.2047244094488189,
                    "duration": 0.2604166666666714
                },
                {
                    "name": "C5",
                    "midi": 72,
                    "time": 69.77604166666667,
                    "velocity": 0.2755905511811024,
                    "duration": 0.1666666666666714
                },
                {
                    "name": "A#3",
                    "midi": 58,
                    "time": 71.36458333333334,
                    "velocity": 0.5826771653543307,
                    "duration": 1.8124999999999858
                },
                {
                    "name": "A2",
                    "midi": 45,
                    "time": 71.96875000000001,
                    "velocity": 0.5984251968503937,
                    "duration": 0.3802083333333144
                },
                {
                    "name": "A3",
                    "midi": 57,
                    "time": 71.96875000000001,
                    "velocity": 0.5826771653543307,
                    "duration": 0.3593749999999858
                },
                {
                    "name": "C#3",
                    "midi": 49,
                    "time": 71.97395833333334,
                    "velocity": 0.5433070866141733,
                    "duration": 0.3749999999999858
                },
                {
                    "name": "G#2",
                    "midi": 44,
                    "time": 72.86458333333333,
                    "velocity": 0.5118110236220472,
                    "duration": 1.5104166666666714
                },
                {
                    "name": "G#3",
                    "midi": 56,
                    "time": 72.86979166666666,
                    "velocity": 0.5039370078740157,
                    "duration": 1.5208333333333428
                },
                {
                    "name": "E3",
                    "midi": 52,
                    "time": 72.86979166666666,
                    "velocity": 0.5748031496062992,
                    "duration": 1.5052083333333428
                },
                {
                    "name": "C4",
                    "midi": 60,
                    "time": 73.77083333333333,
                    "velocity": 0.5275590551181102,
                    "duration": 0.7916666666666714
                },
                {
                    "name": "D#4",
                    "midi": 63,
                    "time": 74.96354166666667,
                    "velocity": 0.47244094488188976,
                    "duration": 0.2291666666666714
                },
                {
                    "name": "G4",
                    "midi": 67,
                    "time": 75.56770833333334,
                    "velocity": 0.4409448818897638,
                    "duration": 0.84375
                },
                {
                    "name": "A#4",
                    "midi": 70,
                    "time": 76.25520833333334,
                    "velocity": 0.47244094488188976,
                    "duration": 0.4635416666666714
                },
                {
                    "name": "B4",
                    "midi": 71,
                    "time": 77.07812500000001,
                    "velocity": 0.3779527559055118,
                    "duration": 0.3489583333333428
                },
                {
                    "name": "C5",
                    "midi": 72,
                    "time": 78.09895833333336,
                    "velocity": 0.3779527559055118,
                    "duration": 0.1614583333333286
                },
                {
                    "name": "A#3",
                    "midi": 58,
                    "time": 80.45312500000001,
                    "velocity": 0.5984251968503937,
                    "duration": 0.7604166666666572
                },
                {
                    "name": "C#3",
                    "midi": 49,
                    "time": 81.03645833333334,
                    "velocity": 0.5669291338582677,
                    "duration": 0.9010416666666572
                },
                {
                    "name": "A2",
                    "midi": 45,
                    "time": 81.03645833333334,
                    "velocity": 0.6456692913385826,
                    "duration": 0.9010416666666572
                },
                {
                    "name": "A3",
                    "midi": 57,
                    "time": 81.03645833333334,
                    "velocity": 0.5354330708661418,
                    "duration": 0.8541666666666572
                },
                {
                    "name": "G3",
                    "midi": 55,
                    "time": 81.828125,
                    "velocity": 0.6456692913385826,
                    "duration": 4.713541666666657
                },
                {
                    "name": "G#3",
                    "midi": 56,
                    "time": 82.65625,
                    "velocity": 0.4251968503937008,
                    "duration": 4.427083333333329
                },
                {
                    "name": "G#2",
                    "midi": 44,
                    "time": 82.65625,
                    "velocity": 0.3779527559055118,
                    "duration": 4.4375
                },
                {
                    "name": "D#4",
                    "midi": 63,
                    "time": 82.65625,
                    "velocity": 0.4251968503937008,
                    "duration": 0.7135416666666714
                },
                {
                    "name": "E3",
                    "midi": 52,
                    "time": 82.66145833333333,
                    "velocity": 0.5039370078740157,
                    "duration": 4.395833333333329
                },
                {
                    "name": "B3",
                    "midi": 59,
                    "time": 83.359375,
                    "velocity": 0.36220472440944884,
                    "duration": 2.057291666666657
                },
                {
                    "name": "F#4",
                    "midi": 66,
                    "time": 84.06770833333333,
                    "velocity": 0.28346456692913385,
                    "duration": 0.3541666666666714
                },
                {
                    "name": "D4",
                    "midi": 62,
                    "time": 84.95833333333333,
                    "velocity": 0.23622047244094488,
                    "duration": 0.4114583333333286
                },
                {
                    "name": "A#3",
                    "midi": 58,
                    "time": 86.13541666666666,
                    "velocity": 0.1968503937007874,
                    "duration": 0.40625
                },
                {
                    "name": "E2",
                    "midi": 40,
                    "time": 89.05729166666666,
                    "velocity": 0.23622047244094488,
                    "duration": 1.1145833333333286
                },
                {
                    "name": "D#3",
                    "midi": 51,
                    "time": 89.06249999999999,
                    "velocity": 0.3464566929133858,
                    "duration": 0.4166666666666572
                },
                {
                    "name": "B2",
                    "midi": 47,
                    "time": 89.47395833333331,
                    "velocity": 0.36220472440944884,
                    "duration": 0.453125
                },
                {
                    "name": "G2",
                    "midi": 43,
                    "time": 89.94270833333331,
                    "velocity": 0.3543307086614173,
                    "duration": 0.296875
                },
                {
                    "name": "F#2",
                    "midi": 42,
                    "time": 90.43229166666664,
                    "velocity": 0.2755905511811024,
                    "duration": 1.3958333333333286
                },
                {
                    "name": "C5",
                    "midi": 72,
                    "time": 90.91666666666664,
                    "velocity": 0.4094488188976378,
                    "duration": 0.453125
                },
                {
                    "name": "C#4",
                    "midi": 61,
                    "time": 90.91666666666664,
                    "velocity": 0.2283464566929134,
                    "duration": 1.1770833333333286
                },
                {
                    "name": "G#4",
                    "midi": 68,
                    "time": 91.35937499999997,
                    "velocity": 0.36220472440944884,
                    "duration": 0.4427083333333428
                },
                {
                    "name": "A2",
                    "midi": 45,
                    "time": 91.80208333333331,
                    "velocity": 0.23622047244094488,
                    "duration": 0.4947916666666572
                },
                {
                    "name": "E4",
                    "midi": 64,
                    "time": 91.80729166666664,
                    "velocity": 0.3937007874015748,
                    "duration": 0.25
                },
                {
                    "name": "F2",
                    "midi": 41,
                    "time": 92.28124999999997,
                    "velocity": 0.2125984251968504,
                    "duration": 2.218749999999986
                },
                {
                    "name": "D#4",
                    "midi": 63,
                    "time": 92.28124999999997,
                    "velocity": 0.4645669291338583,
                    "duration": 1.4270833333333286
                },
                {
                    "name": "G#2",
                    "midi": 44,
                    "time": 92.76041666666664,
                    "velocity": 0.25196850393700787,
                    "duration": 0.4635416666666714
                },
                {
                    "name": "G3",
                    "midi": 55,
                    "time": 92.76041666666664,
                    "velocity": 0.4330708661417323,
                    "duration": 0.40625
                },
                {
                    "name": "D#3",
                    "midi": 51,
                    "time": 93.19270833333331,
                    "velocity": 0.4094488188976378,
                    "duration": 0.4635416666666572
                },
                {
                    "name": "F#4",
                    "midi": 66,
                    "time": 93.65104166666664,
                    "velocity": 0.4251968503937008,
                    "duration": 0.4374999999999858
                },
                {
                    "name": "B2",
                    "midi": 47,
                    "time": 93.67187499999997,
                    "velocity": 0.3700787401574803,
                    "duration": 0.4166666666666572
                },
                {
                    "name": "A#2",
                    "midi": 46,
                    "time": 94.09374999999996,
                    "velocity": 0.3543307086614173,
                    "duration": 1.3229166666666714
                },
                {
                    "name": "D4",
                    "midi": 62,
                    "time": 94.10416666666663,
                    "velocity": 0.3779527559055118,
                    "duration": 1.8541666666666714
                },
                {
                    "name": "E2",
                    "midi": 40,
                    "time": 94.9270833333333,
                    "velocity": 0.28346456692913385,
                    "duration": 0.6510416666666714
                },
                {
                    "name": "C#3",
                    "midi": 49,
                    "time": 95.3958333333333,
                    "velocity": 0.30708661417322836,
                    "duration": 0.1510416666666714
                },
                {
                    "name": "A2",
                    "midi": 45,
                    "time": 95.8958333333333,
                    "velocity": 0.25196850393700787,
                    "duration": 1.536458333333357
                },
                {
                    "name": "C4",
                    "midi": 60,
                    "time": 96.14062499999997,
                    "velocity": 0.3464566929133858,
                    "duration": 0.06770833333334281
                },
                {
                    "name": "D#4",
                    "midi": 63,
                    "time": 96.31770833333331,
                    "velocity": 0.4330708661417323,
                    "duration": 0.1510416666666714
                },
                {
                    "name": "G4",
                    "midi": 67,
                    "time": 96.49479166666666,
                    "velocity": 0.47244094488188976,
                    "duration": 0.036458333333328596
                },
                {
                    "name": "B4",
                    "midi": 71,
                    "time": 96.70833333333331,
                    "velocity": 0.5196850393700787,
                    "duration": 0.1979166666666714
                },
                {
                    "name": "F4",
                    "midi": 65,
                    "time": 96.93229166666666,
                    "velocity": 0.44881889763779526,
                    "duration": 0.05208333333334281
                },
                {
                    "name": "E5",
                    "midi": 76,
                    "time": 97.23958333333333,
                    "velocity": 0.5590551181102362,
                    "duration": 0.6093749999999858
                },
                {
                    "name": "C2",
                    "midi": 36,
                    "time": 97.45312499999999,
                    "velocity": 0.4251968503937008,
                    "duration": 0.1927083333333286
                },
                {
                    "name": "F2",
                    "midi": 41,
                    "time": 97.64583333333331,
                    "velocity": 0.48031496062992124,
                    "duration": 0.1822916666666714
                },
                {
                    "name": "B2",
                    "midi": 47,
                    "time": 97.83854166666666,
                    "velocity": 0.49606299212598426,
                    "duration": 0.1979166666666572
                },
                {
                    "name": "D#5",
                    "midi": 75,
                    "time": 97.84374999999999,
                    "velocity": 0.5984251968503937,
                    "duration": 0.1927083333333286
                },
                {
                    "name": "D#3",
                    "midi": 51,
                    "time": 98.02604166666664,
                    "velocity": 0.5275590551181102,
                    "duration": 0.1822916666666714
                },
                {
                    "name": "D5",
                    "midi": 74,
                    "time": 98.02604166666664,
                    "velocity": 0.6220472440944882,
                    "duration": 0.4427083333333428
                },
                {
                    "name": "G3",
                    "midi": 55,
                    "time": 98.20833333333331,
                    "velocity": 0.5433070866141733,
                    "duration": 0.2291666666666714
                },
                {
                    "name": "B3",
                    "midi": 59,
                    "time": 98.44791666666666,
                    "velocity": 0.5826771653543307,
                    "duration": 1.2291666666666714
                },
                {
                    "name": "G#5",
                    "midi": 80,
                    "time": 98.83333333333333,
                    "velocity": 0.5354330708661418,
                    "duration": 0.625
                },
                {
                    "name": "A4",
                    "midi": 69,
                    "time": 98.84375,
                    "velocity": 0.5196850393700787,
                    "duration": 0.2760416666666572
                },
                {
                    "name": "D5",
                    "midi": 74,
                    "time": 99.09895833333333,
                    "velocity": 0.5748031496062992,
                    "duration": 0.265625
                },
                {
                    "name": "C#5",
                    "midi": 73,
                    "time": 99.38541666666666,
                    "velocity": 0.5275590551181102,
                    "duration": 0.0625
                },
                {
                    "name": "G#4",
                    "midi": 68,
                    "time": 99.67708333333333,
                    "velocity": 0.48031496062992124,
                    "duration": 0.2864583333333428
                },
                {
                    "name": "C5",
                    "midi": 72,
                    "time": 99.67708333333333,
                    "velocity": 0.5196850393700787,
                    "duration": 1.75
                },
                {
                    "name": "E5",
                    "midi": 76,
                    "time": 99.6875,
                    "velocity": 0.5826771653543307,
                    "duration": 1.7604166666666572
                },
                {
                    "name": "A4",
                    "midi": 69,
                    "time": 99.953125,
                    "velocity": 0.5039370078740157,
                    "duration": 0.2760416666666714
                },
                {
                    "name": "D#4",
                    "midi": 63,
                    "time": 100.21875,
                    "velocity": 0.4566929133858268,
                    "duration": 0.4166666666666714
                },
                {
                    "name": "G4",
                    "midi": 67,
                    "time": 100.86979166666667,
                    "velocity": 0.4251968503937008,
                    "duration": 0.3020833333333286
                },
                {
                    "name": "A3",
                    "midi": 57,
                    "time": 101.13020833333333,
                    "velocity": 0.36220472440944884,
                    "duration": 0.9791666666666714
                },
                {
                    "name": "G#5",
                    "midi": 80,
                    "time": 101.72916666666666,
                    "velocity": 0.5826771653543307,
                    "duration": 0.6041666666666714
                },
                {
                    "name": "A4",
                    "midi": 69,
                    "time": 101.73437499999999,
                    "velocity": 0.5039370078740157,
                    "duration": 0.2395833333333428
                },
                {
                    "name": "D5",
                    "midi": 74,
                    "time": 101.984375,
                    "velocity": 0.5511811023622047,
                    "duration": 0.1197916666666714
                },
                {
                    "name": "C#5",
                    "midi": 73,
                    "time": 102.21875,
                    "velocity": 0.5669291338582677,
                    "duration": 0.078125
                },
                {
                    "name": "G#4",
                    "midi": 68,
                    "time": 102.48958333333333,
                    "velocity": 0.4645669291338583,
                    "duration": 0.2968749999999858
                },
                {
                    "name": "E5",
                    "midi": 76,
                    "time": 102.48958333333333,
                    "velocity": 0.5984251968503937,
                    "duration": 0.6249999999999858
                },
                {
                    "name": "C5",
                    "midi": 72,
                    "time": 102.48958333333333,
                    "velocity": 0.5196850393700787,
                    "duration": 0.6041666666666572
                },
                {
                    "name": "A4",
                    "midi": 69,
                    "time": 102.78124999999999,
                    "velocity": 0.4881889763779528,
                    "duration": 0.296875
                },
                {
                    "name": "D#4",
                    "midi": 63,
                    "time": 103.09374999999999,
                    "velocity": 0.4409448818897638,
                    "duration": 1.0833333333333428
                },
                {
                    "name": "F#5",
                    "midi": 78,
                    "time": 103.35937499999999,
                    "velocity": 0.5354330708661418,
                    "duration": 0.8020833333333428
                },
                {
                    "name": "G4",
                    "midi": 67,
                    "time": 103.38020833333331,
                    "velocity": 0.4881889763779528,
                    "duration": 0.2552083333333286
                },
                {
                    "name": "C5",
                    "midi": 72,
                    "time": 103.61979166666664,
                    "velocity": 0.4881889763779528,
                    "duration": 0.2604166666666714
                },
                {
                    "name": "B4",
                    "midi": 71,
                    "time": 103.89062499999999,
                    "velocity": 0.47244094488188976,
                    "duration": 0.2708333333333428
                },
                {
                    "name": "A#4",
                    "midi": 70,
                    "time": 104.17708333333333,
                    "velocity": 0.4566929133858268,
                    "duration": 0.8958333333333286
                },
                {
                    "name": "D5",
                    "midi": 74,
                    "time": 104.17708333333333,
                    "velocity": 0.5196850393700787,
                    "duration": 0.9010416666666572
                },
                {
                    "name": "F#4",
                    "midi": 66,
                    "time": 104.17708333333333,
                    "velocity": 0.36220472440944884,
                    "duration": 0.34375
                },
                {
                    "name": "G4",
                    "midi": 67,
                    "time": 104.50520833333333,
                    "velocity": 0.33070866141732286,
                    "duration": 0.40625
                },
                {
                    "name": "C#4",
                    "midi": 61,
                    "time": 104.859375,
                    "velocity": 0.2440944881889764,
                    "duration": 2.9791666666666714
                },
                {
                    "name": "F#3",
                    "midi": 54,
                    "time": 105.60937499999999,
                    "velocity": 0.31496062992125984,
                    "duration": 2.4166666666666856
                },
                {
                    "name": "C3",
                    "midi": 48,
                    "time": 105.61979166666666,
                    "velocity": 0.28346456692913385,
                    "duration": 1.1979166666666714
                },
                {
                    "name": "D3",
                    "midi": 50,
                    "time": 106.80208333333333,
                    "velocity": 0.29133858267716534,
                    "duration": 0.4479166666666714
                },
                {
                    "name": "A#2",
                    "midi": 46,
                    "time": 107.27604166666667,
                    "velocity": 0.25984251968503935,
                    "duration": 0.7916666666666714
                },
                {
                    "name": "A#2",
                    "midi": 46,
                    "time": 108.31250000000001,
                    "velocity": 0.29133858267716534,
                    "duration": 1.7395833333333286
                },
                {
                    "name": "G3",
                    "midi": 55,
                    "time": 108.31250000000001,
                    "velocity": 0.2204724409448819,
                    "duration": 2.2291666666666714
                },
                {
                    "name": "G#1",
                    "midi": 32,
                    "time": 108.31250000000001,
                    "velocity": 0.15748031496062992,
                    "duration": 2.302083333333343
                },
                {
                    "name": "E2",
                    "midi": 40,
                    "time": 108.31250000000001,
                    "velocity": 0.1732283464566929,
                    "duration": 2.286458333333343
                },
                {
                    "name": "A2",
                    "midi": 45,
                    "time": 110.02083333333334,
                    "velocity": 0.1732283464566929,
                    "duration": 0.5833333333333428
                },
                {
                    "name": "G#2",
                    "midi": 44,
                    "time": 110.97395833333336,
                    "velocity": 0.36220472440944884,
                    "duration": 0.546875
                },
                {
                    "name": "G#1",
                    "midi": 32,
                    "time": 110.97395833333336,
                    "velocity": 0.15748031496062992,
                    "duration": 0.2552083333333286
                },
                {
                    "name": "B2",
                    "midi": 47,
                    "time": 111.45312500000001,
                    "velocity": 0.3779527559055118,
                    "duration": 0.5364583333333428
                },
                {
                    "name": "B1",
                    "midi": 35,
                    "time": 111.46354166666669,
                    "velocity": 0.25196850393700787,
                    "duration": 0.5677083333333428
                },
                {
                    "name": "G1",
                    "midi": 31,
                    "time": 111.97395833333336,
                    "velocity": 0.1889763779527559,
                    "duration": 1.7395833333333428
                },
                {
                    "name": "G2",
                    "midi": 43,
                    "time": 111.97916666666669,
                    "velocity": 0.23622047244094488,
                    "duration": 1.7812500000000142
                },
                {
                    "name": "F#1",
                    "midi": 30,
                    "time": 113.64062500000003,
                    "velocity": 0.15748031496062992,
                    "duration": 0.4843750000000142
                },
                {
                    "name": "F#2",
                    "midi": 42,
                    "time": 113.64062500000003,
                    "velocity": 0.15748031496062992,
                    "duration": 0.4218750000000142
                },
                {
                    "name": "E4",
                    "midi": 64,
                    "time": 115.18229166666671,
                    "velocity": 0.23622047244094488,
                    "duration": 0.026041666666671404
                },
                {
                    "name": "C#5",
                    "midi": 73,
                    "time": 115.30729166666671,
                    "velocity": 0.4251968503937008,
                    "duration": 0.3697916666666714
                },
                {
                    "name": "F5",
                    "midi": 77,
                    "time": 115.30729166666671,
                    "velocity": 0.23622047244094488,
                    "duration": 0.359375
                },
                {
                    "name": "C#4",
                    "midi": 61,
                    "time": 115.95833333333339,
                    "velocity": 0.2677165354330709,
                    "duration": 0.041666666666671404
                },
                {
                    "name": "A#4",
                    "midi": 70,
                    "time": 116.07812500000006,
                    "velocity": 0.3464566929133858,
                    "duration": 0.3958333333333428
                },
                {
                    "name": "D5",
                    "midi": 74,
                    "time": 116.08854166666673,
                    "velocity": 0.3464566929133858,
                    "duration": 0.3697916666666714
                },
                {
                    "name": "C4",
                    "midi": 60,
                    "time": 116.78125000000007,
                    "velocity": 0.2047244094488189,
                    "duration": 0.0729166666666714
                },
                {
                    "name": "C#5",
                    "midi": 73,
                    "time": 117.01562500000007,
                    "velocity": 0.2204724409448819,
                    "duration": 0.8437500000000284
                },
                {
                    "name": "A4",
                    "midi": 69,
                    "time": 117.04166666666674,
                    "velocity": 0.1732283464566929,
                    "duration": 0.7968750000000284
                },
                {
                    "name": "G1",
                    "midi": 31,
                    "time": 117.20833333333341,
                    "velocity": 0.2125984251968504,
                    "duration": 0.05208333333334281
                },
                {
                    "name": "G#2",
                    "midi": 44,
                    "time": 117.38020833333343,
                    "velocity": 0.29133858267716534,
                    "duration": 0.041666666666671404
                },
                {
                    "name": "A1",
                    "midi": 33,
                    "time": 117.5312500000001,
                    "velocity": 0.3779527559055118,
                    "duration": 0.0625
                },
                {
                    "name": "A#2",
                    "midi": 46,
                    "time": 117.7343750000001,
                    "velocity": 0.2204724409448819,
                    "duration": 0.15625
                },
                {
                    "name": "D4",
                    "midi": 62,
                    "time": 118.04166666666677,
                    "velocity": 0.2204724409448819,
                    "duration": 0.046875
                },
                {
                    "name": "D#5",
                    "midi": 75,
                    "time": 118.22916666666677,
                    "velocity": 0.4094488188976378,
                    "duration": 0.0677083333333286
                },
                {
                    "name": "B4",
                    "midi": 71,
                    "time": 118.24479166666677,
                    "velocity": 0.25196850393700787,
                    "duration": 0.05729166666665719
                },
                {
                    "name": "A#3",
                    "midi": 58,
                    "time": 118.55729166666676,
                    "velocity": 0.15748031496062992,
                    "duration": 0.03125
                },
                {
                    "name": "B4",
                    "midi": 71,
                    "time": 118.77083333333343,
                    "velocity": 0.33070866141732286,
                    "duration": 0.5677083333333144
                },
                {
                    "name": "G4",
                    "midi": 67,
                    "time": 118.78645833333343,
                    "velocity": 0.1889763779527559,
                    "duration": 0.5312499999999858
                },
                {
                    "name": "B1",
                    "midi": 35,
                    "time": 118.95312500000009,
                    "velocity": 0.2204724409448819,
                    "duration": 0.020833333333328596
                },
                {
                    "name": "C3",
                    "midi": 48,
                    "time": 119.12500000000009,
                    "velocity": 0.3543307086614173,
                    "duration": 0.020833333333328596
                },
                {
                    "name": "C#2",
                    "midi": 37,
                    "time": 119.31250000000009,
                    "velocity": 0.29133858267716534,
                    "duration": 0.052083333333328596
                },
                {
                    "name": "B3",
                    "midi": 59,
                    "time": 119.44270833333341,
                    "velocity": 0.2677165354330709,
                    "duration": 0.109375
                },
                {
                    "name": "D3",
                    "midi": 50,
                    "time": 119.57291666666674,
                    "velocity": 0.2204724409448819,
                    "duration": 0.3697916666666572
                },
                {
                    "name": "A#4",
                    "midi": 70,
                    "time": 119.60937500000007,
                    "velocity": 0.28346456692913385,
                    "duration": 0.390625
                },
                {
                    "name": "F#4",
                    "midi": 66,
                    "time": 119.60937500000007,
                    "velocity": 0.2283464566929134,
                    "duration": 0.3645833333333286
                },
                {
                    "name": "G#4",
                    "midi": 68,
                    "time": 120.38541666666673,
                    "velocity": 0.2204724409448819,
                    "duration": 0.109375
                },
                {
                    "name": "F5",
                    "midi": 77,
                    "time": 120.5208333333334,
                    "velocity": 0.3543307086614173,
                    "duration": 0.2291666666666714
                },
                {
                    "name": "A5",
                    "midi": 81,
                    "time": 120.5208333333334,
                    "velocity": 0.2677165354330709,
                    "duration": 0.234375
                },
                {
                    "name": "E4",
                    "midi": 64,
                    "time": 121.1302083333334,
                    "velocity": 0.31496062992125984,
                    "duration": 0.0677083333333286
                },
                {
                    "name": "C#5",
                    "midi": 73,
                    "time": 121.26562500000006,
                    "velocity": 0.33070866141732286,
                    "duration": 0.3958333333333286
                },
                {
                    "name": "F5",
                    "midi": 77,
                    "time": 121.28645833333339,
                    "velocity": 0.33858267716535434,
                    "duration": 0.3958333333333286
                },
                {
                    "name": "F4",
                    "midi": 65,
                    "time": 121.94791666666671,
                    "velocity": 0.2047244094488189,
                    "duration": 0.052083333333328596
                },
                {
                    "name": "F#5",
                    "midi": 78,
                    "time": 122.13541666666671,
                    "velocity": 0.33858267716535434,
                    "duration": 0.7656249999999716
                },
                {
                    "name": "D5",
                    "midi": 74,
                    "time": 122.13541666666671,
                    "velocity": 0.31496062992125984,
                    "duration": 0.744791666666643
                },
                {
                    "name": "C2",
                    "midi": 36,
                    "time": 122.32812500000004,
                    "velocity": 0.2283464566929134,
                    "duration": 0.046875
                },
                {
                    "name": "C#3",
                    "midi": 49,
                    "time": 122.47916666666671,
                    "velocity": 0.3464566929133858,
                    "duration": 0.052083333333328596
                },
                {
                    "name": "D2",
                    "midi": 38,
                    "time": 122.63020833333337,
                    "velocity": 0.2677165354330709,
                    "duration": 0.2291666666666572
                },
                {
                    "name": "D#3",
                    "midi": 51,
                    "time": 122.8072916666667,
                    "velocity": 0.2283464566929134,
                    "duration": 0.697916666666643
                },
                {
                    "name": "F#4",
                    "midi": 66,
                    "time": 123.22395833333336,
                    "velocity": 0.2992125984251969,
                    "duration": 0.046875
                },
                {
                    "name": "D#5",
                    "midi": 75,
                    "time": 123.37500000000003,
                    "velocity": 0.2204724409448819,
                    "duration": 0.06249999999998579
                },
                {
                    "name": "G5",
                    "midi": 79,
                    "time": 123.38020833333336,
                    "velocity": 0.4094488188976378,
                    "duration": 0.05729166666665719
                },
                {
                    "name": "B4",
                    "midi": 71,
                    "time": 123.70312500000001,
                    "velocity": 0.4566929133858268,
                    "duration": 0.041666666666671404
                },
                {
                    "name": "G#5",
                    "midi": 80,
                    "time": 123.90104166666669,
                    "velocity": 0.3937007874015748,
                    "duration": 0.5416666666666572
                },
                {
                    "name": "C6",
                    "midi": 84,
                    "time": 123.90625000000001,
                    "velocity": 0.47244094488188976,
                    "duration": 0.5364583333333286
                },
                {
                    "name": "E2",
                    "midi": 40,
                    "time": 124.09375000000001,
                    "velocity": 0.31496062992125984,
                    "duration": 0.15625
                },
                {
                    "name": "F3",
                    "midi": 53,
                    "time": 124.27083333333334,
                    "velocity": 0.47244094488188976,
                    "duration": 0.171875
                },
                {
                    "name": "F#2",
                    "midi": 42,
                    "time": 124.46354166666667,
                    "velocity": 0.3779527559055118,
                    "duration": 0.3072916666666572
                },
                {
                    "name": "B4",
                    "midi": 71,
                    "time": 124.5625,
                    "velocity": 0.2204724409448819,
                    "duration": 0.0885416666666714
                },
                {
                    "name": "G3",
                    "midi": 55,
                    "time": 124.69270833333334,
                    "velocity": 0.23622047244094488,
                    "duration": 0.17708333333331439
                },
                {
                    "name": "B5",
                    "midi": 83,
                    "time": 124.69791666666667,
                    "velocity": 0.4881889763779528,
                    "duration": 0.5364583333333144
                },
                {
                    "name": "G5",
                    "midi": 79,
                    "time": 124.69791666666667,
                    "velocity": 0.4566929133858268,
                    "duration": 0.541666666666643
                },
                {
                    "name": "G#2",
                    "midi": 44,
                    "time": 125.07812499999999,
                    "velocity": 0.2283464566929134,
                    "duration": 0.2864583333333286
                },
                {
                    "name": "A#3",
                    "midi": 58,
                    "time": 125.89583333333331,
                    "velocity": 0.23622047244094488,
                    "duration": 0.015625
                },
                {
                    "name": "B4",
                    "midi": 71,
                    "time": 126.08854166666664,
                    "velocity": 0.4409448818897638,
                    "duration": 0.5989583333333428
                },
                {
                    "name": "G4",
                    "midi": 67,
                    "time": 126.08854166666664,
                    "velocity": 0.4251968503937008,
                    "duration": 0.25
                },
                {
                    "name": "F4",
                    "midi": 65,
                    "time": 126.33854166666664,
                    "velocity": 0.47244094488188976,
                    "duration": 0.1770833333333428
                },
                {
                    "name": "G2",
                    "midi": 43,
                    "time": 126.41145833333331,
                    "velocity": 0.3937007874015748,
                    "duration": 0.2135416666666714
                },
                {
                    "name": "G#3",
                    "midi": 56,
                    "time": 126.52083333333331,
                    "velocity": 0.3464566929133858,
                    "duration": 0.09375
                },
                {
                    "name": "F#4",
                    "midi": 66,
                    "time": 126.52604166666664,
                    "velocity": 0.4881889763779528,
                    "duration": 0.1666666666666714
                },
                {
                    "name": "D#4",
                    "midi": 63,
                    "time": 126.69270833333331,
                    "velocity": 0.4881889763779528,
                    "duration": 0.010416666666671404
                },
                {
                    "name": "C#4",
                    "midi": 61,
                    "time": 126.80208333333331,
                    "velocity": 0.4566929133858268,
                    "duration": 0.020833333333328596
                },
                {
                    "name": "D5",
                    "midi": 74,
                    "time": 126.88541666666664,
                    "velocity": 0.4881889763779528,
                    "duration": 0.5520833333333428
                },
                {
                    "name": "A#4",
                    "midi": 70,
                    "time": 126.88541666666664,
                    "velocity": 0.4566929133858268,
                    "duration": 0.15625
                },
                {
                    "name": "G#4",
                    "midi": 68,
                    "time": 127.04166666666664,
                    "velocity": 0.4881889763779528,
                    "duration": 0.1510416666666714
                },
                {
                    "name": "B2",
                    "midi": 47,
                    "time": 127.09895833333331,
                    "velocity": 0.5511811023622047,
                    "duration": 0.296875
                },
                {
                    "name": "C4",
                    "midi": 60,
                    "time": 127.21874999999999,
                    "velocity": 0.4881889763779528,
                    "duration": 0.1875
                },
                {
                    "name": "A4",
                    "midi": 69,
                    "time": 127.22395833333331,
                    "velocity": 0.5669291338582677,
                    "duration": 0.1979166666666714
                },
                {
                    "name": "F#4",
                    "midi": 66,
                    "time": 127.38541666666664,
                    "velocity": 0.5196850393700787,
                    "duration": 0.04687500000001421
                },
                {
                    "name": "F#4",
                    "midi": 66,
                    "time": 127.55729166666666,
                    "velocity": 0.15748031496062992,
                    "duration": 0.109375
                },
                {
                    "name": "B4",
                    "midi": 71,
                    "time": 127.66666666666666,
                    "velocity": 0.2047244094488189,
                    "duration": 0.09375
                },
                {
                    "name": "F5",
                    "midi": 77,
                    "time": 127.76041666666666,
                    "velocity": 0.3779527559055118,
                    "duration": 0.057291666666671404
                },
                {
                    "name": "A5",
                    "midi": 81,
                    "time": 127.859375,
                    "velocity": 0.36220472440944884,
                    "duration": 0.0989583333333286
                },
                {
                    "name": "C#6",
                    "midi": 85,
                    "time": 127.9375,
                    "velocity": 0.3779527559055118,
                    "duration": 0.11458333333334281
                },
                {
                    "name": "F#3",
                    "midi": 54,
                    "time": 127.953125,
                    "velocity": 0.2204724409448819,
                    "duration": 0.09895833333334281
                },
                {
                    "name": "G3",
                    "midi": 55,
                    "time": 128.03125,
                    "velocity": 0.2204724409448819,
                    "duration": 0.10937500000002842
                },
                {
                    "name": "A#6",
                    "midi": 94,
                    "time": 128.03645833333334,
                    "velocity": 0.2992125984251969,
                    "duration": 0.06770833333334281
                },
                {
                    "name": "F#3",
                    "midi": 54,
                    "time": 128.12500000000003,
                    "velocity": 0.15748031496062992,
                    "duration": 0.125
                },
                {
                    "name": "B2",
                    "midi": 47,
                    "time": 128.22395833333337,
                    "velocity": 0.1889763779527559,
                    "duration": 0.1354166666666572
                },
                {
                    "name": "F4",
                    "midi": 65,
                    "time": 128.30729166666669,
                    "velocity": 0.2204724409448819,
                    "duration": 0.109375
                },
                {
                    "name": "A#4",
                    "midi": 70,
                    "time": 128.40104166666669,
                    "velocity": 0.23622047244094488,
                    "duration": 0.09375
                },
                {
                    "name": "E5",
                    "midi": 76,
                    "time": 128.47916666666669,
                    "velocity": 0.2677165354330709,
                    "duration": 0.05208333333334281
                },
                {
                    "name": "G#5",
                    "midi": 80,
                    "time": 128.55208333333337,
                    "velocity": 0.2047244094488189,
                    "duration": 0.07291666666665719
                },
                {
                    "name": "C6",
                    "midi": 84,
                    "time": 128.61458333333337,
                    "velocity": 0.2047244094488189,
                    "duration": 0.08854166666665719
                },
                {
                    "name": "A6",
                    "midi": 93,
                    "time": 128.70833333333337,
                    "velocity": 0.3464566929133858,
                    "duration": 0.20833333333331439
                },
                {
                    "name": "E3",
                    "midi": 52,
                    "time": 128.85937500000003,
                    "velocity": 0.25196850393700787,
                    "duration": 0.3281249999999716
                },
                {
                    "name": "F3",
                    "midi": 53,
                    "time": 129.03645833333334,
                    "velocity": 0.2992125984251969,
                    "duration": 0.3020833333333144
                },
                {
                    "name": "E3",
                    "midi": 52,
                    "time": 129.25,
                    "velocity": 0.25196850393700787,
                    "duration": 0.03125
                },
                {
                    "name": "A1",
                    "midi": 33,
                    "time": 129.484375,
                    "velocity": 0.1732283464566929,
                    "duration": 0.3802083333333428
                },
                {
                    "name": "A#2",
                    "midi": 46,
                    "time": 129.703125,
                    "velocity": 0.1889763779527559,
                    "duration": 0.18229166666668561
                },
                {
                    "name": "F#5",
                    "midi": 78,
                    "time": 129.88020833333334,
                    "velocity": 0.4566929133858268,
                    "duration": 0.2968750000000284
                },
                {
                    "name": "F4",
                    "midi": 65,
                    "time": 130.04166666666669,
                    "velocity": 0.4251968503937008,
                    "duration": 0.13541666666668561
                },
                {
                    "name": "C#3",
                    "midi": 49,
                    "time": 130.04166666666669,
                    "velocity": 0.3464566929133858,
                    "duration": 0.13541666666668561
                },
                {
                    "name": "B1",
                    "midi": 35,
                    "time": 130.17187500000003,
                    "velocity": 0.2047244094488189,
                    "duration": 0.21354166666668561
                },
                {
                    "name": "C3",
                    "midi": 48,
                    "time": 130.2760416666667,
                    "velocity": 0.2204724409448819,
                    "duration": 0.109375
                },
                {
                    "name": "D4",
                    "midi": 62,
                    "time": 130.28125000000006,
                    "velocity": 0.33070866141732286,
                    "duration": 0.11979166666665719
                },
                {
                    "name": "D#5",
                    "midi": 75,
                    "time": 130.4010416666667,
                    "velocity": 0.4094488188976378,
                    "duration": 0.21354166666671404
                },
                {
                    "name": "C#4",
                    "midi": 61,
                    "time": 130.5052083333334,
                    "velocity": 0.36220472440944884,
                    "duration": 0.11458333333337123
                },
                {
                    "name": "D#3",
                    "midi": 51,
                    "time": 130.51041666666674,
                    "velocity": 0.1732283464566929,
                    "duration": 0.09895833333334281
                },
                {
                    "name": "C#2",
                    "midi": 37,
                    "time": 130.61979166666677,
                    "velocity": 0.1732283464566929,
                    "duration": 0.11979166666665719
                },
                {
                    "name": "D3",
                    "midi": 50,
                    "time": 130.72395833333343,
                    "velocity": 0.3464566929133858,
                    "duration": 0.026041666666685614
                },
                {
                    "name": "A#3",
                    "midi": 58,
                    "time": 130.73437500000009,
                    "velocity": 0.33070866141732286,
                    "duration": 0.010416666666685614
                },
                {
                    "name": "C5",
                    "midi": 72,
                    "time": 130.85416666666677,
                    "velocity": 0.31496062992125984,
                    "duration": 0.21354166666668561
                },
                {
                    "name": "F#3",
                    "midi": 54,
                    "time": 130.8593750000001,
                    "velocity": 0.1732283464566929,
                    "duration": 0.11979166666668561
                },
                {
                    "name": "F2",
                    "midi": 41,
                    "time": 130.95833333333346,
                    "velocity": 0.36220472440944884,
                    "duration": 0.020833333333342807
                },
                {
                    "name": "B3",
                    "midi": 59,
                    "time": 130.9635416666668,
                    "velocity": 0.23622047244094488,
                    "duration": 0.11458333333331439
                },
                {
                    "name": "A3",
                    "midi": 57,
                    "time": 131.0781250000001,
                    "velocity": 0.33070866141732286,
                    "duration": 0.2552083333333428
                },
                {
                    "name": "G#2",
                    "midi": 44,
                    "time": 131.19270833333346,
                    "velocity": 0.1732283464566929,
                    "duration": 0.1302083333333428
                },
                {
                    "name": "A4",
                    "midi": 69,
                    "time": 131.31770833333346,
                    "velocity": 0.3464566929133858,
                    "duration": 0.1770833333333428
                },
                {
                    "name": "G#3",
                    "midi": 56,
                    "time": 131.4479166666668,
                    "velocity": 0.28346456692913385,
                    "duration": 0.05208333333334281
                },
                {
                    "name": "F#3",
                    "midi": 54,
                    "time": 131.6666666666668,
                    "velocity": 0.28346456692913385,
                    "duration": 0.15104166666668561
                },
                {
                    "name": "F2",
                    "midi": 41,
                    "time": 131.81250000000014,
                    "velocity": 0.1889763779527559,
                    "duration": 0.010416666666685614
                },
                {
                    "name": "C5",
                    "midi": 72,
                    "time": 131.81250000000014,
                    "velocity": 0.4251968503937008,
                    "duration": 0.25520833333337123
                },
                {
                    "name": "B3",
                    "midi": 59,
                    "time": 131.93750000000017,
                    "velocity": 0.4409448818897638,
                    "duration": 0.15104166666668561
                },
                {
                    "name": "A3",
                    "midi": 57,
                    "time": 131.93750000000017,
                    "velocity": 0.28346456692913385,
                    "duration": 0.21875000000002842
                },
                {
                    "name": "G#2",
                    "midi": 44,
                    "time": 132.07291666666686,
                    "velocity": 0.2047244094488189,
                    "duration": 0.078125
                },
                {
                    "name": "A4",
                    "midi": 69,
                    "time": 132.22916666666686,
                    "velocity": 0.23622047244094488,
                    "duration": 0.2916666666666572
                },
                {
                    "name": "G#3",
                    "midi": 56,
                    "time": 132.3958333333335,
                    "velocity": 0.2204724409448819,
                    "duration": 0.05729166666665719
                },
                {
                    "name": "F3",
                    "midi": 53,
                    "time": 132.40625000000017,
                    "velocity": 0.1732283464566929,
                    "duration": 0.046875
                },
                {
                    "name": "F2",
                    "midi": 41,
                    "time": 132.74479166666686,
                    "velocity": 0.2204724409448819,
                    "duration": 0.6666666666666572
                },
                {
                    "name": "D3",
                    "midi": 50,
                    "time": 132.76041666666686,
                    "velocity": 0.25196850393700787,
                    "duration": 0.1770833333333428
                },
                {
                    "name": "F#3",
                    "midi": 54,
                    "time": 132.91666666666686,
                    "velocity": 0.4409448818897638,
                    "duration": 0.16145833333331439
                },
                {
                    "name": "D#3",
                    "midi": 51,
                    "time": 132.9218750000002,
                    "velocity": 0.23622047244094488,
                    "duration": 0.11979166666665719
                },
                {
                    "name": "D3",
                    "midi": 50,
                    "time": 133.0520833333335,
                    "velocity": 0.23622047244094488,
                    "duration": 0.1302083333333428
                },
                {
                    "name": "D#3",
                    "midi": 51,
                    "time": 133.1770833333335,
                    "velocity": 0.18110236220472442,
                    "duration": 0.1302083333333428
                },
                {
                    "name": "F#3",
                    "midi": 54,
                    "time": 133.1770833333335,
                    "velocity": 0.36220472440944884,
                    "duration": 0.1875
                },
                {
                    "name": "D3",
                    "midi": 50,
                    "time": 133.30729166666686,
                    "velocity": 0.1889763779527559,
                    "duration": 0.10416666666665719
                },
                {
                    "name": "F3",
                    "midi": 53,
                    "time": 133.76562500000017,
                    "velocity": 0.23622047244094488,
                    "duration": 0.8177083333333997
                },
                {
                    "name": "B3",
                    "midi": 59,
                    "time": 133.7864583333335,
                    "velocity": 0.36220472440944884,
                    "duration": 0.791666666666714
                },
                {
                    "name": "F#4",
                    "midi": 66,
                    "time": 133.8020833333335,
                    "velocity": 0.4094488188976378,
                    "duration": 0.06770833333334281
                },
                {
                    "name": "D#5",
                    "midi": 75,
                    "time": 133.82812500000017,
                    "velocity": 0.5669291338582677,
                    "duration": 0.7604166666667425
                },
                {
                    "name": "A#4",
                    "midi": 70,
                    "time": 133.8333333333335,
                    "velocity": 0.5196850393700787,
                    "duration": 0.7812500000000568
                },
                {
                    "name": "D4",
                    "midi": 62,
                    "time": 133.8333333333335,
                    "velocity": 0.4881889763779528,
                    "duration": 0.7552083333333997
                },
                {
                    "name": "G4",
                    "midi": 67,
                    "time": 133.93229166666686,
                    "velocity": 0.4330708661417323,
                    "duration": 0.05208333333334281
                },
                {
                    "name": "F#4",
                    "midi": 66,
                    "time": 134.05208333333354,
                    "velocity": 0.4015748031496063,
                    "duration": 0.109375
                },
                {
                    "name": "G4",
                    "midi": 67,
                    "time": 134.16145833333354,
                    "velocity": 0.33858267716535434,
                    "duration": 0.1458333333333428
                },
                {
                    "name": "F#4",
                    "midi": 66,
                    "time": 134.31250000000023,
                    "velocity": 0.2992125984251969,
                    "duration": 0.2552083333333428
                },
                {
                    "name": "F2",
                    "midi": 41,
                    "time": 134.89062500000023,
                    "velocity": 0.2204724409448819,
                    "duration": 0.8177083333333428
                },
                {
                    "name": "D3",
                    "midi": 50,
                    "time": 134.89062500000023,
                    "velocity": 0.2992125984251969,
                    "duration": 0.1822916666666572
                },
                {
                    "name": "F#3",
                    "midi": 54,
                    "time": 135.05729166666688,
                    "velocity": 0.3937007874015748,
                    "duration": 0.15625000000002842
                },
                {
                    "name": "D#3",
                    "midi": 51,
                    "time": 135.05729166666688,
                    "velocity": 0.2677165354330709,
                    "duration": 0.1302083333333428
                },
                {
                    "name": "D3",
                    "midi": 50,
                    "time": 135.19270833333357,
                    "velocity": 0.23622047244094488,
                    "duration": 0.1770833333333428
                },
                {
                    "name": "D#3",
                    "midi": 51,
                    "time": 135.31770833333357,
                    "velocity": 0.2204724409448819,
                    "duration": 0.1927083333333428
                },
                {
                    "name": "F#3",
                    "midi": 54,
                    "time": 135.3229166666669,
                    "velocity": 0.33070866141732286,
                    "duration": 0.3802083333333144
                },
                {
                    "name": "D3",
                    "midi": 50,
                    "time": 135.50520833333357,
                    "velocity": 0.2047244094488189,
                    "duration": 0.2135416666666572
                },
                {
                    "name": "F3",
                    "midi": 53,
                    "time": 136.07291666666688,
                    "velocity": 0.33070866141732286,
                    "duration": 1.2031250000000284
                },
                {
                    "name": "B3",
                    "midi": 59,
                    "time": 136.10416666666688,
                    "velocity": 0.1889763779527559,
                    "duration": 1.1718750000000284
                },
                {
                    "name": "F#4",
                    "midi": 66,
                    "time": 136.12500000000023,
                    "velocity": 0.4094488188976378,
                    "duration": 0.09375000000002842
                },
                {
                    "name": "E5",
                    "midi": 76,
                    "time": 136.16145833333357,
                    "velocity": 0.6456692913385826,
                    "duration": 1
                },
                {
                    "name": "A#4",
                    "midi": 70,
                    "time": 136.16145833333357,
                    "velocity": 0.5669291338582677,
                    "duration": 1.1250000000000284
                },
                {
                    "name": "D4",
                    "midi": 62,
                    "time": 136.16145833333357,
                    "velocity": 0.5984251968503937,
                    "duration": 1.1197916666666856
                },
                {
                    "name": "G4",
                    "midi": 67,
                    "time": 136.28125000000026,
                    "velocity": 0.44881889763779526,
                    "duration": 0.078125
                },
                {
                    "name": "F#4",
                    "midi": 66,
                    "time": 136.40625000000026,
                    "velocity": 0.4251968503937008,
                    "duration": 0.09375
                },
                {
                    "name": "G4",
                    "midi": 67,
                    "time": 136.5416666666669,
                    "velocity": 0.3700787401574803,
                    "duration": 0.14583333333331439
                },
                {
                    "name": "F#4",
                    "midi": 66,
                    "time": 136.72916666666688,
                    "velocity": 0.2992125984251969,
                    "duration": 0.5416666666666856
                },
                {
                    "name": "D#5",
                    "midi": 75,
                    "time": 137.14583333333357,
                    "velocity": 0.36220472440944884,
                    "duration": 0.14062500000002842
                },
                {
                    "name": "G#4",
                    "midi": 68,
                    "time": 137.87500000000026,
                    "velocity": 0.36220472440944884,
                    "duration": 0.015625
                },
                {
                    "name": "A5",
                    "midi": 81,
                    "time": 137.92187500000026,
                    "velocity": 0.4881889763779528,
                    "duration": 0.984375
                },
                {
                    "name": "F5",
                    "midi": 77,
                    "time": 137.9270833333336,
                    "velocity": 0.4566929133858268,
                    "duration": 0.5416666666666572
                },
                {
                    "name": "B2",
                    "midi": 47,
                    "time": 138.18229166666694,
                    "velocity": 0.2204724409448819,
                    "duration": 0.05729166666665719
                },
                {
                    "name": "C4",
                    "midi": 60,
                    "time": 138.2395833333336,
                    "velocity": 0.4094488188976378,
                    "duration": 0.203125
                },
                {
                    "name": "D#5",
                    "midi": 75,
                    "time": 138.60937500000026,
                    "velocity": 0.5039370078740157,
                    "duration": 0.05729166666665719
                },
                {
                    "name": "F3",
                    "midi": 53,
                    "time": 138.6666666666669,
                    "velocity": 0.2204724409448819,
                    "duration": 0.11458333333334281
                },
                {
                    "name": "F#4",
                    "midi": 66,
                    "time": 138.75520833333357,
                    "velocity": 0.3779527559055118,
                    "duration": 0.026041666666685614
                },
                {
                    "name": "E5",
                    "midi": 76,
                    "time": 138.7604166666669,
                    "velocity": 0.5196850393700787,
                    "duration": 0.1302083333333428
                },
                {
                    "name": "C#5",
                    "midi": 73,
                    "time": 138.90625000000026,
                    "velocity": 0.4881889763779528,
                    "duration": 0.015625
                },
                {
                    "name": "E4",
                    "midi": 64,
                    "time": 138.9635416666669,
                    "velocity": 0.33070866141732286,
                    "duration": 0.08333333333334281
                },
                {
                    "name": "F5",
                    "midi": 77,
                    "time": 139.04687500000026,
                    "velocity": 0.5826771653543307,
                    "duration": 0.4947916666666572
                },
                {
                    "name": "C#5",
                    "midi": 73,
                    "time": 139.0520833333336,
                    "velocity": 0.4566929133858268,
                    "duration": 0.1302083333333428
                },
                {
                    "name": "B4",
                    "midi": 71,
                    "time": 139.21875000000028,
                    "velocity": 0.5196850393700787,
                    "duration": 0.06770833333331439
                },
                {
                    "name": "C#3",
                    "midi": 49,
                    "time": 139.26562500000028,
                    "velocity": 0.3779527559055118,
                    "duration": 0.1354166666666572
                },
                {
                    "name": "D4",
                    "midi": 62,
                    "time": 139.34375000000026,
                    "velocity": 0.31496062992125984,
                    "duration": 0.057291666666685614
                },
                {
                    "name": "C5",
                    "midi": 72,
                    "time": 139.3489583333336,
                    "velocity": 0.5039370078740157,
                    "duration": 0.109375
                },
                {
                    "name": "A4",
                    "midi": 69,
                    "time": 139.51562500000026,
                    "velocity": 0.5511811023622047,
                    "duration": 0.015625
                },
                {
                    "name": "D#4",
                    "midi": 63,
                    "time": 139.8958333333336,
                    "velocity": 0.4094488188976378,
                    "duration": 0.08333333333334281
                },
                {
                    "name": "E5",
                    "midi": 76,
                    "time": 139.96354166666694,
                    "velocity": 0.5511811023622047,
                    "duration": 1.0468750000000568
                },
                {
                    "name": "C5",
                    "midi": 72,
                    "time": 139.96875000000028,
                    "velocity": 0.5354330708661418,
                    "duration": 0.4947916666666856
                },
                {
                    "name": "F#2",
                    "midi": 42,
                    "time": 140.25000000000028,
                    "velocity": 0.3937007874015748,
                    "duration": 0.19791666666668561
                },
                {
                    "name": "G3",
                    "midi": 55,
                    "time": 140.32291666666697,
                    "velocity": 0.5039370078740157,
                    "duration": 0.1510416666666572
                },
                {
                    "name": "A#4",
                    "midi": 70,
                    "time": 140.70312500000028,
                    "velocity": 0.47244094488188976,
                    "duration": 0.08854166666668561
                },
                {
                    "name": "C#3",
                    "midi": 49,
                    "time": 140.75520833333363,
                    "velocity": 0.5511811023622047,
                    "duration": 0.15625000000002842
                },
                {
                    "name": "D4",
                    "midi": 62,
                    "time": 140.85416666666697,
                    "velocity": 0.4566929133858268,
                    "duration": 0.07291666666668561
                },
                {
                    "name": "B4",
                    "midi": 71,
                    "time": 140.8593750000003,
                    "velocity": 0.5354330708661418,
                    "duration": 0.15625000000002842
                },
                {
                    "name": "G#4",
                    "midi": 68,
                    "time": 141.01562500000034,
                    "velocity": 0.5039370078740157,
                    "duration": 0.005208333333342807
                },
                {
                    "name": "B3",
                    "midi": 59,
                    "time": 141.06250000000034,
                    "velocity": 0.2677165354330709,
                    "duration": 0.1458333333333428
                },
                {
                    "name": "G#4",
                    "midi": 68,
                    "time": 141.20312500000034,
                    "velocity": 0.4094488188976378,
                    "duration": 0.1770833333333428
                },
                {
                    "name": "C5",
                    "midi": 72,
                    "time": 141.20312500000034,
                    "velocity": 0.4409448818897638,
                    "duration": 0.6093750000000568
                },
                {
                    "name": "F#4",
                    "midi": 66,
                    "time": 141.38020833333368,
                    "velocity": 0.2047244094488189,
                    "duration": 0.17187500000002842
                },
                {
                    "name": "G#2",
                    "midi": 44,
                    "time": 141.44270833333368,
                    "velocity": 0.2992125984251969,
                    "duration": 0.15625000000002842
                },
                {
                    "name": "A3",
                    "midi": 57,
                    "time": 141.54687500000037,
                    "velocity": 0.1889763779527559,
                    "duration": 0.07291666666668561
                },
                {
                    "name": "G4",
                    "midi": 67,
                    "time": 141.57291666666706,
                    "velocity": 0.2204724409448819,
                    "duration": 0.265625
                },
                {
                    "name": "E4",
                    "midi": 64,
                    "time": 141.72916666666706,
                    "velocity": 0.2047244094488189,
                    "duration": 0.11458333333334281
                },
                {
                    "name": "A3",
                    "midi": 57,
                    "time": 141.91145833333374,
                    "velocity": 0.1889763779527559,
                    "duration": 0.10416666666665719
                },
                {
                    "name": "A#4",
                    "midi": 70,
                    "time": 142.0000000000004,
                    "velocity": 0.4094488188976378,
                    "duration": 0.5833333333333712
                },
                {
                    "name": "G4",
                    "midi": 67,
                    "time": 142.0000000000004,
                    "velocity": 0.23622047244094488,
                    "duration": 0.18229166666668561
                },
                {
                    "name": "F4",
                    "midi": 65,
                    "time": 142.19791666666708,
                    "velocity": 0.28346456692913385,
                    "duration": 0.1770833333333428
                },
                {
                    "name": "G2",
                    "midi": 43,
                    "time": 142.26041666666708,
                    "velocity": 0.25196850393700787,
                    "duration": 0.1770833333333428
                },
                {
                    "name": "F#4",
                    "midi": 66,
                    "time": 142.38541666666708,
                    "velocity": 0.2992125984251969,
                    "duration": 0.18229166666668561
                },
                {
                    "name": "G#3",
                    "midi": 56,
                    "time": 142.38541666666708,
                    "velocity": 0.2204724409448819,
                    "duration": 0.07291666666668561
                },
                {
                    "name": "D4",
                    "midi": 62,
                    "time": 142.5416666666671,
                    "velocity": 0.23622047244094488,
                    "duration": 0.046875
                },
                {
                    "name": "F#3",
                    "midi": 54,
                    "time": 142.64062500000045,
                    "velocity": 0.15748031496062992,
                    "duration": 0.11458333333334281
                },
                {
                    "name": "G4",
                    "midi": 67,
                    "time": 142.7395833333338,
                    "velocity": 0.2204724409448819,
                    "duration": 0.8020833333333428
                },
                {
                    "name": "E4",
                    "midi": 64,
                    "time": 142.7395833333338,
                    "velocity": 0.2677165354330709,
                    "duration": 0.24479166666668561
                },
                {
                    "name": "D4",
                    "midi": 62,
                    "time": 142.93229166666714,
                    "velocity": 0.1732283464566929,
                    "duration": 0.5572916666666572
                },
                {
                    "name": "E2",
                    "midi": 40,
                    "time": 143.02604166666714,
                    "velocity": 0.1732283464566929,
                    "duration": 0.515625
                },
                {
                    "name": "F3",
                    "midi": 53,
                    "time": 143.1614583333338,
                    "velocity": 0.1732283464566929,
                    "duration": 0.3906250000000284
                },
                {
                    "name": "D#4",
                    "midi": 63,
                    "time": 143.1614583333338,
                    "velocity": 0.15748031496062992,
                    "duration": 0.25
                },
                {
                    "name": "B3",
                    "midi": 59,
                    "time": 143.3645833333338,
                    "velocity": 0.1732283464566929,
                    "duration": 0.20312500000002842
                },
                {
                    "name": "D#3",
                    "midi": 51,
                    "time": 144.25520833333383,
                    "velocity": 0.1732283464566929,
                    "duration": 0.06770833333334281
                },
                {
                    "name": "C#4",
                    "midi": 61,
                    "time": 144.29166666666717,
                    "velocity": 0.2992125984251969,
                    "duration": 1.109375
                },
                {
                    "name": "E4",
                    "midi": 64,
                    "time": 144.2968750000005,
                    "velocity": 0.1889763779527559,
                    "duration": 1.0885416666666572
                },
                {
                    "name": "G1",
                    "midi": 31,
                    "time": 144.66666666666717,
                    "velocity": 0.1889763779527559,
                    "duration": 0.40625
                },
                {
                    "name": "G#2",
                    "midi": 44,
                    "time": 144.72916666666717,
                    "velocity": 0.15748031496062992,
                    "duration": 0.3489583333333428
                },
                {
                    "name": "C#3",
                    "midi": 49,
                    "time": 145.89062500000048,
                    "velocity": 0.15748031496062992,
                    "duration": 0.06770833333331439
                },
                {
                    "name": "D4",
                    "midi": 62,
                    "time": 145.94791666666714,
                    "velocity": 0.2204724409448819,
                    "duration": 1.6510416666666856
                },
                {
                    "name": "A#3",
                    "midi": 58,
                    "time": 145.94791666666714,
                    "velocity": 0.15748031496062992,
                    "duration": 1.6770833333333428
                },
                {
                    "name": "D#1",
                    "midi": 27,
                    "time": 146.32291666666714,
                    "velocity": 0.1732283464566929,
                    "duration": 0.25
                },
                {
                    "name": "E2",
                    "midi": 40,
                    "time": 146.39062500000048,
                    "velocity": 0.1732283464566929,
                    "duration": 0.21875
                },
                {
                    "name": "C3",
                    "midi": 48,
                    "time": 148.74479166666714,
                    "velocity": 0.2440944881889764,
                    "duration": 0.10416666666665719
                },
                {
                    "name": "C#4",
                    "midi": 61,
                    "time": 148.8177083333338,
                    "velocity": 0.3228346456692913,
                    "duration": 0.4583333333333144
                },
                {
                    "name": "A3",
                    "midi": 57,
                    "time": 148.82812500000045,
                    "velocity": 0.2677165354330709,
                    "duration": 0.421875
                },
                {
                    "name": "A#2",
                    "midi": 46,
                    "time": 149.25000000000045,
                    "velocity": 0.3464566929133858,
                    "duration": 0.5260416666666288
                },
                {
                    "name": "D#3",
                    "midi": 51,
                    "time": 149.5416666666671,
                    "velocity": 0.2677165354330709,
                    "duration": 0.12499999999997158
                },
                {
                    "name": "E4",
                    "midi": 64,
                    "time": 149.63020833333377,
                    "velocity": 0.41732283464566927,
                    "duration": 0.43229166666662877
                },
                {
                    "name": "C4",
                    "midi": 60,
                    "time": 149.63020833333377,
                    "velocity": 0.33070866141732286,
                    "duration": 0.4218749999999716
                },
                {
                    "name": "G2",
                    "midi": 43,
                    "time": 149.98958333333374,
                    "velocity": 0.4645669291338583,
                    "duration": 0.4739583333333144
                },
                {
                    "name": "F#3",
                    "midi": 54,
                    "time": 150.22395833333374,
                    "velocity": 0.47244094488188976,
                    "duration": 0.10416666666665719
                },
                {
                    "name": "D#4",
                    "midi": 63,
                    "time": 150.30208333333374,
                    "velocity": 0.4409448818897638,
                    "duration": 0.35416666666662877
                },
                {
                    "name": "G4",
                    "midi": 67,
                    "time": 150.30208333333374,
                    "velocity": 0.5669291338582677,
                    "duration": 0.35416666666662877
                },
                {
                    "name": "F#2",
                    "midi": 42,
                    "time": 150.71354166666703,
                    "velocity": 0.44881889763779526,
                    "duration": 0.1875
                },
                {
                    "name": "A#3",
                    "midi": 58,
                    "time": 150.93750000000037,
                    "velocity": 0.2677165354330709,
                    "duration": 0.11979166666665719
                },
                {
                    "name": "B4",
                    "midi": 71,
                    "time": 151.02604166666703,
                    "velocity": 0.33858267716535434,
                    "duration": 0.390625
                },
                {
                    "name": "G4",
                    "midi": 67,
                    "time": 151.02604166666703,
                    "velocity": 0.28346456692913385,
                    "duration": 0.3802083333333428
                },
                {
                    "name": "G#2",
                    "midi": 44,
                    "time": 151.36458333333368,
                    "velocity": 0.4251968503937008,
                    "duration": 0.4479166666666572
                },
                {
                    "name": "B3",
                    "midi": 59,
                    "time": 151.61458333333368,
                    "velocity": 0.4251968503937008,
                    "duration": 0.13020833333331439
                },
                {
                    "name": "G#4",
                    "midi": 68,
                    "time": 151.67187500000034,
                    "velocity": 0.3779527559055118,
                    "duration": 0.5208333333333428
                },
                {
                    "name": "C5",
                    "midi": 72,
                    "time": 151.682291666667,
                    "velocity": 0.47244094488188976,
                    "duration": 0.5104166666666856
                },
                {
                    "name": "E2",
                    "midi": 40,
                    "time": 152.09375000000034,
                    "velocity": 0.5196850393700787,
                    "duration": 0.421875
                },
                {
                    "name": "E4",
                    "midi": 64,
                    "time": 152.52083333333368,
                    "velocity": 0.49606299212598426,
                    "duration": 0.005208333333342807
                },
                {
                    "name": "C#5",
                    "midi": 73,
                    "time": 152.56770833333368,
                    "velocity": 0.4251968503937008,
                    "duration": 0.3333333333333428
                },
                {
                    "name": "F5",
                    "midi": 77,
                    "time": 152.56770833333368,
                    "velocity": 0.5826771653543307,
                    "duration": 0.3333333333333428
                },
                {
                    "name": "D#2",
                    "midi": 39,
                    "time": 152.86979166666703,
                    "velocity": 0.5433070866141733,
                    "duration": 0.0625
                },
                {
                    "name": "G#4",
                    "midi": 68,
                    "time": 153.11979166666703,
                    "velocity": 0.5354330708661418,
                    "duration": 0.026041666666657193
                },
                {
                    "name": "A5",
                    "midi": 81,
                    "time": 153.31770833333368,
                    "velocity": 0.6299212598425197,
                    "duration": 2.4531250000000284
                },
                {
                    "name": "F5",
                    "midi": 77,
                    "time": 153.31770833333368,
                    "velocity": 0.4566929133858268,
                    "duration": 1.4427083333333428
                },
                {
                    "name": "D#5",
                    "midi": 75,
                    "time": 155.00520833333368,
                    "velocity": 0.4881889763779528,
                    "duration": 0.15625
                },
                {
                    "name": "E5",
                    "midi": 76,
                    "time": 155.29166666666703,
                    "velocity": 0.5354330708661418,
                    "duration": 0.2239583333333428
                },
                {
                    "name": "C5",
                    "midi": 72,
                    "time": 155.53125000000037,
                    "velocity": 0.5511811023622047,
                    "duration": 0.19270833333331439
                },
                {
                    "name": "G#4",
                    "midi": 68,
                    "time": 155.73437500000037,
                    "velocity": 0.4566929133858268,
                    "duration": 0.1927083333333428
                },
                {
                    "name": "G#5",
                    "midi": 80,
                    "time": 155.9427083333337,
                    "velocity": 0.5511811023622047,
                    "duration": 0.5312500000000284
                },
                {
                    "name": "A4",
                    "midi": 69,
                    "time": 155.95312500000037,
                    "velocity": 0.5354330708661418,
                    "duration": 0.1927083333333428
                },
                {
                    "name": "D5",
                    "midi": 74,
                    "time": 156.15104166666706,
                    "velocity": 0.5984251968503937,
                    "duration": 0.234375
                },
                {
                    "name": "C#5",
                    "midi": 73,
                    "time": 156.3906250000004,
                    "velocity": 0.4881889763779528,
                    "duration": 0.08333333333334281
                },
                {
                    "name": "E5",
                    "midi": 76,
                    "time": 156.6718750000004,
                    "velocity": 0.5669291338582677,
                    "duration": 2.4322916666666856
                },
                {
                    "name": "C5",
                    "midi": 72,
                    "time": 156.6718750000004,
                    "velocity": 0.4881889763779528,
                    "duration": 2.390625
                },
                {
                    "name": "G#4",
                    "midi": 68,
                    "time": 156.69791666666706,
                    "velocity": 0.33070866141732286,
                    "duration": 0.296875
                },
                {
                    "name": "B3",
                    "midi": 59,
                    "time": 156.69791666666706,
                    "velocity": 0.2677165354330709,
                    "duration": 2.3697916666666856
                },
                {
                    "name": "A4",
                    "midi": 69,
                    "time": 156.9687500000004,
                    "velocity": 0.4409448818897638,
                    "duration": 0.2864583333333144
                },
                {
                    "name": "D#4",
                    "midi": 63,
                    "time": 157.26041666666706,
                    "velocity": 0.28346456692913385,
                    "duration": 0.3645833333333428
                },
                {
                    "name": "G4",
                    "midi": 67,
                    "time": 158.08854166666706,
                    "velocity": 0.28346456692913385,
                    "duration": 0.4427083333333428
                },
                {
                    "name": "A3",
                    "midi": 57,
                    "time": 158.49479166666706,
                    "velocity": 0.1732283464566929,
                    "duration": 0.5885416666666856
                },
                {
                    "name": "F4",
                    "midi": 65,
                    "time": 159.62500000000043,
                    "velocity": 0.6220472440944882,
                    "duration": 0.07812500000002842
                },
                {
                    "name": "D#2",
                    "midi": 39,
                    "time": 159.63020833333377,
                    "velocity": 0.4645669291338583,
                    "duration": 0.5520833333333428
                },
                {
                    "name": "C3",
                    "midi": 48,
                    "time": 159.6354166666671,
                    "velocity": 0.49606299212598426,
                    "duration": 0.5520833333333428
                },
                {
                    "name": "B2",
                    "midi": 47,
                    "time": 159.6354166666671,
                    "velocity": 0.5511811023622047,
                    "duration": 0.546875
                },
                {
                    "name": "D4",
                    "midi": 62,
                    "time": 159.81250000000045,
                    "velocity": 0.6614173228346457,
                    "duration": 0.07291666666665719
                },
                {
                    "name": "C#5",
                    "midi": 73,
                    "time": 159.98958333333377,
                    "velocity": 0.6929133858267716,
                    "duration": 0.03645833333334281
                },
                {
                    "name": "G3",
                    "midi": 55,
                    "time": 160.17187500000045,
                    "velocity": 0.7086614173228346,
                    "duration": 0.07291666666665719
                },
                {
                    "name": "A4",
                    "midi": 69,
                    "time": 160.3385416666671,
                    "velocity": 0.7480314960629921,
                    "duration": 0.07291666666668561
                },
                {
                    "name": "C#4",
                    "midi": 61,
                    "time": 160.3541666666671,
                    "velocity": 0.5984251968503937,
                    "duration": 0.2552083333333428
                },
                {
                    "name": "D#3",
                    "midi": 51,
                    "time": 160.35937500000045,
                    "velocity": 0.5354330708661418,
                    "duration": 0.2395833333333428
                },
                {
                    "name": "B3",
                    "midi": 59,
                    "time": 160.35937500000045,
                    "velocity": 0.6141732283464567,
                    "duration": 0.2395833333333428
                },
                {
                    "name": "F#4",
                    "midi": 66,
                    "time": 160.50000000000048,
                    "velocity": 0.7716535433070866,
                    "duration": 0.020833333333314386
                },
                {
                    "name": "F5",
                    "midi": 77,
                    "time": 160.6354166666671,
                    "velocity": 0.7952755905511811,
                    "duration": 0.03125
                },
                {
                    "name": "D5",
                    "midi": 74,
                    "time": 160.76562500000045,
                    "velocity": 0.8188976377952756,
                    "duration": 0.026041666666657193
                },
                {
                    "name": "C#6",
                    "midi": 85,
                    "time": 160.92708333333377,
                    "velocity": 0.8818897637795275,
                    "duration": 0.0625
                },
                {
                    "name": "C5",
                    "midi": 72,
                    "time": 160.92708333333377,
                    "velocity": 0.6456692913385826,
                    "duration": 0.05208333333334281
                },
                {
                    "name": "C#5",
                    "midi": 73,
                    "time": 160.92708333333377,
                    "velocity": 0.5748031496062992,
                    "duration": 0.046875
                },
                {
                    "name": "D#4",
                    "midi": 63,
                    "time": 160.92708333333377,
                    "velocity": 0.47244094488188976,
                    "duration": 0.05208333333334281
                },
                {
                    "name": "G#6",
                    "midi": 92,
                    "time": 161.4791666666671,
                    "velocity": 0.5984251968503937,
                    "duration": 0.9895833333333712
                },
                {
                    "name": "E6",
                    "midi": 88,
                    "time": 161.4791666666671,
                    "velocity": 0.7874015748031497,
                    "duration": 0.9895833333333712
                },
                {
                    "name": "G5",
                    "midi": 79,
                    "time": 161.4791666666671,
                    "velocity": 0.7874015748031497,
                    "duration": 0.5208333333333428
                },
                {
                    "name": "D#1",
                    "midi": 27,
                    "time": 161.60937500000045,
                    "velocity": 0.7952755905511811,
                    "duration": 0.10416666666665719
                },
                {
                    "name": "D#2",
                    "midi": 39,
                    "time": 161.75520833333377,
                    "velocity": 0.8110236220472441,
                    "duration": 0.046875
                },
                {
                    "name": "A2",
                    "midi": 45,
                    "time": 161.9010416666671,
                    "velocity": 0.7874015748031497,
                    "duration": 0.09895833333334281
                },
                {
                    "name": "A5",
                    "midi": 81,
                    "time": 162.0208333333338,
                    "velocity": 0.6929133858267716,
                    "duration": 0.4583333333333428
                },
                {
                    "name": "D3",
                    "midi": 50,
                    "time": 162.02604166666714,
                    "velocity": 0.7874015748031497,
                    "duration": 0.10416666666665719
                },
                {
                    "name": "G3",
                    "midi": 55,
                    "time": 162.1614583333338,
                    "velocity": 0.8188976377952756,
                    "duration": 0.09895833333334281
                },
                {
                    "name": "C4",
                    "midi": 60,
                    "time": 162.29166666666714,
                    "velocity": 0.6771653543307087,
                    "duration": 0.0625
                },
                {
                    "name": "F4",
                    "midi": 65,
                    "time": 162.44791666666714,
                    "velocity": 0.5354330708661418,
                    "duration": 0.03125
                },
                {
                    "name": "E6",
                    "midi": 88,
                    "time": 162.60416666666714,
                    "velocity": 0.8188976377952756,
                    "duration": 0.46354166666671404
                },
                {
                    "name": "A#5",
                    "midi": 82,
                    "time": 162.60416666666714,
                    "velocity": 0.7874015748031497,
                    "duration": 0.46354166666671404
                },
                {
                    "name": "D#5",
                    "midi": 75,
                    "time": 162.60937500000048,
                    "velocity": 0.7559055118110236,
                    "duration": 0.23437500000002842
                },
                {
                    "name": "C#5",
                    "midi": 73,
                    "time": 162.61458333333383,
                    "velocity": 0.7086614173228346,
                    "duration": 0.4375000000000284
                },
                {
                    "name": "F5",
                    "midi": 77,
                    "time": 162.9687500000005,
                    "velocity": 0.6614173228346457,
                    "duration": 0.10416666666668561
                },
                {
                    "name": "F#5",
                    "midi": 78,
                    "time": 163.45312500000054,
                    "velocity": 0.4881889763779528,
                    "duration": 0.5312499999999716
                },
                {
                    "name": "D#6",
                    "midi": 87,
                    "time": 163.45312500000054,
                    "velocity": 0.4566929133858268,
                    "duration": 1.6302083333333712
                },
                {
                    "name": "D5",
                    "midi": 74,
                    "time": 163.45833333333388,
                    "velocity": 0.4094488188976378,
                    "duration": 0.5624999999999716
                },
                {
                    "name": "G1",
                    "midi": 31,
                    "time": 163.6197916666672,
                    "velocity": 0.3228346456692913,
                    "duration": 0.10416666666665719
                },
                {
                    "name": "C2",
                    "midi": 36,
                    "time": 163.7500000000005,
                    "velocity": 0.33070866141732286,
                    "duration": 0.08333333333334281
                },
                {
                    "name": "F#2",
                    "midi": 42,
                    "time": 163.8906250000005,
                    "velocity": 0.3464566929133858,
                    "duration": 0.109375
                },
                {
                    "name": "G#5",
                    "midi": 80,
                    "time": 164.0260416666672,
                    "velocity": 0.44881889763779526,
                    "duration": 0.4479166666666856
                },
                {
                    "name": "E5",
                    "midi": 76,
                    "time": 164.03125000000054,
                    "velocity": 0.4015748031496063,
                    "duration": 0.4479166666666856
                },
                {
                    "name": "A#2",
                    "midi": 46,
                    "time": 164.03645833333388,
                    "velocity": 0.36220472440944884,
                    "duration": 0.08333333333334281
                },
                {
                    "name": "D3",
                    "midi": 50,
                    "time": 164.16666666666723,
                    "velocity": 0.3937007874015748,
                    "duration": 0.078125
                },
                {
                    "name": "B3",
                    "midi": 59,
                    "time": 164.31770833333388,
                    "velocity": 0.36220472440944884,
                    "duration": 1.2708333333333997
                },
                {
                    "name": "F5",
                    "midi": 77,
                    "time": 164.62500000000057,
                    "velocity": 0.4015748031496063,
                    "duration": 0.9427083333333712
                },
                {
                    "name": "A5",
                    "midi": 81,
                    "time": 164.62500000000057,
                    "velocity": 0.4881889763779528,
                    "duration": 0.947916666666714
                },
                {
                    "name": "E6",
                    "midi": 88,
                    "time": 165.22916666666725,
                    "velocity": 0.3779527559055118,
                    "duration": 0.3333333333333428
                },
                {
                    "name": "C#6",
                    "midi": 85,
                    "time": 165.91666666666728,
                    "velocity": 0.3543307086614173,
                    "duration": 1.6770833333333712
                },
                {
                    "name": "C5",
                    "midi": 72,
                    "time": 165.91666666666728,
                    "velocity": 0.31496062992125984,
                    "duration": 0.5416666666666856
                },
                {
                    "name": "E5",
                    "midi": 76,
                    "time": 165.91666666666728,
                    "velocity": 0.4094488188976378,
                    "duration": 0.5572916666666856
                },
                {
                    "name": "B1",
                    "midi": 35,
                    "time": 166.06250000000063,
                    "velocity": 0.25984251968503935,
                    "duration": 0.10416666666665719
                },
                {
                    "name": "E2",
                    "midi": 40,
                    "time": 166.21875000000063,
                    "velocity": 0.28346456692913385,
                    "duration": 0.08854166666665719
                },
                {
                    "name": "A#2",
                    "midi": 46,
                    "time": 166.35937500000063,
                    "velocity": 0.31496062992125984,
                    "duration": 0.057291666666685614
                },
                {
                    "name": "F#5",
                    "midi": 78,
                    "time": 166.50520833333397,
                    "velocity": 0.4251968503937008,
                    "duration": 0.4218750000000284
                },
                {
                    "name": "D3",
                    "midi": 50,
                    "time": 166.50520833333397,
                    "velocity": 0.33858267716535434,
                    "duration": 0.10416666666668561
                },
                {
                    "name": "D5",
                    "midi": 74,
                    "time": 166.50520833333397,
                    "velocity": 0.3543307086614173,
                    "duration": 0.4166666666666856
                },
                {
                    "name": "F#3",
                    "midi": 54,
                    "time": 166.6666666666673,
                    "velocity": 0.3464566929133858,
                    "duration": 0.09895833333334281
                },
                {
                    "name": "D#4",
                    "midi": 63,
                    "time": 166.81250000000065,
                    "velocity": 0.30708661417322836,
                    "duration": 0.734375
                },
                {
                    "name": "D#5",
                    "midi": 75,
                    "time": 167.192708333334,
                    "velocity": 0.3228346456692913,
                    "duration": 0.390625
                },
                {
                    "name": "G5",
                    "midi": 79,
                    "time": 167.192708333334,
                    "velocity": 0.36220472440944884,
                    "duration": 0.390625
                },
                {
                    "name": "D#5",
                    "midi": 75,
                    "time": 167.90625000000065,
                    "velocity": 0.30708661417322836,
                    "duration": 0.11458333333334281
                },
                {
                    "name": "C6",
                    "midi": 84,
                    "time": 167.911458333334,
                    "velocity": 0.3228346456692913,
                    "duration": 1.6145833333333428
                },
                {
                    "name": "B4",
                    "midi": 71,
                    "time": 167.91666666666734,
                    "velocity": 0.23622047244094488,
                    "duration": 0.125
                },
                {
                    "name": "F5",
                    "midi": 77,
                    "time": 168.26562500000068,
                    "velocity": 0.2755905511811024,
                    "duration": 0.109375
                },
                {
                    "name": "C#5",
                    "midi": 73,
                    "time": 168.26562500000068,
                    "velocity": 0.2204724409448819,
                    "duration": 0.11979166666665719
                },
                {
                    "name": "F#5",
                    "midi": 78,
                    "time": 168.74479166666734,
                    "velocity": 0.1968503937007874,
                    "duration": 0.796875
                },
                {
                    "name": "D5",
                    "midi": 74,
                    "time": 168.74479166666734,
                    "velocity": 0.16535433070866143,
                    "duration": 0.796875
                },
                {
                    "name": "B5",
                    "midi": 83,
                    "time": 170.47916666666734,
                    "velocity": 0.5196850393700787,
                    "duration": 0.421875
                },
                {
                    "name": "B4",
                    "midi": 71,
                    "time": 170.47916666666734,
                    "velocity": 0.3543307086614173,
                    "duration": 0.4322916666666572
                },
                {
                    "name": "G#5",
                    "midi": 80,
                    "time": 171.26562500000065,
                    "velocity": 0.44881889763779526,
                    "duration": 0.5260416666666856
                },
                {
                    "name": "G#4",
                    "midi": 68,
                    "time": 171.26562500000065,
                    "velocity": 0.2992125984251969,
                    "duration": 0.5052083333333428
                },
                {
                    "name": "G5",
                    "midi": 79,
                    "time": 172.177083333334,
                    "velocity": 0.4251968503937008,
                    "duration": 1.0572916666666572
                },
                {
                    "name": "G4",
                    "midi": 67,
                    "time": 172.18750000000065,
                    "velocity": 0.31496062992125984,
                    "duration": 1.015625
                },
                {
                    "name": "G#2",
                    "midi": 44,
                    "time": 172.3697916666673,
                    "velocity": 0.25984251968503935,
                    "duration": 0.2552083333333428
                },
                {
                    "name": "D3",
                    "midi": 50,
                    "time": 172.57812500000065,
                    "velocity": 0.28346456692913385,
                    "duration": 0.1770833333333428
                },
                {
                    "name": "F#3",
                    "midi": 54,
                    "time": 172.770833333334,
                    "velocity": 0.3464566929133858,
                    "duration": 0.1979166666666572
                },
                {
                    "name": "A3",
                    "midi": 57,
                    "time": 172.96875000000065,
                    "velocity": 0.3779527559055118,
                    "duration": 0.1875
                },
                {
                    "name": "A#3",
                    "midi": 58,
                    "time": 173.1822916666673,
                    "velocity": 0.41732283464566927,
                    "duration": 0.296875
                },
                {
                    "name": "B3",
                    "midi": 59,
                    "time": 173.4635416666673,
                    "velocity": 0.4409448818897638,
                    "duration": 0.27604166666662877
                },
                {
                    "name": "A5",
                    "midi": 81,
                    "time": 173.47395833333397,
                    "velocity": 0.4409448818897638,
                    "duration": 0.2291666666666572
                },
                {
                    "name": "A4",
                    "midi": 69,
                    "time": 173.4791666666673,
                    "velocity": 0.33858267716535434,
                    "duration": 0.23437499999997158
                },
                {
                    "name": "F5",
                    "midi": 77,
                    "time": 174.0312500000006,
                    "velocity": 0.5118110236220472,
                    "duration": 1.9166666666666856
                },
                {
                    "name": "A#2",
                    "midi": 46,
                    "time": 174.6250000000006,
                    "velocity": 0.5196850393700787,
                    "duration": 0.2708333333333428
                },
                {
                    "name": "A#1",
                    "midi": 34,
                    "time": 174.63020833333394,
                    "velocity": 0.4251968503937008,
                    "duration": 0.2604166666666572
                },
                {
                    "name": "A4",
                    "midi": 69,
                    "time": 174.63541666666728,
                    "velocity": 0.48031496062992124,
                    "duration": 1.3177083333333428
                },
                {
                    "name": "F4",
                    "midi": 65,
                    "time": 174.63541666666728,
                    "velocity": 0.44881889763779526,
                    "duration": 1.3229166666666856
                },
                {
                    "name": "D5",
                    "midi": 74,
                    "time": 174.63541666666728,
                    "velocity": 0.4409448818897638,
                    "duration": 1.3125
                },
                {
                    "name": "C#3",
                    "midi": 49,
                    "time": 175.22916666666728,
                    "velocity": 0.5905511811023622,
                    "duration": 1.3020833333333712
                },
                {
                    "name": "C#2",
                    "midi": 37,
                    "time": 175.22916666666728,
                    "velocity": 0.4881889763779528,
                    "duration": 1.3020833333333712
                },
                {
                    "name": "G#4",
                    "midi": 68,
                    "time": 176.23958333333397,
                    "velocity": 0.5039370078740157,
                    "duration": 1.244791666666714
                },
                {
                    "name": "E5",
                    "midi": 76,
                    "time": 176.23958333333397,
                    "velocity": 0.5590551181102362,
                    "duration": 1.244791666666714
                },
                {
                    "name": "C#5",
                    "midi": 73,
                    "time": 176.23958333333397,
                    "velocity": 0.5354330708661418,
                    "duration": 1.2500000000000568
                },
                {
                    "name": "C#2",
                    "midi": 37,
                    "time": 176.78125000000065,
                    "velocity": 0.5511811023622047,
                    "duration": 0.16666666666668561
                },
                {
                    "name": "C#3",
                    "midi": 49,
                    "time": 176.78125000000065,
                    "velocity": 0.6141732283464567,
                    "duration": 0.1770833333333428
                },
                {
                    "name": "E2",
                    "midi": 40,
                    "time": 177.28125000000065,
                    "velocity": 0.5748031496062992,
                    "duration": 1.1875000000000568
                },
                {
                    "name": "E3",
                    "midi": 52,
                    "time": 177.28125000000065,
                    "velocity": 0.6535433070866141,
                    "duration": 1.1927083333333997
                },
                {
                    "name": "G4",
                    "midi": 67,
                    "time": 178.16666666666737,
                    "velocity": 0.5669291338582677,
                    "duration": 1.6406250000000284
                },
                {
                    "name": "A4",
                    "midi": 69,
                    "time": 178.1718750000007,
                    "velocity": 0.5433070866141733,
                    "duration": 1.6406250000000284
                },
                {
                    "name": "F4",
                    "midi": 65,
                    "time": 178.1718750000007,
                    "velocity": 0.5433070866141733,
                    "duration": 1.6458333333333712
                },
                {
                    "name": "D#5",
                    "midi": 75,
                    "time": 178.1718750000007,
                    "velocity": 0.5196850393700787,
                    "duration": 1.682291666666714
                },
                {
                    "name": "D#3",
                    "midi": 51,
                    "time": 178.6822916666674,
                    "velocity": 0.6692913385826772,
                    "duration": 0.11979166666665719
                },
                {
                    "name": "D#2",
                    "midi": 39,
                    "time": 178.6822916666674,
                    "velocity": 0.6220472440944882,
                    "duration": 0.125
                },
                {
                    "name": "G2",
                    "midi": 43,
                    "time": 179.33333333333405,
                    "velocity": 0.5905511811023622,
                    "duration": 4.020833333333371
                },
                {
                    "name": "G3",
                    "midi": 55,
                    "time": 179.33333333333405,
                    "velocity": 0.7322834645669292,
                    "duration": 3.994791666666714
                },
                {
                    "name": "A#4",
                    "midi": 70,
                    "time": 180.39062500000077,
                    "velocity": 0.5984251968503937,
                    "duration": 6.703125000000057
                },
                {
                    "name": "F4",
                    "midi": 65,
                    "time": 180.3958333333341,
                    "velocity": 0.6456692913385826,
                    "duration": 1.09375
                },
                {
                    "name": "F#4",
                    "midi": 66,
                    "time": 180.3958333333341,
                    "velocity": 0.6299212598425197,
                    "duration": 6.692708333333371
                },
                {
                    "name": "D5",
                    "midi": 74,
                    "time": 180.3958333333341,
                    "velocity": 0.6220472440944882,
                    "duration": 6.697916666666714
                },
                {
                    "name": "D4",
                    "midi": 62,
                    "time": 181.66666666666745,
                    "velocity": 0.5354330708661418,
                    "duration": 0.3229166666666572
                },
                {
                    "name": "E4",
                    "midi": 64,
                    "time": 182.11979166666745,
                    "velocity": 0.5669291338582677,
                    "duration": 0.3020833333333428
                },
                {
                    "name": "D#4",
                    "midi": 63,
                    "time": 182.5937500000008,
                    "velocity": 0.5905511811023622,
                    "duration": 0.15625
                },
                {
                    "name": "F4",
                    "midi": 65,
                    "time": 183.15104166666745,
                    "velocity": 0.6062992125984252,
                    "duration": 1.1770833333333428
                },
                {
                    "name": "D#2",
                    "midi": 39,
                    "time": 183.60416666666742,
                    "velocity": 0.6062992125984252,
                    "duration": 0.14062500000002842
                },
                {
                    "name": "D#3",
                    "midi": 51,
                    "time": 183.60937500000077,
                    "velocity": 0.6771653543307087,
                    "duration": 0.14062500000002842
                },
                {
                    "name": "G2",
                    "midi": 43,
                    "time": 184.1875000000008,
                    "velocity": 0.5826771653543307,
                    "duration": 2.119791666666657
                },
                {
                    "name": "G3",
                    "midi": 55,
                    "time": 184.19270833333414,
                    "velocity": 0.6299212598425197,
                    "duration": 2.0937499999999716
                },
                {
                    "name": "D4",
                    "midi": 62,
                    "time": 184.6875000000008,
                    "velocity": 0.5984251968503937,
                    "duration": 0.21875
                },
                {
                    "name": "E4",
                    "midi": 64,
                    "time": 185.16666666666745,
                    "velocity": 0.5984251968503937,
                    "duration": 0.265625
                },
                {
                    "name": "D#4",
                    "midi": 63,
                    "time": 185.6406250000008,
                    "velocity": 0.6141732283464567,
                    "duration": 0.1302083333333428
                },
                {
                    "name": "F4",
                    "midi": 65,
                    "time": 186.1562500000008,
                    "velocity": 0.6456692913385826,
                    "duration": 0.2291666666666572
                },
                {
                    "name": "E4",
                    "midi": 64,
                    "time": 186.71354166666745,
                    "velocity": 0.6220472440944882,
                    "duration": 0.3697916666666856
                },
                {
                    "name": "D#2",
                    "midi": 39,
                    "time": 186.71354166666745,
                    "velocity": 0.5039370078740157,
                    "duration": 0.3177083333333428
                },
                {
                    "name": "D#3",
                    "midi": 51,
                    "time": 186.71354166666745,
                    "velocity": 0.5511811023622047,
                    "duration": 0.3177083333333428
                },
                {
                    "name": "D#4",
                    "midi": 63,
                    "time": 187.52083333333417,
                    "velocity": 0.5669291338582677,
                    "duration": 1.8020833333333428
                },
                {
                    "name": "G2",
                    "midi": 43,
                    "time": 187.52083333333417,
                    "velocity": 0.4015748031496063,
                    "duration": 1.578125
                },
                {
                    "name": "G3",
                    "midi": 55,
                    "time": 187.52083333333417,
                    "velocity": 0.4330708661417323,
                    "duration": 1.5833333333333428
                },
                {
                    "name": "D5",
                    "midi": 74,
                    "time": 187.5260416666675,
                    "velocity": 0.5275590551181102,
                    "duration": 1.8125
                },
                {
                    "name": "A#4",
                    "midi": 70,
                    "time": 187.5260416666675,
                    "velocity": 0.48031496062992124,
                    "duration": 1.8229166666666572
                },
                {
                    "name": "F#4",
                    "midi": 66,
                    "time": 187.5260416666675,
                    "velocity": 0.4881889763779528,
                    "duration": 1.8229166666666572
                },
                {
                    "name": "C#4",
                    "midi": 61,
                    "time": 190.53125000000082,
                    "velocity": 0.3464566929133858,
                    "duration": 19.02604166666663
                },
                {
                    "name": "D3",
                    "midi": 50,
                    "time": 190.54166666666748,
                    "velocity": 0.4251968503937008,
                    "duration": 19.067708333333314
                },
                {
                    "name": "B3",
                    "midi": 59,
                    "time": 190.54687500000082,
                    "velocity": 0.25196850393700787,
                    "duration": 1.4947916666666572
                },
                {
                    "name": "G#2",
                    "midi": 44,
                    "time": 191.30729166666748,
                    "velocity": 0.2204724409448819,
                    "duration": 6.598958333333286
                },
                {
                    "name": "A1",
                    "midi": 33,
                    "time": 191.32291666666748,
                    "velocity": 0.2204724409448819,
                    "duration": 11.7135416666666
                },
                {
                    "name": "A#3",
                    "midi": 58,
                    "time": 192.34375000000082,
                    "velocity": 0.31496062992125984,
                    "duration": 0.2135416666666572
                },
                {
                    "name": "A3",
                    "midi": 57,
                    "time": 192.88020833333414,
                    "velocity": 0.1889763779527559,
                    "duration": 0.5520833333333428
                },
                {
                    "name": "C4",
                    "midi": 60,
                    "time": 194.27604166666748,
                    "velocity": 0.23622047244094488,
                    "duration": 0.296875
                },
                {
                    "name": "G#3",
                    "midi": 56,
                    "time": 194.79166666666748,
                    "velocity": 0.1732283464566929,
                    "duration": 1.1770833333333144
                },
                {
                    "name": "G3",
                    "midi": 55,
                    "time": 195.80208333333414,
                    "velocity": 0.2204724409448819,
                    "duration": 1.3020833333333144
                },
                {
                    "name": "F#3",
                    "midi": 54,
                    "time": 197.5052083333341,
                    "velocity": 0.15748031496062992,
                    "duration": 10.286458333333343
                },
                {
                    "name": "G#2",
                    "midi": 44,
                    "time": 198.29166666666742,
                    "velocity": 0.2992125984251969,
                    "duration": 0.7135416666666572
                },
                {
                    "name": "F2",
                    "midi": 41,
                    "time": 199.51041666666742,
                    "velocity": 0.2047244094488189,
                    "duration": 0.7552083333333144
                },
                {
                    "name": "E2",
                    "midi": 40,
                    "time": 200.21875000000074,
                    "velocity": 0.1732283464566929,
                    "duration": 1.53125
                },
                {
                    "name": "G2",
                    "midi": 43,
                    "time": 201.64062500000074,
                    "velocity": 0.1732283464566929,
                    "duration": 5.067708333333371
                },
                {
                    "name": "D#2",
                    "midi": 39,
                    "time": 202.09375000000074,
                    "velocity": 0.1889763779527559,
                    "duration": 8.166666666666714
                },
                {
                    "name": "A1",
                    "midi": 33,
                    "time": 203.44270833333408,
                    "velocity": 0.1889763779527559,
                    "duration": 6.828125000000028
                },
                {
                    "name": "A3",
                    "midi": 57,
                    "time": 204.7552083333341,
                    "velocity": 0.23622047244094488,
                    "duration": 0.65625
                },
                {
                    "name": "G#3",
                    "midi": 56,
                    "time": 206.02604166666745,
                    "velocity": 0.25196850393700787,
                    "duration": 1.5625
                },
                {
                    "name": "G#2",
                    "midi": 44,
                    "time": 207.2552083333341,
                    "velocity": 0.15748031496062992,
                    "duration": 2.9791666666666856
                },
                {
                    "name": "B3",
                    "midi": 59,
                    "time": 207.85416666666745,
                    "velocity": 0.2677165354330709,
                    "duration": 1.7395833333333428
                },
                {
                    "name": "G3",
                    "midi": 55,
                    "time": 208.4531250000008,
                    "velocity": 0.2677165354330709,
                    "duration": 1.15625
                },
                {
                    "name": "F3",
                    "midi": 53,
                    "time": 210.9427083333341,
                    "velocity": 0.25196850393700787,
                    "duration": 1.828125
                },
                {
                    "name": "A2",
                    "midi": 45,
                    "time": 212.0677083333341,
                    "velocity": 0.25196850393700787,
                    "duration": 1.3333333333333428
                },
                {
                    "name": "A#1",
                    "midi": 34,
                    "time": 213.35416666666745,
                    "velocity": 0.2283464566929134,
                    "duration": 0.8072916666666572
                },
                {
                    "name": "E1",
                    "midi": 28,
                    "time": 215.20312500000077,
                    "velocity": 0.2283464566929134,
                    "duration": 3.494791666666657
                },
                {
                    "name": "E2",
                    "midi": 40,
                    "time": 215.20312500000077,
                    "velocity": 0.2992125984251969,
                    "duration": 3.369791666666657
                },
                {
                    "name": "D3",
                    "midi": 50,
                    "time": 220.87500000000077,
                    "velocity": 0.23622047244094488,
                    "duration": 0.5364583333333428
                },
                {
                    "name": "G#3",
                    "midi": 56,
                    "time": 220.87500000000077,
                    "velocity": 0.2047244094488189,
                    "duration": 0.6145833333333428
                },
                {
                    "name": "A2",
                    "midi": 45,
                    "time": 220.87500000000077,
                    "velocity": 0.23622047244094488,
                    "duration": 0.6041666666666856
                },
                {
                    "name": "D#1",
                    "midi": 27,
                    "time": 220.87500000000077,
                    "velocity": 0.18110236220472442,
                    "duration": 5.473958333333343
                },
                {
                    "name": "D#2",
                    "midi": 39,
                    "time": 220.8802083333341,
                    "velocity": 0.25196850393700787,
                    "duration": 5.453125
                }
            ],
            "controlChanges": {
                "64": [
                    {
                        "number": 64,
                        "time": 4.65625,
                        "value": 0
                    },
                    {
                        "number": 64,
                        "time": 9.786458333333334,
                        "value": 1
                    },
                    {
                        "number": 64,
                        "time": 10.145833333333336,
                        "value": 0
                    },
                    {
                        "number": 64,
                        "time": 10.406250000000002,
                        "value": 1
                    },
                    {
                        "number": 64,
                        "time": 10.734375000000002,
                        "value": 0
                    },
                    {
                        "number": 64,
                        "time": 11.260416666666668,
                        "value": 1
                    },
                    {
                        "number": 64,
                        "time": 12.005208333333336,
                        "value": 0
                    },
                    {
                        "number": 64,
                        "time": 12.35416666666667,
                        "value": 1
                    },
                    {
                        "number": 64,
                        "time": 12.906250000000004,
                        "value": 0
                    },
                    {
                        "number": 64,
                        "time": 13.187500000000004,
                        "value": 1
                    },
                    {
                        "number": 64,
                        "time": 13.68229166666667,
                        "value": 0
                    },
                    {
                        "number": 64,
                        "time": 14.598958333333337,
                        "value": 1
                    },
                    {
                        "number": 64,
                        "time": 15.031250000000004,
                        "value": 0
                    },
                    {
                        "number": 64,
                        "time": 15.07291666666667,
                        "value": 1
                    },
                    {
                        "number": 64,
                        "time": 15.520833333333336,
                        "value": 0
                    },
                    {
                        "number": 64,
                        "time": 15.656250000000002,
                        "value": 1
                    },
                    {
                        "number": 64,
                        "time": 15.937500000000002,
                        "value": 0
                    },
                    {
                        "number": 64,
                        "time": 16.005208333333336,
                        "value": 1
                    },
                    {
                        "number": 64,
                        "time": 16.328125000000004,
                        "value": 0
                    },
                    {
                        "number": 64,
                        "time": 16.46354166666667,
                        "value": 1
                    },
                    {
                        "number": 64,
                        "time": 16.786458333333336,
                        "value": 0
                    },
                    {
                        "number": 64,
                        "time": 17.255208333333336,
                        "value": 1
                    },
                    {
                        "number": 64,
                        "time": 17.760416666666668,
                        "value": 0
                    },
                    {
                        "number": 64,
                        "time": 18.244791666666668,
                        "value": 1
                    },
                    {
                        "number": 64,
                        "time": 18.588541666666668,
                        "value": 0
                    },
                    {
                        "number": 64,
                        "time": 18.666666666666668,
                        "value": 1
                    },
                    {
                        "number": 64,
                        "time": 19.192708333333336,
                        "value": 0
                    },
                    {
                        "number": 64,
                        "time": 19.645833333333336,
                        "value": 1
                    },
                    {
                        "number": 64,
                        "time": 20.072916666666668,
                        "value": 0
                    },
                    {
                        "number": 64,
                        "time": 20.125,
                        "value": 1
                    },
                    {
                        "number": 64,
                        "time": 20.5625,
                        "value": 0
                    },
                    {
                        "number": 64,
                        "time": 20.697916666666668,
                        "value": 1
                    },
                    {
                        "number": 64,
                        "time": 21.088541666666668,
                        "value": 0
                    },
                    {
                        "number": 64,
                        "time": 21.192708333333336,
                        "value": 1
                    },
                    {
                        "number": 64,
                        "time": 21.94791666666667,
                        "value": 0
                    },
                    {
                        "number": 64,
                        "time": 22.19791666666667,
                        "value": 1
                    },
                    {
                        "number": 64,
                        "time": 22.38541666666667,
                        "value": 0
                    },
                    {
                        "number": 64,
                        "time": 22.94270833333334,
                        "value": 1
                    },
                    {
                        "number": 64,
                        "time": 23.390625000000007,
                        "value": 0
                    },
                    {
                        "number": 64,
                        "time": 23.53645833333334,
                        "value": 1
                    },
                    {
                        "number": 64,
                        "time": 23.86979166666667,
                        "value": 0
                    },
                    {
                        "number": 64,
                        "time": 24.51041666666667,
                        "value": 1
                    },
                    {
                        "number": 64,
                        "time": 24.875000000000004,
                        "value": 0
                    },
                    {
                        "number": 64,
                        "time": 24.958333333333336,
                        "value": 1
                    },
                    {
                        "number": 64,
                        "time": 25.54166666666667,
                        "value": 0
                    },
                    {
                        "number": 64,
                        "time": 25.609375000000004,
                        "value": 1
                    },
                    {
                        "number": 64,
                        "time": 26.067708333333336,
                        "value": 0
                    },
                    {
                        "number": 64,
                        "time": 26.270833333333336,
                        "value": 1
                    },
                    {
                        "number": 64,
                        "time": 26.625000000000004,
                        "value": 0
                    },
                    {
                        "number": 64,
                        "time": 27.192708333333336,
                        "value": 1
                    },
                    {
                        "number": 64,
                        "time": 27.614583333333336,
                        "value": 0
                    },
                    {
                        "number": 64,
                        "time": 33.177083333333336,
                        "value": 1
                    },
                    {
                        "number": 64,
                        "time": 33.630208333333336,
                        "value": 0
                    },
                    {
                        "number": 64,
                        "time": 34.140625,
                        "value": 1
                    },
                    {
                        "number": 64,
                        "time": 34.31250000000001,
                        "value": 0
                    },
                    {
                        "number": 64,
                        "time": 36.83333333333334,
                        "value": 1
                    },
                    {
                        "number": 64,
                        "time": 37.17708333333334,
                        "value": 0
                    },
                    {
                        "number": 64,
                        "time": 38.64062500000002,
                        "value": 1
                    },
                    {
                        "number": 64,
                        "time": 38.81770833333336,
                        "value": 0
                    },
                    {
                        "number": 64,
                        "time": 39.17708333333336,
                        "value": 1
                    },
                    {
                        "number": 64,
                        "time": 39.73437500000002,
                        "value": 0
                    },
                    {
                        "number": 64,
                        "time": 42.03645833333336,
                        "value": 1
                    },
                    {
                        "number": 64,
                        "time": 42.59895833333336,
                        "value": 0
                    },
                    {
                        "number": 64,
                        "time": 42.81770833333336,
                        "value": 1
                    },
                    {
                        "number": 64,
                        "time": 43.026041666666686,
                        "value": 0
                    },
                    {
                        "number": 64,
                        "time": 43.81250000000002,
                        "value": 1
                    },
                    {
                        "number": 64,
                        "time": 44.60937500000001,
                        "value": 0
                    },
                    {
                        "number": 64,
                        "time": 44.64583333333334,
                        "value": 1
                    },
                    {
                        "number": 64,
                        "time": 45.57812500000001,
                        "value": 0
                    },
                    {
                        "number": 64,
                        "time": 49.098958333333336,
                        "value": 1
                    },
                    {
                        "number": 64,
                        "time": 49.46875,
                        "value": 0
                    },
                    {
                        "number": 64,
                        "time": 49.864583333333336,
                        "value": 1
                    },
                    {
                        "number": 64,
                        "time": 50.604166666666664,
                        "value": 0
                    },
                    {
                        "number": 64,
                        "time": 54.25,
                        "value": 1
                    },
                    {
                        "number": 64,
                        "time": 54.796875,
                        "value": 0
                    },
                    {
                        "number": 64,
                        "time": 54.880208333333336,
                        "value": 1
                    },
                    {
                        "number": 64,
                        "time": 55.713541666666664,
                        "value": 0
                    },
                    {
                        "number": 64,
                        "time": 56.973958333333336,
                        "value": 1
                    },
                    {
                        "number": 64,
                        "time": 57.27604166666667,
                        "value": 0
                    },
                    {
                        "number": 64,
                        "time": 57.42708333333334,
                        "value": 1
                    },
                    {
                        "number": 64,
                        "time": 57.75000000000001,
                        "value": 0
                    },
                    {
                        "number": 64,
                        "time": 57.90104166666667,
                        "value": 1
                    },
                    {
                        "number": 64,
                        "time": 58.76562500000001,
                        "value": 0
                    },
                    {
                        "number": 64,
                        "time": 59.286458333333336,
                        "value": 1
                    },
                    {
                        "number": 64,
                        "time": 60.34375,
                        "value": 0
                    },
                    {
                        "number": 64,
                        "time": 65.43229166666666,
                        "value": 1
                    },
                    {
                        "number": 64,
                        "time": 65.75520833333331,
                        "value": 0
                    },
                    {
                        "number": 64,
                        "time": 65.83854166666664,
                        "value": 1
                    },
                    {
                        "number": 64,
                        "time": 66.31770833333331,
                        "value": 0
                    },
                    {
                        "number": 64,
                        "time": 67.01562499999999,
                        "value": 1
                    },
                    {
                        "number": 64,
                        "time": 67.66666666666666,
                        "value": 0
                    },
                    {
                        "number": 64,
                        "time": 67.74479166666666,
                        "value": 1
                    },
                    {
                        "number": 64,
                        "time": 68.171875,
                        "value": 0
                    },
                    {
                        "number": 64,
                        "time": 68.27604166666667,
                        "value": 1
                    },
                    {
                        "number": 64,
                        "time": 68.640625,
                        "value": 0
                    },
                    {
                        "number": 64,
                        "time": 68.80729166666667,
                        "value": 1
                    },
                    {
                        "number": 64,
                        "time": 69.15625,
                        "value": 0
                    },
                    {
                        "number": 64,
                        "time": 69.88020833333334,
                        "value": 1
                    },
                    {
                        "number": 64,
                        "time": 70.33333333333334,
                        "value": 0
                    },
                    {
                        "number": 64,
                        "time": 72.16666666666667,
                        "value": 1
                    },
                    {
                        "number": 64,
                        "time": 72.88541666666666,
                        "value": 0
                    },
                    {
                        "number": 64,
                        "time": 73.05729166666666,
                        "value": 1
                    },
                    {
                        "number": 64,
                        "time": 73.80208333333333,
                        "value": 0
                    },
                    {
                        "number": 64,
                        "time": 74.38020833333333,
                        "value": 1
                    },
                    {
                        "number": 64,
                        "time": 74.96354166666667,
                        "value": 0
                    },
                    {
                        "number": 64,
                        "time": 75.05208333333334,
                        "value": 1
                    },
                    {
                        "number": 64,
                        "time": 75.96875000000001,
                        "value": 0
                    },
                    {
                        "number": 64,
                        "time": 76.66145833333334,
                        "value": 1
                    },
                    {
                        "number": 64,
                        "time": 77.12500000000001,
                        "value": 0
                    },
                    {
                        "number": 64,
                        "time": 77.38541666666669,
                        "value": 1
                    },
                    {
                        "number": 64,
                        "time": 77.45833333333336,
                        "value": 0
                    },
                    {
                        "number": 64,
                        "time": 78.10416666666669,
                        "value": 1
                    },
                    {
                        "number": 64,
                        "time": 78.79166666666669,
                        "value": 0
                    },
                    {
                        "number": 64,
                        "time": 81.09895833333334,
                        "value": 1
                    },
                    {
                        "number": 64,
                        "time": 81.83333333333333,
                        "value": 0
                    },
                    {
                        "number": 64,
                        "time": 81.890625,
                        "value": 1
                    },
                    {
                        "number": 64,
                        "time": 82.68229166666666,
                        "value": 0
                    },
                    {
                        "number": 64,
                        "time": 82.95833333333333,
                        "value": 1
                    },
                    {
                        "number": 64,
                        "time": 83.38541666666667,
                        "value": 0
                    },
                    {
                        "number": 64,
                        "time": 83.515625,
                        "value": 1
                    },
                    {
                        "number": 64,
                        "time": 84.109375,
                        "value": 0
                    },
                    {
                        "number": 64,
                        "time": 84.31770833333333,
                        "value": 1
                    },
                    {
                        "number": 64,
                        "time": 88.28645833333333,
                        "value": 0
                    },
                    {
                        "number": 64,
                        "time": 90.08333333333331,
                        "value": 1
                    },
                    {
                        "number": 64,
                        "time": 90.44791666666664,
                        "value": 0
                    },
                    {
                        "number": 64,
                        "time": 91.94791666666664,
                        "value": 1
                    },
                    {
                        "number": 64,
                        "time": 92.29687499999997,
                        "value": 0
                    },
                    {
                        "number": 64,
                        "time": 94.21874999999996,
                        "value": 1
                    },
                    {
                        "number": 64,
                        "time": 94.85416666666663,
                        "value": 0
                    },
                    {
                        "number": 64,
                        "time": 95.5052083333333,
                        "value": 1
                    },
                    {
                        "number": 64,
                        "time": 95.90104166666663,
                        "value": 0
                    },
                    {
                        "number": 64,
                        "time": 96.19791666666664,
                        "value": 1
                    },
                    {
                        "number": 64,
                        "time": 96.32812499999999,
                        "value": 0
                    },
                    {
                        "number": 64,
                        "time": 96.49479166666666,
                        "value": 1
                    },
                    {
                        "number": 64,
                        "time": 96.73958333333331,
                        "value": 0
                    },
                    {
                        "number": 64,
                        "time": 96.97395833333333,
                        "value": 1
                    },
                    {
                        "number": 64,
                        "time": 97.203125,
                        "value": 0
                    },
                    {
                        "number": 64,
                        "time": 98.49479166666666,
                        "value": 1
                    },
                    {
                        "number": 64,
                        "time": 98.81770833333333,
                        "value": 0
                    },
                    {
                        "number": 64,
                        "time": 99.41666666666666,
                        "value": 1
                    },
                    {
                        "number": 64,
                        "time": 99.71354166666667,
                        "value": 0
                    },
                    {
                        "number": 64,
                        "time": 100.59375,
                        "value": 1
                    },
                    {
                        "number": 64,
                        "time": 100.890625,
                        "value": 0
                    },
                    {
                        "number": 64,
                        "time": 101.296875,
                        "value": 1
                    },
                    {
                        "number": 64,
                        "time": 101.74479166666666,
                        "value": 0
                    },
                    {
                        "number": 64,
                        "time": 102.03125,
                        "value": 1
                    },
                    {
                        "number": 64,
                        "time": 102.52604166666666,
                        "value": 0
                    },
                    {
                        "number": 64,
                        "time": 103.13020833333331,
                        "value": 1
                    },
                    {
                        "number": 64,
                        "time": 103.23437499999999,
                        "value": 0
                    },
                    {
                        "number": 64,
                        "time": 104.01041666666666,
                        "value": 1
                    },
                    {
                        "number": 64,
                        "time": 104.11458333333333,
                        "value": 0
                    },
                    {
                        "number": 64,
                        "time": 105.03645833333333,
                        "value": 1
                    },
                    {
                        "number": 64,
                        "time": 105.94270833333333,
                        "value": 0
                    },
                    {
                        "number": 64,
                        "time": 106.94270833333333,
                        "value": 1
                    },
                    {
                        "number": 64,
                        "time": 107.27604166666667,
                        "value": 0
                    },
                    {
                        "number": 64,
                        "time": 107.68229166666667,
                        "value": 1
                    },
                    {
                        "number": 64,
                        "time": 108.59895833333334,
                        "value": 0
                    },
                    {
                        "number": 64,
                        "time": 110.50000000000001,
                        "value": 1
                    },
                    {
                        "number": 64,
                        "time": 110.98437500000003,
                        "value": 0
                    },
                    {
                        "number": 64,
                        "time": 111.06770833333336,
                        "value": 1
                    },
                    {
                        "number": 64,
                        "time": 111.47916666666669,
                        "value": 0
                    },
                    {
                        "number": 64,
                        "time": 111.53125000000003,
                        "value": 1
                    },
                    {
                        "number": 64,
                        "time": 112.03645833333336,
                        "value": 0
                    },
                    {
                        "number": 64,
                        "time": 114.03645833333337,
                        "value": 1
                    },
                    {
                        "number": 64,
                        "time": 114.20833333333337,
                        "value": 0
                    },
                    {
                        "number": 64,
                        "time": 114.93750000000004,
                        "value": 1
                    },
                    {
                        "number": 64,
                        "time": 115.35937500000004,
                        "value": 0
                    },
                    {
                        "number": 64,
                        "time": 115.60937500000004,
                        "value": 1
                    },
                    {
                        "number": 64,
                        "time": 115.90625000000006,
                        "value": 0
                    },
                    {
                        "number": 64,
                        "time": 115.94270833333339,
                        "value": 1
                    },
                    {
                        "number": 64,
                        "time": 116.11979166666673,
                        "value": 0
                    },
                    {
                        "number": 64,
                        "time": 116.43229166666673,
                        "value": 1
                    },
                    {
                        "number": 64,
                        "time": 117.02604166666674,
                        "value": 0
                    },
                    {
                        "number": 64,
                        "time": 117.21875000000009,
                        "value": 1
                    },
                    {
                        "number": 64,
                        "time": 117.3906250000001,
                        "value": 0
                    },
                    {
                        "number": 64,
                        "time": 117.39583333333343,
                        "value": 1
                    },
                    {
                        "number": 64,
                        "time": 117.55729166666677,
                        "value": 0
                    },
                    {
                        "number": 64,
                        "time": 117.57291666666677,
                        "value": 1
                    },
                    {
                        "number": 64,
                        "time": 117.7656250000001,
                        "value": 0
                    },
                    {
                        "number": 64,
                        "time": 117.83854166666677,
                        "value": 1
                    },
                    {
                        "number": 64,
                        "time": 118.2500000000001,
                        "value": 0
                    },
                    {
                        "number": 64,
                        "time": 118.2656250000001,
                        "value": 1
                    },
                    {
                        "number": 64,
                        "time": 118.81770833333343,
                        "value": 0
                    },
                    {
                        "number": 64,
                        "time": 118.94791666666676,
                        "value": 1
                    },
                    {
                        "number": 64,
                        "time": 119.12500000000009,
                        "value": 0
                    },
                    {
                        "number": 64,
                        "time": 119.14062500000009,
                        "value": 1
                    },
                    {
                        "number": 64,
                        "time": 119.6145833333334,
                        "value": 0
                    },
                    {
                        "number": 64,
                        "time": 119.87500000000007,
                        "value": 1
                    },
                    {
                        "number": 64,
                        "time": 120.2552083333334,
                        "value": 0
                    },
                    {
                        "number": 64,
                        "time": 120.7239583333334,
                        "value": 1
                    },
                    {
                        "number": 64,
                        "time": 121.28645833333339,
                        "value": 0
                    },
                    {
                        "number": 64,
                        "time": 121.31250000000006,
                        "value": 1
                    },
                    {
                        "number": 64,
                        "time": 122.18229166666671,
                        "value": 0
                    },
                    {
                        "number": 64,
                        "time": 122.32812500000004,
                        "value": 1
                    },
                    {
                        "number": 64,
                        "time": 122.8229166666667,
                        "value": 0
                    },
                    {
                        "number": 64,
                        "time": 122.91145833333336,
                        "value": 1
                    },
                    {
                        "number": 64,
                        "time": 122.99479166666669,
                        "value": 0
                    },
                    {
                        "number": 64,
                        "time": 123.05208333333336,
                        "value": 1
                    },
                    {
                        "number": 64,
                        "time": 123.40104166666669,
                        "value": 0
                    },
                    {
                        "number": 64,
                        "time": 123.42187500000001,
                        "value": 1
                    },
                    {
                        "number": 64,
                        "time": 123.91666666666669,
                        "value": 0
                    },
                    {
                        "number": 64,
                        "time": 124.09375000000001,
                        "value": 1
                    },
                    {
                        "number": 64,
                        "time": 124.27083333333334,
                        "value": 0
                    },
                    {
                        "number": 64,
                        "time": 124.29166666666667,
                        "value": 1
                    },
                    {
                        "number": 64,
                        "time": 124.71875,
                        "value": 0
                    },
                    {
                        "number": 64,
                        "time": 124.765625,
                        "value": 1
                    },
                    {
                        "number": 64,
                        "time": 125.12499999999999,
                        "value": 0
                    },
                    {
                        "number": 64,
                        "time": 125.86458333333331,
                        "value": 1
                    },
                    {
                        "number": 64,
                        "time": 126.11979166666664,
                        "value": 0
                    },
                    {
                        "number": 64,
                        "time": 126.55729166666664,
                        "value": 1
                    },
                    {
                        "number": 64,
                        "time": 126.90104166666664,
                        "value": 0
                    },
                    {
                        "number": 64,
                        "time": 127.05208333333331,
                        "value": 1
                    },
                    {
                        "number": 64,
                        "time": 127.15624999999999,
                        "value": 0
                    },
                    {
                        "number": 64,
                        "time": 127.56770833333333,
                        "value": 1
                    },
                    {
                        "number": 64,
                        "time": 127.859375,
                        "value": 0
                    },
                    {
                        "number": 64,
                        "time": 129.28125,
                        "value": 1
                    },
                    {
                        "number": 64,
                        "time": 129.58333333333334,
                        "value": 0
                    },
                    {
                        "number": 64,
                        "time": 130.40625000000006,
                        "value": 1
                    },
                    {
                        "number": 64,
                        "time": 130.5052083333334,
                        "value": 0
                    },
                    {
                        "number": 64,
                        "time": 130.73958333333343,
                        "value": 1
                    },
                    {
                        "number": 64,
                        "time": 130.88020833333346,
                        "value": 0
                    },
                    {
                        "number": 64,
                        "time": 130.97395833333346,
                        "value": 1
                    },
                    {
                        "number": 64,
                        "time": 131.17708333333346,
                        "value": 0
                    },
                    {
                        "number": 64,
                        "time": 131.7916666666668,
                        "value": 1
                    },
                    {
                        "number": 64,
                        "time": 131.95312500000017,
                        "value": 0
                    },
                    {
                        "number": 64,
                        "time": 132.0520833333335,
                        "value": 1
                    },
                    {
                        "number": 64,
                        "time": 132.24479166666686,
                        "value": 0
                    },
                    {
                        "number": 64,
                        "time": 132.43750000000017,
                        "value": 1
                    },
                    {
                        "number": 64,
                        "time": 132.76041666666686,
                        "value": 0
                    },
                    {
                        "number": 64,
                        "time": 132.9375000000002,
                        "value": 1
                    },
                    {
                        "number": 64,
                        "time": 133.2395833333335,
                        "value": 0
                    },
                    {
                        "number": 64,
                        "time": 133.35416666666686,
                        "value": 1
                    },
                    {
                        "number": 64,
                        "time": 133.8020833333335,
                        "value": 0
                    },
                    {
                        "number": 64,
                        "time": 133.85416666666686,
                        "value": 1
                    },
                    {
                        "number": 64,
                        "time": 133.9427083333335,
                        "value": 0
                    },
                    {
                        "number": 64,
                        "time": 133.96354166666686,
                        "value": 1
                    },
                    {
                        "number": 64,
                        "time": 134.05729166666688,
                        "value": 0
                    },
                    {
                        "number": 64,
                        "time": 134.07291666666688,
                        "value": 1
                    },
                    {
                        "number": 64,
                        "time": 134.34895833333357,
                        "value": 0
                    },
                    {
                        "number": 64,
                        "time": 134.54687500000023,
                        "value": 1
                    },
                    {
                        "number": 64,
                        "time": 134.96875000000023,
                        "value": 0
                    },
                    {
                        "number": 64,
                        "time": 135.19270833333357,
                        "value": 1
                    },
                    {
                        "number": 64,
                        "time": 135.3541666666669,
                        "value": 0
                    },
                    {
                        "number": 64,
                        "time": 135.67708333333357,
                        "value": 1
                    },
                    {
                        "number": 64,
                        "time": 136.09375000000023,
                        "value": 0
                    },
                    {
                        "number": 64,
                        "time": 136.1822916666669,
                        "value": 1
                    },
                    {
                        "number": 64,
                        "time": 136.2864583333336,
                        "value": 0
                    },
                    {
                        "number": 64,
                        "time": 136.3177083333336,
                        "value": 1
                    },
                    {
                        "number": 64,
                        "time": 136.42187500000026,
                        "value": 0
                    },
                    {
                        "number": 64,
                        "time": 136.43750000000026,
                        "value": 1
                    },
                    {
                        "number": 64,
                        "time": 136.5572916666669,
                        "value": 0
                    },
                    {
                        "number": 64,
                        "time": 136.58333333333357,
                        "value": 1
                    },
                    {
                        "number": 64,
                        "time": 136.75000000000023,
                        "value": 0
                    },
                    {
                        "number": 64,
                        "time": 136.86458333333357,
                        "value": 1
                    },
                    {
                        "number": 64,
                        "time": 137.17708333333357,
                        "value": 0
                    },
                    {
                        "number": 64,
                        "time": 137.25000000000023,
                        "value": 1
                    },
                    {
                        "number": 64,
                        "time": 137.38541666666694,
                        "value": 0
                    },
                    {
                        "number": 64,
                        "time": 137.7552083333336,
                        "value": 1
                    },
                    {
                        "number": 64,
                        "time": 137.94791666666694,
                        "value": 0
                    },
                    {
                        "number": 64,
                        "time": 138.1927083333336,
                        "value": 1
                    },
                    {
                        "number": 64,
                        "time": 138.25000000000026,
                        "value": 0
                    },
                    {
                        "number": 64,
                        "time": 138.2864583333336,
                        "value": 1
                    },
                    {
                        "number": 64,
                        "time": 138.7135416666669,
                        "value": 0
                    },
                    {
                        "number": 64,
                        "time": 138.7604166666669,
                        "value": 1
                    },
                    {
                        "number": 64,
                        "time": 138.98958333333357,
                        "value": 0
                    },
                    {
                        "number": 64,
                        "time": 139.0416666666669,
                        "value": 1
                    },
                    {
                        "number": 64,
                        "time": 139.27604166666694,
                        "value": 0
                    },
                    {
                        "number": 64,
                        "time": 139.3645833333336,
                        "value": 1
                    },
                    {
                        "number": 64,
                        "time": 139.70312500000026,
                        "value": 0
                    },
                    {
                        "number": 64,
                        "time": 139.98437500000028,
                        "value": 1
                    },
                    {
                        "number": 64,
                        "time": 140.27083333333363,
                        "value": 0
                    },
                    {
                        "number": 64,
                        "time": 140.36458333333363,
                        "value": 1
                    },
                    {
                        "number": 64,
                        "time": 140.83854166666697,
                        "value": 0
                    },
                    {
                        "number": 64,
                        "time": 140.88020833333366,
                        "value": 1
                    },
                    {
                        "number": 64,
                        "time": 141.14583333333368,
                        "value": 0
                    },
                    {
                        "number": 64,
                        "time": 141.20833333333368,
                        "value": 1
                    },
                    {
                        "number": 64,
                        "time": 141.51041666666703,
                        "value": 0
                    },
                    {
                        "number": 64,
                        "time": 141.57291666666706,
                        "value": 1
                    },
                    {
                        "number": 64,
                        "time": 141.97395833333374,
                        "value": 0
                    },
                    {
                        "number": 64,
                        "time": 142.02083333333374,
                        "value": 1
                    },
                    {
                        "number": 64,
                        "time": 142.37500000000043,
                        "value": 0
                    },
                    {
                        "number": 64,
                        "time": 142.40625000000043,
                        "value": 1
                    },
                    {
                        "number": 64,
                        "time": 142.7239583333338,
                        "value": 0
                    },
                    {
                        "number": 64,
                        "time": 142.75000000000045,
                        "value": 1
                    },
                    {
                        "number": 64,
                        "time": 143.3645833333338,
                        "value": 0
                    },
                    {
                        "number": 64,
                        "time": 143.54687500000048,
                        "value": 1
                    },
                    {
                        "number": 64,
                        "time": 143.63541666666717,
                        "value": 0
                    },
                    {
                        "number": 64,
                        "time": 144.27083333333383,
                        "value": 1
                    },
                    {
                        "number": 64,
                        "time": 145.73958333333383,
                        "value": 0
                    },
                    {
                        "number": 64,
                        "time": 145.92187500000048,
                        "value": 1
                    },
                    {
                        "number": 64,
                        "time": 148.87500000000045,
                        "value": 0
                    },
                    {
                        "number": 64,
                        "time": 148.92187500000045,
                        "value": 1
                    },
                    {
                        "number": 64,
                        "time": 149.64062500000043,
                        "value": 0
                    },
                    {
                        "number": 64,
                        "time": 149.67708333333374,
                        "value": 1
                    },
                    {
                        "number": 64,
                        "time": 149.98958333333374,
                        "value": 0
                    },
                    {
                        "number": 64,
                        "time": 150.02604166666708,
                        "value": 1
                    },
                    {
                        "number": 64,
                        "time": 150.33854166666706,
                        "value": 0
                    },
                    {
                        "number": 64,
                        "time": 150.38541666666706,
                        "value": 1
                    },
                    {
                        "number": 64,
                        "time": 150.6302083333337,
                        "value": 0
                    },
                    {
                        "number": 64,
                        "time": 150.68229166666703,
                        "value": 1
                    },
                    {
                        "number": 64,
                        "time": 151.03125000000037,
                        "value": 0
                    },
                    {
                        "number": 64,
                        "time": 151.11458333333368,
                        "value": 1
                    },
                    {
                        "number": 64,
                        "time": 151.36979166666703,
                        "value": 0
                    },
                    {
                        "number": 64,
                        "time": 151.40625000000037,
                        "value": 1
                    },
                    {
                        "number": 64,
                        "time": 152.09895833333368,
                        "value": 0
                    },
                    {
                        "number": 64,
                        "time": 152.16145833333368,
                        "value": 1
                    },
                    {
                        "number": 64,
                        "time": 152.85416666666703,
                        "value": 0
                    },
                    {
                        "number": 64,
                        "time": 152.89062500000037,
                        "value": 1
                    },
                    {
                        "number": 64,
                        "time": 153.33333333333368,
                        "value": 0
                    },
                    {
                        "number": 64,
                        "time": 154.14583333333368,
                        "value": 1
                    },
                    {
                        "number": 64,
                        "time": 155.54166666666703,
                        "value": 0
                    },
                    {
                        "number": 64,
                        "time": 155.55729166666703,
                        "value": 1
                    },
                    {
                        "number": 64,
                        "time": 155.72916666666703,
                        "value": 0
                    },
                    {
                        "number": 64,
                        "time": 155.76562500000037,
                        "value": 1
                    },
                    {
                        "number": 64,
                        "time": 155.9583333333337,
                        "value": 0
                    },
                    {
                        "number": 64,
                        "time": 155.99479166666706,
                        "value": 1
                    },
                    {
                        "number": 64,
                        "time": 156.16666666666706,
                        "value": 0
                    },
                    {
                        "number": 64,
                        "time": 156.19791666666706,
                        "value": 1
                    },
                    {
                        "number": 64,
                        "time": 156.3906250000004,
                        "value": 0
                    },
                    {
                        "number": 64,
                        "time": 156.4218750000004,
                        "value": 1
                    },
                    {
                        "number": 64,
                        "time": 156.69791666666706,
                        "value": 0
                    },
                    {
                        "number": 64,
                        "time": 157.5468750000004,
                        "value": 1
                    },
                    {
                        "number": 64,
                        "time": 158.10416666666706,
                        "value": 0
                    },
                    {
                        "number": 64,
                        "time": 158.1718750000004,
                        "value": 1
                    },
                    {
                        "number": 64,
                        "time": 158.5312500000004,
                        "value": 0
                    },
                    {
                        "number": 64,
                        "time": 159.64062500000045,
                        "value": 1
                    },
                    {
                        "number": 64,
                        "time": 159.79687500000045,
                        "value": 0
                    },
                    {
                        "number": 64,
                        "time": 159.8229166666671,
                        "value": 1
                    },
                    {
                        "number": 64,
                        "time": 160.34895833333377,
                        "value": 0
                    },
                    {
                        "number": 64,
                        "time": 160.41666666666714,
                        "value": 1
                    },
                    {
                        "number": 64,
                        "time": 160.49479166666714,
                        "value": 0
                    },
                    {
                        "number": 64,
                        "time": 160.51041666666714,
                        "value": 1
                    },
                    {
                        "number": 64,
                        "time": 160.9322916666671,
                        "value": 0
                    },
                    {
                        "number": 64,
                        "time": 161.80208333333377,
                        "value": 1
                    },
                    {
                        "number": 64,
                        "time": 161.9010416666671,
                        "value": 0
                    },
                    {
                        "number": 64,
                        "time": 162.3333333333338,
                        "value": 1
                    },
                    {
                        "number": 64,
                        "time": 162.42187500000048,
                        "value": 0
                    },
                    {
                        "number": 64,
                        "time": 162.45312500000048,
                        "value": 1
                    },
                    {
                        "number": 64,
                        "time": 162.63020833333383,
                        "value": 0
                    },
                    {
                        "number": 64,
                        "time": 162.77604166666717,
                        "value": 1
                    },
                    {
                        "number": 64,
                        "time": 162.9687500000005,
                        "value": 0
                    },
                    {
                        "number": 64,
                        "time": 163.0000000000005,
                        "value": 1
                    },
                    {
                        "number": 64,
                        "time": 163.46875000000054,
                        "value": 0
                    },
                    {
                        "number": 64,
                        "time": 164.46354166666723,
                        "value": 1
                    },
                    {
                        "number": 64,
                        "time": 164.49479166666723,
                        "value": 0
                    },
                    {
                        "number": 64,
                        "time": 165.55729166666725,
                        "value": 1
                    },
                    {
                        "number": 64,
                        "time": 165.91666666666728,
                        "value": 0
                    },
                    {
                        "number": 64,
                        "time": 166.39583333333397,
                        "value": 1
                    },
                    {
                        "number": 64,
                        "time": 166.5104166666673,
                        "value": 0
                    },
                    {
                        "number": 64,
                        "time": 166.7447916666673,
                        "value": 1
                    },
                    {
                        "number": 64,
                        "time": 166.81250000000065,
                        "value": 0
                    },
                    {
                        "number": 64,
                        "time": 166.880208333334,
                        "value": 1
                    },
                    {
                        "number": 64,
                        "time": 167.05729166666734,
                        "value": 0
                    },
                    {
                        "number": 64,
                        "time": 168.41666666666734,
                        "value": 1
                    },
                    {
                        "number": 64,
                        "time": 168.770833333334,
                        "value": 0
                    },
                    {
                        "number": 64,
                        "time": 170.895833333334,
                        "value": 1
                    },
                    {
                        "number": 64,
                        "time": 171.302083333334,
                        "value": 0
                    },
                    {
                        "number": 64,
                        "time": 171.67187500000065,
                        "value": 1
                    },
                    {
                        "number": 64,
                        "time": 172.2135416666673,
                        "value": 0
                    },
                    {
                        "number": 64,
                        "time": 173.15625000000065,
                        "value": 1
                    },
                    {
                        "number": 64,
                        "time": 173.53645833333397,
                        "value": 0
                    },
                    {
                        "number": 64,
                        "time": 173.65625000000063,
                        "value": 1
                    },
                    {
                        "number": 64,
                        "time": 174.06770833333394,
                        "value": 0
                    },
                    {
                        "number": 64,
                        "time": 174.1562500000006,
                        "value": 1
                    },
                    {
                        "number": 64,
                        "time": 174.66666666666728,
                        "value": 0
                    },
                    {
                        "number": 64,
                        "time": 174.77083333333394,
                        "value": 1
                    },
                    {
                        "number": 64,
                        "time": 175.26041666666728,
                        "value": 0
                    },
                    {
                        "number": 64,
                        "time": 175.86458333333394,
                        "value": 1
                    },
                    {
                        "number": 64,
                        "time": 176.2604166666673,
                        "value": 0
                    },
                    {
                        "number": 64,
                        "time": 176.34375000000065,
                        "value": 1
                    },
                    {
                        "number": 64,
                        "time": 176.786458333334,
                        "value": 0
                    },
                    {
                        "number": 64,
                        "time": 176.85416666666734,
                        "value": 1
                    },
                    {
                        "number": 64,
                        "time": 177.302083333334,
                        "value": 0
                    },
                    {
                        "number": 64,
                        "time": 177.41666666666734,
                        "value": 1
                    },
                    {
                        "number": 64,
                        "time": 178.19791666666737,
                        "value": 0
                    },
                    {
                        "number": 64,
                        "time": 178.3125000000007,
                        "value": 1
                    },
                    {
                        "number": 64,
                        "time": 178.69270833333405,
                        "value": 0
                    },
                    {
                        "number": 64,
                        "time": 178.72395833333405,
                        "value": 1
                    },
                    {
                        "number": 64,
                        "time": 179.3697916666674,
                        "value": 0
                    },
                    {
                        "number": 64,
                        "time": 179.77083333333405,
                        "value": 1
                    },
                    {
                        "number": 64,
                        "time": 180.40104166666745,
                        "value": 0
                    },
                    {
                        "number": 64,
                        "time": 181.35416666666745,
                        "value": 1
                    },
                    {
                        "number": 64,
                        "time": 181.6770833333341,
                        "value": 0
                    },
                    {
                        "number": 64,
                        "time": 181.83854166666745,
                        "value": 1
                    },
                    {
                        "number": 64,
                        "time": 182.1302083333341,
                        "value": 0
                    },
                    {
                        "number": 64,
                        "time": 182.22916666666745,
                        "value": 1
                    },
                    {
                        "number": 64,
                        "time": 182.60416666666745,
                        "value": 0
                    },
                    {
                        "number": 64,
                        "time": 182.68229166666745,
                        "value": 1
                    },
                    {
                        "number": 64,
                        "time": 183.18229166666745,
                        "value": 0
                    },
                    {
                        "number": 64,
                        "time": 183.2395833333341,
                        "value": 1
                    },
                    {
                        "number": 64,
                        "time": 183.6145833333341,
                        "value": 0
                    },
                    {
                        "number": 64,
                        "time": 183.6770833333341,
                        "value": 1
                    },
                    {
                        "number": 64,
                        "time": 184.2187500000008,
                        "value": 0
                    },
                    {
                        "number": 64,
                        "time": 184.30208333333414,
                        "value": 1
                    },
                    {
                        "number": 64,
                        "time": 184.70833333333414,
                        "value": 0
                    },
                    {
                        "number": 64,
                        "time": 184.78645833333414,
                        "value": 1
                    },
                    {
                        "number": 64,
                        "time": 185.1927083333341,
                        "value": 0
                    },
                    {
                        "number": 64,
                        "time": 185.26041666666745,
                        "value": 1
                    },
                    {
                        "number": 64,
                        "time": 185.66666666666745,
                        "value": 0
                    },
                    {
                        "number": 64,
                        "time": 185.7343750000008,
                        "value": 1
                    },
                    {
                        "number": 64,
                        "time": 186.16666666666745,
                        "value": 0
                    },
                    {
                        "number": 64,
                        "time": 186.2083333333341,
                        "value": 1
                    },
                    {
                        "number": 64,
                        "time": 186.7395833333341,
                        "value": 0
                    },
                    {
                        "number": 64,
                        "time": 186.80729166666745,
                        "value": 1
                    },
                    {
                        "number": 64,
                        "time": 187.53645833333417,
                        "value": 0
                    },
                    {
                        "number": 64,
                        "time": 188.7135416666675,
                        "value": 1
                    },
                    {
                        "number": 64,
                        "time": 189.75520833333417,
                        "value": 0
                    },
                    {
                        "number": 64,
                        "time": 191.95312500000082,
                        "value": 1
                    },
                    {
                        "number": 64,
                        "time": 192.34375000000082,
                        "value": 0
                    },
                    {
                        "number": 64,
                        "time": 192.44791666666748,
                        "value": 1
                    },
                    {
                        "number": 64,
                        "time": 192.9218750000008,
                        "value": 0
                    },
                    {
                        "number": 64,
                        "time": 193.09895833333414,
                        "value": 1
                    },
                    {
                        "number": 64,
                        "time": 194.79166666666748,
                        "value": 0
                    },
                    {
                        "number": 64,
                        "time": 194.84895833333414,
                        "value": 1
                    },
                    {
                        "number": 64,
                        "time": 195.26041666666748,
                        "value": 0
                    },
                    {
                        "number": 64,
                        "time": 196.88541666666745,
                        "value": 1
                    },
                    {
                        "number": 64,
                        "time": 197.5520833333341,
                        "value": 0
                    },
                    {
                        "number": 64,
                        "time": 197.81250000000077,
                        "value": 1
                    },
                    {
                        "number": 64,
                        "time": 198.34895833333408,
                        "value": 0
                    },
                    {
                        "number": 64,
                        "time": 198.86979166666742,
                        "value": 1
                    },
                    {
                        "number": 64,
                        "time": 199.61458333333408,
                        "value": 0
                    },
                    {
                        "number": 64,
                        "time": 201.3385416666674,
                        "value": 1
                    },
                    {
                        "number": 64,
                        "time": 202.16145833333408,
                        "value": 0
                    },
                    {
                        "number": 64,
                        "time": 202.70312500000074,
                        "value": 1
                    },
                    {
                        "number": 64,
                        "time": 203.46354166666742,
                        "value": 0
                    },
                    {
                        "number": 64,
                        "time": 203.67187500000077,
                        "value": 1
                    },
                    {
                        "number": 64,
                        "time": 204.82291666666745,
                        "value": 0
                    },
                    {
                        "number": 64,
                        "time": 205.3020833333341,
                        "value": 1
                    },
                    {
                        "number": 64,
                        "time": 206.0833333333341,
                        "value": 0
                    },
                    {
                        "number": 64,
                        "time": 206.54166666666745,
                        "value": 1
                    },
                    {
                        "number": 64,
                        "time": 207.29166666666745,
                        "value": 0
                    },
                    {
                        "number": 64,
                        "time": 207.3906250000008,
                        "value": 1
                    },
                    {
                        "number": 64,
                        "time": 212.0208333333341,
                        "value": 0
                    },
                    {
                        "number": 64,
                        "time": 212.31250000000077,
                        "value": 1
                    },
                    {
                        "number": 64,
                        "time": 214.4270833333341,
                        "value": 0
                    },
                    {
                        "number": 64,
                        "time": 218.18750000000077,
                        "value": 1
                    },
                    {
                        "number": 64,
                        "time": 221.4427083333341,
                        "value": 0
                    }
                ],
                "67": [
                    {
                        "number": 67,
                        "time": 37.61458333333334,
                        "value": 1
                    },
                    {
                        "number": 67,
                        "time": 43.307291666666686,
                        "value": 0
                    }
                ],
                "91": [
                    {
                        "number": 91,
                        "time": 0,
                        "value": 0.4330708661417323
                    },
                    {
                        "number": 91,
                        "time": 0.005208333333333333,
                        "value": 0.4330708661417323
                    },
                    {
                        "number": 91,
                        "time": 4.65625,
                        "value": 0.4330708661417323
                    }
                ],
                "121": [
                    {
                        "number": 121,
                        "time": 0,
                        "value": 0
                    },
                    {
                        "number": 121,
                        "time": 0,
                        "value": 0
                    },
                    {
                        "number": 121,
                        "time": 4.65625,
                        "value": 1
                    }
                ]
            },
            "id": 1,
            "name": "...",
            "channelNumber": 0,
            "isPercussion": false
        },
        {
            "startTime": 0,
            "duration": 0,
            "length": 0,
            "notes": [],
            "controlChanges": {},
            "id": 2,
            "name": "Arnold Schönberg's Drei Klavierstucke, op. 11"
        },
        {
            "startTime": 0,
            "duration": 0,
            "length": 0,
            "notes": [],
            "controlChanges": {},
            "id": 3,
            "name": "(It's necessary to play the mute chord on the 14th m.)"
        },
        {
            "startTime": 0,
            "duration": 0,
            "length": 0,
            "notes": [],
            "controlChanges": {},
            "id": 4,
            "name": "..."
        },
        {
            "startTime": 0,
            "duration": 0,
            "length": 0,
            "notes": [],
            "controlChanges": {},
            "id": 5,
            "name": "Live on MIDI support by Alessandro Simonetto"
        },
        {
            "startTime": 0,
            "duration": 0,
            "length": 0,
            "notes": [],
            "controlChanges": {},
            "id": 6,
            "name": "Info: ® onclassical.com (by the Author)"
        },
        {
            "startTime": 0,
            "duration": 0,
            "length": 0,
            "notes": [],
            "controlChanges": {},
            "id": 7,
            "name": "A. Simonetto,  © 2003. All rights reserved."
        },
        {
            "startTime": 0,
            "duration": 0,
            "length": 0,
            "notes": [],
            "controlChanges": {},
            "id": 8,
            "name": "..."
        },
        {
            "startTime": 0,
            "duration": 0,
            "length": 0,
            "notes": [],
            "controlChanges": {},
            "id": 9,
            "name": "This file sounds better with Steinberg \"the Grand\""
        },
        {
            "startTime": 0,
            "duration": 0,
            "length": 0,
            "notes": [],
            "controlChanges": {},
            "id": 10
        },
        {
            "startTime": 0,
            "duration": 0,
            "length": 0,
            "notes": [],
            "controlChanges": {},
            "id": 11
        },
        {
            "startTime": 0,
            "duration": 0,
            "length": 0,
            "notes": [],
            "controlChanges": {},
            "id": 12
        },
        {
            "startTime": 0,
            "duration": 0,
            "length": 0,
            "notes": [],
            "controlChanges": {},
            "id": 13
        },
        {
            "startTime": 0,
            "duration": 0,
            "length": 0,
            "notes": [],
            "controlChanges": {},
            "id": 14
        },
        {
            "startTime": 0,
            "duration": 0,
            "length": 0,
            "notes": [],
            "controlChanges": {},
            "id": 15
        },
        {
            "startTime": 0,
            "duration": 0,
            "length": 0,
            "notes": [],
            "controlChanges": {},
            "id": 16
        },
        {
            "startTime": 0,
            "duration": 0,
            "length": 0,
            "notes": [],
            "controlChanges": {},
            "id": 17
        }
    ]
}