{
    "header": {
        "PPQ": 384,
        "timeSignature": [
            4,
            4
        ],
        "bpm": 120,
        "name": "Arnold Schönberg's Drei Klavierstucke, op. 11"
    },
    "startTime": 0,
    "duration": 142.7968749999995,
    "tracks": [
        {
            "startTime": 0,
            "duration": 0,
            "length": 0,
            "notes": [],
            "controlChanges": {},
            "id": 0
        },
        {
            "startTime": 3.463541666666667,
            "duration": 142.7968749999995,
            "length": 873,
            "notes": [
                {
                    "name": "A2",
                    "midi": 45,
                    "time": 3.463541666666667,
                    "velocity": 0.8740157480314961,
                    "duration": 0.328125
                },
                {
                    "name": "A3",
                    "midi": 57,
                    "time": 3.4687500000000004,
                    "velocity": 0.8740157480314961,
                    "duration": 0.328125
                },
                {
                    "name": "E5",
                    "midi": 76,
                    "time": 3.822916666666667,
                    "velocity": 0.8661417322834646,
                    "duration": 0.8281249999999991
                },
                {
                    "name": "C#4",
                    "midi": 61,
                    "time": 3.822916666666667,
                    "velocity": 0.7559055118110236,
                    "duration": 0.28645833333333304
                },
                {
                    "name": "C5",
                    "midi": 72,
                    "time": 3.838541666666667,
                    "velocity": 0.889763779527559,
                    "duration": 0.7916666666666661
                },
                {
                    "name": "G#3",
                    "midi": 56,
                    "time": 3.838541666666667,
                    "velocity": 0.6771653543307087,
                    "duration": 0.22395833333333304
                },
                {
                    "name": "G#2",
                    "midi": 44,
                    "time": 3.838541666666667,
                    "velocity": 0.7795275590551181,
                    "duration": 0.25
                },
                {
                    "name": "D#4",
                    "midi": 63,
                    "time": 4.145833333333333,
                    "velocity": 0.8740157480314961,
                    "duration": 0.24479166666666696
                },
                {
                    "name": "D2",
                    "midi": 38,
                    "time": 4.145833333333333,
                    "velocity": 0.7795275590551181,
                    "duration": 0.27604166666666696
                },
                {
                    "name": "D3",
                    "midi": 50,
                    "time": 4.145833333333333,
                    "velocity": 0.84251968503937,
                    "duration": 0.265625
                },
                {
                    "name": "F#4",
                    "midi": 66,
                    "time": 4.458333333333333,
                    "velocity": 0.8661417322834646,
                    "duration": 0.1875
                },
                {
                    "name": "C2",
                    "midi": 36,
                    "time": 4.458333333333333,
                    "velocity": 0.6771653543307087,
                    "duration": 0.875
                },
                {
                    "name": "C3",
                    "midi": 48,
                    "time": 4.463541666666666,
                    "velocity": 0.7795275590551181,
                    "duration": 0.875
                },
                {
                    "name": "A5",
                    "midi": 81,
                    "time": 4.744791666666666,
                    "velocity": 0.84251968503937,
                    "duration": 0.541666666666667
                },
                {
                    "name": "F5",
                    "midi": 77,
                    "time": 4.749999999999999,
                    "velocity": 0.8976377952755905,
                    "duration": 0.5364583333333339
                },
                {
                    "name": "G#4",
                    "midi": 68,
                    "time": 4.749999999999999,
                    "velocity": 0.889763779527559,
                    "duration": 0.22916666666666696
                },
                {
                    "name": "D5",
                    "midi": 74,
                    "time": 5.083333333333333,
                    "velocity": 0.8976377952755905,
                    "duration": 0.203125
                },
                {
                    "name": "C6",
                    "midi": 84,
                    "time": 5.364583333333333,
                    "velocity": 0.7244094488188977,
                    "duration": 0.234375
                },
                {
                    "name": "G#5",
                    "midi": 80,
                    "time": 5.364583333333333,
                    "velocity": 0.6929133858267716,
                    "duration": 0.234375
                },
                {
                    "name": "C#5",
                    "midi": 73,
                    "time": 5.364583333333333,
                    "velocity": 0.84251968503937,
                    "duration": 0.234375
                },
                {
                    "name": "D2",
                    "midi": 38,
                    "time": 5.364583333333333,
                    "velocity": 0.7795275590551181,
                    "duration": 0.20833333333333304
                },
                {
                    "name": "D3",
                    "midi": 50,
                    "time": 5.369791666666666,
                    "velocity": 0.84251968503937,
                    "duration": 0.19791666666666696
                },
                {
                    "name": "D2",
                    "midi": 38,
                    "time": 5.651041666666666,
                    "velocity": 0.8740157480314961,
                    "duration": 0.20833333333333304
                },
                {
                    "name": "D#4",
                    "midi": 63,
                    "time": 5.651041666666666,
                    "velocity": 0.9133858267716536,
                    "duration": 0.536458333333333
                },
                {
                    "name": "G#4",
                    "midi": 68,
                    "time": 5.651041666666666,
                    "velocity": 0.889763779527559,
                    "duration": 0.536458333333333
                },
                {
                    "name": "A3",
                    "midi": 57,
                    "time": 5.651041666666666,
                    "velocity": 0.7874015748031497,
                    "duration": 0.53125
                },
                {
                    "name": "D3",
                    "midi": 50,
                    "time": 5.656249999999999,
                    "velocity": 0.8740157480314961,
                    "duration": 0.21875
                },
                {
                    "name": "C#4",
                    "midi": 61,
                    "time": 5.968749999999999,
                    "velocity": 0.7795275590551181,
                    "duration": 0.24479166666666696
                },
                {
                    "name": "C#3",
                    "midi": 49,
                    "time": 5.968749999999999,
                    "velocity": 0.9133858267716536,
                    "duration": 0.2552083333333339
                },
                {
                    "name": "E6",
                    "midi": 88,
                    "time": 6.286458333333333,
                    "velocity": 0.6771653543307087,
                    "duration": 0.4687499999999991
                },
                {
                    "name": "C6",
                    "midi": 84,
                    "time": 6.286458333333333,
                    "velocity": 0.7795275590551181,
                    "duration": 0.4687499999999991
                },
                {
                    "name": "C#5",
                    "midi": 73,
                    "time": 6.286458333333333,
                    "velocity": 0.8740157480314961,
                    "duration": 0.25520833333333304
                },
                {
                    "name": "A1",
                    "midi": 33,
                    "time": 6.291666666666666,
                    "velocity": 0.9212598425196851,
                    "duration": 0.21354166666666696
                },
                {
                    "name": "A2",
                    "midi": 45,
                    "time": 6.291666666666666,
                    "velocity": 0.84251968503937,
                    "duration": 0.21875
                },
                {
                    "name": "F#4",
                    "midi": 66,
                    "time": 6.578124999999999,
                    "velocity": 0.6062992125984252,
                    "duration": 0.25520833333333304
                },
                {
                    "name": "A#4",
                    "midi": 70,
                    "time": 6.578124999999999,
                    "velocity": 0.6929133858267716,
                    "duration": 0.234375
                },
                {
                    "name": "A3",
                    "midi": 57,
                    "time": 6.578124999999999,
                    "velocity": 0.6929133858267716,
                    "duration": 0.22395833333333304
                },
                {
                    "name": "D#5",
                    "midi": 75,
                    "time": 6.578124999999999,
                    "velocity": 0.8818897637795275,
                    "duration": 0.16145833333333304
                },
                {
                    "name": "C#4",
                    "midi": 61,
                    "time": 6.890624999999999,
                    "velocity": 0.7795275590551181,
                    "duration": 0.19791666666666696
                },
                {
                    "name": "A#3",
                    "midi": 58,
                    "time": 6.890624999999999,
                    "velocity": 0.7322834645669292,
                    "duration": 0.203125
                },
                {
                    "name": "A4",
                    "midi": 69,
                    "time": 6.890624999999999,
                    "velocity": 0.7322834645669292,
                    "duration": 0.1875
                },
                {
                    "name": "D6",
                    "midi": 86,
                    "time": 6.890624999999999,
                    "velocity": 0.84251968503937,
                    "duration": 0.25
                },
                {
                    "name": "C#7",
                    "midi": 97,
                    "time": 6.890624999999999,
                    "velocity": 0.8031496062992126,
                    "duration": 0.42708333333333304
                },
                {
                    "name": "G6",
                    "midi": 91,
                    "time": 6.890624999999999,
                    "velocity": 0.7795275590551181,
                    "duration": 0.42708333333333304
                },
                {
                    "name": "C6",
                    "midi": 84,
                    "time": 7.182291666666666,
                    "velocity": 0.8346456692913385,
                    "duration": 0.13541666666666607
                },
                {
                    "name": "G#2",
                    "midi": 44,
                    "time": 7.187499999999999,
                    "velocity": 0.9212598425196851,
                    "duration": 0.2760416666666661
                },
                {
                    "name": "G#3",
                    "midi": 56,
                    "time": 7.187499999999999,
                    "velocity": 0.84251968503937,
                    "duration": 0.2760416666666661
                },
                {
                    "name": "B2",
                    "midi": 47,
                    "time": 7.505208333333332,
                    "velocity": 0.7795275590551181,
                    "duration": 0.22916666666666696
                },
                {
                    "name": "B3",
                    "midi": 59,
                    "time": 7.510416666666665,
                    "velocity": 0.6929133858267716,
                    "duration": 0.19791666666666696
                },
                {
                    "name": "G#5",
                    "midi": 80,
                    "time": 7.510416666666665,
                    "velocity": 0.8267716535433071,
                    "duration": 0.6250000000000027
                },
                {
                    "name": "C#5",
                    "midi": 73,
                    "time": 7.510416666666665,
                    "velocity": 0.7559055118110236,
                    "duration": 0.5937500000000027
                },
                {
                    "name": "A#4",
                    "midi": 70,
                    "time": 7.510416666666665,
                    "velocity": 0.7795275590551181,
                    "duration": 0.6041666666666687
                },
                {
                    "name": "F5",
                    "midi": 77,
                    "time": 7.510416666666665,
                    "velocity": 0.8188976377952756,
                    "duration": 0.6197916666666687
                },
                {
                    "name": "G4",
                    "midi": 67,
                    "time": 7.510416666666665,
                    "velocity": 0.7874015748031497,
                    "duration": 0.2656250000000009
                },
                {
                    "name": "A4",
                    "midi": 69,
                    "time": 7.817708333333333,
                    "velocity": 0.7244094488188977,
                    "duration": 0.3177083333333348
                },
                {
                    "name": "D2",
                    "midi": 38,
                    "time": 7.822916666666666,
                    "velocity": 0.7165354330708661,
                    "duration": 0.23958333333333393
                },
                {
                    "name": "D3",
                    "midi": 50,
                    "time": 7.822916666666666,
                    "velocity": 0.8031496062992126,
                    "duration": 0.24479166666666785
                },
                {
                    "name": "D#3",
                    "midi": 51,
                    "time": 8.171875000000002,
                    "velocity": 0.5905511811023622,
                    "duration": 0.2708333333333339
                },
                {
                    "name": "D#4",
                    "midi": 63,
                    "time": 8.177083333333336,
                    "velocity": 0.6850393700787402,
                    "duration": 0.234375
                },
                {
                    "name": "E5",
                    "midi": 76,
                    "time": 8.177083333333336,
                    "velocity": 0.8031496062992126,
                    "duration": 0.2760416666666661
                },
                {
                    "name": "G3",
                    "midi": 55,
                    "time": 8.177083333333336,
                    "velocity": 0.8110236220472441,
                    "duration": 0.25
                },
                {
                    "name": "B3",
                    "midi": 59,
                    "time": 8.18229166666667,
                    "velocity": 0.7874015748031497,
                    "duration": 0.23958333333333215
                },
                {
                    "name": "E1",
                    "midi": 28,
                    "time": 8.520833333333336,
                    "velocity": 0.9212598425196851,
                    "duration": 0.34375
                },
                {
                    "name": "C#6",
                    "midi": 85,
                    "time": 8.531250000000002,
                    "velocity": 0.8661417322834646,
                    "duration": 0.2552083333333339
                },
                {
                    "name": "D5",
                    "midi": 74,
                    "time": 8.531250000000002,
                    "velocity": 0.8110236220472441,
                    "duration": 0.25
                },
                {
                    "name": "F5",
                    "midi": 77,
                    "time": 8.531250000000002,
                    "velocity": 0.8267716535433071,
                    "duration": 0.25
                },
                {
                    "name": "G#5",
                    "midi": 80,
                    "time": 8.531250000000002,
                    "velocity": 0.8031496062992126,
                    "duration": 0.25
                },
                {
                    "name": "E2",
                    "midi": 40,
                    "time": 8.531250000000002,
                    "velocity": 0.9212598425196851,
                    "duration": 0.33854166666666785
                },
                {
                    "name": "D6",
                    "midi": 86,
                    "time": 8.895833333333336,
                    "velocity": 0.7795275590551181,
                    "duration": 0.4583333333333339
                },
                {
                    "name": "G6",
                    "midi": 91,
                    "time": 8.90104166666667,
                    "velocity": 0.889763779527559,
                    "duration": 0.234375
                },
                {
                    "name": "F#5",
                    "midi": 78,
                    "time": 8.90104166666667,
                    "velocity": 0.8110236220472441,
                    "duration": 0.453125
                },
                {
                    "name": "A#5",
                    "midi": 82,
                    "time": 8.90104166666667,
                    "velocity": 0.7086614173228346,
                    "duration": 0.4583333333333339
                },
                {
                    "name": "G#1",
                    "midi": 32,
                    "time": 8.90104166666667,
                    "velocity": 0.84251968503937,
                    "duration": 0.20833333333333393
                },
                {
                    "name": "G#2",
                    "midi": 44,
                    "time": 8.90104166666667,
                    "velocity": 0.9212598425196851,
                    "duration": 0.21875
                },
                {
                    "name": "F6",
                    "midi": 89,
                    "time": 9.192708333333336,
                    "velocity": 0.84251968503937,
                    "duration": 0.16666666666666785
                },
                {
                    "name": "C#4",
                    "midi": 61,
                    "time": 9.19791666666667,
                    "velocity": 0.7874015748031497,
                    "duration": 0.24479166666666785
                },
                {
                    "name": "C#3",
                    "midi": 49,
                    "time": 9.19791666666667,
                    "velocity": 0.9291338582677166,
                    "duration": 0.2708333333333339
                },
                {
                    "name": "A#6",
                    "midi": 94,
                    "time": 9.52604166666667,
                    "velocity": 0.8188976377952756,
                    "duration": 0.48437500000000355
                },
                {
                    "name": "D6",
                    "midi": 86,
                    "time": 9.531250000000004,
                    "velocity": 0.8188976377952756,
                    "duration": 0.21875
                },
                {
                    "name": "A2",
                    "midi": 45,
                    "time": 9.531250000000004,
                    "velocity": 0.7952755905511811,
                    "duration": 0.23437500000000178
                },
                {
                    "name": "A3",
                    "midi": 57,
                    "time": 9.531250000000004,
                    "velocity": 0.7716535433070866,
                    "duration": 0.22916666666666785
                },
                {
                    "name": "B5",
                    "midi": 83,
                    "time": 9.531250000000004,
                    "velocity": 0.7480314960629921,
                    "duration": 0.21875
                },
                {
                    "name": "F#6",
                    "midi": 90,
                    "time": 9.531250000000004,
                    "velocity": 0.7322834645669292,
                    "duration": 0.21354166666666607
                },
                {
                    "name": "C#6",
                    "midi": 85,
                    "time": 9.822916666666671,
                    "velocity": 0.7795275590551181,
                    "duration": 0.18750000000000178
                },
                {
                    "name": "F6",
                    "midi": 89,
                    "time": 9.822916666666671,
                    "velocity": 0.84251968503937,
                    "duration": 0.17187500000000178
                },
                {
                    "name": "A5",
                    "midi": 81,
                    "time": 9.822916666666671,
                    "velocity": 0.8818897637795275,
                    "duration": 0.1927083333333357
                },
                {
                    "name": "A#1",
                    "midi": 34,
                    "time": 9.828125000000005,
                    "velocity": 0.8346456692913385,
                    "duration": 0.5208333333333375
                },
                {
                    "name": "A#2",
                    "midi": 46,
                    "time": 9.83333333333334,
                    "velocity": 0.889763779527559,
                    "duration": 0.5208333333333375
                },
                {
                    "name": "C#6",
                    "midi": 85,
                    "time": 10.140625000000009,
                    "velocity": 0.7716535433070866,
                    "duration": 0.23958333333333393
                },
                {
                    "name": "F#6",
                    "midi": 90,
                    "time": 10.145833333333343,
                    "velocity": 0.7952755905511811,
                    "duration": 0.25
                },
                {
                    "name": "F5",
                    "midi": 77,
                    "time": 10.145833333333343,
                    "velocity": 0.7874015748031497,
                    "duration": 0.234375
                },
                {
                    "name": "A5",
                    "midi": 81,
                    "time": 10.145833333333343,
                    "velocity": 0.8661417322834646,
                    "duration": 0.22395833333333393
                },
                {
                    "name": "D2",
                    "midi": 38,
                    "time": 10.442708333333343,
                    "velocity": 0.7716535433070866,
                    "duration": 0.22395833333333393
                },
                {
                    "name": "B5",
                    "midi": 83,
                    "time": 10.442708333333343,
                    "velocity": 0.8661417322834646,
                    "duration": 0.21875
                },
                {
                    "name": "D#5",
                    "midi": 75,
                    "time": 10.442708333333343,
                    "velocity": 0.6614173228346457,
                    "duration": 0.22916666666666785
                },
                {
                    "name": "G5",
                    "midi": 79,
                    "time": 10.442708333333343,
                    "velocity": 0.8661417322834646,
                    "duration": 0.21875
                },
                {
                    "name": "D3",
                    "midi": 50,
                    "time": 10.447916666666677,
                    "velocity": 0.8661417322834646,
                    "duration": 0.234375
                },
                {
                    "name": "F5",
                    "midi": 77,
                    "time": 10.750000000000009,
                    "velocity": 0.8976377952755905,
                    "duration": 0.2500000000000018
                },
                {
                    "name": "A5",
                    "midi": 81,
                    "time": 10.750000000000009,
                    "velocity": 0.8976377952755905,
                    "duration": 0.24479166666666785
                },
                {
                    "name": "C#5",
                    "midi": 73,
                    "time": 10.750000000000009,
                    "velocity": 0.7952755905511811,
                    "duration": 0.2552083333333357
                },
                {
                    "name": "D6",
                    "midi": 86,
                    "time": 10.755208333333343,
                    "velocity": 0.8661417322834646,
                    "duration": 0.24479166666666785
                },
                {
                    "name": "G#4",
                    "midi": 68,
                    "time": 10.755208333333343,
                    "velocity": 0.7086614173228346,
                    "duration": 0.26041666666666785
                },
                {
                    "name": "A3",
                    "midi": 57,
                    "time": 10.755208333333343,
                    "velocity": 0.7480314960629921,
                    "duration": 0.2656250000000018
                },
                {
                    "name": "D#4",
                    "midi": 63,
                    "time": 10.755208333333343,
                    "velocity": 0.6692913385826772,
                    "duration": 0.26041666666666785
                },
                {
                    "name": "G5",
                    "midi": 79,
                    "time": 11.083333333333345,
                    "velocity": 0.8346456692913385,
                    "duration": 0.2447916666666643
                },
                {
                    "name": "D#5",
                    "midi": 75,
                    "time": 11.083333333333345,
                    "velocity": 0.7952755905511811,
                    "duration": 0.23437499999999822
                },
                {
                    "name": "B4",
                    "midi": 71,
                    "time": 11.083333333333345,
                    "velocity": 0.7401574803149606,
                    "duration": 0.20833333333333215
                },
                {
                    "name": "D2",
                    "midi": 38,
                    "time": 11.083333333333345,
                    "velocity": 0.8661417322834646,
                    "duration": 0.3281249999999982
                },
                {
                    "name": "D3",
                    "midi": 50,
                    "time": 11.083333333333345,
                    "velocity": 0.7952755905511811,
                    "duration": 0.33333333333333215
                },
                {
                    "name": "E6",
                    "midi": 88,
                    "time": 11.479166666666677,
                    "velocity": 0.84251968503937,
                    "duration": 0.07291666666666607
                },
                {
                    "name": "C6",
                    "midi": 84,
                    "time": 11.479166666666677,
                    "velocity": 0.9291338582677166,
                    "duration": 0.08333333333333215
                },
                {
                    "name": "G#5",
                    "midi": 80,
                    "time": 11.479166666666677,
                    "velocity": 0.9291338582677166,
                    "duration": 0.08333333333333215
                },
                {
                    "name": "G3",
                    "midi": 55,
                    "time": 11.479166666666677,
                    "velocity": 0.7244094488188977,
                    "duration": 0.23958333333333215
                },
                {
                    "name": "G2",
                    "midi": 43,
                    "time": 11.479166666666677,
                    "velocity": 0.84251968503937,
                    "duration": 0.23958333333333215
                },
                {
                    "name": "F5",
                    "midi": 77,
                    "time": 11.630208333333343,
                    "velocity": 0.6771653543307087,
                    "duration": 0.11458333333333215
                },
                {
                    "name": "E5",
                    "midi": 76,
                    "time": 11.786458333333341,
                    "velocity": 0.9212598425196851,
                    "duration": 0.07291666666666607
                },
                {
                    "name": "C#4",
                    "midi": 61,
                    "time": 11.786458333333341,
                    "velocity": 0.6929133858267716,
                    "duration": 0.3124999999999982
                },
                {
                    "name": "C#3",
                    "midi": 49,
                    "time": 11.786458333333341,
                    "velocity": 0.84251968503937,
                    "duration": 0.3229166666666643
                },
                {
                    "name": "C5",
                    "midi": 72,
                    "time": 11.947916666666673,
                    "velocity": 0.7795275590551181,
                    "duration": 0.046875
                },
                {
                    "name": "C4",
                    "midi": 60,
                    "time": 12.119791666666671,
                    "velocity": 0.6771653543307087,
                    "duration": 0.4791666666666661
                },
                {
                    "name": "B4",
                    "midi": 71,
                    "time": 12.119791666666671,
                    "velocity": 0.9212598425196851,
                    "duration": 0.15625
                },
                {
                    "name": "C3",
                    "midi": 48,
                    "time": 12.119791666666671,
                    "velocity": 0.6929133858267716,
                    "duration": 0.484375
                },
                {
                    "name": "G#4",
                    "midi": 68,
                    "time": 12.276041666666671,
                    "velocity": 0.7165354330708661,
                    "duration": 0.10416666666666607
                },
                {
                    "name": "A#3",
                    "midi": 58,
                    "time": 12.421875000000004,
                    "velocity": 0.7480314960629921,
                    "duration": 0.036458333333333925
                },
                {
                    "name": "A4",
                    "midi": 69,
                    "time": 12.578125000000004,
                    "velocity": 0.8346456692913385,
                    "duration": 0.05729166666666785
                },
                {
                    "name": "A#1",
                    "midi": 34,
                    "time": 12.734375000000005,
                    "velocity": 0.6220472440944882,
                    "duration": 0.2656250000000018
                },
                {
                    "name": "C#5",
                    "midi": 73,
                    "time": 12.73958333333334,
                    "velocity": 0.9291338582677166,
                    "duration": 0.16145833333333393
                },
                {
                    "name": "D#2",
                    "midi": 39,
                    "time": 12.73958333333334,
                    "velocity": 0.6062992125984252,
                    "duration": 0.2656250000000018
                },
                {
                    "name": "G2",
                    "midi": 43,
                    "time": 12.73958333333334,
                    "velocity": 0.7795275590551181,
                    "duration": 0.2656250000000018
                },
                {
                    "name": "B2",
                    "midi": 47,
                    "time": 12.73958333333334,
                    "velocity": 0.9133858267716536,
                    "duration": 0.2656250000000018
                },
                {
                    "name": "F5",
                    "midi": 77,
                    "time": 12.906250000000007,
                    "velocity": 0.9133858267716536,
                    "duration": 0.18750000000000178
                },
                {
                    "name": "G#5",
                    "midi": 80,
                    "time": 12.911458333333341,
                    "velocity": 0.4645669291338583,
                    "duration": 0.6927083333333393
                },
                {
                    "name": "D6",
                    "midi": 86,
                    "time": 13.083333333333341,
                    "velocity": 0.7480314960629921,
                    "duration": 0.12500000000000178
                },
                {
                    "name": "A5",
                    "midi": 81,
                    "time": 13.083333333333341,
                    "velocity": 0.8661417322834646,
                    "duration": 0.10937500000000178
                },
                {
                    "name": "A4",
                    "midi": 69,
                    "time": 13.083333333333341,
                    "velocity": 0.7795275590551181,
                    "duration": 0.2864583333333357
                },
                {
                    "name": "G#3",
                    "midi": 56,
                    "time": 13.088541666666675,
                    "velocity": 0.6377952755905512,
                    "duration": 0.2812500000000018
                },
                {
                    "name": "D4",
                    "midi": 62,
                    "time": 13.088541666666675,
                    "velocity": 0.7795275590551181,
                    "duration": 0.2864583333333357
                },
                {
                    "name": "B5",
                    "midi": 83,
                    "time": 13.270833333333343,
                    "velocity": 0.7480314960629921,
                    "duration": 0.1145833333333357
                },
                {
                    "name": "G5",
                    "midi": 79,
                    "time": 13.270833333333343,
                    "velocity": 0.8346456692913385,
                    "duration": 0.11979166666666963
                },
                {
                    "name": "D#5",
                    "midi": 75,
                    "time": 13.276041666666677,
                    "velocity": 0.7480314960629921,
                    "duration": 0.10416666666666785
                },
                {
                    "name": "E6",
                    "midi": 88,
                    "time": 13.463541666666679,
                    "velocity": 0.9133858267716536,
                    "duration": 0.14062500000000178
                },
                {
                    "name": "C6",
                    "midi": 84,
                    "time": 13.468750000000012,
                    "velocity": 0.889763779527559,
                    "duration": 0.13541666666666785
                },
                {
                    "name": "G#5",
                    "midi": 80,
                    "time": 13.468750000000012,
                    "velocity": 0.905511811023622,
                    "duration": 2.3281250000000036
                },
                {
                    "name": "G#4",
                    "midi": 68,
                    "time": 13.468750000000012,
                    "velocity": 0.7559055118110236,
                    "duration": 0.24479166666666785
                },
                {
                    "name": "A3",
                    "midi": 57,
                    "time": 13.468750000000012,
                    "velocity": 0.8661417322834646,
                    "duration": 0.2552083333333339
                },
                {
                    "name": "D#4",
                    "midi": 63,
                    "time": 13.468750000000012,
                    "velocity": 0.6692913385826772,
                    "duration": 0.2552083333333339
                },
                {
                    "name": "F5",
                    "midi": 77,
                    "time": 13.640625000000014,
                    "velocity": 0.9133858267716536,
                    "duration": 0.09895833333333215
                },
                {
                    "name": "C#4",
                    "midi": 61,
                    "time": 13.79166666666668,
                    "velocity": 0.8346456692913385,
                    "duration": 0.28125
                },
                {
                    "name": "C#3",
                    "midi": 49,
                    "time": 13.79166666666668,
                    "velocity": 0.9212598425196851,
                    "duration": 0.2916666666666661
                },
                {
                    "name": "E5",
                    "midi": 76,
                    "time": 13.796875000000014,
                    "velocity": 0.9133858267716536,
                    "duration": 0.03125
                },
                {
                    "name": "C5",
                    "midi": 72,
                    "time": 13.93229166666668,
                    "velocity": 0.8661417322834646,
                    "duration": 0.041666666666666075
                },
                {
                    "name": "B4",
                    "midi": 71,
                    "time": 14.083333333333346,
                    "velocity": 0.8346456692913385,
                    "duration": 0.13541666666666785
                },
                {
                    "name": "C3",
                    "midi": 48,
                    "time": 14.08854166666668,
                    "velocity": 0.6377952755905512,
                    "duration": 0.5208333333333339
                },
                {
                    "name": "C4",
                    "midi": 60,
                    "time": 14.08854166666668,
                    "velocity": 0.7480314960629921,
                    "duration": 0.5
                },
                {
                    "name": "G#4",
                    "midi": 68,
                    "time": 14.223958333333348,
                    "velocity": 0.7795275590551181,
                    "duration": 0.140625
                },
                {
                    "name": "A#3",
                    "midi": 58,
                    "time": 14.364583333333348,
                    "velocity": 0.8346456692913385,
                    "duration": 0.057291666666666075
                },
                {
                    "name": "A4",
                    "midi": 69,
                    "time": 14.52604166666668,
                    "velocity": 0.7795275590551181,
                    "duration": 0.08854166666666785
                },
                {
                    "name": "C#5",
                    "midi": 73,
                    "time": 14.703125000000014,
                    "velocity": 0.9133858267716536,
                    "duration": 0.09895833333333393
                },
                {
                    "name": "A#1",
                    "midi": 34,
                    "time": 14.953125000000014,
                    "velocity": 0.5748031496062992,
                    "duration": 0.265625
                },
                {
                    "name": "D#2",
                    "midi": 39,
                    "time": 14.953125000000014,
                    "velocity": 0.6692913385826772,
                    "duration": 0.265625
                },
                {
                    "name": "G2",
                    "midi": 43,
                    "time": 14.953125000000014,
                    "velocity": 0.8661417322834646,
                    "duration": 0.265625
                },
                {
                    "name": "B2",
                    "midi": 47,
                    "time": 14.953125000000014,
                    "velocity": 0.8346456692913385,
                    "duration": 0.265625
                },
                {
                    "name": "G#5",
                    "midi": 80,
                    "time": 15.687500000000014,
                    "velocity": 0.7165354330708661,
                    "duration": 2.697916666666668
                },
                {
                    "name": "D6",
                    "midi": 86,
                    "time": 15.692708333333348,
                    "velocity": 0.8346456692913385,
                    "duration": 0.09895833333333393
                },
                {
                    "name": "B5",
                    "midi": 83,
                    "time": 15.692708333333348,
                    "velocity": 0.8346456692913385,
                    "duration": 0.10937500000000178
                },
                {
                    "name": "F5",
                    "midi": 77,
                    "time": 15.692708333333348,
                    "velocity": 0.8346456692913385,
                    "duration": 0.09895833333333393
                },
                {
                    "name": "C5",
                    "midi": 72,
                    "time": 15.697916666666682,
                    "velocity": 0.6377952755905512,
                    "duration": 0.10416666666666785
                },
                {
                    "name": "A#3",
                    "midi": 58,
                    "time": 15.697916666666682,
                    "velocity": 0.6062992125984252,
                    "duration": 0.10416666666666785
                },
                {
                    "name": "A4",
                    "midi": 69,
                    "time": 15.697916666666682,
                    "velocity": 0.7165354330708661,
                    "duration": 0.10416666666666785
                },
                {
                    "name": "E4",
                    "midi": 64,
                    "time": 15.697916666666682,
                    "velocity": 0.8661417322834646,
                    "duration": 0.10416666666666785
                },
                {
                    "name": "F#3",
                    "midi": 54,
                    "time": 15.901041666666684,
                    "velocity": 0.905511811023622,
                    "duration": 1.0729166666666696
                },
                {
                    "name": "F#1",
                    "midi": 30,
                    "time": 15.906250000000018,
                    "velocity": 0.8346456692913385,
                    "duration": 1.0677083333333357
                },
                {
                    "name": "F#2",
                    "midi": 42,
                    "time": 15.906250000000018,
                    "velocity": 0.7480314960629921,
                    "duration": 1.0572916666666679
                },
                {
                    "name": "C1",
                    "midi": 24,
                    "time": 16.98437500000002,
                    "velocity": 0.5984251968503937,
                    "duration": 0.33333333333333215
                },
                {
                    "name": "C2",
                    "midi": 36,
                    "time": 16.98437500000002,
                    "velocity": 0.6614173228346457,
                    "duration": 0.31770833333333215
                },
                {
                    "name": "C3",
                    "midi": 48,
                    "time": 16.98437500000002,
                    "velocity": 0.6299212598425197,
                    "duration": 0.3072916666666643
                },
                {
                    "name": "G#5",
                    "midi": 80,
                    "time": 18.192708333333353,
                    "velocity": 0.6771653543307087,
                    "duration": 27.307291666666696
                },
                {
                    "name": "F5",
                    "midi": 77,
                    "time": 18.192708333333353,
                    "velocity": 0.7874015748031497,
                    "duration": 0.1822916666666643
                },
                {
                    "name": "B5",
                    "midi": 83,
                    "time": 18.197916666666686,
                    "velocity": 0.7637795275590551,
                    "duration": 0.1822916666666643
                },
                {
                    "name": "A#3",
                    "midi": 58,
                    "time": 18.203125000000018,
                    "velocity": 0.5039370078740157,
                    "duration": 0.17708333333333215
                },
                {
                    "name": "D6",
                    "midi": 86,
                    "time": 18.203125000000018,
                    "velocity": 0.5905511811023622,
                    "duration": 0.1822916666666643
                },
                {
                    "name": "C#4",
                    "midi": 61,
                    "time": 18.203125000000018,
                    "velocity": 0.5039370078740157,
                    "duration": 0.1822916666666643
                },
                {
                    "name": "F#4",
                    "midi": 66,
                    "time": 18.203125000000018,
                    "velocity": 0.5826771653543307,
                    "duration": 0.1822916666666643
                },
                {
                    "name": "C5",
                    "midi": 72,
                    "time": 18.20833333333335,
                    "velocity": 0.7244094488188977,
                    "duration": 0.17708333333333215
                },
                {
                    "name": "A4",
                    "midi": 69,
                    "time": 18.20833333333335,
                    "velocity": 0.5984251968503937,
                    "duration": 0.17708333333333215
                },
                {
                    "name": "E4",
                    "midi": 64,
                    "time": 18.20833333333335,
                    "velocity": 0.5984251968503937,
                    "duration": 0.1822916666666643
                },
                {
                    "name": "D#3",
                    "midi": 51,
                    "time": 18.541666666666682,
                    "velocity": 0.6929133858267716,
                    "duration": 2.3645833333333357
                },
                {
                    "name": "D#1",
                    "midi": 27,
                    "time": 18.541666666666682,
                    "velocity": 0.4566929133858268,
                    "duration": 2.276041666666668
                },
                {
                    "name": "D#2",
                    "midi": 39,
                    "time": 18.541666666666682,
                    "velocity": 0.5669291338582677,
                    "duration": 2.276041666666668
                },
                {
                    "name": "A2",
                    "midi": 45,
                    "time": 20.906250000000018,
                    "velocity": 0.36220472440944884,
                    "duration": 0.7447916666666679
                },
                {
                    "name": "A0",
                    "midi": 21,
                    "time": 20.916666666666686,
                    "velocity": 0.25196850393700787,
                    "duration": 0.734375
                },
                {
                    "name": "A1",
                    "midi": 33,
                    "time": 20.927083333333353,
                    "velocity": 0.15748031496062992,
                    "duration": 0.7395833333333321
                },
                {
                    "name": "C#5",
                    "midi": 73,
                    "time": 23.885416666666686,
                    "velocity": 0.5511811023622047,
                    "duration": 0.34895833333333215
                },
                {
                    "name": "C#6",
                    "midi": 85,
                    "time": 23.885416666666686,
                    "velocity": 0.7559055118110236,
                    "duration": 0.34895833333333215
                },
                {
                    "name": "A5",
                    "midi": 81,
                    "time": 23.890625000000018,
                    "velocity": 0.8740157480314961,
                    "duration": 0.34375
                },
                {
                    "name": "A#4",
                    "midi": 70,
                    "time": 24.23958333333335,
                    "velocity": 0.7952755905511811,
                    "duration": 0.359375
                },
                {
                    "name": "D4",
                    "midi": 62,
                    "time": 24.23958333333335,
                    "velocity": 0.7559055118110236,
                    "duration": 0.359375
                },
                {
                    "name": "D5",
                    "midi": 74,
                    "time": 24.23958333333335,
                    "velocity": 0.7952755905511811,
                    "duration": 0.34375
                },
                {
                    "name": "B4",
                    "midi": 71,
                    "time": 24.604166666666682,
                    "velocity": 0.7244094488188977,
                    "duration": 0.33333333333333215
                },
                {
                    "name": "D#4",
                    "midi": 63,
                    "time": 24.604166666666682,
                    "velocity": 0.7244094488188977,
                    "duration": 0.328125
                },
                {
                    "name": "B3",
                    "midi": 59,
                    "time": 24.604166666666682,
                    "velocity": 0.7559055118110236,
                    "duration": 0.3385416666666643
                },
                {
                    "name": "D3",
                    "midi": 50,
                    "time": 24.96354166666668,
                    "velocity": 0.7559055118110236,
                    "duration": 0.21354166666666785
                },
                {
                    "name": "A#3",
                    "midi": 58,
                    "time": 24.96354166666668,
                    "velocity": 0.8267716535433071,
                    "duration": 0.203125
                },
                {
                    "name": "D4",
                    "midi": 62,
                    "time": 24.96354166666668,
                    "velocity": 0.8740157480314961,
                    "duration": 0.19270833333333215
                },
                {
                    "name": "D#3",
                    "midi": 51,
                    "time": 25.33854166666668,
                    "velocity": 0.8267716535433071,
                    "duration": 0.265625
                },
                {
                    "name": "D#2",
                    "midi": 39,
                    "time": 25.33854166666668,
                    "velocity": 0.7244094488188977,
                    "duration": 0.25
                },
                {
                    "name": "B2",
                    "midi": 47,
                    "time": 25.33854166666668,
                    "velocity": 0.8267716535433071,
                    "duration": 0.25
                },
                {
                    "name": "C5",
                    "midi": 72,
                    "time": 25.786458333333346,
                    "velocity": 0.7559055118110236,
                    "duration": 2.328125
                },
                {
                    "name": "A4",
                    "midi": 69,
                    "time": 25.786458333333346,
                    "velocity": 0.7952755905511811,
                    "duration": 2.328125
                },
                {
                    "name": "F4",
                    "midi": 65,
                    "time": 25.786458333333346,
                    "velocity": 0.7244094488188977,
                    "duration": 2.328125
                },
                {
                    "name": "A#3",
                    "midi": 58,
                    "time": 25.786458333333346,
                    "velocity": 0.4881889763779528,
                    "duration": 2.333333333333332
                },
                {
                    "name": "C#4",
                    "midi": 61,
                    "time": 25.786458333333346,
                    "velocity": 0.4566929133858268,
                    "duration": 2.333333333333332
                },
                {
                    "name": "C#4",
                    "midi": 61,
                    "time": 29.343750000000014,
                    "velocity": 0.2125984251968504,
                    "duration": 0.20833333333333215
                },
                {
                    "name": "G#2",
                    "midi": 44,
                    "time": 29.343750000000014,
                    "velocity": 0.2125984251968504,
                    "duration": 1.1093750000000036
                },
                {
                    "name": "D3",
                    "midi": 50,
                    "time": 29.343750000000014,
                    "velocity": 0.30708661417322836,
                    "duration": 1.1614583333333357
                },
                {
                    "name": "G3",
                    "midi": 55,
                    "time": 29.552083333333346,
                    "velocity": 0.2125984251968504,
                    "duration": 0.24479166666666785
                },
                {
                    "name": "F#4",
                    "midi": 66,
                    "time": 29.765625000000014,
                    "velocity": 0.14960629921259844,
                    "duration": 0.18229166666666785
                },
                {
                    "name": "C5",
                    "midi": 72,
                    "time": 29.932291666666682,
                    "velocity": 0.16535433070866143,
                    "duration": 0.19270833333333215
                },
                {
                    "name": "B3",
                    "midi": 59,
                    "time": 30.088541666666682,
                    "velocity": 0.14960629921259844,
                    "duration": 0.171875
                },
                {
                    "name": "A#4",
                    "midi": 70,
                    "time": 30.250000000000014,
                    "velocity": 0.13385826771653545,
                    "duration": 0.1770833333333357
                },
                {
                    "name": "G3",
                    "midi": 55,
                    "time": 30.437500000000018,
                    "velocity": 0.14960629921259844,
                    "duration": 0.203125
                },
                {
                    "name": "E3",
                    "midi": 52,
                    "time": 30.61458333333335,
                    "velocity": 0.14960629921259844,
                    "duration": 0.21354166666666785
                },
                {
                    "name": "D4",
                    "midi": 62,
                    "time": 30.78645833333335,
                    "velocity": 0.14960629921259844,
                    "duration": 0.18229166666666785
                },
                {
                    "name": "D#3",
                    "midi": 51,
                    "time": 30.963541666666686,
                    "velocity": 0.13385826771653545,
                    "duration": 0.30208333333333215
                },
                {
                    "name": "G2",
                    "midi": 43,
                    "time": 31.156250000000018,
                    "velocity": 0.14960629921259844,
                    "duration": 0.3125
                },
                {
                    "name": "A3",
                    "midi": 57,
                    "time": 31.38020833333335,
                    "velocity": 0.14960629921259844,
                    "duration": 0.265625
                },
                {
                    "name": "C#7",
                    "midi": 97,
                    "time": 32.666666666666686,
                    "velocity": 0.30708661417322836,
                    "duration": 0.8177083333333357
                },
                {
                    "name": "A6",
                    "midi": 93,
                    "time": 32.666666666666686,
                    "velocity": 0.29133858267716534,
                    "duration": 0.8177083333333357
                },
                {
                    "name": "A#5",
                    "midi": 82,
                    "time": 33.06770833333335,
                    "velocity": 0.2283464566929134,
                    "duration": 0.6510416666666785
                },
                {
                    "name": "D6",
                    "midi": 86,
                    "time": 33.072916666666686,
                    "velocity": 0.2283464566929134,
                    "duration": 0.40625
                },
                {
                    "name": "D#5",
                    "midi": 75,
                    "time": 33.46875000000002,
                    "velocity": 0.16535433070866143,
                    "duration": 0.2604166666666714
                },
                {
                    "name": "B5",
                    "midi": 83,
                    "time": 33.48437500000002,
                    "velocity": 0.2125984251968504,
                    "duration": 0.2343750000000071
                },
                {
                    "name": "D5",
                    "midi": 74,
                    "time": 33.85937500000003,
                    "velocity": 0.2125984251968504,
                    "duration": 0.6770833333333215
                },
                {
                    "name": "A#4",
                    "midi": 70,
                    "time": 33.86979166666669,
                    "velocity": 0.14960629921259844,
                    "duration": 0.6718749999999929
                },
                {
                    "name": "D#4",
                    "midi": 63,
                    "time": 34.28645833333336,
                    "velocity": 0.16535433070866143,
                    "duration": 0.2343749999999929
                },
                {
                    "name": "F#3",
                    "midi": 54,
                    "time": 34.28645833333336,
                    "velocity": 0.2440944881889764,
                    "duration": 2.828125
                },
                {
                    "name": "D#3",
                    "midi": 51,
                    "time": 34.29687500000002,
                    "velocity": 0.16535433070866143,
                    "duration": 2.8177083333333357
                },
                {
                    "name": "F5",
                    "midi": 77,
                    "time": 34.78645833333335,
                    "velocity": 0.18110236220472442,
                    "duration": 2.343750000000014
                },
                {
                    "name": "G4",
                    "midi": 67,
                    "time": 34.78645833333335,
                    "velocity": 0.2125984251968504,
                    "duration": 2.333333333333343
                },
                {
                    "name": "C#5",
                    "midi": 73,
                    "time": 34.78645833333335,
                    "velocity": 0.16535433070866143,
                    "duration": 2.3385416666666785
                },
                {
                    "name": "D4",
                    "midi": 62,
                    "time": 34.78645833333335,
                    "velocity": 0.16535433070866143,
                    "duration": 2.328125000000007
                },
                {
                    "name": "A3",
                    "midi": 57,
                    "time": 34.791666666666686,
                    "velocity": 0.16535433070866143,
                    "duration": 2.328125000000007
                },
                {
                    "name": "A4",
                    "midi": 69,
                    "time": 37.3385416666667,
                    "velocity": 0.4881889763779528,
                    "duration": 0.140625
                },
                {
                    "name": "E6",
                    "midi": 88,
                    "time": 37.578125000000036,
                    "velocity": 0.3700787401574803,
                    "duration": 1.4739583333333357
                },
                {
                    "name": "C6",
                    "midi": 84,
                    "time": 37.578125000000036,
                    "velocity": 0.3700787401574803,
                    "duration": 1.4739583333333357
                },
                {
                    "name": "D#5",
                    "midi": 75,
                    "time": 37.578125000000036,
                    "velocity": 0.3228346456692913,
                    "duration": 1.4791666666666714
                },
                {
                    "name": "G5",
                    "midi": 79,
                    "time": 37.578125000000036,
                    "velocity": 0.3858267716535433,
                    "duration": 1.46875
                },
                {
                    "name": "A#4",
                    "midi": 70,
                    "time": 37.578125000000036,
                    "velocity": 0.16535433070866143,
                    "duration": 2.2447916666666714
                },
                {
                    "name": "G5",
                    "midi": 79,
                    "time": 39.18750000000004,
                    "velocity": 0.2283464566929134,
                    "duration": 0.6354166666666643
                },
                {
                    "name": "D#6",
                    "midi": 87,
                    "time": 39.18750000000004,
                    "velocity": 0.2125984251968504,
                    "duration": 0.640625
                },
                {
                    "name": "B5",
                    "midi": 83,
                    "time": 39.18750000000004,
                    "velocity": 0.30708661417322836,
                    "duration": 0.6354166666666643
                },
                {
                    "name": "E5",
                    "midi": 76,
                    "time": 39.18750000000004,
                    "velocity": 0.2125984251968504,
                    "duration": 0.6458333333333357
                },
                {
                    "name": "D5",
                    "midi": 74,
                    "time": 40.04687500000004,
                    "velocity": 0.25984251968503935,
                    "duration": 1.6614583333333286
                },
                {
                    "name": "A4",
                    "midi": 69,
                    "time": 40.04687500000004,
                    "velocity": 0.2125984251968504,
                    "duration": 1.6614583333333286
                },
                {
                    "name": "D#4",
                    "midi": 63,
                    "time": 40.05729166666671,
                    "velocity": 0.16535433070866143,
                    "duration": 1.6666666666666643
                },
                {
                    "name": "C3",
                    "midi": 48,
                    "time": 40.48958333333337,
                    "velocity": 0.29133858267716534,
                    "duration": 0.2760416666666643
                },
                {
                    "name": "C#3",
                    "midi": 49,
                    "time": 40.937500000000036,
                    "velocity": 0.3228346456692913,
                    "duration": 3.5104166666666856
                },
                {
                    "name": "D#5",
                    "midi": 75,
                    "time": 41.91666666666671,
                    "velocity": 0.30708661417322836,
                    "duration": 0.6822916666666785
                },
                {
                    "name": "G#4",
                    "midi": 68,
                    "time": 41.91666666666671,
                    "velocity": 0.2125984251968504,
                    "duration": 0.6770833333333428
                },
                {
                    "name": "D4",
                    "midi": 62,
                    "time": 41.92187500000004,
                    "velocity": 0.16535433070866143,
                    "duration": 0.7083333333333428
                },
                {
                    "name": "F5",
                    "midi": 77,
                    "time": 42.91666666666672,
                    "velocity": 0.3543307086614173,
                    "duration": 1.7447916666666643
                },
                {
                    "name": "G4",
                    "midi": 67,
                    "time": 42.91666666666672,
                    "velocity": 0.25196850393700787,
                    "duration": 6.640624999999993
                },
                {
                    "name": "B4",
                    "midi": 71,
                    "time": 42.91666666666672,
                    "velocity": 0.23622047244094488,
                    "duration": 6.640624999999993
                },
                {
                    "name": "C4",
                    "midi": 60,
                    "time": 42.91666666666672,
                    "velocity": 0.16535433070866143,
                    "duration": 2.859374999999993
                },
                {
                    "name": "G#5",
                    "midi": 80,
                    "time": 44.68750000000005,
                    "velocity": 0.2992125984251969,
                    "duration": 43.942708333333194
                },
                {
                    "name": "D#3",
                    "midi": 51,
                    "time": 44.68750000000005,
                    "velocity": 0.3228346456692913,
                    "duration": 0.4010416666666643
                },
                {
                    "name": "F3",
                    "midi": 53,
                    "time": 45.088541666666714,
                    "velocity": 0.33070866141732286,
                    "duration": 0.4270833333333357
                },
                {
                    "name": "F#3",
                    "midi": 54,
                    "time": 45.50000000000005,
                    "velocity": 0.31496062992125984,
                    "duration": 4.145833333333329
                },
                {
                    "name": "F5",
                    "midi": 77,
                    "time": 45.51562500000005,
                    "velocity": 0.25984251968503935,
                    "duration": 4.197916666666664
                },
                {
                    "name": "G#3",
                    "midi": 56,
                    "time": 46.00520833333338,
                    "velocity": 0.2283464566929134,
                    "duration": 0.7552083333333357
                },
                {
                    "name": "A3",
                    "midi": 57,
                    "time": 46.44270833333338,
                    "velocity": 0.2047244094488189,
                    "duration": 3.203125
                },
                {
                    "name": "A#1",
                    "midi": 34,
                    "time": 50.70312500000005,
                    "velocity": 0.7401574803149606,
                    "duration": 0.0625
                },
                {
                    "name": "B2",
                    "midi": 47,
                    "time": 50.885416666666714,
                    "velocity": 0.7716535433070866,
                    "duration": 0.057291666666671404
                },
                {
                    "name": "G#4",
                    "midi": 68,
                    "time": 51.130208333333385,
                    "velocity": 0.5669291338582677,
                    "duration": 0.2760416666666643
                },
                {
                    "name": "D#3",
                    "midi": 51,
                    "time": 51.130208333333385,
                    "velocity": 0.5354330708661418,
                    "duration": 0.0885416666666643
                },
                {
                    "name": "G3",
                    "midi": 55,
                    "time": 51.130208333333385,
                    "velocity": 0.5669291338582677,
                    "duration": 0.078125
                },
                {
                    "name": "C#4",
                    "midi": 61,
                    "time": 51.13541666666672,
                    "velocity": 0.5669291338582677,
                    "duration": 0.2499999999999929
                },
                {
                    "name": "A3",
                    "midi": 57,
                    "time": 51.13541666666672,
                    "velocity": 0.6299212598425197,
                    "duration": 0.2708333333333286
                },
                {
                    "name": "D2",
                    "midi": 38,
                    "time": 51.364583333333385,
                    "velocity": 0.6614173228346457,
                    "duration": 0.010416666666664298
                },
                {
                    "name": "G#3",
                    "midi": 56,
                    "time": 51.572916666666714,
                    "velocity": 0.6220472440944882,
                    "duration": 0.40625
                },
                {
                    "name": "D3",
                    "midi": 50,
                    "time": 51.572916666666714,
                    "velocity": 0.6771653543307087,
                    "duration": 0.4114583333333357
                },
                {
                    "name": "C#4",
                    "midi": 61,
                    "time": 51.572916666666714,
                    "velocity": 0.5905511811023622,
                    "duration": 0.4114583333333357
                },
                {
                    "name": "B4",
                    "midi": 71,
                    "time": 51.760416666666714,
                    "velocity": 0.6614173228346457,
                    "duration": 0.03125
                },
                {
                    "name": "D5",
                    "midi": 74,
                    "time": 51.95833333333338,
                    "velocity": 0.6771653543307087,
                    "duration": 0.3906250000000071
                },
                {
                    "name": "D#4",
                    "midi": 63,
                    "time": 51.963541666666714,
                    "velocity": 0.5984251968503937,
                    "duration": 0.2447916666666714
                },
                {
                    "name": "A4",
                    "midi": 69,
                    "time": 51.963541666666714,
                    "velocity": 0.6771653543307087,
                    "duration": 0.3697916666666714
                },
                {
                    "name": "F2",
                    "midi": 41,
                    "time": 52.14062500000005,
                    "velocity": 0.7952755905511811,
                    "duration": 0.005208333333335702
                },
                {
                    "name": "D#4",
                    "midi": 63,
                    "time": 52.30729166666672,
                    "velocity": 0.7401574803149606,
                    "duration": 0.234375
                },
                {
                    "name": "E3",
                    "midi": 52,
                    "time": 52.317708333333385,
                    "velocity": 0.7401574803149606,
                    "duration": 0.2395833333333357
                },
                {
                    "name": "A#3",
                    "midi": 58,
                    "time": 52.317708333333385,
                    "velocity": 0.7559055118110236,
                    "duration": 0.2291666666666714
                },
                {
                    "name": "F#5",
                    "midi": 78,
                    "time": 52.48437500000005,
                    "velocity": 0.84251968503937,
                    "duration": 0.020833333333335702
                },
                {
                    "name": "F5",
                    "midi": 77,
                    "time": 52.692708333333385,
                    "velocity": 0.7637795275590551,
                    "duration": 1.2291666666666785
                },
                {
                    "name": "C#5",
                    "midi": 73,
                    "time": 52.692708333333385,
                    "velocity": 0.7480314960629921,
                    "duration": 1.2447916666666785
                },
                {
                    "name": "A4",
                    "midi": 69,
                    "time": 52.692708333333385,
                    "velocity": 0.7716535433070866,
                    "duration": 1.2447916666666785
                },
                {
                    "name": "A#5",
                    "midi": 82,
                    "time": 52.692708333333385,
                    "velocity": 0.7637795275590551,
                    "duration": 1.2447916666666785
                },
                {
                    "name": "G2",
                    "midi": 43,
                    "time": 52.911458333333385,
                    "velocity": 0.84251968503937,
                    "duration": 0.020833333333335702
                },
                {
                    "name": "F4",
                    "midi": 65,
                    "time": 53.15625000000006,
                    "velocity": 0.7559055118110236,
                    "duration": 0.6510416666666714
                },
                {
                    "name": "F#3",
                    "midi": 54,
                    "time": 53.16145833333339,
                    "velocity": 0.7952755905511811,
                    "duration": 0.6458333333333357
                },
                {
                    "name": "C4",
                    "midi": 60,
                    "time": 53.16145833333339,
                    "velocity": 0.7952755905511811,
                    "duration": 0.6458333333333357
                },
                {
                    "name": "D#5",
                    "midi": 75,
                    "time": 54.2552083333334,
                    "velocity": 0.6614173228346457,
                    "duration": 3.859375
                },
                {
                    "name": "G5",
                    "midi": 79,
                    "time": 54.2552083333334,
                    "velocity": 0.7086614173228346,
                    "duration": 3.859375
                },
                {
                    "name": "B4",
                    "midi": 71,
                    "time": 54.2552083333334,
                    "velocity": 0.6614173228346457,
                    "duration": 3.859375
                },
                {
                    "name": "A4",
                    "midi": 69,
                    "time": 54.2552083333334,
                    "velocity": 0.7086614173228346,
                    "duration": 3.8645833333333357
                },
                {
                    "name": "C#4",
                    "midi": 61,
                    "time": 54.2552083333334,
                    "velocity": 0.5196850393700787,
                    "duration": 3.8697916666666714
                },
                {
                    "name": "G3",
                    "midi": 55,
                    "time": 54.2552083333334,
                    "velocity": 0.6299212598425197,
                    "duration": 3.9427083333333357
                },
                {
                    "name": "F#4",
                    "midi": 66,
                    "time": 54.260416666666735,
                    "velocity": 0.5196850393700787,
                    "duration": 3.8645833333333357
                },
                {
                    "name": "F#3",
                    "midi": 54,
                    "time": 58.932291666666735,
                    "velocity": 0.1968503937007874,
                    "duration": 0.2239583333333357
                },
                {
                    "name": "G#4",
                    "midi": 68,
                    "time": 59.151041666666735,
                    "velocity": 0.5354330708661418,
                    "duration": 2.5572916666666714
                },
                {
                    "name": "C4",
                    "midi": 60,
                    "time": 59.151041666666735,
                    "velocity": 0.2677165354330709,
                    "duration": 0.5989583333333357
                },
                {
                    "name": "F4",
                    "midi": 65,
                    "time": 59.75000000000007,
                    "velocity": 0.29133858267716534,
                    "duration": 0.234375
                },
                {
                    "name": "B4",
                    "midi": 71,
                    "time": 59.96875000000007,
                    "velocity": 0.5196850393700787,
                    "duration": 2.125000000000007
                },
                {
                    "name": "F3",
                    "midi": 53,
                    "time": 59.98437500000007,
                    "velocity": 0.2283464566929134,
                    "duration": 0.2083333333333357
                },
                {
                    "name": "C4",
                    "midi": 60,
                    "time": 60.19791666666674,
                    "velocity": 0.2440944881889764,
                    "duration": 0.28125
                },
                {
                    "name": "E4",
                    "midi": 64,
                    "time": 60.42708333333341,
                    "velocity": 0.2204724409448819,
                    "duration": 0.4375
                },
                {
                    "name": "A#2",
                    "midi": 46,
                    "time": 61.46354166666674,
                    "velocity": 0.29133858267716534,
                    "duration": 0.2291666666666643
                },
                {
                    "name": "A3",
                    "midi": 57,
                    "time": 61.69270833333341,
                    "velocity": 0.3228346456692913,
                    "duration": 0.6093750000000071
                },
                {
                    "name": "C5",
                    "midi": 72,
                    "time": 62.08854166666674,
                    "velocity": 0.48031496062992124,
                    "duration": 0.2604166666666714
                },
                {
                    "name": "C#4",
                    "midi": 61,
                    "time": 62.30729166666675,
                    "velocity": 0.3700787401574803,
                    "duration": 0.052083333333328596
                },
                {
                    "name": "A#4",
                    "midi": 70,
                    "time": 62.583333333333414,
                    "velocity": 0.4881889763779528,
                    "duration": 0.9218750000000071
                },
                {
                    "name": "F4",
                    "midi": 65,
                    "time": 62.58854166666675,
                    "velocity": 0.4409448818897638,
                    "duration": 0.9166666666666714
                },
                {
                    "name": "C4",
                    "midi": 60,
                    "time": 62.58854166666675,
                    "velocity": 0.4251968503937008,
                    "duration": 0.9166666666666714
                },
                {
                    "name": "A2",
                    "midi": 45,
                    "time": 62.593750000000085,
                    "velocity": 0.23622047244094488,
                    "duration": 0.234375
                },
                {
                    "name": "D#3",
                    "midi": 51,
                    "time": 62.812500000000085,
                    "velocity": 0.2204724409448819,
                    "duration": 0.2708333333333357
                },
                {
                    "name": "G#3",
                    "midi": 56,
                    "time": 63.03645833333342,
                    "velocity": 0.18110236220472442,
                    "duration": 0.2552083333333357
                },
                {
                    "name": "B5",
                    "midi": 83,
                    "time": 63.937500000000085,
                    "velocity": 0.2755905511811024,
                    "duration": 0.6354166666666714
                },
                {
                    "name": "D6",
                    "midi": 86,
                    "time": 63.937500000000085,
                    "velocity": 0.25984251968503935,
                    "duration": 0.6354166666666714
                },
                {
                    "name": "F#5",
                    "midi": 78,
                    "time": 63.937500000000085,
                    "velocity": 0.2047244094488189,
                    "duration": 0.6197916666666714
                },
                {
                    "name": "C#3",
                    "midi": 49,
                    "time": 64.32812500000009,
                    "velocity": 0.5196850393700787,
                    "duration": 1.9062500000000142
                },
                {
                    "name": "A5",
                    "midi": 81,
                    "time": 64.75520833333343,
                    "velocity": 0.5748031496062992,
                    "duration": 0.25
                },
                {
                    "name": "G#4",
                    "midi": 68,
                    "time": 65.2031250000001,
                    "velocity": 0.5354330708661418,
                    "duration": 1.7291666666666714
                },
                {
                    "name": "D#4",
                    "midi": 63,
                    "time": 65.5312500000001,
                    "velocity": 0.49606299212598426,
                    "duration": 1.4114583333333428
                },
                {
                    "name": "C4",
                    "midi": 60,
                    "time": 65.88541666666677,
                    "velocity": 0.4409448818897638,
                    "duration": 1.0208333333333286
                },
                {
                    "name": "A3",
                    "midi": 57,
                    "time": 65.88541666666677,
                    "velocity": 0.4094488188976378,
                    "duration": 1.2656250000000142
                },
                {
                    "name": "D3",
                    "midi": 50,
                    "time": 66.2343750000001,
                    "velocity": 0.4409448818897638,
                    "duration": 0.421875
                },
                {
                    "name": "D#2",
                    "midi": 39,
                    "time": 66.6406250000001,
                    "velocity": 0.33070866141732286,
                    "duration": 1.1562500000000284
                },
                {
                    "name": "A#4",
                    "midi": 70,
                    "time": 67.04687500000011,
                    "velocity": 0.49606299212598426,
                    "duration": 0.1041666666666714
                },
                {
                    "name": "D4",
                    "midi": 62,
                    "time": 67.48958333333346,
                    "velocity": 0.3779527559055118,
                    "duration": 2.8802083333333286
                },
                {
                    "name": "F#3",
                    "midi": 54,
                    "time": 67.48958333333346,
                    "velocity": 0.4251968503937008,
                    "duration": 2.8802083333333286
                },
                {
                    "name": "E3",
                    "midi": 52,
                    "time": 67.48958333333346,
                    "velocity": 0.3779527559055118,
                    "duration": 2.890625
                },
                {
                    "name": "A3",
                    "midi": 57,
                    "time": 67.48958333333346,
                    "velocity": 0.3779527559055118,
                    "duration": 2.8802083333333286
                },
                {
                    "name": "C#3",
                    "midi": 49,
                    "time": 68.03645833333346,
                    "velocity": 0.2992125984251969,
                    "duration": 2.3541666666666714
                },
                {
                    "name": "F2",
                    "midi": 41,
                    "time": 68.03645833333346,
                    "velocity": 0.3858267716535433,
                    "duration": 0.75
                },
                {
                    "name": "D#2",
                    "midi": 39,
                    "time": 68.78125000000013,
                    "velocity": 0.2440944881889764,
                    "duration": 1.609375
                },
                {
                    "name": "A3",
                    "midi": 57,
                    "time": 70.7760416666668,
                    "velocity": 0.49606299212598426,
                    "duration": 0.1822916666666714
                },
                {
                    "name": "E4",
                    "midi": 64,
                    "time": 71.00520833333347,
                    "velocity": 0.5826771653543307,
                    "duration": 0.4531249999999858
                },
                {
                    "name": "G#4",
                    "midi": 68,
                    "time": 71.0104166666668,
                    "velocity": 0.5354330708661418,
                    "duration": 0.4479166666666572
                },
                {
                    "name": "A3",
                    "midi": 57,
                    "time": 71.0104166666668,
                    "velocity": 0.5669291338582677,
                    "duration": 0.4479166666666572
                },
                {
                    "name": "F3",
                    "midi": 53,
                    "time": 71.0104166666668,
                    "velocity": 0.5669291338582677,
                    "duration": 0.1927083333333286
                },
                {
                    "name": "C#3",
                    "midi": 49,
                    "time": 71.21875000000013,
                    "velocity": 0.6141732283464567,
                    "duration": 0.0989583333333286
                },
                {
                    "name": "A#2",
                    "midi": 46,
                    "time": 71.39583333333346,
                    "velocity": 0.7086614173228346,
                    "duration": 0.1041666666666714
                },
                {
                    "name": "A4",
                    "midi": 69,
                    "time": 71.5729166666668,
                    "velocity": 0.7086614173228346,
                    "duration": 0.3906249999999858
                },
                {
                    "name": "D#4",
                    "midi": 63,
                    "time": 71.57812500000013,
                    "velocity": 0.5354330708661418,
                    "duration": 0.09895833333331439
                },
                {
                    "name": "A#3",
                    "midi": 58,
                    "time": 71.57812500000013,
                    "velocity": 0.5039370078740157,
                    "duration": 0.08854166666665719
                },
                {
                    "name": "F#2",
                    "midi": 42,
                    "time": 71.57812500000013,
                    "velocity": 0.84251968503937,
                    "duration": 0.09374999999998579
                },
                {
                    "name": "E4",
                    "midi": 64,
                    "time": 71.75520833333344,
                    "velocity": 0.7401574803149606,
                    "duration": 0.2083333333333428
                },
                {
                    "name": "G#3",
                    "midi": 56,
                    "time": 71.75520833333344,
                    "velocity": 0.5826771653543307,
                    "duration": 0.1927083333333428
                },
                {
                    "name": "D#2",
                    "midi": 39,
                    "time": 71.75520833333344,
                    "velocity": 0.84251968503937,
                    "duration": 0.1822916666666714
                },
                {
                    "name": "G#4",
                    "midi": 68,
                    "time": 72.13541666666679,
                    "velocity": 0.6771653543307087,
                    "duration": 0.0989583333333286
                },
                {
                    "name": "A2",
                    "midi": 45,
                    "time": 72.13541666666679,
                    "velocity": 0.6299212598425197,
                    "duration": 0.2395833333333286
                },
                {
                    "name": "D#3",
                    "midi": 51,
                    "time": 72.13541666666679,
                    "velocity": 0.5511811023622047,
                    "duration": 0.2447916666666572
                },
                {
                    "name": "G3",
                    "midi": 55,
                    "time": 72.14062500000011,
                    "velocity": 0.6141732283464567,
                    "duration": 0.2291666666666714
                },
                {
                    "name": "D4",
                    "midi": 62,
                    "time": 72.29687500000011,
                    "velocity": 0.6771653543307087,
                    "duration": 0.09375
                },
                {
                    "name": "G#2",
                    "midi": 44,
                    "time": 72.46354166666679,
                    "velocity": 0.5826771653543307,
                    "duration": 0.2552083333333144
                },
                {
                    "name": "F#3",
                    "midi": 54,
                    "time": 72.46354166666679,
                    "velocity": 0.6771653543307087,
                    "duration": 0.2343749999999858
                },
                {
                    "name": "C#3",
                    "midi": 49,
                    "time": 72.46354166666679,
                    "velocity": 0.7086614173228346,
                    "duration": 0.2343749999999858
                },
                {
                    "name": "G3",
                    "midi": 55,
                    "time": 72.46875000000011,
                    "velocity": 0.7086614173228346,
                    "duration": 0.5937499999999858
                },
                {
                    "name": "C2",
                    "midi": 36,
                    "time": 73.27604166666677,
                    "velocity": 0.889763779527559,
                    "duration": 1.0833333333333286
                },
                {
                    "name": "G#6",
                    "midi": 92,
                    "time": 73.85416666666677,
                    "velocity": 0.5826771653543307,
                    "duration": 0.15625
                },
                {
                    "name": "E6",
                    "midi": 88,
                    "time": 73.8593750000001,
                    "velocity": 0.7401574803149606,
                    "duration": 0.2604166666666714
                },
                {
                    "name": "F5",
                    "midi": 77,
                    "time": 74.1406250000001,
                    "velocity": 0.7086614173228346,
                    "duration": 0.1875
                },
                {
                    "name": "C6",
                    "midi": 84,
                    "time": 74.39583333333343,
                    "velocity": 0.6614173228346457,
                    "duration": 0.3437499999999858
                },
                {
                    "name": "D#5",
                    "midi": 75,
                    "time": 74.39583333333343,
                    "velocity": 0.5511811023622047,
                    "duration": 0.3489583333333144
                },
                {
                    "name": "E6",
                    "midi": 88,
                    "time": 74.40104166666676,
                    "velocity": 0.6141732283464567,
                    "duration": 0.3437499999999858
                },
                {
                    "name": "F#1",
                    "midi": 30,
                    "time": 74.40104166666676,
                    "velocity": 0.7401574803149606,
                    "duration": 0.3281249999999858
                },
                {
                    "name": "A4",
                    "midi": 69,
                    "time": 74.88020833333341,
                    "velocity": 0.5826771653543307,
                    "duration": 0.125
                },
                {
                    "name": "E4",
                    "midi": 64,
                    "time": 74.88020833333341,
                    "velocity": 0.7716535433070866,
                    "duration": 0.125
                },
                {
                    "name": "G#3",
                    "midi": 56,
                    "time": 74.88020833333341,
                    "velocity": 0.4566929133858268,
                    "duration": 0.1354166666666714
                },
                {
                    "name": "C4",
                    "midi": 60,
                    "time": 74.88020833333341,
                    "velocity": 0.6299212598425197,
                    "duration": 0.1354166666666714
                },
                {
                    "name": "G#4",
                    "midi": 68,
                    "time": 75.13020833333341,
                    "velocity": 0.5511811023622047,
                    "duration": 0.1145833333333286
                },
                {
                    "name": "G3",
                    "midi": 55,
                    "time": 75.13541666666674,
                    "velocity": 0.5669291338582677,
                    "duration": 0.109375
                },
                {
                    "name": "B3",
                    "midi": 59,
                    "time": 75.13541666666674,
                    "velocity": 0.7716535433070866,
                    "duration": 0.1197916666666714
                },
                {
                    "name": "D#4",
                    "midi": 63,
                    "time": 75.13541666666674,
                    "velocity": 0.5669291338582677,
                    "duration": 0.1197916666666714
                },
                {
                    "name": "G#6",
                    "midi": 92,
                    "time": 75.35937500000009,
                    "velocity": 0.4566929133858268,
                    "duration": 0.7187499999999858
                },
                {
                    "name": "E6",
                    "midi": 88,
                    "time": 75.35937500000009,
                    "velocity": 0.7401574803149606,
                    "duration": 0.7135416666666572
                },
                {
                    "name": "F5",
                    "midi": 77,
                    "time": 75.36458333333341,
                    "velocity": 0.6141732283464567,
                    "duration": 0.11979166666665719
                },
                {
                    "name": "F4",
                    "midi": 65,
                    "time": 75.36979166666674,
                    "velocity": 0.6771653543307087,
                    "duration": 0.0989583333333286
                },
                {
                    "name": "A5",
                    "midi": 81,
                    "time": 75.5520833333334,
                    "velocity": 0.7716535433070866,
                    "duration": 0.1354166666666714
                },
                {
                    "name": "A4",
                    "midi": 69,
                    "time": 75.5520833333334,
                    "velocity": 0.6299212598425197,
                    "duration": 0.125
                },
                {
                    "name": "G5",
                    "midi": 79,
                    "time": 75.73437500000007,
                    "velocity": 0.7952755905511811,
                    "duration": 0.1145833333333286
                },
                {
                    "name": "G4",
                    "midi": 67,
                    "time": 75.7395833333334,
                    "velocity": 0.5826771653543307,
                    "duration": 0.0885416666666714
                },
                {
                    "name": "D5",
                    "midi": 74,
                    "time": 75.9114583333334,
                    "velocity": 0.7952755905511811,
                    "duration": 0.0885416666666714
                },
                {
                    "name": "D4",
                    "midi": 62,
                    "time": 75.9114583333334,
                    "velocity": 0.7716535433070866,
                    "duration": 0.0885416666666714
                },
                {
                    "name": "C#5",
                    "midi": 73,
                    "time": 76.0989583333334,
                    "velocity": 0.7716535433070866,
                    "duration": 0.0729166666666714
                },
                {
                    "name": "C#4",
                    "midi": 61,
                    "time": 76.0989583333334,
                    "velocity": 0.7401574803149606,
                    "duration": 0.08333333333334281
                },
                {
                    "name": "G4",
                    "midi": 67,
                    "time": 76.30208333333341,
                    "velocity": 0.7716535433070866,
                    "duration": 0.109375
                },
                {
                    "name": "G3",
                    "midi": 55,
                    "time": 76.30208333333341,
                    "velocity": 0.6299212598425197,
                    "duration": 0.0885416666666714
                },
                {
                    "name": "G#4",
                    "midi": 68,
                    "time": 76.56770833333341,
                    "velocity": 0.5826771653543307,
                    "duration": 0.6822916666666572
                },
                {
                    "name": "B4",
                    "midi": 71,
                    "time": 76.56770833333341,
                    "velocity": 0.7952755905511811,
                    "duration": 0.6874999999999858
                },
                {
                    "name": "F4",
                    "midi": 65,
                    "time": 76.56770833333341,
                    "velocity": 0.7952755905511811,
                    "duration": 0.6822916666666572
                },
                {
                    "name": "A#5",
                    "midi": 82,
                    "time": 76.57291666666674,
                    "velocity": 0.7086614173228346,
                    "duration": 0.6770833333333286
                },
                {
                    "name": "C6",
                    "midi": 84,
                    "time": 76.57291666666674,
                    "velocity": 0.6771653543307087,
                    "duration": 0.6822916666666572
                },
                {
                    "name": "D#5",
                    "midi": 75,
                    "time": 76.57291666666674,
                    "velocity": 0.7952755905511811,
                    "duration": 0.6874999999999858
                },
                {
                    "name": "A3",
                    "midi": 57,
                    "time": 76.57291666666674,
                    "velocity": 0.7716535433070866,
                    "duration": 0.6874999999999858
                },
                {
                    "name": "D6",
                    "midi": 86,
                    "time": 78.65625000000006,
                    "velocity": 0.2125984251968504,
                    "duration": 0.5677083333333286
                },
                {
                    "name": "C#2",
                    "midi": 37,
                    "time": 78.65625000000006,
                    "velocity": 0.3228346456692913,
                    "duration": 0.5677083333333286
                },
                {
                    "name": "F6",
                    "midi": 89,
                    "time": 78.72916666666673,
                    "velocity": 0.4094488188976378,
                    "duration": 0.4427083333333286
                },
                {
                    "name": "F#1",
                    "midi": 30,
                    "time": 78.72916666666673,
                    "velocity": 0.3228346456692913,
                    "duration": 0.4427083333333286
                },
                {
                    "name": "C#7",
                    "midi": 97,
                    "time": 78.82812500000006,
                    "velocity": 0.47244094488188976,
                    "duration": 0.34375
                },
                {
                    "name": "D1",
                    "midi": 26,
                    "time": 78.82812500000006,
                    "velocity": 0.18110236220472442,
                    "duration": 0.34375
                },
                {
                    "name": "B4",
                    "midi": 71,
                    "time": 79.43229166666671,
                    "velocity": 0.3464566929133858,
                    "duration": 0.0885416666666714
                },
                {
                    "name": "G#3",
                    "midi": 56,
                    "time": 79.44270833333339,
                    "velocity": 0.1968503937007874,
                    "duration": 1.3854166666666572
                },
                {
                    "name": "C4",
                    "midi": 60,
                    "time": 79.44270833333339,
                    "velocity": 0.18110236220472442,
                    "duration": 1.3749999999999858
                },
                {
                    "name": "E4",
                    "midi": 64,
                    "time": 79.44791666666671,
                    "velocity": 0.18110236220472442,
                    "duration": 1.3802083333333286
                },
                {
                    "name": "G4",
                    "midi": 67,
                    "time": 79.57291666666671,
                    "velocity": 0.3228346456692913,
                    "duration": 0.046875
                },
                {
                    "name": "A4",
                    "midi": 69,
                    "time": 79.71875000000004,
                    "velocity": 0.25984251968503935,
                    "duration": 0.234375
                },
                {
                    "name": "F#5",
                    "midi": 78,
                    "time": 80.16666666666671,
                    "velocity": 0.30708661417322836,
                    "duration": 0.1458333333333286
                },
                {
                    "name": "E5",
                    "midi": 76,
                    "time": 80.75000000000004,
                    "velocity": 0.33070866141732286,
                    "duration": 1.8802083333333428
                },
                {
                    "name": "A5",
                    "midi": 81,
                    "time": 80.81770833333337,
                    "velocity": 0.3228346456692913,
                    "duration": 1.802083333333357
                },
                {
                    "name": "D#6",
                    "midi": 87,
                    "time": 80.91666666666671,
                    "velocity": 0.3464566929133858,
                    "duration": 1.7083333333333428
                },
                {
                    "name": "C5",
                    "midi": 72,
                    "time": 81.17708333333339,
                    "velocity": 0.2283464566929134,
                    "duration": 0.2291666666666714
                },
                {
                    "name": "A4",
                    "midi": 69,
                    "time": 81.39062500000006,
                    "velocity": 0.15748031496062992,
                    "duration": 0.34375
                },
                {
                    "name": "C5",
                    "midi": 72,
                    "time": 81.60937500000006,
                    "velocity": 0.15748031496062992,
                    "duration": 0.2760416666666572
                },
                {
                    "name": "G#4",
                    "midi": 68,
                    "time": 81.83333333333339,
                    "velocity": 0.14960629921259844,
                    "duration": 0.296875
                },
                {
                    "name": "F4",
                    "midi": 65,
                    "time": 82.05729166666671,
                    "velocity": 0.16535433070866143,
                    "duration": 0.1666666666666714
                },
                {
                    "name": "G4",
                    "midi": 67,
                    "time": 82.31250000000006,
                    "velocity": 0.16535433070866143,
                    "duration": 0.7291666666666572
                },
                {
                    "name": "A4",
                    "midi": 69,
                    "time": 83.43750000000004,
                    "velocity": 0.3858267716535433,
                    "duration": 1.2031249999999574
                },
                {
                    "name": "F#4",
                    "midi": 66,
                    "time": 83.44270833333337,
                    "velocity": 0.2283464566929134,
                    "duration": 1.1979166666666288
                },
                {
                    "name": "D4",
                    "midi": 62,
                    "time": 83.44270833333337,
                    "velocity": 0.16535433070866143,
                    "duration": 1.1979166666666288
                },
                {
                    "name": "A#3",
                    "midi": 58,
                    "time": 83.4479166666667,
                    "velocity": 0.16535433070866143,
                    "duration": 1.1874999999999716
                },
                {
                    "name": "D#3",
                    "midi": 51,
                    "time": 83.8072916666667,
                    "velocity": 0.30708661417322836,
                    "duration": 0.1979166666666572
                },
                {
                    "name": "D#4",
                    "midi": 63,
                    "time": 83.81250000000003,
                    "velocity": 0.30708661417322836,
                    "duration": 0.1770833333333286
                },
                {
                    "name": "C#3",
                    "midi": 49,
                    "time": 84.13020833333336,
                    "velocity": 0.2125984251968504,
                    "duration": 0.19270833333331439
                },
                {
                    "name": "C#4",
                    "midi": 61,
                    "time": 84.13541666666669,
                    "velocity": 0.16535433070866143,
                    "duration": 0.1822916666666572
                },
                {
                    "name": "G#3",
                    "midi": 56,
                    "time": 84.47395833333334,
                    "velocity": 0.16535433070866143,
                    "duration": 0.4843749999999858
                },
                {
                    "name": "G#2",
                    "midi": 44,
                    "time": 84.47395833333334,
                    "velocity": 0.14960629921259844,
                    "duration": 0.4791666666666572
                },
                {
                    "name": "C#5",
                    "midi": 73,
                    "time": 84.82291666666667,
                    "velocity": 0.3228346456692913,
                    "duration": 0.1302083333333286
                },
                {
                    "name": "D4",
                    "midi": 62,
                    "time": 84.828125,
                    "velocity": 0.2125984251968504,
                    "duration": 0.11458333333334281
                },
                {
                    "name": "F4",
                    "midi": 65,
                    "time": 84.828125,
                    "velocity": 0.2125984251968504,
                    "duration": 0.1197916666666714
                },
                {
                    "name": "A4",
                    "midi": 69,
                    "time": 84.83854166666667,
                    "velocity": 0.16535433070866143,
                    "duration": 0.109375
                },
                {
                    "name": "A5",
                    "midi": 81,
                    "time": 85.25,
                    "velocity": 0.4566929133858268,
                    "duration": 0.8645833333333002
                },
                {
                    "name": "G4",
                    "midi": 67,
                    "time": 85.25,
                    "velocity": 0.5354330708661418,
                    "duration": 0.1354166666666572
                },
                {
                    "name": "A6",
                    "midi": 93,
                    "time": 85.25,
                    "velocity": 0.5118110236220472,
                    "duration": 0.8645833333333002
                },
                {
                    "name": "F6",
                    "midi": 89,
                    "time": 85.25,
                    "velocity": 0.5275590551181102,
                    "duration": 0.8645833333333002
                },
                {
                    "name": "C#6",
                    "midi": 85,
                    "time": 85.25,
                    "velocity": 0.5039370078740157,
                    "duration": 0.8749999999999716
                },
                {
                    "name": "B4",
                    "midi": 71,
                    "time": 85.25,
                    "velocity": 0.5196850393700787,
                    "duration": 0.1354166666666572
                },
                {
                    "name": "D#4",
                    "midi": 63,
                    "time": 85.25,
                    "velocity": 0.4881889763779528,
                    "duration": 0.1406249999999858
                },
                {
                    "name": "D5",
                    "midi": 74,
                    "time": 85.25,
                    "velocity": 0.5511811023622047,
                    "duration": 0.1302083333333286
                },
                {
                    "name": "B1",
                    "midi": 35,
                    "time": 85.59374999999999,
                    "velocity": 0.5039370078740157,
                    "duration": 0.0677083333333286
                },
                {
                    "name": "E2",
                    "midi": 40,
                    "time": 85.69791666666664,
                    "velocity": 0.5433070866141733,
                    "duration": 0.046875
                },
                {
                    "name": "B2",
                    "midi": 47,
                    "time": 85.81249999999997,
                    "velocity": 0.6850393700787402,
                    "duration": 0.020833333333328596
                },
                {
                    "name": "D3",
                    "midi": 50,
                    "time": 85.93749999999997,
                    "velocity": 0.7165354330708661,
                    "duration": 0.125
                },
                {
                    "name": "A6",
                    "midi": 93,
                    "time": 86.16666666666664,
                    "velocity": 0.7086614173228346,
                    "duration": 0.2395833333333286
                },
                {
                    "name": "F6",
                    "midi": 89,
                    "time": 86.16666666666664,
                    "velocity": 0.6299212598425197,
                    "duration": 0.2447916666666572
                },
                {
                    "name": "C#6",
                    "midi": 85,
                    "time": 86.16666666666664,
                    "velocity": 0.5826771653543307,
                    "duration": 0.2395833333333286
                },
                {
                    "name": "A5",
                    "midi": 81,
                    "time": 86.16666666666664,
                    "velocity": 0.6299212598425197,
                    "duration": 0.2552083333333286
                },
                {
                    "name": "G#3",
                    "midi": 56,
                    "time": 86.16666666666664,
                    "velocity": 0.5826771653543307,
                    "duration": 0.046875
                },
                {
                    "name": "A6",
                    "midi": 93,
                    "time": 86.51041666666664,
                    "velocity": 0.7952755905511811,
                    "duration": 0.28125
                },
                {
                    "name": "F6",
                    "midi": 89,
                    "time": 86.51041666666664,
                    "velocity": 0.84251968503937,
                    "duration": 0.28125
                },
                {
                    "name": "C#6",
                    "midi": 85,
                    "time": 86.51041666666664,
                    "velocity": 0.7401574803149606,
                    "duration": 0.28125
                },
                {
                    "name": "A5",
                    "midi": 81,
                    "time": 86.51041666666664,
                    "velocity": 0.7716535433070866,
                    "duration": 0.28125
                },
                {
                    "name": "D#4",
                    "midi": 63,
                    "time": 86.51562499999997,
                    "velocity": 0.4566929133858268,
                    "duration": 0.041666666666671404
                },
                {
                    "name": "A4",
                    "midi": 69,
                    "time": 86.51562499999997,
                    "velocity": 0.5511811023622047,
                    "duration": 0.046875
                },
                {
                    "name": "A6",
                    "midi": 93,
                    "time": 86.91666666666664,
                    "velocity": 0.7086614173228346,
                    "duration": 0.2343749999999858
                },
                {
                    "name": "C#6",
                    "midi": 85,
                    "time": 86.92187499999997,
                    "velocity": 0.84251968503937,
                    "duration": 0.2343749999999858
                },
                {
                    "name": "F6",
                    "midi": 89,
                    "time": 86.92187499999997,
                    "velocity": 0.7952755905511811,
                    "duration": 0.2343749999999858
                },
                {
                    "name": "A5",
                    "midi": 81,
                    "time": 86.9270833333333,
                    "velocity": 0.7952755905511811,
                    "duration": 0.2343749999999858
                },
                {
                    "name": "A#4",
                    "midi": 70,
                    "time": 86.9270833333333,
                    "velocity": 0.5196850393700787,
                    "duration": 0.03125
                },
                {
                    "name": "F#5",
                    "midi": 78,
                    "time": 86.9270833333333,
                    "velocity": 0.6614173228346457,
                    "duration": 0.020833333333328596
                },
                {
                    "name": "E6",
                    "midi": 88,
                    "time": 87.22916666666661,
                    "velocity": 0.7952755905511811,
                    "duration": 0.3854166666666714
                },
                {
                    "name": "A#5",
                    "midi": 82,
                    "time": 87.23437499999994,
                    "velocity": 0.8740157480314961,
                    "duration": 0.3802083333333428
                },
                {
                    "name": "G#3",
                    "midi": 56,
                    "time": 87.23437499999994,
                    "velocity": 0.5826771653543307,
                    "duration": 0.1354166666666714
                },
                {
                    "name": "F4",
                    "midi": 65,
                    "time": 87.23437499999994,
                    "velocity": 0.7952755905511811,
                    "duration": 0.1354166666666714
                },
                {
                    "name": "A4",
                    "midi": 69,
                    "time": 87.23437499999994,
                    "velocity": 0.7086614173228346,
                    "duration": 0.1354166666666714
                },
                {
                    "name": "D#5",
                    "midi": 75,
                    "time": 87.24479166666661,
                    "velocity": 0.84251968503937,
                    "duration": 0.125
                },
                {
                    "name": "G#4",
                    "midi": 68,
                    "time": 87.48958333333329,
                    "velocity": 0.6299212598425197,
                    "duration": 0.15625
                },
                {
                    "name": "E4",
                    "midi": 64,
                    "time": 87.49479166666661,
                    "velocity": 0.84251968503937,
                    "duration": 0.1614583333333428
                },
                {
                    "name": "A3",
                    "midi": 57,
                    "time": 87.49479166666661,
                    "velocity": 0.7952755905511811,
                    "duration": 0.1666666666666714
                },
                {
                    "name": "F5",
                    "midi": 77,
                    "time": 87.49479166666661,
                    "velocity": 0.937007874015748,
                    "duration": 0.1197916666666714
                },
                {
                    "name": "D#6",
                    "midi": 87,
                    "time": 87.76041666666661,
                    "velocity": 0.6614173228346457,
                    "duration": 0.3749999999999858
                },
                {
                    "name": "A5",
                    "midi": 81,
                    "time": 87.76041666666661,
                    "velocity": 0.937007874015748,
                    "duration": 0.3749999999999858
                },
                {
                    "name": "D5",
                    "midi": 74,
                    "time": 87.76041666666661,
                    "velocity": 0.84251968503937,
                    "duration": 0.1562499999999858
                },
                {
                    "name": "F#3",
                    "midi": 54,
                    "time": 87.76041666666661,
                    "velocity": 0.6614173228346457,
                    "duration": 0.1510416666666572
                },
                {
                    "name": "G4",
                    "midi": 67,
                    "time": 87.76041666666661,
                    "velocity": 0.7401574803149606,
                    "duration": 0.1510416666666572
                },
                {
                    "name": "B3",
                    "midi": 59,
                    "time": 87.76041666666661,
                    "velocity": 0.7401574803149606,
                    "duration": 0.1458333333333286
                },
                {
                    "name": "C#5",
                    "midi": 73,
                    "time": 88.00520833333327,
                    "velocity": 0.6299212598425197,
                    "duration": 0.1354166666666572
                },
                {
                    "name": "E4",
                    "midi": 64,
                    "time": 88.0104166666666,
                    "velocity": 0.6141732283464567,
                    "duration": 0.1354166666666572
                },
                {
                    "name": "F3",
                    "midi": 53,
                    "time": 88.0104166666666,
                    "velocity": 0.6614173228346457,
                    "duration": 0.1406249999999858
                },
                {
                    "name": "C4",
                    "midi": 60,
                    "time": 88.0104166666666,
                    "velocity": 0.5826771653543307,
                    "duration": 0.1354166666666572
                },
                {
                    "name": "F4",
                    "midi": 65,
                    "time": 88.24999999999991,
                    "velocity": 0.5354330708661418,
                    "duration": 0.1250000000000142
                },
                {
                    "name": "C#4",
                    "midi": 61,
                    "time": 88.24999999999991,
                    "velocity": 0.5354330708661418,
                    "duration": 0.1302083333333428
                },
                {
                    "name": "E3",
                    "midi": 52,
                    "time": 88.24999999999991,
                    "velocity": 0.6299212598425197,
                    "duration": 0.1458333333333428
                },
                {
                    "name": "C5",
                    "midi": 72,
                    "time": 88.24999999999991,
                    "velocity": 0.6614173228346457,
                    "duration": 0.3802083333333286
                },
                {
                    "name": "B5",
                    "midi": 83,
                    "time": 88.24999999999991,
                    "velocity": 0.7401574803149606,
                    "duration": 0.375
                },
                {
                    "name": "D#5",
                    "midi": 75,
                    "time": 88.36458333333326,
                    "velocity": 0.6141732283464567,
                    "duration": 0.0677083333333286
                },
                {
                    "name": "F#3",
                    "midi": 54,
                    "time": 88.48958333333326,
                    "velocity": 0.7086614173228346,
                    "duration": 0.14583333333331439
                },
                {
                    "name": "D#3",
                    "midi": 51,
                    "time": 88.49479166666659,
                    "velocity": 0.5826771653543307,
                    "duration": 0.1406249999999858
                },
                {
                    "name": "D4",
                    "midi": 62,
                    "time": 88.49999999999991,
                    "velocity": 0.7086614173228346,
                    "duration": 0.1354166666666572
                },
                {
                    "name": "G#5",
                    "midi": 80,
                    "time": 88.49999999999991,
                    "velocity": 0.8740157480314961,
                    "duration": 20.776041666666444
                },
                {
                    "name": "D#5",
                    "midi": 75,
                    "time": 88.77083333333324,
                    "velocity": 0.6299212598425197,
                    "duration": 1.2031249999999858
                },
                {
                    "name": "D3",
                    "midi": 50,
                    "time": 88.77604166666657,
                    "velocity": 0.6771653543307087,
                    "duration": 0.1302083333333286
                },
                {
                    "name": "C#2",
                    "midi": 37,
                    "time": 88.77604166666657,
                    "velocity": 0.5511811023622047,
                    "duration": 0.2708333333333286
                },
                {
                    "name": "D4",
                    "midi": 62,
                    "time": 88.77604166666657,
                    "velocity": 0.6771653543307087,
                    "duration": 0.1510416666666572
                },
                {
                    "name": "F#2",
                    "midi": 42,
                    "time": 88.77604166666657,
                    "velocity": 0.6141732283464567,
                    "duration": 0.2760416666666572
                },
                {
                    "name": "E3",
                    "midi": 52,
                    "time": 88.98958333333323,
                    "velocity": 0.5669291338582677,
                    "duration": 0.0625
                },
                {
                    "name": "E4",
                    "midi": 64,
                    "time": 88.98958333333323,
                    "velocity": 0.7086614173228346,
                    "duration": 0.1666666666666714
                },
                {
                    "name": "F#2",
                    "midi": 42,
                    "time": 89.19791666666657,
                    "velocity": 0.5039370078740157,
                    "duration": 0.0989583333333286
                },
                {
                    "name": "G3",
                    "midi": 55,
                    "time": 89.2031249999999,
                    "velocity": 0.6141732283464567,
                    "duration": 0.0989583333333286
                },
                {
                    "name": "B2",
                    "midi": 47,
                    "time": 89.2031249999999,
                    "velocity": 0.84251968503937,
                    "duration": 0.09375
                },
                {
                    "name": "G4",
                    "midi": 67,
                    "time": 89.2031249999999,
                    "velocity": 0.7716535433070866,
                    "duration": 0.15625
                },
                {
                    "name": "D5",
                    "midi": 74,
                    "time": 89.41145833333323,
                    "velocity": 0.6771653543307087,
                    "duration": 0.125
                },
                {
                    "name": "D4",
                    "midi": 62,
                    "time": 89.41145833333323,
                    "velocity": 0.6771653543307087,
                    "duration": 0.052083333333328596
                },
                {
                    "name": "G#2",
                    "midi": 44,
                    "time": 89.61979166666656,
                    "velocity": 0.5354330708661418,
                    "duration": 0.65625
                },
                {
                    "name": "A4",
                    "midi": 69,
                    "time": 89.61979166666656,
                    "velocity": 0.6771653543307087,
                    "duration": 0.1666666666666714
                },
                {
                    "name": "C#3",
                    "midi": 49,
                    "time": 89.61979166666656,
                    "velocity": 0.7401574803149606,
                    "duration": 0.515625
                },
                {
                    "name": "A3",
                    "midi": 57,
                    "time": 89.61979166666656,
                    "velocity": 0.7401574803149606,
                    "duration": 0.1666666666666714
                },
                {
                    "name": "E4",
                    "midi": 64,
                    "time": 89.85416666666656,
                    "velocity": 0.6299212598425197,
                    "duration": 0.1302083333333428
                },
                {
                    "name": "E3",
                    "midi": 52,
                    "time": 89.85416666666656,
                    "velocity": 0.5669291338582677,
                    "duration": 0.1302083333333428
                },
                {
                    "name": "C4",
                    "midi": 60,
                    "time": 90.1249999999999,
                    "velocity": 0.5669291338582677,
                    "duration": 1.8645833333332718
                },
                {
                    "name": "B4",
                    "midi": 71,
                    "time": 90.1249999999999,
                    "velocity": 0.5826771653543307,
                    "duration": 1.8593749999999432
                },
                {
                    "name": "F4",
                    "midi": 65,
                    "time": 90.13020833333323,
                    "velocity": 0.5511811023622047,
                    "duration": 1.8645833333332718
                },
                {
                    "name": "G#3",
                    "midi": 56,
                    "time": 90.39062499999989,
                    "velocity": 0.5511811023622047,
                    "duration": 0.1666666666666572
                },
                {
                    "name": "C#3",
                    "midi": 49,
                    "time": 90.73437499999987,
                    "velocity": 0.44881889763779526,
                    "duration": 0.265625
                },
                {
                    "name": "A2",
                    "midi": 45,
                    "time": 91.08854166666654,
                    "velocity": 0.33858267716535434,
                    "duration": 0.1979166666666572
                },
                {
                    "name": "F2",
                    "midi": 41,
                    "time": 91.43229166666653,
                    "velocity": 0.2755905511811024,
                    "duration": 0.1718749999999858
                },
                {
                    "name": "G1",
                    "midi": 31,
                    "time": 91.80729166666652,
                    "velocity": 0.2204724409448819,
                    "duration": 0.1874999999999858
                },
                {
                    "name": "G#4",
                    "midi": 68,
                    "time": 92.14583333333317,
                    "velocity": 0.5826771653543307,
                    "duration": 0.4739583333333144
                },
                {
                    "name": "E4",
                    "midi": 64,
                    "time": 92.14583333333317,
                    "velocity": 0.84251968503937,
                    "duration": 0.4739583333333144
                },
                {
                    "name": "G3",
                    "midi": 55,
                    "time": 92.14583333333317,
                    "velocity": 0.7086614173228346,
                    "duration": 0.1979166666666572
                },
                {
                    "name": "D3",
                    "midi": 50,
                    "time": 92.41145833333316,
                    "velocity": 0.2125984251968504,
                    "duration": 0.0729166666666714
                },
                {
                    "name": "A3",
                    "midi": 57,
                    "time": 92.48437499999983,
                    "velocity": 0.84251968503937,
                    "duration": 0.1354166666666572
                },
                {
                    "name": "C#3",
                    "midi": 49,
                    "time": 92.48958333333316,
                    "velocity": 0.5039370078740157,
                    "duration": 0.1302083333333286
                },
                {
                    "name": "C5",
                    "midi": 72,
                    "time": 92.73437499999982,
                    "velocity": 0.7086614173228346,
                    "duration": 0.385416666666643
                },
                {
                    "name": "G#4",
                    "midi": 68,
                    "time": 92.73437499999982,
                    "velocity": 0.6299212598425197,
                    "duration": 0.385416666666643
                },
                {
                    "name": "B3",
                    "midi": 59,
                    "time": 92.73958333333314,
                    "velocity": 0.7086614173228346,
                    "duration": 0.1302083333333286
                },
                {
                    "name": "A#2",
                    "midi": 46,
                    "time": 92.91666666666647,
                    "velocity": 0.3700787401574803,
                    "duration": 0.0677083333333286
                },
                {
                    "name": "C#4",
                    "midi": 61,
                    "time": 92.9999999999998,
                    "velocity": 0.7952755905511811,
                    "duration": 0.10416666666665719
                },
                {
                    "name": "A2",
                    "midi": 45,
                    "time": 93.00520833333313,
                    "velocity": 0.6771653543307087,
                    "duration": 0.125
                },
                {
                    "name": "E5",
                    "midi": 76,
                    "time": 93.22395833333313,
                    "velocity": 0.7401574803149606,
                    "duration": 0.0833333333333286
                },
                {
                    "name": "B4",
                    "midi": 71,
                    "time": 93.22395833333313,
                    "velocity": 0.7952755905511811,
                    "duration": 0.0833333333333286
                },
                {
                    "name": "F4",
                    "midi": 65,
                    "time": 93.22395833333313,
                    "velocity": 0.7401574803149606,
                    "duration": 0.140625
                },
                {
                    "name": "G2",
                    "midi": 43,
                    "time": 93.33854166666646,
                    "velocity": 0.5826771653543307,
                    "duration": 0.057291666666671404
                },
                {
                    "name": "F#5",
                    "midi": 78,
                    "time": 93.33854166666646,
                    "velocity": 0.937007874015748,
                    "duration": 0.109375
                },
                {
                    "name": "F2",
                    "midi": 41,
                    "time": 93.45312499999979,
                    "velocity": 0.84251968503937,
                    "duration": 0.03125
                },
                {
                    "name": "A#5",
                    "midi": 82,
                    "time": 93.45312499999979,
                    "velocity": 0.84251968503937,
                    "duration": 0.078125
                },
                {
                    "name": "D5",
                    "midi": 74,
                    "time": 93.56249999999979,
                    "velocity": 0.84251968503937,
                    "duration": 0.046875
                },
                {
                    "name": "D#2",
                    "midi": 39,
                    "time": 93.56249999999979,
                    "velocity": 0.8740157480314961,
                    "duration": 0.046875
                },
                {
                    "name": "D#6",
                    "midi": 87,
                    "time": 93.67708333333312,
                    "velocity": 0.968503937007874,
                    "duration": 0.03125
                },
                {
                    "name": "D2",
                    "midi": 38,
                    "time": 93.67708333333312,
                    "velocity": 0.84251968503937,
                    "duration": 0.03125
                },
                {
                    "name": "A5",
                    "midi": 81,
                    "time": 93.79166666666644,
                    "velocity": 0.968503937007874,
                    "duration": 0.04166666666665719
                },
                {
                    "name": "C2",
                    "midi": 36,
                    "time": 93.79166666666644,
                    "velocity": 0.8740157480314961,
                    "duration": 0.04166666666665719
                },
                {
                    "name": "A#1",
                    "midi": 34,
                    "time": 93.8958333333331,
                    "velocity": 0.968503937007874,
                    "duration": 0.05208333333334281
                },
                {
                    "name": "G5",
                    "midi": 79,
                    "time": 93.8958333333331,
                    "velocity": 0.968503937007874,
                    "duration": 0.03645833333334281
                },
                {
                    "name": "A1",
                    "midi": 33,
                    "time": 94.03645833333312,
                    "velocity": 0.968503937007874,
                    "duration": 0.05208333333334281
                },
                {
                    "name": "G#6",
                    "midi": 92,
                    "time": 94.03645833333312,
                    "velocity": 0.8740157480314961,
                    "duration": 0.020833333333342807
                },
                {
                    "name": "A#1",
                    "midi": 34,
                    "time": 94.32291666666646,
                    "velocity": 0.968503937007874,
                    "duration": 0.1197916666666714
                },
                {
                    "name": "A#0",
                    "midi": 22,
                    "time": 94.32291666666646,
                    "velocity": 0.968503937007874,
                    "duration": 0.1197916666666714
                },
                {
                    "name": "D7",
                    "midi": 98,
                    "time": 95.1406249999998,
                    "velocity": 0.968503937007874,
                    "duration": 0.5572916666666714
                },
                {
                    "name": "A#6",
                    "midi": 94,
                    "time": 95.1406249999998,
                    "velocity": 0.968503937007874,
                    "duration": 0.5572916666666714
                },
                {
                    "name": "C#4",
                    "midi": 61,
                    "time": 95.1406249999998,
                    "velocity": 0.7086614173228346,
                    "duration": 0.5572916666666714
                },
                {
                    "name": "B4",
                    "midi": 71,
                    "time": 95.1406249999998,
                    "velocity": 0.84251968503937,
                    "duration": 0.546875
                },
                {
                    "name": "F#6",
                    "midi": 90,
                    "time": 95.1406249999998,
                    "velocity": 0.968503937007874,
                    "duration": 0.5572916666666714
                },
                {
                    "name": "F4",
                    "midi": 65,
                    "time": 95.14583333333313,
                    "velocity": 0.937007874015748,
                    "duration": 0.5416666666666714
                },
                {
                    "name": "D6",
                    "midi": 86,
                    "time": 95.14583333333313,
                    "velocity": 0.968503937007874,
                    "duration": 0.5520833333333428
                },
                {
                    "name": "A3",
                    "midi": 57,
                    "time": 95.14583333333313,
                    "velocity": 0.8740157480314961,
                    "duration": 0.5520833333333428
                },
                {
                    "name": "C#3",
                    "midi": 49,
                    "time": 96.06770833333314,
                    "velocity": 0.4409448818897638,
                    "duration": 0.020833333333328596
                },
                {
                    "name": "A#3",
                    "midi": 58,
                    "time": 96.07291666666647,
                    "velocity": 0.3937007874015748,
                    "duration": 0.3229166666666714
                },
                {
                    "name": "C4",
                    "midi": 60,
                    "time": 96.07291666666647,
                    "velocity": 0.4409448818897638,
                    "duration": 0.328125
                },
                {
                    "name": "F3",
                    "midi": 53,
                    "time": 96.07291666666647,
                    "velocity": 0.4881889763779528,
                    "duration": 0.328125
                },
                {
                    "name": "D3",
                    "midi": 50,
                    "time": 96.07291666666647,
                    "velocity": 0.4566929133858268,
                    "duration": 0.328125
                },
                {
                    "name": "A2",
                    "midi": 45,
                    "time": 96.1249999999998,
                    "velocity": 0.2125984251968504,
                    "duration": 0.010416666666671404
                },
                {
                    "name": "D2",
                    "midi": 38,
                    "time": 96.16145833333314,
                    "velocity": 0.2125984251968504,
                    "duration": 0.010416666666671404
                },
                {
                    "name": "G#1",
                    "midi": 32,
                    "time": 96.24999999999982,
                    "velocity": 0.14960629921259844,
                    "duration": 0.1302083333333286
                },
                {
                    "name": "G1",
                    "midi": 31,
                    "time": 96.81770833333314,
                    "velocity": 0.2283464566929134,
                    "duration": 0.041666666666671404
                },
                {
                    "name": "A#1",
                    "midi": 34,
                    "time": 96.96354166666649,
                    "velocity": 0.14960629921259844,
                    "duration": 0.052083333333328596
                },
                {
                    "name": "G3",
                    "midi": 55,
                    "time": 97.03645833333314,
                    "velocity": 0.2125984251968504,
                    "duration": 0.015625
                },
                {
                    "name": "C4",
                    "midi": 60,
                    "time": 97.06770833333314,
                    "velocity": 0.25984251968503935,
                    "duration": 0.015625
                },
                {
                    "name": "A4",
                    "midi": 69,
                    "time": 97.11979166666647,
                    "velocity": 0.4566929133858268,
                    "duration": 0.026041666666671404
                },
                {
                    "name": "F#4",
                    "midi": 66,
                    "time": 97.11979166666647,
                    "velocity": 0.3937007874015748,
                    "duration": 0.03125
                },
                {
                    "name": "E2",
                    "midi": 40,
                    "time": 97.31770833333314,
                    "velocity": 0.16535433070866143,
                    "duration": 0.0885416666666714
                },
                {
                    "name": "F#2",
                    "midi": 42,
                    "time": 97.48958333333314,
                    "velocity": 0.18110236220472442,
                    "duration": 0.0729166666666714
                },
                {
                    "name": "G3",
                    "midi": 55,
                    "time": 97.56249999999982,
                    "velocity": 0.33858267716535434,
                    "duration": 0.03125
                },
                {
                    "name": "B3",
                    "midi": 59,
                    "time": 97.59895833333314,
                    "velocity": 0.3937007874015748,
                    "duration": 0.020833333333328596
                },
                {
                    "name": "D#4",
                    "midi": 63,
                    "time": 97.65104166666647,
                    "velocity": 0.18110236220472442,
                    "duration": 0.03125
                },
                {
                    "name": "F4",
                    "midi": 65,
                    "time": 97.65104166666647,
                    "velocity": 0.4094488188976378,
                    "duration": 0.015625
                },
                {
                    "name": "B4",
                    "midi": 71,
                    "time": 98.02083333333314,
                    "velocity": 0.4094488188976378,
                    "duration": 0.140625
                },
                {
                    "name": "F4",
                    "midi": 65,
                    "time": 98.02083333333314,
                    "velocity": 0.4251968503937008,
                    "duration": 0.1302083333333286
                },
                {
                    "name": "A#3",
                    "midi": 58,
                    "time": 98.08854166666647,
                    "velocity": 0.47244094488188976,
                    "duration": 0.1458333333333428
                },
                {
                    "name": "B1",
                    "midi": 35,
                    "time": 98.0937499999998,
                    "velocity": 0.4881889763779528,
                    "duration": 0.8229166666666714
                },
                {
                    "name": "E2",
                    "midi": 40,
                    "time": 98.0937499999998,
                    "velocity": 0.4881889763779528,
                    "duration": 0.8177083333333428
                },
                {
                    "name": "A2",
                    "midi": 45,
                    "time": 98.0937499999998,
                    "velocity": 0.4881889763779528,
                    "duration": 0.8229166666666714
                },
                {
                    "name": "G#3",
                    "midi": 56,
                    "time": 98.30729166666649,
                    "velocity": 0.4566929133858268,
                    "duration": 0.5989583333333286
                },
                {
                    "name": "E4",
                    "midi": 64,
                    "time": 98.48958333333314,
                    "velocity": 0.2283464566929134,
                    "duration": 0.40625
                },
                {
                    "name": "G4",
                    "midi": 67,
                    "time": 98.70312499999982,
                    "velocity": 0.16535433070866143,
                    "duration": 0.203125
                },
                {
                    "name": "F2",
                    "midi": 41,
                    "time": 99.0624999999998,
                    "velocity": 0.4409448818897638,
                    "duration": 0.0677083333333286
                },
                {
                    "name": "B2",
                    "midi": 47,
                    "time": 99.0624999999998,
                    "velocity": 0.3700787401574803,
                    "duration": 0.0677083333333286
                },
                {
                    "name": "A#1",
                    "midi": 34,
                    "time": 99.1249999999998,
                    "velocity": 0.4566929133858268,
                    "duration": 0.3749999999999858
                },
                {
                    "name": "G#1",
                    "midi": 32,
                    "time": 99.52083333333312,
                    "velocity": 0.2440944881889764,
                    "duration": 0.6145833333333144
                },
                {
                    "name": "E6",
                    "midi": 88,
                    "time": 99.86979166666644,
                    "velocity": 0.2125984251968504,
                    "duration": 0.1614583333333286
                },
                {
                    "name": "A5",
                    "midi": 81,
                    "time": 99.87499999999977,
                    "velocity": 0.3700787401574803,
                    "duration": 0.1458333333333286
                },
                {
                    "name": "D5",
                    "midi": 74,
                    "time": 99.8802083333331,
                    "velocity": 0.30708661417322836,
                    "duration": 0.125
                },
                {
                    "name": "C5",
                    "midi": 72,
                    "time": 100.3489583333331,
                    "velocity": 0.3228346456692913,
                    "duration": 0.0833333333333286
                },
                {
                    "name": "F#6",
                    "midi": 90,
                    "time": 100.45312499999976,
                    "velocity": 0.4251968503937008,
                    "duration": 0.609375
                },
                {
                    "name": "G5",
                    "midi": 79,
                    "time": 100.45312499999976,
                    "velocity": 0.4251968503937008,
                    "duration": 0.640625
                },
                {
                    "name": "G#2",
                    "midi": 44,
                    "time": 102.10416666666643,
                    "velocity": 0.4094488188976378,
                    "duration": 0.171875
                },
                {
                    "name": "D#5",
                    "midi": 75,
                    "time": 102.10416666666643,
                    "velocity": 0.7244094488188977,
                    "duration": 0.7604166666666572
                },
                {
                    "name": "F3",
                    "midi": 53,
                    "time": 102.10416666666643,
                    "velocity": 0.6141732283464567,
                    "duration": 0.171875
                },
                {
                    "name": "A3",
                    "midi": 57,
                    "time": 102.27604166666643,
                    "velocity": 0.6141732283464567,
                    "duration": 0.1875
                },
                {
                    "name": "E4",
                    "midi": 64,
                    "time": 102.46354166666643,
                    "velocity": 0.5826771653543307,
                    "duration": 0.1927083333333286
                },
                {
                    "name": "G4",
                    "midi": 67,
                    "time": 102.66145833333309,
                    "velocity": 0.47244094488188976,
                    "duration": 0.203125
                },
                {
                    "name": "C5",
                    "midi": 72,
                    "time": 102.85416666666642,
                    "velocity": 0.6614173228346457,
                    "duration": 0.796875
                },
                {
                    "name": "D4",
                    "midi": 62,
                    "time": 102.86458333333309,
                    "velocity": 0.4251968503937008,
                    "duration": 0.9947916666666572
                },
                {
                    "name": "E4",
                    "midi": 64,
                    "time": 103.66145833333309,
                    "velocity": 0.6141732283464567,
                    "duration": 0.5937499999999858
                },
                {
                    "name": "D#4",
                    "midi": 63,
                    "time": 103.85416666666642,
                    "velocity": 0.5196850393700787,
                    "duration": 0.1927083333333286
                },
                {
                    "name": "F3",
                    "midi": 53,
                    "time": 104.04687499999974,
                    "velocity": 0.6771653543307087,
                    "duration": 0.2083333333333286
                },
                {
                    "name": "D3",
                    "midi": 50,
                    "time": 104.23958333333307,
                    "velocity": 0.5275590551181102,
                    "duration": 0.1927083333333286
                },
                {
                    "name": "G4",
                    "midi": 67,
                    "time": 104.2447916666664,
                    "velocity": 0.5826771653543307,
                    "duration": 0.1875
                },
                {
                    "name": "D4",
                    "midi": 62,
                    "time": 104.4322916666664,
                    "velocity": 0.6299212598425197,
                    "duration": 0.578125
                },
                {
                    "name": "G#3",
                    "midi": 56,
                    "time": 104.4322916666664,
                    "velocity": 0.4881889763779528,
                    "duration": 0.21875
                },
                {
                    "name": "C#4",
                    "midi": 61,
                    "time": 104.6510416666664,
                    "velocity": 0.4881889763779528,
                    "duration": 0.0885416666666714
                },
                {
                    "name": "C3",
                    "midi": 48,
                    "time": 104.9010416666664,
                    "velocity": 0.4409448818897638,
                    "duration": 0.234375
                },
                {
                    "name": "C5",
                    "midi": 72,
                    "time": 105.1354166666664,
                    "velocity": 0.5826771653543307,
                    "duration": 0.5468749999999858
                },
                {
                    "name": "C#4",
                    "midi": 61,
                    "time": 105.1354166666664,
                    "velocity": 0.4566929133858268,
                    "duration": 0.1354166666666572
                },
                {
                    "name": "G2",
                    "midi": 43,
                    "time": 105.14062499999973,
                    "velocity": 0.3228346456692913,
                    "duration": 0.1302083333333286
                },
                {
                    "name": "B3",
                    "midi": 59,
                    "time": 105.34895833333306,
                    "velocity": 0.5511811023622047,
                    "duration": 0.0989583333333286
                },
                {
                    "name": "F#2",
                    "midi": 42,
                    "time": 105.34895833333306,
                    "velocity": 0.4409448818897638,
                    "duration": 1.7864583333333002
                },
                {
                    "name": "C#4",
                    "midi": 61,
                    "time": 105.57291666666639,
                    "velocity": 0.4566929133858268,
                    "duration": 0.125
                },
                {
                    "name": "A4",
                    "midi": 69,
                    "time": 105.82812499999972,
                    "velocity": 0.5590551181102362,
                    "duration": 1.3020833333333144
                },
                {
                    "name": "F4",
                    "midi": 65,
                    "time": 105.83333333333304,
                    "velocity": 0.49606299212598426,
                    "duration": 1.2968749999999858
                },
                {
                    "name": "A#3",
                    "midi": 58,
                    "time": 105.83333333333304,
                    "velocity": 0.3937007874015748,
                    "duration": 1.2760416666666572
                },
                {
                    "name": "E5",
                    "midi": 76,
                    "time": 107.41145833333303,
                    "velocity": 0.7952755905511811,
                    "duration": 0.2291666666666572
                },
                {
                    "name": "C#5",
                    "midi": 73,
                    "time": 107.41666666666636,
                    "velocity": 0.7086614173228346,
                    "duration": 0.21875
                },
                {
                    "name": "A4",
                    "midi": 69,
                    "time": 107.41666666666636,
                    "velocity": 0.84251968503937,
                    "duration": 0.21875
                },
                {
                    "name": "D4",
                    "midi": 62,
                    "time": 107.41666666666636,
                    "velocity": 0.7716535433070866,
                    "duration": 0.2291666666666572
                },
                {
                    "name": "G#2",
                    "midi": 44,
                    "time": 107.42187499999969,
                    "velocity": 0.6771653543307087,
                    "duration": 0.2864583333333286
                },
                {
                    "name": "G#3",
                    "midi": 56,
                    "time": 107.42187499999969,
                    "velocity": 0.5826771653543307,
                    "duration": 0.2395833333333286
                },
                {
                    "name": "G#5",
                    "midi": 80,
                    "time": 107.88020833333302,
                    "velocity": 0.7086614173228346,
                    "duration": 6.223958333333329
                },
                {
                    "name": "F5",
                    "midi": 77,
                    "time": 107.88020833333302,
                    "velocity": 0.84251968503937,
                    "duration": 1.4010416666666714
                },
                {
                    "name": "E3",
                    "midi": 52,
                    "time": 107.88020833333302,
                    "velocity": 0.6614173228346457,
                    "duration": 0.265625
                },
                {
                    "name": "A4",
                    "midi": 69,
                    "time": 107.88020833333302,
                    "velocity": 0.7086614173228346,
                    "duration": 1.40625
                },
                {
                    "name": "E2",
                    "midi": 40,
                    "time": 107.88020833333302,
                    "velocity": 0.6141732283464567,
                    "duration": 0.265625
                },
                {
                    "name": "D4",
                    "midi": 62,
                    "time": 108.32291666666634,
                    "velocity": 0.8582677165354331,
                    "duration": 0.1770833333333286
                },
                {
                    "name": "D#4",
                    "midi": 63,
                    "time": 108.68229166666634,
                    "velocity": 0.8976377952755905,
                    "duration": 0.2135416666666714
                },
                {
                    "name": "D4",
                    "midi": 62,
                    "time": 109.07812499999969,
                    "velocity": 0.937007874015748,
                    "duration": 0.2239583333333286
                },
                {
                    "name": "C4",
                    "midi": 60,
                    "time": 109.50520833333302,
                    "velocity": 0.7086614173228346,
                    "duration": 1.6041666666666714
                },
                {
                    "name": "C#3",
                    "midi": 49,
                    "time": 109.50520833333302,
                    "velocity": 0.7007874015748031,
                    "duration": 1.5989583333333428
                },
                {
                    "name": "G3",
                    "midi": 55,
                    "time": 109.50520833333302,
                    "velocity": 0.6692913385826772,
                    "duration": 1.5989583333333428
                },
                {
                    "name": "D3",
                    "midi": 50,
                    "time": 109.87499999999969,
                    "velocity": 0.6614173228346457,
                    "duration": 0.4427083333333428
                },
                {
                    "name": "D2",
                    "midi": 38,
                    "time": 109.87499999999969,
                    "velocity": 0.6614173228346457,
                    "duration": 0.4427083333333428
                },
                {
                    "name": "F2",
                    "midi": 41,
                    "time": 110.4374999999997,
                    "velocity": 0.6771653543307087,
                    "duration": 0.7864583333333144
                },
                {
                    "name": "F3",
                    "midi": 53,
                    "time": 110.44270833333303,
                    "velocity": 0.7952755905511811,
                    "duration": 0.7656249999999858
                },
                {
                    "name": "A5",
                    "midi": 81,
                    "time": 111.94270833333302,
                    "velocity": 0.7401574803149606,
                    "duration": 0.9947916666666856
                },
                {
                    "name": "E5",
                    "midi": 76,
                    "time": 111.94270833333302,
                    "velocity": 0.7086614173228346,
                    "duration": 0.9947916666666856
                },
                {
                    "name": "C4",
                    "midi": 60,
                    "time": 111.94270833333302,
                    "velocity": 0.7401574803149606,
                    "duration": 0.21875
                },
                {
                    "name": "C#5",
                    "midi": 73,
                    "time": 111.94791666666634,
                    "velocity": 0.6771653543307087,
                    "duration": 0.989583333333357
                },
                {
                    "name": "F#3",
                    "midi": 54,
                    "time": 111.94791666666634,
                    "velocity": 0.6614173228346457,
                    "duration": 0.2135416666666714
                },
                {
                    "name": "F4",
                    "midi": 65,
                    "time": 111.94791666666634,
                    "velocity": 0.6299212598425197,
                    "duration": 0.2135416666666714
                },
                {
                    "name": "A#4",
                    "midi": 70,
                    "time": 111.94791666666634,
                    "velocity": 0.6771653543307087,
                    "duration": 0.989583333333357
                },
                {
                    "name": "G4",
                    "midi": 67,
                    "time": 111.94791666666634,
                    "velocity": 0.6141732283464567,
                    "duration": 0.010416666666671404
                },
                {
                    "name": "D#4",
                    "midi": 63,
                    "time": 112.28645833333302,
                    "velocity": 0.7401574803149606,
                    "duration": 0.2135416666666714
                },
                {
                    "name": "B3",
                    "midi": 59,
                    "time": 112.28645833333302,
                    "velocity": 0.84251968503937,
                    "duration": 0.2135416666666714
                },
                {
                    "name": "E3",
                    "midi": 52,
                    "time": 112.28645833333302,
                    "velocity": 0.84251968503937,
                    "duration": 0.2135416666666714
                },
                {
                    "name": "F3",
                    "midi": 53,
                    "time": 112.69791666666636,
                    "velocity": 0.937007874015748,
                    "duration": 0.2395833333333428
                },
                {
                    "name": "C3",
                    "midi": 48,
                    "time": 112.69791666666636,
                    "velocity": 0.84251968503937,
                    "duration": 0.2291666666666714
                },
                {
                    "name": "B3",
                    "midi": 59,
                    "time": 112.70833333333303,
                    "velocity": 0.7401574803149606,
                    "duration": 0.2291666666666714
                },
                {
                    "name": "D6",
                    "midi": 86,
                    "time": 113.7187499999997,
                    "velocity": 0.6377952755905512,
                    "duration": 0.1458333333333286
                },
                {
                    "name": "C#5",
                    "midi": 73,
                    "time": 113.7187499999997,
                    "velocity": 0.7007874015748031,
                    "duration": 0.1458333333333286
                },
                {
                    "name": "A5",
                    "midi": 81,
                    "time": 113.7187499999997,
                    "velocity": 0.6692913385826772,
                    "duration": 0.1510416666666572
                },
                {
                    "name": "E4",
                    "midi": 64,
                    "time": 113.72395833333303,
                    "velocity": 0.6220472440944882,
                    "duration": 0.140625
                },
                {
                    "name": "F3",
                    "midi": 53,
                    "time": 113.72395833333303,
                    "velocity": 0.6299212598425197,
                    "duration": 0.1458333333333286
                },
                {
                    "name": "B3",
                    "midi": 59,
                    "time": 113.72395833333303,
                    "velocity": 0.6850393700787402,
                    "duration": 0.1458333333333286
                },
                {
                    "name": "F#3",
                    "midi": 54,
                    "time": 113.96874999999969,
                    "velocity": 0.6299212598425197,
                    "duration": 0.0989583333333286
                },
                {
                    "name": "G4",
                    "midi": 67,
                    "time": 113.96874999999969,
                    "velocity": 0.6614173228346457,
                    "duration": 0.10416666666665719
                },
                {
                    "name": "C#6",
                    "midi": 85,
                    "time": 113.96874999999969,
                    "velocity": 0.7559055118110236,
                    "duration": 0.1354166666666572
                },
                {
                    "name": "C4",
                    "midi": 60,
                    "time": 113.96874999999969,
                    "velocity": 0.7086614173228346,
                    "duration": 0.10416666666665719
                },
                {
                    "name": "G#5",
                    "midi": 80,
                    "time": 113.96874999999969,
                    "velocity": 0.7716535433070866,
                    "duration": 3.2447916666666003
                },
                {
                    "name": "D5",
                    "midi": 74,
                    "time": 113.97916666666636,
                    "velocity": 0.7637795275590551,
                    "duration": 0.13020833333331439
                },
                {
                    "name": "A5",
                    "midi": 81,
                    "time": 114.23437499999967,
                    "velocity": 0.7952755905511811,
                    "duration": 0.11458333333334281
                },
                {
                    "name": "D#5",
                    "midi": 75,
                    "time": 114.239583333333,
                    "velocity": 0.7401574803149606,
                    "duration": 0.10937500000001421
                },
                {
                    "name": "G#4",
                    "midi": 68,
                    "time": 114.239583333333,
                    "velocity": 0.7165354330708661,
                    "duration": 0.10937500000001421
                },
                {
                    "name": "B2",
                    "midi": 47,
                    "time": 114.239583333333,
                    "velocity": 0.6456692913385826,
                    "duration": 0.11458333333334281
                },
                {
                    "name": "C4",
                    "midi": 60,
                    "time": 114.239583333333,
                    "velocity": 0.6614173228346457,
                    "duration": 0.11458333333334281
                },
                {
                    "name": "F3",
                    "midi": 53,
                    "time": 114.24999999999967,
                    "velocity": 0.7401574803149606,
                    "duration": 0.1041666666666714
                },
                {
                    "name": "F#5",
                    "midi": 78,
                    "time": 114.47916666666634,
                    "velocity": 0.6850393700787402,
                    "duration": 0.1614583333333286
                },
                {
                    "name": "D5",
                    "midi": 74,
                    "time": 114.48437499999967,
                    "velocity": 0.7952755905511811,
                    "duration": 0.1458333333333286
                },
                {
                    "name": "G4",
                    "midi": 67,
                    "time": 114.48437499999967,
                    "velocity": 0.7165354330708661,
                    "duration": 0.1458333333333286
                },
                {
                    "name": "C3",
                    "midi": 48,
                    "time": 114.489583333333,
                    "velocity": 0.7322834645669292,
                    "duration": 0.1510416666666714
                },
                {
                    "name": "B3",
                    "midi": 59,
                    "time": 114.489583333333,
                    "velocity": 0.7086614173228346,
                    "duration": 0.1510416666666714
                },
                {
                    "name": "E3",
                    "midi": 52,
                    "time": 114.489583333333,
                    "velocity": 0.7165354330708661,
                    "duration": 0.1510416666666714
                },
                {
                    "name": "G5",
                    "midi": 79,
                    "time": 114.79687499999967,
                    "velocity": 0.7952755905511811,
                    "duration": 0.5312499999999858
                },
                {
                    "name": "F#4",
                    "midi": 66,
                    "time": 114.802083333333,
                    "velocity": 0.7952755905511811,
                    "duration": 0.5260416666666572
                },
                {
                    "name": "E5",
                    "midi": 76,
                    "time": 114.802083333333,
                    "velocity": 0.937007874015748,
                    "duration": 0.5312499999999858
                },
                {
                    "name": "B4",
                    "midi": 71,
                    "time": 114.802083333333,
                    "velocity": 0.8740157480314961,
                    "duration": 0.5312499999999858
                },
                {
                    "name": "D#4",
                    "midi": 63,
                    "time": 114.802083333333,
                    "velocity": 0.6141732283464567,
                    "duration": 0.2083333333333286
                },
                {
                    "name": "E3",
                    "midi": 52,
                    "time": 114.80729166666633,
                    "velocity": 0.7086614173228346,
                    "duration": 0.203125
                },
                {
                    "name": "A#3",
                    "midi": 58,
                    "time": 114.81249999999966,
                    "velocity": 0.7086614173228346,
                    "duration": 0.1927083333333428
                },
                {
                    "name": "A3",
                    "midi": 57,
                    "time": 115.15104166666633,
                    "velocity": 0.7952755905511811,
                    "duration": 0.1770833333333286
                },
                {
                    "name": "D4",
                    "midi": 62,
                    "time": 115.15104166666633,
                    "velocity": 0.6614173228346457,
                    "duration": 0.1666666666666572
                },
                {
                    "name": "D#3",
                    "midi": 51,
                    "time": 115.15624999999966,
                    "velocity": 0.7401574803149606,
                    "duration": 0.1770833333333286
                },
                {
                    "name": "A#1",
                    "midi": 34,
                    "time": 115.49479166666633,
                    "velocity": 0.952755905511811,
                    "duration": 0.078125
                },
                {
                    "name": "A2",
                    "midi": 45,
                    "time": 115.692708333333,
                    "velocity": 0.8661417322834646,
                    "duration": 0.0677083333333286
                },
                {
                    "name": "C#4",
                    "midi": 61,
                    "time": 115.87499999999966,
                    "velocity": 0.8031496062992126,
                    "duration": 0.0989583333333286
                },
                {
                    "name": "E6",
                    "midi": 88,
                    "time": 115.99479166666632,
                    "velocity": 0.7401574803149606,
                    "duration": 0.11979166666665719
                },
                {
                    "name": "D4",
                    "midi": 62,
                    "time": 115.99999999999964,
                    "velocity": 0.8188976377952756,
                    "duration": 0.109375
                },
                {
                    "name": "D#6",
                    "midi": 87,
                    "time": 116.1197916666663,
                    "velocity": 0.7716535433070866,
                    "duration": 0.09375
                },
                {
                    "name": "C#4",
                    "midi": 61,
                    "time": 116.1197916666663,
                    "velocity": 0.8346456692913385,
                    "duration": 0.3749999999999858
                },
                {
                    "name": "A5",
                    "midi": 81,
                    "time": 116.2447916666663,
                    "velocity": 0.84251968503937,
                    "duration": 0.1302083333333286
                },
                {
                    "name": "E6",
                    "midi": 88,
                    "time": 116.37499999999963,
                    "velocity": 0.7952755905511811,
                    "duration": 0.0989583333333286
                },
                {
                    "name": "D#6",
                    "midi": 87,
                    "time": 116.50520833333296,
                    "velocity": 0.889763779527559,
                    "duration": 0.1614583333333286
                },
                {
                    "name": "D4",
                    "midi": 62,
                    "time": 116.50520833333296,
                    "velocity": 0.8503937007874016,
                    "duration": 0.09375
                },
                {
                    "name": "C#5",
                    "midi": 73,
                    "time": 116.66666666666629,
                    "velocity": 0.84251968503937,
                    "duration": 0.0677083333333286
                },
                {
                    "name": "C#4",
                    "midi": 61,
                    "time": 116.66666666666629,
                    "velocity": 0.8031496062992126,
                    "duration": 0.3958333333333286
                },
                {
                    "name": "C6",
                    "midi": 84,
                    "time": 116.80729166666629,
                    "velocity": 0.7952755905511811,
                    "duration": 0.078125
                },
                {
                    "name": "A5",
                    "midi": 81,
                    "time": 116.94270833333296,
                    "velocity": 0.84251968503937,
                    "duration": 0.0833333333333286
                },
                {
                    "name": "G#5",
                    "midi": 80,
                    "time": 117.06249999999962,
                    "velocity": 0.8582677165354331,
                    "duration": 4.119791666666657
                },
                {
                    "name": "E4",
                    "midi": 64,
                    "time": 117.06770833333294,
                    "velocity": 0.84251968503937,
                    "duration": 0.09375
                },
                {
                    "name": "F#4",
                    "midi": 66,
                    "time": 117.20312499999962,
                    "velocity": 0.6771653543307087,
                    "duration": 0.09375
                },
                {
                    "name": "C4",
                    "midi": 60,
                    "time": 117.20312499999962,
                    "velocity": 0.8031496062992126,
                    "duration": 0.3854166666666856
                },
                {
                    "name": "G5",
                    "midi": 79,
                    "time": 117.33854166666629,
                    "velocity": 0.7952755905511811,
                    "duration": 0.078125
                },
                {
                    "name": "E5",
                    "midi": 76,
                    "time": 117.45833333333296,
                    "velocity": 0.7952755905511811,
                    "duration": 0.1041666666666714
                },
                {
                    "name": "D5",
                    "midi": 74,
                    "time": 117.59374999999963,
                    "velocity": 0.84251968503937,
                    "duration": 0.0833333333333286
                },
                {
                    "name": "D#4",
                    "midi": 63,
                    "time": 117.59374999999963,
                    "velocity": 0.7795275590551181,
                    "duration": 0.078125
                },
                {
                    "name": "C#4",
                    "midi": 61,
                    "time": 117.73437499999963,
                    "velocity": 0.7874015748031497,
                    "duration": 0.3802083333333286
                },
                {
                    "name": "C4",
                    "midi": 60,
                    "time": 117.73958333333296,
                    "velocity": 0.7952755905511811,
                    "duration": 0.078125
                },
                {
                    "name": "B4",
                    "midi": 71,
                    "time": 117.88541666666629,
                    "velocity": 0.84251968503937,
                    "duration": 0.1354166666666714
                },
                {
                    "name": "A4",
                    "midi": 69,
                    "time": 118.03124999999963,
                    "velocity": 0.84251968503937,
                    "duration": 0.0833333333333286
                },
                {
                    "name": "B4",
                    "midi": 71,
                    "time": 118.12499999999963,
                    "velocity": 0.6141732283464567,
                    "duration": 0.0625
                },
                {
                    "name": "F4",
                    "midi": 65,
                    "time": 118.18749999999963,
                    "velocity": 0.7716535433070866,
                    "duration": 0.09895833333331439
                },
                {
                    "name": "A4",
                    "midi": 69,
                    "time": 118.19270833333296,
                    "velocity": 0.6299212598425197,
                    "duration": 0.0677083333333286
                },
                {
                    "name": "B4",
                    "midi": 71,
                    "time": 118.26562499999962,
                    "velocity": 0.5669291338582677,
                    "duration": 0.07291666666665719
                },
                {
                    "name": "A4",
                    "midi": 69,
                    "time": 118.33854166666627,
                    "velocity": 0.6299212598425197,
                    "duration": 0.078125
                },
                {
                    "name": "C#4",
                    "midi": 61,
                    "time": 118.33854166666627,
                    "velocity": 0.7874015748031497,
                    "duration": 0.3125
                },
                {
                    "name": "B4",
                    "midi": 71,
                    "time": 118.4218749999996,
                    "velocity": 0.3228346456692913,
                    "duration": 0.0677083333333286
                },
                {
                    "name": "A4",
                    "midi": 69,
                    "time": 118.4999999999996,
                    "velocity": 0.4881889763779528,
                    "duration": 0.078125
                },
                {
                    "name": "B4",
                    "midi": 71,
                    "time": 118.5781249999996,
                    "velocity": 0.4566929133858268,
                    "duration": 0.0729166666666714
                },
                {
                    "name": "A4",
                    "midi": 69,
                    "time": 118.65104166666627,
                    "velocity": 0.4566929133858268,
                    "duration": 0.078125
                },
                {
                    "name": "B4",
                    "midi": 71,
                    "time": 118.73958333333294,
                    "velocity": 0.47244094488188976,
                    "duration": 0.0989583333333286
                },
                {
                    "name": "A4",
                    "midi": 69,
                    "time": 118.83854166666627,
                    "velocity": 0.47244094488188976,
                    "duration": 0.0833333333333286
                },
                {
                    "name": "A#1",
                    "midi": 34,
                    "time": 118.83854166666627,
                    "velocity": 0.7244094488188977,
                    "duration": 0.078125
                },
                {
                    "name": "B4",
                    "midi": 71,
                    "time": 118.9218749999996,
                    "velocity": 0.4094488188976378,
                    "duration": 0.078125
                },
                {
                    "name": "A#2",
                    "midi": 46,
                    "time": 118.9999999999996,
                    "velocity": 0.7795275590551181,
                    "duration": 0.08333333333334281
                },
                {
                    "name": "A4",
                    "midi": 69,
                    "time": 119.01041666666627,
                    "velocity": 0.5354330708661418,
                    "duration": 0.0885416666666714
                },
                {
                    "name": "B4",
                    "midi": 71,
                    "time": 119.10416666666627,
                    "velocity": 0.4881889763779528,
                    "duration": 0.09375
                },
                {
                    "name": "A4",
                    "midi": 69,
                    "time": 119.19791666666627,
                    "velocity": 0.5826771653543307,
                    "duration": 0.09375
                },
                {
                    "name": "C#4",
                    "midi": 61,
                    "time": 119.19791666666627,
                    "velocity": 0.7401574803149606,
                    "duration": 0.0885416666666714
                },
                {
                    "name": "B4",
                    "midi": 71,
                    "time": 119.2968749999996,
                    "velocity": 0.5196850393700787,
                    "duration": 0.036458333333328596
                },
                {
                    "name": "D#5",
                    "midi": 75,
                    "time": 119.3906249999996,
                    "velocity": 0.6141732283464567,
                    "duration": 0.6770833333333286
                },
                {
                    "name": "F#5",
                    "midi": 78,
                    "time": 119.3906249999996,
                    "velocity": 0.5669291338582677,
                    "duration": 0.6770833333333286
                },
                {
                    "name": "G3",
                    "midi": 55,
                    "time": 119.3906249999996,
                    "velocity": 0.84251968503937,
                    "duration": 0.0885416666666714
                },
                {
                    "name": "A4",
                    "midi": 69,
                    "time": 119.40104166666627,
                    "velocity": 0.5669291338582677,
                    "duration": 0.046875
                },
                {
                    "name": "B4",
                    "midi": 71,
                    "time": 119.48958333333294,
                    "velocity": 0.5669291338582677,
                    "duration": 0.0885416666666714
                },
                {
                    "name": "A4",
                    "midi": 69,
                    "time": 119.58333333333294,
                    "velocity": 0.6141732283464567,
                    "duration": 0.078125
                },
                {
                    "name": "B4",
                    "midi": 71,
                    "time": 119.66666666666627,
                    "velocity": 0.5354330708661418,
                    "duration": 0.052083333333328596
                },
                {
                    "name": "D3",
                    "midi": 50,
                    "time": 119.71354166666627,
                    "velocity": 0.7244094488188977,
                    "duration": 0.0989583333333286
                },
                {
                    "name": "A4",
                    "midi": 69,
                    "time": 119.75520833333293,
                    "velocity": 0.5826771653543307,
                    "duration": 0.057291666666671404
                },
                {
                    "name": "B4",
                    "midi": 71,
                    "time": 119.8437499999996,
                    "velocity": 0.5826771653543307,
                    "duration": 0.0833333333333286
                },
                {
                    "name": "F3",
                    "midi": 53,
                    "time": 119.92708333333293,
                    "velocity": 0.8740157480314961,
                    "duration": 0.2604166666666572
                },
                {
                    "name": "A4",
                    "midi": 69,
                    "time": 119.94270833333293,
                    "velocity": 0.4409448818897638,
                    "duration": 0.026041666666671404
                },
                {
                    "name": "B4",
                    "midi": 71,
                    "time": 120.0468749999996,
                    "velocity": 0.5669291338582677,
                    "duration": 0.052083333333328596
                },
                {
                    "name": "G#5",
                    "midi": 80,
                    "time": 120.14583333333293,
                    "velocity": 0.5354330708661418,
                    "duration": 0
                },
                {
                    "name": "E5",
                    "midi": 76,
                    "time": 120.14583333333293,
                    "velocity": 0.6771653543307087,
                    "duration": 1.0364583333333428
                },
                {
                    "name": "A4",
                    "midi": 69,
                    "time": 120.15104166666626,
                    "velocity": 0.6614173228346457,
                    "duration": 0.036458333333328596
                },
                {
                    "name": "B4",
                    "midi": 71,
                    "time": 120.24479166666626,
                    "velocity": 0.6614173228346457,
                    "duration": 0.046875
                },
                {
                    "name": "A4",
                    "midi": 69,
                    "time": 120.33333333333293,
                    "velocity": 0.6299212598425197,
                    "duration": 0.041666666666671404
                },
                {
                    "name": "B4",
                    "midi": 71,
                    "time": 120.4218749999996,
                    "velocity": 0.6299212598425197,
                    "duration": 0.036458333333328596
                },
                {
                    "name": "A4",
                    "midi": 69,
                    "time": 120.4999999999996,
                    "velocity": 0.5511811023622047,
                    "duration": 0.026041666666671404
                },
                {
                    "name": "G3",
                    "midi": 55,
                    "time": 120.4999999999996,
                    "velocity": 0.8582677165354331,
                    "duration": 0.09375
                },
                {
                    "name": "B4",
                    "midi": 71,
                    "time": 120.5937499999996,
                    "velocity": 0.5669291338582677,
                    "duration": 0.041666666666671404
                },
                {
                    "name": "D3",
                    "midi": 50,
                    "time": 120.63541666666627,
                    "velocity": 0.889763779527559,
                    "duration": 0.1302083333333286
                },
                {
                    "name": "A4",
                    "midi": 69,
                    "time": 120.6718749999996,
                    "velocity": 0.5826771653543307,
                    "duration": 0.0625
                },
                {
                    "name": "B4",
                    "midi": 71,
                    "time": 120.7656249999996,
                    "velocity": 0.5196850393700787,
                    "duration": 0.0989583333333286
                },
                {
                    "name": "F3",
                    "midi": 53,
                    "time": 120.77083333333293,
                    "velocity": 0.9133858267716536,
                    "duration": 0.0833333333333286
                },
                {
                    "name": "A4",
                    "midi": 69,
                    "time": 120.86458333333293,
                    "velocity": 0.5511811023622047,
                    "duration": 0.0625
                },
                {
                    "name": "A#1",
                    "midi": 34,
                    "time": 120.86979166666626,
                    "velocity": 0.968503937007874,
                    "duration": 0.078125
                },
                {
                    "name": "B4",
                    "midi": 71,
                    "time": 120.97916666666626,
                    "velocity": 0.5039370078740157,
                    "duration": 0.052083333333328596
                },
                {
                    "name": "A4",
                    "midi": 69,
                    "time": 121.05729166666626,
                    "velocity": 0.6141732283464567,
                    "duration": 0.041666666666671404
                },
                {
                    "name": "G#2",
                    "midi": 44,
                    "time": 121.05729166666626,
                    "velocity": 0.9606299212598425,
                    "duration": 0.09895833333334281
                },
                {
                    "name": "B4",
                    "midi": 71,
                    "time": 121.14583333333293,
                    "velocity": 0.6299212598425197,
                    "duration": 0.03645833333334281
                },
                {
                    "name": "F#5",
                    "midi": 78,
                    "time": 121.2343749999996,
                    "velocity": 0.5826771653543307,
                    "duration": 0.6874999999999858
                },
                {
                    "name": "D#5",
                    "midi": 75,
                    "time": 121.2343749999996,
                    "velocity": 0.5826771653543307,
                    "duration": 0.6874999999999858
                },
                {
                    "name": "A4",
                    "midi": 69,
                    "time": 121.2343749999996,
                    "velocity": 0.6614173228346457,
                    "duration": 0.052083333333328596
                },
                {
                    "name": "C#4",
                    "midi": 61,
                    "time": 121.2343749999996,
                    "velocity": 0.968503937007874,
                    "duration": 0.125
                },
                {
                    "name": "B4",
                    "midi": 71,
                    "time": 121.33333333333293,
                    "velocity": 0.5511811023622047,
                    "duration": 0.0729166666666714
                },
                {
                    "name": "A4",
                    "midi": 69,
                    "time": 121.4062499999996,
                    "velocity": 0.4881889763779528,
                    "duration": 0.036458333333328596
                },
                {
                    "name": "D3",
                    "midi": 50,
                    "time": 121.4062499999996,
                    "velocity": 0.9921259842519685,
                    "duration": 0.1770833333333286
                },
                {
                    "name": "B4",
                    "midi": 71,
                    "time": 121.50520833333293,
                    "velocity": 0.5354330708661418,
                    "duration": 0.052083333333328596
                },
                {
                    "name": "A4",
                    "midi": 69,
                    "time": 121.58333333333293,
                    "velocity": 0.47244094488188976,
                    "duration": 0.0729166666666714
                },
                {
                    "name": "A#3",
                    "midi": 58,
                    "time": 121.66666666666627,
                    "velocity": 1,
                    "duration": 0.1302083333333286
                },
                {
                    "name": "B4",
                    "midi": 71,
                    "time": 121.72916666666627,
                    "velocity": 0.4881889763779528,
                    "duration": 0.11979166666665719
                },
                {
                    "name": "A4",
                    "midi": 69,
                    "time": 121.81770833333293,
                    "velocity": 0.5196850393700787,
                    "duration": 0.0677083333333286
                },
                {
                    "name": "F#3",
                    "midi": 54,
                    "time": 122.13541666666626,
                    "velocity": 0.5826771653543307,
                    "duration": 0.0885416666666714
                },
                {
                    "name": "G5",
                    "midi": 79,
                    "time": 122.13541666666626,
                    "velocity": 0.7716535433070866,
                    "duration": 0.09375
                },
                {
                    "name": "A#3",
                    "midi": 58,
                    "time": 122.22916666666626,
                    "velocity": 0.5354330708661418,
                    "duration": 0.078125
                },
                {
                    "name": "D#5",
                    "midi": 75,
                    "time": 122.22916666666626,
                    "velocity": 0.7952755905511811,
                    "duration": 0.078125
                },
                {
                    "name": "C4",
                    "midi": 60,
                    "time": 122.30729166666626,
                    "velocity": 0.6141732283464567,
                    "duration": 0.0833333333333286
                },
                {
                    "name": "B4",
                    "midi": 71,
                    "time": 122.31249999999959,
                    "velocity": 0.7952755905511811,
                    "duration": 0.0729166666666714
                },
                {
                    "name": "A4",
                    "midi": 69,
                    "time": 122.39062499999959,
                    "velocity": 0.7716535433070866,
                    "duration": 0.078125
                },
                {
                    "name": "E4",
                    "midi": 64,
                    "time": 122.39062499999959,
                    "velocity": 0.6299212598425197,
                    "duration": 0.078125
                },
                {
                    "name": "B4",
                    "midi": 71,
                    "time": 122.47916666666626,
                    "velocity": 0.7952755905511811,
                    "duration": 0.0833333333333286
                },
                {
                    "name": "C4",
                    "midi": 60,
                    "time": 122.47916666666626,
                    "velocity": 0.6141732283464567,
                    "duration": 0.0729166666666714
                },
                {
                    "name": "A#3",
                    "midi": 58,
                    "time": 122.55729166666626,
                    "velocity": 0.6141732283464567,
                    "duration": 0.11979166666665719
                },
                {
                    "name": "D#5",
                    "midi": 75,
                    "time": 122.55729166666626,
                    "velocity": 0.937007874015748,
                    "duration": 0.0989583333333286
                },
                {
                    "name": "G5",
                    "midi": 79,
                    "time": 122.65104166666626,
                    "velocity": 0.84251968503937,
                    "duration": 0.07812499999998579
                },
                {
                    "name": "F#3",
                    "midi": 54,
                    "time": 122.65104166666626,
                    "velocity": 0.5826771653543307,
                    "duration": 0.07291666666665719
                },
                {
                    "name": "C#3",
                    "midi": 49,
                    "time": 123.46354166666625,
                    "velocity": 0.5196850393700787,
                    "duration": 0.10416666666665719
                },
                {
                    "name": "A5",
                    "midi": 81,
                    "time": 123.46354166666625,
                    "velocity": 0.8740157480314961,
                    "duration": 0.07291666666665719
                },
                {
                    "name": "F3",
                    "midi": 53,
                    "time": 123.46354166666625,
                    "velocity": 0.7952755905511811,
                    "duration": 0.10416666666665719
                },
                {
                    "name": "F#5",
                    "midi": 78,
                    "time": 123.55729166666623,
                    "velocity": 0.8740157480314961,
                    "duration": 0.046875
                },
                {
                    "name": "G#3",
                    "midi": 56,
                    "time": 123.5833333333329,
                    "velocity": 0.6299212598425197,
                    "duration": 0.10416666666665719
                },
                {
                    "name": "D#5",
                    "midi": 75,
                    "time": 123.62499999999956,
                    "velocity": 0.6141732283464567,
                    "duration": 0.03125
                },
                {
                    "name": "B4",
                    "midi": 71,
                    "time": 123.69270833333289,
                    "velocity": 0.7716535433070866,
                    "duration": 0.03125
                },
                {
                    "name": "C4",
                    "midi": 60,
                    "time": 123.69270833333289,
                    "velocity": 0.6771653543307087,
                    "duration": 0.0833333333333286
                },
                {
                    "name": "G4",
                    "midi": 67,
                    "time": 123.76041666666622,
                    "velocity": 0.7716535433070866,
                    "duration": 0.036458333333328596
                },
                {
                    "name": "D#4",
                    "midi": 63,
                    "time": 123.79687499999955,
                    "velocity": 0.6771653543307087,
                    "duration": 0.0833333333333286
                },
                {
                    "name": "A#4",
                    "midi": 70,
                    "time": 123.83854166666622,
                    "velocity": 0.7952755905511811,
                    "duration": 0.020833333333328596
                },
                {
                    "name": "C4",
                    "midi": 60,
                    "time": 123.9010416666662,
                    "velocity": 0.7086614173228346,
                    "duration": 0.0885416666666714
                },
                {
                    "name": "C5",
                    "midi": 72,
                    "time": 123.9010416666662,
                    "velocity": 0.7952755905511811,
                    "duration": 0.026041666666671404
                },
                {
                    "name": "G#3",
                    "midi": 56,
                    "time": 124.00520833333287,
                    "velocity": 0.6299212598425197,
                    "duration": 0.057291666666671404
                },
                {
                    "name": "D#5",
                    "midi": 75,
                    "time": 124.00520833333287,
                    "velocity": 0.7401574803149606,
                    "duration": 0.015625
                },
                {
                    "name": "C#3",
                    "midi": 49,
                    "time": 124.17187499999955,
                    "velocity": 0.5669291338582677,
                    "duration": 0.2395833333333286
                },
                {
                    "name": "F3",
                    "midi": 53,
                    "time": 124.17187499999955,
                    "velocity": 0.7086614173228346,
                    "duration": 0.2395833333333286
                },
                {
                    "name": "B5",
                    "midi": 83,
                    "time": 124.17187499999955,
                    "velocity": 0.7401574803149606,
                    "duration": 0.03125
                },
                {
                    "name": "D#3",
                    "midi": 51,
                    "time": 125.2447916666662,
                    "velocity": 0.5669291338582677,
                    "duration": 0.1614583333333428
                },
                {
                    "name": "F#3",
                    "midi": 54,
                    "time": 125.41145833333287,
                    "velocity": 0.6141732283464567,
                    "duration": 0.125
                },
                {
                    "name": "D#6",
                    "midi": 87,
                    "time": 125.5416666666662,
                    "velocity": 0.6299212598425197,
                    "duration": 0.11458333333334281
                },
                {
                    "name": "E6",
                    "midi": 88,
                    "time": 125.5416666666662,
                    "velocity": 0.7086614173228346,
                    "duration": 0.1250000000000142
                },
                {
                    "name": "F5",
                    "midi": 77,
                    "time": 125.55208333333287,
                    "velocity": 0.6771653543307087,
                    "duration": 0.1197916666666714
                },
                {
                    "name": "A#3",
                    "midi": 58,
                    "time": 125.55208333333287,
                    "velocity": 0.6614173228346457,
                    "duration": 0.0885416666666714
                },
                {
                    "name": "C#4",
                    "midi": 61,
                    "time": 125.65624999999955,
                    "velocity": 0.6929133858267716,
                    "duration": 0.0833333333333286
                },
                {
                    "name": "E6",
                    "midi": 88,
                    "time": 125.73958333333287,
                    "velocity": 0.84251968503937,
                    "duration": 0.0989583333333286
                },
                {
                    "name": "D6",
                    "midi": 86,
                    "time": 125.73958333333287,
                    "velocity": 0.84251968503937,
                    "duration": 0.0989583333333286
                },
                {
                    "name": "F5",
                    "midi": 77,
                    "time": 125.7447916666662,
                    "velocity": 0.8740157480314961,
                    "duration": 0.0989583333333286
                },
                {
                    "name": "E4",
                    "midi": 64,
                    "time": 125.7447916666662,
                    "velocity": 0.7165354330708661,
                    "duration": 0.0729166666666714
                },
                {
                    "name": "G4",
                    "midi": 67,
                    "time": 125.8229166666662,
                    "velocity": 0.7480314960629921,
                    "duration": 0.08854166666665719
                },
                {
                    "name": "E6",
                    "midi": 88,
                    "time": 125.91145833333286,
                    "velocity": 0.889763779527559,
                    "duration": 0.1979166666666572
                },
                {
                    "name": "C#6",
                    "midi": 85,
                    "time": 125.91145833333286,
                    "velocity": 0.889763779527559,
                    "duration": 0.1979166666666572
                },
                {
                    "name": "F5",
                    "midi": 77,
                    "time": 125.91145833333286,
                    "velocity": 0.8818897637795275,
                    "duration": 0.2031249999999858
                },
                {
                    "name": "C5",
                    "midi": 72,
                    "time": 125.91666666666619,
                    "velocity": 0.7874015748031497,
                    "duration": 0.3958333333333144
                },
                {
                    "name": "E6",
                    "midi": 88,
                    "time": 126.16666666666617,
                    "velocity": 0.937007874015748,
                    "duration": 0.625
                },
                {
                    "name": "F5",
                    "midi": 77,
                    "time": 126.16666666666617,
                    "velocity": 0.937007874015748,
                    "duration": 0.625
                },
                {
                    "name": "A#5",
                    "midi": 82,
                    "time": 126.1718749999995,
                    "velocity": 0.9212598425196851,
                    "duration": 0.6197916666666714
                },
                {
                    "name": "C#5",
                    "midi": 73,
                    "time": 126.3124999999995,
                    "velocity": 0.9133858267716536,
                    "duration": 0.109375
                },
                {
                    "name": "C5",
                    "midi": 72,
                    "time": 126.47395833333283,
                    "velocity": 0.9606299212598425,
                    "duration": 0.2916666666666714
                },
                {
                    "name": "A3",
                    "midi": 57,
                    "time": 127.7031249999995,
                    "velocity": 0.6299212598425197,
                    "duration": 0.0729166666666714
                },
                {
                    "name": "G1",
                    "midi": 31,
                    "time": 127.7187499999995,
                    "velocity": 0.5669291338582677,
                    "duration": 0.06770833333334281
                },
                {
                    "name": "C#2",
                    "midi": 37,
                    "time": 127.77604166666617,
                    "velocity": 0.6141732283464567,
                    "duration": 0.140625
                },
                {
                    "name": "E3",
                    "midi": 52,
                    "time": 127.78645833333285,
                    "velocity": 0.6771653543307087,
                    "duration": 0.0729166666666714
                },
                {
                    "name": "F#2",
                    "midi": 42,
                    "time": 127.85937499999952,
                    "velocity": 0.5511811023622047,
                    "duration": 0.1406249999999858
                },
                {
                    "name": "A#2",
                    "midi": 46,
                    "time": 127.86458333333285,
                    "velocity": 0.5826771653543307,
                    "duration": 0.08854166666665719
                },
                {
                    "name": "A3",
                    "midi": 57,
                    "time": 128.2499999999995,
                    "velocity": 0.5511811023622047,
                    "duration": 0.09375
                },
                {
                    "name": "G1",
                    "midi": 31,
                    "time": 128.25520833333283,
                    "velocity": 0.48031496062992124,
                    "duration": 0.09375
                },
                {
                    "name": "C#2",
                    "midi": 37,
                    "time": 128.34895833333283,
                    "velocity": 0.4330708661417323,
                    "duration": 0.1354166666666572
                },
                {
                    "name": "E3",
                    "midi": 52,
                    "time": 128.34895833333283,
                    "velocity": 0.4094488188976378,
                    "duration": 0.11458333333331439
                },
                {
                    "name": "A#2",
                    "midi": 46,
                    "time": 128.4374999999995,
                    "velocity": 0.4094488188976378,
                    "duration": 0.09895833333334281
                },
                {
                    "name": "F#2",
                    "midi": 42,
                    "time": 128.4374999999995,
                    "velocity": 0.30708661417322836,
                    "duration": 0.09895833333334281
                },
                {
                    "name": "G1",
                    "midi": 31,
                    "time": 128.8593749999995,
                    "velocity": 0.4330708661417323,
                    "duration": 0.140625
                },
                {
                    "name": "A3",
                    "midi": 57,
                    "time": 128.8593749999995,
                    "velocity": 0.4409448818897638,
                    "duration": 0.11979166666668561
                },
                {
                    "name": "C#2",
                    "midi": 37,
                    "time": 128.97395833333283,
                    "velocity": 0.33070866141732286,
                    "duration": 0.1875
                },
                {
                    "name": "E3",
                    "midi": 52,
                    "time": 128.98958333333283,
                    "velocity": 0.3937007874015748,
                    "duration": 0.21875
                },
                {
                    "name": "F#2",
                    "midi": 42,
                    "time": 129.13020833333283,
                    "velocity": 0.2992125984251969,
                    "duration": 0.1354166666666572
                },
                {
                    "name": "A#2",
                    "midi": 46,
                    "time": 129.14583333333283,
                    "velocity": 0.2755905511811024,
                    "duration": 0.08854166666665719
                },
                {
                    "name": "G1",
                    "midi": 31,
                    "time": 131.03645833333283,
                    "velocity": 0.2204724409448819,
                    "duration": 0.1302083333333428
                },
                {
                    "name": "A3",
                    "midi": 57,
                    "time": 131.04166666666617,
                    "velocity": 0.2440944881889764,
                    "duration": 0.06770833333334281
                },
                {
                    "name": "C#2",
                    "midi": 37,
                    "time": 131.18749999999952,
                    "velocity": 0.2204724409448819,
                    "duration": 0.1458333333333428
                },
                {
                    "name": "E3",
                    "midi": 52,
                    "time": 131.18749999999952,
                    "velocity": 0.23622047244094488,
                    "duration": 0.09895833333334281
                },
                {
                    "name": "F#2",
                    "midi": 42,
                    "time": 131.45833333333286,
                    "velocity": 0.2047244094488189,
                    "duration": 0.125
                },
                {
                    "name": "A#2",
                    "midi": 46,
                    "time": 131.45833333333286,
                    "velocity": 0.1968503937007874,
                    "duration": 0.11979166666665719
                },
                {
                    "name": "D#5",
                    "midi": 75,
                    "time": 135.20312499999952,
                    "velocity": 0.1968503937007874,
                    "duration": 0.3697916666666572
                },
                {
                    "name": "D#4",
                    "midi": 63,
                    "time": 135.20833333333286,
                    "velocity": 0.25196850393700787,
                    "duration": 0.5781249999999716
                },
                {
                    "name": "D6",
                    "midi": 86,
                    "time": 135.20833333333286,
                    "velocity": 0.2755905511811024,
                    "duration": 0.2760416666666572
                },
                {
                    "name": "D7",
                    "midi": 98,
                    "time": 135.20833333333286,
                    "velocity": 0.23622047244094488,
                    "duration": 0.0625
                },
                {
                    "name": "C#2",
                    "midi": 37,
                    "time": 136.0624999999995,
                    "velocity": 0.2204724409448819,
                    "duration": 3.515625
                },
                {
                    "name": "C#1",
                    "midi": 25,
                    "time": 136.08333333333283,
                    "velocity": 0.2440944881889764,
                    "duration": 3.515625
                },
                {
                    "name": "B3",
                    "midi": 59,
                    "time": 137.3437499999995,
                    "velocity": 0.33858267716535434,
                    "duration": 5.453125
                }
            ],
            "controlChanges": {
                "64": [
                    {
                        "number": 64,
                        "time": 2.963541666666667,
                        "value": 0
                    },
                    {
                        "number": 64,
                        "time": 9.755208333333337,
                        "value": 0
                    },
                    {
                        "number": 64,
                        "time": 9.92708333333334,
                        "value": 1
                    },
                    {
                        "number": 64,
                        "time": 10.083333333333341,
                        "value": 0
                    },
                    {
                        "number": 64,
                        "time": 10.135416666666675,
                        "value": 1
                    },
                    {
                        "number": 64,
                        "time": 10.692708333333343,
                        "value": 0
                    },
                    {
                        "number": 64,
                        "time": 11.12500000000001,
                        "value": 1
                    },
                    {
                        "number": 64,
                        "time": 11.479166666666677,
                        "value": 0
                    },
                    {
                        "number": 64,
                        "time": 12.73958333333334,
                        "value": 1
                    },
                    {
                        "number": 64,
                        "time": 13.088541666666675,
                        "value": 0
                    },
                    {
                        "number": 64,
                        "time": 13.437500000000012,
                        "value": 1
                    },
                    {
                        "number": 64,
                        "time": 13.536458333333346,
                        "value": 0
                    },
                    {
                        "number": 64,
                        "time": 14.536458333333346,
                        "value": 1
                    },
                    {
                        "number": 64,
                        "time": 14.770833333333348,
                        "value": 0
                    },
                    {
                        "number": 64,
                        "time": 15.375000000000014,
                        "value": 1
                    },
                    {
                        "number": 64,
                        "time": 17.145833333333353,
                        "value": 0
                    },
                    {
                        "number": 64,
                        "time": 18.072916666666686,
                        "value": 1
                    },
                    {
                        "number": 64,
                        "time": 20.989583333333353,
                        "value": 0
                    },
                    {
                        "number": 64,
                        "time": 25.12500000000001,
                        "value": 1
                    },
                    {
                        "number": 64,
                        "time": 25.33854166666668,
                        "value": 0
                    },
                    {
                        "number": 64,
                        "time": 25.53125000000001,
                        "value": 1
                    },
                    {
                        "number": 64,
                        "time": 29.036458333333346,
                        "value": 0
                    },
                    {
                        "number": 64,
                        "time": 33.48958333333336,
                        "value": 0
                    },
                    {
                        "number": 64,
                        "time": 33.68229166666669,
                        "value": 1
                    },
                    {
                        "number": 64,
                        "time": 33.88541666666669,
                        "value": 0
                    },
                    {
                        "number": 64,
                        "time": 34.510416666666686,
                        "value": 1
                    },
                    {
                        "number": 64,
                        "time": 34.807291666666686,
                        "value": 0
                    },
                    {
                        "number": 64,
                        "time": 37.10937500000002,
                        "value": 1
                    },
                    {
                        "number": 64,
                        "time": 37.343750000000036,
                        "value": 0
                    },
                    {
                        "number": 64,
                        "time": 37.4166666666667,
                        "value": 1
                    },
                    {
                        "number": 64,
                        "time": 37.578125000000036,
                        "value": 0
                    },
                    {
                        "number": 64,
                        "time": 39.0416666666667,
                        "value": 1
                    },
                    {
                        "number": 64,
                        "time": 39.18750000000004,
                        "value": 0
                    },
                    {
                        "number": 64,
                        "time": 39.80729166666671,
                        "value": 1
                    },
                    {
                        "number": 64,
                        "time": 40.50520833333337,
                        "value": 0
                    },
                    {
                        "number": 64,
                        "time": 40.703125000000036,
                        "value": 1
                    },
                    {
                        "number": 64,
                        "time": 40.95833333333337,
                        "value": 0
                    },
                    {
                        "number": 64,
                        "time": 41.68229166666671,
                        "value": 1
                    },
                    {
                        "number": 64,
                        "time": 41.92708333333338,
                        "value": 0
                    },
                    {
                        "number": 64,
                        "time": 42.494791666666714,
                        "value": 1
                    },
                    {
                        "number": 64,
                        "time": 42.76041666666672,
                        "value": 0
                    },
                    {
                        "number": 64,
                        "time": 48.70833333333338,
                        "value": 1
                    },
                    {
                        "number": 64,
                        "time": 49.432291666666714,
                        "value": 0
                    },
                    {
                        "number": 64,
                        "time": 50.755208333333385,
                        "value": 1
                    },
                    {
                        "number": 64,
                        "time": 50.89062500000005,
                        "value": 0
                    },
                    {
                        "number": 64,
                        "time": 50.895833333333385,
                        "value": 1
                    },
                    {
                        "number": 64,
                        "time": 51.14062500000006,
                        "value": 0
                    },
                    {
                        "number": 64,
                        "time": 51.16666666666672,
                        "value": 1
                    },
                    {
                        "number": 64,
                        "time": 52.14062500000005,
                        "value": 0
                    },
                    {
                        "number": 64,
                        "time": 52.145833333333385,
                        "value": 1
                    },
                    {
                        "number": 64,
                        "time": 54.2864583333334,
                        "value": 0
                    },
                    {
                        "number": 64,
                        "time": 62.348958333333414,
                        "value": 1
                    },
                    {
                        "number": 64,
                        "time": 62.593750000000085,
                        "value": 0
                    },
                    {
                        "number": 64,
                        "time": 63.48958333333342,
                        "value": 1
                    },
                    {
                        "number": 64,
                        "time": 63.72395833333342,
                        "value": 0
                    },
                    {
                        "number": 64,
                        "time": 64.54166666666676,
                        "value": 1
                    },
                    {
                        "number": 64,
                        "time": 64.76041666666676,
                        "value": 0
                    },
                    {
                        "number": 64,
                        "time": 64.98958333333343,
                        "value": 1
                    },
                    {
                        "number": 64,
                        "time": 65.20833333333343,
                        "value": 0
                    },
                    {
                        "number": 64,
                        "time": 66.8750000000001,
                        "value": 1
                    },
                    {
                        "number": 64,
                        "time": 67.07291666666679,
                        "value": 0
                    },
                    {
                        "number": 64,
                        "time": 67.10416666666679,
                        "value": 1
                    },
                    {
                        "number": 64,
                        "time": 67.10937500000011,
                        "value": 0
                    },
                    {
                        "number": 64,
                        "time": 67.10937500000011,
                        "value": 1
                    },
                    {
                        "number": 64,
                        "time": 67.51562500000013,
                        "value": 0
                    },
                    {
                        "number": 64,
                        "time": 67.73958333333346,
                        "value": 1
                    },
                    {
                        "number": 64,
                        "time": 68.03645833333346,
                        "value": 0
                    },
                    {
                        "number": 64,
                        "time": 70.34895833333346,
                        "value": 1
                    },
                    {
                        "number": 64,
                        "time": 70.46875000000013,
                        "value": 0
                    },
                    {
                        "number": 64,
                        "time": 70.8854166666668,
                        "value": 1
                    },
                    {
                        "number": 64,
                        "time": 71.01562500000013,
                        "value": 0
                    },
                    {
                        "number": 64,
                        "time": 71.0729166666668,
                        "value": 1
                    },
                    {
                        "number": 64,
                        "time": 71.22395833333346,
                        "value": 0
                    },
                    {
                        "number": 64,
                        "time": 71.29687500000013,
                        "value": 1
                    },
                    {
                        "number": 64,
                        "time": 71.40104166666679,
                        "value": 0
                    },
                    {
                        "number": 64,
                        "time": 71.44270833333346,
                        "value": 1
                    },
                    {
                        "number": 64,
                        "time": 71.58333333333346,
                        "value": 0
                    },
                    {
                        "number": 64,
                        "time": 71.63020833333346,
                        "value": 1
                    },
                    {
                        "number": 64,
                        "time": 71.76562500000011,
                        "value": 0
                    },
                    {
                        "number": 64,
                        "time": 71.93750000000011,
                        "value": 1
                    },
                    {
                        "number": 64,
                        "time": 72.14583333333344,
                        "value": 0
                    },
                    {
                        "number": 64,
                        "time": 72.21875000000011,
                        "value": 1
                    },
                    {
                        "number": 64,
                        "time": 72.30208333333344,
                        "value": 0
                    },
                    {
                        "number": 64,
                        "time": 72.34375000000011,
                        "value": 1
                    },
                    {
                        "number": 64,
                        "time": 72.47395833333344,
                        "value": 0
                    },
                    {
                        "number": 64,
                        "time": 72.61979166666677,
                        "value": 1
                    },
                    {
                        "number": 64,
                        "time": 73.2812500000001,
                        "value": 0
                    },
                    {
                        "number": 64,
                        "time": 73.47395833333343,
                        "value": 1
                    },
                    {
                        "number": 64,
                        "time": 73.5000000000001,
                        "value": 0
                    },
                    {
                        "number": 64,
                        "time": 73.99479166666677,
                        "value": 1
                    },
                    {
                        "number": 64,
                        "time": 74.0156250000001,
                        "value": 0
                    },
                    {
                        "number": 64,
                        "time": 74.11979166666677,
                        "value": 1
                    },
                    {
                        "number": 64,
                        "time": 74.13541666666677,
                        "value": 0
                    },
                    {
                        "number": 64,
                        "time": 74.3125000000001,
                        "value": 1
                    },
                    {
                        "number": 64,
                        "time": 74.40625000000009,
                        "value": 0
                    },
                    {
                        "number": 64,
                        "time": 74.72395833333341,
                        "value": 1
                    },
                    {
                        "number": 64,
                        "time": 76.11979166666673,
                        "value": 0
                    },
                    {
                        "number": 64,
                        "time": 76.1458333333334,
                        "value": 1
                    },
                    {
                        "number": 64,
                        "time": 76.30208333333341,
                        "value": 0
                    },
                    {
                        "number": 64,
                        "time": 76.31770833333341,
                        "value": 1
                    },
                    {
                        "number": 64,
                        "time": 76.57291666666674,
                        "value": 0
                    },
                    {
                        "number": 64,
                        "time": 79.15625000000006,
                        "value": 1
                    },
                    {
                        "number": 64,
                        "time": 83.97395833333336,
                        "value": 1
                    },
                    {
                        "number": 64,
                        "time": 84.14062500000001,
                        "value": 0
                    },
                    {
                        "number": 64,
                        "time": 84.49479166666667,
                        "value": 0
                    },
                    {
                        "number": 64,
                        "time": 84.625,
                        "value": 1
                    },
                    {
                        "number": 64,
                        "time": 84.85416666666667,
                        "value": 0
                    },
                    {
                        "number": 64,
                        "time": 84.94791666666667,
                        "value": 1
                    },
                    {
                        "number": 64,
                        "time": 88.02083333333327,
                        "value": 0
                    },
                    {
                        "number": 64,
                        "time": 88.1197916666666,
                        "value": 1
                    },
                    {
                        "number": 64,
                        "time": 88.26041666666659,
                        "value": 0
                    },
                    {
                        "number": 64,
                        "time": 88.29166666666659,
                        "value": 1
                    },
                    {
                        "number": 64,
                        "time": 88.79166666666657,
                        "value": 0
                    },
                    {
                        "number": 64,
                        "time": 88.8281249999999,
                        "value": 1
                    },
                    {
                        "number": 64,
                        "time": 89.20833333333323,
                        "value": 0
                    },
                    {
                        "number": 64,
                        "time": 89.2968749999999,
                        "value": 1
                    },
                    {
                        "number": 64,
                        "time": 89.71354166666656,
                        "value": 0
                    },
                    {
                        "number": 64,
                        "time": 89.72395833333323,
                        "value": 1
                    },
                    {
                        "number": 64,
                        "time": 89.86458333333323,
                        "value": 0
                    },
                    {
                        "number": 64,
                        "time": 89.9687499999999,
                        "value": 1
                    },
                    {
                        "number": 64,
                        "time": 90.13020833333323,
                        "value": 0
                    },
                    {
                        "number": 64,
                        "time": 90.26562499999989,
                        "value": 1
                    },
                    {
                        "number": 64,
                        "time": 90.39062499999989,
                        "value": 0
                    },
                    {
                        "number": 64,
                        "time": 90.55208333333321,
                        "value": 1
                    },
                    {
                        "number": 64,
                        "time": 90.74999999999987,
                        "value": 0
                    },
                    {
                        "number": 64,
                        "time": 90.99999999999987,
                        "value": 1
                    },
                    {
                        "number": 64,
                        "time": 91.10937499999987,
                        "value": 0
                    },
                    {
                        "number": 64,
                        "time": 91.2552083333332,
                        "value": 1
                    },
                    {
                        "number": 64,
                        "time": 91.46874999999986,
                        "value": 0
                    },
                    {
                        "number": 64,
                        "time": 91.56770833333319,
                        "value": 1
                    },
                    {
                        "number": 64,
                        "time": 92.09895833333317,
                        "value": 0
                    },
                    {
                        "number": 64,
                        "time": 92.2604166666665,
                        "value": 1
                    },
                    {
                        "number": 64,
                        "time": 92.49479166666649,
                        "value": 0
                    },
                    {
                        "number": 64,
                        "time": 92.61458333333316,
                        "value": 1
                    },
                    {
                        "number": 64,
                        "time": 92.74479166666647,
                        "value": 0
                    },
                    {
                        "number": 64,
                        "time": 92.8437499999998,
                        "value": 1
                    },
                    {
                        "number": 64,
                        "time": 93.00520833333313,
                        "value": 0
                    },
                    {
                        "number": 64,
                        "time": 93.10937499999979,
                        "value": 1
                    },
                    {
                        "number": 64,
                        "time": 93.22916666666646,
                        "value": 0
                    },
                    {
                        "number": 64,
                        "time": 93.24999999999979,
                        "value": 1
                    },
                    {
                        "number": 64,
                        "time": 93.34895833333313,
                        "value": 0
                    },
                    {
                        "number": 64,
                        "time": 93.3593749999998,
                        "value": 1
                    },
                    {
                        "number": 64,
                        "time": 93.45833333333312,
                        "value": 0
                    },
                    {
                        "number": 64,
                        "time": 93.46874999999979,
                        "value": 1
                    },
                    {
                        "number": 64,
                        "time": 93.56770833333312,
                        "value": 0
                    },
                    {
                        "number": 64,
                        "time": 93.57812499999979,
                        "value": 1
                    },
                    {
                        "number": 64,
                        "time": 93.68749999999979,
                        "value": 0
                    },
                    {
                        "number": 64,
                        "time": 93.69270833333312,
                        "value": 1
                    },
                    {
                        "number": 64,
                        "time": 93.79166666666644,
                        "value": 0
                    },
                    {
                        "number": 64,
                        "time": 93.81249999999977,
                        "value": 1
                    },
                    {
                        "number": 64,
                        "time": 93.90624999999977,
                        "value": 0
                    },
                    {
                        "number": 64,
                        "time": 93.91666666666644,
                        "value": 1
                    },
                    {
                        "number": 64,
                        "time": 94.03645833333312,
                        "value": 0
                    },
                    {
                        "number": 64,
                        "time": 94.04687499999979,
                        "value": 1
                    },
                    {
                        "number": 64,
                        "time": 94.21354166666646,
                        "value": 0
                    },
                    {
                        "number": 64,
                        "time": 94.39583333333313,
                        "value": 1
                    },
                    {
                        "number": 64,
                        "time": 95.72916666666647,
                        "value": 0
                    },
                    {
                        "number": 64,
                        "time": 96.07291666666647,
                        "value": 1
                    },
                    {
                        "number": 64,
                        "time": 96.47916666666647,
                        "value": 0
                    },
                    {
                        "number": 64,
                        "time": 98.20312499999982,
                        "value": 1
                    },
                    {
                        "number": 64,
                        "time": 98.31249999999982,
                        "value": 0
                    },
                    {
                        "number": 64,
                        "time": 99.15104166666646,
                        "value": 1
                    },
                    {
                        "number": 64,
                        "time": 99.22916666666646,
                        "value": 0
                    },
                    {
                        "number": 64,
                        "time": 100.1145833333331,
                        "value": 1
                    },
                    {
                        "number": 64,
                        "time": 101.46874999999976,
                        "value": 0
                    },
                    {
                        "number": 64,
                        "time": 104.73958333333307,
                        "value": 1
                    },
                    {
                        "number": 64,
                        "time": 104.9010416666664,
                        "value": 0
                    },
                    {
                        "number": 64,
                        "time": 104.98958333333307,
                        "value": 1
                    },
                    {
                        "number": 64,
                        "time": 105.14583333333306,
                        "value": 0
                    },
                    {
                        "number": 64,
                        "time": 105.22916666666639,
                        "value": 1
                    },
                    {
                        "number": 64,
                        "time": 105.34895833333306,
                        "value": 0
                    },
                    {
                        "number": 64,
                        "time": 105.43229166666639,
                        "value": 1
                    },
                    {
                        "number": 64,
                        "time": 105.58333333333306,
                        "value": 0
                    },
                    {
                        "number": 64,
                        "time": 105.66666666666639,
                        "value": 1
                    },
                    {
                        "number": 64,
                        "time": 105.83854166666637,
                        "value": 0
                    },
                    {
                        "number": 64,
                        "time": 107.64583333333302,
                        "value": 1
                    },
                    {
                        "number": 64,
                        "time": 107.89583333333302,
                        "value": 0
                    },
                    {
                        "number": 64,
                        "time": 108.09895833333302,
                        "value": 1
                    },
                    {
                        "number": 64,
                        "time": 109.40104166666634,
                        "value": 0
                    },
                    {
                        "number": 64,
                        "time": 110.08854166666636,
                        "value": 1
                    },
                    {
                        "number": 64,
                        "time": 110.22395833333303,
                        "value": 0
                    },
                    {
                        "number": 64,
                        "time": 111.08333333333303,
                        "value": 1
                    },
                    {
                        "number": 64,
                        "time": 111.33854166666634,
                        "value": 0
                    },
                    {
                        "number": 64,
                        "time": 112.15104166666634,
                        "value": 1
                    },
                    {
                        "number": 64,
                        "time": 112.22395833333302,
                        "value": 0
                    },
                    {
                        "number": 64,
                        "time": 112.48958333333302,
                        "value": 1
                    },
                    {
                        "number": 64,
                        "time": 112.58854166666636,
                        "value": 0
                    },
                    {
                        "number": 64,
                        "time": 112.91145833333303,
                        "value": 1
                    },
                    {
                        "number": 64,
                        "time": 113.0937499999997,
                        "value": 0
                    },
                    {
                        "number": 64,
                        "time": 113.85416666666636,
                        "value": 1
                    },
                    {
                        "number": 64,
                        "time": 113.92187499999969,
                        "value": 0
                    },
                    {
                        "number": 64,
                        "time": 114.06249999999969,
                        "value": 1
                    },
                    {
                        "number": 64,
                        "time": 114.16666666666634,
                        "value": 0
                    },
                    {
                        "number": 64,
                        "time": 114.33854166666634,
                        "value": 1
                    },
                    {
                        "number": 64,
                        "time": 114.43749999999967,
                        "value": 0
                    },
                    {
                        "number": 64,
                        "time": 114.62499999999967,
                        "value": 1
                    },
                    {
                        "number": 64,
                        "time": 114.74999999999967,
                        "value": 0
                    },
                    {
                        "number": 64,
                        "time": 114.97916666666633,
                        "value": 1
                    },
                    {
                        "number": 64,
                        "time": 115.06249999999966,
                        "value": 0
                    },
                    {
                        "number": 64,
                        "time": 115.31249999999966,
                        "value": 1
                    },
                    {
                        "number": 64,
                        "time": 115.45312499999966,
                        "value": 0
                    },
                    {
                        "number": 64,
                        "time": 122.94791666666625,
                        "value": 1
                    },
                    {
                        "number": 64,
                        "time": 122.99999999999957,
                        "value": 0
                    },
                    {
                        "number": 64,
                        "time": 123.46874999999957,
                        "value": 1
                    },
                    {
                        "number": 64,
                        "time": 124.4322916666662,
                        "value": 0
                    },
                    {
                        "number": 64,
                        "time": 125.25520833333287,
                        "value": 1
                    },
                    {
                        "number": 64,
                        "time": 127.3437499999995,
                        "value": 0
                    }
                ],
                "67": [
                    {
                        "number": 67,
                        "time": 63.70833333333342,
                        "value": 1
                    },
                    {
                        "number": 67,
                        "time": 64.15104166666676,
                        "value": 0
                    },
                    {
                        "number": 67,
                        "time": 67.67708333333346,
                        "value": 1
                    },
                    {
                        "number": 67,
                        "time": 69.44270833333346,
                        "value": 0
                    },
                    {
                        "number": 67,
                        "time": 82.99479166666671,
                        "value": 1
                    },
                    {
                        "number": 67,
                        "time": 84.95833333333333,
                        "value": 0
                    },
                    {
                        "number": 67,
                        "time": 95.80729166666647,
                        "value": 1
                    },
                    {
                        "number": 67,
                        "time": 100.80208333333309,
                        "value": 0
                    },
                    {
                        "number": 67,
                        "time": 130.13020833333283,
                        "value": 1
                    },
                    {
                        "number": 67,
                        "time": 138.29166666666615,
                        "value": 0
                    }
                ],
                "91": [
                    {
                        "number": 91,
                        "time": 0,
                        "value": 0.4330708661417323
                    },
                    {
                        "number": 91,
                        "time": 0.005208333333333333,
                        "value": 0.4330708661417323
                    },
                    {
                        "number": 91,
                        "time": 2.963541666666667,
                        "value": 0.4330708661417323
                    }
                ],
                "121": [
                    {
                        "number": 121,
                        "time": 0,
                        "value": 0
                    },
                    {
                        "number": 121,
                        "time": 0,
                        "value": 0
                    },
                    {
                        "number": 121,
                        "time": 2.963541666666667,
                        "value": 1
                    }
                ]
            },
            "id": 1,
            "name": "...",
            "channelNumber": 0,
            "isPercussion": false
        },
        {
            "startTime": 0,
            "duration": 0,
            "length": 0,
            "notes": [],
            "controlChanges": {},
            "id": 2,
            "name": "Arnold Schönberg's Drei Klavierstucke, op. 11"
        },
        {
            "startTime": 0,
            "duration": 0,
            "length": 0,
            "notes": [],
            "controlChanges": {},
            "id": 3,
            "name": "(It's necessary to play the mute chord on the 14th m.)"
        },
        {
            "startTime": 0,
            "duration": 0,
            "length": 0,
            "notes": [],
            "controlChanges": {},
            "id": 4,
            "name": "..."
        },
        {
            "startTime": 0,
            "duration": 0,
            "length": 0,
            "notes": [],
            "controlChanges": {},
            "id": 5,
            "name": "Live on MIDI support by Alessandro Simonetto"
        },
        {
            "startTime": 0,
            "duration": 0,
            "length": 0,
            "notes": [],
            "controlChanges": {},
            "id": 6,
            "name": "Info: ® onclassical.com (by the Author)"
        },
        {
            "startTime": 0,
            "duration": 0,
            "length": 0,
            "notes": [],
            "controlChanges": {},
            "id": 7,
            "name": "A. Simonetto,  © 2003. All rights reserved."
        },
        {
            "startTime": 0,
            "duration": 0,
            "length": 0,
            "notes": [],
            "controlChanges": {},
            "id": 8,
            "name": "..."
        },
        {
            "startTime": 0,
            "duration": 0,
            "length": 0,
            "notes": [],
            "controlChanges": {},
            "id": 9,
            "name": "This file sounds better with Steinberg \"the Grand\""
        },
        {
            "startTime": 0,
            "duration": 0,
            "length": 0,
            "notes": [],
            "controlChanges": {},
            "id": 10
        },
        {
            "startTime": 0,
            "duration": 0,
            "length": 0,
            "notes": [],
            "controlChanges": {},
            "id": 11
        },
        {
            "startTime": 0,
            "duration": 0,
            "length": 0,
            "notes": [],
            "controlChanges": {},
            "id": 12
        },
        {
            "startTime": 0,
            "duration": 0,
            "length": 0,
            "notes": [],
            "controlChanges": {},
            "id": 13
        },
        {
            "startTime": 0,
            "duration": 0,
            "length": 0,
            "notes": [],
            "controlChanges": {},
            "id": 14
        },
        {
            "startTime": 0,
            "duration": 0,
            "length": 0,
            "notes": [],
            "controlChanges": {},
            "id": 15
        },
        {
            "startTime": 0,
            "duration": 0,
            "length": 0,
            "notes": [],
            "controlChanges": {},
            "id": 16
        },
        {
            "startTime": 0,
            "duration": 0,
            "length": 0,
            "notes": [],
            "controlChanges": {},
            "id": 17
        }
    ]
}