{
    "header": {
        "PPQ": 480,
        "timeSignature": [
            5,
            4
        ],
        "bpm": 54.00000540000054,
        "name": "stravinsky firebird part 02"
    },
    "startTime": 0,
    "duration": 282.22219400000347,
    "tracks": [
        {
            "startTime": 0,
            "duration": 0,
            "length": 0,
            "notes": [],
            "controlChanges": {},
            "id": 0,
            "name": "stravinsky firebird part 02"
        },
        {
            "startTime": 0.5555555,
            "duration": 282.22219400000347,
            "length": 1269,
            "notes": [
                {
                    "name": "G5",
                    "midi": 79,
                    "time": 0.5555555,
                    "velocity": 0.3858267716535433,
                    "duration": 0.5555555
                },
                {
                    "name": "B5",
                    "midi": 83,
                    "time": 0.5555555,
                    "velocity": 0.3858267716535433,
                    "duration": 0.5555555
                },
                {
                    "name": "F#5",
                    "midi": 78,
                    "time": 1.111111,
                    "velocity": 0.3858267716535433,
                    "duration": 0.5555554999999999
                },
                {
                    "name": "C6",
                    "midi": 84,
                    "time": 1.111111,
                    "velocity": 0.3858267716535433,
                    "duration": 0.5555554999999999
                },
                {
                    "name": "F5",
                    "midi": 77,
                    "time": 1.6666664999999998,
                    "velocity": 0.3858267716535433,
                    "duration": 0.5555555000000001
                },
                {
                    "name": "C#6",
                    "midi": 85,
                    "time": 1.6666664999999998,
                    "velocity": 0.3858267716535433,
                    "duration": 0.5555555000000001
                },
                {
                    "name": "F#5",
                    "midi": 78,
                    "time": 2.222222,
                    "velocity": 0.3858267716535433,
                    "duration": 0.5555555000000001
                },
                {
                    "name": "C6",
                    "midi": 84,
                    "time": 2.222222,
                    "velocity": 0.3858267716535433,
                    "duration": 0.5555555000000001
                },
                {
                    "name": "F5",
                    "midi": 77,
                    "time": 2.7777775,
                    "velocity": 0.3858267716535433,
                    "duration": 0.5555555000000001
                },
                {
                    "name": "C#6",
                    "midi": 85,
                    "time": 2.7777775,
                    "velocity": 0.3858267716535433,
                    "duration": 0.5555555000000001
                },
                {
                    "name": "F#4",
                    "midi": 66,
                    "time": 3.333333,
                    "velocity": 0.3858267716535433,
                    "duration": 0.18518516666666685
                },
                {
                    "name": "F4",
                    "midi": 65,
                    "time": 3.518518166666667,
                    "velocity": 0.3858267716535433,
                    "duration": 0.18287035208333347
                },
                {
                    "name": "F#4",
                    "midi": 66,
                    "time": 3.7013885187500004,
                    "velocity": 0.3858267716535433,
                    "duration": 0.18749998124999978
                },
                {
                    "name": "F4",
                    "midi": 65,
                    "time": 3.8888885,
                    "velocity": 0.3858267716535433,
                    "duration": 0.18518516666666685
                },
                {
                    "name": "F#4",
                    "midi": 66,
                    "time": 4.074073666666667,
                    "velocity": 0.3858267716535433,
                    "duration": 0.18287035208333347
                },
                {
                    "name": "F4",
                    "midi": 65,
                    "time": 4.2569440187500005,
                    "velocity": 0.3858267716535433,
                    "duration": 0.18749998125000022
                },
                {
                    "name": "F#4",
                    "midi": 66,
                    "time": 4.444444000000001,
                    "velocity": 0.3858267716535433,
                    "duration": 0.18518516666666685
                },
                {
                    "name": "F4",
                    "midi": 65,
                    "time": 4.629629166666668,
                    "velocity": 0.3858267716535433,
                    "duration": 0.18287035208333347
                },
                {
                    "name": "F#4",
                    "midi": 66,
                    "time": 4.812499518750001,
                    "velocity": 0.3858267716535433,
                    "duration": 0.18749998125000022
                },
                {
                    "name": "F4",
                    "midi": 65,
                    "time": 4.999999500000001,
                    "velocity": 0.3858267716535433,
                    "duration": 0.18518516666666685
                },
                {
                    "name": "F#4",
                    "midi": 66,
                    "time": 5.185184666666668,
                    "velocity": 0.3858267716535433,
                    "duration": 0.18287035208333347
                },
                {
                    "name": "F4",
                    "midi": 65,
                    "time": 5.368055018750002,
                    "velocity": 0.3858267716535433,
                    "duration": 0.18749998125000022
                },
                {
                    "name": "F#4",
                    "midi": 66,
                    "time": 5.555555000000002,
                    "velocity": 0.3858267716535433,
                    "duration": 0.18518516666666685
                },
                {
                    "name": "F4",
                    "midi": 65,
                    "time": 5.740740166666669,
                    "velocity": 0.3858267716535433,
                    "duration": 0.18287035208333347
                },
                {
                    "name": "F#4",
                    "midi": 66,
                    "time": 5.923610518750002,
                    "velocity": 0.3858267716535433,
                    "duration": 0.18749998125000022
                },
                {
                    "name": "F4",
                    "midi": 65,
                    "time": 6.111110500000002,
                    "velocity": 0.3858267716535433,
                    "duration": 0.18518516666666685
                },
                {
                    "name": "F#4",
                    "midi": 66,
                    "time": 6.296295666666669,
                    "velocity": 0.3858267716535433,
                    "duration": 0.18287035208333347
                },
                {
                    "name": "F4",
                    "midi": 65,
                    "time": 6.479166018750003,
                    "velocity": 0.3858267716535433,
                    "duration": 0.18749998125000022
                },
                {
                    "name": "F#4",
                    "midi": 66,
                    "time": 6.666666000000003,
                    "velocity": 0.3858267716535433,
                    "duration": 0.18518516666666685
                },
                {
                    "name": "F4",
                    "midi": 65,
                    "time": 6.85185116666667,
                    "velocity": 0.3858267716535433,
                    "duration": 0.18287035208333347
                },
                {
                    "name": "F#4",
                    "midi": 66,
                    "time": 7.034721518750003,
                    "velocity": 0.3858267716535433,
                    "duration": 0.18749998125000022
                },
                {
                    "name": "F4",
                    "midi": 65,
                    "time": 7.222221500000003,
                    "velocity": 0.3858267716535433,
                    "duration": 0.18518516666666685
                },
                {
                    "name": "F#4",
                    "midi": 66,
                    "time": 7.40740666666667,
                    "velocity": 0.3858267716535433,
                    "duration": 0.18287035208333347
                },
                {
                    "name": "F4",
                    "midi": 65,
                    "time": 7.590277018750004,
                    "velocity": 0.3858267716535433,
                    "duration": 0.18749998125000022
                },
                {
                    "name": "F#4",
                    "midi": 66,
                    "time": 7.777777000000004,
                    "velocity": 0.3858267716535433,
                    "duration": 0.18518516666666685
                },
                {
                    "name": "F4",
                    "midi": 65,
                    "time": 7.962962166666671,
                    "velocity": 0.3858267716535433,
                    "duration": 0.18287035208333258
                },
                {
                    "name": "F#4",
                    "midi": 66,
                    "time": 8.145832518750003,
                    "velocity": 0.3858267716535433,
                    "duration": 0.18749998124999934
                },
                {
                    "name": "F4",
                    "midi": 65,
                    "time": 8.333332500000003,
                    "velocity": 0.3858267716535433,
                    "duration": 0.18518516666666685
                },
                {
                    "name": "F#4",
                    "midi": 66,
                    "time": 8.51851766666667,
                    "velocity": 0.3858267716535433,
                    "duration": 0.18287035208333258
                },
                {
                    "name": "F4",
                    "midi": 65,
                    "time": 8.701388018750002,
                    "velocity": 0.3858267716535433,
                    "duration": 0.18749998124999934
                },
                {
                    "name": "F#4",
                    "midi": 66,
                    "time": 8.888888000000001,
                    "velocity": 0.3858267716535433,
                    "duration": 0.18518516666666685
                },
                {
                    "name": "F4",
                    "midi": 65,
                    "time": 9.074073166666668,
                    "velocity": 0.3858267716535433,
                    "duration": 0.18287035208333258
                },
                {
                    "name": "F#4",
                    "midi": 66,
                    "time": 9.25694351875,
                    "velocity": 0.3858267716535433,
                    "duration": 0.18749998124999934
                },
                {
                    "name": "F4",
                    "midi": 65,
                    "time": 9.4444435,
                    "velocity": 0.3858267716535433,
                    "duration": 0.18518516666666685
                },
                {
                    "name": "F#4",
                    "midi": 66,
                    "time": 9.629628666666667,
                    "velocity": 0.3858267716535433,
                    "duration": 0.18287035208333258
                },
                {
                    "name": "F4",
                    "midi": 65,
                    "time": 9.81249901875,
                    "velocity": 0.3858267716535433,
                    "duration": 0.18749998124999934
                },
                {
                    "name": "F#4",
                    "midi": 66,
                    "time": 9.999998999999999,
                    "velocity": 0.3858267716535433,
                    "duration": 0.18518516666666685
                },
                {
                    "name": "F4",
                    "midi": 65,
                    "time": 10.185184166666666,
                    "velocity": 0.3858267716535433,
                    "duration": 0.18287035208333258
                },
                {
                    "name": "F#4",
                    "midi": 66,
                    "time": 10.368054518749998,
                    "velocity": 0.3858267716535433,
                    "duration": 0.18749998124999934
                },
                {
                    "name": "F4",
                    "midi": 65,
                    "time": 10.555554499999998,
                    "velocity": 0.3858267716535433,
                    "duration": 0.18518516666666685
                },
                {
                    "name": "F#4",
                    "midi": 66,
                    "time": 10.740739666666665,
                    "velocity": 0.3858267716535433,
                    "duration": 0.18287035208333258
                },
                {
                    "name": "F4",
                    "midi": 65,
                    "time": 10.923610018749997,
                    "velocity": 0.3858267716535433,
                    "duration": 0.18749998124999934
                },
                {
                    "name": "F#4",
                    "midi": 66,
                    "time": 11.111109999999996,
                    "velocity": 0.3858267716535433,
                    "duration": 0.18518516666666685
                },
                {
                    "name": "F4",
                    "midi": 65,
                    "time": 11.296295166666663,
                    "velocity": 0.3858267716535433,
                    "duration": 0.18287035208333258
                },
                {
                    "name": "F#4",
                    "midi": 66,
                    "time": 11.479165518749996,
                    "velocity": 0.3858267716535433,
                    "duration": 0.18749998124999934
                },
                {
                    "name": "F4",
                    "midi": 65,
                    "time": 11.666665499999995,
                    "velocity": 0.3858267716535433,
                    "duration": 0.18518516666666685
                },
                {
                    "name": "F#4",
                    "midi": 66,
                    "time": 11.851850666666662,
                    "velocity": 0.3858267716535433,
                    "duration": 0.18287035208333258
                },
                {
                    "name": "F4",
                    "midi": 65,
                    "time": 12.034721018749995,
                    "velocity": 0.3858267716535433,
                    "duration": 0.18749998124999934
                },
                {
                    "name": "F#4",
                    "midi": 66,
                    "time": 12.222220999999994,
                    "velocity": 0.3858267716535433,
                    "duration": 0.18518516666666685
                },
                {
                    "name": "F4",
                    "midi": 65,
                    "time": 12.40740616666666,
                    "velocity": 0.3858267716535433,
                    "duration": 0.18287035208333258
                },
                {
                    "name": "F#4",
                    "midi": 66,
                    "time": 12.590276518749993,
                    "velocity": 0.3858267716535433,
                    "duration": 0.18749998124999934
                },
                {
                    "name": "F4",
                    "midi": 65,
                    "time": 12.777776499999993,
                    "velocity": 0.3858267716535433,
                    "duration": 0.18518516666666685
                },
                {
                    "name": "F#4",
                    "midi": 66,
                    "time": 12.96296166666666,
                    "velocity": 0.3858267716535433,
                    "duration": 0.18287035208333258
                },
                {
                    "name": "F4",
                    "midi": 65,
                    "time": 13.145832018749992,
                    "velocity": 0.3858267716535433,
                    "duration": 0.18749998124999934
                },
                {
                    "name": "F#4",
                    "midi": 66,
                    "time": 13.333331999999992,
                    "velocity": 0.3858267716535433,
                    "duration": 0.18518516666666685
                },
                {
                    "name": "F4",
                    "midi": 65,
                    "time": 13.518517166666658,
                    "velocity": 0.3858267716535433,
                    "duration": 0.18287035208333258
                },
                {
                    "name": "F#4",
                    "midi": 66,
                    "time": 13.701387518749991,
                    "velocity": 0.3858267716535433,
                    "duration": 0.18749998124999934
                },
                {
                    "name": "F4",
                    "midi": 65,
                    "time": 13.88888749999999,
                    "velocity": 0.3858267716535433,
                    "duration": 0.18518516666666685
                },
                {
                    "name": "F#4",
                    "midi": 66,
                    "time": 14.074072666666657,
                    "velocity": 0.3858267716535433,
                    "duration": 0.18287035208333258
                },
                {
                    "name": "F4",
                    "midi": 65,
                    "time": 14.25694301874999,
                    "velocity": 0.3858267716535433,
                    "duration": 0.18749998124999934
                },
                {
                    "name": "F#4",
                    "midi": 66,
                    "time": 14.444442999999989,
                    "velocity": 0.3858267716535433,
                    "duration": 0.18518516666666685
                },
                {
                    "name": "F4",
                    "midi": 65,
                    "time": 14.629628166666656,
                    "velocity": 0.3858267716535433,
                    "duration": 0.18287035208333258
                },
                {
                    "name": "F#4",
                    "midi": 66,
                    "time": 14.812498518749988,
                    "velocity": 0.3858267716535433,
                    "duration": 0.18749998124999934
                },
                {
                    "name": "F4",
                    "midi": 65,
                    "time": 14.999998499999988,
                    "velocity": 0.3858267716535433,
                    "duration": 0.18518516666666685
                },
                {
                    "name": "F#4",
                    "midi": 66,
                    "time": 15.185183666666655,
                    "velocity": 0.3858267716535433,
                    "duration": 0.18287035208333258
                },
                {
                    "name": "F4",
                    "midi": 65,
                    "time": 15.368054018749987,
                    "velocity": 0.3858267716535433,
                    "duration": 0.18749998124999934
                },
                {
                    "name": "F#4",
                    "midi": 66,
                    "time": 15.555553999999987,
                    "velocity": 0.3858267716535433,
                    "duration": 0.13888887499999925
                },
                {
                    "name": "F4",
                    "midi": 65,
                    "time": 15.694442874999986,
                    "velocity": 0.3858267716535433,
                    "duration": 0.13888887499999925
                },
                {
                    "name": "F#4",
                    "midi": 66,
                    "time": 15.833331749999985,
                    "velocity": 0.3858267716535433,
                    "duration": 0.13888887499999925
                },
                {
                    "name": "F4",
                    "midi": 65,
                    "time": 15.972220624999984,
                    "velocity": 0.3858267716535433,
                    "duration": 0.13888887499999925
                },
                {
                    "name": "F#4",
                    "midi": 66,
                    "time": 16.111109499999984,
                    "velocity": 0.3858267716535433,
                    "duration": 0.13888887499999925
                },
                {
                    "name": "F4",
                    "midi": 65,
                    "time": 16.249998374999983,
                    "velocity": 0.3858267716535433,
                    "duration": 0.13888887499999925
                },
                {
                    "name": "E4",
                    "midi": 64,
                    "time": 16.388887249999982,
                    "velocity": 0.3858267716535433,
                    "duration": 0.13888887499999925
                },
                {
                    "name": "C4",
                    "midi": 60,
                    "time": 16.52777612499998,
                    "velocity": 0.3858267716535433,
                    "duration": 0.13888887499999925
                },
                {
                    "name": "D4",
                    "midi": 62,
                    "time": 17.77777599999998,
                    "velocity": 0.4881889763779528,
                    "duration": 0.3680555187500012
                },
                {
                    "name": "D#4",
                    "midi": 63,
                    "time": 18.145831518749983,
                    "velocity": 0.4881889763779528,
                    "duration": 0.3726851479166662
                },
                {
                    "name": "E4",
                    "midi": 64,
                    "time": 18.51851666666665,
                    "velocity": 0.4881889763779528,
                    "duration": 0.3703703333333337
                },
                {
                    "name": "G#4",
                    "midi": 68,
                    "time": 18.888886999999983,
                    "velocity": 0.4881889763779528,
                    "duration": 0.5555555000000005
                },
                {
                    "name": "F#5",
                    "midi": 78,
                    "time": 19.999997999999984,
                    "velocity": 0.4881889763779528,
                    "duration": 0.3680555187500012
                },
                {
                    "name": "G5",
                    "midi": 79,
                    "time": 20.368053518749985,
                    "velocity": 0.4881889763779528,
                    "duration": 0.3726851479166662
                },
                {
                    "name": "G#5",
                    "midi": 80,
                    "time": 20.74073866666665,
                    "velocity": 0.4881889763779528,
                    "duration": 0.3703703333333337
                },
                {
                    "name": "F#5",
                    "midi": 78,
                    "time": 21.111108999999985,
                    "velocity": 0.4881889763779528,
                    "duration": 0.18518516666666685
                },
                {
                    "name": "A#5",
                    "midi": 82,
                    "time": 21.111108999999985,
                    "velocity": 0.4881889763779528,
                    "duration": 0.18518516666666685
                },
                {
                    "name": "C6",
                    "midi": 84,
                    "time": 21.111108999999985,
                    "velocity": 0.4881889763779528,
                    "duration": 0.18518516666666685
                },
                {
                    "name": "D5",
                    "midi": 74,
                    "time": 21.29629416666665,
                    "velocity": 0.4881889763779528,
                    "duration": 0.18287035208333435
                },
                {
                    "name": "G#5",
                    "midi": 80,
                    "time": 21.29629416666665,
                    "velocity": 0.4881889763779528,
                    "duration": 0.18287035208333435
                },
                {
                    "name": "F#5",
                    "midi": 78,
                    "time": 21.479164518749986,
                    "velocity": 0.4881889763779528,
                    "duration": 0.18749998124999934
                },
                {
                    "name": "A#5",
                    "midi": 82,
                    "time": 21.479164518749986,
                    "velocity": 0.4881889763779528,
                    "duration": 0.18749998124999934
                },
                {
                    "name": "C6",
                    "midi": 84,
                    "time": 21.479164518749986,
                    "velocity": 0.4881889763779528,
                    "duration": 0.18749998124999934
                },
                {
                    "name": "D5",
                    "midi": 74,
                    "time": 21.666664499999985,
                    "velocity": 0.4881889763779528,
                    "duration": 0.18518516666666685
                },
                {
                    "name": "G#5",
                    "midi": 80,
                    "time": 21.666664499999985,
                    "velocity": 0.4881889763779528,
                    "duration": 0.18518516666666685
                },
                {
                    "name": "F#5",
                    "midi": 78,
                    "time": 21.851849666666652,
                    "velocity": 0.4881889763779528,
                    "duration": 0.18287035208333435
                },
                {
                    "name": "A#5",
                    "midi": 82,
                    "time": 21.851849666666652,
                    "velocity": 0.4881889763779528,
                    "duration": 0.18287035208333435
                },
                {
                    "name": "C6",
                    "midi": 84,
                    "time": 21.851849666666652,
                    "velocity": 0.4881889763779528,
                    "duration": 0.18287035208333435
                },
                {
                    "name": "D5",
                    "midi": 74,
                    "time": 22.034720018749987,
                    "velocity": 0.4881889763779528,
                    "duration": 0.18749998124999934
                },
                {
                    "name": "G#5",
                    "midi": 80,
                    "time": 22.034720018749987,
                    "velocity": 0.4881889763779528,
                    "duration": 0.18749998124999934
                },
                {
                    "name": "F#5",
                    "midi": 78,
                    "time": 22.222219999999986,
                    "velocity": 0.4881889763779528,
                    "duration": 0.18518516666666685
                },
                {
                    "name": "A#5",
                    "midi": 82,
                    "time": 22.222219999999986,
                    "velocity": 0.4881889763779528,
                    "duration": 0.18518516666666685
                },
                {
                    "name": "C6",
                    "midi": 84,
                    "time": 22.222219999999986,
                    "velocity": 0.4881889763779528,
                    "duration": 0.18518516666666685
                },
                {
                    "name": "D5",
                    "midi": 74,
                    "time": 22.407405166666653,
                    "velocity": 0.4881889763779528,
                    "duration": 0.18287035208333435
                },
                {
                    "name": "G#5",
                    "midi": 80,
                    "time": 22.407405166666653,
                    "velocity": 0.4881889763779528,
                    "duration": 0.18287035208333435
                },
                {
                    "name": "F#5",
                    "midi": 78,
                    "time": 22.590275518749987,
                    "velocity": 0.4881889763779528,
                    "duration": 0.18749998124999934
                },
                {
                    "name": "A#5",
                    "midi": 82,
                    "time": 22.590275518749987,
                    "velocity": 0.4881889763779528,
                    "duration": 0.18749998124999934
                },
                {
                    "name": "C6",
                    "midi": 84,
                    "time": 22.590275518749987,
                    "velocity": 0.4881889763779528,
                    "duration": 0.18749998124999934
                },
                {
                    "name": "D5",
                    "midi": 74,
                    "time": 22.777775499999986,
                    "velocity": 0.4881889763779528,
                    "duration": 0.18518516666666685
                },
                {
                    "name": "G#5",
                    "midi": 80,
                    "time": 22.777775499999986,
                    "velocity": 0.4881889763779528,
                    "duration": 0.18518516666666685
                },
                {
                    "name": "F#5",
                    "midi": 78,
                    "time": 22.962960666666653,
                    "velocity": 0.4881889763779528,
                    "duration": 0.18287035208333435
                },
                {
                    "name": "A#5",
                    "midi": 82,
                    "time": 22.962960666666653,
                    "velocity": 0.4881889763779528,
                    "duration": 0.18287035208333435
                },
                {
                    "name": "C6",
                    "midi": 84,
                    "time": 22.962960666666653,
                    "velocity": 0.4881889763779528,
                    "duration": 0.18287035208333435
                },
                {
                    "name": "D5",
                    "midi": 74,
                    "time": 23.145831018749988,
                    "velocity": 0.4881889763779528,
                    "duration": 0.18749998124999934
                },
                {
                    "name": "G#5",
                    "midi": 80,
                    "time": 23.145831018749988,
                    "velocity": 0.4881889763779528,
                    "duration": 0.18749998124999934
                },
                {
                    "name": "F#5",
                    "midi": 78,
                    "time": 23.333330999999987,
                    "velocity": 0.4881889763779528,
                    "duration": 0.18518516666666685
                },
                {
                    "name": "A#5",
                    "midi": 82,
                    "time": 23.333330999999987,
                    "velocity": 0.4881889763779528,
                    "duration": 0.18518516666666685
                },
                {
                    "name": "C6",
                    "midi": 84,
                    "time": 23.333330999999987,
                    "velocity": 0.4881889763779528,
                    "duration": 0.18518516666666685
                },
                {
                    "name": "D5",
                    "midi": 74,
                    "time": 23.518516166666654,
                    "velocity": 0.4881889763779528,
                    "duration": 0.18287035208333435
                },
                {
                    "name": "G#5",
                    "midi": 80,
                    "time": 23.518516166666654,
                    "velocity": 0.4881889763779528,
                    "duration": 0.18287035208333435
                },
                {
                    "name": "F#5",
                    "midi": 78,
                    "time": 23.701386518749988,
                    "velocity": 0.4881889763779528,
                    "duration": 0.18749998124999934
                },
                {
                    "name": "A#5",
                    "midi": 82,
                    "time": 23.701386518749988,
                    "velocity": 0.4881889763779528,
                    "duration": 0.18749998124999934
                },
                {
                    "name": "C6",
                    "midi": 84,
                    "time": 23.701386518749988,
                    "velocity": 0.4881889763779528,
                    "duration": 0.18749998124999934
                },
                {
                    "name": "D5",
                    "midi": 74,
                    "time": 23.888886499999987,
                    "velocity": 0.4881889763779528,
                    "duration": 0.18518516666666685
                },
                {
                    "name": "G#5",
                    "midi": 80,
                    "time": 23.888886499999987,
                    "velocity": 0.4881889763779528,
                    "duration": 0.18518516666666685
                },
                {
                    "name": "F#5",
                    "midi": 78,
                    "time": 24.074071666666654,
                    "velocity": 0.4881889763779528,
                    "duration": 0.18287035208333435
                },
                {
                    "name": "A#5",
                    "midi": 82,
                    "time": 24.074071666666654,
                    "velocity": 0.4881889763779528,
                    "duration": 0.18287035208333435
                },
                {
                    "name": "C6",
                    "midi": 84,
                    "time": 24.074071666666654,
                    "velocity": 0.4881889763779528,
                    "duration": 0.18287035208333435
                },
                {
                    "name": "D5",
                    "midi": 74,
                    "time": 24.25694201874999,
                    "velocity": 0.4881889763779528,
                    "duration": 0.18749998124999934
                },
                {
                    "name": "G#5",
                    "midi": 80,
                    "time": 24.25694201874999,
                    "velocity": 0.4881889763779528,
                    "duration": 0.18749998124999934
                },
                {
                    "name": "F#5",
                    "midi": 78,
                    "time": 24.444441999999988,
                    "velocity": 0.4881889763779528,
                    "duration": 0.18518516666666685
                },
                {
                    "name": "A#5",
                    "midi": 82,
                    "time": 24.444441999999988,
                    "velocity": 0.4881889763779528,
                    "duration": 0.18518516666666685
                },
                {
                    "name": "C6",
                    "midi": 84,
                    "time": 24.444441999999988,
                    "velocity": 0.4881889763779528,
                    "duration": 0.18518516666666685
                },
                {
                    "name": "D5",
                    "midi": 74,
                    "time": 24.629627166666655,
                    "velocity": 0.4881889763779528,
                    "duration": 0.18287035208333435
                },
                {
                    "name": "G#5",
                    "midi": 80,
                    "time": 24.629627166666655,
                    "velocity": 0.4881889763779528,
                    "duration": 0.18287035208333435
                },
                {
                    "name": "F#5",
                    "midi": 78,
                    "time": 24.81249751874999,
                    "velocity": 0.4881889763779528,
                    "duration": 0.18749998124999934
                },
                {
                    "name": "A#5",
                    "midi": 82,
                    "time": 24.81249751874999,
                    "velocity": 0.4881889763779528,
                    "duration": 0.18749998124999934
                },
                {
                    "name": "C6",
                    "midi": 84,
                    "time": 24.81249751874999,
                    "velocity": 0.4881889763779528,
                    "duration": 0.18749998124999934
                },
                {
                    "name": "D5",
                    "midi": 74,
                    "time": 24.99999749999999,
                    "velocity": 0.4881889763779528,
                    "duration": 0.18518516666666685
                },
                {
                    "name": "G#5",
                    "midi": 80,
                    "time": 24.99999749999999,
                    "velocity": 0.4881889763779528,
                    "duration": 0.18518516666666685
                },
                {
                    "name": "F#5",
                    "midi": 78,
                    "time": 25.185182666666655,
                    "velocity": 0.4881889763779528,
                    "duration": 0.18287035208333435
                },
                {
                    "name": "A#5",
                    "midi": 82,
                    "time": 25.185182666666655,
                    "velocity": 0.4881889763779528,
                    "duration": 0.18287035208333435
                },
                {
                    "name": "C6",
                    "midi": 84,
                    "time": 25.185182666666655,
                    "velocity": 0.4881889763779528,
                    "duration": 0.18287035208333435
                },
                {
                    "name": "D5",
                    "midi": 74,
                    "time": 25.36805301874999,
                    "velocity": 0.4881889763779528,
                    "duration": 0.18749998124999934
                },
                {
                    "name": "G#5",
                    "midi": 80,
                    "time": 25.36805301874999,
                    "velocity": 0.4881889763779528,
                    "duration": 0.18749998124999934
                },
                {
                    "name": "C5",
                    "midi": 72,
                    "time": 25.55555299999999,
                    "velocity": 0.4881889763779528,
                    "duration": 0.18518516666666685
                },
                {
                    "name": "F#5",
                    "midi": 78,
                    "time": 25.55555299999999,
                    "velocity": 0.4881889763779528,
                    "duration": 0.18518516666666685
                },
                {
                    "name": "A#5",
                    "midi": 82,
                    "time": 25.55555299999999,
                    "velocity": 0.4881889763779528,
                    "duration": 0.18518516666666685
                },
                {
                    "name": "C6",
                    "midi": 84,
                    "time": 25.55555299999999,
                    "velocity": 0.4881889763779528,
                    "duration": 0.18518516666666685
                },
                {
                    "name": "D5",
                    "midi": 74,
                    "time": 25.740738166666656,
                    "velocity": 0.4881889763779528,
                    "duration": 0.18287035208333435
                },
                {
                    "name": "G#5",
                    "midi": 80,
                    "time": 25.740738166666656,
                    "velocity": 0.4881889763779528,
                    "duration": 0.18287035208333435
                },
                {
                    "name": "C5",
                    "midi": 72,
                    "time": 25.92360851874999,
                    "velocity": 0.4881889763779528,
                    "duration": 0.18749998124999934
                },
                {
                    "name": "F#5",
                    "midi": 78,
                    "time": 25.92360851874999,
                    "velocity": 0.4881889763779528,
                    "duration": 0.18749998124999934
                },
                {
                    "name": "A#5",
                    "midi": 82,
                    "time": 25.92360851874999,
                    "velocity": 0.4881889763779528,
                    "duration": 0.18749998124999934
                },
                {
                    "name": "C6",
                    "midi": 84,
                    "time": 25.92360851874999,
                    "velocity": 0.4881889763779528,
                    "duration": 0.18749998124999934
                },
                {
                    "name": "D5",
                    "midi": 74,
                    "time": 26.11110849999999,
                    "velocity": 0.4881889763779528,
                    "duration": 0.18518516666666685
                },
                {
                    "name": "G#5",
                    "midi": 80,
                    "time": 26.11110849999999,
                    "velocity": 0.4881889763779528,
                    "duration": 0.18518516666666685
                },
                {
                    "name": "C5",
                    "midi": 72,
                    "time": 26.296293666666656,
                    "velocity": 0.4881889763779528,
                    "duration": 0.18287035208333435
                },
                {
                    "name": "F#5",
                    "midi": 78,
                    "time": 26.296293666666656,
                    "velocity": 0.4881889763779528,
                    "duration": 0.18287035208333435
                },
                {
                    "name": "A#5",
                    "midi": 82,
                    "time": 26.296293666666656,
                    "velocity": 0.4881889763779528,
                    "duration": 0.18287035208333435
                },
                {
                    "name": "C6",
                    "midi": 84,
                    "time": 26.296293666666656,
                    "velocity": 0.4881889763779528,
                    "duration": 0.18287035208333435
                },
                {
                    "name": "D5",
                    "midi": 74,
                    "time": 26.47916401874999,
                    "velocity": 0.4881889763779528,
                    "duration": 0.18749998124999934
                },
                {
                    "name": "G#5",
                    "midi": 80,
                    "time": 26.47916401874999,
                    "velocity": 0.4881889763779528,
                    "duration": 0.18749998124999934
                },
                {
                    "name": "C5",
                    "midi": 72,
                    "time": 26.66666399999999,
                    "velocity": 0.4881889763779528,
                    "duration": 0.18518516666666685
                },
                {
                    "name": "F#5",
                    "midi": 78,
                    "time": 26.66666399999999,
                    "velocity": 0.4881889763779528,
                    "duration": 0.18518516666666685
                },
                {
                    "name": "A#5",
                    "midi": 82,
                    "time": 26.66666399999999,
                    "velocity": 0.4881889763779528,
                    "duration": 0.18518516666666685
                },
                {
                    "name": "C6",
                    "midi": 84,
                    "time": 26.66666399999999,
                    "velocity": 0.4881889763779528,
                    "duration": 0.18518516666666685
                },
                {
                    "name": "D5",
                    "midi": 74,
                    "time": 26.851849166666657,
                    "velocity": 0.4881889763779528,
                    "duration": 0.18287035208333435
                },
                {
                    "name": "G#5",
                    "midi": 80,
                    "time": 26.851849166666657,
                    "velocity": 0.4881889763779528,
                    "duration": 0.18287035208333435
                },
                {
                    "name": "C5",
                    "midi": 72,
                    "time": 27.03471951874999,
                    "velocity": 0.4881889763779528,
                    "duration": 0.18749998124999934
                },
                {
                    "name": "F#5",
                    "midi": 78,
                    "time": 27.03471951874999,
                    "velocity": 0.4881889763779528,
                    "duration": 0.18749998124999934
                },
                {
                    "name": "A#5",
                    "midi": 82,
                    "time": 27.03471951874999,
                    "velocity": 0.4881889763779528,
                    "duration": 0.18749998124999934
                },
                {
                    "name": "C6",
                    "midi": 84,
                    "time": 27.03471951874999,
                    "velocity": 0.4881889763779528,
                    "duration": 0.18749998124999934
                },
                {
                    "name": "D5",
                    "midi": 74,
                    "time": 27.22221949999999,
                    "velocity": 0.4881889763779528,
                    "duration": 0.18518516666666685
                },
                {
                    "name": "G#5",
                    "midi": 80,
                    "time": 27.22221949999999,
                    "velocity": 0.4881889763779528,
                    "duration": 0.18518516666666685
                },
                {
                    "name": "C5",
                    "midi": 72,
                    "time": 27.407404666666658,
                    "velocity": 0.4881889763779528,
                    "duration": 0.18287035208333435
                },
                {
                    "name": "F#5",
                    "midi": 78,
                    "time": 27.407404666666658,
                    "velocity": 0.4881889763779528,
                    "duration": 0.18287035208333435
                },
                {
                    "name": "A#5",
                    "midi": 82,
                    "time": 27.407404666666658,
                    "velocity": 0.4881889763779528,
                    "duration": 0.18287035208333435
                },
                {
                    "name": "C6",
                    "midi": 84,
                    "time": 27.407404666666658,
                    "velocity": 0.4881889763779528,
                    "duration": 0.18287035208333435
                },
                {
                    "name": "D5",
                    "midi": 74,
                    "time": 27.590275018749992,
                    "velocity": 0.4881889763779528,
                    "duration": 0.18749998124999934
                },
                {
                    "name": "G#5",
                    "midi": 80,
                    "time": 27.590275018749992,
                    "velocity": 0.4881889763779528,
                    "duration": 0.18749998124999934
                },
                {
                    "name": "C5",
                    "midi": 72,
                    "time": 27.77777499999999,
                    "velocity": 0.4881889763779528,
                    "duration": 0.18518516666666685
                },
                {
                    "name": "F#5",
                    "midi": 78,
                    "time": 27.77777499999999,
                    "velocity": 0.4881889763779528,
                    "duration": 0.18518516666666685
                },
                {
                    "name": "A#5",
                    "midi": 82,
                    "time": 27.77777499999999,
                    "velocity": 0.4881889763779528,
                    "duration": 0.18518516666666685
                },
                {
                    "name": "C6",
                    "midi": 84,
                    "time": 27.77777499999999,
                    "velocity": 0.4881889763779528,
                    "duration": 0.18518516666666685
                },
                {
                    "name": "D5",
                    "midi": 74,
                    "time": 27.962960166666658,
                    "velocity": 0.4881889763779528,
                    "duration": 0.18287035208333435
                },
                {
                    "name": "G#5",
                    "midi": 80,
                    "time": 27.962960166666658,
                    "velocity": 0.4881889763779528,
                    "duration": 0.18287035208333435
                },
                {
                    "name": "C5",
                    "midi": 72,
                    "time": 28.145830518749992,
                    "velocity": 0.4881889763779528,
                    "duration": 0.18749998124999934
                },
                {
                    "name": "F#5",
                    "midi": 78,
                    "time": 28.145830518749992,
                    "velocity": 0.4881889763779528,
                    "duration": 0.18749998124999934
                },
                {
                    "name": "A#5",
                    "midi": 82,
                    "time": 28.145830518749992,
                    "velocity": 0.4881889763779528,
                    "duration": 0.18749998124999934
                },
                {
                    "name": "C6",
                    "midi": 84,
                    "time": 28.145830518749992,
                    "velocity": 0.4881889763779528,
                    "duration": 0.18749998124999934
                },
                {
                    "name": "D5",
                    "midi": 74,
                    "time": 28.33333049999999,
                    "velocity": 0.4881889763779528,
                    "duration": 0.18518516666666685
                },
                {
                    "name": "G#5",
                    "midi": 80,
                    "time": 28.33333049999999,
                    "velocity": 0.4881889763779528,
                    "duration": 0.18518516666666685
                },
                {
                    "name": "C5",
                    "midi": 72,
                    "time": 28.51851566666666,
                    "velocity": 0.4881889763779528,
                    "duration": 0.18287035208333435
                },
                {
                    "name": "F#5",
                    "midi": 78,
                    "time": 28.51851566666666,
                    "velocity": 0.4881889763779528,
                    "duration": 0.18287035208333435
                },
                {
                    "name": "A#5",
                    "midi": 82,
                    "time": 28.51851566666666,
                    "velocity": 0.4881889763779528,
                    "duration": 0.18287035208333435
                },
                {
                    "name": "C6",
                    "midi": 84,
                    "time": 28.51851566666666,
                    "velocity": 0.4881889763779528,
                    "duration": 0.18287035208333435
                },
                {
                    "name": "D5",
                    "midi": 74,
                    "time": 28.701386018749993,
                    "velocity": 0.4881889763779528,
                    "duration": 0.18749998124999934
                },
                {
                    "name": "G#5",
                    "midi": 80,
                    "time": 28.701386018749993,
                    "velocity": 0.4881889763779528,
                    "duration": 0.18749998124999934
                },
                {
                    "name": "C5",
                    "midi": 72,
                    "time": 28.888885999999992,
                    "velocity": 0.4881889763779528,
                    "duration": 0.18518516666666685
                },
                {
                    "name": "F#5",
                    "midi": 78,
                    "time": 28.888885999999992,
                    "velocity": 0.4881889763779528,
                    "duration": 0.18518516666666685
                },
                {
                    "name": "A#5",
                    "midi": 82,
                    "time": 28.888885999999992,
                    "velocity": 0.4881889763779528,
                    "duration": 0.18518516666666685
                },
                {
                    "name": "C6",
                    "midi": 84,
                    "time": 28.888885999999992,
                    "velocity": 0.4881889763779528,
                    "duration": 0.18518516666666685
                },
                {
                    "name": "D5",
                    "midi": 74,
                    "time": 29.07407116666666,
                    "velocity": 0.4881889763779528,
                    "duration": 0.18287035208333435
                },
                {
                    "name": "G#5",
                    "midi": 80,
                    "time": 29.07407116666666,
                    "velocity": 0.4881889763779528,
                    "duration": 0.18287035208333435
                },
                {
                    "name": "C5",
                    "midi": 72,
                    "time": 29.256941518749993,
                    "velocity": 0.4881889763779528,
                    "duration": 0.18749998124999934
                },
                {
                    "name": "F#5",
                    "midi": 78,
                    "time": 29.256941518749993,
                    "velocity": 0.4881889763779528,
                    "duration": 0.18749998124999934
                },
                {
                    "name": "A#5",
                    "midi": 82,
                    "time": 29.256941518749993,
                    "velocity": 0.4881889763779528,
                    "duration": 0.18749998124999934
                },
                {
                    "name": "C6",
                    "midi": 84,
                    "time": 29.256941518749993,
                    "velocity": 0.4881889763779528,
                    "duration": 0.18749998124999934
                },
                {
                    "name": "D5",
                    "midi": 74,
                    "time": 29.444441499999993,
                    "velocity": 0.4881889763779528,
                    "duration": 0.18518516666666685
                },
                {
                    "name": "G#5",
                    "midi": 80,
                    "time": 29.444441499999993,
                    "velocity": 0.4881889763779528,
                    "duration": 0.18518516666666685
                },
                {
                    "name": "C5",
                    "midi": 72,
                    "time": 29.62962666666666,
                    "velocity": 0.4881889763779528,
                    "duration": 0.18287035208333435
                },
                {
                    "name": "F#5",
                    "midi": 78,
                    "time": 29.62962666666666,
                    "velocity": 0.4881889763779528,
                    "duration": 0.18287035208333435
                },
                {
                    "name": "A#5",
                    "midi": 82,
                    "time": 29.62962666666666,
                    "velocity": 0.4881889763779528,
                    "duration": 0.18287035208333435
                },
                {
                    "name": "C6",
                    "midi": 84,
                    "time": 29.62962666666666,
                    "velocity": 0.4881889763779528,
                    "duration": 0.18287035208333435
                },
                {
                    "name": "D5",
                    "midi": 74,
                    "time": 29.812497018749994,
                    "velocity": 0.4881889763779528,
                    "duration": 0.18749998124999934
                },
                {
                    "name": "G#5",
                    "midi": 80,
                    "time": 29.812497018749994,
                    "velocity": 0.4881889763779528,
                    "duration": 0.18749998124999934
                },
                {
                    "name": "F#5",
                    "midi": 78,
                    "time": 29.999996999999993,
                    "velocity": 0.4881889763779528,
                    "duration": 0.3680555187500012
                },
                {
                    "name": "A#5",
                    "midi": 82,
                    "time": 29.999996999999993,
                    "velocity": 0.4881889763779528,
                    "duration": 0.3680555187500012
                },
                {
                    "name": "C6",
                    "midi": 84,
                    "time": 29.999996999999993,
                    "velocity": 0.4881889763779528,
                    "duration": 0.3680555187500012
                },
                {
                    "name": "F#5",
                    "midi": 78,
                    "time": 30.368052518749995,
                    "velocity": 0.4881889763779528,
                    "duration": 0.3726851479166662
                },
                {
                    "name": "A#5",
                    "midi": 82,
                    "time": 30.368052518749995,
                    "velocity": 0.4881889763779528,
                    "duration": 0.3726851479166662
                },
                {
                    "name": "C6",
                    "midi": 84,
                    "time": 30.368052518749995,
                    "velocity": 0.4881889763779528,
                    "duration": 0.3726851479166662
                },
                {
                    "name": "F#5",
                    "midi": 78,
                    "time": 30.74073766666666,
                    "velocity": 0.4881889763779528,
                    "duration": 0.3703703333333337
                },
                {
                    "name": "A#5",
                    "midi": 82,
                    "time": 30.74073766666666,
                    "velocity": 0.4881889763779528,
                    "duration": 0.3703703333333337
                },
                {
                    "name": "C6",
                    "midi": 84,
                    "time": 30.74073766666666,
                    "velocity": 0.4881889763779528,
                    "duration": 0.3703703333333337
                },
                {
                    "name": "F#5",
                    "midi": 78,
                    "time": 31.111107999999994,
                    "velocity": 0.4881889763779528,
                    "duration": 0.3680555187500012
                },
                {
                    "name": "A#5",
                    "midi": 82,
                    "time": 31.111107999999994,
                    "velocity": 0.4881889763779528,
                    "duration": 0.3680555187500012
                },
                {
                    "name": "C6",
                    "midi": 84,
                    "time": 31.111107999999994,
                    "velocity": 0.4881889763779528,
                    "duration": 0.3680555187500012
                },
                {
                    "name": "C#6",
                    "midi": 85,
                    "time": 31.111107999999994,
                    "velocity": 0.4881889763779528,
                    "duration": 0.3680555187500012
                },
                {
                    "name": "F#5",
                    "midi": 78,
                    "time": 31.479163518749996,
                    "velocity": 0.4881889763779528,
                    "duration": 0.3726851479166662
                },
                {
                    "name": "A#5",
                    "midi": 82,
                    "time": 31.479163518749996,
                    "velocity": 0.4881889763779528,
                    "duration": 0.3726851479166662
                },
                {
                    "name": "C6",
                    "midi": 84,
                    "time": 31.479163518749996,
                    "velocity": 0.4881889763779528,
                    "duration": 0.3726851479166662
                },
                {
                    "name": "C#6",
                    "midi": 85,
                    "time": 31.479163518749996,
                    "velocity": 0.4881889763779528,
                    "duration": 0.3726851479166662
                },
                {
                    "name": "F#5",
                    "midi": 78,
                    "time": 31.851848666666662,
                    "velocity": 0.4881889763779528,
                    "duration": 0.3703703333333337
                },
                {
                    "name": "A#5",
                    "midi": 82,
                    "time": 31.851848666666662,
                    "velocity": 0.4881889763779528,
                    "duration": 0.3703703333333337
                },
                {
                    "name": "C6",
                    "midi": 84,
                    "time": 31.851848666666662,
                    "velocity": 0.4881889763779528,
                    "duration": 0.3703703333333337
                },
                {
                    "name": "C#6",
                    "midi": 85,
                    "time": 31.851848666666662,
                    "velocity": 0.4881889763779528,
                    "duration": 0.3703703333333337
                },
                {
                    "name": "F#5",
                    "midi": 78,
                    "time": 32.222218999999996,
                    "velocity": 0.4881889763779528,
                    "duration": 0.36805551874999765
                },
                {
                    "name": "A#5",
                    "midi": 82,
                    "time": 32.222218999999996,
                    "velocity": 0.4881889763779528,
                    "duration": 0.36805551874999765
                },
                {
                    "name": "C6",
                    "midi": 84,
                    "time": 32.222218999999996,
                    "velocity": 0.4881889763779528,
                    "duration": 0.36805551874999765
                },
                {
                    "name": "D6",
                    "midi": 86,
                    "time": 32.222218999999996,
                    "velocity": 0.4881889763779528,
                    "duration": 0.36805551874999765
                },
                {
                    "name": "F#5",
                    "midi": 78,
                    "time": 32.59027451874999,
                    "velocity": 0.4881889763779528,
                    "duration": 0.37268514791666973
                },
                {
                    "name": "A#5",
                    "midi": 82,
                    "time": 32.59027451874999,
                    "velocity": 0.4881889763779528,
                    "duration": 0.37268514791666973
                },
                {
                    "name": "C6",
                    "midi": 84,
                    "time": 32.59027451874999,
                    "velocity": 0.4881889763779528,
                    "duration": 0.37268514791666973
                },
                {
                    "name": "D6",
                    "midi": 86,
                    "time": 32.59027451874999,
                    "velocity": 0.4881889763779528,
                    "duration": 0.37268514791666973
                },
                {
                    "name": "F#5",
                    "midi": 78,
                    "time": 32.96295966666666,
                    "velocity": 0.4881889763779528,
                    "duration": 0.3703703333333337
                },
                {
                    "name": "A#5",
                    "midi": 82,
                    "time": 32.96295966666666,
                    "velocity": 0.4881889763779528,
                    "duration": 0.3703703333333337
                },
                {
                    "name": "C6",
                    "midi": 84,
                    "time": 32.96295966666666,
                    "velocity": 0.4881889763779528,
                    "duration": 0.3703703333333337
                },
                {
                    "name": "D6",
                    "midi": 86,
                    "time": 32.96295966666666,
                    "velocity": 0.4881889763779528,
                    "duration": 0.3703703333333337
                },
                {
                    "name": "F#5",
                    "midi": 78,
                    "time": 33.33333,
                    "velocity": 0.4881889763779528,
                    "duration": 0.36805551874999765
                },
                {
                    "name": "A#5",
                    "midi": 82,
                    "time": 33.33333,
                    "velocity": 0.4881889763779528,
                    "duration": 0.36805551874999765
                },
                {
                    "name": "C6",
                    "midi": 84,
                    "time": 33.33333,
                    "velocity": 0.4881889763779528,
                    "duration": 0.36805551874999765
                },
                {
                    "name": "D#6",
                    "midi": 87,
                    "time": 33.33333,
                    "velocity": 0.4881889763779528,
                    "duration": 0.36805551874999765
                },
                {
                    "name": "F#5",
                    "midi": 78,
                    "time": 33.701385518749994,
                    "velocity": 0.4881889763779528,
                    "duration": 0.37268514791666973
                },
                {
                    "name": "A#5",
                    "midi": 82,
                    "time": 33.701385518749994,
                    "velocity": 0.4881889763779528,
                    "duration": 0.37268514791666973
                },
                {
                    "name": "C6",
                    "midi": 84,
                    "time": 33.701385518749994,
                    "velocity": 0.4881889763779528,
                    "duration": 0.37268514791666973
                },
                {
                    "name": "D#6",
                    "midi": 87,
                    "time": 33.701385518749994,
                    "velocity": 0.4881889763779528,
                    "duration": 0.37268514791666973
                },
                {
                    "name": "F#5",
                    "midi": 78,
                    "time": 34.074070666666664,
                    "velocity": 0.4881889763779528,
                    "duration": 0.3703703333333337
                },
                {
                    "name": "A#5",
                    "midi": 82,
                    "time": 34.074070666666664,
                    "velocity": 0.4881889763779528,
                    "duration": 0.3703703333333337
                },
                {
                    "name": "C6",
                    "midi": 84,
                    "time": 34.074070666666664,
                    "velocity": 0.4881889763779528,
                    "duration": 0.3703703333333337
                },
                {
                    "name": "D#6",
                    "midi": 87,
                    "time": 34.074070666666664,
                    "velocity": 0.4881889763779528,
                    "duration": 0.3703703333333337
                },
                {
                    "name": "F#5",
                    "midi": 78,
                    "time": 34.444441,
                    "velocity": 0.4881889763779528,
                    "duration": 0.36805551874999765
                },
                {
                    "name": "A#5",
                    "midi": 82,
                    "time": 34.444441,
                    "velocity": 0.4881889763779528,
                    "duration": 0.36805551874999765
                },
                {
                    "name": "C6",
                    "midi": 84,
                    "time": 34.444441,
                    "velocity": 0.4881889763779528,
                    "duration": 0.36805551874999765
                },
                {
                    "name": "E6",
                    "midi": 88,
                    "time": 34.444441,
                    "velocity": 0.4881889763779528,
                    "duration": 0.36805551874999765
                },
                {
                    "name": "F#5",
                    "midi": 78,
                    "time": 34.812496518749995,
                    "velocity": 0.4881889763779528,
                    "duration": 0.37268514791666973
                },
                {
                    "name": "A#5",
                    "midi": 82,
                    "time": 34.812496518749995,
                    "velocity": 0.4881889763779528,
                    "duration": 0.37268514791666973
                },
                {
                    "name": "C6",
                    "midi": 84,
                    "time": 34.812496518749995,
                    "velocity": 0.4881889763779528,
                    "duration": 0.37268514791666973
                },
                {
                    "name": "E6",
                    "midi": 88,
                    "time": 34.812496518749995,
                    "velocity": 0.4881889763779528,
                    "duration": 0.37268514791666973
                },
                {
                    "name": "F#5",
                    "midi": 78,
                    "time": 35.185181666666665,
                    "velocity": 0.4881889763779528,
                    "duration": 0.3703703333333337
                },
                {
                    "name": "A#5",
                    "midi": 82,
                    "time": 35.185181666666665,
                    "velocity": 0.4881889763779528,
                    "duration": 0.3703703333333337
                },
                {
                    "name": "C6",
                    "midi": 84,
                    "time": 35.185181666666665,
                    "velocity": 0.4881889763779528,
                    "duration": 0.3703703333333337
                },
                {
                    "name": "E6",
                    "midi": 88,
                    "time": 35.185181666666665,
                    "velocity": 0.4881889763779528,
                    "duration": 0.3703703333333337
                },
                {
                    "name": "F#5",
                    "midi": 78,
                    "time": 35.555552,
                    "velocity": 0.4881889763779528,
                    "duration": 0.36805551874999765
                },
                {
                    "name": "A#5",
                    "midi": 82,
                    "time": 35.555552,
                    "velocity": 0.4881889763779528,
                    "duration": 0.36805551874999765
                },
                {
                    "name": "C6",
                    "midi": 84,
                    "time": 35.555552,
                    "velocity": 0.4881889763779528,
                    "duration": 0.36805551874999765
                },
                {
                    "name": "F6",
                    "midi": 89,
                    "time": 35.555552,
                    "velocity": 0.4881889763779528,
                    "duration": 0.36805551874999765
                },
                {
                    "name": "F#5",
                    "midi": 78,
                    "time": 35.923607518749996,
                    "velocity": 0.4881889763779528,
                    "duration": 0.37268514791666973
                },
                {
                    "name": "A#5",
                    "midi": 82,
                    "time": 35.923607518749996,
                    "velocity": 0.4881889763779528,
                    "duration": 0.37268514791666973
                },
                {
                    "name": "C6",
                    "midi": 84,
                    "time": 35.923607518749996,
                    "velocity": 0.4881889763779528,
                    "duration": 0.37268514791666973
                },
                {
                    "name": "F6",
                    "midi": 89,
                    "time": 35.923607518749996,
                    "velocity": 0.4881889763779528,
                    "duration": 0.37268514791666973
                },
                {
                    "name": "F#5",
                    "midi": 78,
                    "time": 36.296292666666666,
                    "velocity": 0.4881889763779528,
                    "duration": 0.3703703333333337
                },
                {
                    "name": "A#5",
                    "midi": 82,
                    "time": 36.296292666666666,
                    "velocity": 0.4881889763779528,
                    "duration": 0.3703703333333337
                },
                {
                    "name": "C6",
                    "midi": 84,
                    "time": 36.296292666666666,
                    "velocity": 0.4881889763779528,
                    "duration": 0.3703703333333337
                },
                {
                    "name": "F6",
                    "midi": 89,
                    "time": 36.296292666666666,
                    "velocity": 0.4881889763779528,
                    "duration": 0.3703703333333337
                },
                {
                    "name": "C6",
                    "midi": 84,
                    "time": 36.666663,
                    "velocity": 0.5905511811023622,
                    "duration": 0.36805551874999765
                },
                {
                    "name": "E6",
                    "midi": 88,
                    "time": 36.666663,
                    "velocity": 0.5905511811023622,
                    "duration": 0.36805551874999765
                },
                {
                    "name": "F#6",
                    "midi": 90,
                    "time": 36.666663,
                    "velocity": 0.5905511811023622,
                    "duration": 0.36805551874999765
                },
                {
                    "name": "C6",
                    "midi": 84,
                    "time": 37.03471851875,
                    "velocity": 0.5905511811023622,
                    "duration": 0.37268514791666973
                },
                {
                    "name": "E6",
                    "midi": 88,
                    "time": 37.03471851875,
                    "velocity": 0.5905511811023622,
                    "duration": 0.37268514791666973
                },
                {
                    "name": "F#6",
                    "midi": 90,
                    "time": 37.03471851875,
                    "velocity": 0.5905511811023622,
                    "duration": 0.37268514791666973
                },
                {
                    "name": "C6",
                    "midi": 84,
                    "time": 37.40740366666667,
                    "velocity": 0.5905511811023622,
                    "duration": 0.3703703333333337
                },
                {
                    "name": "E6",
                    "midi": 88,
                    "time": 37.40740366666667,
                    "velocity": 0.5905511811023622,
                    "duration": 0.3703703333333337
                },
                {
                    "name": "F#6",
                    "midi": 90,
                    "time": 37.40740366666667,
                    "velocity": 0.5905511811023622,
                    "duration": 0.3703703333333337
                },
                {
                    "name": "C6",
                    "midi": 84,
                    "time": 37.777774,
                    "velocity": 0.5905511811023622,
                    "duration": 0.36805551874999765
                },
                {
                    "name": "E6",
                    "midi": 88,
                    "time": 37.777774,
                    "velocity": 0.5905511811023622,
                    "duration": 0.36805551874999765
                },
                {
                    "name": "F#6",
                    "midi": 90,
                    "time": 37.777774,
                    "velocity": 0.5905511811023622,
                    "duration": 0.36805551874999765
                },
                {
                    "name": "G6",
                    "midi": 91,
                    "time": 37.777774,
                    "velocity": 0.5905511811023622,
                    "duration": 0.36805551874999765
                },
                {
                    "name": "C6",
                    "midi": 84,
                    "time": 38.14582951875,
                    "velocity": 0.5905511811023622,
                    "duration": 0.37268514791666973
                },
                {
                    "name": "E6",
                    "midi": 88,
                    "time": 38.14582951875,
                    "velocity": 0.5905511811023622,
                    "duration": 0.37268514791666973
                },
                {
                    "name": "F#6",
                    "midi": 90,
                    "time": 38.14582951875,
                    "velocity": 0.5905511811023622,
                    "duration": 0.37268514791666973
                },
                {
                    "name": "G6",
                    "midi": 91,
                    "time": 38.14582951875,
                    "velocity": 0.5905511811023622,
                    "duration": 0.37268514791666973
                },
                {
                    "name": "C6",
                    "midi": 84,
                    "time": 38.51851466666667,
                    "velocity": 0.5905511811023622,
                    "duration": 0.3703703333333337
                },
                {
                    "name": "E6",
                    "midi": 88,
                    "time": 38.51851466666667,
                    "velocity": 0.5905511811023622,
                    "duration": 0.3703703333333337
                },
                {
                    "name": "F#6",
                    "midi": 90,
                    "time": 38.51851466666667,
                    "velocity": 0.5905511811023622,
                    "duration": 0.3703703333333337
                },
                {
                    "name": "G6",
                    "midi": 91,
                    "time": 38.51851466666667,
                    "velocity": 0.5905511811023622,
                    "duration": 0.3703703333333337
                },
                {
                    "name": "C6",
                    "midi": 84,
                    "time": 38.888885,
                    "velocity": 0.5905511811023622,
                    "duration": 0.36805551874999765
                },
                {
                    "name": "E6",
                    "midi": 88,
                    "time": 38.888885,
                    "velocity": 0.5905511811023622,
                    "duration": 0.36805551874999765
                },
                {
                    "name": "F#6",
                    "midi": 90,
                    "time": 38.888885,
                    "velocity": 0.5905511811023622,
                    "duration": 0.36805551874999765
                },
                {
                    "name": "G#6",
                    "midi": 92,
                    "time": 38.888885,
                    "velocity": 0.5905511811023622,
                    "duration": 0.36805551874999765
                },
                {
                    "name": "C6",
                    "midi": 84,
                    "time": 39.25694051875,
                    "velocity": 0.5905511811023622,
                    "duration": 0.37268514791666973
                },
                {
                    "name": "E6",
                    "midi": 88,
                    "time": 39.25694051875,
                    "velocity": 0.5905511811023622,
                    "duration": 0.37268514791666973
                },
                {
                    "name": "F#6",
                    "midi": 90,
                    "time": 39.25694051875,
                    "velocity": 0.5905511811023622,
                    "duration": 0.37268514791666973
                },
                {
                    "name": "G#6",
                    "midi": 92,
                    "time": 39.25694051875,
                    "velocity": 0.5905511811023622,
                    "duration": 0.37268514791666973
                },
                {
                    "name": "C6",
                    "midi": 84,
                    "time": 39.62962566666667,
                    "velocity": 0.5905511811023622,
                    "duration": 0.3703703333333337
                },
                {
                    "name": "E6",
                    "midi": 88,
                    "time": 39.62962566666667,
                    "velocity": 0.5905511811023622,
                    "duration": 0.3703703333333337
                },
                {
                    "name": "F#6",
                    "midi": 90,
                    "time": 39.62962566666667,
                    "velocity": 0.5905511811023622,
                    "duration": 0.3703703333333337
                },
                {
                    "name": "G#6",
                    "midi": 92,
                    "time": 39.62962566666667,
                    "velocity": 0.5905511811023622,
                    "duration": 0.3703703333333337
                },
                {
                    "name": "C6",
                    "midi": 84,
                    "time": 39.999996,
                    "velocity": 0.5905511811023622,
                    "duration": 0.36805551874999765
                },
                {
                    "name": "E6",
                    "midi": 88,
                    "time": 39.999996,
                    "velocity": 0.5905511811023622,
                    "duration": 0.36805551874999765
                },
                {
                    "name": "F#6",
                    "midi": 90,
                    "time": 39.999996,
                    "velocity": 0.5905511811023622,
                    "duration": 0.36805551874999765
                },
                {
                    "name": "A6",
                    "midi": 93,
                    "time": 39.999996,
                    "velocity": 0.5905511811023622,
                    "duration": 0.36805551874999765
                },
                {
                    "name": "C6",
                    "midi": 84,
                    "time": 40.36805151875,
                    "velocity": 0.5905511811023622,
                    "duration": 0.37268514791666973
                },
                {
                    "name": "E6",
                    "midi": 88,
                    "time": 40.36805151875,
                    "velocity": 0.5905511811023622,
                    "duration": 0.37268514791666973
                },
                {
                    "name": "F#6",
                    "midi": 90,
                    "time": 40.36805151875,
                    "velocity": 0.5905511811023622,
                    "duration": 0.37268514791666973
                },
                {
                    "name": "A6",
                    "midi": 93,
                    "time": 40.36805151875,
                    "velocity": 0.5905511811023622,
                    "duration": 0.37268514791666973
                },
                {
                    "name": "C6",
                    "midi": 84,
                    "time": 40.74073666666667,
                    "velocity": 0.5905511811023622,
                    "duration": 0.3703703333333337
                },
                {
                    "name": "E6",
                    "midi": 88,
                    "time": 40.74073666666667,
                    "velocity": 0.5905511811023622,
                    "duration": 0.3703703333333337
                },
                {
                    "name": "F#6",
                    "midi": 90,
                    "time": 40.74073666666667,
                    "velocity": 0.5905511811023622,
                    "duration": 0.3703703333333337
                },
                {
                    "name": "A6",
                    "midi": 93,
                    "time": 40.74073666666667,
                    "velocity": 0.5905511811023622,
                    "duration": 0.3703703333333337
                },
                {
                    "name": "C6",
                    "midi": 84,
                    "time": 41.111107000000004,
                    "velocity": 0.5905511811023622,
                    "duration": 0.36805551874999765
                },
                {
                    "name": "E6",
                    "midi": 88,
                    "time": 41.111107000000004,
                    "velocity": 0.5905511811023622,
                    "duration": 0.36805551874999765
                },
                {
                    "name": "F#6",
                    "midi": 90,
                    "time": 41.111107000000004,
                    "velocity": 0.5905511811023622,
                    "duration": 0.36805551874999765
                },
                {
                    "name": "A#6",
                    "midi": 94,
                    "time": 41.111107000000004,
                    "velocity": 0.5905511811023622,
                    "duration": 0.36805551874999765
                },
                {
                    "name": "C6",
                    "midi": 84,
                    "time": 41.47916251875,
                    "velocity": 0.5905511811023622,
                    "duration": 0.37268514791666973
                },
                {
                    "name": "E6",
                    "midi": 88,
                    "time": 41.47916251875,
                    "velocity": 0.5905511811023622,
                    "duration": 0.37268514791666973
                },
                {
                    "name": "F#6",
                    "midi": 90,
                    "time": 41.47916251875,
                    "velocity": 0.5905511811023622,
                    "duration": 0.37268514791666973
                },
                {
                    "name": "A#6",
                    "midi": 94,
                    "time": 41.47916251875,
                    "velocity": 0.5905511811023622,
                    "duration": 0.37268514791666973
                },
                {
                    "name": "C6",
                    "midi": 84,
                    "time": 41.85184766666667,
                    "velocity": 0.5905511811023622,
                    "duration": 0.3703703333333337
                },
                {
                    "name": "E6",
                    "midi": 88,
                    "time": 41.85184766666667,
                    "velocity": 0.5905511811023622,
                    "duration": 0.3703703333333337
                },
                {
                    "name": "F#6",
                    "midi": 90,
                    "time": 41.85184766666667,
                    "velocity": 0.5905511811023622,
                    "duration": 0.3703703333333337
                },
                {
                    "name": "A#6",
                    "midi": 94,
                    "time": 41.85184766666667,
                    "velocity": 0.5905511811023622,
                    "duration": 0.3703703333333337
                },
                {
                    "name": "C6",
                    "midi": 84,
                    "time": 42.222218000000005,
                    "velocity": 0.5905511811023622,
                    "duration": 0.36805551874999765
                },
                {
                    "name": "E6",
                    "midi": 88,
                    "time": 42.222218000000005,
                    "velocity": 0.5905511811023622,
                    "duration": 0.36805551874999765
                },
                {
                    "name": "F#6",
                    "midi": 90,
                    "time": 42.222218000000005,
                    "velocity": 0.5905511811023622,
                    "duration": 0.36805551874999765
                },
                {
                    "name": "B6",
                    "midi": 95,
                    "time": 42.222218000000005,
                    "velocity": 0.5905511811023622,
                    "duration": 0.36805551874999765
                },
                {
                    "name": "C6",
                    "midi": 84,
                    "time": 42.59027351875,
                    "velocity": 0.5905511811023622,
                    "duration": 0.37268514791666973
                },
                {
                    "name": "E6",
                    "midi": 88,
                    "time": 42.59027351875,
                    "velocity": 0.5905511811023622,
                    "duration": 0.37268514791666973
                },
                {
                    "name": "F#6",
                    "midi": 90,
                    "time": 42.59027351875,
                    "velocity": 0.5905511811023622,
                    "duration": 0.37268514791666973
                },
                {
                    "name": "B6",
                    "midi": 95,
                    "time": 42.59027351875,
                    "velocity": 0.5905511811023622,
                    "duration": 0.37268514791666973
                },
                {
                    "name": "C6",
                    "midi": 84,
                    "time": 42.96295866666667,
                    "velocity": 0.5905511811023622,
                    "duration": 0.3703703333333337
                },
                {
                    "name": "E6",
                    "midi": 88,
                    "time": 42.96295866666667,
                    "velocity": 0.5905511811023622,
                    "duration": 0.3703703333333337
                },
                {
                    "name": "F#6",
                    "midi": 90,
                    "time": 42.96295866666667,
                    "velocity": 0.5905511811023622,
                    "duration": 0.3703703333333337
                },
                {
                    "name": "B6",
                    "midi": 95,
                    "time": 42.96295866666667,
                    "velocity": 0.5905511811023622,
                    "duration": 0.3703703333333337
                },
                {
                    "name": "F#6",
                    "midi": 90,
                    "time": 43.333329000000006,
                    "velocity": 0.5905511811023622,
                    "duration": 0.36805551874999765
                },
                {
                    "name": "A#6",
                    "midi": 94,
                    "time": 43.333329000000006,
                    "velocity": 0.5905511811023622,
                    "duration": 0.36805551874999765
                },
                {
                    "name": "C7",
                    "midi": 96,
                    "time": 43.333329000000006,
                    "velocity": 0.5905511811023622,
                    "duration": 0.36805551874999765
                },
                {
                    "name": "F#6",
                    "midi": 90,
                    "time": 43.701384518750004,
                    "velocity": 0.5905511811023622,
                    "duration": 0.37268514791666973
                },
                {
                    "name": "A#6",
                    "midi": 94,
                    "time": 43.701384518750004,
                    "velocity": 0.5905511811023622,
                    "duration": 0.37268514791666973
                },
                {
                    "name": "C7",
                    "midi": 96,
                    "time": 43.701384518750004,
                    "velocity": 0.5905511811023622,
                    "duration": 0.37268514791666973
                },
                {
                    "name": "F#6",
                    "midi": 90,
                    "time": 44.074069666666674,
                    "velocity": 0.5905511811023622,
                    "duration": 0.3703703333333337
                },
                {
                    "name": "A#6",
                    "midi": 94,
                    "time": 44.074069666666674,
                    "velocity": 0.5905511811023622,
                    "duration": 0.3703703333333337
                },
                {
                    "name": "C7",
                    "midi": 96,
                    "time": 44.074069666666674,
                    "velocity": 0.5905511811023622,
                    "duration": 0.3703703333333337
                },
                {
                    "name": "F#6",
                    "midi": 90,
                    "time": 44.44444000000001,
                    "velocity": 0.5905511811023622,
                    "duration": 0.36805551874999765
                },
                {
                    "name": "A#6",
                    "midi": 94,
                    "time": 44.44444000000001,
                    "velocity": 0.5905511811023622,
                    "duration": 0.36805551874999765
                },
                {
                    "name": "C7",
                    "midi": 96,
                    "time": 44.44444000000001,
                    "velocity": 0.5905511811023622,
                    "duration": 0.36805551874999765
                },
                {
                    "name": "C#7",
                    "midi": 97,
                    "time": 44.44444000000001,
                    "velocity": 0.5905511811023622,
                    "duration": 0.36805551874999765
                },
                {
                    "name": "F#6",
                    "midi": 90,
                    "time": 44.812495518750005,
                    "velocity": 0.5905511811023622,
                    "duration": 0.37268514791666973
                },
                {
                    "name": "A#6",
                    "midi": 94,
                    "time": 44.812495518750005,
                    "velocity": 0.5905511811023622,
                    "duration": 0.37268514791666973
                },
                {
                    "name": "C7",
                    "midi": 96,
                    "time": 44.812495518750005,
                    "velocity": 0.5905511811023622,
                    "duration": 0.37268514791666973
                },
                {
                    "name": "C#7",
                    "midi": 97,
                    "time": 44.812495518750005,
                    "velocity": 0.5905511811023622,
                    "duration": 0.37268514791666973
                },
                {
                    "name": "F#6",
                    "midi": 90,
                    "time": 45.185180666666675,
                    "velocity": 0.5905511811023622,
                    "duration": 0.3703703333333337
                },
                {
                    "name": "A#6",
                    "midi": 94,
                    "time": 45.185180666666675,
                    "velocity": 0.5905511811023622,
                    "duration": 0.3703703333333337
                },
                {
                    "name": "C7",
                    "midi": 96,
                    "time": 45.185180666666675,
                    "velocity": 0.5905511811023622,
                    "duration": 0.3703703333333337
                },
                {
                    "name": "C#7",
                    "midi": 97,
                    "time": 45.185180666666675,
                    "velocity": 0.5905511811023622,
                    "duration": 0.3703703333333337
                },
                {
                    "name": "F#6",
                    "midi": 90,
                    "time": 45.55555100000001,
                    "velocity": 0.5905511811023622,
                    "duration": 0.36805551874999765
                },
                {
                    "name": "A#6",
                    "midi": 94,
                    "time": 45.55555100000001,
                    "velocity": 0.5905511811023622,
                    "duration": 0.36805551874999765
                },
                {
                    "name": "C7",
                    "midi": 96,
                    "time": 45.55555100000001,
                    "velocity": 0.5905511811023622,
                    "duration": 0.36805551874999765
                },
                {
                    "name": "D7",
                    "midi": 98,
                    "time": 45.55555100000001,
                    "velocity": 0.5905511811023622,
                    "duration": 0.36805551874999765
                },
                {
                    "name": "F#6",
                    "midi": 90,
                    "time": 45.923606518750006,
                    "velocity": 0.5905511811023622,
                    "duration": 0.37268514791666973
                },
                {
                    "name": "A#6",
                    "midi": 94,
                    "time": 45.923606518750006,
                    "velocity": 0.5905511811023622,
                    "duration": 0.37268514791666973
                },
                {
                    "name": "C7",
                    "midi": 96,
                    "time": 45.923606518750006,
                    "velocity": 0.5905511811023622,
                    "duration": 0.37268514791666973
                },
                {
                    "name": "D7",
                    "midi": 98,
                    "time": 45.923606518750006,
                    "velocity": 0.5905511811023622,
                    "duration": 0.37268514791666973
                },
                {
                    "name": "F#6",
                    "midi": 90,
                    "time": 46.296291666666676,
                    "velocity": 0.5905511811023622,
                    "duration": 0.3703703333333337
                },
                {
                    "name": "A#6",
                    "midi": 94,
                    "time": 46.296291666666676,
                    "velocity": 0.5905511811023622,
                    "duration": 0.3703703333333337
                },
                {
                    "name": "C7",
                    "midi": 96,
                    "time": 46.296291666666676,
                    "velocity": 0.5905511811023622,
                    "duration": 0.3703703333333337
                },
                {
                    "name": "D7",
                    "midi": 98,
                    "time": 46.296291666666676,
                    "velocity": 0.5905511811023622,
                    "duration": 0.3703703333333337
                },
                {
                    "name": "F#6",
                    "midi": 90,
                    "time": 46.66666200000001,
                    "velocity": 0.6929133858267716,
                    "duration": 0.36805551874999765
                },
                {
                    "name": "A#6",
                    "midi": 94,
                    "time": 46.66666200000001,
                    "velocity": 0.6929133858267716,
                    "duration": 0.36805551874999765
                },
                {
                    "name": "C7",
                    "midi": 96,
                    "time": 46.66666200000001,
                    "velocity": 0.6929133858267716,
                    "duration": 0.36805551874999765
                },
                {
                    "name": "D#7",
                    "midi": 99,
                    "time": 46.66666200000001,
                    "velocity": 0.6929133858267716,
                    "duration": 0.36805551874999765
                },
                {
                    "name": "F#6",
                    "midi": 90,
                    "time": 47.03471751875001,
                    "velocity": 0.6929133858267716,
                    "duration": 0.37268514791666973
                },
                {
                    "name": "A#6",
                    "midi": 94,
                    "time": 47.03471751875001,
                    "velocity": 0.6929133858267716,
                    "duration": 0.37268514791666973
                },
                {
                    "name": "C7",
                    "midi": 96,
                    "time": 47.03471751875001,
                    "velocity": 0.6929133858267716,
                    "duration": 0.37268514791666973
                },
                {
                    "name": "D#7",
                    "midi": 99,
                    "time": 47.03471751875001,
                    "velocity": 0.6929133858267716,
                    "duration": 0.37268514791666973
                },
                {
                    "name": "F#6",
                    "midi": 90,
                    "time": 47.40740266666668,
                    "velocity": 0.6929133858267716,
                    "duration": 0.3703703333333337
                },
                {
                    "name": "A#6",
                    "midi": 94,
                    "time": 47.40740266666668,
                    "velocity": 0.6929133858267716,
                    "duration": 0.3703703333333337
                },
                {
                    "name": "C7",
                    "midi": 96,
                    "time": 47.40740266666668,
                    "velocity": 0.6929133858267716,
                    "duration": 0.3703703333333337
                },
                {
                    "name": "D#7",
                    "midi": 99,
                    "time": 47.40740266666668,
                    "velocity": 0.6929133858267716,
                    "duration": 0.3703703333333337
                },
                {
                    "name": "F#6",
                    "midi": 90,
                    "time": 47.77777300000001,
                    "velocity": 0.6929133858267716,
                    "duration": 0.36805551874999765
                },
                {
                    "name": "A#6",
                    "midi": 94,
                    "time": 47.77777300000001,
                    "velocity": 0.6929133858267716,
                    "duration": 0.36805551874999765
                },
                {
                    "name": "C7",
                    "midi": 96,
                    "time": 47.77777300000001,
                    "velocity": 0.6929133858267716,
                    "duration": 0.36805551874999765
                },
                {
                    "name": "E7",
                    "midi": 100,
                    "time": 47.77777300000001,
                    "velocity": 0.6929133858267716,
                    "duration": 0.36805551874999765
                },
                {
                    "name": "F#6",
                    "midi": 90,
                    "time": 48.14582851875001,
                    "velocity": 0.6929133858267716,
                    "duration": 0.37268514791666973
                },
                {
                    "name": "A#6",
                    "midi": 94,
                    "time": 48.14582851875001,
                    "velocity": 0.6929133858267716,
                    "duration": 0.37268514791666973
                },
                {
                    "name": "C7",
                    "midi": 96,
                    "time": 48.14582851875001,
                    "velocity": 0.6929133858267716,
                    "duration": 0.37268514791666973
                },
                {
                    "name": "E7",
                    "midi": 100,
                    "time": 48.14582851875001,
                    "velocity": 0.6929133858267716,
                    "duration": 0.37268514791666973
                },
                {
                    "name": "F#6",
                    "midi": 90,
                    "time": 48.51851366666668,
                    "velocity": 0.6929133858267716,
                    "duration": 0.3703703333333337
                },
                {
                    "name": "A#6",
                    "midi": 94,
                    "time": 48.51851366666668,
                    "velocity": 0.6929133858267716,
                    "duration": 0.3703703333333337
                },
                {
                    "name": "C7",
                    "midi": 96,
                    "time": 48.51851366666668,
                    "velocity": 0.6929133858267716,
                    "duration": 0.3703703333333337
                },
                {
                    "name": "E7",
                    "midi": 100,
                    "time": 48.51851366666668,
                    "velocity": 0.6929133858267716,
                    "duration": 0.3703703333333337
                },
                {
                    "name": "F#6",
                    "midi": 90,
                    "time": 48.88888400000001,
                    "velocity": 0.6929133858267716,
                    "duration": 0.36805551874999765
                },
                {
                    "name": "A#6",
                    "midi": 94,
                    "time": 48.88888400000001,
                    "velocity": 0.6929133858267716,
                    "duration": 0.36805551874999765
                },
                {
                    "name": "C7",
                    "midi": 96,
                    "time": 48.88888400000001,
                    "velocity": 0.6929133858267716,
                    "duration": 0.36805551874999765
                },
                {
                    "name": "F7",
                    "midi": 101,
                    "time": 48.88888400000001,
                    "velocity": 0.6929133858267716,
                    "duration": 0.36805551874999765
                },
                {
                    "name": "F#6",
                    "midi": 90,
                    "time": 49.25693951875001,
                    "velocity": 0.6929133858267716,
                    "duration": 0.37268514791666973
                },
                {
                    "name": "A#6",
                    "midi": 94,
                    "time": 49.25693951875001,
                    "velocity": 0.6929133858267716,
                    "duration": 0.37268514791666973
                },
                {
                    "name": "C7",
                    "midi": 96,
                    "time": 49.25693951875001,
                    "velocity": 0.6929133858267716,
                    "duration": 0.37268514791666973
                },
                {
                    "name": "F7",
                    "midi": 101,
                    "time": 49.25693951875001,
                    "velocity": 0.6929133858267716,
                    "duration": 0.37268514791666973
                },
                {
                    "name": "F#6",
                    "midi": 90,
                    "time": 49.62962466666668,
                    "velocity": 0.6929133858267716,
                    "duration": 0.3703703333333337
                },
                {
                    "name": "A#6",
                    "midi": 94,
                    "time": 49.62962466666668,
                    "velocity": 0.6929133858267716,
                    "duration": 0.3703703333333337
                },
                {
                    "name": "C7",
                    "midi": 96,
                    "time": 49.62962466666668,
                    "velocity": 0.6929133858267716,
                    "duration": 0.3703703333333337
                },
                {
                    "name": "F7",
                    "midi": 101,
                    "time": 49.62962466666668,
                    "velocity": 0.6929133858267716,
                    "duration": 0.3703703333333337
                },
                {
                    "name": "A#6",
                    "midi": 94,
                    "time": 49.99999500000001,
                    "velocity": 0.7952755905511811,
                    "duration": 0.1851851666666633
                },
                {
                    "name": "F#7",
                    "midi": 102,
                    "time": 49.99999500000001,
                    "velocity": 0.7952755905511811,
                    "duration": 0.1851851666666633
                },
                {
                    "name": "F#6",
                    "midi": 90,
                    "time": 50.185180166666676,
                    "velocity": 0.7952755905511811,
                    "duration": 0.18287035208333435
                },
                {
                    "name": "A#6",
                    "midi": 94,
                    "time": 50.36805051875001,
                    "velocity": 0.7952755905511811,
                    "duration": 0.18749998124999934
                },
                {
                    "name": "F#7",
                    "midi": 102,
                    "time": 50.36805051875001,
                    "velocity": 0.7952755905511811,
                    "duration": 0.18749998124999934
                },
                {
                    "name": "F#6",
                    "midi": 90,
                    "time": 50.55555050000001,
                    "velocity": 0.7952755905511811,
                    "duration": 0.1851851666666633
                },
                {
                    "name": "A#6",
                    "midi": 94,
                    "time": 50.74073566666667,
                    "velocity": 0.7952755905511811,
                    "duration": 0.18287035208333435
                },
                {
                    "name": "F#7",
                    "midi": 102,
                    "time": 50.74073566666667,
                    "velocity": 0.7952755905511811,
                    "duration": 0.18287035208333435
                },
                {
                    "name": "F#6",
                    "midi": 90,
                    "time": 50.92360601875001,
                    "velocity": 0.7952755905511811,
                    "duration": 0.18749998124999934
                },
                {
                    "name": "A6",
                    "midi": 93,
                    "time": 51.11110600000001,
                    "velocity": 0.7952755905511811,
                    "duration": 0.1851851666666633
                },
                {
                    "name": "F7",
                    "midi": 101,
                    "time": 51.11110600000001,
                    "velocity": 0.7952755905511811,
                    "duration": 0.1851851666666633
                },
                {
                    "name": "F6",
                    "midi": 89,
                    "time": 51.29629116666667,
                    "velocity": 0.7952755905511811,
                    "duration": 0.18287035208333435
                },
                {
                    "name": "A6",
                    "midi": 93,
                    "time": 51.479161518750004,
                    "velocity": 0.7952755905511811,
                    "duration": 0.18749998124999934
                },
                {
                    "name": "F7",
                    "midi": 101,
                    "time": 51.479161518750004,
                    "velocity": 0.7952755905511811,
                    "duration": 0.18749998124999934
                },
                {
                    "name": "F6",
                    "midi": 89,
                    "time": 51.666661500000004,
                    "velocity": 0.7952755905511811,
                    "duration": 0.1851851666666633
                },
                {
                    "name": "A6",
                    "midi": 93,
                    "time": 51.85184666666667,
                    "velocity": 0.7952755905511811,
                    "duration": 0.18287035208333435
                },
                {
                    "name": "F7",
                    "midi": 101,
                    "time": 51.85184666666667,
                    "velocity": 0.7952755905511811,
                    "duration": 0.18287035208333435
                },
                {
                    "name": "F6",
                    "midi": 89,
                    "time": 52.03471701875,
                    "velocity": 0.7952755905511811,
                    "duration": 0.18749998124999934
                },
                {
                    "name": "G#6",
                    "midi": 92,
                    "time": 52.222217,
                    "velocity": 0.7952755905511811,
                    "duration": 0.1851851666666633
                },
                {
                    "name": "E7",
                    "midi": 100,
                    "time": 52.222217,
                    "velocity": 0.7952755905511811,
                    "duration": 0.1851851666666633
                },
                {
                    "name": "E6",
                    "midi": 88,
                    "time": 52.407402166666664,
                    "velocity": 0.7952755905511811,
                    "duration": 0.18287035208333435
                },
                {
                    "name": "G#6",
                    "midi": 92,
                    "time": 52.59027251875,
                    "velocity": 0.7952755905511811,
                    "duration": 0.18749998124999934
                },
                {
                    "name": "E7",
                    "midi": 100,
                    "time": 52.59027251875,
                    "velocity": 0.7952755905511811,
                    "duration": 0.18749998124999934
                },
                {
                    "name": "E6",
                    "midi": 88,
                    "time": 52.7777725,
                    "velocity": 0.7952755905511811,
                    "duration": 0.1851851666666633
                },
                {
                    "name": "G#6",
                    "midi": 92,
                    "time": 52.96295766666666,
                    "velocity": 0.7952755905511811,
                    "duration": 0.18287035208333435
                },
                {
                    "name": "E7",
                    "midi": 100,
                    "time": 52.96295766666666,
                    "velocity": 0.7952755905511811,
                    "duration": 0.18287035208333435
                },
                {
                    "name": "E6",
                    "midi": 88,
                    "time": 53.145828018749995,
                    "velocity": 0.7952755905511811,
                    "duration": 0.18749998124999934
                },
                {
                    "name": "G6",
                    "midi": 91,
                    "time": 53.333327999999995,
                    "velocity": 0.6929133858267716,
                    "duration": 0.1851851666666633
                },
                {
                    "name": "C7",
                    "midi": 96,
                    "time": 53.333327999999995,
                    "velocity": 0.6929133858267716,
                    "duration": 0.1851851666666633
                },
                {
                    "name": "C6",
                    "midi": 84,
                    "time": 53.51851316666666,
                    "velocity": 0.6929133858267716,
                    "duration": 0.18287035208333435
                },
                {
                    "name": "G6",
                    "midi": 91,
                    "time": 53.70138351874999,
                    "velocity": 0.6929133858267716,
                    "duration": 0.18749998124999934
                },
                {
                    "name": "C7",
                    "midi": 96,
                    "time": 53.70138351874999,
                    "velocity": 0.6929133858267716,
                    "duration": 0.18749998124999934
                },
                {
                    "name": "C6",
                    "midi": 84,
                    "time": 53.88888349999999,
                    "velocity": 0.6929133858267716,
                    "duration": 0.1851851666666633
                },
                {
                    "name": "G6",
                    "midi": 91,
                    "time": 54.074068666666655,
                    "velocity": 0.6929133858267716,
                    "duration": 0.18287035208333435
                },
                {
                    "name": "C7",
                    "midi": 96,
                    "time": 54.074068666666655,
                    "velocity": 0.6929133858267716,
                    "duration": 0.18287035208333435
                },
                {
                    "name": "C6",
                    "midi": 84,
                    "time": 54.25693901874999,
                    "velocity": 0.6929133858267716,
                    "duration": 0.18749998124999934
                },
                {
                    "name": "D6",
                    "midi": 86,
                    "time": 54.44443899999999,
                    "velocity": 0.6929133858267716,
                    "duration": 0.1851851666666633
                },
                {
                    "name": "A#6",
                    "midi": 94,
                    "time": 54.44443899999999,
                    "velocity": 0.6929133858267716,
                    "duration": 0.1851851666666633
                },
                {
                    "name": "A#5",
                    "midi": 82,
                    "time": 54.62962416666665,
                    "velocity": 0.6929133858267716,
                    "duration": 0.18287035208333435
                },
                {
                    "name": "D6",
                    "midi": 86,
                    "time": 54.812494518749986,
                    "velocity": 0.6929133858267716,
                    "duration": 0.18749998124999934
                },
                {
                    "name": "A#6",
                    "midi": 94,
                    "time": 54.812494518749986,
                    "velocity": 0.6929133858267716,
                    "duration": 0.18749998124999934
                },
                {
                    "name": "A#5",
                    "midi": 82,
                    "time": 54.999994499999985,
                    "velocity": 0.6929133858267716,
                    "duration": 0.1851851666666633
                },
                {
                    "name": "D6",
                    "midi": 86,
                    "time": 55.18517966666665,
                    "velocity": 0.6929133858267716,
                    "duration": 0.18287035208333435
                },
                {
                    "name": "A#6",
                    "midi": 94,
                    "time": 55.18517966666665,
                    "velocity": 0.6929133858267716,
                    "duration": 0.18287035208333435
                },
                {
                    "name": "A#5",
                    "midi": 82,
                    "time": 55.36805001874998,
                    "velocity": 0.6929133858267716,
                    "duration": 0.18749998124999934
                },
                {
                    "name": "C#6",
                    "midi": 85,
                    "time": 55.55554999999998,
                    "velocity": 0.6929133858267716,
                    "duration": 0.1851851666666633
                },
                {
                    "name": "A6",
                    "midi": 93,
                    "time": 55.55554999999998,
                    "velocity": 0.6929133858267716,
                    "duration": 0.1851851666666633
                },
                {
                    "name": "A5",
                    "midi": 81,
                    "time": 55.740735166666646,
                    "velocity": 0.6929133858267716,
                    "duration": 0.18287035208333435
                },
                {
                    "name": "C#6",
                    "midi": 85,
                    "time": 55.92360551874998,
                    "velocity": 0.6929133858267716,
                    "duration": 0.18749998124999934
                },
                {
                    "name": "A6",
                    "midi": 93,
                    "time": 55.92360551874998,
                    "velocity": 0.6929133858267716,
                    "duration": 0.18749998124999934
                },
                {
                    "name": "A5",
                    "midi": 81,
                    "time": 56.11110549999998,
                    "velocity": 0.6929133858267716,
                    "duration": 0.1851851666666633
                },
                {
                    "name": "C#6",
                    "midi": 85,
                    "time": 56.29629066666664,
                    "velocity": 0.6929133858267716,
                    "duration": 0.18287035208333435
                },
                {
                    "name": "A6",
                    "midi": 93,
                    "time": 56.29629066666664,
                    "velocity": 0.6929133858267716,
                    "duration": 0.18287035208333435
                },
                {
                    "name": "A5",
                    "midi": 81,
                    "time": 56.47916101874998,
                    "velocity": 0.6929133858267716,
                    "duration": 0.18749998124999934
                },
                {
                    "name": "C6",
                    "midi": 84,
                    "time": 56.666660999999976,
                    "velocity": 0.5905511811023622,
                    "duration": 0.1851851666666633
                },
                {
                    "name": "G#6",
                    "midi": 92,
                    "time": 56.666660999999976,
                    "velocity": 0.5905511811023622,
                    "duration": 0.1851851666666633
                },
                {
                    "name": "G#5",
                    "midi": 80,
                    "time": 56.85184616666664,
                    "velocity": 0.5905511811023622,
                    "duration": 0.18287035208333435
                },
                {
                    "name": "C6",
                    "midi": 84,
                    "time": 57.034716518749974,
                    "velocity": 0.5905511811023622,
                    "duration": 0.18749998124999934
                },
                {
                    "name": "G#6",
                    "midi": 92,
                    "time": 57.034716518749974,
                    "velocity": 0.5905511811023622,
                    "duration": 0.18749998124999934
                },
                {
                    "name": "G#5",
                    "midi": 80,
                    "time": 57.22221649999997,
                    "velocity": 0.5905511811023622,
                    "duration": 0.1851851666666633
                },
                {
                    "name": "C6",
                    "midi": 84,
                    "time": 57.40740166666664,
                    "velocity": 0.5905511811023622,
                    "duration": 0.18287035208333435
                },
                {
                    "name": "G#6",
                    "midi": 92,
                    "time": 57.40740166666664,
                    "velocity": 0.5905511811023622,
                    "duration": 0.18287035208333435
                },
                {
                    "name": "G#5",
                    "midi": 80,
                    "time": 57.59027201874997,
                    "velocity": 0.5905511811023622,
                    "duration": 0.18749998124999934
                },
                {
                    "name": "B5",
                    "midi": 83,
                    "time": 57.77777199999997,
                    "velocity": 0.5905511811023622,
                    "duration": 0.1851851666666633
                },
                {
                    "name": "E6",
                    "midi": 88,
                    "time": 57.77777199999997,
                    "velocity": 0.5905511811023622,
                    "duration": 0.1851851666666633
                },
                {
                    "name": "E5",
                    "midi": 76,
                    "time": 57.962957166666634,
                    "velocity": 0.5905511811023622,
                    "duration": 0.18287035208333435
                },
                {
                    "name": "B5",
                    "midi": 83,
                    "time": 58.14582751874997,
                    "velocity": 0.5905511811023622,
                    "duration": 0.18749998124999934
                },
                {
                    "name": "E6",
                    "midi": 88,
                    "time": 58.14582751874997,
                    "velocity": 0.5905511811023622,
                    "duration": 0.18749998124999934
                },
                {
                    "name": "E5",
                    "midi": 76,
                    "time": 58.33332749999997,
                    "velocity": 0.5905511811023622,
                    "duration": 0.1851851666666633
                },
                {
                    "name": "B5",
                    "midi": 83,
                    "time": 58.51851266666663,
                    "velocity": 0.5905511811023622,
                    "duration": 0.18287035208333435
                },
                {
                    "name": "E6",
                    "midi": 88,
                    "time": 58.51851266666663,
                    "velocity": 0.5905511811023622,
                    "duration": 0.18287035208333435
                },
                {
                    "name": "E5",
                    "midi": 76,
                    "time": 58.701383018749965,
                    "velocity": 0.5905511811023622,
                    "duration": 0.18749998124999934
                },
                {
                    "name": "F#5",
                    "midi": 78,
                    "time": 58.888882999999964,
                    "velocity": 0.5905511811023622,
                    "duration": 0.1851851666666633
                },
                {
                    "name": "D6",
                    "midi": 86,
                    "time": 58.888882999999964,
                    "velocity": 0.5905511811023622,
                    "duration": 0.1851851666666633
                },
                {
                    "name": "D5",
                    "midi": 74,
                    "time": 59.07406816666663,
                    "velocity": 0.5905511811023622,
                    "duration": 0.18287035208333435
                },
                {
                    "name": "F#5",
                    "midi": 78,
                    "time": 59.25693851874996,
                    "velocity": 0.5905511811023622,
                    "duration": 0.18749998124999934
                },
                {
                    "name": "D6",
                    "midi": 86,
                    "time": 59.25693851874996,
                    "velocity": 0.5905511811023622,
                    "duration": 0.18749998124999934
                },
                {
                    "name": "D5",
                    "midi": 74,
                    "time": 59.44443849999996,
                    "velocity": 0.5905511811023622,
                    "duration": 0.1851851666666633
                },
                {
                    "name": "F#5",
                    "midi": 78,
                    "time": 59.629623666666625,
                    "velocity": 0.5905511811023622,
                    "duration": 0.18287035208333435
                },
                {
                    "name": "D6",
                    "midi": 86,
                    "time": 59.629623666666625,
                    "velocity": 0.5905511811023622,
                    "duration": 0.18287035208333435
                },
                {
                    "name": "D5",
                    "midi": 74,
                    "time": 59.81249401874996,
                    "velocity": 0.5905511811023622,
                    "duration": 0.18749998124999934
                },
                {
                    "name": "F5",
                    "midi": 77,
                    "time": 59.99999399999996,
                    "velocity": 0.4881889763779528,
                    "duration": 0.1851851666666633
                },
                {
                    "name": "C#6",
                    "midi": 85,
                    "time": 59.99999399999996,
                    "velocity": 0.4881889763779528,
                    "duration": 0.1851851666666633
                },
                {
                    "name": "C#5",
                    "midi": 73,
                    "time": 60.18517916666662,
                    "velocity": 0.4881889763779528,
                    "duration": 0.18287035208333435
                },
                {
                    "name": "F5",
                    "midi": 77,
                    "time": 60.368049518749956,
                    "velocity": 0.4881889763779528,
                    "duration": 0.18749998124999934
                },
                {
                    "name": "C#6",
                    "midi": 85,
                    "time": 60.368049518749956,
                    "velocity": 0.4881889763779528,
                    "duration": 0.18749998124999934
                },
                {
                    "name": "C#5",
                    "midi": 73,
                    "time": 60.555549499999955,
                    "velocity": 0.4881889763779528,
                    "duration": 0.1851851666666633
                },
                {
                    "name": "F5",
                    "midi": 77,
                    "time": 60.74073466666662,
                    "velocity": 0.4881889763779528,
                    "duration": 0.18287035208333435
                },
                {
                    "name": "C#6",
                    "midi": 85,
                    "time": 60.74073466666662,
                    "velocity": 0.4881889763779528,
                    "duration": 0.18287035208333435
                },
                {
                    "name": "C#5",
                    "midi": 73,
                    "time": 60.92360501874995,
                    "velocity": 0.4881889763779528,
                    "duration": 0.18749998124999934
                },
                {
                    "name": "E5",
                    "midi": 76,
                    "time": 61.11110499999995,
                    "velocity": 0.4881889763779528,
                    "duration": 0.1851851666666633
                },
                {
                    "name": "C6",
                    "midi": 84,
                    "time": 61.11110499999995,
                    "velocity": 0.4881889763779528,
                    "duration": 0.1851851666666633
                },
                {
                    "name": "C5",
                    "midi": 72,
                    "time": 61.296290166666616,
                    "velocity": 0.4881889763779528,
                    "duration": 0.18287035208333435
                },
                {
                    "name": "E5",
                    "midi": 76,
                    "time": 61.47916051874995,
                    "velocity": 0.4881889763779528,
                    "duration": 0.18749998124999934
                },
                {
                    "name": "C6",
                    "midi": 84,
                    "time": 61.47916051874995,
                    "velocity": 0.4881889763779528,
                    "duration": 0.18749998124999934
                },
                {
                    "name": "C5",
                    "midi": 72,
                    "time": 61.66666049999995,
                    "velocity": 0.4881889763779528,
                    "duration": 0.1851851666666633
                },
                {
                    "name": "E5",
                    "midi": 76,
                    "time": 61.85184566666661,
                    "velocity": 0.4881889763779528,
                    "duration": 0.18287035208333435
                },
                {
                    "name": "C6",
                    "midi": 84,
                    "time": 61.85184566666661,
                    "velocity": 0.4881889763779528,
                    "duration": 0.18287035208333435
                },
                {
                    "name": "C5",
                    "midi": 72,
                    "time": 62.03471601874995,
                    "velocity": 0.4881889763779528,
                    "duration": 0.18749998124999934
                },
                {
                    "name": "D#5",
                    "midi": 75,
                    "time": 62.222215999999946,
                    "velocity": 0.4881889763779528,
                    "duration": 0.1851851666666633
                },
                {
                    "name": "G#5",
                    "midi": 80,
                    "time": 62.222215999999946,
                    "velocity": 0.4881889763779528,
                    "duration": 0.1851851666666633
                },
                {
                    "name": "G#4",
                    "midi": 68,
                    "time": 62.40740116666661,
                    "velocity": 0.4881889763779528,
                    "duration": 0.18287035208333435
                },
                {
                    "name": "D#5",
                    "midi": 75,
                    "time": 62.590271518749944,
                    "velocity": 0.4881889763779528,
                    "duration": 0.18749998124999934
                },
                {
                    "name": "G#5",
                    "midi": 80,
                    "time": 62.590271518749944,
                    "velocity": 0.4881889763779528,
                    "duration": 0.18749998124999934
                },
                {
                    "name": "G#4",
                    "midi": 68,
                    "time": 62.77777149999994,
                    "velocity": 0.4881889763779528,
                    "duration": 0.1851851666666633
                },
                {
                    "name": "D#5",
                    "midi": 75,
                    "time": 62.96295666666661,
                    "velocity": 0.4881889763779528,
                    "duration": 0.18287035208333435
                },
                {
                    "name": "G#5",
                    "midi": 80,
                    "time": 62.96295666666661,
                    "velocity": 0.4881889763779528,
                    "duration": 0.18287035208333435
                },
                {
                    "name": "G#4",
                    "midi": 68,
                    "time": 63.14582701874994,
                    "velocity": 0.4881889763779528,
                    "duration": 0.18749998124999934
                },
                {
                    "name": "F5",
                    "midi": 77,
                    "time": 63.33332699999994,
                    "velocity": 0.4881889763779528,
                    "duration": 0.1851851666666633
                },
                {
                    "name": "D5",
                    "midi": 74,
                    "time": 63.5185121666666,
                    "velocity": 0.4881889763779528,
                    "duration": 0.18287035208333435
                },
                {
                    "name": "F5",
                    "midi": 77,
                    "time": 63.70138251874994,
                    "velocity": 0.4881889763779528,
                    "duration": 0.18749998124999934
                },
                {
                    "name": "D5",
                    "midi": 74,
                    "time": 63.88888249999994,
                    "velocity": 0.4881889763779528,
                    "duration": 0.1851851666666704
                },
                {
                    "name": "F5",
                    "midi": 77,
                    "time": 64.07406766666661,
                    "velocity": 0.4881889763779528,
                    "duration": 0.18287035208332725
                },
                {
                    "name": "D5",
                    "midi": 74,
                    "time": 64.25693801874993,
                    "velocity": 0.4881889763779528,
                    "duration": 0.18749998124999934
                },
                {
                    "name": "F5",
                    "midi": 77,
                    "time": 64.44443799999993,
                    "velocity": 0.4881889763779528,
                    "duration": 0.1851851666666704
                },
                {
                    "name": "D5",
                    "midi": 74,
                    "time": 64.6296231666666,
                    "velocity": 0.4881889763779528,
                    "duration": 0.18287035208332725
                },
                {
                    "name": "F5",
                    "midi": 77,
                    "time": 64.81249351874993,
                    "velocity": 0.4881889763779528,
                    "duration": 0.18749998124999934
                },
                {
                    "name": "D5",
                    "midi": 74,
                    "time": 64.99999349999993,
                    "velocity": 0.4881889763779528,
                    "duration": 0.1851851666666704
                },
                {
                    "name": "F5",
                    "midi": 77,
                    "time": 65.1851786666666,
                    "velocity": 0.4881889763779528,
                    "duration": 0.18287035208332725
                },
                {
                    "name": "D5",
                    "midi": 74,
                    "time": 65.36804901874993,
                    "velocity": 0.4881889763779528,
                    "duration": 0.18749998124999934
                },
                {
                    "name": "F5",
                    "midi": 77,
                    "time": 65.55554899999993,
                    "velocity": 0.5905511811023622,
                    "duration": 0.1851851666666704
                },
                {
                    "name": "C#6",
                    "midi": 85,
                    "time": 65.55554899999993,
                    "velocity": 0.5905511811023622,
                    "duration": 0.1851851666666704
                },
                {
                    "name": "C#5",
                    "midi": 73,
                    "time": 65.7407341666666,
                    "velocity": 0.5905511811023622,
                    "duration": 0.18287035208332725
                },
                {
                    "name": "F5",
                    "midi": 77,
                    "time": 65.92360451874993,
                    "velocity": 0.5905511811023622,
                    "duration": 0.18749998124999934
                },
                {
                    "name": "C#6",
                    "midi": 85,
                    "time": 65.92360451874993,
                    "velocity": 0.5905511811023622,
                    "duration": 0.18749998124999934
                },
                {
                    "name": "C#5",
                    "midi": 73,
                    "time": 66.11110449999993,
                    "velocity": 0.5905511811023622,
                    "duration": 0.1851851666666704
                },
                {
                    "name": "F5",
                    "midi": 77,
                    "time": 66.2962896666666,
                    "velocity": 0.5905511811023622,
                    "duration": 0.18287035208332725
                },
                {
                    "name": "C#6",
                    "midi": 85,
                    "time": 66.2962896666666,
                    "velocity": 0.5905511811023622,
                    "duration": 0.18287035208332725
                },
                {
                    "name": "C#5",
                    "midi": 73,
                    "time": 66.47916001874992,
                    "velocity": 0.5905511811023622,
                    "duration": 0.18749998124999934
                },
                {
                    "name": "F5",
                    "midi": 77,
                    "time": 66.66665999999992,
                    "velocity": 0.5905511811023622,
                    "duration": 0.1851851666666704
                },
                {
                    "name": "C#6",
                    "midi": 85,
                    "time": 66.66665999999992,
                    "velocity": 0.5905511811023622,
                    "duration": 0.1851851666666704
                },
                {
                    "name": "C#5",
                    "midi": 73,
                    "time": 66.85184516666659,
                    "velocity": 0.5905511811023622,
                    "duration": 0.18287035208332725
                },
                {
                    "name": "F5",
                    "midi": 77,
                    "time": 67.03471551874992,
                    "velocity": 0.5905511811023622,
                    "duration": 0.18749998124999934
                },
                {
                    "name": "C#6",
                    "midi": 85,
                    "time": 67.03471551874992,
                    "velocity": 0.5905511811023622,
                    "duration": 0.18749998124999934
                },
                {
                    "name": "C#5",
                    "midi": 73,
                    "time": 67.22221549999992,
                    "velocity": 0.5905511811023622,
                    "duration": 0.1851851666666704
                },
                {
                    "name": "F5",
                    "midi": 77,
                    "time": 67.40740066666659,
                    "velocity": 0.5905511811023622,
                    "duration": 0.18287035208332725
                },
                {
                    "name": "C#6",
                    "midi": 85,
                    "time": 67.40740066666659,
                    "velocity": 0.5905511811023622,
                    "duration": 0.18287035208332725
                },
                {
                    "name": "C#5",
                    "midi": 73,
                    "time": 67.59027101874992,
                    "velocity": 0.5905511811023622,
                    "duration": 0.18749998124999934
                },
                {
                    "name": "G#5",
                    "midi": 80,
                    "time": 67.77777099999992,
                    "velocity": 0.4881889763779528,
                    "duration": 0.1851851666666704
                },
                {
                    "name": "D#5",
                    "midi": 75,
                    "time": 67.96295616666659,
                    "velocity": 0.4881889763779528,
                    "duration": 0.18287035208332725
                },
                {
                    "name": "G#5",
                    "midi": 80,
                    "time": 68.14582651874991,
                    "velocity": 0.4881889763779528,
                    "duration": 0.18749998124999934
                },
                {
                    "name": "D#5",
                    "midi": 75,
                    "time": 68.33332649999991,
                    "velocity": 0.4881889763779528,
                    "duration": 0.1851851666666704
                },
                {
                    "name": "G#5",
                    "midi": 80,
                    "time": 68.51851166666658,
                    "velocity": 0.4881889763779528,
                    "duration": 0.18287035208332725
                },
                {
                    "name": "D#5",
                    "midi": 75,
                    "time": 68.70138201874991,
                    "velocity": 0.4881889763779528,
                    "duration": 0.18749998124999934
                },
                {
                    "name": "G#5",
                    "midi": 80,
                    "time": 68.88888199999991,
                    "velocity": 0.4881889763779528,
                    "duration": 0.1851851666666704
                },
                {
                    "name": "D#5",
                    "midi": 75,
                    "time": 69.07406716666658,
                    "velocity": 0.4881889763779528,
                    "duration": 0.18287035208332725
                },
                {
                    "name": "G#5",
                    "midi": 80,
                    "time": 69.25693751874991,
                    "velocity": 0.4881889763779528,
                    "duration": 0.18749998124999934
                },
                {
                    "name": "D#5",
                    "midi": 75,
                    "time": 69.4444374999999,
                    "velocity": 0.4881889763779528,
                    "duration": 0.1851851666666704
                },
                {
                    "name": "G#5",
                    "midi": 80,
                    "time": 69.62962266666658,
                    "velocity": 0.4881889763779528,
                    "duration": 0.18287035208332725
                },
                {
                    "name": "D#5",
                    "midi": 75,
                    "time": 69.8124930187499,
                    "velocity": 0.4881889763779528,
                    "duration": 0.18749998124999934
                },
                {
                    "name": "F#5",
                    "midi": 78,
                    "time": 69.9999929999999,
                    "velocity": 0.4881889763779528,
                    "duration": 0.1851851666666704
                },
                {
                    "name": "D5",
                    "midi": 74,
                    "time": 70.18517816666657,
                    "velocity": 0.4881889763779528,
                    "duration": 0.18287035208332725
                },
                {
                    "name": "F#5",
                    "midi": 78,
                    "time": 70.3680485187499,
                    "velocity": 0.4881889763779528,
                    "duration": 0.18749998124999934
                },
                {
                    "name": "D5",
                    "midi": 74,
                    "time": 70.5555484999999,
                    "velocity": 0.4881889763779528,
                    "duration": 0.1851851666666704
                },
                {
                    "name": "F#5",
                    "midi": 78,
                    "time": 70.74073366666657,
                    "velocity": 0.4881889763779528,
                    "duration": 0.18287035208332725
                },
                {
                    "name": "D5",
                    "midi": 74,
                    "time": 70.9236040187499,
                    "velocity": 0.4881889763779528,
                    "duration": 0.18749998124999934
                },
                {
                    "name": "F#5",
                    "midi": 78,
                    "time": 71.1111039999999,
                    "velocity": 0.4881889763779528,
                    "duration": 0.1851851666666704
                },
                {
                    "name": "D5",
                    "midi": 74,
                    "time": 71.29628916666657,
                    "velocity": 0.4881889763779528,
                    "duration": 0.18287035208332725
                },
                {
                    "name": "F#5",
                    "midi": 78,
                    "time": 71.4791595187499,
                    "velocity": 0.4881889763779528,
                    "duration": 0.18749998124999934
                },
                {
                    "name": "D5",
                    "midi": 74,
                    "time": 71.6666594999999,
                    "velocity": 0.4881889763779528,
                    "duration": 0.1851851666666704
                },
                {
                    "name": "F#5",
                    "midi": 78,
                    "time": 71.85184466666657,
                    "velocity": 0.4881889763779528,
                    "duration": 0.18287035208332725
                },
                {
                    "name": "D5",
                    "midi": 74,
                    "time": 72.03471501874989,
                    "velocity": 0.4881889763779528,
                    "duration": 0.18749998124999934
                },
                {
                    "name": "F#5",
                    "midi": 78,
                    "time": 72.22221499999989,
                    "velocity": 0.5905511811023622,
                    "duration": 0.1851851666666704
                },
                {
                    "name": "D5",
                    "midi": 74,
                    "time": 72.40740016666656,
                    "velocity": 0.5905511811023622,
                    "duration": 0.18287035208332725
                },
                {
                    "name": "F#5",
                    "midi": 78,
                    "time": 72.59027051874989,
                    "velocity": 0.5905511811023622,
                    "duration": 0.18749998124999934
                },
                {
                    "name": "D5",
                    "midi": 74,
                    "time": 72.77777049999989,
                    "velocity": 0.5905511811023622,
                    "duration": 0.1851851666666704
                },
                {
                    "name": "F#5",
                    "midi": 78,
                    "time": 72.96295566666656,
                    "velocity": 0.5905511811023622,
                    "duration": 0.18287035208332725
                },
                {
                    "name": "D5",
                    "midi": 74,
                    "time": 73.14582601874989,
                    "velocity": 0.5905511811023622,
                    "duration": 0.18749998124999934
                },
                {
                    "name": "G#5",
                    "midi": 80,
                    "time": 73.33332599999989,
                    "velocity": 0.5905511811023622,
                    "duration": 0.1851851666666704
                },
                {
                    "name": "D#5",
                    "midi": 75,
                    "time": 73.51851116666656,
                    "velocity": 0.5905511811023622,
                    "duration": 0.18287035208332725
                },
                {
                    "name": "G#5",
                    "midi": 80,
                    "time": 73.70138151874988,
                    "velocity": 0.5905511811023622,
                    "duration": 0.18749998124999934
                },
                {
                    "name": "D#5",
                    "midi": 75,
                    "time": 73.88888149999988,
                    "velocity": 0.5905511811023622,
                    "duration": 0.1851851666666704
                },
                {
                    "name": "G#5",
                    "midi": 80,
                    "time": 74.07406666666655,
                    "velocity": 0.5905511811023622,
                    "duration": 0.18287035208332725
                },
                {
                    "name": "D#5",
                    "midi": 75,
                    "time": 74.25693701874988,
                    "velocity": 0.5905511811023622,
                    "duration": 0.18749998124999934
                },
                {
                    "name": "G#5",
                    "midi": 80,
                    "time": 74.44443699999988,
                    "velocity": 0.5905511811023622,
                    "duration": 0.1851851666666704
                },
                {
                    "name": "D#5",
                    "midi": 75,
                    "time": 74.62962216666655,
                    "velocity": 0.5905511811023622,
                    "duration": 0.18287035208332725
                },
                {
                    "name": "G#5",
                    "midi": 80,
                    "time": 74.81249251874988,
                    "velocity": 0.5905511811023622,
                    "duration": 0.18749998124999934
                },
                {
                    "name": "D#5",
                    "midi": 75,
                    "time": 74.99999249999988,
                    "velocity": 0.5905511811023622,
                    "duration": 0.1851851666666704
                },
                {
                    "name": "G#5",
                    "midi": 80,
                    "time": 75.18517766666655,
                    "velocity": 0.5905511811023622,
                    "duration": 0.18287035208332725
                },
                {
                    "name": "D#5",
                    "midi": 75,
                    "time": 75.36804801874987,
                    "velocity": 0.5905511811023622,
                    "duration": 0.18749998124999934
                },
                {
                    "name": "G#5",
                    "midi": 80,
                    "time": 75.55554799999987,
                    "velocity": 0.4881889763779528,
                    "duration": 0.1851851666666704
                },
                {
                    "name": "D#5",
                    "midi": 75,
                    "time": 75.74073316666654,
                    "velocity": 0.4881889763779528,
                    "duration": 0.18287035208332725
                },
                {
                    "name": "G#5",
                    "midi": 80,
                    "time": 75.92360351874987,
                    "velocity": 0.4881889763779528,
                    "duration": 0.18749998124999934
                },
                {
                    "name": "D#5",
                    "midi": 75,
                    "time": 76.11110349999987,
                    "velocity": 0.4881889763779528,
                    "duration": 0.1851851666666704
                },
                {
                    "name": "G#5",
                    "midi": 80,
                    "time": 76.29628866666654,
                    "velocity": 0.4881889763779528,
                    "duration": 0.18287035208332725
                },
                {
                    "name": "D#5",
                    "midi": 75,
                    "time": 76.47915901874987,
                    "velocity": 0.4881889763779528,
                    "duration": 0.18749998124999934
                },
                {
                    "name": "F#5",
                    "midi": 78,
                    "time": 76.66665899999987,
                    "velocity": 0.4881889763779528,
                    "duration": 0.1851851666666704
                },
                {
                    "name": "B4",
                    "midi": 71,
                    "time": 76.85184416666654,
                    "velocity": 0.4881889763779528,
                    "duration": 0.18287035208332725
                },
                {
                    "name": "F#5",
                    "midi": 78,
                    "time": 77.03471451874987,
                    "velocity": 0.4881889763779528,
                    "duration": 0.18749998124999934
                },
                {
                    "name": "B4",
                    "midi": 71,
                    "time": 77.22221449999986,
                    "velocity": 0.4881889763779528,
                    "duration": 0.1851851666666704
                },
                {
                    "name": "F#5",
                    "midi": 78,
                    "time": 77.40739966666654,
                    "velocity": 0.4881889763779528,
                    "duration": 0.18287035208332725
                },
                {
                    "name": "B4",
                    "midi": 71,
                    "time": 77.59027001874986,
                    "velocity": 0.4881889763779528,
                    "duration": 0.18749998124999934
                },
                {
                    "name": "F#5",
                    "midi": 78,
                    "time": 77.77776999999986,
                    "velocity": 0.4881889763779528,
                    "duration": 0.1851851666666704
                },
                {
                    "name": "B4",
                    "midi": 71,
                    "time": 77.96295516666653,
                    "velocity": 0.4881889763779528,
                    "duration": 0.18287035208332725
                },
                {
                    "name": "F#5",
                    "midi": 78,
                    "time": 78.14582551874986,
                    "velocity": 0.4881889763779528,
                    "duration": 0.18749998124999934
                },
                {
                    "name": "B4",
                    "midi": 71,
                    "time": 78.33332549999986,
                    "velocity": 0.4881889763779528,
                    "duration": 0.1851851666666704
                },
                {
                    "name": "F#5",
                    "midi": 78,
                    "time": 78.51851066666653,
                    "velocity": 0.4881889763779528,
                    "duration": 0.18287035208332725
                },
                {
                    "name": "B4",
                    "midi": 71,
                    "time": 78.70138101874986,
                    "velocity": 0.4881889763779528,
                    "duration": 0.18749998124999934
                },
                {
                    "name": "F#5",
                    "midi": 78,
                    "time": 78.88888099999986,
                    "velocity": 0.5905511811023622,
                    "duration": 0.1851851666666704
                },
                {
                    "name": "B4",
                    "midi": 71,
                    "time": 79.07406616666653,
                    "velocity": 0.5905511811023622,
                    "duration": 0.18287035208332725
                },
                {
                    "name": "F#5",
                    "midi": 78,
                    "time": 79.25693651874985,
                    "velocity": 0.5905511811023622,
                    "duration": 0.18749998124999934
                },
                {
                    "name": "B4",
                    "midi": 71,
                    "time": 79.44443649999985,
                    "velocity": 0.5905511811023622,
                    "duration": 0.1851851666666704
                },
                {
                    "name": "F#5",
                    "midi": 78,
                    "time": 79.62962166666652,
                    "velocity": 0.5905511811023622,
                    "duration": 0.18287035208332725
                },
                {
                    "name": "B4",
                    "midi": 71,
                    "time": 79.81249201874985,
                    "velocity": 0.5905511811023622,
                    "duration": 0.18749998124999934
                },
                {
                    "name": "F#5",
                    "midi": 78,
                    "time": 79.99999199999985,
                    "velocity": 0.5905511811023622,
                    "duration": 0.1851851666666704
                },
                {
                    "name": "C#5",
                    "midi": 73,
                    "time": 80.18517716666652,
                    "velocity": 0.5905511811023622,
                    "duration": 0.18287035208332725
                },
                {
                    "name": "F#5",
                    "midi": 78,
                    "time": 80.36804751874985,
                    "velocity": 0.5905511811023622,
                    "duration": 0.18749998124999934
                },
                {
                    "name": "C#5",
                    "midi": 73,
                    "time": 80.55554749999985,
                    "velocity": 0.5905511811023622,
                    "duration": 0.1851851666666704
                },
                {
                    "name": "F#5",
                    "midi": 78,
                    "time": 80.74073266666652,
                    "velocity": 0.5905511811023622,
                    "duration": 0.18287035208332725
                },
                {
                    "name": "C#5",
                    "midi": 73,
                    "time": 80.92360301874984,
                    "velocity": 0.5905511811023622,
                    "duration": 0.18749998124999934
                },
                {
                    "name": "F#5",
                    "midi": 78,
                    "time": 81.11110299999984,
                    "velocity": 0.5905511811023622,
                    "duration": 0.1851851666666704
                },
                {
                    "name": "C#5",
                    "midi": 73,
                    "time": 81.29628816666651,
                    "velocity": 0.5905511811023622,
                    "duration": 0.18287035208332725
                },
                {
                    "name": "F#5",
                    "midi": 78,
                    "time": 81.47915851874984,
                    "velocity": 0.5905511811023622,
                    "duration": 0.18749998124999934
                },
                {
                    "name": "C#5",
                    "midi": 73,
                    "time": 81.66665849999984,
                    "velocity": 0.5905511811023622,
                    "duration": 0.1851851666666704
                },
                {
                    "name": "F#5",
                    "midi": 78,
                    "time": 81.85184366666651,
                    "velocity": 0.5905511811023622,
                    "duration": 0.18287035208332725
                },
                {
                    "name": "C#5",
                    "midi": 73,
                    "time": 82.03471401874984,
                    "velocity": 0.5905511811023622,
                    "duration": 0.18749998124999934
                },
                {
                    "name": "F#5",
                    "midi": 78,
                    "time": 82.22221399999984,
                    "velocity": 0.5905511811023622,
                    "duration": 0.1851851666666704
                },
                {
                    "name": "C#5",
                    "midi": 73,
                    "time": 82.40739916666651,
                    "velocity": 0.5905511811023622,
                    "duration": 0.18287035208332725
                },
                {
                    "name": "F#5",
                    "midi": 78,
                    "time": 82.59026951874984,
                    "velocity": 0.5905511811023622,
                    "duration": 0.18749998124999934
                },
                {
                    "name": "C#5",
                    "midi": 73,
                    "time": 82.77776949999983,
                    "velocity": 0.5905511811023622,
                    "duration": 0.1851851666666704
                },
                {
                    "name": "F#5",
                    "midi": 78,
                    "time": 82.9629546666665,
                    "velocity": 0.5905511811023622,
                    "duration": 0.18287035208332725
                },
                {
                    "name": "C#5",
                    "midi": 73,
                    "time": 83.14582501874983,
                    "velocity": 0.5905511811023622,
                    "duration": 0.18749998124999934
                },
                {
                    "name": "F#5",
                    "midi": 78,
                    "time": 83.33332499999983,
                    "velocity": 0.5905511811023622,
                    "duration": 0.1851851666666704
                },
                {
                    "name": "B4",
                    "midi": 71,
                    "time": 83.5185101666665,
                    "velocity": 0.5905511811023622,
                    "duration": 0.18287035208332725
                },
                {
                    "name": "F#5",
                    "midi": 78,
                    "time": 83.70138051874983,
                    "velocity": 0.5905511811023622,
                    "duration": 0.18749998124999934
                },
                {
                    "name": "B4",
                    "midi": 71,
                    "time": 83.88888049999983,
                    "velocity": 0.5905511811023622,
                    "duration": 0.1851851666666704
                },
                {
                    "name": "F#5",
                    "midi": 78,
                    "time": 84.0740656666665,
                    "velocity": 0.5905511811023622,
                    "duration": 0.18287035208332725
                },
                {
                    "name": "B4",
                    "midi": 71,
                    "time": 84.25693601874983,
                    "velocity": 0.5905511811023622,
                    "duration": 0.18749998124999934
                },
                {
                    "name": "F#5",
                    "midi": 78,
                    "time": 84.44443599999983,
                    "velocity": 0.4881889763779528,
                    "duration": 0.1851851666666704
                },
                {
                    "name": "B4",
                    "midi": 71,
                    "time": 84.6296211666665,
                    "velocity": 0.4881889763779528,
                    "duration": 0.18287035208332725
                },
                {
                    "name": "F#5",
                    "midi": 78,
                    "time": 84.81249151874982,
                    "velocity": 0.4881889763779528,
                    "duration": 0.18749998124999934
                },
                {
                    "name": "B4",
                    "midi": 71,
                    "time": 84.99999149999982,
                    "velocity": 0.4881889763779528,
                    "duration": 0.1851851666666704
                },
                {
                    "name": "F#5",
                    "midi": 78,
                    "time": 85.1851766666665,
                    "velocity": 0.4881889763779528,
                    "duration": 0.18287035208332725
                },
                {
                    "name": "B4",
                    "midi": 71,
                    "time": 85.36804701874982,
                    "velocity": 0.4881889763779528,
                    "duration": 0.18749998124999934
                },
                {
                    "name": "F#5",
                    "midi": 78,
                    "time": 85.55554699999982,
                    "velocity": 0.4881889763779528,
                    "duration": 0.1851851666666704
                },
                {
                    "name": "B4",
                    "midi": 71,
                    "time": 85.74073216666649,
                    "velocity": 0.4881889763779528,
                    "duration": 0.18287035208332725
                },
                {
                    "name": "F#5",
                    "midi": 78,
                    "time": 85.92360251874982,
                    "velocity": 0.4881889763779528,
                    "duration": 0.18749998124999934
                },
                {
                    "name": "B4",
                    "midi": 71,
                    "time": 86.11110249999982,
                    "velocity": 0.4881889763779528,
                    "duration": 0.1851851666666704
                },
                {
                    "name": "F#5",
                    "midi": 78,
                    "time": 86.29628766666649,
                    "velocity": 0.4881889763779528,
                    "duration": 0.18287035208332725
                },
                {
                    "name": "B4",
                    "midi": 71,
                    "time": 86.47915801874981,
                    "velocity": 0.4881889763779528,
                    "duration": 0.18749998124999934
                },
                {
                    "name": "F#5",
                    "midi": 78,
                    "time": 86.66665799999981,
                    "velocity": 0.4881889763779528,
                    "duration": 3.333332999999996
                },
                {
                    "name": "F#4",
                    "midi": 66,
                    "time": 94.44443499999981,
                    "velocity": 0.3858267716535433,
                    "duration": 0.13888887500000635
                },
                {
                    "name": "D4",
                    "midi": 62,
                    "time": 94.58332387499982,
                    "velocity": 0.3858267716535433,
                    "duration": 0.13888887500000635
                },
                {
                    "name": "F#4",
                    "midi": 66,
                    "time": 94.72221274999983,
                    "velocity": 0.3858267716535433,
                    "duration": 0.13888887500000635
                },
                {
                    "name": "D4",
                    "midi": 62,
                    "time": 94.86110162499983,
                    "velocity": 0.3858267716535433,
                    "duration": 0.13888887500000635
                },
                {
                    "name": "F#4",
                    "midi": 66,
                    "time": 94.99999049999984,
                    "velocity": 0.3858267716535433,
                    "duration": 0.13888887500000635
                },
                {
                    "name": "D4",
                    "midi": 62,
                    "time": 95.13887937499985,
                    "velocity": 0.3858267716535433,
                    "duration": 0.13888887500000635
                },
                {
                    "name": "F#4",
                    "midi": 66,
                    "time": 95.27776824999985,
                    "velocity": 0.3858267716535433,
                    "duration": 0.13888887500000635
                },
                {
                    "name": "D4",
                    "midi": 62,
                    "time": 95.41665712499986,
                    "velocity": 0.3858267716535433,
                    "duration": 0.13888887500000635
                },
                {
                    "name": "F#4",
                    "midi": 66,
                    "time": 95.55554599999986,
                    "velocity": 0.3858267716535433,
                    "duration": 0.13888887500000635
                },
                {
                    "name": "D4",
                    "midi": 62,
                    "time": 95.69443487499987,
                    "velocity": 0.3858267716535433,
                    "duration": 0.13888887500000635
                },
                {
                    "name": "F#4",
                    "midi": 66,
                    "time": 95.83332374999988,
                    "velocity": 0.3858267716535433,
                    "duration": 0.13888887500000635
                },
                {
                    "name": "D4",
                    "midi": 62,
                    "time": 95.97221262499988,
                    "velocity": 0.3858267716535433,
                    "duration": 0.13888887500000635
                },
                {
                    "name": "F#4",
                    "midi": 66,
                    "time": 96.11110149999989,
                    "velocity": 0.3858267716535433,
                    "duration": 0.13888887500000635
                },
                {
                    "name": "D4",
                    "midi": 62,
                    "time": 96.2499903749999,
                    "velocity": 0.3858267716535433,
                    "duration": 0.13888887500000635
                },
                {
                    "name": "F#4",
                    "midi": 66,
                    "time": 96.3888792499999,
                    "velocity": 0.3858267716535433,
                    "duration": 0.13888887500000635
                },
                {
                    "name": "D4",
                    "midi": 62,
                    "time": 96.52776812499991,
                    "velocity": 0.3858267716535433,
                    "duration": 0.13888887500000635
                },
                {
                    "name": "F#4",
                    "midi": 66,
                    "time": 96.66665699999992,
                    "velocity": 0.3858267716535433,
                    "duration": 0.13888887500000635
                },
                {
                    "name": "D4",
                    "midi": 62,
                    "time": 96.80554587499992,
                    "velocity": 0.3858267716535433,
                    "duration": 0.13888887500000635
                },
                {
                    "name": "F#4",
                    "midi": 66,
                    "time": 96.94443474999993,
                    "velocity": 0.3858267716535433,
                    "duration": 0.13888887500000635
                },
                {
                    "name": "D4",
                    "midi": 62,
                    "time": 97.08332362499993,
                    "velocity": 0.3858267716535433,
                    "duration": 0.13888887500000635
                },
                {
                    "name": "F#4",
                    "midi": 66,
                    "time": 97.22221249999994,
                    "velocity": 0.3858267716535433,
                    "duration": 0.13888887500000635
                },
                {
                    "name": "D4",
                    "midi": 62,
                    "time": 97.36110137499995,
                    "velocity": 0.3858267716535433,
                    "duration": 0.13888887500000635
                },
                {
                    "name": "F#4",
                    "midi": 66,
                    "time": 97.49999024999995,
                    "velocity": 0.3858267716535433,
                    "duration": 0.13888887500000635
                },
                {
                    "name": "D4",
                    "midi": 62,
                    "time": 97.63887912499996,
                    "velocity": 0.3858267716535433,
                    "duration": 0.13888887500000635
                },
                {
                    "name": "F#4",
                    "midi": 66,
                    "time": 97.77776799999997,
                    "velocity": 0.3858267716535433,
                    "duration": 0.13888887500000635
                },
                {
                    "name": "D4",
                    "midi": 62,
                    "time": 97.91665687499997,
                    "velocity": 0.3858267716535433,
                    "duration": 0.13888887500000635
                },
                {
                    "name": "F#4",
                    "midi": 66,
                    "time": 98.05554574999998,
                    "velocity": 0.3858267716535433,
                    "duration": 0.13888887500000635
                },
                {
                    "name": "D4",
                    "midi": 62,
                    "time": 98.19443462499999,
                    "velocity": 0.3858267716535433,
                    "duration": 0.13888887500000635
                },
                {
                    "name": "F#4",
                    "midi": 66,
                    "time": 98.33332349999999,
                    "velocity": 0.3858267716535433,
                    "duration": 0.13888887500000635
                },
                {
                    "name": "D4",
                    "midi": 62,
                    "time": 98.472212375,
                    "velocity": 0.3858267716535433,
                    "duration": 0.13888887500000635
                },
                {
                    "name": "F#4",
                    "midi": 66,
                    "time": 98.61110125,
                    "velocity": 0.3858267716535433,
                    "duration": 0.13888887500000635
                },
                {
                    "name": "D4",
                    "midi": 62,
                    "time": 98.74999012500001,
                    "velocity": 0.3858267716535433,
                    "duration": 0.13888887500000635
                },
                {
                    "name": "F#4",
                    "midi": 66,
                    "time": 98.88887900000002,
                    "velocity": 0.3858267716535433,
                    "duration": 0.13888887500000635
                },
                {
                    "name": "D4",
                    "midi": 62,
                    "time": 99.02776787500002,
                    "velocity": 0.3858267716535433,
                    "duration": 0.13888887500000635
                },
                {
                    "name": "F#4",
                    "midi": 66,
                    "time": 99.16665675000003,
                    "velocity": 0.3858267716535433,
                    "duration": 0.13888887500000635
                },
                {
                    "name": "D4",
                    "midi": 62,
                    "time": 99.30554562500004,
                    "velocity": 0.3858267716535433,
                    "duration": 0.13888887500000635
                },
                {
                    "name": "F#4",
                    "midi": 66,
                    "time": 99.44443450000004,
                    "velocity": 0.3858267716535433,
                    "duration": 0.13888887500000635
                },
                {
                    "name": "D4",
                    "midi": 62,
                    "time": 99.58332337500005,
                    "velocity": 0.3858267716535433,
                    "duration": 0.13888887500000635
                },
                {
                    "name": "F#4",
                    "midi": 66,
                    "time": 99.72221225000006,
                    "velocity": 0.3858267716535433,
                    "duration": 0.13888887500000635
                },
                {
                    "name": "D4",
                    "midi": 62,
                    "time": 99.86110112500006,
                    "velocity": 0.3858267716535433,
                    "duration": 0.13888887500000635
                },
                {
                    "name": "F#4",
                    "midi": 66,
                    "time": 99.99999000000007,
                    "velocity": 0.3858267716535433,
                    "duration": 0.13888887500000635
                },
                {
                    "name": "D4",
                    "midi": 62,
                    "time": 100.13887887500007,
                    "velocity": 0.3858267716535433,
                    "duration": 0.13888887500000635
                },
                {
                    "name": "F#4",
                    "midi": 66,
                    "time": 100.27776775000008,
                    "velocity": 0.3858267716535433,
                    "duration": 0.13888887500000635
                },
                {
                    "name": "D4",
                    "midi": 62,
                    "time": 100.41665662500009,
                    "velocity": 0.3858267716535433,
                    "duration": 0.13888887500000635
                },
                {
                    "name": "F#4",
                    "midi": 66,
                    "time": 100.5555455000001,
                    "velocity": 0.3858267716535433,
                    "duration": 0.13888887500000635
                },
                {
                    "name": "D4",
                    "midi": 62,
                    "time": 100.6944343750001,
                    "velocity": 0.3858267716535433,
                    "duration": 0.13888887500000635
                },
                {
                    "name": "F#4",
                    "midi": 66,
                    "time": 100.8333232500001,
                    "velocity": 0.3858267716535433,
                    "duration": 0.13888887500000635
                },
                {
                    "name": "D4",
                    "midi": 62,
                    "time": 100.97221212500011,
                    "velocity": 0.3858267716535433,
                    "duration": 0.13888887500000635
                },
                {
                    "name": "F#4",
                    "midi": 66,
                    "time": 101.11110100000012,
                    "velocity": 0.3858267716535433,
                    "duration": 0.13888887500000635
                },
                {
                    "name": "D4",
                    "midi": 62,
                    "time": 101.24998987500013,
                    "velocity": 0.3858267716535433,
                    "duration": 0.13888887500000635
                },
                {
                    "name": "F#4",
                    "midi": 66,
                    "time": 101.38887875000013,
                    "velocity": 0.3858267716535433,
                    "duration": 0.13888887500000635
                },
                {
                    "name": "D4",
                    "midi": 62,
                    "time": 101.52776762500014,
                    "velocity": 0.3858267716535433,
                    "duration": 0.13888887500000635
                },
                {
                    "name": "F#4",
                    "midi": 66,
                    "time": 101.66665650000014,
                    "velocity": 0.3858267716535433,
                    "duration": 0.13888887500000635
                },
                {
                    "name": "D4",
                    "midi": 62,
                    "time": 101.80554537500015,
                    "velocity": 0.3858267716535433,
                    "duration": 0.13888887500000635
                },
                {
                    "name": "F#4",
                    "midi": 66,
                    "time": 101.94443425000016,
                    "velocity": 0.3858267716535433,
                    "duration": 0.13888887500000635
                },
                {
                    "name": "D4",
                    "midi": 62,
                    "time": 102.08332312500016,
                    "velocity": 0.3858267716535433,
                    "duration": 0.13888887500000635
                },
                {
                    "name": "F#4",
                    "midi": 66,
                    "time": 102.22221200000017,
                    "velocity": 0.3858267716535433,
                    "duration": 0.13888887500000635
                },
                {
                    "name": "D4",
                    "midi": 62,
                    "time": 102.36110087500018,
                    "velocity": 0.3858267716535433,
                    "duration": 0.13888887500000635
                },
                {
                    "name": "F#4",
                    "midi": 66,
                    "time": 102.49998975000018,
                    "velocity": 0.3858267716535433,
                    "duration": 0.13888887500000635
                },
                {
                    "name": "D4",
                    "midi": 62,
                    "time": 102.63887862500019,
                    "velocity": 0.3858267716535433,
                    "duration": 0.13888887500000635
                },
                {
                    "name": "F#4",
                    "midi": 66,
                    "time": 102.7777675000002,
                    "velocity": 0.3858267716535433,
                    "duration": 0.13888887500000635
                },
                {
                    "name": "D4",
                    "midi": 62,
                    "time": 102.9166563750002,
                    "velocity": 0.3858267716535433,
                    "duration": 0.13888887500000635
                },
                {
                    "name": "F#4",
                    "midi": 66,
                    "time": 103.05554525000021,
                    "velocity": 0.3858267716535433,
                    "duration": 0.13888887500000635
                },
                {
                    "name": "D4",
                    "midi": 62,
                    "time": 103.19443412500021,
                    "velocity": 0.3858267716535433,
                    "duration": 0.13888887500000635
                },
                {
                    "name": "D4",
                    "midi": 62,
                    "time": 103.33332300000022,
                    "velocity": 0.3858267716535433,
                    "duration": 0.13888887500000635
                },
                {
                    "name": "F#4",
                    "midi": 66,
                    "time": 103.33332300000022,
                    "velocity": 0.3858267716535433,
                    "duration": 0.13888887500000635
                },
                {
                    "name": "C4",
                    "midi": 60,
                    "time": 103.47221187500023,
                    "velocity": 0.3858267716535433,
                    "duration": 0.13888887500000635
                },
                {
                    "name": "D#4",
                    "midi": 63,
                    "time": 103.47221187500023,
                    "velocity": 0.3858267716535433,
                    "duration": 0.13888887500000635
                },
                {
                    "name": "D4",
                    "midi": 62,
                    "time": 106.11110050000023,
                    "velocity": 0.3858267716535433,
                    "duration": 0.13888887500000635
                },
                {
                    "name": "F#4",
                    "midi": 66,
                    "time": 106.11110050000023,
                    "velocity": 0.3858267716535433,
                    "duration": 0.13888887500000635
                },
                {
                    "name": "C4",
                    "midi": 60,
                    "time": 106.24998937500024,
                    "velocity": 0.3858267716535433,
                    "duration": 0.13888887500000635
                },
                {
                    "name": "D#4",
                    "midi": 63,
                    "time": 106.24998937500024,
                    "velocity": 0.3858267716535433,
                    "duration": 0.13888887500000635
                },
                {
                    "name": "D4",
                    "midi": 62,
                    "time": 106.66665600000024,
                    "velocity": 0.3858267716535433,
                    "duration": 0.13888887500000635
                },
                {
                    "name": "F#4",
                    "midi": 66,
                    "time": 106.66665600000024,
                    "velocity": 0.3858267716535433,
                    "duration": 0.13888887500000635
                },
                {
                    "name": "C4",
                    "midi": 60,
                    "time": 106.80554487500025,
                    "velocity": 0.3858267716535433,
                    "duration": 0.13888887500000635
                },
                {
                    "name": "D#4",
                    "midi": 63,
                    "time": 106.80554487500025,
                    "velocity": 0.3858267716535433,
                    "duration": 0.13888887500000635
                },
                {
                    "name": "C4",
                    "midi": 60,
                    "time": 107.77776700000025,
                    "velocity": 0.3858267716535433,
                    "duration": 0.13888887500000635
                },
                {
                    "name": "D#4",
                    "midi": 63,
                    "time": 107.77776700000025,
                    "velocity": 0.3858267716535433,
                    "duration": 0.13888887500000635
                },
                {
                    "name": "A3",
                    "midi": 57,
                    "time": 107.91665587500026,
                    "velocity": 0.3858267716535433,
                    "duration": 0.13888887500000635
                },
                {
                    "name": "C#4",
                    "midi": 61,
                    "time": 107.91665587500026,
                    "velocity": 0.3858267716535433,
                    "duration": 0.13888887500000635
                },
                {
                    "name": "A3",
                    "midi": 57,
                    "time": 108.05554475000027,
                    "velocity": 0.3858267716535433,
                    "duration": 0.13888887500000635
                },
                {
                    "name": "C#4",
                    "midi": 61,
                    "time": 108.05554475000027,
                    "velocity": 0.3858267716535433,
                    "duration": 0.13888887500000635
                },
                {
                    "name": "A3",
                    "midi": 57,
                    "time": 108.19443362500027,
                    "velocity": 0.3858267716535433,
                    "duration": 0.13888887500000635
                },
                {
                    "name": "C#4",
                    "midi": 61,
                    "time": 108.19443362500027,
                    "velocity": 0.3858267716535433,
                    "duration": 0.13888887500000635
                },
                {
                    "name": "C#4",
                    "midi": 61,
                    "time": 108.33332250000028,
                    "velocity": 0.3858267716535433,
                    "duration": 0.13888887500000635
                },
                {
                    "name": "A3",
                    "midi": 57,
                    "time": 108.47221137500028,
                    "velocity": 0.3858267716535433,
                    "duration": 0.13888887500000635
                },
                {
                    "name": "C#4",
                    "midi": 61,
                    "time": 108.61110025000029,
                    "velocity": 0.3858267716535433,
                    "duration": 0.13888887500000635
                },
                {
                    "name": "A3",
                    "midi": 57,
                    "time": 108.7499891250003,
                    "velocity": 0.3858267716535433,
                    "duration": 0.13888887500000635
                },
                {
                    "name": "C#4",
                    "midi": 61,
                    "time": 108.8888780000003,
                    "velocity": 0.3858267716535433,
                    "duration": 0.13888887500000635
                },
                {
                    "name": "A3",
                    "midi": 57,
                    "time": 109.02776687500031,
                    "velocity": 0.3858267716535433,
                    "duration": 0.13888887500000635
                },
                {
                    "name": "C#4",
                    "midi": 61,
                    "time": 109.16665575000032,
                    "velocity": 0.3858267716535433,
                    "duration": 0.13888887500000635
                },
                {
                    "name": "A3",
                    "midi": 57,
                    "time": 109.30554462500032,
                    "velocity": 0.3858267716535433,
                    "duration": 0.13888887500000635
                },
                {
                    "name": "C#4",
                    "midi": 61,
                    "time": 109.44443350000033,
                    "velocity": 0.3858267716535433,
                    "duration": 0.13888887500000635
                },
                {
                    "name": "A3",
                    "midi": 57,
                    "time": 109.58332237500034,
                    "velocity": 0.3858267716535433,
                    "duration": 0.13888887500000635
                },
                {
                    "name": "C#4",
                    "midi": 61,
                    "time": 109.72221125000034,
                    "velocity": 0.3858267716535433,
                    "duration": 0.13888887500000635
                },
                {
                    "name": "A3",
                    "midi": 57,
                    "time": 109.86110012500035,
                    "velocity": 0.3858267716535433,
                    "duration": 0.13888887500000635
                },
                {
                    "name": "C#4",
                    "midi": 61,
                    "time": 109.99998900000035,
                    "velocity": 0.3858267716535433,
                    "duration": 0.13888887500000635
                },
                {
                    "name": "A3",
                    "midi": 57,
                    "time": 110.13887787500036,
                    "velocity": 0.3858267716535433,
                    "duration": 0.13888887500000635
                },
                {
                    "name": "C#4",
                    "midi": 61,
                    "time": 110.27776675000037,
                    "velocity": 0.3858267716535433,
                    "duration": 0.13888887500000635
                },
                {
                    "name": "A3",
                    "midi": 57,
                    "time": 110.41665562500037,
                    "velocity": 0.3858267716535433,
                    "duration": 0.13888887500000635
                },
                {
                    "name": "C#4",
                    "midi": 61,
                    "time": 110.55554450000038,
                    "velocity": 0.3858267716535433,
                    "duration": 0.13888887500000635
                },
                {
                    "name": "A3",
                    "midi": 57,
                    "time": 110.69443337500039,
                    "velocity": 0.3858267716535433,
                    "duration": 0.13888887500000635
                },
                {
                    "name": "C#4",
                    "midi": 61,
                    "time": 110.83332225000039,
                    "velocity": 0.3858267716535433,
                    "duration": 0.13888887500000635
                },
                {
                    "name": "A3",
                    "midi": 57,
                    "time": 110.9722111250004,
                    "velocity": 0.3858267716535433,
                    "duration": 0.13888887500000635
                },
                {
                    "name": "C#4",
                    "midi": 61,
                    "time": 111.1111000000004,
                    "velocity": 0.3858267716535433,
                    "duration": 0.13888887500000635
                },
                {
                    "name": "A3",
                    "midi": 57,
                    "time": 111.24998887500041,
                    "velocity": 0.3858267716535433,
                    "duration": 0.13888887500000635
                },
                {
                    "name": "C#4",
                    "midi": 61,
                    "time": 111.38887775000042,
                    "velocity": 0.3858267716535433,
                    "duration": 0.13888887500000635
                },
                {
                    "name": "A3",
                    "midi": 57,
                    "time": 111.52776662500042,
                    "velocity": 0.3858267716535433,
                    "duration": 0.13888887500000635
                },
                {
                    "name": "C#4",
                    "midi": 61,
                    "time": 111.66665550000043,
                    "velocity": 0.3858267716535433,
                    "duration": 0.13888887500000635
                },
                {
                    "name": "A3",
                    "midi": 57,
                    "time": 111.80554437500044,
                    "velocity": 0.3858267716535433,
                    "duration": 0.13888887500000635
                },
                {
                    "name": "C#4",
                    "midi": 61,
                    "time": 111.94443325000044,
                    "velocity": 0.3858267716535433,
                    "duration": 0.13888887500000635
                },
                {
                    "name": "A3",
                    "midi": 57,
                    "time": 112.08332212500045,
                    "velocity": 0.3858267716535433,
                    "duration": 0.13888887500000635
                },
                {
                    "name": "C#4",
                    "midi": 61,
                    "time": 112.22221100000046,
                    "velocity": 0.3858267716535433,
                    "duration": 0.13888887500000635
                },
                {
                    "name": "A3",
                    "midi": 57,
                    "time": 112.36109987500046,
                    "velocity": 0.3858267716535433,
                    "duration": 0.13888887500000635
                },
                {
                    "name": "C#4",
                    "midi": 61,
                    "time": 112.49998875000047,
                    "velocity": 0.3858267716535433,
                    "duration": 0.13888887500000635
                },
                {
                    "name": "A3",
                    "midi": 57,
                    "time": 112.63887762500048,
                    "velocity": 0.3858267716535433,
                    "duration": 0.13888887500000635
                },
                {
                    "name": "C#4",
                    "midi": 61,
                    "time": 112.77776650000048,
                    "velocity": 0.3858267716535433,
                    "duration": 0.13888887500000635
                },
                {
                    "name": "A3",
                    "midi": 57,
                    "time": 112.91665537500049,
                    "velocity": 0.3858267716535433,
                    "duration": 0.13888887500000635
                },
                {
                    "name": "C#4",
                    "midi": 61,
                    "time": 113.0555442500005,
                    "velocity": 0.3858267716535433,
                    "duration": 0.13888887500000635
                },
                {
                    "name": "A3",
                    "midi": 57,
                    "time": 113.1944331250005,
                    "velocity": 0.3858267716535433,
                    "duration": 0.13888887500000635
                },
                {
                    "name": "C#4",
                    "midi": 61,
                    "time": 113.3333220000005,
                    "velocity": 0.3858267716535433,
                    "duration": 0.13888887500000635
                },
                {
                    "name": "A3",
                    "midi": 57,
                    "time": 113.47221087500051,
                    "velocity": 0.3858267716535433,
                    "duration": 0.13888887500000635
                },
                {
                    "name": "C#4",
                    "midi": 61,
                    "time": 113.61109975000052,
                    "velocity": 0.3858267716535433,
                    "duration": 0.13888887500000635
                },
                {
                    "name": "A3",
                    "midi": 57,
                    "time": 113.74998862500053,
                    "velocity": 0.3858267716535433,
                    "duration": 0.13888887500000635
                },
                {
                    "name": "C#4",
                    "midi": 61,
                    "time": 113.88887750000053,
                    "velocity": 0.3858267716535433,
                    "duration": 0.13888887500000635
                },
                {
                    "name": "A3",
                    "midi": 57,
                    "time": 114.02776637500054,
                    "velocity": 0.3858267716535433,
                    "duration": 0.13888887500000635
                },
                {
                    "name": "C#4",
                    "midi": 61,
                    "time": 114.16665525000055,
                    "velocity": 0.3858267716535433,
                    "duration": 0.13888887500000635
                },
                {
                    "name": "A3",
                    "midi": 57,
                    "time": 114.30554412500055,
                    "velocity": 0.3858267716535433,
                    "duration": 0.13888887500000635
                },
                {
                    "name": "C#4",
                    "midi": 61,
                    "time": 114.44443300000056,
                    "velocity": 0.3858267716535433,
                    "duration": 0.13888887500000635
                },
                {
                    "name": "A3",
                    "midi": 57,
                    "time": 114.58332187500056,
                    "velocity": 0.3858267716535433,
                    "duration": 0.13888887500000635
                },
                {
                    "name": "C#4",
                    "midi": 61,
                    "time": 114.72221075000057,
                    "velocity": 0.3858267716535433,
                    "duration": 0.13888887500000635
                },
                {
                    "name": "A3",
                    "midi": 57,
                    "time": 114.86109962500058,
                    "velocity": 0.3858267716535433,
                    "duration": 0.13888887500000635
                },
                {
                    "name": "C#4",
                    "midi": 61,
                    "time": 114.99998850000058,
                    "velocity": 0.3858267716535433,
                    "duration": 0.13888887500000635
                },
                {
                    "name": "A3",
                    "midi": 57,
                    "time": 115.13887737500059,
                    "velocity": 0.3858267716535433,
                    "duration": 0.13888887500000635
                },
                {
                    "name": "C#4",
                    "midi": 61,
                    "time": 115.2777662500006,
                    "velocity": 0.3858267716535433,
                    "duration": 0.13888887500000635
                },
                {
                    "name": "A3",
                    "midi": 57,
                    "time": 115.4166551250006,
                    "velocity": 0.3858267716535433,
                    "duration": 0.13888887500000635
                },
                {
                    "name": "C#4",
                    "midi": 61,
                    "time": 115.55554400000061,
                    "velocity": 0.3858267716535433,
                    "duration": 0.13888887500000635
                },
                {
                    "name": "A3",
                    "midi": 57,
                    "time": 115.69443287500062,
                    "velocity": 0.3858267716535433,
                    "duration": 0.13888887500000635
                },
                {
                    "name": "C#4",
                    "midi": 61,
                    "time": 115.83332175000062,
                    "velocity": 0.3858267716535433,
                    "duration": 0.13888887500000635
                },
                {
                    "name": "A3",
                    "midi": 57,
                    "time": 115.97221062500063,
                    "velocity": 0.3858267716535433,
                    "duration": 0.13888887500000635
                },
                {
                    "name": "C#4",
                    "midi": 61,
                    "time": 116.11109950000063,
                    "velocity": 0.3858267716535433,
                    "duration": 0.13888887500000635
                },
                {
                    "name": "A3",
                    "midi": 57,
                    "time": 116.24998837500064,
                    "velocity": 0.3858267716535433,
                    "duration": 0.13888887500000635
                },
                {
                    "name": "C#4",
                    "midi": 61,
                    "time": 116.38887725000065,
                    "velocity": 0.3858267716535433,
                    "duration": 0.13888887500000635
                },
                {
                    "name": "A3",
                    "midi": 57,
                    "time": 116.52776612500065,
                    "velocity": 0.3858267716535433,
                    "duration": 0.13888887500000635
                },
                {
                    "name": "C#4",
                    "midi": 61,
                    "time": 116.66665500000066,
                    "velocity": 0.3858267716535433,
                    "duration": 0.13888887500000635
                },
                {
                    "name": "A3",
                    "midi": 57,
                    "time": 116.80554387500067,
                    "velocity": 0.3858267716535433,
                    "duration": 0.13888887500000635
                },
                {
                    "name": "C#4",
                    "midi": 61,
                    "time": 116.94443275000067,
                    "velocity": 0.3858267716535433,
                    "duration": 0.13888887500000635
                },
                {
                    "name": "A3",
                    "midi": 57,
                    "time": 117.08332162500068,
                    "velocity": 0.3858267716535433,
                    "duration": 0.13888887500000635
                },
                {
                    "name": "C#4",
                    "midi": 61,
                    "time": 117.22221050000068,
                    "velocity": 0.3858267716535433,
                    "duration": 0.13888887500000635
                },
                {
                    "name": "A3",
                    "midi": 57,
                    "time": 117.36109937500069,
                    "velocity": 0.3858267716535433,
                    "duration": 0.13888887500000635
                },
                {
                    "name": "C#4",
                    "midi": 61,
                    "time": 117.4999882500007,
                    "velocity": 0.3858267716535433,
                    "duration": 0.13888887500000635
                },
                {
                    "name": "A3",
                    "midi": 57,
                    "time": 117.6388771250007,
                    "velocity": 0.3858267716535433,
                    "duration": 0.13888887500000635
                },
                {
                    "name": "C#4",
                    "midi": 61,
                    "time": 117.77776600000071,
                    "velocity": 0.3858267716535433,
                    "duration": 0.13888887500000635
                },
                {
                    "name": "A3",
                    "midi": 57,
                    "time": 117.91665487500072,
                    "velocity": 0.3858267716535433,
                    "duration": 0.13888887500000635
                },
                {
                    "name": "C#4",
                    "midi": 61,
                    "time": 118.05554375000072,
                    "velocity": 0.3858267716535433,
                    "duration": 0.13888887500000635
                },
                {
                    "name": "A3",
                    "midi": 57,
                    "time": 118.19443262500073,
                    "velocity": 0.3858267716535433,
                    "duration": 0.13888887500000635
                },
                {
                    "name": "C#4",
                    "midi": 61,
                    "time": 118.33332150000074,
                    "velocity": 0.3858267716535433,
                    "duration": 0.13888887500000635
                },
                {
                    "name": "A3",
                    "midi": 57,
                    "time": 118.47221037500074,
                    "velocity": 0.3858267716535433,
                    "duration": 0.13888887500000635
                },
                {
                    "name": "C#4",
                    "midi": 61,
                    "time": 118.61109925000075,
                    "velocity": 0.3858267716535433,
                    "duration": 0.13888887500000635
                },
                {
                    "name": "A3",
                    "midi": 57,
                    "time": 118.74998812500075,
                    "velocity": 0.3858267716535433,
                    "duration": 0.13888887500000635
                },
                {
                    "name": "C#4",
                    "midi": 61,
                    "time": 118.88887700000076,
                    "velocity": 0.3858267716535433,
                    "duration": 0.13888887500000635
                },
                {
                    "name": "A3",
                    "midi": 57,
                    "time": 119.02776587500077,
                    "velocity": 0.3858267716535433,
                    "duration": 0.13888887500000635
                },
                {
                    "name": "C#4",
                    "midi": 61,
                    "time": 119.16665475000077,
                    "velocity": 0.3858267716535433,
                    "duration": 0.13888887500000635
                },
                {
                    "name": "A3",
                    "midi": 57,
                    "time": 119.30554362500078,
                    "velocity": 0.3858267716535433,
                    "duration": 0.13888887500000635
                },
                {
                    "name": "C#4",
                    "midi": 61,
                    "time": 119.44443250000079,
                    "velocity": 0.3858267716535433,
                    "duration": 0.13888887500000635
                },
                {
                    "name": "A3",
                    "midi": 57,
                    "time": 119.58332137500079,
                    "velocity": 0.3858267716535433,
                    "duration": 0.13888887500000635
                },
                {
                    "name": "C#4",
                    "midi": 61,
                    "time": 119.7222102500008,
                    "velocity": 0.3858267716535433,
                    "duration": 0.13888887500000635
                },
                {
                    "name": "A3",
                    "midi": 57,
                    "time": 119.8610991250008,
                    "velocity": 0.3858267716535433,
                    "duration": 0.13888887500000635
                },
                {
                    "name": "C#4",
                    "midi": 61,
                    "time": 119.99998800000081,
                    "velocity": 0.3858267716535433,
                    "duration": 0.13888887500000635
                },
                {
                    "name": "A3",
                    "midi": 57,
                    "time": 120.13887687500082,
                    "velocity": 0.3858267716535433,
                    "duration": 0.13888887500000635
                },
                {
                    "name": "C#4",
                    "midi": 61,
                    "time": 120.27776575000082,
                    "velocity": 0.3858267716535433,
                    "duration": 0.13888887500000635
                },
                {
                    "name": "A3",
                    "midi": 57,
                    "time": 120.41665462500083,
                    "velocity": 0.3858267716535433,
                    "duration": 0.13888887500000635
                },
                {
                    "name": "C#4",
                    "midi": 61,
                    "time": 120.55554350000084,
                    "velocity": 0.3858267716535433,
                    "duration": 0.13888887500000635
                },
                {
                    "name": "A3",
                    "midi": 57,
                    "time": 120.69443237500084,
                    "velocity": 0.3858267716535433,
                    "duration": 0.13888887500000635
                },
                {
                    "name": "C#4",
                    "midi": 61,
                    "time": 120.83332125000085,
                    "velocity": 0.3858267716535433,
                    "duration": 0.13888887500000635
                },
                {
                    "name": "A3",
                    "midi": 57,
                    "time": 120.97221012500086,
                    "velocity": 0.3858267716535433,
                    "duration": 0.13888887500000635
                },
                {
                    "name": "A3",
                    "midi": 57,
                    "time": 121.11109900000086,
                    "velocity": 0.3858267716535433,
                    "duration": 0.555555499999997
                },
                {
                    "name": "C#4",
                    "midi": 61,
                    "time": 121.11109900000086,
                    "velocity": 0.3858267716535433,
                    "duration": 0.555555499999997
                },
                {
                    "name": "G3",
                    "midi": 55,
                    "time": 121.66665450000086,
                    "velocity": 0.3858267716535433,
                    "duration": 0.555555499999997
                },
                {
                    "name": "A#3",
                    "midi": 58,
                    "time": 121.66665450000086,
                    "velocity": 0.3858267716535433,
                    "duration": 0.555555499999997
                },
                {
                    "name": "A#3",
                    "midi": 58,
                    "time": 122.22221000000086,
                    "velocity": 0.3858267716535433,
                    "duration": 0.555555499999997
                },
                {
                    "name": "C#4",
                    "midi": 61,
                    "time": 122.22221000000086,
                    "velocity": 0.3858267716535433,
                    "duration": 0.555555499999997
                },
                {
                    "name": "G3",
                    "midi": 55,
                    "time": 122.77776550000085,
                    "velocity": 0.3858267716535433,
                    "duration": 0.555555499999997
                },
                {
                    "name": "A#3",
                    "midi": 58,
                    "time": 122.77776550000085,
                    "velocity": 0.3858267716535433,
                    "duration": 0.555555499999997
                },
                {
                    "name": "A#3",
                    "midi": 58,
                    "time": 123.33332100000085,
                    "velocity": 0.3858267716535433,
                    "duration": 0.555555499999997
                },
                {
                    "name": "C#4",
                    "midi": 61,
                    "time": 123.33332100000085,
                    "velocity": 0.3858267716535433,
                    "duration": 0.555555499999997
                },
                {
                    "name": "C4",
                    "midi": 60,
                    "time": 123.88887650000085,
                    "velocity": 0.3858267716535433,
                    "duration": 0.555555499999997
                },
                {
                    "name": "D#4",
                    "midi": 63,
                    "time": 123.88887650000085,
                    "velocity": 0.3858267716535433,
                    "duration": 0.555555499999997
                },
                {
                    "name": "A#3",
                    "midi": 58,
                    "time": 124.44443200000084,
                    "velocity": 0.3858267716535433,
                    "duration": 0.555555499999997
                },
                {
                    "name": "C#4",
                    "midi": 61,
                    "time": 124.44443200000084,
                    "velocity": 0.3858267716535433,
                    "duration": 0.555555499999997
                },
                {
                    "name": "G3",
                    "midi": 55,
                    "time": 124.99998750000084,
                    "velocity": 0.3858267716535433,
                    "duration": 0.555555499999997
                },
                {
                    "name": "A#3",
                    "midi": 58,
                    "time": 124.99998750000084,
                    "velocity": 0.3858267716535433,
                    "duration": 0.555555499999997
                },
                {
                    "name": "A3",
                    "midi": 57,
                    "time": 125.55554300000084,
                    "velocity": 0.3858267716535433,
                    "duration": 0.555555499999997
                },
                {
                    "name": "C#4",
                    "midi": 61,
                    "time": 125.55554300000084,
                    "velocity": 0.3858267716535433,
                    "duration": 0.555555499999997
                },
                {
                    "name": "C4",
                    "midi": 60,
                    "time": 126.11109850000084,
                    "velocity": 0.3858267716535433,
                    "duration": 0.555555499999997
                },
                {
                    "name": "D#4",
                    "midi": 63,
                    "time": 126.11109850000084,
                    "velocity": 0.3858267716535433,
                    "duration": 0.555555499999997
                },
                {
                    "name": "A3",
                    "midi": 57,
                    "time": 126.66665400000083,
                    "velocity": 0.3858267716535433,
                    "duration": 0.555555499999997
                },
                {
                    "name": "C#4",
                    "midi": 61,
                    "time": 126.66665400000083,
                    "velocity": 0.3858267716535433,
                    "duration": 0.555555499999997
                },
                {
                    "name": "G3",
                    "midi": 55,
                    "time": 127.22220950000083,
                    "velocity": 0.3858267716535433,
                    "duration": 0.555555499999997
                },
                {
                    "name": "A#3",
                    "midi": 58,
                    "time": 127.22220950000083,
                    "velocity": 0.3858267716535433,
                    "duration": 0.555555499999997
                },
                {
                    "name": "A3",
                    "midi": 57,
                    "time": 127.77776500000083,
                    "velocity": 0.3858267716535433,
                    "duration": 0.5555555000000112
                },
                {
                    "name": "C#4",
                    "midi": 61,
                    "time": 127.77776500000083,
                    "velocity": 0.3858267716535433,
                    "duration": 0.5555555000000112
                },
                {
                    "name": "C4",
                    "midi": 60,
                    "time": 128.33332050000084,
                    "velocity": 0.3858267716535433,
                    "duration": 0.555555499999997
                },
                {
                    "name": "D#4",
                    "midi": 63,
                    "time": 128.33332050000084,
                    "velocity": 0.3858267716535433,
                    "duration": 0.555555499999997
                },
                {
                    "name": "D4",
                    "midi": 62,
                    "time": 128.88887600000083,
                    "velocity": 0.3858267716535433,
                    "duration": 0.555555499999997
                },
                {
                    "name": "F#4",
                    "midi": 66,
                    "time": 128.88887600000083,
                    "velocity": 0.3858267716535433,
                    "duration": 0.555555499999997
                },
                {
                    "name": "F4",
                    "midi": 65,
                    "time": 129.44443150000083,
                    "velocity": 0.3858267716535433,
                    "duration": 0.555555499999997
                },
                {
                    "name": "G#4",
                    "midi": 68,
                    "time": 129.44443150000083,
                    "velocity": 0.3858267716535433,
                    "duration": 0.555555499999997
                },
                {
                    "name": "D4",
                    "midi": 62,
                    "time": 129.99998700000083,
                    "velocity": 0.3858267716535433,
                    "duration": 0.555555499999997
                },
                {
                    "name": "F#4",
                    "midi": 66,
                    "time": 129.99998700000083,
                    "velocity": 0.3858267716535433,
                    "duration": 0.555555499999997
                },
                {
                    "name": "F4",
                    "midi": 65,
                    "time": 130.55554250000083,
                    "velocity": 0.3858267716535433,
                    "duration": 0.555555499999997
                },
                {
                    "name": "G#4",
                    "midi": 68,
                    "time": 130.55554250000083,
                    "velocity": 0.3858267716535433,
                    "duration": 0.555555499999997
                },
                {
                    "name": "D4",
                    "midi": 62,
                    "time": 131.11109800000082,
                    "velocity": 0.3858267716535433,
                    "duration": 0.555555499999997
                },
                {
                    "name": "F#4",
                    "midi": 66,
                    "time": 131.11109800000082,
                    "velocity": 0.3858267716535433,
                    "duration": 0.555555499999997
                },
                {
                    "name": "C4",
                    "midi": 60,
                    "time": 131.66665350000082,
                    "velocity": 0.3858267716535433,
                    "duration": 0.555555499999997
                },
                {
                    "name": "D#4",
                    "midi": 63,
                    "time": 131.66665350000082,
                    "velocity": 0.3858267716535433,
                    "duration": 0.555555499999997
                },
                {
                    "name": "D4",
                    "midi": 62,
                    "time": 132.22220900000082,
                    "velocity": 0.3858267716535433,
                    "duration": 0.555555499999997
                },
                {
                    "name": "F#4",
                    "midi": 66,
                    "time": 132.22220900000082,
                    "velocity": 0.3858267716535433,
                    "duration": 0.555555499999997
                },
                {
                    "name": "F4",
                    "midi": 65,
                    "time": 132.7777645000008,
                    "velocity": 0.3858267716535433,
                    "duration": 0.555555499999997
                },
                {
                    "name": "G#4",
                    "midi": 68,
                    "time": 132.7777645000008,
                    "velocity": 0.3858267716535433,
                    "duration": 0.555555499999997
                },
                {
                    "name": "B4",
                    "midi": 71,
                    "time": 133.3333200000008,
                    "velocity": 0.3858267716535433,
                    "duration": 0.1851851666666562
                },
                {
                    "name": "G4",
                    "midi": 67,
                    "time": 133.51850516666747,
                    "velocity": 0.3858267716535433,
                    "duration": 0.18287035208334146
                },
                {
                    "name": "B4",
                    "midi": 71,
                    "time": 133.7013755187508,
                    "velocity": 0.3858267716535433,
                    "duration": 0.18749998124999934
                },
                {
                    "name": "G4",
                    "midi": 67,
                    "time": 133.8888755000008,
                    "velocity": 0.3858267716535433,
                    "duration": 0.1851851666666562
                },
                {
                    "name": "B4",
                    "midi": 71,
                    "time": 134.07406066666746,
                    "velocity": 0.3858267716535433,
                    "duration": 0.18287035208334146
                },
                {
                    "name": "G4",
                    "midi": 67,
                    "time": 134.2569310187508,
                    "velocity": 0.3858267716535433,
                    "duration": 0.18749998124999934
                },
                {
                    "name": "B4",
                    "midi": 71,
                    "time": 134.4444310000008,
                    "velocity": 0.3858267716535433,
                    "duration": 0.1851851666666562
                },
                {
                    "name": "G4",
                    "midi": 67,
                    "time": 134.62961616666746,
                    "velocity": 0.3858267716535433,
                    "duration": 0.18287035208334146
                },
                {
                    "name": "B4",
                    "midi": 71,
                    "time": 134.8124865187508,
                    "velocity": 0.3858267716535433,
                    "duration": 0.18749998124999934
                },
                {
                    "name": "G4",
                    "midi": 67,
                    "time": 134.9999865000008,
                    "velocity": 0.3858267716535433,
                    "duration": 0.1851851666666562
                },
                {
                    "name": "B4",
                    "midi": 71,
                    "time": 135.18517166666746,
                    "velocity": 0.3858267716535433,
                    "duration": 0.18287035208334146
                },
                {
                    "name": "G4",
                    "midi": 67,
                    "time": 135.3680420187508,
                    "velocity": 0.3858267716535433,
                    "duration": 0.18749998124999934
                },
                {
                    "name": "B4",
                    "midi": 71,
                    "time": 135.5555420000008,
                    "velocity": 0.3858267716535433,
                    "duration": 0.1851851666666562
                },
                {
                    "name": "G4",
                    "midi": 67,
                    "time": 135.74072716666745,
                    "velocity": 0.3858267716535433,
                    "duration": 0.18287035208334146
                },
                {
                    "name": "B4",
                    "midi": 71,
                    "time": 135.9235975187508,
                    "velocity": 0.3858267716535433,
                    "duration": 0.18749998124999934
                },
                {
                    "name": "G4",
                    "midi": 67,
                    "time": 136.1110975000008,
                    "velocity": 0.3858267716535433,
                    "duration": 0.1851851666666562
                },
                {
                    "name": "B4",
                    "midi": 71,
                    "time": 136.29628266666745,
                    "velocity": 0.3858267716535433,
                    "duration": 0.18287035208334146
                },
                {
                    "name": "G4",
                    "midi": 67,
                    "time": 136.4791530187508,
                    "velocity": 0.3858267716535433,
                    "duration": 0.18749998124999934
                },
                {
                    "name": "B4",
                    "midi": 71,
                    "time": 136.6666530000008,
                    "velocity": 0.3858267716535433,
                    "duration": 0.1851851666666562
                },
                {
                    "name": "G4",
                    "midi": 67,
                    "time": 136.85183816666745,
                    "velocity": 0.3858267716535433,
                    "duration": 0.18287035208334146
                },
                {
                    "name": "B4",
                    "midi": 71,
                    "time": 137.0347085187508,
                    "velocity": 0.3858267716535433,
                    "duration": 0.18749998124999934
                },
                {
                    "name": "G4",
                    "midi": 67,
                    "time": 137.2222085000008,
                    "velocity": 0.3858267716535433,
                    "duration": 0.1851851666666562
                },
                {
                    "name": "B4",
                    "midi": 71,
                    "time": 137.40739366666745,
                    "velocity": 0.3858267716535433,
                    "duration": 0.18287035208334146
                },
                {
                    "name": "G4",
                    "midi": 67,
                    "time": 137.5902640187508,
                    "velocity": 0.3858267716535433,
                    "duration": 0.18749998124999934
                },
                {
                    "name": "B4",
                    "midi": 71,
                    "time": 137.7777640000008,
                    "velocity": 0.3858267716535433,
                    "duration": 0.1851851666666562
                },
                {
                    "name": "G4",
                    "midi": 67,
                    "time": 137.96294916666744,
                    "velocity": 0.3858267716535433,
                    "duration": 0.18287035208334146
                },
                {
                    "name": "B4",
                    "midi": 71,
                    "time": 138.14581951875078,
                    "velocity": 0.3858267716535433,
                    "duration": 0.18749998124999934
                },
                {
                    "name": "G4",
                    "midi": 67,
                    "time": 138.33331950000078,
                    "velocity": 0.3858267716535433,
                    "duration": 0.1851851666666562
                },
                {
                    "name": "B4",
                    "midi": 71,
                    "time": 138.51850466666744,
                    "velocity": 0.3858267716535433,
                    "duration": 0.18287035208334146
                },
                {
                    "name": "G4",
                    "midi": 67,
                    "time": 138.70137501875078,
                    "velocity": 0.3858267716535433,
                    "duration": 0.18749998124999934
                },
                {
                    "name": "B4",
                    "midi": 71,
                    "time": 138.88887500000078,
                    "velocity": 0.3858267716535433,
                    "duration": 0.1851851666666562
                },
                {
                    "name": "G4",
                    "midi": 67,
                    "time": 139.07406016666744,
                    "velocity": 0.3858267716535433,
                    "duration": 0.18287035208334146
                },
                {
                    "name": "B4",
                    "midi": 71,
                    "time": 139.25693051875078,
                    "velocity": 0.3858267716535433,
                    "duration": 0.18749998124999934
                },
                {
                    "name": "G4",
                    "midi": 67,
                    "time": 139.44443050000078,
                    "velocity": 0.3858267716535433,
                    "duration": 0.1851851666666562
                },
                {
                    "name": "B4",
                    "midi": 71,
                    "time": 139.62961566666743,
                    "velocity": 0.3858267716535433,
                    "duration": 0.18287035208334146
                },
                {
                    "name": "G4",
                    "midi": 67,
                    "time": 139.81248601875077,
                    "velocity": 0.3858267716535433,
                    "duration": 0.18749998124999934
                },
                {
                    "name": "B4",
                    "midi": 71,
                    "time": 139.99998600000077,
                    "velocity": 0.3858267716535433,
                    "duration": 0.1851851666666562
                },
                {
                    "name": "G4",
                    "midi": 67,
                    "time": 140.18517116666743,
                    "velocity": 0.3858267716535433,
                    "duration": 0.18287035208334146
                },
                {
                    "name": "B4",
                    "midi": 71,
                    "time": 140.36804151875077,
                    "velocity": 0.3858267716535433,
                    "duration": 0.18749998124999934
                },
                {
                    "name": "G4",
                    "midi": 67,
                    "time": 140.55554150000077,
                    "velocity": 0.3858267716535433,
                    "duration": 0.1851851666666562
                },
                {
                    "name": "B4",
                    "midi": 71,
                    "time": 140.74072666666743,
                    "velocity": 0.3858267716535433,
                    "duration": 0.18287035208334146
                },
                {
                    "name": "G4",
                    "midi": 67,
                    "time": 140.92359701875077,
                    "velocity": 0.3858267716535433,
                    "duration": 0.18749998124999934
                },
                {
                    "name": "B4",
                    "midi": 71,
                    "time": 141.11109700000077,
                    "velocity": 0.3858267716535433,
                    "duration": 0.1851851666666562
                },
                {
                    "name": "G4",
                    "midi": 67,
                    "time": 141.29628216666742,
                    "velocity": 0.3858267716535433,
                    "duration": 0.18287035208334146
                },
                {
                    "name": "B4",
                    "midi": 71,
                    "time": 141.47915251875077,
                    "velocity": 0.3858267716535433,
                    "duration": 0.18749998124999934
                },
                {
                    "name": "G4",
                    "midi": 67,
                    "time": 141.66665250000077,
                    "velocity": 0.3858267716535433,
                    "duration": 0.1851851666666562
                },
                {
                    "name": "B4",
                    "midi": 71,
                    "time": 141.85183766666742,
                    "velocity": 0.3858267716535433,
                    "duration": 0.18287035208334146
                },
                {
                    "name": "G4",
                    "midi": 67,
                    "time": 142.03470801875076,
                    "velocity": 0.3858267716535433,
                    "duration": 0.18749998124999934
                },
                {
                    "name": "F#4",
                    "midi": 66,
                    "time": 143.88887450000075,
                    "velocity": 0.4881889763779528,
                    "duration": 0.1851851666666562
                },
                {
                    "name": "G4",
                    "midi": 67,
                    "time": 144.0740596666674,
                    "velocity": 0.4881889763779528,
                    "duration": 0.18287035208334146
                },
                {
                    "name": "G#4",
                    "midi": 68,
                    "time": 144.25693001875075,
                    "velocity": 0.4881889763779528,
                    "duration": 0.18749998124999934
                },
                {
                    "name": "C5",
                    "midi": 72,
                    "time": 144.44443000000075,
                    "velocity": 0.4881889763779528,
                    "duration": 0.1851851666666562
                },
                {
                    "name": "B4",
                    "midi": 71,
                    "time": 144.6296151666674,
                    "velocity": 0.4881889763779528,
                    "duration": 0.18287035208334146
                },
                {
                    "name": "C5",
                    "midi": 72,
                    "time": 144.81248551875075,
                    "velocity": 0.4881889763779528,
                    "duration": 0.18749998124999934
                },
                {
                    "name": "B4",
                    "midi": 71,
                    "time": 144.99998550000075,
                    "velocity": 0.4881889763779528,
                    "duration": 0.1851851666666562
                },
                {
                    "name": "C5",
                    "midi": 72,
                    "time": 145.1851706666674,
                    "velocity": 0.4881889763779528,
                    "duration": 0.18287035208334146
                },
                {
                    "name": "B4",
                    "midi": 71,
                    "time": 145.36804101875074,
                    "velocity": 0.4881889763779528,
                    "duration": 0.18749998124999934
                },
                {
                    "name": "C5",
                    "midi": 72,
                    "time": 145.55554100000074,
                    "velocity": 0.4881889763779528,
                    "duration": 0.1851851666666562
                },
                {
                    "name": "B4",
                    "midi": 71,
                    "time": 145.7407261666674,
                    "velocity": 0.4881889763779528,
                    "duration": 0.18287035208334146
                },
                {
                    "name": "C5",
                    "midi": 72,
                    "time": 145.92359651875074,
                    "velocity": 0.4881889763779528,
                    "duration": 0.18749998124999934
                },
                {
                    "name": "B4",
                    "midi": 71,
                    "time": 146.11109650000074,
                    "velocity": 0.4881889763779528,
                    "duration": 0.1851851666666562
                },
                {
                    "name": "C5",
                    "midi": 72,
                    "time": 146.2962816666674,
                    "velocity": 0.4881889763779528,
                    "duration": 0.18287035208334146
                },
                {
                    "name": "B4",
                    "midi": 71,
                    "time": 146.47915201875074,
                    "velocity": 0.4881889763779528,
                    "duration": 0.18749998124999934
                },
                {
                    "name": "C5",
                    "midi": 72,
                    "time": 146.66665200000074,
                    "velocity": 0.4881889763779528,
                    "duration": 0.1851851666666562
                },
                {
                    "name": "B4",
                    "midi": 71,
                    "time": 146.8518371666674,
                    "velocity": 0.4881889763779528,
                    "duration": 0.18287035208334146
                },
                {
                    "name": "C5",
                    "midi": 72,
                    "time": 147.03470751875074,
                    "velocity": 0.4881889763779528,
                    "duration": 0.18749998124999934
                },
                {
                    "name": "B4",
                    "midi": 71,
                    "time": 147.22220750000074,
                    "velocity": 0.4881889763779528,
                    "duration": 0.1851851666666562
                },
                {
                    "name": "C5",
                    "midi": 72,
                    "time": 147.4073926666674,
                    "velocity": 0.4881889763779528,
                    "duration": 0.18287035208334146
                },
                {
                    "name": "B4",
                    "midi": 71,
                    "time": 147.59026301875073,
                    "velocity": 0.4881889763779528,
                    "duration": 0.18749998124999934
                },
                {
                    "name": "C5",
                    "midi": 72,
                    "time": 147.77776300000073,
                    "velocity": 0.4881889763779528,
                    "duration": 0.1851851666666562
                },
                {
                    "name": "B4",
                    "midi": 71,
                    "time": 147.9629481666674,
                    "velocity": 0.4881889763779528,
                    "duration": 0.18287035208334146
                },
                {
                    "name": "C5",
                    "midi": 72,
                    "time": 148.14581851875073,
                    "velocity": 0.4881889763779528,
                    "duration": 0.18749998124999934
                },
                {
                    "name": "C5",
                    "midi": 72,
                    "time": 148.33331850000073,
                    "velocity": 0.4881889763779528,
                    "duration": 0.1851851666666562
                },
                {
                    "name": "C#5",
                    "midi": 73,
                    "time": 148.51850366666739,
                    "velocity": 0.4881889763779528,
                    "duration": 0.18287035208334146
                },
                {
                    "name": "D5",
                    "midi": 74,
                    "time": 148.70137401875073,
                    "velocity": 0.4881889763779528,
                    "duration": 0.18749998124999934
                },
                {
                    "name": "F#5",
                    "midi": 78,
                    "time": 148.88887400000073,
                    "velocity": 0.4881889763779528,
                    "duration": 0.555555499999997
                },
                {
                    "name": "F#5",
                    "midi": 78,
                    "time": 149.44442950000072,
                    "velocity": 0.4881889763779528,
                    "duration": 0.1851851666666562
                },
                {
                    "name": "G5",
                    "midi": 79,
                    "time": 149.62961466666738,
                    "velocity": 0.4881889763779528,
                    "duration": 0.18287035208334146
                },
                {
                    "name": "G#5",
                    "midi": 80,
                    "time": 149.81248501875072,
                    "velocity": 0.4881889763779528,
                    "duration": 0.18749998124999934
                },
                {
                    "name": "B5",
                    "midi": 83,
                    "time": 149.99998500000072,
                    "velocity": 0.5905511811023622,
                    "duration": 0.555555499999997
                },
                {
                    "name": "B5",
                    "midi": 83,
                    "time": 150.55554050000072,
                    "velocity": 0.5905511811023622,
                    "duration": 0.1851851666666562
                },
                {
                    "name": "C#6",
                    "midi": 85,
                    "time": 150.74072566666737,
                    "velocity": 0.5905511811023622,
                    "duration": 0.18287035208334146
                },
                {
                    "name": "D6",
                    "midi": 86,
                    "time": 150.92359601875071,
                    "velocity": 0.5905511811023622,
                    "duration": 0.18749998124999934
                },
                {
                    "name": "A#5",
                    "midi": 82,
                    "time": 151.1110960000007,
                    "velocity": 0.6929133858267716,
                    "duration": 0.2777777500000127
                },
                {
                    "name": "F#6",
                    "midi": 90,
                    "time": 151.1110960000007,
                    "velocity": 0.6929133858267716,
                    "duration": 0.2777777500000127
                },
                {
                    "name": "F6",
                    "midi": 89,
                    "time": 151.38887375000073,
                    "velocity": 0.6929133858267716,
                    "duration": 0.2777777500000127
                },
                {
                    "name": "E6",
                    "midi": 88,
                    "time": 151.66665150000074,
                    "velocity": 0.6929133858267716,
                    "duration": 0.2777777500000127
                },
                {
                    "name": "C6",
                    "midi": 84,
                    "time": 151.94442925000075,
                    "velocity": 0.6929133858267716,
                    "duration": 0.2777777500000127
                },
                {
                    "name": "B5",
                    "midi": 83,
                    "time": 152.22220700000076,
                    "velocity": 0.6929133858267716,
                    "duration": 0.2777777500000127
                },
                {
                    "name": "C6",
                    "midi": 84,
                    "time": 152.49998475000078,
                    "velocity": 0.6929133858267716,
                    "duration": 0.2777777500000127
                },
                {
                    "name": "C#6",
                    "midi": 85,
                    "time": 152.7777625000008,
                    "velocity": 0.6929133858267716,
                    "duration": 0.2777777500000127
                },
                {
                    "name": "F6",
                    "midi": 89,
                    "time": 153.0555402500008,
                    "velocity": 0.6929133858267716,
                    "duration": 0.2777777500000127
                },
                {
                    "name": "F#6",
                    "midi": 90,
                    "time": 153.33331800000082,
                    "velocity": 0.6929133858267716,
                    "duration": 0.2777777500000127
                },
                {
                    "name": "F6",
                    "midi": 89,
                    "time": 153.61109575000083,
                    "velocity": 0.6929133858267716,
                    "duration": 0.2777777500000127
                },
                {
                    "name": "E6",
                    "midi": 88,
                    "time": 153.88887350000084,
                    "velocity": 0.6929133858267716,
                    "duration": 0.2777777500000127
                },
                {
                    "name": "C6",
                    "midi": 84,
                    "time": 154.16665125000085,
                    "velocity": 0.6929133858267716,
                    "duration": 0.2777777500000127
                },
                {
                    "name": "B5",
                    "midi": 83,
                    "time": 154.44442900000087,
                    "velocity": 0.6929133858267716,
                    "duration": 0.2777777500000127
                },
                {
                    "name": "C6",
                    "midi": 84,
                    "time": 154.72220675000088,
                    "velocity": 0.6929133858267716,
                    "duration": 0.2777777500000127
                },
                {
                    "name": "C#6",
                    "midi": 85,
                    "time": 154.9999845000009,
                    "velocity": 0.6929133858267716,
                    "duration": 0.2777777500000127
                },
                {
                    "name": "F6",
                    "midi": 89,
                    "time": 155.2777622500009,
                    "velocity": 0.6929133858267716,
                    "duration": 0.2777777500000127
                },
                {
                    "name": "F#6",
                    "midi": 90,
                    "time": 155.55554000000092,
                    "velocity": 0.7952755905511811,
                    "duration": 0.2777777500000127
                },
                {
                    "name": "F6",
                    "midi": 89,
                    "time": 155.83331775000093,
                    "velocity": 0.7952755905511811,
                    "duration": 0.2777777500000127
                },
                {
                    "name": "E6",
                    "midi": 88,
                    "time": 156.11109550000094,
                    "velocity": 0.7952755905511811,
                    "duration": 0.2777777500000127
                },
                {
                    "name": "C6",
                    "midi": 84,
                    "time": 156.38887325000096,
                    "velocity": 0.7952755905511811,
                    "duration": 0.2777777500000127
                },
                {
                    "name": "B5",
                    "midi": 83,
                    "time": 156.66665100000097,
                    "velocity": 0.7952755905511811,
                    "duration": 0.2777777500000127
                },
                {
                    "name": "C6",
                    "midi": 84,
                    "time": 156.94442875000098,
                    "velocity": 0.7952755905511811,
                    "duration": 0.2777777500000127
                },
                {
                    "name": "C#6",
                    "midi": 85,
                    "time": 157.222206500001,
                    "velocity": 0.7952755905511811,
                    "duration": 0.2777777500000127
                },
                {
                    "name": "F6",
                    "midi": 89,
                    "time": 157.499984250001,
                    "velocity": 0.7952755905511811,
                    "duration": 0.2777777500000127
                },
                {
                    "name": "F#6",
                    "midi": 90,
                    "time": 157.77776200000102,
                    "velocity": 0.7952755905511811,
                    "duration": 0.2777777500000127
                },
                {
                    "name": "F6",
                    "midi": 89,
                    "time": 158.05553975000103,
                    "velocity": 0.7952755905511811,
                    "duration": 0.2777777500000127
                },
                {
                    "name": "E6",
                    "midi": 88,
                    "time": 158.33331750000104,
                    "velocity": 0.7952755905511811,
                    "duration": 0.2777777500000127
                },
                {
                    "name": "C6",
                    "midi": 84,
                    "time": 158.61109525000106,
                    "velocity": 0.7952755905511811,
                    "duration": 0.2777777500000127
                },
                {
                    "name": "B5",
                    "midi": 83,
                    "time": 158.88887300000107,
                    "velocity": 0.7952755905511811,
                    "duration": 0.2777777500000127
                },
                {
                    "name": "C6",
                    "midi": 84,
                    "time": 159.16665075000108,
                    "velocity": 0.7952755905511811,
                    "duration": 0.2777777500000127
                },
                {
                    "name": "C#6",
                    "midi": 85,
                    "time": 159.4444285000011,
                    "velocity": 0.7952755905511811,
                    "duration": 0.2777777500000127
                },
                {
                    "name": "F6",
                    "midi": 89,
                    "time": 159.7222062500011,
                    "velocity": 0.7952755905511811,
                    "duration": 0.2777777500000127
                },
                {
                    "name": "F#6",
                    "midi": 90,
                    "time": 159.99998400000112,
                    "velocity": 0.6929133858267716,
                    "duration": 0.2777777500000127
                },
                {
                    "name": "F6",
                    "midi": 89,
                    "time": 160.27776175000113,
                    "velocity": 0.6929133858267716,
                    "duration": 0.2777777500000127
                },
                {
                    "name": "E6",
                    "midi": 88,
                    "time": 160.55553950000115,
                    "velocity": 0.6929133858267716,
                    "duration": 0.2777777500000127
                },
                {
                    "name": "C6",
                    "midi": 84,
                    "time": 160.83331725000116,
                    "velocity": 0.6929133858267716,
                    "duration": 0.2777777500000127
                },
                {
                    "name": "A#5",
                    "midi": 82,
                    "time": 161.11109500000117,
                    "velocity": 0.6929133858267716,
                    "duration": 0.2777777500000127
                },
                {
                    "name": "A5",
                    "midi": 81,
                    "time": 161.38887275000118,
                    "velocity": 0.6929133858267716,
                    "duration": 0.2777777500000127
                },
                {
                    "name": "G#5",
                    "midi": 80,
                    "time": 161.6666505000012,
                    "velocity": 0.6929133858267716,
                    "duration": 0.2777777500000127
                },
                {
                    "name": "E5",
                    "midi": 76,
                    "time": 161.9444282500012,
                    "velocity": 0.6929133858267716,
                    "duration": 0.2777777500000127
                },
                {
                    "name": "A#5",
                    "midi": 82,
                    "time": 162.22220600000122,
                    "velocity": 0.5905511811023622,
                    "duration": 0.2777777500000127
                },
                {
                    "name": "A5",
                    "midi": 81,
                    "time": 162.49998375000123,
                    "velocity": 0.5905511811023622,
                    "duration": 0.2777777500000127
                },
                {
                    "name": "G#5",
                    "midi": 80,
                    "time": 162.77776150000125,
                    "velocity": 0.5905511811023622,
                    "duration": 0.2777777500000127
                },
                {
                    "name": "E5",
                    "midi": 76,
                    "time": 163.05553925000126,
                    "velocity": 0.5905511811023622,
                    "duration": 0.2777777500000127
                },
                {
                    "name": "D5",
                    "midi": 74,
                    "time": 163.33331700000127,
                    "velocity": 0.5905511811023622,
                    "duration": 0.2777777500000127
                },
                {
                    "name": "C#5",
                    "midi": 73,
                    "time": 163.61109475000129,
                    "velocity": 0.5905511811023622,
                    "duration": 0.2777777500000127
                },
                {
                    "name": "C5",
                    "midi": 72,
                    "time": 163.8888725000013,
                    "velocity": 0.5905511811023622,
                    "duration": 0.2777777500000127
                },
                {
                    "name": "G#4",
                    "midi": 68,
                    "time": 164.1666502500013,
                    "velocity": 0.5905511811023622,
                    "duration": 0.2777777500000127
                },
                {
                    "name": "F#4",
                    "midi": 66,
                    "time": 164.44442800000132,
                    "velocity": 0.5905511811023622,
                    "duration": 0.2777777500000127
                },
                {
                    "name": "F4",
                    "midi": 65,
                    "time": 164.72220575000134,
                    "velocity": 0.5905511811023622,
                    "duration": 0.2777777500000127
                },
                {
                    "name": "E4",
                    "midi": 64,
                    "time": 164.99998350000135,
                    "velocity": 0.5905511811023622,
                    "duration": 0.2777777500000127
                },
                {
                    "name": "C4",
                    "midi": 60,
                    "time": 165.27776125000136,
                    "velocity": 0.5905511811023622,
                    "duration": 0.2777777500000127
                },
                {
                    "name": "A#3",
                    "midi": 58,
                    "time": 165.55553900000137,
                    "velocity": 0.5905511811023622,
                    "duration": 0.2777777500000127
                },
                {
                    "name": "B3",
                    "midi": 59,
                    "time": 165.8333167500014,
                    "velocity": 0.5905511811023622,
                    "duration": 0.2777777500000127
                },
                {
                    "name": "C4",
                    "midi": 60,
                    "time": 166.1110945000014,
                    "velocity": 0.5905511811023622,
                    "duration": 0.2777777500000127
                },
                {
                    "name": "E4",
                    "midi": 64,
                    "time": 166.3888722500014,
                    "velocity": 0.5905511811023622,
                    "duration": 0.2777777500000127
                },
                {
                    "name": "F#4",
                    "midi": 66,
                    "time": 166.66665000000143,
                    "velocity": 0.4881889763779528,
                    "duration": 0.2777777500000127
                },
                {
                    "name": "G4",
                    "midi": 67,
                    "time": 166.94442775000144,
                    "velocity": 0.4881889763779528,
                    "duration": 0.2777777500000127
                },
                {
                    "name": "G#4",
                    "midi": 68,
                    "time": 167.22220550000145,
                    "velocity": 0.4881889763779528,
                    "duration": 0.2777777500000127
                },
                {
                    "name": "C5",
                    "midi": 72,
                    "time": 167.49998325000146,
                    "velocity": 0.4881889763779528,
                    "duration": 0.2777777500000127
                },
                {
                    "name": "D5",
                    "midi": 74,
                    "time": 167.77776100000148,
                    "velocity": 0.4881889763779528,
                    "duration": 0.2777777500000127
                },
                {
                    "name": "D#5",
                    "midi": 75,
                    "time": 168.0555387500015,
                    "velocity": 0.4881889763779528,
                    "duration": 0.2777777500000127
                },
                {
                    "name": "E5",
                    "midi": 76,
                    "time": 168.3333165000015,
                    "velocity": 0.4881889763779528,
                    "duration": 0.2777777500000127
                },
                {
                    "name": "G#5",
                    "midi": 80,
                    "time": 168.6110942500015,
                    "velocity": 0.4881889763779528,
                    "duration": 0.2777777500000127
                },
                {
                    "name": "A#5",
                    "midi": 82,
                    "time": 168.88887200000153,
                    "velocity": 0.4881889763779528,
                    "duration": 0.2777777500000127
                },
                {
                    "name": "A5",
                    "midi": 81,
                    "time": 169.16664975000154,
                    "velocity": 0.4881889763779528,
                    "duration": 0.2777777500000127
                },
                {
                    "name": "G#5",
                    "midi": 80,
                    "time": 169.44442750000155,
                    "velocity": 0.4881889763779528,
                    "duration": 0.2777777500000127
                },
                {
                    "name": "E5",
                    "midi": 76,
                    "time": 169.72220525000156,
                    "velocity": 0.4881889763779528,
                    "duration": 0.2777777500000127
                },
                {
                    "name": "A#5",
                    "midi": 82,
                    "time": 169.99998300000158,
                    "velocity": 0.4881889763779528,
                    "duration": 0.2777777500000127
                },
                {
                    "name": "A5",
                    "midi": 81,
                    "time": 170.2777607500016,
                    "velocity": 0.4881889763779528,
                    "duration": 0.2777777500000127
                },
                {
                    "name": "G#5",
                    "midi": 80,
                    "time": 170.5555385000016,
                    "velocity": 0.4881889763779528,
                    "duration": 0.2777777500000127
                },
                {
                    "name": "E5",
                    "midi": 76,
                    "time": 170.83331625000162,
                    "velocity": 0.4881889763779528,
                    "duration": 0.2777777500000127
                },
                {
                    "name": "B5",
                    "midi": 83,
                    "time": 171.11109400000163,
                    "velocity": 0.4881889763779528,
                    "duration": 0.2777777500000127
                },
                {
                    "name": "A#5",
                    "midi": 82,
                    "time": 171.38887175000164,
                    "velocity": 0.4881889763779528,
                    "duration": 0.2777777500000127
                },
                {
                    "name": "G#5",
                    "midi": 80,
                    "time": 171.66664950000165,
                    "velocity": 0.4881889763779528,
                    "duration": 0.2777777500000127
                },
                {
                    "name": "E5",
                    "midi": 76,
                    "time": 171.94442725000167,
                    "velocity": 0.4881889763779528,
                    "duration": 0.2777777500000127
                },
                {
                    "name": "B5",
                    "midi": 83,
                    "time": 172.22220500000168,
                    "velocity": 0.4881889763779528,
                    "duration": 0.2777777500000127
                },
                {
                    "name": "A#5",
                    "midi": 82,
                    "time": 172.4999827500017,
                    "velocity": 0.4881889763779528,
                    "duration": 0.2777777500000127
                },
                {
                    "name": "G#5",
                    "midi": 80,
                    "time": 172.7777605000017,
                    "velocity": 0.4881889763779528,
                    "duration": 0.2777777500000127
                },
                {
                    "name": "E5",
                    "midi": 76,
                    "time": 173.05553825000172,
                    "velocity": 0.4881889763779528,
                    "duration": 0.2777777500000127
                },
                {
                    "name": "C6",
                    "midi": 84,
                    "time": 173.33331600000173,
                    "velocity": 0.4881889763779528,
                    "duration": 0.2777777500000127
                },
                {
                    "name": "A#5",
                    "midi": 82,
                    "time": 173.61109375000174,
                    "velocity": 0.4881889763779528,
                    "duration": 0.2777777500000127
                },
                {
                    "name": "G#5",
                    "midi": 80,
                    "time": 173.88887150000176,
                    "velocity": 0.4881889763779528,
                    "duration": 0.2777777500000127
                },
                {
                    "name": "E5",
                    "midi": 76,
                    "time": 174.16664925000177,
                    "velocity": 0.4881889763779528,
                    "duration": 0.2777777500000127
                },
                {
                    "name": "C6",
                    "midi": 84,
                    "time": 174.44442700000178,
                    "velocity": 0.4881889763779528,
                    "duration": 0.2777777500000127
                },
                {
                    "name": "A#5",
                    "midi": 82,
                    "time": 174.7222047500018,
                    "velocity": 0.4881889763779528,
                    "duration": 0.2777777500000127
                },
                {
                    "name": "G#5",
                    "midi": 80,
                    "time": 174.9999825000018,
                    "velocity": 0.4881889763779528,
                    "duration": 0.2777777500000127
                },
                {
                    "name": "E5",
                    "midi": 76,
                    "time": 175.27776025000182,
                    "velocity": 0.4881889763779528,
                    "duration": 0.2777777500000127
                },
                {
                    "name": "C#6",
                    "midi": 85,
                    "time": 175.55553800000183,
                    "velocity": 0.4881889763779528,
                    "duration": 0.2777777500000127
                },
                {
                    "name": "C6",
                    "midi": 84,
                    "time": 175.83331575000184,
                    "velocity": 0.4881889763779528,
                    "duration": 0.2777777500000127
                },
                {
                    "name": "B5",
                    "midi": 83,
                    "time": 176.11109350000186,
                    "velocity": 0.4881889763779528,
                    "duration": 0.2777777500000127
                },
                {
                    "name": "G5",
                    "midi": 79,
                    "time": 176.38887125000187,
                    "velocity": 0.4881889763779528,
                    "duration": 0.2777777500000127
                },
                {
                    "name": "C#6",
                    "midi": 85,
                    "time": 176.66664900000188,
                    "velocity": 0.4881889763779528,
                    "duration": 0.2777777500000127
                },
                {
                    "name": "C6",
                    "midi": 84,
                    "time": 176.9444267500019,
                    "velocity": 0.4881889763779528,
                    "duration": 0.2777777500000127
                },
                {
                    "name": "B5",
                    "midi": 83,
                    "time": 177.2222045000019,
                    "velocity": 0.4881889763779528,
                    "duration": 0.2777777500000127
                },
                {
                    "name": "G5",
                    "midi": 79,
                    "time": 177.49998225000192,
                    "velocity": 0.4881889763779528,
                    "duration": 0.2777777500000127
                },
                {
                    "name": "D6",
                    "midi": 86,
                    "time": 177.77776000000193,
                    "velocity": 0.4881889763779528,
                    "duration": 0.2777777500000127
                },
                {
                    "name": "C#6",
                    "midi": 85,
                    "time": 178.05553775000195,
                    "velocity": 0.4881889763779528,
                    "duration": 0.2777777500000127
                },
                {
                    "name": "B5",
                    "midi": 83,
                    "time": 178.33331550000196,
                    "velocity": 0.4881889763779528,
                    "duration": 0.2777777500000127
                },
                {
                    "name": "G5",
                    "midi": 79,
                    "time": 178.61109325000197,
                    "velocity": 0.4881889763779528,
                    "duration": 0.2777777500000127
                },
                {
                    "name": "D6",
                    "midi": 86,
                    "time": 178.88887100000198,
                    "velocity": 0.4881889763779528,
                    "duration": 0.2777777500000127
                },
                {
                    "name": "C#6",
                    "midi": 85,
                    "time": 179.166648750002,
                    "velocity": 0.4881889763779528,
                    "duration": 0.2777777500000127
                },
                {
                    "name": "B5",
                    "midi": 83,
                    "time": 179.444426500002,
                    "velocity": 0.4881889763779528,
                    "duration": 0.2777777500000127
                },
                {
                    "name": "G5",
                    "midi": 79,
                    "time": 179.72220425000202,
                    "velocity": 0.4881889763779528,
                    "duration": 0.2777777500000127
                },
                {
                    "name": "D#6",
                    "midi": 87,
                    "time": 179.99998200000203,
                    "velocity": 0.4881889763779528,
                    "duration": 0.2777777500000127
                },
                {
                    "name": "C#6",
                    "midi": 85,
                    "time": 180.27775975000205,
                    "velocity": 0.4881889763779528,
                    "duration": 0.2777777500000127
                },
                {
                    "name": "B5",
                    "midi": 83,
                    "time": 180.55553750000206,
                    "velocity": 0.4881889763779528,
                    "duration": 0.2777777500000127
                },
                {
                    "name": "G5",
                    "midi": 79,
                    "time": 180.83331525000207,
                    "velocity": 0.4881889763779528,
                    "duration": 0.2777777500000127
                },
                {
                    "name": "D#6",
                    "midi": 87,
                    "time": 181.11109300000209,
                    "velocity": 0.4881889763779528,
                    "duration": 0.2777777500000127
                },
                {
                    "name": "C#6",
                    "midi": 85,
                    "time": 181.3888707500021,
                    "velocity": 0.4881889763779528,
                    "duration": 0.2777777500000127
                },
                {
                    "name": "B5",
                    "midi": 83,
                    "time": 181.6666485000021,
                    "velocity": 0.4881889763779528,
                    "duration": 0.2777777500000127
                },
                {
                    "name": "G5",
                    "midi": 79,
                    "time": 181.94442625000212,
                    "velocity": 0.4881889763779528,
                    "duration": 0.2777777500000127
                },
                {
                    "name": "E6",
                    "midi": 88,
                    "time": 182.22220400000214,
                    "velocity": 0.4881889763779528,
                    "duration": 0.2777777500000127
                },
                {
                    "name": "D#6",
                    "midi": 87,
                    "time": 182.49998175000215,
                    "velocity": 0.4881889763779528,
                    "duration": 0.2777777500000127
                },
                {
                    "name": "D6",
                    "midi": 86,
                    "time": 182.77775950000216,
                    "velocity": 0.4881889763779528,
                    "duration": 0.2777777500000127
                },
                {
                    "name": "A#5",
                    "midi": 82,
                    "time": 183.05553725000217,
                    "velocity": 0.4881889763779528,
                    "duration": 0.2777777500000127
                },
                {
                    "name": "E6",
                    "midi": 88,
                    "time": 183.3333150000022,
                    "velocity": 0.4881889763779528,
                    "duration": 0.2777777500000127
                },
                {
                    "name": "D#6",
                    "midi": 87,
                    "time": 183.6110927500022,
                    "velocity": 0.4881889763779528,
                    "duration": 0.2777777500000127
                },
                {
                    "name": "D6",
                    "midi": 86,
                    "time": 183.8888705000022,
                    "velocity": 0.4881889763779528,
                    "duration": 0.2777777500000127
                },
                {
                    "name": "A#5",
                    "midi": 82,
                    "time": 184.16664825000223,
                    "velocity": 0.4881889763779528,
                    "duration": 0.2777777500000127
                },
                {
                    "name": "F6",
                    "midi": 89,
                    "time": 184.44442600000224,
                    "velocity": 0.4881889763779528,
                    "duration": 0.2777777500000127
                },
                {
                    "name": "E6",
                    "midi": 88,
                    "time": 184.72220375000225,
                    "velocity": 0.4881889763779528,
                    "duration": 0.2777777500000127
                },
                {
                    "name": "D6",
                    "midi": 86,
                    "time": 184.99998150000226,
                    "velocity": 0.4881889763779528,
                    "duration": 0.2777777500000127
                },
                {
                    "name": "A#5",
                    "midi": 82,
                    "time": 185.27775925000228,
                    "velocity": 0.4881889763779528,
                    "duration": 0.2777777500000127
                },
                {
                    "name": "F6",
                    "midi": 89,
                    "time": 185.5555370000023,
                    "velocity": 0.4881889763779528,
                    "duration": 0.2777777500000127
                },
                {
                    "name": "E6",
                    "midi": 88,
                    "time": 185.8333147500023,
                    "velocity": 0.4881889763779528,
                    "duration": 0.2777777500000127
                },
                {
                    "name": "D6",
                    "midi": 86,
                    "time": 186.11109250000231,
                    "velocity": 0.4881889763779528,
                    "duration": 0.2777777500000127
                },
                {
                    "name": "A#5",
                    "midi": 82,
                    "time": 186.38887025000233,
                    "velocity": 0.4881889763779528,
                    "duration": 0.2777777500000127
                },
                {
                    "name": "F#6",
                    "midi": 90,
                    "time": 186.66664800000234,
                    "velocity": 0.4881889763779528,
                    "duration": 0.2777777500000127
                },
                {
                    "name": "E6",
                    "midi": 88,
                    "time": 186.94442575000235,
                    "velocity": 0.4881889763779528,
                    "duration": 0.2777777500000127
                },
                {
                    "name": "D6",
                    "midi": 86,
                    "time": 187.22220350000237,
                    "velocity": 0.4881889763779528,
                    "duration": 0.2777777500000127
                },
                {
                    "name": "A#5",
                    "midi": 82,
                    "time": 187.49998125000238,
                    "velocity": 0.4881889763779528,
                    "duration": 0.2777777500000127
                },
                {
                    "name": "F#6",
                    "midi": 90,
                    "time": 187.7777590000024,
                    "velocity": 0.4881889763779528,
                    "duration": 0.2777777500000127
                },
                {
                    "name": "E6",
                    "midi": 88,
                    "time": 188.0555367500024,
                    "velocity": 0.4881889763779528,
                    "duration": 0.2777777500000127
                },
                {
                    "name": "D6",
                    "midi": 86,
                    "time": 188.33331450000242,
                    "velocity": 0.4881889763779528,
                    "duration": 0.2777777500000127
                },
                {
                    "name": "A#5",
                    "midi": 82,
                    "time": 188.61109225000243,
                    "velocity": 0.4881889763779528,
                    "duration": 0.2777777500000127
                },
                {
                    "name": "G6",
                    "midi": 91,
                    "time": 188.88887000000244,
                    "velocity": 0.4881889763779528,
                    "duration": 0.2777777500000127
                },
                {
                    "name": "E6",
                    "midi": 88,
                    "time": 189.16664775000245,
                    "velocity": 0.4881889763779528,
                    "duration": 0.2777777500000127
                },
                {
                    "name": "D6",
                    "midi": 86,
                    "time": 189.44442550000247,
                    "velocity": 0.4881889763779528,
                    "duration": 0.2777777500000127
                },
                {
                    "name": "A#5",
                    "midi": 82,
                    "time": 189.72220325000248,
                    "velocity": 0.4881889763779528,
                    "duration": 0.2777777500000127
                },
                {
                    "name": "G6",
                    "midi": 91,
                    "time": 189.9999810000025,
                    "velocity": 0.4881889763779528,
                    "duration": 0.2777777500000127
                },
                {
                    "name": "E6",
                    "midi": 88,
                    "time": 190.2777587500025,
                    "velocity": 0.4881889763779528,
                    "duration": 0.2777777500000127
                },
                {
                    "name": "D6",
                    "midi": 86,
                    "time": 190.55553650000252,
                    "velocity": 0.4881889763779528,
                    "duration": 0.2777777500000127
                },
                {
                    "name": "A#5",
                    "midi": 82,
                    "time": 190.83331425000253,
                    "velocity": 0.4881889763779528,
                    "duration": 0.2777777500000127
                },
                {
                    "name": "G#6",
                    "midi": 92,
                    "time": 191.11109200000254,
                    "velocity": 0.4881889763779528,
                    "duration": 0.2777777500000127
                },
                {
                    "name": "E6",
                    "midi": 88,
                    "time": 191.38886975000256,
                    "velocity": 0.4881889763779528,
                    "duration": 0.2777777500000127
                },
                {
                    "name": "D6",
                    "midi": 86,
                    "time": 191.66664750000257,
                    "velocity": 0.4881889763779528,
                    "duration": 0.2777777500000127
                },
                {
                    "name": "A#5",
                    "midi": 82,
                    "time": 191.94442525000258,
                    "velocity": 0.4881889763779528,
                    "duration": 0.2777777500000127
                },
                {
                    "name": "G#6",
                    "midi": 92,
                    "time": 192.2222030000026,
                    "velocity": 0.4881889763779528,
                    "duration": 0.2777777500000127
                },
                {
                    "name": "E6",
                    "midi": 88,
                    "time": 192.4999807500026,
                    "velocity": 0.4881889763779528,
                    "duration": 0.2777777500000127
                },
                {
                    "name": "D6",
                    "midi": 86,
                    "time": 192.77775850000262,
                    "velocity": 0.4881889763779528,
                    "duration": 0.2777777500000127
                },
                {
                    "name": "A#5",
                    "midi": 82,
                    "time": 193.05553625000263,
                    "velocity": 0.4881889763779528,
                    "duration": 0.2777777500000127
                },
                {
                    "name": "A6",
                    "midi": 93,
                    "time": 193.33331400000264,
                    "velocity": 0.4881889763779528,
                    "duration": 0.2777777500000127
                },
                {
                    "name": "E6",
                    "midi": 88,
                    "time": 193.61109175000266,
                    "velocity": 0.4881889763779528,
                    "duration": 0.2777777500000127
                },
                {
                    "name": "D6",
                    "midi": 86,
                    "time": 193.88886950000267,
                    "velocity": 0.4881889763779528,
                    "duration": 0.2777777500000127
                },
                {
                    "name": "A#5",
                    "midi": 82,
                    "time": 194.16664725000268,
                    "velocity": 0.4881889763779528,
                    "duration": 0.2777777500000127
                },
                {
                    "name": "A6",
                    "midi": 93,
                    "time": 194.4444250000027,
                    "velocity": 0.4881889763779528,
                    "duration": 0.2777777500000127
                },
                {
                    "name": "E6",
                    "midi": 88,
                    "time": 194.7222027500027,
                    "velocity": 0.4881889763779528,
                    "duration": 0.2777777500000127
                },
                {
                    "name": "D6",
                    "midi": 86,
                    "time": 194.99998050000272,
                    "velocity": 0.4881889763779528,
                    "duration": 0.2777777500000127
                },
                {
                    "name": "A#5",
                    "midi": 82,
                    "time": 195.27775825000273,
                    "velocity": 0.4881889763779528,
                    "duration": 0.2777777500000127
                },
                {
                    "name": "G#6",
                    "midi": 92,
                    "time": 195.55553600000275,
                    "velocity": 0.3858267716535433,
                    "duration": 0.2777777500000127
                },
                {
                    "name": "G6",
                    "midi": 91,
                    "time": 195.83331375000276,
                    "velocity": 0.3858267716535433,
                    "duration": 0.2777777500000127
                },
                {
                    "name": "F#6",
                    "midi": 90,
                    "time": 196.11109150000277,
                    "velocity": 0.3858267716535433,
                    "duration": 0.2777777500000127
                },
                {
                    "name": "D6",
                    "midi": 86,
                    "time": 196.38886925000278,
                    "velocity": 0.3858267716535433,
                    "duration": 0.2777777500000127
                },
                {
                    "name": "A#5",
                    "midi": 82,
                    "time": 196.6666470000028,
                    "velocity": 0.3858267716535433,
                    "duration": 0.2777777500000127
                },
                {
                    "name": "A5",
                    "midi": 81,
                    "time": 196.9444247500028,
                    "velocity": 0.3858267716535433,
                    "duration": 0.2777777500000127
                },
                {
                    "name": "G#5",
                    "midi": 80,
                    "time": 197.22220250000282,
                    "velocity": 0.3858267716535433,
                    "duration": 0.2777777500000127
                },
                {
                    "name": "E5",
                    "midi": 76,
                    "time": 197.49998025000284,
                    "velocity": 0.3858267716535433,
                    "duration": 0.2777777500000127
                },
                {
                    "name": "G#6",
                    "midi": 92,
                    "time": 197.77775800000285,
                    "velocity": 0.3858267716535433,
                    "duration": 0.2777777500000127
                },
                {
                    "name": "G6",
                    "midi": 91,
                    "time": 198.05553575000286,
                    "velocity": 0.3858267716535433,
                    "duration": 0.2777777500000127
                },
                {
                    "name": "F#6",
                    "midi": 90,
                    "time": 198.33331350000287,
                    "velocity": 0.3858267716535433,
                    "duration": 0.2777777500000127
                },
                {
                    "name": "D6",
                    "midi": 86,
                    "time": 198.6110912500029,
                    "velocity": 0.3858267716535433,
                    "duration": 0.2777777500000127
                },
                {
                    "name": "A#5",
                    "midi": 82,
                    "time": 198.8888690000029,
                    "velocity": 0.3858267716535433,
                    "duration": 0.2777777500000127
                },
                {
                    "name": "A5",
                    "midi": 81,
                    "time": 199.1666467500029,
                    "velocity": 0.3858267716535433,
                    "duration": 0.2777777500000127
                },
                {
                    "name": "G#5",
                    "midi": 80,
                    "time": 199.44442450000292,
                    "velocity": 0.3858267716535433,
                    "duration": 0.2777777500000127
                },
                {
                    "name": "E5",
                    "midi": 76,
                    "time": 199.72220225000294,
                    "velocity": 0.3858267716535433,
                    "duration": 0.2777777500000127
                },
                {
                    "name": "C5",
                    "midi": 72,
                    "time": 199.99998000000295,
                    "velocity": 0.5905511811023622,
                    "duration": 0.2777777500000127
                },
                {
                    "name": "D#5",
                    "midi": 75,
                    "time": 200.27775775000296,
                    "velocity": 0.5905511811023622,
                    "duration": 0.2777777500000127
                },
                {
                    "name": "E5",
                    "midi": 76,
                    "time": 200.55553550000297,
                    "velocity": 0.5905511811023622,
                    "duration": 0.2777777500000127
                },
                {
                    "name": "F#5",
                    "midi": 78,
                    "time": 200.833313250003,
                    "velocity": 0.5905511811023622,
                    "duration": 0.2777777500000127
                },
                {
                    "name": "G5",
                    "midi": 79,
                    "time": 201.111091000003,
                    "velocity": 0.5905511811023622,
                    "duration": 0.2777777500000127
                },
                {
                    "name": "C6",
                    "midi": 84,
                    "time": 201.388868750003,
                    "velocity": 0.5905511811023622,
                    "duration": 0.2777777500000127
                },
                {
                    "name": "E6",
                    "midi": 88,
                    "time": 201.66664650000303,
                    "velocity": 0.5905511811023622,
                    "duration": 0.2777777500000127
                },
                {
                    "name": "G6",
                    "midi": 91,
                    "time": 201.94442425000304,
                    "velocity": 0.5905511811023622,
                    "duration": 0.2777777500000127
                },
                {
                    "name": "G#6",
                    "midi": 92,
                    "time": 202.22220200000305,
                    "velocity": 0.3858267716535433,
                    "duration": 0.2777777500000127
                },
                {
                    "name": "G6",
                    "midi": 91,
                    "time": 202.49997975000306,
                    "velocity": 0.3858267716535433,
                    "duration": 0.2777777500000127
                },
                {
                    "name": "F#6",
                    "midi": 90,
                    "time": 202.77775750000308,
                    "velocity": 0.3858267716535433,
                    "duration": 0.2777777500000127
                },
                {
                    "name": "D6",
                    "midi": 86,
                    "time": 203.0555352500031,
                    "velocity": 0.3858267716535433,
                    "duration": 0.2777777500000127
                },
                {
                    "name": "A#5",
                    "midi": 82,
                    "time": 203.3333130000031,
                    "velocity": 0.3858267716535433,
                    "duration": 0.2777777500000127
                },
                {
                    "name": "A5",
                    "midi": 81,
                    "time": 203.61109075000311,
                    "velocity": 0.3858267716535433,
                    "duration": 0.2777777500000127
                },
                {
                    "name": "G#5",
                    "midi": 80,
                    "time": 203.88886850000313,
                    "velocity": 0.3858267716535433,
                    "duration": 0.2777777500000127
                },
                {
                    "name": "E5",
                    "midi": 76,
                    "time": 204.16664625000314,
                    "velocity": 0.3858267716535433,
                    "duration": 0.2777777500000127
                },
                {
                    "name": "C5",
                    "midi": 72,
                    "time": 204.44442400000315,
                    "velocity": 0.5905511811023622,
                    "duration": 0.2777777500000127
                },
                {
                    "name": "D#5",
                    "midi": 75,
                    "time": 204.72220175000317,
                    "velocity": 0.5905511811023622,
                    "duration": 0.2777777500000127
                },
                {
                    "name": "E5",
                    "midi": 76,
                    "time": 204.99997950000318,
                    "velocity": 0.5905511811023622,
                    "duration": 0.2777777500000127
                },
                {
                    "name": "F#5",
                    "midi": 78,
                    "time": 205.2777572500032,
                    "velocity": 0.5905511811023622,
                    "duration": 0.2777777500000127
                },
                {
                    "name": "G5",
                    "midi": 79,
                    "time": 205.5555350000032,
                    "velocity": 0.5905511811023622,
                    "duration": 0.2777777500000127
                },
                {
                    "name": "C6",
                    "midi": 84,
                    "time": 205.83331275000322,
                    "velocity": 0.5905511811023622,
                    "duration": 0.2777777500000127
                },
                {
                    "name": "E6",
                    "midi": 88,
                    "time": 206.11109050000323,
                    "velocity": 0.5905511811023622,
                    "duration": 0.2777777500000127
                },
                {
                    "name": "G6",
                    "midi": 91,
                    "time": 206.38886825000324,
                    "velocity": 0.5905511811023622,
                    "duration": 0.2777777500000127
                },
                {
                    "name": "G#6",
                    "midi": 92,
                    "time": 206.66664600000325,
                    "velocity": 0.3858267716535433,
                    "duration": 0.2777777500000127
                },
                {
                    "name": "G6",
                    "midi": 91,
                    "time": 206.94442375000327,
                    "velocity": 0.3858267716535433,
                    "duration": 0.2777777500000127
                },
                {
                    "name": "F#6",
                    "midi": 90,
                    "time": 207.22220150000328,
                    "velocity": 0.3858267716535433,
                    "duration": 0.2777777500000127
                },
                {
                    "name": "D6",
                    "midi": 86,
                    "time": 207.4999792500033,
                    "velocity": 0.3858267716535433,
                    "duration": 0.2777777500000127
                },
                {
                    "name": "A#5",
                    "midi": 82,
                    "time": 207.7777570000033,
                    "velocity": 0.3858267716535433,
                    "duration": 0.2777777500000127
                },
                {
                    "name": "A5",
                    "midi": 81,
                    "time": 208.05553475000332,
                    "velocity": 0.3858267716535433,
                    "duration": 0.2777777500000127
                },
                {
                    "name": "G#5",
                    "midi": 80,
                    "time": 208.33331250000333,
                    "velocity": 0.3858267716535433,
                    "duration": 0.2777777500000127
                },
                {
                    "name": "E5",
                    "midi": 76,
                    "time": 208.61109025000334,
                    "velocity": 0.3858267716535433,
                    "duration": 0.2777777500000127
                },
                {
                    "name": "C5",
                    "midi": 72,
                    "time": 208.88886800000336,
                    "velocity": 0.3858267716535433,
                    "duration": 0.3171295979166757
                },
                {
                    "name": "C#5",
                    "midi": 73,
                    "time": 209.20599759792003,
                    "velocity": 0.3858267716535433,
                    "duration": 0.3171295979166757
                },
                {
                    "name": "D5",
                    "midi": 74,
                    "time": 209.5231271958367,
                    "velocity": 0.3858267716535433,
                    "duration": 0.3171295979166757
                },
                {
                    "name": "F#5",
                    "midi": 78,
                    "time": 209.84025679375338,
                    "velocity": 0.3858267716535433,
                    "duration": 0.3171295979166757
                },
                {
                    "name": "G#5",
                    "midi": 80,
                    "time": 210.15738639167006,
                    "velocity": 0.3858267716535433,
                    "duration": 0.3171295979166757
                },
                {
                    "name": "A5",
                    "midi": 81,
                    "time": 210.47451598958673,
                    "velocity": 0.3858267716535433,
                    "duration": 0.3171295979166757
                },
                {
                    "name": "A#5",
                    "midi": 82,
                    "time": 210.7916455875034,
                    "velocity": 0.3858267716535433,
                    "duration": 0.31944441249999045
                },
                {
                    "name": "D6",
                    "midi": 86,
                    "time": 211.1110900000034,
                    "velocity": 0.4881889763779528,
                    "duration": 2.222221999999988
                },
                {
                    "name": "D6",
                    "midi": 86,
                    "time": 224.44442200000339,
                    "velocity": 0.4881889763779528,
                    "duration": 2.222221999999988
                },
                {
                    "name": "B5",
                    "midi": 83,
                    "time": 233.33331000000337,
                    "velocity": 0.5905511811023622,
                    "duration": 0.2777777500000127
                },
                {
                    "name": "C6",
                    "midi": 84,
                    "time": 233.61108775000338,
                    "velocity": 0.5905511811023622,
                    "duration": 0.2777777500000127
                },
                {
                    "name": "C#6",
                    "midi": 85,
                    "time": 233.8888655000034,
                    "velocity": 0.4881889763779528,
                    "duration": 0.2777777500000127
                },
                {
                    "name": "F6",
                    "midi": 89,
                    "time": 234.1666432500034,
                    "velocity": 0.4881889763779528,
                    "duration": 0.2777777500000127
                },
                {
                    "name": "F5",
                    "midi": 77,
                    "time": 234.44442100000342,
                    "velocity": 0.5905511811023622,
                    "duration": 0.2777777500000127
                },
                {
                    "name": "F#5",
                    "midi": 78,
                    "time": 234.72219875000343,
                    "velocity": 0.5905511811023622,
                    "duration": 0.2777777500000127
                },
                {
                    "name": "G5",
                    "midi": 79,
                    "time": 234.99997650000344,
                    "velocity": 0.4881889763779528,
                    "duration": 0.2777777500000127
                },
                {
                    "name": "B5",
                    "midi": 83,
                    "time": 235.27775425000345,
                    "velocity": 0.4881889763779528,
                    "duration": 0.2777777500000127
                },
                {
                    "name": "B4",
                    "midi": 71,
                    "time": 235.55553200000347,
                    "velocity": 0.4881889763779528,
                    "duration": 0.2777777500000127
                },
                {
                    "name": "C5",
                    "midi": 72,
                    "time": 235.83330975000348,
                    "velocity": 0.4881889763779528,
                    "duration": 0.2777777500000127
                },
                {
                    "name": "C#5",
                    "midi": 73,
                    "time": 236.1110875000035,
                    "velocity": 0.4881889763779528,
                    "duration": 0.2777777500000127
                },
                {
                    "name": "F5",
                    "midi": 77,
                    "time": 236.3888652500035,
                    "velocity": 0.4881889763779528,
                    "duration": 0.2777777500000127
                },
                {
                    "name": "F4",
                    "midi": 65,
                    "time": 236.66664300000352,
                    "velocity": 0.4881889763779528,
                    "duration": 0.2777777500000127
                },
                {
                    "name": "F#4",
                    "midi": 66,
                    "time": 236.94442075000353,
                    "velocity": 0.4881889763779528,
                    "duration": 0.2777777500000127
                },
                {
                    "name": "G4",
                    "midi": 67,
                    "time": 237.22219850000354,
                    "velocity": 0.4881889763779528,
                    "duration": 0.2777777500000127
                },
                {
                    "name": "B4",
                    "midi": 71,
                    "time": 237.49997625000356,
                    "velocity": 0.4881889763779528,
                    "duration": 0.2777777500000127
                },
                {
                    "name": "F#4",
                    "midi": 66,
                    "time": 237.77775400000357,
                    "velocity": 0.4881889763779528,
                    "duration": 2.222221999999988
                },
                {
                    "name": "B4",
                    "midi": 71,
                    "time": 239.99997600000356,
                    "velocity": 0.4881889763779528,
                    "duration": 2.222221999999988
                },
                {
                    "name": "A4",
                    "midi": 69,
                    "time": 242.22219800000354,
                    "velocity": 0.4881889763779528,
                    "duration": 2.222221999999988
                },
                {
                    "name": "G#4",
                    "midi": 68,
                    "time": 244.44442000000353,
                    "velocity": 0.4881889763779528,
                    "duration": 1.111110999999994
                },
                {
                    "name": "A4",
                    "midi": 69,
                    "time": 245.55553100000353,
                    "velocity": 0.4881889763779528,
                    "duration": 0.555555499999997
                },
                {
                    "name": "G#4",
                    "midi": 68,
                    "time": 246.11108650000352,
                    "velocity": 0.4881889763779528,
                    "duration": 0.555555499999997
                },
                {
                    "name": "F#4",
                    "midi": 66,
                    "time": 246.66664200000352,
                    "velocity": 0.4881889763779528,
                    "duration": 4.444444000000004
                },
                {
                    "name": "B4",
                    "midi": 71,
                    "time": 251.11108600000352,
                    "velocity": 0.4881889763779528,
                    "duration": 1.111110999999994
                },
                {
                    "name": "C#5",
                    "midi": 73,
                    "time": 252.22219700000352,
                    "velocity": 0.4881889763779528,
                    "duration": 1.111110999999994
                },
                {
                    "name": "D5",
                    "midi": 74,
                    "time": 253.3333080000035,
                    "velocity": 0.4881889763779528,
                    "duration": 1.111110999999994
                },
                {
                    "name": "B4",
                    "midi": 71,
                    "time": 254.4444190000035,
                    "velocity": 0.4881889763779528,
                    "duration": 1.111110999999994
                },
                {
                    "name": "A4",
                    "midi": 69,
                    "time": 255.5555300000035,
                    "velocity": 0.4881889763779528,
                    "duration": 2.222221999999988
                },
                {
                    "name": "G#4",
                    "midi": 68,
                    "time": 257.7777520000035,
                    "velocity": 0.4881889763779528,
                    "duration": 1.111110999999994
                },
                {
                    "name": "A4",
                    "midi": 69,
                    "time": 258.8888630000035,
                    "velocity": 0.4881889763779528,
                    "duration": 0.5555555000000254
                },
                {
                    "name": "G#4",
                    "midi": 68,
                    "time": 259.4444185000035,
                    "velocity": 0.4881889763779528,
                    "duration": 0.5555555000000254
                },
                {
                    "name": "D4",
                    "midi": 62,
                    "time": 259.99997400000353,
                    "velocity": 0.4881889763779528,
                    "duration": 2.222221999999988
                },
                {
                    "name": "F#4",
                    "midi": 66,
                    "time": 259.99997400000353,
                    "velocity": 0.4881889763779528,
                    "duration": 2.222221999999988
                },
                {
                    "name": "C#4",
                    "midi": 61,
                    "time": 265.5555290000035,
                    "velocity": 0.5905511811023622,
                    "duration": 0.2777777499999843
                },
                {
                    "name": "D4",
                    "midi": 62,
                    "time": 265.8333067500035,
                    "velocity": 0.5905511811023622,
                    "duration": 0.2777777499999843
                },
                {
                    "name": "D#4",
                    "midi": 63,
                    "time": 266.11108450000347,
                    "velocity": 0.5905511811023622,
                    "duration": 0.2777777499999843
                },
                {
                    "name": "G4",
                    "midi": 67,
                    "time": 266.38886225000346,
                    "velocity": 0.5905511811023622,
                    "duration": 0.2777777499999843
                },
                {
                    "name": "G#4",
                    "midi": 68,
                    "time": 266.66664000000344,
                    "velocity": 0.5905511811023622,
                    "duration": 0.2777777499999843
                },
                {
                    "name": "C5",
                    "midi": 72,
                    "time": 266.9444177500034,
                    "velocity": 0.5905511811023622,
                    "duration": 0.2777777499999843
                },
                {
                    "name": "C#5",
                    "midi": 73,
                    "time": 267.2221955000034,
                    "velocity": 0.5905511811023622,
                    "duration": 0.2777777499999843
                },
                {
                    "name": "D5",
                    "midi": 74,
                    "time": 267.4999732500034,
                    "velocity": 0.5905511811023622,
                    "duration": 0.2777777499999843
                },
                {
                    "name": "F#5",
                    "midi": 78,
                    "time": 267.7777510000034,
                    "velocity": 0.6929133858267716,
                    "duration": 0.2777777499999843
                },
                {
                    "name": "G5",
                    "midi": 79,
                    "time": 268.05552875000336,
                    "velocity": 0.6929133858267716,
                    "duration": 0.2777777499999843
                },
                {
                    "name": "G#5",
                    "midi": 80,
                    "time": 268.33330650000335,
                    "velocity": 0.6929133858267716,
                    "duration": 0.2777777499999843
                },
                {
                    "name": "C6",
                    "midi": 84,
                    "time": 268.61108425000333,
                    "velocity": 0.6929133858267716,
                    "duration": 0.2777777499999843
                },
                {
                    "name": "C6",
                    "midi": 84,
                    "time": 268.8888620000033,
                    "velocity": 0.4881889763779528,
                    "duration": 0.1851851666666562
                },
                {
                    "name": "D6",
                    "midi": 86,
                    "time": 269.07404716666997,
                    "velocity": 0.4881889763779528,
                    "duration": 0.18287035208334146
                },
                {
                    "name": "C6",
                    "midi": 84,
                    "time": 269.2569175187533,
                    "velocity": 0.4881889763779528,
                    "duration": 0.18749998125002776
                },
                {
                    "name": "D6",
                    "midi": 86,
                    "time": 269.44441750000334,
                    "velocity": 0.4881889763779528,
                    "duration": 0.1851851666666562
                },
                {
                    "name": "C6",
                    "midi": 84,
                    "time": 269.62960266667,
                    "velocity": 0.4881889763779528,
                    "duration": 0.18287035208334146
                },
                {
                    "name": "D6",
                    "midi": 86,
                    "time": 269.81247301875334,
                    "velocity": 0.4881889763779528,
                    "duration": 0.18749998125002776
                },
                {
                    "name": "C6",
                    "midi": 84,
                    "time": 269.99997300000337,
                    "velocity": 0.4881889763779528,
                    "duration": 0.1851851666666562
                },
                {
                    "name": "D6",
                    "midi": 86,
                    "time": 270.18515816667,
                    "velocity": 0.4881889763779528,
                    "duration": 0.18287035208334146
                },
                {
                    "name": "C6",
                    "midi": 84,
                    "time": 270.36802851875336,
                    "velocity": 0.4881889763779528,
                    "duration": 0.18749998125002776
                },
                {
                    "name": "D6",
                    "midi": 86,
                    "time": 270.5555285000034,
                    "velocity": 0.4881889763779528,
                    "duration": 0.1851851666666562
                },
                {
                    "name": "C6",
                    "midi": 84,
                    "time": 270.74071366667005,
                    "velocity": 0.4881889763779528,
                    "duration": 0.18287035208334146
                },
                {
                    "name": "D6",
                    "midi": 86,
                    "time": 270.9235840187534,
                    "velocity": 0.4881889763779528,
                    "duration": 0.18749998125002776
                },
                {
                    "name": "C6",
                    "midi": 84,
                    "time": 271.1110840000034,
                    "velocity": 0.4881889763779528,
                    "duration": 0.1851851666666562
                },
                {
                    "name": "D6",
                    "midi": 86,
                    "time": 271.2962691666701,
                    "velocity": 0.4881889763779528,
                    "duration": 0.18287035208334146
                },
                {
                    "name": "C6",
                    "midi": 84,
                    "time": 271.4791395187534,
                    "velocity": 0.4881889763779528,
                    "duration": 0.18749998125002776
                },
                {
                    "name": "C6",
                    "midi": 84,
                    "time": 271.66663950000344,
                    "velocity": 0.4881889763779528,
                    "duration": 0.1851851666666562
                },
                {
                    "name": "B5",
                    "midi": 83,
                    "time": 271.8518246666701,
                    "velocity": 0.4881889763779528,
                    "duration": 0.18287035208334146
                },
                {
                    "name": "A#5",
                    "midi": 82,
                    "time": 272.03469501875344,
                    "velocity": 0.4881889763779528,
                    "duration": 0.18749998125002776
                },
                {
                    "name": "C6",
                    "midi": 84,
                    "time": 272.22219500000347,
                    "velocity": 0.4881889763779528,
                    "duration": 2.7777775000000133
                },
                {
                    "name": "D6",
                    "midi": 86,
                    "time": 274.9999725000035,
                    "velocity": 0.4881889763779528,
                    "duration": 0.1851851666666562
                },
                {
                    "name": "C#6",
                    "midi": 85,
                    "time": 275.18515766667014,
                    "velocity": 0.4881889763779528,
                    "duration": 0.18287035208334146
                },
                {
                    "name": "C6",
                    "midi": 84,
                    "time": 275.3680280187535,
                    "velocity": 0.4881889763779528,
                    "duration": 0.18749998125002776
                },
                {
                    "name": "G#5",
                    "midi": 80,
                    "time": 275.5555280000035,
                    "velocity": 0.4881889763779528,
                    "duration": 0.5555555000000254
                },
                {
                    "name": "G#5",
                    "midi": 80,
                    "time": 276.11108350000353,
                    "velocity": 0.4881889763779528,
                    "duration": 0.09027776875001337
                },
                {
                    "name": "G5",
                    "midi": 79,
                    "time": 276.20136126875354,
                    "velocity": 0.4881889763779528,
                    "duration": 0.09490739791664282
                },
                {
                    "name": "F#5",
                    "midi": 78,
                    "time": 276.2962686666702,
                    "velocity": 0.4881889763779528,
                    "duration": 0.0925925833333281
                },
                {
                    "name": "D5",
                    "midi": 74,
                    "time": 276.3888612500035,
                    "velocity": 0.4881889763779528,
                    "duration": 0.5555555000000254
                },
                {
                    "name": "C5",
                    "midi": 72,
                    "time": 281.11108300000353,
                    "velocity": 0.7952755905511811,
                    "duration": 0.22222219999997606
                },
                {
                    "name": "C#5",
                    "midi": 73,
                    "time": 281.3333052000035,
                    "velocity": 0.7952755905511811,
                    "duration": 0.22222219999997606
                },
                {
                    "name": "D5",
                    "midi": 74,
                    "time": 281.5555274000035,
                    "velocity": 0.6929133858267716,
                    "duration": 0.21990738541666133
                },
                {
                    "name": "D#5",
                    "midi": 75,
                    "time": 281.77543478542015,
                    "velocity": 0.6929133858267716,
                    "duration": 0.22222219999997606
                },
                {
                    "name": "E5",
                    "midi": 76,
                    "time": 281.9976569854201,
                    "velocity": 0.5905511811023622,
                    "duration": 0.22453701458334763
                }
            ],
            "controlChanges": {
                "7": [
                    {
                        "number": 7,
                        "time": 0,
                        "value": 1
                    }
                ],
                "10": [
                    {
                        "number": 10,
                        "time": 0,
                        "value": 0.7637795275590551
                    }
                ],
                "64": [
                    {
                        "number": 64,
                        "time": 94.44443499999981,
                        "value": 1
                    },
                    {
                        "number": 64,
                        "time": 98.74999012500001,
                        "value": 0
                    },
                    {
                        "number": 64,
                        "time": 98.88887900000002,
                        "value": 1
                    },
                    {
                        "number": 64,
                        "time": 103.19443412500021,
                        "value": 0
                    },
                    {
                        "number": 64,
                        "time": 108.33332250000028,
                        "value": 1
                    },
                    {
                        "number": 64,
                        "time": 120.97221012500086,
                        "value": 0
                    },
                    {
                        "number": 64,
                        "time": 121.11109900000086,
                        "value": 1
                    },
                    {
                        "number": 64,
                        "time": 124.99998750000084,
                        "value": 0
                    },
                    {
                        "number": 64,
                        "time": 151.1110960000007,
                        "value": 1
                    },
                    {
                        "number": 64,
                        "time": 153.0555402500008,
                        "value": 0
                    },
                    {
                        "number": 64,
                        "time": 153.33331800000082,
                        "value": 1
                    },
                    {
                        "number": 64,
                        "time": 155.2777622500009,
                        "value": 0
                    },
                    {
                        "number": 64,
                        "time": 155.55554000000092,
                        "value": 1
                    },
                    {
                        "number": 64,
                        "time": 157.499984250001,
                        "value": 0
                    },
                    {
                        "number": 64,
                        "time": 157.77776200000102,
                        "value": 1
                    },
                    {
                        "number": 64,
                        "time": 159.7222062500011,
                        "value": 0
                    },
                    {
                        "number": 64,
                        "time": 159.99998400000112,
                        "value": 1
                    },
                    {
                        "number": 64,
                        "time": 161.9444282500012,
                        "value": 0
                    },
                    {
                        "number": 64,
                        "time": 162.22220600000122,
                        "value": 1
                    },
                    {
                        "number": 64,
                        "time": 164.1666502500013,
                        "value": 0
                    },
                    {
                        "number": 64,
                        "time": 164.44442800000132,
                        "value": 1
                    },
                    {
                        "number": 64,
                        "time": 168.6110942500015,
                        "value": 0
                    },
                    {
                        "number": 64,
                        "time": 168.88887200000153,
                        "value": 1
                    },
                    {
                        "number": 64,
                        "time": 170.83331625000162,
                        "value": 0
                    },
                    {
                        "number": 64,
                        "time": 171.11109400000163,
                        "value": 1
                    },
                    {
                        "number": 64,
                        "time": 173.05553825000172,
                        "value": 0
                    },
                    {
                        "number": 64,
                        "time": 173.33331600000173,
                        "value": 1
                    },
                    {
                        "number": 64,
                        "time": 175.27776025000182,
                        "value": 0
                    },
                    {
                        "number": 64,
                        "time": 175.55553800000183,
                        "value": 1
                    },
                    {
                        "number": 64,
                        "time": 177.49998225000192,
                        "value": 0
                    },
                    {
                        "number": 64,
                        "time": 177.77776000000193,
                        "value": 1
                    },
                    {
                        "number": 64,
                        "time": 179.72220425000202,
                        "value": 0
                    },
                    {
                        "number": 64,
                        "time": 179.99998200000203,
                        "value": 1
                    },
                    {
                        "number": 64,
                        "time": 181.94442625000212,
                        "value": 0
                    },
                    {
                        "number": 64,
                        "time": 182.22220400000214,
                        "value": 1
                    },
                    {
                        "number": 64,
                        "time": 184.16664825000223,
                        "value": 0
                    },
                    {
                        "number": 64,
                        "time": 184.44442600000224,
                        "value": 1
                    },
                    {
                        "number": 64,
                        "time": 186.38887025000233,
                        "value": 0
                    },
                    {
                        "number": 64,
                        "time": 186.66664800000234,
                        "value": 1
                    },
                    {
                        "number": 64,
                        "time": 188.61109225000243,
                        "value": 0
                    },
                    {
                        "number": 64,
                        "time": 188.88887000000244,
                        "value": 1
                    },
                    {
                        "number": 64,
                        "time": 190.83331425000253,
                        "value": 0
                    },
                    {
                        "number": 64,
                        "time": 191.11109200000254,
                        "value": 1
                    },
                    {
                        "number": 64,
                        "time": 193.05553625000263,
                        "value": 0
                    },
                    {
                        "number": 64,
                        "time": 193.33331400000264,
                        "value": 1
                    },
                    {
                        "number": 64,
                        "time": 195.27775825000273,
                        "value": 0
                    },
                    {
                        "number": 64,
                        "time": 195.55553600000275,
                        "value": 1
                    },
                    {
                        "number": 64,
                        "time": 197.49998025000284,
                        "value": 0
                    },
                    {
                        "number": 64,
                        "time": 197.77775800000285,
                        "value": 1
                    },
                    {
                        "number": 64,
                        "time": 199.72220225000294,
                        "value": 0
                    },
                    {
                        "number": 64,
                        "time": 199.99998000000295,
                        "value": 1
                    },
                    {
                        "number": 64,
                        "time": 201.94442425000304,
                        "value": 0
                    },
                    {
                        "number": 64,
                        "time": 202.22220200000305,
                        "value": 1
                    },
                    {
                        "number": 64,
                        "time": 204.16664625000314,
                        "value": 0
                    },
                    {
                        "number": 64,
                        "time": 204.44442400000315,
                        "value": 1
                    },
                    {
                        "number": 64,
                        "time": 206.38886825000324,
                        "value": 0
                    },
                    {
                        "number": 64,
                        "time": 206.66664600000325,
                        "value": 1
                    },
                    {
                        "number": 64,
                        "time": 208.61109025000334,
                        "value": 0
                    },
                    {
                        "number": 64,
                        "time": 208.88886800000336,
                        "value": 1
                    },
                    {
                        "number": 64,
                        "time": 210.7916455875034,
                        "value": 0
                    },
                    {
                        "number": 64,
                        "time": 211.1110900000034,
                        "value": 1
                    },
                    {
                        "number": 64,
                        "time": 223.3333110000034,
                        "value": 0
                    },
                    {
                        "number": 64,
                        "time": 224.44442200000339,
                        "value": 1
                    },
                    {
                        "number": 64,
                        "time": 232.22219900000337,
                        "value": 0
                    },
                    {
                        "number": 64,
                        "time": 233.33331000000337,
                        "value": 1
                    },
                    {
                        "number": 64,
                        "time": 234.1666432500034,
                        "value": 0
                    },
                    {
                        "number": 64,
                        "time": 234.44442100000342,
                        "value": 1
                    },
                    {
                        "number": 64,
                        "time": 235.27775425000345,
                        "value": 0
                    },
                    {
                        "number": 64,
                        "time": 235.55553200000347,
                        "value": 1
                    },
                    {
                        "number": 64,
                        "time": 236.3888652500035,
                        "value": 0
                    },
                    {
                        "number": 64,
                        "time": 236.66664300000352,
                        "value": 1
                    },
                    {
                        "number": 64,
                        "time": 237.49997625000356,
                        "value": 0
                    },
                    {
                        "number": 64,
                        "time": 259.99997400000353,
                        "value": 1
                    },
                    {
                        "number": 64,
                        "time": 264.4444180000035,
                        "value": 0
                    },
                    {
                        "number": 64,
                        "time": 265.5555290000035,
                        "value": 1
                    },
                    {
                        "number": 64,
                        "time": 266.38886225000346,
                        "value": 0
                    },
                    {
                        "number": 64,
                        "time": 266.66664000000344,
                        "value": 1
                    },
                    {
                        "number": 64,
                        "time": 268.61108425000333,
                        "value": 0
                    },
                    {
                        "number": 64,
                        "time": 268.8888620000033,
                        "value": 1
                    },
                    {
                        "number": 64,
                        "time": 272.03469501875344,
                        "value": 0
                    },
                    {
                        "number": 64,
                        "time": 272.22219500000347,
                        "value": 1
                    },
                    {
                        "number": 64,
                        "time": 275.3680280187535,
                        "value": 0
                    },
                    {
                        "number": 64,
                        "time": 275.5555280000035,
                        "value": 1
                    },
                    {
                        "number": 64,
                        "time": 276.3888612500035,
                        "value": 0
                    },
                    {
                        "number": 64,
                        "time": 281.11108300000353,
                        "value": 1
                    },
                    {
                        "number": 64,
                        "time": 281.9976569854201,
                        "value": 0
                    },
                    {
                        "number": 64,
                        "time": 282.22219400000347,
                        "value": 1
                    },
                    {
                        "number": 64,
                        "time": 284.1666382500035,
                        "value": 0
                    }
                ]
            },
            "id": 1,
            "name": "Grand Piano",
            "instrumentNumber": 0,
            "instrument": "acoustic grand piano",
            "instrumentFamily": "piano",
            "channelNumber": 0,
            "isPercussion": false
        },
        {
            "startTime": 49.999995,
            "duration": 281.11108299999995,
            "length": 229,
            "notes": [
                {
                    "name": "D7",
                    "midi": 98,
                    "time": 49.999995,
                    "velocity": 0.6929133858267716,
                    "duration": 1.111111000000001
                },
                {
                    "name": "C4",
                    "midi": 60,
                    "time": 141.6666525,
                    "velocity": 0.4881889763779528,
                    "duration": 0.1851851666666562
                },
                {
                    "name": "C#4",
                    "midi": 61,
                    "time": 141.85183766666665,
                    "velocity": 0.4881889763779528,
                    "duration": 0.18287035208334146
                },
                {
                    "name": "D4",
                    "midi": 62,
                    "time": 142.03470801875,
                    "velocity": 0.4881889763779528,
                    "duration": 0.18749998124999934
                },
                {
                    "name": "F#4",
                    "midi": 66,
                    "time": 142.222208,
                    "velocity": 0.3858267716535433,
                    "duration": 0.1851851666666562
                },
                {
                    "name": "F4",
                    "midi": 65,
                    "time": 142.40739316666665,
                    "velocity": 0.3858267716535433,
                    "duration": 0.18287035208334146
                },
                {
                    "name": "F#4",
                    "midi": 66,
                    "time": 142.59026351875,
                    "velocity": 0.3858267716535433,
                    "duration": 0.18749998124999934
                },
                {
                    "name": "F4",
                    "midi": 65,
                    "time": 142.7777635,
                    "velocity": 0.3858267716535433,
                    "duration": 0.1851851666666562
                },
                {
                    "name": "F#4",
                    "midi": 66,
                    "time": 142.96294866666665,
                    "velocity": 0.3858267716535433,
                    "duration": 0.18287035208334146
                },
                {
                    "name": "F4",
                    "midi": 65,
                    "time": 143.14581901875,
                    "velocity": 0.3858267716535433,
                    "duration": 0.18749998124999934
                },
                {
                    "name": "F#4",
                    "midi": 66,
                    "time": 143.333319,
                    "velocity": 0.3858267716535433,
                    "duration": 0.1851851666666562
                },
                {
                    "name": "F4",
                    "midi": 65,
                    "time": 143.51850416666665,
                    "velocity": 0.3858267716535433,
                    "duration": 0.18287035208334146
                },
                {
                    "name": "F#4",
                    "midi": 66,
                    "time": 143.70137451875,
                    "velocity": 0.3858267716535433,
                    "duration": 0.18749998124999934
                },
                {
                    "name": "F4",
                    "midi": 65,
                    "time": 143.8888745,
                    "velocity": 0.3858267716535433,
                    "duration": 0.1851851666666562
                },
                {
                    "name": "F#4",
                    "midi": 66,
                    "time": 144.07405966666664,
                    "velocity": 0.3858267716535433,
                    "duration": 0.18287035208334146
                },
                {
                    "name": "F4",
                    "midi": 65,
                    "time": 144.25693001874998,
                    "velocity": 0.3858267716535433,
                    "duration": 0.18749998124999934
                },
                {
                    "name": "F#4",
                    "midi": 66,
                    "time": 144.44442999999998,
                    "velocity": 0.3858267716535433,
                    "duration": 0.1851851666666562
                },
                {
                    "name": "F4",
                    "midi": 65,
                    "time": 144.62961516666664,
                    "velocity": 0.3858267716535433,
                    "duration": 0.18287035208334146
                },
                {
                    "name": "F#4",
                    "midi": 66,
                    "time": 144.81248551874998,
                    "velocity": 0.3858267716535433,
                    "duration": 0.18749998124999934
                },
                {
                    "name": "F4",
                    "midi": 65,
                    "time": 144.99998549999998,
                    "velocity": 0.3858267716535433,
                    "duration": 0.1851851666666562
                },
                {
                    "name": "F#4",
                    "midi": 66,
                    "time": 145.18517066666664,
                    "velocity": 0.3858267716535433,
                    "duration": 0.18287035208334146
                },
                {
                    "name": "F4",
                    "midi": 65,
                    "time": 145.36804101874998,
                    "velocity": 0.3858267716535433,
                    "duration": 0.18749998124999934
                },
                {
                    "name": "F#4",
                    "midi": 66,
                    "time": 145.55554099999998,
                    "velocity": 0.3858267716535433,
                    "duration": 0.1851851666666562
                },
                {
                    "name": "F4",
                    "midi": 65,
                    "time": 145.74072616666663,
                    "velocity": 0.3858267716535433,
                    "duration": 0.18287035208334146
                },
                {
                    "name": "F#4",
                    "midi": 66,
                    "time": 145.92359651874997,
                    "velocity": 0.3858267716535433,
                    "duration": 0.18749998124999934
                },
                {
                    "name": "F4",
                    "midi": 65,
                    "time": 146.11109649999997,
                    "velocity": 0.3858267716535433,
                    "duration": 0.1851851666666562
                },
                {
                    "name": "F#4",
                    "midi": 66,
                    "time": 146.29628166666663,
                    "velocity": 0.3858267716535433,
                    "duration": 0.18287035208334146
                },
                {
                    "name": "F4",
                    "midi": 65,
                    "time": 146.47915201874997,
                    "velocity": 0.3858267716535433,
                    "duration": 0.18749998124999934
                },
                {
                    "name": "F#4",
                    "midi": 66,
                    "time": 146.66665199999997,
                    "velocity": 0.3858267716535433,
                    "duration": 0.1851851666666562
                },
                {
                    "name": "F4",
                    "midi": 65,
                    "time": 146.85183716666663,
                    "velocity": 0.3858267716535433,
                    "duration": 0.18287035208334146
                },
                {
                    "name": "F#4",
                    "midi": 66,
                    "time": 147.03470751874997,
                    "velocity": 0.3858267716535433,
                    "duration": 0.18749998124999934
                },
                {
                    "name": "F4",
                    "midi": 65,
                    "time": 147.22220749999997,
                    "velocity": 0.3858267716535433,
                    "duration": 0.1851851666666562
                },
                {
                    "name": "F#4",
                    "midi": 66,
                    "time": 147.40739266666662,
                    "velocity": 0.3858267716535433,
                    "duration": 0.18287035208334146
                },
                {
                    "name": "F4",
                    "midi": 65,
                    "time": 147.59026301874997,
                    "velocity": 0.3858267716535433,
                    "duration": 0.18749998124999934
                },
                {
                    "name": "F#4",
                    "midi": 66,
                    "time": 147.77776299999996,
                    "velocity": 0.3858267716535433,
                    "duration": 0.1851851666666562
                },
                {
                    "name": "F4",
                    "midi": 65,
                    "time": 147.96294816666662,
                    "velocity": 0.3858267716535433,
                    "duration": 0.18287035208334146
                },
                {
                    "name": "F#4",
                    "midi": 66,
                    "time": 148.14581851874996,
                    "velocity": 0.3858267716535433,
                    "duration": 0.18749998124999934
                },
                {
                    "name": "G#4",
                    "midi": 68,
                    "time": 148.33331849999996,
                    "velocity": 0.4881889763779528,
                    "duration": 0.1851851666666562
                },
                {
                    "name": "A4",
                    "midi": 69,
                    "time": 148.51850366666662,
                    "velocity": 0.4881889763779528,
                    "duration": 0.18287035208334146
                },
                {
                    "name": "A#4",
                    "midi": 70,
                    "time": 148.70137401874996,
                    "velocity": 0.4881889763779528,
                    "duration": 0.18749998124999934
                },
                {
                    "name": "D5",
                    "midi": 74,
                    "time": 148.88887399999996,
                    "velocity": 0.4881889763779528,
                    "duration": 0.555555499999997
                },
                {
                    "name": "D5",
                    "midi": 74,
                    "time": 149.44442949999996,
                    "velocity": 0.4881889763779528,
                    "duration": 0.1851851666666562
                },
                {
                    "name": "D#5",
                    "midi": 75,
                    "time": 149.6296146666666,
                    "velocity": 0.4881889763779528,
                    "duration": 0.18287035208334146
                },
                {
                    "name": "E5",
                    "midi": 76,
                    "time": 149.81248501874995,
                    "velocity": 0.4881889763779528,
                    "duration": 0.18749998124999934
                },
                {
                    "name": "G#5",
                    "midi": 80,
                    "time": 149.99998499999995,
                    "velocity": 0.5905511811023622,
                    "duration": 0.555555499999997
                },
                {
                    "name": "E5",
                    "midi": 76,
                    "time": 150.55554049999995,
                    "velocity": 0.5905511811023622,
                    "duration": 0.1851851666666562
                },
                {
                    "name": "F5",
                    "midi": 77,
                    "time": 150.7407256666666,
                    "velocity": 0.5905511811023622,
                    "duration": 0.18287035208334146
                },
                {
                    "name": "F#5",
                    "midi": 78,
                    "time": 150.92359601874995,
                    "velocity": 0.5905511811023622,
                    "duration": 0.18749998124999934
                },
                {
                    "name": "F#4",
                    "midi": 66,
                    "time": 151.11109599999995,
                    "velocity": 0.6929133858267716,
                    "duration": 0.555555499999997
                },
                {
                    "name": "C5",
                    "midi": 72,
                    "time": 168.88887199999994,
                    "velocity": 0.4881889763779528,
                    "duration": 2.222221999999988
                },
                {
                    "name": "F#4",
                    "midi": 66,
                    "time": 171.11109399999992,
                    "velocity": 0.4881889763779528,
                    "duration": 2.222221999999988
                },
                {
                    "name": "C4",
                    "midi": 60,
                    "time": 173.3333159999999,
                    "velocity": 0.4881889763779528,
                    "duration": 2.222221999999988
                },
                {
                    "name": "D#4",
                    "midi": 63,
                    "time": 175.5555379999999,
                    "velocity": 0.4881889763779528,
                    "duration": 2.222221999999988
                },
                {
                    "name": "A4",
                    "midi": 69,
                    "time": 177.7777599999999,
                    "velocity": 0.4881889763779528,
                    "duration": 2.222221999999988
                },
                {
                    "name": "D#5",
                    "midi": 75,
                    "time": 179.99998199999987,
                    "velocity": 0.4881889763779528,
                    "duration": 2.222221999999988
                },
                {
                    "name": "F#5",
                    "midi": 78,
                    "time": 182.22220399999986,
                    "velocity": 0.4881889763779528,
                    "duration": 2.222221999999988
                },
                {
                    "name": "C5",
                    "midi": 72,
                    "time": 184.44442599999985,
                    "velocity": 0.4881889763779528,
                    "duration": 2.222221999999988
                },
                {
                    "name": "F#4",
                    "midi": 66,
                    "time": 186.66664799999984,
                    "velocity": 0.4881889763779528,
                    "duration": 2.222221999999988
                },
                {
                    "name": "C4",
                    "midi": 60,
                    "time": 188.88886999999983,
                    "velocity": 0.4881889763779528,
                    "duration": 2.222221999999988
                },
                {
                    "name": "F#3",
                    "midi": 54,
                    "time": 199.8610911249998,
                    "velocity": 0.3858267716535433,
                    "duration": 2.36111087499998
                },
                {
                    "name": "C4",
                    "midi": 60,
                    "time": 199.9999799999998,
                    "velocity": 0.3858267716535433,
                    "duration": 2.222221999999988
                },
                {
                    "name": "E4",
                    "midi": 64,
                    "time": 199.9999799999998,
                    "velocity": 0.3858267716535433,
                    "duration": 2.222221999999988
                },
                {
                    "name": "G4",
                    "midi": 67,
                    "time": 199.9999799999998,
                    "velocity": 0.3858267716535433,
                    "duration": 2.222221999999988
                },
                {
                    "name": "F#3",
                    "midi": 54,
                    "time": 204.30553512499978,
                    "velocity": 0.3858267716535433,
                    "duration": 2.36111087499998
                },
                {
                    "name": "C4",
                    "midi": 60,
                    "time": 204.44442399999977,
                    "velocity": 0.3858267716535433,
                    "duration": 2.222221999999988
                },
                {
                    "name": "E4",
                    "midi": 64,
                    "time": 204.44442399999977,
                    "velocity": 0.3858267716535433,
                    "duration": 2.222221999999988
                },
                {
                    "name": "G4",
                    "midi": 67,
                    "time": 204.44442399999977,
                    "velocity": 0.3858267716535433,
                    "duration": 2.222221999999988
                },
                {
                    "name": "G#4",
                    "midi": 68,
                    "time": 211.11108999999976,
                    "velocity": 0.4881889763779528,
                    "duration": 0.2777777500000127
                },
                {
                    "name": "A4",
                    "midi": 69,
                    "time": 211.38886774999978,
                    "velocity": 0.4881889763779528,
                    "duration": 0.2777777500000127
                },
                {
                    "name": "A#4",
                    "midi": 70,
                    "time": 211.6666454999998,
                    "velocity": 0.4881889763779528,
                    "duration": 0.2777777500000127
                },
                {
                    "name": "D5",
                    "midi": 74,
                    "time": 211.9444232499998,
                    "velocity": 0.4881889763779528,
                    "duration": 0.2777777500000127
                },
                {
                    "name": "C5",
                    "midi": 72,
                    "time": 212.2222009999998,
                    "velocity": 0.4881889763779528,
                    "duration": 0.2777777500000127
                },
                {
                    "name": "C#5",
                    "midi": 73,
                    "time": 212.49997874999983,
                    "velocity": 0.4881889763779528,
                    "duration": 0.2777777500000127
                },
                {
                    "name": "D5",
                    "midi": 74,
                    "time": 212.77775649999984,
                    "velocity": 0.4881889763779528,
                    "duration": 0.2777777500000127
                },
                {
                    "name": "F#5",
                    "midi": 78,
                    "time": 213.05553424999985,
                    "velocity": 0.4881889763779528,
                    "duration": 0.2777777500000127
                },
                {
                    "name": "G#5",
                    "midi": 80,
                    "time": 213.33331199999986,
                    "velocity": 0.3858267716535433,
                    "duration": 0.1851851666666562
                },
                {
                    "name": "A5",
                    "midi": 81,
                    "time": 213.51849716666652,
                    "velocity": 0.3858267716535433,
                    "duration": 0.18287035208334146
                },
                {
                    "name": "G#5",
                    "midi": 80,
                    "time": 213.70136751874986,
                    "velocity": 0.3858267716535433,
                    "duration": 0.18749998124999934
                },
                {
                    "name": "A5",
                    "midi": 81,
                    "time": 213.88886749999986,
                    "velocity": 0.3858267716535433,
                    "duration": 0.1851851666666562
                },
                {
                    "name": "G#5",
                    "midi": 80,
                    "time": 214.07405266666652,
                    "velocity": 0.3858267716535433,
                    "duration": 0.18287035208334146
                },
                {
                    "name": "A5",
                    "midi": 81,
                    "time": 214.25692301874986,
                    "velocity": 0.3858267716535433,
                    "duration": 0.18749998124999934
                },
                {
                    "name": "G#5",
                    "midi": 80,
                    "time": 214.44442299999986,
                    "velocity": 0.3858267716535433,
                    "duration": 0.1851851666666562
                },
                {
                    "name": "A5",
                    "midi": 81,
                    "time": 214.62960816666651,
                    "velocity": 0.3858267716535433,
                    "duration": 0.18287035208334146
                },
                {
                    "name": "G#5",
                    "midi": 80,
                    "time": 214.81247851874986,
                    "velocity": 0.3858267716535433,
                    "duration": 0.18749998124999934
                },
                {
                    "name": "A5",
                    "midi": 81,
                    "time": 214.99997849999986,
                    "velocity": 0.3858267716535433,
                    "duration": 0.1851851666666562
                },
                {
                    "name": "G#5",
                    "midi": 80,
                    "time": 215.1851636666665,
                    "velocity": 0.3858267716535433,
                    "duration": 0.18287035208334146
                },
                {
                    "name": "A5",
                    "midi": 81,
                    "time": 215.36803401874985,
                    "velocity": 0.3858267716535433,
                    "duration": 0.18749998124999934
                },
                {
                    "name": "G#5",
                    "midi": 80,
                    "time": 215.55553399999985,
                    "velocity": 0.3858267716535433,
                    "duration": 0.1851851666666562
                },
                {
                    "name": "A5",
                    "midi": 81,
                    "time": 215.7407191666665,
                    "velocity": 0.3858267716535433,
                    "duration": 0.18287035208334146
                },
                {
                    "name": "G#5",
                    "midi": 80,
                    "time": 215.92358951874985,
                    "velocity": 0.3858267716535433,
                    "duration": 0.18749998124999934
                },
                {
                    "name": "A5",
                    "midi": 81,
                    "time": 216.11108949999985,
                    "velocity": 0.3858267716535433,
                    "duration": 0.1851851666666562
                },
                {
                    "name": "G#5",
                    "midi": 80,
                    "time": 216.2962746666665,
                    "velocity": 0.3858267716535433,
                    "duration": 0.18287035208334146
                },
                {
                    "name": "A5",
                    "midi": 81,
                    "time": 216.47914501874985,
                    "velocity": 0.3858267716535433,
                    "duration": 0.18749998124999934
                },
                {
                    "name": "G#5",
                    "midi": 80,
                    "time": 216.66664499999985,
                    "velocity": 0.3858267716535433,
                    "duration": 0.1851851666666562
                },
                {
                    "name": "A5",
                    "midi": 81,
                    "time": 216.8518301666665,
                    "velocity": 0.3858267716535433,
                    "duration": 0.18287035208334146
                },
                {
                    "name": "G#5",
                    "midi": 80,
                    "time": 217.03470051874984,
                    "velocity": 0.3858267716535433,
                    "duration": 0.18749998124999934
                },
                {
                    "name": "A5",
                    "midi": 81,
                    "time": 217.22220049999984,
                    "velocity": 0.3858267716535433,
                    "duration": 0.1851851666666562
                },
                {
                    "name": "G#5",
                    "midi": 80,
                    "time": 217.4073856666665,
                    "velocity": 0.3858267716535433,
                    "duration": 0.18287035208334146
                },
                {
                    "name": "A5",
                    "midi": 81,
                    "time": 217.59025601874984,
                    "velocity": 0.3858267716535433,
                    "duration": 0.18749998124999934
                },
                {
                    "name": "G#5",
                    "midi": 80,
                    "time": 217.77775599999984,
                    "velocity": 0.3858267716535433,
                    "duration": 0.1851851666666562
                },
                {
                    "name": "A5",
                    "midi": 81,
                    "time": 217.9629411666665,
                    "velocity": 0.3858267716535433,
                    "duration": 0.18287035208334146
                },
                {
                    "name": "G#5",
                    "midi": 80,
                    "time": 218.14581151874984,
                    "velocity": 0.3858267716535433,
                    "duration": 0.18749998124999934
                },
                {
                    "name": "A5",
                    "midi": 81,
                    "time": 218.33331149999984,
                    "velocity": 0.3858267716535433,
                    "duration": 0.1851851666666562
                },
                {
                    "name": "G#5",
                    "midi": 80,
                    "time": 218.5184966666665,
                    "velocity": 0.3858267716535433,
                    "duration": 0.18287035208334146
                },
                {
                    "name": "A5",
                    "midi": 81,
                    "time": 218.70136701874983,
                    "velocity": 0.3858267716535433,
                    "duration": 0.18749998124999934
                },
                {
                    "name": "G#5",
                    "midi": 80,
                    "time": 218.88886699999983,
                    "velocity": 0.3858267716535433,
                    "duration": 0.1851851666666562
                },
                {
                    "name": "A5",
                    "midi": 81,
                    "time": 219.0740521666665,
                    "velocity": 0.3858267716535433,
                    "duration": 0.18287035208334146
                },
                {
                    "name": "G#5",
                    "midi": 80,
                    "time": 219.25692251874983,
                    "velocity": 0.3858267716535433,
                    "duration": 0.18749998124999934
                },
                {
                    "name": "A5",
                    "midi": 81,
                    "time": 219.44442249999983,
                    "velocity": 0.3858267716535433,
                    "duration": 0.1851851666666562
                },
                {
                    "name": "G#5",
                    "midi": 80,
                    "time": 219.6296076666665,
                    "velocity": 0.3858267716535433,
                    "duration": 0.18287035208334146
                },
                {
                    "name": "A5",
                    "midi": 81,
                    "time": 219.81247801874983,
                    "velocity": 0.3858267716535433,
                    "duration": 0.18749998124999934
                },
                {
                    "name": "G#5",
                    "midi": 80,
                    "time": 219.99997799999983,
                    "velocity": 0.3858267716535433,
                    "duration": 0.1851851666666562
                },
                {
                    "name": "A5",
                    "midi": 81,
                    "time": 220.18516316666648,
                    "velocity": 0.3858267716535433,
                    "duration": 0.18287035208334146
                },
                {
                    "name": "G#5",
                    "midi": 80,
                    "time": 220.36803351874983,
                    "velocity": 0.3858267716535433,
                    "duration": 0.18749998124999934
                },
                {
                    "name": "A5",
                    "midi": 81,
                    "time": 220.55553349999983,
                    "velocity": 0.3858267716535433,
                    "duration": 0.1851851666666562
                },
                {
                    "name": "G#5",
                    "midi": 80,
                    "time": 220.74071866666648,
                    "velocity": 0.3858267716535433,
                    "duration": 0.18287035208334146
                },
                {
                    "name": "A5",
                    "midi": 81,
                    "time": 220.92358901874982,
                    "velocity": 0.3858267716535433,
                    "duration": 0.18749998124999934
                },
                {
                    "name": "G#5",
                    "midi": 80,
                    "time": 221.11108899999982,
                    "velocity": 0.3858267716535433,
                    "duration": 0.1851851666666562
                },
                {
                    "name": "A5",
                    "midi": 81,
                    "time": 221.29627416666648,
                    "velocity": 0.3858267716535433,
                    "duration": 0.18287035208334146
                },
                {
                    "name": "G#5",
                    "midi": 80,
                    "time": 221.47914451874982,
                    "velocity": 0.3858267716535433,
                    "duration": 0.18749998124999934
                },
                {
                    "name": "A5",
                    "midi": 81,
                    "time": 221.66664449999982,
                    "velocity": 0.3858267716535433,
                    "duration": 0.1851851666666562
                },
                {
                    "name": "G#5",
                    "midi": 80,
                    "time": 221.85182966666648,
                    "velocity": 0.3858267716535433,
                    "duration": 0.18287035208334146
                },
                {
                    "name": "A5",
                    "midi": 81,
                    "time": 222.03470001874982,
                    "velocity": 0.3858267716535433,
                    "duration": 0.18749998124999934
                },
                {
                    "name": "G#5",
                    "midi": 80,
                    "time": 222.22219999999982,
                    "velocity": 0.3858267716535433,
                    "duration": 0.1851851666666562
                },
                {
                    "name": "A5",
                    "midi": 81,
                    "time": 222.40738516666647,
                    "velocity": 0.3858267716535433,
                    "duration": 0.18287035208334146
                },
                {
                    "name": "G#5",
                    "midi": 80,
                    "time": 222.5902555187498,
                    "velocity": 0.3858267716535433,
                    "duration": 0.18749998124999934
                },
                {
                    "name": "A5",
                    "midi": 81,
                    "time": 222.7777554999998,
                    "velocity": 0.3858267716535433,
                    "duration": 0.1851851666666562
                },
                {
                    "name": "G#5",
                    "midi": 80,
                    "time": 222.96294066666647,
                    "velocity": 0.3858267716535433,
                    "duration": 0.18287035208334146
                },
                {
                    "name": "A5",
                    "midi": 81,
                    "time": 223.1458110187498,
                    "velocity": 0.3858267716535433,
                    "duration": 0.18749998124999934
                },
                {
                    "name": "G#5",
                    "midi": 80,
                    "time": 223.3333109999998,
                    "velocity": 0.3858267716535433,
                    "duration": 0.1851851666666562
                },
                {
                    "name": "A5",
                    "midi": 81,
                    "time": 223.51849616666647,
                    "velocity": 0.3858267716535433,
                    "duration": 0.18287035208334146
                },
                {
                    "name": "G#5",
                    "midi": 80,
                    "time": 223.7013665187498,
                    "velocity": 0.3858267716535433,
                    "duration": 0.18749998124999934
                },
                {
                    "name": "A5",
                    "midi": 81,
                    "time": 223.8888664999998,
                    "velocity": 0.3858267716535433,
                    "duration": 0.1851851666666562
                },
                {
                    "name": "G#5",
                    "midi": 80,
                    "time": 224.07405166666646,
                    "velocity": 0.3858267716535433,
                    "duration": 0.18287035208334146
                },
                {
                    "name": "A5",
                    "midi": 81,
                    "time": 224.2569220187498,
                    "velocity": 0.3858267716535433,
                    "duration": 0.18749998124999934
                },
                {
                    "name": "A#5",
                    "midi": 82,
                    "time": 224.4444219999998,
                    "velocity": 0.3858267716535433,
                    "duration": 0.1851851666666562
                },
                {
                    "name": "C6",
                    "midi": 84,
                    "time": 224.62960716666646,
                    "velocity": 0.3858267716535433,
                    "duration": 0.18287035208334146
                },
                {
                    "name": "A#5",
                    "midi": 82,
                    "time": 224.8124775187498,
                    "velocity": 0.3858267716535433,
                    "duration": 0.18749998124999934
                },
                {
                    "name": "C6",
                    "midi": 84,
                    "time": 224.9999774999998,
                    "velocity": 0.3858267716535433,
                    "duration": 0.1851851666666562
                },
                {
                    "name": "A#5",
                    "midi": 82,
                    "time": 225.18516266666646,
                    "velocity": 0.3858267716535433,
                    "duration": 0.18287035208334146
                },
                {
                    "name": "C6",
                    "midi": 84,
                    "time": 225.3680330187498,
                    "velocity": 0.3858267716535433,
                    "duration": 0.18749998124999934
                },
                {
                    "name": "A5",
                    "midi": 81,
                    "time": 225.5555329999998,
                    "velocity": 0.3858267716535433,
                    "duration": 0.1851851666666562
                },
                {
                    "name": "A#5",
                    "midi": 82,
                    "time": 225.74071816666645,
                    "velocity": 0.3858267716535433,
                    "duration": 0.18287035208334146
                },
                {
                    "name": "A5",
                    "midi": 81,
                    "time": 225.9235885187498,
                    "velocity": 0.3858267716535433,
                    "duration": 0.18749998124999934
                },
                {
                    "name": "A#5",
                    "midi": 82,
                    "time": 226.1110884999998,
                    "velocity": 0.3858267716535433,
                    "duration": 0.1851851666666562
                },
                {
                    "name": "A5",
                    "midi": 81,
                    "time": 226.29627366666645,
                    "velocity": 0.3858267716535433,
                    "duration": 0.18287035208334146
                },
                {
                    "name": "A#5",
                    "midi": 82,
                    "time": 226.4791440187498,
                    "velocity": 0.3858267716535433,
                    "duration": 0.18749998124999934
                },
                {
                    "name": "A#5",
                    "midi": 82,
                    "time": 226.6666439999998,
                    "velocity": 0.3858267716535433,
                    "duration": 0.1851851666666562
                },
                {
                    "name": "C6",
                    "midi": 84,
                    "time": 226.85182916666645,
                    "velocity": 0.3858267716535433,
                    "duration": 0.18287035208334146
                },
                {
                    "name": "A#5",
                    "midi": 82,
                    "time": 227.0346995187498,
                    "velocity": 0.3858267716535433,
                    "duration": 0.18749998124999934
                },
                {
                    "name": "C6",
                    "midi": 84,
                    "time": 227.2221994999998,
                    "velocity": 0.3858267716535433,
                    "duration": 0.1851851666666562
                },
                {
                    "name": "A#5",
                    "midi": 82,
                    "time": 227.40738466666645,
                    "velocity": 0.3858267716535433,
                    "duration": 0.18287035208334146
                },
                {
                    "name": "C6",
                    "midi": 84,
                    "time": 227.5902550187498,
                    "velocity": 0.3858267716535433,
                    "duration": 0.18749998124999934
                },
                {
                    "name": "A5",
                    "midi": 81,
                    "time": 227.7777549999998,
                    "velocity": 0.3858267716535433,
                    "duration": 0.1851851666666562
                },
                {
                    "name": "A#5",
                    "midi": 82,
                    "time": 227.96294016666644,
                    "velocity": 0.3858267716535433,
                    "duration": 0.18287035208334146
                },
                {
                    "name": "A5",
                    "midi": 81,
                    "time": 228.14581051874978,
                    "velocity": 0.3858267716535433,
                    "duration": 0.18749998124999934
                },
                {
                    "name": "A#5",
                    "midi": 82,
                    "time": 228.33331049999978,
                    "velocity": 0.3858267716535433,
                    "duration": 0.1851851666666562
                },
                {
                    "name": "A5",
                    "midi": 81,
                    "time": 228.51849566666644,
                    "velocity": 0.3858267716535433,
                    "duration": 0.18287035208334146
                },
                {
                    "name": "A#5",
                    "midi": 82,
                    "time": 228.70136601874978,
                    "velocity": 0.3858267716535433,
                    "duration": 0.18749998124999934
                },
                {
                    "name": "A#5",
                    "midi": 82,
                    "time": 228.88886599999978,
                    "velocity": 0.3858267716535433,
                    "duration": 0.1851851666666562
                },
                {
                    "name": "C6",
                    "midi": 84,
                    "time": 229.07405116666644,
                    "velocity": 0.3858267716535433,
                    "duration": 0.18287035208334146
                },
                {
                    "name": "A#5",
                    "midi": 82,
                    "time": 229.25692151874978,
                    "velocity": 0.3858267716535433,
                    "duration": 0.18749998124999934
                },
                {
                    "name": "C6",
                    "midi": 84,
                    "time": 229.44442149999978,
                    "velocity": 0.3858267716535433,
                    "duration": 0.1851851666666562
                },
                {
                    "name": "A#5",
                    "midi": 82,
                    "time": 229.62960666666643,
                    "velocity": 0.3858267716535433,
                    "duration": 0.18287035208334146
                },
                {
                    "name": "C6",
                    "midi": 84,
                    "time": 229.81247701874977,
                    "velocity": 0.3858267716535433,
                    "duration": 0.18749998124999934
                },
                {
                    "name": "A5",
                    "midi": 81,
                    "time": 229.99997699999977,
                    "velocity": 0.3858267716535433,
                    "duration": 0.1851851666666562
                },
                {
                    "name": "A#5",
                    "midi": 82,
                    "time": 230.18516216666643,
                    "velocity": 0.3858267716535433,
                    "duration": 0.18287035208334146
                },
                {
                    "name": "A5",
                    "midi": 81,
                    "time": 230.36803251874977,
                    "velocity": 0.3858267716535433,
                    "duration": 0.18749998124999934
                },
                {
                    "name": "A#5",
                    "midi": 82,
                    "time": 230.55553249999977,
                    "velocity": 0.3858267716535433,
                    "duration": 0.1851851666666562
                },
                {
                    "name": "A5",
                    "midi": 81,
                    "time": 230.74071766666643,
                    "velocity": 0.3858267716535433,
                    "duration": 0.18287035208334146
                },
                {
                    "name": "A#5",
                    "midi": 82,
                    "time": 230.92358801874977,
                    "velocity": 0.3858267716535433,
                    "duration": 0.18749998124999934
                },
                {
                    "name": "A#5",
                    "midi": 82,
                    "time": 231.11108799999977,
                    "velocity": 0.3858267716535433,
                    "duration": 0.1851851666666562
                },
                {
                    "name": "C6",
                    "midi": 84,
                    "time": 231.29627316666642,
                    "velocity": 0.3858267716535433,
                    "duration": 0.18287035208334146
                },
                {
                    "name": "A#5",
                    "midi": 82,
                    "time": 231.47914351874977,
                    "velocity": 0.3858267716535433,
                    "duration": 0.18749998124999934
                },
                {
                    "name": "C6",
                    "midi": 84,
                    "time": 231.66664349999976,
                    "velocity": 0.3858267716535433,
                    "duration": 0.1851851666666562
                },
                {
                    "name": "A#5",
                    "midi": 82,
                    "time": 231.85182866666642,
                    "velocity": 0.3858267716535433,
                    "duration": 0.18287035208334146
                },
                {
                    "name": "C6",
                    "midi": 84,
                    "time": 232.03469901874976,
                    "velocity": 0.3858267716535433,
                    "duration": 0.18749998124999934
                },
                {
                    "name": "A5",
                    "midi": 81,
                    "time": 232.22219899999976,
                    "velocity": 0.3858267716535433,
                    "duration": 0.1851851666666562
                },
                {
                    "name": "A#5",
                    "midi": 82,
                    "time": 232.40738416666642,
                    "velocity": 0.3858267716535433,
                    "duration": 0.18287035208334146
                },
                {
                    "name": "A5",
                    "midi": 81,
                    "time": 232.59025451874976,
                    "velocity": 0.3858267716535433,
                    "duration": 0.18749998124999934
                },
                {
                    "name": "A#5",
                    "midi": 82,
                    "time": 232.77775449999976,
                    "velocity": 0.3858267716535433,
                    "duration": 0.1851851666666562
                },
                {
                    "name": "A5",
                    "midi": 81,
                    "time": 232.96293966666641,
                    "velocity": 0.3858267716535433,
                    "duration": 0.18287035208334146
                },
                {
                    "name": "A#5",
                    "midi": 82,
                    "time": 233.14581001874976,
                    "velocity": 0.3858267716535433,
                    "duration": 0.18749998124999934
                },
                {
                    "name": "C4",
                    "midi": 60,
                    "time": 259.9999739999997,
                    "velocity": 0.3858267716535433,
                    "duration": 0.5555555000000254
                },
                {
                    "name": "F#5",
                    "midi": 78,
                    "time": 268.61108424999975,
                    "velocity": 0.6929133858267716,
                    "duration": 0.09027776875001337
                },
                {
                    "name": "F#6",
                    "midi": 90,
                    "time": 268.61108424999975,
                    "velocity": 0.6929133858267716,
                    "duration": 0.09027776875001337
                },
                {
                    "name": "F5",
                    "midi": 77,
                    "time": 268.70136201874976,
                    "velocity": 0.6929133858267716,
                    "duration": 0.09490739791664282
                },
                {
                    "name": "F6",
                    "midi": 89,
                    "time": 268.70136201874976,
                    "velocity": 0.6929133858267716,
                    "duration": 0.09490739791664282
                },
                {
                    "name": "E5",
                    "midi": 76,
                    "time": 268.7962694166664,
                    "velocity": 0.6929133858267716,
                    "duration": 0.0925925833333281
                },
                {
                    "name": "E6",
                    "midi": 88,
                    "time": 268.7962694166664,
                    "velocity": 0.6929133858267716,
                    "duration": 0.0925925833333281
                },
                {
                    "name": "F#5",
                    "midi": 78,
                    "time": 272.2221949999997,
                    "velocity": 0.3858267716535433,
                    "duration": 0.1851851666666562
                },
                {
                    "name": "G5",
                    "midi": 79,
                    "time": 272.40738016666637,
                    "velocity": 0.3858267716535433,
                    "duration": 0.18287035208334146
                },
                {
                    "name": "F#5",
                    "midi": 78,
                    "time": 272.5902505187497,
                    "velocity": 0.3858267716535433,
                    "duration": 0.18749998125002776
                },
                {
                    "name": "G5",
                    "midi": 79,
                    "time": 272.77775049999974,
                    "velocity": 0.3858267716535433,
                    "duration": 0.1851851666666562
                },
                {
                    "name": "F#5",
                    "midi": 78,
                    "time": 272.9629356666664,
                    "velocity": 0.3858267716535433,
                    "duration": 0.18287035208334146
                },
                {
                    "name": "G5",
                    "midi": 79,
                    "time": 273.14580601874974,
                    "velocity": 0.3858267716535433,
                    "duration": 0.18749998125002776
                },
                {
                    "name": "F#5",
                    "midi": 78,
                    "time": 273.33330599999977,
                    "velocity": 0.3858267716535433,
                    "duration": 0.1851851666666562
                },
                {
                    "name": "G5",
                    "midi": 79,
                    "time": 273.5184911666664,
                    "velocity": 0.3858267716535433,
                    "duration": 0.18287035208334146
                },
                {
                    "name": "F#5",
                    "midi": 78,
                    "time": 273.70136151874976,
                    "velocity": 0.3858267716535433,
                    "duration": 0.18749998125002776
                },
                {
                    "name": "G5",
                    "midi": 79,
                    "time": 273.8888614999998,
                    "velocity": 0.3858267716535433,
                    "duration": 0.2777777499999843
                },
                {
                    "name": "F#5",
                    "midi": 78,
                    "time": 274.1666392499998,
                    "velocity": 0.3858267716535433,
                    "duration": 0.2777777499999843
                },
                {
                    "name": "G5",
                    "midi": 79,
                    "time": 274.44441699999976,
                    "velocity": 0.3858267716535433,
                    "duration": 0.2777777499999843
                },
                {
                    "name": "F#5",
                    "midi": 78,
                    "time": 274.72219474999974,
                    "velocity": 0.3858267716535433,
                    "duration": 0.1851851666666562
                },
                {
                    "name": "G5",
                    "midi": 79,
                    "time": 274.9073799166664,
                    "velocity": 0.3858267716535433,
                    "duration": 0.18287035208334146
                },
                {
                    "name": "F#5",
                    "midi": 78,
                    "time": 275.09025026874974,
                    "velocity": 0.3858267716535433,
                    "duration": 0.18749998125002776
                },
                {
                    "name": "C5",
                    "midi": 72,
                    "time": 276.66663899999975,
                    "velocity": 0.3858267716535433,
                    "duration": 0.1851851666666562
                },
                {
                    "name": "D5",
                    "midi": 74,
                    "time": 276.8518241666664,
                    "velocity": 0.3858267716535433,
                    "duration": 0.18287035208334146
                },
                {
                    "name": "C5",
                    "midi": 72,
                    "time": 277.03469451874975,
                    "velocity": 0.3858267716535433,
                    "duration": 0.18749998125002776
                },
                {
                    "name": "D5",
                    "midi": 74,
                    "time": 277.2221944999998,
                    "velocity": 0.3858267716535433,
                    "duration": 0.1851851666666562
                },
                {
                    "name": "C5",
                    "midi": 72,
                    "time": 277.40737966666643,
                    "velocity": 0.3858267716535433,
                    "duration": 0.18287035208334146
                },
                {
                    "name": "D5",
                    "midi": 74,
                    "time": 277.59025001874977,
                    "velocity": 0.3858267716535433,
                    "duration": 0.18749998125002776
                },
                {
                    "name": "C5",
                    "midi": 72,
                    "time": 277.7777499999998,
                    "velocity": 0.3858267716535433,
                    "duration": 0.1851851666666562
                },
                {
                    "name": "D5",
                    "midi": 74,
                    "time": 277.96293516666645,
                    "velocity": 0.3858267716535433,
                    "duration": 0.18287035208334146
                },
                {
                    "name": "C5",
                    "midi": 72,
                    "time": 278.1458055187498,
                    "velocity": 0.3858267716535433,
                    "duration": 0.18749998125002776
                },
                {
                    "name": "D5",
                    "midi": 74,
                    "time": 278.3333054999998,
                    "velocity": 0.3858267716535433,
                    "duration": 0.1851851666666562
                },
                {
                    "name": "C5",
                    "midi": 72,
                    "time": 278.5184906666665,
                    "velocity": 0.3858267716535433,
                    "duration": 0.18287035208334146
                },
                {
                    "name": "D5",
                    "midi": 74,
                    "time": 278.7013610187498,
                    "velocity": 0.3858267716535433,
                    "duration": 0.18749998125002776
                },
                {
                    "name": "C5",
                    "midi": 72,
                    "time": 278.88886099999985,
                    "velocity": 0.3858267716535433,
                    "duration": 0.1851851666666562
                },
                {
                    "name": "D5",
                    "midi": 74,
                    "time": 279.0740461666665,
                    "velocity": 0.3858267716535433,
                    "duration": 0.18287035208334146
                },
                {
                    "name": "C5",
                    "midi": 72,
                    "time": 279.25691651874985,
                    "velocity": 0.3858267716535433,
                    "duration": 0.18749998125002776
                },
                {
                    "name": "D5",
                    "midi": 74,
                    "time": 279.4444164999999,
                    "velocity": 0.3858267716535433,
                    "duration": 0.1851851666666562
                },
                {
                    "name": "C5",
                    "midi": 72,
                    "time": 279.62960166666653,
                    "velocity": 0.3858267716535433,
                    "duration": 0.18287035208334146
                },
                {
                    "name": "D5",
                    "midi": 74,
                    "time": 279.8124720187499,
                    "velocity": 0.3858267716535433,
                    "duration": 0.18749998125002776
                },
                {
                    "name": "C5",
                    "midi": 72,
                    "time": 279.9999719999999,
                    "velocity": 0.3858267716535433,
                    "duration": 0.1851851666666562
                },
                {
                    "name": "D5",
                    "midi": 74,
                    "time": 280.18515716666656,
                    "velocity": 0.3858267716535433,
                    "duration": 0.18287035208334146
                },
                {
                    "name": "C5",
                    "midi": 72,
                    "time": 280.3680275187499,
                    "velocity": 0.3858267716535433,
                    "duration": 0.18749998125002776
                },
                {
                    "name": "D5",
                    "midi": 74,
                    "time": 280.5555274999999,
                    "velocity": 0.3858267716535433,
                    "duration": 0.1851851666666562
                },
                {
                    "name": "C5",
                    "midi": 72,
                    "time": 280.7407126666666,
                    "velocity": 0.3858267716535433,
                    "duration": 0.18287035208334146
                },
                {
                    "name": "D5",
                    "midi": 74,
                    "time": 280.9235830187499,
                    "velocity": 0.3858267716535433,
                    "duration": 0.18749998125002776
                }
            ],
            "controlChanges": {
                "7": [
                    {
                        "number": 7,
                        "time": 0,
                        "value": 1
                    }
                ],
                "10": [
                    {
                        "number": 10,
                        "time": 0,
                        "value": 0.7637795275590551
                    }
                ],
                "64": [
                    {
                        "number": 64,
                        "time": 211.11108999999976,
                        "value": 1
                    },
                    {
                        "number": 64,
                        "time": 213.05553424999985,
                        "value": 0
                    },
                    {
                        "number": 64,
                        "time": 213.33331199999986,
                        "value": 1
                    },
                    {
                        "number": 64,
                        "time": 224.2569220187498,
                        "value": 0
                    },
                    {
                        "number": 64,
                        "time": 272.2221949999997,
                        "value": 1
                    },
                    {
                        "number": 64,
                        "time": 275.09025026874974,
                        "value": 0
                    },
                    {
                        "number": 64,
                        "time": 276.66663899999975,
                        "value": 1
                    },
                    {
                        "number": 64,
                        "time": 280.9235830187499,
                        "value": 0
                    }
                ]
            },
            "id": 2,
            "name": "Instrument17",
            "instrumentNumber": 0,
            "instrument": "acoustic grand piano",
            "instrumentFamily": "piano",
            "channelNumber": 1,
            "isPercussion": false
        },
        {
            "startTime": 3.3333329999999997,
            "duration": 278.8888609999995,
            "length": 562,
            "notes": [
                {
                    "name": "F#3",
                    "midi": 54,
                    "time": 3.3333329999999997,
                    "velocity": 0.3858267716535433,
                    "duration": 0.5555555000000001
                },
                {
                    "name": "A#3",
                    "midi": 58,
                    "time": 3.3333329999999997,
                    "velocity": 0.3858267716535433,
                    "duration": 0.5555555000000001
                },
                {
                    "name": "E4",
                    "midi": 64,
                    "time": 3.3333329999999997,
                    "velocity": 0.3858267716535433,
                    "duration": 0.5555555000000001
                },
                {
                    "name": "A#3",
                    "midi": 58,
                    "time": 7.7777769999999995,
                    "velocity": 0.4881889763779528,
                    "duration": 0.2777777499999994
                },
                {
                    "name": "B3",
                    "midi": 59,
                    "time": 8.055554749999999,
                    "velocity": 0.4881889763779528,
                    "duration": 0.27777775000000027
                },
                {
                    "name": "C4",
                    "midi": 60,
                    "time": 8.3333325,
                    "velocity": 0.4881889763779528,
                    "duration": 0.27777775000000027
                },
                {
                    "name": "E4",
                    "midi": 64,
                    "time": 8.61111025,
                    "velocity": 0.4881889763779528,
                    "duration": 0.27777775000000027
                },
                {
                    "name": "F#4",
                    "midi": 66,
                    "time": 8.888888,
                    "velocity": 0.4881889763779528,
                    "duration": 0.5555555000000005
                },
                {
                    "name": "A#3",
                    "midi": 58,
                    "time": 13.333332,
                    "velocity": 0.4881889763779528,
                    "duration": 0.3680555187499994
                },
                {
                    "name": "B3",
                    "midi": 59,
                    "time": 13.70138751875,
                    "velocity": 0.4881889763779528,
                    "duration": 0.3726851479166662
                },
                {
                    "name": "C4",
                    "midi": 60,
                    "time": 14.074072666666666,
                    "velocity": 0.4881889763779528,
                    "duration": 0.3703703333333337
                },
                {
                    "name": "E4",
                    "midi": 64,
                    "time": 14.444443,
                    "velocity": 0.4881889763779528,
                    "duration": 0.5555555000000005
                },
                {
                    "name": "F#3",
                    "midi": 54,
                    "time": 16.666665000000002,
                    "velocity": 0.4881889763779528,
                    "duration": 0.3680555187500012
                },
                {
                    "name": "G3",
                    "midi": 55,
                    "time": 17.034720518750003,
                    "velocity": 0.4881889763779528,
                    "duration": 0.3726851479166662
                },
                {
                    "name": "G#3",
                    "midi": 56,
                    "time": 17.40740566666667,
                    "velocity": 0.4881889763779528,
                    "duration": 0.3703703333333337
                },
                {
                    "name": "C4",
                    "midi": 60,
                    "time": 17.777776000000003,
                    "velocity": 0.4881889763779528,
                    "duration": 0.5555555000000005
                },
                {
                    "name": "A#4",
                    "midi": 70,
                    "time": 18.888887000000004,
                    "velocity": 0.4881889763779528,
                    "duration": 0.3680555187500012
                },
                {
                    "name": "B4",
                    "midi": 71,
                    "time": 19.256942518750005,
                    "velocity": 0.4881889763779528,
                    "duration": 0.3726851479166662
                },
                {
                    "name": "C5",
                    "midi": 72,
                    "time": 19.62962766666667,
                    "velocity": 0.4881889763779528,
                    "duration": 0.3703703333333337
                },
                {
                    "name": "E5",
                    "midi": 76,
                    "time": 19.999998000000005,
                    "velocity": 0.4881889763779528,
                    "duration": 0.5555555000000005
                },
                {
                    "name": "G#4",
                    "midi": 68,
                    "time": 29.444441500000003,
                    "velocity": 0.4881889763779528,
                    "duration": 0.18518516666666685
                },
                {
                    "name": "G4",
                    "midi": 67,
                    "time": 29.62962666666667,
                    "velocity": 0.4881889763779528,
                    "duration": 0.18287035208333435
                },
                {
                    "name": "F#4",
                    "midi": 66,
                    "time": 29.812497018750005,
                    "velocity": 0.4881889763779528,
                    "duration": 0.18749998124999934
                },
                {
                    "name": "D4",
                    "midi": 62,
                    "time": 29.999997000000004,
                    "velocity": 0.4881889763779528,
                    "duration": 0.5555555000000005
                },
                {
                    "name": "D5",
                    "midi": 74,
                    "time": 29.999997000000004,
                    "velocity": 0.4881889763779528,
                    "duration": 0.5555555000000005
                },
                {
                    "name": "D5",
                    "midi": 74,
                    "time": 30.555552500000005,
                    "velocity": 0.4881889763779528,
                    "duration": 0.18518516666666685
                },
                {
                    "name": "C#5",
                    "midi": 73,
                    "time": 30.74073766666667,
                    "velocity": 0.4881889763779528,
                    "duration": 0.18287035208333435
                },
                {
                    "name": "C5",
                    "midi": 72,
                    "time": 30.923608018750006,
                    "velocity": 0.4881889763779528,
                    "duration": 0.18749998124999934
                },
                {
                    "name": "G#4",
                    "midi": 68,
                    "time": 31.111108000000005,
                    "velocity": 0.4881889763779528,
                    "duration": 0.5555555000000005
                },
                {
                    "name": "G#4",
                    "midi": 68,
                    "time": 31.666663500000006,
                    "velocity": 0.4881889763779528,
                    "duration": 0.18518516666666685
                },
                {
                    "name": "A4",
                    "midi": 69,
                    "time": 31.851848666666672,
                    "velocity": 0.4881889763779528,
                    "duration": 0.1828703520833308
                },
                {
                    "name": "A#4",
                    "midi": 70,
                    "time": 32.03471901875,
                    "velocity": 0.4881889763779528,
                    "duration": 0.18749998124999934
                },
                {
                    "name": "D5",
                    "midi": 74,
                    "time": 32.222219,
                    "velocity": 0.4881889763779528,
                    "duration": 0.555555499999997
                },
                {
                    "name": "D5",
                    "midi": 74,
                    "time": 32.7777745,
                    "velocity": 0.4881889763779528,
                    "duration": 0.1851851666666633
                },
                {
                    "name": "C#5",
                    "midi": 73,
                    "time": 32.96295966666666,
                    "velocity": 0.4881889763779528,
                    "duration": 0.18287035208333435
                },
                {
                    "name": "C5",
                    "midi": 72,
                    "time": 33.14583001875,
                    "velocity": 0.4881889763779528,
                    "duration": 0.18749998124999934
                },
                {
                    "name": "G#4",
                    "midi": 68,
                    "time": 33.33333,
                    "velocity": 0.5905511811023622,
                    "duration": 0.555555499999997
                },
                {
                    "name": "G#4",
                    "midi": 68,
                    "time": 33.888885499999994,
                    "velocity": 0.5905511811023622,
                    "duration": 0.1851851666666633
                },
                {
                    "name": "A4",
                    "midi": 69,
                    "time": 34.07407066666666,
                    "velocity": 0.5905511811023622,
                    "duration": 0.18287035208333435
                },
                {
                    "name": "A#4",
                    "midi": 70,
                    "time": 34.25694101874999,
                    "velocity": 0.5905511811023622,
                    "duration": 0.18749998124999934
                },
                {
                    "name": "D5",
                    "midi": 74,
                    "time": 34.44444099999999,
                    "velocity": 0.5905511811023622,
                    "duration": 0.555555499999997
                },
                {
                    "name": "D4",
                    "midi": 62,
                    "time": 34.99999649999999,
                    "velocity": 0.5905511811023622,
                    "duration": 0.1851851666666633
                },
                {
                    "name": "D#4",
                    "midi": 63,
                    "time": 35.18518166666665,
                    "velocity": 0.5905511811023622,
                    "duration": 0.18287035208333435
                },
                {
                    "name": "E4",
                    "midi": 64,
                    "time": 35.368052018749985,
                    "velocity": 0.5905511811023622,
                    "duration": 0.18749998124999934
                },
                {
                    "name": "G#4",
                    "midi": 68,
                    "time": 35.555551999999985,
                    "velocity": 0.5905511811023622,
                    "duration": 0.555555499999997
                },
                {
                    "name": "D5",
                    "midi": 74,
                    "time": 36.11110749999998,
                    "velocity": 0.5905511811023622,
                    "duration": 0.1851851666666633
                },
                {
                    "name": "C#5",
                    "midi": 73,
                    "time": 36.296292666666645,
                    "velocity": 0.5905511811023622,
                    "duration": 0.18287035208333435
                },
                {
                    "name": "C5",
                    "midi": 72,
                    "time": 36.47916301874998,
                    "velocity": 0.5905511811023622,
                    "duration": 0.18749998124999934
                },
                {
                    "name": "G#4",
                    "midi": 68,
                    "time": 36.66666299999998,
                    "velocity": 0.5905511811023622,
                    "duration": 0.555555499999997
                },
                {
                    "name": "G#5",
                    "midi": 80,
                    "time": 36.66666299999998,
                    "velocity": 0.5905511811023622,
                    "duration": 0.555555499999997
                },
                {
                    "name": "G#4",
                    "midi": 68,
                    "time": 37.222218499999975,
                    "velocity": 0.5905511811023622,
                    "duration": 0.1851851666666633
                },
                {
                    "name": "A4",
                    "midi": 69,
                    "time": 37.40740366666664,
                    "velocity": 0.5905511811023622,
                    "duration": 0.18287035208333435
                },
                {
                    "name": "A#4",
                    "midi": 70,
                    "time": 37.59027401874997,
                    "velocity": 0.5905511811023622,
                    "duration": 0.18749998124999934
                },
                {
                    "name": "D5",
                    "midi": 74,
                    "time": 37.77777399999997,
                    "velocity": 0.5905511811023622,
                    "duration": 0.555555499999997
                },
                {
                    "name": "D5",
                    "midi": 74,
                    "time": 38.33332949999997,
                    "velocity": 0.5905511811023622,
                    "duration": 0.1851851666666633
                },
                {
                    "name": "D#5",
                    "midi": 75,
                    "time": 38.51851466666663,
                    "velocity": 0.5905511811023622,
                    "duration": 0.18287035208333435
                },
                {
                    "name": "E5",
                    "midi": 76,
                    "time": 38.70138501874997,
                    "velocity": 0.5905511811023622,
                    "duration": 0.18749998124999934
                },
                {
                    "name": "G#5",
                    "midi": 80,
                    "time": 38.888884999999966,
                    "velocity": 0.5905511811023622,
                    "duration": 0.555555499999997
                },
                {
                    "name": "G#5",
                    "midi": 80,
                    "time": 39.44444049999996,
                    "velocity": 0.5905511811023622,
                    "duration": 0.1851851666666633
                },
                {
                    "name": "G5",
                    "midi": 79,
                    "time": 39.62962566666663,
                    "velocity": 0.5905511811023622,
                    "duration": 0.18287035208333435
                },
                {
                    "name": "F#5",
                    "midi": 78,
                    "time": 39.81249601874996,
                    "velocity": 0.5905511811023622,
                    "duration": 0.18749998124999934
                },
                {
                    "name": "D5",
                    "midi": 74,
                    "time": 39.99999599999996,
                    "velocity": 0.5905511811023622,
                    "duration": 0.555555499999997
                },
                {
                    "name": "D5",
                    "midi": 74,
                    "time": 40.55555149999996,
                    "velocity": 0.5905511811023622,
                    "duration": 0.1851851666666633
                },
                {
                    "name": "C#5",
                    "midi": 73,
                    "time": 40.74073666666662,
                    "velocity": 0.5905511811023622,
                    "duration": 0.18287035208333435
                },
                {
                    "name": "C5",
                    "midi": 72,
                    "time": 40.923607018749955,
                    "velocity": 0.5905511811023622,
                    "duration": 0.18749998124999934
                },
                {
                    "name": "G#4",
                    "midi": 68,
                    "time": 41.111106999999954,
                    "velocity": 0.5905511811023622,
                    "duration": 0.555555499999997
                },
                {
                    "name": "G#4",
                    "midi": 68,
                    "time": 41.66666249999995,
                    "velocity": 0.5905511811023622,
                    "duration": 0.1851851666666633
                },
                {
                    "name": "A4",
                    "midi": 69,
                    "time": 41.851847666666615,
                    "velocity": 0.5905511811023622,
                    "duration": 0.18287035208333435
                },
                {
                    "name": "A#4",
                    "midi": 70,
                    "time": 42.03471801874995,
                    "velocity": 0.5905511811023622,
                    "duration": 0.18749998124999934
                },
                {
                    "name": "D5",
                    "midi": 74,
                    "time": 42.22221799999995,
                    "velocity": 0.5905511811023622,
                    "duration": 0.555555499999997
                },
                {
                    "name": "G#5",
                    "midi": 80,
                    "time": 42.777773499999945,
                    "velocity": 0.5905511811023622,
                    "duration": 0.1851851666666633
                },
                {
                    "name": "G5",
                    "midi": 79,
                    "time": 42.96295866666661,
                    "velocity": 0.5905511811023622,
                    "duration": 0.18287035208333435
                },
                {
                    "name": "F#5",
                    "midi": 78,
                    "time": 43.14582901874994,
                    "velocity": 0.5905511811023622,
                    "duration": 0.18749998124999934
                },
                {
                    "name": "D5",
                    "midi": 74,
                    "time": 43.33332899999994,
                    "velocity": 0.5905511811023622,
                    "duration": 0.555555499999997
                },
                {
                    "name": "D5",
                    "midi": 74,
                    "time": 43.88888449999994,
                    "velocity": 0.5905511811023622,
                    "duration": 0.1851851666666633
                },
                {
                    "name": "C#5",
                    "midi": 73,
                    "time": 44.0740696666666,
                    "velocity": 0.5905511811023622,
                    "duration": 0.18287035208333435
                },
                {
                    "name": "C5",
                    "midi": 72,
                    "time": 44.25694001874994,
                    "velocity": 0.5905511811023622,
                    "duration": 0.18749998124999934
                },
                {
                    "name": "G#4",
                    "midi": 68,
                    "time": 44.444439999999936,
                    "velocity": 0.5905511811023622,
                    "duration": 0.555555499999997
                },
                {
                    "name": "G#5",
                    "midi": 80,
                    "time": 44.444439999999936,
                    "velocity": 0.5905511811023622,
                    "duration": 0.555555499999997
                },
                {
                    "name": "G#4",
                    "midi": 68,
                    "time": 44.99999549999993,
                    "velocity": 0.5905511811023622,
                    "duration": 0.1851851666666633
                },
                {
                    "name": "A4",
                    "midi": 69,
                    "time": 45.1851806666666,
                    "velocity": 0.5905511811023622,
                    "duration": 0.18287035208333435
                },
                {
                    "name": "A#4",
                    "midi": 70,
                    "time": 45.36805101874993,
                    "velocity": 0.5905511811023622,
                    "duration": 0.18749998124999934
                },
                {
                    "name": "D5",
                    "midi": 74,
                    "time": 45.55555099999993,
                    "velocity": 0.5905511811023622,
                    "duration": 0.555555499999997
                },
                {
                    "name": "D6",
                    "midi": 86,
                    "time": 45.55555099999993,
                    "velocity": 0.5905511811023622,
                    "duration": 0.555555499999997
                },
                {
                    "name": "D5",
                    "midi": 74,
                    "time": 46.11110649999993,
                    "velocity": 0.5905511811023622,
                    "duration": 0.1851851666666633
                },
                {
                    "name": "C#5",
                    "midi": 73,
                    "time": 46.29629166666659,
                    "velocity": 0.5905511811023622,
                    "duration": 0.18287035208333435
                },
                {
                    "name": "C5",
                    "midi": 72,
                    "time": 46.479162018749925,
                    "velocity": 0.5905511811023622,
                    "duration": 0.18749998124999934
                },
                {
                    "name": "G#4",
                    "midi": 68,
                    "time": 46.666661999999924,
                    "velocity": 0.6929133858267716,
                    "duration": 0.555555499999997
                },
                {
                    "name": "G#5",
                    "midi": 80,
                    "time": 46.666661999999924,
                    "velocity": 0.6929133858267716,
                    "duration": 0.555555499999997
                },
                {
                    "name": "G#4",
                    "midi": 68,
                    "time": 47.22221749999992,
                    "velocity": 0.6929133858267716,
                    "duration": 0.1851851666666633
                },
                {
                    "name": "A4",
                    "midi": 69,
                    "time": 47.407402666666584,
                    "velocity": 0.6929133858267716,
                    "duration": 0.18287035208333435
                },
                {
                    "name": "A#4",
                    "midi": 70,
                    "time": 47.59027301874992,
                    "velocity": 0.6929133858267716,
                    "duration": 0.18749998124999934
                },
                {
                    "name": "D5",
                    "midi": 74,
                    "time": 47.77777299999992,
                    "velocity": 0.6929133858267716,
                    "duration": 0.555555499999997
                },
                {
                    "name": "D5",
                    "midi": 74,
                    "time": 48.333328499999915,
                    "velocity": 0.6929133858267716,
                    "duration": 0.1851851666666633
                },
                {
                    "name": "D#5",
                    "midi": 75,
                    "time": 48.51851366666658,
                    "velocity": 0.6929133858267716,
                    "duration": 0.18287035208333435
                },
                {
                    "name": "E5",
                    "midi": 76,
                    "time": 48.70138401874991,
                    "velocity": 0.6929133858267716,
                    "duration": 0.18749998124999934
                },
                {
                    "name": "G#5",
                    "midi": 80,
                    "time": 48.88888399999991,
                    "velocity": 0.6929133858267716,
                    "duration": 1.111111000000001
                },
                {
                    "name": "D3",
                    "midi": 50,
                    "time": 49.99999499999991,
                    "velocity": 0.6929133858267716,
                    "duration": 0.1851851666666633
                },
                {
                    "name": "F#3",
                    "midi": 54,
                    "time": 49.99999499999991,
                    "velocity": 0.6929133858267716,
                    "duration": 0.1851851666666633
                },
                {
                    "name": "A#3",
                    "midi": 58,
                    "time": 50.185180166666576,
                    "velocity": 0.6929133858267716,
                    "duration": 0.18287035208333435
                },
                {
                    "name": "D3",
                    "midi": 50,
                    "time": 50.36805051874991,
                    "velocity": 0.6929133858267716,
                    "duration": 0.18749998124999934
                },
                {
                    "name": "F#3",
                    "midi": 54,
                    "time": 50.36805051874991,
                    "velocity": 0.6929133858267716,
                    "duration": 0.18749998124999934
                },
                {
                    "name": "A#3",
                    "midi": 58,
                    "time": 50.55555049999991,
                    "velocity": 0.6929133858267716,
                    "duration": 0.1851851666666633
                },
                {
                    "name": "D3",
                    "midi": 50,
                    "time": 50.74073566666657,
                    "velocity": 0.6929133858267716,
                    "duration": 0.18287035208333435
                },
                {
                    "name": "F#3",
                    "midi": 54,
                    "time": 50.74073566666657,
                    "velocity": 0.6929133858267716,
                    "duration": 0.18287035208333435
                },
                {
                    "name": "A#3",
                    "midi": 58,
                    "time": 50.92360601874991,
                    "velocity": 0.6929133858267716,
                    "duration": 0.18749998124999934
                },
                {
                    "name": "D#3",
                    "midi": 51,
                    "time": 51.11110599999991,
                    "velocity": 0.6929133858267716,
                    "duration": 0.1851851666666633
                },
                {
                    "name": "G3",
                    "midi": 55,
                    "time": 51.11110599999991,
                    "velocity": 0.6929133858267716,
                    "duration": 0.1851851666666633
                },
                {
                    "name": "C#4",
                    "midi": 61,
                    "time": 51.29629116666657,
                    "velocity": 0.6929133858267716,
                    "duration": 0.18287035208333435
                },
                {
                    "name": "D#3",
                    "midi": 51,
                    "time": 51.479161518749905,
                    "velocity": 0.6929133858267716,
                    "duration": 0.18749998124999934
                },
                {
                    "name": "G3",
                    "midi": 55,
                    "time": 51.479161518749905,
                    "velocity": 0.6929133858267716,
                    "duration": 0.18749998124999934
                },
                {
                    "name": "C#4",
                    "midi": 61,
                    "time": 51.666661499999904,
                    "velocity": 0.6929133858267716,
                    "duration": 0.1851851666666633
                },
                {
                    "name": "D#3",
                    "midi": 51,
                    "time": 51.85184666666657,
                    "velocity": 0.6929133858267716,
                    "duration": 0.18287035208333435
                },
                {
                    "name": "G3",
                    "midi": 55,
                    "time": 51.85184666666657,
                    "velocity": 0.6929133858267716,
                    "duration": 0.18287035208333435
                },
                {
                    "name": "C#4",
                    "midi": 61,
                    "time": 52.0347170187499,
                    "velocity": 0.6929133858267716,
                    "duration": 0.18749998124999934
                },
                {
                    "name": "E3",
                    "midi": 52,
                    "time": 52.2222169999999,
                    "velocity": 0.6929133858267716,
                    "duration": 0.1851851666666633
                },
                {
                    "name": "G#3",
                    "midi": 56,
                    "time": 52.2222169999999,
                    "velocity": 0.6929133858267716,
                    "duration": 0.1851851666666633
                },
                {
                    "name": "C4",
                    "midi": 60,
                    "time": 52.407402166666564,
                    "velocity": 0.6929133858267716,
                    "duration": 0.18287035208333435
                },
                {
                    "name": "E3",
                    "midi": 52,
                    "time": 52.5902725187499,
                    "velocity": 0.6929133858267716,
                    "duration": 0.18749998124999934
                },
                {
                    "name": "G#3",
                    "midi": 56,
                    "time": 52.5902725187499,
                    "velocity": 0.6929133858267716,
                    "duration": 0.18749998124999934
                },
                {
                    "name": "C4",
                    "midi": 60,
                    "time": 52.7777724999999,
                    "velocity": 0.6929133858267716,
                    "duration": 0.1851851666666633
                },
                {
                    "name": "E3",
                    "midi": 52,
                    "time": 52.96295766666656,
                    "velocity": 0.6929133858267716,
                    "duration": 0.18287035208333435
                },
                {
                    "name": "G#3",
                    "midi": 56,
                    "time": 52.96295766666656,
                    "velocity": 0.6929133858267716,
                    "duration": 0.18287035208333435
                },
                {
                    "name": "C4",
                    "midi": 60,
                    "time": 53.145828018749896,
                    "velocity": 0.6929133858267716,
                    "duration": 0.18749998124999934
                },
                {
                    "name": "F3",
                    "midi": 53,
                    "time": 53.333327999999895,
                    "velocity": 0.5905511811023622,
                    "duration": 0.1851851666666633
                },
                {
                    "name": "A3",
                    "midi": 57,
                    "time": 53.333327999999895,
                    "velocity": 0.5905511811023622,
                    "duration": 0.1851851666666633
                },
                {
                    "name": "D#4",
                    "midi": 63,
                    "time": 53.51851316666656,
                    "velocity": 0.5905511811023622,
                    "duration": 0.18287035208333435
                },
                {
                    "name": "F3",
                    "midi": 53,
                    "time": 53.70138351874989,
                    "velocity": 0.5905511811023622,
                    "duration": 0.18749998124999934
                },
                {
                    "name": "A3",
                    "midi": 57,
                    "time": 53.70138351874989,
                    "velocity": 0.5905511811023622,
                    "duration": 0.18749998124999934
                },
                {
                    "name": "D#4",
                    "midi": 63,
                    "time": 53.88888349999989,
                    "velocity": 0.5905511811023622,
                    "duration": 0.1851851666666633
                },
                {
                    "name": "F3",
                    "midi": 53,
                    "time": 54.074068666666555,
                    "velocity": 0.5905511811023622,
                    "duration": 0.18287035208333435
                },
                {
                    "name": "A3",
                    "midi": 57,
                    "time": 54.074068666666555,
                    "velocity": 0.5905511811023622,
                    "duration": 0.18287035208333435
                },
                {
                    "name": "D#4",
                    "midi": 63,
                    "time": 54.25693901874989,
                    "velocity": 0.5905511811023622,
                    "duration": 0.18749998124999934
                },
                {
                    "name": "F#3",
                    "midi": 54,
                    "time": 54.44443899999989,
                    "velocity": 0.5905511811023622,
                    "duration": 0.1851851666666633
                },
                {
                    "name": "A#3",
                    "midi": 58,
                    "time": 54.44443899999989,
                    "velocity": 0.5905511811023622,
                    "duration": 0.1851851666666633
                },
                {
                    "name": "D4",
                    "midi": 62,
                    "time": 54.62962416666655,
                    "velocity": 0.5905511811023622,
                    "duration": 0.18287035208333435
                },
                {
                    "name": "F#3",
                    "midi": 54,
                    "time": 54.81249451874989,
                    "velocity": 0.5905511811023622,
                    "duration": 0.18749998124999934
                },
                {
                    "name": "A#3",
                    "midi": 58,
                    "time": 54.81249451874989,
                    "velocity": 0.5905511811023622,
                    "duration": 0.18749998124999934
                },
                {
                    "name": "D4",
                    "midi": 62,
                    "time": 54.999994499999886,
                    "velocity": 0.5905511811023622,
                    "duration": 0.1851851666666633
                },
                {
                    "name": "F#3",
                    "midi": 54,
                    "time": 55.18517966666655,
                    "velocity": 0.5905511811023622,
                    "duration": 0.18287035208333435
                },
                {
                    "name": "A#3",
                    "midi": 58,
                    "time": 55.18517966666655,
                    "velocity": 0.5905511811023622,
                    "duration": 0.18287035208333435
                },
                {
                    "name": "D4",
                    "midi": 62,
                    "time": 55.368050018749884,
                    "velocity": 0.5905511811023622,
                    "duration": 0.18749998124999934
                },
                {
                    "name": "G3",
                    "midi": 55,
                    "time": 55.55554999999988,
                    "velocity": 0.5905511811023622,
                    "duration": 0.1851851666666633
                },
                {
                    "name": "B3",
                    "midi": 59,
                    "time": 55.55554999999988,
                    "velocity": 0.5905511811023622,
                    "duration": 0.1851851666666633
                },
                {
                    "name": "F4",
                    "midi": 65,
                    "time": 55.740735166666546,
                    "velocity": 0.5905511811023622,
                    "duration": 0.18287035208333435
                },
                {
                    "name": "G3",
                    "midi": 55,
                    "time": 55.92360551874988,
                    "velocity": 0.5905511811023622,
                    "duration": 0.18749998124999934
                },
                {
                    "name": "B3",
                    "midi": 59,
                    "time": 55.92360551874988,
                    "velocity": 0.5905511811023622,
                    "duration": 0.18749998124999934
                },
                {
                    "name": "F4",
                    "midi": 65,
                    "time": 56.11110549999988,
                    "velocity": 0.5905511811023622,
                    "duration": 0.1851851666666633
                },
                {
                    "name": "G3",
                    "midi": 55,
                    "time": 56.29629066666654,
                    "velocity": 0.5905511811023622,
                    "duration": 0.18287035208333435
                },
                {
                    "name": "B3",
                    "midi": 59,
                    "time": 56.29629066666654,
                    "velocity": 0.5905511811023622,
                    "duration": 0.18287035208333435
                },
                {
                    "name": "F4",
                    "midi": 65,
                    "time": 56.47916101874988,
                    "velocity": 0.5905511811023622,
                    "duration": 0.18749998124999934
                },
                {
                    "name": "G#3",
                    "midi": 56,
                    "time": 56.66666099999988,
                    "velocity": 0.4881889763779528,
                    "duration": 0.1851851666666633
                },
                {
                    "name": "C4",
                    "midi": 60,
                    "time": 56.66666099999988,
                    "velocity": 0.4881889763779528,
                    "duration": 0.1851851666666633
                },
                {
                    "name": "E4",
                    "midi": 64,
                    "time": 56.85184616666654,
                    "velocity": 0.4881889763779528,
                    "duration": 0.18287035208333435
                },
                {
                    "name": "G#3",
                    "midi": 56,
                    "time": 57.034716518749875,
                    "velocity": 0.4881889763779528,
                    "duration": 0.18749998124999934
                },
                {
                    "name": "C4",
                    "midi": 60,
                    "time": 57.034716518749875,
                    "velocity": 0.4881889763779528,
                    "duration": 0.18749998124999934
                },
                {
                    "name": "E4",
                    "midi": 64,
                    "time": 57.222216499999874,
                    "velocity": 0.4881889763779528,
                    "duration": 0.1851851666666633
                },
                {
                    "name": "G#3",
                    "midi": 56,
                    "time": 57.40740166666654,
                    "velocity": 0.4881889763779528,
                    "duration": 0.18287035208333435
                },
                {
                    "name": "C4",
                    "midi": 60,
                    "time": 57.40740166666654,
                    "velocity": 0.4881889763779528,
                    "duration": 0.18287035208333435
                },
                {
                    "name": "E4",
                    "midi": 64,
                    "time": 57.59027201874987,
                    "velocity": 0.4881889763779528,
                    "duration": 0.18749998124999934
                },
                {
                    "name": "A3",
                    "midi": 57,
                    "time": 57.77777199999987,
                    "velocity": 0.4881889763779528,
                    "duration": 0.1851851666666633
                },
                {
                    "name": "C#4",
                    "midi": 61,
                    "time": 57.77777199999987,
                    "velocity": 0.4881889763779528,
                    "duration": 0.1851851666666633
                },
                {
                    "name": "G4",
                    "midi": 67,
                    "time": 57.962957166666534,
                    "velocity": 0.4881889763779528,
                    "duration": 0.18287035208333435
                },
                {
                    "name": "A3",
                    "midi": 57,
                    "time": 58.14582751874987,
                    "velocity": 0.4881889763779528,
                    "duration": 0.18749998124999934
                },
                {
                    "name": "C#4",
                    "midi": 61,
                    "time": 58.14582751874987,
                    "velocity": 0.4881889763779528,
                    "duration": 0.18749998124999934
                },
                {
                    "name": "G4",
                    "midi": 67,
                    "time": 58.33332749999987,
                    "velocity": 0.4881889763779528,
                    "duration": 0.1851851666666633
                },
                {
                    "name": "A3",
                    "midi": 57,
                    "time": 58.51851266666653,
                    "velocity": 0.4881889763779528,
                    "duration": 0.18287035208333435
                },
                {
                    "name": "C#4",
                    "midi": 61,
                    "time": 58.51851266666653,
                    "velocity": 0.4881889763779528,
                    "duration": 0.18287035208333435
                },
                {
                    "name": "G4",
                    "midi": 67,
                    "time": 58.701383018749866,
                    "velocity": 0.4881889763779528,
                    "duration": 0.18749998124999934
                },
                {
                    "name": "A#3",
                    "midi": 58,
                    "time": 58.888882999999865,
                    "velocity": 0.4881889763779528,
                    "duration": 0.1851851666666633
                },
                {
                    "name": "D4",
                    "midi": 62,
                    "time": 58.888882999999865,
                    "velocity": 0.4881889763779528,
                    "duration": 0.1851851666666633
                },
                {
                    "name": "F#4",
                    "midi": 66,
                    "time": 59.07406816666653,
                    "velocity": 0.4881889763779528,
                    "duration": 0.18287035208333435
                },
                {
                    "name": "A#3",
                    "midi": 58,
                    "time": 59.25693851874986,
                    "velocity": 0.4881889763779528,
                    "duration": 0.18749998124999934
                },
                {
                    "name": "D4",
                    "midi": 62,
                    "time": 59.25693851874986,
                    "velocity": 0.4881889763779528,
                    "duration": 0.18749998124999934
                },
                {
                    "name": "F#4",
                    "midi": 66,
                    "time": 59.44443849999986,
                    "velocity": 0.4881889763779528,
                    "duration": 0.1851851666666633
                },
                {
                    "name": "A#3",
                    "midi": 58,
                    "time": 59.629623666666525,
                    "velocity": 0.4881889763779528,
                    "duration": 0.18287035208333435
                },
                {
                    "name": "D4",
                    "midi": 62,
                    "time": 59.629623666666525,
                    "velocity": 0.4881889763779528,
                    "duration": 0.18287035208333435
                },
                {
                    "name": "F#4",
                    "midi": 66,
                    "time": 59.81249401874986,
                    "velocity": 0.4881889763779528,
                    "duration": 0.18749998124999934
                },
                {
                    "name": "B3",
                    "midi": 59,
                    "time": 59.99999399999986,
                    "velocity": 0.3858267716535433,
                    "duration": 0.1851851666666633
                },
                {
                    "name": "D#4",
                    "midi": 63,
                    "time": 59.99999399999986,
                    "velocity": 0.3858267716535433,
                    "duration": 0.1851851666666633
                },
                {
                    "name": "A4",
                    "midi": 69,
                    "time": 60.18517916666652,
                    "velocity": 0.3858267716535433,
                    "duration": 0.18287035208333435
                },
                {
                    "name": "B3",
                    "midi": 59,
                    "time": 60.36804951874986,
                    "velocity": 0.3858267716535433,
                    "duration": 0.18749998124999934
                },
                {
                    "name": "D#4",
                    "midi": 63,
                    "time": 60.36804951874986,
                    "velocity": 0.3858267716535433,
                    "duration": 0.18749998124999934
                },
                {
                    "name": "A4",
                    "midi": 69,
                    "time": 60.555549499999856,
                    "velocity": 0.3858267716535433,
                    "duration": 0.1851851666666633
                },
                {
                    "name": "B3",
                    "midi": 59,
                    "time": 60.74073466666652,
                    "velocity": 0.3858267716535433,
                    "duration": 0.18287035208333435
                },
                {
                    "name": "D#4",
                    "midi": 63,
                    "time": 60.74073466666652,
                    "velocity": 0.3858267716535433,
                    "duration": 0.18287035208333435
                },
                {
                    "name": "A4",
                    "midi": 69,
                    "time": 60.92360501874985,
                    "velocity": 0.3858267716535433,
                    "duration": 0.18749998124999934
                },
                {
                    "name": "C4",
                    "midi": 60,
                    "time": 61.11110499999985,
                    "velocity": 0.3858267716535433,
                    "duration": 0.1851851666666633
                },
                {
                    "name": "E4",
                    "midi": 64,
                    "time": 61.11110499999985,
                    "velocity": 0.3858267716535433,
                    "duration": 0.1851851666666633
                },
                {
                    "name": "G#4",
                    "midi": 68,
                    "time": 61.296290166666516,
                    "velocity": 0.3858267716535433,
                    "duration": 0.18287035208333435
                },
                {
                    "name": "C4",
                    "midi": 60,
                    "time": 61.47916051874985,
                    "velocity": 0.3858267716535433,
                    "duration": 0.18749998124999934
                },
                {
                    "name": "E4",
                    "midi": 64,
                    "time": 61.47916051874985,
                    "velocity": 0.3858267716535433,
                    "duration": 0.18749998124999934
                },
                {
                    "name": "G#4",
                    "midi": 68,
                    "time": 61.66666049999985,
                    "velocity": 0.3858267716535433,
                    "duration": 0.1851851666666633
                },
                {
                    "name": "C4",
                    "midi": 60,
                    "time": 61.85184566666651,
                    "velocity": 0.3858267716535433,
                    "duration": 0.18287035208333435
                },
                {
                    "name": "E4",
                    "midi": 64,
                    "time": 61.85184566666651,
                    "velocity": 0.3858267716535433,
                    "duration": 0.18287035208333435
                },
                {
                    "name": "G#4",
                    "midi": 68,
                    "time": 62.03471601874985,
                    "velocity": 0.3858267716535433,
                    "duration": 0.18749998124999934
                },
                {
                    "name": "C#4",
                    "midi": 61,
                    "time": 62.22221599999985,
                    "velocity": 0.3858267716535433,
                    "duration": 0.1851851666666633
                },
                {
                    "name": "F4",
                    "midi": 65,
                    "time": 62.22221599999985,
                    "velocity": 0.3858267716535433,
                    "duration": 0.1851851666666633
                },
                {
                    "name": "B4",
                    "midi": 71,
                    "time": 62.40740116666651,
                    "velocity": 0.3858267716535433,
                    "duration": 0.18287035208333435
                },
                {
                    "name": "C#4",
                    "midi": 61,
                    "time": 62.590271518749844,
                    "velocity": 0.3858267716535433,
                    "duration": 0.18749998124999934
                },
                {
                    "name": "F4",
                    "midi": 65,
                    "time": 62.590271518749844,
                    "velocity": 0.3858267716535433,
                    "duration": 0.18749998124999934
                },
                {
                    "name": "B4",
                    "midi": 71,
                    "time": 62.777771499999844,
                    "velocity": 0.3858267716535433,
                    "duration": 0.1851851666666633
                },
                {
                    "name": "C#4",
                    "midi": 61,
                    "time": 62.96295666666651,
                    "velocity": 0.3858267716535433,
                    "duration": 0.18287035208333435
                },
                {
                    "name": "F4",
                    "midi": 65,
                    "time": 62.96295666666651,
                    "velocity": 0.3858267716535433,
                    "duration": 0.18287035208333435
                },
                {
                    "name": "B4",
                    "midi": 71,
                    "time": 63.14582701874984,
                    "velocity": 0.3858267716535433,
                    "duration": 0.18749998124999934
                },
                {
                    "name": "D4",
                    "midi": 62,
                    "time": 63.33332699999984,
                    "velocity": 0.3858267716535433,
                    "duration": 0.1851851666666633
                },
                {
                    "name": "F#4",
                    "midi": 66,
                    "time": 63.33332699999984,
                    "velocity": 0.3858267716535433,
                    "duration": 0.1851851666666633
                },
                {
                    "name": "A#4",
                    "midi": 70,
                    "time": 63.518512166666504,
                    "velocity": 0.3858267716535433,
                    "duration": 0.18287035208333435
                },
                {
                    "name": "D4",
                    "midi": 62,
                    "time": 63.70138251874984,
                    "velocity": 0.3858267716535433,
                    "duration": 0.18749998124999934
                },
                {
                    "name": "F#4",
                    "midi": 66,
                    "time": 63.70138251874984,
                    "velocity": 0.3858267716535433,
                    "duration": 0.18749998124999934
                },
                {
                    "name": "A#4",
                    "midi": 70,
                    "time": 63.88888249999984,
                    "velocity": 0.3858267716535433,
                    "duration": 0.1851851666666704
                },
                {
                    "name": "D4",
                    "midi": 62,
                    "time": 64.07406766666651,
                    "velocity": 0.3858267716535433,
                    "duration": 0.18287035208332725
                },
                {
                    "name": "F#4",
                    "midi": 66,
                    "time": 64.07406766666651,
                    "velocity": 0.3858267716535433,
                    "duration": 0.18287035208332725
                },
                {
                    "name": "A#4",
                    "midi": 70,
                    "time": 64.25693801874984,
                    "velocity": 0.3858267716535433,
                    "duration": 0.18749998124999934
                },
                {
                    "name": "D4",
                    "midi": 62,
                    "time": 64.44443799999983,
                    "velocity": 0.3858267716535433,
                    "duration": 0.1851851666666704
                },
                {
                    "name": "F#4",
                    "midi": 66,
                    "time": 64.44443799999983,
                    "velocity": 0.3858267716535433,
                    "duration": 0.1851851666666704
                },
                {
                    "name": "A#4",
                    "midi": 70,
                    "time": 64.6296231666665,
                    "velocity": 0.3858267716535433,
                    "duration": 0.18287035208332725
                },
                {
                    "name": "D4",
                    "midi": 62,
                    "time": 64.81249351874983,
                    "velocity": 0.3858267716535433,
                    "duration": 0.18749998124999934
                },
                {
                    "name": "F#4",
                    "midi": 66,
                    "time": 64.81249351874983,
                    "velocity": 0.3858267716535433,
                    "duration": 0.18749998124999934
                },
                {
                    "name": "A#4",
                    "midi": 70,
                    "time": 64.99999349999983,
                    "velocity": 0.3858267716535433,
                    "duration": 0.1851851666666704
                },
                {
                    "name": "D4",
                    "midi": 62,
                    "time": 65.1851786666665,
                    "velocity": 0.3858267716535433,
                    "duration": 0.18287035208332725
                },
                {
                    "name": "F#4",
                    "midi": 66,
                    "time": 65.1851786666665,
                    "velocity": 0.3858267716535433,
                    "duration": 0.18287035208332725
                },
                {
                    "name": "A#4",
                    "midi": 70,
                    "time": 65.36804901874983,
                    "velocity": 0.3858267716535433,
                    "duration": 0.18749998124999934
                },
                {
                    "name": "B3",
                    "midi": 59,
                    "time": 65.55554899999983,
                    "velocity": 0.4881889763779528,
                    "duration": 0.1851851666666704
                },
                {
                    "name": "D#4",
                    "midi": 63,
                    "time": 65.55554899999983,
                    "velocity": 0.4881889763779528,
                    "duration": 0.1851851666666704
                },
                {
                    "name": "A4",
                    "midi": 69,
                    "time": 65.7407341666665,
                    "velocity": 0.4881889763779528,
                    "duration": 0.18287035208332725
                },
                {
                    "name": "B3",
                    "midi": 59,
                    "time": 65.92360451874983,
                    "velocity": 0.4881889763779528,
                    "duration": 0.18749998124999934
                },
                {
                    "name": "D#4",
                    "midi": 63,
                    "time": 65.92360451874983,
                    "velocity": 0.4881889763779528,
                    "duration": 0.18749998124999934
                },
                {
                    "name": "A4",
                    "midi": 69,
                    "time": 66.11110449999983,
                    "velocity": 0.4881889763779528,
                    "duration": 0.1851851666666704
                },
                {
                    "name": "B3",
                    "midi": 59,
                    "time": 66.2962896666665,
                    "velocity": 0.4881889763779528,
                    "duration": 0.18287035208332725
                },
                {
                    "name": "D#4",
                    "midi": 63,
                    "time": 66.2962896666665,
                    "velocity": 0.4881889763779528,
                    "duration": 0.18287035208332725
                },
                {
                    "name": "A4",
                    "midi": 69,
                    "time": 66.47916001874982,
                    "velocity": 0.4881889763779528,
                    "duration": 0.18749998124999934
                },
                {
                    "name": "B3",
                    "midi": 59,
                    "time": 66.66665999999982,
                    "velocity": 0.4881889763779528,
                    "duration": 0.1851851666666704
                },
                {
                    "name": "D#4",
                    "midi": 63,
                    "time": 66.66665999999982,
                    "velocity": 0.4881889763779528,
                    "duration": 0.1851851666666704
                },
                {
                    "name": "A4",
                    "midi": 69,
                    "time": 66.8518451666665,
                    "velocity": 0.4881889763779528,
                    "duration": 0.18287035208332725
                },
                {
                    "name": "B3",
                    "midi": 59,
                    "time": 67.03471551874982,
                    "velocity": 0.4881889763779528,
                    "duration": 0.18749998124999934
                },
                {
                    "name": "D#4",
                    "midi": 63,
                    "time": 67.03471551874982,
                    "velocity": 0.4881889763779528,
                    "duration": 0.18749998124999934
                },
                {
                    "name": "A4",
                    "midi": 69,
                    "time": 67.22221549999982,
                    "velocity": 0.4881889763779528,
                    "duration": 0.1851851666666704
                },
                {
                    "name": "B3",
                    "midi": 59,
                    "time": 67.40740066666649,
                    "velocity": 0.4881889763779528,
                    "duration": 0.18287035208332725
                },
                {
                    "name": "D#4",
                    "midi": 63,
                    "time": 67.40740066666649,
                    "velocity": 0.4881889763779528,
                    "duration": 0.18287035208332725
                },
                {
                    "name": "A4",
                    "midi": 69,
                    "time": 67.59027101874982,
                    "velocity": 0.4881889763779528,
                    "duration": 0.18749998124999934
                },
                {
                    "name": "C#4",
                    "midi": 61,
                    "time": 67.77777099999982,
                    "velocity": 0.3858267716535433,
                    "duration": 0.1851851666666704
                },
                {
                    "name": "F4",
                    "midi": 65,
                    "time": 67.77777099999982,
                    "velocity": 0.3858267716535433,
                    "duration": 0.1851851666666704
                },
                {
                    "name": "B4",
                    "midi": 71,
                    "time": 67.96295616666649,
                    "velocity": 0.3858267716535433,
                    "duration": 0.18287035208332725
                },
                {
                    "name": "C#4",
                    "midi": 61,
                    "time": 68.14582651874981,
                    "velocity": 0.3858267716535433,
                    "duration": 0.18749998124999934
                },
                {
                    "name": "F4",
                    "midi": 65,
                    "time": 68.14582651874981,
                    "velocity": 0.3858267716535433,
                    "duration": 0.18749998124999934
                },
                {
                    "name": "B4",
                    "midi": 71,
                    "time": 68.33332649999981,
                    "velocity": 0.3858267716535433,
                    "duration": 0.1851851666666704
                },
                {
                    "name": "C#4",
                    "midi": 61,
                    "time": 68.51851166666648,
                    "velocity": 0.3858267716535433,
                    "duration": 0.18287035208332725
                },
                {
                    "name": "F4",
                    "midi": 65,
                    "time": 68.51851166666648,
                    "velocity": 0.3858267716535433,
                    "duration": 0.18287035208332725
                },
                {
                    "name": "B4",
                    "midi": 71,
                    "time": 68.70138201874981,
                    "velocity": 0.3858267716535433,
                    "duration": 0.18749998124999934
                },
                {
                    "name": "C#4",
                    "midi": 61,
                    "time": 68.88888199999981,
                    "velocity": 0.3858267716535433,
                    "duration": 0.1851851666666704
                },
                {
                    "name": "F4",
                    "midi": 65,
                    "time": 68.88888199999981,
                    "velocity": 0.3858267716535433,
                    "duration": 0.1851851666666704
                },
                {
                    "name": "B4",
                    "midi": 71,
                    "time": 69.07406716666648,
                    "velocity": 0.3858267716535433,
                    "duration": 0.18287035208332725
                },
                {
                    "name": "C#4",
                    "midi": 61,
                    "time": 69.25693751874981,
                    "velocity": 0.3858267716535433,
                    "duration": 0.18749998124999934
                },
                {
                    "name": "F4",
                    "midi": 65,
                    "time": 69.25693751874981,
                    "velocity": 0.3858267716535433,
                    "duration": 0.18749998124999934
                },
                {
                    "name": "B4",
                    "midi": 71,
                    "time": 69.44443749999981,
                    "velocity": 0.3858267716535433,
                    "duration": 0.1851851666666704
                },
                {
                    "name": "C#4",
                    "midi": 61,
                    "time": 69.62962266666648,
                    "velocity": 0.3858267716535433,
                    "duration": 0.18287035208332725
                },
                {
                    "name": "F4",
                    "midi": 65,
                    "time": 69.62962266666648,
                    "velocity": 0.3858267716535433,
                    "duration": 0.18287035208332725
                },
                {
                    "name": "B4",
                    "midi": 71,
                    "time": 69.8124930187498,
                    "velocity": 0.3858267716535433,
                    "duration": 0.18749998124999934
                },
                {
                    "name": "D4",
                    "midi": 62,
                    "time": 69.9999929999998,
                    "velocity": 0.3858267716535433,
                    "duration": 0.1851851666666704
                },
                {
                    "name": "F#4",
                    "midi": 66,
                    "time": 69.9999929999998,
                    "velocity": 0.3858267716535433,
                    "duration": 0.1851851666666704
                },
                {
                    "name": "A#4",
                    "midi": 70,
                    "time": 70.18517816666647,
                    "velocity": 0.3858267716535433,
                    "duration": 0.18287035208332725
                },
                {
                    "name": "D4",
                    "midi": 62,
                    "time": 70.3680485187498,
                    "velocity": 0.3858267716535433,
                    "duration": 0.18749998124999934
                },
                {
                    "name": "F#4",
                    "midi": 66,
                    "time": 70.3680485187498,
                    "velocity": 0.3858267716535433,
                    "duration": 0.18749998124999934
                },
                {
                    "name": "A#4",
                    "midi": 70,
                    "time": 70.5555484999998,
                    "velocity": 0.3858267716535433,
                    "duration": 0.1851851666666704
                },
                {
                    "name": "D4",
                    "midi": 62,
                    "time": 70.74073366666647,
                    "velocity": 0.3858267716535433,
                    "duration": 0.18287035208332725
                },
                {
                    "name": "F#4",
                    "midi": 66,
                    "time": 70.74073366666647,
                    "velocity": 0.3858267716535433,
                    "duration": 0.18287035208332725
                },
                {
                    "name": "A#4",
                    "midi": 70,
                    "time": 70.9236040187498,
                    "velocity": 0.3858267716535433,
                    "duration": 0.18749998124999934
                },
                {
                    "name": "D4",
                    "midi": 62,
                    "time": 71.1111039999998,
                    "velocity": 0.3858267716535433,
                    "duration": 0.1851851666666704
                },
                {
                    "name": "F#4",
                    "midi": 66,
                    "time": 71.1111039999998,
                    "velocity": 0.3858267716535433,
                    "duration": 0.1851851666666704
                },
                {
                    "name": "A#4",
                    "midi": 70,
                    "time": 71.29628916666647,
                    "velocity": 0.3858267716535433,
                    "duration": 0.18287035208332725
                },
                {
                    "name": "D4",
                    "midi": 62,
                    "time": 71.4791595187498,
                    "velocity": 0.3858267716535433,
                    "duration": 0.18749998124999934
                },
                {
                    "name": "F#4",
                    "midi": 66,
                    "time": 71.4791595187498,
                    "velocity": 0.3858267716535433,
                    "duration": 0.18749998124999934
                },
                {
                    "name": "A#4",
                    "midi": 70,
                    "time": 71.6666594999998,
                    "velocity": 0.3858267716535433,
                    "duration": 0.1851851666666704
                },
                {
                    "name": "D4",
                    "midi": 62,
                    "time": 71.85184466666647,
                    "velocity": 0.3858267716535433,
                    "duration": 0.18287035208332725
                },
                {
                    "name": "F#4",
                    "midi": 66,
                    "time": 71.85184466666647,
                    "velocity": 0.3858267716535433,
                    "duration": 0.18287035208332725
                },
                {
                    "name": "A#4",
                    "midi": 70,
                    "time": 72.0347150187498,
                    "velocity": 0.3858267716535433,
                    "duration": 0.18749998124999934
                },
                {
                    "name": "D4",
                    "midi": 62,
                    "time": 72.22221499999979,
                    "velocity": 0.4881889763779528,
                    "duration": 0.1851851666666704
                },
                {
                    "name": "F#4",
                    "midi": 66,
                    "time": 72.22221499999979,
                    "velocity": 0.4881889763779528,
                    "duration": 0.1851851666666704
                },
                {
                    "name": "A#4",
                    "midi": 70,
                    "time": 72.40740016666646,
                    "velocity": 0.4881889763779528,
                    "duration": 0.18287035208332725
                },
                {
                    "name": "D4",
                    "midi": 62,
                    "time": 72.59027051874979,
                    "velocity": 0.4881889763779528,
                    "duration": 0.18749998124999934
                },
                {
                    "name": "F#4",
                    "midi": 66,
                    "time": 72.59027051874979,
                    "velocity": 0.4881889763779528,
                    "duration": 0.18749998124999934
                },
                {
                    "name": "A#4",
                    "midi": 70,
                    "time": 72.77777049999979,
                    "velocity": 0.4881889763779528,
                    "duration": 0.1851851666666704
                },
                {
                    "name": "D4",
                    "midi": 62,
                    "time": 72.96295566666646,
                    "velocity": 0.4881889763779528,
                    "duration": 0.18287035208332725
                },
                {
                    "name": "F#4",
                    "midi": 66,
                    "time": 72.96295566666646,
                    "velocity": 0.4881889763779528,
                    "duration": 0.18287035208332725
                },
                {
                    "name": "A#4",
                    "midi": 70,
                    "time": 73.14582601874979,
                    "velocity": 0.4881889763779528,
                    "duration": 0.18749998124999934
                },
                {
                    "name": "C#4",
                    "midi": 61,
                    "time": 73.33332599999979,
                    "velocity": 0.4881889763779528,
                    "duration": 0.1851851666666704
                },
                {
                    "name": "F4",
                    "midi": 65,
                    "time": 73.33332599999979,
                    "velocity": 0.4881889763779528,
                    "duration": 0.1851851666666704
                },
                {
                    "name": "B4",
                    "midi": 71,
                    "time": 73.51851116666646,
                    "velocity": 0.4881889763779528,
                    "duration": 0.18287035208332725
                },
                {
                    "name": "C#4",
                    "midi": 61,
                    "time": 73.70138151874978,
                    "velocity": 0.4881889763779528,
                    "duration": 0.18749998124999934
                },
                {
                    "name": "F4",
                    "midi": 65,
                    "time": 73.70138151874978,
                    "velocity": 0.4881889763779528,
                    "duration": 0.18749998124999934
                },
                {
                    "name": "B4",
                    "midi": 71,
                    "time": 73.88888149999978,
                    "velocity": 0.4881889763779528,
                    "duration": 0.1851851666666704
                },
                {
                    "name": "C#4",
                    "midi": 61,
                    "time": 74.07406666666645,
                    "velocity": 0.4881889763779528,
                    "duration": 0.18287035208332725
                },
                {
                    "name": "F4",
                    "midi": 65,
                    "time": 74.07406666666645,
                    "velocity": 0.4881889763779528,
                    "duration": 0.18287035208332725
                },
                {
                    "name": "B4",
                    "midi": 71,
                    "time": 74.25693701874978,
                    "velocity": 0.4881889763779528,
                    "duration": 0.18749998124999934
                },
                {
                    "name": "C#4",
                    "midi": 61,
                    "time": 74.44443699999978,
                    "velocity": 0.4881889763779528,
                    "duration": 0.1851851666666704
                },
                {
                    "name": "F4",
                    "midi": 65,
                    "time": 74.44443699999978,
                    "velocity": 0.4881889763779528,
                    "duration": 0.1851851666666704
                },
                {
                    "name": "B4",
                    "midi": 71,
                    "time": 74.62962216666645,
                    "velocity": 0.4881889763779528,
                    "duration": 0.18287035208332725
                },
                {
                    "name": "C#4",
                    "midi": 61,
                    "time": 74.81249251874978,
                    "velocity": 0.4881889763779528,
                    "duration": 0.18749998124999934
                },
                {
                    "name": "F4",
                    "midi": 65,
                    "time": 74.81249251874978,
                    "velocity": 0.4881889763779528,
                    "duration": 0.18749998124999934
                },
                {
                    "name": "B4",
                    "midi": 71,
                    "time": 74.99999249999978,
                    "velocity": 0.4881889763779528,
                    "duration": 0.1851851666666704
                },
                {
                    "name": "C#4",
                    "midi": 61,
                    "time": 75.18517766666645,
                    "velocity": 0.4881889763779528,
                    "duration": 0.18287035208332725
                },
                {
                    "name": "F4",
                    "midi": 65,
                    "time": 75.18517766666645,
                    "velocity": 0.4881889763779528,
                    "duration": 0.18287035208332725
                },
                {
                    "name": "B4",
                    "midi": 71,
                    "time": 75.36804801874977,
                    "velocity": 0.4881889763779528,
                    "duration": 0.18749998124999934
                },
                {
                    "name": "C#4",
                    "midi": 61,
                    "time": 75.55554799999977,
                    "velocity": 0.3858267716535433,
                    "duration": 0.1851851666666704
                },
                {
                    "name": "F4",
                    "midi": 65,
                    "time": 75.55554799999977,
                    "velocity": 0.3858267716535433,
                    "duration": 0.1851851666666704
                },
                {
                    "name": "B4",
                    "midi": 71,
                    "time": 75.74073316666644,
                    "velocity": 0.3858267716535433,
                    "duration": 0.18287035208332725
                },
                {
                    "name": "C#4",
                    "midi": 61,
                    "time": 75.92360351874977,
                    "velocity": 0.3858267716535433,
                    "duration": 0.18749998124999934
                },
                {
                    "name": "F4",
                    "midi": 65,
                    "time": 75.92360351874977,
                    "velocity": 0.3858267716535433,
                    "duration": 0.18749998124999934
                },
                {
                    "name": "B4",
                    "midi": 71,
                    "time": 76.11110349999977,
                    "velocity": 0.3858267716535433,
                    "duration": 0.1851851666666704
                },
                {
                    "name": "C#4",
                    "midi": 61,
                    "time": 76.29628866666644,
                    "velocity": 0.3858267716535433,
                    "duration": 0.18287035208332725
                },
                {
                    "name": "F4",
                    "midi": 65,
                    "time": 76.29628866666644,
                    "velocity": 0.3858267716535433,
                    "duration": 0.18287035208332725
                },
                {
                    "name": "B4",
                    "midi": 71,
                    "time": 76.47915901874977,
                    "velocity": 0.3858267716535433,
                    "duration": 0.18749998124999934
                },
                {
                    "name": "D5",
                    "midi": 74,
                    "time": 76.66665899999977,
                    "velocity": 0.4881889763779528,
                    "duration": 3.333332999999996
                },
                {
                    "name": "F5",
                    "midi": 77,
                    "time": 79.99999199999976,
                    "velocity": 0.4881889763779528,
                    "duration": 3.333332999999996
                },
                {
                    "name": "D5",
                    "midi": 74,
                    "time": 83.33332499999976,
                    "velocity": 0.4881889763779528,
                    "duration": 3.333332999999996
                },
                {
                    "name": "G#4",
                    "midi": 68,
                    "time": 86.66665799999976,
                    "velocity": 0.3858267716535433,
                    "duration": 0.1851851666666704
                },
                {
                    "name": "C5",
                    "midi": 72,
                    "time": 86.85184316666643,
                    "velocity": 0.3858267716535433,
                    "duration": 0.18287035208332725
                },
                {
                    "name": "G#4",
                    "midi": 68,
                    "time": 87.03471351874975,
                    "velocity": 0.3858267716535433,
                    "duration": 0.18749998124999934
                },
                {
                    "name": "C5",
                    "midi": 72,
                    "time": 87.22221349999975,
                    "velocity": 0.3858267716535433,
                    "duration": 0.1851851666666704
                },
                {
                    "name": "G#4",
                    "midi": 68,
                    "time": 87.40739866666642,
                    "velocity": 0.3858267716535433,
                    "duration": 0.18287035208332725
                },
                {
                    "name": "C5",
                    "midi": 72,
                    "time": 87.59026901874975,
                    "velocity": 0.3858267716535433,
                    "duration": 0.18749998124999934
                },
                {
                    "name": "G#4",
                    "midi": 68,
                    "time": 87.77776899999975,
                    "velocity": 0.3858267716535433,
                    "duration": 0.1851851666666704
                },
                {
                    "name": "C5",
                    "midi": 72,
                    "time": 87.96295416666642,
                    "velocity": 0.3858267716535433,
                    "duration": 0.18287035208332725
                },
                {
                    "name": "G#4",
                    "midi": 68,
                    "time": 88.14582451874975,
                    "velocity": 0.3858267716535433,
                    "duration": 0.18749998124999934
                },
                {
                    "name": "C5",
                    "midi": 72,
                    "time": 88.33332449999975,
                    "velocity": 0.3858267716535433,
                    "duration": 0.1851851666666704
                },
                {
                    "name": "G#4",
                    "midi": 68,
                    "time": 88.51850966666642,
                    "velocity": 0.3858267716535433,
                    "duration": 0.18287035208332725
                },
                {
                    "name": "C5",
                    "midi": 72,
                    "time": 88.70138001874975,
                    "velocity": 0.3858267716535433,
                    "duration": 0.18749998124999934
                },
                {
                    "name": "G#4",
                    "midi": 68,
                    "time": 88.88887999999974,
                    "velocity": 0.3858267716535433,
                    "duration": 0.1851851666666704
                },
                {
                    "name": "C5",
                    "midi": 72,
                    "time": 89.07406516666641,
                    "velocity": 0.3858267716535433,
                    "duration": 0.18287035208332725
                },
                {
                    "name": "G#4",
                    "midi": 68,
                    "time": 89.25693551874974,
                    "velocity": 0.3858267716535433,
                    "duration": 0.18749998124999934
                },
                {
                    "name": "C5",
                    "midi": 72,
                    "time": 89.44443549999974,
                    "velocity": 0.3858267716535433,
                    "duration": 0.1851851666666704
                },
                {
                    "name": "G#4",
                    "midi": 68,
                    "time": 89.62962066666641,
                    "velocity": 0.3858267716535433,
                    "duration": 0.18287035208332725
                },
                {
                    "name": "C5",
                    "midi": 72,
                    "time": 89.81249101874974,
                    "velocity": 0.3858267716535433,
                    "duration": 0.18749998124999934
                },
                {
                    "name": "A4",
                    "midi": 69,
                    "time": 89.99999099999974,
                    "velocity": 0.3858267716535433,
                    "duration": 0.555555499999997
                },
                {
                    "name": "D4",
                    "midi": 62,
                    "time": 94.99999049999974,
                    "velocity": 0.4881889763779528,
                    "duration": 0.555555499999997
                },
                {
                    "name": "C#4",
                    "midi": 61,
                    "time": 95.55554599999974,
                    "velocity": 0.4881889763779528,
                    "duration": 0.555555499999997
                },
                {
                    "name": "D4",
                    "midi": 62,
                    "time": 96.11110149999973,
                    "velocity": 0.4881889763779528,
                    "duration": 0.2777777499999985
                },
                {
                    "name": "C#4",
                    "midi": 61,
                    "time": 96.38887924999973,
                    "velocity": 0.4881889763779528,
                    "duration": 0.2777777499999985
                },
                {
                    "name": "C#4",
                    "midi": 61,
                    "time": 99.99998999999973,
                    "velocity": 0.4881889763779528,
                    "duration": 0.555555499999997
                },
                {
                    "name": "D4",
                    "midi": 62,
                    "time": 100.55554549999972,
                    "velocity": 0.4881889763779528,
                    "duration": 0.2777777499999985
                },
                {
                    "name": "C#4",
                    "midi": 61,
                    "time": 100.83332324999972,
                    "velocity": 0.4881889763779528,
                    "duration": 0.2777777499999985
                },
                {
                    "name": "B3",
                    "midi": 59,
                    "time": 101.11110099999972,
                    "velocity": 0.4881889763779528,
                    "duration": 0.555555499999997
                },
                {
                    "name": "F#3",
                    "midi": 54,
                    "time": 101.66665649999972,
                    "velocity": 0.4881889763779528,
                    "duration": 0.555555499999997
                },
                {
                    "name": "G#3",
                    "midi": 56,
                    "time": 103.33332299999971,
                    "velocity": 0.4881889763779528,
                    "duration": 4.444444000000004
                },
                {
                    "name": "F#3",
                    "midi": 54,
                    "time": 108.8888779999997,
                    "velocity": 0.4881889763779528,
                    "duration": 1.111110999999994
                },
                {
                    "name": "A3",
                    "midi": 57,
                    "time": 109.9999889999997,
                    "velocity": 0.4881889763779528,
                    "duration": 1.6666665000000052
                },
                {
                    "name": "G#3",
                    "midi": 56,
                    "time": 113.33332199999971,
                    "velocity": 0.4881889763779528,
                    "duration": 0.555555499999997
                },
                {
                    "name": "F#3",
                    "midi": 54,
                    "time": 113.88887749999971,
                    "velocity": 0.4881889763779528,
                    "duration": 0.555555499999997
                },
                {
                    "name": "A3",
                    "midi": 57,
                    "time": 114.4444329999997,
                    "velocity": 0.4881889763779528,
                    "duration": 1.6666665000000052
                },
                {
                    "name": "A3",
                    "midi": 57,
                    "time": 116.11109949999971,
                    "velocity": 0.4881889763779528,
                    "duration": 0.555555499999997
                },
                {
                    "name": "A3",
                    "midi": 57,
                    "time": 117.2222104999997,
                    "velocity": 0.4881889763779528,
                    "duration": 0.555555499999997
                },
                {
                    "name": "G#3",
                    "midi": 56,
                    "time": 117.7777659999997,
                    "velocity": 0.4881889763779528,
                    "duration": 0.555555499999997
                },
                {
                    "name": "A3",
                    "midi": 57,
                    "time": 118.3333214999997,
                    "velocity": 0.4881889763779528,
                    "duration": 0.2777777499999985
                },
                {
                    "name": "G#3",
                    "midi": 56,
                    "time": 118.6110992499997,
                    "velocity": 0.4881889763779528,
                    "duration": 0.2777777499999985
                },
                {
                    "name": "F#3",
                    "midi": 54,
                    "time": 118.8888769999997,
                    "velocity": 0.4881889763779528,
                    "duration": 0.555555499999997
                },
                {
                    "name": "C#3",
                    "midi": 49,
                    "time": 119.44443249999969,
                    "velocity": 0.4881889763779528,
                    "duration": 0.555555499999997
                },
                {
                    "name": "D#3",
                    "midi": 51,
                    "time": 121.11109899999968,
                    "velocity": 0.4881889763779528,
                    "duration": 2.222222000000002
                },
                {
                    "name": "F#3",
                    "midi": 54,
                    "time": 123.33332099999969,
                    "velocity": 0.4881889763779528,
                    "duration": 0.8333332499999955
                },
                {
                    "name": "G3",
                    "midi": 55,
                    "time": 124.16665424999968,
                    "velocity": 0.4881889763779528,
                    "duration": 0.13888887500000635
                },
                {
                    "name": "F#3",
                    "midi": 54,
                    "time": 124.30554312499969,
                    "velocity": 0.4881889763779528,
                    "duration": 0.13888887500000635
                },
                {
                    "name": "D#3",
                    "midi": 51,
                    "time": 124.4444319999997,
                    "velocity": 0.4881889763779528,
                    "duration": 1.111110999999994
                },
                {
                    "name": "D#3",
                    "midi": 51,
                    "time": 126.66665399999968,
                    "velocity": 0.4881889763779528,
                    "duration": 1.111110999999994
                },
                {
                    "name": "F#3",
                    "midi": 54,
                    "time": 127.77776499999968,
                    "velocity": 0.4881889763779528,
                    "duration": 0.8333332500000097
                },
                {
                    "name": "G#3",
                    "midi": 56,
                    "time": 128.61109824999969,
                    "velocity": 0.4881889763779528,
                    "duration": 0.13888887499999214
                },
                {
                    "name": "F#3",
                    "midi": 54,
                    "time": 128.74998712499968,
                    "velocity": 0.4881889763779528,
                    "duration": 0.13888887499999214
                },
                {
                    "name": "B2",
                    "midi": 47,
                    "time": 128.88887599999967,
                    "velocity": 0.4881889763779528,
                    "duration": 0.555555499999997
                },
                {
                    "name": "G#2",
                    "midi": 44,
                    "time": 131.11109799999966,
                    "velocity": 0.4881889763779528,
                    "duration": 1.111110999999994
                },
                {
                    "name": "B2",
                    "midi": 47,
                    "time": 132.22220899999965,
                    "velocity": 0.4881889763779528,
                    "duration": 0.8333332500000097
                },
                {
                    "name": "C#3",
                    "midi": 49,
                    "time": 133.05554224999966,
                    "velocity": 0.4881889763779528,
                    "duration": 0.13888887499999214
                },
                {
                    "name": "B2",
                    "midi": 47,
                    "time": 133.19443112499965,
                    "velocity": 0.4881889763779528,
                    "duration": 0.13888887499999214
                },
                {
                    "name": "E2",
                    "midi": 40,
                    "time": 133.33331999999965,
                    "velocity": 0.4881889763779528,
                    "duration": 0.555555499999997
                },
                {
                    "name": "F#3",
                    "midi": 54,
                    "time": 191.11109199999964,
                    "velocity": 0.4881889763779528,
                    "duration": 2.222221999999988
                },
                {
                    "name": "C3",
                    "midi": 48,
                    "time": 193.33331399999963,
                    "velocity": 0.4881889763779528,
                    "duration": 2.222221999999988
                },
                {
                    "name": "F#2",
                    "midi": 42,
                    "time": 195.41664712499963,
                    "velocity": 0.3858267716535433,
                    "duration": 2.36111087499998
                },
                {
                    "name": "F#3",
                    "midi": 54,
                    "time": 195.55553599999962,
                    "velocity": 0.3858267716535433,
                    "duration": 2.222221999999988
                },
                {
                    "name": "A#3",
                    "midi": 58,
                    "time": 195.55553599999962,
                    "velocity": 0.3858267716535433,
                    "duration": 2.222221999999988
                },
                {
                    "name": "E4",
                    "midi": 64,
                    "time": 195.55553599999962,
                    "velocity": 0.3858267716535433,
                    "duration": 2.222221999999988
                },
                {
                    "name": "F#2",
                    "midi": 42,
                    "time": 202.0833131249996,
                    "velocity": 0.3858267716535433,
                    "duration": 2.36111087499998
                },
                {
                    "name": "F#3",
                    "midi": 54,
                    "time": 202.22220199999958,
                    "velocity": 0.3858267716535433,
                    "duration": 2.222221999999988
                },
                {
                    "name": "A#3",
                    "midi": 58,
                    "time": 202.22220199999958,
                    "velocity": 0.3858267716535433,
                    "duration": 2.222221999999988
                },
                {
                    "name": "E4",
                    "midi": 64,
                    "time": 202.22220199999958,
                    "velocity": 0.3858267716535433,
                    "duration": 2.222221999999988
                },
                {
                    "name": "F#2",
                    "midi": 42,
                    "time": 206.52775712499957,
                    "velocity": 0.3858267716535433,
                    "duration": 2.36111087499998
                },
                {
                    "name": "F#3",
                    "midi": 54,
                    "time": 206.66664599999956,
                    "velocity": 0.3858267716535433,
                    "duration": 2.222221999999988
                },
                {
                    "name": "A#3",
                    "midi": 58,
                    "time": 206.66664599999956,
                    "velocity": 0.3858267716535433,
                    "duration": 2.222221999999988
                },
                {
                    "name": "E4",
                    "midi": 64,
                    "time": 206.66664599999956,
                    "velocity": 0.3858267716535433,
                    "duration": 2.222221999999988
                },
                {
                    "name": "G#5",
                    "midi": 80,
                    "time": 213.33331199999955,
                    "velocity": 0.3858267716535433,
                    "duration": 0.555555499999997
                },
                {
                    "name": "C4",
                    "midi": 60,
                    "time": 215.55553399999954,
                    "velocity": 0.3858267716535433,
                    "duration": 2.222221999999988
                },
                {
                    "name": "A#4",
                    "midi": 70,
                    "time": 215.55553399999954,
                    "velocity": 0.3858267716535433,
                    "duration": 2.222221999999988
                },
                {
                    "name": "E5",
                    "midi": 76,
                    "time": 215.55553399999954,
                    "velocity": 0.3858267716535433,
                    "duration": 2.222221999999988
                },
                {
                    "name": "G#3",
                    "midi": 56,
                    "time": 224.44442199999952,
                    "velocity": 0.3858267716535433,
                    "duration": 2.222221999999988
                },
                {
                    "name": "F#4",
                    "midi": 66,
                    "time": 224.44442199999952,
                    "velocity": 0.3858267716535433,
                    "duration": 2.222221999999988
                },
                {
                    "name": "C5",
                    "midi": 72,
                    "time": 224.44442199999952,
                    "velocity": 0.3858267716535433,
                    "duration": 2.222221999999988
                },
                {
                    "name": "G3",
                    "midi": 55,
                    "time": 233.14812483333284,
                    "velocity": 0.3858267716535433,
                    "duration": 0.7407406666666532
                },
                {
                    "name": "F4",
                    "midi": 65,
                    "time": 233.24071741666617,
                    "velocity": 0.3858267716535433,
                    "duration": 0.6481480833333251
                },
                {
                    "name": "B4",
                    "midi": 71,
                    "time": 233.3333099999995,
                    "velocity": 0.3858267716535433,
                    "duration": 0.555555499999997
                },
                {
                    "name": "B3",
                    "midi": 59,
                    "time": 237.7777539999995,
                    "velocity": 0.3858267716535433,
                    "duration": 0.1851851666666562
                },
                {
                    "name": "D4",
                    "midi": 62,
                    "time": 237.96293916666616,
                    "velocity": 0.3858267716535433,
                    "duration": 0.18287035208334146
                },
                {
                    "name": "B3",
                    "midi": 59,
                    "time": 238.1458095187495,
                    "velocity": 0.3858267716535433,
                    "duration": 0.18749998124999934
                },
                {
                    "name": "D4",
                    "midi": 62,
                    "time": 238.3333094999995,
                    "velocity": 0.3858267716535433,
                    "duration": 0.1851851666666562
                },
                {
                    "name": "B3",
                    "midi": 59,
                    "time": 238.51849466666616,
                    "velocity": 0.3858267716535433,
                    "duration": 0.18287035208334146
                },
                {
                    "name": "D4",
                    "midi": 62,
                    "time": 238.7013650187495,
                    "velocity": 0.3858267716535433,
                    "duration": 0.18749998124999934
                },
                {
                    "name": "B3",
                    "midi": 59,
                    "time": 238.8888649999995,
                    "velocity": 0.3858267716535433,
                    "duration": 0.1851851666666562
                },
                {
                    "name": "D4",
                    "midi": 62,
                    "time": 239.07405016666615,
                    "velocity": 0.3858267716535433,
                    "duration": 0.18287035208334146
                },
                {
                    "name": "B3",
                    "midi": 59,
                    "time": 239.2569205187495,
                    "velocity": 0.3858267716535433,
                    "duration": 0.18749998124999934
                },
                {
                    "name": "D4",
                    "midi": 62,
                    "time": 239.4444204999995,
                    "velocity": 0.3858267716535433,
                    "duration": 0.1851851666666562
                },
                {
                    "name": "B3",
                    "midi": 59,
                    "time": 239.62960566666615,
                    "velocity": 0.3858267716535433,
                    "duration": 0.18287035208334146
                },
                {
                    "name": "D4",
                    "midi": 62,
                    "time": 239.8124760187495,
                    "velocity": 0.3858267716535433,
                    "duration": 0.18749998124999934
                },
                {
                    "name": "B3",
                    "midi": 59,
                    "time": 239.9999759999995,
                    "velocity": 0.3858267716535433,
                    "duration": 0.1851851666666562
                },
                {
                    "name": "D4",
                    "midi": 62,
                    "time": 240.18516116666615,
                    "velocity": 0.3858267716535433,
                    "duration": 0.18287035208334146
                },
                {
                    "name": "B3",
                    "midi": 59,
                    "time": 240.3680315187495,
                    "velocity": 0.3858267716535433,
                    "duration": 0.18749998124999934
                },
                {
                    "name": "D4",
                    "midi": 62,
                    "time": 240.5555314999995,
                    "velocity": 0.3858267716535433,
                    "duration": 0.1851851666666562
                },
                {
                    "name": "B3",
                    "midi": 59,
                    "time": 240.74071666666615,
                    "velocity": 0.3858267716535433,
                    "duration": 0.18287035208334146
                },
                {
                    "name": "D4",
                    "midi": 62,
                    "time": 240.9235870187495,
                    "velocity": 0.3858267716535433,
                    "duration": 0.18749998124999934
                },
                {
                    "name": "B3",
                    "midi": 59,
                    "time": 241.1110869999995,
                    "velocity": 0.3858267716535433,
                    "duration": 0.1851851666666562
                },
                {
                    "name": "D4",
                    "midi": 62,
                    "time": 241.29627216666614,
                    "velocity": 0.3858267716535433,
                    "duration": 0.18287035208334146
                },
                {
                    "name": "B3",
                    "midi": 59,
                    "time": 241.47914251874948,
                    "velocity": 0.3858267716535433,
                    "duration": 0.18749998124999934
                },
                {
                    "name": "D4",
                    "midi": 62,
                    "time": 241.66664249999948,
                    "velocity": 0.3858267716535433,
                    "duration": 0.1851851666666562
                },
                {
                    "name": "B3",
                    "midi": 59,
                    "time": 241.85182766666614,
                    "velocity": 0.3858267716535433,
                    "duration": 0.18287035208334146
                },
                {
                    "name": "D4",
                    "midi": 62,
                    "time": 242.03469801874948,
                    "velocity": 0.3858267716535433,
                    "duration": 0.18749998124999934
                },
                {
                    "name": "C4",
                    "midi": 60,
                    "time": 242.22219799999948,
                    "velocity": 0.3858267716535433,
                    "duration": 0.1851851666666562
                },
                {
                    "name": "D#4",
                    "midi": 63,
                    "time": 242.40738316666614,
                    "velocity": 0.3858267716535433,
                    "duration": 0.18287035208334146
                },
                {
                    "name": "C4",
                    "midi": 60,
                    "time": 242.59025351874948,
                    "velocity": 0.3858267716535433,
                    "duration": 0.18749998124999934
                },
                {
                    "name": "D#4",
                    "midi": 63,
                    "time": 242.77775349999948,
                    "velocity": 0.3858267716535433,
                    "duration": 0.1851851666666562
                },
                {
                    "name": "C4",
                    "midi": 60,
                    "time": 242.96293866666613,
                    "velocity": 0.3858267716535433,
                    "duration": 0.18287035208334146
                },
                {
                    "name": "D#4",
                    "midi": 63,
                    "time": 243.14580901874947,
                    "velocity": 0.3858267716535433,
                    "duration": 0.18749998124999934
                },
                {
                    "name": "C4",
                    "midi": 60,
                    "time": 243.33330899999947,
                    "velocity": 0.3858267716535433,
                    "duration": 0.1851851666666562
                },
                {
                    "name": "D#4",
                    "midi": 63,
                    "time": 243.51849416666613,
                    "velocity": 0.3858267716535433,
                    "duration": 0.18287035208334146
                },
                {
                    "name": "C4",
                    "midi": 60,
                    "time": 243.70136451874947,
                    "velocity": 0.3858267716535433,
                    "duration": 0.18749998124999934
                },
                {
                    "name": "D#4",
                    "midi": 63,
                    "time": 243.88886449999947,
                    "velocity": 0.3858267716535433,
                    "duration": 0.1851851666666562
                },
                {
                    "name": "C4",
                    "midi": 60,
                    "time": 244.07404966666613,
                    "velocity": 0.3858267716535433,
                    "duration": 0.18287035208334146
                },
                {
                    "name": "D#4",
                    "midi": 63,
                    "time": 244.25692001874947,
                    "velocity": 0.3858267716535433,
                    "duration": 0.18749998124999934
                },
                {
                    "name": "C4",
                    "midi": 60,
                    "time": 244.44441999999947,
                    "velocity": 0.3858267716535433,
                    "duration": 0.1851851666666562
                },
                {
                    "name": "D#4",
                    "midi": 63,
                    "time": 244.62960516666612,
                    "velocity": 0.3858267716535433,
                    "duration": 0.18287035208334146
                },
                {
                    "name": "C4",
                    "midi": 60,
                    "time": 244.81247551874947,
                    "velocity": 0.3858267716535433,
                    "duration": 0.18749998124999934
                },
                {
                    "name": "D#4",
                    "midi": 63,
                    "time": 244.99997549999947,
                    "velocity": 0.3858267716535433,
                    "duration": 0.1851851666666562
                },
                {
                    "name": "C4",
                    "midi": 60,
                    "time": 245.18516066666612,
                    "velocity": 0.3858267716535433,
                    "duration": 0.18287035208334146
                },
                {
                    "name": "D#4",
                    "midi": 63,
                    "time": 245.36803101874946,
                    "velocity": 0.3858267716535433,
                    "duration": 0.18749998124999934
                },
                {
                    "name": "C4",
                    "midi": 60,
                    "time": 245.55553099999946,
                    "velocity": 0.3858267716535433,
                    "duration": 0.1851851666666562
                },
                {
                    "name": "D#4",
                    "midi": 63,
                    "time": 245.74071616666612,
                    "velocity": 0.3858267716535433,
                    "duration": 0.18287035208334146
                },
                {
                    "name": "C4",
                    "midi": 60,
                    "time": 245.92358651874946,
                    "velocity": 0.3858267716535433,
                    "duration": 0.18749998124999934
                },
                {
                    "name": "D#4",
                    "midi": 63,
                    "time": 246.11108649999946,
                    "velocity": 0.3858267716535433,
                    "duration": 0.1851851666666562
                },
                {
                    "name": "C4",
                    "midi": 60,
                    "time": 246.29627166666612,
                    "velocity": 0.3858267716535433,
                    "duration": 0.18287035208334146
                },
                {
                    "name": "D#4",
                    "midi": 63,
                    "time": 246.47914201874946,
                    "velocity": 0.3858267716535433,
                    "duration": 0.18749998124999934
                },
                {
                    "name": "B3",
                    "midi": 59,
                    "time": 246.66664199999946,
                    "velocity": 0.3858267716535433,
                    "duration": 0.1851851666666562
                },
                {
                    "name": "D4",
                    "midi": 62,
                    "time": 246.8518271666661,
                    "velocity": 0.3858267716535433,
                    "duration": 0.18287035208334146
                },
                {
                    "name": "B3",
                    "midi": 59,
                    "time": 247.03469751874945,
                    "velocity": 0.3858267716535433,
                    "duration": 0.18749998124999934
                },
                {
                    "name": "D4",
                    "midi": 62,
                    "time": 247.22219749999945,
                    "velocity": 0.3858267716535433,
                    "duration": 0.1851851666666562
                },
                {
                    "name": "B3",
                    "midi": 59,
                    "time": 247.4073826666661,
                    "velocity": 0.3858267716535433,
                    "duration": 0.18287035208334146
                },
                {
                    "name": "D4",
                    "midi": 62,
                    "time": 247.59025301874945,
                    "velocity": 0.3858267716535433,
                    "duration": 0.18749998124999934
                },
                {
                    "name": "B3",
                    "midi": 59,
                    "time": 247.77775299999945,
                    "velocity": 0.3858267716535433,
                    "duration": 0.1851851666666562
                },
                {
                    "name": "D4",
                    "midi": 62,
                    "time": 247.9629381666661,
                    "velocity": 0.3858267716535433,
                    "duration": 0.18287035208334146
                },
                {
                    "name": "B3",
                    "midi": 59,
                    "time": 248.14580851874945,
                    "velocity": 0.3858267716535433,
                    "duration": 0.18749998124999934
                },
                {
                    "name": "D4",
                    "midi": 62,
                    "time": 248.33330849999945,
                    "velocity": 0.3858267716535433,
                    "duration": 0.1851851666666562
                },
                {
                    "name": "B3",
                    "midi": 59,
                    "time": 248.5184936666661,
                    "velocity": 0.3858267716535433,
                    "duration": 0.18287035208334146
                },
                {
                    "name": "D4",
                    "midi": 62,
                    "time": 248.70136401874944,
                    "velocity": 0.3858267716535433,
                    "duration": 0.18749998124999934
                },
                {
                    "name": "B3",
                    "midi": 59,
                    "time": 248.88886399999944,
                    "velocity": 0.3858267716535433,
                    "duration": 0.1851851666666562
                },
                {
                    "name": "D4",
                    "midi": 62,
                    "time": 249.0740491666661,
                    "velocity": 0.3858267716535433,
                    "duration": 0.18287035208334146
                },
                {
                    "name": "B3",
                    "midi": 59,
                    "time": 249.25691951874944,
                    "velocity": 0.3858267716535433,
                    "duration": 0.18749998124999934
                },
                {
                    "name": "D4",
                    "midi": 62,
                    "time": 249.44441949999944,
                    "velocity": 0.3858267716535433,
                    "duration": 0.1851851666666562
                },
                {
                    "name": "B3",
                    "midi": 59,
                    "time": 249.6296046666661,
                    "velocity": 0.3858267716535433,
                    "duration": 0.18287035208334146
                },
                {
                    "name": "D4",
                    "midi": 62,
                    "time": 249.81247501874944,
                    "velocity": 0.3858267716535433,
                    "duration": 0.18749998124999934
                },
                {
                    "name": "B3",
                    "midi": 59,
                    "time": 249.99997499999944,
                    "velocity": 0.3858267716535433,
                    "duration": 0.1851851666666562
                },
                {
                    "name": "D4",
                    "midi": 62,
                    "time": 250.1851601666661,
                    "velocity": 0.3858267716535433,
                    "duration": 0.18287035208334146
                },
                {
                    "name": "B3",
                    "midi": 59,
                    "time": 250.36803051874944,
                    "velocity": 0.3858267716535433,
                    "duration": 0.18749998124999934
                },
                {
                    "name": "D4",
                    "midi": 62,
                    "time": 250.55553049999943,
                    "velocity": 0.3858267716535433,
                    "duration": 0.1851851666666562
                },
                {
                    "name": "B3",
                    "midi": 59,
                    "time": 250.7407156666661,
                    "velocity": 0.3858267716535433,
                    "duration": 0.18287035208334146
                },
                {
                    "name": "D4",
                    "midi": 62,
                    "time": 250.92358601874943,
                    "velocity": 0.3858267716535433,
                    "duration": 0.18749998124999934
                },
                {
                    "name": "B3",
                    "midi": 59,
                    "time": 251.11108599999943,
                    "velocity": 0.3858267716535433,
                    "duration": 0.1851851666666562
                },
                {
                    "name": "D4",
                    "midi": 62,
                    "time": 251.2962711666661,
                    "velocity": 0.3858267716535433,
                    "duration": 0.18287035208334146
                },
                {
                    "name": "B3",
                    "midi": 59,
                    "time": 251.47914151874943,
                    "velocity": 0.3858267716535433,
                    "duration": 0.18749998124999934
                },
                {
                    "name": "D4",
                    "midi": 62,
                    "time": 251.66664149999943,
                    "velocity": 0.3858267716535433,
                    "duration": 0.1851851666666562
                },
                {
                    "name": "B3",
                    "midi": 59,
                    "time": 251.85182666666608,
                    "velocity": 0.3858267716535433,
                    "duration": 0.18287035208334146
                },
                {
                    "name": "D4",
                    "midi": 62,
                    "time": 252.03469701874943,
                    "velocity": 0.3858267716535433,
                    "duration": 0.18749998124999934
                },
                {
                    "name": "B3",
                    "midi": 59,
                    "time": 252.22219699999943,
                    "velocity": 0.3858267716535433,
                    "duration": 0.1851851666666562
                },
                {
                    "name": "D4",
                    "midi": 62,
                    "time": 252.40738216666608,
                    "velocity": 0.3858267716535433,
                    "duration": 0.18287035208334146
                },
                {
                    "name": "B3",
                    "midi": 59,
                    "time": 252.59025251874942,
                    "velocity": 0.3858267716535433,
                    "duration": 0.18749998124999934
                },
                {
                    "name": "D4",
                    "midi": 62,
                    "time": 252.77775249999942,
                    "velocity": 0.3858267716535433,
                    "duration": 0.1851851666666562
                },
                {
                    "name": "B3",
                    "midi": 59,
                    "time": 252.96293766666608,
                    "velocity": 0.3858267716535433,
                    "duration": 0.18287035208334146
                },
                {
                    "name": "D4",
                    "midi": 62,
                    "time": 253.14580801874942,
                    "velocity": 0.3858267716535433,
                    "duration": 0.18749998124999934
                },
                {
                    "name": "B3",
                    "midi": 59,
                    "time": 253.33330799999942,
                    "velocity": 0.3858267716535433,
                    "duration": 0.1851851666666562
                },
                {
                    "name": "D4",
                    "midi": 62,
                    "time": 253.51849316666608,
                    "velocity": 0.3858267716535433,
                    "duration": 0.18287035208334146
                },
                {
                    "name": "B3",
                    "midi": 59,
                    "time": 253.70136351874942,
                    "velocity": 0.3858267716535433,
                    "duration": 0.18749998124999934
                },
                {
                    "name": "D4",
                    "midi": 62,
                    "time": 253.88886349999942,
                    "velocity": 0.3858267716535433,
                    "duration": 0.1851851666666562
                },
                {
                    "name": "B3",
                    "midi": 59,
                    "time": 254.07404866666607,
                    "velocity": 0.3858267716535433,
                    "duration": 0.18287035208334146
                },
                {
                    "name": "D4",
                    "midi": 62,
                    "time": 254.25691901874941,
                    "velocity": 0.3858267716535433,
                    "duration": 0.18749998124999934
                },
                {
                    "name": "B3",
                    "midi": 59,
                    "time": 254.4444189999994,
                    "velocity": 0.3858267716535433,
                    "duration": 0.1851851666666562
                },
                {
                    "name": "D4",
                    "midi": 62,
                    "time": 254.62960416666607,
                    "velocity": 0.3858267716535433,
                    "duration": 0.18287035208334146
                },
                {
                    "name": "B3",
                    "midi": 59,
                    "time": 254.8124745187494,
                    "velocity": 0.3858267716535433,
                    "duration": 0.18749998124999934
                },
                {
                    "name": "D4",
                    "midi": 62,
                    "time": 254.9999744999994,
                    "velocity": 0.3858267716535433,
                    "duration": 0.1851851666666562
                },
                {
                    "name": "B3",
                    "midi": 59,
                    "time": 255.18515966666607,
                    "velocity": 0.3858267716535433,
                    "duration": 0.18287035208334146
                },
                {
                    "name": "D4",
                    "midi": 62,
                    "time": 255.3680300187494,
                    "velocity": 0.3858267716535433,
                    "duration": 0.18749998124999934
                },
                {
                    "name": "C4",
                    "midi": 60,
                    "time": 255.5555299999994,
                    "velocity": 0.3858267716535433,
                    "duration": 0.1851851666666562
                },
                {
                    "name": "D#4",
                    "midi": 63,
                    "time": 255.74071516666606,
                    "velocity": 0.3858267716535433,
                    "duration": 0.18287035208334146
                },
                {
                    "name": "C4",
                    "midi": 60,
                    "time": 255.9235855187494,
                    "velocity": 0.3858267716535433,
                    "duration": 0.18749998125002776
                },
                {
                    "name": "D#4",
                    "midi": 63,
                    "time": 256.11108549999943,
                    "velocity": 0.3858267716535433,
                    "duration": 0.1851851666666562
                },
                {
                    "name": "C4",
                    "midi": 60,
                    "time": 256.2962706666661,
                    "velocity": 0.3858267716535433,
                    "duration": 0.18287035208334146
                },
                {
                    "name": "D#4",
                    "midi": 63,
                    "time": 256.47914101874943,
                    "velocity": 0.3858267716535433,
                    "duration": 0.18749998125002776
                },
                {
                    "name": "C4",
                    "midi": 60,
                    "time": 256.66664099999946,
                    "velocity": 0.3858267716535433,
                    "duration": 0.1851851666666562
                },
                {
                    "name": "D#4",
                    "midi": 63,
                    "time": 256.8518261666661,
                    "velocity": 0.3858267716535433,
                    "duration": 0.18287035208334146
                },
                {
                    "name": "C4",
                    "midi": 60,
                    "time": 257.03469651874946,
                    "velocity": 0.3858267716535433,
                    "duration": 0.18749998125002776
                },
                {
                    "name": "D#4",
                    "midi": 63,
                    "time": 257.2221964999995,
                    "velocity": 0.3858267716535433,
                    "duration": 0.1851851666666562
                },
                {
                    "name": "C4",
                    "midi": 60,
                    "time": 257.40738166666614,
                    "velocity": 0.3858267716535433,
                    "duration": 0.18287035208334146
                },
                {
                    "name": "D#4",
                    "midi": 63,
                    "time": 257.5902520187495,
                    "velocity": 0.3858267716535433,
                    "duration": 0.18749998125002776
                },
                {
                    "name": "C4",
                    "midi": 60,
                    "time": 257.7777519999995,
                    "velocity": 0.3858267716535433,
                    "duration": 0.1851851666666562
                },
                {
                    "name": "D#4",
                    "midi": 63,
                    "time": 257.96293716666617,
                    "velocity": 0.3858267716535433,
                    "duration": 0.18287035208334146
                },
                {
                    "name": "C4",
                    "midi": 60,
                    "time": 258.1458075187495,
                    "velocity": 0.3858267716535433,
                    "duration": 0.18749998125002776
                },
                {
                    "name": "D#4",
                    "midi": 63,
                    "time": 258.33330749999953,
                    "velocity": 0.3858267716535433,
                    "duration": 0.1851851666666562
                },
                {
                    "name": "C4",
                    "midi": 60,
                    "time": 258.5184926666662,
                    "velocity": 0.3858267716535433,
                    "duration": 0.18287035208334146
                },
                {
                    "name": "D#4",
                    "midi": 63,
                    "time": 258.70136301874953,
                    "velocity": 0.3858267716535433,
                    "duration": 0.18749998125002776
                },
                {
                    "name": "C4",
                    "midi": 60,
                    "time": 258.88886299999956,
                    "velocity": 0.3858267716535433,
                    "duration": 0.1851851666666562
                },
                {
                    "name": "D#4",
                    "midi": 63,
                    "time": 259.0740481666662,
                    "velocity": 0.3858267716535433,
                    "duration": 0.18287035208334146
                },
                {
                    "name": "C4",
                    "midi": 60,
                    "time": 259.25691851874956,
                    "velocity": 0.3858267716535433,
                    "duration": 0.18749998125002776
                },
                {
                    "name": "D#4",
                    "midi": 63,
                    "time": 259.4444184999996,
                    "velocity": 0.3858267716535433,
                    "duration": 0.1851851666666562
                },
                {
                    "name": "C4",
                    "midi": 60,
                    "time": 259.62960366666624,
                    "velocity": 0.3858267716535433,
                    "duration": 0.18287035208334146
                },
                {
                    "name": "D#4",
                    "midi": 63,
                    "time": 259.8124740187496,
                    "velocity": 0.3858267716535433,
                    "duration": 0.18749998125002776
                },
                {
                    "name": "F#3",
                    "midi": 54,
                    "time": 259.9999739999996,
                    "velocity": 0.3858267716535433,
                    "duration": 0.2777777499999843
                },
                {
                    "name": "G3",
                    "midi": 55,
                    "time": 260.2777517499996,
                    "velocity": 0.3858267716535433,
                    "duration": 0.2777777499999843
                },
                {
                    "name": "G#3",
                    "midi": 56,
                    "time": 260.5555294999996,
                    "velocity": 0.3858267716535433,
                    "duration": 0.2777777499999843
                },
                {
                    "name": "C4",
                    "midi": 60,
                    "time": 260.83330724999956,
                    "velocity": 0.3858267716535433,
                    "duration": 0.2777777499999843
                },
                {
                    "name": "F#3",
                    "midi": 54,
                    "time": 261.11108499999955,
                    "velocity": 0.3858267716535433,
                    "duration": 0.2777777499999843
                },
                {
                    "name": "G3",
                    "midi": 55,
                    "time": 261.38886274999953,
                    "velocity": 0.3858267716535433,
                    "duration": 0.2777777499999843
                },
                {
                    "name": "G#3",
                    "midi": 56,
                    "time": 261.6666404999995,
                    "velocity": 0.3858267716535433,
                    "duration": 0.2777777499999843
                },
                {
                    "name": "C4",
                    "midi": 60,
                    "time": 261.9444182499995,
                    "velocity": 0.3858267716535433,
                    "duration": 0.2777777499999843
                },
                {
                    "name": "F#3",
                    "midi": 54,
                    "time": 262.2221959999995,
                    "velocity": 0.3858267716535433,
                    "duration": 0.2777777499999843
                },
                {
                    "name": "G3",
                    "midi": 55,
                    "time": 262.49997374999947,
                    "velocity": 0.3858267716535433,
                    "duration": 0.2777777499999843
                },
                {
                    "name": "G#3",
                    "midi": 56,
                    "time": 262.77775149999945,
                    "velocity": 0.3858267716535433,
                    "duration": 0.2777777499999843
                },
                {
                    "name": "C4",
                    "midi": 60,
                    "time": 263.05552924999944,
                    "velocity": 0.3858267716535433,
                    "duration": 0.2777777499999843
                },
                {
                    "name": "F#3",
                    "midi": 54,
                    "time": 263.3333069999994,
                    "velocity": 0.3858267716535433,
                    "duration": 0.2777777499999843
                },
                {
                    "name": "G3",
                    "midi": 55,
                    "time": 263.6110847499994,
                    "velocity": 0.3858267716535433,
                    "duration": 0.2777777499999843
                },
                {
                    "name": "G#3",
                    "midi": 56,
                    "time": 263.8888624999994,
                    "velocity": 0.3858267716535433,
                    "duration": 0.2777777499999843
                },
                {
                    "name": "C4",
                    "midi": 60,
                    "time": 264.1666402499994,
                    "velocity": 0.3858267716535433,
                    "duration": 0.2777777499999843
                },
                {
                    "name": "F#3",
                    "midi": 54,
                    "time": 264.44441799999936,
                    "velocity": 0.4881889763779528,
                    "duration": 0.2777777499999843
                },
                {
                    "name": "G3",
                    "midi": 55,
                    "time": 264.72219574999934,
                    "velocity": 0.4881889763779528,
                    "duration": 0.2777777499999843
                },
                {
                    "name": "G#3",
                    "midi": 56,
                    "time": 264.9999734999993,
                    "velocity": 0.4881889763779528,
                    "duration": 0.2777777499999843
                },
                {
                    "name": "C4",
                    "midi": 60,
                    "time": 265.2777512499993,
                    "velocity": 0.4881889763779528,
                    "duration": 0.2777777499999843
                },
                {
                    "name": "C5",
                    "midi": 72,
                    "time": 268.8888619999993,
                    "velocity": 0.4881889763779528,
                    "duration": 0.1851851666666562
                },
                {
                    "name": "D5",
                    "midi": 74,
                    "time": 269.07404716666593,
                    "velocity": 0.4881889763779528,
                    "duration": 0.18287035208334146
                },
                {
                    "name": "C5",
                    "midi": 72,
                    "time": 269.2569175187493,
                    "velocity": 0.4881889763779528,
                    "duration": 0.18749998125002776
                },
                {
                    "name": "D5",
                    "midi": 74,
                    "time": 269.4444174999993,
                    "velocity": 0.4881889763779528,
                    "duration": 0.1851851666666562
                },
                {
                    "name": "C5",
                    "midi": 72,
                    "time": 269.62960266666596,
                    "velocity": 0.4881889763779528,
                    "duration": 0.18287035208334146
                },
                {
                    "name": "D5",
                    "midi": 74,
                    "time": 269.8124730187493,
                    "velocity": 0.4881889763779528,
                    "duration": 0.18749998125002776
                },
                {
                    "name": "C5",
                    "midi": 72,
                    "time": 269.99997299999933,
                    "velocity": 0.4881889763779528,
                    "duration": 0.1851851666666562
                },
                {
                    "name": "D5",
                    "midi": 74,
                    "time": 270.185158166666,
                    "velocity": 0.4881889763779528,
                    "duration": 0.18287035208334146
                },
                {
                    "name": "C5",
                    "midi": 72,
                    "time": 270.3680285187493,
                    "velocity": 0.4881889763779528,
                    "duration": 0.18749998125002776
                },
                {
                    "name": "D5",
                    "midi": 74,
                    "time": 270.55552849999935,
                    "velocity": 0.4881889763779528,
                    "duration": 0.1851851666666562
                },
                {
                    "name": "C5",
                    "midi": 72,
                    "time": 270.740713666666,
                    "velocity": 0.4881889763779528,
                    "duration": 0.18287035208334146
                },
                {
                    "name": "D5",
                    "midi": 74,
                    "time": 270.92358401874935,
                    "velocity": 0.4881889763779528,
                    "duration": 0.18749998125002776
                },
                {
                    "name": "C5",
                    "midi": 72,
                    "time": 271.1110839999994,
                    "velocity": 0.4881889763779528,
                    "duration": 0.1851851666666562
                },
                {
                    "name": "D5",
                    "midi": 74,
                    "time": 271.29626916666604,
                    "velocity": 0.4881889763779528,
                    "duration": 0.18287035208334146
                },
                {
                    "name": "C5",
                    "midi": 72,
                    "time": 271.4791395187494,
                    "velocity": 0.4881889763779528,
                    "duration": 0.18749998125002776
                },
                {
                    "name": "C5",
                    "midi": 72,
                    "time": 271.6666394999994,
                    "velocity": 0.4881889763779528,
                    "duration": 0.1851851666666562
                },
                {
                    "name": "B4",
                    "midi": 71,
                    "time": 271.85182466666606,
                    "velocity": 0.4881889763779528,
                    "duration": 0.18287035208334146
                },
                {
                    "name": "A#4",
                    "midi": 70,
                    "time": 272.0346950187494,
                    "velocity": 0.4881889763779528,
                    "duration": 0.18749998125002776
                },
                {
                    "name": "C5",
                    "midi": 72,
                    "time": 272.22219499999943,
                    "velocity": 0.4881889763779528,
                    "duration": 2.7777775000000133
                },
                {
                    "name": "D5",
                    "midi": 74,
                    "time": 274.99997249999944,
                    "velocity": 0.4881889763779528,
                    "duration": 0.1851851666666562
                },
                {
                    "name": "C#5",
                    "midi": 73,
                    "time": 275.1851576666661,
                    "velocity": 0.4881889763779528,
                    "duration": 0.18287035208334146
                },
                {
                    "name": "C5",
                    "midi": 72,
                    "time": 275.36802801874944,
                    "velocity": 0.4881889763779528,
                    "duration": 0.18749998125002776
                },
                {
                    "name": "G#4",
                    "midi": 68,
                    "time": 275.55552799999947,
                    "velocity": 0.4881889763779528,
                    "duration": 0.5555555000000254
                },
                {
                    "name": "D4",
                    "midi": 62,
                    "time": 276.6666389999995,
                    "velocity": 0.4881889763779528,
                    "duration": 2.222221999999988
                },
                {
                    "name": "F#4",
                    "midi": 66,
                    "time": 276.6666389999995,
                    "velocity": 0.4881889763779528,
                    "duration": 2.222221999999988
                },
                {
                    "name": "G#4",
                    "midi": 68,
                    "time": 276.6666389999995,
                    "velocity": 0.4881889763779528,
                    "duration": 2.222221999999988
                }
            ],
            "controlChanges": {
                "7": [
                    {
                        "number": 7,
                        "time": 0,
                        "value": 1
                    }
                ],
                "10": [
                    {
                        "number": 10,
                        "time": 0,
                        "value": 0.23622047244094488
                    }
                ],
                "64": [
                    {
                        "number": 64,
                        "time": 94.99999049999974,
                        "value": 1
                    },
                    {
                        "number": 64,
                        "time": 96.38887924999973,
                        "value": 0
                    },
                    {
                        "number": 64,
                        "time": 99.99998999999973,
                        "value": 1
                    },
                    {
                        "number": 64,
                        "time": 101.66665649999972,
                        "value": 0
                    },
                    {
                        "number": 64,
                        "time": 117.2222104999997,
                        "value": 1
                    },
                    {
                        "number": 64,
                        "time": 119.44443249999969,
                        "value": 0
                    },
                    {
                        "number": 64,
                        "time": 126.66665399999968,
                        "value": 1
                    },
                    {
                        "number": 64,
                        "time": 128.74998712499968,
                        "value": 0
                    },
                    {
                        "number": 64,
                        "time": 131.11109799999966,
                        "value": 1
                    },
                    {
                        "number": 64,
                        "time": 133.33331999999965,
                        "value": 0
                    },
                    {
                        "number": 64,
                        "time": 195.41664712499963,
                        "value": 1
                    },
                    {
                        "number": 64,
                        "time": 198.8888689999996,
                        "value": 0
                    },
                    {
                        "number": 64,
                        "time": 202.0833131249996,
                        "value": 1
                    },
                    {
                        "number": 64,
                        "time": 206.52775712499957,
                        "value": 1
                    },
                    {
                        "number": 64,
                        "time": 215.55553399999954,
                        "value": 1
                    },
                    {
                        "number": 64,
                        "time": 223.33331099999953,
                        "value": 0
                    },
                    {
                        "number": 64,
                        "time": 224.44442199999952,
                        "value": 1
                    },
                    {
                        "number": 64,
                        "time": 232.2221989999995,
                        "value": 0
                    },
                    {
                        "number": 64,
                        "time": 237.7777539999995,
                        "value": 1
                    },
                    {
                        "number": 64,
                        "time": 242.03469801874948,
                        "value": 0
                    },
                    {
                        "number": 64,
                        "time": 242.22219799999948,
                        "value": 1
                    },
                    {
                        "number": 64,
                        "time": 246.47914201874946,
                        "value": 0
                    },
                    {
                        "number": 64,
                        "time": 246.66664199999946,
                        "value": 1
                    },
                    {
                        "number": 64,
                        "time": 250.92358601874943,
                        "value": 0
                    },
                    {
                        "number": 64,
                        "time": 251.11108599999943,
                        "value": 1
                    },
                    {
                        "number": 64,
                        "time": 255.3680300187494,
                        "value": 0
                    },
                    {
                        "number": 64,
                        "time": 255.5555299999994,
                        "value": 1
                    },
                    {
                        "number": 64,
                        "time": 259.8124740187496,
                        "value": 0
                    },
                    {
                        "number": 64,
                        "time": 259.9999739999996,
                        "value": 1
                    },
                    {
                        "number": 64,
                        "time": 264.1666402499994,
                        "value": 0
                    },
                    {
                        "number": 64,
                        "time": 264.44441799999936,
                        "value": 1
                    },
                    {
                        "number": 64,
                        "time": 265.5555289999993,
                        "value": 0
                    },
                    {
                        "number": 64,
                        "time": 268.8888619999993,
                        "value": 1
                    },
                    {
                        "number": 64,
                        "time": 272.0346950187494,
                        "value": 0
                    },
                    {
                        "number": 64,
                        "time": 272.22219499999943,
                        "value": 1
                    },
                    {
                        "number": 64,
                        "time": 275.36802801874944,
                        "value": 0
                    },
                    {
                        "number": 64,
                        "time": 275.55552799999947,
                        "value": 1
                    },
                    {
                        "number": 64,
                        "time": 276.6666389999995,
                        "value": 1
                    },
                    {
                        "number": 64,
                        "time": 281.1110829999995,
                        "value": 0
                    }
                ]
            },
            "id": 3,
            "name": "Instrument18",
            "instrumentNumber": 0,
            "instrument": "acoustic grand piano",
            "instrumentFamily": "piano",
            "channelNumber": 2,
            "isPercussion": false
        },
        {
            "startTime": 76.666659,
            "duration": 275.2777502500002,
            "length": 60,
            "notes": [
                {
                    "name": "D4",
                    "midi": 62,
                    "time": 76.666659,
                    "velocity": 0.4881889763779528,
                    "duration": 0.555555499999997
                },
                {
                    "name": "F#4",
                    "midi": 66,
                    "time": 76.666659,
                    "velocity": 0.4881889763779528,
                    "duration": 0.555555499999997
                },
                {
                    "name": "B4",
                    "midi": 71,
                    "time": 76.666659,
                    "velocity": 0.4881889763779528,
                    "duration": 0.555555499999997
                },
                {
                    "name": "F#4",
                    "midi": 66,
                    "time": 89.999991,
                    "velocity": 0.3858267716535433,
                    "duration": 0.13888887500000635
                },
                {
                    "name": "D4",
                    "midi": 62,
                    "time": 90.138879875,
                    "velocity": 0.3858267716535433,
                    "duration": 0.13888887500000635
                },
                {
                    "name": "F#4",
                    "midi": 66,
                    "time": 90.27776875,
                    "velocity": 0.3858267716535433,
                    "duration": 0.13888887500000635
                },
                {
                    "name": "D4",
                    "midi": 62,
                    "time": 90.41665762500001,
                    "velocity": 0.3858267716535433,
                    "duration": 0.13888887500000635
                },
                {
                    "name": "F#4",
                    "midi": 66,
                    "time": 90.55554650000002,
                    "velocity": 0.3858267716535433,
                    "duration": 0.13888887500000635
                },
                {
                    "name": "D4",
                    "midi": 62,
                    "time": 90.69443537500003,
                    "velocity": 0.3858267716535433,
                    "duration": 0.13888887500000635
                },
                {
                    "name": "F#4",
                    "midi": 66,
                    "time": 90.83332425000003,
                    "velocity": 0.3858267716535433,
                    "duration": 0.13888887500000635
                },
                {
                    "name": "D4",
                    "midi": 62,
                    "time": 90.97221312500004,
                    "velocity": 0.3858267716535433,
                    "duration": 0.13888887500000635
                },
                {
                    "name": "F#4",
                    "midi": 66,
                    "time": 91.11110200000005,
                    "velocity": 0.3858267716535433,
                    "duration": 0.13888887500000635
                },
                {
                    "name": "D4",
                    "midi": 62,
                    "time": 91.24999087500005,
                    "velocity": 0.3858267716535433,
                    "duration": 0.13888887500000635
                },
                {
                    "name": "F#4",
                    "midi": 66,
                    "time": 91.38887975000006,
                    "velocity": 0.3858267716535433,
                    "duration": 0.13888887500000635
                },
                {
                    "name": "D4",
                    "midi": 62,
                    "time": 91.52776862500006,
                    "velocity": 0.3858267716535433,
                    "duration": 0.13888887500000635
                },
                {
                    "name": "F#4",
                    "midi": 66,
                    "time": 91.66665750000007,
                    "velocity": 0.3858267716535433,
                    "duration": 0.13888887500000635
                },
                {
                    "name": "D4",
                    "midi": 62,
                    "time": 91.80554637500008,
                    "velocity": 0.3858267716535433,
                    "duration": 0.13888887500000635
                },
                {
                    "name": "F#4",
                    "midi": 66,
                    "time": 91.94443525000008,
                    "velocity": 0.3858267716535433,
                    "duration": 0.13888887500000635
                },
                {
                    "name": "D4",
                    "midi": 62,
                    "time": 92.08332412500009,
                    "velocity": 0.3858267716535433,
                    "duration": 0.13888887500000635
                },
                {
                    "name": "F#4",
                    "midi": 66,
                    "time": 92.2222130000001,
                    "velocity": 0.3858267716535433,
                    "duration": 0.13888887500000635
                },
                {
                    "name": "D4",
                    "midi": 62,
                    "time": 92.3611018750001,
                    "velocity": 0.3858267716535433,
                    "duration": 0.13888887500000635
                },
                {
                    "name": "F#4",
                    "midi": 66,
                    "time": 92.49999075000011,
                    "velocity": 0.3858267716535433,
                    "duration": 0.13888887500000635
                },
                {
                    "name": "D4",
                    "midi": 62,
                    "time": 92.63887962500011,
                    "velocity": 0.3858267716535433,
                    "duration": 0.13888887500000635
                },
                {
                    "name": "F#4",
                    "midi": 66,
                    "time": 92.77776850000012,
                    "velocity": 0.3858267716535433,
                    "duration": 0.13888887500000635
                },
                {
                    "name": "D4",
                    "midi": 62,
                    "time": 92.91665737500013,
                    "velocity": 0.3858267716535433,
                    "duration": 0.13888887500000635
                },
                {
                    "name": "F#4",
                    "midi": 66,
                    "time": 93.05554625000013,
                    "velocity": 0.3858267716535433,
                    "duration": 0.13888887500000635
                },
                {
                    "name": "D4",
                    "midi": 62,
                    "time": 93.19443512500014,
                    "velocity": 0.3858267716535433,
                    "duration": 0.13888887500000635
                },
                {
                    "name": "F#4",
                    "midi": 66,
                    "time": 93.33332400000015,
                    "velocity": 0.3858267716535433,
                    "duration": 0.13888887500000635
                },
                {
                    "name": "D4",
                    "midi": 62,
                    "time": 93.47221287500015,
                    "velocity": 0.3858267716535433,
                    "duration": 0.13888887500000635
                },
                {
                    "name": "F#4",
                    "midi": 66,
                    "time": 93.61110175000016,
                    "velocity": 0.3858267716535433,
                    "duration": 0.13888887500000635
                },
                {
                    "name": "D4",
                    "midi": 62,
                    "time": 93.74999062500017,
                    "velocity": 0.3858267716535433,
                    "duration": 0.13888887500000635
                },
                {
                    "name": "F#4",
                    "midi": 66,
                    "time": 93.88887950000017,
                    "velocity": 0.3858267716535433,
                    "duration": 0.13888887500000635
                },
                {
                    "name": "D4",
                    "midi": 62,
                    "time": 94.02776837500018,
                    "velocity": 0.3858267716535433,
                    "duration": 0.13888887500000635
                },
                {
                    "name": "F#4",
                    "midi": 66,
                    "time": 94.16665725000018,
                    "velocity": 0.3858267716535433,
                    "duration": 0.13888887500000635
                },
                {
                    "name": "D4",
                    "midi": 62,
                    "time": 94.30554612500019,
                    "velocity": 0.3858267716535433,
                    "duration": 0.13888887500000635
                },
                {
                    "name": "C3",
                    "midi": 48,
                    "time": 103.8888785000002,
                    "velocity": 0.3858267716535433,
                    "duration": 0.13888887500000635
                },
                {
                    "name": "D#3",
                    "midi": 51,
                    "time": 103.8888785000002,
                    "velocity": 0.3858267716535433,
                    "duration": 0.13888887500000635
                },
                {
                    "name": "D3",
                    "midi": 50,
                    "time": 104.02776737500021,
                    "velocity": 0.3858267716535433,
                    "duration": 0.13888887500000635
                },
                {
                    "name": "F#3",
                    "midi": 54,
                    "time": 104.02776737500021,
                    "velocity": 0.3858267716535433,
                    "duration": 0.13888887500000635
                },
                {
                    "name": "C3",
                    "midi": 48,
                    "time": 107.22221150000021,
                    "velocity": 0.3858267716535433,
                    "duration": 0.13888887500000635
                },
                {
                    "name": "D#3",
                    "midi": 51,
                    "time": 107.22221150000021,
                    "velocity": 0.3858267716535433,
                    "duration": 0.13888887500000635
                },
                {
                    "name": "D3",
                    "midi": 50,
                    "time": 107.36110037500022,
                    "velocity": 0.3858267716535433,
                    "duration": 0.13888887500000635
                },
                {
                    "name": "F#3",
                    "midi": 54,
                    "time": 107.36110037500022,
                    "velocity": 0.3858267716535433,
                    "duration": 0.13888887500000635
                },
                {
                    "name": "F#3",
                    "midi": 54,
                    "time": 237.77775400000021,
                    "velocity": 0.4881889763779528,
                    "duration": 2.222221999999988
                },
                {
                    "name": "F#3",
                    "midi": 54,
                    "time": 251.1110860000002,
                    "velocity": 0.4881889763779528,
                    "duration": 2.222221999999988
                },
                {
                    "name": "F#4",
                    "midi": 66,
                    "time": 272.22219500000017,
                    "velocity": 0.3858267716535433,
                    "duration": 0.1851851666666562
                },
                {
                    "name": "G4",
                    "midi": 67,
                    "time": 272.4073801666668,
                    "velocity": 0.3858267716535433,
                    "duration": 0.18287035208334146
                },
                {
                    "name": "F#4",
                    "midi": 66,
                    "time": 272.59025051875017,
                    "velocity": 0.3858267716535433,
                    "duration": 0.18749998125002776
                },
                {
                    "name": "G4",
                    "midi": 67,
                    "time": 272.7777505000002,
                    "velocity": 0.3858267716535433,
                    "duration": 0.1851851666666562
                },
                {
                    "name": "F#4",
                    "midi": 66,
                    "time": 272.96293566666685,
                    "velocity": 0.3858267716535433,
                    "duration": 0.18287035208334146
                },
                {
                    "name": "G4",
                    "midi": 67,
                    "time": 273.1458060187502,
                    "velocity": 0.3858267716535433,
                    "duration": 0.18749998125002776
                },
                {
                    "name": "F#4",
                    "midi": 66,
                    "time": 273.3333060000002,
                    "velocity": 0.3858267716535433,
                    "duration": 0.1851851666666562
                },
                {
                    "name": "G4",
                    "midi": 67,
                    "time": 273.5184911666669,
                    "velocity": 0.3858267716535433,
                    "duration": 0.18287035208334146
                },
                {
                    "name": "F#4",
                    "midi": 66,
                    "time": 273.7013615187502,
                    "velocity": 0.3858267716535433,
                    "duration": 0.18749998125002776
                },
                {
                    "name": "G4",
                    "midi": 67,
                    "time": 273.88886150000025,
                    "velocity": 0.3858267716535433,
                    "duration": 0.2777777499999843
                },
                {
                    "name": "F#4",
                    "midi": 66,
                    "time": 274.16663925000023,
                    "velocity": 0.3858267716535433,
                    "duration": 0.2777777499999843
                },
                {
                    "name": "G4",
                    "midi": 67,
                    "time": 274.4444170000002,
                    "velocity": 0.3858267716535433,
                    "duration": 0.2777777499999843
                },
                {
                    "name": "F#4",
                    "midi": 66,
                    "time": 274.7221947500002,
                    "velocity": 0.3858267716535433,
                    "duration": 0.1851851666666562
                },
                {
                    "name": "G4",
                    "midi": 67,
                    "time": 274.90737991666686,
                    "velocity": 0.3858267716535433,
                    "duration": 0.18287035208334146
                },
                {
                    "name": "F#4",
                    "midi": 66,
                    "time": 275.0902502687502,
                    "velocity": 0.3858267716535433,
                    "duration": 0.18749998125002776
                }
            ],
            "controlChanges": {
                "7": [
                    {
                        "number": 7,
                        "time": 0,
                        "value": 1
                    }
                ],
                "10": [
                    {
                        "number": 10,
                        "time": 0,
                        "value": 0.23622047244094488
                    }
                ],
                "64": [
                    {
                        "number": 64,
                        "time": 89.999991,
                        "value": 1
                    },
                    {
                        "number": 64,
                        "time": 94.30554612500019,
                        "value": 0
                    },
                    {
                        "number": 64,
                        "time": 237.77775400000021,
                        "value": 1
                    },
                    {
                        "number": 64,
                        "time": 249.9999750000002,
                        "value": 0
                    },
                    {
                        "number": 64,
                        "time": 251.1110860000002,
                        "value": 1
                    },
                    {
                        "number": 64,
                        "time": 258.8888630000002,
                        "value": 0
                    },
                    {
                        "number": 64,
                        "time": 272.22219500000017,
                        "value": 1
                    },
                    {
                        "number": 64,
                        "time": 275.0902502687502,
                        "value": 0
                    }
                ]
            },
            "id": 4,
            "name": "Instrument19",
            "instrumentNumber": 0,
            "instrument": "acoustic grand piano",
            "instrumentFamily": "piano",
            "channelNumber": 3,
            "isPercussion": false
        },
        {
            "startTime": 0,
            "duration": 0,
            "length": 0,
            "notes": [],
            "controlChanges": {},
            "id": 5
        }
    ]
}