{
    "header": {
        "PPQ": 480,
        "timeSignature": [
            3,
            4
        ],
        "bpm": 60,
        "name": "stravinsky firebird part 04"
    },
    "startTime": 0,
    "duration": 85,
    "tracks": [
        {
            "startTime": 0,
            "duration": 0,
            "length": 0,
            "notes": [],
            "controlChanges": {},
            "id": 0,
            "name": "stravinsky firebird part 04"
        },
        {
            "startTime": 0.5,
            "duration": 74,
            "length": 382,
            "notes": [
                {
                    "name": "C#6",
                    "midi": 85,
                    "time": 0.5,
                    "velocity": 0.6929133858267716,
                    "duration": 0.25
                },
                {
                    "name": "D#6",
                    "midi": 87,
                    "time": 0.5,
                    "velocity": 0.6929133858267716,
                    "duration": 0.25
                },
                {
                    "name": "D#5",
                    "midi": 75,
                    "time": 0.75,
                    "velocity": 0.6929133858267716,
                    "duration": 0.25
                },
                {
                    "name": "C#4",
                    "midi": 61,
                    "time": 1,
                    "velocity": 0.5905511811023622,
                    "duration": 0.25
                },
                {
                    "name": "D#4",
                    "midi": 63,
                    "time": 1,
                    "velocity": 0.5905511811023622,
                    "duration": 0.25
                },
                {
                    "name": "C#4",
                    "midi": 61,
                    "time": 1.25,
                    "velocity": 0.5905511811023622,
                    "duration": 0.25
                },
                {
                    "name": "D#4",
                    "midi": 63,
                    "time": 1.25,
                    "velocity": 0.5905511811023622,
                    "duration": 0.25
                },
                {
                    "name": "C#4",
                    "midi": 61,
                    "time": 1.5,
                    "velocity": 0.5905511811023622,
                    "duration": 0.25
                },
                {
                    "name": "D#4",
                    "midi": 63,
                    "time": 1.5,
                    "velocity": 0.5905511811023622,
                    "duration": 0.25
                },
                {
                    "name": "C#4",
                    "midi": 61,
                    "time": 1.75,
                    "velocity": 0.5905511811023622,
                    "duration": 0.25
                },
                {
                    "name": "D#4",
                    "midi": 63,
                    "time": 1.75,
                    "velocity": 0.5905511811023622,
                    "duration": 0.25
                },
                {
                    "name": "C#4",
                    "midi": 61,
                    "time": 2,
                    "velocity": 0.5905511811023622,
                    "duration": 0.25
                },
                {
                    "name": "D#4",
                    "midi": 63,
                    "time": 2,
                    "velocity": 0.5905511811023622,
                    "duration": 0.25
                },
                {
                    "name": "C#4",
                    "midi": 61,
                    "time": 2.25,
                    "velocity": 0.5905511811023622,
                    "duration": 0.25
                },
                {
                    "name": "D#4",
                    "midi": 63,
                    "time": 2.25,
                    "velocity": 0.5905511811023622,
                    "duration": 0.25
                },
                {
                    "name": "C#4",
                    "midi": 61,
                    "time": 2.5,
                    "velocity": 0.4881889763779528,
                    "duration": 0.25
                },
                {
                    "name": "D#4",
                    "midi": 63,
                    "time": 2.5,
                    "velocity": 0.4881889763779528,
                    "duration": 0.25
                },
                {
                    "name": "C#4",
                    "midi": 61,
                    "time": 2.75,
                    "velocity": 0.4881889763779528,
                    "duration": 0.25
                },
                {
                    "name": "D#4",
                    "midi": 63,
                    "time": 2.75,
                    "velocity": 0.4881889763779528,
                    "duration": 0.25
                },
                {
                    "name": "C#4",
                    "midi": 61,
                    "time": 3,
                    "velocity": 0.4881889763779528,
                    "duration": 0.25
                },
                {
                    "name": "D#4",
                    "midi": 63,
                    "time": 3,
                    "velocity": 0.4881889763779528,
                    "duration": 0.25
                },
                {
                    "name": "C#4",
                    "midi": 61,
                    "time": 3.25,
                    "velocity": 0.4881889763779528,
                    "duration": 0.25
                },
                {
                    "name": "D#4",
                    "midi": 63,
                    "time": 3.25,
                    "velocity": 0.4881889763779528,
                    "duration": 0.25
                },
                {
                    "name": "C#4",
                    "midi": 61,
                    "time": 3.5,
                    "velocity": 0.4881889763779528,
                    "duration": 0.25
                },
                {
                    "name": "D#4",
                    "midi": 63,
                    "time": 3.5,
                    "velocity": 0.4881889763779528,
                    "duration": 0.25
                },
                {
                    "name": "C#4",
                    "midi": 61,
                    "time": 3.75,
                    "velocity": 0.4881889763779528,
                    "duration": 0.25
                },
                {
                    "name": "D#4",
                    "midi": 63,
                    "time": 3.75,
                    "velocity": 0.4881889763779528,
                    "duration": 0.25
                },
                {
                    "name": "C#4",
                    "midi": 61,
                    "time": 4,
                    "velocity": 0.4881889763779528,
                    "duration": 0.25
                },
                {
                    "name": "D#4",
                    "midi": 63,
                    "time": 4,
                    "velocity": 0.4881889763779528,
                    "duration": 0.25
                },
                {
                    "name": "C#4",
                    "midi": 61,
                    "time": 4.25,
                    "velocity": 0.4881889763779528,
                    "duration": 0.25
                },
                {
                    "name": "D#4",
                    "midi": 63,
                    "time": 4.25,
                    "velocity": 0.4881889763779528,
                    "duration": 0.25
                },
                {
                    "name": "C#4",
                    "midi": 61,
                    "time": 4.5,
                    "velocity": 0.4881889763779528,
                    "duration": 0.25
                },
                {
                    "name": "D#4",
                    "midi": 63,
                    "time": 4.5,
                    "velocity": 0.4881889763779528,
                    "duration": 0.25
                },
                {
                    "name": "C#4",
                    "midi": 61,
                    "time": 4.75,
                    "velocity": 0.4881889763779528,
                    "duration": 0.25
                },
                {
                    "name": "D#4",
                    "midi": 63,
                    "time": 4.75,
                    "velocity": 0.4881889763779528,
                    "duration": 0.25
                },
                {
                    "name": "C#4",
                    "midi": 61,
                    "time": 5,
                    "velocity": 0.4881889763779528,
                    "duration": 0.25
                },
                {
                    "name": "D#4",
                    "midi": 63,
                    "time": 5,
                    "velocity": 0.4881889763779528,
                    "duration": 0.25
                },
                {
                    "name": "C#4",
                    "midi": 61,
                    "time": 5.25,
                    "velocity": 0.4881889763779528,
                    "duration": 0.25
                },
                {
                    "name": "D#4",
                    "midi": 63,
                    "time": 5.25,
                    "velocity": 0.4881889763779528,
                    "duration": 0.25
                },
                {
                    "name": "C#4",
                    "midi": 61,
                    "time": 5.5,
                    "velocity": 0.4881889763779528,
                    "duration": 0.25
                },
                {
                    "name": "D#4",
                    "midi": 63,
                    "time": 5.5,
                    "velocity": 0.4881889763779528,
                    "duration": 0.25
                },
                {
                    "name": "C#4",
                    "midi": 61,
                    "time": 5.75,
                    "velocity": 0.4881889763779528,
                    "duration": 0.25
                },
                {
                    "name": "D#4",
                    "midi": 63,
                    "time": 5.75,
                    "velocity": 0.4881889763779528,
                    "duration": 0.25
                },
                {
                    "name": "C#4",
                    "midi": 61,
                    "time": 6,
                    "velocity": 0.4881889763779528,
                    "duration": 0.25
                },
                {
                    "name": "D#4",
                    "midi": 63,
                    "time": 6,
                    "velocity": 0.4881889763779528,
                    "duration": 0.25
                },
                {
                    "name": "C#4",
                    "midi": 61,
                    "time": 6.25,
                    "velocity": 0.4881889763779528,
                    "duration": 0.25
                },
                {
                    "name": "D#4",
                    "midi": 63,
                    "time": 6.25,
                    "velocity": 0.4881889763779528,
                    "duration": 0.25
                },
                {
                    "name": "C#4",
                    "midi": 61,
                    "time": 6.5,
                    "velocity": 0.4881889763779528,
                    "duration": 0.25
                },
                {
                    "name": "D#4",
                    "midi": 63,
                    "time": 6.5,
                    "velocity": 0.4881889763779528,
                    "duration": 0.25
                },
                {
                    "name": "C#4",
                    "midi": 61,
                    "time": 6.75,
                    "velocity": 0.4881889763779528,
                    "duration": 0.25
                },
                {
                    "name": "D#4",
                    "midi": 63,
                    "time": 6.75,
                    "velocity": 0.4881889763779528,
                    "duration": 0.25
                },
                {
                    "name": "C#4",
                    "midi": 61,
                    "time": 7,
                    "velocity": 0.4881889763779528,
                    "duration": 0.25
                },
                {
                    "name": "D#4",
                    "midi": 63,
                    "time": 7,
                    "velocity": 0.4881889763779528,
                    "duration": 0.25
                },
                {
                    "name": "C#4",
                    "midi": 61,
                    "time": 7.25,
                    "velocity": 0.4881889763779528,
                    "duration": 0.25
                },
                {
                    "name": "D#4",
                    "midi": 63,
                    "time": 7.25,
                    "velocity": 0.4881889763779528,
                    "duration": 0.25
                },
                {
                    "name": "C#4",
                    "midi": 61,
                    "time": 7.5,
                    "velocity": 0.4881889763779528,
                    "duration": 0.25
                },
                {
                    "name": "D#4",
                    "midi": 63,
                    "time": 7.5,
                    "velocity": 0.4881889763779528,
                    "duration": 0.25
                },
                {
                    "name": "C#4",
                    "midi": 61,
                    "time": 7.75,
                    "velocity": 0.4881889763779528,
                    "duration": 0.25
                },
                {
                    "name": "D#4",
                    "midi": 63,
                    "time": 7.75,
                    "velocity": 0.4881889763779528,
                    "duration": 0.25
                },
                {
                    "name": "C#4",
                    "midi": 61,
                    "time": 8,
                    "velocity": 0.4881889763779528,
                    "duration": 0.25
                },
                {
                    "name": "D#4",
                    "midi": 63,
                    "time": 8,
                    "velocity": 0.4881889763779528,
                    "duration": 0.25
                },
                {
                    "name": "C#4",
                    "midi": 61,
                    "time": 8.25,
                    "velocity": 0.4881889763779528,
                    "duration": 0.25
                },
                {
                    "name": "D#4",
                    "midi": 63,
                    "time": 8.25,
                    "velocity": 0.4881889763779528,
                    "duration": 0.25
                },
                {
                    "name": "C#4",
                    "midi": 61,
                    "time": 8.5,
                    "velocity": 0.4881889763779528,
                    "duration": 0.25
                },
                {
                    "name": "D#4",
                    "midi": 63,
                    "time": 8.5,
                    "velocity": 0.4881889763779528,
                    "duration": 0.25
                },
                {
                    "name": "C#4",
                    "midi": 61,
                    "time": 8.75,
                    "velocity": 0.4881889763779528,
                    "duration": 0.25
                },
                {
                    "name": "D#4",
                    "midi": 63,
                    "time": 8.75,
                    "velocity": 0.4881889763779528,
                    "duration": 0.25
                },
                {
                    "name": "C#4",
                    "midi": 61,
                    "time": 9,
                    "velocity": 0.4881889763779528,
                    "duration": 0.25
                },
                {
                    "name": "D#4",
                    "midi": 63,
                    "time": 9,
                    "velocity": 0.4881889763779528,
                    "duration": 0.25
                },
                {
                    "name": "C#5",
                    "midi": 73,
                    "time": 9,
                    "velocity": 0.4881889763779528,
                    "duration": 0.25
                },
                {
                    "name": "D#5",
                    "midi": 75,
                    "time": 9,
                    "velocity": 0.4881889763779528,
                    "duration": 0.25
                },
                {
                    "name": "C#5",
                    "midi": 73,
                    "time": 9.25,
                    "velocity": 0.4881889763779528,
                    "duration": 0.25
                },
                {
                    "name": "D#5",
                    "midi": 75,
                    "time": 9.25,
                    "velocity": 0.4881889763779528,
                    "duration": 0.25
                },
                {
                    "name": "C#5",
                    "midi": 73,
                    "time": 9.5,
                    "velocity": 0.4881889763779528,
                    "duration": 0.25
                },
                {
                    "name": "D#5",
                    "midi": 75,
                    "time": 9.5,
                    "velocity": 0.4881889763779528,
                    "duration": 0.25
                },
                {
                    "name": "C#5",
                    "midi": 73,
                    "time": 9.75,
                    "velocity": 0.4881889763779528,
                    "duration": 0.25
                },
                {
                    "name": "D#5",
                    "midi": 75,
                    "time": 9.75,
                    "velocity": 0.4881889763779528,
                    "duration": 0.25
                },
                {
                    "name": "C#5",
                    "midi": 73,
                    "time": 10,
                    "velocity": 0.4881889763779528,
                    "duration": 0.25
                },
                {
                    "name": "D#5",
                    "midi": 75,
                    "time": 10,
                    "velocity": 0.4881889763779528,
                    "duration": 0.25
                },
                {
                    "name": "C#5",
                    "midi": 73,
                    "time": 10.25,
                    "velocity": 0.4881889763779528,
                    "duration": 0.25
                },
                {
                    "name": "D#5",
                    "midi": 75,
                    "time": 10.25,
                    "velocity": 0.4881889763779528,
                    "duration": 0.25
                },
                {
                    "name": "C#5",
                    "midi": 73,
                    "time": 10.5,
                    "velocity": 0.4881889763779528,
                    "duration": 0.25
                },
                {
                    "name": "D#5",
                    "midi": 75,
                    "time": 10.5,
                    "velocity": 0.4881889763779528,
                    "duration": 0.25
                },
                {
                    "name": "C#5",
                    "midi": 73,
                    "time": 10.75,
                    "velocity": 0.4881889763779528,
                    "duration": 0.25
                },
                {
                    "name": "D#5",
                    "midi": 75,
                    "time": 10.75,
                    "velocity": 0.4881889763779528,
                    "duration": 0.25
                },
                {
                    "name": "C#4",
                    "midi": 61,
                    "time": 11,
                    "velocity": 0.4881889763779528,
                    "duration": 0.25
                },
                {
                    "name": "D#4",
                    "midi": 63,
                    "time": 11,
                    "velocity": 0.4881889763779528,
                    "duration": 0.25
                },
                {
                    "name": "C#4",
                    "midi": 61,
                    "time": 11.25,
                    "velocity": 0.4881889763779528,
                    "duration": 0.25
                },
                {
                    "name": "D#4",
                    "midi": 63,
                    "time": 11.25,
                    "velocity": 0.4881889763779528,
                    "duration": 0.25
                },
                {
                    "name": "C#4",
                    "midi": 61,
                    "time": 11.5,
                    "velocity": 0.4881889763779528,
                    "duration": 0.25
                },
                {
                    "name": "D#4",
                    "midi": 63,
                    "time": 11.5,
                    "velocity": 0.4881889763779528,
                    "duration": 0.25
                },
                {
                    "name": "C#4",
                    "midi": 61,
                    "time": 11.75,
                    "velocity": 0.4881889763779528,
                    "duration": 0.25
                },
                {
                    "name": "D#4",
                    "midi": 63,
                    "time": 11.75,
                    "velocity": 0.4881889763779528,
                    "duration": 0.25
                },
                {
                    "name": "C#4",
                    "midi": 61,
                    "time": 12,
                    "velocity": 0.4881889763779528,
                    "duration": 0.25
                },
                {
                    "name": "D#4",
                    "midi": 63,
                    "time": 12,
                    "velocity": 0.4881889763779528,
                    "duration": 0.25
                },
                {
                    "name": "C#4",
                    "midi": 61,
                    "time": 12.25,
                    "velocity": 0.4881889763779528,
                    "duration": 0.25
                },
                {
                    "name": "D#4",
                    "midi": 63,
                    "time": 12.25,
                    "velocity": 0.4881889763779528,
                    "duration": 0.25
                },
                {
                    "name": "C#4",
                    "midi": 61,
                    "time": 12.5,
                    "velocity": 0.4881889763779528,
                    "duration": 0.25
                },
                {
                    "name": "D#4",
                    "midi": 63,
                    "time": 12.5,
                    "velocity": 0.4881889763779528,
                    "duration": 0.25
                },
                {
                    "name": "C#4",
                    "midi": 61,
                    "time": 12.75,
                    "velocity": 0.4881889763779528,
                    "duration": 0.25
                },
                {
                    "name": "D#4",
                    "midi": 63,
                    "time": 12.75,
                    "velocity": 0.4881889763779528,
                    "duration": 0.25
                },
                {
                    "name": "C#4",
                    "midi": 61,
                    "time": 13,
                    "velocity": 0.4881889763779528,
                    "duration": 0.25
                },
                {
                    "name": "D#4",
                    "midi": 63,
                    "time": 13,
                    "velocity": 0.4881889763779528,
                    "duration": 0.25
                },
                {
                    "name": "C#5",
                    "midi": 73,
                    "time": 13,
                    "velocity": 0.4881889763779528,
                    "duration": 0.25
                },
                {
                    "name": "D#5",
                    "midi": 75,
                    "time": 13,
                    "velocity": 0.4881889763779528,
                    "duration": 0.25
                },
                {
                    "name": "C#5",
                    "midi": 73,
                    "time": 13.25,
                    "velocity": 0.4881889763779528,
                    "duration": 0.25
                },
                {
                    "name": "D#5",
                    "midi": 75,
                    "time": 13.25,
                    "velocity": 0.4881889763779528,
                    "duration": 0.25
                },
                {
                    "name": "C#5",
                    "midi": 73,
                    "time": 13.5,
                    "velocity": 0.4881889763779528,
                    "duration": 0.25
                },
                {
                    "name": "D#5",
                    "midi": 75,
                    "time": 13.5,
                    "velocity": 0.4881889763779528,
                    "duration": 0.25
                },
                {
                    "name": "C#5",
                    "midi": 73,
                    "time": 13.75,
                    "velocity": 0.4881889763779528,
                    "duration": 0.25
                },
                {
                    "name": "D#5",
                    "midi": 75,
                    "time": 13.75,
                    "velocity": 0.4881889763779528,
                    "duration": 0.25
                },
                {
                    "name": "C#5",
                    "midi": 73,
                    "time": 14,
                    "velocity": 0.4881889763779528,
                    "duration": 0.25
                },
                {
                    "name": "D#5",
                    "midi": 75,
                    "time": 14,
                    "velocity": 0.4881889763779528,
                    "duration": 0.25
                },
                {
                    "name": "C#5",
                    "midi": 73,
                    "time": 14.25,
                    "velocity": 0.4881889763779528,
                    "duration": 0.25
                },
                {
                    "name": "D#5",
                    "midi": 75,
                    "time": 14.25,
                    "velocity": 0.4881889763779528,
                    "duration": 0.25
                },
                {
                    "name": "F#4",
                    "midi": 66,
                    "time": 14.5,
                    "velocity": 0.4881889763779528,
                    "duration": 0.25
                },
                {
                    "name": "G#4",
                    "midi": 68,
                    "time": 14.5,
                    "velocity": 0.4881889763779528,
                    "duration": 0.25
                },
                {
                    "name": "F#4",
                    "midi": 66,
                    "time": 14.75,
                    "velocity": 0.4881889763779528,
                    "duration": 0.25
                },
                {
                    "name": "G#4",
                    "midi": 68,
                    "time": 14.75,
                    "velocity": 0.4881889763779528,
                    "duration": 0.25
                },
                {
                    "name": "F#4",
                    "midi": 66,
                    "time": 15,
                    "velocity": 0.4881889763779528,
                    "duration": 0.25
                },
                {
                    "name": "G#4",
                    "midi": 68,
                    "time": 15,
                    "velocity": 0.4881889763779528,
                    "duration": 0.25
                },
                {
                    "name": "F#4",
                    "midi": 66,
                    "time": 15.25,
                    "velocity": 0.4881889763779528,
                    "duration": 0.25
                },
                {
                    "name": "G#4",
                    "midi": 68,
                    "time": 15.25,
                    "velocity": 0.4881889763779528,
                    "duration": 0.25
                },
                {
                    "name": "F#4",
                    "midi": 66,
                    "time": 15.5,
                    "velocity": 0.4881889763779528,
                    "duration": 0.25
                },
                {
                    "name": "G#4",
                    "midi": 68,
                    "time": 15.5,
                    "velocity": 0.4881889763779528,
                    "duration": 0.25
                },
                {
                    "name": "F#4",
                    "midi": 66,
                    "time": 15.75,
                    "velocity": 0.4881889763779528,
                    "duration": 0.25
                },
                {
                    "name": "G#4",
                    "midi": 68,
                    "time": 15.75,
                    "velocity": 0.4881889763779528,
                    "duration": 0.25
                },
                {
                    "name": "F#4",
                    "midi": 66,
                    "time": 16,
                    "velocity": 0.4881889763779528,
                    "duration": 0.25
                },
                {
                    "name": "G#4",
                    "midi": 68,
                    "time": 16,
                    "velocity": 0.4881889763779528,
                    "duration": 0.25
                },
                {
                    "name": "F#4",
                    "midi": 66,
                    "time": 16.25,
                    "velocity": 0.4881889763779528,
                    "duration": 0.25
                },
                {
                    "name": "G#4",
                    "midi": 68,
                    "time": 16.25,
                    "velocity": 0.4881889763779528,
                    "duration": 0.25
                },
                {
                    "name": "F#4",
                    "midi": 66,
                    "time": 16.5,
                    "velocity": 0.4881889763779528,
                    "duration": 0.25
                },
                {
                    "name": "G#4",
                    "midi": 68,
                    "time": 16.5,
                    "velocity": 0.4881889763779528,
                    "duration": 0.25
                },
                {
                    "name": "F#4",
                    "midi": 66,
                    "time": 16.75,
                    "velocity": 0.4881889763779528,
                    "duration": 0.25
                },
                {
                    "name": "G#4",
                    "midi": 68,
                    "time": 16.75,
                    "velocity": 0.4881889763779528,
                    "duration": 0.25
                },
                {
                    "name": "F#5",
                    "midi": 78,
                    "time": 17,
                    "velocity": 0.4881889763779528,
                    "duration": 0.25
                },
                {
                    "name": "G#5",
                    "midi": 80,
                    "time": 17,
                    "velocity": 0.4881889763779528,
                    "duration": 0.25
                },
                {
                    "name": "F#5",
                    "midi": 78,
                    "time": 17.25,
                    "velocity": 0.4881889763779528,
                    "duration": 0.25
                },
                {
                    "name": "G#5",
                    "midi": 80,
                    "time": 17.25,
                    "velocity": 0.4881889763779528,
                    "duration": 0.25
                },
                {
                    "name": "F#5",
                    "midi": 78,
                    "time": 17.5,
                    "velocity": 0.4881889763779528,
                    "duration": 0.25
                },
                {
                    "name": "G#5",
                    "midi": 80,
                    "time": 17.5,
                    "velocity": 0.4881889763779528,
                    "duration": 0.25
                },
                {
                    "name": "F#5",
                    "midi": 78,
                    "time": 17.75,
                    "velocity": 0.4881889763779528,
                    "duration": 0.25
                },
                {
                    "name": "G#5",
                    "midi": 80,
                    "time": 17.75,
                    "velocity": 0.4881889763779528,
                    "duration": 0.25
                },
                {
                    "name": "F#5",
                    "midi": 78,
                    "time": 18,
                    "velocity": 0.4881889763779528,
                    "duration": 0.25
                },
                {
                    "name": "G#5",
                    "midi": 80,
                    "time": 18,
                    "velocity": 0.4881889763779528,
                    "duration": 0.25
                },
                {
                    "name": "F#5",
                    "midi": 78,
                    "time": 18.25,
                    "velocity": 0.4881889763779528,
                    "duration": 0.25
                },
                {
                    "name": "G#5",
                    "midi": 80,
                    "time": 18.25,
                    "velocity": 0.4881889763779528,
                    "duration": 0.25
                },
                {
                    "name": "F#5",
                    "midi": 78,
                    "time": 18.5,
                    "velocity": 0.4881889763779528,
                    "duration": 0.25
                },
                {
                    "name": "G#5",
                    "midi": 80,
                    "time": 18.5,
                    "velocity": 0.4881889763779528,
                    "duration": 0.25
                },
                {
                    "name": "F#5",
                    "midi": 78,
                    "time": 18.75,
                    "velocity": 0.4881889763779528,
                    "duration": 0.25
                },
                {
                    "name": "G#5",
                    "midi": 80,
                    "time": 18.75,
                    "velocity": 0.4881889763779528,
                    "duration": 0.25
                },
                {
                    "name": "F#4",
                    "midi": 66,
                    "time": 19,
                    "velocity": 0.4881889763779528,
                    "duration": 0.25
                },
                {
                    "name": "G#4",
                    "midi": 68,
                    "time": 19,
                    "velocity": 0.4881889763779528,
                    "duration": 0.25
                },
                {
                    "name": "F#4",
                    "midi": 66,
                    "time": 19.25,
                    "velocity": 0.4881889763779528,
                    "duration": 0.25
                },
                {
                    "name": "G#4",
                    "midi": 68,
                    "time": 19.25,
                    "velocity": 0.4881889763779528,
                    "duration": 0.25
                },
                {
                    "name": "F#4",
                    "midi": 66,
                    "time": 19.5,
                    "velocity": 0.4881889763779528,
                    "duration": 0.25
                },
                {
                    "name": "G#4",
                    "midi": 68,
                    "time": 19.5,
                    "velocity": 0.4881889763779528,
                    "duration": 0.25
                },
                {
                    "name": "F#4",
                    "midi": 66,
                    "time": 19.75,
                    "velocity": 0.4881889763779528,
                    "duration": 0.25
                },
                {
                    "name": "G#4",
                    "midi": 68,
                    "time": 19.75,
                    "velocity": 0.4881889763779528,
                    "duration": 0.25
                },
                {
                    "name": "F#4",
                    "midi": 66,
                    "time": 20,
                    "velocity": 0.4881889763779528,
                    "duration": 0.25
                },
                {
                    "name": "G#4",
                    "midi": 68,
                    "time": 20,
                    "velocity": 0.4881889763779528,
                    "duration": 0.25
                },
                {
                    "name": "F#4",
                    "midi": 66,
                    "time": 20.25,
                    "velocity": 0.4881889763779528,
                    "duration": 0.25
                },
                {
                    "name": "G#4",
                    "midi": 68,
                    "time": 20.25,
                    "velocity": 0.4881889763779528,
                    "duration": 0.25
                },
                {
                    "name": "F#4",
                    "midi": 66,
                    "time": 20.5,
                    "velocity": 0.4881889763779528,
                    "duration": 0.25
                },
                {
                    "name": "G#4",
                    "midi": 68,
                    "time": 20.5,
                    "velocity": 0.4881889763779528,
                    "duration": 0.25
                },
                {
                    "name": "F#4",
                    "midi": 66,
                    "time": 20.75,
                    "velocity": 0.4881889763779528,
                    "duration": 0.25
                },
                {
                    "name": "G#4",
                    "midi": 68,
                    "time": 20.75,
                    "velocity": 0.4881889763779528,
                    "duration": 0.25
                },
                {
                    "name": "F#5",
                    "midi": 78,
                    "time": 21,
                    "velocity": 0.4881889763779528,
                    "duration": 0.25
                },
                {
                    "name": "G#5",
                    "midi": 80,
                    "time": 21,
                    "velocity": 0.4881889763779528,
                    "duration": 0.25
                },
                {
                    "name": "F#5",
                    "midi": 78,
                    "time": 21.25,
                    "velocity": 0.4881889763779528,
                    "duration": 0.25
                },
                {
                    "name": "G#5",
                    "midi": 80,
                    "time": 21.25,
                    "velocity": 0.4881889763779528,
                    "duration": 0.25
                },
                {
                    "name": "F#5",
                    "midi": 78,
                    "time": 21.5,
                    "velocity": 0.4881889763779528,
                    "duration": 0.25
                },
                {
                    "name": "G#5",
                    "midi": 80,
                    "time": 21.5,
                    "velocity": 0.4881889763779528,
                    "duration": 0.25
                },
                {
                    "name": "F#5",
                    "midi": 78,
                    "time": 21.75,
                    "velocity": 0.4881889763779528,
                    "duration": 0.25
                },
                {
                    "name": "G#5",
                    "midi": 80,
                    "time": 21.75,
                    "velocity": 0.4881889763779528,
                    "duration": 0.25
                },
                {
                    "name": "F#5",
                    "midi": 78,
                    "time": 22,
                    "velocity": 0.4881889763779528,
                    "duration": 0.25
                },
                {
                    "name": "G#5",
                    "midi": 80,
                    "time": 22,
                    "velocity": 0.4881889763779528,
                    "duration": 0.25
                },
                {
                    "name": "F#5",
                    "midi": 78,
                    "time": 22.25,
                    "velocity": 0.4881889763779528,
                    "duration": 0.25
                },
                {
                    "name": "G#5",
                    "midi": 80,
                    "time": 22.25,
                    "velocity": 0.4881889763779528,
                    "duration": 0.25
                },
                {
                    "name": "F#5",
                    "midi": 78,
                    "time": 22.5,
                    "velocity": 0.4881889763779528,
                    "duration": 0.5
                },
                {
                    "name": "G#5",
                    "midi": 80,
                    "time": 22.5,
                    "velocity": 0.4881889763779528,
                    "duration": 0.5
                },
                {
                    "name": "D#5",
                    "midi": 75,
                    "time": 31,
                    "velocity": 0.4881889763779528,
                    "duration": 0.25
                },
                {
                    "name": "G5",
                    "midi": 79,
                    "time": 31,
                    "velocity": 0.4881889763779528,
                    "duration": 0.25
                },
                {
                    "name": "D#6",
                    "midi": 87,
                    "time": 31,
                    "velocity": 0.4881889763779528,
                    "duration": 0.25
                },
                {
                    "name": "G6",
                    "midi": 91,
                    "time": 31,
                    "velocity": 0.4881889763779528,
                    "duration": 0.25
                },
                {
                    "name": "D#5",
                    "midi": 75,
                    "time": 31.25,
                    "velocity": 0.4881889763779528,
                    "duration": 0.25
                },
                {
                    "name": "G5",
                    "midi": 79,
                    "time": 31.25,
                    "velocity": 0.4881889763779528,
                    "duration": 0.25
                },
                {
                    "name": "D#6",
                    "midi": 87,
                    "time": 31.25,
                    "velocity": 0.4881889763779528,
                    "duration": 0.25
                },
                {
                    "name": "G6",
                    "midi": 91,
                    "time": 31.25,
                    "velocity": 0.4881889763779528,
                    "duration": 0.25
                },
                {
                    "name": "D#5",
                    "midi": 75,
                    "time": 31.5,
                    "velocity": 0.4881889763779528,
                    "duration": 0.25
                },
                {
                    "name": "G5",
                    "midi": 79,
                    "time": 31.5,
                    "velocity": 0.4881889763779528,
                    "duration": 0.25
                },
                {
                    "name": "D#6",
                    "midi": 87,
                    "time": 31.5,
                    "velocity": 0.4881889763779528,
                    "duration": 0.25
                },
                {
                    "name": "G6",
                    "midi": 91,
                    "time": 31.5,
                    "velocity": 0.4881889763779528,
                    "duration": 0.25
                },
                {
                    "name": "D#5",
                    "midi": 75,
                    "time": 31.75,
                    "velocity": 0.4881889763779528,
                    "duration": 0.25
                },
                {
                    "name": "G5",
                    "midi": 79,
                    "time": 31.75,
                    "velocity": 0.4881889763779528,
                    "duration": 0.25
                },
                {
                    "name": "D#6",
                    "midi": 87,
                    "time": 31.75,
                    "velocity": 0.4881889763779528,
                    "duration": 0.25
                },
                {
                    "name": "G6",
                    "midi": 91,
                    "time": 31.75,
                    "velocity": 0.4881889763779528,
                    "duration": 0.25
                },
                {
                    "name": "D#5",
                    "midi": 75,
                    "time": 32,
                    "velocity": 0.4881889763779528,
                    "duration": 0.25
                },
                {
                    "name": "G5",
                    "midi": 79,
                    "time": 32,
                    "velocity": 0.4881889763779528,
                    "duration": 0.25
                },
                {
                    "name": "D#6",
                    "midi": 87,
                    "time": 32,
                    "velocity": 0.4881889763779528,
                    "duration": 0.25
                },
                {
                    "name": "G6",
                    "midi": 91,
                    "time": 32,
                    "velocity": 0.4881889763779528,
                    "duration": 0.25
                },
                {
                    "name": "D#5",
                    "midi": 75,
                    "time": 32.25,
                    "velocity": 0.4881889763779528,
                    "duration": 0.25
                },
                {
                    "name": "G5",
                    "midi": 79,
                    "time": 32.25,
                    "velocity": 0.4881889763779528,
                    "duration": 0.25
                },
                {
                    "name": "D#6",
                    "midi": 87,
                    "time": 32.25,
                    "velocity": 0.4881889763779528,
                    "duration": 0.25
                },
                {
                    "name": "G6",
                    "midi": 91,
                    "time": 32.25,
                    "velocity": 0.4881889763779528,
                    "duration": 0.25
                },
                {
                    "name": "D#5",
                    "midi": 75,
                    "time": 32.5,
                    "velocity": 0.4881889763779528,
                    "duration": 0.25
                },
                {
                    "name": "G5",
                    "midi": 79,
                    "time": 32.5,
                    "velocity": 0.4881889763779528,
                    "duration": 0.25
                },
                {
                    "name": "D#6",
                    "midi": 87,
                    "time": 32.5,
                    "velocity": 0.4881889763779528,
                    "duration": 0.25
                },
                {
                    "name": "G6",
                    "midi": 91,
                    "time": 32.5,
                    "velocity": 0.4881889763779528,
                    "duration": 0.25
                },
                {
                    "name": "D#5",
                    "midi": 75,
                    "time": 32.75,
                    "velocity": 0.4881889763779528,
                    "duration": 0.25
                },
                {
                    "name": "G5",
                    "midi": 79,
                    "time": 32.75,
                    "velocity": 0.4881889763779528,
                    "duration": 0.25
                },
                {
                    "name": "D#6",
                    "midi": 87,
                    "time": 32.75,
                    "velocity": 0.4881889763779528,
                    "duration": 0.25
                },
                {
                    "name": "G6",
                    "midi": 91,
                    "time": 32.75,
                    "velocity": 0.4881889763779528,
                    "duration": 0.25
                },
                {
                    "name": "G6",
                    "midi": 91,
                    "time": 33,
                    "velocity": 0.4881889763779528,
                    "duration": 0.1666666666666643
                },
                {
                    "name": "G#6",
                    "midi": 92,
                    "time": 33.166666666666664,
                    "velocity": 0.4881889763779528,
                    "duration": 0.16458333333333286
                },
                {
                    "name": "A6",
                    "midi": 93,
                    "time": 33.33125,
                    "velocity": 0.4881889763779528,
                    "duration": 0.16875000000000284
                },
                {
                    "name": "C#7",
                    "midi": 97,
                    "time": 33.5,
                    "velocity": 0.4881889763779528,
                    "duration": 0.1666666666666643
                },
                {
                    "name": "D7",
                    "midi": 98,
                    "time": 33.666666666666664,
                    "velocity": 0.4881889763779528,
                    "duration": 0.16458333333333286
                },
                {
                    "name": "D#7",
                    "midi": 99,
                    "time": 33.83125,
                    "velocity": 0.4881889763779528,
                    "duration": 0.16875000000000284
                },
                {
                    "name": "G7",
                    "midi": 103,
                    "time": 34,
                    "velocity": 0.4881889763779528,
                    "duration": 0.1666666666666643
                },
                {
                    "name": "D#7",
                    "midi": 99,
                    "time": 34.166666666666664,
                    "velocity": 0.4881889763779528,
                    "duration": 0.16458333333333286
                },
                {
                    "name": "D7",
                    "midi": 98,
                    "time": 34.33125,
                    "velocity": 0.4881889763779528,
                    "duration": 0.16875000000000284
                },
                {
                    "name": "C#7",
                    "midi": 97,
                    "time": 34.5,
                    "velocity": 0.4881889763779528,
                    "duration": 0.1666666666666643
                },
                {
                    "name": "A6",
                    "midi": 93,
                    "time": 34.666666666666664,
                    "velocity": 0.4881889763779528,
                    "duration": 0.16458333333333286
                },
                {
                    "name": "G#6",
                    "midi": 92,
                    "time": 34.83125,
                    "velocity": 0.4881889763779528,
                    "duration": 0.16875000000000284
                },
                {
                    "name": "D#5",
                    "midi": 75,
                    "time": 35,
                    "velocity": 0.4881889763779528,
                    "duration": 0.25
                },
                {
                    "name": "G5",
                    "midi": 79,
                    "time": 35,
                    "velocity": 0.4881889763779528,
                    "duration": 0.25
                },
                {
                    "name": "D#6",
                    "midi": 87,
                    "time": 35,
                    "velocity": 0.4881889763779528,
                    "duration": 0.25
                },
                {
                    "name": "G6",
                    "midi": 91,
                    "time": 35,
                    "velocity": 0.4881889763779528,
                    "duration": 0.25
                },
                {
                    "name": "D#5",
                    "midi": 75,
                    "time": 35.25,
                    "velocity": 0.4881889763779528,
                    "duration": 0.25
                },
                {
                    "name": "G5",
                    "midi": 79,
                    "time": 35.25,
                    "velocity": 0.4881889763779528,
                    "duration": 0.25
                },
                {
                    "name": "D#6",
                    "midi": 87,
                    "time": 35.25,
                    "velocity": 0.4881889763779528,
                    "duration": 0.25
                },
                {
                    "name": "G6",
                    "midi": 91,
                    "time": 35.25,
                    "velocity": 0.4881889763779528,
                    "duration": 0.25
                },
                {
                    "name": "D#5",
                    "midi": 75,
                    "time": 35.5,
                    "velocity": 0.4881889763779528,
                    "duration": 0.25
                },
                {
                    "name": "G5",
                    "midi": 79,
                    "time": 35.5,
                    "velocity": 0.4881889763779528,
                    "duration": 0.25
                },
                {
                    "name": "D#6",
                    "midi": 87,
                    "time": 35.5,
                    "velocity": 0.4881889763779528,
                    "duration": 0.25
                },
                {
                    "name": "G6",
                    "midi": 91,
                    "time": 35.5,
                    "velocity": 0.4881889763779528,
                    "duration": 0.25
                },
                {
                    "name": "D#5",
                    "midi": 75,
                    "time": 35.75,
                    "velocity": 0.4881889763779528,
                    "duration": 0.25
                },
                {
                    "name": "G5",
                    "midi": 79,
                    "time": 35.75,
                    "velocity": 0.4881889763779528,
                    "duration": 0.25
                },
                {
                    "name": "D#6",
                    "midi": 87,
                    "time": 35.75,
                    "velocity": 0.4881889763779528,
                    "duration": 0.25
                },
                {
                    "name": "G6",
                    "midi": 91,
                    "time": 35.75,
                    "velocity": 0.4881889763779528,
                    "duration": 0.25
                },
                {
                    "name": "D#5",
                    "midi": 75,
                    "time": 36,
                    "velocity": 0.4881889763779528,
                    "duration": 0.25
                },
                {
                    "name": "G5",
                    "midi": 79,
                    "time": 36,
                    "velocity": 0.4881889763779528,
                    "duration": 0.25
                },
                {
                    "name": "D#6",
                    "midi": 87,
                    "time": 36,
                    "velocity": 0.4881889763779528,
                    "duration": 0.25
                },
                {
                    "name": "G6",
                    "midi": 91,
                    "time": 36,
                    "velocity": 0.4881889763779528,
                    "duration": 0.25
                },
                {
                    "name": "D#5",
                    "midi": 75,
                    "time": 36.25,
                    "velocity": 0.4881889763779528,
                    "duration": 0.25
                },
                {
                    "name": "G5",
                    "midi": 79,
                    "time": 36.25,
                    "velocity": 0.4881889763779528,
                    "duration": 0.25
                },
                {
                    "name": "D#6",
                    "midi": 87,
                    "time": 36.25,
                    "velocity": 0.4881889763779528,
                    "duration": 0.25
                },
                {
                    "name": "G6",
                    "midi": 91,
                    "time": 36.25,
                    "velocity": 0.4881889763779528,
                    "duration": 0.25
                },
                {
                    "name": "D#5",
                    "midi": 75,
                    "time": 36.5,
                    "velocity": 0.4881889763779528,
                    "duration": 0.25
                },
                {
                    "name": "G5",
                    "midi": 79,
                    "time": 36.5,
                    "velocity": 0.4881889763779528,
                    "duration": 0.25
                },
                {
                    "name": "D#6",
                    "midi": 87,
                    "time": 36.5,
                    "velocity": 0.4881889763779528,
                    "duration": 0.25
                },
                {
                    "name": "G6",
                    "midi": 91,
                    "time": 36.5,
                    "velocity": 0.4881889763779528,
                    "duration": 0.25
                },
                {
                    "name": "D#5",
                    "midi": 75,
                    "time": 36.75,
                    "velocity": 0.4881889763779528,
                    "duration": 0.25
                },
                {
                    "name": "G5",
                    "midi": 79,
                    "time": 36.75,
                    "velocity": 0.4881889763779528,
                    "duration": 0.25
                },
                {
                    "name": "D#6",
                    "midi": 87,
                    "time": 36.75,
                    "velocity": 0.4881889763779528,
                    "duration": 0.25
                },
                {
                    "name": "G6",
                    "midi": 91,
                    "time": 36.75,
                    "velocity": 0.4881889763779528,
                    "duration": 0.25
                },
                {
                    "name": "D#6",
                    "midi": 87,
                    "time": 37,
                    "velocity": 0.4881889763779528,
                    "duration": 0.1666666666666643
                },
                {
                    "name": "G6",
                    "midi": 91,
                    "time": 37.166666666666664,
                    "velocity": 0.4881889763779528,
                    "duration": 0.16458333333333286
                },
                {
                    "name": "G#6",
                    "midi": 92,
                    "time": 37.33125,
                    "velocity": 0.4881889763779528,
                    "duration": 0.16875000000000284
                },
                {
                    "name": "A6",
                    "midi": 93,
                    "time": 37.5,
                    "velocity": 0.4881889763779528,
                    "duration": 0.1666666666666643
                },
                {
                    "name": "C#7",
                    "midi": 97,
                    "time": 37.666666666666664,
                    "velocity": 0.4881889763779528,
                    "duration": 0.16458333333333286
                },
                {
                    "name": "D7",
                    "midi": 98,
                    "time": 37.83125,
                    "velocity": 0.4881889763779528,
                    "duration": 0.16875000000000284
                },
                {
                    "name": "D#7",
                    "midi": 99,
                    "time": 38,
                    "velocity": 0.4881889763779528,
                    "duration": 0.1666666666666643
                },
                {
                    "name": "G6",
                    "midi": 91,
                    "time": 38.166666666666664,
                    "velocity": 0.4881889763779528,
                    "duration": 0.16458333333333286
                },
                {
                    "name": "G7",
                    "midi": 103,
                    "time": 38.33125,
                    "velocity": 0.4881889763779528,
                    "duration": 0.16875000000000284
                },
                {
                    "name": "D#7",
                    "midi": 99,
                    "time": 38.5,
                    "velocity": 0.4881889763779528,
                    "duration": 0.1666666666666643
                },
                {
                    "name": "D7",
                    "midi": 98,
                    "time": 38.666666666666664,
                    "velocity": 0.4881889763779528,
                    "duration": 0.16458333333333286
                },
                {
                    "name": "C#7",
                    "midi": 97,
                    "time": 38.83125,
                    "velocity": 0.4881889763779528,
                    "duration": 0.16875000000000284
                },
                {
                    "name": "C7",
                    "midi": 96,
                    "time": 39,
                    "velocity": 0.4881889763779528,
                    "duration": 0.25
                },
                {
                    "name": "G#5",
                    "midi": 80,
                    "time": 45,
                    "velocity": 0.4881889763779528,
                    "duration": 0.25
                },
                {
                    "name": "C6",
                    "midi": 84,
                    "time": 45,
                    "velocity": 0.4881889763779528,
                    "duration": 0.25
                },
                {
                    "name": "G#6",
                    "midi": 92,
                    "time": 45,
                    "velocity": 0.4881889763779528,
                    "duration": 0.25
                },
                {
                    "name": "C7",
                    "midi": 96,
                    "time": 45,
                    "velocity": 0.4881889763779528,
                    "duration": 0.25
                },
                {
                    "name": "G#5",
                    "midi": 80,
                    "time": 45.25,
                    "velocity": 0.4881889763779528,
                    "duration": 0.25
                },
                {
                    "name": "C6",
                    "midi": 84,
                    "time": 45.25,
                    "velocity": 0.4881889763779528,
                    "duration": 0.25
                },
                {
                    "name": "G#6",
                    "midi": 92,
                    "time": 45.25,
                    "velocity": 0.4881889763779528,
                    "duration": 0.25
                },
                {
                    "name": "C7",
                    "midi": 96,
                    "time": 45.25,
                    "velocity": 0.4881889763779528,
                    "duration": 0.25
                },
                {
                    "name": "G#5",
                    "midi": 80,
                    "time": 45.5,
                    "velocity": 0.4881889763779528,
                    "duration": 0.25
                },
                {
                    "name": "C6",
                    "midi": 84,
                    "time": 45.5,
                    "velocity": 0.4881889763779528,
                    "duration": 0.25
                },
                {
                    "name": "G#6",
                    "midi": 92,
                    "time": 45.5,
                    "velocity": 0.4881889763779528,
                    "duration": 0.25
                },
                {
                    "name": "C7",
                    "midi": 96,
                    "time": 45.5,
                    "velocity": 0.4881889763779528,
                    "duration": 0.25
                },
                {
                    "name": "G#5",
                    "midi": 80,
                    "time": 45.75,
                    "velocity": 0.4881889763779528,
                    "duration": 0.25
                },
                {
                    "name": "C6",
                    "midi": 84,
                    "time": 45.75,
                    "velocity": 0.4881889763779528,
                    "duration": 0.25
                },
                {
                    "name": "G#6",
                    "midi": 92,
                    "time": 45.75,
                    "velocity": 0.4881889763779528,
                    "duration": 0.25
                },
                {
                    "name": "C7",
                    "midi": 96,
                    "time": 45.75,
                    "velocity": 0.4881889763779528,
                    "duration": 0.25
                },
                {
                    "name": "G#5",
                    "midi": 80,
                    "time": 46,
                    "velocity": 0.4881889763779528,
                    "duration": 0.25
                },
                {
                    "name": "C6",
                    "midi": 84,
                    "time": 46,
                    "velocity": 0.4881889763779528,
                    "duration": 0.25
                },
                {
                    "name": "G#6",
                    "midi": 92,
                    "time": 46,
                    "velocity": 0.4881889763779528,
                    "duration": 0.25
                },
                {
                    "name": "C7",
                    "midi": 96,
                    "time": 46,
                    "velocity": 0.4881889763779528,
                    "duration": 0.25
                },
                {
                    "name": "G#5",
                    "midi": 80,
                    "time": 46.25,
                    "velocity": 0.4881889763779528,
                    "duration": 0.25
                },
                {
                    "name": "C6",
                    "midi": 84,
                    "time": 46.25,
                    "velocity": 0.4881889763779528,
                    "duration": 0.25
                },
                {
                    "name": "G6",
                    "midi": 91,
                    "time": 46.25,
                    "velocity": 0.4881889763779528,
                    "duration": 0.25
                },
                {
                    "name": "C7",
                    "midi": 96,
                    "time": 46.25,
                    "velocity": 0.4881889763779528,
                    "duration": 0.25
                },
                {
                    "name": "G#5",
                    "midi": 80,
                    "time": 46.5,
                    "velocity": 0.4881889763779528,
                    "duration": 0.25
                },
                {
                    "name": "C#6",
                    "midi": 85,
                    "time": 46.5,
                    "velocity": 0.4881889763779528,
                    "duration": 0.25
                },
                {
                    "name": "F6",
                    "midi": 89,
                    "time": 46.5,
                    "velocity": 0.4881889763779528,
                    "duration": 0.25
                },
                {
                    "name": "C7",
                    "midi": 96,
                    "time": 46.5,
                    "velocity": 0.4881889763779528,
                    "duration": 0.25
                },
                {
                    "name": "G#5",
                    "midi": 80,
                    "time": 46.75,
                    "velocity": 0.4881889763779528,
                    "duration": 0.25
                },
                {
                    "name": "D6",
                    "midi": 86,
                    "time": 46.75,
                    "velocity": 0.4881889763779528,
                    "duration": 0.25
                },
                {
                    "name": "E6",
                    "midi": 88,
                    "time": 46.75,
                    "velocity": 0.4881889763779528,
                    "duration": 0.25
                },
                {
                    "name": "C7",
                    "midi": 96,
                    "time": 46.75,
                    "velocity": 0.4881889763779528,
                    "duration": 0.25
                },
                {
                    "name": "A5",
                    "midi": 81,
                    "time": 47,
                    "velocity": 0.4881889763779528,
                    "duration": 0.25
                },
                {
                    "name": "D#6",
                    "midi": 87,
                    "time": 47,
                    "velocity": 0.4881889763779528,
                    "duration": 0.25
                },
                {
                    "name": "B6",
                    "midi": 95,
                    "time": 47,
                    "velocity": 0.4881889763779528,
                    "duration": 0.25
                },
                {
                    "name": "C#6",
                    "midi": 85,
                    "time": 47.5,
                    "velocity": 0.5905511811023622,
                    "duration": 0.25
                },
                {
                    "name": "D6",
                    "midi": 86,
                    "time": 47.75,
                    "velocity": 0.5905511811023622,
                    "duration": 0.25
                },
                {
                    "name": "D#6",
                    "midi": 87,
                    "time": 48,
                    "velocity": 0.5905511811023622,
                    "duration": 0.25
                },
                {
                    "name": "G6",
                    "midi": 91,
                    "time": 48.25,
                    "velocity": 0.5905511811023622,
                    "duration": 0.25
                },
                {
                    "name": "F#6",
                    "midi": 90,
                    "time": 48.5,
                    "velocity": 0.5905511811023622,
                    "duration": 0.25
                },
                {
                    "name": "F6",
                    "midi": 89,
                    "time": 48.75,
                    "velocity": 0.5905511811023622,
                    "duration": 0.25
                },
                {
                    "name": "C#6",
                    "midi": 85,
                    "time": 49,
                    "velocity": 0.5905511811023622,
                    "duration": 0.25
                },
                {
                    "name": "A5",
                    "midi": 81,
                    "time": 49.25,
                    "velocity": 0.5905511811023622,
                    "duration": 0.25
                },
                {
                    "name": "A#5",
                    "midi": 82,
                    "time": 49.5,
                    "velocity": 0.5905511811023622,
                    "duration": 0.25
                },
                {
                    "name": "B5",
                    "midi": 83,
                    "time": 49.75,
                    "velocity": 0.5905511811023622,
                    "duration": 0.25
                },
                {
                    "name": "D#6",
                    "midi": 87,
                    "time": 50,
                    "velocity": 0.5905511811023622,
                    "duration": 0.25
                },
                {
                    "name": "D6",
                    "midi": 86,
                    "time": 50.25,
                    "velocity": 0.5905511811023622,
                    "duration": 0.25
                },
                {
                    "name": "C#6",
                    "midi": 85,
                    "time": 50.5,
                    "velocity": 0.5905511811023622,
                    "duration": 0.25
                },
                {
                    "name": "A5",
                    "midi": 81,
                    "time": 50.75,
                    "velocity": 0.5905511811023622,
                    "duration": 0.25
                },
                {
                    "name": "F5",
                    "midi": 77,
                    "time": 51,
                    "velocity": 0.5905511811023622,
                    "duration": 0.5
                },
                {
                    "name": "A5",
                    "midi": 81,
                    "time": 51.5,
                    "velocity": 0.5905511811023622,
                    "duration": 0.25
                },
                {
                    "name": "A#5",
                    "midi": 82,
                    "time": 51.75,
                    "velocity": 0.5905511811023622,
                    "duration": 0.25
                },
                {
                    "name": "B5",
                    "midi": 83,
                    "time": 52,
                    "velocity": 0.5905511811023622,
                    "duration": 0.25
                },
                {
                    "name": "D#6",
                    "midi": 87,
                    "time": 52.25,
                    "velocity": 0.5905511811023622,
                    "duration": 0.25
                },
                {
                    "name": "D6",
                    "midi": 86,
                    "time": 52.5,
                    "velocity": 0.5905511811023622,
                    "duration": 0.25
                },
                {
                    "name": "C#6",
                    "midi": 85,
                    "time": 52.75,
                    "velocity": 0.5905511811023622,
                    "duration": 0.25
                },
                {
                    "name": "A5",
                    "midi": 81,
                    "time": 53,
                    "velocity": 0.5905511811023622,
                    "duration": 0.25
                },
                {
                    "name": "F5",
                    "midi": 77,
                    "time": 53.25,
                    "velocity": 0.5905511811023622,
                    "duration": 0.25
                },
                {
                    "name": "F#5",
                    "midi": 78,
                    "time": 53.5,
                    "velocity": 0.5905511811023622,
                    "duration": 0.25
                },
                {
                    "name": "G5",
                    "midi": 79,
                    "time": 53.75,
                    "velocity": 0.5905511811023622,
                    "duration": 0.25
                },
                {
                    "name": "B5",
                    "midi": 83,
                    "time": 54,
                    "velocity": 0.5905511811023622,
                    "duration": 0.25
                },
                {
                    "name": "A#5",
                    "midi": 82,
                    "time": 54.25,
                    "velocity": 0.5905511811023622,
                    "duration": 0.25
                },
                {
                    "name": "A5",
                    "midi": 81,
                    "time": 54.5,
                    "velocity": 0.6929133858267716,
                    "duration": 0.25
                },
                {
                    "name": "F5",
                    "midi": 77,
                    "time": 54.75,
                    "velocity": 0.6929133858267716,
                    "duration": 0.25
                },
                {
                    "name": "C#5",
                    "midi": 73,
                    "time": 55,
                    "velocity": 0.6929133858267716,
                    "duration": 0.25
                },
                {
                    "name": "A5",
                    "midi": 81,
                    "time": 55.25,
                    "velocity": 0.6929133858267716,
                    "duration": 0.25
                },
                {
                    "name": "A#5",
                    "midi": 82,
                    "time": 55.5,
                    "velocity": 0.5905511811023622,
                    "duration": 0.25
                },
                {
                    "name": "B5",
                    "midi": 83,
                    "time": 55.75,
                    "velocity": 0.5905511811023622,
                    "duration": 0.25
                },
                {
                    "name": "D#6",
                    "midi": 87,
                    "time": 56,
                    "velocity": 0.5905511811023622,
                    "duration": 0.25
                },
                {
                    "name": "D6",
                    "midi": 86,
                    "time": 56.25,
                    "velocity": 0.5905511811023622,
                    "duration": 0.25
                },
                {
                    "name": "C#6",
                    "midi": 85,
                    "time": 56.5,
                    "velocity": 0.6929133858267716,
                    "duration": 0.25
                },
                {
                    "name": "A5",
                    "midi": 81,
                    "time": 56.75,
                    "velocity": 0.6929133858267716,
                    "duration": 0.25
                },
                {
                    "name": "F5",
                    "midi": 77,
                    "time": 57,
                    "velocity": 0.6929133858267716,
                    "duration": 0.25
                },
                {
                    "name": "C#6",
                    "midi": 85,
                    "time": 57.25,
                    "velocity": 0.6929133858267716,
                    "duration": 0.25
                },
                {
                    "name": "D6",
                    "midi": 86,
                    "time": 57.5,
                    "velocity": 0.5905511811023622,
                    "duration": 0.25
                },
                {
                    "name": "D#6",
                    "midi": 87,
                    "time": 57.75,
                    "velocity": 0.5905511811023622,
                    "duration": 0.25
                },
                {
                    "name": "G6",
                    "midi": 91,
                    "time": 58,
                    "velocity": 0.5905511811023622,
                    "duration": 0.25
                },
                {
                    "name": "F#6",
                    "midi": 90,
                    "time": 58.25,
                    "velocity": 0.5905511811023622,
                    "duration": 0.25
                },
                {
                    "name": "F6",
                    "midi": 89,
                    "time": 58.5,
                    "velocity": 0.6929133858267716,
                    "duration": 0.25
                },
                {
                    "name": "C#6",
                    "midi": 85,
                    "time": 58.75,
                    "velocity": 0.6929133858267716,
                    "duration": 0.25
                },
                {
                    "name": "A5",
                    "midi": 81,
                    "time": 59,
                    "velocity": 0.6929133858267716,
                    "duration": 0.25
                },
                {
                    "name": "F6",
                    "midi": 89,
                    "time": 59.25,
                    "velocity": 0.6929133858267716,
                    "duration": 0.25
                },
                {
                    "name": "F#6",
                    "midi": 90,
                    "time": 59.5,
                    "velocity": 0.6929133858267716,
                    "duration": 0.25
                },
                {
                    "name": "G6",
                    "midi": 91,
                    "time": 59.75,
                    "velocity": 0.6929133858267716,
                    "duration": 0.25
                },
                {
                    "name": "B6",
                    "midi": 95,
                    "time": 60,
                    "velocity": 0.6929133858267716,
                    "duration": 0.25
                },
                {
                    "name": "A#6",
                    "midi": 94,
                    "time": 60.25,
                    "velocity": 0.6929133858267716,
                    "duration": 0.25
                },
                {
                    "name": "A6",
                    "midi": 93,
                    "time": 60.5,
                    "velocity": 0.6929133858267716,
                    "duration": 0.25
                },
                {
                    "name": "F6",
                    "midi": 89,
                    "time": 60.75,
                    "velocity": 0.6929133858267716,
                    "duration": 0.25
                },
                {
                    "name": "C#7",
                    "midi": 97,
                    "time": 61,
                    "velocity": 0.6929133858267716,
                    "duration": 0.25
                },
                {
                    "name": "C7",
                    "midi": 96,
                    "time": 61.25,
                    "velocity": 0.6929133858267716,
                    "duration": 0.25
                },
                {
                    "name": "B6",
                    "midi": 95,
                    "time": 61.5,
                    "velocity": 0.6929133858267716,
                    "duration": 0.25
                },
                {
                    "name": "G6",
                    "midi": 91,
                    "time": 61.75,
                    "velocity": 0.6929133858267716,
                    "duration": 0.25
                },
                {
                    "name": "D#7",
                    "midi": 99,
                    "time": 62,
                    "velocity": 0.6929133858267716,
                    "duration": 0.25
                },
                {
                    "name": "D7",
                    "midi": 98,
                    "time": 62.25,
                    "velocity": 0.6929133858267716,
                    "duration": 0.25
                },
                {
                    "name": "C#7",
                    "midi": 97,
                    "time": 62.5,
                    "velocity": 0.6929133858267716,
                    "duration": 0.25
                },
                {
                    "name": "A6",
                    "midi": 93,
                    "time": 62.75,
                    "velocity": 0.6929133858267716,
                    "duration": 0.25
                },
                {
                    "name": "D4",
                    "midi": 62,
                    "time": 68.5,
                    "velocity": 0.4881889763779528,
                    "duration": 0.5
                },
                {
                    "name": "E4",
                    "midi": 64,
                    "time": 68.5,
                    "velocity": 0.4881889763779528,
                    "duration": 0.5
                },
                {
                    "name": "G#4",
                    "midi": 68,
                    "time": 68.5,
                    "velocity": 0.4881889763779528,
                    "duration": 0.5
                },
                {
                    "name": "A#4",
                    "midi": 70,
                    "time": 68.5,
                    "velocity": 0.4881889763779528,
                    "duration": 0.5
                },
                {
                    "name": "D4",
                    "midi": 62,
                    "time": 69.5,
                    "velocity": 0.4881889763779528,
                    "duration": 0.5
                },
                {
                    "name": "E4",
                    "midi": 64,
                    "time": 69.5,
                    "velocity": 0.4881889763779528,
                    "duration": 0.5
                },
                {
                    "name": "G#4",
                    "midi": 68,
                    "time": 69.5,
                    "velocity": 0.4881889763779528,
                    "duration": 0.5
                },
                {
                    "name": "A#4",
                    "midi": 70,
                    "time": 69.5,
                    "velocity": 0.4881889763779528,
                    "duration": 0.5
                },
                {
                    "name": "D4",
                    "midi": 62,
                    "time": 72.5,
                    "velocity": 0.4881889763779528,
                    "duration": 0.5
                },
                {
                    "name": "E4",
                    "midi": 64,
                    "time": 72.5,
                    "velocity": 0.4881889763779528,
                    "duration": 0.5
                },
                {
                    "name": "G#4",
                    "midi": 68,
                    "time": 72.5,
                    "velocity": 0.4881889763779528,
                    "duration": 0.5
                },
                {
                    "name": "A#4",
                    "midi": 70,
                    "time": 72.5,
                    "velocity": 0.4881889763779528,
                    "duration": 0.5
                },
                {
                    "name": "D4",
                    "midi": 62,
                    "time": 73.5,
                    "velocity": 0.4881889763779528,
                    "duration": 0.5
                },
                {
                    "name": "E4",
                    "midi": 64,
                    "time": 73.5,
                    "velocity": 0.4881889763779528,
                    "duration": 0.5
                },
                {
                    "name": "G#4",
                    "midi": 68,
                    "time": 73.5,
                    "velocity": 0.4881889763779528,
                    "duration": 0.5
                },
                {
                    "name": "A#4",
                    "midi": 70,
                    "time": 73.5,
                    "velocity": 0.4881889763779528,
                    "duration": 0.5
                }
            ],
            "controlChanges": {
                "7": [
                    {
                        "number": 7,
                        "time": 0,
                        "value": 1
                    }
                ],
                "10": [
                    {
                        "number": 10,
                        "time": 0,
                        "value": 0.7637795275590551
                    }
                ]
            },
            "id": 1,
            "name": "Grand Piano",
            "instrumentNumber": 0,
            "instrument": "acoustic grand piano",
            "instrumentFamily": "piano",
            "channelNumber": 0,
            "isPercussion": false
        },
        {
            "startTime": 6.5,
            "duration": 84.375,
            "length": 277,
            "notes": [
                {
                    "name": "G4",
                    "midi": 67,
                    "time": 6.5,
                    "velocity": 0.5905511811023622,
                    "duration": 0.04791666666666661
                },
                {
                    "name": "G#4",
                    "midi": 68,
                    "time": 6.75,
                    "velocity": 0.5905511811023622,
                    "duration": 0.04791666666666661
                },
                {
                    "name": "A4",
                    "midi": 69,
                    "time": 7,
                    "velocity": 0.5905511811023622,
                    "duration": 0.04791666666666661
                },
                {
                    "name": "C#5",
                    "midi": 73,
                    "time": 7.25,
                    "velocity": 0.5905511811023622,
                    "duration": 0.04791666666666661
                },
                {
                    "name": "D#5",
                    "midi": 75,
                    "time": 7.5,
                    "velocity": 0.5905511811023622,
                    "duration": 0.04791666666666661
                },
                {
                    "name": "D5",
                    "midi": 74,
                    "time": 7.75,
                    "velocity": 0.5905511811023622,
                    "duration": 0.04791666666666661
                },
                {
                    "name": "C#5",
                    "midi": 73,
                    "time": 8,
                    "velocity": 0.6929133858267716,
                    "duration": 0.047916666666667496
                },
                {
                    "name": "A4",
                    "midi": 69,
                    "time": 8.25,
                    "velocity": 0.6929133858267716,
                    "duration": 0.047916666666667496
                },
                {
                    "name": "A#4",
                    "midi": 70,
                    "time": 8.5,
                    "velocity": 0.6929133858267716,
                    "duration": 0.047916666666667496
                },
                {
                    "name": "B4",
                    "midi": 71,
                    "time": 8.75,
                    "velocity": 0.6929133858267716,
                    "duration": 0.047916666666667496
                },
                {
                    "name": "D#5",
                    "midi": 75,
                    "time": 9,
                    "velocity": 0.5905511811023622,
                    "duration": 0.047916666666667496
                },
                {
                    "name": "D#5",
                    "midi": 75,
                    "time": 9.25,
                    "velocity": 0.5905511811023622,
                    "duration": 0.047916666666667496
                },
                {
                    "name": "E5",
                    "midi": 76,
                    "time": 9.5,
                    "velocity": 0.5905511811023622,
                    "duration": 0.047916666666667496
                },
                {
                    "name": "F5",
                    "midi": 77,
                    "time": 9.75,
                    "velocity": 0.6929133858267716,
                    "duration": 0.047916666666667496
                },
                {
                    "name": "A5",
                    "midi": 81,
                    "time": 10,
                    "velocity": 0.6929133858267716,
                    "duration": 0.047916666666667496
                },
                {
                    "name": "G#5",
                    "midi": 80,
                    "time": 10.25,
                    "velocity": 0.6929133858267716,
                    "duration": 0.047916666666667496
                },
                {
                    "name": "G5",
                    "midi": 79,
                    "time": 10.5,
                    "velocity": 0.5905511811023622,
                    "duration": 0.047916666666667496
                },
                {
                    "name": "D#5",
                    "midi": 75,
                    "time": 10.75,
                    "velocity": 0.5905511811023622,
                    "duration": 0.047916666666667496
                },
                {
                    "name": "A4",
                    "midi": 69,
                    "time": 11,
                    "velocity": 0.5905511811023622,
                    "duration": 0.047916666666667496
                },
                {
                    "name": "C#5",
                    "midi": 73,
                    "time": 11.25,
                    "velocity": 0.5905511811023622,
                    "duration": 0.047916666666667496
                },
                {
                    "name": "D#5",
                    "midi": 75,
                    "time": 11.5,
                    "velocity": 0.5905511811023622,
                    "duration": 0.047916666666667496
                },
                {
                    "name": "D5",
                    "midi": 74,
                    "time": 11.75,
                    "velocity": 0.5905511811023622,
                    "duration": 0.047916666666667496
                },
                {
                    "name": "C#5",
                    "midi": 73,
                    "time": 12,
                    "velocity": 0.6929133858267716,
                    "duration": 0.047916666666667496
                },
                {
                    "name": "A4",
                    "midi": 69,
                    "time": 12.25,
                    "velocity": 0.6929133858267716,
                    "duration": 0.047916666666667496
                },
                {
                    "name": "A#4",
                    "midi": 70,
                    "time": 12.5,
                    "velocity": 0.6929133858267716,
                    "duration": 0.047916666666667496
                },
                {
                    "name": "B4",
                    "midi": 71,
                    "time": 12.75,
                    "velocity": 0.6929133858267716,
                    "duration": 0.047916666666667496
                },
                {
                    "name": "D#5",
                    "midi": 75,
                    "time": 13,
                    "velocity": 0.5905511811023622,
                    "duration": 0.047916666666667496
                },
                {
                    "name": "E5",
                    "midi": 76,
                    "time": 13.25,
                    "velocity": 0.5905511811023622,
                    "duration": 0.047916666666667496
                },
                {
                    "name": "F5",
                    "midi": 77,
                    "time": 13.5,
                    "velocity": 0.5905511811023622,
                    "duration": 0.047916666666667496
                },
                {
                    "name": "A5",
                    "midi": 81,
                    "time": 13.75,
                    "velocity": 0.5905511811023622,
                    "duration": 0.047916666666667496
                },
                {
                    "name": "A#5",
                    "midi": 82,
                    "time": 14,
                    "velocity": 0.6929133858267716,
                    "duration": 0.047916666666667496
                },
                {
                    "name": "B5",
                    "midi": 83,
                    "time": 14.25,
                    "velocity": 0.6929133858267716,
                    "duration": 0.047916666666667496
                },
                {
                    "name": "D#6",
                    "midi": 87,
                    "time": 14.5,
                    "velocity": 0.6929133858267716,
                    "duration": 0.09791666666666643
                },
                {
                    "name": "D5",
                    "midi": 74,
                    "time": 15,
                    "velocity": 0.5905511811023622,
                    "duration": 0.047916666666667496
                },
                {
                    "name": "F#5",
                    "midi": 78,
                    "time": 15.25,
                    "velocity": 0.5905511811023622,
                    "duration": 0.047916666666667496
                },
                {
                    "name": "G#5",
                    "midi": 80,
                    "time": 15.5,
                    "velocity": 0.5905511811023622,
                    "duration": 0.047916666666667496
                },
                {
                    "name": "G5",
                    "midi": 79,
                    "time": 15.75,
                    "velocity": 0.5905511811023622,
                    "duration": 0.047916666666667496
                },
                {
                    "name": "F#5",
                    "midi": 78,
                    "time": 16,
                    "velocity": 0.5905511811023622,
                    "duration": 0.04791666666666572
                },
                {
                    "name": "D5",
                    "midi": 74,
                    "time": 16.25,
                    "velocity": 0.5905511811023622,
                    "duration": 0.04791666666666572
                },
                {
                    "name": "D#5",
                    "midi": 75,
                    "time": 16.5,
                    "velocity": 0.5905511811023622,
                    "duration": 0.04791666666666572
                },
                {
                    "name": "E5",
                    "midi": 76,
                    "time": 16.75,
                    "velocity": 0.5905511811023622,
                    "duration": 0.04791666666666572
                },
                {
                    "name": "C6",
                    "midi": 84,
                    "time": 18.5,
                    "velocity": 0.5905511811023622,
                    "duration": 0.5
                },
                {
                    "name": "D6",
                    "midi": 86,
                    "time": 18.5,
                    "velocity": 0.5905511811023622,
                    "duration": 0.5
                },
                {
                    "name": "C5",
                    "midi": 72,
                    "time": 19,
                    "velocity": 0.5905511811023622,
                    "duration": 0.5
                },
                {
                    "name": "D5",
                    "midi": 74,
                    "time": 19,
                    "velocity": 0.5905511811023622,
                    "duration": 0.5
                },
                {
                    "name": "C7",
                    "midi": 96,
                    "time": 19.5,
                    "velocity": 0.5905511811023622,
                    "duration": 0.5
                },
                {
                    "name": "D7",
                    "midi": 98,
                    "time": 19.5,
                    "velocity": 0.5905511811023622,
                    "duration": 0.5
                },
                {
                    "name": "C6",
                    "midi": 84,
                    "time": 20,
                    "velocity": 0.5905511811023622,
                    "duration": 0.5
                },
                {
                    "name": "D6",
                    "midi": 86,
                    "time": 20,
                    "velocity": 0.5905511811023622,
                    "duration": 0.5
                },
                {
                    "name": "C6",
                    "midi": 84,
                    "time": 22.5,
                    "velocity": 0.4881889763779528,
                    "duration": 0.5
                },
                {
                    "name": "D6",
                    "midi": 86,
                    "time": 22.5,
                    "velocity": 0.4881889763779528,
                    "duration": 0.5
                },
                {
                    "name": "C5",
                    "midi": 72,
                    "time": 23,
                    "velocity": 0.4881889763779528,
                    "duration": 0.5
                },
                {
                    "name": "D5",
                    "midi": 74,
                    "time": 23,
                    "velocity": 0.4881889763779528,
                    "duration": 0.5
                },
                {
                    "name": "B5",
                    "midi": 83,
                    "time": 23.5,
                    "velocity": 0.4881889763779528,
                    "duration": 0.5
                },
                {
                    "name": "C#6",
                    "midi": 85,
                    "time": 23.5,
                    "velocity": 0.4881889763779528,
                    "duration": 0.5
                },
                {
                    "name": "B4",
                    "midi": 71,
                    "time": 24,
                    "velocity": 0.4881889763779528,
                    "duration": 0.5
                },
                {
                    "name": "C#5",
                    "midi": 73,
                    "time": 24,
                    "velocity": 0.4881889763779528,
                    "duration": 0.5
                },
                {
                    "name": "A#5",
                    "midi": 82,
                    "time": 24.5,
                    "velocity": 0.4881889763779528,
                    "duration": 0.5
                },
                {
                    "name": "C6",
                    "midi": 84,
                    "time": 24.5,
                    "velocity": 0.4881889763779528,
                    "duration": 0.5
                },
                {
                    "name": "A#4",
                    "midi": 70,
                    "time": 25,
                    "velocity": 0.4881889763779528,
                    "duration": 0.5
                },
                {
                    "name": "C5",
                    "midi": 72,
                    "time": 25,
                    "velocity": 0.4881889763779528,
                    "duration": 0.5
                },
                {
                    "name": "A5",
                    "midi": 81,
                    "time": 25.5,
                    "velocity": 0.4881889763779528,
                    "duration": 0.5
                },
                {
                    "name": "B5",
                    "midi": 83,
                    "time": 25.5,
                    "velocity": 0.4881889763779528,
                    "duration": 0.5
                },
                {
                    "name": "A4",
                    "midi": 69,
                    "time": 26,
                    "velocity": 0.4881889763779528,
                    "duration": 0.5
                },
                {
                    "name": "B4",
                    "midi": 71,
                    "time": 26,
                    "velocity": 0.4881889763779528,
                    "duration": 0.5
                },
                {
                    "name": "G#5",
                    "midi": 80,
                    "time": 26.5,
                    "velocity": 0.4881889763779528,
                    "duration": 0.5
                },
                {
                    "name": "A#5",
                    "midi": 82,
                    "time": 26.5,
                    "velocity": 0.4881889763779528,
                    "duration": 0.5
                },
                {
                    "name": "G#4",
                    "midi": 68,
                    "time": 27,
                    "velocity": 0.4881889763779528,
                    "duration": 0.5
                },
                {
                    "name": "A#4",
                    "midi": 70,
                    "time": 27,
                    "velocity": 0.4881889763779528,
                    "duration": 0.5
                },
                {
                    "name": "G5",
                    "midi": 79,
                    "time": 27.5,
                    "velocity": 0.4881889763779528,
                    "duration": 0.5
                },
                {
                    "name": "A5",
                    "midi": 81,
                    "time": 27.5,
                    "velocity": 0.4881889763779528,
                    "duration": 0.5
                },
                {
                    "name": "G4",
                    "midi": 67,
                    "time": 28,
                    "velocity": 0.4881889763779528,
                    "duration": 0.5
                },
                {
                    "name": "A4",
                    "midi": 69,
                    "time": 28,
                    "velocity": 0.4881889763779528,
                    "duration": 0.5
                },
                {
                    "name": "G#5",
                    "midi": 80,
                    "time": 28.5,
                    "velocity": 0.4881889763779528,
                    "duration": 0.5
                },
                {
                    "name": "A#5",
                    "midi": 82,
                    "time": 28.5,
                    "velocity": 0.4881889763779528,
                    "duration": 0.5
                },
                {
                    "name": "G#4",
                    "midi": 68,
                    "time": 29,
                    "velocity": 0.4881889763779528,
                    "duration": 0.5
                },
                {
                    "name": "A#4",
                    "midi": 70,
                    "time": 29,
                    "velocity": 0.4881889763779528,
                    "duration": 0.5
                },
                {
                    "name": "F5",
                    "midi": 77,
                    "time": 29.5,
                    "velocity": 0.4881889763779528,
                    "duration": 0.5
                },
                {
                    "name": "G5",
                    "midi": 79,
                    "time": 29.5,
                    "velocity": 0.4881889763779528,
                    "duration": 0.5
                },
                {
                    "name": "F4",
                    "midi": 65,
                    "time": 30,
                    "velocity": 0.4881889763779528,
                    "duration": 0.5
                },
                {
                    "name": "G4",
                    "midi": 67,
                    "time": 30,
                    "velocity": 0.4881889763779528,
                    "duration": 0.5
                },
                {
                    "name": "G5",
                    "midi": 79,
                    "time": 30.5,
                    "velocity": 0.4881889763779528,
                    "duration": 0.25
                },
                {
                    "name": "D#6",
                    "midi": 87,
                    "time": 30.5,
                    "velocity": 0.4881889763779528,
                    "duration": 0.25
                },
                {
                    "name": "G6",
                    "midi": 91,
                    "time": 30.5,
                    "velocity": 0.4881889763779528,
                    "duration": 0.25
                },
                {
                    "name": "G5",
                    "midi": 79,
                    "time": 30.75,
                    "velocity": 0.4881889763779528,
                    "duration": 0.25
                },
                {
                    "name": "D#6",
                    "midi": 87,
                    "time": 30.75,
                    "velocity": 0.4881889763779528,
                    "duration": 0.25
                },
                {
                    "name": "G6",
                    "midi": 91,
                    "time": 30.75,
                    "velocity": 0.4881889763779528,
                    "duration": 0.25
                },
                {
                    "name": "G5",
                    "midi": 79,
                    "time": 31,
                    "velocity": 0.4881889763779528,
                    "duration": 0.5
                },
                {
                    "name": "D#6",
                    "midi": 87,
                    "time": 31,
                    "velocity": 0.4881889763779528,
                    "duration": 0.5
                },
                {
                    "name": "G6",
                    "midi": 91,
                    "time": 31,
                    "velocity": 0.4881889763779528,
                    "duration": 0.5
                },
                {
                    "name": "G5",
                    "midi": 79,
                    "time": 31.5,
                    "velocity": 0.4881889763779528,
                    "duration": 0.04791666666666572
                },
                {
                    "name": "G#5",
                    "midi": 80,
                    "time": 31.75,
                    "velocity": 0.4881889763779528,
                    "duration": 0.04791666666666572
                },
                {
                    "name": "A5",
                    "midi": 81,
                    "time": 32,
                    "velocity": 0.4881889763779528,
                    "duration": 0.04791666666666572
                },
                {
                    "name": "C#6",
                    "midi": 85,
                    "time": 32.25,
                    "velocity": 0.4881889763779528,
                    "duration": 0.04791666666666572
                },
                {
                    "name": "D#6",
                    "midi": 87,
                    "time": 32.5,
                    "velocity": 0.4881889763779528,
                    "duration": 0.04791666666666572
                },
                {
                    "name": "D6",
                    "midi": 86,
                    "time": 32.75,
                    "velocity": 0.4881889763779528,
                    "duration": 0.04791666666666572
                },
                {
                    "name": "C#6",
                    "midi": 85,
                    "time": 33,
                    "velocity": 0.4881889763779528,
                    "duration": 0.04791666666666572
                },
                {
                    "name": "A5",
                    "midi": 81,
                    "time": 33.25,
                    "velocity": 0.4881889763779528,
                    "duration": 0.04791666666666572
                },
                {
                    "name": "A#5",
                    "midi": 82,
                    "time": 33.5,
                    "velocity": 0.4881889763779528,
                    "duration": 0.04791666666666572
                },
                {
                    "name": "B5",
                    "midi": 83,
                    "time": 33.75,
                    "velocity": 0.4881889763779528,
                    "duration": 0.04791666666666572
                },
                {
                    "name": "D#6",
                    "midi": 87,
                    "time": 34,
                    "velocity": 0.4881889763779528,
                    "duration": 0.04791666666666572
                },
                {
                    "name": "G5",
                    "midi": 79,
                    "time": 34.5,
                    "velocity": 0.4881889763779528,
                    "duration": 0.25
                },
                {
                    "name": "D#6",
                    "midi": 87,
                    "time": 34.5,
                    "velocity": 0.4881889763779528,
                    "duration": 0.25
                },
                {
                    "name": "G6",
                    "midi": 91,
                    "time": 34.5,
                    "velocity": 0.4881889763779528,
                    "duration": 0.25
                },
                {
                    "name": "G5",
                    "midi": 79,
                    "time": 34.75,
                    "velocity": 0.4881889763779528,
                    "duration": 0.25
                },
                {
                    "name": "D#6",
                    "midi": 87,
                    "time": 34.75,
                    "velocity": 0.4881889763779528,
                    "duration": 0.25
                },
                {
                    "name": "G6",
                    "midi": 91,
                    "time": 34.75,
                    "velocity": 0.4881889763779528,
                    "duration": 0.25
                },
                {
                    "name": "G5",
                    "midi": 79,
                    "time": 35,
                    "velocity": 0.4881889763779528,
                    "duration": 0.5
                },
                {
                    "name": "D#6",
                    "midi": 87,
                    "time": 35,
                    "velocity": 0.4881889763779528,
                    "duration": 0.5
                },
                {
                    "name": "G6",
                    "midi": 91,
                    "time": 35,
                    "velocity": 0.4881889763779528,
                    "duration": 0.5
                },
                {
                    "name": "G5",
                    "midi": 79,
                    "time": 35.5,
                    "velocity": 0.4881889763779528,
                    "duration": 0.04791666666666572
                },
                {
                    "name": "G#5",
                    "midi": 80,
                    "time": 35.75,
                    "velocity": 0.4881889763779528,
                    "duration": 0.04791666666666572
                },
                {
                    "name": "A5",
                    "midi": 81,
                    "time": 36,
                    "velocity": 0.4881889763779528,
                    "duration": 0.04791666666666572
                },
                {
                    "name": "C#6",
                    "midi": 85,
                    "time": 36.25,
                    "velocity": 0.4881889763779528,
                    "duration": 0.04791666666666572
                },
                {
                    "name": "D#6",
                    "midi": 87,
                    "time": 36.5,
                    "velocity": 0.4881889763779528,
                    "duration": 0.04791666666666572
                },
                {
                    "name": "D6",
                    "midi": 86,
                    "time": 36.75,
                    "velocity": 0.4881889763779528,
                    "duration": 0.04791666666666572
                },
                {
                    "name": "C#6",
                    "midi": 85,
                    "time": 37,
                    "velocity": 0.4881889763779528,
                    "duration": 0.04791666666666572
                },
                {
                    "name": "A5",
                    "midi": 81,
                    "time": 37.25,
                    "velocity": 0.4881889763779528,
                    "duration": 0.04791666666666572
                },
                {
                    "name": "A#5",
                    "midi": 82,
                    "time": 37.5,
                    "velocity": 0.4881889763779528,
                    "duration": 0.04791666666666572
                },
                {
                    "name": "B5",
                    "midi": 83,
                    "time": 37.75,
                    "velocity": 0.4881889763779528,
                    "duration": 0.04791666666666572
                },
                {
                    "name": "D#6",
                    "midi": 87,
                    "time": 38,
                    "velocity": 0.4881889763779528,
                    "duration": 0.04791666666666572
                },
                {
                    "name": "C6",
                    "midi": 84,
                    "time": 38.5,
                    "velocity": 0.6929133858267716,
                    "duration": 0.25
                },
                {
                    "name": "G#6",
                    "midi": 92,
                    "time": 38.5,
                    "velocity": 0.6929133858267716,
                    "duration": 0.25
                },
                {
                    "name": "C7",
                    "midi": 96,
                    "time": 38.5,
                    "velocity": 0.6929133858267716,
                    "duration": 0.25
                },
                {
                    "name": "C6",
                    "midi": 84,
                    "time": 38.75,
                    "velocity": 0.6929133858267716,
                    "duration": 0.25
                },
                {
                    "name": "G#6",
                    "midi": 92,
                    "time": 38.75,
                    "velocity": 0.6929133858267716,
                    "duration": 0.25
                },
                {
                    "name": "C7",
                    "midi": 96,
                    "time": 38.75,
                    "velocity": 0.6929133858267716,
                    "duration": 0.25
                },
                {
                    "name": "C6",
                    "midi": 84,
                    "time": 39,
                    "velocity": 0.6929133858267716,
                    "duration": 0.5
                },
                {
                    "name": "G#6",
                    "midi": 92,
                    "time": 39,
                    "velocity": 0.6929133858267716,
                    "duration": 0.5
                },
                {
                    "name": "C7",
                    "midi": 96,
                    "time": 39,
                    "velocity": 0.6929133858267716,
                    "duration": 0.5
                },
                {
                    "name": "C6",
                    "midi": 84,
                    "time": 39.5,
                    "velocity": 0.4881889763779528,
                    "duration": 0.04791666666666572
                },
                {
                    "name": "C#6",
                    "midi": 85,
                    "time": 39.75,
                    "velocity": 0.4881889763779528,
                    "duration": 0.04791666666666572
                },
                {
                    "name": "D6",
                    "midi": 86,
                    "time": 40,
                    "velocity": 0.4881889763779528,
                    "duration": 0.04791666666666572
                },
                {
                    "name": "F#6",
                    "midi": 90,
                    "time": 40.25,
                    "velocity": 0.4881889763779528,
                    "duration": 0.04791666666666572
                },
                {
                    "name": "G#6",
                    "midi": 92,
                    "time": 40.5,
                    "velocity": 0.4881889763779528,
                    "duration": 0.04791666666666572
                },
                {
                    "name": "G6",
                    "midi": 91,
                    "time": 40.75,
                    "velocity": 0.4881889763779528,
                    "duration": 0.04791666666666572
                },
                {
                    "name": "F#6",
                    "midi": 90,
                    "time": 41,
                    "velocity": 0.4881889763779528,
                    "duration": 0.04791666666666572
                },
                {
                    "name": "D6",
                    "midi": 86,
                    "time": 41.25,
                    "velocity": 0.4881889763779528,
                    "duration": 0.04791666666666572
                },
                {
                    "name": "C6",
                    "midi": 84,
                    "time": 41.5,
                    "velocity": 0.4881889763779528,
                    "duration": 0.04791666666666572
                },
                {
                    "name": "C#6",
                    "midi": 85,
                    "time": 41.75,
                    "velocity": 0.4881889763779528,
                    "duration": 0.04791666666666572
                },
                {
                    "name": "D6",
                    "midi": 86,
                    "time": 42,
                    "velocity": 0.4881889763779528,
                    "duration": 0.04791666666666572
                },
                {
                    "name": "F#6",
                    "midi": 90,
                    "time": 42.25,
                    "velocity": 0.4881889763779528,
                    "duration": 0.04791666666666572
                },
                {
                    "name": "G#6",
                    "midi": 92,
                    "time": 42.5,
                    "velocity": 0.4881889763779528,
                    "duration": 0.04791666666666572
                },
                {
                    "name": "G6",
                    "midi": 91,
                    "time": 42.75,
                    "velocity": 0.4881889763779528,
                    "duration": 0.04791666666666572
                },
                {
                    "name": "F#6",
                    "midi": 90,
                    "time": 43,
                    "velocity": 0.4881889763779528,
                    "duration": 0.04791666666666572
                },
                {
                    "name": "D6",
                    "midi": 86,
                    "time": 43.25,
                    "velocity": 0.4881889763779528,
                    "duration": 0.04791666666666572
                },
                {
                    "name": "C6",
                    "midi": 84,
                    "time": 43.5,
                    "velocity": 0.4881889763779528,
                    "duration": 0.04791666666666572
                },
                {
                    "name": "C#6",
                    "midi": 85,
                    "time": 43.75,
                    "velocity": 0.4881889763779528,
                    "duration": 0.04791666666666572
                },
                {
                    "name": "D6",
                    "midi": 86,
                    "time": 44,
                    "velocity": 0.4881889763779528,
                    "duration": 0.04791666666666572
                },
                {
                    "name": "F#6",
                    "midi": 90,
                    "time": 44.25,
                    "velocity": 0.4881889763779528,
                    "duration": 0.04791666666666572
                },
                {
                    "name": "G#6",
                    "midi": 92,
                    "time": 44.5,
                    "velocity": 0.4881889763779528,
                    "duration": 0.04791666666666572
                },
                {
                    "name": "G6",
                    "midi": 91,
                    "time": 44.75,
                    "velocity": 0.4881889763779528,
                    "duration": 0.04791666666666572
                },
                {
                    "name": "F#6",
                    "midi": 90,
                    "time": 45,
                    "velocity": 0.4881889763779528,
                    "duration": 0.04791666666666572
                },
                {
                    "name": "D6",
                    "midi": 86,
                    "time": 45.25,
                    "velocity": 0.4881889763779528,
                    "duration": 0.04791666666666572
                },
                {
                    "name": "D#6",
                    "midi": 87,
                    "time": 45.5,
                    "velocity": 0.4881889763779528,
                    "duration": 0.04791666666666572
                },
                {
                    "name": "E6",
                    "midi": 88,
                    "time": 45.75,
                    "velocity": 0.4881889763779528,
                    "duration": 0.04791666666666572
                },
                {
                    "name": "G#6",
                    "midi": 92,
                    "time": 46,
                    "velocity": 0.4881889763779528,
                    "duration": 0.04791666666666572
                },
                {
                    "name": "G5",
                    "midi": 79,
                    "time": 46.5,
                    "velocity": 0.5905511811023622,
                    "duration": 0.04791666666666572
                },
                {
                    "name": "G#5",
                    "midi": 80,
                    "time": 46.75,
                    "velocity": 0.5905511811023622,
                    "duration": 0.04791666666666572
                },
                {
                    "name": "A5",
                    "midi": 81,
                    "time": 47,
                    "velocity": 0.5905511811023622,
                    "duration": 0.04791666666666572
                },
                {
                    "name": "C#6",
                    "midi": 85,
                    "time": 47.25,
                    "velocity": 0.5905511811023622,
                    "duration": 0.04791666666666572
                },
                {
                    "name": "C6",
                    "midi": 84,
                    "time": 47.5,
                    "velocity": 0.5905511811023622,
                    "duration": 0.04791666666666572
                },
                {
                    "name": "B5",
                    "midi": 83,
                    "time": 47.75,
                    "velocity": 0.5905511811023622,
                    "duration": 0.04791666666666572
                },
                {
                    "name": "G5",
                    "midi": 79,
                    "time": 48,
                    "velocity": 0.5905511811023622,
                    "duration": 0.04791666666666572
                },
                {
                    "name": "D#5",
                    "midi": 75,
                    "time": 48.25,
                    "velocity": 0.5905511811023622,
                    "duration": 0.04791666666666572
                },
                {
                    "name": "E5",
                    "midi": 76,
                    "time": 48.5,
                    "velocity": 0.5905511811023622,
                    "duration": 0.04791666666666572
                },
                {
                    "name": "F5",
                    "midi": 77,
                    "time": 48.75,
                    "velocity": 0.5905511811023622,
                    "duration": 0.04791666666666572
                },
                {
                    "name": "A5",
                    "midi": 81,
                    "time": 49,
                    "velocity": 0.5905511811023622,
                    "duration": 0.04791666666666572
                },
                {
                    "name": "G#5",
                    "midi": 80,
                    "time": 49.25,
                    "velocity": 0.5905511811023622,
                    "duration": 0.04791666666666572
                },
                {
                    "name": "G5",
                    "midi": 79,
                    "time": 49.5,
                    "velocity": 0.5905511811023622,
                    "duration": 0.04791666666666572
                },
                {
                    "name": "D#5",
                    "midi": 75,
                    "time": 49.75,
                    "velocity": 0.5905511811023622,
                    "duration": 0.04791666666666572
                },
                {
                    "name": "B4",
                    "midi": 71,
                    "time": 50,
                    "velocity": 0.5905511811023622,
                    "duration": 0.09791666666666998
                },
                {
                    "name": "D#5",
                    "midi": 75,
                    "time": 50.5,
                    "velocity": 0.5905511811023622,
                    "duration": 0.04791666666666572
                },
                {
                    "name": "E5",
                    "midi": 76,
                    "time": 50.75,
                    "velocity": 0.5905511811023622,
                    "duration": 0.04791666666666572
                },
                {
                    "name": "F5",
                    "midi": 77,
                    "time": 51,
                    "velocity": 0.5905511811023622,
                    "duration": 0.04791666666666572
                },
                {
                    "name": "A5",
                    "midi": 81,
                    "time": 51.25,
                    "velocity": 0.5905511811023622,
                    "duration": 0.04791666666666572
                },
                {
                    "name": "G#5",
                    "midi": 80,
                    "time": 51.5,
                    "velocity": 0.5905511811023622,
                    "duration": 0.04791666666666572
                },
                {
                    "name": "G5",
                    "midi": 79,
                    "time": 51.75,
                    "velocity": 0.5905511811023622,
                    "duration": 0.04791666666666572
                },
                {
                    "name": "D#5",
                    "midi": 75,
                    "time": 52,
                    "velocity": 0.5905511811023622,
                    "duration": 0.04791666666666572
                },
                {
                    "name": "B4",
                    "midi": 71,
                    "time": 52.25,
                    "velocity": 0.5905511811023622,
                    "duration": 0.04791666666666572
                },
                {
                    "name": "C5",
                    "midi": 72,
                    "time": 52.5,
                    "velocity": 0.5905511811023622,
                    "duration": 0.04791666666666572
                },
                {
                    "name": "C#5",
                    "midi": 73,
                    "time": 52.75,
                    "velocity": 0.5905511811023622,
                    "duration": 0.04791666666666572
                },
                {
                    "name": "F5",
                    "midi": 77,
                    "time": 53,
                    "velocity": 0.5905511811023622,
                    "duration": 0.04791666666666572
                },
                {
                    "name": "E5",
                    "midi": 76,
                    "time": 53.25,
                    "velocity": 0.5905511811023622,
                    "duration": 0.04791666666666572
                },
                {
                    "name": "D#5",
                    "midi": 75,
                    "time": 53.5,
                    "velocity": 0.5905511811023622,
                    "duration": 0.04791666666666572
                },
                {
                    "name": "B4",
                    "midi": 71,
                    "time": 53.75,
                    "velocity": 0.5905511811023622,
                    "duration": 0.04791666666666572
                },
                {
                    "name": "G4",
                    "midi": 67,
                    "time": 54,
                    "velocity": 0.5905511811023622,
                    "duration": 0.04791666666666572
                },
                {
                    "name": "D#5",
                    "midi": 75,
                    "time": 54.25,
                    "velocity": 0.5905511811023622,
                    "duration": 0.04791666666666572
                },
                {
                    "name": "E5",
                    "midi": 76,
                    "time": 54.5,
                    "velocity": 0.6929133858267716,
                    "duration": 0.04791666666666572
                },
                {
                    "name": "F5",
                    "midi": 77,
                    "time": 54.75,
                    "velocity": 0.6929133858267716,
                    "duration": 0.04791666666666572
                },
                {
                    "name": "A5",
                    "midi": 81,
                    "time": 55,
                    "velocity": 0.6929133858267716,
                    "duration": 0.04791666666666572
                },
                {
                    "name": "G#5",
                    "midi": 80,
                    "time": 55.25,
                    "velocity": 0.6929133858267716,
                    "duration": 0.04791666666666572
                },
                {
                    "name": "G5",
                    "midi": 79,
                    "time": 55.5,
                    "velocity": 0.5905511811023622,
                    "duration": 0.04791666666666572
                },
                {
                    "name": "D#5",
                    "midi": 75,
                    "time": 55.75,
                    "velocity": 0.5905511811023622,
                    "duration": 0.04791666666666572
                },
                {
                    "name": "B4",
                    "midi": 71,
                    "time": 56,
                    "velocity": 0.5905511811023622,
                    "duration": 0.04791666666666572
                },
                {
                    "name": "G5",
                    "midi": 79,
                    "time": 56.25,
                    "velocity": 0.5905511811023622,
                    "duration": 0.04791666666666572
                },
                {
                    "name": "G#5",
                    "midi": 80,
                    "time": 56.5,
                    "velocity": 0.6929133858267716,
                    "duration": 0.04791666666666572
                },
                {
                    "name": "A5",
                    "midi": 81,
                    "time": 56.75,
                    "velocity": 0.6929133858267716,
                    "duration": 0.04791666666666572
                },
                {
                    "name": "C#6",
                    "midi": 85,
                    "time": 57,
                    "velocity": 0.6929133858267716,
                    "duration": 0.04791666666666572
                },
                {
                    "name": "C6",
                    "midi": 84,
                    "time": 57.25,
                    "velocity": 0.6929133858267716,
                    "duration": 0.04791666666666572
                },
                {
                    "name": "B5",
                    "midi": 83,
                    "time": 57.5,
                    "velocity": 0.5905511811023622,
                    "duration": 0.04791666666666572
                },
                {
                    "name": "G5",
                    "midi": 79,
                    "time": 57.75,
                    "velocity": 0.5905511811023622,
                    "duration": 0.04791666666666572
                },
                {
                    "name": "D#5",
                    "midi": 75,
                    "time": 58,
                    "velocity": 0.5905511811023622,
                    "duration": 0.04791666666666572
                },
                {
                    "name": "B5",
                    "midi": 83,
                    "time": 58.25,
                    "velocity": 0.5905511811023622,
                    "duration": 0.04791666666666572
                },
                {
                    "name": "C6",
                    "midi": 84,
                    "time": 58.5,
                    "velocity": 0.6929133858267716,
                    "duration": 0.04791666666666572
                },
                {
                    "name": "C#6",
                    "midi": 85,
                    "time": 58.75,
                    "velocity": 0.6929133858267716,
                    "duration": 0.04791666666666572
                },
                {
                    "name": "F5",
                    "midi": 77,
                    "time": 59,
                    "velocity": 0.6929133858267716,
                    "duration": 0.04791666666666572
                },
                {
                    "name": "E5",
                    "midi": 76,
                    "time": 59.25,
                    "velocity": 0.6929133858267716,
                    "duration": 0.04791666666666572
                },
                {
                    "name": "D#5",
                    "midi": 75,
                    "time": 59.5,
                    "velocity": 0.6929133858267716,
                    "duration": 0.04791666666666572
                },
                {
                    "name": "B4",
                    "midi": 71,
                    "time": 59.75,
                    "velocity": 0.6929133858267716,
                    "duration": 0.04791666666666572
                },
                {
                    "name": "G5",
                    "midi": 79,
                    "time": 60,
                    "velocity": 0.6929133858267716,
                    "duration": 0.04791666666666572
                },
                {
                    "name": "F#5",
                    "midi": 78,
                    "time": 60.25,
                    "velocity": 0.6929133858267716,
                    "duration": 0.04791666666666572
                },
                {
                    "name": "F5",
                    "midi": 77,
                    "time": 60.5,
                    "velocity": 0.6929133858267716,
                    "duration": 0.04791666666666572
                },
                {
                    "name": "C#5",
                    "midi": 73,
                    "time": 60.75,
                    "velocity": 0.6929133858267716,
                    "duration": 0.04791666666666572
                },
                {
                    "name": "A5",
                    "midi": 81,
                    "time": 61,
                    "velocity": 0.6929133858267716,
                    "duration": 0.04791666666666572
                },
                {
                    "name": "G#5",
                    "midi": 80,
                    "time": 61.25,
                    "velocity": 0.6929133858267716,
                    "duration": 0.04791666666666572
                },
                {
                    "name": "G5",
                    "midi": 79,
                    "time": 61.5,
                    "velocity": 0.6929133858267716,
                    "duration": 0.04791666666666572
                },
                {
                    "name": "D#5",
                    "midi": 75,
                    "time": 61.75,
                    "velocity": 0.6929133858267716,
                    "duration": 0.04791666666666572
                },
                {
                    "name": "B5",
                    "midi": 83,
                    "time": 62,
                    "velocity": 0.6929133858267716,
                    "duration": 0.04791666666666572
                },
                {
                    "name": "A#5",
                    "midi": 82,
                    "time": 62.25,
                    "velocity": 0.6929133858267716,
                    "duration": 0.04791666666666572
                },
                {
                    "name": "A5",
                    "midi": 81,
                    "time": 62.5,
                    "velocity": 0.6929133858267716,
                    "duration": 0.04791666666666572
                },
                {
                    "name": "F5",
                    "midi": 77,
                    "time": 62.75,
                    "velocity": 0.6929133858267716,
                    "duration": 0.04791666666666572
                },
                {
                    "name": "A#5",
                    "midi": 82,
                    "time": 68,
                    "velocity": 0.5905511811023622,
                    "duration": 0.125
                },
                {
                    "name": "A5",
                    "midi": 81,
                    "time": 68.125,
                    "velocity": 0.5905511811023622,
                    "duration": 0.125
                },
                {
                    "name": "G#5",
                    "midi": 80,
                    "time": 68.25,
                    "velocity": 0.5905511811023622,
                    "duration": 0.125
                },
                {
                    "name": "E5",
                    "midi": 76,
                    "time": 68.375,
                    "velocity": 0.5905511811023622,
                    "duration": 0.125
                },
                {
                    "name": "D5",
                    "midi": 74,
                    "time": 68.5,
                    "velocity": 0.5905511811023622,
                    "duration": 0.125
                },
                {
                    "name": "D#5",
                    "midi": 75,
                    "time": 68.625,
                    "velocity": 0.5905511811023622,
                    "duration": 0.125
                },
                {
                    "name": "E5",
                    "midi": 76,
                    "time": 68.75,
                    "velocity": 0.5905511811023622,
                    "duration": 0.125
                },
                {
                    "name": "G#5",
                    "midi": 80,
                    "time": 68.875,
                    "velocity": 0.5905511811023622,
                    "duration": 0.125
                },
                {
                    "name": "A#5",
                    "midi": 82,
                    "time": 69,
                    "velocity": 0.5905511811023622,
                    "duration": 0.125
                },
                {
                    "name": "A5",
                    "midi": 81,
                    "time": 69.125,
                    "velocity": 0.5905511811023622,
                    "duration": 0.125
                },
                {
                    "name": "G#5",
                    "midi": 80,
                    "time": 69.25,
                    "velocity": 0.5905511811023622,
                    "duration": 0.125
                },
                {
                    "name": "E5",
                    "midi": 76,
                    "time": 69.375,
                    "velocity": 0.5905511811023622,
                    "duration": 0.125
                },
                {
                    "name": "D5",
                    "midi": 74,
                    "time": 69.5,
                    "velocity": 0.5905511811023622,
                    "duration": 0.125
                },
                {
                    "name": "D#5",
                    "midi": 75,
                    "time": 69.625,
                    "velocity": 0.5905511811023622,
                    "duration": 0.125
                },
                {
                    "name": "E5",
                    "midi": 76,
                    "time": 69.75,
                    "velocity": 0.5905511811023622,
                    "duration": 0.125
                },
                {
                    "name": "G#5",
                    "midi": 80,
                    "time": 69.875,
                    "velocity": 0.5905511811023622,
                    "duration": 0.125
                },
                {
                    "name": "D4",
                    "midi": 62,
                    "time": 70,
                    "velocity": 0.5905511811023622,
                    "duration": 2
                },
                {
                    "name": "E4",
                    "midi": 64,
                    "time": 70,
                    "velocity": 0.5905511811023622,
                    "duration": 2
                },
                {
                    "name": "G#4",
                    "midi": 68,
                    "time": 70,
                    "velocity": 0.5905511811023622,
                    "duration": 2
                },
                {
                    "name": "A#4",
                    "midi": 70,
                    "time": 70,
                    "velocity": 0.5905511811023622,
                    "duration": 2
                },
                {
                    "name": "E5",
                    "midi": 76,
                    "time": 72,
                    "velocity": 0.5905511811023622,
                    "duration": 0.125
                },
                {
                    "name": "D#5",
                    "midi": 75,
                    "time": 72.125,
                    "velocity": 0.5905511811023622,
                    "duration": 0.125
                },
                {
                    "name": "D5",
                    "midi": 74,
                    "time": 72.25,
                    "velocity": 0.5905511811023622,
                    "duration": 0.125
                },
                {
                    "name": "A#4",
                    "midi": 70,
                    "time": 72.375,
                    "velocity": 0.5905511811023622,
                    "duration": 0.125
                },
                {
                    "name": "G#4",
                    "midi": 68,
                    "time": 72.5,
                    "velocity": 0.5905511811023622,
                    "duration": 0.125
                },
                {
                    "name": "A4",
                    "midi": 69,
                    "time": 72.625,
                    "velocity": 0.5905511811023622,
                    "duration": 0.125
                },
                {
                    "name": "A#4",
                    "midi": 70,
                    "time": 72.75,
                    "velocity": 0.5905511811023622,
                    "duration": 0.125
                },
                {
                    "name": "D5",
                    "midi": 74,
                    "time": 72.875,
                    "velocity": 0.5905511811023622,
                    "duration": 0.125
                },
                {
                    "name": "A#5",
                    "midi": 82,
                    "time": 73,
                    "velocity": 0.5905511811023622,
                    "duration": 0.125
                },
                {
                    "name": "A5",
                    "midi": 81,
                    "time": 73.125,
                    "velocity": 0.5905511811023622,
                    "duration": 0.125
                },
                {
                    "name": "G#5",
                    "midi": 80,
                    "time": 73.25,
                    "velocity": 0.5905511811023622,
                    "duration": 0.125
                },
                {
                    "name": "E5",
                    "midi": 76,
                    "time": 73.375,
                    "velocity": 0.5905511811023622,
                    "duration": 0.125
                },
                {
                    "name": "D5",
                    "midi": 74,
                    "time": 73.5,
                    "velocity": 0.5905511811023622,
                    "duration": 0.125
                },
                {
                    "name": "D#5",
                    "midi": 75,
                    "time": 73.625,
                    "velocity": 0.5905511811023622,
                    "duration": 0.125
                },
                {
                    "name": "E5",
                    "midi": 76,
                    "time": 73.75,
                    "velocity": 0.5905511811023622,
                    "duration": 0.125
                },
                {
                    "name": "G#5",
                    "midi": 80,
                    "time": 73.875,
                    "velocity": 0.5905511811023622,
                    "duration": 0.125
                },
                {
                    "name": "A#5",
                    "midi": 82,
                    "time": 74,
                    "velocity": 0.5905511811023622,
                    "duration": 0.125
                },
                {
                    "name": "A5",
                    "midi": 81,
                    "time": 74.125,
                    "velocity": 0.5905511811023622,
                    "duration": 0.125
                },
                {
                    "name": "G#5",
                    "midi": 80,
                    "time": 74.25,
                    "velocity": 0.5905511811023622,
                    "duration": 0.125
                },
                {
                    "name": "E5",
                    "midi": 76,
                    "time": 74.375,
                    "velocity": 0.5905511811023622,
                    "duration": 0.125
                },
                {
                    "name": "D5",
                    "midi": 74,
                    "time": 74.5,
                    "velocity": 0.5905511811023622,
                    "duration": 0.125
                },
                {
                    "name": "D#5",
                    "midi": 75,
                    "time": 74.625,
                    "velocity": 0.5905511811023622,
                    "duration": 0.125
                },
                {
                    "name": "E5",
                    "midi": 76,
                    "time": 74.75,
                    "velocity": 0.5905511811023622,
                    "duration": 0.125
                },
                {
                    "name": "G#5",
                    "midi": 80,
                    "time": 74.875,
                    "velocity": 0.5905511811023622,
                    "duration": 0.125
                },
                {
                    "name": "D4",
                    "midi": 62,
                    "time": 75,
                    "velocity": 0.5905511811023622,
                    "duration": 2
                },
                {
                    "name": "E4",
                    "midi": 64,
                    "time": 75,
                    "velocity": 0.5905511811023622,
                    "duration": 2
                },
                {
                    "name": "G#4",
                    "midi": 68,
                    "time": 75,
                    "velocity": 0.5905511811023622,
                    "duration": 2
                },
                {
                    "name": "A#4",
                    "midi": 70,
                    "time": 75,
                    "velocity": 0.5905511811023622,
                    "duration": 2
                },
                {
                    "name": "A#5",
                    "midi": 82,
                    "time": 79,
                    "velocity": 0.7952755905511811,
                    "duration": 0.125
                },
                {
                    "name": "A5",
                    "midi": 81,
                    "time": 79.125,
                    "velocity": 0.5905511811023622,
                    "duration": 0.125
                },
                {
                    "name": "G#5",
                    "midi": 80,
                    "time": 79.25,
                    "velocity": 0.5905511811023622,
                    "duration": 0.125
                },
                {
                    "name": "E5",
                    "midi": 76,
                    "time": 79.375,
                    "velocity": 0.5905511811023622,
                    "duration": 0.125
                },
                {
                    "name": "A#5",
                    "midi": 82,
                    "time": 84,
                    "velocity": 0.4881889763779528,
                    "duration": 0.125
                },
                {
                    "name": "A5",
                    "midi": 81,
                    "time": 84.125,
                    "velocity": 0.4881889763779528,
                    "duration": 0.125
                },
                {
                    "name": "G#5",
                    "midi": 80,
                    "time": 84.25,
                    "velocity": 0.4881889763779528,
                    "duration": 0.125
                }
            ],
            "controlChanges": {
                "7": [
                    {
                        "number": 7,
                        "time": 0,
                        "value": 1
                    }
                ],
                "10": [
                    {
                        "number": 10,
                        "time": 0,
                        "value": 0.7637795275590551
                    }
                ],
                "64": [
                    {
                        "number": 64,
                        "time": 68,
                        "value": 1
                    },
                    {
                        "number": 64,
                        "time": 68.875,
                        "value": 0
                    },
                    {
                        "number": 64,
                        "time": 69,
                        "value": 1
                    },
                    {
                        "number": 64,
                        "time": 69.875,
                        "value": 0
                    },
                    {
                        "number": 64,
                        "time": 72,
                        "value": 1
                    },
                    {
                        "number": 64,
                        "time": 72.875,
                        "value": 0
                    },
                    {
                        "number": 64,
                        "time": 73,
                        "value": 1
                    },
                    {
                        "number": 64,
                        "time": 73.875,
                        "value": 0
                    },
                    {
                        "number": 64,
                        "time": 74,
                        "value": 1
                    },
                    {
                        "number": 64,
                        "time": 74.875,
                        "value": 0
                    },
                    {
                        "number": 64,
                        "time": 75,
                        "value": 1
                    },
                    {
                        "number": 64,
                        "time": 78,
                        "value": 0
                    },
                    {
                        "number": 64,
                        "time": 79,
                        "value": 1
                    },
                    {
                        "number": 64,
                        "time": 79.375,
                        "value": 0
                    },
                    {
                        "number": 64,
                        "time": 84,
                        "value": 1
                    },
                    {
                        "number": 64,
                        "time": 84.25,
                        "value": 0
                    }
                ]
            },
            "id": 2,
            "name": "Instrument17",
            "instrumentNumber": 0,
            "instrument": "acoustic grand piano",
            "instrumentFamily": "piano",
            "channelNumber": 1,
            "isPercussion": false
        },
        {
            "startTime": 2.5,
            "duration": 85,
            "length": 157,
            "notes": [
                {
                    "name": "G3",
                    "midi": 55,
                    "time": 2.5,
                    "velocity": 0.5905511811023622,
                    "duration": 0.04791666666666661
                },
                {
                    "name": "G#3",
                    "midi": 56,
                    "time": 2.75,
                    "velocity": 0.5905511811023622,
                    "duration": 0.04791666666666661
                },
                {
                    "name": "A3",
                    "midi": 57,
                    "time": 3,
                    "velocity": 0.5905511811023622,
                    "duration": 0.04791666666666661
                },
                {
                    "name": "C#4",
                    "midi": 61,
                    "time": 3.25,
                    "velocity": 0.5905511811023622,
                    "duration": 0.04791666666666661
                },
                {
                    "name": "D#4",
                    "midi": 63,
                    "time": 3.5,
                    "velocity": 0.5905511811023622,
                    "duration": 0.04791666666666661
                },
                {
                    "name": "D4",
                    "midi": 62,
                    "time": 3.75,
                    "velocity": 0.5905511811023622,
                    "duration": 0.04791666666666661
                },
                {
                    "name": "C#4",
                    "midi": 61,
                    "time": 4,
                    "velocity": 0.5905511811023622,
                    "duration": 0.04791666666666661
                },
                {
                    "name": "A3",
                    "midi": 57,
                    "time": 4.25,
                    "velocity": 0.5905511811023622,
                    "duration": 0.04791666666666661
                },
                {
                    "name": "G3",
                    "midi": 55,
                    "time": 4.5,
                    "velocity": 0.5905511811023622,
                    "duration": 0.04791666666666661
                },
                {
                    "name": "G#3",
                    "midi": 56,
                    "time": 4.75,
                    "velocity": 0.5905511811023622,
                    "duration": 0.04791666666666661
                },
                {
                    "name": "A3",
                    "midi": 57,
                    "time": 5,
                    "velocity": 0.5905511811023622,
                    "duration": 0.04791666666666661
                },
                {
                    "name": "C#4",
                    "midi": 61,
                    "time": 5.25,
                    "velocity": 0.5905511811023622,
                    "duration": 0.04791666666666661
                },
                {
                    "name": "D#4",
                    "midi": 63,
                    "time": 5.5,
                    "velocity": 0.5905511811023622,
                    "duration": 0.04791666666666661
                },
                {
                    "name": "D4",
                    "midi": 62,
                    "time": 5.75,
                    "velocity": 0.5905511811023622,
                    "duration": 0.04791666666666661
                },
                {
                    "name": "C#4",
                    "midi": 61,
                    "time": 6,
                    "velocity": 0.5905511811023622,
                    "duration": 0.04791666666666661
                },
                {
                    "name": "A3",
                    "midi": 57,
                    "time": 6.25,
                    "velocity": 0.5905511811023622,
                    "duration": 0.04791666666666661
                },
                {
                    "name": "G3",
                    "midi": 55,
                    "time": 6.5,
                    "velocity": 0.5905511811023622,
                    "duration": 0.04791666666666661
                },
                {
                    "name": "G#3",
                    "midi": 56,
                    "time": 6.75,
                    "velocity": 0.5905511811023622,
                    "duration": 0.04791666666666661
                },
                {
                    "name": "A3",
                    "midi": 57,
                    "time": 7,
                    "velocity": 0.5905511811023622,
                    "duration": 0.04791666666666661
                },
                {
                    "name": "C#4",
                    "midi": 61,
                    "time": 7.25,
                    "velocity": 0.5905511811023622,
                    "duration": 0.04791666666666661
                },
                {
                    "name": "D#4",
                    "midi": 63,
                    "time": 7.5,
                    "velocity": 0.5905511811023622,
                    "duration": 0.04791666666666661
                },
                {
                    "name": "D4",
                    "midi": 62,
                    "time": 7.75,
                    "velocity": 0.5905511811023622,
                    "duration": 0.04791666666666661
                },
                {
                    "name": "C#4",
                    "midi": 61,
                    "time": 8,
                    "velocity": 0.6929133858267716,
                    "duration": 0.047916666666667496
                },
                {
                    "name": "A3",
                    "midi": 57,
                    "time": 8.25,
                    "velocity": 0.6929133858267716,
                    "duration": 0.047916666666667496
                },
                {
                    "name": "A#3",
                    "midi": 58,
                    "time": 8.5,
                    "velocity": 0.6929133858267716,
                    "duration": 0.047916666666667496
                },
                {
                    "name": "B3",
                    "midi": 59,
                    "time": 8.75,
                    "velocity": 0.6929133858267716,
                    "duration": 0.047916666666667496
                },
                {
                    "name": "D#4",
                    "midi": 63,
                    "time": 9,
                    "velocity": 0.5905511811023622,
                    "duration": 0.047916666666667496
                },
                {
                    "name": "G3",
                    "midi": 55,
                    "time": 10.5,
                    "velocity": 0.5905511811023622,
                    "duration": 0.047916666666667496
                },
                {
                    "name": "G4",
                    "midi": 67,
                    "time": 10.5,
                    "velocity": 0.5905511811023622,
                    "duration": 0.047916666666667496
                },
                {
                    "name": "G#3",
                    "midi": 56,
                    "time": 10.75,
                    "velocity": 0.5905511811023622,
                    "duration": 0.047916666666667496
                },
                {
                    "name": "G#4",
                    "midi": 68,
                    "time": 10.75,
                    "velocity": 0.5905511811023622,
                    "duration": 0.047916666666667496
                },
                {
                    "name": "A3",
                    "midi": 57,
                    "time": 11,
                    "velocity": 0.5905511811023622,
                    "duration": 0.047916666666667496
                },
                {
                    "name": "C#4",
                    "midi": 61,
                    "time": 11.25,
                    "velocity": 0.5905511811023622,
                    "duration": 0.047916666666667496
                },
                {
                    "name": "D#4",
                    "midi": 63,
                    "time": 11.5,
                    "velocity": 0.5905511811023622,
                    "duration": 0.047916666666667496
                },
                {
                    "name": "D4",
                    "midi": 62,
                    "time": 11.75,
                    "velocity": 0.5905511811023622,
                    "duration": 0.047916666666667496
                },
                {
                    "name": "C#4",
                    "midi": 61,
                    "time": 12,
                    "velocity": 0.6929133858267716,
                    "duration": 0.047916666666667496
                },
                {
                    "name": "A3",
                    "midi": 57,
                    "time": 12.25,
                    "velocity": 0.6929133858267716,
                    "duration": 0.047916666666667496
                },
                {
                    "name": "A#3",
                    "midi": 58,
                    "time": 12.5,
                    "velocity": 0.6929133858267716,
                    "duration": 0.047916666666667496
                },
                {
                    "name": "B3",
                    "midi": 59,
                    "time": 12.75,
                    "velocity": 0.6929133858267716,
                    "duration": 0.047916666666667496
                },
                {
                    "name": "D#4",
                    "midi": 63,
                    "time": 13,
                    "velocity": 0.5905511811023622,
                    "duration": 0.047916666666667496
                },
                {
                    "name": "C4",
                    "midi": 60,
                    "time": 14.5,
                    "velocity": 0.5905511811023622,
                    "duration": 0.047916666666667496
                },
                {
                    "name": "C5",
                    "midi": 72,
                    "time": 14.5,
                    "velocity": 0.5905511811023622,
                    "duration": 0.047916666666667496
                },
                {
                    "name": "C#4",
                    "midi": 61,
                    "time": 14.75,
                    "velocity": 0.5905511811023622,
                    "duration": 0.047916666666667496
                },
                {
                    "name": "C#5",
                    "midi": 73,
                    "time": 14.75,
                    "velocity": 0.5905511811023622,
                    "duration": 0.047916666666667496
                },
                {
                    "name": "D4",
                    "midi": 62,
                    "time": 15,
                    "velocity": 0.5905511811023622,
                    "duration": 0.047916666666667496
                },
                {
                    "name": "F#4",
                    "midi": 66,
                    "time": 15.25,
                    "velocity": 0.5905511811023622,
                    "duration": 0.047916666666667496
                },
                {
                    "name": "G#4",
                    "midi": 68,
                    "time": 15.5,
                    "velocity": 0.5905511811023622,
                    "duration": 0.047916666666667496
                },
                {
                    "name": "G4",
                    "midi": 67,
                    "time": 15.75,
                    "velocity": 0.5905511811023622,
                    "duration": 0.047916666666667496
                },
                {
                    "name": "F#4",
                    "midi": 66,
                    "time": 16,
                    "velocity": 0.5905511811023622,
                    "duration": 0.04791666666666572
                },
                {
                    "name": "D4",
                    "midi": 62,
                    "time": 16.25,
                    "velocity": 0.5905511811023622,
                    "duration": 0.04791666666666572
                },
                {
                    "name": "D#4",
                    "midi": 63,
                    "time": 16.5,
                    "velocity": 0.5905511811023622,
                    "duration": 0.04791666666666572
                },
                {
                    "name": "E4",
                    "midi": 64,
                    "time": 16.75,
                    "velocity": 0.5905511811023622,
                    "duration": 0.04791666666666572
                },
                {
                    "name": "G#5",
                    "midi": 80,
                    "time": 17,
                    "velocity": 0.5905511811023622,
                    "duration": 0.04791666666666572
                },
                {
                    "name": "A5",
                    "midi": 81,
                    "time": 17.25,
                    "velocity": 0.5905511811023622,
                    "duration": 0.04791666666666572
                },
                {
                    "name": "A#5",
                    "midi": 82,
                    "time": 17.5,
                    "velocity": 0.5905511811023622,
                    "duration": 0.04791666666666572
                },
                {
                    "name": "D6",
                    "midi": 86,
                    "time": 17.75,
                    "velocity": 0.5905511811023622,
                    "duration": 0.04791666666666572
                },
                {
                    "name": "D#6",
                    "midi": 87,
                    "time": 18,
                    "velocity": 0.6929133858267716,
                    "duration": 0.04791666666666572
                },
                {
                    "name": "E6",
                    "midi": 88,
                    "time": 18.25,
                    "velocity": 0.6929133858267716,
                    "duration": 0.04791666666666572
                },
                {
                    "name": "G#6",
                    "midi": 92,
                    "time": 18.5,
                    "velocity": 0.6929133858267716,
                    "duration": 0.09791666666666643
                },
                {
                    "name": "D5",
                    "midi": 74,
                    "time": 19,
                    "velocity": 0.5905511811023622,
                    "duration": 0.04791666666666572
                },
                {
                    "name": "F#5",
                    "midi": 78,
                    "time": 19.25,
                    "velocity": 0.5905511811023622,
                    "duration": 0.04791666666666572
                },
                {
                    "name": "G#5",
                    "midi": 80,
                    "time": 19.5,
                    "velocity": 0.5905511811023622,
                    "duration": 0.04791666666666572
                },
                {
                    "name": "G5",
                    "midi": 79,
                    "time": 19.75,
                    "velocity": 0.5905511811023622,
                    "duration": 0.04791666666666572
                },
                {
                    "name": "F#5",
                    "midi": 78,
                    "time": 20,
                    "velocity": 0.6929133858267716,
                    "duration": 0.04791666666666572
                },
                {
                    "name": "D5",
                    "midi": 74,
                    "time": 20.25,
                    "velocity": 0.6929133858267716,
                    "duration": 0.04791666666666572
                },
                {
                    "name": "D#5",
                    "midi": 75,
                    "time": 20.5,
                    "velocity": 0.6929133858267716,
                    "duration": 0.04791666666666572
                },
                {
                    "name": "E5",
                    "midi": 76,
                    "time": 20.75,
                    "velocity": 0.6929133858267716,
                    "duration": 0.04791666666666572
                },
                {
                    "name": "G#5",
                    "midi": 80,
                    "time": 21,
                    "velocity": 0.5905511811023622,
                    "duration": 0.04791666666666572
                },
                {
                    "name": "A5",
                    "midi": 81,
                    "time": 21.25,
                    "velocity": 0.5905511811023622,
                    "duration": 0.04791666666666572
                },
                {
                    "name": "A#5",
                    "midi": 82,
                    "time": 21.5,
                    "velocity": 0.5905511811023622,
                    "duration": 0.04791666666666572
                },
                {
                    "name": "D6",
                    "midi": 86,
                    "time": 21.75,
                    "velocity": 0.5905511811023622,
                    "duration": 0.04791666666666572
                },
                {
                    "name": "D#6",
                    "midi": 87,
                    "time": 22,
                    "velocity": 0.5905511811023622,
                    "duration": 0.04791666666666572
                },
                {
                    "name": "E6",
                    "midi": 88,
                    "time": 22.25,
                    "velocity": 0.5905511811023622,
                    "duration": 0.04791666666666572
                },
                {
                    "name": "G#6",
                    "midi": 92,
                    "time": 22.5,
                    "velocity": 0.5905511811023622,
                    "duration": 0.09791666666666643
                },
                {
                    "name": "A4",
                    "midi": 69,
                    "time": 31,
                    "velocity": 0.5905511811023622,
                    "duration": 0.04791666666666572
                },
                {
                    "name": "C#5",
                    "midi": 73,
                    "time": 31.25,
                    "velocity": 0.5905511811023622,
                    "duration": 0.04791666666666572
                },
                {
                    "name": "D#5",
                    "midi": 75,
                    "time": 31.5,
                    "velocity": 0.5905511811023622,
                    "duration": 0.04791666666666572
                },
                {
                    "name": "D5",
                    "midi": 74,
                    "time": 31.75,
                    "velocity": 0.5905511811023622,
                    "duration": 0.04791666666666572
                },
                {
                    "name": "C#5",
                    "midi": 73,
                    "time": 32,
                    "velocity": 0.5905511811023622,
                    "duration": 0.04791666666666572
                },
                {
                    "name": "A4",
                    "midi": 69,
                    "time": 32.25,
                    "velocity": 0.5905511811023622,
                    "duration": 0.04791666666666572
                },
                {
                    "name": "A#4",
                    "midi": 70,
                    "time": 32.5,
                    "velocity": 0.5905511811023622,
                    "duration": 0.04791666666666572
                },
                {
                    "name": "B4",
                    "midi": 71,
                    "time": 32.75,
                    "velocity": 0.5905511811023622,
                    "duration": 0.04791666666666572
                },
                {
                    "name": "D#5",
                    "midi": 75,
                    "time": 33,
                    "velocity": 0.5905511811023622,
                    "duration": 0.04791666666666572
                },
                {
                    "name": "G4",
                    "midi": 67,
                    "time": 34.5,
                    "velocity": 0.5905511811023622,
                    "duration": 0.04791666666666572
                },
                {
                    "name": "G#4",
                    "midi": 68,
                    "time": 34.75,
                    "velocity": 0.5905511811023622,
                    "duration": 0.04791666666666572
                },
                {
                    "name": "A4",
                    "midi": 69,
                    "time": 35,
                    "velocity": 0.5905511811023622,
                    "duration": 0.03125
                },
                {
                    "name": "C#5",
                    "midi": 73,
                    "time": 35.25,
                    "velocity": 0.5905511811023622,
                    "duration": 0.03125
                },
                {
                    "name": "D#5",
                    "midi": 75,
                    "time": 35.5,
                    "velocity": 0.5905511811023622,
                    "duration": 0.03125
                },
                {
                    "name": "D5",
                    "midi": 74,
                    "time": 35.75,
                    "velocity": 0.5905511811023622,
                    "duration": 0.03125
                },
                {
                    "name": "C#5",
                    "midi": 73,
                    "time": 36,
                    "velocity": 0.5905511811023622,
                    "duration": 0.03125
                },
                {
                    "name": "A4",
                    "midi": 69,
                    "time": 36.25,
                    "velocity": 0.5905511811023622,
                    "duration": 0.03125
                },
                {
                    "name": "A#4",
                    "midi": 70,
                    "time": 36.5,
                    "velocity": 0.5905511811023622,
                    "duration": 0.03125
                },
                {
                    "name": "B4",
                    "midi": 71,
                    "time": 36.75,
                    "velocity": 0.5905511811023622,
                    "duration": 0.03125
                },
                {
                    "name": "D#5",
                    "midi": 75,
                    "time": 37,
                    "velocity": 0.5905511811023622,
                    "duration": 0.04791666666666572
                },
                {
                    "name": "C5",
                    "midi": 72,
                    "time": 38.5,
                    "velocity": 0.5905511811023622,
                    "duration": 0.04791666666666572
                },
                {
                    "name": "C#5",
                    "midi": 73,
                    "time": 38.75,
                    "velocity": 0.5905511811023622,
                    "duration": 0.04791666666666572
                },
                {
                    "name": "D5",
                    "midi": 74,
                    "time": 39,
                    "velocity": 0.5905511811023622,
                    "duration": 0.04791666666666572
                },
                {
                    "name": "F#5",
                    "midi": 78,
                    "time": 39.25,
                    "velocity": 0.5905511811023622,
                    "duration": 0.04791666666666572
                },
                {
                    "name": "G#5",
                    "midi": 80,
                    "time": 39.5,
                    "velocity": 0.5905511811023622,
                    "duration": 0.04791666666666572
                },
                {
                    "name": "G5",
                    "midi": 79,
                    "time": 39.75,
                    "velocity": 0.5905511811023622,
                    "duration": 0.04791666666666572
                },
                {
                    "name": "F#5",
                    "midi": 78,
                    "time": 40,
                    "velocity": 0.5905511811023622,
                    "duration": 0.04791666666666572
                },
                {
                    "name": "D5",
                    "midi": 74,
                    "time": 40.25,
                    "velocity": 0.5905511811023622,
                    "duration": 0.04791666666666572
                },
                {
                    "name": "C5",
                    "midi": 72,
                    "time": 40.5,
                    "velocity": 0.5905511811023622,
                    "duration": 0.04791666666666572
                },
                {
                    "name": "C#5",
                    "midi": 73,
                    "time": 40.75,
                    "velocity": 0.5905511811023622,
                    "duration": 0.04791666666666572
                },
                {
                    "name": "D5",
                    "midi": 74,
                    "time": 41,
                    "velocity": 0.4881889763779528,
                    "duration": 0.04791666666666572
                },
                {
                    "name": "F#5",
                    "midi": 78,
                    "time": 41.25,
                    "velocity": 0.4881889763779528,
                    "duration": 0.04791666666666572
                },
                {
                    "name": "G#5",
                    "midi": 80,
                    "time": 41.5,
                    "velocity": 0.4881889763779528,
                    "duration": 0.04791666666666572
                },
                {
                    "name": "G5",
                    "midi": 79,
                    "time": 41.75,
                    "velocity": 0.4881889763779528,
                    "duration": 0.04791666666666572
                },
                {
                    "name": "F#5",
                    "midi": 78,
                    "time": 42,
                    "velocity": 0.4881889763779528,
                    "duration": 0.04791666666666572
                },
                {
                    "name": "D5",
                    "midi": 74,
                    "time": 42.25,
                    "velocity": 0.4881889763779528,
                    "duration": 0.04791666666666572
                },
                {
                    "name": "C5",
                    "midi": 72,
                    "time": 42.5,
                    "velocity": 0.4881889763779528,
                    "duration": 0.04791666666666572
                },
                {
                    "name": "C#5",
                    "midi": 73,
                    "time": 42.75,
                    "velocity": 0.4881889763779528,
                    "duration": 0.04791666666666572
                },
                {
                    "name": "D5",
                    "midi": 74,
                    "time": 43,
                    "velocity": 0.4881889763779528,
                    "duration": 0.04791666666666572
                },
                {
                    "name": "F#5",
                    "midi": 78,
                    "time": 43.25,
                    "velocity": 0.4881889763779528,
                    "duration": 0.04791666666666572
                },
                {
                    "name": "G#5",
                    "midi": 80,
                    "time": 43.5,
                    "velocity": 0.4881889763779528,
                    "duration": 0.04791666666666572
                },
                {
                    "name": "G5",
                    "midi": 79,
                    "time": 43.75,
                    "velocity": 0.4881889763779528,
                    "duration": 0.04791666666666572
                },
                {
                    "name": "F#5",
                    "midi": 78,
                    "time": 44,
                    "velocity": 0.4881889763779528,
                    "duration": 0.04791666666666572
                },
                {
                    "name": "D5",
                    "midi": 74,
                    "time": 44.25,
                    "velocity": 0.4881889763779528,
                    "duration": 0.04791666666666572
                },
                {
                    "name": "D#5",
                    "midi": 75,
                    "time": 44.5,
                    "velocity": 0.4881889763779528,
                    "duration": 0.04791666666666572
                },
                {
                    "name": "E5",
                    "midi": 76,
                    "time": 44.75,
                    "velocity": 0.4881889763779528,
                    "duration": 0.04791666666666572
                },
                {
                    "name": "G#5",
                    "midi": 80,
                    "time": 45,
                    "velocity": 0.4881889763779528,
                    "duration": 0.04791666666666572
                },
                {
                    "name": "B3",
                    "midi": 59,
                    "time": 48,
                    "velocity": 0.4881889763779528,
                    "duration": 1
                },
                {
                    "name": "D#4",
                    "midi": 63,
                    "time": 48,
                    "velocity": 0.4881889763779528,
                    "duration": 1
                },
                {
                    "name": "B4",
                    "midi": 71,
                    "time": 48,
                    "velocity": 0.4881889763779528,
                    "duration": 1
                },
                {
                    "name": "G3",
                    "midi": 55,
                    "time": 52,
                    "velocity": 0.4881889763779528,
                    "duration": 1
                },
                {
                    "name": "B3",
                    "midi": 59,
                    "time": 52,
                    "velocity": 0.4881889763779528,
                    "duration": 1
                },
                {
                    "name": "F4",
                    "midi": 65,
                    "time": 52,
                    "velocity": 0.4881889763779528,
                    "duration": 1
                },
                {
                    "name": "G3",
                    "midi": 55,
                    "time": 56,
                    "velocity": 0.4881889763779528,
                    "duration": 1
                },
                {
                    "name": "B3",
                    "midi": 59,
                    "time": 56,
                    "velocity": 0.4881889763779528,
                    "duration": 1
                },
                {
                    "name": "F4",
                    "midi": 65,
                    "time": 56,
                    "velocity": 0.4881889763779528,
                    "duration": 1
                },
                {
                    "name": "B3",
                    "midi": 59,
                    "time": 58,
                    "velocity": 0.5905511811023622,
                    "duration": 1
                },
                {
                    "name": "D#4",
                    "midi": 63,
                    "time": 58,
                    "velocity": 0.5905511811023622,
                    "duration": 1
                },
                {
                    "name": "A4",
                    "midi": 69,
                    "time": 58,
                    "velocity": 0.5905511811023622,
                    "duration": 1
                },
                {
                    "name": "D#4",
                    "midi": 63,
                    "time": 59,
                    "velocity": 0.5905511811023622,
                    "duration": 1
                },
                {
                    "name": "G4",
                    "midi": 67,
                    "time": 59,
                    "velocity": 0.5905511811023622,
                    "duration": 1
                },
                {
                    "name": "C#5",
                    "midi": 73,
                    "time": 59,
                    "velocity": 0.5905511811023622,
                    "duration": 1
                },
                {
                    "name": "B3",
                    "midi": 59,
                    "time": 60,
                    "velocity": 0.5905511811023622,
                    "duration": 1
                },
                {
                    "name": "D#4",
                    "midi": 63,
                    "time": 60,
                    "velocity": 0.5905511811023622,
                    "duration": 1
                },
                {
                    "name": "A4",
                    "midi": 69,
                    "time": 60,
                    "velocity": 0.5905511811023622,
                    "duration": 1
                },
                {
                    "name": "G3",
                    "midi": 55,
                    "time": 61,
                    "velocity": 0.5905511811023622,
                    "duration": 1
                },
                {
                    "name": "B3",
                    "midi": 59,
                    "time": 61,
                    "velocity": 0.5905511811023622,
                    "duration": 1
                },
                {
                    "name": "F4",
                    "midi": 65,
                    "time": 61,
                    "velocity": 0.5905511811023622,
                    "duration": 1
                },
                {
                    "name": "D#3",
                    "midi": 51,
                    "time": 62,
                    "velocity": 0.5905511811023622,
                    "duration": 1
                },
                {
                    "name": "G3",
                    "midi": 55,
                    "time": 62,
                    "velocity": 0.5905511811023622,
                    "duration": 1
                },
                {
                    "name": "C#4",
                    "midi": 61,
                    "time": 62,
                    "velocity": 0.5905511811023622,
                    "duration": 1
                },
                {
                    "name": "D4",
                    "midi": 62,
                    "time": 63,
                    "velocity": 0.7952755905511811,
                    "duration": 5
                },
                {
                    "name": "E4",
                    "midi": 64,
                    "time": 63,
                    "velocity": 0.7952755905511811,
                    "duration": 5
                },
                {
                    "name": "G#4",
                    "midi": 68,
                    "time": 63,
                    "velocity": 0.7952755905511811,
                    "duration": 5
                },
                {
                    "name": "A#4",
                    "midi": 70,
                    "time": 63,
                    "velocity": 0.7952755905511811,
                    "duration": 5
                },
                {
                    "name": "D4",
                    "midi": 62,
                    "time": 79,
                    "velocity": 0.4881889763779528,
                    "duration": 2
                },
                {
                    "name": "E4",
                    "midi": 64,
                    "time": 79,
                    "velocity": 0.4881889763779528,
                    "duration": 2
                },
                {
                    "name": "G#4",
                    "midi": 68,
                    "time": 79,
                    "velocity": 0.4881889763779528,
                    "duration": 2
                },
                {
                    "name": "A#4",
                    "midi": 70,
                    "time": 79,
                    "velocity": 0.4881889763779528,
                    "duration": 2
                },
                {
                    "name": "D4",
                    "midi": 62,
                    "time": 84,
                    "velocity": 0.5905511811023622,
                    "duration": 1
                },
                {
                    "name": "E4",
                    "midi": 64,
                    "time": 84,
                    "velocity": 0.5905511811023622,
                    "duration": 1
                },
                {
                    "name": "G#4",
                    "midi": 68,
                    "time": 84,
                    "velocity": 0.5905511811023622,
                    "duration": 1
                },
                {
                    "name": "A#4",
                    "midi": 70,
                    "time": 84,
                    "velocity": 0.5905511811023622,
                    "duration": 1
                }
            ],
            "controlChanges": {
                "7": [
                    {
                        "number": 7,
                        "time": 0,
                        "value": 1
                    }
                ],
                "10": [
                    {
                        "number": 10,
                        "time": 0,
                        "value": 0.23622047244094488
                    }
                ],
                "64": [
                    {
                        "number": 64,
                        "time": 79,
                        "value": 1
                    },
                    {
                        "number": 64,
                        "time": 83,
                        "value": 0
                    },
                    {
                        "number": 64,
                        "time": 84,
                        "value": 1
                    },
                    {
                        "number": 64,
                        "time": 87,
                        "value": 0
                    }
                ]
            },
            "id": 3,
            "name": "Instrument18",
            "instrumentNumber": 0,
            "instrument": "acoustic grand piano",
            "instrumentFamily": "piano",
            "channelNumber": 2,
            "isPercussion": false
        },
        {
            "startTime": 17,
            "duration": 30.797916666666666,
            "length": 48,
            "notes": [
                {
                    "name": "G#4",
                    "midi": 68,
                    "time": 17,
                    "velocity": 0.5039370078740157,
                    "duration": 0.04791666666666572
                },
                {
                    "name": "C4",
                    "midi": 60,
                    "time": 18.5,
                    "velocity": 0.5039370078740157,
                    "duration": 0.04791666666666572
                },
                {
                    "name": "C5",
                    "midi": 72,
                    "time": 18.5,
                    "velocity": 0.5039370078740157,
                    "duration": 0.04791666666666572
                },
                {
                    "name": "C#4",
                    "midi": 61,
                    "time": 18.75,
                    "velocity": 0.5039370078740157,
                    "duration": 0.04791666666666572
                },
                {
                    "name": "C#5",
                    "midi": 73,
                    "time": 18.75,
                    "velocity": 0.5039370078740157,
                    "duration": 0.04791666666666572
                },
                {
                    "name": "D4",
                    "midi": 62,
                    "time": 19,
                    "velocity": 0.5905511811023622,
                    "duration": 0.04791666666666572
                },
                {
                    "name": "F#4",
                    "midi": 66,
                    "time": 19.25,
                    "velocity": 0.5905511811023622,
                    "duration": 0.04791666666666572
                },
                {
                    "name": "G#4",
                    "midi": 68,
                    "time": 19.5,
                    "velocity": 0.5905511811023622,
                    "duration": 0.04791666666666572
                },
                {
                    "name": "G4",
                    "midi": 67,
                    "time": 19.75,
                    "velocity": 0.5905511811023622,
                    "duration": 0.04791666666666572
                },
                {
                    "name": "F#4",
                    "midi": 66,
                    "time": 20,
                    "velocity": 0.6929133858267716,
                    "duration": 0.04791666666666572
                },
                {
                    "name": "D4",
                    "midi": 62,
                    "time": 20.25,
                    "velocity": 0.6929133858267716,
                    "duration": 0.04791666666666572
                },
                {
                    "name": "D#4",
                    "midi": 63,
                    "time": 20.5,
                    "velocity": 0.6929133858267716,
                    "duration": 0.04791666666666572
                },
                {
                    "name": "E4",
                    "midi": 64,
                    "time": 20.75,
                    "velocity": 0.6929133858267716,
                    "duration": 0.04791666666666572
                },
                {
                    "name": "G#4",
                    "midi": 68,
                    "time": 21,
                    "velocity": 0.6929133858267716,
                    "duration": 0.04791666666666572
                },
                {
                    "name": "C3",
                    "midi": 48,
                    "time": 22.5,
                    "velocity": 0.4881889763779528,
                    "duration": 0.25
                },
                {
                    "name": "C#3",
                    "midi": 49,
                    "time": 22.75,
                    "velocity": 0.4881889763779528,
                    "duration": 0.25
                },
                {
                    "name": "D3",
                    "midi": 50,
                    "time": 23,
                    "velocity": 0.4881889763779528,
                    "duration": 0.25
                },
                {
                    "name": "F#3",
                    "midi": 54,
                    "time": 23.25,
                    "velocity": 0.4881889763779528,
                    "duration": 0.25
                },
                {
                    "name": "F3",
                    "midi": 53,
                    "time": 23.5,
                    "velocity": 0.4881889763779528,
                    "duration": 0.25
                },
                {
                    "name": "F#3",
                    "midi": 54,
                    "time": 23.75,
                    "velocity": 0.4881889763779528,
                    "duration": 0.25
                },
                {
                    "name": "G3",
                    "midi": 55,
                    "time": 24,
                    "velocity": 0.4881889763779528,
                    "duration": 0.25
                },
                {
                    "name": "B3",
                    "midi": 59,
                    "time": 24.25,
                    "velocity": 0.4881889763779528,
                    "duration": 0.25
                },
                {
                    "name": "A#3",
                    "midi": 58,
                    "time": 24.5,
                    "velocity": 0.4881889763779528,
                    "duration": 0.25
                },
                {
                    "name": "B3",
                    "midi": 59,
                    "time": 24.75,
                    "velocity": 0.4881889763779528,
                    "duration": 0.25
                },
                {
                    "name": "C4",
                    "midi": 60,
                    "time": 25,
                    "velocity": 0.4881889763779528,
                    "duration": 0.25
                },
                {
                    "name": "E4",
                    "midi": 64,
                    "time": 25.25,
                    "velocity": 0.4881889763779528,
                    "duration": 0.25
                },
                {
                    "name": "D#4",
                    "midi": 63,
                    "time": 25.5,
                    "velocity": 0.4881889763779528,
                    "duration": 0.25
                },
                {
                    "name": "E4",
                    "midi": 64,
                    "time": 25.75,
                    "velocity": 0.4881889763779528,
                    "duration": 0.25
                },
                {
                    "name": "F4",
                    "midi": 65,
                    "time": 26,
                    "velocity": 0.4881889763779528,
                    "duration": 0.25
                },
                {
                    "name": "A4",
                    "midi": 69,
                    "time": 26.25,
                    "velocity": 0.4881889763779528,
                    "duration": 0.25
                },
                {
                    "name": "G#2",
                    "midi": 44,
                    "time": 26.5,
                    "velocity": 0.4881889763779528,
                    "duration": 0.25
                },
                {
                    "name": "A2",
                    "midi": 45,
                    "time": 26.75,
                    "velocity": 0.4881889763779528,
                    "duration": 0.25
                },
                {
                    "name": "A#2",
                    "midi": 46,
                    "time": 27,
                    "velocity": 0.4881889763779528,
                    "duration": 0.25
                },
                {
                    "name": "D3",
                    "midi": 50,
                    "time": 27.25,
                    "velocity": 0.4881889763779528,
                    "duration": 0.25
                },
                {
                    "name": "C#3",
                    "midi": 49,
                    "time": 27.5,
                    "velocity": 0.4881889763779528,
                    "duration": 0.25
                },
                {
                    "name": "D3",
                    "midi": 50,
                    "time": 27.75,
                    "velocity": 0.4881889763779528,
                    "duration": 0.25
                },
                {
                    "name": "D#3",
                    "midi": 51,
                    "time": 28,
                    "velocity": 0.4881889763779528,
                    "duration": 0.25
                },
                {
                    "name": "G3",
                    "midi": 55,
                    "time": 28.25,
                    "velocity": 0.4881889763779528,
                    "duration": 0.25
                },
                {
                    "name": "F#3",
                    "midi": 54,
                    "time": 28.5,
                    "velocity": 0.4881889763779528,
                    "duration": 0.25
                },
                {
                    "name": "G3",
                    "midi": 55,
                    "time": 28.75,
                    "velocity": 0.4881889763779528,
                    "duration": 0.25
                },
                {
                    "name": "G#3",
                    "midi": 56,
                    "time": 29,
                    "velocity": 0.4881889763779528,
                    "duration": 0.25
                },
                {
                    "name": "C4",
                    "midi": 60,
                    "time": 29.25,
                    "velocity": 0.4881889763779528,
                    "duration": 0.25
                },
                {
                    "name": "B3",
                    "midi": 59,
                    "time": 29.5,
                    "velocity": 0.4881889763779528,
                    "duration": 0.25
                },
                {
                    "name": "C4",
                    "midi": 60,
                    "time": 29.75,
                    "velocity": 0.4881889763779528,
                    "duration": 0.25
                },
                {
                    "name": "C#4",
                    "midi": 61,
                    "time": 30,
                    "velocity": 0.4881889763779528,
                    "duration": 0.25
                },
                {
                    "name": "F4",
                    "midi": 65,
                    "time": 30.25,
                    "velocity": 0.4881889763779528,
                    "duration": 0.25
                },
                {
                    "name": "G4",
                    "midi": 67,
                    "time": 30.5,
                    "velocity": 0.4881889763779528,
                    "duration": 0.04791666666666572
                },
                {
                    "name": "G#4",
                    "midi": 68,
                    "time": 30.75,
                    "velocity": 0.4881889763779528,
                    "duration": 0.04791666666666572
                }
            ],
            "controlChanges": {
                "7": [
                    {
                        "number": 7,
                        "time": 0,
                        "value": 1
                    }
                ],
                "10": [
                    {
                        "number": 10,
                        "time": 0,
                        "value": 0.23622047244094488
                    }
                ],
                "64": [
                    {
                        "number": 64,
                        "time": 22.5,
                        "value": 1
                    },
                    {
                        "number": 64,
                        "time": 23.25,
                        "value": 0
                    },
                    {
                        "number": 64,
                        "time": 23.5,
                        "value": 1
                    },
                    {
                        "number": 64,
                        "time": 24.25,
                        "value": 0
                    },
                    {
                        "number": 64,
                        "time": 24.5,
                        "value": 1
                    },
                    {
                        "number": 64,
                        "time": 25.25,
                        "value": 0
                    },
                    {
                        "number": 64,
                        "time": 25.5,
                        "value": 1
                    },
                    {
                        "number": 64,
                        "time": 26.25,
                        "value": 0
                    },
                    {
                        "number": 64,
                        "time": 26.5,
                        "value": 1
                    },
                    {
                        "number": 64,
                        "time": 27.25,
                        "value": 0
                    },
                    {
                        "number": 64,
                        "time": 27.5,
                        "value": 1
                    },
                    {
                        "number": 64,
                        "time": 28.25,
                        "value": 0
                    },
                    {
                        "number": 64,
                        "time": 28.5,
                        "value": 1
                    },
                    {
                        "number": 64,
                        "time": 29.25,
                        "value": 0
                    },
                    {
                        "number": 64,
                        "time": 29.5,
                        "value": 1
                    },
                    {
                        "number": 64,
                        "time": 30.25,
                        "value": 0
                    }
                ]
            },
            "id": 4,
            "name": "Instrument19",
            "instrumentNumber": 0,
            "instrument": "acoustic grand piano",
            "instrumentFamily": "piano",
            "channelNumber": 3,
            "isPercussion": false
        },
        {
            "startTime": 0,
            "duration": 0,
            "length": 0,
            "notes": [],
            "controlChanges": {},
            "id": 5
        }
    ]
}