{
    "header": {
        "PPQ": 480,
        "timeSignature": [
            2,
            4
        ],
        "bpm": 107.99991360006912,
        "name": "stravinsky rite of spring 02"
    },
    "startTime": 0,
    "duration": 155.41679100000133,
    "tracks": [
        {
            "startTime": 0,
            "duration": 0,
            "length": 0,
            "notes": [],
            "controlChanges": {},
            "id": 0,
            "name": "stravinsky rite of spring 02"
        },
        {
            "startTime": 0,
            "duration": 155.41679100000133,
            "length": 1461,
            "notes": [
                {
                    "name": "D#6",
                    "midi": 87,
                    "time": 0,
                    "velocity": 0.3858267716535433,
                    "duration": 0.0694445
                },
                {
                    "name": "F6",
                    "midi": 89,
                    "time": 0.0694445,
                    "velocity": 0.3858267716535433,
                    "duration": 0.0694445
                },
                {
                    "name": "D#6",
                    "midi": 87,
                    "time": 0.138889,
                    "velocity": 0.3858267716535433,
                    "duration": 0.06944449999999999
                },
                {
                    "name": "F6",
                    "midi": 89,
                    "time": 0.2083335,
                    "velocity": 0.3858267716535433,
                    "duration": 0.06944450000000002
                },
                {
                    "name": "D#6",
                    "midi": 87,
                    "time": 0.277778,
                    "velocity": 0.3858267716535433,
                    "duration": 0.06944450000000002
                },
                {
                    "name": "F6",
                    "midi": 89,
                    "time": 0.34722250000000004,
                    "velocity": 0.3858267716535433,
                    "duration": 0.06944450000000002
                },
                {
                    "name": "D#6",
                    "midi": 87,
                    "time": 0.41666700000000007,
                    "velocity": 0.3858267716535433,
                    "duration": 0.06944450000000002
                },
                {
                    "name": "F6",
                    "midi": 89,
                    "time": 0.4861115000000001,
                    "velocity": 0.3858267716535433,
                    "duration": 0.06944449999999996
                },
                {
                    "name": "D#6",
                    "midi": 87,
                    "time": 0.555556,
                    "velocity": 0.3858267716535433,
                    "duration": 0.06944450000000002
                },
                {
                    "name": "F6",
                    "midi": 89,
                    "time": 0.6250005000000001,
                    "velocity": 0.3858267716535433,
                    "duration": 0.06944450000000002
                },
                {
                    "name": "D#6",
                    "midi": 87,
                    "time": 0.6944450000000001,
                    "velocity": 0.3858267716535433,
                    "duration": 0.06944450000000002
                },
                {
                    "name": "F6",
                    "midi": 89,
                    "time": 0.7638895000000001,
                    "velocity": 0.3858267716535433,
                    "duration": 0.06944450000000002
                },
                {
                    "name": "D#6",
                    "midi": 87,
                    "time": 0.8333340000000001,
                    "velocity": 0.3858267716535433,
                    "duration": 0.06944450000000002
                },
                {
                    "name": "F6",
                    "midi": 89,
                    "time": 0.9027785000000002,
                    "velocity": 0.3858267716535433,
                    "duration": 0.06944450000000002
                },
                {
                    "name": "D#6",
                    "midi": 87,
                    "time": 0.9722230000000002,
                    "velocity": 0.3858267716535433,
                    "duration": 0.06944450000000002
                },
                {
                    "name": "F6",
                    "midi": 89,
                    "time": 1.0416675000000002,
                    "velocity": 0.3858267716535433,
                    "duration": 0.06944449999999991
                },
                {
                    "name": "D#6",
                    "midi": 87,
                    "time": 1.111112,
                    "velocity": 0.3858267716535433,
                    "duration": 0.06944449999999991
                },
                {
                    "name": "F6",
                    "midi": 89,
                    "time": 1.1805565,
                    "velocity": 0.3858267716535433,
                    "duration": 0.06944449999999991
                },
                {
                    "name": "D#6",
                    "midi": 87,
                    "time": 1.250001,
                    "velocity": 0.3858267716535433,
                    "duration": 0.06944449999999991
                },
                {
                    "name": "F6",
                    "midi": 89,
                    "time": 1.3194454999999998,
                    "velocity": 0.3858267716535433,
                    "duration": 0.06944449999999991
                },
                {
                    "name": "D#6",
                    "midi": 87,
                    "time": 1.3888899999999997,
                    "velocity": 0.3858267716535433,
                    "duration": 0.06944449999999991
                },
                {
                    "name": "F6",
                    "midi": 89,
                    "time": 1.4583344999999996,
                    "velocity": 0.3858267716535433,
                    "duration": 0.06944449999999991
                },
                {
                    "name": "D#6",
                    "midi": 87,
                    "time": 1.5277789999999996,
                    "velocity": 0.3858267716535433,
                    "duration": 0.06944449999999991
                },
                {
                    "name": "F6",
                    "midi": 89,
                    "time": 1.5972234999999995,
                    "velocity": 0.3858267716535433,
                    "duration": 0.06944449999999991
                },
                {
                    "name": "D#6",
                    "midi": 87,
                    "time": 1.6666679999999994,
                    "velocity": 0.3858267716535433,
                    "duration": 0.06944449999999991
                },
                {
                    "name": "F6",
                    "midi": 89,
                    "time": 1.7361124999999993,
                    "velocity": 0.3858267716535433,
                    "duration": 0.06944449999999991
                },
                {
                    "name": "D#6",
                    "midi": 87,
                    "time": 1.8055569999999992,
                    "velocity": 0.3858267716535433,
                    "duration": 0.06944449999999991
                },
                {
                    "name": "F6",
                    "midi": 89,
                    "time": 1.875001499999999,
                    "velocity": 0.3858267716535433,
                    "duration": 0.06944449999999991
                },
                {
                    "name": "D#6",
                    "midi": 87,
                    "time": 1.944445999999999,
                    "velocity": 0.3858267716535433,
                    "duration": 0.06944450000000013
                },
                {
                    "name": "F6",
                    "midi": 89,
                    "time": 2.013890499999999,
                    "velocity": 0.3858267716535433,
                    "duration": 0.06944449999999991
                },
                {
                    "name": "D#6",
                    "midi": 87,
                    "time": 2.083334999999999,
                    "velocity": 0.3858267716535433,
                    "duration": 0.06944449999999991
                },
                {
                    "name": "F6",
                    "midi": 89,
                    "time": 2.152779499999999,
                    "velocity": 0.3858267716535433,
                    "duration": 0.06944449999999991
                },
                {
                    "name": "D#6",
                    "midi": 87,
                    "time": 2.222223999999999,
                    "velocity": 0.3858267716535433,
                    "duration": 0.06944449999999991
                },
                {
                    "name": "F6",
                    "midi": 89,
                    "time": 2.2916684999999988,
                    "velocity": 0.3858267716535433,
                    "duration": 0.06944449999999991
                },
                {
                    "name": "D#6",
                    "midi": 87,
                    "time": 2.3611129999999987,
                    "velocity": 0.3858267716535433,
                    "duration": 0.06944449999999991
                },
                {
                    "name": "F6",
                    "midi": 89,
                    "time": 2.4305574999999986,
                    "velocity": 0.3858267716535433,
                    "duration": 0.06944449999999991
                },
                {
                    "name": "D#6",
                    "midi": 87,
                    "time": 2.5000019999999985,
                    "velocity": 0.3858267716535433,
                    "duration": 0.06944449999999991
                },
                {
                    "name": "F6",
                    "midi": 89,
                    "time": 2.5694464999999984,
                    "velocity": 0.3858267716535433,
                    "duration": 0.06944449999999991
                },
                {
                    "name": "D#6",
                    "midi": 87,
                    "time": 2.6388909999999983,
                    "velocity": 0.3858267716535433,
                    "duration": 0.06944449999999991
                },
                {
                    "name": "F6",
                    "midi": 89,
                    "time": 2.7083354999999982,
                    "velocity": 0.3858267716535433,
                    "duration": 0.06944449999999991
                },
                {
                    "name": "D#6",
                    "midi": 87,
                    "time": 2.777779999999998,
                    "velocity": 0.3858267716535433,
                    "duration": 0.06944449999999991
                },
                {
                    "name": "F6",
                    "midi": 89,
                    "time": 2.847224499999998,
                    "velocity": 0.3858267716535433,
                    "duration": 0.06944449999999991
                },
                {
                    "name": "D#6",
                    "midi": 87,
                    "time": 2.916668999999998,
                    "velocity": 0.3858267716535433,
                    "duration": 0.06944449999999991
                },
                {
                    "name": "F6",
                    "midi": 89,
                    "time": 2.986113499999998,
                    "velocity": 0.3858267716535433,
                    "duration": 0.06944449999999991
                },
                {
                    "name": "D#6",
                    "midi": 87,
                    "time": 3.0555579999999978,
                    "velocity": 0.3858267716535433,
                    "duration": 0.06944449999999991
                },
                {
                    "name": "F6",
                    "midi": 89,
                    "time": 3.1250024999999977,
                    "velocity": 0.3858267716535433,
                    "duration": 0.06944449999999991
                },
                {
                    "name": "D#6",
                    "midi": 87,
                    "time": 3.1944469999999976,
                    "velocity": 0.3858267716535433,
                    "duration": 0.06944449999999991
                },
                {
                    "name": "F6",
                    "midi": 89,
                    "time": 3.2638914999999975,
                    "velocity": 0.3858267716535433,
                    "duration": 0.06944449999999991
                },
                {
                    "name": "D#6",
                    "midi": 87,
                    "time": 3.3333359999999974,
                    "velocity": 0.3858267716535433,
                    "duration": 0.06944449999999991
                },
                {
                    "name": "F6",
                    "midi": 89,
                    "time": 3.4027804999999973,
                    "velocity": 0.3858267716535433,
                    "duration": 0.06944449999999991
                },
                {
                    "name": "D#6",
                    "midi": 87,
                    "time": 3.4722249999999972,
                    "velocity": 0.3858267716535433,
                    "duration": 0.06944449999999991
                },
                {
                    "name": "F6",
                    "midi": 89,
                    "time": 3.541669499999997,
                    "velocity": 0.3858267716535433,
                    "duration": 0.06944449999999991
                },
                {
                    "name": "D#6",
                    "midi": 87,
                    "time": 3.611113999999997,
                    "velocity": 0.3858267716535433,
                    "duration": 0.06944449999999991
                },
                {
                    "name": "F6",
                    "midi": 89,
                    "time": 3.680558499999997,
                    "velocity": 0.3858267716535433,
                    "duration": 0.06944449999999991
                },
                {
                    "name": "D#6",
                    "midi": 87,
                    "time": 3.750002999999997,
                    "velocity": 0.3858267716535433,
                    "duration": 0.06944449999999991
                },
                {
                    "name": "F6",
                    "midi": 89,
                    "time": 3.8194474999999968,
                    "velocity": 0.3858267716535433,
                    "duration": 0.06944449999999991
                },
                {
                    "name": "D#6",
                    "midi": 87,
                    "time": 3.8888919999999967,
                    "velocity": 0.3858267716535433,
                    "duration": 0.06944449999999991
                },
                {
                    "name": "F6",
                    "midi": 89,
                    "time": 3.9583364999999966,
                    "velocity": 0.3858267716535433,
                    "duration": 0.06944449999999991
                },
                {
                    "name": "D#6",
                    "midi": 87,
                    "time": 4.0277809999999965,
                    "velocity": 0.3858267716535433,
                    "duration": 0.06944450000000035
                },
                {
                    "name": "F6",
                    "midi": 89,
                    "time": 4.097225499999997,
                    "velocity": 0.3858267716535433,
                    "duration": 0.06944450000000035
                },
                {
                    "name": "D#6",
                    "midi": 87,
                    "time": 4.166669999999997,
                    "velocity": 0.3858267716535433,
                    "duration": 0.06944450000000035
                },
                {
                    "name": "F6",
                    "midi": 89,
                    "time": 4.236114499999998,
                    "velocity": 0.3858267716535433,
                    "duration": 0.06944450000000035
                },
                {
                    "name": "D#6",
                    "midi": 87,
                    "time": 4.305558999999998,
                    "velocity": 0.3858267716535433,
                    "duration": 0.06944450000000035
                },
                {
                    "name": "F6",
                    "midi": 89,
                    "time": 4.375003499999998,
                    "velocity": 0.3858267716535433,
                    "duration": 0.06944450000000035
                },
                {
                    "name": "D#6",
                    "midi": 87,
                    "time": 4.444447999999999,
                    "velocity": 0.3858267716535433,
                    "duration": 0.06944450000000035
                },
                {
                    "name": "F6",
                    "midi": 89,
                    "time": 4.513892499999999,
                    "velocity": 0.3858267716535433,
                    "duration": 0.06944450000000035
                },
                {
                    "name": "D#6",
                    "midi": 87,
                    "time": 4.583336999999999,
                    "velocity": 0.3858267716535433,
                    "duration": 0.06944450000000035
                },
                {
                    "name": "F6",
                    "midi": 89,
                    "time": 4.6527815,
                    "velocity": 0.3858267716535433,
                    "duration": 0.06944450000000035
                },
                {
                    "name": "D#6",
                    "midi": 87,
                    "time": 4.722226,
                    "velocity": 0.3858267716535433,
                    "duration": 0.06944450000000035
                },
                {
                    "name": "F6",
                    "midi": 89,
                    "time": 4.7916705,
                    "velocity": 0.3858267716535433,
                    "duration": 0.06944450000000035
                },
                {
                    "name": "D#6",
                    "midi": 87,
                    "time": 4.861115000000001,
                    "velocity": 0.3858267716535433,
                    "duration": 0.06944450000000035
                },
                {
                    "name": "F6",
                    "midi": 89,
                    "time": 4.930559500000001,
                    "velocity": 0.3858267716535433,
                    "duration": 0.06944450000000035
                },
                {
                    "name": "D#6",
                    "midi": 87,
                    "time": 5.0000040000000014,
                    "velocity": 0.3858267716535433,
                    "duration": 0.06944450000000035
                },
                {
                    "name": "F6",
                    "midi": 89,
                    "time": 5.069448500000002,
                    "velocity": 0.3858267716535433,
                    "duration": 0.06944450000000035
                },
                {
                    "name": "D#6",
                    "midi": 87,
                    "time": 5.138893000000002,
                    "velocity": 0.3858267716535433,
                    "duration": 0.06944450000000035
                },
                {
                    "name": "F6",
                    "midi": 89,
                    "time": 5.2083375000000025,
                    "velocity": 0.3858267716535433,
                    "duration": 0.06944450000000035
                },
                {
                    "name": "D#6",
                    "midi": 87,
                    "time": 5.277782000000003,
                    "velocity": 0.3858267716535433,
                    "duration": 0.06944450000000035
                },
                {
                    "name": "F6",
                    "midi": 89,
                    "time": 5.347226500000003,
                    "velocity": 0.3858267716535433,
                    "duration": 0.06944450000000035
                },
                {
                    "name": "D#6",
                    "midi": 87,
                    "time": 5.416671000000004,
                    "velocity": 0.3858267716535433,
                    "duration": 0.06944450000000035
                },
                {
                    "name": "F6",
                    "midi": 89,
                    "time": 5.486115500000004,
                    "velocity": 0.3858267716535433,
                    "duration": 0.06944450000000035
                },
                {
                    "name": "D#6",
                    "midi": 87,
                    "time": 5.555560000000004,
                    "velocity": 0.3858267716535433,
                    "duration": 0.06944450000000035
                },
                {
                    "name": "F6",
                    "midi": 89,
                    "time": 5.625004500000005,
                    "velocity": 0.3858267716535433,
                    "duration": 0.06944450000000035
                },
                {
                    "name": "D#6",
                    "midi": 87,
                    "time": 5.694449000000005,
                    "velocity": 0.3858267716535433,
                    "duration": 0.06944450000000035
                },
                {
                    "name": "F6",
                    "midi": 89,
                    "time": 5.763893500000005,
                    "velocity": 0.3858267716535433,
                    "duration": 0.06944450000000035
                },
                {
                    "name": "D#6",
                    "midi": 87,
                    "time": 5.833338000000006,
                    "velocity": 0.3858267716535433,
                    "duration": 0.06944450000000035
                },
                {
                    "name": "F6",
                    "midi": 89,
                    "time": 5.902782500000006,
                    "velocity": 0.3858267716535433,
                    "duration": 0.06944450000000035
                },
                {
                    "name": "D#6",
                    "midi": 87,
                    "time": 5.972227000000006,
                    "velocity": 0.3858267716535433,
                    "duration": 0.06944450000000035
                },
                {
                    "name": "F6",
                    "midi": 89,
                    "time": 6.041671500000007,
                    "velocity": 0.3858267716535433,
                    "duration": 0.06944450000000035
                },
                {
                    "name": "D#6",
                    "midi": 87,
                    "time": 6.111116000000007,
                    "velocity": 0.3858267716535433,
                    "duration": 0.06944450000000035
                },
                {
                    "name": "F6",
                    "midi": 89,
                    "time": 6.1805605000000075,
                    "velocity": 0.3858267716535433,
                    "duration": 0.06944450000000035
                },
                {
                    "name": "D#6",
                    "midi": 87,
                    "time": 6.250005000000008,
                    "velocity": 0.3858267716535433,
                    "duration": 0.06944450000000035
                },
                {
                    "name": "F6",
                    "midi": 89,
                    "time": 6.319449500000008,
                    "velocity": 0.3858267716535433,
                    "duration": 0.06944450000000035
                },
                {
                    "name": "D#6",
                    "midi": 87,
                    "time": 6.3888940000000085,
                    "velocity": 0.3858267716535433,
                    "duration": 0.06944450000000035
                },
                {
                    "name": "F6",
                    "midi": 89,
                    "time": 6.458338500000009,
                    "velocity": 0.3858267716535433,
                    "duration": 0.06944450000000035
                },
                {
                    "name": "D#6",
                    "midi": 87,
                    "time": 6.527783000000009,
                    "velocity": 0.3858267716535433,
                    "duration": 0.06944450000000035
                },
                {
                    "name": "F6",
                    "midi": 89,
                    "time": 6.59722750000001,
                    "velocity": 0.3858267716535433,
                    "duration": 0.06944450000000035
                },
                {
                    "name": "D#6",
                    "midi": 87,
                    "time": 6.66667200000001,
                    "velocity": 0.3858267716535433,
                    "duration": 0.06944450000000035
                },
                {
                    "name": "F6",
                    "midi": 89,
                    "time": 6.73611650000001,
                    "velocity": 0.3858267716535433,
                    "duration": 0.06944450000000035
                },
                {
                    "name": "D#6",
                    "midi": 87,
                    "time": 6.805561000000011,
                    "velocity": 0.3858267716535433,
                    "duration": 0.06944450000000035
                },
                {
                    "name": "F6",
                    "midi": 89,
                    "time": 6.875005500000011,
                    "velocity": 0.3858267716535433,
                    "duration": 0.06944450000000035
                },
                {
                    "name": "D#6",
                    "midi": 87,
                    "time": 6.944450000000011,
                    "velocity": 0.3858267716535433,
                    "duration": 0.06944450000000035
                },
                {
                    "name": "F6",
                    "midi": 89,
                    "time": 7.013894500000012,
                    "velocity": 0.3858267716535433,
                    "duration": 0.06944450000000035
                },
                {
                    "name": "D#6",
                    "midi": 87,
                    "time": 7.083339000000012,
                    "velocity": 0.3858267716535433,
                    "duration": 0.06944450000000035
                },
                {
                    "name": "F6",
                    "midi": 89,
                    "time": 7.152783500000012,
                    "velocity": 0.3858267716535433,
                    "duration": 0.06944450000000035
                },
                {
                    "name": "D#6",
                    "midi": 87,
                    "time": 7.222228000000013,
                    "velocity": 0.3858267716535433,
                    "duration": 0.06944450000000035
                },
                {
                    "name": "F6",
                    "midi": 89,
                    "time": 7.291672500000013,
                    "velocity": 0.3858267716535433,
                    "duration": 0.06944450000000035
                },
                {
                    "name": "D#6",
                    "midi": 87,
                    "time": 7.3611170000000135,
                    "velocity": 0.3858267716535433,
                    "duration": 0.06944450000000035
                },
                {
                    "name": "F6",
                    "midi": 89,
                    "time": 7.430561500000014,
                    "velocity": 0.3858267716535433,
                    "duration": 0.06944450000000035
                },
                {
                    "name": "D#6",
                    "midi": 87,
                    "time": 7.500006000000014,
                    "velocity": 0.3858267716535433,
                    "duration": 0.06944450000000035
                },
                {
                    "name": "F6",
                    "midi": 89,
                    "time": 7.5694505000000145,
                    "velocity": 0.3858267716535433,
                    "duration": 0.06944450000000035
                },
                {
                    "name": "D#6",
                    "midi": 87,
                    "time": 7.638895000000015,
                    "velocity": 0.3858267716535433,
                    "duration": 0.06944450000000035
                },
                {
                    "name": "F6",
                    "midi": 89,
                    "time": 7.708339500000015,
                    "velocity": 0.3858267716535433,
                    "duration": 0.06944450000000035
                },
                {
                    "name": "D#6",
                    "midi": 87,
                    "time": 7.777784000000016,
                    "velocity": 0.3858267716535433,
                    "duration": 0.06944450000000035
                },
                {
                    "name": "F6",
                    "midi": 89,
                    "time": 7.847228500000016,
                    "velocity": 0.3858267716535433,
                    "duration": 0.06944450000000035
                },
                {
                    "name": "D#6",
                    "midi": 87,
                    "time": 7.916673000000016,
                    "velocity": 0.3858267716535433,
                    "duration": 0.06944450000000035
                },
                {
                    "name": "F6",
                    "midi": 89,
                    "time": 7.986117500000017,
                    "velocity": 0.3858267716535433,
                    "duration": 0.06944449999999946
                },
                {
                    "name": "D#6",
                    "midi": 87,
                    "time": 8.055562000000016,
                    "velocity": 0.3858267716535433,
                    "duration": 0.06944449999999946
                },
                {
                    "name": "F6",
                    "midi": 89,
                    "time": 8.125006500000016,
                    "velocity": 0.3858267716535433,
                    "duration": 0.06944449999999946
                },
                {
                    "name": "D#6",
                    "midi": 87,
                    "time": 8.194451000000015,
                    "velocity": 0.3858267716535433,
                    "duration": 0.06944449999999946
                },
                {
                    "name": "F6",
                    "midi": 89,
                    "time": 8.263895500000014,
                    "velocity": 0.3858267716535433,
                    "duration": 0.06944449999999946
                },
                {
                    "name": "D#6",
                    "midi": 87,
                    "time": 8.333340000000014,
                    "velocity": 0.3858267716535433,
                    "duration": 0.06944449999999946
                },
                {
                    "name": "F6",
                    "midi": 89,
                    "time": 8.402784500000013,
                    "velocity": 0.3858267716535433,
                    "duration": 0.06944449999999946
                },
                {
                    "name": "D#6",
                    "midi": 87,
                    "time": 8.472229000000013,
                    "velocity": 0.3858267716535433,
                    "duration": 0.06944449999999946
                },
                {
                    "name": "F6",
                    "midi": 89,
                    "time": 8.541673500000012,
                    "velocity": 0.3858267716535433,
                    "duration": 0.06944449999999946
                },
                {
                    "name": "D#6",
                    "midi": 87,
                    "time": 8.611118000000012,
                    "velocity": 0.3858267716535433,
                    "duration": 0.06944449999999946
                },
                {
                    "name": "F6",
                    "midi": 89,
                    "time": 8.680562500000011,
                    "velocity": 0.3858267716535433,
                    "duration": 0.06944449999999946
                },
                {
                    "name": "D#6",
                    "midi": 87,
                    "time": 8.75000700000001,
                    "velocity": 0.3858267716535433,
                    "duration": 0.06944449999999946
                },
                {
                    "name": "F6",
                    "midi": 89,
                    "time": 8.81945150000001,
                    "velocity": 0.3858267716535433,
                    "duration": 0.06944449999999946
                },
                {
                    "name": "D#6",
                    "midi": 87,
                    "time": 8.88889600000001,
                    "velocity": 0.3858267716535433,
                    "duration": 0.06944449999999946
                },
                {
                    "name": "F6",
                    "midi": 89,
                    "time": 8.95834050000001,
                    "velocity": 0.3858267716535433,
                    "duration": 0.06944449999999946
                },
                {
                    "name": "D#6",
                    "midi": 87,
                    "time": 9.027785000000009,
                    "velocity": 0.3858267716535433,
                    "duration": 0.06944449999999946
                },
                {
                    "name": "F6",
                    "midi": 89,
                    "time": 9.097229500000008,
                    "velocity": 0.3858267716535433,
                    "duration": 0.06944449999999946
                },
                {
                    "name": "D#6",
                    "midi": 87,
                    "time": 9.166674000000008,
                    "velocity": 0.3858267716535433,
                    "duration": 0.06944449999999946
                },
                {
                    "name": "F6",
                    "midi": 89,
                    "time": 9.236118500000007,
                    "velocity": 0.3858267716535433,
                    "duration": 0.06944449999999946
                },
                {
                    "name": "D#6",
                    "midi": 87,
                    "time": 9.305563000000006,
                    "velocity": 0.3858267716535433,
                    "duration": 0.06944449999999946
                },
                {
                    "name": "F6",
                    "midi": 89,
                    "time": 9.375007500000006,
                    "velocity": 0.3858267716535433,
                    "duration": 0.06944449999999946
                },
                {
                    "name": "D#6",
                    "midi": 87,
                    "time": 9.444452000000005,
                    "velocity": 0.3858267716535433,
                    "duration": 0.06944449999999946
                },
                {
                    "name": "F6",
                    "midi": 89,
                    "time": 9.513896500000005,
                    "velocity": 0.3858267716535433,
                    "duration": 0.06944449999999946
                },
                {
                    "name": "D#6",
                    "midi": 87,
                    "time": 9.583341000000004,
                    "velocity": 0.3858267716535433,
                    "duration": 0.06944449999999946
                },
                {
                    "name": "F6",
                    "midi": 89,
                    "time": 9.652785500000004,
                    "velocity": 0.3858267716535433,
                    "duration": 0.06944449999999946
                },
                {
                    "name": "D#6",
                    "midi": 87,
                    "time": 9.722230000000003,
                    "velocity": 0.3858267716535433,
                    "duration": 0.06944449999999946
                },
                {
                    "name": "F6",
                    "midi": 89,
                    "time": 9.791674500000003,
                    "velocity": 0.3858267716535433,
                    "duration": 0.06944449999999946
                },
                {
                    "name": "D#6",
                    "midi": 87,
                    "time": 9.861119000000002,
                    "velocity": 0.3858267716535433,
                    "duration": 0.06944449999999946
                },
                {
                    "name": "F6",
                    "midi": 89,
                    "time": 9.930563500000002,
                    "velocity": 0.3858267716535433,
                    "duration": 0.06944449999999946
                },
                {
                    "name": "D#6",
                    "midi": 87,
                    "time": 10.000008000000001,
                    "velocity": 0.3858267716535433,
                    "duration": 0.06944449999999946
                },
                {
                    "name": "F6",
                    "midi": 89,
                    "time": 10.0694525,
                    "velocity": 0.3858267716535433,
                    "duration": 0.06944449999999946
                },
                {
                    "name": "D#6",
                    "midi": 87,
                    "time": 10.138897,
                    "velocity": 0.3858267716535433,
                    "duration": 0.06944449999999946
                },
                {
                    "name": "F6",
                    "midi": 89,
                    "time": 10.2083415,
                    "velocity": 0.3858267716535433,
                    "duration": 0.06944449999999946
                },
                {
                    "name": "D#6",
                    "midi": 87,
                    "time": 10.277785999999999,
                    "velocity": 0.3858267716535433,
                    "duration": 0.06944449999999946
                },
                {
                    "name": "F6",
                    "midi": 89,
                    "time": 10.347230499999998,
                    "velocity": 0.3858267716535433,
                    "duration": 0.06944449999999946
                },
                {
                    "name": "D#6",
                    "midi": 87,
                    "time": 10.416674999999998,
                    "velocity": 0.3858267716535433,
                    "duration": 0.06944449999999946
                },
                {
                    "name": "F6",
                    "midi": 89,
                    "time": 10.486119499999997,
                    "velocity": 0.3858267716535433,
                    "duration": 0.06944449999999946
                },
                {
                    "name": "D#6",
                    "midi": 87,
                    "time": 10.555563999999997,
                    "velocity": 0.3858267716535433,
                    "duration": 0.06944449999999946
                },
                {
                    "name": "F6",
                    "midi": 89,
                    "time": 10.625008499999996,
                    "velocity": 0.3858267716535433,
                    "duration": 0.06944449999999946
                },
                {
                    "name": "D#6",
                    "midi": 87,
                    "time": 10.694452999999996,
                    "velocity": 0.3858267716535433,
                    "duration": 0.06944449999999946
                },
                {
                    "name": "F6",
                    "midi": 89,
                    "time": 10.763897499999995,
                    "velocity": 0.3858267716535433,
                    "duration": 0.06944449999999946
                },
                {
                    "name": "D#6",
                    "midi": 87,
                    "time": 10.833341999999995,
                    "velocity": 0.3858267716535433,
                    "duration": 0.06944449999999946
                },
                {
                    "name": "F6",
                    "midi": 89,
                    "time": 10.902786499999994,
                    "velocity": 0.3858267716535433,
                    "duration": 0.06944449999999946
                },
                {
                    "name": "D#6",
                    "midi": 87,
                    "time": 10.972230999999994,
                    "velocity": 0.3858267716535433,
                    "duration": 0.06944449999999946
                },
                {
                    "name": "F6",
                    "midi": 89,
                    "time": 11.041675499999993,
                    "velocity": 0.3858267716535433,
                    "duration": 0.06944449999999946
                },
                {
                    "name": "D#6",
                    "midi": 87,
                    "time": 11.111119999999993,
                    "velocity": 0.3858267716535433,
                    "duration": 0.06944449999999946
                },
                {
                    "name": "F6",
                    "midi": 89,
                    "time": 11.180564499999992,
                    "velocity": 0.3858267716535433,
                    "duration": 0.06944449999999946
                },
                {
                    "name": "D#6",
                    "midi": 87,
                    "time": 11.250008999999991,
                    "velocity": 0.3858267716535433,
                    "duration": 0.06944449999999946
                },
                {
                    "name": "F6",
                    "midi": 89,
                    "time": 11.319453499999991,
                    "velocity": 0.3858267716535433,
                    "duration": 0.06944449999999946
                },
                {
                    "name": "D#6",
                    "midi": 87,
                    "time": 11.38889799999999,
                    "velocity": 0.3858267716535433,
                    "duration": 0.06944449999999946
                },
                {
                    "name": "F6",
                    "midi": 89,
                    "time": 11.45834249999999,
                    "velocity": 0.3858267716535433,
                    "duration": 0.06944449999999946
                },
                {
                    "name": "D#6",
                    "midi": 87,
                    "time": 11.52778699999999,
                    "velocity": 0.3858267716535433,
                    "duration": 0.06944449999999946
                },
                {
                    "name": "F6",
                    "midi": 89,
                    "time": 11.597231499999989,
                    "velocity": 0.3858267716535433,
                    "duration": 0.06944449999999946
                },
                {
                    "name": "D#6",
                    "midi": 87,
                    "time": 11.666675999999988,
                    "velocity": 0.3858267716535433,
                    "duration": 0.06944449999999946
                },
                {
                    "name": "F6",
                    "midi": 89,
                    "time": 11.736120499999988,
                    "velocity": 0.3858267716535433,
                    "duration": 0.06944449999999946
                },
                {
                    "name": "D#6",
                    "midi": 87,
                    "time": 11.805564999999987,
                    "velocity": 0.3858267716535433,
                    "duration": 0.06944449999999946
                },
                {
                    "name": "F6",
                    "midi": 89,
                    "time": 11.875009499999987,
                    "velocity": 0.3858267716535433,
                    "duration": 0.06944449999999946
                },
                {
                    "name": "D#6",
                    "midi": 87,
                    "time": 11.944453999999986,
                    "velocity": 0.3858267716535433,
                    "duration": 0.06944449999999946
                },
                {
                    "name": "F6",
                    "midi": 89,
                    "time": 12.013898499999986,
                    "velocity": 0.3858267716535433,
                    "duration": 0.06944449999999946
                },
                {
                    "name": "D#6",
                    "midi": 87,
                    "time": 12.083342999999985,
                    "velocity": 0.3858267716535433,
                    "duration": 0.06944449999999946
                },
                {
                    "name": "F6",
                    "midi": 89,
                    "time": 12.152787499999985,
                    "velocity": 0.3858267716535433,
                    "duration": 0.06944449999999946
                },
                {
                    "name": "D#6",
                    "midi": 87,
                    "time": 12.222231999999984,
                    "velocity": 0.3858267716535433,
                    "duration": 0.06944449999999946
                },
                {
                    "name": "F6",
                    "midi": 89,
                    "time": 12.291676499999983,
                    "velocity": 0.3858267716535433,
                    "duration": 0.06944449999999946
                },
                {
                    "name": "D#6",
                    "midi": 87,
                    "time": 12.361120999999983,
                    "velocity": 0.3858267716535433,
                    "duration": 0.06944449999999946
                },
                {
                    "name": "F6",
                    "midi": 89,
                    "time": 12.430565499999982,
                    "velocity": 0.3858267716535433,
                    "duration": 0.06944449999999946
                },
                {
                    "name": "D#6",
                    "midi": 87,
                    "time": 12.500009999999982,
                    "velocity": 0.3858267716535433,
                    "duration": 0.06944449999999946
                },
                {
                    "name": "F6",
                    "midi": 89,
                    "time": 12.569454499999981,
                    "velocity": 0.3858267716535433,
                    "duration": 0.06944449999999946
                },
                {
                    "name": "D#6",
                    "midi": 87,
                    "time": 12.63889899999998,
                    "velocity": 0.3858267716535433,
                    "duration": 0.06944449999999946
                },
                {
                    "name": "F6",
                    "midi": 89,
                    "time": 12.70834349999998,
                    "velocity": 0.3858267716535433,
                    "duration": 0.06944449999999946
                },
                {
                    "name": "D#6",
                    "midi": 87,
                    "time": 12.77778799999998,
                    "velocity": 0.3858267716535433,
                    "duration": 0.06944449999999946
                },
                {
                    "name": "F6",
                    "midi": 89,
                    "time": 12.84723249999998,
                    "velocity": 0.3858267716535433,
                    "duration": 0.06944449999999946
                },
                {
                    "name": "D#6",
                    "midi": 87,
                    "time": 12.916676999999979,
                    "velocity": 0.3858267716535433,
                    "duration": 0.06944449999999946
                },
                {
                    "name": "F6",
                    "midi": 89,
                    "time": 12.986121499999978,
                    "velocity": 0.3858267716535433,
                    "duration": 0.06944449999999946
                },
                {
                    "name": "D#6",
                    "midi": 87,
                    "time": 13.055565999999978,
                    "velocity": 0.3858267716535433,
                    "duration": 0.06944449999999946
                },
                {
                    "name": "F6",
                    "midi": 89,
                    "time": 13.125010499999977,
                    "velocity": 0.3858267716535433,
                    "duration": 0.06944449999999946
                },
                {
                    "name": "D#6",
                    "midi": 87,
                    "time": 13.194454999999977,
                    "velocity": 0.3858267716535433,
                    "duration": 0.06944449999999946
                },
                {
                    "name": "F6",
                    "midi": 89,
                    "time": 13.263899499999976,
                    "velocity": 0.3858267716535433,
                    "duration": 0.06944449999999946
                },
                {
                    "name": "D#6",
                    "midi": 87,
                    "time": 13.333343999999975,
                    "velocity": 0.3858267716535433,
                    "duration": 0.06944449999999946
                },
                {
                    "name": "F6",
                    "midi": 89,
                    "time": 13.402788499999975,
                    "velocity": 0.3858267716535433,
                    "duration": 0.06944449999999946
                },
                {
                    "name": "D#6",
                    "midi": 87,
                    "time": 13.472232999999974,
                    "velocity": 0.3858267716535433,
                    "duration": 0.06944449999999946
                },
                {
                    "name": "F6",
                    "midi": 89,
                    "time": 13.541677499999974,
                    "velocity": 0.3858267716535433,
                    "duration": 0.06944449999999946
                },
                {
                    "name": "D#6",
                    "midi": 87,
                    "time": 13.611121999999973,
                    "velocity": 0.3858267716535433,
                    "duration": 0.06944449999999946
                },
                {
                    "name": "F6",
                    "midi": 89,
                    "time": 13.680566499999973,
                    "velocity": 0.3858267716535433,
                    "duration": 0.06944449999999946
                },
                {
                    "name": "D#6",
                    "midi": 87,
                    "time": 13.750010999999972,
                    "velocity": 0.3858267716535433,
                    "duration": 0.06944449999999946
                },
                {
                    "name": "F6",
                    "midi": 89,
                    "time": 13.819455499999972,
                    "velocity": 0.3858267716535433,
                    "duration": 0.06944449999999946
                },
                {
                    "name": "D#6",
                    "midi": 87,
                    "time": 13.888899999999971,
                    "velocity": 0.3858267716535433,
                    "duration": 0.06944449999999946
                },
                {
                    "name": "F6",
                    "midi": 89,
                    "time": 13.95834449999997,
                    "velocity": 0.3858267716535433,
                    "duration": 0.06944449999999946
                },
                {
                    "name": "D#6",
                    "midi": 87,
                    "time": 14.02778899999997,
                    "velocity": 0.3858267716535433,
                    "duration": 0.06944449999999946
                },
                {
                    "name": "F6",
                    "midi": 89,
                    "time": 14.09723349999997,
                    "velocity": 0.3858267716535433,
                    "duration": 0.06944449999999946
                },
                {
                    "name": "D#6",
                    "midi": 87,
                    "time": 14.166677999999969,
                    "velocity": 0.3858267716535433,
                    "duration": 0.06944449999999946
                },
                {
                    "name": "F6",
                    "midi": 89,
                    "time": 14.236122499999968,
                    "velocity": 0.3858267716535433,
                    "duration": 0.06944449999999946
                },
                {
                    "name": "D#6",
                    "midi": 87,
                    "time": 14.305566999999968,
                    "velocity": 0.3858267716535433,
                    "duration": 0.06944449999999946
                },
                {
                    "name": "F6",
                    "midi": 89,
                    "time": 14.375011499999967,
                    "velocity": 0.3858267716535433,
                    "duration": 0.06944449999999946
                },
                {
                    "name": "D#6",
                    "midi": 87,
                    "time": 14.444455999999967,
                    "velocity": 0.3858267716535433,
                    "duration": 0.06944449999999946
                },
                {
                    "name": "F6",
                    "midi": 89,
                    "time": 14.513900499999966,
                    "velocity": 0.3858267716535433,
                    "duration": 0.06944449999999946
                },
                {
                    "name": "D#6",
                    "midi": 87,
                    "time": 14.583344999999966,
                    "velocity": 0.3858267716535433,
                    "duration": 0.06944449999999946
                },
                {
                    "name": "F6",
                    "midi": 89,
                    "time": 14.652789499999965,
                    "velocity": 0.3858267716535433,
                    "duration": 0.06944449999999946
                },
                {
                    "name": "D#6",
                    "midi": 87,
                    "time": 14.722233999999965,
                    "velocity": 0.3858267716535433,
                    "duration": 0.06944449999999946
                },
                {
                    "name": "F6",
                    "midi": 89,
                    "time": 14.791678499999964,
                    "velocity": 0.3858267716535433,
                    "duration": 0.06944449999999946
                },
                {
                    "name": "D#6",
                    "midi": 87,
                    "time": 14.861122999999964,
                    "velocity": 0.3858267716535433,
                    "duration": 0.06944449999999946
                },
                {
                    "name": "F6",
                    "midi": 89,
                    "time": 14.930567499999963,
                    "velocity": 0.3858267716535433,
                    "duration": 0.06944449999999946
                },
                {
                    "name": "D#6",
                    "midi": 87,
                    "time": 15.000011999999963,
                    "velocity": 0.3858267716535433,
                    "duration": 0.06944449999999946
                },
                {
                    "name": "F6",
                    "midi": 89,
                    "time": 15.069456499999962,
                    "velocity": 0.3858267716535433,
                    "duration": 0.06944449999999946
                },
                {
                    "name": "D#6",
                    "midi": 87,
                    "time": 15.138900999999962,
                    "velocity": 0.3858267716535433,
                    "duration": 0.06944449999999946
                },
                {
                    "name": "F6",
                    "midi": 89,
                    "time": 15.208345499999961,
                    "velocity": 0.3858267716535433,
                    "duration": 0.06944449999999946
                },
                {
                    "name": "D#6",
                    "midi": 87,
                    "time": 15.27778999999996,
                    "velocity": 0.3858267716535433,
                    "duration": 0.06944449999999946
                },
                {
                    "name": "F6",
                    "midi": 89,
                    "time": 15.34723449999996,
                    "velocity": 0.3858267716535433,
                    "duration": 0.06944449999999946
                },
                {
                    "name": "D#6",
                    "midi": 87,
                    "time": 15.41667899999996,
                    "velocity": 0.3858267716535433,
                    "duration": 0.06944449999999946
                },
                {
                    "name": "F6",
                    "midi": 89,
                    "time": 15.486123499999959,
                    "velocity": 0.3858267716535433,
                    "duration": 0.06944449999999946
                },
                {
                    "name": "D#6",
                    "midi": 87,
                    "time": 15.555567999999958,
                    "velocity": 0.3858267716535433,
                    "duration": 0.06944449999999946
                },
                {
                    "name": "F6",
                    "midi": 89,
                    "time": 15.625012499999958,
                    "velocity": 0.3858267716535433,
                    "duration": 0.06944449999999946
                },
                {
                    "name": "D#6",
                    "midi": 87,
                    "time": 15.694456999999957,
                    "velocity": 0.3858267716535433,
                    "duration": 0.06944449999999946
                },
                {
                    "name": "F6",
                    "midi": 89,
                    "time": 15.763901499999957,
                    "velocity": 0.3858267716535433,
                    "duration": 0.06944449999999946
                },
                {
                    "name": "D#6",
                    "midi": 87,
                    "time": 15.833345999999956,
                    "velocity": 0.3858267716535433,
                    "duration": 0.06944449999999946
                },
                {
                    "name": "F6",
                    "midi": 89,
                    "time": 15.902790499999956,
                    "velocity": 0.3858267716535433,
                    "duration": 0.06944449999999946
                },
                {
                    "name": "D#6",
                    "midi": 87,
                    "time": 15.972234999999955,
                    "velocity": 0.3858267716535433,
                    "duration": 0.06944449999999946
                },
                {
                    "name": "F6",
                    "midi": 89,
                    "time": 16.041679499999955,
                    "velocity": 0.3858267716535433,
                    "duration": 0.06944449999999946
                },
                {
                    "name": "D#6",
                    "midi": 87,
                    "time": 16.111123999999954,
                    "velocity": 0.3858267716535433,
                    "duration": 0.06944449999999946
                },
                {
                    "name": "F6",
                    "midi": 89,
                    "time": 16.180568499999954,
                    "velocity": 0.3858267716535433,
                    "duration": 0.06944449999999946
                },
                {
                    "name": "D#6",
                    "midi": 87,
                    "time": 16.250012999999953,
                    "velocity": 0.3858267716535433,
                    "duration": 0.06944449999999946
                },
                {
                    "name": "F6",
                    "midi": 89,
                    "time": 16.319457499999952,
                    "velocity": 0.3858267716535433,
                    "duration": 0.06944449999999946
                },
                {
                    "name": "D#6",
                    "midi": 87,
                    "time": 16.388901999999952,
                    "velocity": 0.3858267716535433,
                    "duration": 0.06944449999999946
                },
                {
                    "name": "F6",
                    "midi": 89,
                    "time": 16.45834649999995,
                    "velocity": 0.3858267716535433,
                    "duration": 0.06944449999999946
                },
                {
                    "name": "D#6",
                    "midi": 87,
                    "time": 16.52779099999995,
                    "velocity": 0.3858267716535433,
                    "duration": 0.06944449999999946
                },
                {
                    "name": "F6",
                    "midi": 89,
                    "time": 16.59723549999995,
                    "velocity": 0.3858267716535433,
                    "duration": 0.06944449999999946
                },
                {
                    "name": "D#6",
                    "midi": 87,
                    "time": 16.66667999999995,
                    "velocity": 0.3858267716535433,
                    "duration": 0.06944449999999946
                },
                {
                    "name": "F6",
                    "midi": 89,
                    "time": 16.73612449999995,
                    "velocity": 0.3858267716535433,
                    "duration": 0.06944449999999946
                },
                {
                    "name": "D#6",
                    "midi": 87,
                    "time": 16.80556899999995,
                    "velocity": 0.3858267716535433,
                    "duration": 0.06944449999999946
                },
                {
                    "name": "F6",
                    "midi": 89,
                    "time": 16.875013499999948,
                    "velocity": 0.3858267716535433,
                    "duration": 0.06944449999999946
                },
                {
                    "name": "D#6",
                    "midi": 87,
                    "time": 16.944457999999948,
                    "velocity": 0.3858267716535433,
                    "duration": 0.06944449999999946
                },
                {
                    "name": "F6",
                    "midi": 89,
                    "time": 17.013902499999947,
                    "velocity": 0.3858267716535433,
                    "duration": 0.06944449999999946
                },
                {
                    "name": "D#6",
                    "midi": 87,
                    "time": 17.083346999999947,
                    "velocity": 0.3858267716535433,
                    "duration": 0.06944449999999946
                },
                {
                    "name": "F6",
                    "midi": 89,
                    "time": 17.152791499999946,
                    "velocity": 0.3858267716535433,
                    "duration": 0.06944449999999946
                },
                {
                    "name": "D#6",
                    "midi": 87,
                    "time": 17.222235999999945,
                    "velocity": 0.3858267716535433,
                    "duration": 0.06944449999999946
                },
                {
                    "name": "F6",
                    "midi": 89,
                    "time": 17.291680499999945,
                    "velocity": 0.3858267716535433,
                    "duration": 0.06944449999999946
                },
                {
                    "name": "D#6",
                    "midi": 87,
                    "time": 17.361124999999944,
                    "velocity": 0.3858267716535433,
                    "duration": 0.06944449999999946
                },
                {
                    "name": "F6",
                    "midi": 89,
                    "time": 17.430569499999944,
                    "velocity": 0.3858267716535433,
                    "duration": 0.06944449999999946
                },
                {
                    "name": "D#6",
                    "midi": 87,
                    "time": 17.500013999999943,
                    "velocity": 0.3858267716535433,
                    "duration": 0.06944449999999946
                },
                {
                    "name": "F6",
                    "midi": 89,
                    "time": 17.569458499999943,
                    "velocity": 0.3858267716535433,
                    "duration": 0.06944449999999946
                },
                {
                    "name": "D#6",
                    "midi": 87,
                    "time": 17.638902999999942,
                    "velocity": 0.3858267716535433,
                    "duration": 0.06944449999999946
                },
                {
                    "name": "F6",
                    "midi": 89,
                    "time": 17.70834749999994,
                    "velocity": 0.3858267716535433,
                    "duration": 0.06944449999999946
                },
                {
                    "name": "D#6",
                    "midi": 87,
                    "time": 17.77779199999994,
                    "velocity": 0.3858267716535433,
                    "duration": 0.06944449999999946
                },
                {
                    "name": "F6",
                    "midi": 89,
                    "time": 17.84723649999994,
                    "velocity": 0.3858267716535433,
                    "duration": 0.06944449999999946
                },
                {
                    "name": "D#6",
                    "midi": 87,
                    "time": 17.91668099999994,
                    "velocity": 0.3858267716535433,
                    "duration": 0.06944449999999946
                },
                {
                    "name": "F6",
                    "midi": 89,
                    "time": 17.98612549999994,
                    "velocity": 0.3858267716535433,
                    "duration": 0.06944449999999946
                },
                {
                    "name": "D#6",
                    "midi": 87,
                    "time": 18.05556999999994,
                    "velocity": 0.3858267716535433,
                    "duration": 0.06944449999999946
                },
                {
                    "name": "F6",
                    "midi": 89,
                    "time": 18.12501449999994,
                    "velocity": 0.3858267716535433,
                    "duration": 0.06944449999999946
                },
                {
                    "name": "D#6",
                    "midi": 87,
                    "time": 18.194458999999938,
                    "velocity": 0.3858267716535433,
                    "duration": 0.06944449999999946
                },
                {
                    "name": "F6",
                    "midi": 89,
                    "time": 18.263903499999937,
                    "velocity": 0.3858267716535433,
                    "duration": 0.06944449999999946
                },
                {
                    "name": "D#6",
                    "midi": 87,
                    "time": 18.333347999999937,
                    "velocity": 0.3858267716535433,
                    "duration": 0.06944449999999946
                },
                {
                    "name": "F6",
                    "midi": 89,
                    "time": 18.402792499999936,
                    "velocity": 0.3858267716535433,
                    "duration": 0.06944449999999946
                },
                {
                    "name": "D#6",
                    "midi": 87,
                    "time": 18.472236999999936,
                    "velocity": 0.3858267716535433,
                    "duration": 0.06944449999999946
                },
                {
                    "name": "F6",
                    "midi": 89,
                    "time": 18.541681499999935,
                    "velocity": 0.3858267716535433,
                    "duration": 0.06944449999999946
                },
                {
                    "name": "D#6",
                    "midi": 87,
                    "time": 18.611125999999935,
                    "velocity": 0.3858267716535433,
                    "duration": 0.06944449999999946
                },
                {
                    "name": "F6",
                    "midi": 89,
                    "time": 18.680570499999934,
                    "velocity": 0.3858267716535433,
                    "duration": 0.06944449999999946
                },
                {
                    "name": "D#6",
                    "midi": 87,
                    "time": 18.750014999999934,
                    "velocity": 0.3858267716535433,
                    "duration": 0.06944449999999946
                },
                {
                    "name": "F6",
                    "midi": 89,
                    "time": 18.819459499999933,
                    "velocity": 0.3858267716535433,
                    "duration": 0.06944449999999946
                },
                {
                    "name": "D#6",
                    "midi": 87,
                    "time": 18.888903999999933,
                    "velocity": 0.3858267716535433,
                    "duration": 0.06944449999999946
                },
                {
                    "name": "F6",
                    "midi": 89,
                    "time": 18.958348499999932,
                    "velocity": 0.3858267716535433,
                    "duration": 0.06944449999999946
                },
                {
                    "name": "D#6",
                    "midi": 87,
                    "time": 19.02779299999993,
                    "velocity": 0.3858267716535433,
                    "duration": 0.06944449999999946
                },
                {
                    "name": "F6",
                    "midi": 89,
                    "time": 19.09723749999993,
                    "velocity": 0.3858267716535433,
                    "duration": 0.06944449999999946
                },
                {
                    "name": "D#6",
                    "midi": 87,
                    "time": 19.16668199999993,
                    "velocity": 0.3858267716535433,
                    "duration": 0.06944449999999946
                },
                {
                    "name": "F6",
                    "midi": 89,
                    "time": 19.23612649999993,
                    "velocity": 0.3858267716535433,
                    "duration": 0.06944449999999946
                },
                {
                    "name": "D#6",
                    "midi": 87,
                    "time": 19.30557099999993,
                    "velocity": 0.3858267716535433,
                    "duration": 0.06944449999999946
                },
                {
                    "name": "F6",
                    "midi": 89,
                    "time": 19.37501549999993,
                    "velocity": 0.3858267716535433,
                    "duration": 0.06944449999999946
                },
                {
                    "name": "D#6",
                    "midi": 87,
                    "time": 19.44445999999993,
                    "velocity": 0.3858267716535433,
                    "duration": 0.06944449999999946
                },
                {
                    "name": "F6",
                    "midi": 89,
                    "time": 19.513904499999928,
                    "velocity": 0.3858267716535433,
                    "duration": 0.06944449999999946
                },
                {
                    "name": "D#6",
                    "midi": 87,
                    "time": 19.583348999999927,
                    "velocity": 0.3858267716535433,
                    "duration": 0.06944449999999946
                },
                {
                    "name": "F6",
                    "midi": 89,
                    "time": 19.652793499999927,
                    "velocity": 0.3858267716535433,
                    "duration": 0.06944449999999946
                },
                {
                    "name": "D#6",
                    "midi": 87,
                    "time": 19.722237999999926,
                    "velocity": 0.3858267716535433,
                    "duration": 0.06944449999999946
                },
                {
                    "name": "F6",
                    "midi": 89,
                    "time": 19.791682499999926,
                    "velocity": 0.3858267716535433,
                    "duration": 0.06944449999999946
                },
                {
                    "name": "D#6",
                    "midi": 87,
                    "time": 19.861126999999925,
                    "velocity": 0.3858267716535433,
                    "duration": 0.06944449999999946
                },
                {
                    "name": "F6",
                    "midi": 89,
                    "time": 19.930571499999925,
                    "velocity": 0.3858267716535433,
                    "duration": 0.06944449999999946
                },
                {
                    "name": "D#6",
                    "midi": 87,
                    "time": 20.000015999999924,
                    "velocity": 0.3858267716535433,
                    "duration": 0.06944449999999946
                },
                {
                    "name": "F6",
                    "midi": 89,
                    "time": 20.069460499999924,
                    "velocity": 0.3858267716535433,
                    "duration": 0.06944449999999946
                },
                {
                    "name": "D#6",
                    "midi": 87,
                    "time": 20.138904999999923,
                    "velocity": 0.3858267716535433,
                    "duration": 0.06944449999999946
                },
                {
                    "name": "F6",
                    "midi": 89,
                    "time": 20.208349499999922,
                    "velocity": 0.3858267716535433,
                    "duration": 0.06944449999999946
                },
                {
                    "name": "D#6",
                    "midi": 87,
                    "time": 20.277793999999922,
                    "velocity": 0.3858267716535433,
                    "duration": 0.06944449999999946
                },
                {
                    "name": "F6",
                    "midi": 89,
                    "time": 20.34723849999992,
                    "velocity": 0.3858267716535433,
                    "duration": 0.06944449999999946
                },
                {
                    "name": "D#6",
                    "midi": 87,
                    "time": 20.41668299999992,
                    "velocity": 0.3858267716535433,
                    "duration": 0.06944449999999946
                },
                {
                    "name": "F6",
                    "midi": 89,
                    "time": 20.48612749999992,
                    "velocity": 0.3858267716535433,
                    "duration": 0.06944449999999946
                },
                {
                    "name": "D#6",
                    "midi": 87,
                    "time": 20.55557199999992,
                    "velocity": 0.3858267716535433,
                    "duration": 0.06944449999999946
                },
                {
                    "name": "F6",
                    "midi": 89,
                    "time": 20.62501649999992,
                    "velocity": 0.3858267716535433,
                    "duration": 0.06944449999999946
                },
                {
                    "name": "D#6",
                    "midi": 87,
                    "time": 20.69446099999992,
                    "velocity": 0.3858267716535433,
                    "duration": 0.06944449999999946
                },
                {
                    "name": "F6",
                    "midi": 89,
                    "time": 20.763905499999918,
                    "velocity": 0.3858267716535433,
                    "duration": 0.06944449999999946
                },
                {
                    "name": "D#6",
                    "midi": 87,
                    "time": 20.833349999999918,
                    "velocity": 0.3858267716535433,
                    "duration": 0.06944449999999946
                },
                {
                    "name": "F6",
                    "midi": 89,
                    "time": 20.902794499999917,
                    "velocity": 0.3858267716535433,
                    "duration": 0.06944449999999946
                },
                {
                    "name": "D#6",
                    "midi": 87,
                    "time": 20.972238999999917,
                    "velocity": 0.3858267716535433,
                    "duration": 0.06944449999999946
                },
                {
                    "name": "F6",
                    "midi": 89,
                    "time": 21.041683499999916,
                    "velocity": 0.3858267716535433,
                    "duration": 0.06944449999999946
                },
                {
                    "name": "D#6",
                    "midi": 87,
                    "time": 21.111127999999916,
                    "velocity": 0.3858267716535433,
                    "duration": 0.06944449999999946
                },
                {
                    "name": "F6",
                    "midi": 89,
                    "time": 21.180572499999915,
                    "velocity": 0.3858267716535433,
                    "duration": 0.06944449999999946
                },
                {
                    "name": "D#6",
                    "midi": 87,
                    "time": 21.250016999999914,
                    "velocity": 0.3858267716535433,
                    "duration": 0.06944449999999946
                },
                {
                    "name": "F6",
                    "midi": 89,
                    "time": 21.319461499999914,
                    "velocity": 0.3858267716535433,
                    "duration": 0.06944449999999946
                },
                {
                    "name": "D#6",
                    "midi": 87,
                    "time": 21.388905999999913,
                    "velocity": 0.3858267716535433,
                    "duration": 0.06944449999999946
                },
                {
                    "name": "F6",
                    "midi": 89,
                    "time": 21.458350499999913,
                    "velocity": 0.3858267716535433,
                    "duration": 0.06944449999999946
                },
                {
                    "name": "D#6",
                    "midi": 87,
                    "time": 21.527794999999912,
                    "velocity": 0.3858267716535433,
                    "duration": 0.06944449999999946
                },
                {
                    "name": "F6",
                    "midi": 89,
                    "time": 21.59723949999991,
                    "velocity": 0.3858267716535433,
                    "duration": 0.06944449999999946
                },
                {
                    "name": "D#6",
                    "midi": 87,
                    "time": 21.66668399999991,
                    "velocity": 0.3858267716535433,
                    "duration": 0.06944449999999946
                },
                {
                    "name": "F6",
                    "midi": 89,
                    "time": 21.73612849999991,
                    "velocity": 0.3858267716535433,
                    "duration": 0.06944449999999946
                },
                {
                    "name": "D#6",
                    "midi": 87,
                    "time": 21.80557299999991,
                    "velocity": 0.3858267716535433,
                    "duration": 0.06944449999999946
                },
                {
                    "name": "F6",
                    "midi": 89,
                    "time": 21.87501749999991,
                    "velocity": 0.3858267716535433,
                    "duration": 0.06944449999999946
                },
                {
                    "name": "D#6",
                    "midi": 87,
                    "time": 21.94446199999991,
                    "velocity": 0.3858267716535433,
                    "duration": 0.06944449999999946
                },
                {
                    "name": "F6",
                    "midi": 89,
                    "time": 22.01390649999991,
                    "velocity": 0.3858267716535433,
                    "duration": 0.06944449999999946
                },
                {
                    "name": "D#6",
                    "midi": 87,
                    "time": 22.083350999999908,
                    "velocity": 0.3858267716535433,
                    "duration": 0.06944449999999946
                },
                {
                    "name": "F6",
                    "midi": 89,
                    "time": 22.152795499999907,
                    "velocity": 0.3858267716535433,
                    "duration": 0.06944449999999946
                },
                {
                    "name": "D#6",
                    "midi": 87,
                    "time": 22.222239999999907,
                    "velocity": 0.3858267716535433,
                    "duration": 0.06944449999999946
                },
                {
                    "name": "F6",
                    "midi": 89,
                    "time": 22.291684499999906,
                    "velocity": 0.3858267716535433,
                    "duration": 0.06944449999999946
                },
                {
                    "name": "D#6",
                    "midi": 87,
                    "time": 22.361128999999906,
                    "velocity": 0.3858267716535433,
                    "duration": 0.06944449999999946
                },
                {
                    "name": "F6",
                    "midi": 89,
                    "time": 22.430573499999905,
                    "velocity": 0.3858267716535433,
                    "duration": 0.06944449999999946
                },
                {
                    "name": "D#6",
                    "midi": 87,
                    "time": 22.500017999999905,
                    "velocity": 0.3858267716535433,
                    "duration": 0.06944449999999946
                },
                {
                    "name": "F6",
                    "midi": 89,
                    "time": 22.569462499999904,
                    "velocity": 0.3858267716535433,
                    "duration": 0.06944449999999946
                },
                {
                    "name": "D#6",
                    "midi": 87,
                    "time": 22.638906999999904,
                    "velocity": 0.3858267716535433,
                    "duration": 0.06944449999999946
                },
                {
                    "name": "F6",
                    "midi": 89,
                    "time": 22.708351499999903,
                    "velocity": 0.3858267716535433,
                    "duration": 0.06944449999999946
                },
                {
                    "name": "D#6",
                    "midi": 87,
                    "time": 22.777795999999903,
                    "velocity": 0.3858267716535433,
                    "duration": 0.06944449999999946
                },
                {
                    "name": "F6",
                    "midi": 89,
                    "time": 22.847240499999902,
                    "velocity": 0.3858267716535433,
                    "duration": 0.06944449999999946
                },
                {
                    "name": "D#6",
                    "midi": 87,
                    "time": 22.9166849999999,
                    "velocity": 0.3858267716535433,
                    "duration": 0.06944449999999946
                },
                {
                    "name": "F6",
                    "midi": 89,
                    "time": 22.9861294999999,
                    "velocity": 0.3858267716535433,
                    "duration": 0.06944449999999946
                },
                {
                    "name": "D#6",
                    "midi": 87,
                    "time": 23.0555739999999,
                    "velocity": 0.3858267716535433,
                    "duration": 0.06944449999999946
                },
                {
                    "name": "F6",
                    "midi": 89,
                    "time": 23.1250184999999,
                    "velocity": 0.3858267716535433,
                    "duration": 0.06944449999999946
                },
                {
                    "name": "D#6",
                    "midi": 87,
                    "time": 23.1944629999999,
                    "velocity": 0.3858267716535433,
                    "duration": 0.06944449999999946
                },
                {
                    "name": "F6",
                    "midi": 89,
                    "time": 23.2639074999999,
                    "velocity": 0.3858267716535433,
                    "duration": 0.06944449999999946
                },
                {
                    "name": "D#6",
                    "midi": 87,
                    "time": 23.3333519999999,
                    "velocity": 0.3858267716535433,
                    "duration": 0.06944449999999946
                },
                {
                    "name": "F6",
                    "midi": 89,
                    "time": 23.402796499999898,
                    "velocity": 0.3858267716535433,
                    "duration": 0.06944449999999946
                },
                {
                    "name": "D#6",
                    "midi": 87,
                    "time": 23.472240999999897,
                    "velocity": 0.3858267716535433,
                    "duration": 0.06944449999999946
                },
                {
                    "name": "F6",
                    "midi": 89,
                    "time": 23.541685499999897,
                    "velocity": 0.3858267716535433,
                    "duration": 0.06944449999999946
                },
                {
                    "name": "D#6",
                    "midi": 87,
                    "time": 23.611129999999896,
                    "velocity": 0.3858267716535433,
                    "duration": 0.06944449999999946
                },
                {
                    "name": "F6",
                    "midi": 89,
                    "time": 23.680574499999896,
                    "velocity": 0.3858267716535433,
                    "duration": 0.06944449999999946
                },
                {
                    "name": "D#6",
                    "midi": 87,
                    "time": 23.750018999999895,
                    "velocity": 0.3858267716535433,
                    "duration": 0.06944449999999946
                },
                {
                    "name": "F6",
                    "midi": 89,
                    "time": 23.819463499999895,
                    "velocity": 0.3858267716535433,
                    "duration": 0.06944449999999946
                },
                {
                    "name": "D#6",
                    "midi": 87,
                    "time": 23.888907999999894,
                    "velocity": 0.3858267716535433,
                    "duration": 0.06944449999999946
                },
                {
                    "name": "F6",
                    "midi": 89,
                    "time": 23.958352499999894,
                    "velocity": 0.3858267716535433,
                    "duration": 0.06944449999999946
                },
                {
                    "name": "D#6",
                    "midi": 87,
                    "time": 24.027796999999893,
                    "velocity": 0.3858267716535433,
                    "duration": 0.06944449999999946
                },
                {
                    "name": "F6",
                    "midi": 89,
                    "time": 24.097241499999893,
                    "velocity": 0.3858267716535433,
                    "duration": 0.06944449999999946
                },
                {
                    "name": "D#6",
                    "midi": 87,
                    "time": 24.166685999999892,
                    "velocity": 0.3858267716535433,
                    "duration": 0.06944449999999946
                },
                {
                    "name": "F6",
                    "midi": 89,
                    "time": 24.23613049999989,
                    "velocity": 0.3858267716535433,
                    "duration": 0.06944449999999946
                },
                {
                    "name": "D#6",
                    "midi": 87,
                    "time": 24.30557499999989,
                    "velocity": 0.3858267716535433,
                    "duration": 0.06944449999999946
                },
                {
                    "name": "F6",
                    "midi": 89,
                    "time": 24.37501949999989,
                    "velocity": 0.3858267716535433,
                    "duration": 0.06944449999999946
                },
                {
                    "name": "F#3",
                    "midi": 54,
                    "time": 25.00001999999989,
                    "velocity": 0.5905511811023622,
                    "duration": 0.5555559999999993
                },
                {
                    "name": "A#3",
                    "midi": 58,
                    "time": 25.00001999999989,
                    "velocity": 0.5905511811023622,
                    "duration": 0.5555559999999993
                },
                {
                    "name": "F4",
                    "midi": 65,
                    "time": 25.00001999999989,
                    "velocity": 0.5905511811023622,
                    "duration": 0.5555559999999993
                },
                {
                    "name": "F#3",
                    "midi": 54,
                    "time": 25.55557599999989,
                    "velocity": 0.5905511811023622,
                    "duration": 0.5555559999999993
                },
                {
                    "name": "A#3",
                    "midi": 58,
                    "time": 25.55557599999989,
                    "velocity": 0.5905511811023622,
                    "duration": 0.5555559999999993
                },
                {
                    "name": "F4",
                    "midi": 65,
                    "time": 25.55557599999989,
                    "velocity": 0.5905511811023622,
                    "duration": 0.5555559999999993
                },
                {
                    "name": "F#3",
                    "midi": 54,
                    "time": 26.111131999999888,
                    "velocity": 0.5905511811023622,
                    "duration": 0.5555559999999993
                },
                {
                    "name": "A#3",
                    "midi": 58,
                    "time": 26.111131999999888,
                    "velocity": 0.5905511811023622,
                    "duration": 0.5555559999999993
                },
                {
                    "name": "F4",
                    "midi": 65,
                    "time": 26.111131999999888,
                    "velocity": 0.5905511811023622,
                    "duration": 0.5555559999999993
                },
                {
                    "name": "F#3",
                    "midi": 54,
                    "time": 27.222243999999886,
                    "velocity": 0.5905511811023622,
                    "duration": 0.5555559999999993
                },
                {
                    "name": "A#3",
                    "midi": 58,
                    "time": 27.222243999999886,
                    "velocity": 0.5905511811023622,
                    "duration": 0.5555559999999993
                },
                {
                    "name": "F4",
                    "midi": 65,
                    "time": 27.222243999999886,
                    "velocity": 0.5905511811023622,
                    "duration": 0.5555559999999993
                },
                {
                    "name": "F#3",
                    "midi": 54,
                    "time": 27.777799999999885,
                    "velocity": 0.5905511811023622,
                    "duration": 0.5555559999999993
                },
                {
                    "name": "A#3",
                    "midi": 58,
                    "time": 27.777799999999885,
                    "velocity": 0.5905511811023622,
                    "duration": 0.5555559999999993
                },
                {
                    "name": "F4",
                    "midi": 65,
                    "time": 27.777799999999885,
                    "velocity": 0.5905511811023622,
                    "duration": 0.5555559999999993
                },
                {
                    "name": "F#3",
                    "midi": 54,
                    "time": 28.333355999999885,
                    "velocity": 0.5905511811023622,
                    "duration": 0.5555559999999993
                },
                {
                    "name": "A#3",
                    "midi": 58,
                    "time": 28.333355999999885,
                    "velocity": 0.5905511811023622,
                    "duration": 0.5555559999999993
                },
                {
                    "name": "F4",
                    "midi": 65,
                    "time": 28.333355999999885,
                    "velocity": 0.5905511811023622,
                    "duration": 0.5555559999999993
                },
                {
                    "name": "F#3",
                    "midi": 54,
                    "time": 29.444467999999883,
                    "velocity": 0.5905511811023622,
                    "duration": 0.5555559999999993
                },
                {
                    "name": "A#3",
                    "midi": 58,
                    "time": 29.444467999999883,
                    "velocity": 0.5905511811023622,
                    "duration": 0.5555559999999993
                },
                {
                    "name": "F4",
                    "midi": 65,
                    "time": 29.444467999999883,
                    "velocity": 0.5905511811023622,
                    "duration": 0.5555559999999993
                },
                {
                    "name": "F#3",
                    "midi": 54,
                    "time": 30.000023999999883,
                    "velocity": 0.5905511811023622,
                    "duration": 0.5555559999999993
                },
                {
                    "name": "A#3",
                    "midi": 58,
                    "time": 30.000023999999883,
                    "velocity": 0.5905511811023622,
                    "duration": 0.5555559999999993
                },
                {
                    "name": "F4",
                    "midi": 65,
                    "time": 30.000023999999883,
                    "velocity": 0.5905511811023622,
                    "duration": 0.5555559999999993
                },
                {
                    "name": "F#3",
                    "midi": 54,
                    "time": 30.555579999999882,
                    "velocity": 0.5905511811023622,
                    "duration": 0.5555559999999993
                },
                {
                    "name": "A#3",
                    "midi": 58,
                    "time": 30.555579999999882,
                    "velocity": 0.5905511811023622,
                    "duration": 0.5555559999999993
                },
                {
                    "name": "F4",
                    "midi": 65,
                    "time": 30.555579999999882,
                    "velocity": 0.5905511811023622,
                    "duration": 0.5555559999999993
                },
                {
                    "name": "F4",
                    "midi": 65,
                    "time": 31.388913999999883,
                    "velocity": 0.4881889763779528,
                    "duration": 0.2777780000000014
                },
                {
                    "name": "C5",
                    "midi": 72,
                    "time": 31.388913999999883,
                    "velocity": 0.4881889763779528,
                    "duration": 0.2777780000000014
                },
                {
                    "name": "C#5",
                    "midi": 73,
                    "time": 31.388913999999883,
                    "velocity": 0.4881889763779528,
                    "duration": 0.2777780000000014
                },
                {
                    "name": "F5",
                    "midi": 77,
                    "time": 31.388913999999883,
                    "velocity": 0.4881889763779528,
                    "duration": 0.2777780000000014
                },
                {
                    "name": "G4",
                    "midi": 67,
                    "time": 31.666691999999884,
                    "velocity": 0.4881889763779528,
                    "duration": 0.27777799999999786
                },
                {
                    "name": "C5",
                    "midi": 72,
                    "time": 31.666691999999884,
                    "velocity": 0.4881889763779528,
                    "duration": 0.27777799999999786
                },
                {
                    "name": "D#5",
                    "midi": 75,
                    "time": 31.666691999999884,
                    "velocity": 0.4881889763779528,
                    "duration": 0.27777799999999786
                },
                {
                    "name": "G5",
                    "midi": 79,
                    "time": 31.666691999999884,
                    "velocity": 0.4881889763779528,
                    "duration": 0.27777799999999786
                },
                {
                    "name": "G5",
                    "midi": 79,
                    "time": 31.875025499999882,
                    "velocity": 0.4881889763779528,
                    "duration": 0.06944449999999946
                },
                {
                    "name": "A#4",
                    "midi": 70,
                    "time": 31.944469999999882,
                    "velocity": 0.4881889763779528,
                    "duration": 0.27777800000000497
                },
                {
                    "name": "C#5",
                    "midi": 73,
                    "time": 31.944469999999882,
                    "velocity": 0.4881889763779528,
                    "duration": 0.27777800000000497
                },
                {
                    "name": "A#5",
                    "midi": 82,
                    "time": 31.944469999999882,
                    "velocity": 0.4881889763779528,
                    "duration": 0.27777800000000497
                },
                {
                    "name": "A#5",
                    "midi": 82,
                    "time": 32.152803499999884,
                    "velocity": 0.4881889763779528,
                    "duration": 0.06944450000000302
                },
                {
                    "name": "A#4",
                    "midi": 70,
                    "time": 32.22224799999989,
                    "velocity": 0.4881889763779528,
                    "duration": 0.27777799999999786
                },
                {
                    "name": "D#5",
                    "midi": 75,
                    "time": 32.22224799999989,
                    "velocity": 0.4881889763779528,
                    "duration": 0.27777799999999786
                },
                {
                    "name": "G#5",
                    "midi": 80,
                    "time": 32.22224799999989,
                    "velocity": 0.4881889763779528,
                    "duration": 0.27777799999999786
                },
                {
                    "name": "G4",
                    "midi": 67,
                    "time": 32.500025999999885,
                    "velocity": 0.4881889763779528,
                    "duration": 0.27777799999999786
                },
                {
                    "name": "C5",
                    "midi": 72,
                    "time": 32.500025999999885,
                    "velocity": 0.4881889763779528,
                    "duration": 0.27777799999999786
                },
                {
                    "name": "C#5",
                    "midi": 73,
                    "time": 32.500025999999885,
                    "velocity": 0.4881889763779528,
                    "duration": 0.27777799999999786
                },
                {
                    "name": "G5",
                    "midi": 79,
                    "time": 32.500025999999885,
                    "velocity": 0.4881889763779528,
                    "duration": 0.27777799999999786
                },
                {
                    "name": "F4",
                    "midi": 65,
                    "time": 32.77780399999988,
                    "velocity": 0.4881889763779528,
                    "duration": 0.27777800000000497
                },
                {
                    "name": "A#4",
                    "midi": 70,
                    "time": 32.77780399999988,
                    "velocity": 0.4881889763779528,
                    "duration": 0.27777800000000497
                },
                {
                    "name": "D#5",
                    "midi": 75,
                    "time": 32.77780399999988,
                    "velocity": 0.4881889763779528,
                    "duration": 0.27777800000000497
                },
                {
                    "name": "F5",
                    "midi": 77,
                    "time": 32.77780399999988,
                    "velocity": 0.4881889763779528,
                    "duration": 0.27777800000000497
                },
                {
                    "name": "C#5",
                    "midi": 73,
                    "time": 32.986137499999884,
                    "velocity": 0.4881889763779528,
                    "duration": 0.06944450000000302
                },
                {
                    "name": "F4",
                    "midi": 65,
                    "time": 33.05558199999989,
                    "velocity": 0.4881889763779528,
                    "duration": 0.27777799999999786
                },
                {
                    "name": "A#4",
                    "midi": 70,
                    "time": 33.05558199999989,
                    "velocity": 0.4881889763779528,
                    "duration": 0.27777799999999786
                },
                {
                    "name": "D#5",
                    "midi": 75,
                    "time": 33.05558199999989,
                    "velocity": 0.4881889763779528,
                    "duration": 0.27777799999999786
                },
                {
                    "name": "F#3",
                    "midi": 54,
                    "time": 33.88891599999989,
                    "velocity": 0.6929133858267716,
                    "duration": 0.5555560000000028
                },
                {
                    "name": "A#3",
                    "midi": 58,
                    "time": 33.88891599999989,
                    "velocity": 0.6929133858267716,
                    "duration": 0.5555560000000028
                },
                {
                    "name": "F4",
                    "midi": 65,
                    "time": 33.88891599999989,
                    "velocity": 0.6929133858267716,
                    "duration": 0.5555560000000028
                },
                {
                    "name": "F#3",
                    "midi": 54,
                    "time": 34.44447199999989,
                    "velocity": 0.6929133858267716,
                    "duration": 0.5555560000000028
                },
                {
                    "name": "A#3",
                    "midi": 58,
                    "time": 34.44447199999989,
                    "velocity": 0.6929133858267716,
                    "duration": 0.5555560000000028
                },
                {
                    "name": "F4",
                    "midi": 65,
                    "time": 34.44447199999989,
                    "velocity": 0.6929133858267716,
                    "duration": 0.5555560000000028
                },
                {
                    "name": "F#3",
                    "midi": 54,
                    "time": 35.000027999999894,
                    "velocity": 0.6929133858267716,
                    "duration": 0.5555560000000028
                },
                {
                    "name": "A#3",
                    "midi": 58,
                    "time": 35.000027999999894,
                    "velocity": 0.6929133858267716,
                    "duration": 0.5555560000000028
                },
                {
                    "name": "F4",
                    "midi": 65,
                    "time": 35.000027999999894,
                    "velocity": 0.6929133858267716,
                    "duration": 0.5555560000000028
                },
                {
                    "name": "F#3",
                    "midi": 54,
                    "time": 36.1111399999999,
                    "velocity": 0.6929133858267716,
                    "duration": 0.5555560000000028
                },
                {
                    "name": "A#3",
                    "midi": 58,
                    "time": 36.1111399999999,
                    "velocity": 0.6929133858267716,
                    "duration": 0.5555560000000028
                },
                {
                    "name": "F4",
                    "midi": 65,
                    "time": 36.1111399999999,
                    "velocity": 0.6929133858267716,
                    "duration": 0.5555560000000028
                },
                {
                    "name": "F#3",
                    "midi": 54,
                    "time": 36.6666959999999,
                    "velocity": 0.6929133858267716,
                    "duration": 0.5555560000000028
                },
                {
                    "name": "A#3",
                    "midi": 58,
                    "time": 36.6666959999999,
                    "velocity": 0.6929133858267716,
                    "duration": 0.5555560000000028
                },
                {
                    "name": "F4",
                    "midi": 65,
                    "time": 36.6666959999999,
                    "velocity": 0.6929133858267716,
                    "duration": 0.5555560000000028
                },
                {
                    "name": "F#3",
                    "midi": 54,
                    "time": 37.222251999999905,
                    "velocity": 0.6929133858267716,
                    "duration": 0.5555560000000028
                },
                {
                    "name": "A#3",
                    "midi": 58,
                    "time": 37.222251999999905,
                    "velocity": 0.6929133858267716,
                    "duration": 0.5555560000000028
                },
                {
                    "name": "F4",
                    "midi": 65,
                    "time": 37.222251999999905,
                    "velocity": 0.6929133858267716,
                    "duration": 0.5555560000000028
                },
                {
                    "name": "F4",
                    "midi": 65,
                    "time": 38.055585999999906,
                    "velocity": 0.4881889763779528,
                    "duration": 0.27777799999999786
                },
                {
                    "name": "C5",
                    "midi": 72,
                    "time": 38.055585999999906,
                    "velocity": 0.4881889763779528,
                    "duration": 0.27777799999999786
                },
                {
                    "name": "C#5",
                    "midi": 73,
                    "time": 38.055585999999906,
                    "velocity": 0.4881889763779528,
                    "duration": 0.27777799999999786
                },
                {
                    "name": "F5",
                    "midi": 77,
                    "time": 38.055585999999906,
                    "velocity": 0.4881889763779528,
                    "duration": 0.27777799999999786
                },
                {
                    "name": "G4",
                    "midi": 67,
                    "time": 38.333363999999904,
                    "velocity": 0.4881889763779528,
                    "duration": 0.27777800000000497
                },
                {
                    "name": "C5",
                    "midi": 72,
                    "time": 38.333363999999904,
                    "velocity": 0.4881889763779528,
                    "duration": 0.27777800000000497
                },
                {
                    "name": "D#5",
                    "midi": 75,
                    "time": 38.333363999999904,
                    "velocity": 0.4881889763779528,
                    "duration": 0.27777800000000497
                },
                {
                    "name": "G5",
                    "midi": 79,
                    "time": 38.333363999999904,
                    "velocity": 0.4881889763779528,
                    "duration": 0.27777800000000497
                },
                {
                    "name": "G5",
                    "midi": 79,
                    "time": 38.541697499999906,
                    "velocity": 0.4881889763779528,
                    "duration": 0.06944450000000302
                },
                {
                    "name": "A#4",
                    "midi": 70,
                    "time": 38.61114199999991,
                    "velocity": 0.4881889763779528,
                    "duration": 0.27777800000000497
                },
                {
                    "name": "C#5",
                    "midi": 73,
                    "time": 38.61114199999991,
                    "velocity": 0.4881889763779528,
                    "duration": 0.27777800000000497
                },
                {
                    "name": "A#5",
                    "midi": 82,
                    "time": 38.61114199999991,
                    "velocity": 0.4881889763779528,
                    "duration": 0.27777800000000497
                },
                {
                    "name": "A#5",
                    "midi": 82,
                    "time": 38.81947549999991,
                    "velocity": 0.4881889763779528,
                    "duration": 0.06944450000000302
                },
                {
                    "name": "A#4",
                    "midi": 70,
                    "time": 38.888919999999914,
                    "velocity": 0.4881889763779528,
                    "duration": 0.27777799999999786
                },
                {
                    "name": "D#5",
                    "midi": 75,
                    "time": 38.888919999999914,
                    "velocity": 0.4881889763779528,
                    "duration": 0.27777799999999786
                },
                {
                    "name": "G#5",
                    "midi": 80,
                    "time": 38.888919999999914,
                    "velocity": 0.4881889763779528,
                    "duration": 0.27777799999999786
                },
                {
                    "name": "G4",
                    "midi": 67,
                    "time": 39.16669799999991,
                    "velocity": 0.4881889763779528,
                    "duration": 0.27777799999999786
                },
                {
                    "name": "C5",
                    "midi": 72,
                    "time": 39.16669799999991,
                    "velocity": 0.4881889763779528,
                    "duration": 0.27777799999999786
                },
                {
                    "name": "C#5",
                    "midi": 73,
                    "time": 39.16669799999991,
                    "velocity": 0.4881889763779528,
                    "duration": 0.27777799999999786
                },
                {
                    "name": "G5",
                    "midi": 79,
                    "time": 39.16669799999991,
                    "velocity": 0.4881889763779528,
                    "duration": 0.27777799999999786
                },
                {
                    "name": "F4",
                    "midi": 65,
                    "time": 39.44447599999991,
                    "velocity": 0.4881889763779528,
                    "duration": 0.27777800000000497
                },
                {
                    "name": "A#4",
                    "midi": 70,
                    "time": 39.44447599999991,
                    "velocity": 0.4881889763779528,
                    "duration": 0.27777800000000497
                },
                {
                    "name": "D#5",
                    "midi": 75,
                    "time": 39.44447599999991,
                    "velocity": 0.4881889763779528,
                    "duration": 0.27777800000000497
                },
                {
                    "name": "F5",
                    "midi": 77,
                    "time": 39.44447599999991,
                    "velocity": 0.4881889763779528,
                    "duration": 0.27777800000000497
                },
                {
                    "name": "C#5",
                    "midi": 73,
                    "time": 39.65280949999991,
                    "velocity": 0.4881889763779528,
                    "duration": 0.06944450000000302
                },
                {
                    "name": "F4",
                    "midi": 65,
                    "time": 39.722253999999914,
                    "velocity": 0.4881889763779528,
                    "duration": 0.27777799999999786
                },
                {
                    "name": "A#4",
                    "midi": 70,
                    "time": 39.722253999999914,
                    "velocity": 0.4881889763779528,
                    "duration": 0.27777799999999786
                },
                {
                    "name": "D#5",
                    "midi": 75,
                    "time": 39.722253999999914,
                    "velocity": 0.4881889763779528,
                    "duration": 0.27777799999999786
                },
                {
                    "name": "F4",
                    "midi": 65,
                    "time": 40.00003199999991,
                    "velocity": 0.4881889763779528,
                    "duration": 0.27777799999999786
                },
                {
                    "name": "A#4",
                    "midi": 70,
                    "time": 40.00003199999991,
                    "velocity": 0.4881889763779528,
                    "duration": 0.27777799999999786
                },
                {
                    "name": "D#5",
                    "midi": 75,
                    "time": 40.00003199999991,
                    "velocity": 0.4881889763779528,
                    "duration": 0.27777799999999786
                },
                {
                    "name": "F5",
                    "midi": 77,
                    "time": 40.00003199999991,
                    "velocity": 0.4881889763779528,
                    "duration": 0.27777799999999786
                },
                {
                    "name": "G4",
                    "midi": 67,
                    "time": 40.27780999999991,
                    "velocity": 0.4881889763779528,
                    "duration": 0.27777800000000497
                },
                {
                    "name": "C5",
                    "midi": 72,
                    "time": 40.27780999999991,
                    "velocity": 0.4881889763779528,
                    "duration": 0.27777800000000497
                },
                {
                    "name": "C#5",
                    "midi": 73,
                    "time": 40.27780999999991,
                    "velocity": 0.4881889763779528,
                    "duration": 0.27777800000000497
                },
                {
                    "name": "G5",
                    "midi": 79,
                    "time": 40.27780999999991,
                    "velocity": 0.4881889763779528,
                    "duration": 0.27777800000000497
                },
                {
                    "name": "A#5",
                    "midi": 82,
                    "time": 40.48614349999991,
                    "velocity": 0.4881889763779528,
                    "duration": 0.06944450000000302
                },
                {
                    "name": "A#4",
                    "midi": 70,
                    "time": 40.555587999999915,
                    "velocity": 0.4881889763779528,
                    "duration": 0.27777799999999786
                },
                {
                    "name": "D#5",
                    "midi": 75,
                    "time": 40.555587999999915,
                    "velocity": 0.4881889763779528,
                    "duration": 0.27777799999999786
                },
                {
                    "name": "G#5",
                    "midi": 80,
                    "time": 40.555587999999915,
                    "velocity": 0.4881889763779528,
                    "duration": 0.27777799999999786
                },
                {
                    "name": "G4",
                    "midi": 67,
                    "time": 40.83336599999991,
                    "velocity": 0.4881889763779528,
                    "duration": 0.27777799999999786
                },
                {
                    "name": "C5",
                    "midi": 72,
                    "time": 40.83336599999991,
                    "velocity": 0.4881889763779528,
                    "duration": 0.27777799999999786
                },
                {
                    "name": "C#5",
                    "midi": 73,
                    "time": 40.83336599999991,
                    "velocity": 0.4881889763779528,
                    "duration": 0.27777799999999786
                },
                {
                    "name": "G5",
                    "midi": 79,
                    "time": 40.83336599999991,
                    "velocity": 0.4881889763779528,
                    "duration": 0.27777799999999786
                },
                {
                    "name": "F4",
                    "midi": 65,
                    "time": 41.11114399999991,
                    "velocity": 0.4881889763779528,
                    "duration": 0.27777800000000497
                },
                {
                    "name": "A#4",
                    "midi": 70,
                    "time": 41.11114399999991,
                    "velocity": 0.4881889763779528,
                    "duration": 0.27777800000000497
                },
                {
                    "name": "D#5",
                    "midi": 75,
                    "time": 41.11114399999991,
                    "velocity": 0.4881889763779528,
                    "duration": 0.27777800000000497
                },
                {
                    "name": "F5",
                    "midi": 77,
                    "time": 41.11114399999991,
                    "velocity": 0.4881889763779528,
                    "duration": 0.27777800000000497
                },
                {
                    "name": "C#5",
                    "midi": 73,
                    "time": 41.31947749999991,
                    "velocity": 0.4881889763779528,
                    "duration": 0.06944450000000302
                },
                {
                    "name": "F4",
                    "midi": 65,
                    "time": 41.388921999999916,
                    "velocity": 0.4881889763779528,
                    "duration": 0.27777799999999786
                },
                {
                    "name": "A#4",
                    "midi": 70,
                    "time": 41.388921999999916,
                    "velocity": 0.4881889763779528,
                    "duration": 0.27777799999999786
                },
                {
                    "name": "D#5",
                    "midi": 75,
                    "time": 41.388921999999916,
                    "velocity": 0.4881889763779528,
                    "duration": 0.27777799999999786
                },
                {
                    "name": "F4",
                    "midi": 65,
                    "time": 41.66669999999991,
                    "velocity": 0.4881889763779528,
                    "duration": 0.05439819166666382
                },
                {
                    "name": "A#4",
                    "midi": 70,
                    "time": 41.66669999999991,
                    "velocity": 0.4881889763779528,
                    "duration": 0.05439819166666382
                },
                {
                    "name": "C5",
                    "midi": 72,
                    "time": 41.66669999999991,
                    "velocity": 0.4881889763779528,
                    "duration": 0.05439819166666382
                },
                {
                    "name": "D#5",
                    "midi": 75,
                    "time": 41.66669999999991,
                    "velocity": 0.4881889763779528,
                    "duration": 0.05439819166666382
                },
                {
                    "name": "F5",
                    "midi": 77,
                    "time": 41.66669999999991,
                    "velocity": 0.4881889763779528,
                    "duration": 0.05439819166666382
                },
                {
                    "name": "F#3",
                    "midi": 54,
                    "time": 42.22225599999991,
                    "velocity": 0.5905511811023622,
                    "duration": 0.5555560000000028
                },
                {
                    "name": "A#3",
                    "midi": 58,
                    "time": 42.22225599999991,
                    "velocity": 0.5905511811023622,
                    "duration": 0.5555560000000028
                },
                {
                    "name": "F4",
                    "midi": 65,
                    "time": 42.22225599999991,
                    "velocity": 0.5905511811023622,
                    "duration": 0.5555560000000028
                },
                {
                    "name": "F#3",
                    "midi": 54,
                    "time": 42.77781199999991,
                    "velocity": 0.5905511811023622,
                    "duration": 0.5555560000000028
                },
                {
                    "name": "A#3",
                    "midi": 58,
                    "time": 42.77781199999991,
                    "velocity": 0.5905511811023622,
                    "duration": 0.5555560000000028
                },
                {
                    "name": "F4",
                    "midi": 65,
                    "time": 42.77781199999991,
                    "velocity": 0.5905511811023622,
                    "duration": 0.5555560000000028
                },
                {
                    "name": "F#3",
                    "midi": 54,
                    "time": 43.333367999999915,
                    "velocity": 0.5905511811023622,
                    "duration": 0.5555560000000028
                },
                {
                    "name": "A#3",
                    "midi": 58,
                    "time": 43.333367999999915,
                    "velocity": 0.5905511811023622,
                    "duration": 0.5555560000000028
                },
                {
                    "name": "F4",
                    "midi": 65,
                    "time": 43.333367999999915,
                    "velocity": 0.5905511811023622,
                    "duration": 0.5555560000000028
                },
                {
                    "name": "F#3",
                    "midi": 54,
                    "time": 44.44447999999992,
                    "velocity": 0.5905511811023622,
                    "duration": 0.5555560000000028
                },
                {
                    "name": "A#3",
                    "midi": 58,
                    "time": 44.44447999999992,
                    "velocity": 0.5905511811023622,
                    "duration": 0.5555560000000028
                },
                {
                    "name": "F4",
                    "midi": 65,
                    "time": 44.44447999999992,
                    "velocity": 0.5905511811023622,
                    "duration": 0.5555560000000028
                },
                {
                    "name": "F#3",
                    "midi": 54,
                    "time": 45.00003599999992,
                    "velocity": 0.5905511811023622,
                    "duration": 0.5555560000000028
                },
                {
                    "name": "A#3",
                    "midi": 58,
                    "time": 45.00003599999992,
                    "velocity": 0.5905511811023622,
                    "duration": 0.5555560000000028
                },
                {
                    "name": "F4",
                    "midi": 65,
                    "time": 45.00003599999992,
                    "velocity": 0.5905511811023622,
                    "duration": 0.5555560000000028
                },
                {
                    "name": "F#3",
                    "midi": 54,
                    "time": 45.555591999999926,
                    "velocity": 0.5905511811023622,
                    "duration": 0.5555560000000028
                },
                {
                    "name": "A#3",
                    "midi": 58,
                    "time": 45.555591999999926,
                    "velocity": 0.5905511811023622,
                    "duration": 0.5555560000000028
                },
                {
                    "name": "F4",
                    "midi": 65,
                    "time": 45.555591999999926,
                    "velocity": 0.5905511811023622,
                    "duration": 0.5555560000000028
                },
                {
                    "name": "A#3",
                    "midi": 58,
                    "time": 46.66670399999993,
                    "velocity": 0.6929133858267716,
                    "duration": 0.5555560000000028
                },
                {
                    "name": "F4",
                    "midi": 65,
                    "time": 46.66670399999993,
                    "velocity": 0.6929133858267716,
                    "duration": 0.5555560000000028
                },
                {
                    "name": "F#4",
                    "midi": 66,
                    "time": 46.66670399999993,
                    "velocity": 0.6929133858267716,
                    "duration": 0.5555560000000028
                },
                {
                    "name": "A#4",
                    "midi": 70,
                    "time": 46.66670399999993,
                    "velocity": 0.6929133858267716,
                    "duration": 0.5555560000000028
                },
                {
                    "name": "A#3",
                    "midi": 58,
                    "time": 47.222259999999935,
                    "velocity": 0.6929133858267716,
                    "duration": 0.5555560000000028
                },
                {
                    "name": "F4",
                    "midi": 65,
                    "time": 47.222259999999935,
                    "velocity": 0.6929133858267716,
                    "duration": 0.5555560000000028
                },
                {
                    "name": "F#4",
                    "midi": 66,
                    "time": 47.222259999999935,
                    "velocity": 0.6929133858267716,
                    "duration": 0.5555560000000028
                },
                {
                    "name": "A#4",
                    "midi": 70,
                    "time": 47.222259999999935,
                    "velocity": 0.6929133858267716,
                    "duration": 0.5555560000000028
                },
                {
                    "name": "A#3",
                    "midi": 58,
                    "time": 47.77781599999994,
                    "velocity": 0.6929133858267716,
                    "duration": 0.5555560000000028
                },
                {
                    "name": "F4",
                    "midi": 65,
                    "time": 47.77781599999994,
                    "velocity": 0.6929133858267716,
                    "duration": 0.5555560000000028
                },
                {
                    "name": "F#4",
                    "midi": 66,
                    "time": 47.77781599999994,
                    "velocity": 0.6929133858267716,
                    "duration": 0.5555560000000028
                },
                {
                    "name": "A#4",
                    "midi": 70,
                    "time": 47.77781599999994,
                    "velocity": 0.6929133858267716,
                    "duration": 0.5555560000000028
                },
                {
                    "name": "C4",
                    "midi": 60,
                    "time": 48.33337199999994,
                    "velocity": 0.5905511811023622,
                    "duration": 0.27777799999999786
                },
                {
                    "name": "F#4",
                    "midi": 66,
                    "time": 48.33337199999994,
                    "velocity": 0.5905511811023622,
                    "duration": 0.27777799999999786
                },
                {
                    "name": "G#4",
                    "midi": 68,
                    "time": 48.33337199999994,
                    "velocity": 0.5905511811023622,
                    "duration": 0.27777799999999786
                },
                {
                    "name": "C5",
                    "midi": 72,
                    "time": 48.33337199999994,
                    "velocity": 0.5905511811023622,
                    "duration": 0.27777799999999786
                },
                {
                    "name": "C#4",
                    "midi": 61,
                    "time": 48.61114999999994,
                    "velocity": 0.5905511811023622,
                    "duration": 0.27777799999999786
                },
                {
                    "name": "G#4",
                    "midi": 68,
                    "time": 48.61114999999994,
                    "velocity": 0.5905511811023622,
                    "duration": 0.27777799999999786
                },
                {
                    "name": "A#4",
                    "midi": 70,
                    "time": 48.61114999999994,
                    "velocity": 0.5905511811023622,
                    "duration": 0.27777799999999786
                },
                {
                    "name": "C#5",
                    "midi": 73,
                    "time": 48.61114999999994,
                    "velocity": 0.5905511811023622,
                    "duration": 0.27777799999999786
                },
                {
                    "name": "D#4",
                    "midi": 63,
                    "time": 48.888927999999936,
                    "velocity": 0.6929133858267716,
                    "duration": 0.5555560000000028
                },
                {
                    "name": "A#4",
                    "midi": 70,
                    "time": 48.888927999999936,
                    "velocity": 0.6929133858267716,
                    "duration": 0.5555560000000028
                },
                {
                    "name": "C5",
                    "midi": 72,
                    "time": 48.888927999999936,
                    "velocity": 0.6929133858267716,
                    "duration": 0.5555560000000028
                },
                {
                    "name": "D#5",
                    "midi": 75,
                    "time": 48.888927999999936,
                    "velocity": 0.6929133858267716,
                    "duration": 0.5555560000000028
                },
                {
                    "name": "C#4",
                    "midi": 61,
                    "time": 49.44448399999994,
                    "velocity": 0.6929133858267716,
                    "duration": 0.5555560000000028
                },
                {
                    "name": "G#4",
                    "midi": 68,
                    "time": 49.44448399999994,
                    "velocity": 0.6929133858267716,
                    "duration": 0.5555560000000028
                },
                {
                    "name": "A#4",
                    "midi": 70,
                    "time": 49.44448399999994,
                    "velocity": 0.6929133858267716,
                    "duration": 0.5555560000000028
                },
                {
                    "name": "C#5",
                    "midi": 73,
                    "time": 49.44448399999994,
                    "velocity": 0.6929133858267716,
                    "duration": 0.5555560000000028
                },
                {
                    "name": "C4",
                    "midi": 60,
                    "time": 50.00003999999994,
                    "velocity": 0.5905511811023622,
                    "duration": 0.5555560000000028
                },
                {
                    "name": "F#4",
                    "midi": 66,
                    "time": 50.00003999999994,
                    "velocity": 0.5905511811023622,
                    "duration": 0.5555560000000028
                },
                {
                    "name": "G#4",
                    "midi": 68,
                    "time": 50.00003999999994,
                    "velocity": 0.5905511811023622,
                    "duration": 0.5555560000000028
                },
                {
                    "name": "C5",
                    "midi": 72,
                    "time": 50.00003999999994,
                    "velocity": 0.5905511811023622,
                    "duration": 0.5555560000000028
                },
                {
                    "name": "F#3",
                    "midi": 54,
                    "time": 51.11115199999995,
                    "velocity": 0.5905511811023622,
                    "duration": 0.5555560000000028
                },
                {
                    "name": "A#3",
                    "midi": 58,
                    "time": 51.11115199999995,
                    "velocity": 0.5905511811023622,
                    "duration": 0.5555560000000028
                },
                {
                    "name": "F4",
                    "midi": 65,
                    "time": 51.11115199999995,
                    "velocity": 0.5905511811023622,
                    "duration": 0.5555560000000028
                },
                {
                    "name": "F#3",
                    "midi": 54,
                    "time": 51.66670799999995,
                    "velocity": 0.5905511811023622,
                    "duration": 0.5555560000000028
                },
                {
                    "name": "A#3",
                    "midi": 58,
                    "time": 51.66670799999995,
                    "velocity": 0.5905511811023622,
                    "duration": 0.5555560000000028
                },
                {
                    "name": "F4",
                    "midi": 65,
                    "time": 51.66670799999995,
                    "velocity": 0.5905511811023622,
                    "duration": 0.5555560000000028
                },
                {
                    "name": "F#3",
                    "midi": 54,
                    "time": 52.22226399999995,
                    "velocity": 0.5905511811023622,
                    "duration": 0.5555560000000028
                },
                {
                    "name": "A#3",
                    "midi": 58,
                    "time": 52.22226399999995,
                    "velocity": 0.5905511811023622,
                    "duration": 0.5555560000000028
                },
                {
                    "name": "F4",
                    "midi": 65,
                    "time": 52.22226399999995,
                    "velocity": 0.5905511811023622,
                    "duration": 0.5555560000000028
                },
                {
                    "name": "C4",
                    "midi": 60,
                    "time": 52.777819999999956,
                    "velocity": 0.5905511811023622,
                    "duration": 0.27777799999999786
                },
                {
                    "name": "F#4",
                    "midi": 66,
                    "time": 52.777819999999956,
                    "velocity": 0.5905511811023622,
                    "duration": 0.27777799999999786
                },
                {
                    "name": "G#4",
                    "midi": 68,
                    "time": 52.777819999999956,
                    "velocity": 0.5905511811023622,
                    "duration": 0.27777799999999786
                },
                {
                    "name": "C5",
                    "midi": 72,
                    "time": 52.777819999999956,
                    "velocity": 0.5905511811023622,
                    "duration": 0.27777799999999786
                },
                {
                    "name": "C#4",
                    "midi": 61,
                    "time": 53.055597999999954,
                    "velocity": 0.5905511811023622,
                    "duration": 0.27777799999999786
                },
                {
                    "name": "G#4",
                    "midi": 68,
                    "time": 53.055597999999954,
                    "velocity": 0.5905511811023622,
                    "duration": 0.27777799999999786
                },
                {
                    "name": "A#4",
                    "midi": 70,
                    "time": 53.055597999999954,
                    "velocity": 0.5905511811023622,
                    "duration": 0.27777799999999786
                },
                {
                    "name": "C#5",
                    "midi": 73,
                    "time": 53.055597999999954,
                    "velocity": 0.5905511811023622,
                    "duration": 0.27777799999999786
                },
                {
                    "name": "D#4",
                    "midi": 63,
                    "time": 53.33337599999995,
                    "velocity": 0.6929133858267716,
                    "duration": 0.5555560000000028
                },
                {
                    "name": "A#4",
                    "midi": 70,
                    "time": 53.33337599999995,
                    "velocity": 0.6929133858267716,
                    "duration": 0.5555560000000028
                },
                {
                    "name": "C5",
                    "midi": 72,
                    "time": 53.33337599999995,
                    "velocity": 0.6929133858267716,
                    "duration": 0.5555560000000028
                },
                {
                    "name": "D#5",
                    "midi": 75,
                    "time": 53.33337599999995,
                    "velocity": 0.6929133858267716,
                    "duration": 0.5555560000000028
                },
                {
                    "name": "C#4",
                    "midi": 61,
                    "time": 53.888931999999954,
                    "velocity": 0.6929133858267716,
                    "duration": 0.5555560000000028
                },
                {
                    "name": "G#4",
                    "midi": 68,
                    "time": 53.888931999999954,
                    "velocity": 0.6929133858267716,
                    "duration": 0.5555560000000028
                },
                {
                    "name": "A#4",
                    "midi": 70,
                    "time": 53.888931999999954,
                    "velocity": 0.6929133858267716,
                    "duration": 0.5555560000000028
                },
                {
                    "name": "C#5",
                    "midi": 73,
                    "time": 53.888931999999954,
                    "velocity": 0.6929133858267716,
                    "duration": 0.5555560000000028
                },
                {
                    "name": "C4",
                    "midi": 60,
                    "time": 54.44448799999996,
                    "velocity": 0.5905511811023622,
                    "duration": 0.5555560000000028
                },
                {
                    "name": "F#4",
                    "midi": 66,
                    "time": 54.44448799999996,
                    "velocity": 0.5905511811023622,
                    "duration": 0.5555560000000028
                },
                {
                    "name": "G#4",
                    "midi": 68,
                    "time": 54.44448799999996,
                    "velocity": 0.5905511811023622,
                    "duration": 0.5555560000000028
                },
                {
                    "name": "C5",
                    "midi": 72,
                    "time": 54.44448799999996,
                    "velocity": 0.5905511811023622,
                    "duration": 0.5555560000000028
                },
                {
                    "name": "A#3",
                    "midi": 58,
                    "time": 55.00004399999996,
                    "velocity": 0.7952755905511811,
                    "duration": 0.5555560000000028
                },
                {
                    "name": "F4",
                    "midi": 65,
                    "time": 55.00004399999996,
                    "velocity": 0.7952755905511811,
                    "duration": 0.5555560000000028
                },
                {
                    "name": "F#4",
                    "midi": 66,
                    "time": 55.00004399999996,
                    "velocity": 0.7952755905511811,
                    "duration": 0.5555560000000028
                },
                {
                    "name": "A#4",
                    "midi": 70,
                    "time": 55.00004399999996,
                    "velocity": 0.7952755905511811,
                    "duration": 0.5555560000000028
                },
                {
                    "name": "A#3",
                    "midi": 58,
                    "time": 55.55559999999996,
                    "velocity": 0.7952755905511811,
                    "duration": 0.5555560000000028
                },
                {
                    "name": "F4",
                    "midi": 65,
                    "time": 55.55559999999996,
                    "velocity": 0.7952755905511811,
                    "duration": 0.5555560000000028
                },
                {
                    "name": "F#4",
                    "midi": 66,
                    "time": 55.55559999999996,
                    "velocity": 0.7952755905511811,
                    "duration": 0.5555560000000028
                },
                {
                    "name": "A#4",
                    "midi": 70,
                    "time": 55.55559999999996,
                    "velocity": 0.7952755905511811,
                    "duration": 0.5555560000000028
                },
                {
                    "name": "C4",
                    "midi": 60,
                    "time": 56.111155999999966,
                    "velocity": 0.5905511811023622,
                    "duration": 0.27777799999999786
                },
                {
                    "name": "F#4",
                    "midi": 66,
                    "time": 56.111155999999966,
                    "velocity": 0.5905511811023622,
                    "duration": 0.27777799999999786
                },
                {
                    "name": "G#4",
                    "midi": 68,
                    "time": 56.111155999999966,
                    "velocity": 0.5905511811023622,
                    "duration": 0.27777799999999786
                },
                {
                    "name": "C5",
                    "midi": 72,
                    "time": 56.111155999999966,
                    "velocity": 0.5905511811023622,
                    "duration": 0.27777799999999786
                },
                {
                    "name": "C#4",
                    "midi": 61,
                    "time": 56.38893399999996,
                    "velocity": 0.5905511811023622,
                    "duration": 0.27777799999999786
                },
                {
                    "name": "G#4",
                    "midi": 68,
                    "time": 56.38893399999996,
                    "velocity": 0.5905511811023622,
                    "duration": 0.27777799999999786
                },
                {
                    "name": "A#4",
                    "midi": 70,
                    "time": 56.38893399999996,
                    "velocity": 0.5905511811023622,
                    "duration": 0.27777799999999786
                },
                {
                    "name": "C#5",
                    "midi": 73,
                    "time": 56.38893399999996,
                    "velocity": 0.5905511811023622,
                    "duration": 0.27777799999999786
                },
                {
                    "name": "D#4",
                    "midi": 63,
                    "time": 56.66671199999996,
                    "velocity": 0.6929133858267716,
                    "duration": 0.5555560000000028
                },
                {
                    "name": "A#4",
                    "midi": 70,
                    "time": 56.66671199999996,
                    "velocity": 0.6929133858267716,
                    "duration": 0.5555560000000028
                },
                {
                    "name": "C5",
                    "midi": 72,
                    "time": 56.66671199999996,
                    "velocity": 0.6929133858267716,
                    "duration": 0.5555560000000028
                },
                {
                    "name": "D#5",
                    "midi": 75,
                    "time": 56.66671199999996,
                    "velocity": 0.6929133858267716,
                    "duration": 0.5555560000000028
                },
                {
                    "name": "F6",
                    "midi": 89,
                    "time": 57.77782399999997,
                    "velocity": 0.4881889763779528,
                    "duration": 0.06944450000000302
                },
                {
                    "name": "F#6",
                    "midi": 90,
                    "time": 57.84726849999997,
                    "velocity": 0.4881889763779528,
                    "duration": 0.06944450000000302
                },
                {
                    "name": "F6",
                    "midi": 89,
                    "time": 57.91671299999997,
                    "velocity": 0.4881889763779528,
                    "duration": 0.06944450000000302
                },
                {
                    "name": "F#6",
                    "midi": 90,
                    "time": 57.986157499999976,
                    "velocity": 0.4881889763779528,
                    "duration": 0.06944450000000302
                },
                {
                    "name": "F6",
                    "midi": 89,
                    "time": 58.05560199999998,
                    "velocity": 0.4881889763779528,
                    "duration": 0.06944450000000302
                },
                {
                    "name": "F#6",
                    "midi": 90,
                    "time": 58.12504649999998,
                    "velocity": 0.4881889763779528,
                    "duration": 0.06944450000000302
                },
                {
                    "name": "F6",
                    "midi": 89,
                    "time": 58.194490999999985,
                    "velocity": 0.4881889763779528,
                    "duration": 0.06944450000000302
                },
                {
                    "name": "F#6",
                    "midi": 90,
                    "time": 58.26393549999999,
                    "velocity": 0.4881889763779528,
                    "duration": 0.06944450000000302
                },
                {
                    "name": "F6",
                    "midi": 89,
                    "time": 58.33337999999999,
                    "velocity": 0.4881889763779528,
                    "duration": 0.06944450000000302
                },
                {
                    "name": "F#6",
                    "midi": 90,
                    "time": 58.402824499999994,
                    "velocity": 0.4881889763779528,
                    "duration": 0.06944450000000302
                },
                {
                    "name": "F6",
                    "midi": 89,
                    "time": 58.472269,
                    "velocity": 0.4881889763779528,
                    "duration": 0.06944450000000302
                },
                {
                    "name": "F#6",
                    "midi": 90,
                    "time": 58.5417135,
                    "velocity": 0.4881889763779528,
                    "duration": 0.06944450000000302
                },
                {
                    "name": "F6",
                    "midi": 89,
                    "time": 58.611158,
                    "velocity": 0.4881889763779528,
                    "duration": 0.06944450000000302
                },
                {
                    "name": "F#6",
                    "midi": 90,
                    "time": 58.680602500000006,
                    "velocity": 0.4881889763779528,
                    "duration": 0.06944450000000302
                },
                {
                    "name": "F6",
                    "midi": 89,
                    "time": 58.75004700000001,
                    "velocity": 0.4881889763779528,
                    "duration": 0.06944450000000302
                },
                {
                    "name": "F#6",
                    "midi": 90,
                    "time": 58.81949150000001,
                    "velocity": 0.4881889763779528,
                    "duration": 0.06944450000000302
                },
                {
                    "name": "F6",
                    "midi": 89,
                    "time": 58.888936000000015,
                    "velocity": 0.4881889763779528,
                    "duration": 0.27777799999999786
                },
                {
                    "name": "F6",
                    "midi": 89,
                    "time": 59.16671400000001,
                    "velocity": 0.4881889763779528,
                    "duration": 0.09259266666666832
                },
                {
                    "name": "D#6",
                    "midi": 87,
                    "time": 59.25930666666668,
                    "velocity": 0.4881889763779528,
                    "duration": 0.09143525833333399
                },
                {
                    "name": "C#6",
                    "midi": 85,
                    "time": 59.350741925000015,
                    "velocity": 0.4881889763779528,
                    "duration": 0.09375007500000265
                },
                {
                    "name": "C6",
                    "midi": 84,
                    "time": 59.722270000000016,
                    "velocity": 0.4881889763779528,
                    "duration": 0.06944450000000302
                },
                {
                    "name": "C#6",
                    "midi": 85,
                    "time": 59.79171450000002,
                    "velocity": 0.4881889763779528,
                    "duration": 0.06944450000000302
                },
                {
                    "name": "C6",
                    "midi": 84,
                    "time": 59.86115900000002,
                    "velocity": 0.4881889763779528,
                    "duration": 0.06944450000000302
                },
                {
                    "name": "C#6",
                    "midi": 85,
                    "time": 59.930603500000025,
                    "velocity": 0.4881889763779528,
                    "duration": 0.06944450000000302
                },
                {
                    "name": "C6",
                    "midi": 84,
                    "time": 60.00004800000003,
                    "velocity": 0.4881889763779528,
                    "duration": 0.06944450000000302
                },
                {
                    "name": "C#6",
                    "midi": 85,
                    "time": 60.06949250000003,
                    "velocity": 0.4881889763779528,
                    "duration": 0.06944450000000302
                },
                {
                    "name": "C6",
                    "midi": 84,
                    "time": 60.138937000000034,
                    "velocity": 0.4881889763779528,
                    "duration": 0.06944450000000302
                },
                {
                    "name": "C#6",
                    "midi": 85,
                    "time": 60.20838150000004,
                    "velocity": 0.4881889763779528,
                    "duration": 0.06944450000000302
                },
                {
                    "name": "C6",
                    "midi": 84,
                    "time": 60.27782600000004,
                    "velocity": 0.4881889763779528,
                    "duration": 0.06944450000000302
                },
                {
                    "name": "C#6",
                    "midi": 85,
                    "time": 60.34727050000004,
                    "velocity": 0.4881889763779528,
                    "duration": 0.06944450000000302
                },
                {
                    "name": "C6",
                    "midi": 84,
                    "time": 60.416715000000046,
                    "velocity": 0.4881889763779528,
                    "duration": 0.06944450000000302
                },
                {
                    "name": "C#6",
                    "midi": 85,
                    "time": 60.48615950000005,
                    "velocity": 0.4881889763779528,
                    "duration": 0.06944450000000302
                },
                {
                    "name": "C6",
                    "midi": 84,
                    "time": 60.55560400000005,
                    "velocity": 0.4881889763779528,
                    "duration": 0.06944450000000302
                },
                {
                    "name": "C#6",
                    "midi": 85,
                    "time": 60.625048500000055,
                    "velocity": 0.4881889763779528,
                    "duration": 0.06944450000000302
                },
                {
                    "name": "C6",
                    "midi": 84,
                    "time": 60.69449300000006,
                    "velocity": 0.4881889763779528,
                    "duration": 0.06944450000000302
                },
                {
                    "name": "C#6",
                    "midi": 85,
                    "time": 60.76393750000006,
                    "velocity": 0.4881889763779528,
                    "duration": 0.06944450000000302
                },
                {
                    "name": "C6",
                    "midi": 84,
                    "time": 60.833382000000064,
                    "velocity": 0.4881889763779528,
                    "duration": 0.06944450000000302
                },
                {
                    "name": "C#6",
                    "midi": 85,
                    "time": 60.90282650000007,
                    "velocity": 0.4881889763779528,
                    "duration": 0.06944450000000302
                },
                {
                    "name": "C6",
                    "midi": 84,
                    "time": 60.97227100000007,
                    "velocity": 0.4881889763779528,
                    "duration": 0.06944450000000302
                },
                {
                    "name": "C#6",
                    "midi": 85,
                    "time": 61.04171550000007,
                    "velocity": 0.4881889763779528,
                    "duration": 0.06944450000000302
                },
                {
                    "name": "C6",
                    "midi": 84,
                    "time": 61.111160000000076,
                    "velocity": 0.4881889763779528,
                    "duration": 0.06944450000000302
                },
                {
                    "name": "C#6",
                    "midi": 85,
                    "time": 61.18060450000008,
                    "velocity": 0.4881889763779528,
                    "duration": 0.06944450000000302
                },
                {
                    "name": "C6",
                    "midi": 84,
                    "time": 61.25004900000008,
                    "velocity": 0.4881889763779528,
                    "duration": 0.06944450000000302
                },
                {
                    "name": "C#6",
                    "midi": 85,
                    "time": 61.319493500000085,
                    "velocity": 0.4881889763779528,
                    "duration": 0.06944450000000302
                },
                {
                    "name": "C6",
                    "midi": 84,
                    "time": 61.38893800000009,
                    "velocity": 0.4881889763779528,
                    "duration": 0.06944450000000302
                },
                {
                    "name": "C#6",
                    "midi": 85,
                    "time": 61.45838250000009,
                    "velocity": 0.4881889763779528,
                    "duration": 0.06944450000000302
                },
                {
                    "name": "C6",
                    "midi": 84,
                    "time": 61.527827000000094,
                    "velocity": 0.4881889763779528,
                    "duration": 0.06944450000000302
                },
                {
                    "name": "C#6",
                    "midi": 85,
                    "time": 61.5972715000001,
                    "velocity": 0.4881889763779528,
                    "duration": 0.06944450000000302
                },
                {
                    "name": "C6",
                    "midi": 84,
                    "time": 61.9444940000001,
                    "velocity": 0.4881889763779528,
                    "duration": 0.09259266666666832
                },
                {
                    "name": "C#6",
                    "midi": 85,
                    "time": 62.03708666666677,
                    "velocity": 0.4881889763779528,
                    "duration": 0.09143525833333399
                },
                {
                    "name": "D#6",
                    "midi": 87,
                    "time": 62.1285219250001,
                    "velocity": 0.4881889763779528,
                    "duration": 0.09375007500000265
                },
                {
                    "name": "F6",
                    "midi": 89,
                    "time": 62.2222720000001,
                    "velocity": 0.4881889763779528,
                    "duration": 0.06944450000000302
                },
                {
                    "name": "F#6",
                    "midi": 90,
                    "time": 62.291716500000106,
                    "velocity": 0.4881889763779528,
                    "duration": 0.06944450000000302
                },
                {
                    "name": "F6",
                    "midi": 89,
                    "time": 62.36116100000011,
                    "velocity": 0.4881889763779528,
                    "duration": 0.06944450000000302
                },
                {
                    "name": "F#6",
                    "midi": 90,
                    "time": 62.43060550000011,
                    "velocity": 0.4881889763779528,
                    "duration": 0.06944450000000302
                },
                {
                    "name": "F6",
                    "midi": 89,
                    "time": 62.500050000000115,
                    "velocity": 0.4881889763779528,
                    "duration": 0.09259266666666832
                },
                {
                    "name": "D#6",
                    "midi": 87,
                    "time": 62.592642666666784,
                    "velocity": 0.4881889763779528,
                    "duration": 0.09143525833333399
                },
                {
                    "name": "C#6",
                    "midi": 85,
                    "time": 62.68407792500012,
                    "velocity": 0.4881889763779528,
                    "duration": 0.09375007500000265
                },
                {
                    "name": "C6",
                    "midi": 84,
                    "time": 62.77782800000012,
                    "velocity": 0.4881889763779528,
                    "duration": 0.06944450000000302
                },
                {
                    "name": "C#6",
                    "midi": 85,
                    "time": 62.84727250000012,
                    "velocity": 0.4881889763779528,
                    "duration": 0.06944450000000302
                },
                {
                    "name": "C6",
                    "midi": 84,
                    "time": 62.916717000000126,
                    "velocity": 0.4881889763779528,
                    "duration": 0.06944450000000302
                },
                {
                    "name": "C#6",
                    "midi": 85,
                    "time": 62.98616150000013,
                    "velocity": 0.4881889763779528,
                    "duration": 0.06944450000000302
                },
                {
                    "name": "C6",
                    "midi": 84,
                    "time": 63.05560600000013,
                    "velocity": 0.4881889763779528,
                    "duration": 0.06944450000000302
                },
                {
                    "name": "C#6",
                    "midi": 85,
                    "time": 63.125050500000135,
                    "velocity": 0.4881889763779528,
                    "duration": 0.06944450000000302
                },
                {
                    "name": "C6",
                    "midi": 84,
                    "time": 63.19449500000014,
                    "velocity": 0.4881889763779528,
                    "duration": 0.06944450000000302
                },
                {
                    "name": "C#6",
                    "midi": 85,
                    "time": 63.26393950000014,
                    "velocity": 0.4881889763779528,
                    "duration": 0.06944450000000302
                },
                {
                    "name": "C6",
                    "midi": 84,
                    "time": 63.333384000000144,
                    "velocity": 0.4881889763779528,
                    "duration": 0.06944450000000302
                },
                {
                    "name": "C#6",
                    "midi": 85,
                    "time": 63.40282850000015,
                    "velocity": 0.4881889763779528,
                    "duration": 0.06944450000000302
                },
                {
                    "name": "C6",
                    "midi": 84,
                    "time": 63.47227300000015,
                    "velocity": 0.4881889763779528,
                    "duration": 0.06944450000000302
                },
                {
                    "name": "C#6",
                    "midi": 85,
                    "time": 63.54171750000015,
                    "velocity": 0.4881889763779528,
                    "duration": 0.06944450000000302
                },
                {
                    "name": "C6",
                    "midi": 84,
                    "time": 63.61116200000016,
                    "velocity": 0.4881889763779528,
                    "duration": 0.09259266666666832
                },
                {
                    "name": "C#6",
                    "midi": 85,
                    "time": 63.703754666666825,
                    "velocity": 0.4881889763779528,
                    "duration": 0.09143525833333399
                },
                {
                    "name": "D#6",
                    "midi": 87,
                    "time": 63.79518992500016,
                    "velocity": 0.4881889763779528,
                    "duration": 0.09375007500000265
                },
                {
                    "name": "F6",
                    "midi": 89,
                    "time": 64.16671800000016,
                    "velocity": 0.4881889763779528,
                    "duration": 0.06944450000000302
                },
                {
                    "name": "F#6",
                    "midi": 90,
                    "time": 64.23616250000016,
                    "velocity": 0.4881889763779528,
                    "duration": 0.06944450000000302
                },
                {
                    "name": "F6",
                    "midi": 89,
                    "time": 64.30560700000017,
                    "velocity": 0.4881889763779528,
                    "duration": 0.06944450000000302
                },
                {
                    "name": "F#6",
                    "midi": 90,
                    "time": 64.37505150000017,
                    "velocity": 0.4881889763779528,
                    "duration": 0.06944450000000302
                },
                {
                    "name": "F6",
                    "midi": 89,
                    "time": 64.44449600000017,
                    "velocity": 0.4881889763779528,
                    "duration": 0.06944450000000302
                },
                {
                    "name": "F#6",
                    "midi": 90,
                    "time": 64.51394050000017,
                    "velocity": 0.4881889763779528,
                    "duration": 0.06944450000000302
                },
                {
                    "name": "F6",
                    "midi": 89,
                    "time": 64.58338500000018,
                    "velocity": 0.4881889763779528,
                    "duration": 0.06944450000000302
                },
                {
                    "name": "F#6",
                    "midi": 90,
                    "time": 64.65282950000018,
                    "velocity": 0.4881889763779528,
                    "duration": 0.06944450000000302
                },
                {
                    "name": "F6",
                    "midi": 89,
                    "time": 64.72227400000018,
                    "velocity": 0.4881889763779528,
                    "duration": 0.06944450000000302
                },
                {
                    "name": "F#6",
                    "midi": 90,
                    "time": 64.79171850000019,
                    "velocity": 0.4881889763779528,
                    "duration": 0.06944450000000302
                },
                {
                    "name": "F6",
                    "midi": 89,
                    "time": 64.86116300000019,
                    "velocity": 0.4881889763779528,
                    "duration": 0.06944450000000302
                },
                {
                    "name": "F#6",
                    "midi": 90,
                    "time": 64.93060750000019,
                    "velocity": 0.4881889763779528,
                    "duration": 0.06944450000000302
                },
                {
                    "name": "F6",
                    "midi": 89,
                    "time": 65.0000520000002,
                    "velocity": 0.4881889763779528,
                    "duration": 0.06944450000000302
                },
                {
                    "name": "F#6",
                    "midi": 90,
                    "time": 65.0694965000002,
                    "velocity": 0.4881889763779528,
                    "duration": 0.06944450000000302
                },
                {
                    "name": "F6",
                    "midi": 89,
                    "time": 65.1389410000002,
                    "velocity": 0.4881889763779528,
                    "duration": 0.06944450000000302
                },
                {
                    "name": "F#6",
                    "midi": 90,
                    "time": 65.2083855000002,
                    "velocity": 0.4881889763779528,
                    "duration": 0.06944450000000302
                },
                {
                    "name": "F6",
                    "midi": 89,
                    "time": 65.27783000000021,
                    "velocity": 0.4881889763779528,
                    "duration": 0.06944450000000302
                },
                {
                    "name": "F#6",
                    "midi": 90,
                    "time": 65.34727450000021,
                    "velocity": 0.4881889763779528,
                    "duration": 0.06944450000000302
                },
                {
                    "name": "F6",
                    "midi": 89,
                    "time": 65.41671900000021,
                    "velocity": 0.4881889763779528,
                    "duration": 0.06944450000000302
                },
                {
                    "name": "F#6",
                    "midi": 90,
                    "time": 65.48616350000022,
                    "velocity": 0.4881889763779528,
                    "duration": 0.06944450000000302
                },
                {
                    "name": "F6",
                    "midi": 89,
                    "time": 65.55560800000022,
                    "velocity": 0.4881889763779528,
                    "duration": 0.06944450000000302
                },
                {
                    "name": "F#6",
                    "midi": 90,
                    "time": 65.62505250000022,
                    "velocity": 0.4881889763779528,
                    "duration": 0.06944450000000302
                },
                {
                    "name": "F6",
                    "midi": 89,
                    "time": 65.69449700000023,
                    "velocity": 0.4881889763779528,
                    "duration": 0.06944450000000302
                },
                {
                    "name": "F#6",
                    "midi": 90,
                    "time": 65.76394150000023,
                    "velocity": 0.4881889763779528,
                    "duration": 0.06944450000000302
                },
                {
                    "name": "F6",
                    "midi": 89,
                    "time": 65.83338600000023,
                    "velocity": 0.4881889763779528,
                    "duration": 0.06944450000000302
                },
                {
                    "name": "F#6",
                    "midi": 90,
                    "time": 65.90283050000023,
                    "velocity": 0.4881889763779528,
                    "duration": 0.06944450000000302
                },
                {
                    "name": "F6",
                    "midi": 89,
                    "time": 65.97227500000024,
                    "velocity": 0.4881889763779528,
                    "duration": 0.06944450000000302
                },
                {
                    "name": "F#6",
                    "midi": 90,
                    "time": 66.04171950000024,
                    "velocity": 0.4881889763779528,
                    "duration": 0.06944450000000302
                },
                {
                    "name": "F6",
                    "midi": 89,
                    "time": 66.11116400000024,
                    "velocity": 0.4881889763779528,
                    "duration": 0.06944450000000302
                },
                {
                    "name": "F#6",
                    "midi": 90,
                    "time": 66.18060850000025,
                    "velocity": 0.4881889763779528,
                    "duration": 0.06944450000000302
                },
                {
                    "name": "F6",
                    "midi": 89,
                    "time": 66.25005300000025,
                    "velocity": 0.4881889763779528,
                    "duration": 0.06944450000000302
                },
                {
                    "name": "F#6",
                    "midi": 90,
                    "time": 66.31949750000025,
                    "velocity": 0.4881889763779528,
                    "duration": 0.06944450000000302
                },
                {
                    "name": "F6",
                    "midi": 89,
                    "time": 66.38894200000026,
                    "velocity": 0.4881889763779528,
                    "duration": 0.06944450000000302
                },
                {
                    "name": "F#6",
                    "midi": 90,
                    "time": 66.45838650000026,
                    "velocity": 0.4881889763779528,
                    "duration": 0.06944450000000302
                },
                {
                    "name": "F6",
                    "midi": 89,
                    "time": 66.52783100000026,
                    "velocity": 0.4881889763779528,
                    "duration": 0.06944450000000302
                },
                {
                    "name": "F#6",
                    "midi": 90,
                    "time": 66.59727550000026,
                    "velocity": 0.4881889763779528,
                    "duration": 0.06944450000000302
                },
                {
                    "name": "F6",
                    "midi": 89,
                    "time": 66.66672000000027,
                    "velocity": 0.4881889763779528,
                    "duration": 0.06944450000000302
                },
                {
                    "name": "F#6",
                    "midi": 90,
                    "time": 66.73616450000027,
                    "velocity": 0.4881889763779528,
                    "duration": 0.06944450000000302
                },
                {
                    "name": "F6",
                    "midi": 89,
                    "time": 66.80560900000027,
                    "velocity": 0.4881889763779528,
                    "duration": 0.06944450000000302
                },
                {
                    "name": "F#6",
                    "midi": 90,
                    "time": 66.87505350000028,
                    "velocity": 0.4881889763779528,
                    "duration": 0.06944450000000302
                },
                {
                    "name": "F6",
                    "midi": 89,
                    "time": 66.94449800000028,
                    "velocity": 0.4881889763779528,
                    "duration": 0.06944450000000302
                },
                {
                    "name": "F#6",
                    "midi": 90,
                    "time": 67.01394250000028,
                    "velocity": 0.4881889763779528,
                    "duration": 0.06944450000000302
                },
                {
                    "name": "F6",
                    "midi": 89,
                    "time": 67.08338700000029,
                    "velocity": 0.4881889763779528,
                    "duration": 0.06944450000000302
                },
                {
                    "name": "F#6",
                    "midi": 90,
                    "time": 67.15283150000029,
                    "velocity": 0.4881889763779528,
                    "duration": 0.06944450000000302
                },
                {
                    "name": "F#3",
                    "midi": 54,
                    "time": 67.77783200000029,
                    "velocity": 0.6929133858267716,
                    "duration": 0.5555559999999957
                },
                {
                    "name": "A#3",
                    "midi": 58,
                    "time": 67.77783200000029,
                    "velocity": 0.6929133858267716,
                    "duration": 0.5555559999999957
                },
                {
                    "name": "F4",
                    "midi": 65,
                    "time": 67.77783200000029,
                    "velocity": 0.6929133858267716,
                    "duration": 0.5555559999999957
                },
                {
                    "name": "F#3",
                    "midi": 54,
                    "time": 68.33338800000028,
                    "velocity": 0.6929133858267716,
                    "duration": 0.5555559999999957
                },
                {
                    "name": "A#3",
                    "midi": 58,
                    "time": 68.33338800000028,
                    "velocity": 0.6929133858267716,
                    "duration": 0.5555559999999957
                },
                {
                    "name": "F4",
                    "midi": 65,
                    "time": 68.33338800000028,
                    "velocity": 0.6929133858267716,
                    "duration": 0.5555559999999957
                },
                {
                    "name": "F#3",
                    "midi": 54,
                    "time": 68.88894400000028,
                    "velocity": 0.6929133858267716,
                    "duration": 0.5555559999999957
                },
                {
                    "name": "A#3",
                    "midi": 58,
                    "time": 68.88894400000028,
                    "velocity": 0.6929133858267716,
                    "duration": 0.5555559999999957
                },
                {
                    "name": "F4",
                    "midi": 65,
                    "time": 68.88894400000028,
                    "velocity": 0.6929133858267716,
                    "duration": 0.5555559999999957
                },
                {
                    "name": "F#3",
                    "midi": 54,
                    "time": 70.00005600000027,
                    "velocity": 0.6929133858267716,
                    "duration": 0.5555559999999957
                },
                {
                    "name": "A#3",
                    "midi": 58,
                    "time": 70.00005600000027,
                    "velocity": 0.6929133858267716,
                    "duration": 0.5555559999999957
                },
                {
                    "name": "F4",
                    "midi": 65,
                    "time": 70.00005600000027,
                    "velocity": 0.6929133858267716,
                    "duration": 0.5555559999999957
                },
                {
                    "name": "F#3",
                    "midi": 54,
                    "time": 70.55561200000027,
                    "velocity": 0.6929133858267716,
                    "duration": 0.5555559999999957
                },
                {
                    "name": "A#3",
                    "midi": 58,
                    "time": 70.55561200000027,
                    "velocity": 0.6929133858267716,
                    "duration": 0.5555559999999957
                },
                {
                    "name": "F4",
                    "midi": 65,
                    "time": 70.55561200000027,
                    "velocity": 0.6929133858267716,
                    "duration": 0.5555559999999957
                },
                {
                    "name": "F#3",
                    "midi": 54,
                    "time": 71.11116800000026,
                    "velocity": 0.6929133858267716,
                    "duration": 0.5555559999999957
                },
                {
                    "name": "A#3",
                    "midi": 58,
                    "time": 71.11116800000026,
                    "velocity": 0.6929133858267716,
                    "duration": 0.5555559999999957
                },
                {
                    "name": "F4",
                    "midi": 65,
                    "time": 71.11116800000026,
                    "velocity": 0.6929133858267716,
                    "duration": 0.5555559999999957
                },
                {
                    "name": "F4",
                    "midi": 65,
                    "time": 71.94450200000026,
                    "velocity": 0.4881889763779528,
                    "duration": 0.27777799999999786
                },
                {
                    "name": "C5",
                    "midi": 72,
                    "time": 71.94450200000026,
                    "velocity": 0.4881889763779528,
                    "duration": 0.27777799999999786
                },
                {
                    "name": "C#5",
                    "midi": 73,
                    "time": 71.94450200000026,
                    "velocity": 0.4881889763779528,
                    "duration": 0.27777799999999786
                },
                {
                    "name": "F5",
                    "midi": 77,
                    "time": 71.94450200000026,
                    "velocity": 0.4881889763779528,
                    "duration": 0.27777799999999786
                },
                {
                    "name": "G4",
                    "midi": 67,
                    "time": 72.22228000000025,
                    "velocity": 0.4881889763779528,
                    "duration": 0.27777799999999786
                },
                {
                    "name": "C5",
                    "midi": 72,
                    "time": 72.22228000000025,
                    "velocity": 0.4881889763779528,
                    "duration": 0.27777799999999786
                },
                {
                    "name": "D#5",
                    "midi": 75,
                    "time": 72.22228000000025,
                    "velocity": 0.4881889763779528,
                    "duration": 0.27777799999999786
                },
                {
                    "name": "G5",
                    "midi": 79,
                    "time": 72.22228000000025,
                    "velocity": 0.4881889763779528,
                    "duration": 0.27777799999999786
                },
                {
                    "name": "G5",
                    "midi": 79,
                    "time": 72.43061350000025,
                    "velocity": 0.4881889763779528,
                    "duration": 0.06944450000000302
                },
                {
                    "name": "A#4",
                    "midi": 70,
                    "time": 72.50005800000025,
                    "velocity": 0.4881889763779528,
                    "duration": 0.27777799999999786
                },
                {
                    "name": "C#5",
                    "midi": 73,
                    "time": 72.50005800000025,
                    "velocity": 0.4881889763779528,
                    "duration": 0.27777799999999786
                },
                {
                    "name": "A#5",
                    "midi": 82,
                    "time": 72.50005800000025,
                    "velocity": 0.4881889763779528,
                    "duration": 0.27777799999999786
                },
                {
                    "name": "A#5",
                    "midi": 82,
                    "time": 72.70839150000025,
                    "velocity": 0.4881889763779528,
                    "duration": 0.06944450000000302
                },
                {
                    "name": "A#4",
                    "midi": 70,
                    "time": 72.77783600000025,
                    "velocity": 0.4881889763779528,
                    "duration": 0.27777799999999786
                },
                {
                    "name": "D#5",
                    "midi": 75,
                    "time": 72.77783600000025,
                    "velocity": 0.4881889763779528,
                    "duration": 0.27777799999999786
                },
                {
                    "name": "G#5",
                    "midi": 80,
                    "time": 72.77783600000025,
                    "velocity": 0.4881889763779528,
                    "duration": 0.27777799999999786
                },
                {
                    "name": "G4",
                    "midi": 67,
                    "time": 73.05561400000025,
                    "velocity": 0.4881889763779528,
                    "duration": 0.27777799999999786
                },
                {
                    "name": "C5",
                    "midi": 72,
                    "time": 73.05561400000025,
                    "velocity": 0.4881889763779528,
                    "duration": 0.27777799999999786
                },
                {
                    "name": "C#5",
                    "midi": 73,
                    "time": 73.05561400000025,
                    "velocity": 0.4881889763779528,
                    "duration": 0.27777799999999786
                },
                {
                    "name": "G5",
                    "midi": 79,
                    "time": 73.05561400000025,
                    "velocity": 0.4881889763779528,
                    "duration": 0.27777799999999786
                },
                {
                    "name": "F4",
                    "midi": 65,
                    "time": 73.33339200000025,
                    "velocity": 0.4881889763779528,
                    "duration": 0.27777799999999786
                },
                {
                    "name": "A#4",
                    "midi": 70,
                    "time": 73.33339200000025,
                    "velocity": 0.4881889763779528,
                    "duration": 0.27777799999999786
                },
                {
                    "name": "D#5",
                    "midi": 75,
                    "time": 73.33339200000025,
                    "velocity": 0.4881889763779528,
                    "duration": 0.27777799999999786
                },
                {
                    "name": "F5",
                    "midi": 77,
                    "time": 73.33339200000025,
                    "velocity": 0.4881889763779528,
                    "duration": 0.27777799999999786
                },
                {
                    "name": "C#5",
                    "midi": 73,
                    "time": 73.54172550000024,
                    "velocity": 0.4881889763779528,
                    "duration": 0.06944450000000302
                },
                {
                    "name": "F4",
                    "midi": 65,
                    "time": 73.61117000000024,
                    "velocity": 0.4881889763779528,
                    "duration": 0.27777799999999786
                },
                {
                    "name": "A#4",
                    "midi": 70,
                    "time": 73.61117000000024,
                    "velocity": 0.4881889763779528,
                    "duration": 0.27777799999999786
                },
                {
                    "name": "D#5",
                    "midi": 75,
                    "time": 73.61117000000024,
                    "velocity": 0.4881889763779528,
                    "duration": 0.27777799999999786
                },
                {
                    "name": "F4",
                    "midi": 65,
                    "time": 73.88894800000024,
                    "velocity": 0.4881889763779528,
                    "duration": 0.05439819166666382
                },
                {
                    "name": "A#4",
                    "midi": 70,
                    "time": 73.88894800000024,
                    "velocity": 0.4881889763779528,
                    "duration": 0.05439819166666382
                },
                {
                    "name": "C5",
                    "midi": 72,
                    "time": 73.88894800000024,
                    "velocity": 0.4881889763779528,
                    "duration": 0.05439819166666382
                },
                {
                    "name": "D#5",
                    "midi": 75,
                    "time": 73.88894800000024,
                    "velocity": 0.4881889763779528,
                    "duration": 0.05439819166666382
                },
                {
                    "name": "F5",
                    "midi": 77,
                    "time": 73.88894800000024,
                    "velocity": 0.4881889763779528,
                    "duration": 0.05439819166666382
                },
                {
                    "name": "F#3",
                    "midi": 54,
                    "time": 74.44450400000024,
                    "velocity": 0.5905511811023622,
                    "duration": 0.5555559999999957
                },
                {
                    "name": "A#3",
                    "midi": 58,
                    "time": 74.44450400000024,
                    "velocity": 0.5905511811023622,
                    "duration": 0.5555559999999957
                },
                {
                    "name": "F4",
                    "midi": 65,
                    "time": 74.44450400000024,
                    "velocity": 0.5905511811023622,
                    "duration": 0.5555559999999957
                },
                {
                    "name": "F#3",
                    "midi": 54,
                    "time": 75.00006000000023,
                    "velocity": 0.5905511811023622,
                    "duration": 0.5555559999999957
                },
                {
                    "name": "A#3",
                    "midi": 58,
                    "time": 75.00006000000023,
                    "velocity": 0.5905511811023622,
                    "duration": 0.5555559999999957
                },
                {
                    "name": "F4",
                    "midi": 65,
                    "time": 75.00006000000023,
                    "velocity": 0.5905511811023622,
                    "duration": 0.5555559999999957
                },
                {
                    "name": "F#3",
                    "midi": 54,
                    "time": 75.55561600000023,
                    "velocity": 0.5905511811023622,
                    "duration": 0.5555559999999957
                },
                {
                    "name": "A#3",
                    "midi": 58,
                    "time": 75.55561600000023,
                    "velocity": 0.5905511811023622,
                    "duration": 0.5555559999999957
                },
                {
                    "name": "F4",
                    "midi": 65,
                    "time": 75.55561600000023,
                    "velocity": 0.5905511811023622,
                    "duration": 0.5555559999999957
                },
                {
                    "name": "F4",
                    "midi": 65,
                    "time": 76.38895000000022,
                    "velocity": 0.4881889763779528,
                    "duration": 0.27777799999999786
                },
                {
                    "name": "C5",
                    "midi": 72,
                    "time": 76.38895000000022,
                    "velocity": 0.4881889763779528,
                    "duration": 0.27777799999999786
                },
                {
                    "name": "C#5",
                    "midi": 73,
                    "time": 76.38895000000022,
                    "velocity": 0.4881889763779528,
                    "duration": 0.27777799999999786
                },
                {
                    "name": "F5",
                    "midi": 77,
                    "time": 76.38895000000022,
                    "velocity": 0.4881889763779528,
                    "duration": 0.27777799999999786
                },
                {
                    "name": "G4",
                    "midi": 67,
                    "time": 76.66672800000022,
                    "velocity": 0.4881889763779528,
                    "duration": 0.27777799999999786
                },
                {
                    "name": "C5",
                    "midi": 72,
                    "time": 76.66672800000022,
                    "velocity": 0.4881889763779528,
                    "duration": 0.27777799999999786
                },
                {
                    "name": "D#5",
                    "midi": 75,
                    "time": 76.66672800000022,
                    "velocity": 0.4881889763779528,
                    "duration": 0.27777799999999786
                },
                {
                    "name": "G5",
                    "midi": 79,
                    "time": 76.66672800000022,
                    "velocity": 0.4881889763779528,
                    "duration": 0.27777799999999786
                },
                {
                    "name": "G5",
                    "midi": 79,
                    "time": 76.87506150000021,
                    "velocity": 0.4881889763779528,
                    "duration": 0.06944450000000302
                },
                {
                    "name": "A#4",
                    "midi": 70,
                    "time": 76.94450600000022,
                    "velocity": 0.4881889763779528,
                    "duration": 0.27777799999999786
                },
                {
                    "name": "C#5",
                    "midi": 73,
                    "time": 76.94450600000022,
                    "velocity": 0.4881889763779528,
                    "duration": 0.27777799999999786
                },
                {
                    "name": "A#5",
                    "midi": 82,
                    "time": 76.94450600000022,
                    "velocity": 0.4881889763779528,
                    "duration": 0.27777799999999786
                },
                {
                    "name": "A#5",
                    "midi": 82,
                    "time": 77.15283950000021,
                    "velocity": 0.4881889763779528,
                    "duration": 0.06944450000000302
                },
                {
                    "name": "A#4",
                    "midi": 70,
                    "time": 77.22228400000022,
                    "velocity": 0.4881889763779528,
                    "duration": 0.27777799999999786
                },
                {
                    "name": "D#5",
                    "midi": 75,
                    "time": 77.22228400000022,
                    "velocity": 0.4881889763779528,
                    "duration": 0.27777799999999786
                },
                {
                    "name": "G#5",
                    "midi": 80,
                    "time": 77.22228400000022,
                    "velocity": 0.4881889763779528,
                    "duration": 0.27777799999999786
                },
                {
                    "name": "G4",
                    "midi": 67,
                    "time": 77.50006200000021,
                    "velocity": 0.4881889763779528,
                    "duration": 0.27777799999999786
                },
                {
                    "name": "C5",
                    "midi": 72,
                    "time": 77.50006200000021,
                    "velocity": 0.4881889763779528,
                    "duration": 0.27777799999999786
                },
                {
                    "name": "C#5",
                    "midi": 73,
                    "time": 77.50006200000021,
                    "velocity": 0.4881889763779528,
                    "duration": 0.27777799999999786
                },
                {
                    "name": "G5",
                    "midi": 79,
                    "time": 77.50006200000021,
                    "velocity": 0.4881889763779528,
                    "duration": 0.27777799999999786
                },
                {
                    "name": "F4",
                    "midi": 65,
                    "time": 77.77784000000021,
                    "velocity": 0.4881889763779528,
                    "duration": 0.27777799999999786
                },
                {
                    "name": "A#4",
                    "midi": 70,
                    "time": 77.77784000000021,
                    "velocity": 0.4881889763779528,
                    "duration": 0.27777799999999786
                },
                {
                    "name": "D#5",
                    "midi": 75,
                    "time": 77.77784000000021,
                    "velocity": 0.4881889763779528,
                    "duration": 0.27777799999999786
                },
                {
                    "name": "F5",
                    "midi": 77,
                    "time": 77.77784000000021,
                    "velocity": 0.4881889763779528,
                    "duration": 0.27777799999999786
                },
                {
                    "name": "C#5",
                    "midi": 73,
                    "time": 77.9861735000002,
                    "velocity": 0.4881889763779528,
                    "duration": 0.06944450000000302
                },
                {
                    "name": "F4",
                    "midi": 65,
                    "time": 78.05561800000021,
                    "velocity": 0.4881889763779528,
                    "duration": 0.27777799999999786
                },
                {
                    "name": "A#4",
                    "midi": 70,
                    "time": 78.05561800000021,
                    "velocity": 0.4881889763779528,
                    "duration": 0.27777799999999786
                },
                {
                    "name": "D#5",
                    "midi": 75,
                    "time": 78.05561800000021,
                    "velocity": 0.4881889763779528,
                    "duration": 0.27777799999999786
                },
                {
                    "name": "F4",
                    "midi": 65,
                    "time": 78.3333960000002,
                    "velocity": 0.4881889763779528,
                    "duration": 0.27777799999999786
                },
                {
                    "name": "A#4",
                    "midi": 70,
                    "time": 78.3333960000002,
                    "velocity": 0.4881889763779528,
                    "duration": 0.27777799999999786
                },
                {
                    "name": "D#5",
                    "midi": 75,
                    "time": 78.3333960000002,
                    "velocity": 0.4881889763779528,
                    "duration": 0.27777799999999786
                },
                {
                    "name": "F5",
                    "midi": 77,
                    "time": 78.3333960000002,
                    "velocity": 0.4881889763779528,
                    "duration": 0.27777799999999786
                },
                {
                    "name": "G4",
                    "midi": 67,
                    "time": 78.6111740000002,
                    "velocity": 0.4881889763779528,
                    "duration": 0.27777799999999786
                },
                {
                    "name": "C5",
                    "midi": 72,
                    "time": 78.6111740000002,
                    "velocity": 0.4881889763779528,
                    "duration": 0.27777799999999786
                },
                {
                    "name": "C#5",
                    "midi": 73,
                    "time": 78.6111740000002,
                    "velocity": 0.4881889763779528,
                    "duration": 0.27777799999999786
                },
                {
                    "name": "G5",
                    "midi": 79,
                    "time": 78.6111740000002,
                    "velocity": 0.4881889763779528,
                    "duration": 0.27777799999999786
                },
                {
                    "name": "A#5",
                    "midi": 82,
                    "time": 78.8195075000002,
                    "velocity": 0.4881889763779528,
                    "duration": 0.06944450000000302
                },
                {
                    "name": "A#4",
                    "midi": 70,
                    "time": 78.8889520000002,
                    "velocity": 0.4881889763779528,
                    "duration": 0.27777799999999786
                },
                {
                    "name": "D#5",
                    "midi": 75,
                    "time": 78.8889520000002,
                    "velocity": 0.4881889763779528,
                    "duration": 0.27777799999999786
                },
                {
                    "name": "G#5",
                    "midi": 80,
                    "time": 78.8889520000002,
                    "velocity": 0.4881889763779528,
                    "duration": 0.27777799999999786
                },
                {
                    "name": "G4",
                    "midi": 67,
                    "time": 79.1667300000002,
                    "velocity": 0.4881889763779528,
                    "duration": 0.27777799999999786
                },
                {
                    "name": "C5",
                    "midi": 72,
                    "time": 79.1667300000002,
                    "velocity": 0.4881889763779528,
                    "duration": 0.27777799999999786
                },
                {
                    "name": "C#5",
                    "midi": 73,
                    "time": 79.1667300000002,
                    "velocity": 0.4881889763779528,
                    "duration": 0.27777799999999786
                },
                {
                    "name": "G5",
                    "midi": 79,
                    "time": 79.1667300000002,
                    "velocity": 0.4881889763779528,
                    "duration": 0.27777799999999786
                },
                {
                    "name": "F4",
                    "midi": 65,
                    "time": 79.4445080000002,
                    "velocity": 0.4881889763779528,
                    "duration": 0.27777799999999786
                },
                {
                    "name": "A#4",
                    "midi": 70,
                    "time": 79.4445080000002,
                    "velocity": 0.4881889763779528,
                    "duration": 0.27777799999999786
                },
                {
                    "name": "D#5",
                    "midi": 75,
                    "time": 79.4445080000002,
                    "velocity": 0.4881889763779528,
                    "duration": 0.27777799999999786
                },
                {
                    "name": "F5",
                    "midi": 77,
                    "time": 79.4445080000002,
                    "velocity": 0.4881889763779528,
                    "duration": 0.27777799999999786
                },
                {
                    "name": "C#5",
                    "midi": 73,
                    "time": 79.65284150000019,
                    "velocity": 0.4881889763779528,
                    "duration": 0.06944450000000302
                },
                {
                    "name": "F4",
                    "midi": 65,
                    "time": 79.7222860000002,
                    "velocity": 0.4881889763779528,
                    "duration": 0.27777799999999786
                },
                {
                    "name": "A#4",
                    "midi": 70,
                    "time": 79.7222860000002,
                    "velocity": 0.4881889763779528,
                    "duration": 0.27777799999999786
                },
                {
                    "name": "D#5",
                    "midi": 75,
                    "time": 79.7222860000002,
                    "velocity": 0.4881889763779528,
                    "duration": 0.27777799999999786
                },
                {
                    "name": "A#4",
                    "midi": 70,
                    "time": 80.6945090000002,
                    "velocity": 0.8976377952755905,
                    "duration": 0.5555559999999957
                },
                {
                    "name": "F#5",
                    "midi": 78,
                    "time": 80.6945090000002,
                    "velocity": 0.8976377952755905,
                    "duration": 0.5555559999999957
                },
                {
                    "name": "A#5",
                    "midi": 82,
                    "time": 80.6945090000002,
                    "velocity": 0.8976377952755905,
                    "duration": 0.5555559999999957
                },
                {
                    "name": "A#4",
                    "midi": 70,
                    "time": 81.25006500000019,
                    "velocity": 0.8976377952755905,
                    "duration": 0.5555559999999957
                },
                {
                    "name": "F#5",
                    "midi": 78,
                    "time": 81.25006500000019,
                    "velocity": 0.8976377952755905,
                    "duration": 0.5555559999999957
                },
                {
                    "name": "A#5",
                    "midi": 82,
                    "time": 81.25006500000019,
                    "velocity": 0.8976377952755905,
                    "duration": 0.5555559999999957
                },
                {
                    "name": "A#4",
                    "midi": 70,
                    "time": 81.80562100000019,
                    "velocity": 0.8976377952755905,
                    "duration": 0.5555559999999957
                },
                {
                    "name": "F#5",
                    "midi": 78,
                    "time": 81.80562100000019,
                    "velocity": 0.8976377952755905,
                    "duration": 0.5555559999999957
                },
                {
                    "name": "A#5",
                    "midi": 82,
                    "time": 81.80562100000019,
                    "velocity": 0.8976377952755905,
                    "duration": 0.5555559999999957
                },
                {
                    "name": "C5",
                    "midi": 72,
                    "time": 82.50006600000019,
                    "velocity": 0.8976377952755905,
                    "duration": 0.27777799999999786
                },
                {
                    "name": "G#5",
                    "midi": 80,
                    "time": 82.50006600000019,
                    "velocity": 0.8976377952755905,
                    "duration": 0.27777799999999786
                },
                {
                    "name": "C6",
                    "midi": 84,
                    "time": 82.50006600000019,
                    "velocity": 0.8976377952755905,
                    "duration": 0.27777799999999786
                },
                {
                    "name": "C#5",
                    "midi": 73,
                    "time": 82.77784400000019,
                    "velocity": 0.8976377952755905,
                    "duration": 0.27777799999999786
                },
                {
                    "name": "A#5",
                    "midi": 82,
                    "time": 82.77784400000019,
                    "velocity": 0.8976377952755905,
                    "duration": 0.27777799999999786
                },
                {
                    "name": "C#6",
                    "midi": 85,
                    "time": 82.77784400000019,
                    "velocity": 0.8976377952755905,
                    "duration": 0.27777799999999786
                },
                {
                    "name": "D#5",
                    "midi": 75,
                    "time": 83.05562200000018,
                    "velocity": 0.8976377952755905,
                    "duration": 0.5555559999999957
                },
                {
                    "name": "C6",
                    "midi": 84,
                    "time": 83.05562200000018,
                    "velocity": 0.8976377952755905,
                    "duration": 0.5555559999999957
                },
                {
                    "name": "D#6",
                    "midi": 87,
                    "time": 83.05562200000018,
                    "velocity": 0.8976377952755905,
                    "duration": 0.5555559999999957
                },
                {
                    "name": "C#5",
                    "midi": 73,
                    "time": 83.61117800000018,
                    "velocity": 0.8976377952755905,
                    "duration": 0.5555559999999957
                },
                {
                    "name": "A#5",
                    "midi": 82,
                    "time": 83.61117800000018,
                    "velocity": 0.8976377952755905,
                    "duration": 0.5555559999999957
                },
                {
                    "name": "C#6",
                    "midi": 85,
                    "time": 83.61117800000018,
                    "velocity": 0.8976377952755905,
                    "duration": 0.5555559999999957
                },
                {
                    "name": "C5",
                    "midi": 72,
                    "time": 84.16673400000018,
                    "velocity": 0.8976377952755905,
                    "duration": 0.5555559999999957
                },
                {
                    "name": "G#5",
                    "midi": 80,
                    "time": 84.16673400000018,
                    "velocity": 0.8976377952755905,
                    "duration": 0.5555559999999957
                },
                {
                    "name": "C6",
                    "midi": 84,
                    "time": 84.16673400000018,
                    "velocity": 0.8976377952755905,
                    "duration": 0.5555559999999957
                },
                {
                    "name": "A#4",
                    "midi": 70,
                    "time": 84.86117900000018,
                    "velocity": 0.8976377952755905,
                    "duration": 0.5555559999999957
                },
                {
                    "name": "F#5",
                    "midi": 78,
                    "time": 84.86117900000018,
                    "velocity": 0.8976377952755905,
                    "duration": 0.5555559999999957
                },
                {
                    "name": "A#5",
                    "midi": 82,
                    "time": 84.86117900000018,
                    "velocity": 0.8976377952755905,
                    "duration": 0.5555559999999957
                },
                {
                    "name": "A#4",
                    "midi": 70,
                    "time": 85.41673500000017,
                    "velocity": 0.8976377952755905,
                    "duration": 0.5555559999999957
                },
                {
                    "name": "F#5",
                    "midi": 78,
                    "time": 85.41673500000017,
                    "velocity": 0.8976377952755905,
                    "duration": 0.5555559999999957
                },
                {
                    "name": "A#5",
                    "midi": 82,
                    "time": 85.41673500000017,
                    "velocity": 0.8976377952755905,
                    "duration": 0.5555559999999957
                },
                {
                    "name": "C5",
                    "midi": 72,
                    "time": 85.97229100000017,
                    "velocity": 0.8976377952755905,
                    "duration": 0.27777799999999786
                },
                {
                    "name": "G#5",
                    "midi": 80,
                    "time": 85.97229100000017,
                    "velocity": 0.8976377952755905,
                    "duration": 0.27777799999999786
                },
                {
                    "name": "C6",
                    "midi": 84,
                    "time": 85.97229100000017,
                    "velocity": 0.8976377952755905,
                    "duration": 0.27777799999999786
                },
                {
                    "name": "C#5",
                    "midi": 73,
                    "time": 86.25006900000017,
                    "velocity": 0.8976377952755905,
                    "duration": 0.27777799999999786
                },
                {
                    "name": "A#5",
                    "midi": 82,
                    "time": 86.25006900000017,
                    "velocity": 0.8976377952755905,
                    "duration": 0.27777799999999786
                },
                {
                    "name": "C#6",
                    "midi": 85,
                    "time": 86.25006900000017,
                    "velocity": 0.8976377952755905,
                    "duration": 0.27777799999999786
                },
                {
                    "name": "D#5",
                    "midi": 75,
                    "time": 86.52784700000016,
                    "velocity": 0.8976377952755905,
                    "duration": 0.5555559999999957
                },
                {
                    "name": "C6",
                    "midi": 84,
                    "time": 86.52784700000016,
                    "velocity": 0.8976377952755905,
                    "duration": 0.5555559999999957
                },
                {
                    "name": "D#6",
                    "midi": 87,
                    "time": 86.52784700000016,
                    "velocity": 0.8976377952755905,
                    "duration": 0.5555559999999957
                },
                {
                    "name": "A#4",
                    "midi": 70,
                    "time": 87.08340300000016,
                    "velocity": 0.8976377952755905,
                    "duration": 0.5555559999999957
                },
                {
                    "name": "F#5",
                    "midi": 78,
                    "time": 87.08340300000016,
                    "velocity": 0.8976377952755905,
                    "duration": 0.5555559999999957
                },
                {
                    "name": "A#5",
                    "midi": 82,
                    "time": 87.08340300000016,
                    "velocity": 0.8976377952755905,
                    "duration": 0.5555559999999957
                },
                {
                    "name": "A#4",
                    "midi": 70,
                    "time": 87.63895900000016,
                    "velocity": 0.8976377952755905,
                    "duration": 0.5555559999999957
                },
                {
                    "name": "F#5",
                    "midi": 78,
                    "time": 87.63895900000016,
                    "velocity": 0.8976377952755905,
                    "duration": 0.5555559999999957
                },
                {
                    "name": "A#5",
                    "midi": 82,
                    "time": 87.63895900000016,
                    "velocity": 0.8976377952755905,
                    "duration": 0.5555559999999957
                },
                {
                    "name": "A#4",
                    "midi": 70,
                    "time": 88.19451500000015,
                    "velocity": 0.8976377952755905,
                    "duration": 0.5555559999999957
                },
                {
                    "name": "F#5",
                    "midi": 78,
                    "time": 88.19451500000015,
                    "velocity": 0.8976377952755905,
                    "duration": 0.5555559999999957
                },
                {
                    "name": "A#5",
                    "midi": 82,
                    "time": 88.19451500000015,
                    "velocity": 0.8976377952755905,
                    "duration": 0.5555559999999957
                },
                {
                    "name": "C5",
                    "midi": 72,
                    "time": 88.75007100000015,
                    "velocity": 0.8976377952755905,
                    "duration": 0.27777799999999786
                },
                {
                    "name": "G#5",
                    "midi": 80,
                    "time": 88.75007100000015,
                    "velocity": 0.8976377952755905,
                    "duration": 0.27777799999999786
                },
                {
                    "name": "C6",
                    "midi": 84,
                    "time": 88.75007100000015,
                    "velocity": 0.8976377952755905,
                    "duration": 0.27777799999999786
                },
                {
                    "name": "C#5",
                    "midi": 73,
                    "time": 89.02784900000015,
                    "velocity": 0.8976377952755905,
                    "duration": 0.27777799999999786
                },
                {
                    "name": "A#5",
                    "midi": 82,
                    "time": 89.02784900000015,
                    "velocity": 0.8976377952755905,
                    "duration": 0.27777799999999786
                },
                {
                    "name": "C#6",
                    "midi": 85,
                    "time": 89.02784900000015,
                    "velocity": 0.8976377952755905,
                    "duration": 0.27777799999999786
                },
                {
                    "name": "D#5",
                    "midi": 75,
                    "time": 89.30562700000014,
                    "velocity": 0.8976377952755905,
                    "duration": 0.5555559999999957
                },
                {
                    "name": "C6",
                    "midi": 84,
                    "time": 89.30562700000014,
                    "velocity": 0.8976377952755905,
                    "duration": 0.5555559999999957
                },
                {
                    "name": "D#6",
                    "midi": 87,
                    "time": 89.30562700000014,
                    "velocity": 0.8976377952755905,
                    "duration": 0.5555559999999957
                },
                {
                    "name": "A#4",
                    "midi": 70,
                    "time": 90.55562800000014,
                    "velocity": 0.8976377952755905,
                    "duration": 0.5555559999999957
                },
                {
                    "name": "F#5",
                    "midi": 78,
                    "time": 90.55562800000014,
                    "velocity": 0.8976377952755905,
                    "duration": 0.5555559999999957
                },
                {
                    "name": "A#5",
                    "midi": 82,
                    "time": 90.55562800000014,
                    "velocity": 0.8976377952755905,
                    "duration": 0.5555559999999957
                },
                {
                    "name": "A#4",
                    "midi": 70,
                    "time": 91.11118400000014,
                    "velocity": 0.8976377952755905,
                    "duration": 0.5555559999999957
                },
                {
                    "name": "F#5",
                    "midi": 78,
                    "time": 91.11118400000014,
                    "velocity": 0.8976377952755905,
                    "duration": 0.5555559999999957
                },
                {
                    "name": "A#5",
                    "midi": 82,
                    "time": 91.11118400000014,
                    "velocity": 0.8976377952755905,
                    "duration": 0.5555559999999957
                },
                {
                    "name": "A#4",
                    "midi": 70,
                    "time": 91.66674000000013,
                    "velocity": 0.8976377952755905,
                    "duration": 0.5555559999999957
                },
                {
                    "name": "F#5",
                    "midi": 78,
                    "time": 91.66674000000013,
                    "velocity": 0.8976377952755905,
                    "duration": 0.5555559999999957
                },
                {
                    "name": "A#5",
                    "midi": 82,
                    "time": 91.66674000000013,
                    "velocity": 0.8976377952755905,
                    "duration": 0.5555559999999957
                },
                {
                    "name": "A#4",
                    "midi": 70,
                    "time": 92.22229600000013,
                    "velocity": 0.8976377952755905,
                    "duration": 0.5555559999999957
                },
                {
                    "name": "F#5",
                    "midi": 78,
                    "time": 92.22229600000013,
                    "velocity": 0.8976377952755905,
                    "duration": 0.5555559999999957
                },
                {
                    "name": "A#5",
                    "midi": 82,
                    "time": 92.22229600000013,
                    "velocity": 0.8976377952755905,
                    "duration": 0.5555559999999957
                },
                {
                    "name": "A#4",
                    "midi": 70,
                    "time": 92.77785200000012,
                    "velocity": 0.8976377952755905,
                    "duration": 0.5555559999999957
                },
                {
                    "name": "F#5",
                    "midi": 78,
                    "time": 92.77785200000012,
                    "velocity": 0.8976377952755905,
                    "duration": 0.5555559999999957
                },
                {
                    "name": "A#5",
                    "midi": 82,
                    "time": 92.77785200000012,
                    "velocity": 0.8976377952755905,
                    "duration": 0.5555559999999957
                },
                {
                    "name": "A#4",
                    "midi": 70,
                    "time": 93.33340800000012,
                    "velocity": 0.8976377952755905,
                    "duration": 0.5555559999999957
                },
                {
                    "name": "F#5",
                    "midi": 78,
                    "time": 93.33340800000012,
                    "velocity": 0.8976377952755905,
                    "duration": 0.5555559999999957
                },
                {
                    "name": "A#5",
                    "midi": 82,
                    "time": 93.33340800000012,
                    "velocity": 0.8976377952755905,
                    "duration": 0.5555559999999957
                },
                {
                    "name": "B4",
                    "midi": 71,
                    "time": 94.58340900000012,
                    "velocity": 0.8976377952755905,
                    "duration": 0.5555559999999957
                },
                {
                    "name": "G#5",
                    "midi": 80,
                    "time": 94.58340900000012,
                    "velocity": 0.8976377952755905,
                    "duration": 0.5555559999999957
                },
                {
                    "name": "B5",
                    "midi": 83,
                    "time": 94.58340900000012,
                    "velocity": 0.8976377952755905,
                    "duration": 0.5555559999999957
                },
                {
                    "name": "B4",
                    "midi": 71,
                    "time": 95.13896500000011,
                    "velocity": 0.8976377952755905,
                    "duration": 0.5555559999999957
                },
                {
                    "name": "G#5",
                    "midi": 80,
                    "time": 95.13896500000011,
                    "velocity": 0.8976377952755905,
                    "duration": 0.5555559999999957
                },
                {
                    "name": "B5",
                    "midi": 83,
                    "time": 95.13896500000011,
                    "velocity": 0.8976377952755905,
                    "duration": 0.5555559999999957
                },
                {
                    "name": "B4",
                    "midi": 71,
                    "time": 95.69452100000011,
                    "velocity": 0.8976377952755905,
                    "duration": 0.5555559999999957
                },
                {
                    "name": "G#5",
                    "midi": 80,
                    "time": 95.69452100000011,
                    "velocity": 0.8976377952755905,
                    "duration": 0.5555559999999957
                },
                {
                    "name": "B5",
                    "midi": 83,
                    "time": 95.69452100000011,
                    "velocity": 0.8976377952755905,
                    "duration": 0.5555559999999957
                },
                {
                    "name": "C5",
                    "midi": 72,
                    "time": 96.38896600000011,
                    "velocity": 0.8976377952755905,
                    "duration": 0.27777799999999786
                },
                {
                    "name": "G#5",
                    "midi": 80,
                    "time": 96.38896600000011,
                    "velocity": 0.8976377952755905,
                    "duration": 0.27777799999999786
                },
                {
                    "name": "C6",
                    "midi": 84,
                    "time": 96.38896600000011,
                    "velocity": 0.8976377952755905,
                    "duration": 0.27777799999999786
                },
                {
                    "name": "C#5",
                    "midi": 73,
                    "time": 96.66674400000011,
                    "velocity": 0.8976377952755905,
                    "duration": 0.27777799999999786
                },
                {
                    "name": "A#5",
                    "midi": 82,
                    "time": 96.66674400000011,
                    "velocity": 0.8976377952755905,
                    "duration": 0.27777799999999786
                },
                {
                    "name": "C#6",
                    "midi": 85,
                    "time": 96.66674400000011,
                    "velocity": 0.8976377952755905,
                    "duration": 0.27777799999999786
                },
                {
                    "name": "D#5",
                    "midi": 75,
                    "time": 96.9445220000001,
                    "velocity": 0.8976377952755905,
                    "duration": 1.6666680000000014
                },
                {
                    "name": "C6",
                    "midi": 84,
                    "time": 96.9445220000001,
                    "velocity": 0.8976377952755905,
                    "duration": 1.6666680000000014
                },
                {
                    "name": "D#6",
                    "midi": 87,
                    "time": 96.9445220000001,
                    "velocity": 0.8976377952755905,
                    "duration": 1.6666680000000014
                },
                {
                    "name": "C5",
                    "midi": 72,
                    "time": 98.61119000000011,
                    "velocity": 0.8976377952755905,
                    "duration": 0.5555559999999957
                },
                {
                    "name": "G#5",
                    "midi": 80,
                    "time": 98.61119000000011,
                    "velocity": 0.8976377952755905,
                    "duration": 0.5555559999999957
                },
                {
                    "name": "C6",
                    "midi": 84,
                    "time": 98.61119000000011,
                    "velocity": 0.8976377952755905,
                    "duration": 0.5555559999999957
                },
                {
                    "name": "C5",
                    "midi": 72,
                    "time": 99.1667460000001,
                    "velocity": 0.8976377952755905,
                    "duration": 0.5555559999999957
                },
                {
                    "name": "G#5",
                    "midi": 80,
                    "time": 99.1667460000001,
                    "velocity": 0.8976377952755905,
                    "duration": 0.5555559999999957
                },
                {
                    "name": "C6",
                    "midi": 84,
                    "time": 99.1667460000001,
                    "velocity": 0.8976377952755905,
                    "duration": 0.5555559999999957
                },
                {
                    "name": "C5",
                    "midi": 72,
                    "time": 99.7223020000001,
                    "velocity": 0.8976377952755905,
                    "duration": 0.5555559999999957
                },
                {
                    "name": "G#5",
                    "midi": 80,
                    "time": 99.7223020000001,
                    "velocity": 0.8976377952755905,
                    "duration": 0.5555559999999957
                },
                {
                    "name": "C6",
                    "midi": 84,
                    "time": 99.7223020000001,
                    "velocity": 0.8976377952755905,
                    "duration": 0.5555559999999957
                },
                {
                    "name": "C5",
                    "midi": 72,
                    "time": 100.4167470000001,
                    "velocity": 0.8976377952755905,
                    "duration": 0.27777799999999786
                },
                {
                    "name": "G#5",
                    "midi": 80,
                    "time": 100.4167470000001,
                    "velocity": 0.8976377952755905,
                    "duration": 0.27777799999999786
                },
                {
                    "name": "C6",
                    "midi": 84,
                    "time": 100.4167470000001,
                    "velocity": 0.8976377952755905,
                    "duration": 0.27777799999999786
                },
                {
                    "name": "C#5",
                    "midi": 73,
                    "time": 100.6945250000001,
                    "velocity": 0.8976377952755905,
                    "duration": 0.27777799999999786
                },
                {
                    "name": "A#5",
                    "midi": 82,
                    "time": 100.6945250000001,
                    "velocity": 0.8976377952755905,
                    "duration": 0.27777799999999786
                },
                {
                    "name": "C#6",
                    "midi": 85,
                    "time": 100.6945250000001,
                    "velocity": 0.8976377952755905,
                    "duration": 0.27777799999999786
                },
                {
                    "name": "D#5",
                    "midi": 75,
                    "time": 100.9723030000001,
                    "velocity": 0.8976377952755905,
                    "duration": 0.5555559999999957
                },
                {
                    "name": "C6",
                    "midi": 84,
                    "time": 100.9723030000001,
                    "velocity": 0.8976377952755905,
                    "duration": 0.5555559999999957
                },
                {
                    "name": "D#6",
                    "midi": 87,
                    "time": 100.9723030000001,
                    "velocity": 0.8976377952755905,
                    "duration": 0.5555559999999957
                },
                {
                    "name": "C5",
                    "midi": 72,
                    "time": 101.52785900000009,
                    "velocity": 0.8976377952755905,
                    "duration": 0.27777799999999786
                },
                {
                    "name": "G#5",
                    "midi": 80,
                    "time": 101.52785900000009,
                    "velocity": 0.8976377952755905,
                    "duration": 0.27777799999999786
                },
                {
                    "name": "C6",
                    "midi": 84,
                    "time": 101.52785900000009,
                    "velocity": 0.8976377952755905,
                    "duration": 0.27777799999999786
                },
                {
                    "name": "C#5",
                    "midi": 73,
                    "time": 101.80563700000009,
                    "velocity": 0.8976377952755905,
                    "duration": 0.27777799999999786
                },
                {
                    "name": "A#5",
                    "midi": 82,
                    "time": 101.80563700000009,
                    "velocity": 0.8976377952755905,
                    "duration": 0.27777799999999786
                },
                {
                    "name": "C#6",
                    "midi": 85,
                    "time": 101.80563700000009,
                    "velocity": 0.8976377952755905,
                    "duration": 0.27777799999999786
                },
                {
                    "name": "D#5",
                    "midi": 75,
                    "time": 102.08341500000009,
                    "velocity": 0.8976377952755905,
                    "duration": 0.5555559999999957
                },
                {
                    "name": "C6",
                    "midi": 84,
                    "time": 102.08341500000009,
                    "velocity": 0.8976377952755905,
                    "duration": 0.5555559999999957
                },
                {
                    "name": "D#6",
                    "midi": 87,
                    "time": 102.08341500000009,
                    "velocity": 0.8976377952755905,
                    "duration": 0.5555559999999957
                },
                {
                    "name": "A#4",
                    "midi": 70,
                    "time": 102.63897100000008,
                    "velocity": 0.8976377952755905,
                    "duration": 0.5555559999999957
                },
                {
                    "name": "F#5",
                    "midi": 78,
                    "time": 102.63897100000008,
                    "velocity": 0.8976377952755905,
                    "duration": 0.5555559999999957
                },
                {
                    "name": "A#5",
                    "midi": 82,
                    "time": 102.63897100000008,
                    "velocity": 0.8976377952755905,
                    "duration": 0.5555559999999957
                },
                {
                    "name": "F3",
                    "midi": 53,
                    "time": 103.19452700000008,
                    "velocity": 0.8976377952755905,
                    "duration": 0.5555559999999957
                },
                {
                    "name": "G#3",
                    "midi": 56,
                    "time": 103.19452700000008,
                    "velocity": 0.8976377952755905,
                    "duration": 0.5555559999999957
                },
                {
                    "name": "B3",
                    "midi": 59,
                    "time": 103.19452700000008,
                    "velocity": 0.8976377952755905,
                    "duration": 0.5555559999999957
                },
                {
                    "name": "E4",
                    "midi": 64,
                    "time": 103.19452700000008,
                    "velocity": 0.8976377952755905,
                    "duration": 0.5555559999999957
                },
                {
                    "name": "A#4",
                    "midi": 70,
                    "time": 103.19452700000008,
                    "velocity": 0.8976377952755905,
                    "duration": 0.5555559999999957
                },
                {
                    "name": "F#5",
                    "midi": 78,
                    "time": 103.19452700000008,
                    "velocity": 0.8976377952755905,
                    "duration": 0.5555559999999957
                },
                {
                    "name": "A#5",
                    "midi": 82,
                    "time": 103.19452700000008,
                    "velocity": 0.8976377952755905,
                    "duration": 0.5555559999999957
                },
                {
                    "name": "G#4",
                    "midi": 68,
                    "time": 103.75008300000007,
                    "velocity": 0.8976377952755905,
                    "duration": 0.27777799999999786
                },
                {
                    "name": "C5",
                    "midi": 72,
                    "time": 103.75008300000007,
                    "velocity": 0.8976377952755905,
                    "duration": 0.27777799999999786
                },
                {
                    "name": "G#5",
                    "midi": 80,
                    "time": 103.75008300000007,
                    "velocity": 0.8976377952755905,
                    "duration": 0.27777799999999786
                },
                {
                    "name": "C6",
                    "midi": 84,
                    "time": 103.75008300000007,
                    "velocity": 0.8976377952755905,
                    "duration": 0.27777799999999786
                },
                {
                    "name": "A#4",
                    "midi": 70,
                    "time": 104.02786100000007,
                    "velocity": 0.8976377952755905,
                    "duration": 0.27777799999999786
                },
                {
                    "name": "C#5",
                    "midi": 73,
                    "time": 104.02786100000007,
                    "velocity": 0.8976377952755905,
                    "duration": 0.27777799999999786
                },
                {
                    "name": "A#5",
                    "midi": 82,
                    "time": 104.02786100000007,
                    "velocity": 0.8976377952755905,
                    "duration": 0.27777799999999786
                },
                {
                    "name": "C#6",
                    "midi": 85,
                    "time": 104.02786100000007,
                    "velocity": 0.8976377952755905,
                    "duration": 0.27777799999999786
                },
                {
                    "name": "C5",
                    "midi": 72,
                    "time": 104.30563900000007,
                    "velocity": 0.8976377952755905,
                    "duration": 1.6666680000000014
                },
                {
                    "name": "D#5",
                    "midi": 75,
                    "time": 104.30563900000007,
                    "velocity": 0.8976377952755905,
                    "duration": 1.6666680000000014
                },
                {
                    "name": "C6",
                    "midi": 84,
                    "time": 104.30563900000007,
                    "velocity": 0.8976377952755905,
                    "duration": 1.6666680000000014
                },
                {
                    "name": "D#6",
                    "midi": 87,
                    "time": 104.30563900000007,
                    "velocity": 0.8976377952755905,
                    "duration": 1.6666680000000014
                },
                {
                    "name": "B6",
                    "midi": 95,
                    "time": 106.25008500000007,
                    "velocity": 0.7952755905511811,
                    "duration": 0.09259266666666122
                },
                {
                    "name": "A6",
                    "midi": 93,
                    "time": 106.34267766666673,
                    "velocity": 0.7952755905511811,
                    "duration": 0.09143525833333399
                },
                {
                    "name": "A7",
                    "midi": 105,
                    "time": 106.34267766666673,
                    "velocity": 0.7952755905511811,
                    "duration": 0.09143525833333399
                },
                {
                    "name": "B6",
                    "midi": 95,
                    "time": 106.43411292500006,
                    "velocity": 0.7952755905511811,
                    "duration": 0.09375007500000265
                },
                {
                    "name": "G6",
                    "midi": 91,
                    "time": 106.52786300000007,
                    "velocity": 0.7952755905511811,
                    "duration": 0.05439819166666382
                },
                {
                    "name": "G7",
                    "midi": 103,
                    "time": 106.52786300000007,
                    "velocity": 0.7952755905511811,
                    "duration": 0.05439819166666382
                },
                {
                    "name": "B6",
                    "midi": 95,
                    "time": 107.08341900000006,
                    "velocity": 0.7952755905511811,
                    "duration": 0.09259266666666122
                },
                {
                    "name": "A6",
                    "midi": 93,
                    "time": 107.17601166666672,
                    "velocity": 0.7952755905511811,
                    "duration": 0.09143525833333399
                },
                {
                    "name": "A7",
                    "midi": 105,
                    "time": 107.17601166666672,
                    "velocity": 0.7952755905511811,
                    "duration": 0.09143525833333399
                },
                {
                    "name": "B6",
                    "midi": 95,
                    "time": 107.26744692500006,
                    "velocity": 0.7952755905511811,
                    "duration": 0.09375007500000265
                },
                {
                    "name": "G6",
                    "midi": 91,
                    "time": 107.36119700000006,
                    "velocity": 0.7952755905511811,
                    "duration": 0.05439819166666382
                },
                {
                    "name": "G7",
                    "midi": 103,
                    "time": 107.36119700000006,
                    "velocity": 0.7952755905511811,
                    "duration": 0.05439819166666382
                },
                {
                    "name": "G5",
                    "midi": 79,
                    "time": 107.63897500000006,
                    "velocity": 1,
                    "duration": 0.5555559999999957
                },
                {
                    "name": "C6",
                    "midi": 84,
                    "time": 107.63897500000006,
                    "velocity": 1,
                    "duration": 0.5555559999999957
                },
                {
                    "name": "D#6",
                    "midi": 87,
                    "time": 107.63897500000006,
                    "velocity": 1,
                    "duration": 0.5555559999999957
                },
                {
                    "name": "G6",
                    "midi": 91,
                    "time": 107.63897500000006,
                    "velocity": 1,
                    "duration": 0.5555559999999957
                },
                {
                    "name": "G4",
                    "midi": 67,
                    "time": 108.33342000000006,
                    "velocity": 0.5905511811023622,
                    "duration": 0.13888900000000604
                },
                {
                    "name": "C5",
                    "midi": 72,
                    "time": 108.61119800000007,
                    "velocity": 0.5905511811023622,
                    "duration": 0.13888900000000604
                },
                {
                    "name": "D5",
                    "midi": 74,
                    "time": 108.88897600000008,
                    "velocity": 0.5905511811023622,
                    "duration": 0.13888900000000604
                },
                {
                    "name": "G5",
                    "midi": 79,
                    "time": 109.1667540000001,
                    "velocity": 0.5905511811023622,
                    "duration": 0.13888900000000604
                },
                {
                    "name": "F5",
                    "midi": 77,
                    "time": 109.44453200000011,
                    "velocity": 0.5905511811023622,
                    "duration": 0.13888900000000604
                },
                {
                    "name": "C5",
                    "midi": 72,
                    "time": 109.72231000000012,
                    "velocity": 0.5905511811023622,
                    "duration": 0.13888900000000604
                },
                {
                    "name": "G4",
                    "midi": 67,
                    "time": 109.86119900000013,
                    "velocity": 0.5905511811023622,
                    "duration": 0.05439819166666382
                },
                {
                    "name": "G5",
                    "midi": 79,
                    "time": 109.86119900000013,
                    "velocity": 0.5905511811023622,
                    "duration": 0.05439819166666382
                },
                {
                    "name": "G5",
                    "midi": 79,
                    "time": 110.55564400000013,
                    "velocity": 0.5905511811023622,
                    "duration": 0.13888900000000604
                },
                {
                    "name": "C6",
                    "midi": 84,
                    "time": 110.83342200000014,
                    "velocity": 0.5905511811023622,
                    "duration": 0.13888900000000604
                },
                {
                    "name": "D6",
                    "midi": 86,
                    "time": 111.11120000000015,
                    "velocity": 0.5905511811023622,
                    "duration": 0.13888900000000604
                },
                {
                    "name": "G6",
                    "midi": 91,
                    "time": 111.38897800000017,
                    "velocity": 0.5905511811023622,
                    "duration": 0.13888900000000604
                },
                {
                    "name": "F6",
                    "midi": 89,
                    "time": 111.66675600000018,
                    "velocity": 0.5905511811023622,
                    "duration": 0.13888900000000604
                },
                {
                    "name": "C6",
                    "midi": 84,
                    "time": 111.94453400000019,
                    "velocity": 0.5905511811023622,
                    "duration": 0.13888900000000604
                },
                {
                    "name": "G5",
                    "midi": 79,
                    "time": 112.0834230000002,
                    "velocity": 0.5905511811023622,
                    "duration": 0.05439819166666382
                },
                {
                    "name": "G6",
                    "midi": 91,
                    "time": 112.0834230000002,
                    "velocity": 0.5905511811023622,
                    "duration": 0.05439819166666382
                },
                {
                    "name": "G4",
                    "midi": 67,
                    "time": 112.63897900000019,
                    "velocity": 0.5905511811023622,
                    "duration": 0.13888900000000604
                },
                {
                    "name": "C5",
                    "midi": 72,
                    "time": 112.7778680000002,
                    "velocity": 0.5905511811023622,
                    "duration": 0.13888900000000604
                },
                {
                    "name": "D5",
                    "midi": 74,
                    "time": 112.9167570000002,
                    "velocity": 0.5905511811023622,
                    "duration": 0.13888900000000604
                },
                {
                    "name": "G5",
                    "midi": 79,
                    "time": 113.05564600000021,
                    "velocity": 0.5905511811023622,
                    "duration": 0.13888900000000604
                },
                {
                    "name": "C6",
                    "midi": 84,
                    "time": 113.19453500000022,
                    "velocity": 0.5905511811023622,
                    "duration": 0.13888900000000604
                },
                {
                    "name": "D6",
                    "midi": 86,
                    "time": 113.33342400000022,
                    "velocity": 0.5905511811023622,
                    "duration": 0.13888900000000604
                },
                {
                    "name": "G6",
                    "midi": 91,
                    "time": 113.47231300000023,
                    "velocity": 0.5905511811023622,
                    "duration": 0.13888900000000604
                },
                {
                    "name": "F6",
                    "midi": 89,
                    "time": 113.61120200000023,
                    "velocity": 0.5905511811023622,
                    "duration": 0.13888900000000604
                },
                {
                    "name": "C6",
                    "midi": 84,
                    "time": 113.75009100000024,
                    "velocity": 0.5905511811023622,
                    "duration": 0.13888900000000604
                },
                {
                    "name": "G5",
                    "midi": 79,
                    "time": 113.88898000000025,
                    "velocity": 0.5905511811023622,
                    "duration": 0.13888900000000604
                },
                {
                    "name": "F5",
                    "midi": 77,
                    "time": 114.02786900000025,
                    "velocity": 0.5905511811023622,
                    "duration": 0.13888900000000604
                },
                {
                    "name": "C5",
                    "midi": 72,
                    "time": 114.16675800000026,
                    "velocity": 0.5905511811023622,
                    "duration": 0.13888900000000604
                },
                {
                    "name": "G4",
                    "midi": 67,
                    "time": 114.30564700000026,
                    "velocity": 0.5905511811023622,
                    "duration": 0.05439819166666382
                },
                {
                    "name": "B5",
                    "midi": 83,
                    "time": 114.86120300000026,
                    "velocity": 0.7952755905511811,
                    "duration": 0.1111111999999963
                },
                {
                    "name": "C6",
                    "midi": 84,
                    "time": 114.86120300000026,
                    "velocity": 0.7952755905511811,
                    "duration": 0.1111111999999963
                },
                {
                    "name": "D#6",
                    "midi": 87,
                    "time": 114.86120300000026,
                    "velocity": 0.7952755905511811,
                    "duration": 0.1111111999999963
                },
                {
                    "name": "B6",
                    "midi": 95,
                    "time": 114.86120300000026,
                    "velocity": 0.7952755905511811,
                    "duration": 0.1111111999999963
                },
                {
                    "name": "G4",
                    "midi": 67,
                    "time": 115.41675900000025,
                    "velocity": 0.7952755905511811,
                    "duration": 0.1111111999999963
                },
                {
                    "name": "C5",
                    "midi": 72,
                    "time": 115.41675900000025,
                    "velocity": 0.7952755905511811,
                    "duration": 0.1111111999999963
                },
                {
                    "name": "D#5",
                    "midi": 75,
                    "time": 115.41675900000025,
                    "velocity": 0.7952755905511811,
                    "duration": 0.1111111999999963
                },
                {
                    "name": "G5",
                    "midi": 79,
                    "time": 115.41675900000025,
                    "velocity": 0.7952755905511811,
                    "duration": 0.1111111999999963
                },
                {
                    "name": "G4",
                    "midi": 67,
                    "time": 115.97231500000025,
                    "velocity": 0.5905511811023622,
                    "duration": 0.09259266666666122
                },
                {
                    "name": "C5",
                    "midi": 72,
                    "time": 116.06490766666691,
                    "velocity": 0.5905511811023622,
                    "duration": 0.09143525833333399
                },
                {
                    "name": "D5",
                    "midi": 74,
                    "time": 116.15634292500025,
                    "velocity": 0.5905511811023622,
                    "duration": 0.09375007500000265
                },
                {
                    "name": "G5",
                    "midi": 79,
                    "time": 116.25009300000025,
                    "velocity": 0.5905511811023622,
                    "duration": 0.09259266666666122
                },
                {
                    "name": "C6",
                    "midi": 84,
                    "time": 116.34268566666691,
                    "velocity": 0.5905511811023622,
                    "duration": 0.09143525833333399
                },
                {
                    "name": "D6",
                    "midi": 86,
                    "time": 116.43412092500024,
                    "velocity": 0.5905511811023622,
                    "duration": 0.09375007500000265
                },
                {
                    "name": "G6",
                    "midi": 91,
                    "time": 116.52787100000025,
                    "velocity": 0.5905511811023622,
                    "duration": 0.09259266666666122
                },
                {
                    "name": "C7",
                    "midi": 96,
                    "time": 116.62046366666691,
                    "velocity": 0.5905511811023622,
                    "duration": 0.09143525833333399
                },
                {
                    "name": "D7",
                    "midi": 98,
                    "time": 116.71189892500024,
                    "velocity": 0.5905511811023622,
                    "duration": 0.09375007500000265
                },
                {
                    "name": "G7",
                    "midi": 103,
                    "time": 116.80564900000024,
                    "velocity": 0.5905511811023622,
                    "duration": 0.09259266666666122
                },
                {
                    "name": "F7",
                    "midi": 101,
                    "time": 116.8982416666669,
                    "velocity": 0.5905511811023622,
                    "duration": 0.09143525833333399
                },
                {
                    "name": "C7",
                    "midi": 96,
                    "time": 116.98967692500024,
                    "velocity": 0.5905511811023622,
                    "duration": 0.09375007500000265
                },
                {
                    "name": "G6",
                    "midi": 91,
                    "time": 117.08342700000024,
                    "velocity": 0.5905511811023622,
                    "duration": 0.09259266666666122
                },
                {
                    "name": "F6",
                    "midi": 89,
                    "time": 117.1760196666669,
                    "velocity": 0.5905511811023622,
                    "duration": 0.09143525833333399
                },
                {
                    "name": "C6",
                    "midi": 84,
                    "time": 117.26745492500024,
                    "velocity": 0.5905511811023622,
                    "duration": 0.09375007500000265
                },
                {
                    "name": "G5",
                    "midi": 79,
                    "time": 117.36120500000024,
                    "velocity": 0.5905511811023622,
                    "duration": 0.09259266666666122
                },
                {
                    "name": "F5",
                    "midi": 77,
                    "time": 117.4537976666669,
                    "velocity": 0.5905511811023622,
                    "duration": 0.09143525833333399
                },
                {
                    "name": "C5",
                    "midi": 72,
                    "time": 117.54523292500024,
                    "velocity": 0.5905511811023622,
                    "duration": 0.09375007500000265
                },
                {
                    "name": "G4",
                    "midi": 67,
                    "time": 117.63898300000024,
                    "velocity": 0.5905511811023622,
                    "duration": 0.05439819166666382
                },
                {
                    "name": "G6",
                    "midi": 91,
                    "time": 118.19453900000023,
                    "velocity": 0.8976377952755905,
                    "duration": 0.5555559999999957
                },
                {
                    "name": "G#6",
                    "midi": 92,
                    "time": 118.19453900000023,
                    "velocity": 0.8976377952755905,
                    "duration": 0.5555559999999957
                },
                {
                    "name": "D#7",
                    "midi": 99,
                    "time": 118.19453900000023,
                    "velocity": 0.8976377952755905,
                    "duration": 0.5555559999999957
                },
                {
                    "name": "G7",
                    "midi": 103,
                    "time": 118.19453900000023,
                    "velocity": 0.8976377952755905,
                    "duration": 0.5555559999999957
                },
                {
                    "name": "E5",
                    "midi": 76,
                    "time": 118.75009500000023,
                    "velocity": 0.8976377952755905,
                    "duration": 0.5555559999999957
                },
                {
                    "name": "F5",
                    "midi": 77,
                    "time": 118.75009500000023,
                    "velocity": 0.8976377952755905,
                    "duration": 0.5555559999999957
                },
                {
                    "name": "C6",
                    "midi": 84,
                    "time": 118.75009500000023,
                    "velocity": 0.8976377952755905,
                    "duration": 0.5555559999999957
                },
                {
                    "name": "E6",
                    "midi": 88,
                    "time": 118.75009500000023,
                    "velocity": 0.8976377952755905,
                    "duration": 0.5555559999999957
                },
                {
                    "name": "G6",
                    "midi": 91,
                    "time": 119.30565100000022,
                    "velocity": 0.8976377952755905,
                    "duration": 0.5555559999999957
                },
                {
                    "name": "G#6",
                    "midi": 92,
                    "time": 119.30565100000022,
                    "velocity": 0.8976377952755905,
                    "duration": 0.5555559999999957
                },
                {
                    "name": "D#7",
                    "midi": 99,
                    "time": 119.30565100000022,
                    "velocity": 0.8976377952755905,
                    "duration": 0.5555559999999957
                },
                {
                    "name": "G7",
                    "midi": 103,
                    "time": 119.30565100000022,
                    "velocity": 0.8976377952755905,
                    "duration": 0.5555559999999957
                },
                {
                    "name": "E5",
                    "midi": 76,
                    "time": 119.86120700000022,
                    "velocity": 0.8976377952755905,
                    "duration": 0.5555559999999957
                },
                {
                    "name": "F5",
                    "midi": 77,
                    "time": 119.86120700000022,
                    "velocity": 0.8976377952755905,
                    "duration": 0.5555559999999957
                },
                {
                    "name": "C6",
                    "midi": 84,
                    "time": 119.86120700000022,
                    "velocity": 0.8976377952755905,
                    "duration": 0.5555559999999957
                },
                {
                    "name": "E6",
                    "midi": 88,
                    "time": 119.86120700000022,
                    "velocity": 0.8976377952755905,
                    "duration": 0.5555559999999957
                },
                {
                    "name": "G6",
                    "midi": 91,
                    "time": 120.41676300000022,
                    "velocity": 0.8976377952755905,
                    "duration": 0.5555559999999957
                },
                {
                    "name": "G#6",
                    "midi": 92,
                    "time": 120.41676300000022,
                    "velocity": 0.8976377952755905,
                    "duration": 0.5555559999999957
                },
                {
                    "name": "D#7",
                    "midi": 99,
                    "time": 120.41676300000022,
                    "velocity": 0.8976377952755905,
                    "duration": 0.5555559999999957
                },
                {
                    "name": "G7",
                    "midi": 103,
                    "time": 120.41676300000022,
                    "velocity": 0.8976377952755905,
                    "duration": 0.5555559999999957
                },
                {
                    "name": "E5",
                    "midi": 76,
                    "time": 120.97231900000021,
                    "velocity": 0.8976377952755905,
                    "duration": 0.5555559999999957
                },
                {
                    "name": "F5",
                    "midi": 77,
                    "time": 120.97231900000021,
                    "velocity": 0.8976377952755905,
                    "duration": 0.5555559999999957
                },
                {
                    "name": "C6",
                    "midi": 84,
                    "time": 120.97231900000021,
                    "velocity": 0.8976377952755905,
                    "duration": 0.5555559999999957
                },
                {
                    "name": "E6",
                    "midi": 88,
                    "time": 120.97231900000021,
                    "velocity": 0.8976377952755905,
                    "duration": 0.5555559999999957
                },
                {
                    "name": "G6",
                    "midi": 91,
                    "time": 121.52787500000021,
                    "velocity": 0.8976377952755905,
                    "duration": 0.5555559999999957
                },
                {
                    "name": "G#6",
                    "midi": 92,
                    "time": 121.52787500000021,
                    "velocity": 0.8976377952755905,
                    "duration": 0.5555559999999957
                },
                {
                    "name": "D#7",
                    "midi": 99,
                    "time": 121.52787500000021,
                    "velocity": 0.8976377952755905,
                    "duration": 0.5555559999999957
                },
                {
                    "name": "G7",
                    "midi": 103,
                    "time": 121.52787500000021,
                    "velocity": 0.8976377952755905,
                    "duration": 0.5555559999999957
                },
                {
                    "name": "E5",
                    "midi": 76,
                    "time": 122.0834310000002,
                    "velocity": 0.8976377952755905,
                    "duration": 0.5555559999999957
                },
                {
                    "name": "F5",
                    "midi": 77,
                    "time": 122.0834310000002,
                    "velocity": 0.8976377952755905,
                    "duration": 0.5555559999999957
                },
                {
                    "name": "C6",
                    "midi": 84,
                    "time": 122.0834310000002,
                    "velocity": 0.8976377952755905,
                    "duration": 0.5555559999999957
                },
                {
                    "name": "E6",
                    "midi": 88,
                    "time": 122.0834310000002,
                    "velocity": 0.8976377952755905,
                    "duration": 0.5555559999999957
                },
                {
                    "name": "B5",
                    "midi": 83,
                    "time": 122.6389870000002,
                    "velocity": 0.8976377952755905,
                    "duration": 0.5555559999999957
                },
                {
                    "name": "C6",
                    "midi": 84,
                    "time": 122.6389870000002,
                    "velocity": 0.8976377952755905,
                    "duration": 0.5555559999999957
                },
                {
                    "name": "D#6",
                    "midi": 87,
                    "time": 122.6389870000002,
                    "velocity": 0.8976377952755905,
                    "duration": 0.5555559999999957
                },
                {
                    "name": "B6",
                    "midi": 95,
                    "time": 122.6389870000002,
                    "velocity": 0.8976377952755905,
                    "duration": 0.5555559999999957
                },
                {
                    "name": "G4",
                    "midi": 67,
                    "time": 123.1945430000002,
                    "velocity": 0.5905511811023622,
                    "duration": 0.13888900000000604
                },
                {
                    "name": "C5",
                    "midi": 72,
                    "time": 123.3334320000002,
                    "velocity": 0.5905511811023622,
                    "duration": 0.13888900000000604
                },
                {
                    "name": "D5",
                    "midi": 74,
                    "time": 123.4723210000002,
                    "velocity": 0.5905511811023622,
                    "duration": 0.13888900000000604
                },
                {
                    "name": "G5",
                    "midi": 79,
                    "time": 123.61121000000021,
                    "velocity": 0.5905511811023622,
                    "duration": 0.13888900000000604
                },
                {
                    "name": "C6",
                    "midi": 84,
                    "time": 123.75009900000022,
                    "velocity": 0.5905511811023622,
                    "duration": 0.13888900000000604
                },
                {
                    "name": "D6",
                    "midi": 86,
                    "time": 123.88898800000023,
                    "velocity": 0.5905511811023622,
                    "duration": 0.13888900000000604
                },
                {
                    "name": "G6",
                    "midi": 91,
                    "time": 124.02787700000023,
                    "velocity": 0.5905511811023622,
                    "duration": 0.13888900000000604
                },
                {
                    "name": "D6",
                    "midi": 86,
                    "time": 124.16676600000024,
                    "velocity": 0.5905511811023622,
                    "duration": 0.13888900000000604
                },
                {
                    "name": "C6",
                    "midi": 84,
                    "time": 124.30565500000024,
                    "velocity": 0.5905511811023622,
                    "duration": 0.13888900000000604
                },
                {
                    "name": "G5",
                    "midi": 79,
                    "time": 124.44454400000025,
                    "velocity": 0.5905511811023622,
                    "duration": 0.13888900000000604
                },
                {
                    "name": "F5",
                    "midi": 77,
                    "time": 124.58343300000026,
                    "velocity": 0.5905511811023622,
                    "duration": 0.13888900000000604
                },
                {
                    "name": "C5",
                    "midi": 72,
                    "time": 124.72232200000026,
                    "velocity": 0.5905511811023622,
                    "duration": 0.13888900000000604
                },
                {
                    "name": "G4",
                    "midi": 67,
                    "time": 124.86121100000027,
                    "velocity": 0.5905511811023622,
                    "duration": 0.05439819166666382
                },
                {
                    "name": "G5",
                    "midi": 79,
                    "time": 125.41676700000026,
                    "velocity": 0.5905511811023622,
                    "duration": 0.13888900000000604
                },
                {
                    "name": "C6",
                    "midi": 84,
                    "time": 125.55565600000027,
                    "velocity": 0.5905511811023622,
                    "duration": 0.13888900000000604
                },
                {
                    "name": "D6",
                    "midi": 86,
                    "time": 125.69454500000028,
                    "velocity": 0.5905511811023622,
                    "duration": 0.13888900000000604
                },
                {
                    "name": "G6",
                    "midi": 91,
                    "time": 125.83343400000028,
                    "velocity": 0.5905511811023622,
                    "duration": 0.13888900000000604
                },
                {
                    "name": "C7",
                    "midi": 96,
                    "time": 125.97232300000029,
                    "velocity": 0.5905511811023622,
                    "duration": 0.13888900000000604
                },
                {
                    "name": "D7",
                    "midi": 98,
                    "time": 126.1112120000003,
                    "velocity": 0.5905511811023622,
                    "duration": 0.13888900000000604
                },
                {
                    "name": "G7",
                    "midi": 103,
                    "time": 126.2501010000003,
                    "velocity": 0.5905511811023622,
                    "duration": 0.13888900000000604
                },
                {
                    "name": "F7",
                    "midi": 101,
                    "time": 126.3889900000003,
                    "velocity": 0.5905511811023622,
                    "duration": 0.13888900000000604
                },
                {
                    "name": "C7",
                    "midi": 96,
                    "time": 126.52787900000031,
                    "velocity": 0.5905511811023622,
                    "duration": 0.13888900000000604
                },
                {
                    "name": "G6",
                    "midi": 91,
                    "time": 126.66676800000032,
                    "velocity": 0.5905511811023622,
                    "duration": 0.13888900000000604
                },
                {
                    "name": "F6",
                    "midi": 89,
                    "time": 126.80565700000032,
                    "velocity": 0.5905511811023622,
                    "duration": 0.13888900000000604
                },
                {
                    "name": "C6",
                    "midi": 84,
                    "time": 126.94454600000033,
                    "velocity": 0.5905511811023622,
                    "duration": 0.13888900000000604
                },
                {
                    "name": "G5",
                    "midi": 79,
                    "time": 127.08343500000034,
                    "velocity": 0.5905511811023622,
                    "duration": 0.05439819166666382
                },
                {
                    "name": "B5",
                    "midi": 83,
                    "time": 127.63899100000033,
                    "velocity": 0.7952755905511811,
                    "duration": 0.1111111999999963
                },
                {
                    "name": "C6",
                    "midi": 84,
                    "time": 127.63899100000033,
                    "velocity": 0.7952755905511811,
                    "duration": 0.1111111999999963
                },
                {
                    "name": "D#6",
                    "midi": 87,
                    "time": 127.63899100000033,
                    "velocity": 0.7952755905511811,
                    "duration": 0.1111111999999963
                },
                {
                    "name": "B6",
                    "midi": 95,
                    "time": 127.63899100000033,
                    "velocity": 0.7952755905511811,
                    "duration": 0.1111111999999963
                },
                {
                    "name": "G4",
                    "midi": 67,
                    "time": 128.19454700000034,
                    "velocity": 0.7952755905511811,
                    "duration": 0.11111120000001051
                },
                {
                    "name": "C5",
                    "midi": 72,
                    "time": 128.19454700000034,
                    "velocity": 0.7952755905511811,
                    "duration": 0.11111120000001051
                },
                {
                    "name": "D#5",
                    "midi": 75,
                    "time": 128.19454700000034,
                    "velocity": 0.7952755905511811,
                    "duration": 0.11111120000001051
                },
                {
                    "name": "G5",
                    "midi": 79,
                    "time": 128.19454700000034,
                    "velocity": 0.7952755905511811,
                    "duration": 0.11111120000001051
                },
                {
                    "name": "G4",
                    "midi": 67,
                    "time": 128.75010300000037,
                    "velocity": 0.5905511811023622,
                    "duration": 0.09259266666666122
                },
                {
                    "name": "C5",
                    "midi": 72,
                    "time": 128.84269566666703,
                    "velocity": 0.5905511811023622,
                    "duration": 0.09143525833331978
                },
                {
                    "name": "D5",
                    "midi": 74,
                    "time": 128.93413092500035,
                    "velocity": 0.5905511811023622,
                    "duration": 0.09375007500000265
                },
                {
                    "name": "G5",
                    "midi": 79,
                    "time": 129.02788100000035,
                    "velocity": 0.5905511811023622,
                    "duration": 0.09259266666666122
                },
                {
                    "name": "C6",
                    "midi": 84,
                    "time": 129.120473666667,
                    "velocity": 0.5905511811023622,
                    "duration": 0.09143525833331978
                },
                {
                    "name": "D6",
                    "midi": 86,
                    "time": 129.21190892500033,
                    "velocity": 0.5905511811023622,
                    "duration": 0.09375007500000265
                },
                {
                    "name": "G6",
                    "midi": 91,
                    "time": 129.30565900000033,
                    "velocity": 0.5905511811023622,
                    "duration": 0.09259266666666122
                },
                {
                    "name": "C7",
                    "midi": 96,
                    "time": 129.398251666667,
                    "velocity": 0.5905511811023622,
                    "duration": 0.09143525833331978
                },
                {
                    "name": "D7",
                    "midi": 98,
                    "time": 129.4896869250003,
                    "velocity": 0.5905511811023622,
                    "duration": 0.09375007500000265
                },
                {
                    "name": "G7",
                    "midi": 103,
                    "time": 129.58343700000032,
                    "velocity": 0.5905511811023622,
                    "duration": 0.09259266666666122
                },
                {
                    "name": "F7",
                    "midi": 101,
                    "time": 129.67602966666698,
                    "velocity": 0.5905511811023622,
                    "duration": 0.09143525833331978
                },
                {
                    "name": "C7",
                    "midi": 96,
                    "time": 129.7674649250003,
                    "velocity": 0.5905511811023622,
                    "duration": 0.09375007500000265
                },
                {
                    "name": "G6",
                    "midi": 91,
                    "time": 129.8612150000003,
                    "velocity": 0.5905511811023622,
                    "duration": 0.09259266666666122
                },
                {
                    "name": "F6",
                    "midi": 89,
                    "time": 129.95380766666696,
                    "velocity": 0.5905511811023622,
                    "duration": 0.09143525833331978
                },
                {
                    "name": "C6",
                    "midi": 84,
                    "time": 130.04524292500028,
                    "velocity": 0.5905511811023622,
                    "duration": 0.09375007500000265
                },
                {
                    "name": "G5",
                    "midi": 79,
                    "time": 130.13899300000028,
                    "velocity": 0.5905511811023622,
                    "duration": 0.09259266666666122
                },
                {
                    "name": "F5",
                    "midi": 77,
                    "time": 130.23158566666694,
                    "velocity": 0.5905511811023622,
                    "duration": 0.09143525833331978
                },
                {
                    "name": "C5",
                    "midi": 72,
                    "time": 130.32302092500026,
                    "velocity": 0.5905511811023622,
                    "duration": 0.09375007500000265
                },
                {
                    "name": "G4",
                    "midi": 67,
                    "time": 130.41677100000027,
                    "velocity": 0.5905511811023622,
                    "duration": 0.05439819166667803
                },
                {
                    "name": "B5",
                    "midi": 83,
                    "time": 130.9723270000003,
                    "velocity": 0.7952755905511811,
                    "duration": 0.5555559999999957
                },
                {
                    "name": "C6",
                    "midi": 84,
                    "time": 130.9723270000003,
                    "velocity": 0.7952755905511811,
                    "duration": 0.5555559999999957
                },
                {
                    "name": "D#6",
                    "midi": 87,
                    "time": 130.9723270000003,
                    "velocity": 0.7952755905511811,
                    "duration": 0.5555559999999957
                },
                {
                    "name": "B6",
                    "midi": 95,
                    "time": 130.9723270000003,
                    "velocity": 0.7952755905511811,
                    "duration": 0.5555559999999957
                },
                {
                    "name": "D#6",
                    "midi": 87,
                    "time": 131.5278830000003,
                    "velocity": 0.3858267716535433,
                    "duration": 0.06944450000000302
                },
                {
                    "name": "F6",
                    "midi": 89,
                    "time": 131.5973275000003,
                    "velocity": 0.3858267716535433,
                    "duration": 0.06944450000000302
                },
                {
                    "name": "D#6",
                    "midi": 87,
                    "time": 131.6667720000003,
                    "velocity": 0.3858267716535433,
                    "duration": 0.06944450000000302
                },
                {
                    "name": "F6",
                    "midi": 89,
                    "time": 131.7362165000003,
                    "velocity": 0.3858267716535433,
                    "duration": 0.06944450000000302
                },
                {
                    "name": "D#6",
                    "midi": 87,
                    "time": 131.8056610000003,
                    "velocity": 0.3858267716535433,
                    "duration": 0.06944450000000302
                },
                {
                    "name": "F6",
                    "midi": 89,
                    "time": 131.8751055000003,
                    "velocity": 0.3858267716535433,
                    "duration": 0.06944450000000302
                },
                {
                    "name": "D#6",
                    "midi": 87,
                    "time": 131.9445500000003,
                    "velocity": 0.3858267716535433,
                    "duration": 0.06944450000000302
                },
                {
                    "name": "F6",
                    "midi": 89,
                    "time": 132.0139945000003,
                    "velocity": 0.3858267716535433,
                    "duration": 0.06944450000000302
                },
                {
                    "name": "D#6",
                    "midi": 87,
                    "time": 132.0834390000003,
                    "velocity": 0.3858267716535433,
                    "duration": 0.06944450000000302
                },
                {
                    "name": "F6",
                    "midi": 89,
                    "time": 132.1528835000003,
                    "velocity": 0.3858267716535433,
                    "duration": 0.06944450000000302
                },
                {
                    "name": "D#6",
                    "midi": 87,
                    "time": 132.22232800000032,
                    "velocity": 0.3858267716535433,
                    "duration": 0.06944450000000302
                },
                {
                    "name": "F6",
                    "midi": 89,
                    "time": 132.29177250000032,
                    "velocity": 0.3858267716535433,
                    "duration": 0.06944450000000302
                },
                {
                    "name": "D#6",
                    "midi": 87,
                    "time": 132.36121700000032,
                    "velocity": 0.3858267716535433,
                    "duration": 0.06944450000000302
                },
                {
                    "name": "F6",
                    "midi": 89,
                    "time": 132.43066150000033,
                    "velocity": 0.3858267716535433,
                    "duration": 0.06944450000000302
                },
                {
                    "name": "D#6",
                    "midi": 87,
                    "time": 132.50010600000033,
                    "velocity": 0.3858267716535433,
                    "duration": 0.06944450000000302
                },
                {
                    "name": "F6",
                    "midi": 89,
                    "time": 132.56955050000033,
                    "velocity": 0.3858267716535433,
                    "duration": 0.06944450000000302
                },
                {
                    "name": "D#6",
                    "midi": 87,
                    "time": 132.63899500000034,
                    "velocity": 0.3858267716535433,
                    "duration": 0.06944450000000302
                },
                {
                    "name": "F6",
                    "midi": 89,
                    "time": 132.70843950000034,
                    "velocity": 0.3858267716535433,
                    "duration": 0.06944450000000302
                },
                {
                    "name": "D#6",
                    "midi": 87,
                    "time": 132.77788400000034,
                    "velocity": 0.3858267716535433,
                    "duration": 0.06944450000000302
                },
                {
                    "name": "F6",
                    "midi": 89,
                    "time": 132.84732850000034,
                    "velocity": 0.3858267716535433,
                    "duration": 0.06944450000000302
                },
                {
                    "name": "D#6",
                    "midi": 87,
                    "time": 132.91677300000035,
                    "velocity": 0.3858267716535433,
                    "duration": 0.06944450000000302
                },
                {
                    "name": "F6",
                    "midi": 89,
                    "time": 132.98621750000035,
                    "velocity": 0.3858267716535433,
                    "duration": 0.06944450000000302
                },
                {
                    "name": "D#6",
                    "midi": 87,
                    "time": 133.05566200000035,
                    "velocity": 0.3858267716535433,
                    "duration": 0.06944450000000302
                },
                {
                    "name": "F6",
                    "midi": 89,
                    "time": 133.12510650000036,
                    "velocity": 0.3858267716535433,
                    "duration": 0.06944450000000302
                },
                {
                    "name": "D#6",
                    "midi": 87,
                    "time": 133.19455100000036,
                    "velocity": 0.3858267716535433,
                    "duration": 0.06944450000000302
                },
                {
                    "name": "F6",
                    "midi": 89,
                    "time": 133.26399550000036,
                    "velocity": 0.3858267716535433,
                    "duration": 0.06944450000000302
                },
                {
                    "name": "D#6",
                    "midi": 87,
                    "time": 133.33344000000037,
                    "velocity": 0.3858267716535433,
                    "duration": 0.06944450000000302
                },
                {
                    "name": "F6",
                    "midi": 89,
                    "time": 133.40288450000037,
                    "velocity": 0.3858267716535433,
                    "duration": 0.06944450000000302
                },
                {
                    "name": "D#6",
                    "midi": 87,
                    "time": 133.47232900000037,
                    "velocity": 0.3858267716535433,
                    "duration": 0.06944450000000302
                },
                {
                    "name": "F6",
                    "midi": 89,
                    "time": 133.54177350000037,
                    "velocity": 0.3858267716535433,
                    "duration": 0.06944450000000302
                },
                {
                    "name": "D#6",
                    "midi": 87,
                    "time": 133.61121800000038,
                    "velocity": 0.3858267716535433,
                    "duration": 0.06944450000000302
                },
                {
                    "name": "F6",
                    "midi": 89,
                    "time": 133.68066250000038,
                    "velocity": 0.3858267716535433,
                    "duration": 0.06944450000000302
                },
                {
                    "name": "D#6",
                    "midi": 87,
                    "time": 133.75010700000038,
                    "velocity": 0.3858267716535433,
                    "duration": 0.06944450000000302
                },
                {
                    "name": "F6",
                    "midi": 89,
                    "time": 133.8195515000004,
                    "velocity": 0.3858267716535433,
                    "duration": 0.06944450000000302
                },
                {
                    "name": "D#6",
                    "midi": 87,
                    "time": 133.8889960000004,
                    "velocity": 0.3858267716535433,
                    "duration": 0.06944450000000302
                },
                {
                    "name": "F6",
                    "midi": 89,
                    "time": 133.9584405000004,
                    "velocity": 0.3858267716535433,
                    "duration": 0.06944450000000302
                },
                {
                    "name": "D#6",
                    "midi": 87,
                    "time": 134.0278850000004,
                    "velocity": 0.3858267716535433,
                    "duration": 0.06944450000000302
                },
                {
                    "name": "F6",
                    "midi": 89,
                    "time": 134.0973295000004,
                    "velocity": 0.3858267716535433,
                    "duration": 0.06944450000000302
                },
                {
                    "name": "D#6",
                    "midi": 87,
                    "time": 134.1667740000004,
                    "velocity": 0.3858267716535433,
                    "duration": 0.06944450000000302
                },
                {
                    "name": "F6",
                    "midi": 89,
                    "time": 134.2362185000004,
                    "velocity": 0.3858267716535433,
                    "duration": 0.06944450000000302
                },
                {
                    "name": "D#6",
                    "midi": 87,
                    "time": 134.3056630000004,
                    "velocity": 0.3858267716535433,
                    "duration": 0.06944450000000302
                },
                {
                    "name": "F6",
                    "midi": 89,
                    "time": 134.3751075000004,
                    "velocity": 0.3858267716535433,
                    "duration": 0.06944450000000302
                },
                {
                    "name": "D#6",
                    "midi": 87,
                    "time": 134.4445520000004,
                    "velocity": 0.3858267716535433,
                    "duration": 0.06944450000000302
                },
                {
                    "name": "F6",
                    "midi": 89,
                    "time": 134.51399650000042,
                    "velocity": 0.3858267716535433,
                    "duration": 0.06944450000000302
                },
                {
                    "name": "D#6",
                    "midi": 87,
                    "time": 134.58344100000042,
                    "velocity": 0.3858267716535433,
                    "duration": 0.06944450000000302
                },
                {
                    "name": "F6",
                    "midi": 89,
                    "time": 134.65288550000042,
                    "velocity": 0.3858267716535433,
                    "duration": 0.06944450000000302
                },
                {
                    "name": "D#6",
                    "midi": 87,
                    "time": 134.72233000000043,
                    "velocity": 0.3858267716535433,
                    "duration": 0.06944450000000302
                },
                {
                    "name": "F6",
                    "midi": 89,
                    "time": 134.79177450000043,
                    "velocity": 0.3858267716535433,
                    "duration": 0.06944450000000302
                },
                {
                    "name": "D#6",
                    "midi": 87,
                    "time": 134.86121900000043,
                    "velocity": 0.3858267716535433,
                    "duration": 0.06944450000000302
                },
                {
                    "name": "F6",
                    "midi": 89,
                    "time": 134.93066350000043,
                    "velocity": 0.3858267716535433,
                    "duration": 0.06944450000000302
                },
                {
                    "name": "D#6",
                    "midi": 87,
                    "time": 135.00010800000044,
                    "velocity": 0.3858267716535433,
                    "duration": 0.06944450000000302
                },
                {
                    "name": "F6",
                    "midi": 89,
                    "time": 135.06955250000044,
                    "velocity": 0.3858267716535433,
                    "duration": 0.06944450000000302
                },
                {
                    "name": "D#6",
                    "midi": 87,
                    "time": 135.13899700000044,
                    "velocity": 0.3858267716535433,
                    "duration": 0.06944450000000302
                },
                {
                    "name": "F6",
                    "midi": 89,
                    "time": 135.20844150000045,
                    "velocity": 0.3858267716535433,
                    "duration": 0.06944450000000302
                },
                {
                    "name": "D#6",
                    "midi": 87,
                    "time": 135.27788600000045,
                    "velocity": 0.3858267716535433,
                    "duration": 0.06944450000000302
                },
                {
                    "name": "F6",
                    "midi": 89,
                    "time": 135.34733050000045,
                    "velocity": 0.3858267716535433,
                    "duration": 0.06944450000000302
                },
                {
                    "name": "D#6",
                    "midi": 87,
                    "time": 135.41677500000046,
                    "velocity": 0.3858267716535433,
                    "duration": 0.06944450000000302
                },
                {
                    "name": "F6",
                    "midi": 89,
                    "time": 135.48621950000046,
                    "velocity": 0.3858267716535433,
                    "duration": 0.06944450000000302
                },
                {
                    "name": "D#6",
                    "midi": 87,
                    "time": 135.55566400000046,
                    "velocity": 0.3858267716535433,
                    "duration": 0.06944450000000302
                },
                {
                    "name": "F6",
                    "midi": 89,
                    "time": 135.62510850000047,
                    "velocity": 0.3858267716535433,
                    "duration": 0.06944450000000302
                },
                {
                    "name": "D#6",
                    "midi": 87,
                    "time": 135.69455300000047,
                    "velocity": 0.3858267716535433,
                    "duration": 0.06944450000000302
                },
                {
                    "name": "F6",
                    "midi": 89,
                    "time": 135.76399750000047,
                    "velocity": 0.3858267716535433,
                    "duration": 0.06944450000000302
                },
                {
                    "name": "D#6",
                    "midi": 87,
                    "time": 135.83344200000047,
                    "velocity": 0.3858267716535433,
                    "duration": 0.06944450000000302
                },
                {
                    "name": "F6",
                    "midi": 89,
                    "time": 135.90288650000048,
                    "velocity": 0.3858267716535433,
                    "duration": 0.06944450000000302
                },
                {
                    "name": "D#6",
                    "midi": 87,
                    "time": 135.97233100000048,
                    "velocity": 0.3858267716535433,
                    "duration": 0.06944450000000302
                },
                {
                    "name": "F6",
                    "midi": 89,
                    "time": 136.04177550000048,
                    "velocity": 0.3858267716535433,
                    "duration": 0.06944450000000302
                },
                {
                    "name": "D#6",
                    "midi": 87,
                    "time": 136.1112200000005,
                    "velocity": 0.3858267716535433,
                    "duration": 0.06944450000000302
                },
                {
                    "name": "F6",
                    "midi": 89,
                    "time": 136.1806645000005,
                    "velocity": 0.3858267716535433,
                    "duration": 0.06944450000000302
                },
                {
                    "name": "D#6",
                    "midi": 87,
                    "time": 136.2501090000005,
                    "velocity": 0.3858267716535433,
                    "duration": 0.06944450000000302
                },
                {
                    "name": "F6",
                    "midi": 89,
                    "time": 136.3195535000005,
                    "velocity": 0.3858267716535433,
                    "duration": 0.06944450000000302
                },
                {
                    "name": "D#6",
                    "midi": 87,
                    "time": 136.3889980000005,
                    "velocity": 0.3858267716535433,
                    "duration": 0.06944450000000302
                },
                {
                    "name": "F6",
                    "midi": 89,
                    "time": 136.4584425000005,
                    "velocity": 0.3858267716535433,
                    "duration": 0.06944450000000302
                },
                {
                    "name": "D#6",
                    "midi": 87,
                    "time": 136.5278870000005,
                    "velocity": 0.3858267716535433,
                    "duration": 0.06944450000000302
                },
                {
                    "name": "F6",
                    "midi": 89,
                    "time": 136.5973315000005,
                    "velocity": 0.3858267716535433,
                    "duration": 0.06944450000000302
                },
                {
                    "name": "D#6",
                    "midi": 87,
                    "time": 136.6667760000005,
                    "velocity": 0.3858267716535433,
                    "duration": 0.06944450000000302
                },
                {
                    "name": "F6",
                    "midi": 89,
                    "time": 136.7362205000005,
                    "velocity": 0.3858267716535433,
                    "duration": 0.06944450000000302
                },
                {
                    "name": "D#6",
                    "midi": 87,
                    "time": 136.80566500000052,
                    "velocity": 0.3858267716535433,
                    "duration": 0.06944450000000302
                },
                {
                    "name": "F6",
                    "midi": 89,
                    "time": 136.87510950000052,
                    "velocity": 0.3858267716535433,
                    "duration": 0.06944450000000302
                },
                {
                    "name": "D#6",
                    "midi": 87,
                    "time": 136.94455400000052,
                    "velocity": 0.3858267716535433,
                    "duration": 0.06944450000000302
                },
                {
                    "name": "F6",
                    "midi": 89,
                    "time": 137.01399850000053,
                    "velocity": 0.3858267716535433,
                    "duration": 0.06944450000000302
                },
                {
                    "name": "D#6",
                    "midi": 87,
                    "time": 137.08344300000053,
                    "velocity": 0.3858267716535433,
                    "duration": 0.06944450000000302
                },
                {
                    "name": "F6",
                    "midi": 89,
                    "time": 137.15288750000053,
                    "velocity": 0.3858267716535433,
                    "duration": 0.06944450000000302
                },
                {
                    "name": "D#6",
                    "midi": 87,
                    "time": 137.22233200000053,
                    "velocity": 0.3858267716535433,
                    "duration": 0.06944450000000302
                },
                {
                    "name": "F6",
                    "midi": 89,
                    "time": 137.29177650000054,
                    "velocity": 0.3858267716535433,
                    "duration": 0.06944450000000302
                },
                {
                    "name": "D#6",
                    "midi": 87,
                    "time": 137.36122100000054,
                    "velocity": 0.3858267716535433,
                    "duration": 0.06944450000000302
                },
                {
                    "name": "F6",
                    "midi": 89,
                    "time": 137.43066550000054,
                    "velocity": 0.3858267716535433,
                    "duration": 0.06944450000000302
                },
                {
                    "name": "D#6",
                    "midi": 87,
                    "time": 137.50011000000055,
                    "velocity": 0.3858267716535433,
                    "duration": 0.06944450000000302
                },
                {
                    "name": "F6",
                    "midi": 89,
                    "time": 137.56955450000055,
                    "velocity": 0.3858267716535433,
                    "duration": 0.06944450000000302
                },
                {
                    "name": "D#6",
                    "midi": 87,
                    "time": 137.63899900000055,
                    "velocity": 0.3858267716535433,
                    "duration": 0.06944450000000302
                },
                {
                    "name": "F6",
                    "midi": 89,
                    "time": 137.70844350000056,
                    "velocity": 0.3858267716535433,
                    "duration": 0.06944450000000302
                },
                {
                    "name": "D#6",
                    "midi": 87,
                    "time": 137.77788800000056,
                    "velocity": 0.3858267716535433,
                    "duration": 0.06944450000000302
                },
                {
                    "name": "F6",
                    "midi": 89,
                    "time": 137.84733250000056,
                    "velocity": 0.3858267716535433,
                    "duration": 0.06944450000000302
                },
                {
                    "name": "D#6",
                    "midi": 87,
                    "time": 137.91677700000056,
                    "velocity": 0.3858267716535433,
                    "duration": 0.06944450000000302
                },
                {
                    "name": "F6",
                    "midi": 89,
                    "time": 137.98622150000057,
                    "velocity": 0.3858267716535433,
                    "duration": 0.06944450000000302
                },
                {
                    "name": "D#6",
                    "midi": 87,
                    "time": 138.05566600000057,
                    "velocity": 0.3858267716535433,
                    "duration": 0.06944450000000302
                },
                {
                    "name": "F6",
                    "midi": 89,
                    "time": 138.12511050000057,
                    "velocity": 0.3858267716535433,
                    "duration": 0.06944450000000302
                },
                {
                    "name": "D#6",
                    "midi": 87,
                    "time": 138.19455500000058,
                    "velocity": 0.3858267716535433,
                    "duration": 0.06944450000000302
                },
                {
                    "name": "F6",
                    "midi": 89,
                    "time": 138.26399950000058,
                    "velocity": 0.3858267716535433,
                    "duration": 0.06944450000000302
                },
                {
                    "name": "D#6",
                    "midi": 87,
                    "time": 138.33344400000058,
                    "velocity": 0.3858267716535433,
                    "duration": 0.06944450000000302
                },
                {
                    "name": "F6",
                    "midi": 89,
                    "time": 138.40288850000059,
                    "velocity": 0.3858267716535433,
                    "duration": 0.06944450000000302
                },
                {
                    "name": "D#6",
                    "midi": 87,
                    "time": 138.4723330000006,
                    "velocity": 0.3858267716535433,
                    "duration": 0.06944450000000302
                },
                {
                    "name": "F6",
                    "midi": 89,
                    "time": 138.5417775000006,
                    "velocity": 0.3858267716535433,
                    "duration": 0.06944450000000302
                },
                {
                    "name": "D#6",
                    "midi": 87,
                    "time": 138.6112220000006,
                    "velocity": 0.3858267716535433,
                    "duration": 0.06944450000000302
                },
                {
                    "name": "F6",
                    "midi": 89,
                    "time": 138.6806665000006,
                    "velocity": 0.3858267716535433,
                    "duration": 0.06944450000000302
                },
                {
                    "name": "D#6",
                    "midi": 87,
                    "time": 138.7501110000006,
                    "velocity": 0.3858267716535433,
                    "duration": 0.06944450000000302
                },
                {
                    "name": "F6",
                    "midi": 89,
                    "time": 138.8195555000006,
                    "velocity": 0.3858267716535433,
                    "duration": 0.06944450000000302
                },
                {
                    "name": "D#6",
                    "midi": 87,
                    "time": 138.8890000000006,
                    "velocity": 0.3858267716535433,
                    "duration": 0.06944450000000302
                },
                {
                    "name": "F6",
                    "midi": 89,
                    "time": 138.9584445000006,
                    "velocity": 0.3858267716535433,
                    "duration": 0.06944450000000302
                },
                {
                    "name": "D#6",
                    "midi": 87,
                    "time": 139.0278890000006,
                    "velocity": 0.3858267716535433,
                    "duration": 0.06944450000000302
                },
                {
                    "name": "F6",
                    "midi": 89,
                    "time": 139.09733350000062,
                    "velocity": 0.3858267716535433,
                    "duration": 0.06944450000000302
                },
                {
                    "name": "D#6",
                    "midi": 87,
                    "time": 139.16677800000062,
                    "velocity": 0.3858267716535433,
                    "duration": 0.06944450000000302
                },
                {
                    "name": "F6",
                    "midi": 89,
                    "time": 139.23622250000062,
                    "velocity": 0.3858267716535433,
                    "duration": 0.06944450000000302
                },
                {
                    "name": "D#6",
                    "midi": 87,
                    "time": 139.30566700000062,
                    "velocity": 0.3858267716535433,
                    "duration": 0.06944450000000302
                },
                {
                    "name": "F6",
                    "midi": 89,
                    "time": 139.37511150000063,
                    "velocity": 0.3858267716535433,
                    "duration": 0.06944450000000302
                },
                {
                    "name": "D#6",
                    "midi": 87,
                    "time": 139.44455600000063,
                    "velocity": 0.3858267716535433,
                    "duration": 0.06944450000000302
                },
                {
                    "name": "F6",
                    "midi": 89,
                    "time": 139.51400050000063,
                    "velocity": 0.3858267716535433,
                    "duration": 0.06944450000000302
                },
                {
                    "name": "D#6",
                    "midi": 87,
                    "time": 139.58344500000064,
                    "velocity": 0.3858267716535433,
                    "duration": 0.06944450000000302
                },
                {
                    "name": "F6",
                    "midi": 89,
                    "time": 139.65288950000064,
                    "velocity": 0.3858267716535433,
                    "duration": 0.06944450000000302
                },
                {
                    "name": "D#6",
                    "midi": 87,
                    "time": 139.72233400000064,
                    "velocity": 0.3858267716535433,
                    "duration": 0.06944450000000302
                },
                {
                    "name": "F6",
                    "midi": 89,
                    "time": 139.79177850000065,
                    "velocity": 0.3858267716535433,
                    "duration": 0.06944450000000302
                },
                {
                    "name": "D#6",
                    "midi": 87,
                    "time": 139.86122300000065,
                    "velocity": 0.3858267716535433,
                    "duration": 0.06944450000000302
                },
                {
                    "name": "F6",
                    "midi": 89,
                    "time": 139.93066750000065,
                    "velocity": 0.3858267716535433,
                    "duration": 0.06944450000000302
                },
                {
                    "name": "D#6",
                    "midi": 87,
                    "time": 140.00011200000066,
                    "velocity": 0.3858267716535433,
                    "duration": 0.06944450000000302
                },
                {
                    "name": "F6",
                    "midi": 89,
                    "time": 140.06955650000066,
                    "velocity": 0.3858267716535433,
                    "duration": 0.06944450000000302
                },
                {
                    "name": "D#6",
                    "midi": 87,
                    "time": 140.13900100000066,
                    "velocity": 0.3858267716535433,
                    "duration": 0.06944450000000302
                },
                {
                    "name": "F6",
                    "midi": 89,
                    "time": 140.20844550000066,
                    "velocity": 0.3858267716535433,
                    "duration": 0.06944450000000302
                },
                {
                    "name": "D#6",
                    "midi": 87,
                    "time": 140.27789000000067,
                    "velocity": 0.3858267716535433,
                    "duration": 0.06944450000000302
                },
                {
                    "name": "F6",
                    "midi": 89,
                    "time": 140.34733450000067,
                    "velocity": 0.3858267716535433,
                    "duration": 0.06944450000000302
                },
                {
                    "name": "D#6",
                    "midi": 87,
                    "time": 140.41677900000067,
                    "velocity": 0.3858267716535433,
                    "duration": 0.06944450000000302
                },
                {
                    "name": "F6",
                    "midi": 89,
                    "time": 140.48622350000068,
                    "velocity": 0.3858267716535433,
                    "duration": 0.06944450000000302
                },
                {
                    "name": "D#6",
                    "midi": 87,
                    "time": 140.55566800000068,
                    "velocity": 0.3858267716535433,
                    "duration": 0.06944450000000302
                },
                {
                    "name": "F6",
                    "midi": 89,
                    "time": 140.62511250000068,
                    "velocity": 0.3858267716535433,
                    "duration": 0.06944450000000302
                },
                {
                    "name": "D#6",
                    "midi": 87,
                    "time": 140.69455700000069,
                    "velocity": 0.3858267716535433,
                    "duration": 0.06944450000000302
                },
                {
                    "name": "F6",
                    "midi": 89,
                    "time": 140.7640015000007,
                    "velocity": 0.3858267716535433,
                    "duration": 0.06944450000000302
                },
                {
                    "name": "D#6",
                    "midi": 87,
                    "time": 140.8334460000007,
                    "velocity": 0.3858267716535433,
                    "duration": 0.06944450000000302
                },
                {
                    "name": "F6",
                    "midi": 89,
                    "time": 140.9028905000007,
                    "velocity": 0.3858267716535433,
                    "duration": 0.06944450000000302
                },
                {
                    "name": "D#6",
                    "midi": 87,
                    "time": 140.9723350000007,
                    "velocity": 0.3858267716535433,
                    "duration": 0.06944450000000302
                },
                {
                    "name": "F6",
                    "midi": 89,
                    "time": 141.0417795000007,
                    "velocity": 0.3858267716535433,
                    "duration": 0.06944450000000302
                },
                {
                    "name": "D#6",
                    "midi": 87,
                    "time": 141.1112240000007,
                    "velocity": 0.3858267716535433,
                    "duration": 0.06944450000000302
                },
                {
                    "name": "F6",
                    "midi": 89,
                    "time": 141.1806685000007,
                    "velocity": 0.3858267716535433,
                    "duration": 0.06944450000000302
                },
                {
                    "name": "D#6",
                    "midi": 87,
                    "time": 141.2501130000007,
                    "velocity": 0.3858267716535433,
                    "duration": 0.06944450000000302
                },
                {
                    "name": "F6",
                    "midi": 89,
                    "time": 141.3195575000007,
                    "velocity": 0.3858267716535433,
                    "duration": 0.06944450000000302
                },
                {
                    "name": "D#6",
                    "midi": 87,
                    "time": 141.38900200000072,
                    "velocity": 0.3858267716535433,
                    "duration": 0.06944450000000302
                },
                {
                    "name": "F6",
                    "midi": 89,
                    "time": 141.45844650000072,
                    "velocity": 0.3858267716535433,
                    "duration": 0.06944450000000302
                },
                {
                    "name": "D#6",
                    "midi": 87,
                    "time": 141.52789100000072,
                    "velocity": 0.3858267716535433,
                    "duration": 0.06944450000000302
                },
                {
                    "name": "F6",
                    "midi": 89,
                    "time": 141.59733550000072,
                    "velocity": 0.3858267716535433,
                    "duration": 0.06944450000000302
                },
                {
                    "name": "D#6",
                    "midi": 87,
                    "time": 141.66678000000073,
                    "velocity": 0.3858267716535433,
                    "duration": 0.06944450000000302
                },
                {
                    "name": "F6",
                    "midi": 89,
                    "time": 141.73622450000073,
                    "velocity": 0.3858267716535433,
                    "duration": 0.06944450000000302
                },
                {
                    "name": "D#6",
                    "midi": 87,
                    "time": 141.80566900000073,
                    "velocity": 0.3858267716535433,
                    "duration": 0.06944450000000302
                },
                {
                    "name": "F6",
                    "midi": 89,
                    "time": 141.87511350000074,
                    "velocity": 0.3858267716535433,
                    "duration": 0.06944450000000302
                },
                {
                    "name": "D#6",
                    "midi": 87,
                    "time": 141.94455800000074,
                    "velocity": 0.3858267716535433,
                    "duration": 0.06944450000000302
                },
                {
                    "name": "F6",
                    "midi": 89,
                    "time": 142.01400250000074,
                    "velocity": 0.3858267716535433,
                    "duration": 0.06944450000000302
                },
                {
                    "name": "D#6",
                    "midi": 87,
                    "time": 142.08344700000075,
                    "velocity": 0.3858267716535433,
                    "duration": 0.06944450000000302
                },
                {
                    "name": "F6",
                    "midi": 89,
                    "time": 142.15289150000075,
                    "velocity": 0.3858267716535433,
                    "duration": 0.06944450000000302
                },
                {
                    "name": "D#6",
                    "midi": 87,
                    "time": 142.22233600000075,
                    "velocity": 0.3858267716535433,
                    "duration": 0.06944450000000302
                },
                {
                    "name": "F6",
                    "midi": 89,
                    "time": 142.29178050000075,
                    "velocity": 0.3858267716535433,
                    "duration": 0.06944450000000302
                },
                {
                    "name": "D#6",
                    "midi": 87,
                    "time": 142.36122500000076,
                    "velocity": 0.3858267716535433,
                    "duration": 0.06944450000000302
                },
                {
                    "name": "F6",
                    "midi": 89,
                    "time": 142.43066950000076,
                    "velocity": 0.3858267716535433,
                    "duration": 0.06944450000000302
                },
                {
                    "name": "D#6",
                    "midi": 87,
                    "time": 142.50011400000076,
                    "velocity": 0.3858267716535433,
                    "duration": 0.06944450000000302
                },
                {
                    "name": "F6",
                    "midi": 89,
                    "time": 142.56955850000077,
                    "velocity": 0.3858267716535433,
                    "duration": 0.06944450000000302
                },
                {
                    "name": "D#6",
                    "midi": 87,
                    "time": 142.63900300000077,
                    "velocity": 0.3858267716535433,
                    "duration": 0.06944450000000302
                },
                {
                    "name": "F6",
                    "midi": 89,
                    "time": 142.70844750000077,
                    "velocity": 0.3858267716535433,
                    "duration": 0.06944450000000302
                },
                {
                    "name": "D#6",
                    "midi": 87,
                    "time": 142.77789200000078,
                    "velocity": 0.3858267716535433,
                    "duration": 0.06944450000000302
                },
                {
                    "name": "F6",
                    "midi": 89,
                    "time": 142.84733650000078,
                    "velocity": 0.3858267716535433,
                    "duration": 0.06944450000000302
                },
                {
                    "name": "D#6",
                    "midi": 87,
                    "time": 142.91678100000078,
                    "velocity": 0.3858267716535433,
                    "duration": 0.06944450000000302
                },
                {
                    "name": "F6",
                    "midi": 89,
                    "time": 142.98622550000078,
                    "velocity": 0.3858267716535433,
                    "duration": 0.06944450000000302
                },
                {
                    "name": "D#6",
                    "midi": 87,
                    "time": 143.0556700000008,
                    "velocity": 0.3858267716535433,
                    "duration": 0.06944450000000302
                },
                {
                    "name": "F6",
                    "midi": 89,
                    "time": 143.1251145000008,
                    "velocity": 0.3858267716535433,
                    "duration": 0.06944450000000302
                },
                {
                    "name": "D#6",
                    "midi": 87,
                    "time": 143.1945590000008,
                    "velocity": 0.3858267716535433,
                    "duration": 0.06944450000000302
                },
                {
                    "name": "F6",
                    "midi": 89,
                    "time": 143.2640035000008,
                    "velocity": 0.3858267716535433,
                    "duration": 0.06944450000000302
                },
                {
                    "name": "D#6",
                    "midi": 87,
                    "time": 143.3334480000008,
                    "velocity": 0.3858267716535433,
                    "duration": 0.06944450000000302
                },
                {
                    "name": "F6",
                    "midi": 89,
                    "time": 143.4028925000008,
                    "velocity": 0.3858267716535433,
                    "duration": 0.06944450000000302
                },
                {
                    "name": "D#6",
                    "midi": 87,
                    "time": 143.4723370000008,
                    "velocity": 0.3858267716535433,
                    "duration": 0.06944450000000302
                },
                {
                    "name": "F6",
                    "midi": 89,
                    "time": 143.5417815000008,
                    "velocity": 0.3858267716535433,
                    "duration": 0.06944450000000302
                },
                {
                    "name": "D#6",
                    "midi": 87,
                    "time": 143.6112260000008,
                    "velocity": 0.3858267716535433,
                    "duration": 0.06944450000000302
                },
                {
                    "name": "F6",
                    "midi": 89,
                    "time": 143.68067050000082,
                    "velocity": 0.3858267716535433,
                    "duration": 0.06944450000000302
                },
                {
                    "name": "D#6",
                    "midi": 87,
                    "time": 143.75011500000082,
                    "velocity": 0.3858267716535433,
                    "duration": 0.06944450000000302
                },
                {
                    "name": "F6",
                    "midi": 89,
                    "time": 143.81955950000082,
                    "velocity": 0.3858267716535433,
                    "duration": 0.06944450000000302
                },
                {
                    "name": "D#6",
                    "midi": 87,
                    "time": 143.88900400000082,
                    "velocity": 0.3858267716535433,
                    "duration": 0.06944450000000302
                },
                {
                    "name": "F6",
                    "midi": 89,
                    "time": 143.95844850000083,
                    "velocity": 0.3858267716535433,
                    "duration": 0.06944450000000302
                },
                {
                    "name": "D#6",
                    "midi": 87,
                    "time": 144.02789300000083,
                    "velocity": 0.3858267716535433,
                    "duration": 0.06944450000000302
                },
                {
                    "name": "F6",
                    "midi": 89,
                    "time": 144.09733750000083,
                    "velocity": 0.3858267716535433,
                    "duration": 0.06944450000000302
                },
                {
                    "name": "D#6",
                    "midi": 87,
                    "time": 144.16678200000084,
                    "velocity": 0.3858267716535433,
                    "duration": 0.06944450000000302
                },
                {
                    "name": "F6",
                    "midi": 89,
                    "time": 144.23622650000084,
                    "velocity": 0.3858267716535433,
                    "duration": 0.06944450000000302
                },
                {
                    "name": "D#6",
                    "midi": 87,
                    "time": 144.30567100000084,
                    "velocity": 0.3858267716535433,
                    "duration": 0.06944450000000302
                },
                {
                    "name": "F6",
                    "midi": 89,
                    "time": 144.37511550000085,
                    "velocity": 0.3858267716535433,
                    "duration": 0.06944450000000302
                },
                {
                    "name": "D#6",
                    "midi": 87,
                    "time": 144.44456000000085,
                    "velocity": 0.3858267716535433,
                    "duration": 0.06944450000000302
                },
                {
                    "name": "F6",
                    "midi": 89,
                    "time": 144.51400450000085,
                    "velocity": 0.3858267716535433,
                    "duration": 0.06944450000000302
                },
                {
                    "name": "D#6",
                    "midi": 87,
                    "time": 144.58344900000085,
                    "velocity": 0.3858267716535433,
                    "duration": 0.06944450000000302
                },
                {
                    "name": "F6",
                    "midi": 89,
                    "time": 144.65289350000086,
                    "velocity": 0.3858267716535433,
                    "duration": 0.06944450000000302
                },
                {
                    "name": "D#6",
                    "midi": 87,
                    "time": 144.72233800000086,
                    "velocity": 0.3858267716535433,
                    "duration": 0.06944450000000302
                },
                {
                    "name": "F6",
                    "midi": 89,
                    "time": 144.79178250000086,
                    "velocity": 0.3858267716535433,
                    "duration": 0.06944450000000302
                },
                {
                    "name": "D#6",
                    "midi": 87,
                    "time": 144.86122700000087,
                    "velocity": 0.3858267716535433,
                    "duration": 0.06944450000000302
                },
                {
                    "name": "F6",
                    "midi": 89,
                    "time": 144.93067150000087,
                    "velocity": 0.3858267716535433,
                    "duration": 0.06944450000000302
                },
                {
                    "name": "D#6",
                    "midi": 87,
                    "time": 145.00011600000087,
                    "velocity": 0.3858267716535433,
                    "duration": 0.06944450000000302
                },
                {
                    "name": "F6",
                    "midi": 89,
                    "time": 145.06956050000088,
                    "velocity": 0.3858267716535433,
                    "duration": 0.06944450000000302
                },
                {
                    "name": "D#6",
                    "midi": 87,
                    "time": 145.13900500000088,
                    "velocity": 0.3858267716535433,
                    "duration": 0.06944450000000302
                },
                {
                    "name": "F6",
                    "midi": 89,
                    "time": 145.20844950000088,
                    "velocity": 0.3858267716535433,
                    "duration": 0.06944450000000302
                },
                {
                    "name": "D#6",
                    "midi": 87,
                    "time": 145.27789400000088,
                    "velocity": 0.3858267716535433,
                    "duration": 0.06944450000000302
                },
                {
                    "name": "F6",
                    "midi": 89,
                    "time": 145.3473385000009,
                    "velocity": 0.3858267716535433,
                    "duration": 0.06944450000000302
                },
                {
                    "name": "D#6",
                    "midi": 87,
                    "time": 145.4167830000009,
                    "velocity": 0.3858267716535433,
                    "duration": 0.06944450000000302
                },
                {
                    "name": "F6",
                    "midi": 89,
                    "time": 145.4862275000009,
                    "velocity": 0.3858267716535433,
                    "duration": 0.06944450000000302
                },
                {
                    "name": "D#6",
                    "midi": 87,
                    "time": 145.5556720000009,
                    "velocity": 0.3858267716535433,
                    "duration": 0.06944450000000302
                },
                {
                    "name": "F6",
                    "midi": 89,
                    "time": 145.6251165000009,
                    "velocity": 0.3858267716535433,
                    "duration": 0.06944450000000302
                },
                {
                    "name": "D#6",
                    "midi": 87,
                    "time": 145.6945610000009,
                    "velocity": 0.3858267716535433,
                    "duration": 0.06944450000000302
                },
                {
                    "name": "F6",
                    "midi": 89,
                    "time": 145.7640055000009,
                    "velocity": 0.3858267716535433,
                    "duration": 0.06944450000000302
                },
                {
                    "name": "D#6",
                    "midi": 87,
                    "time": 145.8334500000009,
                    "velocity": 0.3858267716535433,
                    "duration": 0.06944450000000302
                },
                {
                    "name": "F6",
                    "midi": 89,
                    "time": 145.9028945000009,
                    "velocity": 0.3858267716535433,
                    "duration": 0.06944450000000302
                },
                {
                    "name": "D#6",
                    "midi": 87,
                    "time": 145.97233900000091,
                    "velocity": 0.3858267716535433,
                    "duration": 0.06944450000000302
                },
                {
                    "name": "F6",
                    "midi": 89,
                    "time": 146.04178350000092,
                    "velocity": 0.3858267716535433,
                    "duration": 0.06944450000000302
                },
                {
                    "name": "D#6",
                    "midi": 87,
                    "time": 146.11122800000092,
                    "velocity": 0.3858267716535433,
                    "duration": 0.06944450000000302
                },
                {
                    "name": "F6",
                    "midi": 89,
                    "time": 146.18067250000092,
                    "velocity": 0.3858267716535433,
                    "duration": 0.06944450000000302
                },
                {
                    "name": "D#6",
                    "midi": 87,
                    "time": 146.25011700000093,
                    "velocity": 0.3858267716535433,
                    "duration": 0.06944450000000302
                },
                {
                    "name": "F6",
                    "midi": 89,
                    "time": 146.31956150000093,
                    "velocity": 0.3858267716535433,
                    "duration": 0.06944450000000302
                },
                {
                    "name": "D#6",
                    "midi": 87,
                    "time": 146.38900600000093,
                    "velocity": 0.3858267716535433,
                    "duration": 0.06944450000000302
                },
                {
                    "name": "F6",
                    "midi": 89,
                    "time": 146.45845050000094,
                    "velocity": 0.3858267716535433,
                    "duration": 0.06944450000000302
                },
                {
                    "name": "D#6",
                    "midi": 87,
                    "time": 146.52789500000094,
                    "velocity": 0.3858267716535433,
                    "duration": 0.06944450000000302
                },
                {
                    "name": "F6",
                    "midi": 89,
                    "time": 146.59733950000094,
                    "velocity": 0.3858267716535433,
                    "duration": 0.06944450000000302
                },
                {
                    "name": "D#6",
                    "midi": 87,
                    "time": 146.66678400000094,
                    "velocity": 0.3858267716535433,
                    "duration": 0.06944450000000302
                },
                {
                    "name": "F6",
                    "midi": 89,
                    "time": 146.73622850000095,
                    "velocity": 0.3858267716535433,
                    "duration": 0.06944450000000302
                },
                {
                    "name": "D#6",
                    "midi": 87,
                    "time": 146.80567300000095,
                    "velocity": 0.3858267716535433,
                    "duration": 0.06944450000000302
                },
                {
                    "name": "F6",
                    "midi": 89,
                    "time": 146.87511750000095,
                    "velocity": 0.3858267716535433,
                    "duration": 0.06944450000000302
                },
                {
                    "name": "D#6",
                    "midi": 87,
                    "time": 146.94456200000096,
                    "velocity": 0.3858267716535433,
                    "duration": 0.06944450000000302
                },
                {
                    "name": "F6",
                    "midi": 89,
                    "time": 147.01400650000096,
                    "velocity": 0.3858267716535433,
                    "duration": 0.06944450000000302
                },
                {
                    "name": "D#6",
                    "midi": 87,
                    "time": 147.08345100000096,
                    "velocity": 0.3858267716535433,
                    "duration": 0.06944450000000302
                },
                {
                    "name": "F6",
                    "midi": 89,
                    "time": 147.15289550000097,
                    "velocity": 0.3858267716535433,
                    "duration": 0.06944450000000302
                },
                {
                    "name": "D#6",
                    "midi": 87,
                    "time": 147.22234000000097,
                    "velocity": 0.3858267716535433,
                    "duration": 0.06944450000000302
                },
                {
                    "name": "F6",
                    "midi": 89,
                    "time": 147.29178450000097,
                    "velocity": 0.3858267716535433,
                    "duration": 0.06944450000000302
                },
                {
                    "name": "D#6",
                    "midi": 87,
                    "time": 147.36122900000098,
                    "velocity": 0.3858267716535433,
                    "duration": 0.06944450000000302
                },
                {
                    "name": "F6",
                    "midi": 89,
                    "time": 147.43067350000098,
                    "velocity": 0.3858267716535433,
                    "duration": 0.06944450000000302
                },
                {
                    "name": "D#6",
                    "midi": 87,
                    "time": 147.50011800000098,
                    "velocity": 0.3858267716535433,
                    "duration": 0.06944450000000302
                },
                {
                    "name": "F6",
                    "midi": 89,
                    "time": 147.56956250000098,
                    "velocity": 0.3858267716535433,
                    "duration": 0.06944450000000302
                },
                {
                    "name": "D#6",
                    "midi": 87,
                    "time": 147.639007000001,
                    "velocity": 0.3858267716535433,
                    "duration": 0.06944450000000302
                },
                {
                    "name": "F6",
                    "midi": 89,
                    "time": 147.708451500001,
                    "velocity": 0.3858267716535433,
                    "duration": 0.06944450000000302
                },
                {
                    "name": "D#6",
                    "midi": 87,
                    "time": 147.777896000001,
                    "velocity": 0.3858267716535433,
                    "duration": 0.06944450000000302
                },
                {
                    "name": "F6",
                    "midi": 89,
                    "time": 147.847340500001,
                    "velocity": 0.3858267716535433,
                    "duration": 0.06944450000000302
                },
                {
                    "name": "D#6",
                    "midi": 87,
                    "time": 147.916785000001,
                    "velocity": 0.3858267716535433,
                    "duration": 0.06944450000000302
                },
                {
                    "name": "F6",
                    "midi": 89,
                    "time": 147.986229500001,
                    "velocity": 0.3858267716535433,
                    "duration": 0.06944450000000302
                },
                {
                    "name": "D#6",
                    "midi": 87,
                    "time": 148.055674000001,
                    "velocity": 0.3858267716535433,
                    "duration": 0.06944450000000302
                },
                {
                    "name": "F6",
                    "midi": 89,
                    "time": 148.125118500001,
                    "velocity": 0.3858267716535433,
                    "duration": 0.06944450000000302
                },
                {
                    "name": "D#6",
                    "midi": 87,
                    "time": 148.194563000001,
                    "velocity": 0.3858267716535433,
                    "duration": 0.06944450000000302
                },
                {
                    "name": "F6",
                    "midi": 89,
                    "time": 148.26400750000101,
                    "velocity": 0.3858267716535433,
                    "duration": 0.06944450000000302
                },
                {
                    "name": "D#6",
                    "midi": 87,
                    "time": 148.33345200000102,
                    "velocity": 0.3858267716535433,
                    "duration": 0.06944450000000302
                },
                {
                    "name": "F6",
                    "midi": 89,
                    "time": 148.40289650000102,
                    "velocity": 0.3858267716535433,
                    "duration": 0.06944450000000302
                },
                {
                    "name": "D#6",
                    "midi": 87,
                    "time": 148.47234100000102,
                    "velocity": 0.3858267716535433,
                    "duration": 0.06944450000000302
                },
                {
                    "name": "F6",
                    "midi": 89,
                    "time": 148.54178550000103,
                    "velocity": 0.3858267716535433,
                    "duration": 0.06944450000000302
                },
                {
                    "name": "D#6",
                    "midi": 87,
                    "time": 148.61123000000103,
                    "velocity": 0.3858267716535433,
                    "duration": 0.06944450000000302
                },
                {
                    "name": "F6",
                    "midi": 89,
                    "time": 148.68067450000103,
                    "velocity": 0.3858267716535433,
                    "duration": 0.06944450000000302
                },
                {
                    "name": "D#6",
                    "midi": 87,
                    "time": 148.75011900000104,
                    "velocity": 0.3858267716535433,
                    "duration": 0.06944450000000302
                },
                {
                    "name": "F6",
                    "midi": 89,
                    "time": 148.81956350000104,
                    "velocity": 0.3858267716535433,
                    "duration": 0.06944450000000302
                },
                {
                    "name": "D#6",
                    "midi": 87,
                    "time": 148.88900800000104,
                    "velocity": 0.3858267716535433,
                    "duration": 0.06944450000000302
                },
                {
                    "name": "F6",
                    "midi": 89,
                    "time": 148.95845250000104,
                    "velocity": 0.3858267716535433,
                    "duration": 0.06944450000000302
                },
                {
                    "name": "D#6",
                    "midi": 87,
                    "time": 149.02789700000105,
                    "velocity": 0.3858267716535433,
                    "duration": 0.06944450000000302
                },
                {
                    "name": "F6",
                    "midi": 89,
                    "time": 149.09734150000105,
                    "velocity": 0.3858267716535433,
                    "duration": 0.06944450000000302
                },
                {
                    "name": "D#6",
                    "midi": 87,
                    "time": 149.16678600000105,
                    "velocity": 0.3858267716535433,
                    "duration": 0.06944450000000302
                },
                {
                    "name": "F6",
                    "midi": 89,
                    "time": 149.23623050000106,
                    "velocity": 0.3858267716535433,
                    "duration": 0.06944450000000302
                },
                {
                    "name": "D#6",
                    "midi": 87,
                    "time": 149.30567500000106,
                    "velocity": 0.3858267716535433,
                    "duration": 0.06944450000000302
                },
                {
                    "name": "F6",
                    "midi": 89,
                    "time": 149.37511950000106,
                    "velocity": 0.3858267716535433,
                    "duration": 0.06944450000000302
                },
                {
                    "name": "D#6",
                    "midi": 87,
                    "time": 149.44456400000107,
                    "velocity": 0.3858267716535433,
                    "duration": 0.06944450000000302
                },
                {
                    "name": "F6",
                    "midi": 89,
                    "time": 149.51400850000107,
                    "velocity": 0.3858267716535433,
                    "duration": 0.06944450000000302
                },
                {
                    "name": "D#6",
                    "midi": 87,
                    "time": 149.58345300000107,
                    "velocity": 0.3858267716535433,
                    "duration": 0.06944450000000302
                },
                {
                    "name": "F6",
                    "midi": 89,
                    "time": 149.65289750000107,
                    "velocity": 0.3858267716535433,
                    "duration": 0.06944450000000302
                },
                {
                    "name": "D#6",
                    "midi": 87,
                    "time": 149.72234200000108,
                    "velocity": 0.3858267716535433,
                    "duration": 0.06944450000000302
                },
                {
                    "name": "F6",
                    "midi": 89,
                    "time": 149.79178650000108,
                    "velocity": 0.3858267716535433,
                    "duration": 0.06944450000000302
                },
                {
                    "name": "D#6",
                    "midi": 87,
                    "time": 149.86123100000108,
                    "velocity": 0.3858267716535433,
                    "duration": 0.06944450000000302
                },
                {
                    "name": "F6",
                    "midi": 89,
                    "time": 149.9306755000011,
                    "velocity": 0.3858267716535433,
                    "duration": 0.06944450000000302
                },
                {
                    "name": "D#6",
                    "midi": 87,
                    "time": 150.0001200000011,
                    "velocity": 0.3858267716535433,
                    "duration": 0.06944450000000302
                },
                {
                    "name": "F6",
                    "midi": 89,
                    "time": 150.0695645000011,
                    "velocity": 0.3858267716535433,
                    "duration": 0.06944450000000302
                },
                {
                    "name": "D#6",
                    "midi": 87,
                    "time": 150.1390090000011,
                    "velocity": 0.3858267716535433,
                    "duration": 0.06944450000000302
                },
                {
                    "name": "F6",
                    "midi": 89,
                    "time": 150.2084535000011,
                    "velocity": 0.3858267716535433,
                    "duration": 0.06944450000000302
                },
                {
                    "name": "D#6",
                    "midi": 87,
                    "time": 150.2778980000011,
                    "velocity": 0.3858267716535433,
                    "duration": 0.06944450000000302
                },
                {
                    "name": "F6",
                    "midi": 89,
                    "time": 150.3473425000011,
                    "velocity": 0.3858267716535433,
                    "duration": 0.06944450000000302
                },
                {
                    "name": "D#6",
                    "midi": 87,
                    "time": 150.4167870000011,
                    "velocity": 0.3858267716535433,
                    "duration": 0.06944450000000302
                },
                {
                    "name": "F6",
                    "midi": 89,
                    "time": 150.4862315000011,
                    "velocity": 0.3858267716535433,
                    "duration": 0.06944450000000302
                },
                {
                    "name": "D#6",
                    "midi": 87,
                    "time": 150.5556760000011,
                    "velocity": 0.3858267716535433,
                    "duration": 0.06944450000000302
                },
                {
                    "name": "F6",
                    "midi": 89,
                    "time": 150.62512050000112,
                    "velocity": 0.3858267716535433,
                    "duration": 0.06944450000000302
                },
                {
                    "name": "D#6",
                    "midi": 87,
                    "time": 150.69456500000112,
                    "velocity": 0.3858267716535433,
                    "duration": 0.06944450000000302
                },
                {
                    "name": "F6",
                    "midi": 89,
                    "time": 150.76400950000112,
                    "velocity": 0.3858267716535433,
                    "duration": 0.06944450000000302
                },
                {
                    "name": "D#6",
                    "midi": 87,
                    "time": 150.83345400000113,
                    "velocity": 0.3858267716535433,
                    "duration": 0.06944450000000302
                },
                {
                    "name": "F6",
                    "midi": 89,
                    "time": 150.90289850000113,
                    "velocity": 0.3858267716535433,
                    "duration": 0.06944450000000302
                },
                {
                    "name": "D#6",
                    "midi": 87,
                    "time": 150.97234300000113,
                    "velocity": 0.3858267716535433,
                    "duration": 0.06944450000000302
                },
                {
                    "name": "F6",
                    "midi": 89,
                    "time": 151.04178750000113,
                    "velocity": 0.3858267716535433,
                    "duration": 0.06944450000000302
                },
                {
                    "name": "D#6",
                    "midi": 87,
                    "time": 151.11123200000114,
                    "velocity": 0.3858267716535433,
                    "duration": 0.06944450000000302
                },
                {
                    "name": "F6",
                    "midi": 89,
                    "time": 151.18067650000114,
                    "velocity": 0.3858267716535433,
                    "duration": 0.06944450000000302
                },
                {
                    "name": "D#6",
                    "midi": 87,
                    "time": 151.25012100000114,
                    "velocity": 0.3858267716535433,
                    "duration": 0.06944450000000302
                },
                {
                    "name": "F6",
                    "midi": 89,
                    "time": 151.31956550000115,
                    "velocity": 0.3858267716535433,
                    "duration": 0.06944450000000302
                },
                {
                    "name": "D#6",
                    "midi": 87,
                    "time": 151.38901000000115,
                    "velocity": 0.3858267716535433,
                    "duration": 0.06944450000000302
                },
                {
                    "name": "F6",
                    "midi": 89,
                    "time": 151.45845450000115,
                    "velocity": 0.3858267716535433,
                    "duration": 0.06944450000000302
                },
                {
                    "name": "D#6",
                    "midi": 87,
                    "time": 151.52789900000116,
                    "velocity": 0.3858267716535433,
                    "duration": 0.06944450000000302
                },
                {
                    "name": "F6",
                    "midi": 89,
                    "time": 151.59734350000116,
                    "velocity": 0.3858267716535433,
                    "duration": 0.06944450000000302
                },
                {
                    "name": "D#6",
                    "midi": 87,
                    "time": 151.66678800000116,
                    "velocity": 0.3858267716535433,
                    "duration": 0.06944450000000302
                },
                {
                    "name": "F6",
                    "midi": 89,
                    "time": 151.73623250000117,
                    "velocity": 0.3858267716535433,
                    "duration": 0.06944450000000302
                },
                {
                    "name": "D#6",
                    "midi": 87,
                    "time": 151.80567700000117,
                    "velocity": 0.3858267716535433,
                    "duration": 0.06944450000000302
                },
                {
                    "name": "F6",
                    "midi": 89,
                    "time": 151.87512150000117,
                    "velocity": 0.3858267716535433,
                    "duration": 0.06944450000000302
                },
                {
                    "name": "D#6",
                    "midi": 87,
                    "time": 151.94456600000117,
                    "velocity": 0.3858267716535433,
                    "duration": 0.06944450000000302
                },
                {
                    "name": "F6",
                    "midi": 89,
                    "time": 152.01401050000118,
                    "velocity": 0.3858267716535433,
                    "duration": 0.06944450000000302
                },
                {
                    "name": "D#6",
                    "midi": 87,
                    "time": 152.08345500000118,
                    "velocity": 0.3858267716535433,
                    "duration": 0.06944450000000302
                },
                {
                    "name": "F6",
                    "midi": 89,
                    "time": 152.15289950000118,
                    "velocity": 0.3858267716535433,
                    "duration": 0.06944450000000302
                },
                {
                    "name": "D#6",
                    "midi": 87,
                    "time": 152.2223440000012,
                    "velocity": 0.3858267716535433,
                    "duration": 0.06944450000000302
                },
                {
                    "name": "F6",
                    "midi": 89,
                    "time": 152.2917885000012,
                    "velocity": 0.3858267716535433,
                    "duration": 0.06944450000000302
                },
                {
                    "name": "D#6",
                    "midi": 87,
                    "time": 152.3612330000012,
                    "velocity": 0.3858267716535433,
                    "duration": 0.06944450000000302
                },
                {
                    "name": "F6",
                    "midi": 89,
                    "time": 152.4306775000012,
                    "velocity": 0.3858267716535433,
                    "duration": 0.06944450000000302
                },
                {
                    "name": "D#6",
                    "midi": 87,
                    "time": 152.5001220000012,
                    "velocity": 0.3858267716535433,
                    "duration": 0.06944450000000302
                },
                {
                    "name": "F6",
                    "midi": 89,
                    "time": 152.5695665000012,
                    "velocity": 0.3858267716535433,
                    "duration": 0.06944450000000302
                },
                {
                    "name": "D#6",
                    "midi": 87,
                    "time": 152.6390110000012,
                    "velocity": 0.3858267716535433,
                    "duration": 0.06944450000000302
                },
                {
                    "name": "F6",
                    "midi": 89,
                    "time": 152.7084555000012,
                    "velocity": 0.3858267716535433,
                    "duration": 0.06944450000000302
                },
                {
                    "name": "D#6",
                    "midi": 87,
                    "time": 152.7779000000012,
                    "velocity": 0.3858267716535433,
                    "duration": 0.06944450000000302
                },
                {
                    "name": "F6",
                    "midi": 89,
                    "time": 152.8473445000012,
                    "velocity": 0.3858267716535433,
                    "duration": 0.06944450000000302
                },
                {
                    "name": "D#6",
                    "midi": 87,
                    "time": 152.91678900000122,
                    "velocity": 0.3858267716535433,
                    "duration": 0.06944450000000302
                },
                {
                    "name": "F6",
                    "midi": 89,
                    "time": 152.98623350000122,
                    "velocity": 0.3858267716535433,
                    "duration": 0.06944450000000302
                },
                {
                    "name": "D#6",
                    "midi": 87,
                    "time": 153.05567800000122,
                    "velocity": 0.3858267716535433,
                    "duration": 0.06944450000000302
                },
                {
                    "name": "F6",
                    "midi": 89,
                    "time": 153.12512250000123,
                    "velocity": 0.3858267716535433,
                    "duration": 0.06944450000000302
                },
                {
                    "name": "D#6",
                    "midi": 87,
                    "time": 153.19456700000123,
                    "velocity": 0.3858267716535433,
                    "duration": 0.06944450000000302
                },
                {
                    "name": "F6",
                    "midi": 89,
                    "time": 153.26401150000123,
                    "velocity": 0.3858267716535433,
                    "duration": 0.06944450000000302
                },
                {
                    "name": "D#6",
                    "midi": 87,
                    "time": 153.33345600000123,
                    "velocity": 0.3858267716535433,
                    "duration": 0.06944450000000302
                },
                {
                    "name": "F6",
                    "midi": 89,
                    "time": 153.40290050000124,
                    "velocity": 0.3858267716535433,
                    "duration": 0.06944450000000302
                },
                {
                    "name": "D#6",
                    "midi": 87,
                    "time": 153.47234500000124,
                    "velocity": 0.3858267716535433,
                    "duration": 0.06944450000000302
                },
                {
                    "name": "F6",
                    "midi": 89,
                    "time": 153.54178950000124,
                    "velocity": 0.3858267716535433,
                    "duration": 0.06944450000000302
                },
                {
                    "name": "D#6",
                    "midi": 87,
                    "time": 153.61123400000125,
                    "velocity": 0.3858267716535433,
                    "duration": 0.06944450000000302
                },
                {
                    "name": "F6",
                    "midi": 89,
                    "time": 153.68067850000125,
                    "velocity": 0.3858267716535433,
                    "duration": 0.06944450000000302
                },
                {
                    "name": "D#6",
                    "midi": 87,
                    "time": 153.75012300000125,
                    "velocity": 0.3858267716535433,
                    "duration": 0.06944450000000302
                },
                {
                    "name": "F6",
                    "midi": 89,
                    "time": 153.81956750000126,
                    "velocity": 0.3858267716535433,
                    "duration": 0.06944450000000302
                },
                {
                    "name": "D#6",
                    "midi": 87,
                    "time": 153.88901200000126,
                    "velocity": 0.3858267716535433,
                    "duration": 0.06944450000000302
                },
                {
                    "name": "F6",
                    "midi": 89,
                    "time": 153.95845650000126,
                    "velocity": 0.3858267716535433,
                    "duration": 0.06944450000000302
                },
                {
                    "name": "D#6",
                    "midi": 87,
                    "time": 154.02790100000126,
                    "velocity": 0.3858267716535433,
                    "duration": 0.06944450000000302
                },
                {
                    "name": "F6",
                    "midi": 89,
                    "time": 154.09734550000127,
                    "velocity": 0.3858267716535433,
                    "duration": 0.06944450000000302
                },
                {
                    "name": "D#6",
                    "midi": 87,
                    "time": 154.16679000000127,
                    "velocity": 0.3858267716535433,
                    "duration": 0.06944450000000302
                },
                {
                    "name": "F6",
                    "midi": 89,
                    "time": 154.23623450000127,
                    "velocity": 0.3858267716535433,
                    "duration": 0.06944450000000302
                },
                {
                    "name": "D#6",
                    "midi": 87,
                    "time": 154.30567900000128,
                    "velocity": 0.3858267716535433,
                    "duration": 0.06944450000000302
                },
                {
                    "name": "F6",
                    "midi": 89,
                    "time": 154.37512350000128,
                    "velocity": 0.3858267716535433,
                    "duration": 0.06944450000000302
                },
                {
                    "name": "D#6",
                    "midi": 87,
                    "time": 154.44456800000128,
                    "velocity": 0.3858267716535433,
                    "duration": 0.06944450000000302
                },
                {
                    "name": "F6",
                    "midi": 89,
                    "time": 154.5140125000013,
                    "velocity": 0.3858267716535433,
                    "duration": 0.06944450000000302
                },
                {
                    "name": "D#6",
                    "midi": 87,
                    "time": 154.5834570000013,
                    "velocity": 0.3858267716535433,
                    "duration": 0.06944450000000302
                },
                {
                    "name": "F6",
                    "midi": 89,
                    "time": 154.6529015000013,
                    "velocity": 0.3858267716535433,
                    "duration": 0.06944450000000302
                },
                {
                    "name": "D#6",
                    "midi": 87,
                    "time": 154.7223460000013,
                    "velocity": 0.3858267716535433,
                    "duration": 0.06944450000000302
                },
                {
                    "name": "F6",
                    "midi": 89,
                    "time": 154.7917905000013,
                    "velocity": 0.3858267716535433,
                    "duration": 0.06944450000000302
                },
                {
                    "name": "D#6",
                    "midi": 87,
                    "time": 154.8612350000013,
                    "velocity": 0.3858267716535433,
                    "duration": 0.06944450000000302
                },
                {
                    "name": "F6",
                    "midi": 89,
                    "time": 154.9306795000013,
                    "velocity": 0.3858267716535433,
                    "duration": 0.06944450000000302
                },
                {
                    "name": "D#6",
                    "midi": 87,
                    "time": 155.0001240000013,
                    "velocity": 0.3858267716535433,
                    "duration": 0.06944450000000302
                },
                {
                    "name": "F6",
                    "midi": 89,
                    "time": 155.0695685000013,
                    "velocity": 0.3858267716535433,
                    "duration": 0.06944450000000302
                },
                {
                    "name": "D#6",
                    "midi": 87,
                    "time": 155.1390130000013,
                    "velocity": 0.3858267716535433,
                    "duration": 0.06944450000000302
                },
                {
                    "name": "F6",
                    "midi": 89,
                    "time": 155.20845750000132,
                    "velocity": 0.3858267716535433,
                    "duration": 0.06944450000000302
                },
                {
                    "name": "D#6",
                    "midi": 87,
                    "time": 155.27790200000132,
                    "velocity": 0.3858267716535433,
                    "duration": 0.06944450000000302
                },
                {
                    "name": "F6",
                    "midi": 89,
                    "time": 155.34734650000132,
                    "velocity": 0.3858267716535433,
                    "duration": 0.06944450000000302
                }
            ],
            "controlChanges": {
                "7": [
                    {
                        "number": 7,
                        "time": 0,
                        "value": 1
                    }
                ],
                "10": [
                    {
                        "number": 10,
                        "time": 0,
                        "value": 0.7637795275590551
                    }
                ],
                "64": [
                    {
                        "number": 64,
                        "time": 31.388913999999883,
                        "value": 1
                    },
                    {
                        "number": 64,
                        "time": 33.05558199999989,
                        "value": 0
                    },
                    {
                        "number": 64,
                        "time": 38.055585999999906,
                        "value": 1
                    },
                    {
                        "number": 64,
                        "time": 39.722253999999914,
                        "value": 0
                    },
                    {
                        "number": 64,
                        "time": 40.00003199999991,
                        "value": 1
                    },
                    {
                        "number": 64,
                        "time": 41.388921999999916,
                        "value": 0
                    },
                    {
                        "number": 64,
                        "time": 48.33337199999994,
                        "value": 1
                    },
                    {
                        "number": 64,
                        "time": 50.00003999999994,
                        "value": 0
                    },
                    {
                        "number": 64,
                        "time": 52.777819999999956,
                        "value": 1
                    },
                    {
                        "number": 64,
                        "time": 54.44448799999996,
                        "value": 0
                    },
                    {
                        "number": 64,
                        "time": 67.77783200000029,
                        "value": 0
                    },
                    {
                        "number": 64,
                        "time": 71.94450200000026,
                        "value": 1
                    },
                    {
                        "number": 64,
                        "time": 73.61117000000024,
                        "value": 0
                    },
                    {
                        "number": 64,
                        "time": 76.38895000000022,
                        "value": 1
                    },
                    {
                        "number": 64,
                        "time": 78.05561800000021,
                        "value": 0
                    },
                    {
                        "number": 64,
                        "time": 78.3333960000002,
                        "value": 1
                    },
                    {
                        "number": 64,
                        "time": 79.7222860000002,
                        "value": 0
                    },
                    {
                        "number": 64,
                        "time": 112.63897900000019,
                        "value": 1
                    },
                    {
                        "number": 64,
                        "time": 114.16675800000026,
                        "value": 0
                    },
                    {
                        "number": 64,
                        "time": 115.97231500000025,
                        "value": 1
                    },
                    {
                        "number": 64,
                        "time": 117.63898300000024,
                        "value": 0
                    },
                    {
                        "number": 64,
                        "time": 123.1945430000002,
                        "value": 1
                    },
                    {
                        "number": 64,
                        "time": 124.72232200000026,
                        "value": 0
                    },
                    {
                        "number": 64,
                        "time": 125.41676700000026,
                        "value": 1
                    },
                    {
                        "number": 64,
                        "time": 126.94454600000033,
                        "value": 0
                    },
                    {
                        "number": 64,
                        "time": 128.75010300000037,
                        "value": 1
                    },
                    {
                        "number": 64,
                        "time": 130.41677100000027,
                        "value": 0
                    },
                    {
                        "number": 64,
                        "time": 155.41679100000133,
                        "value": 1
                    },
                    {
                        "number": 64,
                        "time": 155.97234700000132,
                        "value": 0
                    }
                ]
            },
            "id": 1,
            "name": "Grand Piano",
            "instrumentNumber": 0,
            "instrument": "acoustic grand piano",
            "instrumentFamily": "piano",
            "channelNumber": 0,
            "isPercussion": false
        },
        {
            "startTime": 4.444448,
            "duration": 154.86123499999985,
            "length": 172,
            "notes": [
                {
                    "name": "D#6",
                    "midi": 87,
                    "time": 4.444448,
                    "velocity": 0.4881889763779528,
                    "duration": 0.5555560000000002
                },
                {
                    "name": "C6",
                    "midi": 84,
                    "time": 5.000004000000001,
                    "velocity": 0.4881889763779528,
                    "duration": 0.5555560000000002
                },
                {
                    "name": "D#6",
                    "midi": 87,
                    "time": 5.555560000000001,
                    "velocity": 0.4881889763779528,
                    "duration": 0.5555560000000002
                },
                {
                    "name": "C6",
                    "midi": 84,
                    "time": 6.111116000000001,
                    "velocity": 0.4881889763779528,
                    "duration": 0.5555560000000002
                },
                {
                    "name": "A#5",
                    "midi": 82,
                    "time": 6.666672000000001,
                    "velocity": 0.4881889763779528,
                    "duration": 0.5555560000000002
                },
                {
                    "name": "D#6",
                    "midi": 87,
                    "time": 7.222228000000001,
                    "velocity": 0.4881889763779528,
                    "duration": 0.5555560000000002
                },
                {
                    "name": "F6",
                    "midi": 89,
                    "time": 7.777784000000001,
                    "velocity": 0.4881889763779528,
                    "duration": 0.5555560000000002
                },
                {
                    "name": "D#6",
                    "midi": 87,
                    "time": 8.333340000000002,
                    "velocity": 0.4881889763779528,
                    "duration": 0.5555559999999993
                },
                {
                    "name": "C6",
                    "midi": 84,
                    "time": 8.888896,
                    "velocity": 0.4881889763779528,
                    "duration": 0.5555559999999993
                },
                {
                    "name": "F6",
                    "midi": 89,
                    "time": 9.3750075,
                    "velocity": 0.4881889763779528,
                    "duration": 0.06944449999999946
                },
                {
                    "name": "D#6",
                    "midi": 87,
                    "time": 9.444452,
                    "velocity": 0.4881889763779528,
                    "duration": 0.5555559999999993
                },
                {
                    "name": "C6",
                    "midi": 84,
                    "time": 10.000008,
                    "velocity": 0.4881889763779528,
                    "duration": 0.5555559999999993
                },
                {
                    "name": "A#5",
                    "midi": 82,
                    "time": 10.555563999999999,
                    "velocity": 0.4881889763779528,
                    "duration": 0.5555559999999993
                },
                {
                    "name": "F5",
                    "midi": 77,
                    "time": 11.111119999999998,
                    "velocity": 0.4881889763779528,
                    "duration": 0.5555559999999993
                },
                {
                    "name": "A#5",
                    "midi": 82,
                    "time": 11.666675999999997,
                    "velocity": 0.4881889763779528,
                    "duration": 0.5555559999999993
                },
                {
                    "name": "C6",
                    "midi": 84,
                    "time": 12.222231999999996,
                    "velocity": 0.4881889763779528,
                    "duration": 0.5555559999999993
                },
                {
                    "name": "G#5",
                    "midi": 80,
                    "time": 12.638898999999997,
                    "velocity": 0.4881889763779528,
                    "duration": 0.06944449999999946
                },
                {
                    "name": "C6",
                    "midi": 84,
                    "time": 12.708343499999996,
                    "velocity": 0.4881889763779528,
                    "duration": 0.06944449999999946
                },
                {
                    "name": "G#5",
                    "midi": 80,
                    "time": 12.777787999999996,
                    "velocity": 0.4881889763779528,
                    "duration": 0.5555559999999993
                },
                {
                    "name": "F5",
                    "midi": 77,
                    "time": 13.333343999999995,
                    "velocity": 0.4881889763779528,
                    "duration": 1.1111120000000003
                },
                {
                    "name": "A#5",
                    "midi": 82,
                    "time": 14.444455999999995,
                    "velocity": 0.4881889763779528,
                    "duration": 0.5555559999999993
                },
                {
                    "name": "D#6",
                    "midi": 87,
                    "time": 15.000011999999995,
                    "velocity": 0.4881889763779528,
                    "duration": 1.1111119999999985
                },
                {
                    "name": "C#6",
                    "midi": 85,
                    "time": 15.972234999999994,
                    "velocity": 0.4881889763779528,
                    "duration": 0.06944449999999946
                },
                {
                    "name": "F6",
                    "midi": 89,
                    "time": 16.041679499999994,
                    "velocity": 0.4881889763779528,
                    "duration": 0.06944449999999946
                },
                {
                    "name": "C#6",
                    "midi": 85,
                    "time": 16.111123999999993,
                    "velocity": 0.4881889763779528,
                    "duration": 0.5555559999999993
                },
                {
                    "name": "C6",
                    "midi": 84,
                    "time": 16.666679999999992,
                    "velocity": 0.4881889763779528,
                    "duration": 1.6666680000000014
                },
                {
                    "name": "A#5",
                    "midi": 82,
                    "time": 18.333347999999994,
                    "velocity": 0.4881889763779528,
                    "duration": 0.5555559999999993
                },
                {
                    "name": "D#6",
                    "midi": 87,
                    "time": 18.819459499999994,
                    "velocity": 0.4881889763779528,
                    "duration": 0.06944449999999946
                },
                {
                    "name": "C6",
                    "midi": 84,
                    "time": 18.888903999999993,
                    "velocity": 0.4881889763779528,
                    "duration": 0.5555559999999993
                },
                {
                    "name": "G#5",
                    "midi": 80,
                    "time": 19.444459999999992,
                    "velocity": 0.4881889763779528,
                    "duration": 0.5555559999999993
                },
                {
                    "name": "F5",
                    "midi": 77,
                    "time": 20.00001599999999,
                    "velocity": 0.4881889763779528,
                    "duration": 1.1111119999999985
                },
                {
                    "name": "C6",
                    "midi": 84,
                    "time": 21.11112799999999,
                    "velocity": 0.4881889763779528,
                    "duration": 0.5555559999999993
                },
                {
                    "name": "D#6",
                    "midi": 87,
                    "time": 21.59723949999999,
                    "velocity": 0.4881889763779528,
                    "duration": 0.06944449999999946
                },
                {
                    "name": "A#5",
                    "midi": 82,
                    "time": 21.66668399999999,
                    "velocity": 0.4881889763779528,
                    "duration": 0.5555559999999993
                },
                {
                    "name": "C6",
                    "midi": 84,
                    "time": 22.15279549999999,
                    "velocity": 0.4881889763779528,
                    "duration": 0.06944449999999946
                },
                {
                    "name": "G#5",
                    "midi": 80,
                    "time": 22.22223999999999,
                    "velocity": 0.4881889763779528,
                    "duration": 0.5555559999999993
                },
                {
                    "name": "G#5",
                    "midi": 80,
                    "time": 22.70835149999999,
                    "velocity": 0.4881889763779528,
                    "duration": 0.06944449999999946
                },
                {
                    "name": "F5",
                    "midi": 77,
                    "time": 22.777795999999988,
                    "velocity": 0.4881889763779528,
                    "duration": 1.1111119999999985
                },
                {
                    "name": "A#3",
                    "midi": 58,
                    "time": 57.77782399999999,
                    "velocity": 0.7952755905511811,
                    "duration": 0.5555560000000028
                },
                {
                    "name": "F4",
                    "midi": 65,
                    "time": 57.77782399999999,
                    "velocity": 0.7952755905511811,
                    "duration": 0.5555560000000028
                },
                {
                    "name": "F#4",
                    "midi": 66,
                    "time": 57.77782399999999,
                    "velocity": 0.7952755905511811,
                    "duration": 0.5555560000000028
                },
                {
                    "name": "A#4",
                    "midi": 70,
                    "time": 57.77782399999999,
                    "velocity": 0.7952755905511811,
                    "duration": 0.5555560000000028
                },
                {
                    "name": "A#3",
                    "midi": 58,
                    "time": 58.33337999999999,
                    "velocity": 0.7952755905511811,
                    "duration": 0.5555560000000028
                },
                {
                    "name": "F4",
                    "midi": 65,
                    "time": 58.33337999999999,
                    "velocity": 0.7952755905511811,
                    "duration": 0.5555560000000028
                },
                {
                    "name": "F#4",
                    "midi": 66,
                    "time": 58.33337999999999,
                    "velocity": 0.7952755905511811,
                    "duration": 0.5555560000000028
                },
                {
                    "name": "A#4",
                    "midi": 70,
                    "time": 58.33337999999999,
                    "velocity": 0.7952755905511811,
                    "duration": 0.5555560000000028
                },
                {
                    "name": "A#3",
                    "midi": 58,
                    "time": 58.888935999999994,
                    "velocity": 0.7952755905511811,
                    "duration": 0.5555560000000028
                },
                {
                    "name": "F4",
                    "midi": 65,
                    "time": 58.888935999999994,
                    "velocity": 0.7952755905511811,
                    "duration": 0.5555560000000028
                },
                {
                    "name": "F#4",
                    "midi": 66,
                    "time": 58.888935999999994,
                    "velocity": 0.7952755905511811,
                    "duration": 0.5555560000000028
                },
                {
                    "name": "A#4",
                    "midi": 70,
                    "time": 58.888935999999994,
                    "velocity": 0.7952755905511811,
                    "duration": 0.5555560000000028
                },
                {
                    "name": "C4",
                    "midi": 60,
                    "time": 59.444492,
                    "velocity": 0.5905511811023622,
                    "duration": 0.27777799999999786
                },
                {
                    "name": "F#4",
                    "midi": 66,
                    "time": 59.444492,
                    "velocity": 0.5905511811023622,
                    "duration": 0.27777799999999786
                },
                {
                    "name": "G#4",
                    "midi": 68,
                    "time": 59.444492,
                    "velocity": 0.5905511811023622,
                    "duration": 0.27777799999999786
                },
                {
                    "name": "C5",
                    "midi": 72,
                    "time": 59.444492,
                    "velocity": 0.5905511811023622,
                    "duration": 0.27777799999999786
                },
                {
                    "name": "C#4",
                    "midi": 61,
                    "time": 59.722269999999995,
                    "velocity": 0.5905511811023622,
                    "duration": 0.27777799999999786
                },
                {
                    "name": "G#4",
                    "midi": 68,
                    "time": 59.722269999999995,
                    "velocity": 0.5905511811023622,
                    "duration": 0.27777799999999786
                },
                {
                    "name": "A#4",
                    "midi": 70,
                    "time": 59.722269999999995,
                    "velocity": 0.5905511811023622,
                    "duration": 0.27777799999999786
                },
                {
                    "name": "C#5",
                    "midi": 73,
                    "time": 59.722269999999995,
                    "velocity": 0.5905511811023622,
                    "duration": 0.27777799999999786
                },
                {
                    "name": "D#4",
                    "midi": 63,
                    "time": 60.00004799999999,
                    "velocity": 0.6929133858267716,
                    "duration": 0.5555560000000028
                },
                {
                    "name": "A#4",
                    "midi": 70,
                    "time": 60.00004799999999,
                    "velocity": 0.6929133858267716,
                    "duration": 0.5555560000000028
                },
                {
                    "name": "C5",
                    "midi": 72,
                    "time": 60.00004799999999,
                    "velocity": 0.6929133858267716,
                    "duration": 0.5555560000000028
                },
                {
                    "name": "D#5",
                    "midi": 75,
                    "time": 60.00004799999999,
                    "velocity": 0.6929133858267716,
                    "duration": 0.5555560000000028
                },
                {
                    "name": "C#4",
                    "midi": 61,
                    "time": 60.555603999999995,
                    "velocity": 0.6929133858267716,
                    "duration": 0.5555560000000028
                },
                {
                    "name": "G#4",
                    "midi": 68,
                    "time": 60.555603999999995,
                    "velocity": 0.6929133858267716,
                    "duration": 0.5555560000000028
                },
                {
                    "name": "A#4",
                    "midi": 70,
                    "time": 60.555603999999995,
                    "velocity": 0.6929133858267716,
                    "duration": 0.5555560000000028
                },
                {
                    "name": "C#5",
                    "midi": 73,
                    "time": 60.555603999999995,
                    "velocity": 0.6929133858267716,
                    "duration": 0.5555560000000028
                },
                {
                    "name": "C4",
                    "midi": 60,
                    "time": 61.11116,
                    "velocity": 0.5905511811023622,
                    "duration": 0.5555560000000028
                },
                {
                    "name": "F#4",
                    "midi": 66,
                    "time": 61.11116,
                    "velocity": 0.5905511811023622,
                    "duration": 0.5555560000000028
                },
                {
                    "name": "G#4",
                    "midi": 68,
                    "time": 61.11116,
                    "velocity": 0.5905511811023622,
                    "duration": 0.5555560000000028
                },
                {
                    "name": "C5",
                    "midi": 72,
                    "time": 61.11116,
                    "velocity": 0.5905511811023622,
                    "duration": 0.5555560000000028
                },
                {
                    "name": "A#3",
                    "midi": 58,
                    "time": 61.666716,
                    "velocity": 0.7952755905511811,
                    "duration": 0.5555560000000028
                },
                {
                    "name": "F4",
                    "midi": 65,
                    "time": 61.666716,
                    "velocity": 0.7952755905511811,
                    "duration": 0.5555560000000028
                },
                {
                    "name": "F#4",
                    "midi": 66,
                    "time": 61.666716,
                    "velocity": 0.7952755905511811,
                    "duration": 0.5555560000000028
                },
                {
                    "name": "A#4",
                    "midi": 70,
                    "time": 61.666716,
                    "velocity": 0.7952755905511811,
                    "duration": 0.5555560000000028
                },
                {
                    "name": "A#3",
                    "midi": 58,
                    "time": 62.222272000000004,
                    "velocity": 0.7952755905511811,
                    "duration": 0.5555560000000028
                },
                {
                    "name": "F4",
                    "midi": 65,
                    "time": 62.222272000000004,
                    "velocity": 0.7952755905511811,
                    "duration": 0.5555560000000028
                },
                {
                    "name": "F#4",
                    "midi": 66,
                    "time": 62.222272000000004,
                    "velocity": 0.7952755905511811,
                    "duration": 0.5555560000000028
                },
                {
                    "name": "A#4",
                    "midi": 70,
                    "time": 62.222272000000004,
                    "velocity": 0.7952755905511811,
                    "duration": 0.5555560000000028
                },
                {
                    "name": "C4",
                    "midi": 60,
                    "time": 62.77782800000001,
                    "velocity": 0.5905511811023622,
                    "duration": 0.27777799999999786
                },
                {
                    "name": "F#4",
                    "midi": 66,
                    "time": 62.77782800000001,
                    "velocity": 0.5905511811023622,
                    "duration": 0.27777799999999786
                },
                {
                    "name": "G#4",
                    "midi": 68,
                    "time": 62.77782800000001,
                    "velocity": 0.5905511811023622,
                    "duration": 0.27777799999999786
                },
                {
                    "name": "C5",
                    "midi": 72,
                    "time": 62.77782800000001,
                    "velocity": 0.5905511811023622,
                    "duration": 0.27777799999999786
                },
                {
                    "name": "C#4",
                    "midi": 61,
                    "time": 63.055606000000004,
                    "velocity": 0.5905511811023622,
                    "duration": 0.27777799999999786
                },
                {
                    "name": "G#4",
                    "midi": 68,
                    "time": 63.055606000000004,
                    "velocity": 0.5905511811023622,
                    "duration": 0.27777799999999786
                },
                {
                    "name": "A#4",
                    "midi": 70,
                    "time": 63.055606000000004,
                    "velocity": 0.5905511811023622,
                    "duration": 0.27777799999999786
                },
                {
                    "name": "C#5",
                    "midi": 73,
                    "time": 63.055606000000004,
                    "velocity": 0.5905511811023622,
                    "duration": 0.27777799999999786
                },
                {
                    "name": "D#4",
                    "midi": 63,
                    "time": 63.333384,
                    "velocity": 0.6929133858267716,
                    "duration": 0.5555560000000028
                },
                {
                    "name": "A#4",
                    "midi": 70,
                    "time": 63.333384,
                    "velocity": 0.6929133858267716,
                    "duration": 0.5555560000000028
                },
                {
                    "name": "C5",
                    "midi": 72,
                    "time": 63.333384,
                    "velocity": 0.6929133858267716,
                    "duration": 0.5555560000000028
                },
                {
                    "name": "D#5",
                    "midi": 75,
                    "time": 63.333384,
                    "velocity": 0.6929133858267716,
                    "duration": 0.5555560000000028
                },
                {
                    "name": "C#4",
                    "midi": 61,
                    "time": 63.888940000000005,
                    "velocity": 0.5905511811023622,
                    "duration": 0.5555559999999957
                },
                {
                    "name": "G#4",
                    "midi": 68,
                    "time": 63.888940000000005,
                    "velocity": 0.5905511811023622,
                    "duration": 0.5555559999999957
                },
                {
                    "name": "A#4",
                    "midi": 70,
                    "time": 63.888940000000005,
                    "velocity": 0.5905511811023622,
                    "duration": 0.5555559999999957
                },
                {
                    "name": "C#5",
                    "midi": 73,
                    "time": 63.888940000000005,
                    "velocity": 0.5905511811023622,
                    "duration": 0.5555559999999957
                },
                {
                    "name": "C4",
                    "midi": 60,
                    "time": 64.444496,
                    "velocity": 0.7952755905511811,
                    "duration": 0.5555559999999957
                },
                {
                    "name": "F#4",
                    "midi": 66,
                    "time": 64.444496,
                    "velocity": 0.7952755905511811,
                    "duration": 0.5555559999999957
                },
                {
                    "name": "G#4",
                    "midi": 68,
                    "time": 64.444496,
                    "velocity": 0.7952755905511811,
                    "duration": 0.5555559999999957
                },
                {
                    "name": "C5",
                    "midi": 72,
                    "time": 64.444496,
                    "velocity": 0.7952755905511811,
                    "duration": 0.5555559999999957
                },
                {
                    "name": "A#3",
                    "midi": 58,
                    "time": 65.000052,
                    "velocity": 0.7952755905511811,
                    "duration": 0.5555559999999957
                },
                {
                    "name": "F4",
                    "midi": 65,
                    "time": 65.000052,
                    "velocity": 0.7952755905511811,
                    "duration": 0.5555559999999957
                },
                {
                    "name": "F#4",
                    "midi": 66,
                    "time": 65.000052,
                    "velocity": 0.7952755905511811,
                    "duration": 0.5555559999999957
                },
                {
                    "name": "A#4",
                    "midi": 70,
                    "time": 65.000052,
                    "velocity": 0.7952755905511811,
                    "duration": 0.5555559999999957
                },
                {
                    "name": "A#3",
                    "midi": 58,
                    "time": 65.55560799999999,
                    "velocity": 0.7952755905511811,
                    "duration": 0.5555559999999957
                },
                {
                    "name": "F4",
                    "midi": 65,
                    "time": 65.55560799999999,
                    "velocity": 0.7952755905511811,
                    "duration": 0.5555559999999957
                },
                {
                    "name": "F#4",
                    "midi": 66,
                    "time": 65.55560799999999,
                    "velocity": 0.7952755905511811,
                    "duration": 0.5555559999999957
                },
                {
                    "name": "A#4",
                    "midi": 70,
                    "time": 65.55560799999999,
                    "velocity": 0.7952755905511811,
                    "duration": 0.5555559999999957
                },
                {
                    "name": "C4",
                    "midi": 60,
                    "time": 66.11116399999999,
                    "velocity": 0.5905511811023622,
                    "duration": 0.27777799999999786
                },
                {
                    "name": "F#4",
                    "midi": 66,
                    "time": 66.11116399999999,
                    "velocity": 0.5905511811023622,
                    "duration": 0.27777799999999786
                },
                {
                    "name": "G#4",
                    "midi": 68,
                    "time": 66.11116399999999,
                    "velocity": 0.5905511811023622,
                    "duration": 0.27777799999999786
                },
                {
                    "name": "C5",
                    "midi": 72,
                    "time": 66.11116399999999,
                    "velocity": 0.5905511811023622,
                    "duration": 0.27777799999999786
                },
                {
                    "name": "C#4",
                    "midi": 61,
                    "time": 66.38894199999999,
                    "velocity": 0.5905511811023622,
                    "duration": 0.27777799999999786
                },
                {
                    "name": "G#4",
                    "midi": 68,
                    "time": 66.38894199999999,
                    "velocity": 0.5905511811023622,
                    "duration": 0.27777799999999786
                },
                {
                    "name": "A#4",
                    "midi": 70,
                    "time": 66.38894199999999,
                    "velocity": 0.5905511811023622,
                    "duration": 0.27777799999999786
                },
                {
                    "name": "C#5",
                    "midi": 73,
                    "time": 66.38894199999999,
                    "velocity": 0.5905511811023622,
                    "duration": 0.27777799999999786
                },
                {
                    "name": "D#4",
                    "midi": 63,
                    "time": 66.66671999999998,
                    "velocity": 0.6929133858267716,
                    "duration": 0.5555559999999957
                },
                {
                    "name": "A#4",
                    "midi": 70,
                    "time": 66.66671999999998,
                    "velocity": 0.6929133858267716,
                    "duration": 0.5555559999999957
                },
                {
                    "name": "C5",
                    "midi": 72,
                    "time": 66.66671999999998,
                    "velocity": 0.6929133858267716,
                    "duration": 0.5555559999999957
                },
                {
                    "name": "D#5",
                    "midi": 75,
                    "time": 66.66671999999998,
                    "velocity": 0.6929133858267716,
                    "duration": 0.5555559999999957
                },
                {
                    "name": "A3",
                    "midi": 57,
                    "time": 97.50007799999997,
                    "velocity": 0.8976377952755905,
                    "duration": 0.27777799999999786
                },
                {
                    "name": "C4",
                    "midi": 60,
                    "time": 97.50007799999997,
                    "velocity": 0.8976377952755905,
                    "duration": 0.27777799999999786
                },
                {
                    "name": "D#4",
                    "midi": 63,
                    "time": 97.50007799999997,
                    "velocity": 0.8976377952755905,
                    "duration": 0.27777799999999786
                },
                {
                    "name": "G#4",
                    "midi": 68,
                    "time": 97.50007799999997,
                    "velocity": 0.8976377952755905,
                    "duration": 0.27777799999999786
                },
                {
                    "name": "A3",
                    "midi": 57,
                    "time": 98.05563399999997,
                    "velocity": 0.8976377952755905,
                    "duration": 0.27777799999999786
                },
                {
                    "name": "C#4",
                    "midi": 61,
                    "time": 98.05563399999997,
                    "velocity": 0.8976377952755905,
                    "duration": 0.27777799999999786
                },
                {
                    "name": "E4",
                    "midi": 64,
                    "time": 98.05563399999997,
                    "velocity": 0.8976377952755905,
                    "duration": 0.27777799999999786
                },
                {
                    "name": "A4",
                    "midi": 69,
                    "time": 98.05563399999997,
                    "velocity": 0.8976377952755905,
                    "duration": 0.27777799999999786
                },
                {
                    "name": "A3",
                    "midi": 57,
                    "time": 98.33341199999997,
                    "velocity": 0.6929133858267716,
                    "duration": 0.27777799999999786
                },
                {
                    "name": "C4",
                    "midi": 60,
                    "time": 98.33341199999997,
                    "velocity": 0.6929133858267716,
                    "duration": 0.27777799999999786
                },
                {
                    "name": "D#4",
                    "midi": 63,
                    "time": 98.33341199999997,
                    "velocity": 0.6929133858267716,
                    "duration": 0.27777799999999786
                },
                {
                    "name": "G#4",
                    "midi": 68,
                    "time": 98.33341199999997,
                    "velocity": 0.6929133858267716,
                    "duration": 0.27777799999999786
                },
                {
                    "name": "A3",
                    "midi": 57,
                    "time": 102.36119299999997,
                    "velocity": 0.6929133858267716,
                    "duration": 0.27777799999999786
                },
                {
                    "name": "C4",
                    "midi": 60,
                    "time": 102.36119299999997,
                    "velocity": 0.6929133858267716,
                    "duration": 0.27777799999999786
                },
                {
                    "name": "D#4",
                    "midi": 63,
                    "time": 102.36119299999997,
                    "velocity": 0.6929133858267716,
                    "duration": 0.27777799999999786
                },
                {
                    "name": "G#4",
                    "midi": 68,
                    "time": 102.36119299999997,
                    "velocity": 0.6929133858267716,
                    "duration": 0.27777799999999786
                },
                {
                    "name": "D#6",
                    "midi": 87,
                    "time": 135.41677499999997,
                    "velocity": 0.4881889763779528,
                    "duration": 0.5555559999999957
                },
                {
                    "name": "C6",
                    "midi": 84,
                    "time": 135.97233099999997,
                    "velocity": 0.4881889763779528,
                    "duration": 0.5555559999999957
                },
                {
                    "name": "F6",
                    "midi": 89,
                    "time": 136.45844249999996,
                    "velocity": 0.4881889763779528,
                    "duration": 0.06944450000000302
                },
                {
                    "name": "D#6",
                    "midi": 87,
                    "time": 136.52788699999996,
                    "velocity": 0.4881889763779528,
                    "duration": 0.5555559999999957
                },
                {
                    "name": "C6",
                    "midi": 84,
                    "time": 137.08344299999996,
                    "velocity": 0.4881889763779528,
                    "duration": 0.5555559999999957
                },
                {
                    "name": "A#5",
                    "midi": 82,
                    "time": 137.63899899999996,
                    "velocity": 0.4881889763779528,
                    "duration": 0.5555559999999957
                },
                {
                    "name": "D#6",
                    "midi": 87,
                    "time": 138.19455499999995,
                    "velocity": 0.4881889763779528,
                    "duration": 0.5555559999999957
                },
                {
                    "name": "F6",
                    "midi": 89,
                    "time": 138.75011099999995,
                    "velocity": 0.4881889763779528,
                    "duration": 0.5555559999999957
                },
                {
                    "name": "D#6",
                    "midi": 87,
                    "time": 139.30566699999994,
                    "velocity": 0.4881889763779528,
                    "duration": 0.5555559999999957
                },
                {
                    "name": "C6",
                    "midi": 84,
                    "time": 139.86122299999994,
                    "velocity": 0.4881889763779528,
                    "duration": 0.5555559999999957
                },
                {
                    "name": "F6",
                    "midi": 89,
                    "time": 140.34733449999993,
                    "velocity": 0.4881889763779528,
                    "duration": 0.06944450000000302
                },
                {
                    "name": "D#6",
                    "midi": 87,
                    "time": 140.41677899999993,
                    "velocity": 0.4881889763779528,
                    "duration": 0.5555559999999957
                },
                {
                    "name": "C6",
                    "midi": 84,
                    "time": 140.97233499999993,
                    "velocity": 0.4881889763779528,
                    "duration": 0.5555559999999957
                },
                {
                    "name": "A#5",
                    "midi": 82,
                    "time": 141.52789099999993,
                    "velocity": 0.4881889763779528,
                    "duration": 0.5555559999999957
                },
                {
                    "name": "G5",
                    "midi": 79,
                    "time": 142.08344699999992,
                    "velocity": 0.4881889763779528,
                    "duration": 0.5555559999999957
                },
                {
                    "name": "C6",
                    "midi": 84,
                    "time": 142.63900299999992,
                    "velocity": 0.4881889763779528,
                    "duration": 0.5555559999999957
                },
                {
                    "name": "D6",
                    "midi": 86,
                    "time": 143.1945589999999,
                    "velocity": 0.4881889763779528,
                    "duration": 0.5555559999999957
                },
                {
                    "name": "A#5",
                    "midi": 82,
                    "time": 143.6112259999999,
                    "velocity": 0.4881889763779528,
                    "duration": 0.06944450000000302
                },
                {
                    "name": "D6",
                    "midi": 86,
                    "time": 143.6806704999999,
                    "velocity": 0.4881889763779528,
                    "duration": 0.06944450000000302
                },
                {
                    "name": "A#5",
                    "midi": 82,
                    "time": 143.7501149999999,
                    "velocity": 0.4881889763779528,
                    "duration": 0.5555559999999957
                },
                {
                    "name": "G5",
                    "midi": 79,
                    "time": 144.3056709999999,
                    "velocity": 0.4881889763779528,
                    "duration": 1.1111119999999914
                },
                {
                    "name": "C6",
                    "midi": 84,
                    "time": 145.4167829999999,
                    "velocity": 0.4881889763779528,
                    "duration": 0.5555559999999957
                },
                {
                    "name": "F6",
                    "midi": 89,
                    "time": 145.9723389999999,
                    "velocity": 0.4881889763779528,
                    "duration": 1.1111120000000199
                },
                {
                    "name": "D#6",
                    "midi": 87,
                    "time": 146.9445619999999,
                    "velocity": 0.4881889763779528,
                    "duration": 0.06944450000000302
                },
                {
                    "name": "G6",
                    "midi": 91,
                    "time": 147.0140064999999,
                    "velocity": 0.4881889763779528,
                    "duration": 0.06944450000000302
                },
                {
                    "name": "D#6",
                    "midi": 87,
                    "time": 147.0834509999999,
                    "velocity": 0.4881889763779528,
                    "duration": 0.5555559999999957
                },
                {
                    "name": "D6",
                    "midi": 86,
                    "time": 147.6390069999999,
                    "velocity": 0.4881889763779528,
                    "duration": 1.6666679999999872
                },
                {
                    "name": "C6",
                    "midi": 84,
                    "time": 149.3056749999999,
                    "velocity": 0.4881889763779528,
                    "duration": 0.5555559999999957
                },
                {
                    "name": "F6",
                    "midi": 89,
                    "time": 149.7917864999999,
                    "velocity": 0.4881889763779528,
                    "duration": 0.06944450000000302
                },
                {
                    "name": "D6",
                    "midi": 86,
                    "time": 149.8612309999999,
                    "velocity": 0.4881889763779528,
                    "duration": 0.5555559999999957
                },
                {
                    "name": "A#5",
                    "midi": 82,
                    "time": 150.41678699999989,
                    "velocity": 0.4881889763779528,
                    "duration": 0.5555559999999957
                },
                {
                    "name": "G5",
                    "midi": 79,
                    "time": 150.97234299999988,
                    "velocity": 0.4881889763779528,
                    "duration": 1.1111119999999914
                },
                {
                    "name": "D6",
                    "midi": 86,
                    "time": 152.08345499999987,
                    "velocity": 0.4881889763779528,
                    "duration": 0.5555559999999957
                },
                {
                    "name": "F6",
                    "midi": 89,
                    "time": 152.56956649999987,
                    "velocity": 0.4881889763779528,
                    "duration": 0.06944450000000302
                },
                {
                    "name": "C6",
                    "midi": 84,
                    "time": 152.63901099999987,
                    "velocity": 0.4881889763779528,
                    "duration": 0.5555559999999957
                },
                {
                    "name": "D6",
                    "midi": 86,
                    "time": 153.12512249999986,
                    "velocity": 0.4881889763779528,
                    "duration": 0.06944450000000302
                },
                {
                    "name": "A#5",
                    "midi": 82,
                    "time": 153.19456699999986,
                    "velocity": 0.4881889763779528,
                    "duration": 0.5555559999999957
                },
                {
                    "name": "G5",
                    "midi": 79,
                    "time": 153.75012299999986,
                    "velocity": 0.4881889763779528,
                    "duration": 1.1111119999999914
                }
            ],
            "controlChanges": {
                "7": [
                    {
                        "number": 7,
                        "time": 0,
                        "value": 1
                    }
                ],
                "10": [
                    {
                        "number": 10,
                        "time": 0,
                        "value": 0.7637795275590551
                    }
                ],
                "64": [
                    {
                        "number": 64,
                        "time": 59.444492,
                        "value": 1
                    },
                    {
                        "number": 64,
                        "time": 61.11116,
                        "value": 0
                    },
                    {
                        "number": 64,
                        "time": 62.77782800000001,
                        "value": 1
                    },
                    {
                        "number": 64,
                        "time": 64.444496,
                        "value": 0
                    }
                ]
            },
            "id": 2,
            "name": "Instrument17",
            "instrumentNumber": 0,
            "instrument": "acoustic grand piano",
            "instrumentFamily": "piano",
            "channelNumber": 1,
            "isPercussion": false
        },
        {
            "startTime": 0,
            "duration": 155.4167910000009,
            "length": 1285,
            "notes": [
                {
                    "name": "D#4",
                    "midi": 63,
                    "time": 0,
                    "velocity": 0.3858267716535433,
                    "duration": 0.0694445
                },
                {
                    "name": "F4",
                    "midi": 65,
                    "time": 0.0694445,
                    "velocity": 0.3858267716535433,
                    "duration": 0.0694445
                },
                {
                    "name": "D#4",
                    "midi": 63,
                    "time": 0.138889,
                    "velocity": 0.3858267716535433,
                    "duration": 0.06944449999999999
                },
                {
                    "name": "F4",
                    "midi": 65,
                    "time": 0.2083335,
                    "velocity": 0.3858267716535433,
                    "duration": 0.06944450000000002
                },
                {
                    "name": "D#4",
                    "midi": 63,
                    "time": 0.277778,
                    "velocity": 0.3858267716535433,
                    "duration": 0.06944450000000002
                },
                {
                    "name": "F4",
                    "midi": 65,
                    "time": 0.34722250000000004,
                    "velocity": 0.3858267716535433,
                    "duration": 0.06944450000000002
                },
                {
                    "name": "D#4",
                    "midi": 63,
                    "time": 0.41666700000000007,
                    "velocity": 0.3858267716535433,
                    "duration": 0.06944450000000002
                },
                {
                    "name": "F4",
                    "midi": 65,
                    "time": 0.4861115000000001,
                    "velocity": 0.3858267716535433,
                    "duration": 0.06944449999999996
                },
                {
                    "name": "D#4",
                    "midi": 63,
                    "time": 0.555556,
                    "velocity": 0.3858267716535433,
                    "duration": 0.06944450000000002
                },
                {
                    "name": "F4",
                    "midi": 65,
                    "time": 0.6250005000000001,
                    "velocity": 0.3858267716535433,
                    "duration": 0.06944450000000002
                },
                {
                    "name": "D#4",
                    "midi": 63,
                    "time": 0.6944450000000001,
                    "velocity": 0.3858267716535433,
                    "duration": 0.06944450000000002
                },
                {
                    "name": "F4",
                    "midi": 65,
                    "time": 0.7638895000000001,
                    "velocity": 0.3858267716535433,
                    "duration": 0.06944450000000002
                },
                {
                    "name": "D#4",
                    "midi": 63,
                    "time": 0.8333340000000001,
                    "velocity": 0.3858267716535433,
                    "duration": 0.06944450000000002
                },
                {
                    "name": "F4",
                    "midi": 65,
                    "time": 0.9027785000000002,
                    "velocity": 0.3858267716535433,
                    "duration": 0.06944450000000002
                },
                {
                    "name": "D#4",
                    "midi": 63,
                    "time": 0.9722230000000002,
                    "velocity": 0.3858267716535433,
                    "duration": 0.06944450000000002
                },
                {
                    "name": "F4",
                    "midi": 65,
                    "time": 1.0416675000000002,
                    "velocity": 0.3858267716535433,
                    "duration": 0.06944449999999991
                },
                {
                    "name": "D#4",
                    "midi": 63,
                    "time": 1.111112,
                    "velocity": 0.3858267716535433,
                    "duration": 0.06944449999999991
                },
                {
                    "name": "F4",
                    "midi": 65,
                    "time": 1.1805565,
                    "velocity": 0.3858267716535433,
                    "duration": 0.06944449999999991
                },
                {
                    "name": "D#4",
                    "midi": 63,
                    "time": 1.250001,
                    "velocity": 0.3858267716535433,
                    "duration": 0.06944449999999991
                },
                {
                    "name": "F4",
                    "midi": 65,
                    "time": 1.3194454999999998,
                    "velocity": 0.3858267716535433,
                    "duration": 0.06944449999999991
                },
                {
                    "name": "D#4",
                    "midi": 63,
                    "time": 1.3888899999999997,
                    "velocity": 0.3858267716535433,
                    "duration": 0.06944449999999991
                },
                {
                    "name": "F4",
                    "midi": 65,
                    "time": 1.4583344999999996,
                    "velocity": 0.3858267716535433,
                    "duration": 0.06944449999999991
                },
                {
                    "name": "D#4",
                    "midi": 63,
                    "time": 1.5277789999999996,
                    "velocity": 0.3858267716535433,
                    "duration": 0.06944449999999991
                },
                {
                    "name": "F4",
                    "midi": 65,
                    "time": 1.5972234999999995,
                    "velocity": 0.3858267716535433,
                    "duration": 0.06944449999999991
                },
                {
                    "name": "D#4",
                    "midi": 63,
                    "time": 1.6666679999999994,
                    "velocity": 0.3858267716535433,
                    "duration": 0.06944449999999991
                },
                {
                    "name": "F4",
                    "midi": 65,
                    "time": 1.7361124999999993,
                    "velocity": 0.3858267716535433,
                    "duration": 0.06944449999999991
                },
                {
                    "name": "D#4",
                    "midi": 63,
                    "time": 1.8055569999999992,
                    "velocity": 0.3858267716535433,
                    "duration": 0.06944449999999991
                },
                {
                    "name": "F4",
                    "midi": 65,
                    "time": 1.875001499999999,
                    "velocity": 0.3858267716535433,
                    "duration": 0.06944449999999991
                },
                {
                    "name": "D#4",
                    "midi": 63,
                    "time": 1.944445999999999,
                    "velocity": 0.3858267716535433,
                    "duration": 0.06944450000000013
                },
                {
                    "name": "F4",
                    "midi": 65,
                    "time": 2.013890499999999,
                    "velocity": 0.3858267716535433,
                    "duration": 0.06944449999999991
                },
                {
                    "name": "D#4",
                    "midi": 63,
                    "time": 2.083334999999999,
                    "velocity": 0.3858267716535433,
                    "duration": 0.06944449999999991
                },
                {
                    "name": "F4",
                    "midi": 65,
                    "time": 2.152779499999999,
                    "velocity": 0.3858267716535433,
                    "duration": 0.06944449999999991
                },
                {
                    "name": "D#4",
                    "midi": 63,
                    "time": 2.222223999999999,
                    "velocity": 0.3858267716535433,
                    "duration": 0.06944449999999991
                },
                {
                    "name": "F4",
                    "midi": 65,
                    "time": 2.2916684999999988,
                    "velocity": 0.3858267716535433,
                    "duration": 0.06944449999999991
                },
                {
                    "name": "D#4",
                    "midi": 63,
                    "time": 2.3611129999999987,
                    "velocity": 0.3858267716535433,
                    "duration": 0.06944449999999991
                },
                {
                    "name": "F4",
                    "midi": 65,
                    "time": 2.4305574999999986,
                    "velocity": 0.3858267716535433,
                    "duration": 0.06944449999999991
                },
                {
                    "name": "D#4",
                    "midi": 63,
                    "time": 2.5000019999999985,
                    "velocity": 0.3858267716535433,
                    "duration": 0.06944449999999991
                },
                {
                    "name": "F4",
                    "midi": 65,
                    "time": 2.5694464999999984,
                    "velocity": 0.3858267716535433,
                    "duration": 0.06944449999999991
                },
                {
                    "name": "D#4",
                    "midi": 63,
                    "time": 2.6388909999999983,
                    "velocity": 0.3858267716535433,
                    "duration": 0.06944449999999991
                },
                {
                    "name": "F4",
                    "midi": 65,
                    "time": 2.7083354999999982,
                    "velocity": 0.3858267716535433,
                    "duration": 0.06944449999999991
                },
                {
                    "name": "D#4",
                    "midi": 63,
                    "time": 2.777779999999998,
                    "velocity": 0.3858267716535433,
                    "duration": 0.06944449999999991
                },
                {
                    "name": "F4",
                    "midi": 65,
                    "time": 2.847224499999998,
                    "velocity": 0.3858267716535433,
                    "duration": 0.06944449999999991
                },
                {
                    "name": "D#4",
                    "midi": 63,
                    "time": 2.916668999999998,
                    "velocity": 0.3858267716535433,
                    "duration": 0.06944449999999991
                },
                {
                    "name": "F4",
                    "midi": 65,
                    "time": 2.986113499999998,
                    "velocity": 0.3858267716535433,
                    "duration": 0.06944449999999991
                },
                {
                    "name": "D#4",
                    "midi": 63,
                    "time": 3.0555579999999978,
                    "velocity": 0.3858267716535433,
                    "duration": 0.06944449999999991
                },
                {
                    "name": "F4",
                    "midi": 65,
                    "time": 3.1250024999999977,
                    "velocity": 0.3858267716535433,
                    "duration": 0.06944449999999991
                },
                {
                    "name": "D#4",
                    "midi": 63,
                    "time": 3.1944469999999976,
                    "velocity": 0.3858267716535433,
                    "duration": 0.06944449999999991
                },
                {
                    "name": "F4",
                    "midi": 65,
                    "time": 3.2638914999999975,
                    "velocity": 0.3858267716535433,
                    "duration": 0.06944449999999991
                },
                {
                    "name": "D#4",
                    "midi": 63,
                    "time": 3.3333359999999974,
                    "velocity": 0.3858267716535433,
                    "duration": 0.06944449999999991
                },
                {
                    "name": "F4",
                    "midi": 65,
                    "time": 3.4027804999999973,
                    "velocity": 0.3858267716535433,
                    "duration": 0.06944449999999991
                },
                {
                    "name": "D#4",
                    "midi": 63,
                    "time": 3.4722249999999972,
                    "velocity": 0.3858267716535433,
                    "duration": 0.06944449999999991
                },
                {
                    "name": "F4",
                    "midi": 65,
                    "time": 3.541669499999997,
                    "velocity": 0.3858267716535433,
                    "duration": 0.06944449999999991
                },
                {
                    "name": "D#4",
                    "midi": 63,
                    "time": 3.611113999999997,
                    "velocity": 0.3858267716535433,
                    "duration": 0.06944449999999991
                },
                {
                    "name": "F4",
                    "midi": 65,
                    "time": 3.680558499999997,
                    "velocity": 0.3858267716535433,
                    "duration": 0.06944449999999991
                },
                {
                    "name": "D#4",
                    "midi": 63,
                    "time": 3.750002999999997,
                    "velocity": 0.3858267716535433,
                    "duration": 0.06944449999999991
                },
                {
                    "name": "F4",
                    "midi": 65,
                    "time": 3.8194474999999968,
                    "velocity": 0.3858267716535433,
                    "duration": 0.06944449999999991
                },
                {
                    "name": "D#4",
                    "midi": 63,
                    "time": 3.8888919999999967,
                    "velocity": 0.3858267716535433,
                    "duration": 0.06944449999999991
                },
                {
                    "name": "F4",
                    "midi": 65,
                    "time": 3.9583364999999966,
                    "velocity": 0.3858267716535433,
                    "duration": 0.06944449999999991
                },
                {
                    "name": "D#4",
                    "midi": 63,
                    "time": 4.0277809999999965,
                    "velocity": 0.3858267716535433,
                    "duration": 0.06944450000000035
                },
                {
                    "name": "F4",
                    "midi": 65,
                    "time": 4.097225499999997,
                    "velocity": 0.3858267716535433,
                    "duration": 0.06944450000000035
                },
                {
                    "name": "D#4",
                    "midi": 63,
                    "time": 4.166669999999997,
                    "velocity": 0.3858267716535433,
                    "duration": 0.06944450000000035
                },
                {
                    "name": "F4",
                    "midi": 65,
                    "time": 4.236114499999998,
                    "velocity": 0.3858267716535433,
                    "duration": 0.06944450000000035
                },
                {
                    "name": "D#4",
                    "midi": 63,
                    "time": 4.305558999999998,
                    "velocity": 0.3858267716535433,
                    "duration": 0.06944450000000035
                },
                {
                    "name": "F4",
                    "midi": 65,
                    "time": 4.375003499999998,
                    "velocity": 0.3858267716535433,
                    "duration": 0.06944450000000035
                },
                {
                    "name": "D#4",
                    "midi": 63,
                    "time": 4.444447999999999,
                    "velocity": 0.3858267716535433,
                    "duration": 0.06944450000000035
                },
                {
                    "name": "F4",
                    "midi": 65,
                    "time": 4.513892499999999,
                    "velocity": 0.3858267716535433,
                    "duration": 0.06944450000000035
                },
                {
                    "name": "D#4",
                    "midi": 63,
                    "time": 4.583336999999999,
                    "velocity": 0.3858267716535433,
                    "duration": 0.06944450000000035
                },
                {
                    "name": "F4",
                    "midi": 65,
                    "time": 4.6527815,
                    "velocity": 0.3858267716535433,
                    "duration": 0.06944450000000035
                },
                {
                    "name": "D#4",
                    "midi": 63,
                    "time": 4.722226,
                    "velocity": 0.3858267716535433,
                    "duration": 0.06944450000000035
                },
                {
                    "name": "F4",
                    "midi": 65,
                    "time": 4.7916705,
                    "velocity": 0.3858267716535433,
                    "duration": 0.06944450000000035
                },
                {
                    "name": "D#4",
                    "midi": 63,
                    "time": 4.861115000000001,
                    "velocity": 0.3858267716535433,
                    "duration": 0.06944450000000035
                },
                {
                    "name": "F4",
                    "midi": 65,
                    "time": 4.930559500000001,
                    "velocity": 0.3858267716535433,
                    "duration": 0.06944450000000035
                },
                {
                    "name": "D#4",
                    "midi": 63,
                    "time": 5.0000040000000014,
                    "velocity": 0.3858267716535433,
                    "duration": 0.06944450000000035
                },
                {
                    "name": "F4",
                    "midi": 65,
                    "time": 5.069448500000002,
                    "velocity": 0.3858267716535433,
                    "duration": 0.06944450000000035
                },
                {
                    "name": "D#4",
                    "midi": 63,
                    "time": 5.138893000000002,
                    "velocity": 0.3858267716535433,
                    "duration": 0.06944450000000035
                },
                {
                    "name": "F4",
                    "midi": 65,
                    "time": 5.2083375000000025,
                    "velocity": 0.3858267716535433,
                    "duration": 0.06944450000000035
                },
                {
                    "name": "D#4",
                    "midi": 63,
                    "time": 5.277782000000003,
                    "velocity": 0.3858267716535433,
                    "duration": 0.06944450000000035
                },
                {
                    "name": "F4",
                    "midi": 65,
                    "time": 5.347226500000003,
                    "velocity": 0.3858267716535433,
                    "duration": 0.06944450000000035
                },
                {
                    "name": "D#4",
                    "midi": 63,
                    "time": 5.416671000000004,
                    "velocity": 0.3858267716535433,
                    "duration": 0.06944450000000035
                },
                {
                    "name": "F4",
                    "midi": 65,
                    "time": 5.486115500000004,
                    "velocity": 0.3858267716535433,
                    "duration": 0.06944450000000035
                },
                {
                    "name": "D#4",
                    "midi": 63,
                    "time": 5.555560000000004,
                    "velocity": 0.3858267716535433,
                    "duration": 0.06944450000000035
                },
                {
                    "name": "F4",
                    "midi": 65,
                    "time": 5.625004500000005,
                    "velocity": 0.3858267716535433,
                    "duration": 0.06944450000000035
                },
                {
                    "name": "D#4",
                    "midi": 63,
                    "time": 5.694449000000005,
                    "velocity": 0.3858267716535433,
                    "duration": 0.06944450000000035
                },
                {
                    "name": "F4",
                    "midi": 65,
                    "time": 5.763893500000005,
                    "velocity": 0.3858267716535433,
                    "duration": 0.06944450000000035
                },
                {
                    "name": "D#4",
                    "midi": 63,
                    "time": 5.833338000000006,
                    "velocity": 0.3858267716535433,
                    "duration": 0.06944450000000035
                },
                {
                    "name": "F4",
                    "midi": 65,
                    "time": 5.902782500000006,
                    "velocity": 0.3858267716535433,
                    "duration": 0.06944450000000035
                },
                {
                    "name": "D#4",
                    "midi": 63,
                    "time": 5.972227000000006,
                    "velocity": 0.3858267716535433,
                    "duration": 0.06944450000000035
                },
                {
                    "name": "F4",
                    "midi": 65,
                    "time": 6.041671500000007,
                    "velocity": 0.3858267716535433,
                    "duration": 0.06944450000000035
                },
                {
                    "name": "D#4",
                    "midi": 63,
                    "time": 6.111116000000007,
                    "velocity": 0.3858267716535433,
                    "duration": 0.06944450000000035
                },
                {
                    "name": "F4",
                    "midi": 65,
                    "time": 6.1805605000000075,
                    "velocity": 0.3858267716535433,
                    "duration": 0.06944450000000035
                },
                {
                    "name": "D#4",
                    "midi": 63,
                    "time": 6.250005000000008,
                    "velocity": 0.3858267716535433,
                    "duration": 0.06944450000000035
                },
                {
                    "name": "F4",
                    "midi": 65,
                    "time": 6.319449500000008,
                    "velocity": 0.3858267716535433,
                    "duration": 0.06944450000000035
                },
                {
                    "name": "D#4",
                    "midi": 63,
                    "time": 6.3888940000000085,
                    "velocity": 0.3858267716535433,
                    "duration": 0.06944450000000035
                },
                {
                    "name": "F4",
                    "midi": 65,
                    "time": 6.458338500000009,
                    "velocity": 0.3858267716535433,
                    "duration": 0.06944450000000035
                },
                {
                    "name": "D#4",
                    "midi": 63,
                    "time": 6.527783000000009,
                    "velocity": 0.3858267716535433,
                    "duration": 0.06944450000000035
                },
                {
                    "name": "F4",
                    "midi": 65,
                    "time": 6.59722750000001,
                    "velocity": 0.3858267716535433,
                    "duration": 0.06944450000000035
                },
                {
                    "name": "D#4",
                    "midi": 63,
                    "time": 6.66667200000001,
                    "velocity": 0.3858267716535433,
                    "duration": 0.06944450000000035
                },
                {
                    "name": "F4",
                    "midi": 65,
                    "time": 6.73611650000001,
                    "velocity": 0.3858267716535433,
                    "duration": 0.06944450000000035
                },
                {
                    "name": "D#4",
                    "midi": 63,
                    "time": 6.805561000000011,
                    "velocity": 0.3858267716535433,
                    "duration": 0.06944450000000035
                },
                {
                    "name": "F4",
                    "midi": 65,
                    "time": 6.875005500000011,
                    "velocity": 0.3858267716535433,
                    "duration": 0.06944450000000035
                },
                {
                    "name": "D#4",
                    "midi": 63,
                    "time": 6.944450000000011,
                    "velocity": 0.3858267716535433,
                    "duration": 0.06944450000000035
                },
                {
                    "name": "F4",
                    "midi": 65,
                    "time": 7.013894500000012,
                    "velocity": 0.3858267716535433,
                    "duration": 0.06944450000000035
                },
                {
                    "name": "D#4",
                    "midi": 63,
                    "time": 7.083339000000012,
                    "velocity": 0.3858267716535433,
                    "duration": 0.06944450000000035
                },
                {
                    "name": "F4",
                    "midi": 65,
                    "time": 7.152783500000012,
                    "velocity": 0.3858267716535433,
                    "duration": 0.06944450000000035
                },
                {
                    "name": "D#4",
                    "midi": 63,
                    "time": 7.222228000000013,
                    "velocity": 0.3858267716535433,
                    "duration": 0.06944450000000035
                },
                {
                    "name": "F4",
                    "midi": 65,
                    "time": 7.291672500000013,
                    "velocity": 0.3858267716535433,
                    "duration": 0.06944450000000035
                },
                {
                    "name": "D#4",
                    "midi": 63,
                    "time": 7.3611170000000135,
                    "velocity": 0.3858267716535433,
                    "duration": 0.06944450000000035
                },
                {
                    "name": "F4",
                    "midi": 65,
                    "time": 7.430561500000014,
                    "velocity": 0.3858267716535433,
                    "duration": 0.06944450000000035
                },
                {
                    "name": "D#4",
                    "midi": 63,
                    "time": 7.500006000000014,
                    "velocity": 0.3858267716535433,
                    "duration": 0.06944450000000035
                },
                {
                    "name": "F4",
                    "midi": 65,
                    "time": 7.5694505000000145,
                    "velocity": 0.3858267716535433,
                    "duration": 0.06944450000000035
                },
                {
                    "name": "D#4",
                    "midi": 63,
                    "time": 7.638895000000015,
                    "velocity": 0.3858267716535433,
                    "duration": 0.06944450000000035
                },
                {
                    "name": "F4",
                    "midi": 65,
                    "time": 7.708339500000015,
                    "velocity": 0.3858267716535433,
                    "duration": 0.06944450000000035
                },
                {
                    "name": "D#4",
                    "midi": 63,
                    "time": 7.777784000000016,
                    "velocity": 0.3858267716535433,
                    "duration": 0.06944450000000035
                },
                {
                    "name": "F4",
                    "midi": 65,
                    "time": 7.847228500000016,
                    "velocity": 0.3858267716535433,
                    "duration": 0.06944450000000035
                },
                {
                    "name": "D#4",
                    "midi": 63,
                    "time": 7.916673000000016,
                    "velocity": 0.3858267716535433,
                    "duration": 0.06944450000000035
                },
                {
                    "name": "F4",
                    "midi": 65,
                    "time": 7.986117500000017,
                    "velocity": 0.3858267716535433,
                    "duration": 0.06944449999999946
                },
                {
                    "name": "D#4",
                    "midi": 63,
                    "time": 8.055562000000016,
                    "velocity": 0.3858267716535433,
                    "duration": 0.06944449999999946
                },
                {
                    "name": "F4",
                    "midi": 65,
                    "time": 8.125006500000016,
                    "velocity": 0.3858267716535433,
                    "duration": 0.06944449999999946
                },
                {
                    "name": "D#4",
                    "midi": 63,
                    "time": 8.194451000000015,
                    "velocity": 0.3858267716535433,
                    "duration": 0.06944449999999946
                },
                {
                    "name": "F4",
                    "midi": 65,
                    "time": 8.263895500000014,
                    "velocity": 0.3858267716535433,
                    "duration": 0.06944449999999946
                },
                {
                    "name": "D#4",
                    "midi": 63,
                    "time": 8.333340000000014,
                    "velocity": 0.3858267716535433,
                    "duration": 0.06944449999999946
                },
                {
                    "name": "F4",
                    "midi": 65,
                    "time": 8.402784500000013,
                    "velocity": 0.3858267716535433,
                    "duration": 0.06944449999999946
                },
                {
                    "name": "D#4",
                    "midi": 63,
                    "time": 8.472229000000013,
                    "velocity": 0.3858267716535433,
                    "duration": 0.06944449999999946
                },
                {
                    "name": "F4",
                    "midi": 65,
                    "time": 8.541673500000012,
                    "velocity": 0.3858267716535433,
                    "duration": 0.06944449999999946
                },
                {
                    "name": "D#4",
                    "midi": 63,
                    "time": 8.611118000000012,
                    "velocity": 0.3858267716535433,
                    "duration": 0.06944449999999946
                },
                {
                    "name": "F4",
                    "midi": 65,
                    "time": 8.680562500000011,
                    "velocity": 0.3858267716535433,
                    "duration": 0.06944449999999946
                },
                {
                    "name": "D#4",
                    "midi": 63,
                    "time": 8.75000700000001,
                    "velocity": 0.3858267716535433,
                    "duration": 0.06944449999999946
                },
                {
                    "name": "F4",
                    "midi": 65,
                    "time": 8.81945150000001,
                    "velocity": 0.3858267716535433,
                    "duration": 0.06944449999999946
                },
                {
                    "name": "D#4",
                    "midi": 63,
                    "time": 8.88889600000001,
                    "velocity": 0.3858267716535433,
                    "duration": 0.06944449999999946
                },
                {
                    "name": "F4",
                    "midi": 65,
                    "time": 8.95834050000001,
                    "velocity": 0.3858267716535433,
                    "duration": 0.06944449999999946
                },
                {
                    "name": "D#4",
                    "midi": 63,
                    "time": 9.027785000000009,
                    "velocity": 0.3858267716535433,
                    "duration": 0.06944449999999946
                },
                {
                    "name": "F4",
                    "midi": 65,
                    "time": 9.097229500000008,
                    "velocity": 0.3858267716535433,
                    "duration": 0.06944449999999946
                },
                {
                    "name": "D#4",
                    "midi": 63,
                    "time": 9.166674000000008,
                    "velocity": 0.3858267716535433,
                    "duration": 0.06944449999999946
                },
                {
                    "name": "F4",
                    "midi": 65,
                    "time": 9.236118500000007,
                    "velocity": 0.3858267716535433,
                    "duration": 0.06944449999999946
                },
                {
                    "name": "D#4",
                    "midi": 63,
                    "time": 9.305563000000006,
                    "velocity": 0.3858267716535433,
                    "duration": 0.06944449999999946
                },
                {
                    "name": "F4",
                    "midi": 65,
                    "time": 9.375007500000006,
                    "velocity": 0.3858267716535433,
                    "duration": 0.06944449999999946
                },
                {
                    "name": "D#4",
                    "midi": 63,
                    "time": 9.444452000000005,
                    "velocity": 0.3858267716535433,
                    "duration": 0.06944449999999946
                },
                {
                    "name": "F4",
                    "midi": 65,
                    "time": 9.513896500000005,
                    "velocity": 0.3858267716535433,
                    "duration": 0.06944449999999946
                },
                {
                    "name": "D#4",
                    "midi": 63,
                    "time": 9.583341000000004,
                    "velocity": 0.3858267716535433,
                    "duration": 0.06944449999999946
                },
                {
                    "name": "F4",
                    "midi": 65,
                    "time": 9.652785500000004,
                    "velocity": 0.3858267716535433,
                    "duration": 0.06944449999999946
                },
                {
                    "name": "D#4",
                    "midi": 63,
                    "time": 9.722230000000003,
                    "velocity": 0.3858267716535433,
                    "duration": 0.06944449999999946
                },
                {
                    "name": "F4",
                    "midi": 65,
                    "time": 9.791674500000003,
                    "velocity": 0.3858267716535433,
                    "duration": 0.06944449999999946
                },
                {
                    "name": "D#4",
                    "midi": 63,
                    "time": 9.861119000000002,
                    "velocity": 0.3858267716535433,
                    "duration": 0.06944449999999946
                },
                {
                    "name": "F4",
                    "midi": 65,
                    "time": 9.930563500000002,
                    "velocity": 0.3858267716535433,
                    "duration": 0.06944449999999946
                },
                {
                    "name": "D#4",
                    "midi": 63,
                    "time": 10.000008000000001,
                    "velocity": 0.3858267716535433,
                    "duration": 0.06944449999999946
                },
                {
                    "name": "F4",
                    "midi": 65,
                    "time": 10.0694525,
                    "velocity": 0.3858267716535433,
                    "duration": 0.06944449999999946
                },
                {
                    "name": "D#4",
                    "midi": 63,
                    "time": 10.138897,
                    "velocity": 0.3858267716535433,
                    "duration": 0.06944449999999946
                },
                {
                    "name": "F4",
                    "midi": 65,
                    "time": 10.2083415,
                    "velocity": 0.3858267716535433,
                    "duration": 0.06944449999999946
                },
                {
                    "name": "D#4",
                    "midi": 63,
                    "time": 10.277785999999999,
                    "velocity": 0.3858267716535433,
                    "duration": 0.06944449999999946
                },
                {
                    "name": "F4",
                    "midi": 65,
                    "time": 10.347230499999998,
                    "velocity": 0.3858267716535433,
                    "duration": 0.06944449999999946
                },
                {
                    "name": "D#4",
                    "midi": 63,
                    "time": 10.416674999999998,
                    "velocity": 0.3858267716535433,
                    "duration": 0.06944449999999946
                },
                {
                    "name": "F4",
                    "midi": 65,
                    "time": 10.486119499999997,
                    "velocity": 0.3858267716535433,
                    "duration": 0.06944449999999946
                },
                {
                    "name": "D#4",
                    "midi": 63,
                    "time": 10.555563999999997,
                    "velocity": 0.3858267716535433,
                    "duration": 0.06944449999999946
                },
                {
                    "name": "F4",
                    "midi": 65,
                    "time": 10.625008499999996,
                    "velocity": 0.3858267716535433,
                    "duration": 0.06944449999999946
                },
                {
                    "name": "D#4",
                    "midi": 63,
                    "time": 10.694452999999996,
                    "velocity": 0.3858267716535433,
                    "duration": 0.06944449999999946
                },
                {
                    "name": "F4",
                    "midi": 65,
                    "time": 10.763897499999995,
                    "velocity": 0.3858267716535433,
                    "duration": 0.06944449999999946
                },
                {
                    "name": "D#4",
                    "midi": 63,
                    "time": 10.833341999999995,
                    "velocity": 0.3858267716535433,
                    "duration": 0.06944449999999946
                },
                {
                    "name": "F4",
                    "midi": 65,
                    "time": 10.902786499999994,
                    "velocity": 0.3858267716535433,
                    "duration": 0.06944449999999946
                },
                {
                    "name": "D#4",
                    "midi": 63,
                    "time": 10.972230999999994,
                    "velocity": 0.3858267716535433,
                    "duration": 0.06944449999999946
                },
                {
                    "name": "F4",
                    "midi": 65,
                    "time": 11.041675499999993,
                    "velocity": 0.3858267716535433,
                    "duration": 0.06944449999999946
                },
                {
                    "name": "D#4",
                    "midi": 63,
                    "time": 11.111119999999993,
                    "velocity": 0.3858267716535433,
                    "duration": 0.06944449999999946
                },
                {
                    "name": "F4",
                    "midi": 65,
                    "time": 11.180564499999992,
                    "velocity": 0.3858267716535433,
                    "duration": 0.06944449999999946
                },
                {
                    "name": "D#4",
                    "midi": 63,
                    "time": 11.250008999999991,
                    "velocity": 0.3858267716535433,
                    "duration": 0.06944449999999946
                },
                {
                    "name": "F4",
                    "midi": 65,
                    "time": 11.319453499999991,
                    "velocity": 0.3858267716535433,
                    "duration": 0.06944449999999946
                },
                {
                    "name": "D#4",
                    "midi": 63,
                    "time": 11.38889799999999,
                    "velocity": 0.3858267716535433,
                    "duration": 0.06944449999999946
                },
                {
                    "name": "F4",
                    "midi": 65,
                    "time": 11.45834249999999,
                    "velocity": 0.3858267716535433,
                    "duration": 0.06944449999999946
                },
                {
                    "name": "D#4",
                    "midi": 63,
                    "time": 11.52778699999999,
                    "velocity": 0.3858267716535433,
                    "duration": 0.06944449999999946
                },
                {
                    "name": "F4",
                    "midi": 65,
                    "time": 11.597231499999989,
                    "velocity": 0.3858267716535433,
                    "duration": 0.06944449999999946
                },
                {
                    "name": "D#4",
                    "midi": 63,
                    "time": 11.666675999999988,
                    "velocity": 0.3858267716535433,
                    "duration": 0.06944449999999946
                },
                {
                    "name": "F4",
                    "midi": 65,
                    "time": 11.736120499999988,
                    "velocity": 0.3858267716535433,
                    "duration": 0.06944449999999946
                },
                {
                    "name": "D#4",
                    "midi": 63,
                    "time": 11.805564999999987,
                    "velocity": 0.3858267716535433,
                    "duration": 0.06944449999999946
                },
                {
                    "name": "F4",
                    "midi": 65,
                    "time": 11.875009499999987,
                    "velocity": 0.3858267716535433,
                    "duration": 0.06944449999999946
                },
                {
                    "name": "D#4",
                    "midi": 63,
                    "time": 11.944453999999986,
                    "velocity": 0.3858267716535433,
                    "duration": 0.06944449999999946
                },
                {
                    "name": "F4",
                    "midi": 65,
                    "time": 12.013898499999986,
                    "velocity": 0.3858267716535433,
                    "duration": 0.06944449999999946
                },
                {
                    "name": "D#4",
                    "midi": 63,
                    "time": 12.083342999999985,
                    "velocity": 0.3858267716535433,
                    "duration": 0.06944449999999946
                },
                {
                    "name": "F4",
                    "midi": 65,
                    "time": 12.152787499999985,
                    "velocity": 0.3858267716535433,
                    "duration": 0.06944449999999946
                },
                {
                    "name": "D#4",
                    "midi": 63,
                    "time": 12.222231999999984,
                    "velocity": 0.3858267716535433,
                    "duration": 0.06944449999999946
                },
                {
                    "name": "F4",
                    "midi": 65,
                    "time": 12.291676499999983,
                    "velocity": 0.3858267716535433,
                    "duration": 0.06944449999999946
                },
                {
                    "name": "D#4",
                    "midi": 63,
                    "time": 12.361120999999983,
                    "velocity": 0.3858267716535433,
                    "duration": 0.06944449999999946
                },
                {
                    "name": "F4",
                    "midi": 65,
                    "time": 12.430565499999982,
                    "velocity": 0.3858267716535433,
                    "duration": 0.06944449999999946
                },
                {
                    "name": "D#4",
                    "midi": 63,
                    "time": 12.500009999999982,
                    "velocity": 0.3858267716535433,
                    "duration": 0.06944449999999946
                },
                {
                    "name": "F4",
                    "midi": 65,
                    "time": 12.569454499999981,
                    "velocity": 0.3858267716535433,
                    "duration": 0.06944449999999946
                },
                {
                    "name": "D#4",
                    "midi": 63,
                    "time": 12.63889899999998,
                    "velocity": 0.3858267716535433,
                    "duration": 0.06944449999999946
                },
                {
                    "name": "F4",
                    "midi": 65,
                    "time": 12.70834349999998,
                    "velocity": 0.3858267716535433,
                    "duration": 0.06944449999999946
                },
                {
                    "name": "D#4",
                    "midi": 63,
                    "time": 12.77778799999998,
                    "velocity": 0.3858267716535433,
                    "duration": 0.06944449999999946
                },
                {
                    "name": "F4",
                    "midi": 65,
                    "time": 12.84723249999998,
                    "velocity": 0.3858267716535433,
                    "duration": 0.06944449999999946
                },
                {
                    "name": "D#4",
                    "midi": 63,
                    "time": 12.916676999999979,
                    "velocity": 0.3858267716535433,
                    "duration": 0.06944449999999946
                },
                {
                    "name": "F4",
                    "midi": 65,
                    "time": 12.986121499999978,
                    "velocity": 0.3858267716535433,
                    "duration": 0.06944449999999946
                },
                {
                    "name": "D#4",
                    "midi": 63,
                    "time": 13.055565999999978,
                    "velocity": 0.3858267716535433,
                    "duration": 0.06944449999999946
                },
                {
                    "name": "F4",
                    "midi": 65,
                    "time": 13.125010499999977,
                    "velocity": 0.3858267716535433,
                    "duration": 0.06944449999999946
                },
                {
                    "name": "D#4",
                    "midi": 63,
                    "time": 13.194454999999977,
                    "velocity": 0.3858267716535433,
                    "duration": 0.06944449999999946
                },
                {
                    "name": "F4",
                    "midi": 65,
                    "time": 13.263899499999976,
                    "velocity": 0.3858267716535433,
                    "duration": 0.06944449999999946
                },
                {
                    "name": "D#4",
                    "midi": 63,
                    "time": 13.333343999999975,
                    "velocity": 0.3858267716535433,
                    "duration": 0.06944449999999946
                },
                {
                    "name": "F4",
                    "midi": 65,
                    "time": 13.402788499999975,
                    "velocity": 0.3858267716535433,
                    "duration": 0.06944449999999946
                },
                {
                    "name": "D#4",
                    "midi": 63,
                    "time": 13.472232999999974,
                    "velocity": 0.3858267716535433,
                    "duration": 0.06944449999999946
                },
                {
                    "name": "F4",
                    "midi": 65,
                    "time": 13.541677499999974,
                    "velocity": 0.3858267716535433,
                    "duration": 0.06944449999999946
                },
                {
                    "name": "D#4",
                    "midi": 63,
                    "time": 13.611121999999973,
                    "velocity": 0.3858267716535433,
                    "duration": 0.06944449999999946
                },
                {
                    "name": "F4",
                    "midi": 65,
                    "time": 13.680566499999973,
                    "velocity": 0.3858267716535433,
                    "duration": 0.06944449999999946
                },
                {
                    "name": "D#4",
                    "midi": 63,
                    "time": 13.750010999999972,
                    "velocity": 0.3858267716535433,
                    "duration": 0.06944449999999946
                },
                {
                    "name": "F4",
                    "midi": 65,
                    "time": 13.819455499999972,
                    "velocity": 0.3858267716535433,
                    "duration": 0.06944449999999946
                },
                {
                    "name": "D#4",
                    "midi": 63,
                    "time": 13.888899999999971,
                    "velocity": 0.3858267716535433,
                    "duration": 0.06944449999999946
                },
                {
                    "name": "F4",
                    "midi": 65,
                    "time": 13.95834449999997,
                    "velocity": 0.3858267716535433,
                    "duration": 0.06944449999999946
                },
                {
                    "name": "D#4",
                    "midi": 63,
                    "time": 14.02778899999997,
                    "velocity": 0.3858267716535433,
                    "duration": 0.06944449999999946
                },
                {
                    "name": "F4",
                    "midi": 65,
                    "time": 14.09723349999997,
                    "velocity": 0.3858267716535433,
                    "duration": 0.06944449999999946
                },
                {
                    "name": "D#4",
                    "midi": 63,
                    "time": 14.166677999999969,
                    "velocity": 0.3858267716535433,
                    "duration": 0.06944449999999946
                },
                {
                    "name": "F4",
                    "midi": 65,
                    "time": 14.236122499999968,
                    "velocity": 0.3858267716535433,
                    "duration": 0.06944449999999946
                },
                {
                    "name": "D#4",
                    "midi": 63,
                    "time": 14.305566999999968,
                    "velocity": 0.3858267716535433,
                    "duration": 0.06944449999999946
                },
                {
                    "name": "F4",
                    "midi": 65,
                    "time": 14.375011499999967,
                    "velocity": 0.3858267716535433,
                    "duration": 0.06944449999999946
                },
                {
                    "name": "D#4",
                    "midi": 63,
                    "time": 14.444455999999967,
                    "velocity": 0.3858267716535433,
                    "duration": 0.06944449999999946
                },
                {
                    "name": "F4",
                    "midi": 65,
                    "time": 14.513900499999966,
                    "velocity": 0.3858267716535433,
                    "duration": 0.06944449999999946
                },
                {
                    "name": "D#4",
                    "midi": 63,
                    "time": 14.583344999999966,
                    "velocity": 0.3858267716535433,
                    "duration": 0.06944449999999946
                },
                {
                    "name": "F4",
                    "midi": 65,
                    "time": 14.652789499999965,
                    "velocity": 0.3858267716535433,
                    "duration": 0.06944449999999946
                },
                {
                    "name": "D#4",
                    "midi": 63,
                    "time": 14.722233999999965,
                    "velocity": 0.3858267716535433,
                    "duration": 0.06944449999999946
                },
                {
                    "name": "F4",
                    "midi": 65,
                    "time": 14.791678499999964,
                    "velocity": 0.3858267716535433,
                    "duration": 0.06944449999999946
                },
                {
                    "name": "D#4",
                    "midi": 63,
                    "time": 14.861122999999964,
                    "velocity": 0.3858267716535433,
                    "duration": 0.06944449999999946
                },
                {
                    "name": "F4",
                    "midi": 65,
                    "time": 14.930567499999963,
                    "velocity": 0.3858267716535433,
                    "duration": 0.06944449999999946
                },
                {
                    "name": "D#4",
                    "midi": 63,
                    "time": 15.000011999999963,
                    "velocity": 0.3858267716535433,
                    "duration": 0.06944449999999946
                },
                {
                    "name": "F4",
                    "midi": 65,
                    "time": 15.069456499999962,
                    "velocity": 0.3858267716535433,
                    "duration": 0.06944449999999946
                },
                {
                    "name": "D#4",
                    "midi": 63,
                    "time": 15.138900999999962,
                    "velocity": 0.3858267716535433,
                    "duration": 0.06944449999999946
                },
                {
                    "name": "F4",
                    "midi": 65,
                    "time": 15.208345499999961,
                    "velocity": 0.3858267716535433,
                    "duration": 0.06944449999999946
                },
                {
                    "name": "D#4",
                    "midi": 63,
                    "time": 15.27778999999996,
                    "velocity": 0.3858267716535433,
                    "duration": 0.06944449999999946
                },
                {
                    "name": "F4",
                    "midi": 65,
                    "time": 15.34723449999996,
                    "velocity": 0.3858267716535433,
                    "duration": 0.06944449999999946
                },
                {
                    "name": "D#4",
                    "midi": 63,
                    "time": 15.41667899999996,
                    "velocity": 0.3858267716535433,
                    "duration": 0.06944449999999946
                },
                {
                    "name": "F4",
                    "midi": 65,
                    "time": 15.486123499999959,
                    "velocity": 0.3858267716535433,
                    "duration": 0.06944449999999946
                },
                {
                    "name": "D#4",
                    "midi": 63,
                    "time": 15.555567999999958,
                    "velocity": 0.3858267716535433,
                    "duration": 0.06944449999999946
                },
                {
                    "name": "F4",
                    "midi": 65,
                    "time": 15.625012499999958,
                    "velocity": 0.3858267716535433,
                    "duration": 0.06944449999999946
                },
                {
                    "name": "D#4",
                    "midi": 63,
                    "time": 15.694456999999957,
                    "velocity": 0.3858267716535433,
                    "duration": 0.06944449999999946
                },
                {
                    "name": "F4",
                    "midi": 65,
                    "time": 15.763901499999957,
                    "velocity": 0.3858267716535433,
                    "duration": 0.06944449999999946
                },
                {
                    "name": "D#4",
                    "midi": 63,
                    "time": 15.833345999999956,
                    "velocity": 0.3858267716535433,
                    "duration": 0.06944449999999946
                },
                {
                    "name": "F4",
                    "midi": 65,
                    "time": 15.902790499999956,
                    "velocity": 0.3858267716535433,
                    "duration": 0.06944449999999946
                },
                {
                    "name": "D#4",
                    "midi": 63,
                    "time": 15.972234999999955,
                    "velocity": 0.3858267716535433,
                    "duration": 0.06944449999999946
                },
                {
                    "name": "F4",
                    "midi": 65,
                    "time": 16.041679499999955,
                    "velocity": 0.3858267716535433,
                    "duration": 0.06944449999999946
                },
                {
                    "name": "D#4",
                    "midi": 63,
                    "time": 16.111123999999954,
                    "velocity": 0.3858267716535433,
                    "duration": 0.06944449999999946
                },
                {
                    "name": "F4",
                    "midi": 65,
                    "time": 16.180568499999954,
                    "velocity": 0.3858267716535433,
                    "duration": 0.06944449999999946
                },
                {
                    "name": "D#4",
                    "midi": 63,
                    "time": 16.250012999999953,
                    "velocity": 0.3858267716535433,
                    "duration": 0.06944449999999946
                },
                {
                    "name": "F4",
                    "midi": 65,
                    "time": 16.319457499999952,
                    "velocity": 0.3858267716535433,
                    "duration": 0.06944449999999946
                },
                {
                    "name": "D#4",
                    "midi": 63,
                    "time": 16.388901999999952,
                    "velocity": 0.3858267716535433,
                    "duration": 0.06944449999999946
                },
                {
                    "name": "F4",
                    "midi": 65,
                    "time": 16.45834649999995,
                    "velocity": 0.3858267716535433,
                    "duration": 0.06944449999999946
                },
                {
                    "name": "D#4",
                    "midi": 63,
                    "time": 16.52779099999995,
                    "velocity": 0.3858267716535433,
                    "duration": 0.06944449999999946
                },
                {
                    "name": "F4",
                    "midi": 65,
                    "time": 16.59723549999995,
                    "velocity": 0.3858267716535433,
                    "duration": 0.06944449999999946
                },
                {
                    "name": "D#4",
                    "midi": 63,
                    "time": 16.66667999999995,
                    "velocity": 0.3858267716535433,
                    "duration": 0.06944449999999946
                },
                {
                    "name": "F4",
                    "midi": 65,
                    "time": 16.73612449999995,
                    "velocity": 0.3858267716535433,
                    "duration": 0.06944449999999946
                },
                {
                    "name": "D#4",
                    "midi": 63,
                    "time": 16.80556899999995,
                    "velocity": 0.3858267716535433,
                    "duration": 0.06944449999999946
                },
                {
                    "name": "F4",
                    "midi": 65,
                    "time": 16.875013499999948,
                    "velocity": 0.3858267716535433,
                    "duration": 0.06944449999999946
                },
                {
                    "name": "D#4",
                    "midi": 63,
                    "time": 16.944457999999948,
                    "velocity": 0.3858267716535433,
                    "duration": 0.06944449999999946
                },
                {
                    "name": "F4",
                    "midi": 65,
                    "time": 17.013902499999947,
                    "velocity": 0.3858267716535433,
                    "duration": 0.06944449999999946
                },
                {
                    "name": "D#4",
                    "midi": 63,
                    "time": 17.083346999999947,
                    "velocity": 0.3858267716535433,
                    "duration": 0.06944449999999946
                },
                {
                    "name": "F4",
                    "midi": 65,
                    "time": 17.152791499999946,
                    "velocity": 0.3858267716535433,
                    "duration": 0.06944449999999946
                },
                {
                    "name": "D#4",
                    "midi": 63,
                    "time": 17.222235999999945,
                    "velocity": 0.3858267716535433,
                    "duration": 0.06944449999999946
                },
                {
                    "name": "F4",
                    "midi": 65,
                    "time": 17.291680499999945,
                    "velocity": 0.3858267716535433,
                    "duration": 0.06944449999999946
                },
                {
                    "name": "D#4",
                    "midi": 63,
                    "time": 17.361124999999944,
                    "velocity": 0.3858267716535433,
                    "duration": 0.06944449999999946
                },
                {
                    "name": "F4",
                    "midi": 65,
                    "time": 17.430569499999944,
                    "velocity": 0.3858267716535433,
                    "duration": 0.06944449999999946
                },
                {
                    "name": "D#4",
                    "midi": 63,
                    "time": 17.500013999999943,
                    "velocity": 0.3858267716535433,
                    "duration": 0.06944449999999946
                },
                {
                    "name": "F4",
                    "midi": 65,
                    "time": 17.569458499999943,
                    "velocity": 0.3858267716535433,
                    "duration": 0.06944449999999946
                },
                {
                    "name": "D#4",
                    "midi": 63,
                    "time": 17.638902999999942,
                    "velocity": 0.3858267716535433,
                    "duration": 0.06944449999999946
                },
                {
                    "name": "F4",
                    "midi": 65,
                    "time": 17.70834749999994,
                    "velocity": 0.3858267716535433,
                    "duration": 0.06944449999999946
                },
                {
                    "name": "D#4",
                    "midi": 63,
                    "time": 17.77779199999994,
                    "velocity": 0.3858267716535433,
                    "duration": 0.06944449999999946
                },
                {
                    "name": "F4",
                    "midi": 65,
                    "time": 17.84723649999994,
                    "velocity": 0.3858267716535433,
                    "duration": 0.06944449999999946
                },
                {
                    "name": "D#4",
                    "midi": 63,
                    "time": 17.91668099999994,
                    "velocity": 0.3858267716535433,
                    "duration": 0.06944449999999946
                },
                {
                    "name": "F4",
                    "midi": 65,
                    "time": 17.98612549999994,
                    "velocity": 0.3858267716535433,
                    "duration": 0.06944449999999946
                },
                {
                    "name": "D#4",
                    "midi": 63,
                    "time": 18.05556999999994,
                    "velocity": 0.3858267716535433,
                    "duration": 0.06944449999999946
                },
                {
                    "name": "F4",
                    "midi": 65,
                    "time": 18.12501449999994,
                    "velocity": 0.3858267716535433,
                    "duration": 0.06944449999999946
                },
                {
                    "name": "D#4",
                    "midi": 63,
                    "time": 18.194458999999938,
                    "velocity": 0.3858267716535433,
                    "duration": 0.06944449999999946
                },
                {
                    "name": "F4",
                    "midi": 65,
                    "time": 18.263903499999937,
                    "velocity": 0.3858267716535433,
                    "duration": 0.06944449999999946
                },
                {
                    "name": "D#4",
                    "midi": 63,
                    "time": 18.333347999999937,
                    "velocity": 0.3858267716535433,
                    "duration": 0.06944449999999946
                },
                {
                    "name": "F4",
                    "midi": 65,
                    "time": 18.402792499999936,
                    "velocity": 0.3858267716535433,
                    "duration": 0.06944449999999946
                },
                {
                    "name": "D#4",
                    "midi": 63,
                    "time": 18.472236999999936,
                    "velocity": 0.3858267716535433,
                    "duration": 0.06944449999999946
                },
                {
                    "name": "F4",
                    "midi": 65,
                    "time": 18.541681499999935,
                    "velocity": 0.3858267716535433,
                    "duration": 0.06944449999999946
                },
                {
                    "name": "D#4",
                    "midi": 63,
                    "time": 18.611125999999935,
                    "velocity": 0.3858267716535433,
                    "duration": 0.06944449999999946
                },
                {
                    "name": "F4",
                    "midi": 65,
                    "time": 18.680570499999934,
                    "velocity": 0.3858267716535433,
                    "duration": 0.06944449999999946
                },
                {
                    "name": "D#4",
                    "midi": 63,
                    "time": 18.750014999999934,
                    "velocity": 0.3858267716535433,
                    "duration": 0.06944449999999946
                },
                {
                    "name": "F4",
                    "midi": 65,
                    "time": 18.819459499999933,
                    "velocity": 0.3858267716535433,
                    "duration": 0.06944449999999946
                },
                {
                    "name": "D#4",
                    "midi": 63,
                    "time": 18.888903999999933,
                    "velocity": 0.3858267716535433,
                    "duration": 0.06944449999999946
                },
                {
                    "name": "F4",
                    "midi": 65,
                    "time": 18.958348499999932,
                    "velocity": 0.3858267716535433,
                    "duration": 0.06944449999999946
                },
                {
                    "name": "D#4",
                    "midi": 63,
                    "time": 19.02779299999993,
                    "velocity": 0.3858267716535433,
                    "duration": 0.06944449999999946
                },
                {
                    "name": "F4",
                    "midi": 65,
                    "time": 19.09723749999993,
                    "velocity": 0.3858267716535433,
                    "duration": 0.06944449999999946
                },
                {
                    "name": "D#4",
                    "midi": 63,
                    "time": 19.16668199999993,
                    "velocity": 0.3858267716535433,
                    "duration": 0.06944449999999946
                },
                {
                    "name": "F4",
                    "midi": 65,
                    "time": 19.23612649999993,
                    "velocity": 0.3858267716535433,
                    "duration": 0.06944449999999946
                },
                {
                    "name": "D#4",
                    "midi": 63,
                    "time": 19.30557099999993,
                    "velocity": 0.3858267716535433,
                    "duration": 0.06944449999999946
                },
                {
                    "name": "F4",
                    "midi": 65,
                    "time": 19.37501549999993,
                    "velocity": 0.3858267716535433,
                    "duration": 0.06944449999999946
                },
                {
                    "name": "D#4",
                    "midi": 63,
                    "time": 19.44445999999993,
                    "velocity": 0.3858267716535433,
                    "duration": 0.06944449999999946
                },
                {
                    "name": "F4",
                    "midi": 65,
                    "time": 19.513904499999928,
                    "velocity": 0.3858267716535433,
                    "duration": 0.06944449999999946
                },
                {
                    "name": "D#4",
                    "midi": 63,
                    "time": 19.583348999999927,
                    "velocity": 0.3858267716535433,
                    "duration": 0.06944449999999946
                },
                {
                    "name": "F4",
                    "midi": 65,
                    "time": 19.652793499999927,
                    "velocity": 0.3858267716535433,
                    "duration": 0.06944449999999946
                },
                {
                    "name": "D#4",
                    "midi": 63,
                    "time": 19.722237999999926,
                    "velocity": 0.3858267716535433,
                    "duration": 0.06944449999999946
                },
                {
                    "name": "F4",
                    "midi": 65,
                    "time": 19.791682499999926,
                    "velocity": 0.3858267716535433,
                    "duration": 0.06944449999999946
                },
                {
                    "name": "D#4",
                    "midi": 63,
                    "time": 19.861126999999925,
                    "velocity": 0.3858267716535433,
                    "duration": 0.06944449999999946
                },
                {
                    "name": "F4",
                    "midi": 65,
                    "time": 19.930571499999925,
                    "velocity": 0.3858267716535433,
                    "duration": 0.06944449999999946
                },
                {
                    "name": "D#4",
                    "midi": 63,
                    "time": 20.000015999999924,
                    "velocity": 0.3858267716535433,
                    "duration": 0.06944449999999946
                },
                {
                    "name": "F4",
                    "midi": 65,
                    "time": 20.069460499999924,
                    "velocity": 0.3858267716535433,
                    "duration": 0.06944449999999946
                },
                {
                    "name": "D#4",
                    "midi": 63,
                    "time": 20.138904999999923,
                    "velocity": 0.3858267716535433,
                    "duration": 0.06944449999999946
                },
                {
                    "name": "F4",
                    "midi": 65,
                    "time": 20.208349499999922,
                    "velocity": 0.3858267716535433,
                    "duration": 0.06944449999999946
                },
                {
                    "name": "D#4",
                    "midi": 63,
                    "time": 20.277793999999922,
                    "velocity": 0.3858267716535433,
                    "duration": 0.06944449999999946
                },
                {
                    "name": "F4",
                    "midi": 65,
                    "time": 20.34723849999992,
                    "velocity": 0.3858267716535433,
                    "duration": 0.06944449999999946
                },
                {
                    "name": "D#4",
                    "midi": 63,
                    "time": 20.41668299999992,
                    "velocity": 0.3858267716535433,
                    "duration": 0.06944449999999946
                },
                {
                    "name": "F4",
                    "midi": 65,
                    "time": 20.48612749999992,
                    "velocity": 0.3858267716535433,
                    "duration": 0.06944449999999946
                },
                {
                    "name": "D#4",
                    "midi": 63,
                    "time": 20.55557199999992,
                    "velocity": 0.3858267716535433,
                    "duration": 0.06944449999999946
                },
                {
                    "name": "F4",
                    "midi": 65,
                    "time": 20.62501649999992,
                    "velocity": 0.3858267716535433,
                    "duration": 0.06944449999999946
                },
                {
                    "name": "D#4",
                    "midi": 63,
                    "time": 20.69446099999992,
                    "velocity": 0.3858267716535433,
                    "duration": 0.06944449999999946
                },
                {
                    "name": "F4",
                    "midi": 65,
                    "time": 20.763905499999918,
                    "velocity": 0.3858267716535433,
                    "duration": 0.06944449999999946
                },
                {
                    "name": "D#4",
                    "midi": 63,
                    "time": 20.833349999999918,
                    "velocity": 0.3858267716535433,
                    "duration": 0.06944449999999946
                },
                {
                    "name": "F4",
                    "midi": 65,
                    "time": 20.902794499999917,
                    "velocity": 0.3858267716535433,
                    "duration": 0.06944449999999946
                },
                {
                    "name": "D#4",
                    "midi": 63,
                    "time": 20.972238999999917,
                    "velocity": 0.3858267716535433,
                    "duration": 0.06944449999999946
                },
                {
                    "name": "F4",
                    "midi": 65,
                    "time": 21.041683499999916,
                    "velocity": 0.3858267716535433,
                    "duration": 0.06944449999999946
                },
                {
                    "name": "D#4",
                    "midi": 63,
                    "time": 21.111127999999916,
                    "velocity": 0.3858267716535433,
                    "duration": 0.06944449999999946
                },
                {
                    "name": "F4",
                    "midi": 65,
                    "time": 21.180572499999915,
                    "velocity": 0.3858267716535433,
                    "duration": 0.06944449999999946
                },
                {
                    "name": "D#4",
                    "midi": 63,
                    "time": 21.250016999999914,
                    "velocity": 0.3858267716535433,
                    "duration": 0.06944449999999946
                },
                {
                    "name": "F4",
                    "midi": 65,
                    "time": 21.319461499999914,
                    "velocity": 0.3858267716535433,
                    "duration": 0.06944449999999946
                },
                {
                    "name": "D#4",
                    "midi": 63,
                    "time": 21.388905999999913,
                    "velocity": 0.3858267716535433,
                    "duration": 0.06944449999999946
                },
                {
                    "name": "F4",
                    "midi": 65,
                    "time": 21.458350499999913,
                    "velocity": 0.3858267716535433,
                    "duration": 0.06944449999999946
                },
                {
                    "name": "D#4",
                    "midi": 63,
                    "time": 21.527794999999912,
                    "velocity": 0.3858267716535433,
                    "duration": 0.06944449999999946
                },
                {
                    "name": "F4",
                    "midi": 65,
                    "time": 21.59723949999991,
                    "velocity": 0.3858267716535433,
                    "duration": 0.06944449999999946
                },
                {
                    "name": "D#4",
                    "midi": 63,
                    "time": 21.66668399999991,
                    "velocity": 0.3858267716535433,
                    "duration": 0.06944449999999946
                },
                {
                    "name": "F4",
                    "midi": 65,
                    "time": 21.73612849999991,
                    "velocity": 0.3858267716535433,
                    "duration": 0.06944449999999946
                },
                {
                    "name": "D#4",
                    "midi": 63,
                    "time": 21.80557299999991,
                    "velocity": 0.3858267716535433,
                    "duration": 0.06944449999999946
                },
                {
                    "name": "F4",
                    "midi": 65,
                    "time": 21.87501749999991,
                    "velocity": 0.3858267716535433,
                    "duration": 0.06944449999999946
                },
                {
                    "name": "D#4",
                    "midi": 63,
                    "time": 21.94446199999991,
                    "velocity": 0.3858267716535433,
                    "duration": 0.06944449999999946
                },
                {
                    "name": "F4",
                    "midi": 65,
                    "time": 22.01390649999991,
                    "velocity": 0.3858267716535433,
                    "duration": 0.06944449999999946
                },
                {
                    "name": "D#4",
                    "midi": 63,
                    "time": 22.083350999999908,
                    "velocity": 0.3858267716535433,
                    "duration": 0.06944449999999946
                },
                {
                    "name": "F4",
                    "midi": 65,
                    "time": 22.152795499999907,
                    "velocity": 0.3858267716535433,
                    "duration": 0.06944449999999946
                },
                {
                    "name": "D#4",
                    "midi": 63,
                    "time": 22.222239999999907,
                    "velocity": 0.3858267716535433,
                    "duration": 0.06944449999999946
                },
                {
                    "name": "F4",
                    "midi": 65,
                    "time": 22.291684499999906,
                    "velocity": 0.3858267716535433,
                    "duration": 0.06944449999999946
                },
                {
                    "name": "D#4",
                    "midi": 63,
                    "time": 22.361128999999906,
                    "velocity": 0.3858267716535433,
                    "duration": 0.06944449999999946
                },
                {
                    "name": "F4",
                    "midi": 65,
                    "time": 22.430573499999905,
                    "velocity": 0.3858267716535433,
                    "duration": 0.06944449999999946
                },
                {
                    "name": "D#4",
                    "midi": 63,
                    "time": 22.500017999999905,
                    "velocity": 0.3858267716535433,
                    "duration": 0.06944449999999946
                },
                {
                    "name": "F4",
                    "midi": 65,
                    "time": 22.569462499999904,
                    "velocity": 0.3858267716535433,
                    "duration": 0.06944449999999946
                },
                {
                    "name": "D#4",
                    "midi": 63,
                    "time": 22.638906999999904,
                    "velocity": 0.3858267716535433,
                    "duration": 0.06944449999999946
                },
                {
                    "name": "F4",
                    "midi": 65,
                    "time": 22.708351499999903,
                    "velocity": 0.3858267716535433,
                    "duration": 0.06944449999999946
                },
                {
                    "name": "D#4",
                    "midi": 63,
                    "time": 22.777795999999903,
                    "velocity": 0.3858267716535433,
                    "duration": 0.06944449999999946
                },
                {
                    "name": "F4",
                    "midi": 65,
                    "time": 22.847240499999902,
                    "velocity": 0.3858267716535433,
                    "duration": 0.06944449999999946
                },
                {
                    "name": "D#4",
                    "midi": 63,
                    "time": 22.9166849999999,
                    "velocity": 0.3858267716535433,
                    "duration": 0.06944449999999946
                },
                {
                    "name": "F4",
                    "midi": 65,
                    "time": 22.9861294999999,
                    "velocity": 0.3858267716535433,
                    "duration": 0.06944449999999946
                },
                {
                    "name": "D#4",
                    "midi": 63,
                    "time": 23.0555739999999,
                    "velocity": 0.3858267716535433,
                    "duration": 0.06944449999999946
                },
                {
                    "name": "F4",
                    "midi": 65,
                    "time": 23.1250184999999,
                    "velocity": 0.3858267716535433,
                    "duration": 0.06944449999999946
                },
                {
                    "name": "D#4",
                    "midi": 63,
                    "time": 23.1944629999999,
                    "velocity": 0.3858267716535433,
                    "duration": 0.06944449999999946
                },
                {
                    "name": "F4",
                    "midi": 65,
                    "time": 23.2639074999999,
                    "velocity": 0.3858267716535433,
                    "duration": 0.06944449999999946
                },
                {
                    "name": "D#4",
                    "midi": 63,
                    "time": 23.3333519999999,
                    "velocity": 0.3858267716535433,
                    "duration": 0.06944449999999946
                },
                {
                    "name": "F4",
                    "midi": 65,
                    "time": 23.402796499999898,
                    "velocity": 0.3858267716535433,
                    "duration": 0.06944449999999946
                },
                {
                    "name": "D#4",
                    "midi": 63,
                    "time": 23.472240999999897,
                    "velocity": 0.3858267716535433,
                    "duration": 0.06944449999999946
                },
                {
                    "name": "F4",
                    "midi": 65,
                    "time": 23.541685499999897,
                    "velocity": 0.3858267716535433,
                    "duration": 0.06944449999999946
                },
                {
                    "name": "D#4",
                    "midi": 63,
                    "time": 23.611129999999896,
                    "velocity": 0.3858267716535433,
                    "duration": 0.06944449999999946
                },
                {
                    "name": "F4",
                    "midi": 65,
                    "time": 23.680574499999896,
                    "velocity": 0.3858267716535433,
                    "duration": 0.06944449999999946
                },
                {
                    "name": "D#4",
                    "midi": 63,
                    "time": 23.750018999999895,
                    "velocity": 0.3858267716535433,
                    "duration": 0.06944449999999946
                },
                {
                    "name": "F4",
                    "midi": 65,
                    "time": 23.819463499999895,
                    "velocity": 0.3858267716535433,
                    "duration": 0.06944449999999946
                },
                {
                    "name": "D#4",
                    "midi": 63,
                    "time": 23.888907999999894,
                    "velocity": 0.3858267716535433,
                    "duration": 0.06944449999999946
                },
                {
                    "name": "F4",
                    "midi": 65,
                    "time": 23.958352499999894,
                    "velocity": 0.3858267716535433,
                    "duration": 0.06944449999999946
                },
                {
                    "name": "D#4",
                    "midi": 63,
                    "time": 24.027796999999893,
                    "velocity": 0.3858267716535433,
                    "duration": 0.06944449999999946
                },
                {
                    "name": "F4",
                    "midi": 65,
                    "time": 24.097241499999893,
                    "velocity": 0.3858267716535433,
                    "duration": 0.06944449999999946
                },
                {
                    "name": "D#4",
                    "midi": 63,
                    "time": 24.166685999999892,
                    "velocity": 0.3858267716535433,
                    "duration": 0.06944449999999946
                },
                {
                    "name": "F4",
                    "midi": 65,
                    "time": 24.23613049999989,
                    "velocity": 0.3858267716535433,
                    "duration": 0.06944449999999946
                },
                {
                    "name": "D#4",
                    "midi": 63,
                    "time": 24.30557499999989,
                    "velocity": 0.3858267716535433,
                    "duration": 0.06944449999999946
                },
                {
                    "name": "F4",
                    "midi": 65,
                    "time": 24.37501949999989,
                    "velocity": 0.3858267716535433,
                    "duration": 0.06944449999999946
                },
                {
                    "name": "D#1",
                    "midi": 27,
                    "time": 24.44446399999989,
                    "velocity": 0.5905511811023622,
                    "duration": 0.5555559999999993
                },
                {
                    "name": "A#1",
                    "midi": 34,
                    "time": 24.44446399999989,
                    "velocity": 0.5905511811023622,
                    "duration": 0.5555559999999993
                },
                {
                    "name": "D#2",
                    "midi": 39,
                    "time": 24.44446399999989,
                    "velocity": 0.5905511811023622,
                    "duration": 0.5555559999999993
                },
                {
                    "name": "A#2",
                    "midi": 46,
                    "time": 24.44446399999989,
                    "velocity": 0.5905511811023622,
                    "duration": 0.5555559999999993
                },
                {
                    "name": "F2",
                    "midi": 41,
                    "time": 25.27779799999989,
                    "velocity": 0.4881889763779528,
                    "duration": 0.11111119999999985
                },
                {
                    "name": "C3",
                    "midi": 48,
                    "time": 25.27779799999989,
                    "velocity": 0.4881889763779528,
                    "duration": 0.11111119999999985
                },
                {
                    "name": "F#2",
                    "midi": 42,
                    "time": 25.83335399999989,
                    "velocity": 0.4881889763779528,
                    "duration": 0.11111119999999985
                },
                {
                    "name": "C#3",
                    "midi": 49,
                    "time": 25.83335399999989,
                    "velocity": 0.4881889763779528,
                    "duration": 0.11111119999999985
                },
                {
                    "name": "G#2",
                    "midi": 44,
                    "time": 26.38890999999989,
                    "velocity": 0.4881889763779528,
                    "duration": 0.05439819166666737
                },
                {
                    "name": "D#3",
                    "midi": 51,
                    "time": 26.38890999999989,
                    "velocity": 0.4881889763779528,
                    "duration": 0.05439819166666737
                },
                {
                    "name": "D#1",
                    "midi": 27,
                    "time": 26.66668799999989,
                    "velocity": 0.5905511811023622,
                    "duration": 0.5555559999999993
                },
                {
                    "name": "A#1",
                    "midi": 34,
                    "time": 26.66668799999989,
                    "velocity": 0.5905511811023622,
                    "duration": 0.5555559999999993
                },
                {
                    "name": "D#2",
                    "midi": 39,
                    "time": 26.66668799999989,
                    "velocity": 0.5905511811023622,
                    "duration": 0.5555559999999993
                },
                {
                    "name": "A#2",
                    "midi": 46,
                    "time": 26.66668799999989,
                    "velocity": 0.5905511811023622,
                    "duration": 0.5555559999999993
                },
                {
                    "name": "F2",
                    "midi": 41,
                    "time": 27.50002199999989,
                    "velocity": 0.4881889763779528,
                    "duration": 0.5555559999999993
                },
                {
                    "name": "C3",
                    "midi": 48,
                    "time": 27.50002199999989,
                    "velocity": 0.4881889763779528,
                    "duration": 0.5555559999999993
                },
                {
                    "name": "F#2",
                    "midi": 42,
                    "time": 28.05557799999989,
                    "velocity": 0.4881889763779528,
                    "duration": 0.11111119999999985
                },
                {
                    "name": "C#3",
                    "midi": 49,
                    "time": 28.05557799999989,
                    "velocity": 0.4881889763779528,
                    "duration": 0.11111119999999985
                },
                {
                    "name": "G#2",
                    "midi": 44,
                    "time": 28.61113399999989,
                    "velocity": 0.4881889763779528,
                    "duration": 0.05439819166666737
                },
                {
                    "name": "D#3",
                    "midi": 51,
                    "time": 28.61113399999989,
                    "velocity": 0.4881889763779528,
                    "duration": 0.05439819166666737
                },
                {
                    "name": "D#1",
                    "midi": 27,
                    "time": 28.88891199999989,
                    "velocity": 0.5905511811023622,
                    "duration": 0.5555559999999993
                },
                {
                    "name": "A#1",
                    "midi": 34,
                    "time": 28.88891199999989,
                    "velocity": 0.5905511811023622,
                    "duration": 0.5555559999999993
                },
                {
                    "name": "D#2",
                    "midi": 39,
                    "time": 28.88891199999989,
                    "velocity": 0.5905511811023622,
                    "duration": 0.5555559999999993
                },
                {
                    "name": "A#2",
                    "midi": 46,
                    "time": 28.88891199999989,
                    "velocity": 0.5905511811023622,
                    "duration": 0.5555559999999993
                },
                {
                    "name": "F2",
                    "midi": 41,
                    "time": 29.722245999999892,
                    "velocity": 0.4881889763779528,
                    "duration": 0.5555559999999993
                },
                {
                    "name": "C3",
                    "midi": 48,
                    "time": 29.722245999999892,
                    "velocity": 0.4881889763779528,
                    "duration": 0.5555559999999993
                },
                {
                    "name": "F#2",
                    "midi": 42,
                    "time": 30.27780199999989,
                    "velocity": 0.4881889763779528,
                    "duration": 0.11111119999999985
                },
                {
                    "name": "C#3",
                    "midi": 49,
                    "time": 30.27780199999989,
                    "velocity": 0.4881889763779528,
                    "duration": 0.11111119999999985
                },
                {
                    "name": "G#2",
                    "midi": 44,
                    "time": 30.83335799999989,
                    "velocity": 0.4881889763779528,
                    "duration": 0.05439819166666737
                },
                {
                    "name": "D#3",
                    "midi": 51,
                    "time": 30.83335799999989,
                    "velocity": 0.4881889763779528,
                    "duration": 0.05439819166666737
                },
                {
                    "name": "A#3",
                    "midi": 58,
                    "time": 31.38891399999989,
                    "velocity": 0.4881889763779528,
                    "duration": 0.5555559999999993
                },
                {
                    "name": "D#4",
                    "midi": 63,
                    "time": 31.38891399999989,
                    "velocity": 0.4881889763779528,
                    "duration": 0.5555559999999993
                },
                {
                    "name": "D#1",
                    "midi": 27,
                    "time": 33.33335999999989,
                    "velocity": 0.5905511811023622,
                    "duration": 0.5555560000000028
                },
                {
                    "name": "A#1",
                    "midi": 34,
                    "time": 33.33335999999989,
                    "velocity": 0.5905511811023622,
                    "duration": 0.5555560000000028
                },
                {
                    "name": "D#2",
                    "midi": 39,
                    "time": 33.33335999999989,
                    "velocity": 0.5905511811023622,
                    "duration": 0.5555560000000028
                },
                {
                    "name": "A#2",
                    "midi": 46,
                    "time": 33.33335999999989,
                    "velocity": 0.5905511811023622,
                    "duration": 0.5555560000000028
                },
                {
                    "name": "F2",
                    "midi": 41,
                    "time": 34.16669399999989,
                    "velocity": 0.4881889763779528,
                    "duration": 0.5555560000000028
                },
                {
                    "name": "C3",
                    "midi": 48,
                    "time": 34.16669399999989,
                    "velocity": 0.4881889763779528,
                    "duration": 0.5555560000000028
                },
                {
                    "name": "F#2",
                    "midi": 42,
                    "time": 34.722249999999896,
                    "velocity": 0.4881889763779528,
                    "duration": 0.11111120000000341
                },
                {
                    "name": "C#3",
                    "midi": 49,
                    "time": 34.722249999999896,
                    "velocity": 0.4881889763779528,
                    "duration": 0.11111120000000341
                },
                {
                    "name": "G#2",
                    "midi": 44,
                    "time": 35.2778059999999,
                    "velocity": 0.4881889763779528,
                    "duration": 0.05439819166666382
                },
                {
                    "name": "D#3",
                    "midi": 51,
                    "time": 35.2778059999999,
                    "velocity": 0.4881889763779528,
                    "duration": 0.05439819166666382
                },
                {
                    "name": "D#1",
                    "midi": 27,
                    "time": 35.5555839999999,
                    "velocity": 0.5905511811023622,
                    "duration": 0.5555560000000028
                },
                {
                    "name": "A#1",
                    "midi": 34,
                    "time": 35.5555839999999,
                    "velocity": 0.5905511811023622,
                    "duration": 0.5555560000000028
                },
                {
                    "name": "D#2",
                    "midi": 39,
                    "time": 35.5555839999999,
                    "velocity": 0.5905511811023622,
                    "duration": 0.5555560000000028
                },
                {
                    "name": "A#2",
                    "midi": 46,
                    "time": 35.5555839999999,
                    "velocity": 0.5905511811023622,
                    "duration": 0.5555560000000028
                },
                {
                    "name": "F2",
                    "midi": 41,
                    "time": 36.3889179999999,
                    "velocity": 0.4881889763779528,
                    "duration": 0.5555560000000028
                },
                {
                    "name": "C3",
                    "midi": 48,
                    "time": 36.3889179999999,
                    "velocity": 0.4881889763779528,
                    "duration": 0.5555560000000028
                },
                {
                    "name": "F#2",
                    "midi": 42,
                    "time": 36.9444739999999,
                    "velocity": 0.4881889763779528,
                    "duration": 0.11111120000000341
                },
                {
                    "name": "C#3",
                    "midi": 49,
                    "time": 36.9444739999999,
                    "velocity": 0.4881889763779528,
                    "duration": 0.11111120000000341
                },
                {
                    "name": "G#2",
                    "midi": 44,
                    "time": 37.5000299999999,
                    "velocity": 0.4881889763779528,
                    "duration": 0.05439819166666382
                },
                {
                    "name": "D#3",
                    "midi": 51,
                    "time": 37.5000299999999,
                    "velocity": 0.4881889763779528,
                    "duration": 0.05439819166666382
                },
                {
                    "name": "A#3",
                    "midi": 58,
                    "time": 38.0555859999999,
                    "velocity": 0.4881889763779528,
                    "duration": 0.5555560000000028
                },
                {
                    "name": "D#4",
                    "midi": 63,
                    "time": 38.0555859999999,
                    "velocity": 0.4881889763779528,
                    "duration": 0.5555560000000028
                },
                {
                    "name": "D#1",
                    "midi": 27,
                    "time": 41.6666999999999,
                    "velocity": 0.5905511811023622,
                    "duration": 0.5555560000000028
                },
                {
                    "name": "A#1",
                    "midi": 34,
                    "time": 41.6666999999999,
                    "velocity": 0.5905511811023622,
                    "duration": 0.5555560000000028
                },
                {
                    "name": "F2",
                    "midi": 41,
                    "time": 42.5000339999999,
                    "velocity": 0.4881889763779528,
                    "duration": 0.5555560000000028
                },
                {
                    "name": "C3",
                    "midi": 48,
                    "time": 42.5000339999999,
                    "velocity": 0.4881889763779528,
                    "duration": 0.5555560000000028
                },
                {
                    "name": "F#2",
                    "midi": 42,
                    "time": 43.0555899999999,
                    "velocity": 0.4881889763779528,
                    "duration": 0.11111120000000341
                },
                {
                    "name": "C#3",
                    "midi": 49,
                    "time": 43.0555899999999,
                    "velocity": 0.4881889763779528,
                    "duration": 0.11111120000000341
                },
                {
                    "name": "G#2",
                    "midi": 44,
                    "time": 43.611145999999906,
                    "velocity": 0.4881889763779528,
                    "duration": 0.05439819166666382
                },
                {
                    "name": "D#3",
                    "midi": 51,
                    "time": 43.611145999999906,
                    "velocity": 0.4881889763779528,
                    "duration": 0.05439819166666382
                },
                {
                    "name": "D#1",
                    "midi": 27,
                    "time": 43.8889239999999,
                    "velocity": 0.5905511811023622,
                    "duration": 0.5555560000000028
                },
                {
                    "name": "A#1",
                    "midi": 34,
                    "time": 43.8889239999999,
                    "velocity": 0.5905511811023622,
                    "duration": 0.5555560000000028
                },
                {
                    "name": "D#2",
                    "midi": 39,
                    "time": 43.8889239999999,
                    "velocity": 0.5905511811023622,
                    "duration": 0.5555560000000028
                },
                {
                    "name": "A#2",
                    "midi": 46,
                    "time": 43.8889239999999,
                    "velocity": 0.5905511811023622,
                    "duration": 0.5555560000000028
                },
                {
                    "name": "F2",
                    "midi": 41,
                    "time": 44.722257999999904,
                    "velocity": 0.4881889763779528,
                    "duration": 0.5555560000000028
                },
                {
                    "name": "C3",
                    "midi": 48,
                    "time": 44.722257999999904,
                    "velocity": 0.4881889763779528,
                    "duration": 0.5555560000000028
                },
                {
                    "name": "F#2",
                    "midi": 42,
                    "time": 45.27781399999991,
                    "velocity": 0.4881889763779528,
                    "duration": 0.11111120000000341
                },
                {
                    "name": "C#3",
                    "midi": 49,
                    "time": 45.27781399999991,
                    "velocity": 0.4881889763779528,
                    "duration": 0.11111120000000341
                },
                {
                    "name": "G#2",
                    "midi": 44,
                    "time": 45.83336999999991,
                    "velocity": 0.4881889763779528,
                    "duration": 0.05439819166666382
                },
                {
                    "name": "D#3",
                    "midi": 51,
                    "time": 45.83336999999991,
                    "velocity": 0.4881889763779528,
                    "duration": 0.05439819166666382
                },
                {
                    "name": "D#1",
                    "midi": 27,
                    "time": 46.11114799999991,
                    "velocity": 0.5905511811023622,
                    "duration": 0.5555560000000028
                },
                {
                    "name": "A#1",
                    "midi": 34,
                    "time": 46.11114799999991,
                    "velocity": 0.5905511811023622,
                    "duration": 0.5555560000000028
                },
                {
                    "name": "D#2",
                    "midi": 39,
                    "time": 46.11114799999991,
                    "velocity": 0.5905511811023622,
                    "duration": 0.5555560000000028
                },
                {
                    "name": "A#2",
                    "midi": 46,
                    "time": 46.11114799999991,
                    "velocity": 0.5905511811023622,
                    "duration": 0.5555560000000028
                },
                {
                    "name": "F2",
                    "midi": 41,
                    "time": 46.94448199999991,
                    "velocity": 0.4881889763779528,
                    "duration": 0.5555560000000028
                },
                {
                    "name": "C3",
                    "midi": 48,
                    "time": 46.94448199999991,
                    "velocity": 0.4881889763779528,
                    "duration": 0.5555560000000028
                },
                {
                    "name": "F#2",
                    "midi": 42,
                    "time": 47.50003799999991,
                    "velocity": 0.4881889763779528,
                    "duration": 0.11111120000000341
                },
                {
                    "name": "C#3",
                    "midi": 49,
                    "time": 47.50003799999991,
                    "velocity": 0.4881889763779528,
                    "duration": 0.11111120000000341
                },
                {
                    "name": "G#2",
                    "midi": 44,
                    "time": 48.055593999999914,
                    "velocity": 0.4881889763779528,
                    "duration": 0.05439819166666382
                },
                {
                    "name": "D#3",
                    "midi": 51,
                    "time": 48.055593999999914,
                    "velocity": 0.4881889763779528,
                    "duration": 0.05439819166666382
                },
                {
                    "name": "D#1",
                    "midi": 27,
                    "time": 48.33337199999991,
                    "velocity": 0.5905511811023622,
                    "duration": 0.5555560000000028
                },
                {
                    "name": "A#1",
                    "midi": 34,
                    "time": 48.33337199999991,
                    "velocity": 0.5905511811023622,
                    "duration": 0.5555560000000028
                },
                {
                    "name": "F2",
                    "midi": 41,
                    "time": 49.16670599999991,
                    "velocity": 0.4881889763779528,
                    "duration": 0.5555560000000028
                },
                {
                    "name": "C3",
                    "midi": 48,
                    "time": 49.16670599999991,
                    "velocity": 0.4881889763779528,
                    "duration": 0.5555560000000028
                },
                {
                    "name": "F#2",
                    "midi": 42,
                    "time": 49.722261999999915,
                    "velocity": 0.4881889763779528,
                    "duration": 0.11111120000000341
                },
                {
                    "name": "C#3",
                    "midi": 49,
                    "time": 49.722261999999915,
                    "velocity": 0.4881889763779528,
                    "duration": 0.11111120000000341
                },
                {
                    "name": "G#2",
                    "midi": 44,
                    "time": 50.27781799999992,
                    "velocity": 0.4881889763779528,
                    "duration": 0.05439819166666382
                },
                {
                    "name": "D#3",
                    "midi": 51,
                    "time": 50.27781799999992,
                    "velocity": 0.4881889763779528,
                    "duration": 0.05439819166666382
                },
                {
                    "name": "D#1",
                    "midi": 27,
                    "time": 50.555595999999916,
                    "velocity": 0.5905511811023622,
                    "duration": 0.5555560000000028
                },
                {
                    "name": "A#1",
                    "midi": 34,
                    "time": 50.555595999999916,
                    "velocity": 0.5905511811023622,
                    "duration": 0.5555560000000028
                },
                {
                    "name": "D#2",
                    "midi": 39,
                    "time": 50.555595999999916,
                    "velocity": 0.5905511811023622,
                    "duration": 0.5555560000000028
                },
                {
                    "name": "A#2",
                    "midi": 46,
                    "time": 50.555595999999916,
                    "velocity": 0.5905511811023622,
                    "duration": 0.5555560000000028
                },
                {
                    "name": "F2",
                    "midi": 41,
                    "time": 51.38892999999992,
                    "velocity": 0.4881889763779528,
                    "duration": 0.5555560000000028
                },
                {
                    "name": "C3",
                    "midi": 48,
                    "time": 51.38892999999992,
                    "velocity": 0.4881889763779528,
                    "duration": 0.5555560000000028
                },
                {
                    "name": "F#2",
                    "midi": 42,
                    "time": 51.94448599999992,
                    "velocity": 0.4881889763779528,
                    "duration": 0.11111120000000341
                },
                {
                    "name": "C#3",
                    "midi": 49,
                    "time": 51.94448599999992,
                    "velocity": 0.4881889763779528,
                    "duration": 0.11111120000000341
                },
                {
                    "name": "G#2",
                    "midi": 44,
                    "time": 52.50004199999992,
                    "velocity": 0.4881889763779528,
                    "duration": 0.05439819166666382
                },
                {
                    "name": "D#3",
                    "midi": 51,
                    "time": 52.50004199999992,
                    "velocity": 0.4881889763779528,
                    "duration": 0.05439819166666382
                },
                {
                    "name": "D#1",
                    "midi": 27,
                    "time": 52.77781999999992,
                    "velocity": 0.5905511811023622,
                    "duration": 0.5555560000000028
                },
                {
                    "name": "A#1",
                    "midi": 34,
                    "time": 52.77781999999992,
                    "velocity": 0.5905511811023622,
                    "duration": 0.5555560000000028
                },
                {
                    "name": "F2",
                    "midi": 41,
                    "time": 53.61115399999992,
                    "velocity": 0.4881889763779528,
                    "duration": 0.5555560000000028
                },
                {
                    "name": "C3",
                    "midi": 48,
                    "time": 53.61115399999992,
                    "velocity": 0.4881889763779528,
                    "duration": 0.5555560000000028
                },
                {
                    "name": "F#2",
                    "midi": 42,
                    "time": 54.166709999999924,
                    "velocity": 0.4881889763779528,
                    "duration": 0.11111120000000341
                },
                {
                    "name": "C#3",
                    "midi": 49,
                    "time": 54.166709999999924,
                    "velocity": 0.4881889763779528,
                    "duration": 0.11111120000000341
                },
                {
                    "name": "G#2",
                    "midi": 44,
                    "time": 54.72226599999993,
                    "velocity": 0.4881889763779528,
                    "duration": 0.05439819166666382
                },
                {
                    "name": "D#3",
                    "midi": 51,
                    "time": 54.72226599999993,
                    "velocity": 0.4881889763779528,
                    "duration": 0.05439819166666382
                },
                {
                    "name": "D#1",
                    "midi": 27,
                    "time": 55.000043999999924,
                    "velocity": 0.5905511811023622,
                    "duration": 0.5555560000000028
                },
                {
                    "name": "A#1",
                    "midi": 34,
                    "time": 55.000043999999924,
                    "velocity": 0.5905511811023622,
                    "duration": 0.5555560000000028
                },
                {
                    "name": "F2",
                    "midi": 41,
                    "time": 55.833377999999925,
                    "velocity": 0.4881889763779528,
                    "duration": 0.5555560000000028
                },
                {
                    "name": "C3",
                    "midi": 48,
                    "time": 55.833377999999925,
                    "velocity": 0.4881889763779528,
                    "duration": 0.5555560000000028
                },
                {
                    "name": "F#2",
                    "midi": 42,
                    "time": 56.38893399999993,
                    "velocity": 0.4881889763779528,
                    "duration": 0.11111120000000341
                },
                {
                    "name": "C#3",
                    "midi": 49,
                    "time": 56.38893399999993,
                    "velocity": 0.4881889763779528,
                    "duration": 0.11111120000000341
                },
                {
                    "name": "G#2",
                    "midi": 44,
                    "time": 56.94448999999993,
                    "velocity": 0.4881889763779528,
                    "duration": 0.05439819166666382
                },
                {
                    "name": "D#3",
                    "midi": 51,
                    "time": 56.94448999999993,
                    "velocity": 0.4881889763779528,
                    "duration": 0.05439819166666382
                },
                {
                    "name": "D#1",
                    "midi": 27,
                    "time": 57.22226799999993,
                    "velocity": 0.5905511811023622,
                    "duration": 0.5555560000000028
                },
                {
                    "name": "A#1",
                    "midi": 34,
                    "time": 57.22226799999993,
                    "velocity": 0.5905511811023622,
                    "duration": 0.5555560000000028
                },
                {
                    "name": "D#2",
                    "midi": 39,
                    "time": 57.22226799999993,
                    "velocity": 0.5905511811023622,
                    "duration": 0.5555560000000028
                },
                {
                    "name": "A#2",
                    "midi": 46,
                    "time": 57.22226799999993,
                    "velocity": 0.5905511811023622,
                    "duration": 0.5555560000000028
                },
                {
                    "name": "F2",
                    "midi": 41,
                    "time": 58.05560199999993,
                    "velocity": 0.4881889763779528,
                    "duration": 0.5555560000000028
                },
                {
                    "name": "C3",
                    "midi": 48,
                    "time": 58.05560199999993,
                    "velocity": 0.4881889763779528,
                    "duration": 0.5555560000000028
                },
                {
                    "name": "F#2",
                    "midi": 42,
                    "time": 58.61115799999993,
                    "velocity": 0.4881889763779528,
                    "duration": 0.11111120000000341
                },
                {
                    "name": "C#3",
                    "midi": 49,
                    "time": 58.61115799999993,
                    "velocity": 0.4881889763779528,
                    "duration": 0.11111120000000341
                },
                {
                    "name": "G#2",
                    "midi": 44,
                    "time": 59.166713999999935,
                    "velocity": 0.4881889763779528,
                    "duration": 0.05439819166666382
                },
                {
                    "name": "D#3",
                    "midi": 51,
                    "time": 59.166713999999935,
                    "velocity": 0.4881889763779528,
                    "duration": 0.05439819166666382
                },
                {
                    "name": "D#1",
                    "midi": 27,
                    "time": 59.44449199999993,
                    "velocity": 0.5905511811023622,
                    "duration": 0.5555560000000028
                },
                {
                    "name": "A#1",
                    "midi": 34,
                    "time": 59.44449199999993,
                    "velocity": 0.5905511811023622,
                    "duration": 0.5555560000000028
                },
                {
                    "name": "F2",
                    "midi": 41,
                    "time": 60.27782599999993,
                    "velocity": 0.4881889763779528,
                    "duration": 0.5555560000000028
                },
                {
                    "name": "C3",
                    "midi": 48,
                    "time": 60.27782599999993,
                    "velocity": 0.4881889763779528,
                    "duration": 0.5555560000000028
                },
                {
                    "name": "F#2",
                    "midi": 42,
                    "time": 60.833381999999936,
                    "velocity": 0.4881889763779528,
                    "duration": 0.11111120000000341
                },
                {
                    "name": "C#3",
                    "midi": 49,
                    "time": 60.833381999999936,
                    "velocity": 0.4881889763779528,
                    "duration": 0.11111120000000341
                },
                {
                    "name": "G#2",
                    "midi": 44,
                    "time": 61.38893799999994,
                    "velocity": 0.4881889763779528,
                    "duration": 0.05439819166666382
                },
                {
                    "name": "D#3",
                    "midi": 51,
                    "time": 61.38893799999994,
                    "velocity": 0.4881889763779528,
                    "duration": 0.05439819166666382
                },
                {
                    "name": "D#1",
                    "midi": 27,
                    "time": 61.66671599999994,
                    "velocity": 0.5905511811023622,
                    "duration": 0.5555560000000028
                },
                {
                    "name": "A#1",
                    "midi": 34,
                    "time": 61.66671599999994,
                    "velocity": 0.5905511811023622,
                    "duration": 0.5555560000000028
                },
                {
                    "name": "F2",
                    "midi": 41,
                    "time": 62.50004999999994,
                    "velocity": 0.4881889763779528,
                    "duration": 0.5555560000000028
                },
                {
                    "name": "C3",
                    "midi": 48,
                    "time": 62.50004999999994,
                    "velocity": 0.4881889763779528,
                    "duration": 0.5555560000000028
                },
                {
                    "name": "F#2",
                    "midi": 42,
                    "time": 63.05560599999994,
                    "velocity": 0.4881889763779528,
                    "duration": 0.11111120000000341
                },
                {
                    "name": "C#3",
                    "midi": 49,
                    "time": 63.05560599999994,
                    "velocity": 0.4881889763779528,
                    "duration": 0.11111120000000341
                },
                {
                    "name": "G#2",
                    "midi": 44,
                    "time": 63.61116199999994,
                    "velocity": 0.4881889763779528,
                    "duration": 0.05439819166666382
                },
                {
                    "name": "D#3",
                    "midi": 51,
                    "time": 63.61116199999994,
                    "velocity": 0.4881889763779528,
                    "duration": 0.05439819166666382
                },
                {
                    "name": "D#1",
                    "midi": 27,
                    "time": 63.88893999999994,
                    "velocity": 0.5905511811023622,
                    "duration": 0.5555560000000028
                },
                {
                    "name": "A#1",
                    "midi": 34,
                    "time": 63.88893999999994,
                    "velocity": 0.5905511811023622,
                    "duration": 0.5555560000000028
                },
                {
                    "name": "F2",
                    "midi": 41,
                    "time": 64.72227399999994,
                    "velocity": 0.4881889763779528,
                    "duration": 0.5555559999999957
                },
                {
                    "name": "C3",
                    "midi": 48,
                    "time": 64.72227399999994,
                    "velocity": 0.4881889763779528,
                    "duration": 0.5555559999999957
                },
                {
                    "name": "F#2",
                    "midi": 42,
                    "time": 65.27782999999994,
                    "velocity": 0.4881889763779528,
                    "duration": 0.1111111999999963
                },
                {
                    "name": "C#3",
                    "midi": 49,
                    "time": 65.27782999999994,
                    "velocity": 0.4881889763779528,
                    "duration": 0.1111111999999963
                },
                {
                    "name": "G#2",
                    "midi": 44,
                    "time": 65.83338599999993,
                    "velocity": 0.4881889763779528,
                    "duration": 0.1111111999999963
                },
                {
                    "name": "D#3",
                    "midi": 51,
                    "time": 65.83338599999993,
                    "velocity": 0.4881889763779528,
                    "duration": 0.1111111999999963
                },
                {
                    "name": "A#2",
                    "midi": 46,
                    "time": 66.38894199999993,
                    "velocity": 0.4881889763779528,
                    "duration": 0.1111111999999963
                },
                {
                    "name": "F3",
                    "midi": 53,
                    "time": 66.38894199999993,
                    "velocity": 0.4881889763779528,
                    "duration": 0.1111111999999963
                },
                {
                    "name": "G#2",
                    "midi": 44,
                    "time": 66.94449799999992,
                    "velocity": 0.4881889763779528,
                    "duration": 0.05439819166666382
                },
                {
                    "name": "D#3",
                    "midi": 51,
                    "time": 66.94449799999992,
                    "velocity": 0.4881889763779528,
                    "duration": 0.05439819166666382
                },
                {
                    "name": "D#1",
                    "midi": 27,
                    "time": 67.22227599999992,
                    "velocity": 0.5905511811023622,
                    "duration": 0.5555559999999957
                },
                {
                    "name": "A#1",
                    "midi": 34,
                    "time": 67.22227599999992,
                    "velocity": 0.5905511811023622,
                    "duration": 0.5555559999999957
                },
                {
                    "name": "D#2",
                    "midi": 39,
                    "time": 67.22227599999992,
                    "velocity": 0.5905511811023622,
                    "duration": 0.5555559999999957
                },
                {
                    "name": "A#2",
                    "midi": 46,
                    "time": 67.22227599999992,
                    "velocity": 0.5905511811023622,
                    "duration": 0.5555559999999957
                },
                {
                    "name": "F2",
                    "midi": 41,
                    "time": 68.05560999999992,
                    "velocity": 0.4881889763779528,
                    "duration": 0.5555559999999957
                },
                {
                    "name": "C3",
                    "midi": 48,
                    "time": 68.05560999999992,
                    "velocity": 0.4881889763779528,
                    "duration": 0.5555559999999957
                },
                {
                    "name": "F#2",
                    "midi": 42,
                    "time": 68.61116599999991,
                    "velocity": 0.4881889763779528,
                    "duration": 0.1111111999999963
                },
                {
                    "name": "C#3",
                    "midi": 49,
                    "time": 68.61116599999991,
                    "velocity": 0.4881889763779528,
                    "duration": 0.1111111999999963
                },
                {
                    "name": "G#2",
                    "midi": 44,
                    "time": 69.16672199999991,
                    "velocity": 0.4881889763779528,
                    "duration": 0.05439819166666382
                },
                {
                    "name": "D#3",
                    "midi": 51,
                    "time": 69.16672199999991,
                    "velocity": 0.4881889763779528,
                    "duration": 0.05439819166666382
                },
                {
                    "name": "D#1",
                    "midi": 27,
                    "time": 69.4444999999999,
                    "velocity": 0.5905511811023622,
                    "duration": 0.5555559999999957
                },
                {
                    "name": "A#1",
                    "midi": 34,
                    "time": 69.4444999999999,
                    "velocity": 0.5905511811023622,
                    "duration": 0.5555559999999957
                },
                {
                    "name": "D#2",
                    "midi": 39,
                    "time": 69.4444999999999,
                    "velocity": 0.5905511811023622,
                    "duration": 0.5555559999999957
                },
                {
                    "name": "A#2",
                    "midi": 46,
                    "time": 69.4444999999999,
                    "velocity": 0.5905511811023622,
                    "duration": 0.5555559999999957
                },
                {
                    "name": "F2",
                    "midi": 41,
                    "time": 70.2778339999999,
                    "velocity": 0.4881889763779528,
                    "duration": 0.5555559999999957
                },
                {
                    "name": "C3",
                    "midi": 48,
                    "time": 70.2778339999999,
                    "velocity": 0.4881889763779528,
                    "duration": 0.5555559999999957
                },
                {
                    "name": "F#2",
                    "midi": 42,
                    "time": 70.8333899999999,
                    "velocity": 0.4881889763779528,
                    "duration": 0.1111111999999963
                },
                {
                    "name": "C#3",
                    "midi": 49,
                    "time": 70.8333899999999,
                    "velocity": 0.4881889763779528,
                    "duration": 0.1111111999999963
                },
                {
                    "name": "G#2",
                    "midi": 44,
                    "time": 71.38894599999989,
                    "velocity": 0.4881889763779528,
                    "duration": 0.05439819166666382
                },
                {
                    "name": "D#3",
                    "midi": 51,
                    "time": 71.38894599999989,
                    "velocity": 0.4881889763779528,
                    "duration": 0.05439819166666382
                },
                {
                    "name": "A#3",
                    "midi": 58,
                    "time": 71.94450199999989,
                    "velocity": 0.4881889763779528,
                    "duration": 0.5555559999999957
                },
                {
                    "name": "D#4",
                    "midi": 63,
                    "time": 71.94450199999989,
                    "velocity": 0.4881889763779528,
                    "duration": 0.5555559999999957
                },
                {
                    "name": "D#1",
                    "midi": 27,
                    "time": 73.88894799999989,
                    "velocity": 0.5905511811023622,
                    "duration": 0.5555559999999957
                },
                {
                    "name": "A#1",
                    "midi": 34,
                    "time": 73.88894799999989,
                    "velocity": 0.5905511811023622,
                    "duration": 0.5555559999999957
                },
                {
                    "name": "F2",
                    "midi": 41,
                    "time": 74.72228199999988,
                    "velocity": 0.4881889763779528,
                    "duration": 0.5555559999999957
                },
                {
                    "name": "C3",
                    "midi": 48,
                    "time": 74.72228199999988,
                    "velocity": 0.4881889763779528,
                    "duration": 0.5555559999999957
                },
                {
                    "name": "F#2",
                    "midi": 42,
                    "time": 75.27783799999987,
                    "velocity": 0.4881889763779528,
                    "duration": 0.1111111999999963
                },
                {
                    "name": "C#3",
                    "midi": 49,
                    "time": 75.27783799999987,
                    "velocity": 0.4881889763779528,
                    "duration": 0.1111111999999963
                },
                {
                    "name": "G#2",
                    "midi": 44,
                    "time": 75.83339399999987,
                    "velocity": 0.4881889763779528,
                    "duration": 0.05439819166666382
                },
                {
                    "name": "D#3",
                    "midi": 51,
                    "time": 75.83339399999987,
                    "velocity": 0.4881889763779528,
                    "duration": 0.05439819166666382
                },
                {
                    "name": "A#3",
                    "midi": 58,
                    "time": 76.38894999999987,
                    "velocity": 0.4881889763779528,
                    "duration": 0.5555559999999957
                },
                {
                    "name": "D#4",
                    "midi": 63,
                    "time": 76.38894999999987,
                    "velocity": 0.4881889763779528,
                    "duration": 0.5555559999999957
                },
                {
                    "name": "D#3",
                    "midi": 51,
                    "time": 80.00006399999987,
                    "velocity": 0.7952755905511811,
                    "duration": 0.04513892500000338
                },
                {
                    "name": "D#2",
                    "midi": 39,
                    "time": 80.04520292499987,
                    "velocity": 0.7952755905511811,
                    "duration": 0.047453741666672045
                },
                {
                    "name": "A#2",
                    "midi": 46,
                    "time": 80.04520292499987,
                    "velocity": 0.7952755905511811,
                    "duration": 0.047453741666672045
                },
                {
                    "name": "D#2",
                    "midi": 39,
                    "time": 80.09265666666654,
                    "velocity": 0.7952755905511811,
                    "duration": 0.04629633333333061
                },
                {
                    "name": "D#1",
                    "midi": 27,
                    "time": 80.13895299999987,
                    "velocity": 0.7952755905511811,
                    "duration": 0.5555559999999957
                },
                {
                    "name": "A#1",
                    "midi": 34,
                    "time": 80.13895299999987,
                    "velocity": 0.7952755905511811,
                    "duration": 0.5555559999999957
                },
                {
                    "name": "D#2",
                    "midi": 39,
                    "time": 80.13895299999987,
                    "velocity": 0.7952755905511811,
                    "duration": 0.5555559999999957
                },
                {
                    "name": "A#2",
                    "midi": 46,
                    "time": 80.13895299999987,
                    "velocity": 0.7952755905511811,
                    "duration": 0.5555559999999957
                },
                {
                    "name": "B3",
                    "midi": 59,
                    "time": 80.69450899999987,
                    "velocity": 0.7952755905511811,
                    "duration": 0.27777799999999786
                },
                {
                    "name": "D4",
                    "midi": 62,
                    "time": 80.69450899999987,
                    "velocity": 0.7952755905511811,
                    "duration": 0.27777799999999786
                },
                {
                    "name": "F4",
                    "midi": 65,
                    "time": 80.69450899999987,
                    "velocity": 0.7952755905511811,
                    "duration": 0.27777799999999786
                },
                {
                    "name": "A#4",
                    "midi": 70,
                    "time": 80.69450899999987,
                    "velocity": 0.7952755905511811,
                    "duration": 0.27777799999999786
                },
                {
                    "name": "F1",
                    "midi": 29,
                    "time": 80.97228699999987,
                    "velocity": 0.7952755905511811,
                    "duration": 0.27777799999999786
                },
                {
                    "name": "C2",
                    "midi": 36,
                    "time": 80.97228699999987,
                    "velocity": 0.7952755905511811,
                    "duration": 0.27777799999999786
                },
                {
                    "name": "F2",
                    "midi": 41,
                    "time": 80.97228699999987,
                    "velocity": 0.7952755905511811,
                    "duration": 0.27777799999999786
                },
                {
                    "name": "B3",
                    "midi": 59,
                    "time": 81.25006499999986,
                    "velocity": 0.7952755905511811,
                    "duration": 0.27777799999999786
                },
                {
                    "name": "D4",
                    "midi": 62,
                    "time": 81.25006499999986,
                    "velocity": 0.7952755905511811,
                    "duration": 0.27777799999999786
                },
                {
                    "name": "F4",
                    "midi": 65,
                    "time": 81.25006499999986,
                    "velocity": 0.7952755905511811,
                    "duration": 0.27777799999999786
                },
                {
                    "name": "A#4",
                    "midi": 70,
                    "time": 81.25006499999986,
                    "velocity": 0.7952755905511811,
                    "duration": 0.27777799999999786
                },
                {
                    "name": "F#1",
                    "midi": 30,
                    "time": 81.52784299999986,
                    "velocity": 0.7952755905511811,
                    "duration": 0.27777799999999786
                },
                {
                    "name": "C#2",
                    "midi": 37,
                    "time": 81.52784299999986,
                    "velocity": 0.7952755905511811,
                    "duration": 0.27777799999999786
                },
                {
                    "name": "F#2",
                    "midi": 42,
                    "time": 81.52784299999986,
                    "velocity": 0.7952755905511811,
                    "duration": 0.27777799999999786
                },
                {
                    "name": "B3",
                    "midi": 59,
                    "time": 81.80562099999986,
                    "velocity": 0.7952755905511811,
                    "duration": 0.27777799999999786
                },
                {
                    "name": "D4",
                    "midi": 62,
                    "time": 81.80562099999986,
                    "velocity": 0.7952755905511811,
                    "duration": 0.27777799999999786
                },
                {
                    "name": "F4",
                    "midi": 65,
                    "time": 81.80562099999986,
                    "velocity": 0.7952755905511811,
                    "duration": 0.27777799999999786
                },
                {
                    "name": "A#4",
                    "midi": 70,
                    "time": 81.80562099999986,
                    "velocity": 0.7952755905511811,
                    "duration": 0.27777799999999786
                },
                {
                    "name": "G#1",
                    "midi": 32,
                    "time": 82.08339899999986,
                    "velocity": 0.7952755905511811,
                    "duration": 0.27777799999999786
                },
                {
                    "name": "D#2",
                    "midi": 39,
                    "time": 82.08339899999986,
                    "velocity": 0.7952755905511811,
                    "duration": 0.27777799999999786
                },
                {
                    "name": "G#2",
                    "midi": 44,
                    "time": 82.08339899999986,
                    "velocity": 0.7952755905511811,
                    "duration": 0.27777799999999786
                },
                {
                    "name": "D#3",
                    "midi": 51,
                    "time": 82.36117699999986,
                    "velocity": 0.7952755905511811,
                    "duration": 0.04513892500000338
                },
                {
                    "name": "D#2",
                    "midi": 39,
                    "time": 82.40631592499986,
                    "velocity": 0.7952755905511811,
                    "duration": 0.047453741666672045
                },
                {
                    "name": "A#2",
                    "midi": 46,
                    "time": 82.40631592499986,
                    "velocity": 0.7952755905511811,
                    "duration": 0.047453741666672045
                },
                {
                    "name": "D#2",
                    "midi": 39,
                    "time": 82.45376966666653,
                    "velocity": 0.7952755905511811,
                    "duration": 0.04629633333333061
                },
                {
                    "name": "D#1",
                    "midi": 27,
                    "time": 82.50006599999986,
                    "velocity": 0.7952755905511811,
                    "duration": 0.5555559999999957
                },
                {
                    "name": "A#1",
                    "midi": 34,
                    "time": 82.50006599999986,
                    "velocity": 0.7952755905511811,
                    "duration": 0.5555559999999957
                },
                {
                    "name": "D#2",
                    "midi": 39,
                    "time": 82.50006599999986,
                    "velocity": 0.7952755905511811,
                    "duration": 0.5555559999999957
                },
                {
                    "name": "B3",
                    "midi": 59,
                    "time": 83.05562199999986,
                    "velocity": 0.7952755905511811,
                    "duration": 0.27777799999999786
                },
                {
                    "name": "D4",
                    "midi": 62,
                    "time": 83.05562199999986,
                    "velocity": 0.7952755905511811,
                    "duration": 0.27777799999999786
                },
                {
                    "name": "F4",
                    "midi": 65,
                    "time": 83.05562199999986,
                    "velocity": 0.7952755905511811,
                    "duration": 0.27777799999999786
                },
                {
                    "name": "A#4",
                    "midi": 70,
                    "time": 83.05562199999986,
                    "velocity": 0.7952755905511811,
                    "duration": 0.27777799999999786
                },
                {
                    "name": "F1",
                    "midi": 29,
                    "time": 83.33339999999986,
                    "velocity": 0.7952755905511811,
                    "duration": 0.27777799999999786
                },
                {
                    "name": "C2",
                    "midi": 36,
                    "time": 83.33339999999986,
                    "velocity": 0.7952755905511811,
                    "duration": 0.27777799999999786
                },
                {
                    "name": "F2",
                    "midi": 41,
                    "time": 83.33339999999986,
                    "velocity": 0.7952755905511811,
                    "duration": 0.27777799999999786
                },
                {
                    "name": "B3",
                    "midi": 59,
                    "time": 83.61117799999985,
                    "velocity": 0.7952755905511811,
                    "duration": 0.27777799999999786
                },
                {
                    "name": "D4",
                    "midi": 62,
                    "time": 83.61117799999985,
                    "velocity": 0.7952755905511811,
                    "duration": 0.27777799999999786
                },
                {
                    "name": "F4",
                    "midi": 65,
                    "time": 83.61117799999985,
                    "velocity": 0.7952755905511811,
                    "duration": 0.27777799999999786
                },
                {
                    "name": "A#4",
                    "midi": 70,
                    "time": 83.61117799999985,
                    "velocity": 0.7952755905511811,
                    "duration": 0.27777799999999786
                },
                {
                    "name": "F#1",
                    "midi": 30,
                    "time": 83.88895599999985,
                    "velocity": 0.7952755905511811,
                    "duration": 0.27777799999999786
                },
                {
                    "name": "C#2",
                    "midi": 37,
                    "time": 83.88895599999985,
                    "velocity": 0.7952755905511811,
                    "duration": 0.27777799999999786
                },
                {
                    "name": "F#2",
                    "midi": 42,
                    "time": 83.88895599999985,
                    "velocity": 0.7952755905511811,
                    "duration": 0.27777799999999786
                },
                {
                    "name": "B3",
                    "midi": 59,
                    "time": 84.16673399999985,
                    "velocity": 0.7952755905511811,
                    "duration": 0.27777799999999786
                },
                {
                    "name": "D4",
                    "midi": 62,
                    "time": 84.16673399999985,
                    "velocity": 0.7952755905511811,
                    "duration": 0.27777799999999786
                },
                {
                    "name": "F4",
                    "midi": 65,
                    "time": 84.16673399999985,
                    "velocity": 0.7952755905511811,
                    "duration": 0.27777799999999786
                },
                {
                    "name": "A#4",
                    "midi": 70,
                    "time": 84.16673399999985,
                    "velocity": 0.7952755905511811,
                    "duration": 0.27777799999999786
                },
                {
                    "name": "G#1",
                    "midi": 32,
                    "time": 84.44451199999985,
                    "velocity": 0.7952755905511811,
                    "duration": 0.27777799999999786
                },
                {
                    "name": "D#2",
                    "midi": 39,
                    "time": 84.44451199999985,
                    "velocity": 0.7952755905511811,
                    "duration": 0.27777799999999786
                },
                {
                    "name": "G#2",
                    "midi": 44,
                    "time": 84.44451199999985,
                    "velocity": 0.7952755905511811,
                    "duration": 0.27777799999999786
                },
                {
                    "name": "D#3",
                    "midi": 51,
                    "time": 84.72228999999984,
                    "velocity": 0.7952755905511811,
                    "duration": 0.04513892500000338
                },
                {
                    "name": "D#2",
                    "midi": 39,
                    "time": 84.76742892499985,
                    "velocity": 0.7952755905511811,
                    "duration": 0.047453741666672045
                },
                {
                    "name": "A#2",
                    "midi": 46,
                    "time": 84.76742892499985,
                    "velocity": 0.7952755905511811,
                    "duration": 0.047453741666672045
                },
                {
                    "name": "D#2",
                    "midi": 39,
                    "time": 84.81488266666652,
                    "velocity": 0.7952755905511811,
                    "duration": 0.04629633333333061
                },
                {
                    "name": "D#1",
                    "midi": 27,
                    "time": 84.86117899999985,
                    "velocity": 0.7952755905511811,
                    "duration": 0.5555559999999957
                },
                {
                    "name": "A#1",
                    "midi": 34,
                    "time": 84.86117899999985,
                    "velocity": 0.7952755905511811,
                    "duration": 0.5555559999999957
                },
                {
                    "name": "D#2",
                    "midi": 39,
                    "time": 84.86117899999985,
                    "velocity": 0.7952755905511811,
                    "duration": 0.5555559999999957
                },
                {
                    "name": "B3",
                    "midi": 59,
                    "time": 85.41673499999985,
                    "velocity": 0.7952755905511811,
                    "duration": 0.27777799999999786
                },
                {
                    "name": "D4",
                    "midi": 62,
                    "time": 85.41673499999985,
                    "velocity": 0.7952755905511811,
                    "duration": 0.27777799999999786
                },
                {
                    "name": "F4",
                    "midi": 65,
                    "time": 85.41673499999985,
                    "velocity": 0.7952755905511811,
                    "duration": 0.27777799999999786
                },
                {
                    "name": "A#4",
                    "midi": 70,
                    "time": 85.41673499999985,
                    "velocity": 0.7952755905511811,
                    "duration": 0.27777799999999786
                },
                {
                    "name": "F1",
                    "midi": 29,
                    "time": 85.69451299999984,
                    "velocity": 0.7952755905511811,
                    "duration": 0.27777799999999786
                },
                {
                    "name": "C2",
                    "midi": 36,
                    "time": 85.69451299999984,
                    "velocity": 0.7952755905511811,
                    "duration": 0.27777799999999786
                },
                {
                    "name": "F2",
                    "midi": 41,
                    "time": 85.69451299999984,
                    "velocity": 0.7952755905511811,
                    "duration": 0.27777799999999786
                },
                {
                    "name": "A3",
                    "midi": 57,
                    "time": 85.97229099999984,
                    "velocity": 0.7952755905511811,
                    "duration": 0.27777799999999786
                },
                {
                    "name": "C4",
                    "midi": 60,
                    "time": 85.97229099999984,
                    "velocity": 0.7952755905511811,
                    "duration": 0.27777799999999786
                },
                {
                    "name": "D#4",
                    "midi": 63,
                    "time": 85.97229099999984,
                    "velocity": 0.7952755905511811,
                    "duration": 0.27777799999999786
                },
                {
                    "name": "G#4",
                    "midi": 68,
                    "time": 85.97229099999984,
                    "velocity": 0.7952755905511811,
                    "duration": 0.27777799999999786
                },
                {
                    "name": "F#1",
                    "midi": 30,
                    "time": 86.25006899999984,
                    "velocity": 0.7952755905511811,
                    "duration": 0.27777799999999786
                },
                {
                    "name": "C#2",
                    "midi": 37,
                    "time": 86.25006899999984,
                    "velocity": 0.7952755905511811,
                    "duration": 0.27777799999999786
                },
                {
                    "name": "F#2",
                    "midi": 42,
                    "time": 86.25006899999984,
                    "velocity": 0.7952755905511811,
                    "duration": 0.27777799999999786
                },
                {
                    "name": "G3",
                    "midi": 55,
                    "time": 86.52784699999984,
                    "velocity": 0.7952755905511811,
                    "duration": 0.27777799999999786
                },
                {
                    "name": "A#3",
                    "midi": 58,
                    "time": 86.52784699999984,
                    "velocity": 0.7952755905511811,
                    "duration": 0.27777799999999786
                },
                {
                    "name": "C#4",
                    "midi": 61,
                    "time": 86.52784699999984,
                    "velocity": 0.7952755905511811,
                    "duration": 0.27777799999999786
                },
                {
                    "name": "F#4",
                    "midi": 66,
                    "time": 86.52784699999984,
                    "velocity": 0.7952755905511811,
                    "duration": 0.27777799999999786
                },
                {
                    "name": "G#1",
                    "midi": 32,
                    "time": 86.80562499999984,
                    "velocity": 0.7952755905511811,
                    "duration": 0.27777799999999786
                },
                {
                    "name": "D#2",
                    "midi": 39,
                    "time": 86.80562499999984,
                    "velocity": 0.7952755905511811,
                    "duration": 0.27777799999999786
                },
                {
                    "name": "G#2",
                    "midi": 44,
                    "time": 86.80562499999984,
                    "velocity": 0.7952755905511811,
                    "duration": 0.27777799999999786
                },
                {
                    "name": "D#1",
                    "midi": 27,
                    "time": 87.08340299999983,
                    "velocity": 0.7952755905511811,
                    "duration": 0.27777799999999786
                },
                {
                    "name": "A#1",
                    "midi": 34,
                    "time": 87.08340299999983,
                    "velocity": 0.7952755905511811,
                    "duration": 0.27777799999999786
                },
                {
                    "name": "D#2",
                    "midi": 39,
                    "time": 87.08340299999983,
                    "velocity": 0.7952755905511811,
                    "duration": 0.27777799999999786
                },
                {
                    "name": "F1",
                    "midi": 29,
                    "time": 87.36118099999983,
                    "velocity": 0.7952755905511811,
                    "duration": 0.27777799999999786
                },
                {
                    "name": "C2",
                    "midi": 36,
                    "time": 87.36118099999983,
                    "velocity": 0.7952755905511811,
                    "duration": 0.27777799999999786
                },
                {
                    "name": "F2",
                    "midi": 41,
                    "time": 87.36118099999983,
                    "velocity": 0.7952755905511811,
                    "duration": 0.27777799999999786
                },
                {
                    "name": "A3",
                    "midi": 57,
                    "time": 87.63895899999983,
                    "velocity": 0.7952755905511811,
                    "duration": 0.27777799999999786
                },
                {
                    "name": "C4",
                    "midi": 60,
                    "time": 87.63895899999983,
                    "velocity": 0.7952755905511811,
                    "duration": 0.27777799999999786
                },
                {
                    "name": "D#4",
                    "midi": 63,
                    "time": 87.63895899999983,
                    "velocity": 0.7952755905511811,
                    "duration": 0.27777799999999786
                },
                {
                    "name": "G#4",
                    "midi": 68,
                    "time": 87.63895899999983,
                    "velocity": 0.7952755905511811,
                    "duration": 0.27777799999999786
                },
                {
                    "name": "F#1",
                    "midi": 30,
                    "time": 87.91673699999983,
                    "velocity": 0.7952755905511811,
                    "duration": 0.27777799999999786
                },
                {
                    "name": "C#2",
                    "midi": 37,
                    "time": 87.91673699999983,
                    "velocity": 0.7952755905511811,
                    "duration": 0.27777799999999786
                },
                {
                    "name": "F#2",
                    "midi": 42,
                    "time": 87.91673699999983,
                    "velocity": 0.7952755905511811,
                    "duration": 0.27777799999999786
                },
                {
                    "name": "G3",
                    "midi": 55,
                    "time": 88.19451499999983,
                    "velocity": 0.7952755905511811,
                    "duration": 0.27777799999999786
                },
                {
                    "name": "A#3",
                    "midi": 58,
                    "time": 88.19451499999983,
                    "velocity": 0.7952755905511811,
                    "duration": 0.27777799999999786
                },
                {
                    "name": "C#4",
                    "midi": 61,
                    "time": 88.19451499999983,
                    "velocity": 0.7952755905511811,
                    "duration": 0.27777799999999786
                },
                {
                    "name": "F#4",
                    "midi": 66,
                    "time": 88.19451499999983,
                    "velocity": 0.7952755905511811,
                    "duration": 0.27777799999999786
                },
                {
                    "name": "G#1",
                    "midi": 32,
                    "time": 88.47229299999982,
                    "velocity": 0.7952755905511811,
                    "duration": 0.27777799999999786
                },
                {
                    "name": "D#2",
                    "midi": 39,
                    "time": 88.47229299999982,
                    "velocity": 0.7952755905511811,
                    "duration": 0.27777799999999786
                },
                {
                    "name": "G#2",
                    "midi": 44,
                    "time": 88.47229299999982,
                    "velocity": 0.7952755905511811,
                    "duration": 0.27777799999999786
                },
                {
                    "name": "F3",
                    "midi": 53,
                    "time": 88.75007099999982,
                    "velocity": 0.7952755905511811,
                    "duration": 0.27777799999999786
                },
                {
                    "name": "G#3",
                    "midi": 56,
                    "time": 88.75007099999982,
                    "velocity": 0.7952755905511811,
                    "duration": 0.27777799999999786
                },
                {
                    "name": "B3",
                    "midi": 59,
                    "time": 88.75007099999982,
                    "velocity": 0.7952755905511811,
                    "duration": 0.27777799999999786
                },
                {
                    "name": "E4",
                    "midi": 64,
                    "time": 88.75007099999982,
                    "velocity": 0.7952755905511811,
                    "duration": 0.27777799999999786
                },
                {
                    "name": "A#1",
                    "midi": 34,
                    "time": 89.02784899999982,
                    "velocity": 0.7952755905511811,
                    "duration": 0.27777799999999786
                },
                {
                    "name": "F2",
                    "midi": 41,
                    "time": 89.02784899999982,
                    "velocity": 0.7952755905511811,
                    "duration": 0.27777799999999786
                },
                {
                    "name": "A#2",
                    "midi": 46,
                    "time": 89.02784899999982,
                    "velocity": 0.7952755905511811,
                    "duration": 0.27777799999999786
                },
                {
                    "name": "G3",
                    "midi": 55,
                    "time": 89.30562699999982,
                    "velocity": 0.7952755905511811,
                    "duration": 0.27777799999999786
                },
                {
                    "name": "A#3",
                    "midi": 58,
                    "time": 89.30562699999982,
                    "velocity": 0.7952755905511811,
                    "duration": 0.27777799999999786
                },
                {
                    "name": "C#4",
                    "midi": 61,
                    "time": 89.30562699999982,
                    "velocity": 0.7952755905511811,
                    "duration": 0.27777799999999786
                },
                {
                    "name": "F#4",
                    "midi": 66,
                    "time": 89.30562699999982,
                    "velocity": 0.7952755905511811,
                    "duration": 0.27777799999999786
                },
                {
                    "name": "F3",
                    "midi": 53,
                    "time": 89.58340499999981,
                    "velocity": 0.7952755905511811,
                    "duration": 0.27777799999999786
                },
                {
                    "name": "G#3",
                    "midi": 56,
                    "time": 89.58340499999981,
                    "velocity": 0.7952755905511811,
                    "duration": 0.27777799999999786
                },
                {
                    "name": "B3",
                    "midi": 59,
                    "time": 89.58340499999981,
                    "velocity": 0.7952755905511811,
                    "duration": 0.27777799999999786
                },
                {
                    "name": "E4",
                    "midi": 64,
                    "time": 89.58340499999981,
                    "velocity": 0.7952755905511811,
                    "duration": 0.27777799999999786
                },
                {
                    "name": "D#3",
                    "midi": 51,
                    "time": 89.86118299999981,
                    "velocity": 0.7952755905511811,
                    "duration": 0.04513892500000338
                },
                {
                    "name": "D#2",
                    "midi": 39,
                    "time": 89.90632192499982,
                    "velocity": 0.7952755905511811,
                    "duration": 0.047453741666672045
                },
                {
                    "name": "A#2",
                    "midi": 46,
                    "time": 89.90632192499982,
                    "velocity": 0.7952755905511811,
                    "duration": 0.047453741666672045
                },
                {
                    "name": "D#2",
                    "midi": 39,
                    "time": 89.95377566666649,
                    "velocity": 0.7952755905511811,
                    "duration": 0.04629633333333061
                },
                {
                    "name": "D#1",
                    "midi": 27,
                    "time": 90.00007199999982,
                    "velocity": 0.7952755905511811,
                    "duration": 0.5555559999999957
                },
                {
                    "name": "A#1",
                    "midi": 34,
                    "time": 90.00007199999982,
                    "velocity": 0.7952755905511811,
                    "duration": 0.5555559999999957
                },
                {
                    "name": "D#2",
                    "midi": 39,
                    "time": 90.00007199999982,
                    "velocity": 0.7952755905511811,
                    "duration": 0.5555559999999957
                },
                {
                    "name": "A#2",
                    "midi": 46,
                    "time": 90.00007199999982,
                    "velocity": 0.7952755905511811,
                    "duration": 0.5555559999999957
                },
                {
                    "name": "G3",
                    "midi": 55,
                    "time": 90.55562799999981,
                    "velocity": 0.7952755905511811,
                    "duration": 0.27777799999999786
                },
                {
                    "name": "A#3",
                    "midi": 58,
                    "time": 90.55562799999981,
                    "velocity": 0.7952755905511811,
                    "duration": 0.27777799999999786
                },
                {
                    "name": "C#4",
                    "midi": 61,
                    "time": 90.55562799999981,
                    "velocity": 0.7952755905511811,
                    "duration": 0.27777799999999786
                },
                {
                    "name": "F#4",
                    "midi": 66,
                    "time": 90.55562799999981,
                    "velocity": 0.7952755905511811,
                    "duration": 0.27777799999999786
                },
                {
                    "name": "F1",
                    "midi": 29,
                    "time": 90.83340599999981,
                    "velocity": 0.7952755905511811,
                    "duration": 0.27777799999999786
                },
                {
                    "name": "C2",
                    "midi": 36,
                    "time": 90.83340599999981,
                    "velocity": 0.7952755905511811,
                    "duration": 0.27777799999999786
                },
                {
                    "name": "F2",
                    "midi": 41,
                    "time": 90.83340599999981,
                    "velocity": 0.7952755905511811,
                    "duration": 0.27777799999999786
                },
                {
                    "name": "G3",
                    "midi": 55,
                    "time": 91.11118399999981,
                    "velocity": 0.7952755905511811,
                    "duration": 0.27777799999999786
                },
                {
                    "name": "A#3",
                    "midi": 58,
                    "time": 91.11118399999981,
                    "velocity": 0.7952755905511811,
                    "duration": 0.27777799999999786
                },
                {
                    "name": "C#4",
                    "midi": 61,
                    "time": 91.11118399999981,
                    "velocity": 0.7952755905511811,
                    "duration": 0.27777799999999786
                },
                {
                    "name": "F#4",
                    "midi": 66,
                    "time": 91.11118399999981,
                    "velocity": 0.7952755905511811,
                    "duration": 0.27777799999999786
                },
                {
                    "name": "F#1",
                    "midi": 30,
                    "time": 91.38896199999981,
                    "velocity": 0.7952755905511811,
                    "duration": 0.27777799999999786
                },
                {
                    "name": "C#2",
                    "midi": 37,
                    "time": 91.38896199999981,
                    "velocity": 0.7952755905511811,
                    "duration": 0.27777799999999786
                },
                {
                    "name": "F#2",
                    "midi": 42,
                    "time": 91.38896199999981,
                    "velocity": 0.7952755905511811,
                    "duration": 0.27777799999999786
                },
                {
                    "name": "G3",
                    "midi": 55,
                    "time": 91.6667399999998,
                    "velocity": 0.7952755905511811,
                    "duration": 0.27777799999999786
                },
                {
                    "name": "A#3",
                    "midi": 58,
                    "time": 91.6667399999998,
                    "velocity": 0.7952755905511811,
                    "duration": 0.27777799999999786
                },
                {
                    "name": "C#4",
                    "midi": 61,
                    "time": 91.6667399999998,
                    "velocity": 0.7952755905511811,
                    "duration": 0.27777799999999786
                },
                {
                    "name": "F#4",
                    "midi": 66,
                    "time": 91.6667399999998,
                    "velocity": 0.7952755905511811,
                    "duration": 0.27777799999999786
                },
                {
                    "name": "G#1",
                    "midi": 32,
                    "time": 91.9445179999998,
                    "velocity": 0.7952755905511811,
                    "duration": 0.27777799999999786
                },
                {
                    "name": "D#2",
                    "midi": 39,
                    "time": 91.9445179999998,
                    "velocity": 0.7952755905511811,
                    "duration": 0.27777799999999786
                },
                {
                    "name": "G#2",
                    "midi": 44,
                    "time": 91.9445179999998,
                    "velocity": 0.7952755905511811,
                    "duration": 0.27777799999999786
                },
                {
                    "name": "G3",
                    "midi": 55,
                    "time": 92.2222959999998,
                    "velocity": 0.7952755905511811,
                    "duration": 0.27777799999999786
                },
                {
                    "name": "A#3",
                    "midi": 58,
                    "time": 92.2222959999998,
                    "velocity": 0.7952755905511811,
                    "duration": 0.27777799999999786
                },
                {
                    "name": "C#4",
                    "midi": 61,
                    "time": 92.2222959999998,
                    "velocity": 0.7952755905511811,
                    "duration": 0.27777799999999786
                },
                {
                    "name": "F#4",
                    "midi": 66,
                    "time": 92.2222959999998,
                    "velocity": 0.7952755905511811,
                    "duration": 0.27777799999999786
                },
                {
                    "name": "F1",
                    "midi": 29,
                    "time": 92.5000739999998,
                    "velocity": 0.7952755905511811,
                    "duration": 0.27777799999999786
                },
                {
                    "name": "C2",
                    "midi": 36,
                    "time": 92.5000739999998,
                    "velocity": 0.7952755905511811,
                    "duration": 0.27777799999999786
                },
                {
                    "name": "F2",
                    "midi": 41,
                    "time": 92.5000739999998,
                    "velocity": 0.7952755905511811,
                    "duration": 0.27777799999999786
                },
                {
                    "name": "G3",
                    "midi": 55,
                    "time": 92.7778519999998,
                    "velocity": 0.7952755905511811,
                    "duration": 0.27777799999999786
                },
                {
                    "name": "A#3",
                    "midi": 58,
                    "time": 92.7778519999998,
                    "velocity": 0.7952755905511811,
                    "duration": 0.27777799999999786
                },
                {
                    "name": "C#4",
                    "midi": 61,
                    "time": 92.7778519999998,
                    "velocity": 0.7952755905511811,
                    "duration": 0.27777799999999786
                },
                {
                    "name": "F#4",
                    "midi": 66,
                    "time": 92.7778519999998,
                    "velocity": 0.7952755905511811,
                    "duration": 0.27777799999999786
                },
                {
                    "name": "F#1",
                    "midi": 30,
                    "time": 93.0556299999998,
                    "velocity": 0.7952755905511811,
                    "duration": 0.27777799999999786
                },
                {
                    "name": "C#2",
                    "midi": 37,
                    "time": 93.0556299999998,
                    "velocity": 0.7952755905511811,
                    "duration": 0.27777799999999786
                },
                {
                    "name": "F#2",
                    "midi": 42,
                    "time": 93.0556299999998,
                    "velocity": 0.7952755905511811,
                    "duration": 0.27777799999999786
                },
                {
                    "name": "G3",
                    "midi": 55,
                    "time": 93.33340799999979,
                    "velocity": 0.7952755905511811,
                    "duration": 0.27777799999999786
                },
                {
                    "name": "A#3",
                    "midi": 58,
                    "time": 93.33340799999979,
                    "velocity": 0.7952755905511811,
                    "duration": 0.27777799999999786
                },
                {
                    "name": "C#4",
                    "midi": 61,
                    "time": 93.33340799999979,
                    "velocity": 0.7952755905511811,
                    "duration": 0.27777799999999786
                },
                {
                    "name": "F#4",
                    "midi": 66,
                    "time": 93.33340799999979,
                    "velocity": 0.7952755905511811,
                    "duration": 0.27777799999999786
                },
                {
                    "name": "G#1",
                    "midi": 32,
                    "time": 93.61118599999979,
                    "velocity": 0.7952755905511811,
                    "duration": 0.27777799999999786
                },
                {
                    "name": "D#2",
                    "midi": 39,
                    "time": 93.61118599999979,
                    "velocity": 0.7952755905511811,
                    "duration": 0.27777799999999786
                },
                {
                    "name": "G#2",
                    "midi": 44,
                    "time": 93.61118599999979,
                    "velocity": 0.7952755905511811,
                    "duration": 0.27777799999999786
                },
                {
                    "name": "D#3",
                    "midi": 51,
                    "time": 93.88896399999979,
                    "velocity": 0.7952755905511811,
                    "duration": 0.04513892500000338
                },
                {
                    "name": "D#2",
                    "midi": 39,
                    "time": 93.93410292499979,
                    "velocity": 0.7952755905511811,
                    "duration": 0.047453741666672045
                },
                {
                    "name": "A#2",
                    "midi": 46,
                    "time": 93.93410292499979,
                    "velocity": 0.7952755905511811,
                    "duration": 0.047453741666672045
                },
                {
                    "name": "D#2",
                    "midi": 39,
                    "time": 93.98155666666646,
                    "velocity": 0.7952755905511811,
                    "duration": 0.04629633333333061
                },
                {
                    "name": "D#1",
                    "midi": 27,
                    "time": 94.0278529999998,
                    "velocity": 0.7952755905511811,
                    "duration": 0.5555559999999957
                },
                {
                    "name": "A#1",
                    "midi": 34,
                    "time": 94.0278529999998,
                    "velocity": 0.7952755905511811,
                    "duration": 0.5555559999999957
                },
                {
                    "name": "D#2",
                    "midi": 39,
                    "time": 94.0278529999998,
                    "velocity": 0.7952755905511811,
                    "duration": 0.5555559999999957
                },
                {
                    "name": "A#2",
                    "midi": 46,
                    "time": 94.0278529999998,
                    "velocity": 0.7952755905511811,
                    "duration": 0.5555559999999957
                },
                {
                    "name": "B3",
                    "midi": 59,
                    "time": 94.58340899999979,
                    "velocity": 0.7952755905511811,
                    "duration": 0.27777799999999786
                },
                {
                    "name": "D4",
                    "midi": 62,
                    "time": 94.58340899999979,
                    "velocity": 0.7952755905511811,
                    "duration": 0.27777799999999786
                },
                {
                    "name": "F4",
                    "midi": 65,
                    "time": 94.58340899999979,
                    "velocity": 0.7952755905511811,
                    "duration": 0.27777799999999786
                },
                {
                    "name": "A#4",
                    "midi": 70,
                    "time": 94.58340899999979,
                    "velocity": 0.7952755905511811,
                    "duration": 0.27777799999999786
                },
                {
                    "name": "F1",
                    "midi": 29,
                    "time": 94.86118699999979,
                    "velocity": 0.7952755905511811,
                    "duration": 0.27777799999999786
                },
                {
                    "name": "C2",
                    "midi": 36,
                    "time": 94.86118699999979,
                    "velocity": 0.7952755905511811,
                    "duration": 0.27777799999999786
                },
                {
                    "name": "F2",
                    "midi": 41,
                    "time": 94.86118699999979,
                    "velocity": 0.7952755905511811,
                    "duration": 0.27777799999999786
                },
                {
                    "name": "B3",
                    "midi": 59,
                    "time": 95.13896499999979,
                    "velocity": 0.7952755905511811,
                    "duration": 0.27777799999999786
                },
                {
                    "name": "D4",
                    "midi": 62,
                    "time": 95.13896499999979,
                    "velocity": 0.7952755905511811,
                    "duration": 0.27777799999999786
                },
                {
                    "name": "F4",
                    "midi": 65,
                    "time": 95.13896499999979,
                    "velocity": 0.7952755905511811,
                    "duration": 0.27777799999999786
                },
                {
                    "name": "A#4",
                    "midi": 70,
                    "time": 95.13896499999979,
                    "velocity": 0.7952755905511811,
                    "duration": 0.27777799999999786
                },
                {
                    "name": "F#1",
                    "midi": 30,
                    "time": 95.41674299999978,
                    "velocity": 0.7952755905511811,
                    "duration": 0.27777799999999786
                },
                {
                    "name": "C#2",
                    "midi": 37,
                    "time": 95.41674299999978,
                    "velocity": 0.7952755905511811,
                    "duration": 0.27777799999999786
                },
                {
                    "name": "F#2",
                    "midi": 42,
                    "time": 95.41674299999978,
                    "velocity": 0.7952755905511811,
                    "duration": 0.27777799999999786
                },
                {
                    "name": "B3",
                    "midi": 59,
                    "time": 95.69452099999978,
                    "velocity": 0.7952755905511811,
                    "duration": 0.27777799999999786
                },
                {
                    "name": "D4",
                    "midi": 62,
                    "time": 95.69452099999978,
                    "velocity": 0.7952755905511811,
                    "duration": 0.27777799999999786
                },
                {
                    "name": "F4",
                    "midi": 65,
                    "time": 95.69452099999978,
                    "velocity": 0.7952755905511811,
                    "duration": 0.27777799999999786
                },
                {
                    "name": "A#4",
                    "midi": 70,
                    "time": 95.69452099999978,
                    "velocity": 0.7952755905511811,
                    "duration": 0.27777799999999786
                },
                {
                    "name": "G#1",
                    "midi": 32,
                    "time": 95.97229899999978,
                    "velocity": 0.7952755905511811,
                    "duration": 0.27777799999999786
                },
                {
                    "name": "D#2",
                    "midi": 39,
                    "time": 95.97229899999978,
                    "velocity": 0.7952755905511811,
                    "duration": 0.27777799999999786
                },
                {
                    "name": "G#2",
                    "midi": 44,
                    "time": 95.97229899999978,
                    "velocity": 0.7952755905511811,
                    "duration": 0.27777799999999786
                },
                {
                    "name": "D#3",
                    "midi": 51,
                    "time": 96.25007699999978,
                    "velocity": 0.7952755905511811,
                    "duration": 0.04513892500000338
                },
                {
                    "name": "D#2",
                    "midi": 39,
                    "time": 96.29521592499978,
                    "velocity": 0.7952755905511811,
                    "duration": 0.047453741666672045
                },
                {
                    "name": "A#2",
                    "midi": 46,
                    "time": 96.29521592499978,
                    "velocity": 0.7952755905511811,
                    "duration": 0.047453741666672045
                },
                {
                    "name": "D#2",
                    "midi": 39,
                    "time": 96.34266966666645,
                    "velocity": 0.7952755905511811,
                    "duration": 0.04629633333333061
                },
                {
                    "name": "D#1",
                    "midi": 27,
                    "time": 96.38896599999978,
                    "velocity": 0.7952755905511811,
                    "duration": 0.5555559999999957
                },
                {
                    "name": "A#1",
                    "midi": 34,
                    "time": 96.38896599999978,
                    "velocity": 0.7952755905511811,
                    "duration": 0.5555559999999957
                },
                {
                    "name": "D#2",
                    "midi": 39,
                    "time": 96.38896599999978,
                    "velocity": 0.7952755905511811,
                    "duration": 0.5555559999999957
                },
                {
                    "name": "A#2",
                    "midi": 46,
                    "time": 96.38896599999978,
                    "velocity": 0.7952755905511811,
                    "duration": 0.5555559999999957
                },
                {
                    "name": "B3",
                    "midi": 59,
                    "time": 96.94452199999978,
                    "velocity": 0.7952755905511811,
                    "duration": 0.27777799999999786
                },
                {
                    "name": "D4",
                    "midi": 62,
                    "time": 96.94452199999978,
                    "velocity": 0.7952755905511811,
                    "duration": 0.27777799999999786
                },
                {
                    "name": "F4",
                    "midi": 65,
                    "time": 96.94452199999978,
                    "velocity": 0.7952755905511811,
                    "duration": 0.27777799999999786
                },
                {
                    "name": "A#4",
                    "midi": 70,
                    "time": 96.94452199999978,
                    "velocity": 0.7952755905511811,
                    "duration": 0.27777799999999786
                },
                {
                    "name": "F1",
                    "midi": 29,
                    "time": 97.22229999999978,
                    "velocity": 0.7952755905511811,
                    "duration": 0.27777799999999786
                },
                {
                    "name": "C2",
                    "midi": 36,
                    "time": 97.22229999999978,
                    "velocity": 0.7952755905511811,
                    "duration": 0.27777799999999786
                },
                {
                    "name": "F2",
                    "midi": 41,
                    "time": 97.22229999999978,
                    "velocity": 0.7952755905511811,
                    "duration": 0.27777799999999786
                },
                {
                    "name": "F#1",
                    "midi": 30,
                    "time": 97.77785599999977,
                    "velocity": 0.7952755905511811,
                    "duration": 0.27777799999999786
                },
                {
                    "name": "C#2",
                    "midi": 37,
                    "time": 97.77785599999977,
                    "velocity": 0.7952755905511811,
                    "duration": 0.27777799999999786
                },
                {
                    "name": "F#2",
                    "midi": 42,
                    "time": 97.77785599999977,
                    "velocity": 0.7952755905511811,
                    "duration": 0.27777799999999786
                },
                {
                    "name": "G#1",
                    "midi": 32,
                    "time": 98.33341199999977,
                    "velocity": 0.7952755905511811,
                    "duration": 0.27777799999999786
                },
                {
                    "name": "D#2",
                    "midi": 39,
                    "time": 98.33341199999977,
                    "velocity": 0.7952755905511811,
                    "duration": 0.27777799999999786
                },
                {
                    "name": "G#2",
                    "midi": 44,
                    "time": 98.33341199999977,
                    "velocity": 0.7952755905511811,
                    "duration": 0.27777799999999786
                },
                {
                    "name": "C4",
                    "midi": 60,
                    "time": 98.61118999999977,
                    "velocity": 0.7952755905511811,
                    "duration": 0.27777799999999786
                },
                {
                    "name": "D#4",
                    "midi": 63,
                    "time": 98.61118999999977,
                    "velocity": 0.7952755905511811,
                    "duration": 0.27777799999999786
                },
                {
                    "name": "F#4",
                    "midi": 66,
                    "time": 98.61118999999977,
                    "velocity": 0.7952755905511811,
                    "duration": 0.27777799999999786
                },
                {
                    "name": "B4",
                    "midi": 71,
                    "time": 98.61118999999977,
                    "velocity": 0.7952755905511811,
                    "duration": 0.27777799999999786
                },
                {
                    "name": "F1",
                    "midi": 29,
                    "time": 98.88896799999976,
                    "velocity": 0.7952755905511811,
                    "duration": 0.27777799999999786
                },
                {
                    "name": "C2",
                    "midi": 36,
                    "time": 98.88896799999976,
                    "velocity": 0.7952755905511811,
                    "duration": 0.27777799999999786
                },
                {
                    "name": "F2",
                    "midi": 41,
                    "time": 98.88896799999976,
                    "velocity": 0.7952755905511811,
                    "duration": 0.27777799999999786
                },
                {
                    "name": "A#3",
                    "midi": 58,
                    "time": 99.16674599999976,
                    "velocity": 0.7952755905511811,
                    "duration": 0.27777799999999786
                },
                {
                    "name": "C#4",
                    "midi": 61,
                    "time": 99.16674599999976,
                    "velocity": 0.7952755905511811,
                    "duration": 0.27777799999999786
                },
                {
                    "name": "E4",
                    "midi": 64,
                    "time": 99.16674599999976,
                    "velocity": 0.7952755905511811,
                    "duration": 0.27777799999999786
                },
                {
                    "name": "A4",
                    "midi": 69,
                    "time": 99.16674599999976,
                    "velocity": 0.7952755905511811,
                    "duration": 0.27777799999999786
                },
                {
                    "name": "F#1",
                    "midi": 30,
                    "time": 99.44452399999976,
                    "velocity": 0.7952755905511811,
                    "duration": 0.27777799999999786
                },
                {
                    "name": "C#2",
                    "midi": 37,
                    "time": 99.44452399999976,
                    "velocity": 0.7952755905511811,
                    "duration": 0.27777799999999786
                },
                {
                    "name": "F#2",
                    "midi": 42,
                    "time": 99.44452399999976,
                    "velocity": 0.7952755905511811,
                    "duration": 0.27777799999999786
                },
                {
                    "name": "A3",
                    "midi": 57,
                    "time": 99.72230199999976,
                    "velocity": 0.7952755905511811,
                    "duration": 0.27777799999999786
                },
                {
                    "name": "C4",
                    "midi": 60,
                    "time": 99.72230199999976,
                    "velocity": 0.7952755905511811,
                    "duration": 0.27777799999999786
                },
                {
                    "name": "D#4",
                    "midi": 63,
                    "time": 99.72230199999976,
                    "velocity": 0.7952755905511811,
                    "duration": 0.27777799999999786
                },
                {
                    "name": "G#4",
                    "midi": 68,
                    "time": 99.72230199999976,
                    "velocity": 0.7952755905511811,
                    "duration": 0.27777799999999786
                },
                {
                    "name": "G#1",
                    "midi": 32,
                    "time": 100.00007999999976,
                    "velocity": 0.7952755905511811,
                    "duration": 0.27777799999999786
                },
                {
                    "name": "D#2",
                    "midi": 39,
                    "time": 100.00007999999976,
                    "velocity": 0.7952755905511811,
                    "duration": 0.27777799999999786
                },
                {
                    "name": "G#2",
                    "midi": 44,
                    "time": 100.00007999999976,
                    "velocity": 0.7952755905511811,
                    "duration": 0.27777799999999786
                },
                {
                    "name": "D#3",
                    "midi": 51,
                    "time": 100.27785799999975,
                    "velocity": 0.7952755905511811,
                    "duration": 0.04513892500000338
                },
                {
                    "name": "D#2",
                    "midi": 39,
                    "time": 100.32299692499976,
                    "velocity": 0.7952755905511811,
                    "duration": 0.047453741666672045
                },
                {
                    "name": "A#2",
                    "midi": 46,
                    "time": 100.32299692499976,
                    "velocity": 0.7952755905511811,
                    "duration": 0.047453741666672045
                },
                {
                    "name": "D#2",
                    "midi": 39,
                    "time": 100.37045066666643,
                    "velocity": 0.7952755905511811,
                    "duration": 0.04629633333333061
                },
                {
                    "name": "D#1",
                    "midi": 27,
                    "time": 100.41674699999976,
                    "velocity": 0.7952755905511811,
                    "duration": 0.5555559999999957
                },
                {
                    "name": "A#1",
                    "midi": 34,
                    "time": 100.41674699999976,
                    "velocity": 0.7952755905511811,
                    "duration": 0.5555559999999957
                },
                {
                    "name": "D#2",
                    "midi": 39,
                    "time": 100.41674699999976,
                    "velocity": 0.7952755905511811,
                    "duration": 0.5555559999999957
                },
                {
                    "name": "A#2",
                    "midi": 46,
                    "time": 100.41674699999976,
                    "velocity": 0.7952755905511811,
                    "duration": 0.5555559999999957
                },
                {
                    "name": "A#3",
                    "midi": 58,
                    "time": 100.97230299999976,
                    "velocity": 0.7952755905511811,
                    "duration": 0.27777799999999786
                },
                {
                    "name": "C#4",
                    "midi": 61,
                    "time": 100.97230299999976,
                    "velocity": 0.7952755905511811,
                    "duration": 0.27777799999999786
                },
                {
                    "name": "E4",
                    "midi": 64,
                    "time": 100.97230299999976,
                    "velocity": 0.7952755905511811,
                    "duration": 0.27777799999999786
                },
                {
                    "name": "A4",
                    "midi": 69,
                    "time": 100.97230299999976,
                    "velocity": 0.7952755905511811,
                    "duration": 0.27777799999999786
                },
                {
                    "name": "F1",
                    "midi": 29,
                    "time": 101.25008099999975,
                    "velocity": 0.7952755905511811,
                    "duration": 0.27777799999999786
                },
                {
                    "name": "C2",
                    "midi": 36,
                    "time": 101.25008099999975,
                    "velocity": 0.7952755905511811,
                    "duration": 0.27777799999999786
                },
                {
                    "name": "F2",
                    "midi": 41,
                    "time": 101.25008099999975,
                    "velocity": 0.7952755905511811,
                    "duration": 0.27777799999999786
                },
                {
                    "name": "A3",
                    "midi": 57,
                    "time": 101.52785899999975,
                    "velocity": 0.7952755905511811,
                    "duration": 0.27777799999999786
                },
                {
                    "name": "C4",
                    "midi": 60,
                    "time": 101.52785899999975,
                    "velocity": 0.7952755905511811,
                    "duration": 0.27777799999999786
                },
                {
                    "name": "D#4",
                    "midi": 63,
                    "time": 101.52785899999975,
                    "velocity": 0.7952755905511811,
                    "duration": 0.27777799999999786
                },
                {
                    "name": "G#4",
                    "midi": 68,
                    "time": 101.52785899999975,
                    "velocity": 0.7952755905511811,
                    "duration": 0.27777799999999786
                },
                {
                    "name": "F#1",
                    "midi": 30,
                    "time": 101.80563699999975,
                    "velocity": 0.7952755905511811,
                    "duration": 0.27777799999999786
                },
                {
                    "name": "C#2",
                    "midi": 37,
                    "time": 101.80563699999975,
                    "velocity": 0.7952755905511811,
                    "duration": 0.27777799999999786
                },
                {
                    "name": "F#2",
                    "midi": 42,
                    "time": 101.80563699999975,
                    "velocity": 0.7952755905511811,
                    "duration": 0.27777799999999786
                },
                {
                    "name": "A#3",
                    "midi": 58,
                    "time": 102.08341499999975,
                    "velocity": 0.7952755905511811,
                    "duration": 0.27777799999999786
                },
                {
                    "name": "C#4",
                    "midi": 61,
                    "time": 102.08341499999975,
                    "velocity": 0.7952755905511811,
                    "duration": 0.27777799999999786
                },
                {
                    "name": "E4",
                    "midi": 64,
                    "time": 102.08341499999975,
                    "velocity": 0.7952755905511811,
                    "duration": 0.27777799999999786
                },
                {
                    "name": "A4",
                    "midi": 69,
                    "time": 102.08341499999975,
                    "velocity": 0.7952755905511811,
                    "duration": 0.27777799999999786
                },
                {
                    "name": "G#1",
                    "midi": 32,
                    "time": 102.36119299999974,
                    "velocity": 0.7952755905511811,
                    "duration": 0.27777799999999786
                },
                {
                    "name": "D#2",
                    "midi": 39,
                    "time": 102.36119299999974,
                    "velocity": 0.7952755905511811,
                    "duration": 0.27777799999999786
                },
                {
                    "name": "G#2",
                    "midi": 44,
                    "time": 102.36119299999974,
                    "velocity": 0.7952755905511811,
                    "duration": 0.27777799999999786
                },
                {
                    "name": "G3",
                    "midi": 55,
                    "time": 102.63897099999974,
                    "velocity": 0.7952755905511811,
                    "duration": 0.5555559999999957
                },
                {
                    "name": "A#3",
                    "midi": 58,
                    "time": 102.63897099999974,
                    "velocity": 0.7952755905511811,
                    "duration": 0.5555559999999957
                },
                {
                    "name": "C#4",
                    "midi": 61,
                    "time": 102.63897099999974,
                    "velocity": 0.7952755905511811,
                    "duration": 0.5555559999999957
                },
                {
                    "name": "F#4",
                    "midi": 66,
                    "time": 102.63897099999974,
                    "velocity": 0.7952755905511811,
                    "duration": 0.5555559999999957
                },
                {
                    "name": "C#2",
                    "midi": 37,
                    "time": 103.19452699999974,
                    "velocity": 0.7952755905511811,
                    "duration": 0.5555559999999957
                },
                {
                    "name": "G#2",
                    "midi": 44,
                    "time": 103.19452699999974,
                    "velocity": 0.7952755905511811,
                    "duration": 0.5555559999999957
                },
                {
                    "name": "C#3",
                    "midi": 49,
                    "time": 103.19452699999974,
                    "velocity": 0.7952755905511811,
                    "duration": 0.5555559999999957
                },
                {
                    "name": "F3",
                    "midi": 53,
                    "time": 103.19452699999974,
                    "velocity": 0.7952755905511811,
                    "duration": 0.5555559999999957
                },
                {
                    "name": "G#3",
                    "midi": 56,
                    "time": 103.19452699999974,
                    "velocity": 0.7952755905511811,
                    "duration": 0.5555559999999957
                },
                {
                    "name": "B3",
                    "midi": 59,
                    "time": 103.19452699999974,
                    "velocity": 0.7952755905511811,
                    "duration": 0.5555559999999957
                },
                {
                    "name": "E4",
                    "midi": 64,
                    "time": 103.19452699999974,
                    "velocity": 0.7952755905511811,
                    "duration": 0.5555559999999957
                },
                {
                    "name": "E2",
                    "midi": 40,
                    "time": 103.75008299999973,
                    "velocity": 0.5905511811023622,
                    "duration": 2.222223999999997
                },
                {
                    "name": "A2",
                    "midi": 45,
                    "time": 103.75008299999973,
                    "velocity": 0.5905511811023622,
                    "duration": 2.222223999999997
                },
                {
                    "name": "C#3",
                    "midi": 49,
                    "time": 103.75008299999973,
                    "velocity": 0.5905511811023622,
                    "duration": 2.222223999999997
                },
                {
                    "name": "E3",
                    "midi": 52,
                    "time": 103.75008299999973,
                    "velocity": 0.5905511811023622,
                    "duration": 2.222223999999997
                },
                {
                    "name": "G3",
                    "midi": 55,
                    "time": 103.75008299999973,
                    "velocity": 0.5905511811023622,
                    "duration": 2.222223999999997
                },
                {
                    "name": "C4",
                    "midi": 60,
                    "time": 103.75008299999973,
                    "velocity": 0.5905511811023622,
                    "duration": 2.222223999999997
                },
                {
                    "name": "E4",
                    "midi": 64,
                    "time": 103.75008299999973,
                    "velocity": 0.5905511811023622,
                    "duration": 2.222223999999997
                },
                {
                    "name": "G4",
                    "midi": 67,
                    "time": 103.75008299999973,
                    "velocity": 0.5905511811023622,
                    "duration": 2.222223999999997
                },
                {
                    "name": "G1",
                    "midi": 31,
                    "time": 107.63897499999973,
                    "velocity": 0.7952755905511811,
                    "duration": 0.5555559999999957
                },
                {
                    "name": "C#2",
                    "midi": 37,
                    "time": 107.63897499999973,
                    "velocity": 0.7952755905511811,
                    "duration": 0.5555559999999957
                },
                {
                    "name": "E2",
                    "midi": 40,
                    "time": 107.63897499999973,
                    "velocity": 0.7952755905511811,
                    "duration": 0.5555559999999957
                },
                {
                    "name": "G2",
                    "midi": 43,
                    "time": 107.63897499999973,
                    "velocity": 0.7952755905511811,
                    "duration": 0.5555559999999957
                },
                {
                    "name": "D#4",
                    "midi": 63,
                    "time": 108.19453099999973,
                    "velocity": 0.5905511811023622,
                    "duration": 0.13888900000000604
                },
                {
                    "name": "E4",
                    "midi": 64,
                    "time": 108.47230899999974,
                    "velocity": 0.5905511811023622,
                    "duration": 0.13888900000000604
                },
                {
                    "name": "G4",
                    "midi": 67,
                    "time": 108.75008699999975,
                    "velocity": 0.5905511811023622,
                    "duration": 0.13888900000000604
                },
                {
                    "name": "G#4",
                    "midi": 68,
                    "time": 109.02786499999976,
                    "velocity": 0.5905511811023622,
                    "duration": 0.13888900000000604
                },
                {
                    "name": "G4",
                    "midi": 67,
                    "time": 109.30564299999978,
                    "velocity": 0.5905511811023622,
                    "duration": 0.13888900000000604
                },
                {
                    "name": "F4",
                    "midi": 65,
                    "time": 109.58342099999979,
                    "velocity": 0.5905511811023622,
                    "duration": 0.13888900000000604
                },
                {
                    "name": "G3",
                    "midi": 55,
                    "time": 109.8611989999998,
                    "velocity": 0.5905511811023622,
                    "duration": 0.05439819166666382
                },
                {
                    "name": "D#4",
                    "midi": 63,
                    "time": 109.8611989999998,
                    "velocity": 0.5905511811023622,
                    "duration": 0.05439819166666382
                },
                {
                    "name": "D#5",
                    "midi": 75,
                    "time": 110.4167549999998,
                    "velocity": 0.5905511811023622,
                    "duration": 0.13888900000000604
                },
                {
                    "name": "E5",
                    "midi": 76,
                    "time": 110.69453299999981,
                    "velocity": 0.5905511811023622,
                    "duration": 0.13888900000000604
                },
                {
                    "name": "G5",
                    "midi": 79,
                    "time": 110.97231099999982,
                    "velocity": 0.5905511811023622,
                    "duration": 0.13888900000000604
                },
                {
                    "name": "G#5",
                    "midi": 80,
                    "time": 111.25008899999983,
                    "velocity": 0.5905511811023622,
                    "duration": 0.13888900000000604
                },
                {
                    "name": "G5",
                    "midi": 79,
                    "time": 111.52786699999984,
                    "velocity": 0.5905511811023622,
                    "duration": 0.13888900000000604
                },
                {
                    "name": "E5",
                    "midi": 76,
                    "time": 111.80564499999986,
                    "velocity": 0.5905511811023622,
                    "duration": 0.13888900000000604
                },
                {
                    "name": "G4",
                    "midi": 67,
                    "time": 112.08342299999987,
                    "velocity": 0.5905511811023622,
                    "duration": 0.05439819166666382
                },
                {
                    "name": "D#5",
                    "midi": 75,
                    "time": 112.08342299999987,
                    "velocity": 0.5905511811023622,
                    "duration": 0.05439819166666382
                },
                {
                    "name": "D#4",
                    "midi": 63,
                    "time": 112.63897899999986,
                    "velocity": 0.5905511811023622,
                    "duration": 0.05439819166666382
                },
                {
                    "name": "E4",
                    "midi": 64,
                    "time": 112.91675699999986,
                    "velocity": 0.5905511811023622,
                    "duration": 0.05439819166666382
                },
                {
                    "name": "G4",
                    "midi": 67,
                    "time": 113.19453499999986,
                    "velocity": 0.5905511811023622,
                    "duration": 0.05439819166666382
                },
                {
                    "name": "G#4",
                    "midi": 68,
                    "time": 113.47231299999986,
                    "velocity": 0.5905511811023622,
                    "duration": 0.05439819166666382
                },
                {
                    "name": "G4",
                    "midi": 67,
                    "time": 113.75009099999986,
                    "velocity": 0.5905511811023622,
                    "duration": 0.05439819166666382
                },
                {
                    "name": "F4",
                    "midi": 65,
                    "time": 114.02786899999985,
                    "velocity": 0.5905511811023622,
                    "duration": 0.05439819166666382
                },
                {
                    "name": "G3",
                    "midi": 55,
                    "time": 114.30564699999985,
                    "velocity": 0.5905511811023622,
                    "duration": 0.05439819166666382
                },
                {
                    "name": "D#4",
                    "midi": 63,
                    "time": 114.30564699999985,
                    "velocity": 0.5905511811023622,
                    "duration": 0.05439819166666382
                },
                {
                    "name": "G1",
                    "midi": 31,
                    "time": 114.86120299999985,
                    "velocity": 0.7952755905511811,
                    "duration": 0.1111111999999963
                },
                {
                    "name": "C#2",
                    "midi": 37,
                    "time": 114.86120299999985,
                    "velocity": 0.7952755905511811,
                    "duration": 0.1111111999999963
                },
                {
                    "name": "E2",
                    "midi": 40,
                    "time": 114.86120299999985,
                    "velocity": 0.7952755905511811,
                    "duration": 0.1111111999999963
                },
                {
                    "name": "G2",
                    "midi": 43,
                    "time": 114.86120299999985,
                    "velocity": 0.7952755905511811,
                    "duration": 0.1111111999999963
                },
                {
                    "name": "G2",
                    "midi": 43,
                    "time": 115.41675899999984,
                    "velocity": 0.7952755905511811,
                    "duration": 0.1111111999999963
                },
                {
                    "name": "C#3",
                    "midi": 49,
                    "time": 115.41675899999984,
                    "velocity": 0.7952755905511811,
                    "duration": 0.1111111999999963
                },
                {
                    "name": "E3",
                    "midi": 52,
                    "time": 115.41675899999984,
                    "velocity": 0.7952755905511811,
                    "duration": 0.1111111999999963
                },
                {
                    "name": "G3",
                    "midi": 55,
                    "time": 115.41675899999984,
                    "velocity": 0.7952755905511811,
                    "duration": 0.1111111999999963
                },
                {
                    "name": "G3",
                    "midi": 55,
                    "time": 115.97231499999984,
                    "velocity": 0.5905511811023622,
                    "duration": 0.05439819166666382
                },
                {
                    "name": "D#4",
                    "midi": 63,
                    "time": 115.97231499999984,
                    "velocity": 0.5905511811023622,
                    "duration": 0.05439819166666382
                },
                {
                    "name": "F4",
                    "midi": 65,
                    "time": 116.25009299999984,
                    "velocity": 0.5905511811023622,
                    "duration": 0.05439819166666382
                },
                {
                    "name": "G4",
                    "midi": 67,
                    "time": 116.52787099999983,
                    "velocity": 0.5905511811023622,
                    "duration": 0.05439819166666382
                },
                {
                    "name": "G#4",
                    "midi": 68,
                    "time": 116.80564899999983,
                    "velocity": 0.5905511811023622,
                    "duration": 0.05439819166666382
                },
                {
                    "name": "G4",
                    "midi": 67,
                    "time": 117.08342699999983,
                    "velocity": 0.5905511811023622,
                    "duration": 0.05439819166666382
                },
                {
                    "name": "E4",
                    "midi": 64,
                    "time": 117.36120499999983,
                    "velocity": 0.5905511811023622,
                    "duration": 0.05439819166666382
                },
                {
                    "name": "G3",
                    "midi": 55,
                    "time": 117.63898299999983,
                    "velocity": 0.5905511811023622,
                    "duration": 0.05439819166666382
                },
                {
                    "name": "D#4",
                    "midi": 63,
                    "time": 117.63898299999983,
                    "velocity": 0.5905511811023622,
                    "duration": 0.05439819166666382
                },
                {
                    "name": "E1",
                    "midi": 28,
                    "time": 118.19453899999982,
                    "velocity": 0.7952755905511811,
                    "duration": 0.5555559999999957
                },
                {
                    "name": "G#1",
                    "midi": 32,
                    "time": 118.19453899999982,
                    "velocity": 0.7952755905511811,
                    "duration": 0.5555559999999957
                },
                {
                    "name": "E2",
                    "midi": 40,
                    "time": 118.19453899999982,
                    "velocity": 0.7952755905511811,
                    "duration": 0.5555559999999957
                },
                {
                    "name": "A#3",
                    "midi": 58,
                    "time": 118.75009499999982,
                    "velocity": 1,
                    "duration": 0.27777799999999786
                },
                {
                    "name": "F4",
                    "midi": 65,
                    "time": 118.75009499999982,
                    "velocity": 1,
                    "duration": 0.27777799999999786
                },
                {
                    "name": "A#4",
                    "midi": 70,
                    "time": 118.75009499999982,
                    "velocity": 1,
                    "duration": 0.27777799999999786
                },
                {
                    "name": "G#3",
                    "midi": 56,
                    "time": 119.02787299999981,
                    "velocity": 0.7952755905511811,
                    "duration": 0.27777799999999786
                },
                {
                    "name": "G#4",
                    "midi": 68,
                    "time": 119.02787299999981,
                    "velocity": 0.7952755905511811,
                    "duration": 0.27777799999999786
                },
                {
                    "name": "F1",
                    "midi": 29,
                    "time": 119.30565099999981,
                    "velocity": 0.7952755905511811,
                    "duration": 0.5555559999999957
                },
                {
                    "name": "G#1",
                    "midi": 32,
                    "time": 119.30565099999981,
                    "velocity": 0.7952755905511811,
                    "duration": 0.5555559999999957
                },
                {
                    "name": "F2",
                    "midi": 41,
                    "time": 119.30565099999981,
                    "velocity": 0.7952755905511811,
                    "duration": 0.5555559999999957
                },
                {
                    "name": "B3",
                    "midi": 59,
                    "time": 119.86120699999981,
                    "velocity": 0.7952755905511811,
                    "duration": 0.5555559999999957
                },
                {
                    "name": "F4",
                    "midi": 65,
                    "time": 119.86120699999981,
                    "velocity": 0.7952755905511811,
                    "duration": 0.5555559999999957
                },
                {
                    "name": "B4",
                    "midi": 71,
                    "time": 119.86120699999981,
                    "velocity": 0.7952755905511811,
                    "duration": 0.5555559999999957
                },
                {
                    "name": "E1",
                    "midi": 28,
                    "time": 120.4167629999998,
                    "velocity": 0.7952755905511811,
                    "duration": 0.5555559999999957
                },
                {
                    "name": "G#1",
                    "midi": 32,
                    "time": 120.4167629999998,
                    "velocity": 0.7952755905511811,
                    "duration": 0.5555559999999957
                },
                {
                    "name": "E2",
                    "midi": 40,
                    "time": 120.4167629999998,
                    "velocity": 0.7952755905511811,
                    "duration": 0.5555559999999957
                },
                {
                    "name": "A#3",
                    "midi": 58,
                    "time": 120.9723189999998,
                    "velocity": 1,
                    "duration": 0.27777799999999786
                },
                {
                    "name": "F4",
                    "midi": 65,
                    "time": 120.9723189999998,
                    "velocity": 1,
                    "duration": 0.27777799999999786
                },
                {
                    "name": "A#4",
                    "midi": 70,
                    "time": 120.9723189999998,
                    "velocity": 1,
                    "duration": 0.27777799999999786
                },
                {
                    "name": "G#3",
                    "midi": 56,
                    "time": 121.2500969999998,
                    "velocity": 0.7952755905511811,
                    "duration": 0.27777799999999786
                },
                {
                    "name": "G#4",
                    "midi": 68,
                    "time": 121.2500969999998,
                    "velocity": 0.7952755905511811,
                    "duration": 0.27777799999999786
                },
                {
                    "name": "F1",
                    "midi": 29,
                    "time": 121.5278749999998,
                    "velocity": 0.7952755905511811,
                    "duration": 0.5555559999999957
                },
                {
                    "name": "G#1",
                    "midi": 32,
                    "time": 121.5278749999998,
                    "velocity": 0.7952755905511811,
                    "duration": 0.5555559999999957
                },
                {
                    "name": "F2",
                    "midi": 41,
                    "time": 121.5278749999998,
                    "velocity": 0.7952755905511811,
                    "duration": 0.5555559999999957
                },
                {
                    "name": "B3",
                    "midi": 59,
                    "time": 122.08343099999979,
                    "velocity": 0.7952755905511811,
                    "duration": 0.5555559999999957
                },
                {
                    "name": "F4",
                    "midi": 65,
                    "time": 122.08343099999979,
                    "velocity": 0.7952755905511811,
                    "duration": 0.5555559999999957
                },
                {
                    "name": "B4",
                    "midi": 71,
                    "time": 122.08343099999979,
                    "velocity": 0.7952755905511811,
                    "duration": 0.5555559999999957
                },
                {
                    "name": "G1",
                    "midi": 31,
                    "time": 122.63898699999979,
                    "velocity": 1,
                    "duration": 0.5555559999999957
                },
                {
                    "name": "C#2",
                    "midi": 37,
                    "time": 122.63898699999979,
                    "velocity": 1,
                    "duration": 0.5555559999999957
                },
                {
                    "name": "E2",
                    "midi": 40,
                    "time": 122.63898699999979,
                    "velocity": 1,
                    "duration": 0.5555559999999957
                },
                {
                    "name": "G2",
                    "midi": 43,
                    "time": 122.63898699999979,
                    "velocity": 1,
                    "duration": 0.5555559999999957
                },
                {
                    "name": "D#4",
                    "midi": 63,
                    "time": 123.19454299999978,
                    "velocity": 0.5905511811023622,
                    "duration": 0.05439819166666382
                },
                {
                    "name": "F4",
                    "midi": 65,
                    "time": 123.47232099999978,
                    "velocity": 0.5905511811023622,
                    "duration": 0.05439819166666382
                },
                {
                    "name": "G4",
                    "midi": 67,
                    "time": 123.75009899999978,
                    "velocity": 0.5905511811023622,
                    "duration": 0.05439819166666382
                },
                {
                    "name": "G#4",
                    "midi": 68,
                    "time": 124.02787699999978,
                    "velocity": 0.5905511811023622,
                    "duration": 0.05439819166666382
                },
                {
                    "name": "G4",
                    "midi": 67,
                    "time": 124.30565499999977,
                    "velocity": 0.5905511811023622,
                    "duration": 0.05439819166666382
                },
                {
                    "name": "E4",
                    "midi": 64,
                    "time": 124.58343299999977,
                    "velocity": 0.5905511811023622,
                    "duration": 0.05439819166666382
                },
                {
                    "name": "G3",
                    "midi": 55,
                    "time": 124.86121099999977,
                    "velocity": 0.5905511811023622,
                    "duration": 0.05439819166666382
                },
                {
                    "name": "D#4",
                    "midi": 63,
                    "time": 124.86121099999977,
                    "velocity": 0.5905511811023622,
                    "duration": 0.05439819166666382
                },
                {
                    "name": "D#5",
                    "midi": 75,
                    "time": 125.41676699999977,
                    "velocity": 0.5905511811023622,
                    "duration": 0.05439819166666382
                },
                {
                    "name": "E5",
                    "midi": 76,
                    "time": 125.69454499999976,
                    "velocity": 0.5905511811023622,
                    "duration": 0.05439819166666382
                },
                {
                    "name": "G5",
                    "midi": 79,
                    "time": 125.97232299999976,
                    "velocity": 0.5905511811023622,
                    "duration": 0.05439819166666382
                },
                {
                    "name": "G#5",
                    "midi": 80,
                    "time": 126.25010099999976,
                    "velocity": 0.5905511811023622,
                    "duration": 0.05439819166666382
                },
                {
                    "name": "G5",
                    "midi": 79,
                    "time": 126.52787899999976,
                    "velocity": 0.5905511811023622,
                    "duration": 0.05439819166666382
                },
                {
                    "name": "F5",
                    "midi": 77,
                    "time": 126.80565699999975,
                    "velocity": 0.5905511811023622,
                    "duration": 0.05439819166666382
                },
                {
                    "name": "G3",
                    "midi": 55,
                    "time": 127.08343499999975,
                    "velocity": 0.5905511811023622,
                    "duration": 0.05439819166666382
                },
                {
                    "name": "D#4",
                    "midi": 63,
                    "time": 127.08343499999975,
                    "velocity": 0.5905511811023622,
                    "duration": 0.05439819166666382
                },
                {
                    "name": "G1",
                    "midi": 31,
                    "time": 127.63899099999975,
                    "velocity": 0.7952755905511811,
                    "duration": 0.1111111999999963
                },
                {
                    "name": "C#2",
                    "midi": 37,
                    "time": 127.63899099999975,
                    "velocity": 0.7952755905511811,
                    "duration": 0.1111111999999963
                },
                {
                    "name": "E2",
                    "midi": 40,
                    "time": 127.63899099999975,
                    "velocity": 0.7952755905511811,
                    "duration": 0.1111111999999963
                },
                {
                    "name": "G2",
                    "midi": 43,
                    "time": 127.63899099999975,
                    "velocity": 0.7952755905511811,
                    "duration": 0.1111111999999963
                },
                {
                    "name": "G2",
                    "midi": 43,
                    "time": 128.19454699999974,
                    "velocity": 0.7952755905511811,
                    "duration": 0.11111120000001051
                },
                {
                    "name": "C#3",
                    "midi": 49,
                    "time": 128.19454699999974,
                    "velocity": 0.7952755905511811,
                    "duration": 0.11111120000001051
                },
                {
                    "name": "E3",
                    "midi": 52,
                    "time": 128.19454699999974,
                    "velocity": 0.7952755905511811,
                    "duration": 0.11111120000001051
                },
                {
                    "name": "G3",
                    "midi": 55,
                    "time": 128.19454699999974,
                    "velocity": 0.7952755905511811,
                    "duration": 0.11111120000001051
                },
                {
                    "name": "G3",
                    "midi": 55,
                    "time": 128.75010299999977,
                    "velocity": 0.5905511811023622,
                    "duration": 0.05439819166667803
                },
                {
                    "name": "D#4",
                    "midi": 63,
                    "time": 128.75010299999977,
                    "velocity": 0.5905511811023622,
                    "duration": 0.05439819166667803
                },
                {
                    "name": "F4",
                    "midi": 65,
                    "time": 129.02788099999978,
                    "velocity": 0.5905511811023622,
                    "duration": 0.05439819166667803
                },
                {
                    "name": "G4",
                    "midi": 67,
                    "time": 129.3056589999998,
                    "velocity": 0.5905511811023622,
                    "duration": 0.05439819166667803
                },
                {
                    "name": "G#4",
                    "midi": 68,
                    "time": 129.5834369999998,
                    "velocity": 0.5905511811023622,
                    "duration": 0.05439819166667803
                },
                {
                    "name": "G4",
                    "midi": 67,
                    "time": 129.86121499999982,
                    "velocity": 0.5905511811023622,
                    "duration": 0.05439819166667803
                },
                {
                    "name": "E4",
                    "midi": 64,
                    "time": 130.13899299999983,
                    "velocity": 0.5905511811023622,
                    "duration": 0.05439819166667803
                },
                {
                    "name": "G3",
                    "midi": 55,
                    "time": 130.41677099999984,
                    "velocity": 0.5905511811023622,
                    "duration": 0.05439819166667803
                },
                {
                    "name": "D#4",
                    "midi": 63,
                    "time": 130.41677099999984,
                    "velocity": 0.5905511811023622,
                    "duration": 0.05439819166667803
                },
                {
                    "name": "G1",
                    "midi": 31,
                    "time": 130.97232699999986,
                    "velocity": 0.7952755905511811,
                    "duration": 0.5555559999999957
                },
                {
                    "name": "C#2",
                    "midi": 37,
                    "time": 130.97232699999986,
                    "velocity": 0.7952755905511811,
                    "duration": 0.5555559999999957
                },
                {
                    "name": "E2",
                    "midi": 40,
                    "time": 130.97232699999986,
                    "velocity": 0.7952755905511811,
                    "duration": 0.5555559999999957
                },
                {
                    "name": "G2",
                    "midi": 43,
                    "time": 130.97232699999986,
                    "velocity": 0.7952755905511811,
                    "duration": 0.5555559999999957
                },
                {
                    "name": "D#4",
                    "midi": 63,
                    "time": 131.52788299999986,
                    "velocity": 0.3858267716535433,
                    "duration": 0.06944450000000302
                },
                {
                    "name": "F4",
                    "midi": 65,
                    "time": 131.59732749999986,
                    "velocity": 0.3858267716535433,
                    "duration": 0.06944450000000302
                },
                {
                    "name": "D#4",
                    "midi": 63,
                    "time": 131.66677199999987,
                    "velocity": 0.3858267716535433,
                    "duration": 0.06944450000000302
                },
                {
                    "name": "F4",
                    "midi": 65,
                    "time": 131.73621649999987,
                    "velocity": 0.3858267716535433,
                    "duration": 0.06944450000000302
                },
                {
                    "name": "D#4",
                    "midi": 63,
                    "time": 131.80566099999987,
                    "velocity": 0.3858267716535433,
                    "duration": 0.06944450000000302
                },
                {
                    "name": "F4",
                    "midi": 65,
                    "time": 131.87510549999988,
                    "velocity": 0.3858267716535433,
                    "duration": 0.06944450000000302
                },
                {
                    "name": "D#4",
                    "midi": 63,
                    "time": 131.94454999999988,
                    "velocity": 0.3858267716535433,
                    "duration": 0.06944450000000302
                },
                {
                    "name": "F4",
                    "midi": 65,
                    "time": 132.01399449999988,
                    "velocity": 0.3858267716535433,
                    "duration": 0.06944450000000302
                },
                {
                    "name": "D#4",
                    "midi": 63,
                    "time": 132.08343899999988,
                    "velocity": 0.3858267716535433,
                    "duration": 0.06944450000000302
                },
                {
                    "name": "F4",
                    "midi": 65,
                    "time": 132.1528834999999,
                    "velocity": 0.3858267716535433,
                    "duration": 0.06944450000000302
                },
                {
                    "name": "D#4",
                    "midi": 63,
                    "time": 132.2223279999999,
                    "velocity": 0.3858267716535433,
                    "duration": 0.06944450000000302
                },
                {
                    "name": "F4",
                    "midi": 65,
                    "time": 132.2917724999999,
                    "velocity": 0.3858267716535433,
                    "duration": 0.06944450000000302
                },
                {
                    "name": "D#4",
                    "midi": 63,
                    "time": 132.3612169999999,
                    "velocity": 0.3858267716535433,
                    "duration": 0.06944450000000302
                },
                {
                    "name": "F4",
                    "midi": 65,
                    "time": 132.4306614999999,
                    "velocity": 0.3858267716535433,
                    "duration": 0.06944450000000302
                },
                {
                    "name": "D#4",
                    "midi": 63,
                    "time": 132.5001059999999,
                    "velocity": 0.3858267716535433,
                    "duration": 0.06944450000000302
                },
                {
                    "name": "F4",
                    "midi": 65,
                    "time": 132.5695504999999,
                    "velocity": 0.3858267716535433,
                    "duration": 0.06944450000000302
                },
                {
                    "name": "D#4",
                    "midi": 63,
                    "time": 132.6389949999999,
                    "velocity": 0.3858267716535433,
                    "duration": 0.06944450000000302
                },
                {
                    "name": "F4",
                    "midi": 65,
                    "time": 132.7084394999999,
                    "velocity": 0.3858267716535433,
                    "duration": 0.06944450000000302
                },
                {
                    "name": "D#4",
                    "midi": 63,
                    "time": 132.77788399999991,
                    "velocity": 0.3858267716535433,
                    "duration": 0.06944450000000302
                },
                {
                    "name": "F4",
                    "midi": 65,
                    "time": 132.84732849999992,
                    "velocity": 0.3858267716535433,
                    "duration": 0.06944450000000302
                },
                {
                    "name": "D#4",
                    "midi": 63,
                    "time": 132.91677299999992,
                    "velocity": 0.3858267716535433,
                    "duration": 0.06944450000000302
                },
                {
                    "name": "F4",
                    "midi": 65,
                    "time": 132.98621749999992,
                    "velocity": 0.3858267716535433,
                    "duration": 0.06944450000000302
                },
                {
                    "name": "D#4",
                    "midi": 63,
                    "time": 133.05566199999993,
                    "velocity": 0.3858267716535433,
                    "duration": 0.06944450000000302
                },
                {
                    "name": "F4",
                    "midi": 65,
                    "time": 133.12510649999993,
                    "velocity": 0.3858267716535433,
                    "duration": 0.06944450000000302
                },
                {
                    "name": "D#4",
                    "midi": 63,
                    "time": 133.19455099999993,
                    "velocity": 0.3858267716535433,
                    "duration": 0.06944450000000302
                },
                {
                    "name": "F4",
                    "midi": 65,
                    "time": 133.26399549999994,
                    "velocity": 0.3858267716535433,
                    "duration": 0.06944450000000302
                },
                {
                    "name": "D#4",
                    "midi": 63,
                    "time": 133.33343999999994,
                    "velocity": 0.3858267716535433,
                    "duration": 0.06944450000000302
                },
                {
                    "name": "F4",
                    "midi": 65,
                    "time": 133.40288449999994,
                    "velocity": 0.3858267716535433,
                    "duration": 0.06944450000000302
                },
                {
                    "name": "D#4",
                    "midi": 63,
                    "time": 133.47232899999995,
                    "velocity": 0.3858267716535433,
                    "duration": 0.06944450000000302
                },
                {
                    "name": "F4",
                    "midi": 65,
                    "time": 133.54177349999995,
                    "velocity": 0.3858267716535433,
                    "duration": 0.06944450000000302
                },
                {
                    "name": "D#4",
                    "midi": 63,
                    "time": 133.61121799999995,
                    "velocity": 0.3858267716535433,
                    "duration": 0.06944450000000302
                },
                {
                    "name": "F4",
                    "midi": 65,
                    "time": 133.68066249999995,
                    "velocity": 0.3858267716535433,
                    "duration": 0.06944450000000302
                },
                {
                    "name": "D#4",
                    "midi": 63,
                    "time": 133.75010699999996,
                    "velocity": 0.3858267716535433,
                    "duration": 0.06944450000000302
                },
                {
                    "name": "F4",
                    "midi": 65,
                    "time": 133.81955149999996,
                    "velocity": 0.3858267716535433,
                    "duration": 0.06944450000000302
                },
                {
                    "name": "D#4",
                    "midi": 63,
                    "time": 133.88899599999996,
                    "velocity": 0.3858267716535433,
                    "duration": 0.06944450000000302
                },
                {
                    "name": "F4",
                    "midi": 65,
                    "time": 133.95844049999997,
                    "velocity": 0.3858267716535433,
                    "duration": 0.06944450000000302
                },
                {
                    "name": "D#4",
                    "midi": 63,
                    "time": 134.02788499999997,
                    "velocity": 0.3858267716535433,
                    "duration": 0.06944450000000302
                },
                {
                    "name": "F4",
                    "midi": 65,
                    "time": 134.09732949999997,
                    "velocity": 0.3858267716535433,
                    "duration": 0.06944450000000302
                },
                {
                    "name": "D#4",
                    "midi": 63,
                    "time": 134.16677399999998,
                    "velocity": 0.3858267716535433,
                    "duration": 0.06944450000000302
                },
                {
                    "name": "F4",
                    "midi": 65,
                    "time": 134.23621849999998,
                    "velocity": 0.3858267716535433,
                    "duration": 0.06944450000000302
                },
                {
                    "name": "D#4",
                    "midi": 63,
                    "time": 134.30566299999998,
                    "velocity": 0.3858267716535433,
                    "duration": 0.06944450000000302
                },
                {
                    "name": "F4",
                    "midi": 65,
                    "time": 134.37510749999998,
                    "velocity": 0.3858267716535433,
                    "duration": 0.06944450000000302
                },
                {
                    "name": "D#4",
                    "midi": 63,
                    "time": 134.444552,
                    "velocity": 0.3858267716535433,
                    "duration": 0.06944450000000302
                },
                {
                    "name": "F4",
                    "midi": 65,
                    "time": 134.5139965,
                    "velocity": 0.3858267716535433,
                    "duration": 0.06944450000000302
                },
                {
                    "name": "D#4",
                    "midi": 63,
                    "time": 134.583441,
                    "velocity": 0.3858267716535433,
                    "duration": 0.06944450000000302
                },
                {
                    "name": "F4",
                    "midi": 65,
                    "time": 134.6528855,
                    "velocity": 0.3858267716535433,
                    "duration": 0.06944450000000302
                },
                {
                    "name": "D#4",
                    "midi": 63,
                    "time": 134.72233,
                    "velocity": 0.3858267716535433,
                    "duration": 0.06944450000000302
                },
                {
                    "name": "F4",
                    "midi": 65,
                    "time": 134.7917745,
                    "velocity": 0.3858267716535433,
                    "duration": 0.06944450000000302
                },
                {
                    "name": "D#4",
                    "midi": 63,
                    "time": 134.861219,
                    "velocity": 0.3858267716535433,
                    "duration": 0.06944450000000302
                },
                {
                    "name": "F4",
                    "midi": 65,
                    "time": 134.9306635,
                    "velocity": 0.3858267716535433,
                    "duration": 0.06944450000000302
                },
                {
                    "name": "D#4",
                    "midi": 63,
                    "time": 135.000108,
                    "velocity": 0.3858267716535433,
                    "duration": 0.06944450000000302
                },
                {
                    "name": "F4",
                    "midi": 65,
                    "time": 135.06955250000001,
                    "velocity": 0.3858267716535433,
                    "duration": 0.06944450000000302
                },
                {
                    "name": "D#4",
                    "midi": 63,
                    "time": 135.13899700000002,
                    "velocity": 0.3858267716535433,
                    "duration": 0.06944450000000302
                },
                {
                    "name": "F4",
                    "midi": 65,
                    "time": 135.20844150000002,
                    "velocity": 0.3858267716535433,
                    "duration": 0.06944450000000302
                },
                {
                    "name": "D#4",
                    "midi": 63,
                    "time": 135.27788600000002,
                    "velocity": 0.3858267716535433,
                    "duration": 0.06944450000000302
                },
                {
                    "name": "F4",
                    "midi": 65,
                    "time": 135.34733050000003,
                    "velocity": 0.3858267716535433,
                    "duration": 0.06944450000000302
                },
                {
                    "name": "D#4",
                    "midi": 63,
                    "time": 135.41677500000003,
                    "velocity": 0.3858267716535433,
                    "duration": 0.06944450000000302
                },
                {
                    "name": "F4",
                    "midi": 65,
                    "time": 135.48621950000003,
                    "velocity": 0.3858267716535433,
                    "duration": 0.06944450000000302
                },
                {
                    "name": "D#4",
                    "midi": 63,
                    "time": 135.55566400000004,
                    "velocity": 0.3858267716535433,
                    "duration": 0.06944450000000302
                },
                {
                    "name": "F4",
                    "midi": 65,
                    "time": 135.62510850000004,
                    "velocity": 0.3858267716535433,
                    "duration": 0.06944450000000302
                },
                {
                    "name": "D#4",
                    "midi": 63,
                    "time": 135.69455300000004,
                    "velocity": 0.3858267716535433,
                    "duration": 0.06944450000000302
                },
                {
                    "name": "F4",
                    "midi": 65,
                    "time": 135.76399750000004,
                    "velocity": 0.3858267716535433,
                    "duration": 0.06944450000000302
                },
                {
                    "name": "D#4",
                    "midi": 63,
                    "time": 135.83344200000005,
                    "velocity": 0.3858267716535433,
                    "duration": 0.06944450000000302
                },
                {
                    "name": "F4",
                    "midi": 65,
                    "time": 135.90288650000005,
                    "velocity": 0.3858267716535433,
                    "duration": 0.06944450000000302
                },
                {
                    "name": "D#4",
                    "midi": 63,
                    "time": 135.97233100000005,
                    "velocity": 0.3858267716535433,
                    "duration": 0.06944450000000302
                },
                {
                    "name": "F4",
                    "midi": 65,
                    "time": 136.04177550000006,
                    "velocity": 0.3858267716535433,
                    "duration": 0.06944450000000302
                },
                {
                    "name": "D#4",
                    "midi": 63,
                    "time": 136.11122000000006,
                    "velocity": 0.3858267716535433,
                    "duration": 0.06944450000000302
                },
                {
                    "name": "F4",
                    "midi": 65,
                    "time": 136.18066450000006,
                    "velocity": 0.3858267716535433,
                    "duration": 0.06944450000000302
                },
                {
                    "name": "D#4",
                    "midi": 63,
                    "time": 136.25010900000007,
                    "velocity": 0.3858267716535433,
                    "duration": 0.06944450000000302
                },
                {
                    "name": "F4",
                    "midi": 65,
                    "time": 136.31955350000007,
                    "velocity": 0.3858267716535433,
                    "duration": 0.06944450000000302
                },
                {
                    "name": "D#4",
                    "midi": 63,
                    "time": 136.38899800000007,
                    "velocity": 0.3858267716535433,
                    "duration": 0.06944450000000302
                },
                {
                    "name": "F4",
                    "midi": 65,
                    "time": 136.45844250000007,
                    "velocity": 0.3858267716535433,
                    "duration": 0.06944450000000302
                },
                {
                    "name": "D#4",
                    "midi": 63,
                    "time": 136.52788700000008,
                    "velocity": 0.3858267716535433,
                    "duration": 0.06944450000000302
                },
                {
                    "name": "F4",
                    "midi": 65,
                    "time": 136.59733150000008,
                    "velocity": 0.3858267716535433,
                    "duration": 0.06944450000000302
                },
                {
                    "name": "D#4",
                    "midi": 63,
                    "time": 136.66677600000008,
                    "velocity": 0.3858267716535433,
                    "duration": 0.06944450000000302
                },
                {
                    "name": "F4",
                    "midi": 65,
                    "time": 136.7362205000001,
                    "velocity": 0.3858267716535433,
                    "duration": 0.06944450000000302
                },
                {
                    "name": "D#4",
                    "midi": 63,
                    "time": 136.8056650000001,
                    "velocity": 0.3858267716535433,
                    "duration": 0.06944450000000302
                },
                {
                    "name": "F4",
                    "midi": 65,
                    "time": 136.8751095000001,
                    "velocity": 0.3858267716535433,
                    "duration": 0.06944450000000302
                },
                {
                    "name": "D#4",
                    "midi": 63,
                    "time": 136.9445540000001,
                    "velocity": 0.3858267716535433,
                    "duration": 0.06944450000000302
                },
                {
                    "name": "F4",
                    "midi": 65,
                    "time": 137.0139985000001,
                    "velocity": 0.3858267716535433,
                    "duration": 0.06944450000000302
                },
                {
                    "name": "D#4",
                    "midi": 63,
                    "time": 137.0834430000001,
                    "velocity": 0.3858267716535433,
                    "duration": 0.06944450000000302
                },
                {
                    "name": "F4",
                    "midi": 65,
                    "time": 137.1528875000001,
                    "velocity": 0.3858267716535433,
                    "duration": 0.06944450000000302
                },
                {
                    "name": "D#4",
                    "midi": 63,
                    "time": 137.2223320000001,
                    "velocity": 0.3858267716535433,
                    "duration": 0.06944450000000302
                },
                {
                    "name": "F4",
                    "midi": 65,
                    "time": 137.2917765000001,
                    "velocity": 0.3858267716535433,
                    "duration": 0.06944450000000302
                },
                {
                    "name": "D#4",
                    "midi": 63,
                    "time": 137.3612210000001,
                    "velocity": 0.3858267716535433,
                    "duration": 0.06944450000000302
                },
                {
                    "name": "F4",
                    "midi": 65,
                    "time": 137.43066550000012,
                    "velocity": 0.3858267716535433,
                    "duration": 0.06944450000000302
                },
                {
                    "name": "D#4",
                    "midi": 63,
                    "time": 137.50011000000012,
                    "velocity": 0.3858267716535433,
                    "duration": 0.06944450000000302
                },
                {
                    "name": "F4",
                    "midi": 65,
                    "time": 137.56955450000012,
                    "velocity": 0.3858267716535433,
                    "duration": 0.06944450000000302
                },
                {
                    "name": "D#4",
                    "midi": 63,
                    "time": 137.63899900000013,
                    "velocity": 0.3858267716535433,
                    "duration": 0.06944450000000302
                },
                {
                    "name": "F4",
                    "midi": 65,
                    "time": 137.70844350000013,
                    "velocity": 0.3858267716535433,
                    "duration": 0.06944450000000302
                },
                {
                    "name": "D#4",
                    "midi": 63,
                    "time": 137.77788800000013,
                    "velocity": 0.3858267716535433,
                    "duration": 0.06944450000000302
                },
                {
                    "name": "F4",
                    "midi": 65,
                    "time": 137.84733250000014,
                    "velocity": 0.3858267716535433,
                    "duration": 0.06944450000000302
                },
                {
                    "name": "D#4",
                    "midi": 63,
                    "time": 137.91677700000014,
                    "velocity": 0.3858267716535433,
                    "duration": 0.06944450000000302
                },
                {
                    "name": "F4",
                    "midi": 65,
                    "time": 137.98622150000014,
                    "velocity": 0.3858267716535433,
                    "duration": 0.06944450000000302
                },
                {
                    "name": "D#4",
                    "midi": 63,
                    "time": 138.05566600000014,
                    "velocity": 0.3858267716535433,
                    "duration": 0.06944450000000302
                },
                {
                    "name": "F4",
                    "midi": 65,
                    "time": 138.12511050000015,
                    "velocity": 0.3858267716535433,
                    "duration": 0.06944450000000302
                },
                {
                    "name": "D#4",
                    "midi": 63,
                    "time": 138.19455500000015,
                    "velocity": 0.3858267716535433,
                    "duration": 0.06944450000000302
                },
                {
                    "name": "F4",
                    "midi": 65,
                    "time": 138.26399950000015,
                    "velocity": 0.3858267716535433,
                    "duration": 0.06944450000000302
                },
                {
                    "name": "D#4",
                    "midi": 63,
                    "time": 138.33344400000016,
                    "velocity": 0.3858267716535433,
                    "duration": 0.06944450000000302
                },
                {
                    "name": "F4",
                    "midi": 65,
                    "time": 138.40288850000016,
                    "velocity": 0.3858267716535433,
                    "duration": 0.06944450000000302
                },
                {
                    "name": "D#4",
                    "midi": 63,
                    "time": 138.47233300000016,
                    "velocity": 0.3858267716535433,
                    "duration": 0.06944450000000302
                },
                {
                    "name": "F4",
                    "midi": 65,
                    "time": 138.54177750000017,
                    "velocity": 0.3858267716535433,
                    "duration": 0.06944450000000302
                },
                {
                    "name": "D#4",
                    "midi": 63,
                    "time": 138.61122200000017,
                    "velocity": 0.3858267716535433,
                    "duration": 0.06944450000000302
                },
                {
                    "name": "F4",
                    "midi": 65,
                    "time": 138.68066650000017,
                    "velocity": 0.3858267716535433,
                    "duration": 0.06944450000000302
                },
                {
                    "name": "D#4",
                    "midi": 63,
                    "time": 138.75011100000017,
                    "velocity": 0.3858267716535433,
                    "duration": 0.06944450000000302
                },
                {
                    "name": "F4",
                    "midi": 65,
                    "time": 138.81955550000018,
                    "velocity": 0.3858267716535433,
                    "duration": 0.06944450000000302
                },
                {
                    "name": "D#4",
                    "midi": 63,
                    "time": 138.88900000000018,
                    "velocity": 0.3858267716535433,
                    "duration": 0.06944450000000302
                },
                {
                    "name": "F4",
                    "midi": 65,
                    "time": 138.95844450000018,
                    "velocity": 0.3858267716535433,
                    "duration": 0.06944450000000302
                },
                {
                    "name": "D#4",
                    "midi": 63,
                    "time": 139.0278890000002,
                    "velocity": 0.3858267716535433,
                    "duration": 0.06944450000000302
                },
                {
                    "name": "F4",
                    "midi": 65,
                    "time": 139.0973335000002,
                    "velocity": 0.3858267716535433,
                    "duration": 0.06944450000000302
                },
                {
                    "name": "D#4",
                    "midi": 63,
                    "time": 139.1667780000002,
                    "velocity": 0.3858267716535433,
                    "duration": 0.06944450000000302
                },
                {
                    "name": "F4",
                    "midi": 65,
                    "time": 139.2362225000002,
                    "velocity": 0.3858267716535433,
                    "duration": 0.06944450000000302
                },
                {
                    "name": "D#4",
                    "midi": 63,
                    "time": 139.3056670000002,
                    "velocity": 0.3858267716535433,
                    "duration": 0.06944450000000302
                },
                {
                    "name": "F4",
                    "midi": 65,
                    "time": 139.3751115000002,
                    "velocity": 0.3858267716535433,
                    "duration": 0.06944450000000302
                },
                {
                    "name": "D#4",
                    "midi": 63,
                    "time": 139.4445560000002,
                    "velocity": 0.3858267716535433,
                    "duration": 0.06944450000000302
                },
                {
                    "name": "F4",
                    "midi": 65,
                    "time": 139.5140005000002,
                    "velocity": 0.3858267716535433,
                    "duration": 0.06944450000000302
                },
                {
                    "name": "D#4",
                    "midi": 63,
                    "time": 139.5834450000002,
                    "velocity": 0.3858267716535433,
                    "duration": 0.06944450000000302
                },
                {
                    "name": "F4",
                    "midi": 65,
                    "time": 139.6528895000002,
                    "velocity": 0.3858267716535433,
                    "duration": 0.06944450000000302
                },
                {
                    "name": "D#4",
                    "midi": 63,
                    "time": 139.72233400000022,
                    "velocity": 0.3858267716535433,
                    "duration": 0.06944450000000302
                },
                {
                    "name": "F4",
                    "midi": 65,
                    "time": 139.79177850000022,
                    "velocity": 0.3858267716535433,
                    "duration": 0.06944450000000302
                },
                {
                    "name": "D#4",
                    "midi": 63,
                    "time": 139.86122300000022,
                    "velocity": 0.3858267716535433,
                    "duration": 0.06944450000000302
                },
                {
                    "name": "F4",
                    "midi": 65,
                    "time": 139.93066750000023,
                    "velocity": 0.3858267716535433,
                    "duration": 0.06944450000000302
                },
                {
                    "name": "D#4",
                    "midi": 63,
                    "time": 140.00011200000023,
                    "velocity": 0.3858267716535433,
                    "duration": 0.06944450000000302
                },
                {
                    "name": "F4",
                    "midi": 65,
                    "time": 140.06955650000023,
                    "velocity": 0.3858267716535433,
                    "duration": 0.06944450000000302
                },
                {
                    "name": "D#4",
                    "midi": 63,
                    "time": 140.13900100000023,
                    "velocity": 0.3858267716535433,
                    "duration": 0.06944450000000302
                },
                {
                    "name": "F4",
                    "midi": 65,
                    "time": 140.20844550000024,
                    "velocity": 0.3858267716535433,
                    "duration": 0.06944450000000302
                },
                {
                    "name": "D#4",
                    "midi": 63,
                    "time": 140.27789000000024,
                    "velocity": 0.3858267716535433,
                    "duration": 0.06944450000000302
                },
                {
                    "name": "F4",
                    "midi": 65,
                    "time": 140.34733450000024,
                    "velocity": 0.3858267716535433,
                    "duration": 0.06944450000000302
                },
                {
                    "name": "D#4",
                    "midi": 63,
                    "time": 140.41677900000025,
                    "velocity": 0.3858267716535433,
                    "duration": 0.06944450000000302
                },
                {
                    "name": "F4",
                    "midi": 65,
                    "time": 140.48622350000025,
                    "velocity": 0.3858267716535433,
                    "duration": 0.06944450000000302
                },
                {
                    "name": "D#4",
                    "midi": 63,
                    "time": 140.55566800000025,
                    "velocity": 0.3858267716535433,
                    "duration": 0.06944450000000302
                },
                {
                    "name": "F4",
                    "midi": 65,
                    "time": 140.62511250000026,
                    "velocity": 0.3858267716535433,
                    "duration": 0.06944450000000302
                },
                {
                    "name": "D#4",
                    "midi": 63,
                    "time": 140.69455700000026,
                    "velocity": 0.3858267716535433,
                    "duration": 0.06944450000000302
                },
                {
                    "name": "F4",
                    "midi": 65,
                    "time": 140.76400150000026,
                    "velocity": 0.3858267716535433,
                    "duration": 0.06944450000000302
                },
                {
                    "name": "D#4",
                    "midi": 63,
                    "time": 140.83344600000027,
                    "velocity": 0.3858267716535433,
                    "duration": 0.06944450000000302
                },
                {
                    "name": "F4",
                    "midi": 65,
                    "time": 140.90289050000027,
                    "velocity": 0.3858267716535433,
                    "duration": 0.06944450000000302
                },
                {
                    "name": "D#4",
                    "midi": 63,
                    "time": 140.97233500000027,
                    "velocity": 0.3858267716535433,
                    "duration": 0.06944450000000302
                },
                {
                    "name": "F4",
                    "midi": 65,
                    "time": 141.04177950000027,
                    "velocity": 0.3858267716535433,
                    "duration": 0.06944450000000302
                },
                {
                    "name": "D#4",
                    "midi": 63,
                    "time": 141.11122400000028,
                    "velocity": 0.3858267716535433,
                    "duration": 0.06944450000000302
                },
                {
                    "name": "F4",
                    "midi": 65,
                    "time": 141.18066850000028,
                    "velocity": 0.3858267716535433,
                    "duration": 0.06944450000000302
                },
                {
                    "name": "D#4",
                    "midi": 63,
                    "time": 141.25011300000028,
                    "velocity": 0.3858267716535433,
                    "duration": 0.06944450000000302
                },
                {
                    "name": "F4",
                    "midi": 65,
                    "time": 141.3195575000003,
                    "velocity": 0.3858267716535433,
                    "duration": 0.06944450000000302
                },
                {
                    "name": "D#4",
                    "midi": 63,
                    "time": 141.3890020000003,
                    "velocity": 0.3858267716535433,
                    "duration": 0.06944450000000302
                },
                {
                    "name": "F4",
                    "midi": 65,
                    "time": 141.4584465000003,
                    "velocity": 0.3858267716535433,
                    "duration": 0.06944450000000302
                },
                {
                    "name": "D#4",
                    "midi": 63,
                    "time": 141.5278910000003,
                    "velocity": 0.3858267716535433,
                    "duration": 0.06944450000000302
                },
                {
                    "name": "F4",
                    "midi": 65,
                    "time": 141.5973355000003,
                    "velocity": 0.3858267716535433,
                    "duration": 0.06944450000000302
                },
                {
                    "name": "D#4",
                    "midi": 63,
                    "time": 141.6667800000003,
                    "velocity": 0.3858267716535433,
                    "duration": 0.06944450000000302
                },
                {
                    "name": "F4",
                    "midi": 65,
                    "time": 141.7362245000003,
                    "velocity": 0.3858267716535433,
                    "duration": 0.06944450000000302
                },
                {
                    "name": "D#4",
                    "midi": 63,
                    "time": 141.8056690000003,
                    "velocity": 0.3858267716535433,
                    "duration": 0.06944450000000302
                },
                {
                    "name": "F4",
                    "midi": 65,
                    "time": 141.8751135000003,
                    "velocity": 0.3858267716535433,
                    "duration": 0.06944450000000302
                },
                {
                    "name": "D#4",
                    "midi": 63,
                    "time": 141.9445580000003,
                    "velocity": 0.3858267716535433,
                    "duration": 0.06944450000000302
                },
                {
                    "name": "F6",
                    "midi": 89,
                    "time": 142.01400250000032,
                    "velocity": 0.3858267716535433,
                    "duration": 0.06944450000000302
                },
                {
                    "name": "D#4",
                    "midi": 63,
                    "time": 142.08344700000032,
                    "velocity": 0.3858267716535433,
                    "duration": 0.06944450000000302
                },
                {
                    "name": "F4",
                    "midi": 65,
                    "time": 142.15289150000032,
                    "velocity": 0.3858267716535433,
                    "duration": 0.06944450000000302
                },
                {
                    "name": "D#4",
                    "midi": 63,
                    "time": 142.22233600000033,
                    "velocity": 0.3858267716535433,
                    "duration": 0.06944450000000302
                },
                {
                    "name": "F4",
                    "midi": 65,
                    "time": 142.29178050000033,
                    "velocity": 0.3858267716535433,
                    "duration": 0.06944450000000302
                },
                {
                    "name": "D#4",
                    "midi": 63,
                    "time": 142.36122500000033,
                    "velocity": 0.3858267716535433,
                    "duration": 0.06944450000000302
                },
                {
                    "name": "F4",
                    "midi": 65,
                    "time": 142.43066950000033,
                    "velocity": 0.3858267716535433,
                    "duration": 0.06944450000000302
                },
                {
                    "name": "D#4",
                    "midi": 63,
                    "time": 142.50011400000034,
                    "velocity": 0.3858267716535433,
                    "duration": 0.06944450000000302
                },
                {
                    "name": "F4",
                    "midi": 65,
                    "time": 142.56955850000034,
                    "velocity": 0.3858267716535433,
                    "duration": 0.06944450000000302
                },
                {
                    "name": "D#4",
                    "midi": 63,
                    "time": 142.63900300000034,
                    "velocity": 0.3858267716535433,
                    "duration": 0.06944450000000302
                },
                {
                    "name": "F4",
                    "midi": 65,
                    "time": 142.70844750000035,
                    "velocity": 0.3858267716535433,
                    "duration": 0.06944450000000302
                },
                {
                    "name": "D#4",
                    "midi": 63,
                    "time": 142.77789200000035,
                    "velocity": 0.3858267716535433,
                    "duration": 0.06944450000000302
                },
                {
                    "name": "F4",
                    "midi": 65,
                    "time": 142.84733650000035,
                    "velocity": 0.3858267716535433,
                    "duration": 0.06944450000000302
                },
                {
                    "name": "D#4",
                    "midi": 63,
                    "time": 142.91678100000036,
                    "velocity": 0.3858267716535433,
                    "duration": 0.06944450000000302
                },
                {
                    "name": "F4",
                    "midi": 65,
                    "time": 142.98622550000036,
                    "velocity": 0.3858267716535433,
                    "duration": 0.06944450000000302
                },
                {
                    "name": "D#4",
                    "midi": 63,
                    "time": 143.05567000000036,
                    "velocity": 0.3858267716535433,
                    "duration": 0.06944450000000302
                },
                {
                    "name": "F4",
                    "midi": 65,
                    "time": 143.12511450000036,
                    "velocity": 0.3858267716535433,
                    "duration": 0.06944450000000302
                },
                {
                    "name": "D#4",
                    "midi": 63,
                    "time": 143.19455900000037,
                    "velocity": 0.3858267716535433,
                    "duration": 0.06944450000000302
                },
                {
                    "name": "F4",
                    "midi": 65,
                    "time": 143.26400350000037,
                    "velocity": 0.3858267716535433,
                    "duration": 0.06944450000000302
                },
                {
                    "name": "D#4",
                    "midi": 63,
                    "time": 143.33344800000037,
                    "velocity": 0.3858267716535433,
                    "duration": 0.06944450000000302
                },
                {
                    "name": "F4",
                    "midi": 65,
                    "time": 143.40289250000038,
                    "velocity": 0.3858267716535433,
                    "duration": 0.06944450000000302
                },
                {
                    "name": "D#4",
                    "midi": 63,
                    "time": 143.47233700000038,
                    "velocity": 0.3858267716535433,
                    "duration": 0.06944450000000302
                },
                {
                    "name": "F4",
                    "midi": 65,
                    "time": 143.54178150000038,
                    "velocity": 0.3858267716535433,
                    "duration": 0.06944450000000302
                },
                {
                    "name": "D#4",
                    "midi": 63,
                    "time": 143.61122600000039,
                    "velocity": 0.3858267716535433,
                    "duration": 0.06944450000000302
                },
                {
                    "name": "F4",
                    "midi": 65,
                    "time": 143.6806705000004,
                    "velocity": 0.3858267716535433,
                    "duration": 0.06944450000000302
                },
                {
                    "name": "D#4",
                    "midi": 63,
                    "time": 143.7501150000004,
                    "velocity": 0.3858267716535433,
                    "duration": 0.06944450000000302
                },
                {
                    "name": "F4",
                    "midi": 65,
                    "time": 143.8195595000004,
                    "velocity": 0.3858267716535433,
                    "duration": 0.06944450000000302
                },
                {
                    "name": "D#4",
                    "midi": 63,
                    "time": 143.8890040000004,
                    "velocity": 0.3858267716535433,
                    "duration": 0.06944450000000302
                },
                {
                    "name": "F4",
                    "midi": 65,
                    "time": 143.9584485000004,
                    "velocity": 0.3858267716535433,
                    "duration": 0.06944450000000302
                },
                {
                    "name": "D#4",
                    "midi": 63,
                    "time": 144.0278930000004,
                    "velocity": 0.3858267716535433,
                    "duration": 0.06944450000000302
                },
                {
                    "name": "F4",
                    "midi": 65,
                    "time": 144.0973375000004,
                    "velocity": 0.3858267716535433,
                    "duration": 0.06944450000000302
                },
                {
                    "name": "D#4",
                    "midi": 63,
                    "time": 144.1667820000004,
                    "velocity": 0.3858267716535433,
                    "duration": 0.06944450000000302
                },
                {
                    "name": "F4",
                    "midi": 65,
                    "time": 144.2362265000004,
                    "velocity": 0.3858267716535433,
                    "duration": 0.06944450000000302
                },
                {
                    "name": "D#4",
                    "midi": 63,
                    "time": 144.30567100000042,
                    "velocity": 0.3858267716535433,
                    "duration": 0.06944450000000302
                },
                {
                    "name": "F4",
                    "midi": 65,
                    "time": 144.37511550000042,
                    "velocity": 0.3858267716535433,
                    "duration": 0.06944450000000302
                },
                {
                    "name": "D#4",
                    "midi": 63,
                    "time": 144.44456000000042,
                    "velocity": 0.3858267716535433,
                    "duration": 0.06944450000000302
                },
                {
                    "name": "F4",
                    "midi": 65,
                    "time": 144.51400450000042,
                    "velocity": 0.3858267716535433,
                    "duration": 0.06944450000000302
                },
                {
                    "name": "D#4",
                    "midi": 63,
                    "time": 144.58344900000043,
                    "velocity": 0.3858267716535433,
                    "duration": 0.06944450000000302
                },
                {
                    "name": "F4",
                    "midi": 65,
                    "time": 144.65289350000043,
                    "velocity": 0.3858267716535433,
                    "duration": 0.06944450000000302
                },
                {
                    "name": "D#4",
                    "midi": 63,
                    "time": 144.72233800000043,
                    "velocity": 0.3858267716535433,
                    "duration": 0.06944450000000302
                },
                {
                    "name": "F4",
                    "midi": 65,
                    "time": 144.79178250000044,
                    "velocity": 0.3858267716535433,
                    "duration": 0.06944450000000302
                },
                {
                    "name": "D#4",
                    "midi": 63,
                    "time": 144.86122700000044,
                    "velocity": 0.3858267716535433,
                    "duration": 0.06944450000000302
                },
                {
                    "name": "F4",
                    "midi": 65,
                    "time": 144.93067150000044,
                    "velocity": 0.3858267716535433,
                    "duration": 0.06944450000000302
                },
                {
                    "name": "D#4",
                    "midi": 63,
                    "time": 145.00011600000045,
                    "velocity": 0.3858267716535433,
                    "duration": 0.06944450000000302
                },
                {
                    "name": "F4",
                    "midi": 65,
                    "time": 145.06956050000045,
                    "velocity": 0.3858267716535433,
                    "duration": 0.06944450000000302
                },
                {
                    "name": "D#4",
                    "midi": 63,
                    "time": 145.13900500000045,
                    "velocity": 0.3858267716535433,
                    "duration": 0.06944450000000302
                },
                {
                    "name": "F4",
                    "midi": 65,
                    "time": 145.20844950000046,
                    "velocity": 0.3858267716535433,
                    "duration": 0.06944450000000302
                },
                {
                    "name": "D#4",
                    "midi": 63,
                    "time": 145.27789400000046,
                    "velocity": 0.3858267716535433,
                    "duration": 0.06944450000000302
                },
                {
                    "name": "F4",
                    "midi": 65,
                    "time": 145.34733850000046,
                    "velocity": 0.3858267716535433,
                    "duration": 0.06944450000000302
                },
                {
                    "name": "D#4",
                    "midi": 63,
                    "time": 145.41678300000046,
                    "velocity": 0.3858267716535433,
                    "duration": 0.06944450000000302
                },
                {
                    "name": "F4",
                    "midi": 65,
                    "time": 145.48622750000047,
                    "velocity": 0.3858267716535433,
                    "duration": 0.06944450000000302
                },
                {
                    "name": "D#4",
                    "midi": 63,
                    "time": 145.55567200000047,
                    "velocity": 0.3858267716535433,
                    "duration": 0.06944450000000302
                },
                {
                    "name": "F4",
                    "midi": 65,
                    "time": 145.62511650000047,
                    "velocity": 0.3858267716535433,
                    "duration": 0.06944450000000302
                },
                {
                    "name": "D#4",
                    "midi": 63,
                    "time": 145.69456100000048,
                    "velocity": 0.3858267716535433,
                    "duration": 0.06944450000000302
                },
                {
                    "name": "F4",
                    "midi": 65,
                    "time": 145.76400550000048,
                    "velocity": 0.3858267716535433,
                    "duration": 0.06944450000000302
                },
                {
                    "name": "D#4",
                    "midi": 63,
                    "time": 145.83345000000048,
                    "velocity": 0.3858267716535433,
                    "duration": 0.06944450000000302
                },
                {
                    "name": "F4",
                    "midi": 65,
                    "time": 145.90289450000049,
                    "velocity": 0.3858267716535433,
                    "duration": 0.06944450000000302
                },
                {
                    "name": "D#4",
                    "midi": 63,
                    "time": 145.9723390000005,
                    "velocity": 0.3858267716535433,
                    "duration": 0.06944450000000302
                },
                {
                    "name": "F4",
                    "midi": 65,
                    "time": 146.0417835000005,
                    "velocity": 0.3858267716535433,
                    "duration": 0.06944450000000302
                },
                {
                    "name": "D#4",
                    "midi": 63,
                    "time": 146.1112280000005,
                    "velocity": 0.3858267716535433,
                    "duration": 0.06944450000000302
                },
                {
                    "name": "F4",
                    "midi": 65,
                    "time": 146.1806725000005,
                    "velocity": 0.3858267716535433,
                    "duration": 0.06944450000000302
                },
                {
                    "name": "D#4",
                    "midi": 63,
                    "time": 146.2501170000005,
                    "velocity": 0.3858267716535433,
                    "duration": 0.06944450000000302
                },
                {
                    "name": "F4",
                    "midi": 65,
                    "time": 146.3195615000005,
                    "velocity": 0.3858267716535433,
                    "duration": 0.06944450000000302
                },
                {
                    "name": "D#4",
                    "midi": 63,
                    "time": 146.3890060000005,
                    "velocity": 0.3858267716535433,
                    "duration": 0.06944450000000302
                },
                {
                    "name": "F4",
                    "midi": 65,
                    "time": 146.4584505000005,
                    "velocity": 0.3858267716535433,
                    "duration": 0.06944450000000302
                },
                {
                    "name": "D#4",
                    "midi": 63,
                    "time": 146.5278950000005,
                    "velocity": 0.3858267716535433,
                    "duration": 0.06944450000000302
                },
                {
                    "name": "F4",
                    "midi": 65,
                    "time": 146.59733950000052,
                    "velocity": 0.3858267716535433,
                    "duration": 0.06944450000000302
                },
                {
                    "name": "D#4",
                    "midi": 63,
                    "time": 146.66678400000052,
                    "velocity": 0.3858267716535433,
                    "duration": 0.06944450000000302
                },
                {
                    "name": "F4",
                    "midi": 65,
                    "time": 146.73622850000052,
                    "velocity": 0.3858267716535433,
                    "duration": 0.06944450000000302
                },
                {
                    "name": "D#4",
                    "midi": 63,
                    "time": 146.80567300000052,
                    "velocity": 0.3858267716535433,
                    "duration": 0.06944450000000302
                },
                {
                    "name": "F4",
                    "midi": 65,
                    "time": 146.87511750000053,
                    "velocity": 0.3858267716535433,
                    "duration": 0.06944450000000302
                },
                {
                    "name": "D#4",
                    "midi": 63,
                    "time": 146.94456200000053,
                    "velocity": 0.3858267716535433,
                    "duration": 0.06944450000000302
                },
                {
                    "name": "F4",
                    "midi": 65,
                    "time": 147.01400650000053,
                    "velocity": 0.3858267716535433,
                    "duration": 0.06944450000000302
                },
                {
                    "name": "D#4",
                    "midi": 63,
                    "time": 147.08345100000054,
                    "velocity": 0.3858267716535433,
                    "duration": 0.06944450000000302
                },
                {
                    "name": "F4",
                    "midi": 65,
                    "time": 147.15289550000054,
                    "velocity": 0.3858267716535433,
                    "duration": 0.06944450000000302
                },
                {
                    "name": "D#4",
                    "midi": 63,
                    "time": 147.22234000000054,
                    "velocity": 0.3858267716535433,
                    "duration": 0.06944450000000302
                },
                {
                    "name": "F4",
                    "midi": 65,
                    "time": 147.29178450000055,
                    "velocity": 0.3858267716535433,
                    "duration": 0.06944450000000302
                },
                {
                    "name": "D#4",
                    "midi": 63,
                    "time": 147.36122900000055,
                    "velocity": 0.3858267716535433,
                    "duration": 0.06944450000000302
                },
                {
                    "name": "F4",
                    "midi": 65,
                    "time": 147.43067350000055,
                    "velocity": 0.3858267716535433,
                    "duration": 0.06944450000000302
                },
                {
                    "name": "D#4",
                    "midi": 63,
                    "time": 147.50011800000055,
                    "velocity": 0.3858267716535433,
                    "duration": 0.06944450000000302
                },
                {
                    "name": "F4",
                    "midi": 65,
                    "time": 147.56956250000056,
                    "velocity": 0.3858267716535433,
                    "duration": 0.06944450000000302
                },
                {
                    "name": "D#4",
                    "midi": 63,
                    "time": 147.63900700000056,
                    "velocity": 0.3858267716535433,
                    "duration": 0.06944450000000302
                },
                {
                    "name": "F4",
                    "midi": 65,
                    "time": 147.70845150000056,
                    "velocity": 0.3858267716535433,
                    "duration": 0.06944450000000302
                },
                {
                    "name": "D#4",
                    "midi": 63,
                    "time": 147.77789600000057,
                    "velocity": 0.3858267716535433,
                    "duration": 0.06944450000000302
                },
                {
                    "name": "F4",
                    "midi": 65,
                    "time": 147.84734050000057,
                    "velocity": 0.3858267716535433,
                    "duration": 0.06944450000000302
                },
                {
                    "name": "D#4",
                    "midi": 63,
                    "time": 147.91678500000057,
                    "velocity": 0.3858267716535433,
                    "duration": 0.06944450000000302
                },
                {
                    "name": "F4",
                    "midi": 65,
                    "time": 147.98622950000058,
                    "velocity": 0.3858267716535433,
                    "duration": 0.06944450000000302
                },
                {
                    "name": "D#4",
                    "midi": 63,
                    "time": 148.05567400000058,
                    "velocity": 0.3858267716535433,
                    "duration": 0.06944450000000302
                },
                {
                    "name": "F4",
                    "midi": 65,
                    "time": 148.12511850000058,
                    "velocity": 0.3858267716535433,
                    "duration": 0.06944450000000302
                },
                {
                    "name": "D#4",
                    "midi": 63,
                    "time": 148.19456300000058,
                    "velocity": 0.3858267716535433,
                    "duration": 0.06944450000000302
                },
                {
                    "name": "F4",
                    "midi": 65,
                    "time": 148.2640075000006,
                    "velocity": 0.3858267716535433,
                    "duration": 0.06944450000000302
                },
                {
                    "name": "D#4",
                    "midi": 63,
                    "time": 148.3334520000006,
                    "velocity": 0.3858267716535433,
                    "duration": 0.06944450000000302
                },
                {
                    "name": "F4",
                    "midi": 65,
                    "time": 148.4028965000006,
                    "velocity": 0.3858267716535433,
                    "duration": 0.06944450000000302
                },
                {
                    "name": "D#4",
                    "midi": 63,
                    "time": 148.4723410000006,
                    "velocity": 0.3858267716535433,
                    "duration": 0.06944450000000302
                },
                {
                    "name": "F4",
                    "midi": 65,
                    "time": 148.5417855000006,
                    "velocity": 0.3858267716535433,
                    "duration": 0.06944450000000302
                },
                {
                    "name": "D#4",
                    "midi": 63,
                    "time": 148.6112300000006,
                    "velocity": 0.3858267716535433,
                    "duration": 0.06944450000000302
                },
                {
                    "name": "F4",
                    "midi": 65,
                    "time": 148.6806745000006,
                    "velocity": 0.3858267716535433,
                    "duration": 0.06944450000000302
                },
                {
                    "name": "D#4",
                    "midi": 63,
                    "time": 148.7501190000006,
                    "velocity": 0.3858267716535433,
                    "duration": 0.06944450000000302
                },
                {
                    "name": "F4",
                    "midi": 65,
                    "time": 148.8195635000006,
                    "velocity": 0.3858267716535433,
                    "duration": 0.06944450000000302
                },
                {
                    "name": "D#4",
                    "midi": 63,
                    "time": 148.88900800000062,
                    "velocity": 0.3858267716535433,
                    "duration": 0.06944450000000302
                },
                {
                    "name": "F4",
                    "midi": 65,
                    "time": 148.95845250000062,
                    "velocity": 0.3858267716535433,
                    "duration": 0.06944450000000302
                },
                {
                    "name": "D#4",
                    "midi": 63,
                    "time": 149.02789700000062,
                    "velocity": 0.3858267716535433,
                    "duration": 0.06944450000000302
                },
                {
                    "name": "F4",
                    "midi": 65,
                    "time": 149.09734150000062,
                    "velocity": 0.3858267716535433,
                    "duration": 0.06944450000000302
                },
                {
                    "name": "D#4",
                    "midi": 63,
                    "time": 149.16678600000063,
                    "velocity": 0.3858267716535433,
                    "duration": 0.06944450000000302
                },
                {
                    "name": "F4",
                    "midi": 65,
                    "time": 149.23623050000063,
                    "velocity": 0.3858267716535433,
                    "duration": 0.06944450000000302
                },
                {
                    "name": "D#4",
                    "midi": 63,
                    "time": 149.30567500000063,
                    "velocity": 0.3858267716535433,
                    "duration": 0.06944450000000302
                },
                {
                    "name": "F4",
                    "midi": 65,
                    "time": 149.37511950000064,
                    "velocity": 0.3858267716535433,
                    "duration": 0.06944450000000302
                },
                {
                    "name": "D#4",
                    "midi": 63,
                    "time": 149.44456400000064,
                    "velocity": 0.3858267716535433,
                    "duration": 0.06944450000000302
                },
                {
                    "name": "F4",
                    "midi": 65,
                    "time": 149.51400850000064,
                    "velocity": 0.3858267716535433,
                    "duration": 0.06944450000000302
                },
                {
                    "name": "D#4",
                    "midi": 63,
                    "time": 149.58345300000065,
                    "velocity": 0.3858267716535433,
                    "duration": 0.06944450000000302
                },
                {
                    "name": "F4",
                    "midi": 65,
                    "time": 149.65289750000065,
                    "velocity": 0.3858267716535433,
                    "duration": 0.06944450000000302
                },
                {
                    "name": "D#4",
                    "midi": 63,
                    "time": 149.72234200000065,
                    "velocity": 0.3858267716535433,
                    "duration": 0.06944450000000302
                },
                {
                    "name": "F4",
                    "midi": 65,
                    "time": 149.79178650000065,
                    "velocity": 0.3858267716535433,
                    "duration": 0.06944450000000302
                },
                {
                    "name": "D#4",
                    "midi": 63,
                    "time": 149.86123100000066,
                    "velocity": 0.3858267716535433,
                    "duration": 0.06944450000000302
                },
                {
                    "name": "F4",
                    "midi": 65,
                    "time": 149.93067550000066,
                    "velocity": 0.3858267716535433,
                    "duration": 0.06944450000000302
                },
                {
                    "name": "D#4",
                    "midi": 63,
                    "time": 150.00012000000066,
                    "velocity": 0.3858267716535433,
                    "duration": 0.06944450000000302
                },
                {
                    "name": "F4",
                    "midi": 65,
                    "time": 150.06956450000067,
                    "velocity": 0.3858267716535433,
                    "duration": 0.06944450000000302
                },
                {
                    "name": "D#4",
                    "midi": 63,
                    "time": 150.13900900000067,
                    "velocity": 0.3858267716535433,
                    "duration": 0.06944450000000302
                },
                {
                    "name": "F4",
                    "midi": 65,
                    "time": 150.20845350000067,
                    "velocity": 0.3858267716535433,
                    "duration": 0.06944450000000302
                },
                {
                    "name": "D#4",
                    "midi": 63,
                    "time": 150.27789800000068,
                    "velocity": 0.3858267716535433,
                    "duration": 0.06944450000000302
                },
                {
                    "name": "F4",
                    "midi": 65,
                    "time": 150.34734250000068,
                    "velocity": 0.3858267716535433,
                    "duration": 0.06944450000000302
                },
                {
                    "name": "D#4",
                    "midi": 63,
                    "time": 150.41678700000068,
                    "velocity": 0.3858267716535433,
                    "duration": 0.06944450000000302
                },
                {
                    "name": "F4",
                    "midi": 65,
                    "time": 150.48623150000068,
                    "velocity": 0.3858267716535433,
                    "duration": 0.06944450000000302
                },
                {
                    "name": "D#4",
                    "midi": 63,
                    "time": 150.5556760000007,
                    "velocity": 0.3858267716535433,
                    "duration": 0.06944450000000302
                },
                {
                    "name": "F4",
                    "midi": 65,
                    "time": 150.6251205000007,
                    "velocity": 0.3858267716535433,
                    "duration": 0.06944450000000302
                },
                {
                    "name": "D#4",
                    "midi": 63,
                    "time": 150.6945650000007,
                    "velocity": 0.3858267716535433,
                    "duration": 0.06944450000000302
                },
                {
                    "name": "F4",
                    "midi": 65,
                    "time": 150.7640095000007,
                    "velocity": 0.3858267716535433,
                    "duration": 0.06944450000000302
                },
                {
                    "name": "D#4",
                    "midi": 63,
                    "time": 150.8334540000007,
                    "velocity": 0.3858267716535433,
                    "duration": 0.06944450000000302
                },
                {
                    "name": "F4",
                    "midi": 65,
                    "time": 150.9028985000007,
                    "velocity": 0.3858267716535433,
                    "duration": 0.06944450000000302
                },
                {
                    "name": "D#4",
                    "midi": 63,
                    "time": 150.9723430000007,
                    "velocity": 0.3858267716535433,
                    "duration": 0.06944450000000302
                },
                {
                    "name": "F4",
                    "midi": 65,
                    "time": 151.0417875000007,
                    "velocity": 0.3858267716535433,
                    "duration": 0.06944450000000302
                },
                {
                    "name": "D#4",
                    "midi": 63,
                    "time": 151.1112320000007,
                    "velocity": 0.3858267716535433,
                    "duration": 0.06944450000000302
                },
                {
                    "name": "F4",
                    "midi": 65,
                    "time": 151.18067650000071,
                    "velocity": 0.3858267716535433,
                    "duration": 0.06944450000000302
                },
                {
                    "name": "D#4",
                    "midi": 63,
                    "time": 151.25012100000072,
                    "velocity": 0.3858267716535433,
                    "duration": 0.06944450000000302
                },
                {
                    "name": "F4",
                    "midi": 65,
                    "time": 151.31956550000072,
                    "velocity": 0.3858267716535433,
                    "duration": 0.06944450000000302
                },
                {
                    "name": "D#4",
                    "midi": 63,
                    "time": 151.38901000000072,
                    "velocity": 0.3858267716535433,
                    "duration": 0.06944450000000302
                },
                {
                    "name": "F4",
                    "midi": 65,
                    "time": 151.45845450000073,
                    "velocity": 0.3858267716535433,
                    "duration": 0.06944450000000302
                },
                {
                    "name": "D#4",
                    "midi": 63,
                    "time": 151.52789900000073,
                    "velocity": 0.3858267716535433,
                    "duration": 0.06944450000000302
                },
                {
                    "name": "F4",
                    "midi": 65,
                    "time": 151.59734350000073,
                    "velocity": 0.3858267716535433,
                    "duration": 0.06944450000000302
                },
                {
                    "name": "D#4",
                    "midi": 63,
                    "time": 151.66678800000074,
                    "velocity": 0.3858267716535433,
                    "duration": 0.06944450000000302
                },
                {
                    "name": "F4",
                    "midi": 65,
                    "time": 151.73623250000074,
                    "velocity": 0.3858267716535433,
                    "duration": 0.06944450000000302
                },
                {
                    "name": "D#4",
                    "midi": 63,
                    "time": 151.80567700000074,
                    "velocity": 0.3858267716535433,
                    "duration": 0.06944450000000302
                },
                {
                    "name": "F4",
                    "midi": 65,
                    "time": 151.87512150000074,
                    "velocity": 0.3858267716535433,
                    "duration": 0.06944450000000302
                },
                {
                    "name": "D#4",
                    "midi": 63,
                    "time": 151.94456600000075,
                    "velocity": 0.3858267716535433,
                    "duration": 0.06944450000000302
                },
                {
                    "name": "F4",
                    "midi": 65,
                    "time": 152.01401050000075,
                    "velocity": 0.3858267716535433,
                    "duration": 0.06944450000000302
                },
                {
                    "name": "D#4",
                    "midi": 63,
                    "time": 152.08345500000075,
                    "velocity": 0.3858267716535433,
                    "duration": 0.06944450000000302
                },
                {
                    "name": "F4",
                    "midi": 65,
                    "time": 152.15289950000076,
                    "velocity": 0.3858267716535433,
                    "duration": 0.06944450000000302
                },
                {
                    "name": "D#4",
                    "midi": 63,
                    "time": 152.22234400000076,
                    "velocity": 0.3858267716535433,
                    "duration": 0.06944450000000302
                },
                {
                    "name": "F4",
                    "midi": 65,
                    "time": 152.29178850000076,
                    "velocity": 0.3858267716535433,
                    "duration": 0.06944450000000302
                },
                {
                    "name": "D#4",
                    "midi": 63,
                    "time": 152.36123300000077,
                    "velocity": 0.3858267716535433,
                    "duration": 0.06944450000000302
                },
                {
                    "name": "F4",
                    "midi": 65,
                    "time": 152.43067750000077,
                    "velocity": 0.3858267716535433,
                    "duration": 0.06944450000000302
                },
                {
                    "name": "D#4",
                    "midi": 63,
                    "time": 152.50012200000077,
                    "velocity": 0.3858267716535433,
                    "duration": 0.06944450000000302
                },
                {
                    "name": "F4",
                    "midi": 65,
                    "time": 152.56956650000078,
                    "velocity": 0.3858267716535433,
                    "duration": 0.06944450000000302
                },
                {
                    "name": "D#4",
                    "midi": 63,
                    "time": 152.63901100000078,
                    "velocity": 0.3858267716535433,
                    "duration": 0.06944450000000302
                },
                {
                    "name": "F4",
                    "midi": 65,
                    "time": 152.70845550000078,
                    "velocity": 0.3858267716535433,
                    "duration": 0.06944450000000302
                },
                {
                    "name": "D#4",
                    "midi": 63,
                    "time": 152.77790000000078,
                    "velocity": 0.3858267716535433,
                    "duration": 0.06944450000000302
                },
                {
                    "name": "F4",
                    "midi": 65,
                    "time": 152.8473445000008,
                    "velocity": 0.3858267716535433,
                    "duration": 0.06944450000000302
                },
                {
                    "name": "D#4",
                    "midi": 63,
                    "time": 152.9167890000008,
                    "velocity": 0.3858267716535433,
                    "duration": 0.06944450000000302
                },
                {
                    "name": "F4",
                    "midi": 65,
                    "time": 152.9862335000008,
                    "velocity": 0.3858267716535433,
                    "duration": 0.06944450000000302
                },
                {
                    "name": "D#4",
                    "midi": 63,
                    "time": 153.0556780000008,
                    "velocity": 0.3858267716535433,
                    "duration": 0.06944450000000302
                },
                {
                    "name": "F4",
                    "midi": 65,
                    "time": 153.1251225000008,
                    "velocity": 0.3858267716535433,
                    "duration": 0.06944450000000302
                },
                {
                    "name": "D#4",
                    "midi": 63,
                    "time": 153.1945670000008,
                    "velocity": 0.3858267716535433,
                    "duration": 0.06944450000000302
                },
                {
                    "name": "F4",
                    "midi": 65,
                    "time": 153.2640115000008,
                    "velocity": 0.3858267716535433,
                    "duration": 0.06944450000000302
                },
                {
                    "name": "D#4",
                    "midi": 63,
                    "time": 153.3334560000008,
                    "velocity": 0.3858267716535433,
                    "duration": 0.06944450000000302
                },
                {
                    "name": "F4",
                    "midi": 65,
                    "time": 153.4029005000008,
                    "velocity": 0.3858267716535433,
                    "duration": 0.06944450000000302
                },
                {
                    "name": "D#4",
                    "midi": 63,
                    "time": 153.47234500000081,
                    "velocity": 0.3858267716535433,
                    "duration": 0.06944450000000302
                },
                {
                    "name": "F4",
                    "midi": 65,
                    "time": 153.54178950000082,
                    "velocity": 0.3858267716535433,
                    "duration": 0.06944450000000302
                },
                {
                    "name": "D#4",
                    "midi": 63,
                    "time": 153.61123400000082,
                    "velocity": 0.3858267716535433,
                    "duration": 0.06944450000000302
                },
                {
                    "name": "F4",
                    "midi": 65,
                    "time": 153.68067850000082,
                    "velocity": 0.3858267716535433,
                    "duration": 0.06944450000000302
                },
                {
                    "name": "D#4",
                    "midi": 63,
                    "time": 153.75012300000083,
                    "velocity": 0.3858267716535433,
                    "duration": 0.06944450000000302
                },
                {
                    "name": "F4",
                    "midi": 65,
                    "time": 153.81956750000083,
                    "velocity": 0.3858267716535433,
                    "duration": 0.06944450000000302
                },
                {
                    "name": "D#4",
                    "midi": 63,
                    "time": 153.88901200000083,
                    "velocity": 0.3858267716535433,
                    "duration": 0.06944450000000302
                },
                {
                    "name": "F4",
                    "midi": 65,
                    "time": 153.95845650000084,
                    "velocity": 0.3858267716535433,
                    "duration": 0.06944450000000302
                },
                {
                    "name": "D#4",
                    "midi": 63,
                    "time": 154.02790100000084,
                    "velocity": 0.3858267716535433,
                    "duration": 0.06944450000000302
                },
                {
                    "name": "F4",
                    "midi": 65,
                    "time": 154.09734550000084,
                    "velocity": 0.3858267716535433,
                    "duration": 0.06944450000000302
                },
                {
                    "name": "D#4",
                    "midi": 63,
                    "time": 154.16679000000084,
                    "velocity": 0.3858267716535433,
                    "duration": 0.06944450000000302
                },
                {
                    "name": "F4",
                    "midi": 65,
                    "time": 154.23623450000085,
                    "velocity": 0.3858267716535433,
                    "duration": 0.06944450000000302
                },
                {
                    "name": "D#4",
                    "midi": 63,
                    "time": 154.30567900000085,
                    "velocity": 0.3858267716535433,
                    "duration": 0.06944450000000302
                },
                {
                    "name": "F4",
                    "midi": 65,
                    "time": 154.37512350000085,
                    "velocity": 0.3858267716535433,
                    "duration": 0.06944450000000302
                },
                {
                    "name": "D#4",
                    "midi": 63,
                    "time": 154.44456800000086,
                    "velocity": 0.3858267716535433,
                    "duration": 0.06944450000000302
                },
                {
                    "name": "F4",
                    "midi": 65,
                    "time": 154.51401250000086,
                    "velocity": 0.3858267716535433,
                    "duration": 0.06944450000000302
                },
                {
                    "name": "D#4",
                    "midi": 63,
                    "time": 154.58345700000086,
                    "velocity": 0.3858267716535433,
                    "duration": 0.06944450000000302
                },
                {
                    "name": "F4",
                    "midi": 65,
                    "time": 154.65290150000087,
                    "velocity": 0.3858267716535433,
                    "duration": 0.06944450000000302
                },
                {
                    "name": "D#4",
                    "midi": 63,
                    "time": 154.72234600000087,
                    "velocity": 0.3858267716535433,
                    "duration": 0.06944450000000302
                },
                {
                    "name": "F4",
                    "midi": 65,
                    "time": 154.79179050000087,
                    "velocity": 0.3858267716535433,
                    "duration": 0.06944450000000302
                },
                {
                    "name": "D#4",
                    "midi": 63,
                    "time": 154.86123500000087,
                    "velocity": 0.3858267716535433,
                    "duration": 0.06944450000000302
                },
                {
                    "name": "F4",
                    "midi": 65,
                    "time": 154.93067950000088,
                    "velocity": 0.3858267716535433,
                    "duration": 0.06944450000000302
                },
                {
                    "name": "D#4",
                    "midi": 63,
                    "time": 155.00012400000088,
                    "velocity": 0.3858267716535433,
                    "duration": 0.06944450000000302
                },
                {
                    "name": "F4",
                    "midi": 65,
                    "time": 155.06956850000088,
                    "velocity": 0.3858267716535433,
                    "duration": 0.06944450000000302
                },
                {
                    "name": "D#4",
                    "midi": 63,
                    "time": 155.1390130000009,
                    "velocity": 0.3858267716535433,
                    "duration": 0.06944450000000302
                },
                {
                    "name": "F4",
                    "midi": 65,
                    "time": 155.2084575000009,
                    "velocity": 0.3858267716535433,
                    "duration": 0.06944450000000302
                },
                {
                    "name": "D#4",
                    "midi": 63,
                    "time": 155.2779020000009,
                    "velocity": 0.3858267716535433,
                    "duration": 0.06944450000000302
                },
                {
                    "name": "F4",
                    "midi": 65,
                    "time": 155.3473465000009,
                    "velocity": 0.3858267716535433,
                    "duration": 0.06944450000000302
                }
            ],
            "controlChanges": {
                "7": [
                    {
                        "number": 7,
                        "time": 0,
                        "value": 1
                    }
                ],
                "10": [
                    {
                        "number": 10,
                        "time": 0,
                        "value": 0.23622047244094488
                    }
                ]
            },
            "id": 3,
            "name": "Instrument18",
            "instrumentNumber": 0,
            "instrument": "acoustic grand piano",
            "instrumentFamily": "piano",
            "channelNumber": 2,
            "isPercussion": false
        },
        {
            "startTime": 4.444448,
            "duration": 154.86123499999985,
            "length": 171,
            "notes": [
                {
                    "name": "D#4",
                    "midi": 63,
                    "time": 4.444448,
                    "velocity": 0.4881889763779528,
                    "duration": 0.5555560000000002
                },
                {
                    "name": "C4",
                    "midi": 60,
                    "time": 5.000004000000001,
                    "velocity": 0.4881889763779528,
                    "duration": 0.5555560000000002
                },
                {
                    "name": "D#4",
                    "midi": 63,
                    "time": 5.555560000000001,
                    "velocity": 0.4881889763779528,
                    "duration": 0.5555560000000002
                },
                {
                    "name": "C4",
                    "midi": 60,
                    "time": 6.111116000000001,
                    "velocity": 0.4881889763779528,
                    "duration": 0.5555560000000002
                },
                {
                    "name": "A#3",
                    "midi": 58,
                    "time": 6.666672000000001,
                    "velocity": 0.4881889763779528,
                    "duration": 0.5555560000000002
                },
                {
                    "name": "D#4",
                    "midi": 63,
                    "time": 7.222228000000001,
                    "velocity": 0.4881889763779528,
                    "duration": 0.5555560000000002
                },
                {
                    "name": "F4",
                    "midi": 65,
                    "time": 7.777784000000001,
                    "velocity": 0.4881889763779528,
                    "duration": 0.5555560000000002
                },
                {
                    "name": "D#4",
                    "midi": 63,
                    "time": 8.333340000000002,
                    "velocity": 0.4881889763779528,
                    "duration": 0.5555559999999993
                },
                {
                    "name": "C4",
                    "midi": 60,
                    "time": 8.888896,
                    "velocity": 0.4881889763779528,
                    "duration": 0.5555559999999993
                },
                {
                    "name": "F4",
                    "midi": 65,
                    "time": 9.3750075,
                    "velocity": 0.4881889763779528,
                    "duration": 0.06944449999999946
                },
                {
                    "name": "D#4",
                    "midi": 63,
                    "time": 9.444452,
                    "velocity": 0.4881889763779528,
                    "duration": 0.5555559999999993
                },
                {
                    "name": "C4",
                    "midi": 60,
                    "time": 10.000008,
                    "velocity": 0.4881889763779528,
                    "duration": 0.5555559999999993
                },
                {
                    "name": "A#3",
                    "midi": 58,
                    "time": 10.555563999999999,
                    "velocity": 0.4881889763779528,
                    "duration": 0.5555559999999993
                },
                {
                    "name": "F3",
                    "midi": 53,
                    "time": 11.111119999999998,
                    "velocity": 0.4881889763779528,
                    "duration": 0.5555559999999993
                },
                {
                    "name": "A#3",
                    "midi": 58,
                    "time": 11.666675999999997,
                    "velocity": 0.4881889763779528,
                    "duration": 0.5555559999999993
                },
                {
                    "name": "C4",
                    "midi": 60,
                    "time": 12.222231999999996,
                    "velocity": 0.4881889763779528,
                    "duration": 0.5555559999999993
                },
                {
                    "name": "G#3",
                    "midi": 56,
                    "time": 12.638898999999997,
                    "velocity": 0.4881889763779528,
                    "duration": 0.06944449999999946
                },
                {
                    "name": "C4",
                    "midi": 60,
                    "time": 12.708343499999996,
                    "velocity": 0.4881889763779528,
                    "duration": 0.06944449999999946
                },
                {
                    "name": "G#3",
                    "midi": 56,
                    "time": 12.777787999999996,
                    "velocity": 0.4881889763779528,
                    "duration": 0.5555559999999993
                },
                {
                    "name": "F3",
                    "midi": 53,
                    "time": 13.333343999999995,
                    "velocity": 0.4881889763779528,
                    "duration": 1.1111120000000003
                },
                {
                    "name": "A#3",
                    "midi": 58,
                    "time": 14.444455999999995,
                    "velocity": 0.4881889763779528,
                    "duration": 0.5555559999999993
                },
                {
                    "name": "D#4",
                    "midi": 63,
                    "time": 15.000011999999995,
                    "velocity": 0.4881889763779528,
                    "duration": 1.1111119999999985
                },
                {
                    "name": "C#4",
                    "midi": 61,
                    "time": 15.972234999999994,
                    "velocity": 0.4881889763779528,
                    "duration": 0.06944449999999946
                },
                {
                    "name": "F4",
                    "midi": 65,
                    "time": 16.041679499999994,
                    "velocity": 0.4881889763779528,
                    "duration": 0.06944449999999946
                },
                {
                    "name": "C#4",
                    "midi": 61,
                    "time": 16.111123999999993,
                    "velocity": 0.4881889763779528,
                    "duration": 0.5555559999999993
                },
                {
                    "name": "C4",
                    "midi": 60,
                    "time": 16.666679999999992,
                    "velocity": 0.4881889763779528,
                    "duration": 1.6666680000000014
                },
                {
                    "name": "A#3",
                    "midi": 58,
                    "time": 18.333347999999994,
                    "velocity": 0.4881889763779528,
                    "duration": 0.5555559999999993
                },
                {
                    "name": "D#4",
                    "midi": 63,
                    "time": 18.819459499999994,
                    "velocity": 0.4881889763779528,
                    "duration": 0.06944449999999946
                },
                {
                    "name": "C4",
                    "midi": 60,
                    "time": 18.888903999999993,
                    "velocity": 0.4881889763779528,
                    "duration": 0.5555559999999993
                },
                {
                    "name": "G#3",
                    "midi": 56,
                    "time": 19.444459999999992,
                    "velocity": 0.4881889763779528,
                    "duration": 0.5555559999999993
                },
                {
                    "name": "F3",
                    "midi": 53,
                    "time": 20.00001599999999,
                    "velocity": 0.4881889763779528,
                    "duration": 1.1111119999999985
                },
                {
                    "name": "C4",
                    "midi": 60,
                    "time": 21.11112799999999,
                    "velocity": 0.4881889763779528,
                    "duration": 0.5555559999999993
                },
                {
                    "name": "D#4",
                    "midi": 63,
                    "time": 21.59723949999999,
                    "velocity": 0.4881889763779528,
                    "duration": 0.06944449999999946
                },
                {
                    "name": "A#3",
                    "midi": 58,
                    "time": 21.66668399999999,
                    "velocity": 0.4881889763779528,
                    "duration": 0.5555559999999993
                },
                {
                    "name": "C4",
                    "midi": 60,
                    "time": 22.15279549999999,
                    "velocity": 0.4881889763779528,
                    "duration": 0.06944449999999946
                },
                {
                    "name": "G#3",
                    "midi": 56,
                    "time": 22.22223999999999,
                    "velocity": 0.4881889763779528,
                    "duration": 0.5555559999999993
                },
                {
                    "name": "G#3",
                    "midi": 56,
                    "time": 22.70835149999999,
                    "velocity": 0.4881889763779528,
                    "duration": 0.06944449999999946
                },
                {
                    "name": "F3",
                    "midi": 53,
                    "time": 22.777795999999988,
                    "velocity": 0.4881889763779528,
                    "duration": 1.1111119999999985
                },
                {
                    "name": "D#1",
                    "midi": 27,
                    "time": 31.111135999999988,
                    "velocity": 0.5905511811023622,
                    "duration": 0.2777780000000014
                },
                {
                    "name": "A#1",
                    "midi": 34,
                    "time": 31.111135999999988,
                    "velocity": 0.5905511811023622,
                    "duration": 0.2777780000000014
                },
                {
                    "name": "D#2",
                    "midi": 39,
                    "time": 31.111135999999988,
                    "velocity": 0.5905511811023622,
                    "duration": 0.2777780000000014
                },
                {
                    "name": "A#2",
                    "midi": 46,
                    "time": 31.111135999999988,
                    "velocity": 0.5905511811023622,
                    "duration": 0.2777780000000014
                },
                {
                    "name": "F3",
                    "midi": 53,
                    "time": 31.38891399999999,
                    "velocity": 0.3858267716535433,
                    "duration": 0.2777780000000014
                },
                {
                    "name": "G3",
                    "midi": 55,
                    "time": 31.66669199999999,
                    "velocity": 0.3858267716535433,
                    "duration": 0.27777799999999786
                },
                {
                    "name": "G3",
                    "midi": 55,
                    "time": 31.87502549999999,
                    "velocity": 0.3858267716535433,
                    "duration": 0.06944449999999946
                },
                {
                    "name": "A#3",
                    "midi": 58,
                    "time": 31.94446999999999,
                    "velocity": 0.3858267716535433,
                    "duration": 0.27777800000000497
                },
                {
                    "name": "C4",
                    "midi": 60,
                    "time": 31.94446999999999,
                    "velocity": 0.3858267716535433,
                    "duration": 0.27777800000000497
                },
                {
                    "name": "D#4",
                    "midi": 63,
                    "time": 31.94446999999999,
                    "velocity": 0.3858267716535433,
                    "duration": 0.27777800000000497
                },
                {
                    "name": "A#3",
                    "midi": 58,
                    "time": 32.15280349999999,
                    "velocity": 0.3858267716535433,
                    "duration": 0.06944450000000302
                },
                {
                    "name": "G#3",
                    "midi": 56,
                    "time": 32.22224799999999,
                    "velocity": 0.3858267716535433,
                    "duration": 0.27777799999999786
                },
                {
                    "name": "G#4",
                    "midi": 68,
                    "time": 32.22224799999999,
                    "velocity": 0.3858267716535433,
                    "duration": 0.27777799999999786
                },
                {
                    "name": "G3",
                    "midi": 55,
                    "time": 32.50002599999999,
                    "velocity": 0.3858267716535433,
                    "duration": 0.27777799999999786
                },
                {
                    "name": "F3",
                    "midi": 53,
                    "time": 32.77780399999999,
                    "velocity": 0.3858267716535433,
                    "duration": 0.27777800000000497
                },
                {
                    "name": "C#3",
                    "midi": 49,
                    "time": 32.98613749999999,
                    "velocity": 0.3858267716535433,
                    "duration": 0.06944450000000302
                },
                {
                    "name": "D#3",
                    "midi": 51,
                    "time": 33.055581999999994,
                    "velocity": 0.3858267716535433,
                    "duration": 0.27777799999999786
                },
                {
                    "name": "D#4",
                    "midi": 63,
                    "time": 33.055581999999994,
                    "velocity": 0.3858267716535433,
                    "duration": 0.27777799999999786
                },
                {
                    "name": "D#1",
                    "midi": 27,
                    "time": 37.77780799999999,
                    "velocity": 0.5905511811023622,
                    "duration": 0.27777799999999786
                },
                {
                    "name": "A#1",
                    "midi": 34,
                    "time": 37.77780799999999,
                    "velocity": 0.5905511811023622,
                    "duration": 0.27777799999999786
                },
                {
                    "name": "D#2",
                    "midi": 39,
                    "time": 37.77780799999999,
                    "velocity": 0.5905511811023622,
                    "duration": 0.27777799999999786
                },
                {
                    "name": "A#2",
                    "midi": 46,
                    "time": 37.77780799999999,
                    "velocity": 0.5905511811023622,
                    "duration": 0.27777799999999786
                },
                {
                    "name": "F3",
                    "midi": 53,
                    "time": 38.05558599999999,
                    "velocity": 0.3858267716535433,
                    "duration": 0.27777799999999786
                },
                {
                    "name": "G3",
                    "midi": 55,
                    "time": 38.33336399999999,
                    "velocity": 0.3858267716535433,
                    "duration": 0.27777800000000497
                },
                {
                    "name": "G3",
                    "midi": 55,
                    "time": 38.54169749999999,
                    "velocity": 0.3858267716535433,
                    "duration": 0.06944450000000302
                },
                {
                    "name": "A#3",
                    "midi": 58,
                    "time": 38.611141999999994,
                    "velocity": 0.3858267716535433,
                    "duration": 0.27777800000000497
                },
                {
                    "name": "C4",
                    "midi": 60,
                    "time": 38.611141999999994,
                    "velocity": 0.3858267716535433,
                    "duration": 0.27777800000000497
                },
                {
                    "name": "D#4",
                    "midi": 63,
                    "time": 38.611141999999994,
                    "velocity": 0.3858267716535433,
                    "duration": 0.27777800000000497
                },
                {
                    "name": "A#3",
                    "midi": 58,
                    "time": 38.819475499999996,
                    "velocity": 0.3858267716535433,
                    "duration": 0.06944450000000302
                },
                {
                    "name": "G#3",
                    "midi": 56,
                    "time": 38.88892,
                    "velocity": 0.3858267716535433,
                    "duration": 0.27777799999999786
                },
                {
                    "name": "G#4",
                    "midi": 68,
                    "time": 38.88892,
                    "velocity": 0.3858267716535433,
                    "duration": 0.27777799999999786
                },
                {
                    "name": "G3",
                    "midi": 55,
                    "time": 39.166698,
                    "velocity": 0.3858267716535433,
                    "duration": 0.27777799999999786
                },
                {
                    "name": "F3",
                    "midi": 53,
                    "time": 39.444475999999995,
                    "velocity": 0.3858267716535433,
                    "duration": 0.27777800000000497
                },
                {
                    "name": "C#3",
                    "midi": 49,
                    "time": 39.6528095,
                    "velocity": 0.3858267716535433,
                    "duration": 0.06944450000000302
                },
                {
                    "name": "D#3",
                    "midi": 51,
                    "time": 39.722254,
                    "velocity": 0.3858267716535433,
                    "duration": 0.27777799999999786
                },
                {
                    "name": "D#4",
                    "midi": 63,
                    "time": 39.722254,
                    "velocity": 0.3858267716535433,
                    "duration": 0.27777799999999786
                },
                {
                    "name": "F3",
                    "midi": 53,
                    "time": 40.000032,
                    "velocity": 0.3858267716535433,
                    "duration": 0.27777799999999786
                },
                {
                    "name": "G3",
                    "midi": 55,
                    "time": 40.277809999999995,
                    "velocity": 0.3858267716535433,
                    "duration": 0.27777800000000497
                },
                {
                    "name": "A#3",
                    "midi": 58,
                    "time": 40.4861435,
                    "velocity": 0.3858267716535433,
                    "duration": 0.06944450000000302
                },
                {
                    "name": "G#3",
                    "midi": 56,
                    "time": 40.555588,
                    "velocity": 0.3858267716535433,
                    "duration": 0.27777799999999786
                },
                {
                    "name": "G#4",
                    "midi": 68,
                    "time": 40.555588,
                    "velocity": 0.3858267716535433,
                    "duration": 0.27777799999999786
                },
                {
                    "name": "G3",
                    "midi": 55,
                    "time": 40.833366,
                    "velocity": 0.3858267716535433,
                    "duration": 0.27777799999999786
                },
                {
                    "name": "F3",
                    "midi": 53,
                    "time": 41.111143999999996,
                    "velocity": 0.3858267716535433,
                    "duration": 0.27777800000000497
                },
                {
                    "name": "C#3",
                    "midi": 49,
                    "time": 41.3194775,
                    "velocity": 0.3858267716535433,
                    "duration": 0.06944450000000302
                },
                {
                    "name": "D#3",
                    "midi": 51,
                    "time": 41.388922,
                    "velocity": 0.3858267716535433,
                    "duration": 0.27777799999999786
                },
                {
                    "name": "D#4",
                    "midi": 63,
                    "time": 41.388922,
                    "velocity": 0.3858267716535433,
                    "duration": 0.27777799999999786
                },
                {
                    "name": "D#1",
                    "midi": 27,
                    "time": 71.666724,
                    "velocity": 0.5905511811023622,
                    "duration": 0.27777799999999786
                },
                {
                    "name": "A#1",
                    "midi": 34,
                    "time": 71.666724,
                    "velocity": 0.5905511811023622,
                    "duration": 0.27777799999999786
                },
                {
                    "name": "D#2",
                    "midi": 39,
                    "time": 71.666724,
                    "velocity": 0.5905511811023622,
                    "duration": 0.27777799999999786
                },
                {
                    "name": "A#2",
                    "midi": 46,
                    "time": 71.666724,
                    "velocity": 0.5905511811023622,
                    "duration": 0.27777799999999786
                },
                {
                    "name": "F3",
                    "midi": 53,
                    "time": 71.944502,
                    "velocity": 0.3858267716535433,
                    "duration": 0.27777799999999786
                },
                {
                    "name": "G3",
                    "midi": 55,
                    "time": 72.22228,
                    "velocity": 0.3858267716535433,
                    "duration": 0.27777799999999786
                },
                {
                    "name": "G3",
                    "midi": 55,
                    "time": 72.43061349999999,
                    "velocity": 0.3858267716535433,
                    "duration": 0.06944450000000302
                },
                {
                    "name": "A#3",
                    "midi": 58,
                    "time": 72.500058,
                    "velocity": 0.3858267716535433,
                    "duration": 0.27777799999999786
                },
                {
                    "name": "C4",
                    "midi": 60,
                    "time": 72.500058,
                    "velocity": 0.3858267716535433,
                    "duration": 0.27777799999999786
                },
                {
                    "name": "D#4",
                    "midi": 63,
                    "time": 72.500058,
                    "velocity": 0.3858267716535433,
                    "duration": 0.27777799999999786
                },
                {
                    "name": "A#3",
                    "midi": 58,
                    "time": 72.70839149999999,
                    "velocity": 0.3858267716535433,
                    "duration": 0.06944450000000302
                },
                {
                    "name": "G#3",
                    "midi": 56,
                    "time": 72.777836,
                    "velocity": 0.3858267716535433,
                    "duration": 0.27777799999999786
                },
                {
                    "name": "G#4",
                    "midi": 68,
                    "time": 72.777836,
                    "velocity": 0.3858267716535433,
                    "duration": 0.27777799999999786
                },
                {
                    "name": "G3",
                    "midi": 55,
                    "time": 73.05561399999999,
                    "velocity": 0.3858267716535433,
                    "duration": 0.27777799999999786
                },
                {
                    "name": "F3",
                    "midi": 53,
                    "time": 73.33339199999999,
                    "velocity": 0.3858267716535433,
                    "duration": 0.27777799999999786
                },
                {
                    "name": "C#3",
                    "midi": 49,
                    "time": 73.54172549999998,
                    "velocity": 0.3858267716535433,
                    "duration": 0.06944450000000302
                },
                {
                    "name": "D#3",
                    "midi": 51,
                    "time": 73.61116999999999,
                    "velocity": 0.3858267716535433,
                    "duration": 0.27777799999999786
                },
                {
                    "name": "D#4",
                    "midi": 63,
                    "time": 73.61116999999999,
                    "velocity": 0.3858267716535433,
                    "duration": 0.27777799999999786
                },
                {
                    "name": "D#1",
                    "midi": 27,
                    "time": 76.11117199999998,
                    "velocity": 0.5905511811023622,
                    "duration": 0.27777799999999786
                },
                {
                    "name": "A#1",
                    "midi": 34,
                    "time": 76.11117199999998,
                    "velocity": 0.5905511811023622,
                    "duration": 0.27777799999999786
                },
                {
                    "name": "D#2",
                    "midi": 39,
                    "time": 76.11117199999998,
                    "velocity": 0.5905511811023622,
                    "duration": 0.27777799999999786
                },
                {
                    "name": "A#2",
                    "midi": 46,
                    "time": 76.11117199999998,
                    "velocity": 0.5905511811023622,
                    "duration": 0.27777799999999786
                },
                {
                    "name": "F3",
                    "midi": 53,
                    "time": 76.38894999999998,
                    "velocity": 0.3858267716535433,
                    "duration": 0.27777799999999786
                },
                {
                    "name": "G3",
                    "midi": 55,
                    "time": 76.66672799999998,
                    "velocity": 0.3858267716535433,
                    "duration": 0.27777799999999786
                },
                {
                    "name": "G3",
                    "midi": 55,
                    "time": 76.87506149999997,
                    "velocity": 0.3858267716535433,
                    "duration": 0.06944450000000302
                },
                {
                    "name": "A#3",
                    "midi": 58,
                    "time": 76.94450599999998,
                    "velocity": 0.3858267716535433,
                    "duration": 0.27777799999999786
                },
                {
                    "name": "C4",
                    "midi": 60,
                    "time": 76.94450599999998,
                    "velocity": 0.3858267716535433,
                    "duration": 0.27777799999999786
                },
                {
                    "name": "D#4",
                    "midi": 63,
                    "time": 76.94450599999998,
                    "velocity": 0.3858267716535433,
                    "duration": 0.27777799999999786
                },
                {
                    "name": "A#3",
                    "midi": 58,
                    "time": 77.15283949999997,
                    "velocity": 0.3858267716535433,
                    "duration": 0.06944450000000302
                },
                {
                    "name": "G#3",
                    "midi": 56,
                    "time": 77.22228399999997,
                    "velocity": 0.3858267716535433,
                    "duration": 0.27777799999999786
                },
                {
                    "name": "G#4",
                    "midi": 68,
                    "time": 77.22228399999997,
                    "velocity": 0.3858267716535433,
                    "duration": 0.27777799999999786
                },
                {
                    "name": "G3",
                    "midi": 55,
                    "time": 77.50006199999997,
                    "velocity": 0.3858267716535433,
                    "duration": 0.27777799999999786
                },
                {
                    "name": "F3",
                    "midi": 53,
                    "time": 77.77783999999997,
                    "velocity": 0.3858267716535433,
                    "duration": 0.27777799999999786
                },
                {
                    "name": "C#3",
                    "midi": 49,
                    "time": 77.98617349999996,
                    "velocity": 0.3858267716535433,
                    "duration": 0.06944450000000302
                },
                {
                    "name": "D#3",
                    "midi": 51,
                    "time": 78.05561799999997,
                    "velocity": 0.3858267716535433,
                    "duration": 0.27777799999999786
                },
                {
                    "name": "D#4",
                    "midi": 63,
                    "time": 78.05561799999997,
                    "velocity": 0.3858267716535433,
                    "duration": 0.27777799999999786
                },
                {
                    "name": "F3",
                    "midi": 53,
                    "time": 78.33339599999996,
                    "velocity": 0.3858267716535433,
                    "duration": 0.27777799999999786
                },
                {
                    "name": "G3",
                    "midi": 55,
                    "time": 78.61117399999996,
                    "velocity": 0.3858267716535433,
                    "duration": 0.27777799999999786
                },
                {
                    "name": "A#3",
                    "midi": 58,
                    "time": 78.81950749999996,
                    "velocity": 0.3858267716535433,
                    "duration": 0.06944450000000302
                },
                {
                    "name": "G#3",
                    "midi": 56,
                    "time": 78.88895199999996,
                    "velocity": 0.3858267716535433,
                    "duration": 0.27777799999999786
                },
                {
                    "name": "G#4",
                    "midi": 68,
                    "time": 78.88895199999996,
                    "velocity": 0.3858267716535433,
                    "duration": 0.27777799999999786
                },
                {
                    "name": "G3",
                    "midi": 55,
                    "time": 79.16672999999996,
                    "velocity": 0.3858267716535433,
                    "duration": 0.27777799999999786
                },
                {
                    "name": "F3",
                    "midi": 53,
                    "time": 79.44450799999996,
                    "velocity": 0.3858267716535433,
                    "duration": 0.27777799999999786
                },
                {
                    "name": "C#3",
                    "midi": 49,
                    "time": 79.65284149999995,
                    "velocity": 0.3858267716535433,
                    "duration": 0.06944450000000302
                },
                {
                    "name": "D#3",
                    "midi": 51,
                    "time": 79.72228599999995,
                    "velocity": 0.3858267716535433,
                    "duration": 0.27777799999999786
                },
                {
                    "name": "D#4",
                    "midi": 63,
                    "time": 79.72228599999995,
                    "velocity": 0.3858267716535433,
                    "duration": 0.27777799999999786
                },
                {
                    "name": "G#1",
                    "midi": 32,
                    "time": 89.58340499999996,
                    "velocity": 0.7952755905511811,
                    "duration": 0.27777799999999786
                },
                {
                    "name": "D#2",
                    "midi": 39,
                    "time": 89.58340499999996,
                    "velocity": 0.7952755905511811,
                    "duration": 0.27777799999999786
                },
                {
                    "name": "G#2",
                    "midi": 44,
                    "time": 89.58340499999996,
                    "velocity": 0.7952755905511811,
                    "duration": 0.27777799999999786
                },
                {
                    "name": "D#4",
                    "midi": 63,
                    "time": 135.41677499999997,
                    "velocity": 0.4881889763779528,
                    "duration": 0.5555559999999957
                },
                {
                    "name": "C4",
                    "midi": 60,
                    "time": 135.97233099999997,
                    "velocity": 0.4881889763779528,
                    "duration": 0.5555559999999957
                },
                {
                    "name": "F4",
                    "midi": 65,
                    "time": 136.45844249999996,
                    "velocity": 0.4881889763779528,
                    "duration": 0.06944450000000302
                },
                {
                    "name": "D#4",
                    "midi": 63,
                    "time": 136.52788699999996,
                    "velocity": 0.4881889763779528,
                    "duration": 0.5555559999999957
                },
                {
                    "name": "C4",
                    "midi": 60,
                    "time": 137.08344299999996,
                    "velocity": 0.4881889763779528,
                    "duration": 0.5555559999999957
                },
                {
                    "name": "A#3",
                    "midi": 58,
                    "time": 137.63899899999996,
                    "velocity": 0.4881889763779528,
                    "duration": 0.5555559999999957
                },
                {
                    "name": "D#4",
                    "midi": 63,
                    "time": 138.19455499999995,
                    "velocity": 0.4881889763779528,
                    "duration": 0.5555559999999957
                },
                {
                    "name": "F4",
                    "midi": 65,
                    "time": 138.75011099999995,
                    "velocity": 0.4881889763779528,
                    "duration": 0.5555559999999957
                },
                {
                    "name": "D#4",
                    "midi": 63,
                    "time": 139.30566699999994,
                    "velocity": 0.4881889763779528,
                    "duration": 0.5555559999999957
                },
                {
                    "name": "C4",
                    "midi": 60,
                    "time": 139.86122299999994,
                    "velocity": 0.4881889763779528,
                    "duration": 0.5555559999999957
                },
                {
                    "name": "F4",
                    "midi": 65,
                    "time": 140.34733449999993,
                    "velocity": 0.4881889763779528,
                    "duration": 0.06944450000000302
                },
                {
                    "name": "D#4",
                    "midi": 63,
                    "time": 140.41677899999993,
                    "velocity": 0.4881889763779528,
                    "duration": 0.5555559999999957
                },
                {
                    "name": "C4",
                    "midi": 60,
                    "time": 140.97233499999993,
                    "velocity": 0.4881889763779528,
                    "duration": 0.5555559999999957
                },
                {
                    "name": "A#3",
                    "midi": 58,
                    "time": 141.52789099999993,
                    "velocity": 0.4881889763779528,
                    "duration": 0.5555559999999957
                },
                {
                    "name": "G3",
                    "midi": 55,
                    "time": 142.08344699999992,
                    "velocity": 0.4881889763779528,
                    "duration": 0.5555559999999957
                },
                {
                    "name": "C4",
                    "midi": 60,
                    "time": 142.63900299999992,
                    "velocity": 0.4881889763779528,
                    "duration": 0.5555559999999957
                },
                {
                    "name": "D4",
                    "midi": 62,
                    "time": 143.1945589999999,
                    "velocity": 0.4881889763779528,
                    "duration": 0.5555559999999957
                },
                {
                    "name": "A#3",
                    "midi": 58,
                    "time": 143.6112259999999,
                    "velocity": 0.4881889763779528,
                    "duration": 0.06944450000000302
                },
                {
                    "name": "D4",
                    "midi": 62,
                    "time": 143.6806704999999,
                    "velocity": 0.4881889763779528,
                    "duration": 0.06944450000000302
                },
                {
                    "name": "A#3",
                    "midi": 58,
                    "time": 143.7501149999999,
                    "velocity": 0.4881889763779528,
                    "duration": 0.5555559999999957
                },
                {
                    "name": "G3",
                    "midi": 55,
                    "time": 144.3056709999999,
                    "velocity": 0.4881889763779528,
                    "duration": 1.1111119999999914
                },
                {
                    "name": "C4",
                    "midi": 60,
                    "time": 145.4167829999999,
                    "velocity": 0.4881889763779528,
                    "duration": 0.5555559999999957
                },
                {
                    "name": "F4",
                    "midi": 65,
                    "time": 145.9723389999999,
                    "velocity": 0.4881889763779528,
                    "duration": 1.1111120000000199
                },
                {
                    "name": "D#4",
                    "midi": 63,
                    "time": 146.9445619999999,
                    "velocity": 0.4881889763779528,
                    "duration": 0.06944450000000302
                },
                {
                    "name": "G4",
                    "midi": 67,
                    "time": 147.0140064999999,
                    "velocity": 0.4881889763779528,
                    "duration": 0.06944450000000302
                },
                {
                    "name": "D#4",
                    "midi": 63,
                    "time": 147.0834509999999,
                    "velocity": 0.4881889763779528,
                    "duration": 0.5555559999999957
                },
                {
                    "name": "D4",
                    "midi": 62,
                    "time": 147.6390069999999,
                    "velocity": 0.4881889763779528,
                    "duration": 1.6666679999999872
                },
                {
                    "name": "C4",
                    "midi": 60,
                    "time": 149.3056749999999,
                    "velocity": 0.4881889763779528,
                    "duration": 0.5555559999999957
                },
                {
                    "name": "F4",
                    "midi": 65,
                    "time": 149.7917864999999,
                    "velocity": 0.4881889763779528,
                    "duration": 0.06944450000000302
                },
                {
                    "name": "D4",
                    "midi": 62,
                    "time": 149.8612309999999,
                    "velocity": 0.4881889763779528,
                    "duration": 0.5555559999999957
                },
                {
                    "name": "A#3",
                    "midi": 58,
                    "time": 150.41678699999989,
                    "velocity": 0.4881889763779528,
                    "duration": 0.5555559999999957
                },
                {
                    "name": "G3",
                    "midi": 55,
                    "time": 150.97234299999988,
                    "velocity": 0.4881889763779528,
                    "duration": 1.1111119999999914
                },
                {
                    "name": "D4",
                    "midi": 62,
                    "time": 152.08345499999987,
                    "velocity": 0.4881889763779528,
                    "duration": 0.5555559999999957
                },
                {
                    "name": "F4",
                    "midi": 65,
                    "time": 152.56956649999987,
                    "velocity": 0.4881889763779528,
                    "duration": 0.06944450000000302
                },
                {
                    "name": "C4",
                    "midi": 60,
                    "time": 152.63901099999987,
                    "velocity": 0.4881889763779528,
                    "duration": 0.5555559999999957
                },
                {
                    "name": "D4",
                    "midi": 62,
                    "time": 153.12512249999986,
                    "velocity": 0.4881889763779528,
                    "duration": 0.06944450000000302
                },
                {
                    "name": "A#3",
                    "midi": 58,
                    "time": 153.19456699999986,
                    "velocity": 0.4881889763779528,
                    "duration": 0.5555559999999957
                },
                {
                    "name": "G3",
                    "midi": 55,
                    "time": 153.75012299999986,
                    "velocity": 0.4881889763779528,
                    "duration": 1.1111119999999914
                }
            ],
            "controlChanges": {
                "7": [
                    {
                        "number": 7,
                        "time": 0,
                        "value": 1
                    }
                ],
                "10": [
                    {
                        "number": 10,
                        "time": 0,
                        "value": 0.23622047244094488
                    }
                ],
                "64": [
                    {
                        "number": 64,
                        "time": 31.111135999999988,
                        "value": 1
                    },
                    {
                        "number": 64,
                        "time": 33.055581999999994,
                        "value": 0
                    },
                    {
                        "number": 64,
                        "time": 37.77780799999999,
                        "value": 1
                    },
                    {
                        "number": 64,
                        "time": 39.722254,
                        "value": 0
                    },
                    {
                        "number": 64,
                        "time": 40.000032,
                        "value": 1
                    },
                    {
                        "number": 64,
                        "time": 41.388922,
                        "value": 0
                    },
                    {
                        "number": 64,
                        "time": 71.666724,
                        "value": 1
                    },
                    {
                        "number": 64,
                        "time": 73.61116999999999,
                        "value": 0
                    },
                    {
                        "number": 64,
                        "time": 76.11117199999998,
                        "value": 1
                    },
                    {
                        "number": 64,
                        "time": 78.05561799999997,
                        "value": 0
                    },
                    {
                        "number": 64,
                        "time": 78.33339599999996,
                        "value": 1
                    },
                    {
                        "number": 64,
                        "time": 79.72228599999995,
                        "value": 0
                    }
                ]
            },
            "id": 4,
            "name": "Instrument19",
            "instrumentNumber": 0,
            "instrument": "acoustic grand piano",
            "instrumentFamily": "piano",
            "channelNumber": 3,
            "isPercussion": false
        },
        {
            "startTime": 0,
            "duration": 0,
            "length": 0,
            "notes": [],
            "controlChanges": {},
            "id": 5
        }
    ]
}