{
    "header": {
        "PPQ": 480,
        "timeSignature": [
            6,
            4
        ],
        "bpm": 50,
        "name": "stravinsky rite of spring 01"
    },
    "startTime": 0,
    "duration": 907.1999999999847,
    "tracks": [
        {
            "startTime": 0,
            "duration": 0,
            "length": 0,
            "notes": [],
            "controlChanges": {},
            "id": 0,
            "name": "stravinsky rite of spring 01"
        },
        {
            "startTime": 0,
            "duration": 907.1999999999705,
            "length": 2709,
            "notes": [
                {
                    "name": "C5",
                    "midi": 72,
                    "time": 0,
                    "velocity": 0.3858267716535433,
                    "duration": 2.475
                },
                {
                    "name": "B4",
                    "midi": 71,
                    "time": 2.475,
                    "velocity": 0.3858267716535433,
                    "duration": 0.07500000000000018
                },
                {
                    "name": "C5",
                    "midi": 72,
                    "time": 2.5500000000000003,
                    "velocity": 0.3858267716535433,
                    "duration": 0.07500000000000018
                },
                {
                    "name": "B4",
                    "midi": 71,
                    "time": 2.6250000000000004,
                    "velocity": 0.3858267716535433,
                    "duration": 0.2999999999999998
                },
                {
                    "name": "G4",
                    "midi": 67,
                    "time": 2.9250000000000003,
                    "velocity": 0.3858267716535433,
                    "duration": 0.2999999999999998
                },
                {
                    "name": "E4",
                    "midi": 64,
                    "time": 3.225,
                    "velocity": 0.3858267716535433,
                    "duration": 0.2999999999999998
                },
                {
                    "name": "B4",
                    "midi": 71,
                    "time": 3.525,
                    "velocity": 0.3858267716535433,
                    "duration": 0.2999999999999998
                },
                {
                    "name": "A4",
                    "midi": 69,
                    "time": 3.8249999999999997,
                    "velocity": 0.3858267716535433,
                    "duration": 0.44999999999999973
                },
                {
                    "name": "C5",
                    "midi": 72,
                    "time": 4.2749999999999995,
                    "velocity": 0.3858267716535433,
                    "duration": 0.5250000000000004
                },
                {
                    "name": "B4",
                    "midi": 71,
                    "time": 4.8,
                    "velocity": 0.3858267716535433,
                    "duration": 0.07500000000000018
                },
                {
                    "name": "C5",
                    "midi": 72,
                    "time": 4.875,
                    "velocity": 0.3858267716535433,
                    "duration": 0.07500000000000018
                },
                {
                    "name": "B4",
                    "midi": 71,
                    "time": 4.95,
                    "velocity": 0.3858267716535433,
                    "duration": 0.4500000000000002
                },
                {
                    "name": "G4",
                    "midi": 67,
                    "time": 5.4,
                    "velocity": 0.3858267716535433,
                    "duration": 0.5999999999999996
                },
                {
                    "name": "E4",
                    "midi": 64,
                    "time": 6,
                    "velocity": 0.3858267716535433,
                    "duration": 0.5999999999999996
                },
                {
                    "name": "B4",
                    "midi": 71,
                    "time": 6.6,
                    "velocity": 0.3858267716535433,
                    "duration": 0.5999999999999996
                },
                {
                    "name": "A4",
                    "midi": 69,
                    "time": 7.199999999999999,
                    "velocity": 0.3858267716535433,
                    "duration": 0.5999999999999996
                },
                {
                    "name": "C5",
                    "midi": 72,
                    "time": 7.799999999999999,
                    "velocity": 0.3858267716535433,
                    "duration": 0.4499999999999993
                },
                {
                    "name": "B4",
                    "midi": 71,
                    "time": 8.249999999999998,
                    "velocity": 0.3858267716535433,
                    "duration": 0.07499999999999929
                },
                {
                    "name": "C5",
                    "midi": 72,
                    "time": 8.324999999999998,
                    "velocity": 0.3858267716535433,
                    "duration": 0.07499999999999929
                },
                {
                    "name": "B4",
                    "midi": 71,
                    "time": 8.399999999999997,
                    "velocity": 0.3858267716535433,
                    "duration": 0.5999999999999996
                },
                {
                    "name": "A4",
                    "midi": 69,
                    "time": 8.999999999999996,
                    "velocity": 0.3858267716535433,
                    "duration": 0.5999999999999996
                },
                {
                    "name": "D5",
                    "midi": 74,
                    "time": 9.599999999999996,
                    "velocity": 0.3858267716535433,
                    "duration": 0.5250000000000004
                },
                {
                    "name": "G4",
                    "midi": 67,
                    "time": 10.124999999999996,
                    "velocity": 0.3858267716535433,
                    "duration": 0.07499999999999929
                },
                {
                    "name": "A4",
                    "midi": 69,
                    "time": 10.199999999999996,
                    "velocity": 0.3858267716535433,
                    "duration": 0.5999999999999996
                },
                {
                    "name": "C5",
                    "midi": 72,
                    "time": 10.799999999999995,
                    "velocity": 0.3858267716535433,
                    "duration": 0.3000000000000007
                },
                {
                    "name": "B4",
                    "midi": 71,
                    "time": 11.099999999999996,
                    "velocity": 0.3858267716535433,
                    "duration": 0.07499999999999929
                },
                {
                    "name": "C5",
                    "midi": 72,
                    "time": 11.174999999999995,
                    "velocity": 0.3858267716535433,
                    "duration": 0.07499999999999929
                },
                {
                    "name": "B4",
                    "midi": 71,
                    "time": 11.249999999999995,
                    "velocity": 0.3858267716535433,
                    "duration": 0.3000000000000007
                },
                {
                    "name": "G4",
                    "midi": 67,
                    "time": 11.549999999999995,
                    "velocity": 0.3858267716535433,
                    "duration": 0.3000000000000007
                },
                {
                    "name": "E4",
                    "midi": 64,
                    "time": 11.849999999999996,
                    "velocity": 0.3858267716535433,
                    "duration": 0.3000000000000007
                },
                {
                    "name": "B4",
                    "midi": 71,
                    "time": 12.149999999999997,
                    "velocity": 0.3858267716535433,
                    "duration": 0.3000000000000007
                },
                {
                    "name": "A4",
                    "midi": 69,
                    "time": 12.449999999999998,
                    "velocity": 0.3858267716535433,
                    "duration": 1.3499999999999996
                },
                {
                    "name": "C5",
                    "midi": 72,
                    "time": 13.799999999999997,
                    "velocity": 0.3858267716535433,
                    "duration": 1.9499999999999993
                },
                {
                    "name": "B4",
                    "midi": 71,
                    "time": 15.749999999999996,
                    "velocity": 0.3858267716535433,
                    "duration": 0.07499999999999929
                },
                {
                    "name": "C5",
                    "midi": 72,
                    "time": 15.824999999999996,
                    "velocity": 0.3858267716535433,
                    "duration": 0.07499999999999929
                },
                {
                    "name": "B4",
                    "midi": 71,
                    "time": 15.899999999999995,
                    "velocity": 0.3858267716535433,
                    "duration": 0.14999999999999858
                },
                {
                    "name": "G4",
                    "midi": 67,
                    "time": 16.049999999999994,
                    "velocity": 0.3858267716535433,
                    "duration": 0.14999999999999858
                },
                {
                    "name": "B4",
                    "midi": 71,
                    "time": 16.199999999999992,
                    "velocity": 0.3858267716535433,
                    "duration": 0.14999999999999858
                },
                {
                    "name": "A#4",
                    "midi": 70,
                    "time": 16.34999999999999,
                    "velocity": 0.3858267716535433,
                    "duration": 0.4499999999999993
                },
                {
                    "name": "A4",
                    "midi": 69,
                    "time": 16.79999999999999,
                    "velocity": 0.3858267716535433,
                    "duration": 0.39750000000000085
                },
                {
                    "name": "A#4",
                    "midi": 70,
                    "time": 17.19749999999999,
                    "velocity": 0.3858267716535433,
                    "duration": 0.40249999999999986
                },
                {
                    "name": "A4",
                    "midi": 69,
                    "time": 17.59999999999999,
                    "velocity": 0.3858267716535433,
                    "duration": 0.3999999999999986
                },
                {
                    "name": "F#4",
                    "midi": 66,
                    "time": 17.99999999999999,
                    "velocity": 0.3858267716535433,
                    "duration": 2.7974999999999994
                },
                {
                    "name": "D#4",
                    "midi": 63,
                    "time": 20.79749999999999,
                    "velocity": 0.3858267716535433,
                    "duration": 0.40249999999999986
                },
                {
                    "name": "E4",
                    "midi": 64,
                    "time": 21.19999999999999,
                    "velocity": 0.3858267716535433,
                    "duration": 0.3999999999999986
                },
                {
                    "name": "C#4",
                    "midi": 61,
                    "time": 21.599999999999987,
                    "velocity": 0.3858267716535433,
                    "duration": 0.39750000000000085
                },
                {
                    "name": "D4",
                    "midi": 62,
                    "time": 21.997499999999988,
                    "velocity": 0.3858267716535433,
                    "duration": 0.40249999999999986
                },
                {
                    "name": "B3",
                    "midi": 59,
                    "time": 22.399999999999988,
                    "velocity": 0.3858267716535433,
                    "duration": 1
                },
                {
                    "name": "C5",
                    "midi": 72,
                    "time": 24.599999999999987,
                    "velocity": 0.3858267716535433,
                    "duration": 1.6499999999999986
                },
                {
                    "name": "B4",
                    "midi": 71,
                    "time": 26.249999999999986,
                    "velocity": 0.3858267716535433,
                    "duration": 0.07499999999999929
                },
                {
                    "name": "C5",
                    "midi": 72,
                    "time": 26.324999999999985,
                    "velocity": 0.3858267716535433,
                    "duration": 0.07499999999999929
                },
                {
                    "name": "B4",
                    "midi": 71,
                    "time": 26.399999999999984,
                    "velocity": 0.3858267716535433,
                    "duration": 0.3000000000000007
                },
                {
                    "name": "G4",
                    "midi": 67,
                    "time": 26.699999999999985,
                    "velocity": 0.3858267716535433,
                    "duration": 0.3000000000000007
                },
                {
                    "name": "E4",
                    "midi": 64,
                    "time": 26.999999999999986,
                    "velocity": 0.3858267716535433,
                    "duration": 0.3000000000000007
                },
                {
                    "name": "B4",
                    "midi": 71,
                    "time": 27.299999999999986,
                    "velocity": 0.3858267716535433,
                    "duration": 0.3000000000000007
                },
                {
                    "name": "A4",
                    "midi": 69,
                    "time": 27.599999999999987,
                    "velocity": 0.3858267716535433,
                    "duration": 0.6000000000000014
                },
                {
                    "name": "C5",
                    "midi": 72,
                    "time": 28.19999999999999,
                    "velocity": 0.3858267716535433,
                    "duration": 0.4499999999999993
                },
                {
                    "name": "B4",
                    "midi": 71,
                    "time": 28.649999999999988,
                    "velocity": 0.3858267716535433,
                    "duration": 0.07499999999999929
                },
                {
                    "name": "C5",
                    "midi": 72,
                    "time": 28.724999999999987,
                    "velocity": 0.3858267716535433,
                    "duration": 0.07499999999999929
                },
                {
                    "name": "B4",
                    "midi": 71,
                    "time": 28.799999999999986,
                    "velocity": 0.3858267716535433,
                    "duration": 0.6000000000000014
                },
                {
                    "name": "A4",
                    "midi": 69,
                    "time": 29.399999999999988,
                    "velocity": 0.3858267716535433,
                    "duration": 0.6000000000000014
                },
                {
                    "name": "D5",
                    "midi": 74,
                    "time": 29.99999999999999,
                    "velocity": 0.3858267716535433,
                    "duration": 0.5249999999999986
                },
                {
                    "name": "G4",
                    "midi": 67,
                    "time": 30.524999999999988,
                    "velocity": 0.3858267716535433,
                    "duration": 0.07499999999999929
                },
                {
                    "name": "A4",
                    "midi": 69,
                    "time": 30.599999999999987,
                    "velocity": 0.3858267716535433,
                    "duration": 0.6000000000000014
                },
                {
                    "name": "C5",
                    "midi": 72,
                    "time": 31.19999999999999,
                    "velocity": 0.3858267716535433,
                    "duration": 0.3000000000000007
                },
                {
                    "name": "B4",
                    "midi": 71,
                    "time": 31.49999999999999,
                    "velocity": 0.3858267716535433,
                    "duration": 0.07499999999999929
                },
                {
                    "name": "C5",
                    "midi": 72,
                    "time": 31.57499999999999,
                    "velocity": 0.3858267716535433,
                    "duration": 0.07499999999999929
                },
                {
                    "name": "B4",
                    "midi": 71,
                    "time": 31.649999999999988,
                    "velocity": 0.3858267716535433,
                    "duration": 0.3000000000000007
                },
                {
                    "name": "G4",
                    "midi": 67,
                    "time": 31.94999999999999,
                    "velocity": 0.3858267716535433,
                    "duration": 0.29999999999999716
                },
                {
                    "name": "E4",
                    "midi": 64,
                    "time": 32.249999999999986,
                    "velocity": 0.3858267716535433,
                    "duration": 0.29999999999999716
                },
                {
                    "name": "B4",
                    "midi": 71,
                    "time": 32.54999999999998,
                    "velocity": 0.3858267716535433,
                    "duration": 0.29999999999999716
                },
                {
                    "name": "A4",
                    "midi": 69,
                    "time": 32.84999999999998,
                    "velocity": 0.3858267716535433,
                    "duration": 1.2000000000000028
                },
                {
                    "name": "D5",
                    "midi": 74,
                    "time": 43.19999999999999,
                    "velocity": 0.3858267716535433,
                    "duration": 0.5249999999999986
                },
                {
                    "name": "G4",
                    "midi": 67,
                    "time": 43.72499999999999,
                    "velocity": 0.3858267716535433,
                    "duration": 0.07500000000000284
                },
                {
                    "name": "A4",
                    "midi": 69,
                    "time": 43.79999999999999,
                    "velocity": 0.3858267716535433,
                    "duration": 0.6000000000000014
                },
                {
                    "name": "C5",
                    "midi": 72,
                    "time": 44.39999999999999,
                    "velocity": 0.3858267716535433,
                    "duration": 0.29999999999999716
                },
                {
                    "name": "B4",
                    "midi": 71,
                    "time": 44.69999999999999,
                    "velocity": 0.3858267716535433,
                    "duration": 0.07500000000000284
                },
                {
                    "name": "C5",
                    "midi": 72,
                    "time": 44.77499999999999,
                    "velocity": 0.3858267716535433,
                    "duration": 0.07500000000000284
                },
                {
                    "name": "B4",
                    "midi": 71,
                    "time": 44.849999999999994,
                    "velocity": 0.3858267716535433,
                    "duration": 0.29999999999999716
                },
                {
                    "name": "G4",
                    "midi": 67,
                    "time": 45.14999999999999,
                    "velocity": 0.3858267716535433,
                    "duration": 0.29999999999999716
                },
                {
                    "name": "E4",
                    "midi": 64,
                    "time": 45.44999999999999,
                    "velocity": 0.3858267716535433,
                    "duration": 0.29999999999999716
                },
                {
                    "name": "B4",
                    "midi": 71,
                    "time": 45.749999999999986,
                    "velocity": 0.3858267716535433,
                    "duration": 0.29999999999999716
                },
                {
                    "name": "A4",
                    "midi": 69,
                    "time": 46.04999999999998,
                    "velocity": 0.3858267716535433,
                    "duration": 2.5500000000000043
                },
                {
                    "name": "C#4",
                    "midi": 61,
                    "time": 47.999999999999986,
                    "velocity": 0.3858267716535433,
                    "duration": 0.6000000000000014
                },
                {
                    "name": "F#4",
                    "midi": 66,
                    "time": 48.59999999999999,
                    "velocity": 0.3858267716535433,
                    "duration": 0.6000000000000014
                },
                {
                    "name": "A4",
                    "midi": 69,
                    "time": 48.59999999999999,
                    "velocity": 0.3858267716535433,
                    "duration": 0.9975000000000023
                },
                {
                    "name": "D#4",
                    "midi": 63,
                    "time": 49.19999999999999,
                    "velocity": 0.3858267716535433,
                    "duration": 0.39750000000000085
                },
                {
                    "name": "C#4",
                    "midi": 61,
                    "time": 49.59749999999999,
                    "velocity": 0.3858267716535433,
                    "duration": 0.4025000000000034
                },
                {
                    "name": "G#4",
                    "midi": 68,
                    "time": 49.59749999999999,
                    "velocity": 0.3858267716535433,
                    "duration": 0.4025000000000034
                },
                {
                    "name": "D#4",
                    "midi": 63,
                    "time": 49.99999999999999,
                    "velocity": 0.3858267716535433,
                    "duration": 0.3999999999999986
                },
                {
                    "name": "G4",
                    "midi": 67,
                    "time": 49.99999999999999,
                    "velocity": 0.3858267716535433,
                    "duration": 0.3999999999999986
                },
                {
                    "name": "F#4",
                    "midi": 66,
                    "time": 50.39999999999999,
                    "velocity": 0.3858267716535433,
                    "duration": 0.39750000000000085
                },
                {
                    "name": "G4",
                    "midi": 67,
                    "time": 50.79749999999999,
                    "velocity": 0.3858267716535433,
                    "duration": 0.4025000000000034
                },
                {
                    "name": "F#4",
                    "midi": 66,
                    "time": 51.199999999999996,
                    "velocity": 0.3858267716535433,
                    "duration": 0.3999999999999986
                },
                {
                    "name": "D#4",
                    "midi": 63,
                    "time": 51.599999999999994,
                    "velocity": 0.3858267716535433,
                    "duration": 0.39750000000000085
                },
                {
                    "name": "C#4",
                    "midi": 61,
                    "time": 51.997499999999995,
                    "velocity": 0.3858267716535433,
                    "duration": 0.4025000000000034
                },
                {
                    "name": "D#4",
                    "midi": 63,
                    "time": 52.4,
                    "velocity": 0.3858267716535433,
                    "duration": 0.7974999999999994
                },
                {
                    "name": "D#4",
                    "midi": 63,
                    "time": 53.1975,
                    "velocity": 0.3858267716535433,
                    "duration": 0.802500000000002
                },
                {
                    "name": "C4",
                    "midi": 60,
                    "time": 54,
                    "velocity": 0.3858267716535433,
                    "duration": 1.2000000000000028
                },
                {
                    "name": "G#4",
                    "midi": 68,
                    "time": 55.2,
                    "velocity": 0.3858267716535433,
                    "duration": 0.20000000000000284
                },
                {
                    "name": "F#4",
                    "midi": 66,
                    "time": 55.400000000000006,
                    "velocity": 0.3858267716535433,
                    "duration": 0.197499999999998
                },
                {
                    "name": "D#4",
                    "midi": 63,
                    "time": 55.597500000000004,
                    "velocity": 0.3858267716535433,
                    "duration": 0.20250000000000057
                },
                {
                    "name": "F#4",
                    "midi": 66,
                    "time": 55.800000000000004,
                    "velocity": 0.3858267716535433,
                    "duration": 0.20000000000000284
                },
                {
                    "name": "E4",
                    "midi": 64,
                    "time": 56.00000000000001,
                    "velocity": 0.3858267716535433,
                    "duration": 0.197499999999998
                },
                {
                    "name": "C#4",
                    "midi": 61,
                    "time": 56.197500000000005,
                    "velocity": 0.3858267716535433,
                    "duration": 0.20250000000000057
                },
                {
                    "name": "D#4",
                    "midi": 63,
                    "time": 56.400000000000006,
                    "velocity": 0.3858267716535433,
                    "duration": 0.6000000000000014
                },
                {
                    "name": "D#4",
                    "midi": 63,
                    "time": 57.00000000000001,
                    "velocity": 0.3858267716535433,
                    "duration": 1.2000000000000028
                },
                {
                    "name": "F#4",
                    "midi": 66,
                    "time": 58.20000000000001,
                    "velocity": 0.3858267716535433,
                    "duration": 0.20000000000000284
                },
                {
                    "name": "E4",
                    "midi": 64,
                    "time": 58.40000000000001,
                    "velocity": 0.3858267716535433,
                    "duration": 0.197499999999998
                },
                {
                    "name": "C#4",
                    "midi": 61,
                    "time": 58.59750000000001,
                    "velocity": 0.3858267716535433,
                    "duration": 0.20250000000000057
                },
                {
                    "name": "D#4",
                    "midi": 63,
                    "time": 58.80000000000001,
                    "velocity": 0.3858267716535433,
                    "duration": 1.2000000000000028
                },
                {
                    "name": "G#4",
                    "midi": 68,
                    "time": 60.000000000000014,
                    "velocity": 0.3858267716535433,
                    "duration": 0.45000000000000284
                },
                {
                    "name": "F#4",
                    "midi": 66,
                    "time": 60.45000000000002,
                    "velocity": 0.3858267716535433,
                    "duration": 0.07500000000000284
                },
                {
                    "name": "G#4",
                    "midi": 68,
                    "time": 60.52500000000002,
                    "velocity": 0.3858267716535433,
                    "duration": 0.07500000000000284
                },
                {
                    "name": "F#4",
                    "midi": 66,
                    "time": 60.60000000000002,
                    "velocity": 0.3858267716535433,
                    "duration": 0.29999999999999716
                },
                {
                    "name": "D#4",
                    "midi": 63,
                    "time": 60.90000000000002,
                    "velocity": 0.3858267716535433,
                    "duration": 0.29999999999999716
                },
                {
                    "name": "G#4",
                    "midi": 68,
                    "time": 61.20000000000002,
                    "velocity": 0.3858267716535433,
                    "duration": 0.45000000000000284
                },
                {
                    "name": "F#4",
                    "midi": 66,
                    "time": 61.65000000000002,
                    "velocity": 0.3858267716535433,
                    "duration": 0.07500000000000284
                },
                {
                    "name": "G#4",
                    "midi": 68,
                    "time": 61.72500000000002,
                    "velocity": 0.3858267716535433,
                    "duration": 0.07500000000000284
                },
                {
                    "name": "F#4",
                    "midi": 66,
                    "time": 61.800000000000026,
                    "velocity": 0.3858267716535433,
                    "duration": 0.29999999999999716
                },
                {
                    "name": "D#4",
                    "midi": 63,
                    "time": 62.10000000000002,
                    "velocity": 0.3858267716535433,
                    "duration": 0.29999999999999716
                },
                {
                    "name": "G#4",
                    "midi": 68,
                    "time": 62.40000000000002,
                    "velocity": 0.3858267716535433,
                    "duration": 0.20000000000000284
                },
                {
                    "name": "F#4",
                    "midi": 66,
                    "time": 62.60000000000002,
                    "velocity": 0.3858267716535433,
                    "duration": 0.197499999999998
                },
                {
                    "name": "D#4",
                    "midi": 63,
                    "time": 62.79750000000002,
                    "velocity": 0.3858267716535433,
                    "duration": 0.20250000000000057
                },
                {
                    "name": "F#4",
                    "midi": 66,
                    "time": 63.00000000000002,
                    "velocity": 0.3858267716535433,
                    "duration": 0.20000000000000284
                },
                {
                    "name": "E4",
                    "midi": 64,
                    "time": 63.200000000000024,
                    "velocity": 0.3858267716535433,
                    "duration": 0.197499999999998
                },
                {
                    "name": "C#4",
                    "midi": 61,
                    "time": 63.39750000000002,
                    "velocity": 0.3858267716535433,
                    "duration": 0.20250000000000057
                },
                {
                    "name": "G#4",
                    "midi": 68,
                    "time": 63.60000000000002,
                    "velocity": 0.28346456692913385,
                    "duration": 0.14999999999999858
                },
                {
                    "name": "A#4",
                    "midi": 70,
                    "time": 63.75000000000002,
                    "velocity": 0.28346456692913385,
                    "duration": 0.14999999999999858
                },
                {
                    "name": "G#4",
                    "midi": 68,
                    "time": 63.90000000000002,
                    "velocity": 0.28346456692913385,
                    "duration": 0.15000000000000568
                },
                {
                    "name": "A#4",
                    "midi": 70,
                    "time": 64.05000000000003,
                    "velocity": 0.28346456692913385,
                    "duration": 0.15000000000000568
                },
                {
                    "name": "G#4",
                    "midi": 68,
                    "time": 64.20000000000003,
                    "velocity": 0.28346456692913385,
                    "duration": 0.15000000000000568
                },
                {
                    "name": "A#4",
                    "midi": 70,
                    "time": 64.35000000000004,
                    "velocity": 0.28346456692913385,
                    "duration": 0.15000000000000568
                },
                {
                    "name": "G#4",
                    "midi": 68,
                    "time": 64.50000000000004,
                    "velocity": 0.28346456692913385,
                    "duration": 0.15000000000000568
                },
                {
                    "name": "A#4",
                    "midi": 70,
                    "time": 64.65000000000005,
                    "velocity": 0.28346456692913385,
                    "duration": 0.15000000000000568
                },
                {
                    "name": "A#5",
                    "midi": 82,
                    "time": 66.00000000000006,
                    "velocity": 0.6929133858267716,
                    "duration": 1.5974999999999966
                },
                {
                    "name": "A5",
                    "midi": 81,
                    "time": 67.59750000000005,
                    "velocity": 0.4881889763779528,
                    "duration": 0.4025000000000034
                },
                {
                    "name": "G#5",
                    "midi": 80,
                    "time": 68.00000000000006,
                    "velocity": 0.4881889763779528,
                    "duration": 0.4000000000000057
                },
                {
                    "name": "G5",
                    "midi": 79,
                    "time": 68.40000000000006,
                    "velocity": 0.4881889763779528,
                    "duration": 0.39749999999999375
                },
                {
                    "name": "G#5",
                    "midi": 80,
                    "time": 68.79750000000006,
                    "velocity": 0.4881889763779528,
                    "duration": 0.4025000000000034
                },
                {
                    "name": "G5",
                    "midi": 79,
                    "time": 69.20000000000006,
                    "velocity": 0.4881889763779528,
                    "duration": 0.4000000000000057
                },
                {
                    "name": "E5",
                    "midi": 76,
                    "time": 69.60000000000007,
                    "velocity": 0.4881889763779528,
                    "duration": 0.5999999999999943
                },
                {
                    "name": "A#5",
                    "midi": 82,
                    "time": 70.20000000000006,
                    "velocity": 0.4881889763779528,
                    "duration": 0.9975000000000023
                },
                {
                    "name": "A5",
                    "midi": 81,
                    "time": 71.19750000000006,
                    "velocity": 0.4881889763779528,
                    "duration": 0.4025000000000034
                },
                {
                    "name": "G#5",
                    "midi": 80,
                    "time": 71.60000000000007,
                    "velocity": 0.4881889763779528,
                    "duration": 0.4000000000000057
                },
                {
                    "name": "G5",
                    "midi": 79,
                    "time": 72.00000000000007,
                    "velocity": 0.4881889763779528,
                    "duration": 0.39749999999999375
                },
                {
                    "name": "G#5",
                    "midi": 80,
                    "time": 72.39750000000006,
                    "velocity": 0.4881889763779528,
                    "duration": 0.4025000000000034
                },
                {
                    "name": "G5",
                    "midi": 79,
                    "time": 72.80000000000007,
                    "velocity": 0.4881889763779528,
                    "duration": 0.4000000000000057
                },
                {
                    "name": "E5",
                    "midi": 76,
                    "time": 73.20000000000007,
                    "velocity": 0.4881889763779528,
                    "duration": 0.20000000000000284
                },
                {
                    "name": "F#5",
                    "midi": 78,
                    "time": 73.40000000000008,
                    "velocity": 0.4881889763779528,
                    "duration": 0.19750000000000512
                },
                {
                    "name": "A#5",
                    "midi": 82,
                    "time": 73.59750000000008,
                    "velocity": 0.4881889763779528,
                    "duration": 0.20250000000000057
                },
                {
                    "name": "F#5",
                    "midi": 78,
                    "time": 73.80000000000008,
                    "velocity": 0.4881889763779528,
                    "duration": 0.20000000000000284
                },
                {
                    "name": "G#5",
                    "midi": 80,
                    "time": 74.00000000000009,
                    "velocity": 0.4881889763779528,
                    "duration": 0.19750000000000512
                },
                {
                    "name": "F#5",
                    "midi": 78,
                    "time": 74.19750000000009,
                    "velocity": 0.4881889763779528,
                    "duration": 0.20250000000000057
                },
                {
                    "name": "E5",
                    "midi": 76,
                    "time": 74.40000000000009,
                    "velocity": 0.4881889763779528,
                    "duration": 1.4000000000000057
                },
                {
                    "name": "F#5",
                    "midi": 78,
                    "time": 75.8000000000001,
                    "velocity": 0.4881889763779528,
                    "duration": 0.19750000000000512
                },
                {
                    "name": "A#5",
                    "midi": 82,
                    "time": 75.9975000000001,
                    "velocity": 0.4881889763779528,
                    "duration": 0.20250000000000057
                },
                {
                    "name": "F#5",
                    "midi": 78,
                    "time": 76.2000000000001,
                    "velocity": 0.4881889763779528,
                    "duration": 0.20000000000000284
                },
                {
                    "name": "G#5",
                    "midi": 80,
                    "time": 76.4000000000001,
                    "velocity": 0.4881889763779528,
                    "duration": 0.19750000000000512
                },
                {
                    "name": "F#5",
                    "midi": 78,
                    "time": 76.59750000000011,
                    "velocity": 0.4881889763779528,
                    "duration": 0.20250000000000057
                },
                {
                    "name": "E5",
                    "midi": 76,
                    "time": 76.80000000000011,
                    "velocity": 0.4881889763779528,
                    "duration": 0.20000000000000284
                },
                {
                    "name": "F5",
                    "midi": 77,
                    "time": 77.00000000000011,
                    "velocity": 0.4881889763779528,
                    "duration": 0.19750000000000512
                },
                {
                    "name": "A#5",
                    "midi": 82,
                    "time": 77.19750000000012,
                    "velocity": 0.4881889763779528,
                    "duration": 0.20250000000000057
                },
                {
                    "name": "F#5",
                    "midi": 78,
                    "time": 77.40000000000012,
                    "velocity": 0.4881889763779528,
                    "duration": 0.20000000000000284
                },
                {
                    "name": "G#5",
                    "midi": 80,
                    "time": 77.60000000000012,
                    "velocity": 0.4881889763779528,
                    "duration": 0.19750000000000512
                },
                {
                    "name": "G5",
                    "midi": 79,
                    "time": 77.79750000000013,
                    "velocity": 0.4881889763779528,
                    "duration": 0.20250000000000057
                },
                {
                    "name": "F4",
                    "midi": 65,
                    "time": 77.85000000000012,
                    "velocity": 0.4881889763779528,
                    "duration": 1.0500000000000114
                },
                {
                    "name": "E5",
                    "midi": 76,
                    "time": 78.00000000000013,
                    "velocity": 0.4881889763779528,
                    "duration": 0.9000000000000057
                },
                {
                    "name": "F#5",
                    "midi": 78,
                    "time": 78.90000000000013,
                    "velocity": 0.4881889763779528,
                    "duration": 0.15000000000000568
                },
                {
                    "name": "D#6",
                    "midi": 87,
                    "time": 79.05000000000014,
                    "velocity": 0.4881889763779528,
                    "duration": 0.15000000000000568
                },
                {
                    "name": "G#6",
                    "midi": 92,
                    "time": 79.20000000000014,
                    "velocity": 0.4881889763779528,
                    "duration": 0.39749999999999375
                },
                {
                    "name": "C#5",
                    "midi": 73,
                    "time": 79.59750000000014,
                    "velocity": 0.4881889763779528,
                    "duration": 0.4025000000000034
                },
                {
                    "name": "G#5",
                    "midi": 80,
                    "time": 80.00000000000014,
                    "velocity": 0.4881889763779528,
                    "duration": 0.29999999999999716
                },
                {
                    "name": "G#5",
                    "midi": 80,
                    "time": 80.30000000000014,
                    "velocity": 0.4881889763779528,
                    "duration": 0.04749999999999943
                },
                {
                    "name": "E5",
                    "midi": 76,
                    "time": 80.40000000000013,
                    "velocity": 0.4881889763779528,
                    "duration": 0.9000000000000057
                },
                {
                    "name": "F#5",
                    "midi": 78,
                    "time": 81.30000000000014,
                    "velocity": 0.4881889763779528,
                    "duration": 0.09749999999999659
                },
                {
                    "name": "D#6",
                    "midi": 87,
                    "time": 81.39750000000014,
                    "velocity": 0.4881889763779528,
                    "duration": 0.10250000000000625
                },
                {
                    "name": "C#6",
                    "midi": 85,
                    "time": 81.50000000000014,
                    "velocity": 0.4881889763779528,
                    "duration": 0.09999999999999432
                },
                {
                    "name": "G#6",
                    "midi": 92,
                    "time": 81.60000000000014,
                    "velocity": 0.4881889763779528,
                    "duration": 0.39749999999999375
                },
                {
                    "name": "C#5",
                    "midi": 73,
                    "time": 81.99750000000013,
                    "velocity": 0.4881889763779528,
                    "duration": 0.4025000000000034
                },
                {
                    "name": "G#5",
                    "midi": 80,
                    "time": 82.40000000000013,
                    "velocity": 0.4881889763779528,
                    "duration": 0.29999999999999716
                },
                {
                    "name": "G#5",
                    "midi": 80,
                    "time": 82.70000000000013,
                    "velocity": 0.4881889763779528,
                    "duration": 0.04749999999999943
                },
                {
                    "name": "F5",
                    "midi": 77,
                    "time": 82.80000000000013,
                    "velocity": 0.4881889763779528,
                    "duration": 0.39749999999999375
                },
                {
                    "name": "C#5",
                    "midi": 73,
                    "time": 83.19750000000012,
                    "velocity": 0.4881889763779528,
                    "duration": 0.4025000000000034
                },
                {
                    "name": "G#5",
                    "midi": 80,
                    "time": 83.60000000000012,
                    "velocity": 0.4881889763779528,
                    "duration": 0.4000000000000057
                },
                {
                    "name": "F5",
                    "midi": 77,
                    "time": 84.00000000000013,
                    "velocity": 0.4881889763779528,
                    "duration": 0.39749999999999375
                },
                {
                    "name": "C#5",
                    "midi": 73,
                    "time": 84.39750000000012,
                    "velocity": 0.4881889763779528,
                    "duration": 0.4025000000000034
                },
                {
                    "name": "G#5",
                    "midi": 80,
                    "time": 84.80000000000013,
                    "velocity": 0.4881889763779528,
                    "duration": 0.4000000000000057
                },
                {
                    "name": "C#5",
                    "midi": 73,
                    "time": 85.20000000000013,
                    "velocity": 0.4881889763779528,
                    "duration": 2.4000000000000057
                },
                {
                    "name": "G4",
                    "midi": 67,
                    "time": 87.60000000000014,
                    "velocity": 0.4881889763779528,
                    "duration": 0.39749999999999375
                },
                {
                    "name": "A#4",
                    "midi": 70,
                    "time": 87.99750000000013,
                    "velocity": 0.4881889763779528,
                    "duration": 0.4025000000000034
                },
                {
                    "name": "D4",
                    "midi": 62,
                    "time": 88.40000000000013,
                    "velocity": 0.4881889763779528,
                    "duration": 1.5999999999999943
                },
                {
                    "name": "G4",
                    "midi": 67,
                    "time": 88.40000000000013,
                    "velocity": 0.4881889763779528,
                    "duration": 2.1999999999999886
                },
                {
                    "name": "F4",
                    "midi": 65,
                    "time": 90.60000000000012,
                    "velocity": 0.4881889763779528,
                    "duration": 0.5999999999999943
                },
                {
                    "name": "A#4",
                    "midi": 70,
                    "time": 91.20000000000012,
                    "velocity": 0.4881889763779528,
                    "duration": 0.45000000000000284
                },
                {
                    "name": "F4",
                    "midi": 65,
                    "time": 91.65000000000012,
                    "velocity": 0.4881889763779528,
                    "duration": 0.07500000000000284
                },
                {
                    "name": "A#4",
                    "midi": 70,
                    "time": 91.72500000000012,
                    "velocity": 0.4881889763779528,
                    "duration": 0.07500000000000284
                },
                {
                    "name": "G4",
                    "midi": 67,
                    "time": 91.80000000000013,
                    "velocity": 0.4881889763779528,
                    "duration": 0.5999999999999943
                },
                {
                    "name": "F#4",
                    "midi": 66,
                    "time": 93.99750000000012,
                    "velocity": 0.3858267716535433,
                    "duration": 0.4025000000000034
                },
                {
                    "name": "B4",
                    "midi": 71,
                    "time": 93.99750000000012,
                    "velocity": 0.3858267716535433,
                    "duration": 0.4025000000000034
                },
                {
                    "name": "G4",
                    "midi": 67,
                    "time": 94.40000000000012,
                    "velocity": 0.3858267716535433,
                    "duration": 0.4000000000000057
                },
                {
                    "name": "C5",
                    "midi": 72,
                    "time": 94.40000000000012,
                    "velocity": 0.3858267716535433,
                    "duration": 0.4000000000000057
                },
                {
                    "name": "F4",
                    "midi": 65,
                    "time": 94.80000000000013,
                    "velocity": 0.3858267716535433,
                    "duration": 0.39749999999999375
                },
                {
                    "name": "A4",
                    "midi": 69,
                    "time": 94.80000000000013,
                    "velocity": 0.3858267716535433,
                    "duration": 0.39749999999999375
                },
                {
                    "name": "G4",
                    "midi": 67,
                    "time": 95.19750000000012,
                    "velocity": 0.3858267716535433,
                    "duration": 0.4025000000000034
                },
                {
                    "name": "C5",
                    "midi": 72,
                    "time": 95.19750000000012,
                    "velocity": 0.3858267716535433,
                    "duration": 0.4025000000000034
                },
                {
                    "name": "F#4",
                    "midi": 66,
                    "time": 95.60000000000012,
                    "velocity": 0.3858267716535433,
                    "duration": 0.4000000000000057
                },
                {
                    "name": "B4",
                    "midi": 71,
                    "time": 95.60000000000012,
                    "velocity": 0.3858267716535433,
                    "duration": 0.4000000000000057
                },
                {
                    "name": "A4",
                    "midi": 69,
                    "time": 96.00000000000013,
                    "velocity": 0.3858267716535433,
                    "duration": 0.39749999999999375
                },
                {
                    "name": "D5",
                    "midi": 74,
                    "time": 96.00000000000013,
                    "velocity": 0.3858267716535433,
                    "duration": 0.39749999999999375
                },
                {
                    "name": "F#4",
                    "midi": 66,
                    "time": 96.39750000000012,
                    "velocity": 0.3858267716535433,
                    "duration": 0.4025000000000034
                },
                {
                    "name": "B4",
                    "midi": 71,
                    "time": 96.39750000000012,
                    "velocity": 0.3858267716535433,
                    "duration": 0.4025000000000034
                },
                {
                    "name": "G4",
                    "midi": 67,
                    "time": 96.80000000000013,
                    "velocity": 0.3858267716535433,
                    "duration": 0.4000000000000057
                },
                {
                    "name": "C5",
                    "midi": 72,
                    "time": 96.80000000000013,
                    "velocity": 0.3858267716535433,
                    "duration": 0.4000000000000057
                },
                {
                    "name": "F4",
                    "midi": 65,
                    "time": 97.20000000000013,
                    "velocity": 0.3858267716535433,
                    "duration": 0.39749999999999375
                },
                {
                    "name": "A4",
                    "midi": 69,
                    "time": 97.20000000000013,
                    "velocity": 0.3858267716535433,
                    "duration": 0.39749999999999375
                },
                {
                    "name": "G4",
                    "midi": 67,
                    "time": 97.59750000000012,
                    "velocity": 0.3858267716535433,
                    "duration": 0.4025000000000034
                },
                {
                    "name": "C5",
                    "midi": 72,
                    "time": 97.59750000000012,
                    "velocity": 0.3858267716535433,
                    "duration": 0.4025000000000034
                },
                {
                    "name": "F#4",
                    "midi": 66,
                    "time": 98.00000000000013,
                    "velocity": 0.3858267716535433,
                    "duration": 0.4000000000000057
                },
                {
                    "name": "B4",
                    "midi": 71,
                    "time": 98.00000000000013,
                    "velocity": 0.3858267716535433,
                    "duration": 0.4000000000000057
                },
                {
                    "name": "A4",
                    "midi": 69,
                    "time": 98.40000000000013,
                    "velocity": 0.3858267716535433,
                    "duration": 0.39749999999999375
                },
                {
                    "name": "D5",
                    "midi": 74,
                    "time": 98.40000000000013,
                    "velocity": 0.3858267716535433,
                    "duration": 0.39749999999999375
                },
                {
                    "name": "F#4",
                    "midi": 66,
                    "time": 98.79750000000013,
                    "velocity": 0.3858267716535433,
                    "duration": 0.4025000000000034
                },
                {
                    "name": "B4",
                    "midi": 71,
                    "time": 98.79750000000013,
                    "velocity": 0.3858267716535433,
                    "duration": 0.4025000000000034
                },
                {
                    "name": "G4",
                    "midi": 67,
                    "time": 99.20000000000013,
                    "velocity": 0.3858267716535433,
                    "duration": 0.4000000000000057
                },
                {
                    "name": "C5",
                    "midi": 72,
                    "time": 99.20000000000013,
                    "velocity": 0.3858267716535433,
                    "duration": 0.4000000000000057
                },
                {
                    "name": "F4",
                    "midi": 65,
                    "time": 99.60000000000014,
                    "velocity": 0.3858267716535433,
                    "duration": 0.5250000000000057
                },
                {
                    "name": "A4",
                    "midi": 69,
                    "time": 99.60000000000014,
                    "velocity": 0.3858267716535433,
                    "duration": 0.5250000000000057
                },
                {
                    "name": "A4",
                    "midi": 69,
                    "time": 100.12500000000014,
                    "velocity": 0.3858267716535433,
                    "duration": 0.07500000000000284
                },
                {
                    "name": "G4",
                    "midi": 67,
                    "time": 100.20000000000014,
                    "velocity": 0.3858267716535433,
                    "duration": 0.5999999999999943
                },
                {
                    "name": "C5",
                    "midi": 72,
                    "time": 100.20000000000014,
                    "velocity": 0.3858267716535433,
                    "duration": 0.5999999999999943
                },
                {
                    "name": "A4",
                    "midi": 69,
                    "time": 100.80000000000014,
                    "velocity": 0.28346456692913385,
                    "duration": 0.15000000000000568
                },
                {
                    "name": "B4",
                    "midi": 71,
                    "time": 100.95000000000014,
                    "velocity": 0.28346456692913385,
                    "duration": 0.15000000000000568
                },
                {
                    "name": "A4",
                    "midi": 69,
                    "time": 101.10000000000015,
                    "velocity": 0.28346456692913385,
                    "duration": 0.15000000000000568
                },
                {
                    "name": "B4",
                    "midi": 71,
                    "time": 101.25000000000016,
                    "velocity": 0.28346456692913385,
                    "duration": 0.15000000000000568
                },
                {
                    "name": "A4",
                    "midi": 69,
                    "time": 101.40000000000016,
                    "velocity": 0.28346456692913385,
                    "duration": 0.15000000000000568
                },
                {
                    "name": "B4",
                    "midi": 71,
                    "time": 101.55000000000017,
                    "velocity": 0.28346456692913385,
                    "duration": 0.15000000000000568
                },
                {
                    "name": "A4",
                    "midi": 69,
                    "time": 101.70000000000017,
                    "velocity": 0.28346456692913385,
                    "duration": 0.15000000000000568
                },
                {
                    "name": "B4",
                    "midi": 71,
                    "time": 101.85000000000018,
                    "velocity": 0.28346456692913385,
                    "duration": 0.15000000000000568
                },
                {
                    "name": "A4",
                    "midi": 69,
                    "time": 102.00000000000018,
                    "velocity": 0.3858267716535433,
                    "duration": 0.39749999999999375
                },
                {
                    "name": "D5",
                    "midi": 74,
                    "time": 102.39750000000018,
                    "velocity": 0.3858267716535433,
                    "duration": 0.4025000000000034
                },
                {
                    "name": "C5",
                    "midi": 72,
                    "time": 102.80000000000018,
                    "velocity": 0.3858267716535433,
                    "duration": 0.4000000000000057
                },
                {
                    "name": "A4",
                    "midi": 69,
                    "time": 103.20000000000019,
                    "velocity": 0.3858267716535433,
                    "duration": 0.5999999999999943
                },
                {
                    "name": "C5",
                    "midi": 72,
                    "time": 103.80000000000018,
                    "velocity": 0.3858267716535433,
                    "duration": 0.5999999999999943
                },
                {
                    "name": "B4",
                    "midi": 71,
                    "time": 104.40000000000018,
                    "velocity": 0.3858267716535433,
                    "duration": 0.5999999999999943
                },
                {
                    "name": "D5",
                    "midi": 74,
                    "time": 105.00000000000017,
                    "velocity": 0.3858267716535433,
                    "duration": 0.5999999999999943
                },
                {
                    "name": "B4",
                    "midi": 71,
                    "time": 105.60000000000016,
                    "velocity": 0.3858267716535433,
                    "duration": 0.5999999999999943
                },
                {
                    "name": "C5",
                    "midi": 72,
                    "time": 106.20000000000016,
                    "velocity": 0.3858267716535433,
                    "duration": 0.5999999999999943
                },
                {
                    "name": "A4",
                    "midi": 69,
                    "time": 106.80000000000015,
                    "velocity": 0.3858267716535433,
                    "duration": 0.5999999999999943
                },
                {
                    "name": "C5",
                    "midi": 72,
                    "time": 107.40000000000015,
                    "velocity": 0.3858267716535433,
                    "duration": 0.5999999999999943
                },
                {
                    "name": "A4",
                    "midi": 69,
                    "time": 108.00000000000014,
                    "velocity": 0.3858267716535433,
                    "duration": 1.2000000000000028
                },
                {
                    "name": "A4",
                    "midi": 69,
                    "time": 109.20000000000014,
                    "velocity": 0.28346456692913385,
                    "duration": 0.15000000000000568
                },
                {
                    "name": "B4",
                    "midi": 71,
                    "time": 109.35000000000015,
                    "velocity": 0.28346456692913385,
                    "duration": 0.15000000000000568
                },
                {
                    "name": "A4",
                    "midi": 69,
                    "time": 109.50000000000016,
                    "velocity": 0.28346456692913385,
                    "duration": 0.15000000000000568
                },
                {
                    "name": "B4",
                    "midi": 71,
                    "time": 109.65000000000016,
                    "velocity": 0.28346456692913385,
                    "duration": 0.15000000000000568
                },
                {
                    "name": "A4",
                    "midi": 69,
                    "time": 109.80000000000017,
                    "velocity": 0.28346456692913385,
                    "duration": 0.15000000000000568
                },
                {
                    "name": "B4",
                    "midi": 71,
                    "time": 109.95000000000017,
                    "velocity": 0.28346456692913385,
                    "duration": 0.15000000000000568
                },
                {
                    "name": "A4",
                    "midi": 69,
                    "time": 110.10000000000018,
                    "velocity": 0.28346456692913385,
                    "duration": 0.15000000000000568
                },
                {
                    "name": "B4",
                    "midi": 71,
                    "time": 110.25000000000018,
                    "velocity": 0.28346456692913385,
                    "duration": 0.15000000000000568
                },
                {
                    "name": "A4",
                    "midi": 69,
                    "time": 110.40000000000019,
                    "velocity": 0.4881889763779528,
                    "duration": 0.13249999999999318
                },
                {
                    "name": "C#5",
                    "midi": 73,
                    "time": 110.53250000000018,
                    "velocity": 0.4881889763779528,
                    "duration": 0.13249999999999318
                },
                {
                    "name": "E5",
                    "midi": 76,
                    "time": 110.66500000000018,
                    "velocity": 0.4881889763779528,
                    "duration": 0.13249999999999318
                },
                {
                    "name": "D#5",
                    "midi": 75,
                    "time": 110.79750000000017,
                    "velocity": 0.4881889763779528,
                    "duration": 0.13500000000000512
                },
                {
                    "name": "G#5",
                    "midi": 80,
                    "time": 110.93250000000018,
                    "velocity": 0.4881889763779528,
                    "duration": 0.13249999999999318
                },
                {
                    "name": "C5",
                    "midi": 72,
                    "time": 111.06500000000017,
                    "velocity": 0.4881889763779528,
                    "duration": 0.13500000000000512
                },
                {
                    "name": "G5",
                    "midi": 79,
                    "time": 111.20000000000017,
                    "velocity": 0.4881889763779528,
                    "duration": 0.13249999999999318
                },
                {
                    "name": "C6",
                    "midi": 84,
                    "time": 111.33250000000017,
                    "velocity": 0.4881889763779528,
                    "duration": 0.1325000000000074
                },
                {
                    "name": "F#4",
                    "midi": 66,
                    "time": 111.45000000000017,
                    "velocity": 0.4881889763779528,
                    "duration": 1.3500000000000085
                },
                {
                    "name": "A#5",
                    "midi": 82,
                    "time": 111.46500000000017,
                    "velocity": 0.4881889763779528,
                    "duration": 0.13500000000000512
                },
                {
                    "name": "F5",
                    "midi": 77,
                    "time": 111.60000000000018,
                    "velocity": 0.4881889763779528,
                    "duration": 1.2000000000000028
                },
                {
                    "name": "F5",
                    "midi": 77,
                    "time": 112.80000000000018,
                    "velocity": 0.6929133858267716,
                    "duration": 1.5974999999999966
                },
                {
                    "name": "E5",
                    "midi": 76,
                    "time": 114.39750000000018,
                    "velocity": 0.4881889763779528,
                    "duration": 0.4025000000000034
                },
                {
                    "name": "D#5",
                    "midi": 75,
                    "time": 114.80000000000018,
                    "velocity": 0.4881889763779528,
                    "duration": 0.4000000000000057
                },
                {
                    "name": "D5",
                    "midi": 74,
                    "time": 115.20000000000019,
                    "velocity": 0.4881889763779528,
                    "duration": 0.39749999999999375
                },
                {
                    "name": "D#5",
                    "midi": 75,
                    "time": 115.59750000000018,
                    "velocity": 0.4881889763779528,
                    "duration": 0.4025000000000034
                },
                {
                    "name": "D5",
                    "midi": 74,
                    "time": 116.00000000000018,
                    "velocity": 0.4881889763779528,
                    "duration": 0.4000000000000057
                },
                {
                    "name": "F5",
                    "midi": 77,
                    "time": 116.40000000000019,
                    "velocity": 0.4881889763779528,
                    "duration": 0.39749999999999375
                },
                {
                    "name": "E5",
                    "midi": 76,
                    "time": 116.79750000000018,
                    "velocity": 0.4881889763779528,
                    "duration": 0.4025000000000034
                },
                {
                    "name": "D#5",
                    "midi": 75,
                    "time": 117.20000000000019,
                    "velocity": 0.4881889763779528,
                    "duration": 0.4000000000000057
                },
                {
                    "name": "D5",
                    "midi": 74,
                    "time": 117.6000000000002,
                    "velocity": 0.4881889763779528,
                    "duration": 0.39749999999999375
                },
                {
                    "name": "D#5",
                    "midi": 75,
                    "time": 117.99750000000019,
                    "velocity": 0.4881889763779528,
                    "duration": 0.4025000000000034
                },
                {
                    "name": "D5",
                    "midi": 74,
                    "time": 118.40000000000019,
                    "velocity": 0.4881889763779528,
                    "duration": 0.4000000000000057
                },
                {
                    "name": "F4",
                    "midi": 65,
                    "time": 118.8000000000002,
                    "velocity": 0.4881889763779528,
                    "duration": 0.5999999999999943
                },
                {
                    "name": "A#4",
                    "midi": 70,
                    "time": 119.40000000000019,
                    "velocity": 0.4881889763779528,
                    "duration": 0.45000000000000284
                },
                {
                    "name": "F4",
                    "midi": 65,
                    "time": 119.8500000000002,
                    "velocity": 0.4881889763779528,
                    "duration": 0.07500000000000284
                },
                {
                    "name": "A#4",
                    "midi": 70,
                    "time": 119.9250000000002,
                    "velocity": 0.4881889763779528,
                    "duration": 0.07500000000000284
                },
                {
                    "name": "G4",
                    "midi": 67,
                    "time": 120.0000000000002,
                    "velocity": 0.4881889763779528,
                    "duration": 1.2000000000000028
                },
                {
                    "name": "F#4",
                    "midi": 66,
                    "time": 121.2000000000002,
                    "velocity": 0.4881889763779528,
                    "duration": 0.39749999999999375
                },
                {
                    "name": "A#4",
                    "midi": 70,
                    "time": 121.2000000000002,
                    "velocity": 0.4881889763779528,
                    "duration": 0.39749999999999375
                },
                {
                    "name": "F5",
                    "midi": 77,
                    "time": 121.2000000000002,
                    "velocity": 0.4881889763779528,
                    "duration": 0.39749999999999375
                },
                {
                    "name": "E5",
                    "midi": 76,
                    "time": 121.5975000000002,
                    "velocity": 0.4881889763779528,
                    "duration": 0.4025000000000034
                },
                {
                    "name": "D#5",
                    "midi": 75,
                    "time": 122.0000000000002,
                    "velocity": 0.4881889763779528,
                    "duration": 0.4000000000000057
                },
                {
                    "name": "D5",
                    "midi": 74,
                    "time": 122.4000000000002,
                    "velocity": 0.4881889763779528,
                    "duration": 0.39749999999999375
                },
                {
                    "name": "D#5",
                    "midi": 75,
                    "time": 122.7975000000002,
                    "velocity": 0.4881889763779528,
                    "duration": 0.4025000000000034
                },
                {
                    "name": "D5",
                    "midi": 74,
                    "time": 123.2000000000002,
                    "velocity": 0.4881889763779528,
                    "duration": 0.4000000000000057
                },
                {
                    "name": "D#5",
                    "midi": 75,
                    "time": 123.2000000000002,
                    "velocity": 0.4881889763779528,
                    "duration": 0.4000000000000057
                },
                {
                    "name": "G#5",
                    "midi": 80,
                    "time": 123.2000000000002,
                    "velocity": 0.4881889763779528,
                    "duration": 0.4000000000000057
                },
                {
                    "name": "D#6",
                    "midi": 87,
                    "time": 123.2000000000002,
                    "velocity": 0.4881889763779528,
                    "duration": 0.4000000000000057
                },
                {
                    "name": "F4",
                    "midi": 65,
                    "time": 123.60000000000021,
                    "velocity": 0.4881889763779528,
                    "duration": 0.5999999999999943
                },
                {
                    "name": "A#4",
                    "midi": 70,
                    "time": 124.2000000000002,
                    "velocity": 0.4881889763779528,
                    "duration": 0.45000000000000284
                },
                {
                    "name": "F4",
                    "midi": 65,
                    "time": 124.6500000000002,
                    "velocity": 0.4881889763779528,
                    "duration": 0.07500000000000284
                },
                {
                    "name": "A#4",
                    "midi": 70,
                    "time": 124.72500000000021,
                    "velocity": 0.4881889763779528,
                    "duration": 0.07500000000000284
                },
                {
                    "name": "G4",
                    "midi": 67,
                    "time": 124.80000000000021,
                    "velocity": 0.4881889763779528,
                    "duration": 1.2000000000000028
                },
                {
                    "name": "F4",
                    "midi": 65,
                    "time": 126.00000000000021,
                    "velocity": 0.4881889763779528,
                    "duration": 0.5999999999999943
                },
                {
                    "name": "A#4",
                    "midi": 70,
                    "time": 126.60000000000021,
                    "velocity": 0.4881889763779528,
                    "duration": 0.45000000000000284
                },
                {
                    "name": "F4",
                    "midi": 65,
                    "time": 127.05000000000021,
                    "velocity": 0.4881889763779528,
                    "duration": 0.07500000000000284
                },
                {
                    "name": "A#4",
                    "midi": 70,
                    "time": 127.12500000000021,
                    "velocity": 0.4881889763779528,
                    "duration": 0.07500000000000284
                },
                {
                    "name": "G4",
                    "midi": 67,
                    "time": 127.20000000000022,
                    "velocity": 0.4881889763779528,
                    "duration": 1.200000000000017
                },
                {
                    "name": "D4",
                    "midi": 62,
                    "time": 128.25000000000023,
                    "velocity": 0.4881889763779528,
                    "duration": 1.3499999999999943
                },
                {
                    "name": "E5",
                    "midi": 76,
                    "time": 128.40000000000023,
                    "velocity": 0.4881889763779528,
                    "duration": 1.5974999999999966
                },
                {
                    "name": "D#5",
                    "midi": 75,
                    "time": 129.99750000000023,
                    "velocity": 0.4881889763779528,
                    "duration": 0.30000000000001137
                },
                {
                    "name": "E5",
                    "midi": 76,
                    "time": 130.29750000000024,
                    "velocity": 0.4881889763779528,
                    "duration": 0.10249999999999204
                },
                {
                    "name": "D5",
                    "midi": 74,
                    "time": 130.40000000000023,
                    "velocity": 0.4881889763779528,
                    "duration": 0.4000000000000057
                },
                {
                    "name": "C#5",
                    "midi": 73,
                    "time": 130.80000000000024,
                    "velocity": 0.4881889763779528,
                    "duration": 0.30000000000001137
                },
                {
                    "name": "E5",
                    "midi": 76,
                    "time": 131.10000000000025,
                    "velocity": 0.4881889763779528,
                    "duration": 0.09749999999999659
                },
                {
                    "name": "D5",
                    "midi": 74,
                    "time": 131.19750000000025,
                    "velocity": 0.4881889763779528,
                    "duration": 0.4025000000000034
                },
                {
                    "name": "C#5",
                    "midi": 73,
                    "time": 131.60000000000025,
                    "velocity": 0.4881889763779528,
                    "duration": 0.4000000000000057
                },
                {
                    "name": "A4",
                    "midi": 69,
                    "time": 131.85000000000025,
                    "velocity": 0.4881889763779528,
                    "duration": 0.15000000000000568
                },
                {
                    "name": "A#4",
                    "midi": 70,
                    "time": 132.00000000000026,
                    "velocity": 0.6929133858267716,
                    "duration": 1.1999999999999886
                },
                {
                    "name": "D6",
                    "midi": 86,
                    "time": 133.20000000000024,
                    "velocity": 0.4881889763779528,
                    "duration": 1.1999999999999886
                },
                {
                    "name": "C#6",
                    "midi": 85,
                    "time": 134.40000000000023,
                    "velocity": 0.4881889763779528,
                    "duration": 0.5250000000000057
                },
                {
                    "name": "D6",
                    "midi": 86,
                    "time": 134.92500000000024,
                    "velocity": 0.4881889763779528,
                    "duration": 0.07499999999998863
                },
                {
                    "name": "C#5",
                    "midi": 73,
                    "time": 135.00000000000023,
                    "velocity": 0.4881889763779528,
                    "duration": 0.5999999999999943
                },
                {
                    "name": "C#5",
                    "midi": 73,
                    "time": 135.60000000000022,
                    "velocity": 0.4881889763779528,
                    "duration": 0.30000000000001137
                },
                {
                    "name": "E5",
                    "midi": 76,
                    "time": 135.90000000000023,
                    "velocity": 0.4881889763779528,
                    "duration": 0.09749999999999659
                },
                {
                    "name": "D5",
                    "midi": 74,
                    "time": 135.99750000000023,
                    "velocity": 0.4881889763779528,
                    "duration": 0.4025000000000034
                },
                {
                    "name": "C#5",
                    "midi": 73,
                    "time": 136.40000000000023,
                    "velocity": 0.4881889763779528,
                    "duration": 0.4000000000000057
                },
                {
                    "name": "A#4",
                    "midi": 70,
                    "time": 136.80000000000024,
                    "velocity": 0.4881889763779528,
                    "duration": 1.1999999999999886
                },
                {
                    "name": "D6",
                    "midi": 86,
                    "time": 138.00000000000023,
                    "velocity": 0.4881889763779528,
                    "duration": 1.1999999999999886
                },
                {
                    "name": "C#6",
                    "midi": 85,
                    "time": 139.20000000000022,
                    "velocity": 0.4881889763779528,
                    "duration": 0.5999999999999943
                },
                {
                    "name": "C#5",
                    "midi": 73,
                    "time": 139.8000000000002,
                    "velocity": 0.4881889763779528,
                    "duration": 0.5999999999999943
                },
                {
                    "name": "C#5",
                    "midi": 73,
                    "time": 140.4000000000002,
                    "velocity": 0.4881889763779528,
                    "duration": 0.30000000000001137
                },
                {
                    "name": "E5",
                    "midi": 76,
                    "time": 140.70000000000022,
                    "velocity": 0.4881889763779528,
                    "duration": 0.09749999999999659
                },
                {
                    "name": "D5",
                    "midi": 74,
                    "time": 140.7975000000002,
                    "velocity": 0.4881889763779528,
                    "duration": 0.4025000000000034
                },
                {
                    "name": "C#5",
                    "midi": 73,
                    "time": 141.20000000000022,
                    "velocity": 0.4881889763779528,
                    "duration": 0.4000000000000057
                },
                {
                    "name": "G#4",
                    "midi": 68,
                    "time": 141.60000000000022,
                    "velocity": 0.4881889763779528,
                    "duration": 0.5999999999999943
                },
                {
                    "name": "G#4",
                    "midi": 68,
                    "time": 142.0500000000002,
                    "velocity": 0.4881889763779528,
                    "duration": 0.75
                },
                {
                    "name": "A#5",
                    "midi": 82,
                    "time": 142.20000000000022,
                    "velocity": 0.4881889763779528,
                    "duration": 0.5999999999999943
                },
                {
                    "name": "F5",
                    "midi": 77,
                    "time": 142.8000000000002,
                    "velocity": 0.6929133858267716,
                    "duration": 0.5999999999999943
                },
                {
                    "name": "C5",
                    "midi": 72,
                    "time": 143.4000000000002,
                    "velocity": 0.6929133858267716,
                    "duration": 0.8400000000000034
                },
                {
                    "name": "F4",
                    "midi": 65,
                    "time": 144.2400000000002,
                    "velocity": 0.4881889763779528,
                    "duration": 0.2400000000000091
                },
                {
                    "name": "A#4",
                    "midi": 70,
                    "time": 144.48000000000022,
                    "velocity": 0.4881889763779528,
                    "duration": 0.23750000000001137
                },
                {
                    "name": "D#5",
                    "midi": 75,
                    "time": 144.71750000000023,
                    "velocity": 0.4881889763779528,
                    "duration": 0.2400000000000091
                },
                {
                    "name": "F5",
                    "midi": 77,
                    "time": 144.95750000000024,
                    "velocity": 0.4881889763779528,
                    "duration": 0.24250000000000682
                },
                {
                    "name": "C5",
                    "midi": 72,
                    "time": 145.20000000000024,
                    "velocity": 0.4881889763779528,
                    "duration": 1.4000000000000057
                },
                {
                    "name": "F4",
                    "midi": 65,
                    "time": 146.60000000000025,
                    "velocity": 0.4881889763779528,
                    "duration": 0.1974999999999909
                },
                {
                    "name": "A#4",
                    "midi": 70,
                    "time": 146.79750000000024,
                    "velocity": 0.4881889763779528,
                    "duration": 0.20249999999998636
                },
                {
                    "name": "D#5",
                    "midi": 75,
                    "time": 147.00000000000023,
                    "velocity": 0.4881889763779528,
                    "duration": 0.19999999999998863
                },
                {
                    "name": "F5",
                    "midi": 77,
                    "time": 147.20000000000022,
                    "velocity": 0.4881889763779528,
                    "duration": 0.1974999999999909
                },
                {
                    "name": "C5",
                    "midi": 72,
                    "time": 147.3975000000002,
                    "velocity": 0.4881889763779528,
                    "duration": 0.20249999999998636
                },
                {
                    "name": "F5",
                    "midi": 77,
                    "time": 147.6000000000002,
                    "velocity": 0.6929133858267716,
                    "duration": 0.44999999999998863
                },
                {
                    "name": "D#5",
                    "midi": 75,
                    "time": 148.05000000000018,
                    "velocity": 0.4881889763779528,
                    "duration": 0.15000000000000568
                },
                {
                    "name": "F5",
                    "midi": 77,
                    "time": 148.2000000000002,
                    "velocity": 0.4881889763779528,
                    "duration": 0.15000000000000568
                },
                {
                    "name": "D#5",
                    "midi": 75,
                    "time": 148.3500000000002,
                    "velocity": 0.4881889763779528,
                    "duration": 0.15000000000000568
                },
                {
                    "name": "F5",
                    "midi": 77,
                    "time": 148.5000000000002,
                    "velocity": 0.4881889763779528,
                    "duration": 0.15000000000000568
                },
                {
                    "name": "D#5",
                    "midi": 75,
                    "time": 148.6500000000002,
                    "velocity": 0.4881889763779528,
                    "duration": 0.15000000000000568
                },
                {
                    "name": "F5",
                    "midi": 77,
                    "time": 148.8000000000002,
                    "velocity": 0.7952755905511811,
                    "duration": 0.5999999999999943
                },
                {
                    "name": "A#5",
                    "midi": 82,
                    "time": 149.4000000000002,
                    "velocity": 0.7952755905511811,
                    "duration": 0.5999999999999943
                },
                {
                    "name": "F6",
                    "midi": 89,
                    "time": 150.0000000000002,
                    "velocity": 0.7952755905511811,
                    "duration": 0.30000000000001137
                },
                {
                    "name": "D#6",
                    "midi": 87,
                    "time": 150.3000000000002,
                    "velocity": 0.5905511811023622,
                    "duration": 1.5
                },
                {
                    "name": "F6",
                    "midi": 89,
                    "time": 151.8000000000002,
                    "velocity": 0.6929133858267716,
                    "duration": 0.11750000000000682
                },
                {
                    "name": "C6",
                    "midi": 84,
                    "time": 151.91750000000022,
                    "velocity": 0.6929133858267716,
                    "duration": 0.12250000000000227
                },
                {
                    "name": "D#6",
                    "midi": 87,
                    "time": 152.04000000000022,
                    "velocity": 0.6929133858267716,
                    "duration": 0.11750000000000682
                },
                {
                    "name": "A#5",
                    "midi": 82,
                    "time": 152.15750000000023,
                    "velocity": 0.6929133858267716,
                    "duration": 0.12250000000000227
                },
                {
                    "name": "F5",
                    "midi": 77,
                    "time": 152.28000000000023,
                    "velocity": 0.6929133858267716,
                    "duration": 0.7199999999999989
                },
                {
                    "name": "A#5",
                    "midi": 82,
                    "time": 153.00000000000023,
                    "velocity": 0.8976377952755905,
                    "duration": 0.5999999999999943
                },
                {
                    "name": "F6",
                    "midi": 89,
                    "time": 153.60000000000022,
                    "velocity": 0.8976377952755905,
                    "duration": 0.30000000000001137
                },
                {
                    "name": "D#6",
                    "midi": 87,
                    "time": 153.90000000000023,
                    "velocity": 0.6929133858267716,
                    "duration": 0.9000000000000057
                },
                {
                    "name": "F6",
                    "midi": 89,
                    "time": 154.80000000000024,
                    "velocity": 0.6929133858267716,
                    "duration": 0.1699999999999875
                },
                {
                    "name": "F5",
                    "midi": 77,
                    "time": 154.97000000000023,
                    "velocity": 0.6929133858267716,
                    "duration": 0.17250000000001364
                },
                {
                    "name": "A#5",
                    "midi": 82,
                    "time": 155.14250000000024,
                    "velocity": 0.6929133858267716,
                    "duration": 0.1699999999999875
                },
                {
                    "name": "C6",
                    "midi": 84,
                    "time": 155.31250000000023,
                    "velocity": 0.6929133858267716,
                    "duration": 0.17250000000001364
                },
                {
                    "name": "D#6",
                    "midi": 87,
                    "time": 155.48500000000024,
                    "velocity": 0.6929133858267716,
                    "duration": 0.1699999999999875
                },
                {
                    "name": "A6",
                    "midi": 93,
                    "time": 155.65500000000023,
                    "velocity": 0.6929133858267716,
                    "duration": 0.17250000000001364
                },
                {
                    "name": "A#6",
                    "midi": 94,
                    "time": 155.82750000000024,
                    "velocity": 0.6929133858267716,
                    "duration": 0.17250000000001364
                },
                {
                    "name": "F7",
                    "midi": 101,
                    "time": 156.00000000000026,
                    "velocity": 0.6929133858267716,
                    "duration": 0.11750000000000682
                },
                {
                    "name": "C7",
                    "midi": 96,
                    "time": 156.11750000000026,
                    "velocity": 0.6929133858267716,
                    "duration": 0.12250000000000227
                },
                {
                    "name": "D#7",
                    "midi": 99,
                    "time": 156.24000000000026,
                    "velocity": 0.6929133858267716,
                    "duration": 0.11750000000000682
                },
                {
                    "name": "A#6",
                    "midi": 94,
                    "time": 156.35750000000027,
                    "velocity": 0.6929133858267716,
                    "duration": 0.12250000000000227
                },
                {
                    "name": "F6",
                    "midi": 89,
                    "time": 156.48000000000027,
                    "velocity": 0.6929133858267716,
                    "duration": 0.12000000000000455
                },
                {
                    "name": "F6",
                    "midi": 89,
                    "time": 156.60000000000028,
                    "velocity": 0.6929133858267716,
                    "duration": 0.15000000000000568
                },
                {
                    "name": "C6",
                    "midi": 84,
                    "time": 156.75000000000028,
                    "velocity": 0.6929133858267716,
                    "duration": 0.15000000000000568
                },
                {
                    "name": "D#6",
                    "midi": 87,
                    "time": 156.9000000000003,
                    "velocity": 0.6929133858267716,
                    "duration": 0.15000000000000568
                },
                {
                    "name": "A#5",
                    "midi": 82,
                    "time": 157.0500000000003,
                    "velocity": 0.6929133858267716,
                    "duration": 0.15000000000000568
                },
                {
                    "name": "F5",
                    "midi": 77,
                    "time": 157.2000000000003,
                    "velocity": 0.6929133858267716,
                    "duration": 0.15000000000000568
                },
                {
                    "name": "G5",
                    "midi": 79,
                    "time": 157.3500000000003,
                    "velocity": 0.6929133858267716,
                    "duration": 0.15000000000000568
                },
                {
                    "name": "F5",
                    "midi": 77,
                    "time": 157.5000000000003,
                    "velocity": 0.6929133858267716,
                    "duration": 0.15000000000000568
                },
                {
                    "name": "G5",
                    "midi": 79,
                    "time": 157.65000000000032,
                    "velocity": 0.6929133858267716,
                    "duration": 0.15000000000000568
                },
                {
                    "name": "F5",
                    "midi": 77,
                    "time": 157.80000000000032,
                    "velocity": 0.6929133858267716,
                    "duration": 0.07499999999998863
                },
                {
                    "name": "F#5",
                    "midi": 78,
                    "time": 157.8750000000003,
                    "velocity": 0.6929133858267716,
                    "duration": 0.07499999999998863
                },
                {
                    "name": "G5",
                    "midi": 79,
                    "time": 157.9500000000003,
                    "velocity": 0.6929133858267716,
                    "duration": 0.07499999999998863
                },
                {
                    "name": "A5",
                    "midi": 81,
                    "time": 158.0250000000003,
                    "velocity": 0.6929133858267716,
                    "duration": 0.07499999999998863
                },
                {
                    "name": "A#5",
                    "midi": 82,
                    "time": 158.10000000000028,
                    "velocity": 0.6929133858267716,
                    "duration": 0.07499999999998863
                },
                {
                    "name": "C6",
                    "midi": 84,
                    "time": 158.17500000000027,
                    "velocity": 0.6929133858267716,
                    "duration": 0.07499999999998863
                },
                {
                    "name": "D6",
                    "midi": 86,
                    "time": 158.25000000000026,
                    "velocity": 0.6929133858267716,
                    "duration": 0.07499999999998863
                },
                {
                    "name": "D#6",
                    "midi": 87,
                    "time": 158.32500000000024,
                    "velocity": 0.6929133858267716,
                    "duration": 0.07499999999998863
                },
                {
                    "name": "F6",
                    "midi": 89,
                    "time": 158.40000000000023,
                    "velocity": 0.6929133858267716,
                    "duration": 0.11750000000000682
                },
                {
                    "name": "F5",
                    "midi": 77,
                    "time": 159.60000000000025,
                    "velocity": 0.6929133858267716,
                    "duration": 0.5999999999999943
                },
                {
                    "name": "A#5",
                    "midi": 82,
                    "time": 160.20000000000024,
                    "velocity": 0.6929133858267716,
                    "duration": 0.5999999999999943
                },
                {
                    "name": "F6",
                    "midi": 89,
                    "time": 160.80000000000024,
                    "velocity": 0.6929133858267716,
                    "duration": 0.30000000000001137
                },
                {
                    "name": "D#6",
                    "midi": 87,
                    "time": 161.10000000000025,
                    "velocity": 0.4881889763779528,
                    "duration": 1.5
                },
                {
                    "name": "F6",
                    "midi": 89,
                    "time": 162.60000000000025,
                    "velocity": 0.4881889763779528,
                    "duration": 0.15000000000000568
                },
                {
                    "name": "C6",
                    "midi": 84,
                    "time": 162.75000000000026,
                    "velocity": 0.4881889763779528,
                    "duration": 0.15000000000000568
                },
                {
                    "name": "D#6",
                    "midi": 87,
                    "time": 162.90000000000026,
                    "velocity": 0.4881889763779528,
                    "duration": 0.15000000000000568
                },
                {
                    "name": "A#5",
                    "midi": 82,
                    "time": 163.05000000000027,
                    "velocity": 0.4881889763779528,
                    "duration": 0.15000000000000568
                },
                {
                    "name": "F5",
                    "midi": 77,
                    "time": 163.20000000000027,
                    "velocity": 0.4881889763779528,
                    "duration": 0.5999999999999943
                },
                {
                    "name": "F4",
                    "midi": 65,
                    "time": 164.25000000000026,
                    "velocity": 0.4881889763779528,
                    "duration": 0.07499999999998863
                },
                {
                    "name": "A#4",
                    "midi": 70,
                    "time": 164.32500000000024,
                    "velocity": 0.4881889763779528,
                    "duration": 0.07499999999998863
                },
                {
                    "name": "G4",
                    "midi": 67,
                    "time": 164.40000000000023,
                    "velocity": 0.5905511811023622,
                    "duration": 0.44999999999998863
                },
                {
                    "name": "F4",
                    "midi": 65,
                    "time": 164.85000000000022,
                    "velocity": 0.5905511811023622,
                    "duration": 0.07499999999998863
                },
                {
                    "name": "A#4",
                    "midi": 70,
                    "time": 164.9250000000002,
                    "velocity": 0.5905511811023622,
                    "duration": 0.07499999999998863
                },
                {
                    "name": "G4",
                    "midi": 67,
                    "time": 165.0000000000002,
                    "velocity": 0.5905511811023622,
                    "duration": 0.5999999999999943
                },
                {
                    "name": "F5",
                    "midi": 77,
                    "time": 165.6000000000002,
                    "velocity": 0.7952755905511811,
                    "duration": 0.5999999999999943
                },
                {
                    "name": "A#5",
                    "midi": 82,
                    "time": 166.2000000000002,
                    "velocity": 0.7952755905511811,
                    "duration": 0.5999999999999943
                },
                {
                    "name": "F6",
                    "midi": 89,
                    "time": 166.80000000000018,
                    "velocity": 0.7952755905511811,
                    "duration": 0.30000000000001137
                },
                {
                    "name": "D#6",
                    "midi": 87,
                    "time": 167.1000000000002,
                    "velocity": 0.5905511811023622,
                    "duration": 0.8999999999999773
                },
                {
                    "name": "D#6",
                    "midi": 87,
                    "time": 167.80000000000018,
                    "velocity": 0.5905511811023622,
                    "duration": 0.799999999999983
                },
                {
                    "name": "G#6",
                    "midi": 92,
                    "time": 167.90000000000018,
                    "velocity": 0.5905511811023622,
                    "duration": 0.6999999999999886
                },
                {
                    "name": "D#7",
                    "midi": 99,
                    "time": 168.00000000000017,
                    "velocity": 0.5905511811023622,
                    "duration": 0.5999999999999943
                },
                {
                    "name": "A#5",
                    "midi": 82,
                    "time": 169.20000000000016,
                    "velocity": 0.7952755905511811,
                    "duration": 0.5999999999999943
                },
                {
                    "name": "F5",
                    "midi": 77,
                    "time": 169.80000000000015,
                    "velocity": 0.5905511811023622,
                    "duration": 1.3174999999999955
                },
                {
                    "name": "A#4",
                    "midi": 70,
                    "time": 171.11750000000015,
                    "velocity": 0.5905511811023622,
                    "duration": 0.12250000000000227
                },
                {
                    "name": "D#5",
                    "midi": 75,
                    "time": 171.24000000000015,
                    "velocity": 0.5905511811023622,
                    "duration": 0.11750000000000682
                },
                {
                    "name": "G#5",
                    "midi": 80,
                    "time": 171.35750000000016,
                    "velocity": 0.5905511811023622,
                    "duration": 0.12250000000000227
                },
                {
                    "name": "A#5",
                    "midi": 82,
                    "time": 171.48000000000016,
                    "velocity": 0.5905511811023622,
                    "duration": 0.12000000000000455
                },
                {
                    "name": "F5",
                    "midi": 77,
                    "time": 171.60000000000016,
                    "velocity": 0.5905511811023622,
                    "duration": 0.5999999999999943
                },
                {
                    "name": "A#5",
                    "midi": 82,
                    "time": 172.40000000000015,
                    "velocity": 0.5905511811023622,
                    "duration": 0.4000000000000057
                },
                {
                    "name": "F6",
                    "midi": 89,
                    "time": 172.80000000000015,
                    "velocity": 0.7952755905511811,
                    "duration": 0.30000000000001137
                },
                {
                    "name": "D#6",
                    "midi": 87,
                    "time": 173.10000000000016,
                    "velocity": 0.5905511811023622,
                    "duration": 1.5
                },
                {
                    "name": "F6",
                    "midi": 89,
                    "time": 174.60000000000016,
                    "velocity": 0.5905511811023622,
                    "duration": 0.11750000000000682
                },
                {
                    "name": "C6",
                    "midi": 84,
                    "time": 174.71750000000017,
                    "velocity": 0.5905511811023622,
                    "duration": 0.12250000000000227
                },
                {
                    "name": "D#6",
                    "midi": 87,
                    "time": 174.84000000000017,
                    "velocity": 0.5905511811023622,
                    "duration": 0.11750000000000682
                },
                {
                    "name": "A#5",
                    "midi": 82,
                    "time": 174.95750000000018,
                    "velocity": 0.5905511811023622,
                    "duration": 0.12250000000000227
                },
                {
                    "name": "D#6",
                    "midi": 87,
                    "time": 175.00000000000017,
                    "velocity": 0.5905511811023622,
                    "duration": 0.10000000000002274
                },
                {
                    "name": "F5",
                    "midi": 77,
                    "time": 175.08000000000018,
                    "velocity": 0.5905511811023622,
                    "duration": 0.12000000000003297
                },
                {
                    "name": "G#6",
                    "midi": 92,
                    "time": 175.1000000000002,
                    "velocity": 0.5905511811023622,
                    "duration": 0.0800000000000125
                },
                {
                    "name": "D#7",
                    "midi": 99,
                    "time": 175.20000000000022,
                    "velocity": 0.5905511811023622,
                    "duration": 0.05750000000000455
                },
                {
                    "name": "A#4",
                    "midi": 70,
                    "time": 175.50000000000023,
                    "velocity": 0.6929133858267716,
                    "duration": 0.09749999999999659
                },
                {
                    "name": "D#5",
                    "midi": 75,
                    "time": 175.59750000000022,
                    "velocity": 0.6929133858267716,
                    "duration": 0.10249999999999204
                },
                {
                    "name": "F5",
                    "midi": 77,
                    "time": 175.70000000000022,
                    "velocity": 0.6929133858267716,
                    "duration": 0.09999999999999432
                },
                {
                    "name": "A#5",
                    "midi": 82,
                    "time": 175.8000000000002,
                    "velocity": 0.6929133858267716,
                    "duration": 0.09749999999999659
                },
                {
                    "name": "G#5",
                    "midi": 80,
                    "time": 175.8975000000002,
                    "velocity": 0.6929133858267716,
                    "duration": 0.10249999999999204
                },
                {
                    "name": "A#5",
                    "midi": 82,
                    "time": 176.0000000000002,
                    "velocity": 0.6929133858267716,
                    "duration": 0.09999999999999432
                },
                {
                    "name": "G#5",
                    "midi": 80,
                    "time": 176.1000000000002,
                    "velocity": 0.6929133858267716,
                    "duration": 0.09749999999999659
                },
                {
                    "name": "A#5",
                    "midi": 82,
                    "time": 176.1975000000002,
                    "velocity": 0.6929133858267716,
                    "duration": 0.10249999999999204
                },
                {
                    "name": "G#5",
                    "midi": 80,
                    "time": 176.30000000000018,
                    "velocity": 0.6929133858267716,
                    "duration": 0.09999999999999432
                },
                {
                    "name": "F6",
                    "midi": 89,
                    "time": 176.40000000000018,
                    "velocity": 0.8976377952755905,
                    "duration": 0.30000000000001137
                },
                {
                    "name": "D#6",
                    "midi": 87,
                    "time": 176.7000000000002,
                    "velocity": 0.6929133858267716,
                    "duration": 0.9000000000000057
                },
                {
                    "name": "D#6",
                    "midi": 87,
                    "time": 178.6000000000002,
                    "velocity": 0.6929133858267716,
                    "duration": 0.1599999999999966
                },
                {
                    "name": "G#6",
                    "midi": 92,
                    "time": 178.7000000000002,
                    "velocity": 0.6929133858267716,
                    "duration": 0.13749999999998863
                },
                {
                    "name": "D#7",
                    "midi": 99,
                    "time": 178.80000000000018,
                    "velocity": 0.6929133858267716,
                    "duration": 0.11750000000000682
                },
                {
                    "name": "F5",
                    "midi": 77,
                    "time": 179.40000000000018,
                    "velocity": 0.6929133858267716,
                    "duration": 0.11750000000000682
                },
                {
                    "name": "A#5",
                    "midi": 82,
                    "time": 179.40000000000018,
                    "velocity": 0.6929133858267716,
                    "duration": 0.11750000000000682
                },
                {
                    "name": "D#6",
                    "midi": 87,
                    "time": 179.40000000000018,
                    "velocity": 0.6929133858267716,
                    "duration": 0.11750000000000682
                },
                {
                    "name": "F6",
                    "midi": 89,
                    "time": 179.40000000000018,
                    "velocity": 0.6929133858267716,
                    "duration": 0.11750000000000682
                },
                {
                    "name": "C6",
                    "midi": 84,
                    "time": 179.51750000000018,
                    "velocity": 0.6929133858267716,
                    "duration": 0.12250000000000227
                },
                {
                    "name": "D#6",
                    "midi": 87,
                    "time": 179.64000000000019,
                    "velocity": 0.6929133858267716,
                    "duration": 0.11750000000000682
                },
                {
                    "name": "A#5",
                    "midi": 82,
                    "time": 179.7575000000002,
                    "velocity": 0.6929133858267716,
                    "duration": 0.12250000000000227
                },
                {
                    "name": "F5",
                    "midi": 77,
                    "time": 179.8800000000002,
                    "velocity": 0.6929133858267716,
                    "duration": 0.12000000000000455
                },
                {
                    "name": "F6",
                    "midi": 89,
                    "time": 180.0000000000002,
                    "velocity": 0.8976377952755905,
                    "duration": 0.30000000000001137
                },
                {
                    "name": "D#6",
                    "midi": 87,
                    "time": 180.3000000000002,
                    "velocity": 0.6929133858267716,
                    "duration": 0.9000000000000057
                },
                {
                    "name": "F5",
                    "midi": 77,
                    "time": 181.20000000000022,
                    "velocity": 0.6929133858267716,
                    "duration": 0.30000000000001137
                },
                {
                    "name": "D#5",
                    "midi": 75,
                    "time": 182.40000000000023,
                    "velocity": 0.6929133858267716,
                    "duration": 0.30000000000001137
                },
                {
                    "name": "G#5",
                    "midi": 80,
                    "time": 182.40000000000023,
                    "velocity": 0.6929133858267716,
                    "duration": 0.30000000000001137
                },
                {
                    "name": "D#6",
                    "midi": 87,
                    "time": 182.40000000000023,
                    "velocity": 0.6929133858267716,
                    "duration": 0.30000000000001137
                },
                {
                    "name": "A#4",
                    "midi": 70,
                    "time": 182.70000000000024,
                    "velocity": 0.6929133858267716,
                    "duration": 0.09749999999999659
                },
                {
                    "name": "D#5",
                    "midi": 75,
                    "time": 182.79750000000024,
                    "velocity": 0.6929133858267716,
                    "duration": 0.10249999999999204
                },
                {
                    "name": "F5",
                    "midi": 77,
                    "time": 182.90000000000023,
                    "velocity": 0.6929133858267716,
                    "duration": 0.09999999999999432
                },
                {
                    "name": "A#5",
                    "midi": 82,
                    "time": 183.00000000000023,
                    "velocity": 0.6929133858267716,
                    "duration": 0.09749999999999659
                },
                {
                    "name": "G#5",
                    "midi": 80,
                    "time": 183.09750000000022,
                    "velocity": 0.6929133858267716,
                    "duration": 0.10249999999999204
                },
                {
                    "name": "A#5",
                    "midi": 82,
                    "time": 183.20000000000022,
                    "velocity": 0.6929133858267716,
                    "duration": 0.09999999999999432
                },
                {
                    "name": "G#5",
                    "midi": 80,
                    "time": 183.3000000000002,
                    "velocity": 0.6929133858267716,
                    "duration": 0.09749999999999659
                },
                {
                    "name": "A#5",
                    "midi": 82,
                    "time": 183.3975000000002,
                    "velocity": 0.6929133858267716,
                    "duration": 0.10249999999999204
                },
                {
                    "name": "C5",
                    "midi": 72,
                    "time": 183.4000000000002,
                    "velocity": 0.6929133858267716,
                    "duration": 0.39999999999997726
                },
                {
                    "name": "G#5",
                    "midi": 80,
                    "time": 183.5000000000002,
                    "velocity": 0.6929133858267716,
                    "duration": 0.09999999999999432
                },
                {
                    "name": "F5",
                    "midi": 77,
                    "time": 183.5000000000002,
                    "velocity": 0.6929133858267716,
                    "duration": 0.29999999999998295
                },
                {
                    "name": "A#5",
                    "midi": 82,
                    "time": 183.6000000000002,
                    "velocity": 0.6929133858267716,
                    "duration": 0.19999999999998863
                },
                {
                    "name": "A#4",
                    "midi": 70,
                    "time": 183.80000000000018,
                    "velocity": 0.6929133858267716,
                    "duration": 0.1974999999999909
                },
                {
                    "name": "G4",
                    "midi": 67,
                    "time": 183.99750000000017,
                    "velocity": 0.6929133858267716,
                    "duration": 0.20249999999998636
                },
                {
                    "name": "A#4",
                    "midi": 70,
                    "time": 184.00000000000017,
                    "velocity": 0.6929133858267716,
                    "duration": 0.39999999999997726
                },
                {
                    "name": "D#5",
                    "midi": 75,
                    "time": 184.10000000000016,
                    "velocity": 0.6929133858267716,
                    "duration": 0.29999999999998295
                },
                {
                    "name": "G#5",
                    "midi": 80,
                    "time": 184.20000000000016,
                    "velocity": 0.6929133858267716,
                    "duration": 0.19999999999998863
                },
                {
                    "name": "G#4",
                    "midi": 68,
                    "time": 184.40000000000015,
                    "velocity": 0.6929133858267716,
                    "duration": 0.1974999999999909
                },
                {
                    "name": "F4",
                    "midi": 65,
                    "time": 184.59750000000014,
                    "velocity": 0.6929133858267716,
                    "duration": 0.20249999999998636
                },
                {
                    "name": "C5",
                    "midi": 72,
                    "time": 184.80000000000013,
                    "velocity": 0.3858267716535433,
                    "duration": 2.4749999999999943
                },
                {
                    "name": "B4",
                    "midi": 71,
                    "time": 187.27500000000012,
                    "velocity": 0.3858267716535433,
                    "duration": 0.07499999999998863
                },
                {
                    "name": "C5",
                    "midi": 72,
                    "time": 187.3500000000001,
                    "velocity": 0.3858267716535433,
                    "duration": 0.07499999999998863
                },
                {
                    "name": "B4",
                    "midi": 71,
                    "time": 187.4250000000001,
                    "velocity": 0.3858267716535433,
                    "duration": 0.30000000000001137
                },
                {
                    "name": "G4",
                    "midi": 67,
                    "time": 187.7250000000001,
                    "velocity": 0.3858267716535433,
                    "duration": 0.30000000000001137
                },
                {
                    "name": "E4",
                    "midi": 64,
                    "time": 188.02500000000012,
                    "velocity": 0.3858267716535433,
                    "duration": 0.30000000000001137
                },
                {
                    "name": "B4",
                    "midi": 71,
                    "time": 188.32500000000013,
                    "velocity": 0.3858267716535433,
                    "duration": 0.30000000000001137
                },
                {
                    "name": "A4",
                    "midi": 69,
                    "time": 188.62500000000014,
                    "velocity": 0.3858267716535433,
                    "duration": 0.5999999999999943
                },
                {
                    "name": "C5",
                    "midi": 72,
                    "time": 189.22500000000014,
                    "velocity": 0.3858267716535433,
                    "duration": 0.44999999999998863
                },
                {
                    "name": "B4",
                    "midi": 71,
                    "time": 189.67500000000013,
                    "velocity": 0.3858267716535433,
                    "duration": 0.07499999999998863
                },
                {
                    "name": "C5",
                    "midi": 72,
                    "time": 189.7500000000001,
                    "velocity": 0.3858267716535433,
                    "duration": 0.07499999999998863
                },
                {
                    "name": "B4",
                    "midi": 71,
                    "time": 189.8250000000001,
                    "velocity": 0.3858267716535433,
                    "duration": 0.5999999999999943
                },
                {
                    "name": "A4",
                    "midi": 69,
                    "time": 190.4250000000001,
                    "velocity": 0.3858267716535433,
                    "duration": 0.5999999999999943
                },
                {
                    "name": "D5",
                    "midi": 74,
                    "time": 191.0250000000001,
                    "velocity": 0.3858267716535433,
                    "duration": 0.5250000000000057
                },
                {
                    "name": "G4",
                    "midi": 67,
                    "time": 191.5500000000001,
                    "velocity": 0.3858267716535433,
                    "duration": 0.07499999999998863
                },
                {
                    "name": "A4",
                    "midi": 69,
                    "time": 191.62500000000009,
                    "velocity": 0.3858267716535433,
                    "duration": 0.5999999999999943
                },
                {
                    "name": "C5",
                    "midi": 72,
                    "time": 192.22500000000008,
                    "velocity": 0.3858267716535433,
                    "duration": 0.30000000000001137
                },
                {
                    "name": "B4",
                    "midi": 71,
                    "time": 192.5250000000001,
                    "velocity": 0.3858267716535433,
                    "duration": 0.07499999999998863
                },
                {
                    "name": "C5",
                    "midi": 72,
                    "time": 192.60000000000008,
                    "velocity": 0.3858267716535433,
                    "duration": 0.07499999999998863
                },
                {
                    "name": "B4",
                    "midi": 71,
                    "time": 192.67500000000007,
                    "velocity": 0.3858267716535433,
                    "duration": 0.30000000000001137
                },
                {
                    "name": "G4",
                    "midi": 67,
                    "time": 192.97500000000008,
                    "velocity": 0.3858267716535433,
                    "duration": 0.30000000000001137
                },
                {
                    "name": "E4",
                    "midi": 64,
                    "time": 193.2750000000001,
                    "velocity": 0.3858267716535433,
                    "duration": 0.30000000000001137
                },
                {
                    "name": "B4",
                    "midi": 71,
                    "time": 193.5750000000001,
                    "velocity": 0.3858267716535433,
                    "duration": 0.29999999999998295
                },
                {
                    "name": "C4",
                    "midi": 60,
                    "time": 193.87500000000009,
                    "velocity": 0.3858267716535433,
                    "duration": 2.9250000000000114
                },
                {
                    "name": "G#4",
                    "midi": 68,
                    "time": 193.87500000000009,
                    "velocity": 0.3858267716535433,
                    "duration": 2.9250000000000114
                },
                {
                    "name": "C4",
                    "midi": 60,
                    "time": 196.8000000000001,
                    "velocity": 0.28346456692913385,
                    "duration": 0.15000000000000568
                },
                {
                    "name": "D4",
                    "midi": 62,
                    "time": 196.9500000000001,
                    "velocity": 0.28346456692913385,
                    "duration": 0.15000000000000568
                },
                {
                    "name": "C4",
                    "midi": 60,
                    "time": 197.1000000000001,
                    "velocity": 0.28346456692913385,
                    "duration": 0.15000000000000568
                },
                {
                    "name": "D4",
                    "midi": 62,
                    "time": 197.2500000000001,
                    "velocity": 0.28346456692913385,
                    "duration": 0.15000000000000568
                },
                {
                    "name": "C4",
                    "midi": 60,
                    "time": 197.40000000000012,
                    "velocity": 0.28346456692913385,
                    "duration": 0.15000000000000568
                },
                {
                    "name": "D4",
                    "midi": 62,
                    "time": 197.55000000000013,
                    "velocity": 0.28346456692913385,
                    "duration": 0.15000000000000568
                },
                {
                    "name": "C4",
                    "midi": 60,
                    "time": 197.70000000000013,
                    "velocity": 0.28346456692913385,
                    "duration": 0.15000000000000568
                },
                {
                    "name": "D4",
                    "midi": 62,
                    "time": 197.85000000000014,
                    "velocity": 0.28346456692913385,
                    "duration": 0.15000000000000568
                },
                {
                    "name": "C4",
                    "midi": 60,
                    "time": 198.00000000000014,
                    "velocity": 0.28346456692913385,
                    "duration": 0.15000000000000568
                },
                {
                    "name": "D4",
                    "midi": 62,
                    "time": 198.15000000000015,
                    "velocity": 0.28346456692913385,
                    "duration": 0.15000000000000568
                },
                {
                    "name": "C4",
                    "midi": 60,
                    "time": 198.30000000000015,
                    "velocity": 0.28346456692913385,
                    "duration": 0.15000000000000568
                },
                {
                    "name": "D4",
                    "midi": 62,
                    "time": 198.45000000000016,
                    "velocity": 0.28346456692913385,
                    "duration": 0.15000000000000568
                },
                {
                    "name": "C4",
                    "midi": 60,
                    "time": 198.60000000000016,
                    "velocity": 0.28346456692913385,
                    "duration": 0.15000000000000568
                },
                {
                    "name": "D4",
                    "midi": 62,
                    "time": 198.75000000000017,
                    "velocity": 0.28346456692913385,
                    "duration": 0.15000000000000568
                },
                {
                    "name": "C4",
                    "midi": 60,
                    "time": 198.90000000000018,
                    "velocity": 0.28346456692913385,
                    "duration": 0.15000000000000568
                },
                {
                    "name": "D4",
                    "midi": 62,
                    "time": 199.05000000000018,
                    "velocity": 0.28346456692913385,
                    "duration": 0.15000000000000568
                },
                {
                    "name": "C4",
                    "midi": 60,
                    "time": 199.2000000000002,
                    "velocity": 0.28346456692913385,
                    "duration": 0.15000000000000568
                },
                {
                    "name": "D4",
                    "midi": 62,
                    "time": 199.3500000000002,
                    "velocity": 0.28346456692913385,
                    "duration": 0.15000000000000568
                },
                {
                    "name": "C4",
                    "midi": 60,
                    "time": 199.5000000000002,
                    "velocity": 0.28346456692913385,
                    "duration": 0.15000000000000568
                },
                {
                    "name": "D4",
                    "midi": 62,
                    "time": 199.6500000000002,
                    "velocity": 0.28346456692913385,
                    "duration": 0.15000000000000568
                },
                {
                    "name": "C4",
                    "midi": 60,
                    "time": 199.8000000000002,
                    "velocity": 0.28346456692913385,
                    "duration": 0.15000000000000568
                },
                {
                    "name": "D4",
                    "midi": 62,
                    "time": 199.95000000000022,
                    "velocity": 0.28346456692913385,
                    "duration": 0.15000000000000568
                },
                {
                    "name": "C4",
                    "midi": 60,
                    "time": 200.10000000000022,
                    "velocity": 0.28346456692913385,
                    "duration": 0.15000000000000568
                },
                {
                    "name": "D4",
                    "midi": 62,
                    "time": 200.25000000000023,
                    "velocity": 0.28346456692913385,
                    "duration": 0.15000000000000568
                },
                {
                    "name": "C4",
                    "midi": 60,
                    "time": 200.40000000000023,
                    "velocity": 0.28346456692913385,
                    "duration": 0.15000000000000568
                },
                {
                    "name": "D4",
                    "midi": 62,
                    "time": 200.55000000000024,
                    "velocity": 0.28346456692913385,
                    "duration": 0.15000000000000568
                },
                {
                    "name": "C4",
                    "midi": 60,
                    "time": 200.70000000000024,
                    "velocity": 0.28346456692913385,
                    "duration": 0.15000000000000568
                },
                {
                    "name": "D4",
                    "midi": 62,
                    "time": 200.85000000000025,
                    "velocity": 0.28346456692913385,
                    "duration": 0.15000000000000568
                },
                {
                    "name": "C4",
                    "midi": 60,
                    "time": 201.00000000000026,
                    "velocity": 0.28346456692913385,
                    "duration": 0.15000000000000568
                },
                {
                    "name": "D4",
                    "midi": 62,
                    "time": 201.15000000000026,
                    "velocity": 0.28346456692913385,
                    "duration": 0.15000000000000568
                },
                {
                    "name": "C4",
                    "midi": 60,
                    "time": 201.30000000000027,
                    "velocity": 0.28346456692913385,
                    "duration": 0.15000000000000568
                },
                {
                    "name": "D4",
                    "midi": 62,
                    "time": 201.45000000000027,
                    "velocity": 0.28346456692913385,
                    "duration": 0.15000000000000568
                },
                {
                    "name": "C4",
                    "midi": 60,
                    "time": 201.60000000000028,
                    "velocity": 0.28346456692913385,
                    "duration": 0.15000000000000568
                },
                {
                    "name": "D4",
                    "midi": 62,
                    "time": 201.75000000000028,
                    "velocity": 0.28346456692913385,
                    "duration": 0.15000000000000568
                },
                {
                    "name": "C4",
                    "midi": 60,
                    "time": 201.9000000000003,
                    "velocity": 0.28346456692913385,
                    "duration": 0.15000000000000568
                },
                {
                    "name": "D4",
                    "midi": 62,
                    "time": 202.0500000000003,
                    "velocity": 0.28346456692913385,
                    "duration": 0.15000000000000568
                },
                {
                    "name": "C4",
                    "midi": 60,
                    "time": 202.2000000000003,
                    "velocity": 0.28346456692913385,
                    "duration": 0.15000000000000568
                },
                {
                    "name": "D4",
                    "midi": 62,
                    "time": 202.3500000000003,
                    "velocity": 0.28346456692913385,
                    "duration": 0.15000000000000568
                },
                {
                    "name": "C4",
                    "midi": 60,
                    "time": 202.5000000000003,
                    "velocity": 0.28346456692913385,
                    "duration": 0.15000000000000568
                },
                {
                    "name": "D4",
                    "midi": 62,
                    "time": 202.65000000000032,
                    "velocity": 0.28346456692913385,
                    "duration": 0.15000000000000568
                },
                {
                    "name": "C4",
                    "midi": 60,
                    "time": 202.80000000000032,
                    "velocity": 0.28346456692913385,
                    "duration": 0.15000000000000568
                },
                {
                    "name": "D4",
                    "midi": 62,
                    "time": 202.95000000000033,
                    "velocity": 0.28346456692913385,
                    "duration": 0.15000000000000568
                },
                {
                    "name": "C4",
                    "midi": 60,
                    "time": 203.10000000000034,
                    "velocity": 0.28346456692913385,
                    "duration": 0.15000000000000568
                },
                {
                    "name": "D4",
                    "midi": 62,
                    "time": 203.25000000000034,
                    "velocity": 0.28346456692913385,
                    "duration": 0.15000000000000568
                },
                {
                    "name": "C4",
                    "midi": 60,
                    "time": 203.40000000000035,
                    "velocity": 0.28346456692913385,
                    "duration": 0.15000000000000568
                },
                {
                    "name": "D4",
                    "midi": 62,
                    "time": 203.55000000000035,
                    "velocity": 0.28346456692913385,
                    "duration": 0.15000000000000568
                },
                {
                    "name": "C4",
                    "midi": 60,
                    "time": 203.70000000000036,
                    "velocity": 0.28346456692913385,
                    "duration": 0.15000000000000568
                },
                {
                    "name": "D4",
                    "midi": 62,
                    "time": 203.85000000000036,
                    "velocity": 0.28346456692913385,
                    "duration": 0.15000000000000568
                },
                {
                    "name": "C4",
                    "midi": 60,
                    "time": 204.00000000000037,
                    "velocity": 0.28346456692913385,
                    "duration": 0.15000000000000568
                },
                {
                    "name": "D4",
                    "midi": 62,
                    "time": 204.15000000000038,
                    "velocity": 0.28346456692913385,
                    "duration": 0.15000000000000568
                },
                {
                    "name": "C4",
                    "midi": 60,
                    "time": 204.30000000000038,
                    "velocity": 0.28346456692913385,
                    "duration": 0.15000000000000568
                },
                {
                    "name": "D4",
                    "midi": 62,
                    "time": 204.4500000000004,
                    "velocity": 0.28346456692913385,
                    "duration": 0.15000000000000568
                },
                {
                    "name": "C4",
                    "midi": 60,
                    "time": 204.6000000000004,
                    "velocity": 0.28346456692913385,
                    "duration": 0.15000000000000568
                },
                {
                    "name": "D4",
                    "midi": 62,
                    "time": 204.7500000000004,
                    "velocity": 0.28346456692913385,
                    "duration": 0.15000000000000568
                },
                {
                    "name": "C4",
                    "midi": 60,
                    "time": 204.9000000000004,
                    "velocity": 0.28346456692913385,
                    "duration": 0.15000000000000568
                },
                {
                    "name": "D4",
                    "midi": 62,
                    "time": 205.0500000000004,
                    "velocity": 0.28346456692913385,
                    "duration": 0.15000000000000568
                },
                {
                    "name": "C4",
                    "midi": 60,
                    "time": 205.20000000000041,
                    "velocity": 0.4881889763779528,
                    "duration": 0.19999999999998863
                },
                {
                    "name": "G3",
                    "midi": 55,
                    "time": 205.4000000000004,
                    "velocity": 0.4881889763779528,
                    "duration": 0.1974999999999909
                },
                {
                    "name": "D3",
                    "midi": 50,
                    "time": 205.5975000000004,
                    "velocity": 0.4881889763779528,
                    "duration": 0.20249999999998636
                },
                {
                    "name": "F3",
                    "midi": 53,
                    "time": 205.80000000000038,
                    "velocity": 0.4881889763779528,
                    "duration": 0.19999999999998863
                },
                {
                    "name": "A#3",
                    "midi": 58,
                    "time": 206.00000000000037,
                    "velocity": 0.4881889763779528,
                    "duration": 0.1974999999999909
                },
                {
                    "name": "C3",
                    "midi": 48,
                    "time": 206.19750000000036,
                    "velocity": 0.4881889763779528,
                    "duration": 0.20249999999998636
                },
                {
                    "name": "C5",
                    "midi": 72,
                    "time": 209.40000000000035,
                    "velocity": 0.3858267716535433,
                    "duration": 3
                },
                {
                    "name": "G5",
                    "midi": 79,
                    "time": 209.40000000000035,
                    "velocity": 0.3858267716535433,
                    "duration": 3
                },
                {
                    "name": "D6",
                    "midi": 86,
                    "time": 209.40000000000035,
                    "velocity": 0.3858267716535433,
                    "duration": 3
                },
                {
                    "name": "G4",
                    "midi": 67,
                    "time": 212.40000000000035,
                    "velocity": 0.3858267716535433,
                    "duration": 6
                },
                {
                    "name": "A#4",
                    "midi": 70,
                    "time": 212.40000000000035,
                    "velocity": 0.3858267716535433,
                    "duration": 6
                },
                {
                    "name": "C#5",
                    "midi": 73,
                    "time": 212.40000000000035,
                    "velocity": 0.3858267716535433,
                    "duration": 6
                },
                {
                    "name": "D#5",
                    "midi": 75,
                    "time": 212.40000000000035,
                    "velocity": 0.3858267716535433,
                    "duration": 6
                },
                {
                    "name": "G5",
                    "midi": 79,
                    "time": 212.40000000000035,
                    "velocity": 0.3858267716535433,
                    "duration": 6
                },
                {
                    "name": "E5",
                    "midi": 76,
                    "time": 257.4000000000003,
                    "velocity": 0.7952755905511811,
                    "duration": 0.11750000000000682
                },
                {
                    "name": "F5",
                    "midi": 77,
                    "time": 257.4000000000003,
                    "velocity": 0.7952755905511811,
                    "duration": 0.11750000000000682
                },
                {
                    "name": "B5",
                    "midi": 83,
                    "time": 257.4000000000003,
                    "velocity": 0.7952755905511811,
                    "duration": 0.11750000000000682
                },
                {
                    "name": "E6",
                    "midi": 88,
                    "time": 257.4000000000003,
                    "velocity": 0.7952755905511811,
                    "duration": 0.11750000000000682
                },
                {
                    "name": "F6",
                    "midi": 89,
                    "time": 257.4000000000003,
                    "velocity": 0.7952755905511811,
                    "duration": 0.11750000000000682
                },
                {
                    "name": "G5",
                    "midi": 79,
                    "time": 258.6000000000003,
                    "velocity": 0.7952755905511811,
                    "duration": 0.11750000000000682
                },
                {
                    "name": "C6",
                    "midi": 84,
                    "time": 258.6000000000003,
                    "velocity": 0.7952755905511811,
                    "duration": 0.11750000000000682
                },
                {
                    "name": "C#6",
                    "midi": 85,
                    "time": 258.6000000000003,
                    "velocity": 0.7952755905511811,
                    "duration": 0.11750000000000682
                },
                {
                    "name": "G#6",
                    "midi": 92,
                    "time": 258.6000000000003,
                    "velocity": 0.7952755905511811,
                    "duration": 0.11750000000000682
                },
                {
                    "name": "A#4",
                    "midi": 70,
                    "time": 259.20000000000033,
                    "velocity": 0.5905511811023622,
                    "duration": 0.07749999999998636
                },
                {
                    "name": "A#5",
                    "midi": 82,
                    "time": 259.20000000000033,
                    "velocity": 0.5905511811023622,
                    "duration": 0.07749999999998636
                },
                {
                    "name": "A#4",
                    "midi": 70,
                    "time": 259.5975000000003,
                    "velocity": 0.5905511811023622,
                    "duration": 0.07999999999998408
                },
                {
                    "name": "A#5",
                    "midi": 82,
                    "time": 259.5975000000003,
                    "velocity": 0.5905511811023622,
                    "duration": 0.07999999999998408
                },
                {
                    "name": "A#4",
                    "midi": 70,
                    "time": 260.0000000000003,
                    "velocity": 0.5905511811023622,
                    "duration": 0.07999999999998408
                },
                {
                    "name": "A#5",
                    "midi": 82,
                    "time": 260.0000000000003,
                    "velocity": 0.5905511811023622,
                    "duration": 0.07999999999998408
                },
                {
                    "name": "A#4",
                    "midi": 70,
                    "time": 260.40000000000026,
                    "velocity": 0.7952755905511811,
                    "duration": 1.597500000000025
                },
                {
                    "name": "A#5",
                    "midi": 82,
                    "time": 260.40000000000026,
                    "velocity": 0.7952755905511811,
                    "duration": 1.597500000000025
                },
                {
                    "name": "A4",
                    "midi": 69,
                    "time": 261.9975000000003,
                    "velocity": 0.5905511811023622,
                    "duration": 0.07999999999998408
                },
                {
                    "name": "G#4",
                    "midi": 68,
                    "time": 262.40000000000026,
                    "velocity": 0.5905511811023622,
                    "duration": 0.07999999999998408
                },
                {
                    "name": "G4",
                    "midi": 67,
                    "time": 262.80000000000024,
                    "velocity": 0.4881889763779528,
                    "duration": 0.11750000000000682
                },
                {
                    "name": "F#4",
                    "midi": 66,
                    "time": 263.40000000000026,
                    "velocity": 0.4881889763779528,
                    "duration": 0.11750000000000682
                },
                {
                    "name": "A#4",
                    "midi": 70,
                    "time": 264.0000000000003,
                    "velocity": 0.7952755905511811,
                    "duration": 0.11750000000000682
                },
                {
                    "name": "A#5",
                    "midi": 82,
                    "time": 264.0000000000003,
                    "velocity": 0.7952755905511811,
                    "duration": 0.11750000000000682
                },
                {
                    "name": "A4",
                    "midi": 69,
                    "time": 264.6000000000003,
                    "velocity": 0.7952755905511811,
                    "duration": 0.11750000000000682
                },
                {
                    "name": "A5",
                    "midi": 81,
                    "time": 264.6000000000003,
                    "velocity": 0.7952755905511811,
                    "duration": 0.11750000000000682
                },
                {
                    "name": "G#4",
                    "midi": 68,
                    "time": 265.20000000000033,
                    "velocity": 0.5905511811023622,
                    "duration": 0.07749999999998636
                },
                {
                    "name": "G#5",
                    "midi": 80,
                    "time": 265.20000000000033,
                    "velocity": 0.5905511811023622,
                    "duration": 0.07749999999998636
                },
                {
                    "name": "G4",
                    "midi": 67,
                    "time": 265.5975000000003,
                    "velocity": 0.5905511811023622,
                    "duration": 0.07999999999998408
                },
                {
                    "name": "G5",
                    "midi": 79,
                    "time": 265.5975000000003,
                    "velocity": 0.5905511811023622,
                    "duration": 0.07999999999998408
                },
                {
                    "name": "F#4",
                    "midi": 66,
                    "time": 266.0000000000003,
                    "velocity": 0.5905511811023622,
                    "duration": 0.07999999999998408
                },
                {
                    "name": "F#5",
                    "midi": 78,
                    "time": 266.0000000000003,
                    "velocity": 0.5905511811023622,
                    "duration": 0.07999999999998408
                },
                {
                    "name": "A#4",
                    "midi": 70,
                    "time": 266.40000000000026,
                    "velocity": 0.5905511811023622,
                    "duration": 0.07749999999998636
                },
                {
                    "name": "A4",
                    "midi": 69,
                    "time": 266.79750000000024,
                    "velocity": 0.5905511811023622,
                    "duration": 0.07999999999998408
                },
                {
                    "name": "G#4",
                    "midi": 68,
                    "time": 267.2000000000002,
                    "velocity": 0.5905511811023622,
                    "duration": 0.07999999999998408
                },
                {
                    "name": "G4",
                    "midi": 67,
                    "time": 267.6000000000002,
                    "velocity": 0.5905511811023622,
                    "duration": 0.07749999999998636
                },
                {
                    "name": "F#4",
                    "midi": 66,
                    "time": 267.9975000000002,
                    "velocity": 0.5905511811023622,
                    "duration": 0.07999999999998408
                },
                {
                    "name": "F4",
                    "midi": 65,
                    "time": 268.40000000000015,
                    "velocity": 0.5905511811023622,
                    "duration": 0.07999999999998408
                },
                {
                    "name": "E4",
                    "midi": 64,
                    "time": 268.8000000000001,
                    "velocity": 0.6929133858267716,
                    "duration": 0.07749999999998636
                },
                {
                    "name": "E4",
                    "midi": 64,
                    "time": 269.1975000000001,
                    "velocity": 0.6929133858267716,
                    "duration": 0.07999999999998408
                },
                {
                    "name": "E4",
                    "midi": 64,
                    "time": 269.6000000000001,
                    "velocity": 0.6929133858267716,
                    "duration": 0.07999999999998408
                },
                {
                    "name": "E4",
                    "midi": 64,
                    "time": 270.00000000000006,
                    "velocity": 0.6929133858267716,
                    "duration": 1.1999999999999886
                },
                {
                    "name": "C4",
                    "midi": 60,
                    "time": 271.20000000000005,
                    "velocity": 0.3858267716535433,
                    "duration": 0.14999999999997726
                },
                {
                    "name": "D4",
                    "midi": 62,
                    "time": 271.35,
                    "velocity": 0.3858267716535433,
                    "duration": 0.14999999999997726
                },
                {
                    "name": "C4",
                    "midi": 60,
                    "time": 271.5,
                    "velocity": 0.3858267716535433,
                    "duration": 0.14999999999997726
                },
                {
                    "name": "D4",
                    "midi": 62,
                    "time": 271.65,
                    "velocity": 0.3858267716535433,
                    "duration": 0.14999999999997726
                },
                {
                    "name": "C4",
                    "midi": 60,
                    "time": 271.79999999999995,
                    "velocity": 0.3858267716535433,
                    "duration": 0.14999999999997726
                },
                {
                    "name": "D4",
                    "midi": 62,
                    "time": 271.94999999999993,
                    "velocity": 0.3858267716535433,
                    "duration": 0.14999999999997726
                },
                {
                    "name": "C4",
                    "midi": 60,
                    "time": 272.0999999999999,
                    "velocity": 0.3858267716535433,
                    "duration": 0.14999999999997726
                },
                {
                    "name": "D4",
                    "midi": 62,
                    "time": 272.2499999999999,
                    "velocity": 0.3858267716535433,
                    "duration": 0.14999999999997726
                },
                {
                    "name": "C4",
                    "midi": 60,
                    "time": 272.39999999999986,
                    "velocity": 0.3858267716535433,
                    "duration": 0.14999999999997726
                },
                {
                    "name": "D4",
                    "midi": 62,
                    "time": 272.54999999999984,
                    "velocity": 0.3858267716535433,
                    "duration": 0.14999999999997726
                },
                {
                    "name": "C4",
                    "midi": 60,
                    "time": 272.6999999999998,
                    "velocity": 0.3858267716535433,
                    "duration": 0.14999999999997726
                },
                {
                    "name": "D4",
                    "midi": 62,
                    "time": 272.8499999999998,
                    "velocity": 0.3858267716535433,
                    "duration": 0.14999999999997726
                },
                {
                    "name": "C4",
                    "midi": 60,
                    "time": 272.9999999999998,
                    "velocity": 0.3858267716535433,
                    "duration": 0.14999999999997726
                },
                {
                    "name": "D4",
                    "midi": 62,
                    "time": 273.14999999999975,
                    "velocity": 0.3858267716535433,
                    "duration": 0.14999999999997726
                },
                {
                    "name": "C4",
                    "midi": 60,
                    "time": 273.2999999999997,
                    "velocity": 0.3858267716535433,
                    "duration": 0.14999999999997726
                },
                {
                    "name": "D4",
                    "midi": 62,
                    "time": 273.4499999999997,
                    "velocity": 0.3858267716535433,
                    "duration": 0.14999999999997726
                },
                {
                    "name": "C4",
                    "midi": 60,
                    "time": 273.5999999999997,
                    "velocity": 0.3858267716535433,
                    "duration": 0.39749999999997954
                },
                {
                    "name": "D#4",
                    "midi": 63,
                    "time": 273.5999999999997,
                    "velocity": 0.3858267716535433,
                    "duration": 0.39749999999997954
                },
                {
                    "name": "C4",
                    "midi": 60,
                    "time": 273.99749999999966,
                    "velocity": 0.3858267716535433,
                    "duration": 0.402499999999975
                },
                {
                    "name": "D#4",
                    "midi": 63,
                    "time": 274.39999999999964,
                    "velocity": 0.3858267716535433,
                    "duration": 0.39999999999997726
                },
                {
                    "name": "D4",
                    "midi": 62,
                    "time": 274.7999999999996,
                    "velocity": 0.3858267716535433,
                    "duration": 0.39749999999997954
                },
                {
                    "name": "G4",
                    "midi": 67,
                    "time": 274.7999999999996,
                    "velocity": 0.3858267716535433,
                    "duration": 0.39749999999997954
                },
                {
                    "name": "E4",
                    "midi": 64,
                    "time": 275.1974999999996,
                    "velocity": 0.3858267716535433,
                    "duration": 0.402499999999975
                },
                {
                    "name": "C4",
                    "midi": 60,
                    "time": 275.59999999999957,
                    "velocity": 0.3858267716535433,
                    "duration": 0.39999999999997726
                },
                {
                    "name": "C4",
                    "midi": 60,
                    "time": 275.99999999999955,
                    "velocity": 0.3858267716535433,
                    "duration": 0.39749999999997954
                },
                {
                    "name": "D#4",
                    "midi": 63,
                    "time": 275.99999999999955,
                    "velocity": 0.3858267716535433,
                    "duration": 0.39749999999997954
                },
                {
                    "name": "C4",
                    "midi": 60,
                    "time": 276.3974999999995,
                    "velocity": 0.3858267716535433,
                    "duration": 0.402499999999975
                },
                {
                    "name": "D#4",
                    "midi": 63,
                    "time": 276.7999999999995,
                    "velocity": 0.3858267716535433,
                    "duration": 0.39999999999997726
                },
                {
                    "name": "C5",
                    "midi": 72,
                    "time": 277.1999999999995,
                    "velocity": 0.5905511811023622,
                    "duration": 1.8000000000000114
                },
                {
                    "name": "C5",
                    "midi": 72,
                    "time": 278.9999999999995,
                    "velocity": 0.8976377952755905,
                    "duration": 1.1999999999999886
                },
                {
                    "name": "F5",
                    "midi": 77,
                    "time": 278.9999999999995,
                    "velocity": 0.8976377952755905,
                    "duration": 1.1999999999999886
                },
                {
                    "name": "G5",
                    "midi": 79,
                    "time": 278.9999999999995,
                    "velocity": 0.8976377952755905,
                    "duration": 1.1999999999999886
                },
                {
                    "name": "D6",
                    "midi": 86,
                    "time": 278.9999999999995,
                    "velocity": 0.8976377952755905,
                    "duration": 1.1999999999999886
                },
                {
                    "name": "C5",
                    "midi": 72,
                    "time": 280.1999999999995,
                    "velocity": 0.8976377952755905,
                    "duration": 0.03750000000002274
                },
                {
                    "name": "F5",
                    "midi": 77,
                    "time": 280.1999999999995,
                    "velocity": 0.8976377952755905,
                    "duration": 0.03750000000002274
                },
                {
                    "name": "G5",
                    "midi": 79,
                    "time": 280.1999999999995,
                    "velocity": 0.8976377952755905,
                    "duration": 0.03750000000002274
                },
                {
                    "name": "D6",
                    "midi": 86,
                    "time": 280.1999999999995,
                    "velocity": 0.8976377952755905,
                    "duration": 0.03750000000002274
                },
                {
                    "name": "C5",
                    "midi": 72,
                    "time": 280.3999999999995,
                    "velocity": 0.6929133858267716,
                    "duration": 0.040000000000020464
                },
                {
                    "name": "F5",
                    "midi": 77,
                    "time": 280.3999999999995,
                    "velocity": 0.6929133858267716,
                    "duration": 0.040000000000020464
                },
                {
                    "name": "G5",
                    "midi": 79,
                    "time": 280.3999999999995,
                    "velocity": 0.6929133858267716,
                    "duration": 0.040000000000020464
                },
                {
                    "name": "D6",
                    "midi": 86,
                    "time": 280.3999999999995,
                    "velocity": 0.6929133858267716,
                    "duration": 0.040000000000020464
                },
                {
                    "name": "C5",
                    "midi": 72,
                    "time": 280.59749999999957,
                    "velocity": 0.6929133858267716,
                    "duration": 0.040000000000020464
                },
                {
                    "name": "F5",
                    "midi": 77,
                    "time": 280.59749999999957,
                    "velocity": 0.6929133858267716,
                    "duration": 0.040000000000020464
                },
                {
                    "name": "G5",
                    "midi": 79,
                    "time": 280.59749999999957,
                    "velocity": 0.6929133858267716,
                    "duration": 0.040000000000020464
                },
                {
                    "name": "D6",
                    "midi": 86,
                    "time": 280.59749999999957,
                    "velocity": 0.6929133858267716,
                    "duration": 0.040000000000020464
                },
                {
                    "name": "C6",
                    "midi": 84,
                    "time": 280.7999999999996,
                    "velocity": 0.6929133858267716,
                    "duration": 0.19999999999998863
                },
                {
                    "name": "C7",
                    "midi": 96,
                    "time": 280.9999999999996,
                    "velocity": 0.6929133858267716,
                    "duration": 0.1974999999999909
                },
                {
                    "name": "C6",
                    "midi": 84,
                    "time": 281.1974999999996,
                    "velocity": 0.6929133858267716,
                    "duration": 0.20249999999998636
                },
                {
                    "name": "A#5",
                    "midi": 82,
                    "time": 281.3999999999996,
                    "velocity": 0.6929133858267716,
                    "duration": 0.19999999999998863
                },
                {
                    "name": "C6",
                    "midi": 84,
                    "time": 281.59999999999957,
                    "velocity": 0.6929133858267716,
                    "duration": 0.1974999999999909
                },
                {
                    "name": "A#5",
                    "midi": 82,
                    "time": 281.79749999999956,
                    "velocity": 0.6929133858267716,
                    "duration": 0.20249999999998636
                },
                {
                    "name": "A5",
                    "midi": 81,
                    "time": 281.99999999999955,
                    "velocity": 0.6929133858267716,
                    "duration": 0.19999999999998863
                },
                {
                    "name": "A#5",
                    "midi": 82,
                    "time": 282.19999999999953,
                    "velocity": 0.6929133858267716,
                    "duration": 0.1974999999999909
                },
                {
                    "name": "A5",
                    "midi": 81,
                    "time": 282.3974999999995,
                    "velocity": 0.6929133858267716,
                    "duration": 0.20249999999998636
                },
                {
                    "name": "G5",
                    "midi": 79,
                    "time": 282.5999999999995,
                    "velocity": 0.6929133858267716,
                    "duration": 0.19999999999998863
                },
                {
                    "name": "G6",
                    "midi": 91,
                    "time": 282.7999999999995,
                    "velocity": 0.6929133858267716,
                    "duration": 0.1974999999999909
                },
                {
                    "name": "G5",
                    "midi": 79,
                    "time": 282.9974999999995,
                    "velocity": 0.6929133858267716,
                    "duration": 0.20249999999998636
                },
                {
                    "name": "G#5",
                    "midi": 80,
                    "time": 283.1999999999995,
                    "velocity": 0.6929133858267716,
                    "duration": 0.11750000000000682
                },
                {
                    "name": "C5",
                    "midi": 72,
                    "time": 284.39999999999947,
                    "velocity": 0.8976377952755905,
                    "duration": 0.03750000000002274
                },
                {
                    "name": "F5",
                    "midi": 77,
                    "time": 284.39999999999947,
                    "velocity": 0.8976377952755905,
                    "duration": 0.03750000000002274
                },
                {
                    "name": "G5",
                    "midi": 79,
                    "time": 284.39999999999947,
                    "velocity": 0.8976377952755905,
                    "duration": 0.03750000000002274
                },
                {
                    "name": "D6",
                    "midi": 86,
                    "time": 284.39999999999947,
                    "velocity": 0.8976377952755905,
                    "duration": 0.03750000000002274
                },
                {
                    "name": "C5",
                    "midi": 72,
                    "time": 284.5999999999995,
                    "velocity": 0.6929133858267716,
                    "duration": 0.040000000000020464
                },
                {
                    "name": "F5",
                    "midi": 77,
                    "time": 284.5999999999995,
                    "velocity": 0.6929133858267716,
                    "duration": 0.040000000000020464
                },
                {
                    "name": "G5",
                    "midi": 79,
                    "time": 284.5999999999995,
                    "velocity": 0.6929133858267716,
                    "duration": 0.040000000000020464
                },
                {
                    "name": "D6",
                    "midi": 86,
                    "time": 284.5999999999995,
                    "velocity": 0.6929133858267716,
                    "duration": 0.040000000000020464
                },
                {
                    "name": "C5",
                    "midi": 72,
                    "time": 284.79749999999956,
                    "velocity": 0.6929133858267716,
                    "duration": 0.040000000000020464
                },
                {
                    "name": "F5",
                    "midi": 77,
                    "time": 284.79749999999956,
                    "velocity": 0.6929133858267716,
                    "duration": 0.040000000000020464
                },
                {
                    "name": "G5",
                    "midi": 79,
                    "time": 284.79749999999956,
                    "velocity": 0.6929133858267716,
                    "duration": 0.040000000000020464
                },
                {
                    "name": "D6",
                    "midi": 86,
                    "time": 284.79749999999956,
                    "velocity": 0.6929133858267716,
                    "duration": 0.040000000000020464
                },
                {
                    "name": "E4",
                    "midi": 64,
                    "time": 285.59999999999957,
                    "velocity": 0.6929133858267716,
                    "duration": 0.6000000000000227
                },
                {
                    "name": "G4",
                    "midi": 67,
                    "time": 285.59999999999957,
                    "velocity": 0.6929133858267716,
                    "duration": 0.6000000000000227
                },
                {
                    "name": "C5",
                    "midi": 72,
                    "time": 285.59999999999957,
                    "velocity": 0.6929133858267716,
                    "duration": 0.6000000000000227
                },
                {
                    "name": "C5",
                    "midi": 72,
                    "time": 286.1999999999996,
                    "velocity": 0.8976377952755905,
                    "duration": 0.2400000000000091
                },
                {
                    "name": "F5",
                    "midi": 77,
                    "time": 286.1999999999996,
                    "velocity": 0.8976377952755905,
                    "duration": 0.2400000000000091
                },
                {
                    "name": "G5",
                    "midi": 79,
                    "time": 286.1999999999996,
                    "velocity": 0.8976377952755905,
                    "duration": 0.2400000000000091
                },
                {
                    "name": "D6",
                    "midi": 86,
                    "time": 286.1999999999996,
                    "velocity": 0.8976377952755905,
                    "duration": 0.2400000000000091
                },
                {
                    "name": "C5",
                    "midi": 72,
                    "time": 287.3999999999996,
                    "velocity": 0.8976377952755905,
                    "duration": 0.03750000000002274
                },
                {
                    "name": "F5",
                    "midi": 77,
                    "time": 287.3999999999996,
                    "velocity": 0.8976377952755905,
                    "duration": 0.03750000000002274
                },
                {
                    "name": "G5",
                    "midi": 79,
                    "time": 287.3999999999996,
                    "velocity": 0.8976377952755905,
                    "duration": 0.03750000000002274
                },
                {
                    "name": "D6",
                    "midi": 86,
                    "time": 287.3999999999996,
                    "velocity": 0.8976377952755905,
                    "duration": 0.03750000000002274
                },
                {
                    "name": "C5",
                    "midi": 72,
                    "time": 287.5999999999996,
                    "velocity": 0.6929133858267716,
                    "duration": 0.040000000000020464
                },
                {
                    "name": "F5",
                    "midi": 77,
                    "time": 287.5999999999996,
                    "velocity": 0.6929133858267716,
                    "duration": 0.040000000000020464
                },
                {
                    "name": "G5",
                    "midi": 79,
                    "time": 287.5999999999996,
                    "velocity": 0.6929133858267716,
                    "duration": 0.040000000000020464
                },
                {
                    "name": "D6",
                    "midi": 86,
                    "time": 287.5999999999996,
                    "velocity": 0.6929133858267716,
                    "duration": 0.040000000000020464
                },
                {
                    "name": "C5",
                    "midi": 72,
                    "time": 287.7974999999997,
                    "velocity": 0.6929133858267716,
                    "duration": 0.040000000000020464
                },
                {
                    "name": "F5",
                    "midi": 77,
                    "time": 287.7974999999997,
                    "velocity": 0.6929133858267716,
                    "duration": 0.040000000000020464
                },
                {
                    "name": "G5",
                    "midi": 79,
                    "time": 287.7974999999997,
                    "velocity": 0.6929133858267716,
                    "duration": 0.040000000000020464
                },
                {
                    "name": "D6",
                    "midi": 86,
                    "time": 287.7974999999997,
                    "velocity": 0.6929133858267716,
                    "duration": 0.040000000000020464
                },
                {
                    "name": "E4",
                    "midi": 64,
                    "time": 287.9999999999997,
                    "velocity": 0.6929133858267716,
                    "duration": 0.6000000000000227
                },
                {
                    "name": "G4",
                    "midi": 67,
                    "time": 287.9999999999997,
                    "velocity": 0.6929133858267716,
                    "duration": 0.6000000000000227
                },
                {
                    "name": "C5",
                    "midi": 72,
                    "time": 287.9999999999997,
                    "velocity": 0.6929133858267716,
                    "duration": 0.6000000000000227
                },
                {
                    "name": "G5",
                    "midi": 79,
                    "time": 288.59999999999974,
                    "velocity": 0.6929133858267716,
                    "duration": 0.19999999999998863
                },
                {
                    "name": "G6",
                    "midi": 91,
                    "time": 288.7999999999997,
                    "velocity": 0.6929133858267716,
                    "duration": 0.1974999999999909
                },
                {
                    "name": "G5",
                    "midi": 79,
                    "time": 288.9974999999997,
                    "velocity": 0.6929133858267716,
                    "duration": 0.20249999999998636
                },
                {
                    "name": "A5",
                    "midi": 81,
                    "time": 289.1999999999997,
                    "velocity": 0.6929133858267716,
                    "duration": 0.19999999999998863
                },
                {
                    "name": "A#5",
                    "midi": 82,
                    "time": 289.3999999999997,
                    "velocity": 0.6929133858267716,
                    "duration": 0.1974999999999909
                },
                {
                    "name": "A5",
                    "midi": 81,
                    "time": 289.5974999999997,
                    "velocity": 0.6929133858267716,
                    "duration": 0.20249999999998636
                },
                {
                    "name": "A#5",
                    "midi": 82,
                    "time": 289.79999999999967,
                    "velocity": 0.6929133858267716,
                    "duration": 0.19999999999998863
                },
                {
                    "name": "C6",
                    "midi": 84,
                    "time": 289.99999999999966,
                    "velocity": 0.6929133858267716,
                    "duration": 0.1974999999999909
                },
                {
                    "name": "A#5",
                    "midi": 82,
                    "time": 290.19749999999965,
                    "velocity": 0.6929133858267716,
                    "duration": 0.20249999999998636
                },
                {
                    "name": "C6",
                    "midi": 84,
                    "time": 290.39999999999964,
                    "velocity": 0.6929133858267716,
                    "duration": 0.19999999999998863
                },
                {
                    "name": "C7",
                    "midi": 96,
                    "time": 290.5999999999996,
                    "velocity": 0.6929133858267716,
                    "duration": 0.1974999999999909
                },
                {
                    "name": "C6",
                    "midi": 84,
                    "time": 290.7974999999996,
                    "velocity": 0.6929133858267716,
                    "duration": 0.20249999999998636
                },
                {
                    "name": "A#5",
                    "midi": 82,
                    "time": 290.9999999999996,
                    "velocity": 0.6929133858267716,
                    "duration": 0.19999999999998863
                },
                {
                    "name": "C6",
                    "midi": 84,
                    "time": 291.1999999999996,
                    "velocity": 0.6929133858267716,
                    "duration": 0.1974999999999909
                },
                {
                    "name": "A#5",
                    "midi": 82,
                    "time": 291.3974999999996,
                    "velocity": 0.6929133858267716,
                    "duration": 0.20249999999998636
                },
                {
                    "name": "A5",
                    "midi": 81,
                    "time": 291.59999999999957,
                    "velocity": 0.6929133858267716,
                    "duration": 0.19999999999998863
                },
                {
                    "name": "A#5",
                    "midi": 82,
                    "time": 291.79999999999956,
                    "velocity": 0.6929133858267716,
                    "duration": 0.1974999999999909
                },
                {
                    "name": "A5",
                    "midi": 81,
                    "time": 291.99749999999955,
                    "velocity": 0.6929133858267716,
                    "duration": 0.20249999999998636
                },
                {
                    "name": "G5",
                    "midi": 79,
                    "time": 292.19999999999953,
                    "velocity": 0.6929133858267716,
                    "duration": 0.19999999999998863
                },
                {
                    "name": "G6",
                    "midi": 91,
                    "time": 292.3999999999995,
                    "velocity": 0.6929133858267716,
                    "duration": 0.1974999999999909
                },
                {
                    "name": "G5",
                    "midi": 79,
                    "time": 292.5974999999995,
                    "velocity": 0.6929133858267716,
                    "duration": 0.20249999999998636
                },
                {
                    "name": "A5",
                    "midi": 81,
                    "time": 292.7999999999995,
                    "velocity": 0.6929133858267716,
                    "duration": 0.19999999999998863
                },
                {
                    "name": "A#5",
                    "midi": 82,
                    "time": 292.9999999999995,
                    "velocity": 0.6929133858267716,
                    "duration": 0.1974999999999909
                },
                {
                    "name": "A5",
                    "midi": 81,
                    "time": 293.1974999999995,
                    "velocity": 0.6929133858267716,
                    "duration": 0.20249999999998636
                },
                {
                    "name": "A#5",
                    "midi": 82,
                    "time": 293.39999999999947,
                    "velocity": 0.6929133858267716,
                    "duration": 0.19999999999998863
                },
                {
                    "name": "C6",
                    "midi": 84,
                    "time": 293.59999999999945,
                    "velocity": 0.6929133858267716,
                    "duration": 0.1974999999999909
                },
                {
                    "name": "A#5",
                    "midi": 82,
                    "time": 293.79749999999945,
                    "velocity": 0.6929133858267716,
                    "duration": 0.20249999999998636
                },
                {
                    "name": "C6",
                    "midi": 84,
                    "time": 293.99999999999943,
                    "velocity": 0.6929133858267716,
                    "duration": 0.19999999999998863
                },
                {
                    "name": "C7",
                    "midi": 96,
                    "time": 294.1999999999994,
                    "velocity": 0.6929133858267716,
                    "duration": 0.1974999999999909
                },
                {
                    "name": "C6",
                    "midi": 84,
                    "time": 294.3974999999994,
                    "velocity": 0.6929133858267716,
                    "duration": 0.20249999999998636
                },
                {
                    "name": "A#5",
                    "midi": 82,
                    "time": 294.5999999999994,
                    "velocity": 0.6929133858267716,
                    "duration": 0.19999999999998863
                },
                {
                    "name": "C6",
                    "midi": 84,
                    "time": 294.7999999999994,
                    "velocity": 0.6929133858267716,
                    "duration": 0.1974999999999909
                },
                {
                    "name": "A#5",
                    "midi": 82,
                    "time": 294.9974999999994,
                    "velocity": 0.6929133858267716,
                    "duration": 0.20249999999998636
                },
                {
                    "name": "A5",
                    "midi": 81,
                    "time": 295.19999999999936,
                    "velocity": 0.6929133858267716,
                    "duration": 0.19999999999998863
                },
                {
                    "name": "A#5",
                    "midi": 82,
                    "time": 295.39999999999935,
                    "velocity": 0.6929133858267716,
                    "duration": 0.1974999999999909
                },
                {
                    "name": "A5",
                    "midi": 81,
                    "time": 295.59749999999934,
                    "velocity": 0.6929133858267716,
                    "duration": 0.20249999999998636
                },
                {
                    "name": "G5",
                    "midi": 79,
                    "time": 295.79999999999933,
                    "velocity": 0.6929133858267716,
                    "duration": 0.19999999999998863
                },
                {
                    "name": "G6",
                    "midi": 91,
                    "time": 295.9999999999993,
                    "velocity": 0.6929133858267716,
                    "duration": 0.1974999999999909
                },
                {
                    "name": "G5",
                    "midi": 79,
                    "time": 296.1974999999993,
                    "velocity": 0.6929133858267716,
                    "duration": 0.20249999999998636
                },
                {
                    "name": "A5",
                    "midi": 81,
                    "time": 296.3999999999993,
                    "velocity": 0.6929133858267716,
                    "duration": 0.07749999999998636
                },
                {
                    "name": "D4",
                    "midi": 62,
                    "time": 296.7974999999993,
                    "velocity": 0.8976377952755905,
                    "duration": 0.07999999999998408
                },
                {
                    "name": "G4",
                    "midi": 67,
                    "time": 296.7974999999993,
                    "velocity": 0.8976377952755905,
                    "duration": 0.07999999999998408
                },
                {
                    "name": "C5",
                    "midi": 72,
                    "time": 296.7974999999993,
                    "velocity": 0.8976377952755905,
                    "duration": 0.07999999999998408
                },
                {
                    "name": "G4",
                    "midi": 67,
                    "time": 297.19999999999925,
                    "velocity": 0.8976377952755905,
                    "duration": 0.07999999999998408
                },
                {
                    "name": "C5",
                    "midi": 72,
                    "time": 297.19999999999925,
                    "velocity": 0.8976377952755905,
                    "duration": 0.07999999999998408
                },
                {
                    "name": "F5",
                    "midi": 77,
                    "time": 297.19999999999925,
                    "velocity": 0.8976377952755905,
                    "duration": 0.07999999999998408
                },
                {
                    "name": "C#4",
                    "midi": 61,
                    "time": 297.5999999999992,
                    "velocity": 0.6929133858267716,
                    "duration": 0.11750000000000682
                },
                {
                    "name": "E4",
                    "midi": 64,
                    "time": 297.5999999999992,
                    "velocity": 0.6929133858267716,
                    "duration": 0.11750000000000682
                },
                {
                    "name": "G4",
                    "midi": 67,
                    "time": 297.5999999999992,
                    "velocity": 0.6929133858267716,
                    "duration": 0.11750000000000682
                },
                {
                    "name": "C5",
                    "midi": 72,
                    "time": 297.5999999999992,
                    "velocity": 0.6929133858267716,
                    "duration": 0.11750000000000682
                },
                {
                    "name": "C5",
                    "midi": 72,
                    "time": 298.19999999999925,
                    "velocity": 0.8976377952755905,
                    "duration": 0.11750000000000682
                },
                {
                    "name": "F5",
                    "midi": 77,
                    "time": 298.19999999999925,
                    "velocity": 0.8976377952755905,
                    "duration": 0.11750000000000682
                },
                {
                    "name": "A#5",
                    "midi": 82,
                    "time": 298.19999999999925,
                    "velocity": 0.8976377952755905,
                    "duration": 0.11750000000000682
                },
                {
                    "name": "F5",
                    "midi": 77,
                    "time": 299.5999999999993,
                    "velocity": 0.8976377952755905,
                    "duration": 0.07999999999998408
                },
                {
                    "name": "A#5",
                    "midi": 82,
                    "time": 299.5999999999993,
                    "velocity": 0.8976377952755905,
                    "duration": 0.07999999999998408
                },
                {
                    "name": "D#6",
                    "midi": 87,
                    "time": 299.5999999999993,
                    "velocity": 0.8976377952755905,
                    "duration": 0.07999999999998408
                },
                {
                    "name": "G#4",
                    "midi": 68,
                    "time": 365.24999999999926,
                    "velocity": 0.6929133858267716,
                    "duration": 0.14999999999997726
                },
                {
                    "name": "A#5",
                    "midi": 82,
                    "time": 365.39999999999924,
                    "velocity": 0.6929133858267716,
                    "duration": 0.11750000000000682
                },
                {
                    "name": "G#4",
                    "midi": 68,
                    "time": 365.8499999999992,
                    "velocity": 0.6929133858267716,
                    "duration": 0.14999999999997726
                },
                {
                    "name": "A#5",
                    "midi": 82,
                    "time": 365.9999999999992,
                    "velocity": 0.6929133858267716,
                    "duration": 0.11750000000000682
                },
                {
                    "name": "G#4",
                    "midi": 68,
                    "time": 366.4499999999992,
                    "velocity": 0.6929133858267716,
                    "duration": 0.14999999999997726
                },
                {
                    "name": "A#5",
                    "midi": 82,
                    "time": 366.59999999999917,
                    "velocity": 0.6929133858267716,
                    "duration": 0.11750000000000682
                },
                {
                    "name": "G#4",
                    "midi": 68,
                    "time": 367.04999999999916,
                    "velocity": 0.6929133858267716,
                    "duration": 0.14999999999997726
                },
                {
                    "name": "A#5",
                    "midi": 82,
                    "time": 367.19999999999914,
                    "velocity": 0.6929133858267716,
                    "duration": 0.11750000000000682
                },
                {
                    "name": "G#4",
                    "midi": 68,
                    "time": 367.6499999999991,
                    "velocity": 0.6929133858267716,
                    "duration": 0.14999999999997726
                },
                {
                    "name": "A#5",
                    "midi": 82,
                    "time": 367.7999999999991,
                    "velocity": 0.6929133858267716,
                    "duration": 0.11750000000000682
                },
                {
                    "name": "G#4",
                    "midi": 68,
                    "time": 368.2499999999991,
                    "velocity": 0.6929133858267716,
                    "duration": 0.14999999999997726
                },
                {
                    "name": "A#5",
                    "midi": 82,
                    "time": 368.39999999999907,
                    "velocity": 0.6929133858267716,
                    "duration": 0.11750000000000682
                },
                {
                    "name": "G#4",
                    "midi": 68,
                    "time": 368.84999999999906,
                    "velocity": 0.6929133858267716,
                    "duration": 0.14999999999997726
                },
                {
                    "name": "A#5",
                    "midi": 82,
                    "time": 368.99999999999903,
                    "velocity": 0.6929133858267716,
                    "duration": 0.11750000000000682
                },
                {
                    "name": "A#4",
                    "midi": 70,
                    "time": 369.449999999999,
                    "velocity": 0.6929133858267716,
                    "duration": 0.7499999999999432
                },
                {
                    "name": "A#5",
                    "midi": 82,
                    "time": 369.599999999999,
                    "velocity": 0.6929133858267716,
                    "duration": 0.5999999999999659
                },
                {
                    "name": "A#5",
                    "midi": 82,
                    "time": 370.049999999999,
                    "velocity": 0.6929133858267716,
                    "duration": 0.14999999999997726
                },
                {
                    "name": "G#4",
                    "midi": 68,
                    "time": 370.19999999999897,
                    "velocity": 0.6929133858267716,
                    "duration": 0.5999999999999659
                },
                {
                    "name": "F4",
                    "midi": 65,
                    "time": 370.64999999999895,
                    "velocity": 0.6929133858267716,
                    "duration": 0.7499999999999432
                },
                {
                    "name": "G5",
                    "midi": 79,
                    "time": 370.79999999999893,
                    "velocity": 0.6929133858267716,
                    "duration": 0.5999999999999659
                },
                {
                    "name": "G5",
                    "midi": 79,
                    "time": 371.2499999999989,
                    "velocity": 0.6929133858267716,
                    "duration": 0.14999999999997726
                },
                {
                    "name": "F4",
                    "midi": 65,
                    "time": 371.3999999999989,
                    "velocity": 0.6929133858267716,
                    "duration": 0.5999999999999659
                },
                {
                    "name": "F4",
                    "midi": 65,
                    "time": 371.8499999999989,
                    "velocity": 0.6929133858267716,
                    "duration": 0.75
                },
                {
                    "name": "G5",
                    "midi": 79,
                    "time": 371.99999999999886,
                    "velocity": 0.6929133858267716,
                    "duration": 0.6000000000000227
                },
                {
                    "name": "G5",
                    "midi": 79,
                    "time": 374.8499999999989,
                    "velocity": 0.6929133858267716,
                    "duration": 0.14999999999997726
                },
                {
                    "name": "F4",
                    "midi": 65,
                    "time": 374.99999999999886,
                    "velocity": 0.6929133858267716,
                    "duration": 0.5999999999999659
                },
                {
                    "name": "F4",
                    "midi": 65,
                    "time": 375.44999999999885,
                    "velocity": 0.6929133858267716,
                    "duration": 0.7499999999999432
                },
                {
                    "name": "G5",
                    "midi": 79,
                    "time": 375.59999999999883,
                    "velocity": 0.6929133858267716,
                    "duration": 0.5999999999999659
                },
                {
                    "name": "G#5",
                    "midi": 80,
                    "time": 376.0499999999988,
                    "velocity": 0.6929133858267716,
                    "duration": 0.14999999999997726
                },
                {
                    "name": "G#4",
                    "midi": 68,
                    "time": 376.1999999999988,
                    "velocity": 0.6929133858267716,
                    "duration": 0.5999999999999659
                },
                {
                    "name": "A#4",
                    "midi": 70,
                    "time": 376.6499999999988,
                    "velocity": 0.6929133858267716,
                    "duration": 0.7499999999999432
                },
                {
                    "name": "A#5",
                    "midi": 82,
                    "time": 376.79999999999876,
                    "velocity": 0.6929133858267716,
                    "duration": 0.5999999999999659
                },
                {
                    "name": "A#5",
                    "midi": 82,
                    "time": 377.24999999999875,
                    "velocity": 0.6929133858267716,
                    "duration": 0.14999999999997726
                },
                {
                    "name": "G#4",
                    "midi": 68,
                    "time": 377.3999999999987,
                    "velocity": 0.6929133858267716,
                    "duration": 0.5999999999999659
                },
                {
                    "name": "F4",
                    "midi": 65,
                    "time": 377.8499999999987,
                    "velocity": 0.6929133858267716,
                    "duration": 0.7499999999999432
                },
                {
                    "name": "G5",
                    "midi": 79,
                    "time": 377.9999999999987,
                    "velocity": 0.6929133858267716,
                    "duration": 0.5999999999999659
                },
                {
                    "name": "G5",
                    "midi": 79,
                    "time": 378.4499999999987,
                    "velocity": 0.6929133858267716,
                    "duration": 0.14999999999997726
                },
                {
                    "name": "F4",
                    "midi": 65,
                    "time": 378.59999999999866,
                    "velocity": 0.6929133858267716,
                    "duration": 0.5999999999999659
                },
                {
                    "name": "F4",
                    "midi": 65,
                    "time": 379.04999999999865,
                    "velocity": 0.6929133858267716,
                    "duration": 0.7499999999999432
                },
                {
                    "name": "G5",
                    "midi": 79,
                    "time": 379.1999999999986,
                    "velocity": 0.6929133858267716,
                    "duration": 0.5999999999999659
                },
                {
                    "name": "G#5",
                    "midi": 80,
                    "time": 379.6499999999986,
                    "velocity": 0.6929133858267716,
                    "duration": 0.14999999999997726
                },
                {
                    "name": "G#4",
                    "midi": 68,
                    "time": 379.7999999999986,
                    "velocity": 0.6929133858267716,
                    "duration": 0.5999999999999659
                },
                {
                    "name": "A#4",
                    "midi": 70,
                    "time": 380.2499999999986,
                    "velocity": 0.6929133858267716,
                    "duration": 0.7499999999999432
                },
                {
                    "name": "A#5",
                    "midi": 82,
                    "time": 380.39999999999856,
                    "velocity": 0.6929133858267716,
                    "duration": 0.5999999999999659
                },
                {
                    "name": "A#5",
                    "midi": 82,
                    "time": 380.84999999999854,
                    "velocity": 0.6929133858267716,
                    "duration": 0.14999999999997726
                },
                {
                    "name": "G#4",
                    "midi": 68,
                    "time": 380.9999999999985,
                    "velocity": 0.6929133858267716,
                    "duration": 0.5999999999999659
                },
                {
                    "name": "F4",
                    "midi": 65,
                    "time": 381.4499999999985,
                    "velocity": 0.6929133858267716,
                    "duration": 0.7499999999999432
                },
                {
                    "name": "G5",
                    "midi": 79,
                    "time": 381.5999999999985,
                    "velocity": 0.6929133858267716,
                    "duration": 0.5999999999999659
                },
                {
                    "name": "G5",
                    "midi": 79,
                    "time": 382.0499999999985,
                    "velocity": 0.6929133858267716,
                    "duration": 0.14999999999997726
                },
                {
                    "name": "F4",
                    "midi": 65,
                    "time": 382.19999999999845,
                    "velocity": 0.6929133858267716,
                    "duration": 0.5999999999999659
                },
                {
                    "name": "F4",
                    "midi": 65,
                    "time": 382.64999999999844,
                    "velocity": 0.6929133858267716,
                    "duration": 0.75
                },
                {
                    "name": "G5",
                    "midi": 79,
                    "time": 382.7999999999984,
                    "velocity": 0.6929133858267716,
                    "duration": 0.6000000000000227
                },
                {
                    "name": "A#4",
                    "midi": 70,
                    "time": 384.59999999999843,
                    "velocity": 1,
                    "duration": 0.11750000000000682
                },
                {
                    "name": "C#5",
                    "midi": 73,
                    "time": 384.59999999999843,
                    "velocity": 1,
                    "duration": 0.11750000000000682
                },
                {
                    "name": "D#5",
                    "midi": 75,
                    "time": 384.59999999999843,
                    "velocity": 1,
                    "duration": 0.11750000000000682
                },
                {
                    "name": "F#5",
                    "midi": 78,
                    "time": 384.59999999999843,
                    "velocity": 1,
                    "duration": 0.11750000000000682
                },
                {
                    "name": "A#5",
                    "midi": 82,
                    "time": 384.59999999999843,
                    "velocity": 1,
                    "duration": 0.11750000000000682
                },
                {
                    "name": "B6",
                    "midi": 95,
                    "time": 390.59999999999843,
                    "velocity": 0.6929133858267716,
                    "duration": 0.19999999999998863
                },
                {
                    "name": "C7",
                    "midi": 96,
                    "time": 390.7999999999984,
                    "velocity": 0.6929133858267716,
                    "duration": 0.1974999999999909
                },
                {
                    "name": "D7",
                    "midi": 98,
                    "time": 390.9974999999984,
                    "velocity": 0.6929133858267716,
                    "duration": 0.20249999999998636
                },
                {
                    "name": "E7",
                    "midi": 100,
                    "time": 391.1999999999984,
                    "velocity": 0.6929133858267716,
                    "duration": 0.6000000000000227
                },
                {
                    "name": "B6",
                    "midi": 95,
                    "time": 391.7999999999984,
                    "velocity": 0.6929133858267716,
                    "duration": 0.14999999999997726
                },
                {
                    "name": "G#6",
                    "midi": 92,
                    "time": 391.9499999999984,
                    "velocity": 0.6929133858267716,
                    "duration": 0.14999999999997726
                },
                {
                    "name": "E6",
                    "midi": 88,
                    "time": 392.0999999999984,
                    "velocity": 0.6929133858267716,
                    "duration": 0.14999999999997726
                },
                {
                    "name": "D6",
                    "midi": 86,
                    "time": 392.24999999999835,
                    "velocity": 0.6929133858267716,
                    "duration": 0.14999999999997726
                },
                {
                    "name": "B5",
                    "midi": 83,
                    "time": 392.39999999999833,
                    "velocity": 0.6929133858267716,
                    "duration": 0.6000000000000227
                },
                {
                    "name": "G5",
                    "midi": 79,
                    "time": 392.99999999999835,
                    "velocity": 0.6929133858267716,
                    "duration": 0.14999999999997726
                },
                {
                    "name": "A5",
                    "midi": 81,
                    "time": 393.14999999999833,
                    "velocity": 0.6929133858267716,
                    "duration": 0.14999999999997726
                },
                {
                    "name": "G5",
                    "midi": 79,
                    "time": 393.2999999999983,
                    "velocity": 0.6929133858267716,
                    "duration": 0.14999999999997726
                },
                {
                    "name": "A5",
                    "midi": 81,
                    "time": 393.4499999999983,
                    "velocity": 0.6929133858267716,
                    "duration": 0.14999999999997726
                },
                {
                    "name": "G5",
                    "midi": 79,
                    "time": 393.59999999999826,
                    "velocity": 0.5905511811023622,
                    "duration": 0.19999999999998863
                },
                {
                    "name": "C6",
                    "midi": 84,
                    "time": 393.79999999999825,
                    "velocity": 0.5905511811023622,
                    "duration": 0.1974999999999909
                },
                {
                    "name": "G5",
                    "midi": 79,
                    "time": 393.99749999999824,
                    "velocity": 0.5905511811023622,
                    "duration": 0.20249999999998636
                },
                {
                    "name": "E5",
                    "midi": 76,
                    "time": 394.1999999999982,
                    "velocity": 0.5905511811023622,
                    "duration": 0.19999999999998863
                },
                {
                    "name": "C5",
                    "midi": 72,
                    "time": 394.3999999999982,
                    "velocity": 0.5905511811023622,
                    "duration": 0.1974999999999909
                },
                {
                    "name": "G4",
                    "midi": 67,
                    "time": 394.5974999999982,
                    "velocity": 0.5905511811023622,
                    "duration": 0.20249999999998636
                },
                {
                    "name": "C4",
                    "midi": 60,
                    "time": 394.7999999999982,
                    "velocity": 0.3858267716535433,
                    "duration": 0.14999999999997726
                },
                {
                    "name": "D4",
                    "midi": 62,
                    "time": 394.94999999999817,
                    "velocity": 0.3858267716535433,
                    "duration": 0.14999999999997726
                },
                {
                    "name": "C4",
                    "midi": 60,
                    "time": 395.09999999999815,
                    "velocity": 0.3858267716535433,
                    "duration": 0.14999999999997726
                },
                {
                    "name": "D4",
                    "midi": 62,
                    "time": 395.2499999999981,
                    "velocity": 0.3858267716535433,
                    "duration": 0.14999999999997726
                },
                {
                    "name": "C4",
                    "midi": 60,
                    "time": 395.3999999999981,
                    "velocity": 0.3858267716535433,
                    "duration": 0.14999999999997726
                },
                {
                    "name": "D4",
                    "midi": 62,
                    "time": 395.5499999999981,
                    "velocity": 0.3858267716535433,
                    "duration": 0.14999999999997726
                },
                {
                    "name": "C4",
                    "midi": 60,
                    "time": 395.69999999999806,
                    "velocity": 0.3858267716535433,
                    "duration": 0.14999999999997726
                },
                {
                    "name": "D4",
                    "midi": 62,
                    "time": 395.84999999999803,
                    "velocity": 0.3858267716535433,
                    "duration": 0.14999999999997726
                },
                {
                    "name": "C4",
                    "midi": 60,
                    "time": 395.999999999998,
                    "velocity": 0.3858267716535433,
                    "duration": 0.14999999999997726
                },
                {
                    "name": "D4",
                    "midi": 62,
                    "time": 396.149999999998,
                    "velocity": 0.3858267716535433,
                    "duration": 0.14999999999997726
                },
                {
                    "name": "C4",
                    "midi": 60,
                    "time": 396.29999999999797,
                    "velocity": 0.3858267716535433,
                    "duration": 0.14999999999997726
                },
                {
                    "name": "D4",
                    "midi": 62,
                    "time": 396.44999999999794,
                    "velocity": 0.3858267716535433,
                    "duration": 0.14999999999997726
                },
                {
                    "name": "C4",
                    "midi": 60,
                    "time": 396.5999999999979,
                    "velocity": 0.3858267716535433,
                    "duration": 0.14999999999997726
                },
                {
                    "name": "D4",
                    "midi": 62,
                    "time": 396.7499999999979,
                    "velocity": 0.3858267716535433,
                    "duration": 0.14999999999997726
                },
                {
                    "name": "C4",
                    "midi": 60,
                    "time": 396.8999999999979,
                    "velocity": 0.3858267716535433,
                    "duration": 0.14999999999997726
                },
                {
                    "name": "D4",
                    "midi": 62,
                    "time": 397.04999999999785,
                    "velocity": 0.3858267716535433,
                    "duration": 0.14999999999997726
                },
                {
                    "name": "C4",
                    "midi": 60,
                    "time": 397.19999999999783,
                    "velocity": 0.3858267716535433,
                    "duration": 0.14999999999997726
                },
                {
                    "name": "D4",
                    "midi": 62,
                    "time": 397.3499999999978,
                    "velocity": 0.3858267716535433,
                    "duration": 0.14999999999997726
                },
                {
                    "name": "C4",
                    "midi": 60,
                    "time": 397.4999999999978,
                    "velocity": 0.3858267716535433,
                    "duration": 0.14999999999997726
                },
                {
                    "name": "D4",
                    "midi": 62,
                    "time": 397.64999999999776,
                    "velocity": 0.3858267716535433,
                    "duration": 0.14999999999997726
                },
                {
                    "name": "C4",
                    "midi": 60,
                    "time": 397.79999999999774,
                    "velocity": 0.3858267716535433,
                    "duration": 0.14999999999997726
                },
                {
                    "name": "D4",
                    "midi": 62,
                    "time": 397.9499999999977,
                    "velocity": 0.3858267716535433,
                    "duration": 0.14999999999997726
                },
                {
                    "name": "C4",
                    "midi": 60,
                    "time": 398.0999999999977,
                    "velocity": 0.3858267716535433,
                    "duration": 0.14999999999997726
                },
                {
                    "name": "D4",
                    "midi": 62,
                    "time": 398.24999999999767,
                    "velocity": 0.3858267716535433,
                    "duration": 0.14999999999997726
                },
                {
                    "name": "C4",
                    "midi": 60,
                    "time": 398.39999999999765,
                    "velocity": 0.3858267716535433,
                    "duration": 0.14999999999997726
                },
                {
                    "name": "D4",
                    "midi": 62,
                    "time": 398.5499999999976,
                    "velocity": 0.3858267716535433,
                    "duration": 0.14999999999997726
                },
                {
                    "name": "C4",
                    "midi": 60,
                    "time": 398.6999999999976,
                    "velocity": 0.3858267716535433,
                    "duration": 0.14999999999997726
                },
                {
                    "name": "D4",
                    "midi": 62,
                    "time": 398.8499999999976,
                    "velocity": 0.3858267716535433,
                    "duration": 0.14999999999997726
                },
                {
                    "name": "C4",
                    "midi": 60,
                    "time": 398.99999999999756,
                    "velocity": 0.3858267716535433,
                    "duration": 0.14999999999997726
                },
                {
                    "name": "D4",
                    "midi": 62,
                    "time": 399.14999999999753,
                    "velocity": 0.3858267716535433,
                    "duration": 0.14999999999997726
                },
                {
                    "name": "C4",
                    "midi": 60,
                    "time": 399.2999999999975,
                    "velocity": 0.3858267716535433,
                    "duration": 0.14999999999997726
                },
                {
                    "name": "D4",
                    "midi": 62,
                    "time": 399.4499999999975,
                    "velocity": 0.3858267716535433,
                    "duration": 0.14999999999997726
                },
                {
                    "name": "C4",
                    "midi": 60,
                    "time": 399.59999999999746,
                    "velocity": 0.3858267716535433,
                    "duration": 0.14999999999997726
                },
                {
                    "name": "D4",
                    "midi": 62,
                    "time": 399.74999999999744,
                    "velocity": 0.3858267716535433,
                    "duration": 0.14999999999997726
                },
                {
                    "name": "C4",
                    "midi": 60,
                    "time": 399.8999999999974,
                    "velocity": 0.3858267716535433,
                    "duration": 0.14999999999997726
                },
                {
                    "name": "D4",
                    "midi": 62,
                    "time": 400.0499999999974,
                    "velocity": 0.3858267716535433,
                    "duration": 0.14999999999997726
                },
                {
                    "name": "C4",
                    "midi": 60,
                    "time": 400.1999999999974,
                    "velocity": 0.3858267716535433,
                    "duration": 0.14999999999997726
                },
                {
                    "name": "D4",
                    "midi": 62,
                    "time": 400.34999999999735,
                    "velocity": 0.3858267716535433,
                    "duration": 0.14999999999997726
                },
                {
                    "name": "C4",
                    "midi": 60,
                    "time": 400.4999999999973,
                    "velocity": 0.3858267716535433,
                    "duration": 0.14999999999997726
                },
                {
                    "name": "D4",
                    "midi": 62,
                    "time": 400.6499999999973,
                    "velocity": 0.3858267716535433,
                    "duration": 0.14999999999997726
                },
                {
                    "name": "C4",
                    "midi": 60,
                    "time": 400.7999999999973,
                    "velocity": 0.3858267716535433,
                    "duration": 0.14999999999997726
                },
                {
                    "name": "D4",
                    "midi": 62,
                    "time": 400.94999999999726,
                    "velocity": 0.3858267716535433,
                    "duration": 0.14999999999997726
                },
                {
                    "name": "C4",
                    "midi": 60,
                    "time": 401.09999999999724,
                    "velocity": 0.3858267716535433,
                    "duration": 0.14999999999997726
                },
                {
                    "name": "D4",
                    "midi": 62,
                    "time": 401.2499999999972,
                    "velocity": 0.3858267716535433,
                    "duration": 0.14999999999997726
                },
                {
                    "name": "C4",
                    "midi": 60,
                    "time": 401.3999999999972,
                    "velocity": 0.3858267716535433,
                    "duration": 0.14999999999997726
                },
                {
                    "name": "D4",
                    "midi": 62,
                    "time": 401.54999999999717,
                    "velocity": 0.3858267716535433,
                    "duration": 0.14999999999997726
                },
                {
                    "name": "C4",
                    "midi": 60,
                    "time": 401.69999999999715,
                    "velocity": 0.3858267716535433,
                    "duration": 0.14999999999997726
                },
                {
                    "name": "D4",
                    "midi": 62,
                    "time": 401.8499999999971,
                    "velocity": 0.3858267716535433,
                    "duration": 0.14999999999997726
                },
                {
                    "name": "C4",
                    "midi": 60,
                    "time": 401.9999999999971,
                    "velocity": 0.3858267716535433,
                    "duration": 0.14999999999997726
                },
                {
                    "name": "D4",
                    "midi": 62,
                    "time": 402.1499999999971,
                    "velocity": 0.3858267716535433,
                    "duration": 0.14999999999997726
                },
                {
                    "name": "C4",
                    "midi": 60,
                    "time": 402.29999999999706,
                    "velocity": 0.3858267716535433,
                    "duration": 0.14999999999997726
                },
                {
                    "name": "D4",
                    "midi": 62,
                    "time": 402.44999999999703,
                    "velocity": 0.3858267716535433,
                    "duration": 0.14999999999997726
                },
                {
                    "name": "C4",
                    "midi": 60,
                    "time": 402.599999999997,
                    "velocity": 0.3858267716535433,
                    "duration": 0.14999999999997726
                },
                {
                    "name": "D4",
                    "midi": 62,
                    "time": 402.749999999997,
                    "velocity": 0.3858267716535433,
                    "duration": 0.14999999999997726
                },
                {
                    "name": "C4",
                    "midi": 60,
                    "time": 402.89999999999696,
                    "velocity": 0.3858267716535433,
                    "duration": 0.14999999999997726
                },
                {
                    "name": "D4",
                    "midi": 62,
                    "time": 403.04999999999694,
                    "velocity": 0.3858267716535433,
                    "duration": 0.14999999999997726
                },
                {
                    "name": "C4",
                    "midi": 60,
                    "time": 403.1999999999969,
                    "velocity": 0.3858267716535433,
                    "duration": 0.14999999999997726
                },
                {
                    "name": "D4",
                    "midi": 62,
                    "time": 403.3499999999969,
                    "velocity": 0.3858267716535433,
                    "duration": 0.14999999999997726
                },
                {
                    "name": "C4",
                    "midi": 60,
                    "time": 403.4999999999969,
                    "velocity": 0.3858267716535433,
                    "duration": 0.14999999999997726
                },
                {
                    "name": "D4",
                    "midi": 62,
                    "time": 403.64999999999685,
                    "velocity": 0.3858267716535433,
                    "duration": 0.14999999999997726
                },
                {
                    "name": "C4",
                    "midi": 60,
                    "time": 403.7999999999968,
                    "velocity": 0.3858267716535433,
                    "duration": 0.14999999999997726
                },
                {
                    "name": "D4",
                    "midi": 62,
                    "time": 403.9499999999968,
                    "velocity": 0.3858267716535433,
                    "duration": 0.14999999999997726
                },
                {
                    "name": "C4",
                    "midi": 60,
                    "time": 404.0999999999968,
                    "velocity": 0.3858267716535433,
                    "duration": 0.14999999999997726
                },
                {
                    "name": "D4",
                    "midi": 62,
                    "time": 404.24999999999676,
                    "velocity": 0.3858267716535433,
                    "duration": 0.14999999999997726
                },
                {
                    "name": "C4",
                    "midi": 60,
                    "time": 404.39999999999674,
                    "velocity": 0.3858267716535433,
                    "duration": 0.14999999999997726
                },
                {
                    "name": "D4",
                    "midi": 62,
                    "time": 404.5499999999967,
                    "velocity": 0.3858267716535433,
                    "duration": 0.14999999999997726
                },
                {
                    "name": "C4",
                    "midi": 60,
                    "time": 404.6999999999967,
                    "velocity": 0.3858267716535433,
                    "duration": 0.14999999999997726
                },
                {
                    "name": "D4",
                    "midi": 62,
                    "time": 404.84999999999667,
                    "velocity": 0.3858267716535433,
                    "duration": 0.14999999999997726
                },
                {
                    "name": "G4",
                    "midi": 67,
                    "time": 404.99999999999665,
                    "velocity": 0.4881889763779528,
                    "duration": 0.19999999999998863
                },
                {
                    "name": "A4",
                    "midi": 69,
                    "time": 405.19999999999663,
                    "velocity": 0.4881889763779528,
                    "duration": 0.1974999999999909
                },
                {
                    "name": "B4",
                    "midi": 71,
                    "time": 405.3974999999966,
                    "velocity": 0.4881889763779528,
                    "duration": 0.20249999999998636
                },
                {
                    "name": "C5",
                    "midi": 72,
                    "time": 405.5999999999966,
                    "velocity": 0.4881889763779528,
                    "duration": 0.11750000000000682
                },
                {
                    "name": "G4",
                    "midi": 67,
                    "time": 406.19999999999663,
                    "velocity": 0.4881889763779528,
                    "duration": 0.19999999999998863
                },
                {
                    "name": "A4",
                    "midi": 69,
                    "time": 406.3999999999966,
                    "velocity": 0.4881889763779528,
                    "duration": 0.1974999999999909
                },
                {
                    "name": "B4",
                    "midi": 71,
                    "time": 406.5974999999966,
                    "velocity": 0.4881889763779528,
                    "duration": 0.20249999999998636
                },
                {
                    "name": "E4",
                    "midi": 64,
                    "time": 406.7999999999966,
                    "velocity": 0.4881889763779528,
                    "duration": 0.05750000000000455
                },
                {
                    "name": "C5",
                    "midi": 72,
                    "time": 406.7999999999966,
                    "velocity": 0.4881889763779528,
                    "duration": 0.05750000000000455
                },
                {
                    "name": "G4",
                    "midi": 67,
                    "time": 407.0999999999966,
                    "velocity": 0.4881889763779528,
                    "duration": 0.05750000000000455
                },
                {
                    "name": "C5",
                    "midi": 72,
                    "time": 407.3999999999966,
                    "velocity": 0.4881889763779528,
                    "duration": 0.05750000000000455
                },
                {
                    "name": "E5",
                    "midi": 76,
                    "time": 407.69999999999663,
                    "velocity": 0.4881889763779528,
                    "duration": 0.05750000000000455
                },
                {
                    "name": "G5",
                    "midi": 79,
                    "time": 407.99999999999665,
                    "velocity": 0.4881889763779528,
                    "duration": 0.05750000000000455
                },
                {
                    "name": "E5",
                    "midi": 76,
                    "time": 408.29999999999666,
                    "velocity": 0.4881889763779528,
                    "duration": 0.05750000000000455
                },
                {
                    "name": "C5",
                    "midi": 72,
                    "time": 408.59999999999667,
                    "velocity": 0.4881889763779528,
                    "duration": 0.05750000000000455
                },
                {
                    "name": "G4",
                    "midi": 67,
                    "time": 408.8999999999967,
                    "velocity": 0.4881889763779528,
                    "duration": 0.03750000000002274
                },
                {
                    "name": "G4",
                    "midi": 67,
                    "time": 408.9749999999967,
                    "velocity": 0.4881889763779528,
                    "duration": 0.07499999999998863
                },
                {
                    "name": "A4",
                    "midi": 69,
                    "time": 409.0499999999967,
                    "velocity": 0.4881889763779528,
                    "duration": 0.07499999999998863
                },
                {
                    "name": "B4",
                    "midi": 71,
                    "time": 409.1249999999967,
                    "velocity": 0.4881889763779528,
                    "duration": 0.07499999999998863
                },
                {
                    "name": "E4",
                    "midi": 64,
                    "time": 409.1999999999967,
                    "velocity": 0.4881889763779528,
                    "duration": 0.05750000000000455
                },
                {
                    "name": "C5",
                    "midi": 72,
                    "time": 409.1999999999967,
                    "velocity": 0.4881889763779528,
                    "duration": 0.05750000000000455
                },
                {
                    "name": "G4",
                    "midi": 67,
                    "time": 409.4999999999967,
                    "velocity": 0.4881889763779528,
                    "duration": 0.05750000000000455
                },
                {
                    "name": "C5",
                    "midi": 72,
                    "time": 409.7999999999967,
                    "velocity": 0.4881889763779528,
                    "duration": 0.05750000000000455
                },
                {
                    "name": "E5",
                    "midi": 76,
                    "time": 410.0999999999967,
                    "velocity": 0.4881889763779528,
                    "duration": 0.05750000000000455
                },
                {
                    "name": "G5",
                    "midi": 79,
                    "time": 410.39999999999674,
                    "velocity": 0.4881889763779528,
                    "duration": 0.05750000000000455
                },
                {
                    "name": "E5",
                    "midi": 76,
                    "time": 410.69999999999675,
                    "velocity": 0.4881889763779528,
                    "duration": 0.05750000000000455
                },
                {
                    "name": "C5",
                    "midi": 72,
                    "time": 410.99999999999676,
                    "velocity": 0.4881889763779528,
                    "duration": 0.05750000000000455
                },
                {
                    "name": "G4",
                    "midi": 67,
                    "time": 411.29999999999677,
                    "velocity": 0.4881889763779528,
                    "duration": 0.03750000000002274
                },
                {
                    "name": "G4",
                    "midi": 67,
                    "time": 411.3749999999968,
                    "velocity": 0.4881889763779528,
                    "duration": 0.07499999999998863
                },
                {
                    "name": "A4",
                    "midi": 69,
                    "time": 411.4499999999968,
                    "velocity": 0.4881889763779528,
                    "duration": 0.07499999999998863
                },
                {
                    "name": "B4",
                    "midi": 71,
                    "time": 411.5249999999968,
                    "velocity": 0.4881889763779528,
                    "duration": 0.07499999999998863
                },
                {
                    "name": "E4",
                    "midi": 64,
                    "time": 411.5999999999968,
                    "velocity": 0.4881889763779528,
                    "duration": 0.05750000000000455
                },
                {
                    "name": "C5",
                    "midi": 72,
                    "time": 411.5999999999968,
                    "velocity": 0.4881889763779528,
                    "duration": 0.05750000000000455
                },
                {
                    "name": "G4",
                    "midi": 67,
                    "time": 411.8999999999968,
                    "velocity": 0.4881889763779528,
                    "duration": 0.05750000000000455
                },
                {
                    "name": "C5",
                    "midi": 72,
                    "time": 412.1999999999968,
                    "velocity": 0.4881889763779528,
                    "duration": 0.05750000000000455
                },
                {
                    "name": "E5",
                    "midi": 76,
                    "time": 412.4999999999968,
                    "velocity": 0.4881889763779528,
                    "duration": 0.05750000000000455
                },
                {
                    "name": "G5",
                    "midi": 79,
                    "time": 412.7999999999968,
                    "velocity": 0.4881889763779528,
                    "duration": 0.05750000000000455
                },
                {
                    "name": "E5",
                    "midi": 76,
                    "time": 413.09999999999684,
                    "velocity": 0.4881889763779528,
                    "duration": 0.05750000000000455
                },
                {
                    "name": "C5",
                    "midi": 72,
                    "time": 413.39999999999685,
                    "velocity": 0.4881889763779528,
                    "duration": 0.05750000000000455
                },
                {
                    "name": "G4",
                    "midi": 67,
                    "time": 413.69999999999686,
                    "velocity": 0.4881889763779528,
                    "duration": 0.03750000000002274
                },
                {
                    "name": "G4",
                    "midi": 67,
                    "time": 413.7749999999969,
                    "velocity": 0.4881889763779528,
                    "duration": 0.07499999999998863
                },
                {
                    "name": "A4",
                    "midi": 69,
                    "time": 413.8499999999969,
                    "velocity": 0.4881889763779528,
                    "duration": 0.07499999999998863
                },
                {
                    "name": "B4",
                    "midi": 71,
                    "time": 413.9249999999969,
                    "velocity": 0.4881889763779528,
                    "duration": 0.07499999999998863
                },
                {
                    "name": "E4",
                    "midi": 64,
                    "time": 413.9999999999969,
                    "velocity": 0.4881889763779528,
                    "duration": 0.05750000000000455
                },
                {
                    "name": "C5",
                    "midi": 72,
                    "time": 413.9999999999969,
                    "velocity": 0.4881889763779528,
                    "duration": 0.05750000000000455
                },
                {
                    "name": "G4",
                    "midi": 67,
                    "time": 414.2999999999969,
                    "velocity": 0.4881889763779528,
                    "duration": 0.05750000000000455
                },
                {
                    "name": "C5",
                    "midi": 72,
                    "time": 414.5999999999969,
                    "velocity": 0.4881889763779528,
                    "duration": 0.05750000000000455
                },
                {
                    "name": "E5",
                    "midi": 76,
                    "time": 414.8999999999969,
                    "velocity": 0.4881889763779528,
                    "duration": 0.03750000000002274
                },
                {
                    "name": "G4",
                    "midi": 67,
                    "time": 414.97499999999695,
                    "velocity": 0.4881889763779528,
                    "duration": 0.07499999999998863
                },
                {
                    "name": "A4",
                    "midi": 69,
                    "time": 415.04999999999694,
                    "velocity": 0.4881889763779528,
                    "duration": 0.07499999999998863
                },
                {
                    "name": "B4",
                    "midi": 71,
                    "time": 415.12499999999693,
                    "velocity": 0.4881889763779528,
                    "duration": 0.07499999999998863
                },
                {
                    "name": "C5",
                    "midi": 72,
                    "time": 415.1999999999969,
                    "velocity": 0.4881889763779528,
                    "duration": 0.11750000000000682
                },
                {
                    "name": "G4",
                    "midi": 67,
                    "time": 415.79999999999694,
                    "velocity": 0.4881889763779528,
                    "duration": 0.19999999999998863
                },
                {
                    "name": "A4",
                    "midi": 69,
                    "time": 415.99999999999693,
                    "velocity": 0.4881889763779528,
                    "duration": 0.1974999999999909
                },
                {
                    "name": "B4",
                    "midi": 71,
                    "time": 416.1974999999969,
                    "velocity": 0.4881889763779528,
                    "duration": 0.20249999999998636
                },
                {
                    "name": "C5",
                    "midi": 72,
                    "time": 416.3999999999969,
                    "velocity": 0.4881889763779528,
                    "duration": 0.11750000000000682
                },
                {
                    "name": "C4",
                    "midi": 60,
                    "time": 417.5999999999969,
                    "velocity": 0.3858267716535433,
                    "duration": 0.14999999999997726
                },
                {
                    "name": "D4",
                    "midi": 62,
                    "time": 417.7499999999969,
                    "velocity": 0.3858267716535433,
                    "duration": 0.14999999999997726
                },
                {
                    "name": "C4",
                    "midi": 60,
                    "time": 417.89999999999685,
                    "velocity": 0.3858267716535433,
                    "duration": 0.14999999999997726
                },
                {
                    "name": "D4",
                    "midi": 62,
                    "time": 418.0499999999968,
                    "velocity": 0.3858267716535433,
                    "duration": 0.14999999999997726
                },
                {
                    "name": "C4",
                    "midi": 60,
                    "time": 418.1999999999968,
                    "velocity": 0.3858267716535433,
                    "duration": 0.14999999999997726
                },
                {
                    "name": "D4",
                    "midi": 62,
                    "time": 418.3499999999968,
                    "velocity": 0.3858267716535433,
                    "duration": 0.14999999999997726
                },
                {
                    "name": "C4",
                    "midi": 60,
                    "time": 418.49999999999676,
                    "velocity": 0.3858267716535433,
                    "duration": 0.14999999999997726
                },
                {
                    "name": "D4",
                    "midi": 62,
                    "time": 418.64999999999674,
                    "velocity": 0.3858267716535433,
                    "duration": 0.14999999999997726
                },
                {
                    "name": "C4",
                    "midi": 60,
                    "time": 418.7999999999967,
                    "velocity": 0.3858267716535433,
                    "duration": 0.14999999999997726
                },
                {
                    "name": "D4",
                    "midi": 62,
                    "time": 418.9499999999967,
                    "velocity": 0.3858267716535433,
                    "duration": 0.14999999999997726
                },
                {
                    "name": "C4",
                    "midi": 60,
                    "time": 419.09999999999667,
                    "velocity": 0.3858267716535433,
                    "duration": 0.14999999999997726
                },
                {
                    "name": "D4",
                    "midi": 62,
                    "time": 419.24999999999665,
                    "velocity": 0.3858267716535433,
                    "duration": 0.14999999999997726
                },
                {
                    "name": "C4",
                    "midi": 60,
                    "time": 419.3999999999966,
                    "velocity": 0.3858267716535433,
                    "duration": 0.14999999999997726
                },
                {
                    "name": "D4",
                    "midi": 62,
                    "time": 419.5499999999966,
                    "velocity": 0.3858267716535433,
                    "duration": 0.14999999999997726
                },
                {
                    "name": "C4",
                    "midi": 60,
                    "time": 419.6999999999966,
                    "velocity": 0.3858267716535433,
                    "duration": 0.14999999999997726
                },
                {
                    "name": "D4",
                    "midi": 62,
                    "time": 419.84999999999656,
                    "velocity": 0.3858267716535433,
                    "duration": 0.14999999999997726
                },
                {
                    "name": "C4",
                    "midi": 60,
                    "time": 419.99999999999653,
                    "velocity": 0.3858267716535433,
                    "duration": 0.14999999999997726
                },
                {
                    "name": "D4",
                    "midi": 62,
                    "time": 420.1499999999965,
                    "velocity": 0.3858267716535433,
                    "duration": 0.14999999999997726
                },
                {
                    "name": "C4",
                    "midi": 60,
                    "time": 420.2999999999965,
                    "velocity": 0.3858267716535433,
                    "duration": 0.14999999999997726
                },
                {
                    "name": "D4",
                    "midi": 62,
                    "time": 420.44999999999646,
                    "velocity": 0.3858267716535433,
                    "duration": 0.14999999999997726
                },
                {
                    "name": "C4",
                    "midi": 60,
                    "time": 420.59999999999644,
                    "velocity": 0.3858267716535433,
                    "duration": 0.14999999999997726
                },
                {
                    "name": "D4",
                    "midi": 62,
                    "time": 420.7499999999964,
                    "velocity": 0.3858267716535433,
                    "duration": 0.14999999999997726
                },
                {
                    "name": "C4",
                    "midi": 60,
                    "time": 420.8999999999964,
                    "velocity": 0.3858267716535433,
                    "duration": 0.14999999999997726
                },
                {
                    "name": "D4",
                    "midi": 62,
                    "time": 421.0499999999964,
                    "velocity": 0.3858267716535433,
                    "duration": 0.14999999999997726
                },
                {
                    "name": "C4",
                    "midi": 60,
                    "time": 421.19999999999635,
                    "velocity": 0.3858267716535433,
                    "duration": 0.14999999999997726
                },
                {
                    "name": "D4",
                    "midi": 62,
                    "time": 421.3499999999963,
                    "velocity": 0.3858267716535433,
                    "duration": 0.14999999999997726
                },
                {
                    "name": "C4",
                    "midi": 60,
                    "time": 421.4999999999963,
                    "velocity": 0.3858267716535433,
                    "duration": 0.14999999999997726
                },
                {
                    "name": "D4",
                    "midi": 62,
                    "time": 421.6499999999963,
                    "velocity": 0.3858267716535433,
                    "duration": 0.14999999999997726
                },
                {
                    "name": "C4",
                    "midi": 60,
                    "time": 421.79999999999626,
                    "velocity": 0.4881889763779528,
                    "duration": 0.19999999999998863
                },
                {
                    "name": "D4",
                    "midi": 62,
                    "time": 421.99999999999625,
                    "velocity": 0.4881889763779528,
                    "duration": 0.1974999999999909
                },
                {
                    "name": "E4",
                    "midi": 64,
                    "time": 422.19749999999624,
                    "velocity": 0.4881889763779528,
                    "duration": 0.20249999999998636
                },
                {
                    "name": "F4",
                    "midi": 65,
                    "time": 422.3999999999962,
                    "velocity": 0.3858267716535433,
                    "duration": 0.14999999999997726
                },
                {
                    "name": "E4",
                    "midi": 64,
                    "time": 422.5499999999962,
                    "velocity": 0.3858267716535433,
                    "duration": 0.14999999999997726
                },
                {
                    "name": "F4",
                    "midi": 65,
                    "time": 422.6999999999962,
                    "velocity": 0.3858267716535433,
                    "duration": 0.14999999999997726
                },
                {
                    "name": "E4",
                    "midi": 64,
                    "time": 422.84999999999616,
                    "velocity": 0.3858267716535433,
                    "duration": 0.14999999999997726
                },
                {
                    "name": "F4",
                    "midi": 65,
                    "time": 422.99999999999613,
                    "velocity": 0.3858267716535433,
                    "duration": 0.14999999999997726
                },
                {
                    "name": "E4",
                    "midi": 64,
                    "time": 423.1499999999961,
                    "velocity": 0.3858267716535433,
                    "duration": 0.14999999999997726
                },
                {
                    "name": "F4",
                    "midi": 65,
                    "time": 423.2999999999961,
                    "velocity": 0.3858267716535433,
                    "duration": 0.14999999999997726
                },
                {
                    "name": "E4",
                    "midi": 64,
                    "time": 423.44999999999607,
                    "velocity": 0.3858267716535433,
                    "duration": 0.14999999999997726
                },
                {
                    "name": "F4",
                    "midi": 65,
                    "time": 423.59999999999604,
                    "velocity": 0.3858267716535433,
                    "duration": 0.14999999999997726
                },
                {
                    "name": "E4",
                    "midi": 64,
                    "time": 423.749999999996,
                    "velocity": 0.3858267716535433,
                    "duration": 0.14999999999997726
                },
                {
                    "name": "F4",
                    "midi": 65,
                    "time": 423.899999999996,
                    "velocity": 0.3858267716535433,
                    "duration": 0.14999999999997726
                },
                {
                    "name": "E4",
                    "midi": 64,
                    "time": 424.049999999996,
                    "velocity": 0.3858267716535433,
                    "duration": 0.14999999999997726
                },
                {
                    "name": "F4",
                    "midi": 65,
                    "time": 424.19999999999595,
                    "velocity": 0.3858267716535433,
                    "duration": 0.14999999999997726
                },
                {
                    "name": "E4",
                    "midi": 64,
                    "time": 424.34999999999593,
                    "velocity": 0.3858267716535433,
                    "duration": 0.14999999999997726
                },
                {
                    "name": "F4",
                    "midi": 65,
                    "time": 424.4999999999959,
                    "velocity": 0.3858267716535433,
                    "duration": 0.14999999999997726
                },
                {
                    "name": "E4",
                    "midi": 64,
                    "time": 424.6499999999959,
                    "velocity": 0.3858267716535433,
                    "duration": 0.14999999999997726
                },
                {
                    "name": "G4",
                    "midi": 67,
                    "time": 424.79999999999586,
                    "velocity": 0.4881889763779528,
                    "duration": 0.11750000000000682
                },
                {
                    "name": "A4",
                    "midi": 69,
                    "time": 425.3999999999959,
                    "velocity": 0.4881889763779528,
                    "duration": 0.11750000000000682
                },
                {
                    "name": "G4",
                    "midi": 67,
                    "time": 425.9999999999959,
                    "velocity": 0.4881889763779528,
                    "duration": 0.11750000000000682
                },
                {
                    "name": "A4",
                    "midi": 69,
                    "time": 426.59999999999593,
                    "velocity": 0.4881889763779528,
                    "duration": 0.11750000000000682
                },
                {
                    "name": "G4",
                    "midi": 67,
                    "time": 427.19999999999595,
                    "velocity": 0.4881889763779528,
                    "duration": 0.11750000000000682
                },
                {
                    "name": "A4",
                    "midi": 69,
                    "time": 427.799999999996,
                    "velocity": 0.4881889763779528,
                    "duration": 0.11750000000000682
                },
                {
                    "name": "G4",
                    "midi": 67,
                    "time": 428.399999999996,
                    "velocity": 0.4881889763779528,
                    "duration": 0.11750000000000682
                },
                {
                    "name": "A4",
                    "midi": 69,
                    "time": 428.999999999996,
                    "velocity": 0.4881889763779528,
                    "duration": 0.11750000000000682
                },
                {
                    "name": "G4",
                    "midi": 67,
                    "time": 429.59999999999604,
                    "velocity": 0.4881889763779528,
                    "duration": 0.11750000000000682
                },
                {
                    "name": "A4",
                    "midi": 69,
                    "time": 430.19999999999607,
                    "velocity": 0.4881889763779528,
                    "duration": 0.11750000000000682
                },
                {
                    "name": "G4",
                    "midi": 67,
                    "time": 430.7999999999961,
                    "velocity": 0.4881889763779528,
                    "duration": 0.11750000000000682
                },
                {
                    "name": "A4",
                    "midi": 69,
                    "time": 431.3999999999961,
                    "velocity": 0.4881889763779528,
                    "duration": 0.11750000000000682
                },
                {
                    "name": "G4",
                    "midi": 67,
                    "time": 431.99999999999613,
                    "velocity": 0.4881889763779528,
                    "duration": 0.6000000000000227
                },
                {
                    "name": "A4",
                    "midi": 69,
                    "time": 432.59999999999616,
                    "velocity": 0.4881889763779528,
                    "duration": 0.30000000000001137
                },
                {
                    "name": "F4",
                    "midi": 65,
                    "time": 432.89999999999617,
                    "velocity": 0.4881889763779528,
                    "duration": 0.30000000000001137
                },
                {
                    "name": "G4",
                    "midi": 67,
                    "time": 433.1999999999962,
                    "velocity": 0.4881889763779528,
                    "duration": 0.6000000000000227
                },
                {
                    "name": "C5",
                    "midi": 72,
                    "time": 433.7999999999962,
                    "velocity": 0.4881889763779528,
                    "duration": 0.6000000000000227
                },
                {
                    "name": "A#4",
                    "midi": 70,
                    "time": 434.3999999999962,
                    "velocity": 0.4881889763779528,
                    "duration": 0.6000000000000227
                },
                {
                    "name": "A4",
                    "midi": 69,
                    "time": 434.99999999999625,
                    "velocity": 0.4881889763779528,
                    "duration": 0.30000000000001137
                },
                {
                    "name": "G4",
                    "midi": 67,
                    "time": 435.29999999999626,
                    "velocity": 0.4881889763779528,
                    "duration": 0.30000000000001137
                },
                {
                    "name": "A4",
                    "midi": 69,
                    "time": 435.59999999999627,
                    "velocity": 0.4881889763779528,
                    "duration": 0.6000000000000227
                },
                {
                    "name": "F4",
                    "midi": 65,
                    "time": 436.1999999999963,
                    "velocity": 0.4881889763779528,
                    "duration": 0.6000000000000227
                },
                {
                    "name": "G4",
                    "midi": 67,
                    "time": 436.7999999999963,
                    "velocity": 0.4881889763779528,
                    "duration": 1.7999999999999545
                },
                {
                    "name": "C5",
                    "midi": 72,
                    "time": 438.4499999999963,
                    "velocity": 0.4881889763779528,
                    "duration": 0.14999999999997726
                },
                {
                    "name": "A4",
                    "midi": 69,
                    "time": 438.59999999999627,
                    "velocity": 0.4881889763779528,
                    "duration": 0.6000000000000227
                },
                {
                    "name": "G4",
                    "midi": 67,
                    "time": 439.1999999999963,
                    "velocity": 0.4881889763779528,
                    "duration": 2.3999999999999773
                },
                {
                    "name": "G5",
                    "midi": 79,
                    "time": 441.59999999999627,
                    "velocity": 0.4881889763779528,
                    "duration": 0.6000000000000227
                },
                {
                    "name": "C6",
                    "midi": 84,
                    "time": 442.1999999999963,
                    "velocity": 0.4881889763779528,
                    "duration": 0.6000000000000227
                },
                {
                    "name": "F6",
                    "midi": 89,
                    "time": 442.7999999999963,
                    "velocity": 0.4881889763779528,
                    "duration": 0.30000000000001137
                },
                {
                    "name": "A#5",
                    "midi": 82,
                    "time": 443.0999999999963,
                    "velocity": 0.4881889763779528,
                    "duration": 0.30000000000001137
                },
                {
                    "name": "C6",
                    "midi": 84,
                    "time": 443.39999999999634,
                    "velocity": 0.4881889763779528,
                    "duration": 0.30000000000001137
                },
                {
                    "name": "F5",
                    "midi": 77,
                    "time": 443.69999999999635,
                    "velocity": 0.4881889763779528,
                    "duration": 0.30000000000001137
                },
                {
                    "name": "G5",
                    "midi": 79,
                    "time": 443.99999999999636,
                    "velocity": 0.4881889763779528,
                    "duration": 0.6000000000000227
                },
                {
                    "name": "C6",
                    "midi": 84,
                    "time": 444.5999999999964,
                    "velocity": 0.4881889763779528,
                    "duration": 0.6000000000000227
                },
                {
                    "name": "A#5",
                    "midi": 82,
                    "time": 445.1999999999964,
                    "velocity": 0.4881889763779528,
                    "duration": 0.6000000000000227
                },
                {
                    "name": "A5",
                    "midi": 81,
                    "time": 445.79999999999643,
                    "velocity": 0.4881889763779528,
                    "duration": 0.30000000000001137
                },
                {
                    "name": "F5",
                    "midi": 77,
                    "time": 446.09999999999644,
                    "velocity": 0.4881889763779528,
                    "duration": 0.30000000000001137
                },
                {
                    "name": "G5",
                    "midi": 79,
                    "time": 446.39999999999645,
                    "velocity": 0.4881889763779528,
                    "duration": 0.5999999999999659
                },
                {
                    "name": "C6",
                    "midi": 84,
                    "time": 446.84999999999644,
                    "velocity": 0.4881889763779528,
                    "duration": 0.14999999999997726
                },
                {
                    "name": "A5",
                    "midi": 81,
                    "time": 446.9999999999964,
                    "velocity": 0.4881889763779528,
                    "duration": 0.6000000000000227
                },
                {
                    "name": "G5",
                    "midi": 79,
                    "time": 447.59999999999644,
                    "velocity": 0.4881889763779528,
                    "duration": 1.1999999999999886
                },
                {
                    "name": "G4",
                    "midi": 67,
                    "time": 448.79999999999643,
                    "velocity": 0.4881889763779528,
                    "duration": 0.11750000000000682
                },
                {
                    "name": "A4",
                    "midi": 69,
                    "time": 449.39999999999645,
                    "velocity": 0.4881889763779528,
                    "duration": 0.11750000000000682
                },
                {
                    "name": "G4",
                    "midi": 67,
                    "time": 449.9999999999965,
                    "velocity": 0.4881889763779528,
                    "duration": 0.11750000000000682
                },
                {
                    "name": "A4",
                    "midi": 69,
                    "time": 450.5999999999965,
                    "velocity": 0.4881889763779528,
                    "duration": 0.11750000000000682
                },
                {
                    "name": "G4",
                    "midi": 67,
                    "time": 451.1999999999965,
                    "velocity": 0.4881889763779528,
                    "duration": 0.11750000000000682
                },
                {
                    "name": "A4",
                    "midi": 69,
                    "time": 451.79999999999654,
                    "velocity": 0.4881889763779528,
                    "duration": 0.11750000000000682
                },
                {
                    "name": "G4",
                    "midi": 67,
                    "time": 452.39999999999657,
                    "velocity": 0.4881889763779528,
                    "duration": 0.11750000000000682
                },
                {
                    "name": "A4",
                    "midi": 69,
                    "time": 452.9999999999966,
                    "velocity": 0.4881889763779528,
                    "duration": 0.11750000000000682
                },
                {
                    "name": "G4",
                    "midi": 67,
                    "time": 453.5999999999966,
                    "velocity": 0.4881889763779528,
                    "duration": 0.11750000000000682
                },
                {
                    "name": "A4",
                    "midi": 69,
                    "time": 454.19999999999663,
                    "velocity": 0.4881889763779528,
                    "duration": 0.11750000000000682
                },
                {
                    "name": "G4",
                    "midi": 67,
                    "time": 454.79999999999666,
                    "velocity": 0.4881889763779528,
                    "duration": 0.11750000000000682
                },
                {
                    "name": "A4",
                    "midi": 69,
                    "time": 455.3999999999967,
                    "velocity": 0.4881889763779528,
                    "duration": 0.11750000000000682
                },
                {
                    "name": "E5",
                    "midi": 76,
                    "time": 455.9999999999967,
                    "velocity": 0.5905511811023622,
                    "duration": 0.07749999999998636
                },
                {
                    "name": "E6",
                    "midi": 88,
                    "time": 455.9999999999967,
                    "velocity": 0.5905511811023622,
                    "duration": 0.07749999999998636
                },
                {
                    "name": "E5",
                    "midi": 76,
                    "time": 456.3974999999967,
                    "velocity": 0.5905511811023622,
                    "duration": 0.07999999999998408
                },
                {
                    "name": "E6",
                    "midi": 88,
                    "time": 456.3974999999967,
                    "velocity": 0.5905511811023622,
                    "duration": 0.07999999999998408
                },
                {
                    "name": "E5",
                    "midi": 76,
                    "time": 456.79999999999666,
                    "velocity": 0.5905511811023622,
                    "duration": 0.07999999999998408
                },
                {
                    "name": "E6",
                    "midi": 88,
                    "time": 456.79999999999666,
                    "velocity": 0.5905511811023622,
                    "duration": 0.07999999999998408
                },
                {
                    "name": "E5",
                    "midi": 76,
                    "time": 457.19999999999663,
                    "velocity": 0.7952755905511811,
                    "duration": 1.7999999999999545
                },
                {
                    "name": "E6",
                    "midi": 88,
                    "time": 457.19999999999663,
                    "velocity": 0.7952755905511811,
                    "duration": 1.7999999999999545
                },
                {
                    "name": "D#6",
                    "midi": 87,
                    "time": 458.8499999999966,
                    "velocity": 0.5905511811023622,
                    "duration": 0.14999999999997726
                },
                {
                    "name": "E5",
                    "midi": 76,
                    "time": 458.9999999999966,
                    "velocity": 0.5905511811023622,
                    "duration": 0.5999999999999659
                },
                {
                    "name": "F#5",
                    "midi": 78,
                    "time": 459.4499999999966,
                    "velocity": 0.5905511811023622,
                    "duration": 0.14999999999997726
                },
                {
                    "name": "D5",
                    "midi": 74,
                    "time": 459.59999999999656,
                    "velocity": 0.7952755905511811,
                    "duration": 1.597500000000025
                },
                {
                    "name": "C#5",
                    "midi": 73,
                    "time": 461.1974999999966,
                    "velocity": 0.5905511811023622,
                    "duration": 0.07999999999998408
                },
                {
                    "name": "C5",
                    "midi": 72,
                    "time": 461.59999999999656,
                    "velocity": 0.5905511811023622,
                    "duration": 0.07999999999998408
                },
                {
                    "name": "B4",
                    "midi": 71,
                    "time": 461.99999999999653,
                    "velocity": 0.5905511811023622,
                    "duration": 0.11750000000000682
                },
                {
                    "name": "A#4",
                    "midi": 70,
                    "time": 462.59999999999656,
                    "velocity": 0.5905511811023622,
                    "duration": 0.11750000000000682
                },
                {
                    "name": "E5",
                    "midi": 76,
                    "time": 463.1999999999966,
                    "velocity": 0.5905511811023622,
                    "duration": 0.07749999999998636
                },
                {
                    "name": "E6",
                    "midi": 88,
                    "time": 463.1999999999966,
                    "velocity": 0.5905511811023622,
                    "duration": 0.07749999999998636
                },
                {
                    "name": "E5",
                    "midi": 76,
                    "time": 463.59749999999656,
                    "velocity": 0.5905511811023622,
                    "duration": 0.07999999999998408
                },
                {
                    "name": "E6",
                    "midi": 88,
                    "time": 463.59749999999656,
                    "velocity": 0.5905511811023622,
                    "duration": 0.07999999999998408
                },
                {
                    "name": "E5",
                    "midi": 76,
                    "time": 463.99999999999653,
                    "velocity": 0.5905511811023622,
                    "duration": 0.07999999999998408
                },
                {
                    "name": "E6",
                    "midi": 88,
                    "time": 463.99999999999653,
                    "velocity": 0.5905511811023622,
                    "duration": 0.07999999999998408
                },
                {
                    "name": "D#6",
                    "midi": 87,
                    "time": 464.8499999999965,
                    "velocity": 0.5905511811023622,
                    "duration": 0.14999999999997726
                },
                {
                    "name": "E5",
                    "midi": 76,
                    "time": 464.9999999999965,
                    "velocity": 0.5905511811023622,
                    "duration": 0.5999999999999659
                },
                {
                    "name": "F#5",
                    "midi": 78,
                    "time": 465.44999999999646,
                    "velocity": 0.5905511811023622,
                    "duration": 0.14999999999997726
                },
                {
                    "name": "D5",
                    "midi": 74,
                    "time": 465.59999999999644,
                    "velocity": 0.5905511811023622,
                    "duration": 0.07749999999998636
                },
                {
                    "name": "C#5",
                    "midi": 73,
                    "time": 465.9974999999964,
                    "velocity": 0.5905511811023622,
                    "duration": 0.07999999999998408
                },
                {
                    "name": "C5",
                    "midi": 72,
                    "time": 466.3999999999964,
                    "velocity": 0.5905511811023622,
                    "duration": 0.07999999999998408
                },
                {
                    "name": "B4",
                    "midi": 71,
                    "time": 466.7999999999964,
                    "velocity": 0.5905511811023622,
                    "duration": 0.11750000000000682
                },
                {
                    "name": "A#4",
                    "midi": 70,
                    "time": 467.3999999999964,
                    "velocity": 0.5905511811023622,
                    "duration": 0.11750000000000682
                },
                {
                    "name": "D5",
                    "midi": 74,
                    "time": 467.9999999999964,
                    "velocity": 0.5905511811023622,
                    "duration": 0.11750000000000682
                },
                {
                    "name": "C#5",
                    "midi": 73,
                    "time": 468.59999999999644,
                    "velocity": 0.5905511811023622,
                    "duration": 0.11750000000000682
                },
                {
                    "name": "C5",
                    "midi": 72,
                    "time": 469.19999999999646,
                    "velocity": 0.5905511811023622,
                    "duration": 0.07749999999998636
                },
                {
                    "name": "B4",
                    "midi": 71,
                    "time": 469.59749999999644,
                    "velocity": 0.5905511811023622,
                    "duration": 0.07999999999998408
                },
                {
                    "name": "A#4",
                    "midi": 70,
                    "time": 469.9999999999964,
                    "velocity": 0.5905511811023622,
                    "duration": 0.07999999999998408
                },
                {
                    "name": "F4",
                    "midi": 65,
                    "time": 470.3999999999964,
                    "velocity": 0.3858267716535433,
                    "duration": 0.11750000000000682
                },
                {
                    "name": "A#4",
                    "midi": 70,
                    "time": 470.3999999999964,
                    "velocity": 0.3858267716535433,
                    "duration": 0.11750000000000682
                },
                {
                    "name": "G4",
                    "midi": 67,
                    "time": 470.9999999999964,
                    "velocity": 0.3858267716535433,
                    "duration": 0.11750000000000682
                },
                {
                    "name": "C5",
                    "midi": 72,
                    "time": 470.9999999999964,
                    "velocity": 0.3858267716535433,
                    "duration": 0.11750000000000682
                },
                {
                    "name": "F4",
                    "midi": 65,
                    "time": 471.59999999999644,
                    "velocity": 0.3858267716535433,
                    "duration": 0.11750000000000682
                },
                {
                    "name": "A#4",
                    "midi": 70,
                    "time": 471.59999999999644,
                    "velocity": 0.3858267716535433,
                    "duration": 0.11750000000000682
                },
                {
                    "name": "G4",
                    "midi": 67,
                    "time": 472.19999999999646,
                    "velocity": 0.3858267716535433,
                    "duration": 0.11750000000000682
                },
                {
                    "name": "C5",
                    "midi": 72,
                    "time": 472.19999999999646,
                    "velocity": 0.3858267716535433,
                    "duration": 0.11750000000000682
                },
                {
                    "name": "F4",
                    "midi": 65,
                    "time": 472.7999999999965,
                    "velocity": 0.3858267716535433,
                    "duration": 0.11750000000000682
                },
                {
                    "name": "A#4",
                    "midi": 70,
                    "time": 472.7999999999965,
                    "velocity": 0.3858267716535433,
                    "duration": 0.11750000000000682
                },
                {
                    "name": "G4",
                    "midi": 67,
                    "time": 473.3999999999965,
                    "velocity": 0.3858267716535433,
                    "duration": 0.11750000000000682
                },
                {
                    "name": "C5",
                    "midi": 72,
                    "time": 473.3999999999965,
                    "velocity": 0.3858267716535433,
                    "duration": 0.11750000000000682
                },
                {
                    "name": "F4",
                    "midi": 65,
                    "time": 473.99999999999653,
                    "velocity": 0.3858267716535433,
                    "duration": 0.11750000000000682
                },
                {
                    "name": "A#4",
                    "midi": 70,
                    "time": 473.99999999999653,
                    "velocity": 0.3858267716535433,
                    "duration": 0.11750000000000682
                },
                {
                    "name": "G4",
                    "midi": 67,
                    "time": 474.59999999999656,
                    "velocity": 0.3858267716535433,
                    "duration": 0.11750000000000682
                },
                {
                    "name": "C5",
                    "midi": 72,
                    "time": 474.59999999999656,
                    "velocity": 0.3858267716535433,
                    "duration": 0.11750000000000682
                },
                {
                    "name": "A#4",
                    "midi": 70,
                    "time": 475.1999999999966,
                    "velocity": 0.5905511811023622,
                    "duration": 0.6000000000000227
                },
                {
                    "name": "C5",
                    "midi": 72,
                    "time": 475.7999999999966,
                    "velocity": 0.5905511811023622,
                    "duration": 0.30000000000001137
                },
                {
                    "name": "G#4",
                    "midi": 68,
                    "time": 476.0999999999966,
                    "velocity": 0.5905511811023622,
                    "duration": 0.30000000000001137
                },
                {
                    "name": "A#4",
                    "midi": 70,
                    "time": 476.3999999999966,
                    "velocity": 0.5905511811023622,
                    "duration": 0.6000000000000227
                },
                {
                    "name": "D#5",
                    "midi": 75,
                    "time": 476.99999999999665,
                    "velocity": 0.5905511811023622,
                    "duration": 0.6000000000000227
                },
                {
                    "name": "C#5",
                    "midi": 73,
                    "time": 477.59999999999667,
                    "velocity": 0.5905511811023622,
                    "duration": 0.6000000000000227
                },
                {
                    "name": "C5",
                    "midi": 72,
                    "time": 478.1999999999967,
                    "velocity": 0.5905511811023622,
                    "duration": 0.30000000000001137
                },
                {
                    "name": "A#4",
                    "midi": 70,
                    "time": 478.4999999999967,
                    "velocity": 0.5905511811023622,
                    "duration": 0.30000000000001137
                },
                {
                    "name": "C5",
                    "midi": 72,
                    "time": 478.7999999999967,
                    "velocity": 0.5905511811023622,
                    "duration": 0.6000000000000227
                },
                {
                    "name": "G#4",
                    "midi": 68,
                    "time": 479.39999999999674,
                    "velocity": 0.5905511811023622,
                    "duration": 0.6000000000000227
                },
                {
                    "name": "A#4",
                    "midi": 70,
                    "time": 479.99999999999676,
                    "velocity": 0.5905511811023622,
                    "duration": 0.5999999999999659
                },
                {
                    "name": "D#5",
                    "midi": 75,
                    "time": 480.44999999999675,
                    "velocity": 0.5905511811023622,
                    "duration": 0.14999999999997726
                },
                {
                    "name": "C5",
                    "midi": 72,
                    "time": 480.5999999999967,
                    "velocity": 0.5905511811023622,
                    "duration": 0.6000000000000227
                },
                {
                    "name": "A#4",
                    "midi": 70,
                    "time": 481.19999999999675,
                    "velocity": 0.5905511811023622,
                    "duration": 1.7999999999999545
                },
                {
                    "name": "D#6",
                    "midi": 87,
                    "time": 482.8499999999967,
                    "velocity": 0.5905511811023622,
                    "duration": 0.14999999999997726
                },
                {
                    "name": "C6",
                    "midi": 84,
                    "time": 482.9999999999967,
                    "velocity": 0.5905511811023622,
                    "duration": 0.6000000000000227
                },
                {
                    "name": "A#5",
                    "midi": 82,
                    "time": 483.5999999999967,
                    "velocity": 0.5905511811023622,
                    "duration": 1.7999999999999545
                },
                {
                    "name": "D#5",
                    "midi": 75,
                    "time": 485.2499999999967,
                    "velocity": 0.5905511811023622,
                    "duration": 0.14999999999997726
                },
                {
                    "name": "C5",
                    "midi": 72,
                    "time": 485.3999999999967,
                    "velocity": 0.5905511811023622,
                    "duration": 0.6000000000000227
                },
                {
                    "name": "A#4",
                    "midi": 70,
                    "time": 485.9999999999967,
                    "velocity": 0.5905511811023622,
                    "duration": 0.6000000000000227
                },
                {
                    "name": "D#5",
                    "midi": 75,
                    "time": 486.5999999999967,
                    "velocity": 0.5905511811023622,
                    "duration": 0.6000000000000227
                },
                {
                    "name": "C#5",
                    "midi": 73,
                    "time": 487.19999999999675,
                    "velocity": 0.5905511811023622,
                    "duration": 0.6000000000000227
                },
                {
                    "name": "C5",
                    "midi": 72,
                    "time": 487.79999999999677,
                    "velocity": 0.5905511811023622,
                    "duration": 0.30000000000001137
                },
                {
                    "name": "A#4",
                    "midi": 70,
                    "time": 488.0999999999968,
                    "velocity": 0.5905511811023622,
                    "duration": 0.30000000000001137
                },
                {
                    "name": "C5",
                    "midi": 72,
                    "time": 488.3999999999968,
                    "velocity": 0.5905511811023622,
                    "duration": 0.6000000000000227
                },
                {
                    "name": "G#4",
                    "midi": 68,
                    "time": 488.9999999999968,
                    "velocity": 0.5905511811023622,
                    "duration": 0.6000000000000227
                },
                {
                    "name": "A#4",
                    "midi": 70,
                    "time": 489.59999999999684,
                    "velocity": 0.5905511811023622,
                    "duration": 0.6000000000000227
                },
                {
                    "name": "D#5",
                    "midi": 75,
                    "time": 490.19999999999686,
                    "velocity": 0.5905511811023622,
                    "duration": 0.6000000000000227
                },
                {
                    "name": "C#5",
                    "midi": 73,
                    "time": 490.7999999999969,
                    "velocity": 0.5905511811023622,
                    "duration": 0.6000000000000227
                },
                {
                    "name": "C5",
                    "midi": 72,
                    "time": 491.3999999999969,
                    "velocity": 0.5905511811023622,
                    "duration": 0.30000000000001137
                },
                {
                    "name": "A#4",
                    "midi": 70,
                    "time": 491.6999999999969,
                    "velocity": 0.5905511811023622,
                    "duration": 0.30000000000001137
                },
                {
                    "name": "C5",
                    "midi": 72,
                    "time": 491.99999999999693,
                    "velocity": 0.5905511811023622,
                    "duration": 0.6000000000000227
                },
                {
                    "name": "G#4",
                    "midi": 68,
                    "time": 492.59999999999695,
                    "velocity": 0.5905511811023622,
                    "duration": 0.6000000000000227
                },
                {
                    "name": "A#4",
                    "midi": 70,
                    "time": 493.199999999997,
                    "velocity": 0.5905511811023622,
                    "duration": 0.5999999999999659
                },
                {
                    "name": "D#5",
                    "midi": 75,
                    "time": 493.64999999999696,
                    "velocity": 0.5905511811023622,
                    "duration": 0.14999999999997726
                },
                {
                    "name": "C5",
                    "midi": 72,
                    "time": 493.79999999999694,
                    "velocity": 0.5905511811023622,
                    "duration": 0.6000000000000227
                },
                {
                    "name": "A#4",
                    "midi": 70,
                    "time": 494.39999999999696,
                    "velocity": 0.5905511811023622,
                    "duration": 1.7999999999999545
                },
                {
                    "name": "D#6",
                    "midi": 87,
                    "time": 496.04999999999694,
                    "velocity": 0.5905511811023622,
                    "duration": 0.14999999999997726
                },
                {
                    "name": "C6",
                    "midi": 84,
                    "time": 496.1999999999969,
                    "velocity": 0.5905511811023622,
                    "duration": 0.6000000000000227
                },
                {
                    "name": "F#5",
                    "midi": 78,
                    "time": 496.79999999999694,
                    "velocity": 0.4881889763779528,
                    "duration": 0.6000000000000227
                },
                {
                    "name": "A#5",
                    "midi": 82,
                    "time": 496.79999999999694,
                    "velocity": 0.4881889763779528,
                    "duration": 0.6000000000000227
                },
                {
                    "name": "C6",
                    "midi": 84,
                    "time": 497.39999999999696,
                    "velocity": 0.4881889763779528,
                    "duration": 0.30000000000001137
                },
                {
                    "name": "G#5",
                    "midi": 80,
                    "time": 497.699999999997,
                    "velocity": 0.4881889763779528,
                    "duration": 0.30000000000001137
                },
                {
                    "name": "A#5",
                    "midi": 82,
                    "time": 497.999999999997,
                    "velocity": 0.4881889763779528,
                    "duration": 0.11750000000000682
                },
                {
                    "name": "D#6",
                    "midi": 87,
                    "time": 498.599999999997,
                    "velocity": 0.4881889763779528,
                    "duration": 0.11750000000000682
                },
                {
                    "name": "C#6",
                    "midi": 85,
                    "time": 499.19999999999703,
                    "velocity": 0.4881889763779528,
                    "duration": 0.6000000000000227
                },
                {
                    "name": "C6",
                    "midi": 84,
                    "time": 499.79999999999706,
                    "velocity": 0.4881889763779528,
                    "duration": 0.30000000000001137
                },
                {
                    "name": "A#5",
                    "midi": 82,
                    "time": 500.09999999999707,
                    "velocity": 0.4881889763779528,
                    "duration": 0.30000000000001137
                },
                {
                    "name": "C6",
                    "midi": 84,
                    "time": 500.3999999999971,
                    "velocity": 0.4881889763779528,
                    "duration": 0.11750000000000682
                },
                {
                    "name": "G#5",
                    "midi": 80,
                    "time": 500.9999999999971,
                    "velocity": 0.4881889763779528,
                    "duration": 0.11750000000000682
                },
                {
                    "name": "A#5",
                    "midi": 82,
                    "time": 501.5999999999971,
                    "velocity": 0.4881889763779528,
                    "duration": 0.11750000000000682
                },
                {
                    "name": "D#6",
                    "midi": 87,
                    "time": 502.19999999999715,
                    "velocity": 0.4881889763779528,
                    "duration": 0.11750000000000682
                },
                {
                    "name": "G#6",
                    "midi": 92,
                    "time": 502.79999999999717,
                    "velocity": 0.4881889763779528,
                    "duration": 0.30000000000001137
                },
                {
                    "name": "C#6",
                    "midi": 85,
                    "time": 503.0999999999972,
                    "velocity": 0.4881889763779528,
                    "duration": 0.30000000000001137
                },
                {
                    "name": "D#6",
                    "midi": 87,
                    "time": 503.3999999999972,
                    "velocity": 0.4881889763779528,
                    "duration": 0.30000000000001137
                },
                {
                    "name": "G#5",
                    "midi": 80,
                    "time": 503.6999999999972,
                    "velocity": 0.4881889763779528,
                    "duration": 0.30000000000001137
                },
                {
                    "name": "A#5",
                    "midi": 82,
                    "time": 503.9999999999972,
                    "velocity": 0.4881889763779528,
                    "duration": 0.11750000000000682
                },
                {
                    "name": "D#6",
                    "midi": 87,
                    "time": 504.59999999999724,
                    "velocity": 0.4881889763779528,
                    "duration": 0.11750000000000682
                },
                {
                    "name": "C#6",
                    "midi": 85,
                    "time": 505.19999999999726,
                    "velocity": 0.4881889763779528,
                    "duration": 0.6000000000000227
                },
                {
                    "name": "C6",
                    "midi": 84,
                    "time": 505.7999999999973,
                    "velocity": 0.4881889763779528,
                    "duration": 0.30000000000001137
                },
                {
                    "name": "G#5",
                    "midi": 80,
                    "time": 506.0999999999973,
                    "velocity": 0.4881889763779528,
                    "duration": 0.30000000000001137
                },
                {
                    "name": "C#5",
                    "midi": 73,
                    "time": 506.9999999999973,
                    "velocity": 0.4881889763779528,
                    "duration": 0.30000000000001137
                },
                {
                    "name": "F5",
                    "midi": 77,
                    "time": 506.9999999999973,
                    "velocity": 0.4881889763779528,
                    "duration": 0.30000000000001137
                },
                {
                    "name": "C6",
                    "midi": 84,
                    "time": 506.9999999999973,
                    "velocity": 0.4881889763779528,
                    "duration": 0.30000000000001137
                },
                {
                    "name": "G#5",
                    "midi": 80,
                    "time": 507.29999999999734,
                    "velocity": 0.4881889763779528,
                    "duration": 0.30000000000001137
                },
                {
                    "name": "A#5",
                    "midi": 82,
                    "time": 507.59999999999735,
                    "velocity": 0.4881889763779528,
                    "duration": 0.11750000000000682
                },
                {
                    "name": "D#6",
                    "midi": 87,
                    "time": 508.1999999999974,
                    "velocity": 0.4881889763779528,
                    "duration": 0.11750000000000682
                },
                {
                    "name": "C#6",
                    "midi": 85,
                    "time": 508.7999999999974,
                    "velocity": 0.4881889763779528,
                    "duration": 0.6000000000000227
                },
                {
                    "name": "C6",
                    "midi": 84,
                    "time": 509.3999999999974,
                    "velocity": 0.4881889763779528,
                    "duration": 0.30000000000001137
                },
                {
                    "name": "A#5",
                    "midi": 82,
                    "time": 509.69999999999743,
                    "velocity": 0.4881889763779528,
                    "duration": 0.30000000000001137
                },
                {
                    "name": "C6",
                    "midi": 84,
                    "time": 509.99999999999744,
                    "velocity": 0.4881889763779528,
                    "duration": 0.11750000000000682
                },
                {
                    "name": "G#5",
                    "midi": 80,
                    "time": 510.59999999999746,
                    "velocity": 0.4881889763779528,
                    "duration": 0.11750000000000682
                },
                {
                    "name": "D#4",
                    "midi": 63,
                    "time": 511.1999999999975,
                    "velocity": 0.6929133858267716,
                    "duration": 0.6000000000000227
                },
                {
                    "name": "F#4",
                    "midi": 66,
                    "time": 511.1999999999975,
                    "velocity": 0.6929133858267716,
                    "duration": 0.6000000000000227
                },
                {
                    "name": "G#4",
                    "midi": 68,
                    "time": 511.1999999999975,
                    "velocity": 0.6929133858267716,
                    "duration": 0.6000000000000227
                },
                {
                    "name": "C5",
                    "midi": 72,
                    "time": 511.1999999999975,
                    "velocity": 0.6929133858267716,
                    "duration": 0.6000000000000227
                },
                {
                    "name": "F4",
                    "midi": 65,
                    "time": 511.7999999999975,
                    "velocity": 0.6929133858267716,
                    "duration": 0.5999999999999659
                },
                {
                    "name": "G#4",
                    "midi": 68,
                    "time": 511.7999999999975,
                    "velocity": 0.6929133858267716,
                    "duration": 0.5999999999999659
                },
                {
                    "name": "A#4",
                    "midi": 70,
                    "time": 511.7999999999975,
                    "velocity": 0.6929133858267716,
                    "duration": 0.5999999999999659
                },
                {
                    "name": "C#5",
                    "midi": 73,
                    "time": 511.7999999999975,
                    "velocity": 0.6929133858267716,
                    "duration": 0.5999999999999659
                },
                {
                    "name": "C#6",
                    "midi": 85,
                    "time": 512.3999999999975,
                    "velocity": 0.4881889763779528,
                    "duration": 0.11749999999994998
                },
                {
                    "name": "C6",
                    "midi": 84,
                    "time": 512.9999999999974,
                    "velocity": 0.4881889763779528,
                    "duration": 0.2999999999999545
                },
                {
                    "name": "A#5",
                    "midi": 82,
                    "time": 513.2999999999973,
                    "velocity": 0.4881889763779528,
                    "duration": 0.2999999999999545
                },
                {
                    "name": "C6",
                    "midi": 84,
                    "time": 513.5999999999973,
                    "velocity": 0.4881889763779528,
                    "duration": 0.11749999999994998
                },
                {
                    "name": "G#5",
                    "midi": 80,
                    "time": 514.1999999999972,
                    "velocity": 0.4881889763779528,
                    "duration": 0.11749999999994998
                },
                {
                    "name": "A#5",
                    "midi": 82,
                    "time": 514.7999999999971,
                    "velocity": 0.4881889763779528,
                    "duration": 0.11749999999994998
                },
                {
                    "name": "D#6",
                    "midi": 87,
                    "time": 515.399999999997,
                    "velocity": 0.4881889763779528,
                    "duration": 0.11749999999994998
                },
                {
                    "name": "C#6",
                    "midi": 85,
                    "time": 516.599999999997,
                    "velocity": 0.4881889763779528,
                    "duration": 0.2999999999999545
                },
                {
                    "name": "D#6",
                    "midi": 87,
                    "time": 516.599999999997,
                    "velocity": 0.4881889763779528,
                    "duration": 0.2999999999999545
                },
                {
                    "name": "G#6",
                    "midi": 92,
                    "time": 516.599999999997,
                    "velocity": 0.4881889763779528,
                    "duration": 0.2999999999999545
                },
                {
                    "name": "G#5",
                    "midi": 80,
                    "time": 516.8999999999969,
                    "velocity": 0.4881889763779528,
                    "duration": 0.2999999999999545
                },
                {
                    "name": "A#5",
                    "midi": 82,
                    "time": 517.1999999999969,
                    "velocity": 0.4881889763779528,
                    "duration": 0.11749999999994998
                },
                {
                    "name": "D#6",
                    "midi": 87,
                    "time": 517.7999999999968,
                    "velocity": 0.4881889763779528,
                    "duration": 0.11749999999994998
                },
                {
                    "name": "G#6",
                    "midi": 92,
                    "time": 518.3999999999967,
                    "velocity": 0.4881889763779528,
                    "duration": 0.2999999999999545
                },
                {
                    "name": "C#6",
                    "midi": 85,
                    "time": 518.6999999999966,
                    "velocity": 0.4881889763779528,
                    "duration": 0.2999999999999545
                },
                {
                    "name": "D#6",
                    "midi": 87,
                    "time": 518.9999999999966,
                    "velocity": 0.4881889763779528,
                    "duration": 0.2999999999999545
                },
                {
                    "name": "G#5",
                    "midi": 80,
                    "time": 519.2999999999965,
                    "velocity": 0.4881889763779528,
                    "duration": 0.2999999999999545
                },
                {
                    "name": "A#5",
                    "midi": 82,
                    "time": 519.5999999999965,
                    "velocity": 0.4881889763779528,
                    "duration": 0.11749999999994998
                },
                {
                    "name": "D#6",
                    "midi": 87,
                    "time": 520.1999999999964,
                    "velocity": 0.4881889763779528,
                    "duration": 0.11749999999994998
                },
                {
                    "name": "C#6",
                    "midi": 85,
                    "time": 520.7999999999963,
                    "velocity": 0.4881889763779528,
                    "duration": 0.6000000000000227
                },
                {
                    "name": "C6",
                    "midi": 84,
                    "time": 521.3999999999963,
                    "velocity": 0.4881889763779528,
                    "duration": 0.2999999999999545
                },
                {
                    "name": "A#5",
                    "midi": 82,
                    "time": 521.6999999999963,
                    "velocity": 0.4881889763779528,
                    "duration": 0.2999999999999545
                },
                {
                    "name": "C6",
                    "midi": 84,
                    "time": 521.9999999999962,
                    "velocity": 0.4881889763779528,
                    "duration": 0.11749999999994998
                },
                {
                    "name": "G#5",
                    "midi": 80,
                    "time": 522.5999999999962,
                    "velocity": 0.4881889763779528,
                    "duration": 0.11749999999994998
                },
                {
                    "name": "G#5",
                    "midi": 80,
                    "time": 523.1999999999961,
                    "velocity": 0.6929133858267716,
                    "duration": 0.6000000000000227
                },
                {
                    "name": "A#5",
                    "midi": 82,
                    "time": 523.1999999999961,
                    "velocity": 0.6929133858267716,
                    "duration": 0.6000000000000227
                },
                {
                    "name": "A#5",
                    "midi": 82,
                    "time": 523.7999999999961,
                    "velocity": 0.6929133858267716,
                    "duration": 0.6000000000000227
                },
                {
                    "name": "C6",
                    "midi": 84,
                    "time": 523.7999999999961,
                    "velocity": 0.6929133858267716,
                    "duration": 0.6000000000000227
                },
                {
                    "name": "G#5",
                    "midi": 80,
                    "time": 524.3999999999961,
                    "velocity": 0.6929133858267716,
                    "duration": 0.6000000000000227
                },
                {
                    "name": "A#5",
                    "midi": 82,
                    "time": 524.3999999999961,
                    "velocity": 0.6929133858267716,
                    "duration": 0.6000000000000227
                },
                {
                    "name": "A#5",
                    "midi": 82,
                    "time": 524.9999999999961,
                    "velocity": 0.6929133858267716,
                    "duration": 0.6000000000000227
                },
                {
                    "name": "D#6",
                    "midi": 87,
                    "time": 524.9999999999961,
                    "velocity": 0.6929133858267716,
                    "duration": 0.6000000000000227
                },
                {
                    "name": "C6",
                    "midi": 84,
                    "time": 526.1999999999962,
                    "velocity": 0.4881889763779528,
                    "duration": 0.2999999999999545
                },
                {
                    "name": "A#5",
                    "midi": 82,
                    "time": 526.4999999999961,
                    "velocity": 0.4881889763779528,
                    "duration": 0.2999999999999545
                },
                {
                    "name": "C6",
                    "midi": 84,
                    "time": 526.7999999999961,
                    "velocity": 0.4881889763779528,
                    "duration": 0.11749999999994998
                },
                {
                    "name": "G#5",
                    "midi": 80,
                    "time": 527.399999999996,
                    "velocity": 0.4881889763779528,
                    "duration": 0.11749999999994998
                },
                {
                    "name": "A#5",
                    "midi": 82,
                    "time": 527.9999999999959,
                    "velocity": 0.4881889763779528,
                    "duration": 0.6000000000000227
                },
                {
                    "name": "C6",
                    "midi": 84,
                    "time": 528.5999999999959,
                    "velocity": 0.4881889763779528,
                    "duration": 0.2999999999999545
                },
                {
                    "name": "G#5",
                    "midi": 80,
                    "time": 528.8999999999959,
                    "velocity": 0.4881889763779528,
                    "duration": 0.2999999999999545
                },
                {
                    "name": "A#5",
                    "midi": 82,
                    "time": 529.1999999999958,
                    "velocity": 0.4881889763779528,
                    "duration": 0.11749999999994998
                },
                {
                    "name": "D#6",
                    "midi": 87,
                    "time": 529.7999999999957,
                    "velocity": 0.4881889763779528,
                    "duration": 0.11749999999994998
                },
                {
                    "name": "C#6",
                    "midi": 85,
                    "time": 530.3999999999957,
                    "velocity": 0.4881889763779528,
                    "duration": 0.6000000000000227
                },
                {
                    "name": "C6",
                    "midi": 84,
                    "time": 530.9999999999957,
                    "velocity": 0.4881889763779528,
                    "duration": 0.2999999999999545
                },
                {
                    "name": "A#5",
                    "midi": 82,
                    "time": 531.2999999999956,
                    "velocity": 0.4881889763779528,
                    "duration": 0.2999999999999545
                },
                {
                    "name": "C6",
                    "midi": 84,
                    "time": 531.5999999999956,
                    "velocity": 0.4881889763779528,
                    "duration": 0.11749999999994998
                },
                {
                    "name": "G#5",
                    "midi": 80,
                    "time": 532.1999999999955,
                    "velocity": 0.4881889763779528,
                    "duration": 0.11749999999994998
                },
                {
                    "name": "G#5",
                    "midi": 80,
                    "time": 532.7999999999954,
                    "velocity": 0.4881889763779528,
                    "duration": 0.11749999999994998
                },
                {
                    "name": "A#5",
                    "midi": 82,
                    "time": 532.7999999999954,
                    "velocity": 0.4881889763779528,
                    "duration": 0.11749999999994998
                },
                {
                    "name": "A#5",
                    "midi": 82,
                    "time": 533.3999999999953,
                    "velocity": 0.4881889763779528,
                    "duration": 0.11749999999994998
                },
                {
                    "name": "D#6",
                    "midi": 87,
                    "time": 533.3999999999953,
                    "velocity": 0.4881889763779528,
                    "duration": 0.11749999999994998
                },
                {
                    "name": "G#5",
                    "midi": 80,
                    "time": 533.9999999999952,
                    "velocity": 0.4881889763779528,
                    "duration": 0.6000000000000227
                },
                {
                    "name": "C#6",
                    "midi": 85,
                    "time": 533.9999999999952,
                    "velocity": 0.4881889763779528,
                    "duration": 0.6000000000000227
                },
                {
                    "name": "C6",
                    "midi": 84,
                    "time": 534.5999999999952,
                    "velocity": 0.4881889763779528,
                    "duration": 0.2999999999999545
                },
                {
                    "name": "G#5",
                    "midi": 80,
                    "time": 534.8999999999952,
                    "velocity": 0.4881889763779528,
                    "duration": 0.2999999999999545
                },
                {
                    "name": "G#5",
                    "midi": 80,
                    "time": 535.1999999999952,
                    "velocity": 0.4881889763779528,
                    "duration": 0.11749999999994998
                },
                {
                    "name": "A#5",
                    "midi": 82,
                    "time": 535.1999999999952,
                    "velocity": 0.4881889763779528,
                    "duration": 0.11749999999994998
                },
                {
                    "name": "A#5",
                    "midi": 82,
                    "time": 535.7999999999951,
                    "velocity": 0.4881889763779528,
                    "duration": 0.11749999999994998
                },
                {
                    "name": "D#6",
                    "midi": 87,
                    "time": 535.7999999999951,
                    "velocity": 0.4881889763779528,
                    "duration": 0.11749999999994998
                },
                {
                    "name": "F5",
                    "midi": 77,
                    "time": 536.249999999995,
                    "velocity": 0.4881889763779528,
                    "duration": 0.4499999999999318
                },
                {
                    "name": "G#6",
                    "midi": 92,
                    "time": 536.399999999995,
                    "velocity": 0.4881889763779528,
                    "duration": 0.2999999999999545
                },
                {
                    "name": "C#6",
                    "midi": 85,
                    "time": 536.6999999999949,
                    "velocity": 0.4881889763779528,
                    "duration": 0.2999999999999545
                },
                {
                    "name": "D#6",
                    "midi": 87,
                    "time": 536.9999999999949,
                    "velocity": 0.4881889763779528,
                    "duration": 0.2999999999999545
                },
                {
                    "name": "G#5",
                    "midi": 80,
                    "time": 537.2999999999948,
                    "velocity": 0.4881889763779528,
                    "duration": 0.2999999999999545
                },
                {
                    "name": "G#5",
                    "midi": 80,
                    "time": 537.5999999999948,
                    "velocity": 0.4881889763779528,
                    "duration": 0.11749999999994998
                },
                {
                    "name": "A#5",
                    "midi": 82,
                    "time": 537.5999999999948,
                    "velocity": 0.4881889763779528,
                    "duration": 0.11749999999994998
                },
                {
                    "name": "A#5",
                    "midi": 82,
                    "time": 538.1999999999947,
                    "velocity": 0.4881889763779528,
                    "duration": 0.11749999999994998
                },
                {
                    "name": "D#6",
                    "midi": 87,
                    "time": 538.1999999999947,
                    "velocity": 0.4881889763779528,
                    "duration": 0.11749999999994998
                },
                {
                    "name": "G#5",
                    "midi": 80,
                    "time": 538.7999999999946,
                    "velocity": 0.4881889763779528,
                    "duration": 0.6000000000000227
                },
                {
                    "name": "C#6",
                    "midi": 85,
                    "time": 538.7999999999946,
                    "velocity": 0.4881889763779528,
                    "duration": 0.6000000000000227
                },
                {
                    "name": "C6",
                    "midi": 84,
                    "time": 539.3999999999946,
                    "velocity": 0.4881889763779528,
                    "duration": 0.2999999999999545
                },
                {
                    "name": "G#5",
                    "midi": 80,
                    "time": 539.6999999999946,
                    "velocity": 0.4881889763779528,
                    "duration": 0.2999999999999545
                },
                {
                    "name": "F4",
                    "midi": 65,
                    "time": 539.9999999999945,
                    "velocity": 0.3858267716535433,
                    "duration": 0.11749999999994998
                },
                {
                    "name": "F4",
                    "midi": 65,
                    "time": 540.5999999999945,
                    "velocity": 0.3858267716535433,
                    "duration": 0.11749999999994998
                },
                {
                    "name": "G#4",
                    "midi": 68,
                    "time": 540.5999999999945,
                    "velocity": 0.3858267716535433,
                    "duration": 0.11749999999994998
                },
                {
                    "name": "G4",
                    "midi": 67,
                    "time": 541.1999999999944,
                    "velocity": 0.3858267716535433,
                    "duration": 0.11749999999994998
                },
                {
                    "name": "A#4",
                    "midi": 70,
                    "time": 541.7999999999943,
                    "velocity": 0.3858267716535433,
                    "duration": 0.11749999999994998
                },
                {
                    "name": "F4",
                    "midi": 65,
                    "time": 542.3999999999942,
                    "velocity": 0.3858267716535433,
                    "duration": 0.11749999999994998
                },
                {
                    "name": "F4",
                    "midi": 65,
                    "time": 542.9999999999941,
                    "velocity": 0.3858267716535433,
                    "duration": 0.11749999999994998
                },
                {
                    "name": "G#4",
                    "midi": 68,
                    "time": 542.9999999999941,
                    "velocity": 0.3858267716535433,
                    "duration": 0.11749999999994998
                },
                {
                    "name": "G4",
                    "midi": 67,
                    "time": 543.599999999994,
                    "velocity": 0.3858267716535433,
                    "duration": 0.11749999999994998
                },
                {
                    "name": "A#4",
                    "midi": 70,
                    "time": 544.1999999999939,
                    "velocity": 0.3858267716535433,
                    "duration": 0.11749999999994998
                },
                {
                    "name": "G#5",
                    "midi": 80,
                    "time": 545.3999999999938,
                    "velocity": 0.7952755905511811,
                    "duration": 0.6000000000000227
                },
                {
                    "name": "A#5",
                    "midi": 82,
                    "time": 546.5999999999939,
                    "velocity": 0.7952755905511811,
                    "duration": 0.6000000000000227
                },
                {
                    "name": "F#4",
                    "midi": 66,
                    "time": 547.1999999999939,
                    "velocity": 0.5905511811023622,
                    "duration": 0.2999999999999545
                },
                {
                    "name": "A4",
                    "midi": 69,
                    "time": 547.1999999999939,
                    "velocity": 0.5905511811023622,
                    "duration": 0.2999999999999545
                },
                {
                    "name": "D#4",
                    "midi": 63,
                    "time": 547.4999999999939,
                    "velocity": 0.5905511811023622,
                    "duration": 0.2999999999999545
                },
                {
                    "name": "F#4",
                    "midi": 66,
                    "time": 547.7999999999938,
                    "velocity": 0.5905511811023622,
                    "duration": 0.2999999999999545
                },
                {
                    "name": "A4",
                    "midi": 69,
                    "time": 547.7999999999938,
                    "velocity": 0.5905511811023622,
                    "duration": 0.2999999999999545
                },
                {
                    "name": "C5",
                    "midi": 72,
                    "time": 547.7999999999938,
                    "velocity": 0.5905511811023622,
                    "duration": 0.2999999999999545
                },
                {
                    "name": "D#4",
                    "midi": 63,
                    "time": 548.0999999999938,
                    "velocity": 0.5905511811023622,
                    "duration": 0.2999999999999545
                },
                {
                    "name": "G#4",
                    "midi": 68,
                    "time": 548.3999999999937,
                    "velocity": 0.6929133858267716,
                    "duration": 0.2999999999999545
                },
                {
                    "name": "B4",
                    "midi": 71,
                    "time": 548.3999999999937,
                    "velocity": 0.6929133858267716,
                    "duration": 0.2999999999999545
                },
                {
                    "name": "F4",
                    "midi": 65,
                    "time": 548.6999999999937,
                    "velocity": 0.6929133858267716,
                    "duration": 0.2999999999999545
                },
                {
                    "name": "G#4",
                    "midi": 68,
                    "time": 548.9999999999936,
                    "velocity": 0.6929133858267716,
                    "duration": 0.2999999999999545
                },
                {
                    "name": "B4",
                    "midi": 71,
                    "time": 548.9999999999936,
                    "velocity": 0.6929133858267716,
                    "duration": 0.2999999999999545
                },
                {
                    "name": "D5",
                    "midi": 74,
                    "time": 548.9999999999936,
                    "velocity": 0.6929133858267716,
                    "duration": 0.2999999999999545
                },
                {
                    "name": "F4",
                    "midi": 65,
                    "time": 549.2999999999936,
                    "velocity": 0.6929133858267716,
                    "duration": 0.2999999999999545
                },
                {
                    "name": "G#5",
                    "midi": 80,
                    "time": 550.1999999999936,
                    "velocity": 0.8976377952755905,
                    "duration": 0.6000000000000227
                },
                {
                    "name": "F#5",
                    "midi": 78,
                    "time": 551.9999999999936,
                    "velocity": 0.8976377952755905,
                    "duration": 0.6000000000000227
                },
                {
                    "name": "A5",
                    "midi": 81,
                    "time": 551.9999999999936,
                    "velocity": 0.8976377952755905,
                    "duration": 0.6000000000000227
                },
                {
                    "name": "D#5",
                    "midi": 75,
                    "time": 554.3999999999936,
                    "velocity": 0.8976377952755905,
                    "duration": 0.6000000000000227
                },
                {
                    "name": "F#5",
                    "midi": 78,
                    "time": 554.3999999999936,
                    "velocity": 0.8976377952755905,
                    "duration": 0.6000000000000227
                },
                {
                    "name": "A5",
                    "midi": 81,
                    "time": 554.3999999999936,
                    "velocity": 0.8976377952755905,
                    "duration": 0.6000000000000227
                },
                {
                    "name": "A#5",
                    "midi": 82,
                    "time": 557.3999999999936,
                    "velocity": 0.8976377952755905,
                    "duration": 0.6000000000000227
                },
                {
                    "name": "C6",
                    "midi": 84,
                    "time": 557.3999999999936,
                    "velocity": 0.8976377952755905,
                    "duration": 0.6000000000000227
                },
                {
                    "name": "A6",
                    "midi": 93,
                    "time": 559.1999999999937,
                    "velocity": 0.4881889763779528,
                    "duration": 0.6000000000000227
                },
                {
                    "name": "C7",
                    "midi": 96,
                    "time": 559.6499999999937,
                    "velocity": 0.4881889763779528,
                    "duration": 0.14999999999997726
                },
                {
                    "name": "B6",
                    "midi": 95,
                    "time": 559.7999999999937,
                    "velocity": 0.4881889763779528,
                    "duration": 0.2999999999999545
                },
                {
                    "name": "G6",
                    "midi": 91,
                    "time": 560.0999999999937,
                    "velocity": 0.4881889763779528,
                    "duration": 0.2999999999999545
                },
                {
                    "name": "A6",
                    "midi": 93,
                    "time": 560.3999999999936,
                    "velocity": 0.4881889763779528,
                    "duration": 0.6000000000000227
                },
                {
                    "name": "D7",
                    "midi": 98,
                    "time": 560.9999999999936,
                    "velocity": 0.4881889763779528,
                    "duration": 0.2999999999999545
                },
                {
                    "name": "C7",
                    "midi": 96,
                    "time": 561.2999999999936,
                    "velocity": 0.4881889763779528,
                    "duration": 0.14999999999997726
                },
                {
                    "name": "D7",
                    "midi": 98,
                    "time": 561.4499999999936,
                    "velocity": 0.4881889763779528,
                    "duration": 0.14999999999997726
                },
                {
                    "name": "C7",
                    "midi": 96,
                    "time": 561.5999999999935,
                    "velocity": 0.4881889763779528,
                    "duration": 0.6000000000000227
                },
                {
                    "name": "B6",
                    "midi": 95,
                    "time": 562.1999999999936,
                    "velocity": 0.4881889763779528,
                    "duration": 0.2999999999999545
                },
                {
                    "name": "A6",
                    "midi": 93,
                    "time": 562.4999999999935,
                    "velocity": 0.4881889763779528,
                    "duration": 0.2999999999999545
                },
                {
                    "name": "B6",
                    "midi": 95,
                    "time": 562.7999999999935,
                    "velocity": 0.4881889763779528,
                    "duration": 0.6000000000000227
                },
                {
                    "name": "G6",
                    "midi": 91,
                    "time": 563.3999999999935,
                    "velocity": 0.4881889763779528,
                    "duration": 0.6000000000000227
                },
                {
                    "name": "D5",
                    "midi": 74,
                    "time": 563.9999999999935,
                    "velocity": 0.3858267716535433,
                    "duration": 0.11749999999994998
                },
                {
                    "name": "F5",
                    "midi": 77,
                    "time": 564.5999999999934,
                    "velocity": 0.5905511811023622,
                    "duration": 0.11749999999994998
                },
                {
                    "name": "E5",
                    "midi": 76,
                    "time": 565.1999999999933,
                    "velocity": 0.3858267716535433,
                    "duration": 0.11749999999994998
                },
                {
                    "name": "G5",
                    "midi": 79,
                    "time": 565.7999999999932,
                    "velocity": 0.5905511811023622,
                    "duration": 0.11749999999994998
                },
                {
                    "name": "D5",
                    "midi": 74,
                    "time": 566.3999999999932,
                    "velocity": 0.3858267716535433,
                    "duration": 0.11749999999994998
                },
                {
                    "name": "F5",
                    "midi": 77,
                    "time": 566.9999999999931,
                    "velocity": 0.3858267716535433,
                    "duration": 0.11749999999994998
                },
                {
                    "name": "E5",
                    "midi": 76,
                    "time": 567.599999999993,
                    "velocity": 0.3858267716535433,
                    "duration": 0.11749999999994998
                },
                {
                    "name": "G5",
                    "midi": 79,
                    "time": 568.1999999999929,
                    "velocity": 0.3858267716535433,
                    "duration": 0.11749999999994998
                },
                {
                    "name": "A6",
                    "midi": 93,
                    "time": 568.7999999999928,
                    "velocity": 0.4881889763779528,
                    "duration": 0.11749999999994998
                },
                {
                    "name": "D7",
                    "midi": 98,
                    "time": 569.3999999999927,
                    "velocity": 0.4881889763779528,
                    "duration": 0.11749999999994998
                },
                {
                    "name": "G7",
                    "midi": 103,
                    "time": 569.9999999999926,
                    "velocity": 0.4881889763779528,
                    "duration": 0.2999999999999545
                },
                {
                    "name": "C7",
                    "midi": 96,
                    "time": 570.2999999999926,
                    "velocity": 0.4881889763779528,
                    "duration": 0.2999999999999545
                },
                {
                    "name": "D7",
                    "midi": 98,
                    "time": 570.5999999999925,
                    "velocity": 0.4881889763779528,
                    "duration": 0.2999999999999545
                },
                {
                    "name": "G6",
                    "midi": 91,
                    "time": 570.8999999999925,
                    "velocity": 0.4881889763779528,
                    "duration": 0.2999999999999545
                },
                {
                    "name": "A6",
                    "midi": 93,
                    "time": 571.1999999999924,
                    "velocity": 0.4881889763779528,
                    "duration": 0.6000000000000227
                },
                {
                    "name": "D7",
                    "midi": 98,
                    "time": 571.7999999999925,
                    "velocity": 0.4881889763779528,
                    "duration": 0.2999999999999545
                },
                {
                    "name": "C7",
                    "midi": 96,
                    "time": 572.0999999999924,
                    "velocity": 0.4881889763779528,
                    "duration": 0.14999999999997726
                },
                {
                    "name": "D7",
                    "midi": 98,
                    "time": 572.2499999999924,
                    "velocity": 0.4881889763779528,
                    "duration": 0.14999999999997726
                },
                {
                    "name": "C7",
                    "midi": 96,
                    "time": 572.3999999999924,
                    "velocity": 0.4881889763779528,
                    "duration": 0.6000000000000227
                },
                {
                    "name": "B6",
                    "midi": 95,
                    "time": 572.9999999999924,
                    "velocity": 0.4881889763779528,
                    "duration": 0.2999999999999545
                },
                {
                    "name": "A6",
                    "midi": 93,
                    "time": 573.2999999999923,
                    "velocity": 0.4881889763779528,
                    "duration": 0.2999999999999545
                },
                {
                    "name": "D5",
                    "midi": 74,
                    "time": 573.5999999999923,
                    "velocity": 0.3858267716535433,
                    "duration": 0.11749999999994998
                },
                {
                    "name": "F5",
                    "midi": 77,
                    "time": 574.1999999999922,
                    "velocity": 0.5905511811023622,
                    "duration": 0.11749999999994998
                },
                {
                    "name": "E5",
                    "midi": 76,
                    "time": 574.7999999999921,
                    "velocity": 0.3858267716535433,
                    "duration": 0.11749999999994998
                },
                {
                    "name": "G5",
                    "midi": 79,
                    "time": 575.399999999992,
                    "velocity": 0.5905511811023622,
                    "duration": 0.11749999999994998
                },
                {
                    "name": "D5",
                    "midi": 74,
                    "time": 575.9999999999919,
                    "velocity": 0.3858267716535433,
                    "duration": 0.11749999999994998
                },
                {
                    "name": "F5",
                    "midi": 77,
                    "time": 576.5999999999918,
                    "velocity": 0.3858267716535433,
                    "duration": 0.11749999999994998
                },
                {
                    "name": "E5",
                    "midi": 76,
                    "time": 577.1999999999917,
                    "velocity": 0.3858267716535433,
                    "duration": 0.11749999999994998
                },
                {
                    "name": "G5",
                    "midi": 79,
                    "time": 577.7999999999917,
                    "velocity": 0.3858267716535433,
                    "duration": 0.11749999999994998
                },
                {
                    "name": "A4",
                    "midi": 69,
                    "time": 578.3999999999916,
                    "velocity": 0.4881889763779528,
                    "duration": 0.6000000000000227
                },
                {
                    "name": "A5",
                    "midi": 81,
                    "time": 578.3999999999916,
                    "velocity": 0.4881889763779528,
                    "duration": 0.6000000000000227
                },
                {
                    "name": "B4",
                    "midi": 71,
                    "time": 578.9999999999916,
                    "velocity": 0.4881889763779528,
                    "duration": 0.2999999999999545
                },
                {
                    "name": "B5",
                    "midi": 83,
                    "time": 578.9999999999916,
                    "velocity": 0.4881889763779528,
                    "duration": 0.2999999999999545
                },
                {
                    "name": "G5",
                    "midi": 79,
                    "time": 579.2999999999915,
                    "velocity": 0.4881889763779528,
                    "duration": 0.2999999999999545
                },
                {
                    "name": "A4",
                    "midi": 69,
                    "time": 579.5999999999915,
                    "velocity": 0.4881889763779528,
                    "duration": 0.6000000000000227
                },
                {
                    "name": "A5",
                    "midi": 81,
                    "time": 579.5999999999915,
                    "velocity": 0.4881889763779528,
                    "duration": 0.6000000000000227
                },
                {
                    "name": "B4",
                    "midi": 71,
                    "time": 580.1999999999915,
                    "velocity": 0.4881889763779528,
                    "duration": 0.2999999999999545
                },
                {
                    "name": "B5",
                    "midi": 83,
                    "time": 580.1999999999915,
                    "velocity": 0.4881889763779528,
                    "duration": 0.2999999999999545
                },
                {
                    "name": "G5",
                    "midi": 79,
                    "time": 580.4999999999915,
                    "velocity": 0.4881889763779528,
                    "duration": 0.2999999999999545
                },
                {
                    "name": "A4",
                    "midi": 69,
                    "time": 580.7999999999914,
                    "velocity": 0.4881889763779528,
                    "duration": 0.6000000000000227
                },
                {
                    "name": "A5",
                    "midi": 81,
                    "time": 580.7999999999914,
                    "velocity": 0.4881889763779528,
                    "duration": 0.6000000000000227
                },
                {
                    "name": "B4",
                    "midi": 71,
                    "time": 581.3999999999915,
                    "velocity": 0.4881889763779528,
                    "duration": 0.2999999999999545
                },
                {
                    "name": "B5",
                    "midi": 83,
                    "time": 581.3999999999915,
                    "velocity": 0.4881889763779528,
                    "duration": 0.2999999999999545
                },
                {
                    "name": "G5",
                    "midi": 79,
                    "time": 581.6999999999914,
                    "velocity": 0.4881889763779528,
                    "duration": 0.2999999999999545
                },
                {
                    "name": "A4",
                    "midi": 69,
                    "time": 581.9999999999914,
                    "velocity": 0.4881889763779528,
                    "duration": 0.6000000000000227
                },
                {
                    "name": "A5",
                    "midi": 81,
                    "time": 581.9999999999914,
                    "velocity": 0.4881889763779528,
                    "duration": 0.6000000000000227
                },
                {
                    "name": "B4",
                    "midi": 71,
                    "time": 582.5999999999914,
                    "velocity": 0.4881889763779528,
                    "duration": 0.2999999999999545
                },
                {
                    "name": "B5",
                    "midi": 83,
                    "time": 582.5999999999914,
                    "velocity": 0.4881889763779528,
                    "duration": 0.2999999999999545
                },
                {
                    "name": "G5",
                    "midi": 79,
                    "time": 582.8999999999913,
                    "velocity": 0.4881889763779528,
                    "duration": 0.2999999999999545
                },
                {
                    "name": "A4",
                    "midi": 69,
                    "time": 583.1999999999913,
                    "velocity": 0.4881889763779528,
                    "duration": 0.6000000000000227
                },
                {
                    "name": "A5",
                    "midi": 81,
                    "time": 583.1999999999913,
                    "velocity": 0.4881889763779528,
                    "duration": 0.6000000000000227
                },
                {
                    "name": "D5",
                    "midi": 74,
                    "time": 583.7999999999913,
                    "velocity": 0.4881889763779528,
                    "duration": 0.2999999999999545
                },
                {
                    "name": "D6",
                    "midi": 86,
                    "time": 583.7999999999913,
                    "velocity": 0.4881889763779528,
                    "duration": 0.2999999999999545
                },
                {
                    "name": "C6",
                    "midi": 84,
                    "time": 584.0999999999913,
                    "velocity": 0.4881889763779528,
                    "duration": 0.14999999999997726
                },
                {
                    "name": "D6",
                    "midi": 86,
                    "time": 584.2499999999912,
                    "velocity": 0.4881889763779528,
                    "duration": 0.14999999999997726
                },
                {
                    "name": "C6",
                    "midi": 84,
                    "time": 584.3999999999912,
                    "velocity": 0.4881889763779528,
                    "duration": 0.6000000000000227
                },
                {
                    "name": "B5",
                    "midi": 83,
                    "time": 584.9999999999912,
                    "velocity": 0.4881889763779528,
                    "duration": 0.2999999999999545
                },
                {
                    "name": "A5",
                    "midi": 81,
                    "time": 585.2999999999912,
                    "velocity": 0.4881889763779528,
                    "duration": 0.2999999999999545
                },
                {
                    "name": "B4",
                    "midi": 71,
                    "time": 585.5999999999912,
                    "velocity": 0.4881889763779528,
                    "duration": 0.6000000000000227
                },
                {
                    "name": "B5",
                    "midi": 83,
                    "time": 585.5999999999912,
                    "velocity": 0.4881889763779528,
                    "duration": 0.6000000000000227
                },
                {
                    "name": "G4",
                    "midi": 67,
                    "time": 586.1999999999912,
                    "velocity": 0.4881889763779528,
                    "duration": 0.6000000000000227
                },
                {
                    "name": "G5",
                    "midi": 79,
                    "time": 586.1999999999912,
                    "velocity": 0.4881889763779528,
                    "duration": 0.6000000000000227
                },
                {
                    "name": "A4",
                    "midi": 69,
                    "time": 586.7999999999912,
                    "velocity": 0.4881889763779528,
                    "duration": 0.6000000000000227
                },
                {
                    "name": "A5",
                    "midi": 81,
                    "time": 586.7999999999912,
                    "velocity": 0.4881889763779528,
                    "duration": 0.6000000000000227
                },
                {
                    "name": "D6",
                    "midi": 86,
                    "time": 587.2499999999912,
                    "velocity": 0.4881889763779528,
                    "duration": 0.14999999999997726
                },
                {
                    "name": "B5",
                    "midi": 83,
                    "time": 587.3999999999912,
                    "velocity": 0.4881889763779528,
                    "duration": 0.6000000000000227
                },
                {
                    "name": "A5",
                    "midi": 81,
                    "time": 587.9999999999912,
                    "velocity": 0.5905511811023622,
                    "duration": 0.6000000000000227
                },
                {
                    "name": "B5",
                    "midi": 83,
                    "time": 588.5999999999913,
                    "velocity": 0.5905511811023622,
                    "duration": 0.2999999999999545
                },
                {
                    "name": "G5",
                    "midi": 79,
                    "time": 588.8999999999912,
                    "velocity": 0.5905511811023622,
                    "duration": 0.2999999999999545
                },
                {
                    "name": "A5",
                    "midi": 81,
                    "time": 589.1999999999912,
                    "velocity": 0.5905511811023622,
                    "duration": 0.6000000000000227
                },
                {
                    "name": "D6",
                    "midi": 86,
                    "time": 589.7999999999912,
                    "velocity": 0.5905511811023622,
                    "duration": 0.6000000000000227
                },
                {
                    "name": "C6",
                    "midi": 84,
                    "time": 590.3999999999912,
                    "velocity": 0.5905511811023622,
                    "duration": 0.6000000000000227
                },
                {
                    "name": "B5",
                    "midi": 83,
                    "time": 590.9999999999912,
                    "velocity": 0.5905511811023622,
                    "duration": 0.2999999999999545
                },
                {
                    "name": "A5",
                    "midi": 81,
                    "time": 591.2999999999912,
                    "velocity": 0.5905511811023622,
                    "duration": 0.2999999999999545
                },
                {
                    "name": "B5",
                    "midi": 83,
                    "time": 591.5999999999912,
                    "velocity": 0.5905511811023622,
                    "duration": 0.6000000000000227
                },
                {
                    "name": "G5",
                    "midi": 79,
                    "time": 592.1999999999912,
                    "velocity": 0.5905511811023622,
                    "duration": 0.6000000000000227
                },
                {
                    "name": "A5",
                    "midi": 81,
                    "time": 592.7999999999912,
                    "velocity": 0.5905511811023622,
                    "duration": 0.6000000000000227
                },
                {
                    "name": "B5",
                    "midi": 83,
                    "time": 593.3999999999912,
                    "velocity": 0.5905511811023622,
                    "duration": 0.2999999999999545
                },
                {
                    "name": "G5",
                    "midi": 79,
                    "time": 593.6999999999912,
                    "velocity": 0.5905511811023622,
                    "duration": 0.2999999999999545
                },
                {
                    "name": "A5",
                    "midi": 81,
                    "time": 593.9999999999911,
                    "velocity": 0.5905511811023622,
                    "duration": 0.6000000000000227
                },
                {
                    "name": "B5",
                    "midi": 83,
                    "time": 594.5999999999912,
                    "velocity": 0.5905511811023622,
                    "duration": 0.6000000000000227
                },
                {
                    "name": "A5",
                    "midi": 81,
                    "time": 595.1999999999912,
                    "velocity": 0.5905511811023622,
                    "duration": 0.6000000000000227
                },
                {
                    "name": "D6",
                    "midi": 86,
                    "time": 595.7999999999912,
                    "velocity": 0.5905511811023622,
                    "duration": 0.6000000000000227
                },
                {
                    "name": "C6",
                    "midi": 84,
                    "time": 596.3999999999912,
                    "velocity": 0.5905511811023622,
                    "duration": 0.6000000000000227
                },
                {
                    "name": "B5",
                    "midi": 83,
                    "time": 596.9999999999912,
                    "velocity": 0.5905511811023622,
                    "duration": 0.2999999999999545
                },
                {
                    "name": "G5",
                    "midi": 79,
                    "time": 597.2999999999912,
                    "velocity": 0.5905511811023622,
                    "duration": 0.2999999999999545
                },
                {
                    "name": "A5",
                    "midi": 81,
                    "time": 597.5999999999912,
                    "velocity": 0.6929133858267716,
                    "duration": 0.6000000000000227
                },
                {
                    "name": "B5",
                    "midi": 83,
                    "time": 598.1999999999912,
                    "velocity": 0.6929133858267716,
                    "duration": 0.6000000000000227
                },
                {
                    "name": "A5",
                    "midi": 81,
                    "time": 598.7999999999912,
                    "velocity": 0.6929133858267716,
                    "duration": 0.6000000000000227
                },
                {
                    "name": "D6",
                    "midi": 86,
                    "time": 599.3999999999912,
                    "velocity": 0.6929133858267716,
                    "duration": 0.6000000000000227
                },
                {
                    "name": "C6",
                    "midi": 84,
                    "time": 599.9999999999912,
                    "velocity": 0.6929133858267716,
                    "duration": 0.6000000000000227
                },
                {
                    "name": "B5",
                    "midi": 83,
                    "time": 600.5999999999913,
                    "velocity": 0.6929133858267716,
                    "duration": 0.2999999999999545
                },
                {
                    "name": "A5",
                    "midi": 81,
                    "time": 600.8999999999912,
                    "velocity": 0.6929133858267716,
                    "duration": 0.2999999999999545
                },
                {
                    "name": "B5",
                    "midi": 83,
                    "time": 601.1999999999912,
                    "velocity": 0.6929133858267716,
                    "duration": 0.6000000000000227
                },
                {
                    "name": "G5",
                    "midi": 79,
                    "time": 601.7999999999912,
                    "velocity": 0.6929133858267716,
                    "duration": 0.6000000000000227
                },
                {
                    "name": "A5",
                    "midi": 81,
                    "time": 602.3999999999912,
                    "velocity": 0.6929133858267716,
                    "duration": 0.6000000000000227
                },
                {
                    "name": "D6",
                    "midi": 86,
                    "time": 602.9999999999912,
                    "velocity": 0.6929133858267716,
                    "duration": 0.6000000000000227
                },
                {
                    "name": "G5",
                    "midi": 79,
                    "time": 603.5999999999913,
                    "velocity": 0.6929133858267716,
                    "duration": 0.2999999999999545
                },
                {
                    "name": "G6",
                    "midi": 91,
                    "time": 603.5999999999913,
                    "velocity": 0.6929133858267716,
                    "duration": 0.2999999999999545
                },
                {
                    "name": "C6",
                    "midi": 84,
                    "time": 603.8999999999912,
                    "velocity": 0.6929133858267716,
                    "duration": 0.2999999999999545
                },
                {
                    "name": "D6",
                    "midi": 86,
                    "time": 604.1999999999912,
                    "velocity": 0.6929133858267716,
                    "duration": 0.2999999999999545
                },
                {
                    "name": "G5",
                    "midi": 79,
                    "time": 604.4999999999911,
                    "velocity": 0.6929133858267716,
                    "duration": 0.2999999999999545
                },
                {
                    "name": "A5",
                    "midi": 81,
                    "time": 604.7999999999911,
                    "velocity": 0.6929133858267716,
                    "duration": 0.6000000000000227
                },
                {
                    "name": "D6",
                    "midi": 86,
                    "time": 605.3999999999911,
                    "velocity": 0.6929133858267716,
                    "duration": 0.6000000000000227
                },
                {
                    "name": "C6",
                    "midi": 84,
                    "time": 605.9999999999911,
                    "velocity": 0.6929133858267716,
                    "duration": 0.6000000000000227
                },
                {
                    "name": "B5",
                    "midi": 83,
                    "time": 606.5999999999912,
                    "velocity": 0.6929133858267716,
                    "duration": 0.2999999999999545
                },
                {
                    "name": "G5",
                    "midi": 79,
                    "time": 606.8999999999911,
                    "velocity": 0.6929133858267716,
                    "duration": 0.2999999999999545
                },
                {
                    "name": "A5",
                    "midi": 81,
                    "time": 607.1999999999911,
                    "velocity": 0.7952755905511811,
                    "duration": 0.6000000000000227
                },
                {
                    "name": "A6",
                    "midi": 93,
                    "time": 607.1999999999911,
                    "velocity": 0.7952755905511811,
                    "duration": 0.6000000000000227
                },
                {
                    "name": "B5",
                    "midi": 83,
                    "time": 607.7999999999911,
                    "velocity": 0.7952755905511811,
                    "duration": 0.2999999999999545
                },
                {
                    "name": "B6",
                    "midi": 95,
                    "time": 607.7999999999911,
                    "velocity": 0.7952755905511811,
                    "duration": 0.2999999999999545
                },
                {
                    "name": "G6",
                    "midi": 91,
                    "time": 608.099999999991,
                    "velocity": 0.7952755905511811,
                    "duration": 0.2999999999999545
                },
                {
                    "name": "A5",
                    "midi": 81,
                    "time": 608.399999999991,
                    "velocity": 0.7952755905511811,
                    "duration": 0.6000000000000227
                },
                {
                    "name": "A6",
                    "midi": 93,
                    "time": 608.399999999991,
                    "velocity": 0.7952755905511811,
                    "duration": 0.6000000000000227
                },
                {
                    "name": "D6",
                    "midi": 86,
                    "time": 608.999999999991,
                    "velocity": 0.7952755905511811,
                    "duration": 0.6000000000000227
                },
                {
                    "name": "D7",
                    "midi": 98,
                    "time": 608.999999999991,
                    "velocity": 0.7952755905511811,
                    "duration": 0.6000000000000227
                },
                {
                    "name": "C6",
                    "midi": 84,
                    "time": 609.599999999991,
                    "velocity": 0.7952755905511811,
                    "duration": 0.6000000000000227
                },
                {
                    "name": "C7",
                    "midi": 96,
                    "time": 609.599999999991,
                    "velocity": 0.7952755905511811,
                    "duration": 0.6000000000000227
                },
                {
                    "name": "B5",
                    "midi": 83,
                    "time": 610.1999999999911,
                    "velocity": 0.7952755905511811,
                    "duration": 0.2999999999999545
                },
                {
                    "name": "B6",
                    "midi": 95,
                    "time": 610.1999999999911,
                    "velocity": 0.7952755905511811,
                    "duration": 0.2999999999999545
                },
                {
                    "name": "A5",
                    "midi": 81,
                    "time": 610.499999999991,
                    "velocity": 0.7952755905511811,
                    "duration": 0.2999999999999545
                },
                {
                    "name": "A6",
                    "midi": 93,
                    "time": 610.499999999991,
                    "velocity": 0.7952755905511811,
                    "duration": 0.2999999999999545
                },
                {
                    "name": "B5",
                    "midi": 83,
                    "time": 610.799999999991,
                    "velocity": 0.7952755905511811,
                    "duration": 0.6000000000000227
                },
                {
                    "name": "B6",
                    "midi": 95,
                    "time": 610.799999999991,
                    "velocity": 0.7952755905511811,
                    "duration": 0.6000000000000227
                },
                {
                    "name": "G5",
                    "midi": 79,
                    "time": 611.399999999991,
                    "velocity": 0.7952755905511811,
                    "duration": 0.6000000000000227
                },
                {
                    "name": "G6",
                    "midi": 91,
                    "time": 611.399999999991,
                    "velocity": 0.7952755905511811,
                    "duration": 0.6000000000000227
                },
                {
                    "name": "A5",
                    "midi": 81,
                    "time": 611.999999999991,
                    "velocity": 0.7952755905511811,
                    "duration": 0.6000000000000227
                },
                {
                    "name": "A6",
                    "midi": 93,
                    "time": 611.999999999991,
                    "velocity": 0.7952755905511811,
                    "duration": 0.6000000000000227
                },
                {
                    "name": "D6",
                    "midi": 86,
                    "time": 612.599999999991,
                    "velocity": 0.7952755905511811,
                    "duration": 0.6000000000000227
                },
                {
                    "name": "D7",
                    "midi": 98,
                    "time": 612.599999999991,
                    "velocity": 0.7952755905511811,
                    "duration": 0.6000000000000227
                },
                {
                    "name": "G6",
                    "midi": 91,
                    "time": 613.1999999999911,
                    "velocity": 0.7952755905511811,
                    "duration": 0.2999999999999545
                },
                {
                    "name": "D7",
                    "midi": 98,
                    "time": 613.1999999999911,
                    "velocity": 0.7952755905511811,
                    "duration": 0.2999999999999545
                },
                {
                    "name": "G7",
                    "midi": 103,
                    "time": 613.1999999999911,
                    "velocity": 0.7952755905511811,
                    "duration": 0.2999999999999545
                },
                {
                    "name": "C7",
                    "midi": 96,
                    "time": 613.499999999991,
                    "velocity": 0.7952755905511811,
                    "duration": 0.2999999999999545
                },
                {
                    "name": "D6",
                    "midi": 86,
                    "time": 613.799999999991,
                    "velocity": 0.7952755905511811,
                    "duration": 0.2999999999999545
                },
                {
                    "name": "D7",
                    "midi": 98,
                    "time": 613.799999999991,
                    "velocity": 0.7952755905511811,
                    "duration": 0.2999999999999545
                },
                {
                    "name": "G6",
                    "midi": 91,
                    "time": 614.0999999999909,
                    "velocity": 0.7952755905511811,
                    "duration": 0.2999999999999545
                },
                {
                    "name": "A5",
                    "midi": 81,
                    "time": 614.3999999999909,
                    "velocity": 0.7952755905511811,
                    "duration": 0.6000000000000227
                },
                {
                    "name": "D#6",
                    "midi": 87,
                    "time": 614.3999999999909,
                    "velocity": 0.7952755905511811,
                    "duration": 0.6000000000000227
                },
                {
                    "name": "G6",
                    "midi": 91,
                    "time": 614.3999999999909,
                    "velocity": 0.7952755905511811,
                    "duration": 0.6000000000000227
                },
                {
                    "name": "A6",
                    "midi": 93,
                    "time": 614.3999999999909,
                    "velocity": 0.7952755905511811,
                    "duration": 0.6000000000000227
                },
                {
                    "name": "D6",
                    "midi": 86,
                    "time": 614.9999999999909,
                    "velocity": 1,
                    "duration": 0.6000000000000227
                },
                {
                    "name": "D#6",
                    "midi": 87,
                    "time": 614.9999999999909,
                    "velocity": 1,
                    "duration": 0.6000000000000227
                },
                {
                    "name": "G6",
                    "midi": 91,
                    "time": 614.9999999999909,
                    "velocity": 1,
                    "duration": 0.6000000000000227
                },
                {
                    "name": "B6",
                    "midi": 95,
                    "time": 614.9999999999909,
                    "velocity": 1,
                    "duration": 0.6000000000000227
                },
                {
                    "name": "D7",
                    "midi": 98,
                    "time": 614.9999999999909,
                    "velocity": 1,
                    "duration": 0.6000000000000227
                },
                {
                    "name": "C6",
                    "midi": 84,
                    "time": 615.5999999999909,
                    "velocity": 0.7952755905511811,
                    "duration": 0.6000000000000227
                },
                {
                    "name": "G6",
                    "midi": 91,
                    "time": 615.5999999999909,
                    "velocity": 0.7952755905511811,
                    "duration": 0.6000000000000227
                },
                {
                    "name": "C7",
                    "midi": 96,
                    "time": 615.5999999999909,
                    "velocity": 0.7952755905511811,
                    "duration": 0.6000000000000227
                },
                {
                    "name": "A5",
                    "midi": 81,
                    "time": 616.199999999991,
                    "velocity": 1,
                    "duration": 0.2999999999999545
                },
                {
                    "name": "B5",
                    "midi": 83,
                    "time": 616.199999999991,
                    "velocity": 1,
                    "duration": 0.2999999999999545
                },
                {
                    "name": "D#6",
                    "midi": 87,
                    "time": 616.199999999991,
                    "velocity": 1,
                    "duration": 0.2999999999999545
                },
                {
                    "name": "B6",
                    "midi": 95,
                    "time": 616.199999999991,
                    "velocity": 1,
                    "duration": 0.2999999999999545
                },
                {
                    "name": "G6",
                    "midi": 91,
                    "time": 616.4999999999909,
                    "velocity": 0.7952755905511811,
                    "duration": 0.2999999999999545
                },
                {
                    "name": "A5",
                    "midi": 81,
                    "time": 616.7999999999909,
                    "velocity": 0.7952755905511811,
                    "duration": 0.6000000000000227
                },
                {
                    "name": "A6",
                    "midi": 93,
                    "time": 616.7999999999909,
                    "velocity": 0.7952755905511811,
                    "duration": 0.6000000000000227
                },
                {
                    "name": "B5",
                    "midi": 83,
                    "time": 617.3999999999909,
                    "velocity": 0.7952755905511811,
                    "duration": 0.2999999999999545
                },
                {
                    "name": "B6",
                    "midi": 95,
                    "time": 617.3999999999909,
                    "velocity": 0.7952755905511811,
                    "duration": 0.2999999999999545
                },
                {
                    "name": "G6",
                    "midi": 91,
                    "time": 617.6999999999908,
                    "velocity": 0.7952755905511811,
                    "duration": 0.2999999999999545
                },
                {
                    "name": "A5",
                    "midi": 81,
                    "time": 617.9999999999908,
                    "velocity": 0.7952755905511811,
                    "duration": 0.6000000000000227
                },
                {
                    "name": "A6",
                    "midi": 93,
                    "time": 617.9999999999908,
                    "velocity": 0.7952755905511811,
                    "duration": 0.6000000000000227
                },
                {
                    "name": "D6",
                    "midi": 86,
                    "time": 618.5999999999908,
                    "velocity": 0.7952755905511811,
                    "duration": 0.6000000000000227
                },
                {
                    "name": "D7",
                    "midi": 98,
                    "time": 618.5999999999908,
                    "velocity": 0.7952755905511811,
                    "duration": 0.6000000000000227
                },
                {
                    "name": "C6",
                    "midi": 84,
                    "time": 619.1999999999908,
                    "velocity": 0.7952755905511811,
                    "duration": 0.6000000000000227
                },
                {
                    "name": "C7",
                    "midi": 96,
                    "time": 619.1999999999908,
                    "velocity": 0.7952755905511811,
                    "duration": 0.6000000000000227
                },
                {
                    "name": "B5",
                    "midi": 83,
                    "time": 619.7999999999909,
                    "velocity": 0.7952755905511811,
                    "duration": 0.2999999999999545
                },
                {
                    "name": "B6",
                    "midi": 95,
                    "time": 619.7999999999909,
                    "velocity": 0.7952755905511811,
                    "duration": 0.2999999999999545
                },
                {
                    "name": "A5",
                    "midi": 81,
                    "time": 620.0999999999908,
                    "velocity": 0.7952755905511811,
                    "duration": 0.2999999999999545
                },
                {
                    "name": "A6",
                    "midi": 93,
                    "time": 620.0999999999908,
                    "velocity": 0.7952755905511811,
                    "duration": 0.2999999999999545
                },
                {
                    "name": "B5",
                    "midi": 83,
                    "time": 620.3999999999908,
                    "velocity": 0.7952755905511811,
                    "duration": 0.6000000000000227
                },
                {
                    "name": "B6",
                    "midi": 95,
                    "time": 620.3999999999908,
                    "velocity": 0.7952755905511811,
                    "duration": 0.6000000000000227
                },
                {
                    "name": "G5",
                    "midi": 79,
                    "time": 620.9999999999908,
                    "velocity": 0.7952755905511811,
                    "duration": 0.6000000000000227
                },
                {
                    "name": "G6",
                    "midi": 91,
                    "time": 620.9999999999908,
                    "velocity": 0.7952755905511811,
                    "duration": 0.6000000000000227
                },
                {
                    "name": "A5",
                    "midi": 81,
                    "time": 621.5999999999908,
                    "velocity": 0.7952755905511811,
                    "duration": 0.6000000000000227
                },
                {
                    "name": "A6",
                    "midi": 93,
                    "time": 621.5999999999908,
                    "velocity": 0.7952755905511811,
                    "duration": 0.6000000000000227
                },
                {
                    "name": "D6",
                    "midi": 86,
                    "time": 622.1999999999908,
                    "velocity": 0.7952755905511811,
                    "duration": 0.6000000000000227
                },
                {
                    "name": "D7",
                    "midi": 98,
                    "time": 622.1999999999908,
                    "velocity": 0.7952755905511811,
                    "duration": 0.6000000000000227
                },
                {
                    "name": "G6",
                    "midi": 91,
                    "time": 622.7999999999909,
                    "velocity": 0.7952755905511811,
                    "duration": 0.2999999999999545
                },
                {
                    "name": "G7",
                    "midi": 103,
                    "time": 622.7999999999909,
                    "velocity": 0.7952755905511811,
                    "duration": 0.2999999999999545
                },
                {
                    "name": "C7",
                    "midi": 96,
                    "time": 623.0999999999908,
                    "velocity": 0.7952755905511811,
                    "duration": 0.2999999999999545
                },
                {
                    "name": "D6",
                    "midi": 86,
                    "time": 623.3999999999908,
                    "velocity": 0.7952755905511811,
                    "duration": 0.2999999999999545
                },
                {
                    "name": "D7",
                    "midi": 98,
                    "time": 623.3999999999908,
                    "velocity": 0.7952755905511811,
                    "duration": 0.2999999999999545
                },
                {
                    "name": "G6",
                    "midi": 91,
                    "time": 623.6999999999907,
                    "velocity": 0.7952755905511811,
                    "duration": 0.2999999999999545
                },
                {
                    "name": "A5",
                    "midi": 81,
                    "time": 623.9999999999907,
                    "velocity": 0.7952755905511811,
                    "duration": 0.6000000000000227
                },
                {
                    "name": "D#6",
                    "midi": 87,
                    "time": 623.9999999999907,
                    "velocity": 0.7952755905511811,
                    "duration": 0.6000000000000227
                },
                {
                    "name": "G6",
                    "midi": 91,
                    "time": 623.9999999999907,
                    "velocity": 0.7952755905511811,
                    "duration": 0.6000000000000227
                },
                {
                    "name": "A6",
                    "midi": 93,
                    "time": 623.9999999999907,
                    "velocity": 0.7952755905511811,
                    "duration": 0.6000000000000227
                },
                {
                    "name": "D6",
                    "midi": 86,
                    "time": 624.5999999999907,
                    "velocity": 1,
                    "duration": 0.6000000000000227
                },
                {
                    "name": "D#6",
                    "midi": 87,
                    "time": 624.5999999999907,
                    "velocity": 1,
                    "duration": 0.6000000000000227
                },
                {
                    "name": "G6",
                    "midi": 91,
                    "time": 624.5999999999907,
                    "velocity": 1,
                    "duration": 0.6000000000000227
                },
                {
                    "name": "B6",
                    "midi": 95,
                    "time": 624.5999999999907,
                    "velocity": 1,
                    "duration": 0.6000000000000227
                },
                {
                    "name": "D7",
                    "midi": 98,
                    "time": 624.5999999999907,
                    "velocity": 1,
                    "duration": 0.6000000000000227
                },
                {
                    "name": "C6",
                    "midi": 84,
                    "time": 625.1999999999907,
                    "velocity": 0.7952755905511811,
                    "duration": 0.6000000000000227
                },
                {
                    "name": "G6",
                    "midi": 91,
                    "time": 625.1999999999907,
                    "velocity": 0.7952755905511811,
                    "duration": 0.6000000000000227
                },
                {
                    "name": "C7",
                    "midi": 96,
                    "time": 625.1999999999907,
                    "velocity": 0.7952755905511811,
                    "duration": 0.6000000000000227
                },
                {
                    "name": "A5",
                    "midi": 81,
                    "time": 625.7999999999907,
                    "velocity": 1,
                    "duration": 0.2999999999999545
                },
                {
                    "name": "B5",
                    "midi": 83,
                    "time": 625.7999999999907,
                    "velocity": 1,
                    "duration": 0.2999999999999545
                },
                {
                    "name": "D#6",
                    "midi": 87,
                    "time": 625.7999999999907,
                    "velocity": 1,
                    "duration": 0.2999999999999545
                },
                {
                    "name": "B6",
                    "midi": 95,
                    "time": 625.7999999999907,
                    "velocity": 1,
                    "duration": 0.2999999999999545
                },
                {
                    "name": "G6",
                    "midi": 91,
                    "time": 626.0999999999907,
                    "velocity": 0.7952755905511811,
                    "duration": 0.2999999999999545
                },
                {
                    "name": "A5",
                    "midi": 81,
                    "time": 626.3999999999907,
                    "velocity": 0.7952755905511811,
                    "duration": 0.6000000000000227
                },
                {
                    "name": "A6",
                    "midi": 93,
                    "time": 626.3999999999907,
                    "velocity": 0.7952755905511811,
                    "duration": 0.6000000000000227
                },
                {
                    "name": "D6",
                    "midi": 86,
                    "time": 626.9999999999907,
                    "velocity": 0.7952755905511811,
                    "duration": 0.6000000000000227
                },
                {
                    "name": "D7",
                    "midi": 98,
                    "time": 626.9999999999907,
                    "velocity": 0.7952755905511811,
                    "duration": 0.6000000000000227
                },
                {
                    "name": "G6",
                    "midi": 91,
                    "time": 627.5999999999907,
                    "velocity": 0.7952755905511811,
                    "duration": 0.2999999999999545
                },
                {
                    "name": "G7",
                    "midi": 103,
                    "time": 627.5999999999907,
                    "velocity": 0.7952755905511811,
                    "duration": 0.2999999999999545
                },
                {
                    "name": "C7",
                    "midi": 96,
                    "time": 627.8999999999907,
                    "velocity": 0.7952755905511811,
                    "duration": 0.2999999999999545
                },
                {
                    "name": "D6",
                    "midi": 86,
                    "time": 628.1999999999906,
                    "velocity": 0.7952755905511811,
                    "duration": 0.2999999999999545
                },
                {
                    "name": "D7",
                    "midi": 98,
                    "time": 628.1999999999906,
                    "velocity": 0.7952755905511811,
                    "duration": 0.2999999999999545
                },
                {
                    "name": "G6",
                    "midi": 91,
                    "time": 628.4999999999906,
                    "velocity": 0.7952755905511811,
                    "duration": 0.2999999999999545
                },
                {
                    "name": "A5",
                    "midi": 81,
                    "time": 628.7999999999905,
                    "velocity": 0.7952755905511811,
                    "duration": 0.6000000000000227
                },
                {
                    "name": "A6",
                    "midi": 93,
                    "time": 628.7999999999905,
                    "velocity": 0.7952755905511811,
                    "duration": 0.6000000000000227
                },
                {
                    "name": "D6",
                    "midi": 86,
                    "time": 629.3999999999905,
                    "velocity": 0.7952755905511811,
                    "duration": 0.6000000000000227
                },
                {
                    "name": "D7",
                    "midi": 98,
                    "time": 629.3999999999905,
                    "velocity": 0.7952755905511811,
                    "duration": 0.6000000000000227
                },
                {
                    "name": "G6",
                    "midi": 91,
                    "time": 629.9999999999906,
                    "velocity": 0.7952755905511811,
                    "duration": 0.2999999999999545
                },
                {
                    "name": "G7",
                    "midi": 103,
                    "time": 629.9999999999906,
                    "velocity": 0.7952755905511811,
                    "duration": 0.2999999999999545
                },
                {
                    "name": "C7",
                    "midi": 96,
                    "time": 630.2999999999905,
                    "velocity": 0.7952755905511811,
                    "duration": 0.2999999999999545
                },
                {
                    "name": "D6",
                    "midi": 86,
                    "time": 630.5999999999905,
                    "velocity": 0.7952755905511811,
                    "duration": 0.2999999999999545
                },
                {
                    "name": "D7",
                    "midi": 98,
                    "time": 630.5999999999905,
                    "velocity": 0.7952755905511811,
                    "duration": 0.2999999999999545
                },
                {
                    "name": "G6",
                    "midi": 91,
                    "time": 630.8999999999904,
                    "velocity": 0.7952755905511811,
                    "duration": 0.2999999999999545
                },
                {
                    "name": "A5",
                    "midi": 81,
                    "time": 631.1999999999904,
                    "velocity": 0.7952755905511811,
                    "duration": 0.6000000000000227
                },
                {
                    "name": "A6",
                    "midi": 93,
                    "time": 631.1999999999904,
                    "velocity": 0.7952755905511811,
                    "duration": 0.6000000000000227
                },
                {
                    "name": "D6",
                    "midi": 86,
                    "time": 631.7999999999904,
                    "velocity": 0.7952755905511811,
                    "duration": 0.6000000000000227
                },
                {
                    "name": "D7",
                    "midi": 98,
                    "time": 631.7999999999904,
                    "velocity": 0.7952755905511811,
                    "duration": 0.6000000000000227
                },
                {
                    "name": "G6",
                    "midi": 91,
                    "time": 632.3999999999904,
                    "velocity": 0.7952755905511811,
                    "duration": 0.2999999999999545
                },
                {
                    "name": "G7",
                    "midi": 103,
                    "time": 632.3999999999904,
                    "velocity": 0.7952755905511811,
                    "duration": 0.2999999999999545
                },
                {
                    "name": "C7",
                    "midi": 96,
                    "time": 632.6999999999904,
                    "velocity": 0.7952755905511811,
                    "duration": 0.2999999999999545
                },
                {
                    "name": "D6",
                    "midi": 86,
                    "time": 632.9999999999903,
                    "velocity": 0.7952755905511811,
                    "duration": 0.2999999999999545
                },
                {
                    "name": "D7",
                    "midi": 98,
                    "time": 632.9999999999903,
                    "velocity": 0.7952755905511811,
                    "duration": 0.2999999999999545
                },
                {
                    "name": "G6",
                    "midi": 91,
                    "time": 633.2999999999903,
                    "velocity": 0.7952755905511811,
                    "duration": 0.2999999999999545
                },
                {
                    "name": "A5",
                    "midi": 81,
                    "time": 633.5999999999902,
                    "velocity": 0.7952755905511811,
                    "duration": 0.6000000000000227
                },
                {
                    "name": "D#6",
                    "midi": 87,
                    "time": 633.5999999999902,
                    "velocity": 0.7952755905511811,
                    "duration": 0.6000000000000227
                },
                {
                    "name": "G6",
                    "midi": 91,
                    "time": 633.5999999999902,
                    "velocity": 0.7952755905511811,
                    "duration": 0.6000000000000227
                },
                {
                    "name": "A6",
                    "midi": 93,
                    "time": 633.5999999999902,
                    "velocity": 0.7952755905511811,
                    "duration": 0.6000000000000227
                },
                {
                    "name": "D6",
                    "midi": 86,
                    "time": 634.1999999999903,
                    "velocity": 1,
                    "duration": 0.6000000000000227
                },
                {
                    "name": "D#6",
                    "midi": 87,
                    "time": 634.1999999999903,
                    "velocity": 1,
                    "duration": 0.6000000000000227
                },
                {
                    "name": "G6",
                    "midi": 91,
                    "time": 634.1999999999903,
                    "velocity": 1,
                    "duration": 0.6000000000000227
                },
                {
                    "name": "B6",
                    "midi": 95,
                    "time": 634.1999999999903,
                    "velocity": 1,
                    "duration": 0.6000000000000227
                },
                {
                    "name": "D7",
                    "midi": 98,
                    "time": 634.1999999999903,
                    "velocity": 1,
                    "duration": 0.6000000000000227
                },
                {
                    "name": "C6",
                    "midi": 84,
                    "time": 634.7999999999903,
                    "velocity": 0.7952755905511811,
                    "duration": 0.6000000000000227
                },
                {
                    "name": "G6",
                    "midi": 91,
                    "time": 634.7999999999903,
                    "velocity": 0.7952755905511811,
                    "duration": 0.6000000000000227
                },
                {
                    "name": "C7",
                    "midi": 96,
                    "time": 634.7999999999903,
                    "velocity": 0.7952755905511811,
                    "duration": 0.6000000000000227
                },
                {
                    "name": "A5",
                    "midi": 81,
                    "time": 635.3999999999903,
                    "velocity": 1,
                    "duration": 0.2999999999999545
                },
                {
                    "name": "B5",
                    "midi": 83,
                    "time": 635.3999999999903,
                    "velocity": 1,
                    "duration": 0.2999999999999545
                },
                {
                    "name": "D#6",
                    "midi": 87,
                    "time": 635.3999999999903,
                    "velocity": 1,
                    "duration": 0.2999999999999545
                },
                {
                    "name": "B6",
                    "midi": 95,
                    "time": 635.3999999999903,
                    "velocity": 1,
                    "duration": 0.2999999999999545
                },
                {
                    "name": "G6",
                    "midi": 91,
                    "time": 635.6999999999903,
                    "velocity": 0.7952755905511811,
                    "duration": 0.2999999999999545
                },
                {
                    "name": "E4",
                    "midi": 64,
                    "time": 635.9999999999902,
                    "velocity": 0.7952755905511811,
                    "duration": 0.6000000000000227
                },
                {
                    "name": "G4",
                    "midi": 67,
                    "time": 635.9999999999902,
                    "velocity": 0.7952755905511811,
                    "duration": 0.6000000000000227
                },
                {
                    "name": "A#4",
                    "midi": 70,
                    "time": 635.9999999999902,
                    "velocity": 0.7952755905511811,
                    "duration": 0.6000000000000227
                },
                {
                    "name": "C#5",
                    "midi": 73,
                    "time": 635.9999999999902,
                    "velocity": 0.7952755905511811,
                    "duration": 0.6000000000000227
                },
                {
                    "name": "D#5",
                    "midi": 75,
                    "time": 635.9999999999902,
                    "velocity": 0.7952755905511811,
                    "duration": 0.6000000000000227
                },
                {
                    "name": "A#4",
                    "midi": 70,
                    "time": 636.5999999999902,
                    "velocity": 0.5905511811023622,
                    "duration": 0.2999999999999545
                },
                {
                    "name": "C#5",
                    "midi": 73,
                    "time": 636.5999999999902,
                    "velocity": 0.5905511811023622,
                    "duration": 0.2999999999999545
                },
                {
                    "name": "D#5",
                    "midi": 75,
                    "time": 636.5999999999902,
                    "velocity": 0.5905511811023622,
                    "duration": 0.2999999999999545
                },
                {
                    "name": "G4",
                    "midi": 67,
                    "time": 636.8999999999902,
                    "velocity": 0.5905511811023622,
                    "duration": 0.2999999999999545
                },
                {
                    "name": "A#4",
                    "midi": 70,
                    "time": 637.1999999999902,
                    "velocity": 0.5905511811023622,
                    "duration": 0.2999999999999545
                },
                {
                    "name": "C#5",
                    "midi": 73,
                    "time": 637.1999999999902,
                    "velocity": 0.5905511811023622,
                    "duration": 0.2999999999999545
                },
                {
                    "name": "D#5",
                    "midi": 75,
                    "time": 637.1999999999902,
                    "velocity": 0.5905511811023622,
                    "duration": 0.2999999999999545
                },
                {
                    "name": "G4",
                    "midi": 67,
                    "time": 637.4999999999901,
                    "velocity": 0.5905511811023622,
                    "duration": 0.2999999999999545
                },
                {
                    "name": "A#4",
                    "midi": 70,
                    "time": 637.7999999999901,
                    "velocity": 0.5905511811023622,
                    "duration": 0.2999999999999545
                },
                {
                    "name": "C#5",
                    "midi": 73,
                    "time": 637.7999999999901,
                    "velocity": 0.5905511811023622,
                    "duration": 0.2999999999999545
                },
                {
                    "name": "D#5",
                    "midi": 75,
                    "time": 637.7999999999901,
                    "velocity": 0.5905511811023622,
                    "duration": 0.2999999999999545
                },
                {
                    "name": "G4",
                    "midi": 67,
                    "time": 638.09999999999,
                    "velocity": 0.5905511811023622,
                    "duration": 0.2999999999999545
                },
                {
                    "name": "A#4",
                    "midi": 70,
                    "time": 638.39999999999,
                    "velocity": 0.5905511811023622,
                    "duration": 0.2999999999999545
                },
                {
                    "name": "C#5",
                    "midi": 73,
                    "time": 638.39999999999,
                    "velocity": 0.5905511811023622,
                    "duration": 0.2999999999999545
                },
                {
                    "name": "D#5",
                    "midi": 75,
                    "time": 638.39999999999,
                    "velocity": 0.5905511811023622,
                    "duration": 0.2999999999999545
                },
                {
                    "name": "G4",
                    "midi": 67,
                    "time": 638.6999999999899,
                    "velocity": 0.5905511811023622,
                    "duration": 0.2999999999999545
                },
                {
                    "name": "A#4",
                    "midi": 70,
                    "time": 638.9999999999899,
                    "velocity": 0.5905511811023622,
                    "duration": 0.2999999999999545
                },
                {
                    "name": "C#5",
                    "midi": 73,
                    "time": 638.9999999999899,
                    "velocity": 0.5905511811023622,
                    "duration": 0.2999999999999545
                },
                {
                    "name": "D#5",
                    "midi": 75,
                    "time": 638.9999999999899,
                    "velocity": 0.5905511811023622,
                    "duration": 0.2999999999999545
                },
                {
                    "name": "G4",
                    "midi": 67,
                    "time": 639.2999999999898,
                    "velocity": 0.5905511811023622,
                    "duration": 0.2999999999999545
                },
                {
                    "name": "A#4",
                    "midi": 70,
                    "time": 639.5999999999898,
                    "velocity": 0.5905511811023622,
                    "duration": 0.2999999999999545
                },
                {
                    "name": "C#5",
                    "midi": 73,
                    "time": 639.5999999999898,
                    "velocity": 0.5905511811023622,
                    "duration": 0.2999999999999545
                },
                {
                    "name": "D#5",
                    "midi": 75,
                    "time": 639.5999999999898,
                    "velocity": 0.5905511811023622,
                    "duration": 0.2999999999999545
                },
                {
                    "name": "G4",
                    "midi": 67,
                    "time": 639.8999999999897,
                    "velocity": 0.5905511811023622,
                    "duration": 0.2999999999999545
                },
                {
                    "name": "A#4",
                    "midi": 70,
                    "time": 640.1999999999897,
                    "velocity": 0.5905511811023622,
                    "duration": 0.2999999999999545
                },
                {
                    "name": "C#5",
                    "midi": 73,
                    "time": 640.1999999999897,
                    "velocity": 0.5905511811023622,
                    "duration": 0.2999999999999545
                },
                {
                    "name": "D#5",
                    "midi": 75,
                    "time": 640.1999999999897,
                    "velocity": 0.5905511811023622,
                    "duration": 0.2999999999999545
                },
                {
                    "name": "G4",
                    "midi": 67,
                    "time": 640.4999999999897,
                    "velocity": 0.5905511811023622,
                    "duration": 0.2999999999999545
                },
                {
                    "name": "A#4",
                    "midi": 70,
                    "time": 640.7999999999896,
                    "velocity": 0.5905511811023622,
                    "duration": 0.2999999999999545
                },
                {
                    "name": "C#5",
                    "midi": 73,
                    "time": 640.7999999999896,
                    "velocity": 0.5905511811023622,
                    "duration": 0.2999999999999545
                },
                {
                    "name": "D#5",
                    "midi": 75,
                    "time": 640.7999999999896,
                    "velocity": 0.5905511811023622,
                    "duration": 0.2999999999999545
                },
                {
                    "name": "G4",
                    "midi": 67,
                    "time": 641.0999999999896,
                    "velocity": 0.5905511811023622,
                    "duration": 0.2999999999999545
                },
                {
                    "name": "A#4",
                    "midi": 70,
                    "time": 641.3999999999895,
                    "velocity": 0.5905511811023622,
                    "duration": 0.2999999999999545
                },
                {
                    "name": "C#5",
                    "midi": 73,
                    "time": 641.3999999999895,
                    "velocity": 0.5905511811023622,
                    "duration": 0.2999999999999545
                },
                {
                    "name": "D#5",
                    "midi": 75,
                    "time": 641.3999999999895,
                    "velocity": 0.5905511811023622,
                    "duration": 0.2999999999999545
                },
                {
                    "name": "G4",
                    "midi": 67,
                    "time": 641.6999999999895,
                    "velocity": 0.5905511811023622,
                    "duration": 0.2999999999999545
                },
                {
                    "name": "A#4",
                    "midi": 70,
                    "time": 641.9999999999894,
                    "velocity": 0.5905511811023622,
                    "duration": 0.2999999999999545
                },
                {
                    "name": "C#5",
                    "midi": 73,
                    "time": 641.9999999999894,
                    "velocity": 0.5905511811023622,
                    "duration": 0.2999999999999545
                },
                {
                    "name": "D#5",
                    "midi": 75,
                    "time": 641.9999999999894,
                    "velocity": 0.5905511811023622,
                    "duration": 0.2999999999999545
                },
                {
                    "name": "G4",
                    "midi": 67,
                    "time": 642.2999999999894,
                    "velocity": 0.5905511811023622,
                    "duration": 0.2999999999999545
                },
                {
                    "name": "A#4",
                    "midi": 70,
                    "time": 642.5999999999893,
                    "velocity": 0.5905511811023622,
                    "duration": 0.2999999999999545
                },
                {
                    "name": "C#5",
                    "midi": 73,
                    "time": 642.5999999999893,
                    "velocity": 0.5905511811023622,
                    "duration": 0.2999999999999545
                },
                {
                    "name": "D#5",
                    "midi": 75,
                    "time": 642.5999999999893,
                    "velocity": 0.5905511811023622,
                    "duration": 0.2999999999999545
                },
                {
                    "name": "G4",
                    "midi": 67,
                    "time": 642.8999999999893,
                    "velocity": 0.5905511811023622,
                    "duration": 0.2999999999999545
                },
                {
                    "name": "A#4",
                    "midi": 70,
                    "time": 643.1999999999892,
                    "velocity": 0.5905511811023622,
                    "duration": 0.2999999999999545
                },
                {
                    "name": "C#5",
                    "midi": 73,
                    "time": 643.1999999999892,
                    "velocity": 0.5905511811023622,
                    "duration": 0.2999999999999545
                },
                {
                    "name": "D#5",
                    "midi": 75,
                    "time": 643.1999999999892,
                    "velocity": 0.5905511811023622,
                    "duration": 0.2999999999999545
                },
                {
                    "name": "G4",
                    "midi": 67,
                    "time": 643.4999999999892,
                    "velocity": 0.5905511811023622,
                    "duration": 0.2999999999999545
                },
                {
                    "name": "A#4",
                    "midi": 70,
                    "time": 643.7999999999892,
                    "velocity": 0.5905511811023622,
                    "duration": 0.2999999999999545
                },
                {
                    "name": "C#5",
                    "midi": 73,
                    "time": 643.7999999999892,
                    "velocity": 0.5905511811023622,
                    "duration": 0.2999999999999545
                },
                {
                    "name": "D#5",
                    "midi": 75,
                    "time": 643.7999999999892,
                    "velocity": 0.5905511811023622,
                    "duration": 0.2999999999999545
                },
                {
                    "name": "G4",
                    "midi": 67,
                    "time": 644.0999999999891,
                    "velocity": 0.5905511811023622,
                    "duration": 0.2999999999999545
                },
                {
                    "name": "A#4",
                    "midi": 70,
                    "time": 644.3999999999891,
                    "velocity": 0.5905511811023622,
                    "duration": 0.2999999999999545
                },
                {
                    "name": "C#5",
                    "midi": 73,
                    "time": 644.3999999999891,
                    "velocity": 0.5905511811023622,
                    "duration": 0.2999999999999545
                },
                {
                    "name": "D#5",
                    "midi": 75,
                    "time": 644.3999999999891,
                    "velocity": 0.5905511811023622,
                    "duration": 0.2999999999999545
                },
                {
                    "name": "G4",
                    "midi": 67,
                    "time": 644.699999999989,
                    "velocity": 0.5905511811023622,
                    "duration": 0.2999999999999545
                },
                {
                    "name": "A#4",
                    "midi": 70,
                    "time": 644.999999999989,
                    "velocity": 0.5905511811023622,
                    "duration": 0.2999999999999545
                },
                {
                    "name": "C#5",
                    "midi": 73,
                    "time": 644.999999999989,
                    "velocity": 0.5905511811023622,
                    "duration": 0.2999999999999545
                },
                {
                    "name": "D#5",
                    "midi": 75,
                    "time": 644.999999999989,
                    "velocity": 0.5905511811023622,
                    "duration": 0.2999999999999545
                },
                {
                    "name": "G4",
                    "midi": 67,
                    "time": 645.2999999999889,
                    "velocity": 0.5905511811023622,
                    "duration": 0.2999999999999545
                },
                {
                    "name": "A#4",
                    "midi": 70,
                    "time": 645.5999999999889,
                    "velocity": 0.5905511811023622,
                    "duration": 0.2999999999999545
                },
                {
                    "name": "C#5",
                    "midi": 73,
                    "time": 645.5999999999889,
                    "velocity": 0.5905511811023622,
                    "duration": 0.2999999999999545
                },
                {
                    "name": "D#5",
                    "midi": 75,
                    "time": 645.5999999999889,
                    "velocity": 0.5905511811023622,
                    "duration": 0.2999999999999545
                },
                {
                    "name": "G4",
                    "midi": 67,
                    "time": 645.8999999999888,
                    "velocity": 0.5905511811023622,
                    "duration": 0.2999999999999545
                },
                {
                    "name": "A#4",
                    "midi": 70,
                    "time": 646.1999999999888,
                    "velocity": 0.5905511811023622,
                    "duration": 0.2999999999999545
                },
                {
                    "name": "C#5",
                    "midi": 73,
                    "time": 646.1999999999888,
                    "velocity": 0.5905511811023622,
                    "duration": 0.2999999999999545
                },
                {
                    "name": "D#5",
                    "midi": 75,
                    "time": 646.1999999999888,
                    "velocity": 0.5905511811023622,
                    "duration": 0.2999999999999545
                },
                {
                    "name": "G4",
                    "midi": 67,
                    "time": 646.4999999999887,
                    "velocity": 0.5905511811023622,
                    "duration": 0.2999999999999545
                },
                {
                    "name": "A#4",
                    "midi": 70,
                    "time": 646.7999999999887,
                    "velocity": 0.5905511811023622,
                    "duration": 0.2999999999999545
                },
                {
                    "name": "C#5",
                    "midi": 73,
                    "time": 646.7999999999887,
                    "velocity": 0.5905511811023622,
                    "duration": 0.2999999999999545
                },
                {
                    "name": "D#5",
                    "midi": 75,
                    "time": 646.7999999999887,
                    "velocity": 0.5905511811023622,
                    "duration": 0.2999999999999545
                },
                {
                    "name": "G4",
                    "midi": 67,
                    "time": 647.0999999999887,
                    "velocity": 0.5905511811023622,
                    "duration": 0.2999999999999545
                },
                {
                    "name": "A#4",
                    "midi": 70,
                    "time": 647.3999999999886,
                    "velocity": 0.5905511811023622,
                    "duration": 0.2999999999999545
                },
                {
                    "name": "C#5",
                    "midi": 73,
                    "time": 647.3999999999886,
                    "velocity": 0.5905511811023622,
                    "duration": 0.2999999999999545
                },
                {
                    "name": "D#5",
                    "midi": 75,
                    "time": 647.3999999999886,
                    "velocity": 0.5905511811023622,
                    "duration": 0.2999999999999545
                },
                {
                    "name": "G4",
                    "midi": 67,
                    "time": 647.6999999999886,
                    "velocity": 0.5905511811023622,
                    "duration": 0.2999999999999545
                },
                {
                    "name": "A#4",
                    "midi": 70,
                    "time": 647.9999999999885,
                    "velocity": 0.5905511811023622,
                    "duration": 0.2999999999999545
                },
                {
                    "name": "C#5",
                    "midi": 73,
                    "time": 647.9999999999885,
                    "velocity": 0.5905511811023622,
                    "duration": 0.2999999999999545
                },
                {
                    "name": "D#5",
                    "midi": 75,
                    "time": 647.9999999999885,
                    "velocity": 0.5905511811023622,
                    "duration": 0.2999999999999545
                },
                {
                    "name": "G4",
                    "midi": 67,
                    "time": 648.2999999999885,
                    "velocity": 0.5905511811023622,
                    "duration": 0.2999999999999545
                },
                {
                    "name": "A#4",
                    "midi": 70,
                    "time": 648.5999999999884,
                    "velocity": 0.5905511811023622,
                    "duration": 0.11749999999994998
                },
                {
                    "name": "C#5",
                    "midi": 73,
                    "time": 648.5999999999884,
                    "velocity": 0.5905511811023622,
                    "duration": 0.11749999999994998
                },
                {
                    "name": "A5",
                    "midi": 81,
                    "time": 649.1999999999883,
                    "velocity": 0.7952755905511811,
                    "duration": 0.6000000000000227
                },
                {
                    "name": "D6",
                    "midi": 86,
                    "time": 649.7999999999884,
                    "velocity": 0.7952755905511811,
                    "duration": 0.6000000000000227
                },
                {
                    "name": "A5",
                    "midi": 81,
                    "time": 650.3999999999884,
                    "velocity": 0.7952755905511811,
                    "duration": 0.6000000000000227
                },
                {
                    "name": "D6",
                    "midi": 86,
                    "time": 650.9999999999884,
                    "velocity": 0.7952755905511811,
                    "duration": 0.6000000000000227
                },
                {
                    "name": "E6",
                    "midi": 88,
                    "time": 651.5999999999884,
                    "velocity": 0.7952755905511811,
                    "duration": 0.6000000000000227
                },
                {
                    "name": "G6",
                    "midi": 91,
                    "time": 652.1999999999884,
                    "velocity": 0.7952755905511811,
                    "duration": 0.6000000000000227
                },
                {
                    "name": "F#6",
                    "midi": 90,
                    "time": 652.7999999999885,
                    "velocity": 0.7952755905511811,
                    "duration": 0.6000000000000227
                },
                {
                    "name": "E6",
                    "midi": 88,
                    "time": 653.3999999999885,
                    "velocity": 0.7952755905511811,
                    "duration": 0.6000000000000227
                },
                {
                    "name": "D6",
                    "midi": 86,
                    "time": 653.9999999999885,
                    "velocity": 0.7952755905511811,
                    "duration": 0.6000000000000227
                },
                {
                    "name": "A5",
                    "midi": 81,
                    "time": 654.5999999999885,
                    "velocity": 0.7952755905511811,
                    "duration": 0.6000000000000227
                },
                {
                    "name": "B5",
                    "midi": 83,
                    "time": 655.1999999999886,
                    "velocity": 0.7952755905511811,
                    "duration": 0.6000000000000227
                },
                {
                    "name": "D6",
                    "midi": 86,
                    "time": 655.7999999999886,
                    "velocity": 0.7952755905511811,
                    "duration": 0.6000000000000227
                },
                {
                    "name": "G6",
                    "midi": 91,
                    "time": 656.3999999999886,
                    "velocity": 0.7952755905511811,
                    "duration": 0.6000000000000227
                },
                {
                    "name": "F#6",
                    "midi": 90,
                    "time": 656.9999999999886,
                    "velocity": 0.7952755905511811,
                    "duration": 0.6000000000000227
                },
                {
                    "name": "E6",
                    "midi": 88,
                    "time": 657.5999999999887,
                    "velocity": 0.7952755905511811,
                    "duration": 0.6000000000000227
                },
                {
                    "name": "D6",
                    "midi": 86,
                    "time": 658.1999999999887,
                    "velocity": 0.7952755905511811,
                    "duration": 0.6000000000000227
                },
                {
                    "name": "A5",
                    "midi": 81,
                    "time": 658.7999999999887,
                    "velocity": 0.7952755905511811,
                    "duration": 0.6000000000000227
                },
                {
                    "name": "A5",
                    "midi": 81,
                    "time": 659.9999999999887,
                    "velocity": 0.7952755905511811,
                    "duration": 0.6000000000000227
                },
                {
                    "name": "D6",
                    "midi": 86,
                    "time": 660.5999999999888,
                    "velocity": 0.7952755905511811,
                    "duration": 0.6000000000000227
                },
                {
                    "name": "C6",
                    "midi": 84,
                    "time": 661.1999999999888,
                    "velocity": 0.7952755905511811,
                    "duration": 0.6000000000000227
                },
                {
                    "name": "A5",
                    "midi": 81,
                    "time": 661.7999999999888,
                    "velocity": 0.7952755905511811,
                    "duration": 0.6000000000000227
                },
                {
                    "name": "A5",
                    "midi": 81,
                    "time": 662.3999999999888,
                    "velocity": 0.7952755905511811,
                    "duration": 0.6000000000000227
                },
                {
                    "name": "B5",
                    "midi": 83,
                    "time": 662.9999999999889,
                    "velocity": 0.5905511811023622,
                    "duration": 0.3574999999999591
                },
                {
                    "name": "A5",
                    "midi": 81,
                    "time": 663.3574999999888,
                    "velocity": 0.5905511811023622,
                    "duration": 0.36000000000001364
                },
                {
                    "name": "F#5",
                    "midi": 78,
                    "time": 663.7174999999888,
                    "velocity": 0.5905511811023622,
                    "duration": 0.3624999999999545
                },
                {
                    "name": "D#5",
                    "midi": 75,
                    "time": 664.0799999999888,
                    "velocity": 0.5905511811023622,
                    "duration": 0.36000000000001364
                },
                {
                    "name": "C5",
                    "midi": 72,
                    "time": 664.4399999999888,
                    "velocity": 0.5905511811023622,
                    "duration": 0.36000000000001364
                },
                {
                    "name": "B4",
                    "midi": 71,
                    "time": 664.7999999999888,
                    "velocity": 0.5905511811023622,
                    "duration": 0.3574999999999591
                },
                {
                    "name": "A4",
                    "midi": 69,
                    "time": 665.1574999999888,
                    "velocity": 0.5905511811023622,
                    "duration": 0.36000000000001364
                },
                {
                    "name": "F#4",
                    "midi": 66,
                    "time": 665.5174999999888,
                    "velocity": 0.5905511811023622,
                    "duration": 0.3624999999999545
                },
                {
                    "name": "D#4",
                    "midi": 63,
                    "time": 665.8799999999887,
                    "velocity": 0.5905511811023622,
                    "duration": 0.36000000000001364
                },
                {
                    "name": "C4",
                    "midi": 60,
                    "time": 666.2399999999888,
                    "velocity": 0.5905511811023622,
                    "duration": 0.36000000000001364
                },
                {
                    "name": "B5",
                    "midi": 83,
                    "time": 666.5999999999888,
                    "velocity": 0.5905511811023622,
                    "duration": 0.3574999999999591
                },
                {
                    "name": "A5",
                    "midi": 81,
                    "time": 666.9574999999887,
                    "velocity": 0.5905511811023622,
                    "duration": 0.36000000000001364
                },
                {
                    "name": "F#5",
                    "midi": 78,
                    "time": 667.3174999999887,
                    "velocity": 0.5905511811023622,
                    "duration": 0.3624999999999545
                },
                {
                    "name": "D#5",
                    "midi": 75,
                    "time": 667.6799999999887,
                    "velocity": 0.5905511811023622,
                    "duration": 0.36000000000001364
                },
                {
                    "name": "C5",
                    "midi": 72,
                    "time": 668.0399999999887,
                    "velocity": 0.5905511811023622,
                    "duration": 0.36000000000001364
                },
                {
                    "name": "B4",
                    "midi": 71,
                    "time": 668.3999999999887,
                    "velocity": 0.5905511811023622,
                    "duration": 0.3574999999999591
                },
                {
                    "name": "A4",
                    "midi": 69,
                    "time": 668.7574999999887,
                    "velocity": 0.5905511811023622,
                    "duration": 0.36000000000001364
                },
                {
                    "name": "F#4",
                    "midi": 66,
                    "time": 669.1174999999887,
                    "velocity": 0.5905511811023622,
                    "duration": 0.3624999999999545
                },
                {
                    "name": "D#4",
                    "midi": 63,
                    "time": 669.4799999999886,
                    "velocity": 0.5905511811023622,
                    "duration": 0.36000000000001364
                },
                {
                    "name": "C4",
                    "midi": 60,
                    "time": 669.8399999999887,
                    "velocity": 0.5905511811023622,
                    "duration": 0.36000000000001364
                },
                {
                    "name": "B5",
                    "midi": 83,
                    "time": 670.1999999999887,
                    "velocity": 0.5905511811023622,
                    "duration": 0.3574999999999591
                },
                {
                    "name": "A5",
                    "midi": 81,
                    "time": 670.5574999999886,
                    "velocity": 0.5905511811023622,
                    "duration": 0.36000000000001364
                },
                {
                    "name": "F#5",
                    "midi": 78,
                    "time": 670.9174999999886,
                    "velocity": 0.5905511811023622,
                    "duration": 0.3624999999999545
                },
                {
                    "name": "D#5",
                    "midi": 75,
                    "time": 671.2799999999886,
                    "velocity": 0.5905511811023622,
                    "duration": 0.36000000000001364
                },
                {
                    "name": "C5",
                    "midi": 72,
                    "time": 671.6399999999886,
                    "velocity": 0.5905511811023622,
                    "duration": 0.36000000000001364
                },
                {
                    "name": "B4",
                    "midi": 71,
                    "time": 671.9999999999886,
                    "velocity": 0.5905511811023622,
                    "duration": 0.3574999999999591
                },
                {
                    "name": "A4",
                    "midi": 69,
                    "time": 672.3574999999886,
                    "velocity": 0.5905511811023622,
                    "duration": 0.36000000000001364
                },
                {
                    "name": "F#4",
                    "midi": 66,
                    "time": 672.7174999999886,
                    "velocity": 0.5905511811023622,
                    "duration": 0.3624999999999545
                },
                {
                    "name": "D#4",
                    "midi": 63,
                    "time": 673.0799999999886,
                    "velocity": 0.5905511811023622,
                    "duration": 0.36000000000001364
                },
                {
                    "name": "C4",
                    "midi": 60,
                    "time": 673.4399999999886,
                    "velocity": 0.5905511811023622,
                    "duration": 0.36000000000001364
                },
                {
                    "name": "G#3",
                    "midi": 56,
                    "time": 673.7999999999886,
                    "velocity": 0.5905511811023622,
                    "duration": 0.2999999999999545
                },
                {
                    "name": "A#3",
                    "midi": 58,
                    "time": 674.0999999999885,
                    "velocity": 0.5905511811023622,
                    "duration": 0.2999999999999545
                },
                {
                    "name": "C4",
                    "midi": 60,
                    "time": 674.3999999999885,
                    "velocity": 0.5905511811023622,
                    "duration": 0.2999999999999545
                },
                {
                    "name": "C#4",
                    "midi": 61,
                    "time": 674.6999999999884,
                    "velocity": 0.5905511811023622,
                    "duration": 0.2999999999999545
                },
                {
                    "name": "D#4",
                    "midi": 63,
                    "time": 674.9999999999884,
                    "velocity": 0.5905511811023622,
                    "duration": 0.2999999999999545
                },
                {
                    "name": "E4",
                    "midi": 64,
                    "time": 675.2999999999884,
                    "velocity": 0.5905511811023622,
                    "duration": 0.2999999999999545
                },
                {
                    "name": "C4",
                    "midi": 60,
                    "time": 675.5999999999883,
                    "velocity": 0.5905511811023622,
                    "duration": 0.2999999999999545
                },
                {
                    "name": "F4",
                    "midi": 65,
                    "time": 675.8999999999883,
                    "velocity": 0.5905511811023622,
                    "duration": 0.2999999999999545
                },
                {
                    "name": "F#4",
                    "midi": 66,
                    "time": 676.1999999999882,
                    "velocity": 0.5905511811023622,
                    "duration": 0.2999999999999545
                },
                {
                    "name": "G#4",
                    "midi": 68,
                    "time": 676.4999999999882,
                    "velocity": 0.5905511811023622,
                    "duration": 0.2999999999999545
                },
                {
                    "name": "A#4",
                    "midi": 70,
                    "time": 676.7999999999881,
                    "velocity": 0.5905511811023622,
                    "duration": 0.2999999999999545
                },
                {
                    "name": "B4",
                    "midi": 71,
                    "time": 677.0999999999881,
                    "velocity": 0.5905511811023622,
                    "duration": 0.2999999999999545
                },
                {
                    "name": "E4",
                    "midi": 64,
                    "time": 677.399999999988,
                    "velocity": 0.5905511811023622,
                    "duration": 0.2999999999999545
                },
                {
                    "name": "G4",
                    "midi": 67,
                    "time": 677.399999999988,
                    "velocity": 0.5905511811023622,
                    "duration": 0.2999999999999545
                },
                {
                    "name": "A#4",
                    "midi": 70,
                    "time": 677.399999999988,
                    "velocity": 0.5905511811023622,
                    "duration": 0.2999999999999545
                },
                {
                    "name": "C5",
                    "midi": 72,
                    "time": 677.399999999988,
                    "velocity": 0.5905511811023622,
                    "duration": 0.2999999999999545
                },
                {
                    "name": "C#4",
                    "midi": 61,
                    "time": 677.699999999988,
                    "velocity": 0.5905511811023622,
                    "duration": 0.2999999999999545
                },
                {
                    "name": "G#4",
                    "midi": 68,
                    "time": 677.999999999988,
                    "velocity": 0.5905511811023622,
                    "duration": 0.2999999999999545
                },
                {
                    "name": "B4",
                    "midi": 71,
                    "time": 677.999999999988,
                    "velocity": 0.5905511811023622,
                    "duration": 0.2999999999999545
                },
                {
                    "name": "C#5",
                    "midi": 73,
                    "time": 677.999999999988,
                    "velocity": 0.5905511811023622,
                    "duration": 0.2999999999999545
                },
                {
                    "name": "F4",
                    "midi": 65,
                    "time": 678.2999999999879,
                    "velocity": 0.5905511811023622,
                    "duration": 0.2999999999999545
                },
                {
                    "name": "A4",
                    "midi": 69,
                    "time": 678.5999999999879,
                    "velocity": 0.5905511811023622,
                    "duration": 0.2999999999999545
                },
                {
                    "name": "C5",
                    "midi": 72,
                    "time": 678.5999999999879,
                    "velocity": 0.5905511811023622,
                    "duration": 0.2999999999999545
                },
                {
                    "name": "D5",
                    "midi": 74,
                    "time": 678.5999999999879,
                    "velocity": 0.5905511811023622,
                    "duration": 0.2999999999999545
                },
                {
                    "name": "F#4",
                    "midi": 66,
                    "time": 678.8999999999878,
                    "velocity": 0.5905511811023622,
                    "duration": 0.2999999999999545
                },
                {
                    "name": "E4",
                    "midi": 64,
                    "time": 679.1999999999878,
                    "velocity": 0.8976377952755905,
                    "duration": 0.6000000000000227
                },
                {
                    "name": "G4",
                    "midi": 67,
                    "time": 679.1999999999878,
                    "velocity": 0.8976377952755905,
                    "duration": 0.6000000000000227
                },
                {
                    "name": "A#4",
                    "midi": 70,
                    "time": 679.1999999999878,
                    "velocity": 0.8976377952755905,
                    "duration": 0.6000000000000227
                },
                {
                    "name": "C#5",
                    "midi": 73,
                    "time": 679.1999999999878,
                    "velocity": 0.8976377952755905,
                    "duration": 0.6000000000000227
                },
                {
                    "name": "D#5",
                    "midi": 75,
                    "time": 679.1999999999878,
                    "velocity": 0.8976377952755905,
                    "duration": 0.6000000000000227
                },
                {
                    "name": "G5",
                    "midi": 79,
                    "time": 679.7999999999878,
                    "velocity": 0.6929133858267716,
                    "duration": 0.2999999999999545
                },
                {
                    "name": "A#5",
                    "midi": 82,
                    "time": 679.7999999999878,
                    "velocity": 0.6929133858267716,
                    "duration": 0.2999999999999545
                },
                {
                    "name": "D#6",
                    "midi": 87,
                    "time": 679.7999999999878,
                    "velocity": 0.6929133858267716,
                    "duration": 0.2999999999999545
                },
                {
                    "name": "E5",
                    "midi": 76,
                    "time": 680.0999999999877,
                    "velocity": 0.6929133858267716,
                    "duration": 0.2999999999999545
                },
                {
                    "name": "F5",
                    "midi": 77,
                    "time": 680.3999999999877,
                    "velocity": 0.6929133858267716,
                    "duration": 0.2999999999999545
                },
                {
                    "name": "G#5",
                    "midi": 80,
                    "time": 680.3999999999877,
                    "velocity": 0.6929133858267716,
                    "duration": 0.2999999999999545
                },
                {
                    "name": "C#6",
                    "midi": 85,
                    "time": 680.3999999999877,
                    "velocity": 0.6929133858267716,
                    "duration": 0.2999999999999545
                },
                {
                    "name": "D5",
                    "midi": 74,
                    "time": 680.6999999999877,
                    "velocity": 0.6929133858267716,
                    "duration": 0.2999999999999545
                },
                {
                    "name": "D#5",
                    "midi": 75,
                    "time": 680.9999999999876,
                    "velocity": 0.6929133858267716,
                    "duration": 0.2999999999999545
                },
                {
                    "name": "F#5",
                    "midi": 78,
                    "time": 680.9999999999876,
                    "velocity": 0.6929133858267716,
                    "duration": 0.2999999999999545
                },
                {
                    "name": "B5",
                    "midi": 83,
                    "time": 680.9999999999876,
                    "velocity": 0.6929133858267716,
                    "duration": 0.2999999999999545
                },
                {
                    "name": "C5",
                    "midi": 72,
                    "time": 681.2999999999876,
                    "velocity": 0.6929133858267716,
                    "duration": 0.2999999999999545
                },
                {
                    "name": "G5",
                    "midi": 79,
                    "time": 681.5999999999875,
                    "velocity": 0.6929133858267716,
                    "duration": 0.2999999999999545
                },
                {
                    "name": "A#5",
                    "midi": 82,
                    "time": 681.5999999999875,
                    "velocity": 0.6929133858267716,
                    "duration": 0.2999999999999545
                },
                {
                    "name": "D#6",
                    "midi": 87,
                    "time": 681.5999999999875,
                    "velocity": 0.6929133858267716,
                    "duration": 0.2999999999999545
                },
                {
                    "name": "E5",
                    "midi": 76,
                    "time": 681.8999999999875,
                    "velocity": 0.6929133858267716,
                    "duration": 0.2999999999999545
                },
                {
                    "name": "F5",
                    "midi": 77,
                    "time": 682.1999999999874,
                    "velocity": 0.6929133858267716,
                    "duration": 0.2999999999999545
                },
                {
                    "name": "G#5",
                    "midi": 80,
                    "time": 682.1999999999874,
                    "velocity": 0.6929133858267716,
                    "duration": 0.2999999999999545
                },
                {
                    "name": "C#6",
                    "midi": 85,
                    "time": 682.1999999999874,
                    "velocity": 0.6929133858267716,
                    "duration": 0.2999999999999545
                },
                {
                    "name": "D5",
                    "midi": 74,
                    "time": 682.4999999999874,
                    "velocity": 0.6929133858267716,
                    "duration": 0.2999999999999545
                },
                {
                    "name": "D#5",
                    "midi": 75,
                    "time": 682.7999999999873,
                    "velocity": 0.6929133858267716,
                    "duration": 0.2999999999999545
                },
                {
                    "name": "F#5",
                    "midi": 78,
                    "time": 682.7999999999873,
                    "velocity": 0.6929133858267716,
                    "duration": 0.2999999999999545
                },
                {
                    "name": "B5",
                    "midi": 83,
                    "time": 682.7999999999873,
                    "velocity": 0.6929133858267716,
                    "duration": 0.2999999999999545
                },
                {
                    "name": "C5",
                    "midi": 72,
                    "time": 683.0999999999873,
                    "velocity": 0.6929133858267716,
                    "duration": 0.2999999999999545
                },
                {
                    "name": "D5",
                    "midi": 74,
                    "time": 683.3999999999872,
                    "velocity": 0.6929133858267716,
                    "duration": 0.2999999999999545
                },
                {
                    "name": "F5",
                    "midi": 77,
                    "time": 683.3999999999872,
                    "velocity": 0.6929133858267716,
                    "duration": 0.2999999999999545
                },
                {
                    "name": "A#5",
                    "midi": 82,
                    "time": 683.3999999999872,
                    "velocity": 0.6929133858267716,
                    "duration": 0.2999999999999545
                },
                {
                    "name": "B4",
                    "midi": 71,
                    "time": 683.6999999999872,
                    "velocity": 0.6929133858267716,
                    "duration": 0.2999999999999545
                },
                {
                    "name": "C5",
                    "midi": 72,
                    "time": 683.9999999999872,
                    "velocity": 0.6929133858267716,
                    "duration": 0.2999999999999545
                },
                {
                    "name": "E5",
                    "midi": 76,
                    "time": 683.9999999999872,
                    "velocity": 0.6929133858267716,
                    "duration": 0.2999999999999545
                },
                {
                    "name": "G#5",
                    "midi": 80,
                    "time": 683.9999999999872,
                    "velocity": 0.6929133858267716,
                    "duration": 0.2999999999999545
                },
                {
                    "name": "A4",
                    "midi": 69,
                    "time": 684.2999999999871,
                    "velocity": 0.6929133858267716,
                    "duration": 0.2999999999999545
                },
                {
                    "name": "A#4",
                    "midi": 70,
                    "time": 684.5999999999871,
                    "velocity": 0.5905511811023622,
                    "duration": 0.2999999999999545
                },
                {
                    "name": "C#5",
                    "midi": 73,
                    "time": 684.5999999999871,
                    "velocity": 0.5905511811023622,
                    "duration": 0.2999999999999545
                },
                {
                    "name": "E5",
                    "midi": 76,
                    "time": 684.5999999999871,
                    "velocity": 0.5905511811023622,
                    "duration": 0.2999999999999545
                },
                {
                    "name": "F#5",
                    "midi": 78,
                    "time": 684.5999999999871,
                    "velocity": 0.5905511811023622,
                    "duration": 0.2999999999999545
                },
                {
                    "name": "G4",
                    "midi": 67,
                    "time": 684.899999999987,
                    "velocity": 0.5905511811023622,
                    "duration": 0.2999999999999545
                },
                {
                    "name": "A#4",
                    "midi": 70,
                    "time": 685.199999999987,
                    "velocity": 0.5905511811023622,
                    "duration": 0.2999999999999545
                },
                {
                    "name": "C#5",
                    "midi": 73,
                    "time": 685.199999999987,
                    "velocity": 0.5905511811023622,
                    "duration": 0.2999999999999545
                },
                {
                    "name": "E5",
                    "midi": 76,
                    "time": 685.199999999987,
                    "velocity": 0.5905511811023622,
                    "duration": 0.2999999999999545
                },
                {
                    "name": "F#5",
                    "midi": 78,
                    "time": 685.199999999987,
                    "velocity": 0.5905511811023622,
                    "duration": 0.2999999999999545
                },
                {
                    "name": "G4",
                    "midi": 67,
                    "time": 685.4999999999869,
                    "velocity": 0.5905511811023622,
                    "duration": 0.2999999999999545
                },
                {
                    "name": "A#4",
                    "midi": 70,
                    "time": 685.7999999999869,
                    "velocity": 0.5905511811023622,
                    "duration": 0.2999999999999545
                },
                {
                    "name": "C#5",
                    "midi": 73,
                    "time": 685.7999999999869,
                    "velocity": 0.5905511811023622,
                    "duration": 0.2999999999999545
                },
                {
                    "name": "E5",
                    "midi": 76,
                    "time": 685.7999999999869,
                    "velocity": 0.5905511811023622,
                    "duration": 0.2999999999999545
                },
                {
                    "name": "F#5",
                    "midi": 78,
                    "time": 685.7999999999869,
                    "velocity": 0.5905511811023622,
                    "duration": 0.2999999999999545
                },
                {
                    "name": "G4",
                    "midi": 67,
                    "time": 686.0999999999868,
                    "velocity": 0.5905511811023622,
                    "duration": 0.2999999999999545
                },
                {
                    "name": "A#4",
                    "midi": 70,
                    "time": 686.3999999999868,
                    "velocity": 0.5905511811023622,
                    "duration": 0.2999999999999545
                },
                {
                    "name": "C#5",
                    "midi": 73,
                    "time": 686.3999999999868,
                    "velocity": 0.5905511811023622,
                    "duration": 0.2999999999999545
                },
                {
                    "name": "E5",
                    "midi": 76,
                    "time": 686.3999999999868,
                    "velocity": 0.5905511811023622,
                    "duration": 0.2999999999999545
                },
                {
                    "name": "F#5",
                    "midi": 78,
                    "time": 686.3999999999868,
                    "velocity": 0.5905511811023622,
                    "duration": 0.2999999999999545
                },
                {
                    "name": "G4",
                    "midi": 67,
                    "time": 686.6999999999867,
                    "velocity": 0.5905511811023622,
                    "duration": 0.2999999999999545
                },
                {
                    "name": "A#4",
                    "midi": 70,
                    "time": 686.9999999999867,
                    "velocity": 0.5905511811023622,
                    "duration": 0.2999999999999545
                },
                {
                    "name": "C#5",
                    "midi": 73,
                    "time": 686.9999999999867,
                    "velocity": 0.5905511811023622,
                    "duration": 0.2999999999999545
                },
                {
                    "name": "E5",
                    "midi": 76,
                    "time": 686.9999999999867,
                    "velocity": 0.5905511811023622,
                    "duration": 0.2999999999999545
                },
                {
                    "name": "F#5",
                    "midi": 78,
                    "time": 686.9999999999867,
                    "velocity": 0.5905511811023622,
                    "duration": 0.2999999999999545
                },
                {
                    "name": "G4",
                    "midi": 67,
                    "time": 687.2999999999867,
                    "velocity": 0.5905511811023622,
                    "duration": 0.2999999999999545
                },
                {
                    "name": "A#4",
                    "midi": 70,
                    "time": 687.5999999999866,
                    "velocity": 0.5905511811023622,
                    "duration": 0.2999999999999545
                },
                {
                    "name": "C#5",
                    "midi": 73,
                    "time": 687.5999999999866,
                    "velocity": 0.5905511811023622,
                    "duration": 0.2999999999999545
                },
                {
                    "name": "E5",
                    "midi": 76,
                    "time": 687.5999999999866,
                    "velocity": 0.5905511811023622,
                    "duration": 0.2999999999999545
                },
                {
                    "name": "F#5",
                    "midi": 78,
                    "time": 687.5999999999866,
                    "velocity": 0.5905511811023622,
                    "duration": 0.2999999999999545
                },
                {
                    "name": "G4",
                    "midi": 67,
                    "time": 687.8999999999866,
                    "velocity": 0.5905511811023622,
                    "duration": 0.2999999999999545
                },
                {
                    "name": "A#4",
                    "midi": 70,
                    "time": 688.1999999999865,
                    "velocity": 0.5905511811023622,
                    "duration": 0.6000000000000227
                },
                {
                    "name": "C#5",
                    "midi": 73,
                    "time": 688.1999999999865,
                    "velocity": 0.5905511811023622,
                    "duration": 0.6000000000000227
                },
                {
                    "name": "E5",
                    "midi": 76,
                    "time": 688.1999999999865,
                    "velocity": 0.5905511811023622,
                    "duration": 0.6000000000000227
                },
                {
                    "name": "F#5",
                    "midi": 78,
                    "time": 688.1999999999865,
                    "velocity": 0.5905511811023622,
                    "duration": 0.6000000000000227
                },
                {
                    "name": "A4",
                    "midi": 69,
                    "time": 688.7999999999865,
                    "velocity": 0.5905511811023622,
                    "duration": 0.6000000000000227
                },
                {
                    "name": "C5",
                    "midi": 72,
                    "time": 688.7999999999865,
                    "velocity": 0.5905511811023622,
                    "duration": 0.6000000000000227
                },
                {
                    "name": "D#5",
                    "midi": 75,
                    "time": 688.7999999999865,
                    "velocity": 0.5905511811023622,
                    "duration": 0.6000000000000227
                },
                {
                    "name": "F5",
                    "midi": 77,
                    "time": 688.7999999999865,
                    "velocity": 0.5905511811023622,
                    "duration": 0.6000000000000227
                },
                {
                    "name": "G#4",
                    "midi": 68,
                    "time": 689.3999999999866,
                    "velocity": 0.5905511811023622,
                    "duration": 0.6000000000000227
                },
                {
                    "name": "B4",
                    "midi": 71,
                    "time": 689.3999999999866,
                    "velocity": 0.5905511811023622,
                    "duration": 0.6000000000000227
                },
                {
                    "name": "D5",
                    "midi": 74,
                    "time": 689.3999999999866,
                    "velocity": 0.5905511811023622,
                    "duration": 0.6000000000000227
                },
                {
                    "name": "E5",
                    "midi": 76,
                    "time": 689.3999999999866,
                    "velocity": 0.5905511811023622,
                    "duration": 0.6000000000000227
                },
                {
                    "name": "G4",
                    "midi": 67,
                    "time": 689.9999999999866,
                    "velocity": 0.7952755905511811,
                    "duration": 0.6000000000000227
                },
                {
                    "name": "A#4",
                    "midi": 70,
                    "time": 689.9999999999866,
                    "velocity": 0.7952755905511811,
                    "duration": 0.6000000000000227
                },
                {
                    "name": "C#5",
                    "midi": 73,
                    "time": 689.9999999999866,
                    "velocity": 0.7952755905511811,
                    "duration": 0.6000000000000227
                },
                {
                    "name": "D#5",
                    "midi": 75,
                    "time": 689.9999999999866,
                    "velocity": 0.7952755905511811,
                    "duration": 0.6000000000000227
                },
                {
                    "name": "G4",
                    "midi": 67,
                    "time": 690.5999999999866,
                    "velocity": 0.5905511811023622,
                    "duration": 0.6000000000000227
                },
                {
                    "name": "A#4",
                    "midi": 70,
                    "time": 690.5999999999866,
                    "velocity": 0.5905511811023622,
                    "duration": 0.6000000000000227
                },
                {
                    "name": "C#5",
                    "midi": 73,
                    "time": 690.5999999999866,
                    "velocity": 0.5905511811023622,
                    "duration": 0.6000000000000227
                },
                {
                    "name": "D#5",
                    "midi": 75,
                    "time": 690.5999999999866,
                    "velocity": 0.5905511811023622,
                    "duration": 0.6000000000000227
                },
                {
                    "name": "G4",
                    "midi": 67,
                    "time": 691.1999999999866,
                    "velocity": 0.5905511811023622,
                    "duration": 0.6000000000000227
                },
                {
                    "name": "A#4",
                    "midi": 70,
                    "time": 691.1999999999866,
                    "velocity": 0.5905511811023622,
                    "duration": 0.6000000000000227
                },
                {
                    "name": "C#5",
                    "midi": 73,
                    "time": 691.1999999999866,
                    "velocity": 0.5905511811023622,
                    "duration": 0.6000000000000227
                },
                {
                    "name": "D#5",
                    "midi": 75,
                    "time": 691.1999999999866,
                    "velocity": 0.5905511811023622,
                    "duration": 0.6000000000000227
                },
                {
                    "name": "G4",
                    "midi": 67,
                    "time": 691.7999999999867,
                    "velocity": 0.5905511811023622,
                    "duration": 0.6000000000000227
                },
                {
                    "name": "A#4",
                    "midi": 70,
                    "time": 691.7999999999867,
                    "velocity": 0.5905511811023622,
                    "duration": 0.6000000000000227
                },
                {
                    "name": "C#5",
                    "midi": 73,
                    "time": 691.7999999999867,
                    "velocity": 0.5905511811023622,
                    "duration": 0.6000000000000227
                },
                {
                    "name": "D#5",
                    "midi": 75,
                    "time": 691.7999999999867,
                    "velocity": 0.5905511811023622,
                    "duration": 0.6000000000000227
                },
                {
                    "name": "G4",
                    "midi": 67,
                    "time": 692.3999999999867,
                    "velocity": 0.7952755905511811,
                    "duration": 0.6000000000000227
                },
                {
                    "name": "A#4",
                    "midi": 70,
                    "time": 692.3999999999867,
                    "velocity": 0.7952755905511811,
                    "duration": 0.6000000000000227
                },
                {
                    "name": "C#5",
                    "midi": 73,
                    "time": 692.3999999999867,
                    "velocity": 0.7952755905511811,
                    "duration": 0.6000000000000227
                },
                {
                    "name": "D#5",
                    "midi": 75,
                    "time": 692.3999999999867,
                    "velocity": 0.7952755905511811,
                    "duration": 0.6000000000000227
                },
                {
                    "name": "G4",
                    "midi": 67,
                    "time": 692.9999999999867,
                    "velocity": 0.5905511811023622,
                    "duration": 0.6000000000000227
                },
                {
                    "name": "A#4",
                    "midi": 70,
                    "time": 692.9999999999867,
                    "velocity": 0.5905511811023622,
                    "duration": 0.6000000000000227
                },
                {
                    "name": "C#5",
                    "midi": 73,
                    "time": 692.9999999999867,
                    "velocity": 0.5905511811023622,
                    "duration": 0.6000000000000227
                },
                {
                    "name": "D#5",
                    "midi": 75,
                    "time": 692.9999999999867,
                    "velocity": 0.5905511811023622,
                    "duration": 0.6000000000000227
                },
                {
                    "name": "G4",
                    "midi": 67,
                    "time": 693.5999999999867,
                    "velocity": 0.5905511811023622,
                    "duration": 0.6000000000000227
                },
                {
                    "name": "A#4",
                    "midi": 70,
                    "time": 693.5999999999867,
                    "velocity": 0.5905511811023622,
                    "duration": 0.6000000000000227
                },
                {
                    "name": "C#5",
                    "midi": 73,
                    "time": 693.5999999999867,
                    "velocity": 0.5905511811023622,
                    "duration": 0.6000000000000227
                },
                {
                    "name": "D#5",
                    "midi": 75,
                    "time": 693.5999999999867,
                    "velocity": 0.5905511811023622,
                    "duration": 0.6000000000000227
                },
                {
                    "name": "G4",
                    "midi": 67,
                    "time": 694.1999999999867,
                    "velocity": 0.5905511811023622,
                    "duration": 0.6000000000000227
                },
                {
                    "name": "A#4",
                    "midi": 70,
                    "time": 694.1999999999867,
                    "velocity": 0.5905511811023622,
                    "duration": 0.6000000000000227
                },
                {
                    "name": "C#5",
                    "midi": 73,
                    "time": 694.1999999999867,
                    "velocity": 0.5905511811023622,
                    "duration": 0.6000000000000227
                },
                {
                    "name": "D#5",
                    "midi": 75,
                    "time": 694.1999999999867,
                    "velocity": 0.5905511811023622,
                    "duration": 0.6000000000000227
                },
                {
                    "name": "G4",
                    "midi": 67,
                    "time": 694.7999999999868,
                    "velocity": 0.7952755905511811,
                    "duration": 0.6000000000000227
                },
                {
                    "name": "A#4",
                    "midi": 70,
                    "time": 694.7999999999868,
                    "velocity": 0.7952755905511811,
                    "duration": 0.6000000000000227
                },
                {
                    "name": "C#5",
                    "midi": 73,
                    "time": 694.7999999999868,
                    "velocity": 0.7952755905511811,
                    "duration": 0.6000000000000227
                },
                {
                    "name": "D#5",
                    "midi": 75,
                    "time": 694.7999999999868,
                    "velocity": 0.7952755905511811,
                    "duration": 0.6000000000000227
                },
                {
                    "name": "G4",
                    "midi": 67,
                    "time": 695.3999999999868,
                    "velocity": 0.5905511811023622,
                    "duration": 0.6000000000000227
                },
                {
                    "name": "A#4",
                    "midi": 70,
                    "time": 695.3999999999868,
                    "velocity": 0.5905511811023622,
                    "duration": 0.6000000000000227
                },
                {
                    "name": "C#5",
                    "midi": 73,
                    "time": 695.3999999999868,
                    "velocity": 0.5905511811023622,
                    "duration": 0.6000000000000227
                },
                {
                    "name": "D#5",
                    "midi": 75,
                    "time": 695.3999999999868,
                    "velocity": 0.5905511811023622,
                    "duration": 0.6000000000000227
                },
                {
                    "name": "G4",
                    "midi": 67,
                    "time": 695.9999999999868,
                    "velocity": 0.5905511811023622,
                    "duration": 0.6000000000000227
                },
                {
                    "name": "A#4",
                    "midi": 70,
                    "time": 695.9999999999868,
                    "velocity": 0.5905511811023622,
                    "duration": 0.6000000000000227
                },
                {
                    "name": "C#5",
                    "midi": 73,
                    "time": 695.9999999999868,
                    "velocity": 0.5905511811023622,
                    "duration": 0.6000000000000227
                },
                {
                    "name": "D#5",
                    "midi": 75,
                    "time": 695.9999999999868,
                    "velocity": 0.5905511811023622,
                    "duration": 0.6000000000000227
                },
                {
                    "name": "G4",
                    "midi": 67,
                    "time": 696.5999999999868,
                    "velocity": 0.5905511811023622,
                    "duration": 0.6000000000000227
                },
                {
                    "name": "A#4",
                    "midi": 70,
                    "time": 696.5999999999868,
                    "velocity": 0.5905511811023622,
                    "duration": 0.6000000000000227
                },
                {
                    "name": "C#5",
                    "midi": 73,
                    "time": 696.5999999999868,
                    "velocity": 0.5905511811023622,
                    "duration": 0.6000000000000227
                },
                {
                    "name": "D#5",
                    "midi": 75,
                    "time": 696.5999999999868,
                    "velocity": 0.5905511811023622,
                    "duration": 0.6000000000000227
                },
                {
                    "name": "G4",
                    "midi": 67,
                    "time": 697.1999999999869,
                    "velocity": 0.7952755905511811,
                    "duration": 0.6000000000000227
                },
                {
                    "name": "A#4",
                    "midi": 70,
                    "time": 697.1999999999869,
                    "velocity": 0.7952755905511811,
                    "duration": 0.6000000000000227
                },
                {
                    "name": "C#5",
                    "midi": 73,
                    "time": 697.1999999999869,
                    "velocity": 0.7952755905511811,
                    "duration": 0.6000000000000227
                },
                {
                    "name": "D#5",
                    "midi": 75,
                    "time": 697.1999999999869,
                    "velocity": 0.7952755905511811,
                    "duration": 0.6000000000000227
                },
                {
                    "name": "A#5",
                    "midi": 82,
                    "time": 697.7999999999869,
                    "velocity": 1,
                    "duration": 0.11749999999994998
                },
                {
                    "name": "D#6",
                    "midi": 87,
                    "time": 698.3999999999868,
                    "velocity": 1,
                    "duration": 0.11749999999994998
                },
                {
                    "name": "A#5",
                    "midi": 82,
                    "time": 698.9999999999867,
                    "velocity": 1,
                    "duration": 0.11749999999994998
                },
                {
                    "name": "D#6",
                    "midi": 87,
                    "time": 699.5999999999866,
                    "velocity": 1,
                    "duration": 0.11749999999994998
                },
                {
                    "name": "F6",
                    "midi": 89,
                    "time": 700.1999999999865,
                    "velocity": 1,
                    "duration": 0.11749999999994998
                },
                {
                    "name": "G#6",
                    "midi": 92,
                    "time": 700.7999999999864,
                    "velocity": 1,
                    "duration": 0.11749999999994998
                },
                {
                    "name": "G6",
                    "midi": 91,
                    "time": 701.3999999999863,
                    "velocity": 1,
                    "duration": 0.11749999999994998
                },
                {
                    "name": "F6",
                    "midi": 89,
                    "time": 701.9999999999862,
                    "velocity": 1,
                    "duration": 0.11749999999994998
                },
                {
                    "name": "D#6",
                    "midi": 87,
                    "time": 702.5999999999862,
                    "velocity": 1,
                    "duration": 0.11749999999994998
                },
                {
                    "name": "A#5",
                    "midi": 82,
                    "time": 703.1999999999861,
                    "velocity": 1,
                    "duration": 0.11749999999994998
                },
                {
                    "name": "A4",
                    "midi": 69,
                    "time": 704.399999999986,
                    "velocity": 1,
                    "duration": 1.2000000000000455
                },
                {
                    "name": "D4",
                    "midi": 62,
                    "time": 705.599999999986,
                    "velocity": 0.7952755905511811,
                    "duration": 1.2000000000000455
                },
                {
                    "name": "A4",
                    "midi": 69,
                    "time": 706.7999999999861,
                    "velocity": 0.7952755905511811,
                    "duration": 0.6000000000000227
                },
                {
                    "name": "D4",
                    "midi": 62,
                    "time": 707.3999999999861,
                    "velocity": 0.7952755905511811,
                    "duration": 0.6000000000000227
                },
                {
                    "name": "D#6",
                    "midi": 87,
                    "time": 707.9999999999861,
                    "velocity": 1,
                    "duration": 0.11749999999994998
                },
                {
                    "name": "G#6",
                    "midi": 92,
                    "time": 708.599999999986,
                    "velocity": 1,
                    "duration": 0.11749999999994998
                },
                {
                    "name": "G6",
                    "midi": 91,
                    "time": 709.199999999986,
                    "velocity": 1,
                    "duration": 0.11749999999994998
                },
                {
                    "name": "F6",
                    "midi": 89,
                    "time": 709.7999999999859,
                    "velocity": 1,
                    "duration": 0.11749999999994998
                },
                {
                    "name": "D#6",
                    "midi": 87,
                    "time": 710.3999999999858,
                    "velocity": 1,
                    "duration": 0.11749999999994998
                },
                {
                    "name": "A#5",
                    "midi": 82,
                    "time": 710.9999999999857,
                    "velocity": 1,
                    "duration": 0.11749999999994998
                },
                {
                    "name": "C6",
                    "midi": 84,
                    "time": 711.5999999999856,
                    "velocity": 1,
                    "duration": 0.11749999999994998
                },
                {
                    "name": "D#6",
                    "midi": 87,
                    "time": 712.1999999999855,
                    "velocity": 1,
                    "duration": 0.11749999999994998
                },
                {
                    "name": "C#6",
                    "midi": 85,
                    "time": 712.7999999999854,
                    "velocity": 1,
                    "duration": 0.11749999999994998
                },
                {
                    "name": "A#5",
                    "midi": 82,
                    "time": 713.3999999999853,
                    "velocity": 1,
                    "duration": 0.11749999999994998
                },
                {
                    "name": "A#5",
                    "midi": 82,
                    "time": 713.9999999999852,
                    "velocity": 1,
                    "duration": 0.11749999999994998
                },
                {
                    "name": "A#5",
                    "midi": 82,
                    "time": 714.5999999999851,
                    "velocity": 1,
                    "duration": 0.11749999999994998
                },
                {
                    "name": "A4",
                    "midi": 69,
                    "time": 715.199999999985,
                    "velocity": 1,
                    "duration": 1.2000000000000455
                },
                {
                    "name": "D4",
                    "midi": 62,
                    "time": 716.3999999999851,
                    "velocity": 0.7952755905511811,
                    "duration": 1.2000000000000455
                },
                {
                    "name": "A4",
                    "midi": 69,
                    "time": 717.5999999999851,
                    "velocity": 0.7952755905511811,
                    "duration": 0.6000000000000227
                },
                {
                    "name": "D4",
                    "midi": 62,
                    "time": 718.1999999999852,
                    "velocity": 0.7952755905511811,
                    "duration": 0.6000000000000227
                },
                {
                    "name": "A4",
                    "midi": 69,
                    "time": 718.7999999999852,
                    "velocity": 1,
                    "duration": 1.7999999999999545
                },
                {
                    "name": "A4",
                    "midi": 69,
                    "time": 720.5999999999851,
                    "velocity": 0.8976377952755905,
                    "duration": 0.6000000000000227
                },
                {
                    "name": "C5",
                    "midi": 72,
                    "time": 720.5999999999851,
                    "velocity": 0.8976377952755905,
                    "duration": 0.6000000000000227
                },
                {
                    "name": "D5",
                    "midi": 74,
                    "time": 720.5999999999851,
                    "velocity": 0.8976377952755905,
                    "duration": 0.6000000000000227
                },
                {
                    "name": "G#4",
                    "midi": 68,
                    "time": 721.1999999999852,
                    "velocity": 0.8976377952755905,
                    "duration": 0.6000000000000227
                },
                {
                    "name": "B4",
                    "midi": 71,
                    "time": 721.1999999999852,
                    "velocity": 0.8976377952755905,
                    "duration": 0.6000000000000227
                },
                {
                    "name": "C#5",
                    "midi": 73,
                    "time": 721.1999999999852,
                    "velocity": 0.8976377952755905,
                    "duration": 0.6000000000000227
                },
                {
                    "name": "G4",
                    "midi": 67,
                    "time": 721.7999999999852,
                    "velocity": 0.8976377952755905,
                    "duration": 0.6000000000000227
                },
                {
                    "name": "A#4",
                    "midi": 70,
                    "time": 721.7999999999852,
                    "velocity": 0.8976377952755905,
                    "duration": 0.6000000000000227
                },
                {
                    "name": "C5",
                    "midi": 72,
                    "time": 721.7999999999852,
                    "velocity": 0.8976377952755905,
                    "duration": 0.6000000000000227
                },
                {
                    "name": "B5",
                    "midi": 83,
                    "time": 722.3999999999852,
                    "velocity": 0.5905511811023622,
                    "duration": 0.3574999999999591
                },
                {
                    "name": "A5",
                    "midi": 81,
                    "time": 722.7574999999852,
                    "velocity": 0.5905511811023622,
                    "duration": 0.36000000000001364
                },
                {
                    "name": "F#5",
                    "midi": 78,
                    "time": 723.1174999999852,
                    "velocity": 0.5905511811023622,
                    "duration": 0.3624999999999545
                },
                {
                    "name": "D#5",
                    "midi": 75,
                    "time": 723.4799999999851,
                    "velocity": 0.5905511811023622,
                    "duration": 0.36000000000001364
                },
                {
                    "name": "C5",
                    "midi": 72,
                    "time": 723.8399999999851,
                    "velocity": 0.5905511811023622,
                    "duration": 0.36000000000001364
                },
                {
                    "name": "B4",
                    "midi": 71,
                    "time": 724.1999999999852,
                    "velocity": 0.5905511811023622,
                    "duration": 0.3574999999999591
                },
                {
                    "name": "A4",
                    "midi": 69,
                    "time": 724.5574999999851,
                    "velocity": 0.5905511811023622,
                    "duration": 0.36000000000001364
                },
                {
                    "name": "F#4",
                    "midi": 66,
                    "time": 724.9174999999851,
                    "velocity": 0.5905511811023622,
                    "duration": 0.3624999999999545
                },
                {
                    "name": "D#4",
                    "midi": 63,
                    "time": 725.2799999999851,
                    "velocity": 0.5905511811023622,
                    "duration": 0.36000000000001364
                },
                {
                    "name": "C4",
                    "midi": 60,
                    "time": 725.6399999999851,
                    "velocity": 0.5905511811023622,
                    "duration": 0.36000000000001364
                },
                {
                    "name": "B5",
                    "midi": 83,
                    "time": 725.9999999999851,
                    "velocity": 0.5905511811023622,
                    "duration": 0.3574999999999591
                },
                {
                    "name": "A5",
                    "midi": 81,
                    "time": 726.3574999999851,
                    "velocity": 0.5905511811023622,
                    "duration": 0.36000000000001364
                },
                {
                    "name": "F#5",
                    "midi": 78,
                    "time": 726.7174999999851,
                    "velocity": 0.5905511811023622,
                    "duration": 0.3624999999999545
                },
                {
                    "name": "D#5",
                    "midi": 75,
                    "time": 727.079999999985,
                    "velocity": 0.5905511811023622,
                    "duration": 0.36000000000001364
                },
                {
                    "name": "C5",
                    "midi": 72,
                    "time": 727.439999999985,
                    "velocity": 0.5905511811023622,
                    "duration": 0.36000000000001364
                },
                {
                    "name": "B4",
                    "midi": 71,
                    "time": 727.7999999999851,
                    "velocity": 0.5905511811023622,
                    "duration": 0.3574999999999591
                },
                {
                    "name": "A4",
                    "midi": 69,
                    "time": 728.157499999985,
                    "velocity": 0.5905511811023622,
                    "duration": 0.36000000000001364
                },
                {
                    "name": "F#4",
                    "midi": 66,
                    "time": 728.517499999985,
                    "velocity": 0.5905511811023622,
                    "duration": 0.3624999999999545
                },
                {
                    "name": "D#4",
                    "midi": 63,
                    "time": 728.879999999985,
                    "velocity": 0.5905511811023622,
                    "duration": 0.36000000000001364
                },
                {
                    "name": "C4",
                    "midi": 60,
                    "time": 729.239999999985,
                    "velocity": 0.5905511811023622,
                    "duration": 0.36000000000001364
                },
                {
                    "name": "G#3",
                    "midi": 56,
                    "time": 729.599999999985,
                    "velocity": 0.5905511811023622,
                    "duration": 0.2999999999999545
                },
                {
                    "name": "A#3",
                    "midi": 58,
                    "time": 729.899999999985,
                    "velocity": 0.5905511811023622,
                    "duration": 0.2999999999999545
                },
                {
                    "name": "C4",
                    "midi": 60,
                    "time": 730.1999999999849,
                    "velocity": 0.5905511811023622,
                    "duration": 0.2999999999999545
                },
                {
                    "name": "C#4",
                    "midi": 61,
                    "time": 730.4999999999849,
                    "velocity": 0.5905511811023622,
                    "duration": 0.2999999999999545
                },
                {
                    "name": "D#4",
                    "midi": 63,
                    "time": 730.7999999999848,
                    "velocity": 0.5905511811023622,
                    "duration": 0.2999999999999545
                },
                {
                    "name": "E4",
                    "midi": 64,
                    "time": 731.0999999999848,
                    "velocity": 0.5905511811023622,
                    "duration": 0.2999999999999545
                },
                {
                    "name": "D#4",
                    "midi": 63,
                    "time": 731.3999999999847,
                    "velocity": 0.5905511811023622,
                    "duration": 0.2999999999999545
                },
                {
                    "name": "F4",
                    "midi": 65,
                    "time": 731.6999999999847,
                    "velocity": 0.5905511811023622,
                    "duration": 0.2999999999999545
                },
                {
                    "name": "F#4",
                    "midi": 66,
                    "time": 731.9999999999847,
                    "velocity": 0.5905511811023622,
                    "duration": 0.2999999999999545
                },
                {
                    "name": "G#4",
                    "midi": 68,
                    "time": 732.2999999999846,
                    "velocity": 0.5905511811023622,
                    "duration": 0.2999999999999545
                },
                {
                    "name": "A#4",
                    "midi": 70,
                    "time": 732.5999999999846,
                    "velocity": 0.5905511811023622,
                    "duration": 0.2999999999999545
                },
                {
                    "name": "B4",
                    "midi": 71,
                    "time": 732.8999999999845,
                    "velocity": 0.5905511811023622,
                    "duration": 0.2999999999999545
                },
                {
                    "name": "E4",
                    "midi": 64,
                    "time": 733.1999999999845,
                    "velocity": 0.5905511811023622,
                    "duration": 0.2999999999999545
                },
                {
                    "name": "G4",
                    "midi": 67,
                    "time": 733.1999999999845,
                    "velocity": 0.5905511811023622,
                    "duration": 0.2999999999999545
                },
                {
                    "name": "A#4",
                    "midi": 70,
                    "time": 733.1999999999845,
                    "velocity": 0.5905511811023622,
                    "duration": 0.2999999999999545
                },
                {
                    "name": "C5",
                    "midi": 72,
                    "time": 733.1999999999845,
                    "velocity": 0.5905511811023622,
                    "duration": 0.2999999999999545
                },
                {
                    "name": "C#4",
                    "midi": 61,
                    "time": 733.4999999999844,
                    "velocity": 0.5905511811023622,
                    "duration": 0.2999999999999545
                },
                {
                    "name": "G#4",
                    "midi": 68,
                    "time": 733.7999999999844,
                    "velocity": 0.5905511811023622,
                    "duration": 0.2999999999999545
                },
                {
                    "name": "B4",
                    "midi": 71,
                    "time": 733.7999999999844,
                    "velocity": 0.5905511811023622,
                    "duration": 0.2999999999999545
                },
                {
                    "name": "C#5",
                    "midi": 73,
                    "time": 733.7999999999844,
                    "velocity": 0.5905511811023622,
                    "duration": 0.2999999999999545
                },
                {
                    "name": "F4",
                    "midi": 65,
                    "time": 734.0999999999843,
                    "velocity": 0.5905511811023622,
                    "duration": 0.2999999999999545
                },
                {
                    "name": "A4",
                    "midi": 69,
                    "time": 734.3999999999843,
                    "velocity": 0.5905511811023622,
                    "duration": 0.2999999999999545
                },
                {
                    "name": "C5",
                    "midi": 72,
                    "time": 734.3999999999843,
                    "velocity": 0.5905511811023622,
                    "duration": 0.2999999999999545
                },
                {
                    "name": "D5",
                    "midi": 74,
                    "time": 734.3999999999843,
                    "velocity": 0.5905511811023622,
                    "duration": 0.2999999999999545
                },
                {
                    "name": "F#4",
                    "midi": 66,
                    "time": 734.6999999999842,
                    "velocity": 0.5905511811023622,
                    "duration": 0.2999999999999545
                },
                {
                    "name": "C4",
                    "midi": 60,
                    "time": 734.9999999999842,
                    "velocity": 0.5905511811023622,
                    "duration": 0.6000000000000227
                },
                {
                    "name": "E4",
                    "midi": 64,
                    "time": 734.9999999999842,
                    "velocity": 0.5905511811023622,
                    "duration": 0.6000000000000227
                },
                {
                    "name": "G4",
                    "midi": 67,
                    "time": 734.9999999999842,
                    "velocity": 0.5905511811023622,
                    "duration": 0.6000000000000227
                },
                {
                    "name": "A#3",
                    "midi": 58,
                    "time": 735.5999999999842,
                    "velocity": 0.5905511811023622,
                    "duration": 0.6000000000000227
                },
                {
                    "name": "D4",
                    "midi": 62,
                    "time": 735.5999999999842,
                    "velocity": 0.5905511811023622,
                    "duration": 0.6000000000000227
                },
                {
                    "name": "F4",
                    "midi": 65,
                    "time": 735.5999999999842,
                    "velocity": 0.5905511811023622,
                    "duration": 0.6000000000000227
                },
                {
                    "name": "D4",
                    "midi": 62,
                    "time": 736.1999999999842,
                    "velocity": 0.5905511811023622,
                    "duration": 0.6000000000000227
                },
                {
                    "name": "F#4",
                    "midi": 66,
                    "time": 736.1999999999842,
                    "velocity": 0.5905511811023622,
                    "duration": 0.6000000000000227
                },
                {
                    "name": "A4",
                    "midi": 69,
                    "time": 736.1999999999842,
                    "velocity": 0.5905511811023622,
                    "duration": 0.6000000000000227
                },
                {
                    "name": "C4",
                    "midi": 60,
                    "time": 736.7999999999843,
                    "velocity": 0.5905511811023622,
                    "duration": 0.6000000000000227
                },
                {
                    "name": "E4",
                    "midi": 64,
                    "time": 736.7999999999843,
                    "velocity": 0.5905511811023622,
                    "duration": 0.6000000000000227
                },
                {
                    "name": "G4",
                    "midi": 67,
                    "time": 736.7999999999843,
                    "velocity": 0.5905511811023622,
                    "duration": 0.6000000000000227
                },
                {
                    "name": "C4",
                    "midi": 60,
                    "time": 737.3999999999843,
                    "velocity": 0.5905511811023622,
                    "duration": 0.6000000000000227
                },
                {
                    "name": "E4",
                    "midi": 64,
                    "time": 737.3999999999843,
                    "velocity": 0.5905511811023622,
                    "duration": 0.6000000000000227
                },
                {
                    "name": "G4",
                    "midi": 67,
                    "time": 737.3999999999843,
                    "velocity": 0.5905511811023622,
                    "duration": 0.6000000000000227
                },
                {
                    "name": "C4",
                    "midi": 60,
                    "time": 737.9999999999843,
                    "velocity": 0.5905511811023622,
                    "duration": 0.6000000000000227
                },
                {
                    "name": "E4",
                    "midi": 64,
                    "time": 737.9999999999843,
                    "velocity": 0.5905511811023622,
                    "duration": 0.6000000000000227
                },
                {
                    "name": "G4",
                    "midi": 67,
                    "time": 737.9999999999843,
                    "velocity": 0.5905511811023622,
                    "duration": 0.6000000000000227
                },
                {
                    "name": "C4",
                    "midi": 60,
                    "time": 738.5999999999843,
                    "velocity": 0.5905511811023622,
                    "duration": 0.6000000000000227
                },
                {
                    "name": "E4",
                    "midi": 64,
                    "time": 738.5999999999843,
                    "velocity": 0.5905511811023622,
                    "duration": 0.6000000000000227
                },
                {
                    "name": "G4",
                    "midi": 67,
                    "time": 738.5999999999843,
                    "velocity": 0.5905511811023622,
                    "duration": 0.6000000000000227
                },
                {
                    "name": "C4",
                    "midi": 60,
                    "time": 739.1999999999844,
                    "velocity": 0.5905511811023622,
                    "duration": 0.6000000000000227
                },
                {
                    "name": "E4",
                    "midi": 64,
                    "time": 739.1999999999844,
                    "velocity": 0.5905511811023622,
                    "duration": 0.6000000000000227
                },
                {
                    "name": "G4",
                    "midi": 67,
                    "time": 739.1999999999844,
                    "velocity": 0.5905511811023622,
                    "duration": 0.6000000000000227
                },
                {
                    "name": "C4",
                    "midi": 60,
                    "time": 739.7999999999844,
                    "velocity": 0.5905511811023622,
                    "duration": 0.6000000000000227
                },
                {
                    "name": "E4",
                    "midi": 64,
                    "time": 739.7999999999844,
                    "velocity": 0.5905511811023622,
                    "duration": 0.6000000000000227
                },
                {
                    "name": "G4",
                    "midi": 67,
                    "time": 739.7999999999844,
                    "velocity": 0.5905511811023622,
                    "duration": 0.6000000000000227
                },
                {
                    "name": "C4",
                    "midi": 60,
                    "time": 740.3999999999844,
                    "velocity": 0.5905511811023622,
                    "duration": 0.6000000000000227
                },
                {
                    "name": "E4",
                    "midi": 64,
                    "time": 740.3999999999844,
                    "velocity": 0.5905511811023622,
                    "duration": 0.6000000000000227
                },
                {
                    "name": "G4",
                    "midi": 67,
                    "time": 740.3999999999844,
                    "velocity": 0.5905511811023622,
                    "duration": 0.6000000000000227
                },
                {
                    "name": "A#3",
                    "midi": 58,
                    "time": 740.9999999999844,
                    "velocity": 0.5905511811023622,
                    "duration": 0.6000000000000227
                },
                {
                    "name": "D4",
                    "midi": 62,
                    "time": 740.9999999999844,
                    "velocity": 0.5905511811023622,
                    "duration": 0.6000000000000227
                },
                {
                    "name": "F4",
                    "midi": 65,
                    "time": 740.9999999999844,
                    "velocity": 0.5905511811023622,
                    "duration": 0.6000000000000227
                },
                {
                    "name": "D4",
                    "midi": 62,
                    "time": 741.5999999999844,
                    "velocity": 0.5905511811023622,
                    "duration": 0.6000000000000227
                },
                {
                    "name": "F#4",
                    "midi": 66,
                    "time": 741.5999999999844,
                    "velocity": 0.5905511811023622,
                    "duration": 0.6000000000000227
                },
                {
                    "name": "A4",
                    "midi": 69,
                    "time": 741.5999999999844,
                    "velocity": 0.5905511811023622,
                    "duration": 0.6000000000000227
                },
                {
                    "name": "C4",
                    "midi": 60,
                    "time": 742.1999999999845,
                    "velocity": 0.5905511811023622,
                    "duration": 0.6000000000000227
                },
                {
                    "name": "E4",
                    "midi": 64,
                    "time": 742.1999999999845,
                    "velocity": 0.5905511811023622,
                    "duration": 0.6000000000000227
                },
                {
                    "name": "G4",
                    "midi": 67,
                    "time": 742.1999999999845,
                    "velocity": 0.5905511811023622,
                    "duration": 0.6000000000000227
                },
                {
                    "name": "D4",
                    "midi": 62,
                    "time": 742.7999999999845,
                    "velocity": 0.5905511811023622,
                    "duration": 0.6000000000000227
                },
                {
                    "name": "F#4",
                    "midi": 66,
                    "time": 742.7999999999845,
                    "velocity": 0.5905511811023622,
                    "duration": 0.6000000000000227
                },
                {
                    "name": "A4",
                    "midi": 69,
                    "time": 742.7999999999845,
                    "velocity": 0.5905511811023622,
                    "duration": 0.6000000000000227
                },
                {
                    "name": "B3",
                    "midi": 59,
                    "time": 743.3999999999845,
                    "velocity": 0.5905511811023622,
                    "duration": 0.6000000000000227
                },
                {
                    "name": "D4",
                    "midi": 62,
                    "time": 743.3999999999845,
                    "velocity": 0.5905511811023622,
                    "duration": 0.6000000000000227
                },
                {
                    "name": "F4",
                    "midi": 65,
                    "time": 743.3999999999845,
                    "velocity": 0.5905511811023622,
                    "duration": 0.6000000000000227
                },
                {
                    "name": "C4",
                    "midi": 60,
                    "time": 743.9999999999845,
                    "velocity": 0.5905511811023622,
                    "duration": 0.6000000000000227
                },
                {
                    "name": "E4",
                    "midi": 64,
                    "time": 743.9999999999845,
                    "velocity": 0.5905511811023622,
                    "duration": 0.6000000000000227
                },
                {
                    "name": "G4",
                    "midi": 67,
                    "time": 743.9999999999845,
                    "velocity": 0.5905511811023622,
                    "duration": 0.6000000000000227
                },
                {
                    "name": "C4",
                    "midi": 60,
                    "time": 744.5999999999846,
                    "velocity": 0.5905511811023622,
                    "duration": 0.6000000000000227
                },
                {
                    "name": "E4",
                    "midi": 64,
                    "time": 744.5999999999846,
                    "velocity": 0.5905511811023622,
                    "duration": 0.6000000000000227
                },
                {
                    "name": "G4",
                    "midi": 67,
                    "time": 744.5999999999846,
                    "velocity": 0.5905511811023622,
                    "duration": 0.6000000000000227
                },
                {
                    "name": "C4",
                    "midi": 60,
                    "time": 745.1999999999846,
                    "velocity": 0.5905511811023622,
                    "duration": 0.6000000000000227
                },
                {
                    "name": "E4",
                    "midi": 64,
                    "time": 745.1999999999846,
                    "velocity": 0.5905511811023622,
                    "duration": 0.6000000000000227
                },
                {
                    "name": "G4",
                    "midi": 67,
                    "time": 745.1999999999846,
                    "velocity": 0.5905511811023622,
                    "duration": 0.6000000000000227
                },
                {
                    "name": "E4",
                    "midi": 64,
                    "time": 745.7999999999846,
                    "velocity": 0.5905511811023622,
                    "duration": 0.17999999999994998
                },
                {
                    "name": "G4",
                    "midi": 67,
                    "time": 745.9799999999846,
                    "velocity": 0.5905511811023622,
                    "duration": 0.1775000000000091
                },
                {
                    "name": "A#4",
                    "midi": 70,
                    "time": 746.1574999999846,
                    "velocity": 0.5905511811023622,
                    "duration": 0.18250000000000455
                },
                {
                    "name": "C#5",
                    "midi": 73,
                    "time": 746.3399999999846,
                    "velocity": 0.5905511811023622,
                    "duration": 0.1775000000000091
                },
                {
                    "name": "D#5",
                    "midi": 75,
                    "time": 746.5174999999846,
                    "velocity": 0.5905511811023622,
                    "duration": 0.18250000000000455
                },
                {
                    "name": "E5",
                    "midi": 76,
                    "time": 746.6999999999846,
                    "velocity": 0.5905511811023622,
                    "duration": 0.17999999999994998
                },
                {
                    "name": "G5",
                    "midi": 79,
                    "time": 746.8799999999845,
                    "velocity": 0.5905511811023622,
                    "duration": 0.1775000000000091
                },
                {
                    "name": "A#5",
                    "midi": 82,
                    "time": 747.0574999999845,
                    "velocity": 0.5905511811023622,
                    "duration": 0.18250000000000455
                },
                {
                    "name": "C#6",
                    "midi": 85,
                    "time": 747.2399999999845,
                    "velocity": 0.5905511811023622,
                    "duration": 0.1775000000000091
                },
                {
                    "name": "D#6",
                    "midi": 87,
                    "time": 747.4174999999846,
                    "velocity": 0.5905511811023622,
                    "duration": 0.18250000000000455
                },
                {
                    "name": "F#6",
                    "midi": 90,
                    "time": 747.5999999999846,
                    "velocity": 0.5905511811023622,
                    "duration": 0.17999999999994998
                },
                {
                    "name": "E6",
                    "midi": 88,
                    "time": 747.7799999999845,
                    "velocity": 0.5905511811023622,
                    "duration": 0.1775000000000091
                },
                {
                    "name": "C#6",
                    "midi": 85,
                    "time": 747.9574999999845,
                    "velocity": 0.5905511811023622,
                    "duration": 0.18250000000000455
                },
                {
                    "name": "A#5",
                    "midi": 82,
                    "time": 748.1399999999845,
                    "velocity": 0.5905511811023622,
                    "duration": 0.1775000000000091
                },
                {
                    "name": "G5",
                    "midi": 79,
                    "time": 748.3174999999845,
                    "velocity": 0.5905511811023622,
                    "duration": 0.18250000000000455
                },
                {
                    "name": "F#5",
                    "midi": 78,
                    "time": 748.4999999999845,
                    "velocity": 0.5905511811023622,
                    "duration": 0.17999999999994998
                },
                {
                    "name": "E5",
                    "midi": 76,
                    "time": 748.6799999999845,
                    "velocity": 0.5905511811023622,
                    "duration": 0.1775000000000091
                },
                {
                    "name": "C#5",
                    "midi": 73,
                    "time": 748.8574999999845,
                    "velocity": 0.5905511811023622,
                    "duration": 0.18250000000000455
                },
                {
                    "name": "A#4",
                    "midi": 70,
                    "time": 749.0399999999845,
                    "velocity": 0.5905511811023622,
                    "duration": 0.1775000000000091
                },
                {
                    "name": "G4",
                    "midi": 67,
                    "time": 749.2174999999845,
                    "velocity": 0.5905511811023622,
                    "duration": 0.18250000000000455
                },
                {
                    "name": "A#4",
                    "midi": 70,
                    "time": 749.3999999999845,
                    "velocity": 0.5905511811023622,
                    "duration": 0.17999999999994998
                },
                {
                    "name": "C#5",
                    "midi": 73,
                    "time": 749.5799999999845,
                    "velocity": 0.5905511811023622,
                    "duration": 0.1775000000000091
                },
                {
                    "name": "E5",
                    "midi": 76,
                    "time": 749.7574999999845,
                    "velocity": 0.5905511811023622,
                    "duration": 0.18250000000000455
                },
                {
                    "name": "G5",
                    "midi": 79,
                    "time": 749.9399999999845,
                    "velocity": 0.5905511811023622,
                    "duration": 0.1775000000000091
                },
                {
                    "name": "B5",
                    "midi": 83,
                    "time": 750.1174999999845,
                    "velocity": 0.5905511811023622,
                    "duration": 0.18250000000000455
                },
                {
                    "name": "A#5",
                    "midi": 82,
                    "time": 750.2999999999845,
                    "velocity": 0.5905511811023622,
                    "duration": 0.17999999999994998
                },
                {
                    "name": "C#6",
                    "midi": 85,
                    "time": 750.4799999999844,
                    "velocity": 0.5905511811023622,
                    "duration": 0.1775000000000091
                },
                {
                    "name": "E6",
                    "midi": 88,
                    "time": 750.6574999999845,
                    "velocity": 0.5905511811023622,
                    "duration": 0.18250000000000455
                },
                {
                    "name": "G6",
                    "midi": 91,
                    "time": 750.8399999999845,
                    "velocity": 0.5905511811023622,
                    "duration": 0.1775000000000091
                },
                {
                    "name": "B6",
                    "midi": 95,
                    "time": 751.0174999999845,
                    "velocity": 0.5905511811023622,
                    "duration": 0.18250000000000455
                },
                {
                    "name": "C7",
                    "midi": 96,
                    "time": 751.1999999999845,
                    "velocity": 0.5905511811023622,
                    "duration": 0.17999999999994998
                },
                {
                    "name": "A#6",
                    "midi": 94,
                    "time": 751.3799999999844,
                    "velocity": 0.5905511811023622,
                    "duration": 0.1775000000000091
                },
                {
                    "name": "G6",
                    "midi": 91,
                    "time": 751.5574999999844,
                    "velocity": 0.5905511811023622,
                    "duration": 0.18250000000000455
                },
                {
                    "name": "E6",
                    "midi": 88,
                    "time": 751.7399999999844,
                    "velocity": 0.5905511811023622,
                    "duration": 0.1775000000000091
                },
                {
                    "name": "C#6",
                    "midi": 85,
                    "time": 751.9174999999844,
                    "velocity": 0.5905511811023622,
                    "duration": 0.18250000000000455
                },
                {
                    "name": "C6",
                    "midi": 84,
                    "time": 752.0999999999844,
                    "velocity": 0.5905511811023622,
                    "duration": 0.17999999999994998
                },
                {
                    "name": "A#5",
                    "midi": 82,
                    "time": 752.2799999999844,
                    "velocity": 0.5905511811023622,
                    "duration": 0.1775000000000091
                },
                {
                    "name": "G5",
                    "midi": 79,
                    "time": 752.4574999999844,
                    "velocity": 0.5905511811023622,
                    "duration": 0.18250000000000455
                },
                {
                    "name": "E5",
                    "midi": 76,
                    "time": 752.6399999999844,
                    "velocity": 0.5905511811023622,
                    "duration": 0.1775000000000091
                },
                {
                    "name": "C#5",
                    "midi": 73,
                    "time": 752.8174999999844,
                    "velocity": 0.5905511811023622,
                    "duration": 0.18250000000000455
                },
                {
                    "name": "E4",
                    "midi": 64,
                    "time": 752.9999999999844,
                    "velocity": 0.5905511811023622,
                    "duration": 0.17999999999994998
                },
                {
                    "name": "G4",
                    "midi": 67,
                    "time": 753.1799999999844,
                    "velocity": 0.5905511811023622,
                    "duration": 0.1775000000000091
                },
                {
                    "name": "A#4",
                    "midi": 70,
                    "time": 753.3574999999844,
                    "velocity": 0.5905511811023622,
                    "duration": 0.18250000000000455
                },
                {
                    "name": "C#5",
                    "midi": 73,
                    "time": 753.5399999999844,
                    "velocity": 0.5905511811023622,
                    "duration": 0.1775000000000091
                },
                {
                    "name": "D#5",
                    "midi": 75,
                    "time": 753.7174999999844,
                    "velocity": 0.5905511811023622,
                    "duration": 0.18250000000000455
                },
                {
                    "name": "E5",
                    "midi": 76,
                    "time": 753.8999999999844,
                    "velocity": 0.5905511811023622,
                    "duration": 0.17999999999994998
                },
                {
                    "name": "G5",
                    "midi": 79,
                    "time": 754.0799999999844,
                    "velocity": 0.5905511811023622,
                    "duration": 0.1775000000000091
                },
                {
                    "name": "A#5",
                    "midi": 82,
                    "time": 754.2574999999844,
                    "velocity": 0.5905511811023622,
                    "duration": 0.18250000000000455
                },
                {
                    "name": "C#6",
                    "midi": 85,
                    "time": 754.4399999999844,
                    "velocity": 0.5905511811023622,
                    "duration": 0.1775000000000091
                },
                {
                    "name": "D#6",
                    "midi": 87,
                    "time": 754.6174999999844,
                    "velocity": 0.5905511811023622,
                    "duration": 0.18250000000000455
                },
                {
                    "name": "F#6",
                    "midi": 90,
                    "time": 754.7999999999844,
                    "velocity": 0.5905511811023622,
                    "duration": 0.17999999999994998
                },
                {
                    "name": "E6",
                    "midi": 88,
                    "time": 754.9799999999843,
                    "velocity": 0.5905511811023622,
                    "duration": 0.1775000000000091
                },
                {
                    "name": "C#6",
                    "midi": 85,
                    "time": 755.1574999999843,
                    "velocity": 0.5905511811023622,
                    "duration": 0.18250000000000455
                },
                {
                    "name": "A#5",
                    "midi": 82,
                    "time": 755.3399999999843,
                    "velocity": 0.5905511811023622,
                    "duration": 0.1775000000000091
                },
                {
                    "name": "G5",
                    "midi": 79,
                    "time": 755.5174999999844,
                    "velocity": 0.5905511811023622,
                    "duration": 0.18250000000000455
                },
                {
                    "name": "F#5",
                    "midi": 78,
                    "time": 755.6999999999844,
                    "velocity": 0.5905511811023622,
                    "duration": 0.17999999999994998
                },
                {
                    "name": "E5",
                    "midi": 76,
                    "time": 755.8799999999843,
                    "velocity": 0.5905511811023622,
                    "duration": 0.1775000000000091
                },
                {
                    "name": "C#5",
                    "midi": 73,
                    "time": 756.0574999999843,
                    "velocity": 0.5905511811023622,
                    "duration": 0.18250000000000455
                },
                {
                    "name": "A#4",
                    "midi": 70,
                    "time": 756.2399999999843,
                    "velocity": 0.5905511811023622,
                    "duration": 0.1775000000000091
                },
                {
                    "name": "G4",
                    "midi": 67,
                    "time": 756.4174999999843,
                    "velocity": 0.5905511811023622,
                    "duration": 0.18250000000000455
                },
                {
                    "name": "A#4",
                    "midi": 70,
                    "time": 756.5999999999843,
                    "velocity": 0.5905511811023622,
                    "duration": 0.17999999999994998
                },
                {
                    "name": "C#5",
                    "midi": 73,
                    "time": 756.7799999999843,
                    "velocity": 0.5905511811023622,
                    "duration": 0.1775000000000091
                },
                {
                    "name": "E5",
                    "midi": 76,
                    "time": 756.9574999999843,
                    "velocity": 0.5905511811023622,
                    "duration": 0.18250000000000455
                },
                {
                    "name": "G5",
                    "midi": 79,
                    "time": 757.1399999999843,
                    "velocity": 0.5905511811023622,
                    "duration": 0.1775000000000091
                },
                {
                    "name": "B5",
                    "midi": 83,
                    "time": 757.3174999999843,
                    "velocity": 0.5905511811023622,
                    "duration": 0.18250000000000455
                },
                {
                    "name": "A#5",
                    "midi": 82,
                    "time": 757.4999999999843,
                    "velocity": 0.5905511811023622,
                    "duration": 0.17999999999994998
                },
                {
                    "name": "C#6",
                    "midi": 85,
                    "time": 757.6799999999843,
                    "velocity": 0.5905511811023622,
                    "duration": 0.1775000000000091
                },
                {
                    "name": "E6",
                    "midi": 88,
                    "time": 757.8574999999843,
                    "velocity": 0.5905511811023622,
                    "duration": 0.18250000000000455
                },
                {
                    "name": "G6",
                    "midi": 91,
                    "time": 758.0399999999843,
                    "velocity": 0.5905511811023622,
                    "duration": 0.1775000000000091
                },
                {
                    "name": "B6",
                    "midi": 95,
                    "time": 758.2174999999843,
                    "velocity": 0.5905511811023622,
                    "duration": 0.18250000000000455
                },
                {
                    "name": "C7",
                    "midi": 96,
                    "time": 758.3999999999843,
                    "velocity": 0.5905511811023622,
                    "duration": 0.17999999999994998
                },
                {
                    "name": "A#6",
                    "midi": 94,
                    "time": 758.5799999999842,
                    "velocity": 0.5905511811023622,
                    "duration": 0.1775000000000091
                },
                {
                    "name": "G6",
                    "midi": 91,
                    "time": 758.7574999999842,
                    "velocity": 0.5905511811023622,
                    "duration": 0.18250000000000455
                },
                {
                    "name": "E6",
                    "midi": 88,
                    "time": 758.9399999999843,
                    "velocity": 0.5905511811023622,
                    "duration": 0.1775000000000091
                },
                {
                    "name": "C#6",
                    "midi": 85,
                    "time": 759.1174999999843,
                    "velocity": 0.5905511811023622,
                    "duration": 0.18250000000000455
                },
                {
                    "name": "C6",
                    "midi": 84,
                    "time": 759.2999999999843,
                    "velocity": 0.5905511811023622,
                    "duration": 0.17999999999994998
                },
                {
                    "name": "A#5",
                    "midi": 82,
                    "time": 759.4799999999842,
                    "velocity": 0.5905511811023622,
                    "duration": 0.1775000000000091
                },
                {
                    "name": "G5",
                    "midi": 79,
                    "time": 759.6574999999842,
                    "velocity": 0.5905511811023622,
                    "duration": 0.18250000000000455
                },
                {
                    "name": "E5",
                    "midi": 76,
                    "time": 759.8399999999842,
                    "velocity": 0.5905511811023622,
                    "duration": 0.1775000000000091
                },
                {
                    "name": "C#5",
                    "midi": 73,
                    "time": 760.0174999999842,
                    "velocity": 0.5905511811023622,
                    "duration": 0.18250000000000455
                },
                {
                    "name": "E4",
                    "midi": 64,
                    "time": 760.1999999999842,
                    "velocity": 0.6929133858267716,
                    "duration": 0.17999999999994998
                },
                {
                    "name": "G4",
                    "midi": 67,
                    "time": 760.3799999999842,
                    "velocity": 0.6929133858267716,
                    "duration": 0.1775000000000091
                },
                {
                    "name": "A#4",
                    "midi": 70,
                    "time": 760.5574999999842,
                    "velocity": 0.6929133858267716,
                    "duration": 0.18250000000000455
                },
                {
                    "name": "C#5",
                    "midi": 73,
                    "time": 760.7399999999842,
                    "velocity": 0.6929133858267716,
                    "duration": 0.1775000000000091
                },
                {
                    "name": "D#5",
                    "midi": 75,
                    "time": 760.9174999999842,
                    "velocity": 0.6929133858267716,
                    "duration": 0.18250000000000455
                },
                {
                    "name": "E5",
                    "midi": 76,
                    "time": 761.0999999999842,
                    "velocity": 0.6929133858267716,
                    "duration": 0.17999999999994998
                },
                {
                    "name": "G5",
                    "midi": 79,
                    "time": 761.2799999999842,
                    "velocity": 0.6929133858267716,
                    "duration": 0.1775000000000091
                },
                {
                    "name": "A#5",
                    "midi": 82,
                    "time": 761.4574999999842,
                    "velocity": 0.6929133858267716,
                    "duration": 0.18250000000000455
                },
                {
                    "name": "C#6",
                    "midi": 85,
                    "time": 761.6399999999842,
                    "velocity": 0.6929133858267716,
                    "duration": 0.1775000000000091
                },
                {
                    "name": "D#6",
                    "midi": 87,
                    "time": 761.8174999999842,
                    "velocity": 0.6929133858267716,
                    "duration": 0.18250000000000455
                },
                {
                    "name": "F#6",
                    "midi": 90,
                    "time": 761.9999999999842,
                    "velocity": 0.6929133858267716,
                    "duration": 0.17999999999994998
                },
                {
                    "name": "E6",
                    "midi": 88,
                    "time": 762.1799999999841,
                    "velocity": 0.6929133858267716,
                    "duration": 0.1775000000000091
                },
                {
                    "name": "C#6",
                    "midi": 85,
                    "time": 762.3574999999842,
                    "velocity": 0.6929133858267716,
                    "duration": 0.18250000000000455
                },
                {
                    "name": "A#5",
                    "midi": 82,
                    "time": 762.5399999999842,
                    "velocity": 0.6929133858267716,
                    "duration": 0.1775000000000091
                },
                {
                    "name": "G5",
                    "midi": 79,
                    "time": 762.7174999999842,
                    "velocity": 0.6929133858267716,
                    "duration": 0.18250000000000455
                },
                {
                    "name": "F#5",
                    "midi": 78,
                    "time": 762.8999999999842,
                    "velocity": 0.6929133858267716,
                    "duration": 0.17999999999994998
                },
                {
                    "name": "E5",
                    "midi": 76,
                    "time": 763.0799999999841,
                    "velocity": 0.6929133858267716,
                    "duration": 0.1775000000000091
                },
                {
                    "name": "C#5",
                    "midi": 73,
                    "time": 763.2574999999841,
                    "velocity": 0.6929133858267716,
                    "duration": 0.18250000000000455
                },
                {
                    "name": "A#4",
                    "midi": 70,
                    "time": 763.4399999999841,
                    "velocity": 0.6929133858267716,
                    "duration": 0.1775000000000091
                },
                {
                    "name": "G4",
                    "midi": 67,
                    "time": 763.6174999999841,
                    "velocity": 0.6929133858267716,
                    "duration": 0.18250000000000455
                },
                {
                    "name": "A#4",
                    "midi": 70,
                    "time": 763.7999999999842,
                    "velocity": 0.6929133858267716,
                    "duration": 0.17999999999994998
                },
                {
                    "name": "C#5",
                    "midi": 73,
                    "time": 763.9799999999841,
                    "velocity": 0.6929133858267716,
                    "duration": 0.1775000000000091
                },
                {
                    "name": "E5",
                    "midi": 76,
                    "time": 764.1574999999841,
                    "velocity": 0.6929133858267716,
                    "duration": 0.18250000000000455
                },
                {
                    "name": "G5",
                    "midi": 79,
                    "time": 764.3399999999841,
                    "velocity": 0.6929133858267716,
                    "duration": 0.1775000000000091
                },
                {
                    "name": "B5",
                    "midi": 83,
                    "time": 764.5174999999841,
                    "velocity": 0.6929133858267716,
                    "duration": 0.18250000000000455
                },
                {
                    "name": "A#5",
                    "midi": 82,
                    "time": 764.6999999999841,
                    "velocity": 0.6929133858267716,
                    "duration": 0.17999999999994998
                },
                {
                    "name": "C#6",
                    "midi": 85,
                    "time": 764.8799999999841,
                    "velocity": 0.6929133858267716,
                    "duration": 0.1775000000000091
                },
                {
                    "name": "E6",
                    "midi": 88,
                    "time": 765.0574999999841,
                    "velocity": 0.6929133858267716,
                    "duration": 0.18250000000000455
                },
                {
                    "name": "G6",
                    "midi": 91,
                    "time": 765.2399999999841,
                    "velocity": 0.6929133858267716,
                    "duration": 0.1775000000000091
                },
                {
                    "name": "B6",
                    "midi": 95,
                    "time": 765.4174999999841,
                    "velocity": 0.6929133858267716,
                    "duration": 0.18250000000000455
                },
                {
                    "name": "C7",
                    "midi": 96,
                    "time": 765.5999999999841,
                    "velocity": 0.6929133858267716,
                    "duration": 0.17999999999994998
                },
                {
                    "name": "A#6",
                    "midi": 94,
                    "time": 765.779999999984,
                    "velocity": 0.6929133858267716,
                    "duration": 0.1775000000000091
                },
                {
                    "name": "G6",
                    "midi": 91,
                    "time": 765.9574999999841,
                    "velocity": 0.6929133858267716,
                    "duration": 0.18250000000000455
                },
                {
                    "name": "E6",
                    "midi": 88,
                    "time": 766.1399999999841,
                    "velocity": 0.6929133858267716,
                    "duration": 0.1775000000000091
                },
                {
                    "name": "C#6",
                    "midi": 85,
                    "time": 766.3174999999841,
                    "velocity": 0.6929133858267716,
                    "duration": 0.18250000000000455
                },
                {
                    "name": "C6",
                    "midi": 84,
                    "time": 766.4999999999841,
                    "velocity": 0.6929133858267716,
                    "duration": 0.17999999999994998
                },
                {
                    "name": "A#5",
                    "midi": 82,
                    "time": 766.679999999984,
                    "velocity": 0.6929133858267716,
                    "duration": 0.1775000000000091
                },
                {
                    "name": "G5",
                    "midi": 79,
                    "time": 766.857499999984,
                    "velocity": 0.6929133858267716,
                    "duration": 0.18250000000000455
                },
                {
                    "name": "E5",
                    "midi": 76,
                    "time": 767.039999999984,
                    "velocity": 0.6929133858267716,
                    "duration": 0.1775000000000091
                },
                {
                    "name": "C#5",
                    "midi": 73,
                    "time": 767.217499999984,
                    "velocity": 0.6929133858267716,
                    "duration": 0.18250000000000455
                },
                {
                    "name": "A#5",
                    "midi": 82,
                    "time": 767.3999999999841,
                    "velocity": 0.7952755905511811,
                    "duration": 0.6000000000000227
                },
                {
                    "name": "F#6",
                    "midi": 90,
                    "time": 767.3999999999841,
                    "velocity": 0.7952755905511811,
                    "duration": 0.6000000000000227
                },
                {
                    "name": "A#6",
                    "midi": 94,
                    "time": 767.3999999999841,
                    "velocity": 0.7952755905511811,
                    "duration": 0.6000000000000227
                },
                {
                    "name": "G#5",
                    "midi": 80,
                    "time": 767.9999999999841,
                    "velocity": 0.7952755905511811,
                    "duration": 0.6000000000000227
                },
                {
                    "name": "F6",
                    "midi": 89,
                    "time": 767.9999999999841,
                    "velocity": 0.7952755905511811,
                    "duration": 0.6000000000000227
                },
                {
                    "name": "G#6",
                    "midi": 92,
                    "time": 767.9999999999841,
                    "velocity": 0.7952755905511811,
                    "duration": 0.6000000000000227
                },
                {
                    "name": "A#5",
                    "midi": 82,
                    "time": 768.5999999999841,
                    "velocity": 0.7952755905511811,
                    "duration": 0.6000000000000227
                },
                {
                    "name": "F#6",
                    "midi": 90,
                    "time": 768.5999999999841,
                    "velocity": 0.7952755905511811,
                    "duration": 0.6000000000000227
                },
                {
                    "name": "A#6",
                    "midi": 94,
                    "time": 768.5999999999841,
                    "velocity": 0.7952755905511811,
                    "duration": 0.6000000000000227
                },
                {
                    "name": "G#5",
                    "midi": 80,
                    "time": 769.1999999999841,
                    "velocity": 0.7952755905511811,
                    "duration": 0.6000000000000227
                },
                {
                    "name": "F6",
                    "midi": 89,
                    "time": 769.1999999999841,
                    "velocity": 0.7952755905511811,
                    "duration": 0.6000000000000227
                },
                {
                    "name": "G#6",
                    "midi": 92,
                    "time": 769.1999999999841,
                    "velocity": 0.7952755905511811,
                    "duration": 0.6000000000000227
                },
                {
                    "name": "F#5",
                    "midi": 78,
                    "time": 769.7999999999842,
                    "velocity": 0.7952755905511811,
                    "duration": 0.6000000000000227
                },
                {
                    "name": "D#6",
                    "midi": 87,
                    "time": 769.7999999999842,
                    "velocity": 0.7952755905511811,
                    "duration": 0.6000000000000227
                },
                {
                    "name": "F#6",
                    "midi": 90,
                    "time": 769.7999999999842,
                    "velocity": 0.7952755905511811,
                    "duration": 0.6000000000000227
                },
                {
                    "name": "F5",
                    "midi": 77,
                    "time": 770.3999999999842,
                    "velocity": 0.7952755905511811,
                    "duration": 0.6000000000000227
                },
                {
                    "name": "C#6",
                    "midi": 85,
                    "time": 770.3999999999842,
                    "velocity": 0.7952755905511811,
                    "duration": 0.6000000000000227
                },
                {
                    "name": "F6",
                    "midi": 89,
                    "time": 770.3999999999842,
                    "velocity": 0.7952755905511811,
                    "duration": 0.6000000000000227
                },
                {
                    "name": "A#5",
                    "midi": 82,
                    "time": 770.9999999999842,
                    "velocity": 0.7952755905511811,
                    "duration": 0.6000000000000227
                },
                {
                    "name": "F#6",
                    "midi": 90,
                    "time": 770.9999999999842,
                    "velocity": 0.7952755905511811,
                    "duration": 0.6000000000000227
                },
                {
                    "name": "A#6",
                    "midi": 94,
                    "time": 770.9999999999842,
                    "velocity": 0.7952755905511811,
                    "duration": 0.6000000000000227
                },
                {
                    "name": "G#5",
                    "midi": 80,
                    "time": 771.5999999999842,
                    "velocity": 0.7952755905511811,
                    "duration": 0.6000000000000227
                },
                {
                    "name": "F6",
                    "midi": 89,
                    "time": 771.5999999999842,
                    "velocity": 0.7952755905511811,
                    "duration": 0.6000000000000227
                },
                {
                    "name": "G#6",
                    "midi": 92,
                    "time": 771.5999999999842,
                    "velocity": 0.7952755905511811,
                    "duration": 0.6000000000000227
                },
                {
                    "name": "A#5",
                    "midi": 82,
                    "time": 772.1999999999842,
                    "velocity": 0.7952755905511811,
                    "duration": 0.6000000000000227
                },
                {
                    "name": "F#6",
                    "midi": 90,
                    "time": 772.1999999999842,
                    "velocity": 0.7952755905511811,
                    "duration": 0.6000000000000227
                },
                {
                    "name": "A#6",
                    "midi": 94,
                    "time": 772.1999999999842,
                    "velocity": 0.7952755905511811,
                    "duration": 0.6000000000000227
                },
                {
                    "name": "G#5",
                    "midi": 80,
                    "time": 772.7999999999843,
                    "velocity": 0.7952755905511811,
                    "duration": 0.6000000000000227
                },
                {
                    "name": "F6",
                    "midi": 89,
                    "time": 772.7999999999843,
                    "velocity": 0.7952755905511811,
                    "duration": 0.6000000000000227
                },
                {
                    "name": "G#6",
                    "midi": 92,
                    "time": 772.7999999999843,
                    "velocity": 0.7952755905511811,
                    "duration": 0.6000000000000227
                },
                {
                    "name": "F#5",
                    "midi": 78,
                    "time": 773.3999999999843,
                    "velocity": 0.7952755905511811,
                    "duration": 0.6000000000000227
                },
                {
                    "name": "D#6",
                    "midi": 87,
                    "time": 773.3999999999843,
                    "velocity": 0.7952755905511811,
                    "duration": 0.6000000000000227
                },
                {
                    "name": "F#6",
                    "midi": 90,
                    "time": 773.3999999999843,
                    "velocity": 0.7952755905511811,
                    "duration": 0.6000000000000227
                },
                {
                    "name": "F5",
                    "midi": 77,
                    "time": 773.9999999999843,
                    "velocity": 0.7952755905511811,
                    "duration": 0.6000000000000227
                },
                {
                    "name": "C#6",
                    "midi": 85,
                    "time": 773.9999999999843,
                    "velocity": 0.7952755905511811,
                    "duration": 0.6000000000000227
                },
                {
                    "name": "F6",
                    "midi": 89,
                    "time": 773.9999999999843,
                    "velocity": 0.7952755905511811,
                    "duration": 0.6000000000000227
                },
                {
                    "name": "A#5",
                    "midi": 82,
                    "time": 774.5999999999843,
                    "velocity": 0.7952755905511811,
                    "duration": 0.6000000000000227
                },
                {
                    "name": "F#6",
                    "midi": 90,
                    "time": 774.5999999999843,
                    "velocity": 0.7952755905511811,
                    "duration": 0.6000000000000227
                },
                {
                    "name": "A#6",
                    "midi": 94,
                    "time": 774.5999999999843,
                    "velocity": 0.7952755905511811,
                    "duration": 0.6000000000000227
                },
                {
                    "name": "G#5",
                    "midi": 80,
                    "time": 775.1999999999844,
                    "velocity": 0.7952755905511811,
                    "duration": 0.6000000000000227
                },
                {
                    "name": "F6",
                    "midi": 89,
                    "time": 775.1999999999844,
                    "velocity": 0.7952755905511811,
                    "duration": 0.6000000000000227
                },
                {
                    "name": "G#6",
                    "midi": 92,
                    "time": 775.1999999999844,
                    "velocity": 0.7952755905511811,
                    "duration": 0.6000000000000227
                },
                {
                    "name": "A#5",
                    "midi": 82,
                    "time": 775.7999999999844,
                    "velocity": 0.7952755905511811,
                    "duration": 0.6000000000000227
                },
                {
                    "name": "F#6",
                    "midi": 90,
                    "time": 775.7999999999844,
                    "velocity": 0.7952755905511811,
                    "duration": 0.6000000000000227
                },
                {
                    "name": "A#6",
                    "midi": 94,
                    "time": 775.7999999999844,
                    "velocity": 0.7952755905511811,
                    "duration": 0.6000000000000227
                },
                {
                    "name": "G#5",
                    "midi": 80,
                    "time": 776.3999999999844,
                    "velocity": 0.7952755905511811,
                    "duration": 0.6000000000000227
                },
                {
                    "name": "F6",
                    "midi": 89,
                    "time": 776.3999999999844,
                    "velocity": 0.7952755905511811,
                    "duration": 0.6000000000000227
                },
                {
                    "name": "G#6",
                    "midi": 92,
                    "time": 776.3999999999844,
                    "velocity": 0.7952755905511811,
                    "duration": 0.6000000000000227
                },
                {
                    "name": "F#5",
                    "midi": 78,
                    "time": 776.9999999999844,
                    "velocity": 0.7952755905511811,
                    "duration": 0.6000000000000227
                },
                {
                    "name": "D#6",
                    "midi": 87,
                    "time": 776.9999999999844,
                    "velocity": 0.7952755905511811,
                    "duration": 0.6000000000000227
                },
                {
                    "name": "F#6",
                    "midi": 90,
                    "time": 776.9999999999844,
                    "velocity": 0.7952755905511811,
                    "duration": 0.6000000000000227
                },
                {
                    "name": "F5",
                    "midi": 77,
                    "time": 777.5999999999844,
                    "velocity": 0.7952755905511811,
                    "duration": 0.6000000000000227
                },
                {
                    "name": "C#6",
                    "midi": 85,
                    "time": 777.5999999999844,
                    "velocity": 0.7952755905511811,
                    "duration": 0.6000000000000227
                },
                {
                    "name": "F6",
                    "midi": 89,
                    "time": 777.5999999999844,
                    "velocity": 0.7952755905511811,
                    "duration": 0.6000000000000227
                },
                {
                    "name": "F#5",
                    "midi": 78,
                    "time": 778.1999999999845,
                    "velocity": 0.7952755905511811,
                    "duration": 0.6000000000000227
                },
                {
                    "name": "D#6",
                    "midi": 87,
                    "time": 778.1999999999845,
                    "velocity": 0.7952755905511811,
                    "duration": 0.6000000000000227
                },
                {
                    "name": "F#6",
                    "midi": 90,
                    "time": 778.1999999999845,
                    "velocity": 0.7952755905511811,
                    "duration": 0.6000000000000227
                },
                {
                    "name": "D#5",
                    "midi": 75,
                    "time": 778.7999999999845,
                    "velocity": 0.7952755905511811,
                    "duration": 0.6000000000000227
                },
                {
                    "name": "C6",
                    "midi": 84,
                    "time": 778.7999999999845,
                    "velocity": 0.7952755905511811,
                    "duration": 0.6000000000000227
                },
                {
                    "name": "D#6",
                    "midi": 87,
                    "time": 778.7999999999845,
                    "velocity": 0.7952755905511811,
                    "duration": 0.6000000000000227
                },
                {
                    "name": "D#5",
                    "midi": 75,
                    "time": 779.3999999999845,
                    "velocity": 0.7952755905511811,
                    "duration": 0.6000000000000227
                },
                {
                    "name": "C6",
                    "midi": 84,
                    "time": 779.3999999999845,
                    "velocity": 0.7952755905511811,
                    "duration": 0.6000000000000227
                },
                {
                    "name": "D#6",
                    "midi": 87,
                    "time": 779.3999999999845,
                    "velocity": 0.7952755905511811,
                    "duration": 0.6000000000000227
                },
                {
                    "name": "D#5",
                    "midi": 75,
                    "time": 779.9999999999845,
                    "velocity": 0.7952755905511811,
                    "duration": 0.6000000000000227
                },
                {
                    "name": "C6",
                    "midi": 84,
                    "time": 779.9999999999845,
                    "velocity": 0.7952755905511811,
                    "duration": 0.6000000000000227
                },
                {
                    "name": "D#6",
                    "midi": 87,
                    "time": 779.9999999999845,
                    "velocity": 0.7952755905511811,
                    "duration": 0.6000000000000227
                },
                {
                    "name": "F5",
                    "midi": 77,
                    "time": 780.5999999999846,
                    "velocity": 0.7952755905511811,
                    "duration": 0.6000000000000227
                },
                {
                    "name": "C#6",
                    "midi": 85,
                    "time": 780.5999999999846,
                    "velocity": 0.7952755905511811,
                    "duration": 0.6000000000000227
                },
                {
                    "name": "F6",
                    "midi": 89,
                    "time": 780.5999999999846,
                    "velocity": 0.7952755905511811,
                    "duration": 0.6000000000000227
                },
                {
                    "name": "F#5",
                    "midi": 78,
                    "time": 781.1999999999846,
                    "velocity": 0.7952755905511811,
                    "duration": 0.6000000000000227
                },
                {
                    "name": "D#6",
                    "midi": 87,
                    "time": 781.1999999999846,
                    "velocity": 0.7952755905511811,
                    "duration": 0.6000000000000227
                },
                {
                    "name": "F#6",
                    "midi": 90,
                    "time": 781.1999999999846,
                    "velocity": 0.7952755905511811,
                    "duration": 0.6000000000000227
                },
                {
                    "name": "G#5",
                    "midi": 80,
                    "time": 781.7999999999846,
                    "velocity": 0.7952755905511811,
                    "duration": 0.6000000000000227
                },
                {
                    "name": "F6",
                    "midi": 89,
                    "time": 781.7999999999846,
                    "velocity": 0.7952755905511811,
                    "duration": 0.6000000000000227
                },
                {
                    "name": "G#6",
                    "midi": 92,
                    "time": 781.7999999999846,
                    "velocity": 0.7952755905511811,
                    "duration": 0.6000000000000227
                },
                {
                    "name": "A#5",
                    "midi": 82,
                    "time": 782.3999999999846,
                    "velocity": 0.7952755905511811,
                    "duration": 0.6000000000000227
                },
                {
                    "name": "F#6",
                    "midi": 90,
                    "time": 782.3999999999846,
                    "velocity": 0.7952755905511811,
                    "duration": 0.6000000000000227
                },
                {
                    "name": "A#6",
                    "midi": 94,
                    "time": 782.3999999999846,
                    "velocity": 0.7952755905511811,
                    "duration": 0.6000000000000227
                },
                {
                    "name": "G#5",
                    "midi": 80,
                    "time": 782.9999999999847,
                    "velocity": 0.7952755905511811,
                    "duration": 0.6000000000000227
                },
                {
                    "name": "F6",
                    "midi": 89,
                    "time": 782.9999999999847,
                    "velocity": 0.7952755905511811,
                    "duration": 0.6000000000000227
                },
                {
                    "name": "G#6",
                    "midi": 92,
                    "time": 782.9999999999847,
                    "velocity": 0.7952755905511811,
                    "duration": 0.6000000000000227
                },
                {
                    "name": "A#5",
                    "midi": 82,
                    "time": 783.5999999999847,
                    "velocity": 0.7952755905511811,
                    "duration": 0.6000000000000227
                },
                {
                    "name": "F#6",
                    "midi": 90,
                    "time": 783.5999999999847,
                    "velocity": 0.7952755905511811,
                    "duration": 0.6000000000000227
                },
                {
                    "name": "A#6",
                    "midi": 94,
                    "time": 783.5999999999847,
                    "velocity": 0.7952755905511811,
                    "duration": 0.6000000000000227
                },
                {
                    "name": "G#5",
                    "midi": 80,
                    "time": 784.1999999999847,
                    "velocity": 0.7952755905511811,
                    "duration": 0.6000000000000227
                },
                {
                    "name": "F6",
                    "midi": 89,
                    "time": 784.1999999999847,
                    "velocity": 0.7952755905511811,
                    "duration": 0.6000000000000227
                },
                {
                    "name": "G#6",
                    "midi": 92,
                    "time": 784.1999999999847,
                    "velocity": 0.7952755905511811,
                    "duration": 0.6000000000000227
                },
                {
                    "name": "F#5",
                    "midi": 78,
                    "time": 784.7999999999847,
                    "velocity": 0.7952755905511811,
                    "duration": 0.6000000000000227
                },
                {
                    "name": "D#6",
                    "midi": 87,
                    "time": 784.7999999999847,
                    "velocity": 0.7952755905511811,
                    "duration": 0.6000000000000227
                },
                {
                    "name": "F#6",
                    "midi": 90,
                    "time": 784.7999999999847,
                    "velocity": 0.7952755905511811,
                    "duration": 0.6000000000000227
                },
                {
                    "name": "F5",
                    "midi": 77,
                    "time": 785.3999999999847,
                    "velocity": 0.7952755905511811,
                    "duration": 0.6000000000000227
                },
                {
                    "name": "C#6",
                    "midi": 85,
                    "time": 785.3999999999847,
                    "velocity": 0.7952755905511811,
                    "duration": 0.6000000000000227
                },
                {
                    "name": "F6",
                    "midi": 89,
                    "time": 785.3999999999847,
                    "velocity": 0.7952755905511811,
                    "duration": 0.6000000000000227
                },
                {
                    "name": "D#5",
                    "midi": 75,
                    "time": 785.9999999999848,
                    "velocity": 0.7952755905511811,
                    "duration": 0.6000000000000227
                },
                {
                    "name": "C6",
                    "midi": 84,
                    "time": 785.9999999999848,
                    "velocity": 0.7952755905511811,
                    "duration": 0.6000000000000227
                },
                {
                    "name": "D#6",
                    "midi": 87,
                    "time": 785.9999999999848,
                    "velocity": 0.7952755905511811,
                    "duration": 0.6000000000000227
                },
                {
                    "name": "F5",
                    "midi": 77,
                    "time": 786.5999999999848,
                    "velocity": 0.7952755905511811,
                    "duration": 0.6000000000000227
                },
                {
                    "name": "C#6",
                    "midi": 85,
                    "time": 786.5999999999848,
                    "velocity": 0.7952755905511811,
                    "duration": 0.6000000000000227
                },
                {
                    "name": "F6",
                    "midi": 89,
                    "time": 786.5999999999848,
                    "velocity": 0.7952755905511811,
                    "duration": 0.6000000000000227
                },
                {
                    "name": "F#5",
                    "midi": 78,
                    "time": 787.1999999999848,
                    "velocity": 0.7952755905511811,
                    "duration": 0.6000000000000227
                },
                {
                    "name": "D#6",
                    "midi": 87,
                    "time": 787.1999999999848,
                    "velocity": 0.7952755905511811,
                    "duration": 0.6000000000000227
                },
                {
                    "name": "F#6",
                    "midi": 90,
                    "time": 787.1999999999848,
                    "velocity": 0.7952755905511811,
                    "duration": 0.6000000000000227
                },
                {
                    "name": "G#5",
                    "midi": 80,
                    "time": 787.7999999999848,
                    "velocity": 0.7952755905511811,
                    "duration": 0.6000000000000227
                },
                {
                    "name": "F6",
                    "midi": 89,
                    "time": 787.7999999999848,
                    "velocity": 0.7952755905511811,
                    "duration": 0.6000000000000227
                },
                {
                    "name": "G#6",
                    "midi": 92,
                    "time": 787.7999999999848,
                    "velocity": 0.7952755905511811,
                    "duration": 0.6000000000000227
                },
                {
                    "name": "A5",
                    "midi": 81,
                    "time": 788.3999999999849,
                    "velocity": 0.7952755905511811,
                    "duration": 0.6000000000000227
                },
                {
                    "name": "F6",
                    "midi": 89,
                    "time": 788.3999999999849,
                    "velocity": 0.7952755905511811,
                    "duration": 0.6000000000000227
                },
                {
                    "name": "A6",
                    "midi": 93,
                    "time": 788.3999999999849,
                    "velocity": 0.7952755905511811,
                    "duration": 0.6000000000000227
                },
                {
                    "name": "G5",
                    "midi": 79,
                    "time": 788.9999999999849,
                    "velocity": 0.7952755905511811,
                    "duration": 0.6000000000000227
                },
                {
                    "name": "E6",
                    "midi": 88,
                    "time": 788.9999999999849,
                    "velocity": 0.7952755905511811,
                    "duration": 0.6000000000000227
                },
                {
                    "name": "G6",
                    "midi": 91,
                    "time": 788.9999999999849,
                    "velocity": 0.7952755905511811,
                    "duration": 0.6000000000000227
                },
                {
                    "name": "A5",
                    "midi": 81,
                    "time": 789.5999999999849,
                    "velocity": 0.7952755905511811,
                    "duration": 0.6000000000000227
                },
                {
                    "name": "F6",
                    "midi": 89,
                    "time": 789.5999999999849,
                    "velocity": 0.7952755905511811,
                    "duration": 0.6000000000000227
                },
                {
                    "name": "A6",
                    "midi": 93,
                    "time": 789.5999999999849,
                    "velocity": 0.7952755905511811,
                    "duration": 0.6000000000000227
                },
                {
                    "name": "G5",
                    "midi": 79,
                    "time": 790.1999999999849,
                    "velocity": 0.7952755905511811,
                    "duration": 0.6000000000000227
                },
                {
                    "name": "E6",
                    "midi": 88,
                    "time": 790.1999999999849,
                    "velocity": 0.7952755905511811,
                    "duration": 0.6000000000000227
                },
                {
                    "name": "G6",
                    "midi": 91,
                    "time": 790.1999999999849,
                    "velocity": 0.7952755905511811,
                    "duration": 0.6000000000000227
                },
                {
                    "name": "F5",
                    "midi": 77,
                    "time": 790.799999999985,
                    "velocity": 0.7952755905511811,
                    "duration": 0.6000000000000227
                },
                {
                    "name": "D6",
                    "midi": 86,
                    "time": 790.799999999985,
                    "velocity": 0.7952755905511811,
                    "duration": 0.6000000000000227
                },
                {
                    "name": "F6",
                    "midi": 89,
                    "time": 790.799999999985,
                    "velocity": 0.7952755905511811,
                    "duration": 0.6000000000000227
                },
                {
                    "name": "E5",
                    "midi": 76,
                    "time": 791.399999999985,
                    "velocity": 0.7952755905511811,
                    "duration": 0.6000000000000227
                },
                {
                    "name": "C6",
                    "midi": 84,
                    "time": 791.399999999985,
                    "velocity": 0.7952755905511811,
                    "duration": 0.6000000000000227
                },
                {
                    "name": "E6",
                    "midi": 88,
                    "time": 791.399999999985,
                    "velocity": 0.7952755905511811,
                    "duration": 0.6000000000000227
                },
                {
                    "name": "D5",
                    "midi": 74,
                    "time": 791.999999999985,
                    "velocity": 0.7952755905511811,
                    "duration": 0.6000000000000227
                },
                {
                    "name": "B5",
                    "midi": 83,
                    "time": 791.999999999985,
                    "velocity": 0.7952755905511811,
                    "duration": 0.6000000000000227
                },
                {
                    "name": "D6",
                    "midi": 86,
                    "time": 791.999999999985,
                    "velocity": 0.7952755905511811,
                    "duration": 0.6000000000000227
                },
                {
                    "name": "D5",
                    "midi": 74,
                    "time": 792.599999999985,
                    "velocity": 0.7952755905511811,
                    "duration": 0.6000000000000227
                },
                {
                    "name": "B5",
                    "midi": 83,
                    "time": 792.599999999985,
                    "velocity": 0.7952755905511811,
                    "duration": 0.6000000000000227
                },
                {
                    "name": "D6",
                    "midi": 86,
                    "time": 792.599999999985,
                    "velocity": 0.7952755905511811,
                    "duration": 0.6000000000000227
                },
                {
                    "name": "D5",
                    "midi": 74,
                    "time": 793.199999999985,
                    "velocity": 0.7952755905511811,
                    "duration": 0.6000000000000227
                },
                {
                    "name": "B5",
                    "midi": 83,
                    "time": 793.199999999985,
                    "velocity": 0.7952755905511811,
                    "duration": 0.6000000000000227
                },
                {
                    "name": "D6",
                    "midi": 86,
                    "time": 793.199999999985,
                    "velocity": 0.7952755905511811,
                    "duration": 0.6000000000000227
                },
                {
                    "name": "E5",
                    "midi": 76,
                    "time": 793.7999999999851,
                    "velocity": 0.7952755905511811,
                    "duration": 0.6000000000000227
                },
                {
                    "name": "C6",
                    "midi": 84,
                    "time": 793.7999999999851,
                    "velocity": 0.7952755905511811,
                    "duration": 0.6000000000000227
                },
                {
                    "name": "E6",
                    "midi": 88,
                    "time": 793.7999999999851,
                    "velocity": 0.7952755905511811,
                    "duration": 0.6000000000000227
                },
                {
                    "name": "F5",
                    "midi": 77,
                    "time": 794.3999999999851,
                    "velocity": 0.7952755905511811,
                    "duration": 0.6000000000000227
                },
                {
                    "name": "D6",
                    "midi": 86,
                    "time": 794.3999999999851,
                    "velocity": 0.7952755905511811,
                    "duration": 0.6000000000000227
                },
                {
                    "name": "F6",
                    "midi": 89,
                    "time": 794.3999999999851,
                    "velocity": 0.7952755905511811,
                    "duration": 0.6000000000000227
                },
                {
                    "name": "G5",
                    "midi": 79,
                    "time": 794.9999999999851,
                    "velocity": 0.7952755905511811,
                    "duration": 0.6000000000000227
                },
                {
                    "name": "E6",
                    "midi": 88,
                    "time": 794.9999999999851,
                    "velocity": 0.7952755905511811,
                    "duration": 0.6000000000000227
                },
                {
                    "name": "G6",
                    "midi": 91,
                    "time": 794.9999999999851,
                    "velocity": 0.7952755905511811,
                    "duration": 0.6000000000000227
                },
                {
                    "name": "D#5",
                    "midi": 75,
                    "time": 795.5999999999851,
                    "velocity": 0.3858267716535433,
                    "duration": 0.2999999999999545
                },
                {
                    "name": "F5",
                    "midi": 77,
                    "time": 795.5999999999851,
                    "velocity": 0.3858267716535433,
                    "duration": 0.2999999999999545
                },
                {
                    "name": "C5",
                    "midi": 72,
                    "time": 795.8999999999851,
                    "velocity": 0.3858267716535433,
                    "duration": 0.2999999999999545
                },
                {
                    "name": "D#5",
                    "midi": 75,
                    "time": 796.199999999985,
                    "velocity": 0.3858267716535433,
                    "duration": 0.2999999999999545
                },
                {
                    "name": "F5",
                    "midi": 77,
                    "time": 796.199999999985,
                    "velocity": 0.3858267716535433,
                    "duration": 0.2999999999999545
                },
                {
                    "name": "C5",
                    "midi": 72,
                    "time": 796.499999999985,
                    "velocity": 0.3858267716535433,
                    "duration": 0.2999999999999545
                },
                {
                    "name": "D#5",
                    "midi": 75,
                    "time": 796.799999999985,
                    "velocity": 0.3858267716535433,
                    "duration": 0.2999999999999545
                },
                {
                    "name": "F5",
                    "midi": 77,
                    "time": 796.799999999985,
                    "velocity": 0.3858267716535433,
                    "duration": 0.2999999999999545
                },
                {
                    "name": "C5",
                    "midi": 72,
                    "time": 797.0999999999849,
                    "velocity": 0.3858267716535433,
                    "duration": 0.2999999999999545
                },
                {
                    "name": "D#5",
                    "midi": 75,
                    "time": 797.3999999999849,
                    "velocity": 0.5905511811023622,
                    "duration": 0.2999999999999545
                },
                {
                    "name": "F5",
                    "midi": 77,
                    "time": 797.3999999999849,
                    "velocity": 0.5905511811023622,
                    "duration": 0.2999999999999545
                },
                {
                    "name": "C5",
                    "midi": 72,
                    "time": 797.6999999999848,
                    "velocity": 0.3858267716535433,
                    "duration": 0.2999999999999545
                },
                {
                    "name": "D#5",
                    "midi": 75,
                    "time": 797.9999999999848,
                    "velocity": 0.3858267716535433,
                    "duration": 0.2999999999999545
                },
                {
                    "name": "F5",
                    "midi": 77,
                    "time": 797.9999999999848,
                    "velocity": 0.3858267716535433,
                    "duration": 0.2999999999999545
                },
                {
                    "name": "C5",
                    "midi": 72,
                    "time": 798.2999999999847,
                    "velocity": 0.3858267716535433,
                    "duration": 0.2999999999999545
                },
                {
                    "name": "D#5",
                    "midi": 75,
                    "time": 798.5999999999847,
                    "velocity": 0.3858267716535433,
                    "duration": 0.2999999999999545
                },
                {
                    "name": "F5",
                    "midi": 77,
                    "time": 798.5999999999847,
                    "velocity": 0.3858267716535433,
                    "duration": 0.2999999999999545
                },
                {
                    "name": "C5",
                    "midi": 72,
                    "time": 798.8999999999846,
                    "velocity": 0.3858267716535433,
                    "duration": 0.2999999999999545
                },
                {
                    "name": "D#5",
                    "midi": 75,
                    "time": 799.1999999999846,
                    "velocity": 0.3858267716535433,
                    "duration": 0.2999999999999545
                },
                {
                    "name": "F5",
                    "midi": 77,
                    "time": 799.1999999999846,
                    "velocity": 0.3858267716535433,
                    "duration": 0.2999999999999545
                },
                {
                    "name": "C5",
                    "midi": 72,
                    "time": 799.4999999999845,
                    "velocity": 0.3858267716535433,
                    "duration": 0.2999999999999545
                },
                {
                    "name": "D#5",
                    "midi": 75,
                    "time": 799.7999999999845,
                    "velocity": 0.3858267716535433,
                    "duration": 0.2999999999999545
                },
                {
                    "name": "F5",
                    "midi": 77,
                    "time": 799.7999999999845,
                    "velocity": 0.3858267716535433,
                    "duration": 0.2999999999999545
                },
                {
                    "name": "C5",
                    "midi": 72,
                    "time": 800.0999999999844,
                    "velocity": 0.3858267716535433,
                    "duration": 0.2999999999999545
                },
                {
                    "name": "D#5",
                    "midi": 75,
                    "time": 800.3999999999844,
                    "velocity": 0.3858267716535433,
                    "duration": 0.2999999999999545
                },
                {
                    "name": "F5",
                    "midi": 77,
                    "time": 800.3999999999844,
                    "velocity": 0.3858267716535433,
                    "duration": 0.2999999999999545
                },
                {
                    "name": "C5",
                    "midi": 72,
                    "time": 800.6999999999844,
                    "velocity": 0.3858267716535433,
                    "duration": 0.2999999999999545
                },
                {
                    "name": "D#5",
                    "midi": 75,
                    "time": 800.9999999999843,
                    "velocity": 0.5905511811023622,
                    "duration": 0.2999999999999545
                },
                {
                    "name": "F5",
                    "midi": 77,
                    "time": 800.9999999999843,
                    "velocity": 0.5905511811023622,
                    "duration": 0.2999999999999545
                },
                {
                    "name": "C5",
                    "midi": 72,
                    "time": 801.2999999999843,
                    "velocity": 0.3858267716535433,
                    "duration": 0.2999999999999545
                },
                {
                    "name": "D#5",
                    "midi": 75,
                    "time": 801.5999999999842,
                    "velocity": 0.3858267716535433,
                    "duration": 0.2999999999999545
                },
                {
                    "name": "F5",
                    "midi": 77,
                    "time": 801.5999999999842,
                    "velocity": 0.3858267716535433,
                    "duration": 0.2999999999999545
                },
                {
                    "name": "C5",
                    "midi": 72,
                    "time": 801.8999999999842,
                    "velocity": 0.3858267716535433,
                    "duration": 0.2999999999999545
                },
                {
                    "name": "D#5",
                    "midi": 75,
                    "time": 802.1999999999841,
                    "velocity": 0.3858267716535433,
                    "duration": 0.2999999999999545
                },
                {
                    "name": "F5",
                    "midi": 77,
                    "time": 802.1999999999841,
                    "velocity": 0.3858267716535433,
                    "duration": 0.2999999999999545
                },
                {
                    "name": "C5",
                    "midi": 72,
                    "time": 802.4999999999841,
                    "velocity": 0.3858267716535433,
                    "duration": 0.2999999999999545
                },
                {
                    "name": "D#5",
                    "midi": 75,
                    "time": 802.799999999984,
                    "velocity": 0.3858267716535433,
                    "duration": 0.2999999999999545
                },
                {
                    "name": "F5",
                    "midi": 77,
                    "time": 802.799999999984,
                    "velocity": 0.3858267716535433,
                    "duration": 0.2999999999999545
                },
                {
                    "name": "C5",
                    "midi": 72,
                    "time": 803.099999999984,
                    "velocity": 0.3858267716535433,
                    "duration": 0.2999999999999545
                },
                {
                    "name": "D#5",
                    "midi": 75,
                    "time": 803.399999999984,
                    "velocity": 0.3858267716535433,
                    "duration": 0.2999999999999545
                },
                {
                    "name": "F5",
                    "midi": 77,
                    "time": 803.399999999984,
                    "velocity": 0.3858267716535433,
                    "duration": 0.2999999999999545
                },
                {
                    "name": "C5",
                    "midi": 72,
                    "time": 803.6999999999839,
                    "velocity": 0.3858267716535433,
                    "duration": 0.2999999999999545
                },
                {
                    "name": "D#5",
                    "midi": 75,
                    "time": 803.9999999999839,
                    "velocity": 0.3858267716535433,
                    "duration": 0.2999999999999545
                },
                {
                    "name": "F5",
                    "midi": 77,
                    "time": 803.9999999999839,
                    "velocity": 0.3858267716535433,
                    "duration": 0.2999999999999545
                },
                {
                    "name": "C5",
                    "midi": 72,
                    "time": 804.2999999999838,
                    "velocity": 0.3858267716535433,
                    "duration": 0.2999999999999545
                },
                {
                    "name": "D#5",
                    "midi": 75,
                    "time": 804.5999999999838,
                    "velocity": 0.5905511811023622,
                    "duration": 0.2999999999999545
                },
                {
                    "name": "F5",
                    "midi": 77,
                    "time": 804.5999999999838,
                    "velocity": 0.5905511811023622,
                    "duration": 0.2999999999999545
                },
                {
                    "name": "C5",
                    "midi": 72,
                    "time": 804.8999999999837,
                    "velocity": 0.3858267716535433,
                    "duration": 0.2999999999999545
                },
                {
                    "name": "D#5",
                    "midi": 75,
                    "time": 805.1999999999837,
                    "velocity": 0.3858267716535433,
                    "duration": 0.2999999999999545
                },
                {
                    "name": "F5",
                    "midi": 77,
                    "time": 805.1999999999837,
                    "velocity": 0.3858267716535433,
                    "duration": 0.2999999999999545
                },
                {
                    "name": "C5",
                    "midi": 72,
                    "time": 805.4999999999836,
                    "velocity": 0.3858267716535433,
                    "duration": 0.2999999999999545
                },
                {
                    "name": "D#5",
                    "midi": 75,
                    "time": 805.7999999999836,
                    "velocity": 0.3858267716535433,
                    "duration": 0.2999999999999545
                },
                {
                    "name": "F5",
                    "midi": 77,
                    "time": 805.7999999999836,
                    "velocity": 0.3858267716535433,
                    "duration": 0.2999999999999545
                },
                {
                    "name": "C5",
                    "midi": 72,
                    "time": 806.0999999999835,
                    "velocity": 0.3858267716535433,
                    "duration": 0.2999999999999545
                },
                {
                    "name": "D#5",
                    "midi": 75,
                    "time": 806.3999999999835,
                    "velocity": 0.3858267716535433,
                    "duration": 0.2999999999999545
                },
                {
                    "name": "F5",
                    "midi": 77,
                    "time": 806.3999999999835,
                    "velocity": 0.3858267716535433,
                    "duration": 0.2999999999999545
                },
                {
                    "name": "C5",
                    "midi": 72,
                    "time": 806.6999999999834,
                    "velocity": 0.3858267716535433,
                    "duration": 0.2999999999999545
                },
                {
                    "name": "D#5",
                    "midi": 75,
                    "time": 806.9999999999834,
                    "velocity": 0.3858267716535433,
                    "duration": 0.2999999999999545
                },
                {
                    "name": "F5",
                    "midi": 77,
                    "time": 806.9999999999834,
                    "velocity": 0.3858267716535433,
                    "duration": 0.2999999999999545
                },
                {
                    "name": "C5",
                    "midi": 72,
                    "time": 807.2999999999834,
                    "velocity": 0.3858267716535433,
                    "duration": 0.2999999999999545
                },
                {
                    "name": "D#5",
                    "midi": 75,
                    "time": 807.5999999999833,
                    "velocity": 0.3858267716535433,
                    "duration": 0.2999999999999545
                },
                {
                    "name": "F5",
                    "midi": 77,
                    "time": 807.5999999999833,
                    "velocity": 0.3858267716535433,
                    "duration": 0.2999999999999545
                },
                {
                    "name": "C5",
                    "midi": 72,
                    "time": 807.8999999999833,
                    "velocity": 0.3858267716535433,
                    "duration": 0.2999999999999545
                },
                {
                    "name": "D#5",
                    "midi": 75,
                    "time": 808.1999999999832,
                    "velocity": 0.5905511811023622,
                    "duration": 0.2999999999999545
                },
                {
                    "name": "F5",
                    "midi": 77,
                    "time": 808.1999999999832,
                    "velocity": 0.5905511811023622,
                    "duration": 0.2999999999999545
                },
                {
                    "name": "C5",
                    "midi": 72,
                    "time": 808.4999999999832,
                    "velocity": 0.3858267716535433,
                    "duration": 0.2999999999999545
                },
                {
                    "name": "D#5",
                    "midi": 75,
                    "time": 808.7999999999831,
                    "velocity": 0.3858267716535433,
                    "duration": 0.2999999999999545
                },
                {
                    "name": "F5",
                    "midi": 77,
                    "time": 808.7999999999831,
                    "velocity": 0.3858267716535433,
                    "duration": 0.2999999999999545
                },
                {
                    "name": "C5",
                    "midi": 72,
                    "time": 809.0999999999831,
                    "velocity": 0.3858267716535433,
                    "duration": 0.2999999999999545
                },
                {
                    "name": "D#5",
                    "midi": 75,
                    "time": 809.399999999983,
                    "velocity": 0.3858267716535433,
                    "duration": 0.2999999999999545
                },
                {
                    "name": "F5",
                    "midi": 77,
                    "time": 809.399999999983,
                    "velocity": 0.3858267716535433,
                    "duration": 0.2999999999999545
                },
                {
                    "name": "C5",
                    "midi": 72,
                    "time": 809.699999999983,
                    "velocity": 0.3858267716535433,
                    "duration": 0.2999999999999545
                },
                {
                    "name": "D#5",
                    "midi": 75,
                    "time": 809.999999999983,
                    "velocity": 0.3858267716535433,
                    "duration": 0.2999999999999545
                },
                {
                    "name": "F5",
                    "midi": 77,
                    "time": 809.999999999983,
                    "velocity": 0.3858267716535433,
                    "duration": 0.2999999999999545
                },
                {
                    "name": "C5",
                    "midi": 72,
                    "time": 810.2999999999829,
                    "velocity": 0.3858267716535433,
                    "duration": 0.2999999999999545
                },
                {
                    "name": "D#5",
                    "midi": 75,
                    "time": 810.5999999999829,
                    "velocity": 0.3858267716535433,
                    "duration": 0.2999999999999545
                },
                {
                    "name": "F5",
                    "midi": 77,
                    "time": 810.5999999999829,
                    "velocity": 0.3858267716535433,
                    "duration": 0.2999999999999545
                },
                {
                    "name": "C5",
                    "midi": 72,
                    "time": 810.8999999999828,
                    "velocity": 0.3858267716535433,
                    "duration": 0.2999999999999545
                },
                {
                    "name": "D#5",
                    "midi": 75,
                    "time": 811.1999999999828,
                    "velocity": 0.3858267716535433,
                    "duration": 0.2999999999999545
                },
                {
                    "name": "F5",
                    "midi": 77,
                    "time": 811.1999999999828,
                    "velocity": 0.3858267716535433,
                    "duration": 0.2999999999999545
                },
                {
                    "name": "C5",
                    "midi": 72,
                    "time": 811.4999999999827,
                    "velocity": 0.3858267716535433,
                    "duration": 0.2999999999999545
                },
                {
                    "name": "C5",
                    "midi": 72,
                    "time": 811.7999999999827,
                    "velocity": 0.4881889763779528,
                    "duration": 0.2999999999999545
                },
                {
                    "name": "D#5",
                    "midi": 75,
                    "time": 811.7999999999827,
                    "velocity": 0.4881889763779528,
                    "duration": 0.2999999999999545
                },
                {
                    "name": "F5",
                    "midi": 77,
                    "time": 811.7999999999827,
                    "velocity": 0.4881889763779528,
                    "duration": 0.2999999999999545
                },
                {
                    "name": "B4",
                    "midi": 71,
                    "time": 812.0999999999826,
                    "velocity": 0.4881889763779528,
                    "duration": 0.2999999999999545
                },
                {
                    "name": "C5",
                    "midi": 72,
                    "time": 812.3999999999826,
                    "velocity": 0.4881889763779528,
                    "duration": 0.2999999999999545
                },
                {
                    "name": "D#5",
                    "midi": 75,
                    "time": 812.3999999999826,
                    "velocity": 0.4881889763779528,
                    "duration": 0.2999999999999545
                },
                {
                    "name": "F5",
                    "midi": 77,
                    "time": 812.3999999999826,
                    "velocity": 0.4881889763779528,
                    "duration": 0.2999999999999545
                },
                {
                    "name": "B4",
                    "midi": 71,
                    "time": 812.6999999999825,
                    "velocity": 0.4881889763779528,
                    "duration": 0.2999999999999545
                },
                {
                    "name": "C5",
                    "midi": 72,
                    "time": 812.9999999999825,
                    "velocity": 0.4881889763779528,
                    "duration": 0.2999999999999545
                },
                {
                    "name": "D#5",
                    "midi": 75,
                    "time": 812.9999999999825,
                    "velocity": 0.4881889763779528,
                    "duration": 0.2999999999999545
                },
                {
                    "name": "F5",
                    "midi": 77,
                    "time": 812.9999999999825,
                    "velocity": 0.4881889763779528,
                    "duration": 0.2999999999999545
                },
                {
                    "name": "B4",
                    "midi": 71,
                    "time": 813.2999999999824,
                    "velocity": 0.4881889763779528,
                    "duration": 0.2999999999999545
                },
                {
                    "name": "C5",
                    "midi": 72,
                    "time": 813.5999999999824,
                    "velocity": 0.4881889763779528,
                    "duration": 0.2999999999999545
                },
                {
                    "name": "D5",
                    "midi": 74,
                    "time": 813.5999999999824,
                    "velocity": 0.4881889763779528,
                    "duration": 0.2999999999999545
                },
                {
                    "name": "F#5",
                    "midi": 78,
                    "time": 813.5999999999824,
                    "velocity": 0.4881889763779528,
                    "duration": 0.2999999999999545
                },
                {
                    "name": "A4",
                    "midi": 69,
                    "time": 813.8999999999824,
                    "velocity": 0.4881889763779528,
                    "duration": 0.2999999999999545
                },
                {
                    "name": "C5",
                    "midi": 72,
                    "time": 814.1999999999823,
                    "velocity": 0.4881889763779528,
                    "duration": 0.2999999999999545
                },
                {
                    "name": "D5",
                    "midi": 74,
                    "time": 814.1999999999823,
                    "velocity": 0.4881889763779528,
                    "duration": 0.2999999999999545
                },
                {
                    "name": "F#5",
                    "midi": 78,
                    "time": 814.1999999999823,
                    "velocity": 0.4881889763779528,
                    "duration": 0.2999999999999545
                },
                {
                    "name": "A4",
                    "midi": 69,
                    "time": 814.4999999999823,
                    "velocity": 0.4881889763779528,
                    "duration": 0.2999999999999545
                },
                {
                    "name": "C5",
                    "midi": 72,
                    "time": 814.7999999999822,
                    "velocity": 0.4881889763779528,
                    "duration": 0.2999999999999545
                },
                {
                    "name": "D5",
                    "midi": 74,
                    "time": 814.7999999999822,
                    "velocity": 0.4881889763779528,
                    "duration": 0.2999999999999545
                },
                {
                    "name": "F#5",
                    "midi": 78,
                    "time": 814.7999999999822,
                    "velocity": 0.4881889763779528,
                    "duration": 0.2999999999999545
                },
                {
                    "name": "A4",
                    "midi": 69,
                    "time": 815.0999999999822,
                    "velocity": 0.4881889763779528,
                    "duration": 0.2999999999999545
                },
                {
                    "name": "C5",
                    "midi": 72,
                    "time": 815.3999999999821,
                    "velocity": 0.4881889763779528,
                    "duration": 0.2999999999999545
                },
                {
                    "name": "D#5",
                    "midi": 75,
                    "time": 815.3999999999821,
                    "velocity": 0.4881889763779528,
                    "duration": 0.2999999999999545
                },
                {
                    "name": "F5",
                    "midi": 77,
                    "time": 815.3999999999821,
                    "velocity": 0.4881889763779528,
                    "duration": 0.2999999999999545
                },
                {
                    "name": "A4",
                    "midi": 69,
                    "time": 815.6999999999821,
                    "velocity": 0.4881889763779528,
                    "duration": 0.2999999999999545
                },
                {
                    "name": "C5",
                    "midi": 72,
                    "time": 815.999999999982,
                    "velocity": 0.4881889763779528,
                    "duration": 0.2999999999999545
                },
                {
                    "name": "D#5",
                    "midi": 75,
                    "time": 815.999999999982,
                    "velocity": 0.4881889763779528,
                    "duration": 0.2999999999999545
                },
                {
                    "name": "F5",
                    "midi": 77,
                    "time": 815.999999999982,
                    "velocity": 0.4881889763779528,
                    "duration": 0.2999999999999545
                },
                {
                    "name": "A4",
                    "midi": 69,
                    "time": 816.299999999982,
                    "velocity": 0.4881889763779528,
                    "duration": 0.2999999999999545
                },
                {
                    "name": "C5",
                    "midi": 72,
                    "time": 816.599999999982,
                    "velocity": 0.4881889763779528,
                    "duration": 0.2999999999999545
                },
                {
                    "name": "D#5",
                    "midi": 75,
                    "time": 816.599999999982,
                    "velocity": 0.4881889763779528,
                    "duration": 0.2999999999999545
                },
                {
                    "name": "F5",
                    "midi": 77,
                    "time": 816.599999999982,
                    "velocity": 0.4881889763779528,
                    "duration": 0.2999999999999545
                },
                {
                    "name": "A4",
                    "midi": 69,
                    "time": 816.8999999999819,
                    "velocity": 0.4881889763779528,
                    "duration": 0.2999999999999545
                },
                {
                    "name": "D#5",
                    "midi": 75,
                    "time": 817.1999999999819,
                    "velocity": 0.4881889763779528,
                    "duration": 0.2999999999999545
                },
                {
                    "name": "F#5",
                    "midi": 78,
                    "time": 817.1999999999819,
                    "velocity": 0.4881889763779528,
                    "duration": 0.2999999999999545
                },
                {
                    "name": "G#5",
                    "midi": 80,
                    "time": 817.1999999999819,
                    "velocity": 0.4881889763779528,
                    "duration": 0.2999999999999545
                },
                {
                    "name": "C5",
                    "midi": 72,
                    "time": 817.4999999999818,
                    "velocity": 0.4881889763779528,
                    "duration": 0.2999999999999545
                },
                {
                    "name": "D#5",
                    "midi": 75,
                    "time": 817.7999999999818,
                    "velocity": 0.4881889763779528,
                    "duration": 0.2999999999999545
                },
                {
                    "name": "F#5",
                    "midi": 78,
                    "time": 817.7999999999818,
                    "velocity": 0.4881889763779528,
                    "duration": 0.2999999999999545
                },
                {
                    "name": "G#5",
                    "midi": 80,
                    "time": 817.7999999999818,
                    "velocity": 0.4881889763779528,
                    "duration": 0.2999999999999545
                },
                {
                    "name": "C5",
                    "midi": 72,
                    "time": 818.0999999999817,
                    "velocity": 0.4881889763779528,
                    "duration": 0.2999999999999545
                },
                {
                    "name": "D#5",
                    "midi": 75,
                    "time": 818.3999999999817,
                    "velocity": 0.4881889763779528,
                    "duration": 0.2999999999999545
                },
                {
                    "name": "F#5",
                    "midi": 78,
                    "time": 818.3999999999817,
                    "velocity": 0.4881889763779528,
                    "duration": 0.2999999999999545
                },
                {
                    "name": "G#5",
                    "midi": 80,
                    "time": 818.3999999999817,
                    "velocity": 0.4881889763779528,
                    "duration": 0.2999999999999545
                },
                {
                    "name": "C5",
                    "midi": 72,
                    "time": 818.6999999999816,
                    "velocity": 0.4881889763779528,
                    "duration": 0.2999999999999545
                },
                {
                    "name": "C5",
                    "midi": 72,
                    "time": 818.9999999999816,
                    "velocity": 0.4881889763779528,
                    "duration": 0.2999999999999545
                },
                {
                    "name": "D#5",
                    "midi": 75,
                    "time": 818.9999999999816,
                    "velocity": 0.4881889763779528,
                    "duration": 0.2999999999999545
                },
                {
                    "name": "F5",
                    "midi": 77,
                    "time": 818.9999999999816,
                    "velocity": 0.4881889763779528,
                    "duration": 0.2999999999999545
                },
                {
                    "name": "A4",
                    "midi": 69,
                    "time": 819.2999999999815,
                    "velocity": 0.4881889763779528,
                    "duration": 0.2999999999999545
                },
                {
                    "name": "C5",
                    "midi": 72,
                    "time": 819.5999999999815,
                    "velocity": 0.4881889763779528,
                    "duration": 0.2999999999999545
                },
                {
                    "name": "D#5",
                    "midi": 75,
                    "time": 819.5999999999815,
                    "velocity": 0.4881889763779528,
                    "duration": 0.2999999999999545
                },
                {
                    "name": "F5",
                    "midi": 77,
                    "time": 819.5999999999815,
                    "velocity": 0.4881889763779528,
                    "duration": 0.2999999999999545
                },
                {
                    "name": "A4",
                    "midi": 69,
                    "time": 819.8999999999814,
                    "velocity": 0.4881889763779528,
                    "duration": 0.2999999999999545
                },
                {
                    "name": "C5",
                    "midi": 72,
                    "time": 820.1999999999814,
                    "velocity": 0.4881889763779528,
                    "duration": 0.2999999999999545
                },
                {
                    "name": "D#5",
                    "midi": 75,
                    "time": 820.1999999999814,
                    "velocity": 0.4881889763779528,
                    "duration": 0.2999999999999545
                },
                {
                    "name": "F5",
                    "midi": 77,
                    "time": 820.1999999999814,
                    "velocity": 0.4881889763779528,
                    "duration": 0.2999999999999545
                },
                {
                    "name": "A4",
                    "midi": 69,
                    "time": 820.4999999999814,
                    "velocity": 0.4881889763779528,
                    "duration": 0.2999999999999545
                },
                {
                    "name": "C6",
                    "midi": 84,
                    "time": 820.7999999999813,
                    "velocity": 0.4881889763779528,
                    "duration": 0.20000000000004547
                },
                {
                    "name": "G#5",
                    "midi": 80,
                    "time": 820.9999999999814,
                    "velocity": 0.4881889763779528,
                    "duration": 0.1974999999999909
                },
                {
                    "name": "F#5",
                    "midi": 78,
                    "time": 821.1974999999813,
                    "velocity": 0.4881889763779528,
                    "duration": 0.20249999999998636
                },
                {
                    "name": "C5",
                    "midi": 72,
                    "time": 821.3999999999813,
                    "velocity": 0.5905511811023622,
                    "duration": 0.14999999999997726
                },
                {
                    "name": "D#5",
                    "midi": 75,
                    "time": 821.5499999999813,
                    "velocity": 0.5905511811023622,
                    "duration": 0.14999999999997726
                },
                {
                    "name": "F#5",
                    "midi": 78,
                    "time": 821.6999999999813,
                    "velocity": 0.5905511811023622,
                    "duration": 0.14999999999997726
                },
                {
                    "name": "G#5",
                    "midi": 80,
                    "time": 821.8499999999813,
                    "velocity": 0.5905511811023622,
                    "duration": 0.14999999999997726
                },
                {
                    "name": "C6",
                    "midi": 84,
                    "time": 821.9999999999812,
                    "velocity": 0.6929133858267716,
                    "duration": 0.14999999999997726
                },
                {
                    "name": "D#6",
                    "midi": 87,
                    "time": 822.1499999999812,
                    "velocity": 0.6929133858267716,
                    "duration": 0.14999999999997726
                },
                {
                    "name": "F#6",
                    "midi": 90,
                    "time": 822.2999999999812,
                    "velocity": 0.6929133858267716,
                    "duration": 0.14999999999997726
                },
                {
                    "name": "G#6",
                    "midi": 92,
                    "time": 822.4499999999812,
                    "velocity": 0.6929133858267716,
                    "duration": 0.14999999999997726
                },
                {
                    "name": "G#6",
                    "midi": 92,
                    "time": 822.5999999999812,
                    "velocity": 0.6929133858267716,
                    "duration": 0.2999999999999545
                },
                {
                    "name": "C7",
                    "midi": 96,
                    "time": 822.5999999999812,
                    "velocity": 0.6929133858267716,
                    "duration": 0.2999999999999545
                },
                {
                    "name": "C#6",
                    "midi": 85,
                    "time": 822.8999999999811,
                    "velocity": 0.6929133858267716,
                    "duration": 0.2999999999999545
                },
                {
                    "name": "G#6",
                    "midi": 92,
                    "time": 823.1999999999811,
                    "velocity": 0.6929133858267716,
                    "duration": 0.2999999999999545
                },
                {
                    "name": "C7",
                    "midi": 96,
                    "time": 823.1999999999811,
                    "velocity": 0.6929133858267716,
                    "duration": 0.2999999999999545
                },
                {
                    "name": "C#6",
                    "midi": 85,
                    "time": 823.499999999981,
                    "velocity": 0.6929133858267716,
                    "duration": 0.2999999999999545
                },
                {
                    "name": "G#6",
                    "midi": 92,
                    "time": 823.799999999981,
                    "velocity": 0.6929133858267716,
                    "duration": 0.2999999999999545
                },
                {
                    "name": "C7",
                    "midi": 96,
                    "time": 823.799999999981,
                    "velocity": 0.6929133858267716,
                    "duration": 0.2999999999999545
                },
                {
                    "name": "C#6",
                    "midi": 85,
                    "time": 824.0999999999809,
                    "velocity": 0.6929133858267716,
                    "duration": 0.2999999999999545
                },
                {
                    "name": "F6",
                    "midi": 89,
                    "time": 824.3999999999809,
                    "velocity": 0.6929133858267716,
                    "duration": 0.2999999999999545
                },
                {
                    "name": "A6",
                    "midi": 93,
                    "time": 824.3999999999809,
                    "velocity": 0.6929133858267716,
                    "duration": 0.2999999999999545
                },
                {
                    "name": "A#5",
                    "midi": 82,
                    "time": 824.6999999999808,
                    "velocity": 0.6929133858267716,
                    "duration": 0.2999999999999545
                },
                {
                    "name": "F6",
                    "midi": 89,
                    "time": 824.9999999999808,
                    "velocity": 0.6929133858267716,
                    "duration": 0.2999999999999545
                },
                {
                    "name": "A6",
                    "midi": 93,
                    "time": 824.9999999999808,
                    "velocity": 0.6929133858267716,
                    "duration": 0.2999999999999545
                },
                {
                    "name": "A#5",
                    "midi": 82,
                    "time": 825.2999999999807,
                    "velocity": 0.6929133858267716,
                    "duration": 0.2999999999999545
                },
                {
                    "name": "F6",
                    "midi": 89,
                    "time": 825.5999999999807,
                    "velocity": 0.6929133858267716,
                    "duration": 0.2999999999999545
                },
                {
                    "name": "A6",
                    "midi": 93,
                    "time": 825.5999999999807,
                    "velocity": 0.6929133858267716,
                    "duration": 0.2999999999999545
                },
                {
                    "name": "A#5",
                    "midi": 82,
                    "time": 825.8999999999807,
                    "velocity": 0.6929133858267716,
                    "duration": 0.2999999999999545
                },
                {
                    "name": "D6",
                    "midi": 86,
                    "time": 826.1999999999806,
                    "velocity": 0.6929133858267716,
                    "duration": 0.2999999999999545
                },
                {
                    "name": "F#6",
                    "midi": 90,
                    "time": 826.1999999999806,
                    "velocity": 0.6929133858267716,
                    "duration": 0.2999999999999545
                },
                {
                    "name": "G5",
                    "midi": 79,
                    "time": 826.4999999999806,
                    "velocity": 0.6929133858267716,
                    "duration": 0.2999999999999545
                },
                {
                    "name": "D6",
                    "midi": 86,
                    "time": 826.7999999999805,
                    "velocity": 0.6929133858267716,
                    "duration": 0.2999999999999545
                },
                {
                    "name": "F#6",
                    "midi": 90,
                    "time": 826.7999999999805,
                    "velocity": 0.6929133858267716,
                    "duration": 0.2999999999999545
                },
                {
                    "name": "G5",
                    "midi": 79,
                    "time": 827.0999999999805,
                    "velocity": 0.6929133858267716,
                    "duration": 0.2999999999999545
                },
                {
                    "name": "D6",
                    "midi": 86,
                    "time": 827.3999999999804,
                    "velocity": 0.6929133858267716,
                    "duration": 0.2999999999999545
                },
                {
                    "name": "F#6",
                    "midi": 90,
                    "time": 827.3999999999804,
                    "velocity": 0.6929133858267716,
                    "duration": 0.2999999999999545
                },
                {
                    "name": "G5",
                    "midi": 79,
                    "time": 827.6999999999804,
                    "velocity": 0.6929133858267716,
                    "duration": 0.2999999999999545
                },
                {
                    "name": "B5",
                    "midi": 83,
                    "time": 827.9999999999803,
                    "velocity": 0.6929133858267716,
                    "duration": 0.2999999999999545
                },
                {
                    "name": "D#6",
                    "midi": 87,
                    "time": 827.9999999999803,
                    "velocity": 0.6929133858267716,
                    "duration": 0.2999999999999545
                },
                {
                    "name": "E5",
                    "midi": 76,
                    "time": 828.2999999999803,
                    "velocity": 0.6929133858267716,
                    "duration": 0.2999999999999545
                },
                {
                    "name": "B5",
                    "midi": 83,
                    "time": 828.5999999999802,
                    "velocity": 0.6929133858267716,
                    "duration": 0.2999999999999545
                },
                {
                    "name": "D#6",
                    "midi": 87,
                    "time": 828.5999999999802,
                    "velocity": 0.6929133858267716,
                    "duration": 0.2999999999999545
                },
                {
                    "name": "E5",
                    "midi": 76,
                    "time": 828.8999999999802,
                    "velocity": 0.6929133858267716,
                    "duration": 0.2999999999999545
                },
                {
                    "name": "B5",
                    "midi": 83,
                    "time": 829.1999999999802,
                    "velocity": 0.6929133858267716,
                    "duration": 0.2999999999999545
                },
                {
                    "name": "D#6",
                    "midi": 87,
                    "time": 829.1999999999802,
                    "velocity": 0.6929133858267716,
                    "duration": 0.2999999999999545
                },
                {
                    "name": "E5",
                    "midi": 76,
                    "time": 829.4999999999801,
                    "velocity": 0.6929133858267716,
                    "duration": 0.2999999999999545
                },
                {
                    "name": "F5",
                    "midi": 77,
                    "time": 829.7999999999801,
                    "velocity": 0.6929133858267716,
                    "duration": 0.2999999999999545
                },
                {
                    "name": "A5",
                    "midi": 81,
                    "time": 829.7999999999801,
                    "velocity": 0.6929133858267716,
                    "duration": 0.2999999999999545
                },
                {
                    "name": "A#4",
                    "midi": 70,
                    "time": 830.09999999998,
                    "velocity": 0.6929133858267716,
                    "duration": 0.2999999999999545
                },
                {
                    "name": "F5",
                    "midi": 77,
                    "time": 830.39999999998,
                    "velocity": 0.6929133858267716,
                    "duration": 0.2999999999999545
                },
                {
                    "name": "A5",
                    "midi": 81,
                    "time": 830.39999999998,
                    "velocity": 0.6929133858267716,
                    "duration": 0.2999999999999545
                },
                {
                    "name": "A#4",
                    "midi": 70,
                    "time": 830.6999999999799,
                    "velocity": 0.6929133858267716,
                    "duration": 0.2999999999999545
                },
                {
                    "name": "F5",
                    "midi": 77,
                    "time": 830.9999999999799,
                    "velocity": 0.6929133858267716,
                    "duration": 0.2999999999999545
                },
                {
                    "name": "A5",
                    "midi": 81,
                    "time": 830.9999999999799,
                    "velocity": 0.6929133858267716,
                    "duration": 0.2999999999999545
                },
                {
                    "name": "A#4",
                    "midi": 70,
                    "time": 831.2999999999798,
                    "velocity": 0.6929133858267716,
                    "duration": 0.2999999999999545
                },
                {
                    "name": "D#6",
                    "midi": 87,
                    "time": 831.5999999999798,
                    "velocity": 0.6929133858267716,
                    "duration": 0.2999999999999545
                },
                {
                    "name": "F#6",
                    "midi": 90,
                    "time": 831.5999999999798,
                    "velocity": 0.6929133858267716,
                    "duration": 0.2999999999999545
                },
                {
                    "name": "G5",
                    "midi": 79,
                    "time": 831.8999999999797,
                    "velocity": 0.6929133858267716,
                    "duration": 0.2999999999999545
                },
                {
                    "name": "D#6",
                    "midi": 87,
                    "time": 832.1999999999797,
                    "velocity": 0.6929133858267716,
                    "duration": 0.2999999999999545
                },
                {
                    "name": "F#6",
                    "midi": 90,
                    "time": 832.1999999999797,
                    "velocity": 0.6929133858267716,
                    "duration": 0.2999999999999545
                },
                {
                    "name": "G5",
                    "midi": 79,
                    "time": 832.4999999999797,
                    "velocity": 0.6929133858267716,
                    "duration": 0.2999999999999545
                },
                {
                    "name": "D#6",
                    "midi": 87,
                    "time": 832.7999999999796,
                    "velocity": 0.6929133858267716,
                    "duration": 0.2999999999999545
                },
                {
                    "name": "F#6",
                    "midi": 90,
                    "time": 832.7999999999796,
                    "velocity": 0.6929133858267716,
                    "duration": 0.2999999999999545
                },
                {
                    "name": "G5",
                    "midi": 79,
                    "time": 833.0999999999796,
                    "velocity": 0.6929133858267716,
                    "duration": 0.2999999999999545
                },
                {
                    "name": "B5",
                    "midi": 83,
                    "time": 833.3999999999795,
                    "velocity": 0.6929133858267716,
                    "duration": 0.2999999999999545
                },
                {
                    "name": "D#6",
                    "midi": 87,
                    "time": 833.3999999999795,
                    "velocity": 0.6929133858267716,
                    "duration": 0.2999999999999545
                },
                {
                    "name": "E5",
                    "midi": 76,
                    "time": 833.6999999999795,
                    "velocity": 0.6929133858267716,
                    "duration": 0.2999999999999545
                },
                {
                    "name": "B5",
                    "midi": 83,
                    "time": 833.9999999999794,
                    "velocity": 0.6929133858267716,
                    "duration": 0.2999999999999545
                },
                {
                    "name": "D#6",
                    "midi": 87,
                    "time": 833.9999999999794,
                    "velocity": 0.6929133858267716,
                    "duration": 0.2999999999999545
                },
                {
                    "name": "E5",
                    "midi": 76,
                    "time": 834.2999999999794,
                    "velocity": 0.6929133858267716,
                    "duration": 0.2999999999999545
                },
                {
                    "name": "B5",
                    "midi": 83,
                    "time": 834.5999999999793,
                    "velocity": 0.6929133858267716,
                    "duration": 0.2999999999999545
                },
                {
                    "name": "D#6",
                    "midi": 87,
                    "time": 834.5999999999793,
                    "velocity": 0.6929133858267716,
                    "duration": 0.2999999999999545
                },
                {
                    "name": "E5",
                    "midi": 76,
                    "time": 834.8999999999793,
                    "velocity": 0.6929133858267716,
                    "duration": 0.2999999999999545
                },
                {
                    "name": "G#5",
                    "midi": 80,
                    "time": 835.1999999999792,
                    "velocity": 0.6929133858267716,
                    "duration": 0.2999999999999545
                },
                {
                    "name": "C6",
                    "midi": 84,
                    "time": 835.1999999999792,
                    "velocity": 0.6929133858267716,
                    "duration": 0.2999999999999545
                },
                {
                    "name": "C#5",
                    "midi": 73,
                    "time": 835.4999999999792,
                    "velocity": 0.6929133858267716,
                    "duration": 0.2999999999999545
                },
                {
                    "name": "G#5",
                    "midi": 80,
                    "time": 835.7999999999791,
                    "velocity": 0.6929133858267716,
                    "duration": 0.2999999999999545
                },
                {
                    "name": "C6",
                    "midi": 84,
                    "time": 835.7999999999791,
                    "velocity": 0.6929133858267716,
                    "duration": 0.2999999999999545
                },
                {
                    "name": "C#5",
                    "midi": 73,
                    "time": 836.0999999999791,
                    "velocity": 0.6929133858267716,
                    "duration": 0.2999999999999545
                },
                {
                    "name": "G#5",
                    "midi": 80,
                    "time": 836.3999999999791,
                    "velocity": 0.6929133858267716,
                    "duration": 0.2999999999999545
                },
                {
                    "name": "C6",
                    "midi": 84,
                    "time": 836.3999999999791,
                    "velocity": 0.6929133858267716,
                    "duration": 0.2999999999999545
                },
                {
                    "name": "C#5",
                    "midi": 73,
                    "time": 836.699999999979,
                    "velocity": 0.6929133858267716,
                    "duration": 0.2999999999999545
                },
                {
                    "name": "F5",
                    "midi": 77,
                    "time": 836.999999999979,
                    "velocity": 0.6929133858267716,
                    "duration": 0.2999999999999545
                },
                {
                    "name": "A5",
                    "midi": 81,
                    "time": 836.999999999979,
                    "velocity": 0.6929133858267716,
                    "duration": 0.2999999999999545
                },
                {
                    "name": "A#4",
                    "midi": 70,
                    "time": 837.2999999999789,
                    "velocity": 0.6929133858267716,
                    "duration": 0.2999999999999545
                },
                {
                    "name": "F5",
                    "midi": 77,
                    "time": 837.5999999999789,
                    "velocity": 0.6929133858267716,
                    "duration": 0.2999999999999545
                },
                {
                    "name": "A5",
                    "midi": 81,
                    "time": 837.5999999999789,
                    "velocity": 0.6929133858267716,
                    "duration": 0.2999999999999545
                },
                {
                    "name": "A#4",
                    "midi": 70,
                    "time": 837.8999999999788,
                    "velocity": 0.6929133858267716,
                    "duration": 0.2999999999999545
                },
                {
                    "name": "F5",
                    "midi": 77,
                    "time": 838.1999999999788,
                    "velocity": 0.6929133858267716,
                    "duration": 0.2999999999999545
                },
                {
                    "name": "A5",
                    "midi": 81,
                    "time": 838.1999999999788,
                    "velocity": 0.6929133858267716,
                    "duration": 0.2999999999999545
                },
                {
                    "name": "A#4",
                    "midi": 70,
                    "time": 838.4999999999787,
                    "velocity": 0.6929133858267716,
                    "duration": 0.2999999999999545
                },
                {
                    "name": "F5",
                    "midi": 77,
                    "time": 840.5999999999786,
                    "velocity": 0.6929133858267716,
                    "duration": 0.11749999999994998
                },
                {
                    "name": "D#5",
                    "midi": 75,
                    "time": 841.1999999999786,
                    "velocity": 0.6929133858267716,
                    "duration": 0.11749999999994998
                },
                {
                    "name": "A#5",
                    "midi": 82,
                    "time": 841.1999999999786,
                    "velocity": 0.6929133858267716,
                    "duration": 0.11749999999994998
                },
                {
                    "name": "D5",
                    "midi": 74,
                    "time": 841.7999999999785,
                    "velocity": 0.6929133858267716,
                    "duration": 0.11749999999994998
                },
                {
                    "name": "F5",
                    "midi": 77,
                    "time": 841.7999999999785,
                    "velocity": 0.6929133858267716,
                    "duration": 0.11749999999994998
                },
                {
                    "name": "C5",
                    "midi": 72,
                    "time": 842.3999999999784,
                    "velocity": 0.6929133858267716,
                    "duration": 0.11749999999994998
                },
                {
                    "name": "A#5",
                    "midi": 82,
                    "time": 842.3999999999784,
                    "velocity": 0.6929133858267716,
                    "duration": 0.11749999999994998
                },
                {
                    "name": "D5",
                    "midi": 74,
                    "time": 842.9999999999783,
                    "velocity": 0.6929133858267716,
                    "duration": 0.11749999999994998
                },
                {
                    "name": "C6",
                    "midi": 84,
                    "time": 842.9999999999783,
                    "velocity": 0.6929133858267716,
                    "duration": 0.11749999999994998
                },
                {
                    "name": "D#5",
                    "midi": 75,
                    "time": 843.5999999999782,
                    "velocity": 0.6929133858267716,
                    "duration": 0.11749999999994998
                },
                {
                    "name": "D#6",
                    "midi": 87,
                    "time": 843.5999999999782,
                    "velocity": 0.6929133858267716,
                    "duration": 0.11749999999994998
                },
                {
                    "name": "F5",
                    "midi": 77,
                    "time": 844.1999999999781,
                    "velocity": 0.6929133858267716,
                    "duration": 0.11749999999994998
                },
                {
                    "name": "D6",
                    "midi": 86,
                    "time": 844.1999999999781,
                    "velocity": 0.6929133858267716,
                    "duration": 0.11749999999994998
                },
                {
                    "name": "D#5",
                    "midi": 75,
                    "time": 844.799999999978,
                    "velocity": 0.6929133858267716,
                    "duration": 0.11749999999994998
                },
                {
                    "name": "C6",
                    "midi": 84,
                    "time": 844.799999999978,
                    "velocity": 0.6929133858267716,
                    "duration": 0.11749999999994998
                },
                {
                    "name": "D5",
                    "midi": 74,
                    "time": 845.3999999999779,
                    "velocity": 0.6929133858267716,
                    "duration": 0.11749999999994998
                },
                {
                    "name": "A#5",
                    "midi": 82,
                    "time": 845.3999999999779,
                    "velocity": 0.6929133858267716,
                    "duration": 0.11749999999994998
                },
                {
                    "name": "C5",
                    "midi": 72,
                    "time": 845.9999999999778,
                    "velocity": 0.6929133858267716,
                    "duration": 0.11749999999994998
                },
                {
                    "name": "F5",
                    "midi": 77,
                    "time": 845.9999999999778,
                    "velocity": 0.6929133858267716,
                    "duration": 0.11749999999994998
                },
                {
                    "name": "D#5",
                    "midi": 75,
                    "time": 848.3999999999778,
                    "velocity": 0.6929133858267716,
                    "duration": 0.11749999999994998
                },
                {
                    "name": "A#5",
                    "midi": 82,
                    "time": 848.3999999999778,
                    "velocity": 0.6929133858267716,
                    "duration": 0.11749999999994998
                },
                {
                    "name": "D5",
                    "midi": 74,
                    "time": 848.9999999999777,
                    "velocity": 0.6929133858267716,
                    "duration": 0.11749999999994998
                },
                {
                    "name": "F5",
                    "midi": 77,
                    "time": 848.9999999999777,
                    "velocity": 0.6929133858267716,
                    "duration": 0.11749999999994998
                },
                {
                    "name": "C5",
                    "midi": 72,
                    "time": 849.5999999999776,
                    "velocity": 0.6929133858267716,
                    "duration": 0.11749999999994998
                },
                {
                    "name": "A#5",
                    "midi": 82,
                    "time": 849.5999999999776,
                    "velocity": 0.6929133858267716,
                    "duration": 0.11749999999994998
                },
                {
                    "name": "D5",
                    "midi": 74,
                    "time": 850.1999999999775,
                    "velocity": 0.6929133858267716,
                    "duration": 0.11749999999994998
                },
                {
                    "name": "C6",
                    "midi": 84,
                    "time": 850.1999999999775,
                    "velocity": 0.6929133858267716,
                    "duration": 0.11749999999994998
                },
                {
                    "name": "D#5",
                    "midi": 75,
                    "time": 850.7999999999774,
                    "velocity": 0.6929133858267716,
                    "duration": 0.11749999999994998
                },
                {
                    "name": "D#6",
                    "midi": 87,
                    "time": 850.7999999999774,
                    "velocity": 0.6929133858267716,
                    "duration": 0.11749999999994998
                },
                {
                    "name": "F5",
                    "midi": 77,
                    "time": 851.3999999999774,
                    "velocity": 0.6929133858267716,
                    "duration": 0.11749999999994998
                },
                {
                    "name": "D6",
                    "midi": 86,
                    "time": 851.3999999999774,
                    "velocity": 0.6929133858267716,
                    "duration": 0.11749999999994998
                },
                {
                    "name": "D#5",
                    "midi": 75,
                    "time": 851.9999999999773,
                    "velocity": 0.6929133858267716,
                    "duration": 0.11749999999994998
                },
                {
                    "name": "C6",
                    "midi": 84,
                    "time": 851.9999999999773,
                    "velocity": 0.6929133858267716,
                    "duration": 0.11749999999994998
                },
                {
                    "name": "D5",
                    "midi": 74,
                    "time": 852.5999999999772,
                    "velocity": 0.6929133858267716,
                    "duration": 0.11749999999994998
                },
                {
                    "name": "A#5",
                    "midi": 82,
                    "time": 852.5999999999772,
                    "velocity": 0.6929133858267716,
                    "duration": 0.11749999999994998
                },
                {
                    "name": "C5",
                    "midi": 72,
                    "time": 853.1999999999771,
                    "velocity": 0.6929133858267716,
                    "duration": 0.11749999999994998
                },
                {
                    "name": "F5",
                    "midi": 77,
                    "time": 853.1999999999771,
                    "velocity": 0.6929133858267716,
                    "duration": 0.11749999999994998
                },
                {
                    "name": "D5",
                    "midi": 74,
                    "time": 853.799999999977,
                    "velocity": 0.6929133858267716,
                    "duration": 0.11749999999994998
                },
                {
                    "name": "A#5",
                    "midi": 82,
                    "time": 853.799999999977,
                    "velocity": 0.6929133858267716,
                    "duration": 0.11749999999994998
                },
                {
                    "name": "D#5",
                    "midi": 75,
                    "time": 854.3999999999769,
                    "velocity": 0.6929133858267716,
                    "duration": 0.11749999999994998
                },
                {
                    "name": "D#6",
                    "midi": 87,
                    "time": 854.3999999999769,
                    "velocity": 0.6929133858267716,
                    "duration": 0.11749999999994998
                },
                {
                    "name": "F5",
                    "midi": 77,
                    "time": 854.9999999999768,
                    "velocity": 0.6929133858267716,
                    "duration": 0.11749999999994998
                },
                {
                    "name": "D6",
                    "midi": 86,
                    "time": 854.9999999999768,
                    "velocity": 0.6929133858267716,
                    "duration": 0.11749999999994998
                },
                {
                    "name": "D#5",
                    "midi": 75,
                    "time": 855.5999999999767,
                    "velocity": 0.6929133858267716,
                    "duration": 0.11749999999994998
                },
                {
                    "name": "C6",
                    "midi": 84,
                    "time": 855.5999999999767,
                    "velocity": 0.6929133858267716,
                    "duration": 0.11749999999994998
                },
                {
                    "name": "D5",
                    "midi": 74,
                    "time": 856.1999999999766,
                    "velocity": 0.6929133858267716,
                    "duration": 0.11749999999994998
                },
                {
                    "name": "A#5",
                    "midi": 82,
                    "time": 856.1999999999766,
                    "velocity": 0.6929133858267716,
                    "duration": 0.11749999999994998
                },
                {
                    "name": "C5",
                    "midi": 72,
                    "time": 856.7999999999765,
                    "velocity": 0.6929133858267716,
                    "duration": 0.11749999999994998
                },
                {
                    "name": "F5",
                    "midi": 77,
                    "time": 856.7999999999765,
                    "velocity": 0.6929133858267716,
                    "duration": 0.11749999999994998
                },
                {
                    "name": "D5",
                    "midi": 74,
                    "time": 857.3999999999764,
                    "velocity": 0.6929133858267716,
                    "duration": 0.11749999999994998
                },
                {
                    "name": "G5",
                    "midi": 79,
                    "time": 857.3999999999764,
                    "velocity": 0.6929133858267716,
                    "duration": 0.11749999999994998
                },
                {
                    "name": "D#5",
                    "midi": 75,
                    "time": 857.9999999999764,
                    "velocity": 0.6929133858267716,
                    "duration": 0.11749999999994998
                },
                {
                    "name": "A#5",
                    "midi": 82,
                    "time": 857.9999999999764,
                    "velocity": 0.6929133858267716,
                    "duration": 0.11749999999994998
                },
                {
                    "name": "F5",
                    "midi": 77,
                    "time": 858.5999999999763,
                    "velocity": 0.6929133858267716,
                    "duration": 0.11749999999994998
                },
                {
                    "name": "G#5",
                    "midi": 80,
                    "time": 858.5999999999763,
                    "velocity": 0.6929133858267716,
                    "duration": 0.11749999999994998
                },
                {
                    "name": "D#5",
                    "midi": 75,
                    "time": 859.1999999999762,
                    "velocity": 0.6929133858267716,
                    "duration": 0.11749999999994998
                },
                {
                    "name": "F5",
                    "midi": 77,
                    "time": 859.1999999999762,
                    "velocity": 0.6929133858267716,
                    "duration": 0.11749999999994998
                },
                {
                    "name": "D5",
                    "midi": 74,
                    "time": 859.7999999999761,
                    "velocity": 0.6929133858267716,
                    "duration": 0.11749999999994998
                },
                {
                    "name": "F5",
                    "midi": 77,
                    "time": 859.7999999999761,
                    "velocity": 0.6929133858267716,
                    "duration": 0.11749999999994998
                },
                {
                    "name": "C5",
                    "midi": 72,
                    "time": 860.399999999976,
                    "velocity": 0.8976377952755905,
                    "duration": 1.2000000000000455
                },
                {
                    "name": "F5",
                    "midi": 77,
                    "time": 860.399999999976,
                    "velocity": 0.8976377952755905,
                    "duration": 1.2000000000000455
                },
                {
                    "name": "G#5",
                    "midi": 80,
                    "time": 860.399999999976,
                    "velocity": 0.8976377952755905,
                    "duration": 1.2000000000000455
                },
                {
                    "name": "C6",
                    "midi": 84,
                    "time": 860.399999999976,
                    "velocity": 0.8976377952755905,
                    "duration": 1.2000000000000455
                },
                {
                    "name": "C4",
                    "midi": 60,
                    "time": 861.899999999976,
                    "velocity": 0.5905511811023622,
                    "duration": 0.2999999999999545
                },
                {
                    "name": "F4",
                    "midi": 65,
                    "time": 862.4999999999759,
                    "velocity": 0.5905511811023622,
                    "duration": 0.2999999999999545
                },
                {
                    "name": "G4",
                    "midi": 67,
                    "time": 863.0999999999758,
                    "velocity": 0.6929133858267716,
                    "duration": 0.2999999999999545
                },
                {
                    "name": "C4",
                    "midi": 60,
                    "time": 863.6999999999757,
                    "velocity": 0.6929133858267716,
                    "duration": 0.2999999999999545
                },
                {
                    "name": "C5",
                    "midi": 72,
                    "time": 863.6999999999757,
                    "velocity": 0.6929133858267716,
                    "duration": 0.2999999999999545
                },
                {
                    "name": "A#4",
                    "midi": 70,
                    "time": 864.2999999999756,
                    "velocity": 0.5905511811023622,
                    "duration": 0.2999999999999545
                },
                {
                    "name": "G4",
                    "midi": 67,
                    "time": 864.8999999999755,
                    "velocity": 0.5905511811023622,
                    "duration": 0.2999999999999545
                },
                {
                    "name": "C4",
                    "midi": 60,
                    "time": 865.4999999999754,
                    "velocity": 0.5905511811023622,
                    "duration": 0.2999999999999545
                },
                {
                    "name": "F4",
                    "midi": 65,
                    "time": 866.0999999999754,
                    "velocity": 0.5905511811023622,
                    "duration": 0.2999999999999545
                },
                {
                    "name": "C4",
                    "midi": 60,
                    "time": 866.6999999999753,
                    "velocity": 0.8976377952755905,
                    "duration": 0.2999999999999545
                },
                {
                    "name": "G4",
                    "midi": 67,
                    "time": 866.6999999999753,
                    "velocity": 0.8976377952755905,
                    "duration": 0.2999999999999545
                },
                {
                    "name": "C5",
                    "midi": 72,
                    "time": 867.2999999999752,
                    "velocity": 0.6929133858267716,
                    "duration": 0.2999999999999545
                },
                {
                    "name": "A#4",
                    "midi": 70,
                    "time": 867.8999999999751,
                    "velocity": 0.5905511811023622,
                    "duration": 0.2999999999999545
                },
                {
                    "name": "G4",
                    "midi": 67,
                    "time": 868.499999999975,
                    "velocity": 0.5905511811023622,
                    "duration": 0.2999999999999545
                },
                {
                    "name": "C4",
                    "midi": 60,
                    "time": 869.0999999999749,
                    "velocity": 0.5905511811023622,
                    "duration": 0.2999999999999545
                },
                {
                    "name": "F4",
                    "midi": 65,
                    "time": 869.6999999999748,
                    "velocity": 0.5905511811023622,
                    "duration": 0.2999999999999545
                },
                {
                    "name": "C4",
                    "midi": 60,
                    "time": 870.2999999999747,
                    "velocity": 0.8976377952755905,
                    "duration": 0.2999999999999545
                },
                {
                    "name": "G4",
                    "midi": 67,
                    "time": 870.2999999999747,
                    "velocity": 0.8976377952755905,
                    "duration": 0.2999999999999545
                },
                {
                    "name": "C5",
                    "midi": 72,
                    "time": 870.8999999999746,
                    "velocity": 0.6929133858267716,
                    "duration": 0.2999999999999545
                },
                {
                    "name": "A#4",
                    "midi": 70,
                    "time": 871.4999999999745,
                    "velocity": 0.5905511811023622,
                    "duration": 0.2999999999999545
                },
                {
                    "name": "G4",
                    "midi": 67,
                    "time": 872.0999999999744,
                    "velocity": 0.5905511811023622,
                    "duration": 0.2999999999999545
                },
                {
                    "name": "C4",
                    "midi": 60,
                    "time": 872.6999999999744,
                    "velocity": 0.5905511811023622,
                    "duration": 0.2999999999999545
                },
                {
                    "name": "F4",
                    "midi": 65,
                    "time": 873.2999999999743,
                    "velocity": 0.5905511811023622,
                    "duration": 0.2999999999999545
                },
                {
                    "name": "G4",
                    "midi": 67,
                    "time": 873.8999999999742,
                    "velocity": 0.6929133858267716,
                    "duration": 0.2999999999999545
                },
                {
                    "name": "C4",
                    "midi": 60,
                    "time": 874.4999999999741,
                    "velocity": 0.6929133858267716,
                    "duration": 0.2999999999999545
                },
                {
                    "name": "C5",
                    "midi": 72,
                    "time": 874.4999999999741,
                    "velocity": 0.6929133858267716,
                    "duration": 0.2999999999999545
                },
                {
                    "name": "A#4",
                    "midi": 70,
                    "time": 875.099999999974,
                    "velocity": 0.5905511811023622,
                    "duration": 0.2999999999999545
                },
                {
                    "name": "G4",
                    "midi": 67,
                    "time": 875.6999999999739,
                    "velocity": 0.5905511811023622,
                    "duration": 0.2999999999999545
                },
                {
                    "name": "C5",
                    "midi": 72,
                    "time": 875.9999999999739,
                    "velocity": 0.7952755905511811,
                    "duration": 1.2000000000000455
                },
                {
                    "name": "F5",
                    "midi": 77,
                    "time": 875.9999999999739,
                    "velocity": 0.7952755905511811,
                    "duration": 1.2000000000000455
                },
                {
                    "name": "G#5",
                    "midi": 80,
                    "time": 875.9999999999739,
                    "velocity": 0.7952755905511811,
                    "duration": 1.2000000000000455
                },
                {
                    "name": "C6",
                    "midi": 84,
                    "time": 875.9999999999739,
                    "velocity": 0.7952755905511811,
                    "duration": 1.2000000000000455
                },
                {
                    "name": "C4",
                    "midi": 60,
                    "time": 877.4999999999739,
                    "velocity": 0.5905511811023622,
                    "duration": 0.2999999999999545
                },
                {
                    "name": "F4",
                    "midi": 65,
                    "time": 878.0999999999738,
                    "velocity": 0.5905511811023622,
                    "duration": 0.2999999999999545
                },
                {
                    "name": "G4",
                    "midi": 67,
                    "time": 878.6999999999737,
                    "velocity": 0.6929133858267716,
                    "duration": 0.2999999999999545
                },
                {
                    "name": "C4",
                    "midi": 60,
                    "time": 879.2999999999736,
                    "velocity": 0.6929133858267716,
                    "duration": 0.2999999999999545
                },
                {
                    "name": "C5",
                    "midi": 72,
                    "time": 879.2999999999736,
                    "velocity": 0.6929133858267716,
                    "duration": 0.2999999999999545
                },
                {
                    "name": "A#4",
                    "midi": 70,
                    "time": 879.8999999999735,
                    "velocity": 0.5905511811023622,
                    "duration": 0.2999999999999545
                },
                {
                    "name": "G4",
                    "midi": 67,
                    "time": 880.4999999999734,
                    "velocity": 0.5905511811023622,
                    "duration": 0.2999999999999545
                },
                {
                    "name": "E5",
                    "midi": 76,
                    "time": 880.7999999999734,
                    "velocity": 0.7952755905511811,
                    "duration": 1.2000000000000455
                },
                {
                    "name": "F5",
                    "midi": 77,
                    "time": 880.7999999999734,
                    "velocity": 0.7952755905511811,
                    "duration": 1.2000000000000455
                },
                {
                    "name": "G#5",
                    "midi": 80,
                    "time": 880.7999999999734,
                    "velocity": 0.7952755905511811,
                    "duration": 1.2000000000000455
                },
                {
                    "name": "C6",
                    "midi": 84,
                    "time": 880.7999999999734,
                    "velocity": 0.7952755905511811,
                    "duration": 1.2000000000000455
                },
                {
                    "name": "E6",
                    "midi": 88,
                    "time": 880.7999999999734,
                    "velocity": 0.7952755905511811,
                    "duration": 1.2000000000000455
                },
                {
                    "name": "C5",
                    "midi": 72,
                    "time": 881.9999999999734,
                    "velocity": 0.7952755905511811,
                    "duration": 1.2000000000000455
                },
                {
                    "name": "F5",
                    "midi": 77,
                    "time": 881.9999999999734,
                    "velocity": 0.7952755905511811,
                    "duration": 1.2000000000000455
                },
                {
                    "name": "G#5",
                    "midi": 80,
                    "time": 881.9999999999734,
                    "velocity": 0.7952755905511811,
                    "duration": 1.2000000000000455
                },
                {
                    "name": "C6",
                    "midi": 84,
                    "time": 881.9999999999734,
                    "velocity": 0.7952755905511811,
                    "duration": 1.2000000000000455
                },
                {
                    "name": "C5",
                    "midi": 72,
                    "time": 883.4999999999734,
                    "velocity": 0.5905511811023622,
                    "duration": 0.2999999999999545
                },
                {
                    "name": "C5",
                    "midi": 72,
                    "time": 884.0999999999733,
                    "velocity": 0.5905511811023622,
                    "duration": 0.2999999999999545
                },
                {
                    "name": "F5",
                    "midi": 77,
                    "time": 884.0999999999733,
                    "velocity": 0.5905511811023622,
                    "duration": 0.2999999999999545
                },
                {
                    "name": "C5",
                    "midi": 72,
                    "time": 884.6999999999732,
                    "velocity": 0.6929133858267716,
                    "duration": 0.2999999999999545
                },
                {
                    "name": "G5",
                    "midi": 79,
                    "time": 884.6999999999732,
                    "velocity": 0.6929133858267716,
                    "duration": 0.2999999999999545
                },
                {
                    "name": "C5",
                    "midi": 72,
                    "time": 885.2999999999731,
                    "velocity": 0.6929133858267716,
                    "duration": 0.2999999999999545
                },
                {
                    "name": "C6",
                    "midi": 84,
                    "time": 885.2999999999731,
                    "velocity": 0.6929133858267716,
                    "duration": 0.2999999999999545
                },
                {
                    "name": "C5",
                    "midi": 72,
                    "time": 885.899999999973,
                    "velocity": 0.5905511811023622,
                    "duration": 0.2999999999999545
                },
                {
                    "name": "A#5",
                    "midi": 82,
                    "time": 885.899999999973,
                    "velocity": 0.5905511811023622,
                    "duration": 0.2999999999999545
                },
                {
                    "name": "C5",
                    "midi": 72,
                    "time": 886.4999999999729,
                    "velocity": 0.5905511811023622,
                    "duration": 0.2999999999999545
                },
                {
                    "name": "G5",
                    "midi": 79,
                    "time": 886.4999999999729,
                    "velocity": 0.5905511811023622,
                    "duration": 0.2999999999999545
                },
                {
                    "name": "C5",
                    "midi": 72,
                    "time": 887.0999999999729,
                    "velocity": 0.5905511811023622,
                    "duration": 0.2999999999999545
                },
                {
                    "name": "C5",
                    "midi": 72,
                    "time": 887.6999999999728,
                    "velocity": 0.5905511811023622,
                    "duration": 0.2999999999999545
                },
                {
                    "name": "F5",
                    "midi": 77,
                    "time": 887.6999999999728,
                    "velocity": 0.5905511811023622,
                    "duration": 0.2999999999999545
                },
                {
                    "name": "C5",
                    "midi": 72,
                    "time": 888.2999999999727,
                    "velocity": 0.8976377952755905,
                    "duration": 0.2999999999999545
                },
                {
                    "name": "G5",
                    "midi": 79,
                    "time": 888.2999999999727,
                    "velocity": 0.8976377952755905,
                    "duration": 0.2999999999999545
                },
                {
                    "name": "C5",
                    "midi": 72,
                    "time": 888.8999999999726,
                    "velocity": 0.6929133858267716,
                    "duration": 0.2999999999999545
                },
                {
                    "name": "C6",
                    "midi": 84,
                    "time": 888.8999999999726,
                    "velocity": 0.6929133858267716,
                    "duration": 0.2999999999999545
                },
                {
                    "name": "C5",
                    "midi": 72,
                    "time": 889.4999999999725,
                    "velocity": 0.5905511811023622,
                    "duration": 0.2999999999999545
                },
                {
                    "name": "A#5",
                    "midi": 82,
                    "time": 889.4999999999725,
                    "velocity": 0.5905511811023622,
                    "duration": 0.2999999999999545
                },
                {
                    "name": "C5",
                    "midi": 72,
                    "time": 890.0999999999724,
                    "velocity": 0.5905511811023622,
                    "duration": 0.2999999999999545
                },
                {
                    "name": "G5",
                    "midi": 79,
                    "time": 890.0999999999724,
                    "velocity": 0.5905511811023622,
                    "duration": 0.2999999999999545
                },
                {
                    "name": "C5",
                    "midi": 72,
                    "time": 891.5999999999724,
                    "velocity": 0.7952755905511811,
                    "duration": 1.2000000000000455
                },
                {
                    "name": "F5",
                    "midi": 77,
                    "time": 891.5999999999724,
                    "velocity": 0.7952755905511811,
                    "duration": 1.2000000000000455
                },
                {
                    "name": "G#5",
                    "midi": 80,
                    "time": 891.5999999999724,
                    "velocity": 0.7952755905511811,
                    "duration": 1.2000000000000455
                },
                {
                    "name": "C6",
                    "midi": 84,
                    "time": 891.5999999999724,
                    "velocity": 0.7952755905511811,
                    "duration": 1.2000000000000455
                },
                {
                    "name": "C5",
                    "midi": 72,
                    "time": 893.0999999999724,
                    "velocity": 0.5905511811023622,
                    "duration": 0.2999999999999545
                },
                {
                    "name": "C5",
                    "midi": 72,
                    "time": 893.6999999999723,
                    "velocity": 0.5905511811023622,
                    "duration": 0.2999999999999545
                },
                {
                    "name": "F5",
                    "midi": 77,
                    "time": 893.6999999999723,
                    "velocity": 0.5905511811023622,
                    "duration": 0.2999999999999545
                },
                {
                    "name": "C5",
                    "midi": 72,
                    "time": 894.2999999999722,
                    "velocity": 0.8976377952755905,
                    "duration": 0.2999999999999545
                },
                {
                    "name": "G5",
                    "midi": 79,
                    "time": 894.2999999999722,
                    "velocity": 0.8976377952755905,
                    "duration": 0.2999999999999545
                },
                {
                    "name": "C5",
                    "midi": 72,
                    "time": 894.8999999999721,
                    "velocity": 0.6929133858267716,
                    "duration": 0.2999999999999545
                },
                {
                    "name": "C6",
                    "midi": 84,
                    "time": 894.8999999999721,
                    "velocity": 0.6929133858267716,
                    "duration": 0.2999999999999545
                },
                {
                    "name": "C5",
                    "midi": 72,
                    "time": 895.499999999972,
                    "velocity": 0.5905511811023622,
                    "duration": 0.2999999999999545
                },
                {
                    "name": "A#5",
                    "midi": 82,
                    "time": 895.499999999972,
                    "velocity": 0.5905511811023622,
                    "duration": 0.2999999999999545
                },
                {
                    "name": "C5",
                    "midi": 72,
                    "time": 896.0999999999719,
                    "velocity": 0.5905511811023622,
                    "duration": 0.2999999999999545
                },
                {
                    "name": "G5",
                    "midi": 79,
                    "time": 896.0999999999719,
                    "velocity": 0.5905511811023622,
                    "duration": 0.2999999999999545
                },
                {
                    "name": "G#5",
                    "midi": 80,
                    "time": 896.3999999999719,
                    "velocity": 0.6929133858267716,
                    "duration": 0.2999999999999545
                },
                {
                    "name": "E6",
                    "midi": 88,
                    "time": 896.3999999999719,
                    "velocity": 0.6929133858267716,
                    "duration": 0.2999999999999545
                },
                {
                    "name": "C6",
                    "midi": 84,
                    "time": 896.6999999999719,
                    "velocity": 0.6929133858267716,
                    "duration": 0.2999999999999545
                },
                {
                    "name": "D#6",
                    "midi": 87,
                    "time": 896.6999999999719,
                    "velocity": 0.6929133858267716,
                    "duration": 0.2999999999999545
                },
                {
                    "name": "G#5",
                    "midi": 80,
                    "time": 896.9999999999718,
                    "velocity": 0.6929133858267716,
                    "duration": 0.2999999999999545
                },
                {
                    "name": "E6",
                    "midi": 88,
                    "time": 896.9999999999718,
                    "velocity": 0.6929133858267716,
                    "duration": 0.2999999999999545
                },
                {
                    "name": "C6",
                    "midi": 84,
                    "time": 897.2999999999718,
                    "velocity": 0.6929133858267716,
                    "duration": 0.2999999999999545
                },
                {
                    "name": "D#6",
                    "midi": 87,
                    "time": 897.2999999999718,
                    "velocity": 0.6929133858267716,
                    "duration": 0.2999999999999545
                },
                {
                    "name": "G#5",
                    "midi": 80,
                    "time": 897.5999999999717,
                    "velocity": 0.6929133858267716,
                    "duration": 0.2999999999999545
                },
                {
                    "name": "E6",
                    "midi": 88,
                    "time": 897.5999999999717,
                    "velocity": 0.6929133858267716,
                    "duration": 0.2999999999999545
                },
                {
                    "name": "C6",
                    "midi": 84,
                    "time": 897.8999999999717,
                    "velocity": 0.6929133858267716,
                    "duration": 0.2999999999999545
                },
                {
                    "name": "D#6",
                    "midi": 87,
                    "time": 897.8999999999717,
                    "velocity": 0.6929133858267716,
                    "duration": 0.2999999999999545
                },
                {
                    "name": "G#5",
                    "midi": 80,
                    "time": 898.1999999999716,
                    "velocity": 0.6929133858267716,
                    "duration": 0.2999999999999545
                },
                {
                    "name": "E6",
                    "midi": 88,
                    "time": 898.1999999999716,
                    "velocity": 0.6929133858267716,
                    "duration": 0.2999999999999545
                },
                {
                    "name": "C6",
                    "midi": 84,
                    "time": 898.4999999999716,
                    "velocity": 0.6929133858267716,
                    "duration": 0.2999999999999545
                },
                {
                    "name": "D#6",
                    "midi": 87,
                    "time": 898.4999999999716,
                    "velocity": 0.6929133858267716,
                    "duration": 0.2999999999999545
                },
                {
                    "name": "G#5",
                    "midi": 80,
                    "time": 898.7999999999715,
                    "velocity": 0.6929133858267716,
                    "duration": 0.2999999999999545
                },
                {
                    "name": "E6",
                    "midi": 88,
                    "time": 898.7999999999715,
                    "velocity": 0.6929133858267716,
                    "duration": 0.2999999999999545
                },
                {
                    "name": "C6",
                    "midi": 84,
                    "time": 899.0999999999715,
                    "velocity": 0.6929133858267716,
                    "duration": 0.2999999999999545
                },
                {
                    "name": "D#6",
                    "midi": 87,
                    "time": 899.0999999999715,
                    "velocity": 0.6929133858267716,
                    "duration": 0.2999999999999545
                },
                {
                    "name": "G#5",
                    "midi": 80,
                    "time": 899.3999999999714,
                    "velocity": 0.6929133858267716,
                    "duration": 0.2999999999999545
                },
                {
                    "name": "E6",
                    "midi": 88,
                    "time": 899.3999999999714,
                    "velocity": 0.6929133858267716,
                    "duration": 0.2999999999999545
                },
                {
                    "name": "C6",
                    "midi": 84,
                    "time": 899.6999999999714,
                    "velocity": 0.6929133858267716,
                    "duration": 0.2999999999999545
                },
                {
                    "name": "D#6",
                    "midi": 87,
                    "time": 899.6999999999714,
                    "velocity": 0.6929133858267716,
                    "duration": 0.2999999999999545
                },
                {
                    "name": "G#5",
                    "midi": 80,
                    "time": 899.9999999999714,
                    "velocity": 0.6929133858267716,
                    "duration": 0.2999999999999545
                },
                {
                    "name": "E6",
                    "midi": 88,
                    "time": 899.9999999999714,
                    "velocity": 0.6929133858267716,
                    "duration": 0.2999999999999545
                },
                {
                    "name": "C6",
                    "midi": 84,
                    "time": 900.2999999999713,
                    "velocity": 0.6929133858267716,
                    "duration": 0.2999999999999545
                },
                {
                    "name": "D#6",
                    "midi": 87,
                    "time": 900.2999999999713,
                    "velocity": 0.6929133858267716,
                    "duration": 0.2999999999999545
                },
                {
                    "name": "G#5",
                    "midi": 80,
                    "time": 900.5999999999713,
                    "velocity": 0.6929133858267716,
                    "duration": 0.2999999999999545
                },
                {
                    "name": "E6",
                    "midi": 88,
                    "time": 900.5999999999713,
                    "velocity": 0.6929133858267716,
                    "duration": 0.2999999999999545
                },
                {
                    "name": "C6",
                    "midi": 84,
                    "time": 900.8999999999712,
                    "velocity": 0.6929133858267716,
                    "duration": 0.2999999999999545
                },
                {
                    "name": "D#6",
                    "midi": 87,
                    "time": 900.8999999999712,
                    "velocity": 0.6929133858267716,
                    "duration": 0.2999999999999545
                },
                {
                    "name": "G#5",
                    "midi": 80,
                    "time": 901.1999999999712,
                    "velocity": 0.6929133858267716,
                    "duration": 0.2999999999999545
                },
                {
                    "name": "E6",
                    "midi": 88,
                    "time": 901.1999999999712,
                    "velocity": 0.6929133858267716,
                    "duration": 0.2999999999999545
                },
                {
                    "name": "C6",
                    "midi": 84,
                    "time": 901.4999999999711,
                    "velocity": 0.6929133858267716,
                    "duration": 0.2999999999999545
                },
                {
                    "name": "D#6",
                    "midi": 87,
                    "time": 901.4999999999711,
                    "velocity": 0.6929133858267716,
                    "duration": 0.2999999999999545
                },
                {
                    "name": "G#5",
                    "midi": 80,
                    "time": 901.7999999999711,
                    "velocity": 0.6929133858267716,
                    "duration": 0.2999999999999545
                },
                {
                    "name": "E6",
                    "midi": 88,
                    "time": 901.7999999999711,
                    "velocity": 0.6929133858267716,
                    "duration": 0.2999999999999545
                },
                {
                    "name": "C6",
                    "midi": 84,
                    "time": 902.099999999971,
                    "velocity": 0.6929133858267716,
                    "duration": 0.2999999999999545
                },
                {
                    "name": "D#6",
                    "midi": 87,
                    "time": 902.099999999971,
                    "velocity": 0.6929133858267716,
                    "duration": 0.2999999999999545
                },
                {
                    "name": "G#5",
                    "midi": 80,
                    "time": 902.399999999971,
                    "velocity": 0.6929133858267716,
                    "duration": 0.2999999999999545
                },
                {
                    "name": "E6",
                    "midi": 88,
                    "time": 902.399999999971,
                    "velocity": 0.6929133858267716,
                    "duration": 0.2999999999999545
                },
                {
                    "name": "C6",
                    "midi": 84,
                    "time": 902.6999999999709,
                    "velocity": 0.6929133858267716,
                    "duration": 0.2999999999999545
                },
                {
                    "name": "D#6",
                    "midi": 87,
                    "time": 902.6999999999709,
                    "velocity": 0.6929133858267716,
                    "duration": 0.2999999999999545
                },
                {
                    "name": "G#5",
                    "midi": 80,
                    "time": 902.9999999999709,
                    "velocity": 0.6929133858267716,
                    "duration": 0.2999999999999545
                },
                {
                    "name": "E6",
                    "midi": 88,
                    "time": 902.9999999999709,
                    "velocity": 0.6929133858267716,
                    "duration": 0.2999999999999545
                },
                {
                    "name": "C6",
                    "midi": 84,
                    "time": 903.2999999999709,
                    "velocity": 0.6929133858267716,
                    "duration": 0.2999999999999545
                },
                {
                    "name": "D#6",
                    "midi": 87,
                    "time": 903.2999999999709,
                    "velocity": 0.6929133858267716,
                    "duration": 0.2999999999999545
                },
                {
                    "name": "G#5",
                    "midi": 80,
                    "time": 903.5999999999708,
                    "velocity": 0.6929133858267716,
                    "duration": 0.2999999999999545
                },
                {
                    "name": "E6",
                    "midi": 88,
                    "time": 903.5999999999708,
                    "velocity": 0.6929133858267716,
                    "duration": 0.2999999999999545
                },
                {
                    "name": "C6",
                    "midi": 84,
                    "time": 903.8999999999708,
                    "velocity": 0.6929133858267716,
                    "duration": 0.2999999999999545
                },
                {
                    "name": "D#6",
                    "midi": 87,
                    "time": 903.8999999999708,
                    "velocity": 0.6929133858267716,
                    "duration": 0.2999999999999545
                },
                {
                    "name": "G#5",
                    "midi": 80,
                    "time": 904.1999999999707,
                    "velocity": 0.6929133858267716,
                    "duration": 0.2999999999999545
                },
                {
                    "name": "E6",
                    "midi": 88,
                    "time": 904.1999999999707,
                    "velocity": 0.6929133858267716,
                    "duration": 0.2999999999999545
                },
                {
                    "name": "C6",
                    "midi": 84,
                    "time": 904.4999999999707,
                    "velocity": 0.6929133858267716,
                    "duration": 0.2999999999999545
                },
                {
                    "name": "D#6",
                    "midi": 87,
                    "time": 904.4999999999707,
                    "velocity": 0.6929133858267716,
                    "duration": 0.2999999999999545
                },
                {
                    "name": "G#5",
                    "midi": 80,
                    "time": 904.7999999999706,
                    "velocity": 0.6929133858267716,
                    "duration": 0.2999999999999545
                },
                {
                    "name": "E6",
                    "midi": 88,
                    "time": 904.7999999999706,
                    "velocity": 0.6929133858267716,
                    "duration": 0.2999999999999545
                },
                {
                    "name": "C6",
                    "midi": 84,
                    "time": 905.0999999999706,
                    "velocity": 0.6929133858267716,
                    "duration": 0.2999999999999545
                },
                {
                    "name": "D#6",
                    "midi": 87,
                    "time": 905.0999999999706,
                    "velocity": 0.6929133858267716,
                    "duration": 0.2999999999999545
                },
                {
                    "name": "G#5",
                    "midi": 80,
                    "time": 905.3999999999705,
                    "velocity": 0.6929133858267716,
                    "duration": 0.2999999999999545
                },
                {
                    "name": "E6",
                    "midi": 88,
                    "time": 905.3999999999705,
                    "velocity": 0.6929133858267716,
                    "duration": 0.2999999999999545
                },
                {
                    "name": "C6",
                    "midi": 84,
                    "time": 905.6999999999705,
                    "velocity": 0.6929133858267716,
                    "duration": 0.2999999999999545
                },
                {
                    "name": "D#6",
                    "midi": 87,
                    "time": 905.6999999999705,
                    "velocity": 0.6929133858267716,
                    "duration": 0.2999999999999545
                },
                {
                    "name": "E5",
                    "midi": 76,
                    "time": 905.9999999999704,
                    "velocity": 0.8976377952755905,
                    "duration": 1.2000000000000455
                },
                {
                    "name": "F5",
                    "midi": 77,
                    "time": 905.9999999999704,
                    "velocity": 0.8976377952755905,
                    "duration": 1.2000000000000455
                },
                {
                    "name": "G#5",
                    "midi": 80,
                    "time": 905.9999999999704,
                    "velocity": 0.8976377952755905,
                    "duration": 1.2000000000000455
                },
                {
                    "name": "C6",
                    "midi": 84,
                    "time": 905.9999999999704,
                    "velocity": 0.8976377952755905,
                    "duration": 1.2000000000000455
                },
                {
                    "name": "E6",
                    "midi": 88,
                    "time": 905.9999999999704,
                    "velocity": 0.8976377952755905,
                    "duration": 1.2000000000000455
                }
            ],
            "controlChanges": {
                "7": [
                    {
                        "number": 7,
                        "time": 0,
                        "value": 1
                    }
                ],
                "10": [
                    {
                        "number": 10,
                        "time": 0,
                        "value": 0.7637795275590551
                    }
                ],
                "64": [
                    {
                        "number": 64,
                        "time": 0,
                        "value": 1
                    },
                    {
                        "number": 64,
                        "time": 3.8249999999999997,
                        "value": 0
                    },
                    {
                        "number": 64,
                        "time": 4.2749999999999995,
                        "value": 1
                    },
                    {
                        "number": 64,
                        "time": 7.799999999999999,
                        "value": 0
                    },
                    {
                        "number": 64,
                        "time": 10.799999999999995,
                        "value": 1
                    },
                    {
                        "number": 64,
                        "time": 13.649999999999997,
                        "value": 0
                    },
                    {
                        "number": 64,
                        "time": 13.799999999999997,
                        "value": 1
                    },
                    {
                        "number": 64,
                        "time": 16.34999999999999,
                        "value": 0
                    },
                    {
                        "number": 64,
                        "time": 26.399999999999984,
                        "value": 1
                    },
                    {
                        "number": 64,
                        "time": 28.19999999999999,
                        "value": 0
                    },
                    {
                        "number": 64,
                        "time": 31.19999999999999,
                        "value": 1
                    },
                    {
                        "number": 64,
                        "time": 32.84999999999998,
                        "value": 1
                    },
                    {
                        "number": 64,
                        "time": 41.999999999999986,
                        "value": 0
                    },
                    {
                        "number": 64,
                        "time": 44.39999999999999,
                        "value": 1
                    },
                    {
                        "number": 64,
                        "time": 47.399999999999984,
                        "value": 0
                    },
                    {
                        "number": 64,
                        "time": 110.40000000000019,
                        "value": 1
                    },
                    {
                        "number": 64,
                        "time": 111.46500000000017,
                        "value": 0
                    },
                    {
                        "number": 64,
                        "time": 120.0000000000002,
                        "value": 0
                    },
                    {
                        "number": 64,
                        "time": 124.80000000000021,
                        "value": 0
                    },
                    {
                        "number": 64,
                        "time": 127.20000000000022,
                        "value": 0
                    },
                    {
                        "number": 64,
                        "time": 156.00000000000026,
                        "value": 1
                    },
                    {
                        "number": 64,
                        "time": 157.0500000000003,
                        "value": 0
                    },
                    {
                        "number": 64,
                        "time": 157.8750000000003,
                        "value": 1
                    },
                    {
                        "number": 64,
                        "time": 158.40000000000023,
                        "value": 0
                    },
                    {
                        "number": 64,
                        "time": 162.60000000000025,
                        "value": 1
                    },
                    {
                        "number": 64,
                        "time": 163.20000000000027,
                        "value": 0
                    },
                    {
                        "number": 64,
                        "time": 184.80000000000013,
                        "value": 1
                    },
                    {
                        "number": 64,
                        "time": 189.22500000000014,
                        "value": 0
                    },
                    {
                        "number": 64,
                        "time": 192.22500000000008,
                        "value": 1
                    },
                    {
                        "number": 64,
                        "time": 193.8000000000001,
                        "value": 0
                    },
                    {
                        "number": 64,
                        "time": 205.20000000000041,
                        "value": 1
                    },
                    {
                        "number": 64,
                        "time": 206.19750000000036,
                        "value": 0
                    },
                    {
                        "number": 64,
                        "time": 280.7999999999996,
                        "value": 1
                    },
                    {
                        "number": 64,
                        "time": 282.9974999999995,
                        "value": 0
                    },
                    {
                        "number": 64,
                        "time": 288.59999999999974,
                        "value": 1
                    },
                    {
                        "number": 64,
                        "time": 290.19749999999965,
                        "value": 0
                    },
                    {
                        "number": 64,
                        "time": 290.39999999999964,
                        "value": 1
                    },
                    {
                        "number": 64,
                        "time": 292.5974999999995,
                        "value": 0
                    },
                    {
                        "number": 64,
                        "time": 292.7999999999995,
                        "value": 1
                    },
                    {
                        "number": 64,
                        "time": 294.9974999999994,
                        "value": 0
                    },
                    {
                        "number": 64,
                        "time": 295.19999999999936,
                        "value": 1
                    },
                    {
                        "number": 64,
                        "time": 296.1974999999993,
                        "value": 0
                    },
                    {
                        "number": 64,
                        "time": 391.7999999999984,
                        "value": 1
                    },
                    {
                        "number": 64,
                        "time": 392.39999999999833,
                        "value": 0
                    },
                    {
                        "number": 64,
                        "time": 393.79999999999825,
                        "value": 1
                    },
                    {
                        "number": 64,
                        "time": 394.5974999999982,
                        "value": 0
                    },
                    {
                        "number": 64,
                        "time": 394.7999999999982,
                        "value": 1
                    },
                    {
                        "number": 64,
                        "time": 404.84999999999667,
                        "value": 0
                    },
                    {
                        "number": 64,
                        "time": 417.5999999999969,
                        "value": 1
                    },
                    {
                        "number": 64,
                        "time": 421.6499999999963,
                        "value": 0
                    },
                    {
                        "number": 64,
                        "time": 422.3999999999962,
                        "value": 1
                    },
                    {
                        "number": 64,
                        "time": 424.4999999999959,
                        "value": 0
                    },
                    {
                        "number": 64,
                        "time": 431.99999999999613,
                        "value": 1
                    },
                    {
                        "number": 64,
                        "time": 433.7999999999962,
                        "value": 0
                    },
                    {
                        "number": 64,
                        "time": 434.3999999999962,
                        "value": 1
                    },
                    {
                        "number": 64,
                        "time": 436.7999999999963,
                        "value": 0
                    },
                    {
                        "number": 64,
                        "time": 441.59999999999627,
                        "value": 1
                    },
                    {
                        "number": 64,
                        "time": 446.09999999999644,
                        "value": 0
                    },
                    {
                        "number": 64,
                        "time": 475.1999999999966,
                        "value": 1
                    },
                    {
                        "number": 64,
                        "time": 479.39999999999674,
                        "value": 0
                    },
                    {
                        "number": 64,
                        "time": 486.5999999999967,
                        "value": 1
                    },
                    {
                        "number": 64,
                        "time": 488.9999999999968,
                        "value": 0
                    },
                    {
                        "number": 64,
                        "time": 490.19999999999686,
                        "value": 1
                    },
                    {
                        "number": 64,
                        "time": 493.199999999997,
                        "value": 0
                    },
                    {
                        "number": 64,
                        "time": 536.399999999995,
                        "value": 1
                    },
                    {
                        "number": 64,
                        "time": 537.2999999999948,
                        "value": 0
                    },
                    {
                        "number": 64,
                        "time": 559.1999999999937,
                        "value": 1
                    },
                    {
                        "number": 64,
                        "time": 563.3999999999935,
                        "value": 0
                    },
                    {
                        "number": 64,
                        "time": 571.1999999999924,
                        "value": 1
                    },
                    {
                        "number": 64,
                        "time": 573.2999999999923,
                        "value": 0
                    },
                    {
                        "number": 64,
                        "time": 587.9999999999912,
                        "value": 1
                    },
                    {
                        "number": 64,
                        "time": 592.1999999999912,
                        "value": 0
                    },
                    {
                        "number": 64,
                        "time": 592.7999999999912,
                        "value": 1
                    },
                    {
                        "number": 64,
                        "time": 597.2999999999912,
                        "value": 0
                    },
                    {
                        "number": 64,
                        "time": 597.5999999999912,
                        "value": 1
                    },
                    {
                        "number": 64,
                        "time": 601.7999999999912,
                        "value": 0
                    },
                    {
                        "number": 64,
                        "time": 602.3999999999912,
                        "value": 1
                    },
                    {
                        "number": 64,
                        "time": 606.8999999999911,
                        "value": 0
                    },
                    {
                        "number": 64,
                        "time": 662.9999999999889,
                        "value": 1
                    },
                    {
                        "number": 64,
                        "time": 666.2399999999888,
                        "value": 0
                    },
                    {
                        "number": 64,
                        "time": 666.5999999999888,
                        "value": 1
                    },
                    {
                        "number": 64,
                        "time": 669.8399999999887,
                        "value": 0
                    },
                    {
                        "number": 64,
                        "time": 670.1999999999887,
                        "value": 1
                    },
                    {
                        "number": 64,
                        "time": 673.4399999999886,
                        "value": 0
                    },
                    {
                        "number": 64,
                        "time": 673.7999999999886,
                        "value": 1
                    },
                    {
                        "number": 64,
                        "time": 677.0999999999881,
                        "value": 0
                    },
                    {
                        "number": 64,
                        "time": 677.399999999988,
                        "value": 1
                    },
                    {
                        "number": 64,
                        "time": 678.8999999999878,
                        "value": 0
                    },
                    {
                        "number": 64,
                        "time": 684.5999999999871,
                        "value": 1
                    },
                    {
                        "number": 64,
                        "time": 687.8999999999866,
                        "value": 0
                    },
                    {
                        "number": 64,
                        "time": 722.3999999999852,
                        "value": 1
                    },
                    {
                        "number": 64,
                        "time": 725.6399999999851,
                        "value": 0
                    },
                    {
                        "number": 64,
                        "time": 725.9999999999851,
                        "value": 1
                    },
                    {
                        "number": 64,
                        "time": 729.239999999985,
                        "value": 0
                    },
                    {
                        "number": 64,
                        "time": 729.599999999985,
                        "value": 1
                    },
                    {
                        "number": 64,
                        "time": 732.8999999999845,
                        "value": 0
                    },
                    {
                        "number": 64,
                        "time": 733.1999999999845,
                        "value": 1
                    },
                    {
                        "number": 64,
                        "time": 734.6999999999842,
                        "value": 0
                    },
                    {
                        "number": 64,
                        "time": 745.7999999999846,
                        "value": 1
                    },
                    {
                        "number": 64,
                        "time": 749.2174999999845,
                        "value": 0
                    },
                    {
                        "number": 64,
                        "time": 749.3999999999845,
                        "value": 1
                    },
                    {
                        "number": 64,
                        "time": 752.8174999999844,
                        "value": 0
                    },
                    {
                        "number": 64,
                        "time": 752.9999999999844,
                        "value": 1
                    },
                    {
                        "number": 64,
                        "time": 756.4174999999843,
                        "value": 0
                    },
                    {
                        "number": 64,
                        "time": 756.5999999999843,
                        "value": 1
                    },
                    {
                        "number": 64,
                        "time": 760.0174999999842,
                        "value": 0
                    },
                    {
                        "number": 64,
                        "time": 760.1999999999842,
                        "value": 1
                    },
                    {
                        "number": 64,
                        "time": 763.6174999999841,
                        "value": 0
                    },
                    {
                        "number": 64,
                        "time": 763.7999999999842,
                        "value": 1
                    },
                    {
                        "number": 64,
                        "time": 767.217499999984,
                        "value": 0
                    },
                    {
                        "number": 64,
                        "time": 795.5999999999851,
                        "value": 1
                    },
                    {
                        "number": 64,
                        "time": 797.0999999999849,
                        "value": 0
                    },
                    {
                        "number": 64,
                        "time": 797.3999999999849,
                        "value": 1
                    },
                    {
                        "number": 64,
                        "time": 800.6999999999844,
                        "value": 0
                    },
                    {
                        "number": 64,
                        "time": 800.9999999999843,
                        "value": 1
                    },
                    {
                        "number": 64,
                        "time": 803.9999999999839,
                        "value": 0
                    },
                    {
                        "number": 64,
                        "time": 804.5999999999838,
                        "value": 1
                    },
                    {
                        "number": 64,
                        "time": 807.8999999999833,
                        "value": 0
                    },
                    {
                        "number": 64,
                        "time": 808.1999999999832,
                        "value": 1
                    },
                    {
                        "number": 64,
                        "time": 811.1999999999828,
                        "value": 0
                    },
                    {
                        "number": 64,
                        "time": 820.7999999999813,
                        "value": 1
                    },
                    {
                        "number": 64,
                        "time": 822.4499999999812,
                        "value": 0
                    },
                    {
                        "number": 64,
                        "time": 896.3999999999719,
                        "value": 1
                    },
                    {
                        "number": 64,
                        "time": 905.6999999999705,
                        "value": 0
                    },
                    {
                        "number": 64,
                        "time": 907.1999999999705,
                        "value": 1
                    },
                    {
                        "number": 64,
                        "time": 911.9999999999704,
                        "value": 0
                    }
                ]
            },
            "id": 1,
            "name": "Grand Piano",
            "instrumentNumber": 0,
            "instrument": "acoustic grand piano",
            "instrumentFamily": "piano",
            "channelNumber": 0,
            "isPercussion": false
        },
        {
            "startTime": 17.08,
            "duration": 767.39999999998,
            "length": 1961,
            "notes": [
                {
                    "name": "C5",
                    "midi": 72,
                    "time": 17.08,
                    "velocity": 0.3858267716535433,
                    "duration": 0.07499999999999929
                },
                {
                    "name": "F#4",
                    "midi": 66,
                    "time": 17.999999999999996,
                    "velocity": 0.3858267716535433,
                    "duration": 0.3000000000000007
                },
                {
                    "name": "C5",
                    "midi": 72,
                    "time": 18.299999999999997,
                    "velocity": 0.3858267716535433,
                    "duration": 2.1000000000000014
                },
                {
                    "name": "F#4",
                    "midi": 66,
                    "time": 21.13,
                    "velocity": 0.3858267716535433,
                    "duration": 0.07499999999999929
                },
                {
                    "name": "E4",
                    "midi": 64,
                    "time": 21.917499999999997,
                    "velocity": 0.3858267716535433,
                    "duration": 0.07499999999999929
                },
                {
                    "name": "C#4",
                    "midi": 61,
                    "time": 34.8,
                    "velocity": 0.3858267716535433,
                    "duration": 0.6000000000000014
                },
                {
                    "name": "F#4",
                    "midi": 66,
                    "time": 35.4,
                    "velocity": 0.3858267716535433,
                    "duration": 0.45000000000000284
                },
                {
                    "name": "C#4",
                    "midi": 61,
                    "time": 35.85,
                    "velocity": 0.3858267716535433,
                    "duration": 0.07500000000000284
                },
                {
                    "name": "F#4",
                    "midi": 66,
                    "time": 35.925000000000004,
                    "velocity": 0.3858267716535433,
                    "duration": 0.07500000000000284
                },
                {
                    "name": "D#4",
                    "midi": 63,
                    "time": 36.00000000000001,
                    "velocity": 0.3858267716535433,
                    "duration": 0.39750000000000085
                },
                {
                    "name": "C#4",
                    "midi": 61,
                    "time": 36.39750000000001,
                    "velocity": 0.3858267716535433,
                    "duration": 0.4025000000000034
                },
                {
                    "name": "F#4",
                    "midi": 66,
                    "time": 36.80000000000001,
                    "velocity": 0.3858267716535433,
                    "duration": 0.3999999999999986
                },
                {
                    "name": "C#4",
                    "midi": 61,
                    "time": 37.20000000000001,
                    "velocity": 0.3858267716535433,
                    "duration": 0.07500000000000284
                },
                {
                    "name": "F#4",
                    "midi": 66,
                    "time": 37.27500000000001,
                    "velocity": 0.3858267716535433,
                    "duration": 0.07500000000000284
                },
                {
                    "name": "D#4",
                    "midi": 63,
                    "time": 37.350000000000016,
                    "velocity": 0.3858267716535433,
                    "duration": 0.39750000000000085
                },
                {
                    "name": "C#4",
                    "midi": 61,
                    "time": 37.74750000000002,
                    "velocity": 0.3858267716535433,
                    "duration": 0.4025000000000034
                },
                {
                    "name": "F#4",
                    "midi": 66,
                    "time": 38.15000000000002,
                    "velocity": 0.3858267716535433,
                    "duration": 0.625
                },
                {
                    "name": "G#4",
                    "midi": 68,
                    "time": 38.77500000000002,
                    "velocity": 0.3858267716535433,
                    "duration": 0.22500000000000142
                },
                {
                    "name": "D#4",
                    "midi": 63,
                    "time": 39.00000000000002,
                    "velocity": 0.3858267716535433,
                    "duration": 0.20000000000000284
                },
                {
                    "name": "F#4",
                    "midi": 66,
                    "time": 39.200000000000024,
                    "velocity": 0.3858267716535433,
                    "duration": 0.197499999999998
                },
                {
                    "name": "C#4",
                    "midi": 61,
                    "time": 39.39750000000002,
                    "velocity": 0.3858267716535433,
                    "duration": 0.20250000000000057
                },
                {
                    "name": "D#4",
                    "midi": 63,
                    "time": 39.60000000000002,
                    "velocity": 0.3858267716535433,
                    "duration": 3.6000000000000014
                },
                {
                    "name": "C#4",
                    "midi": 61,
                    "time": 49.050000000000026,
                    "velocity": 0.3858267716535433,
                    "duration": 0.07500000000000284
                },
                {
                    "name": "F#4",
                    "midi": 66,
                    "time": 49.12500000000003,
                    "velocity": 0.3858267716535433,
                    "duration": 0.07500000000000284
                },
                {
                    "name": "A4",
                    "midi": 69,
                    "time": 49.95000000000003,
                    "velocity": 0.3858267716535433,
                    "duration": 0.07500000000000284
                },
                {
                    "name": "A4",
                    "midi": 69,
                    "time": 50.680000000000035,
                    "velocity": 0.3858267716535433,
                    "duration": 0.14999999999999858
                },
                {
                    "name": "C#4",
                    "midi": 61,
                    "time": 52.25500000000003,
                    "velocity": 0.3858267716535433,
                    "duration": 0.07500000000000284
                },
                {
                    "name": "F#4",
                    "midi": 66,
                    "time": 52.330000000000034,
                    "velocity": 0.3858267716535433,
                    "duration": 0.07500000000000284
                },
                {
                    "name": "C#4",
                    "midi": 61,
                    "time": 53.025000000000034,
                    "velocity": 0.3858267716535433,
                    "duration": 0.07500000000000284
                },
                {
                    "name": "F#4",
                    "midi": 66,
                    "time": 53.10000000000004,
                    "velocity": 0.3858267716535433,
                    "duration": 0.07500000000000284
                },
                {
                    "name": "C#4",
                    "midi": 61,
                    "time": 56.81250000000004,
                    "velocity": 0.3858267716535433,
                    "duration": 0.07500000000000284
                },
                {
                    "name": "F#4",
                    "midi": 66,
                    "time": 56.887500000000045,
                    "velocity": 0.3858267716535433,
                    "duration": 0.07500000000000284
                },
                {
                    "name": "D#4",
                    "midi": 63,
                    "time": 63.60000000000005,
                    "velocity": 0.4881889763779528,
                    "duration": 0.29999999999999716
                },
                {
                    "name": "G#3",
                    "midi": 56,
                    "time": 63.90000000000005,
                    "velocity": 0.4881889763779528,
                    "duration": 0.05749999999999744
                },
                {
                    "name": "D#4",
                    "midi": 63,
                    "time": 64.20000000000005,
                    "velocity": 0.4881889763779528,
                    "duration": 0.05750000000000455
                },
                {
                    "name": "A#4",
                    "midi": 70,
                    "time": 64.50000000000006,
                    "velocity": 0.4881889763779528,
                    "duration": 0.05750000000000455
                },
                {
                    "name": "D#5",
                    "midi": 75,
                    "time": 64.80000000000007,
                    "velocity": 0.4881889763779528,
                    "duration": 0.39749999999999375
                },
                {
                    "name": "D#5",
                    "midi": 75,
                    "time": 65.19750000000006,
                    "velocity": 0.4881889763779528,
                    "duration": 0.20250000000000057
                },
                {
                    "name": "D#5",
                    "midi": 75,
                    "time": 65.40000000000006,
                    "velocity": 0.4881889763779528,
                    "duration": 0.20000000000000284
                },
                {
                    "name": "D#5",
                    "midi": 75,
                    "time": 65.60000000000007,
                    "velocity": 0.4881889763779528,
                    "duration": 0.19750000000000512
                },
                {
                    "name": "D#5",
                    "midi": 75,
                    "time": 65.79750000000007,
                    "velocity": 0.4881889763779528,
                    "duration": 0.20250000000000057
                },
                {
                    "name": "D#5",
                    "midi": 75,
                    "time": 66.00000000000007,
                    "velocity": 0.4881889763779528,
                    "duration": 0.39749999999999375
                },
                {
                    "name": "D#5",
                    "midi": 75,
                    "time": 66.39750000000006,
                    "velocity": 0.4881889763779528,
                    "duration": 0.20250000000000057
                },
                {
                    "name": "D#5",
                    "midi": 75,
                    "time": 66.60000000000007,
                    "velocity": 0.4881889763779528,
                    "duration": 0.20000000000000284
                },
                {
                    "name": "D#5",
                    "midi": 75,
                    "time": 66.80000000000007,
                    "velocity": 0.4881889763779528,
                    "duration": 0.19750000000000512
                },
                {
                    "name": "D#5",
                    "midi": 75,
                    "time": 66.99750000000007,
                    "velocity": 0.4881889763779528,
                    "duration": 0.20250000000000057
                },
                {
                    "name": "D#5",
                    "midi": 75,
                    "time": 67.20000000000007,
                    "velocity": 0.4881889763779528,
                    "duration": 0.5999999999999943
                },
                {
                    "name": "A#5",
                    "midi": 82,
                    "time": 67.95000000000007,
                    "velocity": 0.4881889763779528,
                    "duration": 0.07500000000000284
                },
                {
                    "name": "A#5",
                    "midi": 82,
                    "time": 68.70000000000007,
                    "velocity": 0.4881889763779528,
                    "duration": 0.15000000000000568
                },
                {
                    "name": "A#5",
                    "midi": 82,
                    "time": 71.47500000000008,
                    "velocity": 0.4881889763779528,
                    "duration": 0.07500000000000284
                },
                {
                    "name": "A#5",
                    "midi": 82,
                    "time": 72.30000000000008,
                    "velocity": 0.4881889763779528,
                    "duration": 0.07500000000000284
                },
                {
                    "name": "D#5",
                    "midi": 75,
                    "time": 74.40000000000009,
                    "velocity": 0.4881889763779528,
                    "duration": 0.39749999999999375
                },
                {
                    "name": "D#5",
                    "midi": 75,
                    "time": 74.79750000000008,
                    "velocity": 0.4881889763779528,
                    "duration": 0.20250000000000057
                },
                {
                    "name": "D#5",
                    "midi": 75,
                    "time": 75.00000000000009,
                    "velocity": 0.4881889763779528,
                    "duration": 0.20000000000000284
                },
                {
                    "name": "D#5",
                    "midi": 75,
                    "time": 75.20000000000009,
                    "velocity": 0.4881889763779528,
                    "duration": 0.19750000000000512
                },
                {
                    "name": "D#5",
                    "midi": 75,
                    "time": 75.3975000000001,
                    "velocity": 0.4881889763779528,
                    "duration": 0.20250000000000057
                },
                {
                    "name": "D#5",
                    "midi": 75,
                    "time": 75.6000000000001,
                    "velocity": 0.4881889763779528,
                    "duration": 2.4000000000000057
                },
                {
                    "name": "E4",
                    "midi": 64,
                    "time": 79.8000000000001,
                    "velocity": 0.4881889763779528,
                    "duration": 2.4000000000000057
                },
                {
                    "name": "F4",
                    "midi": 65,
                    "time": 82.2000000000001,
                    "velocity": 0.4881889763779528,
                    "duration": 1.2000000000000028
                },
                {
                    "name": "E4",
                    "midi": 64,
                    "time": 83.4000000000001,
                    "velocity": 0.4881889763779528,
                    "duration": 0.45000000000000284
                },
                {
                    "name": "G#5",
                    "midi": 80,
                    "time": 83.85000000000011,
                    "velocity": 0.4881889763779528,
                    "duration": 0.07500000000000284
                },
                {
                    "name": "F4",
                    "midi": 65,
                    "time": 84.5250000000001,
                    "velocity": 0.4881889763779528,
                    "duration": 0.5999999999999943
                },
                {
                    "name": "F4",
                    "midi": 65,
                    "time": 85.2000000000001,
                    "velocity": 0.4881889763779528,
                    "duration": 0.5999999999999943
                },
                {
                    "name": "A#4",
                    "midi": 70,
                    "time": 85.8000000000001,
                    "velocity": 0.4881889763779528,
                    "duration": 0.5250000000000057
                },
                {
                    "name": "A#4",
                    "midi": 70,
                    "time": 86.3250000000001,
                    "velocity": 0.4881889763779528,
                    "duration": 0.07500000000000284
                },
                {
                    "name": "G4",
                    "midi": 67,
                    "time": 86.4000000000001,
                    "velocity": 0.4881889763779528,
                    "duration": 1.2000000000000028
                },
                {
                    "name": "F4",
                    "midi": 65,
                    "time": 88.2750000000001,
                    "velocity": 0.4881889763779528,
                    "duration": 0.07500000000000284
                },
                {
                    "name": "A#4",
                    "midi": 70,
                    "time": 88.35000000000011,
                    "velocity": 0.4881889763779528,
                    "duration": 0.07500000000000284
                },
                {
                    "name": "B3",
                    "midi": 59,
                    "time": 91.20000000000012,
                    "velocity": 0.4881889763779528,
                    "duration": 1.2000000000000028
                },
                {
                    "name": "A4",
                    "midi": 69,
                    "time": 94.35000000000012,
                    "velocity": 0.3858267716535433,
                    "duration": 0.07500000000000284
                },
                {
                    "name": "A4",
                    "midi": 69,
                    "time": 95.10000000000012,
                    "velocity": 0.3858267716535433,
                    "duration": 0.07500000000000284
                },
                {
                    "name": "A4",
                    "midi": 69,
                    "time": 96.75000000000013,
                    "velocity": 0.3858267716535433,
                    "duration": 0.07500000000000284
                },
                {
                    "name": "A4",
                    "midi": 69,
                    "time": 97.50000000000013,
                    "velocity": 0.3858267716535433,
                    "duration": 0.07500000000000284
                },
                {
                    "name": "A4",
                    "midi": 69,
                    "time": 99.15000000000013,
                    "velocity": 0.3858267716535433,
                    "duration": 0.07500000000000284
                },
                {
                    "name": "F4",
                    "midi": 65,
                    "time": 100.80000000000014,
                    "velocity": 0.3858267716535433,
                    "duration": 1.7249999999999943
                },
                {
                    "name": "A4",
                    "midi": 69,
                    "time": 102.52500000000013,
                    "velocity": 0.3858267716535433,
                    "duration": 0.07500000000000284
                },
                {
                    "name": "G4",
                    "midi": 67,
                    "time": 102.60000000000014,
                    "velocity": 0.3858267716535433,
                    "duration": 0.5999999999999943
                },
                {
                    "name": "F4",
                    "midi": 65,
                    "time": 103.20000000000013,
                    "velocity": 0.3858267716535433,
                    "duration": 0.39749999999999375
                },
                {
                    "name": "G4",
                    "midi": 67,
                    "time": 103.59750000000012,
                    "velocity": 0.3858267716535433,
                    "duration": 0.4025000000000034
                },
                {
                    "name": "F#4",
                    "midi": 66,
                    "time": 104.00000000000013,
                    "velocity": 0.3858267716535433,
                    "duration": 0.7974999999999994
                },
                {
                    "name": "G4",
                    "midi": 67,
                    "time": 104.79750000000013,
                    "velocity": 0.3858267716535433,
                    "duration": 0.4025000000000034
                },
                {
                    "name": "F4",
                    "midi": 65,
                    "time": 105.20000000000013,
                    "velocity": 0.3858267716535433,
                    "duration": 0.7974999999999994
                },
                {
                    "name": "G4",
                    "midi": 67,
                    "time": 105.99750000000013,
                    "velocity": 0.3858267716535433,
                    "duration": 0.4025000000000034
                },
                {
                    "name": "F#4",
                    "midi": 66,
                    "time": 106.40000000000013,
                    "velocity": 0.3858267716535433,
                    "duration": 0.7974999999999994
                },
                {
                    "name": "G4",
                    "midi": 67,
                    "time": 107.19750000000013,
                    "velocity": 0.3858267716535433,
                    "duration": 0.4025000000000034
                },
                {
                    "name": "F4",
                    "midi": 65,
                    "time": 107.60000000000014,
                    "velocity": 0.3858267716535433,
                    "duration": 0.4000000000000057
                },
                {
                    "name": "F4",
                    "midi": 65,
                    "time": 108.00000000000014,
                    "velocity": 0.3858267716535433,
                    "duration": 0.39749999999999375
                },
                {
                    "name": "G4",
                    "midi": 67,
                    "time": 108.39750000000014,
                    "velocity": 0.3858267716535433,
                    "duration": 0.4025000000000034
                },
                {
                    "name": "F#4",
                    "midi": 66,
                    "time": 108.80000000000014,
                    "velocity": 0.3858267716535433,
                    "duration": 1.5999999999999943
                },
                {
                    "name": "A#4",
                    "midi": 70,
                    "time": 111.60000000000014,
                    "velocity": 0.4881889763779528,
                    "duration": 0.39749999999999375
                },
                {
                    "name": "A#4",
                    "midi": 70,
                    "time": 111.99750000000013,
                    "velocity": 0.4881889763779528,
                    "duration": 0.20250000000000057
                },
                {
                    "name": "A#4",
                    "midi": 70,
                    "time": 112.20000000000013,
                    "velocity": 0.4881889763779528,
                    "duration": 0.20000000000000284
                },
                {
                    "name": "A#4",
                    "midi": 70,
                    "time": 112.40000000000013,
                    "velocity": 0.4881889763779528,
                    "duration": 0.19750000000000512
                },
                {
                    "name": "A#4",
                    "midi": 70,
                    "time": 112.59750000000014,
                    "velocity": 0.4881889763779528,
                    "duration": 0.20250000000000057
                },
                {
                    "name": "A#4",
                    "midi": 70,
                    "time": 112.80000000000014,
                    "velocity": 0.4881889763779528,
                    "duration": 0.39749999999999375
                },
                {
                    "name": "A#4",
                    "midi": 70,
                    "time": 113.19750000000013,
                    "velocity": 0.4881889763779528,
                    "duration": 0.20250000000000057
                },
                {
                    "name": "A#4",
                    "midi": 70,
                    "time": 113.40000000000013,
                    "velocity": 0.4881889763779528,
                    "duration": 0.20000000000000284
                },
                {
                    "name": "A#4",
                    "midi": 70,
                    "time": 113.60000000000014,
                    "velocity": 0.4881889763779528,
                    "duration": 0.19750000000000512
                },
                {
                    "name": "A#4",
                    "midi": 70,
                    "time": 113.79750000000014,
                    "velocity": 0.4881889763779528,
                    "duration": 0.20250000000000057
                },
                {
                    "name": "F5",
                    "midi": 77,
                    "time": 114.75000000000014,
                    "velocity": 0.4881889763779528,
                    "duration": 0.07500000000000284
                },
                {
                    "name": "F5",
                    "midi": 77,
                    "time": 115.50000000000014,
                    "velocity": 0.4881889763779528,
                    "duration": 0.07500000000000284
                },
                {
                    "name": "F5",
                    "midi": 77,
                    "time": 117.15000000000015,
                    "velocity": 0.4881889763779528,
                    "duration": 0.07500000000000284
                },
                {
                    "name": "F5",
                    "midi": 77,
                    "time": 117.90000000000015,
                    "velocity": 0.4881889763779528,
                    "duration": 0.07500000000000284
                },
                {
                    "name": "B3",
                    "midi": 59,
                    "time": 118.80000000000015,
                    "velocity": 0.3858267716535433,
                    "duration": 0.29999999999999716
                },
                {
                    "name": "C#4",
                    "midi": 61,
                    "time": 119.10000000000015,
                    "velocity": 0.3858267716535433,
                    "duration": 0.29999999999999716
                },
                {
                    "name": "B3",
                    "midi": 59,
                    "time": 119.40000000000015,
                    "velocity": 0.3858267716535433,
                    "duration": 0.29999999999999716
                },
                {
                    "name": "C#4",
                    "midi": 61,
                    "time": 119.70000000000014,
                    "velocity": 0.3858267716535433,
                    "duration": 0.29999999999999716
                },
                {
                    "name": "B3",
                    "midi": 59,
                    "time": 120.00000000000014,
                    "velocity": 0.3858267716535433,
                    "duration": 0.29999999999999716
                },
                {
                    "name": "C#4",
                    "midi": 61,
                    "time": 120.30000000000014,
                    "velocity": 0.3858267716535433,
                    "duration": 0.29999999999999716
                },
                {
                    "name": "B3",
                    "midi": 59,
                    "time": 120.60000000000014,
                    "velocity": 0.3858267716535433,
                    "duration": 0.29999999999999716
                },
                {
                    "name": "C#4",
                    "midi": 61,
                    "time": 120.90000000000013,
                    "velocity": 0.3858267716535433,
                    "duration": 0.29999999999999716
                },
                {
                    "name": "F5",
                    "midi": 77,
                    "time": 121.95000000000013,
                    "velocity": 0.3858267716535433,
                    "duration": 0.07500000000000284
                },
                {
                    "name": "F5",
                    "midi": 77,
                    "time": 122.70000000000013,
                    "velocity": 0.3858267716535433,
                    "duration": 0.07500000000000284
                },
                {
                    "name": "B3",
                    "midi": 59,
                    "time": 123.60000000000014,
                    "velocity": 0.3858267716535433,
                    "duration": 0.29999999999999716
                },
                {
                    "name": "C#4",
                    "midi": 61,
                    "time": 123.90000000000013,
                    "velocity": 0.3858267716535433,
                    "duration": 0.29999999999999716
                },
                {
                    "name": "B3",
                    "midi": 59,
                    "time": 124.20000000000013,
                    "velocity": 0.3858267716535433,
                    "duration": 0.29999999999999716
                },
                {
                    "name": "C#4",
                    "midi": 61,
                    "time": 124.50000000000013,
                    "velocity": 0.3858267716535433,
                    "duration": 0.29999999999999716
                },
                {
                    "name": "B3",
                    "midi": 59,
                    "time": 124.80000000000013,
                    "velocity": 0.3858267716535433,
                    "duration": 0.29999999999999716
                },
                {
                    "name": "C#4",
                    "midi": 61,
                    "time": 125.10000000000012,
                    "velocity": 0.3858267716535433,
                    "duration": 0.29999999999999716
                },
                {
                    "name": "B3",
                    "midi": 59,
                    "time": 125.40000000000012,
                    "velocity": 0.3858267716535433,
                    "duration": 0.29999999999999716
                },
                {
                    "name": "C#4",
                    "midi": 61,
                    "time": 125.70000000000012,
                    "velocity": 0.3858267716535433,
                    "duration": 0.29999999999999716
                },
                {
                    "name": "B3",
                    "midi": 59,
                    "time": 126.00000000000011,
                    "velocity": 0.3858267716535433,
                    "duration": 0.29999999999999716
                },
                {
                    "name": "C#4",
                    "midi": 61,
                    "time": 126.30000000000011,
                    "velocity": 0.3858267716535433,
                    "duration": 0.29999999999999716
                },
                {
                    "name": "B3",
                    "midi": 59,
                    "time": 126.60000000000011,
                    "velocity": 0.3858267716535433,
                    "duration": 0.29999999999999716
                },
                {
                    "name": "C#4",
                    "midi": 61,
                    "time": 126.9000000000001,
                    "velocity": 0.3858267716535433,
                    "duration": 0.29999999999999716
                },
                {
                    "name": "B3",
                    "midi": 59,
                    "time": 127.2000000000001,
                    "velocity": 0.3858267716535433,
                    "duration": 0.29999999999999716
                },
                {
                    "name": "C#4",
                    "midi": 61,
                    "time": 127.5000000000001,
                    "velocity": 0.3858267716535433,
                    "duration": 0.29999999999999716
                },
                {
                    "name": "B3",
                    "midi": 59,
                    "time": 127.8000000000001,
                    "velocity": 0.3858267716535433,
                    "duration": 0.30000000000001137
                },
                {
                    "name": "C#4",
                    "midi": 61,
                    "time": 128.1000000000001,
                    "velocity": 0.3858267716535433,
                    "duration": 0.30000000000001137
                },
                {
                    "name": "E4",
                    "midi": 64,
                    "time": 131.19750000000013,
                    "velocity": 0.3858267716535433,
                    "duration": 0.4025000000000034
                },
                {
                    "name": "F4",
                    "midi": 65,
                    "time": 131.60000000000014,
                    "velocity": 0.3858267716535433,
                    "duration": 0.4000000000000057
                },
                {
                    "name": "G4",
                    "midi": 67,
                    "time": 132.00000000000014,
                    "velocity": 0.3858267716535433,
                    "duration": 0.19999999999998863
                },
                {
                    "name": "F4",
                    "midi": 65,
                    "time": 132.20000000000013,
                    "velocity": 0.3858267716535433,
                    "duration": 0.1974999999999909
                },
                {
                    "name": "E4",
                    "midi": 64,
                    "time": 132.39750000000012,
                    "velocity": 0.3858267716535433,
                    "duration": 0.20249999999998636
                },
                {
                    "name": "D4",
                    "midi": 62,
                    "time": 132.6000000000001,
                    "velocity": 0.3858267716535433,
                    "duration": 0.19999999999998863
                },
                {
                    "name": "E4",
                    "midi": 64,
                    "time": 132.8000000000001,
                    "velocity": 0.3858267716535433,
                    "duration": 0.1974999999999909
                },
                {
                    "name": "C4",
                    "midi": 60,
                    "time": 132.9975000000001,
                    "velocity": 0.3858267716535433,
                    "duration": 0.20249999999998636
                },
                {
                    "name": "E5",
                    "midi": 76,
                    "time": 133.80000000000007,
                    "velocity": 0.3858267716535433,
                    "duration": 0.9975000000000023
                },
                {
                    "name": "D#5",
                    "midi": 75,
                    "time": 134.79750000000007,
                    "velocity": 0.3858267716535433,
                    "duration": 0.30000000000001137
                },
                {
                    "name": "E5",
                    "midi": 76,
                    "time": 135.09750000000008,
                    "velocity": 0.3858267716535433,
                    "duration": 0.10249999999999204
                },
                {
                    "name": "D5",
                    "midi": 74,
                    "time": 135.20000000000007,
                    "velocity": 0.3858267716535433,
                    "duration": 0.4000000000000057
                },
                {
                    "name": "E4",
                    "midi": 64,
                    "time": 135.60000000000008,
                    "velocity": 0.3858267716535433,
                    "duration": 0.5999999999999943
                },
                {
                    "name": "A4",
                    "midi": 69,
                    "time": 135.60000000000008,
                    "velocity": 0.3858267716535433,
                    "duration": 0.5999999999999943
                },
                {
                    "name": "F#4",
                    "midi": 66,
                    "time": 136.20000000000007,
                    "velocity": 0.3858267716535433,
                    "duration": 0.5999999999999943
                },
                {
                    "name": "G4",
                    "midi": 67,
                    "time": 136.80000000000007,
                    "velocity": 0.3858267716535433,
                    "duration": 0.5250000000000057
                },
                {
                    "name": "G4",
                    "midi": 67,
                    "time": 137.32500000000007,
                    "velocity": 0.3858267716535433,
                    "duration": 0.07499999999998863
                },
                {
                    "name": "A#5",
                    "midi": 82,
                    "time": 137.40000000000006,
                    "velocity": 0.3858267716535433,
                    "duration": 0.5999999999999943
                },
                {
                    "name": "E5",
                    "midi": 76,
                    "time": 138.60000000000005,
                    "velocity": 0.3858267716535433,
                    "duration": 0.9975000000000023
                },
                {
                    "name": "D#5",
                    "midi": 75,
                    "time": 139.59750000000005,
                    "velocity": 0.3858267716535433,
                    "duration": 0.30000000000001137
                },
                {
                    "name": "E5",
                    "midi": 76,
                    "time": 139.89750000000006,
                    "velocity": 0.3858267716535433,
                    "duration": 0.10249999999999204
                },
                {
                    "name": "D5",
                    "midi": 74,
                    "time": 140.00000000000006,
                    "velocity": 0.3858267716535433,
                    "duration": 0.39999999999997726
                },
                {
                    "name": "D#4",
                    "midi": 63,
                    "time": 140.20000000000005,
                    "velocity": 0.3858267716535433,
                    "duration": 1.3999999999999773
                },
                {
                    "name": "F#4",
                    "midi": 66,
                    "time": 140.30000000000004,
                    "velocity": 0.3858267716535433,
                    "duration": 1.299999999999983
                },
                {
                    "name": "A#4",
                    "midi": 70,
                    "time": 140.40000000000003,
                    "velocity": 0.3858267716535433,
                    "duration": 1.1999999999999886
                },
                {
                    "name": "A#4",
                    "midi": 70,
                    "time": 141.60000000000002,
                    "velocity": 0.3858267716535433,
                    "duration": 1.1999999999999886
                },
                {
                    "name": "F5",
                    "midi": 77,
                    "time": 150,
                    "velocity": 0.5905511811023622,
                    "duration": 0.44999999999998863
                },
                {
                    "name": "D#5",
                    "midi": 75,
                    "time": 150.45,
                    "velocity": 0.5905511811023622,
                    "duration": 0.15000000000000568
                },
                {
                    "name": "F5",
                    "midi": 77,
                    "time": 150.6,
                    "velocity": 0.5905511811023622,
                    "duration": 0.15000000000000568
                },
                {
                    "name": "D#5",
                    "midi": 75,
                    "time": 150.75,
                    "velocity": 0.5905511811023622,
                    "duration": 0.15000000000000568
                },
                {
                    "name": "F5",
                    "midi": 77,
                    "time": 150.9,
                    "velocity": 0.5905511811023622,
                    "duration": 0.15000000000000568
                },
                {
                    "name": "D#5",
                    "midi": 75,
                    "time": 151.05,
                    "velocity": 0.5905511811023622,
                    "duration": 0.15000000000000568
                },
                {
                    "name": "F5",
                    "midi": 77,
                    "time": 151.20000000000002,
                    "velocity": 0.5905511811023622,
                    "duration": 0.5999999999999943
                },
                {
                    "name": "C5",
                    "midi": 72,
                    "time": 151.8,
                    "velocity": 0.5905511811023622,
                    "duration": 0.8400000000000034
                },
                {
                    "name": "F4",
                    "midi": 65,
                    "time": 152.64000000000001,
                    "velocity": 0.5905511811023622,
                    "duration": 0.2400000000000091
                },
                {
                    "name": "A#4",
                    "midi": 70,
                    "time": 152.88000000000002,
                    "velocity": 0.5905511811023622,
                    "duration": 0.23750000000001137
                },
                {
                    "name": "D#5",
                    "midi": 75,
                    "time": 153.11750000000004,
                    "velocity": 0.5905511811023622,
                    "duration": 0.2400000000000091
                },
                {
                    "name": "F5",
                    "midi": 77,
                    "time": 153.35750000000004,
                    "velocity": 0.5905511811023622,
                    "duration": 0.24250000000000682
                },
                {
                    "name": "F6",
                    "midi": 89,
                    "time": 153.60000000000005,
                    "velocity": 0.5905511811023622,
                    "duration": 0.2400000000000091
                },
                {
                    "name": "D#6",
                    "midi": 87,
                    "time": 153.84000000000006,
                    "velocity": 0.5905511811023622,
                    "duration": 0.2400000000000091
                },
                {
                    "name": "F5",
                    "midi": 77,
                    "time": 154.08000000000007,
                    "velocity": 0.5905511811023622,
                    "duration": 0.23750000000001137
                },
                {
                    "name": "A#5",
                    "midi": 82,
                    "time": 154.31750000000008,
                    "velocity": 0.5905511811023622,
                    "duration": 0.2400000000000091
                },
                {
                    "name": "D#6",
                    "midi": 87,
                    "time": 154.5575000000001,
                    "velocity": 0.5905511811023622,
                    "duration": 0.24250000000000682
                },
                {
                    "name": "F4",
                    "midi": 65,
                    "time": 159.00000000000009,
                    "velocity": 0.6929133858267716,
                    "duration": 0.9975000000000023
                },
                {
                    "name": "E4",
                    "midi": 64,
                    "time": 159.9975000000001,
                    "velocity": 0.4881889763779528,
                    "duration": 0.30000000000001137
                },
                {
                    "name": "F4",
                    "midi": 65,
                    "time": 160.2975000000001,
                    "velocity": 0.4881889763779528,
                    "duration": 0.10249999999999204
                },
                {
                    "name": "D#4",
                    "midi": 63,
                    "time": 160.4000000000001,
                    "velocity": 0.4881889763779528,
                    "duration": 0.4000000000000057
                },
                {
                    "name": "F4",
                    "midi": 65,
                    "time": 160.8000000000001,
                    "velocity": 0.4881889763779528,
                    "duration": 0.5999999999999943
                },
                {
                    "name": "A#4",
                    "midi": 70,
                    "time": 161.4000000000001,
                    "velocity": 0.4881889763779528,
                    "duration": 0.44999999999998863
                },
                {
                    "name": "F4",
                    "midi": 65,
                    "time": 161.85000000000008,
                    "velocity": 0.4881889763779528,
                    "duration": 0.07499999999998863
                },
                {
                    "name": "A#4",
                    "midi": 70,
                    "time": 161.92500000000007,
                    "velocity": 0.4881889763779528,
                    "duration": 0.07499999999998863
                },
                {
                    "name": "G4",
                    "midi": 67,
                    "time": 162.00000000000006,
                    "velocity": 0.4881889763779528,
                    "duration": 1.1999999999999886
                },
                {
                    "name": "F4",
                    "midi": 65,
                    "time": 163.20000000000005,
                    "velocity": 0.4881889763779528,
                    "duration": 0.5999999999999943
                },
                {
                    "name": "A#4",
                    "midi": 70,
                    "time": 163.80000000000004,
                    "velocity": 0.4881889763779528,
                    "duration": 0.5999999999999943
                },
                {
                    "name": "B3",
                    "midi": 59,
                    "time": 164.40000000000003,
                    "velocity": 0.5905511811023622,
                    "duration": 0.5999999999999943
                },
                {
                    "name": "C5",
                    "midi": 72,
                    "time": 165.60000000000002,
                    "velocity": 0.5905511811023622,
                    "duration": 0.19999999999998863
                },
                {
                    "name": "A#4",
                    "midi": 70,
                    "time": 165.8,
                    "velocity": 0.5905511811023622,
                    "duration": 0.1974999999999909
                },
                {
                    "name": "G4",
                    "midi": 67,
                    "time": 165.9975,
                    "velocity": 0.5905511811023622,
                    "duration": 0.20249999999998636
                },
                {
                    "name": "A#4",
                    "midi": 70,
                    "time": 166.2,
                    "velocity": 0.5905511811023622,
                    "duration": 0.19999999999998863
                },
                {
                    "name": "G#4",
                    "midi": 68,
                    "time": 166.39999999999998,
                    "velocity": 0.5905511811023622,
                    "duration": 0.1974999999999909
                },
                {
                    "name": "F4",
                    "midi": 65,
                    "time": 166.59749999999997,
                    "velocity": 0.5905511811023622,
                    "duration": 0.20249999999998636
                },
                {
                    "name": "G4",
                    "midi": 67,
                    "time": 166.79999999999995,
                    "velocity": 0.5905511811023622,
                    "duration": 0.5250000000000057
                },
                {
                    "name": "C5",
                    "midi": 72,
                    "time": 167.32499999999996,
                    "velocity": 0.5905511811023622,
                    "duration": 0.07499999999998863
                },
                {
                    "name": "A#4",
                    "midi": 70,
                    "time": 167.39999999999995,
                    "velocity": 0.5905511811023622,
                    "duration": 0.19999999999998863
                },
                {
                    "name": "G#4",
                    "midi": 68,
                    "time": 167.59999999999994,
                    "velocity": 0.5905511811023622,
                    "duration": 0.1974999999999909
                },
                {
                    "name": "F4",
                    "midi": 65,
                    "time": 167.79749999999993,
                    "velocity": 0.5905511811023622,
                    "duration": 0.20249999999998636
                },
                {
                    "name": "B3",
                    "midi": 59,
                    "time": 167.99999999999991,
                    "velocity": 0.5905511811023622,
                    "duration": 0.5999999999999943
                },
                {
                    "name": "F4",
                    "midi": 65,
                    "time": 168.5999999999999,
                    "velocity": 0.5905511811023622,
                    "duration": 0.9975000000000023
                },
                {
                    "name": "E4",
                    "midi": 64,
                    "time": 169.5974999999999,
                    "velocity": 0.5905511811023622,
                    "duration": 0.30000000000001137
                },
                {
                    "name": "F4",
                    "midi": 65,
                    "time": 169.89749999999992,
                    "velocity": 0.5905511811023622,
                    "duration": 0.10249999999999204
                },
                {
                    "name": "D#4",
                    "midi": 63,
                    "time": 169.99999999999991,
                    "velocity": 0.5905511811023622,
                    "duration": 0.4000000000000057
                },
                {
                    "name": "D4",
                    "midi": 62,
                    "time": 170.39999999999992,
                    "velocity": 0.5905511811023622,
                    "duration": 0.39750000000000796
                },
                {
                    "name": "F4",
                    "midi": 65,
                    "time": 170.64749999999992,
                    "velocity": 0.5905511811023622,
                    "duration": 0.15000000000000568
                },
                {
                    "name": "D#4",
                    "midi": 63,
                    "time": 170.79749999999993,
                    "velocity": 0.5905511811023622,
                    "duration": 0.4025000000000034
                },
                {
                    "name": "D4",
                    "midi": 62,
                    "time": 171.19999999999993,
                    "velocity": 0.5905511811023622,
                    "duration": 0.4000000000000057
                },
                {
                    "name": "F5",
                    "midi": 77,
                    "time": 171.59999999999994,
                    "velocity": 0.5905511811023622,
                    "duration": 0.19999999999998863
                },
                {
                    "name": "A#4",
                    "midi": 70,
                    "time": 171.79999999999993,
                    "velocity": 0.5905511811023622,
                    "duration": 0.1974999999999909
                },
                {
                    "name": "D#5",
                    "midi": 75,
                    "time": 171.99749999999992,
                    "velocity": 0.5905511811023622,
                    "duration": 0.20249999999998636
                },
                {
                    "name": "G#5",
                    "midi": 80,
                    "time": 172.1999999999999,
                    "velocity": 0.5905511811023622,
                    "duration": 0.19999999999998863
                },
                {
                    "name": "A#5",
                    "midi": 82,
                    "time": 172.3999999999999,
                    "velocity": 0.5905511811023622,
                    "duration": 0.1974999999999909
                },
                {
                    "name": "F5",
                    "midi": 77,
                    "time": 172.59749999999988,
                    "velocity": 0.5905511811023622,
                    "duration": 0.20249999999998636
                },
                {
                    "name": "A#5",
                    "midi": 82,
                    "time": 172.79999999999987,
                    "velocity": 0.5905511811023622,
                    "duration": 0.6974999999999909
                },
                {
                    "name": "G#5",
                    "midi": 80,
                    "time": 173.49749999999986,
                    "velocity": 0.5905511811023622,
                    "duration": 0.10249999999999204
                },
                {
                    "name": "A#5",
                    "midi": 82,
                    "time": 173.59999999999985,
                    "velocity": 0.5905511811023622,
                    "duration": 0.09999999999999432
                },
                {
                    "name": "G#5",
                    "midi": 80,
                    "time": 173.69999999999985,
                    "velocity": 0.5905511811023622,
                    "duration": 0.09749999999999659
                },
                {
                    "name": "A#5",
                    "midi": 82,
                    "time": 173.79749999999984,
                    "velocity": 0.5905511811023622,
                    "duration": 0.10249999999999204
                },
                {
                    "name": "G#5",
                    "midi": 80,
                    "time": 173.89999999999984,
                    "velocity": 0.5905511811023622,
                    "duration": 0.09999999999999432
                },
                {
                    "name": "A#5",
                    "midi": 82,
                    "time": 173.99999999999983,
                    "velocity": 0.5905511811023622,
                    "duration": 1.1999999999999886
                },
                {
                    "name": "F5",
                    "midi": 77,
                    "time": 176.3999999999998,
                    "velocity": 0.6929133858267716,
                    "duration": 0.6974999999999909
                },
                {
                    "name": "A#5",
                    "midi": 82,
                    "time": 176.3999999999998,
                    "velocity": 0.6929133858267716,
                    "duration": 0.6974999999999909
                },
                {
                    "name": "A#4",
                    "midi": 70,
                    "time": 177.0974999999998,
                    "velocity": 0.6929133858267716,
                    "duration": 0.10249999999999204
                },
                {
                    "name": "D#5",
                    "midi": 75,
                    "time": 177.1999999999998,
                    "velocity": 0.6929133858267716,
                    "duration": 0.09999999999999432
                },
                {
                    "name": "G#5",
                    "midi": 80,
                    "time": 177.29999999999978,
                    "velocity": 0.6929133858267716,
                    "duration": 0.09749999999999659
                },
                {
                    "name": "A#5",
                    "midi": 82,
                    "time": 177.39749999999978,
                    "velocity": 0.6929133858267716,
                    "duration": 0.10249999999999204
                },
                {
                    "name": "F5",
                    "midi": 77,
                    "time": 177.49999999999977,
                    "velocity": 0.6929133858267716,
                    "duration": 0.09999999999999432
                },
                {
                    "name": "F6",
                    "midi": 89,
                    "time": 177.59999999999977,
                    "velocity": 0.6929133858267716,
                    "duration": 0.11750000000000682
                },
                {
                    "name": "C6",
                    "midi": 84,
                    "time": 177.71749999999977,
                    "velocity": 0.6929133858267716,
                    "duration": 0.12250000000000227
                },
                {
                    "name": "D#6",
                    "midi": 87,
                    "time": 177.83999999999978,
                    "velocity": 0.6929133858267716,
                    "duration": 0.11750000000000682
                },
                {
                    "name": "A#5",
                    "midi": 82,
                    "time": 177.95749999999978,
                    "velocity": 0.6929133858267716,
                    "duration": 0.12250000000000227
                },
                {
                    "name": "F5",
                    "midi": 77,
                    "time": 178.07999999999979,
                    "velocity": 0.6929133858267716,
                    "duration": 0.12000000000000455
                },
                {
                    "name": "F5",
                    "midi": 77,
                    "time": 178.1999999999998,
                    "velocity": 0.6929133858267716,
                    "duration": 0.11750000000000682
                },
                {
                    "name": "C5",
                    "midi": 72,
                    "time": 178.3174999999998,
                    "velocity": 0.6929133858267716,
                    "duration": 0.12250000000000227
                },
                {
                    "name": "D#5",
                    "midi": 75,
                    "time": 178.4399999999998,
                    "velocity": 0.6929133858267716,
                    "duration": 0.11750000000000682
                },
                {
                    "name": "A#4",
                    "midi": 70,
                    "time": 178.5574999999998,
                    "velocity": 0.6929133858267716,
                    "duration": 0.12250000000000227
                },
                {
                    "name": "F4",
                    "midi": 65,
                    "time": 178.6799999999998,
                    "velocity": 0.6929133858267716,
                    "duration": 0.12000000000000455
                },
                {
                    "name": "F5",
                    "midi": 77,
                    "time": 179.9999999999998,
                    "velocity": 0.6929133858267716,
                    "duration": 0.7175000000000011
                },
                {
                    "name": "A#4",
                    "midi": 70,
                    "time": 180.7174999999998,
                    "velocity": 0.6929133858267716,
                    "duration": 0.12250000000000227
                },
                {
                    "name": "D#5",
                    "midi": 75,
                    "time": 180.8399999999998,
                    "velocity": 0.6929133858267716,
                    "duration": 0.11750000000000682
                },
                {
                    "name": "G#5",
                    "midi": 80,
                    "time": 180.9574999999998,
                    "velocity": 0.6929133858267716,
                    "duration": 0.12250000000000227
                },
                {
                    "name": "A#5",
                    "midi": 82,
                    "time": 181.0799999999998,
                    "velocity": 0.6929133858267716,
                    "duration": 0.12000000000000455
                },
                {
                    "name": "A#4",
                    "midi": 70,
                    "time": 181.19999999999982,
                    "velocity": 0.6929133858267716,
                    "duration": 0.19999999999998863
                },
                {
                    "name": "G#4",
                    "midi": 68,
                    "time": 181.3999999999998,
                    "velocity": 0.6929133858267716,
                    "duration": 0.1974999999999909
                },
                {
                    "name": "F4",
                    "midi": 65,
                    "time": 181.5974999999998,
                    "velocity": 0.6929133858267716,
                    "duration": 0.20249999999998636
                },
                {
                    "name": "G4",
                    "midi": 67,
                    "time": 181.79999999999978,
                    "velocity": 0.6929133858267716,
                    "duration": 0.5999999999999943
                },
                {
                    "name": "D4",
                    "midi": 62,
                    "time": 194.24999999999977,
                    "velocity": 0.28346456692913385,
                    "duration": 0.15000000000000568
                },
                {
                    "name": "C4",
                    "midi": 60,
                    "time": 194.39999999999978,
                    "velocity": 0.28346456692913385,
                    "duration": 0.15000000000000568
                },
                {
                    "name": "D4",
                    "midi": 62,
                    "time": 194.54999999999978,
                    "velocity": 0.28346456692913385,
                    "duration": 0.15000000000000568
                },
                {
                    "name": "C4",
                    "midi": 60,
                    "time": 194.6999999999998,
                    "velocity": 0.28346456692913385,
                    "duration": 0.15000000000000568
                },
                {
                    "name": "D4",
                    "midi": 62,
                    "time": 194.8499999999998,
                    "velocity": 0.28346456692913385,
                    "duration": 0.15000000000000568
                },
                {
                    "name": "C4",
                    "midi": 60,
                    "time": 194.9999999999998,
                    "velocity": 0.28346456692913385,
                    "duration": 0.15000000000000568
                },
                {
                    "name": "D4",
                    "midi": 62,
                    "time": 195.1499999999998,
                    "velocity": 0.28346456692913385,
                    "duration": 0.15000000000000568
                },
                {
                    "name": "C4",
                    "midi": 60,
                    "time": 195.2999999999998,
                    "velocity": 0.28346456692913385,
                    "duration": 0.15000000000000568
                },
                {
                    "name": "D4",
                    "midi": 62,
                    "time": 195.44999999999982,
                    "velocity": 0.28346456692913385,
                    "duration": 0.15000000000000568
                },
                {
                    "name": "C4",
                    "midi": 60,
                    "time": 195.59999999999982,
                    "velocity": 0.28346456692913385,
                    "duration": 0.15000000000000568
                },
                {
                    "name": "D4",
                    "midi": 62,
                    "time": 195.74999999999983,
                    "velocity": 0.28346456692913385,
                    "duration": 0.15000000000000568
                },
                {
                    "name": "C4",
                    "midi": 60,
                    "time": 195.89999999999984,
                    "velocity": 0.28346456692913385,
                    "duration": 0.15000000000000568
                },
                {
                    "name": "D4",
                    "midi": 62,
                    "time": 196.04999999999984,
                    "velocity": 0.28346456692913385,
                    "duration": 0.15000000000000568
                },
                {
                    "name": "C4",
                    "midi": 60,
                    "time": 196.19999999999985,
                    "velocity": 0.28346456692913385,
                    "duration": 0.15000000000000568
                },
                {
                    "name": "D4",
                    "midi": 62,
                    "time": 196.34999999999985,
                    "velocity": 0.28346456692913385,
                    "duration": 0.15000000000000568
                },
                {
                    "name": "C4",
                    "midi": 60,
                    "time": 196.49999999999986,
                    "velocity": 0.28346456692913385,
                    "duration": 0.15000000000000568
                },
                {
                    "name": "D4",
                    "midi": 62,
                    "time": 196.64999999999986,
                    "velocity": 0.28346456692913385,
                    "duration": 0.15000000000000568
                },
                {
                    "name": "G3",
                    "midi": 55,
                    "time": 218.39999999999986,
                    "velocity": 0.5905511811023622,
                    "duration": 0.11750000000000682
                },
                {
                    "name": "A#3",
                    "midi": 58,
                    "time": 218.39999999999986,
                    "velocity": 0.5905511811023622,
                    "duration": 0.11750000000000682
                },
                {
                    "name": "C#4",
                    "midi": 61,
                    "time": 218.39999999999986,
                    "velocity": 0.5905511811023622,
                    "duration": 0.11750000000000682
                },
                {
                    "name": "D#4",
                    "midi": 63,
                    "time": 218.39999999999986,
                    "velocity": 0.5905511811023622,
                    "duration": 0.11750000000000682
                },
                {
                    "name": "G3",
                    "midi": 55,
                    "time": 218.99999999999986,
                    "velocity": 0.5905511811023622,
                    "duration": 0.11750000000000682
                },
                {
                    "name": "A#3",
                    "midi": 58,
                    "time": 218.99999999999986,
                    "velocity": 0.5905511811023622,
                    "duration": 0.11750000000000682
                },
                {
                    "name": "C#4",
                    "midi": 61,
                    "time": 218.99999999999986,
                    "velocity": 0.5905511811023622,
                    "duration": 0.11750000000000682
                },
                {
                    "name": "D#4",
                    "midi": 63,
                    "time": 218.99999999999986,
                    "velocity": 0.5905511811023622,
                    "duration": 0.11750000000000682
                },
                {
                    "name": "G3",
                    "midi": 55,
                    "time": 219.59999999999985,
                    "velocity": 0.5905511811023622,
                    "duration": 0.11750000000000682
                },
                {
                    "name": "A#3",
                    "midi": 58,
                    "time": 219.59999999999985,
                    "velocity": 0.5905511811023622,
                    "duration": 0.11750000000000682
                },
                {
                    "name": "C#4",
                    "midi": 61,
                    "time": 219.59999999999985,
                    "velocity": 0.5905511811023622,
                    "duration": 0.11750000000000682
                },
                {
                    "name": "D#4",
                    "midi": 63,
                    "time": 219.59999999999985,
                    "velocity": 0.5905511811023622,
                    "duration": 0.11750000000000682
                },
                {
                    "name": "G3",
                    "midi": 55,
                    "time": 220.19999999999985,
                    "velocity": 0.5905511811023622,
                    "duration": 0.11750000000000682
                },
                {
                    "name": "A#3",
                    "midi": 58,
                    "time": 220.19999999999985,
                    "velocity": 0.5905511811023622,
                    "duration": 0.11750000000000682
                },
                {
                    "name": "C#4",
                    "midi": 61,
                    "time": 220.19999999999985,
                    "velocity": 0.5905511811023622,
                    "duration": 0.11750000000000682
                },
                {
                    "name": "D#4",
                    "midi": 63,
                    "time": 220.19999999999985,
                    "velocity": 0.5905511811023622,
                    "duration": 0.11750000000000682
                },
                {
                    "name": "G3",
                    "midi": 55,
                    "time": 220.79999999999984,
                    "velocity": 0.5905511811023622,
                    "duration": 0.11750000000000682
                },
                {
                    "name": "A#3",
                    "midi": 58,
                    "time": 220.79999999999984,
                    "velocity": 0.5905511811023622,
                    "duration": 0.11750000000000682
                },
                {
                    "name": "C#4",
                    "midi": 61,
                    "time": 220.79999999999984,
                    "velocity": 0.5905511811023622,
                    "duration": 0.11750000000000682
                },
                {
                    "name": "D#4",
                    "midi": 63,
                    "time": 220.79999999999984,
                    "velocity": 0.5905511811023622,
                    "duration": 0.11750000000000682
                },
                {
                    "name": "G3",
                    "midi": 55,
                    "time": 221.39999999999984,
                    "velocity": 0.5905511811023622,
                    "duration": 0.11750000000000682
                },
                {
                    "name": "A#3",
                    "midi": 58,
                    "time": 221.39999999999984,
                    "velocity": 0.5905511811023622,
                    "duration": 0.11750000000000682
                },
                {
                    "name": "C#4",
                    "midi": 61,
                    "time": 221.39999999999984,
                    "velocity": 0.5905511811023622,
                    "duration": 0.11750000000000682
                },
                {
                    "name": "D#4",
                    "midi": 63,
                    "time": 221.39999999999984,
                    "velocity": 0.5905511811023622,
                    "duration": 0.11750000000000682
                },
                {
                    "name": "G3",
                    "midi": 55,
                    "time": 221.99999999999983,
                    "velocity": 0.5905511811023622,
                    "duration": 0.11750000000000682
                },
                {
                    "name": "A#3",
                    "midi": 58,
                    "time": 221.99999999999983,
                    "velocity": 0.5905511811023622,
                    "duration": 0.11750000000000682
                },
                {
                    "name": "C#4",
                    "midi": 61,
                    "time": 221.99999999999983,
                    "velocity": 0.5905511811023622,
                    "duration": 0.11750000000000682
                },
                {
                    "name": "D#4",
                    "midi": 63,
                    "time": 221.99999999999983,
                    "velocity": 0.5905511811023622,
                    "duration": 0.11750000000000682
                },
                {
                    "name": "G3",
                    "midi": 55,
                    "time": 222.59999999999982,
                    "velocity": 0.5905511811023622,
                    "duration": 0.11750000000000682
                },
                {
                    "name": "A#3",
                    "midi": 58,
                    "time": 222.59999999999982,
                    "velocity": 0.5905511811023622,
                    "duration": 0.11750000000000682
                },
                {
                    "name": "C#4",
                    "midi": 61,
                    "time": 222.59999999999982,
                    "velocity": 0.5905511811023622,
                    "duration": 0.11750000000000682
                },
                {
                    "name": "D#4",
                    "midi": 63,
                    "time": 222.59999999999982,
                    "velocity": 0.5905511811023622,
                    "duration": 0.11750000000000682
                },
                {
                    "name": "G3",
                    "midi": 55,
                    "time": 223.19999999999982,
                    "velocity": 0.5905511811023622,
                    "duration": 0.11750000000000682
                },
                {
                    "name": "A#3",
                    "midi": 58,
                    "time": 223.19999999999982,
                    "velocity": 0.5905511811023622,
                    "duration": 0.11750000000000682
                },
                {
                    "name": "C#4",
                    "midi": 61,
                    "time": 223.19999999999982,
                    "velocity": 0.5905511811023622,
                    "duration": 0.11750000000000682
                },
                {
                    "name": "D#4",
                    "midi": 63,
                    "time": 223.19999999999982,
                    "velocity": 0.5905511811023622,
                    "duration": 0.11750000000000682
                },
                {
                    "name": "G3",
                    "midi": 55,
                    "time": 223.7999999999998,
                    "velocity": 0.7952755905511811,
                    "duration": 0.11750000000000682
                },
                {
                    "name": "A#3",
                    "midi": 58,
                    "time": 223.7999999999998,
                    "velocity": 0.7952755905511811,
                    "duration": 0.11750000000000682
                },
                {
                    "name": "C#4",
                    "midi": 61,
                    "time": 223.7999999999998,
                    "velocity": 0.7952755905511811,
                    "duration": 0.11750000000000682
                },
                {
                    "name": "D#4",
                    "midi": 63,
                    "time": 223.7999999999998,
                    "velocity": 0.7952755905511811,
                    "duration": 0.11750000000000682
                },
                {
                    "name": "G3",
                    "midi": 55,
                    "time": 224.3999999999998,
                    "velocity": 0.5905511811023622,
                    "duration": 0.11750000000000682
                },
                {
                    "name": "A#3",
                    "midi": 58,
                    "time": 224.3999999999998,
                    "velocity": 0.5905511811023622,
                    "duration": 0.11750000000000682
                },
                {
                    "name": "C#4",
                    "midi": 61,
                    "time": 224.3999999999998,
                    "velocity": 0.5905511811023622,
                    "duration": 0.11750000000000682
                },
                {
                    "name": "D#4",
                    "midi": 63,
                    "time": 224.3999999999998,
                    "velocity": 0.5905511811023622,
                    "duration": 0.11750000000000682
                },
                {
                    "name": "G3",
                    "midi": 55,
                    "time": 224.9999999999998,
                    "velocity": 0.7952755905511811,
                    "duration": 0.11750000000000682
                },
                {
                    "name": "A#3",
                    "midi": 58,
                    "time": 224.9999999999998,
                    "velocity": 0.7952755905511811,
                    "duration": 0.11750000000000682
                },
                {
                    "name": "C#4",
                    "midi": 61,
                    "time": 224.9999999999998,
                    "velocity": 0.7952755905511811,
                    "duration": 0.11750000000000682
                },
                {
                    "name": "D#4",
                    "midi": 63,
                    "time": 224.9999999999998,
                    "velocity": 0.7952755905511811,
                    "duration": 0.11750000000000682
                },
                {
                    "name": "G3",
                    "midi": 55,
                    "time": 225.5999999999998,
                    "velocity": 0.5905511811023622,
                    "duration": 0.11750000000000682
                },
                {
                    "name": "A#3",
                    "midi": 58,
                    "time": 225.5999999999998,
                    "velocity": 0.5905511811023622,
                    "duration": 0.11750000000000682
                },
                {
                    "name": "C#4",
                    "midi": 61,
                    "time": 225.5999999999998,
                    "velocity": 0.5905511811023622,
                    "duration": 0.11750000000000682
                },
                {
                    "name": "D#4",
                    "midi": 63,
                    "time": 225.5999999999998,
                    "velocity": 0.5905511811023622,
                    "duration": 0.11750000000000682
                },
                {
                    "name": "G3",
                    "midi": 55,
                    "time": 226.1999999999998,
                    "velocity": 0.5905511811023622,
                    "duration": 0.11750000000000682
                },
                {
                    "name": "A#3",
                    "midi": 58,
                    "time": 226.1999999999998,
                    "velocity": 0.5905511811023622,
                    "duration": 0.11750000000000682
                },
                {
                    "name": "C#4",
                    "midi": 61,
                    "time": 226.1999999999998,
                    "velocity": 0.5905511811023622,
                    "duration": 0.11750000000000682
                },
                {
                    "name": "D#4",
                    "midi": 63,
                    "time": 226.1999999999998,
                    "velocity": 0.5905511811023622,
                    "duration": 0.11750000000000682
                },
                {
                    "name": "G3",
                    "midi": 55,
                    "time": 226.79999999999978,
                    "velocity": 0.5905511811023622,
                    "duration": 0.11750000000000682
                },
                {
                    "name": "A#3",
                    "midi": 58,
                    "time": 226.79999999999978,
                    "velocity": 0.5905511811023622,
                    "duration": 0.11750000000000682
                },
                {
                    "name": "C#4",
                    "midi": 61,
                    "time": 226.79999999999978,
                    "velocity": 0.5905511811023622,
                    "duration": 0.11750000000000682
                },
                {
                    "name": "D#4",
                    "midi": 63,
                    "time": 226.79999999999978,
                    "velocity": 0.5905511811023622,
                    "duration": 0.11750000000000682
                },
                {
                    "name": "G3",
                    "midi": 55,
                    "time": 227.39999999999978,
                    "velocity": 0.5905511811023622,
                    "duration": 0.11750000000000682
                },
                {
                    "name": "A#3",
                    "midi": 58,
                    "time": 227.39999999999978,
                    "velocity": 0.5905511811023622,
                    "duration": 0.11750000000000682
                },
                {
                    "name": "C#4",
                    "midi": 61,
                    "time": 227.39999999999978,
                    "velocity": 0.5905511811023622,
                    "duration": 0.11750000000000682
                },
                {
                    "name": "D#4",
                    "midi": 63,
                    "time": 227.39999999999978,
                    "velocity": 0.5905511811023622,
                    "duration": 0.11750000000000682
                },
                {
                    "name": "G3",
                    "midi": 55,
                    "time": 227.99999999999977,
                    "velocity": 0.5905511811023622,
                    "duration": 0.11750000000000682
                },
                {
                    "name": "A#3",
                    "midi": 58,
                    "time": 227.99999999999977,
                    "velocity": 0.5905511811023622,
                    "duration": 0.11750000000000682
                },
                {
                    "name": "C#4",
                    "midi": 61,
                    "time": 227.99999999999977,
                    "velocity": 0.5905511811023622,
                    "duration": 0.11750000000000682
                },
                {
                    "name": "D#4",
                    "midi": 63,
                    "time": 227.99999999999977,
                    "velocity": 0.5905511811023622,
                    "duration": 0.11750000000000682
                },
                {
                    "name": "G3",
                    "midi": 55,
                    "time": 228.59999999999977,
                    "velocity": 0.7952755905511811,
                    "duration": 0.11750000000000682
                },
                {
                    "name": "A#3",
                    "midi": 58,
                    "time": 228.59999999999977,
                    "velocity": 0.7952755905511811,
                    "duration": 0.11750000000000682
                },
                {
                    "name": "C#4",
                    "midi": 61,
                    "time": 228.59999999999977,
                    "velocity": 0.7952755905511811,
                    "duration": 0.11750000000000682
                },
                {
                    "name": "D#4",
                    "midi": 63,
                    "time": 228.59999999999977,
                    "velocity": 0.7952755905511811,
                    "duration": 0.11750000000000682
                },
                {
                    "name": "G3",
                    "midi": 55,
                    "time": 229.19999999999976,
                    "velocity": 0.5905511811023622,
                    "duration": 0.11750000000000682
                },
                {
                    "name": "A#3",
                    "midi": 58,
                    "time": 229.19999999999976,
                    "velocity": 0.5905511811023622,
                    "duration": 0.11750000000000682
                },
                {
                    "name": "C#4",
                    "midi": 61,
                    "time": 229.19999999999976,
                    "velocity": 0.5905511811023622,
                    "duration": 0.11750000000000682
                },
                {
                    "name": "D#4",
                    "midi": 63,
                    "time": 229.19999999999976,
                    "velocity": 0.5905511811023622,
                    "duration": 0.11750000000000682
                },
                {
                    "name": "G3",
                    "midi": 55,
                    "time": 229.79999999999976,
                    "velocity": 0.5905511811023622,
                    "duration": 0.11750000000000682
                },
                {
                    "name": "A#3",
                    "midi": 58,
                    "time": 229.79999999999976,
                    "velocity": 0.5905511811023622,
                    "duration": 0.11750000000000682
                },
                {
                    "name": "C#4",
                    "midi": 61,
                    "time": 229.79999999999976,
                    "velocity": 0.5905511811023622,
                    "duration": 0.11750000000000682
                },
                {
                    "name": "D#4",
                    "midi": 63,
                    "time": 229.79999999999976,
                    "velocity": 0.5905511811023622,
                    "duration": 0.11750000000000682
                },
                {
                    "name": "G3",
                    "midi": 55,
                    "time": 230.39999999999975,
                    "velocity": 0.7952755905511811,
                    "duration": 0.11750000000000682
                },
                {
                    "name": "A#3",
                    "midi": 58,
                    "time": 230.39999999999975,
                    "velocity": 0.7952755905511811,
                    "duration": 0.11750000000000682
                },
                {
                    "name": "C#4",
                    "midi": 61,
                    "time": 230.39999999999975,
                    "velocity": 0.7952755905511811,
                    "duration": 0.11750000000000682
                },
                {
                    "name": "D#4",
                    "midi": 63,
                    "time": 230.39999999999975,
                    "velocity": 0.7952755905511811,
                    "duration": 0.11750000000000682
                },
                {
                    "name": "G3",
                    "midi": 55,
                    "time": 230.99999999999974,
                    "velocity": 0.5905511811023622,
                    "duration": 0.11750000000000682
                },
                {
                    "name": "A#3",
                    "midi": 58,
                    "time": 230.99999999999974,
                    "velocity": 0.5905511811023622,
                    "duration": 0.11750000000000682
                },
                {
                    "name": "C#4",
                    "midi": 61,
                    "time": 230.99999999999974,
                    "velocity": 0.5905511811023622,
                    "duration": 0.11750000000000682
                },
                {
                    "name": "D#4",
                    "midi": 63,
                    "time": 230.99999999999974,
                    "velocity": 0.5905511811023622,
                    "duration": 0.11750000000000682
                },
                {
                    "name": "G3",
                    "midi": 55,
                    "time": 231.59999999999974,
                    "velocity": 0.5905511811023622,
                    "duration": 0.11750000000000682
                },
                {
                    "name": "A#3",
                    "midi": 58,
                    "time": 231.59999999999974,
                    "velocity": 0.5905511811023622,
                    "duration": 0.11750000000000682
                },
                {
                    "name": "C#4",
                    "midi": 61,
                    "time": 231.59999999999974,
                    "velocity": 0.5905511811023622,
                    "duration": 0.11750000000000682
                },
                {
                    "name": "D#4",
                    "midi": 63,
                    "time": 231.59999999999974,
                    "velocity": 0.5905511811023622,
                    "duration": 0.11750000000000682
                },
                {
                    "name": "G3",
                    "midi": 55,
                    "time": 232.19999999999973,
                    "velocity": 0.5905511811023622,
                    "duration": 0.11750000000000682
                },
                {
                    "name": "A#3",
                    "midi": 58,
                    "time": 232.19999999999973,
                    "velocity": 0.5905511811023622,
                    "duration": 0.11750000000000682
                },
                {
                    "name": "C#4",
                    "midi": 61,
                    "time": 232.19999999999973,
                    "velocity": 0.5905511811023622,
                    "duration": 0.11750000000000682
                },
                {
                    "name": "D#4",
                    "midi": 63,
                    "time": 232.19999999999973,
                    "velocity": 0.5905511811023622,
                    "duration": 0.11750000000000682
                },
                {
                    "name": "G3",
                    "midi": 55,
                    "time": 232.79999999999973,
                    "velocity": 0.7952755905511811,
                    "duration": 0.11750000000000682
                },
                {
                    "name": "A#3",
                    "midi": 58,
                    "time": 232.79999999999973,
                    "velocity": 0.7952755905511811,
                    "duration": 0.11750000000000682
                },
                {
                    "name": "C#4",
                    "midi": 61,
                    "time": 232.79999999999973,
                    "velocity": 0.7952755905511811,
                    "duration": 0.11750000000000682
                },
                {
                    "name": "D#4",
                    "midi": 63,
                    "time": 232.79999999999973,
                    "velocity": 0.7952755905511811,
                    "duration": 0.11750000000000682
                },
                {
                    "name": "G3",
                    "midi": 55,
                    "time": 233.39999999999972,
                    "velocity": 0.5905511811023622,
                    "duration": 0.11750000000000682
                },
                {
                    "name": "A#3",
                    "midi": 58,
                    "time": 233.39999999999972,
                    "velocity": 0.5905511811023622,
                    "duration": 0.11750000000000682
                },
                {
                    "name": "C#4",
                    "midi": 61,
                    "time": 233.39999999999972,
                    "velocity": 0.5905511811023622,
                    "duration": 0.11750000000000682
                },
                {
                    "name": "D#4",
                    "midi": 63,
                    "time": 233.39999999999972,
                    "velocity": 0.5905511811023622,
                    "duration": 0.11750000000000682
                },
                {
                    "name": "G3",
                    "midi": 55,
                    "time": 233.99999999999972,
                    "velocity": 0.5905511811023622,
                    "duration": 0.11750000000000682
                },
                {
                    "name": "A#3",
                    "midi": 58,
                    "time": 233.99999999999972,
                    "velocity": 0.5905511811023622,
                    "duration": 0.11750000000000682
                },
                {
                    "name": "C#4",
                    "midi": 61,
                    "time": 233.99999999999972,
                    "velocity": 0.5905511811023622,
                    "duration": 0.11750000000000682
                },
                {
                    "name": "D#4",
                    "midi": 63,
                    "time": 233.99999999999972,
                    "velocity": 0.5905511811023622,
                    "duration": 0.11750000000000682
                },
                {
                    "name": "G3",
                    "midi": 55,
                    "time": 234.5999999999997,
                    "velocity": 0.5905511811023622,
                    "duration": 0.11750000000000682
                },
                {
                    "name": "A#3",
                    "midi": 58,
                    "time": 234.5999999999997,
                    "velocity": 0.5905511811023622,
                    "duration": 0.11750000000000682
                },
                {
                    "name": "C#4",
                    "midi": 61,
                    "time": 234.5999999999997,
                    "velocity": 0.5905511811023622,
                    "duration": 0.11750000000000682
                },
                {
                    "name": "D#4",
                    "midi": 63,
                    "time": 234.5999999999997,
                    "velocity": 0.5905511811023622,
                    "duration": 0.11750000000000682
                },
                {
                    "name": "G3",
                    "midi": 55,
                    "time": 235.1999999999997,
                    "velocity": 0.5905511811023622,
                    "duration": 0.11750000000000682
                },
                {
                    "name": "A#3",
                    "midi": 58,
                    "time": 235.1999999999997,
                    "velocity": 0.5905511811023622,
                    "duration": 0.11750000000000682
                },
                {
                    "name": "C#4",
                    "midi": 61,
                    "time": 235.1999999999997,
                    "velocity": 0.5905511811023622,
                    "duration": 0.11750000000000682
                },
                {
                    "name": "D#4",
                    "midi": 63,
                    "time": 235.1999999999997,
                    "velocity": 0.5905511811023622,
                    "duration": 0.11750000000000682
                },
                {
                    "name": "G3",
                    "midi": 55,
                    "time": 235.7999999999997,
                    "velocity": 0.7952755905511811,
                    "duration": 0.11750000000000682
                },
                {
                    "name": "A#3",
                    "midi": 58,
                    "time": 235.7999999999997,
                    "velocity": 0.7952755905511811,
                    "duration": 0.11750000000000682
                },
                {
                    "name": "C#4",
                    "midi": 61,
                    "time": 235.7999999999997,
                    "velocity": 0.7952755905511811,
                    "duration": 0.11750000000000682
                },
                {
                    "name": "D#4",
                    "midi": 63,
                    "time": 235.7999999999997,
                    "velocity": 0.7952755905511811,
                    "duration": 0.11750000000000682
                },
                {
                    "name": "G3",
                    "midi": 55,
                    "time": 236.3999999999997,
                    "velocity": 0.5905511811023622,
                    "duration": 0.11750000000000682
                },
                {
                    "name": "A#3",
                    "midi": 58,
                    "time": 236.3999999999997,
                    "velocity": 0.5905511811023622,
                    "duration": 0.11750000000000682
                },
                {
                    "name": "C#4",
                    "midi": 61,
                    "time": 236.3999999999997,
                    "velocity": 0.5905511811023622,
                    "duration": 0.11750000000000682
                },
                {
                    "name": "D#4",
                    "midi": 63,
                    "time": 236.3999999999997,
                    "velocity": 0.5905511811023622,
                    "duration": 0.11750000000000682
                },
                {
                    "name": "G3",
                    "midi": 55,
                    "time": 236.9999999999997,
                    "velocity": 0.5905511811023622,
                    "duration": 0.11750000000000682
                },
                {
                    "name": "A#3",
                    "midi": 58,
                    "time": 236.9999999999997,
                    "velocity": 0.5905511811023622,
                    "duration": 0.11750000000000682
                },
                {
                    "name": "C#4",
                    "midi": 61,
                    "time": 236.9999999999997,
                    "velocity": 0.5905511811023622,
                    "duration": 0.11750000000000682
                },
                {
                    "name": "D#4",
                    "midi": 63,
                    "time": 236.9999999999997,
                    "velocity": 0.5905511811023622,
                    "duration": 0.11750000000000682
                },
                {
                    "name": "C#4",
                    "midi": 61,
                    "time": 237.59999999999968,
                    "velocity": 0.5905511811023622,
                    "duration": 0.11750000000000682
                },
                {
                    "name": "A#3",
                    "midi": 58,
                    "time": 238.19999999999968,
                    "velocity": 0.5905511811023622,
                    "duration": 0.11750000000000682
                },
                {
                    "name": "D#4",
                    "midi": 63,
                    "time": 238.79999999999967,
                    "velocity": 0.5905511811023622,
                    "duration": 0.11750000000000682
                },
                {
                    "name": "A#3",
                    "midi": 58,
                    "time": 239.39999999999966,
                    "velocity": 0.5905511811023622,
                    "duration": 0.11750000000000682
                },
                {
                    "name": "C#4",
                    "midi": 61,
                    "time": 239.99999999999966,
                    "velocity": 0.5905511811023622,
                    "duration": 0.11750000000000682
                },
                {
                    "name": "A#3",
                    "midi": 58,
                    "time": 240.59999999999965,
                    "velocity": 0.5905511811023622,
                    "duration": 0.11750000000000682
                },
                {
                    "name": "D#4",
                    "midi": 63,
                    "time": 241.19999999999965,
                    "velocity": 0.5905511811023622,
                    "duration": 0.11750000000000682
                },
                {
                    "name": "A#3",
                    "midi": 58,
                    "time": 241.79999999999964,
                    "velocity": 0.5905511811023622,
                    "duration": 0.11750000000000682
                },
                {
                    "name": "C#4",
                    "midi": 61,
                    "time": 242.39999999999964,
                    "velocity": 0.5905511811023622,
                    "duration": 0.11750000000000682
                },
                {
                    "name": "A#3",
                    "midi": 58,
                    "time": 242.99999999999963,
                    "velocity": 0.5905511811023622,
                    "duration": 0.11750000000000682
                },
                {
                    "name": "D#4",
                    "midi": 63,
                    "time": 243.59999999999962,
                    "velocity": 0.5905511811023622,
                    "duration": 0.11750000000000682
                },
                {
                    "name": "A#3",
                    "midi": 58,
                    "time": 244.19999999999962,
                    "velocity": 0.5905511811023622,
                    "duration": 0.11750000000000682
                },
                {
                    "name": "C#4",
                    "midi": 61,
                    "time": 244.7999999999996,
                    "velocity": 0.5905511811023622,
                    "duration": 0.11750000000000682
                },
                {
                    "name": "A#3",
                    "midi": 58,
                    "time": 245.3999999999996,
                    "velocity": 0.5905511811023622,
                    "duration": 0.11750000000000682
                },
                {
                    "name": "D#4",
                    "midi": 63,
                    "time": 245.9999999999996,
                    "velocity": 0.5905511811023622,
                    "duration": 0.11750000000000682
                },
                {
                    "name": "A#3",
                    "midi": 58,
                    "time": 246.5999999999996,
                    "velocity": 0.5905511811023622,
                    "duration": 0.11750000000000682
                },
                {
                    "name": "G3",
                    "midi": 55,
                    "time": 247.1999999999996,
                    "velocity": 0.5905511811023622,
                    "duration": 0.11750000000000682
                },
                {
                    "name": "A#3",
                    "midi": 58,
                    "time": 247.1999999999996,
                    "velocity": 0.5905511811023622,
                    "duration": 0.11750000000000682
                },
                {
                    "name": "C#4",
                    "midi": 61,
                    "time": 247.1999999999996,
                    "velocity": 0.5905511811023622,
                    "duration": 0.11750000000000682
                },
                {
                    "name": "D#4",
                    "midi": 63,
                    "time": 247.1999999999996,
                    "velocity": 0.5905511811023622,
                    "duration": 0.11750000000000682
                },
                {
                    "name": "G3",
                    "midi": 55,
                    "time": 247.79999999999959,
                    "velocity": 0.5905511811023622,
                    "duration": 0.11750000000000682
                },
                {
                    "name": "A#3",
                    "midi": 58,
                    "time": 247.79999999999959,
                    "velocity": 0.5905511811023622,
                    "duration": 0.11750000000000682
                },
                {
                    "name": "C#4",
                    "midi": 61,
                    "time": 247.79999999999959,
                    "velocity": 0.5905511811023622,
                    "duration": 0.11750000000000682
                },
                {
                    "name": "D#4",
                    "midi": 63,
                    "time": 247.79999999999959,
                    "velocity": 0.5905511811023622,
                    "duration": 0.11750000000000682
                },
                {
                    "name": "G3",
                    "midi": 55,
                    "time": 248.39999999999958,
                    "velocity": 0.5905511811023622,
                    "duration": 0.11750000000000682
                },
                {
                    "name": "A#3",
                    "midi": 58,
                    "time": 248.39999999999958,
                    "velocity": 0.5905511811023622,
                    "duration": 0.11750000000000682
                },
                {
                    "name": "C#4",
                    "midi": 61,
                    "time": 248.39999999999958,
                    "velocity": 0.5905511811023622,
                    "duration": 0.11750000000000682
                },
                {
                    "name": "D#4",
                    "midi": 63,
                    "time": 248.39999999999958,
                    "velocity": 0.5905511811023622,
                    "duration": 0.11750000000000682
                },
                {
                    "name": "G3",
                    "midi": 55,
                    "time": 248.99999999999957,
                    "velocity": 0.5905511811023622,
                    "duration": 0.11750000000000682
                },
                {
                    "name": "A#3",
                    "midi": 58,
                    "time": 248.99999999999957,
                    "velocity": 0.5905511811023622,
                    "duration": 0.11750000000000682
                },
                {
                    "name": "C#4",
                    "midi": 61,
                    "time": 248.99999999999957,
                    "velocity": 0.5905511811023622,
                    "duration": 0.11750000000000682
                },
                {
                    "name": "D#4",
                    "midi": 63,
                    "time": 248.99999999999957,
                    "velocity": 0.5905511811023622,
                    "duration": 0.11750000000000682
                },
                {
                    "name": "G3",
                    "midi": 55,
                    "time": 249.59999999999957,
                    "velocity": 0.5905511811023622,
                    "duration": 0.11750000000000682
                },
                {
                    "name": "A#3",
                    "midi": 58,
                    "time": 249.59999999999957,
                    "velocity": 0.5905511811023622,
                    "duration": 0.11750000000000682
                },
                {
                    "name": "C#4",
                    "midi": 61,
                    "time": 249.59999999999957,
                    "velocity": 0.5905511811023622,
                    "duration": 0.11750000000000682
                },
                {
                    "name": "D#4",
                    "midi": 63,
                    "time": 249.59999999999957,
                    "velocity": 0.5905511811023622,
                    "duration": 0.11750000000000682
                },
                {
                    "name": "G3",
                    "midi": 55,
                    "time": 250.19999999999956,
                    "velocity": 0.7952755905511811,
                    "duration": 0.11750000000000682
                },
                {
                    "name": "A#3",
                    "midi": 58,
                    "time": 250.19999999999956,
                    "velocity": 0.7952755905511811,
                    "duration": 0.11750000000000682
                },
                {
                    "name": "C#4",
                    "midi": 61,
                    "time": 250.19999999999956,
                    "velocity": 0.7952755905511811,
                    "duration": 0.11750000000000682
                },
                {
                    "name": "D#4",
                    "midi": 63,
                    "time": 250.19999999999956,
                    "velocity": 0.7952755905511811,
                    "duration": 0.11750000000000682
                },
                {
                    "name": "G3",
                    "midi": 55,
                    "time": 250.79999999999956,
                    "velocity": 0.5905511811023622,
                    "duration": 0.11750000000000682
                },
                {
                    "name": "A#3",
                    "midi": 58,
                    "time": 250.79999999999956,
                    "velocity": 0.5905511811023622,
                    "duration": 0.11750000000000682
                },
                {
                    "name": "C#4",
                    "midi": 61,
                    "time": 250.79999999999956,
                    "velocity": 0.5905511811023622,
                    "duration": 0.11750000000000682
                },
                {
                    "name": "D#4",
                    "midi": 63,
                    "time": 250.79999999999956,
                    "velocity": 0.5905511811023622,
                    "duration": 0.11750000000000682
                },
                {
                    "name": "G3",
                    "midi": 55,
                    "time": 251.39999999999955,
                    "velocity": 0.7952755905511811,
                    "duration": 0.11750000000000682
                },
                {
                    "name": "A#3",
                    "midi": 58,
                    "time": 251.39999999999955,
                    "velocity": 0.7952755905511811,
                    "duration": 0.11750000000000682
                },
                {
                    "name": "C#4",
                    "midi": 61,
                    "time": 251.39999999999955,
                    "velocity": 0.7952755905511811,
                    "duration": 0.11750000000000682
                },
                {
                    "name": "D#4",
                    "midi": 63,
                    "time": 251.39999999999955,
                    "velocity": 0.7952755905511811,
                    "duration": 0.11750000000000682
                },
                {
                    "name": "G3",
                    "midi": 55,
                    "time": 251.99999999999955,
                    "velocity": 0.5905511811023622,
                    "duration": 0.11750000000000682
                },
                {
                    "name": "A#3",
                    "midi": 58,
                    "time": 251.99999999999955,
                    "velocity": 0.5905511811023622,
                    "duration": 0.11750000000000682
                },
                {
                    "name": "C#4",
                    "midi": 61,
                    "time": 251.99999999999955,
                    "velocity": 0.5905511811023622,
                    "duration": 0.11750000000000682
                },
                {
                    "name": "D#4",
                    "midi": 63,
                    "time": 251.99999999999955,
                    "velocity": 0.5905511811023622,
                    "duration": 0.11750000000000682
                },
                {
                    "name": "G3",
                    "midi": 55,
                    "time": 252.59999999999954,
                    "velocity": 0.5905511811023622,
                    "duration": 0.11750000000000682
                },
                {
                    "name": "A#3",
                    "midi": 58,
                    "time": 252.59999999999954,
                    "velocity": 0.5905511811023622,
                    "duration": 0.11750000000000682
                },
                {
                    "name": "C#4",
                    "midi": 61,
                    "time": 252.59999999999954,
                    "velocity": 0.5905511811023622,
                    "duration": 0.11750000000000682
                },
                {
                    "name": "D#4",
                    "midi": 63,
                    "time": 252.59999999999954,
                    "velocity": 0.5905511811023622,
                    "duration": 0.11750000000000682
                },
                {
                    "name": "G3",
                    "midi": 55,
                    "time": 253.19999999999953,
                    "velocity": 0.5905511811023622,
                    "duration": 0.11750000000000682
                },
                {
                    "name": "A#3",
                    "midi": 58,
                    "time": 253.19999999999953,
                    "velocity": 0.5905511811023622,
                    "duration": 0.11750000000000682
                },
                {
                    "name": "C#4",
                    "midi": 61,
                    "time": 253.19999999999953,
                    "velocity": 0.5905511811023622,
                    "duration": 0.11750000000000682
                },
                {
                    "name": "D#4",
                    "midi": 63,
                    "time": 253.19999999999953,
                    "velocity": 0.5905511811023622,
                    "duration": 0.11750000000000682
                },
                {
                    "name": "G3",
                    "midi": 55,
                    "time": 253.79999999999953,
                    "velocity": 0.5905511811023622,
                    "duration": 0.11750000000000682
                },
                {
                    "name": "A#3",
                    "midi": 58,
                    "time": 253.79999999999953,
                    "velocity": 0.5905511811023622,
                    "duration": 0.11750000000000682
                },
                {
                    "name": "C#4",
                    "midi": 61,
                    "time": 253.79999999999953,
                    "velocity": 0.5905511811023622,
                    "duration": 0.11750000000000682
                },
                {
                    "name": "D#4",
                    "midi": 63,
                    "time": 253.79999999999953,
                    "velocity": 0.5905511811023622,
                    "duration": 0.11750000000000682
                },
                {
                    "name": "G3",
                    "midi": 55,
                    "time": 254.39999999999952,
                    "velocity": 0.5905511811023622,
                    "duration": 0.11750000000000682
                },
                {
                    "name": "A#3",
                    "midi": 58,
                    "time": 254.39999999999952,
                    "velocity": 0.5905511811023622,
                    "duration": 0.11750000000000682
                },
                {
                    "name": "C#4",
                    "midi": 61,
                    "time": 254.39999999999952,
                    "velocity": 0.5905511811023622,
                    "duration": 0.11750000000000682
                },
                {
                    "name": "D#4",
                    "midi": 63,
                    "time": 254.39999999999952,
                    "velocity": 0.5905511811023622,
                    "duration": 0.11750000000000682
                },
                {
                    "name": "G3",
                    "midi": 55,
                    "time": 254.99999999999952,
                    "velocity": 0.7952755905511811,
                    "duration": 0.11750000000000682
                },
                {
                    "name": "A#3",
                    "midi": 58,
                    "time": 254.99999999999952,
                    "velocity": 0.7952755905511811,
                    "duration": 0.11750000000000682
                },
                {
                    "name": "C#4",
                    "midi": 61,
                    "time": 254.99999999999952,
                    "velocity": 0.7952755905511811,
                    "duration": 0.11750000000000682
                },
                {
                    "name": "D#4",
                    "midi": 63,
                    "time": 254.99999999999952,
                    "velocity": 0.7952755905511811,
                    "duration": 0.11750000000000682
                },
                {
                    "name": "G3",
                    "midi": 55,
                    "time": 255.5999999999995,
                    "velocity": 0.5905511811023622,
                    "duration": 0.11750000000000682
                },
                {
                    "name": "A#3",
                    "midi": 58,
                    "time": 255.5999999999995,
                    "velocity": 0.5905511811023622,
                    "duration": 0.11750000000000682
                },
                {
                    "name": "C#4",
                    "midi": 61,
                    "time": 255.5999999999995,
                    "velocity": 0.5905511811023622,
                    "duration": 0.11750000000000682
                },
                {
                    "name": "D#4",
                    "midi": 63,
                    "time": 255.5999999999995,
                    "velocity": 0.5905511811023622,
                    "duration": 0.11750000000000682
                },
                {
                    "name": "G3",
                    "midi": 55,
                    "time": 256.19999999999953,
                    "velocity": 0.5905511811023622,
                    "duration": 0.11750000000000682
                },
                {
                    "name": "A#3",
                    "midi": 58,
                    "time": 256.19999999999953,
                    "velocity": 0.5905511811023622,
                    "duration": 0.11750000000000682
                },
                {
                    "name": "C#4",
                    "midi": 61,
                    "time": 256.19999999999953,
                    "velocity": 0.5905511811023622,
                    "duration": 0.11750000000000682
                },
                {
                    "name": "D#4",
                    "midi": 63,
                    "time": 256.19999999999953,
                    "velocity": 0.5905511811023622,
                    "duration": 0.11750000000000682
                },
                {
                    "name": "G3",
                    "midi": 55,
                    "time": 256.79999999999956,
                    "velocity": 0.5905511811023622,
                    "duration": 0.11750000000000682
                },
                {
                    "name": "A#3",
                    "midi": 58,
                    "time": 256.79999999999956,
                    "velocity": 0.5905511811023622,
                    "duration": 0.11750000000000682
                },
                {
                    "name": "C#4",
                    "midi": 61,
                    "time": 256.79999999999956,
                    "velocity": 0.5905511811023622,
                    "duration": 0.11750000000000682
                },
                {
                    "name": "A#3",
                    "midi": 58,
                    "time": 261.59999999999957,
                    "velocity": 0.4881889763779528,
                    "duration": 0.11750000000000682
                },
                {
                    "name": "C#4",
                    "midi": 61,
                    "time": 261.59999999999957,
                    "velocity": 0.4881889763779528,
                    "duration": 0.11750000000000682
                },
                {
                    "name": "A#3",
                    "midi": 58,
                    "time": 262.1999999999996,
                    "velocity": 0.4881889763779528,
                    "duration": 0.11750000000000682
                },
                {
                    "name": "G3",
                    "midi": 55,
                    "time": 262.7999999999996,
                    "velocity": 0.3858267716535433,
                    "duration": 0.11750000000000682
                },
                {
                    "name": "D#4",
                    "midi": 63,
                    "time": 262.7999999999996,
                    "velocity": 0.3858267716535433,
                    "duration": 0.11750000000000682
                },
                {
                    "name": "G3",
                    "midi": 55,
                    "time": 263.39999999999964,
                    "velocity": 0.3858267716535433,
                    "duration": 0.11750000000000682
                },
                {
                    "name": "A#3",
                    "midi": 58,
                    "time": 263.39999999999964,
                    "velocity": 0.3858267716535433,
                    "duration": 0.11750000000000682
                },
                {
                    "name": "A#3",
                    "midi": 58,
                    "time": 266.39999999999964,
                    "velocity": 0.4881889763779528,
                    "duration": 0.11750000000000682
                },
                {
                    "name": "C#4",
                    "midi": 61,
                    "time": 266.39999999999964,
                    "velocity": 0.4881889763779528,
                    "duration": 0.11750000000000682
                },
                {
                    "name": "A#3",
                    "midi": 58,
                    "time": 266.99999999999966,
                    "velocity": 0.4881889763779528,
                    "duration": 0.11750000000000682
                },
                {
                    "name": "G3",
                    "midi": 55,
                    "time": 267.5999999999997,
                    "velocity": 0.4881889763779528,
                    "duration": 0.11750000000000682
                },
                {
                    "name": "D#4",
                    "midi": 63,
                    "time": 267.5999999999997,
                    "velocity": 0.4881889763779528,
                    "duration": 0.11750000000000682
                },
                {
                    "name": "G3",
                    "midi": 55,
                    "time": 268.1999999999997,
                    "velocity": 0.4881889763779528,
                    "duration": 0.11750000000000682
                },
                {
                    "name": "A#3",
                    "midi": 58,
                    "time": 268.1999999999997,
                    "velocity": 0.4881889763779528,
                    "duration": 0.11750000000000682
                },
                {
                    "name": "G3",
                    "midi": 55,
                    "time": 268.7999999999997,
                    "velocity": 0.4881889763779528,
                    "duration": 0.11750000000000682
                },
                {
                    "name": "A#3",
                    "midi": 58,
                    "time": 268.7999999999997,
                    "velocity": 0.4881889763779528,
                    "duration": 0.11750000000000682
                },
                {
                    "name": "C#4",
                    "midi": 61,
                    "time": 268.7999999999997,
                    "velocity": 0.4881889763779528,
                    "duration": 0.11750000000000682
                },
                {
                    "name": "G3",
                    "midi": 55,
                    "time": 269.39999999999975,
                    "velocity": 0.4881889763779528,
                    "duration": 0.11750000000000682
                },
                {
                    "name": "A#3",
                    "midi": 58,
                    "time": 269.39999999999975,
                    "velocity": 0.4881889763779528,
                    "duration": 0.11750000000000682
                },
                {
                    "name": "G3",
                    "midi": 55,
                    "time": 269.9999999999998,
                    "velocity": 0.4881889763779528,
                    "duration": 0.11750000000000682
                },
                {
                    "name": "D#4",
                    "midi": 63,
                    "time": 269.9999999999998,
                    "velocity": 0.4881889763779528,
                    "duration": 0.11750000000000682
                },
                {
                    "name": "G3",
                    "midi": 55,
                    "time": 270.5999999999998,
                    "velocity": 0.4881889763779528,
                    "duration": 0.11750000000000682
                },
                {
                    "name": "A#3",
                    "midi": 58,
                    "time": 270.5999999999998,
                    "velocity": 0.4881889763779528,
                    "duration": 0.11750000000000682
                },
                {
                    "name": "C#4",
                    "midi": 61,
                    "time": 271.1999999999998,
                    "velocity": 0.4881889763779528,
                    "duration": 0.11750000000000682
                },
                {
                    "name": "A#3",
                    "midi": 58,
                    "time": 271.79999999999984,
                    "velocity": 0.4881889763779528,
                    "duration": 0.11750000000000682
                },
                {
                    "name": "D#4",
                    "midi": 63,
                    "time": 272.39999999999986,
                    "velocity": 0.4881889763779528,
                    "duration": 0.11750000000000682
                },
                {
                    "name": "A#3",
                    "midi": 58,
                    "time": 272.9999999999999,
                    "velocity": 0.4881889763779528,
                    "duration": 0.11750000000000682
                },
                {
                    "name": "D#4",
                    "midi": 63,
                    "time": 274.7999999999999,
                    "velocity": 0.4881889763779528,
                    "duration": 0.11750000000000682
                },
                {
                    "name": "A#3",
                    "midi": 58,
                    "time": 275.3999999999999,
                    "velocity": 0.4881889763779528,
                    "duration": 0.11750000000000682
                },
                {
                    "name": "D4",
                    "midi": 62,
                    "time": 277.19999999999993,
                    "velocity": 0.4881889763779528,
                    "duration": 0.39749999999997954
                },
                {
                    "name": "G4",
                    "midi": 67,
                    "time": 277.19999999999993,
                    "velocity": 0.4881889763779528,
                    "duration": 0.39749999999997954
                },
                {
                    "name": "E4",
                    "midi": 64,
                    "time": 277.5974999999999,
                    "velocity": 0.4881889763779528,
                    "duration": 0.402499999999975
                },
                {
                    "name": "C4",
                    "midi": 60,
                    "time": 277.9999999999999,
                    "velocity": 0.4881889763779528,
                    "duration": 0.39999999999997726
                },
                {
                    "name": "C#4",
                    "midi": 61,
                    "time": 278.39999999999986,
                    "velocity": 0.4881889763779528,
                    "duration": 0.11750000000000682
                },
                {
                    "name": "E4",
                    "midi": 64,
                    "time": 278.39999999999986,
                    "velocity": 0.4881889763779528,
                    "duration": 0.11750000000000682
                },
                {
                    "name": "G4",
                    "midi": 67,
                    "time": 278.39999999999986,
                    "velocity": 0.4881889763779528,
                    "duration": 0.11750000000000682
                },
                {
                    "name": "A#3",
                    "midi": 58,
                    "time": 278.9999999999999,
                    "velocity": 0.4881889763779528,
                    "duration": 0.11750000000000682
                },
                {
                    "name": "C#4",
                    "midi": 61,
                    "time": 285.5999999999999,
                    "velocity": 0.4881889763779528,
                    "duration": 0.11750000000000682
                },
                {
                    "name": "G3",
                    "midi": 55,
                    "time": 299.99999999999994,
                    "velocity": 0.5905511811023622,
                    "duration": 0.11750000000000682
                },
                {
                    "name": "A#3",
                    "midi": 58,
                    "time": 299.99999999999994,
                    "velocity": 0.5905511811023622,
                    "duration": 0.11750000000000682
                },
                {
                    "name": "C#4",
                    "midi": 61,
                    "time": 299.99999999999994,
                    "velocity": 0.5905511811023622,
                    "duration": 0.11750000000000682
                },
                {
                    "name": "D#4",
                    "midi": 63,
                    "time": 299.99999999999994,
                    "velocity": 0.5905511811023622,
                    "duration": 0.11750000000000682
                },
                {
                    "name": "G3",
                    "midi": 55,
                    "time": 300.59999999999997,
                    "velocity": 0.5905511811023622,
                    "duration": 0.11750000000000682
                },
                {
                    "name": "A#3",
                    "midi": 58,
                    "time": 300.59999999999997,
                    "velocity": 0.5905511811023622,
                    "duration": 0.11750000000000682
                },
                {
                    "name": "C#4",
                    "midi": 61,
                    "time": 300.59999999999997,
                    "velocity": 0.5905511811023622,
                    "duration": 0.11750000000000682
                },
                {
                    "name": "D#4",
                    "midi": 63,
                    "time": 300.59999999999997,
                    "velocity": 0.5905511811023622,
                    "duration": 0.11750000000000682
                },
                {
                    "name": "G3",
                    "midi": 55,
                    "time": 301.2,
                    "velocity": 0.5905511811023622,
                    "duration": 0.11750000000000682
                },
                {
                    "name": "A#3",
                    "midi": 58,
                    "time": 301.2,
                    "velocity": 0.5905511811023622,
                    "duration": 0.11750000000000682
                },
                {
                    "name": "C#4",
                    "midi": 61,
                    "time": 301.2,
                    "velocity": 0.5905511811023622,
                    "duration": 0.11750000000000682
                },
                {
                    "name": "D#4",
                    "midi": 63,
                    "time": 301.2,
                    "velocity": 0.5905511811023622,
                    "duration": 0.11750000000000682
                },
                {
                    "name": "G3",
                    "midi": 55,
                    "time": 301.8,
                    "velocity": 0.5905511811023622,
                    "duration": 0.11750000000000682
                },
                {
                    "name": "A#3",
                    "midi": 58,
                    "time": 301.8,
                    "velocity": 0.5905511811023622,
                    "duration": 0.11750000000000682
                },
                {
                    "name": "C#4",
                    "midi": 61,
                    "time": 301.8,
                    "velocity": 0.5905511811023622,
                    "duration": 0.11750000000000682
                },
                {
                    "name": "D#4",
                    "midi": 63,
                    "time": 301.8,
                    "velocity": 0.5905511811023622,
                    "duration": 0.11750000000000682
                },
                {
                    "name": "G3",
                    "midi": 55,
                    "time": 302.40000000000003,
                    "velocity": 0.5905511811023622,
                    "duration": 0.11750000000000682
                },
                {
                    "name": "A#3",
                    "midi": 58,
                    "time": 302.40000000000003,
                    "velocity": 0.5905511811023622,
                    "duration": 0.11750000000000682
                },
                {
                    "name": "C#4",
                    "midi": 61,
                    "time": 302.40000000000003,
                    "velocity": 0.5905511811023622,
                    "duration": 0.11750000000000682
                },
                {
                    "name": "D#4",
                    "midi": 63,
                    "time": 302.40000000000003,
                    "velocity": 0.5905511811023622,
                    "duration": 0.11750000000000682
                },
                {
                    "name": "G3",
                    "midi": 55,
                    "time": 303.00000000000006,
                    "velocity": 0.5905511811023622,
                    "duration": 0.11750000000000682
                },
                {
                    "name": "A#3",
                    "midi": 58,
                    "time": 303.00000000000006,
                    "velocity": 0.5905511811023622,
                    "duration": 0.11750000000000682
                },
                {
                    "name": "C#4",
                    "midi": 61,
                    "time": 303.00000000000006,
                    "velocity": 0.5905511811023622,
                    "duration": 0.11750000000000682
                },
                {
                    "name": "D#4",
                    "midi": 63,
                    "time": 303.00000000000006,
                    "velocity": 0.5905511811023622,
                    "duration": 0.11750000000000682
                },
                {
                    "name": "G3",
                    "midi": 55,
                    "time": 303.6000000000001,
                    "velocity": 0.5905511811023622,
                    "duration": 0.11750000000000682
                },
                {
                    "name": "A#3",
                    "midi": 58,
                    "time": 303.6000000000001,
                    "velocity": 0.5905511811023622,
                    "duration": 0.11750000000000682
                },
                {
                    "name": "C#4",
                    "midi": 61,
                    "time": 303.6000000000001,
                    "velocity": 0.5905511811023622,
                    "duration": 0.11750000000000682
                },
                {
                    "name": "D#4",
                    "midi": 63,
                    "time": 303.6000000000001,
                    "velocity": 0.5905511811023622,
                    "duration": 0.11750000000000682
                },
                {
                    "name": "G3",
                    "midi": 55,
                    "time": 304.2000000000001,
                    "velocity": 0.5905511811023622,
                    "duration": 0.11750000000000682
                },
                {
                    "name": "A#3",
                    "midi": 58,
                    "time": 304.2000000000001,
                    "velocity": 0.5905511811023622,
                    "duration": 0.11750000000000682
                },
                {
                    "name": "C#4",
                    "midi": 61,
                    "time": 304.2000000000001,
                    "velocity": 0.5905511811023622,
                    "duration": 0.11750000000000682
                },
                {
                    "name": "D#4",
                    "midi": 63,
                    "time": 304.2000000000001,
                    "velocity": 0.5905511811023622,
                    "duration": 0.11750000000000682
                },
                {
                    "name": "G3",
                    "midi": 55,
                    "time": 304.8000000000001,
                    "velocity": 0.5905511811023622,
                    "duration": 0.11750000000000682
                },
                {
                    "name": "A#3",
                    "midi": 58,
                    "time": 304.8000000000001,
                    "velocity": 0.5905511811023622,
                    "duration": 0.11750000000000682
                },
                {
                    "name": "C#4",
                    "midi": 61,
                    "time": 304.8000000000001,
                    "velocity": 0.5905511811023622,
                    "duration": 0.11750000000000682
                },
                {
                    "name": "D#4",
                    "midi": 63,
                    "time": 304.8000000000001,
                    "velocity": 0.5905511811023622,
                    "duration": 0.11750000000000682
                },
                {
                    "name": "G3",
                    "midi": 55,
                    "time": 305.40000000000015,
                    "velocity": 0.7952755905511811,
                    "duration": 0.11750000000000682
                },
                {
                    "name": "A#3",
                    "midi": 58,
                    "time": 305.40000000000015,
                    "velocity": 0.7952755905511811,
                    "duration": 0.11750000000000682
                },
                {
                    "name": "C#4",
                    "midi": 61,
                    "time": 305.40000000000015,
                    "velocity": 0.7952755905511811,
                    "duration": 0.11750000000000682
                },
                {
                    "name": "D#4",
                    "midi": 63,
                    "time": 305.40000000000015,
                    "velocity": 0.7952755905511811,
                    "duration": 0.11750000000000682
                },
                {
                    "name": "G3",
                    "midi": 55,
                    "time": 306.00000000000017,
                    "velocity": 0.5905511811023622,
                    "duration": 0.11750000000000682
                },
                {
                    "name": "A#3",
                    "midi": 58,
                    "time": 306.00000000000017,
                    "velocity": 0.5905511811023622,
                    "duration": 0.11750000000000682
                },
                {
                    "name": "C#4",
                    "midi": 61,
                    "time": 306.00000000000017,
                    "velocity": 0.5905511811023622,
                    "duration": 0.11750000000000682
                },
                {
                    "name": "D#4",
                    "midi": 63,
                    "time": 306.00000000000017,
                    "velocity": 0.5905511811023622,
                    "duration": 0.11750000000000682
                },
                {
                    "name": "G3",
                    "midi": 55,
                    "time": 306.6000000000002,
                    "velocity": 0.7952755905511811,
                    "duration": 0.11750000000000682
                },
                {
                    "name": "A#3",
                    "midi": 58,
                    "time": 306.6000000000002,
                    "velocity": 0.7952755905511811,
                    "duration": 0.11750000000000682
                },
                {
                    "name": "C#4",
                    "midi": 61,
                    "time": 306.6000000000002,
                    "velocity": 0.7952755905511811,
                    "duration": 0.11750000000000682
                },
                {
                    "name": "D#4",
                    "midi": 63,
                    "time": 306.6000000000002,
                    "velocity": 0.7952755905511811,
                    "duration": 0.11750000000000682
                },
                {
                    "name": "G3",
                    "midi": 55,
                    "time": 307.2000000000002,
                    "velocity": 0.5905511811023622,
                    "duration": 0.11750000000000682
                },
                {
                    "name": "A#3",
                    "midi": 58,
                    "time": 307.2000000000002,
                    "velocity": 0.5905511811023622,
                    "duration": 0.11750000000000682
                },
                {
                    "name": "C#4",
                    "midi": 61,
                    "time": 307.2000000000002,
                    "velocity": 0.5905511811023622,
                    "duration": 0.11750000000000682
                },
                {
                    "name": "D#4",
                    "midi": 63,
                    "time": 307.2000000000002,
                    "velocity": 0.5905511811023622,
                    "duration": 0.11750000000000682
                },
                {
                    "name": "G3",
                    "midi": 55,
                    "time": 307.80000000000024,
                    "velocity": 0.5905511811023622,
                    "duration": 0.11750000000000682
                },
                {
                    "name": "A#3",
                    "midi": 58,
                    "time": 307.80000000000024,
                    "velocity": 0.5905511811023622,
                    "duration": 0.11750000000000682
                },
                {
                    "name": "C#4",
                    "midi": 61,
                    "time": 307.80000000000024,
                    "velocity": 0.5905511811023622,
                    "duration": 0.11750000000000682
                },
                {
                    "name": "D#4",
                    "midi": 63,
                    "time": 307.80000000000024,
                    "velocity": 0.5905511811023622,
                    "duration": 0.11750000000000682
                },
                {
                    "name": "G3",
                    "midi": 55,
                    "time": 308.40000000000026,
                    "velocity": 0.5905511811023622,
                    "duration": 0.11750000000000682
                },
                {
                    "name": "A#3",
                    "midi": 58,
                    "time": 308.40000000000026,
                    "velocity": 0.5905511811023622,
                    "duration": 0.11750000000000682
                },
                {
                    "name": "C#4",
                    "midi": 61,
                    "time": 308.40000000000026,
                    "velocity": 0.5905511811023622,
                    "duration": 0.11750000000000682
                },
                {
                    "name": "D#4",
                    "midi": 63,
                    "time": 308.40000000000026,
                    "velocity": 0.5905511811023622,
                    "duration": 0.11750000000000682
                },
                {
                    "name": "G3",
                    "midi": 55,
                    "time": 309.0000000000003,
                    "velocity": 0.5905511811023622,
                    "duration": 0.11750000000000682
                },
                {
                    "name": "A#3",
                    "midi": 58,
                    "time": 309.0000000000003,
                    "velocity": 0.5905511811023622,
                    "duration": 0.11750000000000682
                },
                {
                    "name": "C#4",
                    "midi": 61,
                    "time": 309.0000000000003,
                    "velocity": 0.5905511811023622,
                    "duration": 0.11750000000000682
                },
                {
                    "name": "D#4",
                    "midi": 63,
                    "time": 309.0000000000003,
                    "velocity": 0.5905511811023622,
                    "duration": 0.11750000000000682
                },
                {
                    "name": "G3",
                    "midi": 55,
                    "time": 309.6000000000003,
                    "velocity": 0.5905511811023622,
                    "duration": 0.11750000000000682
                },
                {
                    "name": "A#3",
                    "midi": 58,
                    "time": 309.6000000000003,
                    "velocity": 0.5905511811023622,
                    "duration": 0.11750000000000682
                },
                {
                    "name": "C#4",
                    "midi": 61,
                    "time": 309.6000000000003,
                    "velocity": 0.5905511811023622,
                    "duration": 0.11750000000000682
                },
                {
                    "name": "D#4",
                    "midi": 63,
                    "time": 309.6000000000003,
                    "velocity": 0.5905511811023622,
                    "duration": 0.11750000000000682
                },
                {
                    "name": "G3",
                    "midi": 55,
                    "time": 310.20000000000033,
                    "velocity": 0.7952755905511811,
                    "duration": 0.11750000000000682
                },
                {
                    "name": "A#3",
                    "midi": 58,
                    "time": 310.20000000000033,
                    "velocity": 0.7952755905511811,
                    "duration": 0.11750000000000682
                },
                {
                    "name": "C#4",
                    "midi": 61,
                    "time": 310.20000000000033,
                    "velocity": 0.7952755905511811,
                    "duration": 0.11750000000000682
                },
                {
                    "name": "D#4",
                    "midi": 63,
                    "time": 310.20000000000033,
                    "velocity": 0.7952755905511811,
                    "duration": 0.11750000000000682
                },
                {
                    "name": "G3",
                    "midi": 55,
                    "time": 310.80000000000035,
                    "velocity": 0.5905511811023622,
                    "duration": 0.11750000000000682
                },
                {
                    "name": "A#3",
                    "midi": 58,
                    "time": 310.80000000000035,
                    "velocity": 0.5905511811023622,
                    "duration": 0.11750000000000682
                },
                {
                    "name": "C#4",
                    "midi": 61,
                    "time": 310.80000000000035,
                    "velocity": 0.5905511811023622,
                    "duration": 0.11750000000000682
                },
                {
                    "name": "D#4",
                    "midi": 63,
                    "time": 310.80000000000035,
                    "velocity": 0.5905511811023622,
                    "duration": 0.11750000000000682
                },
                {
                    "name": "G3",
                    "midi": 55,
                    "time": 311.4000000000004,
                    "velocity": 0.5905511811023622,
                    "duration": 0.11750000000000682
                },
                {
                    "name": "A#3",
                    "midi": 58,
                    "time": 311.4000000000004,
                    "velocity": 0.5905511811023622,
                    "duration": 0.11750000000000682
                },
                {
                    "name": "C#4",
                    "midi": 61,
                    "time": 311.4000000000004,
                    "velocity": 0.5905511811023622,
                    "duration": 0.11750000000000682
                },
                {
                    "name": "D#4",
                    "midi": 63,
                    "time": 311.4000000000004,
                    "velocity": 0.5905511811023622,
                    "duration": 0.11750000000000682
                },
                {
                    "name": "G3",
                    "midi": 55,
                    "time": 312.0000000000004,
                    "velocity": 0.7952755905511811,
                    "duration": 0.11750000000000682
                },
                {
                    "name": "A#3",
                    "midi": 58,
                    "time": 312.0000000000004,
                    "velocity": 0.7952755905511811,
                    "duration": 0.11750000000000682
                },
                {
                    "name": "C#4",
                    "midi": 61,
                    "time": 312.0000000000004,
                    "velocity": 0.7952755905511811,
                    "duration": 0.11750000000000682
                },
                {
                    "name": "D#4",
                    "midi": 63,
                    "time": 312.0000000000004,
                    "velocity": 0.7952755905511811,
                    "duration": 0.11750000000000682
                },
                {
                    "name": "G3",
                    "midi": 55,
                    "time": 312.6000000000004,
                    "velocity": 0.5905511811023622,
                    "duration": 0.11750000000000682
                },
                {
                    "name": "A#3",
                    "midi": 58,
                    "time": 312.6000000000004,
                    "velocity": 0.5905511811023622,
                    "duration": 0.11750000000000682
                },
                {
                    "name": "C#4",
                    "midi": 61,
                    "time": 312.6000000000004,
                    "velocity": 0.5905511811023622,
                    "duration": 0.11750000000000682
                },
                {
                    "name": "D#4",
                    "midi": 63,
                    "time": 312.6000000000004,
                    "velocity": 0.5905511811023622,
                    "duration": 0.11750000000000682
                },
                {
                    "name": "G3",
                    "midi": 55,
                    "time": 313.20000000000044,
                    "velocity": 0.5905511811023622,
                    "duration": 0.11750000000000682
                },
                {
                    "name": "A#3",
                    "midi": 58,
                    "time": 313.20000000000044,
                    "velocity": 0.5905511811023622,
                    "duration": 0.11750000000000682
                },
                {
                    "name": "C#4",
                    "midi": 61,
                    "time": 313.20000000000044,
                    "velocity": 0.5905511811023622,
                    "duration": 0.11750000000000682
                },
                {
                    "name": "D#4",
                    "midi": 63,
                    "time": 313.20000000000044,
                    "velocity": 0.5905511811023622,
                    "duration": 0.11750000000000682
                },
                {
                    "name": "G3",
                    "midi": 55,
                    "time": 313.80000000000047,
                    "velocity": 0.5905511811023622,
                    "duration": 0.11750000000000682
                },
                {
                    "name": "A#3",
                    "midi": 58,
                    "time": 313.80000000000047,
                    "velocity": 0.5905511811023622,
                    "duration": 0.11750000000000682
                },
                {
                    "name": "C#4",
                    "midi": 61,
                    "time": 313.80000000000047,
                    "velocity": 0.5905511811023622,
                    "duration": 0.11750000000000682
                },
                {
                    "name": "D#4",
                    "midi": 63,
                    "time": 313.80000000000047,
                    "velocity": 0.5905511811023622,
                    "duration": 0.11750000000000682
                },
                {
                    "name": "G3",
                    "midi": 55,
                    "time": 314.4000000000005,
                    "velocity": 0.7952755905511811,
                    "duration": 0.11750000000000682
                },
                {
                    "name": "A#3",
                    "midi": 58,
                    "time": 314.4000000000005,
                    "velocity": 0.7952755905511811,
                    "duration": 0.11750000000000682
                },
                {
                    "name": "C#4",
                    "midi": 61,
                    "time": 314.4000000000005,
                    "velocity": 0.7952755905511811,
                    "duration": 0.11750000000000682
                },
                {
                    "name": "D#4",
                    "midi": 63,
                    "time": 314.4000000000005,
                    "velocity": 0.7952755905511811,
                    "duration": 0.11750000000000682
                },
                {
                    "name": "G3",
                    "midi": 55,
                    "time": 315.0000000000005,
                    "velocity": 0.5905511811023622,
                    "duration": 0.11750000000000682
                },
                {
                    "name": "A#3",
                    "midi": 58,
                    "time": 315.0000000000005,
                    "velocity": 0.5905511811023622,
                    "duration": 0.11750000000000682
                },
                {
                    "name": "C#4",
                    "midi": 61,
                    "time": 315.0000000000005,
                    "velocity": 0.5905511811023622,
                    "duration": 0.11750000000000682
                },
                {
                    "name": "D#4",
                    "midi": 63,
                    "time": 315.0000000000005,
                    "velocity": 0.5905511811023622,
                    "duration": 0.11750000000000682
                },
                {
                    "name": "G3",
                    "midi": 55,
                    "time": 315.60000000000053,
                    "velocity": 0.5905511811023622,
                    "duration": 0.11750000000000682
                },
                {
                    "name": "A#3",
                    "midi": 58,
                    "time": 315.60000000000053,
                    "velocity": 0.5905511811023622,
                    "duration": 0.11750000000000682
                },
                {
                    "name": "C#4",
                    "midi": 61,
                    "time": 315.60000000000053,
                    "velocity": 0.5905511811023622,
                    "duration": 0.11750000000000682
                },
                {
                    "name": "D#4",
                    "midi": 63,
                    "time": 315.60000000000053,
                    "velocity": 0.5905511811023622,
                    "duration": 0.11750000000000682
                },
                {
                    "name": "G3",
                    "midi": 55,
                    "time": 316.20000000000056,
                    "velocity": 0.5905511811023622,
                    "duration": 0.11750000000000682
                },
                {
                    "name": "A#3",
                    "midi": 58,
                    "time": 316.20000000000056,
                    "velocity": 0.5905511811023622,
                    "duration": 0.11750000000000682
                },
                {
                    "name": "C#4",
                    "midi": 61,
                    "time": 316.20000000000056,
                    "velocity": 0.5905511811023622,
                    "duration": 0.11750000000000682
                },
                {
                    "name": "D#4",
                    "midi": 63,
                    "time": 316.20000000000056,
                    "velocity": 0.5905511811023622,
                    "duration": 0.11750000000000682
                },
                {
                    "name": "G3",
                    "midi": 55,
                    "time": 316.8000000000006,
                    "velocity": 0.5905511811023622,
                    "duration": 0.11750000000000682
                },
                {
                    "name": "A#3",
                    "midi": 58,
                    "time": 316.8000000000006,
                    "velocity": 0.5905511811023622,
                    "duration": 0.11750000000000682
                },
                {
                    "name": "C#4",
                    "midi": 61,
                    "time": 316.8000000000006,
                    "velocity": 0.5905511811023622,
                    "duration": 0.11750000000000682
                },
                {
                    "name": "D#4",
                    "midi": 63,
                    "time": 316.8000000000006,
                    "velocity": 0.5905511811023622,
                    "duration": 0.11750000000000682
                },
                {
                    "name": "G3",
                    "midi": 55,
                    "time": 317.4000000000006,
                    "velocity": 0.7952755905511811,
                    "duration": 0.11750000000000682
                },
                {
                    "name": "A#3",
                    "midi": 58,
                    "time": 317.4000000000006,
                    "velocity": 0.7952755905511811,
                    "duration": 0.11750000000000682
                },
                {
                    "name": "C#4",
                    "midi": 61,
                    "time": 317.4000000000006,
                    "velocity": 0.7952755905511811,
                    "duration": 0.11750000000000682
                },
                {
                    "name": "D#4",
                    "midi": 63,
                    "time": 317.4000000000006,
                    "velocity": 0.7952755905511811,
                    "duration": 0.11750000000000682
                },
                {
                    "name": "G3",
                    "midi": 55,
                    "time": 318.0000000000006,
                    "velocity": 0.5905511811023622,
                    "duration": 0.11750000000000682
                },
                {
                    "name": "A#3",
                    "midi": 58,
                    "time": 318.0000000000006,
                    "velocity": 0.5905511811023622,
                    "duration": 0.11750000000000682
                },
                {
                    "name": "C#4",
                    "midi": 61,
                    "time": 318.0000000000006,
                    "velocity": 0.5905511811023622,
                    "duration": 0.11750000000000682
                },
                {
                    "name": "D#4",
                    "midi": 63,
                    "time": 318.0000000000006,
                    "velocity": 0.5905511811023622,
                    "duration": 0.11750000000000682
                },
                {
                    "name": "G3",
                    "midi": 55,
                    "time": 318.60000000000065,
                    "velocity": 0.5905511811023622,
                    "duration": 0.11750000000000682
                },
                {
                    "name": "A#3",
                    "midi": 58,
                    "time": 318.60000000000065,
                    "velocity": 0.5905511811023622,
                    "duration": 0.11750000000000682
                },
                {
                    "name": "C#4",
                    "midi": 61,
                    "time": 318.60000000000065,
                    "velocity": 0.5905511811023622,
                    "duration": 0.11750000000000682
                },
                {
                    "name": "D#4",
                    "midi": 63,
                    "time": 318.60000000000065,
                    "velocity": 0.5905511811023622,
                    "duration": 0.11750000000000682
                },
                {
                    "name": "G3",
                    "midi": 55,
                    "time": 319.20000000000067,
                    "velocity": 0.3858267716535433,
                    "duration": 0.11750000000000682
                },
                {
                    "name": "A#3",
                    "midi": 58,
                    "time": 319.20000000000067,
                    "velocity": 0.3858267716535433,
                    "duration": 0.11750000000000682
                },
                {
                    "name": "C#4",
                    "midi": 61,
                    "time": 319.20000000000067,
                    "velocity": 0.3858267716535433,
                    "duration": 0.11750000000000682
                },
                {
                    "name": "D#4",
                    "midi": 63,
                    "time": 319.20000000000067,
                    "velocity": 0.3858267716535433,
                    "duration": 0.11750000000000682
                },
                {
                    "name": "A#2",
                    "midi": 46,
                    "time": 319.8000000000007,
                    "velocity": 0.8976377952755905,
                    "duration": 0.11750000000000682
                },
                {
                    "name": "A#2",
                    "midi": 46,
                    "time": 320.4000000000007,
                    "velocity": 0.6929133858267716,
                    "duration": 0.11750000000000682
                },
                {
                    "name": "A#2",
                    "midi": 46,
                    "time": 321.00000000000074,
                    "velocity": 0.8976377952755905,
                    "duration": 0.11750000000000682
                },
                {
                    "name": "A#2",
                    "midi": 46,
                    "time": 321.60000000000076,
                    "velocity": 0.6929133858267716,
                    "duration": 0.11750000000000682
                },
                {
                    "name": "A#2",
                    "midi": 46,
                    "time": 322.2000000000008,
                    "velocity": 0.8976377952755905,
                    "duration": 0.11750000000000682
                },
                {
                    "name": "A#2",
                    "midi": 46,
                    "time": 322.8000000000008,
                    "velocity": 0.6929133858267716,
                    "duration": 0.11750000000000682
                },
                {
                    "name": "A#2",
                    "midi": 46,
                    "time": 323.40000000000083,
                    "velocity": 0.8976377952755905,
                    "duration": 0.11750000000000682
                },
                {
                    "name": "A#2",
                    "midi": 46,
                    "time": 324.00000000000085,
                    "velocity": 0.8976377952755905,
                    "duration": 0.11750000000000682
                },
                {
                    "name": "G#2",
                    "midi": 44,
                    "time": 324.6000000000009,
                    "velocity": 0.6929133858267716,
                    "duration": 0.11750000000000682
                },
                {
                    "name": "G2",
                    "midi": 43,
                    "time": 325.2000000000009,
                    "velocity": 0.6929133858267716,
                    "duration": 0.11750000000000682
                },
                {
                    "name": "F2",
                    "midi": 41,
                    "time": 325.8000000000009,
                    "velocity": 0.6929133858267716,
                    "duration": 0.11750000000000682
                },
                {
                    "name": "G2",
                    "midi": 43,
                    "time": 326.40000000000094,
                    "velocity": 0.6929133858267716,
                    "duration": 0.6000000000000227
                },
                {
                    "name": "G3",
                    "midi": 55,
                    "time": 327.00000000000097,
                    "velocity": 0.7952755905511811,
                    "duration": 0.11750000000000682
                },
                {
                    "name": "A#3",
                    "midi": 58,
                    "time": 327.00000000000097,
                    "velocity": 0.7952755905511811,
                    "duration": 0.11750000000000682
                },
                {
                    "name": "C#4",
                    "midi": 61,
                    "time": 327.00000000000097,
                    "velocity": 0.7952755905511811,
                    "duration": 0.11750000000000682
                },
                {
                    "name": "D#4",
                    "midi": 63,
                    "time": 327.00000000000097,
                    "velocity": 0.7952755905511811,
                    "duration": 0.11750000000000682
                },
                {
                    "name": "G3",
                    "midi": 55,
                    "time": 327.600000000001,
                    "velocity": 0.5905511811023622,
                    "duration": 0.11750000000000682
                },
                {
                    "name": "A#3",
                    "midi": 58,
                    "time": 327.600000000001,
                    "velocity": 0.5905511811023622,
                    "duration": 0.11750000000000682
                },
                {
                    "name": "C#4",
                    "midi": 61,
                    "time": 327.600000000001,
                    "velocity": 0.5905511811023622,
                    "duration": 0.11750000000000682
                },
                {
                    "name": "D#4",
                    "midi": 63,
                    "time": 327.600000000001,
                    "velocity": 0.5905511811023622,
                    "duration": 0.11750000000000682
                },
                {
                    "name": "G3",
                    "midi": 55,
                    "time": 328.200000000001,
                    "velocity": 0.7952755905511811,
                    "duration": 0.11750000000000682
                },
                {
                    "name": "A#3",
                    "midi": 58,
                    "time": 328.200000000001,
                    "velocity": 0.7952755905511811,
                    "duration": 0.11750000000000682
                },
                {
                    "name": "C#4",
                    "midi": 61,
                    "time": 328.200000000001,
                    "velocity": 0.7952755905511811,
                    "duration": 0.11750000000000682
                },
                {
                    "name": "D#4",
                    "midi": 63,
                    "time": 328.200000000001,
                    "velocity": 0.7952755905511811,
                    "duration": 0.11750000000000682
                },
                {
                    "name": "G3",
                    "midi": 55,
                    "time": 328.80000000000103,
                    "velocity": 0.3858267716535433,
                    "duration": 0.11750000000000682
                },
                {
                    "name": "A#3",
                    "midi": 58,
                    "time": 328.80000000000103,
                    "velocity": 0.3858267716535433,
                    "duration": 0.11750000000000682
                },
                {
                    "name": "C#4",
                    "midi": 61,
                    "time": 328.80000000000103,
                    "velocity": 0.3858267716535433,
                    "duration": 0.11750000000000682
                },
                {
                    "name": "D#4",
                    "midi": 63,
                    "time": 328.80000000000103,
                    "velocity": 0.3858267716535433,
                    "duration": 0.11750000000000682
                },
                {
                    "name": "G3",
                    "midi": 55,
                    "time": 329.40000000000106,
                    "velocity": 0.3858267716535433,
                    "duration": 0.11750000000000682
                },
                {
                    "name": "A#3",
                    "midi": 58,
                    "time": 329.40000000000106,
                    "velocity": 0.3858267716535433,
                    "duration": 0.11750000000000682
                },
                {
                    "name": "C#4",
                    "midi": 61,
                    "time": 329.40000000000106,
                    "velocity": 0.3858267716535433,
                    "duration": 0.11750000000000682
                },
                {
                    "name": "D#4",
                    "midi": 63,
                    "time": 329.40000000000106,
                    "velocity": 0.3858267716535433,
                    "duration": 0.11750000000000682
                },
                {
                    "name": "G3",
                    "midi": 55,
                    "time": 330.0000000000011,
                    "velocity": 0.3858267716535433,
                    "duration": 0.11750000000000682
                },
                {
                    "name": "A#3",
                    "midi": 58,
                    "time": 330.0000000000011,
                    "velocity": 0.3858267716535433,
                    "duration": 0.11750000000000682
                },
                {
                    "name": "C#4",
                    "midi": 61,
                    "time": 330.0000000000011,
                    "velocity": 0.3858267716535433,
                    "duration": 0.11750000000000682
                },
                {
                    "name": "D#4",
                    "midi": 63,
                    "time": 330.0000000000011,
                    "velocity": 0.3858267716535433,
                    "duration": 0.11750000000000682
                },
                {
                    "name": "G3",
                    "midi": 55,
                    "time": 330.6000000000011,
                    "velocity": 0.3858267716535433,
                    "duration": 0.11750000000000682
                },
                {
                    "name": "A#3",
                    "midi": 58,
                    "time": 330.6000000000011,
                    "velocity": 0.3858267716535433,
                    "duration": 0.11750000000000682
                },
                {
                    "name": "C#4",
                    "midi": 61,
                    "time": 330.6000000000011,
                    "velocity": 0.3858267716535433,
                    "duration": 0.11750000000000682
                },
                {
                    "name": "D#4",
                    "midi": 63,
                    "time": 330.6000000000011,
                    "velocity": 0.3858267716535433,
                    "duration": 0.11750000000000682
                },
                {
                    "name": "G3",
                    "midi": 55,
                    "time": 331.2000000000011,
                    "velocity": 0.3858267716535433,
                    "duration": 0.11750000000000682
                },
                {
                    "name": "A#3",
                    "midi": 58,
                    "time": 331.2000000000011,
                    "velocity": 0.3858267716535433,
                    "duration": 0.11750000000000682
                },
                {
                    "name": "C#4",
                    "midi": 61,
                    "time": 331.2000000000011,
                    "velocity": 0.3858267716535433,
                    "duration": 0.11750000000000682
                },
                {
                    "name": "D#4",
                    "midi": 63,
                    "time": 331.2000000000011,
                    "velocity": 0.3858267716535433,
                    "duration": 0.11750000000000682
                },
                {
                    "name": "F2",
                    "midi": 41,
                    "time": 331.80000000000115,
                    "velocity": 0.8976377952755905,
                    "duration": 0.11750000000000682
                },
                {
                    "name": "G2",
                    "midi": 43,
                    "time": 332.40000000000117,
                    "velocity": 0.6929133858267716,
                    "duration": 0.11750000000000682
                },
                {
                    "name": "G#2",
                    "midi": 44,
                    "time": 333.0000000000012,
                    "velocity": 0.8976377952755905,
                    "duration": 0.11750000000000682
                },
                {
                    "name": "A#2",
                    "midi": 46,
                    "time": 333.6000000000012,
                    "velocity": 0.6929133858267716,
                    "duration": 0.11750000000000682
                },
                {
                    "name": "G#2",
                    "midi": 44,
                    "time": 334.20000000000124,
                    "velocity": 0.8976377952755905,
                    "duration": 0.11750000000000682
                },
                {
                    "name": "G2",
                    "midi": 43,
                    "time": 334.80000000000126,
                    "velocity": 0.6929133858267716,
                    "duration": 0.11750000000000682
                },
                {
                    "name": "F2",
                    "midi": 41,
                    "time": 335.4000000000013,
                    "velocity": 0.8976377952755905,
                    "duration": 0.11750000000000682
                },
                {
                    "name": "G2",
                    "midi": 43,
                    "time": 336.0000000000013,
                    "velocity": 0.6929133858267716,
                    "duration": 0.6000000000000227
                },
                {
                    "name": "G3",
                    "midi": 55,
                    "time": 336.60000000000133,
                    "velocity": 0.7952755905511811,
                    "duration": 0.11750000000000682
                },
                {
                    "name": "A#3",
                    "midi": 58,
                    "time": 336.60000000000133,
                    "velocity": 0.7952755905511811,
                    "duration": 0.11750000000000682
                },
                {
                    "name": "C#4",
                    "midi": 61,
                    "time": 336.60000000000133,
                    "velocity": 0.7952755905511811,
                    "duration": 0.11750000000000682
                },
                {
                    "name": "D#4",
                    "midi": 63,
                    "time": 336.60000000000133,
                    "velocity": 0.7952755905511811,
                    "duration": 0.11750000000000682
                },
                {
                    "name": "G3",
                    "midi": 55,
                    "time": 337.20000000000135,
                    "velocity": 0.5905511811023622,
                    "duration": 0.11750000000000682
                },
                {
                    "name": "A#3",
                    "midi": 58,
                    "time": 337.20000000000135,
                    "velocity": 0.5905511811023622,
                    "duration": 0.11750000000000682
                },
                {
                    "name": "C#4",
                    "midi": 61,
                    "time": 337.20000000000135,
                    "velocity": 0.5905511811023622,
                    "duration": 0.11750000000000682
                },
                {
                    "name": "D#4",
                    "midi": 63,
                    "time": 337.20000000000135,
                    "velocity": 0.5905511811023622,
                    "duration": 0.11750000000000682
                },
                {
                    "name": "G3",
                    "midi": 55,
                    "time": 337.8000000000014,
                    "velocity": 0.7952755905511811,
                    "duration": 0.11750000000000682
                },
                {
                    "name": "A#3",
                    "midi": 58,
                    "time": 337.8000000000014,
                    "velocity": 0.7952755905511811,
                    "duration": 0.11750000000000682
                },
                {
                    "name": "C#4",
                    "midi": 61,
                    "time": 337.8000000000014,
                    "velocity": 0.7952755905511811,
                    "duration": 0.11750000000000682
                },
                {
                    "name": "D#4",
                    "midi": 63,
                    "time": 337.8000000000014,
                    "velocity": 0.7952755905511811,
                    "duration": 0.11750000000000682
                },
                {
                    "name": "G3",
                    "midi": 55,
                    "time": 338.4000000000014,
                    "velocity": 0.7952755905511811,
                    "duration": 0.11750000000000682
                },
                {
                    "name": "A#3",
                    "midi": 58,
                    "time": 338.4000000000014,
                    "velocity": 0.7952755905511811,
                    "duration": 0.11750000000000682
                },
                {
                    "name": "C#4",
                    "midi": 61,
                    "time": 338.4000000000014,
                    "velocity": 0.7952755905511811,
                    "duration": 0.11750000000000682
                },
                {
                    "name": "D#4",
                    "midi": 63,
                    "time": 338.4000000000014,
                    "velocity": 0.7952755905511811,
                    "duration": 0.11750000000000682
                },
                {
                    "name": "G3",
                    "midi": 55,
                    "time": 339.0000000000014,
                    "velocity": 0.5905511811023622,
                    "duration": 0.11750000000000682
                },
                {
                    "name": "A#3",
                    "midi": 58,
                    "time": 339.0000000000014,
                    "velocity": 0.5905511811023622,
                    "duration": 0.11750000000000682
                },
                {
                    "name": "C#4",
                    "midi": 61,
                    "time": 339.0000000000014,
                    "velocity": 0.5905511811023622,
                    "duration": 0.11750000000000682
                },
                {
                    "name": "D#4",
                    "midi": 63,
                    "time": 339.0000000000014,
                    "velocity": 0.5905511811023622,
                    "duration": 0.11750000000000682
                },
                {
                    "name": "G3",
                    "midi": 55,
                    "time": 339.60000000000144,
                    "velocity": 0.5905511811023622,
                    "duration": 0.11750000000000682
                },
                {
                    "name": "A#3",
                    "midi": 58,
                    "time": 339.60000000000144,
                    "velocity": 0.5905511811023622,
                    "duration": 0.11750000000000682
                },
                {
                    "name": "C#4",
                    "midi": 61,
                    "time": 339.60000000000144,
                    "velocity": 0.5905511811023622,
                    "duration": 0.11750000000000682
                },
                {
                    "name": "D#4",
                    "midi": 63,
                    "time": 339.60000000000144,
                    "velocity": 0.5905511811023622,
                    "duration": 0.11750000000000682
                },
                {
                    "name": "G3",
                    "midi": 55,
                    "time": 340.20000000000147,
                    "velocity": 0.5905511811023622,
                    "duration": 0.11750000000000682
                },
                {
                    "name": "A#3",
                    "midi": 58,
                    "time": 340.20000000000147,
                    "velocity": 0.5905511811023622,
                    "duration": 0.11750000000000682
                },
                {
                    "name": "C#4",
                    "midi": 61,
                    "time": 340.20000000000147,
                    "velocity": 0.5905511811023622,
                    "duration": 0.11750000000000682
                },
                {
                    "name": "D#4",
                    "midi": 63,
                    "time": 340.20000000000147,
                    "velocity": 0.5905511811023622,
                    "duration": 0.11750000000000682
                },
                {
                    "name": "G3",
                    "midi": 55,
                    "time": 340.8000000000015,
                    "velocity": 0.5905511811023622,
                    "duration": 0.11750000000000682
                },
                {
                    "name": "A#3",
                    "midi": 58,
                    "time": 340.8000000000015,
                    "velocity": 0.5905511811023622,
                    "duration": 0.11750000000000682
                },
                {
                    "name": "C#4",
                    "midi": 61,
                    "time": 340.8000000000015,
                    "velocity": 0.5905511811023622,
                    "duration": 0.11750000000000682
                },
                {
                    "name": "D#4",
                    "midi": 63,
                    "time": 340.8000000000015,
                    "velocity": 0.5905511811023622,
                    "duration": 0.11750000000000682
                },
                {
                    "name": "F3",
                    "midi": 53,
                    "time": 341.4000000000015,
                    "velocity": 0.8976377952755905,
                    "duration": 0.11750000000000682
                },
                {
                    "name": "G3",
                    "midi": 55,
                    "time": 342.00000000000153,
                    "velocity": 0.6929133858267716,
                    "duration": 0.11750000000000682
                },
                {
                    "name": "G#3",
                    "midi": 56,
                    "time": 342.60000000000156,
                    "velocity": 0.8976377952755905,
                    "duration": 0.11750000000000682
                },
                {
                    "name": "A#3",
                    "midi": 58,
                    "time": 343.2000000000016,
                    "velocity": 0.6929133858267716,
                    "duration": 0.11750000000000682
                },
                {
                    "name": "G#3",
                    "midi": 56,
                    "time": 343.8000000000016,
                    "velocity": 0.8976377952755905,
                    "duration": 0.11750000000000682
                },
                {
                    "name": "G3",
                    "midi": 55,
                    "time": 344.4000000000016,
                    "velocity": 0.6929133858267716,
                    "duration": 0.11750000000000682
                },
                {
                    "name": "F2",
                    "midi": 41,
                    "time": 345.00000000000165,
                    "velocity": 0.8976377952755905,
                    "duration": 0.11750000000000682
                },
                {
                    "name": "G2",
                    "midi": 43,
                    "time": 345.60000000000167,
                    "velocity": 0.6929133858267716,
                    "duration": 0.11750000000000682
                },
                {
                    "name": "G#2",
                    "midi": 44,
                    "time": 346.2000000000017,
                    "velocity": 0.8976377952755905,
                    "duration": 0.11750000000000682
                },
                {
                    "name": "A#2",
                    "midi": 46,
                    "time": 346.8000000000017,
                    "velocity": 0.6929133858267716,
                    "duration": 0.11750000000000682
                },
                {
                    "name": "G#2",
                    "midi": 44,
                    "time": 347.40000000000174,
                    "velocity": 0.8976377952755905,
                    "duration": 0.11750000000000682
                },
                {
                    "name": "G2",
                    "midi": 43,
                    "time": 348.00000000000176,
                    "velocity": 0.6929133858267716,
                    "duration": 0.11750000000000682
                },
                {
                    "name": "F2",
                    "midi": 41,
                    "time": 348.6000000000018,
                    "velocity": 0.8976377952755905,
                    "duration": 0.11750000000000682
                },
                {
                    "name": "G2",
                    "midi": 43,
                    "time": 349.2000000000018,
                    "velocity": 0.6929133858267716,
                    "duration": 0.11750000000000682
                },
                {
                    "name": "G3",
                    "midi": 55,
                    "time": 349.80000000000183,
                    "velocity": 0.7952755905511811,
                    "duration": 0.11750000000000682
                },
                {
                    "name": "A#3",
                    "midi": 58,
                    "time": 349.80000000000183,
                    "velocity": 0.7952755905511811,
                    "duration": 0.11750000000000682
                },
                {
                    "name": "C#4",
                    "midi": 61,
                    "time": 349.80000000000183,
                    "velocity": 0.7952755905511811,
                    "duration": 0.11750000000000682
                },
                {
                    "name": "D#4",
                    "midi": 63,
                    "time": 349.80000000000183,
                    "velocity": 0.7952755905511811,
                    "duration": 0.11750000000000682
                },
                {
                    "name": "G3",
                    "midi": 55,
                    "time": 350.40000000000185,
                    "velocity": 0.5905511811023622,
                    "duration": 0.11750000000000682
                },
                {
                    "name": "A#3",
                    "midi": 58,
                    "time": 350.40000000000185,
                    "velocity": 0.5905511811023622,
                    "duration": 0.11750000000000682
                },
                {
                    "name": "C#4",
                    "midi": 61,
                    "time": 350.40000000000185,
                    "velocity": 0.5905511811023622,
                    "duration": 0.11750000000000682
                },
                {
                    "name": "D#4",
                    "midi": 63,
                    "time": 350.40000000000185,
                    "velocity": 0.5905511811023622,
                    "duration": 0.11750000000000682
                },
                {
                    "name": "G3",
                    "midi": 55,
                    "time": 351.0000000000019,
                    "velocity": 0.7952755905511811,
                    "duration": 0.11750000000000682
                },
                {
                    "name": "A#3",
                    "midi": 58,
                    "time": 351.0000000000019,
                    "velocity": 0.7952755905511811,
                    "duration": 0.11750000000000682
                },
                {
                    "name": "C#4",
                    "midi": 61,
                    "time": 351.0000000000019,
                    "velocity": 0.7952755905511811,
                    "duration": 0.11750000000000682
                },
                {
                    "name": "D#4",
                    "midi": 63,
                    "time": 351.0000000000019,
                    "velocity": 0.7952755905511811,
                    "duration": 0.11750000000000682
                },
                {
                    "name": "G3",
                    "midi": 55,
                    "time": 351.6000000000019,
                    "velocity": 0.5905511811023622,
                    "duration": 0.11750000000000682
                },
                {
                    "name": "A#3",
                    "midi": 58,
                    "time": 351.6000000000019,
                    "velocity": 0.5905511811023622,
                    "duration": 0.11750000000000682
                },
                {
                    "name": "C#4",
                    "midi": 61,
                    "time": 351.6000000000019,
                    "velocity": 0.5905511811023622,
                    "duration": 0.11750000000000682
                },
                {
                    "name": "D#4",
                    "midi": 63,
                    "time": 351.6000000000019,
                    "velocity": 0.5905511811023622,
                    "duration": 0.11750000000000682
                },
                {
                    "name": "G3",
                    "midi": 55,
                    "time": 352.2000000000019,
                    "velocity": 0.7952755905511811,
                    "duration": 0.11750000000000682
                },
                {
                    "name": "A#3",
                    "midi": 58,
                    "time": 352.2000000000019,
                    "velocity": 0.7952755905511811,
                    "duration": 0.11750000000000682
                },
                {
                    "name": "C#4",
                    "midi": 61,
                    "time": 352.2000000000019,
                    "velocity": 0.7952755905511811,
                    "duration": 0.11750000000000682
                },
                {
                    "name": "D#4",
                    "midi": 63,
                    "time": 352.2000000000019,
                    "velocity": 0.7952755905511811,
                    "duration": 0.11750000000000682
                },
                {
                    "name": "G3",
                    "midi": 55,
                    "time": 352.80000000000194,
                    "velocity": 0.5905511811023622,
                    "duration": 0.11750000000000682
                },
                {
                    "name": "A#3",
                    "midi": 58,
                    "time": 352.80000000000194,
                    "velocity": 0.5905511811023622,
                    "duration": 0.11750000000000682
                },
                {
                    "name": "C#4",
                    "midi": 61,
                    "time": 352.80000000000194,
                    "velocity": 0.5905511811023622,
                    "duration": 0.11750000000000682
                },
                {
                    "name": "D#4",
                    "midi": 63,
                    "time": 352.80000000000194,
                    "velocity": 0.5905511811023622,
                    "duration": 0.11750000000000682
                },
                {
                    "name": "G3",
                    "midi": 55,
                    "time": 353.40000000000197,
                    "velocity": 0.5905511811023622,
                    "duration": 0.11750000000000682
                },
                {
                    "name": "A#3",
                    "midi": 58,
                    "time": 353.40000000000197,
                    "velocity": 0.5905511811023622,
                    "duration": 0.11750000000000682
                },
                {
                    "name": "C#4",
                    "midi": 61,
                    "time": 353.40000000000197,
                    "velocity": 0.5905511811023622,
                    "duration": 0.11750000000000682
                },
                {
                    "name": "D#4",
                    "midi": 63,
                    "time": 353.40000000000197,
                    "velocity": 0.5905511811023622,
                    "duration": 0.11750000000000682
                },
                {
                    "name": "G3",
                    "midi": 55,
                    "time": 354.000000000002,
                    "velocity": 0.5905511811023622,
                    "duration": 0.11750000000000682
                },
                {
                    "name": "A#3",
                    "midi": 58,
                    "time": 354.000000000002,
                    "velocity": 0.5905511811023622,
                    "duration": 0.11750000000000682
                },
                {
                    "name": "C#4",
                    "midi": 61,
                    "time": 354.000000000002,
                    "velocity": 0.5905511811023622,
                    "duration": 0.11750000000000682
                },
                {
                    "name": "D#4",
                    "midi": 63,
                    "time": 354.000000000002,
                    "velocity": 0.5905511811023622,
                    "duration": 0.11750000000000682
                },
                {
                    "name": "G3",
                    "midi": 55,
                    "time": 354.600000000002,
                    "velocity": 0.5905511811023622,
                    "duration": 0.11750000000000682
                },
                {
                    "name": "A#3",
                    "midi": 58,
                    "time": 354.600000000002,
                    "velocity": 0.5905511811023622,
                    "duration": 0.11750000000000682
                },
                {
                    "name": "C#4",
                    "midi": 61,
                    "time": 354.600000000002,
                    "velocity": 0.5905511811023622,
                    "duration": 0.11750000000000682
                },
                {
                    "name": "D#4",
                    "midi": 63,
                    "time": 354.600000000002,
                    "velocity": 0.5905511811023622,
                    "duration": 0.11750000000000682
                },
                {
                    "name": "G3",
                    "midi": 55,
                    "time": 355.20000000000203,
                    "velocity": 0.7952755905511811,
                    "duration": 0.11750000000000682
                },
                {
                    "name": "A#3",
                    "midi": 58,
                    "time": 355.20000000000203,
                    "velocity": 0.7952755905511811,
                    "duration": 0.11750000000000682
                },
                {
                    "name": "C#4",
                    "midi": 61,
                    "time": 355.20000000000203,
                    "velocity": 0.7952755905511811,
                    "duration": 0.11750000000000682
                },
                {
                    "name": "D#4",
                    "midi": 63,
                    "time": 355.20000000000203,
                    "velocity": 0.7952755905511811,
                    "duration": 0.11750000000000682
                },
                {
                    "name": "G3",
                    "midi": 55,
                    "time": 355.80000000000206,
                    "velocity": 0.5905511811023622,
                    "duration": 0.11750000000000682
                },
                {
                    "name": "A#3",
                    "midi": 58,
                    "time": 355.80000000000206,
                    "velocity": 0.5905511811023622,
                    "duration": 0.11750000000000682
                },
                {
                    "name": "C#4",
                    "midi": 61,
                    "time": 355.80000000000206,
                    "velocity": 0.5905511811023622,
                    "duration": 0.11750000000000682
                },
                {
                    "name": "D#4",
                    "midi": 63,
                    "time": 355.80000000000206,
                    "velocity": 0.5905511811023622,
                    "duration": 0.11750000000000682
                },
                {
                    "name": "G3",
                    "midi": 55,
                    "time": 356.4000000000021,
                    "velocity": 0.5905511811023622,
                    "duration": 0.11750000000000682
                },
                {
                    "name": "A#3",
                    "midi": 58,
                    "time": 356.4000000000021,
                    "velocity": 0.5905511811023622,
                    "duration": 0.11750000000000682
                },
                {
                    "name": "C#4",
                    "midi": 61,
                    "time": 356.4000000000021,
                    "velocity": 0.5905511811023622,
                    "duration": 0.11750000000000682
                },
                {
                    "name": "D#4",
                    "midi": 63,
                    "time": 356.4000000000021,
                    "velocity": 0.5905511811023622,
                    "duration": 0.11750000000000682
                },
                {
                    "name": "G3",
                    "midi": 55,
                    "time": 357.0000000000021,
                    "velocity": 0.5905511811023622,
                    "duration": 0.11750000000000682
                },
                {
                    "name": "A#3",
                    "midi": 58,
                    "time": 357.0000000000021,
                    "velocity": 0.5905511811023622,
                    "duration": 0.11750000000000682
                },
                {
                    "name": "C#4",
                    "midi": 61,
                    "time": 357.0000000000021,
                    "velocity": 0.5905511811023622,
                    "duration": 0.11750000000000682
                },
                {
                    "name": "D#4",
                    "midi": 63,
                    "time": 357.0000000000021,
                    "velocity": 0.5905511811023622,
                    "duration": 0.11750000000000682
                },
                {
                    "name": "G3",
                    "midi": 55,
                    "time": 357.6000000000021,
                    "velocity": 0.5905511811023622,
                    "duration": 0.11750000000000682
                },
                {
                    "name": "A#3",
                    "midi": 58,
                    "time": 357.6000000000021,
                    "velocity": 0.5905511811023622,
                    "duration": 0.11750000000000682
                },
                {
                    "name": "C#4",
                    "midi": 61,
                    "time": 357.6000000000021,
                    "velocity": 0.5905511811023622,
                    "duration": 0.11750000000000682
                },
                {
                    "name": "D#4",
                    "midi": 63,
                    "time": 357.6000000000021,
                    "velocity": 0.5905511811023622,
                    "duration": 0.11750000000000682
                },
                {
                    "name": "G3",
                    "midi": 55,
                    "time": 358.20000000000215,
                    "velocity": 0.7952755905511811,
                    "duration": 0.11750000000000682
                },
                {
                    "name": "A#3",
                    "midi": 58,
                    "time": 358.20000000000215,
                    "velocity": 0.7952755905511811,
                    "duration": 0.11750000000000682
                },
                {
                    "name": "C#4",
                    "midi": 61,
                    "time": 358.20000000000215,
                    "velocity": 0.7952755905511811,
                    "duration": 0.11750000000000682
                },
                {
                    "name": "D#4",
                    "midi": 63,
                    "time": 358.20000000000215,
                    "velocity": 0.7952755905511811,
                    "duration": 0.11750000000000682
                },
                {
                    "name": "G3",
                    "midi": 55,
                    "time": 358.80000000000217,
                    "velocity": 0.5905511811023622,
                    "duration": 0.11750000000000682
                },
                {
                    "name": "A#3",
                    "midi": 58,
                    "time": 358.80000000000217,
                    "velocity": 0.5905511811023622,
                    "duration": 0.11750000000000682
                },
                {
                    "name": "C#4",
                    "midi": 61,
                    "time": 358.80000000000217,
                    "velocity": 0.5905511811023622,
                    "duration": 0.11750000000000682
                },
                {
                    "name": "G3",
                    "midi": 55,
                    "time": 359.4000000000022,
                    "velocity": 0.5905511811023622,
                    "duration": 0.11750000000000682
                },
                {
                    "name": "A#3",
                    "midi": 58,
                    "time": 359.4000000000022,
                    "velocity": 0.5905511811023622,
                    "duration": 0.11750000000000682
                },
                {
                    "name": "C#4",
                    "midi": 61,
                    "time": 359.4000000000022,
                    "velocity": 0.5905511811023622,
                    "duration": 0.11750000000000682
                },
                {
                    "name": "D#4",
                    "midi": 63,
                    "time": 359.4000000000022,
                    "velocity": 0.5905511811023622,
                    "duration": 0.11750000000000682
                },
                {
                    "name": "G3",
                    "midi": 55,
                    "time": 360.0000000000022,
                    "velocity": 0.5905511811023622,
                    "duration": 0.11750000000000682
                },
                {
                    "name": "A#3",
                    "midi": 58,
                    "time": 360.0000000000022,
                    "velocity": 0.5905511811023622,
                    "duration": 0.11750000000000682
                },
                {
                    "name": "C#4",
                    "midi": 61,
                    "time": 360.0000000000022,
                    "velocity": 0.5905511811023622,
                    "duration": 0.11750000000000682
                },
                {
                    "name": "D#4",
                    "midi": 63,
                    "time": 360.0000000000022,
                    "velocity": 0.5905511811023622,
                    "duration": 0.11750000000000682
                },
                {
                    "name": "E3",
                    "midi": 52,
                    "time": 360.60000000000224,
                    "velocity": 0.3858267716535433,
                    "duration": 0.11750000000000682
                },
                {
                    "name": "G3",
                    "midi": 55,
                    "time": 360.60000000000224,
                    "velocity": 0.3858267716535433,
                    "duration": 0.11750000000000682
                },
                {
                    "name": "A#3",
                    "midi": 58,
                    "time": 360.60000000000224,
                    "velocity": 0.3858267716535433,
                    "duration": 0.11750000000000682
                },
                {
                    "name": "C#4",
                    "midi": 61,
                    "time": 360.60000000000224,
                    "velocity": 0.3858267716535433,
                    "duration": 0.11750000000000682
                },
                {
                    "name": "D#4",
                    "midi": 63,
                    "time": 360.60000000000224,
                    "velocity": 0.3858267716535433,
                    "duration": 0.11750000000000682
                },
                {
                    "name": "E3",
                    "midi": 52,
                    "time": 361.20000000000226,
                    "velocity": 0.3858267716535433,
                    "duration": 0.11750000000000682
                },
                {
                    "name": "G3",
                    "midi": 55,
                    "time": 361.20000000000226,
                    "velocity": 0.3858267716535433,
                    "duration": 0.11750000000000682
                },
                {
                    "name": "A#3",
                    "midi": 58,
                    "time": 361.20000000000226,
                    "velocity": 0.3858267716535433,
                    "duration": 0.11750000000000682
                },
                {
                    "name": "C#4",
                    "midi": 61,
                    "time": 361.20000000000226,
                    "velocity": 0.3858267716535433,
                    "duration": 0.11750000000000682
                },
                {
                    "name": "D#4",
                    "midi": 63,
                    "time": 361.20000000000226,
                    "velocity": 0.3858267716535433,
                    "duration": 0.11750000000000682
                },
                {
                    "name": "E3",
                    "midi": 52,
                    "time": 361.8000000000023,
                    "velocity": 0.3858267716535433,
                    "duration": 0.11750000000000682
                },
                {
                    "name": "G3",
                    "midi": 55,
                    "time": 361.8000000000023,
                    "velocity": 0.3858267716535433,
                    "duration": 0.11750000000000682
                },
                {
                    "name": "A#3",
                    "midi": 58,
                    "time": 361.8000000000023,
                    "velocity": 0.3858267716535433,
                    "duration": 0.11750000000000682
                },
                {
                    "name": "C#4",
                    "midi": 61,
                    "time": 361.8000000000023,
                    "velocity": 0.3858267716535433,
                    "duration": 0.11750000000000682
                },
                {
                    "name": "D#4",
                    "midi": 63,
                    "time": 361.8000000000023,
                    "velocity": 0.3858267716535433,
                    "duration": 0.11750000000000682
                },
                {
                    "name": "E3",
                    "midi": 52,
                    "time": 362.4000000000023,
                    "velocity": 0.3858267716535433,
                    "duration": 0.11750000000000682
                },
                {
                    "name": "G3",
                    "midi": 55,
                    "time": 362.4000000000023,
                    "velocity": 0.3858267716535433,
                    "duration": 0.11750000000000682
                },
                {
                    "name": "A#3",
                    "midi": 58,
                    "time": 362.4000000000023,
                    "velocity": 0.3858267716535433,
                    "duration": 0.11750000000000682
                },
                {
                    "name": "C#4",
                    "midi": 61,
                    "time": 362.4000000000023,
                    "velocity": 0.3858267716535433,
                    "duration": 0.11750000000000682
                },
                {
                    "name": "D#4",
                    "midi": 63,
                    "time": 362.4000000000023,
                    "velocity": 0.3858267716535433,
                    "duration": 0.11750000000000682
                },
                {
                    "name": "E3",
                    "midi": 52,
                    "time": 363.00000000000233,
                    "velocity": 0.3858267716535433,
                    "duration": 0.11750000000000682
                },
                {
                    "name": "G3",
                    "midi": 55,
                    "time": 363.00000000000233,
                    "velocity": 0.3858267716535433,
                    "duration": 0.11750000000000682
                },
                {
                    "name": "A#3",
                    "midi": 58,
                    "time": 363.00000000000233,
                    "velocity": 0.3858267716535433,
                    "duration": 0.11750000000000682
                },
                {
                    "name": "C#4",
                    "midi": 61,
                    "time": 363.00000000000233,
                    "velocity": 0.3858267716535433,
                    "duration": 0.11750000000000682
                },
                {
                    "name": "D#4",
                    "midi": 63,
                    "time": 363.00000000000233,
                    "velocity": 0.3858267716535433,
                    "duration": 0.11750000000000682
                },
                {
                    "name": "E3",
                    "midi": 52,
                    "time": 363.60000000000235,
                    "velocity": 0.3858267716535433,
                    "duration": 0.11750000000000682
                },
                {
                    "name": "G3",
                    "midi": 55,
                    "time": 363.60000000000235,
                    "velocity": 0.3858267716535433,
                    "duration": 0.11750000000000682
                },
                {
                    "name": "A#3",
                    "midi": 58,
                    "time": 363.60000000000235,
                    "velocity": 0.3858267716535433,
                    "duration": 0.11750000000000682
                },
                {
                    "name": "C#4",
                    "midi": 61,
                    "time": 363.60000000000235,
                    "velocity": 0.3858267716535433,
                    "duration": 0.11750000000000682
                },
                {
                    "name": "D#4",
                    "midi": 63,
                    "time": 363.60000000000235,
                    "velocity": 0.3858267716535433,
                    "duration": 0.11750000000000682
                },
                {
                    "name": "E3",
                    "midi": 52,
                    "time": 364.2000000000024,
                    "velocity": 0.3858267716535433,
                    "duration": 0.11750000000000682
                },
                {
                    "name": "G3",
                    "midi": 55,
                    "time": 364.2000000000024,
                    "velocity": 0.3858267716535433,
                    "duration": 0.11750000000000682
                },
                {
                    "name": "A#3",
                    "midi": 58,
                    "time": 364.2000000000024,
                    "velocity": 0.3858267716535433,
                    "duration": 0.11750000000000682
                },
                {
                    "name": "C#4",
                    "midi": 61,
                    "time": 364.2000000000024,
                    "velocity": 0.3858267716535433,
                    "duration": 0.11750000000000682
                },
                {
                    "name": "D#4",
                    "midi": 63,
                    "time": 364.2000000000024,
                    "velocity": 0.3858267716535433,
                    "duration": 0.11750000000000682
                },
                {
                    "name": "E3",
                    "midi": 52,
                    "time": 364.8000000000024,
                    "velocity": 0.3858267716535433,
                    "duration": 0.11750000000000682
                },
                {
                    "name": "G3",
                    "midi": 55,
                    "time": 364.8000000000024,
                    "velocity": 0.3858267716535433,
                    "duration": 0.11750000000000682
                },
                {
                    "name": "A#3",
                    "midi": 58,
                    "time": 364.8000000000024,
                    "velocity": 0.3858267716535433,
                    "duration": 0.11750000000000682
                },
                {
                    "name": "C#4",
                    "midi": 61,
                    "time": 364.8000000000024,
                    "velocity": 0.3858267716535433,
                    "duration": 0.11750000000000682
                },
                {
                    "name": "D#4",
                    "midi": 63,
                    "time": 364.8000000000024,
                    "velocity": 0.3858267716535433,
                    "duration": 0.11750000000000682
                },
                {
                    "name": "E3",
                    "midi": 52,
                    "time": 372.6000000000024,
                    "velocity": 0.3858267716535433,
                    "duration": 0.11750000000000682
                },
                {
                    "name": "G3",
                    "midi": 55,
                    "time": 372.6000000000024,
                    "velocity": 0.3858267716535433,
                    "duration": 0.11750000000000682
                },
                {
                    "name": "A#3",
                    "midi": 58,
                    "time": 372.6000000000024,
                    "velocity": 0.3858267716535433,
                    "duration": 0.11750000000000682
                },
                {
                    "name": "C#4",
                    "midi": 61,
                    "time": 372.6000000000024,
                    "velocity": 0.3858267716535433,
                    "duration": 0.11750000000000682
                },
                {
                    "name": "D#4",
                    "midi": 63,
                    "time": 372.6000000000024,
                    "velocity": 0.3858267716535433,
                    "duration": 0.11750000000000682
                },
                {
                    "name": "E3",
                    "midi": 52,
                    "time": 373.20000000000243,
                    "velocity": 0.3858267716535433,
                    "duration": 0.11750000000000682
                },
                {
                    "name": "G3",
                    "midi": 55,
                    "time": 373.20000000000243,
                    "velocity": 0.3858267716535433,
                    "duration": 0.11750000000000682
                },
                {
                    "name": "A#3",
                    "midi": 58,
                    "time": 373.20000000000243,
                    "velocity": 0.3858267716535433,
                    "duration": 0.11750000000000682
                },
                {
                    "name": "C#4",
                    "midi": 61,
                    "time": 373.20000000000243,
                    "velocity": 0.3858267716535433,
                    "duration": 0.11750000000000682
                },
                {
                    "name": "D#4",
                    "midi": 63,
                    "time": 373.20000000000243,
                    "velocity": 0.3858267716535433,
                    "duration": 0.11750000000000682
                },
                {
                    "name": "E3",
                    "midi": 52,
                    "time": 373.80000000000246,
                    "velocity": 0.3858267716535433,
                    "duration": 0.11750000000000682
                },
                {
                    "name": "G3",
                    "midi": 55,
                    "time": 373.80000000000246,
                    "velocity": 0.3858267716535433,
                    "duration": 0.11750000000000682
                },
                {
                    "name": "A#3",
                    "midi": 58,
                    "time": 373.80000000000246,
                    "velocity": 0.3858267716535433,
                    "duration": 0.11750000000000682
                },
                {
                    "name": "C#4",
                    "midi": 61,
                    "time": 373.80000000000246,
                    "velocity": 0.3858267716535433,
                    "duration": 0.11750000000000682
                },
                {
                    "name": "D#4",
                    "midi": 63,
                    "time": 373.80000000000246,
                    "velocity": 0.3858267716535433,
                    "duration": 0.11750000000000682
                },
                {
                    "name": "E3",
                    "midi": 52,
                    "time": 374.4000000000025,
                    "velocity": 0.3858267716535433,
                    "duration": 0.11750000000000682
                },
                {
                    "name": "A#3",
                    "midi": 58,
                    "time": 374.4000000000025,
                    "velocity": 0.3858267716535433,
                    "duration": 0.11750000000000682
                },
                {
                    "name": "C#4",
                    "midi": 61,
                    "time": 374.4000000000025,
                    "velocity": 0.3858267716535433,
                    "duration": 0.11750000000000682
                },
                {
                    "name": "D#4",
                    "midi": 63,
                    "time": 374.4000000000025,
                    "velocity": 0.3858267716535433,
                    "duration": 0.11750000000000682
                },
                {
                    "name": "D3",
                    "midi": 50,
                    "time": 387.60000000000247,
                    "velocity": 0.7952755905511811,
                    "duration": 0.07749999999998636
                },
                {
                    "name": "D4",
                    "midi": 62,
                    "time": 387.60000000000247,
                    "velocity": 0.7952755905511811,
                    "duration": 0.07749999999998636
                },
                {
                    "name": "F#2",
                    "midi": 42,
                    "time": 387.99750000000245,
                    "velocity": 0.7952755905511811,
                    "duration": 0.07999999999998408
                },
                {
                    "name": "F#3",
                    "midi": 54,
                    "time": 387.99750000000245,
                    "velocity": 0.7952755905511811,
                    "duration": 0.07999999999998408
                },
                {
                    "name": "G2",
                    "midi": 43,
                    "time": 388.4000000000024,
                    "velocity": 0.7952755905511811,
                    "duration": 0.07999999999998408
                },
                {
                    "name": "G3",
                    "midi": 55,
                    "time": 388.4000000000024,
                    "velocity": 0.7952755905511811,
                    "duration": 0.07999999999998408
                },
                {
                    "name": "F4",
                    "midi": 65,
                    "time": 424.8000000000024,
                    "velocity": 0.3858267716535433,
                    "duration": 0.14999999999997726
                },
                {
                    "name": "E4",
                    "midi": 64,
                    "time": 424.9500000000024,
                    "velocity": 0.3858267716535433,
                    "duration": 0.14999999999997726
                },
                {
                    "name": "F4",
                    "midi": 65,
                    "time": 425.10000000000235,
                    "velocity": 0.3858267716535433,
                    "duration": 0.14999999999997726
                },
                {
                    "name": "E4",
                    "midi": 64,
                    "time": 425.25000000000233,
                    "velocity": 0.3858267716535433,
                    "duration": 0.14999999999997726
                },
                {
                    "name": "F4",
                    "midi": 65,
                    "time": 425.4000000000023,
                    "velocity": 0.3858267716535433,
                    "duration": 0.14999999999997726
                },
                {
                    "name": "E4",
                    "midi": 64,
                    "time": 425.5500000000023,
                    "velocity": 0.3858267716535433,
                    "duration": 0.14999999999997726
                },
                {
                    "name": "F4",
                    "midi": 65,
                    "time": 425.70000000000226,
                    "velocity": 0.3858267716535433,
                    "duration": 0.14999999999997726
                },
                {
                    "name": "E4",
                    "midi": 64,
                    "time": 425.85000000000224,
                    "velocity": 0.3858267716535433,
                    "duration": 0.14999999999997726
                },
                {
                    "name": "F4",
                    "midi": 65,
                    "time": 426.0000000000022,
                    "velocity": 0.3858267716535433,
                    "duration": 0.14999999999997726
                },
                {
                    "name": "E4",
                    "midi": 64,
                    "time": 426.1500000000022,
                    "velocity": 0.3858267716535433,
                    "duration": 0.14999999999997726
                },
                {
                    "name": "F4",
                    "midi": 65,
                    "time": 426.30000000000217,
                    "velocity": 0.3858267716535433,
                    "duration": 0.14999999999997726
                },
                {
                    "name": "E4",
                    "midi": 64,
                    "time": 426.45000000000215,
                    "velocity": 0.3858267716535433,
                    "duration": 0.14999999999997726
                },
                {
                    "name": "F4",
                    "midi": 65,
                    "time": 426.6000000000021,
                    "velocity": 0.3858267716535433,
                    "duration": 0.14999999999997726
                },
                {
                    "name": "E4",
                    "midi": 64,
                    "time": 426.7500000000021,
                    "velocity": 0.3858267716535433,
                    "duration": 0.14999999999997726
                },
                {
                    "name": "F4",
                    "midi": 65,
                    "time": 426.9000000000021,
                    "velocity": 0.3858267716535433,
                    "duration": 0.14999999999997726
                },
                {
                    "name": "E4",
                    "midi": 64,
                    "time": 427.05000000000206,
                    "velocity": 0.3858267716535433,
                    "duration": 0.14999999999997726
                },
                {
                    "name": "F4",
                    "midi": 65,
                    "time": 427.20000000000203,
                    "velocity": 0.3858267716535433,
                    "duration": 0.14999999999997726
                },
                {
                    "name": "E4",
                    "midi": 64,
                    "time": 427.350000000002,
                    "velocity": 0.3858267716535433,
                    "duration": 0.14999999999997726
                },
                {
                    "name": "F4",
                    "midi": 65,
                    "time": 427.500000000002,
                    "velocity": 0.3858267716535433,
                    "duration": 0.14999999999997726
                },
                {
                    "name": "E4",
                    "midi": 64,
                    "time": 427.65000000000197,
                    "velocity": 0.3858267716535433,
                    "duration": 0.14999999999997726
                },
                {
                    "name": "F4",
                    "midi": 65,
                    "time": 427.80000000000194,
                    "velocity": 0.3858267716535433,
                    "duration": 0.14999999999997726
                },
                {
                    "name": "E4",
                    "midi": 64,
                    "time": 427.9500000000019,
                    "velocity": 0.3858267716535433,
                    "duration": 0.14999999999997726
                },
                {
                    "name": "F4",
                    "midi": 65,
                    "time": 428.1000000000019,
                    "velocity": 0.3858267716535433,
                    "duration": 0.14999999999997726
                },
                {
                    "name": "E4",
                    "midi": 64,
                    "time": 428.2500000000019,
                    "velocity": 0.3858267716535433,
                    "duration": 0.14999999999997726
                },
                {
                    "name": "F4",
                    "midi": 65,
                    "time": 428.40000000000185,
                    "velocity": 0.3858267716535433,
                    "duration": 0.14999999999997726
                },
                {
                    "name": "E4",
                    "midi": 64,
                    "time": 428.55000000000183,
                    "velocity": 0.3858267716535433,
                    "duration": 0.14999999999997726
                },
                {
                    "name": "F4",
                    "midi": 65,
                    "time": 428.7000000000018,
                    "velocity": 0.3858267716535433,
                    "duration": 0.14999999999997726
                },
                {
                    "name": "E4",
                    "midi": 64,
                    "time": 428.8500000000018,
                    "velocity": 0.3858267716535433,
                    "duration": 0.14999999999997726
                },
                {
                    "name": "F4",
                    "midi": 65,
                    "time": 429.00000000000176,
                    "velocity": 0.3858267716535433,
                    "duration": 0.14999999999997726
                },
                {
                    "name": "E4",
                    "midi": 64,
                    "time": 429.15000000000174,
                    "velocity": 0.3858267716535433,
                    "duration": 0.14999999999997726
                },
                {
                    "name": "F4",
                    "midi": 65,
                    "time": 429.3000000000017,
                    "velocity": 0.3858267716535433,
                    "duration": 0.14999999999997726
                },
                {
                    "name": "E4",
                    "midi": 64,
                    "time": 429.4500000000017,
                    "velocity": 0.3858267716535433,
                    "duration": 0.14999999999997726
                },
                {
                    "name": "F4",
                    "midi": 65,
                    "time": 429.60000000000167,
                    "velocity": 0.3858267716535433,
                    "duration": 0.14999999999997726
                },
                {
                    "name": "E4",
                    "midi": 64,
                    "time": 429.75000000000165,
                    "velocity": 0.3858267716535433,
                    "duration": 0.14999999999997726
                },
                {
                    "name": "F4",
                    "midi": 65,
                    "time": 429.9000000000016,
                    "velocity": 0.3858267716535433,
                    "duration": 0.14999999999997726
                },
                {
                    "name": "E4",
                    "midi": 64,
                    "time": 430.0500000000016,
                    "velocity": 0.3858267716535433,
                    "duration": 0.14999999999997726
                },
                {
                    "name": "F4",
                    "midi": 65,
                    "time": 430.2000000000016,
                    "velocity": 0.3858267716535433,
                    "duration": 0.14999999999997726
                },
                {
                    "name": "E4",
                    "midi": 64,
                    "time": 430.35000000000156,
                    "velocity": 0.3858267716535433,
                    "duration": 0.14999999999997726
                },
                {
                    "name": "F4",
                    "midi": 65,
                    "time": 430.50000000000153,
                    "velocity": 0.3858267716535433,
                    "duration": 0.14999999999997726
                },
                {
                    "name": "E4",
                    "midi": 64,
                    "time": 430.6500000000015,
                    "velocity": 0.3858267716535433,
                    "duration": 0.14999999999997726
                },
                {
                    "name": "F4",
                    "midi": 65,
                    "time": 430.8000000000015,
                    "velocity": 0.3858267716535433,
                    "duration": 0.14999999999997726
                },
                {
                    "name": "E4",
                    "midi": 64,
                    "time": 430.95000000000147,
                    "velocity": 0.3858267716535433,
                    "duration": 0.14999999999997726
                },
                {
                    "name": "F4",
                    "midi": 65,
                    "time": 431.10000000000144,
                    "velocity": 0.3858267716535433,
                    "duration": 0.14999999999997726
                },
                {
                    "name": "E4",
                    "midi": 64,
                    "time": 431.2500000000014,
                    "velocity": 0.3858267716535433,
                    "duration": 0.14999999999997726
                },
                {
                    "name": "F4",
                    "midi": 65,
                    "time": 431.4000000000014,
                    "velocity": 0.3858267716535433,
                    "duration": 0.14999999999997726
                },
                {
                    "name": "E4",
                    "midi": 64,
                    "time": 431.5500000000014,
                    "velocity": 0.3858267716535433,
                    "duration": 0.14999999999997726
                },
                {
                    "name": "F4",
                    "midi": 65,
                    "time": 431.70000000000135,
                    "velocity": 0.3858267716535433,
                    "duration": 0.14999999999997726
                },
                {
                    "name": "E4",
                    "midi": 64,
                    "time": 431.85000000000133,
                    "velocity": 0.3858267716535433,
                    "duration": 0.14999999999997726
                },
                {
                    "name": "F4",
                    "midi": 65,
                    "time": 432.0000000000013,
                    "velocity": 0.3858267716535433,
                    "duration": 0.14999999999997726
                },
                {
                    "name": "E4",
                    "midi": 64,
                    "time": 432.1500000000013,
                    "velocity": 0.3858267716535433,
                    "duration": 0.14999999999997726
                },
                {
                    "name": "F4",
                    "midi": 65,
                    "time": 432.30000000000126,
                    "velocity": 0.3858267716535433,
                    "duration": 0.14999999999997726
                },
                {
                    "name": "E4",
                    "midi": 64,
                    "time": 432.45000000000124,
                    "velocity": 0.3858267716535433,
                    "duration": 0.14999999999997726
                },
                {
                    "name": "F4",
                    "midi": 65,
                    "time": 432.6000000000012,
                    "velocity": 0.3858267716535433,
                    "duration": 0.14999999999997726
                },
                {
                    "name": "E4",
                    "midi": 64,
                    "time": 432.7500000000012,
                    "velocity": 0.3858267716535433,
                    "duration": 0.14999999999997726
                },
                {
                    "name": "F4",
                    "midi": 65,
                    "time": 432.90000000000117,
                    "velocity": 0.3858267716535433,
                    "duration": 0.14999999999997726
                },
                {
                    "name": "E4",
                    "midi": 64,
                    "time": 433.05000000000115,
                    "velocity": 0.3858267716535433,
                    "duration": 0.14999999999997726
                },
                {
                    "name": "F4",
                    "midi": 65,
                    "time": 433.2000000000011,
                    "velocity": 0.3858267716535433,
                    "duration": 0.14999999999997726
                },
                {
                    "name": "E4",
                    "midi": 64,
                    "time": 433.3500000000011,
                    "velocity": 0.3858267716535433,
                    "duration": 0.14999999999997726
                },
                {
                    "name": "F4",
                    "midi": 65,
                    "time": 433.5000000000011,
                    "velocity": 0.3858267716535433,
                    "duration": 0.14999999999997726
                },
                {
                    "name": "E4",
                    "midi": 64,
                    "time": 433.65000000000106,
                    "velocity": 0.3858267716535433,
                    "duration": 0.14999999999997726
                },
                {
                    "name": "F4",
                    "midi": 65,
                    "time": 433.80000000000103,
                    "velocity": 0.3858267716535433,
                    "duration": 0.14999999999997726
                },
                {
                    "name": "E4",
                    "midi": 64,
                    "time": 433.950000000001,
                    "velocity": 0.3858267716535433,
                    "duration": 0.14999999999997726
                },
                {
                    "name": "F4",
                    "midi": 65,
                    "time": 434.100000000001,
                    "velocity": 0.3858267716535433,
                    "duration": 0.14999999999997726
                },
                {
                    "name": "E4",
                    "midi": 64,
                    "time": 434.25000000000097,
                    "velocity": 0.3858267716535433,
                    "duration": 0.14999999999997726
                },
                {
                    "name": "F4",
                    "midi": 65,
                    "time": 434.40000000000094,
                    "velocity": 0.3858267716535433,
                    "duration": 0.14999999999997726
                },
                {
                    "name": "E4",
                    "midi": 64,
                    "time": 434.5500000000009,
                    "velocity": 0.3858267716535433,
                    "duration": 0.14999999999997726
                },
                {
                    "name": "F4",
                    "midi": 65,
                    "time": 434.7000000000009,
                    "velocity": 0.3858267716535433,
                    "duration": 0.14999999999997726
                },
                {
                    "name": "E4",
                    "midi": 64,
                    "time": 434.8500000000009,
                    "velocity": 0.3858267716535433,
                    "duration": 0.14999999999997726
                },
                {
                    "name": "F4",
                    "midi": 65,
                    "time": 435.00000000000085,
                    "velocity": 0.3858267716535433,
                    "duration": 0.14999999999997726
                },
                {
                    "name": "E4",
                    "midi": 64,
                    "time": 435.15000000000083,
                    "velocity": 0.3858267716535433,
                    "duration": 0.14999999999997726
                },
                {
                    "name": "F4",
                    "midi": 65,
                    "time": 435.3000000000008,
                    "velocity": 0.3858267716535433,
                    "duration": 0.14999999999997726
                },
                {
                    "name": "E4",
                    "midi": 64,
                    "time": 435.4500000000008,
                    "velocity": 0.3858267716535433,
                    "duration": 0.14999999999997726
                },
                {
                    "name": "F4",
                    "midi": 65,
                    "time": 435.60000000000076,
                    "velocity": 0.3858267716535433,
                    "duration": 0.14999999999997726
                },
                {
                    "name": "E4",
                    "midi": 64,
                    "time": 435.75000000000074,
                    "velocity": 0.3858267716535433,
                    "duration": 0.14999999999997726
                },
                {
                    "name": "F4",
                    "midi": 65,
                    "time": 435.9000000000007,
                    "velocity": 0.3858267716535433,
                    "duration": 0.14999999999997726
                },
                {
                    "name": "E4",
                    "midi": 64,
                    "time": 436.0500000000007,
                    "velocity": 0.3858267716535433,
                    "duration": 0.14999999999997726
                },
                {
                    "name": "F4",
                    "midi": 65,
                    "time": 436.20000000000067,
                    "velocity": 0.3858267716535433,
                    "duration": 0.14999999999997726
                },
                {
                    "name": "E4",
                    "midi": 64,
                    "time": 436.35000000000065,
                    "velocity": 0.3858267716535433,
                    "duration": 0.14999999999997726
                },
                {
                    "name": "F4",
                    "midi": 65,
                    "time": 436.5000000000006,
                    "velocity": 0.3858267716535433,
                    "duration": 0.14999999999997726
                },
                {
                    "name": "E4",
                    "midi": 64,
                    "time": 436.6500000000006,
                    "velocity": 0.3858267716535433,
                    "duration": 0.14999999999997726
                },
                {
                    "name": "F4",
                    "midi": 65,
                    "time": 436.8000000000006,
                    "velocity": 0.3858267716535433,
                    "duration": 0.14999999999997726
                },
                {
                    "name": "E4",
                    "midi": 64,
                    "time": 436.95000000000056,
                    "velocity": 0.3858267716535433,
                    "duration": 0.14999999999997726
                },
                {
                    "name": "F4",
                    "midi": 65,
                    "time": 437.10000000000053,
                    "velocity": 0.3858267716535433,
                    "duration": 0.14999999999997726
                },
                {
                    "name": "E4",
                    "midi": 64,
                    "time": 437.2500000000005,
                    "velocity": 0.3858267716535433,
                    "duration": 0.14999999999997726
                },
                {
                    "name": "F4",
                    "midi": 65,
                    "time": 437.4000000000005,
                    "velocity": 0.3858267716535433,
                    "duration": 0.14999999999997726
                },
                {
                    "name": "E4",
                    "midi": 64,
                    "time": 437.55000000000047,
                    "velocity": 0.3858267716535433,
                    "duration": 0.14999999999997726
                },
                {
                    "name": "F4",
                    "midi": 65,
                    "time": 437.70000000000044,
                    "velocity": 0.3858267716535433,
                    "duration": 0.14999999999997726
                },
                {
                    "name": "E4",
                    "midi": 64,
                    "time": 437.8500000000004,
                    "velocity": 0.3858267716535433,
                    "duration": 0.14999999999997726
                },
                {
                    "name": "F4",
                    "midi": 65,
                    "time": 438.0000000000004,
                    "velocity": 0.3858267716535433,
                    "duration": 0.14999999999997726
                },
                {
                    "name": "E4",
                    "midi": 64,
                    "time": 438.1500000000004,
                    "velocity": 0.3858267716535433,
                    "duration": 0.14999999999997726
                },
                {
                    "name": "F4",
                    "midi": 65,
                    "time": 438.30000000000035,
                    "velocity": 0.3858267716535433,
                    "duration": 0.14999999999997726
                },
                {
                    "name": "E4",
                    "midi": 64,
                    "time": 438.45000000000033,
                    "velocity": 0.3858267716535433,
                    "duration": 0.14999999999997726
                },
                {
                    "name": "F4",
                    "midi": 65,
                    "time": 438.6000000000003,
                    "velocity": 0.3858267716535433,
                    "duration": 0.14999999999997726
                },
                {
                    "name": "E4",
                    "midi": 64,
                    "time": 438.7500000000003,
                    "velocity": 0.3858267716535433,
                    "duration": 0.14999999999997726
                },
                {
                    "name": "F4",
                    "midi": 65,
                    "time": 438.90000000000026,
                    "velocity": 0.3858267716535433,
                    "duration": 0.14999999999997726
                },
                {
                    "name": "E4",
                    "midi": 64,
                    "time": 439.05000000000024,
                    "velocity": 0.3858267716535433,
                    "duration": 0.14999999999997726
                },
                {
                    "name": "F4",
                    "midi": 65,
                    "time": 439.2000000000002,
                    "velocity": 0.3858267716535433,
                    "duration": 0.14999999999997726
                },
                {
                    "name": "E4",
                    "midi": 64,
                    "time": 439.3500000000002,
                    "velocity": 0.3858267716535433,
                    "duration": 0.14999999999997726
                },
                {
                    "name": "F4",
                    "midi": 65,
                    "time": 439.50000000000017,
                    "velocity": 0.3858267716535433,
                    "duration": 0.14999999999997726
                },
                {
                    "name": "E4",
                    "midi": 64,
                    "time": 439.65000000000015,
                    "velocity": 0.3858267716535433,
                    "duration": 0.14999999999997726
                },
                {
                    "name": "F4",
                    "midi": 65,
                    "time": 439.8000000000001,
                    "velocity": 0.3858267716535433,
                    "duration": 0.14999999999997726
                },
                {
                    "name": "E4",
                    "midi": 64,
                    "time": 439.9500000000001,
                    "velocity": 0.3858267716535433,
                    "duration": 0.14999999999997726
                },
                {
                    "name": "F4",
                    "midi": 65,
                    "time": 440.1000000000001,
                    "velocity": 0.3858267716535433,
                    "duration": 0.14999999999997726
                },
                {
                    "name": "E4",
                    "midi": 64,
                    "time": 440.25000000000006,
                    "velocity": 0.3858267716535433,
                    "duration": 0.14999999999997726
                },
                {
                    "name": "F4",
                    "midi": 65,
                    "time": 440.40000000000003,
                    "velocity": 0.3858267716535433,
                    "duration": 0.14999999999997726
                },
                {
                    "name": "E4",
                    "midi": 64,
                    "time": 440.55,
                    "velocity": 0.3858267716535433,
                    "duration": 0.14999999999997726
                },
                {
                    "name": "F4",
                    "midi": 65,
                    "time": 440.7,
                    "velocity": 0.3858267716535433,
                    "duration": 0.14999999999997726
                },
                {
                    "name": "E4",
                    "midi": 64,
                    "time": 440.84999999999997,
                    "velocity": 0.3858267716535433,
                    "duration": 0.14999999999997726
                },
                {
                    "name": "F4",
                    "midi": 65,
                    "time": 440.99999999999994,
                    "velocity": 0.3858267716535433,
                    "duration": 0.14999999999997726
                },
                {
                    "name": "E4",
                    "midi": 64,
                    "time": 441.1499999999999,
                    "velocity": 0.3858267716535433,
                    "duration": 0.14999999999997726
                },
                {
                    "name": "F4",
                    "midi": 65,
                    "time": 441.2999999999999,
                    "velocity": 0.3858267716535433,
                    "duration": 0.14999999999997726
                },
                {
                    "name": "E4",
                    "midi": 64,
                    "time": 441.4499999999999,
                    "velocity": 0.3858267716535433,
                    "duration": 0.14999999999997726
                },
                {
                    "name": "F4",
                    "midi": 65,
                    "time": 448.79999999999984,
                    "velocity": 0.3858267716535433,
                    "duration": 0.14999999999997726
                },
                {
                    "name": "E4",
                    "midi": 64,
                    "time": 448.9499999999998,
                    "velocity": 0.3858267716535433,
                    "duration": 0.14999999999997726
                },
                {
                    "name": "F4",
                    "midi": 65,
                    "time": 449.0999999999998,
                    "velocity": 0.3858267716535433,
                    "duration": 0.14999999999997726
                },
                {
                    "name": "E4",
                    "midi": 64,
                    "time": 449.2499999999998,
                    "velocity": 0.3858267716535433,
                    "duration": 0.14999999999997726
                },
                {
                    "name": "F4",
                    "midi": 65,
                    "time": 449.39999999999975,
                    "velocity": 0.3858267716535433,
                    "duration": 0.14999999999997726
                },
                {
                    "name": "E4",
                    "midi": 64,
                    "time": 449.5499999999997,
                    "velocity": 0.3858267716535433,
                    "duration": 0.14999999999997726
                },
                {
                    "name": "F4",
                    "midi": 65,
                    "time": 449.6999999999997,
                    "velocity": 0.3858267716535433,
                    "duration": 0.14999999999997726
                },
                {
                    "name": "E4",
                    "midi": 64,
                    "time": 449.8499999999997,
                    "velocity": 0.3858267716535433,
                    "duration": 0.14999999999997726
                },
                {
                    "name": "F4",
                    "midi": 65,
                    "time": 449.99999999999966,
                    "velocity": 0.3858267716535433,
                    "duration": 0.14999999999997726
                },
                {
                    "name": "E4",
                    "midi": 64,
                    "time": 450.14999999999964,
                    "velocity": 0.3858267716535433,
                    "duration": 0.14999999999997726
                },
                {
                    "name": "F4",
                    "midi": 65,
                    "time": 450.2999999999996,
                    "velocity": 0.3858267716535433,
                    "duration": 0.14999999999997726
                },
                {
                    "name": "E4",
                    "midi": 64,
                    "time": 450.4499999999996,
                    "velocity": 0.3858267716535433,
                    "duration": 0.14999999999997726
                },
                {
                    "name": "F4",
                    "midi": 65,
                    "time": 450.59999999999957,
                    "velocity": 0.3858267716535433,
                    "duration": 0.14999999999997726
                },
                {
                    "name": "E4",
                    "midi": 64,
                    "time": 450.74999999999955,
                    "velocity": 0.3858267716535433,
                    "duration": 0.14999999999997726
                },
                {
                    "name": "F4",
                    "midi": 65,
                    "time": 450.8999999999995,
                    "velocity": 0.3858267716535433,
                    "duration": 0.14999999999997726
                },
                {
                    "name": "E4",
                    "midi": 64,
                    "time": 451.0499999999995,
                    "velocity": 0.3858267716535433,
                    "duration": 0.14999999999997726
                },
                {
                    "name": "F4",
                    "midi": 65,
                    "time": 451.1999999999995,
                    "velocity": 0.3858267716535433,
                    "duration": 0.14999999999997726
                },
                {
                    "name": "E4",
                    "midi": 64,
                    "time": 451.34999999999945,
                    "velocity": 0.3858267716535433,
                    "duration": 0.14999999999997726
                },
                {
                    "name": "F4",
                    "midi": 65,
                    "time": 451.49999999999943,
                    "velocity": 0.3858267716535433,
                    "duration": 0.14999999999997726
                },
                {
                    "name": "E4",
                    "midi": 64,
                    "time": 451.6499999999994,
                    "velocity": 0.3858267716535433,
                    "duration": 0.14999999999997726
                },
                {
                    "name": "F4",
                    "midi": 65,
                    "time": 451.7999999999994,
                    "velocity": 0.3858267716535433,
                    "duration": 0.14999999999997726
                },
                {
                    "name": "E4",
                    "midi": 64,
                    "time": 451.94999999999936,
                    "velocity": 0.3858267716535433,
                    "duration": 0.14999999999997726
                },
                {
                    "name": "F4",
                    "midi": 65,
                    "time": 452.09999999999934,
                    "velocity": 0.3858267716535433,
                    "duration": 0.14999999999997726
                },
                {
                    "name": "E4",
                    "midi": 64,
                    "time": 452.2499999999993,
                    "velocity": 0.3858267716535433,
                    "duration": 0.14999999999997726
                },
                {
                    "name": "F4",
                    "midi": 65,
                    "time": 452.3999999999993,
                    "velocity": 0.3858267716535433,
                    "duration": 0.14999999999997726
                },
                {
                    "name": "E4",
                    "midi": 64,
                    "time": 452.5499999999993,
                    "velocity": 0.3858267716535433,
                    "duration": 0.14999999999997726
                },
                {
                    "name": "F4",
                    "midi": 65,
                    "time": 452.69999999999925,
                    "velocity": 0.3858267716535433,
                    "duration": 0.14999999999997726
                },
                {
                    "name": "E4",
                    "midi": 64,
                    "time": 452.8499999999992,
                    "velocity": 0.3858267716535433,
                    "duration": 0.14999999999997726
                },
                {
                    "name": "F4",
                    "midi": 65,
                    "time": 452.9999999999992,
                    "velocity": 0.3858267716535433,
                    "duration": 0.14999999999997726
                },
                {
                    "name": "E4",
                    "midi": 64,
                    "time": 453.1499999999992,
                    "velocity": 0.3858267716535433,
                    "duration": 0.14999999999997726
                },
                {
                    "name": "F4",
                    "midi": 65,
                    "time": 453.29999999999916,
                    "velocity": 0.3858267716535433,
                    "duration": 0.14999999999997726
                },
                {
                    "name": "E4",
                    "midi": 64,
                    "time": 453.44999999999914,
                    "velocity": 0.3858267716535433,
                    "duration": 0.14999999999997726
                },
                {
                    "name": "F4",
                    "midi": 65,
                    "time": 453.5999999999991,
                    "velocity": 0.3858267716535433,
                    "duration": 0.14999999999997726
                },
                {
                    "name": "E4",
                    "midi": 64,
                    "time": 453.7499999999991,
                    "velocity": 0.3858267716535433,
                    "duration": 0.14999999999997726
                },
                {
                    "name": "F4",
                    "midi": 65,
                    "time": 453.89999999999907,
                    "velocity": 0.3858267716535433,
                    "duration": 0.14999999999997726
                },
                {
                    "name": "E4",
                    "midi": 64,
                    "time": 454.04999999999905,
                    "velocity": 0.3858267716535433,
                    "duration": 0.14999999999997726
                },
                {
                    "name": "F4",
                    "midi": 65,
                    "time": 454.199999999999,
                    "velocity": 0.3858267716535433,
                    "duration": 0.14999999999997726
                },
                {
                    "name": "E4",
                    "midi": 64,
                    "time": 454.349999999999,
                    "velocity": 0.3858267716535433,
                    "duration": 0.14999999999997726
                },
                {
                    "name": "F4",
                    "midi": 65,
                    "time": 454.499999999999,
                    "velocity": 0.3858267716535433,
                    "duration": 0.14999999999997726
                },
                {
                    "name": "E4",
                    "midi": 64,
                    "time": 454.64999999999895,
                    "velocity": 0.3858267716535433,
                    "duration": 0.14999999999997726
                },
                {
                    "name": "F4",
                    "midi": 65,
                    "time": 454.79999999999893,
                    "velocity": 0.3858267716535433,
                    "duration": 0.14999999999997726
                },
                {
                    "name": "E4",
                    "midi": 64,
                    "time": 454.9499999999989,
                    "velocity": 0.3858267716535433,
                    "duration": 0.14999999999997726
                },
                {
                    "name": "F4",
                    "midi": 65,
                    "time": 455.0999999999989,
                    "velocity": 0.3858267716535433,
                    "duration": 0.14999999999997726
                },
                {
                    "name": "E4",
                    "midi": 64,
                    "time": 455.24999999999886,
                    "velocity": 0.3858267716535433,
                    "duration": 0.14999999999997726
                },
                {
                    "name": "F4",
                    "midi": 65,
                    "time": 455.39999999999884,
                    "velocity": 0.3858267716535433,
                    "duration": 0.14999999999997726
                },
                {
                    "name": "E4",
                    "midi": 64,
                    "time": 455.5499999999988,
                    "velocity": 0.3858267716535433,
                    "duration": 0.14999999999997726
                },
                {
                    "name": "F4",
                    "midi": 65,
                    "time": 455.6999999999988,
                    "velocity": 0.3858267716535433,
                    "duration": 0.14999999999997726
                },
                {
                    "name": "E4",
                    "midi": 64,
                    "time": 455.8499999999988,
                    "velocity": 0.3858267716535433,
                    "duration": 0.14999999999997726
                },
                {
                    "name": "F4",
                    "midi": 65,
                    "time": 470.3999999999987,
                    "velocity": 0.3858267716535433,
                    "duration": 0.14999999999997726
                },
                {
                    "name": "E4",
                    "midi": 64,
                    "time": 470.5499999999987,
                    "velocity": 0.3858267716535433,
                    "duration": 0.14999999999997726
                },
                {
                    "name": "F4",
                    "midi": 65,
                    "time": 470.6999999999987,
                    "velocity": 0.3858267716535433,
                    "duration": 0.14999999999997726
                },
                {
                    "name": "E4",
                    "midi": 64,
                    "time": 470.84999999999866,
                    "velocity": 0.3858267716535433,
                    "duration": 0.14999999999997726
                },
                {
                    "name": "F4",
                    "midi": 65,
                    "time": 470.99999999999864,
                    "velocity": 0.3858267716535433,
                    "duration": 0.14999999999997726
                },
                {
                    "name": "E4",
                    "midi": 64,
                    "time": 471.1499999999986,
                    "velocity": 0.3858267716535433,
                    "duration": 0.14999999999997726
                },
                {
                    "name": "F4",
                    "midi": 65,
                    "time": 471.2999999999986,
                    "velocity": 0.3858267716535433,
                    "duration": 0.14999999999997726
                },
                {
                    "name": "E4",
                    "midi": 64,
                    "time": 471.44999999999857,
                    "velocity": 0.3858267716535433,
                    "duration": 0.14999999999997726
                },
                {
                    "name": "F4",
                    "midi": 65,
                    "time": 471.59999999999854,
                    "velocity": 0.3858267716535433,
                    "duration": 0.14999999999997726
                },
                {
                    "name": "E4",
                    "midi": 64,
                    "time": 471.7499999999985,
                    "velocity": 0.3858267716535433,
                    "duration": 0.14999999999997726
                },
                {
                    "name": "F4",
                    "midi": 65,
                    "time": 471.8999999999985,
                    "velocity": 0.3858267716535433,
                    "duration": 0.14999999999997726
                },
                {
                    "name": "E4",
                    "midi": 64,
                    "time": 472.0499999999985,
                    "velocity": 0.3858267716535433,
                    "duration": 0.14999999999997726
                },
                {
                    "name": "F4",
                    "midi": 65,
                    "time": 472.19999999999845,
                    "velocity": 0.3858267716535433,
                    "duration": 0.14999999999997726
                },
                {
                    "name": "E4",
                    "midi": 64,
                    "time": 472.34999999999843,
                    "velocity": 0.3858267716535433,
                    "duration": 0.14999999999997726
                },
                {
                    "name": "F4",
                    "midi": 65,
                    "time": 472.4999999999984,
                    "velocity": 0.3858267716535433,
                    "duration": 0.14999999999997726
                },
                {
                    "name": "E4",
                    "midi": 64,
                    "time": 472.6499999999984,
                    "velocity": 0.3858267716535433,
                    "duration": 0.14999999999997726
                },
                {
                    "name": "F4",
                    "midi": 65,
                    "time": 472.79999999999836,
                    "velocity": 0.3858267716535433,
                    "duration": 0.14999999999997726
                },
                {
                    "name": "E4",
                    "midi": 64,
                    "time": 472.94999999999834,
                    "velocity": 0.3858267716535433,
                    "duration": 0.14999999999997726
                },
                {
                    "name": "F4",
                    "midi": 65,
                    "time": 473.0999999999983,
                    "velocity": 0.3858267716535433,
                    "duration": 0.14999999999997726
                },
                {
                    "name": "E4",
                    "midi": 64,
                    "time": 473.2499999999983,
                    "velocity": 0.3858267716535433,
                    "duration": 0.14999999999997726
                },
                {
                    "name": "F4",
                    "midi": 65,
                    "time": 473.3999999999983,
                    "velocity": 0.3858267716535433,
                    "duration": 0.14999999999997726
                },
                {
                    "name": "E4",
                    "midi": 64,
                    "time": 473.54999999999825,
                    "velocity": 0.3858267716535433,
                    "duration": 0.14999999999997726
                },
                {
                    "name": "F4",
                    "midi": 65,
                    "time": 473.6999999999982,
                    "velocity": 0.3858267716535433,
                    "duration": 0.14999999999997726
                },
                {
                    "name": "E4",
                    "midi": 64,
                    "time": 473.8499999999982,
                    "velocity": 0.3858267716535433,
                    "duration": 0.14999999999997726
                },
                {
                    "name": "F4",
                    "midi": 65,
                    "time": 473.9999999999982,
                    "velocity": 0.3858267716535433,
                    "duration": 0.14999999999997726
                },
                {
                    "name": "E4",
                    "midi": 64,
                    "time": 474.14999999999816,
                    "velocity": 0.3858267716535433,
                    "duration": 0.14999999999997726
                },
                {
                    "name": "F4",
                    "midi": 65,
                    "time": 474.29999999999814,
                    "velocity": 0.3858267716535433,
                    "duration": 0.14999999999997726
                },
                {
                    "name": "E4",
                    "midi": 64,
                    "time": 474.4499999999981,
                    "velocity": 0.3858267716535433,
                    "duration": 0.14999999999997726
                },
                {
                    "name": "F4",
                    "midi": 65,
                    "time": 474.5999999999981,
                    "velocity": 0.3858267716535433,
                    "duration": 0.14999999999997726
                },
                {
                    "name": "E4",
                    "midi": 64,
                    "time": 474.74999999999807,
                    "velocity": 0.3858267716535433,
                    "duration": 0.14999999999997726
                },
                {
                    "name": "F4",
                    "midi": 65,
                    "time": 474.89999999999804,
                    "velocity": 0.3858267716535433,
                    "duration": 0.14999999999997726
                },
                {
                    "name": "E4",
                    "midi": 64,
                    "time": 475.049999999998,
                    "velocity": 0.3858267716535433,
                    "duration": 0.14999999999997726
                },
                {
                    "name": "D#5",
                    "midi": 75,
                    "time": 496.799999999998,
                    "velocity": 0.3858267716535433,
                    "duration": 0.30000000000001137
                },
                {
                    "name": "C5",
                    "midi": 72,
                    "time": 497.09999999999803,
                    "velocity": 0.3858267716535433,
                    "duration": 0.30000000000001137
                },
                {
                    "name": "C#5",
                    "midi": 73,
                    "time": 497.39999999999804,
                    "velocity": 0.3858267716535433,
                    "duration": 0.6000000000000227
                },
                {
                    "name": "F5",
                    "midi": 77,
                    "time": 497.39999999999804,
                    "velocity": 0.3858267716535433,
                    "duration": 0.6000000000000227
                },
                {
                    "name": "F5",
                    "midi": 77,
                    "time": 497.99999999999807,
                    "velocity": 0.3858267716535433,
                    "duration": 0.30000000000001137
                },
                {
                    "name": "G#5",
                    "midi": 80,
                    "time": 497.99999999999807,
                    "velocity": 0.3858267716535433,
                    "duration": 0.30000000000001137
                },
                {
                    "name": "C#5",
                    "midi": 73,
                    "time": 498.2999999999981,
                    "velocity": 0.3858267716535433,
                    "duration": 0.30000000000001137
                },
                {
                    "name": "G#5",
                    "midi": 80,
                    "time": 498.5999999999981,
                    "velocity": 0.3858267716535433,
                    "duration": 0.30000000000001137
                },
                {
                    "name": "C6",
                    "midi": 84,
                    "time": 498.5999999999981,
                    "velocity": 0.3858267716535433,
                    "duration": 0.30000000000001137
                },
                {
                    "name": "F5",
                    "midi": 77,
                    "time": 498.8999999999981,
                    "velocity": 0.3858267716535433,
                    "duration": 0.30000000000001137
                },
                {
                    "name": "F#5",
                    "midi": 78,
                    "time": 499.1999999999981,
                    "velocity": 0.3858267716535433,
                    "duration": 0.30000000000001137
                },
                {
                    "name": "A#5",
                    "midi": 82,
                    "time": 499.1999999999981,
                    "velocity": 0.3858267716535433,
                    "duration": 0.30000000000001137
                },
                {
                    "name": "D#5",
                    "midi": 75,
                    "time": 499.4999999999981,
                    "velocity": 0.3858267716535433,
                    "duration": 0.30000000000001137
                },
                {
                    "name": "C#5",
                    "midi": 73,
                    "time": 499.79999999999814,
                    "velocity": 0.3858267716535433,
                    "duration": 0.6000000000000227
                },
                {
                    "name": "F5",
                    "midi": 77,
                    "time": 499.79999999999814,
                    "velocity": 0.3858267716535433,
                    "duration": 0.6000000000000227
                },
                {
                    "name": "F5",
                    "midi": 77,
                    "time": 500.39999999999816,
                    "velocity": 0.3858267716535433,
                    "duration": 0.30000000000001137
                },
                {
                    "name": "G#5",
                    "midi": 80,
                    "time": 500.39999999999816,
                    "velocity": 0.3858267716535433,
                    "duration": 0.30000000000001137
                },
                {
                    "name": "C#5",
                    "midi": 73,
                    "time": 500.69999999999817,
                    "velocity": 0.3858267716535433,
                    "duration": 0.30000000000001137
                },
                {
                    "name": "C#5",
                    "midi": 73,
                    "time": 500.9999999999982,
                    "velocity": 0.3858267716535433,
                    "duration": 0.30000000000001137
                },
                {
                    "name": "F5",
                    "midi": 77,
                    "time": 500.9999999999982,
                    "velocity": 0.3858267716535433,
                    "duration": 0.30000000000001137
                },
                {
                    "name": "C5",
                    "midi": 72,
                    "time": 501.2999999999982,
                    "velocity": 0.3858267716535433,
                    "duration": 0.30000000000001137
                },
                {
                    "name": "D#5",
                    "midi": 75,
                    "time": 501.5999999999982,
                    "velocity": 0.3858267716535433,
                    "duration": 0.30000000000001137
                },
                {
                    "name": "F#5",
                    "midi": 78,
                    "time": 501.5999999999982,
                    "velocity": 0.3858267716535433,
                    "duration": 0.30000000000001137
                },
                {
                    "name": "C5",
                    "midi": 72,
                    "time": 501.8999999999982,
                    "velocity": 0.3858267716535433,
                    "duration": 0.30000000000001137
                },
                {
                    "name": "F#5",
                    "midi": 78,
                    "time": 502.1999999999982,
                    "velocity": 0.3858267716535433,
                    "duration": 0.30000000000001137
                },
                {
                    "name": "A#5",
                    "midi": 82,
                    "time": 502.1999999999982,
                    "velocity": 0.3858267716535433,
                    "duration": 0.30000000000001137
                },
                {
                    "name": "F5",
                    "midi": 77,
                    "time": 502.49999999999824,
                    "velocity": 0.3858267716535433,
                    "duration": 0.30000000000001137
                },
                {
                    "name": "D#5",
                    "midi": 75,
                    "time": 503.99999999999824,
                    "velocity": 0.3858267716535433,
                    "duration": 0.30000000000001137
                },
                {
                    "name": "F#5",
                    "midi": 78,
                    "time": 503.99999999999824,
                    "velocity": 0.3858267716535433,
                    "duration": 0.30000000000001137
                },
                {
                    "name": "C5",
                    "midi": 72,
                    "time": 504.29999999999825,
                    "velocity": 0.3858267716535433,
                    "duration": 0.30000000000001137
                },
                {
                    "name": "F#5",
                    "midi": 78,
                    "time": 504.59999999999826,
                    "velocity": 0.3858267716535433,
                    "duration": 0.30000000000001137
                },
                {
                    "name": "A#5",
                    "midi": 82,
                    "time": 504.59999999999826,
                    "velocity": 0.3858267716535433,
                    "duration": 0.30000000000001137
                },
                {
                    "name": "F5",
                    "midi": 77,
                    "time": 504.8999999999983,
                    "velocity": 0.3858267716535433,
                    "duration": 0.30000000000001137
                },
                {
                    "name": "F5",
                    "midi": 77,
                    "time": 505.1999999999983,
                    "velocity": 0.3858267716535433,
                    "duration": 0.30000000000001137
                },
                {
                    "name": "G#5",
                    "midi": 80,
                    "time": 505.1999999999983,
                    "velocity": 0.3858267716535433,
                    "duration": 0.30000000000001137
                },
                {
                    "name": "C5",
                    "midi": 72,
                    "time": 505.4999999999983,
                    "velocity": 0.3858267716535433,
                    "duration": 0.30000000000001137
                },
                {
                    "name": "C#5",
                    "midi": 73,
                    "time": 505.7999999999983,
                    "velocity": 0.3858267716535433,
                    "duration": 0.6000000000000227
                },
                {
                    "name": "F5",
                    "midi": 77,
                    "time": 505.7999999999983,
                    "velocity": 0.3858267716535433,
                    "duration": 0.6000000000000227
                },
                {
                    "name": "C#4",
                    "midi": 61,
                    "time": 506.39999999999833,
                    "velocity": 0.5905511811023622,
                    "duration": 1.1999999999999886
                },
                {
                    "name": "F4",
                    "midi": 65,
                    "time": 506.39999999999833,
                    "velocity": 0.5905511811023622,
                    "duration": 1.1999999999999886
                },
                {
                    "name": "F#4",
                    "midi": 66,
                    "time": 506.39999999999833,
                    "velocity": 0.5905511811023622,
                    "duration": 1.1999999999999886
                },
                {
                    "name": "A#4",
                    "midi": 70,
                    "time": 506.39999999999833,
                    "velocity": 0.5905511811023622,
                    "duration": 1.1999999999999886
                },
                {
                    "name": "F5",
                    "midi": 77,
                    "time": 507.5999999999983,
                    "velocity": 0.3858267716535433,
                    "duration": 0.30000000000001137
                },
                {
                    "name": "G#5",
                    "midi": 80,
                    "time": 507.5999999999983,
                    "velocity": 0.3858267716535433,
                    "duration": 0.30000000000001137
                },
                {
                    "name": "C#5",
                    "midi": 73,
                    "time": 507.89999999999833,
                    "velocity": 0.3858267716535433,
                    "duration": 0.30000000000001137
                },
                {
                    "name": "G#5",
                    "midi": 80,
                    "time": 508.19999999999834,
                    "velocity": 0.3858267716535433,
                    "duration": 0.30000000000001137
                },
                {
                    "name": "C6",
                    "midi": 84,
                    "time": 508.19999999999834,
                    "velocity": 0.3858267716535433,
                    "duration": 0.30000000000001137
                },
                {
                    "name": "F5",
                    "midi": 77,
                    "time": 508.49999999999835,
                    "velocity": 0.3858267716535433,
                    "duration": 0.30000000000001137
                },
                {
                    "name": "F#5",
                    "midi": 78,
                    "time": 508.79999999999836,
                    "velocity": 0.3858267716535433,
                    "duration": 0.30000000000001137
                },
                {
                    "name": "A#5",
                    "midi": 82,
                    "time": 508.79999999999836,
                    "velocity": 0.3858267716535433,
                    "duration": 0.30000000000001137
                },
                {
                    "name": "D#5",
                    "midi": 75,
                    "time": 509.0999999999984,
                    "velocity": 0.3858267716535433,
                    "duration": 0.30000000000001137
                },
                {
                    "name": "C#5",
                    "midi": 73,
                    "time": 509.3999999999984,
                    "velocity": 0.3858267716535433,
                    "duration": 0.6000000000000227
                },
                {
                    "name": "F5",
                    "midi": 77,
                    "time": 509.3999999999984,
                    "velocity": 0.3858267716535433,
                    "duration": 0.6000000000000227
                },
                {
                    "name": "F5",
                    "midi": 77,
                    "time": 509.9999999999984,
                    "velocity": 0.3858267716535433,
                    "duration": 0.30000000000001137
                },
                {
                    "name": "G#5",
                    "midi": 80,
                    "time": 509.9999999999984,
                    "velocity": 0.3858267716535433,
                    "duration": 0.30000000000001137
                },
                {
                    "name": "C#5",
                    "midi": 73,
                    "time": 510.2999999999984,
                    "velocity": 0.3858267716535433,
                    "duration": 0.30000000000001137
                },
                {
                    "name": "C#5",
                    "midi": 73,
                    "time": 510.59999999999843,
                    "velocity": 0.3858267716535433,
                    "duration": 0.30000000000001137
                },
                {
                    "name": "F5",
                    "midi": 77,
                    "time": 510.59999999999843,
                    "velocity": 0.3858267716535433,
                    "duration": 0.30000000000001137
                },
                {
                    "name": "C5",
                    "midi": 72,
                    "time": 510.89999999999844,
                    "velocity": 0.3858267716535433,
                    "duration": 0.30000000000001137
                },
                {
                    "name": "D4",
                    "midi": 62,
                    "time": 511.19999999999845,
                    "velocity": 0.3858267716535433,
                    "duration": 0.11750000000000682
                },
                {
                    "name": "A#3",
                    "midi": 58,
                    "time": 511.7999999999985,
                    "velocity": 0.3858267716535433,
                    "duration": 0.11750000000000682
                },
                {
                    "name": "F5",
                    "midi": 77,
                    "time": 512.3999999999985,
                    "velocity": 0.3858267716535433,
                    "duration": 0.2999999999999545
                },
                {
                    "name": "G#5",
                    "midi": 80,
                    "time": 512.3999999999985,
                    "velocity": 0.3858267716535433,
                    "duration": 0.2999999999999545
                },
                {
                    "name": "C5",
                    "midi": 72,
                    "time": 512.6999999999985,
                    "velocity": 0.3858267716535433,
                    "duration": 0.2999999999999545
                },
                {
                    "name": "C#5",
                    "midi": 73,
                    "time": 512.9999999999984,
                    "velocity": 0.3858267716535433,
                    "duration": 0.6000000000000227
                },
                {
                    "name": "F5",
                    "midi": 77,
                    "time": 512.9999999999984,
                    "velocity": 0.3858267716535433,
                    "duration": 0.6000000000000227
                },
                {
                    "name": "F#5",
                    "midi": 78,
                    "time": 513.5999999999984,
                    "velocity": 0.3858267716535433,
                    "duration": 0.2999999999999545
                },
                {
                    "name": "A#5",
                    "midi": 82,
                    "time": 513.5999999999984,
                    "velocity": 0.3858267716535433,
                    "duration": 0.2999999999999545
                },
                {
                    "name": "D#5",
                    "midi": 75,
                    "time": 513.8999999999984,
                    "velocity": 0.3858267716535433,
                    "duration": 0.2999999999999545
                },
                {
                    "name": "C5",
                    "midi": 72,
                    "time": 514.1999999999983,
                    "velocity": 0.3858267716535433,
                    "duration": 0.2999999999999545
                },
                {
                    "name": "D#5",
                    "midi": 75,
                    "time": 514.1999999999983,
                    "velocity": 0.3858267716535433,
                    "duration": 0.2999999999999545
                },
                {
                    "name": "F#5",
                    "midi": 78,
                    "time": 514.1999999999983,
                    "velocity": 0.3858267716535433,
                    "duration": 0.2999999999999545
                },
                {
                    "name": "A#4",
                    "midi": 70,
                    "time": 514.4999999999983,
                    "velocity": 0.3858267716535433,
                    "duration": 0.2999999999999545
                },
                {
                    "name": "F5",
                    "midi": 77,
                    "time": 514.7999999999982,
                    "velocity": 0.3858267716535433,
                    "duration": 0.2999999999999545
                },
                {
                    "name": "G#5",
                    "midi": 80,
                    "time": 514.7999999999982,
                    "velocity": 0.3858267716535433,
                    "duration": 0.2999999999999545
                },
                {
                    "name": "C#5",
                    "midi": 73,
                    "time": 515.0999999999982,
                    "velocity": 0.3858267716535433,
                    "duration": 0.2999999999999545
                },
                {
                    "name": "G#5",
                    "midi": 80,
                    "time": 515.3999999999982,
                    "velocity": 0.3858267716535433,
                    "duration": 0.2999999999999545
                },
                {
                    "name": "C6",
                    "midi": 84,
                    "time": 515.3999999999982,
                    "velocity": 0.3858267716535433,
                    "duration": 0.2999999999999545
                },
                {
                    "name": "F5",
                    "midi": 77,
                    "time": 515.6999999999981,
                    "velocity": 0.3858267716535433,
                    "duration": 0.2999999999999545
                },
                {
                    "name": "C#4",
                    "midi": 61,
                    "time": 515.9999999999981,
                    "velocity": 0.5905511811023622,
                    "duration": 0.11749999999994998
                },
                {
                    "name": "F4",
                    "midi": 65,
                    "time": 515.9999999999981,
                    "velocity": 0.5905511811023622,
                    "duration": 0.11749999999994998
                },
                {
                    "name": "F#4",
                    "midi": 66,
                    "time": 515.9999999999981,
                    "velocity": 0.5905511811023622,
                    "duration": 0.11749999999994998
                },
                {
                    "name": "A#4",
                    "midi": 70,
                    "time": 515.9999999999981,
                    "velocity": 0.5905511811023622,
                    "duration": 0.11749999999994998
                },
                {
                    "name": "F#5",
                    "midi": 78,
                    "time": 520.799999999998,
                    "velocity": 0.3858267716535433,
                    "duration": 0.05750000000000455
                },
                {
                    "name": "A#5",
                    "midi": 82,
                    "time": 520.799999999998,
                    "velocity": 0.3858267716535433,
                    "duration": 0.05750000000000455
                },
                {
                    "name": "F5",
                    "midi": 77,
                    "time": 521.099999999998,
                    "velocity": 0.3858267716535433,
                    "duration": 0.05750000000000455
                },
                {
                    "name": "G#5",
                    "midi": 80,
                    "time": 521.099999999998,
                    "velocity": 0.3858267716535433,
                    "duration": 0.05750000000000455
                },
                {
                    "name": "D#5",
                    "midi": 75,
                    "time": 521.3999999999979,
                    "velocity": 0.3858267716535433,
                    "duration": 0.05750000000000455
                },
                {
                    "name": "F#5",
                    "midi": 78,
                    "time": 521.3999999999979,
                    "velocity": 0.3858267716535433,
                    "duration": 0.05750000000000455
                },
                {
                    "name": "C#5",
                    "midi": 73,
                    "time": 521.6999999999979,
                    "velocity": 0.3858267716535433,
                    "duration": 0.05750000000000455
                },
                {
                    "name": "F5",
                    "midi": 77,
                    "time": 521.6999999999979,
                    "velocity": 0.3858267716535433,
                    "duration": 0.05750000000000455
                },
                {
                    "name": "D#5",
                    "midi": 75,
                    "time": 521.9999999999978,
                    "velocity": 0.3858267716535433,
                    "duration": 0.05750000000000455
                },
                {
                    "name": "F#5",
                    "midi": 78,
                    "time": 521.9999999999978,
                    "velocity": 0.3858267716535433,
                    "duration": 0.05750000000000455
                },
                {
                    "name": "C#5",
                    "midi": 73,
                    "time": 522.2999999999978,
                    "velocity": 0.3858267716535433,
                    "duration": 0.05750000000000455
                },
                {
                    "name": "F5",
                    "midi": 77,
                    "time": 522.2999999999978,
                    "velocity": 0.3858267716535433,
                    "duration": 0.05750000000000455
                },
                {
                    "name": "C5",
                    "midi": 72,
                    "time": 522.5999999999977,
                    "velocity": 0.3858267716535433,
                    "duration": 0.05750000000000455
                },
                {
                    "name": "D#5",
                    "midi": 75,
                    "time": 522.5999999999977,
                    "velocity": 0.3858267716535433,
                    "duration": 0.05750000000000455
                },
                {
                    "name": "A#4",
                    "midi": 70,
                    "time": 522.8999999999977,
                    "velocity": 0.3858267716535433,
                    "duration": 0.05750000000000455
                },
                {
                    "name": "C#5",
                    "midi": 73,
                    "time": 522.8999999999977,
                    "velocity": 0.3858267716535433,
                    "duration": 0.05750000000000455
                },
                {
                    "name": "F5",
                    "midi": 77,
                    "time": 523.1999999999977,
                    "velocity": 0.3858267716535433,
                    "duration": 0.14999999999997726
                },
                {
                    "name": "F#5",
                    "midi": 78,
                    "time": 523.3499999999976,
                    "velocity": 0.3858267716535433,
                    "duration": 0.14999999999997726
                },
                {
                    "name": "F5",
                    "midi": 77,
                    "time": 523.4999999999976,
                    "velocity": 0.3858267716535433,
                    "duration": 0.14999999999997726
                },
                {
                    "name": "F#5",
                    "midi": 78,
                    "time": 523.6499999999976,
                    "velocity": 0.3858267716535433,
                    "duration": 0.14999999999997726
                },
                {
                    "name": "F5",
                    "midi": 77,
                    "time": 523.7999999999976,
                    "velocity": 0.3858267716535433,
                    "duration": 0.14999999999997726
                },
                {
                    "name": "F#5",
                    "midi": 78,
                    "time": 523.9499999999975,
                    "velocity": 0.3858267716535433,
                    "duration": 0.14999999999997726
                },
                {
                    "name": "F5",
                    "midi": 77,
                    "time": 524.0999999999975,
                    "velocity": 0.3858267716535433,
                    "duration": 0.14999999999997726
                },
                {
                    "name": "F#5",
                    "midi": 78,
                    "time": 524.2499999999975,
                    "velocity": 0.3858267716535433,
                    "duration": 0.14999999999997726
                },
                {
                    "name": "F5",
                    "midi": 77,
                    "time": 524.3999999999975,
                    "velocity": 0.3858267716535433,
                    "duration": 0.14999999999997726
                },
                {
                    "name": "F#5",
                    "midi": 78,
                    "time": 524.5499999999975,
                    "velocity": 0.3858267716535433,
                    "duration": 0.14999999999997726
                },
                {
                    "name": "F5",
                    "midi": 77,
                    "time": 524.6999999999974,
                    "velocity": 0.3858267716535433,
                    "duration": 0.14999999999997726
                },
                {
                    "name": "F#5",
                    "midi": 78,
                    "time": 524.8499999999974,
                    "velocity": 0.3858267716535433,
                    "duration": 0.14999999999997726
                },
                {
                    "name": "F5",
                    "midi": 77,
                    "time": 524.9999999999974,
                    "velocity": 0.3858267716535433,
                    "duration": 0.14999999999997726
                },
                {
                    "name": "F#5",
                    "midi": 78,
                    "time": 525.1499999999974,
                    "velocity": 0.3858267716535433,
                    "duration": 0.14999999999997726
                },
                {
                    "name": "F5",
                    "midi": 77,
                    "time": 525.2999999999973,
                    "velocity": 0.3858267716535433,
                    "duration": 0.14999999999997726
                },
                {
                    "name": "F#5",
                    "midi": 78,
                    "time": 525.4499999999973,
                    "velocity": 0.3858267716535433,
                    "duration": 0.14999999999997726
                },
                {
                    "name": "F4",
                    "midi": 65,
                    "time": 525.5999999999973,
                    "velocity": 0.5905511811023622,
                    "duration": 0.6000000000000227
                },
                {
                    "name": "G#4",
                    "midi": 68,
                    "time": 525.5999999999973,
                    "velocity": 0.5905511811023622,
                    "duration": 0.6000000000000227
                },
                {
                    "name": "A#4",
                    "midi": 70,
                    "time": 525.5999999999973,
                    "velocity": 0.5905511811023622,
                    "duration": 0.6000000000000227
                },
                {
                    "name": "C#5",
                    "midi": 73,
                    "time": 525.5999999999973,
                    "velocity": 0.5905511811023622,
                    "duration": 0.6000000000000227
                },
                {
                    "name": "F5",
                    "midi": 77,
                    "time": 526.1999999999973,
                    "velocity": 0.3858267716535433,
                    "duration": 0.14999999999997726
                },
                {
                    "name": "F#5",
                    "midi": 78,
                    "time": 526.3499999999973,
                    "velocity": 0.3858267716535433,
                    "duration": 0.14999999999997726
                },
                {
                    "name": "F5",
                    "midi": 77,
                    "time": 526.4999999999973,
                    "velocity": 0.3858267716535433,
                    "duration": 0.14999999999997726
                },
                {
                    "name": "F#5",
                    "midi": 78,
                    "time": 526.6499999999972,
                    "velocity": 0.3858267716535433,
                    "duration": 0.14999999999997726
                },
                {
                    "name": "F5",
                    "midi": 77,
                    "time": 526.7999999999972,
                    "velocity": 0.3858267716535433,
                    "duration": 0.14999999999997726
                },
                {
                    "name": "F#5",
                    "midi": 78,
                    "time": 526.9499999999972,
                    "velocity": 0.3858267716535433,
                    "duration": 0.14999999999997726
                },
                {
                    "name": "F5",
                    "midi": 77,
                    "time": 527.0999999999972,
                    "velocity": 0.3858267716535433,
                    "duration": 0.14999999999997726
                },
                {
                    "name": "F#5",
                    "midi": 78,
                    "time": 527.2499999999972,
                    "velocity": 0.3858267716535433,
                    "duration": 0.14999999999997726
                },
                {
                    "name": "F5",
                    "midi": 77,
                    "time": 527.3999999999971,
                    "velocity": 0.4881889763779528,
                    "duration": 0.20000000000004547
                },
                {
                    "name": "D#5",
                    "midi": 75,
                    "time": 527.5999999999972,
                    "velocity": 0.4881889763779528,
                    "duration": 0.1974999999999909
                },
                {
                    "name": "C#5",
                    "midi": 73,
                    "time": 527.7974999999972,
                    "velocity": 0.4881889763779528,
                    "duration": 0.20249999999998636
                },
                {
                    "name": "C5",
                    "midi": 72,
                    "time": 527.9999999999972,
                    "velocity": 0.4881889763779528,
                    "duration": 0.05750000000000455
                },
                {
                    "name": "F5",
                    "midi": 77,
                    "time": 527.9999999999972,
                    "velocity": 0.4881889763779528,
                    "duration": 0.05750000000000455
                },
                {
                    "name": "G#5",
                    "midi": 80,
                    "time": 527.9999999999972,
                    "velocity": 0.4881889763779528,
                    "duration": 0.05750000000000455
                },
                {
                    "name": "D#5",
                    "midi": 75,
                    "time": 528.2999999999971,
                    "velocity": 0.4881889763779528,
                    "duration": 0.05750000000000455
                },
                {
                    "name": "F#5",
                    "midi": 78,
                    "time": 528.2999999999971,
                    "velocity": 0.4881889763779528,
                    "duration": 0.05750000000000455
                },
                {
                    "name": "C#5",
                    "midi": 73,
                    "time": 528.5999999999971,
                    "velocity": 0.4881889763779528,
                    "duration": 0.05750000000000455
                },
                {
                    "name": "F5",
                    "midi": 77,
                    "time": 528.5999999999971,
                    "velocity": 0.4881889763779528,
                    "duration": 0.05750000000000455
                },
                {
                    "name": "C5",
                    "midi": 72,
                    "time": 528.899999999997,
                    "velocity": 0.4881889763779528,
                    "duration": 0.05750000000000455
                },
                {
                    "name": "D#5",
                    "midi": 75,
                    "time": 528.899999999997,
                    "velocity": 0.4881889763779528,
                    "duration": 0.05750000000000455
                },
                {
                    "name": "F#5",
                    "midi": 78,
                    "time": 529.199999999997,
                    "velocity": 0.4881889763779528,
                    "duration": 0.05750000000000455
                },
                {
                    "name": "A#5",
                    "midi": 82,
                    "time": 529.199999999997,
                    "velocity": 0.4881889763779528,
                    "duration": 0.05750000000000455
                },
                {
                    "name": "F5",
                    "midi": 77,
                    "time": 529.4999999999969,
                    "velocity": 0.4881889763779528,
                    "duration": 0.05750000000000455
                },
                {
                    "name": "G#5",
                    "midi": 80,
                    "time": 529.4999999999969,
                    "velocity": 0.4881889763779528,
                    "duration": 0.05750000000000455
                },
                {
                    "name": "D#5",
                    "midi": 75,
                    "time": 529.7999999999969,
                    "velocity": 0.4881889763779528,
                    "duration": 0.05750000000000455
                },
                {
                    "name": "F#5",
                    "midi": 78,
                    "time": 529.7999999999969,
                    "velocity": 0.4881889763779528,
                    "duration": 0.05750000000000455
                },
                {
                    "name": "C#5",
                    "midi": 73,
                    "time": 530.0999999999968,
                    "velocity": 0.4881889763779528,
                    "duration": 0.05750000000000455
                },
                {
                    "name": "F5",
                    "midi": 77,
                    "time": 530.0999999999968,
                    "velocity": 0.4881889763779528,
                    "duration": 0.05750000000000455
                },
                {
                    "name": "F#5",
                    "midi": 78,
                    "time": 530.3999999999968,
                    "velocity": 0.4881889763779528,
                    "duration": 0.05750000000000455
                },
                {
                    "name": "A#5",
                    "midi": 82,
                    "time": 530.3999999999968,
                    "velocity": 0.4881889763779528,
                    "duration": 0.05750000000000455
                },
                {
                    "name": "F5",
                    "midi": 77,
                    "time": 530.6999999999967,
                    "velocity": 0.4881889763779528,
                    "duration": 0.05750000000000455
                },
                {
                    "name": "G#5",
                    "midi": 80,
                    "time": 530.6999999999967,
                    "velocity": 0.4881889763779528,
                    "duration": 0.05750000000000455
                },
                {
                    "name": "D#5",
                    "midi": 75,
                    "time": 530.9999999999967,
                    "velocity": 0.4881889763779528,
                    "duration": 0.05750000000000455
                },
                {
                    "name": "F#5",
                    "midi": 78,
                    "time": 530.9999999999967,
                    "velocity": 0.4881889763779528,
                    "duration": 0.05750000000000455
                },
                {
                    "name": "C#5",
                    "midi": 73,
                    "time": 531.2999999999967,
                    "velocity": 0.4881889763779528,
                    "duration": 0.05750000000000455
                },
                {
                    "name": "F5",
                    "midi": 77,
                    "time": 531.2999999999967,
                    "velocity": 0.4881889763779528,
                    "duration": 0.05750000000000455
                },
                {
                    "name": "F#5",
                    "midi": 78,
                    "time": 531.5999999999966,
                    "velocity": 0.4881889763779528,
                    "duration": 0.2999999999999545
                },
                {
                    "name": "A#5",
                    "midi": 82,
                    "time": 531.5999999999966,
                    "velocity": 0.4881889763779528,
                    "duration": 0.2999999999999545
                },
                {
                    "name": "F5",
                    "midi": 77,
                    "time": 531.8999999999966,
                    "velocity": 0.4881889763779528,
                    "duration": 0.2999999999999545
                },
                {
                    "name": "G#5",
                    "midi": 80,
                    "time": 531.8999999999966,
                    "velocity": 0.4881889763779528,
                    "duration": 0.2999999999999545
                },
                {
                    "name": "D#5",
                    "midi": 75,
                    "time": 532.1999999999965,
                    "velocity": 0.4881889763779528,
                    "duration": 0.2999999999999545
                },
                {
                    "name": "F#5",
                    "midi": 78,
                    "time": 532.1999999999965,
                    "velocity": 0.4881889763779528,
                    "duration": 0.2999999999999545
                },
                {
                    "name": "C#5",
                    "midi": 73,
                    "time": 532.4999999999965,
                    "velocity": 0.4881889763779528,
                    "duration": 0.2999999999999545
                },
                {
                    "name": "F5",
                    "midi": 77,
                    "time": 532.4999999999965,
                    "velocity": 0.4881889763779528,
                    "duration": 0.2999999999999545
                },
                {
                    "name": "F5",
                    "midi": 77,
                    "time": 532.7999999999964,
                    "velocity": 0.3858267716535433,
                    "duration": 0.14999999999997726
                },
                {
                    "name": "F#5",
                    "midi": 78,
                    "time": 532.9499999999964,
                    "velocity": 0.3858267716535433,
                    "duration": 0.14999999999997726
                },
                {
                    "name": "F5",
                    "midi": 77,
                    "time": 533.0999999999964,
                    "velocity": 0.3858267716535433,
                    "duration": 0.14999999999997726
                },
                {
                    "name": "F#5",
                    "midi": 78,
                    "time": 533.2499999999964,
                    "velocity": 0.3858267716535433,
                    "duration": 0.14999999999997726
                },
                {
                    "name": "F5",
                    "midi": 77,
                    "time": 533.3999999999963,
                    "velocity": 0.3858267716535433,
                    "duration": 0.14999999999997726
                },
                {
                    "name": "F#5",
                    "midi": 78,
                    "time": 533.5499999999963,
                    "velocity": 0.3858267716535433,
                    "duration": 0.14999999999997726
                },
                {
                    "name": "F5",
                    "midi": 77,
                    "time": 533.6999999999963,
                    "velocity": 0.3858267716535433,
                    "duration": 0.14999999999997726
                },
                {
                    "name": "F#5",
                    "midi": 78,
                    "time": 533.8499999999963,
                    "velocity": 0.3858267716535433,
                    "duration": 0.14999999999997726
                },
                {
                    "name": "F5",
                    "midi": 77,
                    "time": 533.9999999999962,
                    "velocity": 0.3858267716535433,
                    "duration": 0.14999999999997726
                },
                {
                    "name": "F#5",
                    "midi": 78,
                    "time": 534.1499999999962,
                    "velocity": 0.3858267716535433,
                    "duration": 0.14999999999997726
                },
                {
                    "name": "F5",
                    "midi": 77,
                    "time": 534.2999999999962,
                    "velocity": 0.3858267716535433,
                    "duration": 0.14999999999997726
                },
                {
                    "name": "F#5",
                    "midi": 78,
                    "time": 534.4499999999962,
                    "velocity": 0.3858267716535433,
                    "duration": 0.14999999999997726
                },
                {
                    "name": "F5",
                    "midi": 77,
                    "time": 534.5999999999962,
                    "velocity": 0.3858267716535433,
                    "duration": 0.14999999999997726
                },
                {
                    "name": "F#5",
                    "midi": 78,
                    "time": 534.7499999999961,
                    "velocity": 0.3858267716535433,
                    "duration": 0.14999999999997726
                },
                {
                    "name": "F5",
                    "midi": 77,
                    "time": 534.8999999999961,
                    "velocity": 0.3858267716535433,
                    "duration": 0.14999999999997726
                },
                {
                    "name": "F#5",
                    "midi": 78,
                    "time": 535.0499999999961,
                    "velocity": 0.3858267716535433,
                    "duration": 0.14999999999997726
                },
                {
                    "name": "F5",
                    "midi": 77,
                    "time": 535.1999999999961,
                    "velocity": 0.3858267716535433,
                    "duration": 0.14999999999997726
                },
                {
                    "name": "F#5",
                    "midi": 78,
                    "time": 535.349999999996,
                    "velocity": 0.3858267716535433,
                    "duration": 0.14999999999997726
                },
                {
                    "name": "F5",
                    "midi": 77,
                    "time": 535.499999999996,
                    "velocity": 0.3858267716535433,
                    "duration": 0.14999999999997726
                },
                {
                    "name": "F#5",
                    "midi": 78,
                    "time": 535.649999999996,
                    "velocity": 0.3858267716535433,
                    "duration": 0.14999999999997726
                },
                {
                    "name": "F5",
                    "midi": 77,
                    "time": 535.799999999996,
                    "velocity": 0.3858267716535433,
                    "duration": 0.14999999999997726
                },
                {
                    "name": "F#5",
                    "midi": 78,
                    "time": 535.949999999996,
                    "velocity": 0.3858267716535433,
                    "duration": 0.14999999999997726
                },
                {
                    "name": "F5",
                    "midi": 77,
                    "time": 536.0999999999959,
                    "velocity": 0.3858267716535433,
                    "duration": 0.14999999999997726
                },
                {
                    "name": "F#5",
                    "midi": 78,
                    "time": 536.2499999999959,
                    "velocity": 0.3858267716535433,
                    "duration": 0.14999999999997726
                },
                {
                    "name": "F5",
                    "midi": 77,
                    "time": 537.5999999999959,
                    "velocity": 0.3858267716535433,
                    "duration": 0.14999999999997726
                },
                {
                    "name": "F#5",
                    "midi": 78,
                    "time": 537.7499999999959,
                    "velocity": 0.3858267716535433,
                    "duration": 0.14999999999997726
                },
                {
                    "name": "F5",
                    "midi": 77,
                    "time": 537.8999999999959,
                    "velocity": 0.3858267716535433,
                    "duration": 0.14999999999997726
                },
                {
                    "name": "F#5",
                    "midi": 78,
                    "time": 538.0499999999959,
                    "velocity": 0.3858267716535433,
                    "duration": 0.14999999999997726
                },
                {
                    "name": "F5",
                    "midi": 77,
                    "time": 538.1999999999958,
                    "velocity": 0.3858267716535433,
                    "duration": 0.14999999999997726
                },
                {
                    "name": "F#5",
                    "midi": 78,
                    "time": 538.3499999999958,
                    "velocity": 0.3858267716535433,
                    "duration": 0.14999999999997726
                },
                {
                    "name": "F5",
                    "midi": 77,
                    "time": 538.4999999999958,
                    "velocity": 0.3858267716535433,
                    "duration": 0.14999999999997726
                },
                {
                    "name": "F#5",
                    "midi": 78,
                    "time": 538.6499999999958,
                    "velocity": 0.3858267716535433,
                    "duration": 0.14999999999997726
                },
                {
                    "name": "F5",
                    "midi": 77,
                    "time": 538.7999999999957,
                    "velocity": 0.3858267716535433,
                    "duration": 0.14999999999997726
                },
                {
                    "name": "F#5",
                    "midi": 78,
                    "time": 538.9499999999957,
                    "velocity": 0.3858267716535433,
                    "duration": 0.14999999999997726
                },
                {
                    "name": "F5",
                    "midi": 77,
                    "time": 539.0999999999957,
                    "velocity": 0.3858267716535433,
                    "duration": 0.14999999999997726
                },
                {
                    "name": "F#5",
                    "midi": 78,
                    "time": 539.2499999999957,
                    "velocity": 0.3858267716535433,
                    "duration": 0.14999999999997726
                },
                {
                    "name": "F5",
                    "midi": 77,
                    "time": 539.3999999999957,
                    "velocity": 0.3858267716535433,
                    "duration": 0.14999999999997726
                },
                {
                    "name": "F#5",
                    "midi": 78,
                    "time": 539.5499999999956,
                    "velocity": 0.3858267716535433,
                    "duration": 0.14999999999997726
                },
                {
                    "name": "F5",
                    "midi": 77,
                    "time": 539.6999999999956,
                    "velocity": 0.3858267716535433,
                    "duration": 0.14999999999997726
                },
                {
                    "name": "F#5",
                    "midi": 78,
                    "time": 539.8499999999956,
                    "velocity": 0.3858267716535433,
                    "duration": 0.14999999999997726
                },
                {
                    "name": "D4",
                    "midi": 62,
                    "time": 539.9999999999956,
                    "velocity": 0.3858267716535433,
                    "duration": 0.2999999999999545
                },
                {
                    "name": "B3",
                    "midi": 59,
                    "time": 540.2999999999955,
                    "velocity": 0.3858267716535433,
                    "duration": 0.2999999999999545
                },
                {
                    "name": "D4",
                    "midi": 62,
                    "time": 540.5999999999955,
                    "velocity": 0.3858267716535433,
                    "duration": 0.2999999999999545
                },
                {
                    "name": "B3",
                    "midi": 59,
                    "time": 540.8999999999954,
                    "velocity": 0.3858267716535433,
                    "duration": 0.2999999999999545
                },
                {
                    "name": "E4",
                    "midi": 64,
                    "time": 541.1999999999954,
                    "velocity": 0.3858267716535433,
                    "duration": 0.2999999999999545
                },
                {
                    "name": "C#4",
                    "midi": 61,
                    "time": 541.4999999999953,
                    "velocity": 0.3858267716535433,
                    "duration": 0.2999999999999545
                },
                {
                    "name": "E4",
                    "midi": 64,
                    "time": 541.7999999999953,
                    "velocity": 0.3858267716535433,
                    "duration": 0.2999999999999545
                },
                {
                    "name": "G4",
                    "midi": 67,
                    "time": 541.7999999999953,
                    "velocity": 0.3858267716535433,
                    "duration": 0.2999999999999545
                },
                {
                    "name": "C#4",
                    "midi": 61,
                    "time": 542.0999999999952,
                    "velocity": 0.3858267716535433,
                    "duration": 0.2999999999999545
                },
                {
                    "name": "D4",
                    "midi": 62,
                    "time": 542.3999999999952,
                    "velocity": 0.3858267716535433,
                    "duration": 0.2999999999999545
                },
                {
                    "name": "B3",
                    "midi": 59,
                    "time": 542.6999999999952,
                    "velocity": 0.3858267716535433,
                    "duration": 0.2999999999999545
                },
                {
                    "name": "D4",
                    "midi": 62,
                    "time": 542.9999999999951,
                    "velocity": 0.3858267716535433,
                    "duration": 0.2999999999999545
                },
                {
                    "name": "B3",
                    "midi": 59,
                    "time": 543.2999999999951,
                    "velocity": 0.3858267716535433,
                    "duration": 0.2999999999999545
                },
                {
                    "name": "E4",
                    "midi": 64,
                    "time": 543.599999999995,
                    "velocity": 0.3858267716535433,
                    "duration": 0.2999999999999545
                },
                {
                    "name": "C#4",
                    "midi": 61,
                    "time": 543.899999999995,
                    "velocity": 0.3858267716535433,
                    "duration": 0.2999999999999545
                },
                {
                    "name": "E4",
                    "midi": 64,
                    "time": 544.1999999999949,
                    "velocity": 0.3858267716535433,
                    "duration": 0.2999999999999545
                },
                {
                    "name": "G4",
                    "midi": 67,
                    "time": 544.1999999999949,
                    "velocity": 0.3858267716535433,
                    "duration": 0.2999999999999545
                },
                {
                    "name": "C#4",
                    "midi": 61,
                    "time": 544.4999999999949,
                    "velocity": 0.3858267716535433,
                    "duration": 0.2999999999999545
                },
                {
                    "name": "D4",
                    "midi": 62,
                    "time": 544.7999999999948,
                    "velocity": 0.3858267716535433,
                    "duration": 0.2999999999999545
                },
                {
                    "name": "F4",
                    "midi": 65,
                    "time": 544.7999999999948,
                    "velocity": 0.3858267716535433,
                    "duration": 0.2999999999999545
                },
                {
                    "name": "G#4",
                    "midi": 68,
                    "time": 545.0999999999948,
                    "velocity": 0.3858267716535433,
                    "duration": 0.2999999999999545
                },
                {
                    "name": "A#4",
                    "midi": 70,
                    "time": 545.3999999999947,
                    "velocity": 0.3858267716535433,
                    "duration": 0.2999999999999545
                },
                {
                    "name": "D5",
                    "midi": 74,
                    "time": 545.3999999999947,
                    "velocity": 0.3858267716535433,
                    "duration": 0.2999999999999545
                },
                {
                    "name": "G#4",
                    "midi": 68,
                    "time": 545.6999999999947,
                    "velocity": 0.3858267716535433,
                    "duration": 0.2999999999999545
                },
                {
                    "name": "E4",
                    "midi": 64,
                    "time": 545.9999999999947,
                    "velocity": 0.4881889763779528,
                    "duration": 0.2999999999999545
                },
                {
                    "name": "G4",
                    "midi": 67,
                    "time": 545.9999999999947,
                    "velocity": 0.4881889763779528,
                    "duration": 0.2999999999999545
                },
                {
                    "name": "A#4",
                    "midi": 70,
                    "time": 546.2999999999946,
                    "velocity": 0.4881889763779528,
                    "duration": 0.2999999999999545
                },
                {
                    "name": "C5",
                    "midi": 72,
                    "time": 546.5999999999946,
                    "velocity": 0.4881889763779528,
                    "duration": 0.2999999999999545
                },
                {
                    "name": "E5",
                    "midi": 76,
                    "time": 546.5999999999946,
                    "velocity": 0.4881889763779528,
                    "duration": 0.2999999999999545
                },
                {
                    "name": "A#4",
                    "midi": 70,
                    "time": 546.8999999999945,
                    "velocity": 0.4881889763779528,
                    "duration": 0.2999999999999545
                },
                {
                    "name": "D4",
                    "midi": 62,
                    "time": 549.5999999999945,
                    "velocity": 0.3858267716535433,
                    "duration": 0.2999999999999545
                },
                {
                    "name": "F4",
                    "midi": 65,
                    "time": 549.5999999999945,
                    "velocity": 0.3858267716535433,
                    "duration": 0.2999999999999545
                },
                {
                    "name": "G#4",
                    "midi": 68,
                    "time": 549.8999999999944,
                    "velocity": 0.3858267716535433,
                    "duration": 0.2999999999999545
                },
                {
                    "name": "A#4",
                    "midi": 70,
                    "time": 550.1999999999944,
                    "velocity": 0.3858267716535433,
                    "duration": 0.2999999999999545
                },
                {
                    "name": "D5",
                    "midi": 74,
                    "time": 550.1999999999944,
                    "velocity": 0.3858267716535433,
                    "duration": 0.2999999999999545
                },
                {
                    "name": "G#4",
                    "midi": 68,
                    "time": 550.4999999999943,
                    "velocity": 0.3858267716535433,
                    "duration": 0.2999999999999545
                },
                {
                    "name": "E4",
                    "midi": 64,
                    "time": 550.7999999999943,
                    "velocity": 0.3858267716535433,
                    "duration": 0.2999999999999545
                },
                {
                    "name": "G4",
                    "midi": 67,
                    "time": 550.7999999999943,
                    "velocity": 0.3858267716535433,
                    "duration": 0.2999999999999545
                },
                {
                    "name": "C#4",
                    "midi": 61,
                    "time": 551.0999999999942,
                    "velocity": 0.3858267716535433,
                    "duration": 0.2999999999999545
                },
                {
                    "name": "E4",
                    "midi": 64,
                    "time": 551.3999999999942,
                    "velocity": 0.3858267716535433,
                    "duration": 0.2999999999999545
                },
                {
                    "name": "G4",
                    "midi": 67,
                    "time": 551.3999999999942,
                    "velocity": 0.3858267716535433,
                    "duration": 0.2999999999999545
                },
                {
                    "name": "A#4",
                    "midi": 70,
                    "time": 551.3999999999942,
                    "velocity": 0.3858267716535433,
                    "duration": 0.2999999999999545
                },
                {
                    "name": "C#4",
                    "midi": 61,
                    "time": 551.6999999999941,
                    "velocity": 0.3858267716535433,
                    "duration": 0.2999999999999545
                },
                {
                    "name": "C#5",
                    "midi": 73,
                    "time": 551.9999999999941,
                    "velocity": 0.4881889763779528,
                    "duration": 0.2999999999999545
                },
                {
                    "name": "D#5",
                    "midi": 75,
                    "time": 551.9999999999941,
                    "velocity": 0.4881889763779528,
                    "duration": 0.2999999999999545
                },
                {
                    "name": "A4",
                    "midi": 69,
                    "time": 552.299999999994,
                    "velocity": 0.4881889763779528,
                    "duration": 0.2999999999999545
                },
                {
                    "name": "F#4",
                    "midi": 66,
                    "time": 552.599999999994,
                    "velocity": 0.4881889763779528,
                    "duration": 0.2999999999999545
                },
                {
                    "name": "A4",
                    "midi": 69,
                    "time": 552.599999999994,
                    "velocity": 0.4881889763779528,
                    "duration": 0.2999999999999545
                },
                {
                    "name": "C5",
                    "midi": 72,
                    "time": 552.599999999994,
                    "velocity": 0.4881889763779528,
                    "duration": 0.2999999999999545
                },
                {
                    "name": "D#4",
                    "midi": 63,
                    "time": 552.899999999994,
                    "velocity": 0.4881889763779528,
                    "duration": 0.2999999999999545
                },
                {
                    "name": "G#4",
                    "midi": 68,
                    "time": 553.1999999999939,
                    "velocity": 0.4881889763779528,
                    "duration": 0.2999999999999545
                },
                {
                    "name": "B4",
                    "midi": 71,
                    "time": 553.1999999999939,
                    "velocity": 0.4881889763779528,
                    "duration": 0.2999999999999545
                },
                {
                    "name": "F4",
                    "midi": 65,
                    "time": 553.4999999999939,
                    "velocity": 0.4881889763779528,
                    "duration": 0.2999999999999545
                },
                {
                    "name": "G#4",
                    "midi": 68,
                    "time": 553.7999999999938,
                    "velocity": 0.4881889763779528,
                    "duration": 0.2999999999999545
                },
                {
                    "name": "B4",
                    "midi": 71,
                    "time": 553.7999999999938,
                    "velocity": 0.4881889763779528,
                    "duration": 0.2999999999999545
                },
                {
                    "name": "D5",
                    "midi": 74,
                    "time": 553.7999999999938,
                    "velocity": 0.4881889763779528,
                    "duration": 0.2999999999999545
                },
                {
                    "name": "F4",
                    "midi": 65,
                    "time": 554.0999999999938,
                    "velocity": 0.4881889763779528,
                    "duration": 0.2999999999999545
                },
                {
                    "name": "C#5",
                    "midi": 73,
                    "time": 554.3999999999937,
                    "velocity": 0.5905511811023622,
                    "duration": 0.2999999999999545
                },
                {
                    "name": "D#5",
                    "midi": 75,
                    "time": 554.3999999999937,
                    "velocity": 0.5905511811023622,
                    "duration": 0.2999999999999545
                },
                {
                    "name": "A4",
                    "midi": 69,
                    "time": 554.6999999999937,
                    "velocity": 0.5905511811023622,
                    "duration": 0.2999999999999545
                },
                {
                    "name": "F#4",
                    "midi": 66,
                    "time": 554.9999999999936,
                    "velocity": 0.5905511811023622,
                    "duration": 0.2999999999999545
                },
                {
                    "name": "A4",
                    "midi": 69,
                    "time": 554.9999999999936,
                    "velocity": 0.5905511811023622,
                    "duration": 0.2999999999999545
                },
                {
                    "name": "C5",
                    "midi": 72,
                    "time": 554.9999999999936,
                    "velocity": 0.5905511811023622,
                    "duration": 0.2999999999999545
                },
                {
                    "name": "D#4",
                    "midi": 63,
                    "time": 555.2999999999936,
                    "velocity": 0.5905511811023622,
                    "duration": 0.2999999999999545
                },
                {
                    "name": "G#4",
                    "midi": 68,
                    "time": 555.5999999999935,
                    "velocity": 0.5905511811023622,
                    "duration": 0.2999999999999545
                },
                {
                    "name": "B4",
                    "midi": 71,
                    "time": 555.5999999999935,
                    "velocity": 0.5905511811023622,
                    "duration": 0.2999999999999545
                },
                {
                    "name": "F4",
                    "midi": 65,
                    "time": 555.8999999999935,
                    "velocity": 0.5905511811023622,
                    "duration": 0.2999999999999545
                },
                {
                    "name": "G#4",
                    "midi": 68,
                    "time": 556.1999999999935,
                    "velocity": 0.5905511811023622,
                    "duration": 0.2999999999999545
                },
                {
                    "name": "B4",
                    "midi": 71,
                    "time": 556.1999999999935,
                    "velocity": 0.5905511811023622,
                    "duration": 0.2999999999999545
                },
                {
                    "name": "D5",
                    "midi": 74,
                    "time": 556.1999999999935,
                    "velocity": 0.5905511811023622,
                    "duration": 0.2999999999999545
                },
                {
                    "name": "F4",
                    "midi": 65,
                    "time": 556.4999999999934,
                    "velocity": 0.5905511811023622,
                    "duration": 0.2999999999999545
                },
                {
                    "name": "F#4",
                    "midi": 66,
                    "time": 556.7999999999934,
                    "velocity": 0.6929133858267716,
                    "duration": 0.2999999999999545
                },
                {
                    "name": "A4",
                    "midi": 69,
                    "time": 556.7999999999934,
                    "velocity": 0.6929133858267716,
                    "duration": 0.2999999999999545
                },
                {
                    "name": "C5",
                    "midi": 72,
                    "time": 556.7999999999934,
                    "velocity": 0.6929133858267716,
                    "duration": 0.2999999999999545
                },
                {
                    "name": "C5",
                    "midi": 72,
                    "time": 557.0999999999933,
                    "velocity": 0.6929133858267716,
                    "duration": 0.2999999999999545
                },
                {
                    "name": "E5",
                    "midi": 76,
                    "time": 557.3999999999933,
                    "velocity": 0.6929133858267716,
                    "duration": 0.2999999999999545
                },
                {
                    "name": "F#5",
                    "midi": 78,
                    "time": 557.3999999999933,
                    "velocity": 0.6929133858267716,
                    "duration": 0.2999999999999545
                },
                {
                    "name": "C5",
                    "midi": 72,
                    "time": 557.6999999999932,
                    "velocity": 0.6929133858267716,
                    "duration": 0.2999999999999545
                },
                {
                    "name": "G#4",
                    "midi": 68,
                    "time": 557.9999999999932,
                    "velocity": 0.6929133858267716,
                    "duration": 0.2999999999999545
                },
                {
                    "name": "B4",
                    "midi": 71,
                    "time": 557.9999999999932,
                    "velocity": 0.6929133858267716,
                    "duration": 0.2999999999999545
                },
                {
                    "name": "F4",
                    "midi": 65,
                    "time": 558.2999999999931,
                    "velocity": 0.6929133858267716,
                    "duration": 0.2999999999999545
                },
                {
                    "name": "G#4",
                    "midi": 68,
                    "time": 558.5999999999931,
                    "velocity": 0.6929133858267716,
                    "duration": 0.2999999999999545
                },
                {
                    "name": "B4",
                    "midi": 71,
                    "time": 558.5999999999931,
                    "velocity": 0.6929133858267716,
                    "duration": 0.2999999999999545
                },
                {
                    "name": "D5",
                    "midi": 74,
                    "time": 558.5999999999931,
                    "velocity": 0.6929133858267716,
                    "duration": 0.2999999999999545
                },
                {
                    "name": "F4",
                    "midi": 65,
                    "time": 558.899999999993,
                    "velocity": 0.6929133858267716,
                    "duration": 0.2999999999999545
                },
                {
                    "name": "C5",
                    "midi": 72,
                    "time": 563.999999999993,
                    "velocity": 0.3858267716535433,
                    "duration": 0.2999999999999545
                },
                {
                    "name": "A4",
                    "midi": 69,
                    "time": 564.2999999999929,
                    "velocity": 0.3858267716535433,
                    "duration": 0.2999999999999545
                },
                {
                    "name": "C5",
                    "midi": 72,
                    "time": 564.5999999999929,
                    "velocity": 0.3858267716535433,
                    "duration": 0.2999999999999545
                },
                {
                    "name": "D5",
                    "midi": 74,
                    "time": 564.5999999999929,
                    "velocity": 0.3858267716535433,
                    "duration": 0.2999999999999545
                },
                {
                    "name": "A4",
                    "midi": 69,
                    "time": 564.8999999999928,
                    "velocity": 0.3858267716535433,
                    "duration": 0.2999999999999545
                },
                {
                    "name": "D5",
                    "midi": 74,
                    "time": 565.1999999999928,
                    "velocity": 0.3858267716535433,
                    "duration": 0.2999999999999545
                },
                {
                    "name": "A4",
                    "midi": 69,
                    "time": 565.4999999999927,
                    "velocity": 0.3858267716535433,
                    "duration": 0.2999999999999545
                },
                {
                    "name": "D5",
                    "midi": 74,
                    "time": 565.7999999999927,
                    "velocity": 0.3858267716535433,
                    "duration": 0.2999999999999545
                },
                {
                    "name": "E5",
                    "midi": 76,
                    "time": 565.7999999999927,
                    "velocity": 0.3858267716535433,
                    "duration": 0.2999999999999545
                },
                {
                    "name": "A4",
                    "midi": 69,
                    "time": 566.0999999999926,
                    "velocity": 0.3858267716535433,
                    "duration": 0.2999999999999545
                },
                {
                    "name": "C5",
                    "midi": 72,
                    "time": 566.3999999999926,
                    "velocity": 0.3858267716535433,
                    "duration": 0.2999999999999545
                },
                {
                    "name": "A4",
                    "midi": 69,
                    "time": 566.6999999999925,
                    "velocity": 0.3858267716535433,
                    "duration": 0.2999999999999545
                },
                {
                    "name": "C5",
                    "midi": 72,
                    "time": 566.9999999999925,
                    "velocity": 0.3858267716535433,
                    "duration": 0.2999999999999545
                },
                {
                    "name": "D5",
                    "midi": 74,
                    "time": 566.9999999999925,
                    "velocity": 0.3858267716535433,
                    "duration": 0.2999999999999545
                },
                {
                    "name": "A4",
                    "midi": 69,
                    "time": 567.2999999999925,
                    "velocity": 0.3858267716535433,
                    "duration": 0.2999999999999545
                },
                {
                    "name": "D5",
                    "midi": 74,
                    "time": 567.5999999999924,
                    "velocity": 0.3858267716535433,
                    "duration": 0.2999999999999545
                },
                {
                    "name": "A4",
                    "midi": 69,
                    "time": 567.8999999999924,
                    "velocity": 0.3858267716535433,
                    "duration": 0.2999999999999545
                },
                {
                    "name": "D5",
                    "midi": 74,
                    "time": 568.1999999999923,
                    "velocity": 0.3858267716535433,
                    "duration": 0.2999999999999545
                },
                {
                    "name": "E5",
                    "midi": 76,
                    "time": 568.1999999999923,
                    "velocity": 0.3858267716535433,
                    "duration": 0.2999999999999545
                },
                {
                    "name": "A4",
                    "midi": 69,
                    "time": 568.4999999999923,
                    "velocity": 0.3858267716535433,
                    "duration": 0.2999999999999545
                },
                {
                    "name": "C5",
                    "midi": 72,
                    "time": 573.5999999999922,
                    "velocity": 0.3858267716535433,
                    "duration": 0.2999999999999545
                },
                {
                    "name": "A4",
                    "midi": 69,
                    "time": 573.8999999999921,
                    "velocity": 0.3858267716535433,
                    "duration": 0.2999999999999545
                },
                {
                    "name": "C5",
                    "midi": 72,
                    "time": 574.1999999999921,
                    "velocity": 0.3858267716535433,
                    "duration": 0.2999999999999545
                },
                {
                    "name": "D5",
                    "midi": 74,
                    "time": 574.1999999999921,
                    "velocity": 0.3858267716535433,
                    "duration": 0.2999999999999545
                },
                {
                    "name": "A4",
                    "midi": 69,
                    "time": 574.499999999992,
                    "velocity": 0.3858267716535433,
                    "duration": 0.2999999999999545
                },
                {
                    "name": "D5",
                    "midi": 74,
                    "time": 574.799999999992,
                    "velocity": 0.3858267716535433,
                    "duration": 0.2999999999999545
                },
                {
                    "name": "A4",
                    "midi": 69,
                    "time": 575.099999999992,
                    "velocity": 0.3858267716535433,
                    "duration": 0.2999999999999545
                },
                {
                    "name": "D5",
                    "midi": 74,
                    "time": 575.3999999999919,
                    "velocity": 0.3858267716535433,
                    "duration": 0.2999999999999545
                },
                {
                    "name": "E5",
                    "midi": 76,
                    "time": 575.3999999999919,
                    "velocity": 0.3858267716535433,
                    "duration": 0.2999999999999545
                },
                {
                    "name": "A4",
                    "midi": 69,
                    "time": 575.6999999999919,
                    "velocity": 0.3858267716535433,
                    "duration": 0.2999999999999545
                },
                {
                    "name": "C5",
                    "midi": 72,
                    "time": 575.9999999999918,
                    "velocity": 0.3858267716535433,
                    "duration": 0.2999999999999545
                },
                {
                    "name": "A4",
                    "midi": 69,
                    "time": 576.2999999999918,
                    "velocity": 0.3858267716535433,
                    "duration": 0.2999999999999545
                },
                {
                    "name": "C5",
                    "midi": 72,
                    "time": 576.5999999999917,
                    "velocity": 0.3858267716535433,
                    "duration": 0.2999999999999545
                },
                {
                    "name": "D5",
                    "midi": 74,
                    "time": 576.5999999999917,
                    "velocity": 0.3858267716535433,
                    "duration": 0.2999999999999545
                },
                {
                    "name": "A4",
                    "midi": 69,
                    "time": 576.8999999999917,
                    "velocity": 0.3858267716535433,
                    "duration": 0.2999999999999545
                },
                {
                    "name": "D5",
                    "midi": 74,
                    "time": 577.1999999999916,
                    "velocity": 0.3858267716535433,
                    "duration": 0.2999999999999545
                },
                {
                    "name": "A4",
                    "midi": 69,
                    "time": 577.4999999999916,
                    "velocity": 0.3858267716535433,
                    "duration": 0.2999999999999545
                },
                {
                    "name": "D5",
                    "midi": 74,
                    "time": 577.7999999999915,
                    "velocity": 0.3858267716535433,
                    "duration": 0.2999999999999545
                },
                {
                    "name": "E5",
                    "midi": 76,
                    "time": 577.7999999999915,
                    "velocity": 0.3858267716535433,
                    "duration": 0.2999999999999545
                },
                {
                    "name": "A4",
                    "midi": 69,
                    "time": 578.0999999999915,
                    "velocity": 0.3858267716535433,
                    "duration": 0.2999999999999545
                },
                {
                    "name": "D#5",
                    "midi": 75,
                    "time": 578.6999999999914,
                    "velocity": 0.3858267716535433,
                    "duration": 0.6000000000000227
                },
                {
                    "name": "G5",
                    "midi": 79,
                    "time": 578.6999999999914,
                    "velocity": 0.3858267716535433,
                    "duration": 0.6000000000000227
                },
                {
                    "name": "D5",
                    "midi": 74,
                    "time": 579.2999999999914,
                    "velocity": 0.3858267716535433,
                    "duration": 0.6000000000000227
                },
                {
                    "name": "F5",
                    "midi": 77,
                    "time": 579.2999999999914,
                    "velocity": 0.3858267716535433,
                    "duration": 0.6000000000000227
                },
                {
                    "name": "D#5",
                    "midi": 75,
                    "time": 579.8999999999915,
                    "velocity": 0.3858267716535433,
                    "duration": 0.6000000000000227
                },
                {
                    "name": "G5",
                    "midi": 79,
                    "time": 579.8999999999915,
                    "velocity": 0.3858267716535433,
                    "duration": 0.6000000000000227
                },
                {
                    "name": "D5",
                    "midi": 74,
                    "time": 580.4999999999915,
                    "velocity": 0.3858267716535433,
                    "duration": 0.2999999999999545
                },
                {
                    "name": "F5",
                    "midi": 77,
                    "time": 580.4999999999915,
                    "velocity": 0.3858267716535433,
                    "duration": 0.2999999999999545
                },
                {
                    "name": "D#5",
                    "midi": 75,
                    "time": 581.0999999999914,
                    "velocity": 0.3858267716535433,
                    "duration": 0.6000000000000227
                },
                {
                    "name": "G5",
                    "midi": 79,
                    "time": 581.0999999999914,
                    "velocity": 0.3858267716535433,
                    "duration": 0.6000000000000227
                },
                {
                    "name": "D5",
                    "midi": 74,
                    "time": 581.6999999999914,
                    "velocity": 0.3858267716535433,
                    "duration": 0.6000000000000227
                },
                {
                    "name": "F5",
                    "midi": 77,
                    "time": 581.6999999999914,
                    "velocity": 0.3858267716535433,
                    "duration": 0.6000000000000227
                },
                {
                    "name": "D#5",
                    "midi": 75,
                    "time": 582.2999999999914,
                    "velocity": 0.3858267716535433,
                    "duration": 0.6000000000000227
                },
                {
                    "name": "G5",
                    "midi": 79,
                    "time": 582.2999999999914,
                    "velocity": 0.3858267716535433,
                    "duration": 0.6000000000000227
                },
                {
                    "name": "D5",
                    "midi": 74,
                    "time": 582.8999999999915,
                    "velocity": 0.3858267716535433,
                    "duration": 0.2999999999999545
                },
                {
                    "name": "F5",
                    "midi": 77,
                    "time": 582.8999999999915,
                    "velocity": 0.3858267716535433,
                    "duration": 0.2999999999999545
                },
                {
                    "name": "D#5",
                    "midi": 75,
                    "time": 583.4999999999914,
                    "velocity": 0.3858267716535433,
                    "duration": 0.6000000000000227
                },
                {
                    "name": "G5",
                    "midi": 79,
                    "time": 583.4999999999914,
                    "velocity": 0.3858267716535433,
                    "duration": 0.6000000000000227
                },
                {
                    "name": "D5",
                    "midi": 74,
                    "time": 584.0999999999914,
                    "velocity": 0.3858267716535433,
                    "duration": 0.6000000000000227
                },
                {
                    "name": "F5",
                    "midi": 77,
                    "time": 584.0999999999914,
                    "velocity": 0.3858267716535433,
                    "duration": 0.6000000000000227
                },
                {
                    "name": "D#5",
                    "midi": 75,
                    "time": 584.6999999999914,
                    "velocity": 0.3858267716535433,
                    "duration": 0.6000000000000227
                },
                {
                    "name": "G5",
                    "midi": 79,
                    "time": 584.6999999999914,
                    "velocity": 0.3858267716535433,
                    "duration": 0.6000000000000227
                },
                {
                    "name": "D5",
                    "midi": 74,
                    "time": 585.2999999999914,
                    "velocity": 0.3858267716535433,
                    "duration": 0.2999999999999545
                },
                {
                    "name": "F5",
                    "midi": 77,
                    "time": 585.2999999999914,
                    "velocity": 0.3858267716535433,
                    "duration": 0.2999999999999545
                },
                {
                    "name": "D#5",
                    "midi": 75,
                    "time": 585.8999999999913,
                    "velocity": 0.3858267716535433,
                    "duration": 0.6000000000000227
                },
                {
                    "name": "G5",
                    "midi": 79,
                    "time": 585.8999999999913,
                    "velocity": 0.3858267716535433,
                    "duration": 0.6000000000000227
                },
                {
                    "name": "D5",
                    "midi": 74,
                    "time": 586.4999999999914,
                    "velocity": 0.3858267716535433,
                    "duration": 0.6000000000000227
                },
                {
                    "name": "F5",
                    "midi": 77,
                    "time": 586.4999999999914,
                    "velocity": 0.3858267716535433,
                    "duration": 0.6000000000000227
                },
                {
                    "name": "D#5",
                    "midi": 75,
                    "time": 587.0999999999914,
                    "velocity": 0.3858267716535433,
                    "duration": 0.6000000000000227
                },
                {
                    "name": "G5",
                    "midi": 79,
                    "time": 587.0999999999914,
                    "velocity": 0.3858267716535433,
                    "duration": 0.6000000000000227
                },
                {
                    "name": "D5",
                    "midi": 74,
                    "time": 587.6999999999914,
                    "velocity": 0.3858267716535433,
                    "duration": 0.2999999999999545
                },
                {
                    "name": "F5",
                    "midi": 77,
                    "time": 587.6999999999914,
                    "velocity": 0.3858267716535433,
                    "duration": 0.2999999999999545
                },
                {
                    "name": "D#5",
                    "midi": 75,
                    "time": 587.9999999999914,
                    "velocity": 0.4881889763779528,
                    "duration": 0.05750000000000455
                },
                {
                    "name": "G5",
                    "midi": 79,
                    "time": 587.9999999999914,
                    "velocity": 0.4881889763779528,
                    "duration": 0.05750000000000455
                },
                {
                    "name": "D5",
                    "midi": 74,
                    "time": 588.2999999999913,
                    "velocity": 0.4881889763779528,
                    "duration": 0.05750000000000455
                },
                {
                    "name": "F5",
                    "midi": 77,
                    "time": 588.2999999999913,
                    "velocity": 0.4881889763779528,
                    "duration": 0.05750000000000455
                },
                {
                    "name": "D#5",
                    "midi": 75,
                    "time": 588.5999999999913,
                    "velocity": 0.4881889763779528,
                    "duration": 0.05750000000000455
                },
                {
                    "name": "G5",
                    "midi": 79,
                    "time": 588.5999999999913,
                    "velocity": 0.4881889763779528,
                    "duration": 0.05750000000000455
                },
                {
                    "name": "D5",
                    "midi": 74,
                    "time": 588.8999999999912,
                    "velocity": 0.4881889763779528,
                    "duration": 0.05750000000000455
                },
                {
                    "name": "F5",
                    "midi": 77,
                    "time": 588.8999999999912,
                    "velocity": 0.4881889763779528,
                    "duration": 0.05750000000000455
                },
                {
                    "name": "D#5",
                    "midi": 75,
                    "time": 589.1999999999912,
                    "velocity": 0.4881889763779528,
                    "duration": 0.05750000000000455
                },
                {
                    "name": "G5",
                    "midi": 79,
                    "time": 589.1999999999912,
                    "velocity": 0.4881889763779528,
                    "duration": 0.05750000000000455
                },
                {
                    "name": "D5",
                    "midi": 74,
                    "time": 589.4999999999911,
                    "velocity": 0.4881889763779528,
                    "duration": 0.05750000000000455
                },
                {
                    "name": "F5",
                    "midi": 77,
                    "time": 589.4999999999911,
                    "velocity": 0.4881889763779528,
                    "duration": 0.05750000000000455
                },
                {
                    "name": "D#5",
                    "midi": 75,
                    "time": 589.7999999999911,
                    "velocity": 0.4881889763779528,
                    "duration": 0.05750000000000455
                },
                {
                    "name": "G5",
                    "midi": 79,
                    "time": 589.7999999999911,
                    "velocity": 0.4881889763779528,
                    "duration": 0.05750000000000455
                },
                {
                    "name": "D5",
                    "midi": 74,
                    "time": 590.099999999991,
                    "velocity": 0.4881889763779528,
                    "duration": 0.05750000000000455
                },
                {
                    "name": "F5",
                    "midi": 77,
                    "time": 590.099999999991,
                    "velocity": 0.4881889763779528,
                    "duration": 0.05750000000000455
                },
                {
                    "name": "D#5",
                    "midi": 75,
                    "time": 590.399999999991,
                    "velocity": 0.4881889763779528,
                    "duration": 0.05750000000000455
                },
                {
                    "name": "G5",
                    "midi": 79,
                    "time": 590.399999999991,
                    "velocity": 0.4881889763779528,
                    "duration": 0.05750000000000455
                },
                {
                    "name": "D5",
                    "midi": 74,
                    "time": 590.699999999991,
                    "velocity": 0.4881889763779528,
                    "duration": 0.05750000000000455
                },
                {
                    "name": "F5",
                    "midi": 77,
                    "time": 590.699999999991,
                    "velocity": 0.4881889763779528,
                    "duration": 0.05750000000000455
                },
                {
                    "name": "D#5",
                    "midi": 75,
                    "time": 590.9999999999909,
                    "velocity": 0.4881889763779528,
                    "duration": 0.05750000000000455
                },
                {
                    "name": "G5",
                    "midi": 79,
                    "time": 590.9999999999909,
                    "velocity": 0.4881889763779528,
                    "duration": 0.05750000000000455
                },
                {
                    "name": "D5",
                    "midi": 74,
                    "time": 591.2999999999909,
                    "velocity": 0.4881889763779528,
                    "duration": 0.05750000000000455
                },
                {
                    "name": "F5",
                    "midi": 77,
                    "time": 591.2999999999909,
                    "velocity": 0.4881889763779528,
                    "duration": 0.05750000000000455
                },
                {
                    "name": "D#5",
                    "midi": 75,
                    "time": 591.5999999999908,
                    "velocity": 0.4881889763779528,
                    "duration": 0.05750000000000455
                },
                {
                    "name": "G5",
                    "midi": 79,
                    "time": 591.5999999999908,
                    "velocity": 0.4881889763779528,
                    "duration": 0.05750000000000455
                },
                {
                    "name": "D5",
                    "midi": 74,
                    "time": 591.8999999999908,
                    "velocity": 0.4881889763779528,
                    "duration": 0.05750000000000455
                },
                {
                    "name": "F5",
                    "midi": 77,
                    "time": 591.8999999999908,
                    "velocity": 0.4881889763779528,
                    "duration": 0.05750000000000455
                },
                {
                    "name": "D#5",
                    "midi": 75,
                    "time": 592.1999999999907,
                    "velocity": 0.4881889763779528,
                    "duration": 0.05750000000000455
                },
                {
                    "name": "G5",
                    "midi": 79,
                    "time": 592.1999999999907,
                    "velocity": 0.4881889763779528,
                    "duration": 0.05750000000000455
                },
                {
                    "name": "D5",
                    "midi": 74,
                    "time": 592.4999999999907,
                    "velocity": 0.4881889763779528,
                    "duration": 0.05750000000000455
                },
                {
                    "name": "F5",
                    "midi": 77,
                    "time": 592.4999999999907,
                    "velocity": 0.4881889763779528,
                    "duration": 0.05750000000000455
                },
                {
                    "name": "D#5",
                    "midi": 75,
                    "time": 592.7999999999906,
                    "velocity": 0.4881889763779528,
                    "duration": 0.2999999999999545
                },
                {
                    "name": "G5",
                    "midi": 79,
                    "time": 592.7999999999906,
                    "velocity": 0.4881889763779528,
                    "duration": 0.2999999999999545
                },
                {
                    "name": "D5",
                    "midi": 74,
                    "time": 593.0999999999906,
                    "velocity": 0.4881889763779528,
                    "duration": 0.2999999999999545
                },
                {
                    "name": "F5",
                    "midi": 77,
                    "time": 593.0999999999906,
                    "velocity": 0.4881889763779528,
                    "duration": 0.2999999999999545
                },
                {
                    "name": "C5",
                    "midi": 72,
                    "time": 593.3999999999905,
                    "velocity": 0.4881889763779528,
                    "duration": 0.2999999999999545
                },
                {
                    "name": "D#5",
                    "midi": 75,
                    "time": 593.3999999999905,
                    "velocity": 0.4881889763779528,
                    "duration": 0.2999999999999545
                },
                {
                    "name": "B4",
                    "midi": 71,
                    "time": 593.6999999999905,
                    "velocity": 0.4881889763779528,
                    "duration": 0.2999999999999545
                },
                {
                    "name": "D5",
                    "midi": 74,
                    "time": 593.6999999999905,
                    "velocity": 0.4881889763779528,
                    "duration": 0.2999999999999545
                },
                {
                    "name": "F5",
                    "midi": 77,
                    "time": 593.9999999999905,
                    "velocity": 0.4881889763779528,
                    "duration": 0.2999999999999545
                },
                {
                    "name": "A5",
                    "midi": 81,
                    "time": 593.9999999999905,
                    "velocity": 0.4881889763779528,
                    "duration": 0.2999999999999545
                },
                {
                    "name": "D#5",
                    "midi": 75,
                    "time": 594.2999999999904,
                    "velocity": 0.4881889763779528,
                    "duration": 0.2999999999999545
                },
                {
                    "name": "G5",
                    "midi": 79,
                    "time": 594.2999999999904,
                    "velocity": 0.4881889763779528,
                    "duration": 0.2999999999999545
                },
                {
                    "name": "D5",
                    "midi": 74,
                    "time": 594.5999999999904,
                    "velocity": 0.4881889763779528,
                    "duration": 0.2999999999999545
                },
                {
                    "name": "F5",
                    "midi": 77,
                    "time": 594.5999999999904,
                    "velocity": 0.4881889763779528,
                    "duration": 0.2999999999999545
                },
                {
                    "name": "C5",
                    "midi": 72,
                    "time": 594.8999999999903,
                    "velocity": 0.4881889763779528,
                    "duration": 0.2999999999999545
                },
                {
                    "name": "D#5",
                    "midi": 75,
                    "time": 594.8999999999903,
                    "velocity": 0.4881889763779528,
                    "duration": 0.2999999999999545
                },
                {
                    "name": "D#5",
                    "midi": 75,
                    "time": 595.1999999999903,
                    "velocity": 0.4881889763779528,
                    "duration": 0.05750000000000455
                },
                {
                    "name": "G5",
                    "midi": 79,
                    "time": 595.1999999999903,
                    "velocity": 0.4881889763779528,
                    "duration": 0.05750000000000455
                },
                {
                    "name": "D5",
                    "midi": 74,
                    "time": 595.4999999999902,
                    "velocity": 0.4881889763779528,
                    "duration": 0.05750000000000455
                },
                {
                    "name": "F5",
                    "midi": 77,
                    "time": 595.4999999999902,
                    "velocity": 0.4881889763779528,
                    "duration": 0.05750000000000455
                },
                {
                    "name": "D#5",
                    "midi": 75,
                    "time": 595.7999999999902,
                    "velocity": 0.4881889763779528,
                    "duration": 0.05750000000000455
                },
                {
                    "name": "G5",
                    "midi": 79,
                    "time": 595.7999999999902,
                    "velocity": 0.4881889763779528,
                    "duration": 0.05750000000000455
                },
                {
                    "name": "D5",
                    "midi": 74,
                    "time": 596.0999999999901,
                    "velocity": 0.4881889763779528,
                    "duration": 0.05750000000000455
                },
                {
                    "name": "F5",
                    "midi": 77,
                    "time": 596.0999999999901,
                    "velocity": 0.4881889763779528,
                    "duration": 0.05750000000000455
                },
                {
                    "name": "D#5",
                    "midi": 75,
                    "time": 596.3999999999901,
                    "velocity": 0.4881889763779528,
                    "duration": 0.05750000000000455
                },
                {
                    "name": "G5",
                    "midi": 79,
                    "time": 596.3999999999901,
                    "velocity": 0.4881889763779528,
                    "duration": 0.05750000000000455
                },
                {
                    "name": "D5",
                    "midi": 74,
                    "time": 596.69999999999,
                    "velocity": 0.4881889763779528,
                    "duration": 0.05750000000000455
                },
                {
                    "name": "F5",
                    "midi": 77,
                    "time": 596.69999999999,
                    "velocity": 0.4881889763779528,
                    "duration": 0.05750000000000455
                },
                {
                    "name": "D#5",
                    "midi": 75,
                    "time": 596.99999999999,
                    "velocity": 0.4881889763779528,
                    "duration": 0.05750000000000455
                },
                {
                    "name": "G5",
                    "midi": 79,
                    "time": 596.99999999999,
                    "velocity": 0.4881889763779528,
                    "duration": 0.05750000000000455
                },
                {
                    "name": "D5",
                    "midi": 74,
                    "time": 597.29999999999,
                    "velocity": 0.4881889763779528,
                    "duration": 0.05750000000000455
                },
                {
                    "name": "F5",
                    "midi": 77,
                    "time": 597.29999999999,
                    "velocity": 0.4881889763779528,
                    "duration": 0.05750000000000455
                },
                {
                    "name": "D#5",
                    "midi": 75,
                    "time": 597.5999999999899,
                    "velocity": 0.5905511811023622,
                    "duration": 0.2999999999999545
                },
                {
                    "name": "G5",
                    "midi": 79,
                    "time": 597.5999999999899,
                    "velocity": 0.5905511811023622,
                    "duration": 0.2999999999999545
                },
                {
                    "name": "D5",
                    "midi": 74,
                    "time": 597.8999999999899,
                    "velocity": 0.5905511811023622,
                    "duration": 0.2999999999999545
                },
                {
                    "name": "F5",
                    "midi": 77,
                    "time": 597.8999999999899,
                    "velocity": 0.5905511811023622,
                    "duration": 0.2999999999999545
                },
                {
                    "name": "C5",
                    "midi": 72,
                    "time": 598.1999999999898,
                    "velocity": 0.5905511811023622,
                    "duration": 0.2999999999999545
                },
                {
                    "name": "D#5",
                    "midi": 75,
                    "time": 598.1999999999898,
                    "velocity": 0.5905511811023622,
                    "duration": 0.2999999999999545
                },
                {
                    "name": "B4",
                    "midi": 71,
                    "time": 598.4999999999898,
                    "velocity": 0.5905511811023622,
                    "duration": 0.2999999999999545
                },
                {
                    "name": "D5",
                    "midi": 74,
                    "time": 598.4999999999898,
                    "velocity": 0.5905511811023622,
                    "duration": 0.2999999999999545
                },
                {
                    "name": "F5",
                    "midi": 77,
                    "time": 598.7999999999897,
                    "velocity": 0.5905511811023622,
                    "duration": 0.2999999999999545
                },
                {
                    "name": "A5",
                    "midi": 81,
                    "time": 598.7999999999897,
                    "velocity": 0.5905511811023622,
                    "duration": 0.2999999999999545
                },
                {
                    "name": "D#5",
                    "midi": 75,
                    "time": 599.0999999999897,
                    "velocity": 0.5905511811023622,
                    "duration": 0.2999999999999545
                },
                {
                    "name": "G5",
                    "midi": 79,
                    "time": 599.0999999999897,
                    "velocity": 0.5905511811023622,
                    "duration": 0.2999999999999545
                },
                {
                    "name": "D5",
                    "midi": 74,
                    "time": 599.3999999999896,
                    "velocity": 0.5905511811023622,
                    "duration": 0.2999999999999545
                },
                {
                    "name": "F5",
                    "midi": 77,
                    "time": 599.3999999999896,
                    "velocity": 0.5905511811023622,
                    "duration": 0.2999999999999545
                },
                {
                    "name": "C5",
                    "midi": 72,
                    "time": 599.6999999999896,
                    "velocity": 0.5905511811023622,
                    "duration": 0.2999999999999545
                },
                {
                    "name": "D#5",
                    "midi": 75,
                    "time": 599.6999999999896,
                    "velocity": 0.5905511811023622,
                    "duration": 0.2999999999999545
                },
                {
                    "name": "D#5",
                    "midi": 75,
                    "time": 599.9999999999895,
                    "velocity": 0.5905511811023622,
                    "duration": 0.2999999999999545
                },
                {
                    "name": "G5",
                    "midi": 79,
                    "time": 599.9999999999895,
                    "velocity": 0.5905511811023622,
                    "duration": 0.2999999999999545
                },
                {
                    "name": "D5",
                    "midi": 74,
                    "time": 600.2999999999895,
                    "velocity": 0.5905511811023622,
                    "duration": 0.2999999999999545
                },
                {
                    "name": "F5",
                    "midi": 77,
                    "time": 600.2999999999895,
                    "velocity": 0.5905511811023622,
                    "duration": 0.2999999999999545
                },
                {
                    "name": "C5",
                    "midi": 72,
                    "time": 600.5999999999894,
                    "velocity": 0.5905511811023622,
                    "duration": 0.2999999999999545
                },
                {
                    "name": "D#5",
                    "midi": 75,
                    "time": 600.5999999999894,
                    "velocity": 0.5905511811023622,
                    "duration": 0.2999999999999545
                },
                {
                    "name": "B4",
                    "midi": 71,
                    "time": 600.8999999999894,
                    "velocity": 0.5905511811023622,
                    "duration": 0.2999999999999545
                },
                {
                    "name": "D5",
                    "midi": 74,
                    "time": 600.8999999999894,
                    "velocity": 0.5905511811023622,
                    "duration": 0.2999999999999545
                },
                {
                    "name": "F5",
                    "midi": 77,
                    "time": 601.1999999999894,
                    "velocity": 0.5905511811023622,
                    "duration": 0.2999999999999545
                },
                {
                    "name": "A5",
                    "midi": 81,
                    "time": 601.1999999999894,
                    "velocity": 0.5905511811023622,
                    "duration": 0.2999999999999545
                },
                {
                    "name": "D#5",
                    "midi": 75,
                    "time": 601.4999999999893,
                    "velocity": 0.5905511811023622,
                    "duration": 0.2999999999999545
                },
                {
                    "name": "G5",
                    "midi": 79,
                    "time": 601.4999999999893,
                    "velocity": 0.5905511811023622,
                    "duration": 0.2999999999999545
                },
                {
                    "name": "D5",
                    "midi": 74,
                    "time": 601.7999999999893,
                    "velocity": 0.5905511811023622,
                    "duration": 0.2999999999999545
                },
                {
                    "name": "F5",
                    "midi": 77,
                    "time": 601.7999999999893,
                    "velocity": 0.5905511811023622,
                    "duration": 0.2999999999999545
                },
                {
                    "name": "C5",
                    "midi": 72,
                    "time": 602.0999999999892,
                    "velocity": 0.5905511811023622,
                    "duration": 0.2999999999999545
                },
                {
                    "name": "D#5",
                    "midi": 75,
                    "time": 602.0999999999892,
                    "velocity": 0.5905511811023622,
                    "duration": 0.2999999999999545
                },
                {
                    "name": "D#5",
                    "midi": 75,
                    "time": 602.3999999999892,
                    "velocity": 0.5905511811023622,
                    "duration": 0.2999999999999545
                },
                {
                    "name": "G5",
                    "midi": 79,
                    "time": 602.3999999999892,
                    "velocity": 0.5905511811023622,
                    "duration": 0.2999999999999545
                },
                {
                    "name": "D5",
                    "midi": 74,
                    "time": 602.6999999999891,
                    "velocity": 0.5905511811023622,
                    "duration": 0.2999999999999545
                },
                {
                    "name": "F5",
                    "midi": 77,
                    "time": 602.6999999999891,
                    "velocity": 0.5905511811023622,
                    "duration": 0.2999999999999545
                },
                {
                    "name": "D#5",
                    "midi": 75,
                    "time": 602.9999999999891,
                    "velocity": 0.5905511811023622,
                    "duration": 0.2999999999999545
                },
                {
                    "name": "C6",
                    "midi": 84,
                    "time": 602.9999999999891,
                    "velocity": 0.5905511811023622,
                    "duration": 0.2999999999999545
                },
                {
                    "name": "D5",
                    "midi": 74,
                    "time": 603.299999999989,
                    "velocity": 0.5905511811023622,
                    "duration": 0.2999999999999545
                },
                {
                    "name": "B5",
                    "midi": 83,
                    "time": 603.299999999989,
                    "velocity": 0.5905511811023622,
                    "duration": 0.2999999999999545
                },
                {
                    "name": "A5",
                    "midi": 81,
                    "time": 603.599999999989,
                    "velocity": 0.5905511811023622,
                    "duration": 0.2999999999999545
                },
                {
                    "name": "D6",
                    "midi": 86,
                    "time": 603.599999999989,
                    "velocity": 0.5905511811023622,
                    "duration": 0.2999999999999545
                },
                {
                    "name": "D#5",
                    "midi": 75,
                    "time": 603.899999999989,
                    "velocity": 0.5905511811023622,
                    "duration": 0.2999999999999545
                },
                {
                    "name": "G5",
                    "midi": 79,
                    "time": 603.899999999989,
                    "velocity": 0.5905511811023622,
                    "duration": 0.2999999999999545
                },
                {
                    "name": "D5",
                    "midi": 74,
                    "time": 604.1999999999889,
                    "velocity": 0.5905511811023622,
                    "duration": 0.2999999999999545
                },
                {
                    "name": "F5",
                    "midi": 77,
                    "time": 604.1999999999889,
                    "velocity": 0.5905511811023622,
                    "duration": 0.2999999999999545
                },
                {
                    "name": "C5",
                    "midi": 72,
                    "time": 604.4999999999889,
                    "velocity": 0.5905511811023622,
                    "duration": 0.2999999999999545
                },
                {
                    "name": "D#5",
                    "midi": 75,
                    "time": 604.4999999999889,
                    "velocity": 0.5905511811023622,
                    "duration": 0.2999999999999545
                },
                {
                    "name": "D#5",
                    "midi": 75,
                    "time": 604.7999999999888,
                    "velocity": 0.5905511811023622,
                    "duration": 0.2999999999999545
                },
                {
                    "name": "G5",
                    "midi": 79,
                    "time": 604.7999999999888,
                    "velocity": 0.5905511811023622,
                    "duration": 0.2999999999999545
                },
                {
                    "name": "D5",
                    "midi": 74,
                    "time": 605.0999999999888,
                    "velocity": 0.5905511811023622,
                    "duration": 0.2999999999999545
                },
                {
                    "name": "F5",
                    "midi": 77,
                    "time": 605.0999999999888,
                    "velocity": 0.5905511811023622,
                    "duration": 0.2999999999999545
                },
                {
                    "name": "D#5",
                    "midi": 75,
                    "time": 605.3999999999887,
                    "velocity": 0.5905511811023622,
                    "duration": 0.2999999999999545
                },
                {
                    "name": "C6",
                    "midi": 84,
                    "time": 605.3999999999887,
                    "velocity": 0.5905511811023622,
                    "duration": 0.2999999999999545
                },
                {
                    "name": "D5",
                    "midi": 74,
                    "time": 605.6999999999887,
                    "velocity": 0.5905511811023622,
                    "duration": 0.2999999999999545
                },
                {
                    "name": "B5",
                    "midi": 83,
                    "time": 605.6999999999887,
                    "velocity": 0.5905511811023622,
                    "duration": 0.2999999999999545
                },
                {
                    "name": "F5",
                    "midi": 77,
                    "time": 605.9999999999886,
                    "velocity": 0.5905511811023622,
                    "duration": 0.2999999999999545
                },
                {
                    "name": "A5",
                    "midi": 81,
                    "time": 605.9999999999886,
                    "velocity": 0.5905511811023622,
                    "duration": 0.2999999999999545
                },
                {
                    "name": "D#5",
                    "midi": 75,
                    "time": 606.2999999999886,
                    "velocity": 0.5905511811023622,
                    "duration": 0.2999999999999545
                },
                {
                    "name": "G5",
                    "midi": 79,
                    "time": 606.2999999999886,
                    "velocity": 0.5905511811023622,
                    "duration": 0.2999999999999545
                },
                {
                    "name": "D5",
                    "midi": 74,
                    "time": 606.5999999999885,
                    "velocity": 0.5905511811023622,
                    "duration": 0.2999999999999545
                },
                {
                    "name": "F5",
                    "midi": 77,
                    "time": 606.5999999999885,
                    "velocity": 0.5905511811023622,
                    "duration": 0.2999999999999545
                },
                {
                    "name": "C5",
                    "midi": 72,
                    "time": 606.8999999999885,
                    "velocity": 0.5905511811023622,
                    "duration": 0.2999999999999545
                },
                {
                    "name": "D#5",
                    "midi": 75,
                    "time": 606.8999999999885,
                    "velocity": 0.5905511811023622,
                    "duration": 0.2999999999999545
                },
                {
                    "name": "D#6",
                    "midi": 87,
                    "time": 607.1999999999884,
                    "velocity": 0.6929133858267716,
                    "duration": 0.2999999999999545
                },
                {
                    "name": "G6",
                    "midi": 91,
                    "time": 607.1999999999884,
                    "velocity": 0.6929133858267716,
                    "duration": 0.2999999999999545
                },
                {
                    "name": "D6",
                    "midi": 86,
                    "time": 607.4999999999884,
                    "velocity": 0.6929133858267716,
                    "duration": 0.2999999999999545
                },
                {
                    "name": "F6",
                    "midi": 89,
                    "time": 607.4999999999884,
                    "velocity": 0.6929133858267716,
                    "duration": 0.2999999999999545
                },
                {
                    "name": "C6",
                    "midi": 84,
                    "time": 607.7999999999884,
                    "velocity": 0.6929133858267716,
                    "duration": 0.2999999999999545
                },
                {
                    "name": "D#6",
                    "midi": 87,
                    "time": 607.7999999999884,
                    "velocity": 0.6929133858267716,
                    "duration": 0.2999999999999545
                },
                {
                    "name": "B5",
                    "midi": 83,
                    "time": 608.0999999999883,
                    "velocity": 0.6929133858267716,
                    "duration": 0.2999999999999545
                },
                {
                    "name": "D6",
                    "midi": 86,
                    "time": 608.0999999999883,
                    "velocity": 0.6929133858267716,
                    "duration": 0.2999999999999545
                },
                {
                    "name": "F6",
                    "midi": 89,
                    "time": 608.3999999999883,
                    "velocity": 0.6929133858267716,
                    "duration": 0.2999999999999545
                },
                {
                    "name": "A6",
                    "midi": 93,
                    "time": 608.3999999999883,
                    "velocity": 0.6929133858267716,
                    "duration": 0.2999999999999545
                },
                {
                    "name": "D#6",
                    "midi": 87,
                    "time": 608.6999999999882,
                    "velocity": 0.6929133858267716,
                    "duration": 0.2999999999999545
                },
                {
                    "name": "G6",
                    "midi": 91,
                    "time": 608.6999999999882,
                    "velocity": 0.6929133858267716,
                    "duration": 0.2999999999999545
                },
                {
                    "name": "D6",
                    "midi": 86,
                    "time": 608.9999999999882,
                    "velocity": 0.6929133858267716,
                    "duration": 0.2999999999999545
                },
                {
                    "name": "F6",
                    "midi": 89,
                    "time": 608.9999999999882,
                    "velocity": 0.6929133858267716,
                    "duration": 0.2999999999999545
                },
                {
                    "name": "C6",
                    "midi": 84,
                    "time": 609.2999999999881,
                    "velocity": 0.6929133858267716,
                    "duration": 0.2999999999999545
                },
                {
                    "name": "D#6",
                    "midi": 87,
                    "time": 609.2999999999881,
                    "velocity": 0.6929133858267716,
                    "duration": 0.2999999999999545
                },
                {
                    "name": "G6",
                    "midi": 91,
                    "time": 609.5999999999881,
                    "velocity": 0.6929133858267716,
                    "duration": 0.2999999999999545
                },
                {
                    "name": "B6",
                    "midi": 95,
                    "time": 609.5999999999881,
                    "velocity": 0.6929133858267716,
                    "duration": 0.2999999999999545
                },
                {
                    "name": "F6",
                    "midi": 89,
                    "time": 609.899999999988,
                    "velocity": 0.6929133858267716,
                    "duration": 0.2999999999999545
                },
                {
                    "name": "A6",
                    "midi": 93,
                    "time": 609.899999999988,
                    "velocity": 0.6929133858267716,
                    "duration": 0.2999999999999545
                },
                {
                    "name": "D#6",
                    "midi": 87,
                    "time": 610.199999999988,
                    "velocity": 0.6929133858267716,
                    "duration": 0.2999999999999545
                },
                {
                    "name": "G6",
                    "midi": 91,
                    "time": 610.199999999988,
                    "velocity": 0.6929133858267716,
                    "duration": 0.2999999999999545
                },
                {
                    "name": "D6",
                    "midi": 86,
                    "time": 610.499999999988,
                    "velocity": 0.6929133858267716,
                    "duration": 0.2999999999999545
                },
                {
                    "name": "F6",
                    "midi": 89,
                    "time": 610.499999999988,
                    "velocity": 0.6929133858267716,
                    "duration": 0.2999999999999545
                },
                {
                    "name": "F6",
                    "midi": 89,
                    "time": 610.7999999999879,
                    "velocity": 0.6929133858267716,
                    "duration": 0.2999999999999545
                },
                {
                    "name": "A6",
                    "midi": 93,
                    "time": 610.7999999999879,
                    "velocity": 0.6929133858267716,
                    "duration": 0.2999999999999545
                },
                {
                    "name": "D#6",
                    "midi": 87,
                    "time": 611.0999999999879,
                    "velocity": 0.6929133858267716,
                    "duration": 0.2999999999999545
                },
                {
                    "name": "G6",
                    "midi": 91,
                    "time": 611.0999999999879,
                    "velocity": 0.6929133858267716,
                    "duration": 0.2999999999999545
                },
                {
                    "name": "D6",
                    "midi": 86,
                    "time": 611.3999999999878,
                    "velocity": 0.6929133858267716,
                    "duration": 0.2999999999999545
                },
                {
                    "name": "F6",
                    "midi": 89,
                    "time": 611.3999999999878,
                    "velocity": 0.6929133858267716,
                    "duration": 0.2999999999999545
                },
                {
                    "name": "C6",
                    "midi": 84,
                    "time": 611.6999999999878,
                    "velocity": 0.6929133858267716,
                    "duration": 0.2999999999999545
                },
                {
                    "name": "D#6",
                    "midi": 87,
                    "time": 611.6999999999878,
                    "velocity": 0.6929133858267716,
                    "duration": 0.2999999999999545
                },
                {
                    "name": "F6",
                    "midi": 89,
                    "time": 611.9999999999877,
                    "velocity": 0.6929133858267716,
                    "duration": 0.2999999999999545
                },
                {
                    "name": "A6",
                    "midi": 93,
                    "time": 611.9999999999877,
                    "velocity": 0.6929133858267716,
                    "duration": 0.2999999999999545
                },
                {
                    "name": "D#6",
                    "midi": 87,
                    "time": 612.2999999999877,
                    "velocity": 0.6929133858267716,
                    "duration": 0.2999999999999545
                },
                {
                    "name": "G6",
                    "midi": 91,
                    "time": 612.2999999999877,
                    "velocity": 0.6929133858267716,
                    "duration": 0.2999999999999545
                },
                {
                    "name": "D6",
                    "midi": 86,
                    "time": 612.5999999999876,
                    "velocity": 0.6929133858267716,
                    "duration": 0.2999999999999545
                },
                {
                    "name": "F6",
                    "midi": 89,
                    "time": 612.5999999999876,
                    "velocity": 0.6929133858267716,
                    "duration": 0.2999999999999545
                },
                {
                    "name": "C6",
                    "midi": 84,
                    "time": 612.8999999999876,
                    "velocity": 0.6929133858267716,
                    "duration": 0.2999999999999545
                },
                {
                    "name": "D#6",
                    "midi": 87,
                    "time": 612.8999999999876,
                    "velocity": 0.6929133858267716,
                    "duration": 0.2999999999999545
                },
                {
                    "name": "D#6",
                    "midi": 87,
                    "time": 616.7999999999876,
                    "velocity": 0.6929133858267716,
                    "duration": 0.2999999999999545
                },
                {
                    "name": "G6",
                    "midi": 91,
                    "time": 616.7999999999876,
                    "velocity": 0.6929133858267716,
                    "duration": 0.2999999999999545
                },
                {
                    "name": "D6",
                    "midi": 86,
                    "time": 617.0999999999875,
                    "velocity": 0.6929133858267716,
                    "duration": 0.2999999999999545
                },
                {
                    "name": "F6",
                    "midi": 89,
                    "time": 617.0999999999875,
                    "velocity": 0.6929133858267716,
                    "duration": 0.2999999999999545
                },
                {
                    "name": "C6",
                    "midi": 84,
                    "time": 617.3999999999875,
                    "velocity": 0.6929133858267716,
                    "duration": 0.2999999999999545
                },
                {
                    "name": "D#6",
                    "midi": 87,
                    "time": 617.3999999999875,
                    "velocity": 0.6929133858267716,
                    "duration": 0.2999999999999545
                },
                {
                    "name": "B5",
                    "midi": 83,
                    "time": 617.6999999999874,
                    "velocity": 0.6929133858267716,
                    "duration": 0.2999999999999545
                },
                {
                    "name": "D6",
                    "midi": 86,
                    "time": 617.6999999999874,
                    "velocity": 0.6929133858267716,
                    "duration": 0.2999999999999545
                },
                {
                    "name": "F6",
                    "midi": 89,
                    "time": 617.9999999999874,
                    "velocity": 0.6929133858267716,
                    "duration": 0.2999999999999545
                },
                {
                    "name": "A6",
                    "midi": 93,
                    "time": 617.9999999999874,
                    "velocity": 0.6929133858267716,
                    "duration": 0.2999999999999545
                },
                {
                    "name": "D#6",
                    "midi": 87,
                    "time": 618.2999999999873,
                    "velocity": 0.6929133858267716,
                    "duration": 0.2999999999999545
                },
                {
                    "name": "G6",
                    "midi": 91,
                    "time": 618.2999999999873,
                    "velocity": 0.6929133858267716,
                    "duration": 0.2999999999999545
                },
                {
                    "name": "D6",
                    "midi": 86,
                    "time": 618.5999999999873,
                    "velocity": 0.6929133858267716,
                    "duration": 0.2999999999999545
                },
                {
                    "name": "F6",
                    "midi": 89,
                    "time": 618.5999999999873,
                    "velocity": 0.6929133858267716,
                    "duration": 0.2999999999999545
                },
                {
                    "name": "C6",
                    "midi": 84,
                    "time": 618.8999999999872,
                    "velocity": 0.6929133858267716,
                    "duration": 0.2999999999999545
                },
                {
                    "name": "D#6",
                    "midi": 87,
                    "time": 618.8999999999872,
                    "velocity": 0.6929133858267716,
                    "duration": 0.2999999999999545
                },
                {
                    "name": "G6",
                    "midi": 91,
                    "time": 619.1999999999872,
                    "velocity": 0.6929133858267716,
                    "duration": 0.2999999999999545
                },
                {
                    "name": "B6",
                    "midi": 95,
                    "time": 619.1999999999872,
                    "velocity": 0.6929133858267716,
                    "duration": 0.2999999999999545
                },
                {
                    "name": "F6",
                    "midi": 89,
                    "time": 619.4999999999872,
                    "velocity": 0.6929133858267716,
                    "duration": 0.2999999999999545
                },
                {
                    "name": "A6",
                    "midi": 93,
                    "time": 619.4999999999872,
                    "velocity": 0.6929133858267716,
                    "duration": 0.2999999999999545
                },
                {
                    "name": "D#6",
                    "midi": 87,
                    "time": 619.7999999999871,
                    "velocity": 0.6929133858267716,
                    "duration": 0.2999999999999545
                },
                {
                    "name": "G6",
                    "midi": 91,
                    "time": 619.7999999999871,
                    "velocity": 0.6929133858267716,
                    "duration": 0.2999999999999545
                },
                {
                    "name": "D6",
                    "midi": 86,
                    "time": 620.0999999999871,
                    "velocity": 0.6929133858267716,
                    "duration": 0.2999999999999545
                },
                {
                    "name": "F6",
                    "midi": 89,
                    "time": 620.0999999999871,
                    "velocity": 0.6929133858267716,
                    "duration": 0.2999999999999545
                },
                {
                    "name": "F6",
                    "midi": 89,
                    "time": 620.399999999987,
                    "velocity": 0.6929133858267716,
                    "duration": 0.2999999999999545
                },
                {
                    "name": "A6",
                    "midi": 93,
                    "time": 620.399999999987,
                    "velocity": 0.6929133858267716,
                    "duration": 0.2999999999999545
                },
                {
                    "name": "D#6",
                    "midi": 87,
                    "time": 620.699999999987,
                    "velocity": 0.6929133858267716,
                    "duration": 0.2999999999999545
                },
                {
                    "name": "G6",
                    "midi": 91,
                    "time": 620.699999999987,
                    "velocity": 0.6929133858267716,
                    "duration": 0.2999999999999545
                },
                {
                    "name": "D6",
                    "midi": 86,
                    "time": 620.9999999999869,
                    "velocity": 0.6929133858267716,
                    "duration": 0.2999999999999545
                },
                {
                    "name": "F6",
                    "midi": 89,
                    "time": 620.9999999999869,
                    "velocity": 0.6929133858267716,
                    "duration": 0.2999999999999545
                },
                {
                    "name": "C6",
                    "midi": 84,
                    "time": 621.2999999999869,
                    "velocity": 0.6929133858267716,
                    "duration": 0.2999999999999545
                },
                {
                    "name": "D#6",
                    "midi": 87,
                    "time": 621.2999999999869,
                    "velocity": 0.6929133858267716,
                    "duration": 0.2999999999999545
                },
                {
                    "name": "F6",
                    "midi": 89,
                    "time": 621.5999999999868,
                    "velocity": 0.6929133858267716,
                    "duration": 0.2999999999999545
                },
                {
                    "name": "A6",
                    "midi": 93,
                    "time": 621.5999999999868,
                    "velocity": 0.6929133858267716,
                    "duration": 0.2999999999999545
                },
                {
                    "name": "D#6",
                    "midi": 87,
                    "time": 621.8999999999868,
                    "velocity": 0.6929133858267716,
                    "duration": 0.2999999999999545
                },
                {
                    "name": "G6",
                    "midi": 91,
                    "time": 621.8999999999868,
                    "velocity": 0.6929133858267716,
                    "duration": 0.2999999999999545
                },
                {
                    "name": "D6",
                    "midi": 86,
                    "time": 622.1999999999867,
                    "velocity": 0.6929133858267716,
                    "duration": 0.2999999999999545
                },
                {
                    "name": "F6",
                    "midi": 89,
                    "time": 622.1999999999867,
                    "velocity": 0.6929133858267716,
                    "duration": 0.2999999999999545
                },
                {
                    "name": "C6",
                    "midi": 84,
                    "time": 622.4999999999867,
                    "velocity": 0.6929133858267716,
                    "duration": 0.2999999999999545
                },
                {
                    "name": "D#6",
                    "midi": 87,
                    "time": 622.4999999999867,
                    "velocity": 0.6929133858267716,
                    "duration": 0.2999999999999545
                },
                {
                    "name": "F6",
                    "midi": 89,
                    "time": 626.3999999999867,
                    "velocity": 0.6929133858267716,
                    "duration": 0.2999999999999545
                },
                {
                    "name": "A6",
                    "midi": 93,
                    "time": 626.3999999999867,
                    "velocity": 0.6929133858267716,
                    "duration": 0.2999999999999545
                },
                {
                    "name": "D#6",
                    "midi": 87,
                    "time": 626.6999999999866,
                    "velocity": 0.6929133858267716,
                    "duration": 0.2999999999999545
                },
                {
                    "name": "G6",
                    "midi": 91,
                    "time": 626.6999999999866,
                    "velocity": 0.6929133858267716,
                    "duration": 0.2999999999999545
                },
                {
                    "name": "D6",
                    "midi": 86,
                    "time": 626.9999999999866,
                    "velocity": 0.6929133858267716,
                    "duration": 0.2999999999999545
                },
                {
                    "name": "F6",
                    "midi": 89,
                    "time": 626.9999999999866,
                    "velocity": 0.6929133858267716,
                    "duration": 0.2999999999999545
                },
                {
                    "name": "C6",
                    "midi": 84,
                    "time": 627.2999999999865,
                    "velocity": 0.6929133858267716,
                    "duration": 0.2999999999999545
                },
                {
                    "name": "D#6",
                    "midi": 87,
                    "time": 627.2999999999865,
                    "velocity": 0.6929133858267716,
                    "duration": 0.2999999999999545
                },
                {
                    "name": "F6",
                    "midi": 89,
                    "time": 628.7999999999865,
                    "velocity": 0.6929133858267716,
                    "duration": 0.2999999999999545
                },
                {
                    "name": "A6",
                    "midi": 93,
                    "time": 628.7999999999865,
                    "velocity": 0.6929133858267716,
                    "duration": 0.2999999999999545
                },
                {
                    "name": "D#6",
                    "midi": 87,
                    "time": 629.0999999999865,
                    "velocity": 0.6929133858267716,
                    "duration": 0.2999999999999545
                },
                {
                    "name": "G6",
                    "midi": 91,
                    "time": 629.0999999999865,
                    "velocity": 0.6929133858267716,
                    "duration": 0.2999999999999545
                },
                {
                    "name": "D6",
                    "midi": 86,
                    "time": 629.3999999999864,
                    "velocity": 0.6929133858267716,
                    "duration": 0.2999999999999545
                },
                {
                    "name": "F6",
                    "midi": 89,
                    "time": 629.3999999999864,
                    "velocity": 0.6929133858267716,
                    "duration": 0.2999999999999545
                },
                {
                    "name": "C6",
                    "midi": 84,
                    "time": 629.6999999999864,
                    "velocity": 0.6929133858267716,
                    "duration": 0.2999999999999545
                },
                {
                    "name": "D#6",
                    "midi": 87,
                    "time": 629.6999999999864,
                    "velocity": 0.6929133858267716,
                    "duration": 0.2999999999999545
                },
                {
                    "name": "F6",
                    "midi": 89,
                    "time": 631.1999999999864,
                    "velocity": 0.6929133858267716,
                    "duration": 0.2999999999999545
                },
                {
                    "name": "A6",
                    "midi": 93,
                    "time": 631.1999999999864,
                    "velocity": 0.6929133858267716,
                    "duration": 0.2999999999999545
                },
                {
                    "name": "D#6",
                    "midi": 87,
                    "time": 631.4999999999864,
                    "velocity": 0.6929133858267716,
                    "duration": 0.2999999999999545
                },
                {
                    "name": "G6",
                    "midi": 91,
                    "time": 631.4999999999864,
                    "velocity": 0.6929133858267716,
                    "duration": 0.2999999999999545
                },
                {
                    "name": "D6",
                    "midi": 86,
                    "time": 631.7999999999863,
                    "velocity": 0.6929133858267716,
                    "duration": 0.2999999999999545
                },
                {
                    "name": "F6",
                    "midi": 89,
                    "time": 631.7999999999863,
                    "velocity": 0.6929133858267716,
                    "duration": 0.2999999999999545
                },
                {
                    "name": "C6",
                    "midi": 84,
                    "time": 632.0999999999863,
                    "velocity": 0.6929133858267716,
                    "duration": 0.2999999999999545
                },
                {
                    "name": "D#6",
                    "midi": 87,
                    "time": 632.0999999999863,
                    "velocity": 0.6929133858267716,
                    "duration": 0.2999999999999545
                },
                {
                    "name": "C#5",
                    "midi": 73,
                    "time": 649.1999999999862,
                    "velocity": 0.4881889763779528,
                    "duration": 0.11749999999994998
                },
                {
                    "name": "D#5",
                    "midi": 75,
                    "time": 649.1999999999862,
                    "velocity": 0.4881889763779528,
                    "duration": 0.11749999999994998
                },
                {
                    "name": "C#5",
                    "midi": 73,
                    "time": 649.7999999999861,
                    "velocity": 0.4881889763779528,
                    "duration": 0.11749999999994998
                },
                {
                    "name": "D#5",
                    "midi": 75,
                    "time": 649.7999999999861,
                    "velocity": 0.4881889763779528,
                    "duration": 0.11749999999994998
                },
                {
                    "name": "C#5",
                    "midi": 73,
                    "time": 650.399999999986,
                    "velocity": 0.4881889763779528,
                    "duration": 0.11749999999994998
                },
                {
                    "name": "D#5",
                    "midi": 75,
                    "time": 650.399999999986,
                    "velocity": 0.4881889763779528,
                    "duration": 0.11749999999994998
                },
                {
                    "name": "C#5",
                    "midi": 73,
                    "time": 650.9999999999859,
                    "velocity": 0.4881889763779528,
                    "duration": 0.11749999999994998
                },
                {
                    "name": "D#5",
                    "midi": 75,
                    "time": 650.9999999999859,
                    "velocity": 0.4881889763779528,
                    "duration": 0.11749999999994998
                },
                {
                    "name": "C#5",
                    "midi": 73,
                    "time": 653.9999999999859,
                    "velocity": 0.4881889763779528,
                    "duration": 0.11749999999994998
                },
                {
                    "name": "D#5",
                    "midi": 75,
                    "time": 653.9999999999859,
                    "velocity": 0.4881889763779528,
                    "duration": 0.11749999999994998
                },
                {
                    "name": "C#5",
                    "midi": 73,
                    "time": 654.5999999999858,
                    "velocity": 0.4881889763779528,
                    "duration": 0.11749999999994998
                },
                {
                    "name": "D#5",
                    "midi": 75,
                    "time": 654.5999999999858,
                    "velocity": 0.4881889763779528,
                    "duration": 0.11749999999994998
                },
                {
                    "name": "C#5",
                    "midi": 73,
                    "time": 655.1999999999857,
                    "velocity": 0.4881889763779528,
                    "duration": 0.11749999999994998
                },
                {
                    "name": "D#5",
                    "midi": 75,
                    "time": 655.1999999999857,
                    "velocity": 0.4881889763779528,
                    "duration": 0.11749999999994998
                },
                {
                    "name": "C#5",
                    "midi": 73,
                    "time": 655.7999999999856,
                    "velocity": 0.4881889763779528,
                    "duration": 0.11749999999994998
                },
                {
                    "name": "D#5",
                    "midi": 75,
                    "time": 655.7999999999856,
                    "velocity": 0.4881889763779528,
                    "duration": 0.11749999999994998
                },
                {
                    "name": "C#5",
                    "midi": 73,
                    "time": 658.1999999999856,
                    "velocity": 0.4881889763779528,
                    "duration": 0.11749999999994998
                },
                {
                    "name": "D#5",
                    "midi": 75,
                    "time": 658.1999999999856,
                    "velocity": 0.4881889763779528,
                    "duration": 0.11749999999994998
                },
                {
                    "name": "C#5",
                    "midi": 73,
                    "time": 658.7999999999855,
                    "velocity": 0.4881889763779528,
                    "duration": 0.11749999999994998
                },
                {
                    "name": "D#5",
                    "midi": 75,
                    "time": 658.7999999999855,
                    "velocity": 0.4881889763779528,
                    "duration": 0.11749999999994998
                },
                {
                    "name": "C#5",
                    "midi": 73,
                    "time": 659.3999999999854,
                    "velocity": 0.4881889763779528,
                    "duration": 0.11749999999994998
                },
                {
                    "name": "D#5",
                    "midi": 75,
                    "time": 659.3999999999854,
                    "velocity": 0.4881889763779528,
                    "duration": 0.11749999999994998
                },
                {
                    "name": "C#5",
                    "midi": 73,
                    "time": 659.9999999999853,
                    "velocity": 0.4881889763779528,
                    "duration": 0.11749999999994998
                },
                {
                    "name": "D#5",
                    "midi": 75,
                    "time": 659.9999999999853,
                    "velocity": 0.4881889763779528,
                    "duration": 0.11749999999994998
                },
                {
                    "name": "C#5",
                    "midi": 73,
                    "time": 660.5999999999852,
                    "velocity": 0.4881889763779528,
                    "duration": 0.11749999999994998
                },
                {
                    "name": "D#5",
                    "midi": 75,
                    "time": 660.5999999999852,
                    "velocity": 0.4881889763779528,
                    "duration": 0.11749999999994998
                },
                {
                    "name": "C#5",
                    "midi": 73,
                    "time": 661.1999999999852,
                    "velocity": 0.4881889763779528,
                    "duration": 0.11749999999994998
                },
                {
                    "name": "D#5",
                    "midi": 75,
                    "time": 661.1999999999852,
                    "velocity": 0.4881889763779528,
                    "duration": 0.11749999999994998
                },
                {
                    "name": "C#5",
                    "midi": 73,
                    "time": 661.7999999999851,
                    "velocity": 0.4881889763779528,
                    "duration": 0.11749999999994998
                },
                {
                    "name": "D#5",
                    "midi": 75,
                    "time": 661.7999999999851,
                    "velocity": 0.4881889763779528,
                    "duration": 0.11749999999994998
                },
                {
                    "name": "C#5",
                    "midi": 73,
                    "time": 662.399999999985,
                    "velocity": 0.4881889763779528,
                    "duration": 0.11749999999994998
                },
                {
                    "name": "D#5",
                    "midi": 75,
                    "time": 662.399999999985,
                    "velocity": 0.4881889763779528,
                    "duration": 0.11749999999994998
                },
                {
                    "name": "G4",
                    "midi": 67,
                    "time": 734.9999999999849,
                    "velocity": 0.7952755905511811,
                    "duration": 0.2999999999999545
                },
                {
                    "name": "A#4",
                    "midi": 70,
                    "time": 734.9999999999849,
                    "velocity": 0.7952755905511811,
                    "duration": 0.2999999999999545
                },
                {
                    "name": "C#5",
                    "midi": 73,
                    "time": 734.9999999999849,
                    "velocity": 0.7952755905511811,
                    "duration": 0.2999999999999545
                },
                {
                    "name": "D#5",
                    "midi": 75,
                    "time": 734.9999999999849,
                    "velocity": 0.7952755905511811,
                    "duration": 0.2999999999999545
                },
                {
                    "name": "E4",
                    "midi": 64,
                    "time": 735.2999999999848,
                    "velocity": 0.7952755905511811,
                    "duration": 0.2999999999999545
                },
                {
                    "name": "G#4",
                    "midi": 68,
                    "time": 735.5999999999848,
                    "velocity": 0.7952755905511811,
                    "duration": 0.2999999999999545
                },
                {
                    "name": "B4",
                    "midi": 71,
                    "time": 735.5999999999848,
                    "velocity": 0.7952755905511811,
                    "duration": 0.2999999999999545
                },
                {
                    "name": "D5",
                    "midi": 74,
                    "time": 735.5999999999848,
                    "velocity": 0.7952755905511811,
                    "duration": 0.2999999999999545
                },
                {
                    "name": "E5",
                    "midi": 76,
                    "time": 735.5999999999848,
                    "velocity": 0.7952755905511811,
                    "duration": 0.2999999999999545
                },
                {
                    "name": "F4",
                    "midi": 65,
                    "time": 735.8999999999847,
                    "velocity": 0.7952755905511811,
                    "duration": 0.2999999999999545
                },
                {
                    "name": "A4",
                    "midi": 69,
                    "time": 736.1999999999847,
                    "velocity": 0.7952755905511811,
                    "duration": 0.2999999999999545
                },
                {
                    "name": "C5",
                    "midi": 72,
                    "time": 736.1999999999847,
                    "velocity": 0.7952755905511811,
                    "duration": 0.2999999999999545
                },
                {
                    "name": "D#5",
                    "midi": 75,
                    "time": 736.1999999999847,
                    "velocity": 0.7952755905511811,
                    "duration": 0.2999999999999545
                },
                {
                    "name": "F5",
                    "midi": 77,
                    "time": 736.1999999999847,
                    "velocity": 0.7952755905511811,
                    "duration": 0.2999999999999545
                },
                {
                    "name": "F#4",
                    "midi": 66,
                    "time": 736.4999999999847,
                    "velocity": 0.7952755905511811,
                    "duration": 0.2999999999999545
                },
                {
                    "name": "A#4",
                    "midi": 70,
                    "time": 736.7999999999846,
                    "velocity": 0.7952755905511811,
                    "duration": 0.2999999999999545
                },
                {
                    "name": "C#5",
                    "midi": 73,
                    "time": 736.7999999999846,
                    "velocity": 0.7952755905511811,
                    "duration": 0.2999999999999545
                },
                {
                    "name": "E5",
                    "midi": 76,
                    "time": 736.7999999999846,
                    "velocity": 0.7952755905511811,
                    "duration": 0.2999999999999545
                },
                {
                    "name": "F#5",
                    "midi": 78,
                    "time": 736.7999999999846,
                    "velocity": 0.7952755905511811,
                    "duration": 0.2999999999999545
                },
                {
                    "name": "G4",
                    "midi": 67,
                    "time": 737.0999999999846,
                    "velocity": 0.7952755905511811,
                    "duration": 0.2999999999999545
                },
                {
                    "name": "A#4",
                    "midi": 70,
                    "time": 737.3999999999845,
                    "velocity": 0.7952755905511811,
                    "duration": 0.2999999999999545
                },
                {
                    "name": "C#5",
                    "midi": 73,
                    "time": 737.3999999999845,
                    "velocity": 0.7952755905511811,
                    "duration": 0.2999999999999545
                },
                {
                    "name": "E5",
                    "midi": 76,
                    "time": 737.3999999999845,
                    "velocity": 0.7952755905511811,
                    "duration": 0.2999999999999545
                },
                {
                    "name": "F#5",
                    "midi": 78,
                    "time": 737.3999999999845,
                    "velocity": 0.7952755905511811,
                    "duration": 0.2999999999999545
                },
                {
                    "name": "G4",
                    "midi": 67,
                    "time": 737.6999999999845,
                    "velocity": 0.7952755905511811,
                    "duration": 0.2999999999999545
                },
                {
                    "name": "A#4",
                    "midi": 70,
                    "time": 737.9999999999844,
                    "velocity": 0.7952755905511811,
                    "duration": 0.2999999999999545
                },
                {
                    "name": "C#5",
                    "midi": 73,
                    "time": 737.9999999999844,
                    "velocity": 0.7952755905511811,
                    "duration": 0.2999999999999545
                },
                {
                    "name": "E5",
                    "midi": 76,
                    "time": 737.9999999999844,
                    "velocity": 0.7952755905511811,
                    "duration": 0.2999999999999545
                },
                {
                    "name": "F#5",
                    "midi": 78,
                    "time": 737.9999999999844,
                    "velocity": 0.7952755905511811,
                    "duration": 0.2999999999999545
                },
                {
                    "name": "G4",
                    "midi": 67,
                    "time": 738.2999999999844,
                    "velocity": 0.7952755905511811,
                    "duration": 0.2999999999999545
                },
                {
                    "name": "G4",
                    "midi": 67,
                    "time": 738.5999999999843,
                    "velocity": 0.7952755905511811,
                    "duration": 0.2999999999999545
                },
                {
                    "name": "A#4",
                    "midi": 70,
                    "time": 738.5999999999843,
                    "velocity": 0.7952755905511811,
                    "duration": 0.2999999999999545
                },
                {
                    "name": "C#5",
                    "midi": 73,
                    "time": 738.5999999999843,
                    "velocity": 0.7952755905511811,
                    "duration": 0.2999999999999545
                },
                {
                    "name": "E5",
                    "midi": 76,
                    "time": 738.5999999999843,
                    "velocity": 0.7952755905511811,
                    "duration": 0.2999999999999545
                },
                {
                    "name": "E4",
                    "midi": 64,
                    "time": 738.8999999999843,
                    "velocity": 0.7952755905511811,
                    "duration": 0.2999999999999545
                },
                {
                    "name": "G4",
                    "midi": 67,
                    "time": 739.1999999999842,
                    "velocity": 0.7952755905511811,
                    "duration": 0.2999999999999545
                },
                {
                    "name": "A#4",
                    "midi": 70,
                    "time": 739.1999999999842,
                    "velocity": 0.7952755905511811,
                    "duration": 0.2999999999999545
                },
                {
                    "name": "C#5",
                    "midi": 73,
                    "time": 739.1999999999842,
                    "velocity": 0.7952755905511811,
                    "duration": 0.2999999999999545
                },
                {
                    "name": "E5",
                    "midi": 76,
                    "time": 739.1999999999842,
                    "velocity": 0.7952755905511811,
                    "duration": 0.2999999999999545
                },
                {
                    "name": "E4",
                    "midi": 64,
                    "time": 739.4999999999842,
                    "velocity": 0.7952755905511811,
                    "duration": 0.2999999999999545
                },
                {
                    "name": "G4",
                    "midi": 67,
                    "time": 739.7999999999842,
                    "velocity": 0.7952755905511811,
                    "duration": 0.2999999999999545
                },
                {
                    "name": "A#4",
                    "midi": 70,
                    "time": 739.7999999999842,
                    "velocity": 0.7952755905511811,
                    "duration": 0.2999999999999545
                },
                {
                    "name": "C#5",
                    "midi": 73,
                    "time": 739.7999999999842,
                    "velocity": 0.7952755905511811,
                    "duration": 0.2999999999999545
                },
                {
                    "name": "E5",
                    "midi": 76,
                    "time": 739.7999999999842,
                    "velocity": 0.7952755905511811,
                    "duration": 0.2999999999999545
                },
                {
                    "name": "E4",
                    "midi": 64,
                    "time": 740.0999999999841,
                    "velocity": 0.7952755905511811,
                    "duration": 0.2999999999999545
                },
                {
                    "name": "G4",
                    "midi": 67,
                    "time": 740.3999999999841,
                    "velocity": 0.7952755905511811,
                    "duration": 0.2999999999999545
                },
                {
                    "name": "A#4",
                    "midi": 70,
                    "time": 740.3999999999841,
                    "velocity": 0.7952755905511811,
                    "duration": 0.2999999999999545
                },
                {
                    "name": "C#5",
                    "midi": 73,
                    "time": 740.3999999999841,
                    "velocity": 0.7952755905511811,
                    "duration": 0.2999999999999545
                },
                {
                    "name": "D#5",
                    "midi": 75,
                    "time": 740.3999999999841,
                    "velocity": 0.7952755905511811,
                    "duration": 0.2999999999999545
                },
                {
                    "name": "E4",
                    "midi": 64,
                    "time": 740.699999999984,
                    "velocity": 0.7952755905511811,
                    "duration": 0.2999999999999545
                },
                {
                    "name": "G#4",
                    "midi": 68,
                    "time": 740.999999999984,
                    "velocity": 0.7952755905511811,
                    "duration": 0.2999999999999545
                },
                {
                    "name": "B4",
                    "midi": 71,
                    "time": 740.999999999984,
                    "velocity": 0.7952755905511811,
                    "duration": 0.2999999999999545
                },
                {
                    "name": "D5",
                    "midi": 74,
                    "time": 740.999999999984,
                    "velocity": 0.7952755905511811,
                    "duration": 0.2999999999999545
                },
                {
                    "name": "E5",
                    "midi": 76,
                    "time": 740.999999999984,
                    "velocity": 0.7952755905511811,
                    "duration": 0.2999999999999545
                },
                {
                    "name": "F4",
                    "midi": 65,
                    "time": 741.2999999999839,
                    "velocity": 0.7952755905511811,
                    "duration": 0.2999999999999545
                },
                {
                    "name": "A4",
                    "midi": 69,
                    "time": 741.5999999999839,
                    "velocity": 0.7952755905511811,
                    "duration": 0.2999999999999545
                },
                {
                    "name": "C5",
                    "midi": 72,
                    "time": 741.5999999999839,
                    "velocity": 0.7952755905511811,
                    "duration": 0.2999999999999545
                },
                {
                    "name": "D#5",
                    "midi": 75,
                    "time": 741.5999999999839,
                    "velocity": 0.7952755905511811,
                    "duration": 0.2999999999999545
                },
                {
                    "name": "F5",
                    "midi": 77,
                    "time": 741.5999999999839,
                    "velocity": 0.7952755905511811,
                    "duration": 0.2999999999999545
                },
                {
                    "name": "F#4",
                    "midi": 66,
                    "time": 741.8999999999838,
                    "velocity": 0.7952755905511811,
                    "duration": 0.2999999999999545
                },
                {
                    "name": "A#4",
                    "midi": 70,
                    "time": 742.1999999999838,
                    "velocity": 0.7952755905511811,
                    "duration": 0.2999999999999545
                },
                {
                    "name": "C#5",
                    "midi": 73,
                    "time": 742.1999999999838,
                    "velocity": 0.7952755905511811,
                    "duration": 0.2999999999999545
                },
                {
                    "name": "E5",
                    "midi": 76,
                    "time": 742.1999999999838,
                    "velocity": 0.7952755905511811,
                    "duration": 0.2999999999999545
                },
                {
                    "name": "F#5",
                    "midi": 78,
                    "time": 742.1999999999838,
                    "velocity": 0.7952755905511811,
                    "duration": 0.2999999999999545
                },
                {
                    "name": "G4",
                    "midi": 67,
                    "time": 742.4999999999837,
                    "velocity": 0.7952755905511811,
                    "duration": 0.2999999999999545
                },
                {
                    "name": "A4",
                    "midi": 69,
                    "time": 742.7999999999837,
                    "velocity": 0.7952755905511811,
                    "duration": 0.2999999999999545
                },
                {
                    "name": "C5",
                    "midi": 72,
                    "time": 742.7999999999837,
                    "velocity": 0.7952755905511811,
                    "duration": 0.2999999999999545
                },
                {
                    "name": "D#5",
                    "midi": 75,
                    "time": 742.7999999999837,
                    "velocity": 0.7952755905511811,
                    "duration": 0.2999999999999545
                },
                {
                    "name": "F5",
                    "midi": 77,
                    "time": 742.7999999999837,
                    "velocity": 0.7952755905511811,
                    "duration": 0.2999999999999545
                },
                {
                    "name": "F#4",
                    "midi": 66,
                    "time": 743.0999999999837,
                    "velocity": 0.7952755905511811,
                    "duration": 0.2999999999999545
                },
                {
                    "name": "G#4",
                    "midi": 68,
                    "time": 743.3999999999836,
                    "velocity": 0.7952755905511811,
                    "duration": 0.2999999999999545
                },
                {
                    "name": "B4",
                    "midi": 71,
                    "time": 743.3999999999836,
                    "velocity": 0.7952755905511811,
                    "duration": 0.2999999999999545
                },
                {
                    "name": "D5",
                    "midi": 74,
                    "time": 743.3999999999836,
                    "velocity": 0.7952755905511811,
                    "duration": 0.2999999999999545
                },
                {
                    "name": "E5",
                    "midi": 76,
                    "time": 743.3999999999836,
                    "velocity": 0.7952755905511811,
                    "duration": 0.2999999999999545
                },
                {
                    "name": "F4",
                    "midi": 65,
                    "time": 743.6999999999836,
                    "velocity": 0.7952755905511811,
                    "duration": 0.2999999999999545
                },
                {
                    "name": "G4",
                    "midi": 67,
                    "time": 743.9999999999835,
                    "velocity": 0.7952755905511811,
                    "duration": 0.2999999999999545
                },
                {
                    "name": "A#4",
                    "midi": 70,
                    "time": 743.9999999999835,
                    "velocity": 0.7952755905511811,
                    "duration": 0.2999999999999545
                },
                {
                    "name": "C#5",
                    "midi": 73,
                    "time": 743.9999999999835,
                    "velocity": 0.7952755905511811,
                    "duration": 0.2999999999999545
                },
                {
                    "name": "D#5",
                    "midi": 75,
                    "time": 743.9999999999835,
                    "velocity": 0.7952755905511811,
                    "duration": 0.2999999999999545
                },
                {
                    "name": "E4",
                    "midi": 64,
                    "time": 744.2999999999835,
                    "velocity": 0.7952755905511811,
                    "duration": 0.2999999999999545
                },
                {
                    "name": "G4",
                    "midi": 67,
                    "time": 744.5999999999834,
                    "velocity": 0.7952755905511811,
                    "duration": 0.2999999999999545
                },
                {
                    "name": "A#4",
                    "midi": 70,
                    "time": 744.5999999999834,
                    "velocity": 0.7952755905511811,
                    "duration": 0.2999999999999545
                },
                {
                    "name": "C#5",
                    "midi": 73,
                    "time": 744.5999999999834,
                    "velocity": 0.7952755905511811,
                    "duration": 0.2999999999999545
                },
                {
                    "name": "D#5",
                    "midi": 75,
                    "time": 744.5999999999834,
                    "velocity": 0.7952755905511811,
                    "duration": 0.2999999999999545
                },
                {
                    "name": "E4",
                    "midi": 64,
                    "time": 744.8999999999834,
                    "velocity": 0.7952755905511811,
                    "duration": 0.2999999999999545
                },
                {
                    "name": "G4",
                    "midi": 67,
                    "time": 745.1999999999833,
                    "velocity": 0.7952755905511811,
                    "duration": 0.2999999999999545
                },
                {
                    "name": "A#4",
                    "midi": 70,
                    "time": 745.1999999999833,
                    "velocity": 0.7952755905511811,
                    "duration": 0.2999999999999545
                },
                {
                    "name": "C#5",
                    "midi": 73,
                    "time": 745.1999999999833,
                    "velocity": 0.7952755905511811,
                    "duration": 0.2999999999999545
                },
                {
                    "name": "D#5",
                    "midi": 75,
                    "time": 745.1999999999833,
                    "velocity": 0.7952755905511811,
                    "duration": 0.2999999999999545
                },
                {
                    "name": "E4",
                    "midi": 64,
                    "time": 745.4999999999833,
                    "velocity": 0.7952755905511811,
                    "duration": 0.2999999999999545
                },
                {
                    "name": "G5",
                    "midi": 79,
                    "time": 745.7999999999832,
                    "velocity": 0.5905511811023622,
                    "duration": 0.2999999999999545
                },
                {
                    "name": "A#5",
                    "midi": 82,
                    "time": 745.7999999999832,
                    "velocity": 0.5905511811023622,
                    "duration": 0.2999999999999545
                },
                {
                    "name": "C#6",
                    "midi": 85,
                    "time": 745.7999999999832,
                    "velocity": 0.5905511811023622,
                    "duration": 0.2999999999999545
                },
                {
                    "name": "D#6",
                    "midi": 87,
                    "time": 745.7999999999832,
                    "velocity": 0.5905511811023622,
                    "duration": 0.2999999999999545
                },
                {
                    "name": "E5",
                    "midi": 76,
                    "time": 746.0999999999832,
                    "velocity": 0.5905511811023622,
                    "duration": 0.2999999999999545
                },
                {
                    "name": "G5",
                    "midi": 79,
                    "time": 746.3999999999832,
                    "velocity": 0.5905511811023622,
                    "duration": 0.2999999999999545
                },
                {
                    "name": "A#5",
                    "midi": 82,
                    "time": 746.3999999999832,
                    "velocity": 0.5905511811023622,
                    "duration": 0.2999999999999545
                },
                {
                    "name": "C#6",
                    "midi": 85,
                    "time": 746.3999999999832,
                    "velocity": 0.5905511811023622,
                    "duration": 0.2999999999999545
                },
                {
                    "name": "D#6",
                    "midi": 87,
                    "time": 746.3999999999832,
                    "velocity": 0.5905511811023622,
                    "duration": 0.2999999999999545
                },
                {
                    "name": "E5",
                    "midi": 76,
                    "time": 746.6999999999831,
                    "velocity": 0.5905511811023622,
                    "duration": 0.2999999999999545
                },
                {
                    "name": "G5",
                    "midi": 79,
                    "time": 746.9999999999831,
                    "velocity": 0.5905511811023622,
                    "duration": 0.2999999999999545
                },
                {
                    "name": "A#5",
                    "midi": 82,
                    "time": 746.9999999999831,
                    "velocity": 0.5905511811023622,
                    "duration": 0.2999999999999545
                },
                {
                    "name": "C#6",
                    "midi": 85,
                    "time": 746.9999999999831,
                    "velocity": 0.5905511811023622,
                    "duration": 0.2999999999999545
                },
                {
                    "name": "D#6",
                    "midi": 87,
                    "time": 746.9999999999831,
                    "velocity": 0.5905511811023622,
                    "duration": 0.2999999999999545
                },
                {
                    "name": "E5",
                    "midi": 76,
                    "time": 747.299999999983,
                    "velocity": 0.5905511811023622,
                    "duration": 0.2999999999999545
                },
                {
                    "name": "A#5",
                    "midi": 82,
                    "time": 747.599999999983,
                    "velocity": 0.5905511811023622,
                    "duration": 0.2999999999999545
                },
                {
                    "name": "C#6",
                    "midi": 85,
                    "time": 747.599999999983,
                    "velocity": 0.5905511811023622,
                    "duration": 0.2999999999999545
                },
                {
                    "name": "E6",
                    "midi": 88,
                    "time": 747.599999999983,
                    "velocity": 0.5905511811023622,
                    "duration": 0.2999999999999545
                },
                {
                    "name": "F#6",
                    "midi": 90,
                    "time": 747.599999999983,
                    "velocity": 0.5905511811023622,
                    "duration": 0.2999999999999545
                },
                {
                    "name": "G5",
                    "midi": 79,
                    "time": 747.8999999999829,
                    "velocity": 0.5905511811023622,
                    "duration": 0.2999999999999545
                },
                {
                    "name": "A#5",
                    "midi": 82,
                    "time": 748.1999999999829,
                    "velocity": 0.5905511811023622,
                    "duration": 0.2999999999999545
                },
                {
                    "name": "C#6",
                    "midi": 85,
                    "time": 748.1999999999829,
                    "velocity": 0.5905511811023622,
                    "duration": 0.2999999999999545
                },
                {
                    "name": "E6",
                    "midi": 88,
                    "time": 748.1999999999829,
                    "velocity": 0.5905511811023622,
                    "duration": 0.2999999999999545
                },
                {
                    "name": "F#6",
                    "midi": 90,
                    "time": 748.1999999999829,
                    "velocity": 0.5905511811023622,
                    "duration": 0.2999999999999545
                },
                {
                    "name": "G5",
                    "midi": 79,
                    "time": 748.4999999999828,
                    "velocity": 0.5905511811023622,
                    "duration": 0.2999999999999545
                },
                {
                    "name": "A#5",
                    "midi": 82,
                    "time": 748.7999999999828,
                    "velocity": 0.5905511811023622,
                    "duration": 0.2999999999999545
                },
                {
                    "name": "C#6",
                    "midi": 85,
                    "time": 748.7999999999828,
                    "velocity": 0.5905511811023622,
                    "duration": 0.2999999999999545
                },
                {
                    "name": "E6",
                    "midi": 88,
                    "time": 748.7999999999828,
                    "velocity": 0.5905511811023622,
                    "duration": 0.2999999999999545
                },
                {
                    "name": "F#6",
                    "midi": 90,
                    "time": 748.7999999999828,
                    "velocity": 0.5905511811023622,
                    "duration": 0.2999999999999545
                },
                {
                    "name": "G5",
                    "midi": 79,
                    "time": 749.0999999999827,
                    "velocity": 0.5905511811023622,
                    "duration": 0.2999999999999545
                },
                {
                    "name": "C#6",
                    "midi": 85,
                    "time": 749.3999999999827,
                    "velocity": 0.5905511811023622,
                    "duration": 0.2999999999999545
                },
                {
                    "name": "E6",
                    "midi": 88,
                    "time": 749.3999999999827,
                    "velocity": 0.5905511811023622,
                    "duration": 0.2999999999999545
                },
                {
                    "name": "G6",
                    "midi": 91,
                    "time": 749.3999999999827,
                    "velocity": 0.5905511811023622,
                    "duration": 0.2999999999999545
                },
                {
                    "name": "A6",
                    "midi": 93,
                    "time": 749.3999999999827,
                    "velocity": 0.5905511811023622,
                    "duration": 0.2999999999999545
                },
                {
                    "name": "A#5",
                    "midi": 82,
                    "time": 749.6999999999827,
                    "velocity": 0.5905511811023622,
                    "duration": 0.2999999999999545
                },
                {
                    "name": "C#6",
                    "midi": 85,
                    "time": 749.9999999999826,
                    "velocity": 0.5905511811023622,
                    "duration": 0.2999999999999545
                },
                {
                    "name": "E6",
                    "midi": 88,
                    "time": 749.9999999999826,
                    "velocity": 0.5905511811023622,
                    "duration": 0.2999999999999545
                },
                {
                    "name": "G6",
                    "midi": 91,
                    "time": 749.9999999999826,
                    "velocity": 0.5905511811023622,
                    "duration": 0.2999999999999545
                },
                {
                    "name": "A6",
                    "midi": 93,
                    "time": 749.9999999999826,
                    "velocity": 0.5905511811023622,
                    "duration": 0.2999999999999545
                },
                {
                    "name": "A#5",
                    "midi": 82,
                    "time": 750.2999999999826,
                    "velocity": 0.5905511811023622,
                    "duration": 0.2999999999999545
                },
                {
                    "name": "C#6",
                    "midi": 85,
                    "time": 750.5999999999825,
                    "velocity": 0.5905511811023622,
                    "duration": 0.2999999999999545
                },
                {
                    "name": "E6",
                    "midi": 88,
                    "time": 750.5999999999825,
                    "velocity": 0.5905511811023622,
                    "duration": 0.2999999999999545
                },
                {
                    "name": "G6",
                    "midi": 91,
                    "time": 750.5999999999825,
                    "velocity": 0.5905511811023622,
                    "duration": 0.2999999999999545
                },
                {
                    "name": "A6",
                    "midi": 93,
                    "time": 750.5999999999825,
                    "velocity": 0.5905511811023622,
                    "duration": 0.2999999999999545
                },
                {
                    "name": "A#5",
                    "midi": 82,
                    "time": 750.8999999999825,
                    "velocity": 0.5905511811023622,
                    "duration": 0.2999999999999545
                },
                {
                    "name": "E6",
                    "midi": 88,
                    "time": 751.1999999999824,
                    "velocity": 0.5905511811023622,
                    "duration": 0.2999999999999545
                },
                {
                    "name": "G6",
                    "midi": 91,
                    "time": 751.1999999999824,
                    "velocity": 0.5905511811023622,
                    "duration": 0.2999999999999545
                },
                {
                    "name": "A#6",
                    "midi": 94,
                    "time": 751.1999999999824,
                    "velocity": 0.5905511811023622,
                    "duration": 0.2999999999999545
                },
                {
                    "name": "C7",
                    "midi": 96,
                    "time": 751.1999999999824,
                    "velocity": 0.5905511811023622,
                    "duration": 0.2999999999999545
                },
                {
                    "name": "C#6",
                    "midi": 85,
                    "time": 751.4999999999824,
                    "velocity": 0.5905511811023622,
                    "duration": 0.2999999999999545
                },
                {
                    "name": "E6",
                    "midi": 88,
                    "time": 751.7999999999823,
                    "velocity": 0.5905511811023622,
                    "duration": 0.2999999999999545
                },
                {
                    "name": "G6",
                    "midi": 91,
                    "time": 751.7999999999823,
                    "velocity": 0.5905511811023622,
                    "duration": 0.2999999999999545
                },
                {
                    "name": "A#6",
                    "midi": 94,
                    "time": 751.7999999999823,
                    "velocity": 0.5905511811023622,
                    "duration": 0.2999999999999545
                },
                {
                    "name": "C7",
                    "midi": 96,
                    "time": 751.7999999999823,
                    "velocity": 0.5905511811023622,
                    "duration": 0.2999999999999545
                },
                {
                    "name": "C#6",
                    "midi": 85,
                    "time": 752.0999999999823,
                    "velocity": 0.5905511811023622,
                    "duration": 0.2999999999999545
                },
                {
                    "name": "E6",
                    "midi": 88,
                    "time": 752.3999999999822,
                    "velocity": 0.5905511811023622,
                    "duration": 0.2999999999999545
                },
                {
                    "name": "G6",
                    "midi": 91,
                    "time": 752.3999999999822,
                    "velocity": 0.5905511811023622,
                    "duration": 0.2999999999999545
                },
                {
                    "name": "A#6",
                    "midi": 94,
                    "time": 752.3999999999822,
                    "velocity": 0.5905511811023622,
                    "duration": 0.2999999999999545
                },
                {
                    "name": "C7",
                    "midi": 96,
                    "time": 752.3999999999822,
                    "velocity": 0.5905511811023622,
                    "duration": 0.2999999999999545
                },
                {
                    "name": "C#6",
                    "midi": 85,
                    "time": 752.6999999999822,
                    "velocity": 0.5905511811023622,
                    "duration": 0.2999999999999545
                },
                {
                    "name": "G5",
                    "midi": 79,
                    "time": 752.9999999999822,
                    "velocity": 0.5905511811023622,
                    "duration": 0.2999999999999545
                },
                {
                    "name": "A#5",
                    "midi": 82,
                    "time": 752.9999999999822,
                    "velocity": 0.5905511811023622,
                    "duration": 0.2999999999999545
                },
                {
                    "name": "C#6",
                    "midi": 85,
                    "time": 752.9999999999822,
                    "velocity": 0.5905511811023622,
                    "duration": 0.2999999999999545
                },
                {
                    "name": "D#6",
                    "midi": 87,
                    "time": 752.9999999999822,
                    "velocity": 0.5905511811023622,
                    "duration": 0.2999999999999545
                },
                {
                    "name": "E5",
                    "midi": 76,
                    "time": 753.2999999999821,
                    "velocity": 0.5905511811023622,
                    "duration": 0.2999999999999545
                },
                {
                    "name": "G5",
                    "midi": 79,
                    "time": 753.5999999999821,
                    "velocity": 0.5905511811023622,
                    "duration": 0.2999999999999545
                },
                {
                    "name": "A#5",
                    "midi": 82,
                    "time": 753.5999999999821,
                    "velocity": 0.5905511811023622,
                    "duration": 0.2999999999999545
                },
                {
                    "name": "C#6",
                    "midi": 85,
                    "time": 753.5999999999821,
                    "velocity": 0.5905511811023622,
                    "duration": 0.2999999999999545
                },
                {
                    "name": "D#6",
                    "midi": 87,
                    "time": 753.5999999999821,
                    "velocity": 0.5905511811023622,
                    "duration": 0.2999999999999545
                },
                {
                    "name": "E5",
                    "midi": 76,
                    "time": 753.899999999982,
                    "velocity": 0.5905511811023622,
                    "duration": 0.2999999999999545
                },
                {
                    "name": "G5",
                    "midi": 79,
                    "time": 754.199999999982,
                    "velocity": 0.5905511811023622,
                    "duration": 0.2999999999999545
                },
                {
                    "name": "A#5",
                    "midi": 82,
                    "time": 754.199999999982,
                    "velocity": 0.5905511811023622,
                    "duration": 0.2999999999999545
                },
                {
                    "name": "C#6",
                    "midi": 85,
                    "time": 754.199999999982,
                    "velocity": 0.5905511811023622,
                    "duration": 0.2999999999999545
                },
                {
                    "name": "D#6",
                    "midi": 87,
                    "time": 754.199999999982,
                    "velocity": 0.5905511811023622,
                    "duration": 0.2999999999999545
                },
                {
                    "name": "E5",
                    "midi": 76,
                    "time": 754.4999999999819,
                    "velocity": 0.5905511811023622,
                    "duration": 0.2999999999999545
                },
                {
                    "name": "A#5",
                    "midi": 82,
                    "time": 754.7999999999819,
                    "velocity": 0.5905511811023622,
                    "duration": 0.2999999999999545
                },
                {
                    "name": "C#6",
                    "midi": 85,
                    "time": 754.7999999999819,
                    "velocity": 0.5905511811023622,
                    "duration": 0.2999999999999545
                },
                {
                    "name": "E6",
                    "midi": 88,
                    "time": 754.7999999999819,
                    "velocity": 0.5905511811023622,
                    "duration": 0.2999999999999545
                },
                {
                    "name": "F#6",
                    "midi": 90,
                    "time": 754.7999999999819,
                    "velocity": 0.5905511811023622,
                    "duration": 0.2999999999999545
                },
                {
                    "name": "G5",
                    "midi": 79,
                    "time": 755.0999999999818,
                    "velocity": 0.5905511811023622,
                    "duration": 0.2999999999999545
                },
                {
                    "name": "A#5",
                    "midi": 82,
                    "time": 755.3999999999818,
                    "velocity": 0.5905511811023622,
                    "duration": 0.2999999999999545
                },
                {
                    "name": "C#6",
                    "midi": 85,
                    "time": 755.3999999999818,
                    "velocity": 0.5905511811023622,
                    "duration": 0.2999999999999545
                },
                {
                    "name": "E6",
                    "midi": 88,
                    "time": 755.3999999999818,
                    "velocity": 0.5905511811023622,
                    "duration": 0.2999999999999545
                },
                {
                    "name": "F#6",
                    "midi": 90,
                    "time": 755.3999999999818,
                    "velocity": 0.5905511811023622,
                    "duration": 0.2999999999999545
                },
                {
                    "name": "G5",
                    "midi": 79,
                    "time": 755.6999999999817,
                    "velocity": 0.5905511811023622,
                    "duration": 0.2999999999999545
                },
                {
                    "name": "A#5",
                    "midi": 82,
                    "time": 755.9999999999817,
                    "velocity": 0.5905511811023622,
                    "duration": 0.2999999999999545
                },
                {
                    "name": "C#6",
                    "midi": 85,
                    "time": 755.9999999999817,
                    "velocity": 0.5905511811023622,
                    "duration": 0.2999999999999545
                },
                {
                    "name": "E6",
                    "midi": 88,
                    "time": 755.9999999999817,
                    "velocity": 0.5905511811023622,
                    "duration": 0.2999999999999545
                },
                {
                    "name": "F#6",
                    "midi": 90,
                    "time": 755.9999999999817,
                    "velocity": 0.5905511811023622,
                    "duration": 0.2999999999999545
                },
                {
                    "name": "G5",
                    "midi": 79,
                    "time": 756.2999999999817,
                    "velocity": 0.5905511811023622,
                    "duration": 0.2999999999999545
                },
                {
                    "name": "C#6",
                    "midi": 85,
                    "time": 756.5999999999816,
                    "velocity": 0.5905511811023622,
                    "duration": 0.2999999999999545
                },
                {
                    "name": "E6",
                    "midi": 88,
                    "time": 756.5999999999816,
                    "velocity": 0.5905511811023622,
                    "duration": 0.2999999999999545
                },
                {
                    "name": "G6",
                    "midi": 91,
                    "time": 756.5999999999816,
                    "velocity": 0.5905511811023622,
                    "duration": 0.2999999999999545
                },
                {
                    "name": "A6",
                    "midi": 93,
                    "time": 756.5999999999816,
                    "velocity": 0.5905511811023622,
                    "duration": 0.2999999999999545
                },
                {
                    "name": "A#5",
                    "midi": 82,
                    "time": 756.8999999999816,
                    "velocity": 0.5905511811023622,
                    "duration": 0.2999999999999545
                },
                {
                    "name": "C#6",
                    "midi": 85,
                    "time": 757.1999999999815,
                    "velocity": 0.5905511811023622,
                    "duration": 0.2999999999999545
                },
                {
                    "name": "E6",
                    "midi": 88,
                    "time": 757.1999999999815,
                    "velocity": 0.5905511811023622,
                    "duration": 0.2999999999999545
                },
                {
                    "name": "G6",
                    "midi": 91,
                    "time": 757.1999999999815,
                    "velocity": 0.5905511811023622,
                    "duration": 0.2999999999999545
                },
                {
                    "name": "A6",
                    "midi": 93,
                    "time": 757.1999999999815,
                    "velocity": 0.5905511811023622,
                    "duration": 0.2999999999999545
                },
                {
                    "name": "A#5",
                    "midi": 82,
                    "time": 757.4999999999815,
                    "velocity": 0.5905511811023622,
                    "duration": 0.2999999999999545
                },
                {
                    "name": "C#6",
                    "midi": 85,
                    "time": 757.7999999999814,
                    "velocity": 0.5905511811023622,
                    "duration": 0.2999999999999545
                },
                {
                    "name": "E6",
                    "midi": 88,
                    "time": 757.7999999999814,
                    "velocity": 0.5905511811023622,
                    "duration": 0.2999999999999545
                },
                {
                    "name": "G6",
                    "midi": 91,
                    "time": 757.7999999999814,
                    "velocity": 0.5905511811023622,
                    "duration": 0.2999999999999545
                },
                {
                    "name": "A6",
                    "midi": 93,
                    "time": 757.7999999999814,
                    "velocity": 0.5905511811023622,
                    "duration": 0.2999999999999545
                },
                {
                    "name": "A#5",
                    "midi": 82,
                    "time": 758.0999999999814,
                    "velocity": 0.5905511811023622,
                    "duration": 0.2999999999999545
                },
                {
                    "name": "E6",
                    "midi": 88,
                    "time": 758.3999999999813,
                    "velocity": 0.5905511811023622,
                    "duration": 0.2999999999999545
                },
                {
                    "name": "G6",
                    "midi": 91,
                    "time": 758.3999999999813,
                    "velocity": 0.5905511811023622,
                    "duration": 0.2999999999999545
                },
                {
                    "name": "A#6",
                    "midi": 94,
                    "time": 758.3999999999813,
                    "velocity": 0.5905511811023622,
                    "duration": 0.2999999999999545
                },
                {
                    "name": "C7",
                    "midi": 96,
                    "time": 758.3999999999813,
                    "velocity": 0.5905511811023622,
                    "duration": 0.2999999999999545
                },
                {
                    "name": "C#6",
                    "midi": 85,
                    "time": 758.6999999999813,
                    "velocity": 0.5905511811023622,
                    "duration": 0.2999999999999545
                },
                {
                    "name": "E6",
                    "midi": 88,
                    "time": 758.9999999999812,
                    "velocity": 0.5905511811023622,
                    "duration": 0.2999999999999545
                },
                {
                    "name": "G6",
                    "midi": 91,
                    "time": 758.9999999999812,
                    "velocity": 0.5905511811023622,
                    "duration": 0.2999999999999545
                },
                {
                    "name": "A#6",
                    "midi": 94,
                    "time": 758.9999999999812,
                    "velocity": 0.5905511811023622,
                    "duration": 0.2999999999999545
                },
                {
                    "name": "C7",
                    "midi": 96,
                    "time": 758.9999999999812,
                    "velocity": 0.5905511811023622,
                    "duration": 0.2999999999999545
                },
                {
                    "name": "C#6",
                    "midi": 85,
                    "time": 759.2999999999812,
                    "velocity": 0.5905511811023622,
                    "duration": 0.2999999999999545
                },
                {
                    "name": "E6",
                    "midi": 88,
                    "time": 759.5999999999812,
                    "velocity": 0.5905511811023622,
                    "duration": 0.2999999999999545
                },
                {
                    "name": "G6",
                    "midi": 91,
                    "time": 759.5999999999812,
                    "velocity": 0.5905511811023622,
                    "duration": 0.2999999999999545
                },
                {
                    "name": "A#6",
                    "midi": 94,
                    "time": 759.5999999999812,
                    "velocity": 0.5905511811023622,
                    "duration": 0.2999999999999545
                },
                {
                    "name": "C7",
                    "midi": 96,
                    "time": 759.5999999999812,
                    "velocity": 0.5905511811023622,
                    "duration": 0.2999999999999545
                },
                {
                    "name": "C#6",
                    "midi": 85,
                    "time": 759.8999999999811,
                    "velocity": 0.5905511811023622,
                    "duration": 0.2999999999999545
                },
                {
                    "name": "G5",
                    "midi": 79,
                    "time": 760.1999999999811,
                    "velocity": 0.6929133858267716,
                    "duration": 0.2999999999999545
                },
                {
                    "name": "A#5",
                    "midi": 82,
                    "time": 760.1999999999811,
                    "velocity": 0.6929133858267716,
                    "duration": 0.2999999999999545
                },
                {
                    "name": "C#6",
                    "midi": 85,
                    "time": 760.1999999999811,
                    "velocity": 0.6929133858267716,
                    "duration": 0.2999999999999545
                },
                {
                    "name": "D#6",
                    "midi": 87,
                    "time": 760.1999999999811,
                    "velocity": 0.6929133858267716,
                    "duration": 0.2999999999999545
                },
                {
                    "name": "E5",
                    "midi": 76,
                    "time": 760.499999999981,
                    "velocity": 0.6929133858267716,
                    "duration": 0.2999999999999545
                },
                {
                    "name": "G5",
                    "midi": 79,
                    "time": 760.799999999981,
                    "velocity": 0.6929133858267716,
                    "duration": 0.2999999999999545
                },
                {
                    "name": "A#5",
                    "midi": 82,
                    "time": 760.799999999981,
                    "velocity": 0.6929133858267716,
                    "duration": 0.2999999999999545
                },
                {
                    "name": "C#6",
                    "midi": 85,
                    "time": 760.799999999981,
                    "velocity": 0.6929133858267716,
                    "duration": 0.2999999999999545
                },
                {
                    "name": "D#6",
                    "midi": 87,
                    "time": 760.799999999981,
                    "velocity": 0.6929133858267716,
                    "duration": 0.2999999999999545
                },
                {
                    "name": "E5",
                    "midi": 76,
                    "time": 761.0999999999809,
                    "velocity": 0.6929133858267716,
                    "duration": 0.2999999999999545
                },
                {
                    "name": "G5",
                    "midi": 79,
                    "time": 761.3999999999809,
                    "velocity": 0.6929133858267716,
                    "duration": 0.2999999999999545
                },
                {
                    "name": "A#5",
                    "midi": 82,
                    "time": 761.3999999999809,
                    "velocity": 0.6929133858267716,
                    "duration": 0.2999999999999545
                },
                {
                    "name": "C#6",
                    "midi": 85,
                    "time": 761.3999999999809,
                    "velocity": 0.6929133858267716,
                    "duration": 0.2999999999999545
                },
                {
                    "name": "D#6",
                    "midi": 87,
                    "time": 761.3999999999809,
                    "velocity": 0.6929133858267716,
                    "duration": 0.2999999999999545
                },
                {
                    "name": "E5",
                    "midi": 76,
                    "time": 761.6999999999808,
                    "velocity": 0.6929133858267716,
                    "duration": 0.2999999999999545
                },
                {
                    "name": "A#5",
                    "midi": 82,
                    "time": 761.9999999999808,
                    "velocity": 0.6929133858267716,
                    "duration": 0.2999999999999545
                },
                {
                    "name": "C#6",
                    "midi": 85,
                    "time": 761.9999999999808,
                    "velocity": 0.6929133858267716,
                    "duration": 0.2999999999999545
                },
                {
                    "name": "E6",
                    "midi": 88,
                    "time": 761.9999999999808,
                    "velocity": 0.6929133858267716,
                    "duration": 0.2999999999999545
                },
                {
                    "name": "F#6",
                    "midi": 90,
                    "time": 761.9999999999808,
                    "velocity": 0.6929133858267716,
                    "duration": 0.2999999999999545
                },
                {
                    "name": "G5",
                    "midi": 79,
                    "time": 762.2999999999807,
                    "velocity": 0.6929133858267716,
                    "duration": 0.2999999999999545
                },
                {
                    "name": "A#5",
                    "midi": 82,
                    "time": 762.5999999999807,
                    "velocity": 0.6929133858267716,
                    "duration": 0.2999999999999545
                },
                {
                    "name": "C#6",
                    "midi": 85,
                    "time": 762.5999999999807,
                    "velocity": 0.6929133858267716,
                    "duration": 0.2999999999999545
                },
                {
                    "name": "E6",
                    "midi": 88,
                    "time": 762.5999999999807,
                    "velocity": 0.6929133858267716,
                    "duration": 0.2999999999999545
                },
                {
                    "name": "F#6",
                    "midi": 90,
                    "time": 762.5999999999807,
                    "velocity": 0.6929133858267716,
                    "duration": 0.2999999999999545
                },
                {
                    "name": "G5",
                    "midi": 79,
                    "time": 762.8999999999807,
                    "velocity": 0.6929133858267716,
                    "duration": 0.2999999999999545
                },
                {
                    "name": "A#5",
                    "midi": 82,
                    "time": 763.1999999999806,
                    "velocity": 0.6929133858267716,
                    "duration": 0.2999999999999545
                },
                {
                    "name": "C#6",
                    "midi": 85,
                    "time": 763.1999999999806,
                    "velocity": 0.6929133858267716,
                    "duration": 0.2999999999999545
                },
                {
                    "name": "E6",
                    "midi": 88,
                    "time": 763.1999999999806,
                    "velocity": 0.6929133858267716,
                    "duration": 0.2999999999999545
                },
                {
                    "name": "F#6",
                    "midi": 90,
                    "time": 763.1999999999806,
                    "velocity": 0.6929133858267716,
                    "duration": 0.2999999999999545
                },
                {
                    "name": "G5",
                    "midi": 79,
                    "time": 763.4999999999806,
                    "velocity": 0.6929133858267716,
                    "duration": 0.2999999999999545
                },
                {
                    "name": "C#6",
                    "midi": 85,
                    "time": 763.7999999999805,
                    "velocity": 0.6929133858267716,
                    "duration": 0.2999999999999545
                },
                {
                    "name": "E6",
                    "midi": 88,
                    "time": 763.7999999999805,
                    "velocity": 0.6929133858267716,
                    "duration": 0.2999999999999545
                },
                {
                    "name": "G6",
                    "midi": 91,
                    "time": 763.7999999999805,
                    "velocity": 0.6929133858267716,
                    "duration": 0.2999999999999545
                },
                {
                    "name": "A6",
                    "midi": 93,
                    "time": 763.7999999999805,
                    "velocity": 0.6929133858267716,
                    "duration": 0.2999999999999545
                },
                {
                    "name": "A#5",
                    "midi": 82,
                    "time": 764.0999999999805,
                    "velocity": 0.6929133858267716,
                    "duration": 0.2999999999999545
                },
                {
                    "name": "C#6",
                    "midi": 85,
                    "time": 764.3999999999804,
                    "velocity": 0.6929133858267716,
                    "duration": 0.2999999999999545
                },
                {
                    "name": "E6",
                    "midi": 88,
                    "time": 764.3999999999804,
                    "velocity": 0.6929133858267716,
                    "duration": 0.2999999999999545
                },
                {
                    "name": "G6",
                    "midi": 91,
                    "time": 764.3999999999804,
                    "velocity": 0.6929133858267716,
                    "duration": 0.2999999999999545
                },
                {
                    "name": "A6",
                    "midi": 93,
                    "time": 764.3999999999804,
                    "velocity": 0.6929133858267716,
                    "duration": 0.2999999999999545
                },
                {
                    "name": "A#5",
                    "midi": 82,
                    "time": 764.6999999999804,
                    "velocity": 0.6929133858267716,
                    "duration": 0.2999999999999545
                },
                {
                    "name": "C#6",
                    "midi": 85,
                    "time": 764.9999999999803,
                    "velocity": 0.6929133858267716,
                    "duration": 0.2999999999999545
                },
                {
                    "name": "E6",
                    "midi": 88,
                    "time": 764.9999999999803,
                    "velocity": 0.6929133858267716,
                    "duration": 0.2999999999999545
                },
                {
                    "name": "G6",
                    "midi": 91,
                    "time": 764.9999999999803,
                    "velocity": 0.6929133858267716,
                    "duration": 0.2999999999999545
                },
                {
                    "name": "A6",
                    "midi": 93,
                    "time": 764.9999999999803,
                    "velocity": 0.6929133858267716,
                    "duration": 0.2999999999999545
                },
                {
                    "name": "A#5",
                    "midi": 82,
                    "time": 765.2999999999803,
                    "velocity": 0.6929133858267716,
                    "duration": 0.2999999999999545
                },
                {
                    "name": "E6",
                    "midi": 88,
                    "time": 765.5999999999802,
                    "velocity": 0.6929133858267716,
                    "duration": 0.2999999999999545
                },
                {
                    "name": "G6",
                    "midi": 91,
                    "time": 765.5999999999802,
                    "velocity": 0.6929133858267716,
                    "duration": 0.2999999999999545
                },
                {
                    "name": "A#6",
                    "midi": 94,
                    "time": 765.5999999999802,
                    "velocity": 0.6929133858267716,
                    "duration": 0.2999999999999545
                },
                {
                    "name": "C7",
                    "midi": 96,
                    "time": 765.5999999999802,
                    "velocity": 0.6929133858267716,
                    "duration": 0.2999999999999545
                },
                {
                    "name": "C#6",
                    "midi": 85,
                    "time": 765.8999999999802,
                    "velocity": 0.6929133858267716,
                    "duration": 0.2999999999999545
                },
                {
                    "name": "E6",
                    "midi": 88,
                    "time": 766.1999999999802,
                    "velocity": 0.6929133858267716,
                    "duration": 0.2999999999999545
                },
                {
                    "name": "G6",
                    "midi": 91,
                    "time": 766.1999999999802,
                    "velocity": 0.6929133858267716,
                    "duration": 0.2999999999999545
                },
                {
                    "name": "A#6",
                    "midi": 94,
                    "time": 766.1999999999802,
                    "velocity": 0.6929133858267716,
                    "duration": 0.2999999999999545
                },
                {
                    "name": "C7",
                    "midi": 96,
                    "time": 766.1999999999802,
                    "velocity": 0.6929133858267716,
                    "duration": 0.2999999999999545
                },
                {
                    "name": "C#6",
                    "midi": 85,
                    "time": 766.4999999999801,
                    "velocity": 0.6929133858267716,
                    "duration": 0.2999999999999545
                },
                {
                    "name": "E6",
                    "midi": 88,
                    "time": 766.7999999999801,
                    "velocity": 0.6929133858267716,
                    "duration": 0.2999999999999545
                },
                {
                    "name": "G6",
                    "midi": 91,
                    "time": 766.7999999999801,
                    "velocity": 0.6929133858267716,
                    "duration": 0.2999999999999545
                },
                {
                    "name": "A#6",
                    "midi": 94,
                    "time": 766.7999999999801,
                    "velocity": 0.6929133858267716,
                    "duration": 0.2999999999999545
                },
                {
                    "name": "C7",
                    "midi": 96,
                    "time": 766.7999999999801,
                    "velocity": 0.6929133858267716,
                    "duration": 0.2999999999999545
                },
                {
                    "name": "C#6",
                    "midi": 85,
                    "time": 767.09999999998,
                    "velocity": 0.6929133858267716,
                    "duration": 0.2999999999999545
                }
            ],
            "controlChanges": {
                "7": [
                    {
                        "number": 7,
                        "time": 0,
                        "value": 1
                    }
                ],
                "10": [
                    {
                        "number": 10,
                        "time": 0,
                        "value": 0.7637795275590551
                    }
                ],
                "64": [
                    {
                        "number": 64,
                        "time": 132.00000000000014,
                        "value": 1
                    },
                    {
                        "number": 64,
                        "time": 132.9975000000001,
                        "value": 0
                    },
                    {
                        "number": 64,
                        "time": 165.60000000000002,
                        "value": 1
                    },
                    {
                        "number": 64,
                        "time": 166.59749999999997,
                        "value": 0
                    },
                    {
                        "number": 64,
                        "time": 177.0974999999998,
                        "value": 1
                    },
                    {
                        "number": 64,
                        "time": 178.6799999999998,
                        "value": 0
                    },
                    {
                        "number": 64,
                        "time": 181.19999999999982,
                        "value": 1
                    },
                    {
                        "number": 64,
                        "time": 181.79999999999978,
                        "value": 0
                    },
                    {
                        "number": 64,
                        "time": 424.8000000000024,
                        "value": 1
                    },
                    {
                        "number": 64,
                        "time": 441.4499999999999,
                        "value": 0
                    },
                    {
                        "number": 64,
                        "time": 448.79999999999984,
                        "value": 1
                    },
                    {
                        "number": 64,
                        "time": 455.8499999999988,
                        "value": 0
                    },
                    {
                        "number": 64,
                        "time": 470.3999999999987,
                        "value": 1
                    },
                    {
                        "number": 64,
                        "time": 475.049999999998,
                        "value": 0
                    },
                    {
                        "number": 64,
                        "time": 496.799999999998,
                        "value": 0
                    },
                    {
                        "number": 64,
                        "time": 532.7999999999964,
                        "value": 1
                    },
                    {
                        "number": 64,
                        "time": 536.2499999999959,
                        "value": 0
                    },
                    {
                        "number": 64,
                        "time": 537.5999999999959,
                        "value": 1
                    },
                    {
                        "number": 64,
                        "time": 539.8499999999956,
                        "value": 0
                    }
                ]
            },
            "id": 2,
            "name": "Instrument17",
            "instrumentNumber": 0,
            "instrument": "acoustic grand piano",
            "instrumentFamily": "piano",
            "channelNumber": 1,
            "isPercussion": false
        },
        {
            "startTime": 7.199999999999999,
            "duration": 907.1999999999847,
            "length": 3413,
            "notes": [
                {
                    "name": "C#4",
                    "midi": 61,
                    "time": 7.199999999999999,
                    "velocity": 0.3858267716535433,
                    "duration": 1.5
                },
                {
                    "name": "D4",
                    "midi": 62,
                    "time": 8.7,
                    "velocity": 0.3858267716535433,
                    "duration": 1.1999999999999993
                },
                {
                    "name": "C#4",
                    "midi": 61,
                    "time": 12.45,
                    "velocity": 0.3858267716535433,
                    "duration": 1.1999999999999993
                },
                {
                    "name": "G#3",
                    "midi": 56,
                    "time": 14.399999999999999,
                    "velocity": 0.3858267716535433,
                    "duration": 1.8000000000000007
                },
                {
                    "name": "C#4",
                    "midi": 61,
                    "time": 14.399999999999999,
                    "velocity": 0.3858267716535433,
                    "duration": 1.8000000000000007
                },
                {
                    "name": "G3",
                    "midi": 55,
                    "time": 16.2,
                    "velocity": 0.3858267716535433,
                    "duration": 0.9974999999999987
                },
                {
                    "name": "C4",
                    "midi": 60,
                    "time": 16.2,
                    "velocity": 0.3858267716535433,
                    "duration": 0.9974999999999987
                },
                {
                    "name": "F#3",
                    "midi": 54,
                    "time": 17.197499999999998,
                    "velocity": 0.3858267716535433,
                    "duration": 0.8024999999999984
                },
                {
                    "name": "B3",
                    "midi": 59,
                    "time": 17.197499999999998,
                    "velocity": 0.3858267716535433,
                    "duration": 0.8024999999999984
                },
                {
                    "name": "F3",
                    "midi": 53,
                    "time": 17.999999999999996,
                    "velocity": 0.3858267716535433,
                    "duration": 1.5975000000000001
                },
                {
                    "name": "A#3",
                    "midi": 58,
                    "time": 17.999999999999996,
                    "velocity": 0.3858267716535433,
                    "duration": 1.5975000000000001
                },
                {
                    "name": "E3",
                    "midi": 52,
                    "time": 19.597499999999997,
                    "velocity": 0.3858267716535433,
                    "duration": 0.40249999999999986
                },
                {
                    "name": "A3",
                    "midi": 57,
                    "time": 19.597499999999997,
                    "velocity": 0.3858267716535433,
                    "duration": 0.40249999999999986
                },
                {
                    "name": "D#3",
                    "midi": 51,
                    "time": 19.999999999999996,
                    "velocity": 0.3858267716535433,
                    "duration": 0.3999999999999986
                },
                {
                    "name": "G#3",
                    "midi": 56,
                    "time": 19.999999999999996,
                    "velocity": 0.3858267716535433,
                    "duration": 0.3999999999999986
                },
                {
                    "name": "D3",
                    "midi": 50,
                    "time": 20.399999999999995,
                    "velocity": 0.3858267716535433,
                    "duration": 0.39750000000000085
                },
                {
                    "name": "G3",
                    "midi": 55,
                    "time": 20.399999999999995,
                    "velocity": 0.3858267716535433,
                    "duration": 0.39750000000000085
                },
                {
                    "name": "C#3",
                    "midi": 49,
                    "time": 20.797499999999996,
                    "velocity": 0.3858267716535433,
                    "duration": 0.40249999999999986
                },
                {
                    "name": "F#3",
                    "midi": 54,
                    "time": 20.797499999999996,
                    "velocity": 0.3858267716535433,
                    "duration": 0.40249999999999986
                },
                {
                    "name": "C3",
                    "midi": 48,
                    "time": 21.199999999999996,
                    "velocity": 0.3858267716535433,
                    "duration": 0.3999999999999986
                },
                {
                    "name": "F3",
                    "midi": 53,
                    "time": 21.199999999999996,
                    "velocity": 0.3858267716535433,
                    "duration": 0.3999999999999986
                },
                {
                    "name": "B2",
                    "midi": 47,
                    "time": 21.599999999999994,
                    "velocity": 0.3858267716535433,
                    "duration": 0.39750000000000085
                },
                {
                    "name": "E3",
                    "midi": 52,
                    "time": 21.599999999999994,
                    "velocity": 0.3858267716535433,
                    "duration": 0.39750000000000085
                },
                {
                    "name": "A#2",
                    "midi": 46,
                    "time": 21.997499999999995,
                    "velocity": 0.3858267716535433,
                    "duration": 0.40249999999999986
                },
                {
                    "name": "D#3",
                    "midi": 51,
                    "time": 21.997499999999995,
                    "velocity": 0.3858267716535433,
                    "duration": 0.40249999999999986
                },
                {
                    "name": "A2",
                    "midi": 45,
                    "time": 22.399999999999995,
                    "velocity": 0.3858267716535433,
                    "duration": 0.3999999999999986
                },
                {
                    "name": "D3",
                    "midi": 50,
                    "time": 22.399999999999995,
                    "velocity": 0.3858267716535433,
                    "duration": 0.3999999999999986
                },
                {
                    "name": "G#2",
                    "midi": 44,
                    "time": 22.799999999999994,
                    "velocity": 0.3858267716535433,
                    "duration": 1.1999999999999993
                },
                {
                    "name": "C#3",
                    "midi": 49,
                    "time": 22.799999999999994,
                    "velocity": 0.3858267716535433,
                    "duration": 1.1999999999999993
                },
                {
                    "name": "A2",
                    "midi": 45,
                    "time": 29.197499999999994,
                    "velocity": 0.3858267716535433,
                    "duration": 0.40249999999999986
                },
                {
                    "name": "D3",
                    "midi": 50,
                    "time": 29.197499999999994,
                    "velocity": 0.3858267716535433,
                    "duration": 0.40249999999999986
                },
                {
                    "name": "A#2",
                    "midi": 46,
                    "time": 29.599999999999994,
                    "velocity": 0.3858267716535433,
                    "duration": 1
                },
                {
                    "name": "D#3",
                    "midi": 51,
                    "time": 29.599999999999994,
                    "velocity": 0.3858267716535433,
                    "duration": 1
                },
                {
                    "name": "A2",
                    "midi": 45,
                    "time": 30.599999999999994,
                    "velocity": 0.3858267716535433,
                    "duration": 0.6000000000000014
                },
                {
                    "name": "D3",
                    "midi": 50,
                    "time": 30.599999999999994,
                    "velocity": 0.3858267716535433,
                    "duration": 0.6000000000000014
                },
                {
                    "name": "G#2",
                    "midi": 44,
                    "time": 31.199999999999996,
                    "velocity": 0.3858267716535433,
                    "duration": 2.3999999999999986
                },
                {
                    "name": "C#3",
                    "midi": 49,
                    "time": 31.199999999999996,
                    "velocity": 0.3858267716535433,
                    "duration": 2.3999999999999986
                },
                {
                    "name": "D#4",
                    "midi": 63,
                    "time": 43.199999999999996,
                    "velocity": 0.3858267716535433,
                    "duration": 0.7999999999999972
                },
                {
                    "name": "D4",
                    "midi": 62,
                    "time": 43.99999999999999,
                    "velocity": 0.3858267716535433,
                    "duration": 0.3999999999999986
                },
                {
                    "name": "C#4",
                    "midi": 61,
                    "time": 44.39999999999999,
                    "velocity": 0.3858267716535433,
                    "duration": 1.2000000000000028
                },
                {
                    "name": "C4",
                    "midi": 60,
                    "time": 46.05,
                    "velocity": 0.3858267716535433,
                    "duration": 1.2000000000000028
                },
                {
                    "name": "F#3",
                    "midi": 54,
                    "time": 48,
                    "velocity": 0.3858267716535433,
                    "duration": 1.5974999999999966
                },
                {
                    "name": "B3",
                    "midi": 59,
                    "time": 48,
                    "velocity": 0.3858267716535433,
                    "duration": 1.5974999999999966
                },
                {
                    "name": "F3",
                    "midi": 53,
                    "time": 49.5975,
                    "velocity": 0.3858267716535433,
                    "duration": 0.4025000000000034
                },
                {
                    "name": "A#3",
                    "midi": 58,
                    "time": 49.5975,
                    "velocity": 0.3858267716535433,
                    "duration": 0.4025000000000034
                },
                {
                    "name": "E3",
                    "midi": 52,
                    "time": 50,
                    "velocity": 0.3858267716535433,
                    "duration": 0.3999999999999986
                },
                {
                    "name": "A3",
                    "midi": 57,
                    "time": 50,
                    "velocity": 0.3858267716535433,
                    "duration": 0.3999999999999986
                },
                {
                    "name": "D#3",
                    "midi": 51,
                    "time": 50.4,
                    "velocity": 0.3858267716535433,
                    "duration": 0.39750000000000085
                },
                {
                    "name": "G#3",
                    "midi": 56,
                    "time": 50.4,
                    "velocity": 0.3858267716535433,
                    "duration": 0.39750000000000085
                },
                {
                    "name": "E3",
                    "midi": 52,
                    "time": 50.7975,
                    "velocity": 0.3858267716535433,
                    "duration": 0.4025000000000034
                },
                {
                    "name": "A3",
                    "midi": 57,
                    "time": 50.7975,
                    "velocity": 0.3858267716535433,
                    "duration": 0.4025000000000034
                },
                {
                    "name": "F3",
                    "midi": 53,
                    "time": 51.2,
                    "velocity": 0.3858267716535433,
                    "duration": 0.3999999999999986
                },
                {
                    "name": "A#3",
                    "midi": 58,
                    "time": 51.2,
                    "velocity": 0.3858267716535433,
                    "duration": 0.3999999999999986
                },
                {
                    "name": "F#3",
                    "midi": 54,
                    "time": 51.6,
                    "velocity": 0.3858267716535433,
                    "duration": 0.39750000000000085
                },
                {
                    "name": "C4",
                    "midi": 60,
                    "time": 51.6,
                    "velocity": 0.3858267716535433,
                    "duration": 0.39750000000000085
                },
                {
                    "name": "F3",
                    "midi": 53,
                    "time": 51.9975,
                    "velocity": 0.3858267716535433,
                    "duration": 0.4025000000000034
                },
                {
                    "name": "B3",
                    "midi": 59,
                    "time": 51.9975,
                    "velocity": 0.3858267716535433,
                    "duration": 0.4025000000000034
                },
                {
                    "name": "E3",
                    "midi": 52,
                    "time": 52.400000000000006,
                    "velocity": 0.3858267716535433,
                    "duration": 0.3999999999999986
                },
                {
                    "name": "A3",
                    "midi": 57,
                    "time": 52.400000000000006,
                    "velocity": 0.3858267716535433,
                    "duration": 0.3999999999999986
                },
                {
                    "name": "D#3",
                    "midi": 51,
                    "time": 52.800000000000004,
                    "velocity": 0.3858267716535433,
                    "duration": 0.39750000000000085
                },
                {
                    "name": "G#3",
                    "midi": 56,
                    "time": 52.800000000000004,
                    "velocity": 0.3858267716535433,
                    "duration": 0.39750000000000085
                },
                {
                    "name": "E3",
                    "midi": 52,
                    "time": 53.197500000000005,
                    "velocity": 0.3858267716535433,
                    "duration": 0.4025000000000034
                },
                {
                    "name": "A3",
                    "midi": 57,
                    "time": 53.197500000000005,
                    "velocity": 0.3858267716535433,
                    "duration": 0.4025000000000034
                },
                {
                    "name": "F3",
                    "midi": 53,
                    "time": 53.60000000000001,
                    "velocity": 0.3858267716535433,
                    "duration": 0.3999999999999986
                },
                {
                    "name": "A#3",
                    "midi": 58,
                    "time": 53.60000000000001,
                    "velocity": 0.3858267716535433,
                    "duration": 0.3999999999999986
                },
                {
                    "name": "E3",
                    "midi": 52,
                    "time": 54.00000000000001,
                    "velocity": 0.3858267716535433,
                    "duration": 0.39750000000000085
                },
                {
                    "name": "A3",
                    "midi": 57,
                    "time": 54.00000000000001,
                    "velocity": 0.3858267716535433,
                    "duration": 0.39750000000000085
                },
                {
                    "name": "D#3",
                    "midi": 51,
                    "time": 54.39750000000001,
                    "velocity": 0.3858267716535433,
                    "duration": 0.4025000000000034
                },
                {
                    "name": "G#3",
                    "midi": 56,
                    "time": 54.39750000000001,
                    "velocity": 0.3858267716535433,
                    "duration": 0.4025000000000034
                },
                {
                    "name": "D3",
                    "midi": 50,
                    "time": 54.80000000000001,
                    "velocity": 0.3858267716535433,
                    "duration": 0.3999999999999986
                },
                {
                    "name": "G3",
                    "midi": 55,
                    "time": 54.80000000000001,
                    "velocity": 0.3858267716535433,
                    "duration": 0.3999999999999986
                },
                {
                    "name": "C#3",
                    "midi": 49,
                    "time": 55.20000000000001,
                    "velocity": 0.3858267716535433,
                    "duration": 0.39750000000000085
                },
                {
                    "name": "F#3",
                    "midi": 54,
                    "time": 55.20000000000001,
                    "velocity": 0.3858267716535433,
                    "duration": 0.39750000000000085
                },
                {
                    "name": "D3",
                    "midi": 50,
                    "time": 55.59750000000001,
                    "velocity": 0.3858267716535433,
                    "duration": 0.4025000000000034
                },
                {
                    "name": "G3",
                    "midi": 55,
                    "time": 55.59750000000001,
                    "velocity": 0.3858267716535433,
                    "duration": 0.4025000000000034
                },
                {
                    "name": "D#3",
                    "midi": 51,
                    "time": 56.000000000000014,
                    "velocity": 0.3858267716535433,
                    "duration": 0.3999999999999986
                },
                {
                    "name": "G#3",
                    "midi": 56,
                    "time": 56.000000000000014,
                    "velocity": 0.3858267716535433,
                    "duration": 0.3999999999999986
                },
                {
                    "name": "E3",
                    "midi": 52,
                    "time": 56.40000000000001,
                    "velocity": 0.3858267716535433,
                    "duration": 0.39750000000000085
                },
                {
                    "name": "A3",
                    "midi": 57,
                    "time": 56.40000000000001,
                    "velocity": 0.3858267716535433,
                    "duration": 0.39750000000000085
                },
                {
                    "name": "D#3",
                    "midi": 51,
                    "time": 56.797500000000014,
                    "velocity": 0.3858267716535433,
                    "duration": 0.4025000000000034
                },
                {
                    "name": "G#3",
                    "midi": 56,
                    "time": 56.797500000000014,
                    "velocity": 0.3858267716535433,
                    "duration": 0.4025000000000034
                },
                {
                    "name": "D3",
                    "midi": 50,
                    "time": 57.20000000000002,
                    "velocity": 0.3858267716535433,
                    "duration": 0.3999999999999986
                },
                {
                    "name": "G3",
                    "midi": 55,
                    "time": 57.20000000000002,
                    "velocity": 0.3858267716535433,
                    "duration": 0.3999999999999986
                },
                {
                    "name": "C#3",
                    "midi": 49,
                    "time": 57.600000000000016,
                    "velocity": 0.3858267716535433,
                    "duration": 0.39750000000000085
                },
                {
                    "name": "F#3",
                    "midi": 54,
                    "time": 57.600000000000016,
                    "velocity": 0.3858267716535433,
                    "duration": 0.39750000000000085
                },
                {
                    "name": "D3",
                    "midi": 50,
                    "time": 57.99750000000002,
                    "velocity": 0.3858267716535433,
                    "duration": 0.4025000000000034
                },
                {
                    "name": "G3",
                    "midi": 55,
                    "time": 57.99750000000002,
                    "velocity": 0.3858267716535433,
                    "duration": 0.4025000000000034
                },
                {
                    "name": "D#3",
                    "midi": 51,
                    "time": 58.40000000000002,
                    "velocity": 0.3858267716535433,
                    "duration": 0.3999999999999986
                },
                {
                    "name": "G#3",
                    "midi": 56,
                    "time": 58.40000000000002,
                    "velocity": 0.3858267716535433,
                    "duration": 0.3999999999999986
                },
                {
                    "name": "E3",
                    "midi": 52,
                    "time": 58.80000000000002,
                    "velocity": 0.3858267716535433,
                    "duration": 0.39750000000000085
                },
                {
                    "name": "A3",
                    "midi": 57,
                    "time": 58.80000000000002,
                    "velocity": 0.3858267716535433,
                    "duration": 0.39750000000000085
                },
                {
                    "name": "D#3",
                    "midi": 51,
                    "time": 59.19750000000002,
                    "velocity": 0.3858267716535433,
                    "duration": 0.4025000000000034
                },
                {
                    "name": "G#3",
                    "midi": 56,
                    "time": 59.19750000000002,
                    "velocity": 0.3858267716535433,
                    "duration": 0.4025000000000034
                },
                {
                    "name": "D3",
                    "midi": 50,
                    "time": 59.60000000000002,
                    "velocity": 0.3858267716535433,
                    "duration": 0.3999999999999986
                },
                {
                    "name": "G3",
                    "midi": 55,
                    "time": 59.60000000000002,
                    "velocity": 0.3858267716535433,
                    "duration": 0.3999999999999986
                },
                {
                    "name": "C#3",
                    "midi": 49,
                    "time": 60.00000000000002,
                    "velocity": 0.3858267716535433,
                    "duration": 0.39750000000000085
                },
                {
                    "name": "F#3",
                    "midi": 54,
                    "time": 60.00000000000002,
                    "velocity": 0.3858267716535433,
                    "duration": 0.39750000000000085
                },
                {
                    "name": "D3",
                    "midi": 50,
                    "time": 60.39750000000002,
                    "velocity": 0.3858267716535433,
                    "duration": 0.4025000000000034
                },
                {
                    "name": "G3",
                    "midi": 55,
                    "time": 60.39750000000002,
                    "velocity": 0.3858267716535433,
                    "duration": 0.4025000000000034
                },
                {
                    "name": "D#3",
                    "midi": 51,
                    "time": 60.800000000000026,
                    "velocity": 0.3858267716535433,
                    "duration": 0.3999999999999986
                },
                {
                    "name": "G#3",
                    "midi": 56,
                    "time": 60.800000000000026,
                    "velocity": 0.3858267716535433,
                    "duration": 0.3999999999999986
                },
                {
                    "name": "E3",
                    "midi": 52,
                    "time": 61.200000000000024,
                    "velocity": 0.3858267716535433,
                    "duration": 0.39750000000000085
                },
                {
                    "name": "A3",
                    "midi": 57,
                    "time": 61.200000000000024,
                    "velocity": 0.3858267716535433,
                    "duration": 0.39750000000000085
                },
                {
                    "name": "D#3",
                    "midi": 51,
                    "time": 61.597500000000025,
                    "velocity": 0.3858267716535433,
                    "duration": 0.4025000000000034
                },
                {
                    "name": "G#3",
                    "midi": 56,
                    "time": 61.597500000000025,
                    "velocity": 0.3858267716535433,
                    "duration": 0.4025000000000034
                },
                {
                    "name": "D3",
                    "midi": 50,
                    "time": 62.00000000000003,
                    "velocity": 0.3858267716535433,
                    "duration": 0.3999999999999986
                },
                {
                    "name": "G3",
                    "midi": 55,
                    "time": 62.00000000000003,
                    "velocity": 0.3858267716535433,
                    "duration": 0.3999999999999986
                },
                {
                    "name": "C#3",
                    "midi": 49,
                    "time": 62.40000000000003,
                    "velocity": 0.3858267716535433,
                    "duration": 0.39750000000000085
                },
                {
                    "name": "F#3",
                    "midi": 54,
                    "time": 62.40000000000003,
                    "velocity": 0.3858267716535433,
                    "duration": 0.39750000000000085
                },
                {
                    "name": "D#3",
                    "midi": 51,
                    "time": 62.79750000000003,
                    "velocity": 0.3858267716535433,
                    "duration": 0.4025000000000034
                },
                {
                    "name": "G#3",
                    "midi": 56,
                    "time": 62.79750000000003,
                    "velocity": 0.3858267716535433,
                    "duration": 0.4025000000000034
                },
                {
                    "name": "D3",
                    "midi": 50,
                    "time": 63.20000000000003,
                    "velocity": 0.3858267716535433,
                    "duration": 0.4000000000000057
                },
                {
                    "name": "G3",
                    "midi": 55,
                    "time": 63.20000000000003,
                    "velocity": 0.3858267716535433,
                    "duration": 0.4000000000000057
                },
                {
                    "name": "B2",
                    "midi": 47,
                    "time": 63.400000000000034,
                    "velocity": 0.3858267716535433,
                    "duration": 1.4000000000000057
                },
                {
                    "name": "E3",
                    "midi": 52,
                    "time": 63.500000000000036,
                    "velocity": 0.3858267716535433,
                    "duration": 1.3000000000000043
                },
                {
                    "name": "G#3",
                    "midi": 56,
                    "time": 63.60000000000004,
                    "velocity": 0.3858267716535433,
                    "duration": 1.2000000000000028
                },
                {
                    "name": "G#4",
                    "midi": 68,
                    "time": 64.80000000000004,
                    "velocity": 0.28346456692913385,
                    "duration": 0.15000000000000568
                },
                {
                    "name": "A#4",
                    "midi": 70,
                    "time": 64.95000000000005,
                    "velocity": 0.28346456692913385,
                    "duration": 0.15000000000000568
                },
                {
                    "name": "G#4",
                    "midi": 68,
                    "time": 65.10000000000005,
                    "velocity": 0.28346456692913385,
                    "duration": 0.15000000000000568
                },
                {
                    "name": "A#4",
                    "midi": 70,
                    "time": 65.25000000000006,
                    "velocity": 0.28346456692913385,
                    "duration": 0.15000000000000568
                },
                {
                    "name": "G#4",
                    "midi": 68,
                    "time": 65.40000000000006,
                    "velocity": 0.28346456692913385,
                    "duration": 0.15000000000000568
                },
                {
                    "name": "A#4",
                    "midi": 70,
                    "time": 65.55000000000007,
                    "velocity": 0.28346456692913385,
                    "duration": 0.15000000000000568
                },
                {
                    "name": "G#4",
                    "midi": 68,
                    "time": 65.70000000000007,
                    "velocity": 0.28346456692913385,
                    "duration": 0.15000000000000568
                },
                {
                    "name": "A#4",
                    "midi": 70,
                    "time": 65.85000000000008,
                    "velocity": 0.28346456692913385,
                    "duration": 0.15000000000000568
                },
                {
                    "name": "G#4",
                    "midi": 68,
                    "time": 66.00000000000009,
                    "velocity": 0.28346456692913385,
                    "duration": 0.15000000000000568
                },
                {
                    "name": "A#4",
                    "midi": 70,
                    "time": 66.15000000000009,
                    "velocity": 0.28346456692913385,
                    "duration": 0.15000000000000568
                },
                {
                    "name": "G#4",
                    "midi": 68,
                    "time": 66.3000000000001,
                    "velocity": 0.28346456692913385,
                    "duration": 0.15000000000000568
                },
                {
                    "name": "A#4",
                    "midi": 70,
                    "time": 66.4500000000001,
                    "velocity": 0.28346456692913385,
                    "duration": 0.15000000000000568
                },
                {
                    "name": "G#4",
                    "midi": 68,
                    "time": 66.60000000000011,
                    "velocity": 0.28346456692913385,
                    "duration": 0.15000000000000568
                },
                {
                    "name": "A#4",
                    "midi": 70,
                    "time": 66.75000000000011,
                    "velocity": 0.28346456692913385,
                    "duration": 0.15000000000000568
                },
                {
                    "name": "G#4",
                    "midi": 68,
                    "time": 66.90000000000012,
                    "velocity": 0.28346456692913385,
                    "duration": 0.15000000000000568
                },
                {
                    "name": "A#4",
                    "midi": 70,
                    "time": 67.05000000000013,
                    "velocity": 0.28346456692913385,
                    "duration": 0.15000000000000568
                },
                {
                    "name": "G#3",
                    "midi": 56,
                    "time": 67.20000000000013,
                    "velocity": 0.28346456692913385,
                    "duration": 0.15000000000000568
                },
                {
                    "name": "A#3",
                    "midi": 58,
                    "time": 67.35000000000014,
                    "velocity": 0.28346456692913385,
                    "duration": 0.15000000000000568
                },
                {
                    "name": "G#3",
                    "midi": 56,
                    "time": 67.50000000000014,
                    "velocity": 0.28346456692913385,
                    "duration": 0.15000000000000568
                },
                {
                    "name": "A#3",
                    "midi": 58,
                    "time": 67.65000000000015,
                    "velocity": 0.28346456692913385,
                    "duration": 0.15000000000000568
                },
                {
                    "name": "G#3",
                    "midi": 56,
                    "time": 67.80000000000015,
                    "velocity": 0.28346456692913385,
                    "duration": 0.15000000000000568
                },
                {
                    "name": "A#3",
                    "midi": 58,
                    "time": 67.95000000000016,
                    "velocity": 0.28346456692913385,
                    "duration": 0.15000000000000568
                },
                {
                    "name": "G#3",
                    "midi": 56,
                    "time": 68.10000000000016,
                    "velocity": 0.28346456692913385,
                    "duration": 0.15000000000000568
                },
                {
                    "name": "A#3",
                    "midi": 58,
                    "time": 68.25000000000017,
                    "velocity": 0.28346456692913385,
                    "duration": 0.15000000000000568
                },
                {
                    "name": "G#4",
                    "midi": 68,
                    "time": 68.40000000000018,
                    "velocity": 0.28346456692913385,
                    "duration": 0.15000000000000568
                },
                {
                    "name": "A#4",
                    "midi": 70,
                    "time": 68.55000000000018,
                    "velocity": 0.28346456692913385,
                    "duration": 0.15000000000000568
                },
                {
                    "name": "G#4",
                    "midi": 68,
                    "time": 68.70000000000019,
                    "velocity": 0.28346456692913385,
                    "duration": 0.15000000000000568
                },
                {
                    "name": "A#4",
                    "midi": 70,
                    "time": 68.8500000000002,
                    "velocity": 0.28346456692913385,
                    "duration": 0.15000000000000568
                },
                {
                    "name": "G#4",
                    "midi": 68,
                    "time": 69.0000000000002,
                    "velocity": 0.28346456692913385,
                    "duration": 0.15000000000000568
                },
                {
                    "name": "A#4",
                    "midi": 70,
                    "time": 69.1500000000002,
                    "velocity": 0.28346456692913385,
                    "duration": 0.15000000000000568
                },
                {
                    "name": "G#4",
                    "midi": 68,
                    "time": 69.30000000000021,
                    "velocity": 0.28346456692913385,
                    "duration": 0.15000000000000568
                },
                {
                    "name": "A#4",
                    "midi": 70,
                    "time": 69.45000000000022,
                    "velocity": 0.28346456692913385,
                    "duration": 0.15000000000000568
                },
                {
                    "name": "G#3",
                    "midi": 56,
                    "time": 69.90000000000022,
                    "velocity": 0.4881889763779528,
                    "duration": 0.05750000000000455
                },
                {
                    "name": "D#4",
                    "midi": 63,
                    "time": 70.20000000000023,
                    "velocity": 0.4881889763779528,
                    "duration": 0.05750000000000455
                },
                {
                    "name": "A#4",
                    "midi": 70,
                    "time": 70.50000000000024,
                    "velocity": 0.4881889763779528,
                    "duration": 0.05750000000000455
                },
                {
                    "name": "D#5",
                    "midi": 75,
                    "time": 70.80000000000025,
                    "velocity": 0.4881889763779528,
                    "duration": 0.39749999999999375
                },
                {
                    "name": "D#5",
                    "midi": 75,
                    "time": 71.19750000000025,
                    "velocity": 0.4881889763779528,
                    "duration": 0.20250000000000057
                },
                {
                    "name": "D#5",
                    "midi": 75,
                    "time": 71.40000000000025,
                    "velocity": 0.4881889763779528,
                    "duration": 0.20000000000000284
                },
                {
                    "name": "D#5",
                    "midi": 75,
                    "time": 71.60000000000025,
                    "velocity": 0.4881889763779528,
                    "duration": 0.19750000000000512
                },
                {
                    "name": "D#5",
                    "midi": 75,
                    "time": 71.79750000000026,
                    "velocity": 0.4881889763779528,
                    "duration": 0.20250000000000057
                },
                {
                    "name": "D#5",
                    "midi": 75,
                    "time": 72.00000000000026,
                    "velocity": 0.4881889763779528,
                    "duration": 1.2000000000000028
                },
                {
                    "name": "G#3",
                    "midi": 56,
                    "time": 73.50000000000026,
                    "velocity": 0.4881889763779528,
                    "duration": 0.05750000000000455
                },
                {
                    "name": "D#4",
                    "midi": 63,
                    "time": 73.80000000000027,
                    "velocity": 0.4881889763779528,
                    "duration": 0.05750000000000455
                },
                {
                    "name": "A#4",
                    "midi": 70,
                    "time": 74.10000000000028,
                    "velocity": 0.4881889763779528,
                    "duration": 0.05750000000000455
                },
                {
                    "name": "G#4",
                    "midi": 68,
                    "time": 74.40000000000029,
                    "velocity": 0.28346456692913385,
                    "duration": 0.15000000000000568
                },
                {
                    "name": "A#4",
                    "midi": 70,
                    "time": 74.5500000000003,
                    "velocity": 0.28346456692913385,
                    "duration": 0.15000000000000568
                },
                {
                    "name": "G#4",
                    "midi": 68,
                    "time": 74.7000000000003,
                    "velocity": 0.28346456692913385,
                    "duration": 0.15000000000000568
                },
                {
                    "name": "A#4",
                    "midi": 70,
                    "time": 74.8500000000003,
                    "velocity": 0.28346456692913385,
                    "duration": 0.15000000000000568
                },
                {
                    "name": "G#4",
                    "midi": 68,
                    "time": 75.00000000000031,
                    "velocity": 0.28346456692913385,
                    "duration": 0.15000000000000568
                },
                {
                    "name": "A#4",
                    "midi": 70,
                    "time": 75.15000000000032,
                    "velocity": 0.28346456692913385,
                    "duration": 0.15000000000000568
                },
                {
                    "name": "G#4",
                    "midi": 68,
                    "time": 75.30000000000032,
                    "velocity": 0.28346456692913385,
                    "duration": 0.15000000000000568
                },
                {
                    "name": "A#4",
                    "midi": 70,
                    "time": 75.45000000000033,
                    "velocity": 0.28346456692913385,
                    "duration": 0.15000000000000568
                },
                {
                    "name": "G#3",
                    "midi": 56,
                    "time": 75.60000000000034,
                    "velocity": 0.28346456692913385,
                    "duration": 0.15000000000000568
                },
                {
                    "name": "A#3",
                    "midi": 58,
                    "time": 75.75000000000034,
                    "velocity": 0.28346456692913385,
                    "duration": 0.15000000000000568
                },
                {
                    "name": "G#3",
                    "midi": 56,
                    "time": 75.90000000000035,
                    "velocity": 0.28346456692913385,
                    "duration": 0.15000000000000568
                },
                {
                    "name": "A#3",
                    "midi": 58,
                    "time": 76.05000000000035,
                    "velocity": 0.28346456692913385,
                    "duration": 0.15000000000000568
                },
                {
                    "name": "G#3",
                    "midi": 56,
                    "time": 76.20000000000036,
                    "velocity": 0.28346456692913385,
                    "duration": 0.15000000000000568
                },
                {
                    "name": "A#3",
                    "midi": 58,
                    "time": 76.35000000000036,
                    "velocity": 0.28346456692913385,
                    "duration": 0.15000000000000568
                },
                {
                    "name": "G#3",
                    "midi": 56,
                    "time": 76.50000000000037,
                    "velocity": 0.28346456692913385,
                    "duration": 0.15000000000000568
                },
                {
                    "name": "A#3",
                    "midi": 58,
                    "time": 76.65000000000038,
                    "velocity": 0.28346456692913385,
                    "duration": 0.15000000000000568
                },
                {
                    "name": "G#4",
                    "midi": 68,
                    "time": 76.80000000000038,
                    "velocity": 0.28346456692913385,
                    "duration": 0.15000000000000568
                },
                {
                    "name": "A#4",
                    "midi": 70,
                    "time": 76.95000000000039,
                    "velocity": 0.28346456692913385,
                    "duration": 0.15000000000000568
                },
                {
                    "name": "G#4",
                    "midi": 68,
                    "time": 77.10000000000039,
                    "velocity": 0.28346456692913385,
                    "duration": 0.15000000000000568
                },
                {
                    "name": "A#4",
                    "midi": 70,
                    "time": 77.2500000000004,
                    "velocity": 0.28346456692913385,
                    "duration": 0.15000000000000568
                },
                {
                    "name": "G#4",
                    "midi": 68,
                    "time": 77.4000000000004,
                    "velocity": 0.28346456692913385,
                    "duration": 0.15000000000000568
                },
                {
                    "name": "A#4",
                    "midi": 70,
                    "time": 77.55000000000041,
                    "velocity": 0.28346456692913385,
                    "duration": 0.15000000000000568
                },
                {
                    "name": "G4",
                    "midi": 67,
                    "time": 77.70000000000041,
                    "velocity": 0.28346456692913385,
                    "duration": 0.15000000000000568
                },
                {
                    "name": "G#4",
                    "midi": 68,
                    "time": 77.85000000000042,
                    "velocity": 0.28346456692913385,
                    "duration": 0.15000000000000568
                },
                {
                    "name": "C#4",
                    "midi": 61,
                    "time": 78.60000000000042,
                    "velocity": 0.28346456692913385,
                    "duration": 0.15000000000000568
                },
                {
                    "name": "D#4",
                    "midi": 63,
                    "time": 78.75000000000043,
                    "velocity": 0.28346456692913385,
                    "duration": 0.15000000000000568
                },
                {
                    "name": "C#4",
                    "midi": 61,
                    "time": 78.90000000000043,
                    "velocity": 0.28346456692913385,
                    "duration": 0.15000000000000568
                },
                {
                    "name": "D#4",
                    "midi": 63,
                    "time": 79.05000000000044,
                    "velocity": 0.28346456692913385,
                    "duration": 0.15000000000000568
                },
                {
                    "name": "C#4",
                    "midi": 61,
                    "time": 79.20000000000044,
                    "velocity": 0.28346456692913385,
                    "duration": 0.15000000000000568
                },
                {
                    "name": "D#4",
                    "midi": 63,
                    "time": 79.35000000000045,
                    "velocity": 0.28346456692913385,
                    "duration": 0.15000000000000568
                },
                {
                    "name": "C#4",
                    "midi": 61,
                    "time": 79.50000000000045,
                    "velocity": 0.28346456692913385,
                    "duration": 0.15000000000000568
                },
                {
                    "name": "D#4",
                    "midi": 63,
                    "time": 79.65000000000046,
                    "velocity": 0.28346456692913385,
                    "duration": 0.15000000000000568
                },
                {
                    "name": "C#4",
                    "midi": 61,
                    "time": 79.80000000000047,
                    "velocity": 0.28346456692913385,
                    "duration": 0.15000000000000568
                },
                {
                    "name": "D#4",
                    "midi": 63,
                    "time": 79.95000000000047,
                    "velocity": 0.28346456692913385,
                    "duration": 0.15000000000000568
                },
                {
                    "name": "C#4",
                    "midi": 61,
                    "time": 80.10000000000048,
                    "velocity": 0.28346456692913385,
                    "duration": 0.15000000000000568
                },
                {
                    "name": "D#4",
                    "midi": 63,
                    "time": 80.25000000000048,
                    "velocity": 0.28346456692913385,
                    "duration": 0.15000000000000568
                },
                {
                    "name": "C#4",
                    "midi": 61,
                    "time": 80.40000000000049,
                    "velocity": 0.28346456692913385,
                    "duration": 0.15000000000000568
                },
                {
                    "name": "D#4",
                    "midi": 63,
                    "time": 80.5500000000005,
                    "velocity": 0.28346456692913385,
                    "duration": 0.15000000000000568
                },
                {
                    "name": "C#4",
                    "midi": 61,
                    "time": 80.7000000000005,
                    "velocity": 0.28346456692913385,
                    "duration": 0.15000000000000568
                },
                {
                    "name": "D#4",
                    "midi": 63,
                    "time": 80.8500000000005,
                    "velocity": 0.28346456692913385,
                    "duration": 0.15000000000000568
                },
                {
                    "name": "C#4",
                    "midi": 61,
                    "time": 81.00000000000051,
                    "velocity": 0.28346456692913385,
                    "duration": 0.15000000000000568
                },
                {
                    "name": "D#4",
                    "midi": 63,
                    "time": 81.15000000000052,
                    "velocity": 0.28346456692913385,
                    "duration": 0.15000000000000568
                },
                {
                    "name": "C#4",
                    "midi": 61,
                    "time": 81.30000000000052,
                    "velocity": 0.28346456692913385,
                    "duration": 0.15000000000000568
                },
                {
                    "name": "D#4",
                    "midi": 63,
                    "time": 81.45000000000053,
                    "velocity": 0.28346456692913385,
                    "duration": 0.15000000000000568
                },
                {
                    "name": "C#4",
                    "midi": 61,
                    "time": 81.60000000000053,
                    "velocity": 0.28346456692913385,
                    "duration": 0.15000000000000568
                },
                {
                    "name": "D#4",
                    "midi": 63,
                    "time": 81.75000000000054,
                    "velocity": 0.28346456692913385,
                    "duration": 0.15000000000000568
                },
                {
                    "name": "C#4",
                    "midi": 61,
                    "time": 81.90000000000055,
                    "velocity": 0.28346456692913385,
                    "duration": 0.15000000000000568
                },
                {
                    "name": "D#4",
                    "midi": 63,
                    "time": 82.05000000000055,
                    "velocity": 0.28346456692913385,
                    "duration": 0.15000000000000568
                },
                {
                    "name": "C#4",
                    "midi": 61,
                    "time": 82.20000000000056,
                    "velocity": 0.28346456692913385,
                    "duration": 0.15000000000000568
                },
                {
                    "name": "D#4",
                    "midi": 63,
                    "time": 82.35000000000056,
                    "velocity": 0.28346456692913385,
                    "duration": 0.15000000000000568
                },
                {
                    "name": "C#4",
                    "midi": 61,
                    "time": 82.50000000000057,
                    "velocity": 0.28346456692913385,
                    "duration": 0.15000000000000568
                },
                {
                    "name": "D#4",
                    "midi": 63,
                    "time": 82.65000000000057,
                    "velocity": 0.28346456692913385,
                    "duration": 0.15000000000000568
                },
                {
                    "name": "C#4",
                    "midi": 61,
                    "time": 82.80000000000058,
                    "velocity": 0.28346456692913385,
                    "duration": 0.15000000000000568
                },
                {
                    "name": "D#4",
                    "midi": 63,
                    "time": 82.95000000000059,
                    "velocity": 0.28346456692913385,
                    "duration": 0.15000000000000568
                },
                {
                    "name": "C#4",
                    "midi": 61,
                    "time": 83.10000000000059,
                    "velocity": 0.28346456692913385,
                    "duration": 0.15000000000000568
                },
                {
                    "name": "D#4",
                    "midi": 63,
                    "time": 83.2500000000006,
                    "velocity": 0.28346456692913385,
                    "duration": 0.15000000000000568
                },
                {
                    "name": "C#4",
                    "midi": 61,
                    "time": 83.4000000000006,
                    "velocity": 0.28346456692913385,
                    "duration": 0.15000000000000568
                },
                {
                    "name": "D#4",
                    "midi": 63,
                    "time": 83.55000000000061,
                    "velocity": 0.28346456692913385,
                    "duration": 0.15000000000000568
                },
                {
                    "name": "C#4",
                    "midi": 61,
                    "time": 83.70000000000061,
                    "velocity": 0.28346456692913385,
                    "duration": 0.15000000000000568
                },
                {
                    "name": "D#4",
                    "midi": 63,
                    "time": 83.85000000000062,
                    "velocity": 0.28346456692913385,
                    "duration": 0.15000000000000568
                },
                {
                    "name": "C#4",
                    "midi": 61,
                    "time": 84.00000000000063,
                    "velocity": 0.28346456692913385,
                    "duration": 0.15000000000000568
                },
                {
                    "name": "D#4",
                    "midi": 63,
                    "time": 84.15000000000063,
                    "velocity": 0.28346456692913385,
                    "duration": 0.15000000000000568
                },
                {
                    "name": "C#4",
                    "midi": 61,
                    "time": 84.30000000000064,
                    "velocity": 0.28346456692913385,
                    "duration": 0.15000000000000568
                },
                {
                    "name": "D#4",
                    "midi": 63,
                    "time": 84.45000000000064,
                    "velocity": 0.28346456692913385,
                    "duration": 0.15000000000000568
                },
                {
                    "name": "C#4",
                    "midi": 61,
                    "time": 84.60000000000065,
                    "velocity": 0.28346456692913385,
                    "duration": 0.15000000000000568
                },
                {
                    "name": "D#4",
                    "midi": 63,
                    "time": 84.75000000000065,
                    "velocity": 0.28346456692913385,
                    "duration": 0.15000000000000568
                },
                {
                    "name": "C#4",
                    "midi": 61,
                    "time": 84.90000000000066,
                    "velocity": 0.28346456692913385,
                    "duration": 0.15000000000000568
                },
                {
                    "name": "D#4",
                    "midi": 63,
                    "time": 85.05000000000067,
                    "velocity": 0.28346456692913385,
                    "duration": 0.15000000000000568
                },
                {
                    "name": "D4",
                    "midi": 62,
                    "time": 85.20000000000067,
                    "velocity": 0.5905511811023622,
                    "duration": 0.39749999999999375
                },
                {
                    "name": "E4",
                    "midi": 64,
                    "time": 85.59750000000066,
                    "velocity": 0.5905511811023622,
                    "duration": 0.4025000000000034
                },
                {
                    "name": "G4",
                    "midi": 67,
                    "time": 86.00000000000067,
                    "velocity": 0.5905511811023622,
                    "duration": 0.4000000000000057
                },
                {
                    "name": "F4",
                    "midi": 65,
                    "time": 86.40000000000067,
                    "velocity": 0.3858267716535433,
                    "duration": 0.5999999999999943
                },
                {
                    "name": "E4",
                    "midi": 64,
                    "time": 87.00000000000067,
                    "velocity": 0.3858267716535433,
                    "duration": 0.5999999999999943
                },
                {
                    "name": "D4",
                    "midi": 62,
                    "time": 87.60000000000066,
                    "velocity": 0.3858267716535433,
                    "duration": 0.15000000000000568
                },
                {
                    "name": "B3",
                    "midi": 59,
                    "time": 87.75000000000067,
                    "velocity": 0.3858267716535433,
                    "duration": 0.15000000000000568
                },
                {
                    "name": "D4",
                    "midi": 62,
                    "time": 87.90000000000067,
                    "velocity": 0.3858267716535433,
                    "duration": 0.15000000000000568
                },
                {
                    "name": "B3",
                    "midi": 59,
                    "time": 88.05000000000068,
                    "velocity": 0.3858267716535433,
                    "duration": 0.15000000000000568
                },
                {
                    "name": "D4",
                    "midi": 62,
                    "time": 88.20000000000068,
                    "velocity": 0.3858267716535433,
                    "duration": 0.15000000000000568
                },
                {
                    "name": "B3",
                    "midi": 59,
                    "time": 88.35000000000069,
                    "velocity": 0.3858267716535433,
                    "duration": 0.15000000000000568
                },
                {
                    "name": "D4",
                    "midi": 62,
                    "time": 88.5000000000007,
                    "velocity": 0.3858267716535433,
                    "duration": 0.15000000000000568
                },
                {
                    "name": "B3",
                    "midi": 59,
                    "time": 88.6500000000007,
                    "velocity": 0.3858267716535433,
                    "duration": 0.15000000000000568
                },
                {
                    "name": "E2",
                    "midi": 40,
                    "time": 88.80000000000071,
                    "velocity": 0.3858267716535433,
                    "duration": 0.15000000000000568
                },
                {
                    "name": "G2",
                    "midi": 43,
                    "time": 88.95000000000071,
                    "velocity": 0.3858267716535433,
                    "duration": 0.15000000000000568
                },
                {
                    "name": "D3",
                    "midi": 50,
                    "time": 89.10000000000072,
                    "velocity": 0.3858267716535433,
                    "duration": 0.15000000000000568
                },
                {
                    "name": "F#3",
                    "midi": 54,
                    "time": 89.25000000000072,
                    "velocity": 0.3858267716535433,
                    "duration": 0.15000000000000568
                },
                {
                    "name": "E3",
                    "midi": 52,
                    "time": 89.40000000000073,
                    "velocity": 0.3858267716535433,
                    "duration": 0.15000000000000568
                },
                {
                    "name": "A#3",
                    "midi": 58,
                    "time": 89.55000000000074,
                    "velocity": 0.3858267716535433,
                    "duration": 0.15000000000000568
                },
                {
                    "name": "D3",
                    "midi": 50,
                    "time": 89.70000000000074,
                    "velocity": 0.3858267716535433,
                    "duration": 0.15000000000000568
                },
                {
                    "name": "G2",
                    "midi": 43,
                    "time": 89.85000000000075,
                    "velocity": 0.3858267716535433,
                    "duration": 0.15000000000000568
                },
                {
                    "name": "B3",
                    "midi": 59,
                    "time": 90.00000000000075,
                    "velocity": 0.3858267716535433,
                    "duration": 0.15000000000000568
                },
                {
                    "name": "C#4",
                    "midi": 61,
                    "time": 90.15000000000076,
                    "velocity": 0.3858267716535433,
                    "duration": 0.15000000000000568
                },
                {
                    "name": "E4",
                    "midi": 64,
                    "time": 90.30000000000076,
                    "velocity": 0.3858267716535433,
                    "duration": 0.15000000000000568
                },
                {
                    "name": "D4",
                    "midi": 62,
                    "time": 90.45000000000077,
                    "velocity": 0.3858267716535433,
                    "duration": 0.15000000000000568
                },
                {
                    "name": "C#4",
                    "midi": 61,
                    "time": 90.60000000000078,
                    "velocity": 0.3858267716535433,
                    "duration": 0.15000000000000568
                },
                {
                    "name": "B3",
                    "midi": 59,
                    "time": 90.75000000000078,
                    "velocity": 0.3858267716535433,
                    "duration": 0.15000000000000568
                },
                {
                    "name": "C#4",
                    "midi": 61,
                    "time": 90.90000000000079,
                    "velocity": 0.3858267716535433,
                    "duration": 0.15000000000000568
                },
                {
                    "name": "A3",
                    "midi": 57,
                    "time": 91.0500000000008,
                    "velocity": 0.3858267716535433,
                    "duration": 0.15000000000000568
                },
                {
                    "name": "E2",
                    "midi": 40,
                    "time": 91.2000000000008,
                    "velocity": 0.3858267716535433,
                    "duration": 0.15000000000000568
                },
                {
                    "name": "G2",
                    "midi": 43,
                    "time": 91.3500000000008,
                    "velocity": 0.3858267716535433,
                    "duration": 0.15000000000000568
                },
                {
                    "name": "D3",
                    "midi": 50,
                    "time": 91.50000000000081,
                    "velocity": 0.3858267716535433,
                    "duration": 0.15000000000000568
                },
                {
                    "name": "F#3",
                    "midi": 54,
                    "time": 91.65000000000082,
                    "velocity": 0.3858267716535433,
                    "duration": 0.15000000000000568
                },
                {
                    "name": "E3",
                    "midi": 52,
                    "time": 91.80000000000082,
                    "velocity": 0.3858267716535433,
                    "duration": 0.15000000000000568
                },
                {
                    "name": "A#3",
                    "midi": 58,
                    "time": 91.95000000000083,
                    "velocity": 0.3858267716535433,
                    "duration": 0.15000000000000568
                },
                {
                    "name": "D3",
                    "midi": 50,
                    "time": 92.10000000000083,
                    "velocity": 0.3858267716535433,
                    "duration": 0.15000000000000568
                },
                {
                    "name": "G2",
                    "midi": 43,
                    "time": 92.25000000000084,
                    "velocity": 0.3858267716535433,
                    "duration": 0.15000000000000568
                },
                {
                    "name": "B3",
                    "midi": 59,
                    "time": 93.99750000000084,
                    "velocity": 0.3858267716535433,
                    "duration": 0.4025000000000034
                },
                {
                    "name": "E4",
                    "midi": 64,
                    "time": 93.99750000000084,
                    "velocity": 0.3858267716535433,
                    "duration": 0.4025000000000034
                },
                {
                    "name": "A#3",
                    "midi": 58,
                    "time": 94.40000000000084,
                    "velocity": 0.3858267716535433,
                    "duration": 0.4000000000000057
                },
                {
                    "name": "D#4",
                    "midi": 63,
                    "time": 94.40000000000084,
                    "velocity": 0.3858267716535433,
                    "duration": 0.4000000000000057
                },
                {
                    "name": "A3",
                    "midi": 57,
                    "time": 94.80000000000085,
                    "velocity": 0.3858267716535433,
                    "duration": 0.39749999999999375
                },
                {
                    "name": "D4",
                    "midi": 62,
                    "time": 94.80000000000085,
                    "velocity": 0.3858267716535433,
                    "duration": 0.39749999999999375
                },
                {
                    "name": "A#3",
                    "midi": 58,
                    "time": 95.19750000000084,
                    "velocity": 0.3858267716535433,
                    "duration": 0.4025000000000034
                },
                {
                    "name": "D#4",
                    "midi": 63,
                    "time": 95.19750000000084,
                    "velocity": 0.3858267716535433,
                    "duration": 0.4025000000000034
                },
                {
                    "name": "B3",
                    "midi": 59,
                    "time": 95.60000000000085,
                    "velocity": 0.3858267716535433,
                    "duration": 0.4000000000000057
                },
                {
                    "name": "E4",
                    "midi": 64,
                    "time": 95.60000000000085,
                    "velocity": 0.3858267716535433,
                    "duration": 0.4000000000000057
                },
                {
                    "name": "C4",
                    "midi": 60,
                    "time": 96.00000000000085,
                    "velocity": 0.3858267716535433,
                    "duration": 0.39749999999999375
                },
                {
                    "name": "F4",
                    "midi": 65,
                    "time": 96.00000000000085,
                    "velocity": 0.3858267716535433,
                    "duration": 0.39749999999999375
                },
                {
                    "name": "B3",
                    "midi": 59,
                    "time": 96.39750000000085,
                    "velocity": 0.3858267716535433,
                    "duration": 0.4025000000000034
                },
                {
                    "name": "E4",
                    "midi": 64,
                    "time": 96.39750000000085,
                    "velocity": 0.3858267716535433,
                    "duration": 0.4025000000000034
                },
                {
                    "name": "A#3",
                    "midi": 58,
                    "time": 96.80000000000085,
                    "velocity": 0.3858267716535433,
                    "duration": 0.4000000000000057
                },
                {
                    "name": "D#4",
                    "midi": 63,
                    "time": 96.80000000000085,
                    "velocity": 0.3858267716535433,
                    "duration": 0.4000000000000057
                },
                {
                    "name": "A3",
                    "midi": 57,
                    "time": 97.20000000000086,
                    "velocity": 0.3858267716535433,
                    "duration": 0.39749999999999375
                },
                {
                    "name": "D4",
                    "midi": 62,
                    "time": 97.20000000000086,
                    "velocity": 0.3858267716535433,
                    "duration": 0.39749999999999375
                },
                {
                    "name": "A#3",
                    "midi": 58,
                    "time": 97.59750000000085,
                    "velocity": 0.3858267716535433,
                    "duration": 0.4025000000000034
                },
                {
                    "name": "D#4",
                    "midi": 63,
                    "time": 97.59750000000085,
                    "velocity": 0.3858267716535433,
                    "duration": 0.4025000000000034
                },
                {
                    "name": "B3",
                    "midi": 59,
                    "time": 98.00000000000085,
                    "velocity": 0.3858267716535433,
                    "duration": 0.4000000000000057
                },
                {
                    "name": "E4",
                    "midi": 64,
                    "time": 98.00000000000085,
                    "velocity": 0.3858267716535433,
                    "duration": 0.4000000000000057
                },
                {
                    "name": "C4",
                    "midi": 60,
                    "time": 98.40000000000086,
                    "velocity": 0.3858267716535433,
                    "duration": 0.39749999999999375
                },
                {
                    "name": "F4",
                    "midi": 65,
                    "time": 98.40000000000086,
                    "velocity": 0.3858267716535433,
                    "duration": 0.39749999999999375
                },
                {
                    "name": "B3",
                    "midi": 59,
                    "time": 98.79750000000085,
                    "velocity": 0.3858267716535433,
                    "duration": 0.4025000000000034
                },
                {
                    "name": "E4",
                    "midi": 64,
                    "time": 98.79750000000085,
                    "velocity": 0.3858267716535433,
                    "duration": 0.4025000000000034
                },
                {
                    "name": "A#3",
                    "midi": 58,
                    "time": 99.20000000000086,
                    "velocity": 0.3858267716535433,
                    "duration": 0.4000000000000057
                },
                {
                    "name": "D#4",
                    "midi": 63,
                    "time": 99.20000000000086,
                    "velocity": 0.3858267716535433,
                    "duration": 0.4000000000000057
                },
                {
                    "name": "A3",
                    "midi": 57,
                    "time": 99.60000000000086,
                    "velocity": 0.3858267716535433,
                    "duration": 0.5999999999999943
                },
                {
                    "name": "D4",
                    "midi": 62,
                    "time": 99.60000000000086,
                    "velocity": 0.3858267716535433,
                    "duration": 0.5999999999999943
                },
                {
                    "name": "A#3",
                    "midi": 58,
                    "time": 100.20000000000086,
                    "velocity": 0.3858267716535433,
                    "duration": 0.5999999999999943
                },
                {
                    "name": "D#4",
                    "midi": 63,
                    "time": 100.20000000000086,
                    "velocity": 0.3858267716535433,
                    "duration": 0.5999999999999943
                },
                {
                    "name": "A3",
                    "midi": 57,
                    "time": 100.80000000000085,
                    "velocity": 0.3858267716535433,
                    "duration": 1.5974999999999966
                },
                {
                    "name": "D4",
                    "midi": 62,
                    "time": 100.80000000000085,
                    "velocity": 0.3858267716535433,
                    "duration": 1.5974999999999966
                },
                {
                    "name": "A#3",
                    "midi": 58,
                    "time": 102.39750000000085,
                    "velocity": 0.3858267716535433,
                    "duration": 0.4025000000000034
                },
                {
                    "name": "D#4",
                    "midi": 63,
                    "time": 102.39750000000085,
                    "velocity": 0.3858267716535433,
                    "duration": 0.4025000000000034
                },
                {
                    "name": "B3",
                    "midi": 59,
                    "time": 102.80000000000085,
                    "velocity": 0.3858267716535433,
                    "duration": 0.4000000000000057
                },
                {
                    "name": "E4",
                    "midi": 64,
                    "time": 102.80000000000085,
                    "velocity": 0.3858267716535433,
                    "duration": 0.4000000000000057
                },
                {
                    "name": "A3",
                    "midi": 57,
                    "time": 103.20000000000086,
                    "velocity": 0.3858267716535433,
                    "duration": 0.5999999999999943
                },
                {
                    "name": "D4",
                    "midi": 62,
                    "time": 103.20000000000086,
                    "velocity": 0.3858267716535433,
                    "duration": 0.5999999999999943
                },
                {
                    "name": "A#3",
                    "midi": 58,
                    "time": 103.80000000000085,
                    "velocity": 0.3858267716535433,
                    "duration": 0.5999999999999943
                },
                {
                    "name": "D#4",
                    "midi": 63,
                    "time": 103.80000000000085,
                    "velocity": 0.3858267716535433,
                    "duration": 0.5999999999999943
                },
                {
                    "name": "B3",
                    "midi": 59,
                    "time": 104.40000000000084,
                    "velocity": 0.3858267716535433,
                    "duration": 0.5999999999999943
                },
                {
                    "name": "E4",
                    "midi": 64,
                    "time": 104.40000000000084,
                    "velocity": 0.3858267716535433,
                    "duration": 0.5999999999999943
                },
                {
                    "name": "C4",
                    "midi": 60,
                    "time": 105.00000000000084,
                    "velocity": 0.3858267716535433,
                    "duration": 0.5999999999999943
                },
                {
                    "name": "F4",
                    "midi": 65,
                    "time": 105.00000000000084,
                    "velocity": 0.3858267716535433,
                    "duration": 0.5999999999999943
                },
                {
                    "name": "B3",
                    "midi": 59,
                    "time": 105.60000000000083,
                    "velocity": 0.3858267716535433,
                    "duration": 0.5999999999999943
                },
                {
                    "name": "E4",
                    "midi": 64,
                    "time": 105.60000000000083,
                    "velocity": 0.3858267716535433,
                    "duration": 0.5999999999999943
                },
                {
                    "name": "A#3",
                    "midi": 58,
                    "time": 106.20000000000083,
                    "velocity": 0.3858267716535433,
                    "duration": 0.5999999999999943
                },
                {
                    "name": "D#4",
                    "midi": 63,
                    "time": 106.20000000000083,
                    "velocity": 0.3858267716535433,
                    "duration": 0.5999999999999943
                },
                {
                    "name": "A3",
                    "midi": 57,
                    "time": 106.80000000000082,
                    "velocity": 0.3858267716535433,
                    "duration": 0.5999999999999943
                },
                {
                    "name": "D4",
                    "midi": 62,
                    "time": 106.80000000000082,
                    "velocity": 0.3858267716535433,
                    "duration": 0.5999999999999943
                },
                {
                    "name": "A#3",
                    "midi": 58,
                    "time": 107.40000000000082,
                    "velocity": 0.3858267716535433,
                    "duration": 0.5999999999999943
                },
                {
                    "name": "D#4",
                    "midi": 63,
                    "time": 107.40000000000082,
                    "velocity": 0.3858267716535433,
                    "duration": 0.5999999999999943
                },
                {
                    "name": "A3",
                    "midi": 57,
                    "time": 108.00000000000081,
                    "velocity": 0.3858267716535433,
                    "duration": 3
                },
                {
                    "name": "D4",
                    "midi": 62,
                    "time": 108.00000000000081,
                    "velocity": 0.3858267716535433,
                    "duration": 3
                },
                {
                    "name": "A#4",
                    "midi": 70,
                    "time": 114.00000000000081,
                    "velocity": 0.28346456692913385,
                    "duration": 0.15000000000000568
                },
                {
                    "name": "C5",
                    "midi": 72,
                    "time": 114.15000000000082,
                    "velocity": 0.28346456692913385,
                    "duration": 0.15000000000000568
                },
                {
                    "name": "A#4",
                    "midi": 70,
                    "time": 114.30000000000082,
                    "velocity": 0.28346456692913385,
                    "duration": 0.15000000000000568
                },
                {
                    "name": "C5",
                    "midi": 72,
                    "time": 114.45000000000083,
                    "velocity": 0.28346456692913385,
                    "duration": 0.15000000000000568
                },
                {
                    "name": "A#4",
                    "midi": 70,
                    "time": 114.60000000000083,
                    "velocity": 0.28346456692913385,
                    "duration": 0.15000000000000568
                },
                {
                    "name": "C5",
                    "midi": 72,
                    "time": 114.75000000000084,
                    "velocity": 0.28346456692913385,
                    "duration": 0.15000000000000568
                },
                {
                    "name": "A#4",
                    "midi": 70,
                    "time": 114.90000000000084,
                    "velocity": 0.28346456692913385,
                    "duration": 0.15000000000000568
                },
                {
                    "name": "C5",
                    "midi": 72,
                    "time": 115.05000000000085,
                    "velocity": 0.28346456692913385,
                    "duration": 0.15000000000000568
                },
                {
                    "name": "A#4",
                    "midi": 70,
                    "time": 115.20000000000086,
                    "velocity": 0.28346456692913385,
                    "duration": 0.15000000000000568
                },
                {
                    "name": "C5",
                    "midi": 72,
                    "time": 115.35000000000086,
                    "velocity": 0.28346456692913385,
                    "duration": 0.15000000000000568
                },
                {
                    "name": "A#4",
                    "midi": 70,
                    "time": 115.50000000000087,
                    "velocity": 0.28346456692913385,
                    "duration": 0.15000000000000568
                },
                {
                    "name": "C5",
                    "midi": 72,
                    "time": 115.65000000000087,
                    "velocity": 0.28346456692913385,
                    "duration": 0.15000000000000568
                },
                {
                    "name": "A#4",
                    "midi": 70,
                    "time": 115.80000000000088,
                    "velocity": 0.28346456692913385,
                    "duration": 0.15000000000000568
                },
                {
                    "name": "C5",
                    "midi": 72,
                    "time": 115.95000000000088,
                    "velocity": 0.28346456692913385,
                    "duration": 0.15000000000000568
                },
                {
                    "name": "A#4",
                    "midi": 70,
                    "time": 116.10000000000089,
                    "velocity": 0.28346456692913385,
                    "duration": 0.15000000000000568
                },
                {
                    "name": "C5",
                    "midi": 72,
                    "time": 116.2500000000009,
                    "velocity": 0.28346456692913385,
                    "duration": 0.15000000000000568
                },
                {
                    "name": "A#4",
                    "midi": 70,
                    "time": 116.4000000000009,
                    "velocity": 0.28346456692913385,
                    "duration": 0.15000000000000568
                },
                {
                    "name": "C5",
                    "midi": 72,
                    "time": 116.5500000000009,
                    "velocity": 0.28346456692913385,
                    "duration": 0.15000000000000568
                },
                {
                    "name": "A#4",
                    "midi": 70,
                    "time": 116.70000000000091,
                    "velocity": 0.28346456692913385,
                    "duration": 0.15000000000000568
                },
                {
                    "name": "C5",
                    "midi": 72,
                    "time": 116.85000000000092,
                    "velocity": 0.28346456692913385,
                    "duration": 0.15000000000000568
                },
                {
                    "name": "A#4",
                    "midi": 70,
                    "time": 117.00000000000092,
                    "velocity": 0.28346456692913385,
                    "duration": 0.15000000000000568
                },
                {
                    "name": "C5",
                    "midi": 72,
                    "time": 117.15000000000093,
                    "velocity": 0.28346456692913385,
                    "duration": 0.15000000000000568
                },
                {
                    "name": "A#4",
                    "midi": 70,
                    "time": 117.30000000000094,
                    "velocity": 0.28346456692913385,
                    "duration": 0.15000000000000568
                },
                {
                    "name": "C5",
                    "midi": 72,
                    "time": 117.45000000000094,
                    "velocity": 0.28346456692913385,
                    "duration": 0.15000000000000568
                },
                {
                    "name": "A#4",
                    "midi": 70,
                    "time": 117.60000000000095,
                    "velocity": 0.28346456692913385,
                    "duration": 0.15000000000000568
                },
                {
                    "name": "C5",
                    "midi": 72,
                    "time": 117.75000000000095,
                    "velocity": 0.28346456692913385,
                    "duration": 0.15000000000000568
                },
                {
                    "name": "A#4",
                    "midi": 70,
                    "time": 117.90000000000096,
                    "velocity": 0.28346456692913385,
                    "duration": 0.15000000000000568
                },
                {
                    "name": "C5",
                    "midi": 72,
                    "time": 118.05000000000096,
                    "velocity": 0.28346456692913385,
                    "duration": 0.15000000000000568
                },
                {
                    "name": "A#4",
                    "midi": 70,
                    "time": 118.20000000000097,
                    "velocity": 0.28346456692913385,
                    "duration": 0.15000000000000568
                },
                {
                    "name": "C5",
                    "midi": 72,
                    "time": 118.35000000000097,
                    "velocity": 0.28346456692913385,
                    "duration": 0.15000000000000568
                },
                {
                    "name": "A#4",
                    "midi": 70,
                    "time": 118.50000000000098,
                    "velocity": 0.28346456692913385,
                    "duration": 0.15000000000000568
                },
                {
                    "name": "C5",
                    "midi": 72,
                    "time": 118.65000000000099,
                    "velocity": 0.28346456692913385,
                    "duration": 0.15000000000000568
                },
                {
                    "name": "C3",
                    "midi": 48,
                    "time": 121.200000000001,
                    "velocity": 0.28346456692913385,
                    "duration": 0.39749999999999375
                },
                {
                    "name": "A#3",
                    "midi": 58,
                    "time": 121.200000000001,
                    "velocity": 0.28346456692913385,
                    "duration": 0.39749999999999375
                },
                {
                    "name": "D4",
                    "midi": 62,
                    "time": 121.200000000001,
                    "velocity": 0.28346456692913385,
                    "duration": 0.39749999999999375
                },
                {
                    "name": "D#4",
                    "midi": 63,
                    "time": 121.59750000000099,
                    "velocity": 0.28346456692913385,
                    "duration": 0.4025000000000034
                },
                {
                    "name": "F#4",
                    "midi": 66,
                    "time": 122.400000000001,
                    "velocity": 0.28346456692913385,
                    "duration": 0.39749999999999375
                },
                {
                    "name": "D#4",
                    "midi": 63,
                    "time": 122.797500000001,
                    "velocity": 0.28346456692913385,
                    "duration": 0.4025000000000034
                },
                {
                    "name": "D3",
                    "midi": 50,
                    "time": 123.600000000001,
                    "velocity": 0.4881889763779528,
                    "duration": 0.39749999999999375
                },
                {
                    "name": "E3",
                    "midi": 52,
                    "time": 123.997500000001,
                    "velocity": 0.4881889763779528,
                    "duration": 0.29999999999999716
                },
                {
                    "name": "A3",
                    "midi": 57,
                    "time": 124.297500000001,
                    "velocity": 0.28346456692913385,
                    "duration": 0.10250000000000625
                },
                {
                    "name": "G3",
                    "midi": 55,
                    "time": 124.400000000001,
                    "velocity": 0.4881889763779528,
                    "duration": 0.4000000000000057
                },
                {
                    "name": "F3",
                    "midi": 53,
                    "time": 124.800000000001,
                    "velocity": 0.28346456692913385,
                    "duration": 0.5999999999999943
                },
                {
                    "name": "E3",
                    "midi": 52,
                    "time": 125.400000000001,
                    "velocity": 0.28346456692913385,
                    "duration": 0.5999999999999943
                },
                {
                    "name": "D3",
                    "midi": 50,
                    "time": 126.000000000001,
                    "velocity": 0.28346456692913385,
                    "duration": 0.5999999999999943
                },
                {
                    "name": "E3",
                    "midi": 52,
                    "time": 126.60000000000099,
                    "velocity": 0.28346456692913385,
                    "duration": 0.5250000000000057
                },
                {
                    "name": "G3",
                    "midi": 55,
                    "time": 127.125000000001,
                    "velocity": 0.28346456692913385,
                    "duration": 0.07500000000000284
                },
                {
                    "name": "F3",
                    "midi": 53,
                    "time": 127.200000000001,
                    "velocity": 0.4881889763779528,
                    "duration": 0.39749999999999375
                },
                {
                    "name": "E3",
                    "midi": 52,
                    "time": 127.59750000000099,
                    "velocity": 0.4881889763779528,
                    "duration": 0.4025000000000034
                },
                {
                    "name": "D3",
                    "midi": 50,
                    "time": 128.000000000001,
                    "velocity": 0.4881889763779528,
                    "duration": 0.39999999999997726
                },
                {
                    "name": "E3",
                    "midi": 52,
                    "time": 128.175000000001,
                    "velocity": 0.28346456692913385,
                    "duration": 0.6224999999999739
                },
                {
                    "name": "G#3",
                    "midi": 56,
                    "time": 128.250000000001,
                    "velocity": 0.28346456692913385,
                    "duration": 0.5474999999999852
                },
                {
                    "name": "C#4",
                    "midi": 61,
                    "time": 128.32500000000098,
                    "velocity": 0.28346456692913385,
                    "duration": 0.4724999999999966
                },
                {
                    "name": "F#4",
                    "midi": 66,
                    "time": 128.40000000000097,
                    "velocity": 0.3858267716535433,
                    "duration": 0.39750000000000796
                },
                {
                    "name": "B2",
                    "midi": 47,
                    "time": 128.79750000000098,
                    "velocity": 0.3858267716535433,
                    "duration": 0.4025000000000034
                },
                {
                    "name": "A#1",
                    "midi": 34,
                    "time": 129.20000000000098,
                    "velocity": 0.3858267716535433,
                    "duration": 0.4000000000000057
                },
                {
                    "name": "A#3",
                    "midi": 58,
                    "time": 129.600000000001,
                    "velocity": 0.3858267716535433,
                    "duration": 0.39750000000000796
                },
                {
                    "name": "D4",
                    "midi": 62,
                    "time": 129.600000000001,
                    "velocity": 0.3858267716535433,
                    "duration": 0.39750000000000796
                },
                {
                    "name": "F#4",
                    "midi": 66,
                    "time": 129.997500000001,
                    "velocity": 0.3858267716535433,
                    "duration": 0.4025000000000034
                },
                {
                    "name": "G#3",
                    "midi": 56,
                    "time": 130.400000000001,
                    "velocity": 0.3858267716535433,
                    "duration": 0.39999999999997726
                },
                {
                    "name": "E3",
                    "midi": 52,
                    "time": 130.575000000001,
                    "velocity": 0.3858267716535433,
                    "duration": 0.6224999999999739
                },
                {
                    "name": "G#3",
                    "midi": 56,
                    "time": 130.650000000001,
                    "velocity": 0.3858267716535433,
                    "duration": 0.5474999999999852
                },
                {
                    "name": "C#4",
                    "midi": 61,
                    "time": 130.725000000001,
                    "velocity": 0.3858267716535433,
                    "duration": 0.4724999999999966
                },
                {
                    "name": "F#4",
                    "midi": 66,
                    "time": 130.80000000000098,
                    "velocity": 0.3858267716535433,
                    "duration": 0.39750000000000796
                },
                {
                    "name": "B2",
                    "midi": 47,
                    "time": 131.19750000000099,
                    "velocity": 0.3858267716535433,
                    "duration": 0.4025000000000034
                },
                {
                    "name": "A#1",
                    "midi": 34,
                    "time": 131.600000000001,
                    "velocity": 0.3858267716535433,
                    "duration": 0.4000000000000057
                },
                {
                    "name": "A#3",
                    "midi": 58,
                    "time": 132.000000000001,
                    "velocity": 0.3858267716535433,
                    "duration": 0.39750000000000796
                },
                {
                    "name": "D4",
                    "midi": 62,
                    "time": 132.000000000001,
                    "velocity": 0.3858267716535433,
                    "duration": 0.39750000000000796
                },
                {
                    "name": "F#4",
                    "midi": 66,
                    "time": 132.397500000001,
                    "velocity": 0.3858267716535433,
                    "duration": 0.4025000000000034
                },
                {
                    "name": "G#3",
                    "midi": 56,
                    "time": 132.800000000001,
                    "velocity": 0.3858267716535433,
                    "duration": 0.4000000000000057
                },
                {
                    "name": "D4",
                    "midi": 62,
                    "time": 133.200000000001,
                    "velocity": 0.3858267716535433,
                    "duration": 0.39750000000000796
                },
                {
                    "name": "E3",
                    "midi": 52,
                    "time": 133.59750000000102,
                    "velocity": 0.3858267716535433,
                    "duration": 0.4025000000000034
                },
                {
                    "name": "G#3",
                    "midi": 56,
                    "time": 133.59750000000102,
                    "velocity": 0.3858267716535433,
                    "duration": 0.4025000000000034
                },
                {
                    "name": "A#2",
                    "midi": 46,
                    "time": 134.00000000000102,
                    "velocity": 0.3858267716535433,
                    "duration": 0.4000000000000057
                },
                {
                    "name": "E4",
                    "midi": 64,
                    "time": 134.40000000000103,
                    "velocity": 0.3858267716535433,
                    "duration": 0.5999999999999943
                },
                {
                    "name": "F4",
                    "midi": 65,
                    "time": 135.00000000000102,
                    "velocity": 0.3858267716535433,
                    "duration": 0.5999999999999659
                },
                {
                    "name": "E3",
                    "midi": 52,
                    "time": 135.37500000000102,
                    "velocity": 0.3858267716535433,
                    "duration": 0.6224999999999739
                },
                {
                    "name": "G#3",
                    "midi": 56,
                    "time": 135.450000000001,
                    "velocity": 0.3858267716535433,
                    "duration": 0.5474999999999852
                },
                {
                    "name": "C#4",
                    "midi": 61,
                    "time": 135.525000000001,
                    "velocity": 0.3858267716535433,
                    "duration": 0.4724999999999966
                },
                {
                    "name": "F#4",
                    "midi": 66,
                    "time": 135.600000000001,
                    "velocity": 0.3858267716535433,
                    "duration": 0.39750000000000796
                },
                {
                    "name": "B2",
                    "midi": 47,
                    "time": 135.997500000001,
                    "velocity": 0.3858267716535433,
                    "duration": 0.4025000000000034
                },
                {
                    "name": "A#1",
                    "midi": 34,
                    "time": 136.400000000001,
                    "velocity": 0.3858267716535433,
                    "duration": 0.4000000000000057
                },
                {
                    "name": "A#3",
                    "midi": 58,
                    "time": 136.800000000001,
                    "velocity": 0.3858267716535433,
                    "duration": 0.19999999999998863
                },
                {
                    "name": "D4",
                    "midi": 62,
                    "time": 136.800000000001,
                    "velocity": 0.3858267716535433,
                    "duration": 0.19999999999998863
                },
                {
                    "name": "G4",
                    "midi": 67,
                    "time": 136.800000000001,
                    "velocity": 0.3858267716535433,
                    "duration": 0.19999999999998863
                },
                {
                    "name": "F#4",
                    "midi": 66,
                    "time": 137.000000000001,
                    "velocity": 0.3858267716535433,
                    "duration": 0.1974999999999909
                },
                {
                    "name": "E4",
                    "midi": 64,
                    "time": 137.19750000000099,
                    "velocity": 0.3858267716535433,
                    "duration": 0.20249999999998636
                },
                {
                    "name": "F#4",
                    "midi": 66,
                    "time": 137.40000000000097,
                    "velocity": 0.3858267716535433,
                    "duration": 0.15000000000000568
                },
                {
                    "name": "D4",
                    "midi": 62,
                    "time": 137.55000000000098,
                    "velocity": 0.3858267716535433,
                    "duration": 0.15000000000000568
                },
                {
                    "name": "E4",
                    "midi": 64,
                    "time": 137.70000000000098,
                    "velocity": 0.3858267716535433,
                    "duration": 0.15000000000000568
                },
                {
                    "name": "C4",
                    "midi": 60,
                    "time": 137.850000000001,
                    "velocity": 0.3858267716535433,
                    "duration": 0.15000000000000568
                },
                {
                    "name": "D4",
                    "midi": 62,
                    "time": 138.000000000001,
                    "velocity": 0.3858267716535433,
                    "duration": 0.15000000000000568
                },
                {
                    "name": "E4",
                    "midi": 64,
                    "time": 138.150000000001,
                    "velocity": 0.3858267716535433,
                    "duration": 0.15000000000000568
                },
                {
                    "name": "A4",
                    "midi": 69,
                    "time": 138.300000000001,
                    "velocity": 0.3858267716535433,
                    "duration": 0.15000000000000568
                },
                {
                    "name": "G4",
                    "midi": 67,
                    "time": 138.450000000001,
                    "velocity": 0.3858267716535433,
                    "duration": 0.15000000000000568
                },
                {
                    "name": "F#4",
                    "midi": 66,
                    "time": 138.60000000000102,
                    "velocity": 0.3858267716535433,
                    "duration": 0.15000000000000568
                },
                {
                    "name": "E4",
                    "midi": 64,
                    "time": 138.75000000000102,
                    "velocity": 0.3858267716535433,
                    "duration": 0.15000000000000568
                },
                {
                    "name": "F#4",
                    "midi": 66,
                    "time": 138.90000000000103,
                    "velocity": 0.3858267716535433,
                    "duration": 0.15000000000000568
                },
                {
                    "name": "D4",
                    "midi": 62,
                    "time": 139.05000000000103,
                    "velocity": 0.3858267716535433,
                    "duration": 0.15000000000000568
                },
                {
                    "name": "E4",
                    "midi": 64,
                    "time": 139.20000000000104,
                    "velocity": 0.3858267716535433,
                    "duration": 0.15000000000000568
                },
                {
                    "name": "F#4",
                    "midi": 66,
                    "time": 139.35000000000105,
                    "velocity": 0.3858267716535433,
                    "duration": 0.15000000000000568
                },
                {
                    "name": "A4",
                    "midi": 69,
                    "time": 139.50000000000105,
                    "velocity": 0.3858267716535433,
                    "duration": 0.15000000000000568
                },
                {
                    "name": "G4",
                    "midi": 67,
                    "time": 139.65000000000106,
                    "velocity": 0.3858267716535433,
                    "duration": 0.15000000000000568
                },
                {
                    "name": "F#4",
                    "midi": 66,
                    "time": 139.80000000000106,
                    "velocity": 0.3858267716535433,
                    "duration": 0.15000000000000568
                },
                {
                    "name": "E4",
                    "midi": 64,
                    "time": 139.95000000000107,
                    "velocity": 0.3858267716535433,
                    "duration": 0.15000000000000568
                },
                {
                    "name": "F#4",
                    "midi": 66,
                    "time": 140.10000000000107,
                    "velocity": 0.3858267716535433,
                    "duration": 0.15000000000000568
                },
                {
                    "name": "D4",
                    "midi": 62,
                    "time": 140.25000000000108,
                    "velocity": 0.3858267716535433,
                    "duration": 0.15000000000000568
                },
                {
                    "name": "E4",
                    "midi": 64,
                    "time": 140.40000000000109,
                    "velocity": 0.3858267716535433,
                    "duration": 0.15000000000000568
                },
                {
                    "name": "F#4",
                    "midi": 66,
                    "time": 140.5500000000011,
                    "velocity": 0.3858267716535433,
                    "duration": 0.15000000000000568
                },
                {
                    "name": "A4",
                    "midi": 69,
                    "time": 140.7000000000011,
                    "velocity": 0.3858267716535433,
                    "duration": 0.15000000000000568
                },
                {
                    "name": "G4",
                    "midi": 67,
                    "time": 140.8500000000011,
                    "velocity": 0.3858267716535433,
                    "duration": 0.15000000000000568
                },
                {
                    "name": "F#4",
                    "midi": 66,
                    "time": 141.0000000000011,
                    "velocity": 0.3858267716535433,
                    "duration": 0.15000000000000568
                },
                {
                    "name": "E4",
                    "midi": 64,
                    "time": 141.1500000000011,
                    "velocity": 0.3858267716535433,
                    "duration": 0.15000000000000568
                },
                {
                    "name": "F#4",
                    "midi": 66,
                    "time": 141.30000000000112,
                    "velocity": 0.3858267716535433,
                    "duration": 0.15000000000000568
                },
                {
                    "name": "D4",
                    "midi": 62,
                    "time": 141.45000000000113,
                    "velocity": 0.3858267716535433,
                    "duration": 0.15000000000000568
                },
                {
                    "name": "E4",
                    "midi": 64,
                    "time": 141.60000000000113,
                    "velocity": 0.3858267716535433,
                    "duration": 0.15000000000000568
                },
                {
                    "name": "F#4",
                    "midi": 66,
                    "time": 141.75000000000114,
                    "velocity": 0.3858267716535433,
                    "duration": 0.15000000000000568
                },
                {
                    "name": "A4",
                    "midi": 69,
                    "time": 141.90000000000114,
                    "velocity": 0.3858267716535433,
                    "duration": 0.15000000000000568
                },
                {
                    "name": "G4",
                    "midi": 67,
                    "time": 142.05000000000115,
                    "velocity": 0.3858267716535433,
                    "duration": 0.15000000000000568
                },
                {
                    "name": "F#4",
                    "midi": 66,
                    "time": 142.20000000000115,
                    "velocity": 0.3858267716535433,
                    "duration": 0.15000000000000568
                },
                {
                    "name": "D4",
                    "midi": 62,
                    "time": 142.35000000000116,
                    "velocity": 0.3858267716535433,
                    "duration": 0.15000000000000568
                },
                {
                    "name": "E4",
                    "midi": 64,
                    "time": 142.50000000000117,
                    "velocity": 0.3858267716535433,
                    "duration": 0.15000000000000568
                },
                {
                    "name": "C4",
                    "midi": 60,
                    "time": 142.65000000000117,
                    "velocity": 0.3858267716535433,
                    "duration": 0.15000000000000568
                },
                {
                    "name": "D4",
                    "midi": 62,
                    "time": 142.80000000000118,
                    "velocity": 0.3858267716535433,
                    "duration": 0.11750000000000682
                },
                {
                    "name": "E4",
                    "midi": 64,
                    "time": 142.91750000000118,
                    "velocity": 0.3858267716535433,
                    "duration": 0.12250000000000227
                },
                {
                    "name": "F#4",
                    "midi": 66,
                    "time": 143.04000000000119,
                    "velocity": 0.3858267716535433,
                    "duration": 0.11750000000000682
                },
                {
                    "name": "A4",
                    "midi": 69,
                    "time": 143.1575000000012,
                    "velocity": 0.3858267716535433,
                    "duration": 0.12250000000000227
                },
                {
                    "name": "G4",
                    "midi": 67,
                    "time": 143.2800000000012,
                    "velocity": 0.3858267716535433,
                    "duration": 0.12000000000000455
                },
                {
                    "name": "F#4",
                    "midi": 66,
                    "time": 143.4000000000012,
                    "velocity": 0.3858267716535433,
                    "duration": 0.11750000000000682
                },
                {
                    "name": "E4",
                    "midi": 64,
                    "time": 143.5175000000012,
                    "velocity": 0.3858267716535433,
                    "duration": 0.12250000000000227
                },
                {
                    "name": "D4",
                    "midi": 62,
                    "time": 143.6400000000012,
                    "velocity": 0.3858267716535433,
                    "duration": 0.11750000000000682
                },
                {
                    "name": "E4",
                    "midi": 64,
                    "time": 143.75750000000122,
                    "velocity": 0.3858267716535433,
                    "duration": 0.12250000000000227
                },
                {
                    "name": "C4",
                    "midi": 60,
                    "time": 143.88000000000122,
                    "velocity": 0.3858267716535433,
                    "duration": 0.12000000000000455
                },
                {
                    "name": "D4",
                    "midi": 62,
                    "time": 144.00000000000122,
                    "velocity": 0.3858267716535433,
                    "duration": 0.037499999999994316
                },
                {
                    "name": "E4",
                    "midi": 64,
                    "time": 144.1700000000012,
                    "velocity": 0.3858267716535433,
                    "duration": 0.037499999999994316
                },
                {
                    "name": "F#4",
                    "midi": 66,
                    "time": 144.3425000000012,
                    "velocity": 0.3858267716535433,
                    "duration": 0.037499999999994316
                },
                {
                    "name": "A4",
                    "midi": 69,
                    "time": 144.51250000000118,
                    "velocity": 0.3858267716535433,
                    "duration": 0.17250000000001364
                },
                {
                    "name": "G4",
                    "midi": 67,
                    "time": 144.6850000000012,
                    "velocity": 0.3858267716535433,
                    "duration": 0.1699999999999875
                },
                {
                    "name": "F#4",
                    "midi": 66,
                    "time": 144.85500000000118,
                    "velocity": 0.3858267716535433,
                    "duration": 0.17250000000001364
                },
                {
                    "name": "E4",
                    "midi": 64,
                    "time": 145.0275000000012,
                    "velocity": 0.3858267716535433,
                    "duration": 0.17250000000001364
                },
                {
                    "name": "F#4",
                    "midi": 66,
                    "time": 145.2000000000012,
                    "velocity": 0.3858267716535433,
                    "duration": 0.15000000000000568
                },
                {
                    "name": "G4",
                    "midi": 67,
                    "time": 145.35000000000122,
                    "velocity": 0.3858267716535433,
                    "duration": 0.15000000000000568
                },
                {
                    "name": "F#4",
                    "midi": 66,
                    "time": 145.50000000000122,
                    "velocity": 0.3858267716535433,
                    "duration": 0.15000000000000568
                },
                {
                    "name": "G4",
                    "midi": 67,
                    "time": 145.65000000000123,
                    "velocity": 0.3858267716535433,
                    "duration": 0.15000000000000568
                },
                {
                    "name": "F#4",
                    "midi": 66,
                    "time": 145.80000000000123,
                    "velocity": 0.3858267716535433,
                    "duration": 0.15000000000000568
                },
                {
                    "name": "D4",
                    "midi": 62,
                    "time": 145.95000000000124,
                    "velocity": 0.3858267716535433,
                    "duration": 0.15000000000000568
                },
                {
                    "name": "E4",
                    "midi": 64,
                    "time": 146.10000000000124,
                    "velocity": 0.3858267716535433,
                    "duration": 0.15000000000000568
                },
                {
                    "name": "C4",
                    "midi": 60,
                    "time": 146.25000000000125,
                    "velocity": 0.3858267716535433,
                    "duration": 0.15000000000000568
                },
                {
                    "name": "D4",
                    "midi": 62,
                    "time": 146.40000000000126,
                    "velocity": 0.3858267716535433,
                    "duration": 0.15000000000000568
                },
                {
                    "name": "E4",
                    "midi": 64,
                    "time": 146.55000000000126,
                    "velocity": 0.3858267716535433,
                    "duration": 0.15000000000000568
                },
                {
                    "name": "D4",
                    "midi": 62,
                    "time": 146.70000000000127,
                    "velocity": 0.3858267716535433,
                    "duration": 0.15000000000000568
                },
                {
                    "name": "E4",
                    "midi": 64,
                    "time": 146.85000000000127,
                    "velocity": 0.3858267716535433,
                    "duration": 0.15000000000000568
                },
                {
                    "name": "D4",
                    "midi": 62,
                    "time": 147.00000000000128,
                    "velocity": 0.3858267716535433,
                    "duration": 0.15000000000000568
                },
                {
                    "name": "E4",
                    "midi": 64,
                    "time": 147.15000000000128,
                    "velocity": 0.3858267716535433,
                    "duration": 0.15000000000000568
                },
                {
                    "name": "D4",
                    "midi": 62,
                    "time": 147.3000000000013,
                    "velocity": 0.3858267716535433,
                    "duration": 0.15000000000000568
                },
                {
                    "name": "E4",
                    "midi": 64,
                    "time": 147.4500000000013,
                    "velocity": 0.3858267716535433,
                    "duration": 0.15000000000000568
                },
                {
                    "name": "D4",
                    "midi": 62,
                    "time": 147.6000000000013,
                    "velocity": 0.3858267716535433,
                    "duration": 0.11750000000000682
                },
                {
                    "name": "E4",
                    "midi": 64,
                    "time": 147.7175000000013,
                    "velocity": 0.3858267716535433,
                    "duration": 0.12250000000000227
                },
                {
                    "name": "F#4",
                    "midi": 66,
                    "time": 147.8400000000013,
                    "velocity": 0.3858267716535433,
                    "duration": 0.11750000000000682
                },
                {
                    "name": "A4",
                    "midi": 69,
                    "time": 147.95750000000132,
                    "velocity": 0.3858267716535433,
                    "duration": 0.12250000000000227
                },
                {
                    "name": "G4",
                    "midi": 67,
                    "time": 148.08000000000132,
                    "velocity": 0.3858267716535433,
                    "duration": 0.12000000000000455
                },
                {
                    "name": "F#4",
                    "midi": 66,
                    "time": 148.20000000000132,
                    "velocity": 0.3858267716535433,
                    "duration": 0.11750000000000682
                },
                {
                    "name": "E4",
                    "midi": 64,
                    "time": 148.31750000000133,
                    "velocity": 0.3858267716535433,
                    "duration": 0.12250000000000227
                },
                {
                    "name": "D4",
                    "midi": 62,
                    "time": 148.44000000000133,
                    "velocity": 0.3858267716535433,
                    "duration": 0.11750000000000682
                },
                {
                    "name": "E4",
                    "midi": 64,
                    "time": 148.55750000000134,
                    "velocity": 0.3858267716535433,
                    "duration": 0.12250000000000227
                },
                {
                    "name": "C4",
                    "midi": 60,
                    "time": 148.68000000000134,
                    "velocity": 0.3858267716535433,
                    "duration": 0.12000000000000455
                },
                {
                    "name": "D4",
                    "midi": 62,
                    "time": 148.80000000000135,
                    "velocity": 0.4881889763779528,
                    "duration": 0.15000000000000568
                },
                {
                    "name": "E4",
                    "midi": 64,
                    "time": 148.95000000000135,
                    "velocity": 0.4881889763779528,
                    "duration": 0.15000000000000568
                },
                {
                    "name": "D4",
                    "midi": 62,
                    "time": 149.10000000000136,
                    "velocity": 0.4881889763779528,
                    "duration": 0.15000000000000568
                },
                {
                    "name": "E4",
                    "midi": 64,
                    "time": 149.25000000000136,
                    "velocity": 0.4881889763779528,
                    "duration": 0.15000000000000568
                },
                {
                    "name": "D4",
                    "midi": 62,
                    "time": 149.40000000000137,
                    "velocity": 0.4881889763779528,
                    "duration": 0.15000000000000568
                },
                {
                    "name": "E4",
                    "midi": 64,
                    "time": 149.55000000000138,
                    "velocity": 0.4881889763779528,
                    "duration": 0.15000000000000568
                },
                {
                    "name": "D4",
                    "midi": 62,
                    "time": 149.70000000000138,
                    "velocity": 0.4881889763779528,
                    "duration": 0.15000000000000568
                },
                {
                    "name": "E4",
                    "midi": 64,
                    "time": 149.8500000000014,
                    "velocity": 0.4881889763779528,
                    "duration": 0.15000000000000568
                },
                {
                    "name": "D4",
                    "midi": 62,
                    "time": 150.0000000000014,
                    "velocity": 0.4881889763779528,
                    "duration": 0.11750000000000682
                },
                {
                    "name": "E4",
                    "midi": 64,
                    "time": 150.1175000000014,
                    "velocity": 0.4881889763779528,
                    "duration": 0.12250000000000227
                },
                {
                    "name": "F#4",
                    "midi": 66,
                    "time": 150.2400000000014,
                    "velocity": 0.4881889763779528,
                    "duration": 0.11750000000000682
                },
                {
                    "name": "A4",
                    "midi": 69,
                    "time": 150.3575000000014,
                    "velocity": 0.4881889763779528,
                    "duration": 0.12250000000000227
                },
                {
                    "name": "G4",
                    "midi": 67,
                    "time": 150.4800000000014,
                    "velocity": 0.4881889763779528,
                    "duration": 0.12000000000000455
                },
                {
                    "name": "F#4",
                    "midi": 66,
                    "time": 150.60000000000142,
                    "velocity": 0.4881889763779528,
                    "duration": 0.11750000000000682
                },
                {
                    "name": "E4",
                    "midi": 64,
                    "time": 150.71750000000142,
                    "velocity": 0.4881889763779528,
                    "duration": 0.12250000000000227
                },
                {
                    "name": "D4",
                    "midi": 62,
                    "time": 150.84000000000142,
                    "velocity": 0.4881889763779528,
                    "duration": 0.11750000000000682
                },
                {
                    "name": "E4",
                    "midi": 64,
                    "time": 150.95750000000143,
                    "velocity": 0.4881889763779528,
                    "duration": 0.12250000000000227
                },
                {
                    "name": "C4",
                    "midi": 60,
                    "time": 151.08000000000143,
                    "velocity": 0.4881889763779528,
                    "duration": 0.12000000000000455
                },
                {
                    "name": "D4",
                    "midi": 62,
                    "time": 151.20000000000144,
                    "velocity": 0.4881889763779528,
                    "duration": 0.15000000000000568
                },
                {
                    "name": "E4",
                    "midi": 64,
                    "time": 151.35000000000144,
                    "velocity": 0.4881889763779528,
                    "duration": 0.15000000000000568
                },
                {
                    "name": "D4",
                    "midi": 62,
                    "time": 151.50000000000145,
                    "velocity": 0.4881889763779528,
                    "duration": 0.15000000000000568
                },
                {
                    "name": "E4",
                    "midi": 64,
                    "time": 151.65000000000146,
                    "velocity": 0.4881889763779528,
                    "duration": 0.15000000000000568
                },
                {
                    "name": "D4",
                    "midi": 62,
                    "time": 151.80000000000146,
                    "velocity": 0.4881889763779528,
                    "duration": 0.15000000000000568
                },
                {
                    "name": "E4",
                    "midi": 64,
                    "time": 151.95000000000147,
                    "velocity": 0.4881889763779528,
                    "duration": 0.15000000000000568
                },
                {
                    "name": "D4",
                    "midi": 62,
                    "time": 152.10000000000147,
                    "velocity": 0.4881889763779528,
                    "duration": 0.15000000000000568
                },
                {
                    "name": "E4",
                    "midi": 64,
                    "time": 152.25000000000148,
                    "velocity": 0.4881889763779528,
                    "duration": 0.15000000000000568
                },
                {
                    "name": "D4",
                    "midi": 62,
                    "time": 152.40000000000148,
                    "velocity": 0.4881889763779528,
                    "duration": 0.11750000000000682
                },
                {
                    "name": "E4",
                    "midi": 64,
                    "time": 152.5175000000015,
                    "velocity": 0.4881889763779528,
                    "duration": 0.12250000000000227
                },
                {
                    "name": "F#4",
                    "midi": 66,
                    "time": 152.6400000000015,
                    "velocity": 0.4881889763779528,
                    "duration": 0.11750000000000682
                },
                {
                    "name": "A4",
                    "midi": 69,
                    "time": 152.7575000000015,
                    "velocity": 0.4881889763779528,
                    "duration": 0.12250000000000227
                },
                {
                    "name": "G4",
                    "midi": 67,
                    "time": 152.8800000000015,
                    "velocity": 0.4881889763779528,
                    "duration": 0.12000000000000455
                },
                {
                    "name": "F#4",
                    "midi": 66,
                    "time": 153.0000000000015,
                    "velocity": 0.4881889763779528,
                    "duration": 0.11750000000000682
                },
                {
                    "name": "E4",
                    "midi": 64,
                    "time": 153.1175000000015,
                    "velocity": 0.4881889763779528,
                    "duration": 0.12250000000000227
                },
                {
                    "name": "D4",
                    "midi": 62,
                    "time": 153.24000000000152,
                    "velocity": 0.4881889763779528,
                    "duration": 0.11750000000000682
                },
                {
                    "name": "E4",
                    "midi": 64,
                    "time": 153.35750000000152,
                    "velocity": 0.4881889763779528,
                    "duration": 0.12250000000000227
                },
                {
                    "name": "C4",
                    "midi": 60,
                    "time": 153.48000000000152,
                    "velocity": 0.4881889763779528,
                    "duration": 0.12000000000000455
                },
                {
                    "name": "D4",
                    "midi": 62,
                    "time": 153.60000000000153,
                    "velocity": 0.4881889763779528,
                    "duration": 0.037499999999994316
                },
                {
                    "name": "E4",
                    "midi": 64,
                    "time": 153.77000000000152,
                    "velocity": 0.4881889763779528,
                    "duration": 0.037499999999994316
                },
                {
                    "name": "F#4",
                    "midi": 66,
                    "time": 153.9425000000015,
                    "velocity": 0.4881889763779528,
                    "duration": 0.037499999999994316
                },
                {
                    "name": "A4",
                    "midi": 69,
                    "time": 154.1125000000015,
                    "velocity": 0.4881889763779528,
                    "duration": 0.17250000000001364
                },
                {
                    "name": "G4",
                    "midi": 67,
                    "time": 154.2850000000015,
                    "velocity": 0.4881889763779528,
                    "duration": 0.1699999999999875
                },
                {
                    "name": "F#4",
                    "midi": 66,
                    "time": 154.4550000000015,
                    "velocity": 0.4881889763779528,
                    "duration": 0.17250000000001364
                },
                {
                    "name": "E4",
                    "midi": 64,
                    "time": 154.6275000000015,
                    "velocity": 0.4881889763779528,
                    "duration": 0.17250000000001364
                },
                {
                    "name": "F#4",
                    "midi": 66,
                    "time": 154.80000000000152,
                    "velocity": 0.4881889763779528,
                    "duration": 0.15000000000000568
                },
                {
                    "name": "G4",
                    "midi": 67,
                    "time": 154.95000000000152,
                    "velocity": 0.4881889763779528,
                    "duration": 0.15000000000000568
                },
                {
                    "name": "F#4",
                    "midi": 66,
                    "time": 155.10000000000153,
                    "velocity": 0.4881889763779528,
                    "duration": 0.15000000000000568
                },
                {
                    "name": "G4",
                    "midi": 67,
                    "time": 155.25000000000153,
                    "velocity": 0.4881889763779528,
                    "duration": 0.15000000000000568
                },
                {
                    "name": "F#4",
                    "midi": 66,
                    "time": 155.40000000000154,
                    "velocity": 0.4881889763779528,
                    "duration": 0.15000000000000568
                },
                {
                    "name": "D4",
                    "midi": 62,
                    "time": 155.55000000000155,
                    "velocity": 0.4881889763779528,
                    "duration": 0.15000000000000568
                },
                {
                    "name": "E4",
                    "midi": 64,
                    "time": 155.70000000000155,
                    "velocity": 0.4881889763779528,
                    "duration": 0.15000000000000568
                },
                {
                    "name": "C4",
                    "midi": 60,
                    "time": 155.85000000000156,
                    "velocity": 0.4881889763779528,
                    "duration": 0.15000000000000568
                },
                {
                    "name": "D4",
                    "midi": 62,
                    "time": 156.00000000000156,
                    "velocity": 0.4881889763779528,
                    "duration": 0.11750000000000682
                },
                {
                    "name": "E4",
                    "midi": 64,
                    "time": 156.11750000000157,
                    "velocity": 0.4881889763779528,
                    "duration": 0.12250000000000227
                },
                {
                    "name": "F#4",
                    "midi": 66,
                    "time": 156.24000000000157,
                    "velocity": 0.4881889763779528,
                    "duration": 0.11750000000000682
                },
                {
                    "name": "A4",
                    "midi": 69,
                    "time": 156.35750000000158,
                    "velocity": 0.4881889763779528,
                    "duration": 0.12250000000000227
                },
                {
                    "name": "G4",
                    "midi": 67,
                    "time": 156.48000000000158,
                    "velocity": 0.4881889763779528,
                    "duration": 0.12000000000000455
                },
                {
                    "name": "F#4",
                    "midi": 66,
                    "time": 156.6000000000016,
                    "velocity": 0.4881889763779528,
                    "duration": 0.11750000000000682
                },
                {
                    "name": "E4",
                    "midi": 64,
                    "time": 156.7175000000016,
                    "velocity": 0.4881889763779528,
                    "duration": 0.12250000000000227
                },
                {
                    "name": "D4",
                    "midi": 62,
                    "time": 156.8400000000016,
                    "velocity": 0.4881889763779528,
                    "duration": 0.11750000000000682
                },
                {
                    "name": "E4",
                    "midi": 64,
                    "time": 156.9575000000016,
                    "velocity": 0.4881889763779528,
                    "duration": 0.12250000000000227
                },
                {
                    "name": "C4",
                    "midi": 60,
                    "time": 157.0800000000016,
                    "velocity": 0.4881889763779528,
                    "duration": 0.12000000000000455
                },
                {
                    "name": "D4",
                    "midi": 62,
                    "time": 157.2000000000016,
                    "velocity": 0.4881889763779528,
                    "duration": 0.11750000000000682
                },
                {
                    "name": "E4",
                    "midi": 64,
                    "time": 157.31750000000162,
                    "velocity": 0.4881889763779528,
                    "duration": 0.12250000000000227
                },
                {
                    "name": "F#4",
                    "midi": 66,
                    "time": 157.44000000000162,
                    "velocity": 0.4881889763779528,
                    "duration": 0.11750000000000682
                },
                {
                    "name": "A4",
                    "midi": 69,
                    "time": 157.55750000000162,
                    "velocity": 0.4881889763779528,
                    "duration": 0.12250000000000227
                },
                {
                    "name": "G4",
                    "midi": 67,
                    "time": 157.68000000000163,
                    "velocity": 0.4881889763779528,
                    "duration": 0.12000000000000455
                },
                {
                    "name": "F#4",
                    "midi": 66,
                    "time": 157.80000000000163,
                    "velocity": 0.4881889763779528,
                    "duration": 0.11750000000000682
                },
                {
                    "name": "E4",
                    "midi": 64,
                    "time": 157.91750000000164,
                    "velocity": 0.4881889763779528,
                    "duration": 0.12250000000000227
                },
                {
                    "name": "D4",
                    "midi": 62,
                    "time": 158.04000000000164,
                    "velocity": 0.4881889763779528,
                    "duration": 0.11750000000000682
                },
                {
                    "name": "E4",
                    "midi": 64,
                    "time": 158.15750000000165,
                    "velocity": 0.4881889763779528,
                    "duration": 0.12250000000000227
                },
                {
                    "name": "E3",
                    "midi": 52,
                    "time": 158.17500000000166,
                    "velocity": 0.4881889763779528,
                    "duration": 0.6224999999999739
                },
                {
                    "name": "G3",
                    "midi": 55,
                    "time": 158.25000000000165,
                    "velocity": 0.4881889763779528,
                    "duration": 0.5474999999999852
                },
                {
                    "name": "C4",
                    "midi": 60,
                    "time": 158.28000000000165,
                    "velocity": 0.4881889763779528,
                    "duration": 0.11999999999997613
                },
                {
                    "name": "G#3",
                    "midi": 56,
                    "time": 158.32500000000164,
                    "velocity": 0.4881889763779528,
                    "duration": 0.4724999999999966
                },
                {
                    "name": "D4",
                    "midi": 62,
                    "time": 158.40000000000163,
                    "velocity": 0.3858267716535433,
                    "duration": 0.39750000000000796
                },
                {
                    "name": "B2",
                    "midi": 47,
                    "time": 158.79750000000163,
                    "velocity": 0.3858267716535433,
                    "duration": 0.4025000000000034
                },
                {
                    "name": "B1",
                    "midi": 35,
                    "time": 159.20000000000164,
                    "velocity": 0.3858267716535433,
                    "duration": 0.7975000000000136
                },
                {
                    "name": "G2",
                    "midi": 43,
                    "time": 159.60000000000164,
                    "velocity": 0.3858267716535433,
                    "duration": 0.39750000000000796
                },
                {
                    "name": "G#2",
                    "midi": 44,
                    "time": 159.60000000000164,
                    "velocity": 0.3858267716535433,
                    "duration": 0.39750000000000796
                },
                {
                    "name": "D3",
                    "midi": 50,
                    "time": 159.60000000000164,
                    "velocity": 0.3858267716535433,
                    "duration": 0.39750000000000796
                },
                {
                    "name": "D4",
                    "midi": 62,
                    "time": 160.80000000000166,
                    "velocity": 0.4881889763779528,
                    "duration": 0.30000000000001137
                },
                {
                    "name": "F4",
                    "midi": 65,
                    "time": 161.10000000000167,
                    "velocity": 0.4881889763779528,
                    "duration": 0.09749999999999659
                },
                {
                    "name": "D#4",
                    "midi": 63,
                    "time": 161.19750000000167,
                    "velocity": 0.4881889763779528,
                    "duration": 0.4025000000000034
                },
                {
                    "name": "D4",
                    "midi": 62,
                    "time": 161.60000000000167,
                    "velocity": 0.4881889763779528,
                    "duration": 0.4000000000000057
                },
                {
                    "name": "B3",
                    "midi": 59,
                    "time": 162.00000000000168,
                    "velocity": 0.4881889763779528,
                    "duration": 0.39750000000000796
                },
                {
                    "name": "D#4",
                    "midi": 63,
                    "time": 162.39750000000168,
                    "velocity": 0.4881889763779528,
                    "duration": 0.30000000000001137
                },
                {
                    "name": "F4",
                    "midi": 65,
                    "time": 162.6975000000017,
                    "velocity": 0.4881889763779528,
                    "duration": 0.10249999999999204
                },
                {
                    "name": "D#4",
                    "midi": 63,
                    "time": 162.8000000000017,
                    "velocity": 0.4881889763779528,
                    "duration": 0.4000000000000057
                },
                {
                    "name": "D4",
                    "midi": 62,
                    "time": 163.2000000000017,
                    "velocity": 0.4881889763779528,
                    "duration": 0.30000000000001137
                },
                {
                    "name": "F4",
                    "midi": 65,
                    "time": 163.5000000000017,
                    "velocity": 0.4881889763779528,
                    "duration": 0.09749999999999659
                },
                {
                    "name": "D#4",
                    "midi": 63,
                    "time": 163.5975000000017,
                    "velocity": 0.4881889763779528,
                    "duration": 0.4025000000000034
                },
                {
                    "name": "D4",
                    "midi": 62,
                    "time": 164.0000000000017,
                    "velocity": 0.4881889763779528,
                    "duration": 0.39999999999994884
                },
                {
                    "name": "E3",
                    "midi": 52,
                    "time": 164.1750000000017,
                    "velocity": 0.4881889763779528,
                    "duration": 0.6224999999999739
                },
                {
                    "name": "G3",
                    "midi": 55,
                    "time": 164.25000000000168,
                    "velocity": 0.4881889763779528,
                    "duration": 0.5474999999999852
                },
                {
                    "name": "G#3",
                    "midi": 56,
                    "time": 164.32500000000167,
                    "velocity": 0.4881889763779528,
                    "duration": 0.4724999999999966
                },
                {
                    "name": "D4",
                    "midi": 62,
                    "time": 164.40000000000165,
                    "velocity": 0.4881889763779528,
                    "duration": 0.39750000000000796
                },
                {
                    "name": "B2",
                    "midi": 47,
                    "time": 164.79750000000166,
                    "velocity": 0.4881889763779528,
                    "duration": 0.4025000000000034
                },
                {
                    "name": "B1",
                    "midi": 35,
                    "time": 165.20000000000167,
                    "velocity": 0.4881889763779528,
                    "duration": 0.4000000000000057
                },
                {
                    "name": "C#4",
                    "midi": 61,
                    "time": 165.60000000000167,
                    "velocity": 0.4881889763779528,
                    "duration": 0.2400000000000091
                },
                {
                    "name": "F4",
                    "midi": 65,
                    "time": 165.84000000000168,
                    "velocity": 0.4881889763779528,
                    "duration": 0.2400000000000091
                },
                {
                    "name": "C#4",
                    "midi": 61,
                    "time": 166.0800000000017,
                    "velocity": 0.4881889763779528,
                    "duration": 0.23750000000001137
                },
                {
                    "name": "D#4",
                    "midi": 63,
                    "time": 166.3175000000017,
                    "velocity": 0.4881889763779528,
                    "duration": 0.2400000000000091
                },
                {
                    "name": "D4",
                    "midi": 62,
                    "time": 166.5575000000017,
                    "velocity": 0.4881889763779528,
                    "duration": 0.24250000000000682
                },
                {
                    "name": "F4",
                    "midi": 65,
                    "time": 169.6500000000017,
                    "velocity": 0.4881889763779528,
                    "duration": 0.07499999999998863
                },
                {
                    "name": "A#4",
                    "midi": 70,
                    "time": 169.7250000000017,
                    "velocity": 0.4881889763779528,
                    "duration": 0.07499999999998863
                },
                {
                    "name": "G4",
                    "midi": 67,
                    "time": 169.8000000000017,
                    "velocity": 0.4881889763779528,
                    "duration": 0.5999999999999943
                },
                {
                    "name": "A#4",
                    "midi": 70,
                    "time": 170.40000000000168,
                    "velocity": 0.4881889763779528,
                    "duration": 0.19999999999998863
                },
                {
                    "name": "G#4",
                    "midi": 68,
                    "time": 170.60000000000167,
                    "velocity": 0.4881889763779528,
                    "duration": 0.1974999999999909
                },
                {
                    "name": "F4",
                    "midi": 65,
                    "time": 170.79750000000166,
                    "velocity": 0.4881889763779528,
                    "duration": 0.20249999999998636
                },
                {
                    "name": "G4",
                    "midi": 67,
                    "time": 171.00000000000165,
                    "velocity": 0.4881889763779528,
                    "duration": 0.5999999999999943
                },
                {
                    "name": "A#3",
                    "midi": 58,
                    "time": 171.60000000000164,
                    "velocity": 0.4881889763779528,
                    "duration": 0.5999999999999659
                },
                {
                    "name": "G3",
                    "midi": 55,
                    "time": 171.97500000000164,
                    "velocity": 0.4881889763779528,
                    "duration": 0.8249999999999602
                },
                {
                    "name": "G#3",
                    "midi": 56,
                    "time": 172.05000000000163,
                    "velocity": 0.4881889763779528,
                    "duration": 0.7499999999999716
                },
                {
                    "name": "A#3",
                    "midi": 58,
                    "time": 172.12500000000162,
                    "velocity": 0.4881889763779528,
                    "duration": 0.674999999999983
                },
                {
                    "name": "F4",
                    "midi": 65,
                    "time": 172.2000000000016,
                    "velocity": 0.4881889763779528,
                    "duration": 0.9975000000000023
                },
                {
                    "name": "E4",
                    "midi": 64,
                    "time": 173.1975000000016,
                    "velocity": 0.4881889763779528,
                    "duration": 0.30000000000001137
                },
                {
                    "name": "F4",
                    "midi": 65,
                    "time": 173.49750000000162,
                    "velocity": 0.4881889763779528,
                    "duration": 0.10249999999999204
                },
                {
                    "name": "D#4",
                    "midi": 63,
                    "time": 173.60000000000161,
                    "velocity": 0.4881889763779528,
                    "duration": 0.4000000000000057
                },
                {
                    "name": "D4",
                    "midi": 62,
                    "time": 174.00000000000162,
                    "velocity": 0.4881889763779528,
                    "duration": 0.30000000000001137
                },
                {
                    "name": "F4",
                    "midi": 65,
                    "time": 174.30000000000163,
                    "velocity": 0.4881889763779528,
                    "duration": 0.09749999999999659
                },
                {
                    "name": "D#4",
                    "midi": 63,
                    "time": 174.39750000000163,
                    "velocity": 0.4881889763779528,
                    "duration": 0.4025000000000034
                },
                {
                    "name": "D4",
                    "midi": 62,
                    "time": 174.80000000000163,
                    "velocity": 0.4881889763779528,
                    "duration": 0.4000000000000057
                },
                {
                    "name": "G3",
                    "midi": 55,
                    "time": 174.96000000000163,
                    "velocity": 0.4881889763779528,
                    "duration": 0.1675000000000182
                },
                {
                    "name": "G#3",
                    "midi": 56,
                    "time": 175.02000000000163,
                    "velocity": 0.4881889763779528,
                    "duration": 0.15500000000000114
                },
                {
                    "name": "B3",
                    "midi": 59,
                    "time": 175.08000000000163,
                    "velocity": 0.4881889763779528,
                    "duration": 0.1425000000000125
                },
                {
                    "name": "D4",
                    "midi": 62,
                    "time": 175.14000000000163,
                    "velocity": 0.4881889763779528,
                    "duration": 0.1325000000000216
                },
                {
                    "name": "A#4",
                    "midi": 70,
                    "time": 175.20000000000164,
                    "velocity": 0.4881889763779528,
                    "duration": 0.11750000000000682
                },
                {
                    "name": "B1",
                    "midi": 35,
                    "time": 175.80000000000163,
                    "velocity": 0.5905511811023622,
                    "duration": 0.15000000000000568
                },
                {
                    "name": "E2",
                    "midi": 40,
                    "time": 175.80000000000163,
                    "velocity": 0.5905511811023622,
                    "duration": 0.15000000000000568
                },
                {
                    "name": "G2",
                    "midi": 43,
                    "time": 175.95000000000164,
                    "velocity": 0.5905511811023622,
                    "duration": 0.15000000000000568
                },
                {
                    "name": "D3",
                    "midi": 50,
                    "time": 176.10000000000164,
                    "velocity": 0.5905511811023622,
                    "duration": 0.15000000000000568
                },
                {
                    "name": "F#3",
                    "midi": 54,
                    "time": 176.25000000000165,
                    "velocity": 0.5905511811023622,
                    "duration": 0.15000000000000568
                },
                {
                    "name": "E3",
                    "midi": 52,
                    "time": 176.40000000000165,
                    "velocity": 0.5905511811023622,
                    "duration": 0.15000000000000568
                },
                {
                    "name": "A#3",
                    "midi": 58,
                    "time": 176.55000000000166,
                    "velocity": 0.5905511811023622,
                    "duration": 0.15000000000000568
                },
                {
                    "name": "D3",
                    "midi": 50,
                    "time": 176.70000000000167,
                    "velocity": 0.5905511811023622,
                    "duration": 0.15000000000000568
                },
                {
                    "name": "G2",
                    "midi": 43,
                    "time": 176.85000000000167,
                    "velocity": 0.5905511811023622,
                    "duration": 0.15000000000000568
                },
                {
                    "name": "E2",
                    "midi": 40,
                    "time": 177.00000000000168,
                    "velocity": 0.5905511811023622,
                    "duration": 0.11750000000000682
                },
                {
                    "name": "G#4",
                    "midi": 68,
                    "time": 177.60000000000167,
                    "velocity": 0.4881889763779528,
                    "duration": 0.15000000000000568
                },
                {
                    "name": "A#4",
                    "midi": 70,
                    "time": 177.75000000000168,
                    "velocity": 0.4881889763779528,
                    "duration": 0.15000000000000568
                },
                {
                    "name": "G#4",
                    "midi": 68,
                    "time": 177.90000000000168,
                    "velocity": 0.4881889763779528,
                    "duration": 0.15000000000000568
                },
                {
                    "name": "A#4",
                    "midi": 70,
                    "time": 178.0500000000017,
                    "velocity": 0.4881889763779528,
                    "duration": 0.15000000000000568
                },
                {
                    "name": "G#4",
                    "midi": 68,
                    "time": 178.2000000000017,
                    "velocity": 0.4881889763779528,
                    "duration": 0.15000000000000568
                },
                {
                    "name": "A#4",
                    "midi": 70,
                    "time": 178.3500000000017,
                    "velocity": 0.4881889763779528,
                    "duration": 0.15000000000000568
                },
                {
                    "name": "G#4",
                    "midi": 68,
                    "time": 178.5000000000017,
                    "velocity": 0.4881889763779528,
                    "duration": 0.15000000000000568
                },
                {
                    "name": "A#4",
                    "midi": 70,
                    "time": 178.6500000000017,
                    "velocity": 0.4881889763779528,
                    "duration": 0.15000000000000568
                },
                {
                    "name": "G4",
                    "midi": 67,
                    "time": 178.80000000000172,
                    "velocity": 0.5905511811023622,
                    "duration": 0.44999999999998863
                },
                {
                    "name": "F4",
                    "midi": 65,
                    "time": 179.2500000000017,
                    "velocity": 0.5905511811023622,
                    "duration": 0.07499999999998863
                },
                {
                    "name": "A#4",
                    "midi": 70,
                    "time": 179.3250000000017,
                    "velocity": 0.5905511811023622,
                    "duration": 0.07499999999998863
                },
                {
                    "name": "G4",
                    "midi": 67,
                    "time": 179.40000000000168,
                    "velocity": 0.5905511811023622,
                    "duration": 0.5999999999999943
                },
                {
                    "name": "B1",
                    "midi": 35,
                    "time": 180.00000000000168,
                    "velocity": 0.5905511811023622,
                    "duration": 0.15000000000000568
                },
                {
                    "name": "E2",
                    "midi": 40,
                    "time": 180.00000000000168,
                    "velocity": 0.5905511811023622,
                    "duration": 0.15000000000000568
                },
                {
                    "name": "G2",
                    "midi": 43,
                    "time": 180.15000000000168,
                    "velocity": 0.5905511811023622,
                    "duration": 0.15000000000000568
                },
                {
                    "name": "D3",
                    "midi": 50,
                    "time": 180.3000000000017,
                    "velocity": 0.5905511811023622,
                    "duration": 0.15000000000000568
                },
                {
                    "name": "F#3",
                    "midi": 54,
                    "time": 180.4500000000017,
                    "velocity": 0.5905511811023622,
                    "duration": 0.15000000000000568
                },
                {
                    "name": "E3",
                    "midi": 52,
                    "time": 180.6000000000017,
                    "velocity": 0.5905511811023622,
                    "duration": 0.15000000000000568
                },
                {
                    "name": "A#3",
                    "midi": 58,
                    "time": 180.7500000000017,
                    "velocity": 0.5905511811023622,
                    "duration": 0.15000000000000568
                },
                {
                    "name": "D3",
                    "midi": 50,
                    "time": 180.9000000000017,
                    "velocity": 0.5905511811023622,
                    "duration": 0.15000000000000568
                },
                {
                    "name": "G2",
                    "midi": 43,
                    "time": 181.05000000000172,
                    "velocity": 0.5905511811023622,
                    "duration": 0.15000000000000568
                },
                {
                    "name": "E2",
                    "midi": 40,
                    "time": 181.20000000000172,
                    "velocity": 0.5905511811023622,
                    "duration": 0.11750000000000682
                },
                {
                    "name": "G#4",
                    "midi": 68,
                    "time": 181.80000000000172,
                    "velocity": 0.4881889763779528,
                    "duration": 0.15000000000000568
                },
                {
                    "name": "A#4",
                    "midi": 70,
                    "time": 181.95000000000172,
                    "velocity": 0.4881889763779528,
                    "duration": 0.15000000000000568
                },
                {
                    "name": "G#4",
                    "midi": 68,
                    "time": 182.10000000000173,
                    "velocity": 0.4881889763779528,
                    "duration": 0.15000000000000568
                },
                {
                    "name": "A#4",
                    "midi": 70,
                    "time": 182.25000000000173,
                    "velocity": 0.4881889763779528,
                    "duration": 0.15000000000000568
                },
                {
                    "name": "G#4",
                    "midi": 68,
                    "time": 182.40000000000174,
                    "velocity": 0.4881889763779528,
                    "duration": 0.15000000000000568
                },
                {
                    "name": "A#4",
                    "midi": 70,
                    "time": 182.55000000000175,
                    "velocity": 0.4881889763779528,
                    "duration": 0.15000000000000568
                },
                {
                    "name": "G#4",
                    "midi": 68,
                    "time": 182.70000000000175,
                    "velocity": 0.4881889763779528,
                    "duration": 0.15000000000000568
                },
                {
                    "name": "A#4",
                    "midi": 70,
                    "time": 182.85000000000176,
                    "velocity": 0.4881889763779528,
                    "duration": 0.15000000000000568
                },
                {
                    "name": "B1",
                    "midi": 35,
                    "time": 183.00000000000176,
                    "velocity": 0.5905511811023622,
                    "duration": 0.15000000000000568
                },
                {
                    "name": "E2",
                    "midi": 40,
                    "time": 183.00000000000176,
                    "velocity": 0.5905511811023622,
                    "duration": 0.15000000000000568
                },
                {
                    "name": "G2",
                    "midi": 43,
                    "time": 183.15000000000177,
                    "velocity": 0.5905511811023622,
                    "duration": 0.15000000000000568
                },
                {
                    "name": "D3",
                    "midi": 50,
                    "time": 183.30000000000177,
                    "velocity": 0.5905511811023622,
                    "duration": 0.15000000000000568
                },
                {
                    "name": "F#3",
                    "midi": 54,
                    "time": 183.45000000000178,
                    "velocity": 0.5905511811023622,
                    "duration": 0.15000000000000568
                },
                {
                    "name": "E3",
                    "midi": 52,
                    "time": 183.60000000000178,
                    "velocity": 0.5905511811023622,
                    "duration": 0.15000000000000568
                },
                {
                    "name": "A#3",
                    "midi": 58,
                    "time": 183.7500000000018,
                    "velocity": 0.5905511811023622,
                    "duration": 0.15000000000000568
                },
                {
                    "name": "D3",
                    "midi": 50,
                    "time": 183.9000000000018,
                    "velocity": 0.5905511811023622,
                    "duration": 0.15000000000000568
                },
                {
                    "name": "G2",
                    "midi": 43,
                    "time": 184.0500000000018,
                    "velocity": 0.5905511811023622,
                    "duration": 0.15000000000000568
                },
                {
                    "name": "E2",
                    "midi": 40,
                    "time": 184.2000000000018,
                    "velocity": 0.5905511811023622,
                    "duration": 0.11750000000000682
                },
                {
                    "name": "C#4",
                    "midi": 61,
                    "time": 196.8000000000018,
                    "velocity": 0.4881889763779528,
                    "duration": 0.05750000000000455
                },
                {
                    "name": "A#3",
                    "midi": 58,
                    "time": 197.1000000000018,
                    "velocity": 0.4881889763779528,
                    "duration": 0.05750000000000455
                },
                {
                    "name": "D#4",
                    "midi": 63,
                    "time": 197.40000000000182,
                    "velocity": 0.4881889763779528,
                    "duration": 0.05750000000000455
                },
                {
                    "name": "A#3",
                    "midi": 58,
                    "time": 197.70000000000184,
                    "velocity": 0.4881889763779528,
                    "duration": 0.05750000000000455
                },
                {
                    "name": "C#4",
                    "midi": 61,
                    "time": 198.00000000000185,
                    "velocity": 0.4881889763779528,
                    "duration": 0.05750000000000455
                },
                {
                    "name": "A#3",
                    "midi": 58,
                    "time": 198.30000000000186,
                    "velocity": 0.4881889763779528,
                    "duration": 0.05750000000000455
                },
                {
                    "name": "D#4",
                    "midi": 63,
                    "time": 198.60000000000187,
                    "velocity": 0.4881889763779528,
                    "duration": 0.05750000000000455
                },
                {
                    "name": "A#3",
                    "midi": 58,
                    "time": 198.90000000000188,
                    "velocity": 0.4881889763779528,
                    "duration": 0.05750000000000455
                },
                {
                    "name": "C#4",
                    "midi": 61,
                    "time": 200.40000000000188,
                    "velocity": 0.4881889763779528,
                    "duration": 0.05750000000000455
                },
                {
                    "name": "A#3",
                    "midi": 58,
                    "time": 200.7000000000019,
                    "velocity": 0.4881889763779528,
                    "duration": 0.05750000000000455
                },
                {
                    "name": "D#4",
                    "midi": 63,
                    "time": 201.0000000000019,
                    "velocity": 0.4881889763779528,
                    "duration": 0.05750000000000455
                },
                {
                    "name": "A#3",
                    "midi": 58,
                    "time": 201.30000000000192,
                    "velocity": 0.4881889763779528,
                    "duration": 0.05750000000000455
                },
                {
                    "name": "F#3",
                    "midi": 54,
                    "time": 209.4000000000019,
                    "velocity": 0.3858267716535433,
                    "duration": 3
                },
                {
                    "name": "A#3",
                    "midi": 58,
                    "time": 209.4000000000019,
                    "velocity": 0.3858267716535433,
                    "duration": 3
                },
                {
                    "name": "E4",
                    "midi": 64,
                    "time": 209.4000000000019,
                    "velocity": 0.3858267716535433,
                    "duration": 3
                },
                {
                    "name": "C#4",
                    "midi": 61,
                    "time": 212.4000000000019,
                    "velocity": 0.4881889763779528,
                    "duration": 0.05750000000000455
                },
                {
                    "name": "E4",
                    "midi": 64,
                    "time": 212.4000000000019,
                    "velocity": 0.4881889763779528,
                    "duration": 0.05750000000000455
                },
                {
                    "name": "A#3",
                    "midi": 58,
                    "time": 212.70000000000192,
                    "velocity": 0.4881889763779528,
                    "duration": 0.05750000000000455
                },
                {
                    "name": "D#4",
                    "midi": 63,
                    "time": 213.00000000000193,
                    "velocity": 0.4881889763779528,
                    "duration": 0.05750000000000455
                },
                {
                    "name": "A#3",
                    "midi": 58,
                    "time": 213.30000000000194,
                    "velocity": 0.4881889763779528,
                    "duration": 0.05750000000000455
                },
                {
                    "name": "C#4",
                    "midi": 61,
                    "time": 213.60000000000196,
                    "velocity": 0.4881889763779528,
                    "duration": 0.05750000000000455
                },
                {
                    "name": "A#3",
                    "midi": 58,
                    "time": 213.90000000000197,
                    "velocity": 0.4881889763779528,
                    "duration": 0.05750000000000455
                },
                {
                    "name": "D#4",
                    "midi": 63,
                    "time": 214.20000000000198,
                    "velocity": 0.4881889763779528,
                    "duration": 0.05750000000000455
                },
                {
                    "name": "A#3",
                    "midi": 58,
                    "time": 214.500000000002,
                    "velocity": 0.4881889763779528,
                    "duration": 0.05750000000000455
                },
                {
                    "name": "C#4",
                    "midi": 61,
                    "time": 214.800000000002,
                    "velocity": 0.4881889763779528,
                    "duration": 0.05750000000000455
                },
                {
                    "name": "A#3",
                    "midi": 58,
                    "time": 215.100000000002,
                    "velocity": 0.4881889763779528,
                    "duration": 0.05750000000000455
                },
                {
                    "name": "D#4",
                    "midi": 63,
                    "time": 215.40000000000202,
                    "velocity": 0.4881889763779528,
                    "duration": 0.05750000000000455
                },
                {
                    "name": "A#3",
                    "midi": 58,
                    "time": 215.70000000000203,
                    "velocity": 0.4881889763779528,
                    "duration": 0.05750000000000455
                },
                {
                    "name": "C#4",
                    "midi": 61,
                    "time": 216.00000000000205,
                    "velocity": 0.4881889763779528,
                    "duration": 0.05750000000000455
                },
                {
                    "name": "A#3",
                    "midi": 58,
                    "time": 216.30000000000206,
                    "velocity": 0.4881889763779528,
                    "duration": 0.05750000000000455
                },
                {
                    "name": "D#4",
                    "midi": 63,
                    "time": 216.60000000000207,
                    "velocity": 0.4881889763779528,
                    "duration": 0.05750000000000455
                },
                {
                    "name": "A#3",
                    "midi": 58,
                    "time": 216.90000000000208,
                    "velocity": 0.4881889763779528,
                    "duration": 0.05750000000000455
                },
                {
                    "name": "C#4",
                    "midi": 61,
                    "time": 217.2000000000021,
                    "velocity": 0.4881889763779528,
                    "duration": 0.05750000000000455
                },
                {
                    "name": "A#3",
                    "midi": 58,
                    "time": 217.5000000000021,
                    "velocity": 0.4881889763779528,
                    "duration": 0.05750000000000455
                },
                {
                    "name": "D#4",
                    "midi": 63,
                    "time": 217.80000000000211,
                    "velocity": 0.4881889763779528,
                    "duration": 0.05750000000000455
                },
                {
                    "name": "A#3",
                    "midi": 58,
                    "time": 218.10000000000213,
                    "velocity": 0.4881889763779528,
                    "duration": 0.05750000000000455
                },
                {
                    "name": "E2",
                    "midi": 40,
                    "time": 218.40000000000214,
                    "velocity": 0.5905511811023622,
                    "duration": 0.11750000000000682
                },
                {
                    "name": "G#2",
                    "midi": 44,
                    "time": 218.40000000000214,
                    "velocity": 0.5905511811023622,
                    "duration": 0.11750000000000682
                },
                {
                    "name": "B2",
                    "midi": 47,
                    "time": 218.40000000000214,
                    "velocity": 0.5905511811023622,
                    "duration": 0.11750000000000682
                },
                {
                    "name": "E3",
                    "midi": 52,
                    "time": 218.40000000000214,
                    "velocity": 0.5905511811023622,
                    "duration": 0.11750000000000682
                },
                {
                    "name": "E2",
                    "midi": 40,
                    "time": 219.00000000000213,
                    "velocity": 0.5905511811023622,
                    "duration": 0.11750000000000682
                },
                {
                    "name": "G#2",
                    "midi": 44,
                    "time": 219.00000000000213,
                    "velocity": 0.5905511811023622,
                    "duration": 0.11750000000000682
                },
                {
                    "name": "B2",
                    "midi": 47,
                    "time": 219.00000000000213,
                    "velocity": 0.5905511811023622,
                    "duration": 0.11750000000000682
                },
                {
                    "name": "E3",
                    "midi": 52,
                    "time": 219.00000000000213,
                    "velocity": 0.5905511811023622,
                    "duration": 0.11750000000000682
                },
                {
                    "name": "E2",
                    "midi": 40,
                    "time": 219.60000000000213,
                    "velocity": 0.5905511811023622,
                    "duration": 0.11750000000000682
                },
                {
                    "name": "G#2",
                    "midi": 44,
                    "time": 219.60000000000213,
                    "velocity": 0.5905511811023622,
                    "duration": 0.11750000000000682
                },
                {
                    "name": "B2",
                    "midi": 47,
                    "time": 219.60000000000213,
                    "velocity": 0.5905511811023622,
                    "duration": 0.11750000000000682
                },
                {
                    "name": "E3",
                    "midi": 52,
                    "time": 219.60000000000213,
                    "velocity": 0.5905511811023622,
                    "duration": 0.11750000000000682
                },
                {
                    "name": "E2",
                    "midi": 40,
                    "time": 220.20000000000212,
                    "velocity": 0.5905511811023622,
                    "duration": 0.11750000000000682
                },
                {
                    "name": "G#2",
                    "midi": 44,
                    "time": 220.20000000000212,
                    "velocity": 0.5905511811023622,
                    "duration": 0.11750000000000682
                },
                {
                    "name": "B2",
                    "midi": 47,
                    "time": 220.20000000000212,
                    "velocity": 0.5905511811023622,
                    "duration": 0.11750000000000682
                },
                {
                    "name": "E3",
                    "midi": 52,
                    "time": 220.20000000000212,
                    "velocity": 0.5905511811023622,
                    "duration": 0.11750000000000682
                },
                {
                    "name": "E2",
                    "midi": 40,
                    "time": 220.80000000000211,
                    "velocity": 0.5905511811023622,
                    "duration": 0.11750000000000682
                },
                {
                    "name": "G#2",
                    "midi": 44,
                    "time": 220.80000000000211,
                    "velocity": 0.5905511811023622,
                    "duration": 0.11750000000000682
                },
                {
                    "name": "B2",
                    "midi": 47,
                    "time": 220.80000000000211,
                    "velocity": 0.5905511811023622,
                    "duration": 0.11750000000000682
                },
                {
                    "name": "E3",
                    "midi": 52,
                    "time": 220.80000000000211,
                    "velocity": 0.5905511811023622,
                    "duration": 0.11750000000000682
                },
                {
                    "name": "E2",
                    "midi": 40,
                    "time": 221.4000000000021,
                    "velocity": 0.5905511811023622,
                    "duration": 0.11750000000000682
                },
                {
                    "name": "G#2",
                    "midi": 44,
                    "time": 221.4000000000021,
                    "velocity": 0.5905511811023622,
                    "duration": 0.11750000000000682
                },
                {
                    "name": "B2",
                    "midi": 47,
                    "time": 221.4000000000021,
                    "velocity": 0.5905511811023622,
                    "duration": 0.11750000000000682
                },
                {
                    "name": "E3",
                    "midi": 52,
                    "time": 221.4000000000021,
                    "velocity": 0.5905511811023622,
                    "duration": 0.11750000000000682
                },
                {
                    "name": "E2",
                    "midi": 40,
                    "time": 222.0000000000021,
                    "velocity": 0.5905511811023622,
                    "duration": 0.11750000000000682
                },
                {
                    "name": "G#2",
                    "midi": 44,
                    "time": 222.0000000000021,
                    "velocity": 0.5905511811023622,
                    "duration": 0.11750000000000682
                },
                {
                    "name": "B2",
                    "midi": 47,
                    "time": 222.0000000000021,
                    "velocity": 0.5905511811023622,
                    "duration": 0.11750000000000682
                },
                {
                    "name": "E3",
                    "midi": 52,
                    "time": 222.0000000000021,
                    "velocity": 0.5905511811023622,
                    "duration": 0.11750000000000682
                },
                {
                    "name": "E2",
                    "midi": 40,
                    "time": 222.6000000000021,
                    "velocity": 0.5905511811023622,
                    "duration": 0.11750000000000682
                },
                {
                    "name": "G#2",
                    "midi": 44,
                    "time": 222.6000000000021,
                    "velocity": 0.5905511811023622,
                    "duration": 0.11750000000000682
                },
                {
                    "name": "B2",
                    "midi": 47,
                    "time": 222.6000000000021,
                    "velocity": 0.5905511811023622,
                    "duration": 0.11750000000000682
                },
                {
                    "name": "E3",
                    "midi": 52,
                    "time": 222.6000000000021,
                    "velocity": 0.5905511811023622,
                    "duration": 0.11750000000000682
                },
                {
                    "name": "E2",
                    "midi": 40,
                    "time": 223.2000000000021,
                    "velocity": 0.5905511811023622,
                    "duration": 0.11750000000000682
                },
                {
                    "name": "G#2",
                    "midi": 44,
                    "time": 223.2000000000021,
                    "velocity": 0.5905511811023622,
                    "duration": 0.11750000000000682
                },
                {
                    "name": "B2",
                    "midi": 47,
                    "time": 223.2000000000021,
                    "velocity": 0.5905511811023622,
                    "duration": 0.11750000000000682
                },
                {
                    "name": "E3",
                    "midi": 52,
                    "time": 223.2000000000021,
                    "velocity": 0.5905511811023622,
                    "duration": 0.11750000000000682
                },
                {
                    "name": "E2",
                    "midi": 40,
                    "time": 223.8000000000021,
                    "velocity": 0.7952755905511811,
                    "duration": 0.11750000000000682
                },
                {
                    "name": "G#2",
                    "midi": 44,
                    "time": 223.8000000000021,
                    "velocity": 0.7952755905511811,
                    "duration": 0.11750000000000682
                },
                {
                    "name": "B2",
                    "midi": 47,
                    "time": 223.8000000000021,
                    "velocity": 0.7952755905511811,
                    "duration": 0.11750000000000682
                },
                {
                    "name": "E3",
                    "midi": 52,
                    "time": 223.8000000000021,
                    "velocity": 0.7952755905511811,
                    "duration": 0.11750000000000682
                },
                {
                    "name": "E2",
                    "midi": 40,
                    "time": 224.40000000000208,
                    "velocity": 0.5905511811023622,
                    "duration": 0.11750000000000682
                },
                {
                    "name": "G#2",
                    "midi": 44,
                    "time": 224.40000000000208,
                    "velocity": 0.5905511811023622,
                    "duration": 0.11750000000000682
                },
                {
                    "name": "B2",
                    "midi": 47,
                    "time": 224.40000000000208,
                    "velocity": 0.5905511811023622,
                    "duration": 0.11750000000000682
                },
                {
                    "name": "E3",
                    "midi": 52,
                    "time": 224.40000000000208,
                    "velocity": 0.5905511811023622,
                    "duration": 0.11750000000000682
                },
                {
                    "name": "E2",
                    "midi": 40,
                    "time": 225.00000000000207,
                    "velocity": 0.7952755905511811,
                    "duration": 0.11750000000000682
                },
                {
                    "name": "G#2",
                    "midi": 44,
                    "time": 225.00000000000207,
                    "velocity": 0.7952755905511811,
                    "duration": 0.11750000000000682
                },
                {
                    "name": "B2",
                    "midi": 47,
                    "time": 225.00000000000207,
                    "velocity": 0.7952755905511811,
                    "duration": 0.11750000000000682
                },
                {
                    "name": "E3",
                    "midi": 52,
                    "time": 225.00000000000207,
                    "velocity": 0.7952755905511811,
                    "duration": 0.11750000000000682
                },
                {
                    "name": "E2",
                    "midi": 40,
                    "time": 225.60000000000207,
                    "velocity": 0.5905511811023622,
                    "duration": 0.11750000000000682
                },
                {
                    "name": "G#2",
                    "midi": 44,
                    "time": 225.60000000000207,
                    "velocity": 0.5905511811023622,
                    "duration": 0.11750000000000682
                },
                {
                    "name": "B2",
                    "midi": 47,
                    "time": 225.60000000000207,
                    "velocity": 0.5905511811023622,
                    "duration": 0.11750000000000682
                },
                {
                    "name": "E3",
                    "midi": 52,
                    "time": 225.60000000000207,
                    "velocity": 0.5905511811023622,
                    "duration": 0.11750000000000682
                },
                {
                    "name": "E2",
                    "midi": 40,
                    "time": 226.20000000000206,
                    "velocity": 0.5905511811023622,
                    "duration": 0.11750000000000682
                },
                {
                    "name": "G#2",
                    "midi": 44,
                    "time": 226.20000000000206,
                    "velocity": 0.5905511811023622,
                    "duration": 0.11750000000000682
                },
                {
                    "name": "B2",
                    "midi": 47,
                    "time": 226.20000000000206,
                    "velocity": 0.5905511811023622,
                    "duration": 0.11750000000000682
                },
                {
                    "name": "E3",
                    "midi": 52,
                    "time": 226.20000000000206,
                    "velocity": 0.5905511811023622,
                    "duration": 0.11750000000000682
                },
                {
                    "name": "E2",
                    "midi": 40,
                    "time": 226.80000000000206,
                    "velocity": 0.5905511811023622,
                    "duration": 0.11750000000000682
                },
                {
                    "name": "G#2",
                    "midi": 44,
                    "time": 226.80000000000206,
                    "velocity": 0.5905511811023622,
                    "duration": 0.11750000000000682
                },
                {
                    "name": "B2",
                    "midi": 47,
                    "time": 226.80000000000206,
                    "velocity": 0.5905511811023622,
                    "duration": 0.11750000000000682
                },
                {
                    "name": "E3",
                    "midi": 52,
                    "time": 226.80000000000206,
                    "velocity": 0.5905511811023622,
                    "duration": 0.11750000000000682
                },
                {
                    "name": "E2",
                    "midi": 40,
                    "time": 227.40000000000205,
                    "velocity": 0.5905511811023622,
                    "duration": 0.11750000000000682
                },
                {
                    "name": "G#2",
                    "midi": 44,
                    "time": 227.40000000000205,
                    "velocity": 0.5905511811023622,
                    "duration": 0.11750000000000682
                },
                {
                    "name": "B2",
                    "midi": 47,
                    "time": 227.40000000000205,
                    "velocity": 0.5905511811023622,
                    "duration": 0.11750000000000682
                },
                {
                    "name": "E3",
                    "midi": 52,
                    "time": 227.40000000000205,
                    "velocity": 0.5905511811023622,
                    "duration": 0.11750000000000682
                },
                {
                    "name": "E2",
                    "midi": 40,
                    "time": 228.00000000000205,
                    "velocity": 0.5905511811023622,
                    "duration": 0.11750000000000682
                },
                {
                    "name": "G#2",
                    "midi": 44,
                    "time": 228.00000000000205,
                    "velocity": 0.5905511811023622,
                    "duration": 0.11750000000000682
                },
                {
                    "name": "B2",
                    "midi": 47,
                    "time": 228.00000000000205,
                    "velocity": 0.5905511811023622,
                    "duration": 0.11750000000000682
                },
                {
                    "name": "E3",
                    "midi": 52,
                    "time": 228.00000000000205,
                    "velocity": 0.5905511811023622,
                    "duration": 0.11750000000000682
                },
                {
                    "name": "E2",
                    "midi": 40,
                    "time": 228.60000000000204,
                    "velocity": 0.7952755905511811,
                    "duration": 0.11750000000000682
                },
                {
                    "name": "G#2",
                    "midi": 44,
                    "time": 228.60000000000204,
                    "velocity": 0.7952755905511811,
                    "duration": 0.11750000000000682
                },
                {
                    "name": "B2",
                    "midi": 47,
                    "time": 228.60000000000204,
                    "velocity": 0.7952755905511811,
                    "duration": 0.11750000000000682
                },
                {
                    "name": "E3",
                    "midi": 52,
                    "time": 228.60000000000204,
                    "velocity": 0.7952755905511811,
                    "duration": 0.11750000000000682
                },
                {
                    "name": "E2",
                    "midi": 40,
                    "time": 229.20000000000203,
                    "velocity": 0.5905511811023622,
                    "duration": 0.11750000000000682
                },
                {
                    "name": "G#2",
                    "midi": 44,
                    "time": 229.20000000000203,
                    "velocity": 0.5905511811023622,
                    "duration": 0.11750000000000682
                },
                {
                    "name": "B2",
                    "midi": 47,
                    "time": 229.20000000000203,
                    "velocity": 0.5905511811023622,
                    "duration": 0.11750000000000682
                },
                {
                    "name": "E3",
                    "midi": 52,
                    "time": 229.20000000000203,
                    "velocity": 0.5905511811023622,
                    "duration": 0.11750000000000682
                },
                {
                    "name": "E2",
                    "midi": 40,
                    "time": 229.80000000000203,
                    "velocity": 0.5905511811023622,
                    "duration": 0.11750000000000682
                },
                {
                    "name": "G#2",
                    "midi": 44,
                    "time": 229.80000000000203,
                    "velocity": 0.5905511811023622,
                    "duration": 0.11750000000000682
                },
                {
                    "name": "B2",
                    "midi": 47,
                    "time": 229.80000000000203,
                    "velocity": 0.5905511811023622,
                    "duration": 0.11750000000000682
                },
                {
                    "name": "E3",
                    "midi": 52,
                    "time": 229.80000000000203,
                    "velocity": 0.5905511811023622,
                    "duration": 0.11750000000000682
                },
                {
                    "name": "E2",
                    "midi": 40,
                    "time": 230.40000000000202,
                    "velocity": 0.7952755905511811,
                    "duration": 0.11750000000000682
                },
                {
                    "name": "G#2",
                    "midi": 44,
                    "time": 230.40000000000202,
                    "velocity": 0.7952755905511811,
                    "duration": 0.11750000000000682
                },
                {
                    "name": "B2",
                    "midi": 47,
                    "time": 230.40000000000202,
                    "velocity": 0.7952755905511811,
                    "duration": 0.11750000000000682
                },
                {
                    "name": "E3",
                    "midi": 52,
                    "time": 230.40000000000202,
                    "velocity": 0.7952755905511811,
                    "duration": 0.11750000000000682
                },
                {
                    "name": "E2",
                    "midi": 40,
                    "time": 231.00000000000202,
                    "velocity": 0.5905511811023622,
                    "duration": 0.11750000000000682
                },
                {
                    "name": "G#2",
                    "midi": 44,
                    "time": 231.00000000000202,
                    "velocity": 0.5905511811023622,
                    "duration": 0.11750000000000682
                },
                {
                    "name": "B2",
                    "midi": 47,
                    "time": 231.00000000000202,
                    "velocity": 0.5905511811023622,
                    "duration": 0.11750000000000682
                },
                {
                    "name": "E3",
                    "midi": 52,
                    "time": 231.00000000000202,
                    "velocity": 0.5905511811023622,
                    "duration": 0.11750000000000682
                },
                {
                    "name": "E2",
                    "midi": 40,
                    "time": 231.600000000002,
                    "velocity": 0.5905511811023622,
                    "duration": 0.11750000000000682
                },
                {
                    "name": "G#2",
                    "midi": 44,
                    "time": 231.600000000002,
                    "velocity": 0.5905511811023622,
                    "duration": 0.11750000000000682
                },
                {
                    "name": "B2",
                    "midi": 47,
                    "time": 231.600000000002,
                    "velocity": 0.5905511811023622,
                    "duration": 0.11750000000000682
                },
                {
                    "name": "E3",
                    "midi": 52,
                    "time": 231.600000000002,
                    "velocity": 0.5905511811023622,
                    "duration": 0.11750000000000682
                },
                {
                    "name": "E2",
                    "midi": 40,
                    "time": 232.200000000002,
                    "velocity": 0.5905511811023622,
                    "duration": 0.11750000000000682
                },
                {
                    "name": "G#2",
                    "midi": 44,
                    "time": 232.200000000002,
                    "velocity": 0.5905511811023622,
                    "duration": 0.11750000000000682
                },
                {
                    "name": "B2",
                    "midi": 47,
                    "time": 232.200000000002,
                    "velocity": 0.5905511811023622,
                    "duration": 0.11750000000000682
                },
                {
                    "name": "E3",
                    "midi": 52,
                    "time": 232.200000000002,
                    "velocity": 0.5905511811023622,
                    "duration": 0.11750000000000682
                },
                {
                    "name": "E2",
                    "midi": 40,
                    "time": 232.800000000002,
                    "velocity": 0.7952755905511811,
                    "duration": 0.11750000000000682
                },
                {
                    "name": "G#2",
                    "midi": 44,
                    "time": 232.800000000002,
                    "velocity": 0.7952755905511811,
                    "duration": 0.11750000000000682
                },
                {
                    "name": "B2",
                    "midi": 47,
                    "time": 232.800000000002,
                    "velocity": 0.7952755905511811,
                    "duration": 0.11750000000000682
                },
                {
                    "name": "E3",
                    "midi": 52,
                    "time": 232.800000000002,
                    "velocity": 0.7952755905511811,
                    "duration": 0.11750000000000682
                },
                {
                    "name": "E2",
                    "midi": 40,
                    "time": 233.400000000002,
                    "velocity": 0.5905511811023622,
                    "duration": 0.11750000000000682
                },
                {
                    "name": "G#2",
                    "midi": 44,
                    "time": 233.400000000002,
                    "velocity": 0.5905511811023622,
                    "duration": 0.11750000000000682
                },
                {
                    "name": "B2",
                    "midi": 47,
                    "time": 233.400000000002,
                    "velocity": 0.5905511811023622,
                    "duration": 0.11750000000000682
                },
                {
                    "name": "E3",
                    "midi": 52,
                    "time": 233.400000000002,
                    "velocity": 0.5905511811023622,
                    "duration": 0.11750000000000682
                },
                {
                    "name": "E2",
                    "midi": 40,
                    "time": 234.000000000002,
                    "velocity": 0.5905511811023622,
                    "duration": 0.11750000000000682
                },
                {
                    "name": "G#2",
                    "midi": 44,
                    "time": 234.000000000002,
                    "velocity": 0.5905511811023622,
                    "duration": 0.11750000000000682
                },
                {
                    "name": "B2",
                    "midi": 47,
                    "time": 234.000000000002,
                    "velocity": 0.5905511811023622,
                    "duration": 0.11750000000000682
                },
                {
                    "name": "E3",
                    "midi": 52,
                    "time": 234.000000000002,
                    "velocity": 0.5905511811023622,
                    "duration": 0.11750000000000682
                },
                {
                    "name": "E2",
                    "midi": 40,
                    "time": 234.60000000000198,
                    "velocity": 0.5905511811023622,
                    "duration": 0.11750000000000682
                },
                {
                    "name": "G#2",
                    "midi": 44,
                    "time": 234.60000000000198,
                    "velocity": 0.5905511811023622,
                    "duration": 0.11750000000000682
                },
                {
                    "name": "B2",
                    "midi": 47,
                    "time": 234.60000000000198,
                    "velocity": 0.5905511811023622,
                    "duration": 0.11750000000000682
                },
                {
                    "name": "E3",
                    "midi": 52,
                    "time": 234.60000000000198,
                    "velocity": 0.5905511811023622,
                    "duration": 0.11750000000000682
                },
                {
                    "name": "E2",
                    "midi": 40,
                    "time": 235.20000000000198,
                    "velocity": 0.5905511811023622,
                    "duration": 0.11750000000000682
                },
                {
                    "name": "G#2",
                    "midi": 44,
                    "time": 235.20000000000198,
                    "velocity": 0.5905511811023622,
                    "duration": 0.11750000000000682
                },
                {
                    "name": "B2",
                    "midi": 47,
                    "time": 235.20000000000198,
                    "velocity": 0.5905511811023622,
                    "duration": 0.11750000000000682
                },
                {
                    "name": "E3",
                    "midi": 52,
                    "time": 235.20000000000198,
                    "velocity": 0.5905511811023622,
                    "duration": 0.11750000000000682
                },
                {
                    "name": "E2",
                    "midi": 40,
                    "time": 235.80000000000197,
                    "velocity": 0.7952755905511811,
                    "duration": 0.11750000000000682
                },
                {
                    "name": "G#2",
                    "midi": 44,
                    "time": 235.80000000000197,
                    "velocity": 0.7952755905511811,
                    "duration": 0.11750000000000682
                },
                {
                    "name": "B2",
                    "midi": 47,
                    "time": 235.80000000000197,
                    "velocity": 0.7952755905511811,
                    "duration": 0.11750000000000682
                },
                {
                    "name": "E3",
                    "midi": 52,
                    "time": 235.80000000000197,
                    "velocity": 0.7952755905511811,
                    "duration": 0.11750000000000682
                },
                {
                    "name": "E2",
                    "midi": 40,
                    "time": 236.40000000000197,
                    "velocity": 0.5905511811023622,
                    "duration": 0.11750000000000682
                },
                {
                    "name": "G#2",
                    "midi": 44,
                    "time": 236.40000000000197,
                    "velocity": 0.5905511811023622,
                    "duration": 0.11750000000000682
                },
                {
                    "name": "B2",
                    "midi": 47,
                    "time": 236.40000000000197,
                    "velocity": 0.5905511811023622,
                    "duration": 0.11750000000000682
                },
                {
                    "name": "E3",
                    "midi": 52,
                    "time": 236.40000000000197,
                    "velocity": 0.5905511811023622,
                    "duration": 0.11750000000000682
                },
                {
                    "name": "E2",
                    "midi": 40,
                    "time": 237.00000000000196,
                    "velocity": 0.5905511811023622,
                    "duration": 0.11750000000000682
                },
                {
                    "name": "G#2",
                    "midi": 44,
                    "time": 237.00000000000196,
                    "velocity": 0.5905511811023622,
                    "duration": 0.11750000000000682
                },
                {
                    "name": "B2",
                    "midi": 47,
                    "time": 237.00000000000196,
                    "velocity": 0.5905511811023622,
                    "duration": 0.11750000000000682
                },
                {
                    "name": "E3",
                    "midi": 52,
                    "time": 237.00000000000196,
                    "velocity": 0.5905511811023622,
                    "duration": 0.11750000000000682
                },
                {
                    "name": "E2",
                    "midi": 40,
                    "time": 237.60000000000196,
                    "velocity": 0.5905511811023622,
                    "duration": 0.05750000000000455
                },
                {
                    "name": "G#2",
                    "midi": 44,
                    "time": 237.90000000000197,
                    "velocity": 0.5905511811023622,
                    "duration": 0.05750000000000455
                },
                {
                    "name": "B2",
                    "midi": 47,
                    "time": 238.20000000000198,
                    "velocity": 0.5905511811023622,
                    "duration": 0.05750000000000455
                },
                {
                    "name": "E3",
                    "midi": 52,
                    "time": 238.500000000002,
                    "velocity": 0.5905511811023622,
                    "duration": 0.05750000000000455
                },
                {
                    "name": "G3",
                    "midi": 55,
                    "time": 238.800000000002,
                    "velocity": 0.5905511811023622,
                    "duration": 0.05750000000000455
                },
                {
                    "name": "E3",
                    "midi": 52,
                    "time": 239.100000000002,
                    "velocity": 0.5905511811023622,
                    "duration": 0.05750000000000455
                },
                {
                    "name": "C3",
                    "midi": 48,
                    "time": 239.40000000000202,
                    "velocity": 0.5905511811023622,
                    "duration": 0.05750000000000455
                },
                {
                    "name": "G2",
                    "midi": 43,
                    "time": 239.70000000000203,
                    "velocity": 0.5905511811023622,
                    "duration": 0.05750000000000455
                },
                {
                    "name": "E2",
                    "midi": 40,
                    "time": 240.00000000000205,
                    "velocity": 0.5905511811023622,
                    "duration": 0.05750000000000455
                },
                {
                    "name": "G#2",
                    "midi": 44,
                    "time": 240.30000000000206,
                    "velocity": 0.5905511811023622,
                    "duration": 0.05750000000000455
                },
                {
                    "name": "B2",
                    "midi": 47,
                    "time": 240.60000000000207,
                    "velocity": 0.5905511811023622,
                    "duration": 0.05750000000000455
                },
                {
                    "name": "E3",
                    "midi": 52,
                    "time": 240.90000000000208,
                    "velocity": 0.5905511811023622,
                    "duration": 0.05750000000000455
                },
                {
                    "name": "G3",
                    "midi": 55,
                    "time": 241.2000000000021,
                    "velocity": 0.5905511811023622,
                    "duration": 0.05750000000000455
                },
                {
                    "name": "E3",
                    "midi": 52,
                    "time": 241.5000000000021,
                    "velocity": 0.5905511811023622,
                    "duration": 0.05750000000000455
                },
                {
                    "name": "C3",
                    "midi": 48,
                    "time": 241.80000000000211,
                    "velocity": 0.5905511811023622,
                    "duration": 0.05750000000000455
                },
                {
                    "name": "G2",
                    "midi": 43,
                    "time": 242.10000000000213,
                    "velocity": 0.5905511811023622,
                    "duration": 0.05750000000000455
                },
                {
                    "name": "E2",
                    "midi": 40,
                    "time": 242.40000000000214,
                    "velocity": 0.5905511811023622,
                    "duration": 0.05750000000000455
                },
                {
                    "name": "G#2",
                    "midi": 44,
                    "time": 242.70000000000215,
                    "velocity": 0.5905511811023622,
                    "duration": 0.05750000000000455
                },
                {
                    "name": "B2",
                    "midi": 47,
                    "time": 243.00000000000216,
                    "velocity": 0.5905511811023622,
                    "duration": 0.05750000000000455
                },
                {
                    "name": "E3",
                    "midi": 52,
                    "time": 243.30000000000217,
                    "velocity": 0.5905511811023622,
                    "duration": 0.05750000000000455
                },
                {
                    "name": "G3",
                    "midi": 55,
                    "time": 243.60000000000218,
                    "velocity": 0.5905511811023622,
                    "duration": 0.05750000000000455
                },
                {
                    "name": "E3",
                    "midi": 52,
                    "time": 243.9000000000022,
                    "velocity": 0.5905511811023622,
                    "duration": 0.05750000000000455
                },
                {
                    "name": "C3",
                    "midi": 48,
                    "time": 244.2000000000022,
                    "velocity": 0.5905511811023622,
                    "duration": 0.05750000000000455
                },
                {
                    "name": "G2",
                    "midi": 43,
                    "time": 244.50000000000222,
                    "velocity": 0.5905511811023622,
                    "duration": 0.05750000000000455
                },
                {
                    "name": "E2",
                    "midi": 40,
                    "time": 244.80000000000223,
                    "velocity": 0.5905511811023622,
                    "duration": 0.05750000000000455
                },
                {
                    "name": "G#2",
                    "midi": 44,
                    "time": 245.10000000000224,
                    "velocity": 0.5905511811023622,
                    "duration": 0.05750000000000455
                },
                {
                    "name": "B2",
                    "midi": 47,
                    "time": 245.40000000000225,
                    "velocity": 0.5905511811023622,
                    "duration": 0.05750000000000455
                },
                {
                    "name": "E3",
                    "midi": 52,
                    "time": 245.70000000000226,
                    "velocity": 0.5905511811023622,
                    "duration": 0.05750000000000455
                },
                {
                    "name": "G3",
                    "midi": 55,
                    "time": 246.00000000000227,
                    "velocity": 0.5905511811023622,
                    "duration": 0.05750000000000455
                },
                {
                    "name": "E3",
                    "midi": 52,
                    "time": 246.30000000000229,
                    "velocity": 0.5905511811023622,
                    "duration": 0.05750000000000455
                },
                {
                    "name": "C3",
                    "midi": 48,
                    "time": 246.6000000000023,
                    "velocity": 0.5905511811023622,
                    "duration": 0.05750000000000455
                },
                {
                    "name": "G2",
                    "midi": 43,
                    "time": 246.9000000000023,
                    "velocity": 0.5905511811023622,
                    "duration": 0.05750000000000455
                },
                {
                    "name": "E2",
                    "midi": 40,
                    "time": 247.20000000000232,
                    "velocity": 0.5905511811023622,
                    "duration": 0.11750000000000682
                },
                {
                    "name": "G#2",
                    "midi": 44,
                    "time": 247.20000000000232,
                    "velocity": 0.5905511811023622,
                    "duration": 0.11750000000000682
                },
                {
                    "name": "B2",
                    "midi": 47,
                    "time": 247.20000000000232,
                    "velocity": 0.5905511811023622,
                    "duration": 0.11750000000000682
                },
                {
                    "name": "E3",
                    "midi": 52,
                    "time": 247.20000000000232,
                    "velocity": 0.5905511811023622,
                    "duration": 0.11750000000000682
                },
                {
                    "name": "E2",
                    "midi": 40,
                    "time": 247.8000000000023,
                    "velocity": 0.5905511811023622,
                    "duration": 0.11750000000000682
                },
                {
                    "name": "G#2",
                    "midi": 44,
                    "time": 247.8000000000023,
                    "velocity": 0.5905511811023622,
                    "duration": 0.11750000000000682
                },
                {
                    "name": "B2",
                    "midi": 47,
                    "time": 247.8000000000023,
                    "velocity": 0.5905511811023622,
                    "duration": 0.11750000000000682
                },
                {
                    "name": "E3",
                    "midi": 52,
                    "time": 247.8000000000023,
                    "velocity": 0.5905511811023622,
                    "duration": 0.11750000000000682
                },
                {
                    "name": "E2",
                    "midi": 40,
                    "time": 248.4000000000023,
                    "velocity": 0.5905511811023622,
                    "duration": 0.11750000000000682
                },
                {
                    "name": "G#2",
                    "midi": 44,
                    "time": 248.4000000000023,
                    "velocity": 0.5905511811023622,
                    "duration": 0.11750000000000682
                },
                {
                    "name": "B2",
                    "midi": 47,
                    "time": 248.4000000000023,
                    "velocity": 0.5905511811023622,
                    "duration": 0.11750000000000682
                },
                {
                    "name": "E3",
                    "midi": 52,
                    "time": 248.4000000000023,
                    "velocity": 0.5905511811023622,
                    "duration": 0.11750000000000682
                },
                {
                    "name": "E2",
                    "midi": 40,
                    "time": 249.0000000000023,
                    "velocity": 0.5905511811023622,
                    "duration": 0.11750000000000682
                },
                {
                    "name": "G#2",
                    "midi": 44,
                    "time": 249.0000000000023,
                    "velocity": 0.5905511811023622,
                    "duration": 0.11750000000000682
                },
                {
                    "name": "B2",
                    "midi": 47,
                    "time": 249.0000000000023,
                    "velocity": 0.5905511811023622,
                    "duration": 0.11750000000000682
                },
                {
                    "name": "E3",
                    "midi": 52,
                    "time": 249.0000000000023,
                    "velocity": 0.5905511811023622,
                    "duration": 0.11750000000000682
                },
                {
                    "name": "E2",
                    "midi": 40,
                    "time": 249.6000000000023,
                    "velocity": 0.5905511811023622,
                    "duration": 0.11750000000000682
                },
                {
                    "name": "G#2",
                    "midi": 44,
                    "time": 249.6000000000023,
                    "velocity": 0.5905511811023622,
                    "duration": 0.11750000000000682
                },
                {
                    "name": "B2",
                    "midi": 47,
                    "time": 249.6000000000023,
                    "velocity": 0.5905511811023622,
                    "duration": 0.11750000000000682
                },
                {
                    "name": "E3",
                    "midi": 52,
                    "time": 249.6000000000023,
                    "velocity": 0.5905511811023622,
                    "duration": 0.11750000000000682
                },
                {
                    "name": "E2",
                    "midi": 40,
                    "time": 250.2000000000023,
                    "velocity": 0.7952755905511811,
                    "duration": 0.11750000000000682
                },
                {
                    "name": "G#2",
                    "midi": 44,
                    "time": 250.2000000000023,
                    "velocity": 0.7952755905511811,
                    "duration": 0.11750000000000682
                },
                {
                    "name": "B2",
                    "midi": 47,
                    "time": 250.2000000000023,
                    "velocity": 0.7952755905511811,
                    "duration": 0.11750000000000682
                },
                {
                    "name": "E3",
                    "midi": 52,
                    "time": 250.2000000000023,
                    "velocity": 0.7952755905511811,
                    "duration": 0.11750000000000682
                },
                {
                    "name": "E2",
                    "midi": 40,
                    "time": 250.80000000000229,
                    "velocity": 0.5905511811023622,
                    "duration": 0.11750000000000682
                },
                {
                    "name": "G#2",
                    "midi": 44,
                    "time": 250.80000000000229,
                    "velocity": 0.5905511811023622,
                    "duration": 0.11750000000000682
                },
                {
                    "name": "B2",
                    "midi": 47,
                    "time": 250.80000000000229,
                    "velocity": 0.5905511811023622,
                    "duration": 0.11750000000000682
                },
                {
                    "name": "E3",
                    "midi": 52,
                    "time": 250.80000000000229,
                    "velocity": 0.5905511811023622,
                    "duration": 0.11750000000000682
                },
                {
                    "name": "E2",
                    "midi": 40,
                    "time": 251.40000000000228,
                    "velocity": 0.7952755905511811,
                    "duration": 0.11750000000000682
                },
                {
                    "name": "G#2",
                    "midi": 44,
                    "time": 251.40000000000228,
                    "velocity": 0.7952755905511811,
                    "duration": 0.11750000000000682
                },
                {
                    "name": "B2",
                    "midi": 47,
                    "time": 251.40000000000228,
                    "velocity": 0.7952755905511811,
                    "duration": 0.11750000000000682
                },
                {
                    "name": "E3",
                    "midi": 52,
                    "time": 251.40000000000228,
                    "velocity": 0.7952755905511811,
                    "duration": 0.11750000000000682
                },
                {
                    "name": "E2",
                    "midi": 40,
                    "time": 252.00000000000227,
                    "velocity": 0.5905511811023622,
                    "duration": 0.11750000000000682
                },
                {
                    "name": "G#2",
                    "midi": 44,
                    "time": 252.00000000000227,
                    "velocity": 0.5905511811023622,
                    "duration": 0.11750000000000682
                },
                {
                    "name": "B2",
                    "midi": 47,
                    "time": 252.00000000000227,
                    "velocity": 0.5905511811023622,
                    "duration": 0.11750000000000682
                },
                {
                    "name": "E3",
                    "midi": 52,
                    "time": 252.00000000000227,
                    "velocity": 0.5905511811023622,
                    "duration": 0.11750000000000682
                },
                {
                    "name": "E2",
                    "midi": 40,
                    "time": 252.60000000000227,
                    "velocity": 0.5905511811023622,
                    "duration": 0.11750000000000682
                },
                {
                    "name": "G#2",
                    "midi": 44,
                    "time": 252.60000000000227,
                    "velocity": 0.5905511811023622,
                    "duration": 0.11750000000000682
                },
                {
                    "name": "B2",
                    "midi": 47,
                    "time": 252.60000000000227,
                    "velocity": 0.5905511811023622,
                    "duration": 0.11750000000000682
                },
                {
                    "name": "E3",
                    "midi": 52,
                    "time": 252.60000000000227,
                    "velocity": 0.5905511811023622,
                    "duration": 0.11750000000000682
                },
                {
                    "name": "E2",
                    "midi": 40,
                    "time": 253.20000000000226,
                    "velocity": 0.5905511811023622,
                    "duration": 0.11750000000000682
                },
                {
                    "name": "G#2",
                    "midi": 44,
                    "time": 253.20000000000226,
                    "velocity": 0.5905511811023622,
                    "duration": 0.11750000000000682
                },
                {
                    "name": "B2",
                    "midi": 47,
                    "time": 253.20000000000226,
                    "velocity": 0.5905511811023622,
                    "duration": 0.11750000000000682
                },
                {
                    "name": "E3",
                    "midi": 52,
                    "time": 253.20000000000226,
                    "velocity": 0.5905511811023622,
                    "duration": 0.11750000000000682
                },
                {
                    "name": "E2",
                    "midi": 40,
                    "time": 253.80000000000226,
                    "velocity": 0.5905511811023622,
                    "duration": 0.11750000000000682
                },
                {
                    "name": "G#2",
                    "midi": 44,
                    "time": 253.80000000000226,
                    "velocity": 0.5905511811023622,
                    "duration": 0.11750000000000682
                },
                {
                    "name": "B2",
                    "midi": 47,
                    "time": 253.80000000000226,
                    "velocity": 0.5905511811023622,
                    "duration": 0.11750000000000682
                },
                {
                    "name": "E3",
                    "midi": 52,
                    "time": 253.80000000000226,
                    "velocity": 0.5905511811023622,
                    "duration": 0.11750000000000682
                },
                {
                    "name": "E2",
                    "midi": 40,
                    "time": 254.40000000000225,
                    "velocity": 0.5905511811023622,
                    "duration": 0.11750000000000682
                },
                {
                    "name": "G#2",
                    "midi": 44,
                    "time": 254.40000000000225,
                    "velocity": 0.5905511811023622,
                    "duration": 0.11750000000000682
                },
                {
                    "name": "B2",
                    "midi": 47,
                    "time": 254.40000000000225,
                    "velocity": 0.5905511811023622,
                    "duration": 0.11750000000000682
                },
                {
                    "name": "E3",
                    "midi": 52,
                    "time": 254.40000000000225,
                    "velocity": 0.5905511811023622,
                    "duration": 0.11750000000000682
                },
                {
                    "name": "E2",
                    "midi": 40,
                    "time": 255.00000000000225,
                    "velocity": 0.7952755905511811,
                    "duration": 0.11750000000000682
                },
                {
                    "name": "G#2",
                    "midi": 44,
                    "time": 255.00000000000225,
                    "velocity": 0.7952755905511811,
                    "duration": 0.11750000000000682
                },
                {
                    "name": "B2",
                    "midi": 47,
                    "time": 255.00000000000225,
                    "velocity": 0.7952755905511811,
                    "duration": 0.11750000000000682
                },
                {
                    "name": "E3",
                    "midi": 52,
                    "time": 255.00000000000225,
                    "velocity": 0.7952755905511811,
                    "duration": 0.11750000000000682
                },
                {
                    "name": "E2",
                    "midi": 40,
                    "time": 255.60000000000224,
                    "velocity": 0.5905511811023622,
                    "duration": 0.11750000000000682
                },
                {
                    "name": "G#2",
                    "midi": 44,
                    "time": 255.60000000000224,
                    "velocity": 0.5905511811023622,
                    "duration": 0.11750000000000682
                },
                {
                    "name": "B2",
                    "midi": 47,
                    "time": 255.60000000000224,
                    "velocity": 0.5905511811023622,
                    "duration": 0.11750000000000682
                },
                {
                    "name": "E3",
                    "midi": 52,
                    "time": 255.60000000000224,
                    "velocity": 0.5905511811023622,
                    "duration": 0.11750000000000682
                },
                {
                    "name": "E2",
                    "midi": 40,
                    "time": 256.20000000000226,
                    "velocity": 0.5905511811023622,
                    "duration": 0.11750000000000682
                },
                {
                    "name": "G#2",
                    "midi": 44,
                    "time": 256.20000000000226,
                    "velocity": 0.5905511811023622,
                    "duration": 0.11750000000000682
                },
                {
                    "name": "B2",
                    "midi": 47,
                    "time": 256.20000000000226,
                    "velocity": 0.5905511811023622,
                    "duration": 0.11750000000000682
                },
                {
                    "name": "E3",
                    "midi": 52,
                    "time": 256.20000000000226,
                    "velocity": 0.5905511811023622,
                    "duration": 0.11750000000000682
                },
                {
                    "name": "E2",
                    "midi": 40,
                    "time": 256.8000000000023,
                    "velocity": 0.5905511811023622,
                    "duration": 0.11750000000000682
                },
                {
                    "name": "G#2",
                    "midi": 44,
                    "time": 256.8000000000023,
                    "velocity": 0.5905511811023622,
                    "duration": 0.11750000000000682
                },
                {
                    "name": "B2",
                    "midi": 47,
                    "time": 256.8000000000023,
                    "velocity": 0.5905511811023622,
                    "duration": 0.11750000000000682
                },
                {
                    "name": "E3",
                    "midi": 52,
                    "time": 256.8000000000023,
                    "velocity": 0.5905511811023622,
                    "duration": 0.11750000000000682
                },
                {
                    "name": "E3",
                    "midi": 52,
                    "time": 257.4000000000023,
                    "velocity": 0.5905511811023622,
                    "duration": 0.11750000000000682
                },
                {
                    "name": "G3",
                    "midi": 55,
                    "time": 257.4000000000023,
                    "velocity": 0.5905511811023622,
                    "duration": 0.11750000000000682
                },
                {
                    "name": "A#3",
                    "midi": 58,
                    "time": 257.4000000000023,
                    "velocity": 0.5905511811023622,
                    "duration": 0.11750000000000682
                },
                {
                    "name": "E3",
                    "midi": 52,
                    "time": 258.00000000000233,
                    "velocity": 0.5905511811023622,
                    "duration": 0.11750000000000682
                },
                {
                    "name": "G3",
                    "midi": 55,
                    "time": 258.00000000000233,
                    "velocity": 0.5905511811023622,
                    "duration": 0.11750000000000682
                },
                {
                    "name": "D#4",
                    "midi": 63,
                    "time": 258.00000000000233,
                    "velocity": 0.5905511811023622,
                    "duration": 0.11750000000000682
                },
                {
                    "name": "E3",
                    "midi": 52,
                    "time": 258.60000000000235,
                    "velocity": 0.5905511811023622,
                    "duration": 0.11750000000000682
                },
                {
                    "name": "G3",
                    "midi": 55,
                    "time": 258.60000000000235,
                    "velocity": 0.5905511811023622,
                    "duration": 0.11750000000000682
                },
                {
                    "name": "A#3",
                    "midi": 58,
                    "time": 258.60000000000235,
                    "velocity": 0.5905511811023622,
                    "duration": 0.11750000000000682
                },
                {
                    "name": "E3",
                    "midi": 52,
                    "time": 259.2000000000024,
                    "velocity": 0.5905511811023622,
                    "duration": 0.11750000000000682
                },
                {
                    "name": "G3",
                    "midi": 55,
                    "time": 259.2000000000024,
                    "velocity": 0.5905511811023622,
                    "duration": 0.11750000000000682
                },
                {
                    "name": "C#4",
                    "midi": 61,
                    "time": 259.2000000000024,
                    "velocity": 0.5905511811023622,
                    "duration": 0.11750000000000682
                },
                {
                    "name": "E3",
                    "midi": 52,
                    "time": 259.8000000000024,
                    "velocity": 0.5905511811023622,
                    "duration": 0.11750000000000682
                },
                {
                    "name": "G3",
                    "midi": 55,
                    "time": 259.8000000000024,
                    "velocity": 0.5905511811023622,
                    "duration": 0.11750000000000682
                },
                {
                    "name": "A#3",
                    "midi": 58,
                    "time": 259.8000000000024,
                    "velocity": 0.5905511811023622,
                    "duration": 0.11750000000000682
                },
                {
                    "name": "E3",
                    "midi": 52,
                    "time": 260.4000000000024,
                    "velocity": 0.5905511811023622,
                    "duration": 0.11750000000000682
                },
                {
                    "name": "G3",
                    "midi": 55,
                    "time": 260.4000000000024,
                    "velocity": 0.5905511811023622,
                    "duration": 0.11750000000000682
                },
                {
                    "name": "D#4",
                    "midi": 63,
                    "time": 260.4000000000024,
                    "velocity": 0.5905511811023622,
                    "duration": 0.11750000000000682
                },
                {
                    "name": "E3",
                    "midi": 52,
                    "time": 261.00000000000244,
                    "velocity": 0.5905511811023622,
                    "duration": 0.11750000000000682
                },
                {
                    "name": "G3",
                    "midi": 55,
                    "time": 261.00000000000244,
                    "velocity": 0.5905511811023622,
                    "duration": 0.11750000000000682
                },
                {
                    "name": "A#3",
                    "midi": 58,
                    "time": 261.00000000000244,
                    "velocity": 0.5905511811023622,
                    "duration": 0.11750000000000682
                },
                {
                    "name": "E2",
                    "midi": 40,
                    "time": 261.60000000000247,
                    "velocity": 0.5905511811023622,
                    "duration": 0.11750000000000682
                },
                {
                    "name": "G#2",
                    "midi": 44,
                    "time": 261.60000000000247,
                    "velocity": 0.5905511811023622,
                    "duration": 0.11750000000000682
                },
                {
                    "name": "B2",
                    "midi": 47,
                    "time": 261.60000000000247,
                    "velocity": 0.5905511811023622,
                    "duration": 0.11750000000000682
                },
                {
                    "name": "E3",
                    "midi": 52,
                    "time": 261.60000000000247,
                    "velocity": 0.5905511811023622,
                    "duration": 0.11750000000000682
                },
                {
                    "name": "E2",
                    "midi": 40,
                    "time": 262.2000000000025,
                    "velocity": 0.7952755905511811,
                    "duration": 0.11750000000000682
                },
                {
                    "name": "G#2",
                    "midi": 44,
                    "time": 262.2000000000025,
                    "velocity": 0.7952755905511811,
                    "duration": 0.11750000000000682
                },
                {
                    "name": "B2",
                    "midi": 47,
                    "time": 262.2000000000025,
                    "velocity": 0.7952755905511811,
                    "duration": 0.11750000000000682
                },
                {
                    "name": "E3",
                    "midi": 52,
                    "time": 262.2000000000025,
                    "velocity": 0.7952755905511811,
                    "duration": 0.11750000000000682
                },
                {
                    "name": "E2",
                    "midi": 40,
                    "time": 262.8000000000025,
                    "velocity": 0.4881889763779528,
                    "duration": 0.11750000000000682
                },
                {
                    "name": "G#2",
                    "midi": 44,
                    "time": 262.8000000000025,
                    "velocity": 0.4881889763779528,
                    "duration": 0.11750000000000682
                },
                {
                    "name": "B2",
                    "midi": 47,
                    "time": 262.8000000000025,
                    "velocity": 0.4881889763779528,
                    "duration": 0.11750000000000682
                },
                {
                    "name": "E3",
                    "midi": 52,
                    "time": 262.8000000000025,
                    "velocity": 0.4881889763779528,
                    "duration": 0.11750000000000682
                },
                {
                    "name": "E2",
                    "midi": 40,
                    "time": 263.40000000000254,
                    "velocity": 0.6929133858267716,
                    "duration": 0.11750000000000682
                },
                {
                    "name": "G#2",
                    "midi": 44,
                    "time": 263.40000000000254,
                    "velocity": 0.6929133858267716,
                    "duration": 0.11750000000000682
                },
                {
                    "name": "B2",
                    "midi": 47,
                    "time": 263.40000000000254,
                    "velocity": 0.6929133858267716,
                    "duration": 0.11750000000000682
                },
                {
                    "name": "E3",
                    "midi": 52,
                    "time": 263.40000000000254,
                    "velocity": 0.6929133858267716,
                    "duration": 0.11750000000000682
                },
                {
                    "name": "E3",
                    "midi": 52,
                    "time": 264.00000000000256,
                    "velocity": 0.5905511811023622,
                    "duration": 0.11750000000000682
                },
                {
                    "name": "G3",
                    "midi": 55,
                    "time": 264.00000000000256,
                    "velocity": 0.5905511811023622,
                    "duration": 0.11750000000000682
                },
                {
                    "name": "C#4",
                    "midi": 61,
                    "time": 264.00000000000256,
                    "velocity": 0.5905511811023622,
                    "duration": 0.11750000000000682
                },
                {
                    "name": "E3",
                    "midi": 52,
                    "time": 264.6000000000026,
                    "velocity": 0.5905511811023622,
                    "duration": 0.11750000000000682
                },
                {
                    "name": "G3",
                    "midi": 55,
                    "time": 264.6000000000026,
                    "velocity": 0.5905511811023622,
                    "duration": 0.11750000000000682
                },
                {
                    "name": "A#3",
                    "midi": 58,
                    "time": 264.6000000000026,
                    "velocity": 0.5905511811023622,
                    "duration": 0.11750000000000682
                },
                {
                    "name": "E3",
                    "midi": 52,
                    "time": 265.2000000000026,
                    "velocity": 0.5905511811023622,
                    "duration": 0.11750000000000682
                },
                {
                    "name": "G3",
                    "midi": 55,
                    "time": 265.2000000000026,
                    "velocity": 0.5905511811023622,
                    "duration": 0.11750000000000682
                },
                {
                    "name": "D#4",
                    "midi": 63,
                    "time": 265.2000000000026,
                    "velocity": 0.5905511811023622,
                    "duration": 0.11750000000000682
                },
                {
                    "name": "E3",
                    "midi": 52,
                    "time": 265.8000000000026,
                    "velocity": 0.5905511811023622,
                    "duration": 0.11750000000000682
                },
                {
                    "name": "G3",
                    "midi": 55,
                    "time": 265.8000000000026,
                    "velocity": 0.5905511811023622,
                    "duration": 0.11750000000000682
                },
                {
                    "name": "A#3",
                    "midi": 58,
                    "time": 265.8000000000026,
                    "velocity": 0.5905511811023622,
                    "duration": 0.11750000000000682
                },
                {
                    "name": "E2",
                    "midi": 40,
                    "time": 266.40000000000265,
                    "velocity": 0.5905511811023622,
                    "duration": 0.11750000000000682
                },
                {
                    "name": "G#2",
                    "midi": 44,
                    "time": 266.40000000000265,
                    "velocity": 0.5905511811023622,
                    "duration": 0.11750000000000682
                },
                {
                    "name": "B2",
                    "midi": 47,
                    "time": 266.40000000000265,
                    "velocity": 0.5905511811023622,
                    "duration": 0.11750000000000682
                },
                {
                    "name": "E3",
                    "midi": 52,
                    "time": 266.40000000000265,
                    "velocity": 0.5905511811023622,
                    "duration": 0.11750000000000682
                },
                {
                    "name": "E2",
                    "midi": 40,
                    "time": 267.0000000000027,
                    "velocity": 0.7952755905511811,
                    "duration": 0.11750000000000682
                },
                {
                    "name": "G#2",
                    "midi": 44,
                    "time": 267.0000000000027,
                    "velocity": 0.7952755905511811,
                    "duration": 0.11750000000000682
                },
                {
                    "name": "B2",
                    "midi": 47,
                    "time": 267.0000000000027,
                    "velocity": 0.7952755905511811,
                    "duration": 0.11750000000000682
                },
                {
                    "name": "E3",
                    "midi": 52,
                    "time": 267.0000000000027,
                    "velocity": 0.7952755905511811,
                    "duration": 0.11750000000000682
                },
                {
                    "name": "E2",
                    "midi": 40,
                    "time": 267.6000000000027,
                    "velocity": 0.5905511811023622,
                    "duration": 0.11750000000000682
                },
                {
                    "name": "G#2",
                    "midi": 44,
                    "time": 267.6000000000027,
                    "velocity": 0.5905511811023622,
                    "duration": 0.11750000000000682
                },
                {
                    "name": "B2",
                    "midi": 47,
                    "time": 267.6000000000027,
                    "velocity": 0.5905511811023622,
                    "duration": 0.11750000000000682
                },
                {
                    "name": "E3",
                    "midi": 52,
                    "time": 267.6000000000027,
                    "velocity": 0.5905511811023622,
                    "duration": 0.11750000000000682
                },
                {
                    "name": "E2",
                    "midi": 40,
                    "time": 268.2000000000027,
                    "velocity": 0.7952755905511811,
                    "duration": 0.11750000000000682
                },
                {
                    "name": "G#2",
                    "midi": 44,
                    "time": 268.2000000000027,
                    "velocity": 0.7952755905511811,
                    "duration": 0.11750000000000682
                },
                {
                    "name": "B2",
                    "midi": 47,
                    "time": 268.2000000000027,
                    "velocity": 0.7952755905511811,
                    "duration": 0.11750000000000682
                },
                {
                    "name": "E3",
                    "midi": 52,
                    "time": 268.2000000000027,
                    "velocity": 0.7952755905511811,
                    "duration": 0.11750000000000682
                },
                {
                    "name": "E2",
                    "midi": 40,
                    "time": 268.80000000000274,
                    "velocity": 0.5905511811023622,
                    "duration": 0.11750000000000682
                },
                {
                    "name": "G#2",
                    "midi": 44,
                    "time": 268.80000000000274,
                    "velocity": 0.5905511811023622,
                    "duration": 0.11750000000000682
                },
                {
                    "name": "B2",
                    "midi": 47,
                    "time": 268.80000000000274,
                    "velocity": 0.5905511811023622,
                    "duration": 0.11750000000000682
                },
                {
                    "name": "E3",
                    "midi": 52,
                    "time": 268.80000000000274,
                    "velocity": 0.5905511811023622,
                    "duration": 0.11750000000000682
                },
                {
                    "name": "E2",
                    "midi": 40,
                    "time": 269.40000000000276,
                    "velocity": 0.7952755905511811,
                    "duration": 0.11750000000000682
                },
                {
                    "name": "G#2",
                    "midi": 44,
                    "time": 269.40000000000276,
                    "velocity": 0.7952755905511811,
                    "duration": 0.11750000000000682
                },
                {
                    "name": "B2",
                    "midi": 47,
                    "time": 269.40000000000276,
                    "velocity": 0.7952755905511811,
                    "duration": 0.11750000000000682
                },
                {
                    "name": "E3",
                    "midi": 52,
                    "time": 269.40000000000276,
                    "velocity": 0.7952755905511811,
                    "duration": 0.11750000000000682
                },
                {
                    "name": "E2",
                    "midi": 40,
                    "time": 270.0000000000028,
                    "velocity": 0.5905511811023622,
                    "duration": 0.11750000000000682
                },
                {
                    "name": "G#2",
                    "midi": 44,
                    "time": 270.0000000000028,
                    "velocity": 0.5905511811023622,
                    "duration": 0.11750000000000682
                },
                {
                    "name": "B2",
                    "midi": 47,
                    "time": 270.0000000000028,
                    "velocity": 0.5905511811023622,
                    "duration": 0.11750000000000682
                },
                {
                    "name": "E3",
                    "midi": 52,
                    "time": 270.0000000000028,
                    "velocity": 0.5905511811023622,
                    "duration": 0.11750000000000682
                },
                {
                    "name": "E2",
                    "midi": 40,
                    "time": 270.6000000000028,
                    "velocity": 0.7952755905511811,
                    "duration": 0.11750000000000682
                },
                {
                    "name": "G#2",
                    "midi": 44,
                    "time": 270.6000000000028,
                    "velocity": 0.7952755905511811,
                    "duration": 0.11750000000000682
                },
                {
                    "name": "B2",
                    "midi": 47,
                    "time": 270.6000000000028,
                    "velocity": 0.7952755905511811,
                    "duration": 0.11750000000000682
                },
                {
                    "name": "E3",
                    "midi": 52,
                    "time": 270.6000000000028,
                    "velocity": 0.7952755905511811,
                    "duration": 0.11750000000000682
                },
                {
                    "name": "D#2",
                    "midi": 39,
                    "time": 271.20000000000283,
                    "velocity": 0.5905511811023622,
                    "duration": 0.6000000000000227
                },
                {
                    "name": "A#2",
                    "midi": 46,
                    "time": 271.80000000000285,
                    "velocity": 0.5905511811023622,
                    "duration": 0.11750000000000682
                },
                {
                    "name": "F3",
                    "midi": 53,
                    "time": 272.4000000000029,
                    "velocity": 0.5905511811023622,
                    "duration": 0.11750000000000682
                },
                {
                    "name": "C4",
                    "midi": 60,
                    "time": 273.0000000000029,
                    "velocity": 0.5905511811023622,
                    "duration": 0.11750000000000682
                },
                {
                    "name": "C#4",
                    "midi": 61,
                    "time": 273.6000000000029,
                    "velocity": 0.5905511811023622,
                    "duration": 0.11750000000000682
                },
                {
                    "name": "A#3",
                    "midi": 58,
                    "time": 274.20000000000294,
                    "velocity": 0.5905511811023622,
                    "duration": 0.11750000000000682
                },
                {
                    "name": "D#2",
                    "midi": 39,
                    "time": 274.80000000000297,
                    "velocity": 0.5905511811023622,
                    "duration": 0.11750000000000682
                },
                {
                    "name": "A#2",
                    "midi": 46,
                    "time": 275.400000000003,
                    "velocity": 0.5905511811023622,
                    "duration": 0.11750000000000682
                },
                {
                    "name": "C#4",
                    "midi": 61,
                    "time": 276.000000000003,
                    "velocity": 0.5905511811023622,
                    "duration": 0.11750000000000682
                },
                {
                    "name": "A#3",
                    "midi": 58,
                    "time": 276.60000000000304,
                    "velocity": 0.5905511811023622,
                    "duration": 0.11750000000000682
                },
                {
                    "name": "D#4",
                    "midi": 63,
                    "time": 277.20000000000306,
                    "velocity": 0.5905511811023622,
                    "duration": 0.11750000000000682
                },
                {
                    "name": "A#3",
                    "midi": 58,
                    "time": 277.8000000000031,
                    "velocity": 0.5905511811023622,
                    "duration": 0.11750000000000682
                },
                {
                    "name": "D#2",
                    "midi": 39,
                    "time": 278.4000000000031,
                    "velocity": 0.5905511811023622,
                    "duration": 0.11750000000000682
                },
                {
                    "name": "A#2",
                    "midi": 46,
                    "time": 278.4000000000031,
                    "velocity": 0.5905511811023622,
                    "duration": 0.11750000000000682
                },
                {
                    "name": "F3",
                    "midi": 53,
                    "time": 278.4000000000031,
                    "velocity": 0.5905511811023622,
                    "duration": 0.11750000000000682
                },
                {
                    "name": "G3",
                    "midi": 55,
                    "time": 279.6000000000031,
                    "velocity": 0.5905511811023622,
                    "duration": 0.11750000000000682
                },
                {
                    "name": "D#4",
                    "midi": 63,
                    "time": 279.6000000000031,
                    "velocity": 0.5905511811023622,
                    "duration": 0.11750000000000682
                },
                {
                    "name": "E4",
                    "midi": 64,
                    "time": 279.6000000000031,
                    "velocity": 0.5905511811023622,
                    "duration": 0.11750000000000682
                },
                {
                    "name": "A#3",
                    "midi": 58,
                    "time": 280.2000000000031,
                    "velocity": 0.5905511811023622,
                    "duration": 0.11750000000000682
                },
                {
                    "name": "C#4",
                    "midi": 61,
                    "time": 280.80000000000314,
                    "velocity": 0.5905511811023622,
                    "duration": 0.11750000000000682
                },
                {
                    "name": "E4",
                    "midi": 64,
                    "time": 280.80000000000314,
                    "velocity": 0.5905511811023622,
                    "duration": 0.11750000000000682
                },
                {
                    "name": "G4",
                    "midi": 67,
                    "time": 280.80000000000314,
                    "velocity": 0.5905511811023622,
                    "duration": 0.11750000000000682
                },
                {
                    "name": "C5",
                    "midi": 72,
                    "time": 280.80000000000314,
                    "velocity": 0.5905511811023622,
                    "duration": 0.11750000000000682
                },
                {
                    "name": "A#3",
                    "midi": 58,
                    "time": 281.40000000000316,
                    "velocity": 0.5905511811023622,
                    "duration": 0.11750000000000682
                },
                {
                    "name": "G3",
                    "midi": 55,
                    "time": 282.0000000000032,
                    "velocity": 0.5905511811023622,
                    "duration": 0.11750000000000682
                },
                {
                    "name": "D#4",
                    "midi": 63,
                    "time": 282.0000000000032,
                    "velocity": 0.5905511811023622,
                    "duration": 0.11750000000000682
                },
                {
                    "name": "E4",
                    "midi": 64,
                    "time": 282.0000000000032,
                    "velocity": 0.5905511811023622,
                    "duration": 0.11750000000000682
                },
                {
                    "name": "A#3",
                    "midi": 58,
                    "time": 282.6000000000032,
                    "velocity": 0.5905511811023622,
                    "duration": 0.11750000000000682
                },
                {
                    "name": "D#2",
                    "midi": 39,
                    "time": 283.20000000000323,
                    "velocity": 0.5905511811023622,
                    "duration": 0.11750000000000682
                },
                {
                    "name": "A#2",
                    "midi": 46,
                    "time": 283.20000000000323,
                    "velocity": 0.5905511811023622,
                    "duration": 0.11750000000000682
                },
                {
                    "name": "F3",
                    "midi": 53,
                    "time": 283.20000000000323,
                    "velocity": 0.5905511811023622,
                    "duration": 0.11750000000000682
                },
                {
                    "name": "A#3",
                    "midi": 58,
                    "time": 283.80000000000325,
                    "velocity": 0.5905511811023622,
                    "duration": 0.11750000000000682
                },
                {
                    "name": "G3",
                    "midi": 55,
                    "time": 284.4000000000033,
                    "velocity": 0.5905511811023622,
                    "duration": 0.11750000000000682
                },
                {
                    "name": "D#4",
                    "midi": 63,
                    "time": 284.4000000000033,
                    "velocity": 0.5905511811023622,
                    "duration": 0.11750000000000682
                },
                {
                    "name": "E4",
                    "midi": 64,
                    "time": 284.4000000000033,
                    "velocity": 0.5905511811023622,
                    "duration": 0.11750000000000682
                },
                {
                    "name": "A#3",
                    "midi": 58,
                    "time": 285.0000000000033,
                    "velocity": 0.5905511811023622,
                    "duration": 0.11750000000000682
                },
                {
                    "name": "D#2",
                    "midi": 39,
                    "time": 285.6000000000033,
                    "velocity": 0.5905511811023622,
                    "duration": 0.11750000000000682
                },
                {
                    "name": "A#2",
                    "midi": 46,
                    "time": 285.6000000000033,
                    "velocity": 0.5905511811023622,
                    "duration": 0.11750000000000682
                },
                {
                    "name": "F3",
                    "midi": 53,
                    "time": 285.6000000000033,
                    "velocity": 0.5905511811023622,
                    "duration": 0.11750000000000682
                },
                {
                    "name": "A#3",
                    "midi": 58,
                    "time": 286.20000000000334,
                    "velocity": 0.5905511811023622,
                    "duration": 0.11750000000000682
                },
                {
                    "name": "G3",
                    "midi": 55,
                    "time": 286.80000000000337,
                    "velocity": 0.5905511811023622,
                    "duration": 0.11750000000000682
                },
                {
                    "name": "D#4",
                    "midi": 63,
                    "time": 286.80000000000337,
                    "velocity": 0.5905511811023622,
                    "duration": 0.11750000000000682
                },
                {
                    "name": "E4",
                    "midi": 64,
                    "time": 286.80000000000337,
                    "velocity": 0.5905511811023622,
                    "duration": 0.11750000000000682
                },
                {
                    "name": "A#3",
                    "midi": 58,
                    "time": 287.4000000000034,
                    "velocity": 0.5905511811023622,
                    "duration": 0.11750000000000682
                },
                {
                    "name": "D#2",
                    "midi": 39,
                    "time": 288.0000000000034,
                    "velocity": 0.5905511811023622,
                    "duration": 0.11750000000000682
                },
                {
                    "name": "A#2",
                    "midi": 46,
                    "time": 288.0000000000034,
                    "velocity": 0.5905511811023622,
                    "duration": 0.11750000000000682
                },
                {
                    "name": "F3",
                    "midi": 53,
                    "time": 288.0000000000034,
                    "velocity": 0.5905511811023622,
                    "duration": 0.11750000000000682
                },
                {
                    "name": "A#3",
                    "midi": 58,
                    "time": 288.60000000000343,
                    "velocity": 0.5905511811023622,
                    "duration": 0.11750000000000682
                },
                {
                    "name": "G3",
                    "midi": 55,
                    "time": 289.20000000000346,
                    "velocity": 0.5905511811023622,
                    "duration": 0.11750000000000682
                },
                {
                    "name": "D#4",
                    "midi": 63,
                    "time": 289.20000000000346,
                    "velocity": 0.5905511811023622,
                    "duration": 0.11750000000000682
                },
                {
                    "name": "E4",
                    "midi": 64,
                    "time": 289.20000000000346,
                    "velocity": 0.5905511811023622,
                    "duration": 0.11750000000000682
                },
                {
                    "name": "A#3",
                    "midi": 58,
                    "time": 289.8000000000035,
                    "velocity": 0.5905511811023622,
                    "duration": 0.11750000000000682
                },
                {
                    "name": "C#4",
                    "midi": 61,
                    "time": 290.4000000000035,
                    "velocity": 0.5905511811023622,
                    "duration": 0.11750000000000682
                },
                {
                    "name": "E4",
                    "midi": 64,
                    "time": 290.4000000000035,
                    "velocity": 0.5905511811023622,
                    "duration": 0.11750000000000682
                },
                {
                    "name": "G4",
                    "midi": 67,
                    "time": 290.4000000000035,
                    "velocity": 0.5905511811023622,
                    "duration": 0.11750000000000682
                },
                {
                    "name": "C5",
                    "midi": 72,
                    "time": 290.4000000000035,
                    "velocity": 0.5905511811023622,
                    "duration": 0.11750000000000682
                },
                {
                    "name": "A#3",
                    "midi": 58,
                    "time": 291.0000000000035,
                    "velocity": 0.5905511811023622,
                    "duration": 0.11750000000000682
                },
                {
                    "name": "G3",
                    "midi": 55,
                    "time": 291.60000000000355,
                    "velocity": 0.5905511811023622,
                    "duration": 0.11750000000000682
                },
                {
                    "name": "D#4",
                    "midi": 63,
                    "time": 291.60000000000355,
                    "velocity": 0.5905511811023622,
                    "duration": 0.11750000000000682
                },
                {
                    "name": "E4",
                    "midi": 64,
                    "time": 291.60000000000355,
                    "velocity": 0.5905511811023622,
                    "duration": 0.11750000000000682
                },
                {
                    "name": "A#3",
                    "midi": 58,
                    "time": 292.20000000000357,
                    "velocity": 0.5905511811023622,
                    "duration": 0.11750000000000682
                },
                {
                    "name": "D#2",
                    "midi": 39,
                    "time": 292.8000000000036,
                    "velocity": 0.5905511811023622,
                    "duration": 0.11750000000000682
                },
                {
                    "name": "A#2",
                    "midi": 46,
                    "time": 292.8000000000036,
                    "velocity": 0.5905511811023622,
                    "duration": 0.11750000000000682
                },
                {
                    "name": "F3",
                    "midi": 53,
                    "time": 292.8000000000036,
                    "velocity": 0.5905511811023622,
                    "duration": 0.11750000000000682
                },
                {
                    "name": "A#3",
                    "midi": 58,
                    "time": 293.4000000000036,
                    "velocity": 0.5905511811023622,
                    "duration": 0.11750000000000682
                },
                {
                    "name": "G3",
                    "midi": 55,
                    "time": 294.00000000000364,
                    "velocity": 0.5905511811023622,
                    "duration": 0.11750000000000682
                },
                {
                    "name": "D#4",
                    "midi": 63,
                    "time": 294.00000000000364,
                    "velocity": 0.5905511811023622,
                    "duration": 0.11750000000000682
                },
                {
                    "name": "E4",
                    "midi": 64,
                    "time": 294.00000000000364,
                    "velocity": 0.5905511811023622,
                    "duration": 0.11750000000000682
                },
                {
                    "name": "A#3",
                    "midi": 58,
                    "time": 294.60000000000366,
                    "velocity": 0.5905511811023622,
                    "duration": 0.11750000000000682
                },
                {
                    "name": "C#4",
                    "midi": 61,
                    "time": 295.2000000000037,
                    "velocity": 0.5905511811023622,
                    "duration": 0.11750000000000682
                },
                {
                    "name": "E4",
                    "midi": 64,
                    "time": 295.2000000000037,
                    "velocity": 0.5905511811023622,
                    "duration": 0.11750000000000682
                },
                {
                    "name": "G4",
                    "midi": 67,
                    "time": 295.2000000000037,
                    "velocity": 0.5905511811023622,
                    "duration": 0.11750000000000682
                },
                {
                    "name": "C5",
                    "midi": 72,
                    "time": 295.2000000000037,
                    "velocity": 0.5905511811023622,
                    "duration": 0.11750000000000682
                },
                {
                    "name": "A#3",
                    "midi": 58,
                    "time": 295.8000000000037,
                    "velocity": 0.5905511811023622,
                    "duration": 0.11750000000000682
                },
                {
                    "name": "G3",
                    "midi": 55,
                    "time": 296.40000000000373,
                    "velocity": 0.5905511811023622,
                    "duration": 0.11750000000000682
                },
                {
                    "name": "D#4",
                    "midi": 63,
                    "time": 296.40000000000373,
                    "velocity": 0.5905511811023622,
                    "duration": 0.11750000000000682
                },
                {
                    "name": "E4",
                    "midi": 64,
                    "time": 296.40000000000373,
                    "velocity": 0.5905511811023622,
                    "duration": 0.11750000000000682
                },
                {
                    "name": "A#3",
                    "midi": 58,
                    "time": 297.00000000000375,
                    "velocity": 0.5905511811023622,
                    "duration": 0.11750000000000682
                },
                {
                    "name": "D#2",
                    "midi": 39,
                    "time": 297.6000000000038,
                    "velocity": 0.5905511811023622,
                    "duration": 0.11750000000000682
                },
                {
                    "name": "A#2",
                    "midi": 46,
                    "time": 297.6000000000038,
                    "velocity": 0.5905511811023622,
                    "duration": 0.11750000000000682
                },
                {
                    "name": "F3",
                    "midi": 53,
                    "time": 297.6000000000038,
                    "velocity": 0.5905511811023622,
                    "duration": 0.11750000000000682
                },
                {
                    "name": "A#3",
                    "midi": 58,
                    "time": 298.2000000000038,
                    "velocity": 0.5905511811023622,
                    "duration": 0.11750000000000682
                },
                {
                    "name": "G3",
                    "midi": 55,
                    "time": 298.8000000000038,
                    "velocity": 0.5905511811023622,
                    "duration": 0.11750000000000682
                },
                {
                    "name": "D#4",
                    "midi": 63,
                    "time": 298.8000000000038,
                    "velocity": 0.5905511811023622,
                    "duration": 0.11750000000000682
                },
                {
                    "name": "E4",
                    "midi": 64,
                    "time": 298.8000000000038,
                    "velocity": 0.5905511811023622,
                    "duration": 0.11750000000000682
                },
                {
                    "name": "A#3",
                    "midi": 58,
                    "time": 299.40000000000384,
                    "velocity": 0.5905511811023622,
                    "duration": 0.11750000000000682
                },
                {
                    "name": "E2",
                    "midi": 40,
                    "time": 300.00000000000387,
                    "velocity": 0.5905511811023622,
                    "duration": 0.11750000000000682
                },
                {
                    "name": "G#2",
                    "midi": 44,
                    "time": 300.00000000000387,
                    "velocity": 0.5905511811023622,
                    "duration": 0.11750000000000682
                },
                {
                    "name": "B2",
                    "midi": 47,
                    "time": 300.00000000000387,
                    "velocity": 0.5905511811023622,
                    "duration": 0.11750000000000682
                },
                {
                    "name": "E3",
                    "midi": 52,
                    "time": 300.00000000000387,
                    "velocity": 0.5905511811023622,
                    "duration": 0.11750000000000682
                },
                {
                    "name": "E2",
                    "midi": 40,
                    "time": 300.6000000000039,
                    "velocity": 0.5905511811023622,
                    "duration": 0.11750000000000682
                },
                {
                    "name": "G#2",
                    "midi": 44,
                    "time": 300.6000000000039,
                    "velocity": 0.5905511811023622,
                    "duration": 0.11750000000000682
                },
                {
                    "name": "B2",
                    "midi": 47,
                    "time": 300.6000000000039,
                    "velocity": 0.5905511811023622,
                    "duration": 0.11750000000000682
                },
                {
                    "name": "E3",
                    "midi": 52,
                    "time": 300.6000000000039,
                    "velocity": 0.5905511811023622,
                    "duration": 0.11750000000000682
                },
                {
                    "name": "E2",
                    "midi": 40,
                    "time": 301.2000000000039,
                    "velocity": 0.5905511811023622,
                    "duration": 0.11750000000000682
                },
                {
                    "name": "G#2",
                    "midi": 44,
                    "time": 301.2000000000039,
                    "velocity": 0.5905511811023622,
                    "duration": 0.11750000000000682
                },
                {
                    "name": "B2",
                    "midi": 47,
                    "time": 301.2000000000039,
                    "velocity": 0.5905511811023622,
                    "duration": 0.11750000000000682
                },
                {
                    "name": "E3",
                    "midi": 52,
                    "time": 301.2000000000039,
                    "velocity": 0.5905511811023622,
                    "duration": 0.11750000000000682
                },
                {
                    "name": "E2",
                    "midi": 40,
                    "time": 301.80000000000393,
                    "velocity": 0.5905511811023622,
                    "duration": 0.11750000000000682
                },
                {
                    "name": "G#2",
                    "midi": 44,
                    "time": 301.80000000000393,
                    "velocity": 0.5905511811023622,
                    "duration": 0.11750000000000682
                },
                {
                    "name": "B2",
                    "midi": 47,
                    "time": 301.80000000000393,
                    "velocity": 0.5905511811023622,
                    "duration": 0.11750000000000682
                },
                {
                    "name": "E3",
                    "midi": 52,
                    "time": 301.80000000000393,
                    "velocity": 0.5905511811023622,
                    "duration": 0.11750000000000682
                },
                {
                    "name": "E2",
                    "midi": 40,
                    "time": 302.40000000000396,
                    "velocity": 0.5905511811023622,
                    "duration": 0.11750000000000682
                },
                {
                    "name": "G#2",
                    "midi": 44,
                    "time": 302.40000000000396,
                    "velocity": 0.5905511811023622,
                    "duration": 0.11750000000000682
                },
                {
                    "name": "B2",
                    "midi": 47,
                    "time": 302.40000000000396,
                    "velocity": 0.5905511811023622,
                    "duration": 0.11750000000000682
                },
                {
                    "name": "E3",
                    "midi": 52,
                    "time": 302.40000000000396,
                    "velocity": 0.5905511811023622,
                    "duration": 0.11750000000000682
                },
                {
                    "name": "E2",
                    "midi": 40,
                    "time": 303.000000000004,
                    "velocity": 0.5905511811023622,
                    "duration": 0.11750000000000682
                },
                {
                    "name": "G#2",
                    "midi": 44,
                    "time": 303.000000000004,
                    "velocity": 0.5905511811023622,
                    "duration": 0.11750000000000682
                },
                {
                    "name": "B2",
                    "midi": 47,
                    "time": 303.000000000004,
                    "velocity": 0.5905511811023622,
                    "duration": 0.11750000000000682
                },
                {
                    "name": "E3",
                    "midi": 52,
                    "time": 303.000000000004,
                    "velocity": 0.5905511811023622,
                    "duration": 0.11750000000000682
                },
                {
                    "name": "E2",
                    "midi": 40,
                    "time": 303.600000000004,
                    "velocity": 0.5905511811023622,
                    "duration": 0.11750000000000682
                },
                {
                    "name": "G#2",
                    "midi": 44,
                    "time": 303.600000000004,
                    "velocity": 0.5905511811023622,
                    "duration": 0.11750000000000682
                },
                {
                    "name": "B2",
                    "midi": 47,
                    "time": 303.600000000004,
                    "velocity": 0.5905511811023622,
                    "duration": 0.11750000000000682
                },
                {
                    "name": "E3",
                    "midi": 52,
                    "time": 303.600000000004,
                    "velocity": 0.5905511811023622,
                    "duration": 0.11750000000000682
                },
                {
                    "name": "E2",
                    "midi": 40,
                    "time": 304.200000000004,
                    "velocity": 0.5905511811023622,
                    "duration": 0.11750000000000682
                },
                {
                    "name": "G#2",
                    "midi": 44,
                    "time": 304.200000000004,
                    "velocity": 0.5905511811023622,
                    "duration": 0.11750000000000682
                },
                {
                    "name": "B2",
                    "midi": 47,
                    "time": 304.200000000004,
                    "velocity": 0.5905511811023622,
                    "duration": 0.11750000000000682
                },
                {
                    "name": "E3",
                    "midi": 52,
                    "time": 304.200000000004,
                    "velocity": 0.5905511811023622,
                    "duration": 0.11750000000000682
                },
                {
                    "name": "E2",
                    "midi": 40,
                    "time": 304.80000000000405,
                    "velocity": 0.5905511811023622,
                    "duration": 0.11750000000000682
                },
                {
                    "name": "G#2",
                    "midi": 44,
                    "time": 304.80000000000405,
                    "velocity": 0.5905511811023622,
                    "duration": 0.11750000000000682
                },
                {
                    "name": "B2",
                    "midi": 47,
                    "time": 304.80000000000405,
                    "velocity": 0.5905511811023622,
                    "duration": 0.11750000000000682
                },
                {
                    "name": "E3",
                    "midi": 52,
                    "time": 304.80000000000405,
                    "velocity": 0.5905511811023622,
                    "duration": 0.11750000000000682
                },
                {
                    "name": "E2",
                    "midi": 40,
                    "time": 305.40000000000407,
                    "velocity": 0.7952755905511811,
                    "duration": 0.11750000000000682
                },
                {
                    "name": "G#2",
                    "midi": 44,
                    "time": 305.40000000000407,
                    "velocity": 0.7952755905511811,
                    "duration": 0.11750000000000682
                },
                {
                    "name": "B2",
                    "midi": 47,
                    "time": 305.40000000000407,
                    "velocity": 0.7952755905511811,
                    "duration": 0.11750000000000682
                },
                {
                    "name": "E3",
                    "midi": 52,
                    "time": 305.40000000000407,
                    "velocity": 0.7952755905511811,
                    "duration": 0.11750000000000682
                },
                {
                    "name": "E2",
                    "midi": 40,
                    "time": 306.0000000000041,
                    "velocity": 0.5905511811023622,
                    "duration": 0.11750000000000682
                },
                {
                    "name": "G#2",
                    "midi": 44,
                    "time": 306.0000000000041,
                    "velocity": 0.5905511811023622,
                    "duration": 0.11750000000000682
                },
                {
                    "name": "B2",
                    "midi": 47,
                    "time": 306.0000000000041,
                    "velocity": 0.5905511811023622,
                    "duration": 0.11750000000000682
                },
                {
                    "name": "E3",
                    "midi": 52,
                    "time": 306.0000000000041,
                    "velocity": 0.5905511811023622,
                    "duration": 0.11750000000000682
                },
                {
                    "name": "E2",
                    "midi": 40,
                    "time": 306.6000000000041,
                    "velocity": 0.7952755905511811,
                    "duration": 0.11750000000000682
                },
                {
                    "name": "G#2",
                    "midi": 44,
                    "time": 306.6000000000041,
                    "velocity": 0.7952755905511811,
                    "duration": 0.11750000000000682
                },
                {
                    "name": "B2",
                    "midi": 47,
                    "time": 306.6000000000041,
                    "velocity": 0.7952755905511811,
                    "duration": 0.11750000000000682
                },
                {
                    "name": "E3",
                    "midi": 52,
                    "time": 306.6000000000041,
                    "velocity": 0.7952755905511811,
                    "duration": 0.11750000000000682
                },
                {
                    "name": "E2",
                    "midi": 40,
                    "time": 307.20000000000414,
                    "velocity": 0.5905511811023622,
                    "duration": 0.11750000000000682
                },
                {
                    "name": "G#2",
                    "midi": 44,
                    "time": 307.20000000000414,
                    "velocity": 0.5905511811023622,
                    "duration": 0.11750000000000682
                },
                {
                    "name": "B2",
                    "midi": 47,
                    "time": 307.20000000000414,
                    "velocity": 0.5905511811023622,
                    "duration": 0.11750000000000682
                },
                {
                    "name": "E3",
                    "midi": 52,
                    "time": 307.20000000000414,
                    "velocity": 0.5905511811023622,
                    "duration": 0.11750000000000682
                },
                {
                    "name": "E2",
                    "midi": 40,
                    "time": 307.80000000000416,
                    "velocity": 0.5905511811023622,
                    "duration": 0.11750000000000682
                },
                {
                    "name": "G#2",
                    "midi": 44,
                    "time": 307.80000000000416,
                    "velocity": 0.5905511811023622,
                    "duration": 0.11750000000000682
                },
                {
                    "name": "B2",
                    "midi": 47,
                    "time": 307.80000000000416,
                    "velocity": 0.5905511811023622,
                    "duration": 0.11750000000000682
                },
                {
                    "name": "E3",
                    "midi": 52,
                    "time": 307.80000000000416,
                    "velocity": 0.5905511811023622,
                    "duration": 0.11750000000000682
                },
                {
                    "name": "E2",
                    "midi": 40,
                    "time": 308.4000000000042,
                    "velocity": 0.5905511811023622,
                    "duration": 0.11750000000000682
                },
                {
                    "name": "G#2",
                    "midi": 44,
                    "time": 308.4000000000042,
                    "velocity": 0.5905511811023622,
                    "duration": 0.11750000000000682
                },
                {
                    "name": "B2",
                    "midi": 47,
                    "time": 308.4000000000042,
                    "velocity": 0.5905511811023622,
                    "duration": 0.11750000000000682
                },
                {
                    "name": "E3",
                    "midi": 52,
                    "time": 308.4000000000042,
                    "velocity": 0.5905511811023622,
                    "duration": 0.11750000000000682
                },
                {
                    "name": "E2",
                    "midi": 40,
                    "time": 309.0000000000042,
                    "velocity": 0.5905511811023622,
                    "duration": 0.11750000000000682
                },
                {
                    "name": "G#2",
                    "midi": 44,
                    "time": 309.0000000000042,
                    "velocity": 0.5905511811023622,
                    "duration": 0.11750000000000682
                },
                {
                    "name": "B2",
                    "midi": 47,
                    "time": 309.0000000000042,
                    "velocity": 0.5905511811023622,
                    "duration": 0.11750000000000682
                },
                {
                    "name": "E3",
                    "midi": 52,
                    "time": 309.0000000000042,
                    "velocity": 0.5905511811023622,
                    "duration": 0.11750000000000682
                },
                {
                    "name": "E2",
                    "midi": 40,
                    "time": 309.60000000000423,
                    "velocity": 0.5905511811023622,
                    "duration": 0.11750000000000682
                },
                {
                    "name": "G#2",
                    "midi": 44,
                    "time": 309.60000000000423,
                    "velocity": 0.5905511811023622,
                    "duration": 0.11750000000000682
                },
                {
                    "name": "B2",
                    "midi": 47,
                    "time": 309.60000000000423,
                    "velocity": 0.5905511811023622,
                    "duration": 0.11750000000000682
                },
                {
                    "name": "E3",
                    "midi": 52,
                    "time": 309.60000000000423,
                    "velocity": 0.5905511811023622,
                    "duration": 0.11750000000000682
                },
                {
                    "name": "E2",
                    "midi": 40,
                    "time": 310.20000000000425,
                    "velocity": 0.7952755905511811,
                    "duration": 0.11750000000000682
                },
                {
                    "name": "G#2",
                    "midi": 44,
                    "time": 310.20000000000425,
                    "velocity": 0.7952755905511811,
                    "duration": 0.11750000000000682
                },
                {
                    "name": "B2",
                    "midi": 47,
                    "time": 310.20000000000425,
                    "velocity": 0.7952755905511811,
                    "duration": 0.11750000000000682
                },
                {
                    "name": "E3",
                    "midi": 52,
                    "time": 310.20000000000425,
                    "velocity": 0.7952755905511811,
                    "duration": 0.11750000000000682
                },
                {
                    "name": "E2",
                    "midi": 40,
                    "time": 310.8000000000043,
                    "velocity": 0.5905511811023622,
                    "duration": 0.11750000000000682
                },
                {
                    "name": "G#2",
                    "midi": 44,
                    "time": 310.8000000000043,
                    "velocity": 0.5905511811023622,
                    "duration": 0.11750000000000682
                },
                {
                    "name": "B2",
                    "midi": 47,
                    "time": 310.8000000000043,
                    "velocity": 0.5905511811023622,
                    "duration": 0.11750000000000682
                },
                {
                    "name": "E3",
                    "midi": 52,
                    "time": 310.8000000000043,
                    "velocity": 0.5905511811023622,
                    "duration": 0.11750000000000682
                },
                {
                    "name": "E2",
                    "midi": 40,
                    "time": 311.4000000000043,
                    "velocity": 0.5905511811023622,
                    "duration": 0.11750000000000682
                },
                {
                    "name": "G#2",
                    "midi": 44,
                    "time": 311.4000000000043,
                    "velocity": 0.5905511811023622,
                    "duration": 0.11750000000000682
                },
                {
                    "name": "B2",
                    "midi": 47,
                    "time": 311.4000000000043,
                    "velocity": 0.5905511811023622,
                    "duration": 0.11750000000000682
                },
                {
                    "name": "E3",
                    "midi": 52,
                    "time": 311.4000000000043,
                    "velocity": 0.5905511811023622,
                    "duration": 0.11750000000000682
                },
                {
                    "name": "E2",
                    "midi": 40,
                    "time": 312.0000000000043,
                    "velocity": 0.7952755905511811,
                    "duration": 0.11750000000000682
                },
                {
                    "name": "G#2",
                    "midi": 44,
                    "time": 312.0000000000043,
                    "velocity": 0.7952755905511811,
                    "duration": 0.11750000000000682
                },
                {
                    "name": "B2",
                    "midi": 47,
                    "time": 312.0000000000043,
                    "velocity": 0.7952755905511811,
                    "duration": 0.11750000000000682
                },
                {
                    "name": "E3",
                    "midi": 52,
                    "time": 312.0000000000043,
                    "velocity": 0.7952755905511811,
                    "duration": 0.11750000000000682
                },
                {
                    "name": "E2",
                    "midi": 40,
                    "time": 312.60000000000434,
                    "velocity": 0.5905511811023622,
                    "duration": 0.11750000000000682
                },
                {
                    "name": "G#2",
                    "midi": 44,
                    "time": 312.60000000000434,
                    "velocity": 0.5905511811023622,
                    "duration": 0.11750000000000682
                },
                {
                    "name": "B2",
                    "midi": 47,
                    "time": 312.60000000000434,
                    "velocity": 0.5905511811023622,
                    "duration": 0.11750000000000682
                },
                {
                    "name": "E3",
                    "midi": 52,
                    "time": 312.60000000000434,
                    "velocity": 0.5905511811023622,
                    "duration": 0.11750000000000682
                },
                {
                    "name": "E2",
                    "midi": 40,
                    "time": 313.20000000000437,
                    "velocity": 0.5905511811023622,
                    "duration": 0.11750000000000682
                },
                {
                    "name": "G#2",
                    "midi": 44,
                    "time": 313.20000000000437,
                    "velocity": 0.5905511811023622,
                    "duration": 0.11750000000000682
                },
                {
                    "name": "B2",
                    "midi": 47,
                    "time": 313.20000000000437,
                    "velocity": 0.5905511811023622,
                    "duration": 0.11750000000000682
                },
                {
                    "name": "E3",
                    "midi": 52,
                    "time": 313.20000000000437,
                    "velocity": 0.5905511811023622,
                    "duration": 0.11750000000000682
                },
                {
                    "name": "E2",
                    "midi": 40,
                    "time": 313.8000000000044,
                    "velocity": 0.5905511811023622,
                    "duration": 0.11750000000000682
                },
                {
                    "name": "G#2",
                    "midi": 44,
                    "time": 313.8000000000044,
                    "velocity": 0.5905511811023622,
                    "duration": 0.11750000000000682
                },
                {
                    "name": "B2",
                    "midi": 47,
                    "time": 313.8000000000044,
                    "velocity": 0.5905511811023622,
                    "duration": 0.11750000000000682
                },
                {
                    "name": "E3",
                    "midi": 52,
                    "time": 313.8000000000044,
                    "velocity": 0.5905511811023622,
                    "duration": 0.11750000000000682
                },
                {
                    "name": "E2",
                    "midi": 40,
                    "time": 314.4000000000044,
                    "velocity": 0.7952755905511811,
                    "duration": 0.11750000000000682
                },
                {
                    "name": "G#2",
                    "midi": 44,
                    "time": 314.4000000000044,
                    "velocity": 0.7952755905511811,
                    "duration": 0.11750000000000682
                },
                {
                    "name": "B2",
                    "midi": 47,
                    "time": 314.4000000000044,
                    "velocity": 0.7952755905511811,
                    "duration": 0.11750000000000682
                },
                {
                    "name": "E3",
                    "midi": 52,
                    "time": 314.4000000000044,
                    "velocity": 0.7952755905511811,
                    "duration": 0.11750000000000682
                },
                {
                    "name": "E2",
                    "midi": 40,
                    "time": 315.00000000000443,
                    "velocity": 0.5905511811023622,
                    "duration": 0.11750000000000682
                },
                {
                    "name": "G#2",
                    "midi": 44,
                    "time": 315.00000000000443,
                    "velocity": 0.5905511811023622,
                    "duration": 0.11750000000000682
                },
                {
                    "name": "B2",
                    "midi": 47,
                    "time": 315.00000000000443,
                    "velocity": 0.5905511811023622,
                    "duration": 0.11750000000000682
                },
                {
                    "name": "E3",
                    "midi": 52,
                    "time": 315.00000000000443,
                    "velocity": 0.5905511811023622,
                    "duration": 0.11750000000000682
                },
                {
                    "name": "E2",
                    "midi": 40,
                    "time": 315.60000000000446,
                    "velocity": 0.5905511811023622,
                    "duration": 0.11750000000000682
                },
                {
                    "name": "G#2",
                    "midi": 44,
                    "time": 315.60000000000446,
                    "velocity": 0.5905511811023622,
                    "duration": 0.11750000000000682
                },
                {
                    "name": "B2",
                    "midi": 47,
                    "time": 315.60000000000446,
                    "velocity": 0.5905511811023622,
                    "duration": 0.11750000000000682
                },
                {
                    "name": "E3",
                    "midi": 52,
                    "time": 315.60000000000446,
                    "velocity": 0.5905511811023622,
                    "duration": 0.11750000000000682
                },
                {
                    "name": "E2",
                    "midi": 40,
                    "time": 316.2000000000045,
                    "velocity": 0.5905511811023622,
                    "duration": 0.11750000000000682
                },
                {
                    "name": "G#2",
                    "midi": 44,
                    "time": 316.2000000000045,
                    "velocity": 0.5905511811023622,
                    "duration": 0.11750000000000682
                },
                {
                    "name": "B2",
                    "midi": 47,
                    "time": 316.2000000000045,
                    "velocity": 0.5905511811023622,
                    "duration": 0.11750000000000682
                },
                {
                    "name": "E3",
                    "midi": 52,
                    "time": 316.2000000000045,
                    "velocity": 0.5905511811023622,
                    "duration": 0.11750000000000682
                },
                {
                    "name": "E2",
                    "midi": 40,
                    "time": 316.8000000000045,
                    "velocity": 0.5905511811023622,
                    "duration": 0.11750000000000682
                },
                {
                    "name": "G#2",
                    "midi": 44,
                    "time": 316.8000000000045,
                    "velocity": 0.5905511811023622,
                    "duration": 0.11750000000000682
                },
                {
                    "name": "B2",
                    "midi": 47,
                    "time": 316.8000000000045,
                    "velocity": 0.5905511811023622,
                    "duration": 0.11750000000000682
                },
                {
                    "name": "E3",
                    "midi": 52,
                    "time": 316.8000000000045,
                    "velocity": 0.5905511811023622,
                    "duration": 0.11750000000000682
                },
                {
                    "name": "E2",
                    "midi": 40,
                    "time": 317.4000000000045,
                    "velocity": 0.7952755905511811,
                    "duration": 0.11750000000000682
                },
                {
                    "name": "G#2",
                    "midi": 44,
                    "time": 317.4000000000045,
                    "velocity": 0.7952755905511811,
                    "duration": 0.11750000000000682
                },
                {
                    "name": "B2",
                    "midi": 47,
                    "time": 317.4000000000045,
                    "velocity": 0.7952755905511811,
                    "duration": 0.11750000000000682
                },
                {
                    "name": "E3",
                    "midi": 52,
                    "time": 317.4000000000045,
                    "velocity": 0.7952755905511811,
                    "duration": 0.11750000000000682
                },
                {
                    "name": "E2",
                    "midi": 40,
                    "time": 318.00000000000455,
                    "velocity": 0.5905511811023622,
                    "duration": 0.11750000000000682
                },
                {
                    "name": "G#2",
                    "midi": 44,
                    "time": 318.00000000000455,
                    "velocity": 0.5905511811023622,
                    "duration": 0.11750000000000682
                },
                {
                    "name": "B2",
                    "midi": 47,
                    "time": 318.00000000000455,
                    "velocity": 0.5905511811023622,
                    "duration": 0.11750000000000682
                },
                {
                    "name": "E3",
                    "midi": 52,
                    "time": 318.00000000000455,
                    "velocity": 0.5905511811023622,
                    "duration": 0.11750000000000682
                },
                {
                    "name": "E2",
                    "midi": 40,
                    "time": 318.60000000000457,
                    "velocity": 0.5905511811023622,
                    "duration": 0.11750000000000682
                },
                {
                    "name": "G#2",
                    "midi": 44,
                    "time": 318.60000000000457,
                    "velocity": 0.5905511811023622,
                    "duration": 0.11750000000000682
                },
                {
                    "name": "B2",
                    "midi": 47,
                    "time": 318.60000000000457,
                    "velocity": 0.5905511811023622,
                    "duration": 0.11750000000000682
                },
                {
                    "name": "E3",
                    "midi": 52,
                    "time": 318.60000000000457,
                    "velocity": 0.5905511811023622,
                    "duration": 0.11750000000000682
                },
                {
                    "name": "E2",
                    "midi": 40,
                    "time": 319.2000000000046,
                    "velocity": 0.5905511811023622,
                    "duration": 0.11750000000000682
                },
                {
                    "name": "G#2",
                    "midi": 44,
                    "time": 319.2000000000046,
                    "velocity": 0.5905511811023622,
                    "duration": 0.11750000000000682
                },
                {
                    "name": "B2",
                    "midi": 47,
                    "time": 319.2000000000046,
                    "velocity": 0.5905511811023622,
                    "duration": 0.11750000000000682
                },
                {
                    "name": "E3",
                    "midi": 52,
                    "time": 319.2000000000046,
                    "velocity": 0.5905511811023622,
                    "duration": 0.11750000000000682
                },
                {
                    "name": "E3",
                    "midi": 52,
                    "time": 319.8000000000046,
                    "velocity": 0.3858267716535433,
                    "duration": 0.11750000000000682
                },
                {
                    "name": "G3",
                    "midi": 55,
                    "time": 319.8000000000046,
                    "velocity": 0.3858267716535433,
                    "duration": 0.11750000000000682
                },
                {
                    "name": "A#3",
                    "midi": 58,
                    "time": 319.8000000000046,
                    "velocity": 0.3858267716535433,
                    "duration": 0.11750000000000682
                },
                {
                    "name": "C#4",
                    "midi": 61,
                    "time": 319.8000000000046,
                    "velocity": 0.3858267716535433,
                    "duration": 0.11750000000000682
                },
                {
                    "name": "D#4",
                    "midi": 63,
                    "time": 319.8000000000046,
                    "velocity": 0.3858267716535433,
                    "duration": 0.11750000000000682
                },
                {
                    "name": "E3",
                    "midi": 52,
                    "time": 320.40000000000464,
                    "velocity": 0.3858267716535433,
                    "duration": 0.11750000000000682
                },
                {
                    "name": "G3",
                    "midi": 55,
                    "time": 320.40000000000464,
                    "velocity": 0.3858267716535433,
                    "duration": 0.11750000000000682
                },
                {
                    "name": "A#3",
                    "midi": 58,
                    "time": 320.40000000000464,
                    "velocity": 0.3858267716535433,
                    "duration": 0.11750000000000682
                },
                {
                    "name": "C#4",
                    "midi": 61,
                    "time": 320.40000000000464,
                    "velocity": 0.3858267716535433,
                    "duration": 0.11750000000000682
                },
                {
                    "name": "D#4",
                    "midi": 63,
                    "time": 320.40000000000464,
                    "velocity": 0.3858267716535433,
                    "duration": 0.11750000000000682
                },
                {
                    "name": "E3",
                    "midi": 52,
                    "time": 321.00000000000466,
                    "velocity": 0.3858267716535433,
                    "duration": 0.11750000000000682
                },
                {
                    "name": "G3",
                    "midi": 55,
                    "time": 321.00000000000466,
                    "velocity": 0.3858267716535433,
                    "duration": 0.11750000000000682
                },
                {
                    "name": "A#3",
                    "midi": 58,
                    "time": 321.00000000000466,
                    "velocity": 0.3858267716535433,
                    "duration": 0.11750000000000682
                },
                {
                    "name": "C#4",
                    "midi": 61,
                    "time": 321.00000000000466,
                    "velocity": 0.3858267716535433,
                    "duration": 0.11750000000000682
                },
                {
                    "name": "D#4",
                    "midi": 63,
                    "time": 321.00000000000466,
                    "velocity": 0.3858267716535433,
                    "duration": 0.11750000000000682
                },
                {
                    "name": "E3",
                    "midi": 52,
                    "time": 321.6000000000047,
                    "velocity": 0.3858267716535433,
                    "duration": 0.11750000000000682
                },
                {
                    "name": "G3",
                    "midi": 55,
                    "time": 321.6000000000047,
                    "velocity": 0.3858267716535433,
                    "duration": 0.11750000000000682
                },
                {
                    "name": "A#3",
                    "midi": 58,
                    "time": 321.6000000000047,
                    "velocity": 0.3858267716535433,
                    "duration": 0.11750000000000682
                },
                {
                    "name": "C#4",
                    "midi": 61,
                    "time": 321.6000000000047,
                    "velocity": 0.3858267716535433,
                    "duration": 0.11750000000000682
                },
                {
                    "name": "D#4",
                    "midi": 63,
                    "time": 321.6000000000047,
                    "velocity": 0.3858267716535433,
                    "duration": 0.11750000000000682
                },
                {
                    "name": "E3",
                    "midi": 52,
                    "time": 322.2000000000047,
                    "velocity": 0.3858267716535433,
                    "duration": 0.11750000000000682
                },
                {
                    "name": "G3",
                    "midi": 55,
                    "time": 322.2000000000047,
                    "velocity": 0.3858267716535433,
                    "duration": 0.11750000000000682
                },
                {
                    "name": "A#3",
                    "midi": 58,
                    "time": 322.2000000000047,
                    "velocity": 0.3858267716535433,
                    "duration": 0.11750000000000682
                },
                {
                    "name": "C#4",
                    "midi": 61,
                    "time": 322.2000000000047,
                    "velocity": 0.3858267716535433,
                    "duration": 0.11750000000000682
                },
                {
                    "name": "D#4",
                    "midi": 63,
                    "time": 322.2000000000047,
                    "velocity": 0.3858267716535433,
                    "duration": 0.11750000000000682
                },
                {
                    "name": "E3",
                    "midi": 52,
                    "time": 322.80000000000473,
                    "velocity": 0.3858267716535433,
                    "duration": 0.11750000000000682
                },
                {
                    "name": "G3",
                    "midi": 55,
                    "time": 322.80000000000473,
                    "velocity": 0.3858267716535433,
                    "duration": 0.11750000000000682
                },
                {
                    "name": "A#3",
                    "midi": 58,
                    "time": 322.80000000000473,
                    "velocity": 0.3858267716535433,
                    "duration": 0.11750000000000682
                },
                {
                    "name": "C#4",
                    "midi": 61,
                    "time": 322.80000000000473,
                    "velocity": 0.3858267716535433,
                    "duration": 0.11750000000000682
                },
                {
                    "name": "D#4",
                    "midi": 63,
                    "time": 322.80000000000473,
                    "velocity": 0.3858267716535433,
                    "duration": 0.11750000000000682
                },
                {
                    "name": "E3",
                    "midi": 52,
                    "time": 323.40000000000475,
                    "velocity": 0.3858267716535433,
                    "duration": 0.11750000000000682
                },
                {
                    "name": "G3",
                    "midi": 55,
                    "time": 323.40000000000475,
                    "velocity": 0.3858267716535433,
                    "duration": 0.11750000000000682
                },
                {
                    "name": "A#3",
                    "midi": 58,
                    "time": 323.40000000000475,
                    "velocity": 0.3858267716535433,
                    "duration": 0.11750000000000682
                },
                {
                    "name": "C#4",
                    "midi": 61,
                    "time": 323.40000000000475,
                    "velocity": 0.3858267716535433,
                    "duration": 0.11750000000000682
                },
                {
                    "name": "D#4",
                    "midi": 63,
                    "time": 323.40000000000475,
                    "velocity": 0.3858267716535433,
                    "duration": 0.11750000000000682
                },
                {
                    "name": "E3",
                    "midi": 52,
                    "time": 324.0000000000048,
                    "velocity": 0.3858267716535433,
                    "duration": 0.11750000000000682
                },
                {
                    "name": "G3",
                    "midi": 55,
                    "time": 324.0000000000048,
                    "velocity": 0.3858267716535433,
                    "duration": 0.11750000000000682
                },
                {
                    "name": "A#3",
                    "midi": 58,
                    "time": 324.0000000000048,
                    "velocity": 0.3858267716535433,
                    "duration": 0.11750000000000682
                },
                {
                    "name": "C#4",
                    "midi": 61,
                    "time": 324.0000000000048,
                    "velocity": 0.3858267716535433,
                    "duration": 0.11750000000000682
                },
                {
                    "name": "D#4",
                    "midi": 63,
                    "time": 324.0000000000048,
                    "velocity": 0.3858267716535433,
                    "duration": 0.11750000000000682
                },
                {
                    "name": "E3",
                    "midi": 52,
                    "time": 324.6000000000048,
                    "velocity": 0.3858267716535433,
                    "duration": 0.11750000000000682
                },
                {
                    "name": "G3",
                    "midi": 55,
                    "time": 324.6000000000048,
                    "velocity": 0.3858267716535433,
                    "duration": 0.11750000000000682
                },
                {
                    "name": "A#3",
                    "midi": 58,
                    "time": 324.6000000000048,
                    "velocity": 0.3858267716535433,
                    "duration": 0.11750000000000682
                },
                {
                    "name": "C#4",
                    "midi": 61,
                    "time": 324.6000000000048,
                    "velocity": 0.3858267716535433,
                    "duration": 0.11750000000000682
                },
                {
                    "name": "D#4",
                    "midi": 63,
                    "time": 324.6000000000048,
                    "velocity": 0.3858267716535433,
                    "duration": 0.11750000000000682
                },
                {
                    "name": "E3",
                    "midi": 52,
                    "time": 325.2000000000048,
                    "velocity": 0.3858267716535433,
                    "duration": 0.11750000000000682
                },
                {
                    "name": "G3",
                    "midi": 55,
                    "time": 325.2000000000048,
                    "velocity": 0.3858267716535433,
                    "duration": 0.11750000000000682
                },
                {
                    "name": "A#3",
                    "midi": 58,
                    "time": 325.2000000000048,
                    "velocity": 0.3858267716535433,
                    "duration": 0.11750000000000682
                },
                {
                    "name": "C#4",
                    "midi": 61,
                    "time": 325.2000000000048,
                    "velocity": 0.3858267716535433,
                    "duration": 0.11750000000000682
                },
                {
                    "name": "D#4",
                    "midi": 63,
                    "time": 325.2000000000048,
                    "velocity": 0.3858267716535433,
                    "duration": 0.11750000000000682
                },
                {
                    "name": "E3",
                    "midi": 52,
                    "time": 325.80000000000484,
                    "velocity": 0.3858267716535433,
                    "duration": 0.11750000000000682
                },
                {
                    "name": "G3",
                    "midi": 55,
                    "time": 325.80000000000484,
                    "velocity": 0.3858267716535433,
                    "duration": 0.11750000000000682
                },
                {
                    "name": "A#3",
                    "midi": 58,
                    "time": 325.80000000000484,
                    "velocity": 0.3858267716535433,
                    "duration": 0.11750000000000682
                },
                {
                    "name": "C#4",
                    "midi": 61,
                    "time": 325.80000000000484,
                    "velocity": 0.3858267716535433,
                    "duration": 0.11750000000000682
                },
                {
                    "name": "D#4",
                    "midi": 63,
                    "time": 325.80000000000484,
                    "velocity": 0.3858267716535433,
                    "duration": 0.11750000000000682
                },
                {
                    "name": "E3",
                    "midi": 52,
                    "time": 326.40000000000487,
                    "velocity": 0.3858267716535433,
                    "duration": 0.11750000000000682
                },
                {
                    "name": "G3",
                    "midi": 55,
                    "time": 326.40000000000487,
                    "velocity": 0.3858267716535433,
                    "duration": 0.11750000000000682
                },
                {
                    "name": "A#3",
                    "midi": 58,
                    "time": 326.40000000000487,
                    "velocity": 0.3858267716535433,
                    "duration": 0.11750000000000682
                },
                {
                    "name": "C#4",
                    "midi": 61,
                    "time": 326.40000000000487,
                    "velocity": 0.3858267716535433,
                    "duration": 0.11750000000000682
                },
                {
                    "name": "D#4",
                    "midi": 63,
                    "time": 326.40000000000487,
                    "velocity": 0.3858267716535433,
                    "duration": 0.11750000000000682
                },
                {
                    "name": "E2",
                    "midi": 40,
                    "time": 327.0000000000049,
                    "velocity": 0.7952755905511811,
                    "duration": 0.11750000000000682
                },
                {
                    "name": "G#2",
                    "midi": 44,
                    "time": 327.0000000000049,
                    "velocity": 0.7952755905511811,
                    "duration": 0.11750000000000682
                },
                {
                    "name": "B2",
                    "midi": 47,
                    "time": 327.0000000000049,
                    "velocity": 0.7952755905511811,
                    "duration": 0.11750000000000682
                },
                {
                    "name": "E3",
                    "midi": 52,
                    "time": 327.0000000000049,
                    "velocity": 0.7952755905511811,
                    "duration": 0.11750000000000682
                },
                {
                    "name": "E2",
                    "midi": 40,
                    "time": 327.6000000000049,
                    "velocity": 0.5905511811023622,
                    "duration": 0.11750000000000682
                },
                {
                    "name": "G#2",
                    "midi": 44,
                    "time": 327.6000000000049,
                    "velocity": 0.5905511811023622,
                    "duration": 0.11750000000000682
                },
                {
                    "name": "B2",
                    "midi": 47,
                    "time": 327.6000000000049,
                    "velocity": 0.5905511811023622,
                    "duration": 0.11750000000000682
                },
                {
                    "name": "E3",
                    "midi": 52,
                    "time": 327.6000000000049,
                    "velocity": 0.5905511811023622,
                    "duration": 0.11750000000000682
                },
                {
                    "name": "E2",
                    "midi": 40,
                    "time": 328.20000000000493,
                    "velocity": 0.7952755905511811,
                    "duration": 0.11750000000000682
                },
                {
                    "name": "G#2",
                    "midi": 44,
                    "time": 328.20000000000493,
                    "velocity": 0.7952755905511811,
                    "duration": 0.11750000000000682
                },
                {
                    "name": "B2",
                    "midi": 47,
                    "time": 328.20000000000493,
                    "velocity": 0.7952755905511811,
                    "duration": 0.11750000000000682
                },
                {
                    "name": "E3",
                    "midi": 52,
                    "time": 328.20000000000493,
                    "velocity": 0.7952755905511811,
                    "duration": 0.11750000000000682
                },
                {
                    "name": "E2",
                    "midi": 40,
                    "time": 328.80000000000496,
                    "velocity": 0.3858267716535433,
                    "duration": 0.11750000000000682
                },
                {
                    "name": "G#2",
                    "midi": 44,
                    "time": 328.80000000000496,
                    "velocity": 0.3858267716535433,
                    "duration": 0.11750000000000682
                },
                {
                    "name": "B2",
                    "midi": 47,
                    "time": 328.80000000000496,
                    "velocity": 0.3858267716535433,
                    "duration": 0.11750000000000682
                },
                {
                    "name": "E3",
                    "midi": 52,
                    "time": 328.80000000000496,
                    "velocity": 0.3858267716535433,
                    "duration": 0.11750000000000682
                },
                {
                    "name": "E2",
                    "midi": 40,
                    "time": 329.400000000005,
                    "velocity": 0.3858267716535433,
                    "duration": 0.11750000000000682
                },
                {
                    "name": "G#2",
                    "midi": 44,
                    "time": 329.400000000005,
                    "velocity": 0.3858267716535433,
                    "duration": 0.11750000000000682
                },
                {
                    "name": "B2",
                    "midi": 47,
                    "time": 329.400000000005,
                    "velocity": 0.3858267716535433,
                    "duration": 0.11750000000000682
                },
                {
                    "name": "E3",
                    "midi": 52,
                    "time": 329.400000000005,
                    "velocity": 0.3858267716535433,
                    "duration": 0.11750000000000682
                },
                {
                    "name": "E2",
                    "midi": 40,
                    "time": 330.000000000005,
                    "velocity": 0.3858267716535433,
                    "duration": 0.11750000000000682
                },
                {
                    "name": "G#2",
                    "midi": 44,
                    "time": 330.000000000005,
                    "velocity": 0.3858267716535433,
                    "duration": 0.11750000000000682
                },
                {
                    "name": "B2",
                    "midi": 47,
                    "time": 330.000000000005,
                    "velocity": 0.3858267716535433,
                    "duration": 0.11750000000000682
                },
                {
                    "name": "E3",
                    "midi": 52,
                    "time": 330.000000000005,
                    "velocity": 0.3858267716535433,
                    "duration": 0.11750000000000682
                },
                {
                    "name": "E2",
                    "midi": 40,
                    "time": 330.600000000005,
                    "velocity": 0.3858267716535433,
                    "duration": 0.11750000000000682
                },
                {
                    "name": "G#2",
                    "midi": 44,
                    "time": 330.600000000005,
                    "velocity": 0.3858267716535433,
                    "duration": 0.11750000000000682
                },
                {
                    "name": "B2",
                    "midi": 47,
                    "time": 330.600000000005,
                    "velocity": 0.3858267716535433,
                    "duration": 0.11750000000000682
                },
                {
                    "name": "E3",
                    "midi": 52,
                    "time": 330.600000000005,
                    "velocity": 0.3858267716535433,
                    "duration": 0.11750000000000682
                },
                {
                    "name": "E2",
                    "midi": 40,
                    "time": 331.20000000000505,
                    "velocity": 0.3858267716535433,
                    "duration": 0.11750000000000682
                },
                {
                    "name": "G#2",
                    "midi": 44,
                    "time": 331.20000000000505,
                    "velocity": 0.3858267716535433,
                    "duration": 0.11750000000000682
                },
                {
                    "name": "B2",
                    "midi": 47,
                    "time": 331.20000000000505,
                    "velocity": 0.3858267716535433,
                    "duration": 0.11750000000000682
                },
                {
                    "name": "E3",
                    "midi": 52,
                    "time": 331.20000000000505,
                    "velocity": 0.3858267716535433,
                    "duration": 0.11750000000000682
                },
                {
                    "name": "E3",
                    "midi": 52,
                    "time": 331.80000000000507,
                    "velocity": 0.3858267716535433,
                    "duration": 0.11750000000000682
                },
                {
                    "name": "G3",
                    "midi": 55,
                    "time": 331.80000000000507,
                    "velocity": 0.3858267716535433,
                    "duration": 0.11750000000000682
                },
                {
                    "name": "A#3",
                    "midi": 58,
                    "time": 331.80000000000507,
                    "velocity": 0.3858267716535433,
                    "duration": 0.11750000000000682
                },
                {
                    "name": "C#4",
                    "midi": 61,
                    "time": 331.80000000000507,
                    "velocity": 0.3858267716535433,
                    "duration": 0.11750000000000682
                },
                {
                    "name": "D#4",
                    "midi": 63,
                    "time": 331.80000000000507,
                    "velocity": 0.3858267716535433,
                    "duration": 0.11750000000000682
                },
                {
                    "name": "E3",
                    "midi": 52,
                    "time": 332.4000000000051,
                    "velocity": 0.3858267716535433,
                    "duration": 0.11750000000000682
                },
                {
                    "name": "G3",
                    "midi": 55,
                    "time": 332.4000000000051,
                    "velocity": 0.3858267716535433,
                    "duration": 0.11750000000000682
                },
                {
                    "name": "A#3",
                    "midi": 58,
                    "time": 332.4000000000051,
                    "velocity": 0.3858267716535433,
                    "duration": 0.11750000000000682
                },
                {
                    "name": "C#4",
                    "midi": 61,
                    "time": 332.4000000000051,
                    "velocity": 0.3858267716535433,
                    "duration": 0.11750000000000682
                },
                {
                    "name": "D#4",
                    "midi": 63,
                    "time": 332.4000000000051,
                    "velocity": 0.3858267716535433,
                    "duration": 0.11750000000000682
                },
                {
                    "name": "E3",
                    "midi": 52,
                    "time": 333.0000000000051,
                    "velocity": 0.3858267716535433,
                    "duration": 0.11750000000000682
                },
                {
                    "name": "G3",
                    "midi": 55,
                    "time": 333.0000000000051,
                    "velocity": 0.3858267716535433,
                    "duration": 0.11750000000000682
                },
                {
                    "name": "A#3",
                    "midi": 58,
                    "time": 333.0000000000051,
                    "velocity": 0.3858267716535433,
                    "duration": 0.11750000000000682
                },
                {
                    "name": "C#4",
                    "midi": 61,
                    "time": 333.0000000000051,
                    "velocity": 0.3858267716535433,
                    "duration": 0.11750000000000682
                },
                {
                    "name": "D#4",
                    "midi": 63,
                    "time": 333.0000000000051,
                    "velocity": 0.3858267716535433,
                    "duration": 0.11750000000000682
                },
                {
                    "name": "E3",
                    "midi": 52,
                    "time": 333.60000000000514,
                    "velocity": 0.3858267716535433,
                    "duration": 0.11750000000000682
                },
                {
                    "name": "G3",
                    "midi": 55,
                    "time": 333.60000000000514,
                    "velocity": 0.3858267716535433,
                    "duration": 0.11750000000000682
                },
                {
                    "name": "A#3",
                    "midi": 58,
                    "time": 333.60000000000514,
                    "velocity": 0.3858267716535433,
                    "duration": 0.11750000000000682
                },
                {
                    "name": "C#4",
                    "midi": 61,
                    "time": 333.60000000000514,
                    "velocity": 0.3858267716535433,
                    "duration": 0.11750000000000682
                },
                {
                    "name": "D#4",
                    "midi": 63,
                    "time": 333.60000000000514,
                    "velocity": 0.3858267716535433,
                    "duration": 0.11750000000000682
                },
                {
                    "name": "E3",
                    "midi": 52,
                    "time": 334.20000000000516,
                    "velocity": 0.3858267716535433,
                    "duration": 0.11750000000000682
                },
                {
                    "name": "G3",
                    "midi": 55,
                    "time": 334.20000000000516,
                    "velocity": 0.3858267716535433,
                    "duration": 0.11750000000000682
                },
                {
                    "name": "A#3",
                    "midi": 58,
                    "time": 334.20000000000516,
                    "velocity": 0.3858267716535433,
                    "duration": 0.11750000000000682
                },
                {
                    "name": "C#4",
                    "midi": 61,
                    "time": 334.20000000000516,
                    "velocity": 0.3858267716535433,
                    "duration": 0.11750000000000682
                },
                {
                    "name": "D#4",
                    "midi": 63,
                    "time": 334.20000000000516,
                    "velocity": 0.3858267716535433,
                    "duration": 0.11750000000000682
                },
                {
                    "name": "E3",
                    "midi": 52,
                    "time": 334.8000000000052,
                    "velocity": 0.3858267716535433,
                    "duration": 0.11750000000000682
                },
                {
                    "name": "G3",
                    "midi": 55,
                    "time": 334.8000000000052,
                    "velocity": 0.3858267716535433,
                    "duration": 0.11750000000000682
                },
                {
                    "name": "A#3",
                    "midi": 58,
                    "time": 334.8000000000052,
                    "velocity": 0.3858267716535433,
                    "duration": 0.11750000000000682
                },
                {
                    "name": "C#4",
                    "midi": 61,
                    "time": 334.8000000000052,
                    "velocity": 0.3858267716535433,
                    "duration": 0.11750000000000682
                },
                {
                    "name": "D#4",
                    "midi": 63,
                    "time": 334.8000000000052,
                    "velocity": 0.3858267716535433,
                    "duration": 0.11750000000000682
                },
                {
                    "name": "E3",
                    "midi": 52,
                    "time": 335.4000000000052,
                    "velocity": 0.3858267716535433,
                    "duration": 0.11750000000000682
                },
                {
                    "name": "G3",
                    "midi": 55,
                    "time": 335.4000000000052,
                    "velocity": 0.3858267716535433,
                    "duration": 0.11750000000000682
                },
                {
                    "name": "A#3",
                    "midi": 58,
                    "time": 335.4000000000052,
                    "velocity": 0.3858267716535433,
                    "duration": 0.11750000000000682
                },
                {
                    "name": "C#4",
                    "midi": 61,
                    "time": 335.4000000000052,
                    "velocity": 0.3858267716535433,
                    "duration": 0.11750000000000682
                },
                {
                    "name": "D#4",
                    "midi": 63,
                    "time": 335.4000000000052,
                    "velocity": 0.3858267716535433,
                    "duration": 0.11750000000000682
                },
                {
                    "name": "E3",
                    "midi": 52,
                    "time": 336.00000000000523,
                    "velocity": 0.3858267716535433,
                    "duration": 0.11750000000000682
                },
                {
                    "name": "G3",
                    "midi": 55,
                    "time": 336.00000000000523,
                    "velocity": 0.3858267716535433,
                    "duration": 0.11750000000000682
                },
                {
                    "name": "A#3",
                    "midi": 58,
                    "time": 336.00000000000523,
                    "velocity": 0.3858267716535433,
                    "duration": 0.11750000000000682
                },
                {
                    "name": "C#4",
                    "midi": 61,
                    "time": 336.00000000000523,
                    "velocity": 0.3858267716535433,
                    "duration": 0.11750000000000682
                },
                {
                    "name": "D#4",
                    "midi": 63,
                    "time": 336.00000000000523,
                    "velocity": 0.3858267716535433,
                    "duration": 0.11750000000000682
                },
                {
                    "name": "E2",
                    "midi": 40,
                    "time": 336.60000000000525,
                    "velocity": 0.7952755905511811,
                    "duration": 0.11750000000000682
                },
                {
                    "name": "G#2",
                    "midi": 44,
                    "time": 336.60000000000525,
                    "velocity": 0.7952755905511811,
                    "duration": 0.11750000000000682
                },
                {
                    "name": "B2",
                    "midi": 47,
                    "time": 336.60000000000525,
                    "velocity": 0.7952755905511811,
                    "duration": 0.11750000000000682
                },
                {
                    "name": "E3",
                    "midi": 52,
                    "time": 336.60000000000525,
                    "velocity": 0.7952755905511811,
                    "duration": 0.11750000000000682
                },
                {
                    "name": "E2",
                    "midi": 40,
                    "time": 337.2000000000053,
                    "velocity": 0.5905511811023622,
                    "duration": 0.11750000000000682
                },
                {
                    "name": "G#2",
                    "midi": 44,
                    "time": 337.2000000000053,
                    "velocity": 0.5905511811023622,
                    "duration": 0.11750000000000682
                },
                {
                    "name": "B2",
                    "midi": 47,
                    "time": 337.2000000000053,
                    "velocity": 0.5905511811023622,
                    "duration": 0.11750000000000682
                },
                {
                    "name": "E3",
                    "midi": 52,
                    "time": 337.2000000000053,
                    "velocity": 0.5905511811023622,
                    "duration": 0.11750000000000682
                },
                {
                    "name": "E2",
                    "midi": 40,
                    "time": 337.8000000000053,
                    "velocity": 0.7952755905511811,
                    "duration": 0.11750000000000682
                },
                {
                    "name": "G#2",
                    "midi": 44,
                    "time": 337.8000000000053,
                    "velocity": 0.7952755905511811,
                    "duration": 0.11750000000000682
                },
                {
                    "name": "B2",
                    "midi": 47,
                    "time": 337.8000000000053,
                    "velocity": 0.7952755905511811,
                    "duration": 0.11750000000000682
                },
                {
                    "name": "E3",
                    "midi": 52,
                    "time": 337.8000000000053,
                    "velocity": 0.7952755905511811,
                    "duration": 0.11750000000000682
                },
                {
                    "name": "E2",
                    "midi": 40,
                    "time": 338.4000000000053,
                    "velocity": 0.7952755905511811,
                    "duration": 0.11750000000000682
                },
                {
                    "name": "G#2",
                    "midi": 44,
                    "time": 338.4000000000053,
                    "velocity": 0.7952755905511811,
                    "duration": 0.11750000000000682
                },
                {
                    "name": "B2",
                    "midi": 47,
                    "time": 338.4000000000053,
                    "velocity": 0.7952755905511811,
                    "duration": 0.11750000000000682
                },
                {
                    "name": "E3",
                    "midi": 52,
                    "time": 338.4000000000053,
                    "velocity": 0.7952755905511811,
                    "duration": 0.11750000000000682
                },
                {
                    "name": "E2",
                    "midi": 40,
                    "time": 339.00000000000534,
                    "velocity": 0.5905511811023622,
                    "duration": 0.11750000000000682
                },
                {
                    "name": "G#2",
                    "midi": 44,
                    "time": 339.00000000000534,
                    "velocity": 0.5905511811023622,
                    "duration": 0.11750000000000682
                },
                {
                    "name": "B2",
                    "midi": 47,
                    "time": 339.00000000000534,
                    "velocity": 0.5905511811023622,
                    "duration": 0.11750000000000682
                },
                {
                    "name": "E3",
                    "midi": 52,
                    "time": 339.00000000000534,
                    "velocity": 0.5905511811023622,
                    "duration": 0.11750000000000682
                },
                {
                    "name": "E2",
                    "midi": 40,
                    "time": 339.60000000000537,
                    "velocity": 0.5905511811023622,
                    "duration": 0.11750000000000682
                },
                {
                    "name": "G#2",
                    "midi": 44,
                    "time": 339.60000000000537,
                    "velocity": 0.5905511811023622,
                    "duration": 0.11750000000000682
                },
                {
                    "name": "B2",
                    "midi": 47,
                    "time": 339.60000000000537,
                    "velocity": 0.5905511811023622,
                    "duration": 0.11750000000000682
                },
                {
                    "name": "E3",
                    "midi": 52,
                    "time": 339.60000000000537,
                    "velocity": 0.5905511811023622,
                    "duration": 0.11750000000000682
                },
                {
                    "name": "E2",
                    "midi": 40,
                    "time": 340.2000000000054,
                    "velocity": 0.5905511811023622,
                    "duration": 0.11750000000000682
                },
                {
                    "name": "G#2",
                    "midi": 44,
                    "time": 340.2000000000054,
                    "velocity": 0.5905511811023622,
                    "duration": 0.11750000000000682
                },
                {
                    "name": "B2",
                    "midi": 47,
                    "time": 340.2000000000054,
                    "velocity": 0.5905511811023622,
                    "duration": 0.11750000000000682
                },
                {
                    "name": "E3",
                    "midi": 52,
                    "time": 340.2000000000054,
                    "velocity": 0.5905511811023622,
                    "duration": 0.11750000000000682
                },
                {
                    "name": "E2",
                    "midi": 40,
                    "time": 340.8000000000054,
                    "velocity": 0.5905511811023622,
                    "duration": 0.11750000000000682
                },
                {
                    "name": "G#2",
                    "midi": 44,
                    "time": 340.8000000000054,
                    "velocity": 0.5905511811023622,
                    "duration": 0.11750000000000682
                },
                {
                    "name": "B2",
                    "midi": 47,
                    "time": 340.8000000000054,
                    "velocity": 0.5905511811023622,
                    "duration": 0.11750000000000682
                },
                {
                    "name": "E3",
                    "midi": 52,
                    "time": 340.8000000000054,
                    "velocity": 0.5905511811023622,
                    "duration": 0.11750000000000682
                },
                {
                    "name": "E3",
                    "midi": 52,
                    "time": 341.40000000000543,
                    "velocity": 0.3858267716535433,
                    "duration": 0.11750000000000682
                },
                {
                    "name": "C#4",
                    "midi": 61,
                    "time": 341.40000000000543,
                    "velocity": 0.3858267716535433,
                    "duration": 0.11750000000000682
                },
                {
                    "name": "D#4",
                    "midi": 63,
                    "time": 341.40000000000543,
                    "velocity": 0.3858267716535433,
                    "duration": 0.11750000000000682
                },
                {
                    "name": "E3",
                    "midi": 52,
                    "time": 342.00000000000546,
                    "velocity": 0.3858267716535433,
                    "duration": 0.11750000000000682
                },
                {
                    "name": "C#4",
                    "midi": 61,
                    "time": 342.00000000000546,
                    "velocity": 0.3858267716535433,
                    "duration": 0.11750000000000682
                },
                {
                    "name": "D#4",
                    "midi": 63,
                    "time": 342.00000000000546,
                    "velocity": 0.3858267716535433,
                    "duration": 0.11750000000000682
                },
                {
                    "name": "E3",
                    "midi": 52,
                    "time": 342.6000000000055,
                    "velocity": 0.3858267716535433,
                    "duration": 0.11750000000000682
                },
                {
                    "name": "C#4",
                    "midi": 61,
                    "time": 342.6000000000055,
                    "velocity": 0.3858267716535433,
                    "duration": 0.11750000000000682
                },
                {
                    "name": "D#4",
                    "midi": 63,
                    "time": 342.6000000000055,
                    "velocity": 0.3858267716535433,
                    "duration": 0.11750000000000682
                },
                {
                    "name": "E3",
                    "midi": 52,
                    "time": 343.2000000000055,
                    "velocity": 0.3858267716535433,
                    "duration": 0.11750000000000682
                },
                {
                    "name": "C#4",
                    "midi": 61,
                    "time": 343.2000000000055,
                    "velocity": 0.3858267716535433,
                    "duration": 0.11750000000000682
                },
                {
                    "name": "D#4",
                    "midi": 63,
                    "time": 343.2000000000055,
                    "velocity": 0.3858267716535433,
                    "duration": 0.11750000000000682
                },
                {
                    "name": "E3",
                    "midi": 52,
                    "time": 343.8000000000055,
                    "velocity": 0.3858267716535433,
                    "duration": 0.11750000000000682
                },
                {
                    "name": "C#4",
                    "midi": 61,
                    "time": 343.8000000000055,
                    "velocity": 0.3858267716535433,
                    "duration": 0.11750000000000682
                },
                {
                    "name": "D#4",
                    "midi": 63,
                    "time": 343.8000000000055,
                    "velocity": 0.3858267716535433,
                    "duration": 0.11750000000000682
                },
                {
                    "name": "E3",
                    "midi": 52,
                    "time": 344.40000000000555,
                    "velocity": 0.3858267716535433,
                    "duration": 0.11750000000000682
                },
                {
                    "name": "C#4",
                    "midi": 61,
                    "time": 344.40000000000555,
                    "velocity": 0.3858267716535433,
                    "duration": 0.11750000000000682
                },
                {
                    "name": "D#4",
                    "midi": 63,
                    "time": 344.40000000000555,
                    "velocity": 0.3858267716535433,
                    "duration": 0.11750000000000682
                },
                {
                    "name": "E3",
                    "midi": 52,
                    "time": 345.00000000000557,
                    "velocity": 0.3858267716535433,
                    "duration": 0.11750000000000682
                },
                {
                    "name": "C#4",
                    "midi": 61,
                    "time": 345.00000000000557,
                    "velocity": 0.3858267716535433,
                    "duration": 0.11750000000000682
                },
                {
                    "name": "D#4",
                    "midi": 63,
                    "time": 345.00000000000557,
                    "velocity": 0.3858267716535433,
                    "duration": 0.11750000000000682
                },
                {
                    "name": "E3",
                    "midi": 52,
                    "time": 345.6000000000056,
                    "velocity": 0.3858267716535433,
                    "duration": 0.11750000000000682
                },
                {
                    "name": "G3",
                    "midi": 55,
                    "time": 345.6000000000056,
                    "velocity": 0.3858267716535433,
                    "duration": 0.11750000000000682
                },
                {
                    "name": "A#3",
                    "midi": 58,
                    "time": 345.6000000000056,
                    "velocity": 0.3858267716535433,
                    "duration": 0.11750000000000682
                },
                {
                    "name": "C#4",
                    "midi": 61,
                    "time": 345.6000000000056,
                    "velocity": 0.3858267716535433,
                    "duration": 0.11750000000000682
                },
                {
                    "name": "D#4",
                    "midi": 63,
                    "time": 345.6000000000056,
                    "velocity": 0.3858267716535433,
                    "duration": 0.11750000000000682
                },
                {
                    "name": "E3",
                    "midi": 52,
                    "time": 346.2000000000056,
                    "velocity": 0.3858267716535433,
                    "duration": 0.11750000000000682
                },
                {
                    "name": "G3",
                    "midi": 55,
                    "time": 346.2000000000056,
                    "velocity": 0.3858267716535433,
                    "duration": 0.11750000000000682
                },
                {
                    "name": "A#3",
                    "midi": 58,
                    "time": 346.2000000000056,
                    "velocity": 0.3858267716535433,
                    "duration": 0.11750000000000682
                },
                {
                    "name": "C#4",
                    "midi": 61,
                    "time": 346.2000000000056,
                    "velocity": 0.3858267716535433,
                    "duration": 0.11750000000000682
                },
                {
                    "name": "D#4",
                    "midi": 63,
                    "time": 346.2000000000056,
                    "velocity": 0.3858267716535433,
                    "duration": 0.11750000000000682
                },
                {
                    "name": "E3",
                    "midi": 52,
                    "time": 346.80000000000564,
                    "velocity": 0.3858267716535433,
                    "duration": 0.11750000000000682
                },
                {
                    "name": "G3",
                    "midi": 55,
                    "time": 346.80000000000564,
                    "velocity": 0.3858267716535433,
                    "duration": 0.11750000000000682
                },
                {
                    "name": "A#3",
                    "midi": 58,
                    "time": 346.80000000000564,
                    "velocity": 0.3858267716535433,
                    "duration": 0.11750000000000682
                },
                {
                    "name": "C#4",
                    "midi": 61,
                    "time": 346.80000000000564,
                    "velocity": 0.3858267716535433,
                    "duration": 0.11750000000000682
                },
                {
                    "name": "D#4",
                    "midi": 63,
                    "time": 346.80000000000564,
                    "velocity": 0.3858267716535433,
                    "duration": 0.11750000000000682
                },
                {
                    "name": "E3",
                    "midi": 52,
                    "time": 347.40000000000566,
                    "velocity": 0.3858267716535433,
                    "duration": 0.11750000000000682
                },
                {
                    "name": "G3",
                    "midi": 55,
                    "time": 347.40000000000566,
                    "velocity": 0.3858267716535433,
                    "duration": 0.11750000000000682
                },
                {
                    "name": "A#3",
                    "midi": 58,
                    "time": 347.40000000000566,
                    "velocity": 0.3858267716535433,
                    "duration": 0.11750000000000682
                },
                {
                    "name": "C#4",
                    "midi": 61,
                    "time": 347.40000000000566,
                    "velocity": 0.3858267716535433,
                    "duration": 0.11750000000000682
                },
                {
                    "name": "D#4",
                    "midi": 63,
                    "time": 347.40000000000566,
                    "velocity": 0.3858267716535433,
                    "duration": 0.11750000000000682
                },
                {
                    "name": "E3",
                    "midi": 52,
                    "time": 348.0000000000057,
                    "velocity": 0.3858267716535433,
                    "duration": 0.11750000000000682
                },
                {
                    "name": "G3",
                    "midi": 55,
                    "time": 348.0000000000057,
                    "velocity": 0.3858267716535433,
                    "duration": 0.11750000000000682
                },
                {
                    "name": "A#3",
                    "midi": 58,
                    "time": 348.0000000000057,
                    "velocity": 0.3858267716535433,
                    "duration": 0.11750000000000682
                },
                {
                    "name": "C#4",
                    "midi": 61,
                    "time": 348.0000000000057,
                    "velocity": 0.3858267716535433,
                    "duration": 0.11750000000000682
                },
                {
                    "name": "D#4",
                    "midi": 63,
                    "time": 348.0000000000057,
                    "velocity": 0.3858267716535433,
                    "duration": 0.11750000000000682
                },
                {
                    "name": "E3",
                    "midi": 52,
                    "time": 348.6000000000057,
                    "velocity": 0.3858267716535433,
                    "duration": 0.11750000000000682
                },
                {
                    "name": "G3",
                    "midi": 55,
                    "time": 348.6000000000057,
                    "velocity": 0.3858267716535433,
                    "duration": 0.11750000000000682
                },
                {
                    "name": "A#3",
                    "midi": 58,
                    "time": 348.6000000000057,
                    "velocity": 0.3858267716535433,
                    "duration": 0.11750000000000682
                },
                {
                    "name": "C#4",
                    "midi": 61,
                    "time": 348.6000000000057,
                    "velocity": 0.3858267716535433,
                    "duration": 0.11750000000000682
                },
                {
                    "name": "D#4",
                    "midi": 63,
                    "time": 348.6000000000057,
                    "velocity": 0.3858267716535433,
                    "duration": 0.11750000000000682
                },
                {
                    "name": "E3",
                    "midi": 52,
                    "time": 349.20000000000573,
                    "velocity": 0.3858267716535433,
                    "duration": 0.11750000000000682
                },
                {
                    "name": "G3",
                    "midi": 55,
                    "time": 349.20000000000573,
                    "velocity": 0.3858267716535433,
                    "duration": 0.11750000000000682
                },
                {
                    "name": "A#3",
                    "midi": 58,
                    "time": 349.20000000000573,
                    "velocity": 0.3858267716535433,
                    "duration": 0.11750000000000682
                },
                {
                    "name": "C#4",
                    "midi": 61,
                    "time": 349.20000000000573,
                    "velocity": 0.3858267716535433,
                    "duration": 0.11750000000000682
                },
                {
                    "name": "D#4",
                    "midi": 63,
                    "time": 349.20000000000573,
                    "velocity": 0.3858267716535433,
                    "duration": 0.11750000000000682
                },
                {
                    "name": "E2",
                    "midi": 40,
                    "time": 349.80000000000575,
                    "velocity": 0.7952755905511811,
                    "duration": 0.11750000000000682
                },
                {
                    "name": "G#2",
                    "midi": 44,
                    "time": 349.80000000000575,
                    "velocity": 0.7952755905511811,
                    "duration": 0.11750000000000682
                },
                {
                    "name": "B2",
                    "midi": 47,
                    "time": 349.80000000000575,
                    "velocity": 0.7952755905511811,
                    "duration": 0.11750000000000682
                },
                {
                    "name": "E3",
                    "midi": 52,
                    "time": 349.80000000000575,
                    "velocity": 0.7952755905511811,
                    "duration": 0.11750000000000682
                },
                {
                    "name": "E2",
                    "midi": 40,
                    "time": 350.4000000000058,
                    "velocity": 0.5905511811023622,
                    "duration": 0.11750000000000682
                },
                {
                    "name": "G#2",
                    "midi": 44,
                    "time": 350.4000000000058,
                    "velocity": 0.5905511811023622,
                    "duration": 0.11750000000000682
                },
                {
                    "name": "B2",
                    "midi": 47,
                    "time": 350.4000000000058,
                    "velocity": 0.5905511811023622,
                    "duration": 0.11750000000000682
                },
                {
                    "name": "E3",
                    "midi": 52,
                    "time": 350.4000000000058,
                    "velocity": 0.5905511811023622,
                    "duration": 0.11750000000000682
                },
                {
                    "name": "E2",
                    "midi": 40,
                    "time": 351.0000000000058,
                    "velocity": 0.7952755905511811,
                    "duration": 0.11750000000000682
                },
                {
                    "name": "G#2",
                    "midi": 44,
                    "time": 351.0000000000058,
                    "velocity": 0.7952755905511811,
                    "duration": 0.11750000000000682
                },
                {
                    "name": "B2",
                    "midi": 47,
                    "time": 351.0000000000058,
                    "velocity": 0.7952755905511811,
                    "duration": 0.11750000000000682
                },
                {
                    "name": "E3",
                    "midi": 52,
                    "time": 351.0000000000058,
                    "velocity": 0.7952755905511811,
                    "duration": 0.11750000000000682
                },
                {
                    "name": "E2",
                    "midi": 40,
                    "time": 351.6000000000058,
                    "velocity": 0.5905511811023622,
                    "duration": 0.11750000000000682
                },
                {
                    "name": "G#2",
                    "midi": 44,
                    "time": 351.6000000000058,
                    "velocity": 0.5905511811023622,
                    "duration": 0.11750000000000682
                },
                {
                    "name": "B2",
                    "midi": 47,
                    "time": 351.6000000000058,
                    "velocity": 0.5905511811023622,
                    "duration": 0.11750000000000682
                },
                {
                    "name": "E3",
                    "midi": 52,
                    "time": 351.6000000000058,
                    "velocity": 0.5905511811023622,
                    "duration": 0.11750000000000682
                },
                {
                    "name": "E2",
                    "midi": 40,
                    "time": 352.20000000000584,
                    "velocity": 0.7952755905511811,
                    "duration": 0.11750000000000682
                },
                {
                    "name": "G#2",
                    "midi": 44,
                    "time": 352.20000000000584,
                    "velocity": 0.7952755905511811,
                    "duration": 0.11750000000000682
                },
                {
                    "name": "B2",
                    "midi": 47,
                    "time": 352.20000000000584,
                    "velocity": 0.7952755905511811,
                    "duration": 0.11750000000000682
                },
                {
                    "name": "E3",
                    "midi": 52,
                    "time": 352.20000000000584,
                    "velocity": 0.7952755905511811,
                    "duration": 0.11750000000000682
                },
                {
                    "name": "E2",
                    "midi": 40,
                    "time": 352.80000000000587,
                    "velocity": 0.5905511811023622,
                    "duration": 0.11750000000000682
                },
                {
                    "name": "G#2",
                    "midi": 44,
                    "time": 352.80000000000587,
                    "velocity": 0.5905511811023622,
                    "duration": 0.11750000000000682
                },
                {
                    "name": "B2",
                    "midi": 47,
                    "time": 352.80000000000587,
                    "velocity": 0.5905511811023622,
                    "duration": 0.11750000000000682
                },
                {
                    "name": "E3",
                    "midi": 52,
                    "time": 352.80000000000587,
                    "velocity": 0.5905511811023622,
                    "duration": 0.11750000000000682
                },
                {
                    "name": "E2",
                    "midi": 40,
                    "time": 353.4000000000059,
                    "velocity": 0.5905511811023622,
                    "duration": 0.11750000000000682
                },
                {
                    "name": "G#2",
                    "midi": 44,
                    "time": 353.4000000000059,
                    "velocity": 0.5905511811023622,
                    "duration": 0.11750000000000682
                },
                {
                    "name": "B2",
                    "midi": 47,
                    "time": 353.4000000000059,
                    "velocity": 0.5905511811023622,
                    "duration": 0.11750000000000682
                },
                {
                    "name": "E3",
                    "midi": 52,
                    "time": 353.4000000000059,
                    "velocity": 0.5905511811023622,
                    "duration": 0.11750000000000682
                },
                {
                    "name": "E2",
                    "midi": 40,
                    "time": 354.0000000000059,
                    "velocity": 0.5905511811023622,
                    "duration": 0.11750000000000682
                },
                {
                    "name": "G#2",
                    "midi": 44,
                    "time": 354.0000000000059,
                    "velocity": 0.5905511811023622,
                    "duration": 0.11750000000000682
                },
                {
                    "name": "B2",
                    "midi": 47,
                    "time": 354.0000000000059,
                    "velocity": 0.5905511811023622,
                    "duration": 0.11750000000000682
                },
                {
                    "name": "E3",
                    "midi": 52,
                    "time": 354.0000000000059,
                    "velocity": 0.5905511811023622,
                    "duration": 0.11750000000000682
                },
                {
                    "name": "E2",
                    "midi": 40,
                    "time": 354.60000000000593,
                    "velocity": 0.5905511811023622,
                    "duration": 0.11750000000000682
                },
                {
                    "name": "G#2",
                    "midi": 44,
                    "time": 354.60000000000593,
                    "velocity": 0.5905511811023622,
                    "duration": 0.11750000000000682
                },
                {
                    "name": "B2",
                    "midi": 47,
                    "time": 354.60000000000593,
                    "velocity": 0.5905511811023622,
                    "duration": 0.11750000000000682
                },
                {
                    "name": "E3",
                    "midi": 52,
                    "time": 354.60000000000593,
                    "velocity": 0.5905511811023622,
                    "duration": 0.11750000000000682
                },
                {
                    "name": "E2",
                    "midi": 40,
                    "time": 355.20000000000596,
                    "velocity": 0.7952755905511811,
                    "duration": 0.11750000000000682
                },
                {
                    "name": "G#2",
                    "midi": 44,
                    "time": 355.20000000000596,
                    "velocity": 0.7952755905511811,
                    "duration": 0.11750000000000682
                },
                {
                    "name": "B2",
                    "midi": 47,
                    "time": 355.20000000000596,
                    "velocity": 0.7952755905511811,
                    "duration": 0.11750000000000682
                },
                {
                    "name": "E3",
                    "midi": 52,
                    "time": 355.20000000000596,
                    "velocity": 0.7952755905511811,
                    "duration": 0.11750000000000682
                },
                {
                    "name": "E2",
                    "midi": 40,
                    "time": 355.800000000006,
                    "velocity": 0.5905511811023622,
                    "duration": 0.11750000000000682
                },
                {
                    "name": "G#2",
                    "midi": 44,
                    "time": 355.800000000006,
                    "velocity": 0.5905511811023622,
                    "duration": 0.11750000000000682
                },
                {
                    "name": "B2",
                    "midi": 47,
                    "time": 355.800000000006,
                    "velocity": 0.5905511811023622,
                    "duration": 0.11750000000000682
                },
                {
                    "name": "E3",
                    "midi": 52,
                    "time": 355.800000000006,
                    "velocity": 0.5905511811023622,
                    "duration": 0.11750000000000682
                },
                {
                    "name": "E2",
                    "midi": 40,
                    "time": 356.400000000006,
                    "velocity": 0.5905511811023622,
                    "duration": 0.11750000000000682
                },
                {
                    "name": "G#2",
                    "midi": 44,
                    "time": 356.400000000006,
                    "velocity": 0.5905511811023622,
                    "duration": 0.11750000000000682
                },
                {
                    "name": "B2",
                    "midi": 47,
                    "time": 356.400000000006,
                    "velocity": 0.5905511811023622,
                    "duration": 0.11750000000000682
                },
                {
                    "name": "E3",
                    "midi": 52,
                    "time": 356.400000000006,
                    "velocity": 0.5905511811023622,
                    "duration": 0.11750000000000682
                },
                {
                    "name": "E2",
                    "midi": 40,
                    "time": 357.000000000006,
                    "velocity": 0.5905511811023622,
                    "duration": 0.11750000000000682
                },
                {
                    "name": "G#2",
                    "midi": 44,
                    "time": 357.000000000006,
                    "velocity": 0.5905511811023622,
                    "duration": 0.11750000000000682
                },
                {
                    "name": "B2",
                    "midi": 47,
                    "time": 357.000000000006,
                    "velocity": 0.5905511811023622,
                    "duration": 0.11750000000000682
                },
                {
                    "name": "E3",
                    "midi": 52,
                    "time": 357.000000000006,
                    "velocity": 0.5905511811023622,
                    "duration": 0.11750000000000682
                },
                {
                    "name": "E2",
                    "midi": 40,
                    "time": 357.60000000000605,
                    "velocity": 0.5905511811023622,
                    "duration": 0.11750000000000682
                },
                {
                    "name": "G#2",
                    "midi": 44,
                    "time": 357.60000000000605,
                    "velocity": 0.5905511811023622,
                    "duration": 0.11750000000000682
                },
                {
                    "name": "B2",
                    "midi": 47,
                    "time": 357.60000000000605,
                    "velocity": 0.5905511811023622,
                    "duration": 0.11750000000000682
                },
                {
                    "name": "E3",
                    "midi": 52,
                    "time": 357.60000000000605,
                    "velocity": 0.5905511811023622,
                    "duration": 0.11750000000000682
                },
                {
                    "name": "E2",
                    "midi": 40,
                    "time": 358.20000000000607,
                    "velocity": 0.7952755905511811,
                    "duration": 0.11750000000000682
                },
                {
                    "name": "G#2",
                    "midi": 44,
                    "time": 358.20000000000607,
                    "velocity": 0.7952755905511811,
                    "duration": 0.11750000000000682
                },
                {
                    "name": "B2",
                    "midi": 47,
                    "time": 358.20000000000607,
                    "velocity": 0.7952755905511811,
                    "duration": 0.11750000000000682
                },
                {
                    "name": "E3",
                    "midi": 52,
                    "time": 358.20000000000607,
                    "velocity": 0.7952755905511811,
                    "duration": 0.11750000000000682
                },
                {
                    "name": "E2",
                    "midi": 40,
                    "time": 358.8000000000061,
                    "velocity": 0.5905511811023622,
                    "duration": 0.11750000000000682
                },
                {
                    "name": "G#2",
                    "midi": 44,
                    "time": 358.8000000000061,
                    "velocity": 0.5905511811023622,
                    "duration": 0.11750000000000682
                },
                {
                    "name": "B2",
                    "midi": 47,
                    "time": 358.8000000000061,
                    "velocity": 0.5905511811023622,
                    "duration": 0.11750000000000682
                },
                {
                    "name": "E3",
                    "midi": 52,
                    "time": 358.8000000000061,
                    "velocity": 0.5905511811023622,
                    "duration": 0.11750000000000682
                },
                {
                    "name": "E2",
                    "midi": 40,
                    "time": 359.4000000000061,
                    "velocity": 0.5905511811023622,
                    "duration": 0.11750000000000682
                },
                {
                    "name": "G#2",
                    "midi": 44,
                    "time": 359.4000000000061,
                    "velocity": 0.5905511811023622,
                    "duration": 0.11750000000000682
                },
                {
                    "name": "B2",
                    "midi": 47,
                    "time": 359.4000000000061,
                    "velocity": 0.5905511811023622,
                    "duration": 0.11750000000000682
                },
                {
                    "name": "E3",
                    "midi": 52,
                    "time": 359.4000000000061,
                    "velocity": 0.5905511811023622,
                    "duration": 0.11750000000000682
                },
                {
                    "name": "E2",
                    "midi": 40,
                    "time": 360.00000000000614,
                    "velocity": 0.5905511811023622,
                    "duration": 0.11750000000000682
                },
                {
                    "name": "G#2",
                    "midi": 44,
                    "time": 360.00000000000614,
                    "velocity": 0.5905511811023622,
                    "duration": 0.11750000000000682
                },
                {
                    "name": "B2",
                    "midi": 47,
                    "time": 360.00000000000614,
                    "velocity": 0.5905511811023622,
                    "duration": 0.11750000000000682
                },
                {
                    "name": "E3",
                    "midi": 52,
                    "time": 360.00000000000614,
                    "velocity": 0.5905511811023622,
                    "duration": 0.11750000000000682
                },
                {
                    "name": "A#2",
                    "midi": 46,
                    "time": 360.60000000000616,
                    "velocity": 0.8976377952755905,
                    "duration": 0.11750000000000682
                },
                {
                    "name": "A#2",
                    "midi": 46,
                    "time": 361.2000000000062,
                    "velocity": 0.6929133858267716,
                    "duration": 0.11750000000000682
                },
                {
                    "name": "A#2",
                    "midi": 46,
                    "time": 361.8000000000062,
                    "velocity": 0.8976377952755905,
                    "duration": 0.11750000000000682
                },
                {
                    "name": "A#2",
                    "midi": 46,
                    "time": 362.40000000000623,
                    "velocity": 0.6929133858267716,
                    "duration": 0.11750000000000682
                },
                {
                    "name": "A#2",
                    "midi": 46,
                    "time": 363.00000000000625,
                    "velocity": 0.8976377952755905,
                    "duration": 0.11750000000000682
                },
                {
                    "name": "A#2",
                    "midi": 46,
                    "time": 363.6000000000063,
                    "velocity": 0.6929133858267716,
                    "duration": 0.11750000000000682
                },
                {
                    "name": "A#2",
                    "midi": 46,
                    "time": 364.2000000000063,
                    "velocity": 0.8976377952755905,
                    "duration": 0.11750000000000682
                },
                {
                    "name": "A#2",
                    "midi": 46,
                    "time": 364.8000000000063,
                    "velocity": 0.8976377952755905,
                    "duration": 0.11750000000000682
                },
                {
                    "name": "G#2",
                    "midi": 44,
                    "time": 365.40000000000634,
                    "velocity": 0.6929133858267716,
                    "duration": 0.11750000000000682
                },
                {
                    "name": "G2",
                    "midi": 43,
                    "time": 366.00000000000637,
                    "velocity": 0.6929133858267716,
                    "duration": 0.11750000000000682
                },
                {
                    "name": "F2",
                    "midi": 41,
                    "time": 366.6000000000064,
                    "velocity": 0.6929133858267716,
                    "duration": 0.11750000000000682
                },
                {
                    "name": "G2",
                    "midi": 43,
                    "time": 367.2000000000064,
                    "velocity": 0.6929133858267716,
                    "duration": 0.11750000000000682
                },
                {
                    "name": "E3",
                    "midi": 52,
                    "time": 367.80000000000643,
                    "velocity": 0.3858267716535433,
                    "duration": 0.11750000000000682
                },
                {
                    "name": "G3",
                    "midi": 55,
                    "time": 367.80000000000643,
                    "velocity": 0.3858267716535433,
                    "duration": 0.11750000000000682
                },
                {
                    "name": "A#3",
                    "midi": 58,
                    "time": 367.80000000000643,
                    "velocity": 0.3858267716535433,
                    "duration": 0.11750000000000682
                },
                {
                    "name": "C#4",
                    "midi": 61,
                    "time": 367.80000000000643,
                    "velocity": 0.3858267716535433,
                    "duration": 0.11750000000000682
                },
                {
                    "name": "D#4",
                    "midi": 63,
                    "time": 367.80000000000643,
                    "velocity": 0.3858267716535433,
                    "duration": 0.11750000000000682
                },
                {
                    "name": "E3",
                    "midi": 52,
                    "time": 368.40000000000646,
                    "velocity": 0.3858267716535433,
                    "duration": 0.11750000000000682
                },
                {
                    "name": "G3",
                    "midi": 55,
                    "time": 368.40000000000646,
                    "velocity": 0.3858267716535433,
                    "duration": 0.11750000000000682
                },
                {
                    "name": "A#3",
                    "midi": 58,
                    "time": 368.40000000000646,
                    "velocity": 0.3858267716535433,
                    "duration": 0.11750000000000682
                },
                {
                    "name": "C#4",
                    "midi": 61,
                    "time": 368.40000000000646,
                    "velocity": 0.3858267716535433,
                    "duration": 0.11750000000000682
                },
                {
                    "name": "D#4",
                    "midi": 63,
                    "time": 368.40000000000646,
                    "velocity": 0.3858267716535433,
                    "duration": 0.11750000000000682
                },
                {
                    "name": "E3",
                    "midi": 52,
                    "time": 369.0000000000065,
                    "velocity": 0.3858267716535433,
                    "duration": 0.11750000000000682
                },
                {
                    "name": "G3",
                    "midi": 55,
                    "time": 369.0000000000065,
                    "velocity": 0.3858267716535433,
                    "duration": 0.11750000000000682
                },
                {
                    "name": "A#3",
                    "midi": 58,
                    "time": 369.0000000000065,
                    "velocity": 0.3858267716535433,
                    "duration": 0.11750000000000682
                },
                {
                    "name": "C#4",
                    "midi": 61,
                    "time": 369.0000000000065,
                    "velocity": 0.3858267716535433,
                    "duration": 0.11750000000000682
                },
                {
                    "name": "D#4",
                    "midi": 63,
                    "time": 369.0000000000065,
                    "velocity": 0.3858267716535433,
                    "duration": 0.11750000000000682
                },
                {
                    "name": "E3",
                    "midi": 52,
                    "time": 369.6000000000065,
                    "velocity": 0.3858267716535433,
                    "duration": 0.11750000000000682
                },
                {
                    "name": "G3",
                    "midi": 55,
                    "time": 369.6000000000065,
                    "velocity": 0.3858267716535433,
                    "duration": 0.11750000000000682
                },
                {
                    "name": "A#3",
                    "midi": 58,
                    "time": 369.6000000000065,
                    "velocity": 0.3858267716535433,
                    "duration": 0.11750000000000682
                },
                {
                    "name": "C#4",
                    "midi": 61,
                    "time": 369.6000000000065,
                    "velocity": 0.3858267716535433,
                    "duration": 0.11750000000000682
                },
                {
                    "name": "D#4",
                    "midi": 63,
                    "time": 369.6000000000065,
                    "velocity": 0.3858267716535433,
                    "duration": 0.11750000000000682
                },
                {
                    "name": "F2",
                    "midi": 41,
                    "time": 370.2000000000065,
                    "velocity": 0.6929133858267716,
                    "duration": 0.11750000000000682
                },
                {
                    "name": "G2",
                    "midi": 43,
                    "time": 370.80000000000655,
                    "velocity": 0.6929133858267716,
                    "duration": 0.11750000000000682
                },
                {
                    "name": "G#2",
                    "midi": 44,
                    "time": 371.40000000000657,
                    "velocity": 0.6929133858267716,
                    "duration": 0.11750000000000682
                },
                {
                    "name": "A#2",
                    "midi": 46,
                    "time": 372.0000000000066,
                    "velocity": 0.6929133858267716,
                    "duration": 0.11750000000000682
                },
                {
                    "name": "G#2",
                    "midi": 44,
                    "time": 372.6000000000066,
                    "velocity": 0.6929133858267716,
                    "duration": 0.11750000000000682
                },
                {
                    "name": "G2",
                    "midi": 43,
                    "time": 373.20000000000664,
                    "velocity": 0.6929133858267716,
                    "duration": 0.11750000000000682
                },
                {
                    "name": "F2",
                    "midi": 41,
                    "time": 373.80000000000666,
                    "velocity": 0.6929133858267716,
                    "duration": 0.11750000000000682
                },
                {
                    "name": "F3",
                    "midi": 53,
                    "time": 373.80000000000666,
                    "velocity": 0.6929133858267716,
                    "duration": 0.11750000000000682
                },
                {
                    "name": "G2",
                    "midi": 43,
                    "time": 374.4000000000067,
                    "velocity": 0.6929133858267716,
                    "duration": 0.11750000000000682
                },
                {
                    "name": "G3",
                    "midi": 55,
                    "time": 374.4000000000067,
                    "velocity": 0.6929133858267716,
                    "duration": 0.11750000000000682
                },
                {
                    "name": "G#3",
                    "midi": 56,
                    "time": 375.0000000000067,
                    "velocity": 0.6929133858267716,
                    "duration": 0.11750000000000682
                },
                {
                    "name": "A#3",
                    "midi": 58,
                    "time": 375.60000000000673,
                    "velocity": 0.6929133858267716,
                    "duration": 0.11750000000000682
                },
                {
                    "name": "G#3",
                    "midi": 56,
                    "time": 376.20000000000675,
                    "velocity": 0.6929133858267716,
                    "duration": 0.11750000000000682
                },
                {
                    "name": "G3",
                    "midi": 55,
                    "time": 376.8000000000068,
                    "velocity": 0.6929133858267716,
                    "duration": 0.11750000000000682
                },
                {
                    "name": "F2",
                    "midi": 41,
                    "time": 377.4000000000068,
                    "velocity": 0.6929133858267716,
                    "duration": 0.11750000000000682
                },
                {
                    "name": "F3",
                    "midi": 53,
                    "time": 377.4000000000068,
                    "velocity": 0.6929133858267716,
                    "duration": 0.11750000000000682
                },
                {
                    "name": "G2",
                    "midi": 43,
                    "time": 378.0000000000068,
                    "velocity": 0.6929133858267716,
                    "duration": 0.11750000000000682
                },
                {
                    "name": "G3",
                    "midi": 55,
                    "time": 378.0000000000068,
                    "velocity": 0.6929133858267716,
                    "duration": 0.11750000000000682
                },
                {
                    "name": "G#2",
                    "midi": 44,
                    "time": 378.60000000000684,
                    "velocity": 0.6929133858267716,
                    "duration": 0.11750000000000682
                },
                {
                    "name": "A#2",
                    "midi": 46,
                    "time": 379.20000000000687,
                    "velocity": 0.6929133858267716,
                    "duration": 0.11750000000000682
                },
                {
                    "name": "G#2",
                    "midi": 44,
                    "time": 379.8000000000069,
                    "velocity": 0.6929133858267716,
                    "duration": 0.11750000000000682
                },
                {
                    "name": "G2",
                    "midi": 43,
                    "time": 380.4000000000069,
                    "velocity": 0.6929133858267716,
                    "duration": 0.11750000000000682
                },
                {
                    "name": "F2",
                    "midi": 41,
                    "time": 381.00000000000693,
                    "velocity": 0.6929133858267716,
                    "duration": 0.11750000000000682
                },
                {
                    "name": "G2",
                    "midi": 43,
                    "time": 381.60000000000696,
                    "velocity": 0.6929133858267716,
                    "duration": 0.6000000000000227
                },
                {
                    "name": "E3",
                    "midi": 52,
                    "time": 382.200000000007,
                    "velocity": 0.3858267716535433,
                    "duration": 0.11750000000000682
                },
                {
                    "name": "G3",
                    "midi": 55,
                    "time": 382.200000000007,
                    "velocity": 0.3858267716535433,
                    "duration": 0.11750000000000682
                },
                {
                    "name": "A#3",
                    "midi": 58,
                    "time": 382.200000000007,
                    "velocity": 0.3858267716535433,
                    "duration": 0.11750000000000682
                },
                {
                    "name": "C#4",
                    "midi": 61,
                    "time": 382.200000000007,
                    "velocity": 0.3858267716535433,
                    "duration": 0.11750000000000682
                },
                {
                    "name": "D#4",
                    "midi": 63,
                    "time": 382.200000000007,
                    "velocity": 0.3858267716535433,
                    "duration": 0.11750000000000682
                },
                {
                    "name": "E3",
                    "midi": 52,
                    "time": 382.800000000007,
                    "velocity": 0.3858267716535433,
                    "duration": 0.11750000000000682
                },
                {
                    "name": "G3",
                    "midi": 55,
                    "time": 382.800000000007,
                    "velocity": 0.3858267716535433,
                    "duration": 0.11750000000000682
                },
                {
                    "name": "A#3",
                    "midi": 58,
                    "time": 382.800000000007,
                    "velocity": 0.3858267716535433,
                    "duration": 0.11750000000000682
                },
                {
                    "name": "C#4",
                    "midi": 61,
                    "time": 382.800000000007,
                    "velocity": 0.3858267716535433,
                    "duration": 0.11750000000000682
                },
                {
                    "name": "D#4",
                    "midi": 63,
                    "time": 382.800000000007,
                    "velocity": 0.3858267716535433,
                    "duration": 0.11750000000000682
                },
                {
                    "name": "E3",
                    "midi": 52,
                    "time": 383.400000000007,
                    "velocity": 0.3858267716535433,
                    "duration": 0.11750000000000682
                },
                {
                    "name": "G3",
                    "midi": 55,
                    "time": 383.400000000007,
                    "velocity": 0.3858267716535433,
                    "duration": 0.11750000000000682
                },
                {
                    "name": "A#3",
                    "midi": 58,
                    "time": 383.400000000007,
                    "velocity": 0.3858267716535433,
                    "duration": 0.11750000000000682
                },
                {
                    "name": "C#4",
                    "midi": 61,
                    "time": 383.400000000007,
                    "velocity": 0.3858267716535433,
                    "duration": 0.11750000000000682
                },
                {
                    "name": "D#4",
                    "midi": 63,
                    "time": 383.400000000007,
                    "velocity": 0.3858267716535433,
                    "duration": 0.11750000000000682
                },
                {
                    "name": "C2",
                    "midi": 36,
                    "time": 384.600000000007,
                    "velocity": 0.8976377952755905,
                    "duration": 0.11750000000000682
                },
                {
                    "name": "G2",
                    "midi": 43,
                    "time": 384.600000000007,
                    "velocity": 0.8976377952755905,
                    "duration": 0.11750000000000682
                },
                {
                    "name": "D#3",
                    "midi": 51,
                    "time": 385.20000000000704,
                    "velocity": 0.8976377952755905,
                    "duration": 2.3999999999999773
                },
                {
                    "name": "D#4",
                    "midi": 63,
                    "time": 385.20000000000704,
                    "velocity": 0.8976377952755905,
                    "duration": 2.3999999999999773
                },
                {
                    "name": "F1",
                    "midi": 29,
                    "time": 388.800000000007,
                    "velocity": 0.8976377952755905,
                    "duration": 2.3999999999999773
                },
                {
                    "name": "F2",
                    "midi": 41,
                    "time": 388.800000000007,
                    "velocity": 0.8976377952755905,
                    "duration": 2.3999999999999773
                },
                {
                    "name": "C#6",
                    "midi": 85,
                    "time": 391.200000000007,
                    "velocity": 0.6929133858267716,
                    "duration": 0.11750000000000682
                },
                {
                    "name": "A#5",
                    "midi": 82,
                    "time": 391.800000000007,
                    "velocity": 0.6929133858267716,
                    "duration": 0.11750000000000682
                },
                {
                    "name": "D#5",
                    "midi": 75,
                    "time": 392.400000000007,
                    "velocity": 0.6929133858267716,
                    "duration": 0.11750000000000682
                },
                {
                    "name": "A#4",
                    "midi": 70,
                    "time": 393.00000000000705,
                    "velocity": 0.6929133858267716,
                    "duration": 0.11750000000000682
                },
                {
                    "name": "C#5",
                    "midi": 73,
                    "time": 393.60000000000707,
                    "velocity": 0.4881889763779528,
                    "duration": 0.11750000000000682
                },
                {
                    "name": "A#4",
                    "midi": 70,
                    "time": 394.2000000000071,
                    "velocity": 0.4881889763779528,
                    "duration": 0.11750000000000682
                },
                {
                    "name": "D#4",
                    "midi": 63,
                    "time": 394.8000000000071,
                    "velocity": 0.4881889763779528,
                    "duration": 0.11750000000000682
                },
                {
                    "name": "A#3",
                    "midi": 58,
                    "time": 395.40000000000714,
                    "velocity": 0.4881889763779528,
                    "duration": 0.11750000000000682
                },
                {
                    "name": "C#4",
                    "midi": 61,
                    "time": 396.00000000000716,
                    "velocity": 0.4881889763779528,
                    "duration": 0.11750000000000682
                },
                {
                    "name": "A#3",
                    "midi": 58,
                    "time": 396.6000000000072,
                    "velocity": 0.4881889763779528,
                    "duration": 0.11750000000000682
                },
                {
                    "name": "D#4",
                    "midi": 63,
                    "time": 397.2000000000072,
                    "velocity": 0.4881889763779528,
                    "duration": 0.11750000000000682
                },
                {
                    "name": "A#3",
                    "midi": 58,
                    "time": 397.80000000000723,
                    "velocity": 0.4881889763779528,
                    "duration": 0.11750000000000682
                },
                {
                    "name": "C#4",
                    "midi": 61,
                    "time": 398.40000000000725,
                    "velocity": 0.4881889763779528,
                    "duration": 0.11750000000000682
                },
                {
                    "name": "A#3",
                    "midi": 58,
                    "time": 399.0000000000073,
                    "velocity": 0.4881889763779528,
                    "duration": 0.11750000000000682
                },
                {
                    "name": "D#4",
                    "midi": 63,
                    "time": 399.6000000000073,
                    "velocity": 0.4881889763779528,
                    "duration": 0.11750000000000682
                },
                {
                    "name": "A#3",
                    "midi": 58,
                    "time": 400.2000000000073,
                    "velocity": 0.4881889763779528,
                    "duration": 0.11750000000000682
                },
                {
                    "name": "C#4",
                    "midi": 61,
                    "time": 400.80000000000734,
                    "velocity": 0.4881889763779528,
                    "duration": 0.11750000000000682
                },
                {
                    "name": "A#3",
                    "midi": 58,
                    "time": 401.40000000000737,
                    "velocity": 0.4881889763779528,
                    "duration": 0.11750000000000682
                },
                {
                    "name": "D#4",
                    "midi": 63,
                    "time": 402.0000000000074,
                    "velocity": 0.4881889763779528,
                    "duration": 0.11750000000000682
                },
                {
                    "name": "A#3",
                    "midi": 58,
                    "time": 402.6000000000074,
                    "velocity": 0.4881889763779528,
                    "duration": 0.11750000000000682
                },
                {
                    "name": "C#4",
                    "midi": 61,
                    "time": 403.20000000000744,
                    "velocity": 0.4881889763779528,
                    "duration": 0.11750000000000682
                },
                {
                    "name": "A#3",
                    "midi": 58,
                    "time": 403.80000000000746,
                    "velocity": 0.4881889763779528,
                    "duration": 0.11750000000000682
                },
                {
                    "name": "D#4",
                    "midi": 63,
                    "time": 404.4000000000075,
                    "velocity": 0.4881889763779528,
                    "duration": 0.11750000000000682
                },
                {
                    "name": "A#3",
                    "midi": 58,
                    "time": 405.0000000000075,
                    "velocity": 0.4881889763779528,
                    "duration": 0.11750000000000682
                },
                {
                    "name": "C#5",
                    "midi": 73,
                    "time": 405.6000000000075,
                    "velocity": 0.4881889763779528,
                    "duration": 0.11750000000000682
                },
                {
                    "name": "A#4",
                    "midi": 70,
                    "time": 406.20000000000755,
                    "velocity": 0.4881889763779528,
                    "duration": 0.11750000000000682
                },
                {
                    "name": "D#5",
                    "midi": 75,
                    "time": 406.80000000000757,
                    "velocity": 0.4881889763779528,
                    "duration": 0.11750000000000682
                },
                {
                    "name": "A#4",
                    "midi": 70,
                    "time": 407.4000000000076,
                    "velocity": 0.4881889763779528,
                    "duration": 0.11750000000000682
                },
                {
                    "name": "C#5",
                    "midi": 73,
                    "time": 408.0000000000076,
                    "velocity": 0.4881889763779528,
                    "duration": 0.11750000000000682
                },
                {
                    "name": "A#4",
                    "midi": 70,
                    "time": 408.60000000000764,
                    "velocity": 0.4881889763779528,
                    "duration": 0.11750000000000682
                },
                {
                    "name": "D#5",
                    "midi": 75,
                    "time": 409.20000000000766,
                    "velocity": 0.4881889763779528,
                    "duration": 0.11750000000000682
                },
                {
                    "name": "A#4",
                    "midi": 70,
                    "time": 409.8000000000077,
                    "velocity": 0.4881889763779528,
                    "duration": 0.11750000000000682
                },
                {
                    "name": "C#4",
                    "midi": 61,
                    "time": 410.4000000000077,
                    "velocity": 0.4881889763779528,
                    "duration": 0.11750000000000682
                },
                {
                    "name": "A#3",
                    "midi": 58,
                    "time": 411.00000000000773,
                    "velocity": 0.4881889763779528,
                    "duration": 0.11750000000000682
                },
                {
                    "name": "D#4",
                    "midi": 63,
                    "time": 411.60000000000775,
                    "velocity": 0.4881889763779528,
                    "duration": 0.11750000000000682
                },
                {
                    "name": "A#3",
                    "midi": 58,
                    "time": 412.2000000000078,
                    "velocity": 0.4881889763779528,
                    "duration": 0.11750000000000682
                },
                {
                    "name": "C#4",
                    "midi": 61,
                    "time": 412.8000000000078,
                    "velocity": 0.4881889763779528,
                    "duration": 0.11750000000000682
                },
                {
                    "name": "A#3",
                    "midi": 58,
                    "time": 413.4000000000078,
                    "velocity": 0.4881889763779528,
                    "duration": 0.11750000000000682
                },
                {
                    "name": "D#4",
                    "midi": 63,
                    "time": 414.00000000000784,
                    "velocity": 0.4881889763779528,
                    "duration": 0.11750000000000682
                },
                {
                    "name": "A#3",
                    "midi": 58,
                    "time": 414.60000000000787,
                    "velocity": 0.4881889763779528,
                    "duration": 0.11750000000000682
                },
                {
                    "name": "C#4",
                    "midi": 61,
                    "time": 415.2000000000079,
                    "velocity": 0.4881889763779528,
                    "duration": 0.11750000000000682
                },
                {
                    "name": "A#3",
                    "midi": 58,
                    "time": 415.8000000000079,
                    "velocity": 0.4881889763779528,
                    "duration": 0.11750000000000682
                },
                {
                    "name": "D#4",
                    "midi": 63,
                    "time": 416.40000000000794,
                    "velocity": 0.4881889763779528,
                    "duration": 0.11750000000000682
                },
                {
                    "name": "A#3",
                    "midi": 58,
                    "time": 417.00000000000796,
                    "velocity": 0.4881889763779528,
                    "duration": 0.11750000000000682
                },
                {
                    "name": "C#4",
                    "midi": 61,
                    "time": 417.600000000008,
                    "velocity": 0.4881889763779528,
                    "duration": 0.11750000000000682
                },
                {
                    "name": "A#3",
                    "midi": 58,
                    "time": 418.200000000008,
                    "velocity": 0.4881889763779528,
                    "duration": 0.11750000000000682
                },
                {
                    "name": "D#4",
                    "midi": 63,
                    "time": 418.800000000008,
                    "velocity": 0.4881889763779528,
                    "duration": 0.11750000000000682
                },
                {
                    "name": "A#3",
                    "midi": 58,
                    "time": 419.40000000000805,
                    "velocity": 0.4881889763779528,
                    "duration": 0.11750000000000682
                },
                {
                    "name": "C#4",
                    "midi": 61,
                    "time": 420.0000000000081,
                    "velocity": 0.4881889763779528,
                    "duration": 0.11750000000000682
                },
                {
                    "name": "A#3",
                    "midi": 58,
                    "time": 420.6000000000081,
                    "velocity": 0.4881889763779528,
                    "duration": 0.11750000000000682
                },
                {
                    "name": "D#4",
                    "midi": 63,
                    "time": 421.2000000000081,
                    "velocity": 0.4881889763779528,
                    "duration": 0.11750000000000682
                },
                {
                    "name": "A#3",
                    "midi": 58,
                    "time": 421.80000000000814,
                    "velocity": 0.4881889763779528,
                    "duration": 0.11750000000000682
                },
                {
                    "name": "C4",
                    "midi": 60,
                    "time": 422.40000000000816,
                    "velocity": 0.4881889763779528,
                    "duration": 0.11750000000000682
                },
                {
                    "name": "C#4",
                    "midi": 61,
                    "time": 422.40000000000816,
                    "velocity": 0.4881889763779528,
                    "duration": 0.11750000000000682
                },
                {
                    "name": "A#3",
                    "midi": 58,
                    "time": 423.0000000000082,
                    "velocity": 0.4881889763779528,
                    "duration": 0.11750000000000682
                },
                {
                    "name": "D4",
                    "midi": 62,
                    "time": 423.6000000000082,
                    "velocity": 0.4881889763779528,
                    "duration": 0.11750000000000682
                },
                {
                    "name": "D#4",
                    "midi": 63,
                    "time": 423.6000000000082,
                    "velocity": 0.4881889763779528,
                    "duration": 0.11750000000000682
                },
                {
                    "name": "A#3",
                    "midi": 58,
                    "time": 424.20000000000823,
                    "velocity": 0.4881889763779528,
                    "duration": 0.11750000000000682
                },
                {
                    "name": "C4",
                    "midi": 60,
                    "time": 424.80000000000825,
                    "velocity": 0.4881889763779528,
                    "duration": 0.11750000000000682
                },
                {
                    "name": "C#4",
                    "midi": 61,
                    "time": 424.80000000000825,
                    "velocity": 0.4881889763779528,
                    "duration": 0.11750000000000682
                },
                {
                    "name": "A#3",
                    "midi": 58,
                    "time": 425.4000000000083,
                    "velocity": 0.4881889763779528,
                    "duration": 0.11750000000000682
                },
                {
                    "name": "D4",
                    "midi": 62,
                    "time": 426.0000000000083,
                    "velocity": 0.4881889763779528,
                    "duration": 0.11750000000000682
                },
                {
                    "name": "D#4",
                    "midi": 63,
                    "time": 426.0000000000083,
                    "velocity": 0.4881889763779528,
                    "duration": 0.11750000000000682
                },
                {
                    "name": "A#3",
                    "midi": 58,
                    "time": 426.6000000000083,
                    "velocity": 0.4881889763779528,
                    "duration": 0.11750000000000682
                },
                {
                    "name": "C4",
                    "midi": 60,
                    "time": 427.20000000000834,
                    "velocity": 0.4881889763779528,
                    "duration": 0.11750000000000682
                },
                {
                    "name": "C#4",
                    "midi": 61,
                    "time": 427.20000000000834,
                    "velocity": 0.4881889763779528,
                    "duration": 0.11750000000000682
                },
                {
                    "name": "A#3",
                    "midi": 58,
                    "time": 427.80000000000837,
                    "velocity": 0.4881889763779528,
                    "duration": 0.11750000000000682
                },
                {
                    "name": "D4",
                    "midi": 62,
                    "time": 428.4000000000084,
                    "velocity": 0.4881889763779528,
                    "duration": 0.11750000000000682
                },
                {
                    "name": "D#4",
                    "midi": 63,
                    "time": 428.4000000000084,
                    "velocity": 0.4881889763779528,
                    "duration": 0.11750000000000682
                },
                {
                    "name": "A#3",
                    "midi": 58,
                    "time": 429.0000000000084,
                    "velocity": 0.4881889763779528,
                    "duration": 0.11750000000000682
                },
                {
                    "name": "C4",
                    "midi": 60,
                    "time": 429.60000000000844,
                    "velocity": 0.4881889763779528,
                    "duration": 0.11750000000000682
                },
                {
                    "name": "C#4",
                    "midi": 61,
                    "time": 429.60000000000844,
                    "velocity": 0.4881889763779528,
                    "duration": 0.11750000000000682
                },
                {
                    "name": "A#3",
                    "midi": 58,
                    "time": 430.20000000000846,
                    "velocity": 0.4881889763779528,
                    "duration": 0.11750000000000682
                },
                {
                    "name": "D4",
                    "midi": 62,
                    "time": 430.8000000000085,
                    "velocity": 0.4881889763779528,
                    "duration": 0.11750000000000682
                },
                {
                    "name": "D#4",
                    "midi": 63,
                    "time": 430.8000000000085,
                    "velocity": 0.4881889763779528,
                    "duration": 0.11750000000000682
                },
                {
                    "name": "A#3",
                    "midi": 58,
                    "time": 431.4000000000085,
                    "velocity": 0.4881889763779528,
                    "duration": 0.11750000000000682
                },
                {
                    "name": "C4",
                    "midi": 60,
                    "time": 432.0000000000085,
                    "velocity": 0.4881889763779528,
                    "duration": 0.11750000000000682
                },
                {
                    "name": "C#4",
                    "midi": 61,
                    "time": 432.0000000000085,
                    "velocity": 0.4881889763779528,
                    "duration": 0.11750000000000682
                },
                {
                    "name": "A#3",
                    "midi": 58,
                    "time": 432.60000000000855,
                    "velocity": 0.4881889763779528,
                    "duration": 0.11750000000000682
                },
                {
                    "name": "D4",
                    "midi": 62,
                    "time": 433.2000000000086,
                    "velocity": 0.4881889763779528,
                    "duration": 0.11750000000000682
                },
                {
                    "name": "D#4",
                    "midi": 63,
                    "time": 433.2000000000086,
                    "velocity": 0.4881889763779528,
                    "duration": 0.11750000000000682
                },
                {
                    "name": "A#3",
                    "midi": 58,
                    "time": 433.8000000000086,
                    "velocity": 0.4881889763779528,
                    "duration": 0.11750000000000682
                },
                {
                    "name": "C4",
                    "midi": 60,
                    "time": 434.4000000000086,
                    "velocity": 0.4881889763779528,
                    "duration": 0.11750000000000682
                },
                {
                    "name": "C#4",
                    "midi": 61,
                    "time": 434.4000000000086,
                    "velocity": 0.4881889763779528,
                    "duration": 0.11750000000000682
                },
                {
                    "name": "A#3",
                    "midi": 58,
                    "time": 435.00000000000864,
                    "velocity": 0.4881889763779528,
                    "duration": 0.11750000000000682
                },
                {
                    "name": "D4",
                    "midi": 62,
                    "time": 435.60000000000866,
                    "velocity": 0.4881889763779528,
                    "duration": 0.11750000000000682
                },
                {
                    "name": "D#4",
                    "midi": 63,
                    "time": 435.60000000000866,
                    "velocity": 0.4881889763779528,
                    "duration": 0.11750000000000682
                },
                {
                    "name": "A#3",
                    "midi": 58,
                    "time": 436.2000000000087,
                    "velocity": 0.4881889763779528,
                    "duration": 0.11750000000000682
                },
                {
                    "name": "C4",
                    "midi": 60,
                    "time": 436.8000000000087,
                    "velocity": 0.4881889763779528,
                    "duration": 0.11750000000000682
                },
                {
                    "name": "C#4",
                    "midi": 61,
                    "time": 436.8000000000087,
                    "velocity": 0.4881889763779528,
                    "duration": 0.11750000000000682
                },
                {
                    "name": "A#3",
                    "midi": 58,
                    "time": 437.40000000000873,
                    "velocity": 0.4881889763779528,
                    "duration": 0.11750000000000682
                },
                {
                    "name": "D4",
                    "midi": 62,
                    "time": 438.00000000000875,
                    "velocity": 0.4881889763779528,
                    "duration": 0.11750000000000682
                },
                {
                    "name": "D#4",
                    "midi": 63,
                    "time": 438.00000000000875,
                    "velocity": 0.4881889763779528,
                    "duration": 0.11750000000000682
                },
                {
                    "name": "A#3",
                    "midi": 58,
                    "time": 438.6000000000088,
                    "velocity": 0.4881889763779528,
                    "duration": 0.11750000000000682
                },
                {
                    "name": "C4",
                    "midi": 60,
                    "time": 439.2000000000088,
                    "velocity": 0.4881889763779528,
                    "duration": 0.11750000000000682
                },
                {
                    "name": "C#4",
                    "midi": 61,
                    "time": 439.2000000000088,
                    "velocity": 0.4881889763779528,
                    "duration": 0.11750000000000682
                },
                {
                    "name": "A#3",
                    "midi": 58,
                    "time": 439.8000000000088,
                    "velocity": 0.4881889763779528,
                    "duration": 0.11750000000000682
                },
                {
                    "name": "D4",
                    "midi": 62,
                    "time": 440.40000000000884,
                    "velocity": 0.4881889763779528,
                    "duration": 0.11750000000000682
                },
                {
                    "name": "D#4",
                    "midi": 63,
                    "time": 440.40000000000884,
                    "velocity": 0.4881889763779528,
                    "duration": 0.11750000000000682
                },
                {
                    "name": "A#3",
                    "midi": 58,
                    "time": 441.00000000000887,
                    "velocity": 0.4881889763779528,
                    "duration": 0.11750000000000682
                },
                {
                    "name": "D4",
                    "midi": 62,
                    "time": 441.6000000000089,
                    "velocity": 0.3858267716535433,
                    "duration": 0.14999999999997726
                },
                {
                    "name": "E4",
                    "midi": 64,
                    "time": 441.6000000000089,
                    "velocity": 0.3858267716535433,
                    "duration": 0.14999999999997726
                },
                {
                    "name": "F4",
                    "midi": 65,
                    "time": 441.75000000000887,
                    "velocity": 0.3858267716535433,
                    "duration": 0.14999999999997726
                },
                {
                    "name": "D4",
                    "midi": 62,
                    "time": 441.90000000000884,
                    "velocity": 0.3858267716535433,
                    "duration": 0.14999999999997726
                },
                {
                    "name": "E4",
                    "midi": 64,
                    "time": 441.90000000000884,
                    "velocity": 0.3858267716535433,
                    "duration": 0.14999999999997726
                },
                {
                    "name": "F4",
                    "midi": 65,
                    "time": 442.0500000000088,
                    "velocity": 0.3858267716535433,
                    "duration": 0.14999999999997726
                },
                {
                    "name": "D4",
                    "midi": 62,
                    "time": 442.2000000000088,
                    "velocity": 0.3858267716535433,
                    "duration": 0.14999999999997726
                },
                {
                    "name": "E4",
                    "midi": 64,
                    "time": 442.2000000000088,
                    "velocity": 0.3858267716535433,
                    "duration": 0.14999999999997726
                },
                {
                    "name": "F4",
                    "midi": 65,
                    "time": 442.3500000000088,
                    "velocity": 0.3858267716535433,
                    "duration": 0.14999999999997726
                },
                {
                    "name": "D4",
                    "midi": 62,
                    "time": 442.50000000000875,
                    "velocity": 0.3858267716535433,
                    "duration": 0.14999999999997726
                },
                {
                    "name": "E4",
                    "midi": 64,
                    "time": 442.50000000000875,
                    "velocity": 0.3858267716535433,
                    "duration": 0.14999999999997726
                },
                {
                    "name": "F4",
                    "midi": 65,
                    "time": 442.65000000000873,
                    "velocity": 0.3858267716535433,
                    "duration": 0.14999999999997726
                },
                {
                    "name": "E4",
                    "midi": 64,
                    "time": 442.8000000000087,
                    "velocity": 0.3858267716535433,
                    "duration": 0.14999999999997726
                },
                {
                    "name": "F4",
                    "midi": 65,
                    "time": 442.8000000000087,
                    "velocity": 0.3858267716535433,
                    "duration": 0.14999999999997726
                },
                {
                    "name": "G4",
                    "midi": 67,
                    "time": 442.9500000000087,
                    "velocity": 0.3858267716535433,
                    "duration": 0.14999999999997726
                },
                {
                    "name": "E4",
                    "midi": 64,
                    "time": 443.10000000000866,
                    "velocity": 0.3858267716535433,
                    "duration": 0.14999999999997726
                },
                {
                    "name": "F4",
                    "midi": 65,
                    "time": 443.10000000000866,
                    "velocity": 0.3858267716535433,
                    "duration": 0.14999999999997726
                },
                {
                    "name": "G4",
                    "midi": 67,
                    "time": 443.25000000000864,
                    "velocity": 0.3858267716535433,
                    "duration": 0.14999999999997726
                },
                {
                    "name": "E4",
                    "midi": 64,
                    "time": 443.4000000000086,
                    "velocity": 0.3858267716535433,
                    "duration": 0.14999999999997726
                },
                {
                    "name": "F4",
                    "midi": 65,
                    "time": 443.4000000000086,
                    "velocity": 0.3858267716535433,
                    "duration": 0.14999999999997726
                },
                {
                    "name": "G4",
                    "midi": 67,
                    "time": 443.5500000000086,
                    "velocity": 0.3858267716535433,
                    "duration": 0.14999999999997726
                },
                {
                    "name": "E4",
                    "midi": 64,
                    "time": 443.7000000000086,
                    "velocity": 0.3858267716535433,
                    "duration": 0.14999999999997726
                },
                {
                    "name": "F4",
                    "midi": 65,
                    "time": 443.7000000000086,
                    "velocity": 0.3858267716535433,
                    "duration": 0.14999999999997726
                },
                {
                    "name": "G4",
                    "midi": 67,
                    "time": 443.85000000000855,
                    "velocity": 0.3858267716535433,
                    "duration": 0.14999999999997726
                },
                {
                    "name": "D4",
                    "midi": 62,
                    "time": 444.0000000000085,
                    "velocity": 0.3858267716535433,
                    "duration": 0.14999999999997726
                },
                {
                    "name": "E4",
                    "midi": 64,
                    "time": 444.0000000000085,
                    "velocity": 0.3858267716535433,
                    "duration": 0.14999999999997726
                },
                {
                    "name": "F4",
                    "midi": 65,
                    "time": 444.1500000000085,
                    "velocity": 0.3858267716535433,
                    "duration": 0.14999999999997726
                },
                {
                    "name": "D4",
                    "midi": 62,
                    "time": 444.3000000000085,
                    "velocity": 0.3858267716535433,
                    "duration": 0.14999999999997726
                },
                {
                    "name": "E4",
                    "midi": 64,
                    "time": 444.3000000000085,
                    "velocity": 0.3858267716535433,
                    "duration": 0.14999999999997726
                },
                {
                    "name": "F4",
                    "midi": 65,
                    "time": 444.45000000000846,
                    "velocity": 0.3858267716535433,
                    "duration": 0.14999999999997726
                },
                {
                    "name": "D4",
                    "midi": 62,
                    "time": 444.60000000000844,
                    "velocity": 0.3858267716535433,
                    "duration": 0.14999999999997726
                },
                {
                    "name": "E4",
                    "midi": 64,
                    "time": 444.60000000000844,
                    "velocity": 0.3858267716535433,
                    "duration": 0.14999999999997726
                },
                {
                    "name": "F4",
                    "midi": 65,
                    "time": 444.7500000000084,
                    "velocity": 0.3858267716535433,
                    "duration": 0.14999999999997726
                },
                {
                    "name": "D4",
                    "midi": 62,
                    "time": 444.9000000000084,
                    "velocity": 0.3858267716535433,
                    "duration": 0.14999999999997726
                },
                {
                    "name": "E4",
                    "midi": 64,
                    "time": 444.9000000000084,
                    "velocity": 0.3858267716535433,
                    "duration": 0.14999999999997726
                },
                {
                    "name": "F4",
                    "midi": 65,
                    "time": 445.05000000000837,
                    "velocity": 0.3858267716535433,
                    "duration": 0.14999999999997726
                },
                {
                    "name": "E4",
                    "midi": 64,
                    "time": 445.20000000000834,
                    "velocity": 0.3858267716535433,
                    "duration": 0.14999999999997726
                },
                {
                    "name": "F4",
                    "midi": 65,
                    "time": 445.20000000000834,
                    "velocity": 0.3858267716535433,
                    "duration": 0.14999999999997726
                },
                {
                    "name": "G4",
                    "midi": 67,
                    "time": 445.3500000000083,
                    "velocity": 0.3858267716535433,
                    "duration": 0.14999999999997726
                },
                {
                    "name": "E4",
                    "midi": 64,
                    "time": 445.5000000000083,
                    "velocity": 0.3858267716535433,
                    "duration": 0.14999999999997726
                },
                {
                    "name": "F4",
                    "midi": 65,
                    "time": 445.5000000000083,
                    "velocity": 0.3858267716535433,
                    "duration": 0.14999999999997726
                },
                {
                    "name": "G4",
                    "midi": 67,
                    "time": 445.6500000000083,
                    "velocity": 0.3858267716535433,
                    "duration": 0.14999999999997726
                },
                {
                    "name": "E4",
                    "midi": 64,
                    "time": 445.80000000000825,
                    "velocity": 0.3858267716535433,
                    "duration": 0.14999999999997726
                },
                {
                    "name": "F4",
                    "midi": 65,
                    "time": 445.80000000000825,
                    "velocity": 0.3858267716535433,
                    "duration": 0.14999999999997726
                },
                {
                    "name": "G4",
                    "midi": 67,
                    "time": 445.95000000000823,
                    "velocity": 0.3858267716535433,
                    "duration": 0.14999999999997726
                },
                {
                    "name": "E4",
                    "midi": 64,
                    "time": 446.1000000000082,
                    "velocity": 0.3858267716535433,
                    "duration": 0.14999999999997726
                },
                {
                    "name": "F4",
                    "midi": 65,
                    "time": 446.1000000000082,
                    "velocity": 0.3858267716535433,
                    "duration": 0.14999999999997726
                },
                {
                    "name": "G4",
                    "midi": 67,
                    "time": 446.2500000000082,
                    "velocity": 0.3858267716535433,
                    "duration": 0.14999999999997726
                },
                {
                    "name": "D4",
                    "midi": 62,
                    "time": 446.40000000000816,
                    "velocity": 0.3858267716535433,
                    "duration": 0.14999999999997726
                },
                {
                    "name": "E4",
                    "midi": 64,
                    "time": 446.40000000000816,
                    "velocity": 0.3858267716535433,
                    "duration": 0.14999999999997726
                },
                {
                    "name": "F4",
                    "midi": 65,
                    "time": 446.55000000000814,
                    "velocity": 0.3858267716535433,
                    "duration": 0.14999999999997726
                },
                {
                    "name": "D4",
                    "midi": 62,
                    "time": 446.7000000000081,
                    "velocity": 0.3858267716535433,
                    "duration": 0.14999999999997726
                },
                {
                    "name": "E4",
                    "midi": 64,
                    "time": 446.7000000000081,
                    "velocity": 0.3858267716535433,
                    "duration": 0.14999999999997726
                },
                {
                    "name": "F4",
                    "midi": 65,
                    "time": 446.8500000000081,
                    "velocity": 0.3858267716535433,
                    "duration": 0.14999999999997726
                },
                {
                    "name": "D4",
                    "midi": 62,
                    "time": 447.0000000000081,
                    "velocity": 0.3858267716535433,
                    "duration": 0.14999999999997726
                },
                {
                    "name": "E4",
                    "midi": 64,
                    "time": 447.0000000000081,
                    "velocity": 0.3858267716535433,
                    "duration": 0.14999999999997726
                },
                {
                    "name": "F4",
                    "midi": 65,
                    "time": 447.15000000000805,
                    "velocity": 0.3858267716535433,
                    "duration": 0.14999999999997726
                },
                {
                    "name": "D4",
                    "midi": 62,
                    "time": 447.300000000008,
                    "velocity": 0.3858267716535433,
                    "duration": 0.14999999999997726
                },
                {
                    "name": "E4",
                    "midi": 64,
                    "time": 447.300000000008,
                    "velocity": 0.3858267716535433,
                    "duration": 0.14999999999997726
                },
                {
                    "name": "F4",
                    "midi": 65,
                    "time": 447.450000000008,
                    "velocity": 0.3858267716535433,
                    "duration": 0.14999999999997726
                },
                {
                    "name": "E4",
                    "midi": 64,
                    "time": 447.600000000008,
                    "velocity": 0.3858267716535433,
                    "duration": 0.14999999999997726
                },
                {
                    "name": "F4",
                    "midi": 65,
                    "time": 447.600000000008,
                    "velocity": 0.3858267716535433,
                    "duration": 0.14999999999997726
                },
                {
                    "name": "G4",
                    "midi": 67,
                    "time": 447.75000000000796,
                    "velocity": 0.3858267716535433,
                    "duration": 0.14999999999997726
                },
                {
                    "name": "E4",
                    "midi": 64,
                    "time": 447.90000000000794,
                    "velocity": 0.3858267716535433,
                    "duration": 0.14999999999997726
                },
                {
                    "name": "F4",
                    "midi": 65,
                    "time": 447.90000000000794,
                    "velocity": 0.3858267716535433,
                    "duration": 0.14999999999997726
                },
                {
                    "name": "G4",
                    "midi": 67,
                    "time": 448.0500000000079,
                    "velocity": 0.3858267716535433,
                    "duration": 0.14999999999997726
                },
                {
                    "name": "E4",
                    "midi": 64,
                    "time": 448.2000000000079,
                    "velocity": 0.3858267716535433,
                    "duration": 0.14999999999997726
                },
                {
                    "name": "F4",
                    "midi": 65,
                    "time": 448.2000000000079,
                    "velocity": 0.3858267716535433,
                    "duration": 0.14999999999997726
                },
                {
                    "name": "G4",
                    "midi": 67,
                    "time": 448.35000000000787,
                    "velocity": 0.3858267716535433,
                    "duration": 0.14999999999997726
                },
                {
                    "name": "E4",
                    "midi": 64,
                    "time": 448.50000000000784,
                    "velocity": 0.3858267716535433,
                    "duration": 0.14999999999997726
                },
                {
                    "name": "F4",
                    "midi": 65,
                    "time": 448.50000000000784,
                    "velocity": 0.3858267716535433,
                    "duration": 0.14999999999997726
                },
                {
                    "name": "G4",
                    "midi": 67,
                    "time": 448.6500000000078,
                    "velocity": 0.3858267716535433,
                    "duration": 0.14999999999997726
                },
                {
                    "name": "C4",
                    "midi": 60,
                    "time": 448.8000000000078,
                    "velocity": 0.4881889763779528,
                    "duration": 0.11750000000000682
                },
                {
                    "name": "C#4",
                    "midi": 61,
                    "time": 448.8000000000078,
                    "velocity": 0.4881889763779528,
                    "duration": 0.11750000000000682
                },
                {
                    "name": "A#3",
                    "midi": 58,
                    "time": 449.4000000000078,
                    "velocity": 0.4881889763779528,
                    "duration": 0.11750000000000682
                },
                {
                    "name": "D4",
                    "midi": 62,
                    "time": 450.00000000000784,
                    "velocity": 0.4881889763779528,
                    "duration": 0.11750000000000682
                },
                {
                    "name": "D#4",
                    "midi": 63,
                    "time": 450.00000000000784,
                    "velocity": 0.4881889763779528,
                    "duration": 0.11750000000000682
                },
                {
                    "name": "A#3",
                    "midi": 58,
                    "time": 450.60000000000787,
                    "velocity": 0.4881889763779528,
                    "duration": 0.11750000000000682
                },
                {
                    "name": "C4",
                    "midi": 60,
                    "time": 451.2000000000079,
                    "velocity": 0.4881889763779528,
                    "duration": 0.11750000000000682
                },
                {
                    "name": "C#4",
                    "midi": 61,
                    "time": 451.2000000000079,
                    "velocity": 0.4881889763779528,
                    "duration": 0.11750000000000682
                },
                {
                    "name": "A#3",
                    "midi": 58,
                    "time": 451.8000000000079,
                    "velocity": 0.4881889763779528,
                    "duration": 0.11750000000000682
                },
                {
                    "name": "D4",
                    "midi": 62,
                    "time": 452.40000000000794,
                    "velocity": 0.4881889763779528,
                    "duration": 0.11750000000000682
                },
                {
                    "name": "D#4",
                    "midi": 63,
                    "time": 452.40000000000794,
                    "velocity": 0.4881889763779528,
                    "duration": 0.11750000000000682
                },
                {
                    "name": "A#3",
                    "midi": 58,
                    "time": 453.00000000000796,
                    "velocity": 0.4881889763779528,
                    "duration": 0.11750000000000682
                },
                {
                    "name": "C4",
                    "midi": 60,
                    "time": 453.600000000008,
                    "velocity": 0.4881889763779528,
                    "duration": 0.11750000000000682
                },
                {
                    "name": "C#4",
                    "midi": 61,
                    "time": 453.600000000008,
                    "velocity": 0.4881889763779528,
                    "duration": 0.11750000000000682
                },
                {
                    "name": "A#3",
                    "midi": 58,
                    "time": 454.200000000008,
                    "velocity": 0.4881889763779528,
                    "duration": 0.11750000000000682
                },
                {
                    "name": "D4",
                    "midi": 62,
                    "time": 454.800000000008,
                    "velocity": 0.4881889763779528,
                    "duration": 0.11750000000000682
                },
                {
                    "name": "D#4",
                    "midi": 63,
                    "time": 454.800000000008,
                    "velocity": 0.4881889763779528,
                    "duration": 0.11750000000000682
                },
                {
                    "name": "A#3",
                    "midi": 58,
                    "time": 455.40000000000805,
                    "velocity": 0.4881889763779528,
                    "duration": 0.11750000000000682
                },
                {
                    "name": "D4",
                    "midi": 62,
                    "time": 456.0000000000081,
                    "velocity": 0.3858267716535433,
                    "duration": 0.14999999999997726
                },
                {
                    "name": "E4",
                    "midi": 64,
                    "time": 456.0000000000081,
                    "velocity": 0.3858267716535433,
                    "duration": 0.14999999999997726
                },
                {
                    "name": "F4",
                    "midi": 65,
                    "time": 456.15000000000805,
                    "velocity": 0.3858267716535433,
                    "duration": 0.14999999999997726
                },
                {
                    "name": "D4",
                    "midi": 62,
                    "time": 456.300000000008,
                    "velocity": 0.3858267716535433,
                    "duration": 0.14999999999997726
                },
                {
                    "name": "E4",
                    "midi": 64,
                    "time": 456.300000000008,
                    "velocity": 0.3858267716535433,
                    "duration": 0.14999999999997726
                },
                {
                    "name": "F4",
                    "midi": 65,
                    "time": 456.450000000008,
                    "velocity": 0.3858267716535433,
                    "duration": 0.14999999999997726
                },
                {
                    "name": "D4",
                    "midi": 62,
                    "time": 456.600000000008,
                    "velocity": 0.3858267716535433,
                    "duration": 0.14999999999997726
                },
                {
                    "name": "E4",
                    "midi": 64,
                    "time": 456.600000000008,
                    "velocity": 0.3858267716535433,
                    "duration": 0.14999999999997726
                },
                {
                    "name": "F4",
                    "midi": 65,
                    "time": 456.75000000000796,
                    "velocity": 0.3858267716535433,
                    "duration": 0.14999999999997726
                },
                {
                    "name": "D4",
                    "midi": 62,
                    "time": 456.90000000000794,
                    "velocity": 0.3858267716535433,
                    "duration": 0.14999999999997726
                },
                {
                    "name": "E4",
                    "midi": 64,
                    "time": 456.90000000000794,
                    "velocity": 0.3858267716535433,
                    "duration": 0.14999999999997726
                },
                {
                    "name": "F4",
                    "midi": 65,
                    "time": 457.0500000000079,
                    "velocity": 0.3858267716535433,
                    "duration": 0.14999999999997726
                },
                {
                    "name": "E4",
                    "midi": 64,
                    "time": 457.2000000000079,
                    "velocity": 0.3858267716535433,
                    "duration": 0.14999999999997726
                },
                {
                    "name": "F4",
                    "midi": 65,
                    "time": 457.2000000000079,
                    "velocity": 0.3858267716535433,
                    "duration": 0.14999999999997726
                },
                {
                    "name": "G4",
                    "midi": 67,
                    "time": 457.35000000000787,
                    "velocity": 0.3858267716535433,
                    "duration": 0.14999999999997726
                },
                {
                    "name": "E4",
                    "midi": 64,
                    "time": 457.50000000000784,
                    "velocity": 0.3858267716535433,
                    "duration": 0.14999999999997726
                },
                {
                    "name": "F4",
                    "midi": 65,
                    "time": 457.50000000000784,
                    "velocity": 0.3858267716535433,
                    "duration": 0.14999999999997726
                },
                {
                    "name": "G4",
                    "midi": 67,
                    "time": 457.6500000000078,
                    "velocity": 0.3858267716535433,
                    "duration": 0.14999999999997726
                },
                {
                    "name": "E4",
                    "midi": 64,
                    "time": 457.8000000000078,
                    "velocity": 0.3858267716535433,
                    "duration": 0.14999999999997726
                },
                {
                    "name": "F4",
                    "midi": 65,
                    "time": 457.8000000000078,
                    "velocity": 0.3858267716535433,
                    "duration": 0.14999999999997726
                },
                {
                    "name": "G4",
                    "midi": 67,
                    "time": 457.9500000000078,
                    "velocity": 0.3858267716535433,
                    "duration": 0.14999999999997726
                },
                {
                    "name": "E4",
                    "midi": 64,
                    "time": 458.10000000000775,
                    "velocity": 0.3858267716535433,
                    "duration": 0.14999999999997726
                },
                {
                    "name": "F4",
                    "midi": 65,
                    "time": 458.10000000000775,
                    "velocity": 0.3858267716535433,
                    "duration": 0.14999999999997726
                },
                {
                    "name": "G4",
                    "midi": 67,
                    "time": 458.25000000000773,
                    "velocity": 0.3858267716535433,
                    "duration": 0.14999999999997726
                },
                {
                    "name": "D4",
                    "midi": 62,
                    "time": 458.4000000000077,
                    "velocity": 0.3858267716535433,
                    "duration": 0.14999999999997726
                },
                {
                    "name": "E4",
                    "midi": 64,
                    "time": 458.4000000000077,
                    "velocity": 0.3858267716535433,
                    "duration": 0.14999999999997726
                },
                {
                    "name": "F4",
                    "midi": 65,
                    "time": 458.5500000000077,
                    "velocity": 0.3858267716535433,
                    "duration": 0.14999999999997726
                },
                {
                    "name": "D4",
                    "midi": 62,
                    "time": 458.70000000000766,
                    "velocity": 0.3858267716535433,
                    "duration": 0.14999999999997726
                },
                {
                    "name": "E4",
                    "midi": 64,
                    "time": 458.70000000000766,
                    "velocity": 0.3858267716535433,
                    "duration": 0.14999999999997726
                },
                {
                    "name": "F4",
                    "midi": 65,
                    "time": 458.85000000000764,
                    "velocity": 0.3858267716535433,
                    "duration": 0.14999999999997726
                },
                {
                    "name": "D4",
                    "midi": 62,
                    "time": 459.0000000000076,
                    "velocity": 0.3858267716535433,
                    "duration": 0.14999999999997726
                },
                {
                    "name": "E4",
                    "midi": 64,
                    "time": 459.0000000000076,
                    "velocity": 0.3858267716535433,
                    "duration": 0.14999999999997726
                },
                {
                    "name": "F4",
                    "midi": 65,
                    "time": 459.1500000000076,
                    "velocity": 0.3858267716535433,
                    "duration": 0.14999999999997726
                },
                {
                    "name": "D4",
                    "midi": 62,
                    "time": 459.30000000000757,
                    "velocity": 0.3858267716535433,
                    "duration": 0.14999999999997726
                },
                {
                    "name": "E4",
                    "midi": 64,
                    "time": 459.30000000000757,
                    "velocity": 0.3858267716535433,
                    "duration": 0.14999999999997726
                },
                {
                    "name": "F4",
                    "midi": 65,
                    "time": 459.45000000000755,
                    "velocity": 0.3858267716535433,
                    "duration": 0.14999999999997726
                },
                {
                    "name": "E4",
                    "midi": 64,
                    "time": 459.6000000000075,
                    "velocity": 0.3858267716535433,
                    "duration": 0.14999999999997726
                },
                {
                    "name": "F4",
                    "midi": 65,
                    "time": 459.6000000000075,
                    "velocity": 0.3858267716535433,
                    "duration": 0.14999999999997726
                },
                {
                    "name": "G4",
                    "midi": 67,
                    "time": 459.7500000000075,
                    "velocity": 0.3858267716535433,
                    "duration": 0.14999999999997726
                },
                {
                    "name": "E4",
                    "midi": 64,
                    "time": 459.9000000000075,
                    "velocity": 0.3858267716535433,
                    "duration": 0.14999999999997726
                },
                {
                    "name": "F4",
                    "midi": 65,
                    "time": 459.9000000000075,
                    "velocity": 0.3858267716535433,
                    "duration": 0.14999999999997726
                },
                {
                    "name": "G4",
                    "midi": 67,
                    "time": 460.05000000000746,
                    "velocity": 0.3858267716535433,
                    "duration": 0.14999999999997726
                },
                {
                    "name": "E4",
                    "midi": 64,
                    "time": 460.20000000000744,
                    "velocity": 0.3858267716535433,
                    "duration": 0.14999999999997726
                },
                {
                    "name": "F4",
                    "midi": 65,
                    "time": 460.20000000000744,
                    "velocity": 0.3858267716535433,
                    "duration": 0.14999999999997726
                },
                {
                    "name": "G4",
                    "midi": 67,
                    "time": 460.3500000000074,
                    "velocity": 0.3858267716535433,
                    "duration": 0.14999999999997726
                },
                {
                    "name": "E4",
                    "midi": 64,
                    "time": 460.5000000000074,
                    "velocity": 0.3858267716535433,
                    "duration": 0.14999999999997726
                },
                {
                    "name": "F4",
                    "midi": 65,
                    "time": 460.5000000000074,
                    "velocity": 0.3858267716535433,
                    "duration": 0.14999999999997726
                },
                {
                    "name": "G4",
                    "midi": 67,
                    "time": 460.65000000000737,
                    "velocity": 0.3858267716535433,
                    "duration": 0.14999999999997726
                },
                {
                    "name": "D4",
                    "midi": 62,
                    "time": 460.80000000000734,
                    "velocity": 0.3858267716535433,
                    "duration": 0.14999999999997726
                },
                {
                    "name": "E4",
                    "midi": 64,
                    "time": 460.80000000000734,
                    "velocity": 0.3858267716535433,
                    "duration": 0.14999999999997726
                },
                {
                    "name": "F4",
                    "midi": 65,
                    "time": 460.9500000000073,
                    "velocity": 0.3858267716535433,
                    "duration": 0.14999999999997726
                },
                {
                    "name": "D4",
                    "midi": 62,
                    "time": 461.1000000000073,
                    "velocity": 0.3858267716535433,
                    "duration": 0.14999999999997726
                },
                {
                    "name": "E4",
                    "midi": 64,
                    "time": 461.1000000000073,
                    "velocity": 0.3858267716535433,
                    "duration": 0.14999999999997726
                },
                {
                    "name": "F4",
                    "midi": 65,
                    "time": 461.2500000000073,
                    "velocity": 0.3858267716535433,
                    "duration": 0.14999999999997726
                },
                {
                    "name": "D4",
                    "midi": 62,
                    "time": 461.40000000000725,
                    "velocity": 0.3858267716535433,
                    "duration": 0.14999999999997726
                },
                {
                    "name": "E4",
                    "midi": 64,
                    "time": 461.40000000000725,
                    "velocity": 0.3858267716535433,
                    "duration": 0.14999999999997726
                },
                {
                    "name": "F4",
                    "midi": 65,
                    "time": 461.55000000000723,
                    "velocity": 0.3858267716535433,
                    "duration": 0.14999999999997726
                },
                {
                    "name": "D4",
                    "midi": 62,
                    "time": 461.7000000000072,
                    "velocity": 0.3858267716535433,
                    "duration": 0.14999999999997726
                },
                {
                    "name": "E4",
                    "midi": 64,
                    "time": 461.7000000000072,
                    "velocity": 0.3858267716535433,
                    "duration": 0.14999999999997726
                },
                {
                    "name": "F4",
                    "midi": 65,
                    "time": 461.8500000000072,
                    "velocity": 0.3858267716535433,
                    "duration": 0.14999999999997726
                },
                {
                    "name": "E4",
                    "midi": 64,
                    "time": 462.00000000000716,
                    "velocity": 0.3858267716535433,
                    "duration": 0.14999999999997726
                },
                {
                    "name": "F4",
                    "midi": 65,
                    "time": 462.00000000000716,
                    "velocity": 0.3858267716535433,
                    "duration": 0.14999999999997726
                },
                {
                    "name": "G4",
                    "midi": 67,
                    "time": 462.15000000000714,
                    "velocity": 0.3858267716535433,
                    "duration": 0.14999999999997726
                },
                {
                    "name": "E4",
                    "midi": 64,
                    "time": 462.3000000000071,
                    "velocity": 0.3858267716535433,
                    "duration": 0.14999999999997726
                },
                {
                    "name": "F4",
                    "midi": 65,
                    "time": 462.3000000000071,
                    "velocity": 0.3858267716535433,
                    "duration": 0.14999999999997726
                },
                {
                    "name": "G4",
                    "midi": 67,
                    "time": 462.4500000000071,
                    "velocity": 0.3858267716535433,
                    "duration": 0.14999999999997726
                },
                {
                    "name": "E4",
                    "midi": 64,
                    "time": 462.60000000000707,
                    "velocity": 0.3858267716535433,
                    "duration": 0.14999999999997726
                },
                {
                    "name": "F4",
                    "midi": 65,
                    "time": 462.60000000000707,
                    "velocity": 0.3858267716535433,
                    "duration": 0.14999999999997726
                },
                {
                    "name": "G4",
                    "midi": 67,
                    "time": 462.75000000000705,
                    "velocity": 0.3858267716535433,
                    "duration": 0.14999999999997726
                },
                {
                    "name": "E4",
                    "midi": 64,
                    "time": 462.900000000007,
                    "velocity": 0.3858267716535433,
                    "duration": 0.14999999999997726
                },
                {
                    "name": "F4",
                    "midi": 65,
                    "time": 462.900000000007,
                    "velocity": 0.3858267716535433,
                    "duration": 0.14999999999997726
                },
                {
                    "name": "G4",
                    "midi": 67,
                    "time": 463.050000000007,
                    "velocity": 0.3858267716535433,
                    "duration": 0.14999999999997726
                },
                {
                    "name": "D4",
                    "midi": 62,
                    "time": 463.200000000007,
                    "velocity": 0.3858267716535433,
                    "duration": 0.14999999999997726
                },
                {
                    "name": "E4",
                    "midi": 64,
                    "time": 463.200000000007,
                    "velocity": 0.3858267716535433,
                    "duration": 0.14999999999997726
                },
                {
                    "name": "F4",
                    "midi": 65,
                    "time": 463.35000000000696,
                    "velocity": 0.3858267716535433,
                    "duration": 0.14999999999997726
                },
                {
                    "name": "D4",
                    "midi": 62,
                    "time": 463.50000000000693,
                    "velocity": 0.3858267716535433,
                    "duration": 0.14999999999997726
                },
                {
                    "name": "E4",
                    "midi": 64,
                    "time": 463.50000000000693,
                    "velocity": 0.3858267716535433,
                    "duration": 0.14999999999997726
                },
                {
                    "name": "F4",
                    "midi": 65,
                    "time": 463.6500000000069,
                    "velocity": 0.3858267716535433,
                    "duration": 0.14999999999997726
                },
                {
                    "name": "D4",
                    "midi": 62,
                    "time": 463.8000000000069,
                    "velocity": 0.3858267716535433,
                    "duration": 0.14999999999997726
                },
                {
                    "name": "E4",
                    "midi": 64,
                    "time": 463.8000000000069,
                    "velocity": 0.3858267716535433,
                    "duration": 0.14999999999997726
                },
                {
                    "name": "F4",
                    "midi": 65,
                    "time": 463.95000000000687,
                    "velocity": 0.3858267716535433,
                    "duration": 0.14999999999997726
                },
                {
                    "name": "D4",
                    "midi": 62,
                    "time": 464.10000000000684,
                    "velocity": 0.3858267716535433,
                    "duration": 0.14999999999997726
                },
                {
                    "name": "E4",
                    "midi": 64,
                    "time": 464.10000000000684,
                    "velocity": 0.3858267716535433,
                    "duration": 0.14999999999997726
                },
                {
                    "name": "F4",
                    "midi": 65,
                    "time": 464.2500000000068,
                    "velocity": 0.3858267716535433,
                    "duration": 0.14999999999997726
                },
                {
                    "name": "E4",
                    "midi": 64,
                    "time": 464.4000000000068,
                    "velocity": 0.3858267716535433,
                    "duration": 0.14999999999997726
                },
                {
                    "name": "F4",
                    "midi": 65,
                    "time": 464.4000000000068,
                    "velocity": 0.3858267716535433,
                    "duration": 0.14999999999997726
                },
                {
                    "name": "G4",
                    "midi": 67,
                    "time": 464.5500000000068,
                    "velocity": 0.3858267716535433,
                    "duration": 0.14999999999997726
                },
                {
                    "name": "E4",
                    "midi": 64,
                    "time": 464.70000000000675,
                    "velocity": 0.3858267716535433,
                    "duration": 0.14999999999997726
                },
                {
                    "name": "F4",
                    "midi": 65,
                    "time": 464.70000000000675,
                    "velocity": 0.3858267716535433,
                    "duration": 0.14999999999997726
                },
                {
                    "name": "G4",
                    "midi": 67,
                    "time": 464.85000000000673,
                    "velocity": 0.3858267716535433,
                    "duration": 0.14999999999997726
                },
                {
                    "name": "E4",
                    "midi": 64,
                    "time": 465.0000000000067,
                    "velocity": 0.3858267716535433,
                    "duration": 0.14999999999997726
                },
                {
                    "name": "F4",
                    "midi": 65,
                    "time": 465.0000000000067,
                    "velocity": 0.3858267716535433,
                    "duration": 0.14999999999997726
                },
                {
                    "name": "G4",
                    "midi": 67,
                    "time": 465.1500000000067,
                    "velocity": 0.3858267716535433,
                    "duration": 0.14999999999997726
                },
                {
                    "name": "E4",
                    "midi": 64,
                    "time": 465.30000000000666,
                    "velocity": 0.3858267716535433,
                    "duration": 0.14999999999997726
                },
                {
                    "name": "F4",
                    "midi": 65,
                    "time": 465.30000000000666,
                    "velocity": 0.3858267716535433,
                    "duration": 0.14999999999997726
                },
                {
                    "name": "G4",
                    "midi": 67,
                    "time": 465.45000000000664,
                    "velocity": 0.3858267716535433,
                    "duration": 0.14999999999997726
                },
                {
                    "name": "D4",
                    "midi": 62,
                    "time": 465.6000000000066,
                    "velocity": 0.3858267716535433,
                    "duration": 0.14999999999997726
                },
                {
                    "name": "E4",
                    "midi": 64,
                    "time": 465.6000000000066,
                    "velocity": 0.3858267716535433,
                    "duration": 0.14999999999997726
                },
                {
                    "name": "F4",
                    "midi": 65,
                    "time": 465.7500000000066,
                    "velocity": 0.3858267716535433,
                    "duration": 0.14999999999997726
                },
                {
                    "name": "D4",
                    "midi": 62,
                    "time": 465.90000000000657,
                    "velocity": 0.3858267716535433,
                    "duration": 0.14999999999997726
                },
                {
                    "name": "E4",
                    "midi": 64,
                    "time": 465.90000000000657,
                    "velocity": 0.3858267716535433,
                    "duration": 0.14999999999997726
                },
                {
                    "name": "F4",
                    "midi": 65,
                    "time": 466.05000000000655,
                    "velocity": 0.3858267716535433,
                    "duration": 0.14999999999997726
                },
                {
                    "name": "D4",
                    "midi": 62,
                    "time": 466.2000000000065,
                    "velocity": 0.3858267716535433,
                    "duration": 0.14999999999997726
                },
                {
                    "name": "E4",
                    "midi": 64,
                    "time": 466.2000000000065,
                    "velocity": 0.3858267716535433,
                    "duration": 0.14999999999997726
                },
                {
                    "name": "F4",
                    "midi": 65,
                    "time": 466.3500000000065,
                    "velocity": 0.3858267716535433,
                    "duration": 0.14999999999997726
                },
                {
                    "name": "D4",
                    "midi": 62,
                    "time": 466.5000000000065,
                    "velocity": 0.3858267716535433,
                    "duration": 0.14999999999997726
                },
                {
                    "name": "E4",
                    "midi": 64,
                    "time": 466.5000000000065,
                    "velocity": 0.3858267716535433,
                    "duration": 0.14999999999997726
                },
                {
                    "name": "F4",
                    "midi": 65,
                    "time": 466.65000000000646,
                    "velocity": 0.3858267716535433,
                    "duration": 0.14999999999997726
                },
                {
                    "name": "E4",
                    "midi": 64,
                    "time": 466.80000000000643,
                    "velocity": 0.3858267716535433,
                    "duration": 0.14999999999997726
                },
                {
                    "name": "F4",
                    "midi": 65,
                    "time": 466.80000000000643,
                    "velocity": 0.3858267716535433,
                    "duration": 0.14999999999997726
                },
                {
                    "name": "G4",
                    "midi": 67,
                    "time": 466.9500000000064,
                    "velocity": 0.3858267716535433,
                    "duration": 0.14999999999997726
                },
                {
                    "name": "E4",
                    "midi": 64,
                    "time": 467.1000000000064,
                    "velocity": 0.3858267716535433,
                    "duration": 0.14999999999997726
                },
                {
                    "name": "F4",
                    "midi": 65,
                    "time": 467.1000000000064,
                    "velocity": 0.3858267716535433,
                    "duration": 0.14999999999997726
                },
                {
                    "name": "G4",
                    "midi": 67,
                    "time": 467.25000000000637,
                    "velocity": 0.3858267716535433,
                    "duration": 0.14999999999997726
                },
                {
                    "name": "E4",
                    "midi": 64,
                    "time": 467.40000000000634,
                    "velocity": 0.3858267716535433,
                    "duration": 0.14999999999997726
                },
                {
                    "name": "F4",
                    "midi": 65,
                    "time": 467.40000000000634,
                    "velocity": 0.3858267716535433,
                    "duration": 0.14999999999997726
                },
                {
                    "name": "G4",
                    "midi": 67,
                    "time": 467.5500000000063,
                    "velocity": 0.3858267716535433,
                    "duration": 0.14999999999997726
                },
                {
                    "name": "E4",
                    "midi": 64,
                    "time": 467.7000000000063,
                    "velocity": 0.3858267716535433,
                    "duration": 0.14999999999997726
                },
                {
                    "name": "F4",
                    "midi": 65,
                    "time": 467.7000000000063,
                    "velocity": 0.3858267716535433,
                    "duration": 0.14999999999997726
                },
                {
                    "name": "G4",
                    "midi": 67,
                    "time": 467.8500000000063,
                    "velocity": 0.3858267716535433,
                    "duration": 0.14999999999997726
                },
                {
                    "name": "D4",
                    "midi": 62,
                    "time": 468.00000000000625,
                    "velocity": 0.3858267716535433,
                    "duration": 0.14999999999997726
                },
                {
                    "name": "E4",
                    "midi": 64,
                    "time": 468.00000000000625,
                    "velocity": 0.3858267716535433,
                    "duration": 0.14999999999997726
                },
                {
                    "name": "F4",
                    "midi": 65,
                    "time": 468.15000000000623,
                    "velocity": 0.3858267716535433,
                    "duration": 0.14999999999997726
                },
                {
                    "name": "D4",
                    "midi": 62,
                    "time": 468.3000000000062,
                    "velocity": 0.3858267716535433,
                    "duration": 0.14999999999997726
                },
                {
                    "name": "E4",
                    "midi": 64,
                    "time": 468.3000000000062,
                    "velocity": 0.3858267716535433,
                    "duration": 0.14999999999997726
                },
                {
                    "name": "F4",
                    "midi": 65,
                    "time": 468.4500000000062,
                    "velocity": 0.3858267716535433,
                    "duration": 0.14999999999997726
                },
                {
                    "name": "D4",
                    "midi": 62,
                    "time": 468.60000000000616,
                    "velocity": 0.3858267716535433,
                    "duration": 0.14999999999997726
                },
                {
                    "name": "E4",
                    "midi": 64,
                    "time": 468.60000000000616,
                    "velocity": 0.3858267716535433,
                    "duration": 0.14999999999997726
                },
                {
                    "name": "F4",
                    "midi": 65,
                    "time": 468.75000000000614,
                    "velocity": 0.3858267716535433,
                    "duration": 0.14999999999997726
                },
                {
                    "name": "D4",
                    "midi": 62,
                    "time": 468.9000000000061,
                    "velocity": 0.3858267716535433,
                    "duration": 0.14999999999997726
                },
                {
                    "name": "E4",
                    "midi": 64,
                    "time": 468.9000000000061,
                    "velocity": 0.3858267716535433,
                    "duration": 0.14999999999997726
                },
                {
                    "name": "F4",
                    "midi": 65,
                    "time": 469.0500000000061,
                    "velocity": 0.3858267716535433,
                    "duration": 0.14999999999997726
                },
                {
                    "name": "E4",
                    "midi": 64,
                    "time": 469.20000000000607,
                    "velocity": 0.3858267716535433,
                    "duration": 0.14999999999997726
                },
                {
                    "name": "F4",
                    "midi": 65,
                    "time": 469.20000000000607,
                    "velocity": 0.3858267716535433,
                    "duration": 0.14999999999997726
                },
                {
                    "name": "G4",
                    "midi": 67,
                    "time": 469.35000000000605,
                    "velocity": 0.3858267716535433,
                    "duration": 0.14999999999997726
                },
                {
                    "name": "E4",
                    "midi": 64,
                    "time": 469.500000000006,
                    "velocity": 0.3858267716535433,
                    "duration": 0.14999999999997726
                },
                {
                    "name": "F4",
                    "midi": 65,
                    "time": 469.500000000006,
                    "velocity": 0.3858267716535433,
                    "duration": 0.14999999999997726
                },
                {
                    "name": "G4",
                    "midi": 67,
                    "time": 469.650000000006,
                    "velocity": 0.3858267716535433,
                    "duration": 0.14999999999997726
                },
                {
                    "name": "E4",
                    "midi": 64,
                    "time": 469.800000000006,
                    "velocity": 0.3858267716535433,
                    "duration": 0.14999999999997726
                },
                {
                    "name": "F4",
                    "midi": 65,
                    "time": 469.800000000006,
                    "velocity": 0.3858267716535433,
                    "duration": 0.14999999999997726
                },
                {
                    "name": "G4",
                    "midi": 67,
                    "time": 469.95000000000596,
                    "velocity": 0.3858267716535433,
                    "duration": 0.14999999999997726
                },
                {
                    "name": "E4",
                    "midi": 64,
                    "time": 470.10000000000593,
                    "velocity": 0.3858267716535433,
                    "duration": 0.14999999999997726
                },
                {
                    "name": "F4",
                    "midi": 65,
                    "time": 470.10000000000593,
                    "velocity": 0.3858267716535433,
                    "duration": 0.14999999999997726
                },
                {
                    "name": "G4",
                    "midi": 67,
                    "time": 470.2500000000059,
                    "velocity": 0.3858267716535433,
                    "duration": 0.14999999999997726
                },
                {
                    "name": "C4",
                    "midi": 60,
                    "time": 470.4000000000059,
                    "velocity": 0.4881889763779528,
                    "duration": 0.11750000000000682
                },
                {
                    "name": "C#4",
                    "midi": 61,
                    "time": 470.4000000000059,
                    "velocity": 0.4881889763779528,
                    "duration": 0.11750000000000682
                },
                {
                    "name": "A#3",
                    "midi": 58,
                    "time": 471.0000000000059,
                    "velocity": 0.4881889763779528,
                    "duration": 0.11750000000000682
                },
                {
                    "name": "D4",
                    "midi": 62,
                    "time": 471.60000000000593,
                    "velocity": 0.4881889763779528,
                    "duration": 0.11750000000000682
                },
                {
                    "name": "D#4",
                    "midi": 63,
                    "time": 471.60000000000593,
                    "velocity": 0.4881889763779528,
                    "duration": 0.11750000000000682
                },
                {
                    "name": "A#3",
                    "midi": 58,
                    "time": 472.20000000000596,
                    "velocity": 0.4881889763779528,
                    "duration": 0.11750000000000682
                },
                {
                    "name": "C4",
                    "midi": 60,
                    "time": 472.800000000006,
                    "velocity": 0.4881889763779528,
                    "duration": 0.11750000000000682
                },
                {
                    "name": "C#4",
                    "midi": 61,
                    "time": 472.800000000006,
                    "velocity": 0.4881889763779528,
                    "duration": 0.11750000000000682
                },
                {
                    "name": "A#3",
                    "midi": 58,
                    "time": 473.400000000006,
                    "velocity": 0.4881889763779528,
                    "duration": 0.11750000000000682
                },
                {
                    "name": "D4",
                    "midi": 62,
                    "time": 474.000000000006,
                    "velocity": 0.4881889763779528,
                    "duration": 0.11750000000000682
                },
                {
                    "name": "D#4",
                    "midi": 63,
                    "time": 474.000000000006,
                    "velocity": 0.4881889763779528,
                    "duration": 0.11750000000000682
                },
                {
                    "name": "A#3",
                    "midi": 58,
                    "time": 474.60000000000605,
                    "velocity": 0.4881889763779528,
                    "duration": 0.11750000000000682
                },
                {
                    "name": "D4",
                    "midi": 62,
                    "time": 475.20000000000607,
                    "velocity": 0.3858267716535433,
                    "duration": 0.14999999999997726
                },
                {
                    "name": "E4",
                    "midi": 64,
                    "time": 475.20000000000607,
                    "velocity": 0.3858267716535433,
                    "duration": 0.14999999999997726
                },
                {
                    "name": "F4",
                    "midi": 65,
                    "time": 475.35000000000605,
                    "velocity": 0.3858267716535433,
                    "duration": 0.14999999999997726
                },
                {
                    "name": "D4",
                    "midi": 62,
                    "time": 475.500000000006,
                    "velocity": 0.3858267716535433,
                    "duration": 0.14999999999997726
                },
                {
                    "name": "E4",
                    "midi": 64,
                    "time": 475.500000000006,
                    "velocity": 0.3858267716535433,
                    "duration": 0.14999999999997726
                },
                {
                    "name": "F4",
                    "midi": 65,
                    "time": 475.650000000006,
                    "velocity": 0.3858267716535433,
                    "duration": 0.14999999999997726
                },
                {
                    "name": "D4",
                    "midi": 62,
                    "time": 475.800000000006,
                    "velocity": 0.3858267716535433,
                    "duration": 0.14999999999997726
                },
                {
                    "name": "E4",
                    "midi": 64,
                    "time": 475.800000000006,
                    "velocity": 0.3858267716535433,
                    "duration": 0.14999999999997726
                },
                {
                    "name": "F4",
                    "midi": 65,
                    "time": 475.95000000000596,
                    "velocity": 0.3858267716535433,
                    "duration": 0.14999999999997726
                },
                {
                    "name": "D4",
                    "midi": 62,
                    "time": 476.10000000000593,
                    "velocity": 0.3858267716535433,
                    "duration": 0.14999999999997726
                },
                {
                    "name": "E4",
                    "midi": 64,
                    "time": 476.10000000000593,
                    "velocity": 0.3858267716535433,
                    "duration": 0.14999999999997726
                },
                {
                    "name": "F4",
                    "midi": 65,
                    "time": 476.2500000000059,
                    "velocity": 0.3858267716535433,
                    "duration": 0.14999999999997726
                },
                {
                    "name": "E4",
                    "midi": 64,
                    "time": 476.4000000000059,
                    "velocity": 0.3858267716535433,
                    "duration": 0.14999999999997726
                },
                {
                    "name": "F4",
                    "midi": 65,
                    "time": 476.4000000000059,
                    "velocity": 0.3858267716535433,
                    "duration": 0.14999999999997726
                },
                {
                    "name": "G4",
                    "midi": 67,
                    "time": 476.55000000000587,
                    "velocity": 0.3858267716535433,
                    "duration": 0.14999999999997726
                },
                {
                    "name": "E4",
                    "midi": 64,
                    "time": 476.70000000000584,
                    "velocity": 0.3858267716535433,
                    "duration": 0.14999999999997726
                },
                {
                    "name": "F4",
                    "midi": 65,
                    "time": 476.70000000000584,
                    "velocity": 0.3858267716535433,
                    "duration": 0.14999999999997726
                },
                {
                    "name": "G4",
                    "midi": 67,
                    "time": 476.8500000000058,
                    "velocity": 0.3858267716535433,
                    "duration": 0.14999999999997726
                },
                {
                    "name": "E4",
                    "midi": 64,
                    "time": 477.0000000000058,
                    "velocity": 0.3858267716535433,
                    "duration": 0.14999999999997726
                },
                {
                    "name": "F4",
                    "midi": 65,
                    "time": 477.0000000000058,
                    "velocity": 0.3858267716535433,
                    "duration": 0.14999999999997726
                },
                {
                    "name": "G4",
                    "midi": 67,
                    "time": 477.1500000000058,
                    "velocity": 0.3858267716535433,
                    "duration": 0.14999999999997726
                },
                {
                    "name": "E4",
                    "midi": 64,
                    "time": 477.30000000000575,
                    "velocity": 0.3858267716535433,
                    "duration": 0.14999999999997726
                },
                {
                    "name": "F4",
                    "midi": 65,
                    "time": 477.30000000000575,
                    "velocity": 0.3858267716535433,
                    "duration": 0.14999999999997726
                },
                {
                    "name": "G4",
                    "midi": 67,
                    "time": 477.45000000000573,
                    "velocity": 0.3858267716535433,
                    "duration": 0.14999999999997726
                },
                {
                    "name": "D4",
                    "midi": 62,
                    "time": 477.6000000000057,
                    "velocity": 0.3858267716535433,
                    "duration": 0.14999999999997726
                },
                {
                    "name": "E4",
                    "midi": 64,
                    "time": 477.6000000000057,
                    "velocity": 0.3858267716535433,
                    "duration": 0.14999999999997726
                },
                {
                    "name": "F4",
                    "midi": 65,
                    "time": 477.7500000000057,
                    "velocity": 0.3858267716535433,
                    "duration": 0.14999999999997726
                },
                {
                    "name": "D4",
                    "midi": 62,
                    "time": 477.90000000000566,
                    "velocity": 0.3858267716535433,
                    "duration": 0.14999999999997726
                },
                {
                    "name": "E4",
                    "midi": 64,
                    "time": 477.90000000000566,
                    "velocity": 0.3858267716535433,
                    "duration": 0.14999999999997726
                },
                {
                    "name": "F4",
                    "midi": 65,
                    "time": 478.05000000000564,
                    "velocity": 0.3858267716535433,
                    "duration": 0.14999999999997726
                },
                {
                    "name": "D4",
                    "midi": 62,
                    "time": 478.2000000000056,
                    "velocity": 0.3858267716535433,
                    "duration": 0.14999999999997726
                },
                {
                    "name": "E4",
                    "midi": 64,
                    "time": 478.2000000000056,
                    "velocity": 0.3858267716535433,
                    "duration": 0.14999999999997726
                },
                {
                    "name": "F4",
                    "midi": 65,
                    "time": 478.3500000000056,
                    "velocity": 0.3858267716535433,
                    "duration": 0.14999999999997726
                },
                {
                    "name": "D4",
                    "midi": 62,
                    "time": 478.50000000000557,
                    "velocity": 0.3858267716535433,
                    "duration": 0.14999999999997726
                },
                {
                    "name": "E4",
                    "midi": 64,
                    "time": 478.50000000000557,
                    "velocity": 0.3858267716535433,
                    "duration": 0.14999999999997726
                },
                {
                    "name": "F4",
                    "midi": 65,
                    "time": 478.65000000000555,
                    "velocity": 0.3858267716535433,
                    "duration": 0.14999999999997726
                },
                {
                    "name": "E4",
                    "midi": 64,
                    "time": 478.8000000000055,
                    "velocity": 0.3858267716535433,
                    "duration": 0.14999999999997726
                },
                {
                    "name": "F4",
                    "midi": 65,
                    "time": 478.8000000000055,
                    "velocity": 0.3858267716535433,
                    "duration": 0.14999999999997726
                },
                {
                    "name": "G4",
                    "midi": 67,
                    "time": 478.9500000000055,
                    "velocity": 0.3858267716535433,
                    "duration": 0.14999999999997726
                },
                {
                    "name": "E4",
                    "midi": 64,
                    "time": 479.1000000000055,
                    "velocity": 0.3858267716535433,
                    "duration": 0.14999999999997726
                },
                {
                    "name": "F4",
                    "midi": 65,
                    "time": 479.1000000000055,
                    "velocity": 0.3858267716535433,
                    "duration": 0.14999999999997726
                },
                {
                    "name": "G4",
                    "midi": 67,
                    "time": 479.25000000000546,
                    "velocity": 0.3858267716535433,
                    "duration": 0.14999999999997726
                },
                {
                    "name": "E4",
                    "midi": 64,
                    "time": 479.40000000000543,
                    "velocity": 0.3858267716535433,
                    "duration": 0.14999999999997726
                },
                {
                    "name": "F4",
                    "midi": 65,
                    "time": 479.40000000000543,
                    "velocity": 0.3858267716535433,
                    "duration": 0.14999999999997726
                },
                {
                    "name": "G4",
                    "midi": 67,
                    "time": 479.5500000000054,
                    "velocity": 0.3858267716535433,
                    "duration": 0.14999999999997726
                },
                {
                    "name": "E4",
                    "midi": 64,
                    "time": 479.7000000000054,
                    "velocity": 0.3858267716535433,
                    "duration": 0.14999999999997726
                },
                {
                    "name": "F4",
                    "midi": 65,
                    "time": 479.7000000000054,
                    "velocity": 0.3858267716535433,
                    "duration": 0.14999999999997726
                },
                {
                    "name": "G4",
                    "midi": 67,
                    "time": 479.85000000000537,
                    "velocity": 0.3858267716535433,
                    "duration": 0.14999999999997726
                },
                {
                    "name": "D4",
                    "midi": 62,
                    "time": 480.00000000000534,
                    "velocity": 0.3858267716535433,
                    "duration": 0.14999999999997726
                },
                {
                    "name": "E4",
                    "midi": 64,
                    "time": 480.00000000000534,
                    "velocity": 0.3858267716535433,
                    "duration": 0.14999999999997726
                },
                {
                    "name": "F4",
                    "midi": 65,
                    "time": 480.1500000000053,
                    "velocity": 0.3858267716535433,
                    "duration": 0.14999999999997726
                },
                {
                    "name": "D4",
                    "midi": 62,
                    "time": 480.3000000000053,
                    "velocity": 0.3858267716535433,
                    "duration": 0.14999999999997726
                },
                {
                    "name": "E4",
                    "midi": 64,
                    "time": 480.3000000000053,
                    "velocity": 0.3858267716535433,
                    "duration": 0.14999999999997726
                },
                {
                    "name": "F4",
                    "midi": 65,
                    "time": 480.4500000000053,
                    "velocity": 0.3858267716535433,
                    "duration": 0.14999999999997726
                },
                {
                    "name": "D4",
                    "midi": 62,
                    "time": 480.60000000000525,
                    "velocity": 0.3858267716535433,
                    "duration": 0.14999999999997726
                },
                {
                    "name": "E4",
                    "midi": 64,
                    "time": 480.60000000000525,
                    "velocity": 0.3858267716535433,
                    "duration": 0.14999999999997726
                },
                {
                    "name": "F4",
                    "midi": 65,
                    "time": 480.75000000000523,
                    "velocity": 0.3858267716535433,
                    "duration": 0.14999999999997726
                },
                {
                    "name": "D4",
                    "midi": 62,
                    "time": 480.9000000000052,
                    "velocity": 0.3858267716535433,
                    "duration": 0.14999999999997726
                },
                {
                    "name": "E4",
                    "midi": 64,
                    "time": 480.9000000000052,
                    "velocity": 0.3858267716535433,
                    "duration": 0.14999999999997726
                },
                {
                    "name": "F4",
                    "midi": 65,
                    "time": 481.0500000000052,
                    "velocity": 0.3858267716535433,
                    "duration": 0.14999999999997726
                },
                {
                    "name": "E4",
                    "midi": 64,
                    "time": 481.20000000000516,
                    "velocity": 0.3858267716535433,
                    "duration": 0.14999999999997726
                },
                {
                    "name": "F4",
                    "midi": 65,
                    "time": 481.20000000000516,
                    "velocity": 0.3858267716535433,
                    "duration": 0.14999999999997726
                },
                {
                    "name": "G4",
                    "midi": 67,
                    "time": 481.35000000000514,
                    "velocity": 0.3858267716535433,
                    "duration": 0.14999999999997726
                },
                {
                    "name": "E4",
                    "midi": 64,
                    "time": 481.5000000000051,
                    "velocity": 0.3858267716535433,
                    "duration": 0.14999999999997726
                },
                {
                    "name": "F4",
                    "midi": 65,
                    "time": 481.5000000000051,
                    "velocity": 0.3858267716535433,
                    "duration": 0.14999999999997726
                },
                {
                    "name": "G4",
                    "midi": 67,
                    "time": 481.6500000000051,
                    "velocity": 0.3858267716535433,
                    "duration": 0.14999999999997726
                },
                {
                    "name": "E4",
                    "midi": 64,
                    "time": 481.80000000000507,
                    "velocity": 0.3858267716535433,
                    "duration": 0.14999999999997726
                },
                {
                    "name": "F4",
                    "midi": 65,
                    "time": 481.80000000000507,
                    "velocity": 0.3858267716535433,
                    "duration": 0.14999999999997726
                },
                {
                    "name": "G4",
                    "midi": 67,
                    "time": 481.95000000000505,
                    "velocity": 0.3858267716535433,
                    "duration": 0.14999999999997726
                },
                {
                    "name": "E4",
                    "midi": 64,
                    "time": 482.100000000005,
                    "velocity": 0.3858267716535433,
                    "duration": 0.14999999999997726
                },
                {
                    "name": "F4",
                    "midi": 65,
                    "time": 482.100000000005,
                    "velocity": 0.3858267716535433,
                    "duration": 0.14999999999997726
                },
                {
                    "name": "G4",
                    "midi": 67,
                    "time": 482.250000000005,
                    "velocity": 0.3858267716535433,
                    "duration": 0.14999999999997726
                },
                {
                    "name": "D4",
                    "midi": 62,
                    "time": 482.400000000005,
                    "velocity": 0.3858267716535433,
                    "duration": 0.14999999999997726
                },
                {
                    "name": "E4",
                    "midi": 64,
                    "time": 482.400000000005,
                    "velocity": 0.3858267716535433,
                    "duration": 0.14999999999997726
                },
                {
                    "name": "F4",
                    "midi": 65,
                    "time": 482.55000000000496,
                    "velocity": 0.3858267716535433,
                    "duration": 0.14999999999997726
                },
                {
                    "name": "D4",
                    "midi": 62,
                    "time": 482.70000000000493,
                    "velocity": 0.3858267716535433,
                    "duration": 0.14999999999997726
                },
                {
                    "name": "E4",
                    "midi": 64,
                    "time": 482.70000000000493,
                    "velocity": 0.3858267716535433,
                    "duration": 0.14999999999997726
                },
                {
                    "name": "F4",
                    "midi": 65,
                    "time": 482.8500000000049,
                    "velocity": 0.3858267716535433,
                    "duration": 0.14999999999997726
                },
                {
                    "name": "D4",
                    "midi": 62,
                    "time": 483.0000000000049,
                    "velocity": 0.3858267716535433,
                    "duration": 0.14999999999997726
                },
                {
                    "name": "E4",
                    "midi": 64,
                    "time": 483.0000000000049,
                    "velocity": 0.3858267716535433,
                    "duration": 0.14999999999997726
                },
                {
                    "name": "F4",
                    "midi": 65,
                    "time": 483.15000000000487,
                    "velocity": 0.3858267716535433,
                    "duration": 0.14999999999997726
                },
                {
                    "name": "D4",
                    "midi": 62,
                    "time": 483.30000000000484,
                    "velocity": 0.3858267716535433,
                    "duration": 0.14999999999997726
                },
                {
                    "name": "E4",
                    "midi": 64,
                    "time": 483.30000000000484,
                    "velocity": 0.3858267716535433,
                    "duration": 0.14999999999997726
                },
                {
                    "name": "F4",
                    "midi": 65,
                    "time": 483.4500000000048,
                    "velocity": 0.3858267716535433,
                    "duration": 0.14999999999997726
                },
                {
                    "name": "E4",
                    "midi": 64,
                    "time": 483.6000000000048,
                    "velocity": 0.3858267716535433,
                    "duration": 0.14999999999997726
                },
                {
                    "name": "F4",
                    "midi": 65,
                    "time": 483.6000000000048,
                    "velocity": 0.3858267716535433,
                    "duration": 0.14999999999997726
                },
                {
                    "name": "G4",
                    "midi": 67,
                    "time": 483.7500000000048,
                    "velocity": 0.3858267716535433,
                    "duration": 0.14999999999997726
                },
                {
                    "name": "E4",
                    "midi": 64,
                    "time": 483.90000000000475,
                    "velocity": 0.3858267716535433,
                    "duration": 0.14999999999997726
                },
                {
                    "name": "F4",
                    "midi": 65,
                    "time": 483.90000000000475,
                    "velocity": 0.3858267716535433,
                    "duration": 0.14999999999997726
                },
                {
                    "name": "G4",
                    "midi": 67,
                    "time": 484.05000000000473,
                    "velocity": 0.3858267716535433,
                    "duration": 0.14999999999997726
                },
                {
                    "name": "E4",
                    "midi": 64,
                    "time": 484.2000000000047,
                    "velocity": 0.3858267716535433,
                    "duration": 0.14999999999997726
                },
                {
                    "name": "F4",
                    "midi": 65,
                    "time": 484.2000000000047,
                    "velocity": 0.3858267716535433,
                    "duration": 0.14999999999997726
                },
                {
                    "name": "G4",
                    "midi": 67,
                    "time": 484.3500000000047,
                    "velocity": 0.3858267716535433,
                    "duration": 0.14999999999997726
                },
                {
                    "name": "E4",
                    "midi": 64,
                    "time": 484.50000000000466,
                    "velocity": 0.3858267716535433,
                    "duration": 0.14999999999997726
                },
                {
                    "name": "F4",
                    "midi": 65,
                    "time": 484.50000000000466,
                    "velocity": 0.3858267716535433,
                    "duration": 0.14999999999997726
                },
                {
                    "name": "G4",
                    "midi": 67,
                    "time": 484.65000000000464,
                    "velocity": 0.3858267716535433,
                    "duration": 0.14999999999997726
                },
                {
                    "name": "D4",
                    "midi": 62,
                    "time": 484.8000000000046,
                    "velocity": 0.3858267716535433,
                    "duration": 0.14999999999997726
                },
                {
                    "name": "E4",
                    "midi": 64,
                    "time": 484.8000000000046,
                    "velocity": 0.3858267716535433,
                    "duration": 0.14999999999997726
                },
                {
                    "name": "F4",
                    "midi": 65,
                    "time": 484.9500000000046,
                    "velocity": 0.3858267716535433,
                    "duration": 0.14999999999997726
                },
                {
                    "name": "D4",
                    "midi": 62,
                    "time": 485.10000000000457,
                    "velocity": 0.3858267716535433,
                    "duration": 0.14999999999997726
                },
                {
                    "name": "E4",
                    "midi": 64,
                    "time": 485.10000000000457,
                    "velocity": 0.3858267716535433,
                    "duration": 0.14999999999997726
                },
                {
                    "name": "F4",
                    "midi": 65,
                    "time": 485.25000000000455,
                    "velocity": 0.3858267716535433,
                    "duration": 0.14999999999997726
                },
                {
                    "name": "D4",
                    "midi": 62,
                    "time": 485.4000000000045,
                    "velocity": 0.3858267716535433,
                    "duration": 0.14999999999997726
                },
                {
                    "name": "E4",
                    "midi": 64,
                    "time": 485.4000000000045,
                    "velocity": 0.3858267716535433,
                    "duration": 0.14999999999997726
                },
                {
                    "name": "F4",
                    "midi": 65,
                    "time": 485.5500000000045,
                    "velocity": 0.3858267716535433,
                    "duration": 0.14999999999997726
                },
                {
                    "name": "D4",
                    "midi": 62,
                    "time": 485.7000000000045,
                    "velocity": 0.3858267716535433,
                    "duration": 0.14999999999997726
                },
                {
                    "name": "E4",
                    "midi": 64,
                    "time": 485.7000000000045,
                    "velocity": 0.3858267716535433,
                    "duration": 0.14999999999997726
                },
                {
                    "name": "F4",
                    "midi": 65,
                    "time": 485.85000000000446,
                    "velocity": 0.3858267716535433,
                    "duration": 0.14999999999997726
                },
                {
                    "name": "E4",
                    "midi": 64,
                    "time": 486.00000000000443,
                    "velocity": 0.3858267716535433,
                    "duration": 0.14999999999997726
                },
                {
                    "name": "F4",
                    "midi": 65,
                    "time": 486.00000000000443,
                    "velocity": 0.3858267716535433,
                    "duration": 0.14999999999997726
                },
                {
                    "name": "G4",
                    "midi": 67,
                    "time": 486.1500000000044,
                    "velocity": 0.3858267716535433,
                    "duration": 0.14999999999997726
                },
                {
                    "name": "E4",
                    "midi": 64,
                    "time": 486.3000000000044,
                    "velocity": 0.3858267716535433,
                    "duration": 0.14999999999997726
                },
                {
                    "name": "F4",
                    "midi": 65,
                    "time": 486.3000000000044,
                    "velocity": 0.3858267716535433,
                    "duration": 0.14999999999997726
                },
                {
                    "name": "G4",
                    "midi": 67,
                    "time": 486.45000000000437,
                    "velocity": 0.3858267716535433,
                    "duration": 0.14999999999997726
                },
                {
                    "name": "E4",
                    "midi": 64,
                    "time": 486.60000000000434,
                    "velocity": 0.3858267716535433,
                    "duration": 0.14999999999997726
                },
                {
                    "name": "F4",
                    "midi": 65,
                    "time": 486.60000000000434,
                    "velocity": 0.3858267716535433,
                    "duration": 0.14999999999997726
                },
                {
                    "name": "G4",
                    "midi": 67,
                    "time": 486.7500000000043,
                    "velocity": 0.3858267716535433,
                    "duration": 0.14999999999997726
                },
                {
                    "name": "E4",
                    "midi": 64,
                    "time": 486.9000000000043,
                    "velocity": 0.3858267716535433,
                    "duration": 0.14999999999997726
                },
                {
                    "name": "F4",
                    "midi": 65,
                    "time": 486.9000000000043,
                    "velocity": 0.3858267716535433,
                    "duration": 0.14999999999997726
                },
                {
                    "name": "G4",
                    "midi": 67,
                    "time": 487.0500000000043,
                    "velocity": 0.3858267716535433,
                    "duration": 0.14999999999997726
                },
                {
                    "name": "D4",
                    "midi": 62,
                    "time": 487.20000000000425,
                    "velocity": 0.3858267716535433,
                    "duration": 0.14999999999997726
                },
                {
                    "name": "E4",
                    "midi": 64,
                    "time": 487.20000000000425,
                    "velocity": 0.3858267716535433,
                    "duration": 0.14999999999997726
                },
                {
                    "name": "F4",
                    "midi": 65,
                    "time": 487.35000000000423,
                    "velocity": 0.3858267716535433,
                    "duration": 0.14999999999997726
                },
                {
                    "name": "D4",
                    "midi": 62,
                    "time": 487.5000000000042,
                    "velocity": 0.3858267716535433,
                    "duration": 0.14999999999997726
                },
                {
                    "name": "E4",
                    "midi": 64,
                    "time": 487.5000000000042,
                    "velocity": 0.3858267716535433,
                    "duration": 0.14999999999997726
                },
                {
                    "name": "F4",
                    "midi": 65,
                    "time": 487.6500000000042,
                    "velocity": 0.3858267716535433,
                    "duration": 0.14999999999997726
                },
                {
                    "name": "D4",
                    "midi": 62,
                    "time": 487.80000000000416,
                    "velocity": 0.3858267716535433,
                    "duration": 0.14999999999997726
                },
                {
                    "name": "E4",
                    "midi": 64,
                    "time": 487.80000000000416,
                    "velocity": 0.3858267716535433,
                    "duration": 0.14999999999997726
                },
                {
                    "name": "F4",
                    "midi": 65,
                    "time": 487.95000000000414,
                    "velocity": 0.3858267716535433,
                    "duration": 0.14999999999997726
                },
                {
                    "name": "D4",
                    "midi": 62,
                    "time": 488.1000000000041,
                    "velocity": 0.3858267716535433,
                    "duration": 0.14999999999997726
                },
                {
                    "name": "E4",
                    "midi": 64,
                    "time": 488.1000000000041,
                    "velocity": 0.3858267716535433,
                    "duration": 0.14999999999997726
                },
                {
                    "name": "F4",
                    "midi": 65,
                    "time": 488.2500000000041,
                    "velocity": 0.3858267716535433,
                    "duration": 0.14999999999997726
                },
                {
                    "name": "E4",
                    "midi": 64,
                    "time": 488.40000000000407,
                    "velocity": 0.3858267716535433,
                    "duration": 0.14999999999997726
                },
                {
                    "name": "F4",
                    "midi": 65,
                    "time": 488.40000000000407,
                    "velocity": 0.3858267716535433,
                    "duration": 0.14999999999997726
                },
                {
                    "name": "G4",
                    "midi": 67,
                    "time": 488.55000000000405,
                    "velocity": 0.3858267716535433,
                    "duration": 0.14999999999997726
                },
                {
                    "name": "E4",
                    "midi": 64,
                    "time": 488.700000000004,
                    "velocity": 0.3858267716535433,
                    "duration": 0.14999999999997726
                },
                {
                    "name": "F4",
                    "midi": 65,
                    "time": 488.700000000004,
                    "velocity": 0.3858267716535433,
                    "duration": 0.14999999999997726
                },
                {
                    "name": "G4",
                    "midi": 67,
                    "time": 488.850000000004,
                    "velocity": 0.3858267716535433,
                    "duration": 0.14999999999997726
                },
                {
                    "name": "E4",
                    "midi": 64,
                    "time": 489.000000000004,
                    "velocity": 0.3858267716535433,
                    "duration": 0.14999999999997726
                },
                {
                    "name": "F4",
                    "midi": 65,
                    "time": 489.000000000004,
                    "velocity": 0.3858267716535433,
                    "duration": 0.14999999999997726
                },
                {
                    "name": "G4",
                    "midi": 67,
                    "time": 489.15000000000396,
                    "velocity": 0.3858267716535433,
                    "duration": 0.14999999999997726
                },
                {
                    "name": "E4",
                    "midi": 64,
                    "time": 489.30000000000393,
                    "velocity": 0.3858267716535433,
                    "duration": 0.14999999999997726
                },
                {
                    "name": "F4",
                    "midi": 65,
                    "time": 489.30000000000393,
                    "velocity": 0.3858267716535433,
                    "duration": 0.14999999999997726
                },
                {
                    "name": "G4",
                    "midi": 67,
                    "time": 489.4500000000039,
                    "velocity": 0.3858267716535433,
                    "duration": 0.14999999999997726
                },
                {
                    "name": "D4",
                    "midi": 62,
                    "time": 489.6000000000039,
                    "velocity": 0.3858267716535433,
                    "duration": 0.14999999999997726
                },
                {
                    "name": "E4",
                    "midi": 64,
                    "time": 489.6000000000039,
                    "velocity": 0.3858267716535433,
                    "duration": 0.14999999999997726
                },
                {
                    "name": "F4",
                    "midi": 65,
                    "time": 489.75000000000387,
                    "velocity": 0.3858267716535433,
                    "duration": 0.14999999999997726
                },
                {
                    "name": "D4",
                    "midi": 62,
                    "time": 489.90000000000384,
                    "velocity": 0.3858267716535433,
                    "duration": 0.14999999999997726
                },
                {
                    "name": "E4",
                    "midi": 64,
                    "time": 489.90000000000384,
                    "velocity": 0.3858267716535433,
                    "duration": 0.14999999999997726
                },
                {
                    "name": "F4",
                    "midi": 65,
                    "time": 490.0500000000038,
                    "velocity": 0.3858267716535433,
                    "duration": 0.14999999999997726
                },
                {
                    "name": "D4",
                    "midi": 62,
                    "time": 490.2000000000038,
                    "velocity": 0.3858267716535433,
                    "duration": 0.14999999999997726
                },
                {
                    "name": "E4",
                    "midi": 64,
                    "time": 490.2000000000038,
                    "velocity": 0.3858267716535433,
                    "duration": 0.14999999999997726
                },
                {
                    "name": "F4",
                    "midi": 65,
                    "time": 490.3500000000038,
                    "velocity": 0.3858267716535433,
                    "duration": 0.14999999999997726
                },
                {
                    "name": "D4",
                    "midi": 62,
                    "time": 490.50000000000375,
                    "velocity": 0.3858267716535433,
                    "duration": 0.14999999999997726
                },
                {
                    "name": "E4",
                    "midi": 64,
                    "time": 490.50000000000375,
                    "velocity": 0.3858267716535433,
                    "duration": 0.14999999999997726
                },
                {
                    "name": "F4",
                    "midi": 65,
                    "time": 490.65000000000373,
                    "velocity": 0.3858267716535433,
                    "duration": 0.14999999999997726
                },
                {
                    "name": "E4",
                    "midi": 64,
                    "time": 490.8000000000037,
                    "velocity": 0.3858267716535433,
                    "duration": 0.14999999999997726
                },
                {
                    "name": "F4",
                    "midi": 65,
                    "time": 490.8000000000037,
                    "velocity": 0.3858267716535433,
                    "duration": 0.14999999999997726
                },
                {
                    "name": "G4",
                    "midi": 67,
                    "time": 490.9500000000037,
                    "velocity": 0.3858267716535433,
                    "duration": 0.14999999999997726
                },
                {
                    "name": "E4",
                    "midi": 64,
                    "time": 491.10000000000366,
                    "velocity": 0.3858267716535433,
                    "duration": 0.14999999999997726
                },
                {
                    "name": "F4",
                    "midi": 65,
                    "time": 491.10000000000366,
                    "velocity": 0.3858267716535433,
                    "duration": 0.14999999999997726
                },
                {
                    "name": "G4",
                    "midi": 67,
                    "time": 491.25000000000364,
                    "velocity": 0.3858267716535433,
                    "duration": 0.14999999999997726
                },
                {
                    "name": "E4",
                    "midi": 64,
                    "time": 491.4000000000036,
                    "velocity": 0.3858267716535433,
                    "duration": 0.14999999999997726
                },
                {
                    "name": "F4",
                    "midi": 65,
                    "time": 491.4000000000036,
                    "velocity": 0.3858267716535433,
                    "duration": 0.14999999999997726
                },
                {
                    "name": "G4",
                    "midi": 67,
                    "time": 491.5500000000036,
                    "velocity": 0.3858267716535433,
                    "duration": 0.14999999999997726
                },
                {
                    "name": "E4",
                    "midi": 64,
                    "time": 491.70000000000357,
                    "velocity": 0.3858267716535433,
                    "duration": 0.14999999999997726
                },
                {
                    "name": "F4",
                    "midi": 65,
                    "time": 491.70000000000357,
                    "velocity": 0.3858267716535433,
                    "duration": 0.14999999999997726
                },
                {
                    "name": "G4",
                    "midi": 67,
                    "time": 491.85000000000355,
                    "velocity": 0.3858267716535433,
                    "duration": 0.14999999999997726
                },
                {
                    "name": "D4",
                    "midi": 62,
                    "time": 492.0000000000035,
                    "velocity": 0.3858267716535433,
                    "duration": 0.14999999999997726
                },
                {
                    "name": "E4",
                    "midi": 64,
                    "time": 492.0000000000035,
                    "velocity": 0.3858267716535433,
                    "duration": 0.14999999999997726
                },
                {
                    "name": "F4",
                    "midi": 65,
                    "time": 492.1500000000035,
                    "velocity": 0.3858267716535433,
                    "duration": 0.14999999999997726
                },
                {
                    "name": "D4",
                    "midi": 62,
                    "time": 492.3000000000035,
                    "velocity": 0.3858267716535433,
                    "duration": 0.14999999999997726
                },
                {
                    "name": "E4",
                    "midi": 64,
                    "time": 492.3000000000035,
                    "velocity": 0.3858267716535433,
                    "duration": 0.14999999999997726
                },
                {
                    "name": "F4",
                    "midi": 65,
                    "time": 492.45000000000346,
                    "velocity": 0.3858267716535433,
                    "duration": 0.14999999999997726
                },
                {
                    "name": "D4",
                    "midi": 62,
                    "time": 492.60000000000343,
                    "velocity": 0.3858267716535433,
                    "duration": 0.14999999999997726
                },
                {
                    "name": "E4",
                    "midi": 64,
                    "time": 492.60000000000343,
                    "velocity": 0.3858267716535433,
                    "duration": 0.14999999999997726
                },
                {
                    "name": "F4",
                    "midi": 65,
                    "time": 492.7500000000034,
                    "velocity": 0.3858267716535433,
                    "duration": 0.14999999999997726
                },
                {
                    "name": "D4",
                    "midi": 62,
                    "time": 492.9000000000034,
                    "velocity": 0.3858267716535433,
                    "duration": 0.14999999999997726
                },
                {
                    "name": "E4",
                    "midi": 64,
                    "time": 492.9000000000034,
                    "velocity": 0.3858267716535433,
                    "duration": 0.14999999999997726
                },
                {
                    "name": "F4",
                    "midi": 65,
                    "time": 493.05000000000337,
                    "velocity": 0.3858267716535433,
                    "duration": 0.14999999999997726
                },
                {
                    "name": "E4",
                    "midi": 64,
                    "time": 493.20000000000334,
                    "velocity": 0.3858267716535433,
                    "duration": 0.14999999999997726
                },
                {
                    "name": "F4",
                    "midi": 65,
                    "time": 493.20000000000334,
                    "velocity": 0.3858267716535433,
                    "duration": 0.14999999999997726
                },
                {
                    "name": "G4",
                    "midi": 67,
                    "time": 493.3500000000033,
                    "velocity": 0.3858267716535433,
                    "duration": 0.14999999999997726
                },
                {
                    "name": "E4",
                    "midi": 64,
                    "time": 493.5000000000033,
                    "velocity": 0.3858267716535433,
                    "duration": 0.14999999999997726
                },
                {
                    "name": "F4",
                    "midi": 65,
                    "time": 493.5000000000033,
                    "velocity": 0.3858267716535433,
                    "duration": 0.14999999999997726
                },
                {
                    "name": "G4",
                    "midi": 67,
                    "time": 493.6500000000033,
                    "velocity": 0.3858267716535433,
                    "duration": 0.14999999999997726
                },
                {
                    "name": "E4",
                    "midi": 64,
                    "time": 493.80000000000325,
                    "velocity": 0.3858267716535433,
                    "duration": 0.14999999999997726
                },
                {
                    "name": "F4",
                    "midi": 65,
                    "time": 493.80000000000325,
                    "velocity": 0.3858267716535433,
                    "duration": 0.14999999999997726
                },
                {
                    "name": "G4",
                    "midi": 67,
                    "time": 493.95000000000323,
                    "velocity": 0.3858267716535433,
                    "duration": 0.14999999999997726
                },
                {
                    "name": "E4",
                    "midi": 64,
                    "time": 494.1000000000032,
                    "velocity": 0.3858267716535433,
                    "duration": 0.14999999999997726
                },
                {
                    "name": "F4",
                    "midi": 65,
                    "time": 494.1000000000032,
                    "velocity": 0.3858267716535433,
                    "duration": 0.14999999999997726
                },
                {
                    "name": "G4",
                    "midi": 67,
                    "time": 494.2500000000032,
                    "velocity": 0.3858267716535433,
                    "duration": 0.14999999999997726
                },
                {
                    "name": "D4",
                    "midi": 62,
                    "time": 494.40000000000316,
                    "velocity": 0.3858267716535433,
                    "duration": 0.14999999999997726
                },
                {
                    "name": "E4",
                    "midi": 64,
                    "time": 494.40000000000316,
                    "velocity": 0.3858267716535433,
                    "duration": 0.14999999999997726
                },
                {
                    "name": "F4",
                    "midi": 65,
                    "time": 494.55000000000314,
                    "velocity": 0.3858267716535433,
                    "duration": 0.14999999999997726
                },
                {
                    "name": "D4",
                    "midi": 62,
                    "time": 494.7000000000031,
                    "velocity": 0.3858267716535433,
                    "duration": 0.14999999999997726
                },
                {
                    "name": "E4",
                    "midi": 64,
                    "time": 494.7000000000031,
                    "velocity": 0.3858267716535433,
                    "duration": 0.14999999999997726
                },
                {
                    "name": "F4",
                    "midi": 65,
                    "time": 494.8500000000031,
                    "velocity": 0.3858267716535433,
                    "duration": 0.14999999999997726
                },
                {
                    "name": "D4",
                    "midi": 62,
                    "time": 495.00000000000307,
                    "velocity": 0.3858267716535433,
                    "duration": 0.14999999999997726
                },
                {
                    "name": "E4",
                    "midi": 64,
                    "time": 495.00000000000307,
                    "velocity": 0.3858267716535433,
                    "duration": 0.14999999999997726
                },
                {
                    "name": "F4",
                    "midi": 65,
                    "time": 495.15000000000305,
                    "velocity": 0.3858267716535433,
                    "duration": 0.14999999999997726
                },
                {
                    "name": "D4",
                    "midi": 62,
                    "time": 495.300000000003,
                    "velocity": 0.3858267716535433,
                    "duration": 0.14999999999997726
                },
                {
                    "name": "E4",
                    "midi": 64,
                    "time": 495.300000000003,
                    "velocity": 0.3858267716535433,
                    "duration": 0.14999999999997726
                },
                {
                    "name": "F4",
                    "midi": 65,
                    "time": 495.450000000003,
                    "velocity": 0.3858267716535433,
                    "duration": 0.14999999999997726
                },
                {
                    "name": "E4",
                    "midi": 64,
                    "time": 495.600000000003,
                    "velocity": 0.3858267716535433,
                    "duration": 0.14999999999997726
                },
                {
                    "name": "F4",
                    "midi": 65,
                    "time": 495.600000000003,
                    "velocity": 0.3858267716535433,
                    "duration": 0.14999999999997726
                },
                {
                    "name": "G4",
                    "midi": 67,
                    "time": 495.75000000000296,
                    "velocity": 0.3858267716535433,
                    "duration": 0.14999999999997726
                },
                {
                    "name": "E4",
                    "midi": 64,
                    "time": 495.90000000000293,
                    "velocity": 0.3858267716535433,
                    "duration": 0.14999999999997726
                },
                {
                    "name": "F4",
                    "midi": 65,
                    "time": 495.90000000000293,
                    "velocity": 0.3858267716535433,
                    "duration": 0.14999999999997726
                },
                {
                    "name": "G4",
                    "midi": 67,
                    "time": 496.0500000000029,
                    "velocity": 0.3858267716535433,
                    "duration": 0.14999999999997726
                },
                {
                    "name": "E4",
                    "midi": 64,
                    "time": 496.2000000000029,
                    "velocity": 0.3858267716535433,
                    "duration": 0.14999999999997726
                },
                {
                    "name": "F4",
                    "midi": 65,
                    "time": 496.2000000000029,
                    "velocity": 0.3858267716535433,
                    "duration": 0.14999999999997726
                },
                {
                    "name": "G4",
                    "midi": 67,
                    "time": 496.35000000000286,
                    "velocity": 0.3858267716535433,
                    "duration": 0.14999999999997726
                },
                {
                    "name": "E4",
                    "midi": 64,
                    "time": 496.50000000000284,
                    "velocity": 0.3858267716535433,
                    "duration": 0.14999999999997726
                },
                {
                    "name": "F4",
                    "midi": 65,
                    "time": 496.50000000000284,
                    "velocity": 0.3858267716535433,
                    "duration": 0.14999999999997726
                },
                {
                    "name": "G4",
                    "midi": 67,
                    "time": 496.6500000000028,
                    "velocity": 0.3858267716535433,
                    "duration": 0.14999999999997726
                },
                {
                    "name": "A#3",
                    "midi": 58,
                    "time": 497.4000000000028,
                    "velocity": 0.4881889763779528,
                    "duration": 0.11750000000000682
                },
                {
                    "name": "C#4",
                    "midi": 61,
                    "time": 498.00000000000284,
                    "velocity": 0.4881889763779528,
                    "duration": 0.11750000000000682
                },
                {
                    "name": "D#4",
                    "midi": 63,
                    "time": 498.00000000000284,
                    "velocity": 0.4881889763779528,
                    "duration": 0.11750000000000682
                },
                {
                    "name": "F4",
                    "midi": 65,
                    "time": 498.00000000000284,
                    "velocity": 0.4881889763779528,
                    "duration": 0.11750000000000682
                },
                {
                    "name": "G#4",
                    "midi": 68,
                    "time": 498.00000000000284,
                    "velocity": 0.4881889763779528,
                    "duration": 0.11750000000000682
                },
                {
                    "name": "A#3",
                    "midi": 58,
                    "time": 498.60000000000286,
                    "velocity": 0.4881889763779528,
                    "duration": 0.11750000000000682
                },
                {
                    "name": "A#3",
                    "midi": 58,
                    "time": 499.80000000000285,
                    "velocity": 0.4881889763779528,
                    "duration": 0.11750000000000682
                },
                {
                    "name": "C#4",
                    "midi": 61,
                    "time": 500.4000000000029,
                    "velocity": 0.4881889763779528,
                    "duration": 0.11750000000000682
                },
                {
                    "name": "D#4",
                    "midi": 63,
                    "time": 500.4000000000029,
                    "velocity": 0.4881889763779528,
                    "duration": 0.11750000000000682
                },
                {
                    "name": "F4",
                    "midi": 65,
                    "time": 500.4000000000029,
                    "velocity": 0.4881889763779528,
                    "duration": 0.11750000000000682
                },
                {
                    "name": "G#4",
                    "midi": 68,
                    "time": 500.4000000000029,
                    "velocity": 0.4881889763779528,
                    "duration": 0.11750000000000682
                },
                {
                    "name": "A#3",
                    "midi": 58,
                    "time": 501.0000000000029,
                    "velocity": 0.4881889763779528,
                    "duration": 0.11750000000000682
                },
                {
                    "name": "A#3",
                    "midi": 58,
                    "time": 502.2000000000029,
                    "velocity": 0.4881889763779528,
                    "duration": 0.11750000000000682
                },
                {
                    "name": "C#4",
                    "midi": 61,
                    "time": 502.8000000000029,
                    "velocity": 0.4881889763779528,
                    "duration": 0.11750000000000682
                },
                {
                    "name": "D#4",
                    "midi": 63,
                    "time": 502.8000000000029,
                    "velocity": 0.4881889763779528,
                    "duration": 0.11750000000000682
                },
                {
                    "name": "F4",
                    "midi": 65,
                    "time": 502.8000000000029,
                    "velocity": 0.4881889763779528,
                    "duration": 0.11750000000000682
                },
                {
                    "name": "G#4",
                    "midi": 68,
                    "time": 502.8000000000029,
                    "velocity": 0.4881889763779528,
                    "duration": 0.11750000000000682
                },
                {
                    "name": "A#3",
                    "midi": 58,
                    "time": 503.40000000000293,
                    "velocity": 0.4881889763779528,
                    "duration": 0.11750000000000682
                },
                {
                    "name": "A#3",
                    "midi": 58,
                    "time": 504.6000000000029,
                    "velocity": 0.4881889763779528,
                    "duration": 0.11750000000000682
                },
                {
                    "name": "C#4",
                    "midi": 61,
                    "time": 505.20000000000294,
                    "velocity": 0.4881889763779528,
                    "duration": 0.11750000000000682
                },
                {
                    "name": "D#4",
                    "midi": 63,
                    "time": 505.20000000000294,
                    "velocity": 0.4881889763779528,
                    "duration": 0.11750000000000682
                },
                {
                    "name": "F4",
                    "midi": 65,
                    "time": 505.20000000000294,
                    "velocity": 0.4881889763779528,
                    "duration": 0.11750000000000682
                },
                {
                    "name": "G#4",
                    "midi": 68,
                    "time": 505.20000000000294,
                    "velocity": 0.4881889763779528,
                    "duration": 0.11750000000000682
                },
                {
                    "name": "A#3",
                    "midi": 58,
                    "time": 505.80000000000297,
                    "velocity": 0.4881889763779528,
                    "duration": 0.11750000000000682
                },
                {
                    "name": "A#3",
                    "midi": 58,
                    "time": 507.00000000000296,
                    "velocity": 0.4881889763779528,
                    "duration": 0.11750000000000682
                },
                {
                    "name": "D#4",
                    "midi": 63,
                    "time": 507.600000000003,
                    "velocity": 0.4881889763779528,
                    "duration": 0.11750000000000682
                },
                {
                    "name": "A#3",
                    "midi": 58,
                    "time": 508.200000000003,
                    "velocity": 0.4881889763779528,
                    "duration": 0.11750000000000682
                },
                {
                    "name": "C#4",
                    "midi": 61,
                    "time": 508.800000000003,
                    "velocity": 0.6929133858267716,
                    "duration": 1.1999999999999886
                },
                {
                    "name": "F4",
                    "midi": 65,
                    "time": 508.800000000003,
                    "velocity": 0.6929133858267716,
                    "duration": 1.1999999999999886
                },
                {
                    "name": "F#4",
                    "midi": 66,
                    "time": 508.800000000003,
                    "velocity": 0.6929133858267716,
                    "duration": 1.1999999999999886
                },
                {
                    "name": "A#4",
                    "midi": 70,
                    "time": 508.800000000003,
                    "velocity": 0.6929133858267716,
                    "duration": 1.1999999999999886
                },
                {
                    "name": "C#4",
                    "midi": 61,
                    "time": 510.000000000003,
                    "velocity": 0.6929133858267716,
                    "duration": 1.1999999999999886
                },
                {
                    "name": "F4",
                    "midi": 65,
                    "time": 510.000000000003,
                    "velocity": 0.6929133858267716,
                    "duration": 1.1999999999999886
                },
                {
                    "name": "F#4",
                    "midi": 66,
                    "time": 510.000000000003,
                    "velocity": 0.6929133858267716,
                    "duration": 1.1999999999999886
                },
                {
                    "name": "A#4",
                    "midi": 70,
                    "time": 510.000000000003,
                    "velocity": 0.6929133858267716,
                    "duration": 1.1999999999999886
                },
                {
                    "name": "F#4",
                    "midi": 66,
                    "time": 512.400000000003,
                    "velocity": 0.6929133858267716,
                    "duration": 1.2000000000000455
                },
                {
                    "name": "A#4",
                    "midi": 70,
                    "time": 512.400000000003,
                    "velocity": 0.6929133858267716,
                    "duration": 1.2000000000000455
                },
                {
                    "name": "C5",
                    "midi": 72,
                    "time": 512.400000000003,
                    "velocity": 0.6929133858267716,
                    "duration": 1.2000000000000455
                },
                {
                    "name": "D#5",
                    "midi": 75,
                    "time": 512.400000000003,
                    "velocity": 0.6929133858267716,
                    "duration": 1.2000000000000455
                },
                {
                    "name": "F4",
                    "midi": 65,
                    "time": 513.6000000000031,
                    "velocity": 0.6929133858267716,
                    "duration": 1.2000000000000455
                },
                {
                    "name": "G#4",
                    "midi": 68,
                    "time": 513.6000000000031,
                    "velocity": 0.6929133858267716,
                    "duration": 1.2000000000000455
                },
                {
                    "name": "A#4",
                    "midi": 70,
                    "time": 513.6000000000031,
                    "velocity": 0.6929133858267716,
                    "duration": 1.2000000000000455
                },
                {
                    "name": "C#5",
                    "midi": 73,
                    "time": 513.6000000000031,
                    "velocity": 0.6929133858267716,
                    "duration": 1.2000000000000455
                },
                {
                    "name": "D#4",
                    "midi": 63,
                    "time": 514.8000000000031,
                    "velocity": 0.6929133858267716,
                    "duration": 1.2000000000000455
                },
                {
                    "name": "F#4",
                    "midi": 66,
                    "time": 514.8000000000031,
                    "velocity": 0.6929133858267716,
                    "duration": 1.2000000000000455
                },
                {
                    "name": "G#4",
                    "midi": 68,
                    "time": 514.8000000000031,
                    "velocity": 0.6929133858267716,
                    "duration": 1.2000000000000455
                },
                {
                    "name": "C5",
                    "midi": 72,
                    "time": 514.8000000000031,
                    "velocity": 0.6929133858267716,
                    "duration": 1.2000000000000455
                },
                {
                    "name": "C#4",
                    "midi": 61,
                    "time": 517.2000000000032,
                    "velocity": 0.6929133858267716,
                    "duration": 1.2000000000000455
                },
                {
                    "name": "F4",
                    "midi": 65,
                    "time": 517.2000000000032,
                    "velocity": 0.6929133858267716,
                    "duration": 1.2000000000000455
                },
                {
                    "name": "F#4",
                    "midi": 66,
                    "time": 517.2000000000032,
                    "velocity": 0.6929133858267716,
                    "duration": 1.2000000000000455
                },
                {
                    "name": "A#4",
                    "midi": 70,
                    "time": 517.2000000000032,
                    "velocity": 0.6929133858267716,
                    "duration": 1.2000000000000455
                },
                {
                    "name": "F#4",
                    "midi": 66,
                    "time": 518.4000000000033,
                    "velocity": 0.6929133858267716,
                    "duration": 0.6000000000000227
                },
                {
                    "name": "G#4",
                    "midi": 68,
                    "time": 518.4000000000033,
                    "velocity": 0.6929133858267716,
                    "duration": 0.6000000000000227
                },
                {
                    "name": "C5",
                    "midi": 72,
                    "time": 518.4000000000033,
                    "velocity": 0.6929133858267716,
                    "duration": 0.6000000000000227
                },
                {
                    "name": "F4",
                    "midi": 65,
                    "time": 519.0000000000033,
                    "velocity": 0.6929133858267716,
                    "duration": 0.6000000000000227
                },
                {
                    "name": "G#4",
                    "midi": 68,
                    "time": 519.0000000000033,
                    "velocity": 0.6929133858267716,
                    "duration": 0.6000000000000227
                },
                {
                    "name": "A#4",
                    "midi": 70,
                    "time": 519.0000000000033,
                    "velocity": 0.6929133858267716,
                    "duration": 0.6000000000000227
                },
                {
                    "name": "C#5",
                    "midi": 73,
                    "time": 519.0000000000033,
                    "velocity": 0.6929133858267716,
                    "duration": 0.6000000000000227
                },
                {
                    "name": "F#4",
                    "midi": 66,
                    "time": 519.6000000000033,
                    "velocity": 0.6929133858267716,
                    "duration": 1.2000000000000455
                },
                {
                    "name": "A#4",
                    "midi": 70,
                    "time": 519.6000000000033,
                    "velocity": 0.6929133858267716,
                    "duration": 1.2000000000000455
                },
                {
                    "name": "C5",
                    "midi": 72,
                    "time": 519.6000000000033,
                    "velocity": 0.6929133858267716,
                    "duration": 1.2000000000000455
                },
                {
                    "name": "D#5",
                    "midi": 75,
                    "time": 519.6000000000033,
                    "velocity": 0.6929133858267716,
                    "duration": 1.2000000000000455
                },
                {
                    "name": "C#4",
                    "midi": 61,
                    "time": 522.0000000000034,
                    "velocity": 0.6929133858267716,
                    "duration": 1.2000000000000455
                },
                {
                    "name": "F4",
                    "midi": 65,
                    "time": 522.0000000000034,
                    "velocity": 0.6929133858267716,
                    "duration": 1.2000000000000455
                },
                {
                    "name": "F#4",
                    "midi": 66,
                    "time": 522.0000000000034,
                    "velocity": 0.6929133858267716,
                    "duration": 1.2000000000000455
                },
                {
                    "name": "A#4",
                    "midi": 70,
                    "time": 522.0000000000034,
                    "velocity": 0.6929133858267716,
                    "duration": 1.2000000000000455
                },
                {
                    "name": "D#4",
                    "midi": 63,
                    "time": 523.2000000000035,
                    "velocity": 0.6929133858267716,
                    "duration": 0.6000000000000227
                },
                {
                    "name": "F#4",
                    "midi": 66,
                    "time": 523.2000000000035,
                    "velocity": 0.6929133858267716,
                    "duration": 0.6000000000000227
                },
                {
                    "name": "G#4",
                    "midi": 68,
                    "time": 523.2000000000035,
                    "velocity": 0.6929133858267716,
                    "duration": 0.6000000000000227
                },
                {
                    "name": "C5",
                    "midi": 72,
                    "time": 523.2000000000035,
                    "velocity": 0.6929133858267716,
                    "duration": 0.6000000000000227
                },
                {
                    "name": "F4",
                    "midi": 65,
                    "time": 523.8000000000035,
                    "velocity": 0.6929133858267716,
                    "duration": 0.6000000000000227
                },
                {
                    "name": "G#4",
                    "midi": 68,
                    "time": 523.8000000000035,
                    "velocity": 0.6929133858267716,
                    "duration": 0.6000000000000227
                },
                {
                    "name": "C#5",
                    "midi": 73,
                    "time": 523.8000000000035,
                    "velocity": 0.6929133858267716,
                    "duration": 0.6000000000000227
                },
                {
                    "name": "F#4",
                    "midi": 66,
                    "time": 524.4000000000035,
                    "velocity": 0.6929133858267716,
                    "duration": 1.2000000000000455
                },
                {
                    "name": "A#4",
                    "midi": 70,
                    "time": 524.4000000000035,
                    "velocity": 0.6929133858267716,
                    "duration": 1.2000000000000455
                },
                {
                    "name": "C5",
                    "midi": 72,
                    "time": 524.4000000000035,
                    "velocity": 0.6929133858267716,
                    "duration": 1.2000000000000455
                },
                {
                    "name": "D#5",
                    "midi": 75,
                    "time": 524.4000000000035,
                    "velocity": 0.6929133858267716,
                    "duration": 1.2000000000000455
                },
                {
                    "name": "C#4",
                    "midi": 61,
                    "time": 525.6000000000035,
                    "velocity": 0.4881889763779528,
                    "duration": 0.6000000000000227
                },
                {
                    "name": "A#3",
                    "midi": 58,
                    "time": 526.2000000000036,
                    "velocity": 0.4881889763779528,
                    "duration": 0.6000000000000227
                },
                {
                    "name": "D#4",
                    "midi": 63,
                    "time": 526.8000000000036,
                    "velocity": 0.6929133858267716,
                    "duration": 1.2000000000000455
                },
                {
                    "name": "F#4",
                    "midi": 66,
                    "time": 526.8000000000036,
                    "velocity": 0.6929133858267716,
                    "duration": 1.2000000000000455
                },
                {
                    "name": "G#4",
                    "midi": 68,
                    "time": 526.8000000000036,
                    "velocity": 0.6929133858267716,
                    "duration": 1.2000000000000455
                },
                {
                    "name": "C5",
                    "midi": 72,
                    "time": 526.8000000000036,
                    "velocity": 0.6929133858267716,
                    "duration": 1.2000000000000455
                },
                {
                    "name": "C#4",
                    "midi": 61,
                    "time": 528.0000000000036,
                    "velocity": 0.6929133858267716,
                    "duration": 1.2000000000000455
                },
                {
                    "name": "F4",
                    "midi": 65,
                    "time": 528.0000000000036,
                    "velocity": 0.6929133858267716,
                    "duration": 1.2000000000000455
                },
                {
                    "name": "F#4",
                    "midi": 66,
                    "time": 528.0000000000036,
                    "velocity": 0.6929133858267716,
                    "duration": 1.2000000000000455
                },
                {
                    "name": "A#4",
                    "midi": 70,
                    "time": 528.0000000000036,
                    "velocity": 0.6929133858267716,
                    "duration": 1.2000000000000455
                },
                {
                    "name": "C#4",
                    "midi": 61,
                    "time": 529.2000000000037,
                    "velocity": 0.6929133858267716,
                    "duration": 1.2000000000000455
                },
                {
                    "name": "F4",
                    "midi": 65,
                    "time": 529.2000000000037,
                    "velocity": 0.6929133858267716,
                    "duration": 1.2000000000000455
                },
                {
                    "name": "F#4",
                    "midi": 66,
                    "time": 529.2000000000037,
                    "velocity": 0.6929133858267716,
                    "duration": 1.2000000000000455
                },
                {
                    "name": "A#4",
                    "midi": 70,
                    "time": 529.2000000000037,
                    "velocity": 0.6929133858267716,
                    "duration": 1.2000000000000455
                },
                {
                    "name": "D#4",
                    "midi": 63,
                    "time": 530.4000000000037,
                    "velocity": 0.6929133858267716,
                    "duration": 0.6000000000000227
                },
                {
                    "name": "F#4",
                    "midi": 66,
                    "time": 530.4000000000037,
                    "velocity": 0.6929133858267716,
                    "duration": 0.6000000000000227
                },
                {
                    "name": "G#4",
                    "midi": 68,
                    "time": 530.4000000000037,
                    "velocity": 0.6929133858267716,
                    "duration": 0.6000000000000227
                },
                {
                    "name": "C5",
                    "midi": 72,
                    "time": 530.4000000000037,
                    "velocity": 0.6929133858267716,
                    "duration": 0.6000000000000227
                },
                {
                    "name": "F4",
                    "midi": 65,
                    "time": 531.0000000000038,
                    "velocity": 0.6929133858267716,
                    "duration": 0.6000000000000227
                },
                {
                    "name": "G#4",
                    "midi": 68,
                    "time": 531.0000000000038,
                    "velocity": 0.6929133858267716,
                    "duration": 0.6000000000000227
                },
                {
                    "name": "C#5",
                    "midi": 73,
                    "time": 531.0000000000038,
                    "velocity": 0.6929133858267716,
                    "duration": 0.6000000000000227
                },
                {
                    "name": "F#4",
                    "midi": 66,
                    "time": 531.6000000000038,
                    "velocity": 0.6929133858267716,
                    "duration": 1.2000000000000455
                },
                {
                    "name": "A#4",
                    "midi": 70,
                    "time": 531.6000000000038,
                    "velocity": 0.6929133858267716,
                    "duration": 1.2000000000000455
                },
                {
                    "name": "C5",
                    "midi": 72,
                    "time": 531.6000000000038,
                    "velocity": 0.6929133858267716,
                    "duration": 1.2000000000000455
                },
                {
                    "name": "D#5",
                    "midi": 75,
                    "time": 531.6000000000038,
                    "velocity": 0.6929133858267716,
                    "duration": 1.2000000000000455
                },
                {
                    "name": "C#4",
                    "midi": 61,
                    "time": 533.4000000000038,
                    "velocity": 0.6929133858267716,
                    "duration": 1.2000000000000455
                },
                {
                    "name": "F4",
                    "midi": 65,
                    "time": 533.4000000000038,
                    "velocity": 0.6929133858267716,
                    "duration": 1.2000000000000455
                },
                {
                    "name": "F#4",
                    "midi": 66,
                    "time": 533.4000000000038,
                    "velocity": 0.6929133858267716,
                    "duration": 1.2000000000000455
                },
                {
                    "name": "A#4",
                    "midi": 70,
                    "time": 533.4000000000038,
                    "velocity": 0.6929133858267716,
                    "duration": 1.2000000000000455
                },
                {
                    "name": "C#4",
                    "midi": 61,
                    "time": 535.2000000000039,
                    "velocity": 0.6929133858267716,
                    "duration": 1.2000000000000455
                },
                {
                    "name": "F4",
                    "midi": 65,
                    "time": 535.2000000000039,
                    "velocity": 0.6929133858267716,
                    "duration": 1.2000000000000455
                },
                {
                    "name": "F#4",
                    "midi": 66,
                    "time": 535.2000000000039,
                    "velocity": 0.6929133858267716,
                    "duration": 1.2000000000000455
                },
                {
                    "name": "A#4",
                    "midi": 70,
                    "time": 535.2000000000039,
                    "velocity": 0.6929133858267716,
                    "duration": 1.2000000000000455
                },
                {
                    "name": "C#4",
                    "midi": 61,
                    "time": 536.400000000004,
                    "velocity": 0.6929133858267716,
                    "duration": 1.2000000000000455
                },
                {
                    "name": "F4",
                    "midi": 65,
                    "time": 536.400000000004,
                    "velocity": 0.6929133858267716,
                    "duration": 1.2000000000000455
                },
                {
                    "name": "F#4",
                    "midi": 66,
                    "time": 536.400000000004,
                    "velocity": 0.6929133858267716,
                    "duration": 1.2000000000000455
                },
                {
                    "name": "A#4",
                    "midi": 70,
                    "time": 536.400000000004,
                    "velocity": 0.6929133858267716,
                    "duration": 1.2000000000000455
                },
                {
                    "name": "D#4",
                    "midi": 63,
                    "time": 537.600000000004,
                    "velocity": 0.6929133858267716,
                    "duration": 0.6000000000000227
                },
                {
                    "name": "F#4",
                    "midi": 66,
                    "time": 537.600000000004,
                    "velocity": 0.6929133858267716,
                    "duration": 0.6000000000000227
                },
                {
                    "name": "G#4",
                    "midi": 68,
                    "time": 537.600000000004,
                    "velocity": 0.6929133858267716,
                    "duration": 0.6000000000000227
                },
                {
                    "name": "C5",
                    "midi": 72,
                    "time": 537.600000000004,
                    "velocity": 0.6929133858267716,
                    "duration": 0.6000000000000227
                },
                {
                    "name": "F4",
                    "midi": 65,
                    "time": 538.200000000004,
                    "velocity": 0.6929133858267716,
                    "duration": 0.6000000000000227
                },
                {
                    "name": "G#4",
                    "midi": 68,
                    "time": 538.200000000004,
                    "velocity": 0.6929133858267716,
                    "duration": 0.6000000000000227
                },
                {
                    "name": "C#5",
                    "midi": 73,
                    "time": 538.200000000004,
                    "velocity": 0.6929133858267716,
                    "duration": 0.6000000000000227
                },
                {
                    "name": "F#4",
                    "midi": 66,
                    "time": 538.800000000004,
                    "velocity": 0.6929133858267716,
                    "duration": 1.2000000000000455
                },
                {
                    "name": "A#4",
                    "midi": 70,
                    "time": 538.800000000004,
                    "velocity": 0.6929133858267716,
                    "duration": 1.2000000000000455
                },
                {
                    "name": "C5",
                    "midi": 72,
                    "time": 538.800000000004,
                    "velocity": 0.6929133858267716,
                    "duration": 1.2000000000000455
                },
                {
                    "name": "D#5",
                    "midi": 75,
                    "time": 538.800000000004,
                    "velocity": 0.6929133858267716,
                    "duration": 1.2000000000000455
                },
                {
                    "name": "C#4",
                    "midi": 61,
                    "time": 540.0000000000041,
                    "velocity": 0.3858267716535433,
                    "duration": 0.11749999999994998
                },
                {
                    "name": "A#3",
                    "midi": 58,
                    "time": 540.600000000004,
                    "velocity": 0.3858267716535433,
                    "duration": 0.11749999999994998
                },
                {
                    "name": "D#4",
                    "midi": 63,
                    "time": 541.2000000000039,
                    "velocity": 0.3858267716535433,
                    "duration": 0.11749999999994998
                },
                {
                    "name": "A#3",
                    "midi": 58,
                    "time": 541.8000000000038,
                    "velocity": 0.3858267716535433,
                    "duration": 0.11749999999994998
                },
                {
                    "name": "C#4",
                    "midi": 61,
                    "time": 542.4000000000037,
                    "velocity": 0.3858267716535433,
                    "duration": 0.11749999999994998
                },
                {
                    "name": "A#3",
                    "midi": 58,
                    "time": 543.0000000000036,
                    "velocity": 0.3858267716535433,
                    "duration": 0.11749999999994998
                },
                {
                    "name": "D#4",
                    "midi": 63,
                    "time": 543.6000000000035,
                    "velocity": 0.3858267716535433,
                    "duration": 0.11749999999994998
                },
                {
                    "name": "A#3",
                    "midi": 58,
                    "time": 544.2000000000035,
                    "velocity": 0.3858267716535433,
                    "duration": 0.11749999999994998
                },
                {
                    "name": "C#4",
                    "midi": 61,
                    "time": 544.8000000000034,
                    "velocity": 0.3858267716535433,
                    "duration": 0.11749999999994998
                },
                {
                    "name": "A#3",
                    "midi": 58,
                    "time": 545.4000000000033,
                    "velocity": 0.3858267716535433,
                    "duration": 0.11749999999994998
                },
                {
                    "name": "D#4",
                    "midi": 63,
                    "time": 546.0000000000032,
                    "velocity": 0.4881889763779528,
                    "duration": 0.11749999999994998
                },
                {
                    "name": "A#3",
                    "midi": 58,
                    "time": 546.6000000000031,
                    "velocity": 0.4881889763779528,
                    "duration": 0.11749999999994998
                },
                {
                    "name": "C#4",
                    "midi": 61,
                    "time": 547.200000000003,
                    "velocity": 0.5905511811023622,
                    "duration": 0.11749999999994998
                },
                {
                    "name": "A#3",
                    "midi": 58,
                    "time": 547.8000000000029,
                    "velocity": 0.5905511811023622,
                    "duration": 0.11749999999994998
                },
                {
                    "name": "D#4",
                    "midi": 63,
                    "time": 548.4000000000028,
                    "velocity": 0.6929133858267716,
                    "duration": 0.11749999999994998
                },
                {
                    "name": "A#3",
                    "midi": 58,
                    "time": 549.0000000000027,
                    "velocity": 0.6929133858267716,
                    "duration": 0.11749999999994998
                },
                {
                    "name": "C#4",
                    "midi": 61,
                    "time": 549.6000000000026,
                    "velocity": 0.3858267716535433,
                    "duration": 0.11749999999994998
                },
                {
                    "name": "A#3",
                    "midi": 58,
                    "time": 550.2000000000025,
                    "velocity": 0.3858267716535433,
                    "duration": 0.11749999999994998
                },
                {
                    "name": "D#4",
                    "midi": 63,
                    "time": 550.8000000000025,
                    "velocity": 0.3858267716535433,
                    "duration": 0.11749999999994998
                },
                {
                    "name": "A#3",
                    "midi": 58,
                    "time": 551.4000000000024,
                    "velocity": 0.3858267716535433,
                    "duration": 0.11749999999994998
                },
                {
                    "name": "C#4",
                    "midi": 61,
                    "time": 552.0000000000023,
                    "velocity": 0.4881889763779528,
                    "duration": 0.11749999999994998
                },
                {
                    "name": "A#3",
                    "midi": 58,
                    "time": 552.6000000000022,
                    "velocity": 0.4881889763779528,
                    "duration": 0.11749999999994998
                },
                {
                    "name": "D#4",
                    "midi": 63,
                    "time": 553.2000000000021,
                    "velocity": 0.4881889763779528,
                    "duration": 0.11749999999994998
                },
                {
                    "name": "A#3",
                    "midi": 58,
                    "time": 553.800000000002,
                    "velocity": 0.4881889763779528,
                    "duration": 0.11749999999994998
                },
                {
                    "name": "C#4",
                    "midi": 61,
                    "time": 554.4000000000019,
                    "velocity": 0.5905511811023622,
                    "duration": 0.11749999999994998
                },
                {
                    "name": "A#3",
                    "midi": 58,
                    "time": 555.0000000000018,
                    "velocity": 0.5905511811023622,
                    "duration": 0.11749999999994998
                },
                {
                    "name": "D#4",
                    "midi": 63,
                    "time": 555.6000000000017,
                    "velocity": 0.5905511811023622,
                    "duration": 0.11749999999994998
                },
                {
                    "name": "A#3",
                    "midi": 58,
                    "time": 556.2000000000016,
                    "velocity": 0.5905511811023622,
                    "duration": 0.11749999999994998
                },
                {
                    "name": "C#4",
                    "midi": 61,
                    "time": 556.8000000000015,
                    "velocity": 0.6929133858267716,
                    "duration": 0.11749999999994998
                },
                {
                    "name": "A#3",
                    "midi": 58,
                    "time": 557.4000000000015,
                    "velocity": 0.6929133858267716,
                    "duration": 0.11749999999994998
                },
                {
                    "name": "D#4",
                    "midi": 63,
                    "time": 558.0000000000014,
                    "velocity": 0.6929133858267716,
                    "duration": 0.11749999999994998
                },
                {
                    "name": "A#3",
                    "midi": 58,
                    "time": 558.6000000000013,
                    "velocity": 0.6929133858267716,
                    "duration": 0.11749999999994998
                },
                {
                    "name": "C3",
                    "midi": 48,
                    "time": 559.5000000000013,
                    "velocity": 0.3858267716535433,
                    "duration": 0.2999999999999545
                },
                {
                    "name": "D3",
                    "midi": 50,
                    "time": 559.5000000000013,
                    "velocity": 0.3858267716535433,
                    "duration": 0.2999999999999545
                },
                {
                    "name": "G#2",
                    "midi": 44,
                    "time": 559.8000000000012,
                    "velocity": 0.5905511811023622,
                    "duration": 0.2999999999999545
                },
                {
                    "name": "C3",
                    "midi": 48,
                    "time": 560.1000000000012,
                    "velocity": 0.3858267716535433,
                    "duration": 0.2999999999999545
                },
                {
                    "name": "D3",
                    "midi": 50,
                    "time": 560.1000000000012,
                    "velocity": 0.3858267716535433,
                    "duration": 0.2999999999999545
                },
                {
                    "name": "C4",
                    "midi": 60,
                    "time": 560.7000000000011,
                    "velocity": 0.3858267716535433,
                    "duration": 0.2999999999999545
                },
                {
                    "name": "D4",
                    "midi": 62,
                    "time": 560.7000000000011,
                    "velocity": 0.3858267716535433,
                    "duration": 0.2999999999999545
                },
                {
                    "name": "G3",
                    "midi": 55,
                    "time": 561.000000000001,
                    "velocity": 0.5905511811023622,
                    "duration": 0.2999999999999545
                },
                {
                    "name": "C4",
                    "midi": 60,
                    "time": 561.300000000001,
                    "velocity": 0.3858267716535433,
                    "duration": 0.2999999999999545
                },
                {
                    "name": "D4",
                    "midi": 62,
                    "time": 561.300000000001,
                    "velocity": 0.3858267716535433,
                    "duration": 0.2999999999999545
                },
                {
                    "name": "C4",
                    "midi": 60,
                    "time": 561.9000000000009,
                    "velocity": 0.3858267716535433,
                    "duration": 0.2999999999999545
                },
                {
                    "name": "D4",
                    "midi": 62,
                    "time": 561.9000000000009,
                    "velocity": 0.3858267716535433,
                    "duration": 0.2999999999999545
                },
                {
                    "name": "F#3",
                    "midi": 54,
                    "time": 562.2000000000008,
                    "velocity": 0.5905511811023622,
                    "duration": 0.2999999999999545
                },
                {
                    "name": "C4",
                    "midi": 60,
                    "time": 562.5000000000008,
                    "velocity": 0.3858267716535433,
                    "duration": 0.2999999999999545
                },
                {
                    "name": "D4",
                    "midi": 62,
                    "time": 562.5000000000008,
                    "velocity": 0.3858267716535433,
                    "duration": 0.2999999999999545
                },
                {
                    "name": "C3",
                    "midi": 48,
                    "time": 563.1000000000007,
                    "velocity": 0.3858267716535433,
                    "duration": 0.2999999999999545
                },
                {
                    "name": "D3",
                    "midi": 50,
                    "time": 563.1000000000007,
                    "velocity": 0.3858267716535433,
                    "duration": 0.2999999999999545
                },
                {
                    "name": "G2",
                    "midi": 43,
                    "time": 563.4000000000007,
                    "velocity": 0.5905511811023622,
                    "duration": 0.2999999999999545
                },
                {
                    "name": "C3",
                    "midi": 48,
                    "time": 563.7000000000006,
                    "velocity": 0.3858267716535433,
                    "duration": 0.2999999999999545
                },
                {
                    "name": "D3",
                    "midi": 50,
                    "time": 563.7000000000006,
                    "velocity": 0.3858267716535433,
                    "duration": 0.2999999999999545
                },
                {
                    "name": "G#3",
                    "midi": 56,
                    "time": 564.6000000000006,
                    "velocity": 0.5905511811023622,
                    "duration": 0.11749999999994998
                },
                {
                    "name": "C4",
                    "midi": 60,
                    "time": 564.6000000000006,
                    "velocity": 0.5905511811023622,
                    "duration": 0.11749999999994998
                },
                {
                    "name": "D4",
                    "midi": 62,
                    "time": 564.6000000000006,
                    "velocity": 0.5905511811023622,
                    "duration": 0.11749999999994998
                },
                {
                    "name": "G3",
                    "midi": 55,
                    "time": 565.8000000000005,
                    "velocity": 0.5905511811023622,
                    "duration": 0.11749999999994998
                },
                {
                    "name": "C4",
                    "midi": 60,
                    "time": 565.8000000000005,
                    "velocity": 0.5905511811023622,
                    "duration": 0.11749999999994998
                },
                {
                    "name": "D4",
                    "midi": 62,
                    "time": 565.8000000000005,
                    "velocity": 0.5905511811023622,
                    "duration": 0.11749999999994998
                },
                {
                    "name": "F#2",
                    "midi": 42,
                    "time": 567.0000000000005,
                    "velocity": 0.5905511811023622,
                    "duration": 0.11749999999994998
                },
                {
                    "name": "C3",
                    "midi": 48,
                    "time": 567.0000000000005,
                    "velocity": 0.5905511811023622,
                    "duration": 0.11749999999994998
                },
                {
                    "name": "D3",
                    "midi": 50,
                    "time": 567.0000000000005,
                    "velocity": 0.5905511811023622,
                    "duration": 0.11749999999994998
                },
                {
                    "name": "G2",
                    "midi": 43,
                    "time": 568.2000000000004,
                    "velocity": 0.5905511811023622,
                    "duration": 0.11749999999994998
                },
                {
                    "name": "C3",
                    "midi": 48,
                    "time": 568.2000000000004,
                    "velocity": 0.5905511811023622,
                    "duration": 0.11749999999994998
                },
                {
                    "name": "D3",
                    "midi": 50,
                    "time": 568.2000000000004,
                    "velocity": 0.5905511811023622,
                    "duration": 0.11749999999994998
                },
                {
                    "name": "C3",
                    "midi": 48,
                    "time": 569.1000000000004,
                    "velocity": 0.3858267716535433,
                    "duration": 0.2999999999999545
                },
                {
                    "name": "D3",
                    "midi": 50,
                    "time": 569.1000000000004,
                    "velocity": 0.3858267716535433,
                    "duration": 0.2999999999999545
                },
                {
                    "name": "G#2",
                    "midi": 44,
                    "time": 569.4000000000003,
                    "velocity": 0.5905511811023622,
                    "duration": 0.2999999999999545
                },
                {
                    "name": "C3",
                    "midi": 48,
                    "time": 569.7000000000003,
                    "velocity": 0.3858267716535433,
                    "duration": 0.2999999999999545
                },
                {
                    "name": "D3",
                    "midi": 50,
                    "time": 569.7000000000003,
                    "velocity": 0.3858267716535433,
                    "duration": 0.2999999999999545
                },
                {
                    "name": "C4",
                    "midi": 60,
                    "time": 570.3000000000002,
                    "velocity": 0.3858267716535433,
                    "duration": 0.2999999999999545
                },
                {
                    "name": "D4",
                    "midi": 62,
                    "time": 570.3000000000002,
                    "velocity": 0.3858267716535433,
                    "duration": 0.2999999999999545
                },
                {
                    "name": "G3",
                    "midi": 55,
                    "time": 570.6000000000001,
                    "velocity": 0.5905511811023622,
                    "duration": 0.2999999999999545
                },
                {
                    "name": "C4",
                    "midi": 60,
                    "time": 570.9000000000001,
                    "velocity": 0.3858267716535433,
                    "duration": 0.2999999999999545
                },
                {
                    "name": "D4",
                    "midi": 62,
                    "time": 570.9000000000001,
                    "velocity": 0.3858267716535433,
                    "duration": 0.2999999999999545
                },
                {
                    "name": "C4",
                    "midi": 60,
                    "time": 571.5,
                    "velocity": 0.3858267716535433,
                    "duration": 0.2999999999999545
                },
                {
                    "name": "D4",
                    "midi": 62,
                    "time": 571.5,
                    "velocity": 0.3858267716535433,
                    "duration": 0.2999999999999545
                },
                {
                    "name": "F#3",
                    "midi": 54,
                    "time": 571.8,
                    "velocity": 0.5905511811023622,
                    "duration": 0.2999999999999545
                },
                {
                    "name": "C4",
                    "midi": 60,
                    "time": 572.0999999999999,
                    "velocity": 0.3858267716535433,
                    "duration": 0.2999999999999545
                },
                {
                    "name": "D4",
                    "midi": 62,
                    "time": 572.0999999999999,
                    "velocity": 0.3858267716535433,
                    "duration": 0.2999999999999545
                },
                {
                    "name": "C3",
                    "midi": 48,
                    "time": 572.6999999999998,
                    "velocity": 0.3858267716535433,
                    "duration": 0.2999999999999545
                },
                {
                    "name": "D3",
                    "midi": 50,
                    "time": 572.6999999999998,
                    "velocity": 0.3858267716535433,
                    "duration": 0.2999999999999545
                },
                {
                    "name": "G2",
                    "midi": 43,
                    "time": 572.9999999999998,
                    "velocity": 0.5905511811023622,
                    "duration": 0.2999999999999545
                },
                {
                    "name": "C3",
                    "midi": 48,
                    "time": 573.2999999999997,
                    "velocity": 0.3858267716535433,
                    "duration": 0.2999999999999545
                },
                {
                    "name": "D3",
                    "midi": 50,
                    "time": 573.2999999999997,
                    "velocity": 0.3858267716535433,
                    "duration": 0.2999999999999545
                },
                {
                    "name": "G#3",
                    "midi": 56,
                    "time": 574.1999999999997,
                    "velocity": 0.5905511811023622,
                    "duration": 0.11749999999994998
                },
                {
                    "name": "C4",
                    "midi": 60,
                    "time": 574.1999999999997,
                    "velocity": 0.5905511811023622,
                    "duration": 0.11749999999994998
                },
                {
                    "name": "D4",
                    "midi": 62,
                    "time": 574.1999999999997,
                    "velocity": 0.5905511811023622,
                    "duration": 0.11749999999994998
                },
                {
                    "name": "G3",
                    "midi": 55,
                    "time": 575.3999999999996,
                    "velocity": 0.5905511811023622,
                    "duration": 0.11749999999994998
                },
                {
                    "name": "C4",
                    "midi": 60,
                    "time": 575.3999999999996,
                    "velocity": 0.5905511811023622,
                    "duration": 0.11749999999994998
                },
                {
                    "name": "D4",
                    "midi": 62,
                    "time": 575.3999999999996,
                    "velocity": 0.5905511811023622,
                    "duration": 0.11749999999994998
                },
                {
                    "name": "C4",
                    "midi": 60,
                    "time": 575.9999999999995,
                    "velocity": 0.5905511811023622,
                    "duration": 0.11749999999994998
                },
                {
                    "name": "D4",
                    "midi": 62,
                    "time": 575.9999999999995,
                    "velocity": 0.5905511811023622,
                    "duration": 0.11749999999994998
                },
                {
                    "name": "F#2",
                    "midi": 42,
                    "time": 576.5999999999995,
                    "velocity": 0.5905511811023622,
                    "duration": 0.11749999999994998
                },
                {
                    "name": "C3",
                    "midi": 48,
                    "time": 576.5999999999995,
                    "velocity": 0.5905511811023622,
                    "duration": 0.11749999999994998
                },
                {
                    "name": "D3",
                    "midi": 50,
                    "time": 576.5999999999995,
                    "velocity": 0.5905511811023622,
                    "duration": 0.11749999999994998
                },
                {
                    "name": "G2",
                    "midi": 43,
                    "time": 577.7999999999994,
                    "velocity": 0.5905511811023622,
                    "duration": 0.11749999999994998
                },
                {
                    "name": "C3",
                    "midi": 48,
                    "time": 577.7999999999994,
                    "velocity": 0.5905511811023622,
                    "duration": 0.11749999999994998
                },
                {
                    "name": "D3",
                    "midi": 50,
                    "time": 577.7999999999994,
                    "velocity": 0.5905511811023622,
                    "duration": 0.11749999999994998
                },
                {
                    "name": "A3",
                    "midi": 57,
                    "time": 578.3999999999993,
                    "velocity": 0.3858267716535433,
                    "duration": 1.2000000000000455
                },
                {
                    "name": "C4",
                    "midi": 60,
                    "time": 578.3999999999993,
                    "velocity": 0.3858267716535433,
                    "duration": 1.2000000000000455
                },
                {
                    "name": "D#4",
                    "midi": 63,
                    "time": 578.3999999999993,
                    "velocity": 0.3858267716535433,
                    "duration": 1.2000000000000455
                },
                {
                    "name": "G4",
                    "midi": 67,
                    "time": 578.3999999999993,
                    "velocity": 0.3858267716535433,
                    "duration": 1.2000000000000455
                },
                {
                    "name": "G3",
                    "midi": 55,
                    "time": 579.5999999999993,
                    "velocity": 0.3858267716535433,
                    "duration": 1.2000000000000455
                },
                {
                    "name": "B3",
                    "midi": 59,
                    "time": 579.5999999999993,
                    "velocity": 0.3858267716535433,
                    "duration": 1.2000000000000455
                },
                {
                    "name": "D4",
                    "midi": 62,
                    "time": 579.5999999999993,
                    "velocity": 0.3858267716535433,
                    "duration": 1.2000000000000455
                },
                {
                    "name": "F4",
                    "midi": 65,
                    "time": 579.5999999999993,
                    "velocity": 0.3858267716535433,
                    "duration": 1.2000000000000455
                },
                {
                    "name": "A3",
                    "midi": 57,
                    "time": 580.7999999999994,
                    "velocity": 0.3858267716535433,
                    "duration": 1.2000000000000455
                },
                {
                    "name": "C4",
                    "midi": 60,
                    "time": 580.7999999999994,
                    "velocity": 0.3858267716535433,
                    "duration": 1.2000000000000455
                },
                {
                    "name": "D#4",
                    "midi": 63,
                    "time": 580.7999999999994,
                    "velocity": 0.3858267716535433,
                    "duration": 1.2000000000000455
                },
                {
                    "name": "G4",
                    "midi": 67,
                    "time": 580.7999999999994,
                    "velocity": 0.3858267716535433,
                    "duration": 1.2000000000000455
                },
                {
                    "name": "G3",
                    "midi": 55,
                    "time": 581.9999999999994,
                    "velocity": 0.3858267716535433,
                    "duration": 1.2000000000000455
                },
                {
                    "name": "B3",
                    "midi": 59,
                    "time": 581.9999999999994,
                    "velocity": 0.3858267716535433,
                    "duration": 1.2000000000000455
                },
                {
                    "name": "D4",
                    "midi": 62,
                    "time": 581.9999999999994,
                    "velocity": 0.3858267716535433,
                    "duration": 1.2000000000000455
                },
                {
                    "name": "F4",
                    "midi": 65,
                    "time": 581.9999999999994,
                    "velocity": 0.3858267716535433,
                    "duration": 1.2000000000000455
                },
                {
                    "name": "A3",
                    "midi": 57,
                    "time": 583.1999999999995,
                    "velocity": 0.3858267716535433,
                    "duration": 1.2000000000000455
                },
                {
                    "name": "C4",
                    "midi": 60,
                    "time": 583.1999999999995,
                    "velocity": 0.3858267716535433,
                    "duration": 1.2000000000000455
                },
                {
                    "name": "D#4",
                    "midi": 63,
                    "time": 583.1999999999995,
                    "velocity": 0.3858267716535433,
                    "duration": 1.2000000000000455
                },
                {
                    "name": "G4",
                    "midi": 67,
                    "time": 583.1999999999995,
                    "velocity": 0.3858267716535433,
                    "duration": 1.2000000000000455
                },
                {
                    "name": "G3",
                    "midi": 55,
                    "time": 584.3999999999995,
                    "velocity": 0.3858267716535433,
                    "duration": 1.2000000000000455
                },
                {
                    "name": "B3",
                    "midi": 59,
                    "time": 584.3999999999995,
                    "velocity": 0.3858267716535433,
                    "duration": 1.2000000000000455
                },
                {
                    "name": "D4",
                    "midi": 62,
                    "time": 584.3999999999995,
                    "velocity": 0.3858267716535433,
                    "duration": 1.2000000000000455
                },
                {
                    "name": "F4",
                    "midi": 65,
                    "time": 584.3999999999995,
                    "velocity": 0.3858267716535433,
                    "duration": 1.2000000000000455
                },
                {
                    "name": "A3",
                    "midi": 57,
                    "time": 585.5999999999996,
                    "velocity": 0.3858267716535433,
                    "duration": 1.2000000000000455
                },
                {
                    "name": "C4",
                    "midi": 60,
                    "time": 585.5999999999996,
                    "velocity": 0.3858267716535433,
                    "duration": 1.2000000000000455
                },
                {
                    "name": "D#4",
                    "midi": 63,
                    "time": 585.5999999999996,
                    "velocity": 0.3858267716535433,
                    "duration": 1.2000000000000455
                },
                {
                    "name": "G4",
                    "midi": 67,
                    "time": 585.5999999999996,
                    "velocity": 0.3858267716535433,
                    "duration": 1.2000000000000455
                },
                {
                    "name": "G3",
                    "midi": 55,
                    "time": 586.7999999999996,
                    "velocity": 0.3858267716535433,
                    "duration": 1.2000000000000455
                },
                {
                    "name": "B3",
                    "midi": 59,
                    "time": 586.7999999999996,
                    "velocity": 0.3858267716535433,
                    "duration": 1.2000000000000455
                },
                {
                    "name": "D4",
                    "midi": 62,
                    "time": 586.7999999999996,
                    "velocity": 0.3858267716535433,
                    "duration": 1.2000000000000455
                },
                {
                    "name": "F4",
                    "midi": 65,
                    "time": 586.7999999999996,
                    "velocity": 0.3858267716535433,
                    "duration": 1.2000000000000455
                },
                {
                    "name": "A3",
                    "midi": 57,
                    "time": 587.9999999999997,
                    "velocity": 0.4881889763779528,
                    "duration": 0.6000000000000227
                },
                {
                    "name": "C4",
                    "midi": 60,
                    "time": 587.9999999999997,
                    "velocity": 0.4881889763779528,
                    "duration": 0.6000000000000227
                },
                {
                    "name": "D#4",
                    "midi": 63,
                    "time": 587.9999999999997,
                    "velocity": 0.4881889763779528,
                    "duration": 0.6000000000000227
                },
                {
                    "name": "G4",
                    "midi": 67,
                    "time": 587.9999999999997,
                    "velocity": 0.4881889763779528,
                    "duration": 0.6000000000000227
                },
                {
                    "name": "F2",
                    "midi": 41,
                    "time": 588.5999999999997,
                    "velocity": 0.6929133858267716,
                    "duration": 0.6000000000000227
                },
                {
                    "name": "F3",
                    "midi": 53,
                    "time": 588.5999999999997,
                    "velocity": 0.6929133858267716,
                    "duration": 0.6000000000000227
                },
                {
                    "name": "G3",
                    "midi": 55,
                    "time": 589.1999999999997,
                    "velocity": 0.4881889763779528,
                    "duration": 0.6000000000000227
                },
                {
                    "name": "B3",
                    "midi": 59,
                    "time": 589.1999999999997,
                    "velocity": 0.4881889763779528,
                    "duration": 0.6000000000000227
                },
                {
                    "name": "D4",
                    "midi": 62,
                    "time": 589.1999999999997,
                    "velocity": 0.4881889763779528,
                    "duration": 0.6000000000000227
                },
                {
                    "name": "F4",
                    "midi": 65,
                    "time": 589.1999999999997,
                    "velocity": 0.4881889763779528,
                    "duration": 0.6000000000000227
                },
                {
                    "name": "D#2",
                    "midi": 39,
                    "time": 589.7999999999997,
                    "velocity": 0.6929133858267716,
                    "duration": 0.6000000000000227
                },
                {
                    "name": "D#3",
                    "midi": 51,
                    "time": 589.7999999999997,
                    "velocity": 0.6929133858267716,
                    "duration": 0.6000000000000227
                },
                {
                    "name": "A3",
                    "midi": 57,
                    "time": 590.3999999999997,
                    "velocity": 0.4881889763779528,
                    "duration": 0.6000000000000227
                },
                {
                    "name": "C4",
                    "midi": 60,
                    "time": 590.3999999999997,
                    "velocity": 0.4881889763779528,
                    "duration": 0.6000000000000227
                },
                {
                    "name": "D#4",
                    "midi": 63,
                    "time": 590.3999999999997,
                    "velocity": 0.4881889763779528,
                    "duration": 0.6000000000000227
                },
                {
                    "name": "G4",
                    "midi": 67,
                    "time": 590.3999999999997,
                    "velocity": 0.4881889763779528,
                    "duration": 0.6000000000000227
                },
                {
                    "name": "F2",
                    "midi": 41,
                    "time": 590.9999999999998,
                    "velocity": 0.6929133858267716,
                    "duration": 0.6000000000000227
                },
                {
                    "name": "F3",
                    "midi": 53,
                    "time": 590.9999999999998,
                    "velocity": 0.6929133858267716,
                    "duration": 0.6000000000000227
                },
                {
                    "name": "G3",
                    "midi": 55,
                    "time": 591.5999999999998,
                    "velocity": 0.4881889763779528,
                    "duration": 0.6000000000000227
                },
                {
                    "name": "B3",
                    "midi": 59,
                    "time": 591.5999999999998,
                    "velocity": 0.4881889763779528,
                    "duration": 0.6000000000000227
                },
                {
                    "name": "D4",
                    "midi": 62,
                    "time": 591.5999999999998,
                    "velocity": 0.4881889763779528,
                    "duration": 0.6000000000000227
                },
                {
                    "name": "F4",
                    "midi": 65,
                    "time": 591.5999999999998,
                    "velocity": 0.4881889763779528,
                    "duration": 0.6000000000000227
                },
                {
                    "name": "G2",
                    "midi": 43,
                    "time": 592.1999999999998,
                    "velocity": 0.6929133858267716,
                    "duration": 0.6000000000000227
                },
                {
                    "name": "G3",
                    "midi": 55,
                    "time": 592.1999999999998,
                    "velocity": 0.6929133858267716,
                    "duration": 0.6000000000000227
                },
                {
                    "name": "A3",
                    "midi": 57,
                    "time": 592.7999999999998,
                    "velocity": 0.4881889763779528,
                    "duration": 0.6000000000000227
                },
                {
                    "name": "C4",
                    "midi": 60,
                    "time": 592.7999999999998,
                    "velocity": 0.4881889763779528,
                    "duration": 0.6000000000000227
                },
                {
                    "name": "D#4",
                    "midi": 63,
                    "time": 592.7999999999998,
                    "velocity": 0.4881889763779528,
                    "duration": 0.6000000000000227
                },
                {
                    "name": "G4",
                    "midi": 67,
                    "time": 592.7999999999998,
                    "velocity": 0.4881889763779528,
                    "duration": 0.6000000000000227
                },
                {
                    "name": "F2",
                    "midi": 41,
                    "time": 593.3999999999999,
                    "velocity": 0.6929133858267716,
                    "duration": 0.6000000000000227
                },
                {
                    "name": "F3",
                    "midi": 53,
                    "time": 593.3999999999999,
                    "velocity": 0.6929133858267716,
                    "duration": 0.6000000000000227
                },
                {
                    "name": "G3",
                    "midi": 55,
                    "time": 593.9999999999999,
                    "velocity": 0.4881889763779528,
                    "duration": 0.6000000000000227
                },
                {
                    "name": "B3",
                    "midi": 59,
                    "time": 593.9999999999999,
                    "velocity": 0.4881889763779528,
                    "duration": 0.6000000000000227
                },
                {
                    "name": "D4",
                    "midi": 62,
                    "time": 593.9999999999999,
                    "velocity": 0.4881889763779528,
                    "duration": 0.6000000000000227
                },
                {
                    "name": "F4",
                    "midi": 65,
                    "time": 593.9999999999999,
                    "velocity": 0.4881889763779528,
                    "duration": 0.6000000000000227
                },
                {
                    "name": "D#2",
                    "midi": 39,
                    "time": 594.5999999999999,
                    "velocity": 0.6929133858267716,
                    "duration": 0.6000000000000227
                },
                {
                    "name": "D#3",
                    "midi": 51,
                    "time": 594.5999999999999,
                    "velocity": 0.6929133858267716,
                    "duration": 0.6000000000000227
                },
                {
                    "name": "A3",
                    "midi": 57,
                    "time": 595.1999999999999,
                    "velocity": 0.4881889763779528,
                    "duration": 0.6000000000000227
                },
                {
                    "name": "C4",
                    "midi": 60,
                    "time": 595.1999999999999,
                    "velocity": 0.4881889763779528,
                    "duration": 0.6000000000000227
                },
                {
                    "name": "D#4",
                    "midi": 63,
                    "time": 595.1999999999999,
                    "velocity": 0.4881889763779528,
                    "duration": 0.6000000000000227
                },
                {
                    "name": "G4",
                    "midi": 67,
                    "time": 595.1999999999999,
                    "velocity": 0.4881889763779528,
                    "duration": 0.6000000000000227
                },
                {
                    "name": "F2",
                    "midi": 41,
                    "time": 595.8,
                    "velocity": 0.6929133858267716,
                    "duration": 0.6000000000000227
                },
                {
                    "name": "F3",
                    "midi": 53,
                    "time": 595.8,
                    "velocity": 0.6929133858267716,
                    "duration": 0.6000000000000227
                },
                {
                    "name": "G3",
                    "midi": 55,
                    "time": 596.4,
                    "velocity": 0.4881889763779528,
                    "duration": 0.6000000000000227
                },
                {
                    "name": "B3",
                    "midi": 59,
                    "time": 596.4,
                    "velocity": 0.4881889763779528,
                    "duration": 0.6000000000000227
                },
                {
                    "name": "D4",
                    "midi": 62,
                    "time": 596.4,
                    "velocity": 0.4881889763779528,
                    "duration": 0.6000000000000227
                },
                {
                    "name": "F4",
                    "midi": 65,
                    "time": 596.4,
                    "velocity": 0.4881889763779528,
                    "duration": 0.6000000000000227
                },
                {
                    "name": "G2",
                    "midi": 43,
                    "time": 597,
                    "velocity": 0.6929133858267716,
                    "duration": 0.6000000000000227
                },
                {
                    "name": "G3",
                    "midi": 55,
                    "time": 597,
                    "velocity": 0.6929133858267716,
                    "duration": 0.6000000000000227
                },
                {
                    "name": "A3",
                    "midi": 57,
                    "time": 597.6,
                    "velocity": 0.5905511811023622,
                    "duration": 0.6000000000000227
                },
                {
                    "name": "C4",
                    "midi": 60,
                    "time": 597.6,
                    "velocity": 0.5905511811023622,
                    "duration": 0.6000000000000227
                },
                {
                    "name": "D#4",
                    "midi": 63,
                    "time": 597.6,
                    "velocity": 0.5905511811023622,
                    "duration": 0.6000000000000227
                },
                {
                    "name": "G4",
                    "midi": 67,
                    "time": 597.6,
                    "velocity": 0.5905511811023622,
                    "duration": 0.6000000000000227
                },
                {
                    "name": "F2",
                    "midi": 41,
                    "time": 598.2,
                    "velocity": 0.7952755905511811,
                    "duration": 0.6000000000000227
                },
                {
                    "name": "F3",
                    "midi": 53,
                    "time": 598.2,
                    "velocity": 0.7952755905511811,
                    "duration": 0.6000000000000227
                },
                {
                    "name": "G3",
                    "midi": 55,
                    "time": 598.8000000000001,
                    "velocity": 0.5905511811023622,
                    "duration": 0.6000000000000227
                },
                {
                    "name": "B3",
                    "midi": 59,
                    "time": 598.8000000000001,
                    "velocity": 0.5905511811023622,
                    "duration": 0.6000000000000227
                },
                {
                    "name": "D4",
                    "midi": 62,
                    "time": 598.8000000000001,
                    "velocity": 0.5905511811023622,
                    "duration": 0.6000000000000227
                },
                {
                    "name": "F4",
                    "midi": 65,
                    "time": 598.8000000000001,
                    "velocity": 0.5905511811023622,
                    "duration": 0.6000000000000227
                },
                {
                    "name": "D#2",
                    "midi": 39,
                    "time": 599.4000000000001,
                    "velocity": 0.7952755905511811,
                    "duration": 0.6000000000000227
                },
                {
                    "name": "D#3",
                    "midi": 51,
                    "time": 599.4000000000001,
                    "velocity": 0.7952755905511811,
                    "duration": 0.6000000000000227
                },
                {
                    "name": "A3",
                    "midi": 57,
                    "time": 600.0000000000001,
                    "velocity": 0.5905511811023622,
                    "duration": 0.6000000000000227
                },
                {
                    "name": "C4",
                    "midi": 60,
                    "time": 600.0000000000001,
                    "velocity": 0.5905511811023622,
                    "duration": 0.6000000000000227
                },
                {
                    "name": "D#4",
                    "midi": 63,
                    "time": 600.0000000000001,
                    "velocity": 0.5905511811023622,
                    "duration": 0.6000000000000227
                },
                {
                    "name": "G4",
                    "midi": 67,
                    "time": 600.0000000000001,
                    "velocity": 0.5905511811023622,
                    "duration": 0.6000000000000227
                },
                {
                    "name": "F2",
                    "midi": 41,
                    "time": 600.6000000000001,
                    "velocity": 0.7952755905511811,
                    "duration": 0.6000000000000227
                },
                {
                    "name": "F3",
                    "midi": 53,
                    "time": 600.6000000000001,
                    "velocity": 0.7952755905511811,
                    "duration": 0.6000000000000227
                },
                {
                    "name": "G3",
                    "midi": 55,
                    "time": 601.2000000000002,
                    "velocity": 0.5905511811023622,
                    "duration": 0.6000000000000227
                },
                {
                    "name": "B3",
                    "midi": 59,
                    "time": 601.2000000000002,
                    "velocity": 0.5905511811023622,
                    "duration": 0.6000000000000227
                },
                {
                    "name": "D4",
                    "midi": 62,
                    "time": 601.2000000000002,
                    "velocity": 0.5905511811023622,
                    "duration": 0.6000000000000227
                },
                {
                    "name": "F4",
                    "midi": 65,
                    "time": 601.2000000000002,
                    "velocity": 0.5905511811023622,
                    "duration": 0.6000000000000227
                },
                {
                    "name": "G2",
                    "midi": 43,
                    "time": 601.8000000000002,
                    "velocity": 0.7952755905511811,
                    "duration": 0.6000000000000227
                },
                {
                    "name": "G3",
                    "midi": 55,
                    "time": 601.8000000000002,
                    "velocity": 0.7952755905511811,
                    "duration": 0.6000000000000227
                },
                {
                    "name": "A3",
                    "midi": 57,
                    "time": 602.4000000000002,
                    "velocity": 0.5905511811023622,
                    "duration": 0.6000000000000227
                },
                {
                    "name": "C4",
                    "midi": 60,
                    "time": 602.4000000000002,
                    "velocity": 0.5905511811023622,
                    "duration": 0.6000000000000227
                },
                {
                    "name": "D#4",
                    "midi": 63,
                    "time": 602.4000000000002,
                    "velocity": 0.5905511811023622,
                    "duration": 0.6000000000000227
                },
                {
                    "name": "G4",
                    "midi": 67,
                    "time": 602.4000000000002,
                    "velocity": 0.5905511811023622,
                    "duration": 0.6000000000000227
                },
                {
                    "name": "F2",
                    "midi": 41,
                    "time": 603.0000000000002,
                    "velocity": 0.7952755905511811,
                    "duration": 0.6000000000000227
                },
                {
                    "name": "F3",
                    "midi": 53,
                    "time": 603.0000000000002,
                    "velocity": 0.7952755905511811,
                    "duration": 0.6000000000000227
                },
                {
                    "name": "G3",
                    "midi": 55,
                    "time": 603.6000000000003,
                    "velocity": 0.5905511811023622,
                    "duration": 0.6000000000000227
                },
                {
                    "name": "B3",
                    "midi": 59,
                    "time": 603.6000000000003,
                    "velocity": 0.5905511811023622,
                    "duration": 0.6000000000000227
                },
                {
                    "name": "D4",
                    "midi": 62,
                    "time": 603.6000000000003,
                    "velocity": 0.5905511811023622,
                    "duration": 0.6000000000000227
                },
                {
                    "name": "F4",
                    "midi": 65,
                    "time": 603.6000000000003,
                    "velocity": 0.5905511811023622,
                    "duration": 0.6000000000000227
                },
                {
                    "name": "D#2",
                    "midi": 39,
                    "time": 604.2000000000003,
                    "velocity": 0.7952755905511811,
                    "duration": 0.6000000000000227
                },
                {
                    "name": "D#3",
                    "midi": 51,
                    "time": 604.2000000000003,
                    "velocity": 0.7952755905511811,
                    "duration": 0.6000000000000227
                },
                {
                    "name": "A3",
                    "midi": 57,
                    "time": 604.8000000000003,
                    "velocity": 0.5905511811023622,
                    "duration": 0.6000000000000227
                },
                {
                    "name": "C4",
                    "midi": 60,
                    "time": 604.8000000000003,
                    "velocity": 0.5905511811023622,
                    "duration": 0.6000000000000227
                },
                {
                    "name": "D#4",
                    "midi": 63,
                    "time": 604.8000000000003,
                    "velocity": 0.5905511811023622,
                    "duration": 0.6000000000000227
                },
                {
                    "name": "G4",
                    "midi": 67,
                    "time": 604.8000000000003,
                    "velocity": 0.5905511811023622,
                    "duration": 0.6000000000000227
                },
                {
                    "name": "F2",
                    "midi": 41,
                    "time": 605.4000000000003,
                    "velocity": 0.7952755905511811,
                    "duration": 0.6000000000000227
                },
                {
                    "name": "F3",
                    "midi": 53,
                    "time": 605.4000000000003,
                    "velocity": 0.7952755905511811,
                    "duration": 0.6000000000000227
                },
                {
                    "name": "G3",
                    "midi": 55,
                    "time": 606.0000000000003,
                    "velocity": 0.5905511811023622,
                    "duration": 0.6000000000000227
                },
                {
                    "name": "B3",
                    "midi": 59,
                    "time": 606.0000000000003,
                    "velocity": 0.5905511811023622,
                    "duration": 0.6000000000000227
                },
                {
                    "name": "D4",
                    "midi": 62,
                    "time": 606.0000000000003,
                    "velocity": 0.5905511811023622,
                    "duration": 0.6000000000000227
                },
                {
                    "name": "F4",
                    "midi": 65,
                    "time": 606.0000000000003,
                    "velocity": 0.5905511811023622,
                    "duration": 0.6000000000000227
                },
                {
                    "name": "G2",
                    "midi": 43,
                    "time": 606.6000000000004,
                    "velocity": 0.7952755905511811,
                    "duration": 0.6000000000000227
                },
                {
                    "name": "G3",
                    "midi": 55,
                    "time": 606.6000000000004,
                    "velocity": 0.7952755905511811,
                    "duration": 0.6000000000000227
                },
                {
                    "name": "A3",
                    "midi": 57,
                    "time": 607.2000000000004,
                    "velocity": 0.6929133858267716,
                    "duration": 0.6000000000000227
                },
                {
                    "name": "C4",
                    "midi": 60,
                    "time": 607.2000000000004,
                    "velocity": 0.6929133858267716,
                    "duration": 0.6000000000000227
                },
                {
                    "name": "D#4",
                    "midi": 63,
                    "time": 607.2000000000004,
                    "velocity": 0.6929133858267716,
                    "duration": 0.6000000000000227
                },
                {
                    "name": "G4",
                    "midi": 67,
                    "time": 607.2000000000004,
                    "velocity": 0.6929133858267716,
                    "duration": 0.6000000000000227
                },
                {
                    "name": "F2",
                    "midi": 41,
                    "time": 607.8000000000004,
                    "velocity": 0.8976377952755905,
                    "duration": 0.6000000000000227
                },
                {
                    "name": "F3",
                    "midi": 53,
                    "time": 607.8000000000004,
                    "velocity": 0.8976377952755905,
                    "duration": 0.6000000000000227
                },
                {
                    "name": "G3",
                    "midi": 55,
                    "time": 608.4000000000004,
                    "velocity": 0.6929133858267716,
                    "duration": 0.6000000000000227
                },
                {
                    "name": "B3",
                    "midi": 59,
                    "time": 608.4000000000004,
                    "velocity": 0.6929133858267716,
                    "duration": 0.6000000000000227
                },
                {
                    "name": "D4",
                    "midi": 62,
                    "time": 608.4000000000004,
                    "velocity": 0.6929133858267716,
                    "duration": 0.6000000000000227
                },
                {
                    "name": "F4",
                    "midi": 65,
                    "time": 608.4000000000004,
                    "velocity": 0.6929133858267716,
                    "duration": 0.6000000000000227
                },
                {
                    "name": "D#2",
                    "midi": 39,
                    "time": 609.0000000000005,
                    "velocity": 0.8976377952755905,
                    "duration": 0.6000000000000227
                },
                {
                    "name": "D#3",
                    "midi": 51,
                    "time": 609.0000000000005,
                    "velocity": 0.8976377952755905,
                    "duration": 0.6000000000000227
                },
                {
                    "name": "A3",
                    "midi": 57,
                    "time": 609.6000000000005,
                    "velocity": 0.6929133858267716,
                    "duration": 0.6000000000000227
                },
                {
                    "name": "C4",
                    "midi": 60,
                    "time": 609.6000000000005,
                    "velocity": 0.6929133858267716,
                    "duration": 0.6000000000000227
                },
                {
                    "name": "D#4",
                    "midi": 63,
                    "time": 609.6000000000005,
                    "velocity": 0.6929133858267716,
                    "duration": 0.6000000000000227
                },
                {
                    "name": "G4",
                    "midi": 67,
                    "time": 609.6000000000005,
                    "velocity": 0.6929133858267716,
                    "duration": 0.6000000000000227
                },
                {
                    "name": "F2",
                    "midi": 41,
                    "time": 610.2000000000005,
                    "velocity": 0.8976377952755905,
                    "duration": 0.6000000000000227
                },
                {
                    "name": "F3",
                    "midi": 53,
                    "time": 610.2000000000005,
                    "velocity": 0.8976377952755905,
                    "duration": 0.6000000000000227
                },
                {
                    "name": "G3",
                    "midi": 55,
                    "time": 610.8000000000005,
                    "velocity": 0.6929133858267716,
                    "duration": 0.6000000000000227
                },
                {
                    "name": "B3",
                    "midi": 59,
                    "time": 610.8000000000005,
                    "velocity": 0.6929133858267716,
                    "duration": 0.6000000000000227
                },
                {
                    "name": "D4",
                    "midi": 62,
                    "time": 610.8000000000005,
                    "velocity": 0.6929133858267716,
                    "duration": 0.6000000000000227
                },
                {
                    "name": "F4",
                    "midi": 65,
                    "time": 610.8000000000005,
                    "velocity": 0.6929133858267716,
                    "duration": 0.6000000000000227
                },
                {
                    "name": "G2",
                    "midi": 43,
                    "time": 611.4000000000005,
                    "velocity": 0.8976377952755905,
                    "duration": 0.6000000000000227
                },
                {
                    "name": "G3",
                    "midi": 55,
                    "time": 611.4000000000005,
                    "velocity": 0.8976377952755905,
                    "duration": 0.6000000000000227
                },
                {
                    "name": "A3",
                    "midi": 57,
                    "time": 612.0000000000006,
                    "velocity": 0.6929133858267716,
                    "duration": 0.6000000000000227
                },
                {
                    "name": "C4",
                    "midi": 60,
                    "time": 612.0000000000006,
                    "velocity": 0.6929133858267716,
                    "duration": 0.6000000000000227
                },
                {
                    "name": "D#4",
                    "midi": 63,
                    "time": 612.0000000000006,
                    "velocity": 0.6929133858267716,
                    "duration": 0.6000000000000227
                },
                {
                    "name": "G4",
                    "midi": 67,
                    "time": 612.0000000000006,
                    "velocity": 0.6929133858267716,
                    "duration": 0.6000000000000227
                },
                {
                    "name": "F2",
                    "midi": 41,
                    "time": 612.6000000000006,
                    "velocity": 0.8976377952755905,
                    "duration": 0.6000000000000227
                },
                {
                    "name": "F3",
                    "midi": 53,
                    "time": 612.6000000000006,
                    "velocity": 0.8976377952755905,
                    "duration": 0.6000000000000227
                },
                {
                    "name": "G3",
                    "midi": 55,
                    "time": 613.2000000000006,
                    "velocity": 0.6929133858267716,
                    "duration": 0.6000000000000227
                },
                {
                    "name": "B3",
                    "midi": 59,
                    "time": 613.2000000000006,
                    "velocity": 0.6929133858267716,
                    "duration": 0.6000000000000227
                },
                {
                    "name": "D4",
                    "midi": 62,
                    "time": 613.2000000000006,
                    "velocity": 0.6929133858267716,
                    "duration": 0.6000000000000227
                },
                {
                    "name": "F4",
                    "midi": 65,
                    "time": 613.2000000000006,
                    "velocity": 0.6929133858267716,
                    "duration": 0.6000000000000227
                },
                {
                    "name": "D#2",
                    "midi": 39,
                    "time": 613.8000000000006,
                    "velocity": 0.8976377952755905,
                    "duration": 0.6000000000000227
                },
                {
                    "name": "D#3",
                    "midi": 51,
                    "time": 613.8000000000006,
                    "velocity": 0.8976377952755905,
                    "duration": 0.6000000000000227
                },
                {
                    "name": "A3",
                    "midi": 57,
                    "time": 614.4000000000007,
                    "velocity": 0.6929133858267716,
                    "duration": 0.6000000000000227
                },
                {
                    "name": "C4",
                    "midi": 60,
                    "time": 614.4000000000007,
                    "velocity": 0.6929133858267716,
                    "duration": 0.6000000000000227
                },
                {
                    "name": "D#4",
                    "midi": 63,
                    "time": 614.4000000000007,
                    "velocity": 0.6929133858267716,
                    "duration": 0.6000000000000227
                },
                {
                    "name": "G4",
                    "midi": 67,
                    "time": 614.4000000000007,
                    "velocity": 0.6929133858267716,
                    "duration": 0.6000000000000227
                },
                {
                    "name": "F1",
                    "midi": 29,
                    "time": 615.0000000000007,
                    "velocity": 0.8976377952755905,
                    "duration": 0.6000000000000227
                },
                {
                    "name": "F2",
                    "midi": 41,
                    "time": 615.0000000000007,
                    "velocity": 0.8976377952755905,
                    "duration": 0.6000000000000227
                },
                {
                    "name": "A3",
                    "midi": 57,
                    "time": 615.6000000000007,
                    "velocity": 0.6929133858267716,
                    "duration": 0.6000000000000227
                },
                {
                    "name": "C4",
                    "midi": 60,
                    "time": 615.6000000000007,
                    "velocity": 0.6929133858267716,
                    "duration": 0.6000000000000227
                },
                {
                    "name": "D#4",
                    "midi": 63,
                    "time": 615.6000000000007,
                    "velocity": 0.6929133858267716,
                    "duration": 0.6000000000000227
                },
                {
                    "name": "G4",
                    "midi": 67,
                    "time": 615.6000000000007,
                    "velocity": 0.6929133858267716,
                    "duration": 0.6000000000000227
                },
                {
                    "name": "G1",
                    "midi": 31,
                    "time": 616.2000000000007,
                    "velocity": 0.8976377952755905,
                    "duration": 0.6000000000000227
                },
                {
                    "name": "G2",
                    "midi": 43,
                    "time": 616.2000000000007,
                    "velocity": 0.8976377952755905,
                    "duration": 0.6000000000000227
                },
                {
                    "name": "A3",
                    "midi": 57,
                    "time": 616.8000000000008,
                    "velocity": 0.6929133858267716,
                    "duration": 0.8999999999999773
                },
                {
                    "name": "C4",
                    "midi": 60,
                    "time": 616.8000000000008,
                    "velocity": 0.6929133858267716,
                    "duration": 0.8999999999999773
                },
                {
                    "name": "D#4",
                    "midi": 63,
                    "time": 616.8000000000008,
                    "velocity": 0.6929133858267716,
                    "duration": 0.8999999999999773
                },
                {
                    "name": "G4",
                    "midi": 67,
                    "time": 616.8000000000008,
                    "velocity": 0.6929133858267716,
                    "duration": 0.8999999999999773
                },
                {
                    "name": "A3",
                    "midi": 57,
                    "time": 617.7000000000007,
                    "velocity": 0.6929133858267716,
                    "duration": 0.2999999999999545
                },
                {
                    "name": "C4",
                    "midi": 60,
                    "time": 617.7000000000007,
                    "velocity": 0.6929133858267716,
                    "duration": 0.2999999999999545
                },
                {
                    "name": "D#4",
                    "midi": 63,
                    "time": 617.7000000000007,
                    "velocity": 0.6929133858267716,
                    "duration": 0.2999999999999545
                },
                {
                    "name": "G4",
                    "midi": 67,
                    "time": 617.7000000000007,
                    "velocity": 0.6929133858267716,
                    "duration": 0.2999999999999545
                },
                {
                    "name": "B3",
                    "midi": 59,
                    "time": 618.0000000000007,
                    "velocity": 0.6929133858267716,
                    "duration": 0.8999999999999773
                },
                {
                    "name": "D4",
                    "midi": 62,
                    "time": 618.0000000000007,
                    "velocity": 0.6929133858267716,
                    "duration": 0.8999999999999773
                },
                {
                    "name": "F4",
                    "midi": 65,
                    "time": 618.0000000000007,
                    "velocity": 0.6929133858267716,
                    "duration": 0.8999999999999773
                },
                {
                    "name": "A4",
                    "midi": 69,
                    "time": 618.0000000000007,
                    "velocity": 0.6929133858267716,
                    "duration": 0.8999999999999773
                },
                {
                    "name": "B3",
                    "midi": 59,
                    "time": 618.9000000000007,
                    "velocity": 0.6929133858267716,
                    "duration": 0.2999999999999545
                },
                {
                    "name": "D4",
                    "midi": 62,
                    "time": 618.9000000000007,
                    "velocity": 0.6929133858267716,
                    "duration": 0.2999999999999545
                },
                {
                    "name": "F4",
                    "midi": 65,
                    "time": 618.9000000000007,
                    "velocity": 0.6929133858267716,
                    "duration": 0.2999999999999545
                },
                {
                    "name": "A4",
                    "midi": 69,
                    "time": 618.9000000000007,
                    "velocity": 0.6929133858267716,
                    "duration": 0.2999999999999545
                },
                {
                    "name": "C4",
                    "midi": 60,
                    "time": 619.2000000000006,
                    "velocity": 0.6929133858267716,
                    "duration": 0.8999999999999773
                },
                {
                    "name": "D#4",
                    "midi": 63,
                    "time": 619.2000000000006,
                    "velocity": 0.6929133858267716,
                    "duration": 0.8999999999999773
                },
                {
                    "name": "G4",
                    "midi": 67,
                    "time": 619.2000000000006,
                    "velocity": 0.6929133858267716,
                    "duration": 0.8999999999999773
                },
                {
                    "name": "B4",
                    "midi": 71,
                    "time": 619.2000000000006,
                    "velocity": 0.6929133858267716,
                    "duration": 0.8999999999999773
                },
                {
                    "name": "C4",
                    "midi": 60,
                    "time": 620.1000000000006,
                    "velocity": 0.6929133858267716,
                    "duration": 0.2999999999999545
                },
                {
                    "name": "D#4",
                    "midi": 63,
                    "time": 620.1000000000006,
                    "velocity": 0.6929133858267716,
                    "duration": 0.2999999999999545
                },
                {
                    "name": "G4",
                    "midi": 67,
                    "time": 620.1000000000006,
                    "velocity": 0.6929133858267716,
                    "duration": 0.2999999999999545
                },
                {
                    "name": "B4",
                    "midi": 71,
                    "time": 620.1000000000006,
                    "velocity": 0.6929133858267716,
                    "duration": 0.2999999999999545
                },
                {
                    "name": "B3",
                    "midi": 59,
                    "time": 620.4000000000005,
                    "velocity": 0.6929133858267716,
                    "duration": 0.8999999999999773
                },
                {
                    "name": "D4",
                    "midi": 62,
                    "time": 620.4000000000005,
                    "velocity": 0.6929133858267716,
                    "duration": 0.8999999999999773
                },
                {
                    "name": "F4",
                    "midi": 65,
                    "time": 620.4000000000005,
                    "velocity": 0.6929133858267716,
                    "duration": 0.8999999999999773
                },
                {
                    "name": "A4",
                    "midi": 69,
                    "time": 620.4000000000005,
                    "velocity": 0.6929133858267716,
                    "duration": 0.8999999999999773
                },
                {
                    "name": "B3",
                    "midi": 59,
                    "time": 621.3000000000005,
                    "velocity": 0.6929133858267716,
                    "duration": 0.2999999999999545
                },
                {
                    "name": "D4",
                    "midi": 62,
                    "time": 621.3000000000005,
                    "velocity": 0.6929133858267716,
                    "duration": 0.2999999999999545
                },
                {
                    "name": "F4",
                    "midi": 65,
                    "time": 621.3000000000005,
                    "velocity": 0.6929133858267716,
                    "duration": 0.2999999999999545
                },
                {
                    "name": "A4",
                    "midi": 69,
                    "time": 621.3000000000005,
                    "velocity": 0.6929133858267716,
                    "duration": 0.2999999999999545
                },
                {
                    "name": "A3",
                    "midi": 57,
                    "time": 621.6000000000005,
                    "velocity": 0.6929133858267716,
                    "duration": 0.8999999999999773
                },
                {
                    "name": "C4",
                    "midi": 60,
                    "time": 621.6000000000005,
                    "velocity": 0.6929133858267716,
                    "duration": 0.8999999999999773
                },
                {
                    "name": "D#4",
                    "midi": 63,
                    "time": 621.6000000000005,
                    "velocity": 0.6929133858267716,
                    "duration": 0.8999999999999773
                },
                {
                    "name": "G4",
                    "midi": 67,
                    "time": 621.6000000000005,
                    "velocity": 0.6929133858267716,
                    "duration": 0.8999999999999773
                },
                {
                    "name": "A3",
                    "midi": 57,
                    "time": 622.5000000000005,
                    "velocity": 0.6929133858267716,
                    "duration": 0.2999999999999545
                },
                {
                    "name": "C4",
                    "midi": 60,
                    "time": 622.5000000000005,
                    "velocity": 0.6929133858267716,
                    "duration": 0.2999999999999545
                },
                {
                    "name": "D#4",
                    "midi": 63,
                    "time": 622.5000000000005,
                    "velocity": 0.6929133858267716,
                    "duration": 0.2999999999999545
                },
                {
                    "name": "G4",
                    "midi": 67,
                    "time": 622.5000000000005,
                    "velocity": 0.6929133858267716,
                    "duration": 0.2999999999999545
                },
                {
                    "name": "B3",
                    "midi": 59,
                    "time": 622.8000000000004,
                    "velocity": 0.6929133858267716,
                    "duration": 0.8999999999999773
                },
                {
                    "name": "D4",
                    "midi": 62,
                    "time": 622.8000000000004,
                    "velocity": 0.6929133858267716,
                    "duration": 0.8999999999999773
                },
                {
                    "name": "F4",
                    "midi": 65,
                    "time": 622.8000000000004,
                    "velocity": 0.6929133858267716,
                    "duration": 0.8999999999999773
                },
                {
                    "name": "A4",
                    "midi": 69,
                    "time": 622.8000000000004,
                    "velocity": 0.6929133858267716,
                    "duration": 0.8999999999999773
                },
                {
                    "name": "B3",
                    "midi": 59,
                    "time": 623.7000000000004,
                    "velocity": 0.6929133858267716,
                    "duration": 0.2999999999999545
                },
                {
                    "name": "D4",
                    "midi": 62,
                    "time": 623.7000000000004,
                    "velocity": 0.6929133858267716,
                    "duration": 0.2999999999999545
                },
                {
                    "name": "F4",
                    "midi": 65,
                    "time": 623.7000000000004,
                    "velocity": 0.6929133858267716,
                    "duration": 0.2999999999999545
                },
                {
                    "name": "A4",
                    "midi": 69,
                    "time": 623.7000000000004,
                    "velocity": 0.6929133858267716,
                    "duration": 0.2999999999999545
                },
                {
                    "name": "A3",
                    "midi": 57,
                    "time": 624.0000000000003,
                    "velocity": 0.6929133858267716,
                    "duration": 0.6000000000000227
                },
                {
                    "name": "C4",
                    "midi": 60,
                    "time": 624.0000000000003,
                    "velocity": 0.6929133858267716,
                    "duration": 0.6000000000000227
                },
                {
                    "name": "D#4",
                    "midi": 63,
                    "time": 624.0000000000003,
                    "velocity": 0.6929133858267716,
                    "duration": 0.6000000000000227
                },
                {
                    "name": "G4",
                    "midi": 67,
                    "time": 624.0000000000003,
                    "velocity": 0.6929133858267716,
                    "duration": 0.6000000000000227
                },
                {
                    "name": "F1",
                    "midi": 29,
                    "time": 624.6000000000004,
                    "velocity": 0.8976377952755905,
                    "duration": 0.6000000000000227
                },
                {
                    "name": "F2",
                    "midi": 41,
                    "time": 624.6000000000004,
                    "velocity": 0.8976377952755905,
                    "duration": 0.6000000000000227
                },
                {
                    "name": "A3",
                    "midi": 57,
                    "time": 625.2000000000004,
                    "velocity": 0.6929133858267716,
                    "duration": 0.6000000000000227
                },
                {
                    "name": "C4",
                    "midi": 60,
                    "time": 625.2000000000004,
                    "velocity": 0.6929133858267716,
                    "duration": 0.6000000000000227
                },
                {
                    "name": "D#4",
                    "midi": 63,
                    "time": 625.2000000000004,
                    "velocity": 0.6929133858267716,
                    "duration": 0.6000000000000227
                },
                {
                    "name": "G4",
                    "midi": 67,
                    "time": 625.2000000000004,
                    "velocity": 0.6929133858267716,
                    "duration": 0.6000000000000227
                },
                {
                    "name": "G1",
                    "midi": 31,
                    "time": 625.8000000000004,
                    "velocity": 0.8976377952755905,
                    "duration": 0.6000000000000227
                },
                {
                    "name": "G2",
                    "midi": 43,
                    "time": 625.8000000000004,
                    "velocity": 0.8976377952755905,
                    "duration": 0.6000000000000227
                },
                {
                    "name": "A3",
                    "midi": 57,
                    "time": 626.4000000000004,
                    "velocity": 0.6929133858267716,
                    "duration": 0.2999999999999545
                },
                {
                    "name": "C4",
                    "midi": 60,
                    "time": 626.4000000000004,
                    "velocity": 0.6929133858267716,
                    "duration": 0.2999999999999545
                },
                {
                    "name": "D#4",
                    "midi": 63,
                    "time": 626.4000000000004,
                    "velocity": 0.6929133858267716,
                    "duration": 0.2999999999999545
                },
                {
                    "name": "G4",
                    "midi": 67,
                    "time": 626.4000000000004,
                    "velocity": 0.6929133858267716,
                    "duration": 0.2999999999999545
                },
                {
                    "name": "A3",
                    "midi": 57,
                    "time": 626.7000000000004,
                    "velocity": 0.6929133858267716,
                    "duration": 0.2999999999999545
                },
                {
                    "name": "C4",
                    "midi": 60,
                    "time": 626.7000000000004,
                    "velocity": 0.6929133858267716,
                    "duration": 0.2999999999999545
                },
                {
                    "name": "D#4",
                    "midi": 63,
                    "time": 626.7000000000004,
                    "velocity": 0.6929133858267716,
                    "duration": 0.2999999999999545
                },
                {
                    "name": "G4",
                    "midi": 67,
                    "time": 626.7000000000004,
                    "velocity": 0.6929133858267716,
                    "duration": 0.2999999999999545
                },
                {
                    "name": "A3",
                    "midi": 57,
                    "time": 627.3000000000003,
                    "velocity": 0.6929133858267716,
                    "duration": 0.2999999999999545
                },
                {
                    "name": "C4",
                    "midi": 60,
                    "time": 627.3000000000003,
                    "velocity": 0.6929133858267716,
                    "duration": 0.2999999999999545
                },
                {
                    "name": "D#4",
                    "midi": 63,
                    "time": 627.3000000000003,
                    "velocity": 0.6929133858267716,
                    "duration": 0.2999999999999545
                },
                {
                    "name": "G4",
                    "midi": 67,
                    "time": 627.3000000000003,
                    "velocity": 0.6929133858267716,
                    "duration": 0.2999999999999545
                },
                {
                    "name": "B3",
                    "midi": 59,
                    "time": 627.6000000000003,
                    "velocity": 0.6929133858267716,
                    "duration": 0.2999999999999545
                },
                {
                    "name": "D4",
                    "midi": 62,
                    "time": 627.6000000000003,
                    "velocity": 0.6929133858267716,
                    "duration": 0.2999999999999545
                },
                {
                    "name": "F4",
                    "midi": 65,
                    "time": 627.6000000000003,
                    "velocity": 0.6929133858267716,
                    "duration": 0.2999999999999545
                },
                {
                    "name": "A4",
                    "midi": 69,
                    "time": 627.6000000000003,
                    "velocity": 0.6929133858267716,
                    "duration": 0.2999999999999545
                },
                {
                    "name": "B3",
                    "midi": 59,
                    "time": 627.9000000000002,
                    "velocity": 0.6929133858267716,
                    "duration": 0.2999999999999545
                },
                {
                    "name": "D4",
                    "midi": 62,
                    "time": 627.9000000000002,
                    "velocity": 0.6929133858267716,
                    "duration": 0.2999999999999545
                },
                {
                    "name": "F4",
                    "midi": 65,
                    "time": 627.9000000000002,
                    "velocity": 0.6929133858267716,
                    "duration": 0.2999999999999545
                },
                {
                    "name": "A4",
                    "midi": 69,
                    "time": 627.9000000000002,
                    "velocity": 0.6929133858267716,
                    "duration": 0.2999999999999545
                },
                {
                    "name": "B3",
                    "midi": 59,
                    "time": 628.5000000000001,
                    "velocity": 0.6929133858267716,
                    "duration": 0.2999999999999545
                },
                {
                    "name": "D4",
                    "midi": 62,
                    "time": 628.5000000000001,
                    "velocity": 0.6929133858267716,
                    "duration": 0.2999999999999545
                },
                {
                    "name": "F4",
                    "midi": 65,
                    "time": 628.5000000000001,
                    "velocity": 0.6929133858267716,
                    "duration": 0.2999999999999545
                },
                {
                    "name": "A4",
                    "midi": 69,
                    "time": 628.5000000000001,
                    "velocity": 0.6929133858267716,
                    "duration": 0.2999999999999545
                },
                {
                    "name": "A3",
                    "midi": 57,
                    "time": 628.8000000000001,
                    "velocity": 0.6929133858267716,
                    "duration": 0.2999999999999545
                },
                {
                    "name": "C4",
                    "midi": 60,
                    "time": 628.8000000000001,
                    "velocity": 0.6929133858267716,
                    "duration": 0.2999999999999545
                },
                {
                    "name": "D#4",
                    "midi": 63,
                    "time": 628.8000000000001,
                    "velocity": 0.6929133858267716,
                    "duration": 0.2999999999999545
                },
                {
                    "name": "G4",
                    "midi": 67,
                    "time": 628.8000000000001,
                    "velocity": 0.6929133858267716,
                    "duration": 0.2999999999999545
                },
                {
                    "name": "A3",
                    "midi": 57,
                    "time": 629.1,
                    "velocity": 0.6929133858267716,
                    "duration": 0.2999999999999545
                },
                {
                    "name": "C4",
                    "midi": 60,
                    "time": 629.1,
                    "velocity": 0.6929133858267716,
                    "duration": 0.2999999999999545
                },
                {
                    "name": "D#4",
                    "midi": 63,
                    "time": 629.1,
                    "velocity": 0.6929133858267716,
                    "duration": 0.2999999999999545
                },
                {
                    "name": "G4",
                    "midi": 67,
                    "time": 629.1,
                    "velocity": 0.6929133858267716,
                    "duration": 0.2999999999999545
                },
                {
                    "name": "A3",
                    "midi": 57,
                    "time": 629.6999999999999,
                    "velocity": 0.6929133858267716,
                    "duration": 0.2999999999999545
                },
                {
                    "name": "C4",
                    "midi": 60,
                    "time": 629.6999999999999,
                    "velocity": 0.6929133858267716,
                    "duration": 0.2999999999999545
                },
                {
                    "name": "D#4",
                    "midi": 63,
                    "time": 629.6999999999999,
                    "velocity": 0.6929133858267716,
                    "duration": 0.2999999999999545
                },
                {
                    "name": "G4",
                    "midi": 67,
                    "time": 629.6999999999999,
                    "velocity": 0.6929133858267716,
                    "duration": 0.2999999999999545
                },
                {
                    "name": "B3",
                    "midi": 59,
                    "time": 629.9999999999999,
                    "velocity": 0.6929133858267716,
                    "duration": 0.2999999999999545
                },
                {
                    "name": "D4",
                    "midi": 62,
                    "time": 629.9999999999999,
                    "velocity": 0.6929133858267716,
                    "duration": 0.2999999999999545
                },
                {
                    "name": "F4",
                    "midi": 65,
                    "time": 629.9999999999999,
                    "velocity": 0.6929133858267716,
                    "duration": 0.2999999999999545
                },
                {
                    "name": "A4",
                    "midi": 69,
                    "time": 629.9999999999999,
                    "velocity": 0.6929133858267716,
                    "duration": 0.2999999999999545
                },
                {
                    "name": "B3",
                    "midi": 59,
                    "time": 630.2999999999998,
                    "velocity": 0.6929133858267716,
                    "duration": 0.2999999999999545
                },
                {
                    "name": "D4",
                    "midi": 62,
                    "time": 630.2999999999998,
                    "velocity": 0.6929133858267716,
                    "duration": 0.2999999999999545
                },
                {
                    "name": "F4",
                    "midi": 65,
                    "time": 630.2999999999998,
                    "velocity": 0.6929133858267716,
                    "duration": 0.2999999999999545
                },
                {
                    "name": "A4",
                    "midi": 69,
                    "time": 630.2999999999998,
                    "velocity": 0.6929133858267716,
                    "duration": 0.2999999999999545
                },
                {
                    "name": "B3",
                    "midi": 59,
                    "time": 630.8999999999997,
                    "velocity": 0.6929133858267716,
                    "duration": 0.2999999999999545
                },
                {
                    "name": "D4",
                    "midi": 62,
                    "time": 630.8999999999997,
                    "velocity": 0.6929133858267716,
                    "duration": 0.2999999999999545
                },
                {
                    "name": "F4",
                    "midi": 65,
                    "time": 630.8999999999997,
                    "velocity": 0.6929133858267716,
                    "duration": 0.2999999999999545
                },
                {
                    "name": "A4",
                    "midi": 69,
                    "time": 630.8999999999997,
                    "velocity": 0.6929133858267716,
                    "duration": 0.2999999999999545
                },
                {
                    "name": "A3",
                    "midi": 57,
                    "time": 631.1999999999997,
                    "velocity": 0.6929133858267716,
                    "duration": 0.2999999999999545
                },
                {
                    "name": "C4",
                    "midi": 60,
                    "time": 631.1999999999997,
                    "velocity": 0.6929133858267716,
                    "duration": 0.2999999999999545
                },
                {
                    "name": "D#4",
                    "midi": 63,
                    "time": 631.1999999999997,
                    "velocity": 0.6929133858267716,
                    "duration": 0.2999999999999545
                },
                {
                    "name": "G4",
                    "midi": 67,
                    "time": 631.1999999999997,
                    "velocity": 0.6929133858267716,
                    "duration": 0.2999999999999545
                },
                {
                    "name": "A3",
                    "midi": 57,
                    "time": 631.4999999999997,
                    "velocity": 0.6929133858267716,
                    "duration": 0.2999999999999545
                },
                {
                    "name": "C4",
                    "midi": 60,
                    "time": 631.4999999999997,
                    "velocity": 0.6929133858267716,
                    "duration": 0.2999999999999545
                },
                {
                    "name": "D#4",
                    "midi": 63,
                    "time": 631.4999999999997,
                    "velocity": 0.6929133858267716,
                    "duration": 0.2999999999999545
                },
                {
                    "name": "G4",
                    "midi": 67,
                    "time": 631.4999999999997,
                    "velocity": 0.6929133858267716,
                    "duration": 0.2999999999999545
                },
                {
                    "name": "A3",
                    "midi": 57,
                    "time": 632.0999999999996,
                    "velocity": 0.6929133858267716,
                    "duration": 0.2999999999999545
                },
                {
                    "name": "C4",
                    "midi": 60,
                    "time": 632.0999999999996,
                    "velocity": 0.6929133858267716,
                    "duration": 0.2999999999999545
                },
                {
                    "name": "D#4",
                    "midi": 63,
                    "time": 632.0999999999996,
                    "velocity": 0.6929133858267716,
                    "duration": 0.2999999999999545
                },
                {
                    "name": "G4",
                    "midi": 67,
                    "time": 632.0999999999996,
                    "velocity": 0.6929133858267716,
                    "duration": 0.2999999999999545
                },
                {
                    "name": "B3",
                    "midi": 59,
                    "time": 632.3999999999995,
                    "velocity": 0.6929133858267716,
                    "duration": 0.2999999999999545
                },
                {
                    "name": "D4",
                    "midi": 62,
                    "time": 632.3999999999995,
                    "velocity": 0.6929133858267716,
                    "duration": 0.2999999999999545
                },
                {
                    "name": "F4",
                    "midi": 65,
                    "time": 632.3999999999995,
                    "velocity": 0.6929133858267716,
                    "duration": 0.2999999999999545
                },
                {
                    "name": "A4",
                    "midi": 69,
                    "time": 632.3999999999995,
                    "velocity": 0.6929133858267716,
                    "duration": 0.2999999999999545
                },
                {
                    "name": "B3",
                    "midi": 59,
                    "time": 632.6999999999995,
                    "velocity": 0.6929133858267716,
                    "duration": 0.2999999999999545
                },
                {
                    "name": "D4",
                    "midi": 62,
                    "time": 632.6999999999995,
                    "velocity": 0.6929133858267716,
                    "duration": 0.2999999999999545
                },
                {
                    "name": "F4",
                    "midi": 65,
                    "time": 632.6999999999995,
                    "velocity": 0.6929133858267716,
                    "duration": 0.2999999999999545
                },
                {
                    "name": "A4",
                    "midi": 69,
                    "time": 632.6999999999995,
                    "velocity": 0.6929133858267716,
                    "duration": 0.2999999999999545
                },
                {
                    "name": "B3",
                    "midi": 59,
                    "time": 633.2999999999994,
                    "velocity": 0.6929133858267716,
                    "duration": 0.2999999999999545
                },
                {
                    "name": "D4",
                    "midi": 62,
                    "time": 633.2999999999994,
                    "velocity": 0.6929133858267716,
                    "duration": 0.2999999999999545
                },
                {
                    "name": "F4",
                    "midi": 65,
                    "time": 633.2999999999994,
                    "velocity": 0.6929133858267716,
                    "duration": 0.2999999999999545
                },
                {
                    "name": "A4",
                    "midi": 69,
                    "time": 633.2999999999994,
                    "velocity": 0.6929133858267716,
                    "duration": 0.2999999999999545
                },
                {
                    "name": "A3",
                    "midi": 57,
                    "time": 633.5999999999993,
                    "velocity": 0.6929133858267716,
                    "duration": 0.6000000000000227
                },
                {
                    "name": "C4",
                    "midi": 60,
                    "time": 633.5999999999993,
                    "velocity": 0.6929133858267716,
                    "duration": 0.6000000000000227
                },
                {
                    "name": "D#4",
                    "midi": 63,
                    "time": 633.5999999999993,
                    "velocity": 0.6929133858267716,
                    "duration": 0.6000000000000227
                },
                {
                    "name": "G4",
                    "midi": 67,
                    "time": 633.5999999999993,
                    "velocity": 0.6929133858267716,
                    "duration": 0.6000000000000227
                },
                {
                    "name": "F1",
                    "midi": 29,
                    "time": 634.1999999999994,
                    "velocity": 0.8976377952755905,
                    "duration": 0.6000000000000227
                },
                {
                    "name": "F2",
                    "midi": 41,
                    "time": 634.1999999999994,
                    "velocity": 0.8976377952755905,
                    "duration": 0.6000000000000227
                },
                {
                    "name": "A3",
                    "midi": 57,
                    "time": 634.7999999999994,
                    "velocity": 0.6929133858267716,
                    "duration": 0.6000000000000227
                },
                {
                    "name": "C4",
                    "midi": 60,
                    "time": 634.7999999999994,
                    "velocity": 0.6929133858267716,
                    "duration": 0.6000000000000227
                },
                {
                    "name": "D#4",
                    "midi": 63,
                    "time": 634.7999999999994,
                    "velocity": 0.6929133858267716,
                    "duration": 0.6000000000000227
                },
                {
                    "name": "G4",
                    "midi": 67,
                    "time": 634.7999999999994,
                    "velocity": 0.6929133858267716,
                    "duration": 0.6000000000000227
                },
                {
                    "name": "G1",
                    "midi": 31,
                    "time": 635.3999999999994,
                    "velocity": 0.8976377952755905,
                    "duration": 0.6000000000000227
                },
                {
                    "name": "G2",
                    "midi": 43,
                    "time": 635.3999999999994,
                    "velocity": 0.8976377952755905,
                    "duration": 0.6000000000000227
                },
                {
                    "name": "C2",
                    "midi": 36,
                    "time": 635.9999999999994,
                    "velocity": 0.6929133858267716,
                    "duration": 0.6000000000000227
                },
                {
                    "name": "G2",
                    "midi": 43,
                    "time": 635.9999999999994,
                    "velocity": 0.6929133858267716,
                    "duration": 0.6000000000000227
                },
                {
                    "name": "C4",
                    "midi": 60,
                    "time": 636.5999999999995,
                    "velocity": 0.4881889763779528,
                    "duration": 0.11749999999994998
                },
                {
                    "name": "E4",
                    "midi": 64,
                    "time": 636.5999999999995,
                    "velocity": 0.4881889763779528,
                    "duration": 0.11749999999994998
                },
                {
                    "name": "C4",
                    "midi": 60,
                    "time": 637.1999999999994,
                    "velocity": 0.4881889763779528,
                    "duration": 0.11749999999994998
                },
                {
                    "name": "E4",
                    "midi": 64,
                    "time": 637.1999999999994,
                    "velocity": 0.4881889763779528,
                    "duration": 0.11749999999994998
                },
                {
                    "name": "C4",
                    "midi": 60,
                    "time": 637.7999999999993,
                    "velocity": 0.4881889763779528,
                    "duration": 0.11749999999994998
                },
                {
                    "name": "E4",
                    "midi": 64,
                    "time": 637.7999999999993,
                    "velocity": 0.4881889763779528,
                    "duration": 0.11749999999994998
                },
                {
                    "name": "C4",
                    "midi": 60,
                    "time": 638.3999999999992,
                    "velocity": 0.4881889763779528,
                    "duration": 0.11749999999994998
                },
                {
                    "name": "E4",
                    "midi": 64,
                    "time": 638.3999999999992,
                    "velocity": 0.4881889763779528,
                    "duration": 0.11749999999994998
                },
                {
                    "name": "C4",
                    "midi": 60,
                    "time": 638.9999999999991,
                    "velocity": 0.4881889763779528,
                    "duration": 0.11749999999994998
                },
                {
                    "name": "E4",
                    "midi": 64,
                    "time": 638.9999999999991,
                    "velocity": 0.4881889763779528,
                    "duration": 0.11749999999994998
                },
                {
                    "name": "C4",
                    "midi": 60,
                    "time": 639.599999999999,
                    "velocity": 0.4881889763779528,
                    "duration": 0.11749999999994998
                },
                {
                    "name": "E4",
                    "midi": 64,
                    "time": 639.599999999999,
                    "velocity": 0.4881889763779528,
                    "duration": 0.11749999999994998
                },
                {
                    "name": "C4",
                    "midi": 60,
                    "time": 640.1999999999989,
                    "velocity": 0.4881889763779528,
                    "duration": 0.11749999999994998
                },
                {
                    "name": "E4",
                    "midi": 64,
                    "time": 640.1999999999989,
                    "velocity": 0.4881889763779528,
                    "duration": 0.11749999999994998
                },
                {
                    "name": "C4",
                    "midi": 60,
                    "time": 640.7999999999988,
                    "velocity": 0.4881889763779528,
                    "duration": 0.11749999999994998
                },
                {
                    "name": "E4",
                    "midi": 64,
                    "time": 640.7999999999988,
                    "velocity": 0.4881889763779528,
                    "duration": 0.11749999999994998
                },
                {
                    "name": "C4",
                    "midi": 60,
                    "time": 641.3999999999987,
                    "velocity": 0.4881889763779528,
                    "duration": 0.11749999999994998
                },
                {
                    "name": "E4",
                    "midi": 64,
                    "time": 641.3999999999987,
                    "velocity": 0.4881889763779528,
                    "duration": 0.11749999999994998
                },
                {
                    "name": "F#2",
                    "midi": 42,
                    "time": 642.2999999999987,
                    "velocity": 0.6929133858267716,
                    "duration": 0.6000000000000227
                },
                {
                    "name": "F#3",
                    "midi": 54,
                    "time": 642.2999999999987,
                    "velocity": 0.6929133858267716,
                    "duration": 0.6000000000000227
                },
                {
                    "name": "C4",
                    "midi": 60,
                    "time": 643.1999999999987,
                    "velocity": 0.4881889763779528,
                    "duration": 0.11749999999994998
                },
                {
                    "name": "E4",
                    "midi": 64,
                    "time": 643.1999999999987,
                    "velocity": 0.4881889763779528,
                    "duration": 0.11749999999994998
                },
                {
                    "name": "C4",
                    "midi": 60,
                    "time": 643.7999999999986,
                    "velocity": 0.4881889763779528,
                    "duration": 0.11749999999994998
                },
                {
                    "name": "E4",
                    "midi": 64,
                    "time": 643.7999999999986,
                    "velocity": 0.4881889763779528,
                    "duration": 0.11749999999994998
                },
                {
                    "name": "C4",
                    "midi": 60,
                    "time": 644.3999999999985,
                    "velocity": 0.4881889763779528,
                    "duration": 0.11749999999994998
                },
                {
                    "name": "E4",
                    "midi": 64,
                    "time": 644.3999999999985,
                    "velocity": 0.4881889763779528,
                    "duration": 0.11749999999994998
                },
                {
                    "name": "C4",
                    "midi": 60,
                    "time": 644.9999999999984,
                    "velocity": 0.4881889763779528,
                    "duration": 0.11749999999994998
                },
                {
                    "name": "E4",
                    "midi": 64,
                    "time": 644.9999999999984,
                    "velocity": 0.4881889763779528,
                    "duration": 0.11749999999994998
                },
                {
                    "name": "F#2",
                    "midi": 42,
                    "time": 645.8999999999984,
                    "velocity": 0.6929133858267716,
                    "duration": 0.6000000000000227
                },
                {
                    "name": "F#3",
                    "midi": 54,
                    "time": 645.8999999999984,
                    "velocity": 0.6929133858267716,
                    "duration": 0.6000000000000227
                },
                {
                    "name": "C4",
                    "midi": 60,
                    "time": 646.7999999999984,
                    "velocity": 0.4881889763779528,
                    "duration": 0.11749999999994998
                },
                {
                    "name": "E4",
                    "midi": 64,
                    "time": 646.7999999999984,
                    "velocity": 0.4881889763779528,
                    "duration": 0.11749999999994998
                },
                {
                    "name": "F#2",
                    "midi": 42,
                    "time": 647.6999999999983,
                    "velocity": 0.6929133858267716,
                    "duration": 0.6000000000000227
                },
                {
                    "name": "F#3",
                    "midi": 54,
                    "time": 647.6999999999983,
                    "velocity": 0.6929133858267716,
                    "duration": 0.6000000000000227
                },
                {
                    "name": "C4",
                    "midi": 60,
                    "time": 648.5999999999983,
                    "velocity": 0.4881889763779528,
                    "duration": 0.6000000000000227
                },
                {
                    "name": "E4",
                    "midi": 64,
                    "time": 648.5999999999983,
                    "velocity": 0.4881889763779528,
                    "duration": 0.6000000000000227
                },
                {
                    "name": "C4",
                    "midi": 60,
                    "time": 649.1999999999983,
                    "velocity": 0.4881889763779528,
                    "duration": 0.11749999999994998
                },
                {
                    "name": "E4",
                    "midi": 64,
                    "time": 649.1999999999983,
                    "velocity": 0.4881889763779528,
                    "duration": 0.11749999999994998
                },
                {
                    "name": "G4",
                    "midi": 67,
                    "time": 649.1999999999983,
                    "velocity": 0.4881889763779528,
                    "duration": 0.11749999999994998
                },
                {
                    "name": "A#4",
                    "midi": 70,
                    "time": 649.1999999999983,
                    "velocity": 0.4881889763779528,
                    "duration": 0.11749999999994998
                },
                {
                    "name": "C4",
                    "midi": 60,
                    "time": 649.7999999999982,
                    "velocity": 0.4881889763779528,
                    "duration": 0.11749999999994998
                },
                {
                    "name": "E4",
                    "midi": 64,
                    "time": 649.7999999999982,
                    "velocity": 0.4881889763779528,
                    "duration": 0.11749999999994998
                },
                {
                    "name": "G4",
                    "midi": 67,
                    "time": 649.7999999999982,
                    "velocity": 0.4881889763779528,
                    "duration": 0.11749999999994998
                },
                {
                    "name": "A#4",
                    "midi": 70,
                    "time": 649.7999999999982,
                    "velocity": 0.4881889763779528,
                    "duration": 0.11749999999994998
                },
                {
                    "name": "C4",
                    "midi": 60,
                    "time": 650.3999999999982,
                    "velocity": 0.4881889763779528,
                    "duration": 0.11749999999994998
                },
                {
                    "name": "E4",
                    "midi": 64,
                    "time": 650.3999999999982,
                    "velocity": 0.4881889763779528,
                    "duration": 0.11749999999994998
                },
                {
                    "name": "G4",
                    "midi": 67,
                    "time": 650.3999999999982,
                    "velocity": 0.4881889763779528,
                    "duration": 0.11749999999994998
                },
                {
                    "name": "A#4",
                    "midi": 70,
                    "time": 650.3999999999982,
                    "velocity": 0.4881889763779528,
                    "duration": 0.11749999999994998
                },
                {
                    "name": "C4",
                    "midi": 60,
                    "time": 650.9999999999981,
                    "velocity": 0.4881889763779528,
                    "duration": 0.11749999999994998
                },
                {
                    "name": "E4",
                    "midi": 64,
                    "time": 650.9999999999981,
                    "velocity": 0.4881889763779528,
                    "duration": 0.11749999999994998
                },
                {
                    "name": "G4",
                    "midi": 67,
                    "time": 650.9999999999981,
                    "velocity": 0.4881889763779528,
                    "duration": 0.11749999999994998
                },
                {
                    "name": "A#4",
                    "midi": 70,
                    "time": 650.9999999999981,
                    "velocity": 0.4881889763779528,
                    "duration": 0.11749999999994998
                },
                {
                    "name": "C4",
                    "midi": 60,
                    "time": 651.599999999998,
                    "velocity": 0.4881889763779528,
                    "duration": 0.11749999999994998
                },
                {
                    "name": "E4",
                    "midi": 64,
                    "time": 651.599999999998,
                    "velocity": 0.4881889763779528,
                    "duration": 0.11749999999994998
                },
                {
                    "name": "G4",
                    "midi": 67,
                    "time": 651.599999999998,
                    "velocity": 0.4881889763779528,
                    "duration": 0.11749999999994998
                },
                {
                    "name": "A#4",
                    "midi": 70,
                    "time": 651.599999999998,
                    "velocity": 0.4881889763779528,
                    "duration": 0.11749999999994998
                },
                {
                    "name": "C4",
                    "midi": 60,
                    "time": 652.1999999999979,
                    "velocity": 0.4881889763779528,
                    "duration": 0.11749999999994998
                },
                {
                    "name": "E4",
                    "midi": 64,
                    "time": 652.1999999999979,
                    "velocity": 0.4881889763779528,
                    "duration": 0.11749999999994998
                },
                {
                    "name": "G4",
                    "midi": 67,
                    "time": 652.1999999999979,
                    "velocity": 0.4881889763779528,
                    "duration": 0.11749999999994998
                },
                {
                    "name": "A#4",
                    "midi": 70,
                    "time": 652.1999999999979,
                    "velocity": 0.4881889763779528,
                    "duration": 0.11749999999994998
                },
                {
                    "name": "C4",
                    "midi": 60,
                    "time": 652.7999999999978,
                    "velocity": 0.4881889763779528,
                    "duration": 0.11749999999994998
                },
                {
                    "name": "E4",
                    "midi": 64,
                    "time": 652.7999999999978,
                    "velocity": 0.4881889763779528,
                    "duration": 0.11749999999994998
                },
                {
                    "name": "G4",
                    "midi": 67,
                    "time": 652.7999999999978,
                    "velocity": 0.4881889763779528,
                    "duration": 0.11749999999994998
                },
                {
                    "name": "A#4",
                    "midi": 70,
                    "time": 652.7999999999978,
                    "velocity": 0.4881889763779528,
                    "duration": 0.11749999999994998
                },
                {
                    "name": "C4",
                    "midi": 60,
                    "time": 653.3999999999977,
                    "velocity": 0.4881889763779528,
                    "duration": 0.11749999999994998
                },
                {
                    "name": "E4",
                    "midi": 64,
                    "time": 653.3999999999977,
                    "velocity": 0.4881889763779528,
                    "duration": 0.11749999999994998
                },
                {
                    "name": "G4",
                    "midi": 67,
                    "time": 653.3999999999977,
                    "velocity": 0.4881889763779528,
                    "duration": 0.11749999999994998
                },
                {
                    "name": "A#4",
                    "midi": 70,
                    "time": 653.3999999999977,
                    "velocity": 0.4881889763779528,
                    "duration": 0.11749999999994998
                },
                {
                    "name": "C4",
                    "midi": 60,
                    "time": 653.9999999999976,
                    "velocity": 0.4881889763779528,
                    "duration": 0.11749999999994998
                },
                {
                    "name": "E4",
                    "midi": 64,
                    "time": 653.9999999999976,
                    "velocity": 0.4881889763779528,
                    "duration": 0.11749999999994998
                },
                {
                    "name": "G4",
                    "midi": 67,
                    "time": 653.9999999999976,
                    "velocity": 0.4881889763779528,
                    "duration": 0.11749999999994998
                },
                {
                    "name": "A#4",
                    "midi": 70,
                    "time": 653.9999999999976,
                    "velocity": 0.4881889763779528,
                    "duration": 0.11749999999994998
                },
                {
                    "name": "C4",
                    "midi": 60,
                    "time": 654.5999999999975,
                    "velocity": 0.4881889763779528,
                    "duration": 0.11749999999994998
                },
                {
                    "name": "E4",
                    "midi": 64,
                    "time": 654.5999999999975,
                    "velocity": 0.4881889763779528,
                    "duration": 0.11749999999994998
                },
                {
                    "name": "G4",
                    "midi": 67,
                    "time": 654.5999999999975,
                    "velocity": 0.4881889763779528,
                    "duration": 0.11749999999994998
                },
                {
                    "name": "A#4",
                    "midi": 70,
                    "time": 654.5999999999975,
                    "velocity": 0.4881889763779528,
                    "duration": 0.11749999999994998
                },
                {
                    "name": "C4",
                    "midi": 60,
                    "time": 655.1999999999974,
                    "velocity": 0.4881889763779528,
                    "duration": 0.11749999999994998
                },
                {
                    "name": "E4",
                    "midi": 64,
                    "time": 655.1999999999974,
                    "velocity": 0.4881889763779528,
                    "duration": 0.11749999999994998
                },
                {
                    "name": "G4",
                    "midi": 67,
                    "time": 655.1999999999974,
                    "velocity": 0.4881889763779528,
                    "duration": 0.11749999999994998
                },
                {
                    "name": "A#4",
                    "midi": 70,
                    "time": 655.1999999999974,
                    "velocity": 0.4881889763779528,
                    "duration": 0.11749999999994998
                },
                {
                    "name": "C4",
                    "midi": 60,
                    "time": 655.7999999999973,
                    "velocity": 0.4881889763779528,
                    "duration": 0.11749999999994998
                },
                {
                    "name": "E4",
                    "midi": 64,
                    "time": 655.7999999999973,
                    "velocity": 0.4881889763779528,
                    "duration": 0.11749999999994998
                },
                {
                    "name": "G4",
                    "midi": 67,
                    "time": 655.7999999999973,
                    "velocity": 0.4881889763779528,
                    "duration": 0.11749999999994998
                },
                {
                    "name": "A#4",
                    "midi": 70,
                    "time": 655.7999999999973,
                    "velocity": 0.4881889763779528,
                    "duration": 0.11749999999994998
                },
                {
                    "name": "C4",
                    "midi": 60,
                    "time": 656.3999999999972,
                    "velocity": 0.4881889763779528,
                    "duration": 0.11749999999994998
                },
                {
                    "name": "E4",
                    "midi": 64,
                    "time": 656.3999999999972,
                    "velocity": 0.4881889763779528,
                    "duration": 0.11749999999994998
                },
                {
                    "name": "G4",
                    "midi": 67,
                    "time": 656.3999999999972,
                    "velocity": 0.4881889763779528,
                    "duration": 0.11749999999994998
                },
                {
                    "name": "A#4",
                    "midi": 70,
                    "time": 656.3999999999972,
                    "velocity": 0.4881889763779528,
                    "duration": 0.11749999999994998
                },
                {
                    "name": "C4",
                    "midi": 60,
                    "time": 656.9999999999972,
                    "velocity": 0.4881889763779528,
                    "duration": 0.11749999999994998
                },
                {
                    "name": "E4",
                    "midi": 64,
                    "time": 656.9999999999972,
                    "velocity": 0.4881889763779528,
                    "duration": 0.11749999999994998
                },
                {
                    "name": "G4",
                    "midi": 67,
                    "time": 656.9999999999972,
                    "velocity": 0.4881889763779528,
                    "duration": 0.11749999999994998
                },
                {
                    "name": "A#4",
                    "midi": 70,
                    "time": 656.9999999999972,
                    "velocity": 0.4881889763779528,
                    "duration": 0.11749999999994998
                },
                {
                    "name": "C4",
                    "midi": 60,
                    "time": 657.5999999999971,
                    "velocity": 0.4881889763779528,
                    "duration": 0.11749999999994998
                },
                {
                    "name": "E4",
                    "midi": 64,
                    "time": 657.5999999999971,
                    "velocity": 0.4881889763779528,
                    "duration": 0.11749999999994998
                },
                {
                    "name": "G4",
                    "midi": 67,
                    "time": 657.5999999999971,
                    "velocity": 0.4881889763779528,
                    "duration": 0.11749999999994998
                },
                {
                    "name": "A#4",
                    "midi": 70,
                    "time": 657.5999999999971,
                    "velocity": 0.4881889763779528,
                    "duration": 0.11749999999994998
                },
                {
                    "name": "C4",
                    "midi": 60,
                    "time": 658.199999999997,
                    "velocity": 0.4881889763779528,
                    "duration": 0.11749999999994998
                },
                {
                    "name": "E4",
                    "midi": 64,
                    "time": 658.199999999997,
                    "velocity": 0.4881889763779528,
                    "duration": 0.11749999999994998
                },
                {
                    "name": "G4",
                    "midi": 67,
                    "time": 658.199999999997,
                    "velocity": 0.4881889763779528,
                    "duration": 0.11749999999994998
                },
                {
                    "name": "A#4",
                    "midi": 70,
                    "time": 658.199999999997,
                    "velocity": 0.4881889763779528,
                    "duration": 0.11749999999994998
                },
                {
                    "name": "C4",
                    "midi": 60,
                    "time": 658.7999999999969,
                    "velocity": 0.4881889763779528,
                    "duration": 0.11749999999994998
                },
                {
                    "name": "E4",
                    "midi": 64,
                    "time": 658.7999999999969,
                    "velocity": 0.4881889763779528,
                    "duration": 0.11749999999994998
                },
                {
                    "name": "G4",
                    "midi": 67,
                    "time": 658.7999999999969,
                    "velocity": 0.4881889763779528,
                    "duration": 0.11749999999994998
                },
                {
                    "name": "A#4",
                    "midi": 70,
                    "time": 658.7999999999969,
                    "velocity": 0.4881889763779528,
                    "duration": 0.11749999999994998
                },
                {
                    "name": "C4",
                    "midi": 60,
                    "time": 659.3999999999968,
                    "velocity": 0.4881889763779528,
                    "duration": 0.11749999999994998
                },
                {
                    "name": "E4",
                    "midi": 64,
                    "time": 659.3999999999968,
                    "velocity": 0.4881889763779528,
                    "duration": 0.11749999999994998
                },
                {
                    "name": "G4",
                    "midi": 67,
                    "time": 659.3999999999968,
                    "velocity": 0.4881889763779528,
                    "duration": 0.11749999999994998
                },
                {
                    "name": "A#4",
                    "midi": 70,
                    "time": 659.3999999999968,
                    "velocity": 0.4881889763779528,
                    "duration": 0.11749999999994998
                },
                {
                    "name": "C4",
                    "midi": 60,
                    "time": 659.9999999999967,
                    "velocity": 0.4881889763779528,
                    "duration": 0.11749999999994998
                },
                {
                    "name": "E4",
                    "midi": 64,
                    "time": 659.9999999999967,
                    "velocity": 0.4881889763779528,
                    "duration": 0.11749999999994998
                },
                {
                    "name": "G4",
                    "midi": 67,
                    "time": 659.9999999999967,
                    "velocity": 0.4881889763779528,
                    "duration": 0.11749999999994998
                },
                {
                    "name": "A#4",
                    "midi": 70,
                    "time": 659.9999999999967,
                    "velocity": 0.4881889763779528,
                    "duration": 0.11749999999994998
                },
                {
                    "name": "C4",
                    "midi": 60,
                    "time": 660.5999999999966,
                    "velocity": 0.4881889763779528,
                    "duration": 0.11749999999994998
                },
                {
                    "name": "E4",
                    "midi": 64,
                    "time": 660.5999999999966,
                    "velocity": 0.4881889763779528,
                    "duration": 0.11749999999994998
                },
                {
                    "name": "G4",
                    "midi": 67,
                    "time": 660.5999999999966,
                    "velocity": 0.4881889763779528,
                    "duration": 0.11749999999994998
                },
                {
                    "name": "A#4",
                    "midi": 70,
                    "time": 660.5999999999966,
                    "velocity": 0.4881889763779528,
                    "duration": 0.11749999999994998
                },
                {
                    "name": "C4",
                    "midi": 60,
                    "time": 661.1999999999965,
                    "velocity": 0.4881889763779528,
                    "duration": 0.11749999999994998
                },
                {
                    "name": "E4",
                    "midi": 64,
                    "time": 661.1999999999965,
                    "velocity": 0.4881889763779528,
                    "duration": 0.11749999999994998
                },
                {
                    "name": "G4",
                    "midi": 67,
                    "time": 661.1999999999965,
                    "velocity": 0.4881889763779528,
                    "duration": 0.11749999999994998
                },
                {
                    "name": "A#4",
                    "midi": 70,
                    "time": 661.1999999999965,
                    "velocity": 0.4881889763779528,
                    "duration": 0.11749999999994998
                },
                {
                    "name": "C4",
                    "midi": 60,
                    "time": 661.7999999999964,
                    "velocity": 0.4881889763779528,
                    "duration": 0.11749999999994998
                },
                {
                    "name": "E4",
                    "midi": 64,
                    "time": 661.7999999999964,
                    "velocity": 0.4881889763779528,
                    "duration": 0.11749999999994998
                },
                {
                    "name": "G4",
                    "midi": 67,
                    "time": 661.7999999999964,
                    "velocity": 0.4881889763779528,
                    "duration": 0.11749999999994998
                },
                {
                    "name": "A#4",
                    "midi": 70,
                    "time": 661.7999999999964,
                    "velocity": 0.4881889763779528,
                    "duration": 0.11749999999994998
                },
                {
                    "name": "C4",
                    "midi": 60,
                    "time": 662.3999999999963,
                    "velocity": 0.4881889763779528,
                    "duration": 0.11749999999994998
                },
                {
                    "name": "E4",
                    "midi": 64,
                    "time": 662.3999999999963,
                    "velocity": 0.4881889763779528,
                    "duration": 0.11749999999994998
                },
                {
                    "name": "G4",
                    "midi": 67,
                    "time": 662.3999999999963,
                    "velocity": 0.4881889763779528,
                    "duration": 0.11749999999994998
                },
                {
                    "name": "A#4",
                    "midi": 70,
                    "time": 662.3999999999963,
                    "velocity": 0.4881889763779528,
                    "duration": 0.11749999999994998
                },
                {
                    "name": "G#2",
                    "midi": 44,
                    "time": 662.9999999999962,
                    "velocity": 0.5905511811023622,
                    "duration": 0.11749999999994998
                },
                {
                    "name": "C3",
                    "midi": 48,
                    "time": 663.5999999999962,
                    "velocity": 0.5905511811023622,
                    "duration": 0.11749999999994998
                },
                {
                    "name": "D#3",
                    "midi": 51,
                    "time": 664.1999999999961,
                    "velocity": 0.5905511811023622,
                    "duration": 0.11749999999994998
                },
                {
                    "name": "F#3",
                    "midi": 54,
                    "time": 664.799999999996,
                    "velocity": 0.5905511811023622,
                    "duration": 0.11749999999994998
                },
                {
                    "name": "A3",
                    "midi": 57,
                    "time": 665.3999999999959,
                    "velocity": 0.5905511811023622,
                    "duration": 0.11749999999994998
                },
                {
                    "name": "B3",
                    "midi": 59,
                    "time": 665.9999999999958,
                    "velocity": 0.5905511811023622,
                    "duration": 0.11749999999994998
                },
                {
                    "name": "C4",
                    "midi": 60,
                    "time": 666.4499999999957,
                    "velocity": 0.5905511811023622,
                    "duration": 1.0499999999999545
                },
                {
                    "name": "F#4",
                    "midi": 66,
                    "time": 666.5999999999957,
                    "velocity": 0.5905511811023622,
                    "duration": 0.8999999999999773
                },
                {
                    "name": "C2",
                    "midi": 36,
                    "time": 667.4999999999957,
                    "velocity": 0.7952755905511811,
                    "duration": 0.17999999999994998
                },
                {
                    "name": "B2",
                    "midi": 47,
                    "time": 669.2999999999956,
                    "velocity": 0.7952755905511811,
                    "duration": 0.17999999999994998
                },
                {
                    "name": "C2",
                    "midi": 36,
                    "time": 670.1999999999956,
                    "velocity": 0.7952755905511811,
                    "duration": 0.17999999999994998
                },
                {
                    "name": "D#4",
                    "midi": 63,
                    "time": 670.8999999999955,
                    "velocity": 0.5905511811023622,
                    "duration": 1.1000000000001364
                },
                {
                    "name": "F#4",
                    "midi": 66,
                    "time": 670.9999999999956,
                    "velocity": 0.5905511811023622,
                    "duration": 1.0000000000001137
                },
                {
                    "name": "B4",
                    "midi": 71,
                    "time": 671.0999999999956,
                    "velocity": 0.5905511811023622,
                    "duration": 0.900000000000091
                },
                {
                    "name": "G#3",
                    "midi": 56,
                    "time": 671.7999999999956,
                    "velocity": 0.5905511811023622,
                    "duration": 1.1000000000000227
                },
                {
                    "name": "C4",
                    "midi": 60,
                    "time": 671.8999999999957,
                    "velocity": 0.5905511811023622,
                    "duration": 1
                },
                {
                    "name": "F#4",
                    "midi": 66,
                    "time": 671.9999999999957,
                    "velocity": 0.5905511811023622,
                    "duration": 0.8999999999999773
                },
                {
                    "name": "B2",
                    "midi": 47,
                    "time": 672.8999999999957,
                    "velocity": 0.7952755905511811,
                    "duration": 0.17999999999994998
                },
                {
                    "name": "C2",
                    "midi": 36,
                    "time": 674.6999999999956,
                    "velocity": 0.7952755905511811,
                    "duration": 0.17999999999994998
                },
                {
                    "name": "F#3",
                    "midi": 54,
                    "time": 675.3999999999955,
                    "velocity": 0.5905511811023622,
                    "duration": 1.1000000000000227
                },
                {
                    "name": "A3",
                    "midi": 57,
                    "time": 675.4999999999956,
                    "velocity": 0.5905511811023622,
                    "duration": 1
                },
                {
                    "name": "C4",
                    "midi": 60,
                    "time": 675.5999999999956,
                    "velocity": 0.5905511811023622,
                    "duration": 0.8999999999999773
                },
                {
                    "name": "B2",
                    "midi": 47,
                    "time": 676.4999999999956,
                    "velocity": 0.7952755905511811,
                    "duration": 0.17999999999994998
                },
                {
                    "name": "C2",
                    "midi": 36,
                    "time": 677.3999999999955,
                    "velocity": 0.7952755905511811,
                    "duration": 0.11749999999994998
                },
                {
                    "name": "A#3",
                    "midi": 58,
                    "time": 677.9999999999955,
                    "velocity": 0.5905511811023622,
                    "duration": 0.6000000000000227
                },
                {
                    "name": "D4",
                    "midi": 62,
                    "time": 677.9999999999955,
                    "velocity": 0.5905511811023622,
                    "duration": 0.6000000000000227
                },
                {
                    "name": "B3",
                    "midi": 59,
                    "time": 678.5999999999955,
                    "velocity": 0.5905511811023622,
                    "duration": 0.6000000000000227
                },
                {
                    "name": "D#4",
                    "midi": 63,
                    "time": 678.5999999999955,
                    "velocity": 0.5905511811023622,
                    "duration": 0.6000000000000227
                },
                {
                    "name": "A1",
                    "midi": 33,
                    "time": 679.1999999999955,
                    "velocity": 0.7952755905511811,
                    "duration": 0.11749999999994998
                },
                {
                    "name": "A2",
                    "midi": 45,
                    "time": 679.1999999999955,
                    "velocity": 0.7952755905511811,
                    "duration": 0.11749999999994998
                },
                {
                    "name": "C#3",
                    "midi": 49,
                    "time": 679.7999999999954,
                    "velocity": 0.7952755905511811,
                    "duration": 0.11749999999994998
                },
                {
                    "name": "E3",
                    "midi": 52,
                    "time": 680.3999999999953,
                    "velocity": 0.7952755905511811,
                    "duration": 0.11749999999994998
                },
                {
                    "name": "C3",
                    "midi": 48,
                    "time": 680.9999999999952,
                    "velocity": 0.7952755905511811,
                    "duration": 0.11749999999994998
                },
                {
                    "name": "E3",
                    "midi": 52,
                    "time": 681.5999999999951,
                    "velocity": 0.7952755905511811,
                    "duration": 0.11749999999994998
                },
                {
                    "name": "G3",
                    "midi": 55,
                    "time": 682.199999999995,
                    "velocity": 0.7952755905511811,
                    "duration": 0.11749999999994998
                },
                {
                    "name": "A3",
                    "midi": 57,
                    "time": 682.799999999995,
                    "velocity": 0.7952755905511811,
                    "duration": 0.11749999999994998
                },
                {
                    "name": "C#4",
                    "midi": 61,
                    "time": 683.3999999999949,
                    "velocity": 0.7952755905511811,
                    "duration": 0.11749999999994998
                },
                {
                    "name": "E4",
                    "midi": 64,
                    "time": 683.9999999999948,
                    "velocity": 0.7952755905511811,
                    "duration": 0.11749999999994998
                },
                {
                    "name": "C2",
                    "midi": 36,
                    "time": 684.5999999999947,
                    "velocity": 0.5905511811023622,
                    "duration": 0.11749999999994998
                },
                {
                    "name": "E2",
                    "midi": 40,
                    "time": 685.1999999999946,
                    "velocity": 0.5905511811023622,
                    "duration": 0.11749999999994998
                },
                {
                    "name": "G2",
                    "midi": 43,
                    "time": 685.7999999999945,
                    "velocity": 0.5905511811023622,
                    "duration": 0.11749999999994998
                },
                {
                    "name": "A2",
                    "midi": 45,
                    "time": 686.3999999999944,
                    "velocity": 0.5905511811023622,
                    "duration": 0.11749999999994998
                },
                {
                    "name": "C#3",
                    "midi": 49,
                    "time": 686.9999999999943,
                    "velocity": 0.5905511811023622,
                    "duration": 0.11749999999994998
                },
                {
                    "name": "E3",
                    "midi": 52,
                    "time": 687.5999999999942,
                    "velocity": 0.5905511811023622,
                    "duration": 0.11749999999994998
                },
                {
                    "name": "G3",
                    "midi": 55,
                    "time": 688.1999999999941,
                    "velocity": 0.5905511811023622,
                    "duration": 0.11749999999994998
                },
                {
                    "name": "C4",
                    "midi": 60,
                    "time": 688.799999999994,
                    "velocity": 0.5905511811023622,
                    "duration": 0.11749999999994998
                },
                {
                    "name": "E4",
                    "midi": 64,
                    "time": 689.399999999994,
                    "velocity": 0.5905511811023622,
                    "duration": 0.11749999999994998
                },
                {
                    "name": "A4",
                    "midi": 69,
                    "time": 689.9999999999939,
                    "velocity": 0.8976377952755905,
                    "duration": 1.2000000000000455
                },
                {
                    "name": "D4",
                    "midi": 62,
                    "time": 691.1999999999939,
                    "velocity": 0.6929133858267716,
                    "duration": 0.6000000000000227
                },
                {
                    "name": "A4",
                    "midi": 69,
                    "time": 691.7999999999939,
                    "velocity": 0.8976377952755905,
                    "duration": 1.2000000000000455
                },
                {
                    "name": "D4",
                    "midi": 62,
                    "time": 692.999999999994,
                    "velocity": 0.6929133858267716,
                    "duration": 0.6000000000000227
                },
                {
                    "name": "A4",
                    "midi": 69,
                    "time": 693.599999999994,
                    "velocity": 0.8976377952755905,
                    "duration": 1.2000000000000455
                },
                {
                    "name": "D4",
                    "midi": 62,
                    "time": 694.799999999994,
                    "velocity": 0.6929133858267716,
                    "duration": 1.2000000000000455
                },
                {
                    "name": "A4",
                    "midi": 69,
                    "time": 695.9999999999941,
                    "velocity": 0.6929133858267716,
                    "duration": 0.6000000000000227
                },
                {
                    "name": "D4",
                    "midi": 62,
                    "time": 696.5999999999941,
                    "velocity": 0.6929133858267716,
                    "duration": 0.6000000000000227
                },
                {
                    "name": "A4",
                    "midi": 69,
                    "time": 697.1999999999941,
                    "velocity": 0.6929133858267716,
                    "duration": 0.6000000000000227
                },
                {
                    "name": "G4",
                    "midi": 67,
                    "time": 697.7999999999942,
                    "velocity": 0.5905511811023622,
                    "duration": 0.6000000000000227
                },
                {
                    "name": "A#4",
                    "midi": 70,
                    "time": 697.7999999999942,
                    "velocity": 0.5905511811023622,
                    "duration": 0.6000000000000227
                },
                {
                    "name": "C#5",
                    "midi": 73,
                    "time": 697.7999999999942,
                    "velocity": 0.5905511811023622,
                    "duration": 0.6000000000000227
                },
                {
                    "name": "D#5",
                    "midi": 75,
                    "time": 697.7999999999942,
                    "velocity": 0.5905511811023622,
                    "duration": 0.6000000000000227
                },
                {
                    "name": "G4",
                    "midi": 67,
                    "time": 698.3999999999942,
                    "velocity": 0.5905511811023622,
                    "duration": 0.6000000000000227
                },
                {
                    "name": "A#4",
                    "midi": 70,
                    "time": 698.3999999999942,
                    "velocity": 0.5905511811023622,
                    "duration": 0.6000000000000227
                },
                {
                    "name": "C#5",
                    "midi": 73,
                    "time": 698.3999999999942,
                    "velocity": 0.5905511811023622,
                    "duration": 0.6000000000000227
                },
                {
                    "name": "D#5",
                    "midi": 75,
                    "time": 698.3999999999942,
                    "velocity": 0.5905511811023622,
                    "duration": 0.6000000000000227
                },
                {
                    "name": "G4",
                    "midi": 67,
                    "time": 698.9999999999942,
                    "velocity": 0.5905511811023622,
                    "duration": 0.6000000000000227
                },
                {
                    "name": "A#4",
                    "midi": 70,
                    "time": 698.9999999999942,
                    "velocity": 0.5905511811023622,
                    "duration": 0.6000000000000227
                },
                {
                    "name": "C#5",
                    "midi": 73,
                    "time": 698.9999999999942,
                    "velocity": 0.5905511811023622,
                    "duration": 0.6000000000000227
                },
                {
                    "name": "D#5",
                    "midi": 75,
                    "time": 698.9999999999942,
                    "velocity": 0.5905511811023622,
                    "duration": 0.6000000000000227
                },
                {
                    "name": "G4",
                    "midi": 67,
                    "time": 699.5999999999942,
                    "velocity": 0.7952755905511811,
                    "duration": 0.6000000000000227
                },
                {
                    "name": "A#4",
                    "midi": 70,
                    "time": 699.5999999999942,
                    "velocity": 0.7952755905511811,
                    "duration": 0.6000000000000227
                },
                {
                    "name": "C#5",
                    "midi": 73,
                    "time": 699.5999999999942,
                    "velocity": 0.7952755905511811,
                    "duration": 0.6000000000000227
                },
                {
                    "name": "D#5",
                    "midi": 75,
                    "time": 699.5999999999942,
                    "velocity": 0.7952755905511811,
                    "duration": 0.6000000000000227
                },
                {
                    "name": "G4",
                    "midi": 67,
                    "time": 700.1999999999942,
                    "velocity": 0.5905511811023622,
                    "duration": 0.6000000000000227
                },
                {
                    "name": "A#4",
                    "midi": 70,
                    "time": 700.1999999999942,
                    "velocity": 0.5905511811023622,
                    "duration": 0.6000000000000227
                },
                {
                    "name": "C#5",
                    "midi": 73,
                    "time": 700.1999999999942,
                    "velocity": 0.5905511811023622,
                    "duration": 0.6000000000000227
                },
                {
                    "name": "D#5",
                    "midi": 75,
                    "time": 700.1999999999942,
                    "velocity": 0.5905511811023622,
                    "duration": 0.6000000000000227
                },
                {
                    "name": "G4",
                    "midi": 67,
                    "time": 700.7999999999943,
                    "velocity": 0.5905511811023622,
                    "duration": 0.6000000000000227
                },
                {
                    "name": "A#4",
                    "midi": 70,
                    "time": 700.7999999999943,
                    "velocity": 0.5905511811023622,
                    "duration": 0.6000000000000227
                },
                {
                    "name": "C#5",
                    "midi": 73,
                    "time": 700.7999999999943,
                    "velocity": 0.5905511811023622,
                    "duration": 0.6000000000000227
                },
                {
                    "name": "D#5",
                    "midi": 75,
                    "time": 700.7999999999943,
                    "velocity": 0.5905511811023622,
                    "duration": 0.6000000000000227
                },
                {
                    "name": "G4",
                    "midi": 67,
                    "time": 701.3999999999943,
                    "velocity": 0.5905511811023622,
                    "duration": 0.6000000000000227
                },
                {
                    "name": "A#4",
                    "midi": 70,
                    "time": 701.3999999999943,
                    "velocity": 0.5905511811023622,
                    "duration": 0.6000000000000227
                },
                {
                    "name": "C#5",
                    "midi": 73,
                    "time": 701.3999999999943,
                    "velocity": 0.5905511811023622,
                    "duration": 0.6000000000000227
                },
                {
                    "name": "D#5",
                    "midi": 75,
                    "time": 701.3999999999943,
                    "velocity": 0.5905511811023622,
                    "duration": 0.6000000000000227
                },
                {
                    "name": "G4",
                    "midi": 67,
                    "time": 701.9999999999943,
                    "velocity": 0.7952755905511811,
                    "duration": 0.6000000000000227
                },
                {
                    "name": "A#4",
                    "midi": 70,
                    "time": 701.9999999999943,
                    "velocity": 0.7952755905511811,
                    "duration": 0.6000000000000227
                },
                {
                    "name": "C#5",
                    "midi": 73,
                    "time": 701.9999999999943,
                    "velocity": 0.7952755905511811,
                    "duration": 0.6000000000000227
                },
                {
                    "name": "D#5",
                    "midi": 75,
                    "time": 701.9999999999943,
                    "velocity": 0.7952755905511811,
                    "duration": 0.6000000000000227
                },
                {
                    "name": "G4",
                    "midi": 67,
                    "time": 702.5999999999943,
                    "velocity": 0.5905511811023622,
                    "duration": 0.6000000000000227
                },
                {
                    "name": "A#4",
                    "midi": 70,
                    "time": 702.5999999999943,
                    "velocity": 0.5905511811023622,
                    "duration": 0.6000000000000227
                },
                {
                    "name": "C#5",
                    "midi": 73,
                    "time": 702.5999999999943,
                    "velocity": 0.5905511811023622,
                    "duration": 0.6000000000000227
                },
                {
                    "name": "D#5",
                    "midi": 75,
                    "time": 702.5999999999943,
                    "velocity": 0.5905511811023622,
                    "duration": 0.6000000000000227
                },
                {
                    "name": "G4",
                    "midi": 67,
                    "time": 703.1999999999944,
                    "velocity": 0.5905511811023622,
                    "duration": 0.6000000000000227
                },
                {
                    "name": "A#4",
                    "midi": 70,
                    "time": 703.1999999999944,
                    "velocity": 0.5905511811023622,
                    "duration": 0.6000000000000227
                },
                {
                    "name": "C#5",
                    "midi": 73,
                    "time": 703.1999999999944,
                    "velocity": 0.5905511811023622,
                    "duration": 0.6000000000000227
                },
                {
                    "name": "D#5",
                    "midi": 75,
                    "time": 703.1999999999944,
                    "velocity": 0.5905511811023622,
                    "duration": 0.6000000000000227
                },
                {
                    "name": "G4",
                    "midi": 67,
                    "time": 703.7999999999944,
                    "velocity": 0.5905511811023622,
                    "duration": 0.6000000000000227
                },
                {
                    "name": "A#4",
                    "midi": 70,
                    "time": 703.7999999999944,
                    "velocity": 0.5905511811023622,
                    "duration": 0.6000000000000227
                },
                {
                    "name": "C#5",
                    "midi": 73,
                    "time": 703.7999999999944,
                    "velocity": 0.5905511811023622,
                    "duration": 0.6000000000000227
                },
                {
                    "name": "D#5",
                    "midi": 75,
                    "time": 703.7999999999944,
                    "velocity": 0.5905511811023622,
                    "duration": 0.6000000000000227
                },
                {
                    "name": "G4",
                    "midi": 67,
                    "time": 704.3999999999944,
                    "velocity": 0.7952755905511811,
                    "duration": 0.6000000000000227
                },
                {
                    "name": "A#4",
                    "midi": 70,
                    "time": 704.3999999999944,
                    "velocity": 0.7952755905511811,
                    "duration": 0.6000000000000227
                },
                {
                    "name": "C#5",
                    "midi": 73,
                    "time": 704.3999999999944,
                    "velocity": 0.7952755905511811,
                    "duration": 0.6000000000000227
                },
                {
                    "name": "D#5",
                    "midi": 75,
                    "time": 704.3999999999944,
                    "velocity": 0.7952755905511811,
                    "duration": 0.6000000000000227
                },
                {
                    "name": "G4",
                    "midi": 67,
                    "time": 704.9999999999944,
                    "velocity": 0.5905511811023622,
                    "duration": 0.6000000000000227
                },
                {
                    "name": "A#4",
                    "midi": 70,
                    "time": 704.9999999999944,
                    "velocity": 0.5905511811023622,
                    "duration": 0.6000000000000227
                },
                {
                    "name": "C#5",
                    "midi": 73,
                    "time": 704.9999999999944,
                    "velocity": 0.5905511811023622,
                    "duration": 0.6000000000000227
                },
                {
                    "name": "D#5",
                    "midi": 75,
                    "time": 704.9999999999944,
                    "velocity": 0.5905511811023622,
                    "duration": 0.6000000000000227
                },
                {
                    "name": "G4",
                    "midi": 67,
                    "time": 705.5999999999945,
                    "velocity": 0.5905511811023622,
                    "duration": 0.6000000000000227
                },
                {
                    "name": "A#4",
                    "midi": 70,
                    "time": 705.5999999999945,
                    "velocity": 0.5905511811023622,
                    "duration": 0.6000000000000227
                },
                {
                    "name": "C#5",
                    "midi": 73,
                    "time": 705.5999999999945,
                    "velocity": 0.5905511811023622,
                    "duration": 0.6000000000000227
                },
                {
                    "name": "D#5",
                    "midi": 75,
                    "time": 705.5999999999945,
                    "velocity": 0.5905511811023622,
                    "duration": 0.6000000000000227
                },
                {
                    "name": "G4",
                    "midi": 67,
                    "time": 706.1999999999945,
                    "velocity": 0.5905511811023622,
                    "duration": 0.6000000000000227
                },
                {
                    "name": "A#4",
                    "midi": 70,
                    "time": 706.1999999999945,
                    "velocity": 0.5905511811023622,
                    "duration": 0.6000000000000227
                },
                {
                    "name": "C#5",
                    "midi": 73,
                    "time": 706.1999999999945,
                    "velocity": 0.5905511811023622,
                    "duration": 0.6000000000000227
                },
                {
                    "name": "D#5",
                    "midi": 75,
                    "time": 706.1999999999945,
                    "velocity": 0.5905511811023622,
                    "duration": 0.6000000000000227
                },
                {
                    "name": "G4",
                    "midi": 67,
                    "time": 706.7999999999945,
                    "velocity": 0.7952755905511811,
                    "duration": 0.6000000000000227
                },
                {
                    "name": "A#4",
                    "midi": 70,
                    "time": 706.7999999999945,
                    "velocity": 0.7952755905511811,
                    "duration": 0.6000000000000227
                },
                {
                    "name": "C#5",
                    "midi": 73,
                    "time": 706.7999999999945,
                    "velocity": 0.7952755905511811,
                    "duration": 0.6000000000000227
                },
                {
                    "name": "D#5",
                    "midi": 75,
                    "time": 706.7999999999945,
                    "velocity": 0.7952755905511811,
                    "duration": 0.6000000000000227
                },
                {
                    "name": "G4",
                    "midi": 67,
                    "time": 707.3999999999945,
                    "velocity": 0.5905511811023622,
                    "duration": 0.6000000000000227
                },
                {
                    "name": "A#4",
                    "midi": 70,
                    "time": 707.3999999999945,
                    "velocity": 0.5905511811023622,
                    "duration": 0.6000000000000227
                },
                {
                    "name": "C#5",
                    "midi": 73,
                    "time": 707.3999999999945,
                    "velocity": 0.5905511811023622,
                    "duration": 0.6000000000000227
                },
                {
                    "name": "D#5",
                    "midi": 75,
                    "time": 707.3999999999945,
                    "velocity": 0.5905511811023622,
                    "duration": 0.6000000000000227
                },
                {
                    "name": "G4",
                    "midi": 67,
                    "time": 707.9999999999945,
                    "velocity": 0.5905511811023622,
                    "duration": 0.6000000000000227
                },
                {
                    "name": "A#4",
                    "midi": 70,
                    "time": 707.9999999999945,
                    "velocity": 0.5905511811023622,
                    "duration": 0.6000000000000227
                },
                {
                    "name": "C#5",
                    "midi": 73,
                    "time": 707.9999999999945,
                    "velocity": 0.5905511811023622,
                    "duration": 0.6000000000000227
                },
                {
                    "name": "D#5",
                    "midi": 75,
                    "time": 707.9999999999945,
                    "velocity": 0.5905511811023622,
                    "duration": 0.6000000000000227
                },
                {
                    "name": "G4",
                    "midi": 67,
                    "time": 708.5999999999946,
                    "velocity": 0.5905511811023622,
                    "duration": 0.6000000000000227
                },
                {
                    "name": "A#4",
                    "midi": 70,
                    "time": 708.5999999999946,
                    "velocity": 0.5905511811023622,
                    "duration": 0.6000000000000227
                },
                {
                    "name": "C#5",
                    "midi": 73,
                    "time": 708.5999999999946,
                    "velocity": 0.5905511811023622,
                    "duration": 0.6000000000000227
                },
                {
                    "name": "D#5",
                    "midi": 75,
                    "time": 708.5999999999946,
                    "velocity": 0.5905511811023622,
                    "duration": 0.6000000000000227
                },
                {
                    "name": "G4",
                    "midi": 67,
                    "time": 709.1999999999946,
                    "velocity": 0.7952755905511811,
                    "duration": 0.6000000000000227
                },
                {
                    "name": "A#4",
                    "midi": 70,
                    "time": 709.1999999999946,
                    "velocity": 0.7952755905511811,
                    "duration": 0.6000000000000227
                },
                {
                    "name": "C#5",
                    "midi": 73,
                    "time": 709.1999999999946,
                    "velocity": 0.7952755905511811,
                    "duration": 0.6000000000000227
                },
                {
                    "name": "D#5",
                    "midi": 75,
                    "time": 709.1999999999946,
                    "velocity": 0.7952755905511811,
                    "duration": 0.6000000000000227
                },
                {
                    "name": "G4",
                    "midi": 67,
                    "time": 709.7999999999946,
                    "velocity": 0.5905511811023622,
                    "duration": 0.6000000000000227
                },
                {
                    "name": "A#4",
                    "midi": 70,
                    "time": 709.7999999999946,
                    "velocity": 0.5905511811023622,
                    "duration": 0.6000000000000227
                },
                {
                    "name": "C#5",
                    "midi": 73,
                    "time": 709.7999999999946,
                    "velocity": 0.5905511811023622,
                    "duration": 0.6000000000000227
                },
                {
                    "name": "D#5",
                    "midi": 75,
                    "time": 709.7999999999946,
                    "velocity": 0.5905511811023622,
                    "duration": 0.6000000000000227
                },
                {
                    "name": "G4",
                    "midi": 67,
                    "time": 710.3999999999946,
                    "velocity": 0.5905511811023622,
                    "duration": 0.6000000000000227
                },
                {
                    "name": "A#4",
                    "midi": 70,
                    "time": 710.3999999999946,
                    "velocity": 0.5905511811023622,
                    "duration": 0.6000000000000227
                },
                {
                    "name": "C#5",
                    "midi": 73,
                    "time": 710.3999999999946,
                    "velocity": 0.5905511811023622,
                    "duration": 0.6000000000000227
                },
                {
                    "name": "D#5",
                    "midi": 75,
                    "time": 710.3999999999946,
                    "velocity": 0.5905511811023622,
                    "duration": 0.6000000000000227
                },
                {
                    "name": "G4",
                    "midi": 67,
                    "time": 710.9999999999947,
                    "velocity": 0.5905511811023622,
                    "duration": 0.6000000000000227
                },
                {
                    "name": "A#4",
                    "midi": 70,
                    "time": 710.9999999999947,
                    "velocity": 0.5905511811023622,
                    "duration": 0.6000000000000227
                },
                {
                    "name": "C#5",
                    "midi": 73,
                    "time": 710.9999999999947,
                    "velocity": 0.5905511811023622,
                    "duration": 0.6000000000000227
                },
                {
                    "name": "D#5",
                    "midi": 75,
                    "time": 710.9999999999947,
                    "velocity": 0.5905511811023622,
                    "duration": 0.6000000000000227
                },
                {
                    "name": "G4",
                    "midi": 67,
                    "time": 711.5999999999947,
                    "velocity": 0.7952755905511811,
                    "duration": 0.6000000000000227
                },
                {
                    "name": "A#4",
                    "midi": 70,
                    "time": 711.5999999999947,
                    "velocity": 0.7952755905511811,
                    "duration": 0.6000000000000227
                },
                {
                    "name": "C#5",
                    "midi": 73,
                    "time": 711.5999999999947,
                    "velocity": 0.7952755905511811,
                    "duration": 0.6000000000000227
                },
                {
                    "name": "D#5",
                    "midi": 75,
                    "time": 711.5999999999947,
                    "velocity": 0.7952755905511811,
                    "duration": 0.6000000000000227
                },
                {
                    "name": "G4",
                    "midi": 67,
                    "time": 712.1999999999947,
                    "velocity": 0.5905511811023622,
                    "duration": 0.6000000000000227
                },
                {
                    "name": "A#4",
                    "midi": 70,
                    "time": 712.1999999999947,
                    "velocity": 0.5905511811023622,
                    "duration": 0.6000000000000227
                },
                {
                    "name": "C#5",
                    "midi": 73,
                    "time": 712.1999999999947,
                    "velocity": 0.5905511811023622,
                    "duration": 0.6000000000000227
                },
                {
                    "name": "D#5",
                    "midi": 75,
                    "time": 712.1999999999947,
                    "velocity": 0.5905511811023622,
                    "duration": 0.6000000000000227
                },
                {
                    "name": "G4",
                    "midi": 67,
                    "time": 712.7999999999947,
                    "velocity": 0.5905511811023622,
                    "duration": 0.6000000000000227
                },
                {
                    "name": "A#4",
                    "midi": 70,
                    "time": 712.7999999999947,
                    "velocity": 0.5905511811023622,
                    "duration": 0.6000000000000227
                },
                {
                    "name": "C#5",
                    "midi": 73,
                    "time": 712.7999999999947,
                    "velocity": 0.5905511811023622,
                    "duration": 0.6000000000000227
                },
                {
                    "name": "D#5",
                    "midi": 75,
                    "time": 712.7999999999947,
                    "velocity": 0.5905511811023622,
                    "duration": 0.6000000000000227
                },
                {
                    "name": "G4",
                    "midi": 67,
                    "time": 713.3999999999947,
                    "velocity": 0.5905511811023622,
                    "duration": 0.6000000000000227
                },
                {
                    "name": "A#4",
                    "midi": 70,
                    "time": 713.3999999999947,
                    "velocity": 0.5905511811023622,
                    "duration": 0.6000000000000227
                },
                {
                    "name": "C#5",
                    "midi": 73,
                    "time": 713.3999999999947,
                    "velocity": 0.5905511811023622,
                    "duration": 0.6000000000000227
                },
                {
                    "name": "D#5",
                    "midi": 75,
                    "time": 713.3999999999947,
                    "velocity": 0.5905511811023622,
                    "duration": 0.6000000000000227
                },
                {
                    "name": "G4",
                    "midi": 67,
                    "time": 713.9999999999948,
                    "velocity": 0.5905511811023622,
                    "duration": 0.6000000000000227
                },
                {
                    "name": "A#4",
                    "midi": 70,
                    "time": 713.9999999999948,
                    "velocity": 0.5905511811023622,
                    "duration": 0.6000000000000227
                },
                {
                    "name": "C#5",
                    "midi": 73,
                    "time": 713.9999999999948,
                    "velocity": 0.5905511811023622,
                    "duration": 0.6000000000000227
                },
                {
                    "name": "D#5",
                    "midi": 75,
                    "time": 713.9999999999948,
                    "velocity": 0.5905511811023622,
                    "duration": 0.6000000000000227
                },
                {
                    "name": "G4",
                    "midi": 67,
                    "time": 714.5999999999948,
                    "velocity": 0.5905511811023622,
                    "duration": 0.6000000000000227
                },
                {
                    "name": "A#4",
                    "midi": 70,
                    "time": 714.5999999999948,
                    "velocity": 0.5905511811023622,
                    "duration": 0.6000000000000227
                },
                {
                    "name": "C#5",
                    "midi": 73,
                    "time": 714.5999999999948,
                    "velocity": 0.5905511811023622,
                    "duration": 0.6000000000000227
                },
                {
                    "name": "D#5",
                    "midi": 75,
                    "time": 714.5999999999948,
                    "velocity": 0.5905511811023622,
                    "duration": 0.6000000000000227
                },
                {
                    "name": "G4",
                    "midi": 67,
                    "time": 715.1999999999948,
                    "velocity": 0.5905511811023622,
                    "duration": 0.6000000000000227
                },
                {
                    "name": "A#4",
                    "midi": 70,
                    "time": 715.1999999999948,
                    "velocity": 0.5905511811023622,
                    "duration": 0.6000000000000227
                },
                {
                    "name": "C#5",
                    "midi": 73,
                    "time": 715.1999999999948,
                    "velocity": 0.5905511811023622,
                    "duration": 0.6000000000000227
                },
                {
                    "name": "D#5",
                    "midi": 75,
                    "time": 715.1999999999948,
                    "velocity": 0.5905511811023622,
                    "duration": 0.6000000000000227
                },
                {
                    "name": "G4",
                    "midi": 67,
                    "time": 715.7999999999948,
                    "velocity": 0.5905511811023622,
                    "duration": 0.6000000000000227
                },
                {
                    "name": "A#4",
                    "midi": 70,
                    "time": 715.7999999999948,
                    "velocity": 0.5905511811023622,
                    "duration": 0.6000000000000227
                },
                {
                    "name": "C#5",
                    "midi": 73,
                    "time": 715.7999999999948,
                    "velocity": 0.5905511811023622,
                    "duration": 0.6000000000000227
                },
                {
                    "name": "D#5",
                    "midi": 75,
                    "time": 715.7999999999948,
                    "velocity": 0.5905511811023622,
                    "duration": 0.6000000000000227
                },
                {
                    "name": "G4",
                    "midi": 67,
                    "time": 716.3999999999949,
                    "velocity": 0.7952755905511811,
                    "duration": 0.6000000000000227
                },
                {
                    "name": "A#4",
                    "midi": 70,
                    "time": 716.3999999999949,
                    "velocity": 0.7952755905511811,
                    "duration": 0.6000000000000227
                },
                {
                    "name": "C#5",
                    "midi": 73,
                    "time": 716.3999999999949,
                    "velocity": 0.7952755905511811,
                    "duration": 0.6000000000000227
                },
                {
                    "name": "D#5",
                    "midi": 75,
                    "time": 716.3999999999949,
                    "velocity": 0.7952755905511811,
                    "duration": 0.6000000000000227
                },
                {
                    "name": "G4",
                    "midi": 67,
                    "time": 716.9999999999949,
                    "velocity": 0.5905511811023622,
                    "duration": 0.6000000000000227
                },
                {
                    "name": "A#4",
                    "midi": 70,
                    "time": 716.9999999999949,
                    "velocity": 0.5905511811023622,
                    "duration": 0.6000000000000227
                },
                {
                    "name": "C#5",
                    "midi": 73,
                    "time": 716.9999999999949,
                    "velocity": 0.5905511811023622,
                    "duration": 0.6000000000000227
                },
                {
                    "name": "D#5",
                    "midi": 75,
                    "time": 716.9999999999949,
                    "velocity": 0.5905511811023622,
                    "duration": 0.6000000000000227
                },
                {
                    "name": "G4",
                    "midi": 67,
                    "time": 717.5999999999949,
                    "velocity": 0.5905511811023622,
                    "duration": 0.6000000000000227
                },
                {
                    "name": "A#4",
                    "midi": 70,
                    "time": 717.5999999999949,
                    "velocity": 0.5905511811023622,
                    "duration": 0.6000000000000227
                },
                {
                    "name": "C#5",
                    "midi": 73,
                    "time": 717.5999999999949,
                    "velocity": 0.5905511811023622,
                    "duration": 0.6000000000000227
                },
                {
                    "name": "D#5",
                    "midi": 75,
                    "time": 717.5999999999949,
                    "velocity": 0.5905511811023622,
                    "duration": 0.6000000000000227
                },
                {
                    "name": "G4",
                    "midi": 67,
                    "time": 718.1999999999949,
                    "velocity": 0.5905511811023622,
                    "duration": 0.6000000000000227
                },
                {
                    "name": "A#4",
                    "midi": 70,
                    "time": 718.1999999999949,
                    "velocity": 0.5905511811023622,
                    "duration": 0.6000000000000227
                },
                {
                    "name": "C#5",
                    "midi": 73,
                    "time": 718.1999999999949,
                    "velocity": 0.5905511811023622,
                    "duration": 0.6000000000000227
                },
                {
                    "name": "D#5",
                    "midi": 75,
                    "time": 718.1999999999949,
                    "velocity": 0.5905511811023622,
                    "duration": 0.6000000000000227
                },
                {
                    "name": "G4",
                    "midi": 67,
                    "time": 718.799999999995,
                    "velocity": 0.7952755905511811,
                    "duration": 0.6000000000000227
                },
                {
                    "name": "A#4",
                    "midi": 70,
                    "time": 718.799999999995,
                    "velocity": 0.7952755905511811,
                    "duration": 0.6000000000000227
                },
                {
                    "name": "C#5",
                    "midi": 73,
                    "time": 718.799999999995,
                    "velocity": 0.7952755905511811,
                    "duration": 0.6000000000000227
                },
                {
                    "name": "D#5",
                    "midi": 75,
                    "time": 718.799999999995,
                    "velocity": 0.7952755905511811,
                    "duration": 0.6000000000000227
                },
                {
                    "name": "G4",
                    "midi": 67,
                    "time": 719.399999999995,
                    "velocity": 0.5905511811023622,
                    "duration": 0.6000000000000227
                },
                {
                    "name": "A#4",
                    "midi": 70,
                    "time": 719.399999999995,
                    "velocity": 0.5905511811023622,
                    "duration": 0.6000000000000227
                },
                {
                    "name": "C#5",
                    "midi": 73,
                    "time": 719.399999999995,
                    "velocity": 0.5905511811023622,
                    "duration": 0.6000000000000227
                },
                {
                    "name": "D#5",
                    "midi": 75,
                    "time": 719.399999999995,
                    "velocity": 0.5905511811023622,
                    "duration": 0.6000000000000227
                },
                {
                    "name": "G4",
                    "midi": 67,
                    "time": 719.999999999995,
                    "velocity": 0.5905511811023622,
                    "duration": 0.6000000000000227
                },
                {
                    "name": "A#4",
                    "midi": 70,
                    "time": 719.999999999995,
                    "velocity": 0.5905511811023622,
                    "duration": 0.6000000000000227
                },
                {
                    "name": "C#5",
                    "midi": 73,
                    "time": 719.999999999995,
                    "velocity": 0.5905511811023622,
                    "duration": 0.6000000000000227
                },
                {
                    "name": "D#5",
                    "midi": 75,
                    "time": 719.999999999995,
                    "velocity": 0.5905511811023622,
                    "duration": 0.6000000000000227
                },
                {
                    "name": "F#4",
                    "midi": 66,
                    "time": 720.599999999995,
                    "velocity": 0.8976377952755905,
                    "duration": 0.6000000000000227
                },
                {
                    "name": "F4",
                    "midi": 65,
                    "time": 721.199999999995,
                    "velocity": 0.8976377952755905,
                    "duration": 0.6000000000000227
                },
                {
                    "name": "E4",
                    "midi": 64,
                    "time": 721.7999999999951,
                    "velocity": 0.8976377952755905,
                    "duration": 0.6000000000000227
                },
                {
                    "name": "D#4",
                    "midi": 63,
                    "time": 722.199999999995,
                    "velocity": 0.6929133858267716,
                    "duration": 1.1000000000000227
                },
                {
                    "name": "F#4",
                    "midi": 66,
                    "time": 722.2999999999951,
                    "velocity": 0.6929133858267716,
                    "duration": 1
                },
                {
                    "name": "C5",
                    "midi": 72,
                    "time": 722.3999999999951,
                    "velocity": 0.5905511811023622,
                    "duration": 0.8999999999999773
                },
                {
                    "name": "C2",
                    "midi": 36,
                    "time": 723.2999999999951,
                    "velocity": 0.7952755905511811,
                    "duration": 0.17999999999994998
                },
                {
                    "name": "G#3",
                    "midi": 56,
                    "time": 724.199999999995,
                    "velocity": 0.5905511811023622,
                    "duration": 0.17999999999994998
                },
                {
                    "name": "C4",
                    "midi": 60,
                    "time": 724.199999999995,
                    "velocity": 0.5905511811023622,
                    "duration": 0.17999999999994998
                },
                {
                    "name": "F#4",
                    "midi": 66,
                    "time": 724.199999999995,
                    "velocity": 0.5905511811023622,
                    "duration": 0.17999999999994998
                },
                {
                    "name": "B2",
                    "midi": 47,
                    "time": 725.099999999995,
                    "velocity": 0.7952755905511811,
                    "duration": 0.8999999999999773
                },
                {
                    "name": "C2",
                    "midi": 36,
                    "time": 725.999999999995,
                    "velocity": 0.7952755905511811,
                    "duration": 0.17999999999994998
                },
                {
                    "name": "G#3",
                    "midi": 56,
                    "time": 727.799999999995,
                    "velocity": 0.5905511811023622,
                    "duration": 0.17999999999994998
                },
                {
                    "name": "C4",
                    "midi": 60,
                    "time": 727.799999999995,
                    "velocity": 0.5905511811023622,
                    "duration": 0.17999999999994998
                },
                {
                    "name": "F#4",
                    "midi": 66,
                    "time": 727.799999999995,
                    "velocity": 0.5905511811023622,
                    "duration": 0.17999999999994998
                },
                {
                    "name": "B2",
                    "midi": 47,
                    "time": 728.6999999999949,
                    "velocity": 0.7952755905511811,
                    "duration": 0.8999999999999773
                },
                {
                    "name": "C2",
                    "midi": 36,
                    "time": 730.4999999999949,
                    "velocity": 0.7952755905511811,
                    "duration": 0.17999999999994998
                },
                {
                    "name": "F#3",
                    "midi": 54,
                    "time": 731.1999999999948,
                    "velocity": 0.5905511811023622,
                    "duration": 1.1000000000000227
                },
                {
                    "name": "A3",
                    "midi": 57,
                    "time": 731.2999999999948,
                    "velocity": 0.5905511811023622,
                    "duration": 1
                },
                {
                    "name": "C4",
                    "midi": 60,
                    "time": 731.3999999999949,
                    "velocity": 0.5905511811023622,
                    "duration": 0.8999999999999773
                },
                {
                    "name": "B2",
                    "midi": 47,
                    "time": 732.2999999999948,
                    "velocity": 0.7952755905511811,
                    "duration": 0.17999999999994998
                },
                {
                    "name": "C2",
                    "midi": 36,
                    "time": 733.1999999999948,
                    "velocity": 0.7952755905511811,
                    "duration": 0.11749999999994998
                },
                {
                    "name": "A#3",
                    "midi": 58,
                    "time": 733.7999999999947,
                    "velocity": 0.5905511811023622,
                    "duration": 0.6000000000000227
                },
                {
                    "name": "D4",
                    "midi": 62,
                    "time": 733.7999999999947,
                    "velocity": 0.5905511811023622,
                    "duration": 0.6000000000000227
                },
                {
                    "name": "F4",
                    "midi": 65,
                    "time": 733.7999999999947,
                    "velocity": 0.5905511811023622,
                    "duration": 0.6000000000000227
                },
                {
                    "name": "G#3",
                    "midi": 56,
                    "time": 734.3999999999947,
                    "velocity": 0.5905511811023622,
                    "duration": 0.6000000000000227
                },
                {
                    "name": "C4",
                    "midi": 60,
                    "time": 734.3999999999947,
                    "velocity": 0.5905511811023622,
                    "duration": 0.6000000000000227
                },
                {
                    "name": "D#4",
                    "midi": 63,
                    "time": 734.3999999999947,
                    "velocity": 0.5905511811023622,
                    "duration": 0.6000000000000227
                },
                {
                    "name": "A1",
                    "midi": 33,
                    "time": 734.9999999999948,
                    "velocity": 1,
                    "duration": 0.11749999999994998
                },
                {
                    "name": "C#2",
                    "midi": 37,
                    "time": 735.5999999999947,
                    "velocity": 1,
                    "duration": 0.11749999999994998
                },
                {
                    "name": "E2",
                    "midi": 40,
                    "time": 736.1999999999946,
                    "velocity": 1,
                    "duration": 0.11749999999994998
                },
                {
                    "name": "C2",
                    "midi": 36,
                    "time": 736.7999999999945,
                    "velocity": 1,
                    "duration": 0.11749999999994998
                },
                {
                    "name": "E2",
                    "midi": 40,
                    "time": 737.3999999999944,
                    "velocity": 1,
                    "duration": 0.11749999999994998
                },
                {
                    "name": "G2",
                    "midi": 43,
                    "time": 737.9999999999943,
                    "velocity": 1,
                    "duration": 0.11749999999994998
                },
                {
                    "name": "A2",
                    "midi": 45,
                    "time": 738.5999999999942,
                    "velocity": 1,
                    "duration": 0.11749999999994998
                },
                {
                    "name": "C#3",
                    "midi": 49,
                    "time": 739.1999999999941,
                    "velocity": 1,
                    "duration": 0.11749999999994998
                },
                {
                    "name": "E3",
                    "midi": 52,
                    "time": 739.799999999994,
                    "velocity": 1,
                    "duration": 0.11749999999994998
                },
                {
                    "name": "C2",
                    "midi": 36,
                    "time": 740.399999999994,
                    "velocity": 1,
                    "duration": 0.11749999999994998
                },
                {
                    "name": "E2",
                    "midi": 40,
                    "time": 740.399999999994,
                    "velocity": 1,
                    "duration": 0.11749999999994998
                },
                {
                    "name": "G2",
                    "midi": 43,
                    "time": 740.399999999994,
                    "velocity": 1,
                    "duration": 0.11749999999994998
                },
                {
                    "name": "E2",
                    "midi": 40,
                    "time": 740.9999999999939,
                    "velocity": 1,
                    "duration": 0.11749999999994998
                },
                {
                    "name": "G#2",
                    "midi": 44,
                    "time": 740.9999999999939,
                    "velocity": 1,
                    "duration": 0.11749999999994998
                },
                {
                    "name": "B2",
                    "midi": 47,
                    "time": 740.9999999999939,
                    "velocity": 1,
                    "duration": 0.11749999999994998
                },
                {
                    "name": "G2",
                    "midi": 43,
                    "time": 741.5999999999938,
                    "velocity": 1,
                    "duration": 0.11749999999994998
                },
                {
                    "name": "B2",
                    "midi": 47,
                    "time": 741.5999999999938,
                    "velocity": 1,
                    "duration": 0.11749999999994998
                },
                {
                    "name": "D3",
                    "midi": 50,
                    "time": 741.5999999999938,
                    "velocity": 1,
                    "duration": 0.11749999999994998
                },
                {
                    "name": "D#2",
                    "midi": 39,
                    "time": 742.1999999999937,
                    "velocity": 1,
                    "duration": 0.11749999999994998
                },
                {
                    "name": "G2",
                    "midi": 43,
                    "time": 742.1999999999937,
                    "velocity": 1,
                    "duration": 0.11749999999994998
                },
                {
                    "name": "A#2",
                    "midi": 46,
                    "time": 742.1999999999937,
                    "velocity": 1,
                    "duration": 0.11749999999994998
                },
                {
                    "name": "G2",
                    "midi": 43,
                    "time": 742.7999999999936,
                    "velocity": 1,
                    "duration": 0.11749999999994998
                },
                {
                    "name": "B2",
                    "midi": 47,
                    "time": 742.7999999999936,
                    "velocity": 1,
                    "duration": 0.11749999999994998
                },
                {
                    "name": "D3",
                    "midi": 50,
                    "time": 742.7999999999936,
                    "velocity": 1,
                    "duration": 0.11749999999994998
                },
                {
                    "name": "A#2",
                    "midi": 46,
                    "time": 743.3999999999935,
                    "velocity": 1,
                    "duration": 0.11749999999994998
                },
                {
                    "name": "D3",
                    "midi": 50,
                    "time": 743.3999999999935,
                    "velocity": 1,
                    "duration": 0.11749999999994998
                },
                {
                    "name": "F3",
                    "midi": 53,
                    "time": 743.3999999999935,
                    "velocity": 1,
                    "duration": 0.11749999999994998
                },
                {
                    "name": "C3",
                    "midi": 48,
                    "time": 743.9999999999934,
                    "velocity": 1,
                    "duration": 0.11749999999994998
                },
                {
                    "name": "E3",
                    "midi": 52,
                    "time": 743.9999999999934,
                    "velocity": 1,
                    "duration": 0.11749999999994998
                },
                {
                    "name": "G3",
                    "midi": 55,
                    "time": 743.9999999999934,
                    "velocity": 1,
                    "duration": 0.11749999999994998
                },
                {
                    "name": "E3",
                    "midi": 52,
                    "time": 744.5999999999933,
                    "velocity": 1,
                    "duration": 0.11749999999994998
                },
                {
                    "name": "G#3",
                    "midi": 56,
                    "time": 744.5999999999933,
                    "velocity": 1,
                    "duration": 0.11749999999994998
                },
                {
                    "name": "B3",
                    "midi": 59,
                    "time": 744.5999999999933,
                    "velocity": 1,
                    "duration": 0.11749999999994998
                },
                {
                    "name": "G3",
                    "midi": 55,
                    "time": 745.1999999999932,
                    "velocity": 1,
                    "duration": 0.11749999999994998
                },
                {
                    "name": "B3",
                    "midi": 59,
                    "time": 745.1999999999932,
                    "velocity": 1,
                    "duration": 0.11749999999994998
                },
                {
                    "name": "D4",
                    "midi": 62,
                    "time": 745.1999999999932,
                    "velocity": 1,
                    "duration": 0.11749999999994998
                },
                {
                    "name": "E2",
                    "midi": 40,
                    "time": 745.7999999999931,
                    "velocity": 0.5905511811023622,
                    "duration": 0.11749999999994998
                },
                {
                    "name": "A2",
                    "midi": 45,
                    "time": 746.399999999993,
                    "velocity": 0.5905511811023622,
                    "duration": 0.11749999999994998
                },
                {
                    "name": "C#3",
                    "midi": 49,
                    "time": 746.999999999993,
                    "velocity": 0.5905511811023622,
                    "duration": 0.11749999999994998
                },
                {
                    "name": "D#3",
                    "midi": 51,
                    "time": 747.5999999999929,
                    "velocity": 0.5905511811023622,
                    "duration": 0.11749999999994998
                },
                {
                    "name": "G3",
                    "midi": 55,
                    "time": 748.1999999999928,
                    "velocity": 0.5905511811023622,
                    "duration": 0.11749999999994998
                },
                {
                    "name": "A#3",
                    "midi": 58,
                    "time": 748.7999999999927,
                    "velocity": 0.5905511811023622,
                    "duration": 0.11749999999994998
                },
                {
                    "name": "E3",
                    "midi": 52,
                    "time": 749.3999999999926,
                    "velocity": 0.5905511811023622,
                    "duration": 0.11749999999994998
                },
                {
                    "name": "G3",
                    "midi": 55,
                    "time": 749.9999999999925,
                    "velocity": 0.5905511811023622,
                    "duration": 0.11749999999994998
                },
                {
                    "name": "C4",
                    "midi": 60,
                    "time": 750.5999999999924,
                    "velocity": 0.5905511811023622,
                    "duration": 0.11749999999994998
                },
                {
                    "name": "A#3",
                    "midi": 58,
                    "time": 751.1999999999923,
                    "velocity": 0.5905511811023622,
                    "duration": 0.11749999999994998
                },
                {
                    "name": "C#4",
                    "midi": 61,
                    "time": 751.7999999999922,
                    "velocity": 0.5905511811023622,
                    "duration": 0.11749999999994998
                },
                {
                    "name": "F#4",
                    "midi": 66,
                    "time": 752.3999999999921,
                    "velocity": 0.5905511811023622,
                    "duration": 0.11749999999994998
                },
                {
                    "name": "E2",
                    "midi": 40,
                    "time": 752.999999999992,
                    "velocity": 0.5905511811023622,
                    "duration": 0.11749999999994998
                },
                {
                    "name": "G2",
                    "midi": 43,
                    "time": 753.599999999992,
                    "velocity": 0.5905511811023622,
                    "duration": 0.11749999999994998
                },
                {
                    "name": "C3",
                    "midi": 48,
                    "time": 754.1999999999919,
                    "velocity": 0.5905511811023622,
                    "duration": 0.11749999999994998
                },
                {
                    "name": "E3",
                    "midi": 52,
                    "time": 754.7999999999918,
                    "velocity": 0.5905511811023622,
                    "duration": 0.11749999999994998
                },
                {
                    "name": "A3",
                    "midi": 57,
                    "time": 755.3999999999917,
                    "velocity": 0.5905511811023622,
                    "duration": 0.11749999999994998
                },
                {
                    "name": "C#4",
                    "midi": 61,
                    "time": 755.9999999999916,
                    "velocity": 0.5905511811023622,
                    "duration": 0.11749999999994998
                },
                {
                    "name": "A#2",
                    "midi": 46,
                    "time": 756.5999999999915,
                    "velocity": 0.5905511811023622,
                    "duration": 0.11749999999994998
                },
                {
                    "name": "C#3",
                    "midi": 49,
                    "time": 757.1999999999914,
                    "velocity": 0.5905511811023622,
                    "duration": 0.11749999999994998
                },
                {
                    "name": "F#3",
                    "midi": 54,
                    "time": 757.7999999999913,
                    "velocity": 0.5905511811023622,
                    "duration": 0.11749999999994998
                },
                {
                    "name": "A#3",
                    "midi": 58,
                    "time": 758.3999999999912,
                    "velocity": 0.5905511811023622,
                    "duration": 0.11749999999994998
                },
                {
                    "name": "D#4",
                    "midi": 63,
                    "time": 758.9999999999911,
                    "velocity": 0.5905511811023622,
                    "duration": 0.11749999999994998
                },
                {
                    "name": "G4",
                    "midi": 67,
                    "time": 759.599999999991,
                    "velocity": 0.5905511811023622,
                    "duration": 0.11749999999994998
                },
                {
                    "name": "C#2",
                    "midi": 37,
                    "time": 760.199999999991,
                    "velocity": 0.6929133858267716,
                    "duration": 0.11749999999994998
                },
                {
                    "name": "F#2",
                    "midi": 42,
                    "time": 760.7999999999909,
                    "velocity": 0.6929133858267716,
                    "duration": 0.11749999999994998
                },
                {
                    "name": "A#2",
                    "midi": 46,
                    "time": 761.3999999999908,
                    "velocity": 0.6929133858267716,
                    "duration": 0.11749999999994998
                },
                {
                    "name": "C3",
                    "midi": 48,
                    "time": 761.9999999999907,
                    "velocity": 0.6929133858267716,
                    "duration": 0.11749999999994998
                },
                {
                    "name": "E3",
                    "midi": 52,
                    "time": 762.5999999999906,
                    "velocity": 0.6929133858267716,
                    "duration": 0.11749999999994998
                },
                {
                    "name": "G3",
                    "midi": 55,
                    "time": 763.1999999999905,
                    "velocity": 0.6929133858267716,
                    "duration": 0.11749999999994998
                },
                {
                    "name": "G2",
                    "midi": 43,
                    "time": 763.7999999999904,
                    "velocity": 0.6929133858267716,
                    "duration": 0.11749999999994998
                },
                {
                    "name": "A#2",
                    "midi": 46,
                    "time": 764.3999999999903,
                    "velocity": 0.6929133858267716,
                    "duration": 0.11749999999994998
                },
                {
                    "name": "D#3",
                    "midi": 51,
                    "time": 764.9999999999902,
                    "velocity": 0.6929133858267716,
                    "duration": 0.11749999999994998
                },
                {
                    "name": "E3",
                    "midi": 52,
                    "time": 765.5999999999901,
                    "velocity": 0.6929133858267716,
                    "duration": 0.11749999999994998
                },
                {
                    "name": "A3",
                    "midi": 57,
                    "time": 766.19999999999,
                    "velocity": 0.6929133858267716,
                    "duration": 0.11749999999994998
                },
                {
                    "name": "C#4",
                    "midi": 61,
                    "time": 766.79999999999,
                    "velocity": 0.6929133858267716,
                    "duration": 0.11749999999994998
                },
                {
                    "name": "G3",
                    "midi": 55,
                    "time": 767.3999999999899,
                    "velocity": 0.6929133858267716,
                    "duration": 0.6000000000000227
                },
                {
                    "name": "C#4",
                    "midi": 61,
                    "time": 767.3999999999899,
                    "velocity": 0.6929133858267716,
                    "duration": 0.6000000000000227
                },
                {
                    "name": "G4",
                    "midi": 67,
                    "time": 767.3999999999899,
                    "velocity": 0.6929133858267716,
                    "duration": 0.6000000000000227
                },
                {
                    "name": "F4",
                    "midi": 65,
                    "time": 767.9999999999899,
                    "velocity": 0.6929133858267716,
                    "duration": 0.6000000000000227
                },
                {
                    "name": "A4",
                    "midi": 69,
                    "time": 767.9999999999899,
                    "velocity": 0.6929133858267716,
                    "duration": 0.6000000000000227
                },
                {
                    "name": "G4",
                    "midi": 67,
                    "time": 768.5999999999899,
                    "velocity": 0.6929133858267716,
                    "duration": 0.6000000000000227
                },
                {
                    "name": "A#4",
                    "midi": 70,
                    "time": 768.5999999999899,
                    "velocity": 0.6929133858267716,
                    "duration": 0.6000000000000227
                },
                {
                    "name": "F4",
                    "midi": 65,
                    "time": 769.1999999999899,
                    "velocity": 0.6929133858267716,
                    "duration": 0.6000000000000227
                },
                {
                    "name": "A4",
                    "midi": 69,
                    "time": 769.1999999999899,
                    "velocity": 0.6929133858267716,
                    "duration": 0.6000000000000227
                },
                {
                    "name": "D#4",
                    "midi": 63,
                    "time": 769.79999999999,
                    "velocity": 0.6929133858267716,
                    "duration": 0.6000000000000227
                },
                {
                    "name": "G4",
                    "midi": 67,
                    "time": 769.79999999999,
                    "velocity": 0.6929133858267716,
                    "duration": 0.6000000000000227
                },
                {
                    "name": "D4",
                    "midi": 62,
                    "time": 770.39999999999,
                    "velocity": 0.6929133858267716,
                    "duration": 0.6000000000000227
                },
                {
                    "name": "F4",
                    "midi": 65,
                    "time": 770.39999999999,
                    "velocity": 0.6929133858267716,
                    "duration": 0.6000000000000227
                },
                {
                    "name": "G3",
                    "midi": 55,
                    "time": 770.99999999999,
                    "velocity": 0.6929133858267716,
                    "duration": 0.6000000000000227
                },
                {
                    "name": "C#4",
                    "midi": 61,
                    "time": 770.99999999999,
                    "velocity": 0.6929133858267716,
                    "duration": 0.6000000000000227
                },
                {
                    "name": "G4",
                    "midi": 67,
                    "time": 770.99999999999,
                    "velocity": 0.6929133858267716,
                    "duration": 0.6000000000000227
                },
                {
                    "name": "F4",
                    "midi": 65,
                    "time": 771.59999999999,
                    "velocity": 0.6929133858267716,
                    "duration": 0.6000000000000227
                },
                {
                    "name": "A4",
                    "midi": 69,
                    "time": 771.59999999999,
                    "velocity": 0.6929133858267716,
                    "duration": 0.6000000000000227
                },
                {
                    "name": "G4",
                    "midi": 67,
                    "time": 772.19999999999,
                    "velocity": 0.6929133858267716,
                    "duration": 0.6000000000000227
                },
                {
                    "name": "A#4",
                    "midi": 70,
                    "time": 772.19999999999,
                    "velocity": 0.6929133858267716,
                    "duration": 0.6000000000000227
                },
                {
                    "name": "F4",
                    "midi": 65,
                    "time": 772.7999999999901,
                    "velocity": 0.6929133858267716,
                    "duration": 0.6000000000000227
                },
                {
                    "name": "A4",
                    "midi": 69,
                    "time": 772.7999999999901,
                    "velocity": 0.6929133858267716,
                    "duration": 0.6000000000000227
                },
                {
                    "name": "D#4",
                    "midi": 63,
                    "time": 773.3999999999901,
                    "velocity": 0.6929133858267716,
                    "duration": 0.6000000000000227
                },
                {
                    "name": "G4",
                    "midi": 67,
                    "time": 773.3999999999901,
                    "velocity": 0.6929133858267716,
                    "duration": 0.6000000000000227
                },
                {
                    "name": "D4",
                    "midi": 62,
                    "time": 773.9999999999901,
                    "velocity": 0.6929133858267716,
                    "duration": 0.6000000000000227
                },
                {
                    "name": "F4",
                    "midi": 65,
                    "time": 773.9999999999901,
                    "velocity": 0.6929133858267716,
                    "duration": 0.6000000000000227
                },
                {
                    "name": "G3",
                    "midi": 55,
                    "time": 774.5999999999901,
                    "velocity": 0.6929133858267716,
                    "duration": 0.6000000000000227
                },
                {
                    "name": "C#4",
                    "midi": 61,
                    "time": 774.5999999999901,
                    "velocity": 0.6929133858267716,
                    "duration": 0.6000000000000227
                },
                {
                    "name": "G4",
                    "midi": 67,
                    "time": 774.5999999999901,
                    "velocity": 0.6929133858267716,
                    "duration": 0.6000000000000227
                },
                {
                    "name": "F4",
                    "midi": 65,
                    "time": 775.1999999999902,
                    "velocity": 0.6929133858267716,
                    "duration": 0.6000000000000227
                },
                {
                    "name": "A4",
                    "midi": 69,
                    "time": 775.1999999999902,
                    "velocity": 0.6929133858267716,
                    "duration": 0.6000000000000227
                },
                {
                    "name": "G4",
                    "midi": 67,
                    "time": 775.7999999999902,
                    "velocity": 0.6929133858267716,
                    "duration": 0.6000000000000227
                },
                {
                    "name": "A#4",
                    "midi": 70,
                    "time": 775.7999999999902,
                    "velocity": 0.6929133858267716,
                    "duration": 0.6000000000000227
                },
                {
                    "name": "F4",
                    "midi": 65,
                    "time": 776.3999999999902,
                    "velocity": 0.6929133858267716,
                    "duration": 0.6000000000000227
                },
                {
                    "name": "A4",
                    "midi": 69,
                    "time": 776.3999999999902,
                    "velocity": 0.6929133858267716,
                    "duration": 0.6000000000000227
                },
                {
                    "name": "D#4",
                    "midi": 63,
                    "time": 776.9999999999902,
                    "velocity": 0.6929133858267716,
                    "duration": 0.6000000000000227
                },
                {
                    "name": "G4",
                    "midi": 67,
                    "time": 776.9999999999902,
                    "velocity": 0.6929133858267716,
                    "duration": 0.6000000000000227
                },
                {
                    "name": "D4",
                    "midi": 62,
                    "time": 777.5999999999902,
                    "velocity": 0.6929133858267716,
                    "duration": 0.6000000000000227
                },
                {
                    "name": "F4",
                    "midi": 65,
                    "time": 777.5999999999902,
                    "velocity": 0.6929133858267716,
                    "duration": 0.6000000000000227
                },
                {
                    "name": "D#4",
                    "midi": 63,
                    "time": 778.1999999999903,
                    "velocity": 0.6929133858267716,
                    "duration": 0.6000000000000227
                },
                {
                    "name": "G4",
                    "midi": 67,
                    "time": 778.1999999999903,
                    "velocity": 0.6929133858267716,
                    "duration": 0.6000000000000227
                },
                {
                    "name": "G3",
                    "midi": 55,
                    "time": 778.7999999999903,
                    "velocity": 0.6929133858267716,
                    "duration": 0.6000000000000227
                },
                {
                    "name": "C#4",
                    "midi": 61,
                    "time": 778.7999999999903,
                    "velocity": 0.6929133858267716,
                    "duration": 0.6000000000000227
                },
                {
                    "name": "G4",
                    "midi": 67,
                    "time": 778.7999999999903,
                    "velocity": 0.6929133858267716,
                    "duration": 0.6000000000000227
                },
                {
                    "name": "C4",
                    "midi": 60,
                    "time": 779.3999999999903,
                    "velocity": 0.6929133858267716,
                    "duration": 0.6000000000000227
                },
                {
                    "name": "E4",
                    "midi": 64,
                    "time": 779.3999999999903,
                    "velocity": 0.6929133858267716,
                    "duration": 0.6000000000000227
                },
                {
                    "name": "C4",
                    "midi": 60,
                    "time": 779.9999999999903,
                    "velocity": 0.6929133858267716,
                    "duration": 0.6000000000000227
                },
                {
                    "name": "E4",
                    "midi": 64,
                    "time": 779.9999999999903,
                    "velocity": 0.6929133858267716,
                    "duration": 0.6000000000000227
                },
                {
                    "name": "D4",
                    "midi": 62,
                    "time": 780.5999999999904,
                    "velocity": 0.6929133858267716,
                    "duration": 0.6000000000000227
                },
                {
                    "name": "F4",
                    "midi": 65,
                    "time": 780.5999999999904,
                    "velocity": 0.6929133858267716,
                    "duration": 0.6000000000000227
                },
                {
                    "name": "D#4",
                    "midi": 63,
                    "time": 781.1999999999904,
                    "velocity": 0.6929133858267716,
                    "duration": 0.6000000000000227
                },
                {
                    "name": "G4",
                    "midi": 67,
                    "time": 781.1999999999904,
                    "velocity": 0.6929133858267716,
                    "duration": 0.6000000000000227
                },
                {
                    "name": "F4",
                    "midi": 65,
                    "time": 781.7999999999904,
                    "velocity": 0.6929133858267716,
                    "duration": 0.6000000000000227
                },
                {
                    "name": "A4",
                    "midi": 69,
                    "time": 781.7999999999904,
                    "velocity": 0.6929133858267716,
                    "duration": 0.6000000000000227
                },
                {
                    "name": "G3",
                    "midi": 55,
                    "time": 782.3999999999904,
                    "velocity": 0.6929133858267716,
                    "duration": 0.6000000000000227
                },
                {
                    "name": "C#4",
                    "midi": 61,
                    "time": 782.3999999999904,
                    "velocity": 0.6929133858267716,
                    "duration": 0.6000000000000227
                },
                {
                    "name": "G4",
                    "midi": 67,
                    "time": 782.3999999999904,
                    "velocity": 0.6929133858267716,
                    "duration": 0.6000000000000227
                },
                {
                    "name": "F4",
                    "midi": 65,
                    "time": 782.9999999999905,
                    "velocity": 0.6929133858267716,
                    "duration": 0.6000000000000227
                },
                {
                    "name": "A4",
                    "midi": 69,
                    "time": 782.9999999999905,
                    "velocity": 0.6929133858267716,
                    "duration": 0.6000000000000227
                },
                {
                    "name": "G4",
                    "midi": 67,
                    "time": 783.5999999999905,
                    "velocity": 0.6929133858267716,
                    "duration": 0.6000000000000227
                },
                {
                    "name": "A#4",
                    "midi": 70,
                    "time": 783.5999999999905,
                    "velocity": 0.6929133858267716,
                    "duration": 0.6000000000000227
                },
                {
                    "name": "F4",
                    "midi": 65,
                    "time": 784.1999999999905,
                    "velocity": 0.6929133858267716,
                    "duration": 0.6000000000000227
                },
                {
                    "name": "A4",
                    "midi": 69,
                    "time": 784.1999999999905,
                    "velocity": 0.6929133858267716,
                    "duration": 0.6000000000000227
                },
                {
                    "name": "D#4",
                    "midi": 63,
                    "time": 784.7999999999905,
                    "velocity": 0.6929133858267716,
                    "duration": 0.6000000000000227
                },
                {
                    "name": "G4",
                    "midi": 67,
                    "time": 784.7999999999905,
                    "velocity": 0.6929133858267716,
                    "duration": 0.6000000000000227
                },
                {
                    "name": "D4",
                    "midi": 62,
                    "time": 785.3999999999905,
                    "velocity": 0.6929133858267716,
                    "duration": 0.6000000000000227
                },
                {
                    "name": "F4",
                    "midi": 65,
                    "time": 785.3999999999905,
                    "velocity": 0.6929133858267716,
                    "duration": 0.6000000000000227
                },
                {
                    "name": "C4",
                    "midi": 60,
                    "time": 785.9999999999906,
                    "velocity": 0.6929133858267716,
                    "duration": 0.6000000000000227
                },
                {
                    "name": "E4",
                    "midi": 64,
                    "time": 785.9999999999906,
                    "velocity": 0.6929133858267716,
                    "duration": 0.6000000000000227
                },
                {
                    "name": "D4",
                    "midi": 62,
                    "time": 786.5999999999906,
                    "velocity": 0.6929133858267716,
                    "duration": 0.6000000000000227
                },
                {
                    "name": "F4",
                    "midi": 65,
                    "time": 786.5999999999906,
                    "velocity": 0.6929133858267716,
                    "duration": 0.6000000000000227
                },
                {
                    "name": "D#4",
                    "midi": 63,
                    "time": 787.1999999999906,
                    "velocity": 0.6929133858267716,
                    "duration": 0.6000000000000227
                },
                {
                    "name": "G4",
                    "midi": 67,
                    "time": 787.1999999999906,
                    "velocity": 0.6929133858267716,
                    "duration": 0.6000000000000227
                },
                {
                    "name": "F4",
                    "midi": 65,
                    "time": 787.7999999999906,
                    "velocity": 0.6929133858267716,
                    "duration": 0.6000000000000227
                },
                {
                    "name": "A4",
                    "midi": 69,
                    "time": 787.7999999999906,
                    "velocity": 0.6929133858267716,
                    "duration": 0.6000000000000227
                },
                {
                    "name": "C3",
                    "midi": 48,
                    "time": 788.3999999999907,
                    "velocity": 0.6929133858267716,
                    "duration": 0.6000000000000227
                },
                {
                    "name": "F#3",
                    "midi": 54,
                    "time": 788.3999999999907,
                    "velocity": 0.6929133858267716,
                    "duration": 0.6000000000000227
                },
                {
                    "name": "C4",
                    "midi": 60,
                    "time": 788.3999999999907,
                    "velocity": 0.6929133858267716,
                    "duration": 0.6000000000000227
                },
                {
                    "name": "E4",
                    "midi": 64,
                    "time": 788.9999999999907,
                    "velocity": 0.6929133858267716,
                    "duration": 0.6000000000000227
                },
                {
                    "name": "G#4",
                    "midi": 68,
                    "time": 788.9999999999907,
                    "velocity": 0.6929133858267716,
                    "duration": 0.6000000000000227
                },
                {
                    "name": "F#4",
                    "midi": 66,
                    "time": 789.5999999999907,
                    "velocity": 0.6929133858267716,
                    "duration": 0.6000000000000227
                },
                {
                    "name": "A4",
                    "midi": 69,
                    "time": 789.5999999999907,
                    "velocity": 0.6929133858267716,
                    "duration": 0.6000000000000227
                },
                {
                    "name": "E4",
                    "midi": 64,
                    "time": 790.1999999999907,
                    "velocity": 0.6929133858267716,
                    "duration": 0.6000000000000227
                },
                {
                    "name": "G#4",
                    "midi": 68,
                    "time": 790.1999999999907,
                    "velocity": 0.6929133858267716,
                    "duration": 0.6000000000000227
                },
                {
                    "name": "D4",
                    "midi": 62,
                    "time": 790.7999999999907,
                    "velocity": 0.6929133858267716,
                    "duration": 0.6000000000000227
                },
                {
                    "name": "F#4",
                    "midi": 66,
                    "time": 790.7999999999907,
                    "velocity": 0.6929133858267716,
                    "duration": 0.6000000000000227
                },
                {
                    "name": "C#4",
                    "midi": 61,
                    "time": 791.3999999999908,
                    "velocity": 0.6929133858267716,
                    "duration": 0.6000000000000227
                },
                {
                    "name": "E4",
                    "midi": 64,
                    "time": 791.3999999999908,
                    "velocity": 0.6929133858267716,
                    "duration": 0.6000000000000227
                },
                {
                    "name": "C3",
                    "midi": 48,
                    "time": 791.9999999999908,
                    "velocity": 0.6929133858267716,
                    "duration": 0.6000000000000227
                },
                {
                    "name": "F#3",
                    "midi": 54,
                    "time": 791.9999999999908,
                    "velocity": 0.6929133858267716,
                    "duration": 0.6000000000000227
                },
                {
                    "name": "C4",
                    "midi": 60,
                    "time": 791.9999999999908,
                    "velocity": 0.6929133858267716,
                    "duration": 0.6000000000000227
                },
                {
                    "name": "B3",
                    "midi": 59,
                    "time": 792.5999999999908,
                    "velocity": 0.6929133858267716,
                    "duration": 0.6000000000000227
                },
                {
                    "name": "D#4",
                    "midi": 63,
                    "time": 792.5999999999908,
                    "velocity": 0.6929133858267716,
                    "duration": 0.6000000000000227
                },
                {
                    "name": "B3",
                    "midi": 59,
                    "time": 793.1999999999908,
                    "velocity": 0.6929133858267716,
                    "duration": 0.6000000000000227
                },
                {
                    "name": "D#4",
                    "midi": 63,
                    "time": 793.1999999999908,
                    "velocity": 0.6929133858267716,
                    "duration": 0.6000000000000227
                },
                {
                    "name": "C#4",
                    "midi": 61,
                    "time": 793.7999999999909,
                    "velocity": 0.6929133858267716,
                    "duration": 0.6000000000000227
                },
                {
                    "name": "E4",
                    "midi": 64,
                    "time": 793.7999999999909,
                    "velocity": 0.6929133858267716,
                    "duration": 0.6000000000000227
                },
                {
                    "name": "D4",
                    "midi": 62,
                    "time": 794.3999999999909,
                    "velocity": 0.6929133858267716,
                    "duration": 0.6000000000000227
                },
                {
                    "name": "F#4",
                    "midi": 66,
                    "time": 794.3999999999909,
                    "velocity": 0.6929133858267716,
                    "duration": 0.6000000000000227
                },
                {
                    "name": "E4",
                    "midi": 64,
                    "time": 794.9999999999909,
                    "velocity": 0.6929133858267716,
                    "duration": 0.6000000000000227
                },
                {
                    "name": "G#4",
                    "midi": 68,
                    "time": 794.9999999999909,
                    "velocity": 0.6929133858267716,
                    "duration": 0.6000000000000227
                },
                {
                    "name": "D5",
                    "midi": 74,
                    "time": 795.5999999999909,
                    "velocity": 0.5905511811023622,
                    "duration": 1.2000000000000455
                },
                {
                    "name": "A4",
                    "midi": 69,
                    "time": 796.799999999991,
                    "velocity": 0.3858267716535433,
                    "duration": 0.6000000000000227
                },
                {
                    "name": "D5",
                    "midi": 74,
                    "time": 797.399999999991,
                    "velocity": 0.5905511811023622,
                    "duration": 1.2000000000000455
                },
                {
                    "name": "A4",
                    "midi": 69,
                    "time": 798.599999999991,
                    "velocity": 0.3858267716535433,
                    "duration": 0.6000000000000227
                },
                {
                    "name": "D5",
                    "midi": 74,
                    "time": 799.1999999999911,
                    "velocity": 0.5905511811023622,
                    "duration": 1.2000000000000455
                },
                {
                    "name": "A4",
                    "midi": 69,
                    "time": 800.3999999999911,
                    "velocity": 0.3858267716535433,
                    "duration": 0.6000000000000227
                },
                {
                    "name": "D5",
                    "midi": 74,
                    "time": 800.9999999999911,
                    "velocity": 0.3858267716535433,
                    "duration": 0.6000000000000227
                },
                {
                    "name": "A4",
                    "midi": 69,
                    "time": 801.5999999999912,
                    "velocity": 0.3858267716535433,
                    "duration": 0.6000000000000227
                },
                {
                    "name": "D5",
                    "midi": 74,
                    "time": 802.1999999999912,
                    "velocity": 0.3858267716535433,
                    "duration": 0.6000000000000227
                },
                {
                    "name": "A4",
                    "midi": 69,
                    "time": 802.7999999999912,
                    "velocity": 0.3858267716535433,
                    "duration": 2.3999999999999773
                },
                {
                    "name": "D5",
                    "midi": 74,
                    "time": 805.1999999999912,
                    "velocity": 0.3858267716535433,
                    "duration": 0.6000000000000227
                },
                {
                    "name": "A4",
                    "midi": 69,
                    "time": 805.7999999999912,
                    "velocity": 0.3858267716535433,
                    "duration": 0.6000000000000227
                },
                {
                    "name": "D5",
                    "midi": 74,
                    "time": 806.3999999999912,
                    "velocity": 0.3858267716535433,
                    "duration": 0.6000000000000227
                },
                {
                    "name": "A4",
                    "midi": 69,
                    "time": 806.9999999999912,
                    "velocity": 0.3858267716535433,
                    "duration": 0.6000000000000227
                },
                {
                    "name": "D5",
                    "midi": 74,
                    "time": 807.5999999999913,
                    "velocity": 0.3858267716535433,
                    "duration": 0.6000000000000227
                },
                {
                    "name": "A4",
                    "midi": 69,
                    "time": 808.1999999999913,
                    "velocity": 0.3858267716535433,
                    "duration": 2.3999999999999773
                },
                {
                    "name": "D#4",
                    "midi": 63,
                    "time": 811.7999999999913,
                    "velocity": 0.3858267716535433,
                    "duration": 1.7999999999999545
                },
                {
                    "name": "F#4",
                    "midi": 66,
                    "time": 811.7999999999913,
                    "velocity": 0.3858267716535433,
                    "duration": 1.7999999999999545
                },
                {
                    "name": "A4",
                    "midi": 69,
                    "time": 811.7999999999913,
                    "velocity": 0.3858267716535433,
                    "duration": 1.7999999999999545
                },
                {
                    "name": "C4",
                    "midi": 60,
                    "time": 813.5999999999913,
                    "velocity": 0.3858267716535433,
                    "duration": 1.7999999999999545
                },
                {
                    "name": "D#4",
                    "midi": 63,
                    "time": 813.5999999999913,
                    "velocity": 0.3858267716535433,
                    "duration": 1.7999999999999545
                },
                {
                    "name": "F4",
                    "midi": 65,
                    "time": 813.5999999999913,
                    "velocity": 0.3858267716535433,
                    "duration": 1.7999999999999545
                },
                {
                    "name": "C4",
                    "midi": 60,
                    "time": 815.3999999999912,
                    "velocity": 0.3858267716535433,
                    "duration": 1.7999999999999545
                },
                {
                    "name": "D#4",
                    "midi": 63,
                    "time": 815.3999999999912,
                    "velocity": 0.3858267716535433,
                    "duration": 1.7999999999999545
                },
                {
                    "name": "F#4",
                    "midi": 66,
                    "time": 815.3999999999912,
                    "velocity": 0.3858267716535433,
                    "duration": 1.7999999999999545
                },
                {
                    "name": "G#4",
                    "midi": 68,
                    "time": 815.3999999999912,
                    "velocity": 0.3858267716535433,
                    "duration": 1.7999999999999545
                },
                {
                    "name": "A3",
                    "midi": 57,
                    "time": 817.1999999999912,
                    "velocity": 0.3858267716535433,
                    "duration": 1.7999999999999545
                },
                {
                    "name": "C4",
                    "midi": 60,
                    "time": 817.1999999999912,
                    "velocity": 0.3858267716535433,
                    "duration": 1.7999999999999545
                },
                {
                    "name": "D#4",
                    "midi": 63,
                    "time": 817.1999999999912,
                    "velocity": 0.3858267716535433,
                    "duration": 1.7999999999999545
                },
                {
                    "name": "F4",
                    "midi": 65,
                    "time": 817.1999999999912,
                    "velocity": 0.3858267716535433,
                    "duration": 1.7999999999999545
                },
                {
                    "name": "A3",
                    "midi": 57,
                    "time": 818.9999999999911,
                    "velocity": 0.3858267716535433,
                    "duration": 1.7999999999999545
                },
                {
                    "name": "C4",
                    "midi": 60,
                    "time": 818.9999999999911,
                    "velocity": 0.3858267716535433,
                    "duration": 1.7999999999999545
                },
                {
                    "name": "D4",
                    "midi": 62,
                    "time": 818.9999999999911,
                    "velocity": 0.3858267716535433,
                    "duration": 1.7999999999999545
                },
                {
                    "name": "F#4",
                    "midi": 66,
                    "time": 818.9999999999911,
                    "velocity": 0.3858267716535433,
                    "duration": 1.7999999999999545
                },
                {
                    "name": "F3",
                    "midi": 53,
                    "time": 820.7999999999911,
                    "velocity": 0.3858267716535433,
                    "duration": 1.7999999999999545
                },
                {
                    "name": "A3",
                    "midi": 57,
                    "time": 820.7999999999911,
                    "velocity": 0.3858267716535433,
                    "duration": 1.7999999999999545
                },
                {
                    "name": "C4",
                    "midi": 60,
                    "time": 820.7999999999911,
                    "velocity": 0.3858267716535433,
                    "duration": 1.7999999999999545
                },
                {
                    "name": "D#4",
                    "midi": 63,
                    "time": 820.7999999999911,
                    "velocity": 0.3858267716535433,
                    "duration": 1.7999999999999545
                },
                {
                    "name": "A1",
                    "midi": 33,
                    "time": 822.599999999991,
                    "velocity": 1,
                    "duration": 1.7999999999999545
                },
                {
                    "name": "A2",
                    "midi": 45,
                    "time": 822.599999999991,
                    "velocity": 1,
                    "duration": 1.7999999999999545
                },
                {
                    "name": "E2",
                    "midi": 40,
                    "time": 824.399999999991,
                    "velocity": 1,
                    "duration": 1.7999999999999545
                },
                {
                    "name": "E3",
                    "midi": 52,
                    "time": 824.399999999991,
                    "velocity": 1,
                    "duration": 1.7999999999999545
                },
                {
                    "name": "B1",
                    "midi": 35,
                    "time": 826.199999999991,
                    "velocity": 1,
                    "duration": 1.2000000000000455
                },
                {
                    "name": "B2",
                    "midi": 47,
                    "time": 826.199999999991,
                    "velocity": 1,
                    "duration": 1.2000000000000455
                },
                {
                    "name": "F#3",
                    "midi": 54,
                    "time": 827.399999999991,
                    "velocity": 1,
                    "duration": 0.6000000000000227
                },
                {
                    "name": "F#4",
                    "midi": 66,
                    "time": 827.399999999991,
                    "velocity": 1,
                    "duration": 0.6000000000000227
                },
                {
                    "name": "C#3",
                    "midi": 49,
                    "time": 827.999999999991,
                    "velocity": 1,
                    "duration": 3.6000000000000227
                },
                {
                    "name": "C#4",
                    "midi": 61,
                    "time": 827.999999999991,
                    "velocity": 1,
                    "duration": 3.6000000000000227
                },
                {
                    "name": "G#1",
                    "midi": 32,
                    "time": 831.599999999991,
                    "velocity": 1,
                    "duration": 0.6000000000000227
                },
                {
                    "name": "G#2",
                    "midi": 44,
                    "time": 831.599999999991,
                    "velocity": 1,
                    "duration": 0.6000000000000227
                },
                {
                    "name": "D#3",
                    "midi": 51,
                    "time": 832.7999999999911,
                    "velocity": 1,
                    "duration": 0.6000000000000227
                },
                {
                    "name": "D#4",
                    "midi": 63,
                    "time": 832.7999999999911,
                    "velocity": 1,
                    "duration": 0.6000000000000227
                },
                {
                    "name": "A#3",
                    "midi": 58,
                    "time": 833.3999999999911,
                    "velocity": 0.7952755905511811,
                    "duration": 5.399999999999977
                },
                {
                    "name": "A#4",
                    "midi": 70,
                    "time": 833.3999999999911,
                    "velocity": 0.7952755905511811,
                    "duration": 5.399999999999977
                },
                {
                    "name": "F1",
                    "midi": 29,
                    "time": 838.7999999999911,
                    "velocity": 1,
                    "duration": 1.2000000000000455
                },
                {
                    "name": "F2",
                    "midi": 41,
                    "time": 838.7999999999911,
                    "velocity": 1,
                    "duration": 1.2000000000000455
                },
                {
                    "name": "C4",
                    "midi": 60,
                    "time": 840.5999999999912,
                    "velocity": 0.5905511811023622,
                    "duration": 0.11749999999994998
                },
                {
                    "name": "F4",
                    "midi": 65,
                    "time": 841.1999999999911,
                    "velocity": 0.5905511811023622,
                    "duration": 0.11749999999994998
                },
                {
                    "name": "A#4",
                    "midi": 70,
                    "time": 841.799999999991,
                    "velocity": 0.5905511811023622,
                    "duration": 0.11749999999994998
                },
                {
                    "name": "D#5",
                    "midi": 75,
                    "time": 842.3999999999909,
                    "velocity": 0.5905511811023622,
                    "duration": 0.11749999999994998
                },
                {
                    "name": "A#4",
                    "midi": 70,
                    "time": 842.9999999999908,
                    "velocity": 0.5905511811023622,
                    "duration": 0.11749999999994998
                },
                {
                    "name": "F4",
                    "midi": 65,
                    "time": 843.5999999999907,
                    "velocity": 0.5905511811023622,
                    "duration": 0.11749999999994998
                },
                {
                    "name": "C4",
                    "midi": 60,
                    "time": 844.1999999999906,
                    "velocity": 0.5905511811023622,
                    "duration": 0.11749999999994998
                },
                {
                    "name": "F4",
                    "midi": 65,
                    "time": 844.7999999999905,
                    "velocity": 0.5905511811023622,
                    "duration": 0.11749999999994998
                },
                {
                    "name": "A#4",
                    "midi": 70,
                    "time": 845.3999999999904,
                    "velocity": 0.5905511811023622,
                    "duration": 0.11749999999994998
                },
                {
                    "name": "D#5",
                    "midi": 75,
                    "time": 845.9999999999903,
                    "velocity": 0.5905511811023622,
                    "duration": 0.11749999999994998
                },
                {
                    "name": "F1",
                    "midi": 29,
                    "time": 846.5999999999902,
                    "velocity": 0.8976377952755905,
                    "duration": 1.2000000000000455
                },
                {
                    "name": "F2",
                    "midi": 41,
                    "time": 846.5999999999902,
                    "velocity": 0.8976377952755905,
                    "duration": 1.2000000000000455
                },
                {
                    "name": "F4",
                    "midi": 65,
                    "time": 848.3999999999903,
                    "velocity": 0.6929133858267716,
                    "duration": 0.11749999999994998
                },
                {
                    "name": "A#4",
                    "midi": 70,
                    "time": 848.9999999999902,
                    "velocity": 0.6929133858267716,
                    "duration": 0.11749999999994998
                },
                {
                    "name": "D#5",
                    "midi": 75,
                    "time": 849.5999999999901,
                    "velocity": 0.6929133858267716,
                    "duration": 0.11749999999994998
                },
                {
                    "name": "A#4",
                    "midi": 70,
                    "time": 850.19999999999,
                    "velocity": 0.6929133858267716,
                    "duration": 0.11749999999994998
                },
                {
                    "name": "F4",
                    "midi": 65,
                    "time": 850.79999999999,
                    "velocity": 0.6929133858267716,
                    "duration": 0.11749999999994998
                },
                {
                    "name": "C4",
                    "midi": 60,
                    "time": 851.3999999999899,
                    "velocity": 0.6929133858267716,
                    "duration": 0.11749999999994998
                },
                {
                    "name": "F4",
                    "midi": 65,
                    "time": 851.9999999999898,
                    "velocity": 0.6929133858267716,
                    "duration": 0.11749999999994998
                },
                {
                    "name": "A#4",
                    "midi": 70,
                    "time": 852.5999999999897,
                    "velocity": 0.6929133858267716,
                    "duration": 0.11749999999994998
                },
                {
                    "name": "D#5",
                    "midi": 75,
                    "time": 853.1999999999896,
                    "velocity": 0.6929133858267716,
                    "duration": 0.11749999999994998
                },
                {
                    "name": "A#4",
                    "midi": 70,
                    "time": 853.7999999999895,
                    "velocity": 0.6929133858267716,
                    "duration": 0.11749999999994998
                },
                {
                    "name": "F4",
                    "midi": 65,
                    "time": 854.3999999999894,
                    "velocity": 0.6929133858267716,
                    "duration": 0.11749999999994998
                },
                {
                    "name": "C4",
                    "midi": 60,
                    "time": 854.9999999999893,
                    "velocity": 0.6929133858267716,
                    "duration": 0.11749999999994998
                },
                {
                    "name": "F4",
                    "midi": 65,
                    "time": 855.5999999999892,
                    "velocity": 0.6929133858267716,
                    "duration": 0.11749999999994998
                },
                {
                    "name": "A#4",
                    "midi": 70,
                    "time": 856.1999999999891,
                    "velocity": 0.6929133858267716,
                    "duration": 0.11749999999994998
                },
                {
                    "name": "D#5",
                    "midi": 75,
                    "time": 856.799999999989,
                    "velocity": 0.6929133858267716,
                    "duration": 0.11749999999994998
                },
                {
                    "name": "A#4",
                    "midi": 70,
                    "time": 857.399999999989,
                    "velocity": 0.6929133858267716,
                    "duration": 0.11749999999994998
                },
                {
                    "name": "F4",
                    "midi": 65,
                    "time": 857.9999999999889,
                    "velocity": 0.6929133858267716,
                    "duration": 0.11749999999994998
                },
                {
                    "name": "C4",
                    "midi": 60,
                    "time": 858.5999999999888,
                    "velocity": 0.6929133858267716,
                    "duration": 0.11749999999994998
                },
                {
                    "name": "A#4",
                    "midi": 70,
                    "time": 859.7999999999887,
                    "velocity": 0.6929133858267716,
                    "duration": 0.11749999999994998
                },
                {
                    "name": "C3",
                    "midi": 48,
                    "time": 860.3999999999886,
                    "velocity": 0.8976377952755905,
                    "duration": 1.2000000000000455
                },
                {
                    "name": "F#3",
                    "midi": 54,
                    "time": 860.3999999999886,
                    "velocity": 0.8976377952755905,
                    "duration": 1.2000000000000455
                },
                {
                    "name": "A3",
                    "midi": 57,
                    "time": 860.3999999999886,
                    "velocity": 0.8976377952755905,
                    "duration": 1.2000000000000455
                },
                {
                    "name": "C4",
                    "midi": 60,
                    "time": 860.3999999999886,
                    "velocity": 0.8976377952755905,
                    "duration": 1.2000000000000455
                },
                {
                    "name": "G#3",
                    "midi": 56,
                    "time": 861.5999999999887,
                    "velocity": 0.5905511811023622,
                    "duration": 0.2999999999999545
                },
                {
                    "name": "A3",
                    "midi": 57,
                    "time": 862.1999999999886,
                    "velocity": 0.5905511811023622,
                    "duration": 0.2999999999999545
                },
                {
                    "name": "A#3",
                    "midi": 58,
                    "time": 862.7999999999885,
                    "velocity": 0.6929133858267716,
                    "duration": 0.2999999999999545
                },
                {
                    "name": "C#4",
                    "midi": 61,
                    "time": 863.3999999999884,
                    "velocity": 0.6929133858267716,
                    "duration": 0.2999999999999545
                },
                {
                    "name": "C4",
                    "midi": 60,
                    "time": 863.9999999999883,
                    "velocity": 0.5905511811023622,
                    "duration": 0.2999999999999545
                },
                {
                    "name": "A#3",
                    "midi": 58,
                    "time": 864.5999999999882,
                    "velocity": 0.5905511811023622,
                    "duration": 0.2999999999999545
                },
                {
                    "name": "G#3",
                    "midi": 56,
                    "time": 865.1999999999881,
                    "velocity": 0.5905511811023622,
                    "duration": 0.2999999999999545
                },
                {
                    "name": "A3",
                    "midi": 57,
                    "time": 865.799999999988,
                    "velocity": 0.5905511811023622,
                    "duration": 0.2999999999999545
                },
                {
                    "name": "A#3",
                    "midi": 58,
                    "time": 866.3999999999879,
                    "velocity": 0.8976377952755905,
                    "duration": 0.2999999999999545
                },
                {
                    "name": "C#4",
                    "midi": 61,
                    "time": 866.9999999999878,
                    "velocity": 0.6929133858267716,
                    "duration": 0.2999999999999545
                },
                {
                    "name": "C4",
                    "midi": 60,
                    "time": 867.5999999999877,
                    "velocity": 0.5905511811023622,
                    "duration": 0.2999999999999545
                },
                {
                    "name": "A#3",
                    "midi": 58,
                    "time": 868.1999999999877,
                    "velocity": 0.5905511811023622,
                    "duration": 0.2999999999999545
                },
                {
                    "name": "G#3",
                    "midi": 56,
                    "time": 868.7999999999876,
                    "velocity": 0.5905511811023622,
                    "duration": 0.2999999999999545
                },
                {
                    "name": "A3",
                    "midi": 57,
                    "time": 869.3999999999875,
                    "velocity": 0.5905511811023622,
                    "duration": 0.2999999999999545
                },
                {
                    "name": "A#3",
                    "midi": 58,
                    "time": 869.9999999999874,
                    "velocity": 0.8976377952755905,
                    "duration": 0.2999999999999545
                },
                {
                    "name": "C#4",
                    "midi": 61,
                    "time": 870.5999999999873,
                    "velocity": 0.6929133858267716,
                    "duration": 0.2999999999999545
                },
                {
                    "name": "C4",
                    "midi": 60,
                    "time": 871.1999999999872,
                    "velocity": 0.5905511811023622,
                    "duration": 0.2999999999999545
                },
                {
                    "name": "A#3",
                    "midi": 58,
                    "time": 871.7999999999871,
                    "velocity": 0.5905511811023622,
                    "duration": 0.2999999999999545
                },
                {
                    "name": "G#3",
                    "midi": 56,
                    "time": 872.399999999987,
                    "velocity": 0.5905511811023622,
                    "duration": 0.2999999999999545
                },
                {
                    "name": "A3",
                    "midi": 57,
                    "time": 872.9999999999869,
                    "velocity": 0.5905511811023622,
                    "duration": 0.2999999999999545
                },
                {
                    "name": "A#3",
                    "midi": 58,
                    "time": 873.5999999999868,
                    "velocity": 0.6929133858267716,
                    "duration": 0.2999999999999545
                },
                {
                    "name": "C#4",
                    "midi": 61,
                    "time": 874.1999999999867,
                    "velocity": 0.6929133858267716,
                    "duration": 0.2999999999999545
                },
                {
                    "name": "C4",
                    "midi": 60,
                    "time": 874.7999999999867,
                    "velocity": 0.5905511811023622,
                    "duration": 0.2999999999999545
                },
                {
                    "name": "A#3",
                    "midi": 58,
                    "time": 875.3999999999866,
                    "velocity": 0.5905511811023622,
                    "duration": 0.2999999999999545
                },
                {
                    "name": "C3",
                    "midi": 48,
                    "time": 875.9999999999865,
                    "velocity": 0.7952755905511811,
                    "duration": 1.2000000000000455
                },
                {
                    "name": "F#3",
                    "midi": 54,
                    "time": 875.9999999999865,
                    "velocity": 0.7952755905511811,
                    "duration": 1.2000000000000455
                },
                {
                    "name": "A3",
                    "midi": 57,
                    "time": 875.9999999999865,
                    "velocity": 0.7952755905511811,
                    "duration": 1.2000000000000455
                },
                {
                    "name": "C4",
                    "midi": 60,
                    "time": 875.9999999999865,
                    "velocity": 0.7952755905511811,
                    "duration": 1.2000000000000455
                },
                {
                    "name": "G#3",
                    "midi": 56,
                    "time": 877.1999999999865,
                    "velocity": 0.5905511811023622,
                    "duration": 0.2999999999999545
                },
                {
                    "name": "A3",
                    "midi": 57,
                    "time": 877.7999999999864,
                    "velocity": 0.5905511811023622,
                    "duration": 0.2999999999999545
                },
                {
                    "name": "A#3",
                    "midi": 58,
                    "time": 878.3999999999863,
                    "velocity": 0.6929133858267716,
                    "duration": 0.2999999999999545
                },
                {
                    "name": "C#4",
                    "midi": 61,
                    "time": 878.9999999999862,
                    "velocity": 0.6929133858267716,
                    "duration": 0.2999999999999545
                },
                {
                    "name": "C4",
                    "midi": 60,
                    "time": 879.5999999999862,
                    "velocity": 0.5905511811023622,
                    "duration": 0.2999999999999545
                },
                {
                    "name": "A#3",
                    "midi": 58,
                    "time": 880.1999999999861,
                    "velocity": 0.5905511811023622,
                    "duration": 0.2999999999999545
                },
                {
                    "name": "C3",
                    "midi": 48,
                    "time": 880.799999999986,
                    "velocity": 0.7952755905511811,
                    "duration": 1.2000000000000455
                },
                {
                    "name": "F#3",
                    "midi": 54,
                    "time": 880.799999999986,
                    "velocity": 0.7952755905511811,
                    "duration": 1.2000000000000455
                },
                {
                    "name": "A3",
                    "midi": 57,
                    "time": 880.799999999986,
                    "velocity": 0.7952755905511811,
                    "duration": 1.2000000000000455
                },
                {
                    "name": "C4",
                    "midi": 60,
                    "time": 880.799999999986,
                    "velocity": 0.7952755905511811,
                    "duration": 1.2000000000000455
                },
                {
                    "name": "C3",
                    "midi": 48,
                    "time": 881.999999999986,
                    "velocity": 0.7952755905511811,
                    "duration": 1.2000000000000455
                },
                {
                    "name": "F#3",
                    "midi": 54,
                    "time": 881.999999999986,
                    "velocity": 0.7952755905511811,
                    "duration": 1.2000000000000455
                },
                {
                    "name": "A3",
                    "midi": 57,
                    "time": 881.999999999986,
                    "velocity": 0.7952755905511811,
                    "duration": 1.2000000000000455
                },
                {
                    "name": "C4",
                    "midi": 60,
                    "time": 881.999999999986,
                    "velocity": 0.7952755905511811,
                    "duration": 1.2000000000000455
                },
                {
                    "name": "G#3",
                    "midi": 56,
                    "time": 883.1999999999861,
                    "velocity": 0.5905511811023622,
                    "duration": 0.2999999999999545
                },
                {
                    "name": "A3",
                    "midi": 57,
                    "time": 883.799999999986,
                    "velocity": 0.5905511811023622,
                    "duration": 0.2999999999999545
                },
                {
                    "name": "A#3",
                    "midi": 58,
                    "time": 884.3999999999859,
                    "velocity": 0.6929133858267716,
                    "duration": 0.2999999999999545
                },
                {
                    "name": "C#4",
                    "midi": 61,
                    "time": 884.9999999999858,
                    "velocity": 0.6929133858267716,
                    "duration": 0.2999999999999545
                },
                {
                    "name": "C4",
                    "midi": 60,
                    "time": 885.5999999999857,
                    "velocity": 0.5905511811023622,
                    "duration": 0.2999999999999545
                },
                {
                    "name": "A#3",
                    "midi": 58,
                    "time": 886.1999999999856,
                    "velocity": 0.5905511811023622,
                    "duration": 0.2999999999999545
                },
                {
                    "name": "G#3",
                    "midi": 56,
                    "time": 886.7999999999855,
                    "velocity": 0.5905511811023622,
                    "duration": 0.2999999999999545
                },
                {
                    "name": "A3",
                    "midi": 57,
                    "time": 887.3999999999854,
                    "velocity": 0.5905511811023622,
                    "duration": 0.2999999999999545
                },
                {
                    "name": "A#3",
                    "midi": 58,
                    "time": 887.9999999999853,
                    "velocity": 0.8976377952755905,
                    "duration": 0.2999999999999545
                },
                {
                    "name": "C#4",
                    "midi": 61,
                    "time": 888.5999999999852,
                    "velocity": 0.6929133858267716,
                    "duration": 0.2999999999999545
                },
                {
                    "name": "C4",
                    "midi": 60,
                    "time": 889.1999999999852,
                    "velocity": 0.5905511811023622,
                    "duration": 0.2999999999999545
                },
                {
                    "name": "A#3",
                    "midi": 58,
                    "time": 889.7999999999851,
                    "velocity": 0.5905511811023622,
                    "duration": 0.2999999999999545
                },
                {
                    "name": "C1",
                    "midi": 24,
                    "time": 890.399999999985,
                    "velocity": 0.7952755905511811,
                    "duration": 1.2000000000000455
                },
                {
                    "name": "C2",
                    "midi": 36,
                    "time": 890.399999999985,
                    "velocity": 0.7952755905511811,
                    "duration": 1.2000000000000455
                },
                {
                    "name": "C3",
                    "midi": 48,
                    "time": 891.599999999985,
                    "velocity": 0.7952755905511811,
                    "duration": 1.2000000000000455
                },
                {
                    "name": "F#3",
                    "midi": 54,
                    "time": 891.599999999985,
                    "velocity": 0.7952755905511811,
                    "duration": 1.2000000000000455
                },
                {
                    "name": "A3",
                    "midi": 57,
                    "time": 891.599999999985,
                    "velocity": 0.7952755905511811,
                    "duration": 1.2000000000000455
                },
                {
                    "name": "C4",
                    "midi": 60,
                    "time": 891.599999999985,
                    "velocity": 0.7952755905511811,
                    "duration": 1.2000000000000455
                },
                {
                    "name": "G#3",
                    "midi": 56,
                    "time": 892.7999999999851,
                    "velocity": 0.5905511811023622,
                    "duration": 0.2999999999999545
                },
                {
                    "name": "A3",
                    "midi": 57,
                    "time": 893.399999999985,
                    "velocity": 0.5905511811023622,
                    "duration": 0.2999999999999545
                },
                {
                    "name": "A#3",
                    "midi": 58,
                    "time": 893.9999999999849,
                    "velocity": 0.8976377952755905,
                    "duration": 0.2999999999999545
                },
                {
                    "name": "C#4",
                    "midi": 61,
                    "time": 894.5999999999848,
                    "velocity": 0.6929133858267716,
                    "duration": 0.2999999999999545
                },
                {
                    "name": "C4",
                    "midi": 60,
                    "time": 895.1999999999847,
                    "velocity": 0.5905511811023622,
                    "duration": 0.2999999999999545
                },
                {
                    "name": "A#3",
                    "midi": 58,
                    "time": 895.7999999999846,
                    "velocity": 0.5905511811023622,
                    "duration": 0.2999999999999545
                },
                {
                    "name": "C3",
                    "midi": 48,
                    "time": 896.3999999999845,
                    "velocity": 1,
                    "duration": 1.2000000000000455
                },
                {
                    "name": "F#3",
                    "midi": 54,
                    "time": 896.3999999999845,
                    "velocity": 1,
                    "duration": 1.2000000000000455
                },
                {
                    "name": "A3",
                    "midi": 57,
                    "time": 896.3999999999845,
                    "velocity": 1,
                    "duration": 1.2000000000000455
                },
                {
                    "name": "C4",
                    "midi": 60,
                    "time": 896.3999999999845,
                    "velocity": 1,
                    "duration": 1.2000000000000455
                },
                {
                    "name": "C3",
                    "midi": 48,
                    "time": 899.9999999999845,
                    "velocity": 1,
                    "duration": 1.2000000000000455
                },
                {
                    "name": "F#3",
                    "midi": 54,
                    "time": 899.9999999999845,
                    "velocity": 1,
                    "duration": 1.2000000000000455
                },
                {
                    "name": "A3",
                    "midi": 57,
                    "time": 899.9999999999845,
                    "velocity": 1,
                    "duration": 1.2000000000000455
                },
                {
                    "name": "C4",
                    "midi": 60,
                    "time": 899.9999999999845,
                    "velocity": 1,
                    "duration": 1.2000000000000455
                },
                {
                    "name": "C3",
                    "midi": 48,
                    "time": 903.5999999999846,
                    "velocity": 1,
                    "duration": 1.2000000000000455
                },
                {
                    "name": "F#3",
                    "midi": 54,
                    "time": 903.5999999999846,
                    "velocity": 1,
                    "duration": 1.2000000000000455
                },
                {
                    "name": "A3",
                    "midi": 57,
                    "time": 903.5999999999846,
                    "velocity": 1,
                    "duration": 1.2000000000000455
                },
                {
                    "name": "C4",
                    "midi": 60,
                    "time": 903.5999999999846,
                    "velocity": 1,
                    "duration": 1.2000000000000455
                },
                {
                    "name": "C3",
                    "midi": 48,
                    "time": 905.9999999999847,
                    "velocity": 1,
                    "duration": 1.2000000000000455
                },
                {
                    "name": "F#3",
                    "midi": 54,
                    "time": 905.9999999999847,
                    "velocity": 1,
                    "duration": 1.2000000000000455
                },
                {
                    "name": "A3",
                    "midi": 57,
                    "time": 905.9999999999847,
                    "velocity": 1,
                    "duration": 1.2000000000000455
                },
                {
                    "name": "C4",
                    "midi": 60,
                    "time": 905.9999999999847,
                    "velocity": 1,
                    "duration": 1.2000000000000455
                }
            ],
            "controlChanges": {
                "7": [
                    {
                        "number": 7,
                        "time": 0,
                        "value": 1
                    }
                ],
                "10": [
                    {
                        "number": 10,
                        "time": 0,
                        "value": 0.23622047244094488
                    }
                ],
                "64": [
                    {
                        "number": 64,
                        "time": 8.7,
                        "value": 1
                    },
                    {
                        "number": 64,
                        "time": 12.299999999999999,
                        "value": 0
                    },
                    {
                        "number": 64,
                        "time": 22.799999999999994,
                        "value": 1
                    },
                    {
                        "number": 64,
                        "time": 27.599999999999994,
                        "value": 0
                    },
                    {
                        "number": 64,
                        "time": 31.199999999999996,
                        "value": 1
                    },
                    {
                        "number": 64,
                        "time": 41.99999999999999,
                        "value": 0
                    },
                    {
                        "number": 64,
                        "time": 88.80000000000071,
                        "value": 1
                    },
                    {
                        "number": 64,
                        "time": 89.85000000000075,
                        "value": 0
                    },
                    {
                        "number": 64,
                        "time": 91.2000000000008,
                        "value": 1
                    },
                    {
                        "number": 64,
                        "time": 92.25000000000084,
                        "value": 0
                    },
                    {
                        "number": 64,
                        "time": 136.800000000001,
                        "value": 1
                    },
                    {
                        "number": 64,
                        "time": 137.850000000001,
                        "value": 0
                    },
                    {
                        "number": 64,
                        "time": 138.000000000001,
                        "value": 1
                    },
                    {
                        "number": 64,
                        "time": 139.05000000000103,
                        "value": 0
                    },
                    {
                        "number": 64,
                        "time": 139.20000000000104,
                        "value": 1
                    },
                    {
                        "number": 64,
                        "time": 140.25000000000108,
                        "value": 0
                    },
                    {
                        "number": 64,
                        "time": 140.40000000000109,
                        "value": 1
                    },
                    {
                        "number": 64,
                        "time": 141.45000000000113,
                        "value": 0
                    },
                    {
                        "number": 64,
                        "time": 141.60000000000113,
                        "value": 1
                    },
                    {
                        "number": 64,
                        "time": 142.65000000000117,
                        "value": 0
                    },
                    {
                        "number": 64,
                        "time": 142.80000000000118,
                        "value": 1
                    },
                    {
                        "number": 64,
                        "time": 143.88000000000122,
                        "value": 0
                    },
                    {
                        "number": 64,
                        "time": 144.51250000000118,
                        "value": 1
                    },
                    {
                        "number": 64,
                        "time": 146.25000000000125,
                        "value": 0
                    },
                    {
                        "number": 64,
                        "time": 146.40000000000126,
                        "value": 1
                    },
                    {
                        "number": 64,
                        "time": 147.4500000000013,
                        "value": 0
                    },
                    {
                        "number": 64,
                        "time": 147.6000000000013,
                        "value": 1
                    },
                    {
                        "number": 64,
                        "time": 148.68000000000134,
                        "value": 0
                    },
                    {
                        "number": 64,
                        "time": 148.80000000000135,
                        "value": 1
                    },
                    {
                        "number": 64,
                        "time": 149.8500000000014,
                        "value": 0
                    },
                    {
                        "number": 64,
                        "time": 150.0000000000014,
                        "value": 1
                    },
                    {
                        "number": 64,
                        "time": 151.08000000000143,
                        "value": 0
                    },
                    {
                        "number": 64,
                        "time": 151.20000000000144,
                        "value": 1
                    },
                    {
                        "number": 64,
                        "time": 152.25000000000148,
                        "value": 0
                    },
                    {
                        "number": 64,
                        "time": 152.40000000000148,
                        "value": 1
                    },
                    {
                        "number": 64,
                        "time": 153.48000000000152,
                        "value": 0
                    },
                    {
                        "number": 64,
                        "time": 154.1125000000015,
                        "value": 1
                    },
                    {
                        "number": 64,
                        "time": 155.85000000000156,
                        "value": 0
                    },
                    {
                        "number": 64,
                        "time": 156.00000000000156,
                        "value": 1
                    },
                    {
                        "number": 64,
                        "time": 157.0800000000016,
                        "value": 0
                    },
                    {
                        "number": 64,
                        "time": 157.2000000000016,
                        "value": 1
                    },
                    {
                        "number": 64,
                        "time": 158.28000000000165,
                        "value": 0
                    },
                    {
                        "number": 64,
                        "time": 160.80000000000166,
                        "value": 1
                    },
                    {
                        "number": 64,
                        "time": 162.00000000000168,
                        "value": 0
                    },
                    {
                        "number": 64,
                        "time": 162.39750000000168,
                        "value": 1
                    },
                    {
                        "number": 64,
                        "time": 164.1000000000017,
                        "value": 0
                    },
                    {
                        "number": 64,
                        "time": 165.60000000000167,
                        "value": 1
                    },
                    {
                        "number": 64,
                        "time": 166.5575000000017,
                        "value": 0
                    },
                    {
                        "number": 64,
                        "time": 170.40000000000168,
                        "value": 1
                    },
                    {
                        "number": 64,
                        "time": 171.00000000000165,
                        "value": 0
                    },
                    {
                        "number": 64,
                        "time": 172.2000000000016,
                        "value": 1
                    },
                    {
                        "number": 64,
                        "time": 174.90000000000163,
                        "value": 0
                    },
                    {
                        "number": 64,
                        "time": 175.80000000000163,
                        "value": 1
                    },
                    {
                        "number": 64,
                        "time": 177.00000000000168,
                        "value": 0
                    },
                    {
                        "number": 64,
                        "time": 177.60000000000167,
                        "value": 1
                    },
                    {
                        "number": 64,
                        "time": 178.6500000000017,
                        "value": 0
                    },
                    {
                        "number": 64,
                        "time": 180.00000000000168,
                        "value": 1
                    },
                    {
                        "number": 64,
                        "time": 181.20000000000172,
                        "value": 0
                    },
                    {
                        "number": 64,
                        "time": 181.80000000000172,
                        "value": 1
                    },
                    {
                        "number": 64,
                        "time": 182.85000000000176,
                        "value": 0
                    },
                    {
                        "number": 64,
                        "time": 183.00000000000176,
                        "value": 1
                    },
                    {
                        "number": 64,
                        "time": 184.2000000000018,
                        "value": 0
                    },
                    {
                        "number": 64,
                        "time": 767.3999999999899,
                        "value": 1
                    },
                    {
                        "number": 64,
                        "time": 770.39999999999,
                        "value": 0
                    },
                    {
                        "number": 64,
                        "time": 770.99999999999,
                        "value": 1
                    },
                    {
                        "number": 64,
                        "time": 773.9999999999901,
                        "value": 0
                    },
                    {
                        "number": 64,
                        "time": 774.5999999999901,
                        "value": 1
                    },
                    {
                        "number": 64,
                        "time": 778.1999999999903,
                        "value": 0
                    },
                    {
                        "number": 64,
                        "time": 778.7999999999903,
                        "value": 1
                    },
                    {
                        "number": 64,
                        "time": 781.7999999999904,
                        "value": 0
                    },
                    {
                        "number": 64,
                        "time": 782.3999999999904,
                        "value": 1
                    },
                    {
                        "number": 64,
                        "time": 785.3999999999905,
                        "value": 0
                    },
                    {
                        "number": 64,
                        "time": 788.3999999999907,
                        "value": 1
                    },
                    {
                        "number": 64,
                        "time": 791.3999999999908,
                        "value": 0
                    },
                    {
                        "number": 64,
                        "time": 791.9999999999908,
                        "value": 1
                    },
                    {
                        "number": 64,
                        "time": 794.9999999999909,
                        "value": 0
                    }
                ]
            },
            "id": 3,
            "name": "Instrument18",
            "instrumentNumber": 0,
            "instrument": "acoustic grand piano",
            "instrumentFamily": "piano",
            "channelNumber": 2,
            "isPercussion": false
        },
        {
            "startTime": 43.199999999999996,
            "duration": 633.5999999999981,
            "length": 330,
            "notes": [
                {
                    "name": "G3",
                    "midi": 55,
                    "time": 43.199999999999996,
                    "velocity": 0.3858267716535433,
                    "duration": 4.799999999999997
                },
                {
                    "name": "B2",
                    "midi": 47,
                    "time": 69.39999999999999,
                    "velocity": 0.3858267716535433,
                    "duration": 1.3999999999999915
                },
                {
                    "name": "E3",
                    "midi": 52,
                    "time": 69.49999999999999,
                    "velocity": 0.3858267716535433,
                    "duration": 1.2999999999999972
                },
                {
                    "name": "G#3",
                    "midi": 56,
                    "time": 69.59999999999998,
                    "velocity": 0.3858267716535433,
                    "duration": 1.2000000000000028
                },
                {
                    "name": "G#4",
                    "midi": 68,
                    "time": 70.79999999999998,
                    "velocity": 0.28346456692913385,
                    "duration": 0.15000000000000568
                },
                {
                    "name": "A#4",
                    "midi": 70,
                    "time": 70.94999999999999,
                    "velocity": 0.28346456692913385,
                    "duration": 0.15000000000000568
                },
                {
                    "name": "G#4",
                    "midi": 68,
                    "time": 71.1,
                    "velocity": 0.28346456692913385,
                    "duration": 0.15000000000000568
                },
                {
                    "name": "A#4",
                    "midi": 70,
                    "time": 71.25,
                    "velocity": 0.28346456692913385,
                    "duration": 0.15000000000000568
                },
                {
                    "name": "G#4",
                    "midi": 68,
                    "time": 71.4,
                    "velocity": 0.28346456692913385,
                    "duration": 0.15000000000000568
                },
                {
                    "name": "A#4",
                    "midi": 70,
                    "time": 71.55000000000001,
                    "velocity": 0.28346456692913385,
                    "duration": 0.15000000000000568
                },
                {
                    "name": "G#4",
                    "midi": 68,
                    "time": 71.70000000000002,
                    "velocity": 0.28346456692913385,
                    "duration": 0.15000000000000568
                },
                {
                    "name": "A#4",
                    "midi": 70,
                    "time": 71.85000000000002,
                    "velocity": 0.28346456692913385,
                    "duration": 0.15000000000000568
                },
                {
                    "name": "G#3",
                    "midi": 56,
                    "time": 72.00000000000003,
                    "velocity": 0.28346456692913385,
                    "duration": 0.15000000000000568
                },
                {
                    "name": "A#3",
                    "midi": 58,
                    "time": 72.15000000000003,
                    "velocity": 0.28346456692913385,
                    "duration": 0.15000000000000568
                },
                {
                    "name": "G#3",
                    "midi": 56,
                    "time": 72.30000000000004,
                    "velocity": 0.28346456692913385,
                    "duration": 0.15000000000000568
                },
                {
                    "name": "A#3",
                    "midi": 58,
                    "time": 72.45000000000005,
                    "velocity": 0.28346456692913385,
                    "duration": 0.15000000000000568
                },
                {
                    "name": "G#3",
                    "midi": 56,
                    "time": 72.60000000000005,
                    "velocity": 0.28346456692913385,
                    "duration": 0.15000000000000568
                },
                {
                    "name": "A#3",
                    "midi": 58,
                    "time": 72.75000000000006,
                    "velocity": 0.28346456692913385,
                    "duration": 0.15000000000000568
                },
                {
                    "name": "G#3",
                    "midi": 56,
                    "time": 72.90000000000006,
                    "velocity": 0.28346456692913385,
                    "duration": 0.14999999999999147
                },
                {
                    "name": "B2",
                    "midi": 47,
                    "time": 73.00000000000006,
                    "velocity": 0.28346456692913385,
                    "duration": 1.3999999999999915
                },
                {
                    "name": "A#3",
                    "midi": 58,
                    "time": 73.05000000000005,
                    "velocity": 0.28346456692913385,
                    "duration": 0.14999999999999147
                },
                {
                    "name": "E3",
                    "midi": 52,
                    "time": 73.10000000000005,
                    "velocity": 0.28346456692913385,
                    "duration": 1.2999999999999972
                },
                {
                    "name": "G#3",
                    "midi": 56,
                    "time": 73.20000000000005,
                    "velocity": 0.3858267716535433,
                    "duration": 1.2000000000000028
                },
                {
                    "name": "B2",
                    "midi": 47,
                    "time": 75.40000000000005,
                    "velocity": 0.3858267716535433,
                    "duration": 1.3999999999999915
                },
                {
                    "name": "E3",
                    "midi": 52,
                    "time": 75.50000000000004,
                    "velocity": 0.3858267716535433,
                    "duration": 1.2999999999999972
                },
                {
                    "name": "G#3",
                    "midi": 56,
                    "time": 75.60000000000004,
                    "velocity": 0.3858267716535433,
                    "duration": 1.2000000000000028
                },
                {
                    "name": "A#2",
                    "midi": 46,
                    "time": 77.85000000000004,
                    "velocity": 0.3858267716535433,
                    "duration": 2.5500000000000114
                },
                {
                    "name": "A3",
                    "midi": 57,
                    "time": 78.00000000000004,
                    "velocity": 0.3858267716535433,
                    "duration": 2.4000000000000057
                },
                {
                    "name": "B2",
                    "midi": 47,
                    "time": 85.00000000000004,
                    "velocity": 0.3858267716535433,
                    "duration": 1.3999999999999915
                },
                {
                    "name": "D3",
                    "midi": 50,
                    "time": 85.10000000000004,
                    "velocity": 0.3858267716535433,
                    "duration": 1.2999999999999972
                },
                {
                    "name": "A#3",
                    "midi": 58,
                    "time": 85.20000000000003,
                    "velocity": 0.3858267716535433,
                    "duration": 1.2000000000000028
                },
                {
                    "name": "D2",
                    "midi": 38,
                    "time": 86.64750000000004,
                    "velocity": 0.3858267716535433,
                    "duration": 0.15000000000000568
                },
                {
                    "name": "E2",
                    "midi": 40,
                    "time": 86.79750000000004,
                    "velocity": 0.3858267716535433,
                    "duration": 0.4025000000000034
                },
                {
                    "name": "E2",
                    "midi": 40,
                    "time": 87.20000000000005,
                    "velocity": 0.3858267716535433,
                    "duration": 0.4000000000000057
                },
                {
                    "name": "D2",
                    "midi": 38,
                    "time": 87.45000000000005,
                    "velocity": 0.3858267716535433,
                    "duration": 0.15000000000000568
                },
                {
                    "name": "E2",
                    "midi": 40,
                    "time": 87.60000000000005,
                    "velocity": 0.3858267716535433,
                    "duration": 1.2000000000000028
                },
                {
                    "name": "E2",
                    "midi": 40,
                    "time": 90.00000000000006,
                    "velocity": 0.3858267716535433,
                    "duration": 1.2000000000000028
                },
                {
                    "name": "E2",
                    "midi": 40,
                    "time": 92.40000000000006,
                    "velocity": 0.3858267716535433,
                    "duration": 0.15000000000000568
                },
                {
                    "name": "G2",
                    "midi": 43,
                    "time": 92.55000000000007,
                    "velocity": 0.3858267716535433,
                    "duration": 0.15000000000000568
                },
                {
                    "name": "D3",
                    "midi": 50,
                    "time": 92.70000000000007,
                    "velocity": 0.3858267716535433,
                    "duration": 0.15000000000000568
                },
                {
                    "name": "F#3",
                    "midi": 54,
                    "time": 92.85000000000008,
                    "velocity": 0.3858267716535433,
                    "duration": 0.15000000000000568
                },
                {
                    "name": "E3",
                    "midi": 52,
                    "time": 93.00000000000009,
                    "velocity": 0.3858267716535433,
                    "duration": 0.15000000000000568
                },
                {
                    "name": "A#3",
                    "midi": 58,
                    "time": 93.15000000000009,
                    "velocity": 0.3858267716535433,
                    "duration": 0.15000000000000568
                },
                {
                    "name": "D3",
                    "midi": 50,
                    "time": 93.3000000000001,
                    "velocity": 0.3858267716535433,
                    "duration": 0.15000000000000568
                },
                {
                    "name": "G2",
                    "midi": 43,
                    "time": 93.4500000000001,
                    "velocity": 0.3858267716535433,
                    "duration": 0.15000000000000568
                },
                {
                    "name": "D2",
                    "midi": 38,
                    "time": 93.4500000000001,
                    "velocity": 0.3858267716535433,
                    "duration": 0.15000000000000568
                },
                {
                    "name": "E2",
                    "midi": 40,
                    "time": 93.60000000000011,
                    "velocity": 0.3858267716535433,
                    "duration": 1.2000000000000028
                },
                {
                    "name": "A#3",
                    "midi": 58,
                    "time": 111.60000000000011,
                    "velocity": 0.3858267716535433,
                    "duration": 0.39749999999999375
                },
                {
                    "name": "D4",
                    "midi": 62,
                    "time": 111.60000000000011,
                    "velocity": 0.3858267716535433,
                    "duration": 0.39749999999999375
                },
                {
                    "name": "D#4",
                    "midi": 63,
                    "time": 111.60000000000011,
                    "velocity": 0.3858267716535433,
                    "duration": 0.39749999999999375
                },
                {
                    "name": "C3",
                    "midi": 48,
                    "time": 111.9975000000001,
                    "velocity": 0.3858267716535433,
                    "duration": 0.0799999999999983
                },
                {
                    "name": "A#3",
                    "midi": 58,
                    "time": 112.4000000000001,
                    "velocity": 0.3858267716535433,
                    "duration": 0.0799999999999983
                },
                {
                    "name": "D#4",
                    "midi": 63,
                    "time": 112.4000000000001,
                    "velocity": 0.3858267716535433,
                    "duration": 0.0799999999999983
                },
                {
                    "name": "C3",
                    "midi": 48,
                    "time": 112.8000000000001,
                    "velocity": 0.3858267716535433,
                    "duration": 0.10500000000000398
                },
                {
                    "name": "F#4",
                    "midi": 66,
                    "time": 113.3250000000001,
                    "velocity": 0.3858267716535433,
                    "duration": 0.07500000000000284
                },
                {
                    "name": "D#4",
                    "midi": 63,
                    "time": 113.4000000000001,
                    "velocity": 0.3858267716535433,
                    "duration": 0.5999999999999943
                },
                {
                    "name": "F#4",
                    "midi": 66,
                    "time": 114.0000000000001,
                    "velocity": 0.3858267716535433,
                    "duration": 0.39749999999999375
                },
                {
                    "name": "D#4",
                    "midi": 63,
                    "time": 114.3975000000001,
                    "velocity": 0.3858267716535433,
                    "duration": 0.4025000000000034
                },
                {
                    "name": "C3",
                    "midi": 48,
                    "time": 114.8000000000001,
                    "velocity": 0.3858267716535433,
                    "duration": 0.4000000000000057
                },
                {
                    "name": "A#3",
                    "midi": 58,
                    "time": 114.8000000000001,
                    "velocity": 0.3858267716535433,
                    "duration": 0.4000000000000057
                },
                {
                    "name": "D4",
                    "midi": 62,
                    "time": 114.8000000000001,
                    "velocity": 0.3858267716535433,
                    "duration": 0.4000000000000057
                },
                {
                    "name": "F#4",
                    "midi": 66,
                    "time": 115.2000000000001,
                    "velocity": 0.3858267716535433,
                    "duration": 0.5250000000000057
                },
                {
                    "name": "G#5",
                    "midi": 80,
                    "time": 115.72500000000011,
                    "velocity": 0.3858267716535433,
                    "duration": 0.07500000000000284
                },
                {
                    "name": "D#6",
                    "midi": 87,
                    "time": 115.80000000000011,
                    "velocity": 0.3858267716535433,
                    "duration": 0.5250000000000057
                },
                {
                    "name": "G#5",
                    "midi": 80,
                    "time": 116.32500000000012,
                    "velocity": 0.3858267716535433,
                    "duration": 0.07500000000000284
                },
                {
                    "name": "D#6",
                    "midi": 87,
                    "time": 116.40000000000012,
                    "velocity": 0.3858267716535433,
                    "duration": 0.39749999999999375
                },
                {
                    "name": "D#4",
                    "midi": 63,
                    "time": 116.79750000000011,
                    "velocity": 0.3858267716535433,
                    "duration": 0.4025000000000034
                },
                {
                    "name": "C3",
                    "midi": 48,
                    "time": 117.20000000000012,
                    "velocity": 0.3858267716535433,
                    "duration": 0.4000000000000057
                },
                {
                    "name": "A#3",
                    "midi": 58,
                    "time": 117.20000000000012,
                    "velocity": 0.3858267716535433,
                    "duration": 0.4000000000000057
                },
                {
                    "name": "D4",
                    "midi": 62,
                    "time": 117.20000000000012,
                    "velocity": 0.3858267716535433,
                    "duration": 0.4000000000000057
                },
                {
                    "name": "F#4",
                    "midi": 66,
                    "time": 117.60000000000012,
                    "velocity": 0.3858267716535433,
                    "duration": 0.39749999999999375
                },
                {
                    "name": "D#4",
                    "midi": 63,
                    "time": 117.99750000000012,
                    "velocity": 0.3858267716535433,
                    "duration": 0.4025000000000034
                },
                {
                    "name": "D#6",
                    "midi": 87,
                    "time": 118.40000000000012,
                    "velocity": 0.3858267716535433,
                    "duration": 0.4000000000000057
                },
                {
                    "name": "D3",
                    "midi": 50,
                    "time": 118.80000000000013,
                    "velocity": 0.5905511811023622,
                    "duration": 0.39749999999999375
                },
                {
                    "name": "E3",
                    "midi": 52,
                    "time": 119.19750000000012,
                    "velocity": 0.5905511811023622,
                    "duration": 0.4025000000000034
                },
                {
                    "name": "A3",
                    "midi": 57,
                    "time": 119.45000000000012,
                    "velocity": 0.3858267716535433,
                    "duration": 0.15000000000000568
                },
                {
                    "name": "G3",
                    "midi": 55,
                    "time": 119.60000000000012,
                    "velocity": 0.5905511811023622,
                    "duration": 0.4000000000000057
                },
                {
                    "name": "F3",
                    "midi": 53,
                    "time": 120.00000000000013,
                    "velocity": 0.3858267716535433,
                    "duration": 0.5999999999999943
                },
                {
                    "name": "E3",
                    "midi": 52,
                    "time": 120.60000000000012,
                    "velocity": 0.3858267716535433,
                    "duration": 0.5999999999999943
                },
                {
                    "name": "A#2",
                    "midi": 46,
                    "time": 137.80000000000013,
                    "velocity": 0.3858267716535433,
                    "duration": 1.3999999999999773
                },
                {
                    "name": "E3",
                    "midi": 52,
                    "time": 137.90000000000012,
                    "velocity": 0.3858267716535433,
                    "duration": 1.299999999999983
                },
                {
                    "name": "G#3",
                    "midi": 56,
                    "time": 138.0000000000001,
                    "velocity": 0.3858267716535433,
                    "duration": 1.1999999999999886
                },
                {
                    "name": "A#2",
                    "midi": 46,
                    "time": 140.1750000000001,
                    "velocity": 0.3858267716535433,
                    "duration": 1.4249999999999545
                },
                {
                    "name": "E3",
                    "midi": 52,
                    "time": 140.25000000000009,
                    "velocity": 0.3858267716535433,
                    "duration": 1.349999999999966
                },
                {
                    "name": "G#3",
                    "midi": 56,
                    "time": 140.32500000000007,
                    "velocity": 0.3858267716535433,
                    "duration": 1.2749999999999773
                },
                {
                    "name": "C#4",
                    "midi": 61,
                    "time": 140.40000000000006,
                    "velocity": 0.3858267716535433,
                    "duration": 1.1999999999999886
                },
                {
                    "name": "B3",
                    "midi": 59,
                    "time": 166.80000000000004,
                    "velocity": 0.3858267716535433,
                    "duration": 0.19999999999998863
                },
                {
                    "name": "C4",
                    "midi": 60,
                    "time": 167.00000000000003,
                    "velocity": 0.3858267716535433,
                    "duration": 0.1974999999999909
                },
                {
                    "name": "F4",
                    "midi": 65,
                    "time": 167.19750000000002,
                    "velocity": 0.3858267716535433,
                    "duration": 0.20249999999998636
                },
                {
                    "name": "C#4",
                    "midi": 61,
                    "time": 167.4,
                    "velocity": 0.3858267716535433,
                    "duration": 0.19999999999998863
                },
                {
                    "name": "D#4",
                    "midi": 63,
                    "time": 167.6,
                    "velocity": 0.3858267716535433,
                    "duration": 0.1974999999999909
                },
                {
                    "name": "D4",
                    "midi": 62,
                    "time": 167.79749999999999,
                    "velocity": 0.3858267716535433,
                    "duration": 0.20249999999998636
                },
                {
                    "name": "F#3",
                    "midi": 54,
                    "time": 167.99999999999997,
                    "velocity": 0.3858267716535433,
                    "duration": 0.39750000000000796
                },
                {
                    "name": "A3",
                    "midi": 57,
                    "time": 167.99999999999997,
                    "velocity": 0.3858267716535433,
                    "duration": 0.39750000000000796
                },
                {
                    "name": "G4",
                    "midi": 67,
                    "time": 167.99999999999997,
                    "velocity": 0.3858267716535433,
                    "duration": 0.39750000000000796
                },
                {
                    "name": "B2",
                    "midi": 47,
                    "time": 168.39749999999998,
                    "velocity": 0.3858267716535433,
                    "duration": 0.4025000000000034
                },
                {
                    "name": "B1",
                    "midi": 35,
                    "time": 168.79999999999998,
                    "velocity": 0.3858267716535433,
                    "duration": 0.39999999999997726
                },
                {
                    "name": "B1",
                    "midi": 35,
                    "time": 168.975,
                    "velocity": 0.3858267716535433,
                    "duration": 0.6224999999999739
                },
                {
                    "name": "G2",
                    "midi": 43,
                    "time": 169.04999999999998,
                    "velocity": 0.3858267716535433,
                    "duration": 0.5474999999999852
                },
                {
                    "name": "G#2",
                    "midi": 44,
                    "time": 169.12499999999997,
                    "velocity": 0.3858267716535433,
                    "duration": 0.4724999999999966
                },
                {
                    "name": "D3",
                    "midi": 50,
                    "time": 169.19999999999996,
                    "velocity": 0.3858267716535433,
                    "duration": 0.39750000000000796
                },
                {
                    "name": "E4",
                    "midi": 64,
                    "time": 169.59749999999997,
                    "velocity": 0.3858267716535433,
                    "duration": 0.30000000000001137
                },
                {
                    "name": "F4",
                    "midi": 65,
                    "time": 169.89749999999998,
                    "velocity": 0.3858267716535433,
                    "duration": 0.10249999999999204
                },
                {
                    "name": "D#4",
                    "midi": 63,
                    "time": 169.99999999999997,
                    "velocity": 0.3858267716535433,
                    "duration": 0.4000000000000057
                },
                {
                    "name": "D4",
                    "midi": 62,
                    "time": 170.39999999999998,
                    "velocity": 0.3858267716535433,
                    "duration": 0.30000000000001137
                },
                {
                    "name": "F4",
                    "midi": 65,
                    "time": 170.7,
                    "velocity": 0.3858267716535433,
                    "duration": 0.09749999999999659
                },
                {
                    "name": "D#4",
                    "midi": 63,
                    "time": 170.79749999999999,
                    "velocity": 0.3858267716535433,
                    "duration": 0.4025000000000034
                },
                {
                    "name": "D4",
                    "midi": 62,
                    "time": 171.2,
                    "velocity": 0.3858267716535433,
                    "duration": 0.4000000000000057
                },
                {
                    "name": "B1",
                    "midi": 35,
                    "time": 172.65,
                    "velocity": 0.4881889763779528,
                    "duration": 0.75
                },
                {
                    "name": "B2",
                    "midi": 47,
                    "time": 172.8,
                    "velocity": 0.4881889763779528,
                    "duration": 0.5999999999999943
                },
                {
                    "name": "G3",
                    "midi": 55,
                    "time": 178.57500000000002,
                    "velocity": 0.4881889763779528,
                    "duration": 1.4249999999999545
                },
                {
                    "name": "G#3",
                    "midi": 56,
                    "time": 178.65,
                    "velocity": 0.4881889763779528,
                    "duration": 1.349999999999966
                },
                {
                    "name": "B3",
                    "midi": 59,
                    "time": 178.725,
                    "velocity": 0.4881889763779528,
                    "duration": 1.2749999999999773
                },
                {
                    "name": "D4",
                    "midi": 62,
                    "time": 178.79999999999998,
                    "velocity": 0.4881889763779528,
                    "duration": 1.1999999999999886
                },
                {
                    "name": "F#2",
                    "midi": 42,
                    "time": 206.39999999999998,
                    "velocity": 0.4881889763779528,
                    "duration": 6
                },
                {
                    "name": "F#3",
                    "midi": 54,
                    "time": 212.39999999999998,
                    "velocity": 0.4881889763779528,
                    "duration": 6
                },
                {
                    "name": "F3",
                    "midi": 53,
                    "time": 273.59999999999997,
                    "velocity": 0.4881889763779528,
                    "duration": 0.11750000000000682
                },
                {
                    "name": "A#2",
                    "midi": 46,
                    "time": 274.2,
                    "velocity": 0.4881889763779528,
                    "duration": 0.11750000000000682
                },
                {
                    "name": "F3",
                    "midi": 53,
                    "time": 276,
                    "velocity": 0.4881889763779528,
                    "duration": 0.11750000000000682
                },
                {
                    "name": "C4",
                    "midi": 60,
                    "time": 276.6,
                    "velocity": 0.4881889763779528,
                    "duration": 0.11750000000000682
                },
                {
                    "name": "F3",
                    "midi": 53,
                    "time": 277.20000000000005,
                    "velocity": 0.4881889763779528,
                    "duration": 0.11750000000000682
                },
                {
                    "name": "A#2",
                    "midi": 46,
                    "time": 277.80000000000007,
                    "velocity": 0.4881889763779528,
                    "duration": 0.11750000000000682
                },
                {
                    "name": "C#4",
                    "midi": 61,
                    "time": 441.6000000000001,
                    "velocity": 0.4881889763779528,
                    "duration": 0.11750000000000682
                },
                {
                    "name": "A#3",
                    "midi": 58,
                    "time": 442.2000000000001,
                    "velocity": 0.4881889763779528,
                    "duration": 0.11750000000000682
                },
                {
                    "name": "D#4",
                    "midi": 63,
                    "time": 442.8000000000001,
                    "velocity": 0.4881889763779528,
                    "duration": 0.11750000000000682
                },
                {
                    "name": "A#3",
                    "midi": 58,
                    "time": 443.40000000000015,
                    "velocity": 0.4881889763779528,
                    "duration": 0.11750000000000682
                },
                {
                    "name": "C#4",
                    "midi": 61,
                    "time": 444.00000000000017,
                    "velocity": 0.4881889763779528,
                    "duration": 0.11750000000000682
                },
                {
                    "name": "A#3",
                    "midi": 58,
                    "time": 444.6000000000002,
                    "velocity": 0.4881889763779528,
                    "duration": 0.11750000000000682
                },
                {
                    "name": "D#4",
                    "midi": 63,
                    "time": 445.2000000000002,
                    "velocity": 0.4881889763779528,
                    "duration": 0.11750000000000682
                },
                {
                    "name": "A#3",
                    "midi": 58,
                    "time": 445.80000000000024,
                    "velocity": 0.4881889763779528,
                    "duration": 0.11750000000000682
                },
                {
                    "name": "C#4",
                    "midi": 61,
                    "time": 446.40000000000026,
                    "velocity": 0.4881889763779528,
                    "duration": 0.11750000000000682
                },
                {
                    "name": "A#3",
                    "midi": 58,
                    "time": 447.0000000000003,
                    "velocity": 0.4881889763779528,
                    "duration": 0.11750000000000682
                },
                {
                    "name": "D#4",
                    "midi": 63,
                    "time": 447.6000000000003,
                    "velocity": 0.4881889763779528,
                    "duration": 0.11750000000000682
                },
                {
                    "name": "A#3",
                    "midi": 58,
                    "time": 448.20000000000033,
                    "velocity": 0.4881889763779528,
                    "duration": 0.11750000000000682
                },
                {
                    "name": "C#4",
                    "midi": 61,
                    "time": 456.00000000000034,
                    "velocity": 0.4881889763779528,
                    "duration": 0.11750000000000682
                },
                {
                    "name": "A#3",
                    "midi": 58,
                    "time": 456.60000000000036,
                    "velocity": 0.4881889763779528,
                    "duration": 0.11750000000000682
                },
                {
                    "name": "D#4",
                    "midi": 63,
                    "time": 457.2000000000004,
                    "velocity": 0.4881889763779528,
                    "duration": 0.11750000000000682
                },
                {
                    "name": "A#3",
                    "midi": 58,
                    "time": 457.8000000000004,
                    "velocity": 0.4881889763779528,
                    "duration": 0.11750000000000682
                },
                {
                    "name": "C#4",
                    "midi": 61,
                    "time": 458.40000000000043,
                    "velocity": 0.4881889763779528,
                    "duration": 0.11750000000000682
                },
                {
                    "name": "A#3",
                    "midi": 58,
                    "time": 459.00000000000045,
                    "velocity": 0.4881889763779528,
                    "duration": 0.11750000000000682
                },
                {
                    "name": "D#4",
                    "midi": 63,
                    "time": 459.6000000000005,
                    "velocity": 0.4881889763779528,
                    "duration": 0.11750000000000682
                },
                {
                    "name": "A#3",
                    "midi": 58,
                    "time": 460.2000000000005,
                    "velocity": 0.4881889763779528,
                    "duration": 0.11750000000000682
                },
                {
                    "name": "C#4",
                    "midi": 61,
                    "time": 460.8000000000005,
                    "velocity": 0.4881889763779528,
                    "duration": 0.11750000000000682
                },
                {
                    "name": "A#3",
                    "midi": 58,
                    "time": 461.40000000000055,
                    "velocity": 0.4881889763779528,
                    "duration": 0.11750000000000682
                },
                {
                    "name": "D#4",
                    "midi": 63,
                    "time": 462.00000000000057,
                    "velocity": 0.4881889763779528,
                    "duration": 0.11750000000000682
                },
                {
                    "name": "A#3",
                    "midi": 58,
                    "time": 462.6000000000006,
                    "velocity": 0.4881889763779528,
                    "duration": 0.11750000000000682
                },
                {
                    "name": "C#4",
                    "midi": 61,
                    "time": 463.2000000000006,
                    "velocity": 0.4881889763779528,
                    "duration": 0.11750000000000682
                },
                {
                    "name": "A#3",
                    "midi": 58,
                    "time": 463.80000000000064,
                    "velocity": 0.4881889763779528,
                    "duration": 0.11750000000000682
                },
                {
                    "name": "D#4",
                    "midi": 63,
                    "time": 464.40000000000066,
                    "velocity": 0.4881889763779528,
                    "duration": 0.11750000000000682
                },
                {
                    "name": "A#3",
                    "midi": 58,
                    "time": 465.0000000000007,
                    "velocity": 0.4881889763779528,
                    "duration": 0.11750000000000682
                },
                {
                    "name": "C#4",
                    "midi": 61,
                    "time": 465.6000000000007,
                    "velocity": 0.4881889763779528,
                    "duration": 0.11750000000000682
                },
                {
                    "name": "A#3",
                    "midi": 58,
                    "time": 466.2000000000007,
                    "velocity": 0.4881889763779528,
                    "duration": 0.11750000000000682
                },
                {
                    "name": "D#4",
                    "midi": 63,
                    "time": 466.80000000000075,
                    "velocity": 0.4881889763779528,
                    "duration": 0.11750000000000682
                },
                {
                    "name": "A#3",
                    "midi": 58,
                    "time": 467.4000000000008,
                    "velocity": 0.4881889763779528,
                    "duration": 0.11750000000000682
                },
                {
                    "name": "C#4",
                    "midi": 61,
                    "time": 468.0000000000008,
                    "velocity": 0.4881889763779528,
                    "duration": 0.11750000000000682
                },
                {
                    "name": "A#3",
                    "midi": 58,
                    "time": 468.6000000000008,
                    "velocity": 0.4881889763779528,
                    "duration": 0.11750000000000682
                },
                {
                    "name": "D#4",
                    "midi": 63,
                    "time": 469.20000000000084,
                    "velocity": 0.4881889763779528,
                    "duration": 0.11750000000000682
                },
                {
                    "name": "A#3",
                    "midi": 58,
                    "time": 469.80000000000086,
                    "velocity": 0.4881889763779528,
                    "duration": 0.11750000000000682
                },
                {
                    "name": "C#4",
                    "midi": 61,
                    "time": 475.2000000000009,
                    "velocity": 0.4881889763779528,
                    "duration": 0.11750000000000682
                },
                {
                    "name": "A#3",
                    "midi": 58,
                    "time": 475.8000000000009,
                    "velocity": 0.4881889763779528,
                    "duration": 0.11750000000000682
                },
                {
                    "name": "D#4",
                    "midi": 63,
                    "time": 476.40000000000094,
                    "velocity": 0.4881889763779528,
                    "duration": 0.11750000000000682
                },
                {
                    "name": "A#3",
                    "midi": 58,
                    "time": 477.00000000000097,
                    "velocity": 0.4881889763779528,
                    "duration": 0.11750000000000682
                },
                {
                    "name": "C#4",
                    "midi": 61,
                    "time": 477.600000000001,
                    "velocity": 0.4881889763779528,
                    "duration": 0.11750000000000682
                },
                {
                    "name": "A#3",
                    "midi": 58,
                    "time": 478.200000000001,
                    "velocity": 0.4881889763779528,
                    "duration": 0.11750000000000682
                },
                {
                    "name": "D#4",
                    "midi": 63,
                    "time": 478.80000000000103,
                    "velocity": 0.4881889763779528,
                    "duration": 0.11750000000000682
                },
                {
                    "name": "A#3",
                    "midi": 58,
                    "time": 479.40000000000106,
                    "velocity": 0.4881889763779528,
                    "duration": 0.11750000000000682
                },
                {
                    "name": "C#4",
                    "midi": 61,
                    "time": 480.0000000000011,
                    "velocity": 0.4881889763779528,
                    "duration": 0.11750000000000682
                },
                {
                    "name": "A#3",
                    "midi": 58,
                    "time": 480.6000000000011,
                    "velocity": 0.4881889763779528,
                    "duration": 0.11750000000000682
                },
                {
                    "name": "D#4",
                    "midi": 63,
                    "time": 481.2000000000011,
                    "velocity": 0.4881889763779528,
                    "duration": 0.11750000000000682
                },
                {
                    "name": "A#3",
                    "midi": 58,
                    "time": 481.80000000000115,
                    "velocity": 0.4881889763779528,
                    "duration": 0.11750000000000682
                },
                {
                    "name": "C#4",
                    "midi": 61,
                    "time": 482.40000000000117,
                    "velocity": 0.4881889763779528,
                    "duration": 0.11750000000000682
                },
                {
                    "name": "A#3",
                    "midi": 58,
                    "time": 483.0000000000012,
                    "velocity": 0.4881889763779528,
                    "duration": 0.11750000000000682
                },
                {
                    "name": "D#4",
                    "midi": 63,
                    "time": 483.6000000000012,
                    "velocity": 0.4881889763779528,
                    "duration": 0.11750000000000682
                },
                {
                    "name": "A#3",
                    "midi": 58,
                    "time": 484.20000000000124,
                    "velocity": 0.4881889763779528,
                    "duration": 0.11750000000000682
                },
                {
                    "name": "C#4",
                    "midi": 61,
                    "time": 484.80000000000126,
                    "velocity": 0.4881889763779528,
                    "duration": 0.11750000000000682
                },
                {
                    "name": "A#3",
                    "midi": 58,
                    "time": 485.4000000000013,
                    "velocity": 0.4881889763779528,
                    "duration": 0.11750000000000682
                },
                {
                    "name": "D#4",
                    "midi": 63,
                    "time": 486.0000000000013,
                    "velocity": 0.4881889763779528,
                    "duration": 0.11750000000000682
                },
                {
                    "name": "A#3",
                    "midi": 58,
                    "time": 486.60000000000133,
                    "velocity": 0.4881889763779528,
                    "duration": 0.11750000000000682
                },
                {
                    "name": "C#4",
                    "midi": 61,
                    "time": 487.20000000000135,
                    "velocity": 0.4881889763779528,
                    "duration": 0.11750000000000682
                },
                {
                    "name": "A#3",
                    "midi": 58,
                    "time": 487.8000000000014,
                    "velocity": 0.4881889763779528,
                    "duration": 0.11750000000000682
                },
                {
                    "name": "D#4",
                    "midi": 63,
                    "time": 488.4000000000014,
                    "velocity": 0.4881889763779528,
                    "duration": 0.11750000000000682
                },
                {
                    "name": "A#3",
                    "midi": 58,
                    "time": 489.0000000000014,
                    "velocity": 0.4881889763779528,
                    "duration": 0.11750000000000682
                },
                {
                    "name": "C#4",
                    "midi": 61,
                    "time": 489.60000000000144,
                    "velocity": 0.4881889763779528,
                    "duration": 0.11750000000000682
                },
                {
                    "name": "A#3",
                    "midi": 58,
                    "time": 490.20000000000147,
                    "velocity": 0.4881889763779528,
                    "duration": 0.11750000000000682
                },
                {
                    "name": "D#4",
                    "midi": 63,
                    "time": 490.8000000000015,
                    "velocity": 0.4881889763779528,
                    "duration": 0.11750000000000682
                },
                {
                    "name": "A#3",
                    "midi": 58,
                    "time": 491.4000000000015,
                    "velocity": 0.4881889763779528,
                    "duration": 0.11750000000000682
                },
                {
                    "name": "C#4",
                    "midi": 61,
                    "time": 492.00000000000153,
                    "velocity": 0.4881889763779528,
                    "duration": 0.11750000000000682
                },
                {
                    "name": "A#3",
                    "midi": 58,
                    "time": 492.60000000000156,
                    "velocity": 0.4881889763779528,
                    "duration": 0.11750000000000682
                },
                {
                    "name": "D#4",
                    "midi": 63,
                    "time": 493.2000000000016,
                    "velocity": 0.4881889763779528,
                    "duration": 0.11750000000000682
                },
                {
                    "name": "A#3",
                    "midi": 58,
                    "time": 493.8000000000016,
                    "velocity": 0.4881889763779528,
                    "duration": 0.11750000000000682
                },
                {
                    "name": "C#4",
                    "midi": 61,
                    "time": 494.4000000000016,
                    "velocity": 0.4881889763779528,
                    "duration": 0.11750000000000682
                },
                {
                    "name": "A#3",
                    "midi": 58,
                    "time": 495.00000000000165,
                    "velocity": 0.4881889763779528,
                    "duration": 0.11750000000000682
                },
                {
                    "name": "D#4",
                    "midi": 63,
                    "time": 495.60000000000167,
                    "velocity": 0.4881889763779528,
                    "duration": 0.11750000000000682
                },
                {
                    "name": "A#3",
                    "midi": 58,
                    "time": 496.2000000000017,
                    "velocity": 0.4881889763779528,
                    "duration": 0.11750000000000682
                },
                {
                    "name": "D#2",
                    "midi": 39,
                    "time": 496.5750000000017,
                    "velocity": 0.4881889763779528,
                    "duration": 2.624999999999943
                },
                {
                    "name": "A#2",
                    "midi": 46,
                    "time": 496.6500000000017,
                    "velocity": 0.4881889763779528,
                    "duration": 2.5499999999999545
                },
                {
                    "name": "F3",
                    "midi": 53,
                    "time": 496.72500000000167,
                    "velocity": 0.4881889763779528,
                    "duration": 2.474999999999966
                },
                {
                    "name": "G3",
                    "midi": 55,
                    "time": 496.80000000000166,
                    "velocity": 0.3858267716535433,
                    "duration": 2.3999999999999773
                },
                {
                    "name": "D#2",
                    "midi": 39,
                    "time": 499.20000000000164,
                    "velocity": 0.3858267716535433,
                    "duration": 2.3999999999999773
                },
                {
                    "name": "A#2",
                    "midi": 46,
                    "time": 499.20000000000164,
                    "velocity": 0.3858267716535433,
                    "duration": 2.3999999999999773
                },
                {
                    "name": "F3",
                    "midi": 53,
                    "time": 499.20000000000164,
                    "velocity": 0.3858267716535433,
                    "duration": 2.3999999999999773
                },
                {
                    "name": "G3",
                    "midi": 55,
                    "time": 499.20000000000164,
                    "velocity": 0.3858267716535433,
                    "duration": 2.3999999999999773
                },
                {
                    "name": "D#2",
                    "midi": 39,
                    "time": 501.6000000000016,
                    "velocity": 0.3858267716535433,
                    "duration": 2.3999999999999773
                },
                {
                    "name": "A#2",
                    "midi": 46,
                    "time": 501.6000000000016,
                    "velocity": 0.3858267716535433,
                    "duration": 2.3999999999999773
                },
                {
                    "name": "F3",
                    "midi": 53,
                    "time": 501.6000000000016,
                    "velocity": 0.3858267716535433,
                    "duration": 2.3999999999999773
                },
                {
                    "name": "G3",
                    "midi": 55,
                    "time": 501.6000000000016,
                    "velocity": 0.3858267716535433,
                    "duration": 2.3999999999999773
                },
                {
                    "name": "D#2",
                    "midi": 39,
                    "time": 504.0000000000016,
                    "velocity": 0.3858267716535433,
                    "duration": 2.3999999999999773
                },
                {
                    "name": "A#2",
                    "midi": 46,
                    "time": 504.0000000000016,
                    "velocity": 0.3858267716535433,
                    "duration": 2.3999999999999773
                },
                {
                    "name": "F3",
                    "midi": 53,
                    "time": 504.0000000000016,
                    "velocity": 0.3858267716535433,
                    "duration": 2.3999999999999773
                },
                {
                    "name": "G3",
                    "midi": 55,
                    "time": 504.0000000000016,
                    "velocity": 0.3858267716535433,
                    "duration": 2.3999999999999773
                },
                {
                    "name": "D#2",
                    "midi": 39,
                    "time": 506.40000000000157,
                    "velocity": 0.3858267716535433,
                    "duration": 1.1999999999999886
                },
                {
                    "name": "A#2",
                    "midi": 46,
                    "time": 506.40000000000157,
                    "velocity": 0.3858267716535433,
                    "duration": 1.1999999999999886
                },
                {
                    "name": "F3",
                    "midi": 53,
                    "time": 506.40000000000157,
                    "velocity": 0.3858267716535433,
                    "duration": 1.1999999999999886
                },
                {
                    "name": "G3",
                    "midi": 55,
                    "time": 506.40000000000157,
                    "velocity": 0.3858267716535433,
                    "duration": 1.1999999999999886
                },
                {
                    "name": "C#4",
                    "midi": 61,
                    "time": 507.60000000000156,
                    "velocity": 0.5905511811023622,
                    "duration": 1.1999999999999886
                },
                {
                    "name": "F4",
                    "midi": 65,
                    "time": 507.60000000000156,
                    "velocity": 0.5905511811023622,
                    "duration": 1.1999999999999886
                },
                {
                    "name": "F#4",
                    "midi": 66,
                    "time": 507.60000000000156,
                    "velocity": 0.5905511811023622,
                    "duration": 1.1999999999999886
                },
                {
                    "name": "A#4",
                    "midi": 70,
                    "time": 507.60000000000156,
                    "velocity": 0.5905511811023622,
                    "duration": 1.1999999999999886
                },
                {
                    "name": "C#4",
                    "midi": 61,
                    "time": 508.80000000000155,
                    "velocity": 0.3858267716535433,
                    "duration": 0.11750000000000682
                },
                {
                    "name": "A#3",
                    "midi": 58,
                    "time": 509.40000000000157,
                    "velocity": 0.3858267716535433,
                    "duration": 0.11750000000000682
                },
                {
                    "name": "D#4",
                    "midi": 63,
                    "time": 510.0000000000016,
                    "velocity": 0.3858267716535433,
                    "duration": 0.11750000000000682
                },
                {
                    "name": "A#3",
                    "midi": 58,
                    "time": 510.6000000000016,
                    "velocity": 0.3858267716535433,
                    "duration": 0.11750000000000682
                },
                {
                    "name": "D#2",
                    "midi": 39,
                    "time": 511.20000000000164,
                    "velocity": 0.3858267716535433,
                    "duration": 0.6000000000000227
                },
                {
                    "name": "A#2",
                    "midi": 46,
                    "time": 511.20000000000164,
                    "velocity": 0.3858267716535433,
                    "duration": 0.6000000000000227
                },
                {
                    "name": "F3",
                    "midi": 53,
                    "time": 511.20000000000164,
                    "velocity": 0.3858267716535433,
                    "duration": 0.6000000000000227
                },
                {
                    "name": "G3",
                    "midi": 55,
                    "time": 511.20000000000164,
                    "velocity": 0.3858267716535433,
                    "duration": 0.6000000000000227
                },
                {
                    "name": "D#4",
                    "midi": 63,
                    "time": 512.4000000000017,
                    "velocity": 0.3858267716535433,
                    "duration": 0.11749999999994998
                },
                {
                    "name": "A#3",
                    "midi": 58,
                    "time": 513.0000000000016,
                    "velocity": 0.3858267716535433,
                    "duration": 0.11749999999994998
                },
                {
                    "name": "C#4",
                    "midi": 61,
                    "time": 513.6000000000015,
                    "velocity": 0.3858267716535433,
                    "duration": 0.11749999999994998
                },
                {
                    "name": "A#3",
                    "midi": 58,
                    "time": 514.2000000000014,
                    "velocity": 0.3858267716535433,
                    "duration": 0.11749999999994998
                },
                {
                    "name": "D#4",
                    "midi": 63,
                    "time": 514.8000000000013,
                    "velocity": 0.3858267716535433,
                    "duration": 0.11749999999994998
                },
                {
                    "name": "A#3",
                    "midi": 58,
                    "time": 515.4000000000012,
                    "velocity": 0.3858267716535433,
                    "duration": 0.11749999999994998
                },
                {
                    "name": "D#2",
                    "midi": 39,
                    "time": 516.0000000000011,
                    "velocity": 0.3858267716535433,
                    "duration": 0.6000000000000227
                },
                {
                    "name": "A#2",
                    "midi": 46,
                    "time": 516.0000000000011,
                    "velocity": 0.3858267716535433,
                    "duration": 0.6000000000000227
                },
                {
                    "name": "F3",
                    "midi": 53,
                    "time": 516.0000000000011,
                    "velocity": 0.3858267716535433,
                    "duration": 0.6000000000000227
                },
                {
                    "name": "G3",
                    "midi": 55,
                    "time": 516.0000000000011,
                    "velocity": 0.3858267716535433,
                    "duration": 0.6000000000000227
                },
                {
                    "name": "D#4",
                    "midi": 63,
                    "time": 517.2000000000012,
                    "velocity": 0.3858267716535433,
                    "duration": 0.11749999999994998
                },
                {
                    "name": "A#3",
                    "midi": 58,
                    "time": 517.8000000000011,
                    "velocity": 0.3858267716535433,
                    "duration": 0.11749999999994998
                },
                {
                    "name": "C#4",
                    "midi": 61,
                    "time": 518.400000000001,
                    "velocity": 0.3858267716535433,
                    "duration": 0.11749999999994998
                },
                {
                    "name": "A#3",
                    "midi": 58,
                    "time": 519.0000000000009,
                    "velocity": 0.3858267716535433,
                    "duration": 0.11749999999994998
                },
                {
                    "name": "D#4",
                    "midi": 63,
                    "time": 519.6000000000008,
                    "velocity": 0.3858267716535433,
                    "duration": 0.11749999999994998
                },
                {
                    "name": "A#3",
                    "midi": 58,
                    "time": 520.2000000000007,
                    "velocity": 0.3858267716535433,
                    "duration": 0.11749999999994998
                },
                {
                    "name": "D#2",
                    "midi": 39,
                    "time": 520.8000000000006,
                    "velocity": 0.3858267716535433,
                    "duration": 0.6000000000000227
                },
                {
                    "name": "A#2",
                    "midi": 46,
                    "time": 520.8000000000006,
                    "velocity": 0.3858267716535433,
                    "duration": 0.6000000000000227
                },
                {
                    "name": "F3",
                    "midi": 53,
                    "time": 520.8000000000006,
                    "velocity": 0.3858267716535433,
                    "duration": 0.6000000000000227
                },
                {
                    "name": "G3",
                    "midi": 55,
                    "time": 520.8000000000006,
                    "velocity": 0.3858267716535433,
                    "duration": 0.6000000000000227
                },
                {
                    "name": "A#3",
                    "midi": 58,
                    "time": 521.4000000000007,
                    "velocity": 0.3858267716535433,
                    "duration": 0.11749999999994998
                },
                {
                    "name": "D#4",
                    "midi": 63,
                    "time": 522.0000000000006,
                    "velocity": 0.3858267716535433,
                    "duration": 0.11749999999994998
                },
                {
                    "name": "A#3",
                    "midi": 58,
                    "time": 522.6000000000005,
                    "velocity": 0.3858267716535433,
                    "duration": 0.11749999999994998
                },
                {
                    "name": "C#4",
                    "midi": 61,
                    "time": 523.2000000000004,
                    "velocity": 0.3858267716535433,
                    "duration": 0.11749999999994998
                },
                {
                    "name": "A#3",
                    "midi": 58,
                    "time": 523.8000000000003,
                    "velocity": 0.3858267716535433,
                    "duration": 0.11749999999994998
                },
                {
                    "name": "D#4",
                    "midi": 63,
                    "time": 524.4000000000002,
                    "velocity": 0.3858267716535433,
                    "duration": 0.11749999999994998
                },
                {
                    "name": "A#3",
                    "midi": 58,
                    "time": 525.0000000000001,
                    "velocity": 0.3858267716535433,
                    "duration": 0.11749999999994998
                },
                {
                    "name": "D#2",
                    "midi": 39,
                    "time": 525.6,
                    "velocity": 0.3858267716535433,
                    "duration": 0.6000000000000227
                },
                {
                    "name": "A#2",
                    "midi": 46,
                    "time": 525.6,
                    "velocity": 0.3858267716535433,
                    "duration": 0.6000000000000227
                },
                {
                    "name": "F3",
                    "midi": 53,
                    "time": 525.6,
                    "velocity": 0.3858267716535433,
                    "duration": 0.6000000000000227
                },
                {
                    "name": "G3",
                    "midi": 55,
                    "time": 525.6,
                    "velocity": 0.3858267716535433,
                    "duration": 0.6000000000000227
                },
                {
                    "name": "D#4",
                    "midi": 63,
                    "time": 526.8000000000001,
                    "velocity": 0.3858267716535433,
                    "duration": 0.11749999999994998
                },
                {
                    "name": "A#3",
                    "midi": 58,
                    "time": 527.4,
                    "velocity": 0.3858267716535433,
                    "duration": 0.11749999999994998
                },
                {
                    "name": "C#4",
                    "midi": 61,
                    "time": 527.9999999999999,
                    "velocity": 0.3858267716535433,
                    "duration": 0.11749999999994998
                },
                {
                    "name": "A#3",
                    "midi": 58,
                    "time": 528.5999999999998,
                    "velocity": 0.3858267716535433,
                    "duration": 0.11749999999994998
                },
                {
                    "name": "D#4",
                    "midi": 63,
                    "time": 529.1999999999997,
                    "velocity": 0.3858267716535433,
                    "duration": 0.11749999999994998
                },
                {
                    "name": "A#3",
                    "midi": 58,
                    "time": 529.7999999999996,
                    "velocity": 0.3858267716535433,
                    "duration": 0.11749999999994998
                },
                {
                    "name": "C#4",
                    "midi": 61,
                    "time": 530.3999999999995,
                    "velocity": 0.3858267716535433,
                    "duration": 0.11749999999994998
                },
                {
                    "name": "A#3",
                    "midi": 58,
                    "time": 530.9999999999994,
                    "velocity": 0.3858267716535433,
                    "duration": 0.11749999999994998
                },
                {
                    "name": "D#4",
                    "midi": 63,
                    "time": 531.5999999999993,
                    "velocity": 0.3858267716535433,
                    "duration": 0.11749999999994998
                },
                {
                    "name": "A#3",
                    "midi": 58,
                    "time": 532.1999999999992,
                    "velocity": 0.3858267716535433,
                    "duration": 0.11749999999994998
                },
                {
                    "name": "D#2",
                    "midi": 39,
                    "time": 532.7999999999992,
                    "velocity": 0.3858267716535433,
                    "duration": 0.6000000000000227
                },
                {
                    "name": "A#2",
                    "midi": 46,
                    "time": 532.7999999999992,
                    "velocity": 0.3858267716535433,
                    "duration": 0.6000000000000227
                },
                {
                    "name": "F3",
                    "midi": 53,
                    "time": 532.7999999999992,
                    "velocity": 0.3858267716535433,
                    "duration": 0.6000000000000227
                },
                {
                    "name": "G3",
                    "midi": 55,
                    "time": 532.7999999999992,
                    "velocity": 0.3858267716535433,
                    "duration": 0.6000000000000227
                },
                {
                    "name": "A#3",
                    "midi": 58,
                    "time": 533.3999999999992,
                    "velocity": 0.3858267716535433,
                    "duration": 0.6000000000000227
                },
                {
                    "name": "D#4",
                    "midi": 63,
                    "time": 533.9999999999992,
                    "velocity": 0.3858267716535433,
                    "duration": 0.11749999999994998
                },
                {
                    "name": "A#3",
                    "midi": 58,
                    "time": 534.5999999999991,
                    "velocity": 0.3858267716535433,
                    "duration": 0.11749999999994998
                },
                {
                    "name": "C#4",
                    "midi": 61,
                    "time": 535.199999999999,
                    "velocity": 0.3858267716535433,
                    "duration": 0.11749999999994998
                },
                {
                    "name": "A#3",
                    "midi": 58,
                    "time": 535.7999999999989,
                    "velocity": 0.3858267716535433,
                    "duration": 0.11749999999994998
                },
                {
                    "name": "D#4",
                    "midi": 63,
                    "time": 536.3999999999988,
                    "velocity": 0.3858267716535433,
                    "duration": 0.11749999999994998
                },
                {
                    "name": "A#3",
                    "midi": 58,
                    "time": 536.9999999999987,
                    "velocity": 0.3858267716535433,
                    "duration": 0.11749999999994998
                },
                {
                    "name": "C#4",
                    "midi": 61,
                    "time": 537.5999999999987,
                    "velocity": 0.3858267716535433,
                    "duration": 0.11749999999994998
                },
                {
                    "name": "A#3",
                    "midi": 58,
                    "time": 538.1999999999986,
                    "velocity": 0.3858267716535433,
                    "duration": 0.11749999999994998
                },
                {
                    "name": "D#4",
                    "midi": 63,
                    "time": 538.7999999999985,
                    "velocity": 0.3858267716535433,
                    "duration": 0.11749999999994998
                },
                {
                    "name": "A#3",
                    "midi": 58,
                    "time": 539.3999999999984,
                    "velocity": 0.3858267716535433,
                    "duration": 0.11749999999994998
                },
                {
                    "name": "D#3",
                    "midi": 51,
                    "time": 540.5999999999983,
                    "velocity": 0.3858267716535433,
                    "duration": 0.11749999999994998
                },
                {
                    "name": "D#3",
                    "midi": 51,
                    "time": 541.7999999999982,
                    "velocity": 0.3858267716535433,
                    "duration": 0.11749999999994998
                },
                {
                    "name": "D#3",
                    "midi": 51,
                    "time": 542.9999999999982,
                    "velocity": 0.3858267716535433,
                    "duration": 0.11749999999994998
                },
                {
                    "name": "D#3",
                    "midi": 51,
                    "time": 544.1999999999981,
                    "velocity": 0.3858267716535433,
                    "duration": 0.11749999999994998
                },
                {
                    "name": "D#3",
                    "midi": 51,
                    "time": 545.399999999998,
                    "velocity": 0.3858267716535433,
                    "duration": 0.11749999999994998
                },
                {
                    "name": "D#3",
                    "midi": 51,
                    "time": 546.599999999998,
                    "velocity": 0.4881889763779528,
                    "duration": 0.11749999999994998
                },
                {
                    "name": "D#3",
                    "midi": 51,
                    "time": 547.7999999999979,
                    "velocity": 0.5905511811023622,
                    "duration": 0.11749999999994998
                },
                {
                    "name": "D#3",
                    "midi": 51,
                    "time": 548.9999999999978,
                    "velocity": 0.6929133858267716,
                    "duration": 0.11749999999994998
                },
                {
                    "name": "D#3",
                    "midi": 51,
                    "time": 550.1999999999978,
                    "velocity": 0.3858267716535433,
                    "duration": 0.11749999999994998
                },
                {
                    "name": "D#3",
                    "midi": 51,
                    "time": 551.3999999999977,
                    "velocity": 0.3858267716535433,
                    "duration": 0.11749999999994998
                },
                {
                    "name": "D#3",
                    "midi": 51,
                    "time": 552.5999999999976,
                    "velocity": 0.4881889763779528,
                    "duration": 0.11749999999994998
                },
                {
                    "name": "D#3",
                    "midi": 51,
                    "time": 553.7999999999976,
                    "velocity": 0.4881889763779528,
                    "duration": 0.11749999999994998
                },
                {
                    "name": "D#3",
                    "midi": 51,
                    "time": 554.9999999999975,
                    "velocity": 0.5905511811023622,
                    "duration": 0.11749999999994998
                },
                {
                    "name": "D#3",
                    "midi": 51,
                    "time": 556.1999999999974,
                    "velocity": 0.5905511811023622,
                    "duration": 0.11749999999994998
                },
                {
                    "name": "D#3",
                    "midi": 51,
                    "time": 557.3999999999974,
                    "velocity": 0.6929133858267716,
                    "duration": 0.11749999999994998
                },
                {
                    "name": "D#3",
                    "midi": 51,
                    "time": 558.5999999999973,
                    "velocity": 0.6929133858267716,
                    "duration": 0.11749999999994998
                },
                {
                    "name": "F3",
                    "midi": 53,
                    "time": 578.9999999999973,
                    "velocity": 0.6929133858267716,
                    "duration": 1.2000000000000455
                },
                {
                    "name": "D#3",
                    "midi": 51,
                    "time": 580.1999999999973,
                    "velocity": 0.6929133858267716,
                    "duration": 1.2000000000000455
                },
                {
                    "name": "F2",
                    "midi": 41,
                    "time": 581.3999999999974,
                    "velocity": 0.6929133858267716,
                    "duration": 1.2000000000000455
                },
                {
                    "name": "G2",
                    "midi": 43,
                    "time": 582.5999999999974,
                    "velocity": 0.6929133858267716,
                    "duration": 1.2000000000000455
                },
                {
                    "name": "F3",
                    "midi": 53,
                    "time": 583.7999999999975,
                    "velocity": 0.6929133858267716,
                    "duration": 1.2000000000000455
                },
                {
                    "name": "D#3",
                    "midi": 51,
                    "time": 584.9999999999975,
                    "velocity": 0.6929133858267716,
                    "duration": 1.2000000000000455
                },
                {
                    "name": "F2",
                    "midi": 41,
                    "time": 586.1999999999975,
                    "velocity": 0.6929133858267716,
                    "duration": 1.2000000000000455
                },
                {
                    "name": "G2",
                    "midi": 43,
                    "time": 587.3999999999976,
                    "velocity": 0.6929133858267716,
                    "duration": 0.6000000000000227
                },
                {
                    "name": "F2",
                    "midi": 41,
                    "time": 617.3999999999976,
                    "velocity": 0.8976377952755905,
                    "duration": 1.2000000000000455
                },
                {
                    "name": "F3",
                    "midi": 53,
                    "time": 617.3999999999976,
                    "velocity": 0.8976377952755905,
                    "duration": 1.2000000000000455
                },
                {
                    "name": "D#2",
                    "midi": 39,
                    "time": 618.5999999999976,
                    "velocity": 0.8976377952755905,
                    "duration": 1.2000000000000455
                },
                {
                    "name": "D#3",
                    "midi": 51,
                    "time": 618.5999999999976,
                    "velocity": 0.8976377952755905,
                    "duration": 1.2000000000000455
                },
                {
                    "name": "F1",
                    "midi": 29,
                    "time": 619.7999999999977,
                    "velocity": 0.8976377952755905,
                    "duration": 1.2000000000000455
                },
                {
                    "name": "F2",
                    "midi": 41,
                    "time": 619.7999999999977,
                    "velocity": 0.8976377952755905,
                    "duration": 1.2000000000000455
                },
                {
                    "name": "G1",
                    "midi": 31,
                    "time": 620.9999999999977,
                    "velocity": 0.8976377952755905,
                    "duration": 1.2000000000000455
                },
                {
                    "name": "G2",
                    "midi": 43,
                    "time": 620.9999999999977,
                    "velocity": 0.8976377952755905,
                    "duration": 1.2000000000000455
                },
                {
                    "name": "F2",
                    "midi": 41,
                    "time": 622.1999999999978,
                    "velocity": 0.8976377952755905,
                    "duration": 1.2000000000000455
                },
                {
                    "name": "F3",
                    "midi": 53,
                    "time": 622.1999999999978,
                    "velocity": 0.8976377952755905,
                    "duration": 1.2000000000000455
                },
                {
                    "name": "D#2",
                    "midi": 39,
                    "time": 623.3999999999978,
                    "velocity": 0.8976377952755905,
                    "duration": 0.6000000000000227
                },
                {
                    "name": "D#3",
                    "midi": 51,
                    "time": 623.3999999999978,
                    "velocity": 0.8976377952755905,
                    "duration": 0.6000000000000227
                },
                {
                    "name": "F2",
                    "midi": 41,
                    "time": 626.9999999999978,
                    "velocity": 0.8976377952755905,
                    "duration": 1.2000000000000455
                },
                {
                    "name": "F3",
                    "midi": 53,
                    "time": 626.9999999999978,
                    "velocity": 0.8976377952755905,
                    "duration": 1.2000000000000455
                },
                {
                    "name": "D#2",
                    "midi": 39,
                    "time": 628.1999999999979,
                    "velocity": 0.8976377952755905,
                    "duration": 1.2000000000000455
                },
                {
                    "name": "D#3",
                    "midi": 51,
                    "time": 628.1999999999979,
                    "velocity": 0.8976377952755905,
                    "duration": 1.2000000000000455
                },
                {
                    "name": "F1",
                    "midi": 29,
                    "time": 629.3999999999979,
                    "velocity": 0.8976377952755905,
                    "duration": 1.2000000000000455
                },
                {
                    "name": "F2",
                    "midi": 41,
                    "time": 629.3999999999979,
                    "velocity": 0.8976377952755905,
                    "duration": 1.2000000000000455
                },
                {
                    "name": "G1",
                    "midi": 31,
                    "time": 630.599999999998,
                    "velocity": 0.8976377952755905,
                    "duration": 1.2000000000000455
                },
                {
                    "name": "G2",
                    "midi": 43,
                    "time": 630.599999999998,
                    "velocity": 0.8976377952755905,
                    "duration": 1.2000000000000455
                },
                {
                    "name": "F2",
                    "midi": 41,
                    "time": 631.799999999998,
                    "velocity": 0.8976377952755905,
                    "duration": 1.2000000000000455
                },
                {
                    "name": "F3",
                    "midi": 53,
                    "time": 631.799999999998,
                    "velocity": 0.8976377952755905,
                    "duration": 1.2000000000000455
                },
                {
                    "name": "D#2",
                    "midi": 39,
                    "time": 632.9999999999981,
                    "velocity": 0.8976377952755905,
                    "duration": 0.6000000000000227
                },
                {
                    "name": "D#3",
                    "midi": 51,
                    "time": 632.9999999999981,
                    "velocity": 0.8976377952755905,
                    "duration": 0.6000000000000227
                }
            ],
            "controlChanges": {
                "7": [
                    {
                        "number": 7,
                        "time": 0,
                        "value": 1
                    }
                ],
                "10": [
                    {
                        "number": 10,
                        "time": 0,
                        "value": 0.23622047244094488
                    }
                ],
                "64": [
                    {
                        "number": 64,
                        "time": 78.00000000000004,
                        "value": 1
                    },
                    {
                        "number": 64,
                        "time": 84.00000000000004,
                        "value": 0
                    },
                    {
                        "number": 64,
                        "time": 92.40000000000006,
                        "value": 1
                    },
                    {
                        "number": 64,
                        "time": 93.4500000000001,
                        "value": 0
                    },
                    {
                        "number": 64,
                        "time": 166.80000000000004,
                        "value": 1
                    },
                    {
                        "number": 64,
                        "time": 167.79749999999999,
                        "value": 0
                    }
                ]
            },
            "id": 4,
            "name": "Instrument19",
            "instrumentNumber": 0,
            "instrument": "acoustic grand piano",
            "instrumentFamily": "piano",
            "channelNumber": 3,
            "isPercussion": false
        },
        {
            "startTime": 0,
            "duration": 0,
            "length": 0,
            "notes": [],
            "controlChanges": {},
            "id": 5
        }
    ]
}