{
    "header": {
        "PPQ": 120,
        "bpm": 93.00004185001883,
        "timeSignature": [
            4,
            4
        ],
        "name": "Larghetto Cantible"
    },
    "startTime": 0,
    "duration": 345.1342532916669,
    "tracks": [
        {
            "startTime": 0,
            "duration": 0,
            "length": 0,
            "notes": [],
            "controlChanges": {},
            "id": 0
        },
        {
            "startTime": 3.849460633333333,
            "duration": 345.07511353333285,
            "length": 1133,
            "notes": [
                {
                    "name": "C3",
                    "midi": 48,
                    "time": 3.849460633333333,
                    "velocity": 0.4251968503937008,
                    "duration": 0.3440858666666662
                },
                {
                    "name": "G3",
                    "midi": 55,
                    "time": 4.188170158333333,
                    "velocity": 0.3543307086614173,
                    "duration": 0.2311826916666666
                },
                {
                    "name": "C4",
                    "midi": 60,
                    "time": 4.521503341666666,
                    "velocity": 0.3543307086614173,
                    "duration": 0.3279568416666674
                },
                {
                    "name": "E4",
                    "midi": 64,
                    "time": 4.822578474999999,
                    "velocity": 0.4645669291338583,
                    "duration": 0.25268805833333374
                },
                {
                    "name": "C4",
                    "midi": 60,
                    "time": 5.139782633333333,
                    "velocity": 0.33070866141732286,
                    "duration": 0.1612902500000004
                },
                {
                    "name": "G3",
                    "midi": 55,
                    "time": 5.462363133333334,
                    "velocity": 0.4094488188976378,
                    "duration": 0.27956976666666655
                },
                {
                    "name": "E3",
                    "midi": 52,
                    "time": 5.758061925,
                    "velocity": 0.4015748031496063,
                    "duration": 0.3118278166666668
                },
                {
                    "name": "G3",
                    "midi": 55,
                    "time": 6.09677145,
                    "velocity": 0.29133858267716534,
                    "duration": 0.22580635000000004
                },
                {
                    "name": "C4",
                    "midi": 60,
                    "time": 6.440857316666667,
                    "velocity": 0.3858267716535433,
                    "duration": 0.34946220833333275
                },
                {
                    "name": "E4",
                    "midi": 64,
                    "time": 6.768814158333334,
                    "velocity": 0.4094488188976378,
                    "duration": 0.263440741666666
                },
                {
                    "name": "C4",
                    "midi": 60,
                    "time": 7.075265633333333,
                    "velocity": 0.3543307086614173,
                    "duration": 0.1505375666666664
                },
                {
                    "name": "G3",
                    "midi": 55,
                    "time": 7.408598816666666,
                    "velocity": 0.4015748031496063,
                    "duration": 0.2903224499999997
                },
                {
                    "name": "C3",
                    "midi": 48,
                    "time": 7.693544924999999,
                    "velocity": 0.44881889763779526,
                    "duration": 0.3172041583333325
                },
                {
                    "name": "G3",
                    "midi": 55,
                    "time": 8.043007133333331,
                    "velocity": 0.3543307086614173,
                    "duration": 0.1505375666666673
                },
                {
                    "name": "C4",
                    "midi": 60,
                    "time": 8.360211291666666,
                    "velocity": 0.3543307086614173,
                    "duration": 0.3333331833333322
                },
                {
                    "name": "E4",
                    "midi": 64,
                    "time": 8.677415449999998,
                    "velocity": 0.4409448818897638,
                    "duration": 0.274193425
                },
                {
                    "name": "C4",
                    "midi": 60,
                    "time": 8.999995949999999,
                    "velocity": 0.3464566929133858,
                    "duration": 0.1505375666666673
                },
                {
                    "name": "G3",
                    "midi": 55,
                    "time": 9.327952791666666,
                    "velocity": 0.25984251968503935,
                    "duration": 0.22580634999999916
                },
                {
                    "name": "E3",
                    "midi": 52,
                    "time": 9.645156949999999,
                    "velocity": 0.3779527559055118,
                    "duration": 0.2849461083333331
                },
                {
                    "name": "G3",
                    "midi": 55,
                    "time": 9.956984766666665,
                    "velocity": 0.30708661417322836,
                    "duration": 0.18279561666666666
                },
                {
                    "name": "C4",
                    "midi": 60,
                    "time": 10.290317949999999,
                    "velocity": 0.3228346456692913,
                    "duration": 0.3010751333333328
                },
                {
                    "name": "E4",
                    "midi": 64,
                    "time": 10.596769424999998,
                    "velocity": 0.36220472440944884,
                    "duration": 0.2580644000000003
                },
                {
                    "name": "C4",
                    "midi": 60,
                    "time": 10.913973583333332,
                    "velocity": 0.4015748031496063,
                    "duration": 0.15591390833333385
                },
                {
                    "name": "G3",
                    "midi": 55,
                    "time": 11.279564816666666,
                    "velocity": 0.3779527559055118,
                    "duration": 0.0806451250000002
                },
                {
                    "name": "G2",
                    "midi": 43,
                    "time": 11.586016291666665,
                    "velocity": 0.5669291338582677,
                    "duration": 1.9032249499999985
                },
                {
                    "name": "G3",
                    "midi": 55,
                    "time": 11.940854841666665,
                    "velocity": 0.4094488188976378,
                    "duration": 0.30645147499999936
                },
                {
                    "name": "B3",
                    "midi": 59,
                    "time": 12.231177291666665,
                    "velocity": 0.3779527559055118,
                    "duration": 0.38709659999999957
                },
                {
                    "name": "F4",
                    "midi": 65,
                    "time": 12.55913413333333,
                    "velocity": 0.3464566929133858,
                    "duration": 0.34946220833333363
                },
                {
                    "name": "B3",
                    "midi": 59,
                    "time": 12.887090974999998,
                    "velocity": 0.33858267716535434,
                    "duration": 0.3279568416666656
                },
                {
                    "name": "G3",
                    "midi": 55,
                    "time": 13.193542449999997,
                    "velocity": 0.2755905511811024,
                    "duration": 0.5107524583333323
                },
                {
                    "name": "D3",
                    "midi": 50,
                    "time": 13.516122949999996,
                    "velocity": 0.4015748031496063,
                    "duration": 1.9516120249999993
                },
                {
                    "name": "G3",
                    "midi": 55,
                    "time": 13.822574424999996,
                    "velocity": 0.28346456692913385,
                    "duration": 0.24731171666666718
                },
                {
                    "name": "B3",
                    "midi": 59,
                    "time": 14.12364955833333,
                    "velocity": 0.36220472440944884,
                    "duration": 0.3279568416666656
                },
                {
                    "name": "F4",
                    "midi": 65,
                    "time": 14.424724691666663,
                    "velocity": 0.3937007874015748,
                    "duration": 0.33870952499999873
                },
                {
                    "name": "B3",
                    "midi": 59,
                    "time": 14.763434216666662,
                    "velocity": 0.3464566929133858,
                    "duration": 0.3010751333333328
                },
                {
                    "name": "G3",
                    "midi": 55,
                    "time": 15.096767399999994,
                    "velocity": 0.30708661417322836,
                    "duration": 0.15591390833333385
                },
                {
                    "name": "B2",
                    "midi": 47,
                    "time": 15.397842533333328,
                    "velocity": 0.5669291338582677,
                    "duration": 1.9032249499999985
                },
                {
                    "name": "G3",
                    "midi": 55,
                    "time": 15.768810108333328,
                    "velocity": 0.4409448818897638,
                    "duration": 0.6236556333333336
                },
                {
                    "name": "B3",
                    "midi": 59,
                    "time": 16.10751963333333,
                    "velocity": 0.2992125984251969,
                    "duration": 0.34946220833333186
                },
                {
                    "name": "F4",
                    "midi": 65,
                    "time": 16.413971108333328,
                    "velocity": 0.4015748031496063,
                    "duration": 0.3279568416666656
                },
                {
                    "name": "B3",
                    "midi": 59,
                    "time": 16.725798924999992,
                    "velocity": 0.3543307086614173,
                    "duration": 0.31720415833333604
                },
                {
                    "name": "G3",
                    "midi": 55,
                    "time": 17.032250399999995,
                    "velocity": 0.4094488188976378,
                    "duration": 0.23655903333333228
                },
                {
                    "name": "D3",
                    "midi": 50,
                    "time": 17.370959924999994,
                    "velocity": 0.4015748031496063,
                    "duration": 1.9354830000000014
                },
                {
                    "name": "G3",
                    "midi": 55,
                    "time": 17.709669449999993,
                    "velocity": 0.4251968503937008,
                    "duration": 0.32795684166666916
                },
                {
                    "name": "B3",
                    "midi": 59,
                    "time": 18.032249949999994,
                    "velocity": 0.4015748031496063,
                    "duration": 0.29032245000000145
                },
                {
                    "name": "F4",
                    "midi": 65,
                    "time": 18.306443374999994,
                    "velocity": 0.4015748031496063,
                    "duration": 0.3494622083333354
                },
                {
                    "name": "B3",
                    "midi": 59,
                    "time": 18.65052924166666,
                    "velocity": 0.4251968503937008,
                    "duration": 0.3440858666666671
                },
                {
                    "name": "G3",
                    "midi": 55,
                    "time": 18.983862424999995,
                    "velocity": 0.4645669291338583,
                    "duration": 0.3172041583333325
                },
                {
                    "name": "G2",
                    "midi": 43,
                    "time": 19.32794829166666,
                    "velocity": 0.6299212598425197,
                    "duration": 1.8870959250000041
                },
                {
                    "name": "G3",
                    "midi": 55,
                    "time": 19.63439976666666,
                    "velocity": 0.3779527559055118,
                    "duration": 0.6505373416666664
                },
                {
                    "name": "B3",
                    "midi": 59,
                    "time": 19.962356608333327,
                    "velocity": 0.41732283464566927,
                    "duration": 0.3387095250000023
                },
                {
                    "name": "F4",
                    "midi": 65,
                    "time": 20.274184424999994,
                    "velocity": 0.33858267716535434,
                    "duration": 0.32795684166666916
                },
                {
                    "name": "B3",
                    "midi": 59,
                    "time": 20.612893949999997,
                    "velocity": 0.3228346456692913,
                    "duration": 0.29569879166666624
                },
                {
                    "name": "G3",
                    "midi": 55,
                    "time": 20.91396908333333,
                    "velocity": 0.2992125984251969,
                    "duration": 0.4569890416666702
                },
                {
                    "name": "D3",
                    "midi": 50,
                    "time": 21.231173241666667,
                    "velocity": 0.3937007874015748,
                    "duration": 1.9247303166666683
                },
                {
                    "name": "G3",
                    "midi": 55,
                    "time": 21.575259108333334,
                    "velocity": 0.3937007874015748,
                    "duration": 0.32795684166666916
                },
                {
                    "name": "B3",
                    "midi": 59,
                    "time": 21.887086925000002,
                    "velocity": 0.4015748031496063,
                    "duration": 0.30645147499999936
                },
                {
                    "name": "F4",
                    "midi": 65,
                    "time": 22.172033033333335,
                    "velocity": 0.3937007874015748,
                    "duration": 0.360214891666665
                },
                {
                    "name": "B3",
                    "midi": 59,
                    "time": 22.521495241666667,
                    "velocity": 0.3858267716535433,
                    "duration": 0.30645147499999936
                },
                {
                    "name": "G3",
                    "midi": 55,
                    "time": 22.844075741666668,
                    "velocity": 0.3779527559055118,
                    "duration": 0.32795684166666916
                },
                {
                    "name": "B2",
                    "midi": 47,
                    "time": 23.161279900000004,
                    "velocity": 0.49606299212598426,
                    "duration": 1.973117391666662
                },
                {
                    "name": "G3",
                    "midi": 55,
                    "time": 23.510742108333336,
                    "velocity": 0.3700787401574803,
                    "duration": 0.26344074166666687
                },
                {
                    "name": "B3",
                    "midi": 59,
                    "time": 23.83869895,
                    "velocity": 0.4251968503937008,
                    "duration": 0.29569879166666624
                },
                {
                    "name": "F4",
                    "midi": 65,
                    "time": 24.145150425,
                    "velocity": 0.41732283464566927,
                    "duration": 0.3172041583333325
                },
                {
                    "name": "B3",
                    "midi": 59,
                    "time": 24.462354583333333,
                    "velocity": 0.3700787401574803,
                    "duration": 0.3548385500000002
                },
                {
                    "name": "G3",
                    "midi": 55,
                    "time": 24.827945816666666,
                    "velocity": 0.3700787401574803,
                    "duration": 0.3655912333333333
                },
                {
                    "name": "D3",
                    "midi": 50,
                    "time": 25.145149975,
                    "velocity": 0.3779527559055118,
                    "duration": 1.8602142166666695
                },
                {
                    "name": "G3",
                    "midi": 55,
                    "time": 25.456977791666667,
                    "velocity": 0.2992125984251969,
                    "duration": 0.34946220833333186
                },
                {
                    "name": "B3",
                    "midi": 59,
                    "time": 25.795687316666665,
                    "velocity": 0.3228346456692913,
                    "duration": 0.274193425
                },
                {
                    "name": "F4",
                    "midi": 65,
                    "time": 26.059128058333332,
                    "velocity": 0.4094488188976378,
                    "duration": 0.37634391666666644
                },
                {
                    "name": "B3",
                    "midi": 59,
                    "time": 26.424719291666666,
                    "velocity": 0.29133858267716534,
                    "duration": 0.36021489166666854
                },
                {
                    "name": "G3",
                    "midi": 55,
                    "time": 26.768805158333333,
                    "velocity": 0.4015748031496063,
                    "duration": 0.22043000833333437
                },
                {
                    "name": "C3",
                    "midi": 48,
                    "time": 27.05375126666667,
                    "velocity": 0.3779527559055118,
                    "duration": 1.903224950000002
                },
                {
                    "name": "G3",
                    "midi": 55,
                    "time": 27.376331766666667,
                    "velocity": 0.4015748031496063,
                    "duration": 0.34946220833333186
                },
                {
                    "name": "C4",
                    "midi": 60,
                    "time": 27.704288608333332,
                    "velocity": 0.4409448818897638,
                    "duration": 0.3225805000000008
                },
                {
                    "name": "E4",
                    "midi": 64,
                    "time": 28.026869108333333,
                    "velocity": 0.5511811023622047,
                    "duration": 0.29032245000000145
                },
                {
                    "name": "C4",
                    "midi": 60,
                    "time": 28.34407326666667,
                    "velocity": 0.4645669291338583,
                    "duration": 0.27956976666666833
                },
                {
                    "name": "G3",
                    "midi": 55,
                    "time": 28.661277425000005,
                    "velocity": 0.2755905511811024,
                    "duration": 0.18279561666666666
                },
                {
                    "name": "E3",
                    "midi": 52,
                    "time": 28.983857925000006,
                    "velocity": 0.4251968503937008,
                    "duration": 1.9731173916666727
                },
                {
                    "name": "G3",
                    "midi": 55,
                    "time": 29.322567450000005,
                    "velocity": 0.4251968503937008,
                    "duration": 0.29032245000000145
                },
                {
                    "name": "C4",
                    "midi": 60,
                    "time": 29.62364258333334,
                    "velocity": 0.4566929133858268,
                    "duration": 0.2849461083333331
                },
                {
                    "name": "E4",
                    "midi": 64,
                    "time": 29.924717716666674,
                    "velocity": 0.5984251968503937,
                    "duration": 0.3118278166666677
                },
                {
                    "name": "C4",
                    "midi": 60,
                    "time": 30.258050900000008,
                    "velocity": 0.4645669291338583,
                    "duration": 0.3225805000000008
                },
                {
                    "name": "G3",
                    "midi": 55,
                    "time": 30.59676042500001,
                    "velocity": 0.3700787401574803,
                    "duration": 0.1505375666666673
                },
                {
                    "name": "C3",
                    "midi": 48,
                    "time": 30.95159897500001,
                    "velocity": 0.3779527559055118,
                    "duration": 1.8655905583333379
                },
                {
                    "name": "G3",
                    "midi": 55,
                    "time": 31.284932158333344,
                    "velocity": 0.3228346456692913,
                    "duration": 0.2473117166666654
                },
                {
                    "name": "C4",
                    "midi": 60,
                    "time": 31.618265341666675,
                    "velocity": 0.3464566929133858,
                    "duration": 0.26881708333333165
                },
                {
                    "name": "E4",
                    "midi": 64,
                    "time": 31.89783510833334,
                    "velocity": 0.6220472440944882,
                    "duration": 0.28494610833333667
                },
                {
                    "name": "C4",
                    "midi": 60,
                    "time": 32.21503926666668,
                    "velocity": 0.4881889763779528,
                    "duration": 0.3010751333333346
                },
                {
                    "name": "G3",
                    "midi": 55,
                    "time": 32.52686708333335,
                    "velocity": 0.4330708661417323,
                    "duration": 0.274193425
                },
                {
                    "name": "E3",
                    "midi": 52,
                    "time": 32.85482392500001,
                    "velocity": 0.4015748031496063,
                    "duration": 1.9301066583333508
                },
                {
                    "name": "G3",
                    "midi": 55,
                    "time": 33.17740442500001,
                    "velocity": 0.3464566929133858,
                    "duration": 0.21505366666666959
                },
                {
                    "name": "C4",
                    "midi": 60,
                    "time": 33.50536126666668,
                    "velocity": 0.4015748031496063,
                    "duration": 0.28494610833333667
                },
                {
                    "name": "E4",
                    "midi": 64,
                    "time": 33.811812741666685,
                    "velocity": 0.4251968503937008,
                    "duration": 0.3064514750000029
                },
                {
                    "name": "C4",
                    "midi": 60,
                    "time": 34.15052226666669,
                    "velocity": 0.3779527559055118,
                    "duration": 0.32795684166666916
                },
                {
                    "name": "G3",
                    "midi": 55,
                    "time": 34.47310276666669,
                    "velocity": 0.25196850393700787,
                    "duration": 0.3172041583333396
                },
                {
                    "name": "A2",
                    "midi": 45,
                    "time": 34.774177900000026,
                    "velocity": 0.5905511811023622,
                    "duration": 1.8763432416666745
                },
                {
                    "name": "A3",
                    "midi": 57,
                    "time": 35.1343927916667,
                    "velocity": 0.36220472440944884,
                    "duration": 0.4193546500000025
                },
                {
                    "name": "C#4",
                    "midi": 61,
                    "time": 35.46234963333337,
                    "velocity": 0.5196850393700787,
                    "duration": 0.3225805000000008
                },
                {
                    "name": "G4",
                    "midi": 67,
                    "time": 35.78493013333337,
                    "velocity": 0.2755905511811024,
                    "duration": 0.3172041583333325
                },
                {
                    "name": "C#4",
                    "midi": 61,
                    "time": 36.080628925000035,
                    "velocity": 0.6062992125984252,
                    "duration": 0.27956976666666833
                },
                {
                    "name": "A3",
                    "midi": 57,
                    "time": 36.3763277166667,
                    "velocity": 0.41732283464566927,
                    "duration": 0.2903224499999979
                },
                {
                    "name": "E3",
                    "midi": 52,
                    "time": 36.6989082166667,
                    "velocity": 0.48031496062992124,
                    "duration": 1.8978486083333266
                },
                {
                    "name": "A3",
                    "midi": 57,
                    "time": 37.0376177416667,
                    "velocity": 0.3700787401574803,
                    "duration": 0.35483854999999664
                },
                {
                    "name": "C#4",
                    "midi": 61,
                    "time": 37.3279401916667,
                    "velocity": 0.36220472440944884,
                    "duration": 0.3010751333333346
                },
                {
                    "name": "G4",
                    "midi": 67,
                    "time": 37.64514435000003,
                    "velocity": 0.33858267716535434,
                    "duration": 0.3655912333333333
                },
                {
                    "name": "C#4",
                    "midi": 61,
                    "time": 38.005359241666696,
                    "velocity": 0.5196850393700787,
                    "duration": 0.26881708333333165
                },
                {
                    "name": "A3",
                    "midi": 57,
                    "time": 38.30643437500003,
                    "velocity": 0.3464566929133858,
                    "duration": 1.0161285749999962
                },
                {
                    "name": "D3",
                    "midi": 50,
                    "time": 38.612885850000026,
                    "velocity": 0.41732283464566927,
                    "duration": 1.5913971333333308
                },
                {
                    "name": "A3",
                    "midi": 57,
                    "time": 38.98922976666669,
                    "velocity": 0.3937007874015748,
                    "duration": 0.4516127000000054
                },
                {
                    "name": "D4",
                    "midi": 62,
                    "time": 39.31718660833336,
                    "velocity": 0.41732283464566927,
                    "duration": 0.3440858666666671
                },
                {
                    "name": "F4",
                    "midi": 65,
                    "time": 39.63976710833336,
                    "velocity": 0.6614173228346457,
                    "duration": 0.3172041583333325
                },
                {
                    "name": "D4",
                    "midi": 62,
                    "time": 39.97310029166669,
                    "velocity": 0.3464566929133858,
                    "duration": 0.24193537500000417
                },
                {
                    "name": "A3",
                    "midi": 57,
                    "time": 40.23116469166669,
                    "velocity": 0.4330708661417323,
                    "duration": 0.37096757500000166
                },
                {
                    "name": "D3",
                    "midi": 50,
                    "time": 40.58062690000003,
                    "velocity": 0.4409448818897638,
                    "duration": 0.49999977499999915
                },
                {
                    "name": "G2",
                    "midi": 43,
                    "time": 42.569873316666694,
                    "velocity": 0.2677165354330709,
                    "duration": 1.870966899999999
                },
                {
                    "name": "G3",
                    "midi": 55,
                    "time": 42.90320650000003,
                    "velocity": 0.28346456692913385,
                    "duration": 0.6935480749999954
                },
                {
                    "name": "B3",
                    "midi": 59,
                    "time": 43.23653968333336,
                    "velocity": 0.3700787401574803,
                    "duration": 0.3440858666666671
                },
                {
                    "name": "F4",
                    "midi": 65,
                    "time": 43.548367500000026,
                    "velocity": 0.4409448818897638,
                    "duration": 0.3172041583333325
                },
                {
                    "name": "B3",
                    "midi": 59,
                    "time": 43.86557165833336,
                    "velocity": 0.3543307086614173,
                    "duration": 0.2473117166666654
                },
                {
                    "name": "G3",
                    "midi": 55,
                    "time": 44.13976508333336,
                    "velocity": 0.3464566929133858,
                    "duration": 0.5107524583333287
                },
                {
                    "name": "D3",
                    "midi": 50,
                    "time": 44.45696924166669,
                    "velocity": 0.4330708661417323,
                    "duration": 1.8655905583333237
                },
                {
                    "name": "G3",
                    "midi": 55,
                    "time": 44.768797058333355,
                    "velocity": 0.31496062992125984,
                    "duration": 0.360214891666665
                },
                {
                    "name": "B3",
                    "midi": 59,
                    "time": 45.11288292500002,
                    "velocity": 0.4094488188976378,
                    "duration": 0.32795684166666206
                },
                {
                    "name": "F4",
                    "midi": 65,
                    "time": 45.41933440000002,
                    "velocity": 0.31496062992125984,
                    "duration": 0.33870952499999873
                },
                {
                    "name": "B3",
                    "midi": 59,
                    "time": 45.74191490000002,
                    "velocity": 0.4015748031496063,
                    "duration": 0.28494610833332956
                },
                {
                    "name": "G3",
                    "midi": 55,
                    "time": 46.042990033333346,
                    "velocity": 0.3779527559055118,
                    "duration": 0.3870966000000067
                },
                {
                    "name": "C3",
                    "midi": 48,
                    "time": 46.34944150833335,
                    "velocity": 0.5196850393700787,
                    "duration": 1.6021498166666746
                },
                {
                    "name": "G3",
                    "midi": 55,
                    "time": 46.688151033333355,
                    "velocity": 0.2992125984251969,
                    "duration": 0.38709659999999957
                },
                {
                    "name": "C4",
                    "midi": 60,
                    "time": 47.03761324166669,
                    "velocity": 0.4409448818897638,
                    "duration": 0.32795684166666916
                },
                {
                    "name": "E4",
                    "midi": 64,
                    "time": 47.36019374166669,
                    "velocity": 0.4409448818897638,
                    "duration": 0.3225805000000008
                },
                {
                    "name": "C4",
                    "midi": 60,
                    "time": 47.68277424166669,
                    "velocity": 0.41732283464566927,
                    "duration": 0.2903224499999979
                },
                {
                    "name": "G3",
                    "midi": 55,
                    "time": 47.97309669166669,
                    "velocity": 0.3700787401574803,
                    "duration": 0.33870952499999873
                },
                {
                    "name": "C3",
                    "midi": 48,
                    "time": 48.322558900000026,
                    "velocity": 0.4409448818897638,
                    "duration": 0.4086019666666658
                },
                {
                    "name": "B2",
                    "midi": 47,
                    "time": 50.27417092500002,
                    "velocity": 0.5118110236220472,
                    "duration": 1.4838702999999995
                },
                {
                    "name": "G3",
                    "midi": 55,
                    "time": 50.62900947500002,
                    "velocity": 0.3464566929133858,
                    "duration": 1.0913973583333387
                },
                {
                    "name": "B3",
                    "midi": 59,
                    "time": 50.95696631666669,
                    "velocity": 0.41732283464566927,
                    "duration": 0.7849458833333358
                },
                {
                    "name": "G4",
                    "midi": 67,
                    "time": 51.26341779166669,
                    "velocity": 0.3543307086614173,
                    "duration": 0.47311806666666456
                },
                {
                    "name": "C3",
                    "midi": 48,
                    "time": 52.19890124166669,
                    "velocity": 0.5354330708661418,
                    "duration": 1.8118271416666545
                },
                {
                    "name": "A3",
                    "midi": 57,
                    "time": 52.53761076666669,
                    "velocity": 0.3700787401574803,
                    "duration": 1.252687608333325
                },
                {
                    "name": "C4",
                    "midi": 60,
                    "time": 52.86556760833336,
                    "velocity": 0.3464566929133858,
                    "duration": 0.5268814833333266
                },
                {
                    "name": "E4",
                    "midi": 64,
                    "time": 53.220406158333354,
                    "velocity": 0.5511811023622047,
                    "duration": 0.6075266083333233
                },
                {
                    "name": "C4",
                    "midi": 60,
                    "time": 53.47847055833335,
                    "velocity": 0.07874015748031496,
                    "duration": 0.274193425
                },
                {
                    "name": "D3",
                    "midi": 50,
                    "time": 54.118255216666675,
                    "velocity": 0.4251968503937008,
                    "duration": 1.5268810333333462
                },
                {
                    "name": "G3",
                    "midi": 55,
                    "time": 54.46771742500001,
                    "velocity": 0.4015748031496063,
                    "duration": 1.112902725000005
                },
                {
                    "name": "B3",
                    "midi": 59,
                    "time": 54.79029792500001,
                    "velocity": 0.3937007874015748,
                    "duration": 0.8118275916666775
                },
                {
                    "name": "G4",
                    "midi": 67,
                    "time": 55.11287842500001,
                    "velocity": 0.3858267716535433,
                    "duration": 0.47849440833334
                },
                {
                    "name": "D3",
                    "midi": 50,
                    "time": 56.02148016666669,
                    "velocity": 0.4645669291338583,
                    "duration": 1.559139083333342
                },
                {
                    "name": "A3",
                    "midi": 57,
                    "time": 56.327931641666694,
                    "velocity": 0.3464566929133858,
                    "duration": 1.2204295583333362
                },
                {
                    "name": "D4",
                    "midi": 62,
                    "time": 56.68814653333336,
                    "velocity": 0.36220472440944884,
                    "duration": 0.8709673500000079
                },
                {
                    "name": "F#4",
                    "midi": 66,
                    "time": 57.037608741666695,
                    "velocity": 0.5433070866141733,
                    "duration": 0.5161288000000042
                },
                {
                    "name": "G2",
                    "midi": 43,
                    "time": 58.010726583333366,
                    "velocity": 0.4251968503937008,
                    "duration": 1.7258056750000037
                },
                {
                    "name": "G3",
                    "midi": 55,
                    "time": 58.3601887916667,
                    "velocity": 0.23622047244094488,
                    "duration": 1.2795693166666666
                },
                {
                    "name": "B3",
                    "midi": 59,
                    "time": 58.67739295000003,
                    "velocity": 0.3700787401574803,
                    "duration": 1.0913973583333387
                },
                {
                    "name": "G4",
                    "midi": 67,
                    "time": 58.9730917416667,
                    "velocity": 0.2204724409448819,
                    "duration": 0.8548383250000029
                },
                {
                    "name": "B3",
                    "midi": 59,
                    "time": 59.935456900000034,
                    "velocity": 0.5196850393700787,
                    "duration": 2.5806440000000066
                },
                {
                    "name": "D4",
                    "midi": 62,
                    "time": 60.5376071666667,
                    "velocity": 0.5196850393700787,
                    "duration": 1.9677410500000008
                },
                {
                    "name": "G4",
                    "midi": 67,
                    "time": 61.1988971916667,
                    "velocity": 0.4251968503937008,
                    "duration": 1.2956983416666645
                },
                {
                    "name": "G2",
                    "midi": 43,
                    "time": 61.838681850000036,
                    "velocity": 0.3858267716535433,
                    "duration": 0.6827953916666729
                },
                {
                    "name": "C3",
                    "midi": 48,
                    "time": 65.74728224166671,
                    "velocity": 0.5511811023622047,
                    "duration": 0.8978490583333354
                },
                {
                    "name": "G3",
                    "midi": 55,
                    "time": 66.12362615833338,
                    "velocity": 0.3543307086614173,
                    "duration": 0.2311826916666746
                },
                {
                    "name": "C4",
                    "midi": 60,
                    "time": 66.45695934166672,
                    "velocity": 0.3543307086614173,
                    "duration": 0.32795684166666206
                },
                {
                    "name": "E4",
                    "midi": 64,
                    "time": 66.75803447500004,
                    "velocity": 0.4645669291338583,
                    "duration": 0.25268805833333374
                },
                {
                    "name": "C4",
                    "midi": 60,
                    "time": 67.07523863333338,
                    "velocity": 0.33070866141732286,
                    "duration": 0.1612902499999933
                },
                {
                    "name": "G3",
                    "midi": 55,
                    "time": 67.39781913333337,
                    "velocity": 0.4094488188976378,
                    "duration": 0.27956976666666833
                },
                {
                    "name": "E3",
                    "midi": 52,
                    "time": 67.69351792500004,
                    "velocity": 0.4015748031496063,
                    "duration": 0.31182781666666415
                },
                {
                    "name": "G3",
                    "midi": 55,
                    "time": 68.03222745000004,
                    "velocity": 0.29133858267716534,
                    "duration": 0.22580634999999916
                },
                {
                    "name": "C4",
                    "midi": 60,
                    "time": 68.3763133166667,
                    "velocity": 0.3858267716535433,
                    "duration": 0.3494622083333354
                },
                {
                    "name": "E4",
                    "midi": 64,
                    "time": 68.70427015833336,
                    "velocity": 0.4094488188976378,
                    "duration": 0.2634407416666704
                },
                {
                    "name": "C4",
                    "midi": 60,
                    "time": 69.01072163333336,
                    "velocity": 0.3543307086614173,
                    "duration": 0.15053756666667084
                },
                {
                    "name": "G3",
                    "midi": 55,
                    "time": 69.3440548166667,
                    "velocity": 0.4015748031496063,
                    "duration": 0.2903224499999908
                },
                {
                    "name": "C3",
                    "midi": 48,
                    "time": 69.62900092500003,
                    "velocity": 0.44881889763779526,
                    "duration": 0.3172041583333254
                },
                {
                    "name": "G3",
                    "midi": 55,
                    "time": 69.97846313333335,
                    "velocity": 0.3543307086614173,
                    "duration": 0.15053756666667084
                },
                {
                    "name": "C4",
                    "midi": 60,
                    "time": 70.29566729166669,
                    "velocity": 0.3543307086614173,
                    "duration": 0.3333331833333375
                },
                {
                    "name": "E4",
                    "midi": 64,
                    "time": 70.61287145000003,
                    "velocity": 0.4409448818897638,
                    "duration": 0.2741934249999929
                },
                {
                    "name": "C4",
                    "midi": 60,
                    "time": 70.93545195000002,
                    "velocity": 0.3464566929133858,
                    "duration": 0.15053756666667084
                },
                {
                    "name": "G3",
                    "midi": 55,
                    "time": 71.26340879166669,
                    "velocity": 0.25984251968503935,
                    "duration": 0.22580634999999916
                },
                {
                    "name": "E3",
                    "midi": 52,
                    "time": 71.58061295000002,
                    "velocity": 0.3779527559055118,
                    "duration": 0.28494610833332956
                },
                {
                    "name": "G3",
                    "midi": 55,
                    "time": 71.89244076666668,
                    "velocity": 0.30708661417322836,
                    "duration": 0.18279561666666666
                },
                {
                    "name": "C4",
                    "midi": 60,
                    "time": 72.22577395000002,
                    "velocity": 0.3228346456692913,
                    "duration": 0.30107513333332747
                },
                {
                    "name": "E4",
                    "midi": 64,
                    "time": 72.53222542500001,
                    "velocity": 0.36220472440944884,
                    "duration": 0.258064399999995
                },
                {
                    "name": "C4",
                    "midi": 60,
                    "time": 72.84942958333333,
                    "velocity": 0.4015748031496063,
                    "duration": 0.15591390833333207
                },
                {
                    "name": "G3",
                    "midi": 55,
                    "time": 73.21502081666667,
                    "velocity": 0.3779527559055118,
                    "duration": 0.08064512500000376
                },
                {
                    "name": "G2",
                    "midi": 43,
                    "time": 73.52147229166667,
                    "velocity": 0.5669291338582677,
                    "duration": 1.9032249500000091
                },
                {
                    "name": "G3",
                    "midi": 55,
                    "time": 73.87631084166667,
                    "velocity": 0.4094488188976378,
                    "duration": 0.3064514750000029
                },
                {
                    "name": "B3",
                    "midi": 59,
                    "time": 74.16663329166667,
                    "velocity": 0.3779527559055118,
                    "duration": 0.38709659999999246
                },
                {
                    "name": "F4",
                    "midi": 65,
                    "time": 74.49459013333333,
                    "velocity": 0.3464566929133858,
                    "duration": 0.3494622083333354
                },
                {
                    "name": "B3",
                    "midi": 59,
                    "time": 74.822546975,
                    "velocity": 0.33858267716535434,
                    "duration": 0.32795684166667627
                },
                {
                    "name": "G3",
                    "midi": 55,
                    "time": 75.12899845,
                    "velocity": 0.2755905511811024,
                    "duration": 0.5107524583333429
                },
                {
                    "name": "D3",
                    "midi": 50,
                    "time": 75.45157895000001,
                    "velocity": 0.4015748031496063,
                    "duration": 1.9516120249999744
                },
                {
                    "name": "G3",
                    "midi": 55,
                    "time": 75.758030425,
                    "velocity": 0.28346456692913385,
                    "duration": 0.2473117166666725
                },
                {
                    "name": "B3",
                    "midi": 59,
                    "time": 76.05910555833334,
                    "velocity": 0.36220472440944884,
                    "duration": 0.32795684166666206
                },
                {
                    "name": "F4",
                    "midi": 65,
                    "time": 76.36018069166667,
                    "velocity": 0.3937007874015748,
                    "duration": 0.33870952499999873
                },
                {
                    "name": "B3",
                    "midi": 59,
                    "time": 76.69889021666667,
                    "velocity": 0.3464566929133858,
                    "duration": 0.30107513333332747
                },
                {
                    "name": "G3",
                    "midi": 55,
                    "time": 77.03222339999999,
                    "velocity": 0.30708661417322836,
                    "duration": 0.15591390833333207
                },
                {
                    "name": "B2",
                    "midi": 47,
                    "time": 77.33329853333332,
                    "velocity": 0.5669291338582677,
                    "duration": 1.903224949999995
                },
                {
                    "name": "G3",
                    "midi": 55,
                    "time": 77.70426610833331,
                    "velocity": 0.4409448818897638,
                    "duration": 0.6236556333333283
                },
                {
                    "name": "B3",
                    "midi": 59,
                    "time": 78.04297563333331,
                    "velocity": 0.2992125984251969,
                    "duration": 0.3494622083333354
                },
                {
                    "name": "F4",
                    "midi": 65,
                    "time": 78.34942710833332,
                    "velocity": 0.4015748031496063,
                    "duration": 0.32795684166666206
                },
                {
                    "name": "B3",
                    "midi": 59,
                    "time": 78.66125492499998,
                    "velocity": 0.3543307086614173,
                    "duration": 0.3172041583333396
                },
                {
                    "name": "G3",
                    "midi": 55,
                    "time": 78.96770639999998,
                    "velocity": 0.4094488188976378,
                    "duration": 0.23655903333333583
                },
                {
                    "name": "D3",
                    "midi": 50,
                    "time": 79.30641592499998,
                    "velocity": 0.4015748031496063,
                    "duration": 1.9354829999999765
                },
                {
                    "name": "G3",
                    "midi": 55,
                    "time": 79.64512544999998,
                    "velocity": 0.4251968503937008,
                    "duration": 0.32795684166666206
                },
                {
                    "name": "B3",
                    "midi": 59,
                    "time": 79.96770594999998,
                    "velocity": 0.4015748031496063,
                    "duration": 0.2903224499999908
                },
                {
                    "name": "F4",
                    "midi": 65,
                    "time": 80.24189937499997,
                    "velocity": 0.4015748031496063,
                    "duration": 0.3494622083333212
                },
                {
                    "name": "B3",
                    "midi": 59,
                    "time": 80.58598524166663,
                    "velocity": 0.4251968503937008,
                    "duration": 0.34408586666665997
                },
                {
                    "name": "G3",
                    "midi": 55,
                    "time": 80.91931842499996,
                    "velocity": 0.4645669291338583,
                    "duration": 0.3172041583333396
                },
                {
                    "name": "G2",
                    "midi": 43,
                    "time": 81.26340429166663,
                    "velocity": 0.6299212598425197,
                    "duration": 1.8870959249999828
                },
                {
                    "name": "G3",
                    "midi": 55,
                    "time": 81.56985576666663,
                    "velocity": 0.3779527559055118,
                    "duration": 0.6505373416666629
                },
                {
                    "name": "B3",
                    "midi": 59,
                    "time": 81.8978126083333,
                    "velocity": 0.41732283464566927,
                    "duration": 0.33870952499999873
                },
                {
                    "name": "F4",
                    "midi": 65,
                    "time": 82.20964042499996,
                    "velocity": 0.33858267716535434,
                    "duration": 0.32795684166666206
                },
                {
                    "name": "B3",
                    "midi": 59,
                    "time": 82.54834994999996,
                    "velocity": 0.3228346456692913,
                    "duration": 0.29569879166666624
                },
                {
                    "name": "G3",
                    "midi": 55,
                    "time": 82.84942508333329,
                    "velocity": 0.2992125984251969,
                    "duration": 0.45698904166665955
                },
                {
                    "name": "D3",
                    "midi": 50,
                    "time": 83.16662924166661,
                    "velocity": 0.3937007874015748,
                    "duration": 1.9247303166666683
                },
                {
                    "name": "G3",
                    "midi": 55,
                    "time": 83.51071510833329,
                    "velocity": 0.3937007874015748,
                    "duration": 0.32795684166666206
                },
                {
                    "name": "B3",
                    "midi": 59,
                    "time": 83.82254292499995,
                    "velocity": 0.4015748031496063,
                    "duration": 0.3064514750000029
                },
                {
                    "name": "F4",
                    "midi": 65,
                    "time": 84.10748903333328,
                    "velocity": 0.3937007874015748,
                    "duration": 0.3602148916666721
                },
                {
                    "name": "B3",
                    "midi": 59,
                    "time": 84.45695124166662,
                    "velocity": 0.3858267716535433,
                    "duration": 0.3064514750000029
                },
                {
                    "name": "G3",
                    "midi": 55,
                    "time": 84.77953174166662,
                    "velocity": 0.3779527559055118,
                    "duration": 0.32795684166666206
                },
                {
                    "name": "B2",
                    "midi": 47,
                    "time": 85.09673589999994,
                    "velocity": 0.49606299212598426,
                    "duration": 1.9731173916666904
                },
                {
                    "name": "G3",
                    "midi": 55,
                    "time": 85.44619810833328,
                    "velocity": 0.3700787401574803,
                    "duration": 0.2634407416666704
                },
                {
                    "name": "B3",
                    "midi": 59,
                    "time": 85.77415494999995,
                    "velocity": 0.4251968503937008,
                    "duration": 0.29569879166666624
                },
                {
                    "name": "F4",
                    "midi": 65,
                    "time": 86.08060642499996,
                    "velocity": 0.41732283464566927,
                    "duration": 0.3172041583333396
                },
                {
                    "name": "B3",
                    "midi": 59,
                    "time": 86.3978105833333,
                    "velocity": 0.3700787401574803,
                    "duration": 0.35483854999999664
                },
                {
                    "name": "G3",
                    "midi": 55,
                    "time": 86.76340181666663,
                    "velocity": 0.3700787401574803,
                    "duration": 0.3655912333333333
                },
                {
                    "name": "D3",
                    "midi": 50,
                    "time": 87.08060597499997,
                    "velocity": 0.3779527559055118,
                    "duration": 1.8602142166666624
                },
                {
                    "name": "G3",
                    "midi": 55,
                    "time": 87.39243379166663,
                    "velocity": 0.2992125984251969,
                    "duration": 0.3494622083333354
                },
                {
                    "name": "B3",
                    "midi": 59,
                    "time": 87.73114331666663,
                    "velocity": 0.3228346456692913,
                    "duration": 0.2741934250000071
                },
                {
                    "name": "F4",
                    "midi": 65,
                    "time": 87.9945840583333,
                    "velocity": 0.4094488188976378,
                    "duration": 0.37634391666667
                },
                {
                    "name": "B3",
                    "midi": 59,
                    "time": 88.36017529166664,
                    "velocity": 0.29133858267716534,
                    "duration": 0.3602148916666721
                },
                {
                    "name": "G3",
                    "midi": 55,
                    "time": 88.70426115833331,
                    "velocity": 0.4015748031496063,
                    "duration": 0.2204300083333237
                },
                {
                    "name": "C3",
                    "midi": 48,
                    "time": 88.98920726666663,
                    "velocity": 0.3779527559055118,
                    "duration": 1.9032249500000091
                },
                {
                    "name": "G3",
                    "midi": 55,
                    "time": 89.31178776666663,
                    "velocity": 0.4015748031496063,
                    "duration": 0.3494622083333354
                },
                {
                    "name": "C4",
                    "midi": 60,
                    "time": 89.63974460833329,
                    "velocity": 0.4409448818897638,
                    "duration": 0.3225805000000008
                },
                {
                    "name": "E4",
                    "midi": 64,
                    "time": 89.96232510833329,
                    "velocity": 0.5511811023622047,
                    "duration": 0.290322450000005
                },
                {
                    "name": "C4",
                    "midi": 60,
                    "time": 90.27952926666663,
                    "velocity": 0.4645669291338583,
                    "duration": 0.27956976666666833
                },
                {
                    "name": "G3",
                    "midi": 55,
                    "time": 90.59673342499997,
                    "velocity": 0.2755905511811024,
                    "duration": 0.18279561666666666
                },
                {
                    "name": "E3",
                    "midi": 52,
                    "time": 90.91931392499997,
                    "velocity": 0.4251968503937008,
                    "duration": 1.9731173916666762
                },
                {
                    "name": "G3",
                    "midi": 55,
                    "time": 91.25802344999997,
                    "velocity": 0.4251968503937008,
                    "duration": 0.290322450000005
                },
                {
                    "name": "C4",
                    "midi": 60,
                    "time": 91.55909858333331,
                    "velocity": 0.4566929133858268,
                    "duration": 0.28494610833332956
                },
                {
                    "name": "E4",
                    "midi": 64,
                    "time": 91.86017371666664,
                    "velocity": 0.5984251968503937,
                    "duration": 0.31182781666666415
                },
                {
                    "name": "C4",
                    "midi": 60,
                    "time": 92.19350689999997,
                    "velocity": 0.4645669291338583,
                    "duration": 0.3225805000000008
                },
                {
                    "name": "G3",
                    "midi": 55,
                    "time": 92.53221642499997,
                    "velocity": 0.3700787401574803,
                    "duration": 0.15053756666667084
                },
                {
                    "name": "C3",
                    "midi": 48,
                    "time": 92.88705497499998,
                    "velocity": 0.3779527559055118,
                    "duration": 1.8655905583333094
                },
                {
                    "name": "G3",
                    "midi": 55,
                    "time": 93.22038815833331,
                    "velocity": 0.3228346456692913,
                    "duration": 0.2473117166666725
                },
                {
                    "name": "C4",
                    "midi": 60,
                    "time": 93.55372134166664,
                    "velocity": 0.3464566929133858,
                    "duration": 0.26881708333333165
                },
                {
                    "name": "E4",
                    "midi": 64,
                    "time": 93.83329110833331,
                    "velocity": 0.6220472440944882,
                    "duration": 0.28494610833332956
                },
                {
                    "name": "C4",
                    "midi": 60,
                    "time": 94.15049526666664,
                    "velocity": 0.4881889763779528,
                    "duration": 0.30107513333332747
                },
                {
                    "name": "G3",
                    "midi": 55,
                    "time": 94.4623230833333,
                    "velocity": 0.4330708661417323,
                    "duration": 0.2741934249999929
                },
                {
                    "name": "E3",
                    "midi": 52,
                    "time": 94.79027992499996,
                    "velocity": 0.4015748031496063,
                    "duration": 1.9301066583333295
                },
                {
                    "name": "G3",
                    "midi": 55,
                    "time": 95.11286042499997,
                    "velocity": 0.3464566929133858,
                    "duration": 0.21505366666666248
                },
                {
                    "name": "C4",
                    "midi": 60,
                    "time": 95.44081726666663,
                    "velocity": 0.4015748031496063,
                    "duration": 0.28494610833332956
                },
                {
                    "name": "E4",
                    "midi": 64,
                    "time": 95.74726874166663,
                    "velocity": 0.4251968503937008,
                    "duration": 0.3064514750000029
                },
                {
                    "name": "C4",
                    "midi": 60,
                    "time": 96.08597826666663,
                    "velocity": 0.3779527559055118,
                    "duration": 0.32795684166666206
                },
                {
                    "name": "G3",
                    "midi": 55,
                    "time": 96.40855876666663,
                    "velocity": 0.25196850393700787,
                    "duration": 0.3172041583333254
                },
                {
                    "name": "A2",
                    "midi": 45,
                    "time": 96.70963389999996,
                    "velocity": 0.5905511811023622,
                    "duration": 1.8763432416666461
                },
                {
                    "name": "A3",
                    "midi": 57,
                    "time": 97.06984879166662,
                    "velocity": 0.36220472440944884,
                    "duration": 0.4193546499999883
                },
                {
                    "name": "C#4",
                    "midi": 61,
                    "time": 97.39780563333328,
                    "velocity": 0.5196850393700787,
                    "duration": 0.3225804999999866
                },
                {
                    "name": "G4",
                    "midi": 67,
                    "time": 97.72038613333326,
                    "velocity": 0.2755905511811024,
                    "duration": 0.3172041583333396
                },
                {
                    "name": "C#4",
                    "midi": 61,
                    "time": 98.01608492499993,
                    "velocity": 0.6062992125984252,
                    "duration": 0.27956976666666833
                },
                {
                    "name": "A3",
                    "midi": 57,
                    "time": 98.3117837166666,
                    "velocity": 0.41732283464566927,
                    "duration": 0.290322450000005
                },
                {
                    "name": "E3",
                    "midi": 52,
                    "time": 98.6343642166666,
                    "velocity": 0.48031496062992124,
                    "duration": 1.897848608333348
                },
                {
                    "name": "A3",
                    "midi": 57,
                    "time": 98.9730737416666,
                    "velocity": 0.3700787401574803,
                    "duration": 0.35483855000001086
                },
                {
                    "name": "C#4",
                    "midi": 61,
                    "time": 99.2633961916666,
                    "velocity": 0.36220472440944884,
                    "duration": 0.3010751333333417
                },
                {
                    "name": "G4",
                    "midi": 67,
                    "time": 99.58060034999994,
                    "velocity": 0.33858267716535434,
                    "duration": 0.3655912333333333
                },
                {
                    "name": "C#4",
                    "midi": 61,
                    "time": 99.94081524166661,
                    "velocity": 0.5196850393700787,
                    "duration": 0.26881708333333165
                },
                {
                    "name": "A3",
                    "midi": 57,
                    "time": 100.24189037499994,
                    "velocity": 0.3464566929133858,
                    "duration": 1.0161285749999962
                },
                {
                    "name": "D3",
                    "midi": 50,
                    "time": 100.54834184999994,
                    "velocity": 0.41732283464566927,
                    "duration": 1.5913971333333166
                },
                {
                    "name": "A3",
                    "midi": 57,
                    "time": 100.92468576666661,
                    "velocity": 0.3937007874015748,
                    "duration": 0.4516126999999841
                },
                {
                    "name": "D4",
                    "midi": 62,
                    "time": 101.25264260833328,
                    "velocity": 0.41732283464566927,
                    "duration": 0.34408586666665997
                },
                {
                    "name": "F4",
                    "midi": 65,
                    "time": 101.57522310833326,
                    "velocity": 0.6614173228346457,
                    "duration": 0.3172041583333396
                },
                {
                    "name": "D4",
                    "midi": 62,
                    "time": 101.9085562916666,
                    "velocity": 0.3464566929133858,
                    "duration": 0.24193537499999707
                },
                {
                    "name": "A3",
                    "midi": 57,
                    "time": 102.1666206916666,
                    "velocity": 0.4330708661417323,
                    "duration": 0.37096757500000876
                },
                {
                    "name": "D3",
                    "midi": 50,
                    "time": 102.51608289999993,
                    "velocity": 0.4409448818897638,
                    "duration": 0.49999977500000625
                },
                {
                    "name": "G2",
                    "midi": 43,
                    "time": 104.5053293166666,
                    "velocity": 0.2677165354330709,
                    "duration": 1.870966899999985
                },
                {
                    "name": "G3",
                    "midi": 55,
                    "time": 104.83866249999993,
                    "velocity": 0.28346456692913385,
                    "duration": 0.6935480749999954
                },
                {
                    "name": "B3",
                    "midi": 59,
                    "time": 105.17199568333326,
                    "velocity": 0.3700787401574803,
                    "duration": 0.34408586666665997
                },
                {
                    "name": "F4",
                    "midi": 65,
                    "time": 105.48382349999993,
                    "velocity": 0.4409448818897638,
                    "duration": 0.3172041583333254
                },
                {
                    "name": "B3",
                    "midi": 59,
                    "time": 105.80102765833325,
                    "velocity": 0.3543307086614173,
                    "duration": 0.2473117166666725
                },
                {
                    "name": "G3",
                    "midi": 55,
                    "time": 106.07522108333326,
                    "velocity": 0.3464566929133858,
                    "duration": 0.5107524583333287
                },
                {
                    "name": "D3",
                    "midi": 50,
                    "time": 106.39242524166659,
                    "velocity": 0.4330708661417323,
                    "duration": 1.8655905583333237
                },
                {
                    "name": "G3",
                    "midi": 55,
                    "time": 106.70425305833325,
                    "velocity": 0.31496062992125984,
                    "duration": 0.3602148916666579
                },
                {
                    "name": "B3",
                    "midi": 59,
                    "time": 107.04833892499991,
                    "velocity": 0.4094488188976378,
                    "duration": 0.32795684166667627
                },
                {
                    "name": "F4",
                    "midi": 65,
                    "time": 107.35479039999991,
                    "velocity": 0.31496062992125984,
                    "duration": 0.33870952499999873
                },
                {
                    "name": "B3",
                    "midi": 59,
                    "time": 107.67737089999991,
                    "velocity": 0.4015748031496063,
                    "duration": 0.28494610833332956
                },
                {
                    "name": "G3",
                    "midi": 55,
                    "time": 107.97844603333324,
                    "velocity": 0.3779527559055118,
                    "duration": 0.38709659999999246
                },
                {
                    "name": "C3",
                    "midi": 48,
                    "time": 108.28489750833324,
                    "velocity": 0.5196850393700787,
                    "duration": 1.6021498166666532
                },
                {
                    "name": "G3",
                    "midi": 55,
                    "time": 108.62360703333323,
                    "velocity": 0.2992125984251969,
                    "duration": 0.3870966000000067
                },
                {
                    "name": "C4",
                    "midi": 60,
                    "time": 108.97306924166656,
                    "velocity": 0.4409448818897638,
                    "duration": 0.32795684166666206
                },
                {
                    "name": "E4",
                    "midi": 64,
                    "time": 109.29564974166657,
                    "velocity": 0.4409448818897638,
                    "duration": 0.3225805000000008
                },
                {
                    "name": "C4",
                    "midi": 60,
                    "time": 109.61823024166657,
                    "velocity": 0.41732283464566927,
                    "duration": 0.290322450000005
                },
                {
                    "name": "G3",
                    "midi": 55,
                    "time": 109.90855269166657,
                    "velocity": 0.3700787401574803,
                    "duration": 0.33870952499999873
                },
                {
                    "name": "C3",
                    "midi": 48,
                    "time": 110.2580148999999,
                    "velocity": 0.4409448818897638,
                    "duration": 0.4086019666666658
                },
                {
                    "name": "B2",
                    "midi": 47,
                    "time": 112.20962692499991,
                    "velocity": 0.5118110236220472,
                    "duration": 1.4838702999999924
                },
                {
                    "name": "G3",
                    "midi": 55,
                    "time": 112.56446547499992,
                    "velocity": 0.3464566929133858,
                    "duration": 1.0913973583333245
                },
                {
                    "name": "B3",
                    "midi": 59,
                    "time": 112.89242231666658,
                    "velocity": 0.41732283464566927,
                    "duration": 0.7849458833333216
                },
                {
                    "name": "G4",
                    "midi": 67,
                    "time": 113.19887379166659,
                    "velocity": 0.3543307086614173,
                    "duration": 0.47311806666665746
                },
                {
                    "name": "C3",
                    "midi": 48,
                    "time": 114.13435724166656,
                    "velocity": 0.5354330708661418,
                    "duration": 1.8118271416666687
                },
                {
                    "name": "A3",
                    "midi": 57,
                    "time": 114.47306676666656,
                    "velocity": 0.3700787401574803,
                    "duration": 1.252687608333332
                },
                {
                    "name": "C4",
                    "midi": 60,
                    "time": 114.80102360833322,
                    "velocity": 0.3464566929133858,
                    "duration": 0.5268814833333266
                },
                {
                    "name": "E4",
                    "midi": 64,
                    "time": 115.15586215833322,
                    "velocity": 0.5511811023622047,
                    "duration": 0.6075266083333446
                },
                {
                    "name": "C4",
                    "midi": 60,
                    "time": 115.41392655833322,
                    "velocity": 0.07874015748031496,
                    "duration": 0.2741934250000071
                },
                {
                    "name": "D3",
                    "midi": 50,
                    "time": 116.05371121666657,
                    "velocity": 0.4251968503937008,
                    "duration": 1.5268810333333391
                },
                {
                    "name": "G3",
                    "midi": 55,
                    "time": 116.4031734249999,
                    "velocity": 0.4015748031496063,
                    "duration": 1.1129027249999979
                },
                {
                    "name": "B3",
                    "midi": 59,
                    "time": 116.7257539249999,
                    "velocity": 0.3937007874015748,
                    "duration": 0.8118275916666704
                },
                {
                    "name": "G4",
                    "midi": 67,
                    "time": 117.04833442499991,
                    "velocity": 0.3858267716535433,
                    "duration": 0.4784944083333329
                },
                {
                    "name": "D3",
                    "midi": 50,
                    "time": 117.95693616666658,
                    "velocity": 0.4645669291338583,
                    "duration": 1.559139083333335
                },
                {
                    "name": "A3",
                    "midi": 57,
                    "time": 118.26338764166658,
                    "velocity": 0.3464566929133858,
                    "duration": 1.2204295583333362
                },
                {
                    "name": "D4",
                    "midi": 62,
                    "time": 118.62360253333325,
                    "velocity": 0.36220472440944884,
                    "duration": 0.8709673499999866
                },
                {
                    "name": "F#4",
                    "midi": 66,
                    "time": 118.97306474166659,
                    "velocity": 0.5433070866141733,
                    "duration": 0.51612879999999
                },
                {
                    "name": "G2",
                    "midi": 43,
                    "time": 119.94618258333325,
                    "velocity": 0.4251968503937008,
                    "duration": 1.7258056749999753
                },
                {
                    "name": "G3",
                    "midi": 55,
                    "time": 120.29564479166658,
                    "velocity": 0.23622047244094488,
                    "duration": 1.2795693166666524
                },
                {
                    "name": "B3",
                    "midi": 59,
                    "time": 120.6128489499999,
                    "velocity": 0.3700787401574803,
                    "duration": 1.0913973583333245
                },
                {
                    "name": "G4",
                    "midi": 67,
                    "time": 120.90854774166657,
                    "velocity": 0.2204724409448819,
                    "duration": 0.8548383249999887
                },
                {
                    "name": "B3",
                    "midi": 59,
                    "time": 121.8709128999999,
                    "velocity": 0.5196850393700787,
                    "duration": 2.5806439999999924
                },
                {
                    "name": "D4",
                    "midi": 62,
                    "time": 122.47306316666655,
                    "velocity": 0.5196850393700787,
                    "duration": 1.9677410500000008
                },
                {
                    "name": "G4",
                    "midi": 67,
                    "time": 123.13435319166655,
                    "velocity": 0.4251968503937008,
                    "duration": 1.2956983416666645
                },
                {
                    "name": "G2",
                    "midi": 43,
                    "time": 123.77413784999987,
                    "velocity": 0.3858267716535433,
                    "duration": 0.6827953916666729
                },
                {
                    "name": "D4",
                    "midi": 62,
                    "time": 127.68811458333323,
                    "velocity": 0.36220472440944884,
                    "duration": 0.48924709166664115
                },
                {
                    "name": "F4",
                    "midi": 65,
                    "time": 127.69349092499989,
                    "velocity": 0.3464566929133858,
                    "duration": 0.47311806666665746
                },
                {
                    "name": "G3",
                    "midi": 55,
                    "time": 127.69886726666655,
                    "velocity": 0.18110236220472442,
                    "duration": 0.4784944083333187
                },
                {
                    "name": "F3",
                    "midi": 53,
                    "time": 127.70424360833321,
                    "velocity": 0.1968503937007874,
                    "duration": 0.12365585833332204
                },
                {
                    "name": "B2",
                    "midi": 47,
                    "time": 127.70961994999988,
                    "velocity": 0.36220472440944884,
                    "duration": 0.4892470916666696
                },
                {
                    "name": "G3",
                    "midi": 55,
                    "time": 128.3547809499999,
                    "velocity": 0.4251968503937008,
                    "duration": 0.18817195833335632
                },
                {
                    "name": "F4",
                    "midi": 65,
                    "time": 128.36015729166658,
                    "velocity": 0.5039370078740157,
                    "duration": 0.16666659166668296
                },
                {
                    "name": "D4",
                    "midi": 62,
                    "time": 128.36015729166658,
                    "velocity": 0.4881889763779528,
                    "duration": 0.17741927500000543
                },
                {
                    "name": "B2",
                    "midi": 47,
                    "time": 128.36553363333326,
                    "velocity": 0.4015748031496063,
                    "duration": 0.17741927500000543
                },
                {
                    "name": "B2",
                    "midi": 47,
                    "time": 129.62359758333326,
                    "velocity": 0.36220472440944884,
                    "duration": 0.17741927500000543
                },
                {
                    "name": "D4",
                    "midi": 62,
                    "time": 129.62897392499994,
                    "velocity": 0.3228346456692913,
                    "duration": 0.17204293333332998
                },
                {
                    "name": "G3",
                    "midi": 55,
                    "time": 129.62897392499994,
                    "velocity": 0.31496062992125984,
                    "duration": 0.17204293333332998
                },
                {
                    "name": "F4",
                    "midi": 65,
                    "time": 129.63972660833326,
                    "velocity": 0.3937007874015748,
                    "duration": 0.1451612250000096
                },
                {
                    "name": "G3",
                    "midi": 55,
                    "time": 130.26875858333327,
                    "velocity": 0.3228346456692913,
                    "duration": 0.12903219999998328
                },
                {
                    "name": "B2",
                    "midi": 47,
                    "time": 130.26875858333327,
                    "velocity": 0.3779527559055118,
                    "duration": 0.1612902499999791
                },
                {
                    "name": "D4",
                    "midi": 62,
                    "time": 130.26875858333327,
                    "velocity": 0.31496062992125984,
                    "duration": 0.11290317499998537
                },
                {
                    "name": "F4",
                    "midi": 65,
                    "time": 130.27413492499994,
                    "velocity": 0.3543307086614173,
                    "duration": 0.09677414999998746
                },
                {
                    "name": "G3",
                    "midi": 55,
                    "time": 131.54295155833324,
                    "velocity": 0.3464566929133858,
                    "duration": 0.21505366666664827
                },
                {
                    "name": "D4",
                    "midi": 62,
                    "time": 131.54295155833324,
                    "velocity": 0.3543307086614173,
                    "duration": 0.20967732499997283
                },
                {
                    "name": "F4",
                    "midi": 65,
                    "time": 131.54295155833324,
                    "velocity": 0.4015748031496063,
                    "duration": 0.19354829999997492
                },
                {
                    "name": "B2",
                    "midi": 47,
                    "time": 131.55370424166657,
                    "velocity": 0.3700787401574803,
                    "duration": 0.19892464166665036
                },
                {
                    "name": "B2",
                    "midi": 47,
                    "time": 132.2257469499999,
                    "velocity": 0.4015748031496063,
                    "duration": 0.177419274999977
                },
                {
                    "name": "G3",
                    "midi": 55,
                    "time": 132.23112329166656,
                    "velocity": 0.3228346456692913,
                    "duration": 0.1505375666666282
                },
                {
                    "name": "D4",
                    "midi": 62,
                    "time": 132.24187597499989,
                    "velocity": 0.2755905511811024,
                    "duration": 0.12365585833330783
                },
                {
                    "name": "F4",
                    "midi": 65,
                    "time": 132.2526286583332,
                    "velocity": 0.3543307086614173,
                    "duration": 0.09677414999998746
                },
                {
                    "name": "G3",
                    "midi": 55,
                    "time": 133.51606894999986,
                    "velocity": 0.3228346456692913,
                    "duration": 0.19354829999997492
                },
                {
                    "name": "D4",
                    "midi": 62,
                    "time": 133.51606894999986,
                    "velocity": 0.3700787401574803,
                    "duration": 0.18279561666665245
                },
                {
                    "name": "F4",
                    "midi": 65,
                    "time": 133.51606894999986,
                    "velocity": 0.4015748031496063,
                    "duration": 0.16666659166665454
                },
                {
                    "name": "B2",
                    "midi": 47,
                    "time": 133.52682163333318,
                    "velocity": 0.3543307086614173,
                    "duration": 0.2204300083333237
                },
                {
                    "name": "G3",
                    "midi": 55,
                    "time": 134.1558536083332,
                    "velocity": 0.2755905511811024,
                    "duration": 0.18279561666668087
                },
                {
                    "name": "D4",
                    "midi": 62,
                    "time": 134.1558536083332,
                    "velocity": 0.31496062992125984,
                    "duration": 0.17741927500000543
                },
                {
                    "name": "B2",
                    "midi": 47,
                    "time": 134.16122994999986,
                    "velocity": 0.3858267716535433,
                    "duration": 0.19892464166667878
                },
                {
                    "name": "F4",
                    "midi": 65,
                    "time": 134.16122994999986,
                    "velocity": 0.3543307086614173,
                    "duration": 0.16129025000000752
                },
                {
                    "name": "C3",
                    "midi": 48,
                    "time": 135.43542292499987,
                    "velocity": 0.4094488188976378,
                    "duration": 1.50537566666668
                },
                {
                    "name": "G3",
                    "midi": 55,
                    "time": 135.76337976666656,
                    "velocity": 0.36220472440944884,
                    "duration": 0.4408600166666474
                },
                {
                    "name": "C4",
                    "midi": 60,
                    "time": 136.08596026666655,
                    "velocity": 0.41732283464566927,
                    "duration": 0.34408586666665997
                },
                {
                    "name": "E4",
                    "midi": 64,
                    "time": 136.41929344999988,
                    "velocity": 0.47244094488188976,
                    "duration": 0.3333331833333375
                },
                {
                    "name": "C4",
                    "midi": 60,
                    "time": 136.74725029166655,
                    "velocity": 0.44881889763779526,
                    "duration": 0.2634407416666704
                },
                {
                    "name": "G3",
                    "midi": 55,
                    "time": 137.03757274166654,
                    "velocity": 0.3700787401574803,
                    "duration": 0.22580634999999916
                },
                {
                    "name": "E3",
                    "midi": 52,
                    "time": 137.37628226666655,
                    "velocity": 0.41732283464566927,
                    "duration": 1.9139776333333884
                },
                {
                    "name": "G3",
                    "midi": 55,
                    "time": 137.6934864249999,
                    "velocity": 0.3543307086614173,
                    "duration": 0.2634407416666704
                },
                {
                    "name": "C4",
                    "midi": 60,
                    "time": 138.02144326666655,
                    "velocity": 0.3543307086614173,
                    "duration": 0.3010751333333417
                },
                {
                    "name": "E4",
                    "midi": 64,
                    "time": 138.34402376666657,
                    "velocity": 0.3937007874015748,
                    "duration": 0.2849461083333438
                },
                {
                    "name": "C4",
                    "midi": 60,
                    "time": 138.66660426666658,
                    "velocity": 0.4094488188976378,
                    "duration": 0.2634407416666704
                },
                {
                    "name": "G3",
                    "midi": 55,
                    "time": 138.9730557416666,
                    "velocity": 0.33858267716535434,
                    "duration": 0.258064399999995
                },
                {
                    "name": "C3",
                    "midi": 48,
                    "time": 139.3278942916666,
                    "velocity": 0.36220472440944884,
                    "duration": 1.8172034833333157
                },
                {
                    "name": "G3",
                    "midi": 55,
                    "time": 139.63972210833327,
                    "velocity": 0.3543307086614173,
                    "duration": 0.32795684166666206
                },
                {
                    "name": "C4",
                    "midi": 60,
                    "time": 139.98380797499993,
                    "velocity": 0.3779527559055118,
                    "duration": 0.2903224499999908
                },
                {
                    "name": "E4",
                    "midi": 64,
                    "time": 140.2795067666666,
                    "velocity": 0.4645669291338583,
                    "duration": 0.32795684166666206
                },
                {
                    "name": "C4",
                    "midi": 60,
                    "time": 140.61283994999994,
                    "velocity": 0.3937007874015748,
                    "duration": 0.2634407416666704
                },
                {
                    "name": "G3",
                    "midi": 55,
                    "time": 140.91391508333328,
                    "velocity": 0.31496062992125984,
                    "duration": 0.16666659166665454
                },
                {
                    "name": "E3",
                    "midi": 52,
                    "time": 141.22574289999991,
                    "velocity": 0.3937007874015748,
                    "duration": 0.2311826916666746
                },
                {
                    "name": "G3",
                    "midi": 55,
                    "time": 141.88703292499991,
                    "velocity": 0.29133858267716534,
                    "duration": 0.22043000833335213
                },
                {
                    "name": "E4",
                    "midi": 64,
                    "time": 141.8924092666666,
                    "velocity": 0.3543307086614173,
                    "duration": 0.20967732500000125
                },
                {
                    "name": "C4",
                    "midi": 60,
                    "time": 141.89778560833327,
                    "velocity": 0.4251968503937008,
                    "duration": 0.2043009833333258
                },
                {
                    "name": "G3",
                    "midi": 55,
                    "time": 143.2096129749999,
                    "velocity": 0.33858267716535434,
                    "duration": 0.37096757500000876
                },
                {
                    "name": "B2",
                    "midi": 47,
                    "time": 143.2096129749999,
                    "velocity": 0.33070866141732286,
                    "duration": 0.35483855000001086
                },
                {
                    "name": "D4",
                    "midi": 62,
                    "time": 143.2149893166666,
                    "velocity": 0.4330708661417323,
                    "duration": 0.3494622083333354
                },
                {
                    "name": "F4",
                    "midi": 65,
                    "time": 143.22036565833326,
                    "velocity": 0.4409448818897638,
                    "duration": 0.3333331833333375
                },
                {
                    "name": "G3",
                    "midi": 55,
                    "time": 143.8762793416666,
                    "velocity": 0.30708661417322836,
                    "duration": 0.16666659166668296
                },
                {
                    "name": "D4",
                    "midi": 62,
                    "time": 143.8870320249999,
                    "velocity": 0.3700787401574803,
                    "duration": 0.1559139083333605
                },
                {
                    "name": "B2",
                    "midi": 47,
                    "time": 143.8870320249999,
                    "velocity": 0.3543307086614173,
                    "duration": 0.16666659166668296
                },
                {
                    "name": "F4",
                    "midi": 65,
                    "time": 143.8924083666666,
                    "velocity": 0.36220472440944884,
                    "duration": 0.1451612250000096
                },
                {
                    "name": "G3",
                    "midi": 55,
                    "time": 145.11821426666657,
                    "velocity": 0.3700787401574803,
                    "duration": 0.2150536666666767
                },
                {
                    "name": "F4",
                    "midi": 65,
                    "time": 145.11821426666657,
                    "velocity": 0.4409448818897638,
                    "duration": 0.20967732500000125
                },
                {
                    "name": "D4",
                    "midi": 62,
                    "time": 145.1289669499999,
                    "velocity": 0.4015748031496063,
                    "duration": 0.19354830000000334
                },
                {
                    "name": "B2",
                    "midi": 47,
                    "time": 145.1289669499999,
                    "velocity": 0.33070866141732286,
                    "duration": 0.20967732500002967
                },
                {
                    "name": "B2",
                    "midi": 47,
                    "time": 145.77412794999992,
                    "velocity": 0.3858267716535433,
                    "duration": 0.16129025000003594
                },
                {
                    "name": "G3",
                    "midi": 55,
                    "time": 145.77412794999992,
                    "velocity": 0.30708661417322836,
                    "duration": 0.1559139083333605
                },
                {
                    "name": "F4",
                    "midi": 65,
                    "time": 145.7795042916666,
                    "velocity": 0.3858267716535433,
                    "duration": 0.1290322000000117
                },
                {
                    "name": "D4",
                    "midi": 62,
                    "time": 145.7795042916666,
                    "velocity": 0.3228346456692913,
                    "duration": 0.1290322000000117
                },
                {
                    "name": "F4",
                    "midi": 65,
                    "time": 147.0752026333333,
                    "velocity": 0.3543307086614173,
                    "duration": 0.258064399999995
                },
                {
                    "name": "D4",
                    "midi": 62,
                    "time": 147.08057897499998,
                    "velocity": 0.3543307086614173,
                    "duration": 0.2795697666666399
                },
                {
                    "name": "G3",
                    "midi": 55,
                    "time": 147.08057897499998,
                    "velocity": 0.30708661417322836,
                    "duration": 0.28494610833331535
                },
                {
                    "name": "B2",
                    "midi": 47,
                    "time": 147.0913316583333,
                    "velocity": 0.3543307086614173,
                    "duration": 0.25268805833331953
                },
                {
                    "name": "B2",
                    "midi": 47,
                    "time": 147.73111631666663,
                    "velocity": 0.3779527559055118,
                    "duration": 0.18817195833335632
                },
                {
                    "name": "G3",
                    "midi": 55,
                    "time": 147.74186899999995,
                    "velocity": 0.28346456692913385,
                    "duration": 0.1559139083333605
                },
                {
                    "name": "D4",
                    "midi": 62,
                    "time": 147.74724534166663,
                    "velocity": 0.29133858267716534,
                    "duration": 0.1397848833333626
                },
                {
                    "name": "F4",
                    "midi": 65,
                    "time": 147.7526216833333,
                    "velocity": 0.3464566929133858,
                    "duration": 0.1290322000000117
                },
                {
                    "name": "F4",
                    "midi": 65,
                    "time": 149.00530929166663,
                    "velocity": 0.3700787401574803,
                    "duration": 0.19354830000000334
                },
                {
                    "name": "G3",
                    "midi": 55,
                    "time": 149.00530929166663,
                    "velocity": 0.33858267716535434,
                    "duration": 0.20967732500000125
                },
                {
                    "name": "B2",
                    "midi": 47,
                    "time": 149.0106856333333,
                    "velocity": 0.3543307086614173,
                    "duration": 0.23655903333332162
                },
                {
                    "name": "D4",
                    "midi": 62,
                    "time": 149.01606197499999,
                    "velocity": 0.36220472440944884,
                    "duration": 0.19354829999997492
                },
                {
                    "name": "G3",
                    "midi": 55,
                    "time": 149.66122297499996,
                    "velocity": 0.33070866141732286,
                    "duration": 0.2473117166666725
                },
                {
                    "name": "F4",
                    "midi": 65,
                    "time": 149.66122297499996,
                    "velocity": 0.4251968503937008,
                    "duration": 0.2311826916666746
                },
                {
                    "name": "D4",
                    "midi": 62,
                    "time": 149.66659931666663,
                    "velocity": 0.33858267716535434,
                    "duration": 0.23655903333332162
                },
                {
                    "name": "B2",
                    "midi": 47,
                    "time": 149.66659931666663,
                    "velocity": 0.3779527559055118,
                    "duration": 0.2849461083333438
                },
                {
                    "name": "C3",
                    "midi": 48,
                    "time": 150.95154497499996,
                    "velocity": 0.4409448818897638,
                    "duration": 1.5752681083333755
                },
                {
                    "name": "G3",
                    "midi": 55,
                    "time": 151.2848781583333,
                    "velocity": 0.3937007874015748,
                    "duration": 0.41397830833335547
                },
                {
                    "name": "C4",
                    "midi": 60,
                    "time": 151.612835,
                    "velocity": 0.4251968503937008,
                    "duration": 0.3010751333333417
                },
                {
                    "name": "E4",
                    "midi": 64,
                    "time": 151.90853379166666,
                    "velocity": 0.4881889763779528,
                    "duration": 0.29569879166666624
                },
                {
                    "name": "C4",
                    "midi": 60,
                    "time": 152.22573795,
                    "velocity": 0.4015748031496063,
                    "duration": 0.2849461083333438
                },
                {
                    "name": "G3",
                    "midi": 55,
                    "time": 152.52143674166666,
                    "velocity": 0.3779527559055118,
                    "duration": 0.18279561666668087
                },
                {
                    "name": "E3",
                    "midi": 52,
                    "time": 152.84939358333335,
                    "velocity": 0.4330708661417323,
                    "duration": 1.9569883666666499
                },
                {
                    "name": "G3",
                    "midi": 55,
                    "time": 153.15584505833334,
                    "velocity": 0.33070866141732286,
                    "duration": 0.2634407416666704
                },
                {
                    "name": "C4",
                    "midi": 60,
                    "time": 153.4838019,
                    "velocity": 0.3464566929133858,
                    "duration": 0.3010751333333417
                },
                {
                    "name": "E4",
                    "midi": 64,
                    "time": 153.79562971666667,
                    "velocity": 0.4409448818897638,
                    "duration": 0.3064514749999887
                },
                {
                    "name": "C4",
                    "midi": 60,
                    "time": 154.145091925,
                    "velocity": 0.36220472440944884,
                    "duration": 0.29569879166666624
                },
                {
                    "name": "G3",
                    "midi": 55,
                    "time": 154.47304876666666,
                    "velocity": 0.3700787401574803,
                    "duration": 0.17204293333332998
                },
                {
                    "name": "C3",
                    "midi": 48,
                    "time": 154.81713463333332,
                    "velocity": 0.4251968503937008,
                    "duration": 1.8655905583333094
                },
                {
                    "name": "G3",
                    "midi": 55,
                    "time": 155.12896245,
                    "velocity": 0.33858267716535434,
                    "duration": 0.24193537499999707
                },
                {
                    "name": "C4",
                    "midi": 60,
                    "time": 155.483801,
                    "velocity": 0.25196850393700787,
                    "duration": 0.2150536666666767
                },
                {
                    "name": "E4",
                    "midi": 64,
                    "time": 155.76337076666667,
                    "velocity": 0.4330708661417323,
                    "duration": 0.3172041583333396
                },
                {
                    "name": "C4",
                    "midi": 60,
                    "time": 156.080574925,
                    "velocity": 0.4094488188976378,
                    "duration": 0.3225804999999866
                },
                {
                    "name": "G3",
                    "midi": 55,
                    "time": 156.41928445,
                    "velocity": 0.3543307086614173,
                    "duration": 0.18279561666665245
                },
                {
                    "name": "E3",
                    "midi": 52,
                    "time": 156.74724129166663,
                    "velocity": 0.28346456692913385,
                    "duration": 1.8225798250000196
                },
                {
                    "name": "G3",
                    "midi": 55,
                    "time": 157.0751981333333,
                    "velocity": 0.3543307086614173,
                    "duration": 0.33870952500001295
                },
                {
                    "name": "C4",
                    "midi": 60,
                    "time": 157.39240229166663,
                    "velocity": 0.36220472440944884,
                    "duration": 0.32795684166666206
                },
                {
                    "name": "E4",
                    "midi": 64,
                    "time": 157.70960644999997,
                    "velocity": 0.41732283464566927,
                    "duration": 0.31182781666666415
                },
                {
                    "name": "C4",
                    "midi": 60,
                    "time": 158.0268106083333,
                    "velocity": 0.3543307086614173,
                    "duration": 0.31182781666666415
                },
                {
                    "name": "G3",
                    "midi": 55,
                    "time": 158.32788574166665,
                    "velocity": 0.3700787401574803,
                    "duration": 0.2473117166666725
                },
                {
                    "name": "A2",
                    "midi": 45,
                    "time": 158.63433721666664,
                    "velocity": 0.4645669291338583,
                    "duration": 1.9086012916666562
                },
                {
                    "name": "A3",
                    "midi": 57,
                    "time": 158.98379942499997,
                    "velocity": 0.3700787401574803,
                    "duration": 0.5215051416666654
                },
                {
                    "name": "C#4",
                    "midi": 61,
                    "time": 159.31175626666663,
                    "velocity": 0.33070866141732286,
                    "duration": 0.37096757500000876
                },
                {
                    "name": "G4",
                    "midi": 67,
                    "time": 159.65046579166665,
                    "velocity": 0.3228346456692913,
                    "duration": 0.3333331833333375
                },
                {
                    "name": "C#4",
                    "midi": 61,
                    "time": 159.9784226333333,
                    "velocity": 0.4566929133858268,
                    "duration": 0.2849461083333438
                },
                {
                    "name": "A3",
                    "midi": 57,
                    "time": 160.29025044999997,
                    "velocity": 0.3543307086614173,
                    "duration": 0.29569879166666624
                },
                {
                    "name": "E3",
                    "midi": 52,
                    "time": 160.58594924166664,
                    "velocity": 0.44881889763779526,
                    "duration": 1.9247303166666825
                },
                {
                    "name": "A3",
                    "midi": 57,
                    "time": 160.94078779166665,
                    "velocity": 0.3779527559055118,
                    "duration": 0.3924729416666537
                },
                {
                    "name": "C#4",
                    "midi": 61,
                    "time": 161.26336829166664,
                    "velocity": 0.5669291338582677,
                    "duration": 0.31182781666666415
                },
                {
                    "name": "G4",
                    "midi": 67,
                    "time": 161.56444342499998,
                    "velocity": 0.4409448818897638,
                    "duration": 0.3655912333333333
                },
                {
                    "name": "C#4",
                    "midi": 61,
                    "time": 161.90852929166664,
                    "velocity": 0.5039370078740157,
                    "duration": 0.2903224500000192
                },
                {
                    "name": "A3",
                    "midi": 57,
                    "time": 162.22035710833333,
                    "velocity": 0.4015748031496063,
                    "duration": 0.4247309916666495
                },
                {
                    "name": "D3",
                    "midi": 50,
                    "time": 162.51067955833332,
                    "velocity": 0.49606299212598426,
                    "duration": 1.7096766499999774
                },
                {
                    "name": "A3",
                    "midi": 57,
                    "time": 162.822507375,
                    "velocity": 0.3228346456692913,
                    "duration": 0.3924729416666537
                },
                {
                    "name": "D4",
                    "midi": 62,
                    "time": 163.16121689999997,
                    "velocity": 0.2440944881889764,
                    "duration": 0.3494622083333354
                },
                {
                    "name": "F4",
                    "midi": 65,
                    "time": 163.50530276666663,
                    "velocity": 0.4251968503937008,
                    "duration": 0.32258050000001504
                },
                {
                    "name": "D4",
                    "midi": 62,
                    "time": 163.84938863333332,
                    "velocity": 0.3543307086614173,
                    "duration": 0.29569879166666624
                },
                {
                    "name": "A3",
                    "midi": 57,
                    "time": 164.1558401083333,
                    "velocity": 0.33858267716535434,
                    "duration": 0.29569879166666624
                },
                {
                    "name": "D3",
                    "midi": 50,
                    "time": 164.52143134166664,
                    "velocity": 0.33070866141732286,
                    "duration": 0.3172041583333396
                },
                {
                    "name": "G2",
                    "midi": 43,
                    "time": 166.44078531666662,
                    "velocity": 0.4015748031496063,
                    "duration": 1.844085191666693
                },
                {
                    "name": "G3",
                    "midi": 55,
                    "time": 166.75798947499996,
                    "velocity": 0.3937007874015748,
                    "duration": 0.43010733333332496
                },
                {
                    "name": "B3",
                    "midi": 59,
                    "time": 167.08056997499995,
                    "velocity": 0.3779527559055118,
                    "duration": 0.3010751333333417
                },
                {
                    "name": "F4",
                    "midi": 65,
                    "time": 167.3816451083333,
                    "velocity": 0.2755905511811024,
                    "duration": 0.38172025833335965
                },
                {
                    "name": "B3",
                    "midi": 59,
                    "time": 167.7203546333333,
                    "velocity": 0.3937007874015748,
                    "duration": 0.31182781666669257
                },
                {
                    "name": "G3",
                    "midi": 55,
                    "time": 168.03218245,
                    "velocity": 0.3464566929133858,
                    "duration": 0.258064399999995
                },
                {
                    "name": "B2",
                    "midi": 47,
                    "time": 168.32788124166666,
                    "velocity": 0.5118110236220472,
                    "duration": 1.9139776333333316
                },
                {
                    "name": "G3",
                    "midi": 55,
                    "time": 168.661214425,
                    "velocity": 0.33070866141732286,
                    "duration": 0.31182781666666415
                },
                {
                    "name": "B3",
                    "midi": 59,
                    "time": 168.9676659,
                    "velocity": 0.4015748031496063,
                    "duration": 0.3279568416666905
                },
                {
                    "name": "F4",
                    "midi": 65,
                    "time": 169.2902464,
                    "velocity": 0.23622047244094488,
                    "duration": 0.3494622083333354
                },
                {
                    "name": "B3",
                    "midi": 59,
                    "time": 169.59132153333334,
                    "velocity": 0.4094488188976378,
                    "duration": 0.3225804999999866
                },
                {
                    "name": "G3",
                    "midi": 55,
                    "time": 169.94616008333333,
                    "velocity": 0.14173228346456693,
                    "duration": 0.17741927500000543
                },
                {
                    "name": "C3",
                    "midi": 48,
                    "time": 170.2579879,
                    "velocity": 0.48031496062992124,
                    "duration": 1.5376337166666474
                },
                {
                    "name": "G3",
                    "midi": 55,
                    "time": 170.5429340083333,
                    "velocity": 0.33070866141732286,
                    "duration": 0.3870966000000067
                },
                {
                    "name": "C4",
                    "midi": 60,
                    "time": 170.87626719166664,
                    "velocity": 0.44881889763779526,
                    "duration": 0.3494622083333354
                },
                {
                    "name": "E4",
                    "midi": 64,
                    "time": 171.22572939999998,
                    "velocity": 0.49606299212598426,
                    "duration": 0.3333331833333375
                },
                {
                    "name": "C4",
                    "midi": 60,
                    "time": 171.55368624166664,
                    "velocity": 0.3464566929133858,
                    "duration": 0.2849461083333438
                },
                {
                    "name": "G3",
                    "midi": 55,
                    "time": 171.85476137499998,
                    "velocity": 0.1732283464566929,
                    "duration": 0.35483855000001086
                },
                {
                    "name": "E3",
                    "midi": 52,
                    "time": 172.18809455833332,
                    "velocity": 0.33070866141732286,
                    "duration": 0.35483854999998243
                },
                {
                    "name": "F2",
                    "midi": 41,
                    "time": 174.15045926666664,
                    "velocity": 0.3858267716535433,
                    "duration": 1.1505371166666976
                },
                {
                    "name": "A3",
                    "midi": 57,
                    "time": 174.48916879166666,
                    "velocity": 0.4015748031496063,
                    "duration": 0.44086001666667585
                },
                {
                    "name": "C4",
                    "midi": 60,
                    "time": 174.81712563333332,
                    "velocity": 0.3779527559055118,
                    "duration": 0.317204158333368
                },
                {
                    "name": "F4",
                    "midi": 65,
                    "time": 175.12895345,
                    "velocity": 0.3700787401574803,
                    "duration": 0.3387095249999845
                },
                {
                    "name": "C4",
                    "midi": 60,
                    "time": 175.47303931666667,
                    "velocity": 0.3858267716535433,
                    "duration": 0.27956976666666833
                },
                {
                    "name": "A3",
                    "midi": 57,
                    "time": 175.75260908333334,
                    "velocity": 0.3858267716535433,
                    "duration": 0.15591390833333207
                },
                {
                    "name": "F3",
                    "midi": 53,
                    "time": 176.10207129166668,
                    "velocity": 0.3700787401574803,
                    "duration": 0.8279566166666825
                },
                {
                    "name": "F4",
                    "midi": 65,
                    "time": 176.71497424166668,
                    "velocity": 0.3858267716535433,
                    "duration": 0.17741927500000543
                },
                {
                    "name": "A3",
                    "midi": 57,
                    "time": 176.71497424166668,
                    "velocity": 0.3228346456692913,
                    "duration": 0.19354830000000334
                },
                {
                    "name": "C4",
                    "midi": 60,
                    "time": 176.72035058333336,
                    "velocity": 0.4094488188976378,
                    "duration": 0.17204293333332998
                },
                {
                    "name": "G2",
                    "midi": 43,
                    "time": 178.00529624166668,
                    "velocity": 0.4094488188976378,
                    "duration": 1.0430102833333308
                },
                {
                    "name": "G3",
                    "midi": 55,
                    "time": 178.67196260833336,
                    "velocity": 0.36220472440944884,
                    "duration": 0.29569879166666624
                },
                {
                    "name": "C4",
                    "midi": 60,
                    "time": 178.67733895000003,
                    "velocity": 0.3858267716535433,
                    "duration": 0.30107513333331326
                },
                {
                    "name": "E4",
                    "midi": 64,
                    "time": 178.68809163333336,
                    "velocity": 0.29133858267716534,
                    "duration": 0.30107513333331326
                },
                {
                    "name": "G2",
                    "midi": 43,
                    "time": 179.9354029,
                    "velocity": 0.3779527559055118,
                    "duration": 1.0215049166666574
                },
                {
                    "name": "F4",
                    "midi": 65,
                    "time": 180.57518755833334,
                    "velocity": 0.4409448818897638,
                    "duration": 0.3010751333333417
                },
                {
                    "name": "G3",
                    "midi": 55,
                    "time": 180.58056390000002,
                    "velocity": 0.4015748031496063,
                    "duration": 0.2903224499999908
                },
                {
                    "name": "B3",
                    "midi": 59,
                    "time": 180.58056390000002,
                    "velocity": 0.4330708661417323,
                    "duration": 0.3064514749999887
                },
                {
                    "name": "C3",
                    "midi": 48,
                    "time": 181.88701492500002,
                    "velocity": 0.47244094488188976,
                    "duration": 1.908601291666713
                },
                {
                    "name": "G3",
                    "midi": 55,
                    "time": 182.24185347500003,
                    "velocity": 0.3779527559055118,
                    "duration": 0.6290319750000322
                },
                {
                    "name": "C4",
                    "midi": 60,
                    "time": 182.58056300000004,
                    "velocity": 0.3779527559055118,
                    "duration": 0.3279568416666905
                },
                {
                    "name": "F4",
                    "midi": 65,
                    "time": 182.8493800833334,
                    "velocity": 0.47244094488188976,
                    "duration": 0.3494622083333354
                },
                {
                    "name": "C4",
                    "midi": 60,
                    "time": 183.1880896083334,
                    "velocity": 0.3464566929133858,
                    "duration": 0.29569879166666624
                },
                {
                    "name": "G3",
                    "midi": 55,
                    "time": 183.50529376666674,
                    "velocity": 0.29133858267716534,
                    "duration": 0.17204293333332998
                },
                {
                    "name": "G2",
                    "midi": 43,
                    "time": 183.79561621666673,
                    "velocity": 0.4645669291338583,
                    "duration": 1.6021498166666674
                },
                {
                    "name": "G3",
                    "midi": 55,
                    "time": 184.12894940000007,
                    "velocity": 0.3779527559055118,
                    "duration": 0.6290319750000037
                },
                {
                    "name": "B3",
                    "midi": 59,
                    "time": 184.42464819166673,
                    "velocity": 0.4251968503937008,
                    "duration": 0.3333331833333375
                },
                {
                    "name": "F4",
                    "midi": 65,
                    "time": 184.74185235000007,
                    "velocity": 0.30708661417322836,
                    "duration": 0.34408586666665997
                },
                {
                    "name": "B3",
                    "midi": 59,
                    "time": 185.09669090000006,
                    "velocity": 0.3937007874015748,
                    "duration": 0.27956976666666833
                },
                {
                    "name": "G3",
                    "midi": 55,
                    "time": 185.40851871666672,
                    "velocity": 0.3858267716535433,
                    "duration": 0.29569879166666624
                },
                {
                    "name": "C3",
                    "midi": 48,
                    "time": 185.76335726666673,
                    "velocity": 0.48031496062992124,
                    "duration": 1.4301068833333659
                },
                {
                    "name": "G3",
                    "midi": 55,
                    "time": 186.08593776666675,
                    "velocity": 0.3543307086614173,
                    "duration": 0.4516126999999983
                },
                {
                    "name": "C4",
                    "midi": 60,
                    "time": 186.3977655833334,
                    "velocity": 0.4409448818897638,
                    "duration": 0.3010751333333417
                },
                {
                    "name": "E4",
                    "midi": 64,
                    "time": 186.69346437500008,
                    "velocity": 0.5039370078740157,
                    "duration": 0.3010751333333417
                },
                {
                    "name": "C4",
                    "midi": 60,
                    "time": 187.0160448750001,
                    "velocity": 0.4251968503937008,
                    "duration": 0.25268805833334795
                },
                {
                    "name": "G3",
                    "midi": 55,
                    "time": 187.3063673250001,
                    "velocity": 0.4015748031496063,
                    "duration": 0.43010733333332496
                },
                {
                    "name": "C3",
                    "midi": 48,
                    "time": 187.66658221666677,
                    "velocity": 0.4015748031496063,
                    "duration": 0.38172025833333123
                },
                {
                    "name": "F4",
                    "midi": 65,
                    "time": 189.6450759500001,
                    "velocity": 0.5354330708661418,
                    "duration": 0.5053761166666675
                },
                {
                    "name": "G3",
                    "midi": 55,
                    "time": 189.6450759500001,
                    "velocity": 0.44881889763779526,
                    "duration": 0.5107524583333429
                },
                {
                    "name": "D4",
                    "midi": 62,
                    "time": 189.6450759500001,
                    "velocity": 0.5196850393700787,
                    "duration": 0.5107524583333429
                },
                {
                    "name": "B2",
                    "midi": 47,
                    "time": 189.6450759500001,
                    "velocity": 0.33070866141732286,
                    "duration": 0.5107524583333429
                },
                {
                    "name": "G3",
                    "midi": 55,
                    "time": 190.2902369500001,
                    "velocity": 0.4251968503937008,
                    "duration": 0.18817195833335632
                },
                {
                    "name": "F4",
                    "midi": 65,
                    "time": 190.29561329166677,
                    "velocity": 0.5039370078740157,
                    "duration": 0.16666659166668296
                },
                {
                    "name": "D4",
                    "midi": 62,
                    "time": 190.29561329166677,
                    "velocity": 0.4881889763779528,
                    "duration": 0.17741927500000543
                },
                {
                    "name": "B2",
                    "midi": 47,
                    "time": 190.30098963333344,
                    "velocity": 0.4015748031496063,
                    "duration": 0.17741927500000543
                },
                {
                    "name": "B2",
                    "midi": 47,
                    "time": 191.55905358333342,
                    "velocity": 0.36220472440944884,
                    "duration": 0.17741927500000543
                },
                {
                    "name": "D4",
                    "midi": 62,
                    "time": 191.5644299250001,
                    "velocity": 0.3228346456692913,
                    "duration": 0.17204293333332998
                },
                {
                    "name": "G3",
                    "midi": 55,
                    "time": 191.5644299250001,
                    "velocity": 0.31496062992125984,
                    "duration": 0.17204293333332998
                },
                {
                    "name": "F4",
                    "midi": 65,
                    "time": 191.57518260833342,
                    "velocity": 0.3937007874015748,
                    "duration": 0.1451612250000096
                },
                {
                    "name": "G3",
                    "midi": 55,
                    "time": 192.20421458333342,
                    "velocity": 0.3228346456692913,
                    "duration": 0.12903219999998328
                },
                {
                    "name": "B2",
                    "midi": 47,
                    "time": 192.20421458333342,
                    "velocity": 0.3779527559055118,
                    "duration": 0.1612902499999791
                },
                {
                    "name": "D4",
                    "midi": 62,
                    "time": 192.20421458333342,
                    "velocity": 0.31496062992125984,
                    "duration": 0.11290317499998537
                },
                {
                    "name": "F4",
                    "midi": 65,
                    "time": 192.2095909250001,
                    "velocity": 0.3543307086614173,
                    "duration": 0.09677414999998746
                },
                {
                    "name": "G3",
                    "midi": 55,
                    "time": 193.4784075583334,
                    "velocity": 0.3464566929133858,
                    "duration": 0.21505366666664827
                },
                {
                    "name": "D4",
                    "midi": 62,
                    "time": 193.4784075583334,
                    "velocity": 0.3543307086614173,
                    "duration": 0.20967732499997283
                },
                {
                    "name": "F4",
                    "midi": 65,
                    "time": 193.4784075583334,
                    "velocity": 0.4015748031496063,
                    "duration": 0.19354829999997492
                },
                {
                    "name": "B2",
                    "midi": 47,
                    "time": 193.48916024166672,
                    "velocity": 0.3700787401574803,
                    "duration": 0.19892464166665036
                },
                {
                    "name": "B2",
                    "midi": 47,
                    "time": 194.16120295000005,
                    "velocity": 0.4015748031496063,
                    "duration": 0.177419274999977
                },
                {
                    "name": "G3",
                    "midi": 55,
                    "time": 194.16657929166672,
                    "velocity": 0.3228346456692913,
                    "duration": 0.1505375666666282
                },
                {
                    "name": "D4",
                    "midi": 62,
                    "time": 194.17733197500004,
                    "velocity": 0.2755905511811024,
                    "duration": 0.12365585833330783
                },
                {
                    "name": "F4",
                    "midi": 65,
                    "time": 194.18808465833337,
                    "velocity": 0.3543307086614173,
                    "duration": 0.09677414999998746
                },
                {
                    "name": "G3",
                    "midi": 55,
                    "time": 195.45152495000002,
                    "velocity": 0.3228346456692913,
                    "duration": 0.19354829999997492
                },
                {
                    "name": "D4",
                    "midi": 62,
                    "time": 195.45152495000002,
                    "velocity": 0.3700787401574803,
                    "duration": 0.18279561666665245
                },
                {
                    "name": "F4",
                    "midi": 65,
                    "time": 195.45152495000002,
                    "velocity": 0.4015748031496063,
                    "duration": 0.16666659166665454
                },
                {
                    "name": "B2",
                    "midi": 47,
                    "time": 195.46227763333334,
                    "velocity": 0.3543307086614173,
                    "duration": 0.2204300083333237
                },
                {
                    "name": "G3",
                    "midi": 55,
                    "time": 196.09130960833335,
                    "velocity": 0.2755905511811024,
                    "duration": 0.18279561666668087
                },
                {
                    "name": "D4",
                    "midi": 62,
                    "time": 196.09130960833335,
                    "velocity": 0.31496062992125984,
                    "duration": 0.17741927500000543
                },
                {
                    "name": "B2",
                    "midi": 47,
                    "time": 196.09668595000002,
                    "velocity": 0.3858267716535433,
                    "duration": 0.19892464166667878
                },
                {
                    "name": "F4",
                    "midi": 65,
                    "time": 196.09668595000002,
                    "velocity": 0.3543307086614173,
                    "duration": 0.16129025000000752
                },
                {
                    "name": "C3",
                    "midi": 48,
                    "time": 197.37087892500003,
                    "velocity": 0.4094488188976378,
                    "duration": 1.50537566666668
                },
                {
                    "name": "G3",
                    "midi": 55,
                    "time": 197.69883576666672,
                    "velocity": 0.36220472440944884,
                    "duration": 0.4408600166666474
                },
                {
                    "name": "C4",
                    "midi": 60,
                    "time": 198.0214162666667,
                    "velocity": 0.41732283464566927,
                    "duration": 0.34408586666665997
                },
                {
                    "name": "E4",
                    "midi": 64,
                    "time": 198.35474945000004,
                    "velocity": 0.47244094488188976,
                    "duration": 0.3333331833333375
                },
                {
                    "name": "C4",
                    "midi": 60,
                    "time": 198.6827062916667,
                    "velocity": 0.44881889763779526,
                    "duration": 0.2634407416666704
                },
                {
                    "name": "G3",
                    "midi": 55,
                    "time": 198.9730287416667,
                    "velocity": 0.3700787401574803,
                    "duration": 0.22580634999999916
                },
                {
                    "name": "E3",
                    "midi": 52,
                    "time": 199.3117382666667,
                    "velocity": 0.41732283464566927,
                    "duration": 1.9139776333333884
                },
                {
                    "name": "G3",
                    "midi": 55,
                    "time": 199.62894242500005,
                    "velocity": 0.3543307086614173,
                    "duration": 0.2634407416666704
                },
                {
                    "name": "C4",
                    "midi": 60,
                    "time": 199.9568992666667,
                    "velocity": 0.3543307086614173,
                    "duration": 0.3010751333333417
                },
                {
                    "name": "E4",
                    "midi": 64,
                    "time": 200.27947976666673,
                    "velocity": 0.3937007874015748,
                    "duration": 0.2849461083333438
                },
                {
                    "name": "C4",
                    "midi": 60,
                    "time": 200.60206026666674,
                    "velocity": 0.4094488188976378,
                    "duration": 0.2634407416666704
                },
                {
                    "name": "G3",
                    "midi": 55,
                    "time": 200.90851174166676,
                    "velocity": 0.33858267716535434,
                    "duration": 0.258064399999995
                },
                {
                    "name": "C3",
                    "midi": 48,
                    "time": 201.26335029166677,
                    "velocity": 0.36220472440944884,
                    "duration": 1.8172034833333157
                },
                {
                    "name": "G3",
                    "midi": 55,
                    "time": 201.57517810833343,
                    "velocity": 0.3543307086614173,
                    "duration": 0.32795684166666206
                },
                {
                    "name": "C4",
                    "midi": 60,
                    "time": 201.9192639750001,
                    "velocity": 0.3779527559055118,
                    "duration": 0.2903224499999908
                },
                {
                    "name": "E4",
                    "midi": 64,
                    "time": 202.21496276666676,
                    "velocity": 0.4645669291338583,
                    "duration": 0.32795684166666206
                },
                {
                    "name": "C4",
                    "midi": 60,
                    "time": 202.5482959500001,
                    "velocity": 0.3937007874015748,
                    "duration": 0.2634407416666704
                },
                {
                    "name": "G3",
                    "midi": 55,
                    "time": 202.84937108333344,
                    "velocity": 0.31496062992125984,
                    "duration": 0.16666659166665454
                },
                {
                    "name": "E3",
                    "midi": 52,
                    "time": 203.16119890000007,
                    "velocity": 0.3937007874015748,
                    "duration": 0.2311826916666746
                },
                {
                    "name": "G3",
                    "midi": 55,
                    "time": 203.82248892500007,
                    "velocity": 0.29133858267716534,
                    "duration": 0.22043000833335213
                },
                {
                    "name": "E4",
                    "midi": 64,
                    "time": 203.82786526666675,
                    "velocity": 0.3543307086614173,
                    "duration": 0.20967732500000125
                },
                {
                    "name": "C4",
                    "midi": 60,
                    "time": 203.83324160833342,
                    "velocity": 0.4251968503937008,
                    "duration": 0.2043009833333258
                },
                {
                    "name": "G3",
                    "midi": 55,
                    "time": 205.14506897500007,
                    "velocity": 0.33858267716535434,
                    "duration": 0.37096757500000876
                },
                {
                    "name": "B2",
                    "midi": 47,
                    "time": 205.14506897500007,
                    "velocity": 0.33070866141732286,
                    "duration": 0.35483855000001086
                },
                {
                    "name": "D4",
                    "midi": 62,
                    "time": 205.15044531666675,
                    "velocity": 0.4330708661417323,
                    "duration": 0.3494622083333354
                },
                {
                    "name": "F4",
                    "midi": 65,
                    "time": 205.15582165833342,
                    "velocity": 0.4409448818897638,
                    "duration": 0.3333331833333375
                },
                {
                    "name": "G3",
                    "midi": 55,
                    "time": 205.81173534166675,
                    "velocity": 0.30708661417322836,
                    "duration": 0.16666659166668296
                },
                {
                    "name": "D4",
                    "midi": 62,
                    "time": 205.82248802500007,
                    "velocity": 0.3700787401574803,
                    "duration": 0.1559139083333605
                },
                {
                    "name": "B2",
                    "midi": 47,
                    "time": 205.82248802500007,
                    "velocity": 0.3543307086614173,
                    "duration": 0.16666659166668296
                },
                {
                    "name": "F4",
                    "midi": 65,
                    "time": 205.82786436666674,
                    "velocity": 0.36220472440944884,
                    "duration": 0.1451612250000096
                },
                {
                    "name": "G3",
                    "midi": 55,
                    "time": 207.05367026666673,
                    "velocity": 0.3700787401574803,
                    "duration": 0.2150536666666767
                },
                {
                    "name": "F4",
                    "midi": 65,
                    "time": 207.05367026666673,
                    "velocity": 0.4409448818897638,
                    "duration": 0.20967732500000125
                },
                {
                    "name": "D4",
                    "midi": 62,
                    "time": 207.06442295000005,
                    "velocity": 0.4015748031496063,
                    "duration": 0.19354830000000334
                },
                {
                    "name": "B2",
                    "midi": 47,
                    "time": 207.06442295000005,
                    "velocity": 0.33070866141732286,
                    "duration": 0.20967732500002967
                },
                {
                    "name": "B2",
                    "midi": 47,
                    "time": 207.70958395000008,
                    "velocity": 0.3858267716535433,
                    "duration": 0.16129025000003594
                },
                {
                    "name": "G3",
                    "midi": 55,
                    "time": 207.70958395000008,
                    "velocity": 0.30708661417322836,
                    "duration": 0.1559139083333605
                },
                {
                    "name": "F4",
                    "midi": 65,
                    "time": 207.71496029166676,
                    "velocity": 0.3858267716535433,
                    "duration": 0.1290322000000117
                },
                {
                    "name": "D4",
                    "midi": 62,
                    "time": 207.71496029166676,
                    "velocity": 0.3228346456692913,
                    "duration": 0.1290322000000117
                },
                {
                    "name": "F4",
                    "midi": 65,
                    "time": 209.01065863333346,
                    "velocity": 0.3543307086614173,
                    "duration": 0.258064399999995
                },
                {
                    "name": "D4",
                    "midi": 62,
                    "time": 209.01603497500014,
                    "velocity": 0.3543307086614173,
                    "duration": 0.2795697666666399
                },
                {
                    "name": "G3",
                    "midi": 55,
                    "time": 209.01603497500014,
                    "velocity": 0.30708661417322836,
                    "duration": 0.28494610833331535
                },
                {
                    "name": "B2",
                    "midi": 47,
                    "time": 209.02678765833346,
                    "velocity": 0.3543307086614173,
                    "duration": 0.25268805833331953
                },
                {
                    "name": "B2",
                    "midi": 47,
                    "time": 209.6665723166668,
                    "velocity": 0.3779527559055118,
                    "duration": 0.18817195833335632
                },
                {
                    "name": "G3",
                    "midi": 55,
                    "time": 209.6773250000001,
                    "velocity": 0.28346456692913385,
                    "duration": 0.1559139083333605
                },
                {
                    "name": "D4",
                    "midi": 62,
                    "time": 209.68270134166679,
                    "velocity": 0.29133858267716534,
                    "duration": 0.1397848833333626
                },
                {
                    "name": "F4",
                    "midi": 65,
                    "time": 209.68807768333346,
                    "velocity": 0.3464566929133858,
                    "duration": 0.1290322000000117
                },
                {
                    "name": "F4",
                    "midi": 65,
                    "time": 210.9407652916668,
                    "velocity": 0.3700787401574803,
                    "duration": 0.19354830000000334
                },
                {
                    "name": "G3",
                    "midi": 55,
                    "time": 210.9407652916668,
                    "velocity": 0.33858267716535434,
                    "duration": 0.20967732500000125
                },
                {
                    "name": "B2",
                    "midi": 47,
                    "time": 210.94614163333347,
                    "velocity": 0.3543307086614173,
                    "duration": 0.23655903333332162
                },
                {
                    "name": "D4",
                    "midi": 62,
                    "time": 210.95151797500014,
                    "velocity": 0.36220472440944884,
                    "duration": 0.19354829999997492
                },
                {
                    "name": "G3",
                    "midi": 55,
                    "time": 211.59667897500012,
                    "velocity": 0.33070866141732286,
                    "duration": 0.2473117166666725
                },
                {
                    "name": "F4",
                    "midi": 65,
                    "time": 211.59667897500012,
                    "velocity": 0.4251968503937008,
                    "duration": 0.2311826916666746
                },
                {
                    "name": "D4",
                    "midi": 62,
                    "time": 211.6020553166668,
                    "velocity": 0.33858267716535434,
                    "duration": 0.23655903333332162
                },
                {
                    "name": "B2",
                    "midi": 47,
                    "time": 211.6020553166668,
                    "velocity": 0.3779527559055118,
                    "duration": 0.2849461083333438
                },
                {
                    "name": "C3",
                    "midi": 48,
                    "time": 212.88700097500012,
                    "velocity": 0.4409448818897638,
                    "duration": 1.575268108333347
                },
                {
                    "name": "G3",
                    "midi": 55,
                    "time": 213.22033415833346,
                    "velocity": 0.3937007874015748,
                    "duration": 0.41397830833332705
                },
                {
                    "name": "C4",
                    "midi": 60,
                    "time": 213.54829100000012,
                    "velocity": 0.4251968503937008,
                    "duration": 0.3010751333333417
                },
                {
                    "name": "E4",
                    "midi": 64,
                    "time": 213.8439897916668,
                    "velocity": 0.4881889763779528,
                    "duration": 0.29569879166666624
                },
                {
                    "name": "C4",
                    "midi": 60,
                    "time": 214.16119395000013,
                    "velocity": 0.4015748031496063,
                    "duration": 0.2849461083333438
                },
                {
                    "name": "G3",
                    "midi": 55,
                    "time": 214.4568927416668,
                    "velocity": 0.3779527559055118,
                    "duration": 0.18279561666668087
                },
                {
                    "name": "E3",
                    "midi": 52,
                    "time": 214.78484958333348,
                    "velocity": 0.4330708661417323,
                    "duration": 1.9569883666666499
                },
                {
                    "name": "G3",
                    "midi": 55,
                    "time": 215.09130105833347,
                    "velocity": 0.33070866141732286,
                    "duration": 0.2634407416666704
                },
                {
                    "name": "C4",
                    "midi": 60,
                    "time": 215.41925790000013,
                    "velocity": 0.3464566929133858,
                    "duration": 0.3010751333333417
                },
                {
                    "name": "E4",
                    "midi": 64,
                    "time": 215.7310857166668,
                    "velocity": 0.4409448818897638,
                    "duration": 0.3064514749999887
                },
                {
                    "name": "C4",
                    "midi": 60,
                    "time": 216.08054792500013,
                    "velocity": 0.36220472440944884,
                    "duration": 0.29569879166666624
                },
                {
                    "name": "G3",
                    "midi": 55,
                    "time": 216.4085047666668,
                    "velocity": 0.3700787401574803,
                    "duration": 0.17204293333332998
                },
                {
                    "name": "C3",
                    "midi": 48,
                    "time": 216.75259063333345,
                    "velocity": 0.4251968503937008,
                    "duration": 1.8655905583333379
                },
                {
                    "name": "G3",
                    "midi": 55,
                    "time": 217.06441845000012,
                    "velocity": 0.33858267716535434,
                    "duration": 0.24193537499999707
                },
                {
                    "name": "C4",
                    "midi": 60,
                    "time": 217.41925700000013,
                    "velocity": 0.25196850393700787,
                    "duration": 0.2150536666666767
                },
                {
                    "name": "E4",
                    "midi": 64,
                    "time": 217.6988267666668,
                    "velocity": 0.4330708661417323,
                    "duration": 0.3172041583333396
                },
                {
                    "name": "C4",
                    "midi": 60,
                    "time": 218.01603092500014,
                    "velocity": 0.4094488188976378,
                    "duration": 0.3225804999999866
                },
                {
                    "name": "G3",
                    "midi": 55,
                    "time": 218.35474045000012,
                    "velocity": 0.3543307086614173,
                    "duration": 0.18279561666668087
                },
                {
                    "name": "E3",
                    "midi": 52,
                    "time": 218.68269729166678,
                    "velocity": 0.28346456692913385,
                    "duration": 1.8225798250000196
                },
                {
                    "name": "G3",
                    "midi": 55,
                    "time": 219.01065413333345,
                    "velocity": 0.3543307086614173,
                    "duration": 0.33870952500001295
                },
                {
                    "name": "C4",
                    "midi": 60,
                    "time": 219.3278582916668,
                    "velocity": 0.36220472440944884,
                    "duration": 0.32795684166666206
                },
                {
                    "name": "E4",
                    "midi": 64,
                    "time": 219.64506245000013,
                    "velocity": 0.41732283464566927,
                    "duration": 0.3118278166666357
                },
                {
                    "name": "C4",
                    "midi": 60,
                    "time": 219.96226660833344,
                    "velocity": 0.3543307086614173,
                    "duration": 0.31182781666669257
                },
                {
                    "name": "G3",
                    "midi": 55,
                    "time": 220.26334174166678,
                    "velocity": 0.3700787401574803,
                    "duration": 0.24731171666670093
                },
                {
                    "name": "A2",
                    "midi": 45,
                    "time": 220.5697932166668,
                    "velocity": 0.4645669291338583,
                    "duration": 1.9086012916666562
                },
                {
                    "name": "A3",
                    "midi": 57,
                    "time": 220.91925542500013,
                    "velocity": 0.3700787401574803,
                    "duration": 0.5215051416666654
                },
                {
                    "name": "C#4",
                    "midi": 61,
                    "time": 221.2472122666668,
                    "velocity": 0.33070866141732286,
                    "duration": 0.37096757500000876
                },
                {
                    "name": "G4",
                    "midi": 67,
                    "time": 221.5859217916668,
                    "velocity": 0.3228346456692913,
                    "duration": 0.3333331833333375
                },
                {
                    "name": "C#4",
                    "midi": 61,
                    "time": 221.91387863333347,
                    "velocity": 0.4566929133858268,
                    "duration": 0.2849461083333438
                },
                {
                    "name": "A3",
                    "midi": 57,
                    "time": 222.22570645000013,
                    "velocity": 0.3543307086614173,
                    "duration": 0.29569879166666624
                },
                {
                    "name": "E3",
                    "midi": 52,
                    "time": 222.5214052416668,
                    "velocity": 0.44881889763779526,
                    "duration": 1.9247303166666825
                },
                {
                    "name": "A3",
                    "midi": 57,
                    "time": 222.8762437916668,
                    "velocity": 0.3779527559055118,
                    "duration": 0.3924729416666537
                },
                {
                    "name": "C#4",
                    "midi": 61,
                    "time": 223.1988242916668,
                    "velocity": 0.5669291338582677,
                    "duration": 0.31182781666666415
                },
                {
                    "name": "G4",
                    "midi": 67,
                    "time": 223.49989942500014,
                    "velocity": 0.4409448818897638,
                    "duration": 0.3655912333333333
                },
                {
                    "name": "C#4",
                    "midi": 61,
                    "time": 223.8439852916668,
                    "velocity": 0.5039370078740157,
                    "duration": 0.2903224500000192
                },
                {
                    "name": "A3",
                    "midi": 57,
                    "time": 224.1558131083335,
                    "velocity": 0.4015748031496063,
                    "duration": 0.4247309916666495
                },
                {
                    "name": "D3",
                    "midi": 50,
                    "time": 224.44613555833348,
                    "velocity": 0.49606299212598426,
                    "duration": 1.7096766499999774
                },
                {
                    "name": "A3",
                    "midi": 57,
                    "time": 224.75796337500014,
                    "velocity": 0.3228346456692913,
                    "duration": 0.3924729416666537
                },
                {
                    "name": "D4",
                    "midi": 62,
                    "time": 225.09667290000013,
                    "velocity": 0.2440944881889764,
                    "duration": 0.3494622083333354
                },
                {
                    "name": "F4",
                    "midi": 65,
                    "time": 225.4407587666668,
                    "velocity": 0.4251968503937008,
                    "duration": 0.32258050000001504
                },
                {
                    "name": "D4",
                    "midi": 62,
                    "time": 225.78484463333348,
                    "velocity": 0.3543307086614173,
                    "duration": 0.29569879166666624
                },
                {
                    "name": "A3",
                    "midi": 57,
                    "time": 226.09129610833347,
                    "velocity": 0.33858267716535434,
                    "duration": 0.29569879166666624
                },
                {
                    "name": "D3",
                    "midi": 50,
                    "time": 226.4568873416668,
                    "velocity": 0.33070866141732286,
                    "duration": 0.31720415833331117
                },
                {
                    "name": "G2",
                    "midi": 43,
                    "time": 228.37624131666678,
                    "velocity": 0.4015748031496063,
                    "duration": 1.844085191666693
                },
                {
                    "name": "G3",
                    "midi": 55,
                    "time": 228.69344547500012,
                    "velocity": 0.3937007874015748,
                    "duration": 0.43010733333332496
                },
                {
                    "name": "B3",
                    "midi": 59,
                    "time": 229.0160259750001,
                    "velocity": 0.3779527559055118,
                    "duration": 0.3010751333333417
                },
                {
                    "name": "F4",
                    "midi": 65,
                    "time": 229.31710110833345,
                    "velocity": 0.2755905511811024,
                    "duration": 0.38172025833335965
                },
                {
                    "name": "B3",
                    "midi": 59,
                    "time": 229.65581063333346,
                    "velocity": 0.3937007874015748,
                    "duration": 0.31182781666669257
                },
                {
                    "name": "G3",
                    "midi": 55,
                    "time": 229.96763845000015,
                    "velocity": 0.3464566929133858,
                    "duration": 0.258064399999995
                },
                {
                    "name": "B2",
                    "midi": 47,
                    "time": 230.26333724166682,
                    "velocity": 0.5118110236220472,
                    "duration": 1.9139776333333316
                },
                {
                    "name": "G3",
                    "midi": 55,
                    "time": 230.59667042500016,
                    "velocity": 0.33070866141732286,
                    "duration": 0.31182781666666415
                },
                {
                    "name": "B3",
                    "midi": 59,
                    "time": 230.90312190000014,
                    "velocity": 0.4015748031496063,
                    "duration": 0.3279568416666905
                },
                {
                    "name": "F4",
                    "midi": 65,
                    "time": 231.22570240000016,
                    "velocity": 0.23622047244094488,
                    "duration": 0.3494622083333354
                },
                {
                    "name": "B3",
                    "midi": 59,
                    "time": 231.5267775333335,
                    "velocity": 0.4094488188976378,
                    "duration": 0.3225804999999866
                },
                {
                    "name": "G3",
                    "midi": 55,
                    "time": 231.88161608333348,
                    "velocity": 0.14173228346456693,
                    "duration": 0.17741927500000543
                },
                {
                    "name": "C3",
                    "midi": 48,
                    "time": 232.19344390000015,
                    "velocity": 0.48031496062992124,
                    "duration": 1.5376337166666474
                },
                {
                    "name": "G3",
                    "midi": 55,
                    "time": 232.47839000833346,
                    "velocity": 0.33070866141732286,
                    "duration": 0.3870966000000067
                },
                {
                    "name": "C4",
                    "midi": 60,
                    "time": 232.8117231916668,
                    "velocity": 0.44881889763779526,
                    "duration": 0.3494622083333354
                },
                {
                    "name": "E4",
                    "midi": 64,
                    "time": 233.16118540000014,
                    "velocity": 0.49606299212598426,
                    "duration": 0.3333331833333375
                },
                {
                    "name": "C4",
                    "midi": 60,
                    "time": 233.4891422416668,
                    "velocity": 0.3464566929133858,
                    "duration": 0.2849461083333438
                },
                {
                    "name": "G3",
                    "midi": 55,
                    "time": 233.79021737500014,
                    "velocity": 0.1732283464566929,
                    "duration": 0.35483855000001086
                },
                {
                    "name": "E3",
                    "midi": 52,
                    "time": 234.12355055833348,
                    "velocity": 0.33070866141732286,
                    "duration": 0.35483854999998243
                },
                {
                    "name": "F2",
                    "midi": 41,
                    "time": 236.0859152666668,
                    "velocity": 0.3858267716535433,
                    "duration": 1.1505371166666976
                },
                {
                    "name": "A3",
                    "midi": 57,
                    "time": 236.42462479166682,
                    "velocity": 0.4015748031496063,
                    "duration": 0.44086001666667585
                },
                {
                    "name": "C4",
                    "midi": 60,
                    "time": 236.75258163333348,
                    "velocity": 0.3779527559055118,
                    "duration": 0.317204158333368
                },
                {
                    "name": "F4",
                    "midi": 65,
                    "time": 237.06440945000017,
                    "velocity": 0.3700787401574803,
                    "duration": 0.3387095249999845
                },
                {
                    "name": "C4",
                    "midi": 60,
                    "time": 237.40849531666683,
                    "velocity": 0.3858267716535433,
                    "duration": 0.27956976666666833
                },
                {
                    "name": "A3",
                    "midi": 57,
                    "time": 237.6880650833335,
                    "velocity": 0.3858267716535433,
                    "duration": 0.15591390833333207
                },
                {
                    "name": "F3",
                    "midi": 53,
                    "time": 238.03752729166683,
                    "velocity": 0.3700787401574803,
                    "duration": 0.8279566166666825
                },
                {
                    "name": "F4",
                    "midi": 65,
                    "time": 238.65043024166684,
                    "velocity": 0.3858267716535433,
                    "duration": 0.17741927500000543
                },
                {
                    "name": "A3",
                    "midi": 57,
                    "time": 238.65043024166684,
                    "velocity": 0.3228346456692913,
                    "duration": 0.19354830000000334
                },
                {
                    "name": "C4",
                    "midi": 60,
                    "time": 238.65580658333351,
                    "velocity": 0.4094488188976378,
                    "duration": 0.17204293333332998
                },
                {
                    "name": "G2",
                    "midi": 43,
                    "time": 239.94075224166684,
                    "velocity": 0.4094488188976378,
                    "duration": 1.0430102833333308
                },
                {
                    "name": "G3",
                    "midi": 55,
                    "time": 240.60741860833352,
                    "velocity": 0.36220472440944884,
                    "duration": 0.29569879166666624
                },
                {
                    "name": "C4",
                    "midi": 60,
                    "time": 240.6127949500002,
                    "velocity": 0.3858267716535433,
                    "duration": 0.30107513333331326
                },
                {
                    "name": "E4",
                    "midi": 64,
                    "time": 240.62354763333352,
                    "velocity": 0.29133858267716534,
                    "duration": 0.30107513333331326
                },
                {
                    "name": "G2",
                    "midi": 43,
                    "time": 241.87085890000017,
                    "velocity": 0.3779527559055118,
                    "duration": 1.0215049166666574
                },
                {
                    "name": "F4",
                    "midi": 65,
                    "time": 242.5106435583335,
                    "velocity": 0.4409448818897638,
                    "duration": 0.3010751333333417
                },
                {
                    "name": "G3",
                    "midi": 55,
                    "time": 242.51601990000017,
                    "velocity": 0.4015748031496063,
                    "duration": 0.2903224499999908
                },
                {
                    "name": "B3",
                    "midi": 59,
                    "time": 242.51601990000017,
                    "velocity": 0.4330708661417323,
                    "duration": 0.3064514749999887
                },
                {
                    "name": "C3",
                    "midi": 48,
                    "time": 243.8332236083335,
                    "velocity": 0.5433070866141733,
                    "duration": 0.6290319749999753
                },
                {
                    "name": "C4",
                    "midi": 60,
                    "time": 244.01601922500018,
                    "velocity": 0.5275590551181102,
                    "duration": 0.1451612249999812
                },
                {
                    "name": "E4",
                    "midi": 64,
                    "time": 244.17193313333348,
                    "velocity": 0.49606299212598426,
                    "duration": 0.12365585833333625
                },
                {
                    "name": "C4",
                    "midi": 60,
                    "time": 244.30634167500014,
                    "velocity": 0.4566929133858268,
                    "duration": 0.1021504916666629
                },
                {
                    "name": "G3",
                    "midi": 55,
                    "time": 244.49451363333347,
                    "velocity": 0.3779527559055118,
                    "duration": 0.6559136833333525
                },
                {
                    "name": "C4",
                    "midi": 60,
                    "time": 244.65580388333348,
                    "velocity": 0.36220472440944884,
                    "duration": 0.1290322000000117
                },
                {
                    "name": "E4",
                    "midi": 64,
                    "time": 244.82247047500016,
                    "velocity": 0.5669291338582677,
                    "duration": 0.1290322000000117
                },
                {
                    "name": "C4",
                    "midi": 60,
                    "time": 244.9622553583335,
                    "velocity": 0.47244094488188976,
                    "duration": 0.08602146666666499
                },
                {
                    "name": "E3",
                    "midi": 52,
                    "time": 245.1396746333335,
                    "velocity": 0.3937007874015748,
                    "duration": 0.6505373416666487
                },
                {
                    "name": "C4",
                    "midi": 60,
                    "time": 245.29021220000016,
                    "velocity": 0.3779527559055118,
                    "duration": 0.12365585833333625
                },
                {
                    "name": "E4",
                    "midi": 64,
                    "time": 245.48376050000016,
                    "velocity": 0.6456692913385826,
                    "duration": 0.11827951666666081
                },
                {
                    "name": "C4",
                    "midi": 60,
                    "time": 245.63429806666682,
                    "velocity": 0.3779527559055118,
                    "duration": 0.08064512499998955
                },
                {
                    "name": "C3",
                    "midi": 48,
                    "time": 245.80096465833347,
                    "velocity": 0.3700787401574803,
                    "duration": 0.6129029500000343
                },
                {
                    "name": "C4",
                    "midi": 60,
                    "time": 245.9730075916668,
                    "velocity": 0.4566929133858268,
                    "duration": 0.11827951666666081
                },
                {
                    "name": "E4",
                    "midi": 64,
                    "time": 246.1342978416668,
                    "velocity": 0.5590551181102362,
                    "duration": 0.11290317500001379
                },
                {
                    "name": "C4",
                    "midi": 60,
                    "time": 246.3170934583335,
                    "velocity": 0.1968503937007874,
                    "duration": 0.059139758333344616
                },
                {
                    "name": "G3",
                    "midi": 55,
                    "time": 246.44074931666682,
                    "velocity": 0.3228346456692913,
                    "duration": 0.6344083166666792
                },
                {
                    "name": "C4",
                    "midi": 60,
                    "time": 246.61816859166683,
                    "velocity": 0.4015748031496063,
                    "duration": 0.11290317500001379
                },
                {
                    "name": "E4",
                    "midi": 64,
                    "time": 246.75257713333352,
                    "velocity": 0.4881889763779528,
                    "duration": 0.13440854166665872
                },
                {
                    "name": "C4",
                    "midi": 60,
                    "time": 246.91924372500017,
                    "velocity": 0.4566929133858268,
                    "duration": 0.09139780833334044
                },
                {
                    "name": "E3",
                    "midi": 52,
                    "time": 247.08591031666683,
                    "velocity": 0.23622047244094488,
                    "duration": 0.6075266083333304
                },
                {
                    "name": "C4",
                    "midi": 60,
                    "time": 247.23107154166684,
                    "velocity": 0.2992125984251969,
                    "duration": 0.11827951666666081
                },
                {
                    "name": "E4",
                    "midi": 64,
                    "time": 247.3977381333335,
                    "velocity": 0.5196850393700787,
                    "duration": 0.12365585833333625
                },
                {
                    "name": "C4",
                    "midi": 60,
                    "time": 247.54827570000015,
                    "velocity": 0.3858267716535433,
                    "duration": 0.08602146666666499
                },
                {
                    "name": "C3",
                    "midi": 48,
                    "time": 247.71494229166683,
                    "velocity": 0.4015748031496063,
                    "duration": 0.6129029499999774
                },
                {
                    "name": "C4",
                    "midi": 60,
                    "time": 247.88160888333348,
                    "velocity": 0.4251968503937008,
                    "duration": 0.10752683333333835
                },
                {
                    "name": "E4",
                    "midi": 64,
                    "time": 248.03214645000017,
                    "velocity": 0.3700787401574803,
                    "duration": 0.11827951666666081
                },
                {
                    "name": "C4",
                    "midi": 60,
                    "time": 248.16117865000015,
                    "velocity": 0.3464566929133858,
                    "duration": 0.09677414999998746
                },
                {
                    "name": "G3",
                    "midi": 55,
                    "time": 248.3601032916668,
                    "velocity": 0.33858267716535434,
                    "duration": 0.6344083166666792
                },
                {
                    "name": "C4",
                    "midi": 60,
                    "time": 248.51601720000014,
                    "velocity": 0.3228346456692913,
                    "duration": 0.11290317500001379
                },
                {
                    "name": "E4",
                    "midi": 64,
                    "time": 248.66117842500014,
                    "velocity": 0.4015748031496063,
                    "duration": 0.13440854166665872
                },
                {
                    "name": "C4",
                    "midi": 60,
                    "time": 248.80096330833348,
                    "velocity": 0.5039370078740157,
                    "duration": 0.09139780833334044
                },
                {
                    "name": "E3",
                    "midi": 52,
                    "time": 248.9891352666668,
                    "velocity": 0.3779527559055118,
                    "duration": 0.6344083166666508
                },
                {
                    "name": "C4",
                    "midi": 60,
                    "time": 249.14504917500014,
                    "velocity": 0.4251968503937008,
                    "duration": 0.13440854166665872
                },
                {
                    "name": "E4",
                    "midi": 64,
                    "time": 249.3117157666668,
                    "velocity": 0.5354330708661418,
                    "duration": 0.12365585833333625
                },
                {
                    "name": "C4",
                    "midi": 60,
                    "time": 249.45150065000013,
                    "velocity": 0.4094488188976378,
                    "duration": 0.09139780833334044
                },
                {
                    "name": "C3",
                    "midi": 48,
                    "time": 249.64504895000013,
                    "velocity": 0.33858267716535434,
                    "duration": 0.6021502666666549
                },
                {
                    "name": "C4",
                    "midi": 60,
                    "time": 249.80633920000014,
                    "velocity": 0.4015748031496063,
                    "duration": 0.11827951666666081
                },
                {
                    "name": "E4",
                    "midi": 64,
                    "time": 249.96225310833347,
                    "velocity": 0.5511811023622047,
                    "duration": 0.13978488333333416
                },
                {
                    "name": "C4",
                    "midi": 60,
                    "time": 250.12354335833348,
                    "velocity": 0.4409448818897638,
                    "duration": 0.09677414999998746
                },
                {
                    "name": "G3",
                    "midi": 55,
                    "time": 250.28483360833346,
                    "velocity": 0.4015748031496063,
                    "duration": 0.6559136833333525
                },
                {
                    "name": "C4",
                    "midi": 60,
                    "time": 250.4407475166668,
                    "velocity": 0.3779527559055118,
                    "duration": 0.12365585833333625
                },
                {
                    "name": "E4",
                    "midi": 64,
                    "time": 250.62354313333347,
                    "velocity": 0.7086614173228346,
                    "duration": 0.1021504916666629
                },
                {
                    "name": "C4",
                    "midi": 60,
                    "time": 250.74182265000013,
                    "velocity": 0.33858267716535434,
                    "duration": 0.11290317500001379
                },
                {
                    "name": "E3",
                    "midi": 52,
                    "time": 250.93537095000013,
                    "velocity": 0.4251968503937008,
                    "duration": 0.5967739249999795
                },
                {
                    "name": "C4",
                    "midi": 60,
                    "time": 251.07515583333347,
                    "velocity": 0.3700787401574803,
                    "duration": 0.12365585833333625
                },
                {
                    "name": "E4",
                    "midi": 64,
                    "time": 251.2310697416668,
                    "velocity": 0.4881889763779528,
                    "duration": 0.11827951666666081
                },
                {
                    "name": "C4",
                    "midi": 60,
                    "time": 251.39773633333346,
                    "velocity": 0.3858267716535433,
                    "duration": 0.09677414999998746
                },
                {
                    "name": "C3",
                    "midi": 48,
                    "time": 251.5805319500001,
                    "velocity": 0.4645669291338583,
                    "duration": 0.15053756666665663
                },
                {
                    "name": "C4",
                    "midi": 60,
                    "time": 251.7418222000001,
                    "velocity": 0.3937007874015748,
                    "duration": 0.09139780833334044
                },
                {
                    "name": "E4",
                    "midi": 64,
                    "time": 251.90848879166677,
                    "velocity": 0.33858267716535434,
                    "duration": 0.18279561666665245
                },
                {
                    "name": "C4",
                    "midi": 60,
                    "time": 252.1127897750001,
                    "velocity": 0.6062992125984252,
                    "duration": 0.09677414999998746
                },
                {
                    "name": "A#3",
                    "midi": 58,
                    "time": 252.28483270833343,
                    "velocity": 0.5196850393700787,
                    "duration": 0.06989244166666708
                },
                {
                    "name": "C4",
                    "midi": 60,
                    "time": 252.43537027500008,
                    "velocity": 0.30708661417322836,
                    "duration": 0.1021504916666629
                },
                {
                    "name": "E4",
                    "midi": 64,
                    "time": 252.58590784166674,
                    "velocity": 0.4881889763779528,
                    "duration": 0.11827951666666081
                },
                {
                    "name": "C4",
                    "midi": 60,
                    "time": 252.7364454083334,
                    "velocity": 0.3937007874015748,
                    "duration": 0.07526878333334253
                },
                {
                    "name": "E3",
                    "midi": 52,
                    "time": 252.87623029166673,
                    "velocity": 0.49606299212598426,
                    "duration": 0.10752683333333835
                },
                {
                    "name": "C4",
                    "midi": 60,
                    "time": 253.02139151666674,
                    "velocity": 0.3779527559055118,
                    "duration": 0.09139780833334044
                },
                {
                    "name": "E4",
                    "midi": 64,
                    "time": 253.18805810833342,
                    "velocity": 0.44881889763779526,
                    "duration": 0.1290322000000117
                },
                {
                    "name": "C4",
                    "midi": 60,
                    "time": 253.34397201666675,
                    "velocity": 0.4566929133858268,
                    "duration": 0.1021504916666629
                },
                {
                    "name": "C3",
                    "midi": 48,
                    "time": 253.52139129166676,
                    "velocity": 0.49606299212598426,
                    "duration": 0.11827951666666081
                },
                {
                    "name": "C4",
                    "midi": 60,
                    "time": 253.68268154166677,
                    "velocity": 0.3464566929133858,
                    "duration": 0.09677414999998746
                },
                {
                    "name": "E4",
                    "midi": 64,
                    "time": 253.82784276666675,
                    "velocity": 0.4645669291338583,
                    "duration": 0.11827951666666081
                },
                {
                    "name": "C4",
                    "midi": 60,
                    "time": 253.96762765000008,
                    "velocity": 0.5511811023622047,
                    "duration": 0.09677414999998746
                },
                {
                    "name": "A#3",
                    "midi": 58,
                    "time": 254.1557996083334,
                    "velocity": 0.6062992125984252,
                    "duration": 0.06451609999999164
                },
                {
                    "name": "C4",
                    "midi": 60,
                    "time": 254.30633717500007,
                    "velocity": 0.4251968503937008,
                    "duration": 0.1021504916666629
                },
                {
                    "name": "E4",
                    "midi": 64,
                    "time": 254.52139084166674,
                    "velocity": 0.6456692913385826,
                    "duration": 0.11827951666666081
                },
                {
                    "name": "C4",
                    "midi": 60,
                    "time": 254.64504670000008,
                    "velocity": 0.49606299212598426,
                    "duration": 0.10752683333333835
                },
                {
                    "name": "E3",
                    "midi": 52,
                    "time": 254.8332186583334,
                    "velocity": 0.4094488188976378,
                    "duration": 0.09677414999998746
                },
                {
                    "name": "C4",
                    "midi": 60,
                    "time": 254.99988525000006,
                    "velocity": 0.33070866141732286,
                    "duration": 0.08602146666666499
                },
                {
                    "name": "E4",
                    "midi": 64,
                    "time": 255.11816476666672,
                    "velocity": 0.3228346456692913,
                    "duration": 0.16129025000000752
                },
                {
                    "name": "C4",
                    "midi": 60,
                    "time": 255.27945501666673,
                    "velocity": 0.5196850393700787,
                    "duration": 0.1021504916666629
                },
                {
                    "name": "C3",
                    "midi": 48,
                    "time": 255.45149795000006,
                    "velocity": 0.41732283464566927,
                    "duration": 0.10752683333333835
                },
                {
                    "name": "C4",
                    "midi": 60,
                    "time": 255.6396699083334,
                    "velocity": 0.3464566929133858,
                    "duration": 0.10752683333333835
                },
                {
                    "name": "E4",
                    "midi": 64,
                    "time": 255.7687021083334,
                    "velocity": 0.4094488188976378,
                    "duration": 0.16129025000000752
                },
                {
                    "name": "C4",
                    "midi": 60,
                    "time": 255.94074504166673,
                    "velocity": 0.5275590551181102,
                    "duration": 0.10215049166669132
                },
                {
                    "name": "A#3",
                    "midi": 58,
                    "time": 256.1235406583334,
                    "velocity": 0.6771653543307087,
                    "duration": 0.06451609999999164
                },
                {
                    "name": "C4",
                    "midi": 60,
                    "time": 256.2687018833334,
                    "velocity": 0.33070866141732286,
                    "duration": 0.10215049166669132
                },
                {
                    "name": "E4",
                    "midi": 64,
                    "time": 256.4514975000001,
                    "velocity": 0.41732283464566927,
                    "duration": 0.12903219999998328
                },
                {
                    "name": "C4",
                    "midi": 60,
                    "time": 256.5859060416667,
                    "velocity": 0.4015748031496063,
                    "duration": 0.08064512499998955
                },
                {
                    "name": "E3",
                    "midi": 52,
                    "time": 256.73644360833333,
                    "velocity": 0.47244094488188976,
                    "duration": 0.10215049166669132
                },
                {
                    "name": "C4",
                    "midi": 60,
                    "time": 256.89773385833337,
                    "velocity": 0.33858267716535434,
                    "duration": 0.11827951666668923
                },
                {
                    "name": "E4",
                    "midi": 64,
                    "time": 257.0536477666667,
                    "velocity": 0.4094488188976378,
                    "duration": 0.12903219999998328
                },
                {
                    "name": "C4",
                    "midi": 60,
                    "time": 257.2041853333333,
                    "velocity": 0.36220472440944884,
                    "duration": 0.08602146666669341
                },
                {
                    "name": "C3",
                    "midi": 48,
                    "time": 257.370851925,
                    "velocity": 0.47244094488188976,
                    "duration": 0.10215049166669132
                },
                {
                    "name": "C4",
                    "midi": 60,
                    "time": 257.53214217500005,
                    "velocity": 0.3228346456692913,
                    "duration": 0.11290317499998537
                },
                {
                    "name": "E4",
                    "midi": 64,
                    "time": 257.6988087666667,
                    "velocity": 0.3937007874015748,
                    "duration": 0.11827951666668923
                },
                {
                    "name": "C4",
                    "midi": 60,
                    "time": 257.822464625,
                    "velocity": 0.4094488188976378,
                    "duration": 0.09139780833334044
                },
                {
                    "name": "A#3",
                    "midi": 58,
                    "time": 258.01063658333334,
                    "velocity": 0.6062992125984252,
                    "duration": 0.059139758333344616
                },
                {
                    "name": "C4",
                    "midi": 60,
                    "time": 258.1557978083334,
                    "velocity": 0.2992125984251969,
                    "duration": 0.12903219999998328
                },
                {
                    "name": "E4",
                    "midi": 64,
                    "time": 258.31708805833335,
                    "velocity": 0.5511811023622047,
                    "duration": 0.12903219999998328
                },
                {
                    "name": "C4",
                    "midi": 60,
                    "time": 258.46224928333334,
                    "velocity": 0.44881889763779526,
                    "duration": 0.09139780833334044
                },
                {
                    "name": "E3",
                    "midi": 52,
                    "time": 258.6235395333333,
                    "velocity": 0.4409448818897638,
                    "duration": 0.09139780833334044
                },
                {
                    "name": "C4",
                    "midi": 60,
                    "time": 258.79558246666664,
                    "velocity": 0.3464566929133858,
                    "duration": 0.13440854166668714
                },
                {
                    "name": "E4",
                    "midi": 64,
                    "time": 258.9568727166667,
                    "velocity": 0.31496062992125984,
                    "duration": 0.12365585833333625
                },
                {
                    "name": "C4",
                    "midi": 60,
                    "time": 259.09128125833337,
                    "velocity": 0.3779527559055118,
                    "duration": 0.10752683333333835
                },
                {
                    "name": "F2",
                    "midi": 41,
                    "time": 259.30633492500004,
                    "velocity": 0.5984251968503937,
                    "duration": 0.11827951666663239
                },
                {
                    "name": "C4",
                    "midi": 60,
                    "time": 259.467625175,
                    "velocity": 0.3700787401574803,
                    "duration": 0.17204293333332998
                },
                {
                    "name": "F4",
                    "midi": 65,
                    "time": 259.6504207916667,
                    "velocity": 0.4015748031496063,
                    "duration": 0.1451612249999812
                },
                {
                    "name": "C4",
                    "midi": 60,
                    "time": 259.8117110416667,
                    "velocity": 0.3543307086614173,
                    "duration": 0.09677414999998746
                },
                {
                    "name": "A3",
                    "midi": 57,
                    "time": 259.983753975,
                    "velocity": 0.4094488188976378,
                    "duration": 0.10752683333333835
                },
                {
                    "name": "C4",
                    "midi": 60,
                    "time": 260.16117325,
                    "velocity": 0.31496062992125984,
                    "duration": 0.13440854166668714
                },
                {
                    "name": "F4",
                    "midi": 65,
                    "time": 260.3278398416667,
                    "velocity": 0.3543307086614173,
                    "duration": 0.15591390833333207
                },
                {
                    "name": "C4",
                    "midi": 60,
                    "time": 260.47837740833336,
                    "velocity": 0.5039370078740157,
                    "duration": 0.10215049166663448
                },
                {
                    "name": "F3",
                    "midi": 53,
                    "time": 260.67192570833333,
                    "velocity": 0.3937007874015748,
                    "duration": 0.09677414999998746
                },
                {
                    "name": "C4",
                    "midi": 60,
                    "time": 260.83859229999996,
                    "velocity": 0.4251968503937008,
                    "duration": 0.13440854166668714
                },
                {
                    "name": "F4",
                    "midi": 65,
                    "time": 260.99988255,
                    "velocity": 0.33070866141732286,
                    "duration": 0.14516122500003803
                },
                {
                    "name": "C4",
                    "midi": 60,
                    "time": 261.1342910916667,
                    "velocity": 0.4881889763779528,
                    "duration": 0.09139780833334044
                },
                {
                    "name": "F2",
                    "midi": 41,
                    "time": 261.26332329166667,
                    "velocity": 0.3937007874015748,
                    "duration": 0.09677414999998746
                },
                {
                    "name": "C4",
                    "midi": 60,
                    "time": 261.47837695833334,
                    "velocity": 0.4881889763779528,
                    "duration": 0.10752683333333835
                },
                {
                    "name": "F4",
                    "midi": 65,
                    "time": 261.61278550000003,
                    "velocity": 0.4094488188976378,
                    "duration": 0.13978488333333416
                },
                {
                    "name": "C4",
                    "midi": 60,
                    "time": 261.77407575,
                    "velocity": 0.5354330708661418,
                    "duration": 0.08602146666669341
                },
                {
                    "name": "A3",
                    "midi": 57,
                    "time": 261.9246133166667,
                    "velocity": 0.3937007874015748,
                    "duration": 0.10215049166669132
                },
                {
                    "name": "C4",
                    "midi": 60,
                    "time": 262.1127852750001,
                    "velocity": 0.4251968503937008,
                    "duration": 0.11290317499998537
                },
                {
                    "name": "F4",
                    "midi": 65,
                    "time": 262.2471938166667,
                    "velocity": 0.41732283464566927,
                    "duration": 0.15053756666668505
                },
                {
                    "name": "C4",
                    "midi": 60,
                    "time": 262.40310772500004,
                    "velocity": 0.5433070866141733,
                    "duration": 0.09677414999998746
                },
                {
                    "name": "F3",
                    "midi": 53,
                    "time": 262.5859033416667,
                    "velocity": 0.4251968503937008,
                    "duration": 0.09677414999998746
                },
                {
                    "name": "C4",
                    "midi": 60,
                    "time": 262.74181725000005,
                    "velocity": 0.3543307086614173,
                    "duration": 0.11290317499998537
                },
                {
                    "name": "F4",
                    "midi": 65,
                    "time": 262.90310750000003,
                    "velocity": 0.2755905511811024,
                    "duration": 0.15053756666668505
                },
                {
                    "name": "C4",
                    "midi": 60,
                    "time": 263.0536450666667,
                    "velocity": 0.4015748031496063,
                    "duration": 0.10752683333333835
                },
                {
                    "name": "F2",
                    "midi": 41,
                    "time": 263.23106434166675,
                    "velocity": 0.47244094488188976,
                    "duration": 0.2473117166666725
                },
                {
                    "name": "F4",
                    "midi": 65,
                    "time": 263.9031070500001,
                    "velocity": 0.4645669291338583,
                    "duration": 0.13440854166668714
                },
                {
                    "name": "A3",
                    "midi": 57,
                    "time": 263.9031070500001,
                    "velocity": 0.28346456692913385,
                    "duration": 0.10752683333333835
                },
                {
                    "name": "C4",
                    "midi": 60,
                    "time": 263.9138597333334,
                    "velocity": 0.41732283464566927,
                    "duration": 0.09677414999998746
                },
                {
                    "name": "E2",
                    "midi": 40,
                    "time": 267.08590131666676,
                    "velocity": 0.5039370078740157,
                    "duration": 0.13978488333333416
                },
                {
                    "name": "E3",
                    "midi": 52,
                    "time": 267.7418150000001,
                    "velocity": 0.3858267716535433,
                    "duration": 0.25806439999996655
                },
                {
                    "name": "G3",
                    "midi": 55,
                    "time": 267.7418150000001,
                    "velocity": 0.4094488188976378,
                    "duration": 0.25806439999996655
                },
                {
                    "name": "C4",
                    "midi": 60,
                    "time": 267.74719134166673,
                    "velocity": 0.4881889763779528,
                    "duration": 0.2473117166666725
                },
                {
                    "name": "E4",
                    "midi": 64,
                    "time": 267.76332036666673,
                    "velocity": 0.4094488188976378,
                    "duration": 0.24193537499996864
                },
                {
                    "name": "F2",
                    "midi": 41,
                    "time": 269.03213700000003,
                    "velocity": 0.3464566929133858,
                    "duration": 1.3225800499999423
                },
                {
                    "name": "A3",
                    "midi": 57,
                    "time": 269.64503995,
                    "velocity": 0.4566929133858268,
                    "duration": 0.6827953916666161
                },
                {
                    "name": "F3",
                    "midi": 53,
                    "time": 269.64503995,
                    "velocity": 0.33858267716535434,
                    "duration": 0.6827953916666161
                },
                {
                    "name": "D4",
                    "midi": 62,
                    "time": 269.65041629166666,
                    "velocity": 0.5196850393700787,
                    "duration": 0.677419049999969
                },
                {
                    "name": "F4",
                    "midi": 65,
                    "time": 269.661168975,
                    "velocity": 0.6062992125984252,
                    "duration": 0.6612900249999711
                },
                {
                    "name": "G2",
                    "midi": 43,
                    "time": 270.93536194999996,
                    "velocity": 0.47244094488188976,
                    "duration": 1.3870961499999908
                },
                {
                    "name": "G3",
                    "midi": 55,
                    "time": 271.56439392499993,
                    "velocity": 0.5118110236220472,
                    "duration": 0.6935480750000238
                },
                {
                    "name": "C4",
                    "midi": 60,
                    "time": 271.56439392499993,
                    "velocity": 0.49606299212598426,
                    "duration": 0.6881717333333768
                },
                {
                    "name": "E4",
                    "midi": 64,
                    "time": 271.5751466083333,
                    "velocity": 0.49606299212598426,
                    "duration": 0.6989244166666708
                },
                {
                    "name": "E3",
                    "midi": 52,
                    "time": 271.5751466083333,
                    "velocity": 0.44881889763779526,
                    "duration": 0.6774190500000259
                },
                {
                    "name": "G2",
                    "midi": 43,
                    "time": 272.80632884999994,
                    "velocity": 0.48031496062992124,
                    "duration": 0.15591390833333207
                },
                {
                    "name": "G3",
                    "midi": 55,
                    "time": 273.44611350833327,
                    "velocity": 0.41732283464566927,
                    "duration": 0.5967739249999795
                },
                {
                    "name": "F4",
                    "midi": 65,
                    "time": 273.4514898499999,
                    "velocity": 0.4881889763779528,
                    "duration": 0.5752685583333346
                },
                {
                    "name": "D3",
                    "midi": 50,
                    "time": 273.4514898499999,
                    "velocity": 0.4251968503937008,
                    "duration": 0.5698922166666875
                },
                {
                    "name": "B3",
                    "midi": 59,
                    "time": 273.4514898499999,
                    "velocity": 0.49606299212598426,
                    "duration": 0.5806448999999816
                },
                {
                    "name": "C3",
                    "midi": 48,
                    "time": 274.8385859999999,
                    "velocity": 0.5433070866141733,
                    "duration": 0.6290319749999753
                },
                {
                    "name": "C4",
                    "midi": 60,
                    "time": 275.02138161666653,
                    "velocity": 0.5275590551181102,
                    "duration": 0.1451612249999812
                },
                {
                    "name": "E4",
                    "midi": 64,
                    "time": 275.17729552499986,
                    "velocity": 0.49606299212598426,
                    "duration": 0.12365585833333625
                },
                {
                    "name": "C4",
                    "midi": 60,
                    "time": 275.31170406666655,
                    "velocity": 0.4566929133858268,
                    "duration": 0.10215049166669132
                },
                {
                    "name": "G3",
                    "midi": 55,
                    "time": 275.4998760249999,
                    "velocity": 0.3779527559055118,
                    "duration": 0.6559136833333241
                },
                {
                    "name": "C4",
                    "midi": 60,
                    "time": 275.66116627499986,
                    "velocity": 0.36220472440944884,
                    "duration": 0.12903219999998328
                },
                {
                    "name": "E4",
                    "midi": 64,
                    "time": 275.8278328666665,
                    "velocity": 0.5669291338582677,
                    "duration": 0.12903219999998328
                },
                {
                    "name": "C4",
                    "midi": 60,
                    "time": 275.9676177499998,
                    "velocity": 0.47244094488188976,
                    "duration": 0.08602146666669341
                },
                {
                    "name": "E3",
                    "midi": 52,
                    "time": 276.14503702499985,
                    "velocity": 0.3937007874015748,
                    "duration": 0.6505373416666771
                },
                {
                    "name": "C4",
                    "midi": 60,
                    "time": 276.29557459166654,
                    "velocity": 0.3779527559055118,
                    "duration": 0.12365585833333625
                },
                {
                    "name": "E4",
                    "midi": 64,
                    "time": 276.4891228916665,
                    "velocity": 0.6456692913385826,
                    "duration": 0.11827951666668923
                },
                {
                    "name": "C4",
                    "midi": 60,
                    "time": 276.6396604583332,
                    "velocity": 0.3779527559055118,
                    "duration": 0.08064512499998955
                },
                {
                    "name": "C3",
                    "midi": 48,
                    "time": 276.8063270499999,
                    "velocity": 0.3700787401574803,
                    "duration": 0.6129029499999774
                },
                {
                    "name": "C4",
                    "midi": 60,
                    "time": 276.9783699833332,
                    "velocity": 0.4566929133858268,
                    "duration": 0.11827951666668923
                },
                {
                    "name": "E4",
                    "midi": 64,
                    "time": 277.13966023333325,
                    "velocity": 0.5590551181102362,
                    "duration": 0.11290317499998537
                },
                {
                    "name": "C4",
                    "midi": 60,
                    "time": 277.32245584999987,
                    "velocity": 0.1968503937007874,
                    "duration": 0.059139758333344616
                },
                {
                    "name": "G3",
                    "midi": 55,
                    "time": 277.4461117083332,
                    "velocity": 0.3228346456692913,
                    "duration": 0.6344083166666223
                },
                {
                    "name": "C4",
                    "midi": 60,
                    "time": 277.6235309833332,
                    "velocity": 0.4015748031496063,
                    "duration": 0.11290317499998537
                },
                {
                    "name": "E4",
                    "midi": 64,
                    "time": 277.7579395249998,
                    "velocity": 0.4881889763779528,
                    "duration": 0.13440854166668714
                },
                {
                    "name": "C4",
                    "midi": 60,
                    "time": 277.9246061166665,
                    "velocity": 0.4566929133858268,
                    "duration": 0.09139780833334044
                },
                {
                    "name": "E3",
                    "midi": 52,
                    "time": 278.0912727083332,
                    "velocity": 0.23622047244094488,
                    "duration": 0.6075266083333872
                },
                {
                    "name": "C4",
                    "midi": 60,
                    "time": 278.23643393333316,
                    "velocity": 0.2992125984251969,
                    "duration": 0.11827951666668923
                },
                {
                    "name": "E4",
                    "midi": 64,
                    "time": 278.40310052499984,
                    "velocity": 0.5196850393700787,
                    "duration": 0.12365585833333625
                },
                {
                    "name": "C4",
                    "midi": 60,
                    "time": 278.5536380916665,
                    "velocity": 0.3858267716535433,
                    "duration": 0.08602146666669341
                },
                {
                    "name": "C3",
                    "midi": 48,
                    "time": 278.7203046833332,
                    "velocity": 0.4015748031496063,
                    "duration": 0.6129029500000343
                },
                {
                    "name": "C4",
                    "midi": 60,
                    "time": 278.8869712749999,
                    "velocity": 0.4251968503937008,
                    "duration": 0.10752683333333835
                },
                {
                    "name": "E4",
                    "midi": 64,
                    "time": 279.0375088416666,
                    "velocity": 0.3700787401574803,
                    "duration": 0.11827951666668923
                },
                {
                    "name": "C4",
                    "midi": 60,
                    "time": 279.1665410416666,
                    "velocity": 0.3464566929133858,
                    "duration": 0.09677414999998746
                },
                {
                    "name": "G3",
                    "midi": 55,
                    "time": 279.36546568333324,
                    "velocity": 0.33858267716535434,
                    "duration": 0.6344083166666223
                },
                {
                    "name": "C4",
                    "midi": 60,
                    "time": 279.5213795916666,
                    "velocity": 0.3228346456692913,
                    "duration": 0.11290317499998537
                },
                {
                    "name": "E4",
                    "midi": 64,
                    "time": 279.66654081666655,
                    "velocity": 0.4015748031496063,
                    "duration": 0.13440854166668714
                },
                {
                    "name": "C4",
                    "midi": 60,
                    "time": 279.8063256999999,
                    "velocity": 0.5039370078740157,
                    "duration": 0.09139780833334044
                },
                {
                    "name": "E3",
                    "midi": 52,
                    "time": 279.9944976583332,
                    "velocity": 0.3779527559055118,
                    "duration": 0.6344083166666792
                },
                {
                    "name": "C4",
                    "midi": 60,
                    "time": 280.15041156666655,
                    "velocity": 0.4251968503937008,
                    "duration": 0.13440854166668714
                },
                {
                    "name": "E4",
                    "midi": 64,
                    "time": 280.31707815833323,
                    "velocity": 0.5354330708661418,
                    "duration": 0.12365585833333625
                },
                {
                    "name": "C4",
                    "midi": 60,
                    "time": 280.45686304166657,
                    "velocity": 0.4094488188976378,
                    "duration": 0.09139780833334044
                },
                {
                    "name": "C3",
                    "midi": 48,
                    "time": 280.65041134166654,
                    "velocity": 0.33858267716535434,
                    "duration": 0.6021502666666265
                },
                {
                    "name": "C4",
                    "midi": 60,
                    "time": 280.8117015916665,
                    "velocity": 0.4015748031496063,
                    "duration": 0.11827951666668923
                },
                {
                    "name": "E4",
                    "midi": 64,
                    "time": 280.96761549999985,
                    "velocity": 0.5511811023622047,
                    "duration": 0.13978488333333416
                },
                {
                    "name": "C4",
                    "midi": 60,
                    "time": 281.12890574999983,
                    "velocity": 0.4409448818897638,
                    "duration": 0.09677414999998746
                },
                {
                    "name": "G3",
                    "midi": 55,
                    "time": 281.2901959999998,
                    "velocity": 0.4015748031496063,
                    "duration": 0.6559136833333241
                },
                {
                    "name": "C4",
                    "midi": 60,
                    "time": 281.44610990833314,
                    "velocity": 0.3779527559055118,
                    "duration": 0.12365585833333625
                },
                {
                    "name": "E4",
                    "midi": 64,
                    "time": 281.6289055249998,
                    "velocity": 0.7086614173228346,
                    "duration": 0.10215049166669132
                },
                {
                    "name": "C4",
                    "midi": 60,
                    "time": 281.7471850416665,
                    "velocity": 0.33858267716535434,
                    "duration": 0.11290317499998537
                },
                {
                    "name": "E3",
                    "midi": 52,
                    "time": 281.9407333416665,
                    "velocity": 0.4251968503937008,
                    "duration": 0.5967739249999795
                },
                {
                    "name": "C4",
                    "midi": 60,
                    "time": 282.0805182249998,
                    "velocity": 0.3700787401574803,
                    "duration": 0.12365585833333625
                },
                {
                    "name": "E4",
                    "midi": 64,
                    "time": 282.23643213333315,
                    "velocity": 0.4881889763779528,
                    "duration": 0.11827951666668923
                },
                {
                    "name": "C4",
                    "midi": 60,
                    "time": 282.40309872499984,
                    "velocity": 0.3858267716535433,
                    "duration": 0.09677414999998746
                },
                {
                    "name": "C3",
                    "midi": 48,
                    "time": 282.58589434166646,
                    "velocity": 0.4645669291338583,
                    "duration": 0.15053756666668505
                },
                {
                    "name": "C4",
                    "midi": 60,
                    "time": 282.7471845916665,
                    "velocity": 0.3937007874015748,
                    "duration": 0.09139780833334044
                },
                {
                    "name": "E4",
                    "midi": 64,
                    "time": 282.9138511833332,
                    "velocity": 0.33858267716535434,
                    "duration": 0.18279561666668087
                },
                {
                    "name": "C4",
                    "midi": 60,
                    "time": 283.1181521666665,
                    "velocity": 0.6062992125984252,
                    "duration": 0.09677414999998746
                },
                {
                    "name": "A#3",
                    "midi": 58,
                    "time": 283.29019509999983,
                    "velocity": 0.5196850393700787,
                    "duration": 0.06989244166663866
                },
                {
                    "name": "C4",
                    "midi": 60,
                    "time": 283.44073266666646,
                    "velocity": 0.30708661417322836,
                    "duration": 0.10215049166669132
                },
                {
                    "name": "E4",
                    "midi": 64,
                    "time": 283.59127023333315,
                    "velocity": 0.4881889763779528,
                    "duration": 0.11827951666668923
                },
                {
                    "name": "C4",
                    "midi": 60,
                    "time": 283.74180779999983,
                    "velocity": 0.3937007874015748,
                    "duration": 0.07526878333334253
                },
                {
                    "name": "E3",
                    "midi": 52,
                    "time": 283.88159268333317,
                    "velocity": 0.49606299212598426,
                    "duration": 0.10752683333333835
                },
                {
                    "name": "C4",
                    "midi": 60,
                    "time": 284.02675390833315,
                    "velocity": 0.3779527559055118,
                    "duration": 0.09139780833334044
                },
                {
                    "name": "E4",
                    "midi": 64,
                    "time": 284.19342049999983,
                    "velocity": 0.44881889763779526,
                    "duration": 0.12903219999998328
                },
                {
                    "name": "C4",
                    "midi": 60,
                    "time": 284.34933440833316,
                    "velocity": 0.4566929133858268,
                    "duration": 0.10215049166669132
                },
                {
                    "name": "C3",
                    "midi": 48,
                    "time": 284.5267536833332,
                    "velocity": 0.49606299212598426,
                    "duration": 0.11827951666668923
                },
                {
                    "name": "C4",
                    "midi": 60,
                    "time": 284.68804393333323,
                    "velocity": 0.3464566929133858,
                    "duration": 0.09677414999998746
                },
                {
                    "name": "E4",
                    "midi": 64,
                    "time": 284.8332051583332,
                    "velocity": 0.4645669291338583,
                    "duration": 0.11827951666668923
                },
                {
                    "name": "C4",
                    "midi": 60,
                    "time": 284.97299004166655,
                    "velocity": 0.5511811023622047,
                    "duration": 0.09677414999998746
                },
                {
                    "name": "A#3",
                    "midi": 58,
                    "time": 285.1611619999999,
                    "velocity": 0.6062992125984252,
                    "duration": 0.06451609999999164
                },
                {
                    "name": "C4",
                    "midi": 60,
                    "time": 285.31169956666656,
                    "velocity": 0.4251968503937008,
                    "duration": 0.10215049166669132
                },
                {
                    "name": "E4",
                    "midi": 64,
                    "time": 285.52675323333324,
                    "velocity": 0.6456692913385826,
                    "duration": 0.11827951666668923
                },
                {
                    "name": "C4",
                    "midi": 60,
                    "time": 285.6504090916666,
                    "velocity": 0.49606299212598426,
                    "duration": 0.10752683333333835
                },
                {
                    "name": "E3",
                    "midi": 52,
                    "time": 285.8385810499999,
                    "velocity": 0.4094488188976378,
                    "duration": 0.09677414999998746
                },
                {
                    "name": "C4",
                    "midi": 60,
                    "time": 286.00524764166653,
                    "velocity": 0.33070866141732286,
                    "duration": 0.08602146666669341
                },
                {
                    "name": "E4",
                    "midi": 64,
                    "time": 286.1235271583332,
                    "velocity": 0.3228346456692913,
                    "duration": 0.1612902499999791
                },
                {
                    "name": "C4",
                    "midi": 60,
                    "time": 286.2848174083332,
                    "velocity": 0.5196850393700787,
                    "duration": 0.10215049166669132
                },
                {
                    "name": "C3",
                    "midi": 48,
                    "time": 286.4568603416665,
                    "velocity": 0.41732283464566927,
                    "duration": 0.10752683333333835
                },
                {
                    "name": "C4",
                    "midi": 60,
                    "time": 286.64503229999985,
                    "velocity": 0.3464566929133858,
                    "duration": 0.10752683333333835
                },
                {
                    "name": "E4",
                    "midi": 64,
                    "time": 286.77406449999984,
                    "velocity": 0.4094488188976378,
                    "duration": 0.1612902499999791
                },
                {
                    "name": "C4",
                    "midi": 60,
                    "time": 286.94610743333317,
                    "velocity": 0.5275590551181102,
                    "duration": 0.10215049166669132
                },
                {
                    "name": "A#3",
                    "midi": 58,
                    "time": 287.12890304999985,
                    "velocity": 0.6771653543307087,
                    "duration": 0.06451609999999164
                },
                {
                    "name": "C4",
                    "midi": 60,
                    "time": 287.27406427499983,
                    "velocity": 0.33070866141732286,
                    "duration": 0.10215049166669132
                },
                {
                    "name": "E4",
                    "midi": 64,
                    "time": 287.4568598916665,
                    "velocity": 0.41732283464566927,
                    "duration": 0.12903219999998328
                },
                {
                    "name": "C4",
                    "midi": 60,
                    "time": 287.59126843333314,
                    "velocity": 0.4015748031496063,
                    "duration": 0.08064512499998955
                },
                {
                    "name": "E3",
                    "midi": 52,
                    "time": 287.74180599999977,
                    "velocity": 0.47244094488188976,
                    "duration": 0.10215049166669132
                },
                {
                    "name": "C4",
                    "midi": 60,
                    "time": 287.9030962499998,
                    "velocity": 0.33858267716535434,
                    "duration": 0.11827951666668923
                },
                {
                    "name": "E4",
                    "midi": 64,
                    "time": 288.05901015833314,
                    "velocity": 0.4094488188976378,
                    "duration": 0.12903219999998328
                },
                {
                    "name": "C4",
                    "midi": 60,
                    "time": 288.20954772499977,
                    "velocity": 0.36220472440944884,
                    "duration": 0.08602146666669341
                },
                {
                    "name": "C3",
                    "midi": 48,
                    "time": 288.37621431666645,
                    "velocity": 0.47244094488188976,
                    "duration": 0.10215049166669132
                },
                {
                    "name": "C4",
                    "midi": 60,
                    "time": 288.5375045666665,
                    "velocity": 0.3228346456692913,
                    "duration": 0.11290317499998537
                },
                {
                    "name": "E4",
                    "midi": 64,
                    "time": 288.7041711583331,
                    "velocity": 0.3937007874015748,
                    "duration": 0.11827951666663239
                },
                {
                    "name": "C4",
                    "midi": 60,
                    "time": 288.8278270166664,
                    "velocity": 0.4094488188976378,
                    "duration": 0.09139780833334044
                },
                {
                    "name": "A#3",
                    "midi": 58,
                    "time": 289.0159989749997,
                    "velocity": 0.6062992125984252,
                    "duration": 0.059139758333344616
                },
                {
                    "name": "C4",
                    "midi": 60,
                    "time": 289.16116019999976,
                    "velocity": 0.2992125984251969,
                    "duration": 0.12903219999998328
                },
                {
                    "name": "E4",
                    "midi": 64,
                    "time": 289.32245044999974,
                    "velocity": 0.5511811023622047,
                    "duration": 0.12903220000004012
                },
                {
                    "name": "C4",
                    "midi": 60,
                    "time": 289.4676116749998,
                    "velocity": 0.44881889763779526,
                    "duration": 0.09139780833334044
                },
                {
                    "name": "E3",
                    "midi": 52,
                    "time": 289.6289019249998,
                    "velocity": 0.4409448818897638,
                    "duration": 0.09139780833334044
                },
                {
                    "name": "C4",
                    "midi": 60,
                    "time": 289.80094485833314,
                    "velocity": 0.3464566929133858,
                    "duration": 0.13440854166668714
                },
                {
                    "name": "E4",
                    "midi": 64,
                    "time": 289.9622351083332,
                    "velocity": 0.31496062992125984,
                    "duration": 0.12365585833333625
                },
                {
                    "name": "C4",
                    "midi": 60,
                    "time": 290.09664364999986,
                    "velocity": 0.3779527559055118,
                    "duration": 0.10752683333333835
                },
                {
                    "name": "F2",
                    "midi": 41,
                    "time": 290.31169731666654,
                    "velocity": 0.5984251968503937,
                    "duration": 0.11827951666663239
                },
                {
                    "name": "C4",
                    "midi": 60,
                    "time": 290.4729875666665,
                    "velocity": 0.3700787401574803,
                    "duration": 0.17204293333332998
                },
                {
                    "name": "F4",
                    "midi": 65,
                    "time": 290.6557831833332,
                    "velocity": 0.4015748031496063,
                    "duration": 0.1451612249999812
                },
                {
                    "name": "C4",
                    "midi": 60,
                    "time": 290.8170734333332,
                    "velocity": 0.3543307086614173,
                    "duration": 0.09677414999998746
                },
                {
                    "name": "A3",
                    "midi": 57,
                    "time": 290.9891163666665,
                    "velocity": 0.4094488188976378,
                    "duration": 0.10752683333333835
                },
                {
                    "name": "C4",
                    "midi": 60,
                    "time": 291.1665356416665,
                    "velocity": 0.31496062992125984,
                    "duration": 0.13440854166668714
                },
                {
                    "name": "F4",
                    "midi": 65,
                    "time": 291.33320223333317,
                    "velocity": 0.3543307086614173,
                    "duration": 0.15591390833333207
                },
                {
                    "name": "C4",
                    "midi": 60,
                    "time": 291.48373979999985,
                    "velocity": 0.5039370078740157,
                    "duration": 0.10215049166663448
                },
                {
                    "name": "F3",
                    "midi": 53,
                    "time": 291.6772880999998,
                    "velocity": 0.3937007874015748,
                    "duration": 0.0967741500000443
                },
                {
                    "name": "C4",
                    "midi": 60,
                    "time": 291.8439546916665,
                    "velocity": 0.4251968503937008,
                    "duration": 0.13440854166668714
                },
                {
                    "name": "F4",
                    "midi": 65,
                    "time": 292.00524494166655,
                    "velocity": 0.33070866141732286,
                    "duration": 0.14516122500003803
                },
                {
                    "name": "C4",
                    "midi": 60,
                    "time": 292.13965348333323,
                    "velocity": 0.4881889763779528,
                    "duration": 0.09139780833334044
                },
                {
                    "name": "F2",
                    "midi": 41,
                    "time": 292.2686856833332,
                    "velocity": 0.3937007874015748,
                    "duration": 0.09677414999998746
                },
                {
                    "name": "C4",
                    "midi": 60,
                    "time": 292.4837393499999,
                    "velocity": 0.4881889763779528,
                    "duration": 0.10752683333333835
                },
                {
                    "name": "F4",
                    "midi": 65,
                    "time": 292.6181478916666,
                    "velocity": 0.4094488188976378,
                    "duration": 0.13978488333333416
                },
                {
                    "name": "C4",
                    "midi": 60,
                    "time": 292.77943814166656,
                    "velocity": 0.5354330708661418,
                    "duration": 0.08602146666669341
                },
                {
                    "name": "A3",
                    "midi": 57,
                    "time": 292.92997570833325,
                    "velocity": 0.3937007874015748,
                    "duration": 0.10215049166669132
                },
                {
                    "name": "C4",
                    "midi": 60,
                    "time": 293.11814766666663,
                    "velocity": 0.4251968503937008,
                    "duration": 0.11290317499998537
                },
                {
                    "name": "F4",
                    "midi": 65,
                    "time": 293.25255620833326,
                    "velocity": 0.41732283464566927,
                    "duration": 0.15053756666668505
                },
                {
                    "name": "C4",
                    "midi": 60,
                    "time": 293.4084701166666,
                    "velocity": 0.5433070866141733,
                    "duration": 0.09677414999998746
                },
                {
                    "name": "F3",
                    "midi": 53,
                    "time": 293.5912657333333,
                    "velocity": 0.4251968503937008,
                    "duration": 0.09677414999998746
                },
                {
                    "name": "C4",
                    "midi": 60,
                    "time": 293.7471796416666,
                    "velocity": 0.3543307086614173,
                    "duration": 0.11290317499998537
                },
                {
                    "name": "F4",
                    "midi": 65,
                    "time": 293.9084698916666,
                    "velocity": 0.2755905511811024,
                    "duration": 0.15053756666668505
                },
                {
                    "name": "C4",
                    "midi": 60,
                    "time": 294.05900745833327,
                    "velocity": 0.4015748031496063,
                    "duration": 0.10752683333333835
                },
                {
                    "name": "F2",
                    "midi": 41,
                    "time": 294.2364267333333,
                    "velocity": 0.47244094488188976,
                    "duration": 0.2473117166666725
                },
                {
                    "name": "F4",
                    "midi": 65,
                    "time": 294.9084694416666,
                    "velocity": 0.4645669291338583,
                    "duration": 0.13440854166668714
                },
                {
                    "name": "A3",
                    "midi": 57,
                    "time": 294.9084694416666,
                    "velocity": 0.28346456692913385,
                    "duration": 0.10752683333333835
                },
                {
                    "name": "C4",
                    "midi": 60,
                    "time": 294.919222125,
                    "velocity": 0.41732283464566927,
                    "duration": 0.09677414999998746
                },
                {
                    "name": "E2",
                    "midi": 40,
                    "time": 298.0912637083334,
                    "velocity": 0.5039370078740157,
                    "duration": 0.13978488333333416
                },
                {
                    "name": "E3",
                    "midi": 52,
                    "time": 298.7471773916667,
                    "velocity": 0.3858267716535433,
                    "duration": 0.25806439999996655
                },
                {
                    "name": "G3",
                    "midi": 55,
                    "time": 298.7471773916667,
                    "velocity": 0.4094488188976378,
                    "duration": 0.25806439999996655
                },
                {
                    "name": "C4",
                    "midi": 60,
                    "time": 298.75255373333334,
                    "velocity": 0.4881889763779528,
                    "duration": 0.2473117166666725
                },
                {
                    "name": "E4",
                    "midi": 64,
                    "time": 298.76868275833334,
                    "velocity": 0.4094488188976378,
                    "duration": 0.24193537499996864
                },
                {
                    "name": "F2",
                    "midi": 41,
                    "time": 300.03749939166664,
                    "velocity": 0.3464566929133858,
                    "duration": 1.3225800499999423
                },
                {
                    "name": "A3",
                    "midi": 57,
                    "time": 300.6504023416666,
                    "velocity": 0.4566929133858268,
                    "duration": 0.6827953916666161
                },
                {
                    "name": "F3",
                    "midi": 53,
                    "time": 300.6504023416666,
                    "velocity": 0.33858267716535434,
                    "duration": 0.6827953916666161
                },
                {
                    "name": "D4",
                    "midi": 62,
                    "time": 300.65577868333327,
                    "velocity": 0.5196850393700787,
                    "duration": 0.677419049999969
                },
                {
                    "name": "F4",
                    "midi": 65,
                    "time": 300.6665313666666,
                    "velocity": 0.6062992125984252,
                    "duration": 0.6612900249999711
                },
                {
                    "name": "G2",
                    "midi": 43,
                    "time": 301.94072434166657,
                    "velocity": 0.47244094488188976,
                    "duration": 1.3870961499999908
                },
                {
                    "name": "G3",
                    "midi": 55,
                    "time": 302.56975631666654,
                    "velocity": 0.5118110236220472,
                    "duration": 0.6935480750000238
                },
                {
                    "name": "C4",
                    "midi": 60,
                    "time": 302.56975631666654,
                    "velocity": 0.49606299212598426,
                    "duration": 0.6881717333333768
                },
                {
                    "name": "E4",
                    "midi": 64,
                    "time": 302.5805089999999,
                    "velocity": 0.49606299212598426,
                    "duration": 0.6989244166666708
                },
                {
                    "name": "E3",
                    "midi": 52,
                    "time": 302.5805089999999,
                    "velocity": 0.44881889763779526,
                    "duration": 0.6774190500000259
                },
                {
                    "name": "G2",
                    "midi": 43,
                    "time": 303.81169124166655,
                    "velocity": 0.48031496062992124,
                    "duration": 0.15591390833333207
                },
                {
                    "name": "G3",
                    "midi": 55,
                    "time": 304.4514758999999,
                    "velocity": 0.41732283464566927,
                    "duration": 0.5967739249999795
                },
                {
                    "name": "F4",
                    "midi": 65,
                    "time": 304.4568522416665,
                    "velocity": 0.4881889763779528,
                    "duration": 0.5752685583333346
                },
                {
                    "name": "D3",
                    "midi": 50,
                    "time": 304.4568522416665,
                    "velocity": 0.4251968503937008,
                    "duration": 0.5698922166666875
                },
                {
                    "name": "B3",
                    "midi": 59,
                    "time": 304.4568522416665,
                    "velocity": 0.49606299212598426,
                    "duration": 0.5806448999999816
                },
                {
                    "name": "C3",
                    "midi": 48,
                    "time": 305.7525505833332,
                    "velocity": 0.28346456692913385,
                    "duration": 0.3655912333333049
                },
                {
                    "name": "G3",
                    "midi": 55,
                    "time": 305.9245935166665,
                    "velocity": 0.4330708661417323,
                    "duration": 0.15591390833333207
                },
                {
                    "name": "C4",
                    "midi": 60,
                    "time": 306.09663644999983,
                    "velocity": 0.49606299212598426,
                    "duration": 0.1344085416666303
                },
                {
                    "name": "G3",
                    "midi": 55,
                    "time": 306.2417976749998,
                    "velocity": 0.4645669291338583,
                    "duration": 0.09677414999998746
                },
                {
                    "name": "E3",
                    "midi": 52,
                    "time": 306.44072231666644,
                    "velocity": 0.4251968503937008,
                    "duration": 0.1612902499999791
                },
                {
                    "name": "G3",
                    "midi": 55,
                    "time": 306.61276524999977,
                    "velocity": 0.3228346456692913,
                    "duration": 0.13978488333333416
                },
                {
                    "name": "C4",
                    "midi": 60,
                    "time": 306.75792647499975,
                    "velocity": 0.5354330708661418,
                    "duration": 0.1451612249999812
                },
                {
                    "name": "G3",
                    "midi": 55,
                    "time": 306.9084640416664,
                    "velocity": 0.44881889763779526,
                    "duration": 0.08602146666669341
                },
                {
                    "name": "E3",
                    "midi": 52,
                    "time": 307.0697542916664,
                    "velocity": 0.3937007874015748,
                    "duration": 0.12903219999998328
                },
                {
                    "name": "G3",
                    "midi": 55,
                    "time": 307.24179722499974,
                    "velocity": 0.3937007874015748,
                    "duration": 0.11827951666663239
                },
                {
                    "name": "C4",
                    "midi": 60,
                    "time": 307.4030874749997,
                    "velocity": 0.33858267716535434,
                    "duration": 0.12365585833333625
                },
                {
                    "name": "G3",
                    "midi": 55,
                    "time": 307.5213669916664,
                    "velocity": 0.44881889763779526,
                    "duration": 0.08602146666663657
                },
                {
                    "name": "C3",
                    "midi": 48,
                    "time": 307.6987862666664,
                    "velocity": 0.4094488188976378,
                    "duration": 0.15591390833333207
                },
                {
                    "name": "G3",
                    "midi": 55,
                    "time": 307.89233456666636,
                    "velocity": 0.44881889763779526,
                    "duration": 0.12903219999998328
                },
                {
                    "name": "C4",
                    "midi": 60,
                    "time": 308.042872133333,
                    "velocity": 0.5196850393700787,
                    "duration": 0.11827951666668923
                },
                {
                    "name": "G3",
                    "midi": 55,
                    "time": 308.1611516499997,
                    "velocity": 0.4645669291338583,
                    "duration": 0.08602146666669341
                },
                {
                    "name": "E3",
                    "midi": 52,
                    "time": 308.32781824166636,
                    "velocity": 0.4015748031496063,
                    "duration": 0.11827951666668923
                },
                {
                    "name": "G3",
                    "midi": 55,
                    "time": 308.4998611749997,
                    "velocity": 0.3858267716535433,
                    "duration": 0.12365585833333625
                },
                {
                    "name": "C4",
                    "midi": 60,
                    "time": 308.6450223999997,
                    "velocity": 0.4251968503937008,
                    "duration": 0.11827951666668923
                },
                {
                    "name": "G3",
                    "midi": 55,
                    "time": 308.76330191666636,
                    "velocity": 0.4645669291338583,
                    "duration": 0.10215049166669132
                },
                {
                    "name": "E3",
                    "midi": 52,
                    "time": 308.96760289999975,
                    "velocity": 0.4094488188976378,
                    "duration": 0.11290317499998537
                },
                {
                    "name": "G3",
                    "midi": 55,
                    "time": 309.1235168083331,
                    "velocity": 0.3543307086614173,
                    "duration": 0.16666659166668296
                },
                {
                    "name": "C4",
                    "midi": 60,
                    "time": 309.32244144999976,
                    "velocity": 0.23622047244094488,
                    "duration": 0.09139780833328359
                },
                {
                    "name": "G3",
                    "midi": 55,
                    "time": 309.44609730833304,
                    "velocity": 0.4015748031496063,
                    "duration": 0.11290317499998537
                },
                {
                    "name": "C3",
                    "midi": 48,
                    "time": 309.639645608333,
                    "velocity": 0.4251968503937008,
                    "duration": 0.3870966000000067
                },
                {
                    "name": "G#3",
                    "midi": 56,
                    "time": 309.81168854166634,
                    "velocity": 0.49606299212598426,
                    "duration": 0.13440854166668714
                },
                {
                    "name": "C4",
                    "midi": 60,
                    "time": 309.9514734249997,
                    "velocity": 0.5118110236220472,
                    "duration": 0.13978488333333416
                },
                {
                    "name": "G#3",
                    "midi": 56,
                    "time": 310.10201099166636,
                    "velocity": 0.5984251968503937,
                    "duration": 0.10215049166669132
                },
                {
                    "name": "F3",
                    "midi": 53,
                    "time": 310.2794302666664,
                    "velocity": 0.4251968503937008,
                    "duration": 0.17204293333332998
                },
                {
                    "name": "G#3",
                    "midi": 56,
                    "time": 310.41921514999973,
                    "velocity": 0.3858267716535433,
                    "duration": 0.13978488333333416
                },
                {
                    "name": "C4",
                    "midi": 60,
                    "time": 310.5858817416664,
                    "velocity": 0.6456692913385826,
                    "duration": 0.1451612249999812
                },
                {
                    "name": "G#3",
                    "midi": 56,
                    "time": 310.74179564999974,
                    "velocity": 0.5118110236220472,
                    "duration": 0.10752683333333835
                },
                {
                    "name": "F3",
                    "midi": 53,
                    "time": 310.9084622416664,
                    "velocity": 0.3937007874015748,
                    "duration": 0.13440854166668714
                },
                {
                    "name": "G#3",
                    "midi": 56,
                    "time": 311.06975249166646,
                    "velocity": 0.5275590551181102,
                    "duration": 0.13440854166668714
                },
                {
                    "name": "C4",
                    "midi": 60,
                    "time": 311.2310427416665,
                    "velocity": 0.4330708661417323,
                    "duration": 0.12903219999998328
                },
                {
                    "name": "G#3",
                    "midi": 56,
                    "time": 311.3762039666665,
                    "velocity": 0.44881889763779526,
                    "duration": 0.09139780833334044
                },
                {
                    "name": "C3",
                    "midi": 48,
                    "time": 311.5482468999998,
                    "velocity": 0.4094488188976378,
                    "duration": 0.13978488333333416
                },
                {
                    "name": "G#3",
                    "midi": 56,
                    "time": 311.7310425166665,
                    "velocity": 0.4094488188976378,
                    "duration": 0.12903219999998328
                },
                {
                    "name": "C4",
                    "midi": 60,
                    "time": 311.89233276666647,
                    "velocity": 0.5748031496062992,
                    "duration": 0.12903219999998328
                },
                {
                    "name": "G#3",
                    "midi": 56,
                    "time": 312.03749399166645,
                    "velocity": 0.5354330708661418,
                    "duration": 0.09139780833334044
                },
                {
                    "name": "F3",
                    "midi": 53,
                    "time": 312.22028960833313,
                    "velocity": 0.3779527559055118,
                    "duration": 0.11827951666668923
                },
                {
                    "name": "G#3",
                    "midi": 56,
                    "time": 312.38157985833317,
                    "velocity": 0.31496062992125984,
                    "duration": 0.10752683333333835
                },
                {
                    "name": "C4",
                    "midi": 60,
                    "time": 312.51061205833315,
                    "velocity": 0.3937007874015748,
                    "duration": 0.12903219999998328
                },
                {
                    "name": "G#3",
                    "midi": 56,
                    "time": 312.65577328333313,
                    "velocity": 0.4015748031496063,
                    "duration": 0.10215049166669132
                },
                {
                    "name": "F3",
                    "midi": 53,
                    "time": 312.8385688999998,
                    "velocity": 0.3937007874015748,
                    "duration": 0.12365585833333625
                },
                {
                    "name": "G#3",
                    "midi": 56,
                    "time": 312.99448280833315,
                    "velocity": 0.5354330708661418,
                    "duration": 0.12365585833333625
                },
                {
                    "name": "C4",
                    "midi": 60,
                    "time": 313.1934074499998,
                    "velocity": 0.4015748031496063,
                    "duration": 0.12903219999998328
                },
                {
                    "name": "G#3",
                    "midi": 56,
                    "time": 313.3224396499998,
                    "velocity": 0.5984251968503937,
                    "duration": 0.10215049166669132
                },
                {
                    "name": "C3",
                    "midi": 48,
                    "time": 313.5213642916665,
                    "velocity": 0.5275590551181102,
                    "duration": 0.41397830833329863
                },
                {
                    "name": "C3",
                    "midi": 48,
                    "time": 313.5697513666665,
                    "velocity": 0.28346456692913385,
                    "duration": 0.5645158749999837
                },
                {
                    "name": "G3",
                    "midi": 55,
                    "time": 313.7417942999998,
                    "velocity": 0.4330708661417323,
                    "duration": 0.15591390833333207
                },
                {
                    "name": "C4",
                    "midi": 60,
                    "time": 313.91383723333314,
                    "velocity": 0.49606299212598426,
                    "duration": 0.1344085416666303
                },
                {
                    "name": "G3",
                    "midi": 55,
                    "time": 314.0589984583331,
                    "velocity": 0.4645669291338583,
                    "duration": 0.09677414999998746
                },
                {
                    "name": "E3",
                    "midi": 52,
                    "time": 314.2579230999998,
                    "velocity": 0.4251968503937008,
                    "duration": 0.1612902499999791
                },
                {
                    "name": "G3",
                    "midi": 55,
                    "time": 314.42996603333313,
                    "velocity": 0.3228346456692913,
                    "duration": 0.13978488333333416
                },
                {
                    "name": "C4",
                    "midi": 60,
                    "time": 314.5751272583331,
                    "velocity": 0.5354330708661418,
                    "duration": 0.1451612249999812
                },
                {
                    "name": "G3",
                    "midi": 55,
                    "time": 314.72566482499974,
                    "velocity": 0.44881889763779526,
                    "duration": 0.08602146666669341
                },
                {
                    "name": "E3",
                    "midi": 52,
                    "time": 314.8869550749998,
                    "velocity": 0.3937007874015748,
                    "duration": 0.12903219999998328
                },
                {
                    "name": "G3",
                    "midi": 55,
                    "time": 315.0589980083331,
                    "velocity": 0.3937007874015748,
                    "duration": 0.11827951666668923
                },
                {
                    "name": "C4",
                    "midi": 60,
                    "time": 315.22028825833314,
                    "velocity": 0.33858267716535434,
                    "duration": 0.12365585833333625
                },
                {
                    "name": "G3",
                    "midi": 55,
                    "time": 315.33856777499983,
                    "velocity": 0.44881889763779526,
                    "duration": 0.08602146666663657
                },
                {
                    "name": "C3",
                    "midi": 48,
                    "time": 315.5159870499998,
                    "velocity": 0.4094488188976378,
                    "duration": 0.15591390833333207
                },
                {
                    "name": "G3",
                    "midi": 55,
                    "time": 315.7095353499998,
                    "velocity": 0.44881889763779526,
                    "duration": 0.12903219999998328
                },
                {
                    "name": "C4",
                    "midi": 60,
                    "time": 315.8600729166664,
                    "velocity": 0.5196850393700787,
                    "duration": 0.11827951666668923
                },
                {
                    "name": "G3",
                    "midi": 55,
                    "time": 315.9783524333331,
                    "velocity": 0.4645669291338583,
                    "duration": 0.08602146666669341
                },
                {
                    "name": "E3",
                    "midi": 52,
                    "time": 316.1450190249998,
                    "velocity": 0.4015748031496063,
                    "duration": 0.11827951666668923
                },
                {
                    "name": "G3",
                    "midi": 55,
                    "time": 316.3170619583331,
                    "velocity": 0.3858267716535433,
                    "duration": 0.12365585833333625
                },
                {
                    "name": "C4",
                    "midi": 60,
                    "time": 316.4622231833331,
                    "velocity": 0.4251968503937008,
                    "duration": 0.11827951666668923
                },
                {
                    "name": "G3",
                    "midi": 55,
                    "time": 316.5805026999998,
                    "velocity": 0.4645669291338583,
                    "duration": 0.10215049166669132
                },
                {
                    "name": "E3",
                    "midi": 52,
                    "time": 316.78480368333317,
                    "velocity": 0.4094488188976378,
                    "duration": 0.11290317499998537
                },
                {
                    "name": "G3",
                    "midi": 55,
                    "time": 316.9407175916665,
                    "velocity": 0.3543307086614173,
                    "duration": 0.16666659166668296
                },
                {
                    "name": "C4",
                    "midi": 60,
                    "time": 317.1396422333332,
                    "velocity": 0.23622047244094488,
                    "duration": 0.09139780833334044
                },
                {
                    "name": "G3",
                    "midi": 55,
                    "time": 317.2632980916665,
                    "velocity": 0.4015748031496063,
                    "duration": 0.11290317499998537
                },
                {
                    "name": "C3",
                    "midi": 48,
                    "time": 317.4568463916665,
                    "velocity": 0.4251968503937008,
                    "duration": 0.3870966000000067
                },
                {
                    "name": "G#3",
                    "midi": 56,
                    "time": 317.6288893249998,
                    "velocity": 0.49606299212598426,
                    "duration": 0.13440854166668714
                },
                {
                    "name": "C4",
                    "midi": 60,
                    "time": 317.76867420833315,
                    "velocity": 0.5118110236220472,
                    "duration": 0.13978488333333416
                },
                {
                    "name": "G#3",
                    "midi": 56,
                    "time": 317.91921177499984,
                    "velocity": 0.5984251968503937,
                    "duration": 0.10215049166669132
                },
                {
                    "name": "F3",
                    "midi": 53,
                    "time": 318.09663104999987,
                    "velocity": 0.4251968503937008,
                    "duration": 0.17204293333332998
                },
                {
                    "name": "G#3",
                    "midi": 56,
                    "time": 318.2364159333332,
                    "velocity": 0.3858267716535433,
                    "duration": 0.13978488333333416
                },
                {
                    "name": "C4",
                    "midi": 60,
                    "time": 318.4030825249999,
                    "velocity": 0.6456692913385826,
                    "duration": 0.1451612249999812
                },
                {
                    "name": "G#3",
                    "midi": 56,
                    "time": 318.5589964333332,
                    "velocity": 0.5118110236220472,
                    "duration": 0.10752683333333835
                },
                {
                    "name": "F3",
                    "midi": 53,
                    "time": 318.7256630249999,
                    "velocity": 0.3937007874015748,
                    "duration": 0.13440854166668714
                },
                {
                    "name": "G#3",
                    "midi": 56,
                    "time": 318.88695327499994,
                    "velocity": 0.5275590551181102,
                    "duration": 0.13440854166668714
                },
                {
                    "name": "C4",
                    "midi": 60,
                    "time": 319.048243525,
                    "velocity": 0.4330708661417323,
                    "duration": 0.12903219999998328
                },
                {
                    "name": "G#3",
                    "midi": 56,
                    "time": 319.19340474999996,
                    "velocity": 0.44881889763779526,
                    "duration": 0.09139780833334044
                },
                {
                    "name": "C3",
                    "midi": 48,
                    "time": 319.3654476833333,
                    "velocity": 0.4094488188976378,
                    "duration": 0.13978488333333416
                },
                {
                    "name": "G#3",
                    "midi": 56,
                    "time": 319.54824329999997,
                    "velocity": 0.4094488188976378,
                    "duration": 0.12903219999998328
                },
                {
                    "name": "C4",
                    "midi": 60,
                    "time": 319.70953354999995,
                    "velocity": 0.5748031496062992,
                    "duration": 0.12903219999998328
                },
                {
                    "name": "G#3",
                    "midi": 56,
                    "time": 319.8546947749999,
                    "velocity": 0.5354330708661418,
                    "duration": 0.09139780833334044
                },
                {
                    "name": "F3",
                    "midi": 53,
                    "time": 320.0374903916666,
                    "velocity": 0.3779527559055118,
                    "duration": 0.11827951666668923
                },
                {
                    "name": "G#3",
                    "midi": 56,
                    "time": 320.19878064166664,
                    "velocity": 0.31496062992125984,
                    "duration": 0.10752683333333835
                },
                {
                    "name": "C4",
                    "midi": 60,
                    "time": 320.3278128416666,
                    "velocity": 0.3937007874015748,
                    "duration": 0.12903219999998328
                },
                {
                    "name": "G#3",
                    "midi": 56,
                    "time": 320.4729740666666,
                    "velocity": 0.4015748031496063,
                    "duration": 0.10215049166669132
                },
                {
                    "name": "F3",
                    "midi": 53,
                    "time": 320.6557696833333,
                    "velocity": 0.3937007874015748,
                    "duration": 0.12365585833333625
                },
                {
                    "name": "G#3",
                    "midi": 56,
                    "time": 320.8116835916666,
                    "velocity": 0.5354330708661418,
                    "duration": 0.12365585833333625
                },
                {
                    "name": "C4",
                    "midi": 60,
                    "time": 321.0106082333333,
                    "velocity": 0.4015748031496063,
                    "duration": 0.12903219999998328
                },
                {
                    "name": "G#3",
                    "midi": 56,
                    "time": 321.1396404333333,
                    "velocity": 0.5984251968503937,
                    "duration": 0.10215049166669132
                },
                {
                    "name": "C3",
                    "midi": 48,
                    "time": 321.33856507499996,
                    "velocity": 0.5826771653543307,
                    "duration": 1.7580637249998858
                },
                {
                    "name": "C4",
                    "midi": 60,
                    "time": 321.98910241666664,
                    "velocity": 0.4330708661417323,
                    "duration": 0.46236538333329236
                },
                {
                    "name": "E3",
                    "midi": 52,
                    "time": 321.98910241666664,
                    "velocity": 0.47244094488188976,
                    "duration": 0.47311806666664324
                },
                {
                    "name": "G3",
                    "midi": 55,
                    "time": 321.9944787583333,
                    "velocity": 0.4015748031496063,
                    "duration": 0.47311806666664324
                },
                {
                    "name": "E3",
                    "midi": 52,
                    "time": 322.62351073333326,
                    "velocity": 0.5354330708661418,
                    "duration": 0.37634391666659894
                },
                {
                    "name": "C4",
                    "midi": 60,
                    "time": 322.62351073333326,
                    "velocity": 0.6377952755905512,
                    "duration": 0.31720415833331117
                },
                {
                    "name": "G3",
                    "midi": 55,
                    "time": 322.62351073333326,
                    "velocity": 0.5984251968503937,
                    "duration": 0.3709675749999519
                },
                {
                    "name": "E3",
                    "midi": 52,
                    "time": 323.27942441666653,
                    "velocity": 0.5196850393700787,
                    "duration": 0.849461983333299
                },
                {
                    "name": "C4",
                    "midi": 60,
                    "time": 323.27942441666653,
                    "velocity": 0.6692913385826772,
                    "duration": 0.8333329583333011
                },
                {
                    "name": "G3",
                    "midi": 55,
                    "time": 323.27942441666653,
                    "velocity": 0.6062992125984252,
                    "duration": 0.844085641666652
                },
                {
                    "name": "C3",
                    "midi": 48,
                    "time": 323.2848007583332,
                    "velocity": 0.4015748031496063,
                    "duration": 0.849461983333299
                },
                {
                    "name": "C3",
                    "midi": 48,
                    "time": 325.23641278333315,
                    "velocity": 0.4251968503937008,
                    "duration": 1.5913971333332029
                },
                {
                    "name": "E3",
                    "midi": 52,
                    "time": 325.8116813416665,
                    "velocity": 0.47244094488188976,
                    "duration": 0.47849440833329027
                },
                {
                    "name": "C4",
                    "midi": 60,
                    "time": 325.8116813416665,
                    "velocity": 0.5354330708661418,
                    "duration": 0.45698904166664533
                },
                {
                    "name": "G3",
                    "midi": 55,
                    "time": 325.8116813416665,
                    "velocity": 0.4645669291338583,
                    "duration": 0.47849440833329027
                },
                {
                    "name": "E3",
                    "midi": 52,
                    "time": 326.4622186833331,
                    "velocity": 0.5118110236220472,
                    "duration": 0.33333318333325224
                },
                {
                    "name": "G3",
                    "midi": 55,
                    "time": 326.4622186833331,
                    "velocity": 0.5905511811023622,
                    "duration": 0.3279568416666052
                },
                {
                    "name": "C4",
                    "midi": 60,
                    "time": 326.46759502499975,
                    "velocity": 0.6299212598425197,
                    "duration": 0.2903224499999624
                },
                {
                    "name": "C3",
                    "midi": 48,
                    "time": 327.11275602499967,
                    "velocity": 0.41732283464566927,
                    "duration": 0.661290025000028
                },
                {
                    "name": "G3",
                    "midi": 55,
                    "time": 327.11275602499967,
                    "velocity": 0.5748031496062992,
                    "duration": 0.661290025000028
                },
                {
                    "name": "C4",
                    "midi": 60,
                    "time": 327.11275602499967,
                    "velocity": 0.6062992125984252,
                    "duration": 0.6505373416666771
                },
                {
                    "name": "E3",
                    "midi": 52,
                    "time": 327.11275602499967,
                    "velocity": 0.5354330708661418,
                    "duration": 0.661290025000028
                },
                {
                    "name": "C4",
                    "midi": 60,
                    "time": 328.97297024166636,
                    "velocity": 0.49606299212598426,
                    "duration": 0.37096757500000876
                },
                {
                    "name": "G3",
                    "midi": 55,
                    "time": 328.97297024166636,
                    "velocity": 0.4251968503937008,
                    "duration": 0.3924729416666537
                },
                {
                    "name": "E3",
                    "midi": 52,
                    "time": 328.97297024166636,
                    "velocity": 0.41732283464566927,
                    "duration": 0.3924729416666537
                },
                {
                    "name": "C3",
                    "midi": 48,
                    "time": 328.9837229249997,
                    "velocity": 0.47244094488188976,
                    "duration": 0.40322562499994774
                },
                {
                    "name": "E3",
                    "midi": 52,
                    "time": 330.90845324166634,
                    "velocity": 0.4881889763779528,
                    "duration": 0.4946234333332882
                },
                {
                    "name": "G3",
                    "midi": 55,
                    "time": 330.913829583333,
                    "velocity": 0.5275590551181102,
                    "duration": 0.49999977499999204
                },
                {
                    "name": "C4",
                    "midi": 60,
                    "time": 330.913829583333,
                    "velocity": 0.5669291338582677,
                    "duration": 0.45698904166664533
                },
                {
                    "name": "C3",
                    "midi": 48,
                    "time": 330.91920592499963,
                    "velocity": 0.4645669291338583,
                    "duration": 0.49999977499999204
                },
                {
                    "name": "C4",
                    "midi": 60,
                    "time": 332.8170545333329,
                    "velocity": 0.6771653543307087,
                    "duration": 0.5698922166666875
                },
                {
                    "name": "G3",
                    "midi": 55,
                    "time": 332.8170545333329,
                    "velocity": 0.5433070866141733,
                    "duration": 0.5967739250000363
                },
                {
                    "name": "E4",
                    "midi": 64,
                    "time": 332.82243087499955,
                    "velocity": 0.5669291338582677,
                    "duration": 0.5376341666666917
                },
                {
                    "name": "C3",
                    "midi": 48,
                    "time": 332.8331835583329,
                    "velocity": 0.5196850393700787,
                    "duration": 0.6236556333333851
                },
                {
                    "name": "G2",
                    "midi": 43,
                    "time": 334.08587116666627,
                    "velocity": 0.6771653543307087,
                    "duration": 0.2526880583333764
                },
                {
                    "name": "F4",
                    "midi": 65,
                    "time": 334.0966238499996,
                    "velocity": 0.5590551181102362,
                    "duration": 0.2150536666666767
                },
                {
                    "name": "B3",
                    "midi": 59,
                    "time": 334.0966238499996,
                    "velocity": 0.6456692913385826,
                    "duration": 0.2688170833333743
                },
                {
                    "name": "G3",
                    "midi": 55,
                    "time": 334.0966238499996,
                    "velocity": 0.6220472440944882,
                    "duration": 0.3064514750000171
                },
                {
                    "name": "C3",
                    "midi": 48,
                    "time": 334.752537533333,
                    "velocity": 0.41732283464566927,
                    "duration": 0.6881717333333199
                },
                {
                    "name": "E4",
                    "midi": 64,
                    "time": 334.752537533333,
                    "velocity": 0.5354330708661418,
                    "duration": 0.6236556333333283
                },
                {
                    "name": "G3",
                    "midi": 55,
                    "time": 334.75791387499964,
                    "velocity": 0.5118110236220472,
                    "duration": 0.7741932000000133
                },
                {
                    "name": "C4",
                    "midi": 60,
                    "time": 334.75791387499964,
                    "velocity": 0.5748031496062992,
                    "duration": 0.6290319750000322
                },
                {
                    "name": "B3",
                    "midi": 59,
                    "time": 334.75791387499964,
                    "velocity": 0.5748031496062992,
                    "duration": 0.2741934250000213
                },
                {
                    "name": "G2",
                    "midi": 43,
                    "time": 336.05361221666635,
                    "velocity": 0.49606299212598426,
                    "duration": 0.19892464166662194
                },
                {
                    "name": "G3",
                    "midi": 55,
                    "time": 336.06974124166635,
                    "velocity": 0.5275590551181102,
                    "duration": 0.23655903333326478
                },
                {
                    "name": "B3",
                    "midi": 59,
                    "time": 336.06974124166635,
                    "velocity": 0.6456692913385826,
                    "duration": 0.18279561666662403
                },
                {
                    "name": "F4",
                    "midi": 65,
                    "time": 336.06974124166635,
                    "velocity": 0.6062992125984252,
                    "duration": 0.177419274999977
                },
                {
                    "name": "C3",
                    "midi": 48,
                    "time": 336.688020533333,
                    "velocity": 0.4645669291338583,
                    "duration": 0.6827953916666161
                },
                {
                    "name": "E4",
                    "midi": 64,
                    "time": 336.6933968749996,
                    "velocity": 0.7244094488188977,
                    "duration": 0.5913975833333325
                },
                {
                    "name": "G3",
                    "midi": 55,
                    "time": 336.6933968749996,
                    "velocity": 0.5748031496062992,
                    "duration": 0.6344083166666223
                },
                {
                    "name": "C4",
                    "midi": 60,
                    "time": 336.6933968749996,
                    "velocity": 0.7480314960629921,
                    "duration": 0.6290319749999753
                },
                {
                    "name": "G2",
                    "midi": 43,
                    "time": 337.98909521666627,
                    "velocity": 0.6614173228346457,
                    "duration": 0.19354830000003176
                },
                {
                    "name": "B3",
                    "midi": 59,
                    "time": 337.9998478999996,
                    "velocity": 0.7795275590551181,
                    "duration": 0.18279561666668087
                },
                {
                    "name": "F4",
                    "midi": 65,
                    "time": 337.9998478999996,
                    "velocity": 0.7244094488188977,
                    "duration": 0.17204293333332998
                },
                {
                    "name": "G3",
                    "midi": 55,
                    "time": 337.9998478999996,
                    "velocity": 0.7007874015748031,
                    "duration": 0.4677417249999962
                },
                {
                    "name": "C3",
                    "midi": 48,
                    "time": 338.5966218249996,
                    "velocity": 0.6299212598425197,
                    "duration": 0.7150534416666687
                },
                {
                    "name": "E4",
                    "midi": 64,
                    "time": 338.60737450833295,
                    "velocity": 0.7716535433070866,
                    "duration": 0.677419049999969
                },
                {
                    "name": "G3",
                    "midi": 55,
                    "time": 338.60737450833295,
                    "velocity": 0.6692913385826772,
                    "duration": 1.0806446749999736
                },
                {
                    "name": "C4",
                    "midi": 60,
                    "time": 338.60737450833295,
                    "velocity": 0.7559055118110236,
                    "duration": 0.6881717333333199
                },
                {
                    "name": "G2",
                    "midi": 43,
                    "time": 339.9030728499996,
                    "velocity": 0.6692913385826772,
                    "duration": 0.20967732499997283
                },
                {
                    "name": "G3",
                    "midi": 55,
                    "time": 339.90844919166625,
                    "velocity": 0.7086614173228346,
                    "duration": 0.23655903333332162
                },
                {
                    "name": "B3",
                    "midi": 59,
                    "time": 339.9138255333329,
                    "velocity": 0.84251968503937,
                    "duration": 0.20967732500002967
                },
                {
                    "name": "F4",
                    "midi": 65,
                    "time": 339.9138255333329,
                    "velocity": 0.7716535433070866,
                    "duration": 0.16666659166668296
                },
                {
                    "name": "C3",
                    "midi": 48,
                    "time": 340.52672848333293,
                    "velocity": 0.6062992125984252,
                    "duration": 0.532257824999931
                },
                {
                    "name": "G3",
                    "midi": 55,
                    "time": 340.5321048249996,
                    "velocity": 0.7716535433070866,
                    "duration": 0.4946234333332882
                },
                {
                    "name": "E4",
                    "midi": 64,
                    "time": 340.5321048249996,
                    "velocity": 0.84251968503937,
                    "duration": 0.47311806666664324
                },
                {
                    "name": "C4",
                    "midi": 60,
                    "time": 340.5321048249996,
                    "velocity": 0.9291338582677166,
                    "duration": 0.4946234333332882
                },
                {
                    "name": "G2",
                    "midi": 43,
                    "time": 342.42995343333286,
                    "velocity": 0.29133858267716534,
                    "duration": 0.8763436916667047
                },
                {
                    "name": "G3",
                    "midi": 55,
                    "time": 342.42995343333286,
                    "velocity": 0.41732283464566927,
                    "duration": 0.8494619833333559
                },
                {
                    "name": "B3",
                    "midi": 59,
                    "time": 342.4568351416662,
                    "velocity": 0.6456692913385826,
                    "duration": 0.8225802750000071
                },
                {
                    "name": "B2",
                    "midi": 47,
                    "time": 342.4568351416662,
                    "velocity": 0.5196850393700787,
                    "duration": 0.8494619833333559
                },
                {
                    "name": "D3",
                    "midi": 50,
                    "time": 342.5213512416662,
                    "velocity": 0.14173228346456693,
                    "duration": 0.7903222250000113
                },
                {
                    "name": "F4",
                    "midi": 65,
                    "time": 342.53210392499955,
                    "velocity": 0.6220472440944882,
                    "duration": 0.7419351500000175
                },
                {
                    "name": "E4",
                    "midi": 64,
                    "time": 344.4783396083329,
                    "velocity": 0.7322834645669292,
                    "duration": 0.5967739249999795
                },
                {
                    "name": "C4",
                    "midi": 60,
                    "time": 344.4837159499995,
                    "velocity": 0.6771653543307087,
                    "duration": 0.5913975833333325
                },
                {
                    "name": "G3",
                    "midi": 55,
                    "time": 344.4837159499995,
                    "velocity": 0.5748031496062992,
                    "duration": 0.5913975833333325
                },
                {
                    "name": "C3",
                    "midi": 48,
                    "time": 344.4998449749995,
                    "velocity": 0.5039370078740157,
                    "duration": 0.5752685583333346
                },
                {
                    "name": "E3",
                    "midi": 52,
                    "time": 344.50522131666617,
                    "velocity": 0.47244094488188976,
                    "duration": 0.5698922166666875
                }
            ],
            "controlChanges": {
                "7": [
                    {
                        "number": 7,
                        "time": 3.0483857249999997,
                        "value": 0.6850393700787402
                    },
                    {
                        "number": 7,
                        "time": 5.12902995,
                        "value": 0.7244094488188977
                    },
                    {
                        "number": 7,
                        "time": 5.301072883333333,
                        "value": 0.7559055118110236
                    },
                    {
                        "number": 7,
                        "time": 64.49459463333338,
                        "value": 0.7007874015748031
                    },
                    {
                        "number": 7,
                        "time": 102.91930852499993,
                        "value": 0.6929133858267716
                    },
                    {
                        "number": 7,
                        "time": 103.67737269999994,
                        "value": 0.6614173228346457
                    },
                    {
                        "number": 7,
                        "time": 107.94618798333325,
                        "value": 0.6771653543307087
                    },
                    {
                        "number": 7,
                        "time": 112.41392790833325,
                        "value": 0.6850393700787402
                    },
                    {
                        "number": 7,
                        "time": 120.29026844999991,
                        "value": 0.6929133858267716
                    },
                    {
                        "number": 7,
                        "time": 120.44080601666657,
                        "value": 0.7165354330708661
                    },
                    {
                        "number": 7,
                        "time": 120.72037578333324,
                        "value": 0.7322834645669292
                    },
                    {
                        "number": 7,
                        "time": 121.65048289166656,
                        "value": 0.7795275590551181
                    },
                    {
                        "number": 7,
                        "time": 122.46768682499989,
                        "value": 0.7952755905511811
                    },
                    {
                        "number": 7,
                        "time": 127.66660921666656,
                        "value": 0.6692913385826772
                    },
                    {
                        "number": 7,
                        "time": 128.2418777749999,
                        "value": 0.6456692913385826
                    },
                    {
                        "number": 7,
                        "time": 128.40316802499993,
                        "value": 0.6377952755905512
                    },
                    {
                        "number": 7,
                        "time": 130.25262955833327,
                        "value": 0.6692913385826772
                    },
                    {
                        "number": 7,
                        "time": 143.1827312666666,
                        "value": 0.6771653543307087
                    },
                    {
                        "number": 7,
                        "time": 143.25800004999994,
                        "value": 0.6850393700787402
                    },
                    {
                        "number": 7,
                        "time": 150.85477082499997,
                        "value": 0.6929133858267716
                    },
                    {
                        "number": 7,
                        "time": 151.19885669166663,
                        "value": 0.6692913385826772
                    },
                    {
                        "number": 7,
                        "time": 151.55369524166665,
                        "value": 0.6456692913385826
                    },
                    {
                        "number": 7,
                        "time": 164.47304426666665,
                        "value": 0.6771653543307087
                    },
                    {
                        "number": 7,
                        "time": 164.63433451666666,
                        "value": 0.6929133858267716
                    },
                    {
                        "number": 7,
                        "time": 166.10207579166664,
                        "value": 0.7165354330708661
                    },
                    {
                        "number": 7,
                        "time": 181.58056345,
                        "value": 0.7637795275590551
                    },
                    {
                        "number": 7,
                        "time": 185.55367994166673,
                        "value": 0.7559055118110236
                    },
                    {
                        "number": 7,
                        "time": 186.08056142500007,
                        "value": 0.7086614173228346
                    },
                    {
                        "number": 7,
                        "time": 186.30099143333342,
                        "value": 0.6929133858267716
                    },
                    {
                        "number": 7,
                        "time": 186.55905583333342,
                        "value": 0.6614173228346457
                    },
                    {
                        "number": 7,
                        "time": 186.7902385250001,
                        "value": 0.6535433070866141
                    },
                    {
                        "number": 7,
                        "time": 191.44077406666676,
                        "value": 0.6377952755905512
                    },
                    {
                        "number": 7,
                        "time": 191.5644299250001,
                        "value": 0.6299212598425197
                    },
                    {
                        "number": 7,
                        "time": 196.9730296416667,
                        "value": 0.6456692913385826
                    },
                    {
                        "number": 7,
                        "time": 218.98377242500013,
                        "value": 0.6850393700787402
                    },
                    {
                        "number": 7,
                        "time": 219.3117292666668,
                        "value": 0.7322834645669292
                    },
                    {
                        "number": 7,
                        "time": 219.5214065916668,
                        "value": 0.7637795275590551
                    },
                    {
                        "number": 7,
                        "time": 219.72033123333344,
                        "value": 0.7716535433070866
                    },
                    {
                        "number": 7,
                        "time": 220.16119125000012,
                        "value": 0.7795275590551181
                    },
                    {
                        "number": 7,
                        "time": 220.26871808333345,
                        "value": 0.7874015748031497
                    },
                    {
                        "number": 7,
                        "time": 226.08054342500014,
                        "value": 0.7952755905511811
                    },
                    {
                        "number": 7,
                        "time": 228.28484350833344,
                        "value": 0.7007874015748031
                    },
                    {
                        "number": 7,
                        "time": 244.15042776666684,
                        "value": 0.7165354330708661
                    },
                    {
                        "number": 7,
                        "time": 244.23644923333347,
                        "value": 0.7401574803149606
                    },
                    {
                        "number": 7,
                        "time": 255.88698162500006,
                        "value": 0.7559055118110236
                    },
                    {
                        "number": 7,
                        "time": 255.9622504083334,
                        "value": 0.7637795275590551
                    },
                    {
                        "number": 7,
                        "time": 257.51601315000005,
                        "value": 0.7716535433070866
                    },
                    {
                        "number": 7,
                        "time": 257.56440022500004,
                        "value": 0.7795275590551181
                    },
                    {
                        "number": 7,
                        "time": 259.0052597916667,
                        "value": 0.7874015748031497
                    },
                    {
                        "number": 7,
                        "time": 287.4407308666665,
                        "value": 0.7952755905511811
                    },
                    {
                        "number": 7,
                        "time": 287.5536340416665,
                        "value": 0.8110236220472441
                    },
                    {
                        "number": 7,
                        "time": 287.6289028249998,
                        "value": 0.8188976377952756
                    },
                    {
                        "number": 7,
                        "time": 288.8009453083331,
                        "value": 0.8267716535433071
                    },
                    {
                        "number": 7,
                        "time": 289.3009450833331,
                        "value": 0.84251968503937
                    },
                    {
                        "number": 7,
                        "time": 289.4407299666664,
                        "value": 0.8503937007874016
                    },
                    {
                        "number": 7,
                        "time": 289.56976216666646,
                        "value": 0.8582677165354331
                    },
                    {
                        "number": 7,
                        "time": 291.41922369999986,
                        "value": 0.84251968503937
                    },
                    {
                        "number": 7,
                        "time": 291.58051394999984,
                        "value": 0.8267716535433071
                    },
                    {
                        "number": 7,
                        "time": 291.6880407833332,
                        "value": 0.8188976377952756
                    },
                    {
                        "number": 7,
                        "time": 297.73104881666666,
                        "value": 0.7637795275590551
                    },
                    {
                        "number": 7,
                        "time": 298.01599492500003,
                        "value": 0.7480314960629921
                    },
                    {
                        "number": 7,
                        "time": 305.56437862499985,
                        "value": 0.7401574803149606
                    },
                    {
                        "number": 7,
                        "time": 305.9084644916665,
                        "value": 0.7322834645669292
                    },
                    {
                        "number": 7,
                        "time": 306.0536257166665,
                        "value": 0.6614173228346457
                    },
                    {
                        "number": 7,
                        "time": 306.19878694166647,
                        "value": 0.6377952755905512
                    },
                    {
                        "number": 7,
                        "time": 306.40846426666644,
                        "value": 0.5826771653543307
                    },
                    {
                        "number": 7,
                        "time": 306.6020125666664,
                        "value": 0.5669291338582677
                    },
                    {
                        "number": 7,
                        "time": 306.71491574166646,
                        "value": 0.5511811023622047
                    },
                    {
                        "number": 7,
                        "time": 306.8493242833331,
                        "value": 0.5354330708661418
                    },
                    {
                        "number": 7,
                        "time": 307.01061453333307,
                        "value": 0.5196850393700787
                    },
                    {
                        "number": 7,
                        "time": 307.22566819999975,
                        "value": 0.4881889763779528
                    },
                    {
                        "number": 7,
                        "time": 307.2794316166664,
                        "value": 0.48031496062992124
                    },
                    {
                        "number": 7,
                        "time": 307.46222723333307,
                        "value": 0.47244094488188976
                    },
                    {
                        "number": 7,
                        "time": 307.5482486999997,
                        "value": 0.4645669291338583
                    },
                    {
                        "number": 7,
                        "time": 307.7794313916664,
                        "value": 0.4566929133858268
                    },
                    {
                        "number": 7,
                        "time": 307.98910871666635,
                        "value": 0.44881889763779526
                    },
                    {
                        "number": 7,
                        "time": 309.2955597416664,
                        "value": 0.47244094488188976
                    },
                    {
                        "number": 7,
                        "time": 309.3439468166664,
                        "value": 0.48031496062992124
                    },
                    {
                        "number": 7,
                        "time": 309.5536241416664,
                        "value": 0.49606299212598426
                    },
                    {
                        "number": 7,
                        "time": 316.9568466166665,
                        "value": 0.4881889763779528
                    },
                    {
                        "number": 7,
                        "time": 326.3654445333331,
                        "value": 0.5039370078740157
                    },
                    {
                        "number": 7,
                        "time": 326.59662722499974,
                        "value": 0.5118110236220472
                    },
                    {
                        "number": 7,
                        "time": 327.4514655499997,
                        "value": 0.5275590551181102
                    },
                    {
                        "number": 7,
                        "time": 328.897701458333,
                        "value": 0.5905511811023622
                    },
                    {
                        "number": 7,
                        "time": 330.84393714166634,
                        "value": 0.7007874015748031
                    },
                    {
                        "number": 7,
                        "time": 332.18802255833293,
                        "value": 0.7637795275590551
                    },
                    {
                        "number": 7,
                        "time": 334.0482367749996,
                        "value": 0.7716535433070866
                    },
                    {
                        "number": 7,
                        "time": 334.413828008333,
                        "value": 0.8110236220472441
                    },
                    {
                        "number": 7,
                        "time": 337.9407081416663,
                        "value": 0.8503937007874016
                    },
                    {
                        "number": 7,
                        "time": 338.5159766999996,
                        "value": 0.8582677165354331
                    },
                    {
                        "number": 7,
                        "time": 338.73640670833294,
                        "value": 0.8740157480314961
                    },
                    {
                        "number": 7,
                        "time": 341.97834073333286,
                        "value": 0.952755905511811
                    },
                    {
                        "number": 7,
                        "time": 342.7471575916662,
                        "value": 0.9763779527559056
                    }
                ],
                "10": [
                    {
                        "number": 10,
                        "time": 0,
                        "value": 0.5039370078740157
                    },
                    {
                        "number": 10,
                        "time": 0,
                        "value": 0.8110236220472441
                    }
                ],
                "64": [
                    {
                        "number": 64,
                        "time": 3.2741920749999998,
                        "value": 1
                    },
                    {
                        "number": 64,
                        "time": 11.569887266666665,
                        "value": 0
                    },
                    {
                        "number": 64,
                        "time": 11.827951666666666,
                        "value": 1
                    },
                    {
                        "number": 64,
                        "time": 15.349455458333328,
                        "value": 0
                    },
                    {
                        "number": 64,
                        "time": 15.54300375833333,
                        "value": 1
                    },
                    {
                        "number": 64,
                        "time": 19.32794829166666,
                        "value": 0
                    },
                    {
                        "number": 64,
                        "time": 19.413969758333327,
                        "value": 1
                    },
                    {
                        "number": 64,
                        "time": 26.887084675,
                        "value": 0
                    },
                    {
                        "number": 64,
                        "time": 27.107514683333335,
                        "value": 1
                    },
                    {
                        "number": 64,
                        "time": 38.569875116666694,
                        "value": 0
                    },
                    {
                        "number": 64,
                        "time": 38.85482122500002,
                        "value": 1
                    },
                    {
                        "number": 64,
                        "time": 40.973099841666695,
                        "value": 0
                    },
                    {
                        "number": 64,
                        "time": 42.89783015833336,
                        "value": 1
                    },
                    {
                        "number": 64,
                        "time": 44.53761436666669,
                        "value": 0
                    },
                    {
                        "number": 64,
                        "time": 44.80105510833336,
                        "value": 1
                    },
                    {
                        "number": 64,
                        "time": 46.35481785000002,
                        "value": 0
                    },
                    {
                        "number": 64,
                        "time": 46.59137688333335,
                        "value": 1
                    },
                    {
                        "number": 64,
                        "time": 48.71503184166669,
                        "value": 0
                    },
                    {
                        "number": 64,
                        "time": 51.60750365833336,
                        "value": 1
                    },
                    {
                        "number": 64,
                        "time": 51.80105195833335,
                        "value": 0
                    },
                    {
                        "number": 64,
                        "time": 66.15050786666671,
                        "value": 1
                    },
                    {
                        "number": 64,
                        "time": 73.45157985,
                        "value": 0
                    },
                    {
                        "number": 64,
                        "time": 73.50534326666667,
                        "value": 0
                    },
                    {
                        "number": 64,
                        "time": 73.76340766666667,
                        "value": 1
                    },
                    {
                        "number": 64,
                        "time": 77.28491145833333,
                        "value": 0
                    },
                    {
                        "number": 64,
                        "time": 77.47845975833332,
                        "value": 1
                    },
                    {
                        "number": 64,
                        "time": 81.26340429166663,
                        "value": 0
                    },
                    {
                        "number": 64,
                        "time": 81.3494257583333,
                        "value": 1
                    },
                    {
                        "number": 64,
                        "time": 88.82254067499997,
                        "value": 0
                    },
                    {
                        "number": 64,
                        "time": 89.0429706833333,
                        "value": 1
                    },
                    {
                        "number": 64,
                        "time": 100.50533111666661,
                        "value": 0
                    },
                    {
                        "number": 64,
                        "time": 100.79027722499994,
                        "value": 1
                    },
                    {
                        "number": 64,
                        "time": 102.9085558416666,
                        "value": 0
                    },
                    {
                        "number": 64,
                        "time": 104.83328615833327,
                        "value": 1
                    },
                    {
                        "number": 64,
                        "time": 106.47307036666659,
                        "value": 0
                    },
                    {
                        "number": 64,
                        "time": 106.73651110833325,
                        "value": 1
                    },
                    {
                        "number": 64,
                        "time": 108.2902738499999,
                        "value": 0
                    },
                    {
                        "number": 64,
                        "time": 108.52683288333323,
                        "value": 1
                    },
                    {
                        "number": 64,
                        "time": 110.65048784166657,
                        "value": 0
                    },
                    {
                        "number": 64,
                        "time": 113.54295965833325,
                        "value": 1
                    },
                    {
                        "number": 64,
                        "time": 113.73650795833323,
                        "value": 0
                    },
                    {
                        "number": 64,
                        "time": 127.62897482499989,
                        "value": 1
                    },
                    {
                        "number": 64,
                        "time": 128.4569314416666,
                        "value": 0
                    },
                    {
                        "number": 64,
                        "time": 129.26875903333325,
                        "value": 1
                    },
                    {
                        "number": 64,
                        "time": 130.42467249166657,
                        "value": 0
                    },
                    {
                        "number": 64,
                        "time": 131.4515537499999,
                        "value": 1
                    },
                    {
                        "number": 64,
                        "time": 132.45692964166653,
                        "value": 0
                    },
                    {
                        "number": 64,
                        "time": 133.29026259999986,
                        "value": 1
                    },
                    {
                        "number": 64,
                        "time": 134.4461760583332,
                        "value": 0
                    },
                    {
                        "number": 64,
                        "time": 135.25800364999986,
                        "value": 0
                    },
                    {
                        "number": 64,
                        "time": 135.47843365833322,
                        "value": 1
                    },
                    {
                        "number": 64,
                        "time": 142.3440219666666,
                        "value": 0
                    },
                    {
                        "number": 64,
                        "time": 142.93541954999992,
                        "value": 1
                    },
                    {
                        "number": 64,
                        "time": 144.29025764999992,
                        "value": 0
                    },
                    {
                        "number": 64,
                        "time": 144.75262303333324,
                        "value": 1
                    },
                    {
                        "number": 64,
                        "time": 146.2364933333333,
                        "value": 0
                    },
                    {
                        "number": 64,
                        "time": 146.58595554166664,
                        "value": 1
                    },
                    {
                        "number": 64,
                        "time": 148.16122364999998,
                        "value": 0
                    },
                    {
                        "number": 64,
                        "time": 148.66122342499997,
                        "value": 1
                    },
                    {
                        "number": 64,
                        "time": 149.95154542499998,
                        "value": 0
                    },
                    {
                        "number": 64,
                        "time": 150.3493947083333,
                        "value": 1
                    },
                    {
                        "number": 64,
                        "time": 158.62358453333331,
                        "value": 1
                    },
                    {
                        "number": 64,
                        "time": 162.52680858333332,
                        "value": 0
                    },
                    {
                        "number": 64,
                        "time": 162.90315249999998,
                        "value": 1
                    },
                    {
                        "number": 64,
                        "time": 164.757990375,
                        "value": 0
                    },
                    {
                        "number": 64,
                        "time": 166.35476384999996,
                        "value": 1
                    },
                    {
                        "number": 64,
                        "time": 170.2687405833333,
                        "value": 0
                    },
                    {
                        "number": 64,
                        "time": 170.53218132499998,
                        "value": 1
                    },
                    {
                        "number": 64,
                        "time": 172.2364816333333,
                        "value": 0
                    },
                    {
                        "number": 64,
                        "time": 174.0751904833333,
                        "value": 1
                    },
                    {
                        "number": 64,
                        "time": 177.0698127916667,
                        "value": 0
                    },
                    {
                        "number": 64,
                        "time": 178.77411310000002,
                        "value": 1
                    },
                    {
                        "number": 64,
                        "time": 178.99454310833335,
                        "value": 0
                    },
                    {
                        "number": 64,
                        "time": 181.60206881666667,
                        "value": 1
                    },
                    {
                        "number": 64,
                        "time": 183.79561621666673,
                        "value": 1
                    },
                    {
                        "number": 64,
                        "time": 185.75798092500006,
                        "value": 0
                    },
                    {
                        "number": 64,
                        "time": 186.10744313333342,
                        "value": 1
                    },
                    {
                        "number": 64,
                        "time": 187.87625954166677,
                        "value": 0
                    },
                    {
                        "number": 64,
                        "time": 190.39238744166678,
                        "value": 0
                    },
                    {
                        "number": 64,
                        "time": 191.20421503333344,
                        "value": 1
                    },
                    {
                        "number": 64,
                        "time": 192.36012849166673,
                        "value": 0
                    },
                    {
                        "number": 64,
                        "time": 193.38700975000006,
                        "value": 1
                    },
                    {
                        "number": 64,
                        "time": 194.3923856416667,
                        "value": 0
                    },
                    {
                        "number": 64,
                        "time": 195.22571860000002,
                        "value": 1
                    },
                    {
                        "number": 64,
                        "time": 196.38163205833337,
                        "value": 0
                    },
                    {
                        "number": 64,
                        "time": 197.19345965000002,
                        "value": 0
                    },
                    {
                        "number": 64,
                        "time": 197.41388965833337,
                        "value": 1
                    },
                    {
                        "number": 64,
                        "time": 204.27947796666675,
                        "value": 0
                    },
                    {
                        "number": 64,
                        "time": 204.61281115000008,
                        "value": 0
                    },
                    {
                        "number": 64,
                        "time": 204.87087555000008,
                        "value": 1
                    },
                    {
                        "number": 64,
                        "time": 206.22571365000007,
                        "value": 0
                    },
                    {
                        "number": 64,
                        "time": 206.6880790333334,
                        "value": 1
                    },
                    {
                        "number": 64,
                        "time": 208.17194933333346,
                        "value": 0
                    },
                    {
                        "number": 64,
                        "time": 208.5214115416668,
                        "value": 1
                    },
                    {
                        "number": 64,
                        "time": 210.09667965000014,
                        "value": 0
                    },
                    {
                        "number": 64,
                        "time": 210.59667942500013,
                        "value": 1
                    },
                    {
                        "number": 64,
                        "time": 211.88700142500014,
                        "value": 0
                    },
                    {
                        "number": 64,
                        "time": 212.28485070833347,
                        "value": 1
                    },
                    {
                        "number": 64,
                        "time": 220.55904053333347,
                        "value": 1
                    },
                    {
                        "number": 64,
                        "time": 224.46226458333348,
                        "value": 0
                    },
                    {
                        "number": 64,
                        "time": 224.83860850000013,
                        "value": 1
                    },
                    {
                        "number": 64,
                        "time": 226.69344637500012,
                        "value": 0
                    },
                    {
                        "number": 64,
                        "time": 228.2902198500001,
                        "value": 1
                    },
                    {
                        "number": 64,
                        "time": 232.20419658333347,
                        "value": 0
                    },
                    {
                        "number": 64,
                        "time": 232.46763732500014,
                        "value": 1
                    },
                    {
                        "number": 64,
                        "time": 234.17193763333347,
                        "value": 0
                    },
                    {
                        "number": 64,
                        "time": 236.01064648333346,
                        "value": 1
                    },
                    {
                        "number": 64,
                        "time": 239.00526879166685,
                        "value": 0
                    },
                    {
                        "number": 64,
                        "time": 240.70956910000018,
                        "value": 1
                    },
                    {
                        "number": 64,
                        "time": 240.9299991083335,
                        "value": 0
                    },
                    {
                        "number": 64,
                        "time": 243.53752481666683,
                        "value": 1
                    },
                    {
                        "number": 64,
                        "time": 243.88698702500017,
                        "value": 0
                    },
                    {
                        "number": 64,
                        "time": 244.08053532500017,
                        "value": 1
                    },
                    {
                        "number": 64,
                        "time": 259.30633492500004,
                        "value": 0
                    },
                    {
                        "number": 64,
                        "time": 259.3762273666667,
                        "value": 1
                    },
                    {
                        "number": 64,
                        "time": 263.2203116583334,
                        "value": 1
                    },
                    {
                        "number": 64,
                        "time": 264.5482680500001,
                        "value": 0
                    },
                    {
                        "number": 64,
                        "time": 266.78482618333345,
                        "value": 1
                    },
                    {
                        "number": 64,
                        "time": 268.5536425916667,
                        "value": 0
                    },
                    {
                        "number": 64,
                        "time": 269.01600797500004,
                        "value": 1
                    },
                    {
                        "number": 64,
                        "time": 269.757943125,
                        "value": 0
                    },
                    {
                        "number": 64,
                        "time": 270.9138565833333,
                        "value": 1
                    },
                    {
                        "number": 64,
                        "time": 272.3600924916666,
                        "value": 0
                    },
                    {
                        "number": 64,
                        "time": 272.82245787499994,
                        "value": 1
                    },
                    {
                        "number": 64,
                        "time": 273.2794469166666,
                        "value": 1
                    },
                    {
                        "number": 64,
                        "time": 274.1127798749999,
                        "value": 0
                    },
                    {
                        "number": 64,
                        "time": 274.89234941666655,
                        "value": 0
                    },
                    {
                        "number": 64,
                        "time": 275.0858977166665,
                        "value": 1
                    },
                    {
                        "number": 64,
                        "time": 290.31169731666654,
                        "value": 0
                    },
                    {
                        "number": 64,
                        "time": 290.3815897583332,
                        "value": 1
                    },
                    {
                        "number": 64,
                        "time": 294.22567404999995,
                        "value": 1
                    },
                    {
                        "number": 64,
                        "time": 295.55363044166666,
                        "value": 0
                    },
                    {
                        "number": 64,
                        "time": 297.790188575,
                        "value": 1
                    },
                    {
                        "number": 64,
                        "time": 299.5590049833333,
                        "value": 0
                    },
                    {
                        "number": 64,
                        "time": 300.02137036666664,
                        "value": 1
                    },
                    {
                        "number": 64,
                        "time": 300.7633055166666,
                        "value": 0
                    },
                    {
                        "number": 64,
                        "time": 301.9192189749999,
                        "value": 1
                    },
                    {
                        "number": 64,
                        "time": 303.3654548833332,
                        "value": 0
                    },
                    {
                        "number": 64,
                        "time": 303.82782026666655,
                        "value": 1
                    },
                    {
                        "number": 64,
                        "time": 304.2848093083332,
                        "value": 1
                    },
                    {
                        "number": 64,
                        "time": 305.1181422666665,
                        "value": 0
                    },
                    {
                        "number": 64,
                        "time": 305.3009378833332,
                        "value": 0
                    },
                    {
                        "number": 64,
                        "time": 305.73104521666653,
                        "value": 1
                    },
                    {
                        "number": 64,
                        "time": 309.65039829166636,
                        "value": 1
                    },
                    {
                        "number": 64,
                        "time": 313.45147184999985,
                        "value": 0
                    },
                    {
                        "number": 64,
                        "time": 313.54824599999984,
                        "value": 1
                    },
                    {
                        "number": 64,
                        "time": 317.46759907499984,
                        "value": 1
                    },
                    {
                        "number": 64,
                        "time": 321.2686726333333,
                        "value": 0
                    },
                    {
                        "number": 64,
                        "time": 323.9084563916665,
                        "value": 1
                    },
                    {
                        "number": 64,
                        "time": 324.1073810333332,
                        "value": 0
                    },
                    {
                        "number": 64,
                        "time": 327.71490629166635,
                        "value": 1
                    },
                    {
                        "number": 64,
                        "time": 327.8224331249997,
                        "value": 0
                    }
                ],
                "91": [
                    {
                        "number": 91,
                        "time": 0,
                        "value": 0.31496062992125984
                    }
                ],
                "93": [
                    {
                        "number": 93,
                        "time": 0,
                        "value": 0
                    }
                ],
                "120": [
                    {
                        "number": 120,
                        "time": 0,
                        "value": 0
                    }
                ],
                "121": [
                    {
                        "number": 121,
                        "time": 0,
                        "value": 0
                    }
                ]
            },
            "id": 1,
            "name": "Classical Guitar",
            "instrumentNumber": 24,
            "instrument": "acoustic guitar (nylon)",
            "instrumentFamily": "guitar",
            "channelNumber": 0,
            "isPercussion": false
        },
        {
            "startTime": 1.9462356833333332,
            "duration": 345.1342532916669,
            "length": 524,
            "notes": [
                {
                    "name": "G4",
                    "midi": 67,
                    "time": 1.9462356833333332,
                    "velocity": 0.4330708661417323,
                    "duration": 0.6344083166666667
                },
                {
                    "name": "C5",
                    "midi": 72,
                    "time": 2.5537622916666667,
                    "velocity": 0.48031496062992124,
                    "duration": 0.661290025
                },
                {
                    "name": "D5",
                    "midi": 74,
                    "time": 3.177417925,
                    "velocity": 0.4645669291338583,
                    "duration": 0.6559136833333334
                },
                {
                    "name": "E5",
                    "midi": 76,
                    "time": 3.7849445333333334,
                    "velocity": 0.5196850393700787,
                    "duration": 5.6827931416666635
                },
                {
                    "name": "F5",
                    "midi": 77,
                    "time": 9.473114016666663,
                    "velocity": 0.47244094488188976,
                    "duration": 0.12903219999999926
                },
                {
                    "name": "E5",
                    "midi": 76,
                    "time": 9.569888166666663,
                    "velocity": 0.4566929133858268,
                    "duration": 0.7258061249999983
                },
                {
                    "name": "D5",
                    "midi": 74,
                    "time": 10.279565266666662,
                    "velocity": 0.41732283464566927,
                    "duration": 0.6182792916666671
                },
                {
                    "name": "C5",
                    "midi": 72,
                    "time": 10.892468216666662,
                    "velocity": 0.4251968503937008,
                    "duration": 0.6720427083333327
                },
                {
                    "name": "B4",
                    "midi": 71,
                    "time": 11.537629216666662,
                    "velocity": 0.4251968503937008,
                    "duration": 3.263439391666667
                },
                {
                    "name": "D5",
                    "midi": 74,
                    "time": 14.779563241666663,
                    "velocity": 0.33858267716535434,
                    "duration": 0.15591390833333207
                },
                {
                    "name": "C5",
                    "midi": 72,
                    "time": 14.913971783333329,
                    "velocity": 0.47244094488188976,
                    "duration": 0.19354829999999978
                },
                {
                    "name": "B4",
                    "midi": 71,
                    "time": 15.080638374999996,
                    "velocity": 0.3779527559055118,
                    "duration": 0.19354829999999978
                },
                {
                    "name": "C5",
                    "midi": 72,
                    "time": 15.247304966666663,
                    "velocity": 0.31496062992125984,
                    "duration": 0.24193537499999884
                },
                {
                    "name": "D5",
                    "midi": 74,
                    "time": 15.456982291666662,
                    "velocity": 0.49606299212598426,
                    "duration": 0.8655910083333325
                },
                {
                    "name": "G4",
                    "midi": 67,
                    "time": 17.354830899999996,
                    "velocity": 0.41732283464566927,
                    "duration": 0.6505373416666664
                },
                {
                    "name": "B4",
                    "midi": 71,
                    "time": 17.983862874999996,
                    "velocity": 0.4645669291338583,
                    "duration": 0.6666663666666679
                },
                {
                    "name": "D5",
                    "midi": 74,
                    "time": 18.612894849999996,
                    "velocity": 0.4094488188976378,
                    "duration": 0.6290319750000037
                },
                {
                    "name": "F5",
                    "midi": 77,
                    "time": 19.236550483333332,
                    "velocity": 0.3779527559055118,
                    "duration": 5.258062150000011
                },
                {
                    "name": "G5",
                    "midi": 79,
                    "time": 24.924719966666675,
                    "velocity": 0.41732283464566927,
                    "duration": 0.13978488333333416
                },
                {
                    "name": "F5",
                    "midi": 77,
                    "time": 25.03224680000001,
                    "velocity": 0.23622047244094488,
                    "duration": 0.7043007583333356
                },
                {
                    "name": "E5",
                    "midi": 76,
                    "time": 25.70966585000001,
                    "velocity": 0.4251968503937008,
                    "duration": 0.6559136833333348
                },
                {
                    "name": "D5",
                    "midi": 74,
                    "time": 26.354826850000013,
                    "velocity": 0.4015748031496063,
                    "duration": 0.7150534416666652
                },
                {
                    "name": "C5",
                    "midi": 72,
                    "time": 27.03762224166668,
                    "velocity": 0.41732283464566927,
                    "duration": 3.220428658333333
                },
                {
                    "name": "E5",
                    "midi": 76,
                    "time": 30.231169191666677,
                    "velocity": 0.3464566929133858,
                    "duration": 0.15591390833333563
                },
                {
                    "name": "D5",
                    "midi": 74,
                    "time": 30.37633041666668,
                    "velocity": 0.3779527559055118,
                    "duration": 0.21505366666666603
                },
                {
                    "name": "C5",
                    "midi": 72,
                    "time": 30.56987871666668,
                    "velocity": 0.4094488188976378,
                    "duration": 0.17741927500000187
                },
                {
                    "name": "D5",
                    "midi": 74,
                    "time": 30.73116896666668,
                    "velocity": 0.3543307086614173,
                    "duration": 0.1505375666666673
                },
                {
                    "name": "E5",
                    "midi": 76,
                    "time": 30.881706533333347,
                    "velocity": 0.44881889763779526,
                    "duration": 0.8763436916666656
                },
                {
                    "name": "E5",
                    "midi": 76,
                    "time": 32.82256587500001,
                    "velocity": 0.44881889763779526,
                    "duration": 0.6666663666666679
                },
                {
                    "name": "F5",
                    "midi": 77,
                    "time": 33.47310321666668,
                    "velocity": 0.5669291338582677,
                    "duration": 0.6397846583333333
                },
                {
                    "name": "G5",
                    "midi": 79,
                    "time": 34.107511533333344,
                    "velocity": 0.47244094488188976,
                    "duration": 0.54838685
                },
                {
                    "name": "G5",
                    "midi": 79,
                    "time": 34.74729619166668,
                    "velocity": 0.5275590551181102,
                    "duration": 1.9784937333333303
                },
                {
                    "name": "C#5",
                    "midi": 73,
                    "time": 36.66665016666668,
                    "velocity": 0.49606299212598426,
                    "duration": 1.5860207916666624
                },
                {
                    "name": "B4",
                    "midi": 71,
                    "time": 38.26342364166668,
                    "velocity": 0.4015748031496063,
                    "duration": 0.17741927499999832
                },
                {
                    "name": "C#5",
                    "midi": 73,
                    "time": 38.392455841666674,
                    "velocity": 0.47244094488188976,
                    "duration": 0.20967732500000125
                },
                {
                    "name": "D5",
                    "midi": 74,
                    "time": 38.59138048333334,
                    "velocity": 0.3858267716535433,
                    "duration": 1.2258059000000117
                },
                {
                    "name": "D5",
                    "midi": 74,
                    "time": 40.553745191666685,
                    "velocity": 0.44881889763779526,
                    "duration": 0.634408316666665
                },
                {
                    "name": "E5",
                    "midi": 76,
                    "time": 41.18277716666668,
                    "velocity": 0.4251968503937008,
                    "duration": 0.6774190500000046
                },
                {
                    "name": "F5",
                    "midi": 77,
                    "time": 41.827938166666684,
                    "velocity": 0.4409448818897638,
                    "duration": 0.5913975833333396
                },
                {
                    "name": "F5",
                    "midi": 77,
                    "time": 42.53223892500002,
                    "velocity": 0.5590551181102362,
                    "duration": 1.919353975
                },
                {
                    "name": "B4",
                    "midi": 71,
                    "time": 44.41933485000002,
                    "velocity": 0.4015748031496063,
                    "duration": 1.6290315250000091
                },
                {
                    "name": "A4",
                    "midi": 69,
                    "time": 46.03761369166669,
                    "velocity": 0.36220472440944884,
                    "duration": 0.1451612250000025
                },
                {
                    "name": "B4",
                    "midi": 71,
                    "time": 46.16126955000003,
                    "velocity": 0.4094488188976378,
                    "duration": 0.1451612250000025
                },
                {
                    "name": "C5",
                    "midi": 72,
                    "time": 46.30105443333336,
                    "velocity": 0.4094488188976378,
                    "duration": 0.6827953916666658
                },
                {
                    "name": "C5",
                    "midi": 72,
                    "time": 48.30105353333336,
                    "velocity": 0.4251968503937008,
                    "duration": 0.6612900250000067
                },
                {
                    "name": "D5",
                    "midi": 74,
                    "time": 48.95159087500003,
                    "velocity": 0.3543307086614173,
                    "duration": 0.6451610000000016
                },
                {
                    "name": "E5",
                    "midi": 76,
                    "time": 49.569870166666696,
                    "velocity": 0.3937007874015748,
                    "duration": 0.5913975833333325
                },
                {
                    "name": "E5",
                    "midi": 76,
                    "time": 50.25266555833336,
                    "velocity": 0.4881889763779528,
                    "duration": 1.0483866250000062
                },
                {
                    "name": "D5",
                    "midi": 74,
                    "time": 51.268794133333365,
                    "velocity": 0.29133858267716534,
                    "duration": 0.27956976666666833
                },
                {
                    "name": "C#5",
                    "midi": 73,
                    "time": 51.548363900000034,
                    "velocity": 0.4094488188976378,
                    "duration": 0.2903224499999979
                },
                {
                    "name": "D5",
                    "midi": 74,
                    "time": 51.870944400000035,
                    "velocity": 0.3937007874015748,
                    "duration": 0.31182781666666415
                },
                {
                    "name": "F#5",
                    "midi": 78,
                    "time": 52.1989012416667,
                    "velocity": 0.5748031496062992,
                    "duration": 0.9731178416666637
                },
                {
                    "name": "E5",
                    "midi": 76,
                    "time": 53.150513716666694,
                    "velocity": 0.5748031496062992,
                    "duration": 0.3440858666666671
                },
                {
                    "name": "C5",
                    "midi": 72,
                    "time": 53.473094216666695,
                    "velocity": 0.4645669291338583,
                    "duration": 0.3440858666666671
                },
                {
                    "name": "A4",
                    "midi": 69,
                    "time": 53.801051058333364,
                    "velocity": 0.3543307086614173,
                    "duration": 0.3333331833333304
                },
                {
                    "name": "E5",
                    "midi": 76,
                    "time": 54.11287887500003,
                    "velocity": 0.4645669291338583,
                    "duration": 1.0053758916666666
                },
                {
                    "name": "D5",
                    "midi": 74,
                    "time": 55.09137305833336,
                    "velocity": 0.47244094488188976,
                    "duration": 0.3494622083333354
                },
                {
                    "name": "B4",
                    "midi": 71,
                    "time": 55.4247062416667,
                    "velocity": 0.4094488188976378,
                    "duration": 0.32795684166666916
                },
                {
                    "name": "G4",
                    "midi": 67,
                    "time": 55.720405033333364,
                    "velocity": 0.3543307086614173,
                    "duration": 0.31182781666667125
                },
                {
                    "name": "D5",
                    "midi": 74,
                    "time": 56.032232850000035,
                    "velocity": 0.44881889763779526,
                    "duration": 1.010752233333335
                },
                {
                    "name": "C5",
                    "midi": 72,
                    "time": 57.01072703333337,
                    "velocity": 0.47244094488188976,
                    "duration": 0.31182781666667125
                },
                {
                    "name": "A4",
                    "midi": 69,
                    "time": 57.30104948333337,
                    "velocity": 0.4409448818897638,
                    "duration": 0.29569879166666624
                },
                {
                    "name": "F#4",
                    "midi": 66,
                    "time": 57.607500958333375,
                    "velocity": 0.5748031496062992,
                    "duration": 0.32795684166666916
                },
                {
                    "name": "G4",
                    "midi": 67,
                    "time": 57.95696316666671,
                    "velocity": 0.4330708661417323,
                    "duration": 0.8978490583333354
                },
                {
                    "name": "G4",
                    "midi": 67,
                    "time": 58.98384442500004,
                    "velocity": 0.4409448818897638,
                    "duration": 0.21505366666666959
                },
                {
                    "name": "B4",
                    "midi": 71,
                    "time": 59.28491955833338,
                    "velocity": 0.3779527559055118,
                    "duration": 0.23655903333333583
                },
                {
                    "name": "D5",
                    "midi": 74,
                    "time": 59.60750005833338,
                    "velocity": 0.3464566929133858,
                    "duration": 0.13978488333333416
                },
                {
                    "name": "G5",
                    "midi": 79,
                    "time": 59.91395153333338,
                    "velocity": 0.3228346456692913,
                    "duration": 0.10752683333333124
                },
                {
                    "name": "D5",
                    "midi": 74,
                    "time": 60.18276861666671,
                    "velocity": 0.33070866141732286,
                    "duration": 0.21505366666666959
                },
                {
                    "name": "B4",
                    "midi": 71,
                    "time": 60.53223082500005,
                    "velocity": 0.3779527559055118,
                    "duration": 0.10215049166667
                },
                {
                    "name": "G4",
                    "midi": 67,
                    "time": 60.82792961666672,
                    "velocity": 0.49606299212598426,
                    "duration": 0.10752683333333124
                },
                {
                    "name": "D4",
                    "midi": 62,
                    "time": 61.16663914166672,
                    "velocity": 0.47244094488188976,
                    "duration": 0.09139780833333333
                },
                {
                    "name": "B3",
                    "midi": 59,
                    "time": 61.45158525000006,
                    "velocity": 0.49606299212598426,
                    "duration": 0.08064512499999665
                },
                {
                    "name": "G3",
                    "midi": 55,
                    "time": 61.790294775000056,
                    "velocity": 0.5984251968503937,
                    "duration": 0.5860212416666641
                },
                {
                    "name": "G4",
                    "midi": 67,
                    "time": 63.86018631666672,
                    "velocity": 0.4015748031496063,
                    "duration": 0.6666663666666679
                },
                {
                    "name": "C5",
                    "midi": 72,
                    "time": 64.49997097500005,
                    "velocity": 0.4015748031496063,
                    "duration": 0.629031975000018
                },
                {
                    "name": "D5",
                    "midi": 74,
                    "time": 65.1074975833334,
                    "velocity": 0.3700787401574803,
                    "duration": 0.5698922166666733
                },
                {
                    "name": "E5",
                    "midi": 76,
                    "time": 65.76341126666674,
                    "velocity": 0.5590551181102362,
                    "duration": 4.768815058333587
                },
                {
                    "name": "F5",
                    "midi": 77,
                    "time": 71.40857001666699,
                    "velocity": 0.47244094488188976,
                    "duration": 0.1290321999999975
                },
                {
                    "name": "E5",
                    "midi": 76,
                    "time": 71.50534416666699,
                    "velocity": 0.4566929133858268,
                    "duration": 0.7258061249999912
                },
                {
                    "name": "D5",
                    "midi": 74,
                    "time": 72.21502126666698,
                    "velocity": 0.41732283464566927,
                    "duration": 0.6182792916666529
                },
                {
                    "name": "C5",
                    "midi": 72,
                    "time": 72.82792421666697,
                    "velocity": 0.4251968503937008,
                    "duration": 0.672042708333322
                },
                {
                    "name": "B4",
                    "midi": 71,
                    "time": 73.47308521666696,
                    "velocity": 0.4251968503937008,
                    "duration": 3.2634393916666795
                },
                {
                    "name": "D5",
                    "midi": 74,
                    "time": 76.71501924166697,
                    "velocity": 0.33858267716535434,
                    "duration": 0.15591390833334628
                },
                {
                    "name": "C5",
                    "midi": 72,
                    "time": 76.84942778333364,
                    "velocity": 0.47244094488188976,
                    "duration": 0.19354830000000334
                },
                {
                    "name": "B4",
                    "midi": 71,
                    "time": 77.0160943750003,
                    "velocity": 0.3779527559055118,
                    "duration": 0.19354830000000334
                },
                {
                    "name": "C5",
                    "midi": 72,
                    "time": 77.18276096666698,
                    "velocity": 0.31496062992125984,
                    "duration": 0.24193537499999707
                },
                {
                    "name": "D5",
                    "midi": 74,
                    "time": 77.39243829166698,
                    "velocity": 0.49606299212598426,
                    "duration": 0.8655910083333254
                },
                {
                    "name": "G4",
                    "midi": 67,
                    "time": 79.2902869000003,
                    "velocity": 0.41732283464566927,
                    "duration": 0.6505373416666771
                },
                {
                    "name": "B4",
                    "midi": 71,
                    "time": 79.9193188750003,
                    "velocity": 0.4645669291338583,
                    "duration": 0.666666366666675
                },
                {
                    "name": "D5",
                    "midi": 74,
                    "time": 80.5483508500003,
                    "velocity": 0.4094488188976378,
                    "duration": 0.6290319750000037
                },
                {
                    "name": "F5",
                    "midi": 77,
                    "time": 81.17200648333365,
                    "velocity": 0.3779527559055118,
                    "duration": 5.258062150000001
                },
                {
                    "name": "G5",
                    "midi": 79,
                    "time": 86.86017596666699,
                    "velocity": 0.41732283464566927,
                    "duration": 0.13978488333333416
                },
                {
                    "name": "F5",
                    "midi": 77,
                    "time": 86.96770280000032,
                    "velocity": 0.23622047244094488,
                    "duration": 0.704300758333332
                },
                {
                    "name": "E5",
                    "midi": 76,
                    "time": 87.64512185000032,
                    "velocity": 0.4251968503937008,
                    "duration": 0.6559136833333383
                },
                {
                    "name": "D5",
                    "midi": 74,
                    "time": 88.29028285000032,
                    "velocity": 0.4015748031496063,
                    "duration": 0.7150534416666687
                },
                {
                    "name": "C5",
                    "midi": 72,
                    "time": 88.973078241667,
                    "velocity": 0.41732283464566927,
                    "duration": 3.220428658333347
                },
                {
                    "name": "E5",
                    "midi": 76,
                    "time": 92.16662519166701,
                    "velocity": 0.3464566929133858,
                    "duration": 0.15591390833333207
                },
                {
                    "name": "D5",
                    "midi": 74,
                    "time": 92.311786416667,
                    "velocity": 0.3779527559055118,
                    "duration": 0.2150536666666767
                },
                {
                    "name": "C5",
                    "midi": 72,
                    "time": 92.50533471666701,
                    "velocity": 0.4094488188976378,
                    "duration": 0.17741927500000543
                },
                {
                    "name": "D5",
                    "midi": 74,
                    "time": 92.66662496666702,
                    "velocity": 0.3543307086614173,
                    "duration": 0.15053756666667084
                },
                {
                    "name": "E5",
                    "midi": 76,
                    "time": 92.81716253333369,
                    "velocity": 0.44881889763779526,
                    "duration": 0.876343691666662
                },
                {
                    "name": "E5",
                    "midi": 76,
                    "time": 94.75802187500035,
                    "velocity": 0.44881889763779526,
                    "duration": 0.6666663666666608
                },
                {
                    "name": "F5",
                    "midi": 77,
                    "time": 95.40855921666702,
                    "velocity": 0.5669291338582677,
                    "duration": 0.6397846583333262
                },
                {
                    "name": "G5",
                    "midi": 79,
                    "time": 96.04296753333368,
                    "velocity": 0.47244094488188976,
                    "duration": 0.54838685
                },
                {
                    "name": "G5",
                    "midi": 79,
                    "time": 96.68275219166702,
                    "velocity": 0.5275590551181102,
                    "duration": 1.9784937333333374
                },
                {
                    "name": "C#5",
                    "midi": 73,
                    "time": 98.60210616666703,
                    "velocity": 0.49606299212598426,
                    "duration": 1.5860207916666695
                },
                {
                    "name": "B4",
                    "midi": 71,
                    "time": 100.19887964166703,
                    "velocity": 0.4015748031496063,
                    "duration": 0.17741927499999122
                },
                {
                    "name": "C#5",
                    "midi": 73,
                    "time": 100.32791184166703,
                    "velocity": 0.47244094488188976,
                    "duration": 0.20967732500000125
                },
                {
                    "name": "D5",
                    "midi": 74,
                    "time": 100.5268364833337,
                    "velocity": 0.3858267716535433,
                    "duration": 1.2258059000000543
                },
                {
                    "name": "D5",
                    "midi": 74,
                    "time": 102.48920119166708,
                    "velocity": 0.44881889763779526,
                    "duration": 0.6344083166666508
                },
                {
                    "name": "E5",
                    "midi": 76,
                    "time": 103.11823316666707,
                    "velocity": 0.4251968503937008,
                    "duration": 0.6774190499999975
                },
                {
                    "name": "F5",
                    "midi": 77,
                    "time": 103.76339416666707,
                    "velocity": 0.4409448818897638,
                    "duration": 0.5913975833333325
                },
                {
                    "name": "F5",
                    "midi": 77,
                    "time": 104.4676949250004,
                    "velocity": 0.5590551181102362,
                    "duration": 1.9193539749999928
                },
                {
                    "name": "B4",
                    "midi": 71,
                    "time": 106.3547908500004,
                    "velocity": 0.4015748031496063,
                    "duration": 1.629031525000002
                },
                {
                    "name": "A4",
                    "midi": 69,
                    "time": 107.97306969166706,
                    "velocity": 0.36220472440944884,
                    "duration": 0.1451612250000096
                },
                {
                    "name": "B4",
                    "midi": 71,
                    "time": 108.0967255500004,
                    "velocity": 0.4094488188976378,
                    "duration": 0.1451612249999954
                },
                {
                    "name": "C5",
                    "midi": 72,
                    "time": 108.23651043333373,
                    "velocity": 0.4094488188976378,
                    "duration": 0.6827953916666587
                },
                {
                    "name": "C5",
                    "midi": 72,
                    "time": 110.23650953333373,
                    "velocity": 0.4251968503937008,
                    "duration": 0.6612900249999996
                },
                {
                    "name": "D5",
                    "midi": 74,
                    "time": 110.8870468750004,
                    "velocity": 0.3543307086614173,
                    "duration": 0.6451610000000016
                },
                {
                    "name": "E5",
                    "midi": 76,
                    "time": 111.50532616666706,
                    "velocity": 0.3937007874015748,
                    "duration": 0.5913975833333325
                },
                {
                    "name": "E5",
                    "midi": 76,
                    "time": 112.18812155833373,
                    "velocity": 0.4881889763779528,
                    "duration": 1.048386624999992
                },
                {
                    "name": "D5",
                    "midi": 74,
                    "time": 113.20425013333373,
                    "velocity": 0.29133858267716534,
                    "duration": 0.27956976666666833
                },
                {
                    "name": "C#5",
                    "midi": 73,
                    "time": 113.4838199000004,
                    "velocity": 0.4094488188976378,
                    "duration": 0.290322450000005
                },
                {
                    "name": "D5",
                    "midi": 74,
                    "time": 113.8064004000004,
                    "velocity": 0.3937007874015748,
                    "duration": 0.31182781666667836
                },
                {
                    "name": "F#5",
                    "midi": 78,
                    "time": 114.13435724166708,
                    "velocity": 0.5748031496062992,
                    "duration": 0.9731178416666779
                },
                {
                    "name": "E5",
                    "midi": 76,
                    "time": 115.08596971666708,
                    "velocity": 0.5748031496062992,
                    "duration": 0.3440858666666742
                },
                {
                    "name": "C5",
                    "midi": 72,
                    "time": 115.40855021666708,
                    "velocity": 0.4645669291338583,
                    "duration": 0.3440858666666742
                },
                {
                    "name": "A4",
                    "midi": 69,
                    "time": 115.73650705833376,
                    "velocity": 0.3543307086614173,
                    "duration": 0.3333331833333375
                },
                {
                    "name": "E5",
                    "midi": 76,
                    "time": 116.04833487500042,
                    "velocity": 0.4645669291338583,
                    "duration": 1.0053758916666737
                },
                {
                    "name": "D5",
                    "midi": 74,
                    "time": 117.02682905833376,
                    "velocity": 0.47244094488188976,
                    "duration": 0.3494622083333354
                },
                {
                    "name": "B4",
                    "midi": 71,
                    "time": 117.3601622416671,
                    "velocity": 0.4094488188976378,
                    "duration": 0.32795684166666206
                },
                {
                    "name": "G4",
                    "midi": 67,
                    "time": 117.65586103333376,
                    "velocity": 0.3543307086614173,
                    "duration": 0.31182781666666415
                },
                {
                    "name": "D5",
                    "midi": 74,
                    "time": 117.96768885000043,
                    "velocity": 0.44881889763779526,
                    "duration": 1.010752233333335
                },
                {
                    "name": "C5",
                    "midi": 72,
                    "time": 118.94618303333377,
                    "velocity": 0.47244094488188976,
                    "duration": 0.31182781666666415
                },
                {
                    "name": "A4",
                    "midi": 69,
                    "time": 119.23650548333376,
                    "velocity": 0.4409448818897638,
                    "duration": 0.29569879166666624
                },
                {
                    "name": "F#4",
                    "midi": 66,
                    "time": 119.54295695833376,
                    "velocity": 0.5748031496062992,
                    "duration": 0.32795684166666206
                },
                {
                    "name": "G4",
                    "midi": 67,
                    "time": 119.8924191666671,
                    "velocity": 0.4330708661417323,
                    "duration": 0.8978490583333354
                },
                {
                    "name": "G4",
                    "midi": 67,
                    "time": 120.91930042500043,
                    "velocity": 0.4409448818897638,
                    "duration": 0.2150536666666767
                },
                {
                    "name": "B4",
                    "midi": 71,
                    "time": 121.22037555833377,
                    "velocity": 0.3779527559055118,
                    "duration": 0.23655903333333583
                },
                {
                    "name": "D5",
                    "midi": 74,
                    "time": 121.54295605833377,
                    "velocity": 0.3464566929133858,
                    "duration": 0.13978488333333416
                },
                {
                    "name": "G5",
                    "midi": 79,
                    "time": 121.84940753333376,
                    "velocity": 0.3228346456692913,
                    "duration": 0.10752683333332413
                },
                {
                    "name": "D5",
                    "midi": 74,
                    "time": 122.11822461666709,
                    "velocity": 0.33070866141732286,
                    "duration": 0.21505366666666248
                },
                {
                    "name": "B4",
                    "midi": 71,
                    "time": 122.46768682500043,
                    "velocity": 0.3779527559055118,
                    "duration": 0.1021504916666629
                },
                {
                    "name": "G4",
                    "midi": 67,
                    "time": 122.76338561666708,
                    "velocity": 0.49606299212598426,
                    "duration": 0.10752683333333835
                },
                {
                    "name": "D4",
                    "midi": 62,
                    "time": 123.10209514166708,
                    "velocity": 0.47244094488188976,
                    "duration": 0.09139780833332622
                },
                {
                    "name": "B3",
                    "midi": 59,
                    "time": 123.38704125000041,
                    "velocity": 0.49606299212598426,
                    "duration": 0.08064512500000376
                },
                {
                    "name": "G3",
                    "midi": 55,
                    "time": 123.7257507750004,
                    "velocity": 0.5984251968503937,
                    "duration": 0.5860212416666712
                },
                {
                    "name": "G5",
                    "midi": 79,
                    "time": 125.80101865833376,
                    "velocity": 0.5118110236220472,
                    "duration": 0.5645158749999979
                },
                {
                    "name": "G5",
                    "midi": 79,
                    "time": 126.44617965833376,
                    "velocity": 0.5354330708661418,
                    "duration": 0.54838685
                },
                {
                    "name": "G5",
                    "midi": 79,
                    "time": 127.08058797500043,
                    "velocity": 0.5039370078740157,
                    "duration": 0.5645158749999979
                },
                {
                    "name": "A5",
                    "midi": 81,
                    "time": 127.66123287500042,
                    "velocity": 0.6062992125984252,
                    "duration": 1.005375891666631
                },
                {
                    "name": "G5",
                    "midi": 79,
                    "time": 128.65047974166706,
                    "velocity": 0.48031496062992124,
                    "duration": 0.32258050000001504
                },
                {
                    "name": "F5",
                    "midi": 77,
                    "time": 128.9354258500004,
                    "velocity": 0.4881889763779528,
                    "duration": 0.3655912333333333
                },
                {
                    "name": "E5",
                    "midi": 76,
                    "time": 129.25263000833374,
                    "velocity": 0.3700787401574803,
                    "duration": 0.34408586666665997
                },
                {
                    "name": "G5",
                    "midi": 79,
                    "time": 129.57521050833373,
                    "velocity": 0.5039370078740157,
                    "duration": 1.0645156500000041
                },
                {
                    "name": "F5",
                    "midi": 77,
                    "time": 130.60746810833373,
                    "velocity": 0.49606299212598426,
                    "duration": 0.3387095249999845
                },
                {
                    "name": "E5",
                    "midi": 76,
                    "time": 130.9192959250004,
                    "velocity": 0.4251968503937008,
                    "duration": 0.3333331833333375
                },
                {
                    "name": "D5",
                    "midi": 74,
                    "time": 131.23112374166706,
                    "velocity": 0.4015748031496063,
                    "duration": 0.33870952500001295
                },
                {
                    "name": "E5",
                    "midi": 76,
                    "time": 131.57520960833375,
                    "velocity": 0.49606299212598426,
                    "duration": 0.9999995499999841
                },
                {
                    "name": "D5",
                    "midi": 74,
                    "time": 132.55908013333374,
                    "velocity": 0.5039370078740157,
                    "duration": 0.31182781666666415
                },
                {
                    "name": "C5",
                    "midi": 72,
                    "time": 132.86015526666708,
                    "velocity": 0.4330708661417323,
                    "duration": 0.3494622083333354
                },
                {
                    "name": "B4",
                    "midi": 71,
                    "time": 133.17198308333374,
                    "velocity": 0.4251968503937008,
                    "duration": 0.31182781666666415
                },
                {
                    "name": "C5",
                    "midi": 72,
                    "time": 133.47843455833373,
                    "velocity": 0.4645669291338583,
                    "duration": 1.0161285750000104
                },
                {
                    "name": "B4",
                    "midi": 71,
                    "time": 134.48381045000042,
                    "velocity": 0.48031496062992124,
                    "duration": 0.28494610833331535
                },
                {
                    "name": "A4",
                    "midi": 69,
                    "time": 134.79563826666705,
                    "velocity": 0.3779527559055118,
                    "duration": 0.31182781666666415
                },
                {
                    "name": "G4",
                    "midi": 67,
                    "time": 135.0805843750004,
                    "velocity": 0.3937007874015748,
                    "duration": 0.19354829999997492
                },
                {
                    "name": "G4",
                    "midi": 67,
                    "time": 135.3977885333337,
                    "velocity": 0.4409448818897638,
                    "duration": 0.8010749083333337
                },
                {
                    "name": "E4",
                    "midi": 64,
                    "time": 136.38703540000037,
                    "velocity": 0.5118110236220472,
                    "duration": 0.2150536666666767
                },
                {
                    "name": "F4",
                    "midi": 65,
                    "time": 136.7096159000004,
                    "velocity": 0.4251968503937008,
                    "duration": 0.11827951666666081
                },
                {
                    "name": "G4",
                    "midi": 67,
                    "time": 137.04294908333372,
                    "velocity": 0.4251968503937008,
                    "duration": 0.08064512499998955
                },
                {
                    "name": "A4",
                    "midi": 69,
                    "time": 137.34402421666704,
                    "velocity": 0.5433070866141733,
                    "duration": 0.08064512499998955
                },
                {
                    "name": "B4",
                    "midi": 71,
                    "time": 137.66660471666702,
                    "velocity": 0.5354330708661418,
                    "duration": 0.08064512499998955
                },
                {
                    "name": "C5",
                    "midi": 72,
                    "time": 137.989185216667,
                    "velocity": 0.5275590551181102,
                    "duration": 0.07526878333334253
                },
                {
                    "name": "D5",
                    "midi": 74,
                    "time": 138.31176571666703,
                    "velocity": 0.4645669291338583,
                    "duration": 0.06451609999999164
                },
                {
                    "name": "E5",
                    "midi": 76,
                    "time": 138.61821719166701,
                    "velocity": 0.49606299212598426,
                    "duration": 0.06989244166666708
                },
                {
                    "name": "F5",
                    "midi": 77,
                    "time": 138.93542135000038,
                    "velocity": 0.5905511811023622,
                    "duration": 0.06451609999999164
                },
                {
                    "name": "G5",
                    "midi": 79,
                    "time": 139.27950721666704,
                    "velocity": 0.4881889763779528,
                    "duration": 1.2258059000000117
                },
                {
                    "name": "G5",
                    "midi": 79,
                    "time": 141.23111924166705,
                    "velocity": 0.44881889763779526,
                    "duration": 0.5537631916666612
                },
                {
                    "name": "G5",
                    "midi": 79,
                    "time": 141.88703292500037,
                    "velocity": 0.4645669291338583,
                    "duration": 0.5430105083333387
                },
                {
                    "name": "G5",
                    "midi": 79,
                    "time": 142.53757026666705,
                    "velocity": 0.4094488188976378,
                    "duration": 0.32795684166666206
                },
                {
                    "name": "G#5",
                    "midi": 80,
                    "time": 143.17735492500037,
                    "velocity": 0.5354330708661418,
                    "duration": 1.0268812583333329
                },
                {
                    "name": "G5",
                    "midi": 79,
                    "time": 144.18273081666703,
                    "velocity": 0.3543307086614173,
                    "duration": 0.32795684166666206
                },
                {
                    "name": "F#5",
                    "midi": 78,
                    "time": 144.55369839166704,
                    "velocity": 0.4645669291338583,
                    "duration": 0.2741934249999929
                },
                {
                    "name": "G5",
                    "midi": 79,
                    "time": 144.87627889166703,
                    "velocity": 0.1968503937007874,
                    "duration": 0.25268805833334795
                },
                {
                    "name": "A5",
                    "midi": 81,
                    "time": 145.1235906083337,
                    "velocity": 0.4881889763779528,
                    "duration": 0.9892468666666616
                },
                {
                    "name": "G5",
                    "midi": 79,
                    "time": 146.08595576666704,
                    "velocity": 0.4015748031496063,
                    "duration": 0.3064514749999887
                },
                {
                    "name": "F5",
                    "midi": 77,
                    "time": 146.3816545583337,
                    "velocity": 0.41732283464566927,
                    "duration": 0.3333331833333091
                },
                {
                    "name": "E5",
                    "midi": 76,
                    "time": 146.68272969166702,
                    "velocity": 0.3858267716535433,
                    "duration": 0.32258050000001504
                },
                {
                    "name": "G5",
                    "midi": 79,
                    "time": 147.01606287500036,
                    "velocity": 0.4251968503937008,
                    "duration": 1.080644675000002
                },
                {
                    "name": "F5",
                    "midi": 77,
                    "time": 148.03219145000037,
                    "velocity": 0.4881889763779528,
                    "duration": 0.30107513333331326
                },
                {
                    "name": "E5",
                    "midi": 76,
                    "time": 148.32251390000036,
                    "velocity": 0.47244094488188976,
                    "duration": 0.3333331833333091
                },
                {
                    "name": "D5",
                    "midi": 74,
                    "time": 148.64509440000035,
                    "velocity": 0.47244094488188976,
                    "duration": 0.31182781666666415
                },
                {
                    "name": "C5",
                    "midi": 72,
                    "time": 148.956922216667,
                    "velocity": 0.48031496062992124,
                    "duration": 1.0430102833333308
                },
                {
                    "name": "B4",
                    "midi": 71,
                    "time": 149.96767445000035,
                    "velocity": 0.4645669291338583,
                    "duration": 0.3602148916666579
                },
                {
                    "name": "A4",
                    "midi": 69,
                    "time": 150.32251300000033,
                    "velocity": 0.47244094488188976,
                    "duration": 0.32258050000001504
                },
                {
                    "name": "G4",
                    "midi": 67,
                    "time": 150.62358813333367,
                    "velocity": 0.4015748031496063,
                    "duration": 0.19354830000000334
                },
                {
                    "name": "G4",
                    "midi": 67,
                    "time": 150.924663266667,
                    "velocity": 0.4094488188976378,
                    "duration": 0.9946232083333371
                },
                {
                    "name": "E4",
                    "midi": 64,
                    "time": 151.91928647500035,
                    "velocity": 0.5354330708661418,
                    "duration": 0.27956976666666833
                },
                {
                    "name": "F4",
                    "midi": 65,
                    "time": 152.21498526666701,
                    "velocity": 0.44881889763779526,
                    "duration": 0.27956976666666833
                },
                {
                    "name": "G4",
                    "midi": 67,
                    "time": 152.53756576666703,
                    "velocity": 0.48031496062992124,
                    "duration": 0.1021504916666629
                },
                {
                    "name": "A4",
                    "midi": 69,
                    "time": 152.83864090000037,
                    "velocity": 0.33858267716535434,
                    "duration": 0.08602146666666499
                },
                {
                    "name": "B4",
                    "midi": 71,
                    "time": 153.13433969166704,
                    "velocity": 0.4330708661417323,
                    "duration": 0.08064512499998955
                },
                {
                    "name": "C5",
                    "midi": 72,
                    "time": 153.4622965333337,
                    "velocity": 0.4251968503937008,
                    "duration": 0.08602146666666499
                },
                {
                    "name": "D5",
                    "midi": 74,
                    "time": 153.7848770333337,
                    "velocity": 0.4251968503937008,
                    "duration": 0.07526878333334253
                },
                {
                    "name": "E5",
                    "midi": 76,
                    "time": 154.09132850833367,
                    "velocity": 0.4409448818897638,
                    "duration": 0.08064512499998955
                },
                {
                    "name": "F5",
                    "midi": 77,
                    "time": 154.40315632500034,
                    "velocity": 0.4566929133858268,
                    "duration": 0.0752687833333141
                },
                {
                    "name": "G5",
                    "midi": 79,
                    "time": 154.731113166667,
                    "velocity": 0.4251968503937008,
                    "duration": 1.3333327333332932
                },
                {
                    "name": "G5",
                    "midi": 79,
                    "time": 156.7257359250003,
                    "velocity": 0.4094488188976378,
                    "duration": 0.6344083166666792
                },
                {
                    "name": "A5",
                    "midi": 81,
                    "time": 157.3547679000003,
                    "velocity": 0.4094488188976378,
                    "duration": 0.6505373416666771
                },
                {
                    "name": "A#5",
                    "midi": 82,
                    "time": 157.97304719166698,
                    "velocity": 0.48031496062992124,
                    "duration": 0.5645158749999837
                },
                {
                    "name": "A#5",
                    "midi": 82,
                    "time": 158.63971355833363,
                    "velocity": 0.5196850393700787,
                    "duration": 1.935483000000005
                },
                {
                    "name": "A5",
                    "midi": 81,
                    "time": 160.55369119166696,
                    "velocity": 0.44881889763779526,
                    "duration": 0.3763439166666558
                },
                {
                    "name": "G5",
                    "midi": 79,
                    "time": 160.91390608333361,
                    "velocity": 0.41732283464566927,
                    "duration": 0.3064514750000171
                },
                {
                    "name": "F5",
                    "midi": 77,
                    "time": 161.22035755833363,
                    "velocity": 0.4330708661417323,
                    "duration": 0.3655912333333333
                },
                {
                    "name": "E5",
                    "midi": 76,
                    "time": 161.5483144000003,
                    "velocity": 0.3700787401574803,
                    "duration": 0.3172041583333396
                },
                {
                    "name": "D5",
                    "midi": 74,
                    "time": 161.86014221666696,
                    "velocity": 0.4015748031496063,
                    "duration": 0.34946220833336383
                },
                {
                    "name": "C#5",
                    "midi": 73,
                    "time": 162.17197003333365,
                    "velocity": 0.3858267716535433,
                    "duration": 0.3010751333333417
                },
                {
                    "name": "D5",
                    "midi": 74,
                    "time": 162.473045166667,
                    "velocity": 0.3779527559055118,
                    "duration": 1.1935478500000158
                },
                {
                    "name": "F5",
                    "midi": 77,
                    "time": 164.45691524166702,
                    "velocity": 0.44881889763779526,
                    "duration": 0.6344083166666792
                },
                {
                    "name": "G5",
                    "midi": 79,
                    "time": 165.0913235583337,
                    "velocity": 0.4330708661417323,
                    "duration": 0.672042708333322
                },
                {
                    "name": "G#5",
                    "midi": 80,
                    "time": 165.7364845583337,
                    "velocity": 0.47244094488188976,
                    "duration": 0.5322578249999879
                },
                {
                    "name": "G#5",
                    "midi": 80,
                    "time": 166.3816455583337,
                    "velocity": 0.5748031496062992,
                    "duration": 1.838708849999989
                },
                {
                    "name": "G5",
                    "midi": 79,
                    "time": 168.33863392500035,
                    "velocity": 0.33070866141732286,
                    "duration": 0.3387095249999845
                },
                {
                    "name": "F5",
                    "midi": 77,
                    "time": 168.666590766667,
                    "velocity": 0.4251968503937008,
                    "duration": 0.31720415833331117
                },
                {
                    "name": "E5",
                    "midi": 76,
                    "time": 168.973042241667,
                    "velocity": 0.3858267716535433,
                    "duration": 0.31720415833331117
                },
                {
                    "name": "D5",
                    "midi": 74,
                    "time": 169.279493716667,
                    "velocity": 0.33858267716535434,
                    "duration": 0.349462208333307
                },
                {
                    "name": "C5",
                    "midi": 72,
                    "time": 169.5966978750003,
                    "velocity": 0.3700787401574803,
                    "duration": 0.32258050000001504
                },
                {
                    "name": "B4",
                    "midi": 71,
                    "time": 169.89777300833364,
                    "velocity": 0.33858267716535434,
                    "duration": 0.3172041583333396
                },
                {
                    "name": "C5",
                    "midi": 72,
                    "time": 170.2096008250003,
                    "velocity": 0.4015748031496063,
                    "duration": 1.2258059000000117
                },
                {
                    "name": "C5",
                    "midi": 72,
                    "time": 172.2257289500003,
                    "velocity": 0.4881889763779528,
                    "duration": 0.6612900249999996
                },
                {
                    "name": "D5",
                    "midi": 74,
                    "time": 172.86013726666698,
                    "velocity": 0.3700787401574803,
                    "duration": 0.6397846583333262
                },
                {
                    "name": "E5",
                    "midi": 76,
                    "time": 173.4837929000003,
                    "velocity": 0.4645669291338583,
                    "duration": 0.6505373416666771
                },
                {
                    "name": "A4",
                    "midi": 69,
                    "time": 174.134330241667,
                    "velocity": 0.5354330708661418,
                    "duration": 0.2903224499999908
                },
                {
                    "name": "C6",
                    "midi": 84,
                    "time": 174.7741149000003,
                    "velocity": 0.5511811023622047,
                    "duration": 1.3279563916666746
                },
                {
                    "name": "B5",
                    "midi": 83,
                    "time": 176.102071291667,
                    "velocity": 0.6299212598425197,
                    "duration": 0.34408586666665997
                },
                {
                    "name": "A5",
                    "midi": 81,
                    "time": 176.44615715833365,
                    "velocity": 0.4094488188976378,
                    "duration": 0.2903224500000192
                },
                {
                    "name": "G5",
                    "midi": 79,
                    "time": 176.731103266667,
                    "velocity": 0.4015748031496063,
                    "duration": 0.3440858666666884
                },
                {
                    "name": "F5",
                    "midi": 77,
                    "time": 177.037554741667,
                    "velocity": 0.44881889763779526,
                    "duration": 0.3440858666666884
                },
                {
                    "name": "E5",
                    "midi": 76,
                    "time": 177.36013524166702,
                    "velocity": 0.3228346456692913,
                    "duration": 0.3440858666666884
                },
                {
                    "name": "D5",
                    "midi": 74,
                    "time": 177.68271574166704,
                    "velocity": 0.4251968503937008,
                    "duration": 0.1290322000000117
                },
                {
                    "name": "D5",
                    "midi": 74,
                    "time": 177.95153282500038,
                    "velocity": 0.47244094488188976,
                    "duration": 0.10752683333330992
                },
                {
                    "name": "C5",
                    "midi": 72,
                    "time": 178.03217795000037,
                    "velocity": 0.4094488188976378,
                    "duration": 0.30107513333331326
                },
                {
                    "name": "B4",
                    "midi": 71,
                    "time": 178.311747716667,
                    "velocity": 0.44881889763779526,
                    "duration": 0.34408586666665997
                },
                {
                    "name": "C5",
                    "midi": 72,
                    "time": 178.62895187500035,
                    "velocity": 0.4330708661417323,
                    "duration": 0.35483854999998243
                },
                {
                    "name": "D5",
                    "midi": 74,
                    "time": 178.94615603333366,
                    "velocity": 0.3543307086614173,
                    "duration": 0.32795684166666206
                },
                {
                    "name": "E5",
                    "midi": 76,
                    "time": 179.24185482500033,
                    "velocity": 0.4251968503937008,
                    "duration": 0.3870966000000067
                },
                {
                    "name": "F5",
                    "midi": 77,
                    "time": 179.585940691667,
                    "velocity": 0.4566929133858268,
                    "duration": 0.10215049166669132
                },
                {
                    "name": "A5",
                    "midi": 81,
                    "time": 179.908521191667,
                    "velocity": 0.4566929133858268,
                    "duration": 0.29569879166666624
                },
                {
                    "name": "G5",
                    "midi": 79,
                    "time": 180.20959632500035,
                    "velocity": 0.3228346456692913,
                    "duration": 0.34408586666665997
                },
                {
                    "name": "F5",
                    "midi": 77,
                    "time": 180.51604780000034,
                    "velocity": 0.3937007874015748,
                    "duration": 0.3494622083333354
                },
                {
                    "name": "D5",
                    "midi": 74,
                    "time": 180.88701537500035,
                    "velocity": 0.33070866141732286,
                    "duration": 0.3064514749999887
                },
                {
                    "name": "A4",
                    "midi": 69,
                    "time": 181.198843191667,
                    "velocity": 0.33070866141732286,
                    "duration": 0.38172025833333123
                },
                {
                    "name": "B4",
                    "midi": 71,
                    "time": 181.56443442500034,
                    "velocity": 0.47244094488188976,
                    "duration": 0.37096757500000876
                },
                {
                    "name": "C5",
                    "midi": 72,
                    "time": 181.57518710833367,
                    "velocity": 0.31496062992125984,
                    "duration": 0.010752683333350888
                },
                {
                    "name": "D5",
                    "midi": 74,
                    "time": 181.94615468333367,
                    "velocity": 0.5196850393700787,
                    "duration": 3.107525483333319
                },
                {
                    "name": "C#5",
                    "midi": 73,
                    "time": 185.069809191667,
                    "velocity": 0.3937007874015748,
                    "duration": 0.2043009833333258
                },
                {
                    "name": "D5",
                    "midi": 74,
                    "time": 185.24185212500032,
                    "velocity": 0.3937007874015748,
                    "duration": 0.16129025000000752
                },
                {
                    "name": "F5",
                    "midi": 77,
                    "time": 185.43540042500032,
                    "velocity": 0.47244094488188976,
                    "duration": 0.15053756666665663
                },
                {
                    "name": "E5",
                    "midi": 76,
                    "time": 185.58593799166698,
                    "velocity": 0.3543307086614173,
                    "duration": 0.18279561666665245
                },
                {
                    "name": "C5",
                    "midi": 72,
                    "time": 185.7741099500003,
                    "velocity": 0.4566929133858268,
                    "duration": 0.7419351500000175
                },
                {
                    "name": "G5",
                    "midi": 79,
                    "time": 187.61281880000033,
                    "velocity": 0.5984251968503937,
                    "duration": 0.5376341666666349
                },
                {
                    "name": "G5",
                    "midi": 79,
                    "time": 188.31711955833362,
                    "velocity": 0.5984251968503937,
                    "duration": 0.5430105083333387
                },
                {
                    "name": "G5",
                    "midi": 79,
                    "time": 188.9837859250003,
                    "velocity": 0.5826771653543307,
                    "duration": 0.3010751333333417
                },
                {
                    "name": "A5",
                    "midi": 81,
                    "time": 189.62357058333365,
                    "velocity": 0.4094488188976378,
                    "duration": 0.8655910083333254
                },
                {
                    "name": "G5",
                    "midi": 79,
                    "time": 190.58593574166696,
                    "velocity": 0.48031496062992124,
                    "duration": 0.32258050000001504
                },
                {
                    "name": "F5",
                    "midi": 77,
                    "time": 190.8708818500003,
                    "velocity": 0.4881889763779528,
                    "duration": 0.3655912333333333
                },
                {
                    "name": "E5",
                    "midi": 76,
                    "time": 191.18808600833364,
                    "velocity": 0.3700787401574803,
                    "duration": 0.34408586666665997
                },
                {
                    "name": "G5",
                    "midi": 79,
                    "time": 191.51066650833363,
                    "velocity": 0.5039370078740157,
                    "duration": 1.0645156500000041
                },
                {
                    "name": "F5",
                    "midi": 77,
                    "time": 192.54292410833364,
                    "velocity": 0.49606299212598426,
                    "duration": 0.3387095249999845
                },
                {
                    "name": "E5",
                    "midi": 76,
                    "time": 192.8547519250003,
                    "velocity": 0.4251968503937008,
                    "duration": 0.3333331833333375
                },
                {
                    "name": "D5",
                    "midi": 74,
                    "time": 193.16657974166696,
                    "velocity": 0.4015748031496063,
                    "duration": 0.33870952500001295
                },
                {
                    "name": "E5",
                    "midi": 76,
                    "time": 193.51066560833365,
                    "velocity": 0.49606299212598426,
                    "duration": 0.9999995499999841
                },
                {
                    "name": "D5",
                    "midi": 74,
                    "time": 194.49453613333364,
                    "velocity": 0.5039370078740157,
                    "duration": 0.31182781666666415
                },
                {
                    "name": "C5",
                    "midi": 72,
                    "time": 194.79561126666698,
                    "velocity": 0.4330708661417323,
                    "duration": 0.3494622083333354
                },
                {
                    "name": "B4",
                    "midi": 71,
                    "time": 195.10743908333365,
                    "velocity": 0.4251968503937008,
                    "duration": 0.31182781666666415
                },
                {
                    "name": "C5",
                    "midi": 72,
                    "time": 195.41389055833363,
                    "velocity": 0.4645669291338583,
                    "duration": 1.0161285750000104
                },
                {
                    "name": "B4",
                    "midi": 71,
                    "time": 196.41926645000032,
                    "velocity": 0.48031496062992124,
                    "duration": 0.28494610833331535
                },
                {
                    "name": "A4",
                    "midi": 69,
                    "time": 196.73109426666696,
                    "velocity": 0.3779527559055118,
                    "duration": 0.31182781666666415
                },
                {
                    "name": "G4",
                    "midi": 67,
                    "time": 197.0160403750003,
                    "velocity": 0.3937007874015748,
                    "duration": 0.19354829999997492
                },
                {
                    "name": "G4",
                    "midi": 67,
                    "time": 197.3332445333336,
                    "velocity": 0.4409448818897638,
                    "duration": 0.8010749083333337
                },
                {
                    "name": "E4",
                    "midi": 64,
                    "time": 198.32249140000027,
                    "velocity": 0.5118110236220472,
                    "duration": 0.2150536666666767
                },
                {
                    "name": "F4",
                    "midi": 65,
                    "time": 198.6450719000003,
                    "velocity": 0.4251968503937008,
                    "duration": 0.11827951666666081
                },
                {
                    "name": "G4",
                    "midi": 67,
                    "time": 198.97840508333363,
                    "velocity": 0.4251968503937008,
                    "duration": 0.08064512499998955
                },
                {
                    "name": "A4",
                    "midi": 69,
                    "time": 199.27948021666694,
                    "velocity": 0.5433070866141733,
                    "duration": 0.08064512499998955
                },
                {
                    "name": "B4",
                    "midi": 71,
                    "time": 199.60206071666693,
                    "velocity": 0.5354330708661418,
                    "duration": 0.08064512499998955
                },
                {
                    "name": "C5",
                    "midi": 72,
                    "time": 199.9246412166669,
                    "velocity": 0.5275590551181102,
                    "duration": 0.07526878333334253
                },
                {
                    "name": "D5",
                    "midi": 74,
                    "time": 200.24722171666693,
                    "velocity": 0.4645669291338583,
                    "duration": 0.06451610000002006
                },
                {
                    "name": "E5",
                    "midi": 76,
                    "time": 200.55367319166697,
                    "velocity": 0.49606299212598426,
                    "duration": 0.06989244166666708
                },
                {
                    "name": "F5",
                    "midi": 77,
                    "time": 200.8708773500003,
                    "velocity": 0.5905511811023622,
                    "duration": 0.06451609999999164
                },
                {
                    "name": "G5",
                    "midi": 79,
                    "time": 201.21496321666694,
                    "velocity": 0.4881889763779528,
                    "duration": 1.2258059000000117
                },
                {
                    "name": "G5",
                    "midi": 79,
                    "time": 203.16657524166695,
                    "velocity": 0.44881889763779526,
                    "duration": 0.5537631916666612
                },
                {
                    "name": "G5",
                    "midi": 79,
                    "time": 203.82248892500027,
                    "velocity": 0.4645669291338583,
                    "duration": 0.5430105083333387
                },
                {
                    "name": "G5",
                    "midi": 79,
                    "time": 204.47302626666695,
                    "velocity": 0.4094488188976378,
                    "duration": 0.32795684166666206
                },
                {
                    "name": "G#5",
                    "midi": 80,
                    "time": 205.11281092500028,
                    "velocity": 0.5354330708661418,
                    "duration": 1.0268812583333329
                },
                {
                    "name": "G5",
                    "midi": 79,
                    "time": 206.11818681666693,
                    "velocity": 0.3543307086614173,
                    "duration": 0.32795684166666206
                },
                {
                    "name": "F#5",
                    "midi": 78,
                    "time": 206.48915439166694,
                    "velocity": 0.4645669291338583,
                    "duration": 0.2741934249999929
                },
                {
                    "name": "G5",
                    "midi": 79,
                    "time": 206.81173489166693,
                    "velocity": 0.1968503937007874,
                    "duration": 0.25268805833334795
                },
                {
                    "name": "A5",
                    "midi": 81,
                    "time": 207.0590466083336,
                    "velocity": 0.4881889763779528,
                    "duration": 0.9892468666666616
                },
                {
                    "name": "G5",
                    "midi": 79,
                    "time": 208.02141176666694,
                    "velocity": 0.4015748031496063,
                    "duration": 0.3064514749999887
                },
                {
                    "name": "F5",
                    "midi": 77,
                    "time": 208.3171105583336,
                    "velocity": 0.41732283464566927,
                    "duration": 0.3333331833333091
                },
                {
                    "name": "E5",
                    "midi": 76,
                    "time": 208.61818569166692,
                    "velocity": 0.3858267716535433,
                    "duration": 0.32258050000001504
                },
                {
                    "name": "G5",
                    "midi": 79,
                    "time": 208.95151887500026,
                    "velocity": 0.4251968503937008,
                    "duration": 1.080644675000002
                },
                {
                    "name": "F5",
                    "midi": 77,
                    "time": 209.96764745000027,
                    "velocity": 0.4881889763779528,
                    "duration": 0.30107513333331326
                },
                {
                    "name": "E5",
                    "midi": 76,
                    "time": 210.25796990000026,
                    "velocity": 0.47244094488188976,
                    "duration": 0.3333331833333091
                },
                {
                    "name": "D5",
                    "midi": 74,
                    "time": 210.58055040000025,
                    "velocity": 0.47244094488188976,
                    "duration": 0.31182781666666415
                },
                {
                    "name": "C5",
                    "midi": 72,
                    "time": 210.8923782166669,
                    "velocity": 0.48031496062992124,
                    "duration": 1.0430102833333308
                },
                {
                    "name": "B4",
                    "midi": 71,
                    "time": 211.90313045000025,
                    "velocity": 0.4645669291338583,
                    "duration": 0.3602148916666579
                },
                {
                    "name": "A4",
                    "midi": 69,
                    "time": 212.25796900000023,
                    "velocity": 0.47244094488188976,
                    "duration": 0.32258050000001504
                },
                {
                    "name": "G4",
                    "midi": 67,
                    "time": 212.55904413333357,
                    "velocity": 0.4015748031496063,
                    "duration": 0.19354830000003176
                },
                {
                    "name": "G4",
                    "midi": 67,
                    "time": 212.86011926666694,
                    "velocity": 0.4094488188976378,
                    "duration": 0.9946232083333371
                },
                {
                    "name": "E4",
                    "midi": 64,
                    "time": 213.85474247500028,
                    "velocity": 0.5354330708661418,
                    "duration": 0.27956976666666833
                },
                {
                    "name": "F4",
                    "midi": 65,
                    "time": 214.15044126666695,
                    "velocity": 0.44881889763779526,
                    "duration": 0.27956976666666833
                },
                {
                    "name": "G4",
                    "midi": 67,
                    "time": 214.47302176666696,
                    "velocity": 0.48031496062992124,
                    "duration": 0.1021504916666629
                },
                {
                    "name": "A4",
                    "midi": 69,
                    "time": 214.7740969000003,
                    "velocity": 0.33858267716535434,
                    "duration": 0.08602146666666499
                },
                {
                    "name": "B4",
                    "midi": 71,
                    "time": 215.06979569166697,
                    "velocity": 0.4330708661417323,
                    "duration": 0.08064512499998955
                },
                {
                    "name": "C5",
                    "midi": 72,
                    "time": 215.39775253333363,
                    "velocity": 0.4251968503937008,
                    "duration": 0.08602146666666499
                },
                {
                    "name": "D5",
                    "midi": 74,
                    "time": 215.72033303333362,
                    "velocity": 0.4251968503937008,
                    "duration": 0.07526878333334253
                },
                {
                    "name": "E5",
                    "midi": 76,
                    "time": 216.02678450833363,
                    "velocity": 0.4409448818897638,
                    "duration": 0.08064512499998955
                },
                {
                    "name": "F5",
                    "midi": 77,
                    "time": 216.3386123250003,
                    "velocity": 0.4566929133858268,
                    "duration": 0.07526878333334253
                },
                {
                    "name": "G5",
                    "midi": 79,
                    "time": 216.66656916666696,
                    "velocity": 0.4251968503937008,
                    "duration": 1.3333327333333216
                },
                {
                    "name": "G5",
                    "midi": 79,
                    "time": 218.66119192500028,
                    "velocity": 0.4094488188976378,
                    "duration": 0.6344083166666792
                },
                {
                    "name": "A5",
                    "midi": 81,
                    "time": 219.29022390000029,
                    "velocity": 0.4094488188976378,
                    "duration": 0.6505373416666771
                },
                {
                    "name": "A#5",
                    "midi": 82,
                    "time": 219.90850319166697,
                    "velocity": 0.48031496062992124,
                    "duration": 0.5645158749999837
                },
                {
                    "name": "A#5",
                    "midi": 82,
                    "time": 220.5751695583336,
                    "velocity": 0.5196850393700787,
                    "duration": 1.935483000000005
                },
                {
                    "name": "A5",
                    "midi": 81,
                    "time": 222.48914719166694,
                    "velocity": 0.44881889763779526,
                    "duration": 0.3763439166666842
                },
                {
                    "name": "G5",
                    "midi": 79,
                    "time": 222.84936208333363,
                    "velocity": 0.41732283464566927,
                    "duration": 0.3064514749999887
                },
                {
                    "name": "F5",
                    "midi": 77,
                    "time": 223.15581355833362,
                    "velocity": 0.4330708661417323,
                    "duration": 0.3655912333333333
                },
                {
                    "name": "E5",
                    "midi": 76,
                    "time": 223.48377040000028,
                    "velocity": 0.3700787401574803,
                    "duration": 0.3172041583333396
                },
                {
                    "name": "D5",
                    "midi": 74,
                    "time": 223.79559821666695,
                    "velocity": 0.4015748031496063,
                    "duration": 0.3494622083333354
                },
                {
                    "name": "C#5",
                    "midi": 73,
                    "time": 224.1074260333336,
                    "velocity": 0.3858267716535433,
                    "duration": 0.3010751333333417
                },
                {
                    "name": "D5",
                    "midi": 74,
                    "time": 224.40850116666695,
                    "velocity": 0.3779527559055118,
                    "duration": 1.1935478499999874
                },
                {
                    "name": "F5",
                    "midi": 77,
                    "time": 226.39237124166695,
                    "velocity": 0.44881889763779526,
                    "duration": 0.6344083166666792
                },
                {
                    "name": "G5",
                    "midi": 79,
                    "time": 227.02677955833363,
                    "velocity": 0.4330708661417323,
                    "duration": 0.672042708333322
                },
                {
                    "name": "G#5",
                    "midi": 80,
                    "time": 227.67194055833363,
                    "velocity": 0.47244094488188976,
                    "duration": 0.5322578249999879
                },
                {
                    "name": "G#5",
                    "midi": 80,
                    "time": 228.31710155833363,
                    "velocity": 0.5748031496062992,
                    "duration": 1.838708849999989
                },
                {
                    "name": "G5",
                    "midi": 79,
                    "time": 230.27408992500028,
                    "velocity": 0.33070866141732286,
                    "duration": 0.3387095249999845
                },
                {
                    "name": "F5",
                    "midi": 77,
                    "time": 230.60204676666694,
                    "velocity": 0.4251968503937008,
                    "duration": 0.31720415833331117
                },
                {
                    "name": "E5",
                    "midi": 76,
                    "time": 230.90849824166693,
                    "velocity": 0.3858267716535433,
                    "duration": 0.31720415833331117
                },
                {
                    "name": "D5",
                    "midi": 74,
                    "time": 231.21494971666692,
                    "velocity": 0.33858267716535434,
                    "duration": 0.349462208333307
                },
                {
                    "name": "C5",
                    "midi": 72,
                    "time": 231.53215387500023,
                    "velocity": 0.3700787401574803,
                    "duration": 0.32258050000001504
                },
                {
                    "name": "B4",
                    "midi": 71,
                    "time": 231.83322900833357,
                    "velocity": 0.33858267716535434,
                    "duration": 0.3172041583333396
                },
                {
                    "name": "C5",
                    "midi": 72,
                    "time": 232.14505682500024,
                    "velocity": 0.4015748031496063,
                    "duration": 1.2258059000000117
                },
                {
                    "name": "C5",
                    "midi": 72,
                    "time": 234.16118495000023,
                    "velocity": 0.4881889763779528,
                    "duration": 0.6612900249999996
                },
                {
                    "name": "D5",
                    "midi": 74,
                    "time": 234.7955932666669,
                    "velocity": 0.3700787401574803,
                    "duration": 0.6397846583333262
                },
                {
                    "name": "E5",
                    "midi": 76,
                    "time": 235.41924890000024,
                    "velocity": 0.4645669291338583,
                    "duration": 0.6505373416666771
                },
                {
                    "name": "A4",
                    "midi": 69,
                    "time": 236.06978624166692,
                    "velocity": 0.5354330708661418,
                    "duration": 0.2903224499999908
                },
                {
                    "name": "C6",
                    "midi": 84,
                    "time": 236.70957090000024,
                    "velocity": 0.5511811023622047,
                    "duration": 1.3279563916666746
                },
                {
                    "name": "B5",
                    "midi": 83,
                    "time": 238.03752729166692,
                    "velocity": 0.6299212598425197,
                    "duration": 0.34408586666665997
                },
                {
                    "name": "A5",
                    "midi": 81,
                    "time": 238.38161315833358,
                    "velocity": 0.4094488188976378,
                    "duration": 0.2903224500000192
                },
                {
                    "name": "G5",
                    "midi": 79,
                    "time": 238.66655926666692,
                    "velocity": 0.4015748031496063,
                    "duration": 0.3440858666666884
                },
                {
                    "name": "F5",
                    "midi": 77,
                    "time": 238.97301074166694,
                    "velocity": 0.44881889763779526,
                    "duration": 0.3440858666666884
                },
                {
                    "name": "E5",
                    "midi": 76,
                    "time": 239.29559124166695,
                    "velocity": 0.3228346456692913,
                    "duration": 0.3440858666666884
                },
                {
                    "name": "D5",
                    "midi": 74,
                    "time": 239.61817174166697,
                    "velocity": 0.4251968503937008,
                    "duration": 0.1290322000000117
                },
                {
                    "name": "D5",
                    "midi": 74,
                    "time": 239.88698882500032,
                    "velocity": 0.47244094488188976,
                    "duration": 0.10752683333330992
                },
                {
                    "name": "C5",
                    "midi": 72,
                    "time": 239.9676339500003,
                    "velocity": 0.4094488188976378,
                    "duration": 0.30107513333331326
                },
                {
                    "name": "B4",
                    "midi": 71,
                    "time": 240.24720371666695,
                    "velocity": 0.44881889763779526,
                    "duration": 0.34408586666665997
                },
                {
                    "name": "C5",
                    "midi": 72,
                    "time": 240.56440787500028,
                    "velocity": 0.4330708661417323,
                    "duration": 0.35483854999998243
                },
                {
                    "name": "D5",
                    "midi": 74,
                    "time": 240.8816120333336,
                    "velocity": 0.3543307086614173,
                    "duration": 0.32795684166666206
                },
                {
                    "name": "E5",
                    "midi": 76,
                    "time": 241.17731082500026,
                    "velocity": 0.4251968503937008,
                    "duration": 0.3870966000000067
                },
                {
                    "name": "F5",
                    "midi": 77,
                    "time": 241.52139669166692,
                    "velocity": 0.4566929133858268,
                    "duration": 0.10215049166669132
                },
                {
                    "name": "A5",
                    "midi": 81,
                    "time": 241.84397719166694,
                    "velocity": 0.4566929133858268,
                    "duration": 0.29569879166666624
                },
                {
                    "name": "G5",
                    "midi": 79,
                    "time": 242.14505232500028,
                    "velocity": 0.3228346456692913,
                    "duration": 0.34408586666665997
                },
                {
                    "name": "F5",
                    "midi": 77,
                    "time": 242.45150380000027,
                    "velocity": 0.3937007874015748,
                    "duration": 0.3494622083333354
                },
                {
                    "name": "D5",
                    "midi": 74,
                    "time": 242.82247137500028,
                    "velocity": 0.33070866141732286,
                    "duration": 0.3064514749999887
                },
                {
                    "name": "A4",
                    "midi": 69,
                    "time": 243.13429919166694,
                    "velocity": 0.33070866141732286,
                    "duration": 0.38172025833333123
                },
                {
                    "name": "B4",
                    "midi": 71,
                    "time": 243.49989042500027,
                    "velocity": 0.47244094488188976,
                    "duration": 0.37096757500000876
                },
                {
                    "name": "C5",
                    "midi": 72,
                    "time": 243.5106431083336,
                    "velocity": 0.31496062992125984,
                    "duration": 0.010752683333350888
                },
                {
                    "name": "C5",
                    "midi": 72,
                    "time": 243.8493526333336,
                    "velocity": 0.5354330708661418,
                    "duration": 3.8172025833333407
                },
                {
                    "name": "C5",
                    "midi": 72,
                    "time": 249.65042529166695,
                    "velocity": 0.5669291338582677,
                    "duration": 0.6505373416666771
                },
                {
                    "name": "E5",
                    "midi": 76,
                    "time": 250.3063389750003,
                    "velocity": 0.6614173228346457,
                    "duration": 0.58064490000001
                },
                {
                    "name": "G5",
                    "midi": 79,
                    "time": 250.91386558333363,
                    "velocity": 0.4645669291338583,
                    "duration": 0.6397846583333262
                },
                {
                    "name": "A#5",
                    "midi": 82,
                    "time": 251.58590829166695,
                    "velocity": 0.6771653543307087,
                    "duration": 0.9892468666666616
                },
                {
                    "name": "A5",
                    "midi": 81,
                    "time": 252.54289710833362,
                    "velocity": 0.49606299212598426,
                    "duration": 0.3225804999999866
                },
                {
                    "name": "G5",
                    "midi": 79,
                    "time": 252.8493485833336,
                    "velocity": 0.5905511811023622,
                    "duration": 0.31182781666666415
                },
                {
                    "name": "F5",
                    "midi": 77,
                    "time": 253.15042371666695,
                    "velocity": 0.4566929133858268,
                    "duration": 0.35483854999998243
                },
                {
                    "name": "E5",
                    "midi": 76,
                    "time": 253.47300421666694,
                    "velocity": 0.6220472440944882,
                    "duration": 1.2849456583333279
                },
                {
                    "name": "A#4",
                    "midi": 70,
                    "time": 255.4246162416669,
                    "velocity": 0.6456692913385826,
                    "duration": 0.9569888166666374
                },
                {
                    "name": "A4",
                    "midi": 69,
                    "time": 256.3869814000002,
                    "velocity": 0.4251968503937008,
                    "duration": 0.30107513333331326
                },
                {
                    "name": "G4",
                    "midi": 67,
                    "time": 256.68268019166686,
                    "velocity": 0.47244094488188976,
                    "duration": 0.3602148916666579
                },
                {
                    "name": "F4",
                    "midi": 65,
                    "time": 257.0106370333335,
                    "velocity": 0.4645669291338583,
                    "duration": 0.32795684166666206
                },
                {
                    "name": "E4",
                    "midi": 64,
                    "time": 257.32784119166683,
                    "velocity": 0.5905511811023622,
                    "duration": 1.010752233333335
                },
                {
                    "name": "D4",
                    "midi": 62,
                    "time": 258.3063353750002,
                    "velocity": 0.41732283464566927,
                    "duration": 0.32795684166666206
                },
                {
                    "name": "C4",
                    "midi": 60,
                    "time": 258.6235395333335,
                    "velocity": 0.4881889763779528,
                    "duration": 0.2849461083333722
                },
                {
                    "name": "A#3",
                    "midi": 58,
                    "time": 258.90848564166686,
                    "velocity": 0.6141732283464567,
                    "duration": 0.32795684166666206
                },
                {
                    "name": "A3",
                    "midi": 57,
                    "time": 259.24719516666687,
                    "velocity": 0.4409448818897638,
                    "duration": 0.35483855000001086
                },
                {
                    "name": "C6",
                    "midi": 84,
                    "time": 261.26332329166684,
                    "velocity": 0.5748031496062992,
                    "duration": 2.6075257083333554
                },
                {
                    "name": "B5",
                    "midi": 83,
                    "time": 263.84396729166684,
                    "velocity": 0.5748031496062992,
                    "duration": 0.6881717333333768
                },
                {
                    "name": "A5",
                    "midi": 81,
                    "time": 264.52138634166687,
                    "velocity": 0.4645669291338583,
                    "duration": 0.5483868500000426
                },
                {
                    "name": "A5",
                    "midi": 81,
                    "time": 265.14504197500025,
                    "velocity": 0.4094488188976378,
                    "duration": 0.6451609999999732
                },
                {
                    "name": "G5",
                    "midi": 79,
                    "time": 265.7848266333336,
                    "velocity": 0.4409448818897638,
                    "duration": 0.6612900249999711
                },
                {
                    "name": "F#5",
                    "midi": 78,
                    "time": 266.4084822666669,
                    "velocity": 0.6692913385826772,
                    "duration": 0.6666663666666182
                },
                {
                    "name": "A5",
                    "midi": 81,
                    "time": 267.05901960833353,
                    "velocity": 0.4645669291338583,
                    "duration": 0.3333331833333091
                },
                {
                    "name": "G5",
                    "midi": 79,
                    "time": 267.3708474250002,
                    "velocity": 0.5275590551181102,
                    "duration": 0.36021489166660103
                },
                {
                    "name": "F#5",
                    "midi": 78,
                    "time": 267.70955695000015,
                    "velocity": 0.6299212598425197,
                    "duration": 0.349462208333307
                },
                {
                    "name": "G5",
                    "midi": 79,
                    "time": 268.0321374500001,
                    "velocity": 0.41732283464566927,
                    "duration": 0.33870952500001295
                },
                {
                    "name": "F#5",
                    "midi": 78,
                    "time": 268.36009429166677,
                    "velocity": 0.6141732283464567,
                    "duration": 0.4301073333333534
                },
                {
                    "name": "G5",
                    "midi": 79,
                    "time": 268.7471908916668,
                    "velocity": 0.41732283464566927,
                    "duration": 0.2419353750000255
                },
                {
                    "name": "B5",
                    "midi": 83,
                    "time": 269.0213843166668,
                    "velocity": 0.4645669291338583,
                    "duration": 0.32795684166666206
                },
                {
                    "name": "A5",
                    "midi": 81,
                    "time": 269.3224594500001,
                    "velocity": 0.36220472440944884,
                    "duration": 0.317204158333368
                },
                {
                    "name": "G5",
                    "midi": 79,
                    "time": 269.6289109250001,
                    "velocity": 0.4015748031496063,
                    "duration": 0.3602148916666579
                },
                {
                    "name": "F5",
                    "midi": 77,
                    "time": 269.9729967916668,
                    "velocity": 0.4881889763779528,
                    "duration": 0.30107513333331326
                },
                {
                    "name": "E5",
                    "midi": 76,
                    "time": 270.2579429000001,
                    "velocity": 0.4015748031496063,
                    "duration": 0.37096757500000876
                },
                {
                    "name": "D5",
                    "midi": 74,
                    "time": 270.60202876666676,
                    "velocity": 0.3858267716535433,
                    "duration": 0.3010751333333701
                },
                {
                    "name": "A5",
                    "midi": 81,
                    "time": 270.91923292500013,
                    "velocity": 0.41732283464566927,
                    "duration": 0.34408586666665997
                },
                {
                    "name": "G5",
                    "midi": 79,
                    "time": 271.23643708333344,
                    "velocity": 0.4094488188976378,
                    "duration": 0.317204158333368
                },
                {
                    "name": "F5",
                    "midi": 77,
                    "time": 271.52675953333346,
                    "velocity": 0.4409448818897638,
                    "duration": 0.349462208333307
                },
                {
                    "name": "E5",
                    "midi": 76,
                    "time": 271.8547163750001,
                    "velocity": 0.44881889763779526,
                    "duration": 0.34408586666665997
                },
                {
                    "name": "D5",
                    "midi": 74,
                    "time": 272.1504151666668,
                    "velocity": 0.33070866141732286,
                    "duration": 0.35483855000001086
                },
                {
                    "name": "C5",
                    "midi": 72,
                    "time": 272.49450103333345,
                    "velocity": 0.4409448818897638,
                    "duration": 0.317204158333368
                },
                {
                    "name": "G5",
                    "midi": 79,
                    "time": 272.82245787500017,
                    "velocity": 0.5433070866141733,
                    "duration": 0.3655912333333049
                },
                {
                    "name": "F5",
                    "midi": 77,
                    "time": 273.1557910583335,
                    "velocity": 0.49606299212598426,
                    "duration": 0.317204158333368
                },
                {
                    "name": "E5",
                    "midi": 76,
                    "time": 273.4622425333335,
                    "velocity": 0.5354330708661418,
                    "duration": 0.3279568416667189
                },
                {
                    "name": "D5",
                    "midi": 74,
                    "time": 273.77944669166686,
                    "velocity": 0.47244094488188976,
                    "duration": 0.3064514750000171
                },
                {
                    "name": "C5",
                    "midi": 72,
                    "time": 274.0858981666669,
                    "velocity": 0.4566929133858268,
                    "duration": 0.3763439166666558
                },
                {
                    "name": "B4",
                    "midi": 71,
                    "time": 274.4192313500002,
                    "velocity": 0.5039370078740157,
                    "duration": 0.29569879166666624
                },
                {
                    "name": "C5",
                    "midi": 72,
                    "time": 274.71493014166685,
                    "velocity": 0.4251968503937008,
                    "duration": 3.9677401499999974
                },
                {
                    "name": "C5",
                    "midi": 72,
                    "time": 280.65578768333353,
                    "velocity": 0.5905511811023622,
                    "duration": 0.6505373416666771
                },
                {
                    "name": "E5",
                    "midi": 76,
                    "time": 281.27944331666686,
                    "velocity": 0.6377952755905512,
                    "duration": 0.6075266083333304
                },
                {
                    "name": "G5",
                    "midi": 79,
                    "time": 281.8869699250002,
                    "velocity": 0.5354330708661418,
                    "duration": 0.6881717333333768
                },
                {
                    "name": "A#5",
                    "midi": 82,
                    "time": 282.5482599500002,
                    "velocity": 0.6456692913385826,
                    "duration": 1.0215049166666859
                },
                {
                    "name": "A5",
                    "midi": 81,
                    "time": 283.5375068166669,
                    "velocity": 0.5354330708661418,
                    "duration": 0.36559123333336174
                },
                {
                    "name": "G5",
                    "midi": 79,
                    "time": 283.8762163416669,
                    "velocity": 0.5039370078740157,
                    "duration": 0.32258050000001504
                },
                {
                    "name": "F5",
                    "midi": 77,
                    "time": 284.1880441583336,
                    "velocity": 0.4566929133858268,
                    "duration": 0.34946220833336383
                },
                {
                    "name": "E5",
                    "midi": 76,
                    "time": 284.50524831666695,
                    "velocity": 0.5275590551181102,
                    "duration": 1.2473112666666566
                },
                {
                    "name": "A#4",
                    "midi": 70,
                    "time": 286.4622366833336,
                    "velocity": 0.6299212598425197,
                    "duration": 0.9677414999999883
                },
                {
                    "name": "A4",
                    "midi": 69,
                    "time": 287.4246018416669,
                    "velocity": 0.5590551181102362,
                    "duration": 0.3064514749999603
                },
                {
                    "name": "G4",
                    "midi": 67,
                    "time": 287.7256769750002,
                    "velocity": 0.5039370078740157,
                    "duration": 0.3387095249999561
                },
                {
                    "name": "F4",
                    "midi": 65,
                    "time": 288.0321284500002,
                    "velocity": 0.3779527559055118,
                    "duration": 0.31182781666666415
                },
                {
                    "name": "E4",
                    "midi": 64,
                    "time": 288.32782724166685,
                    "velocity": 0.5196850393700787,
                    "duration": 1.005375891666688
                },
                {
                    "name": "D4",
                    "midi": 62,
                    "time": 289.3063214250002,
                    "velocity": 0.4251968503937008,
                    "duration": 0.2956987916667231
                },
                {
                    "name": "C4",
                    "midi": 60,
                    "time": 289.5858911916669,
                    "velocity": 0.3779527559055118,
                    "duration": 0.3602148916666579
                },
                {
                    "name": "A#3",
                    "midi": 58,
                    "time": 289.9192243750002,
                    "velocity": 0.6456692913385826,
                    "duration": 0.3064514750000171
                },
                {
                    "name": "A3",
                    "midi": 57,
                    "time": 290.22567585000024,
                    "velocity": 0.47244094488188976,
                    "duration": 0.6451609999999732
                },
                {
                    "name": "C6",
                    "midi": 84,
                    "time": 292.3063200750002,
                    "velocity": 0.5433070866141733,
                    "duration": 2.5967730250000045
                },
                {
                    "name": "B5",
                    "midi": 83,
                    "time": 294.86008236666686,
                    "velocity": 0.5511811023622047,
                    "duration": 0.6935480750000238
                },
                {
                    "name": "A5",
                    "midi": 81,
                    "time": 295.54287775833353,
                    "velocity": 0.4645669291338583,
                    "duration": 0.5215051416666938
                },
                {
                    "name": "A5",
                    "midi": 81,
                    "time": 296.15578070833357,
                    "velocity": 0.4881889763779528,
                    "duration": 0.5860212416666286
                },
                {
                    "name": "G5",
                    "midi": 79,
                    "time": 296.73642560833355,
                    "velocity": 0.5039370078740157,
                    "duration": 0.6666663666666182
                },
                {
                    "name": "F#5",
                    "midi": 78,
                    "time": 297.3654575833335,
                    "velocity": 0.6456692913385826,
                    "duration": 0.6774190500000259
                },
                {
                    "name": "A5",
                    "midi": 81,
                    "time": 298.0213712666669,
                    "velocity": 0.47244094488188976,
                    "duration": 0.36021489166660103
                },
                {
                    "name": "G5",
                    "midi": 79,
                    "time": 298.3493281083335,
                    "velocity": 0.49606299212598426,
                    "duration": 0.3602148916666579
                },
                {
                    "name": "F#5",
                    "midi": 78,
                    "time": 298.6987903166668,
                    "velocity": 0.6377952755905512,
                    "duration": 0.33870952500001295
                },
                {
                    "name": "G5",
                    "midi": 79,
                    "time": 299.0106181333335,
                    "velocity": 0.4251968503937008,
                    "duration": 0.35483855000001086
                },
                {
                    "name": "A5",
                    "midi": 81,
                    "time": 299.3493276583335,
                    "velocity": 0.4251968503937008,
                    "duration": 0.3225804999999582
                },
                {
                    "name": "G5",
                    "midi": 79,
                    "time": 299.6504027916668,
                    "velocity": 0.4251968503937008,
                    "duration": 0.27956976666666833
                },
                {
                    "name": "G5",
                    "midi": 79,
                    "time": 299.9891123166668,
                    "velocity": 0.47244094488188976,
                    "duration": 0.349462208333307
                },
                {
                    "name": "F5",
                    "midi": 77,
                    "time": 300.3331981833335,
                    "velocity": 0.49606299212598426,
                    "duration": 0.3225804999999582
                },
                {
                    "name": "E5",
                    "midi": 76,
                    "time": 300.6342733166668,
                    "velocity": 0.3858267716535433,
                    "duration": 0.349462208333307
                },
                {
                    "name": "F5",
                    "midi": 77,
                    "time": 300.9514774750001,
                    "velocity": 0.49606299212598426,
                    "duration": 0.35483855000001086
                },
                {
                    "name": "G5",
                    "midi": 79,
                    "time": 301.27943431666677,
                    "velocity": 0.4094488188976378,
                    "duration": 0.33870952500001295
                },
                {
                    "name": "F5",
                    "midi": 77,
                    "time": 301.59663847500013,
                    "velocity": 0.5196850393700787,
                    "duration": 0.1881719583333279
                },
                {
                    "name": "F5",
                    "midi": 77,
                    "time": 301.87083190000016,
                    "velocity": 0.4645669291338583,
                    "duration": 0.34946220833336383
                },
                {
                    "name": "E5",
                    "midi": 76,
                    "time": 302.20954142500017,
                    "velocity": 0.4566929133858268,
                    "duration": 0.32258050000001504
                },
                {
                    "name": "D#5",
                    "midi": 75,
                    "time": 302.5321219250002,
                    "velocity": 0.6062992125984252,
                    "duration": 0.317204158333368
                },
                {
                    "name": "E5",
                    "midi": 76,
                    "time": 302.8224443750002,
                    "velocity": 0.4330708661417323,
                    "duration": 0.34946220833336383
                },
                {
                    "name": "F5",
                    "midi": 77,
                    "time": 303.1611539000002,
                    "velocity": 0.5669291338582677,
                    "duration": 0.33870952500001295
                },
                {
                    "name": "E5",
                    "midi": 76,
                    "time": 303.4783580583336,
                    "velocity": 0.5118110236220472,
                    "duration": 0.1344085416666303
                },
                {
                    "name": "E5",
                    "midi": 76,
                    "time": 303.78480953333354,
                    "velocity": 0.47244094488188976,
                    "duration": 0.32795684166666206
                },
                {
                    "name": "D5",
                    "midi": 74,
                    "time": 304.0966373500002,
                    "velocity": 0.4094488188976378,
                    "duration": 0.31720415833331117
                },
                {
                    "name": "C#5",
                    "midi": 73,
                    "time": 304.42459419166687,
                    "velocity": 0.6377952755905512,
                    "duration": 0.3225804999999582
                },
                {
                    "name": "D5",
                    "midi": 74,
                    "time": 304.7095403000002,
                    "velocity": 0.3858267716535433,
                    "duration": 0.354838549999954
                },
                {
                    "name": "E5",
                    "midi": 76,
                    "time": 305.04824982500014,
                    "velocity": 0.49606299212598426,
                    "duration": 0.3064514750000171
                },
                {
                    "name": "D5",
                    "midi": 74,
                    "time": 305.35470130000016,
                    "velocity": 0.3858267716535433,
                    "duration": 0.3064514750000171
                },
                {
                    "name": "C5",
                    "midi": 72,
                    "time": 305.72566887500017,
                    "velocity": 0.5275590551181102,
                    "duration": 2.026880808333317
                },
                {
                    "name": "D5",
                    "midi": 74,
                    "time": 309.6342692666668,
                    "velocity": 0.5196850393700787,
                    "duration": 1.9247303166666825
                },
                {
                    "name": "E5",
                    "midi": 76,
                    "time": 311.53211787500015,
                    "velocity": 0.5275590551181102,
                    "duration": 0.3655912333333049
                },
                {
                    "name": "D5",
                    "midi": 74,
                    "time": 311.8762037416668,
                    "velocity": 0.5118110236220472,
                    "duration": 0.2903224499999624
                },
                {
                    "name": "C#5",
                    "midi": 73,
                    "time": 312.1880315583334,
                    "velocity": 0.48031496062992124,
                    "duration": 0.2956987916666094
                },
                {
                    "name": "C5",
                    "midi": 72,
                    "time": 312.24717131666677,
                    "velocity": 0.16535433070866143,
                    "duration": 0.1451612249999812
                },
                {
                    "name": "D5",
                    "midi": 74,
                    "time": 312.4891066916667,
                    "velocity": 0.33858267716535434,
                    "duration": 0.33870952500001295
                },
                {
                    "name": "E5",
                    "midi": 76,
                    "time": 312.80093450833334,
                    "velocity": 0.5039370078740157,
                    "duration": 0.3602148916667147
                },
                {
                    "name": "D5",
                    "midi": 74,
                    "time": 313.1342676916667,
                    "velocity": 0.47244094488188976,
                    "duration": 0.3064514750000171
                },
                {
                    "name": "C5",
                    "midi": 72,
                    "time": 313.4245901416667,
                    "velocity": 0.4251968503937008,
                    "duration": 1.4462359083333354
                },
                {
                    "name": "E5",
                    "midi": 76,
                    "time": 314.8331916583334,
                    "velocity": 0.5275590551181102,
                    "duration": 0.7043007583333178
                },
                {
                    "name": "G5",
                    "midi": 79,
                    "time": 315.4944816833334,
                    "velocity": 0.4409448818897638,
                    "duration": 1.1129027250000263
                },
                {
                    "name": "D5",
                    "midi": 74,
                    "time": 317.4192120000001,
                    "velocity": 0.4094488188976378,
                    "duration": 1.9677410499999723
                },
                {
                    "name": "E5",
                    "midi": 76,
                    "time": 319.3762003666667,
                    "velocity": 0.3700787401574803,
                    "duration": 0.3333331833333659
                },
                {
                    "name": "D5",
                    "midi": 74,
                    "time": 319.67727550000006,
                    "velocity": 0.3779527559055118,
                    "duration": 0.27956976666666833
                },
                {
                    "name": "C#5",
                    "midi": 73,
                    "time": 319.97297429166673,
                    "velocity": 0.3937007874015748,
                    "duration": 0.30107513333331326
                },
                {
                    "name": "D5",
                    "midi": 74,
                    "time": 320.2848021083334,
                    "velocity": 0.33858267716535434,
                    "duration": 0.317204158333368
                },
                {
                    "name": "E5",
                    "midi": 76,
                    "time": 320.5912535833334,
                    "velocity": 0.4330708661417323,
                    "duration": 0.32795684166666206
                },
                {
                    "name": "D5",
                    "midi": 74,
                    "time": 320.86544700833343,
                    "velocity": 0.28346456692913385,
                    "duration": 0.3602148916666579
                },
                {
                    "name": "C5",
                    "midi": 72,
                    "time": 321.2095328750001,
                    "velocity": 0.4015748031496063,
                    "duration": 2.2473108166666407
                },
                {
                    "name": "E5",
                    "midi": 76,
                    "time": 323.5751232083334,
                    "velocity": 0.47244094488188976,
                    "duration": 0.13978488333333416
                },
                {
                    "name": "D5",
                    "midi": 74,
                    "time": 323.91383273333344,
                    "velocity": 0.3779527559055118,
                    "duration": 0.12903219999998328
                },
                {
                    "name": "C5",
                    "midi": 72,
                    "time": 324.2095315250001,
                    "velocity": 0.41732283464566927,
                    "duration": 0.12903219999998328
                },
                {
                    "name": "B4",
                    "midi": 71,
                    "time": 324.50523031666677,
                    "velocity": 0.4881889763779528,
                    "duration": 0.11827951666668923
                },
                {
                    "name": "A4",
                    "midi": 69,
                    "time": 324.80630545000014,
                    "velocity": 0.5196850393700787,
                    "duration": 0.09139780833334044
                },
                {
                    "name": "G4",
                    "midi": 67,
                    "time": 325.1020042416668,
                    "velocity": 0.4251968503937008,
                    "duration": 2.0483861750000187
                },
                {
                    "name": "C5",
                    "midi": 72,
                    "time": 327.41920750000014,
                    "velocity": 0.4094488188976378,
                    "duration": 0.15591390833333207
                },
                {
                    "name": "B4",
                    "midi": 71,
                    "time": 327.72565897500016,
                    "velocity": 0.4015748031496063,
                    "duration": 0.1612902499999791
                },
                {
                    "name": "A4",
                    "midi": 69,
                    "time": 328.0374867916668,
                    "velocity": 0.4094488188976378,
                    "duration": 0.13978488333333416
                },
                {
                    "name": "G4",
                    "midi": 67,
                    "time": 328.3331855833335,
                    "velocity": 0.3937007874015748,
                    "duration": 0.16666659166668296
                },
                {
                    "name": "F4",
                    "midi": 65,
                    "time": 328.63963705833345,
                    "velocity": 0.33070866141732286,
                    "duration": 0.2150536666666767
                },
                {
                    "name": "E4",
                    "midi": 64,
                    "time": 328.95684121666676,
                    "velocity": 0.49606299212598426,
                    "duration": 0.12903219999998328
                },
                {
                    "name": "C5",
                    "midi": 72,
                    "time": 329.2686690333334,
                    "velocity": 0.4645669291338583,
                    "duration": 0.18279561666662403
                },
                {
                    "name": "B4",
                    "midi": 71,
                    "time": 329.58049685000003,
                    "velocity": 0.4645669291338583,
                    "duration": 0.16666659166668296
                },
                {
                    "name": "A4",
                    "midi": 69,
                    "time": 329.9245827166667,
                    "velocity": 0.3700787401574803,
                    "duration": 0.13440854166668714
                },
                {
                    "name": "G4",
                    "midi": 67,
                    "time": 330.22565785000006,
                    "velocity": 0.41732283464566927,
                    "duration": 0.13440854166668714
                },
                {
                    "name": "F4",
                    "midi": 65,
                    "time": 330.5643673750001,
                    "velocity": 0.3779527559055118,
                    "duration": 0.20967732500002967
                },
                {
                    "name": "E4",
                    "midi": 64,
                    "time": 330.88157153333344,
                    "velocity": 0.44881889763779526,
                    "duration": 0.10752683333333835
                },
                {
                    "name": "A4",
                    "midi": 69,
                    "time": 331.20415203333346,
                    "velocity": 0.4251968503937008,
                    "duration": 0.13978488333333416
                },
                {
                    "name": "G4",
                    "midi": 67,
                    "time": 331.5267325333335,
                    "velocity": 0.3779527559055118,
                    "duration": 0.18279561666668087
                },
                {
                    "name": "F4",
                    "midi": 65,
                    "time": 331.8708184000002,
                    "velocity": 0.3464566929133858,
                    "duration": 0.177419274999977
                },
                {
                    "name": "E4",
                    "midi": 64,
                    "time": 332.16651719166686,
                    "velocity": 0.41732283464566927,
                    "duration": 0.16666659166668296
                },
                {
                    "name": "D4",
                    "midi": 62,
                    "time": 332.4998503750002,
                    "velocity": 0.3858267716535433,
                    "duration": 0.09139780833334044
                },
                {
                    "name": "C4",
                    "midi": 60,
                    "time": 332.8331835583336,
                    "velocity": 0.4251968503937008,
                    "duration": 0.6236556333333283
                },
                {
                    "name": "G3",
                    "midi": 55,
                    "time": 333.49447358333356,
                    "velocity": 0.4881889763779528,
                    "duration": 0.31182781666666415
                },
                {
                    "name": "B3",
                    "midi": 59,
                    "time": 334.15576360833353,
                    "velocity": 0.47244094488188976,
                    "duration": 0.48387074999999413
                },
                {
                    "name": "C4",
                    "midi": 60,
                    "time": 334.66113972500017,
                    "velocity": 0.5905511811023622,
                    "duration": 0.6827953916666729
                },
                {
                    "name": "G3",
                    "midi": 55,
                    "time": 335.36006414166684,
                    "velocity": 0.5590551181102362,
                    "duration": 0.15591390833333207
                },
                {
                    "name": "B3",
                    "midi": 59,
                    "time": 336.0106014833335,
                    "velocity": 0.5984251968503937,
                    "duration": 0.6720427083332652
                },
                {
                    "name": "C4",
                    "midi": 60,
                    "time": 336.6342571166668,
                    "velocity": 0.5354330708661418,
                    "duration": 0.672042708333322
                },
                {
                    "name": "G3",
                    "midi": 55,
                    "time": 337.31167616666676,
                    "velocity": 0.6377952755905512,
                    "duration": 0.16666659166668296
                },
                {
                    "name": "B3",
                    "midi": 59,
                    "time": 337.9729661916668,
                    "velocity": 0.6377952755905512,
                    "duration": 0.6075266083333304
                },
                {
                    "name": "C4",
                    "midi": 60,
                    "time": 338.5643637750001,
                    "velocity": 0.6062992125984252,
                    "duration": 0.672042708333322
                },
                {
                    "name": "G3",
                    "midi": 55,
                    "time": 339.23640648333344,
                    "velocity": 0.6771653543307087,
                    "duration": 0.17204293333332998
                },
                {
                    "name": "B3",
                    "midi": 59,
                    "time": 339.89232016666676,
                    "velocity": 0.7322834645669292,
                    "duration": 0.32795684166666206
                },
                {
                    "name": "C4",
                    "midi": 60,
                    "time": 340.51059945833344,
                    "velocity": 0.7244094488188977,
                    "duration": 0.6774190500000259
                },
                {
                    "name": "G5",
                    "midi": 79,
                    "time": 342.52672758333347,
                    "velocity": 0.6220472440944882,
                    "duration": 1.1505371166666691
                },
                {
                    "name": "A5",
                    "midi": 81,
                    "time": 343.8116732416668,
                    "velocity": 0.7716535433070866,
                    "duration": 0.13978488333333416
                },
                {
                    "name": "B5",
                    "midi": 83,
                    "time": 344.15038276666684,
                    "velocity": 0.8110236220472441,
                    "duration": 0.08602146666669341
                },
                {
                    "name": "C6",
                    "midi": 84,
                    "time": 344.4675869250002,
                    "velocity": 0.7086614173228346,
                    "duration": 0.666666366666675
                }
            ],
            "controlChanges": {
                "1": [
                    {
                        "number": 1,
                        "time": 6.510749758333334,
                        "value": 0.007874015748031496
                    },
                    {
                        "number": 1,
                        "time": 6.569889516666667,
                        "value": 0.023622047244094488
                    },
                    {
                        "number": 1,
                        "time": 6.618276591666667,
                        "value": 0.031496062992125984
                    },
                    {
                        "number": 1,
                        "time": 6.6451583,
                        "value": 0.03937007874015748
                    },
                    {
                        "number": 1,
                        "time": 6.682792691666667,
                        "value": 0.047244094488188976
                    },
                    {
                        "number": 1,
                        "time": 6.704298058333333,
                        "value": 0.05511811023622047
                    },
                    {
                        "number": 1,
                        "time": 6.731179766666667,
                        "value": 0.07086614173228346
                    },
                    {
                        "number": 1,
                        "time": 6.752685133333333,
                        "value": 0.07874015748031496
                    },
                    {
                        "number": 1,
                        "time": 6.779566841666667,
                        "value": 0.08661417322834646
                    },
                    {
                        "number": 1,
                        "time": 6.801072208333333,
                        "value": 0.10236220472440945
                    },
                    {
                        "number": 1,
                        "time": 6.827953916666667,
                        "value": 0.11023622047244094
                    },
                    {
                        "number": 1,
                        "time": 6.844082941666667,
                        "value": 0.11811023622047244
                    },
                    {
                        "number": 1,
                        "time": 6.865588308333333,
                        "value": 0.13385826771653545
                    },
                    {
                        "number": 1,
                        "time": 6.892470016666667,
                        "value": 0.14173228346456693
                    },
                    {
                        "number": 1,
                        "time": 6.913975383333333,
                        "value": 0.15748031496062992
                    },
                    {
                        "number": 1,
                        "time": 6.9408570916666665,
                        "value": 0.16535433070866143
                    },
                    {
                        "number": 1,
                        "time": 6.973115141666667,
                        "value": 0.1732283464566929
                    },
                    {
                        "number": 1,
                        "time": 6.9999968500000005,
                        "value": 0.18110236220472442
                    },
                    {
                        "number": 1,
                        "time": 7.021502216666667,
                        "value": 0.1889763779527559
                    },
                    {
                        "number": 1,
                        "time": 7.059136608333334,
                        "value": 0.1968503937007874
                    },
                    {
                        "number": 1,
                        "time": 7.096771,
                        "value": 0.2125984251968504
                    },
                    {
                        "number": 1,
                        "time": 7.123652708333334,
                        "value": 0.2204724409448819
                    },
                    {
                        "number": 1,
                        "time": 7.145158075,
                        "value": 0.2283464566929134
                    },
                    {
                        "number": 1,
                        "time": 7.182792466666667,
                        "value": 0.23622047244094488
                    },
                    {
                        "number": 1,
                        "time": 7.209674175000001,
                        "value": 0.2440944881889764
                    },
                    {
                        "number": 1,
                        "time": 7.231179541666667,
                        "value": 0.25196850393700787
                    },
                    {
                        "number": 1,
                        "time": 7.268813933333334,
                        "value": 0.25984251968503935
                    },
                    {
                        "number": 1,
                        "time": 7.306448325000001,
                        "value": 0.2677165354330709
                    },
                    {
                        "number": 1,
                        "time": 7.344082716666668,
                        "value": 0.28346456692913385
                    },
                    {
                        "number": 1,
                        "time": 7.365588083333334,
                        "value": 0.29133858267716534
                    },
                    {
                        "number": 1,
                        "time": 7.3924697916666675,
                        "value": 0.2992125984251969
                    },
                    {
                        "number": 1,
                        "time": 7.413975158333334,
                        "value": 0.30708661417322836
                    },
                    {
                        "number": 1,
                        "time": 7.451609550000001,
                        "value": 0.31496062992125984
                    },
                    {
                        "number": 1,
                        "time": 7.489243941666667,
                        "value": 0.33070866141732286
                    },
                    {
                        "number": 1,
                        "time": 7.510749308333334,
                        "value": 0.33858267716535434
                    },
                    {
                        "number": 1,
                        "time": 7.5483837000000005,
                        "value": 0.3464566929133858
                    },
                    {
                        "number": 1,
                        "time": 7.596770775,
                        "value": 0.3543307086614173
                    },
                    {
                        "number": 1,
                        "time": 7.661286875,
                        "value": 0.36220472440944884
                    },
                    {
                        "number": 1,
                        "time": 7.747308341666667,
                        "value": 0.3700787401574803
                    },
                    {
                        "number": 1,
                        "time": 7.854835175,
                        "value": 0.3779527559055118
                    },
                    {
                        "number": 1,
                        "time": 7.9301039583333335,
                        "value": 0.3858267716535433
                    },
                    {
                        "number": 1,
                        "time": 8.0645125,
                        "value": 0.3937007874015748
                    },
                    {
                        "number": 1,
                        "time": 8.16128665,
                        "value": 0.3858267716535433
                    },
                    {
                        "number": 1,
                        "time": 8.172039333333332,
                        "value": 0.3779527559055118
                    },
                    {
                        "number": 1,
                        "time": 8.188168358333332,
                        "value": 0.3543307086614173
                    },
                    {
                        "number": 1,
                        "time": 8.198921041666665,
                        "value": 0.33070866141732286
                    },
                    {
                        "number": 1,
                        "time": 8.209673724999998,
                        "value": 0.30708661417322836
                    },
                    {
                        "number": 1,
                        "time": 8.220426408333331,
                        "value": 0.2677165354330709
                    },
                    {
                        "number": 1,
                        "time": 8.236555433333331,
                        "value": 0.2204724409448819
                    },
                    {
                        "number": 1,
                        "time": 8.247308116666664,
                        "value": 0.16535433070866143
                    },
                    {
                        "number": 1,
                        "time": 8.263437141666664,
                        "value": 0.10236220472440945
                    },
                    {
                        "number": 1,
                        "time": 8.274189824999997,
                        "value": 0.047244094488188976
                    },
                    {
                        "number": 1,
                        "time": 8.28494250833333,
                        "value": 0.015748031496062992
                    },
                    {
                        "number": 1,
                        "time": 8.295695191666663,
                        "value": 0
                    },
                    {
                        "number": 1,
                        "time": 13.241929524999994,
                        "value": 0.015748031496062992
                    },
                    {
                        "number": 1,
                        "time": 13.26343489166666,
                        "value": 0.023622047244094488
                    },
                    {
                        "number": 1,
                        "time": 13.290316599999993,
                        "value": 0.03937007874015748
                    },
                    {
                        "number": 1,
                        "time": 13.31182196666666,
                        "value": 0.047244094488188976
                    },
                    {
                        "number": 1,
                        "time": 13.37633806666666,
                        "value": 0.05511811023622047
                    },
                    {
                        "number": 1,
                        "time": 13.40859611666666,
                        "value": 0.06299212598425197
                    },
                    {
                        "number": 1,
                        "time": 13.510746608333326,
                        "value": 0.07086614173228346
                    },
                    {
                        "number": 1,
                        "time": 13.559133683333327,
                        "value": 0.07874015748031496
                    },
                    {
                        "number": 1,
                        "time": 13.61827344166666,
                        "value": 0.08661417322834646
                    },
                    {
                        "number": 1,
                        "time": 13.655907833333327,
                        "value": 0.09448818897637795
                    },
                    {
                        "number": 1,
                        "time": 13.704294908333328,
                        "value": 0.11023622047244094
                    },
                    {
                        "number": 1,
                        "time": 13.768811008333328,
                        "value": 0.11811023622047244
                    },
                    {
                        "number": 1,
                        "time": 13.817198083333329,
                        "value": 0.12598425196850394
                    },
                    {
                        "number": 1,
                        "time": 13.876337841666663,
                        "value": 0.13385826771653545
                    },
                    {
                        "number": 1,
                        "time": 13.940853941666663,
                        "value": 0.14173228346456693
                    },
                    {
                        "number": 1,
                        "time": 13.999993699999997,
                        "value": 0.14960629921259844
                    },
                    {
                        "number": 1,
                        "time": 14.10752053333333,
                        "value": 0.13385826771653545
                    },
                    {
                        "number": 1,
                        "time": 14.118273216666664,
                        "value": 0.11811023622047244
                    },
                    {
                        "number": 1,
                        "time": 14.134402241666663,
                        "value": 0.08661417322834646
                    },
                    {
                        "number": 1,
                        "time": 14.145154924999996,
                        "value": 0.05511811023622047
                    },
                    {
                        "number": 1,
                        "time": 14.15590760833333,
                        "value": 0.031496062992125984
                    },
                    {
                        "number": 1,
                        "time": 14.17203663333333,
                        "value": 0
                    },
                    {
                        "number": 1,
                        "time": 20.607517608333332,
                        "value": 0.015748031496062992
                    },
                    {
                        "number": 1,
                        "time": 20.666657366666666,
                        "value": 0.023622047244094488
                    },
                    {
                        "number": 1,
                        "time": 20.790313225,
                        "value": 0.031496062992125984
                    },
                    {
                        "number": 1,
                        "time": 20.876334691666663,
                        "value": 0.03937007874015748
                    },
                    {
                        "number": 1,
                        "time": 21.037624941666664,
                        "value": 0.047244094488188976
                    },
                    {
                        "number": 1,
                        "time": 21.069882991666663,
                        "value": 0.05511811023622047
                    },
                    {
                        "number": 1,
                        "time": 21.10751738333333,
                        "value": 0.06299212598425197
                    },
                    {
                        "number": 1,
                        "time": 21.15590445833333,
                        "value": 0.07086614173228346
                    },
                    {
                        "number": 1,
                        "time": 21.204291533333333,
                        "value": 0.07874015748031496
                    },
                    {
                        "number": 1,
                        "time": 21.26880763333333,
                        "value": 0.08661417322834646
                    },
                    {
                        "number": 1,
                        "time": 21.30106568333333,
                        "value": 0.09448818897637795
                    },
                    {
                        "number": 1,
                        "time": 21.338700075,
                        "value": 0.10236220472440945
                    },
                    {
                        "number": 1,
                        "time": 21.41396885833333,
                        "value": 0.11023622047244094
                    },
                    {
                        "number": 1,
                        "time": 21.46235593333333,
                        "value": 0.11811023622047244
                    },
                    {
                        "number": 1,
                        "time": 21.52687203333333,
                        "value": 0.13385826771653545
                    },
                    {
                        "number": 1,
                        "time": 21.57525910833333,
                        "value": 0.14173228346456693
                    },
                    {
                        "number": 1,
                        "time": 21.60751715833333,
                        "value": 0.14960629921259844
                    },
                    {
                        "number": 1,
                        "time": 21.634398866666665,
                        "value": 0.16535433070866143
                    },
                    {
                        "number": 1,
                        "time": 21.672033258333332,
                        "value": 0.1732283464566929
                    },
                    {
                        "number": 1,
                        "time": 21.731173016666666,
                        "value": 0.18110236220472442
                    },
                    {
                        "number": 1,
                        "time": 21.779560091666667,
                        "value": 0.1889763779527559
                    },
                    {
                        "number": 1,
                        "time": 21.817194483333335,
                        "value": 0.1968503937007874
                    },
                    {
                        "number": 1,
                        "time": 21.84407619166667,
                        "value": 0.2047244094488189
                    },
                    {
                        "number": 1,
                        "time": 21.903215950000003,
                        "value": 0.2125984251968504
                    },
                    {
                        "number": 1,
                        "time": 21.967732050000002,
                        "value": 0.2204724409448819
                    },
                    {
                        "number": 1,
                        "time": 22.064506200000004,
                        "value": 0.2283464566929134
                    },
                    {
                        "number": 1,
                        "time": 22.258054500000004,
                        "value": 0.23622047244094488
                    },
                    {
                        "number": 1,
                        "time": 22.403215725000003,
                        "value": 0.2440944881889764
                    },
                    {
                        "number": 1,
                        "time": 22.60214036666667,
                        "value": 0.25196850393700787
                    },
                    {
                        "number": 1,
                        "time": 22.806441350000004,
                        "value": 0.2440944881889764
                    },
                    {
                        "number": 1,
                        "time": 22.833323058333338,
                        "value": 0.2283464566929134
                    },
                    {
                        "number": 1,
                        "time": 22.84407574166667,
                        "value": 0.2204724409448819
                    },
                    {
                        "number": 1,
                        "time": 22.854828425000004,
                        "value": 0.2047244094488189
                    },
                    {
                        "number": 1,
                        "time": 22.870957450000006,
                        "value": 0.1968503937007874
                    },
                    {
                        "number": 1,
                        "time": 22.88171013333334,
                        "value": 0.18110236220472442
                    },
                    {
                        "number": 1,
                        "time": 22.908591841666674,
                        "value": 0.1732283464566929
                    },
                    {
                        "number": 1,
                        "time": 22.919344525000007,
                        "value": 0.15748031496062992
                    },
                    {
                        "number": 1,
                        "time": 22.93009720833334,
                        "value": 0.14960629921259844
                    },
                    {
                        "number": 1,
                        "time": 22.94622623333334,
                        "value": 0.12598425196850394
                    },
                    {
                        "number": 1,
                        "time": 22.956978916666674,
                        "value": 0.09448818897637795
                    },
                    {
                        "number": 1,
                        "time": 22.967731600000008,
                        "value": 0.07086614173228346
                    },
                    {
                        "number": 1,
                        "time": 22.97848428333334,
                        "value": 0.03937007874015748
                    },
                    {
                        "number": 1,
                        "time": 22.994613308333342,
                        "value": 0.023622047244094488
                    },
                    {
                        "number": 1,
                        "time": 23.005365991666675,
                        "value": 0
                    },
                    {
                        "number": 1,
                        "time": 28.83869670000001,
                        "value": 0.007874015748031496
                    },
                    {
                        "number": 1,
                        "time": 28.876331091666678,
                        "value": 0.015748031496062992
                    },
                    {
                        "number": 1,
                        "time": 28.913965483333346,
                        "value": 0.031496062992125984
                    },
                    {
                        "number": 1,
                        "time": 28.989234266666678,
                        "value": 0.03937007874015748
                    },
                    {
                        "number": 1,
                        "time": 29.021492316666677,
                        "value": 0.047244094488188976
                    },
                    {
                        "number": 1,
                        "time": 29.075255733333343,
                        "value": 0.05511811023622047
                    },
                    {
                        "number": 1,
                        "time": 29.123642808333344,
                        "value": 0.06299212598425197
                    },
                    {
                        "number": 1,
                        "time": 29.25805135000001,
                        "value": 0.047244094488188976
                    },
                    {
                        "number": 1,
                        "time": 29.268804033333343,
                        "value": 0.031496062992125984
                    },
                    {
                        "number": 1,
                        "time": 29.279556716666676,
                        "value": 0.023622047244094488
                    },
                    {
                        "number": 1,
                        "time": 29.295685741666677,
                        "value": 0.015748031496062992
                    },
                    {
                        "number": 1,
                        "time": 29.317191108333343,
                        "value": 0
                    },
                    {
                        "number": 1,
                        "time": 35.89783330833335,
                        "value": 0.015748031496062992
                    },
                    {
                        "number": 1,
                        "time": 35.98385477500001,
                        "value": 0
                    },
                    {
                        "number": 1,
                        "time": 39.34944465833334,
                        "value": 0.007874015748031496
                    },
                    {
                        "number": 1,
                        "time": 39.376326366666675,
                        "value": 0.015748031496062992
                    },
                    {
                        "number": 1,
                        "time": 39.39783173333334,
                        "value": 0.031496062992125984
                    },
                    {
                        "number": 1,
                        "time": 39.424713441666675,
                        "value": 0.03937007874015748
                    },
                    {
                        "number": 1,
                        "time": 39.45159515000001,
                        "value": 0.047244094488188976
                    },
                    {
                        "number": 1,
                        "time": 39.473100516666676,
                        "value": 0.06299212598425197
                    },
                    {
                        "number": 1,
                        "time": 39.49998222500001,
                        "value": 0.07086614173228346
                    },
                    {
                        "number": 1,
                        "time": 39.52148759166668,
                        "value": 0.08661417322834646
                    },
                    {
                        "number": 1,
                        "time": 39.54836930000001,
                        "value": 0.09448818897637795
                    },
                    {
                        "number": 1,
                        "time": 39.56987466666668,
                        "value": 0.10236220472440945
                    },
                    {
                        "number": 1,
                        "time": 39.59675637500001,
                        "value": 0.11023622047244094
                    },
                    {
                        "number": 1,
                        "time": 39.63439076666668,
                        "value": 0.12598425196850394
                    },
                    {
                        "number": 1,
                        "time": 39.65589613333334,
                        "value": 0.13385826771653545
                    },
                    {
                        "number": 1,
                        "time": 39.752670283333345,
                        "value": 0.11811023622047244
                    },
                    {
                        "number": 1,
                        "time": 39.76879930833334,
                        "value": 0.08661417322834646
                    },
                    {
                        "number": 1,
                        "time": 39.77955199166668,
                        "value": 0.05511811023622047
                    },
                    {
                        "number": 1,
                        "time": 39.790304675000016,
                        "value": 0.031496062992125984
                    },
                    {
                        "number": 1,
                        "time": 39.806433700000014,
                        "value": 0
                    },
                    {
                        "number": 1,
                        "time": 66.89244301666673,
                        "value": 0.007874015748031496
                    },
                    {
                        "number": 1,
                        "time": 66.9139483833334,
                        "value": 0.015748031496062992
                    },
                    {
                        "number": 1,
                        "time": 66.94083009166674,
                        "value": 0.023622047244094488
                    },
                    {
                        "number": 1,
                        "time": 66.96233545833341,
                        "value": 0.031496062992125984
                    },
                    {
                        "number": 1,
                        "time": 66.98921716666675,
                        "value": 0.03937007874015748
                    },
                    {
                        "number": 1,
                        "time": 67.02685155833342,
                        "value": 0.05511811023622047
                    },
                    {
                        "number": 1,
                        "time": 67.04835692500009,
                        "value": 0.06299212598425197
                    },
                    {
                        "number": 1,
                        "time": 67.07523863333343,
                        "value": 0.07086614173228346
                    },
                    {
                        "number": 1,
                        "time": 67.0967440000001,
                        "value": 0.07874015748031496
                    },
                    {
                        "number": 1,
                        "time": 67.13975473333343,
                        "value": 0.08661417322834646
                    },
                    {
                        "number": 1,
                        "time": 67.17201278333343,
                        "value": 0.10236220472440945
                    },
                    {
                        "number": 1,
                        "time": 67.22039985833342,
                        "value": 0.11023622047244094
                    },
                    {
                        "number": 1,
                        "time": 67.2580342500001,
                        "value": 0.11811023622047244
                    },
                    {
                        "number": 1,
                        "time": 67.28491595833343,
                        "value": 0.12598425196850394
                    },
                    {
                        "number": 1,
                        "time": 67.3064213250001,
                        "value": 0.13385826771653545
                    },
                    {
                        "number": 1,
                        "time": 67.33330303333344,
                        "value": 0.14960629921259844
                    },
                    {
                        "number": 1,
                        "time": 67.35480840000011,
                        "value": 0.15748031496062992
                    },
                    {
                        "number": 1,
                        "time": 67.39244279166678,
                        "value": 0.16535433070866143
                    },
                    {
                        "number": 1,
                        "time": 67.43007718333345,
                        "value": 0.1732283464566929
                    },
                    {
                        "number": 1,
                        "time": 67.47846425833345,
                        "value": 0.18110236220472442
                    },
                    {
                        "number": 1,
                        "time": 67.51609865000012,
                        "value": 0.1889763779527559
                    },
                    {
                        "number": 1,
                        "time": 67.56448572500011,
                        "value": 0.1968503937007874
                    },
                    {
                        "number": 1,
                        "time": 67.60212011666678,
                        "value": 0.2047244094488189
                    },
                    {
                        "number": 1,
                        "time": 67.63975450833345,
                        "value": 0.2204724409448819
                    },
                    {
                        "number": 1,
                        "time": 67.67738890000012,
                        "value": 0.2283464566929134
                    },
                    {
                        "number": 1,
                        "time": 67.74728134166679,
                        "value": 0.23622047244094488
                    },
                    {
                        "number": 1,
                        "time": 67.80642110000012,
                        "value": 0.2440944881889764
                    },
                    {
                        "number": 1,
                        "time": 67.83330280833346,
                        "value": 0.25196850393700787
                    },
                    {
                        "number": 1,
                        "time": 67.87093720000013,
                        "value": 0.25984251968503935
                    },
                    {
                        "number": 1,
                        "time": 67.9085715916668,
                        "value": 0.2677165354330709
                    },
                    {
                        "number": 1,
                        "time": 67.99459305833346,
                        "value": 0.2755905511811024
                    },
                    {
                        "number": 1,
                        "time": 68.02685110833346,
                        "value": 0.28346456692913385
                    },
                    {
                        "number": 1,
                        "time": 68.0537328166668,
                        "value": 0.2992125984251969
                    },
                    {
                        "number": 1,
                        "time": 68.08061452500013,
                        "value": 0.30708661417322836
                    },
                    {
                        "number": 1,
                        "time": 68.1021198916668,
                        "value": 0.31496062992125984
                    },
                    {
                        "number": 1,
                        "time": 68.12900160000014,
                        "value": 0.33070866141732286
                    },
                    {
                        "number": 1,
                        "time": 68.16663599166681,
                        "value": 0.33858267716535434
                    },
                    {
                        "number": 1,
                        "time": 68.18814135833348,
                        "value": 0.3464566929133858
                    },
                    {
                        "number": 1,
                        "time": 68.22577575000015,
                        "value": 0.3543307086614173
                    },
                    {
                        "number": 1,
                        "time": 68.26341014166682,
                        "value": 0.36220472440944884
                    },
                    {
                        "number": 1,
                        "time": 68.29566819166682,
                        "value": 0.3700787401574803
                    },
                    {
                        "number": 1,
                        "time": 68.34943160833349,
                        "value": 0.3779527559055118
                    },
                    {
                        "number": 1,
                        "time": 68.41932405000016,
                        "value": 0.3858267716535433
                    },
                    {
                        "number": 1,
                        "time": 68.44620575833349,
                        "value": 0.007874015748031496
                    },
                    {
                        "number": 1,
                        "time": 68.48384015000016,
                        "value": 0.3937007874015748
                    },
                    {
                        "number": 1,
                        "time": 68.50534551666684,
                        "value": 0.023622047244094488
                    },
                    {
                        "number": 1,
                        "time": 68.55373259166683,
                        "value": 0.031496062992125984
                    },
                    {
                        "number": 1,
                        "time": 68.58061430000016,
                        "value": 0.03937007874015748
                    },
                    {
                        "number": 1,
                        "time": 68.58061430000016,
                        "value": 0.4015748031496063
                    },
                    {
                        "number": 1,
                        "time": 68.61824869166684,
                        "value": 0.047244094488188976
                    },
                    {
                        "number": 1,
                        "time": 68.63975405833351,
                        "value": 0.05511811023622047
                    },
                    {
                        "number": 1,
                        "time": 68.66663576666684,
                        "value": 0.07086614173228346
                    },
                    {
                        "number": 1,
                        "time": 68.67738845000018,
                        "value": 0.4094488188976378
                    },
                    {
                        "number": 1,
                        "time": 68.68814113333352,
                        "value": 0.07874015748031496
                    },
                    {
                        "number": 1,
                        "time": 68.71502284166685,
                        "value": 0.08661417322834646
                    },
                    {
                        "number": 1,
                        "time": 68.73652820833352,
                        "value": 0.10236220472440945
                    },
                    {
                        "number": 1,
                        "time": 68.76340991666686,
                        "value": 0.11023622047244094
                    },
                    {
                        "number": 1,
                        "time": 68.76340991666686,
                        "value": 0.4251968503937008
                    },
                    {
                        "number": 1,
                        "time": 68.77953894166686,
                        "value": 0.11811023622047244
                    },
                    {
                        "number": 1,
                        "time": 68.80104430833353,
                        "value": 0.13385826771653545
                    },
                    {
                        "number": 1,
                        "time": 68.8225496750002,
                        "value": 0.4330708661417323
                    },
                    {
                        "number": 1,
                        "time": 68.82792601666686,
                        "value": 0.14173228346456693
                    },
                    {
                        "number": 1,
                        "time": 68.84943138333354,
                        "value": 0.15748031496062992
                    },
                    {
                        "number": 1,
                        "time": 68.87631309166687,
                        "value": 0.16535433070866143
                    },
                    {
                        "number": 1,
                        "time": 68.89781845833355,
                        "value": 0.4409448818897638
                    },
                    {
                        "number": 1,
                        "time": 68.90857114166688,
                        "value": 0.1732283464566929
                    },
                    {
                        "number": 1,
                        "time": 68.93545285000022,
                        "value": 0.18110236220472442
                    },
                    {
                        "number": 1,
                        "time": 68.95695821666689,
                        "value": 0.1889763779527559
                    },
                    {
                        "number": 1,
                        "time": 68.95695821666689,
                        "value": 0.44881889763779526
                    },
                    {
                        "number": 1,
                        "time": 68.99459260833356,
                        "value": 0.1968503937007874
                    },
                    {
                        "number": 1,
                        "time": 69.03222700000023,
                        "value": 0.2125984251968504
                    },
                    {
                        "number": 1,
                        "time": 69.04835602500023,
                        "value": 0.4566929133858268
                    },
                    {
                        "number": 1,
                        "time": 69.05910870833357,
                        "value": 0.2204724409448819
                    },
                    {
                        "number": 1,
                        "time": 69.08061407500024,
                        "value": 0.2283464566929134
                    },
                    {
                        "number": 1,
                        "time": 69.11824846666691,
                        "value": 0.23622047244094488
                    },
                    {
                        "number": 1,
                        "time": 69.11824846666691,
                        "value": 0.4645669291338583
                    },
                    {
                        "number": 1,
                        "time": 69.14513017500025,
                        "value": 0.2440944881889764
                    },
                    {
                        "number": 1,
                        "time": 69.16663554166692,
                        "value": 0.25196850393700787
                    },
                    {
                        "number": 1,
                        "time": 69.17738822500026,
                        "value": 0.47244094488188976
                    },
                    {
                        "number": 1,
                        "time": 69.20426993333359,
                        "value": 0.25984251968503935
                    },
                    {
                        "number": 1,
                        "time": 69.24190432500026,
                        "value": 0.2677165354330709
                    },
                    {
                        "number": 1,
                        "time": 69.2526570083336,
                        "value": 0.48031496062992124
                    },
                    {
                        "number": 1,
                        "time": 69.27953871666693,
                        "value": 0.28346456692913385
                    },
                    {
                        "number": 1,
                        "time": 69.30104408333361,
                        "value": 0.29133858267716534
                    },
                    {
                        "number": 1,
                        "time": 69.30104408333361,
                        "value": 0.4881889763779528
                    },
                    {
                        "number": 1,
                        "time": 69.32792579166694,
                        "value": 0.2992125984251969
                    },
                    {
                        "number": 1,
                        "time": 69.34943115833362,
                        "value": 0.30708661417322836
                    },
                    {
                        "number": 1,
                        "time": 69.36556018333361,
                        "value": 0.49606299212598426
                    },
                    {
                        "number": 1,
                        "time": 69.38706555000029,
                        "value": 0.31496062992125984
                    },
                    {
                        "number": 1,
                        "time": 69.39781823333362,
                        "value": 0.5039370078740157
                    },
                    {
                        "number": 1,
                        "time": 69.42469994166696,
                        "value": 0.33070866141732286
                    },
                    {
                        "number": 1,
                        "time": 69.44620530833363,
                        "value": 0.33858267716535434
                    },
                    {
                        "number": 1,
                        "time": 69.4838397000003,
                        "value": 0.3464566929133858
                    },
                    {
                        "number": 1,
                        "time": 69.5322267750003,
                        "value": 0.3543307086614173
                    },
                    {
                        "number": 1,
                        "time": 69.5967428750003,
                        "value": 0.36220472440944884
                    },
                    {
                        "number": 1,
                        "time": 69.68276434166697,
                        "value": 0.3700787401574803
                    },
                    {
                        "number": 1,
                        "time": 69.7902911750003,
                        "value": 0.3779527559055118
                    },
                    {
                        "number": 1,
                        "time": 69.86555995833363,
                        "value": 0.3858267716535433
                    },
                    {
                        "number": 1,
                        "time": 69.96233410833364,
                        "value": 0.5118110236220472
                    },
                    {
                        "number": 1,
                        "time": 69.9999685000003,
                        "value": 0.3937007874015748
                    },
                    {
                        "number": 1,
                        "time": 70.01072118333364,
                        "value": 0.5196850393700787
                    },
                    {
                        "number": 1,
                        "time": 70.09674265000031,
                        "value": 0.3858267716535433
                    },
                    {
                        "number": 1,
                        "time": 70.10749533333365,
                        "value": 0.3779527559055118
                    },
                    {
                        "number": 1,
                        "time": 70.10749533333365,
                        "value": 0.5275590551181102
                    },
                    {
                        "number": 1,
                        "time": 70.12362435833364,
                        "value": 0.3543307086614173
                    },
                    {
                        "number": 1,
                        "time": 70.13437704166698,
                        "value": 0.33070866141732286
                    },
                    {
                        "number": 1,
                        "time": 70.14512972500032,
                        "value": 0.30708661417322836
                    },
                    {
                        "number": 1,
                        "time": 70.15588240833365,
                        "value": 0.2677165354330709
                    },
                    {
                        "number": 1,
                        "time": 70.17201143333365,
                        "value": 0.2204724409448819
                    },
                    {
                        "number": 1,
                        "time": 70.18276411666699,
                        "value": 0.16535433070866143
                    },
                    {
                        "number": 1,
                        "time": 70.19889314166699,
                        "value": 0.10236220472440945
                    },
                    {
                        "number": 1,
                        "time": 70.20964582500032,
                        "value": 0.047244094488188976
                    },
                    {
                        "number": 1,
                        "time": 70.20964582500032,
                        "value": 0.5354330708661418
                    },
                    {
                        "number": 1,
                        "time": 70.22039850833366,
                        "value": 0.015748031496062992
                    },
                    {
                        "number": 1,
                        "time": 70.231151191667,
                        "value": 0
                    },
                    {
                        "number": 1,
                        "time": 70.27953826666699,
                        "value": 0.5433070866141733
                    },
                    {
                        "number": 1,
                        "time": 70.35480705000032,
                        "value": 0.5511811023622047
                    },
                    {
                        "number": 1,
                        "time": 70.42469949166698,
                        "value": 0.5354330708661418
                    },
                    {
                        "number": 1,
                        "time": 70.44082851666698,
                        "value": 0.49606299212598426
                    },
                    {
                        "number": 1,
                        "time": 70.45158120000032,
                        "value": 0.4330708661417323
                    },
                    {
                        "number": 1,
                        "time": 70.46771022500032,
                        "value": 0.3464566929133858
                    },
                    {
                        "number": 1,
                        "time": 70.47846290833365,
                        "value": 0.2283464566929134
                    },
                    {
                        "number": 1,
                        "time": 70.48921559166699,
                        "value": 0.13385826771653545
                    },
                    {
                        "number": 1,
                        "time": 70.49996827500033,
                        "value": 0.05511811023622047
                    },
                    {
                        "number": 1,
                        "time": 70.51609730000033,
                        "value": 0.015748031496062992
                    },
                    {
                        "number": 1,
                        "time": 70.52684998333366,
                        "value": 0
                    },
                    {
                        "number": 1,
                        "time": 75.17738552500029,
                        "value": 0.015748031496062992
                    },
                    {
                        "number": 1,
                        "time": 75.19889089166696,
                        "value": 0.023622047244094488
                    },
                    {
                        "number": 1,
                        "time": 75.2257726000003,
                        "value": 0.03937007874015748
                    },
                    {
                        "number": 1,
                        "time": 75.24727796666697,
                        "value": 0.047244094488188976
                    },
                    {
                        "number": 1,
                        "time": 75.31179406666698,
                        "value": 0.05511811023622047
                    },
                    {
                        "number": 1,
                        "time": 75.34405211666697,
                        "value": 0.06299212598425197
                    },
                    {
                        "number": 1,
                        "time": 75.44620260833364,
                        "value": 0.07086614173228346
                    },
                    {
                        "number": 1,
                        "time": 75.49458968333363,
                        "value": 0.07874015748031496
                    },
                    {
                        "number": 1,
                        "time": 75.55372944166696,
                        "value": 0.08661417322834646
                    },
                    {
                        "number": 1,
                        "time": 75.59136383333363,
                        "value": 0.09448818897637795
                    },
                    {
                        "number": 1,
                        "time": 75.63975090833362,
                        "value": 0.11023622047244094
                    },
                    {
                        "number": 1,
                        "time": 75.70426700833363,
                        "value": 0.11811023622047244
                    },
                    {
                        "number": 1,
                        "time": 75.75265408333362,
                        "value": 0.12598425196850394
                    },
                    {
                        "number": 1,
                        "time": 75.81179384166695,
                        "value": 0.13385826771653545
                    },
                    {
                        "number": 1,
                        "time": 75.87630994166696,
                        "value": 0.14173228346456693
                    },
                    {
                        "number": 1,
                        "time": 75.93544970000029,
                        "value": 0.14960629921259844
                    },
                    {
                        "number": 1,
                        "time": 76.04297653333363,
                        "value": 0.13385826771653545
                    },
                    {
                        "number": 1,
                        "time": 76.05372921666697,
                        "value": 0.11811023622047244
                    },
                    {
                        "number": 1,
                        "time": 76.06985824166696,
                        "value": 0.08661417322834646
                    },
                    {
                        "number": 1,
                        "time": 76.0806109250003,
                        "value": 0.05511811023622047
                    },
                    {
                        "number": 1,
                        "time": 76.09136360833364,
                        "value": 0.031496062992125984
                    },
                    {
                        "number": 1,
                        "time": 76.10749263333364,
                        "value": 0
                    },
                    {
                        "number": 1,
                        "time": 82.54297360833364,
                        "value": 0.015748031496062992
                    },
                    {
                        "number": 1,
                        "time": 82.60211336666697,
                        "value": 0.023622047244094488
                    },
                    {
                        "number": 1,
                        "time": 82.7257692250003,
                        "value": 0.031496062992125984
                    },
                    {
                        "number": 1,
                        "time": 82.81179069166697,
                        "value": 0.03937007874015748
                    },
                    {
                        "number": 1,
                        "time": 82.97308094166696,
                        "value": 0.047244094488188976
                    },
                    {
                        "number": 1,
                        "time": 83.00533899166696,
                        "value": 0.05511811023622047
                    },
                    {
                        "number": 1,
                        "time": 83.04297338333363,
                        "value": 0.06299212598425197
                    },
                    {
                        "number": 1,
                        "time": 83.09136045833363,
                        "value": 0.07086614173228346
                    },
                    {
                        "number": 1,
                        "time": 83.13974753333362,
                        "value": 0.07874015748031496
                    },
                    {
                        "number": 1,
                        "time": 83.20426363333362,
                        "value": 0.08661417322834646
                    },
                    {
                        "number": 1,
                        "time": 83.23652168333362,
                        "value": 0.09448818897637795
                    },
                    {
                        "number": 1,
                        "time": 83.27415607500029,
                        "value": 0.10236220472440945
                    },
                    {
                        "number": 1,
                        "time": 83.34942485833362,
                        "value": 0.11023622047244094
                    },
                    {
                        "number": 1,
                        "time": 83.39781193333361,
                        "value": 0.11811023622047244
                    },
                    {
                        "number": 1,
                        "time": 83.46232803333362,
                        "value": 0.13385826771653545
                    },
                    {
                        "number": 1,
                        "time": 83.51071510833361,
                        "value": 0.14173228346456693
                    },
                    {
                        "number": 1,
                        "time": 83.54297315833361,
                        "value": 0.14960629921259844
                    },
                    {
                        "number": 1,
                        "time": 83.56985486666694,
                        "value": 0.16535433070866143
                    },
                    {
                        "number": 1,
                        "time": 83.60748925833362,
                        "value": 0.1732283464566929
                    },
                    {
                        "number": 1,
                        "time": 83.66662901666695,
                        "value": 0.18110236220472442
                    },
                    {
                        "number": 1,
                        "time": 83.71501609166694,
                        "value": 0.1889763779527559
                    },
                    {
                        "number": 1,
                        "time": 83.75265048333361,
                        "value": 0.1968503937007874
                    },
                    {
                        "number": 1,
                        "time": 83.77953219166695,
                        "value": 0.2047244094488189
                    },
                    {
                        "number": 1,
                        "time": 83.83867195000028,
                        "value": 0.2125984251968504
                    },
                    {
                        "number": 1,
                        "time": 83.90318805000028,
                        "value": 0.2204724409448819
                    },
                    {
                        "number": 1,
                        "time": 83.99996220000028,
                        "value": 0.2283464566929134
                    },
                    {
                        "number": 1,
                        "time": 84.19351050000029,
                        "value": 0.23622047244094488
                    },
                    {
                        "number": 1,
                        "time": 84.33867172500028,
                        "value": 0.2440944881889764
                    },
                    {
                        "number": 1,
                        "time": 84.53759636666695,
                        "value": 0.25196850393700787
                    },
                    {
                        "number": 1,
                        "time": 84.74189735000029,
                        "value": 0.2440944881889764
                    },
                    {
                        "number": 1,
                        "time": 84.76877905833362,
                        "value": 0.2283464566929134
                    },
                    {
                        "number": 1,
                        "time": 84.77953174166696,
                        "value": 0.2204724409448819
                    },
                    {
                        "number": 1,
                        "time": 84.7902844250003,
                        "value": 0.2047244094488189
                    },
                    {
                        "number": 1,
                        "time": 84.80641345000029,
                        "value": 0.1968503937007874
                    },
                    {
                        "number": 1,
                        "time": 84.81716613333363,
                        "value": 0.18110236220472442
                    },
                    {
                        "number": 1,
                        "time": 84.84404784166696,
                        "value": 0.1732283464566929
                    },
                    {
                        "number": 1,
                        "time": 84.8548005250003,
                        "value": 0.15748031496062992
                    },
                    {
                        "number": 1,
                        "time": 84.86555320833364,
                        "value": 0.14960629921259844
                    },
                    {
                        "number": 1,
                        "time": 84.88168223333363,
                        "value": 0.12598425196850394
                    },
                    {
                        "number": 1,
                        "time": 84.89243491666697,
                        "value": 0.09448818897637795
                    },
                    {
                        "number": 1,
                        "time": 84.90318760000031,
                        "value": 0.07086614173228346
                    },
                    {
                        "number": 1,
                        "time": 84.91394028333364,
                        "value": 0.03937007874015748
                    },
                    {
                        "number": 1,
                        "time": 84.93006930833364,
                        "value": 0.023622047244094488
                    },
                    {
                        "number": 1,
                        "time": 84.94082199166698,
                        "value": 0
                    },
                    {
                        "number": 1,
                        "time": 90.77415270000033,
                        "value": 0.007874015748031496
                    },
                    {
                        "number": 1,
                        "time": 90.811787091667,
                        "value": 0.015748031496062992
                    },
                    {
                        "number": 1,
                        "time": 90.84942148333367,
                        "value": 0.031496062992125984
                    },
                    {
                        "number": 1,
                        "time": 90.924690266667,
                        "value": 0.03937007874015748
                    },
                    {
                        "number": 1,
                        "time": 90.956948316667,
                        "value": 0.047244094488188976
                    },
                    {
                        "number": 1,
                        "time": 91.01071173333366,
                        "value": 0.05511811023622047
                    },
                    {
                        "number": 1,
                        "time": 91.05909880833366,
                        "value": 0.06299212598425197
                    },
                    {
                        "number": 1,
                        "time": 91.19350735000033,
                        "value": 0.047244094488188976
                    },
                    {
                        "number": 1,
                        "time": 91.20426003333367,
                        "value": 0.031496062992125984
                    },
                    {
                        "number": 1,
                        "time": 91.215012716667,
                        "value": 0.023622047244094488
                    },
                    {
                        "number": 1,
                        "time": 91.231141741667,
                        "value": 0.015748031496062992
                    },
                    {
                        "number": 1,
                        "time": 91.25264710833368,
                        "value": 0
                    },
                    {
                        "number": 1,
                        "time": 97.83328930833369,
                        "value": 0.015748031496062992
                    },
                    {
                        "number": 1,
                        "time": 97.91931077500035,
                        "value": 0
                    },
                    {
                        "number": 1,
                        "time": 101.2849006583337,
                        "value": 0.007874015748031496
                    },
                    {
                        "number": 1,
                        "time": 101.31178236666703,
                        "value": 0.015748031496062992
                    },
                    {
                        "number": 1,
                        "time": 101.3332877333337,
                        "value": 0.031496062992125984
                    },
                    {
                        "number": 1,
                        "time": 101.36016944166704,
                        "value": 0.03937007874015748
                    },
                    {
                        "number": 1,
                        "time": 101.38705115000037,
                        "value": 0.047244094488188976
                    },
                    {
                        "number": 1,
                        "time": 101.40855651666705,
                        "value": 0.06299212598425197
                    },
                    {
                        "number": 1,
                        "time": 101.43543822500038,
                        "value": 0.07086614173228346
                    },
                    {
                        "number": 1,
                        "time": 101.45694359166706,
                        "value": 0.08661417322834646
                    },
                    {
                        "number": 1,
                        "time": 101.48382530000039,
                        "value": 0.09448818897637795
                    },
                    {
                        "number": 1,
                        "time": 101.50533066666706,
                        "value": 0.10236220472440945
                    },
                    {
                        "number": 1,
                        "time": 101.5322123750004,
                        "value": 0.11023622047244094
                    },
                    {
                        "number": 1,
                        "time": 101.56984676666707,
                        "value": 0.12598425196850394
                    },
                    {
                        "number": 1,
                        "time": 101.59135213333374,
                        "value": 0.13385826771653545
                    },
                    {
                        "number": 1,
                        "time": 101.68812628333374,
                        "value": 0.11811023622047244
                    },
                    {
                        "number": 1,
                        "time": 101.70425530833374,
                        "value": 0.08661417322834646
                    },
                    {
                        "number": 1,
                        "time": 101.71500799166708,
                        "value": 0.05511811023622047
                    },
                    {
                        "number": 1,
                        "time": 101.72576067500042,
                        "value": 0.031496062992125984
                    },
                    {
                        "number": 1,
                        "time": 101.74188970000041,
                        "value": 0
                    }
                ],
                "7": [
                    {
                        "number": 7,
                        "time": 0,
                        "value": 0.7874015748031497
                    },
                    {
                        "number": 7,
                        "time": 0,
                        "value": 0.8031496062992126
                    },
                    {
                        "number": 7,
                        "time": 64.60749780833339,
                        "value": 0.7952755905511811
                    },
                    {
                        "number": 7,
                        "time": 64.64513220000006,
                        "value": 0.7874015748031497
                    },
                    {
                        "number": 7,
                        "time": 64.69351927500006,
                        "value": 0.7795275590551181
                    },
                    {
                        "number": 7,
                        "time": 64.79029342500006,
                        "value": 0.7716535433070866
                    },
                    {
                        "number": 7,
                        "time": 65.1074975833334,
                        "value": 0.7637795275590551
                    },
                    {
                        "number": 7,
                        "time": 65.18276636666674,
                        "value": 0.7559055118110236
                    },
                    {
                        "number": 7,
                        "time": 77.79566391666697,
                        "value": 0.7480314960629921
                    },
                    {
                        "number": 7,
                        "time": 88.344046266667,
                        "value": 0.7559055118110236
                    },
                    {
                        "number": 7,
                        "time": 88.39243334166699,
                        "value": 0.7637795275590551
                    },
                    {
                        "number": 7,
                        "time": 88.44082041666698,
                        "value": 0.7716535433070866
                    },
                    {
                        "number": 7,
                        "time": 88.57522895833365,
                        "value": 0.7795275590551181
                    },
                    {
                        "number": 7,
                        "time": 88.74727189166698,
                        "value": 0.7874015748031497
                    },
                    {
                        "number": 7,
                        "time": 88.88168043333366,
                        "value": 0.7952755905511811
                    },
                    {
                        "number": 7,
                        "time": 103.08597511666707,
                        "value": 0.7874015748031497
                    },
                    {
                        "number": 7,
                        "time": 103.89780270833373,
                        "value": 0.7795275590551181
                    },
                    {
                        "number": 7,
                        "time": 120.8924187166671,
                        "value": 0.7874015748031497
                    },
                    {
                        "number": 7,
                        "time": 120.99994555000043,
                        "value": 0.7952755905511811
                    },
                    {
                        "number": 7,
                        "time": 121.25800995000044,
                        "value": 0.8031496062992126
                    },
                    {
                        "number": 7,
                        "time": 121.38166580833378,
                        "value": 0.8110236220472441
                    },
                    {
                        "number": 7,
                        "time": 121.46768727500044,
                        "value": 0.8188976377952756
                    },
                    {
                        "number": 7,
                        "time": 121.63435386666711,
                        "value": 0.8267716535433071
                    },
                    {
                        "number": 7,
                        "time": 121.8440311916671,
                        "value": 0.8346456692913385
                    },
                    {
                        "number": 7,
                        "time": 121.88166558333376,
                        "value": 0.84251968503937
                    },
                    {
                        "number": 7,
                        "time": 122.09134290833376,
                        "value": 0.8503937007874016
                    },
                    {
                        "number": 7,
                        "time": 122.15048266666709,
                        "value": 0.8582677165354331
                    },
                    {
                        "number": 7,
                        "time": 122.28489120833376,
                        "value": 0.8661417322834646
                    },
                    {
                        "number": 7,
                        "time": 122.43005243333376,
                        "value": 0.8740157480314961
                    },
                    {
                        "number": 7,
                        "time": 122.48381585000043,
                        "value": 0.8818897637795275
                    },
                    {
                        "number": 7,
                        "time": 122.51607390000042,
                        "value": 0.889763779527559
                    },
                    {
                        "number": 7,
                        "time": 122.55370829166709,
                        "value": 0.8976377952755905
                    },
                    {
                        "number": 7,
                        "time": 122.60209536666709,
                        "value": 0.905511811023622
                    },
                    {
                        "number": 7,
                        "time": 122.65048244166708,
                        "value": 0.9133858267716536
                    },
                    {
                        "number": 7,
                        "time": 122.72575122500041,
                        "value": 0.9212598425196851
                    },
                    {
                        "number": 7,
                        "time": 122.86015976666708,
                        "value": 0.9291338582677166
                    },
                    {
                        "number": 7,
                        "time": 123.47306271666707,
                        "value": 0.937007874015748
                    },
                    {
                        "number": 7,
                        "time": 125.12359960833375,
                        "value": 0.9291338582677166
                    },
                    {
                        "number": 7,
                        "time": 125.13972863333375,
                        "value": 0.9212598425196851
                    },
                    {
                        "number": 7,
                        "time": 125.16123400000042,
                        "value": 0.905511811023622
                    },
                    {
                        "number": 7,
                        "time": 125.46768547500042,
                        "value": 0.8976377952755905
                    },
                    {
                        "number": 7,
                        "time": 125.5053198666671,
                        "value": 0.889763779527559
                    },
                    {
                        "number": 7,
                        "time": 125.53220157500043,
                        "value": 0.8818897637795275
                    },
                    {
                        "number": 7,
                        "time": 125.5537069416671,
                        "value": 0.8740157480314961
                    },
                    {
                        "number": 7,
                        "time": 125.58058865000044,
                        "value": 0.8661417322834646
                    },
                    {
                        "number": 7,
                        "time": 125.61284670000043,
                        "value": 0.8582677165354331
                    },
                    {
                        "number": 7,
                        "time": 125.66123377500043,
                        "value": 0.84251968503937
                    },
                    {
                        "number": 7,
                        "time": 125.72574987500043,
                        "value": 0.8346456692913385
                    },
                    {
                        "number": 7,
                        "time": 125.75800792500043,
                        "value": 0.8267716535433071
                    },
                    {
                        "number": 7,
                        "time": 125.80639500000042,
                        "value": 0.8188976377952756
                    },
                    {
                        "number": 7,
                        "time": 125.86015841666709,
                        "value": 0.8110236220472441
                    },
                    {
                        "number": 7,
                        "time": 125.89241646666709,
                        "value": 0.8031496062992126
                    },
                    {
                        "number": 7,
                        "time": 126.00531964166709,
                        "value": 0.7952755905511811
                    },
                    {
                        "number": 7,
                        "time": 127.0053191916671,
                        "value": 0.7874015748031497
                    },
                    {
                        "number": 7,
                        "time": 127.09671700000042,
                        "value": 0.7795275590551181
                    },
                    {
                        "number": 7,
                        "time": 127.19349115000043,
                        "value": 0.7716535433070866
                    },
                    {
                        "number": 7,
                        "time": 127.31177066666709,
                        "value": 0.7637795275590551
                    },
                    {
                        "number": 7,
                        "time": 127.37628676666709,
                        "value": 0.7559055118110236
                    },
                    {
                        "number": 7,
                        "time": 127.49994262500043,
                        "value": 0.7480314960629921
                    },
                    {
                        "number": 7,
                        "time": 127.5698350666671,
                        "value": 0.7401574803149606
                    },
                    {
                        "number": 7,
                        "time": 127.65585653333376,
                        "value": 0.7322834645669292
                    },
                    {
                        "number": 7,
                        "time": 127.70961995000042,
                        "value": 0.7244094488188977
                    },
                    {
                        "number": 7,
                        "time": 127.75263068333375,
                        "value": 0.7165354330708661
                    },
                    {
                        "number": 7,
                        "time": 127.80639410000042,
                        "value": 0.7086614173228346
                    },
                    {
                        "number": 7,
                        "time": 127.90316825000042,
                        "value": 0.7007874015748031
                    },
                    {
                        "number": 7,
                        "time": 128.14510362500042,
                        "value": 0.6929133858267716
                    },
                    {
                        "number": 7,
                        "time": 128.29564119166707,
                        "value": 0.6850393700787402
                    },
                    {
                        "number": 7,
                        "time": 128.39241534166706,
                        "value": 0.6771653543307087
                    },
                    {
                        "number": 7,
                        "time": 138.69348597500036,
                        "value": 0.6850393700787402
                    },
                    {
                        "number": 7,
                        "time": 138.7687547583337,
                        "value": 0.6929133858267716
                    },
                    {
                        "number": 7,
                        "time": 138.82789451666704,
                        "value": 0.7007874015748031
                    },
                    {
                        "number": 7,
                        "time": 138.89241061666704,
                        "value": 0.7086614173228346
                    },
                    {
                        "number": 7,
                        "time": 138.9623030583337,
                        "value": 0.7165354330708661
                    },
                    {
                        "number": 7,
                        "time": 139.03757184166705,
                        "value": 0.7244094488188977
                    },
                    {
                        "number": 7,
                        "time": 139.0967116000004,
                        "value": 0.7322834645669292
                    },
                    {
                        "number": 7,
                        "time": 139.19348575000038,
                        "value": 0.7401574803149606
                    },
                    {
                        "number": 7,
                        "time": 139.23112014166705,
                        "value": 0.7480314960629921
                    },
                    {
                        "number": 7,
                        "time": 139.3171416083337,
                        "value": 0.7559055118110236
                    },
                    {
                        "number": 7,
                        "time": 139.40316307500038,
                        "value": 0.7637795275590551
                    },
                    {
                        "number": 7,
                        "time": 139.51068990833372,
                        "value": 0.7716535433070866
                    },
                    {
                        "number": 7,
                        "time": 139.58595869166706,
                        "value": 0.7795275590551181
                    },
                    {
                        "number": 7,
                        "time": 140.0644531000004,
                        "value": 0.7874015748031497
                    },
                    {
                        "number": 7,
                        "time": 140.19886164166707,
                        "value": 0.7952755905511811
                    },
                    {
                        "number": 7,
                        "time": 150.81713643333367,
                        "value": 0.7874015748031497
                    },
                    {
                        "number": 7,
                        "time": 150.90315790000034,
                        "value": 0.7795275590551181
                    },
                    {
                        "number": 7,
                        "time": 150.96767400000036,
                        "value": 0.7716535433070866
                    },
                    {
                        "number": 7,
                        "time": 151.08595351666702,
                        "value": 0.7637795275590551
                    },
                    {
                        "number": 7,
                        "time": 151.22573840000035,
                        "value": 0.7559055118110236
                    },
                    {
                        "number": 7,
                        "time": 151.5429425583337,
                        "value": 0.7480314960629921
                    },
                    {
                        "number": 7,
                        "time": 153.63433946666703,
                        "value": 0.7559055118110236
                    },
                    {
                        "number": 7,
                        "time": 153.83864045000036,
                        "value": 0.7637795275590551
                    },
                    {
                        "number": 7,
                        "time": 154.01068338333369,
                        "value": 0.7716535433070866
                    },
                    {
                        "number": 7,
                        "time": 154.07519948333368,
                        "value": 0.7795275590551181
                    },
                    {
                        "number": 7,
                        "time": 154.14509192500034,
                        "value": 0.7874015748031497
                    },
                    {
                        "number": 7,
                        "time": 154.20960802500034,
                        "value": 0.7952755905511811
                    },
                    {
                        "number": 7,
                        "time": 154.295629491667,
                        "value": 0.8031496062992126
                    },
                    {
                        "number": 7,
                        "time": 154.36552193333367,
                        "value": 0.8110236220472441
                    },
                    {
                        "number": 7,
                        "time": 154.43003803333366,
                        "value": 0.8188976377952756
                    },
                    {
                        "number": 7,
                        "time": 154.537564866667,
                        "value": 0.8267716535433071
                    },
                    {
                        "number": 7,
                        "time": 154.61283365000034,
                        "value": 0.8346456692913385
                    },
                    {
                        "number": 7,
                        "time": 154.682726091667,
                        "value": 0.84251968503937
                    },
                    {
                        "number": 7,
                        "time": 154.747242191667,
                        "value": 0.8503937007874016
                    },
                    {
                        "number": 7,
                        "time": 154.795629266667,
                        "value": 0.8582677165354331
                    },
                    {
                        "number": 7,
                        "time": 154.96767220000032,
                        "value": 0.8661417322834646
                    },
                    {
                        "number": 7,
                        "time": 155.0644463500003,
                        "value": 0.8740157480314961
                    },
                    {
                        "number": 7,
                        "time": 155.23648928333364,
                        "value": 0.8818897637795275
                    },
                    {
                        "number": 7,
                        "time": 155.44616660833364,
                        "value": 0.889763779527559
                    },
                    {
                        "number": 7,
                        "time": 160.37627191666695,
                        "value": 0.8818897637795275
                    },
                    {
                        "number": 7,
                        "time": 160.46229338333362,
                        "value": 0.8740157480314961
                    },
                    {
                        "number": 7,
                        "time": 160.4945514333336,
                        "value": 0.8661417322834646
                    },
                    {
                        "number": 7,
                        "time": 160.54831485000028,
                        "value": 0.8582677165354331
                    },
                    {
                        "number": 7,
                        "time": 160.65584168333362,
                        "value": 0.8503937007874016
                    },
                    {
                        "number": 7,
                        "time": 160.7526158333336,
                        "value": 0.84251968503937
                    },
                    {
                        "number": 7,
                        "time": 160.83863730000027,
                        "value": 0.8346456692913385
                    },
                    {
                        "number": 7,
                        "time": 160.91390608333361,
                        "value": 0.8267716535433071
                    },
                    {
                        "number": 7,
                        "time": 161.03756194166695,
                        "value": 0.8188976377952756
                    },
                    {
                        "number": 7,
                        "time": 161.1450887750003,
                        "value": 0.8110236220472441
                    },
                    {
                        "number": 7,
                        "time": 161.2902500000003,
                        "value": 0.8031496062992126
                    },
                    {
                        "number": 7,
                        "time": 161.86551855833363,
                        "value": 0.7952755905511811
                    },
                    {
                        "number": 7,
                        "time": 161.94078734166698,
                        "value": 0.7874015748031497
                    },
                    {
                        "number": 7,
                        "time": 162.20960442500032,
                        "value": 0.7795275590551181
                    },
                    {
                        "number": 7,
                        "time": 162.34401296666698,
                        "value": 0.7716535433070866
                    },
                    {
                        "number": 7,
                        "time": 162.66121712500032,
                        "value": 0.7637795275590551
                    },
                    {
                        "number": 7,
                        "time": 162.77412030000033,
                        "value": 0.7559055118110236
                    },
                    {
                        "number": 7,
                        "time": 162.87089445000032,
                        "value": 0.7480314960629921
                    },
                    {
                        "number": 7,
                        "time": 163.01605567500033,
                        "value": 0.7401574803149606
                    },
                    {
                        "number": 7,
                        "time": 185.39776603333365,
                        "value": 0.7322834645669292
                    },
                    {
                        "number": 7,
                        "time": 185.43540042500032,
                        "value": 0.7244094488188977
                    },
                    {
                        "number": 7,
                        "time": 185.48378750000032,
                        "value": 0.7086614173228346
                    },
                    {
                        "number": 7,
                        "time": 185.56980896666698,
                        "value": 0.7007874015748031
                    },
                    {
                        "number": 7,
                        "time": 185.61819604166698,
                        "value": 0.6929133858267716
                    },
                    {
                        "number": 7,
                        "time": 185.81712068333366,
                        "value": 0.6850393700787402
                    },
                    {
                        "number": 7,
                        "time": 187.63970050833365,
                        "value": 0.6771653543307087
                    },
                    {
                        "number": 7,
                        "time": 187.7579800250003,
                        "value": 0.6692913385826772
                    },
                    {
                        "number": 7,
                        "time": 187.94077564166696,
                        "value": 0.6614173228346457
                    },
                    {
                        "number": 7,
                        "time": 188.03754979166695,
                        "value": 0.6535433070866141
                    },
                    {
                        "number": 7,
                        "time": 188.17733467500028,
                        "value": 0.6456692913385826
                    },
                    {
                        "number": 7,
                        "time": 188.23647443333363,
                        "value": 0.6377952755905512
                    },
                    {
                        "number": 7,
                        "time": 188.3332485833336,
                        "value": 0.6299212598425197
                    },
                    {
                        "number": 7,
                        "time": 200.1504475666669,
                        "value": 0.6377952755905512
                    },
                    {
                        "number": 7,
                        "time": 200.20421098333358,
                        "value": 0.6456692913385826
                    },
                    {
                        "number": 7,
                        "time": 200.29023245000027,
                        "value": 0.6614173228346457
                    },
                    {
                        "number": 7,
                        "time": 200.34937220833362,
                        "value": 0.6692913385826772
                    },
                    {
                        "number": 7,
                        "time": 200.42464099166696,
                        "value": 0.6771653543307087
                    },
                    {
                        "number": 7,
                        "time": 200.4837807500003,
                        "value": 0.6850393700787402
                    },
                    {
                        "number": 7,
                        "time": 200.55904953333365,
                        "value": 0.6929133858267716
                    },
                    {
                        "number": 7,
                        "time": 200.61281295000032,
                        "value": 0.7007874015748031
                    },
                    {
                        "number": 7,
                        "time": 200.6934580750003,
                        "value": 0.7086614173228346
                    },
                    {
                        "number": 7,
                        "time": 200.75259783333365,
                        "value": 0.7165354330708661
                    },
                    {
                        "number": 7,
                        "time": 200.83861930000032,
                        "value": 0.7244094488188977
                    },
                    {
                        "number": 7,
                        "time": 200.9031354000003,
                        "value": 0.7322834645669292
                    },
                    {
                        "number": 7,
                        "time": 200.9515224750003,
                        "value": 0.7401574803149606
                    },
                    {
                        "number": 7,
                        "time": 200.9837805250003,
                        "value": 0.7559055118110236
                    },
                    {
                        "number": 7,
                        "time": 201.06980199166696,
                        "value": 0.7637795275590551
                    },
                    {
                        "number": 7,
                        "time": 201.15582345833363,
                        "value": 0.7716535433070866
                    },
                    {
                        "number": 7,
                        "time": 201.20421053333362,
                        "value": 0.7795275590551181
                    },
                    {
                        "number": 7,
                        "time": 201.2687266333336,
                        "value": 0.7874015748031497
                    },
                    {
                        "number": 7,
                        "time": 201.35474810000028,
                        "value": 0.7952755905511811
                    },
                    {
                        "number": 7,
                        "time": 212.0859260666669,
                        "value": 0.7874015748031497
                    },
                    {
                        "number": 7,
                        "time": 212.19345290000024,
                        "value": 0.7795275590551181
                    },
                    {
                        "number": 7,
                        "time": 212.27409802500023,
                        "value": 0.7716535433070866
                    },
                    {
                        "number": 7,
                        "time": 212.3762485166669,
                        "value": 0.7559055118110236
                    },
                    {
                        "number": 7,
                        "time": 212.45151730000023,
                        "value": 0.7480314960629921
                    },
                    {
                        "number": 7,
                        "time": 212.5214097416669,
                        "value": 0.7401574803149606
                    },
                    {
                        "number": 7,
                        "time": 212.63431291666691,
                        "value": 0.7322834645669292
                    },
                    {
                        "number": 7,
                        "time": 212.69345267500026,
                        "value": 0.7244094488188977
                    },
                    {
                        "number": 7,
                        "time": 212.74721609166693,
                        "value": 0.7165354330708661
                    },
                    {
                        "number": 7,
                        "time": 212.84399024166694,
                        "value": 0.7086614173228346
                    },
                    {
                        "number": 7,
                        "time": 213.40312977500028,
                        "value": 0.7007874015748031
                    },
                    {
                        "number": 7,
                        "time": 213.66119417500028,
                        "value": 0.6929133858267716
                    },
                    {
                        "number": 7,
                        "time": 220.3547395500003,
                        "value": 0.7086614173228346
                    },
                    {
                        "number": 7,
                        "time": 220.3816212583336,
                        "value": 0.7165354330708661
                    },
                    {
                        "number": 7,
                        "time": 220.4138793083336,
                        "value": 0.7244094488188977
                    },
                    {
                        "number": 7,
                        "time": 220.45151370000028,
                        "value": 0.7322834645669292
                    },
                    {
                        "number": 7,
                        "time": 220.48914809166695,
                        "value": 0.7401574803149606
                    },
                    {
                        "number": 7,
                        "time": 220.52678248333362,
                        "value": 0.7480314960629921
                    },
                    {
                        "number": 7,
                        "time": 227.74720934166695,
                        "value": 0.7401574803149606
                    },
                    {
                        "number": 7,
                        "time": 227.85473617500028,
                        "value": 0.7322834645669292
                    },
                    {
                        "number": 7,
                        "time": 227.98914471666694,
                        "value": 0.7244094488188977
                    },
                    {
                        "number": 7,
                        "time": 228.19882204166694,
                        "value": 0.7165354330708661
                    },
                    {
                        "number": 7,
                        "time": 248.18806035833362,
                        "value": 0.7007874015748031
                    },
                    {
                        "number": 7,
                        "time": 248.21494206666694,
                        "value": 0.6929133858267716
                    },
                    {
                        "number": 7,
                        "time": 248.24182377500026,
                        "value": 0.6771653543307087
                    },
                    {
                        "number": 7,
                        "time": 248.26332914166693,
                        "value": 0.6692913385826772
                    },
                    {
                        "number": 7,
                        "time": 248.3009635333336,
                        "value": 0.6535433070866141
                    },
                    {
                        "number": 7,
                        "time": 248.77945794166695,
                        "value": 0.6614173228346457
                    },
                    {
                        "number": 7,
                        "time": 248.80096330833362,
                        "value": 0.6771653543307087
                    },
                    {
                        "number": 7,
                        "time": 248.82784501666694,
                        "value": 0.6850393700787402
                    },
                    {
                        "number": 7,
                        "time": 248.8654794083336,
                        "value": 0.6929133858267716
                    },
                    {
                        "number": 7,
                        "time": 249.05902770833362,
                        "value": 0.7007874015748031
                    },
                    {
                        "number": 7,
                        "time": 249.13429649166696,
                        "value": 0.7086614173228346
                    },
                    {
                        "number": 7,
                        "time": 255.16655184166694,
                        "value": 0.7165354330708661
                    },
                    {
                        "number": 7,
                        "time": 255.21493891666694,
                        "value": 0.7244094488188977
                    },
                    {
                        "number": 7,
                        "time": 255.26332599166693,
                        "value": 0.7322834645669292
                    },
                    {
                        "number": 7,
                        "time": 255.31171306666693,
                        "value": 0.7401574803149606
                    },
                    {
                        "number": 7,
                        "time": 255.33859477500025,
                        "value": 0.7480314960629921
                    },
                    {
                        "number": 7,
                        "time": 255.4246162416669,
                        "value": 0.7559055118110236
                    },
                    {
                        "number": 7,
                        "time": 255.5213903916669,
                        "value": 0.7637795275590551
                    },
                    {
                        "number": 7,
                        "time": 255.6665516166669,
                        "value": 0.7716535433070866
                    },
                    {
                        "number": 7,
                        "time": 255.75257308333357,
                        "value": 0.7795275590551181
                    },
                    {
                        "number": 7,
                        "time": 256.08052992500023,
                        "value": 0.7874015748031497
                    },
                    {
                        "number": 7,
                        "time": 260.76869985833355,
                        "value": 0.7952755905511811
                    },
                    {
                        "number": 7,
                        "time": 260.7955815666669,
                        "value": 0.8110236220472441
                    },
                    {
                        "number": 7,
                        "time": 260.81708693333354,
                        "value": 0.8188976377952756
                    },
                    {
                        "number": 7,
                        "time": 260.8547213250002,
                        "value": 0.8267716535433071
                    },
                    {
                        "number": 7,
                        "time": 286.92997840833357,
                        "value": 0.8346456692913385
                    },
                    {
                        "number": 7,
                        "time": 286.97836548333356,
                        "value": 0.84251968503937
                    },
                    {
                        "number": 7,
                        "time": 287.11277402500025,
                        "value": 0.8503937007874016
                    },
                    {
                        "number": 7,
                        "time": 287.24718256666694,
                        "value": 0.8582677165354331
                    },
                    {
                        "number": 7,
                        "time": 288.66653676666687,
                        "value": 0.8661417322834646
                    },
                    {
                        "number": 7,
                        "time": 289.11814946666686,
                        "value": 0.8740157480314961
                    },
                    {
                        "number": 7,
                        "time": 289.23105264166685,
                        "value": 0.8818897637795275
                    },
                    {
                        "number": 7,
                        "time": 289.36546118333354,
                        "value": 0.889763779527559
                    },
                    {
                        "number": 7,
                        "time": 289.4998697250002,
                        "value": 0.8976377952755905
                    },
                    {
                        "number": 7,
                        "time": 296.8385761000002,
                        "value": 0.889763779527559
                    },
                    {
                        "number": 7,
                        "time": 296.9030922000002,
                        "value": 0.8818897637795275
                    },
                    {
                        "number": 7,
                        "time": 297.1073931833335,
                        "value": 0.8740157480314961
                    },
                    {
                        "number": 7,
                        "time": 297.4138446583335,
                        "value": 0.8661417322834646
                    },
                    {
                        "number": 7,
                        "time": 297.6235219833335,
                        "value": 0.8582677165354331
                    },
                    {
                        "number": 7,
                        "time": 297.7256724750002,
                        "value": 0.8503937007874016
                    },
                    {
                        "number": 7,
                        "time": 297.80631760000017,
                        "value": 0.84251968503937
                    },
                    {
                        "number": 7,
                        "time": 297.89233906666686,
                        "value": 0.8346456692913385
                    },
                    {
                        "number": 7,
                        "time": 297.97836053333356,
                        "value": 0.8267716535433071
                    },
                    {
                        "number": 7,
                        "time": 298.2202959083335,
                        "value": 0.8188976377952756
                    },
                    {
                        "number": 7,
                        "time": 305.9837332750002,
                        "value": 0.8110236220472441
                    },
                    {
                        "number": 7,
                        "time": 306.0159913250002,
                        "value": 0.8031496062992126
                    },
                    {
                        "number": 7,
                        "time": 306.05362571666683,
                        "value": 0.7952755905511811
                    },
                    {
                        "number": 7,
                        "time": 306.0805074250002,
                        "value": 0.7795275590551181
                    },
                    {
                        "number": 7,
                        "time": 306.1073891333335,
                        "value": 0.7716535433070866
                    },
                    {
                        "number": 7,
                        "time": 306.1288945000002,
                        "value": 0.7637795275590551
                    },
                    {
                        "number": 7,
                        "time": 306.1503998666668,
                        "value": 0.7480314960629921
                    },
                    {
                        "number": 7,
                        "time": 306.17728157500017,
                        "value": 0.7401574803149606
                    },
                    {
                        "number": 7,
                        "time": 306.1987869416668,
                        "value": 0.7322834645669292
                    },
                    {
                        "number": 7,
                        "time": 306.22566865000016,
                        "value": 0.7244094488188977
                    },
                    {
                        "number": 7,
                        "time": 306.2633030416668,
                        "value": 0.7165354330708661
                    },
                    {
                        "number": 7,
                        "time": 306.32244280000015,
                        "value": 0.7086614173228346
                    },
                    {
                        "number": 7,
                        "time": 306.3977115833335,
                        "value": 0.7007874015748031
                    },
                    {
                        "number": 7,
                        "time": 306.4460986583335,
                        "value": 0.6929133858267716
                    },
                    {
                        "number": 7,
                        "time": 306.54287280833347,
                        "value": 0.6850393700787402
                    },
                    {
                        "number": 7,
                        "time": 306.6181415916668,
                        "value": 0.6771653543307087
                    },
                    {
                        "number": 7,
                        "time": 306.68803403333345,
                        "value": 0.6614173228346457
                    },
                    {
                        "number": 7,
                        "time": 307.01061453333347,
                        "value": 0.6535433070866141
                    },
                    {
                        "number": 7,
                        "time": 307.58050675000015,
                        "value": 0.6456692913385826
                    },
                    {
                        "number": 7,
                        "time": 310.1987851416668,
                        "value": 0.6377952755905512
                    },
                    {
                        "number": 7,
                        "time": 310.22566685000015,
                        "value": 0.6299212598425197
                    },
                    {
                        "number": 7,
                        "time": 310.2471722166668,
                        "value": 0.6220472440944882
                    },
                    {
                        "number": 7,
                        "time": 310.29018295000014,
                        "value": 0.6141732283464567
                    },
                    {
                        "number": 7,
                        "time": 310.4568495416668,
                        "value": 0.6062992125984252
                    },
                    {
                        "number": 7,
                        "time": 310.6557741833335,
                        "value": 0.5984251968503937
                    },
                    {
                        "number": 7,
                        "time": 312.4138379083334,
                        "value": 0.5826771653543307
                    },
                    {
                        "number": 7,
                        "time": 312.499859375,
                        "value": 0.5748031496062992
                    },
                    {
                        "number": 7,
                        "time": 316.61276075000006,
                        "value": 0.5669291338582677
                    },
                    {
                        "number": 7,
                        "time": 316.6880295333334,
                        "value": 0.5590551181102362
                    },
                    {
                        "number": 7,
                        "time": 316.75792197500004,
                        "value": 0.5511811023622047
                    },
                    {
                        "number": 7,
                        "time": 316.82243807500004,
                        "value": 0.5433070866141733
                    },
                    {
                        "number": 7,
                        "time": 316.9299649083334,
                        "value": 0.5354330708661418
                    },
                    {
                        "number": 7,
                        "time": 317.06437345000006,
                        "value": 0.5275590551181102
                    },
                    {
                        "number": 7,
                        "time": 317.15039491666676,
                        "value": 0.5196850393700787
                    },
                    {
                        "number": 7,
                        "time": 317.7364161583334,
                        "value": 0.5118110236220472
                    },
                    {
                        "number": 7,
                        "time": 325.32243425000013,
                        "value": 0.5196850393700787
                    },
                    {
                        "number": 7,
                        "time": 325.3869503500001,
                        "value": 0.5275590551181102
                    },
                    {
                        "number": 7,
                        "time": 325.49447718333346,
                        "value": 0.5354330708661418
                    },
                    {
                        "number": 7,
                        "time": 325.59125133333345,
                        "value": 0.5433070866141733
                    },
                    {
                        "number": 7,
                        "time": 326.2686703833335,
                        "value": 0.5511811023622047
                    },
                    {
                        "number": 7,
                        "time": 326.35469185000017,
                        "value": 0.5590551181102362
                    },
                    {
                        "number": 7,
                        "time": 326.44071331666686,
                        "value": 0.5669291338582677
                    },
                    {
                        "number": 7,
                        "time": 326.53748746666685,
                        "value": 0.5748031496062992
                    },
                    {
                        "number": 7,
                        "time": 326.63426161666683,
                        "value": 0.5826771653543307
                    },
                    {
                        "number": 7,
                        "time": 326.79017552500017,
                        "value": 0.5905511811023622
                    },
                    {
                        "number": 7,
                        "time": 326.9622184583335,
                        "value": 0.5984251968503937
                    },
                    {
                        "number": 7,
                        "time": 327.1503904166668,
                        "value": 0.6062992125984252
                    },
                    {
                        "number": 7,
                        "time": 327.53748701666683,
                        "value": 0.6141732283464567
                    },
                    {
                        "number": 7,
                        "time": 327.9299599583335,
                        "value": 0.6220472440944882
                    },
                    {
                        "number": 7,
                        "time": 328.1503899666668,
                        "value": 0.6299212598425197
                    },
                    {
                        "number": 7,
                        "time": 328.3815726583335,
                        "value": 0.6377952755905512
                    },
                    {
                        "number": 7,
                        "time": 328.4837231500002,
                        "value": 0.6456692913385826
                    },
                    {
                        "number": 7,
                        "time": 328.5697446166668,
                        "value": 0.6614173228346457
                    },
                    {
                        "number": 7,
                        "time": 328.75254023333343,
                        "value": 0.6692913385826772
                    },
                    {
                        "number": 7,
                        "time": 328.90845414166677,
                        "value": 0.6771653543307087
                    },
                    {
                        "number": 7,
                        "time": 329.03748634166675,
                        "value": 0.6850393700787402
                    },
                    {
                        "number": 7,
                        "time": 329.20415293333343,
                        "value": 0.6929133858267716
                    },
                    {
                        "number": 7,
                        "time": 329.3009270833334,
                        "value": 0.7007874015748031
                    },
                    {
                        "number": 7,
                        "time": 329.4460883083334,
                        "value": 0.7086614173228346
                    },
                    {
                        "number": 7,
                        "time": 329.54823880000004,
                        "value": 0.7165354330708661
                    },
                    {
                        "number": 7,
                        "time": 329.9245827166667,
                        "value": 0.7244094488188977
                    },
                    {
                        "number": 7,
                        "time": 330.0589912583334,
                        "value": 0.7322834645669292
                    },
                    {
                        "number": 7,
                        "time": 330.25791590000006,
                        "value": 0.7401574803149606
                    },
                    {
                        "number": 7,
                        "time": 330.39232444166674,
                        "value": 0.7480314960629921
                    },
                    {
                        "number": 7,
                        "time": 330.5589910333334,
                        "value": 0.7559055118110236
                    },
                    {
                        "number": 7,
                        "time": 330.68264689166676,
                        "value": 0.7637795275590551
                    },
                    {
                        "number": 7,
                        "time": 330.9407112916668,
                        "value": 0.7716535433070866
                    },
                    {
                        "number": 7,
                        "time": 331.41920570000013,
                        "value": 0.7795275590551181
                    },
                    {
                        "number": 7,
                        "time": 331.5159798500001,
                        "value": 0.7874015748031497
                    },
                    {
                        "number": 7,
                        "time": 331.7847969333335,
                        "value": 0.7952755905511811
                    },
                    {
                        "number": 7,
                        "time": 332.19877524166685,
                        "value": 0.8031496062992126
                    },
                    {
                        "number": 7,
                        "time": 332.2740440250002,
                        "value": 0.8110236220472441
                    },
                    {
                        "number": 7,
                        "time": 334.1342582416669,
                        "value": 0.8188976377952756
                    },
                    {
                        "number": 7,
                        "time": 334.1933980000002,
                        "value": 0.8346456692913385
                    },
                    {
                        "number": 7,
                        "time": 334.2686667833335,
                        "value": 0.84251968503937
                    },
                    {
                        "number": 7,
                        "time": 334.6342580166669,
                        "value": 0.8503937007874016
                    },
                    {
                        "number": 7,
                        "time": 335.81167684166684,
                        "value": 0.8582677165354331
                    },
                    {
                        "number": 7,
                        "time": 335.8493112333335,
                        "value": 0.8661417322834646
                    },
                    {
                        "number": 7,
                        "time": 335.9084509916668,
                        "value": 0.8740157480314961
                    },
                    {
                        "number": 7,
                        "time": 336.21490246666684,
                        "value": 0.8818897637795275
                    },
                    {
                        "number": 7,
                        "time": 336.26328954166684,
                        "value": 0.889763779527559
                    },
                    {
                        "number": 7,
                        "time": 336.3761927166668,
                        "value": 0.8976377952755905
                    },
                    {
                        "number": 7,
                        "time": 336.4568378416668,
                        "value": 0.905511811023622
                    },
                    {
                        "number": 7,
                        "time": 336.5428593083335,
                        "value": 0.9133858267716536
                    },
                    {
                        "number": 7,
                        "time": 336.56974101666685,
                        "value": 0.9212598425196851
                    },
                    {
                        "number": 7,
                        "time": 336.5912463833335,
                        "value": 0.9291338582677166
                    },
                    {
                        "number": 7,
                        "time": 336.62888077500014,
                        "value": 0.937007874015748
                    },
                    {
                        "number": 7,
                        "time": 337.7579125250001,
                        "value": 0.952755905511811
                    },
                    {
                        "number": 7,
                        "time": 337.96221350833343,
                        "value": 0.9606299212598425
                    },
                    {
                        "number": 7,
                        "time": 338.1450091250001,
                        "value": 0.968503937007874
                    },
                    {
                        "number": 7,
                        "time": 338.1933962000001,
                        "value": 0.9763779527559056
                    },
                    {
                        "number": 7,
                        "time": 338.55361109166677,
                        "value": 0.984251968503937
                    },
                    {
                        "number": 7,
                        "time": 341.8278031666668,
                        "value": 1
                    }
                ],
                "10": [
                    {
                        "number": 10,
                        "time": 0,
                        "value": 0.5039370078740157
                    },
                    {
                        "number": 10,
                        "time": 0,
                        "value": 0.15748031496062992
                    }
                ],
                "32": [
                    {
                        "number": 32,
                        "time": 52.1182561166667,
                        "value": 0
                    },
                    {
                        "number": 32,
                        "time": 55.9408350416667,
                        "value": 0
                    },
                    {
                        "number": 32,
                        "time": 62.69889651666672,
                        "value": 0
                    },
                    {
                        "number": 32,
                        "time": 62.962337258333385,
                        "value": 0
                    },
                    {
                        "number": 32,
                        "time": 114.05371211666707,
                        "value": 0
                    },
                    {
                        "number": 32,
                        "time": 117.87629104166709,
                        "value": 0
                    },
                    {
                        "number": 32,
                        "time": 124.63435251666708,
                        "value": 0
                    },
                    {
                        "number": 32,
                        "time": 124.69886861666708,
                        "value": 0
                    },
                    {
                        "number": 32,
                        "time": 124.89779325833375,
                        "value": 0
                    },
                    {
                        "number": 32,
                        "time": 131.45693009166706,
                        "value": 0
                    },
                    {
                        "number": 32,
                        "time": 133.38166040833374,
                        "value": 0
                    },
                    {
                        "number": 32,
                        "time": 146.87627799166702,
                        "value": 0
                    },
                    {
                        "number": 32,
                        "time": 171.7418582000003,
                        "value": 0
                    },
                    {
                        "number": 32,
                        "time": 177.90852209166704,
                        "value": 0
                    },
                    {
                        "number": 32,
                        "time": 187.07518463333366,
                        "value": 0
                    },
                    {
                        "number": 32,
                        "time": 193.39238609166696,
                        "value": 0
                    },
                    {
                        "number": 32,
                        "time": 195.31711640833365,
                        "value": 0
                    },
                    {
                        "number": 32,
                        "time": 208.81173399166693,
                        "value": 0
                    },
                    {
                        "number": 32,
                        "time": 233.67731420000024,
                        "value": 0
                    },
                    {
                        "number": 32,
                        "time": 239.84397809166697,
                        "value": 0
                    },
                    {
                        "number": 32,
                        "time": 243.8493526333336,
                        "value": 0
                    },
                    {
                        "number": 32,
                        "time": 259.5697756666669,
                        "value": 0
                    },
                    {
                        "number": 32,
                        "time": 272.6880493333335,
                        "value": 0
                    },
                    {
                        "number": 32,
                        "time": 279.2095517750002,
                        "value": 0
                    },
                    {
                        "number": 32,
                        "time": 286.1020217916669,
                        "value": 0
                    },
                    {
                        "number": 32,
                        "time": 301.7740577500001,
                        "value": 0
                    },
                    {
                        "number": 32,
                        "time": 305.5428732583335,
                        "value": 0
                    },
                    {
                        "number": 32,
                        "time": 305.58588399166683,
                        "value": 0
                    },
                    {
                        "number": 32,
                        "time": 308.2740548250002,
                        "value": 0
                    },
                    {
                        "number": 32,
                        "time": 333.02673185833356,
                        "value": 0
                    },
                    {
                        "number": 32,
                        "time": 341.6933946250001,
                        "value": 0
                    }
                ],
                "91": [
                    {
                        "number": 91,
                        "time": 0,
                        "value": 0.31496062992125984
                    }
                ],
                "93": [
                    {
                        "number": 93,
                        "time": 0,
                        "value": 0
                    }
                ],
                "120": [
                    {
                        "number": 120,
                        "time": 0,
                        "value": 0
                    }
                ],
                "121": [
                    {
                        "number": 121,
                        "time": 0,
                        "value": 0
                    }
                ]
            },
            "id": 2,
            "name": "Violin",
            "instrumentNumber": 40,
            "instrument": "violin",
            "instrumentFamily": "strings",
            "channelNumber": 1,
            "isPercussion": false
        },
        {
            "startTime": 0,
            "duration": 0,
            "length": 0,
            "notes": [],
            "controlChanges": {},
            "id": 3,
            "name": "Larghetto Cantible"
        },
        {
            "startTime": 0,
            "duration": 0,
            "length": 0,
            "notes": [],
            "controlChanges": {},
            "id": 4,
            "name": "from Centone di Sonate"
        },
        {
            "startTime": 0,
            "duration": 0,
            "length": 0,
            "notes": [],
            "controlChanges": {},
            "id": 5,
            "name": "by Niccolo Paganini"
        },
        {
            "startTime": 0,
            "duration": 0,
            "length": 0,
            "notes": [],
            "controlChanges": {},
            "id": 6,
            "name": "Sequenced by Gene Reynolds"
        },
        {
            "startTime": 0,
            "duration": 0,
            "length": 0,
            "notes": [],
            "controlChanges": {},
            "id": 7,
            "name": "on the Roland JW-50"
        }
    ]
}