{
    "header": {
        "PPQ": 1024,
        "timeSignature": [
            3,
            4
        ],
        "bpm": 150,
        "name": ""
    },
    "startTime": 0,
    "duration": 130.0000000000007,
    "tracks": [
        {
            "startTime": 0,
            "duration": 0,
            "length": 0,
            "notes": [],
            "controlChanges": {},
            "id": 0
        },
        {
            "startTime": 0.4,
            "duration": 130.00000000000045,
            "length": 560,
            "notes": [
                {
                    "name": "D3",
                    "midi": 50,
                    "time": 0.4,
                    "velocity": 0.5039370078740157,
                    "duration": 0.4
                },
                {
                    "name": "A3",
                    "midi": 57,
                    "time": 0.4,
                    "velocity": 0.5039370078740157,
                    "duration": 0.4
                },
                {
                    "name": "D4",
                    "midi": 62,
                    "time": 0.4,
                    "velocity": 0.5039370078740157,
                    "duration": 0.4
                },
                {
                    "name": "F#4",
                    "midi": 66,
                    "time": 0.4,
                    "velocity": 0.5039370078740157,
                    "duration": 0.4
                },
                {
                    "name": "D3",
                    "midi": 50,
                    "time": 1.2000000000000002,
                    "velocity": 0.5039370078740157,
                    "duration": 0.3999999999999999
                },
                {
                    "name": "G#3",
                    "midi": 56,
                    "time": 1.2000000000000002,
                    "velocity": 0.5039370078740157,
                    "duration": 0.3999999999999999
                },
                {
                    "name": "D4",
                    "midi": 62,
                    "time": 1.2000000000000002,
                    "velocity": 0.5039370078740157,
                    "duration": 0.3999999999999999
                },
                {
                    "name": "F4",
                    "midi": 65,
                    "time": 1.2000000000000002,
                    "velocity": 0.5039370078740157,
                    "duration": 0.3999999999999999
                },
                {
                    "name": "D3",
                    "midi": 50,
                    "time": 1.6,
                    "velocity": 0.5039370078740157,
                    "duration": 0.3999999999999999
                },
                {
                    "name": "A3",
                    "midi": 57,
                    "time": 1.6,
                    "velocity": 0.5039370078740157,
                    "duration": 0.3999999999999999
                },
                {
                    "name": "D4",
                    "midi": 62,
                    "time": 1.6,
                    "velocity": 0.5039370078740157,
                    "duration": 0.3999999999999999
                },
                {
                    "name": "F#4",
                    "midi": 66,
                    "time": 1.6,
                    "velocity": 0.5039370078740157,
                    "duration": 0.3999999999999999
                },
                {
                    "name": "D3",
                    "midi": 50,
                    "time": 2.8,
                    "velocity": 0.5039370078740157,
                    "duration": 0.3999999999999999
                },
                {
                    "name": "A3",
                    "midi": 57,
                    "time": 2.8,
                    "velocity": 0.5039370078740157,
                    "duration": 0.3999999999999999
                },
                {
                    "name": "D4",
                    "midi": 62,
                    "time": 2.8,
                    "velocity": 0.5039370078740157,
                    "duration": 0.3999999999999999
                },
                {
                    "name": "F#4",
                    "midi": 66,
                    "time": 2.8,
                    "velocity": 0.5039370078740157,
                    "duration": 0.3999999999999999
                },
                {
                    "name": "D3",
                    "midi": 50,
                    "time": 3.5999999999999996,
                    "velocity": 0.5039370078740157,
                    "duration": 0.3999999999999999
                },
                {
                    "name": "G#3",
                    "midi": 56,
                    "time": 3.5999999999999996,
                    "velocity": 0.5039370078740157,
                    "duration": 0.3999999999999999
                },
                {
                    "name": "D4",
                    "midi": 62,
                    "time": 3.5999999999999996,
                    "velocity": 0.5039370078740157,
                    "duration": 0.3999999999999999
                },
                {
                    "name": "F4",
                    "midi": 65,
                    "time": 3.5999999999999996,
                    "velocity": 0.5039370078740157,
                    "duration": 0.3999999999999999
                },
                {
                    "name": "D3",
                    "midi": 50,
                    "time": 3.9999999999999996,
                    "velocity": 0.5039370078740157,
                    "duration": 0.3999999999999999
                },
                {
                    "name": "A3",
                    "midi": 57,
                    "time": 3.9999999999999996,
                    "velocity": 0.5039370078740157,
                    "duration": 0.3999999999999999
                },
                {
                    "name": "D4",
                    "midi": 62,
                    "time": 3.9999999999999996,
                    "velocity": 0.5039370078740157,
                    "duration": 0.3999999999999999
                },
                {
                    "name": "F#4",
                    "midi": 66,
                    "time": 3.9999999999999996,
                    "velocity": 0.5039370078740157,
                    "duration": 0.3999999999999999
                },
                {
                    "name": "D3",
                    "midi": 50,
                    "time": 5.199999999999999,
                    "velocity": 0.5039370078740157,
                    "duration": 0.40000000000000036
                },
                {
                    "name": "A3",
                    "midi": 57,
                    "time": 5.199999999999999,
                    "velocity": 0.5039370078740157,
                    "duration": 0.40000000000000036
                },
                {
                    "name": "D4",
                    "midi": 62,
                    "time": 5.199999999999999,
                    "velocity": 0.5039370078740157,
                    "duration": 0.40000000000000036
                },
                {
                    "name": "F#4",
                    "midi": 66,
                    "time": 5.199999999999999,
                    "velocity": 0.5039370078740157,
                    "duration": 0.40000000000000036
                },
                {
                    "name": "D3",
                    "midi": 50,
                    "time": 6,
                    "velocity": 0.5039370078740157,
                    "duration": 0.40000000000000036
                },
                {
                    "name": "A3",
                    "midi": 57,
                    "time": 6,
                    "velocity": 0.5039370078740157,
                    "duration": 0.40000000000000036
                },
                {
                    "name": "D4",
                    "midi": 62,
                    "time": 6,
                    "velocity": 0.5039370078740157,
                    "duration": 0.40000000000000036
                },
                {
                    "name": "F#4",
                    "midi": 66,
                    "time": 6,
                    "velocity": 0.5039370078740157,
                    "duration": 0.40000000000000036
                },
                {
                    "name": "C#3",
                    "midi": 49,
                    "time": 6.800000000000001,
                    "velocity": 0.5039370078740157,
                    "duration": 0.40000000000000036
                },
                {
                    "name": "F#3",
                    "midi": 54,
                    "time": 6.800000000000001,
                    "velocity": 0.5039370078740157,
                    "duration": 0.40000000000000036
                },
                {
                    "name": "A3",
                    "midi": 57,
                    "time": 6.800000000000001,
                    "velocity": 0.5039370078740157,
                    "duration": 0.40000000000000036
                },
                {
                    "name": "C#4",
                    "midi": 61,
                    "time": 6.800000000000001,
                    "velocity": 0.5039370078740157,
                    "duration": 0.40000000000000036
                },
                {
                    "name": "C#3",
                    "midi": 49,
                    "time": 7.600000000000001,
                    "velocity": 0.5039370078740157,
                    "duration": 0.40000000000000036
                },
                {
                    "name": "F#3",
                    "midi": 54,
                    "time": 7.600000000000001,
                    "velocity": 0.5039370078740157,
                    "duration": 0.40000000000000036
                },
                {
                    "name": "A3",
                    "midi": 57,
                    "time": 7.600000000000001,
                    "velocity": 0.5039370078740157,
                    "duration": 0.40000000000000036
                },
                {
                    "name": "C#4",
                    "midi": 61,
                    "time": 7.600000000000001,
                    "velocity": 0.5039370078740157,
                    "duration": 0.40000000000000036
                },
                {
                    "name": "C#3",
                    "midi": 49,
                    "time": 8.400000000000002,
                    "velocity": 0.5039370078740157,
                    "duration": 0.40000000000000036
                },
                {
                    "name": "G#3",
                    "midi": 56,
                    "time": 8.400000000000002,
                    "velocity": 0.5039370078740157,
                    "duration": 0.40000000000000036
                },
                {
                    "name": "C#4",
                    "midi": 61,
                    "time": 8.400000000000002,
                    "velocity": 0.5039370078740157,
                    "duration": 0.40000000000000036
                },
                {
                    "name": "F4",
                    "midi": 65,
                    "time": 8.400000000000002,
                    "velocity": 0.5039370078740157,
                    "duration": 0.40000000000000036
                },
                {
                    "name": "F#2",
                    "midi": 42,
                    "time": 8.800000000000002,
                    "velocity": 0.5039370078740157,
                    "duration": 0.40000000000000036
                },
                {
                    "name": "A3",
                    "midi": 57,
                    "time": 8.800000000000002,
                    "velocity": 0.5039370078740157,
                    "duration": 0.40000000000000036
                },
                {
                    "name": "C#4",
                    "midi": 61,
                    "time": 8.800000000000002,
                    "velocity": 0.5039370078740157,
                    "duration": 0.40000000000000036
                },
                {
                    "name": "F#4",
                    "midi": 66,
                    "time": 8.800000000000002,
                    "velocity": 0.5039370078740157,
                    "duration": 0.40000000000000036
                },
                {
                    "name": "D3",
                    "midi": 50,
                    "time": 10.000000000000004,
                    "velocity": 0.5039370078740157,
                    "duration": 0.40000000000000036
                },
                {
                    "name": "A3",
                    "midi": 57,
                    "time": 10.000000000000004,
                    "velocity": 0.5039370078740157,
                    "duration": 0.40000000000000036
                },
                {
                    "name": "D4",
                    "midi": 62,
                    "time": 10.000000000000004,
                    "velocity": 0.5039370078740157,
                    "duration": 0.40000000000000036
                },
                {
                    "name": "F#4",
                    "midi": 66,
                    "time": 10.000000000000004,
                    "velocity": 0.5039370078740157,
                    "duration": 0.40000000000000036
                },
                {
                    "name": "D3",
                    "midi": 50,
                    "time": 10.800000000000004,
                    "velocity": 0.5039370078740157,
                    "duration": 0.40000000000000036
                },
                {
                    "name": "G#3",
                    "midi": 56,
                    "time": 10.800000000000004,
                    "velocity": 0.5039370078740157,
                    "duration": 0.40000000000000036
                },
                {
                    "name": "D4",
                    "midi": 62,
                    "time": 10.800000000000004,
                    "velocity": 0.5039370078740157,
                    "duration": 0.40000000000000036
                },
                {
                    "name": "F4",
                    "midi": 65,
                    "time": 10.800000000000004,
                    "velocity": 0.5039370078740157,
                    "duration": 0.40000000000000036
                },
                {
                    "name": "D3",
                    "midi": 50,
                    "time": 11.200000000000005,
                    "velocity": 0.5039370078740157,
                    "duration": 0.40000000000000036
                },
                {
                    "name": "A3",
                    "midi": 57,
                    "time": 11.200000000000005,
                    "velocity": 0.5039370078740157,
                    "duration": 0.40000000000000036
                },
                {
                    "name": "D4",
                    "midi": 62,
                    "time": 11.200000000000005,
                    "velocity": 0.5039370078740157,
                    "duration": 0.40000000000000036
                },
                {
                    "name": "F#4",
                    "midi": 66,
                    "time": 11.200000000000005,
                    "velocity": 0.5039370078740157,
                    "duration": 0.40000000000000036
                },
                {
                    "name": "D3",
                    "midi": 50,
                    "time": 12.400000000000006,
                    "velocity": 0.5039370078740157,
                    "duration": 0.40000000000000036
                },
                {
                    "name": "A3",
                    "midi": 57,
                    "time": 12.400000000000006,
                    "velocity": 0.5039370078740157,
                    "duration": 0.40000000000000036
                },
                {
                    "name": "D4",
                    "midi": 62,
                    "time": 12.400000000000006,
                    "velocity": 0.5039370078740157,
                    "duration": 0.40000000000000036
                },
                {
                    "name": "F#4",
                    "midi": 66,
                    "time": 12.400000000000006,
                    "velocity": 0.5039370078740157,
                    "duration": 0.40000000000000036
                },
                {
                    "name": "D3",
                    "midi": 50,
                    "time": 13.200000000000006,
                    "velocity": 0.5039370078740157,
                    "duration": 0.40000000000000036
                },
                {
                    "name": "G#3",
                    "midi": 56,
                    "time": 13.200000000000006,
                    "velocity": 0.5039370078740157,
                    "duration": 0.40000000000000036
                },
                {
                    "name": "D4",
                    "midi": 62,
                    "time": 13.200000000000006,
                    "velocity": 0.5039370078740157,
                    "duration": 0.40000000000000036
                },
                {
                    "name": "F4",
                    "midi": 65,
                    "time": 13.200000000000006,
                    "velocity": 0.5039370078740157,
                    "duration": 0.40000000000000036
                },
                {
                    "name": "D3",
                    "midi": 50,
                    "time": 13.600000000000007,
                    "velocity": 0.5039370078740157,
                    "duration": 0.40000000000000036
                },
                {
                    "name": "A3",
                    "midi": 57,
                    "time": 13.600000000000007,
                    "velocity": 0.5039370078740157,
                    "duration": 0.40000000000000036
                },
                {
                    "name": "D4",
                    "midi": 62,
                    "time": 13.600000000000007,
                    "velocity": 0.5039370078740157,
                    "duration": 0.40000000000000036
                },
                {
                    "name": "F#4",
                    "midi": 66,
                    "time": 13.600000000000007,
                    "velocity": 0.5039370078740157,
                    "duration": 0.40000000000000036
                },
                {
                    "name": "D3",
                    "midi": 50,
                    "time": 14.800000000000008,
                    "velocity": 0.5039370078740157,
                    "duration": 0.40000000000000036
                },
                {
                    "name": "A3",
                    "midi": 57,
                    "time": 14.800000000000008,
                    "velocity": 0.5039370078740157,
                    "duration": 0.40000000000000036
                },
                {
                    "name": "D4",
                    "midi": 62,
                    "time": 14.800000000000008,
                    "velocity": 0.5039370078740157,
                    "duration": 0.40000000000000036
                },
                {
                    "name": "F#4",
                    "midi": 66,
                    "time": 14.800000000000008,
                    "velocity": 0.5039370078740157,
                    "duration": 0.40000000000000036
                },
                {
                    "name": "D3",
                    "midi": 50,
                    "time": 15.600000000000009,
                    "velocity": 0.5039370078740157,
                    "duration": 0.3999999999999986
                },
                {
                    "name": "A3",
                    "midi": 57,
                    "time": 15.600000000000009,
                    "velocity": 0.5039370078740157,
                    "duration": 0.3999999999999986
                },
                {
                    "name": "D4",
                    "midi": 62,
                    "time": 15.600000000000009,
                    "velocity": 0.5039370078740157,
                    "duration": 0.3999999999999986
                },
                {
                    "name": "F#4",
                    "midi": 66,
                    "time": 15.600000000000009,
                    "velocity": 0.5039370078740157,
                    "duration": 0.3999999999999986
                },
                {
                    "name": "C#3",
                    "midi": 49,
                    "time": 16.400000000000006,
                    "velocity": 0.5039370078740157,
                    "duration": 0.3999999999999986
                },
                {
                    "name": "F#3",
                    "midi": 54,
                    "time": 16.400000000000006,
                    "velocity": 0.5039370078740157,
                    "duration": 0.3999999999999986
                },
                {
                    "name": "A3",
                    "midi": 57,
                    "time": 16.400000000000006,
                    "velocity": 0.5039370078740157,
                    "duration": 0.3999999999999986
                },
                {
                    "name": "C#4",
                    "midi": 61,
                    "time": 16.400000000000006,
                    "velocity": 0.5039370078740157,
                    "duration": 0.3999999999999986
                },
                {
                    "name": "C#3",
                    "midi": 49,
                    "time": 17.200000000000003,
                    "velocity": 0.5039370078740157,
                    "duration": 0.3999999999999986
                },
                {
                    "name": "F#3",
                    "midi": 54,
                    "time": 17.200000000000003,
                    "velocity": 0.5039370078740157,
                    "duration": 0.3999999999999986
                },
                {
                    "name": "A3",
                    "midi": 57,
                    "time": 17.200000000000003,
                    "velocity": 0.5039370078740157,
                    "duration": 0.3999999999999986
                },
                {
                    "name": "C#4",
                    "midi": 61,
                    "time": 17.200000000000003,
                    "velocity": 0.5039370078740157,
                    "duration": 0.3999999999999986
                },
                {
                    "name": "C#3",
                    "midi": 49,
                    "time": 18,
                    "velocity": 0.5039370078740157,
                    "duration": 0.3999999999999986
                },
                {
                    "name": "G#3",
                    "midi": 56,
                    "time": 18,
                    "velocity": 0.5039370078740157,
                    "duration": 0.3999999999999986
                },
                {
                    "name": "C#4",
                    "midi": 61,
                    "time": 18,
                    "velocity": 0.5039370078740157,
                    "duration": 0.3999999999999986
                },
                {
                    "name": "F4",
                    "midi": 65,
                    "time": 18,
                    "velocity": 0.5039370078740157,
                    "duration": 0.3999999999999986
                },
                {
                    "name": "F#2",
                    "midi": 42,
                    "time": 18.4,
                    "velocity": 0.5039370078740157,
                    "duration": 0.3999999999999986
                },
                {
                    "name": "A3",
                    "midi": 57,
                    "time": 18.4,
                    "velocity": 0.5039370078740157,
                    "duration": 0.3999999999999986
                },
                {
                    "name": "C#4",
                    "midi": 61,
                    "time": 18.4,
                    "velocity": 0.5039370078740157,
                    "duration": 0.3999999999999986
                },
                {
                    "name": "F#4",
                    "midi": 66,
                    "time": 18.4,
                    "velocity": 0.5039370078740157,
                    "duration": 0.3999999999999986
                },
                {
                    "name": "D3",
                    "midi": 50,
                    "time": 19.599999999999998,
                    "velocity": 0.5039370078740157,
                    "duration": 1.1999999999999957
                },
                {
                    "name": "A3",
                    "midi": 57,
                    "time": 19.999999999999996,
                    "velocity": 0.5039370078740157,
                    "duration": 0.3999999999999986
                },
                {
                    "name": "C4",
                    "midi": 60,
                    "time": 19.999999999999996,
                    "velocity": 0.5039370078740157,
                    "duration": 0.3999999999999986
                },
                {
                    "name": "F#4",
                    "midi": 66,
                    "time": 19.999999999999996,
                    "velocity": 0.5039370078740157,
                    "duration": 0.3999999999999986
                },
                {
                    "name": "A3",
                    "midi": 57,
                    "time": 20.399999999999995,
                    "velocity": 0.5039370078740157,
                    "duration": 0.3999999999999986
                },
                {
                    "name": "C4",
                    "midi": 60,
                    "time": 20.399999999999995,
                    "velocity": 0.5039370078740157,
                    "duration": 0.3999999999999986
                },
                {
                    "name": "F#4",
                    "midi": 66,
                    "time": 20.399999999999995,
                    "velocity": 0.5039370078740157,
                    "duration": 0.3999999999999986
                },
                {
                    "name": "G2",
                    "midi": 43,
                    "time": 20.799999999999994,
                    "velocity": 0.5039370078740157,
                    "duration": 1.1999999999999957
                },
                {
                    "name": "G3",
                    "midi": 55,
                    "time": 21.199999999999992,
                    "velocity": 0.5039370078740157,
                    "duration": 0.3999999999999986
                },
                {
                    "name": "B3",
                    "midi": 59,
                    "time": 21.199999999999992,
                    "velocity": 0.5039370078740157,
                    "duration": 0.3999999999999986
                },
                {
                    "name": "G4",
                    "midi": 67,
                    "time": 21.199999999999992,
                    "velocity": 0.5039370078740157,
                    "duration": 0.3999999999999986
                },
                {
                    "name": "G3",
                    "midi": 55,
                    "time": 21.59999999999999,
                    "velocity": 0.5039370078740157,
                    "duration": 0.3999999999999986
                },
                {
                    "name": "B3",
                    "midi": 59,
                    "time": 21.59999999999999,
                    "velocity": 0.5039370078740157,
                    "duration": 0.3999999999999986
                },
                {
                    "name": "G4",
                    "midi": 67,
                    "time": 21.59999999999999,
                    "velocity": 0.5039370078740157,
                    "duration": 0.3999999999999986
                },
                {
                    "name": "D3",
                    "midi": 50,
                    "time": 21.99999999999999,
                    "velocity": 0.5039370078740157,
                    "duration": 1.1999999999999957
                },
                {
                    "name": "A3",
                    "midi": 57,
                    "time": 22.399999999999988,
                    "velocity": 0.5039370078740157,
                    "duration": 0.3999999999999986
                },
                {
                    "name": "C4",
                    "midi": 60,
                    "time": 22.399999999999988,
                    "velocity": 0.5039370078740157,
                    "duration": 0.3999999999999986
                },
                {
                    "name": "F#4",
                    "midi": 66,
                    "time": 22.399999999999988,
                    "velocity": 0.5039370078740157,
                    "duration": 0.3999999999999986
                },
                {
                    "name": "A3",
                    "midi": 57,
                    "time": 22.799999999999986,
                    "velocity": 0.5039370078740157,
                    "duration": 0.3999999999999986
                },
                {
                    "name": "C4",
                    "midi": 60,
                    "time": 22.799999999999986,
                    "velocity": 0.5039370078740157,
                    "duration": 0.3999999999999986
                },
                {
                    "name": "F#4",
                    "midi": 66,
                    "time": 22.799999999999986,
                    "velocity": 0.5039370078740157,
                    "duration": 0.3999999999999986
                },
                {
                    "name": "G2",
                    "midi": 43,
                    "time": 23.199999999999985,
                    "velocity": 0.5039370078740157,
                    "duration": 1.1999999999999957
                },
                {
                    "name": "G3",
                    "midi": 55,
                    "time": 23.599999999999984,
                    "velocity": 0.5039370078740157,
                    "duration": 0.3999999999999986
                },
                {
                    "name": "B3",
                    "midi": 59,
                    "time": 23.599999999999984,
                    "velocity": 0.5039370078740157,
                    "duration": 0.3999999999999986
                },
                {
                    "name": "G4",
                    "midi": 67,
                    "time": 23.599999999999984,
                    "velocity": 0.5039370078740157,
                    "duration": 0.3999999999999986
                },
                {
                    "name": "G3",
                    "midi": 55,
                    "time": 23.999999999999982,
                    "velocity": 0.5039370078740157,
                    "duration": 0.3999999999999986
                },
                {
                    "name": "B3",
                    "midi": 59,
                    "time": 23.999999999999982,
                    "velocity": 0.5039370078740157,
                    "duration": 0.3999999999999986
                },
                {
                    "name": "G4",
                    "midi": 67,
                    "time": 23.999999999999982,
                    "velocity": 0.5039370078740157,
                    "duration": 0.3999999999999986
                },
                {
                    "name": "E3",
                    "midi": 52,
                    "time": 24.39999999999998,
                    "velocity": 0.5039370078740157,
                    "duration": 1.1999999999999957
                },
                {
                    "name": "G#3",
                    "midi": 56,
                    "time": 24.79999999999998,
                    "velocity": 0.5039370078740157,
                    "duration": 0.3999999999999986
                },
                {
                    "name": "D4",
                    "midi": 62,
                    "time": 24.79999999999998,
                    "velocity": 0.5039370078740157,
                    "duration": 0.3999999999999986
                },
                {
                    "name": "E4",
                    "midi": 64,
                    "time": 24.79999999999998,
                    "velocity": 0.5039370078740157,
                    "duration": 0.3999999999999986
                },
                {
                    "name": "G#3",
                    "midi": 56,
                    "time": 25.199999999999978,
                    "velocity": 0.5039370078740157,
                    "duration": 0.3999999999999986
                },
                {
                    "name": "D4",
                    "midi": 62,
                    "time": 25.199999999999978,
                    "velocity": 0.5039370078740157,
                    "duration": 0.3999999999999986
                },
                {
                    "name": "E4",
                    "midi": 64,
                    "time": 25.199999999999978,
                    "velocity": 0.5039370078740157,
                    "duration": 0.3999999999999986
                },
                {
                    "name": "A2",
                    "midi": 45,
                    "time": 25.599999999999977,
                    "velocity": 0.5039370078740157,
                    "duration": 1.1999999999999957
                },
                {
                    "name": "A3",
                    "midi": 57,
                    "time": 25.999999999999975,
                    "velocity": 0.5039370078740157,
                    "duration": 0.3999999999999986
                },
                {
                    "name": "C#4",
                    "midi": 61,
                    "time": 25.999999999999975,
                    "velocity": 0.5039370078740157,
                    "duration": 0.3999999999999986
                },
                {
                    "name": "E4",
                    "midi": 64,
                    "time": 25.999999999999975,
                    "velocity": 0.5039370078740157,
                    "duration": 0.3999999999999986
                },
                {
                    "name": "A3",
                    "midi": 57,
                    "time": 26.399999999999974,
                    "velocity": 0.5039370078740157,
                    "duration": 0.3999999999999986
                },
                {
                    "name": "C#4",
                    "midi": 61,
                    "time": 26.399999999999974,
                    "velocity": 0.5039370078740157,
                    "duration": 0.3999999999999986
                },
                {
                    "name": "E4",
                    "midi": 64,
                    "time": 26.399999999999974,
                    "velocity": 0.5039370078740157,
                    "duration": 0.3999999999999986
                },
                {
                    "name": "E3",
                    "midi": 52,
                    "time": 26.799999999999972,
                    "velocity": 0.5039370078740157,
                    "duration": 1.1999999999999957
                },
                {
                    "name": "G#3",
                    "midi": 56,
                    "time": 27.19999999999997,
                    "velocity": 0.5039370078740157,
                    "duration": 0.3999999999999986
                },
                {
                    "name": "D4",
                    "midi": 62,
                    "time": 27.19999999999997,
                    "velocity": 0.5039370078740157,
                    "duration": 0.3999999999999986
                },
                {
                    "name": "E4",
                    "midi": 64,
                    "time": 27.19999999999997,
                    "velocity": 0.5039370078740157,
                    "duration": 0.3999999999999986
                },
                {
                    "name": "G#3",
                    "midi": 56,
                    "time": 27.59999999999997,
                    "velocity": 0.5039370078740157,
                    "duration": 0.3999999999999986
                },
                {
                    "name": "D4",
                    "midi": 62,
                    "time": 27.59999999999997,
                    "velocity": 0.5039370078740157,
                    "duration": 0.3999999999999986
                },
                {
                    "name": "E4",
                    "midi": 64,
                    "time": 27.59999999999997,
                    "velocity": 0.5039370078740157,
                    "duration": 0.3999999999999986
                },
                {
                    "name": "A2",
                    "midi": 45,
                    "time": 27.999999999999968,
                    "velocity": 0.5039370078740157,
                    "duration": 1.1999999999999957
                },
                {
                    "name": "A3",
                    "midi": 57,
                    "time": 28.399999999999967,
                    "velocity": 0.5039370078740157,
                    "duration": 0.3999999999999986
                },
                {
                    "name": "C#4",
                    "midi": 61,
                    "time": 28.399999999999967,
                    "velocity": 0.5039370078740157,
                    "duration": 0.3999999999999986
                },
                {
                    "name": "E4",
                    "midi": 64,
                    "time": 28.399999999999967,
                    "velocity": 0.5039370078740157,
                    "duration": 0.3999999999999986
                },
                {
                    "name": "A3",
                    "midi": 57,
                    "time": 28.799999999999965,
                    "velocity": 0.5039370078740157,
                    "duration": 0.3999999999999986
                },
                {
                    "name": "C#4",
                    "midi": 61,
                    "time": 28.799999999999965,
                    "velocity": 0.5039370078740157,
                    "duration": 0.3999999999999986
                },
                {
                    "name": "E4",
                    "midi": 64,
                    "time": 28.799999999999965,
                    "velocity": 0.5039370078740157,
                    "duration": 0.3999999999999986
                },
                {
                    "name": "F#3",
                    "midi": 54,
                    "time": 29.199999999999964,
                    "velocity": 0.5039370078740157,
                    "duration": 1.1999999999999957
                },
                {
                    "name": "A#3",
                    "midi": 58,
                    "time": 29.599999999999962,
                    "velocity": 0.5039370078740157,
                    "duration": 0.3999999999999986
                },
                {
                    "name": "C#4",
                    "midi": 61,
                    "time": 29.599999999999962,
                    "velocity": 0.5039370078740157,
                    "duration": 0.3999999999999986
                },
                {
                    "name": "E4",
                    "midi": 64,
                    "time": 29.599999999999962,
                    "velocity": 0.5039370078740157,
                    "duration": 0.3999999999999986
                },
                {
                    "name": "A#3",
                    "midi": 58,
                    "time": 29.99999999999996,
                    "velocity": 0.5039370078740157,
                    "duration": 0.3999999999999986
                },
                {
                    "name": "C#4",
                    "midi": 61,
                    "time": 29.99999999999996,
                    "velocity": 0.5039370078740157,
                    "duration": 0.3999999999999986
                },
                {
                    "name": "E4",
                    "midi": 64,
                    "time": 29.99999999999996,
                    "velocity": 0.5039370078740157,
                    "duration": 0.3999999999999986
                },
                {
                    "name": "B2",
                    "midi": 47,
                    "time": 30.39999999999996,
                    "velocity": 0.5039370078740157,
                    "duration": 1.1999999999999993
                },
                {
                    "name": "F#3",
                    "midi": 54,
                    "time": 30.799999999999958,
                    "velocity": 0.5039370078740157,
                    "duration": 0.8000000000000007
                },
                {
                    "name": "B3",
                    "midi": 59,
                    "time": 30.799999999999958,
                    "velocity": 0.5039370078740157,
                    "duration": 0.8000000000000007
                },
                {
                    "name": "D4",
                    "midi": 62,
                    "time": 30.799999999999958,
                    "velocity": 0.5039370078740157,
                    "duration": 0.8000000000000007
                },
                {
                    "name": "B2",
                    "midi": 47,
                    "time": 31.59999999999996,
                    "velocity": 0.5039370078740157,
                    "duration": 1.1999999999999957
                },
                {
                    "name": "D4",
                    "midi": 62,
                    "time": 31.999999999999957,
                    "velocity": 0.5039370078740157,
                    "duration": 0.7999999999999972
                },
                {
                    "name": "G4",
                    "midi": 67,
                    "time": 31.999999999999957,
                    "velocity": 0.5039370078740157,
                    "duration": 0.7999999999999972
                },
                {
                    "name": "A#2",
                    "midi": 46,
                    "time": 32.799999999999955,
                    "velocity": 0.5039370078740157,
                    "duration": 1.1999999999999957
                },
                {
                    "name": "C#4",
                    "midi": 61,
                    "time": 33.19999999999995,
                    "velocity": 0.5039370078740157,
                    "duration": 0.7999999999999972
                },
                {
                    "name": "F#4",
                    "midi": 66,
                    "time": 33.19999999999995,
                    "velocity": 0.5039370078740157,
                    "duration": 0.7999999999999972
                },
                {
                    "name": "A2",
                    "midi": 45,
                    "time": 33.99999999999995,
                    "velocity": 0.5039370078740157,
                    "duration": 1.1999999999999957
                },
                {
                    "name": "C4",
                    "midi": 60,
                    "time": 34.39999999999995,
                    "velocity": 0.5039370078740157,
                    "duration": 0.7999999999999972
                },
                {
                    "name": "F4",
                    "midi": 65,
                    "time": 34.39999999999995,
                    "velocity": 0.5039370078740157,
                    "duration": 0.7999999999999972
                },
                {
                    "name": "G#2",
                    "midi": 44,
                    "time": 35.199999999999946,
                    "velocity": 0.5039370078740157,
                    "duration": 1.1999999999999957
                },
                {
                    "name": "B3",
                    "midi": 59,
                    "time": 35.599999999999945,
                    "velocity": 0.5039370078740157,
                    "duration": 0.7999999999999972
                },
                {
                    "name": "E4",
                    "midi": 64,
                    "time": 35.599999999999945,
                    "velocity": 0.5039370078740157,
                    "duration": 0.7999999999999972
                },
                {
                    "name": "G2",
                    "midi": 43,
                    "time": 36.39999999999994,
                    "velocity": 0.5039370078740157,
                    "duration": 1.1999999999999957
                },
                {
                    "name": "A#3",
                    "midi": 58,
                    "time": 36.79999999999994,
                    "velocity": 0.5039370078740157,
                    "duration": 0.7999999999999972
                },
                {
                    "name": "D#4",
                    "midi": 63,
                    "time": 36.79999999999994,
                    "velocity": 0.5039370078740157,
                    "duration": 0.7999999999999972
                },
                {
                    "name": "F#2",
                    "midi": 42,
                    "time": 37.59999999999994,
                    "velocity": 0.5039370078740157,
                    "duration": 1.1999999999999957
                },
                {
                    "name": "A3",
                    "midi": 57,
                    "time": 37.999999999999936,
                    "velocity": 0.5039370078740157,
                    "duration": 0.7999999999999972
                },
                {
                    "name": "D4",
                    "midi": 62,
                    "time": 37.999999999999936,
                    "velocity": 0.5039370078740157,
                    "duration": 0.7999999999999972
                },
                {
                    "name": "E3",
                    "midi": 52,
                    "time": 38.79999999999993,
                    "velocity": 0.5039370078740157,
                    "duration": 0.3999999999999986
                },
                {
                    "name": "G#3",
                    "midi": 56,
                    "time": 38.79999999999993,
                    "velocity": 0.5039370078740157,
                    "duration": 0.3999999999999986
                },
                {
                    "name": "B3",
                    "midi": 59,
                    "time": 38.79999999999993,
                    "velocity": 0.5039370078740157,
                    "duration": 0.3999999999999986
                },
                {
                    "name": "E2",
                    "midi": 40,
                    "time": 38.79999999999993,
                    "velocity": 0.5039370078740157,
                    "duration": 0.3999999999999986
                },
                {
                    "name": "E3",
                    "midi": 52,
                    "time": 39.99999999999993,
                    "velocity": 0.5039370078740157,
                    "duration": 0.7999999999999972
                },
                {
                    "name": "A3",
                    "midi": 57,
                    "time": 39.99999999999993,
                    "velocity": 0.5039370078740157,
                    "duration": 0.7999999999999972
                },
                {
                    "name": "C#4",
                    "midi": 61,
                    "time": 39.99999999999993,
                    "velocity": 0.5039370078740157,
                    "duration": 0.7999999999999972
                },
                {
                    "name": "A2",
                    "midi": 45,
                    "time": 39.99999999999993,
                    "velocity": 0.5039370078740157,
                    "duration": 0.7999999999999972
                },
                {
                    "name": "E3",
                    "midi": 52,
                    "time": 41.199999999999925,
                    "velocity": 0.5039370078740157,
                    "duration": 0.7999999999999972
                },
                {
                    "name": "G#3",
                    "midi": 56,
                    "time": 41.199999999999925,
                    "velocity": 0.5039370078740157,
                    "duration": 0.7999999999999972
                },
                {
                    "name": "D4",
                    "midi": 62,
                    "time": 41.199999999999925,
                    "velocity": 0.5039370078740157,
                    "duration": 0.7999999999999972
                },
                {
                    "name": "A2",
                    "midi": 45,
                    "time": 41.59999999999992,
                    "velocity": 0.5039370078740157,
                    "duration": 0.7999999999999972
                },
                {
                    "name": "E3",
                    "midi": 52,
                    "time": 41.99999999999992,
                    "velocity": 0.5039370078740157,
                    "duration": 0.3999999999999986
                },
                {
                    "name": "G#3",
                    "midi": 56,
                    "time": 41.99999999999992,
                    "velocity": 0.5039370078740157,
                    "duration": 0.3999999999999986
                },
                {
                    "name": "D4",
                    "midi": 62,
                    "time": 41.99999999999992,
                    "velocity": 0.5039370078740157,
                    "duration": 0.3999999999999986
                },
                {
                    "name": "A2",
                    "midi": 45,
                    "time": 42.39999999999992,
                    "velocity": 0.5039370078740157,
                    "duration": 0.7999999999999972
                },
                {
                    "name": "E3",
                    "midi": 52,
                    "time": 42.79999999999992,
                    "velocity": 0.5039370078740157,
                    "duration": 0.7999999999999972
                },
                {
                    "name": "A3",
                    "midi": 57,
                    "time": 42.79999999999992,
                    "velocity": 0.5039370078740157,
                    "duration": 0.7999999999999972
                },
                {
                    "name": "C#4",
                    "midi": 61,
                    "time": 42.79999999999992,
                    "velocity": 0.5039370078740157,
                    "duration": 0.7999999999999972
                },
                {
                    "name": "A2",
                    "midi": 45,
                    "time": 43.19999999999992,
                    "velocity": 0.5039370078740157,
                    "duration": 0.3999999999999986
                },
                {
                    "name": "E3",
                    "midi": 52,
                    "time": 43.599999999999916,
                    "velocity": 0.5039370078740157,
                    "duration": 0.7999999999999972
                },
                {
                    "name": "G#3",
                    "midi": 56,
                    "time": 43.599999999999916,
                    "velocity": 0.5039370078740157,
                    "duration": 0.7999999999999972
                },
                {
                    "name": "D4",
                    "midi": 62,
                    "time": 43.599999999999916,
                    "velocity": 0.5039370078740157,
                    "duration": 0.7999999999999972
                },
                {
                    "name": "A2",
                    "midi": 45,
                    "time": 43.999999999999915,
                    "velocity": 0.5039370078740157,
                    "duration": 0.7999999999999972
                },
                {
                    "name": "E3",
                    "midi": 52,
                    "time": 44.39999999999991,
                    "velocity": 0.5039370078740157,
                    "duration": 0.3999999999999986
                },
                {
                    "name": "G#3",
                    "midi": 56,
                    "time": 44.39999999999991,
                    "velocity": 0.5039370078740157,
                    "duration": 0.3999999999999986
                },
                {
                    "name": "D4",
                    "midi": 62,
                    "time": 44.39999999999991,
                    "velocity": 0.5039370078740157,
                    "duration": 0.3999999999999986
                },
                {
                    "name": "A2",
                    "midi": 45,
                    "time": 44.79999999999991,
                    "velocity": 0.5039370078740157,
                    "duration": 1.1999999999999957
                },
                {
                    "name": "E3",
                    "midi": 52,
                    "time": 45.19999999999991,
                    "velocity": 0.5039370078740157,
                    "duration": 0.7999999999999972
                },
                {
                    "name": "A3",
                    "midi": 57,
                    "time": 45.19999999999991,
                    "velocity": 0.5039370078740157,
                    "duration": 0.7999999999999972
                },
                {
                    "name": "C#4",
                    "midi": 61,
                    "time": 45.19999999999991,
                    "velocity": 0.5039370078740157,
                    "duration": 0.7999999999999972
                },
                {
                    "name": "D3",
                    "midi": 50,
                    "time": 48.399999999999906,
                    "velocity": 0.5039370078740157,
                    "duration": 0.3999999999999986
                },
                {
                    "name": "A3",
                    "midi": 57,
                    "time": 48.399999999999906,
                    "velocity": 0.5039370078740157,
                    "duration": 0.3999999999999986
                },
                {
                    "name": "D4",
                    "midi": 62,
                    "time": 48.399999999999906,
                    "velocity": 0.5039370078740157,
                    "duration": 0.3999999999999986
                },
                {
                    "name": "F#4",
                    "midi": 66,
                    "time": 48.399999999999906,
                    "velocity": 0.5039370078740157,
                    "duration": 0.3999999999999986
                },
                {
                    "name": "D3",
                    "midi": 50,
                    "time": 49.1999999999999,
                    "velocity": 0.5039370078740157,
                    "duration": 0.3999999999999986
                },
                {
                    "name": "G#3",
                    "midi": 56,
                    "time": 49.1999999999999,
                    "velocity": 0.5039370078740157,
                    "duration": 0.3999999999999986
                },
                {
                    "name": "D4",
                    "midi": 62,
                    "time": 49.1999999999999,
                    "velocity": 0.5039370078740157,
                    "duration": 0.3999999999999986
                },
                {
                    "name": "F4",
                    "midi": 65,
                    "time": 49.1999999999999,
                    "velocity": 0.5039370078740157,
                    "duration": 0.3999999999999986
                },
                {
                    "name": "D3",
                    "midi": 50,
                    "time": 49.5999999999999,
                    "velocity": 0.5039370078740157,
                    "duration": 0.3999999999999986
                },
                {
                    "name": "A3",
                    "midi": 57,
                    "time": 49.5999999999999,
                    "velocity": 0.5039370078740157,
                    "duration": 0.3999999999999986
                },
                {
                    "name": "D4",
                    "midi": 62,
                    "time": 49.5999999999999,
                    "velocity": 0.5039370078740157,
                    "duration": 0.3999999999999986
                },
                {
                    "name": "F#4",
                    "midi": 66,
                    "time": 49.5999999999999,
                    "velocity": 0.5039370078740157,
                    "duration": 0.3999999999999986
                },
                {
                    "name": "D3",
                    "midi": 50,
                    "time": 50.7999999999999,
                    "velocity": 0.5039370078740157,
                    "duration": 0.3999999999999986
                },
                {
                    "name": "A3",
                    "midi": 57,
                    "time": 50.7999999999999,
                    "velocity": 0.5039370078740157,
                    "duration": 0.3999999999999986
                },
                {
                    "name": "D4",
                    "midi": 62,
                    "time": 50.7999999999999,
                    "velocity": 0.5039370078740157,
                    "duration": 0.3999999999999986
                },
                {
                    "name": "F#4",
                    "midi": 66,
                    "time": 50.7999999999999,
                    "velocity": 0.5039370078740157,
                    "duration": 0.3999999999999986
                },
                {
                    "name": "D3",
                    "midi": 50,
                    "time": 51.599999999999895,
                    "velocity": 0.5039370078740157,
                    "duration": 0.3999999999999986
                },
                {
                    "name": "G#3",
                    "midi": 56,
                    "time": 51.599999999999895,
                    "velocity": 0.5039370078740157,
                    "duration": 0.3999999999999986
                },
                {
                    "name": "D4",
                    "midi": 62,
                    "time": 51.599999999999895,
                    "velocity": 0.5039370078740157,
                    "duration": 0.3999999999999986
                },
                {
                    "name": "F4",
                    "midi": 65,
                    "time": 51.599999999999895,
                    "velocity": 0.5039370078740157,
                    "duration": 0.3999999999999986
                },
                {
                    "name": "D3",
                    "midi": 50,
                    "time": 51.99999999999989,
                    "velocity": 0.5039370078740157,
                    "duration": 0.3999999999999986
                },
                {
                    "name": "A3",
                    "midi": 57,
                    "time": 51.99999999999989,
                    "velocity": 0.5039370078740157,
                    "duration": 0.3999999999999986
                },
                {
                    "name": "D4",
                    "midi": 62,
                    "time": 51.99999999999989,
                    "velocity": 0.5039370078740157,
                    "duration": 0.3999999999999986
                },
                {
                    "name": "F#4",
                    "midi": 66,
                    "time": 51.99999999999989,
                    "velocity": 0.5039370078740157,
                    "duration": 0.3999999999999986
                },
                {
                    "name": "A3",
                    "midi": 57,
                    "time": 53.19999999999989,
                    "velocity": 0.5039370078740157,
                    "duration": 0.7999999999999972
                },
                {
                    "name": "C4",
                    "midi": 60,
                    "time": 53.19999999999989,
                    "velocity": 0.5039370078740157,
                    "duration": 0.7999999999999972
                },
                {
                    "name": "F#4",
                    "midi": 66,
                    "time": 53.19999999999989,
                    "velocity": 0.5039370078740157,
                    "duration": 0.7999999999999972
                },
                {
                    "name": "D3",
                    "midi": 50,
                    "time": 53.59999999999989,
                    "velocity": 0.5039370078740157,
                    "duration": 0.7999999999999972
                },
                {
                    "name": "A3",
                    "midi": 57,
                    "time": 53.999999999999886,
                    "velocity": 0.5039370078740157,
                    "duration": 0.3999999999999986
                },
                {
                    "name": "C4",
                    "midi": 60,
                    "time": 53.999999999999886,
                    "velocity": 0.5039370078740157,
                    "duration": 0.3999999999999986
                },
                {
                    "name": "F#4",
                    "midi": 66,
                    "time": 53.999999999999886,
                    "velocity": 0.5039370078740157,
                    "duration": 0.3999999999999986
                },
                {
                    "name": "G2",
                    "midi": 43,
                    "time": 54.399999999999885,
                    "velocity": 0.5039370078740157,
                    "duration": 0.7999999999999972
                },
                {
                    "name": "G3",
                    "midi": 55,
                    "time": 54.79999999999988,
                    "velocity": 0.5039370078740157,
                    "duration": 0.7999999999999972
                },
                {
                    "name": "B3",
                    "midi": 59,
                    "time": 54.79999999999988,
                    "velocity": 0.5039370078740157,
                    "duration": 0.7999999999999972
                },
                {
                    "name": "G4",
                    "midi": 67,
                    "time": 54.79999999999988,
                    "velocity": 0.5039370078740157,
                    "duration": 0.7999999999999972
                },
                {
                    "name": "G2",
                    "midi": 43,
                    "time": 55.19999999999988,
                    "velocity": 0.5039370078740157,
                    "duration": 0.3999999999999986
                },
                {
                    "name": "G#3",
                    "midi": 56,
                    "time": 55.59999999999988,
                    "velocity": 0.5039370078740157,
                    "duration": 0.7999999999999972
                },
                {
                    "name": "D4",
                    "midi": 62,
                    "time": 55.59999999999988,
                    "velocity": 0.5039370078740157,
                    "duration": 0.7999999999999972
                },
                {
                    "name": "E4",
                    "midi": 64,
                    "time": 55.59999999999988,
                    "velocity": 0.5039370078740157,
                    "duration": 0.7999999999999972
                },
                {
                    "name": "E2",
                    "midi": 40,
                    "time": 55.99999999999988,
                    "velocity": 0.5039370078740157,
                    "duration": 0.7999999999999972
                },
                {
                    "name": "G#3",
                    "midi": 56,
                    "time": 56.39999999999988,
                    "velocity": 0.5039370078740157,
                    "duration": 0.3999999999999986
                },
                {
                    "name": "D4",
                    "midi": 62,
                    "time": 56.39999999999988,
                    "velocity": 0.5039370078740157,
                    "duration": 0.3999999999999986
                },
                {
                    "name": "E4",
                    "midi": 64,
                    "time": 56.39999999999988,
                    "velocity": 0.5039370078740157,
                    "duration": 0.3999999999999986
                },
                {
                    "name": "A2",
                    "midi": 45,
                    "time": 56.799999999999876,
                    "velocity": 0.5039370078740157,
                    "duration": 0.7999999999999972
                },
                {
                    "name": "A3",
                    "midi": 57,
                    "time": 57.199999999999875,
                    "velocity": 0.5039370078740157,
                    "duration": 0.7999999999999972
                },
                {
                    "name": "C#4",
                    "midi": 61,
                    "time": 57.199999999999875,
                    "velocity": 0.5039370078740157,
                    "duration": 0.7999999999999972
                },
                {
                    "name": "E4",
                    "midi": 64,
                    "time": 57.199999999999875,
                    "velocity": 0.5039370078740157,
                    "duration": 0.7999999999999972
                },
                {
                    "name": "A2",
                    "midi": 45,
                    "time": 57.59999999999987,
                    "velocity": 0.5039370078740157,
                    "duration": 0.3999999999999986
                },
                {
                    "name": "A3",
                    "midi": 57,
                    "time": 57.99999999999987,
                    "velocity": 0.5039370078740157,
                    "duration": 0.3999999999999986
                },
                {
                    "name": "C#4",
                    "midi": 61,
                    "time": 57.99999999999987,
                    "velocity": 0.5039370078740157,
                    "duration": 0.3999999999999986
                },
                {
                    "name": "G4",
                    "midi": 67,
                    "time": 57.99999999999987,
                    "velocity": 0.5039370078740157,
                    "duration": 0.3999999999999986
                },
                {
                    "name": "A3",
                    "midi": 57,
                    "time": 59.19999999999987,
                    "velocity": 0.5039370078740157,
                    "duration": 1.2000000000000028
                },
                {
                    "name": "D4",
                    "midi": 62,
                    "time": 59.19999999999987,
                    "velocity": 0.5039370078740157,
                    "duration": 1.2000000000000028
                },
                {
                    "name": "F#4",
                    "midi": 66,
                    "time": 59.19999999999987,
                    "velocity": 0.5039370078740157,
                    "duration": 1.2000000000000028
                },
                {
                    "name": "D3",
                    "midi": 50,
                    "time": 59.19999999999987,
                    "velocity": 0.5039370078740157,
                    "duration": 1.2000000000000028
                },
                {
                    "name": "G3",
                    "midi": 55,
                    "time": 60.39999999999987,
                    "velocity": 0.5039370078740157,
                    "duration": 1.2000000000000028
                },
                {
                    "name": "B3",
                    "midi": 59,
                    "time": 60.39999999999987,
                    "velocity": 0.5039370078740157,
                    "duration": 1.2000000000000028
                },
                {
                    "name": "E4",
                    "midi": 64,
                    "time": 60.39999999999987,
                    "velocity": 0.5039370078740157,
                    "duration": 1.2000000000000028
                },
                {
                    "name": "G2",
                    "midi": 43,
                    "time": 60.39999999999987,
                    "velocity": 0.5039370078740157,
                    "duration": 1.2000000000000028
                },
                {
                    "name": "A3",
                    "midi": 57,
                    "time": 61.59999999999987,
                    "velocity": 0.5039370078740157,
                    "duration": 1.2000000000000028
                },
                {
                    "name": "D4",
                    "midi": 62,
                    "time": 61.59999999999987,
                    "velocity": 0.5039370078740157,
                    "duration": 1.2000000000000028
                },
                {
                    "name": "F#4",
                    "midi": 66,
                    "time": 61.59999999999987,
                    "velocity": 0.5039370078740157,
                    "duration": 1.2000000000000028
                },
                {
                    "name": "A2",
                    "midi": 45,
                    "time": 61.59999999999987,
                    "velocity": 0.5039370078740157,
                    "duration": 1.2000000000000028
                },
                {
                    "name": "A3",
                    "midi": 57,
                    "time": 62.799999999999876,
                    "velocity": 0.5039370078740157,
                    "duration": 1.2000000000000028
                },
                {
                    "name": "C#4",
                    "midi": 61,
                    "time": 62.799999999999876,
                    "velocity": 0.5039370078740157,
                    "duration": 1.2000000000000028
                },
                {
                    "name": "G4",
                    "midi": 67,
                    "time": 62.799999999999876,
                    "velocity": 0.5039370078740157,
                    "duration": 1.2000000000000028
                },
                {
                    "name": "A2",
                    "midi": 45,
                    "time": 62.799999999999876,
                    "velocity": 0.5039370078740157,
                    "duration": 1.2000000000000028
                },
                {
                    "name": "A3",
                    "midi": 57,
                    "time": 63.99999999999988,
                    "velocity": 0.5039370078740157,
                    "duration": 0.8000000000000043
                },
                {
                    "name": "D4",
                    "midi": 62,
                    "time": 63.99999999999988,
                    "velocity": 0.5039370078740157,
                    "duration": 0.8000000000000043
                },
                {
                    "name": "F#4",
                    "midi": 66,
                    "time": 63.99999999999988,
                    "velocity": 0.5039370078740157,
                    "duration": 0.8000000000000043
                },
                {
                    "name": "D3",
                    "midi": 50,
                    "time": 63.99999999999988,
                    "velocity": 0.5039370078740157,
                    "duration": 0.8000000000000043
                },
                {
                    "name": "A3",
                    "midi": 57,
                    "time": 65.19999999999989,
                    "velocity": 0.5039370078740157,
                    "duration": 0.8000000000000114
                },
                {
                    "name": "C#4",
                    "midi": 61,
                    "time": 65.19999999999989,
                    "velocity": 0.5039370078740157,
                    "duration": 0.8000000000000114
                },
                {
                    "name": "G4",
                    "midi": 67,
                    "time": 65.19999999999989,
                    "velocity": 0.5039370078740157,
                    "duration": 0.8000000000000114
                },
                {
                    "name": "D3",
                    "midi": 50,
                    "time": 65.5999999999999,
                    "velocity": 0.5039370078740157,
                    "duration": 0.8000000000000114
                },
                {
                    "name": "A3",
                    "midi": 57,
                    "time": 65.9999999999999,
                    "velocity": 0.5039370078740157,
                    "duration": 0.4000000000000057
                },
                {
                    "name": "C#4",
                    "midi": 61,
                    "time": 65.9999999999999,
                    "velocity": 0.5039370078740157,
                    "duration": 0.4000000000000057
                },
                {
                    "name": "G4",
                    "midi": 67,
                    "time": 65.9999999999999,
                    "velocity": 0.5039370078740157,
                    "duration": 0.4000000000000057
                },
                {
                    "name": "D3",
                    "midi": 50,
                    "time": 66.3999999999999,
                    "velocity": 0.5039370078740157,
                    "duration": 0.8000000000000114
                },
                {
                    "name": "A3",
                    "midi": 57,
                    "time": 66.79999999999991,
                    "velocity": 0.5039370078740157,
                    "duration": 0.8000000000000114
                },
                {
                    "name": "D4",
                    "midi": 62,
                    "time": 66.79999999999991,
                    "velocity": 0.5039370078740157,
                    "duration": 0.8000000000000114
                },
                {
                    "name": "F#4",
                    "midi": 66,
                    "time": 66.79999999999991,
                    "velocity": 0.5039370078740157,
                    "duration": 0.8000000000000114
                },
                {
                    "name": "D3",
                    "midi": 50,
                    "time": 67.19999999999992,
                    "velocity": 0.5039370078740157,
                    "duration": 0.4000000000000057
                },
                {
                    "name": "A3",
                    "midi": 57,
                    "time": 67.59999999999992,
                    "velocity": 0.5039370078740157,
                    "duration": 0.8000000000000114
                },
                {
                    "name": "C#4",
                    "midi": 61,
                    "time": 67.59999999999992,
                    "velocity": 0.5039370078740157,
                    "duration": 0.8000000000000114
                },
                {
                    "name": "G4",
                    "midi": 67,
                    "time": 67.59999999999992,
                    "velocity": 0.5039370078740157,
                    "duration": 0.8000000000000114
                },
                {
                    "name": "D3",
                    "midi": 50,
                    "time": 67.99999999999993,
                    "velocity": 0.5039370078740157,
                    "duration": 0.8000000000000114
                },
                {
                    "name": "A3",
                    "midi": 57,
                    "time": 68.39999999999993,
                    "velocity": 0.5039370078740157,
                    "duration": 0.4000000000000057
                },
                {
                    "name": "C#4",
                    "midi": 61,
                    "time": 68.39999999999993,
                    "velocity": 0.5039370078740157,
                    "duration": 0.4000000000000057
                },
                {
                    "name": "G4",
                    "midi": 67,
                    "time": 68.39999999999993,
                    "velocity": 0.5039370078740157,
                    "duration": 0.4000000000000057
                },
                {
                    "name": "D3",
                    "midi": 50,
                    "time": 68.79999999999994,
                    "velocity": 0.5039370078740157,
                    "duration": 0.8000000000000114
                },
                {
                    "name": "A3",
                    "midi": 57,
                    "time": 69.19999999999995,
                    "velocity": 0.5039370078740157,
                    "duration": 0.8000000000000114
                },
                {
                    "name": "D4",
                    "midi": 62,
                    "time": 69.19999999999995,
                    "velocity": 0.5039370078740157,
                    "duration": 0.8000000000000114
                },
                {
                    "name": "F#4",
                    "midi": 66,
                    "time": 69.19999999999995,
                    "velocity": 0.5039370078740157,
                    "duration": 0.8000000000000114
                },
                {
                    "name": "D3",
                    "midi": 50,
                    "time": 69.59999999999995,
                    "velocity": 0.5039370078740157,
                    "duration": 0.4000000000000057
                },
                {
                    "name": "A3",
                    "midi": 57,
                    "time": 69.99999999999996,
                    "velocity": 0.5039370078740157,
                    "duration": 0.8000000000000114
                },
                {
                    "name": "C#4",
                    "midi": 61,
                    "time": 69.99999999999996,
                    "velocity": 0.5039370078740157,
                    "duration": 0.8000000000000114
                },
                {
                    "name": "G4",
                    "midi": 67,
                    "time": 69.99999999999996,
                    "velocity": 0.5039370078740157,
                    "duration": 0.8000000000000114
                },
                {
                    "name": "D3",
                    "midi": 50,
                    "time": 70.39999999999996,
                    "velocity": 0.5039370078740157,
                    "duration": 0.8000000000000114
                },
                {
                    "name": "A3",
                    "midi": 57,
                    "time": 70.79999999999997,
                    "velocity": 0.5039370078740157,
                    "duration": 0.4000000000000057
                },
                {
                    "name": "C#4",
                    "midi": 61,
                    "time": 70.79999999999997,
                    "velocity": 0.5039370078740157,
                    "duration": 0.4000000000000057
                },
                {
                    "name": "G4",
                    "midi": 67,
                    "time": 70.79999999999997,
                    "velocity": 0.5039370078740157,
                    "duration": 0.4000000000000057
                },
                {
                    "name": "D3",
                    "midi": 50,
                    "time": 71.19999999999997,
                    "velocity": 0.5039370078740157,
                    "duration": 0.8000000000000114
                },
                {
                    "name": "A3",
                    "midi": 57,
                    "time": 71.59999999999998,
                    "velocity": 0.5039370078740157,
                    "duration": 0.8000000000000114
                },
                {
                    "name": "D4",
                    "midi": 62,
                    "time": 71.59999999999998,
                    "velocity": 0.5039370078740157,
                    "duration": 0.8000000000000114
                },
                {
                    "name": "F#4",
                    "midi": 66,
                    "time": 71.59999999999998,
                    "velocity": 0.5039370078740157,
                    "duration": 0.8000000000000114
                },
                {
                    "name": "D3",
                    "midi": 50,
                    "time": 71.99999999999999,
                    "velocity": 0.5039370078740157,
                    "duration": 0.4000000000000057
                },
                {
                    "name": "E3",
                    "midi": 52,
                    "time": 72.39999999999999,
                    "velocity": 0.5039370078740157,
                    "duration": 0.7999999999999972
                },
                {
                    "name": "A3",
                    "midi": 57,
                    "time": 72.39999999999999,
                    "velocity": 0.5039370078740157,
                    "duration": 0.7999999999999972
                },
                {
                    "name": "C#4",
                    "midi": 61,
                    "time": 72.39999999999999,
                    "velocity": 0.5039370078740157,
                    "duration": 0.7999999999999972
                },
                {
                    "name": "G4",
                    "midi": 67,
                    "time": 72.39999999999999,
                    "velocity": 0.5039370078740157,
                    "duration": 0.7999999999999972
                },
                {
                    "name": "A2",
                    "midi": 45,
                    "time": 72.39999999999999,
                    "velocity": 0.5039370078740157,
                    "duration": 0.7999999999999972
                },
                {
                    "name": "A3",
                    "midi": 57,
                    "time": 73.6,
                    "velocity": 0.5039370078740157,
                    "duration": 0.4000000000000057
                },
                {
                    "name": "D4",
                    "midi": 62,
                    "time": 73.6,
                    "velocity": 0.5039370078740157,
                    "duration": 0.4000000000000057
                },
                {
                    "name": "F#4",
                    "midi": 66,
                    "time": 73.6,
                    "velocity": 0.5039370078740157,
                    "duration": 0.4000000000000057
                },
                {
                    "name": "D3",
                    "midi": 50,
                    "time": 73.6,
                    "velocity": 0.5039370078740157,
                    "duration": 0.4000000000000057
                },
                {
                    "name": "D3",
                    "midi": 50,
                    "time": 74.8,
                    "velocity": 0.5039370078740157,
                    "duration": 1.200000000000017
                },
                {
                    "name": "A3",
                    "midi": 57,
                    "time": 75.2,
                    "velocity": 0.5039370078740157,
                    "duration": 0.4000000000000057
                },
                {
                    "name": "C4",
                    "midi": 60,
                    "time": 75.2,
                    "velocity": 0.5039370078740157,
                    "duration": 0.4000000000000057
                },
                {
                    "name": "F#4",
                    "midi": 66,
                    "time": 75.2,
                    "velocity": 0.5039370078740157,
                    "duration": 0.4000000000000057
                },
                {
                    "name": "A3",
                    "midi": 57,
                    "time": 75.60000000000001,
                    "velocity": 0.5039370078740157,
                    "duration": 0.4000000000000057
                },
                {
                    "name": "C4",
                    "midi": 60,
                    "time": 75.60000000000001,
                    "velocity": 0.5039370078740157,
                    "duration": 0.4000000000000057
                },
                {
                    "name": "F#4",
                    "midi": 66,
                    "time": 75.60000000000001,
                    "velocity": 0.5039370078740157,
                    "duration": 0.4000000000000057
                },
                {
                    "name": "G2",
                    "midi": 43,
                    "time": 76.00000000000001,
                    "velocity": 0.5039370078740157,
                    "duration": 1.200000000000017
                },
                {
                    "name": "G3",
                    "midi": 55,
                    "time": 76.40000000000002,
                    "velocity": 0.5039370078740157,
                    "duration": 0.4000000000000057
                },
                {
                    "name": "B3",
                    "midi": 59,
                    "time": 76.40000000000002,
                    "velocity": 0.5039370078740157,
                    "duration": 0.4000000000000057
                },
                {
                    "name": "G4",
                    "midi": 67,
                    "time": 76.40000000000002,
                    "velocity": 0.5039370078740157,
                    "duration": 0.4000000000000057
                },
                {
                    "name": "G3",
                    "midi": 55,
                    "time": 76.80000000000003,
                    "velocity": 0.5039370078740157,
                    "duration": 0.4000000000000057
                },
                {
                    "name": "B3",
                    "midi": 59,
                    "time": 76.80000000000003,
                    "velocity": 0.5039370078740157,
                    "duration": 0.4000000000000057
                },
                {
                    "name": "G4",
                    "midi": 67,
                    "time": 76.80000000000003,
                    "velocity": 0.5039370078740157,
                    "duration": 0.4000000000000057
                },
                {
                    "name": "D3",
                    "midi": 50,
                    "time": 77.20000000000003,
                    "velocity": 0.5039370078740157,
                    "duration": 1.200000000000017
                },
                {
                    "name": "A3",
                    "midi": 57,
                    "time": 77.60000000000004,
                    "velocity": 0.5039370078740157,
                    "duration": 0.4000000000000057
                },
                {
                    "name": "C4",
                    "midi": 60,
                    "time": 77.60000000000004,
                    "velocity": 0.5039370078740157,
                    "duration": 0.4000000000000057
                },
                {
                    "name": "F#4",
                    "midi": 66,
                    "time": 77.60000000000004,
                    "velocity": 0.5039370078740157,
                    "duration": 0.4000000000000057
                },
                {
                    "name": "A3",
                    "midi": 57,
                    "time": 78.00000000000004,
                    "velocity": 0.5039370078740157,
                    "duration": 0.4000000000000057
                },
                {
                    "name": "C4",
                    "midi": 60,
                    "time": 78.00000000000004,
                    "velocity": 0.5039370078740157,
                    "duration": 0.4000000000000057
                },
                {
                    "name": "F#4",
                    "midi": 66,
                    "time": 78.00000000000004,
                    "velocity": 0.5039370078740157,
                    "duration": 0.4000000000000057
                },
                {
                    "name": "G2",
                    "midi": 43,
                    "time": 78.40000000000005,
                    "velocity": 0.5039370078740157,
                    "duration": 1.200000000000017
                },
                {
                    "name": "G3",
                    "midi": 55,
                    "time": 78.80000000000005,
                    "velocity": 0.5039370078740157,
                    "duration": 0.4000000000000057
                },
                {
                    "name": "B3",
                    "midi": 59,
                    "time": 78.80000000000005,
                    "velocity": 0.5039370078740157,
                    "duration": 0.4000000000000057
                },
                {
                    "name": "G4",
                    "midi": 67,
                    "time": 78.80000000000005,
                    "velocity": 0.5039370078740157,
                    "duration": 0.4000000000000057
                },
                {
                    "name": "G3",
                    "midi": 55,
                    "time": 79.20000000000006,
                    "velocity": 0.5039370078740157,
                    "duration": 0.4000000000000057
                },
                {
                    "name": "B3",
                    "midi": 59,
                    "time": 79.20000000000006,
                    "velocity": 0.5039370078740157,
                    "duration": 0.4000000000000057
                },
                {
                    "name": "G4",
                    "midi": 67,
                    "time": 79.20000000000006,
                    "velocity": 0.5039370078740157,
                    "duration": 0.4000000000000057
                },
                {
                    "name": "E3",
                    "midi": 52,
                    "time": 79.60000000000007,
                    "velocity": 0.5039370078740157,
                    "duration": 1.200000000000017
                },
                {
                    "name": "G#3",
                    "midi": 56,
                    "time": 80.00000000000007,
                    "velocity": 0.5039370078740157,
                    "duration": 0.4000000000000057
                },
                {
                    "name": "D4",
                    "midi": 62,
                    "time": 80.00000000000007,
                    "velocity": 0.5039370078740157,
                    "duration": 0.4000000000000057
                },
                {
                    "name": "E4",
                    "midi": 64,
                    "time": 80.00000000000007,
                    "velocity": 0.5039370078740157,
                    "duration": 0.4000000000000057
                },
                {
                    "name": "G#3",
                    "midi": 56,
                    "time": 80.40000000000008,
                    "velocity": 0.5039370078740157,
                    "duration": 0.4000000000000057
                },
                {
                    "name": "D4",
                    "midi": 62,
                    "time": 80.40000000000008,
                    "velocity": 0.5039370078740157,
                    "duration": 0.4000000000000057
                },
                {
                    "name": "E4",
                    "midi": 64,
                    "time": 80.40000000000008,
                    "velocity": 0.5039370078740157,
                    "duration": 0.4000000000000057
                },
                {
                    "name": "A2",
                    "midi": 45,
                    "time": 80.80000000000008,
                    "velocity": 0.5039370078740157,
                    "duration": 1.200000000000017
                },
                {
                    "name": "A3",
                    "midi": 57,
                    "time": 81.20000000000009,
                    "velocity": 0.5039370078740157,
                    "duration": 0.4000000000000057
                },
                {
                    "name": "C#4",
                    "midi": 61,
                    "time": 81.20000000000009,
                    "velocity": 0.5039370078740157,
                    "duration": 0.4000000000000057
                },
                {
                    "name": "E4",
                    "midi": 64,
                    "time": 81.20000000000009,
                    "velocity": 0.5039370078740157,
                    "duration": 0.4000000000000057
                },
                {
                    "name": "A3",
                    "midi": 57,
                    "time": 81.6000000000001,
                    "velocity": 0.5039370078740157,
                    "duration": 0.4000000000000057
                },
                {
                    "name": "C#4",
                    "midi": 61,
                    "time": 81.6000000000001,
                    "velocity": 0.5039370078740157,
                    "duration": 0.4000000000000057
                },
                {
                    "name": "E4",
                    "midi": 64,
                    "time": 81.6000000000001,
                    "velocity": 0.5039370078740157,
                    "duration": 0.4000000000000057
                },
                {
                    "name": "E3",
                    "midi": 52,
                    "time": 82.0000000000001,
                    "velocity": 0.5039370078740157,
                    "duration": 1.200000000000017
                },
                {
                    "name": "G#3",
                    "midi": 56,
                    "time": 82.4000000000001,
                    "velocity": 0.5039370078740157,
                    "duration": 0.4000000000000057
                },
                {
                    "name": "D4",
                    "midi": 62,
                    "time": 82.4000000000001,
                    "velocity": 0.5039370078740157,
                    "duration": 0.4000000000000057
                },
                {
                    "name": "E4",
                    "midi": 64,
                    "time": 82.4000000000001,
                    "velocity": 0.5039370078740157,
                    "duration": 0.4000000000000057
                },
                {
                    "name": "G#3",
                    "midi": 56,
                    "time": 82.80000000000011,
                    "velocity": 0.5039370078740157,
                    "duration": 0.4000000000000057
                },
                {
                    "name": "D4",
                    "midi": 62,
                    "time": 82.80000000000011,
                    "velocity": 0.5039370078740157,
                    "duration": 0.4000000000000057
                },
                {
                    "name": "E4",
                    "midi": 64,
                    "time": 82.80000000000011,
                    "velocity": 0.5039370078740157,
                    "duration": 0.4000000000000057
                },
                {
                    "name": "A2",
                    "midi": 45,
                    "time": 83.20000000000012,
                    "velocity": 0.5039370078740157,
                    "duration": 1.200000000000017
                },
                {
                    "name": "A3",
                    "midi": 57,
                    "time": 83.60000000000012,
                    "velocity": 0.5039370078740157,
                    "duration": 0.4000000000000057
                },
                {
                    "name": "C#4",
                    "midi": 61,
                    "time": 83.60000000000012,
                    "velocity": 0.5039370078740157,
                    "duration": 0.4000000000000057
                },
                {
                    "name": "E4",
                    "midi": 64,
                    "time": 83.60000000000012,
                    "velocity": 0.5039370078740157,
                    "duration": 0.4000000000000057
                },
                {
                    "name": "A3",
                    "midi": 57,
                    "time": 84.00000000000013,
                    "velocity": 0.5039370078740157,
                    "duration": 0.4000000000000057
                },
                {
                    "name": "C#4",
                    "midi": 61,
                    "time": 84.00000000000013,
                    "velocity": 0.5039370078740157,
                    "duration": 0.4000000000000057
                },
                {
                    "name": "E4",
                    "midi": 64,
                    "time": 84.00000000000013,
                    "velocity": 0.5039370078740157,
                    "duration": 0.4000000000000057
                },
                {
                    "name": "F#3",
                    "midi": 54,
                    "time": 84.40000000000013,
                    "velocity": 0.5039370078740157,
                    "duration": 1.200000000000017
                },
                {
                    "name": "A#3",
                    "midi": 58,
                    "time": 84.80000000000014,
                    "velocity": 0.5039370078740157,
                    "duration": 0.4000000000000057
                },
                {
                    "name": "C#4",
                    "midi": 61,
                    "time": 84.80000000000014,
                    "velocity": 0.5039370078740157,
                    "duration": 0.4000000000000057
                },
                {
                    "name": "E4",
                    "midi": 64,
                    "time": 84.80000000000014,
                    "velocity": 0.5039370078740157,
                    "duration": 0.4000000000000057
                },
                {
                    "name": "A#3",
                    "midi": 58,
                    "time": 85.20000000000014,
                    "velocity": 0.5039370078740157,
                    "duration": 0.4000000000000057
                },
                {
                    "name": "C#4",
                    "midi": 61,
                    "time": 85.20000000000014,
                    "velocity": 0.5039370078740157,
                    "duration": 0.4000000000000057
                },
                {
                    "name": "E4",
                    "midi": 64,
                    "time": 85.20000000000014,
                    "velocity": 0.5039370078740157,
                    "duration": 0.4000000000000057
                },
                {
                    "name": "B2",
                    "midi": 47,
                    "time": 85.60000000000015,
                    "velocity": 0.5039370078740157,
                    "duration": 1.2000000000000028
                },
                {
                    "name": "F#3",
                    "midi": 54,
                    "time": 86.00000000000016,
                    "velocity": 0.5039370078740157,
                    "duration": 0.7999999999999972
                },
                {
                    "name": "B3",
                    "midi": 59,
                    "time": 86.00000000000016,
                    "velocity": 0.5039370078740157,
                    "duration": 0.7999999999999972
                },
                {
                    "name": "D4",
                    "midi": 62,
                    "time": 86.00000000000016,
                    "velocity": 0.5039370078740157,
                    "duration": 0.7999999999999972
                },
                {
                    "name": "B2",
                    "midi": 47,
                    "time": 86.80000000000015,
                    "velocity": 0.5039370078740157,
                    "duration": 1.2000000000000028
                },
                {
                    "name": "D4",
                    "midi": 62,
                    "time": 87.20000000000016,
                    "velocity": 0.5039370078740157,
                    "duration": 0.7999999999999972
                },
                {
                    "name": "G4",
                    "midi": 67,
                    "time": 87.20000000000016,
                    "velocity": 0.5039370078740157,
                    "duration": 0.7999999999999972
                },
                {
                    "name": "A#2",
                    "midi": 46,
                    "time": 88.00000000000016,
                    "velocity": 0.5039370078740157,
                    "duration": 1.2000000000000028
                },
                {
                    "name": "C#4",
                    "midi": 61,
                    "time": 88.40000000000016,
                    "velocity": 0.5039370078740157,
                    "duration": 0.7999999999999972
                },
                {
                    "name": "F#4",
                    "midi": 66,
                    "time": 88.40000000000016,
                    "velocity": 0.5039370078740157,
                    "duration": 0.7999999999999972
                },
                {
                    "name": "A2",
                    "midi": 45,
                    "time": 89.20000000000016,
                    "velocity": 0.5039370078740157,
                    "duration": 1.2000000000000028
                },
                {
                    "name": "C4",
                    "midi": 60,
                    "time": 89.60000000000016,
                    "velocity": 0.5039370078740157,
                    "duration": 0.7999999999999972
                },
                {
                    "name": "F4",
                    "midi": 65,
                    "time": 89.60000000000016,
                    "velocity": 0.5039370078740157,
                    "duration": 0.7999999999999972
                },
                {
                    "name": "G#2",
                    "midi": 44,
                    "time": 90.40000000000016,
                    "velocity": 0.5039370078740157,
                    "duration": 1.2000000000000028
                },
                {
                    "name": "B3",
                    "midi": 59,
                    "time": 90.80000000000017,
                    "velocity": 0.5039370078740157,
                    "duration": 0.7999999999999972
                },
                {
                    "name": "E4",
                    "midi": 64,
                    "time": 90.80000000000017,
                    "velocity": 0.5039370078740157,
                    "duration": 0.7999999999999972
                },
                {
                    "name": "G2",
                    "midi": 43,
                    "time": 91.60000000000016,
                    "velocity": 0.5039370078740157,
                    "duration": 1.2000000000000028
                },
                {
                    "name": "A#3",
                    "midi": 58,
                    "time": 92.00000000000017,
                    "velocity": 0.5039370078740157,
                    "duration": 0.7999999999999972
                },
                {
                    "name": "D#4",
                    "midi": 63,
                    "time": 92.00000000000017,
                    "velocity": 0.5039370078740157,
                    "duration": 0.7999999999999972
                },
                {
                    "name": "F#2",
                    "midi": 42,
                    "time": 92.80000000000017,
                    "velocity": 0.5039370078740157,
                    "duration": 1.2000000000000028
                },
                {
                    "name": "A3",
                    "midi": 57,
                    "time": 93.20000000000017,
                    "velocity": 0.5039370078740157,
                    "duration": 0.7999999999999972
                },
                {
                    "name": "D4",
                    "midi": 62,
                    "time": 93.20000000000017,
                    "velocity": 0.5039370078740157,
                    "duration": 0.7999999999999972
                },
                {
                    "name": "E3",
                    "midi": 52,
                    "time": 94.00000000000017,
                    "velocity": 0.5039370078740157,
                    "duration": 0.4000000000000057
                },
                {
                    "name": "G#3",
                    "midi": 56,
                    "time": 94.00000000000017,
                    "velocity": 0.5039370078740157,
                    "duration": 0.4000000000000057
                },
                {
                    "name": "B3",
                    "midi": 59,
                    "time": 94.00000000000017,
                    "velocity": 0.5039370078740157,
                    "duration": 0.4000000000000057
                },
                {
                    "name": "E2",
                    "midi": 40,
                    "time": 94.00000000000017,
                    "velocity": 0.5039370078740157,
                    "duration": 0.4000000000000057
                },
                {
                    "name": "E3",
                    "midi": 52,
                    "time": 95.20000000000017,
                    "velocity": 0.5039370078740157,
                    "duration": 0.7999999999999972
                },
                {
                    "name": "A3",
                    "midi": 57,
                    "time": 95.20000000000017,
                    "velocity": 0.5039370078740157,
                    "duration": 0.7999999999999972
                },
                {
                    "name": "C#4",
                    "midi": 61,
                    "time": 95.20000000000017,
                    "velocity": 0.5039370078740157,
                    "duration": 0.7999999999999972
                },
                {
                    "name": "A2",
                    "midi": 45,
                    "time": 95.20000000000017,
                    "velocity": 0.5039370078740157,
                    "duration": 0.7999999999999972
                },
                {
                    "name": "E3",
                    "midi": 52,
                    "time": 96.40000000000018,
                    "velocity": 0.5039370078740157,
                    "duration": 0.8000000000000114
                },
                {
                    "name": "G#3",
                    "midi": 56,
                    "time": 96.40000000000018,
                    "velocity": 0.5039370078740157,
                    "duration": 0.8000000000000114
                },
                {
                    "name": "D4",
                    "midi": 62,
                    "time": 96.40000000000018,
                    "velocity": 0.5039370078740157,
                    "duration": 0.8000000000000114
                },
                {
                    "name": "A2",
                    "midi": 45,
                    "time": 96.80000000000018,
                    "velocity": 0.5039370078740157,
                    "duration": 0.8000000000000114
                },
                {
                    "name": "E3",
                    "midi": 52,
                    "time": 97.20000000000019,
                    "velocity": 0.5039370078740157,
                    "duration": 0.4000000000000057
                },
                {
                    "name": "G#3",
                    "midi": 56,
                    "time": 97.20000000000019,
                    "velocity": 0.5039370078740157,
                    "duration": 0.4000000000000057
                },
                {
                    "name": "D4",
                    "midi": 62,
                    "time": 97.20000000000019,
                    "velocity": 0.5039370078740157,
                    "duration": 0.4000000000000057
                },
                {
                    "name": "A2",
                    "midi": 45,
                    "time": 97.6000000000002,
                    "velocity": 0.5039370078740157,
                    "duration": 0.8000000000000114
                },
                {
                    "name": "E3",
                    "midi": 52,
                    "time": 98.0000000000002,
                    "velocity": 0.5039370078740157,
                    "duration": 0.8000000000000114
                },
                {
                    "name": "A3",
                    "midi": 57,
                    "time": 98.0000000000002,
                    "velocity": 0.5039370078740157,
                    "duration": 0.8000000000000114
                },
                {
                    "name": "C#4",
                    "midi": 61,
                    "time": 98.0000000000002,
                    "velocity": 0.5039370078740157,
                    "duration": 0.8000000000000114
                },
                {
                    "name": "A2",
                    "midi": 45,
                    "time": 98.4000000000002,
                    "velocity": 0.5039370078740157,
                    "duration": 0.4000000000000057
                },
                {
                    "name": "E3",
                    "midi": 52,
                    "time": 98.80000000000021,
                    "velocity": 0.5039370078740157,
                    "duration": 0.8000000000000114
                },
                {
                    "name": "G#3",
                    "midi": 56,
                    "time": 98.80000000000021,
                    "velocity": 0.5039370078740157,
                    "duration": 0.8000000000000114
                },
                {
                    "name": "D4",
                    "midi": 62,
                    "time": 98.80000000000021,
                    "velocity": 0.5039370078740157,
                    "duration": 0.8000000000000114
                },
                {
                    "name": "A2",
                    "midi": 45,
                    "time": 99.20000000000022,
                    "velocity": 0.5039370078740157,
                    "duration": 0.8000000000000114
                },
                {
                    "name": "E3",
                    "midi": 52,
                    "time": 99.60000000000022,
                    "velocity": 0.5039370078740157,
                    "duration": 0.4000000000000057
                },
                {
                    "name": "G#3",
                    "midi": 56,
                    "time": 99.60000000000022,
                    "velocity": 0.5039370078740157,
                    "duration": 0.4000000000000057
                },
                {
                    "name": "D4",
                    "midi": 62,
                    "time": 99.60000000000022,
                    "velocity": 0.5039370078740157,
                    "duration": 0.4000000000000057
                },
                {
                    "name": "A2",
                    "midi": 45,
                    "time": 100.00000000000023,
                    "velocity": 0.5039370078740157,
                    "duration": 1.2000000000000028
                },
                {
                    "name": "E3",
                    "midi": 52,
                    "time": 100.40000000000023,
                    "velocity": 0.5039370078740157,
                    "duration": 0.7999999999999972
                },
                {
                    "name": "A3",
                    "midi": 57,
                    "time": 100.40000000000023,
                    "velocity": 0.5039370078740157,
                    "duration": 0.7999999999999972
                },
                {
                    "name": "C#4",
                    "midi": 61,
                    "time": 100.40000000000023,
                    "velocity": 0.5039370078740157,
                    "duration": 0.7999999999999972
                },
                {
                    "name": "D3",
                    "midi": 50,
                    "time": 103.60000000000024,
                    "velocity": 0.5039370078740157,
                    "duration": 0.4000000000000057
                },
                {
                    "name": "A3",
                    "midi": 57,
                    "time": 103.60000000000024,
                    "velocity": 0.5039370078740157,
                    "duration": 0.4000000000000057
                },
                {
                    "name": "D4",
                    "midi": 62,
                    "time": 103.60000000000024,
                    "velocity": 0.5039370078740157,
                    "duration": 0.4000000000000057
                },
                {
                    "name": "F#4",
                    "midi": 66,
                    "time": 103.60000000000024,
                    "velocity": 0.5039370078740157,
                    "duration": 0.4000000000000057
                },
                {
                    "name": "D3",
                    "midi": 50,
                    "time": 104.40000000000025,
                    "velocity": 0.5039370078740157,
                    "duration": 0.4000000000000057
                },
                {
                    "name": "G#3",
                    "midi": 56,
                    "time": 104.40000000000025,
                    "velocity": 0.5039370078740157,
                    "duration": 0.4000000000000057
                },
                {
                    "name": "D4",
                    "midi": 62,
                    "time": 104.40000000000025,
                    "velocity": 0.5039370078740157,
                    "duration": 0.4000000000000057
                },
                {
                    "name": "F4",
                    "midi": 65,
                    "time": 104.40000000000025,
                    "velocity": 0.5039370078740157,
                    "duration": 0.4000000000000057
                },
                {
                    "name": "D3",
                    "midi": 50,
                    "time": 104.80000000000025,
                    "velocity": 0.5039370078740157,
                    "duration": 0.4000000000000057
                },
                {
                    "name": "A3",
                    "midi": 57,
                    "time": 104.80000000000025,
                    "velocity": 0.5039370078740157,
                    "duration": 0.4000000000000057
                },
                {
                    "name": "D4",
                    "midi": 62,
                    "time": 104.80000000000025,
                    "velocity": 0.5039370078740157,
                    "duration": 0.4000000000000057
                },
                {
                    "name": "F#4",
                    "midi": 66,
                    "time": 104.80000000000025,
                    "velocity": 0.5039370078740157,
                    "duration": 0.4000000000000057
                },
                {
                    "name": "D3",
                    "midi": 50,
                    "time": 106.00000000000026,
                    "velocity": 0.5039370078740157,
                    "duration": 0.4000000000000057
                },
                {
                    "name": "A3",
                    "midi": 57,
                    "time": 106.00000000000026,
                    "velocity": 0.5039370078740157,
                    "duration": 0.4000000000000057
                },
                {
                    "name": "D4",
                    "midi": 62,
                    "time": 106.00000000000026,
                    "velocity": 0.5039370078740157,
                    "duration": 0.4000000000000057
                },
                {
                    "name": "F#4",
                    "midi": 66,
                    "time": 106.00000000000026,
                    "velocity": 0.5039370078740157,
                    "duration": 0.4000000000000057
                },
                {
                    "name": "D3",
                    "midi": 50,
                    "time": 106.80000000000027,
                    "velocity": 0.5039370078740157,
                    "duration": 0.4000000000000057
                },
                {
                    "name": "G#3",
                    "midi": 56,
                    "time": 106.80000000000027,
                    "velocity": 0.5039370078740157,
                    "duration": 0.4000000000000057
                },
                {
                    "name": "D4",
                    "midi": 62,
                    "time": 106.80000000000027,
                    "velocity": 0.5039370078740157,
                    "duration": 0.4000000000000057
                },
                {
                    "name": "F4",
                    "midi": 65,
                    "time": 106.80000000000027,
                    "velocity": 0.5039370078740157,
                    "duration": 0.4000000000000057
                },
                {
                    "name": "D3",
                    "midi": 50,
                    "time": 107.20000000000027,
                    "velocity": 0.5039370078740157,
                    "duration": 0.4000000000000057
                },
                {
                    "name": "A3",
                    "midi": 57,
                    "time": 107.20000000000027,
                    "velocity": 0.5039370078740157,
                    "duration": 0.4000000000000057
                },
                {
                    "name": "D4",
                    "midi": 62,
                    "time": 107.20000000000027,
                    "velocity": 0.5039370078740157,
                    "duration": 0.4000000000000057
                },
                {
                    "name": "F#4",
                    "midi": 66,
                    "time": 107.20000000000027,
                    "velocity": 0.5039370078740157,
                    "duration": 0.4000000000000057
                },
                {
                    "name": "A3",
                    "midi": 57,
                    "time": 108.40000000000028,
                    "velocity": 0.5039370078740157,
                    "duration": 0.8000000000000114
                },
                {
                    "name": "C4",
                    "midi": 60,
                    "time": 108.40000000000028,
                    "velocity": 0.5039370078740157,
                    "duration": 0.8000000000000114
                },
                {
                    "name": "F#4",
                    "midi": 66,
                    "time": 108.40000000000028,
                    "velocity": 0.5039370078740157,
                    "duration": 0.8000000000000114
                },
                {
                    "name": "D3",
                    "midi": 50,
                    "time": 108.80000000000028,
                    "velocity": 0.5039370078740157,
                    "duration": 0.8000000000000114
                },
                {
                    "name": "A3",
                    "midi": 57,
                    "time": 109.20000000000029,
                    "velocity": 0.5039370078740157,
                    "duration": 0.4000000000000057
                },
                {
                    "name": "C4",
                    "midi": 60,
                    "time": 109.20000000000029,
                    "velocity": 0.5039370078740157,
                    "duration": 0.4000000000000057
                },
                {
                    "name": "F#4",
                    "midi": 66,
                    "time": 109.20000000000029,
                    "velocity": 0.5039370078740157,
                    "duration": 0.4000000000000057
                },
                {
                    "name": "G2",
                    "midi": 43,
                    "time": 109.60000000000029,
                    "velocity": 0.5039370078740157,
                    "duration": 0.8000000000000114
                },
                {
                    "name": "G3",
                    "midi": 55,
                    "time": 110.0000000000003,
                    "velocity": 0.5039370078740157,
                    "duration": 0.8000000000000114
                },
                {
                    "name": "B3",
                    "midi": 59,
                    "time": 110.0000000000003,
                    "velocity": 0.5039370078740157,
                    "duration": 0.8000000000000114
                },
                {
                    "name": "G4",
                    "midi": 67,
                    "time": 110.0000000000003,
                    "velocity": 0.5039370078740157,
                    "duration": 0.8000000000000114
                },
                {
                    "name": "G2",
                    "midi": 43,
                    "time": 110.4000000000003,
                    "velocity": 0.5039370078740157,
                    "duration": 0.4000000000000057
                },
                {
                    "name": "G#3",
                    "midi": 56,
                    "time": 110.80000000000031,
                    "velocity": 0.5039370078740157,
                    "duration": 0.8000000000000114
                },
                {
                    "name": "D4",
                    "midi": 62,
                    "time": 110.80000000000031,
                    "velocity": 0.5039370078740157,
                    "duration": 0.8000000000000114
                },
                {
                    "name": "E4",
                    "midi": 64,
                    "time": 110.80000000000031,
                    "velocity": 0.5039370078740157,
                    "duration": 0.8000000000000114
                },
                {
                    "name": "E2",
                    "midi": 40,
                    "time": 111.20000000000032,
                    "velocity": 0.5039370078740157,
                    "duration": 0.8000000000000114
                },
                {
                    "name": "G#3",
                    "midi": 56,
                    "time": 111.60000000000032,
                    "velocity": 0.5039370078740157,
                    "duration": 0.4000000000000057
                },
                {
                    "name": "D4",
                    "midi": 62,
                    "time": 111.60000000000032,
                    "velocity": 0.5039370078740157,
                    "duration": 0.4000000000000057
                },
                {
                    "name": "E4",
                    "midi": 64,
                    "time": 111.60000000000032,
                    "velocity": 0.5039370078740157,
                    "duration": 0.4000000000000057
                },
                {
                    "name": "A2",
                    "midi": 45,
                    "time": 112.00000000000033,
                    "velocity": 0.5039370078740157,
                    "duration": 0.8000000000000114
                },
                {
                    "name": "A3",
                    "midi": 57,
                    "time": 112.40000000000033,
                    "velocity": 0.5039370078740157,
                    "duration": 0.8000000000000114
                },
                {
                    "name": "C#4",
                    "midi": 61,
                    "time": 112.40000000000033,
                    "velocity": 0.5039370078740157,
                    "duration": 0.8000000000000114
                },
                {
                    "name": "E4",
                    "midi": 64,
                    "time": 112.40000000000033,
                    "velocity": 0.5039370078740157,
                    "duration": 0.8000000000000114
                },
                {
                    "name": "A2",
                    "midi": 45,
                    "time": 112.80000000000034,
                    "velocity": 0.5039370078740157,
                    "duration": 0.4000000000000057
                },
                {
                    "name": "A3",
                    "midi": 57,
                    "time": 113.20000000000034,
                    "velocity": 0.5039370078740157,
                    "duration": 0.4000000000000057
                },
                {
                    "name": "C#4",
                    "midi": 61,
                    "time": 113.20000000000034,
                    "velocity": 0.5039370078740157,
                    "duration": 0.4000000000000057
                },
                {
                    "name": "G4",
                    "midi": 67,
                    "time": 113.20000000000034,
                    "velocity": 0.5039370078740157,
                    "duration": 0.4000000000000057
                },
                {
                    "name": "A3",
                    "midi": 57,
                    "time": 114.40000000000035,
                    "velocity": 0.5039370078740157,
                    "duration": 1.2000000000000028
                },
                {
                    "name": "D4",
                    "midi": 62,
                    "time": 114.40000000000035,
                    "velocity": 0.5039370078740157,
                    "duration": 1.2000000000000028
                },
                {
                    "name": "F#4",
                    "midi": 66,
                    "time": 114.40000000000035,
                    "velocity": 0.5039370078740157,
                    "duration": 1.2000000000000028
                },
                {
                    "name": "D3",
                    "midi": 50,
                    "time": 114.40000000000035,
                    "velocity": 0.5039370078740157,
                    "duration": 1.2000000000000028
                },
                {
                    "name": "G3",
                    "midi": 55,
                    "time": 115.60000000000035,
                    "velocity": 0.5039370078740157,
                    "duration": 1.2000000000000028
                },
                {
                    "name": "B3",
                    "midi": 59,
                    "time": 115.60000000000035,
                    "velocity": 0.5039370078740157,
                    "duration": 1.2000000000000028
                },
                {
                    "name": "E4",
                    "midi": 64,
                    "time": 115.60000000000035,
                    "velocity": 0.5039370078740157,
                    "duration": 1.2000000000000028
                },
                {
                    "name": "G2",
                    "midi": 43,
                    "time": 115.60000000000035,
                    "velocity": 0.5039370078740157,
                    "duration": 1.2000000000000028
                },
                {
                    "name": "A3",
                    "midi": 57,
                    "time": 116.80000000000035,
                    "velocity": 0.5039370078740157,
                    "duration": 1.2000000000000028
                },
                {
                    "name": "D4",
                    "midi": 62,
                    "time": 116.80000000000035,
                    "velocity": 0.5039370078740157,
                    "duration": 1.2000000000000028
                },
                {
                    "name": "F#4",
                    "midi": 66,
                    "time": 116.80000000000035,
                    "velocity": 0.5039370078740157,
                    "duration": 1.2000000000000028
                },
                {
                    "name": "A2",
                    "midi": 45,
                    "time": 116.80000000000035,
                    "velocity": 0.5039370078740157,
                    "duration": 1.2000000000000028
                },
                {
                    "name": "A3",
                    "midi": 57,
                    "time": 118.00000000000036,
                    "velocity": 0.5039370078740157,
                    "duration": 1.2000000000000028
                },
                {
                    "name": "C#4",
                    "midi": 61,
                    "time": 118.00000000000036,
                    "velocity": 0.5039370078740157,
                    "duration": 1.2000000000000028
                },
                {
                    "name": "G4",
                    "midi": 67,
                    "time": 118.00000000000036,
                    "velocity": 0.5039370078740157,
                    "duration": 1.2000000000000028
                },
                {
                    "name": "A2",
                    "midi": 45,
                    "time": 118.00000000000036,
                    "velocity": 0.5039370078740157,
                    "duration": 1.2000000000000028
                },
                {
                    "name": "A3",
                    "midi": 57,
                    "time": 119.20000000000036,
                    "velocity": 0.5039370078740157,
                    "duration": 0.7999999999999972
                },
                {
                    "name": "D4",
                    "midi": 62,
                    "time": 119.20000000000036,
                    "velocity": 0.5039370078740157,
                    "duration": 0.7999999999999972
                },
                {
                    "name": "F#4",
                    "midi": 66,
                    "time": 119.20000000000036,
                    "velocity": 0.5039370078740157,
                    "duration": 0.7999999999999972
                },
                {
                    "name": "D3",
                    "midi": 50,
                    "time": 119.20000000000036,
                    "velocity": 0.5039370078740157,
                    "duration": 0.7999999999999972
                },
                {
                    "name": "A3",
                    "midi": 57,
                    "time": 120.40000000000036,
                    "velocity": 0.5039370078740157,
                    "duration": 0.8000000000000114
                },
                {
                    "name": "C#4",
                    "midi": 61,
                    "time": 120.40000000000036,
                    "velocity": 0.5039370078740157,
                    "duration": 0.8000000000000114
                },
                {
                    "name": "G4",
                    "midi": 67,
                    "time": 120.40000000000036,
                    "velocity": 0.5039370078740157,
                    "duration": 0.8000000000000114
                },
                {
                    "name": "D3",
                    "midi": 50,
                    "time": 120.80000000000037,
                    "velocity": 0.5039370078740157,
                    "duration": 0.8000000000000114
                },
                {
                    "name": "A3",
                    "midi": 57,
                    "time": 121.20000000000037,
                    "velocity": 0.5039370078740157,
                    "duration": 0.4000000000000057
                },
                {
                    "name": "C#4",
                    "midi": 61,
                    "time": 121.20000000000037,
                    "velocity": 0.5039370078740157,
                    "duration": 0.4000000000000057
                },
                {
                    "name": "G4",
                    "midi": 67,
                    "time": 121.20000000000037,
                    "velocity": 0.5039370078740157,
                    "duration": 0.4000000000000057
                },
                {
                    "name": "D3",
                    "midi": 50,
                    "time": 121.60000000000038,
                    "velocity": 0.5039370078740157,
                    "duration": 0.8000000000000114
                },
                {
                    "name": "A3",
                    "midi": 57,
                    "time": 122.00000000000038,
                    "velocity": 0.5039370078740157,
                    "duration": 0.8000000000000114
                },
                {
                    "name": "D4",
                    "midi": 62,
                    "time": 122.00000000000038,
                    "velocity": 0.5039370078740157,
                    "duration": 0.8000000000000114
                },
                {
                    "name": "F#4",
                    "midi": 66,
                    "time": 122.00000000000038,
                    "velocity": 0.5039370078740157,
                    "duration": 0.8000000000000114
                },
                {
                    "name": "D3",
                    "midi": 50,
                    "time": 122.40000000000039,
                    "velocity": 0.5039370078740157,
                    "duration": 0.4000000000000057
                },
                {
                    "name": "A3",
                    "midi": 57,
                    "time": 122.8000000000004,
                    "velocity": 0.5039370078740157,
                    "duration": 0.8000000000000114
                },
                {
                    "name": "C#4",
                    "midi": 61,
                    "time": 122.8000000000004,
                    "velocity": 0.5039370078740157,
                    "duration": 0.8000000000000114
                },
                {
                    "name": "G4",
                    "midi": 67,
                    "time": 122.8000000000004,
                    "velocity": 0.5039370078740157,
                    "duration": 0.8000000000000114
                },
                {
                    "name": "D3",
                    "midi": 50,
                    "time": 123.2000000000004,
                    "velocity": 0.5039370078740157,
                    "duration": 0.8000000000000114
                },
                {
                    "name": "A3",
                    "midi": 57,
                    "time": 123.6000000000004,
                    "velocity": 0.5039370078740157,
                    "duration": 0.4000000000000057
                },
                {
                    "name": "C#4",
                    "midi": 61,
                    "time": 123.6000000000004,
                    "velocity": 0.5039370078740157,
                    "duration": 0.4000000000000057
                },
                {
                    "name": "G4",
                    "midi": 67,
                    "time": 123.6000000000004,
                    "velocity": 0.5039370078740157,
                    "duration": 0.4000000000000057
                },
                {
                    "name": "D3",
                    "midi": 50,
                    "time": 124.00000000000041,
                    "velocity": 0.5039370078740157,
                    "duration": 0.8000000000000114
                },
                {
                    "name": "A3",
                    "midi": 57,
                    "time": 124.40000000000042,
                    "velocity": 0.5039370078740157,
                    "duration": 0.8000000000000114
                },
                {
                    "name": "D4",
                    "midi": 62,
                    "time": 124.40000000000042,
                    "velocity": 0.5039370078740157,
                    "duration": 0.8000000000000114
                },
                {
                    "name": "F#4",
                    "midi": 66,
                    "time": 124.40000000000042,
                    "velocity": 0.5039370078740157,
                    "duration": 0.8000000000000114
                },
                {
                    "name": "D3",
                    "midi": 50,
                    "time": 124.80000000000042,
                    "velocity": 0.5039370078740157,
                    "duration": 0.4000000000000057
                },
                {
                    "name": "A3",
                    "midi": 57,
                    "time": 125.20000000000043,
                    "velocity": 0.5039370078740157,
                    "duration": 0.8000000000000114
                },
                {
                    "name": "C#4",
                    "midi": 61,
                    "time": 125.20000000000043,
                    "velocity": 0.5039370078740157,
                    "duration": 0.8000000000000114
                },
                {
                    "name": "G4",
                    "midi": 67,
                    "time": 125.20000000000043,
                    "velocity": 0.5039370078740157,
                    "duration": 0.8000000000000114
                },
                {
                    "name": "D3",
                    "midi": 50,
                    "time": 125.60000000000043,
                    "velocity": 0.5039370078740157,
                    "duration": 0.8000000000000114
                },
                {
                    "name": "A3",
                    "midi": 57,
                    "time": 126.00000000000044,
                    "velocity": 0.5039370078740157,
                    "duration": 0.4000000000000057
                },
                {
                    "name": "C#4",
                    "midi": 61,
                    "time": 126.00000000000044,
                    "velocity": 0.5039370078740157,
                    "duration": 0.4000000000000057
                },
                {
                    "name": "G4",
                    "midi": 67,
                    "time": 126.00000000000044,
                    "velocity": 0.5039370078740157,
                    "duration": 0.4000000000000057
                },
                {
                    "name": "D3",
                    "midi": 50,
                    "time": 126.40000000000045,
                    "velocity": 0.5039370078740157,
                    "duration": 0.8000000000000114
                },
                {
                    "name": "A3",
                    "midi": 57,
                    "time": 126.80000000000045,
                    "velocity": 0.5039370078740157,
                    "duration": 0.8000000000000114
                },
                {
                    "name": "D4",
                    "midi": 62,
                    "time": 126.80000000000045,
                    "velocity": 0.5039370078740157,
                    "duration": 0.8000000000000114
                },
                {
                    "name": "F#4",
                    "midi": 66,
                    "time": 126.80000000000045,
                    "velocity": 0.5039370078740157,
                    "duration": 0.8000000000000114
                },
                {
                    "name": "D3",
                    "midi": 50,
                    "time": 127.20000000000046,
                    "velocity": 0.5039370078740157,
                    "duration": 0.4000000000000057
                },
                {
                    "name": "E3",
                    "midi": 52,
                    "time": 127.60000000000046,
                    "velocity": 0.5039370078740157,
                    "duration": 0.7999999999999972
                },
                {
                    "name": "A3",
                    "midi": 57,
                    "time": 127.60000000000046,
                    "velocity": 0.5039370078740157,
                    "duration": 0.7999999999999972
                },
                {
                    "name": "C#4",
                    "midi": 61,
                    "time": 127.60000000000046,
                    "velocity": 0.5039370078740157,
                    "duration": 0.7999999999999972
                },
                {
                    "name": "G4",
                    "midi": 67,
                    "time": 127.60000000000046,
                    "velocity": 0.5039370078740157,
                    "duration": 0.7999999999999972
                },
                {
                    "name": "A2",
                    "midi": 45,
                    "time": 127.60000000000046,
                    "velocity": 0.5039370078740157,
                    "duration": 0.7999999999999972
                },
                {
                    "name": "A3",
                    "midi": 57,
                    "time": 128.80000000000047,
                    "velocity": 0.5039370078740157,
                    "duration": 1.1999999999999886
                },
                {
                    "name": "D4",
                    "midi": 62,
                    "time": 128.80000000000047,
                    "velocity": 0.5039370078740157,
                    "duration": 1.1999999999999886
                },
                {
                    "name": "F#4",
                    "midi": 66,
                    "time": 128.80000000000047,
                    "velocity": 0.5039370078740157,
                    "duration": 1.1999999999999886
                },
                {
                    "name": "D3",
                    "midi": 50,
                    "time": 128.80000000000047,
                    "velocity": 0.5039370078740157,
                    "duration": 1.1999999999999886
                }
            ],
            "controlChanges": {},
            "id": 1,
            "name": "Instrument 1",
            "instrumentNumber": 0,
            "instrument": "acoustic grand piano",
            "instrumentFamily": "piano",
            "channelNumber": 0,
            "isPercussion": false
        },
        {
            "startTime": 0,
            "duration": 130.0000000000007,
            "length": 422,
            "notes": [
                {
                    "name": "F#4",
                    "midi": 66,
                    "time": 0,
                    "velocity": 0.5039370078740157,
                    "duration": 0.2
                },
                {
                    "name": "G4",
                    "midi": 67,
                    "time": 0.2,
                    "velocity": 0.5039370078740157,
                    "duration": 0.2
                },
                {
                    "name": "A4",
                    "midi": 69,
                    "time": 0.4,
                    "velocity": 0.5039370078740157,
                    "duration": 0.4
                },
                {
                    "name": "B4",
                    "midi": 71,
                    "time": 0.8,
                    "velocity": 0.5039370078740157,
                    "duration": 0.19999999999999996
                },
                {
                    "name": "A4",
                    "midi": 69,
                    "time": 1,
                    "velocity": 0.5039370078740157,
                    "duration": 0.19999999999999996
                },
                {
                    "name": "G#4",
                    "midi": 68,
                    "time": 1.2,
                    "velocity": 0.5039370078740157,
                    "duration": 0.40000000000000013
                },
                {
                    "name": "A4",
                    "midi": 69,
                    "time": 1.6,
                    "velocity": 0.5039370078740157,
                    "duration": 0.3999999999999999
                },
                {
                    "name": "F#4",
                    "midi": 66,
                    "time": 2,
                    "velocity": 0.5039370078740157,
                    "duration": 0.3999999999999999
                },
                {
                    "name": "F#4",
                    "midi": 66,
                    "time": 2.4,
                    "velocity": 0.5039370078740157,
                    "duration": 0.20000000000000018
                },
                {
                    "name": "G4",
                    "midi": 67,
                    "time": 2.6,
                    "velocity": 0.5039370078740157,
                    "duration": 0.20000000000000018
                },
                {
                    "name": "A4",
                    "midi": 69,
                    "time": 2.8000000000000003,
                    "velocity": 0.5039370078740157,
                    "duration": 0.3999999999999999
                },
                {
                    "name": "B4",
                    "midi": 71,
                    "time": 3.2,
                    "velocity": 0.5039370078740157,
                    "duration": 0.20000000000000018
                },
                {
                    "name": "A4",
                    "midi": 69,
                    "time": 3.4000000000000004,
                    "velocity": 0.5039370078740157,
                    "duration": 0.20000000000000018
                },
                {
                    "name": "G#4",
                    "midi": 68,
                    "time": 3.6000000000000005,
                    "velocity": 0.5039370078740157,
                    "duration": 0.40000000000000036
                },
                {
                    "name": "A4",
                    "midi": 69,
                    "time": 4.000000000000001,
                    "velocity": 0.5039370078740157,
                    "duration": 0.40000000000000036
                },
                {
                    "name": "F#4",
                    "midi": 66,
                    "time": 4.400000000000001,
                    "velocity": 0.5039370078740157,
                    "duration": 0.40000000000000036
                },
                {
                    "name": "F#4",
                    "midi": 66,
                    "time": 4.800000000000002,
                    "velocity": 0.5039370078740157,
                    "duration": 0.20000000000000018
                },
                {
                    "name": "G4",
                    "midi": 67,
                    "time": 5.000000000000002,
                    "velocity": 0.5039370078740157,
                    "duration": 0.20000000000000018
                },
                {
                    "name": "A4",
                    "midi": 69,
                    "time": 5.200000000000002,
                    "velocity": 0.5039370078740157,
                    "duration": 0.40000000000000036
                },
                {
                    "name": "F#4",
                    "midi": 66,
                    "time": 5.600000000000002,
                    "velocity": 0.5039370078740157,
                    "duration": 0.20000000000000018
                },
                {
                    "name": "G4",
                    "midi": 67,
                    "time": 5.8000000000000025,
                    "velocity": 0.5039370078740157,
                    "duration": 0.20000000000000018
                },
                {
                    "name": "A4",
                    "midi": 69,
                    "time": 6.000000000000003,
                    "velocity": 0.5039370078740157,
                    "duration": 0.40000000000000036
                },
                {
                    "name": "F#4",
                    "midi": 66,
                    "time": 6.400000000000003,
                    "velocity": 0.5039370078740157,
                    "duration": 0.20000000000000018
                },
                {
                    "name": "G#4",
                    "midi": 68,
                    "time": 6.600000000000003,
                    "velocity": 0.5039370078740157,
                    "duration": 0.20000000000000018
                },
                {
                    "name": "A4",
                    "midi": 69,
                    "time": 6.800000000000003,
                    "velocity": 0.5039370078740157,
                    "duration": 0.40000000000000036
                },
                {
                    "name": "F#4",
                    "midi": 66,
                    "time": 7.200000000000004,
                    "velocity": 0.5039370078740157,
                    "duration": 0.20000000000000018
                },
                {
                    "name": "G#4",
                    "midi": 68,
                    "time": 7.400000000000004,
                    "velocity": 0.5039370078740157,
                    "duration": 0.20000000000000018
                },
                {
                    "name": "A4",
                    "midi": 69,
                    "time": 7.600000000000004,
                    "velocity": 0.5039370078740157,
                    "duration": 0.39999999999999947
                },
                {
                    "name": "C#5",
                    "midi": 73,
                    "time": 8.000000000000004,
                    "velocity": 0.5039370078740157,
                    "duration": 0.40000000000000036
                },
                {
                    "name": "F4",
                    "midi": 65,
                    "time": 8.400000000000004,
                    "velocity": 0.5039370078740157,
                    "duration": 0.40000000000000036
                },
                {
                    "name": "F#4",
                    "midi": 66,
                    "time": 8.800000000000004,
                    "velocity": 0.5039370078740157,
                    "duration": 0.40000000000000036
                },
                {
                    "name": "F#4",
                    "midi": 66,
                    "time": 9.600000000000005,
                    "velocity": 0.5039370078740157,
                    "duration": 0.1999999999999993
                },
                {
                    "name": "G4",
                    "midi": 67,
                    "time": 9.800000000000004,
                    "velocity": 0.5039370078740157,
                    "duration": 0.1999999999999993
                },
                {
                    "name": "A4",
                    "midi": 69,
                    "time": 10.000000000000004,
                    "velocity": 0.5039370078740157,
                    "duration": 0.40000000000000036
                },
                {
                    "name": "B4",
                    "midi": 71,
                    "time": 10.400000000000004,
                    "velocity": 0.5039370078740157,
                    "duration": 0.1999999999999993
                },
                {
                    "name": "A4",
                    "midi": 69,
                    "time": 10.600000000000003,
                    "velocity": 0.5039370078740157,
                    "duration": 0.1999999999999993
                },
                {
                    "name": "G#4",
                    "midi": 68,
                    "time": 10.800000000000002,
                    "velocity": 0.5039370078740157,
                    "duration": 0.40000000000000036
                },
                {
                    "name": "A4",
                    "midi": 69,
                    "time": 11.200000000000003,
                    "velocity": 0.5039370078740157,
                    "duration": 0.40000000000000036
                },
                {
                    "name": "F#4",
                    "midi": 66,
                    "time": 11.600000000000003,
                    "velocity": 0.5039370078740157,
                    "duration": 0.40000000000000036
                },
                {
                    "name": "F#4",
                    "midi": 66,
                    "time": 12.000000000000004,
                    "velocity": 0.5039370078740157,
                    "duration": 0.1999999999999993
                },
                {
                    "name": "G4",
                    "midi": 67,
                    "time": 12.200000000000003,
                    "velocity": 0.5039370078740157,
                    "duration": 0.1999999999999993
                },
                {
                    "name": "A4",
                    "midi": 69,
                    "time": 12.400000000000002,
                    "velocity": 0.5039370078740157,
                    "duration": 0.40000000000000036
                },
                {
                    "name": "B4",
                    "midi": 71,
                    "time": 12.800000000000002,
                    "velocity": 0.5039370078740157,
                    "duration": 0.1999999999999993
                },
                {
                    "name": "A4",
                    "midi": 69,
                    "time": 13.000000000000002,
                    "velocity": 0.5039370078740157,
                    "duration": 0.1999999999999993
                },
                {
                    "name": "G#4",
                    "midi": 68,
                    "time": 13.200000000000001,
                    "velocity": 0.5039370078740157,
                    "duration": 0.40000000000000036
                },
                {
                    "name": "A4",
                    "midi": 69,
                    "time": 13.600000000000001,
                    "velocity": 0.5039370078740157,
                    "duration": 0.40000000000000036
                },
                {
                    "name": "F#4",
                    "midi": 66,
                    "time": 14.000000000000002,
                    "velocity": 0.5039370078740157,
                    "duration": 0.40000000000000036
                },
                {
                    "name": "F#4",
                    "midi": 66,
                    "time": 14.400000000000002,
                    "velocity": 0.5039370078740157,
                    "duration": 0.1999999999999993
                },
                {
                    "name": "G4",
                    "midi": 67,
                    "time": 14.600000000000001,
                    "velocity": 0.5039370078740157,
                    "duration": 0.1999999999999993
                },
                {
                    "name": "A4",
                    "midi": 69,
                    "time": 14.8,
                    "velocity": 0.5039370078740157,
                    "duration": 0.40000000000000036
                },
                {
                    "name": "F#4",
                    "midi": 66,
                    "time": 15.200000000000001,
                    "velocity": 0.5039370078740157,
                    "duration": 0.1999999999999993
                },
                {
                    "name": "G4",
                    "midi": 67,
                    "time": 15.4,
                    "velocity": 0.5039370078740157,
                    "duration": 0.1999999999999993
                },
                {
                    "name": "A4",
                    "midi": 69,
                    "time": 15.6,
                    "velocity": 0.5039370078740157,
                    "duration": 0.40000000000000036
                },
                {
                    "name": "F#4",
                    "midi": 66,
                    "time": 16,
                    "velocity": 0.5039370078740157,
                    "duration": 0.1999999999999993
                },
                {
                    "name": "G#4",
                    "midi": 68,
                    "time": 16.2,
                    "velocity": 0.5039370078740157,
                    "duration": 0.1999999999999993
                },
                {
                    "name": "A4",
                    "midi": 69,
                    "time": 16.4,
                    "velocity": 0.5039370078740157,
                    "duration": 0.3999999999999986
                },
                {
                    "name": "F#4",
                    "midi": 66,
                    "time": 16.799999999999997,
                    "velocity": 0.5039370078740157,
                    "duration": 0.1999999999999993
                },
                {
                    "name": "G#4",
                    "midi": 68,
                    "time": 16.999999999999996,
                    "velocity": 0.5039370078740157,
                    "duration": 0.1999999999999993
                },
                {
                    "name": "A4",
                    "midi": 69,
                    "time": 17.199999999999996,
                    "velocity": 0.5039370078740157,
                    "duration": 0.3999999999999986
                },
                {
                    "name": "C#5",
                    "midi": 73,
                    "time": 17.599999999999994,
                    "velocity": 0.5039370078740157,
                    "duration": 0.3999999999999986
                },
                {
                    "name": "F4",
                    "midi": 65,
                    "time": 17.999999999999993,
                    "velocity": 0.5039370078740157,
                    "duration": 0.3999999999999986
                },
                {
                    "name": "F#4",
                    "midi": 66,
                    "time": 18.39999999999999,
                    "velocity": 0.5039370078740157,
                    "duration": 0.3999999999999986
                },
                {
                    "name": "F#4",
                    "midi": 66,
                    "time": 19.19999999999999,
                    "velocity": 0.5039370078740157,
                    "duration": 0.1999999999999993
                },
                {
                    "name": "G4",
                    "midi": 67,
                    "time": 19.399999999999988,
                    "velocity": 0.5039370078740157,
                    "duration": 0.1999999999999993
                },
                {
                    "name": "A4",
                    "midi": 69,
                    "time": 19.599999999999987,
                    "velocity": 0.5039370078740157,
                    "duration": 0.6000000000000014
                },
                {
                    "name": "D4",
                    "midi": 62,
                    "time": 20.19999999999999,
                    "velocity": 0.5039370078740157,
                    "duration": 0.1999999999999993
                },
                {
                    "name": "D4",
                    "midi": 62,
                    "time": 20.399999999999988,
                    "velocity": 0.5039370078740157,
                    "duration": 0.1999999999999993
                },
                {
                    "name": "D4",
                    "midi": 62,
                    "time": 20.599999999999987,
                    "velocity": 0.5039370078740157,
                    "duration": 0.1999999999999993
                },
                {
                    "name": "D4",
                    "midi": 62,
                    "time": 20.799999999999986,
                    "velocity": 0.5039370078740157,
                    "duration": 0.3999999999999986
                },
                {
                    "name": "B4",
                    "midi": 71,
                    "time": 21.199999999999985,
                    "velocity": 0.5039370078740157,
                    "duration": 0.3999999999999986
                },
                {
                    "name": "F#4",
                    "midi": 66,
                    "time": 21.599999999999984,
                    "velocity": 0.5039370078740157,
                    "duration": 0.1999999999999993
                },
                {
                    "name": "G4",
                    "midi": 67,
                    "time": 21.799999999999983,
                    "velocity": 0.5039370078740157,
                    "duration": 0.1999999999999993
                },
                {
                    "name": "A4",
                    "midi": 69,
                    "time": 21.999999999999982,
                    "velocity": 0.5039370078740157,
                    "duration": 0.6000000000000014
                },
                {
                    "name": "D4",
                    "midi": 62,
                    "time": 22.599999999999984,
                    "velocity": 0.5039370078740157,
                    "duration": 0.1999999999999993
                },
                {
                    "name": "D4",
                    "midi": 62,
                    "time": 22.799999999999983,
                    "velocity": 0.5039370078740157,
                    "duration": 0.1999999999999993
                },
                {
                    "name": "D4",
                    "midi": 62,
                    "time": 22.999999999999982,
                    "velocity": 0.5039370078740157,
                    "duration": 0.1999999999999993
                },
                {
                    "name": "D4",
                    "midi": 62,
                    "time": 23.19999999999998,
                    "velocity": 0.5039370078740157,
                    "duration": 0.3999999999999986
                },
                {
                    "name": "B4",
                    "midi": 71,
                    "time": 23.59999999999998,
                    "velocity": 0.5039370078740157,
                    "duration": 0.3999999999999986
                },
                {
                    "name": "G4",
                    "midi": 67,
                    "time": 23.99999999999998,
                    "velocity": 0.5039370078740157,
                    "duration": 0.1999999999999993
                },
                {
                    "name": "A4",
                    "midi": 69,
                    "time": 24.199999999999978,
                    "velocity": 0.5039370078740157,
                    "duration": 0.1999999999999993
                },
                {
                    "name": "B4",
                    "midi": 71,
                    "time": 24.399999999999977,
                    "velocity": 0.5039370078740157,
                    "duration": 0.6000000000000014
                },
                {
                    "name": "E4",
                    "midi": 64,
                    "time": 24.99999999999998,
                    "velocity": 0.5039370078740157,
                    "duration": 0.1999999999999993
                },
                {
                    "name": "E4",
                    "midi": 64,
                    "time": 25.199999999999978,
                    "velocity": 0.5039370078740157,
                    "duration": 0.1999999999999993
                },
                {
                    "name": "E4",
                    "midi": 64,
                    "time": 25.399999999999977,
                    "velocity": 0.5039370078740157,
                    "duration": 0.1999999999999993
                },
                {
                    "name": "E4",
                    "midi": 64,
                    "time": 25.599999999999977,
                    "velocity": 0.5039370078740157,
                    "duration": 0.3999999999999986
                },
                {
                    "name": "C#5",
                    "midi": 73,
                    "time": 25.999999999999975,
                    "velocity": 0.5039370078740157,
                    "duration": 0.3999999999999986
                },
                {
                    "name": "G#4",
                    "midi": 68,
                    "time": 26.399999999999974,
                    "velocity": 0.5039370078740157,
                    "duration": 0.1999999999999993
                },
                {
                    "name": "A4",
                    "midi": 69,
                    "time": 26.599999999999973,
                    "velocity": 0.5039370078740157,
                    "duration": 0.1999999999999993
                },
                {
                    "name": "B4",
                    "midi": 71,
                    "time": 26.799999999999972,
                    "velocity": 0.5039370078740157,
                    "duration": 0.6000000000000014
                },
                {
                    "name": "E4",
                    "midi": 64,
                    "time": 27.399999999999974,
                    "velocity": 0.5039370078740157,
                    "duration": 0.1999999999999993
                },
                {
                    "name": "E4",
                    "midi": 64,
                    "time": 27.599999999999973,
                    "velocity": 0.5039370078740157,
                    "duration": 0.1999999999999993
                },
                {
                    "name": "E4",
                    "midi": 64,
                    "time": 27.799999999999972,
                    "velocity": 0.5039370078740157,
                    "duration": 0.1999999999999993
                },
                {
                    "name": "E4",
                    "midi": 64,
                    "time": 27.99999999999997,
                    "velocity": 0.5039370078740157,
                    "duration": 0.3999999999999986
                },
                {
                    "name": "C#5",
                    "midi": 73,
                    "time": 28.39999999999997,
                    "velocity": 0.5039370078740157,
                    "duration": 0.3999999999999986
                },
                {
                    "name": "A4",
                    "midi": 69,
                    "time": 28.79999999999997,
                    "velocity": 0.5039370078740157,
                    "duration": 0.1999999999999993
                },
                {
                    "name": "B4",
                    "midi": 71,
                    "time": 28.999999999999968,
                    "velocity": 0.5039370078740157,
                    "duration": 0.1999999999999993
                },
                {
                    "name": "C#5",
                    "midi": 73,
                    "time": 29.199999999999967,
                    "velocity": 0.5039370078740157,
                    "duration": 0.6000000000000014
                },
                {
                    "name": "F#4",
                    "midi": 66,
                    "time": 29.79999999999997,
                    "velocity": 0.5039370078740157,
                    "duration": 0.1999999999999993
                },
                {
                    "name": "F#4",
                    "midi": 66,
                    "time": 29.999999999999968,
                    "velocity": 0.5039370078740157,
                    "duration": 0.1999999999999993
                },
                {
                    "name": "F#4",
                    "midi": 66,
                    "time": 30.199999999999967,
                    "velocity": 0.5039370078740157,
                    "duration": 0.1999999999999993
                },
                {
                    "name": "F#4",
                    "midi": 66,
                    "time": 30.399999999999967,
                    "velocity": 0.5039370078740157,
                    "duration": 0.3999999999999986
                },
                {
                    "name": "D5",
                    "midi": 74,
                    "time": 30.799999999999965,
                    "velocity": 0.5039370078740157,
                    "duration": 0.3999999999999986
                },
                {
                    "name": "D5",
                    "midi": 74,
                    "time": 31.199999999999964,
                    "velocity": 0.5039370078740157,
                    "duration": 0.3999999999999986
                },
                {
                    "name": "D5",
                    "midi": 74,
                    "time": 31.599999999999962,
                    "velocity": 0.5039370078740157,
                    "duration": 0.8000000000000007
                },
                {
                    "name": "C#5",
                    "midi": 73,
                    "time": 32.39999999999996,
                    "velocity": 0.5039370078740157,
                    "duration": 0.20000000000000284
                },
                {
                    "name": "B4",
                    "midi": 71,
                    "time": 32.599999999999966,
                    "velocity": 0.5039370078740157,
                    "duration": 0.20000000000000284
                },
                {
                    "name": "C#5",
                    "midi": 73,
                    "time": 32.79999999999997,
                    "velocity": 0.5039370078740157,
                    "duration": 0.3999999999999986
                },
                {
                    "name": "A#4",
                    "midi": 70,
                    "time": 33.19999999999997,
                    "velocity": 0.5039370078740157,
                    "duration": 0.3999999999999986
                },
                {
                    "name": "C#5",
                    "midi": 73,
                    "time": 33.599999999999966,
                    "velocity": 0.5039370078740157,
                    "duration": 0.3999999999999986
                },
                {
                    "name": "C5",
                    "midi": 72,
                    "time": 33.999999999999964,
                    "velocity": 0.5039370078740157,
                    "duration": 0.7999999999999972
                },
                {
                    "name": "B4",
                    "midi": 71,
                    "time": 34.79999999999996,
                    "velocity": 0.5039370078740157,
                    "duration": 0.20000000000000284
                },
                {
                    "name": "A4",
                    "midi": 69,
                    "time": 34.999999999999964,
                    "velocity": 0.5039370078740157,
                    "duration": 0.20000000000000284
                },
                {
                    "name": "B4",
                    "midi": 71,
                    "time": 35.19999999999997,
                    "velocity": 0.5039370078740157,
                    "duration": 0.3999999999999986
                },
                {
                    "name": "G#4",
                    "midi": 68,
                    "time": 35.599999999999966,
                    "velocity": 0.5039370078740157,
                    "duration": 0.3999999999999986
                },
                {
                    "name": "B4",
                    "midi": 71,
                    "time": 35.999999999999964,
                    "velocity": 0.5039370078740157,
                    "duration": 0.3999999999999986
                },
                {
                    "name": "A#4",
                    "midi": 70,
                    "time": 36.39999999999996,
                    "velocity": 0.5039370078740157,
                    "duration": 0.7999999999999972
                },
                {
                    "name": "A4",
                    "midi": 69,
                    "time": 37.19999999999996,
                    "velocity": 0.5039370078740157,
                    "duration": 0.20000000000000284
                },
                {
                    "name": "G4",
                    "midi": 67,
                    "time": 37.39999999999996,
                    "velocity": 0.5039370078740157,
                    "duration": 0.20000000000000284
                },
                {
                    "name": "A4",
                    "midi": 69,
                    "time": 37.599999999999966,
                    "velocity": 0.5039370078740157,
                    "duration": 0.3999999999999986
                },
                {
                    "name": "F#4",
                    "midi": 66,
                    "time": 37.999999999999964,
                    "velocity": 0.5039370078740157,
                    "duration": 0.3999999999999986
                },
                {
                    "name": "D5",
                    "midi": 74,
                    "time": 38.39999999999996,
                    "velocity": 0.5039370078740157,
                    "duration": 0.3999999999999986
                },
                {
                    "name": "D5",
                    "midi": 74,
                    "time": 38.79999999999996,
                    "velocity": 0.5039370078740157,
                    "duration": 0.20000000000000284
                },
                {
                    "name": "C5",
                    "midi": 72,
                    "time": 38.999999999999964,
                    "velocity": 0.5039370078740157,
                    "duration": 0.20000000000000284
                },
                {
                    "name": "C#5",
                    "midi": 73,
                    "time": 39.19999999999997,
                    "velocity": 0.5039370078740157,
                    "duration": 0.20000000000000284
                },
                {
                    "name": "B4",
                    "midi": 71,
                    "time": 39.39999999999997,
                    "velocity": 0.5039370078740157,
                    "duration": 0.20000000000000284
                },
                {
                    "name": "E4",
                    "midi": 64,
                    "time": 39.59999999999997,
                    "velocity": 0.5039370078740157,
                    "duration": 0.20000000000000284
                },
                {
                    "name": "G#4",
                    "midi": 68,
                    "time": 39.799999999999976,
                    "velocity": 0.5039370078740157,
                    "duration": 0.20000000000000284
                },
                {
                    "name": "A4",
                    "midi": 69,
                    "time": 39.99999999999998,
                    "velocity": 0.5039370078740157,
                    "duration": 0.7999999999999972
                },
                {
                    "name": "G#4",
                    "midi": 68,
                    "time": 40.799999999999976,
                    "velocity": 0.5039370078740157,
                    "duration": 0.20000000000000284
                },
                {
                    "name": "A4",
                    "midi": 69,
                    "time": 40.99999999999998,
                    "velocity": 0.5039370078740157,
                    "duration": 0.20000000000000284
                },
                {
                    "name": "B4",
                    "midi": 71,
                    "time": 41.19999999999998,
                    "velocity": 0.5039370078740157,
                    "duration": 0.3999999999999986
                },
                {
                    "name": "D5",
                    "midi": 74,
                    "time": 41.59999999999998,
                    "velocity": 0.5039370078740157,
                    "duration": 0.20000000000000284
                },
                {
                    "name": "C#5",
                    "midi": 73,
                    "time": 41.79999999999998,
                    "velocity": 0.5039370078740157,
                    "duration": 0.20000000000000284
                },
                {
                    "name": "B4",
                    "midi": 71,
                    "time": 41.999999999999986,
                    "velocity": 0.5039370078740157,
                    "duration": 0.3999999999999986
                },
                {
                    "name": "A4",
                    "midi": 69,
                    "time": 42.399999999999984,
                    "velocity": 0.5039370078740157,
                    "duration": 0.3999999999999986
                },
                {
                    "name": "E4",
                    "midi": 64,
                    "time": 42.79999999999998,
                    "velocity": 0.5039370078740157,
                    "duration": 0.3999999999999986
                },
                {
                    "name": "G#4",
                    "midi": 68,
                    "time": 43.19999999999998,
                    "velocity": 0.5039370078740157,
                    "duration": 0.20000000000000284
                },
                {
                    "name": "A4",
                    "midi": 69,
                    "time": 43.399999999999984,
                    "velocity": 0.5039370078740157,
                    "duration": 0.20000000000000284
                },
                {
                    "name": "B4",
                    "midi": 71,
                    "time": 43.59999999999999,
                    "velocity": 0.5039370078740157,
                    "duration": 0.3999999999999986
                },
                {
                    "name": "D5",
                    "midi": 74,
                    "time": 43.999999999999986,
                    "velocity": 0.5039370078740157,
                    "duration": 0.20000000000000284
                },
                {
                    "name": "C#5",
                    "midi": 73,
                    "time": 44.19999999999999,
                    "velocity": 0.5039370078740157,
                    "duration": 0.20000000000000284
                },
                {
                    "name": "B4",
                    "midi": 71,
                    "time": 44.39999999999999,
                    "velocity": 0.5039370078740157,
                    "duration": 0.3999999999999986
                },
                {
                    "name": "A4",
                    "midi": 69,
                    "time": 44.79999999999999,
                    "velocity": 0.5039370078740157,
                    "duration": 0.7999999999999972
                },
                {
                    "name": "A4",
                    "midi": 69,
                    "time": 45.59999999999999,
                    "velocity": 0.5039370078740157,
                    "duration": 0.7999999999999972
                },
                {
                    "name": "G#4",
                    "midi": 68,
                    "time": 46.399999999999984,
                    "velocity": 0.5039370078740157,
                    "duration": 0.7999999999999972
                },
                {
                    "name": "G4",
                    "midi": 67,
                    "time": 47.19999999999998,
                    "velocity": 0.5039370078740157,
                    "duration": 0.7999999999999972
                },
                {
                    "name": "F#4",
                    "midi": 66,
                    "time": 47.99999999999998,
                    "velocity": 0.5039370078740157,
                    "duration": 0.20000000000000284
                },
                {
                    "name": "G4",
                    "midi": 67,
                    "time": 48.19999999999998,
                    "velocity": 0.5039370078740157,
                    "duration": 0.20000000000000284
                },
                {
                    "name": "A4",
                    "midi": 69,
                    "time": 48.399999999999984,
                    "velocity": 0.5039370078740157,
                    "duration": 0.3999999999999986
                },
                {
                    "name": "B4",
                    "midi": 71,
                    "time": 48.79999999999998,
                    "velocity": 0.5039370078740157,
                    "duration": 0.20000000000000284
                },
                {
                    "name": "A4",
                    "midi": 69,
                    "time": 48.999999999999986,
                    "velocity": 0.5039370078740157,
                    "duration": 0.20000000000000284
                },
                {
                    "name": "G#4",
                    "midi": 68,
                    "time": 49.19999999999999,
                    "velocity": 0.5039370078740157,
                    "duration": 0.3999999999999986
                },
                {
                    "name": "A4",
                    "midi": 69,
                    "time": 49.59999999999999,
                    "velocity": 0.5039370078740157,
                    "duration": 0.3999999999999986
                },
                {
                    "name": "F#4",
                    "midi": 66,
                    "time": 49.999999999999986,
                    "velocity": 0.5039370078740157,
                    "duration": 0.3999999999999986
                },
                {
                    "name": "F#4",
                    "midi": 66,
                    "time": 50.399999999999984,
                    "velocity": 0.5039370078740157,
                    "duration": 0.20000000000000284
                },
                {
                    "name": "G4",
                    "midi": 67,
                    "time": 50.59999999999999,
                    "velocity": 0.5039370078740157,
                    "duration": 0.20000000000000284
                },
                {
                    "name": "A4",
                    "midi": 69,
                    "time": 50.79999999999999,
                    "velocity": 0.5039370078740157,
                    "duration": 0.3999999999999986
                },
                {
                    "name": "B4",
                    "midi": 71,
                    "time": 51.19999999999999,
                    "velocity": 0.5039370078740157,
                    "duration": 0.20000000000000284
                },
                {
                    "name": "A4",
                    "midi": 69,
                    "time": 51.39999999999999,
                    "velocity": 0.5039370078740157,
                    "duration": 0.20000000000000284
                },
                {
                    "name": "G#4",
                    "midi": 68,
                    "time": 51.599999999999994,
                    "velocity": 0.5039370078740157,
                    "duration": 0.3999999999999986
                },
                {
                    "name": "A4",
                    "midi": 69,
                    "time": 51.99999999999999,
                    "velocity": 0.5039370078740157,
                    "duration": 0.3999999999999986
                },
                {
                    "name": "F#4",
                    "midi": 66,
                    "time": 52.39999999999999,
                    "velocity": 0.5039370078740157,
                    "duration": 0.3999999999999986
                },
                {
                    "name": "F#4",
                    "midi": 66,
                    "time": 52.79999999999999,
                    "velocity": 0.5039370078740157,
                    "duration": 0.20000000000000284
                },
                {
                    "name": "G4",
                    "midi": 67,
                    "time": 52.99999999999999,
                    "velocity": 0.5039370078740157,
                    "duration": 0.20000000000000284
                },
                {
                    "name": "A4",
                    "midi": 69,
                    "time": 53.199999999999996,
                    "velocity": 0.5039370078740157,
                    "duration": 0.3999999999999986
                },
                {
                    "name": "A4",
                    "midi": 69,
                    "time": 53.599999999999994,
                    "velocity": 0.5039370078740157,
                    "duration": 0.20000000000000284
                },
                {
                    "name": "B4",
                    "midi": 71,
                    "time": 53.8,
                    "velocity": 0.5039370078740157,
                    "duration": 0.20000000000000284
                },
                {
                    "name": "C5",
                    "midi": 72,
                    "time": 54,
                    "velocity": 0.5039370078740157,
                    "duration": 0.3999999999999986
                },
                {
                    "name": "B4",
                    "midi": 71,
                    "time": 54.4,
                    "velocity": 0.5039370078740157,
                    "duration": 0.3999999999999986
                },
                {
                    "name": "G4",
                    "midi": 67,
                    "time": 54.8,
                    "velocity": 0.5039370078740157,
                    "duration": 0.3999999999999986
                },
                {
                    "name": "G4",
                    "midi": 67,
                    "time": 55.199999999999996,
                    "velocity": 0.5039370078740157,
                    "duration": 0.20000000000000284
                },
                {
                    "name": "A4",
                    "midi": 69,
                    "time": 55.4,
                    "velocity": 0.5039370078740157,
                    "duration": 0.20000000000000284
                },
                {
                    "name": "B4",
                    "midi": 71,
                    "time": 55.6,
                    "velocity": 0.5039370078740157,
                    "duration": 0.3999999999999986
                },
                {
                    "name": "B4",
                    "midi": 71,
                    "time": 56,
                    "velocity": 0.5039370078740157,
                    "duration": 0.20000000000000284
                },
                {
                    "name": "C#5",
                    "midi": 73,
                    "time": 56.2,
                    "velocity": 0.5039370078740157,
                    "duration": 0.20000000000000284
                },
                {
                    "name": "D5",
                    "midi": 74,
                    "time": 56.400000000000006,
                    "velocity": 0.5039370078740157,
                    "duration": 0.3999999999999986
                },
                {
                    "name": "C#5",
                    "midi": 73,
                    "time": 56.800000000000004,
                    "velocity": 0.5039370078740157,
                    "duration": 0.3999999999999986
                },
                {
                    "name": "A4",
                    "midi": 69,
                    "time": 57.2,
                    "velocity": 0.5039370078740157,
                    "duration": 0.3999999999999986
                },
                {
                    "name": "A4",
                    "midi": 69,
                    "time": 57.6,
                    "velocity": 0.5039370078740157,
                    "duration": 0.20000000000000284
                },
                {
                    "name": "B4",
                    "midi": 71,
                    "time": 57.800000000000004,
                    "velocity": 0.5039370078740157,
                    "duration": 0.20000000000000284
                },
                {
                    "name": "C#5",
                    "midi": 73,
                    "time": 58.00000000000001,
                    "velocity": 0.5039370078740157,
                    "duration": 0.3999999999999986
                },
                {
                    "name": "C#5",
                    "midi": 73,
                    "time": 58.400000000000006,
                    "velocity": 0.5039370078740157,
                    "duration": 0.20000000000000284
                },
                {
                    "name": "D5",
                    "midi": 74,
                    "time": 58.60000000000001,
                    "velocity": 0.5039370078740157,
                    "duration": 0.20000000000000284
                },
                {
                    "name": "E5",
                    "midi": 76,
                    "time": 58.80000000000001,
                    "velocity": 0.5039370078740157,
                    "duration": 0.3999999999999986
                },
                {
                    "name": "G5",
                    "midi": 79,
                    "time": 59.20000000000001,
                    "velocity": 0.5039370078740157,
                    "duration": 0.20000000000000284
                },
                {
                    "name": "F#5",
                    "midi": 78,
                    "time": 59.40000000000001,
                    "velocity": 0.5039370078740157,
                    "duration": 0.20000000000000284
                },
                {
                    "name": "E5",
                    "midi": 76,
                    "time": 59.600000000000016,
                    "velocity": 0.5039370078740157,
                    "duration": 0.20000000000000284
                },
                {
                    "name": "D5",
                    "midi": 74,
                    "time": 59.80000000000002,
                    "velocity": 0.5039370078740157,
                    "duration": 0.20000000000000284
                },
                {
                    "name": "C#5",
                    "midi": 73,
                    "time": 60.00000000000002,
                    "velocity": 0.5039370078740157,
                    "duration": 0.20000000000000284
                },
                {
                    "name": "D5",
                    "midi": 74,
                    "time": 60.200000000000024,
                    "velocity": 0.5039370078740157,
                    "duration": 0.20000000000000284
                },
                {
                    "name": "A#4",
                    "midi": 70,
                    "time": 60.40000000000003,
                    "velocity": 0.5039370078740157,
                    "duration": 0.20000000000000284
                },
                {
                    "name": "B4",
                    "midi": 71,
                    "time": 60.60000000000003,
                    "velocity": 0.5039370078740157,
                    "duration": 0.20000000000000284
                },
                {
                    "name": "C#5",
                    "midi": 73,
                    "time": 60.80000000000003,
                    "velocity": 0.5039370078740157,
                    "duration": 0.20000000000000284
                },
                {
                    "name": "B4",
                    "midi": 71,
                    "time": 61.000000000000036,
                    "velocity": 0.5039370078740157,
                    "duration": 0.20000000000000284
                },
                {
                    "name": "G4",
                    "midi": 67,
                    "time": 61.20000000000004,
                    "velocity": 0.5039370078740157,
                    "duration": 0.20000000000000284
                },
                {
                    "name": "E4",
                    "midi": 64,
                    "time": 61.40000000000004,
                    "velocity": 0.5039370078740157,
                    "duration": 0.20000000000000284
                },
                {
                    "name": "F#4",
                    "midi": 66,
                    "time": 61.600000000000044,
                    "velocity": 0.5039370078740157,
                    "duration": 0.20000000000000284
                },
                {
                    "name": "G4",
                    "midi": 67,
                    "time": 61.80000000000005,
                    "velocity": 0.5039370078740157,
                    "duration": 0.20000000000000284
                },
                {
                    "name": "A4",
                    "midi": 69,
                    "time": 62.00000000000005,
                    "velocity": 0.5039370078740157,
                    "duration": 0.20000000000000284
                },
                {
                    "name": "B4",
                    "midi": 71,
                    "time": 62.20000000000005,
                    "velocity": 0.5039370078740157,
                    "duration": 0.20000000000000284
                },
                {
                    "name": "C#5",
                    "midi": 73,
                    "time": 62.400000000000055,
                    "velocity": 0.5039370078740157,
                    "duration": 0.20000000000000284
                },
                {
                    "name": "D5",
                    "midi": 74,
                    "time": 62.60000000000006,
                    "velocity": 0.5039370078740157,
                    "duration": 0.20000000000000284
                },
                {
                    "name": "C#5",
                    "midi": 73,
                    "time": 62.80000000000006,
                    "velocity": 0.5039370078740157,
                    "duration": 0.20000000000000284
                },
                {
                    "name": "B4",
                    "midi": 71,
                    "time": 63.000000000000064,
                    "velocity": 0.5039370078740157,
                    "duration": 0.20000000000000284
                },
                {
                    "name": "G#4",
                    "midi": 68,
                    "time": 63.20000000000007,
                    "velocity": 0.5039370078740157,
                    "duration": 0.20000000000000284
                },
                {
                    "name": "A4",
                    "midi": 69,
                    "time": 63.40000000000007,
                    "velocity": 0.5039370078740157,
                    "duration": 0.20000000000000284
                },
                {
                    "name": "G4",
                    "midi": 67,
                    "time": 63.60000000000007,
                    "velocity": 0.5039370078740157,
                    "duration": 0.20000000000000284
                },
                {
                    "name": "E4",
                    "midi": 64,
                    "time": 63.800000000000075,
                    "velocity": 0.5039370078740157,
                    "duration": 0.19999999999999574
                },
                {
                    "name": "D4",
                    "midi": 62,
                    "time": 64.00000000000007,
                    "velocity": 0.5039370078740157,
                    "duration": 0.7999999999999972
                },
                {
                    "name": "E4",
                    "midi": 64,
                    "time": 64.80000000000007,
                    "velocity": 0.5039370078740157,
                    "duration": 0.20000000000000284
                },
                {
                    "name": "F#4",
                    "midi": 66,
                    "time": 65.00000000000007,
                    "velocity": 0.5039370078740157,
                    "duration": 0.20000000000000284
                },
                {
                    "name": "G4",
                    "midi": 67,
                    "time": 65.20000000000007,
                    "velocity": 0.5039370078740157,
                    "duration": 0.4000000000000057
                },
                {
                    "name": "G4",
                    "midi": 67,
                    "time": 65.60000000000008,
                    "velocity": 0.5039370078740157,
                    "duration": 0.20000000000000284
                },
                {
                    "name": "F#4",
                    "midi": 66,
                    "time": 65.80000000000008,
                    "velocity": 0.5039370078740157,
                    "duration": 0.20000000000000284
                },
                {
                    "name": "E4",
                    "midi": 64,
                    "time": 66.00000000000009,
                    "velocity": 0.5039370078740157,
                    "duration": 0.4000000000000057
                },
                {
                    "name": "F#4",
                    "midi": 66,
                    "time": 66.40000000000009,
                    "velocity": 0.5039370078740157,
                    "duration": 0.4000000000000057
                },
                {
                    "name": "A4",
                    "midi": 69,
                    "time": 66.8000000000001,
                    "velocity": 0.5039370078740157,
                    "duration": 0.4000000000000057
                },
                {
                    "name": "E4",
                    "midi": 64,
                    "time": 67.2000000000001,
                    "velocity": 0.5039370078740157,
                    "duration": 0.20000000000000284
                },
                {
                    "name": "F#4",
                    "midi": 66,
                    "time": 67.4000000000001,
                    "velocity": 0.5039370078740157,
                    "duration": 0.20000000000000284
                },
                {
                    "name": "G4",
                    "midi": 67,
                    "time": 67.60000000000011,
                    "velocity": 0.5039370078740157,
                    "duration": 0.4000000000000057
                },
                {
                    "name": "G4",
                    "midi": 67,
                    "time": 68.00000000000011,
                    "velocity": 0.5039370078740157,
                    "duration": 0.20000000000000284
                },
                {
                    "name": "F#4",
                    "midi": 66,
                    "time": 68.20000000000012,
                    "velocity": 0.5039370078740157,
                    "duration": 0.20000000000000284
                },
                {
                    "name": "E4",
                    "midi": 64,
                    "time": 68.40000000000012,
                    "velocity": 0.5039370078740157,
                    "duration": 0.4000000000000057
                },
                {
                    "name": "D4",
                    "midi": 62,
                    "time": 68.80000000000013,
                    "velocity": 0.5039370078740157,
                    "duration": 0.4000000000000057
                },
                {
                    "name": "A3",
                    "midi": 57,
                    "time": 69.20000000000013,
                    "velocity": 0.5039370078740157,
                    "duration": 0.4000000000000057
                },
                {
                    "name": "E4",
                    "midi": 64,
                    "time": 69.60000000000014,
                    "velocity": 0.5039370078740157,
                    "duration": 0.20000000000000284
                },
                {
                    "name": "F#4",
                    "midi": 66,
                    "time": 69.80000000000014,
                    "velocity": 0.5039370078740157,
                    "duration": 0.20000000000000284
                },
                {
                    "name": "G4",
                    "midi": 67,
                    "time": 70.00000000000014,
                    "velocity": 0.5039370078740157,
                    "duration": 0.4000000000000057
                },
                {
                    "name": "G4",
                    "midi": 67,
                    "time": 70.40000000000015,
                    "velocity": 0.5039370078740157,
                    "duration": 0.20000000000000284
                },
                {
                    "name": "F#4",
                    "midi": 66,
                    "time": 70.60000000000015,
                    "velocity": 0.5039370078740157,
                    "duration": 0.20000000000000284
                },
                {
                    "name": "E4",
                    "midi": 64,
                    "time": 70.80000000000015,
                    "velocity": 0.5039370078740157,
                    "duration": 0.4000000000000057
                },
                {
                    "name": "F#4",
                    "midi": 66,
                    "time": 71.20000000000016,
                    "velocity": 0.5039370078740157,
                    "duration": 0.4000000000000057
                },
                {
                    "name": "A4",
                    "midi": 69,
                    "time": 71.60000000000016,
                    "velocity": 0.5039370078740157,
                    "duration": 0.4000000000000057
                },
                {
                    "name": "G#4",
                    "midi": 68,
                    "time": 72.00000000000017,
                    "velocity": 0.5039370078740157,
                    "duration": 0.20000000000000284
                },
                {
                    "name": "A4",
                    "midi": 69,
                    "time": 72.20000000000017,
                    "velocity": 0.5039370078740157,
                    "duration": 0.20000000000000284
                },
                {
                    "name": "A#4",
                    "midi": 70,
                    "time": 72.40000000000018,
                    "velocity": 0.5039370078740157,
                    "duration": 0.20000000000000284
                },
                {
                    "name": "A4",
                    "midi": 69,
                    "time": 72.60000000000018,
                    "velocity": 0.5039370078740157,
                    "duration": 0.20000000000000284
                },
                {
                    "name": "B4",
                    "midi": 71,
                    "time": 72.80000000000018,
                    "velocity": 0.5039370078740157,
                    "duration": 0.20000000000000284
                },
                {
                    "name": "A4",
                    "midi": 69,
                    "time": 73.00000000000018,
                    "velocity": 0.5039370078740157,
                    "duration": 0.20000000000000284
                },
                {
                    "name": "C#5",
                    "midi": 73,
                    "time": 73.20000000000019,
                    "velocity": 0.5039370078740157,
                    "duration": 0.20000000000000284
                },
                {
                    "name": "A4",
                    "midi": 69,
                    "time": 73.40000000000019,
                    "velocity": 0.5039370078740157,
                    "duration": 0.20000000000000284
                },
                {
                    "name": "D5",
                    "midi": 74,
                    "time": 73.6000000000002,
                    "velocity": 0.5039370078740157,
                    "duration": 0.4000000000000057
                },
                {
                    "name": "F#4",
                    "midi": 66,
                    "time": 74.4000000000002,
                    "velocity": 0.5039370078740157,
                    "duration": 0.20000000000000284
                },
                {
                    "name": "G4",
                    "midi": 67,
                    "time": 74.60000000000021,
                    "velocity": 0.5039370078740157,
                    "duration": 0.20000000000000284
                },
                {
                    "name": "A4",
                    "midi": 69,
                    "time": 74.80000000000021,
                    "velocity": 0.5039370078740157,
                    "duration": 0.5999999999999943
                },
                {
                    "name": "D4",
                    "midi": 62,
                    "time": 75.4000000000002,
                    "velocity": 0.5039370078740157,
                    "duration": 0.20000000000000284
                },
                {
                    "name": "D4",
                    "midi": 62,
                    "time": 75.60000000000021,
                    "velocity": 0.5039370078740157,
                    "duration": 0.20000000000000284
                },
                {
                    "name": "D4",
                    "midi": 62,
                    "time": 75.80000000000021,
                    "velocity": 0.5039370078740157,
                    "duration": 0.20000000000000284
                },
                {
                    "name": "D4",
                    "midi": 62,
                    "time": 76.00000000000021,
                    "velocity": 0.5039370078740157,
                    "duration": 0.4000000000000057
                },
                {
                    "name": "B4",
                    "midi": 71,
                    "time": 76.40000000000022,
                    "velocity": 0.5039370078740157,
                    "duration": 0.4000000000000057
                },
                {
                    "name": "F#4",
                    "midi": 66,
                    "time": 76.80000000000022,
                    "velocity": 0.5039370078740157,
                    "duration": 0.20000000000000284
                },
                {
                    "name": "G4",
                    "midi": 67,
                    "time": 77.00000000000023,
                    "velocity": 0.5039370078740157,
                    "duration": 0.20000000000000284
                },
                {
                    "name": "A4",
                    "midi": 69,
                    "time": 77.20000000000023,
                    "velocity": 0.5039370078740157,
                    "duration": 0.5999999999999943
                },
                {
                    "name": "D4",
                    "midi": 62,
                    "time": 77.80000000000022,
                    "velocity": 0.5039370078740157,
                    "duration": 0.20000000000000284
                },
                {
                    "name": "D4",
                    "midi": 62,
                    "time": 78.00000000000023,
                    "velocity": 0.5039370078740157,
                    "duration": 0.20000000000000284
                },
                {
                    "name": "D4",
                    "midi": 62,
                    "time": 78.20000000000023,
                    "velocity": 0.5039370078740157,
                    "duration": 0.20000000000000284
                },
                {
                    "name": "D4",
                    "midi": 62,
                    "time": 78.40000000000023,
                    "velocity": 0.5039370078740157,
                    "duration": 0.4000000000000057
                },
                {
                    "name": "B4",
                    "midi": 71,
                    "time": 78.80000000000024,
                    "velocity": 0.5039370078740157,
                    "duration": 0.4000000000000057
                },
                {
                    "name": "G4",
                    "midi": 67,
                    "time": 79.20000000000024,
                    "velocity": 0.5039370078740157,
                    "duration": 0.20000000000000284
                },
                {
                    "name": "A4",
                    "midi": 69,
                    "time": 79.40000000000025,
                    "velocity": 0.5039370078740157,
                    "duration": 0.20000000000000284
                },
                {
                    "name": "B4",
                    "midi": 71,
                    "time": 79.60000000000025,
                    "velocity": 0.5039370078740157,
                    "duration": 0.5999999999999943
                },
                {
                    "name": "E4",
                    "midi": 64,
                    "time": 80.20000000000024,
                    "velocity": 0.5039370078740157,
                    "duration": 0.20000000000000284
                },
                {
                    "name": "E4",
                    "midi": 64,
                    "time": 80.40000000000025,
                    "velocity": 0.5039370078740157,
                    "duration": 0.20000000000000284
                },
                {
                    "name": "E4",
                    "midi": 64,
                    "time": 80.60000000000025,
                    "velocity": 0.5039370078740157,
                    "duration": 0.20000000000000284
                },
                {
                    "name": "E4",
                    "midi": 64,
                    "time": 80.80000000000025,
                    "velocity": 0.5039370078740157,
                    "duration": 0.4000000000000057
                },
                {
                    "name": "C#5",
                    "midi": 73,
                    "time": 81.20000000000026,
                    "velocity": 0.5039370078740157,
                    "duration": 0.4000000000000057
                },
                {
                    "name": "G#4",
                    "midi": 68,
                    "time": 81.60000000000026,
                    "velocity": 0.5039370078740157,
                    "duration": 0.20000000000000284
                },
                {
                    "name": "A4",
                    "midi": 69,
                    "time": 81.80000000000027,
                    "velocity": 0.5039370078740157,
                    "duration": 0.20000000000000284
                },
                {
                    "name": "B4",
                    "midi": 71,
                    "time": 82.00000000000027,
                    "velocity": 0.5039370078740157,
                    "duration": 0.5999999999999943
                },
                {
                    "name": "E4",
                    "midi": 64,
                    "time": 82.60000000000026,
                    "velocity": 0.5039370078740157,
                    "duration": 0.20000000000000284
                },
                {
                    "name": "E4",
                    "midi": 64,
                    "time": 82.80000000000027,
                    "velocity": 0.5039370078740157,
                    "duration": 0.20000000000000284
                },
                {
                    "name": "E4",
                    "midi": 64,
                    "time": 83.00000000000027,
                    "velocity": 0.5039370078740157,
                    "duration": 0.20000000000000284
                },
                {
                    "name": "E4",
                    "midi": 64,
                    "time": 83.20000000000027,
                    "velocity": 0.5039370078740157,
                    "duration": 0.4000000000000057
                },
                {
                    "name": "C#5",
                    "midi": 73,
                    "time": 83.60000000000028,
                    "velocity": 0.5039370078740157,
                    "duration": 0.4000000000000057
                },
                {
                    "name": "A4",
                    "midi": 69,
                    "time": 84.00000000000028,
                    "velocity": 0.5039370078740157,
                    "duration": 0.20000000000000284
                },
                {
                    "name": "B4",
                    "midi": 71,
                    "time": 84.20000000000029,
                    "velocity": 0.5039370078740157,
                    "duration": 0.20000000000000284
                },
                {
                    "name": "C#5",
                    "midi": 73,
                    "time": 84.40000000000029,
                    "velocity": 0.5039370078740157,
                    "duration": 0.5999999999999943
                },
                {
                    "name": "F#4",
                    "midi": 66,
                    "time": 85.00000000000028,
                    "velocity": 0.5039370078740157,
                    "duration": 0.20000000000000284
                },
                {
                    "name": "F#4",
                    "midi": 66,
                    "time": 85.20000000000029,
                    "velocity": 0.5039370078740157,
                    "duration": 0.20000000000000284
                },
                {
                    "name": "F#4",
                    "midi": 66,
                    "time": 85.40000000000029,
                    "velocity": 0.5039370078740157,
                    "duration": 0.20000000000000284
                },
                {
                    "name": "F#4",
                    "midi": 66,
                    "time": 85.60000000000029,
                    "velocity": 0.5039370078740157,
                    "duration": 0.4000000000000057
                },
                {
                    "name": "D5",
                    "midi": 74,
                    "time": 86.0000000000003,
                    "velocity": 0.5039370078740157,
                    "duration": 0.4000000000000057
                },
                {
                    "name": "D5",
                    "midi": 74,
                    "time": 86.4000000000003,
                    "velocity": 0.5039370078740157,
                    "duration": 0.4000000000000057
                },
                {
                    "name": "D5",
                    "midi": 74,
                    "time": 86.80000000000031,
                    "velocity": 0.5039370078740157,
                    "duration": 0.7999999999999972
                },
                {
                    "name": "C#5",
                    "midi": 73,
                    "time": 87.6000000000003,
                    "velocity": 0.5039370078740157,
                    "duration": 0.20000000000000284
                },
                {
                    "name": "B4",
                    "midi": 71,
                    "time": 87.80000000000031,
                    "velocity": 0.5039370078740157,
                    "duration": 0.20000000000000284
                },
                {
                    "name": "C#5",
                    "midi": 73,
                    "time": 88.00000000000031,
                    "velocity": 0.5039370078740157,
                    "duration": 0.4000000000000057
                },
                {
                    "name": "A#4",
                    "midi": 70,
                    "time": 88.40000000000032,
                    "velocity": 0.5039370078740157,
                    "duration": 0.4000000000000057
                },
                {
                    "name": "C#5",
                    "midi": 73,
                    "time": 88.80000000000032,
                    "velocity": 0.5039370078740157,
                    "duration": 0.4000000000000057
                },
                {
                    "name": "C5",
                    "midi": 72,
                    "time": 89.20000000000033,
                    "velocity": 0.5039370078740157,
                    "duration": 0.7999999999999972
                },
                {
                    "name": "B4",
                    "midi": 71,
                    "time": 90.00000000000033,
                    "velocity": 0.5039370078740157,
                    "duration": 0.20000000000000284
                },
                {
                    "name": "A4",
                    "midi": 69,
                    "time": 90.20000000000033,
                    "velocity": 0.5039370078740157,
                    "duration": 0.20000000000000284
                },
                {
                    "name": "B4",
                    "midi": 71,
                    "time": 90.40000000000033,
                    "velocity": 0.5039370078740157,
                    "duration": 0.4000000000000057
                },
                {
                    "name": "G#4",
                    "midi": 68,
                    "time": 90.80000000000034,
                    "velocity": 0.5039370078740157,
                    "duration": 0.4000000000000057
                },
                {
                    "name": "B4",
                    "midi": 71,
                    "time": 91.20000000000034,
                    "velocity": 0.5039370078740157,
                    "duration": 0.4000000000000057
                },
                {
                    "name": "A#4",
                    "midi": 70,
                    "time": 91.60000000000035,
                    "velocity": 0.5039370078740157,
                    "duration": 0.7999999999999972
                },
                {
                    "name": "A4",
                    "midi": 69,
                    "time": 92.40000000000035,
                    "velocity": 0.5039370078740157,
                    "duration": 0.20000000000000284
                },
                {
                    "name": "G4",
                    "midi": 67,
                    "time": 92.60000000000035,
                    "velocity": 0.5039370078740157,
                    "duration": 0.20000000000000284
                },
                {
                    "name": "A4",
                    "midi": 69,
                    "time": 92.80000000000035,
                    "velocity": 0.5039370078740157,
                    "duration": 0.4000000000000057
                },
                {
                    "name": "F#4",
                    "midi": 66,
                    "time": 93.20000000000036,
                    "velocity": 0.5039370078740157,
                    "duration": 0.4000000000000057
                },
                {
                    "name": "D5",
                    "midi": 74,
                    "time": 93.60000000000036,
                    "velocity": 0.5039370078740157,
                    "duration": 0.4000000000000057
                },
                {
                    "name": "D5",
                    "midi": 74,
                    "time": 94.00000000000037,
                    "velocity": 0.5039370078740157,
                    "duration": 0.20000000000000284
                },
                {
                    "name": "C5",
                    "midi": 72,
                    "time": 94.20000000000037,
                    "velocity": 0.5039370078740157,
                    "duration": 0.20000000000000284
                },
                {
                    "name": "C#5",
                    "midi": 73,
                    "time": 94.40000000000038,
                    "velocity": 0.5039370078740157,
                    "duration": 0.20000000000000284
                },
                {
                    "name": "B4",
                    "midi": 71,
                    "time": 94.60000000000038,
                    "velocity": 0.5039370078740157,
                    "duration": 0.20000000000000284
                },
                {
                    "name": "E4",
                    "midi": 64,
                    "time": 94.80000000000038,
                    "velocity": 0.5039370078740157,
                    "duration": 0.20000000000000284
                },
                {
                    "name": "G#4",
                    "midi": 68,
                    "time": 95.00000000000038,
                    "velocity": 0.5039370078740157,
                    "duration": 0.20000000000000284
                },
                {
                    "name": "A4",
                    "midi": 69,
                    "time": 95.20000000000039,
                    "velocity": 0.5039370078740157,
                    "duration": 0.7999999999999972
                },
                {
                    "name": "G#4",
                    "midi": 68,
                    "time": 96.00000000000038,
                    "velocity": 0.5039370078740157,
                    "duration": 0.20000000000000284
                },
                {
                    "name": "A4",
                    "midi": 69,
                    "time": 96.20000000000039,
                    "velocity": 0.5039370078740157,
                    "duration": 0.20000000000000284
                },
                {
                    "name": "B4",
                    "midi": 71,
                    "time": 96.40000000000039,
                    "velocity": 0.5039370078740157,
                    "duration": 0.4000000000000057
                },
                {
                    "name": "D5",
                    "midi": 74,
                    "time": 96.8000000000004,
                    "velocity": 0.5039370078740157,
                    "duration": 0.20000000000000284
                },
                {
                    "name": "C#5",
                    "midi": 73,
                    "time": 97.0000000000004,
                    "velocity": 0.5039370078740157,
                    "duration": 0.20000000000000284
                },
                {
                    "name": "B4",
                    "midi": 71,
                    "time": 97.2000000000004,
                    "velocity": 0.5039370078740157,
                    "duration": 0.4000000000000057
                },
                {
                    "name": "A4",
                    "midi": 69,
                    "time": 97.6000000000004,
                    "velocity": 0.5039370078740157,
                    "duration": 0.4000000000000057
                },
                {
                    "name": "E4",
                    "midi": 64,
                    "time": 98.00000000000041,
                    "velocity": 0.5039370078740157,
                    "duration": 0.4000000000000057
                },
                {
                    "name": "G#4",
                    "midi": 68,
                    "time": 98.40000000000042,
                    "velocity": 0.5039370078740157,
                    "duration": 0.20000000000000284
                },
                {
                    "name": "A4",
                    "midi": 69,
                    "time": 98.60000000000042,
                    "velocity": 0.5039370078740157,
                    "duration": 0.20000000000000284
                },
                {
                    "name": "B4",
                    "midi": 71,
                    "time": 98.80000000000042,
                    "velocity": 0.5039370078740157,
                    "duration": 0.4000000000000057
                },
                {
                    "name": "D5",
                    "midi": 74,
                    "time": 99.20000000000043,
                    "velocity": 0.5039370078740157,
                    "duration": 0.20000000000000284
                },
                {
                    "name": "C#5",
                    "midi": 73,
                    "time": 99.40000000000043,
                    "velocity": 0.5039370078740157,
                    "duration": 0.20000000000000284
                },
                {
                    "name": "B4",
                    "midi": 71,
                    "time": 99.60000000000043,
                    "velocity": 0.5039370078740157,
                    "duration": 0.4000000000000057
                },
                {
                    "name": "A4",
                    "midi": 69,
                    "time": 100.00000000000044,
                    "velocity": 0.5039370078740157,
                    "duration": 0.7999999999999972
                },
                {
                    "name": "A4",
                    "midi": 69,
                    "time": 100.80000000000044,
                    "velocity": 0.5039370078740157,
                    "duration": 0.7999999999999972
                },
                {
                    "name": "G#4",
                    "midi": 68,
                    "time": 101.60000000000043,
                    "velocity": 0.5039370078740157,
                    "duration": 0.7999999999999972
                },
                {
                    "name": "G4",
                    "midi": 67,
                    "time": 102.40000000000043,
                    "velocity": 0.5039370078740157,
                    "duration": 0.7999999999999972
                },
                {
                    "name": "F#4",
                    "midi": 66,
                    "time": 103.20000000000043,
                    "velocity": 0.5039370078740157,
                    "duration": 0.20000000000000284
                },
                {
                    "name": "G4",
                    "midi": 67,
                    "time": 103.40000000000043,
                    "velocity": 0.5039370078740157,
                    "duration": 0.20000000000000284
                },
                {
                    "name": "A4",
                    "midi": 69,
                    "time": 103.60000000000043,
                    "velocity": 0.5039370078740157,
                    "duration": 0.4000000000000057
                },
                {
                    "name": "B4",
                    "midi": 71,
                    "time": 104.00000000000044,
                    "velocity": 0.5039370078740157,
                    "duration": 0.20000000000000284
                },
                {
                    "name": "A4",
                    "midi": 69,
                    "time": 104.20000000000044,
                    "velocity": 0.5039370078740157,
                    "duration": 0.20000000000000284
                },
                {
                    "name": "G#4",
                    "midi": 68,
                    "time": 104.40000000000045,
                    "velocity": 0.5039370078740157,
                    "duration": 0.4000000000000057
                },
                {
                    "name": "A4",
                    "midi": 69,
                    "time": 104.80000000000045,
                    "velocity": 0.5039370078740157,
                    "duration": 0.4000000000000057
                },
                {
                    "name": "F#4",
                    "midi": 66,
                    "time": 105.20000000000046,
                    "velocity": 0.5039370078740157,
                    "duration": 0.4000000000000057
                },
                {
                    "name": "F#4",
                    "midi": 66,
                    "time": 105.60000000000046,
                    "velocity": 0.5039370078740157,
                    "duration": 0.20000000000000284
                },
                {
                    "name": "G4",
                    "midi": 67,
                    "time": 105.80000000000047,
                    "velocity": 0.5039370078740157,
                    "duration": 0.20000000000000284
                },
                {
                    "name": "A4",
                    "midi": 69,
                    "time": 106.00000000000047,
                    "velocity": 0.5039370078740157,
                    "duration": 0.4000000000000057
                },
                {
                    "name": "B4",
                    "midi": 71,
                    "time": 106.40000000000047,
                    "velocity": 0.5039370078740157,
                    "duration": 0.20000000000000284
                },
                {
                    "name": "A4",
                    "midi": 69,
                    "time": 106.60000000000048,
                    "velocity": 0.5039370078740157,
                    "duration": 0.20000000000000284
                },
                {
                    "name": "G#4",
                    "midi": 68,
                    "time": 106.80000000000048,
                    "velocity": 0.5039370078740157,
                    "duration": 0.4000000000000057
                },
                {
                    "name": "A4",
                    "midi": 69,
                    "time": 107.20000000000049,
                    "velocity": 0.5039370078740157,
                    "duration": 0.4000000000000057
                },
                {
                    "name": "F#4",
                    "midi": 66,
                    "time": 107.60000000000049,
                    "velocity": 0.5039370078740157,
                    "duration": 0.4000000000000057
                },
                {
                    "name": "F#4",
                    "midi": 66,
                    "time": 108.0000000000005,
                    "velocity": 0.5039370078740157,
                    "duration": 0.20000000000000284
                },
                {
                    "name": "G4",
                    "midi": 67,
                    "time": 108.2000000000005,
                    "velocity": 0.5039370078740157,
                    "duration": 0.20000000000000284
                },
                {
                    "name": "A4",
                    "midi": 69,
                    "time": 108.4000000000005,
                    "velocity": 0.5039370078740157,
                    "duration": 0.4000000000000057
                },
                {
                    "name": "A4",
                    "midi": 69,
                    "time": 108.80000000000051,
                    "velocity": 0.5039370078740157,
                    "duration": 0.20000000000000284
                },
                {
                    "name": "B4",
                    "midi": 71,
                    "time": 109.00000000000051,
                    "velocity": 0.5039370078740157,
                    "duration": 0.20000000000000284
                },
                {
                    "name": "C5",
                    "midi": 72,
                    "time": 109.20000000000051,
                    "velocity": 0.5039370078740157,
                    "duration": 0.4000000000000057
                },
                {
                    "name": "B4",
                    "midi": 71,
                    "time": 109.60000000000052,
                    "velocity": 0.5039370078740157,
                    "duration": 0.4000000000000057
                },
                {
                    "name": "G4",
                    "midi": 67,
                    "time": 110.00000000000053,
                    "velocity": 0.5039370078740157,
                    "duration": 0.4000000000000057
                },
                {
                    "name": "G4",
                    "midi": 67,
                    "time": 110.40000000000053,
                    "velocity": 0.5039370078740157,
                    "duration": 0.20000000000000284
                },
                {
                    "name": "A4",
                    "midi": 69,
                    "time": 110.60000000000053,
                    "velocity": 0.5039370078740157,
                    "duration": 0.20000000000000284
                },
                {
                    "name": "B4",
                    "midi": 71,
                    "time": 110.80000000000054,
                    "velocity": 0.5039370078740157,
                    "duration": 0.4000000000000057
                },
                {
                    "name": "B4",
                    "midi": 71,
                    "time": 111.20000000000054,
                    "velocity": 0.5039370078740157,
                    "duration": 0.20000000000000284
                },
                {
                    "name": "C#5",
                    "midi": 73,
                    "time": 111.40000000000055,
                    "velocity": 0.5039370078740157,
                    "duration": 0.20000000000000284
                },
                {
                    "name": "D5",
                    "midi": 74,
                    "time": 111.60000000000055,
                    "velocity": 0.5039370078740157,
                    "duration": 0.4000000000000057
                },
                {
                    "name": "C#5",
                    "midi": 73,
                    "time": 112.00000000000055,
                    "velocity": 0.5039370078740157,
                    "duration": 0.4000000000000057
                },
                {
                    "name": "A4",
                    "midi": 69,
                    "time": 112.40000000000056,
                    "velocity": 0.5039370078740157,
                    "duration": 0.4000000000000057
                },
                {
                    "name": "A4",
                    "midi": 69,
                    "time": 112.80000000000057,
                    "velocity": 0.5039370078740157,
                    "duration": 0.20000000000000284
                },
                {
                    "name": "B4",
                    "midi": 71,
                    "time": 113.00000000000057,
                    "velocity": 0.5039370078740157,
                    "duration": 0.20000000000000284
                },
                {
                    "name": "C#5",
                    "midi": 73,
                    "time": 113.20000000000057,
                    "velocity": 0.5039370078740157,
                    "duration": 0.4000000000000057
                },
                {
                    "name": "C#5",
                    "midi": 73,
                    "time": 113.60000000000058,
                    "velocity": 0.5039370078740157,
                    "duration": 0.20000000000000284
                },
                {
                    "name": "D5",
                    "midi": 74,
                    "time": 113.80000000000058,
                    "velocity": 0.5039370078740157,
                    "duration": 0.20000000000000284
                },
                {
                    "name": "E5",
                    "midi": 76,
                    "time": 114.00000000000058,
                    "velocity": 0.5039370078740157,
                    "duration": 0.4000000000000057
                },
                {
                    "name": "G5",
                    "midi": 79,
                    "time": 114.40000000000059,
                    "velocity": 0.5039370078740157,
                    "duration": 0.20000000000000284
                },
                {
                    "name": "F#5",
                    "midi": 78,
                    "time": 114.60000000000059,
                    "velocity": 0.5039370078740157,
                    "duration": 0.20000000000000284
                },
                {
                    "name": "E5",
                    "midi": 76,
                    "time": 114.8000000000006,
                    "velocity": 0.5039370078740157,
                    "duration": 0.20000000000000284
                },
                {
                    "name": "D5",
                    "midi": 74,
                    "time": 115.0000000000006,
                    "velocity": 0.5039370078740157,
                    "duration": 0.20000000000000284
                },
                {
                    "name": "C#5",
                    "midi": 73,
                    "time": 115.2000000000006,
                    "velocity": 0.5039370078740157,
                    "duration": 0.20000000000000284
                },
                {
                    "name": "D5",
                    "midi": 74,
                    "time": 115.4000000000006,
                    "velocity": 0.5039370078740157,
                    "duration": 0.20000000000000284
                },
                {
                    "name": "A#4",
                    "midi": 70,
                    "time": 115.6000000000006,
                    "velocity": 0.5039370078740157,
                    "duration": 0.20000000000000284
                },
                {
                    "name": "B4",
                    "midi": 71,
                    "time": 115.80000000000061,
                    "velocity": 0.5039370078740157,
                    "duration": 0.20000000000000284
                },
                {
                    "name": "C#5",
                    "midi": 73,
                    "time": 116.00000000000061,
                    "velocity": 0.5039370078740157,
                    "duration": 0.20000000000000284
                },
                {
                    "name": "B4",
                    "midi": 71,
                    "time": 116.20000000000061,
                    "velocity": 0.5039370078740157,
                    "duration": 0.20000000000000284
                },
                {
                    "name": "G4",
                    "midi": 67,
                    "time": 116.40000000000062,
                    "velocity": 0.5039370078740157,
                    "duration": 0.20000000000000284
                },
                {
                    "name": "E4",
                    "midi": 64,
                    "time": 116.60000000000062,
                    "velocity": 0.5039370078740157,
                    "duration": 0.20000000000000284
                },
                {
                    "name": "F#4",
                    "midi": 66,
                    "time": 116.80000000000062,
                    "velocity": 0.5039370078740157,
                    "duration": 0.20000000000000284
                },
                {
                    "name": "G4",
                    "midi": 67,
                    "time": 117.00000000000063,
                    "velocity": 0.5039370078740157,
                    "duration": 0.20000000000000284
                },
                {
                    "name": "A4",
                    "midi": 69,
                    "time": 117.20000000000063,
                    "velocity": 0.5039370078740157,
                    "duration": 0.20000000000000284
                },
                {
                    "name": "B4",
                    "midi": 71,
                    "time": 117.40000000000063,
                    "velocity": 0.5039370078740157,
                    "duration": 0.20000000000000284
                },
                {
                    "name": "C#5",
                    "midi": 73,
                    "time": 117.60000000000063,
                    "velocity": 0.5039370078740157,
                    "duration": 0.20000000000000284
                },
                {
                    "name": "D5",
                    "midi": 74,
                    "time": 117.80000000000064,
                    "velocity": 0.5039370078740157,
                    "duration": 0.20000000000000284
                },
                {
                    "name": "C#5",
                    "midi": 73,
                    "time": 118.00000000000064,
                    "velocity": 0.5039370078740157,
                    "duration": 0.20000000000000284
                },
                {
                    "name": "B4",
                    "midi": 71,
                    "time": 118.20000000000064,
                    "velocity": 0.5039370078740157,
                    "duration": 0.20000000000000284
                },
                {
                    "name": "G#4",
                    "midi": 68,
                    "time": 118.40000000000065,
                    "velocity": 0.5039370078740157,
                    "duration": 0.20000000000000284
                },
                {
                    "name": "A4",
                    "midi": 69,
                    "time": 118.60000000000065,
                    "velocity": 0.5039370078740157,
                    "duration": 0.20000000000000284
                },
                {
                    "name": "G4",
                    "midi": 67,
                    "time": 118.80000000000065,
                    "velocity": 0.5039370078740157,
                    "duration": 0.20000000000000284
                },
                {
                    "name": "E4",
                    "midi": 64,
                    "time": 119.00000000000065,
                    "velocity": 0.5039370078740157,
                    "duration": 0.20000000000000284
                },
                {
                    "name": "D4",
                    "midi": 62,
                    "time": 119.20000000000066,
                    "velocity": 0.5039370078740157,
                    "duration": 0.7999999999999972
                },
                {
                    "name": "E4",
                    "midi": 64,
                    "time": 120.00000000000065,
                    "velocity": 0.5039370078740157,
                    "duration": 0.20000000000000284
                },
                {
                    "name": "F#4",
                    "midi": 66,
                    "time": 120.20000000000066,
                    "velocity": 0.5039370078740157,
                    "duration": 0.20000000000000284
                },
                {
                    "name": "G4",
                    "midi": 67,
                    "time": 120.40000000000066,
                    "velocity": 0.5039370078740157,
                    "duration": 0.4000000000000057
                },
                {
                    "name": "G4",
                    "midi": 67,
                    "time": 120.80000000000067,
                    "velocity": 0.5039370078740157,
                    "duration": 0.20000000000000284
                },
                {
                    "name": "F#4",
                    "midi": 66,
                    "time": 121.00000000000067,
                    "velocity": 0.5039370078740157,
                    "duration": 0.20000000000000284
                },
                {
                    "name": "E4",
                    "midi": 64,
                    "time": 121.20000000000067,
                    "velocity": 0.5039370078740157,
                    "duration": 0.4000000000000057
                },
                {
                    "name": "F#4",
                    "midi": 66,
                    "time": 121.60000000000068,
                    "velocity": 0.5039370078740157,
                    "duration": 0.4000000000000057
                },
                {
                    "name": "A4",
                    "midi": 69,
                    "time": 122.00000000000068,
                    "velocity": 0.5039370078740157,
                    "duration": 0.4000000000000057
                },
                {
                    "name": "E4",
                    "midi": 64,
                    "time": 122.40000000000069,
                    "velocity": 0.5039370078740157,
                    "duration": 0.20000000000000284
                },
                {
                    "name": "F#4",
                    "midi": 66,
                    "time": 122.60000000000069,
                    "velocity": 0.5039370078740157,
                    "duration": 0.20000000000000284
                },
                {
                    "name": "G4",
                    "midi": 67,
                    "time": 122.8000000000007,
                    "velocity": 0.5039370078740157,
                    "duration": 0.4000000000000057
                },
                {
                    "name": "G4",
                    "midi": 67,
                    "time": 123.2000000000007,
                    "velocity": 0.5039370078740157,
                    "duration": 0.20000000000000284
                },
                {
                    "name": "F#4",
                    "midi": 66,
                    "time": 123.4000000000007,
                    "velocity": 0.5039370078740157,
                    "duration": 0.20000000000000284
                },
                {
                    "name": "E4",
                    "midi": 64,
                    "time": 123.6000000000007,
                    "velocity": 0.5039370078740157,
                    "duration": 0.4000000000000057
                },
                {
                    "name": "D4",
                    "midi": 62,
                    "time": 124.00000000000071,
                    "velocity": 0.5039370078740157,
                    "duration": 0.4000000000000057
                },
                {
                    "name": "A3",
                    "midi": 57,
                    "time": 124.40000000000072,
                    "velocity": 0.5039370078740157,
                    "duration": 0.4000000000000057
                },
                {
                    "name": "E4",
                    "midi": 64,
                    "time": 124.80000000000072,
                    "velocity": 0.5039370078740157,
                    "duration": 0.20000000000000284
                },
                {
                    "name": "F#4",
                    "midi": 66,
                    "time": 125.00000000000072,
                    "velocity": 0.5039370078740157,
                    "duration": 0.20000000000000284
                },
                {
                    "name": "G4",
                    "midi": 67,
                    "time": 125.20000000000073,
                    "velocity": 0.5039370078740157,
                    "duration": 0.4000000000000057
                },
                {
                    "name": "G4",
                    "midi": 67,
                    "time": 125.60000000000073,
                    "velocity": 0.5039370078740157,
                    "duration": 0.20000000000000284
                },
                {
                    "name": "F#4",
                    "midi": 66,
                    "time": 125.80000000000074,
                    "velocity": 0.5039370078740157,
                    "duration": 0.20000000000000284
                },
                {
                    "name": "E4",
                    "midi": 64,
                    "time": 126.00000000000074,
                    "velocity": 0.5039370078740157,
                    "duration": 0.4000000000000057
                },
                {
                    "name": "F#4",
                    "midi": 66,
                    "time": 126.40000000000074,
                    "velocity": 0.5039370078740157,
                    "duration": 0.4000000000000057
                },
                {
                    "name": "A4",
                    "midi": 69,
                    "time": 126.80000000000075,
                    "velocity": 0.5039370078740157,
                    "duration": 0.4000000000000057
                },
                {
                    "name": "G#4",
                    "midi": 68,
                    "time": 127.20000000000076,
                    "velocity": 0.5039370078740157,
                    "duration": 0.20000000000000284
                },
                {
                    "name": "A4",
                    "midi": 69,
                    "time": 127.40000000000076,
                    "velocity": 0.5039370078740157,
                    "duration": 0.20000000000000284
                },
                {
                    "name": "A#4",
                    "midi": 70,
                    "time": 127.60000000000076,
                    "velocity": 0.5039370078740157,
                    "duration": 0.20000000000000284
                },
                {
                    "name": "A4",
                    "midi": 69,
                    "time": 127.80000000000076,
                    "velocity": 0.5039370078740157,
                    "duration": 0.20000000000000284
                },
                {
                    "name": "B4",
                    "midi": 71,
                    "time": 128.00000000000077,
                    "velocity": 0.5039370078740157,
                    "duration": 0.19999999999998863
                },
                {
                    "name": "A4",
                    "midi": 69,
                    "time": 128.20000000000076,
                    "velocity": 0.5039370078740157,
                    "duration": 0.19999999999998863
                },
                {
                    "name": "C#5",
                    "midi": 73,
                    "time": 128.40000000000074,
                    "velocity": 0.5039370078740157,
                    "duration": 0.19999999999998863
                },
                {
                    "name": "A4",
                    "midi": 69,
                    "time": 128.60000000000073,
                    "velocity": 0.5039370078740157,
                    "duration": 0.19999999999998863
                },
                {
                    "name": "D5",
                    "midi": 74,
                    "time": 128.80000000000072,
                    "velocity": 0.5039370078740157,
                    "duration": 1.1999999999999886
                }
            ],
            "controlChanges": {},
            "id": 2,
            "name": "Flute",
            "instrumentNumber": 73,
            "instrument": "flute",
            "instrumentFamily": "pipe",
            "channelNumber": 1,
            "isPercussion": false
        }
    ]
}