{
    "header": {
        "PPQ": 192,
        "bpm": 80,
        "timeSignature": [
            4,
            4
        ],
        "name": "Piano Template"
    },
    "startTime": 0,
    "duration": 125.625,
    "tracks": [
        {
            "startTime": 0,
            "duration": 0,
            "length": 0,
            "notes": [],
            "controlChanges": {},
            "id": 0,
            "name": "Piano Template"
        },
        {
            "startTime": 0,
            "duration": 124.875,
            "length": 383,
            "notes": [
                {
                    "name": "C5",
                    "midi": 72,
                    "time": 0,
                    "velocity": 0.7244094488188977,
                    "duration": 0.3671875
                },
                {
                    "name": "E5",
                    "midi": 76,
                    "time": 0.5625,
                    "velocity": 0.7244094488188977,
                    "duration": 0.0859375
                },
                {
                    "name": "D5",
                    "midi": 74,
                    "time": 0.65625,
                    "velocity": 0.7244094488188977,
                    "duration": 0.0859375
                },
                {
                    "name": "C5",
                    "midi": 72,
                    "time": 0.75,
                    "velocity": 0.7244094488188977,
                    "duration": 0.5546875
                },
                {
                    "name": "D5",
                    "midi": 74,
                    "time": 1.40625,
                    "velocity": 0.7244094488188977,
                    "duration": 0.0859375
                },
                {
                    "name": "E5",
                    "midi": 76,
                    "time": 1.5,
                    "velocity": 0.7244094488188977,
                    "duration": 0.5546875
                },
                {
                    "name": "F#5",
                    "midi": 78,
                    "time": 2.15625,
                    "velocity": 0.7244094488188977,
                    "duration": 0.0859375
                },
                {
                    "name": "F#5",
                    "midi": 78,
                    "time": 2.25,
                    "velocity": 0.7244094488188977,
                    "duration": 0.0859375
                },
                {
                    "name": "G5",
                    "midi": 79,
                    "time": 2.34375,
                    "velocity": 0.7244094488188977,
                    "duration": 0.0859375
                },
                {
                    "name": "A5",
                    "midi": 81,
                    "time": 2.4375,
                    "velocity": 0.7244094488188977,
                    "duration": 0.0859375
                },
                {
                    "name": "G5",
                    "midi": 79,
                    "time": 2.53125,
                    "velocity": 0.7244094488188977,
                    "duration": 0.0703125
                },
                {
                    "name": "A5",
                    "midi": 81,
                    "time": 2.6015625,
                    "velocity": 0.7244094488188977,
                    "duration": 0.0703125
                },
                {
                    "name": "G5",
                    "midi": 79,
                    "time": 2.671875,
                    "velocity": 0.7244094488188977,
                    "duration": 0.0703125
                },
                {
                    "name": "A5",
                    "midi": 81,
                    "time": 2.7421875,
                    "velocity": 0.7244094488188977,
                    "duration": 0.0703125
                },
                {
                    "name": "G5",
                    "midi": 79,
                    "time": 2.8125,
                    "velocity": 0.7244094488188977,
                    "duration": 0.0703125
                },
                {
                    "name": "A5",
                    "midi": 81,
                    "time": 2.8828125,
                    "velocity": 0.7244094488188977,
                    "duration": 0.0703125
                },
                {
                    "name": "G5",
                    "midi": 79,
                    "time": 2.953125,
                    "velocity": 0.7244094488188977,
                    "duration": 0.0703125
                },
                {
                    "name": "A5",
                    "midi": 81,
                    "time": 3.0234375,
                    "velocity": 0.7244094488188977,
                    "duration": 0.0703125
                },
                {
                    "name": "G5",
                    "midi": 79,
                    "time": 3.09375,
                    "velocity": 0.7244094488188977,
                    "duration": 0.0703125
                },
                {
                    "name": "A5",
                    "midi": 81,
                    "time": 3.1640625,
                    "velocity": 0.7244094488188977,
                    "duration": 0.0703125
                },
                {
                    "name": "G5",
                    "midi": 79,
                    "time": 3.234375,
                    "velocity": 0.7244094488188977,
                    "duration": 0.0703125
                },
                {
                    "name": "A5",
                    "midi": 81,
                    "time": 3.3046875,
                    "velocity": 0.7244094488188977,
                    "duration": 0.0703125
                },
                {
                    "name": "G5",
                    "midi": 79,
                    "time": 3.375,
                    "velocity": 0.7244094488188977,
                    "duration": 0.0703125
                },
                {
                    "name": "A5",
                    "midi": 81,
                    "time": 3.4453125,
                    "velocity": 0.7244094488188977,
                    "duration": 0.0703125
                },
                {
                    "name": "G5",
                    "midi": 79,
                    "time": 3.515625,
                    "velocity": 0.7244094488188977,
                    "duration": 0.0703125
                },
                {
                    "name": "A5",
                    "midi": 81,
                    "time": 3.5859375,
                    "velocity": 0.7244094488188977,
                    "duration": 0.0703125
                },
                {
                    "name": "F#5",
                    "midi": 78,
                    "time": 3.65625,
                    "velocity": 0.7244094488188977,
                    "duration": 0.09375
                },
                {
                    "name": "G5",
                    "midi": 79,
                    "time": 3.75,
                    "velocity": 0.7244094488188977,
                    "duration": 0.625
                },
                {
                    "name": "F5",
                    "midi": 77,
                    "time": 4.5,
                    "velocity": 0.7244094488188977,
                    "duration": 1.125
                },
                {
                    "name": "G5",
                    "midi": 79,
                    "time": 5.625,
                    "velocity": 0.7244094488188977,
                    "duration": 0.1875
                },
                {
                    "name": "F5",
                    "midi": 77,
                    "time": 5.8125,
                    "velocity": 0.7244094488188977,
                    "duration": 0.1796875
                },
                {
                    "name": "E5",
                    "midi": 76,
                    "time": 6,
                    "velocity": 0.7244094488188977,
                    "duration": 0.1796875
                },
                {
                    "name": "D5",
                    "midi": 74,
                    "time": 6.1875,
                    "velocity": 0.7244094488188977,
                    "duration": 0.1796875
                },
                {
                    "name": "C5",
                    "midi": 72,
                    "time": 6.375,
                    "velocity": 0.7244094488188977,
                    "duration": 0.1796875
                },
                {
                    "name": "B4",
                    "midi": 71,
                    "time": 6.5625,
                    "velocity": 0.7244094488188977,
                    "duration": 0.1796875
                },
                {
                    "name": "G5",
                    "midi": 79,
                    "time": 6.75,
                    "velocity": 0.7244094488188977,
                    "duration": 1.125
                },
                {
                    "name": "A5",
                    "midi": 81,
                    "time": 7.875,
                    "velocity": 0.7244094488188977,
                    "duration": 0.1875
                },
                {
                    "name": "G5",
                    "midi": 79,
                    "time": 8.0625,
                    "velocity": 0.7244094488188977,
                    "duration": 0.1796875
                },
                {
                    "name": "F5",
                    "midi": 77,
                    "time": 8.25,
                    "velocity": 0.7244094488188977,
                    "duration": 0.1875
                },
                {
                    "name": "E5",
                    "midi": 76,
                    "time": 8.4375,
                    "velocity": 0.7244094488188977,
                    "duration": 0.1875
                },
                {
                    "name": "D5",
                    "midi": 74,
                    "time": 8.625,
                    "velocity": 0.7244094488188977,
                    "duration": 0.1875
                },
                {
                    "name": "C#5",
                    "midi": 73,
                    "time": 8.8125,
                    "velocity": 0.7244094488188977,
                    "duration": 0.1796875
                },
                {
                    "name": "D5",
                    "midi": 74,
                    "time": 9,
                    "velocity": 0.7244094488188977,
                    "duration": 0.5625
                },
                {
                    "name": "D#5",
                    "midi": 75,
                    "time": 9.5625,
                    "velocity": 0.7244094488188977,
                    "duration": 0.1796875
                },
                {
                    "name": "E5",
                    "midi": 76,
                    "time": 9.75,
                    "velocity": 0.7244094488188977,
                    "duration": 0.5625
                },
                {
                    "name": "E5",
                    "midi": 76,
                    "time": 10.3125,
                    "velocity": 0.7244094488188977,
                    "duration": 0.1796875
                },
                {
                    "name": "G5",
                    "midi": 79,
                    "time": 10.5,
                    "velocity": 0.7244094488188977,
                    "duration": 0.1796875
                },
                {
                    "name": "F#5",
                    "midi": 78,
                    "time": 10.6875,
                    "velocity": 0.7244094488188977,
                    "duration": 0.1796875
                },
                {
                    "name": "F5",
                    "midi": 77,
                    "time": 10.875,
                    "velocity": 0.7244094488188977,
                    "duration": 0.1796875
                },
                {
                    "name": "E5",
                    "midi": 76,
                    "time": 11.0625,
                    "velocity": 0.7244094488188977,
                    "duration": 0.1796875
                },
                {
                    "name": "D5",
                    "midi": 74,
                    "time": 11.25,
                    "velocity": 0.7244094488188977,
                    "duration": 1.125
                },
                {
                    "name": "B5",
                    "midi": 83,
                    "time": 12.375,
                    "velocity": 0.7244094488188977,
                    "duration": 0.1875
                },
                {
                    "name": "A5",
                    "midi": 81,
                    "time": 12.5625,
                    "velocity": 0.7244094488188977,
                    "duration": 0.1796875
                },
                {
                    "name": "G5",
                    "midi": 79,
                    "time": 12.75,
                    "velocity": 0.7244094488188977,
                    "duration": 0.1875
                },
                {
                    "name": "F#5",
                    "midi": 78,
                    "time": 12.9375,
                    "velocity": 0.7244094488188977,
                    "duration": 0.1875
                },
                {
                    "name": "E5",
                    "midi": 76,
                    "time": 13.125,
                    "velocity": 0.7244094488188977,
                    "duration": 0.1875
                },
                {
                    "name": "D5",
                    "midi": 74,
                    "time": 13.3125,
                    "velocity": 0.7244094488188977,
                    "duration": 0.1796875
                },
                {
                    "name": "D5",
                    "midi": 74,
                    "time": 13.5,
                    "velocity": 0.7244094488188977,
                    "duration": 1.125
                },
                {
                    "name": "C6",
                    "midi": 84,
                    "time": 14.625,
                    "velocity": 0.7244094488188977,
                    "duration": 0.1875
                },
                {
                    "name": "A5",
                    "midi": 81,
                    "time": 14.8125,
                    "velocity": 0.7244094488188977,
                    "duration": 0.1796875
                },
                {
                    "name": "G5",
                    "midi": 79,
                    "time": 15,
                    "velocity": 0.7244094488188977,
                    "duration": 0.1875
                },
                {
                    "name": "F#5",
                    "midi": 78,
                    "time": 15.1875,
                    "velocity": 0.7244094488188977,
                    "duration": 0.1875
                },
                {
                    "name": "E5",
                    "midi": 76,
                    "time": 15.375,
                    "velocity": 0.7244094488188977,
                    "duration": 0.1875
                },
                {
                    "name": "D5",
                    "midi": 74,
                    "time": 15.5625,
                    "velocity": 0.7244094488188977,
                    "duration": 0.1796875
                },
                {
                    "name": "D5",
                    "midi": 74,
                    "time": 15.75,
                    "velocity": 0.7244094488188977,
                    "duration": 0.1796875
                },
                {
                    "name": "G5",
                    "midi": 79,
                    "time": 15.9375,
                    "velocity": 0.7244094488188977,
                    "duration": 0.3671875
                },
                {
                    "name": "F#5",
                    "midi": 78,
                    "time": 16.3125,
                    "velocity": 0.7244094488188977,
                    "duration": 0.1796875
                },
                {
                    "name": "E5",
                    "midi": 76,
                    "time": 16.5,
                    "velocity": 0.7244094488188977,
                    "duration": 0.1796875
                },
                {
                    "name": "A5",
                    "midi": 81,
                    "time": 16.6875,
                    "velocity": 0.7244094488188977,
                    "duration": 0.3671875
                },
                {
                    "name": "G5",
                    "midi": 79,
                    "time": 17.0625,
                    "velocity": 0.7244094488188977,
                    "duration": 0.1796875
                },
                {
                    "name": "F#5",
                    "midi": 78,
                    "time": 17.25,
                    "velocity": 0.7244094488188977,
                    "duration": 0.1796875
                },
                {
                    "name": "D6",
                    "midi": 86,
                    "time": 17.4375,
                    "velocity": 0.7244094488188977,
                    "duration": 0.3671875
                },
                {
                    "name": "C6",
                    "midi": 84,
                    "time": 17.8125,
                    "velocity": 0.7244094488188977,
                    "duration": 0.1796875
                },
                {
                    "name": "B5",
                    "midi": 83,
                    "time": 18,
                    "velocity": 0.7244094488188977,
                    "duration": 0.0859375
                },
                {
                    "name": "D6",
                    "midi": 86,
                    "time": 18.09375,
                    "velocity": 0.7244094488188977,
                    "duration": 0.09375
                },
                {
                    "name": "C6",
                    "midi": 84,
                    "time": 18.1875,
                    "velocity": 0.7244094488188977,
                    "duration": 0.0859375
                },
                {
                    "name": "B5",
                    "midi": 83,
                    "time": 18.28125,
                    "velocity": 0.7244094488188977,
                    "duration": 0.0859375
                },
                {
                    "name": "A5",
                    "midi": 81,
                    "time": 18.375,
                    "velocity": 0.7244094488188977,
                    "duration": 0.0859375
                },
                {
                    "name": "C6",
                    "midi": 84,
                    "time": 18.46875,
                    "velocity": 0.7244094488188977,
                    "duration": 0.09375
                },
                {
                    "name": "B5",
                    "midi": 83,
                    "time": 18.5625,
                    "velocity": 0.7244094488188977,
                    "duration": 0.0859375
                },
                {
                    "name": "A5",
                    "midi": 81,
                    "time": 18.65625,
                    "velocity": 0.7244094488188977,
                    "duration": 0.0859375
                },
                {
                    "name": "G5",
                    "midi": 79,
                    "time": 18.75,
                    "velocity": 0.7244094488188977,
                    "duration": 0.0859375
                },
                {
                    "name": "B5",
                    "midi": 83,
                    "time": 18.84375,
                    "velocity": 0.7244094488188977,
                    "duration": 0.09375
                },
                {
                    "name": "A5",
                    "midi": 81,
                    "time": 18.9375,
                    "velocity": 0.7244094488188977,
                    "duration": 0.0859375
                },
                {
                    "name": "G5",
                    "midi": 79,
                    "time": 19.03125,
                    "velocity": 0.7244094488188977,
                    "duration": 0.0859375
                },
                {
                    "name": "F#5",
                    "midi": 78,
                    "time": 19.125,
                    "velocity": 0.7244094488188977,
                    "duration": 0.0859375
                },
                {
                    "name": "A5",
                    "midi": 81,
                    "time": 19.21875,
                    "velocity": 0.7244094488188977,
                    "duration": 0.09375
                },
                {
                    "name": "G5",
                    "midi": 79,
                    "time": 19.3125,
                    "velocity": 0.7244094488188977,
                    "duration": 0.0859375
                },
                {
                    "name": "F#5",
                    "midi": 78,
                    "time": 19.40625,
                    "velocity": 0.7244094488188977,
                    "duration": 0.0859375
                },
                {
                    "name": "E5",
                    "midi": 76,
                    "time": 19.5,
                    "velocity": 0.7244094488188977,
                    "duration": 0.09375
                },
                {
                    "name": "G5",
                    "midi": 79,
                    "time": 19.59375,
                    "velocity": 0.7244094488188977,
                    "duration": 0.0859375
                },
                {
                    "name": "F#5",
                    "midi": 78,
                    "time": 19.6875,
                    "velocity": 0.7244094488188977,
                    "duration": 0.0859375
                },
                {
                    "name": "E5",
                    "midi": 76,
                    "time": 19.78125,
                    "velocity": 0.7244094488188977,
                    "duration": 0.0859375
                },
                {
                    "name": "D#5",
                    "midi": 75,
                    "time": 19.875,
                    "velocity": 0.7244094488188977,
                    "duration": 0.09375
                },
                {
                    "name": "F#5",
                    "midi": 78,
                    "time": 19.96875,
                    "velocity": 0.7244094488188977,
                    "duration": 0.0859375
                },
                {
                    "name": "E5",
                    "midi": 76,
                    "time": 20.0625,
                    "velocity": 0.7244094488188977,
                    "duration": 0.0859375
                },
                {
                    "name": "D#5",
                    "midi": 75,
                    "time": 20.15625,
                    "velocity": 0.7244094488188977,
                    "duration": 0.0859375
                },
                {
                    "name": "E5",
                    "midi": 76,
                    "time": 20.25,
                    "velocity": 0.7244094488188977,
                    "duration": 0.09375
                },
                {
                    "name": "F#5",
                    "midi": 78,
                    "time": 20.34375,
                    "velocity": 0.7244094488188977,
                    "duration": 0.046875
                },
                {
                    "name": "G5",
                    "midi": 79,
                    "time": 20.390625,
                    "velocity": 0.7244094488188977,
                    "duration": 0.046875
                },
                {
                    "name": "A5",
                    "midi": 81,
                    "time": 20.4375,
                    "velocity": 0.7244094488188977,
                    "duration": 0.046875
                },
                {
                    "name": "B5",
                    "midi": 83,
                    "time": 20.484375,
                    "velocity": 0.7244094488188977,
                    "duration": 0.046875
                },
                {
                    "name": "C6",
                    "midi": 84,
                    "time": 20.53125,
                    "velocity": 0.7244094488188977,
                    "duration": 0.046875
                },
                {
                    "name": "D6",
                    "midi": 86,
                    "time": 20.578125,
                    "velocity": 0.7244094488188977,
                    "duration": 0.046875
                },
                {
                    "name": "D#6",
                    "midi": 87,
                    "time": 20.625,
                    "velocity": 0.7244094488188977,
                    "duration": 0.046875
                },
                {
                    "name": "E6",
                    "midi": 88,
                    "time": 20.671875,
                    "velocity": 0.7244094488188977,
                    "duration": 0.046875
                },
                {
                    "name": "F#6",
                    "midi": 90,
                    "time": 20.71875,
                    "velocity": 0.7244094488188977,
                    "duration": 0.046875
                },
                {
                    "name": "E6",
                    "midi": 88,
                    "time": 20.765625,
                    "velocity": 0.7244094488188977,
                    "duration": 0.046875
                },
                {
                    "name": "D6",
                    "midi": 86,
                    "time": 20.8125,
                    "velocity": 0.7244094488188977,
                    "duration": 0.046875
                },
                {
                    "name": "C6",
                    "midi": 84,
                    "time": 20.859375,
                    "velocity": 0.7244094488188977,
                    "duration": 0.046875
                },
                {
                    "name": "B5",
                    "midi": 83,
                    "time": 20.90625,
                    "velocity": 0.7244094488188977,
                    "duration": 0.046875
                },
                {
                    "name": "A5",
                    "midi": 81,
                    "time": 20.953125,
                    "velocity": 0.7244094488188977,
                    "duration": 0.0390625
                },
                {
                    "name": "G5",
                    "midi": 79,
                    "time": 21,
                    "velocity": 0.7244094488188977,
                    "duration": 0.625
                },
                {
                    "name": "F#5",
                    "midi": 78,
                    "time": 21.75,
                    "velocity": 0.7244094488188977,
                    "duration": 0.625
                },
                {
                    "name": "G5",
                    "midi": 79,
                    "time": 22.5,
                    "velocity": 0.7244094488188977,
                    "duration": 0.0703125
                },
                {
                    "name": "A5",
                    "midi": 81,
                    "time": 22.5703125,
                    "velocity": 0.7244094488188977,
                    "duration": 0.0703125
                },
                {
                    "name": "G5",
                    "midi": 79,
                    "time": 22.640625,
                    "velocity": 0.7244094488188977,
                    "duration": 0.0703125
                },
                {
                    "name": "A5",
                    "midi": 81,
                    "time": 22.7109375,
                    "velocity": 0.7244094488188977,
                    "duration": 0.0703125
                },
                {
                    "name": "G5",
                    "midi": 79,
                    "time": 22.78125,
                    "velocity": 0.7244094488188977,
                    "duration": 0.0703125
                },
                {
                    "name": "A5",
                    "midi": 81,
                    "time": 22.8515625,
                    "velocity": 0.7244094488188977,
                    "duration": 0.0703125
                },
                {
                    "name": "G5",
                    "midi": 79,
                    "time": 22.921875,
                    "velocity": 0.7244094488188977,
                    "duration": 0.0703125
                },
                {
                    "name": "A5",
                    "midi": 81,
                    "time": 22.9921875,
                    "velocity": 0.7244094488188977,
                    "duration": 0.0703125
                },
                {
                    "name": "G5",
                    "midi": 79,
                    "time": 23.0625,
                    "velocity": 0.7244094488188977,
                    "duration": 0.0703125
                },
                {
                    "name": "A5",
                    "midi": 81,
                    "time": 23.1328125,
                    "velocity": 0.7244094488188977,
                    "duration": 0.0703125
                },
                {
                    "name": "G5",
                    "midi": 79,
                    "time": 23.203125,
                    "velocity": 0.7244094488188977,
                    "duration": 0.0703125
                },
                {
                    "name": "A5",
                    "midi": 81,
                    "time": 23.2734375,
                    "velocity": 0.7244094488188977,
                    "duration": 0.0703125
                },
                {
                    "name": "G5",
                    "midi": 79,
                    "time": 23.34375,
                    "velocity": 0.7244094488188977,
                    "duration": 0.0703125
                },
                {
                    "name": "A5",
                    "midi": 81,
                    "time": 23.4140625,
                    "velocity": 0.7244094488188977,
                    "duration": 0.0703125
                },
                {
                    "name": "G5",
                    "midi": 79,
                    "time": 23.484375,
                    "velocity": 0.7244094488188977,
                    "duration": 0.0703125
                },
                {
                    "name": "A5",
                    "midi": 81,
                    "time": 23.5546875,
                    "velocity": 0.7244094488188977,
                    "duration": 0.0703125
                },
                {
                    "name": "G5",
                    "midi": 79,
                    "time": 23.625,
                    "velocity": 0.7244094488188977,
                    "duration": 0.0703125
                },
                {
                    "name": "A5",
                    "midi": 81,
                    "time": 23.6953125,
                    "velocity": 0.7244094488188977,
                    "duration": 0.0703125
                },
                {
                    "name": "G5",
                    "midi": 79,
                    "time": 23.765625,
                    "velocity": 0.7244094488188977,
                    "duration": 0.0703125
                },
                {
                    "name": "A5",
                    "midi": 81,
                    "time": 23.8359375,
                    "velocity": 0.7244094488188977,
                    "duration": 0.0703125
                },
                {
                    "name": "G5",
                    "midi": 79,
                    "time": 23.90625,
                    "velocity": 0.7244094488188977,
                    "duration": 0.1875
                },
                {
                    "name": "B5",
                    "midi": 83,
                    "time": 24.09375,
                    "velocity": 0.7244094488188977,
                    "duration": 0.09375
                },
                {
                    "name": "A5",
                    "midi": 81,
                    "time": 24.1875,
                    "velocity": 0.7244094488188977,
                    "duration": 0.09375
                },
                {
                    "name": "G5",
                    "midi": 79,
                    "time": 24.28125,
                    "velocity": 0.7244094488188977,
                    "duration": 0.09375
                },
                {
                    "name": "F#5",
                    "midi": 78,
                    "time": 24.375,
                    "velocity": 0.7244094488188977,
                    "duration": 0.09375
                },
                {
                    "name": "G5",
                    "midi": 79,
                    "time": 24.46875,
                    "velocity": 0.7244094488188977,
                    "duration": 0.09375
                },
                {
                    "name": "A5",
                    "midi": 81,
                    "time": 24.5625,
                    "velocity": 0.7244094488188977,
                    "duration": 0.09375
                },
                {
                    "name": "G5",
                    "midi": 79,
                    "time": 24.65625,
                    "velocity": 0.7244094488188977,
                    "duration": 0.0859375
                },
                {
                    "name": "F#5",
                    "midi": 78,
                    "time": 24.75,
                    "velocity": 0.7244094488188977,
                    "duration": 0.0703125
                },
                {
                    "name": "G5",
                    "midi": 79,
                    "time": 24.8203125,
                    "velocity": 0.7244094488188977,
                    "duration": 0.0703125
                },
                {
                    "name": "F#5",
                    "midi": 78,
                    "time": 24.890625,
                    "velocity": 0.7244094488188977,
                    "duration": 0.0703125
                },
                {
                    "name": "G5",
                    "midi": 79,
                    "time": 24.9609375,
                    "velocity": 0.7244094488188977,
                    "duration": 0.0703125
                },
                {
                    "name": "F#5",
                    "midi": 78,
                    "time": 25.03125,
                    "velocity": 0.7244094488188977,
                    "duration": 0.0703125
                },
                {
                    "name": "G5",
                    "midi": 79,
                    "time": 25.1015625,
                    "velocity": 0.7244094488188977,
                    "duration": 0.0703125
                },
                {
                    "name": "F#5",
                    "midi": 78,
                    "time": 25.171875,
                    "velocity": 0.7244094488188977,
                    "duration": 0.0703125
                },
                {
                    "name": "G5",
                    "midi": 79,
                    "time": 25.2421875,
                    "velocity": 0.7244094488188977,
                    "duration": 0.0703125
                },
                {
                    "name": "F#5",
                    "midi": 78,
                    "time": 25.3125,
                    "velocity": 0.7244094488188977,
                    "duration": 0.0703125
                },
                {
                    "name": "G5",
                    "midi": 79,
                    "time": 25.3828125,
                    "velocity": 0.7244094488188977,
                    "duration": 0.0703125
                },
                {
                    "name": "F#5",
                    "midi": 78,
                    "time": 25.453125,
                    "velocity": 0.7244094488188977,
                    "duration": 0.046875
                },
                {
                    "name": "F5",
                    "midi": 77,
                    "time": 25.5,
                    "velocity": 0.7244094488188977,
                    "duration": 0.84375
                },
                {
                    "name": "A5",
                    "midi": 81,
                    "time": 26.34375,
                    "velocity": 0.7244094488188977,
                    "duration": 0.09375
                },
                {
                    "name": "G5",
                    "midi": 79,
                    "time": 26.4375,
                    "velocity": 0.7244094488188977,
                    "duration": 0.09375
                },
                {
                    "name": "F5",
                    "midi": 77,
                    "time": 26.53125,
                    "velocity": 0.7244094488188977,
                    "duration": 0.09375
                },
                {
                    "name": "E5",
                    "midi": 76,
                    "time": 26.625,
                    "velocity": 0.7244094488188977,
                    "duration": 0.09375
                },
                {
                    "name": "F5",
                    "midi": 77,
                    "time": 26.71875,
                    "velocity": 0.7244094488188977,
                    "duration": 0.09375
                },
                {
                    "name": "G5",
                    "midi": 79,
                    "time": 26.8125,
                    "velocity": 0.7244094488188977,
                    "duration": 0.09375
                },
                {
                    "name": "F5",
                    "midi": 77,
                    "time": 26.90625,
                    "velocity": 0.7244094488188977,
                    "duration": 0.0859375
                },
                {
                    "name": "E5",
                    "midi": 76,
                    "time": 27,
                    "velocity": 0.7244094488188977,
                    "duration": 0.1796875
                },
                {
                    "name": "G5",
                    "midi": 79,
                    "time": 27.1875,
                    "velocity": 0.7244094488188977,
                    "duration": 0.1796875
                },
                {
                    "name": "C6",
                    "midi": 84,
                    "time": 27.375,
                    "velocity": 0.7244094488188977,
                    "duration": 0.1796875
                },
                {
                    "name": "G5",
                    "midi": 79,
                    "time": 27.5625,
                    "velocity": 0.7244094488188977,
                    "duration": 0.3671875
                },
                {
                    "name": "F#5",
                    "midi": 78,
                    "time": 27.9375,
                    "velocity": 0.7244094488188977,
                    "duration": 0.3671875
                },
                {
                    "name": "F5",
                    "midi": 77,
                    "time": 28.3125,
                    "velocity": 0.7244094488188977,
                    "duration": 0.3671875
                },
                {
                    "name": "E5",
                    "midi": 76,
                    "time": 28.6875,
                    "velocity": 0.7244094488188977,
                    "duration": 0.3671875
                },
                {
                    "name": "F#5",
                    "midi": 78,
                    "time": 29.0625,
                    "velocity": 0.7244094488188977,
                    "duration": 0.1796875
                },
                {
                    "name": "G5",
                    "midi": 79,
                    "time": 29.25,
                    "velocity": 0.7244094488188977,
                    "duration": 0.1796875
                },
                {
                    "name": "D5",
                    "midi": 74,
                    "time": 29.4375,
                    "velocity": 0.7244094488188977,
                    "duration": 0.1875
                },
                {
                    "name": "G5",
                    "midi": 79,
                    "time": 29.625,
                    "velocity": 0.7244094488188977,
                    "duration": 0.1796875
                },
                {
                    "name": "F5",
                    "midi": 77,
                    "time": 29.8125,
                    "velocity": 0.7244094488188977,
                    "duration": 0.1796875
                },
                {
                    "name": "E5",
                    "midi": 76,
                    "time": 30,
                    "velocity": 0.7244094488188977,
                    "duration": 0.1796875
                },
                {
                    "name": "C6",
                    "midi": 84,
                    "time": 30.1875,
                    "velocity": 0.7244094488188977,
                    "duration": 0.1875
                },
                {
                    "name": "G5",
                    "midi": 79,
                    "time": 30.375,
                    "velocity": 0.7244094488188977,
                    "duration": 0.1796875
                },
                {
                    "name": "E5",
                    "midi": 76,
                    "time": 30.5625,
                    "velocity": 0.7244094488188977,
                    "duration": 0.1796875
                },
                {
                    "name": "G5",
                    "midi": 79,
                    "time": 30.75,
                    "velocity": 0.7244094488188977,
                    "duration": 0.1796875
                },
                {
                    "name": "F#5",
                    "midi": 78,
                    "time": 30.9375,
                    "velocity": 0.7244094488188977,
                    "duration": 0.1796875
                },
                {
                    "name": "F5",
                    "midi": 77,
                    "time": 31.125,
                    "velocity": 0.7244094488188977,
                    "duration": 0.1796875
                },
                {
                    "name": "E5",
                    "midi": 76,
                    "time": 31.3125,
                    "velocity": 0.7244094488188977,
                    "duration": 0.1796875
                },
                {
                    "name": "D5",
                    "midi": 74,
                    "time": 31.5,
                    "velocity": 0.7244094488188977,
                    "duration": 0.5625
                },
                {
                    "name": "E5",
                    "midi": 76,
                    "time": 32.0625,
                    "velocity": 0.7244094488188977,
                    "duration": 0.1796875
                },
                {
                    "name": "D5",
                    "midi": 74,
                    "time": 32.25,
                    "velocity": 0.7244094488188977,
                    "duration": 0.375
                },
                {
                    "name": "E5",
                    "midi": 76,
                    "time": 32.625,
                    "velocity": 0.7244094488188977,
                    "duration": 0.3671875
                },
                {
                    "name": "G5",
                    "midi": 79,
                    "time": 33,
                    "velocity": 0.7244094488188977,
                    "duration": 0.1796875
                },
                {
                    "name": "F#5",
                    "midi": 78,
                    "time": 33.1875,
                    "velocity": 0.7244094488188977,
                    "duration": 0.1796875
                },
                {
                    "name": "F5",
                    "midi": 77,
                    "time": 33.375,
                    "velocity": 0.7244094488188977,
                    "duration": 0.1796875
                },
                {
                    "name": "E5",
                    "midi": 76,
                    "time": 33.5625,
                    "velocity": 0.7244094488188977,
                    "duration": 0.1796875
                },
                {
                    "name": "D5",
                    "midi": 74,
                    "time": 33.75,
                    "velocity": 0.7244094488188977,
                    "duration": 0.625
                },
                {
                    "name": "E5",
                    "midi": 76,
                    "time": 34.5,
                    "velocity": 0.7244094488188977,
                    "duration": 0.0859375
                },
                {
                    "name": "D5",
                    "midi": 74,
                    "time": 34.59375,
                    "velocity": 0.7244094488188977,
                    "duration": 0.0859375
                },
                {
                    "name": "C#5",
                    "midi": 73,
                    "time": 34.6875,
                    "velocity": 0.7244094488188977,
                    "duration": 0.0859375
                },
                {
                    "name": "D5",
                    "midi": 74,
                    "time": 34.78125,
                    "velocity": 0.7244094488188977,
                    "duration": 0.0859375
                },
                {
                    "name": "F5",
                    "midi": 77,
                    "time": 34.875,
                    "velocity": 0.7244094488188977,
                    "duration": 0.0859375
                },
                {
                    "name": "E5",
                    "midi": 76,
                    "time": 34.96875,
                    "velocity": 0.7244094488188977,
                    "duration": 0.0859375
                },
                {
                    "name": "D5",
                    "midi": 74,
                    "time": 35.0625,
                    "velocity": 0.7244094488188977,
                    "duration": 0.0859375
                },
                {
                    "name": "C#5",
                    "midi": 73,
                    "time": 35.15625,
                    "velocity": 0.7244094488188977,
                    "duration": 0.09375
                },
                {
                    "name": "D5",
                    "midi": 74,
                    "time": 35.25,
                    "velocity": 0.7244094488188977,
                    "duration": 0.09375
                },
                {
                    "name": "D5",
                    "midi": 74,
                    "time": 35.25,
                    "velocity": 0.7244094488188977,
                    "duration": 0.3671875
                },
                {
                    "name": "E5",
                    "midi": 76,
                    "time": 35.34375,
                    "velocity": 0.7244094488188977,
                    "duration": 0.0859375
                },
                {
                    "name": "G4",
                    "midi": 67,
                    "time": 35.625,
                    "velocity": 0.5905511811023622,
                    "duration": 0.2421875
                },
                {
                    "name": "A4",
                    "midi": 69,
                    "time": 35.875,
                    "velocity": 0.5905511811023622,
                    "duration": 0.2421875
                },
                {
                    "name": "B4",
                    "midi": 71,
                    "time": 36.125,
                    "velocity": 0.5905511811023622,
                    "duration": 0.2421875
                },
                {
                    "name": "C5",
                    "midi": 72,
                    "time": 36.375,
                    "velocity": 0.5905511811023622,
                    "duration": 1.875
                },
                {
                    "name": "D5",
                    "midi": 74,
                    "time": 38.25,
                    "velocity": 0.5905511811023622,
                    "duration": 0.1875
                },
                {
                    "name": "C5",
                    "midi": 72,
                    "time": 38.4375,
                    "velocity": 0.5905511811023622,
                    "duration": 0.1796875
                },
                {
                    "name": "B4",
                    "midi": 71,
                    "time": 38.625,
                    "velocity": 0.5905511811023622,
                    "duration": 0.3671875
                },
                {
                    "name": "C5",
                    "midi": 72,
                    "time": 39,
                    "velocity": 0.5905511811023622,
                    "duration": 0.3671875
                },
                {
                    "name": "D5",
                    "midi": 74,
                    "time": 39.375,
                    "velocity": 0.5905511811023622,
                    "duration": 1.875
                },
                {
                    "name": "F5",
                    "midi": 77,
                    "time": 41.25,
                    "velocity": 0.5905511811023622,
                    "duration": 0.1875
                },
                {
                    "name": "E5",
                    "midi": 76,
                    "time": 41.4375,
                    "velocity": 0.5905511811023622,
                    "duration": 0.1796875
                },
                {
                    "name": "D5",
                    "midi": 74,
                    "time": 41.625,
                    "velocity": 0.5905511811023622,
                    "duration": 0.3671875
                },
                {
                    "name": "C5",
                    "midi": 72,
                    "time": 42,
                    "velocity": 0.5905511811023622,
                    "duration": 0.3671875
                },
                {
                    "name": "B4",
                    "midi": 71,
                    "time": 42.375,
                    "velocity": 0.5905511811023622,
                    "duration": 1.875
                },
                {
                    "name": "A5",
                    "midi": 81,
                    "time": 44.25,
                    "velocity": 0.5905511811023622,
                    "duration": 0.1875
                },
                {
                    "name": "G5",
                    "midi": 79,
                    "time": 44.4375,
                    "velocity": 0.5905511811023622,
                    "duration": 0.1796875
                },
                {
                    "name": "F5",
                    "midi": 77,
                    "time": 44.625,
                    "velocity": 0.5905511811023622,
                    "duration": 0.3671875
                },
                {
                    "name": "D5",
                    "midi": 74,
                    "time": 45,
                    "velocity": 0.5905511811023622,
                    "duration": 0.3671875
                },
                {
                    "name": "C5",
                    "midi": 72,
                    "time": 45.375,
                    "velocity": 0.5905511811023622,
                    "duration": 1.8671875
                },
                {
                    "name": "E5",
                    "midi": 76,
                    "time": 47.25,
                    "velocity": 0.5905511811023622,
                    "duration": 0.3671875
                },
                {
                    "name": "F5",
                    "midi": 77,
                    "time": 47.625,
                    "velocity": 0.5905511811023622,
                    "duration": 0.3671875
                },
                {
                    "name": "G5",
                    "midi": 79,
                    "time": 48,
                    "velocity": 0.5905511811023622,
                    "duration": 0.3671875
                },
                {
                    "name": "A5",
                    "midi": 81,
                    "time": 48.375,
                    "velocity": 0.7244094488188977,
                    "duration": 1.125
                },
                {
                    "name": "B5",
                    "midi": 83,
                    "time": 49.5,
                    "velocity": 0.7244094488188977,
                    "duration": 0.1875
                },
                {
                    "name": "A5",
                    "midi": 81,
                    "time": 49.6875,
                    "velocity": 0.7244094488188977,
                    "duration": 0.1796875
                },
                {
                    "name": "G5",
                    "midi": 79,
                    "time": 49.875,
                    "velocity": 0.7244094488188977,
                    "duration": 1.125
                },
                {
                    "name": "A5",
                    "midi": 81,
                    "time": 51,
                    "velocity": 0.7244094488188977,
                    "duration": 0.1875
                },
                {
                    "name": "G5",
                    "midi": 79,
                    "time": 51.1875,
                    "velocity": 0.7244094488188977,
                    "duration": 0.1796875
                },
                {
                    "name": "F5",
                    "midi": 77,
                    "time": 51.375,
                    "velocity": 0.7244094488188977,
                    "duration": 1.125
                },
                {
                    "name": "G5",
                    "midi": 79,
                    "time": 52.5,
                    "velocity": 0.7244094488188977,
                    "duration": 0.1875
                },
                {
                    "name": "F5",
                    "midi": 77,
                    "time": 52.6875,
                    "velocity": 0.7244094488188977,
                    "duration": 0.1796875
                },
                {
                    "name": "E5",
                    "midi": 76,
                    "time": 52.875,
                    "velocity": 0.7244094488188977,
                    "duration": 1.125
                },
                {
                    "name": "F5",
                    "midi": 77,
                    "time": 54,
                    "velocity": 0.7244094488188977,
                    "duration": 0.1875
                },
                {
                    "name": "E5",
                    "midi": 76,
                    "time": 54.1875,
                    "velocity": 0.7244094488188977,
                    "duration": 0.1796875
                },
                {
                    "name": "C#5",
                    "midi": 73,
                    "time": 54.375,
                    "velocity": 0.5905511811023622,
                    "duration": 0.375
                },
                {
                    "name": "D5",
                    "midi": 74,
                    "time": 54.75,
                    "velocity": 0.5905511811023622,
                    "duration": 0.375
                },
                {
                    "name": "F5",
                    "midi": 77,
                    "time": 55.125,
                    "velocity": 0.5905511811023622,
                    "duration": 0.375
                },
                {
                    "name": "E5",
                    "midi": 76,
                    "time": 55.5,
                    "velocity": 0.5905511811023622,
                    "duration": 0.3671875
                },
                {
                    "name": "C#5",
                    "midi": 73,
                    "time": 55.875,
                    "velocity": 0.5905511811023622,
                    "duration": 0.375
                },
                {
                    "name": "D5",
                    "midi": 74,
                    "time": 56.25,
                    "velocity": 0.5905511811023622,
                    "duration": 0.75
                },
                {
                    "name": "C5",
                    "midi": 72,
                    "time": 57,
                    "velocity": 0.5905511811023622,
                    "duration": 0.3671875
                },
                {
                    "name": "C5",
                    "midi": 72,
                    "time": 57.375,
                    "velocity": 0.5905511811023622,
                    "duration": 1.5
                },
                {
                    "name": "B4",
                    "midi": 71,
                    "time": 58.875,
                    "velocity": 0.5905511811023622,
                    "duration": 0.3671875
                },
                {
                    "name": "G4",
                    "midi": 67,
                    "time": 59.25,
                    "velocity": 0.5905511811023622,
                    "duration": 0.3671875
                },
                {
                    "name": "A4",
                    "midi": 69,
                    "time": 59.625,
                    "velocity": 0.5905511811023622,
                    "duration": 0.3671875
                },
                {
                    "name": "B4",
                    "midi": 71,
                    "time": 60,
                    "velocity": 0.5905511811023622,
                    "duration": 0.3671875
                },
                {
                    "name": "C5",
                    "midi": 72,
                    "time": 60.375,
                    "velocity": 0.5905511811023622,
                    "duration": 1.8671875
                },
                {
                    "name": "D5",
                    "midi": 74,
                    "time": 62.25,
                    "velocity": 0.5905511811023622,
                    "duration": 0.1875
                },
                {
                    "name": "C5",
                    "midi": 72,
                    "time": 62.4375,
                    "velocity": 0.5905511811023622,
                    "duration": 0.1796875
                },
                {
                    "name": "B4",
                    "midi": 71,
                    "time": 62.625,
                    "velocity": 0.5905511811023622,
                    "duration": 0.3671875
                },
                {
                    "name": "C5",
                    "midi": 72,
                    "time": 63,
                    "velocity": 0.5905511811023622,
                    "duration": 0.3671875
                },
                {
                    "name": "D5",
                    "midi": 74,
                    "time": 63.375,
                    "velocity": 0.5905511811023622,
                    "duration": 1.8671875
                },
                {
                    "name": "F5",
                    "midi": 77,
                    "time": 65.25,
                    "velocity": 0.5905511811023622,
                    "duration": 0.1875
                },
                {
                    "name": "E5",
                    "midi": 76,
                    "time": 65.4375,
                    "velocity": 0.5905511811023622,
                    "duration": 0.1796875
                },
                {
                    "name": "D5",
                    "midi": 74,
                    "time": 65.625,
                    "velocity": 0.5905511811023622,
                    "duration": 0.3671875
                },
                {
                    "name": "C5",
                    "midi": 72,
                    "time": 66,
                    "velocity": 0.5905511811023622,
                    "duration": 0.3671875
                },
                {
                    "name": "B4",
                    "midi": 71,
                    "time": 66.375,
                    "velocity": 0.5905511811023622,
                    "duration": 1.8671875
                },
                {
                    "name": "A5",
                    "midi": 81,
                    "time": 68.25,
                    "velocity": 0.5905511811023622,
                    "duration": 0.1875
                },
                {
                    "name": "G5",
                    "midi": 79,
                    "time": 68.4375,
                    "velocity": 0.5905511811023622,
                    "duration": 0.1796875
                },
                {
                    "name": "F5",
                    "midi": 77,
                    "time": 68.625,
                    "velocity": 0.5905511811023622,
                    "duration": 0.3671875
                },
                {
                    "name": "D5",
                    "midi": 74,
                    "time": 69,
                    "velocity": 0.5905511811023622,
                    "duration": 0.3671875
                },
                {
                    "name": "C5",
                    "midi": 72,
                    "time": 69.375,
                    "velocity": 0.5905511811023622,
                    "duration": 1.8671875
                },
                {
                    "name": "E5",
                    "midi": 76,
                    "time": 71.25,
                    "velocity": 0.5905511811023622,
                    "duration": 0.3671875
                },
                {
                    "name": "F5",
                    "midi": 77,
                    "time": 71.625,
                    "velocity": 0.5905511811023622,
                    "duration": 0.3671875
                },
                {
                    "name": "G5",
                    "midi": 79,
                    "time": 72,
                    "velocity": 0.5905511811023622,
                    "duration": 0.3671875
                },
                {
                    "name": "A5",
                    "midi": 81,
                    "time": 72.375,
                    "velocity": 0.7244094488188977,
                    "duration": 1.125
                },
                {
                    "name": "B5",
                    "midi": 83,
                    "time": 73.5,
                    "velocity": 0.7244094488188977,
                    "duration": 0.1875
                },
                {
                    "name": "A5",
                    "midi": 81,
                    "time": 73.6875,
                    "velocity": 0.7244094488188977,
                    "duration": 0.1796875
                },
                {
                    "name": "G5",
                    "midi": 79,
                    "time": 73.875,
                    "velocity": 0.7244094488188977,
                    "duration": 1.125
                },
                {
                    "name": "A5",
                    "midi": 81,
                    "time": 75,
                    "velocity": 0.7244094488188977,
                    "duration": 0.1875
                },
                {
                    "name": "G5",
                    "midi": 79,
                    "time": 75.1875,
                    "velocity": 0.7244094488188977,
                    "duration": 0.1796875
                },
                {
                    "name": "F#5",
                    "midi": 78,
                    "time": 75.375,
                    "velocity": 0.7244094488188977,
                    "duration": 0.625
                },
                {
                    "name": "F5",
                    "midi": 77,
                    "time": 76.125,
                    "velocity": 1,
                    "duration": 1.5
                },
                {
                    "name": "E5",
                    "midi": 76,
                    "time": 77.625,
                    "velocity": 0.7244094488188977,
                    "duration": 0.625
                },
                {
                    "name": "C#5",
                    "midi": 73,
                    "time": 78.375,
                    "velocity": 0.7244094488188977,
                    "duration": 0.3671875
                },
                {
                    "name": "D5",
                    "midi": 74,
                    "time": 78.75,
                    "velocity": 0.7244094488188977,
                    "duration": 0.3671875
                },
                {
                    "name": "F5",
                    "midi": 77,
                    "time": 79.125,
                    "velocity": 0.7244094488188977,
                    "duration": 0.3671875
                },
                {
                    "name": "A5",
                    "midi": 81,
                    "time": 79.5,
                    "velocity": 0.7244094488188977,
                    "duration": 0.3671875
                },
                {
                    "name": "C5",
                    "midi": 72,
                    "time": 79.875,
                    "velocity": 0.7244094488188977,
                    "duration": 0.625
                },
                {
                    "name": "D5",
                    "midi": 74,
                    "time": 80.625,
                    "velocity": 0.7244094488188977,
                    "duration": 0.625
                },
                {
                    "name": "D#5",
                    "midi": 75,
                    "time": 81.375,
                    "velocity": 0.7244094488188977,
                    "duration": 1.8671875
                },
                {
                    "name": "F5",
                    "midi": 77,
                    "time": 83.25,
                    "velocity": 0.7244094488188977,
                    "duration": 0.1875
                },
                {
                    "name": "D#5",
                    "midi": 75,
                    "time": 83.4375,
                    "velocity": 0.7244094488188977,
                    "duration": 0.1796875
                },
                {
                    "name": "D5",
                    "midi": 74,
                    "time": 83.625,
                    "velocity": 0.7244094488188977,
                    "duration": 0.3671875
                },
                {
                    "name": "C5",
                    "midi": 72,
                    "time": 84,
                    "velocity": 0.7244094488188977,
                    "duration": 0.3671875
                },
                {
                    "name": "B4",
                    "midi": 71,
                    "time": 84.375,
                    "velocity": 0.7244094488188977,
                    "duration": 0.3671875
                },
                {
                    "name": "C5",
                    "midi": 72,
                    "time": 85.125,
                    "velocity": 0.7244094488188977,
                    "duration": 0.3671875
                },
                {
                    "name": "D5",
                    "midi": 74,
                    "time": 85.875,
                    "velocity": 0.7244094488188977,
                    "duration": 0.3671875
                },
                {
                    "name": "D#5",
                    "midi": 75,
                    "time": 86.625,
                    "velocity": 0.7244094488188977,
                    "duration": 0.3671875
                },
                {
                    "name": "E5",
                    "midi": 76,
                    "time": 87.375,
                    "velocity": 0.7244094488188977,
                    "duration": 1.125
                },
                {
                    "name": "F5",
                    "midi": 77,
                    "time": 88.5,
                    "velocity": 0.7244094488188977,
                    "duration": 0.1875
                },
                {
                    "name": "E5",
                    "midi": 76,
                    "time": 88.6875,
                    "velocity": 0.7244094488188977,
                    "duration": 0.1796875
                },
                {
                    "name": "D5",
                    "midi": 74,
                    "time": 88.875,
                    "velocity": 0.7244094488188977,
                    "duration": 1.125
                },
                {
                    "name": "E5",
                    "midi": 76,
                    "time": 90,
                    "velocity": 0.7244094488188977,
                    "duration": 0.1875
                },
                {
                    "name": "D5",
                    "midi": 74,
                    "time": 90.1875,
                    "velocity": 0.7244094488188977,
                    "duration": 0.1796875
                },
                {
                    "name": "C5",
                    "midi": 72,
                    "time": 90.375,
                    "velocity": 0.7244094488188977,
                    "duration": 1.5
                },
                {
                    "name": "C#5",
                    "midi": 73,
                    "time": 91.875,
                    "velocity": 0.5905511811023622,
                    "duration": 0.3671875
                },
                {
                    "name": "A#5",
                    "midi": 82,
                    "time": 92.25,
                    "velocity": 0.5905511811023622,
                    "duration": 0.1875
                },
                {
                    "name": "G#5",
                    "midi": 80,
                    "time": 92.4375,
                    "velocity": 0.5905511811023622,
                    "duration": 0.1875
                },
                {
                    "name": "G5",
                    "midi": 79,
                    "time": 92.625,
                    "velocity": 0.5905511811023622,
                    "duration": 0.1875
                },
                {
                    "name": "F5",
                    "midi": 77,
                    "time": 92.8125,
                    "velocity": 0.5905511811023622,
                    "duration": 0.1875
                },
                {
                    "name": "D#5",
                    "midi": 75,
                    "time": 93,
                    "velocity": 0.5905511811023622,
                    "duration": 0.1875
                },
                {
                    "name": "C#5",
                    "midi": 73,
                    "time": 93.1875,
                    "velocity": 0.5905511811023622,
                    "duration": 0.1796875
                },
                {
                    "name": "C5",
                    "midi": 72,
                    "time": 93.375,
                    "velocity": 0.5905511811023622,
                    "duration": 1.5
                },
                {
                    "name": "C#5",
                    "midi": 73,
                    "time": 94.875,
                    "velocity": 0.5905511811023622,
                    "duration": 0.3671875
                },
                {
                    "name": "A#5",
                    "midi": 82,
                    "time": 95.25,
                    "velocity": 0.5905511811023622,
                    "duration": 0.1875
                },
                {
                    "name": "G#5",
                    "midi": 80,
                    "time": 95.4375,
                    "velocity": 0.5905511811023622,
                    "duration": 0.1875
                },
                {
                    "name": "G5",
                    "midi": 79,
                    "time": 95.625,
                    "velocity": 0.5905511811023622,
                    "duration": 0.1875
                },
                {
                    "name": "F5",
                    "midi": 77,
                    "time": 95.8125,
                    "velocity": 0.5905511811023622,
                    "duration": 0.1875
                },
                {
                    "name": "D#5",
                    "midi": 75,
                    "time": 96,
                    "velocity": 0.5905511811023622,
                    "duration": 0.1875
                },
                {
                    "name": "C#5",
                    "midi": 73,
                    "time": 96.1875,
                    "velocity": 0.5905511811023622,
                    "duration": 0.1796875
                },
                {
                    "name": "C5",
                    "midi": 72,
                    "time": 96.375,
                    "velocity": 0.5905511811023622,
                    "duration": 1.8671875
                },
                {
                    "name": "D#5",
                    "midi": 75,
                    "time": 98.25,
                    "velocity": 0.6692913385826772,
                    "duration": 0.375
                },
                {
                    "name": "D5",
                    "midi": 74,
                    "time": 98.625,
                    "velocity": 0.6850393700787402,
                    "duration": 0.375
                },
                {
                    "name": "C5",
                    "midi": 72,
                    "time": 99,
                    "velocity": 0.7007874015748031,
                    "duration": 0.3671875
                },
                {
                    "name": "B4",
                    "midi": 71,
                    "time": 99.375,
                    "velocity": 0.7244094488188977,
                    "duration": 0.3671875
                },
                {
                    "name": "C5",
                    "midi": 72,
                    "time": 100.125,
                    "velocity": 0.7244094488188977,
                    "duration": 0.3671875
                },
                {
                    "name": "A5",
                    "midi": 81,
                    "time": 100.875,
                    "velocity": 0.7244094488188977,
                    "duration": 0.3671875
                },
                {
                    "name": "B5",
                    "midi": 83,
                    "time": 101.625,
                    "velocity": 0.7244094488188977,
                    "duration": 0.3671875
                },
                {
                    "name": "C6",
                    "midi": 84,
                    "time": 102.375,
                    "velocity": 0.7244094488188977,
                    "duration": 1
                },
                {
                    "name": "G5",
                    "midi": 79,
                    "time": 103.5,
                    "velocity": 0.7244094488188977,
                    "duration": 0.1875
                },
                {
                    "name": "E5",
                    "midi": 76,
                    "time": 103.6875,
                    "velocity": 0.7244094488188977,
                    "duration": 0.1875
                },
                {
                    "name": "D5",
                    "midi": 74,
                    "time": 103.875,
                    "velocity": 0.7244094488188977,
                    "duration": 0.3671875
                },
                {
                    "name": "B5",
                    "midi": 83,
                    "time": 104.25,
                    "velocity": 0.7244094488188977,
                    "duration": 0.1875
                },
                {
                    "name": "A5",
                    "midi": 81,
                    "time": 104.4375,
                    "velocity": 0.7244094488188977,
                    "duration": 0.1875
                },
                {
                    "name": "G5",
                    "midi": 79,
                    "time": 104.625,
                    "velocity": 0.7244094488188977,
                    "duration": 0.1875
                },
                {
                    "name": "F5",
                    "midi": 77,
                    "time": 104.8125,
                    "velocity": 0.7244094488188977,
                    "duration": 0.1875
                },
                {
                    "name": "E5",
                    "midi": 76,
                    "time": 105,
                    "velocity": 0.7244094488188977,
                    "duration": 0.1875
                },
                {
                    "name": "D5",
                    "midi": 74,
                    "time": 105.1875,
                    "velocity": 0.7244094488188977,
                    "duration": 0.1875
                },
                {
                    "name": "C5",
                    "midi": 72,
                    "time": 105.375,
                    "velocity": 0.7244094488188977,
                    "duration": 1
                },
                {
                    "name": "G5",
                    "midi": 79,
                    "time": 106.5,
                    "velocity": 0.5905511811023622,
                    "duration": 0.1875
                },
                {
                    "name": "E5",
                    "midi": 76,
                    "time": 106.6875,
                    "velocity": 0.5905511811023622,
                    "duration": 0.1875
                },
                {
                    "name": "D5",
                    "midi": 74,
                    "time": 106.875,
                    "velocity": 0.5905511811023622,
                    "duration": 0.3671875
                },
                {
                    "name": "B5",
                    "midi": 83,
                    "time": 107.25,
                    "velocity": 0.5905511811023622,
                    "duration": 0.1875
                },
                {
                    "name": "A5",
                    "midi": 81,
                    "time": 107.4375,
                    "velocity": 0.5905511811023622,
                    "duration": 0.1875
                },
                {
                    "name": "G5",
                    "midi": 79,
                    "time": 107.625,
                    "velocity": 0.5905511811023622,
                    "duration": 0.1875
                },
                {
                    "name": "F5",
                    "midi": 77,
                    "time": 107.8125,
                    "velocity": 0.5905511811023622,
                    "duration": 0.1875
                },
                {
                    "name": "E5",
                    "midi": 76,
                    "time": 108,
                    "velocity": 0.5905511811023622,
                    "duration": 0.1875
                },
                {
                    "name": "D5",
                    "midi": 74,
                    "time": 108.1875,
                    "velocity": 0.5905511811023622,
                    "duration": 0.1875
                },
                {
                    "name": "C5",
                    "midi": 72,
                    "time": 108.375,
                    "velocity": 0.5905511811023622,
                    "duration": 0.3671875
                },
                {
                    "name": "A5",
                    "midi": 81,
                    "time": 108.75,
                    "velocity": 0.5905511811023622,
                    "duration": 0.1875
                },
                {
                    "name": "G5",
                    "midi": 79,
                    "time": 108.9375,
                    "velocity": 0.5905511811023622,
                    "duration": 0.1875
                },
                {
                    "name": "F5",
                    "midi": 77,
                    "time": 109.125,
                    "velocity": 0.5905511811023622,
                    "duration": 0.1875
                },
                {
                    "name": "E5",
                    "midi": 76,
                    "time": 109.3125,
                    "velocity": 0.5905511811023622,
                    "duration": 0.1875
                },
                {
                    "name": "D5",
                    "midi": 74,
                    "time": 109.5,
                    "velocity": 0.5905511811023622,
                    "duration": 0.1875
                },
                {
                    "name": "C5",
                    "midi": 72,
                    "time": 109.6875,
                    "velocity": 0.5905511811023622,
                    "duration": 0.1875
                },
                {
                    "name": "B4",
                    "midi": 71,
                    "time": 109.875,
                    "velocity": 0.5905511811023622,
                    "duration": 0.3671875
                },
                {
                    "name": "B5",
                    "midi": 83,
                    "time": 110.25,
                    "velocity": 0.5905511811023622,
                    "duration": 0.1875
                },
                {
                    "name": "A5",
                    "midi": 81,
                    "time": 110.4375,
                    "velocity": 0.5905511811023622,
                    "duration": 0.1875
                },
                {
                    "name": "G5",
                    "midi": 79,
                    "time": 110.625,
                    "velocity": 0.5905511811023622,
                    "duration": 0.1875
                },
                {
                    "name": "F5",
                    "midi": 77,
                    "time": 110.8125,
                    "velocity": 0.5905511811023622,
                    "duration": 0.1875
                },
                {
                    "name": "E5",
                    "midi": 76,
                    "time": 111,
                    "velocity": 0.5905511811023622,
                    "duration": 0.1875
                },
                {
                    "name": "D5",
                    "midi": 74,
                    "time": 111.1875,
                    "velocity": 0.5905511811023622,
                    "duration": 0.1875
                },
                {
                    "name": "C5",
                    "midi": 72,
                    "time": 111.375,
                    "velocity": 0.5905511811023622,
                    "duration": 0.3671875
                },
                {
                    "name": "A5",
                    "midi": 81,
                    "time": 111.75,
                    "velocity": 0.6062992125984252,
                    "duration": 0.1875
                },
                {
                    "name": "G5",
                    "midi": 79,
                    "time": 111.9375,
                    "velocity": 0.6141732283464567,
                    "duration": 0.1875
                },
                {
                    "name": "F5",
                    "midi": 77,
                    "time": 112.125,
                    "velocity": 0.6220472440944882,
                    "duration": 0.1875
                },
                {
                    "name": "E5",
                    "midi": 76,
                    "time": 112.3125,
                    "velocity": 0.6299212598425197,
                    "duration": 0.1875
                },
                {
                    "name": "D5",
                    "midi": 74,
                    "time": 112.5,
                    "velocity": 0.6377952755905512,
                    "duration": 0.1875
                },
                {
                    "name": "C5",
                    "midi": 72,
                    "time": 112.6875,
                    "velocity": 0.6456692913385826,
                    "duration": 0.1875
                },
                {
                    "name": "B4",
                    "midi": 71,
                    "time": 112.875,
                    "velocity": 0.6535433070866141,
                    "duration": 0.3671875
                },
                {
                    "name": "B5",
                    "midi": 83,
                    "time": 113.25,
                    "velocity": 0.6692913385826772,
                    "duration": 0.1875
                },
                {
                    "name": "A5",
                    "midi": 81,
                    "time": 113.4375,
                    "velocity": 0.6771653543307087,
                    "duration": 0.1875
                },
                {
                    "name": "G5",
                    "midi": 79,
                    "time": 113.625,
                    "velocity": 0.6850393700787402,
                    "duration": 0.1875
                },
                {
                    "name": "F5",
                    "midi": 77,
                    "time": 113.8125,
                    "velocity": 0.6929133858267716,
                    "duration": 0.1875
                },
                {
                    "name": "E5",
                    "midi": 76,
                    "time": 114,
                    "velocity": 0.7007874015748031,
                    "duration": 0.1875
                },
                {
                    "name": "D5",
                    "midi": 74,
                    "time": 114.1875,
                    "velocity": 0.7086614173228346,
                    "duration": 0.1875
                },
                {
                    "name": "C5",
                    "midi": 72,
                    "time": 114.375,
                    "velocity": 0.7244094488188977,
                    "duration": 0.3671875
                },
                {
                    "name": "B4",
                    "midi": 71,
                    "time": 115.125,
                    "velocity": 0.7244094488188977,
                    "duration": 0.3671875
                },
                {
                    "name": "C5",
                    "midi": 72,
                    "time": 115.875,
                    "velocity": 0.7244094488188977,
                    "duration": 0.3671875
                },
                {
                    "name": "B4",
                    "midi": 71,
                    "time": 116.625,
                    "velocity": 0.7244094488188977,
                    "duration": 0.3671875
                },
                {
                    "name": "C6",
                    "midi": 84,
                    "time": 117.375,
                    "velocity": 0.7244094488188977,
                    "duration": 0.3671875
                },
                {
                    "name": "B5",
                    "midi": 83,
                    "time": 118.125,
                    "velocity": 0.7559055118110236,
                    "duration": 0.3671875
                },
                {
                    "name": "C6",
                    "midi": 84,
                    "time": 118.875,
                    "velocity": 0.7874015748031497,
                    "duration": 0.3671875
                },
                {
                    "name": "B5",
                    "midi": 83,
                    "time": 119.625,
                    "velocity": 0.8188976377952756,
                    "duration": 0.3671875
                },
                {
                    "name": "C6",
                    "midi": 84,
                    "time": 120.375,
                    "velocity": 0.8503937007874016,
                    "duration": 0.625
                },
                {
                    "name": "C5",
                    "midi": 72,
                    "time": 121.875,
                    "velocity": 0.8503937007874016,
                    "duration": 1
                },
                {
                    "name": "E5",
                    "midi": 76,
                    "time": 121.875,
                    "velocity": 0.8503937007874016,
                    "duration": 1
                },
                {
                    "name": "C5",
                    "midi": 72,
                    "time": 123.1875,
                    "velocity": 0.8503937007874016,
                    "duration": 0.1796875
                },
                {
                    "name": "E5",
                    "midi": 76,
                    "time": 123.1875,
                    "velocity": 0.8503937007874016,
                    "duration": 0.1796875
                },
                {
                    "name": "C5",
                    "midi": 72,
                    "time": 123.375,
                    "velocity": 0.8503937007874016,
                    "duration": 1.5
                },
                {
                    "name": "E5",
                    "midi": 76,
                    "time": 123.375,
                    "velocity": 0.8503937007874016,
                    "duration": 1.5
                }
            ],
            "controlChanges": {
                "7": [
                    {
                        "number": 7,
                        "time": 0,
                        "value": 1
                    }
                ],
                "10": [
                    {
                        "number": 10,
                        "time": 0,
                        "value": 0.5039370078740157
                    }
                ]
            },
            "id": 1,
            "name": "Arco (RH)",
            "instrumentNumber": 40,
            "instrument": "violin",
            "instrumentFamily": "strings",
            "channelNumber": 0,
            "isPercussion": false
        },
        {
            "startTime": 0,
            "duration": 125.625,
            "length": 391,
            "notes": [
                {
                    "name": "G3",
                    "midi": 55,
                    "time": 0,
                    "velocity": 0.7244094488188977,
                    "duration": 0.3671875
                },
                {
                    "name": "E4",
                    "midi": 64,
                    "time": 0,
                    "velocity": 0.7244094488188977,
                    "duration": 0.3671875
                },
                {
                    "name": "G3",
                    "midi": 55,
                    "time": 0.75,
                    "velocity": 0.7244094488188977,
                    "duration": 0.3671875
                },
                {
                    "name": "E4",
                    "midi": 64,
                    "time": 0.75,
                    "velocity": 0.7244094488188977,
                    "duration": 0.3671875
                },
                {
                    "name": "C4",
                    "midi": 60,
                    "time": 1.5,
                    "velocity": 0.7244094488188977,
                    "duration": 0.5546875
                },
                {
                    "name": "G4",
                    "midi": 67,
                    "time": 1.5,
                    "velocity": 0.7244094488188977,
                    "duration": 0.5546875
                },
                {
                    "name": "A3",
                    "midi": 57,
                    "time": 2.15625,
                    "velocity": 0.7244094488188977,
                    "duration": 0.0859375
                },
                {
                    "name": "D4",
                    "midi": 62,
                    "time": 2.15625,
                    "velocity": 0.7244094488188977,
                    "duration": 0.0859375
                },
                {
                    "name": "G3",
                    "midi": 55,
                    "time": 2.25,
                    "velocity": 0.7244094488188977,
                    "duration": 0.625
                },
                {
                    "name": "D4",
                    "midi": 62,
                    "time": 2.25,
                    "velocity": 0.7244094488188977,
                    "duration": 0.625
                },
                {
                    "name": "G3",
                    "midi": 55,
                    "time": 4.5,
                    "velocity": 0.7244094488188977,
                    "duration": 0.1796875
                },
                {
                    "name": "B3",
                    "midi": 59,
                    "time": 4.6875,
                    "velocity": 0.7244094488188977,
                    "duration": 0.1796875
                },
                {
                    "name": "F4",
                    "midi": 65,
                    "time": 4.6875,
                    "velocity": 0.7244094488188977,
                    "duration": 0.1796875
                },
                {
                    "name": "D4",
                    "midi": 62,
                    "time": 4.875,
                    "velocity": 0.7244094488188977,
                    "duration": 0.1796875
                },
                {
                    "name": "B3",
                    "midi": 59,
                    "time": 5.0625,
                    "velocity": 0.7244094488188977,
                    "duration": 0.1796875
                },
                {
                    "name": "F4",
                    "midi": 65,
                    "time": 5.0625,
                    "velocity": 0.7244094488188977,
                    "duration": 0.1796875
                },
                {
                    "name": "G3",
                    "midi": 55,
                    "time": 5.25,
                    "velocity": 0.7244094488188977,
                    "duration": 0.1796875
                },
                {
                    "name": "B3",
                    "midi": 59,
                    "time": 5.4375,
                    "velocity": 0.7244094488188977,
                    "duration": 0.1796875
                },
                {
                    "name": "F4",
                    "midi": 65,
                    "time": 5.4375,
                    "velocity": 0.7244094488188977,
                    "duration": 0.1796875
                },
                {
                    "name": "D4",
                    "midi": 62,
                    "time": 5.625,
                    "velocity": 0.7244094488188977,
                    "duration": 0.3671875
                },
                {
                    "name": "G3",
                    "midi": 55,
                    "time": 6,
                    "velocity": 0.7244094488188977,
                    "duration": 0.3671875
                },
                {
                    "name": "G3",
                    "midi": 55,
                    "time": 6.75,
                    "velocity": 0.7244094488188977,
                    "duration": 0.1796875
                },
                {
                    "name": "C4",
                    "midi": 60,
                    "time": 6.9375,
                    "velocity": 0.7244094488188977,
                    "duration": 0.1796875
                },
                {
                    "name": "G4",
                    "midi": 67,
                    "time": 6.9375,
                    "velocity": 0.7244094488188977,
                    "duration": 0.1796875
                },
                {
                    "name": "E4",
                    "midi": 64,
                    "time": 7.125,
                    "velocity": 0.7244094488188977,
                    "duration": 0.1796875
                },
                {
                    "name": "C4",
                    "midi": 60,
                    "time": 7.3125,
                    "velocity": 0.7244094488188977,
                    "duration": 0.1796875
                },
                {
                    "name": "G4",
                    "midi": 67,
                    "time": 7.3125,
                    "velocity": 0.7244094488188977,
                    "duration": 0.1796875
                },
                {
                    "name": "G3",
                    "midi": 55,
                    "time": 7.5,
                    "velocity": 0.7244094488188977,
                    "duration": 0.1796875
                },
                {
                    "name": "C4",
                    "midi": 60,
                    "time": 7.6875,
                    "velocity": 0.7244094488188977,
                    "duration": 0.1796875
                },
                {
                    "name": "G4",
                    "midi": 67,
                    "time": 7.6875,
                    "velocity": 0.7244094488188977,
                    "duration": 0.1796875
                },
                {
                    "name": "E4",
                    "midi": 64,
                    "time": 7.875,
                    "velocity": 0.7244094488188977,
                    "duration": 0.3671875
                },
                {
                    "name": "G3",
                    "midi": 55,
                    "time": 8.25,
                    "velocity": 0.7244094488188977,
                    "duration": 0.3671875
                },
                {
                    "name": "B3",
                    "midi": 59,
                    "time": 9,
                    "velocity": 0.7244094488188977,
                    "duration": 0.1796875
                },
                {
                    "name": "F#4",
                    "midi": 66,
                    "time": 9,
                    "velocity": 0.7244094488188977,
                    "duration": 0.1796875
                },
                {
                    "name": "G3",
                    "midi": 55,
                    "time": 9.1875,
                    "velocity": 0.7244094488188977,
                    "duration": 0.1796875
                },
                {
                    "name": "B3",
                    "midi": 59,
                    "time": 9.375,
                    "velocity": 0.7244094488188977,
                    "duration": 0.1796875
                },
                {
                    "name": "F#4",
                    "midi": 66,
                    "time": 9.375,
                    "velocity": 0.7244094488188977,
                    "duration": 0.1796875
                },
                {
                    "name": "G3",
                    "midi": 55,
                    "time": 9.5625,
                    "velocity": 0.7244094488188977,
                    "duration": 0.1796875
                },
                {
                    "name": "C4",
                    "midi": 60,
                    "time": 9.75,
                    "velocity": 0.7244094488188977,
                    "duration": 0.1796875
                },
                {
                    "name": "G4",
                    "midi": 67,
                    "time": 9.75,
                    "velocity": 0.7244094488188977,
                    "duration": 0.1796875
                },
                {
                    "name": "G3",
                    "midi": 55,
                    "time": 9.9375,
                    "velocity": 0.7244094488188977,
                    "duration": 0.1796875
                },
                {
                    "name": "C4",
                    "midi": 60,
                    "time": 10.125,
                    "velocity": 0.7244094488188977,
                    "duration": 0.1796875
                },
                {
                    "name": "G4",
                    "midi": 67,
                    "time": 10.125,
                    "velocity": 0.7244094488188977,
                    "duration": 0.1796875
                },
                {
                    "name": "C#4",
                    "midi": 61,
                    "time": 10.3125,
                    "velocity": 0.7244094488188977,
                    "duration": 0.1796875
                },
                {
                    "name": "G#4",
                    "midi": 68,
                    "time": 10.3125,
                    "velocity": 0.7244094488188977,
                    "duration": 0.1796875
                },
                {
                    "name": "E4",
                    "midi": 64,
                    "time": 10.5,
                    "velocity": 0.7244094488188977,
                    "duration": 0.1796875
                },
                {
                    "name": "B4",
                    "midi": 71,
                    "time": 10.5,
                    "velocity": 0.7244094488188977,
                    "duration": 0.1796875
                },
                {
                    "name": "D#4",
                    "midi": 63,
                    "time": 10.6875,
                    "velocity": 0.7244094488188977,
                    "duration": 0.1796875
                },
                {
                    "name": "A#4",
                    "midi": 70,
                    "time": 10.6875,
                    "velocity": 0.7244094488188977,
                    "duration": 0.1796875
                },
                {
                    "name": "D4",
                    "midi": 62,
                    "time": 10.875,
                    "velocity": 0.7244094488188977,
                    "duration": 0.1796875
                },
                {
                    "name": "A#4",
                    "midi": 70,
                    "time": 10.875,
                    "velocity": 0.7244094488188977,
                    "duration": 0.1796875
                },
                {
                    "name": "C4",
                    "midi": 60,
                    "time": 11.0625,
                    "velocity": 0.7244094488188977,
                    "duration": 0.1796875
                },
                {
                    "name": "G4",
                    "midi": 67,
                    "time": 11.0625,
                    "velocity": 0.7244094488188977,
                    "duration": 0.1796875
                },
                {
                    "name": "B3",
                    "midi": 59,
                    "time": 11.25,
                    "velocity": 0.7244094488188977,
                    "duration": 0.1796875
                },
                {
                    "name": "F#4",
                    "midi": 66,
                    "time": 11.25,
                    "velocity": 0.7244094488188977,
                    "duration": 0.1796875
                },
                {
                    "name": "D4",
                    "midi": 62,
                    "time": 11.4375,
                    "velocity": 0.7244094488188977,
                    "duration": 0.1796875
                },
                {
                    "name": "G4",
                    "midi": 67,
                    "time": 11.625,
                    "velocity": 0.7244094488188977,
                    "duration": 0.1796875
                },
                {
                    "name": "D4",
                    "midi": 62,
                    "time": 11.8125,
                    "velocity": 0.7244094488188977,
                    "duration": 0.1796875
                },
                {
                    "name": "B3",
                    "midi": 59,
                    "time": 12,
                    "velocity": 0.7244094488188977,
                    "duration": 0.3671875
                },
                {
                    "name": "C4",
                    "midi": 60,
                    "time": 13.5,
                    "velocity": 0.7244094488188977,
                    "duration": 0.1796875
                },
                {
                    "name": "G4",
                    "midi": 67,
                    "time": 13.5,
                    "velocity": 0.7244094488188977,
                    "duration": 0.1796875
                },
                {
                    "name": "F#4",
                    "midi": 66,
                    "time": 13.6875,
                    "velocity": 0.7244094488188977,
                    "duration": 0.1796875
                },
                {
                    "name": "A4",
                    "midi": 69,
                    "time": 13.875,
                    "velocity": 0.7244094488188977,
                    "duration": 0.1796875
                },
                {
                    "name": "F#4",
                    "midi": 66,
                    "time": 14.0625,
                    "velocity": 0.7244094488188977,
                    "duration": 0.1796875
                },
                {
                    "name": "C4",
                    "midi": 60,
                    "time": 14.25,
                    "velocity": 0.7244094488188977,
                    "duration": 0.3671875
                },
                {
                    "name": "G4",
                    "midi": 67,
                    "time": 14.25,
                    "velocity": 0.7244094488188977,
                    "duration": 0.3671875
                },
                {
                    "name": "B3",
                    "midi": 59,
                    "time": 15.75,
                    "velocity": 0.7244094488188977,
                    "duration": 0.3671875
                },
                {
                    "name": "F#4",
                    "midi": 66,
                    "time": 15.75,
                    "velocity": 0.7244094488188977,
                    "duration": 0.3671875
                },
                {
                    "name": "B3",
                    "midi": 59,
                    "time": 16.125,
                    "velocity": 0.7244094488188977,
                    "duration": 0.3671875
                },
                {
                    "name": "C4",
                    "midi": 60,
                    "time": 16.5,
                    "velocity": 0.7244094488188977,
                    "duration": 0.3671875
                },
                {
                    "name": "G4",
                    "midi": 67,
                    "time": 16.5,
                    "velocity": 0.7244094488188977,
                    "duration": 0.3671875
                },
                {
                    "name": "C#4",
                    "midi": 61,
                    "time": 16.875,
                    "velocity": 0.7244094488188977,
                    "duration": 0.3671875
                },
                {
                    "name": "G#4",
                    "midi": 68,
                    "time": 16.875,
                    "velocity": 0.7244094488188977,
                    "duration": 0.3671875
                },
                {
                    "name": "D4",
                    "midi": 62,
                    "time": 17.25,
                    "velocity": 0.7244094488188977,
                    "duration": 0.3671875
                },
                {
                    "name": "F#4",
                    "midi": 66,
                    "time": 17.625,
                    "velocity": 0.7244094488188977,
                    "duration": 0.3671875
                },
                {
                    "name": "C#5",
                    "midi": 73,
                    "time": 17.625,
                    "velocity": 0.7244094488188977,
                    "duration": 0.3671875
                },
                {
                    "name": "G4",
                    "midi": 67,
                    "time": 18,
                    "velocity": 0.7244094488188977,
                    "duration": 0.3671875
                },
                {
                    "name": "D5",
                    "midi": 74,
                    "time": 18,
                    "velocity": 0.7244094488188977,
                    "duration": 0.3671875
                },
                {
                    "name": "F#4",
                    "midi": 66,
                    "time": 18.375,
                    "velocity": 0.7244094488188977,
                    "duration": 0.3671875
                },
                {
                    "name": "D5",
                    "midi": 74,
                    "time": 18.375,
                    "velocity": 0.7244094488188977,
                    "duration": 0.3671875
                },
                {
                    "name": "E4",
                    "midi": 64,
                    "time": 18.75,
                    "velocity": 0.7244094488188977,
                    "duration": 0.3671875
                },
                {
                    "name": "B4",
                    "midi": 71,
                    "time": 18.75,
                    "velocity": 0.7244094488188977,
                    "duration": 0.3671875
                },
                {
                    "name": "D4",
                    "midi": 62,
                    "time": 19.125,
                    "velocity": 0.7244094488188977,
                    "duration": 0.3671875
                },
                {
                    "name": "B4",
                    "midi": 71,
                    "time": 19.125,
                    "velocity": 0.7244094488188977,
                    "duration": 0.3671875
                },
                {
                    "name": "C4",
                    "midi": 60,
                    "time": 19.5,
                    "velocity": 0.7244094488188977,
                    "duration": 0.3671875
                },
                {
                    "name": "G4",
                    "midi": 67,
                    "time": 19.5,
                    "velocity": 0.7244094488188977,
                    "duration": 0.3671875
                },
                {
                    "name": "B3",
                    "midi": 59,
                    "time": 19.875,
                    "velocity": 0.7244094488188977,
                    "duration": 0.3671875
                },
                {
                    "name": "A4",
                    "midi": 69,
                    "time": 19.875,
                    "velocity": 0.7244094488188977,
                    "duration": 0.3671875
                },
                {
                    "name": "C4",
                    "midi": 60,
                    "time": 20.25,
                    "velocity": 0.7244094488188977,
                    "duration": 0.3671875
                },
                {
                    "name": "G4",
                    "midi": 67,
                    "time": 20.25,
                    "velocity": 0.7244094488188977,
                    "duration": 0.3671875
                },
                {
                    "name": "D4",
                    "midi": 62,
                    "time": 21,
                    "velocity": 0.7244094488188977,
                    "duration": 0.1796875
                },
                {
                    "name": "G4",
                    "midi": 67,
                    "time": 21.1875,
                    "velocity": 0.7244094488188977,
                    "duration": 0.1796875
                },
                {
                    "name": "B4",
                    "midi": 71,
                    "time": 21.375,
                    "velocity": 0.7244094488188977,
                    "duration": 0.1796875
                },
                {
                    "name": "G4",
                    "midi": 67,
                    "time": 21.5625,
                    "velocity": 0.7244094488188977,
                    "duration": 0.1796875
                },
                {
                    "name": "D4",
                    "midi": 62,
                    "time": 21.75,
                    "velocity": 0.7244094488188977,
                    "duration": 0.1796875
                },
                {
                    "name": "F#4",
                    "midi": 66,
                    "time": 21.9375,
                    "velocity": 0.7244094488188977,
                    "duration": 0.1796875
                },
                {
                    "name": "C#5",
                    "midi": 73,
                    "time": 21.9375,
                    "velocity": 0.7244094488188977,
                    "duration": 0.1796875
                },
                {
                    "name": "A4",
                    "midi": 69,
                    "time": 22.125,
                    "velocity": 0.7244094488188977,
                    "duration": 0.1796875
                },
                {
                    "name": "D5",
                    "midi": 74,
                    "time": 22.3125,
                    "velocity": 0.7244094488188977,
                    "duration": 0.1796875
                },
                {
                    "name": "G3",
                    "midi": 55,
                    "time": 22.5,
                    "velocity": 0.7244094488188977,
                    "duration": 0.3671875
                },
                {
                    "name": "G3",
                    "midi": 55,
                    "time": 23.25,
                    "velocity": 0.7244094488188977,
                    "duration": 0.0859375
                },
                {
                    "name": "B3",
                    "midi": 59,
                    "time": 23.34375,
                    "velocity": 0.7244094488188977,
                    "duration": 0.0859375
                },
                {
                    "name": "F#4",
                    "midi": 66,
                    "time": 23.34375,
                    "velocity": 0.7244094488188977,
                    "duration": 0.0859375
                },
                {
                    "name": "D4",
                    "midi": 62,
                    "time": 23.4375,
                    "velocity": 0.7244094488188977,
                    "duration": 0.0859375
                },
                {
                    "name": "B3",
                    "midi": 59,
                    "time": 23.53125,
                    "velocity": 0.7244094488188977,
                    "duration": 0.0859375
                },
                {
                    "name": "F#4",
                    "midi": 66,
                    "time": 23.53125,
                    "velocity": 0.7244094488188977,
                    "duration": 0.0859375
                },
                {
                    "name": "G3",
                    "midi": 55,
                    "time": 23.625,
                    "velocity": 0.7244094488188977,
                    "duration": 0.0859375
                },
                {
                    "name": "B3",
                    "midi": 59,
                    "time": 23.71875,
                    "velocity": 0.7244094488188977,
                    "duration": 0.0859375
                },
                {
                    "name": "F#4",
                    "midi": 66,
                    "time": 23.71875,
                    "velocity": 0.7244094488188977,
                    "duration": 0.0859375
                },
                {
                    "name": "D4",
                    "midi": 62,
                    "time": 23.8125,
                    "velocity": 0.7244094488188977,
                    "duration": 0.0859375
                },
                {
                    "name": "B3",
                    "midi": 59,
                    "time": 23.90625,
                    "velocity": 0.7244094488188977,
                    "duration": 0.0859375
                },
                {
                    "name": "F#4",
                    "midi": 66,
                    "time": 23.90625,
                    "velocity": 0.7244094488188977,
                    "duration": 0.0859375
                },
                {
                    "name": "G3",
                    "midi": 55,
                    "time": 24,
                    "velocity": 0.7244094488188977,
                    "duration": 0.3671875
                },
                {
                    "name": "G3",
                    "midi": 55,
                    "time": 24.75,
                    "velocity": 0.7244094488188977,
                    "duration": 0.3671875
                },
                {
                    "name": "G3",
                    "midi": 55,
                    "time": 25.5,
                    "velocity": 0.7244094488188977,
                    "duration": 0.0859375
                },
                {
                    "name": "B3",
                    "midi": 59,
                    "time": 25.59375,
                    "velocity": 0.7244094488188977,
                    "duration": 0.0859375
                },
                {
                    "name": "F#4",
                    "midi": 66,
                    "time": 25.59375,
                    "velocity": 0.7244094488188977,
                    "duration": 0.0859375
                },
                {
                    "name": "D4",
                    "midi": 62,
                    "time": 25.6875,
                    "velocity": 0.7244094488188977,
                    "duration": 0.0859375
                },
                {
                    "name": "B3",
                    "midi": 59,
                    "time": 25.78125,
                    "velocity": 0.7244094488188977,
                    "duration": 0.0859375
                },
                {
                    "name": "F#4",
                    "midi": 66,
                    "time": 25.78125,
                    "velocity": 0.7244094488188977,
                    "duration": 0.0859375
                },
                {
                    "name": "G3",
                    "midi": 55,
                    "time": 25.875,
                    "velocity": 0.7244094488188977,
                    "duration": 0.0859375
                },
                {
                    "name": "B3",
                    "midi": 59,
                    "time": 25.96875,
                    "velocity": 0.7244094488188977,
                    "duration": 0.0859375
                },
                {
                    "name": "F#4",
                    "midi": 66,
                    "time": 25.96875,
                    "velocity": 0.7244094488188977,
                    "duration": 0.0859375
                },
                {
                    "name": "D4",
                    "midi": 62,
                    "time": 26.0625,
                    "velocity": 0.7244094488188977,
                    "duration": 0.0859375
                },
                {
                    "name": "B3",
                    "midi": 59,
                    "time": 26.15625,
                    "velocity": 0.7244094488188977,
                    "duration": 0.0859375
                },
                {
                    "name": "F#4",
                    "midi": 66,
                    "time": 26.15625,
                    "velocity": 0.7244094488188977,
                    "duration": 0.0859375
                },
                {
                    "name": "G3",
                    "midi": 55,
                    "time": 26.25,
                    "velocity": 0.7244094488188977,
                    "duration": 0.3671875
                },
                {
                    "name": "C4",
                    "midi": 60,
                    "time": 27,
                    "velocity": 0.7244094488188977,
                    "duration": 0.3671875
                },
                {
                    "name": "G4",
                    "midi": 67,
                    "time": 27,
                    "velocity": 0.7244094488188977,
                    "duration": 0.3671875
                },
                {
                    "name": "E4",
                    "midi": 64,
                    "time": 27.375,
                    "velocity": 0.7244094488188977,
                    "duration": 0.3671875
                },
                {
                    "name": "B4",
                    "midi": 71,
                    "time": 27.375,
                    "velocity": 0.7244094488188977,
                    "duration": 0.3671875
                },
                {
                    "name": "C#4",
                    "midi": 61,
                    "time": 27.75,
                    "velocity": 0.7244094488188977,
                    "duration": 0.3671875
                },
                {
                    "name": "G#4",
                    "midi": 68,
                    "time": 27.75,
                    "velocity": 0.7244094488188977,
                    "duration": 0.3671875
                },
                {
                    "name": "D4",
                    "midi": 62,
                    "time": 28.125,
                    "velocity": 0.7244094488188977,
                    "duration": 0.3671875
                },
                {
                    "name": "B3",
                    "midi": 59,
                    "time": 28.5,
                    "velocity": 0.7244094488188977,
                    "duration": 0.3671875
                },
                {
                    "name": "F#4",
                    "midi": 66,
                    "time": 28.5,
                    "velocity": 0.7244094488188977,
                    "duration": 0.3671875
                },
                {
                    "name": "C4",
                    "midi": 60,
                    "time": 28.875,
                    "velocity": 0.7244094488188977,
                    "duration": 0.1796875
                },
                {
                    "name": "G4",
                    "midi": 67,
                    "time": 28.875,
                    "velocity": 0.7244094488188977,
                    "duration": 0.1796875
                },
                {
                    "name": "A3",
                    "midi": 57,
                    "time": 29.0625,
                    "velocity": 0.7244094488188977,
                    "duration": 0.1796875
                },
                {
                    "name": "E4",
                    "midi": 64,
                    "time": 29.0625,
                    "velocity": 0.7244094488188977,
                    "duration": 0.1796875
                },
                {
                    "name": "G3",
                    "midi": 55,
                    "time": 29.25,
                    "velocity": 0.7244094488188977,
                    "duration": 0.3671875
                },
                {
                    "name": "B3",
                    "midi": 59,
                    "time": 29.625,
                    "velocity": 0.7244094488188977,
                    "duration": 0.3671875
                },
                {
                    "name": "F#4",
                    "midi": 66,
                    "time": 29.625,
                    "velocity": 0.7244094488188977,
                    "duration": 0.3671875
                },
                {
                    "name": "C4",
                    "midi": 60,
                    "time": 30,
                    "velocity": 0.7244094488188977,
                    "duration": 0.3671875
                },
                {
                    "name": "G4",
                    "midi": 67,
                    "time": 30,
                    "velocity": 0.7244094488188977,
                    "duration": 0.3671875
                },
                {
                    "name": "C4",
                    "midi": 60,
                    "time": 30.5625,
                    "velocity": 0.7244094488188977,
                    "duration": 0.1796875
                },
                {
                    "name": "G4",
                    "midi": 67,
                    "time": 30.5625,
                    "velocity": 0.7244094488188977,
                    "duration": 0.1796875
                },
                {
                    "name": "E4",
                    "midi": 64,
                    "time": 30.75,
                    "velocity": 0.7244094488188977,
                    "duration": 0.1796875
                },
                {
                    "name": "B4",
                    "midi": 71,
                    "time": 30.75,
                    "velocity": 0.7244094488188977,
                    "duration": 0.1796875
                },
                {
                    "name": "D#4",
                    "midi": 63,
                    "time": 30.9375,
                    "velocity": 0.7244094488188977,
                    "duration": 0.1796875
                },
                {
                    "name": "A#4",
                    "midi": 70,
                    "time": 30.9375,
                    "velocity": 0.7244094488188977,
                    "duration": 0.1796875
                },
                {
                    "name": "D4",
                    "midi": 62,
                    "time": 31.125,
                    "velocity": 0.7244094488188977,
                    "duration": 0.1796875
                },
                {
                    "name": "C4",
                    "midi": 60,
                    "time": 31.3125,
                    "velocity": 0.7244094488188977,
                    "duration": 0.1796875
                },
                {
                    "name": "G4",
                    "midi": 67,
                    "time": 31.3125,
                    "velocity": 0.7244094488188977,
                    "duration": 0.1796875
                },
                {
                    "name": "B3",
                    "midi": 59,
                    "time": 31.5,
                    "velocity": 0.7244094488188977,
                    "duration": 0.0859375
                },
                {
                    "name": "F#4",
                    "midi": 66,
                    "time": 31.5,
                    "velocity": 0.7244094488188977,
                    "duration": 0.0859375
                },
                {
                    "name": "G3",
                    "midi": 55,
                    "time": 31.59375,
                    "velocity": 0.7244094488188977,
                    "duration": 0.0859375
                },
                {
                    "name": "B3",
                    "midi": 59,
                    "time": 31.6875,
                    "velocity": 0.7244094488188977,
                    "duration": 0.0859375
                },
                {
                    "name": "F#4",
                    "midi": 66,
                    "time": 31.6875,
                    "velocity": 0.7244094488188977,
                    "duration": 0.0859375
                },
                {
                    "name": "G3",
                    "midi": 55,
                    "time": 31.78125,
                    "velocity": 0.7244094488188977,
                    "duration": 0.0859375
                },
                {
                    "name": "B3",
                    "midi": 59,
                    "time": 31.875,
                    "velocity": 0.7244094488188977,
                    "duration": 0.0859375
                },
                {
                    "name": "F#4",
                    "midi": 66,
                    "time": 31.875,
                    "velocity": 0.7244094488188977,
                    "duration": 0.0859375
                },
                {
                    "name": "G3",
                    "midi": 55,
                    "time": 31.96875,
                    "velocity": 0.7244094488188977,
                    "duration": 0.0859375
                },
                {
                    "name": "C4",
                    "midi": 60,
                    "time": 32.0625,
                    "velocity": 0.7244094488188977,
                    "duration": 0.0859375
                },
                {
                    "name": "G4",
                    "midi": 67,
                    "time": 32.0625,
                    "velocity": 0.7244094488188977,
                    "duration": 0.0859375
                },
                {
                    "name": "G3",
                    "midi": 55,
                    "time": 32.15625,
                    "velocity": 0.7244094488188977,
                    "duration": 0.0859375
                },
                {
                    "name": "B3",
                    "midi": 59,
                    "time": 32.25,
                    "velocity": 0.7244094488188977,
                    "duration": 0.0859375
                },
                {
                    "name": "F#4",
                    "midi": 66,
                    "time": 32.25,
                    "velocity": 0.7244094488188977,
                    "duration": 0.0859375
                },
                {
                    "name": "G3",
                    "midi": 55,
                    "time": 32.34375,
                    "velocity": 0.7244094488188977,
                    "duration": 0.0859375
                },
                {
                    "name": "B3",
                    "midi": 59,
                    "time": 32.4375,
                    "velocity": 0.7244094488188977,
                    "duration": 0.0859375
                },
                {
                    "name": "F#4",
                    "midi": 66,
                    "time": 32.4375,
                    "velocity": 0.7244094488188977,
                    "duration": 0.0859375
                },
                {
                    "name": "G3",
                    "midi": 55,
                    "time": 32.53125,
                    "velocity": 0.7244094488188977,
                    "duration": 0.0859375
                },
                {
                    "name": "C4",
                    "midi": 60,
                    "time": 32.625,
                    "velocity": 0.7244094488188977,
                    "duration": 0.0859375
                },
                {
                    "name": "G4",
                    "midi": 67,
                    "time": 32.625,
                    "velocity": 0.7244094488188977,
                    "duration": 0.0859375
                },
                {
                    "name": "G3",
                    "midi": 55,
                    "time": 32.71875,
                    "velocity": 0.7244094488188977,
                    "duration": 0.0859375
                },
                {
                    "name": "C4",
                    "midi": 60,
                    "time": 32.8125,
                    "velocity": 0.7244094488188977,
                    "duration": 0.0859375
                },
                {
                    "name": "G4",
                    "midi": 67,
                    "time": 32.8125,
                    "velocity": 0.7244094488188977,
                    "duration": 0.0859375
                },
                {
                    "name": "G3",
                    "midi": 55,
                    "time": 32.90625,
                    "velocity": 0.7244094488188977,
                    "duration": 0.0859375
                },
                {
                    "name": "E4",
                    "midi": 64,
                    "time": 33,
                    "velocity": 0.7244094488188977,
                    "duration": 0.0859375
                },
                {
                    "name": "B4",
                    "midi": 71,
                    "time": 33,
                    "velocity": 0.7244094488188977,
                    "duration": 0.0859375
                },
                {
                    "name": "G3",
                    "midi": 55,
                    "time": 33.09375,
                    "velocity": 0.7244094488188977,
                    "duration": 0.0859375
                },
                {
                    "name": "D#4",
                    "midi": 63,
                    "time": 33.1875,
                    "velocity": 0.7244094488188977,
                    "duration": 0.0859375
                },
                {
                    "name": "A#4",
                    "midi": 70,
                    "time": 33.1875,
                    "velocity": 0.7244094488188977,
                    "duration": 0.0859375
                },
                {
                    "name": "G3",
                    "midi": 55,
                    "time": 33.28125,
                    "velocity": 0.7244094488188977,
                    "duration": 0.0859375
                },
                {
                    "name": "D4",
                    "midi": 62,
                    "time": 33.375,
                    "velocity": 0.7244094488188977,
                    "duration": 0.0859375
                },
                {
                    "name": "G3",
                    "midi": 55,
                    "time": 33.46875,
                    "velocity": 0.7244094488188977,
                    "duration": 0.0859375
                },
                {
                    "name": "C4",
                    "midi": 60,
                    "time": 33.5625,
                    "velocity": 0.7244094488188977,
                    "duration": 0.0859375
                },
                {
                    "name": "G4",
                    "midi": 67,
                    "time": 33.5625,
                    "velocity": 0.7244094488188977,
                    "duration": 0.0859375
                },
                {
                    "name": "G3",
                    "midi": 55,
                    "time": 33.65625,
                    "velocity": 0.7244094488188977,
                    "duration": 0.0859375
                },
                {
                    "name": "B3",
                    "midi": 59,
                    "time": 33.75,
                    "velocity": 0.7244094488188977,
                    "duration": 0.625
                },
                {
                    "name": "B4",
                    "midi": 71,
                    "time": 33.75,
                    "velocity": 0.7244094488188977,
                    "duration": 0.625
                },
                {
                    "name": "G3",
                    "midi": 55,
                    "time": 36.75,
                    "velocity": 0.7244094488188977,
                    "duration": 0.3671875
                },
                {
                    "name": "E4",
                    "midi": 64,
                    "time": 36.75,
                    "velocity": 0.7244094488188977,
                    "duration": 0.3671875
                },
                {
                    "name": "G3",
                    "midi": 55,
                    "time": 37.125,
                    "velocity": 0.7244094488188977,
                    "duration": 0.3671875
                },
                {
                    "name": "E4",
                    "midi": 64,
                    "time": 37.125,
                    "velocity": 0.7244094488188977,
                    "duration": 0.3671875
                },
                {
                    "name": "G3",
                    "midi": 55,
                    "time": 37.5,
                    "velocity": 0.7244094488188977,
                    "duration": 0.3671875
                },
                {
                    "name": "E4",
                    "midi": 64,
                    "time": 37.5,
                    "velocity": 0.7244094488188977,
                    "duration": 0.3671875
                },
                {
                    "name": "G3",
                    "midi": 55,
                    "time": 37.875,
                    "velocity": 0.7244094488188977,
                    "duration": 0.3671875
                },
                {
                    "name": "E4",
                    "midi": 64,
                    "time": 37.875,
                    "velocity": 0.7244094488188977,
                    "duration": 0.3671875
                },
                {
                    "name": "G3",
                    "midi": 55,
                    "time": 39.75,
                    "velocity": 0.7244094488188977,
                    "duration": 0.3671875
                },
                {
                    "name": "F4",
                    "midi": 65,
                    "time": 39.75,
                    "velocity": 0.7244094488188977,
                    "duration": 0.3671875
                },
                {
                    "name": "G3",
                    "midi": 55,
                    "time": 40.125,
                    "velocity": 0.7244094488188977,
                    "duration": 0.3671875
                },
                {
                    "name": "F4",
                    "midi": 65,
                    "time": 40.125,
                    "velocity": 0.7244094488188977,
                    "duration": 0.3671875
                },
                {
                    "name": "G3",
                    "midi": 55,
                    "time": 40.5,
                    "velocity": 0.7244094488188977,
                    "duration": 0.3671875
                },
                {
                    "name": "F4",
                    "midi": 65,
                    "time": 40.5,
                    "velocity": 0.7244094488188977,
                    "duration": 0.3671875
                },
                {
                    "name": "G3",
                    "midi": 55,
                    "time": 40.875,
                    "velocity": 0.7244094488188977,
                    "duration": 0.3671875
                },
                {
                    "name": "F4",
                    "midi": 65,
                    "time": 40.875,
                    "velocity": 0.7244094488188977,
                    "duration": 0.3671875
                },
                {
                    "name": "G3",
                    "midi": 55,
                    "time": 42.75,
                    "velocity": 0.7244094488188977,
                    "duration": 0.3671875
                },
                {
                    "name": "F4",
                    "midi": 65,
                    "time": 42.75,
                    "velocity": 0.7244094488188977,
                    "duration": 0.3671875
                },
                {
                    "name": "G3",
                    "midi": 55,
                    "time": 43.125,
                    "velocity": 0.7244094488188977,
                    "duration": 0.3671875
                },
                {
                    "name": "F4",
                    "midi": 65,
                    "time": 43.125,
                    "velocity": 0.7244094488188977,
                    "duration": 0.3671875
                },
                {
                    "name": "G3",
                    "midi": 55,
                    "time": 43.5,
                    "velocity": 0.7244094488188977,
                    "duration": 0.3671875
                },
                {
                    "name": "F4",
                    "midi": 65,
                    "time": 43.5,
                    "velocity": 0.7244094488188977,
                    "duration": 0.3671875
                },
                {
                    "name": "G3",
                    "midi": 55,
                    "time": 43.875,
                    "velocity": 0.7244094488188977,
                    "duration": 0.3671875
                },
                {
                    "name": "F4",
                    "midi": 65,
                    "time": 43.875,
                    "velocity": 0.7244094488188977,
                    "duration": 0.3671875
                },
                {
                    "name": "G3",
                    "midi": 55,
                    "time": 45.75,
                    "velocity": 0.7244094488188977,
                    "duration": 0.3671875
                },
                {
                    "name": "E4",
                    "midi": 64,
                    "time": 45.75,
                    "velocity": 0.7244094488188977,
                    "duration": 0.3671875
                },
                {
                    "name": "G3",
                    "midi": 55,
                    "time": 46.125,
                    "velocity": 0.7244094488188977,
                    "duration": 0.3671875
                },
                {
                    "name": "E4",
                    "midi": 64,
                    "time": 46.125,
                    "velocity": 0.7244094488188977,
                    "duration": 0.3671875
                },
                {
                    "name": "G3",
                    "midi": 55,
                    "time": 46.5,
                    "velocity": 0.7244094488188977,
                    "duration": 0.3671875
                },
                {
                    "name": "E4",
                    "midi": 64,
                    "time": 46.5,
                    "velocity": 0.7244094488188977,
                    "duration": 0.3671875
                },
                {
                    "name": "G3",
                    "midi": 55,
                    "time": 46.875,
                    "velocity": 0.7244094488188977,
                    "duration": 0.3671875
                },
                {
                    "name": "E4",
                    "midi": 64,
                    "time": 46.875,
                    "velocity": 0.7244094488188977,
                    "duration": 0.3671875
                },
                {
                    "name": "F4",
                    "midi": 65,
                    "time": 48.75,
                    "velocity": 0.7244094488188977,
                    "duration": 0.3671875
                },
                {
                    "name": "C5",
                    "midi": 72,
                    "time": 48.75,
                    "velocity": 0.7244094488188977,
                    "duration": 0.3671875
                },
                {
                    "name": "F4",
                    "midi": 65,
                    "time": 49.125,
                    "velocity": 0.7244094488188977,
                    "duration": 0.3671875
                },
                {
                    "name": "E4",
                    "midi": 64,
                    "time": 50.25,
                    "velocity": 0.7244094488188977,
                    "duration": 0.3671875
                },
                {
                    "name": "C5",
                    "midi": 72,
                    "time": 50.25,
                    "velocity": 0.7244094488188977,
                    "duration": 0.3671875
                },
                {
                    "name": "E4",
                    "midi": 64,
                    "time": 50.625,
                    "velocity": 0.7244094488188977,
                    "duration": 0.3671875
                },
                {
                    "name": "D4",
                    "midi": 62,
                    "time": 51.75,
                    "velocity": 0.7244094488188977,
                    "duration": 0.3671875
                },
                {
                    "name": "D4",
                    "midi": 62,
                    "time": 52.125,
                    "velocity": 0.7244094488188977,
                    "duration": 0.3671875
                },
                {
                    "name": "C4",
                    "midi": 60,
                    "time": 53.25,
                    "velocity": 0.7244094488188977,
                    "duration": 0.3671875
                },
                {
                    "name": "G4",
                    "midi": 67,
                    "time": 53.25,
                    "velocity": 0.7244094488188977,
                    "duration": 0.3671875
                },
                {
                    "name": "C4",
                    "midi": 60,
                    "time": 53.625,
                    "velocity": 0.7244094488188977,
                    "duration": 0.3671875
                },
                {
                    "name": "F4",
                    "midi": 65,
                    "time": 54.375,
                    "velocity": 0.5905511811023622,
                    "duration": 0.625
                },
                {
                    "name": "F4",
                    "midi": 65,
                    "time": 55.875,
                    "velocity": 0.5905511811023622,
                    "duration": 0.3671875
                },
                {
                    "name": "F#4",
                    "midi": 66,
                    "time": 56.625,
                    "velocity": 0.5905511811023622,
                    "duration": 0.3671875
                },
                {
                    "name": "G4",
                    "midi": 67,
                    "time": 57.75,
                    "velocity": 0.5905511811023622,
                    "duration": 0.3671875
                },
                {
                    "name": "F#4",
                    "midi": 66,
                    "time": 58.125,
                    "velocity": 0.5905511811023622,
                    "duration": 0.3671875
                },
                {
                    "name": "G4",
                    "midi": 67,
                    "time": 58.5,
                    "velocity": 0.5905511811023622,
                    "duration": 0.3671875
                },
                {
                    "name": "G3",
                    "midi": 55,
                    "time": 58.875,
                    "velocity": 0.5905511811023622,
                    "duration": 0.3671875
                },
                {
                    "name": "G3",
                    "midi": 55,
                    "time": 60.75,
                    "velocity": 0.5905511811023622,
                    "duration": 0.3671875
                },
                {
                    "name": "E4",
                    "midi": 64,
                    "time": 60.75,
                    "velocity": 0.5905511811023622,
                    "duration": 0.3671875
                },
                {
                    "name": "G3",
                    "midi": 55,
                    "time": 61.125,
                    "velocity": 0.5905511811023622,
                    "duration": 0.3671875
                },
                {
                    "name": "E4",
                    "midi": 64,
                    "time": 61.125,
                    "velocity": 0.5905511811023622,
                    "duration": 0.3671875
                },
                {
                    "name": "G3",
                    "midi": 55,
                    "time": 61.5,
                    "velocity": 0.5905511811023622,
                    "duration": 0.3671875
                },
                {
                    "name": "E4",
                    "midi": 64,
                    "time": 61.5,
                    "velocity": 0.5905511811023622,
                    "duration": 0.3671875
                },
                {
                    "name": "G3",
                    "midi": 55,
                    "time": 61.875,
                    "velocity": 0.5905511811023622,
                    "duration": 0.3671875
                },
                {
                    "name": "E4",
                    "midi": 64,
                    "time": 61.875,
                    "velocity": 0.5905511811023622,
                    "duration": 0.3671875
                },
                {
                    "name": "G3",
                    "midi": 55,
                    "time": 63.75,
                    "velocity": 0.5905511811023622,
                    "duration": 0.3671875
                },
                {
                    "name": "F4",
                    "midi": 65,
                    "time": 63.75,
                    "velocity": 0.5905511811023622,
                    "duration": 0.3671875
                },
                {
                    "name": "G3",
                    "midi": 55,
                    "time": 64.125,
                    "velocity": 0.5905511811023622,
                    "duration": 0.3671875
                },
                {
                    "name": "F4",
                    "midi": 65,
                    "time": 64.125,
                    "velocity": 0.5905511811023622,
                    "duration": 0.3671875
                },
                {
                    "name": "G3",
                    "midi": 55,
                    "time": 64.5,
                    "velocity": 0.5905511811023622,
                    "duration": 0.3671875
                },
                {
                    "name": "F4",
                    "midi": 65,
                    "time": 64.5,
                    "velocity": 0.5905511811023622,
                    "duration": 0.3671875
                },
                {
                    "name": "G3",
                    "midi": 55,
                    "time": 64.875,
                    "velocity": 0.5905511811023622,
                    "duration": 0.3671875
                },
                {
                    "name": "F4",
                    "midi": 65,
                    "time": 64.875,
                    "velocity": 0.5905511811023622,
                    "duration": 0.3671875
                },
                {
                    "name": "G3",
                    "midi": 55,
                    "time": 66.75,
                    "velocity": 0.5905511811023622,
                    "duration": 0.3671875
                },
                {
                    "name": "F4",
                    "midi": 65,
                    "time": 66.75,
                    "velocity": 0.5905511811023622,
                    "duration": 0.3671875
                },
                {
                    "name": "G3",
                    "midi": 55,
                    "time": 67.125,
                    "velocity": 0.5905511811023622,
                    "duration": 0.3671875
                },
                {
                    "name": "F4",
                    "midi": 65,
                    "time": 67.125,
                    "velocity": 0.5905511811023622,
                    "duration": 0.3671875
                },
                {
                    "name": "G3",
                    "midi": 55,
                    "time": 67.5,
                    "velocity": 0.5905511811023622,
                    "duration": 0.3671875
                },
                {
                    "name": "F4",
                    "midi": 65,
                    "time": 67.5,
                    "velocity": 0.5905511811023622,
                    "duration": 0.3671875
                },
                {
                    "name": "G3",
                    "midi": 55,
                    "time": 67.875,
                    "velocity": 0.5905511811023622,
                    "duration": 0.3671875
                },
                {
                    "name": "F4",
                    "midi": 65,
                    "time": 67.875,
                    "velocity": 0.5905511811023622,
                    "duration": 0.3671875
                },
                {
                    "name": "G3",
                    "midi": 55,
                    "time": 69.75,
                    "velocity": 0.5905511811023622,
                    "duration": 0.3671875
                },
                {
                    "name": "E4",
                    "midi": 64,
                    "time": 69.75,
                    "velocity": 0.5905511811023622,
                    "duration": 0.3671875
                },
                {
                    "name": "G3",
                    "midi": 55,
                    "time": 70.125,
                    "velocity": 0.5905511811023622,
                    "duration": 0.3671875
                },
                {
                    "name": "E4",
                    "midi": 64,
                    "time": 70.125,
                    "velocity": 0.5905511811023622,
                    "duration": 0.3671875
                },
                {
                    "name": "G3",
                    "midi": 55,
                    "time": 70.5,
                    "velocity": 0.5905511811023622,
                    "duration": 0.3671875
                },
                {
                    "name": "E4",
                    "midi": 64,
                    "time": 70.5,
                    "velocity": 0.5905511811023622,
                    "duration": 0.3671875
                },
                {
                    "name": "G3",
                    "midi": 55,
                    "time": 70.875,
                    "velocity": 0.5905511811023622,
                    "duration": 0.3671875
                },
                {
                    "name": "E4",
                    "midi": 64,
                    "time": 70.875,
                    "velocity": 0.5905511811023622,
                    "duration": 0.3671875
                },
                {
                    "name": "F4",
                    "midi": 65,
                    "time": 72.75,
                    "velocity": 0.7244094488188977,
                    "duration": 0.3671875
                },
                {
                    "name": "C5",
                    "midi": 72,
                    "time": 72.75,
                    "velocity": 0.7244094488188977,
                    "duration": 0.3671875
                },
                {
                    "name": "F4",
                    "midi": 65,
                    "time": 73.125,
                    "velocity": 0.7244094488188977,
                    "duration": 0.3671875
                },
                {
                    "name": "C5",
                    "midi": 72,
                    "time": 73.125,
                    "velocity": 0.7244094488188977,
                    "duration": 0.3671875
                },
                {
                    "name": "E4",
                    "midi": 64,
                    "time": 74.25,
                    "velocity": 0.7244094488188977,
                    "duration": 0.3671875
                },
                {
                    "name": "C5",
                    "midi": 72,
                    "time": 74.25,
                    "velocity": 0.7244094488188977,
                    "duration": 0.3671875
                },
                {
                    "name": "E4",
                    "midi": 64,
                    "time": 74.625,
                    "velocity": 0.7244094488188977,
                    "duration": 0.3671875
                },
                {
                    "name": "C5",
                    "midi": 72,
                    "time": 74.625,
                    "velocity": 0.7244094488188977,
                    "duration": 0.3671875
                },
                {
                    "name": "D#4",
                    "midi": 63,
                    "time": 75.375,
                    "velocity": 0.7244094488188977,
                    "duration": 0.625
                },
                {
                    "name": "A#4",
                    "midi": 70,
                    "time": 75.375,
                    "velocity": 0.7244094488188977,
                    "duration": 0.625
                },
                {
                    "name": "D4",
                    "midi": 62,
                    "time": 76.125,
                    "velocity": 0.7244094488188977,
                    "duration": 0.625
                },
                {
                    "name": "B3",
                    "midi": 59,
                    "time": 76.875,
                    "velocity": 0.7244094488188977,
                    "duration": 0.625
                },
                {
                    "name": "F#4",
                    "midi": 66,
                    "time": 76.875,
                    "velocity": 0.7244094488188977,
                    "duration": 0.625
                },
                {
                    "name": "C4",
                    "midi": 60,
                    "time": 77.625,
                    "velocity": 0.7244094488188977,
                    "duration": 0.625
                },
                {
                    "name": "G4",
                    "midi": 67,
                    "time": 77.625,
                    "velocity": 0.7244094488188977,
                    "duration": 0.625
                },
                {
                    "name": "F4",
                    "midi": 65,
                    "time": 78.375,
                    "velocity": 0.7244094488188977,
                    "duration": 0.625
                },
                {
                    "name": "G4",
                    "midi": 67,
                    "time": 79.875,
                    "velocity": 0.7244094488188977,
                    "duration": 0.625
                },
                {
                    "name": "G3",
                    "midi": 55,
                    "time": 80.625,
                    "velocity": 0.7244094488188977,
                    "duration": 0.625
                },
                {
                    "name": "A3",
                    "midi": 57,
                    "time": 81.75,
                    "velocity": 0.7244094488188977,
                    "duration": 0.3671875
                },
                {
                    "name": "F#4",
                    "midi": 66,
                    "time": 81.75,
                    "velocity": 0.7244094488188977,
                    "duration": 0.3671875
                },
                {
                    "name": "A3",
                    "midi": 57,
                    "time": 82.125,
                    "velocity": 0.7244094488188977,
                    "duration": 0.3671875
                },
                {
                    "name": "F#4",
                    "midi": 66,
                    "time": 82.125,
                    "velocity": 0.7244094488188977,
                    "duration": 0.3671875
                },
                {
                    "name": "A3",
                    "midi": 57,
                    "time": 82.5,
                    "velocity": 0.7244094488188977,
                    "duration": 0.3671875
                },
                {
                    "name": "F#4",
                    "midi": 66,
                    "time": 82.5,
                    "velocity": 0.7244094488188977,
                    "duration": 0.3671875
                },
                {
                    "name": "A3",
                    "midi": 57,
                    "time": 82.875,
                    "velocity": 0.7244094488188977,
                    "duration": 0.3671875
                },
                {
                    "name": "F#4",
                    "midi": 66,
                    "time": 82.875,
                    "velocity": 0.7244094488188977,
                    "duration": 0.3671875
                },
                {
                    "name": "F4",
                    "midi": 65,
                    "time": 84.75,
                    "velocity": 0.7244094488188977,
                    "duration": 0.3671875
                },
                {
                    "name": "E4",
                    "midi": 64,
                    "time": 85.5,
                    "velocity": 0.7244094488188977,
                    "duration": 0.3671875
                },
                {
                    "name": "F4",
                    "midi": 65,
                    "time": 86.25,
                    "velocity": 0.7244094488188977,
                    "duration": 0.3671875
                },
                {
                    "name": "A4",
                    "midi": 69,
                    "time": 86.25,
                    "velocity": 0.7244094488188977,
                    "duration": 0.3671875
                },
                {
                    "name": "F#4",
                    "midi": 66,
                    "time": 87,
                    "velocity": 0.7244094488188977,
                    "duration": 0.3671875
                },
                {
                    "name": "A#4",
                    "midi": 70,
                    "time": 87,
                    "velocity": 0.7244094488188977,
                    "duration": 0.3671875
                },
                {
                    "name": "G4",
                    "midi": 67,
                    "time": 87.75,
                    "velocity": 0.7244094488188977,
                    "duration": 0.3671875
                },
                {
                    "name": "C5",
                    "midi": 72,
                    "time": 87.75,
                    "velocity": 0.7244094488188977,
                    "duration": 0.3671875
                },
                {
                    "name": "G4",
                    "midi": 67,
                    "time": 88.125,
                    "velocity": 0.7244094488188977,
                    "duration": 0.3671875
                },
                {
                    "name": "C5",
                    "midi": 72,
                    "time": 88.125,
                    "velocity": 0.7244094488188977,
                    "duration": 0.3671875
                },
                {
                    "name": "G3",
                    "midi": 55,
                    "time": 89.25,
                    "velocity": 0.7244094488188977,
                    "duration": 0.3671875
                },
                {
                    "name": "F4",
                    "midi": 65,
                    "time": 89.25,
                    "velocity": 0.7244094488188977,
                    "duration": 0.3671875
                },
                {
                    "name": "G3",
                    "midi": 55,
                    "time": 89.625,
                    "velocity": 0.7244094488188977,
                    "duration": 0.3671875
                },
                {
                    "name": "F4",
                    "midi": 65,
                    "time": 89.625,
                    "velocity": 0.7244094488188977,
                    "duration": 0.3671875
                },
                {
                    "name": "G#3",
                    "midi": 56,
                    "time": 90.75,
                    "velocity": 0.5905511811023622,
                    "duration": 0.3671875
                },
                {
                    "name": "D#4",
                    "midi": 63,
                    "time": 90.75,
                    "velocity": 0.5905511811023622,
                    "duration": 0.3671875
                },
                {
                    "name": "G#3",
                    "midi": 56,
                    "time": 91.125,
                    "velocity": 0.5905511811023622,
                    "duration": 0.3671875
                },
                {
                    "name": "D#4",
                    "midi": 63,
                    "time": 91.125,
                    "velocity": 0.5905511811023622,
                    "duration": 0.3671875
                },
                {
                    "name": "G#3",
                    "midi": 56,
                    "time": 91.5,
                    "velocity": 0.5905511811023622,
                    "duration": 0.3671875
                },
                {
                    "name": "D#4",
                    "midi": 63,
                    "time": 91.5,
                    "velocity": 0.5905511811023622,
                    "duration": 0.3671875
                },
                {
                    "name": "G#3",
                    "midi": 56,
                    "time": 91.875,
                    "velocity": 0.5905511811023622,
                    "duration": 0.3671875
                },
                {
                    "name": "D#4",
                    "midi": 63,
                    "time": 91.875,
                    "velocity": 0.5905511811023622,
                    "duration": 0.3671875
                },
                {
                    "name": "G#3",
                    "midi": 56,
                    "time": 93.75,
                    "velocity": 0.5905511811023622,
                    "duration": 0.3671875
                },
                {
                    "name": "D#4",
                    "midi": 63,
                    "time": 93.75,
                    "velocity": 0.5905511811023622,
                    "duration": 0.3671875
                },
                {
                    "name": "G#3",
                    "midi": 56,
                    "time": 94.125,
                    "velocity": 0.5905511811023622,
                    "duration": 0.3671875
                },
                {
                    "name": "D#4",
                    "midi": 63,
                    "time": 94.125,
                    "velocity": 0.5905511811023622,
                    "duration": 0.3671875
                },
                {
                    "name": "G#3",
                    "midi": 56,
                    "time": 94.5,
                    "velocity": 0.5905511811023622,
                    "duration": 0.3671875
                },
                {
                    "name": "D#4",
                    "midi": 63,
                    "time": 94.5,
                    "velocity": 0.5905511811023622,
                    "duration": 0.3671875
                },
                {
                    "name": "G#3",
                    "midi": 56,
                    "time": 94.875,
                    "velocity": 0.5905511811023622,
                    "duration": 0.3671875
                },
                {
                    "name": "D#4",
                    "midi": 63,
                    "time": 94.875,
                    "velocity": 0.5905511811023622,
                    "duration": 0.3671875
                },
                {
                    "name": "G#3",
                    "midi": 56,
                    "time": 96.75,
                    "velocity": 0.6062992125984252,
                    "duration": 0.3671875
                },
                {
                    "name": "D#4",
                    "midi": 63,
                    "time": 96.75,
                    "velocity": 0.6062992125984252,
                    "duration": 0.3671875
                },
                {
                    "name": "G#3",
                    "midi": 56,
                    "time": 97.125,
                    "velocity": 0.6220472440944882,
                    "duration": 0.3671875
                },
                {
                    "name": "D#4",
                    "midi": 63,
                    "time": 97.125,
                    "velocity": 0.6220472440944882,
                    "duration": 0.3671875
                },
                {
                    "name": "G#3",
                    "midi": 56,
                    "time": 97.5,
                    "velocity": 0.6377952755905512,
                    "duration": 0.3671875
                },
                {
                    "name": "D#4",
                    "midi": 63,
                    "time": 97.5,
                    "velocity": 0.6377952755905512,
                    "duration": 0.3671875
                },
                {
                    "name": "G#3",
                    "midi": 56,
                    "time": 97.875,
                    "velocity": 0.6535433070866141,
                    "duration": 0.3671875
                },
                {
                    "name": "F#4",
                    "midi": 66,
                    "time": 97.875,
                    "velocity": 0.6535433070866141,
                    "duration": 0.3671875
                },
                {
                    "name": "F4",
                    "midi": 65,
                    "time": 99.75,
                    "velocity": 0.7244094488188977,
                    "duration": 0.3671875
                },
                {
                    "name": "E4",
                    "midi": 64,
                    "time": 100.5,
                    "velocity": 0.7244094488188977,
                    "duration": 0.3671875
                },
                {
                    "name": "F4",
                    "midi": 65,
                    "time": 101.25,
                    "velocity": 0.7244094488188977,
                    "duration": 0.3671875
                },
                {
                    "name": "C5",
                    "midi": 72,
                    "time": 101.25,
                    "velocity": 0.7244094488188977,
                    "duration": 0.3671875
                },
                {
                    "name": "G3",
                    "midi": 55,
                    "time": 102,
                    "velocity": 0.7244094488188977,
                    "duration": 0.3671875
                },
                {
                    "name": "F4",
                    "midi": 65,
                    "time": 102,
                    "velocity": 0.7244094488188977,
                    "duration": 0.3671875
                },
                {
                    "name": "G3",
                    "midi": 55,
                    "time": 102.75,
                    "velocity": 0.7244094488188977,
                    "duration": 0.3671875
                },
                {
                    "name": "E4",
                    "midi": 64,
                    "time": 102.75,
                    "velocity": 0.7244094488188977,
                    "duration": 0.3671875
                },
                {
                    "name": "G3",
                    "midi": 55,
                    "time": 103.125,
                    "velocity": 0.7244094488188977,
                    "duration": 0.3671875
                },
                {
                    "name": "E4",
                    "midi": 64,
                    "time": 103.125,
                    "velocity": 0.7244094488188977,
                    "duration": 0.3671875
                },
                {
                    "name": "G3",
                    "midi": 55,
                    "time": 103.875,
                    "velocity": 0.7244094488188977,
                    "duration": 0.3671875
                },
                {
                    "name": "F4",
                    "midi": 65,
                    "time": 103.875,
                    "velocity": 0.7244094488188977,
                    "duration": 0.3671875
                },
                {
                    "name": "G3",
                    "midi": 55,
                    "time": 105.75,
                    "velocity": 0.7244094488188977,
                    "duration": 0.3671875
                },
                {
                    "name": "E4",
                    "midi": 64,
                    "time": 105.75,
                    "velocity": 0.7244094488188977,
                    "duration": 0.3671875
                },
                {
                    "name": "G3",
                    "midi": 55,
                    "time": 106.125,
                    "velocity": 0.7244094488188977,
                    "duration": 0.3671875
                },
                {
                    "name": "E4",
                    "midi": 64,
                    "time": 106.125,
                    "velocity": 0.7244094488188977,
                    "duration": 0.3671875
                },
                {
                    "name": "G3",
                    "midi": 55,
                    "time": 106.875,
                    "velocity": 0.5905511811023622,
                    "duration": 0.3671875
                },
                {
                    "name": "F4",
                    "midi": 65,
                    "time": 106.875,
                    "velocity": 0.5905511811023622,
                    "duration": 0.3671875
                },
                {
                    "name": "G3",
                    "midi": 55,
                    "time": 108.375,
                    "velocity": 0.5905511811023622,
                    "duration": 0.625
                },
                {
                    "name": "E4",
                    "midi": 64,
                    "time": 108.375,
                    "velocity": 0.5905511811023622,
                    "duration": 0.625
                },
                {
                    "name": "G3",
                    "midi": 55,
                    "time": 109.875,
                    "velocity": 0.5905511811023622,
                    "duration": 0.625
                },
                {
                    "name": "F4",
                    "midi": 65,
                    "time": 109.875,
                    "velocity": 0.5905511811023622,
                    "duration": 0.625
                },
                {
                    "name": "G3",
                    "midi": 55,
                    "time": 111.375,
                    "velocity": 0.5905511811023622,
                    "duration": 0.625
                },
                {
                    "name": "E4",
                    "midi": 64,
                    "time": 111.375,
                    "velocity": 0.5905511811023622,
                    "duration": 0.625
                },
                {
                    "name": "G3",
                    "midi": 55,
                    "time": 112.875,
                    "velocity": 0.6535433070866141,
                    "duration": 0.625
                },
                {
                    "name": "F4",
                    "midi": 65,
                    "time": 112.875,
                    "velocity": 0.6535433070866141,
                    "duration": 0.625
                },
                {
                    "name": "G3",
                    "midi": 55,
                    "time": 114.75,
                    "velocity": 0.7244094488188977,
                    "duration": 0.3671875
                },
                {
                    "name": "E4",
                    "midi": 64,
                    "time": 114.75,
                    "velocity": 0.7244094488188977,
                    "duration": 0.3671875
                },
                {
                    "name": "G3",
                    "midi": 55,
                    "time": 115.5,
                    "velocity": 0.7244094488188977,
                    "duration": 0.3671875
                },
                {
                    "name": "F4",
                    "midi": 65,
                    "time": 115.5,
                    "velocity": 0.7244094488188977,
                    "duration": 0.3671875
                },
                {
                    "name": "G3",
                    "midi": 55,
                    "time": 116.25,
                    "velocity": 0.7244094488188977,
                    "duration": 0.3671875
                },
                {
                    "name": "E4",
                    "midi": 64,
                    "time": 116.25,
                    "velocity": 0.7244094488188977,
                    "duration": 0.3671875
                },
                {
                    "name": "G3",
                    "midi": 55,
                    "time": 117,
                    "velocity": 0.7244094488188977,
                    "duration": 0.3671875
                },
                {
                    "name": "F4",
                    "midi": 65,
                    "time": 117,
                    "velocity": 0.7244094488188977,
                    "duration": 0.3671875
                },
                {
                    "name": "G4",
                    "midi": 67,
                    "time": 117.75,
                    "velocity": 0.7401574803149606,
                    "duration": 0.3671875
                },
                {
                    "name": "E5",
                    "midi": 76,
                    "time": 117.75,
                    "velocity": 0.7401574803149606,
                    "duration": 0.3671875
                },
                {
                    "name": "G4",
                    "midi": 67,
                    "time": 118.5,
                    "velocity": 0.7716535433070866,
                    "duration": 0.3671875
                },
                {
                    "name": "F5",
                    "midi": 77,
                    "time": 118.5,
                    "velocity": 0.7716535433070866,
                    "duration": 0.3671875
                },
                {
                    "name": "G4",
                    "midi": 67,
                    "time": 119.25,
                    "velocity": 0.8031496062992126,
                    "duration": 0.3671875
                },
                {
                    "name": "E5",
                    "midi": 76,
                    "time": 119.25,
                    "velocity": 0.8031496062992126,
                    "duration": 0.3671875
                },
                {
                    "name": "G4",
                    "midi": 67,
                    "time": 120,
                    "velocity": 0.8346456692913385,
                    "duration": 0.3671875
                },
                {
                    "name": "F5",
                    "midi": 77,
                    "time": 120,
                    "velocity": 0.8346456692913385,
                    "duration": 0.3671875
                },
                {
                    "name": "G4",
                    "midi": 67,
                    "time": 120.375,
                    "velocity": 0.8503937007874016,
                    "duration": 0.3671875
                },
                {
                    "name": "E5",
                    "midi": 76,
                    "time": 120.375,
                    "velocity": 0.8503937007874016,
                    "duration": 0.3671875
                },
                {
                    "name": "C4",
                    "midi": 60,
                    "time": 121.875,
                    "velocity": 0.8503937007874016,
                    "duration": 0.3671875
                },
                {
                    "name": "G4",
                    "midi": 67,
                    "time": 121.875,
                    "velocity": 0.8503937007874016,
                    "duration": 0.3671875
                },
                {
                    "name": "C4",
                    "midi": 60,
                    "time": 123.1875,
                    "velocity": 0.8503937007874016,
                    "duration": 0.1796875
                },
                {
                    "name": "G4",
                    "midi": 67,
                    "time": 123.1875,
                    "velocity": 0.8503937007874016,
                    "duration": 0.1796875
                },
                {
                    "name": "C4",
                    "midi": 60,
                    "time": 123.375,
                    "velocity": 0.8503937007874016,
                    "duration": 0.625
                },
                {
                    "name": "G4",
                    "midi": 67,
                    "time": 123.375,
                    "velocity": 0.8503937007874016,
                    "duration": 0.625
                },
                {
                    "name": "C4",
                    "midi": 60,
                    "time": 124.875,
                    "velocity": 1,
                    "duration": 0.75
                },
                {
                    "name": "G4",
                    "midi": 67,
                    "time": 124.875,
                    "velocity": 1,
                    "duration": 0.75
                },
                {
                    "name": "E5",
                    "midi": 76,
                    "time": 124.875,
                    "velocity": 1,
                    "duration": 0.75
                },
                {
                    "name": "C6",
                    "midi": 84,
                    "time": 124.875,
                    "velocity": 1,
                    "duration": 0.75
                }
            ],
            "controlChanges": {
                "7": [
                    {
                        "number": 7,
                        "time": 0,
                        "value": 1
                    }
                ],
                "10": [
                    {
                        "number": 10,
                        "time": 0,
                        "value": 0.5039370078740157
                    }
                ]
            },
            "id": 2,
            "name": "Pizzicato (LH)",
            "instrumentNumber": 45,
            "instrument": "pizzicato strings",
            "instrumentFamily": "strings",
            "channelNumber": 1,
            "isPercussion": false
        }
    ]
}